<?xml version="1.0" encoding="utf-8"?>
<!-- Generator: Adobe Illustrator 24.0.0, SVG Export Plug-In . SVG Version: 6.00 Build 0)  -->
<svg version="1.1" id="Layer_1" xmlns="http://www.w3.org/2000/svg" xmlns:xlink="http://www.w3.org/1999/xlink" x="0px" y="0px"
	 viewBox="0 0 302 224.7" style="enable-background:new 0 0 302 224.7;" xml:space="preserve">
<style type="text/css">
	.st0{fill:#231F20;}
</style>
<path class="st0" d="M300.4,136.8c-5.3-22.5-23.3-28.2-48.3-32.7c-24.6-4.4-47.5-17.5-63.6-36.6c-16.8-19.9-25.3-47.6-49.8-60.1
	C126.8,1.2,113-0.3,99.7,0C86,0.4,71.9,3.2,60.1,10.3c-12.3,7.4-19,19.4-23.3,32.7c-4.9,15.2-9.4,30.6-14.1,46
	c-4.7,15.4-9.4,30.8-14.1,46.2c-4.2,13.7-10.2,28.4-8.2,43c3.5,25.8,28.4,43.2,53,45.9c29.5,3.3,57.2-9.2,83.8-20
	c14.6-6,29.4-11.3,45.1-13.7c15-2.3,30.1-2.6,45.2-4.1c16.8-1.6,74.8-11.4,74.5-35.5C301.9,145.5,301.3,140.9,300.4,136.8z"/>
</svg>
