<?xml version="1.0" encoding="utf-8"?>
<!-- Generator: Adobe Illustrator 24.0.0, SVG Export Plug-In . SVG Version: 6.00 Build 0)  -->
<svg version="1.1" id="Layer_1" xmlns="http://www.w3.org/2000/svg" xmlns:xlink="http://www.w3.org/1999/xlink" x="0px" y="0px"
	 viewBox="0 0 273.4 212.7" style="enable-background:new 0 0 273.4 212.7;" xml:space="preserve">
<style type="text/css">
	.st0{fill:#231F20;}
</style>
<path class="st0" d="M270.8,128.6c-4.4-11.9-13.7-21.1-23.9-28.2c-11.4-8-24.5-13.8-38-17.2c-25.7-6.5-53.8-4.6-78.2-16.1
	c-11.6-5.5-21.4-14-29.8-23.6C82.7,22.5,69.9-6,36.3,1.1C20.5,4.5,7,16.9,2.2,32.4C-3.8,52,3.9,72.9,8,93
	c3.3,16.2,4.5,33.1,11.4,48.1c8.8,19.1,25.8,32.4,43.4,43.1c17.1,10.5,33,24.2,53.5,27.4c7.4,1.2,14.9,1.3,22.4,1.1
	c7.7-0.2,15.4-0.7,23-1.3c14.9-1.2,29.9-3.1,44.6-6.2c13.1-2.8,26.1-6.9,37.5-13.9c10.7-6.6,19.7-15.9,25-27.4
	C273.7,152.8,275.2,140.1,270.8,128.6z"/>
</svg>
