<?xml version="1.0" encoding="utf-8"?>
<!-- Generator: Adobe Illustrator 24.0.0, SVG Export Plug-In . SVG Version: 6.00 Build 0)  -->
<svg version="1.1" id="Layer_1" xmlns="http://www.w3.org/2000/svg" xmlns:xlink="http://www.w3.org/1999/xlink" x="0px" y="0px"
	 viewBox="0 0 250.2 231.7" style="enable-background:new 0 0 250.2 231.7;" xml:space="preserve">
<style type="text/css">
	.st0{fill:#231F20;}
</style>
<path class="st0" d="M243.9,81.2c-1.6-3.6-3.4-7.4-5.6-11.2c-12.3-21.9-34.6-36.7-58.1-45.8c-23.5-9.1-48.5-13.2-72.9-19
	C96.9,2.7,86.4-0.1,75.7,0C53.3,0.2,32.3,13.5,19.4,31.8C6.5,50.1,1,72.8,0.1,95.2c-0.8,20.1,2.2,41.1,13.4,57.7
	c6,8.9,14.1,16.1,22.2,23.3c12.5,11.1,25,22.3,37.5,33.4c6.7,6,13.6,12.1,21.7,16.2c26.5,13.4,66.7,2.6,87.5-16
	c5-4.5,10.3-8.5,15.7-12.5c10.3-7.6,20.9-15.2,29.2-25.2c7-8.5,12.4-18.2,16.2-28.6C251.9,119.8,252.8,102,243.9,81.2z"/>
</svg>
