<?xml version="1.0" encoding="utf-8"?>
<!-- Generator: Adobe Illustrator 24.0.0, SVG Export Plug-In . SVG Version: 6.00 Build 0)  -->
<svg version="1.1" id="Layer_1" xmlns="http://www.w3.org/2000/svg" xmlns:xlink="http://www.w3.org/1999/xlink" x="0px" y="0px"
	 viewBox="0 0 193.8 210.8" style="enable-background:new 0 0 193.8 210.8;" xml:space="preserve">
<style type="text/css">
	.st0{fill:#231F20;}
</style>
<path class="st0" d="M182,168.5c-11.6,11.3-28.9,13.6-44.8,16.8c-17.8,3.6-35.3,8.9-52.1,15.8c-21.8,9-59.3,18.9-75.3-6.4
	c-6.3-10-7-22.5-5.9-34.2c1.1-11.7,4-23.3,4.1-35.1c0.3-17-5-33.5-7.3-50.3c-4.5-31.8,14.8-77.8,53.6-75C72.5,1.5,87,15.3,101,27.1
	c15.8,13.3,32.9,23.9,50.6,34.4c12,7.1,25.8,15.4,32.3,28.4C194.5,111.2,200.3,150.8,182,168.5z"/>
</svg>
