<?xml version="1.0" encoding="utf-8"?>
<!-- Generator: Adobe Illustrator 24.0.0, SVG Export Plug-In . SVG Version: 6.00 Build 0)  -->
<svg version="1.1" id="Layer_1" xmlns="http://www.w3.org/2000/svg" xmlns:xlink="http://www.w3.org/1999/xlink" x="0px" y="0px"
	 viewBox="0 0 72.7 63.5" style="enable-background:new 0 0 72.7 63.5;" xml:space="preserve">
<style type="text/css">
	.st0{fill:#231F20;}
</style>
<path class="st0" d="M58.2,0.6C52.1-0.1,45.6-0.7,40,1.7c-5.7,2.4-10.1,8.9-7.9,14.7c0.7,1.8,2,3.7,1.4,5.6
	c-0.6,2.2-3.3,2.9-5.6,3.3c-6.2,1-12.6,2-18.1,5.1c-5.5,3.1-10,8.8-9.8,15.1c0.3,9,9.6,15,18.4,17c6,1.4,12.4,1.6,18.1-0.7
	c5.7-2.3,10.4-7.5,10.9-13.6c0.3-4.2-1.3-8.4-0.2-12.4c1.7-6,8.3-8.7,14-11.2c5.7-2.5,12-6.8,11.5-13c-0.3-3.7-3.2-6.9-6.5-8.5
	C62.8,1.3,59.1,0.7,58.2,0.6z"/>
</svg>
