<?xml version="1.0" encoding="utf-8"?>
<!-- Generator: Adobe Illustrator 24.0.0, SVG Export Plug-In . SVG Version: 6.00 Build 0)  -->
<svg version="1.1" id="Layer_1" xmlns="http://www.w3.org/2000/svg" xmlns:xlink="http://www.w3.org/1999/xlink" x="0px" y="0px"
	 viewBox="0 0 82.5 59.1" style="enable-background:new 0 0 82.5 59.1;" xml:space="preserve">
<style type="text/css">
	.st0{fill:#231F20;}
</style>
<path class="st0" d="M25.3,0.7C14.2,4.3,5,13.4,1.4,24.5C0.2,28-0.4,31.8,0.3,35.4c0.8,3.9,3,7.4,5.7,10.3
	c9.3,9.9,23.7,13.1,37.2,13.4c7.3,0.2,14.8-0.4,21.6-3c6.8-2.7,13-7.6,15.8-14.4c3.3-8,1.6-17.3-2-25.2c-2.5-5.4-5.9-10.6-11-13.7
	C62.7-0.3,55.8-1,50.9,2.3c-1.7,1.2-3.3,2.8-5.4,2.8c-1.8,0-3.3-1.2-4.7-2.1C35.4-0.6,28.9-0.4,25.3,0.7z"/>
</svg>
