<?xml version="1.0" encoding="utf-8"?>
<!-- Generator: Adobe Illustrator 24.0.0, SVG Export Plug-In . SVG Version: 6.00 Build 0)  -->
<svg version="1.1" id="Layer_1" xmlns="http://www.w3.org/2000/svg" xmlns:xlink="http://www.w3.org/1999/xlink" x="0px" y="0px"
	 viewBox="0 0 81.6 52.7" style="enable-background:new 0 0 81.6 52.7;" xml:space="preserve">
<style type="text/css">
	.st0{fill:#231F20;}
</style>
<path class="st0" d="M2.6,24.6c-1.9,6-3.6,12.5-1.8,18.6C2.5,49.2,9,54.3,15,52.3c2.8-0.9,5-3.2,7.3-5c7.7-5.9,18.6-7.1,27.4-3.1
	c4.1,1.9,7.9,4.9,12.5,5.1c5.4,0.3,10.2-3.5,13.5-7.7c3.7-4.6,6.4-10.5,5.7-16.4c-0.7-5.9-5.9-11.4-11.8-10.9
	c-4,0.3-7.5,3.1-11.4,3.4c-6.9,0.5-11.8-6.2-16.9-10.9c-5.7-5.2-13.8-8.4-21.2-6.1C10.2,3.8,5.6,15,2.6,24.6z"/>
</svg>
