<?xml version="1.0" encoding="utf-8"?>
<!-- Generator: Adobe Illustrator 24.0.0, SVG Export Plug-In . SVG Version: 6.00 Build 0)  -->
<svg version="1.1" id="Layer_1" xmlns="http://www.w3.org/2000/svg" xmlns:xlink="http://www.w3.org/1999/xlink" x="0px" y="0px"
	 viewBox="0 0 326.5 177.7" style="enable-background:new 0 0 326.5 177.7;" xml:space="preserve">
<style type="text/css">
	.st0{fill:#231F20;}
</style>
<path class="st0" d="M135.9,159.1c-14.8-3-29.8-5.1-44.9-6.3c-17.2-1.4-34.8-1.6-51.2-6.8c-16.5-5.2-32.2-16.4-37.6-32.8
	c-3.1-9.2-2.6-19.3-0.7-28.9C3.7,73.5,8.6,62,18.6,57.2c4.6-2.2,9.9-2.8,15-2.6C53.1,55.1,71,64.7,88.8,72.7
	c17.8,8,37.8,14.7,56.5,9.3c14.2-4.1,25.5-14.6,36.6-24.4c15.1-13.4,30.9-26.1,47.2-38c11.6-8.4,24.1-16.6,38.2-19
	C284-2.1,301.8,4,313.2,16.4c7.8,8.5,12.4,19.7,13.2,31.1c1,13.9-5.6,23.4-11.9,35.2c-11.3,21.1-25.6,40.6-42.4,57.6
	c-15.2,15.4-36.6,37.7-59.6,37.4c-13-0.2-25.4-4.8-37.8-8.7C162,165,149,161.7,135.9,159.1z"/>
</svg>
