<?xml version="1.0" encoding="utf-8"?>
<!-- Generator: Adobe Illustrator 24.0.0, SVG Export Plug-In . SVG Version: 6.00 Build 0)  -->
<svg version="1.1" id="Layer_1" xmlns="http://www.w3.org/2000/svg" xmlns:xlink="http://www.w3.org/1999/xlink" x="0px" y="0px"
	 viewBox="0 0 66.3 61.4" style="enable-background:new 0 0 66.3 61.4;" xml:space="preserve">
<style type="text/css">
	.st0{fill:#231F20;}
</style>
<path class="st0" d="M24.4,13.4C11.3,14.1,2.7,19.9,0.9,25.7c-1.8,5.8-0.7,12.2,2.3,17.5c2.9,5.3,7.5,9.5,12.6,12.8
	c4,2.6,8.3,4.7,13,5.3c4.6,0.5,9.2-0.6,13.7-1.8c5.8-1.5,11.6-3.2,16.6-6.4c4.1-2.6,7.8-7,7-11.8c-0.7-4.1-4.6-7.1-5.2-11.2
	c-0.9-5.7,4.7-10.5,5.4-16.2c0.9-6.7-7.4-13.6-12-13.9C37.2-1.1,30.5,13.1,24.4,13.4z"/>
</svg>
