<?xml version="1.0" encoding="utf-8"?>
<!-- Generator: Adobe Illustrator 24.0.0, SVG Export Plug-In . SVG Version: 6.00 Build 0)  -->
<svg version="1.1" id="Layer_1" xmlns="http://www.w3.org/2000/svg" xmlns:xlink="http://www.w3.org/1999/xlink" x="0px" y="0px"
	 viewBox="0 0 64.6 70.2" style="enable-background:new 0 0 64.6 70.2;" xml:space="preserve">
<style type="text/css">
	.st0{fill:#231F20;}
</style>
<path class="st0" d="M22.4,2.8c-4.1,1.8-8.4,3.8-11.2,7.3c-2.8,3.5-3.5,9.1-0.3,12.3c1.5,1.5,3.6,2.2,5.4,3.4
	c1.8,1.2,3.4,3.2,2.8,5.3c-0.3,1.3-1.4,2.3-2.5,3.1c-3.5,3-7,5.9-10.5,8.9c-3,2.6-6.4,5.7-6.3,9.7c0,1.9,0.9,3.8,1.9,5.4
	c6.9,11.3,23.4,15.4,34.8,8.7c1.6-0.9,3.1-2.1,3.7-3.9c0.9-2.8-1.3-5.6-1.6-8.6c-0.5-4.5,3.3-8.4,7.4-10.4c4.1-2,8.7-2.9,12.4-5.5
	c3.8-2.7,6.4-7.3,6-12c-0.3-4.7-3.8-9.1-8.4-9.9c-2.8-0.5-5.7,0.2-8.5,0.3c-2.8,0.1-6.1-0.8-7.3-3.4c-1.1-2.3-0.2-5.1-0.8-7.5
	c-0.8-3.5-4.6-5.8-8.2-6C27.8-0.2,24.7,1.8,22.4,2.8z"/>
</svg>
