<?xml version="1.0" encoding="utf-8"?>
<!-- Generator: Adobe Illustrator 24.0.0, SVG Export Plug-In . SVG Version: 6.00 Build 0)  -->
<svg version="1.1" id="Layer_1" xmlns="http://www.w3.org/2000/svg" xmlns:xlink="http://www.w3.org/1999/xlink" x="0px" y="0px"
	 viewBox="0 0 84.7 76.3" style="enable-background:new 0 0 84.7 76.3;" xml:space="preserve">
<style type="text/css">
	.st0{fill:#231F20;}
</style>
<path class="st0" d="M31.3,9.3C27.4,17.2,17.4,22.2,12.4,26C7.9,29.6-0.2,38.9,0,45.5C0.2,52,5.2,58.6,11.8,59.1
	c2.8,0.2,5.7-0.6,8.5-0.4c9.1,0.6,14.2,10.8,22.2,15.2c9.2,5.1,21,1.5,29.5-4.7c5.4-3.9,10.3-9.1,12.1-15.6
	c1.7-6.5-0.5-14.3-6.4-17.5c-5.3-2.9-13.4-2.4-15.5-8.1c-1.4-4,1.4-8.1,2-12.3c1-6.5-4-13-10.3-15c-6.3-2-13.4-0.1-18.8,3.7
	C33.6,5.6,32.3,7.3,31.3,9.3z"/>
</svg>
