<?xml version="1.0" encoding="utf-8"?>
<!-- Generator: Adobe Illustrator 24.0.0, SVG Export Plug-In . SVG Version: 6.00 Build 0)  -->
<svg version="1.1" id="Layer_1" xmlns="http://www.w3.org/2000/svg" xmlns:xlink="http://www.w3.org/1999/xlink" x="0px" y="0px"
	 viewBox="0 0 93.2 86.6" style="enable-background:new 0 0 93.2 86.6;" xml:space="preserve">
<style type="text/css">
	.st0{fill:#231F20;}
</style>
<path class="st0" d="M29.2,2.4c-5.2,2.4-7.3,9.9-4,14.6c0.9,1.3,2.1,2.7,1.6,4.2c-0.3,0.8-0.9,1.3-1.6,1.8
	c-8.3,6-18.6,9.9-23.8,18.7C0,44-0.9,46.8,1.5,49.5c1.2,1.3,2.9,2.1,4.7,2.4c4.2,0.6,8.2-1.2,12.3-1.6c0,0,0.1,0,0.1,0
	c4.9-0.4,7.5,5.6,4,9l-3.4,3.3c-3.7,3.5-7.4,7.2-8.6,12.3c-0.5,2.2-0.4,4.6,0.6,6.7c3.5,7.4,13.7,5.6,19.3,0.6
	c5.1-4.6,8.2-11.2,13.5-15.6c1.6-1.4,3.5-2.6,5.7-2.8c3.7-0.4,7,2,10.1,4.1c6.3,4.4,13.5,8.3,21.5,7.3c3.8-0.5,7.4-2.4,9.7-5.5
	c6.3-8.5-1.1-19.1-8.8-23.1c-2.6-1.4-4.5-4-4.8-7c-0.6-6.3,5.9-7.5,9.9-10.6c4.1-3.2,5.7-9.3,3.6-14.1c-2.1-4.8-7.6-7.8-12.7-7
	c-3.5,0.6-6.6,2.6-9.9,4.1c-3.3,1.4-7.3,2.1-10.2,0.1c-1.9-1.3-2.9-3.6-4.2-5.5C48.1-1.8,36.4-1,29.2,2.4z"/>
</svg>
