<?xml version="1.0" encoding="utf-8"?>
<!-- Generator: Adobe Illustrator 24.0.0, SVG Export Plug-In . SVG Version: 6.00 Build 0)  -->
<svg version="1.1" id="Layer_1" xmlns="http://www.w3.org/2000/svg" xmlns:xlink="http://www.w3.org/1999/xlink" x="0px" y="0px"
	 viewBox="0 0 44.6 90.9" style="enable-background:new 0 0 44.6 90.9;" xml:space="preserve">
<style type="text/css">
	.st0{fill:#231F20;}
</style>
<path class="st0" d="M26.5,0C19.2-0.3,11.6,2,6.4,7.1c-5.2,5.1-7.8,13.1-5.5,20.1c1.6,5.1,5.4,9.1,8.1,13.6
	c3.6,6.1,5.2,13.4,4.6,20.4C13,66.7,11.2,72.1,12,77.5c1,6.2,5.9,11.7,12,13c6.1,1.4,13.1-1.7,16-7.2c2.8-5.2,1.9-11.6,0.3-17.4
	c-1.6-5.7-3.9-11.4-3.9-17.3c0.1-7.3,3.6-13.9,6-20.8C44.9,21.1,46,12.9,41.7,7C37.5,1.5,29.9,0.2,26.5,0z"/>
</svg>
