<?xml version="1.0" encoding="utf-8"?>
<!-- Generator: Adobe Illustrator 24.0.0, SVG Export Plug-In . SVG Version: 6.00 Build 0)  -->
<svg version="1.1" id="Layer_1" xmlns="http://www.w3.org/2000/svg" xmlns:xlink="http://www.w3.org/1999/xlink" x="0px" y="0px"
	 viewBox="0 0 129.3 51.2" style="enable-background:new 0 0 129.3 51.2;" xml:space="preserve">
<style type="text/css">
	.st0{fill:#231F20;}
</style>
<path class="st0" d="M12.3,10C5.2,16.5-0.6,25.4,0.1,35c0.7,9.6,10.3,18.6,19.4,15.7c9-2.9,14.2-15.3,23.6-14.6c6,0.5,10,6.3,15.4,9
	c6.8,3.4,15.9,1,20.1-5.3c2-3,3.2-6.8,6.4-8.4c3.2-1.5,7.1-0.1,9.8,2.1c2.8,2.2,5,5.1,8,7c8.7,5.7,21.8,0.2,25.3-9.6
	c3.5-9.8-1.7-21.3-10.6-26.7c-8.9-5.4-20.4-5.2-30-1.3c-6,2.4-11.6,6.2-18,7.2c-11.4,1.8-22-5.7-33.4-7.2C26.8,1.6,17.5,5.2,12.3,10
	z"/>
</svg>
