<?xml version="1.0" encoding="utf-8"?>
<!-- Generator: Adobe Illustrator 24.0.0, SVG Export Plug-In . SVG Version: 6.00 Build 0)  -->
<svg version="1.1" id="Layer_1" xmlns="http://www.w3.org/2000/svg" xmlns:xlink="http://www.w3.org/1999/xlink" x="0px" y="0px"
	 viewBox="0 0 88.3 69.4" style="enable-background:new 0 0 88.3 69.4;" xml:space="preserve">
<style type="text/css">
	.st0{fill:#231F20;}
</style>
<path class="st0" d="M50.4,0.1C39.4,0,28.3,2,18,6C14,7.6,9.9,9.6,7,12.8c-2.9,3.2-4.5,8-3,12.1c1.8,4.8,7.4,9.2,5,13.7
	c-1,1.9-3.3,2.9-5,4.2c-5.2,4.2-5.1,12.7-1.1,18c4,5.3,10.8,7.8,17.4,8.3c6.6,0.6,13.2-0.5,19.9-0.9c15.4-0.9,32.8,1.2,44.4-9.1
	c2-1.8,3.8-4.1,3.7-6.8c-0.2-5-6.3-7.2-11.3-8.1c-4.4-0.8-8.8-1.5-13.2-2.3c-4.2-0.7-9.3-2.4-9.8-6.6c-0.6-4.8,5.3-7.5,10-9
	c4.1-1.4,8.1-3.1,11.9-5.1c3.3-1.8,6.9-4.7,6.3-8.3c-0.5-3-3.6-4.8-6.3-6.1C66.8,2.6,57.4-0.5,50.4,0.1z"/>
</svg>
