<?xml version="1.0" encoding="utf-8"?>
<!-- Generator: Adobe Illustrator 24.0.0, SVG Export Plug-In . SVG Version: 6.00 Build 0)  -->
<svg version="1.1" id="Layer_1" xmlns="http://www.w3.org/2000/svg" xmlns:xlink="http://www.w3.org/1999/xlink" x="0px" y="0px"
	 viewBox="0 0 114 92.9" style="enable-background:new 0 0 114 92.9;" xml:space="preserve">
<style type="text/css">
	.st0{fill:#231F20;}
</style>
<path class="st0" d="M33.4,0.2C31,1,28.5,1.7,26,2.2c-5.8,1-11.5,3.2-15.1,7.7C6,15.8,6.6,26.3,13.5,29.6c5.4,2.6,14.1,1.5,15.4,7.3
	c0.5,2.3-0.6,4.8-2.5,6.2c-4.5,3.2-9.8,2.1-14.7,3.4c-9.3,2.4-14.6,14.5-10,23c4.6,8.5,17.7,10.6,24.7,4.1c1.4-1.3,2.7-3,4.4-3.9
	c4.8-2.4,10.4,1.9,12.9,6.7c2.6,4.7,4,10.4,8.4,13.6c3.4,2.4,7.8,2.8,11.9,3c5.1,0.2,10.4,0.3,15.2-1.3c4.9-1.6,9.4-5.1,10.8-10.1
	c1.9-6.3-1.6-13.4,0.5-19.6c3.3-9.9,18.1-11.7,22.3-21.3c2.2-5,0.9-10.8-1.2-15.8c-2.9-7.2-7.9-14.1-15.2-16.5
	c-7.8-2.6-16.2,0.5-24,2.9c-7.8,2.4-17,4-23.7-0.7c-3-2.2-5.1-5.4-8-7.8C38.6,0.7,35.7-0.5,33.4,0.2z"/>
</svg>
