<?xml version="1.0" encoding="utf-8"?>
<!-- Generator: Adobe Illustrator 24.0.0, SVG Export Plug-In . SVG Version: 6.00 Build 0)  -->
<svg version="1.1" id="Layer_1" xmlns="http://www.w3.org/2000/svg" xmlns:xlink="http://www.w3.org/1999/xlink" x="0px" y="0px"
	 viewBox="0 0 70.7 78.3" style="enable-background:new 0 0 70.7 78.3;" xml:space="preserve">
<style type="text/css">
	.st0{fill:#231F20;}
</style>
<path class="st0" d="M27.9,1.5c-2.4,0.7-4.9,1.2-7.5,1.3c-3.4,0.2-6.8,2-9.3,4.5C7.9,10.6,6,15,4.2,19.3c-3.3,7.7-6.5,17-1.8,23.9
	c3.4,5,9.7,6.9,15.5,8.7c9.1,2.9,18.9,7.7,22,16.8c0.8,2.2,1.1,4.7,2.5,6.6c1.2,1.6,3.1,2.5,5.1,2.8c8.4,1.6,15.6-6.4,19-14.3
	c2.7-6.5,4.2-13.5,4.3-20.6c0-2.8-0.2-5.7-1.4-8.2c-3.1-6.4-11.2-8.3-18.2-8.5c-7.3-0.2-15.2,0.5-21.2-3.8c-0.7-0.5-1.3-1.1-1.6-1.9
	c-1.2-2.8,1.6-4.9,3.9-6.3l12.6-7.4c0.7-0.4,1.4-1,1.7-1.8C47.9,1.8,43.2,0,39.8,0C35.5,0,31.3,0.4,27.9,1.5z"/>
</svg>
