<?xml version="1.0" encoding="utf-8"?>
<!-- Generator: Adobe Illustrator 24.0.0, SVG Export Plug-In . SVG Version: 6.00 Build 0)  -->
<svg version="1.1" id="Layer_1" xmlns="http://www.w3.org/2000/svg" xmlns:xlink="http://www.w3.org/1999/xlink" x="0px" y="0px"
	 viewBox="0 0 210.4 156.4" style="enable-background:new 0 0 210.4 156.4;" xml:space="preserve">
<style type="text/css">
	.st0{fill:#231F20;}
</style>
<path class="st0" d="M2.5,30.9C-1,38.6-0.7,47.6,2.8,55.3c3.8,8.3,10.8,14.9,18,20.4c7.8,5.9,16.4,10.7,24.7,15.8
	c9,5.5,18,11,27,16.5l54,33.1c4.5,2.8,9.1,5.6,13.6,8.3c3.7,2.3,7.5,4.6,11.7,5.9c9.5,3,18.4-0.3,25.8-6.4
	c12.9-10.8,22.6-26.2,27.9-42c2.7-8.1,4.9-16.9,4.8-25.4c0-5-0.9-9.8-3.4-14.1c-2.5-4.3-6.1-7.8-9.9-10.9
	c-7.9-6.4-16.4-12.1-24.6-18c-19-13.9-33.9-25.3-55.7-34.6c-3.6-1.5-7.2-3.1-11.1-3.5c-16-1.6-36.6,3.5-53.3,3.9
	C33.8,4.7,10.7,12.8,2.5,30.9z"/>
</svg>
