<?xml version="1.0" encoding="utf-8"?>
<!-- Generator: Adobe Illustrator 24.0.0, SVG Export Plug-In . SVG Version: 6.00 Build 0)  -->
<svg version="1.1" id="Layer_1" xmlns="http://www.w3.org/2000/svg" xmlns:xlink="http://www.w3.org/1999/xlink" x="0px" y="0px"
	 viewBox="0 0 82.9 70.3" style="enable-background:new 0 0 82.9 70.3;" xml:space="preserve">
<style type="text/css">
	.st0{fill:#231F20;}
</style>
<path class="st0" d="M19.7,8.9c-9.7,5-16.9,14.6-19,25.3c-0.9,4.4-0.9,9.1,0.5,13.4c1.6,4.9,5,8.9,8.9,12.2
	C20.4,68.2,34.3,71,47.6,70.2c10.6-0.6,21.6-3.6,28.8-11.3c7.2-7.7,9.1-21.1,1.7-28.7c-2.9-3-6.9-4.9-10-7.7
	c-7.5-6.8-10.3-19.4-20.2-22c-3-0.8-6.2-0.4-9.3,0.1C30.5,2.1,23.9,6.7,19.7,8.9z"/>
</svg>
