<?xml version="1.0" encoding="utf-8"?>
<!-- Generator: Adobe Illustrator 24.0.0, SVG Export Plug-In . SVG Version: 6.00 Build 0)  -->
<svg version="1.1" id="Layer_1" xmlns="http://www.w3.org/2000/svg" xmlns:xlink="http://www.w3.org/1999/xlink" x="0px" y="0px"
	 viewBox="0 0 115.4 62.2" style="enable-background:new 0 0 115.4 62.2;" xml:space="preserve">
<style type="text/css">
	.st0{fill:#231F20;}
</style>
<path class="st0" d="M3.8,29.7c0.4,3.8-0.3,7.7-1.8,11.2c-1.8,4.2-3,8.8-0.6,12.2c4.3,5.9,12.2,7.9,19.4,8.7
	c6.5,0.8,13.7,0.8,19.1-3c3.7-2.6,6-6.7,9.3-9.8c5-4.9,12.2-7.3,19.1-6.5c7.3,0.8,13.8,4.9,21.1,6c8.4,1.2,17.4-2.2,22.3-9.1
	c4.9-6.9,5.1-16.9,0-23.6c-5.1-6.6-14-9.1-22.4-9.2c-6.6-0.1-13.3,0.9-19.6,3c-3.8,1.3-7.7,3-11.7,2.8c-7.3-0.3-12.9-6.5-19.4-9.8
	C26.4-3.7,9.6,2.2,3.9,14.6c-1,2.1-1.7,4.3-1.6,6.6c0.1,2.7,1.1,5.2,1.4,7.9C3.7,29.3,3.7,29.5,3.8,29.7z"/>
</svg>
