<?xml version="1.0" encoding="utf-8"?>
<!-- Generator: Adobe Illustrator 24.0.0, SVG Export Plug-In . SVG Version: 6.00 Build 0)  -->
<svg version="1.1" id="Layer_1" xmlns="http://www.w3.org/2000/svg" xmlns:xlink="http://www.w3.org/1999/xlink" x="0px" y="0px"
	 viewBox="0 0 96.4 65.3" style="enable-background:new 0 0 96.4 65.3;" xml:space="preserve">
<style type="text/css">
	.st0{fill:#231F20;}
</style>
<path class="st0" d="M2.2,40.5c-1.8,3.6-2.5,7.7-2.1,11.8c0.1,0.9,0.2,1.7,0.4,2.3c2.8,8.6,13.8,12.6,22.4,9.7
	c7.3-2.4,13.1-8.6,20.7-9.8c9.8-1.6,19.3,5.6,29.2,5.1c10.6-0.5,19.1-10.1,21.9-20.4c2.8-10.3,1.2-21.2-0.4-31.7
	c-0.3-2.1-0.7-4.4-2.4-5.8c-1.1-0.9-2.5-1.2-3.9-1.3c-8.3-0.4-14.9,7-23.1,8.5c-7.4,1.3-14.6-2.4-21.6-5C38.2,2.1,32.6,0.8,27,0.2
	C20.2-0.6,9.8,1.1,6.1,4.5c-3.4,3.1-3.7,6.6-2.5,9.8C6.5,23,6.2,32.4,2.2,40.5z"/>
</svg>
