<?xml version="1.0" encoding="utf-8"?>
<!-- Generator: Adobe Illustrator 24.0.0, SVG Export Plug-In . SVG Version: 6.00 Build 0)  -->
<svg version="1.1" id="Layer_1" xmlns="http://www.w3.org/2000/svg" xmlns:xlink="http://www.w3.org/1999/xlink" x="0px" y="0px"
	 viewBox="0 0 69.6 72.1" style="enable-background:new 0 0 69.6 72.1;" xml:space="preserve">
<style type="text/css">
	.st0{fill:#231F20;}
</style>
<path class="st0" d="M4.5,49.2C2.1,53.5-0.1,58.1,0,63c0,2.7,0.9,5.5,3.1,7c1.5,1,3.4,1.2,5.2,1.4c12.6,1.2,25.4,0.9,38-1.1
	c5.9-0.9,11.9-2.2,16.8-5.5c4.2-2.8,7.7-8,6.1-12.8c-2.1-6.3-11.4-8-13-14.5c-0.6-2.3,0-4.7,0.6-6.9c1.4-5.6,2.8-11.2,4.2-16.8
	c1-3.9,1.8-8.4-0.8-11.4c-2.4-2.9-7.1-3-10.5-1.3C46.3,2.9,14.5,31.6,4.5,49.2z"/>
</svg>
