<?xml version="1.0" encoding="utf-8"?>
<!-- Generator: Adobe Illustrator 24.0.0, SVG Export Plug-In . SVG Version: 6.00 Build 0)  -->
<svg version="1.1" id="Layer_1" xmlns="http://www.w3.org/2000/svg" xmlns:xlink="http://www.w3.org/1999/xlink" x="0px" y="0px"
	 viewBox="0 0 76.9 90.2" style="enable-background:new 0 0 76.9 90.2;" xml:space="preserve">
<style type="text/css">
	.st0{fill:#231F20;}
</style>
<path class="st0" d="M9,40.9c5.1-0.2,10-2.1,13.2-6.1c3.6-4.4,6.4-9.8,9.1-14.9c5.4-10,13.5-20.9,25.5-19.9
	C62.5,0.5,67.5,3.7,71,8.2c6.6,8.6,6.8,19.7,4.9,29.9c-3.1,16.8-11.6,32.5-24.1,44.1c-4.3,4.1-9.6,7.8-15.5,8
	c-5.2,0.1-10.1-2.5-14.6-5c-4-2.2-7.9-4.4-11.3-7.5C4.7,72.6,1,65.3,0.2,57.7c-0.5-4.6,0.1-9.5,2.9-13.1C4.7,42.5,7.2,41,9,40.9z"/>
</svg>
