<?xml version="1.0" encoding="utf-8"?>
<!-- Generator: Adobe Illustrator 24.0.0, SVG Export Plug-In . SVG Version: 6.00 Build 0)  -->
<svg version="1.1" id="Layer_1" xmlns="http://www.w3.org/2000/svg" xmlns:xlink="http://www.w3.org/1999/xlink" x="0px" y="0px"
	 viewBox="0 0 80.2 80.9" style="enable-background:new 0 0 80.2 80.9;" xml:space="preserve">
<style type="text/css">
	.st0{fill:#231F20;}
</style>
<path class="st0" d="M21.7,5.8C25.3,2.3,30,0.2,35,0c7.7-0.2,16.2,1.6,25.2,3.1c3.5,0.6,6.8,2.4,8.9,5.3c4.6,6.3,0.4,12.4-3,17.7
	c-2.7,4.2-5.2,9.6-2.8,14c1.8,3.2,5.5,4.7,8.7,6.5c4.1,2.4,7.8,6.2,8.2,10.9c0.6,5.9-4.2,11.2-9.6,13.6c-5.4,2.4-11.5,2.7-17.3,3.8
	c-8.3,1.6-16.3,4.8-24.7,5.9c-8.4,1.1-17.8-0.4-23.5-6.7c-4.4-5-5.7-12.2-4.7-18.8c1.1-6.6,4.2-12.6,7.8-18.3
	c2.9-4.5,6.1-9,6.8-14.3c0.1-0.7,0.1-1.4,0.2-2.1c0.1-5.3,2.2-10.4,6-14.1L21.7,5.8z"/>
</svg>
