<?xml version="1.0" encoding="utf-8"?>
<!-- Generator: Adobe Illustrator 24.0.0, SVG Export Plug-In . SVG Version: 6.00 Build 0)  -->
<svg version="1.1" id="Layer_1" xmlns="http://www.w3.org/2000/svg" xmlns:xlink="http://www.w3.org/1999/xlink" x="0px" y="0px"
	 viewBox="0 0 74.6 65.3" style="enable-background:new 0 0 74.6 65.3;" xml:space="preserve">
<style type="text/css">
	.st0{fill:#231F20;}
</style>
<path class="st0" d="M32.2,4.3c1.1,0,5.5-0.2,9.7-0.5c6.6-0.4,13,2.9,16.2,8.7c0.3,0.5,0.5,0.9,0.6,1.3c5.4,13.4,10.3,27,14.8,40.8
	c1,3,1.9,6.4-0.5,8.9c-1.1,1.2-2.7,1.8-4.4,1.9c-3.1,0.1-5.9-1.4-8.4-3.1c-12.3-8.2-21.9-20-34.4-27.8c-5.9-3.7-12.4-6.5-17.6-11
	C3,18.9-1,12.1,0.2,5.3C0.5,4,0.9,2.8,1.8,1.8C3.4,0.1,6.1-0.1,8.5,0C12.6,0.2,22.3,4.2,32.2,4.3z"/>
</svg>
