<?xml version="1.0" encoding="utf-8"?>
<!-- Generator: Adobe Illustrator 24.0.0, SVG Export Plug-In . SVG Version: 6.00 Build 0)  -->
<svg version="1.1" id="Layer_1" xmlns="http://www.w3.org/2000/svg" xmlns:xlink="http://www.w3.org/1999/xlink" x="0px" y="0px"
	 viewBox="0 0 66 54.6" style="enable-background:new 0 0 66 54.6;" xml:space="preserve">
<style type="text/css">
	.st0{fill:#231F20;}
</style>
<path class="st0" d="M29,2.2c-9.2,1-17.7,5.5-23.8,12.5c-4.5,5.1-5.7,9.7-4.9,20.5c0.3,4.2,1.5,8.5,4.2,11.8
	c4.3,5.1,11.3,6.6,17.9,7.3c5.3,0.5,10.7,0.6,15.8-0.8c5.1-1.4,9.9-4.6,12.4-9.3c3.9-7.4,1.5-17.5,7-23.8c1.7-2,4-3.3,5.8-5.2
	c1.8-1.9,3.2-4.6,2.3-7c-0.6-1.6-2-2.7-3.4-3.7C56.7,0.5,49.7-0.9,43,0.6C39.2,1.4,35.4,2,31.4,2C30.7,2,29.9,2.1,29,2.2z"/>
</svg>
