<?xml version="1.0" encoding="utf-8"?>
<!-- Generator: Adobe Illustrator 24.0.0, SVG Export Plug-In . SVG Version: 6.00 Build 0)  -->
<svg version="1.1" id="Layer_1" xmlns="http://www.w3.org/2000/svg" xmlns:xlink="http://www.w3.org/1999/xlink" x="0px" y="0px"
	 viewBox="0 0 264.3 290.1" style="enable-background:new 0 0 264.3 290.1;" xml:space="preserve">
<style type="text/css">
	.st0{fill:#231F20;}
</style>
<path class="st0" d="M257.5,82.6c0-1.3,0-2.5,0-3.8c0.4-12.3,2.8-24.5,2.1-36.7c-1-19.6-11.6-31.6-27.6-38.1
	c-17-6.9-36.1-4-53.6,1.5c-7.3,2.3-14.6,5.1-20.7,10.1c-9,7.3-14.5,18.6-21.4,28.2C117.6,70,84.2,66,58.7,77.9
	c-14.7,6.9-27.2,18.7-38,31.9c-6.8,8.4-13.2,17.6-16.8,28.1C0.5,148-0.3,159,0.1,169.7c0.6,19.2,4.9,38.5,14,54.7
	C27.6,248.4,48.6,254,69,267c21.8,13.9,46.8,21.2,72,22.8c27.9,1.7,57.2-3.6,80-21.8c9.6-7.6,23.4-20.8,27.1-33.2
	c8.4-28.2,17-57.1,16-86.7C263.5,126.1,257.5,104.5,257.5,82.6z"/>
</svg>
