<?xml version="1.0" encoding="utf-8"?>
<!-- Generator: Adobe Illustrator 24.0.0, SVG Export Plug-In . SVG Version: 6.00 Build 0)  -->
<svg version="1.1" id="Layer_1" xmlns="http://www.w3.org/2000/svg" xmlns:xlink="http://www.w3.org/1999/xlink" x="0px" y="0px"
	 viewBox="0 0 575.1 330" style="enable-background:new 0 0 575.1 330;" xml:space="preserve">
<style type="text/css">
	.st0{fill:#231F20;}
</style>
<path class="st0" d="M19,129.1C-9.2,145.9-8.7,234,38.7,285.1c42.2,45.4,117.8,57.3,167.8,31.6c59.2-30.4,53.4-98.5,106.6-110.5
	c34.7-7.9,44.4,19.5,98.7,23.7c10.8,0.8,100.1,7.7,142.1-55.3c32.7-49,26.6-124.9-11.8-157.9c-39.2-33.7-80.2,4.6-211.2,0
	c-109.2-3.9-144.3-32.8-179.6-4C107.9,48,124.2,120.9,82.1,135C55.3,144,37.1,118.3,19,129.1z"/>
</svg>
