<?xml version="1.0" encoding="utf-8"?>
<!-- Generator: Adobe Illustrator 24.0.0, SVG Export Plug-In . SVG Version: 6.00 Build 0)  -->
<svg version="1.1" id="Layer_1" xmlns="http://www.w3.org/2000/svg" xmlns:xlink="http://www.w3.org/1999/xlink" x="0px" y="0px"
	 viewBox="0 0 525.7 444.9" style="enable-background:new 0 0 525.7 444.9;" xml:space="preserve">
<style type="text/css">
	.st0{fill:#231F20;}
</style>
<path class="st0" d="M14.8,81.2c-31.7,34.8-4.1,109.2,5,133.7c7,18.9,24.8,64.9,69.9,98.7c59.9,44.8,93.5,12.4,161.1,56.2
	c53.6,34.7,59,72.2,101.2,75c28.1,1.9,61.5-12.2,71.2-36.3c17-42.3-45.3-100.8-55-109.9c-44.4-41.7-77.5-39.5-83.7-67.4
	c-6.5-29.6,22.1-69.6,56.2-81.2c38-12.9,57.3,18.2,103.7,10c38.5-6.8,80.2-37.9,81.2-68.7C527.1,48.3,449.8-0.7,378.3,0
	c-74,0.7-83,53.9-173.6,73.7C104.4,95.6,47.7,45.1,14.8,81.2z"/>
</svg>
