<?xml version="1.0" encoding="utf-8"?>
<!-- Generator: Adobe Illustrator 24.0.0, SVG Export Plug-In . SVG Version: 6.00 Build 0)  -->
<svg version="1.1" id="Layer_1" xmlns="http://www.w3.org/2000/svg" xmlns:xlink="http://www.w3.org/1999/xlink" x="0px" y="0px"
	 viewBox="0 0 615 282" style="enable-background:new 0 0 615 282;" xml:space="preserve">
<style type="text/css">
	.st0{fill:#231F20;}
</style>
<path class="st0" d="M0.2,185c1,18.5,3.5,66.8,37.1,85.4c31.4,17.4,71.2-1.6,76.2-4.1c42-20.8,43.9-59.6,75.1-61.5
	c19.3-1.2,36.5,12.5,42.9,17.7c18.2,14.6,15.9,25.6,29.5,38.7c23.4,22.5,70.4,28.3,94,9.4c20.7-16.6,8.9-40.6,30.3-60.7
	c4.1-3.8,19.4-17,73.1-15.1c82.8,2.9,112.7,36.4,138.1,18.6c22-15.4,20-54.6,15.7-74.1c-10.6-48.2-56.8-71.3-70.6-78.2
	c-50.8-25.4-81.3-8.5-153.4-11C252.9,45.3,227.1-19.1,138.2,5.7C126.7,8.9,75,24.5,37.3,73.8C28.3,85.6-2.8,127.5,0.2,185z"/>
</svg>
