<?xml version="1.0" encoding="utf-8"?>
<!-- Generator: Adobe Illustrator 24.0.0, SVG Export Plug-In . SVG Version: 6.00 Build 0)  -->
<svg version="1.1" id="Layer_1" xmlns="http://www.w3.org/2000/svg" xmlns:xlink="http://www.w3.org/1999/xlink" x="0px" y="0px"
	 viewBox="0 0 421.7 276.6" style="enable-background:new 0 0 421.7 276.6;" xml:space="preserve">
<style type="text/css">
	.st0{fill:#231F20;}
</style>
<path class="st0" d="M196.1,36.1c-35.8,20.6-50,40.6-84.1,41.1C83.5,77.7,71.9,63.9,49.1,71C24.3,78.7,5.3,105.4,1,129.8
	c-9.5,54,51.1,107.4,97.8,129.7c62.2,29.6,121.3,14,159.6,4c12.4-3.3,103.9-27.3,106.7-68.3c0.9-12.8-6.8-28.7-14.1-29.3
	c-6.8-0.6-9.9,12.3-24,17.1c-7,2.4-13.1,1.5-18.4,0.7c-17.8-2.7-59.2-17.8-61.9-44.9c-2.8-28,36.8-59.2,69.6-57.8
	c34.6,1.5,48.3,38.7,75.6,32.2c15.1-3.6,26.6-18.7,29.1-32.4c5-28.1-26.6-57.4-53.1-70C299.5-21.9,206.8,29.9,196.1,36.1z"/>
</svg>
