<?xml version="1.0" encoding="utf-8"?>
<!-- Generator: Adobe Illustrator 24.0.0, SVG Export Plug-In . SVG Version: 6.00 Build 0)  -->
<svg version="1.1" id="Layer_1" xmlns="http://www.w3.org/2000/svg" xmlns:xlink="http://www.w3.org/1999/xlink" x="0px" y="0px"
	 viewBox="0 0 423.8 349.8" style="enable-background:new 0 0 423.8 349.8;" xml:space="preserve">
<style type="text/css">
	.st0{fill:#231F20;}
</style>
<path class="st0" d="M10.6,92.5c-19.9,33.2-7.3,70.8,1.4,96.7c15.9,47.4,60.4,119.6,126.6,128c50.8,6.5,62.8-31.1,113-20.4
	c49.8,10.6,59.4,52.1,107.6,53.1c20.7,0.4,53.8-6.5,62.6-27.2c14-32.8-50.2-59.6-57.2-126.6c-5.9-56.7,36.1-75,23.1-121.2
	C375.5,31,322.2-7.5,283,1.2c-49.7,11-50.3,91.7-95.3,96.7c-36,4-49.1-46.3-99.4-47.7C58.2,49.4,26.3,66.3,10.6,92.5z"/>
</svg>
