<?xml version="1.0" encoding="utf-8"?>
<!-- Generator: Adobe Illustrator 24.0.0, SVG Export Plug-In . SVG Version: 6.00 Build 0)  -->
<svg version="1.1" id="Layer_1" xmlns="http://www.w3.org/2000/svg" xmlns:xlink="http://www.w3.org/1999/xlink" x="0px" y="0px"
	 viewBox="0 0 252.2 156.2" style="enable-background:new 0 0 252.2 156.2;" xml:space="preserve">
<style type="text/css">
	.st0{fill:#231F20;}
</style>
<path class="st0" d="M5.3,80.6C12.6,68.2,25.1,60,37.2,52.2C51.6,42.9,66,33.6,80.4,24.4c15.5-10,31.5-20.2,49.6-23.3
	c28-4.9,57,8.3,76.9,28.7c19.9,20.4,31.8,47.2,41,74.1c3.6,10.8,6.8,22.9,2,33.2c-4.6,10-15.7,15.5-26.6,17.7
	c-24.8,4.9-50.1-3.8-75.3-4.7c-36.9-1.3-76.6,13.5-109.2-3.7C15.1,133.9-11.6,109.5,5.3,80.6z"/>
</svg>
