<?xml version="1.0" encoding="utf-8"?>
<!-- Generator: Adobe Illustrator 24.0.0, SVG Export Plug-In . SVG Version: 6.00 Build 0)  -->
<svg version="1.1" id="Layer_1" xmlns="http://www.w3.org/2000/svg" xmlns:xlink="http://www.w3.org/1999/xlink" x="0px" y="0px"
	 viewBox="0 0 227.9 228.7" style="enable-background:new 0 0 227.9 228.7;" xml:space="preserve">
<style type="text/css">
	.st0{fill:#231F20;}
</style>
<path class="st0" d="M115.8,161.7c4-21.8,4.7-44.7,14.2-64.8c3.3-7.1,8.3-14.1,15.7-16.8c11-3.9,22.9,3,34.6,3.1
	c11.7,0.1,22.3-6.7,30.7-14.7c10.6-10,19.3-24.1,16.3-38.2c-2.1-10-9.9-18.1-19.1-22.8c-9.2-4.7-19.7-6.4-30-7.1
	c-19.8-1.4-40.1,0.4-58.4,7.9c-12.4,5-23.7,12.5-36.1,17.3c-14.3,5.6-30,7.6-43.6,14.6C21.2,50.1,8,69.6,6.1,90.4
	c-0.9,10.6,0.9,21.3,0.8,32c-0.1,11.6-2.4,23.1-4.6,34.5c-2,10.8-3.8,22.1-0.6,32.5c6,19.8,36.3,40.8,57.3,39.2
	c6.1-0.5,11.7-3.2,17.1-6C99.7,210.5,111.2,186.5,115.8,161.7z"/>
</svg>
