<svg xmlns="http://www.w3.org/2000/svg" xmlns:xlink="http://www.w3.org/1999/xlink" width="226px" height="60px" viewBox="0 0 167.71449899999425 44.52000000000044">
    <g id="847a2749-de18-4281-84a2-69a78eb65616">
<path style="stroke: rgb(0,0,0); stroke-width: 13; stroke-dasharray: none; stroke-linecap: butt; stroke-dashoffset: 0; stroke-linejoin: round; stroke-miterlimit: 4; fill: rgb(0,0,0); fill-rule: nonzero; opacity: 1;" vector-effect="non-scaling-stroke" transform="matrix(1 0 0 1 0 6.5)  translate(0.03225, 31.17)" d="M33.76,-5.42v0h-0.04v0zM33.72,-5.42v0c-2.08,0.79 -3.08,0.82 -4.13,0.82v0c1.05,0 2.05,-0.03 4.13,-0.82zM29.59,-4.6v0c-0.07,0 -0.15,0 -0.22,0v0c0.07,0 0.15,0 0.22,0zM29.37,-4.6v0h-3.37v0zM26,-13.74v0h1.35v0zM27.35,-13.74v0c0.1,0 0.19,0 0.29,0v0c-0.1,0 -0.19,0 -0.29,0zM31.74,-18.95v0h-0.04v0zM31.7,-18.95v0c-2.08,0.79 -3.08,0.82 -4.13,0.82v0c1.05,0 2.05,-0.03 4.13,-0.82zM26,-26.21v0h3.37v0zM29.37,-26.21v0c0.07,0 0.15,0 0.22,0v0c-0.07,0 -0.15,0 -0.22,0zM29.59,-26.21v0c1.04,0 2.02,0.03 4.1,0.82v0c-2.08,-0.79 -3.06,-0.82 -4.1,-0.82zM21.04,-26.42v0v8.99v0zM21.04,-17.43v0l-1.41,1.49v0zM20.23,-0.07v0v0.07v0zM20.23,0h13.53v-5.42h-0.04c-2.08,0.79 -3.08,0.82 -4.13,0.82c-0.07,0 -0.15,0 -0.22,0h-3.37v-9.14h1.35c0.1,0 0.19,0 0.29,0c1.01,0 1.99,0.03 4.03,0.81h0.07v-6.02h-0.04c-2.08,0.79 -3.08,0.82 -4.13,0.82c-0.07,0 -0.15,0 -0.22,0h-1.35v-8.08h3.37c0.07,0 0.15,0 0.22,0c1.04,0 2.02,0.03 4.1,0.82h0.07v-5.42h-13.53v0.03c0.85,2.23 0.81,3.22 0.81,4.36v8.99l-1.41,1.49l1.41,1.49v10.06c0,1.13 0.04,2.09 -0.81,4.32zM43.07,0.35v0h0.18v0zM50.33,-7.05v0c0,-2.87 -1.52,-5.63 -3.4,-8v0c1.88,2.37 3.4,5.13 3.4,8zM45.23,-16.93v0c-2.09,-2.2 -4.14,-4.14 -4.14,-6.73v0c0,2.59 2.05,4.53 4.14,6.73zM41.09,-23.66v0v-0.42v0zM43.18,-26.56v0c1.24,0 2.02,0.74 2.05,2.37v0c-0.03,-1.63 -0.81,-2.37 -2.05,-2.37zM45.23,-24.19v0c0,0.64 -0.07,1.27 -0.7,2.48v0c0.63,-1.21 0.7,-1.84 0.7,-2.48zM50.19,-24.08v0c0,-4.47 -2.48,-7.09 -6.94,-7.09v0c4.46,0 6.94,2.62 6.94,7.09zM41.94,-9.88v0v-0.04v0zM41.94,-9.92v0h-5.95v0zM35.99,-9.92v0v3.19v0zM43.07,0.35h0.18c4.6,0 7.08,-2.65 7.08,-7.26v-0.14c0,-2.87 -1.52,-5.63 -3.4,-8l0.57,-1.38l-2.27,-0.5c-2.09,-2.2 -4.14,-4.14 -4.14,-6.73v-0.42c0,-1.7 0.78,-2.48 2.09,-2.48c1.24,0 2.02,0.74 2.05,2.37c0,0.64 -0.07,1.27 -0.7,2.48v0.03h5.66v-2.4c0,-4.47 -2.48,-7.09 -6.94,-7.09h-0.18c-4.46,0 -6.94,2.8 -6.94,7.26v0.14c0,2.52 0.99,4.75 2.45,6.7l-0.61,1.49l2.38,0.56c2.3,2.3 5.03,4.93 5.03,7.69v0.42c0,1.6 -0.78,2.48 -2.2,2.48c-1.42,0 -2.23,-0.88 -2.23,-2.48v0.15c0,-0.82 -0.04,-1.49 0.99,-3.12v-0.04h-5.95v3.19c0,4.6 2.48,7.08 7.08,7.08zM52.39,-30.81v0v5.59v0zM56.6,-26.03v0v8.6v0zM55.79,-0.07v0v0.07v0zM55.79,0h6.59v-0.04c-0.85,-2.23 -0.82,-3.22 -0.82,-4.35v-10.06l1.42,-1.49l-1.42,-1.49v-8.6c1.06,0 2.02,0 4.15,0.81h0.07v-5.59h-13.39v5.59h0.03c2.13,-0.81 3.12,-0.81 4.18,-0.81v8.6l-1.41,1.49l1.41,1.49v10.06c0,1.13 0.04,2.09 -0.81,4.32zM77.82,-7.19v0c0,1.74 -0.71,2.59 -2.3,2.59v0c1.59,0 2.3,-0.85 2.3,-2.59zM73.53,-26.21v0h1.99v0zM75.52,-26.21v0c1.59,0 2.3,0.85 2.3,2.59v0c0,-1.74 -0.71,-2.59 -2.3,-2.59zM77.82,-23.62v16.43c0,1.74 -0.71,2.59 -2.3,2.59h-1.99v-21.61h1.99c1.59,0 2.3,0.85 2.3,2.59zM67.16,-15.94v0l1.41,1.49v0zM67.76,-30.78v0c0.85,2.23 0.81,3.22 0.81,4.36v0c0,-1.14 0.04,-2.13 -0.81,-4.36zM68.57,-26.42v0v8.99v0zM67.16,-15.94l1.41,1.49v10.06c0,1.13 0.04,2.09 -0.81,4.32v0.07h7.76c4.92,0 7.26,-2.44 7.26,-6.91v-17c0,-4.46 -2.34,-6.9 -7.26,-6.9h-7.76v0.03c0.85,2.23 0.81,3.22 0.81,4.36v8.99zM89.68,0v0v-4.89v0zM84.8,0h4.88v-4.89h-4.88zM99.07,0v0v-0.04v0zM99.07,-0.04v0c-0.85,-2.23 -0.82,-3.22 -0.82,-4.35v0c0,1.13 -0.03,2.12 0.82,4.35zM90.85,-27.98v0h-1.27v0zM89.58,-27.98v0v3.47v0zM93.3,-24.51v0v20.12v0zM93.3,-4.39v0c0,1.13 0.03,2.09 -0.82,4.32v0c0.85,-2.23 0.82,-3.19 0.82,-4.32zM92.48,0h6.59v-0.04c-0.85,-2.23 -0.82,-3.22 -0.82,-4.35v-26.42h-4.95c0,1.94 -0.64,2.83 -2.45,2.83h-1.27v3.47h3.72v20.12c0,1.13 0.03,2.09 -0.82,4.32zM115.82,-6.55v0v-17.71v0zM115.82,-24.26v0c0,-4.46 -2.34,-6.91 -7.26,-6.91v0c4.92,0 7.26,2.45 7.26,6.91zM108.56,-31.17v0c-4.92,0 -7.26,2.45 -7.26,6.91v0c0,-4.46 2.34,-6.91 7.26,-6.91zM101.3,-24.26v0v7.33v0zM101.3,-16.93v0c0,3.36 1.98,5.53 5.35,5.53v0c-3.37,0 -5.35,-2.17 -5.35,-5.53zM106.65,-11.4v0c1.88,0 3.26,-1.07 4.21,-2.34v0c-0.95,1.27 -2.33,2.34 -4.21,2.34zM110.86,-6.84v0c0,1.74 -0.7,2.59 -2.3,2.59v0c1.6,0 2.3,-0.85 2.3,-2.59zM108.56,-4.25v0c-1.56,0 -2.27,-0.78 -2.3,-2.41v0c0.03,1.63 0.74,2.41 2.3,2.41zM106.26,-6.66v0c0,-0.64 0.11,-1.34 0.74,-2.58v0c-0.63,1.24 -0.74,1.94 -0.74,2.58zM108.56,0.35c4.92,0 7.26,-2.44 7.26,-6.9v-17.71c0,-4.46 -2.34,-6.91 -7.26,-6.91c-4.92,0 -7.26,2.45 -7.26,6.91v7.33c0,3.36 1.98,5.53 5.35,5.53c1.88,0 3.26,-1.07 4.21,-2.34v6.9c0,1.74 -0.7,2.59 -2.3,2.59c-1.56,0 -2.27,-0.78 -2.3,-2.41c0,-0.64 0.11,-1.34 0.74,-2.58v-0.04h-5.7v2.73c0,4.46 2.34,6.9 7.26,6.9zM108.56,-26.56v0c1.6,0 2.3,0.85 2.3,2.58v0c0,-1.73 -0.7,-2.58 -2.3,-2.58zM110.86,-23.98v0v6.2v0zM110.86,-17.78v0c0,1.7 -0.7,2.55 -2.3,2.55v0c1.6,0 2.3,-0.85 2.3,-2.55zM106.26,-17.82v-6.16c0,-1.73 0.71,-2.58 2.3,-2.58c1.6,0 2.3,0.85 2.3,2.58v6.2c0,1.7 -0.7,2.55 -2.3,2.55c-1.59,0 -2.3,-0.85 -2.3,-2.59zM127.69,-20.44v0c-1.7,0 -3.05,0.89 -4.01,1.99v0c0.96,-1.1 2.31,-1.99 4.01,-1.99zM123.68,-18.45v0l0.32,-7.72v0zM124,-26.17v0h3.76v0zM127.76,-26.17v0c0.1,0 0.19,0 0.29,0v0c-0.1,0 -0.19,0 -0.29,0zM123.51,-14.56v0c0.1,-1.38 0.85,-2.05 2.26,-2.05v0c-1.41,0 -2.16,0.67 -2.26,2.05zM125.77,-16.61v0c1.6,0 2.31,0.85 2.31,2.58v0c0,-1.73 -0.71,-2.58 -2.31,-2.58zM128.08,-6.84v0c0,1.74 -0.71,2.59 -2.31,2.59v0c1.6,0 2.31,-0.85 2.31,-2.59zM118.51,-9.78v0v3.23v0zM118.51,-6.55v0c0,4.46 2.34,6.9 7.26,6.9v0c-4.92,0 -7.26,-2.44 -7.26,-6.9zM125.77,0.35c4.93,0 7.27,-2.44 7.27,-6.9v-8.36c0,-3.37 -1.99,-5.53 -5.35,-5.53c-1.7,0 -3.05,0.89 -4.01,1.99l0.32,-7.72h3.76c0.1,0 0.19,0 0.29,0c1.01,0 1.99,0.03 4.03,0.81h0.07v-5.42h-12.86l-0.6,16.72h4.78l0.04,-0.5c0.1,-1.38 0.85,-2.05 2.26,-2.05c1.6,0 2.31,0.85 2.31,2.58v7.19c0,1.74 -0.71,2.59 -2.31,2.59c-1.55,0 -2.26,-0.81 -2.3,-2.44c0,-0.75 0.11,-1.53 0.82,-3.01v-0.08h-5.78v3.23c0,4.46 2.34,6.9 7.26,6.9zM141.54,0v0l6.48,-26.03v0zM148.02,-26.03v0v-4.78v0zM134.91,-30.81v0v5.77v0zM134.91,-25.04v0h0.04v0zM139.3,-26.03h3.86l-6.62,26.03h5l6.48,-26.03v-4.78h-13.11v5.77h0.04c2.07,-0.96 3.07,-0.99 4.11,-0.99c0.08,0 0.16,0 0.24,0z" stroke-linecap="round"/>
</g>
<g id="9aea5cdb-82e7-48a7-bc9f-bdcbce1092e9">
<g style="">
		<g id="098008ad-59f4-493e-b5fe-1946320f950f">
<path style="stroke: rgb(193,193,193); stroke-width: 0; stroke-dasharray: none; stroke-linecap: butt; stroke-dashoffset: 0; stroke-linejoin: miter; stroke-miterlimit: 4; fill: rgb(205,150,76); fill-rule: nonzero; opacity: 1;" d="M20.26225,37.6c0.85,-2.23 0.81,-3.19 0.81,-4.32v-10.06l-1.41,-1.49l1.41,-1.49v-8.99c0,-1.14 0.04,-2.13 -0.81,-4.36v-0.03h13.53v5.42h-0.07c-2.23,-0.85 -3.19,-0.82 -4.32,-0.82h-3.37v8.08h1.35c1.13,0 2.12,0.03 4.35,-0.82h0.04v6.02h-0.07c-2.23,-0.85 -3.19,-0.81 -4.32,-0.81h-1.35v9.14h3.37c1.13,0 2.12,0.03 4.35,-0.82h0.04v5.42h-13.53zM36.02225,30.94v-3.19h5.95v0.04c-1.03,1.63 -0.99,2.3 -0.99,3.12v-0.15c0,1.6 0.81,2.48 2.23,2.48c1.42,0 2.2,-0.88 2.2,-2.48v-0.42c0,-2.76 -2.73,-5.39 -5.03,-7.69l-2.38,-0.56l0.61,-1.49c-1.46,-1.95 -2.45,-4.18 -2.45,-6.7v-0.14c0,-4.46 2.48,-7.26 6.94,-7.26h0.18c4.46,0 6.94,2.62 6.94,7.09v2.4h-5.66v-0.03c0.63,-1.21 0.7,-1.84 0.7,-2.48c-0.03,-1.63 -0.81,-2.37 -2.05,-2.37c-1.31,0 -2.09,0.78 -2.09,2.48v0.42c0,2.59 2.05,4.53 4.14,6.73l2.27,0.5l-0.57,1.38c1.88,2.37 3.4,5.13 3.4,8v0.14c0,4.61 -2.48,7.26 -7.08,7.26h-0.18c-4.6,0 -7.08,-2.48 -7.08,-7.08zM55.82225,37.6c0.85,-2.23 0.81,-3.19 0.81,-4.32v-10.06l-1.41,-1.49l1.41,-1.49v-8.6c-1.06,0 -2.05,0 -4.18,0.81h-0.03v-5.59h13.39v5.59h-0.07c-2.13,-0.81 -3.09,-0.81 -4.15,-0.81v8.6l1.42,1.49l-1.42,1.49v10.06c0,1.13 -0.03,2.12 0.82,4.35v0.04h-6.59zM75.55225,11.46h-1.99v21.61h1.99c1.59,0 2.3,-0.85 2.3,-2.59v-16.43c0,-1.74 -0.71,-2.59 -2.3,-2.59zM68.60225,20.24v-8.99c0,-1.14 0.04,-2.13 -0.81,-4.36v-0.03h7.76c4.92,0 7.26,2.44 7.26,6.9v17c0,4.47 -2.34,6.91 -7.26,6.91h-7.76v-0.07c0.85,-2.23 0.81,-3.19 0.81,-4.32v-10.06l-1.41,-1.49zM84.83225,32.78h4.88v4.89h-4.88zM92.51225,37.6c0.85,-2.23 0.82,-3.19 0.82,-4.32v-20.12h-3.72v-3.47h1.27c1.81,0 2.45,-0.89 2.45,-2.83h4.95v26.42c0,1.13 -0.03,2.12 0.82,4.35v0.04h-6.59zM101.33225,31.12v-2.73h5.7v0.04c-0.63,1.24 -0.74,1.94 -0.74,2.58c0.03,1.63 0.74,2.41 2.3,2.41c1.6,0 2.3,-0.85 2.3,-2.59v-6.9c-0.95,1.27 -2.33,2.34 -4.21,2.34c-3.37,0 -5.35,-2.17 -5.35,-5.53v-7.33c0,-4.46 2.34,-6.91 7.26,-6.91c4.92,0 7.26,2.45 7.26,6.91v17.71c0,4.46 -2.34,6.9 -7.26,6.9c-4.92,0 -7.26,-2.44 -7.26,-6.9zM108.59225,22.44c1.6,0 2.3,-0.85 2.3,-2.55v-6.2c0,-1.73 -0.7,-2.58 -2.3,-2.58c-1.59,0 -2.3,0.85 -2.3,2.58v6.16c0,1.74 0.71,2.59 2.3,2.59zM118.54225,31.12v-3.23h5.78v0.08c-0.71,1.48 -0.82,2.26 -0.82,3.01c0.04,1.63 0.75,2.44 2.3,2.44c1.6,0 2.31,-0.85 2.31,-2.59v-7.19c0,-1.73 -0.71,-2.58 -2.31,-2.58c-1.41,0 -2.16,0.67 -2.26,2.05l-0.04,0.5h-4.78l0.6,-16.72h12.86v5.42h-0.07c-2.23,-0.85 -3.19,-0.81 -4.32,-0.81h-3.76l-0.32,7.72c0.96,-1.1 2.31,-1.99 4.01,-1.99c3.36,0 5.35,2.16 5.35,5.53v8.36c0,4.46 -2.34,6.9 -7.27,6.9c-4.92,0 -7.26,-2.44 -7.26,-6.9zM134.98225,12.63h-0.04v-5.77h13.11v4.78l-6.48,26.03h-5l6.62,-26.03h-3.86c-1.13,0 -2.12,-0.04 -4.35,0.99z" stroke-linecap="round"/>
</g>
</g>
</g>
<g transform="matrix(1 0 0 1 0 6.5)" id="e3f7078e-eeae-4a46-938f-8c4915be279f">

</g>
<g transform="matrix(1 0 0 1 0 6.5)" id="9fc3a37b-da54-416e-b5ce-c19203b4b28d">

</g>

  </svg>