<svg xmlns="http://www.w3.org/2000/svg" xmlns:xlink="http://www.w3.org/1999/xlink" width="1026px" height="753px" viewBox="0 0 1025.6218189686624 752.5035009770745">
    <g style="" id="a33ad33a-05ba-4794-8856-cc3cea8447c6">
<g style=""><path d="" fill="rgb(255, 255, 255)" transform="matrix(1 0 0 1 512.81091 376.25175)"/><path d="M-510.30573 376.01256Q-512.81091 376.94043 -512.81091 374.26893L-512.81091 5.60251Q-512.81091 2.93101 -510.30573 2.00314L-394.06525 -41.05019Q-391.56006 -41.97807 -391.56006 -39.30657L-391.56006 5.57456Q-391.56006 8.24605 -394.06525 9.17393L-460.20207 33.66979Q-462.70725 34.59766 -462.70725 37.26916L-462.70725 125.42852Q-462.70725 128.10002 -460.20207 127.17214L-418.115 111.58387Q-415.60982 110.65599 -415.60982 113.32749L-415.60982 158.20862Q-415.60982 160.88012 -418.115 161.80799L-460.20207 177.39627Q-462.70725 178.32414 -462.70725 180.99563L-462.70725 305.48734Q-462.70725 308.15884 -460.20207 307.23096L-394.06525 282.7351Q-391.56006 281.80723 -391.56006 284.47872L-391.56006 329.35985Q-391.56006 332.03135 -394.06525 332.95922L-510.30573 376.01256Z" fill="rgb(255, 255, 255)" transform="matrix(1 0 0 1 512.81091 376.25175)"/><path d="M-385.54763 329.80445Q-388.05281 330.73233 -387.55177 327.34096L-330.93464 124.175Q-330.43361 122.38652 -330.93464 120.9692L-382.54141 -42.11262Q-383.04244 -45.13284 -380.53726 -46.06071L-333.43982 -63.50474Q-331.93671 -64.06146 -330.93464 -62.29541L-307.38592 28.36222Q-306.88489 30.31384 -305.88281 29.67554Q-304.88074 29.03725 -304.3797 27.24877L-277.82477 -81.96633Q-276.82269 -84.47468 -275.31958 -85.0314L-228.22215 -102.47543Q-225.21593 -103.58887 -226.218 -100.01193L-282.3341 102.96845Q-282.83513 104.75693 -282.3341 106.17425L-231.22837 269.44164Q-230.2263 272.27629 -233.23251 273.38974L-280.32995 290.83376Q-281.83306 291.39049 -282.83513 289.62444L-306.38385 198.96681Q-306.88489 197.01518 -307.88696 197.65348Q-308.88903 198.29178 -309.39007 200.08025L-335.94501 309.29536Q-336.94708 311.8037 -338.45019 312.36043L-385.54763 329.80445Z" fill="rgb(255, 255, 255)" transform="matrix(1 0 0 1 512.81091 376.25175)"/><path d="M-214.69416 266.52347Q-217.19934 267.45135 -217.19934 264.77985L-217.19934 -103.88657Q-217.19934 -106.55807 -214.69416 -107.48594L-135.53039 -136.80675Q-114.48685 -144.60089 -98.20316 -139.14463Q-81.91948 -133.68838 -72.90082 -118.0611Q-63.88216 -102.43383 -63.88216 -80.52756L-63.88216 -15.34306Q-63.88216 18.31778 -83.6731 47.2871Q-103.46405 76.25642 -135.53039 88.1332L-164.59051 98.89653Q-167.09569 99.82441 -167.09569 102.4959L-167.09569 246.22238Q-167.09569 248.89388 -169.60087 249.82175L-214.69416 266.52347ZM-143.04594 40.6927Q-128.51588 35.31103 -121.25085 20.59847Q-113.98582 5.8859 -113.98582 -14.95176L-113.98582 -49.14691Q-113.98582 -69.98458 -121.25085 -79.58262Q-128.51588 -89.18067 -143.04594 -83.79901L-164.59051 -75.81929Q-167.09569 -74.89142 -167.09569 -72.21992L-167.09569 46.92879Q-167.09569 49.60029 -164.59051 48.67241Z" fill="rgb(255, 255, 255)" transform="matrix(1 0 0 1 512.81091 376.25175)"/><path d="M-47.84899 204.72709Q-50.35417 205.65497 -50.35417 202.98347L-50.35417 -165.68295Q-50.35417 -168.35445 -47.84899 -169.28232L-2.7557 -185.98405Q-0.25052 -186.91192 -0.25052 -184.24043L-0.25052 134.20188Q-0.25052 136.87337 2.25466 135.9455L61.87801 113.86211Q64.3832 112.93424 64.3832 115.60573L64.3832 160.48686Q64.3832 163.15836 61.87801 164.08623L-47.84899 204.72709Z" fill="rgb(255, 255, 255)" transform="matrix(1 0 0 1 512.81091 376.25175)"/><path d="M137.53453 141.40744Q101.4599 154.76882 84.42466 140.24069Q67.38942 125.71257 67.38942 95.79181L67.38942 -145.71141Q67.38942 -175.63216 84.42466 -202.77937Q101.4599 -229.92658 137.53453 -243.28796Q173.60916 -256.64934 190.64441 -242.12121Q207.67965 -227.59308 207.67965 -197.67233L207.67965 43.83089Q207.67965 73.75165 190.64441 100.89885Q173.60916 128.04606 137.53453 141.40744ZM137.53453 91.18332Q148.55734 87.10068 153.06667 78.21746Q157.576 69.33425 157.576 54.90818L157.576 -171.63467Q157.576 -186.06075 153.06667 -191.60362Q148.55734 -197.14648 137.53453 -193.06384Q126.51173 -188.98119 122.0024 -180.09798Q117.49307 -171.21477 117.49307 -156.78869L117.49307 69.75415Q117.49307 84.18023 122.0024 89.7231Q126.51173 95.26596 137.53453 91.18332Z" fill="rgb(255, 255, 255)" transform="matrix(1 0 0 1 512.81091 376.25175)"/><path d="M227.22008 102.84658Q224.71489 103.77445 224.71489 101.10295L224.71489 -267.56347Q224.71489 -270.23497 227.22008 -271.16284L306.38385 -300.48365Q327.42739 -308.27778 343.71107 -302.82153Q359.99476 -297.36528 369.01342 -281.738Q378.03208 -266.11073 378.03208 -244.20446L378.03208 -200.39193Q378.03208 -182.76006 370.76705 -166.71174Q363.50202 -150.66343 350.9761 -137.47528Q348.97196 -135.13008 350.9761 -133.73518Q371.01757 -121.3891 371.01757 -83.98816L371.01757 46.91514Q371.01757 49.58663 368.51238 50.51451L323.41909 67.21623Q320.91391 68.1441 320.91391 65.47261L320.91391 -54.21041Q320.91391 -77.18527 313.64888 -84.37897Q306.38385 -91.57267 288.34653 -84.89198L277.32373 -80.80934Q274.81855 -79.88147 274.81855 -77.20997L274.81855 82.54548Q274.81855 85.21698 272.31337 86.14485L227.22008 102.84658ZM298.8683 -139.01317Q313.39836 -144.39484 320.66339 -159.1074Q327.92842 -173.81997 327.92842 -194.65764L327.92842 -212.82381Q327.92842 -233.66148 320.66339 -243.25952Q313.39836 -252.85757 298.8683 -247.4759L277.32373 -239.49619Q274.81855 -238.56832 274.81855 -235.89682L274.81855 -132.77708Q274.81855 -130.10559 277.32373 -131.03346Z" fill="rgb(255, 255, 255)" transform="matrix(1 0 0 1 512.81091 376.25175)"/><path d="M394.06525 41.05019Q391.56006 41.97807 391.56006 39.30657L391.56006 -329.35985Q391.56006 -332.03135 394.06525 -332.95922L510.30573 -376.01256Q512.81091 -376.94043 512.81091 -374.26893L512.81091 -329.3878Q512.81091 -326.71631 510.30573 -325.78843L444.1689 -301.29257Q441.66372 -300.3647 441.66372 -297.6932L441.66372 -209.53384Q441.66372 -206.86234 444.1689 -207.79022L486.25597 -223.37849Q488.76115 -224.30637 488.76115 -221.63487L488.76115 -176.75374Q488.76115 -174.08225 486.25597 -173.15437L444.1689 -157.5661Q441.66372 -156.63822 441.66372 -153.96673L441.66372 -29.47502Q441.66372 -26.80352 444.1689 -27.7314L510.30573 -52.22726Q512.81091 -53.15513 512.81091 -50.48364L512.81091 -5.60251Q512.81091 -2.93101 510.30573 -2.00314L394.06525 41.05019Z" fill="rgb(255, 255, 255)" transform="matrix(1 0 0 1 512.81091 376.25175)"/><path d="" fill="rgb(255, 255, 255)" transform="matrix(1 0 0 1 512.81091 376.25175)"/></g></g>

  </svg>