<svg xmlns="http://www.w3.org/2000/svg" xmlns:xlink="http://www.w3.org/1999/xlink" width="666px" height="336px" viewBox="0 0 665.8398908891977 335.9814684265011">
    <g style="" id="c19324ec-d765-4cfd-8151-04a26a5df417">
<g style=""><path d="" fill="rgb(255, 255, 255)" transform="matrix(1 0 0 1 332.919945 167.990734)"/><path d="M-332.29392 167.93096Q-332.91994 168.16283 -332.91994 167.49524L-332.91994 75.36851Q-332.91994 74.70093 -332.29392 74.46906L-321.02548 70.29544Q-320.39945 70.06357 -320.39945 70.73115L-320.39945 162.85788Q-320.39945 163.52547 -321.02548 163.75734L-332.29392 167.93096Z" fill="rgb(255, 255, 255)" transform="matrix(1 0 0 1 332.919945 167.990734)"/><path d="M-315.64166 161.76327Q-316.26769 161.99514 -316.26769 161.32755L-316.26769 69.20082Q-316.26769 68.53324 -315.64166 68.30137L-305.75047 64.63786Q-305.24965 64.45236 -304.99924 64.89368L-291.72752 88.55072Q-291.47711 88.85852 -291.2267 88.69902Q-290.97629 88.53951 -290.97629 88.00544L-290.97629 59.83336Q-290.97629 59.16577 -290.35026 58.9339L-279.33223 54.85303Q-278.7062 54.62116 -278.7062 55.28874L-278.7062 147.41547Q-278.7062 148.08306 -279.33223 148.31493L-290.35026 152.3958Q-290.97629 152.62767 -290.97629 151.96009L-290.97629 117.24567Q-290.97629 116.7116 -291.10149 116.49094L-303.24637 94.55281Q-303.49678 94.24501 -303.74719 94.33775Q-303.9976 94.4305 -303.9976 94.96457L-303.9976 156.78294Q-303.9976 157.45053 -304.62363 157.68239L-315.64166 161.76327Z" fill="rgb(255, 255, 255)" transform="matrix(1 0 0 1 332.919945 167.990734)"/><path d="M-273.82321 146.27449Q-274.44924 146.50636 -274.44924 145.83877L-274.44924 53.71204Q-274.44924 53.04446 -273.82321 52.81259L-246.52853 42.70314Q-245.90251 42.47127 -245.90251 43.13886L-245.90251 54.35429Q-245.90251 55.02187 -246.52853 55.25374L-261.30272 60.72582Q-261.92874 60.95769 -261.92874 61.62528L-261.92874 86.85999Q-261.92874 87.52758 -261.30272 87.29571L-249.78386 83.02934Q-249.15784 82.79747 -249.15784 83.46505L-249.15784 94.68048Q-249.15784 95.34807 -249.78386 95.57993L-261.30272 99.84631Q-261.92874 100.07817 -261.92874 100.74576L-261.92874 141.20141Q-261.92874 141.86899 -262.55477 142.10086L-273.82321 146.27449Z" fill="rgb(255, 255, 255)" transform="matrix(1 0 0 1 332.919945 167.990734)"/><path d="M-242.89759 134.82021Q-243.52362 135.05207 -243.52362 134.38449L-243.52362 42.25776Q-243.52362 41.59017 -242.89759 41.35831L-231.62915 37.18468Q-231.00312 36.95281 -231.00312 37.6204L-231.00312 129.74713Q-231.00312 130.41471 -231.62915 130.64658L-242.89759 134.82021Z" fill="rgb(255, 255, 255)" transform="matrix(1 0 0 1 332.919945 167.990734)"/><path d="M-226.24533 128.65252Q-226.87136 128.88438 -226.87136 128.2168L-226.87136 36.09007Q-226.87136 35.42248 -226.24533 35.19062L-216.35414 31.5271Q-215.85332 31.34161 -215.60291 31.78293L-202.33119 55.43996Q-202.08078 55.74777 -201.83037 55.58826Q-201.57996 55.42876 -201.57996 54.89469L-201.57996 26.7226Q-201.57996 26.05502 -200.95393 25.82315L-189.9359 21.74227Q-189.30987 21.5104 -189.30987 22.17799L-189.30987 114.30472Q-189.30987 114.9723 -189.9359 115.20417L-200.95393 119.28505Q-201.57996 119.51692 -201.57996 118.84933L-201.57996 84.13491Q-201.57996 83.60084 -201.70516 83.38018L-213.85004 61.44206Q-214.10045 61.13425 -214.35086 61.227Q-214.60127 61.31975 -214.60127 61.85382L-214.60127 123.67219Q-214.60127 124.33977 -215.2273 124.57164L-226.24533 128.65252Z" fill="rgb(255, 255, 255)" transform="matrix(1 0 0 1 332.919945 167.990734)"/><path d="M-184.55209 113.21011Q-185.17811 113.44197 -185.17811 112.77439L-185.17811 20.64766Q-185.17811 19.98007 -184.55209 19.74821L-173.28364 15.57458Q-172.65762 15.34271 -172.65762 16.0103L-172.65762 108.13703Q-172.65762 108.80461 -173.28364 109.03648L-184.55209 113.21011Z" fill="rgb(255, 255, 255)" transform="matrix(1 0 0 1 332.919945 167.990734)"/><path d="M-156.13056 102.6833Q-156.75659 102.91517 -156.75659 102.24758L-156.75659 22.67145Q-156.75659 22.00386 -157.38261 22.23573L-168.52585 26.36298Q-169.15188 26.59485 -169.15188 25.92727L-169.15188 14.71184Q-169.15188 14.04425 -168.52585 13.81238L-132.59203 0.50316Q-131.96601 0.27129 -131.96601 0.93888L-131.96601 12.1543Q-131.96601 12.82189 -132.59203 13.05376L-143.73527 17.18101Q-144.3613 17.41288 -144.3613 18.08046L-144.3613 97.65659Q-144.3613 98.32418 -144.98732 98.55605L-156.13056 102.6833Z" fill="rgb(255, 255, 255)" transform="matrix(1 0 0 1 332.919945 167.990734)"/><path d="M-128.08466 92.29561Q-128.71068 92.52748 -128.71068 91.85989L-128.71068 -0.26684Q-128.71068 -0.93442 -128.08466 -1.16629L-99.03711 -11.92497Q-98.41109 -12.15684 -98.41109 -11.48925L-98.41109 -0.27382Q-98.41109 0.39376 -99.03711 0.62563L-115.56416 6.74695Q-116.19019 6.97881 -116.19019 7.6464L-116.19019 29.6767Q-116.19019 30.34429 -115.56416 30.11242L-105.04695 26.21704Q-104.42092 25.98517 -104.42092 26.65276L-104.42092 37.86818Q-104.42092 38.53577 -105.04695 38.76764L-115.56416 42.66302Q-116.19019 42.89489 -116.19019 43.56247L-116.19019 74.67193Q-116.19019 75.33952 -115.56416 75.10765L-99.03711 68.98633Q-98.41109 68.75447 -98.41109 69.42205L-98.41109 80.63748Q-98.41109 81.30506 -99.03711 81.53693L-128.08466 92.29561Z" fill="rgb(255, 255, 255)" transform="matrix(1 0 0 1 332.919945 167.990734)"/><path d="" fill="rgb(255, 255, 255)" transform="matrix(1 0 0 1 332.919945 167.990734)"/><path d="M-74.12133 72.30858Q-74.74735 72.54045 -74.74735 71.87287L-74.74735 -20.25386Q-74.74735 -20.92145 -74.12133 -21.15332L-54.33895 -28.48034Q-49.08034 -30.42804 -45.01118 -29.06456Q-40.94202 -27.70109 -38.68833 -23.79596Q-36.43464 -19.89083 -36.43464 -14.41664L-36.43464 1.87244Q-36.43464 10.28401 -41.38023 17.52321Q-46.32583 24.7624 -54.33895 27.73031L-61.60083 30.41998Q-62.22686 30.65185 -62.22686 31.31943L-62.22686 67.23551Q-62.22686 67.90309 -62.85288 68.13496L-74.12133 72.30858ZM-56.21702 15.87532Q-52.58608 14.53048 -50.7706 10.85393Q-48.95513 7.17738 -48.95513 1.97022L-48.95513 -6.57487Q-48.95513 -11.78203 -50.7706 -14.1805Q-52.58608 -16.57898 -56.21702 -15.23414L-61.60083 -13.24008Q-62.22686 -13.00821 -62.22686 -12.34062L-62.22686 17.43367Q-62.22686 18.10125 -61.60083 17.86938Z" fill="rgb(255, 255, 255)" transform="matrix(1 0 0 1 332.919945 167.990734)"/><path d="M-16.65226 52.35827Q-25.66701 55.69717 -29.92398 52.06671Q-34.18095 48.43625 -34.18095 40.9593L-34.18095 -19.39039Q-34.18095 -26.86734 -29.92398 -33.65121Q-25.66701 -40.43507 -16.65226 -43.77397Q-7.6375 -47.11287 -3.38053 -43.48241Q0.87644 -39.85195 0.87644 -32.375L0.87644 27.97469Q0.87644 35.45164 -3.38053 42.2355Q-7.6375 49.01937 -16.65226 52.35827ZM-16.65226 39.80767Q-13.89775 38.78745 -12.7709 36.56761Q-11.64406 34.34777 -11.64406 30.74281L-11.64406 -25.8684Q-11.64406 -29.47336 -12.7709 -30.85847Q-13.89775 -32.24359 -16.65226 -31.22337Q-19.40677 -30.20315 -20.53361 -27.98331Q-21.66045 -25.76347 -21.66045 -22.15851L-21.66045 34.4527Q-21.66045 38.05766 -20.53361 39.44277Q-19.40677 40.82789 -16.65226 39.80767Z" fill="rgb(255, 255, 255)" transform="matrix(1 0 0 1 332.919945 167.990734)"/><path d="M21.78566 38.12157Q12.7709 41.46047 8.38873 37.87639Q4.00656 34.2923 4.00656 26.81535L4.00656 18.93784Q4.00656 18.27026 4.63258 18.03839L15.77582 13.91114Q16.40185 13.67927 16.40185 14.34686L16.40185 20.62216Q16.40185 27.56504 21.78566 25.57097Q24.66537 24.50438 26.16783 22.14542Q27.67029 19.78646 27.67029 16.44853Q27.67029 11.24137 24.22716 5.57376Q20.78402 -0.09385 13.64734 -9.86764Q8.88955 -16.38349 6.57326 -21.53385Q4.25697 -26.6842 4.25697 -32.9595Q4.25697 -40.56997 8.63914 -47.66724Q13.02131 -54.76452 21.91087 -58.05704Q30.92562 -61.39594 35.24519 -57.78867Q39.56476 -54.18139 39.56476 -46.70444L39.56476 -42.29838Q39.56476 -41.6308 38.93874 -41.39893L28.04591 -37.36442Q27.41988 -37.13256 27.41988 -37.80014L27.41988 -40.604Q27.41988 -47.81392 21.91087 -45.77348Q19.28156 -44.79963 17.90431 -42.5538Q16.52705 -40.30797 16.52705 -37.63763Q16.52705 -33.36509 18.21732 -30.38617Q19.90759 -27.40726 25.04099 -20.897Q32.17767 -11.65728 36.30943 -3.84142Q40.4412 3.97444 40.4412 13.18711Q40.4412 20.53055 35.62081 27.65661Q30.80042 34.78267 21.78566 38.12157Z" fill="rgb(255, 255, 255)" transform="matrix(1 0 0 1 332.919945 167.990734)"/><path d="M60.22358 23.88488Q51.20882 27.22377 46.82665 23.63969Q42.44448 20.0556 42.44448 12.57865L42.44448 4.70115Q42.44448 4.03356 43.0705 3.80169L54.21374 -0.32556Q54.83977 -0.55743 54.83977 0.11016L54.83977 6.38546Q54.83977 13.32834 60.22358 11.33428Q63.10329 10.26768 64.60575 7.90872Q66.10821 5.54976 66.10821 2.21183Q66.10821 -2.99533 62.66507 -8.66294Q59.22194 -14.33055 52.08526 -24.10433Q47.32747 -30.62019 45.01118 -35.77054Q42.69489 -40.9209 42.69489 -47.1962Q42.69489 -54.80667 47.07706 -61.90394Q51.45923 -69.00121 60.34878 -72.29374Q69.36354 -75.63264 73.68311 -72.02536Q78.00268 -68.41809 78.00268 -60.94114L78.00268 -56.53508Q78.00268 -55.86749 77.37666 -55.63562L66.48383 -51.60112Q65.8578 -51.36925 65.8578 -52.03684L65.8578 -54.8407Q65.8578 -62.05061 60.34878 -60.01017Q57.71948 -59.03633 56.34223 -56.7905Q54.96497 -54.54467 54.96497 -51.87433Q54.96497 -47.60178 56.65524 -44.62287Q58.3455 -41.64395 63.47891 -35.1337Q70.61559 -25.89398 74.74735 -18.07812Q78.87911 -10.26226 78.87911 -1.04959Q78.87911 6.29385 74.05872 13.41991Q69.23833 20.54598 60.22358 23.88488Z" fill="rgb(255, 255, 255)" transform="matrix(1 0 0 1 332.919945 167.990734)"/><path d="M82.63526 14.24883Q82.00924 14.4807 82.00924 13.81311L82.00924 -78.31362Q82.00924 -78.9812 82.63526 -79.21307L93.90371 -83.38669Q94.52973 -83.61856 94.52973 -82.95098L94.52973 9.17575Q94.52973 9.84334 93.90371 10.07521L82.63526 14.24883Z" fill="rgb(255, 255, 255)" transform="matrix(1 0 0 1 332.919945 167.990734)"/><path d="M99.53793 7.98839Q98.91191 8.22026 98.91191 7.55268L98.91191 -84.57405Q98.91191 -85.24164 99.53793 -85.47351L118.56908 -92.5223Q123.82769 -94.46999 127.89685 -93.10651Q131.96601 -91.74304 134.2197 -87.83791Q136.47339 -83.93278 136.47339 -78.45859L136.47339 -70.18053Q136.47339 -66.84261 135.28394 -63.73172Q134.0945 -60.62083 131.84081 -56.71521Q131.46519 -56.04202 131.96601 -55.82697Q135.47175 -54.18805 137.22462 -49.36309Q138.97749 -44.53812 138.97749 -37.86227L138.97749 -31.31994Q138.97749 -24.51057 136.59859 -17.955Q134.2197 -11.39943 129.71232 -6.45881Q125.20494 -1.5182 119.32031 0.66136L99.53793 7.98839ZM117.19183 -55.82908Q120.82277 -57.17391 122.63824 -60.71695Q124.45371 -64.25998 124.45371 -69.46714L124.45371 -71.33638Q124.45371 -76.54354 122.63824 -78.67498Q120.82277 -80.80642 117.19183 -79.46159L112.05843 -77.56027Q111.4324 -77.3284 111.4324 -76.66082L111.4324 -54.36348Q111.4324 -53.69589 112.05843 -53.92776ZM117.56744 -11.24Q126.08138 -14.39341 126.08138 -25.20829L126.08138 -36.02316Q126.08138 -46.97156 117.56744 -43.81815L113.31047 -42.24145Q112.68445 -42.00958 112.68445 -41.342L112.68445 -10.09902Q112.68445 -9.43143 113.31047 -9.6633Z" fill="rgb(255, 255, 255)" transform="matrix(1 0 0 1 332.919945 167.990734)"/><path d="M142.48323 -7.91775Q141.8572 -7.68589 141.8572 -8.35347L141.8572 -100.4802Q141.8572 -101.14779 142.48323 -101.37965L153.75167 -105.55328Q154.3777 -105.78515 154.3777 -105.11756L154.3777 -12.99083Q154.3777 -12.32325 153.75167 -12.09138L142.48323 -7.91775Z" fill="rgb(255, 255, 255)" transform="matrix(1 0 0 1 332.919945 167.990734)"/><path d="M159.76151 -14.31731Q159.13548 -14.08544 159.13548 -14.75303L159.13548 -106.87976Q159.13548 -107.54734 159.76151 -107.77921L171.02995 -111.95284Q171.65598 -112.1847 171.65598 -111.51712L171.65598 -31.94099Q171.65598 -31.2734 172.282 -31.50527L187.18139 -37.02373Q187.80742 -37.2556 187.80742 -36.58801L187.80742 -25.37258Q187.80742 -24.705 187.18139 -24.47313L159.76151 -14.31731Z" fill="rgb(255, 255, 255)" transform="matrix(1 0 0 1 332.919945 167.990734)"/><path d="M191.68877 -26.14258Q191.06274 -25.91071 191.06274 -26.5783L191.06274 -118.70503Q191.06274 -119.37261 191.68877 -119.60448L202.95721 -123.77811Q203.58324 -124.00997 203.58324 -123.34239L203.58324 -31.21566Q203.58324 -30.54807 202.95721 -30.31621L191.68877 -26.14258Z" fill="rgb(255, 255, 255)" transform="matrix(1 0 0 1 332.919945 167.990734)"/><path d="M220.11029 -36.66939Q219.48427 -36.43752 219.48427 -37.10511L219.48427 -116.68124Q219.48427 -117.34882 218.85824 -117.11696L207.715 -112.98971Q207.08898 -112.75784 207.08898 -113.42542L207.08898 -124.64085Q207.08898 -125.30844 207.715 -125.5403L243.64882 -138.84953Q244.27485 -139.0814 244.27485 -138.41381L244.27485 -127.19838Q244.27485 -126.5308 243.64882 -126.29893L232.50558 -122.17168Q231.87956 -121.93981 231.87956 -121.27223L231.87956 -41.69609Q231.87956 -41.02851 231.25353 -40.79664L220.11029 -36.66939Z" fill="rgb(255, 255, 255)" transform="matrix(1 0 0 1 332.919945 167.990734)"/><path d="M248.2814 -47.10345Q247.65538 -46.87158 247.65538 -47.53917L247.65538 -139.6659Q247.65538 -140.33348 248.2814 -140.56535L259.54985 -144.73898Q260.17587 -144.97084 260.17587 -144.30326L260.17587 -52.17653Q260.17587 -51.50894 259.54985 -51.27708L248.2814 -47.10345Z" fill="rgb(255, 255, 255)" transform="matrix(1 0 0 1 332.919945 167.990734)"/><path d="M265.18407 -53.36389Q264.55805 -53.13202 264.55805 -53.79961L264.55805 -145.92634Q264.55805 -146.59392 265.18407 -146.82579L294.23162 -157.58447Q294.85764 -157.81633 294.85764 -157.14875L294.85764 -145.93332Q294.85764 -145.26574 294.23162 -145.03387L277.70457 -138.91255Q277.07854 -138.68068 277.07854 -138.0131L277.07854 -115.98279Q277.07854 -115.31521 277.70457 -115.54708L288.22178 -119.44246Q288.84781 -119.67433 288.84781 -119.00674L288.84781 -107.79131Q288.84781 -107.12373 288.22178 -106.89186L277.70457 -102.99648Q277.07854 -102.76461 277.07854 -102.09703L277.07854 -70.98756Q277.07854 -70.31998 277.70457 -70.55185L294.23162 -76.67316Q294.85764 -76.90503 294.85764 -76.23745L294.85764 -65.02202Q294.85764 -64.35443 294.23162 -64.12257L265.18407 -53.36389Z" fill="rgb(255, 255, 255)" transform="matrix(1 0 0 1 332.919945 167.990734)"/><path d="M314.26441 -70.20717Q305.24965 -66.86827 300.86748 -70.45236Q296.48531 -74.03645 296.48531 -81.5134L296.48531 -89.3909Q296.48531 -90.05849 297.11133 -90.29035L308.25457 -94.41761Q308.8806 -94.64947 308.8806 -93.98189L308.8806 -87.70659Q308.8806 -80.76371 314.26441 -82.75777Q317.14412 -83.82436 318.64658 -86.18333Q320.14904 -88.54229 320.14904 -91.88021Q320.14904 -97.08738 316.70591 -102.75499Q313.26277 -108.4226 306.12609 -118.19638Q301.3683 -124.71224 299.05201 -129.86259Q296.73572 -135.01295 296.73572 -141.28824Q296.73572 -148.89871 301.11789 -155.99599Q305.50006 -163.09326 314.38961 -166.38579Q323.40437 -169.72469 327.72394 -166.11741Q332.04351 -162.51014 332.04351 -155.03319L332.04351 -150.62713Q332.04351 -149.95954 331.41749 -149.72767L320.52466 -145.69317Q319.89863 -145.4613 319.89863 -146.12889L319.89863 -148.93274Q319.89863 -156.14266 314.38961 -154.10222Q311.76031 -153.12838 310.38306 -150.88255Q309.0058 -148.63671 309.0058 -145.96637Q309.0058 -141.69383 310.69607 -138.71492Q312.38633 -135.736 317.51974 -129.22575Q324.65642 -119.98603 328.78818 -112.17017Q332.91995 -104.35431 332.91995 -95.14163Q332.91995 -87.7982 328.09956 -80.67214Q323.27916 -73.54607 314.26441 -70.20717Z" fill="rgb(255, 255, 255)" transform="matrix(1 0 0 1 332.919945 167.990734)"/><path d="" fill="rgb(255, 255, 255)" transform="matrix(1 0 0 1 332.919945 167.990734)"/></g></g>

  </svg>