<svg xmlns="http://www.w3.org/2000/svg" xmlns:xlink="http://www.w3.org/1999/xlink" width="3750px" height="771px" viewBox="0 0 3750.0039099999995 770.8143828196253">
    <g style="" id="269c582f-9497-4472-b89e-9c40c4e3b6bf">
<g style=""><path d="M-1259.56527 -90.62867C-1039.23514 -83.80731 -967.6108 -41.51483 -967.6108 58.75925C-967.6108 176.08675 -1127.23077 238.16118 -1327.0968 238.16118C-1549.47334 238.16118 -1698.17912 174.72247 -1684.53639 22.60601L-1393.26405 7.599C-1404.17824 47.84506 -1368.025 66.94489 -1322.32184 66.94489C-1286.85074 66.94489 -1258.88314 56.0307 -1258.88314 33.52019C-1258.88314 6.91687 -1299.1292 6.91687 -1345.51449 6.91687L-1359.15722 6.91687C-1619.05127 15.1025 -1686.5828 -64.70748 -1686.5828 -139.74251C-1686.5828 -257.75214 -1521.50574 -321.19085 -1323.00398 -321.19085C-1100.62744 -321.19085 -959.42516 -236.60591 -986.71062 -105.63568L-1259.56527 -90.62867ZM-1393.94619 -113.82132C-1393.94619 -96.7679 -1378.93918 -91.31081 -1342.1038 -91.31081L-1325.05039 -91.31081C-1305.26843 -91.31081 -1286.1686 -91.31081 -1268.43305 -90.62867C-1254.79032 -129.51046 -1290.26142 -146.56387 -1333.91816 -146.56387C-1370.07141 -146.56387 -1393.94619 -132.23901 -1393.94619 -113.82132Z" fill="rgb(45, 104, 156)" transform="matrix(1 0 0 1 1875.001955 385.407191)"/><path d="M-666.10641 214.2864L-949.19311 214.2864L-949.19311 -297.31607L-666.10641 -297.31607ZM-666.10641 -41.51483C-630.63531 -126.78191 -595.84634 -212.04899 -560.37523 -297.31607L-253.41376 -297.31607L-372.78766 -58.56825L-372.78766 -57.20398L-246.59239 214.2864L-567.1966 214.2864L-666.10641 -41.51483Z" fill="rgb(45, 104, 156)" transform="matrix(1 0 0 1 1875.001955 385.407191)"/><path d="M191.33932 147.43701L98.56874 147.43701L86.97242 214.2864L-247.27453 214.2864C-193.38573 43.75224 -138.8148 -126.78191 -84.92601 -297.31607L387.11253 -297.31607L550.82532 214.2864L202.93565 214.2864ZM106.75438 99.00531C106.75438 99.68745 106.75438 99.68745 107.43652 99.68745L182.47155 99.68745C183.15368 99.68745 183.15368 99.00531 183.15368 99.00531C183.15368 98.32317 145.63617 -128.14619 144.95403 -128.14619L144.2719 -128.14619C143.58976 -128.14619 106.75438 98.32317 106.75438 99.00531Z" fill="rgb(45, 104, 156)" transform="matrix(1 0 0 1 1875.001955 385.407191)"/><path d="M920.54337 -89.94653C919.86123 -89.94653 919.1791 -89.2644 919.1791 -88.58226L919.1791 214.2864L636.0924 214.2864L636.0924 -88.58226C636.0924 -89.2644 635.41026 -89.94653 634.72813 -89.94653L470.3332 -89.94653L470.3332 -297.31607L1084.9383 -297.31607L1084.9383 -89.94653L920.54337 -89.94653Z" fill="rgb(45, 104, 156)" transform="matrix(1 0 0 1 1875.001955 385.407191)"/><path d="M1381.66773 -87.90013C1381.66773 -86.53585 1381.66773 -86.53585 1382.34986 -86.53585L1668.84725 -86.53585L1668.84725 9.64541L1382.34986 9.64541C1381.66773 9.64541 1381.66773 9.64541 1381.66773 11.00969L1381.66773 49.20934L1683.17211 49.20934L1683.17211 214.2864L1105.4024 214.2864L1105.4024 -297.31607L1679.07929 -297.31607L1679.07929 -122.68909L1381.66773 -122.68909L1381.66773 -87.90013Z" fill="rgb(45, 104, 156)" transform="matrix(1 0 0 1 1875.001955 385.407191)"/></g></g>

  </svg>