<svg xmlns="http://www.w3.org/2000/svg" viewBox="0 0 399.69 291.32"><defs><style>.cls-1{fill:#909090;}</style></defs><title>0b578be4-750c-4c57-a5e5-83dafdc269fd</title><g id="Layer_2" data-name="Layer 2"><g id="Layer_1-2" data-name="Layer 1"><g id="_0b578be4-750c-4c57-a5e5-83dafdc269fd" data-name="0b578be4-750c-4c57-a5e5-83dafdc269fd"><g id="_0b578be4-750c-4c57-a5e5-83dafdc269fd-child-0" data-name="0b578be4-750c-4c57-a5e5-83dafdc269fd-child-0"><path class="cls-1" d="M76.86,221.66a24.84,24.84,0,0,0,3.6-2.13c1.06,1.42,2.09,2.85,3.22,4.22,2.36,2.92,2.39,2.9,6,1.65,3.23-1.14,4.44-.63,6.35,2.6,1.29,2.19,1.17,2.53-1.64,5.06-.1.05-.17.18-.28.29-2,1.88-2.25,3.19-.8,5.33s2.86,2.53,5.3,1.22c1-.54,2-1.17,3.23-1.9-.84-2.27-1.61-4.27-2.52-6.73a23.67,23.67,0,0,1,3.52-2c2.23-.82,3.6-.13,4.81,2a2.86,2.86,0,0,1-1,4.34,6.77,6.77,0,0,0-1.13,1.08c-1.69,1.59-1.85,2.86-.6,4.66,2.08,3,3.61,3.36,6.87,1.66.89-.49,1.69-1.14,2.69-1.82-.54-1.45-1.08-2.76-1.54-4.08-.72-2-.38-3.09,1.21-3.93a3.7,3.7,0,0,1,5.15,1c1.33,1.79,1.28,2.86-.36,4.38-1,.93-2.13,1.76-3.48,2.87.8,1.35,1.39,2.49,2.09,3.53,1.89,2.74,3,2.94,6.23,1.26,2.74-1.43,2.87-1.83,1.63-5.22a9,9,0,0,1-.4-1.08c-.37-1.69-.1-3.07,1.67-3.85a4.34,4.34,0,0,1,5.49,1.62c1,1.57.67,2.91-.79,4a13.39,13.39,0,0,0-2.34,2,2.86,2.86,0,0,0-.66,2c.81,3.69,4.37,5.17,7.64,3.19l1-.59c1.15-.68,1.67-1.63,1-2.94a11.21,11.21,0,0,1-.83-1.79c-.59-1.69-.75-3.27,1.1-4.36,2.15-1.27,4.19-1.35,5.69.26a23.46,23.46,0,0,1,2.24,3.72l-3,2.34c-2.79,2.19-2.48,5.32.72,7.06,1.6.87,3.09.17,4.4-.61a2.84,2.84,0,0,0,1.3-3.71c-.54-1.45-1-2.91-1.44-4.28,3.51-3.89,6.29-4.26,8.77-1.28a4.88,4.88,0,0,0,6.54,1.31,9.46,9.46,0,0,1,1.07-.49c1.8-.94,3.24-.42,4.42,1.1a9.2,9.2,0,0,0,.66,1c2.32,2.85,2.87,2.94,6.22,1.09,1.18-.69,2.43-1.25,3.79-2,1.1,1.57,2,2.87,2.91,4.08,1.57,2,2.72,2.16,5,.93,2.83-1.5,3.22-2.22,2.39-4.86-.4-1.22-.8-2.43-1.18-3.61,1.74-1.81,3.56-3.56,5.84-2.55,2,.88,4.06,2.41,3.72,5.38a26.84,26.84,0,0,0-2.56,1.74c-2.69,2-2.74,4.11-.21,6.38,1.55,1.4,2.61,1.27,4.91-.13a2.88,2.88,0,0,0,1.33-4c-.55-1.4-1.14-2.78-1.67-4a11.61,11.61,0,0,1,1.14-1.08,10.89,10.89,0,0,1,1.68-1c3.12-1.71,3.93-1.56,6.34,1.06.87.93,1.71,1.89,2.81,3.06,1-.44,2.08-.92,3.12-1.39,3.87-1.75,4.3-1.64,6.8,1.6,2,2.53,2.77,2.77,5.57,1.52a5.27,5.27,0,0,1,7,1.74c1.93,2.57,2.24,2.71,5.17,1.38,3.5-1.52,4-2.47,7,1.72,1.77,2.45,2.7,2.72,5.26,1.52,4.27-2,4.35-1.84,7.31,1.94,1.81,2.29,2.13,2.37,4.94,1.21.47-.19.9-.53,1.4-.69,2.79-1.11,3.14-1,5,1.24.95,1.16,2,2.26,3.11,3.52,1.79-.74,3.39-1.33,4.89-2,1.66-.8,3-.71,4,.95a11.91,11.91,0,0,0,.94,1.21c2.25,2.8,3,2.94,6.22,1.23,1.2-.66,2.43-1.26,3.75-1.95.88,1.34,1.49,2.3,2.19,3.25,2.07,2.9,3.53,3.22,6.5,1.33,2.31-1.46,2.35-1.48,1.06-5.58-.42-1.33-.66-2.65.65-3.51,1.47-1,3-2.56,4.93-1.32,1.76,1.13,3.71,2.43,3.64,5-1.23.91-2.43,1.71-3.49,2.61-1.73,1.52-1.82,2.44-.61,4.35,1.38,2.09,2.89,2.65,4.93,1.81s2.63-2.15,2-4.33c-.45-1.54-1.12-3.05-1.73-4.69.94-.65,1.67-1.17,2.41-1.61,4.39-2.4,4.57-2.33,8.08,1.31.68.69,1.9,1.6,2.53,1.36a13.36,13.36,0,0,0,4.91-2.9c.5-.52-.08-2.35-.41-3.52-.86-3.08-.19-4.47,2.71-5.86,2.69-1.28,4.06.5,5.61,2.12,1.85,1.9,3,2,5.42.43s3-2.51,2.07-5c-1.8-4.88-.63-4.75,2.87-7a2.77,2.77,0,0,1,3.82.55c.45.46.79,1,1.24,1.49,1.78,1.86,2.49,2,4.76.69s2.8-2.34,2.14-4.67c-.48-1.58-1.07-3.13-1.66-4.74,1-.75,1.78-1.36,2.57-2,3.73-3,3.77-3,2.1-7.59-.59-1.69-.44-3,1.06-4.12s2.85-2.46,4.17-3.6c-.58-1.52-1-2.58-1.39-3.67-1.2-3.42-1-4,1.84-6.26s2.89-2.48,1.27-5.74a4.92,4.92,0,0,1,1.3-6.48c2.58-2.25,2.75-3,1.26-6-.57-1.11-1.29-2.18-2-3.4-1.45.46-2.57.8-3.65,1.12-2.52.72-3.76.31-4.64-1.48-1-1.94-.56-3.57,1.42-5.05,1.81-1.39,2.46-1.37,3.91.32,1,1.14,1.86,2.39,3,3.85,1.31-.78,2.46-1.36,3.5-2.07,2-1.34,2.2-2.48,1.16-4.63-1.27-2.61-2.14-3.09-4.49-2.38l-4.18,1.29a13,13,0,0,1-1.08-1.13c-3.07-4.59-3.06-4.73.78-8.67,2-2,.57-7.33-2.15-8.08a2.77,2.77,0,0,0-1.53.09c-.74.21-1.45.54-2.22.77-2.41.69-3.27.3-4.47-1.81s-1-3.22.65-4.88c1.26-1.24,2.6-2.44,3.91-3.67-1.07-1.59-2.14-3.17-3.13-4.77a2.71,2.71,0,0,1,.75-3.8c.69-.59,1.39-1.18,2.1-1.74,1.11-.88,1.84-1.95,1.06-3.35-.83-1.55-1.55-3.39-2.83-4.4-.74-.56-2.61.18-3.92.5a4,4,0,0,1-4.86-4.3c.34-2,2.06-2.58,3.56-3.28s2.1.49,2.86,1.4,1.81,2.06,2.82,3.23a39.1,39.1,0,0,0,3.6-2.13c1.75-1.4,1.85-2.54.62-4.77-1.4-2.53-1.82-2.78-4.2-2-1.36.39-2.67.85-4.51,1.44-.89-2.06-2.61-4.13-2.23-5.71.49-2.15,2.59-3.9,4.37-6.26a22.35,22.35,0,0,0-1.15-3c-2-3.9-2-4,1.23-6.9,2.29-2,2.39-2.63.91-5.3-.6-1.09-1.29-2.18-2-3.32l-3.69,1c-2.43.66-3.7.27-4.66-1.43a4,4,0,0,1,.74-5.29c1-1,2.07-1.86,3.37-3l-2.24-3.8a4.65,4.65,0,0,1,1.07-6.4c2.52-2.26,2.65-3.2.67-5.93-1.36-1.92-2-2-5.08-.85-1.3.49-2.66,1.57-3.87.06a29.25,29.25,0,0,1-3.35-5.14c-.3-.5.32-1.69.8-2.33a7.63,7.63,0,0,1,2.12-1.71c1.76-1.17,1.83-2.67.93-4.41-1.31-2.53-2.71-3-5.42-1.65-3,1.45-3.21,2.08-1.64,5,.57,1.12,1.07,2.28,1.65,3.48a28,28,0,0,1-3,1.77,3.75,3.75,0,0,1-4.8-1.38c-1.21-1.74-1.06-3,.69-4.81.87-.92,1.8-1.79,2.69-2.68a13,13,0,0,0-.72-1.66c-2.61-4.81-2.7-4.89-8-3.43-2,.54-3.58.16-4.69-1.72l-2.42-4.11a54.71,54.71,0,0,0,4.19-3.79c1.21-1.35.9-3-.52-4.5s-2.82-1.55-4.91-.32c-1.44.85-2.53,1.86-1.63,3.77.7,1.49,1.32,3,2.08,4.81a26.23,26.23,0,0,1-4.62,1.78,4.18,4.18,0,0,1-2.91-.55c-3.11-2-3.16-4.26-.35-6.73,2.35-2.08,2.41-4.06.1-6.19-1.72-1.62-3.14-1.64-5.59-.1-2.08,1.32-2.19,1.66-1.15,4.49.13.38.26.75.4,1.08.67,1.74.29,3-1.49,3.83-2.24,1-3.88.66-5.51-1.33-1.26-1.52-.9-2.82.4-4.09,1-1,2-2,2.92-2.81-1.81-5.37-3.84-8.26-9.86-2.48.39,1.27.81,2.6,1.17,4,.57,2.11,0,3.13-2.08,3.77-2.48.79-4,.19-5.27-2-1-1.75-.78-2.4,1.61-4.49s2.38-2.36,1.21-4.48c-1.44-2.6-2.89-3.28-5.35-2.46-2.94,1-3.66,2.34-2.55,5.36.6,1.64,1.39,3.12-.4,4.54-2.54,2-5.19,1.66-6.94-1.07A29.06,29.06,0,0,1,270,25.57c1.24-1.05,2.37-1.9,3.37-2.89.52-.5,1.37-1.45,1.2-1.81a11.1,11.1,0,0,0-2.6-4.09c-1.37-1.18-3-.22-4.25.71a3,3,0,0,0-1,3.83c.52,1.41,1.11,2.79,1.7,4.26-1.41.83-2.38,1.49-3.43,2-2.71,1.33-3.72,1.16-5.85-1a5.73,5.73,0,0,0-7.12-1.23,10.13,10.13,0,0,0-1.35.79,2.24,2.24,0,0,1-3.14-.55,15.9,15.9,0,0,1-1.57-2.2c-1.11-1.66-2.64-1.93-4.43-1.28-3,1.06-3.66,2.71-2.59,6.06.92,2.86.72,3.52-1.48,4.87s-3.79,1.33-5.64-.34A13.76,13.76,0,0,1,230.34,31a2.45,2.45,0,0,0-3.45-.68l-5.48,3.23c1.88,6,1.62,7.35-1.33,8.27-2.41.75-4.13-.69-5.11-4.28.91-.76,1.76-1.54,2.66-2.25s1.83-1.35,3.06-2.26c-1.11-1.43-2-2.63-2.93-3.81-1.34-1.65-2.93-1.35-4.53-.45s-2.6,2.13-1.88,4.11a19,19,0,0,1,1,2.5c.16.81.29,2.19-.12,2.48a22.41,22.41,0,0,1-6.06,3.26c-.74.21-2.12-1.52-3-2.52-1.25-1.35-2.5-2.15-4.45-1.46-2.83,1-3.74,2.8-2.75,5.71,1.35,4,1.33,4-2.23,6.13l-1,.59c-1.57,1-2.93.88-4-.69a15.09,15.09,0,0,0-1.21-1.51c-1.67-1.83-3-2-5.12-.69s-2.72,2.69-2,4.87c.46,1.45,1,2.87,1.49,4.43l-7,4.13c-1.2-1.42-2.11-2.65-3.2-3.73-1.54-1.54-2.68-1.46-4.86-.08-1.6,1-2.49,2.15-1.52,4.17a43.52,43.52,0,0,1,1.66,4.5l-6.91,5.13c.53,1.5,1,2.8,1.38,4.17a3.58,3.58,0,0,1-.53,3.63c-2.32,2.59-4.44,2.71-6.86.15s-2.62-2.67-5.51-1c-3.13,1.85-3.28,2.35-2.08,6,.35,1.06,1.08,2.76.66,3.19a17.91,17.91,0,0,1-5.2,3.8c-1.78.82-2.62-1-3.6-2.18-2.11-2.57-2.83-2.73-5.5-1-2.31,1.46-2.52,2.26-1.11,5.19a20.36,20.36,0,0,0,2.26,3.2,46.31,46.31,0,0,1,4.05-2.35c.77-.31,2.26-.56,2.48-.19a11.87,11.87,0,0,1,2,4.43c.31,1.91-1.59,2.44-2.9,3.22-1.62,1-2.72-.08-3.74-1.11s-1.86-2-2.91-3.09l-4.71,2.79c-1.51.89-2.23,2.13-1.32,3.91a15.48,15.48,0,0,1,.88,2.56,3,3,0,0,1-1.43,3.65c-3.23,2.28-4.18,2.21-6.83-.81-1.94-2.21-2.81-2.38-5.3-1-2.83,1.59-3.29,2.81-2,6,.66,1.66,1.2,3.19-.23,4.68-2.91,3-5.23,2.9-8-.28-1.89-2.2-2.56-2.34-5-1-3.31,1.77-3.51,2.35-2.13,5.84a6.07,6.07,0,0,1,.74,1.78c0,.81,0,2-.48,2.42-1.79,1.65-3.69,3.27-6.46,3.5-.87-1.17-1.65-2.34-2.6-3.41-1.62-1.81-3.49-1.84-5.5-.24s-2,3.75-.24,6.58c1,1.54,1.85,1.59,4.38.27a16.38,16.38,0,0,1,2.41-1.29c1.22-.4,2.34-.2,2.79,1.26.29.87.64,1.7.88,2.56.54,2-.62,3.18-2.13,4.16a3,3,0,0,1-4.18-.48c-1.06-1.09-2.07-2.27-3.3-3.58-1.44.85-2.77,1.59-4.1,2.42-2.23,1.45-2.5,2.3-1.57,4.87.46,1.32,1,2.61,1.68,4.14-2.16,1.73-4.18,3.29-6.37,5,.55,1.39,1.07,2.81,1.64,4.24.94,2.35.69,3.54-1.36,5.07a42.94,42.94,0,0,1-3.9,2.3c-1-1.34-1.75-2.27-2.46-3.17-2.08-2.67-4.6-2.72-6.63-.08-1.12,1.48-.94,3,.43,5,1,1.52,2.25,2,4,1.08,1.35-.71,2.83-1.21,4.46-1.9a41.57,41.57,0,0,1,2.26,3.83c1.08,2.58.74,3.55-1.57,5.33-1.08.86-2.19,1.74-3.26,2.61.79,1.88,1.32,3.62,2.16,5.2s.47,2.95-.83,4.12c-4.1,3.74-4.08,3.77-1.18,8.37A16.36,16.36,0,0,0,68,196.31c1.47-.5,2.83-.9,4.18-1.38,1.79-.65,3,.1,4,1.56s1.24,2.95.08,4.36c-.59.7-1.32,1.23-2,1.89-1.36,1.3-2.63,1-3.6-.42s-1.81-3.06-2.94-5a40.55,40.55,0,0,0-3.89,2.56c-2.16,1.78-2.31,3-.87,5.28,1.28,2,2.5,2.38,5,1.37,1.28-.53,2.53-1.09,3.91-1.68l4.39,7.44c-1.28,1-2.36,1.84-3.47,2.72-2.1,1.75-2.31,2.78-1,5,1.4,2.45,2.5,2.93,5.11,1.89ZM340.43,71.34c-1-2.11-.3-3.27,3.11-5,2.83,2,3.12,2.51,3.31,5.75-3.74,1.89-5.24,1.74-6.39-.76Zm8.33,24.93c.87-.83,2.29,0,2.93,1.44.5,1.15.24,2.17-1,2.43-.94.19-2-.23-3.73-.47.78-1.6,1.05-2.76,1.72-3.38Zm2.4,39.77c1.3-.86,2.12-.17,2.86.85,1.05,1.47,1,2.48-.16,3.27a2.77,2.77,0,0,1-3.76-.46A2.85,2.85,0,0,1,351.16,136Zm6.43,27.86c1.8.43,2.73,1.24,2.25,2.8-.1.38-1.37.76-1.89.57C356.22,166.57,356.64,165.37,357.59,163.9Zm5.25,30.92c-.24-.72.48-1.73.76-2.63.87.4,1.93.58,2.45,1.23.33.4-.14,1.45-.33,3-1.42-.71-2.72-1-2.93-1.58ZM243.92,33.14c-.64-1.3.2-2.57,2.36-3.75,1.14-.68,2.3-1.4,3.19.34,1,2,.67,3.73-.91,4.67A3.26,3.26,0,0,1,243.92,33.14ZM351.41,231.06a4,4,0,0,1,2.76-2.63c2.38-.27,3.42,1.65,4.13,3.77-1.41,1.84-3.26,2.93-5.3,2.32C352.16,234.24,351.22,232.12,351.41,231.06ZM338,240.56a5.17,5.17,0,0,1,1.68-.14c0,.46.12,1.12-.13,1.31a5.2,5.2,0,0,1-1.56.51l-1.18-.62C337.21,241.26,337.54,240.75,338,240.56Zm-12.6,8.85c.55,1.4-.22,2.17-3.53,3.4-1.45-2.46-1.45-4,0-4.71a2.8,2.8,0,0,1,3.59,1.32ZM202.3,44.85c1.11-.57,2.41-1.6,3.57.07a3.25,3.25,0,0,1-1,4.68c-1.71,1-3.15.65-4.27-1.1C199.7,47.06,200.08,46.16,202.3,44.85ZM184.72,57.41c-.83-1.87.67-2.48,1.74-3.2,2.19-1.29,3.16-1.19,4,.37,1,1.84.56,3.25-1.15,4.26a3.34,3.34,0,0,1-4.59-1.46ZM291.83,257.05c-.45-1.6-.29-3.1,1.56-3.87a3.78,3.78,0,0,1,4.75,1.5c1,1.6.09,2.76-1,3.7-1,.8-2.07,1.4-3.58,2.39a28.93,28.93,0,0,1-1.67-3.69Zm-8.19-2c-1,.73-2.1,1-3-.06-.83-1.32-.62-3.49.43-4a2.63,2.63,0,0,1,3.47.81c1,1.4.17,2.44-.94,3.23ZM171.28,62.77c2.73-1.53,4.33-.75,4.76,2.36.25,1.8-.64,2.91-2.14,3.76a2.72,2.72,0,0,1-3.8-.61c-.82-.93-1.59-1.92-2.66-3.2l3.86-2.28Zm98.15,185.92c.61-.18,1.46.41,2.25.67a6.39,6.39,0,0,1-1.07,2.17c-.27.25-1.25-.26-2.41-.53.53-1,.73-2.15,1.25-2.27Zm-12.69-3.43c1,.42,1.79.57,2.15,1a1.74,1.74,0,0,1-.24,1.59,2.22,2.22,0,0,1-1.95-.16c-.33-.4,0-1.31.07-2.49Zm-10.33.34c-1-.46-1.93-.59-2.08-1a5.88,5.88,0,0,1,.14-2.3c.78.17,1.91.09,2.28.56s-.13,1.48-.3,2.72ZM151.15,88c-.7-1.58.35-2.33,1.61-3,1.16-.5,2.37-.9,3.2.66a2.65,2.65,0,0,1-1.26,3.55A2.53,2.53,0,0,1,151.19,88Zm80.79,151.18a1.56,1.56,0,0,1,2.61.27c.37.7-.08,1.78-.19,3.29-1.26-.52-2.3-.68-2.57-1.2a2.69,2.69,0,0,1,.19-2.38Zm-11.77-3c.67-.17,1.5.3,2.28.48-.29.66-.35,1.56-.87,1.91s-1.31-.08-2.34-.2c.4-1,.52-2.12.91-2.22ZM133.46,108.7c.32-.46.65-1.29,1-1.31a4.91,4.91,0,0,1,1.88.65c-.35.48-.58,1.16-1,1.42a4.49,4.49,0,0,1-1.84.27C133.46,109.38,133.49,109.05,133.46,108.7Zm-15.09,6.69c1.58-.93,3-.8,3.69.41a2.84,2.84,0,0,1-1.18,4.23c-1.48.79-2.63.47-3.54-1.08a2.36,2.36,0,0,1,1-3.54ZM178,241c-.76-2.13-.31-3.22,1.57-4.1a3.4,3.4,0,0,1,4.7,1.35c1,1.61.75,2.87-1.12,4.25-.91.67-2,1.15-3.43,2A30.27,30.27,0,0,1,178,241Zm-6.86-4.47c0,2-1.55,2.36-3.13,2.76-1.22-1.14-2-2.37-.82-3.69a3,3,0,0,1,2.41-.52c.61.09,1.51.92,1.51,1.47ZM100.59,126.3c1.48-2.18,3.32-3.36,5.42-2.56.89.34,1.37,2.32,1.53,3.58.14,1.46-1.6,2.9-3.12,2.85-2.41-.08-3.18-1.85-3.8-3.89Zm-16.5,20.14c1.2-.57,2.61-.95,3.43.51a2.44,2.44,0,0,1-.82,3.44A2.68,2.68,0,0,1,83,149.2c-.62-1.22,0-2.15,1.16-2.73ZM74.48,184c1.07-.49,2.23-.68,3,.61s.31,3.45-.87,3.6c-.92.14-1.93-.58-2.5-.79-1-1.68-1-2.76.35-3.38Zm3.16,28.53a24.15,24.15,0,0,1,2.8-1.79c2.08-1,3.47-.64,4.71,1.07s1.42,3.16-.31,4.77a25.24,25.24,0,0,1-4.35,2.84l-2.82-6.91Zm286.51-61.17c-.77-1.31-1.29-2.73-1.93-4.12,1.54-.46,3.09-.83,4.59-1.44,1.88-.75,3,.19,3.92,1.49a3.47,3.47,0,0,1-.2,4.57C368,154.63,366.13,154.55,364.15,151.36ZM361,78.9c.67,1.14,1.65,2.88,1.22,3.76-.6,1.36-2.27,2.21-3.57,3.16a1.53,1.53,0,0,1-1.42-.25c-1.36-1.6-3.53-2.82-3-5.77,1.1-.52,2-1,2.94-1.33,1.36-.53,2.86-1.15,3.79.43ZM56.67,173.35a3.83,3.83,0,0,1,6.72-.44l2,2.87c-1.14,1.91-3,2.61-4.78,3.19-1.37.45-2.22-.23-2.84-1.36C57,176.3,55.74,175.08,56.67,173.35ZM66.06,155a5.29,5.29,0,0,1-3.31-5.31c0-1.1,2.79-3.1,4.1-3.19,1.48-.1,2.66,1.2,4.61,5.26L66,155Zm94.54,94.06c1.59,2.69,1.4,5-.54,6.22s-3.95.84-5.28-1.33c-1.42-2.33-1-3.62,1.82-5.29C158.58,247.5,159.73,247.59,160.6,249.07ZM85.18,228.9c2.31,1.54,3.51,3.33,3,5.77-.23,1.23-3.3,2.72-4.57,2.34a3.73,3.73,0,0,1-3-3.24C80.38,230.6,83.17,230.27,85.18,228.9ZM151.88,72c-1.27-.47-2.81-3.69-2-4.63,1-1.17,2.53-2.63,3.85-2.69,2.62-.09,3.22,2.46,4.2,4.87-2.08,1.32-3.5,3.38-6,2.42ZM118,103.15l-2.06-3.5c-.88-1.57-.13-2.83,1.07-3.72a3.28,3.28,0,0,1,4.28-.12c2.9,2.23,2.85,4.53-.35,6.24a29.27,29.27,0,0,1-3,1.15ZM211.51,248c.77,1.14,1.35,2,1.87,2.85.79,1.35,1,2.71-.18,3.92s-2.69,2.13-4.11,1.11c-1.16-.81-2.46-2.4-2.41-3.61.09-2.46,2.38-3.36,4.82-4.21ZM53.81,188.78c-.84-1.95-.13-3.6,2-4.73,1.66-.88,3-.66,3.86,1.08.54,1,1,2,1.8,3.43a30.79,30.79,0,0,1-3.65,2.11C56.06,191.35,54.58,190.55,53.81,188.78Zm313.68-81.3c1.28,2,.94,3.66-1,4.93s-3.84.64-5.33-1.88c-1.05-1.79-.86-2.53,1.07-3.72,2.47-1.5,4-1.33,5.28.65Zm10.34,106.34a4.51,4.51,0,0,1,1.88,3.79,4.68,4.68,0,0,1-3.15,2.81c-2.87.6-3.25-2.21-4.64-4.25,1.91-1.76,3.6-3.58,5.89-2.39Zm-150-188.88c-1.39-2.35-1-4.13,1.07-5.25s3.62-.55,4.87,1.56c1.11,1.89.55,3.4-1.74,4.75-1.88,1.11-3.16.78-4.18-1Zm9.92,231.79c1.21,2.28.71,4.12-1.4,5.14-1.9.94-3.38.36-4.36-1.69s-.33-3.48,1.95-4.6c1.74-.89,2.91-.54,3.83,1.18Zm104.68,4.66c-.86,1.23-2.45,2.53-4,1.43-1.23-.86-2.72-2.61-2.67-3.91.13-2.39,2.36-3.07,5-3.26,1,2,3.21,3.37,1.68,5.68Zm-80.29,1.3c1,1.75,1.55,4.16-.73,5.29-2.09,1-3.39.86-4.56-1s-.8-3.43,1.36-4.84C259.82,261,261.18,261.14,262.09,262.69ZM101,109.64c-1.31-2.22-1-3.53,1.16-4.72s3.2-.8,4.58,1.69c1.22,2.14,1,2.82-1.42,4.2S102.33,111.9,101,109.64ZM255.54,19.11c-1.31-2.22-.95-4.38,1-5.37s3.39-.47,4.53,1.54.75,3.1-1.49,4.37C257.75,20.71,256.38,20.52,255.54,19.11ZM66.86,140.38c-1.21-2-.8-3.65,1.16-4.86,2.12-1.25,3.4-.92,4.78,1.26,1.22,1.91.87,3.07-1.37,4.35s-3.5,1.07-4.61-.73Zm289.33,107c1.05.61,1.71,2.58,1.79,3.94,0,1.56-1.44,2.48-2.94,2.55-2.72.16-3.2-2.1-4.31-4.21C352.47,248,354,246,356.19,247.37Zm-132.78,4.29c1.78,1.39,3.13,2.91,2.57,5.19-.3,1.26-3.2,2.8-4.11,2.11-1.14-.87-2.53-2.22-2.6-3.49-.16-2.5,2.25-3,4.15-3.87Zm-50.49,5.6c-.86,1.23-2.41,2.06-3.64,1.29s-2.35-2.38-2.31-3.53c.06-2.13,2-3,4.5-3.21,1,1.79,3.13,3.14,1.47,5.48ZM85.59,118.88c-1.15-1.86-.81-3.51.92-4.67s3.33-.65,4.53,1.23.88,3.1-.82,4.29a3,3,0,0,1-4.66-.83Zm295.58,82.94a4.37,4.37,0,0,1,1.5,3.92,4.42,4.42,0,0,1-3.54,2.36c-2.47,0-2.85-2.44-3.72-4.6,1.94-1.47,3.68-3.22,5.74-1.72Zm-321,14.72a3.25,3.25,0,0,1,1.45-4.62A3.1,3.1,0,0,1,66,213.21a3,3,0,0,1-1.06,4.35c-1.85,1.09-3.75.71-4.71-1Zm189.63,43.25c1.45,2.22,1.22,3.67-.78,4.9s-3.22,1-4.49-1.07-.81-3.37,1.45-4.76C247.81,257.79,248.63,257.94,249.81,259.79ZM376,227.74a2.92,2.92,0,0,1-1.37,4.44c-1.81.93-3,.42-4.3-1.82-1.08-1.9-.73-2.92,1.28-4S374.88,225.63,376,227.74ZM274.5,266.42c1.18,2.07.85,3.59-1,4.63s-3.48.55-4.51-1.42c-.94-1.76-.29-3.41,1.7-4.5,1.69-.9,2.84-.49,3.84,1.27ZM328.69,37.13c-.91-2.09-.43-3.51,1.59-4.38a3.12,3.12,0,0,1,4.28,1.33c.87,1.79,0,3.64-2.22,4.62C330.64,39.43,329.51,39,328.69,37.13Zm50.89,126.21c.91,1.69.39,3.12-1.4,4.23-1.95,1.15-3,.88-4.17-1.07s-.88-3.25.91-4.22C376.91,161.2,378.63,161.58,379.58,163.34ZM135.4,78.88c-1.15-1.95-.83-3.54,1-4.48a3.38,3.38,0,0,1,4.53,1.6c.92,1.63.39,3.12-1.43,4.1s-2.95.7-4.06-1.18ZM74.61,228.75c1.13,1.91.82,3.15-1,4.15a3.12,3.12,0,0,1-4.33-1.11c-.92-1.55-.35-3,1.6-4.13,1.78-1,2.66-.79,3.74,1.11ZM184.83,39.25c-1.11-1.89-.77-3.08,1.1-4.14s3-.68,4.11,1.2.82,2.55-1.11,3.74C186.84,41.33,185.93,41.18,184.83,39.25ZM51.08,201.05a3.16,3.16,0,0,1,1.46-4.21c1.73-1,3-.55,4.07,1.44,1,1.76.66,2.65-1.21,3.71s-3.42.66-4.3-.9Zm334-10c1.13,1.83.86,3.21-.8,4.24s-2.94.56-4.13-1.37-1-2.8.73-3.84C382.81,188.92,384,189.19,385.09,191ZM120.63,253.59c.85,1.81.33,3.25-1.55,4.13s-2.94.47-3.85-1.21-.3-3.27,1.49-4.24A2.76,2.76,0,0,1,120.63,253.59Zm205.79,13.19c1.08,1.81.86,3.21-.76,4.3s-3.16,1-4.29-.73-.75-3,1.15-4.12,2.94-1,3.88.51Zm46.78-131.2c1.18,1.84.93,3.17-.82,4.21s-2.95.61-4.1-1.26-.91-3,.66-3.88a2.85,2.85,0,0,1,4.25,1ZM70.14,127.51c-.85-1.59-.38-3,1.25-3.87s2.91-.68,3.92,1,.7,3-.9,3.93A2.81,2.81,0,0,1,70.14,127.51Zm38,122.75a3,3,0,0,1-.87,4.37c-1.46.91-3.21.31-4.14-1.41s-.31-3.21,1.43-4.11a2.5,2.5,0,0,1,3.56,1.12ZM286.6,269.85c1,1.92.74,3.1-1.15,4.12s-3.37.59-4.21-1.05-.3-3,1.57-4.1,2.77-.77,3.73,1ZM169.46,48.47q-1.58-2.69,1-4.26c1.68-1,3-.61,4.15,1.27,1,1.65.67,2.6-1.24,3.73S170.41,50.08,169.46,48.47ZM200.3,30.11a2.74,2.74,0,0,1,1.2-4.2,2.78,2.78,0,0,1,3.92,1.27c.89,1.51.43,2.87-1.25,3.87s-2.94.78-3.88-.89ZM350.45,55.44a2.73,2.73,0,0,1,.84-3.72,3.33,3.33,0,0,1,4.18.71A3.13,3.13,0,0,1,354,56.68a2.72,2.72,0,0,1-3.56-1.2ZM131.27,255.56a3.65,3.65,0,0,1,1.7,3,3.85,3.85,0,0,1-2.45,2.45c-2.22.54-2.53-1.59-3.44-3.05,1.12-1.88,2.44-3.17,4.21-2.4ZM49.74,157.25c1.48-.87,2.63-.69,3.61.73,1.07,1.59.87,2.93-.62,3.86-1.83,1.13-2.76.95-3.82-.78S48.05,158.3,49.74,157.25Zm45.85,90c1.1,2,.84,3-.88,4a2.53,2.53,0,0,1-3.8-1.21c-.79-1.57-.27-2.69,1.46-3.76s2.6-.27,3.25,1Zm203.09,26.12a2.55,2.55,0,0,1-1.08,3.86,2.62,2.62,0,0,1-3.61-1.13c-1-1.47-.49-2.75,1.28-3.75S297.74,271.75,298.68,273.41Zm-115.26-18c1.34,1.57,2.74,2.87,1.43,4.64-.56.74-2.17,1.47-2.89,1.17a3.8,3.8,0,0,1-2.22-2.68c-.09-2.08,1.86-2.46,3.7-3.1Zm-29.12-198a2.77,2.77,0,0,1,.61-4,3.1,3.1,0,0,1,4.08,1c.82,1.24.4,2.67-1,3.59s-2.76.77-3.66-.51Zm215,37a3.23,3.23,0,0,1,1.44,2.82,4.31,4.31,0,0,1-2.56,2.42c-2.17.56-2.74-1.33-3.46-3.08,1.18-1.92,2.64-3.06,4.6-2.13ZM120.07,88a2.73,2.73,0,0,1,.79-4c1.49-.92,2.94-.55,4,1.06s.68,2.45-1,3.5-2.84.86-3.69-.5ZM371.3,238.63c1.15,1.63,2.7,2.94,1,4.62-.69.68-2.31,1.23-3,.89a3.93,3.93,0,0,1-1.9-2.91C367.58,239.24,369.43,238.83,371.3,238.63ZM48.89,169c1.15,1.18,2.67,2.45,1.37,4.17A3.83,3.83,0,0,1,47,174.41a3.45,3.45,0,0,1-1.81-2.83c.07-2,1.82-2.53,3.69-2.59Zm3-20.22a2.72,2.72,0,1,1,4.72-2.7,2.35,2.35,0,0,1-1.06,3.58A2.44,2.44,0,0,1,51.86,148.79ZM243.72,15.07a2.9,2.9,0,0,1,.76-4.08,2.65,2.65,0,0,1,3.68.92c1,1.48.61,2.72-1.18,3.77-1.31.78-2.41.84-3.25-.66ZM104.52,96.72A2.58,2.58,0,1,1,109,94.2a2.29,2.29,0,0,1-1,3.53c-1.48.88-2.67.49-3.53-1Zm258.54-30c.87,1.16,2.61,2.27,1.32,3.93a4,4,0,0,1-3.24,1.28,2.51,2.51,0,0,1-1.78-3c.37-2,1.95-2.15,3.66-2.16ZM88.88,105.1c-.68-2.14,1.23-2.45,2.78-3.28,1.68.92,3,2,2,3.77a3.69,3.69,0,0,1-2.84,1.49c-.68,0-1.69-1.18-2-2Zm55.68,154.67a3,3,0,0,1-.68,4.08,3.29,3.29,0,0,1-3.75-1.05,2.64,2.64,0,0,1,1.06-3.58,2.32,2.32,0,0,1,3.36.61ZM299.29,16a7.26,7.26,0,0,1-3-.09c-1.12-1.88-.72-3.43.59-4.2s2.42-.75,3.28.69.56,3.12-.82,3.62Zm-83.1,4.69c-1-1.62-.7-2.72.8-3.47a2.35,2.35,0,0,1,3.51,1.1c.81,1.52.43,2.56-1.21,3.39-1.45.77-2.21.49-3.07-1ZM61.71,225.8c.89,1.51.77,2.77-.64,3.6s-2.43.34-3.3-1.13a2,2,0,0,1,.65-3.11C59.64,224.44,60.8,224.34,61.71,225.8ZM47.85,211.49c1-1.85,2.26-2.79,3.72-2A3.7,3.7,0,0,1,53,212.33c0,.69-1.19,1.75-2,1.93C48.8,214.78,48.78,212.66,47.85,211.49ZM388,179.12a2.35,2.35,0,0,1-.61,3.35c-1.12.93-2.75.49-3.75-1.05-.79-1.12-.43-2.2.79-3a2.22,2.22,0,0,1,3.55.71ZM83.34,244.59c.5,1.25.72,2.53-.35,3-1.85,1.1-3.2.66-4-.75s-.5-2.38.9-3.16S82.74,243.13,83.34,244.59ZM47,182.8a2.28,2.28,0,0,1-.87,3.28c-1.44.94-2.76.77-3.65-.57a2.42,2.42,0,0,1,.87-3.59,2.53,2.53,0,0,1,3.63.85ZM341.9,40c-.74-1.42-.61-2.5.8-3.33s2.41-.7,3.27.69a2.24,2.24,0,0,1-.82,3.3C343.86,41.6,342.77,41.06,341.9,40Zm40.21,111.28a2.2,2.2,0,0,1-1.13,3.39c-1,.28-2.2-.2-4.11-.43.9-1.71,1.18-3,2-3.66a2.17,2.17,0,0,1,3.31.68ZM196.84,260.73c.71,1.35.5,2.47-.93,3.18s-2.46.46-3-.71c-1-1.65-.45-2.6.86-3.37s2.37-.45,3.1.94ZM376.23,123.81a2.14,2.14,0,0,1-1.16,3.18c-.94.33-2.21-.37-3-.52-.86-2.08-.31-3.13,1-3.79s2.45-.22,3.18,1.16ZM55.07,136.1a2.25,2.25,0,0,1,1-3.29,2.21,2.21,0,0,1,3.27.92c.83,1.33.78,2.4-.58,3.16C57.1,137.84,55.8,137.57,55.07,136.1Zm18.8-21c-.92-.64-.37-2.55.68-3.31,1.3-1,2.49-.47,3.44.52s.47,2.48-1.32,3.68A9.31,9.31,0,0,1,73.87,115.1ZM308.26,17.9A1.92,1.92,0,0,1,309,15c1.38-.81,2.46-.68,3.29.73a2.12,2.12,0,0,1-.87,3.29c-1.45.85-2.45.31-3.19-1Zm-24.42-6c-1-1.74-.47-2.72.91-3.45s2.41-.15,3.16,1.13c.87,1.48.24,2.4-1.08,3.09a2,2,0,0,1-3-.79Zm70.07,249.91c.18,1.07-.35,2.24-.71,4.09-1.72-.84-3.05-1.1-3.67-1.91-.93-1.27-.12-2.43,1.22-3.08s3-.35,3.18.93ZM138.59,65.7a6.16,6.16,0,0,1,1-2.65c1.06-1.13,2.72-.62,3.49.75a1.88,1.88,0,0,1-.8,2.87c-1.18.7-2.32,1.15-3.69-1Zm18,197.5a2.36,2.36,0,0,1-.43,3.43c-1.17.78-2.56.43-3.65-1.34-.43-.74-.07-1.73,1.07-2.49a2,2,0,0,1,3.06.42Zm154,13.64c.28,1-.14,2.21-.36,4.15-1.65-.88-2.78-1.17-3.42-1.88-.91-1-.33-2.48,1-3.16s2.47-.37,2.82.92ZM338.17,271c.7,1.17.63,2.21-.62,2.95s-2.41.29-3.47-1.58c-.45-.78,0-1.68,1.22-2.31S337.51,269.89,338.17,271ZM39.58,197.55c-.7-1.18-.68-2.14,1.24-3.27.63.22,2,.35,2.65,1.11.88,1,.15,2.09-1,2.76S40.33,198.83,39.58,197.55ZM373.27,83.78a2,2,0,0,1-1,2.91c-1.21.63-2.47.42-2.91-.86-.27-.84.27-1.93.34-2.43C371.58,82.24,372.64,82.57,373.27,83.78ZM126.66,75.61c-.77.46-2,.14-2.73.21-1-1.72-.84-2.95.35-3.47a3.11,3.11,0,0,1,2.7.35,1.73,1.73,0,0,1-.3,2.94ZM271.8,8.46c-.33-.85.07-1.94.17-3.68,1.66.65,2.93.81,3.47,1.49a2,2,0,0,1-.79,3C273.43,10,272.27,9.73,271.8,8.46Zm-40,2.84c-.75-1.19-.45-2.14,1.37-3.21.39.13,1.48.21,2,.8a1.86,1.86,0,0,1-.45,2.94A1.9,1.9,0,0,1,231.83,11.3ZM368.94,252.91c.83,1.09.28,2.15-1,2.76a1.77,1.77,0,0,1-2.68-1.23c-.23-.77.19-1.75.41-3.37C367.21,251.89,368.39,252.19,368.94,252.91ZM108.21,84.06c-.69-.77-.45-1.91.69-2.58s2.15-.59,2.66.42c.41.71.17,1.76.27,3.47C110.08,84.77,108.78,84.73,108.21,84.06ZM320.82,21c-.29-.87.2-2,.39-3.72,1.4.76,2.36,1,2.91,1.63.91,1,.69,2.09-.53,2.86S321.23,22.26,320.82,21ZM207.88,262.83c1,1.4,2.4,2.61.42,4a2.1,2.1,0,0,1-3.16-1C204.63,264.47,205.12,263.92,207.88,262.83ZM70.6,242a1.65,1.65,0,0,1-.82,2.53c-1.17.55-2.23.37-3.25-1.44.34-.56.65-1.65,1.39-2.18C69.15,240,70,240.85,70.6,242ZM188.69,26.12a1.67,1.67,0,0,1,.7-2.58c1.21-.72,2.36-.54,2.81.83.2.74-.27,1.7-.58,3.34-1.41-.71-2.41-.94-2.91-1.55ZM173,35c.18-.47.23-1.54.8-2.11,1-1,2.13-.76,2.94.44s.29,2-.72,2.56S174.06,36.68,173,35ZM39.13,145.28c.77-1.31,1.07-2.57,1.73-2.83a3.18,3.18,0,0,1,2.66.65c.8.75.1,2.71-1,2.84-.89.11-1.83-.33-3.39-.68Zm19.54-21.52a1.82,1.82,0,0,1,.58-2.93,1.9,1.9,0,0,1,2.9.83c.77,1.31.24,2.17-1.52,3.12a4.86,4.86,0,0,1-1.94-1.07ZM32.84,169.87c.74-1.35,1-2.56,1.73-2.83a3.06,3.06,0,0,1,2.63.62c.81.74.14,2.68-.94,2.86C35.38,170.64,34.44,170.2,32.84,169.87Zm133.32,96.37c.74-.29,1.72,0,3.39.05-.7,1.59-.87,2.6-1.5,3.15a1.62,1.62,0,0,1-2.58-.61c-.62-1-.45-2.14.66-2.57Zm224.32-47.06c.65,1,.57,2.11-.55,2.6-.74.29-1.73.06-3.5.07.69-1.59.87-2.6,1.44-3.17A1.61,1.61,0,0,1,390.48,219.18ZM40,157.71c-.81.47-2,.35-3.74.58.49-1.7.53-2.86,1.1-3.43a1.76,1.76,0,0,1,2.91.55c.3.65.18,2.07-.24,2.28Zm64.07,106c.3.27-.12,1.88-.59,2.16-.67.39-1.73.07-3.49.07.78-1.6,1-2.86,1.62-3.09a3,3,0,0,1,2.49.84Zm129.12,6.64c.84.81.65,1.88-.82,3.06-.62-.27-1.89-.42-2.12-1a3,3,0,0,1,.71-2.56C231.19,269.51,232.7,269.84,233.18,270.34ZM43.33,132.65c-.8-.81-.37-1.69.52-2.26s2.1-.75,2.6.41c.32.76,0,1.8-.05,3.52-1.53-.82-2.49-1.07-3.09-1.71ZM30.9,182.4c-1-1.79-.35-2.51.66-3s2.2-.35,2.41.85a2.82,2.82,0,0,1-.94,2.41C32.46,183,31.36,182.49,30.9,182.4Zm226.82,94.16a1.53,1.53,0,0,1-.32,2.6c-.73.38-1.75.12-3.53.18.73-1.61.93-2.73,1.57-3.19A2.46,2.46,0,0,1,257.72,276.56Zm-36.51-9.36a1.6,1.6,0,0,1-.84,2.49c-.75.27-1.7,0-3.43-.19.85-1.55,1.08-2.55,1.71-3a1.67,1.67,0,0,1,2.59.69Zm-61-222.11c-.67.25-1.53-.05-3-.18.63-1.46.86-2.77,1.45-3a3,3,0,0,1,2.58.84c1,1.07,0,2-1,2.36ZM322.29,280.43a2.35,2.35,0,0,1-.35,2.24c-.68.4-1.73.07-3.52,0,.82-1.53,1.07-2.63,1.75-3a2.33,2.33,0,0,1,2.14.78ZM92.46,91.51c1.28-1.21,2.45-2,3.67-.4a2.12,2.12,0,0,1-.9,2.93C93.34,94.53,92.78,93.27,92.46,91.51ZM77,100.64c1.1-1,2.29-2.12,3.52-.49a1.83,1.83,0,0,1-.63,2.92C77.8,103.85,77.24,102.36,77,100.64Zm-31,121.19c1.42.56,2.6.64,3.06,1.27a1.85,1.85,0,0,1-.9,2.85c-1.15.59-2-.16-2.37-1.24a13,13,0,0,1,.19-2.92Zm-6.15-14.24c.36.83-.11,2-.32,3.91C38,210.41,37,210,36.67,209.29c-.26-.52.15-2,.52-2.12C38,207,39.6,207.11,39.79,207.59Zm339-96.15c.27.76.05,1.7,0,3.37-1.57-.66-2.61-.82-3.14-1.41a1.56,1.56,0,0,1,.59-2.53c.94-.56,2.08-.64,2.53.59Zm-133,162.08c-.25.87-.27,2.06-.85,2.54s-1.64-.08-3.17-.21c.67-1.4.89-2.57,1.35-2.71C243.9,272.89,244.86,273.37,245.76,273.52ZM204.45,16.86c-.32-.54,0-1.56.13-2.93,1.26.52,2.24.58,2.72,1.16a1.49,1.49,0,0,1-.64,2.51A2.4,2.4,0,0,1,204.45,16.86ZM145.16,54.79c-1.21-.6-2.3-.82-2.53-1.36a2.39,2.39,0,0,1,.53-2.26,1.49,1.49,0,0,1,2.48.75c.19.71-.22,1.54-.46,2.9ZM21.8,166.55a2.36,2.36,0,0,1,.39-2.27,2.4,2.4,0,0,1,2.28.33c.4.44.09,1.53.09,2.85-1.29-.42-2.43-.43-2.72-.93ZM126.07,268.93c1.05.33,2.2.51,2.24.81a10.85,10.85,0,0,1-.41,2.69c-.79-.26-1.92-.27-2.3-.82s.25-1.51.48-2.65Zm264.7-101.77a2.38,2.38,0,0,1-.65,2.2c-.67.4-1.73.07-3.36.08.72-1.47.91-2.4,1.44-2.8C389.08,166,390.34,166,390.77,167.16ZM116.46,266.72a2.91,2.91,0,0,1-.72,2.23c-.87.84-1.89.57-2.81-1.06a4.49,4.49,0,0,1,.72-1.78c.81-.85,2.62-.47,2.84.59ZM28,141.83c-.37-.47.05-1.53.15-2.9,1.24.49,2.37.64,2.63,1.16a2.43,2.43,0,0,1-.54,2.23,2.3,2.3,0,0,1-2.22-.46ZM259.92,5.18c-.36-.69-.09-1.76,0-3.51,1.56.88,2.63,1.16,3,1.83.26.44-.28,1.75-.83,2.13A2.21,2.21,0,0,1,260,5.16Zm133.69,202a2.52,2.52,0,0,1-.51,2.2c-.65.43-1.72.24-3.49.39.74-1.67.91-2.76,1.55-3.28A1.43,1.43,0,0,1,393.61,207.13Zm-328.72-94c-1.47-1-2.48-1.44-2.79-2.11-.24-.49.46-1.45.77-2.23.74.33,1.75.51,2.15,1.09s0,1.51-.09,3.23Zm26.82,147c.38.64,0,1.72-.08,3.54-1.55-.85-2.59-1.15-3-1.78a2.21,2.21,0,0,1,.72-2.1,2.44,2.44,0,0,1,2.31.31Zm178.22,20c.35.52.07,1.5,0,2.89-1.3-.5-2.22-.6-2.74-1.1a1.46,1.46,0,0,1,.58-2.48,2.28,2.28,0,0,1,2.1.71Zm117.23-48.57a1.44,1.44,0,0,1-.63,2.46,2.44,2.44,0,0,1-2.16-.81c-.35-.52,0-1.52.06-2.9,1.28.56,2.22.69,2.71,1.22ZM54.43,241c.49-1.39.59-2.3,1.11-2.8.84-.81,2.08-.86,2.57.35a2.53,2.53,0,0,1-.7,2.27c-.48.42-1.5.16-3,.21Zm24.71,16.19c.32.54-.1,1.52-.19,2.29-.79-.12-1.86.06-2.32-.4s-.1-1.48-.16-2.8C77.74,256.7,78.79,256.71,79.14,257.23Zm287-198.81c-.54.32-1.54,0-2.91-.09.61-1.27.8-2.33,1.34-2.56s1.49.29,2.24.49C366.61,57,366.62,58.09,366.13,58.42Zm18.36,81.06a2.52,2.52,0,0,1-.37,2.21c-.46.37-1.51,0-2.86-.08.49-1.24.6-2.12,1.13-2.61A1.2,1.2,0,0,1,384.49,139.48ZM27,154.56c-.61.27-1.51-.11-2.95-.3.79-1.28,1.1-2.37,1.61-2.5a2.76,2.76,0,0,1,2.09,1C27.91,153,27.43,154.33,27,154.56Zm.31,50.12c.25.58-.33,1.51-.54,2.32-.65-.26-1.49-.3-1.86-.77s-.16-1.26-.21-2.5c1.24.4,2.42.48,2.63,1Zm2.19-13.41c1,1.14,2.32,2.08.58,3.2a2.38,2.38,0,0,1-2.25-.35C26.76,192.6,27.85,191.83,29.47,191.27Zm4,30.47c.34-.88.47-2,.8-2a6.59,6.59,0,0,1,2.28.47,7.16,7.16,0,0,1-.92,2.22c-.16.18-1.21-.37-2.18-.71ZM336.31,25.06c-1.27-.53-2.2-.65-2.61-1.18a2.12,2.12,0,0,1,.23-2,1.27,1.27,0,0,1,2.19.48,9.24,9.24,0,0,1,.13,2.68ZM180.64,270.39c.27.16-.07,1.27-.21,2.57a8.58,8.58,0,0,1-2.46-1.4c-.23-.23.21-1.57.38-1.58A4,4,0,0,1,180.64,270.39ZM129.37,62.85c-.36.3-1.25,0-2.27,0,.24-1,.33-2.19.61-2.26a5.87,5.87,0,0,1,2.33.34c-.19.66-.23,1.59-.7,2ZM20.77,179c-.61.27-1.51,0-3.06-.1.82-1.3,1.12-2.25,1.72-2.56.4-.24,1.54.31,1.84.82A2,2,0,0,1,20.77,179Zm25.92-58.78c-.23-.63.13-1.47.32-2.91,1.23.78,2.29,1.1,2.43,1.65a2.42,2.42,0,0,1-1,2C48.16,121.17,46.86,120.67,46.69,120.22Zm310.8-76.74c-1.14-.46-2.11-.57-2.23-1a5.28,5.28,0,0,1,.27-2.24c.67.14,1.72.07,2,.48.33.57.05,1.46,0,2.74ZM31.42,129.38c-.26-.43.19-1.29.38-2.35,1,.47,1.95.62,2.12,1.06a1.89,1.89,0,0,1-.66,1.8,1.91,1.91,0,0,1-1.83-.56ZM282.19,283.11c.82.79.41,1.71-.54,2.09a7.74,7.74,0,0,1-2.59,0c.56-1.2.73-2.07,1.23-2.45a2.08,2.08,0,0,1,1.88.34ZM394.27,194c.92.41,1.8.53,2.08,1a1.84,1.84,0,0,1-.43,1.8c-.75.66-1.76.63-2.1-.49-.17-.58.22-1.31.41-2.29Zm-100,92.6a1.8,1.8,0,0,1-.46,1.76c-.49.24-1.32-.17-2.27-.38.45-.94.56-1.83,1.05-2.07a1.76,1.76,0,0,1,1.71.67Zm-153.62-13.4c-.2.66-.26,1.56-.69,1.9s-1.26-.06-2.27-.15c.32-1,.43-2.12.76-2.17a5.13,5.13,0,0,1,2.22.45ZM16,188.42c1.05.47,2,.63,2.15,1,.17.59-.29,1.35-.5,2.07-.65-.25-1.51-.33-1.82-.78s.09-1.24.2-2.35Zm333.67,86.06a2.38,2.38,0,0,1-.3,1.95c-.36.31-1.27-.07-2.36-.24.45-1,.62-1.77,1.09-2.14C348.35,273.87,349.53,274.17,349.62,274.48ZM66.7,254.29a6.45,6.45,0,0,1-.22,2.39c-1-.47-2-.65-2.07-1a2.31,2.31,0,0,1,.77-1.77C65.38,253.66,66.57,254,66.7,254.29Zm298.5,11.17a6.4,6.4,0,0,1-.74,2c-.16.18-1.1-.26-1.92-.5.4-.78.55-1.6,1-1.75s1.15.19,1.72.3ZM373.69,71.6a5.24,5.24,0,0,1,2,.07c-.07.58,0,1.47-.27,1.7a4.76,4.76,0,0,1-2,.23c-.29-.19-.62-.36-.89-.52.39-.5.63-1.23,1.14-1.44ZM11.61,163.27c-.5.3-1.29.12-2.38.18.28-1,.34-1.88.66-2a4.92,4.92,0,0,1,2,.17C11.83,162.19,11.91,163.09,11.61,163.27ZM221.91,8.18c-.57-.12-1.1-.26-1.94-.44.14-.77.17-1.78.38-1.82a5.52,5.52,0,0,1,1.93.27C222.17,6.85,222,7.52,221.91,8.18ZM383.53,244a2.8,2.8,0,0,1-.3,1.95c-.11.2-1.07,0-2-.14a6.37,6.37,0,0,1,.71-2.19C382.14,243.38,383.44,243.66,383.53,244Zm-1.95-144.5a7,7,0,0,1-.3,2.17c-.9-.29-1.44-.51-2-.68a5,5,0,0,1,.78-1.83C380.26,98.93,381.53,99.22,381.58,99.47ZM43.06,235c1.08.23,1.72.39,2.4.54a5.82,5.82,0,0,1-.71,1.87,1.63,1.63,0,0,1-1.5-.16A6,6,0,0,1,43.06,235ZM32.9,232.7c-.17.56-.17,1.33-.52,1.58s-1.09-.08-2-.16c.36-.76.45-1.54.86-1.69s1.06.19,1.63.31ZM4.87,188c-.42.29-1.16.18-2.45.31,1-1.52,1.18-2.24,1.59-2.39s1,.32,1.52.51c-.22.54-.29,1.26-.68,1.53Zm33.05-83.35c-.27-.3.06-1,.12-1.94.81.3,1.62.36,1.79.72a1.6,1.6,0,0,1-.37,1.53,1.57,1.57,0,0,1-1.56-.34Zm15.54-9c-.17-.45.07-1,.18-1.93.83.33,1.35.52,1.84.73a4.13,4.13,0,0,1-.75,1.58,1.5,1.5,0,0,1-1.3-.36ZM249.56,1.92c-.37.22-1.08,0-1.94-.13.33-.83.44-1.71.77-1.77a4.94,4.94,0,0,1,1.89.43C250,1,250,1.68,249.56,1.92ZM161.8,31.81a3.43,3.43,0,0,1-.09-1.53c.2-.35.38-.73.55-1.06.47.41,1.16.73,1.33,1.26a2,2,0,0,1-.5,1.61,1.41,1.41,0,0,1-1.31-.23ZM15.06,201.74c-.43.8-.57,1.56-1,1.71s-1-.29-1.56-.48c.19-.52.3-1.27.65-1.52S14.19,201.57,15.06,201.74Zm8.36,17.06c-.33.29-1.08.1-2,.09.27-.84.27-1.61.61-1.81s1.07,0,1.65.11C23.61,217.74,23.75,218.52,23.42,218.8ZM112.27,71.68c-.25-.58,0-1.33.07-2,.55.08,1.4,0,1.58.29a7.13,7.13,0,0,1,.35,2.42C113.32,72.06,112.42,72,112.27,71.68ZM82.44,90.35c-.48-.26-1.19-.47-1.3-.82s.27-1.07.46-1.59c.54.23,1.27.3,1.56.72s.25,1.12.33,1.71c-.37,0-.72,0-1.09,0ZM10.93,215.7c-.47.14-1-.15-2-.31.52-.81.74-1.58,1.13-1.62s1.09.39,1.42.79a1.56,1.56,0,0,1-.53,1.18ZM151,276.18a5.83,5.83,0,0,1,1.61.64c.16.13-.16.82-.33,1.6-.76-.37-1.4-.53-1.67-.92C150.5,277.27,150.89,276.63,151,276.18ZM96.13,80.59c.41-.84.62-1.64,1-1.75s1.07.36,1.6.55c-.2.52-.3,1.27-.67,1.48s-1-.12-1.91-.32Zm-43.77,170c.85.36,1.66.43,1.85.82s-.17,1.09-.51,1.52c-.13.17-1.12-.06-1.26-.3C52.21,252.19,52.38,251.54,52.36,250.6ZM65.14,98.71c.43-.75.73-1.61.93-1.59a6.27,6.27,0,0,1,1.8.75c-.26.47-.48,1.19-.89,1.34S66,99,65.14,98.71Zm-14.87,9.06c-.24-.4.13-1.08.28-2,.82.47,1.51.65,1.72,1.07a1.59,1.59,0,0,1-.57,1.42C51.37,108.48,50.47,108.11,50.27,107.77Zm-16,9.23c.52-.81.75-1.58,1.13-1.62s1.1.39,1.42.79c.1.17-.25,1.11-.53,1.18-.46.14-1-.16-2-.32ZM2,200.12c-.44.25-1.08.09-2,.08.32-.91.51-1.43.68-2a5.83,5.83,0,0,1,1.61.64A1.31,1.31,0,0,1,2,200.08Zm6.28-24.54a5.12,5.12,0,0,1-2-.1c.42-.84.52-1.67.91-1.77s1.13.29,1.49.67a1.46,1.46,0,0,1-.41,1.24Zm182.58,97.35c.79.35,1.43.43,1.73.79a1.3,1.3,0,0,1-.23,1.23,4,4,0,0,1-1.62,0c0-.57.06-1.13.13-2.08ZM18.61,228.86a6.91,6.91,0,0,1,1.87.71c.16.12-.1,1.14-.25,1.19a2.13,2.13,0,0,1-1.51-.25c-.22-.14-.06-.87-.08-1.67ZM178.45,23.06c-.45-.14-.88-.34-1.62-.59.33-.6.46-1.22.78-1.36s.89.2,1.32.31c-.17.55-.31,1.09-.5,1.61ZM306.36,290c-.11.42-.1,1.05-.4,1.23s-.88,0-2.43-.19c.6-.68.87-1.29,1.23-1.37a3.93,3.93,0,0,1,1.57.35ZM147.73,41.16c-.44,0-.85-.13-1.56-.25.16-.65.12-1.26.37-1.45a1.58,1.58,0,0,1,1.21.06,5.47,5.47,0,0,1,0,1.61ZM398,182.74c.25-.19.8,0,1.66,0-.42.75-.56,1.28-.88,1.43s-.83-.1-1.24-.18c.14-.44.14-1,.44-1.25Zm-4.77-27.49a.93.93,0,0,1-1.48,1.11c-.2-.2-.07-.82-.1-1.49C392.44,155,393.05,155,393.26,155.25ZM347.82,27.19c-.72-.3-1.14-.46-1.52-.64a3.93,3.93,0,0,1,.67-1.17c.15-.13.85,0,.91.23A4.9,4.9,0,0,1,347.82,27.19ZM40.49,248.09a4.1,4.1,0,0,1,1.4,0c0,.44-.08.86-.16,1.64a6.87,6.87,0,0,1-1.47-.72C40.15,248.88,40.34,248.13,40.49,248.09Zm47.34,25.15c.21.19-.1.83-.2,1.66a5.26,5.26,0,0,1-1.43-1c-.1-.17.16-.87.37-.9a1.76,1.76,0,0,1,1.31.22Z"/></g></g></g></g></svg>