<svg xmlns="http://www.w3.org/2000/svg" xmlns:xlink="http://www.w3.org/1999/xlink" width="175px" height="102px" viewBox="0 0 175.0639420873631 102.40771717855796">
    <g id="36812236-bdc7-4705-8006-f309d2b2c741">
<g style="">
		<g id="36812236-bdc7-4705-8006-f309d2b2c741-child-0">
<path style="stroke: rgb(193,193,193); stroke-width: 0; stroke-dasharray: none; stroke-linecap: butt; stroke-dashoffset: 0; stroke-linejoin: miter; stroke-miterlimit: 4; fill: rgb(222,198,133); fill-rule: nonzero; opacity: 1;" transform="matrix(0.199606 0 0 0.199606 87.531971 51.203859) matrix(1 0 0 1 0 0)  translate(-438.477276, -256.389456)" d="M 876.74 333.45 C 876.67 331.78 876.60 330.10 876.55 328.45 C 876.44 326.42 876.19 324.40 875.79 322.40 L 875.63 321.45 C 875.33 319.36 874.14 317.50 872.37 316.35 C 870.77 315.32 868.77 315.14 867.01 315.87 C 866.49 316.08 866.01 316.38 865.59 316.74 C 865.47 315.93 865.29 315.13 865.05 314.34 C 864.34 311.97 862.61 310.04 860.32 309.10 C 858.74 308.38 856.93 308.33 855.32 308.97 C 854.44 309.32 853.65 309.88 853.03 310.60 C 852.16 309.13 850.71 308.09 849.03 307.76 C 848.52 307.65 847.99 307.62 847.47 307.66 C 848.45 307.10 849.24 306.26 849.75 305.25 C 850.12 304.53 850.34 303.73 850.39 302.92 C 852.74 303.62 855.28 303.40 857.47 302.30 C 859.33 301.42 861.66 299.93 862.20 297.73 C 862.25 297.52 862.29 297.31 862.30 297.10 C 864.48 295.82 865.80 293.47 865.76 290.95 C 865.76 290.33 865.64 289.72 865.40 289.15 C 865.57 288.95 865.73 288.74 865.87 288.52 C 867.07 286.60 867.16 284.18 866.10 282.18 C 865.89 281.80 865.65 281.44 865.36 281.11 C 865.48 280.84 865.57 280.57 865.63 280.28 C 865.94 279.01 865.72 277.67 865.03 276.56 C 864.73 276.09 864.36 275.68 863.93 275.34 C 864.24 273.44 863.30 271.56 861.61 270.66 C 860.76 270.15 859.83 269.81 858.85 269.66 C 858.68 268.41 857.94 267.30 856.85 266.66 C 854.52 265.30 851.66 265.16 849.21 266.31 C 848.44 266.68 847.81 267.29 847.42 268.04 C 846.83 269.06 846.75 270.30 847.21 271.39 L 847.13 271.50 C 846.11 268.84 843.61 267.03 840.76 266.89 C 837.71 266.45 834.67 267.67 832.76 270.09 C 832.57 269.99 832.38 269.91 832.18 269.85 C 833.04 268.03 833.42 266.01 833.30 264.00 C 833.09 260.01 830.87 256.40 827.41 254.41 C 824.76 252.91 821.89 251.83 818.91 251.20 C 810.76 249.58 802.51 249.42 794.53 249.28 L 789.40 249.17 C 786.14 249.08 782.86 249.03 779.58 249.00 C 780.00 248.40 780.29 247.72 780.43 247.00 C 781.31 242.88 777.93 241.00 776.48 240.19 L 776.02 239.93 C 771.98 237.68 767.58 236.16 763.02 235.44 C 751.64 233.29 739.97 233.15 728.54 235.02 C 725.01 235.59 721.31 236.32 716.89 237.30 C 713.84 237.87 711.17 239.68 709.51 242.30 C 708.79 243.44 708.50 244.80 708.70 246.14 C 707.58 245.70 706.52 245.09 705.58 244.33 C 704.47 243.34 702.99 242.85 701.50 243.00 C 701.50 242.82 701.50 242.63 701.50 242.45 Q 701.68 237.17 701.81 231.91 L 701.93 227.70 C 701.94 227.52 701.94 227.33 701.93 227.15 C 701.93 225.82 702.01 224.49 702.06 223.15 C 702.19 219.46 702.32 215.64 702.31 211.86 C 702.30 209.08 701.98 206.32 701.37 203.61 C 700.92 201.54 699.52 199.81 697.59 198.94 C 695.46 198.03 693.03 198.16 691.02 199.30 C 689.35 200.23 688.04 201.70 687.32 203.47 C 686.59 205.36 686.17 207.36 686.06 209.39 C 685.14 220.39 684.38 230.39 684.36 240.59 L 684.36 241.16 C 682.93 240.43 681.41 239.89 679.84 239.58 C 673.75 238.22 668.17 235.15 663.76 230.73 C 659.99 227.11 656.94 222.80 654.76 218.05 C 650.55 208.92 647.06 199.25 643.69 189.89 C 642.69 187.15 641.69 184.40 640.69 181.67 C 638.14 174.75 635.61 167.67 633.15 160.87 Q 631.29 155.70 629.42 150.51 L 629.27 150.11 C 628.95 149.15 628.57 148.22 628.13 147.31 C 627.58 146.17 626.89 145.10 626.08 144.13 C 625.51 143.45 624.83 142.86 624.08 142.38 C 625.43 141.18 626.17 139.43 626.08 137.62 C 626.05 135.63 625.59 133.66 624.74 131.86 C 622.88 127.92 620.41 122.73 617.86 117.59 C 617.18 116.21 616.28 114.94 615.19 113.85 C 610.36 109.04 605.80 106.05 600.84 104.44 L 600.12 104.21 C 595.52 102.56 590.78 101.35 585.95 100.61 L 581.73 100.08 C 576.73 99.44 571.60 98.78 566.45 98.55 C 554.45 98.01 542.58 97.08 528.45 95.85 C 515.21 94.70 504.13 94.11 493.58 94.00 C 489.47 94.00 485.26 93.76 481.19 93.58 L 476.85 93.39 C 475.94 93.39 475.03 93.28 474.12 93.22 C 472.48 93.10 470.78 92.98 469.05 93.01 C 466.62 93.01 464.23 92.90 462.21 92.76 L 458.61 92.48 C 452.39 91.86 446.13 91.67 439.88 91.92 C 434.88 92.23 429.71 92.15 424.88 92.04 C 417.09 91.85 409.43 91.81 400.32 91.81 C 399.57 91.80 398.83 91.86 398.09 91.99 C 398.09 87.32 398.09 82.62 398.09 78.05 L 398.09 71.74 C 398.09 69.81 398.09 67.87 398.09 65.93 C 398.44 66.02 398.81 66.08 399.17 66.11 C 401.66 66.35 404.17 66.43 406.02 66.47 C 409.65 66.55 413.28 66.61 416.91 66.67 C 430.82 66.90 445.19 67.13 459.25 68.58 C 469.15 69.58 479.25 70.02 489.00 70.43 L 498.10 70.83 C 507.45 71.28 516.96 72.21 526.16 73.12 L 527.92 73.29 C 530.52 73.54 533.18 73.87 535.74 74.19 C 540.52 74.78 545.45 75.38 550.41 75.58 C 551.54 75.58 552.70 75.76 553.92 75.90 C 554.73 76.00 555.54 76.09 556.35 76.16 L 564.27 76.88 C 570.68 77.48 577.32 78.10 583.89 78.46 L 589.39 78.75 C 595.06 79.04 600.93 79.34 606.67 79.85 C 614.67 80.57 622.86 81.73 630.74 82.85 L 635.83 83.57 C 638.11 83.89 640.38 83.99 642.57 84.10 L 643.23 84.10 C 645.42 84.18 647.58 83.59 649.43 82.41 C 651.58 81.18 652.89 78.89 652.87 76.41 C 652.74 73.99 651.32 71.83 649.16 70.75 C 647.52 69.94 645.79 69.33 644.00 68.93 L 643.75 68.87 C 638.42 67.58 633.01 66.64 627.56 66.07 C 625.16 65.76 622.69 65.44 620.28 65.07 C 607.12 63.01 593.66 61.36 581.78 59.91 C 568.78 58.32 555.94 57.41 544.01 56.67 C 542.90 56.60 541.80 56.55 540.69 56.50 C 538.69 56.42 536.84 56.34 534.98 56.14 C 531.51 55.77 527.98 55.33 524.55 54.91 C 520.18 54.37 515.66 53.81 511.17 53.37 L 505.00 52.75 C 497.71 52.02 490.16 51.26 482.68 50.82 C 481.68 50.76 480.49 50.68 479.38 50.53 C 469.16 49.03 458.86 48.16 448.53 47.94 C 444.68 47.94 440.76 47.76 436.97 47.64 L 432.66 47.51 C 432.37 47.41 432.06 47.36 431.75 47.35 L 426.75 47.21 L 415.48 46.88 L 410.02 46.68 C 406.96 46.56 403.79 46.44 400.66 46.38 C 400.09 46.37 399.51 46.42 398.95 46.53 C 398.91 45.78 398.82 45.04 398.70 44.30 C 398.07 41.47 395.60 39.44 392.70 39.36 C 389.65 39.16 386.96 41.34 386.51 44.36 C 386.44 44.74 386.39 45.11 386.35 45.49 C 385.83 45.35 385.29 45.25 384.75 45.20 C 383.95 45.11 383.16 45.09 382.43 45.07 C 375.76 44.92 368.96 44.59 362.43 44.28 C 352.99 43.83 343.25 43.36 333.57 43.39 L 329.41 43.39 C 325.25 43.39 320.95 43.39 316.71 43.48 C 311.92 43.58 307.13 43.72 302.35 43.86 C 298.35 43.97 294.27 44.09 290.24 44.18 C 284.51 44.31 278.78 44.41 273.05 44.51 L 264.77 44.65 C 264.17 44.65 263.56 44.68 262.96 44.75 C 262.68 44.78 262.40 44.83 262.12 44.90 C 261.96 42.63 261.21 40.44 259.94 38.56 C 258.71 36.68 256.67 35.47 254.43 35.30 C 252.14 35.18 249.92 36.14 248.43 37.88 C 246.82 39.73 245.90 42.09 245.85 44.55 L 245.85 45.55 C 244.92 45.30 243.95 45.21 242.99 45.27 L 240.99 45.36 C 236.73 45.55 232.33 45.75 227.99 46.26 C 219.47 47.26 209.39 48.38 199.23 49.11 C 191.61 49.66 183.53 50.32 173.79 51.18 C 171.38 51.40 168.95 51.67 166.60 51.94 C 163.49 52.29 160.27 52.66 157.13 52.87 L 156.41 52.87 C 156.48 52.09 156.38 51.31 156.11 50.58 C 155.84 49.82 155.54 49.15 155.21 48.43 L 152.36 42.14 Q 145.79 27.65 139.19 13.14 C 138.19 11.02 137.19 9.00 136.34 7.49 C 135.64 6.19 134.86 4.92 134.01 3.71 C 132.24 0.85 128.89 -0.62 125.58 0.01 C 122.06 0.59 119.27 3.29 118.58 6.79 C 118.14 8.81 117.89 10.86 117.83 12.93 C 117.65 17.62 117.53 22.38 117.40 26.98 L 117.26 32.31 C 117.24 32.84 117.35 33.37 117.60 33.84 L 117.39 37.23 Q 116.98 43.62 116.60 50.03 C 116.49 51.91 116.43 53.62 116.42 55.27 C 116.41 55.84 116.51 56.41 116.71 56.95 C 113.90 57.45 111.12 58.01 108.39 58.56 C 104.39 59.35 100.32 60.17 96.29 60.80 C 92.44 61.39 88.61 62.23 84.90 63.04 C 82.83 63.50 80.76 63.95 78.68 64.37 L 72.59 65.55 L 70.39 65.97 C 70.54 64.67 70.33 63.35 69.80 62.16 C 69.58 61.56 69.31 60.98 69.01 60.42 L 67.55 58.00 C 65.72 54.58 63.83 51.06 61.90 47.61 C 61.16 46.30 60.14 45.17 58.90 44.32 C 56.95 42.87 54.40 42.51 52.13 43.37 C 49.85 44.22 48.17 46.18 47.66 48.55 C 47.40 49.71 47.26 50.89 47.24 52.07 L 47.24 52.21 C 47.17 53.67 47.13 55.14 47.10 56.60 L 47.05 58.35 C 47.04 58.87 47.15 59.39 47.39 59.86 C 47.39 60.20 47.39 60.54 47.39 60.86 C 47.31 62.86 47.23 64.98 47.27 67.08 C 47.23 68.57 47.79 70.02 48.84 71.08 C 47.73 71.41 46.63 71.76 45.53 72.14 C 40.29 73.91 34.74 75.29 29.38 76.63 C 26.18 77.43 22.88 78.25 19.64 79.16 C 15.82 80.23 12.06 81.56 8.43 82.85 L 7.35 83.24 C 3.57 84.44 0.79 87.67 0.17 91.59 C -0.36 93.71 0.10 95.97 1.44 97.70 C 2.84 99.36 5.04 100.16 8.17 100.16 C 8.36 100.17 8.55 100.17 8.74 100.16 L 9.61 100.04 C 10.66 99.91 12.10 99.72 13.61 99.41 C 16.70 98.72 20.00 98.00 23.61 97.00 C 35.64 93.83 47.86 91.42 60.19 89.79 C 66.40 89.12 72.56 88.06 78.64 86.62 C 83.80 85.42 89.03 84.54 94.30 84.00 C 99.66 83.36 105.14 82.86 110.45 82.37 C 113.45 82.09 116.55 81.81 119.59 81.51 L 122.09 81.26 C 129.09 80.56 136.34 79.83 143.46 79.00 C 150.58 78.17 157.55 77.28 164.41 76.41 L 174.82 75.10 C 175.15 75.10 175.48 75.10 175.82 75.04 L 176.69 75.04 L 183.52 74.57 C 189.04 74.18 194.52 73.80 200.07 73.38 C 205.62 72.96 211.26 72.50 216.85 72.04 L 225.98 71.31 L 232.09 70.83 Q 238.19 70.36 244.29 69.83 C 244.99 69.77 245.69 69.64 246.37 69.44 L 246.37 72.10 C 246.37 75.00 246.37 77.91 246.48 80.82 C 246.54 84.31 246.79 87.80 247.23 91.27 L 246.85 91.27 L 246.17 91.27 C 245.08 91.17 243.98 91.15 242.89 91.19 C 239.31 91.41 235.42 91.69 230.63 92.07 L 228.74 92.22 C 226.15 92.41 223.47 92.62 220.81 92.98 C 214.94 93.90 209.00 94.32 203.06 94.24 C 201.36 94.21 199.67 94.27 197.98 94.42 C 197.22 94.42 196.46 94.52 195.70 94.55 C 192.51 94.69 189.38 95.13 186.35 95.55 C 182.94 96.11 179.50 96.45 176.04 96.55 C 173.35 96.56 170.67 96.71 168.00 97.00 C 166.35 97.19 164.80 97.37 163.22 97.48 C 157.59 97.99 152.00 98.83 146.47 100.00 L 142.69 100.71 C 135.96 101.78 129.44 103.95 123.41 107.13 C 120.05 108.87 117.20 111.47 115.16 114.66 C 114.11 116.42 112.92 118.09 111.61 119.66 C 109.73 121.79 108.34 124.31 107.53 127.04 C 105.92 132.52 104.18 138.94 103.90 145.77 C 103.82 147.62 103.73 149.47 103.64 151.32 C 103.51 153.90 103.39 156.47 103.30 159.04 C 103.04 163.65 103.22 168.28 103.83 172.86 C 104.29 175.86 104.55 179.05 104.83 182.11 L 104.97 183.80 C 105.10 185.43 105.19 187.07 105.29 188.70 C 105.44 191.46 105.61 194.31 105.96 197.15 C 106.67 202.82 106.87 208.69 107.07 214.36 C 107.18 217.49 107.29 220.72 107.48 223.92 C 107.73 228.07 107.78 232.34 107.83 236.47 C 107.83 238.70 107.83 240.93 107.94 243.15 C 108.00 245.96 108.10 248.77 108.19 251.57 C 108.37 256.81 108.55 262.24 108.56 267.57 C 108.56 272.16 108.48 276.84 108.40 281.37 C 108.26 289.07 108.11 297.03 108.40 304.91 C 108.49 309.44 108.82 313.97 109.40 318.47 C 110.34 325.51 113.26 332.14 117.82 337.59 C 121.67 342.11 126.01 344.78 131.11 345.77 C 136.32 346.88 141.73 346.54 146.75 344.77 C 144.37 345.91 141.79 346.57 139.16 346.70 C 137.90 346.70 136.66 346.82 135.47 346.91 C 134.12 347.01 132.84 347.11 131.58 347.12 C 129.77 347.12 127.90 347.12 126.09 347.12 C 124.28 347.12 122.62 347.06 120.88 347.07 C 116.05 347.07 113.45 349.21 112.47 353.87 C 112.28 354.86 112.16 355.86 112.12 356.87 C 111.98 361.52 112.22 366.18 112.82 370.79 L 113.01 372.63 C 113.12 373.89 113.51 375.11 114.16 376.19 C 110.79 377.46 108.13 380.13 106.87 383.51 C 104.91 388.28 104.25 393.48 104.97 398.58 C 105.32 401.33 106.40 403.93 108.09 406.13 C 109.58 408.35 112.01 409.75 114.67 409.94 L 116.47 410.04 L 116.59 410.04 C 116.56 410.12 116.54 410.20 116.52 410.28 C 115.33 415.28 115.82 419.63 117.92 422.96 C 119.94 426.01 123.13 428.09 126.74 428.72 C 127.19 428.82 127.64 428.89 128.10 428.93 C 129.60 429.08 131.10 429.25 132.60 429.42 C 135.99 429.81 139.49 430.21 143.01 430.34 C 156.36 430.85 169.94 431.21 183.35 431.43 C 185.73 431.41 188.11 431.19 190.45 430.77 C 191.45 430.62 192.45 430.47 193.39 430.36 C 198.15 429.86 202.38 427.12 204.79 422.98 C 205.25 422.24 205.73 421.52 206.21 420.80 L 206.70 420.05 L 207.29 419.14 L 211.90 418.98 C 209.72 425.98 208.67 433.29 208.79 440.62 C 208.85 445.05 209.90 446.62 213.90 448.07 C 214.26 448.20 214.63 448.32 215.00 448.41 C 214.62 448.60 214.26 448.81 213.91 449.05 C 211.24 450.61 209.96 453.77 210.80 456.75 C 214.13 470.30 221.23 482.62 231.27 492.30 C 234.37 495.24 236.27 494.96 239.45 493.23 C 239.66 493.12 239.86 493.00 240.06 492.88 C 239.94 493.22 239.82 493.55 239.71 493.88 C 238.76 496.36 239.69 499.16 241.92 500.59 L 242.38 500.90 C 243.32 501.57 244.30 502.17 245.32 502.70 C 250.44 505.21 255.62 507.70 260.46 509.99 C 261.28 510.36 262.13 510.64 263.01 510.83 C 267.16 511.96 271.42 512.65 275.72 512.89 L 276.20 512.89 C 276.71 512.89 277.20 512.89 277.80 512.89 C 280.48 513.08 283.12 512.16 285.10 510.35 C 288.30 512.96 292.10 512.22 293.96 511.85 C 306.58 509.42 318.32 503.68 328.00 495.23 C 330.52 493.04 334.61 489.50 333.00 483.63 L 333.55 483.70 C 336.37 484.22 339.20 482.89 340.61 480.39 L 341.07 479.67 C 341.41 479.16 341.74 478.67 342.07 478.13 C 347.68 468.62 351.15 457.99 352.21 447.00 C 352.47 444.14 352.88 439.62 348.84 436.87 L 348.98 436.79 C 351.30 435.43 352.50 432.75 351.98 430.12 C 351.93 429.76 351.87 429.39 351.81 429.02 L 351.73 428.53 C 350.95 423.64 349.67 418.84 347.92 414.21 L 349.45 414.16 C 350.33 415.28 351.28 416.34 352.30 417.34 C 354.25 419.23 356.46 421.08 359.36 421.72 C 360.84 422.04 362.29 422.42 363.83 422.82 C 368.02 423.92 372.34 425.04 377.05 425.01 C 383.75 425.01 389.22 425.01 394.25 425.22 C 412.97 425.91 434.19 426.70 455.11 426.27 C 466.49 426.04 478.11 426.17 489.31 426.27 L 499.89 426.37 C 504.07 426.37 508.34 426.55 512.47 426.69 L 518.18 426.87 L 518.23 426.87 L 525.72 426.97 Q 535.72 427.11 545.78 427.19 C 547.17 427.19 548.55 427.13 549.88 427.07 C 551.44 426.99 552.88 426.92 554.36 426.97 C 556.71 427.05 559.13 427.24 561.47 427.42 C 562.97 427.54 564.47 427.66 565.96 427.75 C 575.19 428.33 584.49 428.05 593.49 427.75 L 597.85 427.63 C 601.79 427.52 605.78 427.33 609.63 427.16 C 616.26 426.85 623.12 426.53 629.83 426.61 C 631.01 426.61 632.19 426.66 633.37 426.69 C 635.59 426.76 637.88 426.83 640.19 426.75 C 649.19 426.41 656.54 423.43 662.19 417.88 Q 663.81 416.28 665.25 414.61 C 662.53 422.22 661.14 430.23 661.13 438.31 C 661.13 443.13 661.75 445.66 667.37 447.07 L 666.74 447.46 C 663.02 449.84 662.25 451.75 663.31 455.95 C 666.62 469.32 673.69 481.47 683.69 490.95 C 686.75 493.88 688.69 493.60 691.89 491.86 L 692.36 491.60 Q 692.21 492.08 692.03 492.60 C 691.10 495.10 692.06 497.90 694.31 499.32 L 694.45 499.42 C 695.22 499.98 696.03 500.48 696.88 500.91 C 701.65 503.25 707.30 506.00 712.95 508.68 C 713.87 509.11 714.84 509.44 715.83 509.68 L 716.39 509.82 C 720.41 510.83 724.53 511.40 728.68 511.52 C 730.89 511.62 734.46 511.78 737.35 509.08 C 740.19 511.65 743.60 511.08 745.51 510.72 L 745.84 510.72 L 746.59 510.60 C 759.58 508.06 771.61 501.97 781.34 493.00 C 783.16 491.35 786.87 488.00 785.09 482.28 L 785.19 482.28 C 787.49 482.93 790.74 482.80 793.29 478.63 C 800.16 467.59 804.14 454.99 804.87 442.01 C 805.10 439.33 803.60 436.80 801.13 435.72 L 801.13 435.72 C 803.05 434.52 804.85 432.29 804.21 428.19 C 803.75 425.15 803.10 422.15 802.27 419.19 C 803.18 419.42 804.11 419.56 805.04 419.61 C 808.04 419.80 811.04 419.74 813.87 419.68 L 815.50 419.68 C 818.22 419.68 820.85 418.69 822.89 416.89 C 822.89 417.69 822.89 418.46 822.80 419.22 C 822.67 421.45 822.65 423.80 822.72 426.62 C 822.73 429.78 824.64 432.63 827.56 433.85 C 829.39 434.70 831.52 434.62 833.28 433.64 C 833.96 433.24 834.56 432.70 835.03 432.07 C 836.01 433.47 837.55 434.38 839.25 434.58 C 843.70 435.08 847.32 433.77 849.48 431.09 C 850.10 433.14 851.78 434.71 853.87 435.19 C 856.27 435.78 858.80 435.05 860.52 433.27 C 862.16 431.66 863.30 429.61 863.82 427.37 C 864.17 426.08 864.45 424.77 864.66 423.45 C 865.92 424.18 867.41 424.44 868.84 424.17 C 872.35 423.47 873.19 420.34 873.48 419.26 C 873.72 418.45 873.89 417.61 873.98 416.77 C 874.05 415.93 874.13 415.09 874.21 414.25 C 874.45 411.71 874.69 409.08 874.78 406.45 C 875.06 398.34 875.28 390.09 875.50 382.12 L 875.72 374.12 C 875.93 373.71 876.04 373.26 876.05 372.80 C 876.12 370.46 876.16 368.13 876.19 365.80 C 876.28 360.62 876.37 355.26 876.77 350.06 C 877.09 344.53 877.08 338.98 876.74 333.45 Z M 263.74 68.53 C 267.94 68.82 298.07 67.53 301.11 67.53 C 304.15 67.53 325.01 67.53 327.91 67.38 C 330.81 67.23 361.91 68.54 367.16 67.38 L 384.54 66.23 C 384.54 66.23 383.38 71.73 383.54 73.47 C 383.70 75.21 383.83 89.40 383.83 89.40 L 383.11 90.56 C 383.11 90.56 358.92 89.40 348.35 89.69 C 337.78 89.98 301.42 87.69 293.89 89.40 C 286.36 91.11 263.47 90.56 263.47 90.56 C 263.47 90.56 264.20 80.27 264.20 77.67 C 264.20 75.07 263.73 68.53 263.73 68.53 Z" stroke-linecap="round"/>
</g>
		<g id="36812236-bdc7-4705-8006-f309d2b2c741-child-1">
<path style="stroke: rgb(193,193,193); stroke-width: 0; stroke-dasharray: none; stroke-linecap: butt; stroke-dashoffset: 0; stroke-linejoin: miter; stroke-miterlimit: 4; fill: rgb(37,37,37); fill-rule: nonzero; opacity: 1;" transform="matrix(0.199606 0 0 0.199606 87.531971 51.203859) matrix(1 0 0 1 0.021615 0.061623)  translate(-438.498892, -256.451078)" d="M 253.18 103.67 C 253.91 104.87 255.34 105.46 256.70 105.11 C 258.06 104.93 259.30 104.21 260.12 103.11 C 261.44 101.31 262.31 99.21 262.64 97.00 C 263.23 94.00 263.30 94.00 266.15 93.59 C 267.65 93.29 269.17 93.10 270.69 93.00 C 277.49 92.83 284.29 92.76 291.08 92.64 C 292.61 92.71 294.13 92.64 295.65 92.45 C 301.57 91.34 307.50 91.82 313.45 92.02 C 330.27 92.57 347.09 93.43 363.93 93.13 C 370.37 93.02 376.83 93.63 383.28 93.99 C 385.28 94.11 385.82 94.69 386.08 96.90 C 386.17 98.94 386.64 100.94 387.48 102.80 C 389.23 106.04 392.65 106.24 394.87 103.24 C 395.77 101.79 396.29 100.15 396.39 98.45 C 396.86 95.45 397.39 94.95 400.33 94.95 C 408.49 94.95 416.66 94.95 424.81 95.17 C 429.92 95.29 435.00 95.37 440.10 95.05 C 447.41 94.59 454.71 95.36 462.00 95.89 C 464.38 96.06 466.73 96.18 469.12 96.15 C 471.66 96.10 474.20 96.42 476.74 96.52 C 482.35 96.76 487.96 97.08 493.57 97.14 C 505.14 97.26 516.66 97.98 528.19 98.98 C 540.89 100.08 553.60 101.11 566.34 101.68 C 572.78 101.97 579.19 102.95 585.60 103.73 C 590.52 104.33 595.21 105.91 599.90 107.43 C 605.02 109.09 609.21 112.30 612.98 116.06 C 613.81 116.92 614.49 117.92 615.00 119.00 C 617.34 123.72 619.61 128.47 621.86 133.23 C 622.51 134.62 622.85 136.14 622.86 137.67 C 622.95 138.90 622.21 140.04 621.06 140.47 C 620.29 140.84 619.48 141.09 618.64 141.23 C 611.20 142.03 603.74 142.75 596.28 141.59 C 593.76 141.27 591.21 141.18 588.67 141.33 C 583.24 141.51 577.79 141.43 572.36 141.33 C 565.72 141.24 559.09 140.87 552.46 140.97 C 543.12 141.10 533.79 141.58 524.46 141.83 C 516.81 142.04 509.16 142.09 501.51 142.32 C 496.25 142.48 490.98 142.67 485.74 143.14 C 482.03 143.55 478.40 144.54 475.00 146.08 C 472.19 147.09 470.29 149.73 470.24 152.72 Q 469.88 159.35 469.73 165.97 C 469.62 171.07 469.34 176.19 469.63 181.27 C 470.19 191.12 469.77 200.98 470.35 210.83 C 471.02 222.19 471.56 233.57 470.89 244.97 C 470.38 253.80 470.64 262.67 470.00 271.48 C 469.23 282.00 469.71 292.48 469.23 303.06 C 468.99 308.06 468.46 312.87 466.01 317.33 C 465.46 318.39 465.02 319.50 464.69 320.64 C 462.69 327.11 458.05 331.16 452.33 334.20 C 451.15 334.88 449.86 335.35 448.51 335.58 C 442.27 336.37 436.00 337.08 429.74 335.77 C 426.04 335.10 422.55 333.53 419.59 331.21 C 417.36 329.37 415.17 327.48 413.08 325.49 C 411.11 323.59 409.63 321.24 408.77 318.64 C 405.66 309.75 403.66 300.64 404.06 291.17 C 404.21 287.94 404.19 284.71 404.00 281.48 C 403.76 277.24 403.81 272.99 404.14 268.76 C 404.49 264.19 404.19 259.59 404.27 255.00 C 404.51 240.72 404.80 226.44 405.04 212.16 C 405.09 209.16 404.94 206.05 404.92 202.99 C 404.83 201.46 404.86 199.93 405.00 198.41 C 406.00 191.14 405.62 183.81 406.06 176.51 C 406.21 174.12 405.86 173.79 403.11 173.51 C 400.91 173.24 398.78 172.59 396.82 171.57 C 394.19 170.32 392.00 168.31 390.52 165.80 C 389.93 164.80 389.36 163.72 388.76 162.69 C 387.82 161.11 387.20 161.05 386.21 162.43 C 385.52 163.43 384.91 164.43 384.21 165.35 C 380.59 170.01 375.10 172.83 369.21 173.07 C 363.82 173.44 359.27 171.23 355.48 167.44 C 354.65 166.61 353.99 165.60 353.16 164.75 C 352.97 164.57 352.72 164.48 352.46 164.50 C 352.21 164.53 351.97 164.66 351.82 164.87 C 351.61 165.13 351.41 165.41 351.23 165.70 C 350.66 166.54 350.14 167.42 349.51 168.22 C 339.24 181.33 325.62 176.12 318.82 167.30 C 318.20 166.49 317.71 165.59 317.07 164.81 C 316.91 164.61 316.67 164.49 316.42 164.48 C 316.16 164.46 315.91 164.56 315.73 164.74 C 315.24 165.21 314.80 165.73 314.42 166.29 C 309.63 173.10 302.81 175.39 294.86 174.96 C 292.66 174.82 290.47 174.45 288.35 173.83 C 283.98 172.59 280.18 170.50 277.93 166.24 C 277.30 165.04 276.30 165.06 275.61 166.30 C 271.79 173.18 265.68 175.02 258.32 174.55 C 255.10 174.41 251.92 173.77 248.90 172.63 C 245.33 171.41 242.27 169.04 240.19 165.90 C 239.81 165.38 239.40 164.89 238.95 164.43 C 237.18 164.89 237.02 166.43 236.38 167.55 C 234.34 171.11 231.20 173.92 227.43 175.55 C 225.28 176.61 222.89 177.07 220.50 176.91 C 217.45 176.67 214.42 176.22 211.44 175.55 C 204.08 173.68 199.44 168.76 196.96 161.73 C 196.34 160.00 196.26 158.06 195.16 156.47 C 193.88 157.24 193.76 158.47 193.34 159.58 C 192.00 163.07 190.33 166.42 188.34 169.58 C 184.02 176.39 177.56 179.75 169.82 180.88 C 166.95 181.39 163.99 180.97 161.36 179.70 C 159.87 178.95 159.07 179.50 159.07 181.17 C 159.07 186.61 159.07 192.05 159.27 197.48 C 159.43 202.75 159.83 208.00 160.03 213.27 C 160.30 220.40 160.41 227.54 160.74 234.67 C 160.88 237.89 161.35 241.10 161.74 244.30 C 162.22 248.18 162.34 252.10 162.11 256.01 C 161.54 265.54 162.64 275.01 162.53 284.56 C 162.45 291.56 163.23 298.47 163.53 305.43 C 163.71 309.17 163.78 312.89 162.70 316.56 C 162.04 319.02 161.53 321.53 161.19 324.06 C 160.54 327.76 158.85 331.21 156.32 333.99 C 149.75 341.66 141.56 344.52 131.66 342.60 C 127.12 341.65 123.06 339.13 120.19 335.49 C 116.04 330.50 113.39 324.43 112.55 318.00 C 111.97 313.62 111.64 309.22 111.55 304.80 C 111.08 292.38 111.72 279.98 111.70 267.58 C 111.70 259.42 111.28 251.27 111.07 243.11 C 110.91 236.66 111.01 230.20 110.62 223.77 C 110.07 214.77 110.19 205.77 109.08 196.77 C 108.53 192.39 108.46 187.95 108.08 183.55 C 107.78 179.82 107.53 176.08 106.97 172.39 C 106.39 168.01 106.21 163.58 106.46 159.16 C 106.62 154.75 106.88 150.33 107.06 145.91 C 107.32 139.75 108.84 133.82 110.57 127.91 C 111.25 125.62 112.42 123.51 114.00 121.73 C 115.42 120.04 116.71 118.23 117.85 116.34 C 119.60 113.61 122.04 111.39 124.93 109.92 C 130.67 106.92 136.85 104.86 143.24 103.83 C 149.93 102.61 156.58 101.16 163.39 100.68 C 167.62 100.38 171.84 99.61 176.07 99.59 C 182.74 99.59 189.22 97.89 195.85 97.59 C 198.22 97.49 200.60 97.21 202.97 97.28 C 209.10 97.37 215.22 96.94 221.28 96.00 C 224.47 95.57 227.70 95.37 230.91 95.11 C 234.98 94.79 239.04 94.48 243.11 94.23 C 244.30 94.20 245.49 94.25 246.68 94.36 C 247.91 94.36 248.99 95.21 249.27 96.41 C 249.70 97.88 250.09 99.41 250.62 100.80 C 250.98 102.14 251.96 103.22 253.26 103.72 Z M 236.62 150.00 C 236.56 147.46 236.62 144.90 236.44 142.36 C 236.26 139.82 235.44 139.04 232.91 139.11 C 229.69 139.20 226.46 139.63 223.25 139.56 C 217.62 139.42 212.06 140.25 206.46 140.44 C 204.43 140.56 202.40 140.82 200.40 141.20 C 198.61 141.48 197.96 142.14 197.93 143.86 C 197.71 148.97 198.33 154.09 199.76 159.00 C 201.31 163.85 204.05 167.86 208.88 170.07 C 212.81 171.70 216.98 172.68 221.22 172.97 C 222.23 173.01 223.25 172.88 224.22 172.58 C 229.82 171.17 233.29 167.51 235.06 162.12 C 236.23 158.19 236.76 154.10 236.62 150.00 Z M 294.52 170.31 C 296.05 170.31 297.58 170.31 299.10 170.18 C 308.78 169.46 315.25 162.18 314.86 152.48 C 314.74 149.48 314.57 146.39 314.44 143.34 C 314.41 141.47 314.09 139.62 313.49 137.85 C 313.24 137.02 312.51 136.42 311.65 136.32 C 310.81 136.24 309.96 136.22 309.12 136.26 C 304.88 136.37 300.65 136.48 296.41 136.62 C 291.16 136.79 285.91 136.96 280.67 137.21 C 278.56 137.31 277.81 138.10 278.07 140.07 C 278.85 146.12 279.22 152.21 279.19 158.31 C 279.19 163.46 282.03 167.20 287.04 169.11 C 289.44 169.96 291.97 170.37 294.52 170.33 Z M 239.80 147.55 L 240.00 147.55 C 240.00 148.23 240.00 148.91 239.94 149.55 C 239.70 152.94 240.04 156.34 240.94 159.62 C 242.07 163.78 245.11 167.16 249.14 168.70 C 254.53 170.97 260.04 170.86 265.62 169.76 C 268.50 169.17 270.95 167.31 272.29 164.70 C 273.65 162.35 274.64 159.80 275.23 157.15 C 276.56 151.01 275.23 145.01 274.40 138.98 C 274.24 137.92 273.31 137.15 272.24 137.19 C 270.55 137.05 268.86 137.03 267.17 137.13 C 260.07 137.69 253.00 138.57 245.86 138.32 C 244.51 138.34 243.17 138.50 241.86 138.80 C 240.77 138.95 239.97 139.90 240.00 141.00 C 239.88 143.15 239.86 145.35 239.80 147.55 Z M 333.94 136.46 L 333.94 136.79 C 330.20 136.68 326.47 136.55 322.73 136.48 C 321.54 136.47 320.36 136.54 319.18 136.70 C 318.48 136.79 317.93 137.35 317.86 138.06 C 317.74 139.06 317.74 140.06 317.86 141.06 C 318.33 145.79 318.50 150.55 318.36 155.31 C 318.36 162.22 321.78 167.19 328.03 170.23 C 334.09 173.17 339.52 172.16 344.59 167.95 C 347.14 165.92 348.85 163.00 349.37 159.78 C 349.81 157.61 349.87 155.38 349.52 153.19 C 348.94 149.84 348.80 146.42 349.10 143.03 C 349.17 142.03 349.21 141.03 349.18 140.03 C 349.11 137.65 348.50 136.94 346.18 136.83 C 342.10 136.64 338.00 136.57 333.94 136.46 Z M 363.06 136.46 L 363.06 136.61 C 361.36 136.56 359.66 136.53 357.96 136.46 C 352.77 136.27 352.04 136.59 352.45 142.20 C 352.75 146.27 353.21 150.31 353.17 154.41 C 353.09 162.66 360.95 170.17 369.85 169.09 C 375.72 168.38 382.34 164.93 384.45 156.71 C 385.48 152.22 385.88 147.60 385.65 143.00 C 385.56 138.41 384.45 137.39 379.83 137.16 C 378.83 137.16 377.83 137.33 376.78 137.33 C 375.09 137.33 373.38 137.33 371.69 137.17 C 368.81 137.00 365.94 136.70 363.06 136.44 Z M 159.36 167.46 C 159.36 168.82 159.36 170.18 159.23 171.53 C 159.06 173.62 160.11 175.61 161.92 176.66 C 163.16 177.57 164.67 178.06 166.21 178.04 C 173.50 177.85 180.08 175.62 184.66 169.79 C 190.12 162.75 193.21 154.16 193.50 145.25 C 193.63 142.56 192.78 141.77 190.24 142.00 C 182.98 142.78 175.84 144.46 169.00 147.00 C 166.22 147.90 163.98 149.99 162.89 152.70 C 160.78 157.34 159.58 162.35 159.36 167.45 Z M 406.25 165.46 C 406.24 158.99 404.56 152.63 401.37 147.00 C 399.32 143.23 395.75 140.53 391.56 139.60 C 390.18 139.26 389.21 139.91 389.28 141.41 C 389.46 145.63 389.62 149.86 390.02 154.06 C 390.42 157.27 391.60 160.33 393.47 162.97 C 395.53 165.91 398.60 168.00 402.10 168.83 C 404.76 169.58 406.30 168.21 406.25 165.41 Z M 551.88 230.53 C 558.88 230.53 570.75 230.62 582.65 230.72 C 590.47 230.79 598.28 231.00 606.10 231.04 C 612.70 231.04 612.79 230.81 610.85 224.44 C 605.66 207.36 600.57 190.25 595.33 173.19 C 593.33 166.86 591.10 160.63 589.00 154.34 C 588.53 153.07 588.17 151.75 587.92 150.42 C 587.49 147.65 588.84 145.88 591.65 145.33 C 591.98 145.26 592.31 145.22 592.65 145.22 C 597.41 145.30 602.17 145.37 606.92 145.50 C 609.21 145.35 611.25 146.96 611.62 149.23 C 614.73 160.53 618.56 171.62 621.80 182.89 C 625.60 196.10 629.47 209.35 635.22 221.89 C 637.53 227.00 639.57 232.23 641.33 237.56 C 644.06 245.67 649.15 252.24 655.48 257.81 C 659.12 260.94 663.58 262.95 668.34 263.60 C 671.03 264.00 673.73 264.34 676.43 264.60 C 679.12 264.97 681.75 265.75 684.20 266.92 C 688.80 268.98 691.31 272.54 692.34 277.32 C 693.31 282.16 693.84 287.07 693.92 292.00 C 694.12 298.45 694.04 304.92 694.24 311.37 C 694.40 316.51 693.53 321.54 692.79 326.57 C 692.10 330.84 689.69 334.63 686.12 337.07 C 684.62 338.17 682.94 339.07 681.34 340.00 C 676.27 343.10 671.07 346.00 666.16 349.37 C 659.02 354.33 652.83 360.54 647.88 367.69 C 643.41 373.89 639.29 380.34 635.55 387.00 C 633.74 390.31 631.47 393.34 628.80 396.00 C 625.01 400.00 619.78 402.34 614.27 402.51 C 606.27 402.70 598.27 402.93 590.32 403.11 C 578.09 403.40 565.85 403.64 553.62 403.95 C 543.08 404.21 532.54 403.95 522.01 403.46 C 512.84 403.17 503.65 403.38 494.50 404.06 C 489.25 404.43 483.97 403.73 479.00 402.00 C 474.43 400.39 472.19 397.17 471.78 392.49 C 471.73 391.98 471.69 391.49 471.69 390.96 C 471.69 379.96 471.13 368.88 471.62 357.83 C 471.79 353.93 471.90 350.02 471.92 346.11 C 471.97 334.02 473.49 322.03 474.51 310.01 C 475.13 302.71 475.17 295.41 475.51 288.11 C 475.96 276.74 476.18 265.35 476.44 253.96 C 476.51 250.74 476.36 247.51 476.29 244.29 C 476.11 241.23 476.37 238.16 477.05 235.17 C 478.34 230.39 479.96 228.90 484.87 228.83 C 490.48 228.76 496.09 228.91 501.69 229.06 C 516.72 229.47 531.84 229.91 551.88 230.48 Z M 513.66 306.21 L 514.00 306.21 C 514.07 304.01 514.11 301.80 514.20 299.60 C 514.31 297.40 514.02 295.19 513.33 293.09 C 511.25 286.93 506.93 284.52 500.67 286.16 C 499.04 286.61 497.45 287.20 495.92 287.93 C 492.91 289.27 490.74 291.98 490.10 295.21 C 488.59 301.30 487.93 307.57 488.15 313.84 C 488.25 317.41 489.23 320.90 491.00 324.00 C 492.79 327.40 496.40 329.44 500.23 329.23 C 501.42 329.19 502.60 329.07 503.77 328.87 C 507.05 328.46 509.82 326.24 510.93 323.12 C 512.35 319.85 513.19 316.36 513.43 312.80 C 513.56 310.56 513.59 308.36 513.66 306.16 Z M 518.26 423.78 C 512.14 423.61 506.03 423.33 499.91 423.28 C 484.91 423.16 469.99 422.85 455.04 423.15 C 434.79 423.56 414.58 422.85 394.36 422.10 C 388.59 421.89 382.80 421.85 377.02 421.89 C 371.24 421.93 365.66 419.89 360.02 418.67 C 357.85 418.19 356.10 416.67 354.50 415.12 C 352.57 413.20 350.89 411.04 349.50 408.70 C 345.50 402.17 341.60 395.60 337.64 389.06 C 334.47 383.62 331.02 378.36 327.30 373.28 C 323.53 368.28 318.93 364.90 312.52 364.36 C 309.52 364.10 306.44 363.62 303.39 363.52 C 287.39 363.01 271.44 362.60 255.46 362.13 C 251.72 362.06 247.98 362.24 244.27 362.69 C 240.17 363.11 236.34 364.92 233.42 367.82 C 230.28 370.94 227.56 374.46 225.31 378.27 C 221.83 384.10 218.72 390.14 216.00 396.35 C 212.59 403.97 208.58 411.30 204.00 418.28 C 203.35 419.28 202.68 420.28 202.05 421.28 C 200.15 424.59 196.78 426.78 192.98 427.18 C 189.78 427.55 186.57 428.28 183.37 428.23 Q 163.22 427.90 143.09 427.14 C 138.18 426.96 133.28 426.23 128.38 425.75 C 128.04 425.75 127.70 425.66 127.38 425.59 C 120.00 424.00 118.00 418.00 119.61 411.00 C 119.90 409.97 120.86 409.27 121.93 409.32 C 123.63 409.26 125.33 409.41 127.03 409.32 C 131.09 409.14 133.22 407.37 134.20 403.37 C 134.45 402.39 134.60 401.38 134.65 400.37 C 134.83 394.76 135.11 389.16 135.08 383.55 C 135.05 377.94 132.83 375.88 127.20 376.29 C 124.84 376.59 122.45 376.59 120.09 376.29 C 117.66 375.86 116.42 374.71 116.17 372.29 C 115.66 367.22 115.01 362.14 115.29 357.03 C 115.32 356.18 115.42 355.33 115.59 354.50 C 116.24 351.36 117.59 350.26 120.90 350.23 C 124.47 350.23 128.04 350.37 131.61 350.32 C 134.16 350.32 136.69 349.97 139.24 349.90 C 151.31 349.56 164.16 337.46 167.24 325.60 C 168.75 319.49 169.61 313.23 169.80 306.94 C 169.87 305.25 169.89 303.54 170.07 301.85 C 170.25 300.16 170.94 299.37 172.59 299.13 C 174.10 298.90 175.63 298.79 177.16 298.80 C 192.47 298.88 207.73 297.50 223.02 297.20 C 231.53 297.03 240.02 296.26 248.46 295.73 C 254.74 295.34 261.04 295.29 267.32 295.18 C 277.86 295.00 288.40 294.81 298.94 294.77 C 306.59 294.77 314.23 293.91 321.88 294.51 C 331.08 295.23 340.21 294.29 349.37 293.72 C 362.25 292.93 375.14 291.72 388.08 292.63 C 390.79 292.82 393.50 293.08 396.19 293.49 C 398.19 293.79 398.68 294.49 398.98 296.49 C 399.23 298.18 399.41 299.87 399.59 301.56 C 400.26 307.65 401.83 313.56 403.12 319.56 C 405.48 330.51 418.75 342.70 432.55 343.56 C 439.69 343.99 446.85 343.20 453.72 341.22 C 456.69 340.42 459.44 338.99 461.81 337.03 C 462.59 336.37 463.42 335.77 464.18 335.09 C 466.48 333.09 467.97 333.46 468.86 336.67 C 469.14 337.83 469.17 339.04 468.93 340.21 C 468.36 343.07 468.54 345.94 468.38 348.80 C 467.97 355.94 468.52 363.06 468.38 370.19 C 468.25 377.67 468.48 385.19 468.54 392.62 C 468.51 394.66 468.81 396.68 469.44 398.62 C 470.45 401.97 473.28 404.45 476.73 405.00 C 485.94 406.71 495.16 408.15 504.59 407.30 C 507.65 407.11 510.71 407.09 513.77 407.25 C 523.46 407.50 533.15 407.41 542.83 407.52 C 548.92 407.58 555.03 407.43 561.15 408.10 C 567.75 408.83 574.39 408.94 581.01 408.44 C 583.72 408.22 586.45 408.27 589.17 408.23 C 596.47 408.13 603.79 408.23 611.09 407.91 C 620.20 407.61 628.85 403.81 635.23 397.29 C 638.74 393.78 641.34 389.57 643.93 385.37 C 645.44 382.91 646.85 380.37 648.36 377.91 C 652.37 371.18 657.56 365.22 663.69 360.33 C 666.36 358.25 668.86 355.93 671.49 353.78 C 676.57 349.53 682.15 345.91 688.11 343.00 C 690.38 341.84 692.55 340.49 694.58 338.94 C 697.24 337.03 699.05 334.16 699.65 330.94 C 701.07 324.63 701.63 318.17 701.30 311.71 C 700.87 302.71 700.60 293.71 700.23 284.71 C 700.14 282.50 700.04 280.29 699.76 278.10 C 698.70 269.91 694.25 264.43 686.48 261.60 C 682.79 260.25 678.92 259.66 675.11 258.80 C 673.61 258.46 672.11 258.15 670.63 257.80 C 661.29 255.61 654.63 250.27 650.12 241.68 C 643.59 229.16 638.00 216.18 633.38 202.84 C 629.13 190.64 625.17 178.34 621.05 166.09 C 619.80 162.39 618.35 158.76 617.15 155.04 C 616.53 153.09 616.12 151.08 615.92 149.04 C 615.62 147.10 616.76 145.23 618.61 144.59 C 620.43 143.94 622.46 144.56 623.61 146.11 C 624.25 146.90 624.80 147.76 625.25 148.67 C 625.68 149.59 626.06 150.54 626.38 151.51 C 630.14 161.90 633.84 172.32 637.66 182.69 C 642.18 194.97 646.31 207.40 651.81 219.31 C 654.17 224.42 657.45 229.04 661.51 232.94 C 666.34 237.79 672.47 241.15 679.15 242.62 C 682.55 243.34 685.15 244.80 686.74 247.95 C 688.26 250.95 690.92 252.33 694.14 252.74 C 697.14 253.12 698.44 252.25 699.53 249.41 C 699.78 248.78 699.93 248.11 700.21 247.50 C 700.90 246.04 702.21 245.59 703.55 246.67 C 706.88 249.41 710.83 250.07 714.90 250.72 C 723.52 252.08 732.20 252.03 740.90 252.11 C 757.05 252.25 773.20 251.82 789.34 252.25 C 798.99 252.51 808.74 252.31 818.34 254.25 C 821.00 254.81 823.56 255.79 825.93 257.13 C 830.93 259.87 831.83 267.83 826.93 271.41 C 826.11 272.01 825.29 272.62 824.50 273.26 C 822.31 274.94 821.00 277.51 820.91 280.26 C 820.76 282.97 820.35 285.66 820.09 288.37 C 819.67 291.41 819.79 294.50 820.47 297.49 C 821.19 300.94 824.12 303.49 827.64 303.72 C 828.99 303.88 830.37 303.81 831.71 303.99 C 835.39 304.51 837.58 306.53 838.20 310.17 C 838.44 311.85 838.51 313.55 838.41 315.25 C 838.19 323.07 837.88 330.89 837.65 338.71 C 837.35 348.56 837.09 358.42 836.79 368.28 C 836.74 373.37 836.40 378.46 835.79 383.51 C 835.60 385.90 834.09 387.99 831.87 388.91 C 830.29 389.53 828.67 390.04 827.02 390.42 C 822.79 391.68 820.53 394.83 821.02 399.22 C 821.30 401.75 821.83 404.26 822.59 406.69 C 824.17 411.64 821.15 416.36 815.45 416.47 C 812.06 416.53 808.65 416.66 805.26 416.47 C 801.18 416.20 799.62 414.66 800.00 410.58 C 800.55 404.69 798.62 399.58 796.26 394.41 C 793.55 388.49 790.33 382.95 785.70 378.28 C 784.04 376.60 782.47 374.84 781.00 373.00 C 775.17 365.78 767.67 360.92 759.13 357.63 C 751.13 354.56 743.03 352.11 734.37 352.24 C 732.37 352.24 730.30 352.47 728.28 352.69 C 724.90 353.05 721.53 353.51 718.15 353.88 C 712.19 354.36 706.44 356.30 701.40 359.51 C 698.14 361.68 694.86 363.81 691.65 366.04 C 687.42 368.94 683.92 372.78 681.42 377.25 C 677.62 384.08 673.88 390.93 671.28 398.36 C 668.89 404.95 665.01 410.89 659.95 415.73 C 654.46 421.16 647.64 423.41 640.10 423.73 C 636.70 423.86 633.30 423.62 629.90 423.59 C 619.18 423.47 608.50 424.31 597.80 424.59 C 587.27 424.87 576.73 425.34 566.19 424.69 C 562.29 424.45 558.40 424.03 554.50 423.90 C 551.61 423.81 548.72 424.14 545.84 424.12 C 536.62 424.00 527.44 423.85 518.26 423.73 Z M 400.28 407.00 L 400.28 407.35 C 405.72 407.51 411.16 407.60 416.60 407.84 C 419.99 407.99 423.37 408.55 426.76 408.58 C 430.66 408.58 434.57 408.18 438.48 408.11 C 441.87 407.90 445.23 407.28 448.48 406.27 C 452.68 405.15 454.66 402.34 454.91 398.15 C 454.98 396.96 455.04 395.77 455.00 394.58 C 454.92 391.86 454.63 389.15 454.66 386.43 C 454.78 375.87 453.24 365.43 452.79 354.88 C 452.57 349.78 453.17 348.65 446.44 350.01 C 438.21 351.56 429.73 351.05 421.75 348.50 C 416.81 347.12 412.34 344.41 408.83 340.66 C 408.02 339.78 407.15 338.97 406.29 338.15 C 400.42 332.65 396.20 325.62 394.12 317.85 C 393.20 314.58 392.61 311.23 392.37 307.85 C 392.13 304.18 391.82 303.92 388.03 303.85 C 385.31 303.77 382.59 303.79 379.87 303.85 C 370.35 304.06 360.87 304.35 351.32 304.54 C 346.05 304.64 340.73 304.14 335.53 304.76 C 325.73 305.87 315.84 306.09 306.00 305.40 C 302.10 305.07 298.19 305.05 294.29 305.33 C 285.83 306.09 277.33 306.43 268.83 306.33 C 263.55 306.33 258.29 306.33 253.03 306.69 C 246.41 307.10 239.78 307.23 233.15 307.51 C 226.02 307.81 218.90 308.32 211.77 308.42 C 203.61 308.54 195.48 309.49 187.30 309.21 C 181.44 309.01 181.38 309.08 181.16 315.00 C 181.06 320.28 180.12 325.50 178.37 330.48 C 173.20 344.48 164.31 354.78 149.63 359.30 C 148.17 359.75 146.63 360.08 145.20 360.48 C 142.25 361.26 141.65 362.01 141.31 365.01 C 141.09 367.01 141.52 368.64 143.40 369.81 C 146.15 371.34 147.77 374.32 147.56 377.46 C 147.29 385.62 147.15 393.78 146.91 401.93 C 146.80 405.43 146.28 408.77 142.75 410.66 C 142.61 410.76 142.49 410.88 142.39 411.02 C 141.30 412.13 140.94 413.75 141.44 415.22 C 141.94 416.68 143.23 417.74 144.77 417.94 C 146.28 418.16 147.81 418.28 149.34 418.29 C 159.03 418.54 168.72 418.82 178.41 418.94 C 181.63 418.94 184.86 418.63 188.08 418.40 C 190.16 418.35 192.05 417.21 193.08 415.40 C 194.08 413.80 195.32 412.40 196.20 410.75 C 202.48 399.07 209.36 387.75 214.81 375.59 C 215.98 372.95 217.32 370.39 218.81 367.92 C 224.81 357.92 233.64 352.19 245.27 351.11 C 251.19 350.56 257.15 350.45 263.10 350.26 C 265.31 350.20 267.52 350.33 269.70 350.67 C 274.58 351.38 279.51 351.77 284.44 351.83 C 293.79 352.06 303.14 352.21 312.49 352.35 C 321.58 352.49 329.01 355.83 334.24 363.49 C 337.59 368.40 341.01 373.28 344.24 378.28 C 349.33 386.33 355.15 393.90 361.62 400.89 C 364.67 404.38 369.09 406.37 373.73 406.34 C 382.61 406.33 391.44 406.70 400.28 407.00 Z M 349.00 446.74 C 347.95 457.27 344.61 467.44 339.21 476.54 C 338.79 477.28 338.30 477.98 337.85 478.70 C 337.13 480.11 335.55 480.86 334.00 480.55 C 333.34 480.44 332.67 480.40 332.00 480.43 C 330.00 480.51 328.76 481.67 329.47 483.30 C 331.41 487.78 328.87 490.30 325.92 492.82 C 316.68 500.94 305.43 506.44 293.35 508.76 C 290.77 509.26 288.35 509.46 286.35 507.16 C 286.01 506.75 285.51 506.52 284.98 506.53 C 284.44 506.54 283.95 506.80 283.63 507.22 C 281.63 510.06 278.74 509.78 275.83 509.69 C 271.77 509.45 267.75 508.78 263.83 507.69 C 263.16 507.55 262.51 507.34 261.89 507.07 C 256.84 504.67 251.80 502.26 246.78 499.80 C 245.74 499.24 244.74 498.61 243.78 497.91 C 242.70 497.28 242.27 495.94 242.78 494.80 C 243.39 492.88 244.49 491.06 244.28 488.93 C 244.29 488.59 244.14 488.26 243.87 488.04 C 243.60 487.83 243.24 487.76 242.91 487.85 C 241.03 488.24 239.57 489.49 237.91 490.39 C 235.61 491.65 235.29 491.66 233.47 489.93 C 223.86 480.68 217.07 468.89 213.90 455.93 C 213.38 454.25 214.14 452.44 215.70 451.63 C 217.42 450.47 220.00 450.16 220.41 447.49 C 219.13 445.55 216.87 445.71 215.02 445.02 C 212.36 444.02 212.02 443.71 212.02 440.51 C 211.82 429.94 214.18 419.47 218.89 410.00 C 220.44 406.78 222.25 403.70 224.31 400.78 C 225.44 399.21 226.80 398.57 228.70 399.27 C 229.49 399.57 230.31 399.81 231.14 399.98 C 232.88 400.32 233.79 399.26 233.22 397.63 C 233.17 397.47 233.10 397.32 233.05 397.16 C 232.57 395.73 231.05 394.57 231.43 392.97 C 231.85 391.03 233.65 390.02 235.04 388.82 C 243.78 381.17 254.31 375.86 265.66 373.37 C 268.37 372.78 269.57 372.37 271.02 375.51 C 271.44 376.42 271.87 377.51 273.09 377.51 C 274.60 377.51 274.98 376.22 275.32 375.11 C 275.74 373.04 277.64 371.61 279.75 371.77 C 291.54 371.46 303.20 374.24 313.57 379.85 C 314.02 380.09 314.45 380.36 314.89 380.61 C 316.16 381.22 316.85 382.63 316.55 384.01 C 316.47 384.52 316.40 385.01 316.33 385.52 C 316.16 386.69 315.76 388.00 317.05 388.74 C 318.34 389.48 319.30 388.51 320.33 387.97 C 320.93 387.65 321.49 387.26 322.09 386.97 C 322.86 386.56 323.80 386.65 324.47 387.21 C 325.16 387.70 325.83 388.23 326.47 388.79 C 338.33 399.22 346.15 413.48 348.57 429.09 C 348.65 429.59 348.75 430.09 348.81 430.60 C 349.15 431.97 348.55 433.40 347.33 434.11 C 346.60 434.53 345.89 435.00 345.21 435.51 C 343.78 436.61 343.68 438.12 345.27 438.69 C 349.46 440.15 349.37 443.00 349.00 446.74 Z M 331.49 439.55 C 331.55 437.55 331.68 435.47 331.65 433.44 C 331.59 427.82 330.34 422.27 328.00 417.16 C 323.37 407.10 315.55 399.89 307.00 393.32 C 304.65 391.64 302.19 390.11 299.64 388.76 C 297.76 387.59 295.63 386.87 293.42 386.65 C 284.06 385.96 274.78 385.95 265.57 388.33 C 259.23 389.96 253.57 392.94 247.86 396.00 C 244.23 397.95 241.14 400.76 238.86 404.19 C 231.63 415.04 228.28 426.85 229.86 439.97 C 230.85 446.69 232.49 453.29 234.77 459.69 C 236.46 464.87 239.22 469.64 242.87 473.69 C 246.70 477.79 251.03 481.38 255.76 484.40 C 267.76 492.52 280.61 494.79 294.53 490.12 C 299.10 488.59 303.02 485.86 307.15 483.54 C 311.75 480.94 315.90 477.61 319.42 473.67 C 324.83 467.67 329.02 461.00 330.31 452.74 C 331.11 448.39 331.52 443.97 331.52 439.55 Z M 768.58 384.35 C 768.50 384.78 768.45 385.21 768.43 385.64 C 768.30 386.33 768.59 387.04 769.17 387.44 C 769.75 387.84 770.51 387.87 771.12 387.51 C 771.60 387.35 772.06 387.11 772.47 386.82 C 775.22 384.55 776.19 385.22 778.63 387.41 C 790.76 398.08 798.69 412.72 801.00 428.71 C 801.33 430.83 800.90 432.34 798.88 433.33 C 797.98 433.79 797.16 434.39 796.44 435.11 C 796.18 435.34 796.04 435.69 796.07 436.04 C 796.11 436.39 796.31 436.70 796.61 436.88 C 797.59 437.54 798.63 438.13 799.70 438.63 C 801.03 439.13 801.85 440.46 801.70 441.87 C 801.01 454.33 797.18 466.41 790.57 477.00 C 789.48 478.78 788.22 479.88 786.01 479.24 C 785.68 479.16 785.35 479.12 785.01 479.12 C 782.11 479.06 780.88 480.12 781.88 482.77 C 783.26 486.41 781.63 488.47 779.20 490.67 C 769.90 499.26 758.38 505.08 745.95 507.48 C 745.61 507.54 745.27 507.57 744.95 507.63 C 742.72 508.02 740.61 508.24 738.89 506.15 C 738.51 505.66 737.93 505.38 737.31 505.38 C 736.69 505.38 736.11 505.66 735.73 506.15 C 733.85 508.45 731.43 508.48 728.81 508.36 C 724.90 508.26 721.01 507.73 717.21 506.78 C 716.22 506.56 715.24 506.25 714.30 505.86 C 708.93 503.31 703.59 500.71 698.30 498.10 C 697.55 497.71 696.83 497.26 696.14 496.76 C 695.04 496.18 694.55 494.86 695.00 493.70 C 695.59 491.93 696.15 490.14 696.59 488.33 C 696.77 487.83 696.62 487.28 696.22 486.93 C 695.83 486.58 695.26 486.51 694.79 486.75 C 693.26 487.48 691.79 488.34 690.30 489.15 C 687.95 490.42 687.63 490.45 685.83 488.74 C 676.26 479.67 669.49 468.04 666.34 455.24 C 665.60 452.31 665.85 451.86 668.40 450.24 C 669.40 449.59 670.46 449.04 671.40 448.36 C 672.08 447.90 672.88 447.36 672.66 446.36 C 672.44 445.36 671.53 445.15 670.77 444.82 C 670.14 444.56 669.49 444.37 668.83 444.24 C 664.20 443.24 664.22 442.31 664.23 438.37 C 664.21 425.18 668.10 412.28 675.40 401.30 C 675.95 400.44 676.58 399.63 677.20 398.82 C 677.92 397.83 679.20 397.42 680.36 397.82 C 682.05 398.21 683.99 400.13 685.44 398.25 C 686.60 396.75 684.83 395.12 684.10 393.65 C 683.40 392.42 683.71 390.87 684.83 390.01 C 688.31 386.50 692.19 383.43 696.40 380.85 C 702.49 377.10 709.13 374.31 716.07 372.58 C 717.23 372.29 718.40 372.10 719.57 371.88 C 720.95 371.51 722.38 372.24 722.89 373.58 C 722.96 373.74 723.04 373.89 723.13 374.03 C 723.71 375.03 723.93 376.51 725.39 376.49 C 727.15 376.49 727.39 374.81 727.73 373.57 C 728.38 371.14 730.00 370.45 732.29 370.42 C 743.91 370.26 755.38 373.03 765.65 378.48 C 768.62 380.00 769.38 380.84 768.61 384.35 Z M 783.79 438.82 C 783.86 436.62 783.98 434.41 783.97 432.20 C 783.99 425.18 782.07 418.30 778.42 412.30 C 773.54 404.21 766.83 397.71 759.30 392.08 C 756.94 390.42 754.47 388.90 751.92 387.55 C 749.88 386.30 747.59 385.52 745.21 385.28 C 736.24 384.42 727.19 385.00 718.41 387.00 C 711.86 388.58 706.06 391.74 700.20 394.78 C 697.00 396.45 694.25 398.85 692.15 401.78 C 685.77 410.70 681.99 420.52 681.88 431.65 C 681.76 442.94 685.13 453.41 689.13 463.75 C 689.65 465.00 690.32 466.18 691.13 467.26 C 697.83 476.76 707.17 484.09 718.00 488.32 C 727.66 492.13 737.60 492.55 747.37 488.61 C 756.43 484.97 764.76 479.97 771.49 472.81 C 777.26 466.67 781.54 459.62 782.81 450.99 C 783.49 446.97 783.82 442.90 783.82 438.82 Z M 193.87 268.27 C 187.76 267.89 181.62 268.16 175.56 269.08 C 173.86 269.22 172.22 269.74 170.75 270.61 C 169.53 271.27 168.72 272.50 168.59 273.88 C 168.39 279.15 168.22 284.43 169.16 289.65 C 169.51 291.54 170.46 292.27 172.38 292.19 C 173.56 292.14 174.72 291.84 175.90 291.68 C 178.23 291.23 180.60 290.94 182.97 290.82 C 190.45 290.82 197.92 290.62 205.40 290.42 C 219.84 290.02 234.26 289.00 248.72 289.18 C 249.72 289.18 250.72 289.09 251.78 289.06 C 260.27 288.77 268.78 288.40 277.26 288.24 C 282.19 288.16 287.11 288.24 292.03 287.75 C 296.26 287.35 300.51 287.00 304.75 286.94 C 314.10 286.80 323.45 286.94 332.75 286.81 C 343.12 286.69 353.49 286.45 363.85 286.27 L 364.36 286.27 C 370.63 285.66 376.95 285.87 383.17 286.87 C 386.52 287.49 389.94 287.66 393.33 287.37 C 397.40 286.92 399.56 284.90 400.10 280.96 C 400.68 276.71 399.97 272.48 399.47 268.27 C 399.32 267.03 398.36 266.05 397.12 265.88 C 395.30 265.45 393.45 265.17 391.58 265.05 C 387.51 264.94 383.42 264.93 379.35 265.05 C 373.58 265.26 367.81 265.85 362.04 265.94 C 351.67 266.10 341.30 266.19 330.94 265.94 C 319.70 265.69 308.50 266.28 297.29 266.67 C 285.91 267.06 274.54 267.83 263.16 268.16 C 252.46 268.47 241.75 268.92 231.04 268.56 C 228.49 268.46 225.94 268.50 223.39 268.68 C 216.26 269.13 209.10 269.07 201.98 268.51 C 199.30 268.44 196.58 268.44 193.87 268.27 Z M 12.87 96.27 Q 17.87 95.20 22.79 93.95 C 34.96 90.76 47.32 88.33 59.79 86.67 C 65.87 86.01 71.90 84.98 77.85 83.58 C 83.14 82.32 88.50 81.40 93.91 80.83 C 102.34 79.83 110.82 79.18 119.27 78.33 C 127.21 77.54 135.16 76.76 143.08 75.83 C 153.54 74.60 163.97 73.23 174.42 71.94 C 175.09 71.85 175.77 71.86 176.42 71.81 C 184.21 71.26 192.00 70.74 199.79 70.15 C 208.42 69.49 217.05 68.77 225.68 68.08 C 231.78 67.59 237.88 67.15 243.97 66.62 C 246.39 66.41 246.97 65.76 246.97 63.43 C 246.89 59.52 246.69 55.62 246.46 51.72 C 246.31 49.15 245.55 48.39 242.95 48.51 C 238.03 48.75 233.10 48.92 228.21 49.51 C 218.59 50.64 208.97 51.68 199.31 52.37 C 190.84 52.98 182.38 53.69 173.93 54.44 C 168.34 54.94 162.79 55.75 157.20 56.13 Q 141.69 57.20 126.25 58.91 C 116.25 60.00 106.56 62.59 96.66 64.12 C 90.79 65.03 85.01 66.51 79.18 67.67 C 68.18 69.85 57.18 71.60 46.48 75.22 C 38.00 78.07 29.13 79.84 20.46 82.26 C 16.38 83.40 12.38 84.85 8.38 86.26 C 5.70 87.08 3.72 89.37 3.31 92.14 C 2.74 95.38 4.09 96.99 8.31 96.96 C 9.22 96.83 11.09 96.65 12.91 96.26 Z M 431.64 50.53 C 426.20 50.38 420.76 50.24 415.32 50.07 C 410.40 49.91 405.47 49.66 400.54 49.57 C 398.73 49.57 397.94 50.24 397.81 51.92 C 397.58 54.80 397.46 57.69 397.44 60.57 C 397.36 61.18 397.55 61.79 397.97 62.25 C 398.38 62.70 398.98 62.95 399.59 62.92 C 401.79 63.13 404.00 63.22 406.21 63.26 C 424.05 63.65 441.89 63.55 459.69 65.38 C 472.53 66.70 485.47 67.01 498.37 67.63 C 508.37 68.11 518.37 69.12 528.37 70.09 C 535.81 70.82 543.20 72.09 550.68 72.37 C 552.68 72.45 554.74 72.79 556.77 72.96 C 565.91 73.76 575.04 74.75 584.20 75.25 C 591.84 75.67 599.46 75.98 607.09 76.65 C 616.93 77.53 626.65 79.02 636.41 80.39 C 638.76 80.72 641.15 80.81 643.52 80.92 C 645.06 80.98 646.58 80.56 647.88 79.72 C 650.49 78.09 650.50 75.09 647.77 73.60 C 646.25 72.88 644.65 72.34 643.00 72.00 C 635.42 70.00 627.58 69.48 619.86 68.27 C 607.11 66.27 594.28 64.69 581.47 63.12 C 568.98 61.60 556.47 60.68 543.88 59.90 C 540.82 59.71 537.75 59.69 534.72 59.36 C 526.78 58.51 518.89 57.36 510.94 56.60 C 501.47 55.67 492.01 54.60 482.51 54.05 C 481.33 53.98 480.13 53.90 478.96 53.73 C 468.87 52.26 458.70 51.40 448.50 51.18 C 442.89 51.10 437.28 50.88 431.67 50.72 Z M 349.20 64.27 C 360.20 64.04 371.20 63.20 382.28 63.38 C 382.95 63.39 383.62 63.37 384.28 63.30 C 386.12 63.11 386.82 62.59 386.93 60.84 C 387.11 57.63 387.19 54.40 387.16 51.18 C 387.16 49.18 386.46 48.61 384.32 48.37 C 383.66 48.30 382.99 48.26 382.32 48.26 C 366.04 47.89 349.79 46.53 333.49 46.58 C 327.89 46.58 322.28 46.58 316.68 46.68 C 307.86 46.86 299.04 47.18 290.22 47.38 C 281.74 47.57 273.22 47.69 264.77 47.85 C 264.26 47.85 263.77 47.85 263.24 47.93 C 261.81 48.10 261.05 48.86 261.17 50.28 C 261.55 54.50 262.01 58.72 262.46 62.94 C 262.48 64.19 263.47 65.21 264.72 65.25 C 265.39 65.31 266.07 65.35 266.72 65.35 C 277.07 65.35 287.43 65.35 297.72 64.40 C 299.58 64.23 301.45 64.27 303.32 64.25 C 306.20 64.25 309.10 64.35 311.97 64.17 C 319.27 63.72 326.56 63.69 333.86 63.88 C 339.00 64.00 344.12 64.38 349.20 64.27 Z M 120.80 32.56 Q 120.25 41.45 119.71 50.36 C 119.61 52.05 119.54 53.74 119.53 55.44 C 119.52 56.15 120.06 56.75 120.77 56.81 C 121.27 56.89 121.78 56.89 122.28 56.81 C 130.69 55.58 139.17 55.07 147.64 54.48 C 148.98 54.36 150.32 54.16 151.64 53.87 C 152.95 53.61 153.38 52.87 152.96 51.69 C 152.74 51.05 152.46 50.43 152.18 49.81 Q 144.18 32.19 136.18 14.56 C 135.34 12.71 134.40 10.90 133.43 9.10 C 132.78 7.91 132.07 6.75 131.29 5.64 C 130.24 3.81 128.14 2.85 126.07 3.25 C 123.80 3.60 122.01 5.35 121.60 7.61 C 121.21 9.43 120.99 11.29 120.94 13.15 C 120.70 19.60 120.55 26.05 120.37 32.50 Z M 851.88 424.06 C 851.89 425.76 852.03 427.45 852.29 429.13 C 852.25 430.55 853.21 431.80 854.59 432.13 C 855.94 432.45 857.36 432.02 858.31 431.00 C 859.52 429.79 860.35 428.26 860.72 426.59 C 861.82 422.65 862.14 418.53 861.67 414.46 C 860.92 408.46 861.47 402.56 862.04 396.66 C 862.92 387.19 863.29 377.67 863.17 368.16 C 863.17 364.43 862.87 360.70 862.78 356.96 C 862.52 345.08 863.57 333.19 862.78 321.30 C 862.75 319.28 862.48 317.26 861.98 315.30 C 861.54 313.81 860.43 312.60 858.98 312.03 C 858.21 311.63 857.31 311.59 856.50 311.91 C 855.70 312.23 855.07 312.88 854.78 313.70 C 853.99 315.60 853.65 317.65 853.78 319.70 C 854.55 330.23 853.89 340.76 853.65 351.29 C 853.48 358.93 853.23 366.57 853.07 372.02 C 852.14 390.78 852.50 407.43 851.88 424.06 Z M 850.74 318.90 C 850.74 317.04 850.74 315.17 850.57 313.31 C 850.50 312.07 849.56 311.04 848.33 310.86 C 846.94 310.71 845.61 311.47 845.04 312.75 C 844.42 314.22 844.69 315.75 844.70 317.29 C 844.70 324.58 845.18 331.89 844.41 339.15 C 843.73 345.58 843.53 352.03 843.15 358.47 C 842.98 361.18 842.90 363.91 842.55 366.59 C 842.03 370.46 841.92 374.38 842.21 378.28 C 842.49 381.67 842.37 385.08 841.87 388.44 C 841.56 390.38 840.87 392.05 838.87 392.78 C 836.87 393.51 836.12 395.16 836.04 397.17 C 836.04 398.36 835.92 399.55 835.94 400.73 C 836.09 408.73 836.74 416.67 836.43 424.67 C 836.45 426.19 836.70 427.71 837.15 429.16 C 837.40 430.38 838.40 431.30 839.63 431.45 C 843.47 431.89 847.63 430.65 848.37 425.81 C 848.46 425.15 848.51 424.48 848.53 423.81 C 848.74 418.38 849.00 412.95 849.12 407.52 C 849.51 390.38 849.29 373.23 850.29 356.11 C 850.37 355.09 850.37 354.07 850.29 353.05 C 849.66 346.26 850.07 339.47 850.38 332.69 C 850.50 328.07 850.66 323.48 850.74 318.90 Z M 872.84 372.78 C 873.06 365.14 872.99 357.48 873.57 349.87 C 874.13 342.72 873.57 335.63 873.36 328.52 C 873.21 326.32 872.92 324.12 872.48 321.96 C 872.33 320.76 871.67 319.69 870.66 319.03 C 870.03 318.56 869.22 318.44 868.48 318.69 C 867.74 318.95 867.18 319.56 866.99 320.32 C 866.74 321.64 866.61 322.98 866.60 324.32 C 866.50 330.60 866.41 336.88 866.39 343.16 C 866.39 345.88 866.85 348.62 866.56 351.29 C 865.64 359.92 865.72 368.59 865.21 377.23 C 864.62 387.05 864.85 396.92 863.58 406.71 C 863.15 410.10 863.71 413.49 864.02 416.87 C 864.09 417.54 864.28 418.20 864.56 418.82 C 865.14 420.29 866.63 421.20 868.20 421.04 C 869.58 420.76 870.05 419.66 870.37 418.48 C 870.57 417.83 870.70 417.16 870.78 416.48 C 871.08 413.10 871.46 409.72 871.57 406.33 C 871.95 395.13 872.23 383.92 872.57 372.72 Z M 132.84 385.10 C 132.73 380.33 130.68 378.31 125.94 378.31 C 123.57 378.31 121.21 378.54 118.84 378.56 C 114.43 378.56 111.48 380.75 109.84 384.71 C 108.10 388.96 107.52 393.60 108.16 398.15 C 108.46 400.33 109.33 402.40 110.67 404.15 C 111.60 405.60 113.15 406.54 114.87 406.69 C 118.25 406.87 121.63 407.11 125.00 407.08 C 126.52 407.04 128.02 406.70 129.41 406.08 C 131.41 405.22 132.80 403.48 132.41 401.27 C 131.78 398.01 132.64 394.87 132.74 391.68 C 132.72 389.49 132.87 387.29 132.83 385.10 Z M 769.55 248.85 C 770.90 248.85 772.24 248.70 773.55 248.41 C 775.01 248.12 776.91 248.06 777.28 246.31 C 777.72 244.24 775.79 243.48 774.37 242.65 C 770.64 240.59 766.58 239.21 762.37 238.55 C 751.35 236.46 740.06 236.33 728.99 238.14 C 725.15 238.76 721.33 239.54 717.53 240.39 C 715.32 240.77 713.37 242.05 712.15 243.93 C 711.76 244.50 711.65 245.21 711.84 245.86 C 712.04 246.52 712.52 247.05 713.15 247.32 C 714.56 247.91 716.09 248.17 717.62 248.08 C 726.09 247.65 734.56 248.08 743.03 248.08 C 751.94 248.37 760.75 248.64 769.55 248.85 Z M 253.18 103.67 C 255.06 103.67 256.95 103.77 258.30 102.09 C 259.68 100.54 260.30 98.46 260.00 96.41 C 259.99 96.24 259.99 96.07 260.00 95.90 C 260.00 92.68 259.86 89.45 260.00 86.24 C 260.47 76.74 259.65 67.24 259.49 57.79 C 259.42 53.72 259.08 49.66 258.95 45.60 C 258.90 43.73 258.32 41.90 257.27 40.35 C 256.58 39.23 255.39 38.52 254.08 38.45 C 252.77 38.38 251.50 38.96 250.70 40.00 C 249.57 41.30 248.94 42.95 248.92 44.67 C 248.82 47.37 248.85 50.08 248.92 52.79 C 249.03 56.01 249.35 59.22 249.43 62.43 C 249.56 68.52 249.54 74.61 249.67 80.70 C 249.73 88.50 250.93 96.25 253.23 103.70 Z M 698.71 227.59 C 698.86 222.34 699.12 217.09 699.11 211.84 C 699.10 209.30 698.81 206.77 698.24 204.29 C 697.67 201.73 694.88 200.79 692.56 202.07 C 691.51 202.64 690.70 203.57 690.26 204.68 C 689.66 206.28 689.32 207.97 689.26 209.68 C 688.40 219.97 687.59 230.27 687.57 240.61 C 687.54 242.14 687.59 243.66 687.74 245.18 C 687.93 247.25 689.21 249.06 691.10 249.93 C 693.87 251.37 695.97 250.72 697.26 247.81 C 697.98 246.08 698.35 244.23 698.36 242.36 C 698.53 237.45 698.65 232.54 698.79 227.63 Z M 395.71 48.88 C 395.78 47.53 395.71 46.17 395.49 44.83 C 395.09 43.50 393.88 42.58 392.49 42.55 C 391.07 42.45 389.82 43.49 389.64 44.90 C 389.44 46.22 389.34 47.56 389.33 48.90 C 389.23 52.97 389.27 57.04 389.07 61.10 C 388.91 64.10 388.31 67.16 388.18 70.19 C 387.83 75.45 387.80 80.73 388.08 86.00 C 388.34 89.36 388.08 92.77 388.08 96.16 C 388.08 98.16 387.98 100.24 388.92 102.16 C 389.21 102.97 389.90 103.58 390.74 103.76 C 391.78 103.90 392.81 103.41 393.34 102.50 C 393.72 101.95 394.01 101.33 394.18 100.68 C 394.65 98.71 394.91 96.70 394.96 94.68 C 394.91 87.05 394.96 79.43 395.02 71.80 C 395.08 64.17 395.37 56.50 395.72 48.88 Z M 844.25 284.68 C 844.34 281.28 844.60 277.88 844.48 274.49 C 844.56 273.37 844.17 272.27 843.42 271.44 C 842.66 270.61 841.60 270.13 840.48 270.10 C 837.81 269.82 835.57 270.98 834.70 273.29 C 834.18 274.57 833.84 275.92 833.70 277.29 C 833.34 281.69 832.94 286.10 832.88 290.51 C 832.80 296.68 836.11 301.07 840.95 304.51 C 842.23 305.39 843.85 305.64 845.34 305.18 C 846.71 304.76 847.48 303.32 847.07 301.95 C 846.84 301.31 846.53 300.71 846.13 300.16 C 844.66 298.04 843.95 295.49 844.13 292.92 C 844.13 290.20 844.27 287.48 844.35 284.76 Z M 50.62 58.44 C 50.54 61.31 50.37 64.18 50.42 67.04 C 50.42 68.78 51.37 69.52 53.06 69.28 C 56.23 68.84 59.39 68.28 62.56 67.73 C 63.22 67.62 63.90 67.53 64.56 67.37 C 67.22 66.72 67.69 65.87 66.75 63.46 C 66.58 62.98 66.38 62.52 66.14 62.07 C 63.81 57.75 61.51 53.43 59.14 49.15 C 58.65 48.27 57.97 47.52 57.14 46.94 C 56.04 46.10 54.59 45.89 53.30 46.37 C 52.01 46.86 51.06 47.98 50.79 49.33 C 50.59 50.32 50.48 51.32 50.46 52.33 C 50.37 54.33 50.34 56.33 50.28 58.41 Z M 833.16 421.61 C 833.07 414.32 833.00 407.03 832.89 399.73 C 832.91 398.55 832.81 397.36 832.57 396.20 C 832.32 395.19 831.57 394.37 830.57 394.05 C 829.58 393.73 828.49 393.95 827.70 394.63 C 826.44 395.57 825.72 397.06 825.77 398.63 C 825.69 402.02 825.54 405.43 825.77 408.80 C 826.07 412.35 826.13 415.91 825.95 419.47 C 825.81 421.84 825.81 424.22 825.87 426.59 C 825.84 428.52 827.00 430.28 828.80 430.99 C 829.64 431.46 830.66 431.47 831.51 431.02 C 832.35 430.56 832.91 429.70 832.97 428.74 C 833.22 426.39 833.15 424.00 833.22 421.63 Z M 823.89 287.16 C 823.83 289.16 823.70 291.16 823.75 293.23 C 823.77 294.41 823.96 295.57 824.32 296.69 C 824.93 298.58 826.43 299.69 827.59 299.13 C 828.92 298.53 828.75 297.24 828.77 296.08 C 828.77 295.58 828.71 295.08 828.77 294.57 C 828.95 287.84 828.52 281.02 831.77 274.76 C 832.12 274.14 831.94 273.36 831.34 272.97 C 830.89 272.76 830.38 272.76 829.93 272.97 C 826.29 274.92 823.80 277.68 823.73 282.08 C 823.73 283.76 823.64 285.45 823.59 287.08 Z M 855.39 287.52 C 857.39 287.58 859.39 287.66 861.44 287.69 C 862.13 287.73 862.78 287.39 863.15 286.81 C 864.34 284.90 863.26 282.38 861.15 282.33 C 857.79 282.25 854.42 282.41 851.06 282.50 C 850.56 282.55 850.06 282.68 849.60 282.89 C 848.47 283.33 848.28 284.30 848.30 285.36 C 848.29 285.79 848.46 286.20 848.76 286.50 C 849.07 286.80 849.48 286.96 849.91 286.94 C 851.75 287.05 853.61 287.06 855.45 287.11 Z M 855.76 289.38 C 854.06 289.33 852.37 289.24 850.68 289.25 C 849.99 289.23 849.31 289.36 848.68 289.63 C 847.91 290.04 847.46 290.87 847.56 291.74 C 847.51 292.43 847.92 293.07 848.56 293.32 C 852.33 294.30 856.23 294.66 860.12 294.39 C 861.43 294.39 862.46 292.60 862.47 290.90 C 862.47 289.90 861.64 289.43 859.73 289.33 C 858.38 289.26 857.03 289.25 855.67 289.21 Z M 861.02 280.68 C 861.71 280.66 862.31 280.21 862.52 279.55 C 862.65 279.13 862.60 278.68 862.39 278.31 C 862.17 277.93 861.81 277.65 861.39 277.55 C 857.61 276.81 853.74 276.61 849.91 276.97 C 849.21 277.04 848.68 277.64 848.70 278.34 C 848.61 278.75 848.70 279.19 848.95 279.53 C 849.21 279.87 849.60 280.08 850.02 280.10 C 851.68 280.24 853.36 280.22 854.70 280.25 C 857.00 280.54 859.00 281.00 861.00 280.68 Z M 849.27 295.74 C 848.79 295.83 848.37 296.12 848.12 296.55 C 847.87 297.20 848.08 297.94 848.64 298.35 C 850.67 300.22 853.66 300.62 856.11 299.35 C 858.20 298.35 859.52 297.08 859.01 296.40 C 858.01 295.11 856.54 295.76 855.28 295.57 C 854.95 295.52 854.61 295.57 853.46 295.51 C 852.60 295.58 850.93 295.59 849.27 295.74 Z M 850.10 273.00 C 849.84 273.17 849.67 273.45 849.64 273.76 C 849.64 274.03 849.87 274.49 850.07 274.53 C 853.16 275.28 856.33 275.69 859.51 275.78 C 859.98 275.72 860.41 275.45 860.66 275.04 C 861.05 274.32 860.53 273.70 859.97 273.37 C 858.45 272.46 856.71 272.84 854.90 272.64 C 853.40 272.79 851.70 272.31 850.10 273.00 Z M 854.97 270.78 C 855.24 270.78 855.64 270.49 855.69 270.27 C 855.69 269.95 855.54 269.65 855.29 269.46 C 853.84 268.59 852.04 268.51 850.52 269.25 C 850.39 269.30 850.30 269.47 850.22 269.61 C 850.01 269.99 850.11 270.32 850.53 270.41 C 851.34 270.60 852.15 270.72 852.92 270.86 C 853.64 270.85 854.31 270.87 855.00 270.79 Z M 490.19 306.94 C 490.13 303.89 490.38 300.84 490.92 297.84 C 492.11 291.60 497.65 287.14 504.00 287.32 C 506.96 287.21 509.70 288.86 511.00 291.51 C 512.53 294.18 513.15 297.28 512.76 300.34 C 512.18 304.87 511.84 309.44 511.76 314.01 C 511.65 316.89 511.00 319.73 509.83 322.37 C 508.83 324.77 506.68 326.49 504.12 326.94 C 498.00 328.32 492.92 325.47 490.92 319.54 C 490.23 317.43 489.92 315.22 490.00 313.00 C 490.06 311.00 490.13 309.00 490.19 306.94 Z M 506.66 304.54 L 506.58 304.54 C 506.65 302.01 506.84 299.47 506.76 296.95 C 506.79 295.36 505.71 293.96 504.17 293.57 C 502.68 293.11 501.05 293.49 499.92 294.57 C 498.67 295.74 497.89 297.32 497.72 299.02 C 497.08 303.19 496.45 307.36 495.88 311.55 C 495.72 313.24 495.94 314.95 496.51 316.55 C 497.60 320.01 500.44 320.78 503.15 318.38 C 505.12 316.48 506.30 313.90 506.44 311.17 C 506.68 308.94 506.60 306.73 506.66 304.54 Z M 405.69 404.00 C 399.44 404.00 389.75 403.90 380.07 403.82 C 376.01 403.82 372.54 401.82 369.07 400.13 C 366.13 398.75 363.52 396.76 361.40 394.29 C 357.02 389.10 352.46 384.06 348.95 378.17 C 346.52 374.09 343.95 370.05 341.33 366.10 C 335.81 357.58 327.21 351.52 317.33 349.19 C 315.69 348.78 314.02 348.52 312.33 348.44 Q 287.33 347.49 262.40 346.66 C 255.09 346.25 247.76 346.80 240.59 348.30 C 229.47 350.86 219.98 356.11 214.05 366.43 C 210.05 373.36 206.51 380.51 203.15 387.76 C 200.01 394.55 196.62 401.20 192.81 407.66 C 190.36 412.28 185.53 415.13 180.31 415.05 C 176.24 415.14 172.20 415.53 168.10 415.05 C 164.55 414.66 160.96 414.66 157.41 415.05 C 155.22 415.39 152.99 415.34 150.81 414.92 C 148.24 414.25 147.42 413.03 148.00 410.45 C 150.26 400.45 150.58 390.25 150.53 380.03 C 150.61 376.46 149.87 372.91 148.36 369.67 C 146.66 366.16 147.70 363.54 151.18 361.67 C 151.94 361.28 152.73 360.95 153.54 360.67 C 156.72 359.47 159.79 358.00 162.72 356.27 C 172.21 350.88 178.31 342.82 181.53 332.47 C 182.96 327.75 183.97 322.90 184.55 318.00 C 184.67 317.00 184.69 316.00 184.90 315.00 C 185.16 313.61 186.31 312.56 187.71 312.41 C 188.21 312.32 188.72 312.27 189.23 312.26 C 204.68 311.99 220.12 311.03 235.59 311.40 C 243.59 311.59 251.59 311.04 259.53 310.67 C 262.58 310.38 265.65 310.51 268.66 311.03 C 270.15 311.36 271.69 311.48 273.21 311.36 C 293.40 309.76 313.61 309.82 333.84 310.11 C 342.51 310.13 351.17 309.58 359.76 308.45 C 367.40 307.54 375.04 308.07 382.67 308.63 C 385.48 308.74 387.90 310.64 388.67 313.34 C 389.43 315.59 390.07 317.88 390.60 320.20 C 391.39 323.85 392.53 327.41 394.00 330.83 C 394.51 332.09 395.18 333.28 396.00 334.37 C 402.80 342.67 410.94 349.37 421.07 353.04 C 428.12 355.63 435.69 356.53 443.15 355.65 C 449.15 354.95 450.94 356.29 451.29 362.20 C 451.69 368.98 452.15 375.76 452.45 382.55 C 452.87 388.33 452.09 394.14 450.14 399.60 C 449.47 401.72 447.82 403.39 445.70 404.08 C 441.62 405.33 437.33 405.73 433.09 405.25 C 425.09 404.63 417.11 404.29 405.69 404.00 Z M 180.14 382.62 C 180.34 377.26 177.27 374.02 171.88 373.92 C 168.45 373.84 165.18 375.35 163.00 378.00 C 161.97 379.14 161.35 380.60 161.25 382.13 C 160.86 385.92 162.36 389.66 165.25 392.13 C 165.99 392.83 166.96 393.23 167.98 393.28 C 173.55 393.53 180.00 390.41 180.14 382.62 Z M 309.14 437.51 C 309.26 445.62 305.94 453.41 300.00 458.94 C 299.61 459.27 299.25 459.64 298.92 460.03 C 295.04 465.24 289.44 467.49 283.44 469.15 C 280.49 470.03 277.37 470.15 274.37 469.50 C 267.93 468.02 262.32 465.08 258.17 459.69 C 253.58 453.72 250.85 446.52 250.34 439.00 C 250.27 437.66 250.33 436.32 250.52 435.00 C 251.05 431.65 251.90 428.36 253.07 425.17 C 255.53 417.61 261.07 413.17 267.92 409.99 C 270.43 408.96 273.04 408.18 275.71 407.67 C 279.72 406.79 283.90 407.14 287.71 408.67 C 293.37 410.77 298.71 413.35 302.40 418.32 C 306.74 424.18 310.00 430.44 309.16 437.51 Z M 292.75 437.51 C 292.65 433.55 291.02 429.79 288.21 427.00 C 286.44 425.11 283.87 424.18 281.30 424.48 C 277.91 424.85 274.71 426.24 272.14 428.48 C 264.68 435.16 266.00 445.84 274.75 449.81 C 282.59 453.37 292.57 447.06 292.77 437.47 Z M 280.12 461.59 C 281.35 461.68 282.43 460.80 282.61 459.59 C 282.65 458.19 281.63 456.98 280.24 456.79 C 279.56 456.78 278.90 457.06 278.44 457.57 C 277.99 458.08 277.77 458.76 277.85 459.44 C 277.85 460.03 278.09 460.60 278.53 461.00 C 278.97 461.40 279.55 461.60 280.14 461.55 Z M 280.82 416.13 C 280.89 414.58 279.60 412.95 278.30 412.96 C 277.18 412.96 276.16 414.41 276.22 415.90 C 276.29 416.93 277.13 417.75 278.17 417.77 C 279.60 417.87 280.80 417.13 280.84 416.09 Z M 299.50 443.26 C 298.50 443.08 297.42 444.21 297.23 445.55 C 297.09 446.61 297.83 447.59 298.89 447.73 C 299.93 447.95 300.98 447.38 301.37 446.39 C 301.73 445.00 300.90 443.59 299.52 443.22 Z M 261.03 432.11 C 261.03 430.71 259.94 429.27 258.81 429.26 C 257.88 429.26 257.00 430.50 256.97 431.86 C 256.97 432.36 257.17 432.85 257.53 433.19 C 257.90 433.54 258.39 433.72 258.89 433.70 C 259.39 433.77 259.91 433.64 260.31 433.34 C 260.72 433.03 260.98 432.57 261.05 432.07 Z M 298.03 423.18 C 298.09 422.00 297.25 420.97 296.08 420.78 C 295.06 420.96 294.33 421.87 294.38 422.91 C 294.35 423.42 294.55 423.91 294.92 424.26 C 295.29 424.60 295.80 424.77 296.30 424.71 C 297.22 424.61 298.00 424.28 298.07 423.14 Z M 266.13 451.86 C 266.26 450.68 265.19 449.29 264.13 449.40 C 263.44 449.50 262.91 450.05 262.82 450.74 C 262.65 451.22 262.71 451.76 262.97 452.20 C 263.23 452.64 263.67 452.95 264.17 453.04 C 264.60 453.15 265.05 453.08 265.43 452.85 C 265.80 452.62 266.07 452.25 266.17 451.82 Z M 322.75 414.57 C 320.68 411.48 318.31 408.57 315.98 405.67 C 314.80 404.23 313.52 402.88 312.15 401.62 C 311.85 401.30 311.41 401.14 310.97 401.22 C 310.54 401.29 310.17 401.58 309.99 401.98 C 308.08 405.18 306.31 408.47 304.28 411.60 C 302.86 413.36 302.94 415.88 304.46 417.55 C 308.46 422.90 311.79 428.55 312.04 435.55 C 312.05 435.72 312.07 435.89 312.12 436.05 C 312.50 437.79 313.12 438.27 314.99 438.12 C 317.35 437.92 319.71 437.63 322.06 437.34 C 323.58 437.16 325.06 436.91 326.59 436.67 C 327.83 436.54 328.74 435.44 328.64 434.20 C 328.64 433.69 328.64 433.20 328.64 433.08 C 328.66 426.44 326.61 419.96 322.79 414.53 Z M 283.20 479.49 C 283.32 482.20 283.39 484.91 283.57 487.62 C 283.58 488.14 283.82 488.63 284.22 488.96 C 284.63 489.30 285.16 489.44 285.67 489.35 C 288.72 489.14 291.70 488.33 294.44 486.97 C 297.32 485.53 300.22 484.14 303.09 482.67 C 307.37 480.60 311.34 477.93 314.87 474.75 C 316.18 473.52 316.19 472.52 314.77 471.33 C 311.39 468.51 307.97 465.73 304.48 463.04 C 302.37 461.42 301.96 461.39 300.17 463.29 C 296.43 467.27 291.61 470.07 286.30 471.35 C 285.81 471.48 285.33 471.64 284.86 471.83 C 283.19 472.50 282.86 473.04 282.92 474.93 C 282.99 476.45 283.17 477.93 283.31 479.49 Z M 278.32 389.31 C 276.32 389.51 275.67 390.22 275.79 392.31 C 275.97 395.52 276.26 398.72 276.61 401.91 C 276.83 403.99 277.34 404.52 279.50 404.72 C 286.46 405.26 293.17 407.57 299.00 411.42 C 300.53 412.42 301.37 412.25 302.38 410.65 C 304.38 407.51 306.29 404.32 308.17 401.10 C 309.17 399.34 309.05 398.42 307.43 397.17 C 301.24 392.49 293.91 389.57 286.20 388.72 C 283.42 388.91 280.89 389.00 278.36 389.27 Z M 328.58 442.31 C 328.52 440.11 328.01 439.56 325.91 439.49 C 321.97 439.35 318.14 440.22 314.26 440.68 C 312.85 440.83 311.73 441.93 311.55 443.34 C 310.31 448.66 307.96 453.65 304.64 457.99 C 303.73 459.21 303.92 459.99 305.22 460.99 C 308.49 463.69 311.80 466.35 315.10 468.99 C 315.63 469.42 316.20 469.79 316.76 470.17 C 317.08 470.46 317.51 470.60 317.94 470.58 C 318.37 470.55 318.78 470.35 319.06 470.02 C 321.83 466.78 324.52 463.38 325.74 459.27 C 327.37 454.19 328.32 448.91 328.55 443.58 C 328.62 443.14 328.64 442.70 328.62 442.26 Z M 233.22 441.93 C 233.37 442.81 234.18 443.41 235.07 443.31 Q 240.57 442.50 246.07 441.53 C 247.25 441.32 247.62 440.33 247.72 439.26 C 247.88 437.57 247.93 435.88 248.17 434.26 C 248.84 429.56 250.24 425.00 252.33 420.74 C 253.49 418.37 253.43 418.24 251.52 416.37 C 249.10 414.01 246.65 411.67 244.13 409.42 C 241.99 407.51 241.21 407.61 239.76 409.97 C 235.36 417.16 232.53 424.85 232.51 434.14 C 232.64 436.18 232.41 439.07 233.26 441.88 Z M 273.71 391.53 C 273.71 391.10 273.52 390.69 273.20 390.40 C 272.88 390.11 272.45 389.97 272.02 390.01 C 271.18 390.03 270.33 390.12 269.50 390.26 C 262.20 391.48 255.73 394.86 249.25 398.15 C 246.96 399.31 245.10 401.16 243.93 403.45 C 243.08 405.09 243.10 405.77 244.52 407.00 C 247.33 409.43 250.20 411.81 253.07 414.18 C 255.07 415.85 255.45 415.91 257.39 414.18 C 261.40 410.49 266.18 407.76 271.39 406.18 C 271.87 406.02 272.34 405.83 272.80 405.61 C 273.62 405.32 274.18 404.57 274.23 403.70 C 274.23 403.03 274.23 402.35 274.23 402.25 C 274.09 398.24 274.00 394.86 273.75 391.48 Z M 237.00 445.31 C 234.71 445.68 234.00 446.57 234.58 448.80 C 235.50 452.41 236.60 455.97 237.90 459.46 C 240.22 465.31 243.82 470.56 248.44 474.83 C 250.30 476.60 251.09 476.58 252.58 474.75 Q 255.46 471.19 258.22 467.56 C 259.44 465.96 259.52 465.43 258.22 464.01 C 253.79 459.29 250.62 453.54 249.00 447.27 C 248.28 444.55 247.76 444.35 244.10 444.34 C 242.33 444.57 239.63 444.88 237.00 445.31 Z M 280.51 475.57 C 280.31 473.57 279.93 473.21 278.00 473.08 C 275.81 472.99 273.63 472.67 271.50 472.13 C 268.76 471.27 266.18 469.97 263.86 468.27 C 262.32 467.27 261.42 467.35 260.33 468.74 C 258.14 471.53 256.05 474.41 253.97 477.28 C 253.64 477.68 253.50 478.21 253.57 478.72 C 253.64 479.24 253.93 479.70 254.36 479.99 C 261.18 485.94 269.80 489.42 278.84 489.88 C 280.84 489.99 281.59 489.21 281.53 486.95 C 281.17 483.32 280.86 479.44 280.47 475.57 Z M 761.51 436.05 C 761.39 444.95 758.40 451.92 752.42 457.59 C 752.03 457.92 751.66 458.28 751.34 458.68 C 747.34 464.34 741.28 466.56 734.92 468.07 C 730.57 469.08 726.01 468.66 721.92 466.88 C 710.74 462.27 705.50 453.21 703.16 441.99 C 701.44 433.72 703.88 426.18 707.69 418.99 C 709.91 414.81 713.83 412.15 717.82 409.92 C 723.24 406.92 729.22 405.10 735.45 406.29 C 744.23 407.98 751.76 412.05 756.67 419.92 C 759.88 425.05 762.36 430.43 761.49 436.05 Z M 745.10 437.54 C 745.20 434.63 744.51 431.75 743.10 429.20 C 740.58 424.20 736.10 422.26 730.80 423.84 C 725.50 425.42 721.94 428.57 720.30 433.93 C 718.77 438.99 719.77 443.35 723.43 446.38 C 728.11 450.26 732.79 451.03 737.49 448.22 C 741.53 445.82 744.87 442.72 745.08 437.54 Z M 733.17 414.72 C 733.17 413.10 731.87 411.51 730.62 411.57 C 729.37 411.63 728.53 413.07 728.62 414.57 C 728.62 415.71 729.69 416.47 731.10 416.41 C 732.25 416.35 733.15 415.63 733.15 414.72 Z M 734.92 458.29 C 734.96 456.91 734.00 455.70 732.65 455.42 C 731.97 455.43 731.33 455.72 730.87 456.22 C 730.42 456.72 730.18 457.38 730.23 458.06 C 730.21 458.65 730.43 459.22 730.86 459.64 C 731.28 460.05 731.86 460.26 732.45 460.22 C 733.65 460.34 734.74 459.49 734.90 458.29 Z M 753.83 444.63 C 753.76 443.13 752.51 441.75 751.38 441.95 C 750.24 442.38 749.55 443.53 749.68 444.74 C 749.72 445.25 749.98 445.72 750.37 446.04 C 750.77 446.36 751.28 446.50 751.79 446.43 C 753.00 446.36 753.85 445.60 753.81 444.63 Z M 711.43 432.63 C 712.46 432.64 713.32 431.86 713.43 430.84 C 713.43 429.42 712.34 428.01 711.22 427.92 C 710.31 427.84 709.34 429.08 709.22 430.43 C 709.16 431.03 709.37 431.62 709.80 432.04 C 710.22 432.47 710.81 432.68 711.41 432.62 Z M 748.30 419.45 C 747.32 419.80 746.70 420.76 746.79 421.79 C 746.83 422.30 747.07 422.77 747.46 423.10 C 747.85 423.42 748.36 423.58 748.87 423.52 C 749.76 423.47 750.44 422.72 750.41 421.83 C 750.37 420.54 749.25 419.30 748.28 419.44 Z M 718.51 450.35 C 718.51 449.09 717.40 447.82 716.41 448.06 C 715.57 448.30 715.04 449.14 715.19 450.00 C 715.20 450.85 715.84 451.57 716.69 451.66 C 717.54 451.75 718.32 451.18 718.51 450.35 Z M 780.65 426.74 C 780.29 424.74 779.75 422.77 779.04 420.86 C 776.04 413.10 770.55 407.02 765.04 400.99 C 763.86 399.69 762.80 399.93 761.79 401.60 C 760.03 404.50 758.48 407.54 756.63 410.38 C 755.21 412.14 755.29 414.67 756.82 416.33 C 760.82 421.70 764.14 427.40 764.42 434.33 C 764.44 434.50 764.47 434.67 764.51 434.83 C 764.72 435.98 765.41 436.77 766.56 436.68 C 770.79 436.35 775.00 435.92 779.22 435.48 C 780.10 435.37 780.79 434.68 780.89 433.80 C 781.01 433.14 781.03 432.46 781.11 431.63 C 781.04 429.99 780.88 428.35 780.63 426.73 Z M 746.65 485.74 C 749.52 484.29 752.41 482.89 755.28 481.44 C 759.56 479.38 763.53 476.72 767.06 473.55 C 768.44 472.26 768.52 471.30 767.16 470.16 Q 761.91 465.75 756.52 461.52 C 754.77 460.16 754.27 460.18 752.66 461.93 C 749.08 465.82 744.43 468.57 739.29 469.81 C 738.47 470.02 737.68 470.33 736.88 470.59 C 735.85 470.84 735.14 471.80 735.21 472.86 C 735.38 477.08 735.56 481.31 735.82 485.53 C 735.93 487.34 736.72 487.99 739.08 487.97 C 741.72 487.66 744.29 486.92 746.68 485.77 Z M 730.55 388.00 C 728.83 388.16 728.07 389.00 728.15 390.66 C 728.31 393.87 728.59 397.08 728.90 400.28 C 729.15 402.97 729.64 403.58 732.29 403.76 C 735.84 403.98 739.34 404.70 742.69 405.90 C 745.56 406.92 748.30 408.26 750.87 409.90 C 752.87 411.23 753.64 411.06 755.01 408.90 C 756.84 406.06 758.56 403.13 760.26 400.20 C 761.60 397.88 761.50 397.14 759.26 395.54 C 752.51 390.44 744.28 387.68 735.82 387.70 C 734.61 387.79 732.57 387.79 730.55 388.00 Z M 780.91 441.57 C 780.83 438.92 780.15 438.06 777.61 438.21 C 774.07 438.43 770.55 438.94 767.02 439.38 C 765.44 439.50 764.15 440.67 763.89 442.23 C 763.38 444.72 762.55 447.14 761.40 449.41 C 760.15 451.62 758.85 453.80 757.52 455.96 C 756.08 458.30 756.08 458.55 758.03 460.17 C 760.37 462.12 762.71 464.07 765.09 465.97 C 766.41 467.03 767.79 468.02 769.16 468.97 C 769.50 469.24 769.93 469.37 770.36 469.33 C 770.79 469.28 771.19 469.07 771.46 468.73 C 774.13 465.65 776.70 462.37 777.94 458.49 C 779.51 453.83 780.49 448.99 780.85 444.08 C 780.87 443.23 780.94 442.39 780.91 441.54 Z M 685.52 440.37 C 685.82 441.46 686.41 442.25 687.64 442.08 C 691.17 441.60 694.69 441.08 698.20 440.52 C 699.27 440.39 700.06 439.48 700.05 438.41 C 700.25 431.44 702.00 424.61 705.18 418.41 C 705.60 417.64 705.45 416.68 704.81 416.07 C 701.80 412.85 698.56 409.86 695.11 407.12 C 694.77 406.85 694.33 406.75 693.91 406.83 C 693.49 406.91 693.12 407.17 692.90 407.54 C 692.68 407.79 692.47 408.07 692.29 408.35 C 687.93 415.57 684.98 423.24 684.86 431.72 C 684.93 434.63 684.73 437.52 685.52 440.34 Z M 726.12 391.37 C 725.96 389.10 725.12 388.51 722.74 388.86 C 722.40 388.86 722.07 389.01 721.74 389.06 C 714.40 390.29 707.93 393.73 701.41 397.06 C 699.12 398.24 697.28 400.14 696.17 402.47 C 695.46 403.88 695.49 404.57 696.69 405.61 C 699.52 408.05 702.38 410.47 705.27 412.83 C 707.60 414.73 707.89 414.83 710.02 412.83 C 713.90 409.24 718.53 406.55 723.58 404.97 C 726.58 404.03 726.58 403.77 726.58 400.55 C 726.45 397.45 726.32 394.39 726.12 391.34 Z M 688.89 444.17 C 687.04 444.48 686.38 445.57 686.89 447.55 C 688.89 456.08 691.89 464.15 697.99 470.69 C 703.69 476.79 702.68 476.56 707.27 470.47 C 708.18 469.25 709.19 468.10 710.11 466.88 C 711.77 464.69 711.76 464.54 710.18 462.51 C 709.34 461.44 708.49 460.39 707.65 459.32 C 705.10 456.12 703.23 452.44 702.13 448.50 C 701.86 447.50 701.58 446.50 701.24 445.58 C 700.50 443.43 700.05 443.09 697.24 443.02 C 694.94 443.29 691.90 443.62 688.89 444.14 Z M 732.80 474.35 C 732.61 472.35 732.17 471.84 730.34 471.82 C 725.21 471.85 720.22 470.18 716.14 467.07 C 714.65 465.92 713.69 466.07 712.62 467.46 C 710.53 470.13 708.49 472.84 706.53 475.61 C 705.42 477.17 705.53 477.97 706.97 479.09 C 711.41 482.56 716.12 485.61 721.63 487.09 C 724.87 488.10 728.24 488.65 731.63 488.73 C 733.17 488.73 733.80 488.04 733.81 486.55 C 733.81 486.04 733.75 485.55 733.67 484.27 C 733.43 481.42 733.16 477.87 732.80 474.32 Z" stroke-linecap="round"/>
</g>
</g>
</g>

  </svg>