<svg xmlns="http://www.w3.org/2000/svg" xmlns:xlink="http://www.w3.org/1999/xlink" width="380px" height="72px" viewBox="0 0 380.29349939579697 71.84356441338525">
    <g style="" id="f3e8f86b-a9e8-4958-b62c-69695220781f">
<g style=""><path d="M-157.35415,-4.28171l-10.08306,6.54802c-0.08693,0.05645 -0.16544,0.11972 -0.23552,0.18981l10.08306,-6.54802c0.07009,-0.07009 0.14859,-0.13336 0.23552,-0.18981zM-157.58967,-4.0919l-10.08306,6.54802c-0.36028,0.36028 -0.54042,0.94308 -0.54042,1.74841l10.08306,-6.54802c0,-0.80533 0.18014,-1.38813 0.54042,-1.74841zM-158.13009,-2.3435l-10.08306,6.54802v10.2997l10.08306,-6.54802v-10.2997zM-180.49668,-25.45331l-10.08306,6.54802c-0.08693,0.05645 -0.16544,0.11972 -0.23552,0.18981l10.08306,-6.54802c0.07009,-0.07009 0.14859,-0.13336 0.23552,-0.18981zM-180.7322,-25.2635l-10.08306,6.54802c-0.36028,0.36028 -0.54042,0.94308 -0.54042,1.74841l10.08306,-6.54802c0,-0.80533 0.18014,-1.38813 0.54042,-1.74841zM-181.27262,-23.5151l-10.08306,6.54802v41.19879l10.08306,-6.54802v-41.19879zM-181.27262,17.68369l-10.08306,6.54802c0,0.80533 0.18014,1.38813 0.54042,1.74841l10.08306,-6.54802c-0.36028,-0.36028 -0.54042,-0.94308 -0.54042,-1.74841zM-180.7322,19.43209l-10.08306,6.54802c0.36028,0.36028 0.94308,0.54042 1.74841,0.54042l10.08306,-6.54802c-0.80533,0 -1.38813,-0.18014 -1.74841,-0.54042zM-178.9838,19.97251l-10.08306,6.54802h32.36139l10.08306,-6.54802h-32.36139zM-146.6224,19.97251l-10.08306,6.54802c0.64866,0 1.15296,-0.11687 1.51288,-0.35061l10.08306,-6.54802c-0.35993,0.23374 -0.86422,0.35061 -1.51288,0.35061zM-144.874,19.43209c0.36028,-0.36028 0.54042,-0.94308 0.54042,-1.74841v-20.02719c0,-0.80533 -0.18014,-1.38813 -0.54042,-1.74841c-0.36028,-0.36028 -0.94308,-0.54042 -1.74841,-0.54042h-9.21886c-0.64866,0 -1.15296,0.11687 -1.51288,0.35061c-0.08693,0.05645 -0.16544,0.11972 -0.23552,0.18981c-0.36028,0.36028 -0.54042,0.94308 -0.54042,1.74841v10.2997h-8.71024v-31.4713c0,-0.80533 -0.18014,-1.38813 -0.54042,-1.74841c-0.36028,-0.36028 -0.94308,-0.54042 -1.74841,-0.54042h-9.85465c-0.64866,0 -1.15296,0.11687 -1.51288,0.35061c-0.08693,0.05645 -0.16544,0.11972 -0.23552,0.18981c-0.36028,0.36028 -0.54042,0.94308 -0.54042,1.74841v41.19879c0,0.80533 0.18014,1.38813 0.54042,1.74841c0.36028,0.36028 0.94308,0.54042 1.74841,0.54042h32.36139c0.64866,0 1.15296,-0.11687 1.51288,-0.35061c0.08693,-0.05645 0.16544,-0.11972 0.23552,-0.18981zM-123.6063,-23.65489l-10.08306,6.54802c-0.25786,0.16746 -0.50182,0.34121 -0.73189,0.52126l10.08306,-6.54802c0.23006,-0.18005 0.47402,-0.3538 0.73189,-0.52126zM-124.33818,-23.13363l-10.08306,6.54802c-1.4623,1.14441 -2.47956,2.51135 -3.05176,4.10081l10.08306,-6.54802c0.57221,-1.58946 1.58946,-2.95639 3.05176,-4.10081zM-127.38994,-19.03282l-10.08306,6.54802c-0.57221,1.58946 -0.85831,3.35906 -0.85831,5.30879l10.08306,-6.54802c0,-1.94974 0.2861,-3.71933 0.85831,-5.30879zM-128.24825,-13.72403l-10.08306,6.54802v21.68023l10.08306,-6.54802v-21.68023zM-128.24825,7.9562l-10.08306,6.54802c0,1.94974 0.2861,3.71933 0.85831,5.30879l10.08306,-6.54802c-0.57221,-1.58946 -0.85831,-3.35906 -0.85831,-5.30879zM-127.38994,13.26499l-10.08306,6.54802c0.57221,1.58946 1.58946,2.9458 3.05176,4.06902l10.08306,-6.54802c-1.4623,-1.12322 -2.47956,-2.47956 -3.05176,-4.06902zM-124.33818,17.33401l-10.08306,6.54802c1.4623,1.12322 3.48621,2.00272 6.07173,2.6385l10.08306,-6.54802c-2.58552,-0.63578 -4.60943,-1.51528 -6.07173,-2.6385zM-118.26645,19.97251l-10.08306,6.54802c2.58552,0.63578 5.84921,0.95368 9.79107,0.95368l10.08306,-6.54802c-3.94186,0 -7.20555,-0.31789 -9.79107,-0.95368zM-108.47538,20.92619l-10.08306,6.54802c3.94186,0 7.19495,-0.31789 9.75928,-0.95368l10.08306,-6.54802c-2.56433,0.63578 -5.81742,0.95368 -9.75928,0.95368zM-98.7161,19.97251l-10.08306,6.54802c2.19434,-0.54405 3.98519,-1.26656 5.37257,-2.16754l10.08306,-6.54802c-1.38738,0.90097 -3.17824,1.62349 -5.37257,2.16754zM-88.76608,-13.72403c0,-1.94974 -0.2861,-3.71933 -0.85831,-5.30879c-0.57221,-1.58946 -1.58946,-2.95639 -3.05176,-4.10081c-1.4623,-1.14441 -3.47562,-2.03451 -6.03995,-2.67029c-2.56433,-0.63578 -5.81742,-0.95368 -9.75928,-0.95368c-3.94186,0 -7.20555,0.31789 -9.79107,0.95368c-2.17875,0.53576 -3.9587,1.2521 -5.33985,2.14903c-0.25786,0.16746 -0.50182,0.34121 -0.73189,0.52126c-1.4623,1.14441 -2.47956,2.51135 -3.05176,4.10081c-0.57221,1.58946 -0.85831,3.35906 -0.85831,5.30879v21.68023c0,1.94974 0.2861,3.71933 0.85831,5.30879c0.57221,1.58946 1.58946,2.9458 3.05176,4.06902c1.4623,1.12322 3.48621,2.00272 6.07173,2.6385c2.58552,0.63578 5.84921,0.95368 9.79107,0.95368c3.94186,0 7.19495,-0.31789 9.75928,-0.95368c2.19434,-0.54405 3.98519,-1.26656 5.37257,-2.16754c0.23393,-0.15191 0.45639,-0.3089 0.66737,-0.47097c1.4623,-1.12322 2.47956,-2.47956 3.05176,-4.06902c0.57221,-1.58946 0.85831,-3.35906 0.85831,-5.30879zM-112.65439,-13.65965l-10.08306,6.54802c0.71877,-0.46678 2.11178,-0.70016 4.17902,-0.70016l10.08306,-6.54802c-2.06724,0 -3.46024,0.23339 -4.17902,0.70016zM-108.47538,-14.35981l-10.08306,6.54802c2.28882,0 3.75112,0.2861 4.38691,0.85831l10.08306,-6.54802c-0.63578,-0.57221 -2.09809,-0.85831 -4.38691,-0.85831zM-104.08847,-13.5015l-10.08306,6.54802c0.63578,0.57221 0.95368,1.26097 0.95368,2.0663l10.08306,-6.54802c0,-0.80533 -0.31789,-1.49409 -0.95368,-2.0663zM-103.13479,-11.43521l-10.08306,6.54802v17.10258l10.08306,-6.54802v-17.10258zM-103.13479,5.66738l-10.08306,6.54802c0,0.84771 -0.31789,1.55767 -0.95368,2.12988l10.08306,-6.54802c0.63578,-0.57221 0.95368,-1.28216 0.95368,-2.12988zM-104.08847,7.79725l-10.08306,6.54802c-0.06155,0.0554 -0.13085,0.10811 -0.20789,0.15814l10.08306,-6.54802c0.07704,-0.05003 0.14634,-0.10275 0.20789,-0.15814zM-113.81596,-11.43521c0,-0.80533 0.31789,-1.49409 0.95368,-2.0663c0.06155,-0.0554 0.13085,-0.10811 0.20789,-0.15814c0.71877,-0.46678 2.11178,-0.70016 4.17902,-0.70016c2.28882,0 3.75112,0.2861 4.38691,0.85831c0.63578,0.57221 0.95368,1.26097 0.95368,2.0663v17.10258c0,0.84771 -0.31789,1.55767 -0.95368,2.12988c-0.06155,0.0554 -0.13085,0.10811 -0.20789,0.15814c-0.71877,0.46678 -2.11178,0.70016 -4.17902,0.70016c-2.28882,0 -3.75112,-0.2861 -4.38691,-0.85831c-0.63578,-0.57221 -0.95368,-1.28216 -0.95368,-2.12988zM-57.09921,-13.40981l-10.08306,6.54802c0.2573,-0.1671 0.57358,-0.25064 0.94884,-0.25064l10.08306,-6.54802c-0.37525,0 -0.69153,0.08355 -0.94884,0.25064zM-56.15037,-13.66045l-10.08306,6.54802h14.81376l10.08306,-6.54802h-14.81376zM-41.33661,-13.66045l-10.08306,6.54802c0.64866,0 1.15296,-0.11687 1.51288,-0.35061l10.08306,-6.54802c-0.35993,0.23374 -0.86422,0.35061 -1.51288,0.35061zM-67.81412,-23.63655l-10.08306,6.54802c-0.34553,0.22439 -0.67498,0.46621 -0.98835,0.72545l10.08306,-6.54802c0.31337,-0.25924 0.64281,-0.50105 0.98835,-0.72545zM-68.80247,-22.9111l-10.08306,6.54802c-2.33121,1.92854 -3.49681,4.6942 -3.49681,8.29698l10.08306,-6.54802c0,-3.60277 1.1656,-6.36843 3.49681,-8.29698zM-72.29928,-14.61413l-10.08306,6.54802v6.67573l10.08306,-6.54802v-6.67573zM-72.29928,-7.9384l-10.08306,6.54802c0,3.56039 0.90069,6.10352 2.70208,7.62941l10.08306,-6.54802c-1.80139,-1.52588 -2.70208,-4.06902 -2.70208,-7.62941zM-69.5972,-0.30899l-10.08306,6.54802c1.80139,1.52588 4.18558,2.50075 7.15257,2.92461l10.08306,-6.54802c-2.96699,-0.42386 -5.35118,-1.39872 -7.15257,-2.92461zM-62.44463,2.61561l-10.08306,6.54802l9.53676,1.33515l10.08306,-6.54802l-9.53676,-1.33515zM-52.90788,3.95076l-10.08306,6.54802c0.55101,0.04239 0.96427,0.23312 1.23978,0.57221l10.08306,-6.54802c-0.27551,-0.33908 -0.68877,-0.52982 -1.23978,-0.57221zM-51.6681,4.52297l-10.08306,6.54802c0.27551,0.33908 0.41326,0.8689 0.41326,1.58946l10.08306,-6.54802c0,-0.72055 -0.13775,-1.25037 -0.41326,-1.58946zM-51.25484,6.11243l-10.08306,6.54802c0,0.50863 -0.13775,0.94308 -0.41326,1.30336l10.08306,-6.54802c0.27551,-0.36028 0.41326,-0.79473 0.41326,-1.30336zM-51.6681,7.41578l-10.08306,6.54802c-0.09267,0.12118 -0.20092,0.22198 -0.32476,0.30241l10.08306,-6.54802c0.12384,-0.08042 0.23209,-0.18122 0.32476,-0.30241zM-71.52334,8.30681l-10.08306,6.54802c-0.08693,0.05645 -0.16544,0.11972 -0.23552,0.18981l10.08306,-6.54802c0.07009,-0.07009 0.14859,-0.13336 0.23552,-0.18981zM-71.75887,8.49661l-10.08306,6.54802c-0.36028,0.36028 -0.54042,0.94308 -0.54042,1.74841l10.08306,-6.54802c0,-0.80533 0.18014,-1.38813 0.54042,-1.74841zM-72.29928,10.24502l-10.08306,6.54802v7.43867l10.08306,-6.54802v-7.43867zM-72.29928,17.68369l-10.08306,6.54802c0,0.80533 0.18014,1.38813 0.54042,1.74841l10.08306,-6.54802c-0.36028,-0.36028 -0.54042,-0.94308 -0.54042,-1.74841zM-71.75887,19.43209l-10.08306,6.54802c0.36028,0.36028 0.94308,0.54042 1.74841,0.54042l10.08306,-6.54802c-0.80533,0 -1.38813,-0.18014 -1.74841,-0.54042zM-70.01046,19.97251l-10.08306,6.54802h20.09077l10.08306,-6.54802h-20.09077zM-49.91969,19.97251l-10.08306,6.54802c3.53303,0 6.41898,-0.72697 8.65785,-2.18091l10.08306,-6.54802c-2.23887,1.45394 -5.12482,2.18091 -8.65785,2.18091zM-40.28757,17.07969c2.3524,-1.92854 3.5286,-4.6942 3.5286,-8.29698v-6.67573c0,-3.56039 -0.91129,-6.10352 -2.73387,-7.62941c-1.82258,-1.52588 -4.21737,-2.50075 -7.18436,-2.92461l-9.47318,-1.27157c-0.55101,-0.04239 -0.97487,-0.25431 -1.27157,-0.63578c-0.2967,-0.38147 -0.44505,-0.84771 -0.44505,-1.39872c0,-0.55101 0.14835,-1.00666 0.44505,-1.36694c0.09464,-0.11492 0.20222,-0.21151 0.32273,-0.28977c0.2573,-0.1671 0.57358,-0.25064 0.94884,-0.25064h14.81376c0.64866,0 1.15296,-0.11687 1.51288,-0.35061c0.08693,-0.05645 0.16544,-0.11972 0.23552,-0.18981c0.36028,-0.36028 0.54042,-0.94308 0.54042,-1.74841v-7.56583c0,-0.80533 -0.18014,-1.38813 -0.54042,-1.74841c-0.36028,-0.36028 -0.94308,-0.54042 -1.74841,-0.54042h-17.80195c-3.55874,0 -6.45059,0.72246 -8.67557,2.16737c-0.34553,0.22439 -0.67498,0.46621 -0.98835,0.72545c-2.33121,1.92854 -3.49681,4.6942 -3.49681,8.29698v6.67573c0,3.56039 0.90069,6.10352 2.70208,7.62941c1.80139,1.52588 4.18558,2.50075 7.15257,2.92461l9.53676,1.33515c0.55101,0.04239 0.96427,0.23312 1.23978,0.57221c0.27551,0.33908 0.41326,0.8689 0.41326,1.58946c0,0.50863 -0.13775,0.94308 -0.41326,1.30336c-0.09267,0.12118 -0.20092,0.22198 -0.32476,0.30241c-0.24434,0.15867 -0.54934,0.23801 -0.91502,0.23801h-17.10258c-0.64866,0 -1.15296,0.11687 -1.51288,0.35061c-0.08693,0.05645 -0.16544,0.11972 -0.23552,0.18981c-0.36028,0.36028 -0.54042,0.94308 -0.54042,1.74841v7.43867c0,0.80533 0.18014,1.38813 0.54042,1.74841c0.36028,0.36028 0.94308,0.54042 1.74841,0.54042h20.09077c3.53303,0 6.41898,-0.72697 8.65785,-2.18091c0.33965,-0.22057 0.66441,-0.45788 0.97428,-0.71191zM2.97751,-13.53329l-10.08306,6.54802h9.34602l10.08306,-6.54802h-9.34602zM12.32354,-13.53329l-10.08306,6.54802c0.64866,0 1.15296,-0.11687 1.51288,-0.35061l10.08306,-6.54802c-0.35993,0.23374 -0.86422,0.35061 -1.51288,0.35061zM-22.75873,-25.45331l-10.08306,6.54802c-0.08693,0.05645 -0.16544,0.11972 -0.23552,0.18981l10.08306,-6.54802c0.07009,-0.07009 0.14859,-0.13336 0.23552,-0.18981zM-22.99425,-25.2635l-10.08306,6.54802c-0.36028,0.36028 -0.54042,0.94308 -0.54042,1.74841l10.08306,-6.54802c0,-0.80533 0.18014,-1.38813 0.54042,-1.74841zM-23.53467,-23.5151l-10.08306,6.54802v7.69298l10.08306,-6.54802v-7.69298zM-23.53467,-15.82211l-10.08306,6.54802c0,0.80533 0.18014,1.38813 0.54042,1.74841l10.08306,-6.54802c-0.36028,-0.36028 -0.54042,-0.94308 -0.54042,-1.74841zM-22.99425,-14.07371l-10.08306,6.54802c0.36028,0.36028 0.94308,0.54042 1.74841,0.54042l10.08306,-6.54802c-0.80533,0 -1.38813,-0.18014 -1.74841,-0.54042zM-21.24585,-13.53329l-10.08306,6.54802h9.34602l10.08306,-6.54802h-9.34602zM-11.89983,-13.53329l-10.08306,6.54802v31.21698l10.08306,-6.54802v-31.21698zM-11.89983,17.68369l-10.08306,6.54802c0,0.80533 0.18014,1.38813 0.54042,1.74841l10.08306,-6.54802c-0.36028,-0.36028 -0.54042,-0.94308 -0.54042,-1.74841zM-11.35941,19.43209l-10.08306,6.54802c0.36028,0.36028 0.94308,0.54042 1.74841,0.54042l10.08306,-6.54802c-0.80533,0 -1.38813,-0.18014 -1.74841,-0.54042zM-9.611,19.97251l-10.08306,6.54802h10.2997l10.08306,-6.54802h-10.2997zM0.68869,19.97251l-10.08306,6.54802c0.64866,0 1.15296,-0.11687 1.51288,-0.35061l10.08306,-6.54802c-0.35993,0.23374 -0.86422,0.35061 -1.51288,0.35061zM2.4371,19.43209c0.36028,-0.36028 0.54042,-0.94308 0.54042,-1.74841v-31.21698h9.34602c0.64866,0 1.15296,-0.11687 1.51288,-0.35061c0.08693,-0.05645 0.16544,-0.11972 0.23552,-0.18981c0.36028,-0.36028 0.54042,-0.94308 0.54042,-1.74841v-7.69298c0,-0.80533 -0.18014,-1.38813 -0.54042,-1.74841c-0.36028,-0.36028 -0.94308,-0.54042 -1.74841,-0.54042h-33.56938c-0.64866,0 -1.15296,0.11687 -1.51288,0.35061c-0.08693,0.05645 -0.16544,0.11972 -0.23552,0.18981c-0.36028,0.36028 -0.54042,0.94308 -0.54042,1.74841v7.69298c0,0.80533 0.18014,1.38813 0.54042,1.74841c0.36028,0.36028 0.94308,0.54042 1.74841,0.54042h9.34602v31.21698c0,0.80533 0.18014,1.38813 0.54042,1.74841c0.36028,0.36028 0.94308,0.54042 1.74841,0.54042h10.2997c0.64866,0 1.15296,-0.11687 1.51288,-0.35061c0.08693,-0.05645 0.16544,-0.11972 0.23552,-0.18981z" fill="rgb(0, 0, 0)" stroke="rgb(0, 0, 0)" stroke-width="6.556592287046853" stroke-linejoin="round" transform="matrix(1 0 0 1 194.633974 35.921782)"/><path d="M-146.6224 19.97251L-178.9838 19.97251Q-180.19179 19.97251 -180.7322 19.43209Q-181.27262 18.89168 -181.27262 17.68369L-181.27262 -23.5151Q-181.27262 -24.72309 -180.7322 -25.2635Q-180.19179 -25.80392 -178.9838 -25.80392L-169.12915 -25.80392Q-167.92116 -25.80392 -167.38074 -25.2635Q-166.84033 -24.72309 -166.84033 -23.5151L-166.84033 7.9562L-158.13009 7.9562L-158.13009 -2.3435Q-158.13009 -3.55149 -157.58967 -4.0919Q-157.04926 -4.63232 -155.84127 -4.63232L-146.6224 -4.63232Q-145.41441 -4.63232 -144.874 -4.0919Q-144.33358 -3.55149 -144.33358 -2.3435L-144.33358 17.68369Q-144.33358 18.89168 -144.874 19.43209Q-145.41441 19.97251 -146.6224 19.97251Z" fill="rgb(246, 105, 110)" transform="matrix(1 0 0 1 194.633974 35.921782)"/><path d="M-88.76608 7.9562Q-88.76608 10.8808 -89.62439 13.26499Q-90.4827 15.64918 -92.67615 17.33401Q-94.86961 19.01884 -98.7161 19.97251Q-102.56259 20.92619 -108.47538 20.92619Q-114.38817 20.92619 -118.26645 19.97251Q-122.14473 19.01884 -124.33818 17.33401Q-126.53164 15.64918 -127.38994 13.26499Q-128.24825 10.8808 -128.24825 7.9562L-128.24825 -13.72403Q-128.24825 -16.64863 -127.38994 -19.03282Q-126.53164 -21.41701 -124.33818 -23.13363Q-122.14473 -24.85024 -118.26645 -25.80392Q-114.38817 -26.7576 -108.47538 -26.7576Q-102.56259 -26.7576 -98.7161 -25.80392Q-94.86961 -24.85024 -92.67615 -23.13363Q-90.4827 -21.41701 -89.62439 -19.03282Q-88.76608 -16.64863 -88.76608 -13.72403ZM-113.81596 5.66738Q-113.81596 6.93894 -112.86229 7.79725Q-111.90861 8.65556 -108.47538 8.65556Q-105.04215 8.65556 -104.08847 7.79725Q-103.13479 6.93894 -103.13479 5.66738L-103.13479 -11.43521Q-103.13479 -12.6432 -104.08847 -13.5015Q-105.04215 -14.35981 -108.47538 -14.35981Q-111.90861 -14.35981 -112.86229 -13.5015Q-113.81596 -12.6432 -113.81596 -11.43521Z" fill="rgb(246, 105, 110)" transform="matrix(1 0 0 1 194.633974 35.921782)"/><path d="M-49.91969 19.97251L-70.01046 19.97251Q-71.21845 19.97251 -71.75887 19.43209Q-72.29928 18.89168 -72.29928 17.68369L-72.29928 10.24502Q-72.29928 9.03703 -71.75887 8.49661Q-71.21845 7.9562 -70.01046 7.9562L-52.90788 7.9562Q-52.08136 7.9562 -51.6681 7.41578Q-51.25484 6.87537 -51.25484 6.11243Q-51.25484 5.03159 -51.6681 4.52297Q-52.08136 4.01434 -52.90788 3.95076L-62.44463 2.61561Q-66.89512 1.97983 -69.5972 -0.30899Q-72.29928 -2.59781 -72.29928 -7.9384L-72.29928 -14.61413Q-72.29928 -20.01829 -68.80247 -22.9111Q-65.30566 -25.80392 -59.13856 -25.80392L-41.33661 -25.80392Q-40.12862 -25.80392 -39.58821 -25.2635Q-39.04779 -24.72309 -39.04779 -23.5151L-39.04779 -15.94927Q-39.04779 -14.74128 -39.58821 -14.20087Q-40.12862 -13.66045 -41.33661 -13.66045L-56.15037 -13.66045Q-56.97689 -13.66045 -57.42194 -13.12003Q-57.86699 -12.57962 -57.86699 -11.7531Q-57.86699 -10.92658 -57.42194 -10.35437Q-56.97689 -9.78217 -56.15037 -9.71859L-46.6772 -8.44702Q-42.22671 -7.81124 -39.49284 -5.52242Q-36.75897 -3.2336 -36.75897 2.10699L-36.75897 8.78272Q-36.75897 14.18688 -40.28757 17.07969Q-43.81617 19.97251 -49.91969 19.97251Z" fill="rgb(246, 105, 110)" transform="matrix(1 0 0 1 194.633974 35.921782)"/><path d="M0.68869 19.97251L-9.611 19.97251Q-10.81899 19.97251 -11.35941 19.43209Q-11.89983 18.89168 -11.89983 17.68369L-11.89983 -13.53329L-21.24585 -13.53329Q-22.45384 -13.53329 -22.99425 -14.07371Q-23.53467 -14.61413 -23.53467 -15.82211L-23.53467 -23.5151Q-23.53467 -24.72309 -22.99425 -25.2635Q-22.45384 -25.80392 -21.24585 -25.80392L12.32354 -25.80392Q13.53153 -25.80392 14.07194 -25.2635Q14.61236 -24.72309 14.61236 -23.5151L14.61236 -15.82211Q14.61236 -14.61413 14.07194 -14.07371Q13.53153 -13.53329 12.32354 -13.53329L2.97751 -13.53329L2.97751 17.68369Q2.97751 18.89168 2.4371 19.43209Q1.89668 19.97251 0.68869 19.97251Z" fill="rgb(246, 105, 110)" transform="matrix(1 0 0 1 194.633974 35.921782)"/></g></g>

  </svg>