<svg xmlns="http://www.w3.org/2000/svg" xmlns:xlink="http://www.w3.org/1999/xlink" width="790px" height="359px" viewBox="0 0 790.0267053516291 358.56124843544785">
    <g id="ee37d16d-383d-4e1d-ac0a-b73eb602b7d5">
<g style="">
		<g id="ee37d16d-383d-4e1d-ac0a-b73eb602b7d5-child-0">
<path style="stroke: rgb(193,193,193); stroke-width: 0; stroke-dasharray: none; stroke-linecap: butt; stroke-dashoffset: 0; stroke-linejoin: miter; stroke-miterlimit: 4; fill: rgb(219,32,32); fill-rule: nonzero; opacity: 1;" transform="matrix(0.690936 -0.009014 0.009014 0.690936 610.83942 179.187285) matrix(1 0 0 1 0 0)  translate(-256, -256)" d="M 256.00 0.00 C 114.51 0.00 0.00 114.50 0.00 256.00 C 0.00 397.49 114.50 512.00 256.00 512.00 C 397.49 512.00 512.00 397.50 512.00 256.00 C 512.00 114.51 397.50 0.00 256.00 0.00 z M 156.95 52.75 C 149.20 73.85 142.70 95.30 137.45 117.05 C 122.11 112.39 107.02 106.80 92.20 100.29 C 110.96 80.58 132.81 64.54 156.95 52.75 z M 72.34 124.24 C 91.51 133.12 111.13 140.54 131.14 146.49 C 125.33 177.49 122.01 209.03 121.23 241.00 L 30.50 241.00 C 33.27 198.56 47.73 158.39 72.34 124.24 z M 72.34 387.76 C 47.73 353.61 33.27 313.44 30.50 271.00 L 121.23 271.00 C 122.01 302.97 125.33 334.51 131.14 365.51 C 111.13 371.46 91.51 378.88 72.34 387.76 z M 92.20 411.71 C 107.01 405.20 122.10 399.61 137.45 394.95 C 142.70 416.70 149.20 438.15 156.95 459.25 C 132.82 447.47 110.97 431.43 92.20 411.71 z M 241.00 481.50 C 225.25 480.47 209.80 477.84 194.87 473.67 C 183.00 445.55 173.53 416.72 166.47 387.31 C 190.79 381.87 215.67 378.69 241.00 377.80 L 241.00 481.50 z M 241.00 347.78 C 213.55 348.68 186.59 352.08 160.25 357.95 C 155.01 329.42 152.00 300.40 151.24 271.00 L 241.00 271.00 L 241.00 347.78 z M 241.00 241.00 L 151.24 241.00 C 152.00 211.60 155.01 182.58 160.25 154.05 C 186.59 159.92 213.55 163.32 241.00 164.22 L 241.00 241.00 z M 241.00 134.21 C 215.67 133.31 190.78 130.13 166.47 124.69 C 173.53 95.28 183.00 66.45 194.87 38.33 C 209.80 34.16 225.25 31.53 241.00 30.50 L 241.00 134.21 z M 439.66 124.24 C 464.27 158.39 478.73 198.56 481.50 241.00 L 390.77 241.00 C 389.99 209.03 386.67 177.49 380.86 146.49 C 400.87 140.54 420.49 133.12 439.66 124.24 z M 419.80 100.28 C 404.99 106.80 389.89 112.39 374.55 117.05 C 369.30 95.30 362.80 73.85 355.05 52.75 C 379.18 64.53 401.03 80.57 419.80 100.28 z M 271.00 30.50 C 286.75 31.53 302.20 34.16 317.13 38.33 C 329.00 66.45 338.47 95.28 345.53 124.69 C 321.22 130.13 296.33 133.31 271.00 134.20 L 271.00 30.50 z M 271.00 164.22 C 298.45 163.32 325.40 159.92 351.75 154.05 C 356.98 182.58 360.00 211.60 360.76 241.00 L 271.00 241.00 L 271.00 164.22 z M 317.13 473.67 C 302.20 477.84 286.75 480.47 271.00 481.50 L 271.00 377.80 C 296.33 378.69 321.22 381.87 345.53 387.31 C 338.47 416.72 329.00 445.55 317.13 473.67 z M 271.00 347.78 L 271.00 271.00 L 360.76 271.00 C 360.00 300.40 356.99 329.42 351.75 357.95 C 325.40 352.08 298.45 348.68 271.00 347.78 z M 355.05 459.25 C 362.80 438.15 369.30 416.70 374.55 394.95 C 389.89 399.61 404.99 405.20 419.80 411.71 C 401.04 431.42 379.19 447.46 355.05 459.25 z M 439.66 387.76 C 420.49 378.88 400.87 371.46 380.86 365.51 C 386.67 334.51 389.99 302.97 390.77 271.00 L 481.50 271.00 C 478.74 313.44 464.27 353.61 439.66 387.76 z" stroke-linecap="round"/>
</g>
</g>
</g>
<g id="33f7281d-5569-4880-9d76-640411a87b80">
<g style="">
		<g id="33f7281d-5569-4880-9d76-640411a87b80-child-0">
<path style="stroke: rgb(193,193,193); stroke-width: 0; stroke-dasharray: none; stroke-linecap: butt; stroke-dashoffset: 0; stroke-linejoin: miter; stroke-miterlimit: 4; fill: rgb(219,32,32); fill-rule: nonzero; opacity: 1;" transform="matrix(0.601536 -0.007848 0.007848 0.601536 186.37755 179.280626) matrix(1 0 0 1 0 0)  translate(-305.999814, -306)" d="M 3.18 201.69 L 41.49 231.63 L 5.43 300.70 C -12.59 332.55 18.38 363.58 38.11 374.38 C 57.53 385.01 87.69 386.28 115.85 385.89 L 166.56 303.00 L 204.87 323.72 L 138.39 200.54 L 3.18 201.69 z M 8.81 370.78 L 91.07 522.74 C 107.59 543.85 138.77 548.84 171.07 548.07 L 257.83 548.07 L 257.83 404.17 L 93.32 403.01 C 67.78 404.55 34.35 399.18 8.81 370.78 z M 526.31 90.73 L 481.56 109.73 L 438.62 44.70 C 419.51 13.50 377.35 25.54 358.34 37.56 C 339.63 49.40 323.90 75.16 310.58 99.98 L 358.49 184.51 L 321.80 207.97 L 461.76 209.55 L 526.31 90.73 z M 375.69 13.69 L 202.91 11.95 C 176.44 16.18 156.96 41.02 141.97 69.65 L 99.91 145.53 L 225.77 215.29 L 306.53 71.97 C 317.57 48.89 338.47 22.26 375.69 13.69 z M 383.21 600.05 L 388.29 551.70 L 465.98 545.67 C 502.54 544.08 512.44 501.37 511.14 478.92 C 509.87 456.81 494.96 430.57 479.71 406.88 L 382.54 407.81 L 379.81 364.34 L 310.58 485.99 L 383.21 600.05 z M 523.62 505.67 L 608.90 355.39 C 618.04 330.19 605.75 301.11 587.98 274.12 L 542.01 200.54 L 419.97 276.80 L 506.17 416.92 C 521.01 437.76 534.16 468.96 523.62 505.67 z" stroke-linecap="round"/>
</g>
</g>
</g>

  </svg>