<svg xmlns="http://www.w3.org/2000/svg" xmlns:xlink="http://www.w3.org/1999/xlink" width="152px" height="60px" viewBox="0 0 98.54590699999244 38.93156795361597">
    <g style="" id="73c8dee5-a5b4-4f85-8a6e-14c29a54541e">
<g style=""><path d="M-25.13326 10.75407Q-25.37442 10.78852 -25.71895 10.85743Q-26.06348 10.92633 -26.2702 10.92633Q-26.61472 10.92633 -26.9937 10.71962Q-27.33823 10.5129 -27.47604 10.25451Q-27.61385 9.99611 -27.61385 9.58268Q-27.61385 9.06589 -27.47604 8.10121Q-27.30378 7.17099 -27.30378 6.37858Q-27.30378 5.86178 -27.40713 5.20718Q-27.47604 4.8282 -27.47604 3.96689L-27.47604 2.76104Q-27.47604 1.86527 -27.51049 1.34848Q-27.54495 0.79724 -27.78611 0.21154Q-28.02728 -0.37416 -28.09619 -0.51197Q-28.44072 -1.44219 -29.09532 -1.44219Q-29.37094 -1.44219 -29.78437 -1.20102Q-30.16335 -0.95985 -30.37007 -0.73591Q-30.57678 -0.51197 -30.74905 -0.09853Q-30.85241 0.14263 -30.85241 0.83169Q-30.85241 1.07286 -30.88686 2.14089Q-30.92131 3.20893 -31.12803 5.13828Q-31.19693 5.72397 -31.02467 6.89537Q-30.88686 8.06676 -30.88686 8.79027Q-30.88686 9.75494 -31.4381 10.32341Q-31.98935 10.89188 -32.78176 10.89188Q-33.19519 10.85743 -33.43636 10.7713Q-33.67753 10.68517 -33.84979 10.37509Q-34.15987 9.78939 -34.22877 9.13479L-34.26323 8.20457Q-34.40104 5.44835 -34.40104 3.79462Q-34.40104 1.93418 -34.26323 0.52161Q-34.15987 -0.58087 -34.15987 -1.33883Q-34.15987 -1.95898 -34.19432 -2.37241Q-34.22877 -2.68249 -34.22877 -3.33709Q-34.22877 -4.19841 -34.19432 -4.64629L-34.15987 -6.09331Q-34.15987 -6.95463 -34.26323 -7.88485Q-34.43549 -9.50413 -34.43549 -10.70997Q-34.43549 -11.77801 -34.29768 -13.50064Q-34.26323 -13.84517 -34.26323 -14.32751Q-34.26323 -14.80984 -34.15987 -15.15437Q-33.9187 -16.08459 -33.28132 -16.49803Q-32.64395 -16.91146 -31.78263 -16.8081Q-31.57591 -16.77365 -31.12803 -16.77365Q-30.40452 -16.77365 -30.02554 -16.8081L-28.8197 -16.84255Q-27.88947 -16.84255 -27.23487 -16.72197Q-26.58027 -16.60139 -26.13238 -16.18795Q-25.30552 -15.42999 -24.82318 -14.68926Q-24.34084 -13.94853 -24.13413 -13.0183Q-23.89296 -11.81246 -23.89296 -9.8142Q-23.89296 -8.09156 -24.06522 -7.40251L-24.23749 -6.64455Q-24.51311 -5.3698 -24.68537 -4.87024Q-24.85763 -4.37067 -25.30552 -3.85388Q-25.71895 -3.37154 -25.71895 -2.95811Q-25.71895 -2.64804 -25.59837 -2.40687Q-25.47778 -2.1657 -25.28829 -1.9073Q-25.0988 -1.64891 -24.96099 -1.44219Q-24.13413 0.00482 -24.23749 1.83082Q-24.34084 3.69126 -24.34084 4.7593Q-24.34084 5.68952 -24.27194 6.86091Q-24.20303 8.06676 -24.23749 8.79027Q-24.23749 9.47932 -24.4442 10.09947Q-24.65092 10.71962 -25.13326 10.75407ZM-29.61211 -4.47403Q-28.8886 -4.47403 -28.44072 -4.92191Q-27.82057 -5.54206 -27.52772 -6.31725Q-27.23487 -7.09244 -27.23487 -8.16047Q-27.23487 -8.91843 -27.33823 -9.57303Q-27.33823 -9.8142 -27.38991 -10.26209Q-27.44159 -10.70997 -27.44159 -11.08895Q-27.44159 -11.36457 -27.37268 -12.05363Q-27.30378 -13.05276 -27.6483 -13.43174Q-27.88947 -13.6729 -28.37181 -13.75904Q-28.85415 -13.84517 -29.30203 -13.77626Q-29.5432 -13.74181 -29.92218 -13.74181Q-30.30116 -13.74181 -30.54233 -13.6729Q-30.7835 -13.604 -30.95576 -13.36283Q-31.19693 -13.05276 -31.12803 -12.50151Q-31.05912 -11.33012 -31.05912 -10.77888L-31.09358 -8.95288Q-31.12803 -8.43609 -31.12803 -7.40251Q-31.12803 -5.9555 -30.92131 -5.26644Q-30.81795 -4.92191 -30.68014 -4.73242Q-30.54233 -4.54294 -30.1978 -4.50848Z" fill="rgb(37, 37, 37)" transform="matrix(1 0 0 1 49.272953 19.465784)"/><path d="M-16.1411 -16.8081Q-15.86548 -16.7392 -14.93525 -16.7392Q-13.48824 -16.7392 -13.10926 -16.67029Q-12.69583 -16.56693 -12.47188 -16.11905Q-12.24794 -15.67116 -12.07568 -14.77539Q-12.04122 -14.67203 -12.04122 -14.39641Q-12.04122 -14.08634 -12.16181 -13.81072Q-12.28239 -13.53509 -12.48911 -13.39728Q-12.59247 -13.32838 -12.90254 -13.32838Q-13.28152 -13.32838 -13.41933 -13.36283Q-14.07393 -13.39728 -14.93525 -13.29392Q-16.07219 -13.15611 -16.83015 -13.22502Q-17.31249 -13.25947 -17.46753 -13.13889Q-17.62256 -13.0183 -17.62256 -12.74268Q-17.62256 -12.15699 -17.65702 -11.7091Q-17.72592 -10.4688 -17.72592 -9.60748Q-17.72592 -8.16047 -17.55366 -7.47142Q-17.51921 -7.3336 -17.46753 -6.97185Q-17.41585 -6.6101 -17.24358 -6.43783Q-17.00241 -6.26557 -16.72679 -6.21389Q-16.45117 -6.16221 -16.00329 -6.16221Q-15.72766 -6.16221 -15.52095 -6.19667Q-15.31423 -6.23112 -15.14197 -6.23112Q-14.83189 -6.23112 -14.52182 -6.09331Q-14.28065 -5.98995 -14.16007 -5.88659Q-14.03948 -5.78323 -13.90167 -5.50761Q-13.72941 -5.16308 -13.74663 -4.61184Q-13.76386 -4.0606 -13.76386 -3.92279Q-13.76386 -2.92366 -15.38314 -2.92366Q-15.58985 -2.92366 -15.83102 -2.95811Q-16.07219 -2.99256 -16.31336 -2.99256Q-16.55453 -2.99256 -16.76125 -2.92366Q-17.27804 -2.71694 -17.39862 -2.59636Q-17.51921 -2.47577 -17.51921 -2.02789Q-17.51921 -1.54555 -17.48475 -1.26993L-17.4503 -0.16744Q-17.4503 0.14263 -17.51921 0.90059Q-17.55366 1.17622 -17.55366 1.79636L-17.51921 3.58791Q-17.51921 5.34499 -17.79483 6.61974Q-17.86373 6.92982 -17.67424 7.11931Q-17.48475 7.3088 -17.10577 7.3088Q-16.83015 7.3088 -16.69234 7.27435Q-16.17555 7.17099 -15.72766 7.17099Q-15.14197 7.17099 -14.62518 7.27435Q-14.00503 7.34325 -13.69495 7.34325Q-13.21262 7.34325 -12.90254 7.51552Q-12.4202 7.82559 -12.24794 8.13566Q-12.07568 8.44574 -12.14458 9.23815Q-12.17903 9.58268 -12.3513 9.94443Q-12.52356 10.30619 -12.79918 10.54735Q-13.24707 10.96079 -14.14284 10.82298Q-14.76299 10.71962 -15.41759 10.71962Q-15.96883 10.71962 -17.07132 10.78852Q-17.93264 10.89188 -18.7595 10.89188Q-19.4141 10.89188 -19.9998 10.78852Q-20.6544 10.68517 -20.93002 10.46122Q-21.20565 10.23728 -21.17119 9.68604Q-20.93002 7.27435 -20.93002 4.93156Q-20.93002 3.89798 -20.96448 3.38119Q-21.10229 0.59052 -21.10229 -5.40425Q-21.10229 -5.81769 -21.06784 -6.38616Q-21.03338 -6.95463 -20.99893 -7.23025Q-20.96448 -7.64368 -20.93002 -8.21215Q-20.89557 -8.78062 -20.89557 -9.53858Q-20.89557 -10.08982 -20.93002 -10.76165Q-20.96448 -11.43348 -20.99893 -11.77801Q-21.10229 -12.81159 -21.10229 -13.84517Q-21.10229 -14.2586 -21.03338 -15.15437Q-20.96448 -15.87788 -20.55104 -16.29131Q-20.13761 -16.70474 -19.44856 -16.70474Q-18.72505 -16.70474 -17.69147 -16.77365Q-16.8646 -16.84255 -16.62343 -16.84255Q-16.27891 -16.84255 -16.1411 -16.8081Z" fill="rgb(37, 37, 37)" transform="matrix(1 0 0 1 49.272953 19.465784)"/><path d="M-3.32469 -12.05363Q-3.32469 -12.63932 -3.35914 -12.91494Q-3.39359 -13.25947 -3.56586 -13.38006Q-3.73812 -13.50064 -3.97929 -13.56955Q-4.22046 -13.63845 -4.32382 -13.6729Q-4.49608 -13.74181 -4.84061 -13.74181Q-5.52966 -13.74181 -5.97755 -13.15611Q-6.25317 -12.81159 -6.32207 -11.98472Q-6.39098 -11.29567 -6.39098 -9.77975Q-6.39098 -9.43522 -6.42543 -8.38441Q-6.45988 -7.3336 -6.56324 -6.40338Q-6.76996 -4.54294 -6.76996 -2.61358Q-6.76996 0.07373 -6.45988 2.45097Q-6.35653 3.34674 -6.28762 5.10383Q-6.28762 5.96514 -6.25317 6.37858Q-6.21872 6.99872 -6.04645 7.25712Q-5.87419 7.51552 -5.52966 7.51552Q-5.32294 7.51552 -4.42717 7.23989Q-4.28936 7.20544 -3.97929 7.15376Q-3.66921 7.10208 -3.5314 6.86091Q-3.35914 6.58529 -3.35914 6.20631Q-3.32469 5.89624 -3.15242 4.8282Q-2.98016 3.76017 -3.04907 2.79549Q-3.18688 1.07286 -3.39359 -0.3397Q-3.4625 -0.82204 -3.56586 -0.95985Q-3.66921 -1.09766 -3.89316 -1.16657Q-4.1171 -1.23547 -4.25491 -1.30438Q-4.63389 -1.47664 -4.82338 -1.82117Q-5.01287 -2.1657 -5.01287 -2.61358Q-5.01287 -2.8892 -4.94396 -3.25096Q-4.87506 -3.61271 -4.84061 -3.75052Q-4.7717 -4.23286 -4.49608 -4.4568Q-4.22046 -4.68075 -3.70367 -4.7152Q-2.32556 -4.7841 -1.80877 -4.7841Q-0.63738 -4.7841 -0.36175 -4.47403Q-0.15504 -4.23286 -0.15504 -3.78498L-0.18949 -3.16483Q-0.22394 -2.78585 -0.22394 -1.82117L-0.18949 1.65855Q-0.18949 3.10557 -0.2584 3.62236Q-0.29285 3.89798 -0.29285 4.41477Q-0.29285 5.00047 -0.2584 5.31054L-0.22394 6.24076Q-0.22394 7.20544 -0.36175 8.03231Q-0.46511 8.96253 -0.46511 9.34151Q-0.46511 10.03056 -0.56847 10.39232Q-0.67183 10.75407 -0.94745 10.82298Q-1.36088 10.89188 -1.49869 10.89188Q-1.87767 10.89188 -2.49782 10.68517Q-2.63563 10.61626 -2.85958 10.49568Q-3.08352 10.37509 -3.32469 10.37509Q-3.49695 10.37509 -3.60031 10.40954Q-4.97842 10.92633 -6.11536 10.92633Q-6.83886 10.92633 -7.66573 10.65071Q-8.45814 10.37509 -8.99216 9.63436Q-9.52618 8.89362 -9.66399 7.92895Q-9.83625 6.6542 -9.88793 5.36222Q-9.93961 4.07024 -9.93961 2.69214Q-9.93961 2.2098 -10.00851 1.24512Q-10.07742 -0.20189 -10.07742 -0.99431Q-10.07742 -1.85562 -9.97406 -2.78585Q-9.69844 -5.23199 -9.69844 -9.09069Q-9.69844 -11.15786 -9.59508 -13.0183Q-9.45727 -14.87875 -8.5615 -15.60226Q-8.42369 -15.70561 -8.14807 -16.05014Q-7.87245 -16.39467 -7.6485 -16.58416Q-7.42456 -16.77365 -7.14894 -16.8081Q-5.3574 -17.11818 -4.56498 -17.11818Q-3.39359 -17.11818 -2.01548 -16.56693Q-1.05081 -16.1535 -0.46511 -14.15524Q-0.01723 -12.77713 -0.01723 -11.81246L-0.05168 -10.88223Q-0.12058 -10.3999 -0.12058 -10.02092Q-0.12058 -9.64194 -0.24117 -9.52135Q-0.36175 -9.40077 -0.60292 -9.28018Q-0.84409 -9.1596 -0.9819 -9.09069Q-1.22307 -8.95288 -1.49869 -8.95288Q-1.70541 -8.95288 -2.03271 -9.02179Q-2.36001 -9.09069 -2.60118 -9.12515Q-2.98016 -9.19405 -3.1352 -9.33186Q-3.29023 -9.46967 -3.29023 -9.95201Q-3.29023 -10.19318 -3.25578 -10.53771Q-3.22133 -10.88223 -3.25578 -11.22676Z" fill="rgb(37, 37, 37)" transform="matrix(1 0 0 1 49.272953 19.465784)"/><path d="M6.83886 8.72136Q6.83886 9.2726 6.63215 9.61713Q6.56324 9.75494 6.49434 9.96166Q6.42543 10.16837 6.28762 10.30619Q5.90864 10.71962 5.59857 10.87465Q5.28849 11.02969 4.49608 11.02969Q3.97929 11.02969 3.70367 10.82298Q3.15242 10.47845 2.98016 9.99611Q2.91125 9.78939 2.73899 9.42764Q2.56673 9.06589 2.60118 8.75581Q2.60118 8.65245 2.65286 8.35961Q2.70454 8.06676 2.79067 7.86004Q2.8768 7.65333 3.04907 7.51552Q3.18688 7.41216 3.42805 7.15376Q3.66921 6.89537 3.94484 6.82646Q4.35827 6.68865 4.7028 6.68865Q5.01287 6.68865 5.23681 6.79201Q5.46076 6.89537 5.70192 7.08486Q5.94309 7.27435 6.11536 7.3777Q6.73551 7.82559 6.83886 8.51464Z" fill="rgb(37, 37, 37)" transform="matrix(1 0 0 1 49.272953 19.465784)"/><path d="M13.0059 -16.77365Q14.79744 -16.63584 15.72766 -16.63584Q17.07132 -16.63584 18.07045 -16.77365L18.48388 -16.8081Q18.93177 -16.8081 19.13848 -16.60139Q19.37965 -16.39467 19.53469 -16.03292Q19.68973 -15.67116 19.68973 -15.29218Q19.68973 -14.94765 19.51746 -14.60313Q19.17294 -13.87962 18.89731 -13.604Q18.62169 -13.32838 18.036 -13.32838Q17.20913 -13.32838 16.72679 -13.2767Q16.24446 -13.22502 16.00329 -12.88049Q15.83102 -12.60487 15.83102 -12.13976Q15.83102 -11.67465 15.83102 -11.64019Q15.83102 -11.39903 15.86548 -10.83056Q15.89993 -10.26209 15.89993 -9.19405Q15.89993 -7.78149 15.76212 -6.57565Q15.62431 -5.43871 15.62431 -4.0606Q15.62431 -2.57913 15.76212 -1.06321Q15.83102 1.21067 15.83102 2.8644Q15.83102 5.13828 15.76212 8.51464L15.72766 9.96166Q15.72766 10.47845 15.58985 10.59903Q15.45204 10.71962 14.9697 10.82298Q14.79744 10.85743 14.50459 10.90911Q14.21174 10.96079 14.03948 10.96079Q13.76386 10.96079 13.52269 10.82298Q12.93699 10.47845 12.7475 10.22005Q12.55801 9.96166 12.48911 9.37596Q12.38575 8.37683 12.38575 7.17099Q12.38575 5.31054 12.55801 3.17447Q12.59247 2.62323 12.62692 1.96863Q12.66137 1.31403 12.66137 0.55607L12.66137 -0.95985Q12.66137 -2.78585 12.62692 -3.78498L12.62692 -4.92191L12.66137 -6.81681Q12.69583 -7.40251 12.69583 -8.53945Q12.69583 -10.81333 12.24794 -12.91494Q12.24794 -12.98385 12.21349 -13.13889Q12.17903 -13.29392 12.07568 -13.3456Q11.97232 -13.39728 11.80005 -13.39728Q11.52443 -13.43174 11.00764 -13.43174Q10.86983 -13.43174 10.30136 -13.43174Q9.73289 -13.43174 9.28501 -13.56955Q9.00938 -13.70736 8.94048 -13.79349Q8.87157 -13.87962 8.80267 -14.22415Q8.69931 -14.63758 8.69931 -14.98211Q8.69931 -15.63671 9.07829 -16.11905Q9.42282 -16.56693 9.56063 -16.67029Q9.69844 -16.77365 10.11187 -16.77365Q10.49085 -16.8081 11.14545 -16.8081L12.21349 -16.8081Z" fill="rgb(37, 37, 37)" transform="matrix(1 0 0 1 49.272953 19.465784)"/><path d="M23.16945 -16.60139Q23.47953 -16.7392 23.92741 -16.7392Q24.65092 -16.7392 25.30552 -16.32576Q25.51224 -16.18795 25.58114 -15.91233Q25.65005 -15.63671 25.66727 -15.29218Q25.6845 -14.94765 25.71895 -14.70649Q26.20129 -12.26034 26.47691 -10.95114L26.61472 -10.26209Q27.30378 -7.2647 27.40713 -5.92104Q27.47604 -5.16308 27.66553 -4.49126Q27.85502 -3.81943 28.06174 -3.81943Q28.19955 -3.81943 28.28568 -4.21563Q28.37181 -4.61184 28.44072 -5.12863Q28.47517 -5.26644 28.57853 -6.0244Q28.68189 -6.78236 28.92305 -7.43696Q29.26758 -8.43609 29.45707 -9.52135Q29.64656 -10.60661 29.81882 -12.08808Q30.05999 -14.15524 30.40452 -14.8443Q30.50788 -15.05101 30.7146 -15.53335Q30.92131 -16.01569 31.17971 -16.30854Q31.4381 -16.60139 31.81708 -16.70474Q32.05825 -16.8081 32.47168 -16.8081Q33.22964 -16.8081 33.67753 -16.29131Q34.12541 -15.77452 34.05651 -15.05101Q33.9876 -14.39641 33.9876 -13.39728Q33.9876 -12.3637 34.09096 -11.33012Q34.26323 -9.02179 34.26323 -7.43696L34.26323 -6.12776Q34.26323 -5.74878 34.33213 -4.64629Q34.40104 -3.33709 34.40104 -2.44132Q34.40104 -1.89008 34.33213 -0.9254Q34.26323 -0.37416 34.26323 1.34848Q34.26323 3.38119 34.40104 5.24164Q34.50439 6.20631 34.50439 6.96427Q34.50439 8.10121 34.19432 9.65158Q34.09096 10.20283 33.9187 10.47845Q33.74643 10.75407 33.333 10.82298Q32.78176 10.92633 32.54059 10.92633Q31.85154 10.92633 31.66205 10.70239Q31.47256 10.47845 31.4381 10.09947Q31.40365 9.72049 31.3692 9.54823Q31.12803 7.54997 31.12803 6.0685Q31.12803 5.06937 31.23139 4.00134Q31.40365 2.41651 31.40365 0.3838L31.3692 -3.54381Q31.3692 -4.09505 31.40365 -4.40512L31.4381 -5.33535Q31.4381 -5.78323 31.38642 -5.98995Q31.33474 -6.19667 31.16248 -6.19667Q30.99022 -6.19667 30.92131 -5.97272Q30.85241 -5.74878 30.76627 -5.16308Q30.68014 -4.57739 30.61124 -4.23286Q30.47343 -3.30264 30.16335 -0.95985Q29.85328 1.38293 29.64656 2.55432L29.37094 3.86353Q29.09532 4.96601 28.95751 5.65507Q28.85415 6.10295 28.64743 6.27522Q28.50962 6.37858 28.26845 6.43025Q28.02728 6.48193 27.88947 6.37858Q27.44159 5.9996 27.37268 5.72397Q27.02815 4.31141 26.95925 3.38119Q26.89034 2.76104 26.75253 2.10644Q26.58027 1.45184 26.40801 0.3149Q26.37355 0.10818 26.14961 -1.16657Q25.92567 -2.44132 25.44333 -4.19841Q25.37442 -4.47403 25.3572 -4.74965Q25.33997 -5.02527 25.28829 -5.21476Q25.23661 -5.40425 25.0988 -5.40425Q24.89209 -5.40425 24.89209 -5.05973Q24.89209 -4.64629 24.99544 -3.30264Q25.0988 -2.75139 25.0988 -1.95898Q25.0988 -1.20102 24.96099 0.3838Q24.82318 1.96863 24.82318 2.79549Q24.82318 3.20893 24.89209 3.96689Q25.13326 6.17186 25.13326 9.23815Q25.13326 9.89275 24.84041 10.32341Q24.54756 10.75407 24.09967 10.82298Q23.96186 10.85743 23.68624 10.85743Q22.75602 10.85743 22.17032 10.03056Q21.99806 9.78939 21.98083 9.41041Q21.96361 9.03143 21.99806 8.48019Q22.06696 7.68778 22.06696 6.92982Q22.06696 6.61974 21.99806 6.13741Q21.86025 5.44835 21.79134 3.38119Q21.79134 1.65855 21.82579 0.48716Q21.8947 -1.85562 21.8947 -3.61271Q21.8947 -6.05885 21.75689 -8.26383Q21.72244 -8.67726 21.72244 -9.43522Q21.72244 -10.50325 21.86025 -12.43261Q21.99806 -13.87962 21.99806 -14.63758Q21.99806 -15.4989 22.20477 -15.87788Q22.41149 -16.25686 23.16945 -16.60139Z" fill="rgb(37, 37, 37)" transform="matrix(1 0 0 1 49.272953 19.465784)"/></g></g>

  </svg>