<svg xmlns="http://www.w3.org/2000/svg" xmlns:xlink="http://www.w3.org/1999/xlink" width="515px" height="60px" viewBox="0 0 371.8727650350629 43.30113547668998">
    <g id="51cc9a94-2a11-4195-a38d-aa81bfda45c2">
<g style="">
		<g id="51cc9a94-2a11-4195-a38d-aa81bfda45c2-child-0">
<path style="stroke: rgb(193,193,193); stroke-width: 0; stroke-dasharray: none; stroke-linecap: butt; stroke-dashoffset: 0; stroke-linejoin: miter; stroke-miterlimit: 4; fill: rgb(222,198,133); fill-rule: nonzero; opacity: 1;" transform="matrix(0.57107 0 0 0.57107 185.936383 21.650568) matrix(1 0 0 1 0 0)  translate(-325.614287, -37.938118)" d="M 651.06 3.31 C 650.65 1.66 649.29 0.42 647.62 0.14 C 645.95 -0.09 644.24 0.03 642.62 0.51 C 611.33 7.37 579.77 14.13 547.84 18.16 Q 536.65 19.57 525.43 20.67 C 512.69 22.00 499.88 23.00 487.06 23.94 C 474.24 24.88 461.42 25.74 448.61 26.59 C 438.26 27.28 427.90 27.89 417.53 28.20 C 401.53 28.68 385.45 27.87 369.42 29.08 C 356.47 30.08 343.42 30.30 332.42 30.42 C 299.34 30.79 266.27 30.62 233.19 30.42 C 200.11 30.22 199.30 28.58 166.12 27.09 C 155.65 26.67 116.00 21.49 107.00 21.49 C 105.69 21.51 104.44 20.96 103.56 20.00 C 101.69 17.93 99.14 16.61 96.37 16.28 C 93.70 15.88 91.00 15.69 88.37 15.51 L 85.83 15.33 C 84.14 15.23 82.47 15.72 81.11 16.72 C 78.87 18.29 76.25 18.14 73.30 17.81 L 69.23 17.36 C 62.59 16.62 55.74 15.85 49.01 15.03 C 40.38 13.91 31.70 13.27 23.00 13.12 L 19.43 13.23 C 16.55 13.32 13.66 13.42 10.78 13.47 C 8.63 13.57 6.51 13.97 4.48 14.66 C 2.68 15.15 1.21 16.44 0.50 18.16 C -0.66 21.45 0.33 25.12 3.00 27.37 C 5.70 29.54 8.82 31.11 12.17 32.00 C 17.20 33.40 22.31 34.48 27.48 35.22 L 29.82 35.60 C 29.51 36.19 29.26 36.81 29.07 37.45 C 28.02 37.88 27.11 38.61 26.47 39.55 C 25.20 41.28 24.47 43.20 22.93 44.77 C 21.69 45.89 20.56 47.13 19.56 48.47 C 18.57 49.84 18.29 51.61 18.81 53.22 C 19.45 54.76 21.48 55.73 22.90 54.85 C 20.36 56.50 18.09 60.40 16.09 62.70 C 13.88 65.11 12.03 67.83 10.62 70.78 C 10.21 71.80 10.29 72.95 10.83 73.90 C 11.36 74.86 12.31 75.52 13.39 75.70 C 14.11 75.80 14.84 75.85 15.57 75.85 C 16.06 75.85 16.56 75.82 17.05 75.76 C 18.19 75.55 19.30 75.21 20.36 74.76 L 20.50 74.71 C 28.21 71.85 34.60 66.86 41.00 61.84 C 37.52 64.58 43.53 68.22 46.00 67.91 C 49.78 67.43 54.48 63.96 57.59 61.91 C 62.42 58.72 66.80 54.89 70.59 50.52 C 72.59 48.23 73.27 44.52 76.46 43.61 C 80.54 42.46 86.38 44.07 90.58 44.43 L 106.01 45.77 C 123.70 47.31 141.38 48.27 159.07 49.77 C 193.30 52.58 224.68 53.84 257.51 54.32 C 261.35 54.38 265.20 54.42 269.04 54.44 L 284.62 54.56 L 297.06 54.56 C 299.97 54.56 302.98 54.56 306.00 54.56 L 307.00 54.56 C 315.17 54.48 323.61 54.40 331.93 54.09 C 364.71 52.87 397.52 50.71 430.30 48.80 C 440.76 48.19 451.17 47.42 461.60 46.72 C 463.80 46.58 465.96 46.31 468.14 46.10 C 474.80 45.45 481.88 44.76 488.91 43.94 C 498.24 42.85 507.62 41.66 516.36 40.54 C 548.08 36.33 579.48 30.02 610.36 21.66 C 618.55 19.48 626.66 17.08 634.79 14.66 L 635.60 14.42 C 638.05 13.70 640.60 12.96 643.08 12.13 C 645.38 11.45 647.52 10.28 649.34 8.72 C 650.87 7.37 651.53 5.29 651.06 3.31 Z" stroke-linecap="round"/>
</g>
		<g id="51cc9a94-2a11-4195-a38d-aa81bfda45c2-child-1">
<path style="stroke: rgb(193,193,193); stroke-width: 0; stroke-dasharray: none; stroke-linecap: butt; stroke-dashoffset: 0; stroke-linejoin: miter; stroke-miterlimit: 4; fill: rgb(37,37,37); fill-rule: nonzero; opacity: 1;" transform="matrix(0.57107 0 0 0.57107 185.936383 21.650568) matrix(1 0 0 1 0.051776 -0.154472)  translate(-325.666063, -37.783646)" d="M 284.67 52.51 C 267.15 52.35 251.42 52.35 235.67 52.02 C 226.00 51.82 216.34 51.14 206.67 50.65 C 205.77 50.58 204.88 50.43 204.01 50.19 C 203.79 50.13 203.60 49.97 203.51 49.75 C 203.42 49.54 203.44 49.29 203.55 49.09 C 203.92 48.27 204.34 47.47 204.79 46.69 C 206.35 44.02 206.43 40.74 205.00 38.00 C 204.35 36.64 203.69 35.28 203.13 33.87 C 202.96 33.44 203.02 32.95 203.27 32.57 C 203.53 32.19 203.96 31.95 204.42 31.94 C 206.53 31.77 208.65 31.77 210.76 31.94 C 216.78 32.54 222.84 32.78 228.89 32.65 C 263.38 32.65 297.89 32.77 332.37 32.39 C 344.75 32.26 357.16 31.97 369.53 31.04 C 375.71 30.58 381.93 30.67 388.13 30.51 C 389.78 30.51 391.51 30.09 393.07 30.44 C 394.63 30.79 394.75 32.84 395.86 33.86 C 397.19 35.09 398.57 36.27 399.86 37.54 C 402.26 39.88 402.62 41.88 401.24 44.89 C 400.86 45.71 400.37 46.48 399.91 47.26 C 399.20 48.64 397.75 49.47 396.20 49.39 C 394.54 49.39 392.87 49.52 391.20 49.57 C 381.98 49.85 372.76 50.05 363.54 50.43 C 353.00 50.90 342.47 51.62 331.89 52.00 C 323.28 52.32 314.65 52.40 306.03 52.48 C 298.32 52.57 290.60 52.51 284.67 52.51 Z M 10.78 15.51 C 8.81 15.60 6.87 15.96 5.00 16.58 C 3.80 16.89 2.83 17.75 2.36 18.89 C 1.52 21.37 2.26 24.11 4.24 25.83 C 6.75 27.79 9.64 29.21 12.73 30.00 C 17.68 31.37 22.70 32.43 27.78 33.17 C 36.29 34.48 44.78 36.02 53.29 37.17 C 57.18 37.70 61.00 38.67 64.89 39.22 Q 81.95 41.62 99.10 43.12 C 103.47 43.50 107.83 43.90 112.20 44.26 C 118.07 44.74 123.95 45.11 129.82 45.70 C 132.98 45.96 136.13 45.06 138.69 43.18 C 142.21 40.89 143.50 38.09 139.69 34.40 C 138.06 32.82 136.49 31.14 135.99 28.81 C 135.70 27.11 134.24 25.86 132.52 25.81 C 131.62 25.69 130.73 25.55 129.82 25.47 C 124.82 25.06 119.88 24.67 114.92 24.24 C 112.21 24.01 109.50 23.73 106.80 23.44 C 104.97 23.44 103.23 22.67 102.00 21.31 C 100.43 19.61 98.30 18.55 96.00 18.31 C 92.57 17.80 89.08 17.64 85.62 17.37 C 84.40 17.30 83.19 17.65 82.20 18.37 C 79.35 20.37 76.20 20.17 73.02 19.81 C 65.00 18.91 56.89 18.00 48.79 17.00 C 40.23 15.91 31.62 15.28 23.00 15.12 C 18.94 15.24 14.86 15.40 10.78 15.47 Z M 423.00 31.00 C 423.44 31.41 423.92 31.78 424.43 32.11 C 429.24 34.94 430.90 39.01 429.49 44.43 C 429.06 46.09 429.57 46.64 431.36 46.59 C 433.62 46.53 435.88 46.25 438.14 46.13 C 442.22 45.92 446.30 45.85 450.37 45.55 C 456.25 45.13 462.11 44.55 467.98 44.03 C 474.89 43.36 481.81 42.68 488.71 41.87 C 497.86 40.81 507.00 39.65 516.14 38.47 C 521.53 37.78 526.93 37.10 532.28 36.19 C 539.73 34.92 547.14 33.48 554.55 32.05 C 560.33 30.93 566.09 29.65 571.87 28.56 C 573.95 28.17 574.36 26.71 574.87 25.05 C 575.44 23.59 574.97 21.93 573.71 21.00 C 572.66 20.14 571.58 19.31 570.60 18.37 C 569.85 17.60 568.80 17.21 567.73 17.32 C 566.68 17.41 565.63 17.51 564.58 17.63 L 544.79 20.00 L 526.34 22.20 C 519.89 22.97 513.46 23.91 506.99 24.45 C 497.66 25.23 488.34 26.11 478.99 26.54 C 474.47 26.75 469.99 27.15 465.43 27.45 C 458.80 27.90 452.18 28.56 445.54 28.95 C 438.61 29.35 431.66 29.54 424.71 29.83 C 424.13 29.83 423.55 29.97 422.59 30.08 C 422.87 30.73 422.90 30.91 423.00 31.00 Z M 36.69 42.39 C 33.18 46.94 29.37 51.25 25.28 55.28 C 21.29 59.19 17.65 63.45 14.40 68.00 C 13.63 69.12 12.96 70.30 12.40 71.54 C 12.25 71.98 12.30 72.46 12.53 72.86 C 12.75 73.26 13.14 73.55 13.59 73.65 C 14.63 73.81 15.68 73.83 16.73 73.72 C 17.76 73.52 18.76 73.22 19.73 72.82 C 26.48 70.31 32.17 66.04 37.89 61.82 C 38.50 61.37 39.00 60.78 39.33 60.10 C 42.00 54.81 45.53 50.07 48.48 45.00 C 48.79 44.48 49.05 43.94 49.26 43.37 C 49.39 43.09 49.38 42.77 49.24 42.49 C 49.09 42.22 48.83 42.03 48.53 41.97 C 45.87 41.45 43.19 40.97 40.53 40.55 C 38.73 40.15 37.68 41.09 36.69 42.39 Z M 616.00 18.00 Q 625.13 15.38 634.25 12.68 C 637.00 11.87 639.76 11.08 642.48 10.17 C 644.52 9.58 646.41 8.55 648.02 7.17 C 648.94 6.32 649.65 5.32 649.15 3.98 C 648.74 2.62 647.46 1.72 646.05 1.79 C 644.84 1.74 643.64 1.83 642.45 2.06 C 637.45 3.23 632.45 4.32 627.52 5.78 C 621.73 7.50 615.91 9.02 609.99 10.21 C 608.55 10.39 607.15 10.81 605.84 11.45 C 608.84 13.37 609.94 16.17 611.01 19.18 C 612.84 18.78 614.46 18.46 616.00 18.00 Z M 46.80 65.42 C 47.80 65.07 48.78 64.66 49.72 64.18 C 52.16 62.99 54.49 61.56 56.65 59.92 C 61.49 56.30 66.12 52.41 70.52 48.26 C 71.34 47.50 72.82 46.83 72.28 45.44 C 71.85 44.33 70.45 44.67 69.43 44.55 C 67.43 44.32 65.53 44.12 63.58 43.87 C 61.04 43.55 58.50 43.17 55.96 42.87 C 54.70 42.71 53.56 42.87 52.96 44.22 C 50.42 49.37 47.53 54.33 44.30 59.07 C 43.42 60.48 42.79 62.04 42.46 63.67 C 42.19 64.88 42.91 65.75 44.61 65.81 C 45.35 65.74 46.08 65.61 46.80 65.42 Z M 180.80 49.31 C 183.42 49.44 184.69 48.31 185.05 45.69 C 185.53 43.30 185.08 40.81 183.79 38.74 C 182.72 37.10 182.00 35.25 181.68 33.31 C 181.50 32.31 182.28 30.99 181.12 30.41 C 180.12 30.08 179.06 29.94 178.00 30.00 C 175.60 29.83 173.19 29.66 170.78 29.56 C 168.78 29.48 167.78 30.86 168.47 32.76 C 168.77 33.45 169.15 34.09 169.61 34.68 C 170.22 35.54 170.95 36.32 171.54 37.19 C 173.22 39.44 173.27 42.51 171.67 44.82 C 171.03 45.82 170.23 46.74 169.04 48.32 C 173.34 48.69 177.05 49.12 180.77 49.31 Z M 189.33 30.78 C 188.57 30.74 187.82 30.74 187.06 30.78 C 185.63 30.89 185.06 31.90 185.42 33.34 C 185.81 34.48 186.42 35.54 187.22 36.45 C 188.78 38.52 189.55 41.08 189.41 43.67 C 189.34 44.88 189.29 46.09 189.24 47.29 C 189.15 49.15 189.34 49.47 191.04 49.71 C 192.74 49.95 194.34 50.09 196.04 50.17 C 196.64 50.20 197.24 50.04 197.75 49.72 C 200.33 48.01 202.21 42.65 201.24 39.57 C 200.60 37.57 199.64 35.66 199.51 33.50 C 199.43 32.26 198.60 31.70 197.51 31.38 C 195.75 30.99 193.96 30.83 192.16 30.90 C 190.50 30.85 189.90 30.79 189.30 30.78 Z M 150.00 46.90 C 151.97 46.84 153.78 45.78 154.79 44.08 C 155.80 42.39 155.88 40.30 155.00 38.53 C 153.50 35.70 152.16 32.91 152.08 29.61 C 152.08 28.18 151.27 27.56 149.70 27.41 C 146.70 27.12 143.70 26.90 140.70 26.68 C 140.40 26.66 140.10 26.79 139.92 27.03 C 139.73 27.27 139.68 27.59 139.77 27.88 C 139.90 28.31 140.10 28.72 140.35 29.09 C 141.45 30.33 142.66 31.47 143.73 32.73 C 146.53 35.90 146.75 40.59 144.26 44.00 C 143.75 44.73 143.13 45.37 142.12 46.57 C 145.18 46.70 147.59 47.00 150.00 46.90 Z M 155.85 31.34 C 156.13 32.19 156.50 33.02 156.95 33.80 C 157.59 34.98 158.36 36.10 158.95 37.29 C 160.22 39.39 160.32 42.00 159.21 44.19 C 158.94 44.72 158.63 45.24 158.39 45.79 C 157.91 46.90 158.26 47.55 159.39 47.67 C 162.51 48.02 166.98 45.67 168.39 42.82 C 168.98 41.74 168.94 40.42 168.30 39.37 C 167.72 38.49 167.09 37.65 166.40 36.86 C 165.26 35.46 164.56 33.75 164.40 31.95 C 164.32 31.09 164.87 29.95 163.97 29.44 C 163.16 29.08 162.30 28.85 161.42 28.78 C 160.42 28.59 159.34 28.45 158.30 28.30 C 156.16 28.15 155.22 29.27 155.84 31.34 Z M 412.79 32.55 C 416.11 34.83 417.83 38.81 417.22 42.79 C 417.19 43.54 417.09 44.29 416.92 45.02 C 416.22 47.24 417.24 47.67 419.25 47.49 C 420.29 47.38 421.33 47.16 422.33 46.85 C 422.75 46.70 423.12 46.43 423.39 46.07 C 425.24 43.23 425.04 39.51 422.89 36.89 C 421.40 35.40 420.02 33.81 418.75 32.13 C 417.94 30.65 416.32 29.81 414.65 30.00 C 413.46 30.07 412.27 30.00 410.70 30.00 C 411.03 31.09 411.78 32.01 412.78 32.55 Z M 401.62 32.90 C 406.54 36.90 407.48 39.90 405.68 45.95 C 405.50 46.52 405.38 47.10 405.33 47.69 C 405.37 47.98 405.55 48.22 405.81 48.35 C 406.86 48.78 408.04 48.75 409.07 48.28 C 410.10 47.80 410.89 46.92 411.24 45.84 C 411.61 44.87 411.88 43.86 412.06 42.84 C 412.66 40.43 411.86 37.89 410.00 36.25 C 408.54 34.94 407.35 33.34 406.52 31.56 C 406.10 30.55 405.09 29.92 404.00 30.00 C 402.39 30.00 400.79 30.10 399.10 30.16 C 399.39 31.91 400.74 32.19 401.61 32.90 Z M 588.82 19.40 C 587.45 18.22 586.07 17.05 584.63 15.96 C 584.16 15.61 583.59 15.42 583.00 15.40 C 581.35 15.30 579.68 15.45 578.08 15.87 C 577.37 16.10 577.08 16.72 577.68 17.21 C 579.69 18.85 580.81 21.34 580.68 23.93 C 580.61 26.34 580.91 26.46 583.35 26.02 C 584.97 25.72 586.57 25.30 588.19 24.95 C 588.73 24.89 589.21 24.61 589.54 24.18 C 589.87 23.75 590.01 23.20 589.93 22.67 C 590.10 21.46 589.69 20.25 588.81 19.40 Z M 595.31 19.17 C 595.72 20.38 595.44 22.07 596.90 22.68 C 598.36 23.29 599.50 22.25 600.83 22.10 C 601.72 21.95 602.58 21.71 603.42 21.39 C 604.90 20.89 605.32 20.14 604.63 18.66 C 603.05 15.24 599.80 11.40 594.83 12.96 C 593.83 13.27 592.83 13.52 591.05 13.96 C 593.13 15.68 594.59 17.09 595.30 19.17 Z M 28.08 40.70 C 26.08 43.37 24.08 45.98 22.17 48.70 C 21.51 49.70 20.97 50.78 20.56 51.90 C 20.46 52.32 20.56 52.77 20.84 53.11 C 21.15 53.48 21.69 53.28 22.02 52.98 C 23.79 51.35 25.60 49.76 27.27 47.98 C 29.34 45.82 31.32 43.55 33.27 41.26 C 33.56 40.91 33.64 40.43 33.46 40.01 C 33.29 39.59 32.89 39.30 32.44 39.26 C 31.99 39.18 31.54 39.15 31.10 39.10 C 29.87 39.01 28.70 39.63 28.08 40.70 Z" stroke-linecap="round"/>
</g>
</g>
</g>

  </svg>