<svg xmlns="http://www.w3.org/2000/svg" xmlns:xlink="http://www.w3.org/1999/xlink" width="198px" height="119px" viewBox="0 0 198.402437458426 119.26535411598972">
    <g style="" id="a1247a84-658d-4c28-ab44-3e5c620b8b2f">
<g style=""><path d="M-70.53364 29.97385Q-73.03023 30.34872 -74.53664 29.73627Q-76.04304 29.12383 -77.65744 27.09731Q-79.34665 24.91561 -81.51603 20.41559Q-82.26409 18.86385 -83.05832 16.9519Q-84.17485 14.23915 -85.67097 11.13568L-88.76481 4.85023Q-89.58768 3.14332 -90.43177 1.12792Q-90.77901 0.2754 -91.57695 -1.37979Q-92.74891 -3.81084 -93.09059 -5.04852Q-93.89863 -7.7825 -92.10663 -10.94122Q-91.28914 -12.41898 -88.70292 -13.66575Q-86.58222 -14.6881 -83.31903 -14.79508Q-82.06012 -14.82827 -80.95504 -13.99048Q-79.84996 -13.15269 -79.0982 -11.85773Q-78.74725 -11.26197 -77.89203 -10.01688Q-76.63599 -8.07257 -76.38664 -7.55533Q-75.91287 -6.57257 -75.74573 -5.69696Q-75.62847 -4.9248 -75.73563 -4.61816Q-75.84278 -4.31152 -76.39423 -3.47197Q-76.68335 -3.01386 -77.40749 -2.66477Q-78.07991 -2.34061 -78.82435 -2.3642Q-79.5688 -2.38779 -79.84494 -2.82837Q-80.34736 -3.60609 -80.49697 -3.91644L-81.31798 -5.75173Q-81.79175 -6.7345 -82.19628 -7.17693Q-82.47428 -7.48913 -82.88942 -8.08582Q-83.30456 -8.6825 -83.7368 -8.98409Q-84.16905 -9.28568 -84.68258 -9.29309Q-85.47968 -9.22756 -86.10037 -8.92833Q-87.29004 -8.35482 -87.58842 -7.25479Q-87.72608 -6.61472 -87.60696 -5.97095Q-87.48784 -5.32717 -87.25467 -4.57902Q-87.02149 -3.83087 -86.90052 -3.31548Q-86.7814 -2.6717 -86.25776 -1.58549Q-85.78399 -0.60272 -85.38317 0.09648Q-84.98235 0.79569 -84.68127 1.288L-83.85655 2.86652Q-82.40659 5.60977 -81.63359 7.21323Q-80.88553 8.76496 -80.56322 9.56577L-80.04143 10.78036Q-79.64247 11.60796 -78.74109 13.21327L-78.09091 14.42972Q-77.69195 15.25731 -76.84044 16.75917Q-75.78944 18.67483 -75.39048 19.50242Q-75.09125 20.12312 -74.88116 20.69116Q-74.67106 21.2592 -74.47158 21.673Q-74.07261 22.50059 -73.31065 23.08944Q-72.54868 23.67829 -71.60197 23.9231Q-71.03857 24.03397 -70.6765 23.85942Q-70.15925 23.61006 -69.85396 22.92105Q-69.54866 22.23204 -69.46088 21.48852Q-69.33704 20.02643 -70.11004 18.42297Q-70.60875 17.38848 -70.90982 16.89617Q-71.66159 15.6012 -72.15659 14.30995Q-72.84551 12.21974 -71.13861 11.39687Q-70.67309 11.17245 -69.92772 11.13185Q-69.18235 11.09125 -68.7704 11.02015Q-68.25501 10.89918 -67.91097 11.08392Q-67.56693 11.26867 -67.24092 11.8127Q-65.78725 14.29918 -65.16386 15.59229Q-64.59035 16.78196 -64.17201 18.04643L-63.36583 20.90879Q-62.92811 22.61014 -63.38538 24.04174Q-63.84265 25.47334 -64.96121 26.4588Q-67.30364 28.60796 -69.114 29.4807Q-69.83814 29.8298 -70.53364 29.97385Z" fill="rgb(37, 37, 37)" transform="matrix(0.957099 -0.289763 0.289763 0.957099 99.047503 59.120439)"/><path d="M-56.86422 23.30673Q-57.09656 23.51078 -57.69201 23.72151Q-58.28745 23.93223 -58.76673 24.04094Q-59.246 24.14964 -59.58995 24.21045Q-59.80647 24.28708 -60.12502 24.24753Q-60.44357 24.20799 -60.57433 24.01062Q-61.05571 23.51096 -61.17733 22.82307L-61.44307 21.21161L-61.70547 19.7817Q-62.3069 16.70535 -62.77212 14.61628Q-63.23734 12.52722 -63.96864 10.28868Q-64.39344 8.91623 -64.95655 5.94815Q-65.36641 3.41311 -65.73373 2.20307Q-66.39175 -0.0005 -67.23642 -4.45263Q-67.91447 -7.7455 -68.28848 -9.31865Q-69.0298 -12.10185 -69.3205 -13.09537Q-70.0743 -15.56959 -70.35252 -16.87209Q-70.60824 -17.93889 -70.66448 -18.5281Q-70.72072 -19.11731 -70.44092 -19.70361Q-69.88133 -20.87623 -68.095 -21.50841Q-67.0665 -21.87239 -66.17791 -21.94322Q-66.06964 -21.98154 -65.8069 -22.01361Q-65.54415 -22.04569 -65.34344 -21.99489Q-64.79545 -21.82336 -64.44148 -21.33952Q-63.79103 -20.53423 -62.97395 -18.56968L-62.40592 -17.30884Q-61.21907 -14.98788 -59.96561 -12.99504Q-59.75822 -12.58114 -59.1394 -11.52101L-58.20159 -9.90375Q-55.01169 -4.33244 -53.79566 -1.41269L-52.55713 1.74275Q-52.15484 2.8795 -51.31861 4.89818Q-51.07291 5.42034 -50.33914 6.80526Q-50.07428 7.38154 -49.67866 8.1552Q-49.28305 8.92886 -48.75333 10.08143L-47.67474 12.44071Q-46.3921 15.03234 -45.91318 16.38562Q-45.53004 17.46825 -45.3926 18.02872Q-45.236 18.64332 -45.61782 19.11346Q-45.99964 19.58359 -46.79579 19.74353L-47.62692 19.97675Q-48.49302 20.28326 -49.05516 20.32993Q-49.6173 20.37659 -49.88216 19.8003Q-50.08955 19.38641 -50.34483 18.83719Q-50.60011 18.28796 -50.97657 17.56844Q-51.46797 16.52413 -51.62123 16.09108L-52.04602 14.71864Q-52.25675 14.12319 -52.55324 13.80174Q-52.75729 13.5694 -53.51513 13.8376Q-54.63607 14.11247 -55.23151 14.3232Q-55.77283 14.51477 -56.81714 15.00617Q-57.23103 15.21356 -57.37093 15.50672Q-57.51083 15.79987 -57.44668 16.32536Q-57.40168 16.79673 -57.1493 17.68199Q-56.89692 18.56725 -56.88356 19.29345Q-56.89604 19.60242 -56.74278 20.03547L-56.4013 20.82829Q-56.01816 21.91091 -56.11016 22.33939Q-56.20217 22.76788 -56.86422 23.30673ZM-55.76141 9.21148Q-55.49076 9.11569 -55.38583 8.89583Q-55.31588 8.74925 -55.50745 8.20794Q-56.35616 6.49823 -56.96919 4.76603Q-57.56305 3.08796 -57.92036 2.42256L-58.99895 0.06328Q-59.32462 -0.85695 -59.532 -1.27085Q-60.32658 -2.99971 -60.92624 -4.00571Q-61.77161 -5.53386 -62.34298 -6.97625Q-62.66865 -7.89649 -62.81523 -7.96643Q-63.00012 -8.14465 -63.21664 -8.06802Q-63.37904 -8.01055 -63.409 -7.66493Q-63.43897 -7.31932 -63.33984 -6.86711L-62.985 -5.34809Q-62.46688 -2.85137 -62.02293 -1.4248Q-61.8122 -0.82935 -61.68434 -0.29595Q-61.55648 0.23746 -61.45735 0.68966Q-61.02254 2.60676 -60.50196 4.24985Q-60.11882 5.33248 -59.94307 6.00121Q-59.27257 7.89581 -58.94357 8.9976Q-58.92441 9.05173 -58.84611 9.35903Q-58.76781 9.66633 -58.60208 9.79041Q-58.27061 10.03857 -57.67517 9.82784L-56.80907 9.52133Q-56.21362 9.3106 -55.92381 9.26895Z" fill="rgb(37, 37, 37)" transform="matrix(0.957099 -0.289763 0.289763 0.957099 99.047503 59.120439)"/><path d="M-46.33345 -18.23945Q-45.91585 -15.44751 -44.89509 -11.08653Q-44.71188 -10.30379 -44.08074 -7.35542Q-43.44961 -4.40706 -43.09744 -1.89467Q-43.03557 -1.37839 -42.80001 -0.37201Q-42.55137 0.69028 -42.1451 1.92208Q-41.73883 3.15389 -41.57823 3.58808Q-40.57535 6.36097 -40.41235 7.56126Q-39.92931 10.63275 -38.0688 11.02289Q-37.06955 11.26078 -35.6718 10.93362Q-35.05679 10.78967 -34.73441 10.65524Q-34.46795 10.53389 -34.06171 10.37984Q-33.65547 10.22578 -33.04046 10.08182Q-31.97817 9.83318 -31.61832 9.98484Q-31.25847 10.13651 -30.71006 10.71582Q-30.03674 11.32487 -29.78809 12.38716Q-29.53945 13.44945 -29.81064 14.81034Q-29.91651 15.36588 -30.36557 15.58893Q-30.81463 15.81199 -31.59737 15.9952Q-32.54784 16.21767 -33.00821 16.26646L-37.04682 17.15278Q-39.05958 17.6239 -40.31934 18.03671Q-41.52319 18.43644 -42.81747 17.44197Q-43.17554 17.17195 -43.56931 16.49746Q-43.96308 15.82298 -44.12011 15.15206L-44.66619 12.56711Q-44.80658 11.71537 -45.19917 10.03807Q-45.5656 8.47259 -46.16519 6.66682Q-46.8076 4.93004 -47.43575 2.24636Q-47.85453 0.45724 -47.89618 -0.47659Q-47.91523 -1.06186 -48.334 -2.85098L-49.1751 -6.1925Q-49.41423 -6.96215 -49.67596 -8.08035Q-50.12447 -9.74457 -50.81093 -13.18125Q-51.32726 -15.89111 -51.64134 -17.23295Q-52.42654 -20.58756 -53.29855 -22.80135Q-53.59358 -23.55792 -53.6721 -23.89338Q-53.93383 -25.01158 -53.44969 -25.71463Q-53.17966 -26.0727 -52.50696 -26.3481Q-51.83425 -26.6235 -51.44288 -26.71511Q-50.54832 -26.9245 -50.13911 -26.81387Q-49.72989 -26.70325 -49.33732 -26.41181Q-48.94475 -26.12037 -48.73776 -25.9919Q-47.96571 -25.46494 -47.66472 -24.179L-46.81053 -20.78158Q-46.61423 -19.94293 -46.33345 -18.23945Z" fill="rgb(37, 37, 37)" transform="matrix(0.957099 -0.289763 0.289763 0.957099 99.047503 59.120439)"/><path d="M-27.06352 -20.62884Q-26.93432 -19.02214 -26.78695 -18.05716L-26.14939 -14.26271Q-25.60243 -11.44189 -25.34237 -9.739Q-25.04763 -7.80905 -24.94836 -6.77865L-24.54568 -3.76154Q-24.26828 -1.94512 -23.8206 -0.15471Q-23.5337 0.96322 -23.20429 3.12021L-22.75351 6.0719L-22.26332 8.90138Q-22.02059 10.49075 -22.04827 11.83097Q-22.05302 12.18022 -22.03176 12.69976Q-22.01051 13.21929 -22.09607 13.60992Q-22.18163 14.00056 -22.43077 14.27095Q-22.67991 14.54135 -23.3043 14.6367L-24.33471 14.73598Q-24.91101 14.7659 -26.10303 14.94794Q-26.72743 15.0433 -27.08255 14.42953Q-27.43767 13.81576 -27.59763 12.38802Q-27.71816 10.83808 -28.27295 7.20524Q-28.83642 3.51564 -29.82631 -1.44483Q-29.96976 -2.0038 -30.1068 -4.42252L-30.30534 -6.48333Q-30.58274 -8.29975 -30.98708 -9.80634Q-31.72951 -13.5267 -31.92889 -14.83225L-32.60029 -19.60902Q-32.96438 -21.99307 -33.4294 -23.89701Q-33.73364 -25.12846 -33.86913 -26.96655Q-34.00462 -28.80464 -33.75073 -29.42428Q-33.54493 -29.97849 -33.02498 -30.37738Q-32.50503 -30.77626 -31.82387 -30.88028Q-31.36976 -30.94963 -30.65393 -30.82661Q-29.58018 -30.64206 -29.25303 -30.40159Q-28.92587 -30.16112 -28.67364 -29.27025Q-27.87754 -26.71983 -27.40076 -23.59786Q-27.24473 -22.57612 -27.06352 -20.62884Z" fill="rgb(37, 37, 37)" transform="matrix(0.957099 -0.289763 0.289763 0.957099 99.047503 59.120439)"/><path d="M-9.02419 -27.27Q-9.37163 -27.30584 -10.11665 -27.25933Q-10.80437 -27.21639 -12.17264 -27.0159L-14.11759 -26.83693Q-14.91993 -26.78684 -15.10083 -26.45911Q-15.28173 -26.13139 -15.34268 -25.26459Q-15.42874 -23.87842 -15.3536 -22.67492Q-15.2713 -21.3568 -14.88463 -18.84949L-14.55884 -16.39591Q-14.4586 -15.71178 -14.17923 -15.38402Q-13.89987 -15.05626 -13.55959 -15.13504Q-12.93634 -15.28902 -11.67553 -15.36774Q-10.35741 -15.45003 -9.77716 -15.37119Q-9.19691 -15.29236 -8.95872 -15.16339Q-8.72054 -15.03443 -8.57372 -14.5258Q-8.07594 -13.00349 -8.13337 -11.15885Q-8.21937 -10.69321 -8.38414 -10.56786Q-8.54891 -10.44251 -9.0647 -10.4103Q-9.6378 -10.37452 -10.15 -10.28501Q-10.66221 -10.1955 -11.23531 -10.15972Q-11.98033 -10.1132 -12.73609 -10.23862Q-12.9116 -10.28519 -13.25546 -10.26372Q-14.22972 -10.2029 -14.03996 -9.00655Q-13.83947 -7.63828 -13.77148 -6.54939Q-13.589 -3.62661 -13.68246 1.32707Q-13.69325 2.07567 -13.6038 3.50841Q-13.49288 5.28501 -13.09189 8.02156Q-12.84131 10.19217 -12.80195 10.82257Q-12.7447 11.73952 -12.85398 12.29291Q-12.96326 12.8463 -13.51847 13.16863Q-14.01279 13.54469 -14.75781 13.5912Q-15.21629 13.61983 -15.85564 13.51591Q-16.49499 13.412 -16.89974 13.37973Q-17.76654 13.31878 -17.95814 13.01432Q-18.14975 12.70985 -18.31804 11.85736Q-18.70472 9.35005 -18.78343 8.08924Q-18.86215 6.82843 -18.78319 4.40711Q-18.68282 3.25018 -18.85815 0.44201L-19.1695 -3.62339Q-19.2088 -5.17433 -19.38771 -8.03981Q-19.68469 -12.7965 -20.12861 -16.22077Q-20.22885 -16.90491 -20.30399 -18.10841Q-20.37198 -19.19729 -20.36831 -20.52078Q-20.36464 -21.84427 -20.404 -22.47467Q-20.38229 -25.81294 -20.54336 -27.47134Q-20.56841 -27.87251 -20.68479 -28.35427Q-20.80117 -28.83604 -20.83695 -29.40913Q-20.86915 -29.92492 -20.71869 -30.27951Q-20.32104 -31.2824 -19.74255 -31.69248Q-19.16405 -32.10256 -18.19694 -32.27801Q-17.62743 -32.3711 -16.36662 -32.44982L-13.84141 -32.54994Q-12.11497 -32.54267 -11.19802 -32.59992Q-9.8799 -32.68221 -8.62982 -32.93286L-8.28596 -32.95433Q-7.42632 -33.008 -7.06099 -32.68561Q-6.63478 -32.30949 -6.21217 -31.53041Q-5.78957 -30.75133 -5.74305 -30.00631Q-5.54971 -28.75265 -6.19628 -28.05066Q-6.84285 -27.34866 -8.10366 -27.26994Q-8.67676 -27.23416 -9.02419 -27.27Z" fill="rgb(37, 37, 37)" transform="matrix(0.957099 -0.289763 0.289763 0.957099 99.047503 59.120439)"/><path d="M3.81797 13.56084Q1.95157 12.89986 1.02499 12.42596Q0.0984 11.95207 -0.55284 11.11725Q-1.20409 10.28243 -1.31262 8.89785L-1.55616 6.70228Q-1.81558 4.85087 -1.90205 3.611Q-1.98852 2.37114 -1.81819 1.17187L-1.64256 -0.14211Q-1.05039 -4.2535 -0.94976 -6.43319Q-0.85973 -8.38343 -1.03266 -10.86315Q-1.18796 -12.47983 -1.09263 -14.54479Q-0.99201 -16.72448 -0.73254 -18.60942Q-0.5172 -20.7838 -0.48277 -21.52949Q-0.42716 -22.73405 -0.4554 -23.36766L-0.42537 -25.26319Q-0.34858 -26.92663 0.02781 -28.23135Q0.40419 -29.53607 1.25754 -30.58884Q2.29357 -31.8631 3.40857 -32.35771Q4.52357 -32.85232 6.43499 -33.16646Q6.72443 -33.21058 7.71015 -33.395Q8.40641 -33.53531 9.03737 -33.50618Q10.24194 -33.45057 12.28042 -32.78164Q13.29966 -32.44717 13.76471 -31.93711Q14.22977 -31.42704 14.54745 -30.83755Q14.86513 -30.24806 14.96926 -30.01332Q16.55501 -27.00852 16.08285 -23.00655Q15.58421 -18.43098 15.44916 -15.50562Q15.29292 -12.12137 15.42614 -8.78124Q15.49055 -7.68611 15.39787 -5.6785Q15.2946 -3.44146 15.03778 -1.61388Q14.80125 1.01939 14.81094 2.05452Q14.80915 4.58366 14.77208 5.3867Q14.63703 8.31207 13.93722 9.7743Q13.23741 11.23654 11.50777 12.59375Q10.49557 13.35177 9.09907 13.71842Q7.70257 14.08507 6.26857 14.01887Q4.94928 13.95796 3.81797 13.56084ZM6.28539 8.67379Q7.61527 8.50525 8.09004 8.18227Q8.5648 7.8593 8.96457 6.67062Q9.60262 4.05589 9.87802 -1.90956Q9.99453 -4.4334 10.00691 -7.19199Q10.0237 -8.80072 10.00345 -13.34276Q9.93468 -19.3241 10.06973 -22.24946Q10.15977 -24.1997 10.25949 -25.11482Q10.42013 -27.34921 10.0998 -27.88134Q9.56857 -28.82558 8.82289 -28.86001Q8.53608 -28.87325 8.06926 -28.72235Q6.78615 -28.32173 6.23549 -27.59988Q5.68482 -26.87803 5.32653 -25.34255Q4.82438 -23.1814 4.70257 -20.54283L4.59575 -16.98386Q4.53216 -11.87087 4.40066 -10.26743Q4.28504 -9.00816 4.24752 -7.57283Q4.21 -6.13751 4.17822 -5.44918Q4.19851 -4.64349 4.13231 -3.20949Q4.04493 -1.31661 3.89578 -0.57622Q3.64956 1.02192 3.59924 2.11176Q3.51451 3.94728 3.99808 5.924Q4.19045 6.73764 4.22927 7.14181Q4.30692 7.95014 4.63519 8.31019Q4.96346 8.67024 5.65178 8.70202Q6.0533 8.72055 6.28539 8.67379Z" fill="rgb(37, 37, 37)" transform="matrix(0.957099 -0.289763 0.289763 0.957099 99.047503 59.120439)"/><path d="M31.83123 16.19567Q31.42537 16.18409 30.84 16.19988Q30.25463 16.21567 29.91509 16.15723Q29.3492 16.05985 28.78515 15.61318Q28.27769 15.17626 28.12438 14.71288Q27.97106 14.24951 28.08793 13.57043Q28.23401 12.7216 28.73306 11.17605Q29.27896 9.69684 29.50295 8.39528Q29.64903 7.54644 29.66431 6.44203Q29.65826 5.80007 29.90173 4.38534L30.24259 2.40471Q30.4958 0.93339 30.5853 0.07481Q30.68453 -0.84035 30.45397 -1.87054Q30.2234 -2.90073 30.14918 -3.14657Q29.84624 -4.77187 28.77104 -4.95691Q28.31833 -5.03482 27.57108 -4.75556Q26.88043 -4.46657 26.47759 -4.15717Q26.07475 -3.84777 25.67494 -3.21739Q25.437 -2.85049 25.24222 -1.7187Q25.17405 -1.32258 24.81555 0.42195Q24.45706 2.16648 23.57214 5.27705Q23.2934 6.21959 23.24522 8.19232Q23.14046 10.15531 22.93594 11.34368Q22.66325 12.92818 21.59713 13.70608Q20.53101 14.48398 19.22946 14.25999Q18.56012 14.08653 18.18835 13.87689Q17.81657 13.66724 17.62127 13.10924Q17.27753 12.05958 17.34939 10.9649L17.55575 9.42725Q18.10851 4.86115 18.57598 2.14487Q19.10188 -0.91095 19.72753 -3.19216Q20.20895 -4.9738 20.4232 -6.21876Q20.5985 -7.23737 20.65878 -7.92618Q20.68984 -8.44522 20.87488 -9.52042Q21.11835 -10.93515 21.30155 -11.66107L21.76717 -14.02808Q22.01065 -15.44281 22.10383 -16.99994Q22.27861 -19.70833 22.61947 -21.68896Q22.92138 -23.44323 23.63468 -26.23373Q23.78866 -26.78989 23.92501 -27.58214Q24.06135 -28.37439 24.32851 -28.91106Q24.98759 -30.3708 26.15135 -30.8697Q27.31512 -31.3686 28.70064 -30.95536Q29.03043 -30.84034 29.7661 -30.71373Q30.95447 -30.50922 31.58669 -30.45868L33.57705 -30.17441Q35.10497 -29.91145 36.14608 -29.52835Q37.18719 -29.14525 37.80598 -28.33957Q38.94987 -26.86088 39.53273 -25.50786Q40.11559 -24.15485 40.19218 -22.5685Q40.24744 -20.5197 39.68258 -17.23753Q39.19564 -14.40806 38.71791 -13.32497L38.22071 -12.1287Q37.40765 -10.11281 36.98349 -9.34096Q36.55933 -8.56911 35.67759 -7.84688Q34.86217 -7.17149 34.7453 -6.49242Q34.65765 -5.98312 34.78754 -5.55291Q34.91743 -5.1227 35.15563 -4.64471Q35.39383 -4.16673 35.56176 -3.78824Q36.51086 -1.17775 35.82493 1.79226Q35.12926 4.81887 34.82736 6.57313Q34.56441 8.10104 34.34646 10.04456Q34.11878 12.04466 33.85767 13.2233Q33.66289 14.35508 33.14806 15.31525Q32.63322 16.27543 31.83123 16.19567ZM28.77923 -10.08285Q29.9676 -9.87833 30.82987 -10.48739Q32.02378 -11.33069 32.72391 -12.52117Q33.42405 -13.71165 33.72595 -15.46592Q33.94021 -16.71088 33.95548 -17.81529Q34.02365 -18.21142 34.06538 -18.96169Q34.1071 -19.71196 34.21423 -20.33444Q34.29214 -20.78715 34.60009 -21.89946Q34.9957 -23.52107 34.53694 -24.24094Q34.20898 -24.70524 33.44108 -24.98306Q32.67318 -25.26088 31.91804 -25.2743Q31.51218 -25.28589 30.88969 -25.39302Q30.26721 -25.50014 29.85161 -25.45514Q29.43601 -25.41013 29.08489 -25.0627Q28.60111 -24.62157 28.55847 -23.69666Q28.34052 -21.75315 28.1847 -20.84772L27.61195 -17.85823Q27.40928 -17.01913 27.11711 -15.32145Q26.70807 -12.9447 26.85283 -11.75448Q26.92521 -11.15937 27.098 -10.80918Q27.2708 -10.45898 27.82695 -10.305Z" fill="rgb(37, 37, 37)" transform="matrix(0.957099 -0.289763 0.289763 0.957099 99.047503 59.120439)"/><path d="M37.99751 8.73806Q38.6165 6.70565 39.19003 5.01954Q39.76357 3.33343 40.20327 2.08677Q41.92863 -2.79003 42.78182 -5.59147Q43.20005 -6.96472 43.92665 -9.74469Q44.17285 -10.75016 44.75838 -12.67272Q45.61157 -15.47416 46.57936 -18.06062Q47.78137 -21.4161 48.42907 -23.7399Q48.79237 -25.12989 49.27613 -25.73287Q49.7599 -26.33585 50.6675 -26.35956Q50.84902 -26.3643 51.23353 -26.2472Q51.7279 -26.09663 52.54586 -25.72747Q53.36382 -25.35831 53.92985 -25.24594Q54.84219 -25.08814 54.8252 -23.65271Q54.94152 -19.89572 54.84299 -16.71438Q54.74447 -13.53304 54.23508 -10.08667L53.59661 -6.01933Q52.82904 -1.33104 52.51092 1.09314Q52.19281 3.51731 52.4697 4.38197Q52.58904 4.77846 53.10541 2.29462Q53.81304 -1.21143 54.37459 -2.66109Q55.21329 -4.62658 55.96611 -7.09844Q56.35088 -8.36184 56.75364 -9.97991Q57.15639 -11.59798 57.3906 -12.367Q57.97863 -14.88904 58.68126 -17.19611Q59.31697 -19.28346 60.05529 -20.91938Q60.60486 -22.13258 60.94168 -22.45018Q61.27851 -22.76777 62.37237 -22.61471Q62.55389 -22.61945 63.36474 -22.52257Q64.17558 -22.42568 64.58157 -22.18199Q65.48666 -21.60621 65.65732 -20.984Q65.82797 -20.36179 65.41698 -19.4065Q63.57228 -14.9262 62.2674 -10.64164Q61.73206 -8.88388 60.90509 -5.77433L59.55476 -1.14347Q58.8354 1.21853 57.81742 3.96978Q57.76723 4.13458 57.22603 5.32032Q56.68483 6.50606 56.35025 7.60466Q55.2963 11.06526 54.73699 13.29593Q54.45734 14.41126 54.19566 15.17192Q53.93399 15.93258 53.83361 16.26216Q53.46083 17.2891 52.94696 19.17346Q52.0698 22.4478 50.23089 21.58762Q49.97297 21.44905 49.51679 21.37014Q49.06062 21.29124 48.78597 21.20759Q48.2916 21.05703 47.91908 20.70347Q47.54655 20.34992 47.46903 19.8161Q47.39151 19.28227 47.4442 18.51799Q47.60951 15.80718 47.64824 13.11784Q47.71568 10.13712 47.84503 8.13566Q47.97438 6.1342 48.30673 4.25459Q48.81835 1.58923 49.00514 -0.99499Q49.59118 -5.67855 50.3083 -8.82156Q50.65013 -10.33813 50.88572 -12.09715Q51.12131 -13.85616 50.83468 -13.70336Q50.54804 -13.55056 50.28037 -12.67167Q50.02943 -11.84772 49.63742 -10.16636Q49.25738 -8.72144 48.00045 -5.38269Q46.87735 -2.48338 46.3922 -0.8904Q45.90705 0.70258 45.15648 3.95544Q44.9772 4.74119 44.68081 5.91146Q44.38443 7.08172 43.93274 8.56484Q42.43659 13.87159 41.85107 15.79415Q41.49975 16.94768 39.9949 17.7499Q39.06333 18.24651 37.79994 17.86174Q37.47035 17.76137 36.84465 17.45075Q36.16402 17.12341 35.97901 16.64689Q35.79399 16.17037 35.9518 15.25803Q35.98052 14.96665 36.14781 14.41735L36.60424 13.11575Q37.01523 12.16047 37.16579 11.66609Z" fill="rgb(37, 37, 37)" transform="matrix(0.957099 -0.289763 0.289763 0.957099 99.047503 59.120439)"/><path d="M74.02648 -6.95611Q73.30729 -5.51356 72.9351 -4.61114L71.52131 -1.03265Q70.5328 1.66532 69.87599 3.25782Q69.13161 5.06266 68.68444 5.99627L67.47099 8.78781Q66.7704 10.48648 66.22905 12.25083Q65.89734 13.35629 65.06539 15.37347L63.92692 18.13381L62.88532 20.80988Q62.2723 22.29622 61.55641 23.42957Q61.37196 23.72617 61.12184 24.18203Q60.87171 24.63789 60.59669 24.9282Q60.32168 25.21851 59.96869 25.32137Q59.61569 25.42424 59.03177 25.18341L58.09816 24.73624Q57.58922 24.46422 56.47447 24.00446Q55.89055 23.76363 55.90345 23.05464Q55.91635 22.34566 56.51677 21.04047Q57.21407 19.651 58.61526 16.25365Q60.03835 12.80322 61.75265 8.0443Q61.91851 7.49157 63.05037 5.34963L63.94471 3.48241Q64.64531 1.78374 65.07718 0.2848Q66.36291 -3.28439 66.86647 -4.50531L68.75862 -8.94244Q69.67815 -11.17195 70.26328 -13.04247Q70.63877 -14.25409 71.47208 -15.89803Q72.30538 -17.54197 72.84282 -17.94144Q73.30528 -18.30973 73.95653 -18.38275Q74.60778 -18.45577 75.24478 -18.19305Q75.66945 -18.0179 76.21888 -17.54284Q77.04302 -16.83026 77.19897 -16.45537Q77.35492 -16.08049 77.11079 -15.18736Q76.47527 -12.59226 75.27112 -9.67267Q74.87703 -8.71716 74.02648 -6.95611Z" fill="rgb(37, 37, 37)" transform="matrix(0.957099 -0.289763 0.289763 0.957099 99.047503 59.120439)"/><path d="M65.98375 28.18983Q65.67592 28.16043 65.11443 27.87116Q64.55293 27.58188 64.14534 27.3073Q63.73775 27.03273 63.45778 26.8239Q63.2536 26.7187 63.06412 26.4596Q62.87464 26.2005 62.92878 25.97002Q62.96283 25.27704 63.38049 24.71709L64.37206 23.41931L65.23368 22.24837Q67.06213 19.70231 68.26485 17.93197Q69.46757 16.16164 70.59682 14.09508Q71.30531 12.84524 73.08116 10.40127Q74.64663 8.36566 75.27622 7.26896Q76.43022 5.27975 79.09399 1.61379Q81.02763 -1.13645 81.9171 -2.48683Q83.43617 -4.9339 83.96058 -5.82642Q85.24607 -8.07086 86.00405 -9.16601Q86.6058 -10.08327 86.99639 -10.52798Q87.38698 -10.97269 88.00573 -11.17067Q89.24322 -11.56663 90.92771 -10.6988Q91.89757 -10.19914 92.55806 -9.6005Q92.66015 -9.5479 92.86355 -9.37852Q93.06696 -9.20913 93.1675 -9.02815Q93.41808 -8.51149 93.30823 -7.92215Q93.16744 -6.89659 92.29652 -4.95532L91.76746 -3.67764Q90.89033 -1.22281 90.29783 1.05568Q90.13849 1.49034 89.79042 2.66748L89.25516 4.45871Q87.38331 10.59965 86.09007 13.48603L84.64059 16.5503Q84.08834 17.62225 83.19111 19.61457Q82.97918 20.15132 82.47332 21.63473Q82.23509 22.22253 81.94271 23.0408Q81.65034 23.85908 81.17388 25.03467L80.19466 27.4369Q79.18604 30.14695 78.5286 31.42308Q78.00264 32.44398 77.68862 32.92814Q77.3483 33.46334 76.74425 33.50741Q76.14021 33.55148 75.47817 33.08122L74.73879 32.63571Q73.92206 32.21494 73.50288 31.8375Q73.08369 31.46006 73.32192 30.87226Q73.48126 30.4376 73.70634 29.87533Q73.93142 29.31305 74.1975 28.54583Q74.62136 27.47232 74.83175 27.06396L75.54024 25.81413Q75.82951 25.25263 75.86046 24.81642Q75.88986 24.5086 75.17523 24.14043Q74.20692 23.51238 73.64542 23.22311Q73.13496 22.96013 72.06146 22.53626Q71.6268 22.37693 71.31743 22.47592Q71.00806 22.57491 70.66929 22.98172Q70.35682 23.33749 69.88501 24.12791Q69.4132 24.91834 68.89344 25.42569Q68.65986 25.62832 68.44948 26.03668L68.10606 26.82866Q67.5801 27.84957 67.20499 28.07617Q66.82987 28.30277 65.98375 28.18983ZM77.00527 19.33442Q77.2605 19.46591 77.49253 19.39167Q77.64722 19.34217 77.91019 18.83172Q78.57384 17.04204 79.41537 15.40859Q80.2306 13.82618 80.47038 13.11L81.4496 10.70777Q81.89666 9.84 82.056 9.40534Q82.77069 7.64195 83.09246 6.51586Q83.62617 4.85301 84.28517 3.44849Q84.73223 2.58072 84.68273 2.42603Q84.68583 2.16926 84.48165 2.06407Q84.32852 1.98517 84.05627 2.20018Q83.78402 2.41518 83.52259 2.79725L82.65941 4.09658Q81.19604 6.18478 80.46125 7.48566Q80.17197 8.04716 79.8711 8.50579Q79.57023 8.96442 79.3088 9.34649Q78.21049 10.97684 77.37051 12.4819Q76.84456 13.5028 76.47794 14.08905Q75.55752 15.87563 74.98052 16.87024Q74.95422 16.92128 74.78406 17.18888Q74.6139 17.45648 74.6371 17.66222Q74.68349 18.07368 75.24499 18.36295L76.06171 18.78372Q76.62321 19.07299 76.85214 19.25553Z" fill="rgb(37, 37, 37)" transform="matrix(0.957099 -0.289763 0.289763 0.957099 99.047503 59.120439)"/><path d="" fill="rgb(37, 37, 37)" transform="matrix(0.957099 -0.289763 0.289763 0.957099 99.047503 59.120439)"/></g></g>

  </svg>