<svg xmlns="http://www.w3.org/2000/svg" xmlns:xlink="http://www.w3.org/1999/xlink" width="551px" height="551px" viewBox="0 0 551.4556630741499 551.4460073836563">
    <g id="87158054-9caa-45c7-bd7b-590907b211e5">
<g style="">
		<g id="87158054-9caa-45c7-bd7b-590907b211e5-child-0">
<path style="stroke: rgb(193,193,193); stroke-width: 0; stroke-dasharray: none; stroke-linecap: butt; stroke-dashoffset: 0; stroke-linejoin: miter; stroke-miterlimit: 4; fill: rgb(246,105,110); fill-rule: nonzero; opacity: 1;" transform="matrix(1.077043 0 0 1.077043 275.727832 275.723004) matrix(21.333333 0 0 21.333333 0 0)  translate(-12.00021, -12)" d="M 12.00 3.00 C 12.00 2.45 12.45 2.00 13.00 2.00 L 16.00 2.00 C 16.38 2.00 16.73 2.21 16.89 2.55 C 17.06 2.89 17.03 3.30 16.80 3.60 L 15.00 6.00 L 16.00 6.00 C 16.55 6.00 17.00 6.45 17.00 7.00 C 17.00 7.55 16.55 8.00 16.00 8.00 L 13.00 8.00 C 12.62 8.00 12.28 7.79 12.11 7.45 C 11.94 7.11 11.97 6.70 12.20 6.40 L 14.00 4.00 L 13.00 4.00 C 12.45 4.00 12.00 3.55 12.00 3.00 Z M 20.00 2.00 L 21.00 2.00 L 19.20 4.40 C 18.97 4.70 18.94 5.11 19.11 5.45 C 19.28 5.79 19.62 6.00 20.00 6.00 L 23.00 6.00 C 23.55 6.00 24.00 5.55 24.00 5.00 C 24.00 4.45 23.55 4.00 23.00 4.00 L 22.00 4.00 L 23.80 1.60 C 24.03 1.30 24.06 0.89 23.89 0.55 C 23.72 0.21 23.38 0.00 23.00 0.00 L 20.00 0.00 C 19.45 0.00 19.00 0.45 19.00 1.00 C 19.00 1.55 19.45 2.00 20.00 2.00 Z M 15.97 12.00 C 15.55 11.99 15.15 11.78 14.79 11.35 C 14.44 10.93 13.81 10.88 13.38 11.24 C 12.96 11.59 12.91 12.22 13.27 12.65 C 14.20 13.75 15.25 13.99 15.96 14.00 L 15.98 14.00 C 17.01 14.00 18.06 13.50 18.79 12.66 C 19.15 12.24 19.10 11.61 18.68 11.25 C 18.27 10.88 17.64 10.93 17.27 11.35 C 16.92 11.75 16.43 12.00 15.98 12.00 L 15.97 12.00 Z M 22.31 8.04 C 21.78 8.19 21.47 8.74 21.63 9.27 C 21.87 10.16 22.00 11.07 22.00 12.00 C 22.00 17.51 17.52 22.00 12.00 22.00 C 6.49 22.00 2.00 17.51 2.00 12.00 C 2.00 7.54 4.99 3.59 9.27 2.38 C 9.80 2.23 10.11 1.67 9.96 1.14 C 9.81 0.61 9.25 0.31 8.73 0.45 C 3.59 1.91 0.00 6.65 0.00 12.00 C 0.00 18.62 5.38 24.00 12.00 24.00 C 18.62 24.00 24.00 18.62 24.00 12.00 C 24.00 10.89 23.85 9.79 23.55 8.73 C 23.40 8.20 22.85 7.89 22.31 8.04 Z M 10.00 18.00 C 10.00 19.11 10.90 20.00 12.00 20.00 C 13.11 20.00 14.00 19.11 14.00 18.00 C 14.00 16.89 13.11 16.00 12.00 16.00 C 10.90 16.00 10.00 16.89 10.00 18.00 Z M 9.27 11.34 C 8.92 11.75 8.43 12.00 7.98 12.00 L 7.97 12.00 C 7.55 11.99 7.15 11.78 6.79 11.35 C 6.44 10.93 5.81 10.88 5.38 11.24 C 4.96 11.59 4.91 12.22 5.27 12.65 C 6.20 13.75 7.25 13.99 7.96 14.00 L 7.98 14.00 C 9.01 14.00 10.06 13.50 10.79 12.66 C 11.15 12.24 11.10 11.61 10.68 11.24 C 10.27 10.88 9.64 10.93 9.27 11.34 Z" stroke-linecap="round"/>
</g>
</g>
</g>

  </svg>