<svg xmlns="http://www.w3.org/2000/svg" xmlns:xlink="http://www.w3.org/1999/xlink" width="1031px" height="707px" viewBox="0 0 1031.4166100000002 707.3999999999996">
    <g style="" id="52b1a644-137d-4c95-a98d-5a4b48a3f329">
<g style=""><path d="M-330.75 -326.6748Q-319.59 -326.6748 -310.59 -325.3248Q-301.59 -323.9748 -295.2 -320.1948Q-288.81 -316.4148 -285.39 -309.6648Q-281.97 -302.9148 -281.97 -291.9348Q-281.97 -284.0148 -283.5 -279.0648Q-285.03 -274.1148 -287.91 -270.8748Q-290.79 -267.6348 -295.02 -265.3848Q-299.25 -263.1348 -304.65 -260.6148Q-291.69 -258.0948 -284.58 -250.0848Q-277.47 -242.0748 -277.47 -226.5948Q-277.47 -215.6148 -280.35 -208.2348Q-283.23 -200.8548 -288.9 -196.4448Q-294.57 -192.0348 -303.21 -190.2348Q-311.85 -188.4348 -323.19 -188.4348L-346.59 -188.4348Q-351.63 -188.4348 -354.69 -190.8648Q-357.75 -193.2948 -359.19 -197.7048Q-360.63 -202.1148 -361.08 -208.3248Q-361.53 -214.5348 -361.53 -221.9148Q-361.53 -229.8348 -361.89 -239.2848Q-362.25 -248.7348 -362.61 -258.4548Q-362.97 -268.1748 -363.33 -277.8048Q-363.69 -287.4348 -363.69 -295.7148Q-363.69 -302.9148 -363.33 -308.5848Q-362.97 -314.2548 -361.44 -318.3048Q-359.91 -322.3548 -357.03 -324.5148Q-354.15 -326.6748 -349.11 -326.6748ZM-330.21 -307.9548Q-333.81 -307.7748 -335.97 -305.7948Q-338.13 -303.8148 -338.13 -301.2948Q-338.13 -293.0148 -338.04 -284.3748Q-337.95 -275.7348 -337.77 -266.7348Q-335.79 -266.7348 -333.99 -266.8248Q-332.19 -266.9148 -331.47 -266.9148Q-324.99 -266.9148 -318.96 -268.7148Q-312.93 -270.5148 -308.34 -273.8448Q-303.75 -277.1748 -300.96 -281.8548Q-298.17 -286.5348 -298.17 -292.2948Q-298.17 -298.4148 -300.06 -301.7448Q-301.95 -305.0748 -305.82 -306.5148Q-309.69 -307.9548 -315.72 -308.1348Q-321.75 -308.3148 -330.21 -307.9548ZM-337.41 -252.3348Q-337.05 -241.8948 -336.51 -231.8148Q-335.97 -221.7348 -335.07 -212.3748Q-334.71 -208.0548 -332.01 -205.5348Q-329.31 -203.0148 -327.33 -203.0148Q-321.03 -203.0148 -314.91 -204.0948Q-308.79 -205.1748 -303.93 -207.7848Q-299.07 -210.3948 -296.1 -214.8048Q-293.13 -219.2148 -293.13 -225.8748Q-293.13 -241.1748 -300.33 -247.1148Q-307.53 -253.0548 -323.19 -253.0548Q-324.63 -253.0548 -328.86 -252.7848Q-333.09 -252.5148 -337.41 -252.3348Z" fill="rgb(249, 176, 39)" transform="matrix(1 0 0 1 515.708305 353.7)"/><path d="M-238.41 -252.8748L-238.41 -251.9748Q-238.41 -237.9348 -237.87 -228.3948Q-237.33 -218.8548 -235.17 -213.0048Q-233.01 -207.1548 -228.78 -204.5448Q-224.55 -201.9348 -217.17 -201.9348Q-210.15 -201.9348 -206.1 -203.3748Q-202.05 -204.8148 -199.98 -208.5048Q-197.91 -212.1948 -197.28 -218.3148Q-196.65 -224.4348 -196.65 -233.7948Q-196.65 -240.4548 -195.57 -243.2448Q-194.49 -246.0348 -189.27 -246.0348Q-184.41 -246.0348 -183.33 -243.6948Q-182.25 -241.3548 -182.25 -236.1348Q-182.25 -222.0948 -183.15 -212.6448Q-184.05 -203.1948 -187.65 -197.4348Q-191.25 -191.6748 -198.18 -189.2448Q-205.11 -186.8148 -217.35 -186.8148Q-234.45 -186.8148 -244.35 -189.2448Q-254.25 -191.6748 -259.2 -198.5148Q-264.15 -205.3548 -265.5 -217.4148Q-266.85 -229.4748 -266.85 -248.9148Q-266.85 -269.6148 -265.68 -284.0148Q-264.51 -298.4148 -259.83 -307.5048Q-255.15 -316.5948 -245.88 -320.7348Q-236.61 -324.8748 -220.59 -324.8748Q-211.41 -324.8748 -205.2 -323.0748Q-198.99 -321.2748 -195.21 -317.1348Q-191.43 -312.9948 -189.9 -306.5148Q-188.37 -300.0348 -188.37 -290.4948Q-188.37 -279.3348 -190.08 -271.8648Q-191.79 -264.3948 -196.02 -259.8948Q-200.25 -255.3948 -207.36 -253.5048Q-214.47 -251.6148 -225.45 -251.6148Q-232.29 -251.6148 -238.41 -252.8748ZM-218.61 -303.0948Q-225.09 -303.0948 -228.87 -301.8348Q-232.65 -300.5748 -234.72 -296.7048Q-236.79 -292.8348 -237.51 -285.7248Q-238.23 -278.6148 -238.41 -266.9148Q-235.35 -266.0148 -232.38 -265.4748Q-229.41 -264.9348 -226.35 -264.9348Q-219.15 -264.9348 -214.65 -266.1948Q-210.15 -267.4548 -207.72 -270.4248Q-205.29 -273.3948 -204.48 -278.3448Q-203.67 -283.2948 -203.67 -290.8548Q-203.67 -294.6348 -204.39 -297.0648Q-205.11 -299.4948 -206.82 -300.8448Q-208.53 -302.1948 -211.41 -302.6448Q-214.29 -303.0948 -218.61 -303.0948Z" fill="rgb(249, 176, 39)" transform="matrix(1 0 0 1 515.708305 353.7)"/><path d="M-87.39 -299.3148Q-87.39 -295.1748 -89.46 -293.9148Q-91.53 -292.6548 -95.13 -292.6548Q-98.19 -292.6548 -100.08 -293.2848Q-101.97 -293.9148 -103.14 -295.1748Q-104.31 -296.4348 -105.03 -298.1448Q-105.75 -299.8548 -106.29 -302.1948Q-107.19 -305.6148 -111.24 -307.6848Q-115.29 -309.7548 -122.85 -309.7548Q-130.59 -309.7548 -135.36 -307.4148Q-140.13 -305.0748 -142.74 -298.9548Q-145.35 -292.8348 -146.16 -282.2148Q-146.97 -271.5948 -146.97 -255.2148Q-146.97 -247.6548 -145.98 -237.8448Q-144.99 -228.0348 -142.47 -219.3048Q-139.95 -210.5748 -135.54 -204.5448Q-131.13 -198.5148 -124.11 -198.5148Q-118.89 -198.5148 -114.39 -200.2248Q-109.89 -201.9348 -106.47 -204.9048Q-103.05 -207.8748 -101.07 -212.1048Q-99.09 -216.3348 -99.09 -221.1948Q-99.09 -222.9948 -98.91 -225.1548Q-98.73 -227.3148 -97.92 -229.1148Q-97.11 -230.9148 -95.67 -232.1748Q-94.23 -233.4348 -91.71 -233.4348Q-87.03 -233.4348 -85.86 -230.3748Q-84.69 -227.3148 -84.69 -223.5348Q-84.69 -204.8148 -95.13 -195.8148Q-105.57 -186.8148 -124.11 -186.8148Q-140.31 -186.8148 -150.12 -191.3148Q-159.93 -195.8148 -165.15 -204.6348Q-170.37 -213.4548 -171.99 -226.3248Q-173.61 -239.1948 -173.61 -256.1148Q-173.61 -275.9148 -172.17 -290.2248Q-170.73 -304.5348 -165.69 -313.8948Q-160.65 -323.2548 -150.84 -327.6648Q-141.03 -332.0748 -124.47 -332.0748Q-114.93 -332.0748 -108 -330.4548Q-101.07 -328.8348 -96.48 -325.0548Q-91.89 -321.2748 -89.64 -314.9748Q-87.39 -308.6748 -87.39 -299.3148Z" fill="rgb(249, 176, 39)" transform="matrix(1 0 0 1 515.708305 353.7)"/><path d="M-29.43 -258.8148Q-29.43 -262.0548 -29.34 -268.3548Q-29.25 -274.6548 -29.61 -281.4048Q-29.97 -288.1548 -30.96 -294.0048Q-31.95 -299.8548 -34.29 -302.3748Q-35.73 -303.9948 -37.89 -304.4448Q-40.05 -304.8948 -42.03 -304.8948Q-51.75 -304.8948 -56.7 -302.1048Q-61.65 -299.3148 -63.81 -295.1748Q-65.97 -291.0348 -66.15 -286.2648Q-66.33 -281.4948 -66.69 -277.3548Q-67.05 -273.2148 -68.4 -270.4248Q-69.75 -267.6348 -74.07 -267.6348Q-78.75 -267.6348 -79.92 -270.6948Q-81.09 -273.7548 -81.09 -277.5348Q-81.09 -289.4148 -79.92 -298.3248Q-78.75 -307.2348 -74.7 -313.1748Q-70.65 -319.1148 -62.82 -321.9948Q-54.99 -324.8748 -41.85 -324.8748Q-33.57 -324.8748 -26.91 -324.0648Q-20.25 -323.2548 -15.39 -320.4648Q-10.53 -317.6748 -7.38 -312.3648Q-4.23 -307.0548 -2.79 -298.0548Q-1.35 -289.4148 -1.17 -280.5048Q-0.99 -271.5948 -0.99 -262.7748Q-0.99 -260.6148 -1.17 -254.5848Q-1.35 -248.5548 -1.62 -240.8148Q-1.89 -233.0748 -2.25 -224.4348Q-2.61 -215.7948 -2.97 -208.3248Q-3.33 -200.8548 -3.6 -195.3648Q-3.87 -189.8748 -4.23 -188.6148Q-4.41 -187.1748 -5.58 -186.2748Q-6.75 -185.3748 -8.28 -184.8348Q-9.81 -184.2948 -11.61 -184.1148Q-13.41 -183.9348 -14.85 -183.9348Q-17.91 -183.9348 -20.07 -185.2848Q-22.23 -186.6348 -23.76 -188.7048Q-25.29 -190.7748 -26.19 -193.2948Q-27.09 -195.8148 -27.63 -198.3348Q-31.23 -193.4748 -36.36 -190.1448Q-41.49 -186.8148 -47.25 -186.8148Q-56.61 -186.8148 -62.82 -188.7948Q-69.03 -190.7748 -72.72 -195.0048Q-76.41 -199.2348 -77.94 -205.7148Q-79.47 -212.1948 -79.47 -221.1948Q-79.47 -232.7148 -78.12 -240.2748Q-76.77 -247.8348 -72.72 -252.2448Q-68.67 -256.6548 -61.47 -258.3648Q-54.27 -260.0748 -42.39 -260.0748Q-39.15 -260.0748 -35.91 -259.7148Q-32.67 -259.3548 -29.43 -258.8148ZM-29.79 -221.1948Q-30.15 -226.2348 -30.15 -230.5548Q-30.15 -234.8748 -30.15 -237.3948Q-30.15 -239.3748 -30.15 -241.1748Q-30.15 -242.9748 -29.97 -244.9548Q-32.85 -245.8548 -35.64 -246.3048Q-38.43 -246.7548 -41.49 -246.7548Q-49.77 -246.7548 -54.36 -245.6748Q-58.95 -244.5948 -61.11 -241.7148Q-63.27 -238.8348 -63.72 -233.7948Q-64.17 -228.7548 -64.17 -220.8348Q-64.17 -216.6948 -63.63 -213.3648Q-63.09 -210.0348 -61.56 -207.7848Q-60.03 -205.5348 -57.24 -204.3648Q-54.45 -203.1948 -49.77 -203.1948Q-45.27 -203.1948 -42.03 -204.4548Q-38.79 -205.7148 -36.54 -208.0548Q-34.29 -210.3948 -32.67 -213.6348Q-31.05 -216.8748 -29.97 -220.6548Q-29.97 -220.8348 -29.88 -220.9248Q-29.79 -221.0148 -29.79 -221.1948Z" fill="rgb(249, 176, 39)" transform="matrix(1 0 0 1 515.708305 353.7)"/><path d="M44.91 -186.6348Q33.39 -186.6348 26.64 -188.3448Q19.89 -190.0548 16.47 -195.4548Q13.05 -200.8548 12.15 -210.9348Q11.25 -221.0148 11.25 -237.7548Q11.25 -258.9948 11.61 -280.1448Q11.97 -301.2948 11.97 -322.5348Q11.97 -325.2348 12.42 -326.9448Q12.87 -328.6548 14.31 -329.6448Q15.75 -330.6348 18.27 -331.0848Q20.79 -331.5348 25.11 -331.5348Q29.25 -331.5348 31.86 -330.9948Q34.47 -330.4548 36 -329.0148Q37.53 -327.5748 38.07 -324.9648Q38.61 -322.3548 38.61 -318.2148Q38.61 -301.2948 38.07 -284.8248Q37.53 -268.3548 37.53 -251.4348Q37.53 -235.0548 37.89 -225.5148Q38.25 -215.9748 39.69 -211.0248Q41.13 -206.0748 43.92 -204.7248Q46.71 -203.3748 51.57 -203.3748Q56.07 -203.3748 59.67 -206.1648Q63.27 -208.9548 66.06 -213.2748Q68.85 -217.5948 71.01 -222.8148Q73.17 -228.0348 74.79 -232.8948Q74.43 -255.0348 74.16 -276.8148Q73.89 -298.5948 73.53 -320.7348Q73.53 -324.5148 73.62 -326.7648Q73.71 -329.0148 74.61 -330.0948Q75.51 -331.1748 77.31 -331.5348Q79.11 -331.8948 82.35 -331.8948Q85.59 -331.8948 87.48 -331.4448Q89.37 -330.9948 90.36 -329.7348Q91.35 -328.4748 91.71 -326.0448Q92.07 -323.6148 92.07 -319.4748Q92.43 -303.4548 92.16 -287.5248Q91.89 -271.5948 92.07 -255.5748Q92.07 -253.4148 92.25 -248.3748Q92.43 -243.3348 92.61 -236.7648Q92.79 -230.1948 92.97 -222.9948Q93.15 -215.7948 93.33 -209.2248Q93.51 -202.6548 93.69 -197.5248Q93.87 -192.3948 93.87 -190.2348Q93.87 -186.9948 92.16 -185.8248Q90.45 -184.6548 84.15 -184.6548Q78.39 -184.6548 76.86 -185.7348Q75.33 -186.8148 75.33 -190.2348Q75.33 -192.9348 75.24 -196.7148Q75.15 -200.4948 75.15 -205.1748Q72.81 -201.7548 69.93 -198.3348Q67.05 -194.9148 63.36 -192.3948Q59.67 -189.8748 55.08 -188.2548Q50.49 -186.6348 44.91 -186.6348Z" fill="rgb(249, 176, 39)" transform="matrix(1 0 0 1 515.708305 353.7)"/><path d="M134.91 -186.9948Q125.01 -186.9948 118.8 -188.2548Q112.59 -189.5148 108.99 -192.6648Q105.39 -195.8148 104.04 -201.2148Q102.69 -206.6148 102.69 -214.8948Q102.69 -224.0748 103.86 -230.4648Q105.03 -236.8548 106.74 -241.1748Q108.45 -245.4948 110.43 -248.1948Q112.41 -250.8948 113.85 -252.5148Q117.27 -256.4748 118.35 -257.2848Q119.43 -258.0948 120.69 -258.0948Q124.47 -258.0948 127.26 -255.9348Q130.05 -253.7748 130.05 -250.5348Q130.05 -249.8148 129.6 -249.0048Q129.15 -248.1948 127.17 -245.4948Q125.73 -243.6948 124.38 -241.6248Q123.03 -239.5548 121.95 -236.8548Q120.87 -234.1548 120.15 -230.2848Q119.43 -226.4148 119.43 -220.8348Q119.43 -215.6148 120.24 -211.8348Q121.05 -208.0548 123.21 -205.5348Q125.37 -203.0148 129.33 -201.8448Q133.29 -200.6748 139.41 -200.6748Q149.85 -200.6748 154.62 -204.3648Q159.39 -208.0548 159.39 -217.5948Q159.39 -227.1348 155.34 -234.3348Q151.29 -241.5348 145.17 -247.8348Q139.05 -254.1348 132.03 -260.0748Q125.01 -266.0148 118.89 -272.8548Q112.77 -279.6948 108.72 -288.0648Q104.67 -296.4348 104.67 -307.5948Q104.67 -314.4348 106.56 -319.2948Q108.45 -324.1548 112.86 -327.3048Q117.27 -330.4548 124.56 -331.8948Q131.85 -333.3348 142.65 -333.3348Q152.91 -333.3348 159.66 -331.8048Q166.41 -330.2748 170.55 -326.1348Q174.69 -321.9948 176.4 -314.6148Q178.11 -307.2348 178.11 -295.5348Q178.11 -291.9348 177.3 -290.7648Q176.49 -289.5948 172.17 -289.5948Q166.59 -289.5948 165.51 -291.1248Q164.43 -292.6548 164.43 -295.8948Q164.43 -301.8348 163.53 -305.1648Q162.63 -308.4948 160.65 -310.2048Q158.67 -311.9148 155.61 -312.3648Q152.55 -312.8148 148.41 -312.8148Q143.01 -312.8148 139.5 -312.3648Q135.99 -311.9148 134.01 -310.8348Q132.03 -309.7548 131.31 -308.0448Q130.59 -306.3348 130.59 -303.6348Q130.59 -297.1548 134.01 -292.1148Q137.43 -287.0748 142.56 -282.3048Q147.69 -277.5348 153.72 -272.2248Q159.75 -266.9148 164.88 -259.8948Q170.01 -252.8748 173.43 -243.3348Q176.85 -233.7948 176.85 -220.6548Q176.85 -210.9348 174.69 -204.5448Q172.53 -198.1548 167.49 -194.1948Q162.45 -190.2348 154.53 -188.6148Q146.61 -186.9948 134.91 -186.9948Z" fill="rgb(249, 176, 39)" transform="matrix(1 0 0 1 515.708305 353.7)"/><path d="M216.81 -252.8748L216.81 -251.9748Q216.81 -237.9348 217.35 -228.3948Q217.89 -218.8548 220.05 -213.0048Q222.21 -207.1548 226.44 -204.5448Q230.67 -201.9348 238.05 -201.9348Q245.07 -201.9348 249.12 -203.3748Q253.17 -204.8148 255.24 -208.5048Q257.31 -212.1948 257.94 -218.3148Q258.57 -224.4348 258.57 -233.7948Q258.57 -240.4548 259.65 -243.2448Q260.73 -246.0348 265.95 -246.0348Q270.81 -246.0348 271.89 -243.6948Q272.97 -241.3548 272.97 -236.1348Q272.97 -222.0948 272.07 -212.6448Q271.17 -203.1948 267.57 -197.4348Q263.97 -191.6748 257.04 -189.2448Q250.11 -186.8148 237.87 -186.8148Q220.77 -186.8148 210.87 -189.2448Q200.97 -191.6748 196.02 -198.5148Q191.07 -205.3548 189.72 -217.4148Q188.37 -229.4748 188.37 -248.9148Q188.37 -269.6148 189.54 -284.0148Q190.71 -298.4148 195.39 -307.5048Q200.07 -316.5948 209.34 -320.7348Q218.61 -324.8748 234.63 -324.8748Q243.81 -324.8748 250.02 -323.0748Q256.23 -321.2748 260.01 -317.1348Q263.79 -312.9948 265.32 -306.5148Q266.85 -300.0348 266.85 -290.4948Q266.85 -279.3348 265.14 -271.8648Q263.43 -264.3948 259.2 -259.8948Q254.97 -255.3948 247.86 -253.5048Q240.75 -251.6148 229.77 -251.6148Q222.93 -251.6148 216.81 -252.8748ZM236.61 -303.0948Q230.13 -303.0948 226.35 -301.8348Q222.57 -300.5748 220.5 -296.7048Q218.43 -292.8348 217.71 -285.7248Q216.99 -278.6148 216.81 -266.9148Q219.87 -266.0148 222.84 -265.4748Q225.81 -264.9348 228.87 -264.9348Q236.07 -264.9348 240.57 -266.1948Q245.07 -267.4548 247.5 -270.4248Q249.93 -273.3948 250.74 -278.3448Q251.55 -283.2948 251.55 -290.8548Q251.55 -294.6348 250.83 -297.0648Q250.11 -299.4948 248.4 -300.8448Q246.69 -302.1948 243.81 -302.6448Q240.93 -303.0948 236.61 -303.0948Z" fill="rgb(249, 176, 39)" transform="matrix(1 0 0 1 515.708305 353.7)"/><path d="" fill="rgb(249, 176, 39)" transform="matrix(1 0 0 1 515.708305 353.7)"/><path d="M332.55 -322.3548Q332.55 -331.5348 335.61 -335.1348Q338.67 -338.7348 347.31 -338.7348Q355.95 -338.7348 359.37 -335.3148Q362.79 -331.8948 362.79 -323.7948Q362.79 -315.3348 359.01 -311.2848Q355.23 -307.2348 345.51 -307.2348Q338.13 -307.2348 335.34 -310.3848Q332.55 -313.5348 332.55 -322.3548ZM345.87 -297.8748Q350.37 -297.8748 353.07 -297.1548Q355.77 -296.4348 357.3 -293.6448Q358.83 -290.8548 359.37 -285.0048Q359.91 -279.1548 360.09 -268.8948Q360.09 -263.6748 360.18 -255.3048Q360.27 -246.9348 360.27 -238.2948Q360.27 -229.6548 360.36 -222.1848Q360.45 -214.7148 360.45 -211.1148Q360.63 -203.5548 360.18 -199.0548Q359.73 -194.5548 358.47 -192.2148Q357.21 -189.8748 354.96 -189.1548Q352.71 -188.4348 349.11 -188.4348Q343.89 -188.4348 341.01 -189.4248Q338.13 -190.4148 336.78 -192.3948Q335.43 -194.3748 335.07 -197.3448Q334.71 -200.3148 334.71 -204.2748Q334.53 -215.7948 334.44 -225.2448Q334.35 -234.6948 334.35 -243.2448Q334.35 -251.7948 334.35 -259.8948Q334.35 -267.9948 334.17 -276.6348Q333.99 -284.0148 334.08 -288.2448Q334.17 -292.4748 335.16 -294.6348Q336.15 -296.7948 338.67 -297.3348Q341.19 -297.8748 345.87 -297.8748Z" fill="rgb(249, 176, 39)" transform="matrix(1 0 0 1 515.708305 353.7)"/><path d="" fill="rgb(249, 176, 39)" transform="matrix(1 0 0 1 515.708305 353.7)"/><path d="M-447.12 63.5652Q-451.98 63.5652 -454.68 62.8452Q-457.38 62.1252 -458.64 59.8752Q-459.9 57.6252 -460.08 53.5752Q-460.26 49.5252 -460.08 42.8652Q-459.18 17.3052 -458.01 -7.8948Q-456.84 -33.0948 -455.94 -58.6548Q-455.58 -65.6748 -452.16 -67.8348Q-448.74 -69.9948 -440.82 -69.9948Q-432.72 -69.9948 -430.29 -66.5748Q-427.86 -63.1548 -428.22 -54.5148Q-428.58 -42.6348 -429.21 -30.6648Q-429.84 -18.6948 -430.74 -6.8148Q-422.1 -8.2548 -413.01 -9.4248Q-403.92 -10.5948 -395.46 -11.6748Q-395.1 -23.7348 -394.92 -35.7948Q-394.74 -47.8548 -394.74 -59.9148Q-394.74 -63.5148 -394.29 -65.4948Q-393.84 -67.4748 -392.85 -68.4648Q-391.86 -69.4548 -390.15 -69.7248Q-388.44 -69.9948 -386.1 -69.9948Q-383.04 -69.9948 -381.33 -69.6348Q-379.62 -69.2748 -378.81 -68.0148Q-378 -66.7548 -377.73 -64.4148Q-377.46 -62.0748 -377.46 -58.2948Q-377.46 -31.8348 -378.18 -5.6448Q-378.9 20.5452 -378.9 47.0052Q-378.9 52.0452 -378.81 55.2852Q-378.72 58.5252 -379.53 60.3252Q-380.34 62.1252 -382.5 62.8452Q-384.66 63.5652 -388.98 63.5652Q-391.68 63.5652 -393.21 63.1152Q-394.74 62.6652 -395.55 61.2252Q-396.36 59.7852 -396.54 57.2652Q-396.72 54.7452 -396.72 50.6052Q-396.72 46.4652 -396.45 42.5952Q-396.18 38.7252 -396.18 34.5852Q-396.18 27.0252 -396.09 19.5552Q-396 12.0852 -395.82 4.5252Q-401.58 5.2452 -407.25 5.8752Q-412.92 6.5052 -418.68 7.2252L-431.82 9.0252Q-432.36 18.2052 -432.81 27.1152Q-433.26 36.0252 -433.62 45.2052Q-433.8 51.1452 -434.34 54.8352Q-434.88 58.5252 -436.23 60.4152Q-437.58 62.3052 -440.19 62.9352Q-442.8 63.5652 -447.12 63.5652Z" fill="rgb(249, 176, 39)" transform="matrix(1 0 0 1 515.708305 353.7)"/><path d="M-316.08 -6.8148Q-316.08 -10.0548 -315.99 -16.3548Q-315.9 -22.6548 -316.26 -29.4048Q-316.62 -36.1548 -317.61 -42.0048Q-318.6 -47.8548 -320.94 -50.3748Q-322.38 -51.9948 -324.54 -52.4448Q-326.7 -52.8948 -328.68 -52.8948Q-338.4 -52.8948 -343.35 -50.1048Q-348.3 -47.3148 -350.46 -43.1748Q-352.62 -39.0348 -352.8 -34.2648Q-352.98 -29.4948 -353.34 -25.3548Q-353.7 -21.2148 -355.05 -18.4248Q-356.4 -15.6348 -360.72 -15.6348Q-365.4 -15.6348 -366.57 -18.6948Q-367.74 -21.7548 -367.74 -25.5348Q-367.74 -37.4148 -366.57 -46.3248Q-365.4 -55.2348 -361.35 -61.1748Q-357.3 -67.1148 -349.47 -69.9948Q-341.64 -72.8748 -328.5 -72.8748Q-320.22 -72.8748 -313.56 -72.0648Q-306.9 -71.2548 -302.04 -68.4648Q-297.18 -65.6748 -294.03 -60.3648Q-290.88 -55.0548 -289.44 -46.0548Q-288 -37.4148 -287.82 -28.5048Q-287.64 -19.5948 -287.64 -10.7748Q-287.64 -8.6148 -287.82 -2.5848Q-288 3.4452 -288.27 11.1852Q-288.54 18.9252 -288.9 27.5652Q-289.26 36.2052 -289.62 43.6752Q-289.98 51.1452 -290.25 56.6352Q-290.52 62.1252 -290.88 63.3852Q-291.06 64.8252 -292.23 65.7252Q-293.4 66.6252 -294.93 67.1652Q-296.46 67.7052 -298.26 67.8852Q-300.06 68.0652 -301.5 68.0652Q-304.56 68.0652 -306.72 66.7152Q-308.88 65.3652 -310.41 63.2952Q-311.94 61.2252 -312.84 58.7052Q-313.74 56.1852 -314.28 53.6652Q-317.88 58.5252 -323.01 61.8552Q-328.14 65.1852 -333.9 65.1852Q-343.26 65.1852 -349.47 63.2052Q-355.68 61.2252 -359.37 56.9952Q-363.06 52.7652 -364.59 46.2852Q-366.12 39.8052 -366.12 30.8052Q-366.12 19.2852 -364.77 11.7252Q-363.42 4.1652 -359.37 -0.2448Q-355.32 -4.6548 -348.12 -6.3648Q-340.92 -8.0748 -329.04 -8.0748Q-325.8 -8.0748 -322.56 -7.7148Q-319.32 -7.3548 -316.08 -6.8148ZM-316.44 30.8052Q-316.8 25.7652 -316.8 21.4452Q-316.8 17.1252 -316.8 14.6052Q-316.8 12.6252 -316.8 10.8252Q-316.8 9.0252 -316.62 7.0452Q-319.5 6.1452 -322.29 5.6952Q-325.08 5.2452 -328.14 5.2452Q-336.42 5.2452 -341.01 6.3252Q-345.6 7.4052 -347.76 10.2852Q-349.92 13.1652 -350.37 18.2052Q-350.82 23.2452 -350.82 31.1652Q-350.82 35.3052 -350.28 38.6352Q-349.74 41.9652 -348.21 44.2152Q-346.68 46.4652 -343.89 47.6352Q-341.1 48.8052 -336.42 48.8052Q-331.92 48.8052 -328.68 47.5452Q-325.44 46.2852 -323.19 43.9452Q-320.94 41.6052 -319.32 38.3652Q-317.7 35.1252 -316.62 31.3452Q-316.62 31.1652 -316.53 31.0752Q-316.44 30.9852 -316.44 30.8052Z" fill="rgb(249, 176, 39)" transform="matrix(1 0 0 1 515.708305 353.7)"/><path d="M-238.14 63.5652Q-242.64 63.5652 -245.61 62.7552Q-248.58 61.9452 -250.56 59.6952Q-252.54 57.4452 -254.07 53.5752Q-255.6 49.7052 -257.22 43.5852Q-261.36 27.7452 -265.5 11.9052Q-269.64 -3.9348 -273.6 -19.7748Q-274.32 -22.4748 -275.76 -27.7848Q-277.2 -33.0948 -278.55 -38.9448Q-279.9 -44.7948 -280.98 -50.0148Q-282.06 -55.2348 -282.06 -57.7548Q-282.06 -61.3548 -281.52 -63.5148Q-280.98 -65.6748 -279.36 -66.8448Q-277.74 -68.0148 -275.04 -68.3748Q-272.34 -68.7348 -268.02 -68.7348Q-264.96 -68.7348 -262.98 -68.1948Q-261 -67.6548 -259.65 -66.1248Q-258.3 -64.5948 -257.4 -61.8948Q-256.5 -59.1948 -255.6 -54.8748Q-254.88 -51.6348 -253.44 -43.7148Q-252 -35.7948 -250.29 -25.8048Q-248.58 -15.8148 -246.51 -4.9248Q-244.44 5.9652 -242.55 14.8752Q-240.66 23.7852 -238.86 29.6352Q-237.06 35.4852 -235.8 35.4852Q-233.28 35.4852 -232.02 33.8652Q-230.76 32.2452 -229.86 30.2652Q-227.34 25.0452 -224.64 15.2352Q-221.94 5.4252 -219.06 -6.2748Q-216.18 -17.9748 -213.39 -30.2148Q-210.6 -42.4548 -208.26 -52.1748Q-207.18 -56.8548 -206.37 -59.9148Q-205.56 -62.9748 -204.57 -64.8648Q-203.58 -66.7548 -202.05 -67.4748Q-200.52 -68.1948 -197.82 -68.1948Q-192.42 -68.1948 -191.16 -66.4848Q-189.9 -64.7748 -189.9 -59.0148Q-189.9 -55.9548 -191.7 -47.8548Q-193.5 -39.7548 -196.29 -29.3148Q-199.08 -18.8748 -202.5 -6.9948Q-205.92 4.8852 -209.16 15.5952Q-212.4 26.3052 -215.19 34.8552Q-217.98 43.4052 -219.42 47.3652Q-221.58 52.9452 -223.29 56.2752Q-225 59.6052 -227.07 61.2252Q-229.14 62.8452 -231.75 63.2052Q-234.36 63.5652 -238.14 63.5652Z" fill="rgb(249, 176, 39)" transform="matrix(1 0 0 1 515.708305 353.7)"/><path d="M-154.26 -0.8748L-154.26 0.0252Q-154.26 14.0652 -153.72 23.6052Q-153.18 33.1452 -151.02 38.9952Q-148.86 44.8452 -144.63 47.4552Q-140.4 50.0652 -133.02 50.0652Q-126 50.0652 -121.95 48.6252Q-117.9 47.1852 -115.83 43.4952Q-113.76 39.8052 -113.13 33.6852Q-112.5 27.5652 -112.5 18.2052Q-112.5 11.5452 -111.42 8.7552Q-110.34 5.9652 -105.12 5.9652Q-100.26 5.9652 -99.18 8.3052Q-98.1 10.6452 -98.1 15.8652Q-98.1 29.9052 -99 39.3552Q-99.9 48.8052 -103.5 54.5652Q-107.1 60.3252 -114.03 62.7552Q-120.96 65.1852 -133.2 65.1852Q-150.3 65.1852 -160.2 62.7552Q-170.1 60.3252 -175.05 53.4852Q-180 46.6452 -181.35 34.5852Q-182.7 22.5252 -182.7 3.0852Q-182.7 -17.6148 -181.53 -32.0148Q-180.36 -46.4148 -175.68 -55.5048Q-171 -64.5948 -161.73 -68.7348Q-152.46 -72.8748 -136.44 -72.8748Q-127.26 -72.8748 -121.05 -71.0748Q-114.84 -69.2748 -111.06 -65.1348Q-107.28 -60.9948 -105.75 -54.5148Q-104.22 -48.0348 -104.22 -38.4948Q-104.22 -27.3348 -105.93 -19.8648Q-107.64 -12.3948 -111.87 -7.8948Q-116.1 -3.3948 -123.21 -1.5048Q-130.32 0.3852 -141.3 0.3852Q-148.14 0.3852 -154.26 -0.8748ZM-134.46 -51.0948Q-140.94 -51.0948 -144.72 -49.8348Q-148.5 -48.5748 -150.57 -44.7048Q-152.64 -40.8348 -153.36 -33.7248Q-154.08 -26.6148 -154.26 -14.9148Q-151.2 -14.0148 -148.23 -13.4748Q-145.26 -12.9348 -142.2 -12.9348Q-135 -12.9348 -130.5 -14.1948Q-126 -15.4548 -123.57 -18.4248Q-121.14 -21.3948 -120.33 -26.3448Q-119.52 -31.2948 -119.52 -38.8548Q-119.52 -42.6348 -120.24 -45.0648Q-120.96 -47.4948 -122.67 -48.8448Q-124.38 -50.1948 -127.26 -50.6448Q-130.14 -51.0948 -134.46 -51.0948Z" fill="rgb(249, 176, 39)" transform="matrix(1 0 0 1 515.708305 353.7)"/><path d="" fill="rgb(249, 176, 39)" transform="matrix(1 0 0 1 515.708305 353.7)"/><path d="M-10.08 0.0252Q-10.08 16.4052 -9.54 26.2152Q-9 36.0252 -7.56 41.3352Q-6.12 46.6452 -3.78 48.3552Q-1.44 50.0652 1.98 50.0652Q7.92 50.0652 11.34 48.6252Q14.76 47.1852 16.65 43.4952Q18.54 39.8052 19.08 33.6852Q19.62 27.5652 19.62 18.2052Q19.62 11.5452 20.7 8.7552Q21.78 5.9652 27 5.9652Q31.86 5.9652 32.94 8.3052Q34.02 10.6452 34.02 15.8652Q34.02 29.9052 33.12 39.3552Q32.22 48.8052 28.62 54.5652Q25.02 60.3252 18.09 62.7552Q11.16 65.1852 -1.08 65.1852Q-12.6 65.1852 -19.71 62.7552Q-26.82 60.3252 -30.69 53.4852Q-34.56 46.6452 -35.82 34.5852Q-37.08 22.5252 -37.08 3.0852Q-37.08 -2.3148 -36.9 -10.5948Q-36.72 -18.8748 -36.54 -28.1448Q-36.36 -37.4148 -36.18 -47.0448Q-36 -56.6748 -36 -64.9548Q-36 -68.5548 -33.03 -69.9048Q-30.06 -71.2548 -23.76 -71.2548Q-16.2 -71.2548 -12.78 -69.8148Q-9.36 -68.3748 -9.36 -64.2348Q-9.36 -59.7348 -9.36 -54.6048Q-9.36 -49.4748 -9.54 -44.0748Q-6.66 -44.0748 -3.96 -44.1648Q-1.26 -44.2548 1.62 -44.2548L22.68 -44.2548Q28.08 -44.2548 30.51 -42.9048Q32.94 -41.5548 32.94 -35.6148Q32.94 -33.0948 31.95 -31.7448Q30.96 -30.3948 29.52 -29.8548Q28.08 -29.3148 26.19 -29.2248Q24.3 -29.1348 22.32 -29.1348Q13.5 -29.1348 6.3 -28.9548Q-0.9 -28.7748 -9.72 -28.9548Q-9.9 -21.0348 -9.99 -13.6548Q-10.08 -6.2748 -10.08 0.0252Z" fill="rgb(249, 176, 39)" transform="matrix(1 0 0 1 515.708305 353.7)"/><path d="M45.9 -5.3748Q46.26 -26.0748 48.51 -40.3848Q50.76 -54.6948 56.16 -63.6048Q61.56 -72.5148 70.74 -76.5648Q79.92 -80.6148 94.14 -80.6148Q107.64 -80.6148 115.92 -75.1248Q124.2 -69.6348 128.61 -59.6448Q133.02 -49.6548 134.37 -35.6148Q135.72 -21.5748 135.36 -4.4748Q135 12.6252 133.11 25.8552Q131.22 39.0852 126.36 48.0852Q121.5 57.0852 113.04 61.6752Q104.58 66.2652 91.26 66.2652Q76.5 66.2652 67.41 62.8452Q58.32 59.4252 53.46 51.1452Q48.6 42.8652 47.07 29.0952Q45.54 15.3252 45.9 -5.3748ZM70.02 -4.6548Q69.84 12.0852 70.83 23.1552Q71.82 34.2252 74.61 40.7952Q77.4 47.3652 82.08 49.9752Q86.76 52.5852 93.78 52.5852Q100.8 52.5852 105.48 49.7052Q110.16 46.8252 112.95 40.3452Q115.74 33.8652 117.09 23.3352Q118.44 12.8052 118.62 -2.4948Q118.98 -17.7948 117.81 -28.7748Q116.64 -39.7548 113.76 -46.7748Q110.88 -53.7948 106.02 -57.1248Q101.16 -60.4548 94.14 -60.4548Q87.12 -60.4548 82.53 -58.0248Q77.94 -55.5948 75.24 -49.2948Q72.54 -42.9948 71.46 -32.1948Q70.38 -21.3948 70.02 -4.6548Z" fill="rgb(249, 176, 39)" transform="matrix(1 0 0 1 515.708305 353.7)"/><path d="" fill="rgb(249, 176, 39)" transform="matrix(1 0 0 1 515.708305 353.7)"/><path d="M277.74 -47.3148Q277.74 -43.8948 276.39 -41.3748Q275.04 -38.8548 271.26 -38.8548Q267.66 -38.8548 265.41 -39.1248Q263.16 -39.3948 261.81 -40.4748Q260.46 -41.5548 260.01 -43.4448Q259.56 -45.3348 259.56 -48.5748Q259.56 -54.3348 255.51 -57.6648Q251.46 -60.9948 240.84 -60.9948Q233.1 -60.9948 228.78 -57.9348Q224.46 -54.8748 222.57 -47.8548Q220.68 -40.8348 220.32 -29.4948Q219.96 -18.1548 219.96 -1.5948Q219.96 10.8252 222.39 20.6352Q224.82 30.4452 229.05 37.3752Q233.28 44.3052 238.77 47.9952Q244.26 51.6852 250.38 51.6852Q255.24 51.6852 258.39 49.5252Q261.54 47.3652 263.43 43.9452Q265.32 40.5252 266.13 36.1152Q266.94 31.7052 267.12 27.2052Q267.3 22.7052 267.21 18.4752Q267.12 14.2452 267.12 11.1852Q267.12 5.6052 265.5 4.4352Q263.88 3.2652 259.74 4.1652Q256.14 4.8852 251.55 6.0552Q246.96 7.2252 243.18 7.2252Q239.04 7.2252 236.43 6.3252Q233.82 5.4252 233.82 1.1052Q233.82 -3.0348 236.61 -4.2948Q239.4 -5.5548 242.46 -5.9148Q250.38 -6.8148 257.67 -8.2548Q264.96 -9.6948 273.06 -10.5948Q276.48 -10.9548 278.28 -9.7848Q280.08 -8.6148 280.89 -6.0948Q281.7 -3.5748 281.79 0.3852Q281.88 4.3452 281.88 9.3852Q281.88 18.9252 280.53 28.8252Q279.18 38.7252 274.86 46.8252Q270.54 54.9252 262.62 60.0552Q254.7 65.1852 241.56 65.1852Q230.04 65.1852 220.77 60.8652Q211.5 56.5452 205.02 47.8152Q198.54 39.0852 195.03 26.1252Q191.52 13.1652 191.52 -4.1148Q191.52 -24.2748 192.96 -38.6748Q194.4 -53.0748 199.53 -62.2548Q204.66 -71.4348 214.38 -75.7548Q224.1 -80.0748 240.66 -80.0748Q248.22 -80.0748 254.88 -78.0048Q261.54 -75.9348 266.67 -71.7948Q271.8 -67.6548 274.77 -61.5348Q277.74 -55.4148 277.74 -47.3148Z" fill="rgb(249, 176, 39)" transform="matrix(1 0 0 1 515.708305 353.7)"/><path d="M320.04 -0.8748L320.04 0.0252Q320.04 14.0652 320.58 23.6052Q321.12 33.1452 323.28 38.9952Q325.44 44.8452 329.67 47.4552Q333.9 50.0652 341.28 50.0652Q348.3 50.0652 352.35 48.6252Q356.4 47.1852 358.47 43.4952Q360.54 39.8052 361.17 33.6852Q361.8 27.5652 361.8 18.2052Q361.8 11.5452 362.88 8.7552Q363.96 5.9652 369.18 5.9652Q374.04 5.9652 375.12 8.3052Q376.2 10.6452 376.2 15.8652Q376.2 29.9052 375.3 39.3552Q374.4 48.8052 370.8 54.5652Q367.2 60.3252 360.27 62.7552Q353.34 65.1852 341.1 65.1852Q324 65.1852 314.1 62.7552Q304.2 60.3252 299.25 53.4852Q294.3 46.6452 292.95 34.5852Q291.6 22.5252 291.6 3.0852Q291.6 -17.6148 292.77 -32.0148Q293.94 -46.4148 298.62 -55.5048Q303.3 -64.5948 312.57 -68.7348Q321.84 -72.8748 337.86 -72.8748Q347.04 -72.8748 353.25 -71.0748Q359.46 -69.2748 363.24 -65.1348Q367.02 -60.9948 368.55 -54.5148Q370.08 -48.0348 370.08 -38.4948Q370.08 -27.3348 368.37 -19.8648Q366.66 -12.3948 362.43 -7.8948Q358.2 -3.3948 351.09 -1.5048Q343.98 0.3852 333 0.3852Q326.16 0.3852 320.04 -0.8748ZM339.84 -51.0948Q333.36 -51.0948 329.58 -49.8348Q325.8 -48.5748 323.73 -44.7048Q321.66 -40.8348 320.94 -33.7248Q320.22 -26.6148 320.04 -14.9148Q323.1 -14.0148 326.07 -13.4748Q329.04 -12.9348 332.1 -12.9348Q339.3 -12.9348 343.8 -14.1948Q348.3 -15.4548 350.73 -18.4248Q353.16 -21.3948 353.97 -26.3448Q354.78 -31.2948 354.78 -38.8548Q354.78 -42.6348 354.06 -45.0648Q353.34 -47.4948 351.63 -48.8448Q349.92 -50.1948 347.04 -50.6448Q344.16 -51.0948 339.84 -51.0948Z" fill="rgb(249, 176, 39)" transform="matrix(1 0 0 1 515.708305 353.7)"/><path d="M415.62 0.0252Q415.62 16.4052 416.16 26.2152Q416.7 36.0252 418.14 41.3352Q419.58 46.6452 421.92 48.3552Q424.26 50.0652 427.68 50.0652Q433.62 50.0652 437.04 48.6252Q440.46 47.1852 442.35 43.4952Q444.24 39.8052 444.78 33.6852Q445.32 27.5652 445.32 18.2052Q445.32 11.5452 446.4 8.7552Q447.48 5.9652 452.7 5.9652Q457.56 5.9652 458.64 8.3052Q459.72 10.6452 459.72 15.8652Q459.72 29.9052 458.82 39.3552Q457.92 48.8052 454.32 54.5652Q450.72 60.3252 443.79 62.7552Q436.86 65.1852 424.62 65.1852Q413.1 65.1852 405.99 62.7552Q398.88 60.3252 395.01 53.4852Q391.14 46.6452 389.88 34.5852Q388.62 22.5252 388.62 3.0852Q388.62 -2.3148 388.8 -10.5948Q388.98 -18.8748 389.16 -28.1448Q389.34 -37.4148 389.52 -47.0448Q389.7 -56.6748 389.7 -64.9548Q389.7 -68.5548 392.67 -69.9048Q395.64 -71.2548 401.94 -71.2548Q409.5 -71.2548 412.92 -69.8148Q416.34 -68.3748 416.34 -64.2348Q416.34 -59.7348 416.34 -54.6048Q416.34 -49.4748 416.16 -44.0748Q419.04 -44.0748 421.74 -44.1648Q424.44 -44.2548 427.32 -44.2548L448.38 -44.2548Q453.78 -44.2548 456.21 -42.9048Q458.64 -41.5548 458.64 -35.6148Q458.64 -33.0948 457.65 -31.7448Q456.66 -30.3948 455.22 -29.8548Q453.78 -29.3148 451.89 -29.2248Q450 -29.1348 448.02 -29.1348Q439.2 -29.1348 432 -28.9548Q424.8 -28.7748 415.98 -28.9548Q415.8 -21.0348 415.71 -13.6548Q415.62 -6.2748 415.62 0.0252Z" fill="rgb(249, 176, 39)" transform="matrix(1 0 0 1 515.708305 353.7)"/><path d="" fill="rgb(249, 176, 39)" transform="matrix(1 0 0 1 515.708305 353.7)"/><path d="" fill="rgb(249, 176, 39)" transform="matrix(1 0 0 1 515.708305 353.7)"/><path d="M-290.52 317.3652Q-302.04 317.3652 -308.79 315.6552Q-315.54 313.9452 -318.96 308.5452Q-322.38 303.1452 -323.28 293.0652Q-324.18 282.9852 -324.18 266.2452Q-324.18 245.0052 -323.82 223.8552Q-323.46 202.7052 -323.46 181.4652Q-323.46 178.7652 -323.01 177.0552Q-322.56 175.3452 -321.12 174.3552Q-319.68 173.3652 -317.16 172.9152Q-314.64 172.4652 -310.32 172.4652Q-306.18 172.4652 -303.57 173.0052Q-300.96 173.5452 -299.43 174.9852Q-297.9 176.4252 -297.36 179.0352Q-296.82 181.6452 -296.82 185.7852Q-296.82 202.7052 -297.36 219.1752Q-297.9 235.6452 -297.9 252.5652Q-297.9 268.9452 -297.54 278.4852Q-297.18 288.0252 -295.74 292.9752Q-294.3 297.9252 -291.51 299.2752Q-288.72 300.6252 -283.86 300.6252Q-279.36 300.6252 -275.76 297.8352Q-272.16 295.0452 -269.37 290.7252Q-266.58 286.4052 -264.42 281.1852Q-262.26 275.9652 -260.64 271.1052Q-261 248.9652 -261.27 227.1852Q-261.54 205.4052 -261.9 183.2652Q-261.9 179.4852 -261.81 177.2352Q-261.72 174.9852 -260.82 173.9052Q-259.92 172.8252 -258.12 172.4652Q-256.32 172.1052 -253.08 172.1052Q-249.84 172.1052 -247.95 172.5552Q-246.06 173.0052 -245.07 174.2652Q-244.08 175.5252 -243.72 177.9552Q-243.36 180.3852 -243.36 184.5252Q-243 200.5452 -243.27 216.4752Q-243.54 232.4052 -243.36 248.4252Q-243.36 250.5852 -243.18 255.6252Q-243 260.6652 -242.82 267.2352Q-242.64 273.8052 -242.46 281.0052Q-242.28 288.2052 -242.1 294.7752Q-241.92 301.3452 -241.74 306.4752Q-241.56 311.6052 -241.56 313.7652Q-241.56 317.0052 -243.27 318.1752Q-244.98 319.3452 -251.28 319.3452Q-257.04 319.3452 -258.57 318.2652Q-260.1 317.1852 -260.1 313.7652Q-260.1 311.0652 -260.19 307.2852Q-260.28 303.5052 -260.28 298.8252Q-262.62 302.2452 -265.5 305.6652Q-268.38 309.0852 -272.07 311.6052Q-275.76 314.1252 -280.35 315.7452Q-284.94 317.3652 -290.52 317.3652Z" fill="rgb(249, 176, 39)" transform="matrix(1 0 0 1 515.708305 353.7)"/><path d="M-228.42 293.6052Q-228.96 269.1252 -228.78 245.0952Q-228.6 221.0652 -229.14 196.7652Q-229.14 194.0652 -228.96 190.3752Q-228.78 186.6852 -227.61 183.3552Q-226.44 180.0252 -224.01 177.6852Q-221.58 175.3452 -217.26 175.3452Q-213.66 175.3452 -209.07 175.1652Q-204.48 174.9852 -199.8 174.9852L-190.44 175.5252Q-177.3 176.2452 -169.11 179.6652Q-160.92 183.0852 -156.42 189.3852Q-151.92 195.6852 -150.3 205.0452Q-148.68 214.4052 -148.68 227.0052Q-148.68 239.7852 -150.48 248.6952Q-152.28 257.6052 -156.87 263.3652Q-161.46 269.1252 -169.47 272.0052Q-177.48 274.8852 -189.9 275.4252Q-196.02 275.7852 -198.99 276.3252Q-201.96 276.8652 -201.96 279.7452Q-201.96 281.1852 -201.96 282.1752Q-201.96 283.1652 -201.96 284.6952Q-201.96 286.2252 -201.96 288.7452Q-201.96 291.2652 -201.78 295.9452Q-201.6 302.7852 -201.87 306.7452Q-202.14 310.7052 -203.31 312.6852Q-204.48 314.6652 -206.82 315.1152Q-209.16 315.5652 -213.3 315.5652Q-218.34 315.5652 -221.31 314.9352Q-224.28 314.3052 -225.81 312.0552Q-227.34 309.8052 -227.79 305.3952Q-228.24 300.9852 -228.42 293.6052ZM-190.98 195.8652Q-198.36 195.8652 -201.06 196.9452Q-203.76 198.0252 -203.76 200.5452Q-203.4 214.5852 -203.13 228.7152Q-202.86 242.8452 -202.5 256.8852Q-202.5 259.4052 -200.52 260.0352Q-198.54 260.6652 -193.14 260.6652Q-183.78 260.6652 -178.11 258.8652Q-172.44 257.0652 -169.47 252.9252Q-166.5 248.7852 -165.51 242.0352Q-164.52 235.2852 -164.52 225.2052Q-164.52 218.7252 -165.78 213.4152Q-167.04 208.1052 -170.1 204.1452Q-173.16 200.1852 -178.2 198.0252Q-183.24 195.8652 -190.98 195.8652Z" fill="rgb(249, 176, 39)" transform="matrix(1 0 0 1 515.708305 353.7)"/><path d="" fill="rgb(249, 176, 39)" transform="matrix(1 0 0 1 515.708305 353.7)"/><path d="M-62.46 251.1252L-62.46 252.0252Q-62.46 266.0652 -61.92 275.6052Q-61.38 285.1452 -59.22 290.9952Q-57.06 296.8452 -52.83 299.4552Q-48.6 302.0652 -41.22 302.0652Q-34.2 302.0652 -30.15 300.6252Q-26.1 299.1852 -24.03 295.4952Q-21.96 291.8052 -21.33 285.6852Q-20.7 279.5652 -20.7 270.2052Q-20.7 263.5452 -19.62 260.7552Q-18.54 257.9652 -13.32 257.9652Q-8.46 257.9652 -7.38 260.3052Q-6.3 262.6452 -6.3 267.8652Q-6.3 281.9052 -7.2 291.3552Q-8.1 300.8052 -11.7 306.5652Q-15.3 312.3252 -22.23 314.7552Q-29.16 317.1852 -41.4 317.1852Q-58.5 317.1852 -68.4 314.7552Q-78.3 312.3252 -83.25 305.4852Q-88.2 298.6452 -89.55 286.5852Q-90.9 274.5252 -90.9 255.0852Q-90.9 234.3852 -89.73 219.9852Q-88.56 205.5852 -83.88 196.4952Q-79.2 187.4052 -69.93 183.2652Q-60.66 179.1252 -44.64 179.1252Q-35.46 179.1252 -29.25 180.9252Q-23.04 182.7252 -19.26 186.8652Q-15.48 191.0052 -13.95 197.4852Q-12.42 203.9652 -12.42 213.5052Q-12.42 224.6652 -14.13 232.1352Q-15.84 239.6052 -20.07 244.1052Q-24.3 248.6052 -31.41 250.4952Q-38.52 252.3852 -49.5 252.3852Q-56.34 252.3852 -62.46 251.1252ZM-42.66 200.9052Q-49.14 200.9052 -52.92 202.1652Q-56.7 203.4252 -58.77 207.2952Q-60.84 211.1652 -61.56 218.2752Q-62.28 225.3852 -62.46 237.0852Q-59.4 237.9852 -56.43 238.5252Q-53.46 239.0652 -50.4 239.0652Q-43.2 239.0652 -38.7 237.8052Q-34.2 236.5452 -31.77 233.5752Q-29.34 230.6052 -28.53 225.6552Q-27.72 220.7052 -27.72 213.1452Q-27.72 209.3652 -28.44 206.9352Q-29.16 204.5052 -30.87 203.1552Q-32.58 201.8052 -35.46 201.3552Q-38.34 200.9052 -42.66 200.9052Z" fill="rgb(249, 176, 39)" transform="matrix(1 0 0 1 515.708305 353.7)"/><path d="M52.92 245.1852Q52.92 241.9452 53.01 235.6452Q53.1 229.3452 52.74 222.5952Q52.38 215.8452 51.39 209.9952Q50.4 204.1452 48.06 201.6252Q46.62 200.0052 44.46 199.5552Q42.3 199.1052 40.32 199.1052Q30.6 199.1052 25.65 201.8952Q20.7 204.6852 18.54 208.8252Q16.38 212.9652 16.2 217.7352Q16.02 222.5052 15.66 226.6452Q15.3 230.7852 13.95 233.5752Q12.6 236.3652 8.28 236.3652Q3.6 236.3652 2.43 233.3052Q1.26 230.2452 1.26 226.4652Q1.26 214.5852 2.43 205.6752Q3.6 196.7652 7.65 190.8252Q11.7 184.8852 19.53 182.0052Q27.36 179.1252 40.5 179.1252Q48.78 179.1252 55.44 179.9352Q62.1 180.7452 66.96 183.5352Q71.82 186.3252 74.97 191.6352Q78.12 196.9452 79.56 205.9452Q81 214.5852 81.18 223.4952Q81.36 232.4052 81.36 241.2252Q81.36 243.3852 81.18 249.4152Q81 255.4452 80.73 263.1852Q80.46 270.9252 80.1 279.5652Q79.74 288.2052 79.38 295.6752Q79.02 303.1452 78.75 308.6352Q78.48 314.1252 78.12 315.3852Q77.94 316.8252 76.77 317.7252Q75.6 318.6252 74.07 319.1652Q72.54 319.7052 70.74 319.8852Q68.94 320.0652 67.5 320.0652Q64.44 320.0652 62.28 318.7152Q60.12 317.3652 58.59 315.2952Q57.06 313.2252 56.16 310.7052Q55.26 308.1852 54.72 305.6652Q51.12 310.5252 45.99 313.8552Q40.86 317.1852 35.1 317.1852Q25.74 317.1852 19.53 315.2052Q13.32 313.2252 9.63 308.9952Q5.94 304.7652 4.41 298.2852Q2.88 291.8052 2.88 282.8052Q2.88 271.2852 4.23 263.7252Q5.58 256.1652 9.63 251.7552Q13.68 247.3452 20.88 245.6352Q28.08 243.9252 39.96 243.9252Q43.2 243.9252 46.44 244.2852Q49.68 244.6452 52.92 245.1852ZM52.56 282.8052Q52.2 277.7652 52.2 273.4452Q52.2 269.1252 52.2 266.6052Q52.2 264.6252 52.2 262.8252Q52.2 261.0252 52.38 259.0452Q49.5 258.1452 46.71 257.6952Q43.92 257.2452 40.86 257.2452Q32.58 257.2452 27.99 258.3252Q23.4 259.4052 21.24 262.2852Q19.08 265.1652 18.63 270.2052Q18.18 275.2452 18.18 283.1652Q18.18 287.3052 18.72 290.6352Q19.26 293.9652 20.79 296.2152Q22.32 298.4652 25.11 299.6352Q27.9 300.8052 32.58 300.8052Q37.08 300.8052 40.32 299.5452Q43.56 298.2852 45.81 295.9452Q48.06 293.6052 49.68 290.3652Q51.3 287.1252 52.38 283.3452Q52.38 283.1652 52.47 283.0752Q52.56 282.9852 52.56 282.8052Z" fill="rgb(249, 176, 39)" transform="matrix(1 0 0 1 515.708305 353.7)"/><path d="M123.12 270.7452Q123.12 271.6452 123.21 272.6352Q123.3 273.6252 123.3 274.5252Q123.66 279.7452 123.93 285.0552Q124.2 290.3652 124.56 295.7652Q124.92 300.6252 124.56 304.0452Q124.2 307.4652 123.03 309.4452Q121.86 311.4252 119.43 312.3252Q117 313.2252 113.04 313.2252Q108 313.2252 105.03 312.4152Q102.06 311.6052 100.44 309.2652Q98.82 306.9252 98.28 302.6952Q97.74 298.4652 97.38 291.6252L94.32 227.0052Q93.96 222.5052 94.05 217.9152Q94.14 213.3252 93.78 208.8252Q93.06 197.8452 93.06 191.6352Q93.06 185.4252 94.05 182.2752Q95.04 179.1252 97.2 178.4052Q99.36 177.6852 103.14 177.6852Q108.36 177.6852 113.58 177.5052Q118.8 177.3252 124.02 177.3252Q138.42 177.3252 147.42 178.6752Q156.42 180.0252 161.55 184.4352Q166.68 188.8452 168.57 197.3952Q170.46 205.9452 170.46 220.3452Q170.46 229.7052 169.56 236.8152Q168.66 243.9252 166.05 249.5052Q163.44 255.0852 158.67 259.5852Q153.9 264.0852 146.34 268.4052Q147.78 270.2052 150.39 272.5452Q153 274.8852 156.06 277.8552Q159.12 280.8252 162.27 284.2452Q165.42 287.6652 167.94 291.8052Q169.92 294.8652 171.09 296.9352Q172.26 299.0052 172.98 300.6252Q173.7 302.2452 173.88 303.7752Q174.06 305.3052 174.06 307.4652Q174.06 310.7052 172.89 311.9652Q171.72 313.2252 166.68 313.2252Q164.7 313.2252 163.71 312.8652Q162.72 312.5052 161.1 311.4252Q159.84 310.5252 157.41 307.7352Q154.98 304.9452 151.92 301.1652Q148.86 297.3852 145.53 292.8852Q142.2 288.3852 139.14 284.2452Q136.08 280.1052 133.65 276.5952Q131.22 273.0852 129.96 271.2852ZM120.6 218.1852Q120.96 226.4652 121.5 234.7452Q122.04 243.0252 122.4 251.3052Q122.4 252.7452 122.49 254.0952Q122.58 255.4452 122.58 256.8852Q132.3 256.8852 138.42 254.6352Q144.54 252.3852 147.87 247.7952Q151.2 243.2052 152.37 236.4552Q153.54 229.7052 153.54 220.7052Q153.54 214.2252 152.46 208.9152Q151.38 203.6052 148.68 199.8252Q145.98 196.0452 141.39 193.9752Q136.8 191.9052 129.78 191.9052Q124.56 191.9052 122.04 192.9852Q119.52 194.0652 119.7 197.4852Q120.06 203.2452 120.15 208.1052Q120.24 212.9652 120.6 218.1852Z" fill="rgb(249, 176, 39)" transform="matrix(1 0 0 1 515.708305 353.7)"/><path d="M195.12 315.9252Q191.16 315.9252 188.82 314.8452Q186.48 313.7652 185.31 311.4252Q184.14 309.0852 183.87 305.6652Q183.6 302.2452 183.78 297.3852L184.68 255.9852Q185.04 240.6852 185.58 225.7452Q186.12 210.8052 186.48 195.5052Q186.48 192.6252 187.02 190.7352Q187.56 188.8452 188.91 187.7652Q190.26 186.6852 192.87 186.2352Q195.48 185.7852 199.8 185.7852Q204.3 185.7852 206.91 186.3252Q209.52 186.8652 210.87 188.2152Q212.22 189.5652 212.49 191.8152Q212.76 194.0652 212.76 197.3052Q212.4 214.2252 211.23 230.9652Q210.06 247.7052 209.7 264.6252Q209.7 269.1252 209.61 272.5452Q209.52 275.9652 209.52 279.0252Q209.52 282.0852 209.43 285.3252Q209.34 288.5652 209.16 292.8852Q209.16 293.9652 209.25 295.4952Q209.34 297.0252 209.61 298.3752Q209.88 299.7252 210.51 300.6252Q211.14 301.5252 212.22 301.5252Q217.08 301.5252 224.46 300.5352Q231.84 299.5452 238.32 299.5452Q243.54 299.5452 245.52 301.2552Q247.5 302.9652 247.5 307.6452Q247.5 310.1652 247.05 311.6952Q246.6 313.2252 244.62 314.1252Q242.64 315.0252 238.5 315.3852Q234.36 315.7452 226.8 315.9252Q221.22 316.1052 215.55 316.0152Q209.88 315.9252 204.3 315.9252Z" fill="rgb(249, 176, 39)" transform="matrix(1 0 0 1 515.708305 353.7)"/><path d="M277.2 276.6852Q267.84 276.6852 261.99 274.7952Q256.14 272.9052 252.72 267.5052Q249.3 262.1052 248.04 252.3852Q246.78 242.6652 246.78 227.1852Q246.78 219.0852 246.96 211.0752Q247.14 203.0652 247.32 194.9652Q247.5 187.9452 247.41 183.5352Q247.32 179.1252 248.31 176.6952Q249.3 174.2652 252.09 173.3652Q254.88 172.4652 260.46 172.4652Q263.88 172.4652 266.31 173.0952Q268.74 173.7252 270.27 175.3452Q271.8 176.9652 272.52 179.8452Q273.24 182.7252 273.24 187.4052Q273.24 200.5452 272.7 213.5952Q272.16 226.6452 272.16 239.7852Q272.16 246.6252 272.7 250.8552Q273.24 255.0852 274.59 257.4252Q275.94 259.7652 278.19 260.5752Q280.44 261.3852 283.86 261.3852Q288.36 261.3852 291.6 257.4252Q294.84 253.4652 297 247.2552Q299.16 241.0452 300.42 233.3952Q301.68 225.7452 302.4 218.4552Q303.12 211.1652 303.3 205.1352Q303.48 199.1052 303.48 195.8652Q303.48 188.4852 303.66 183.8952Q303.84 179.3052 304.65 176.8752Q305.46 174.4452 307.35 173.6352Q309.24 172.8252 312.66 172.8252Q319.68 172.8252 321.84 176.9652Q324 181.1052 324 189.3852Q324 214.4052 323.46 239.2452Q323.28 246.8052 323.28 254.2752Q323.28 261.7452 323.28 269.3052Q323.28 284.9652 322.11 294.7752Q320.94 304.5852 316.8 310.1652Q312.66 315.7452 304.74 317.8152Q296.82 319.8852 283.32 319.8852Q274.32 319.8852 268.2 319.0752Q262.08 318.2652 258.3 315.1152Q254.52 311.9652 252.9 305.5752Q251.28 299.1852 251.28 288.0252Q251.28 284.9652 252.54 283.1652Q253.8 281.3652 257.22 281.3652Q259.74 281.3652 261.45 282.5352Q263.16 283.7052 263.16 286.2252Q263.16 292.5252 264.33 296.5752Q265.5 300.6252 268.2 302.8752Q270.9 305.1252 275.49 305.9352Q280.08 306.7452 286.92 306.7452Q292.32 306.7452 296.19 305.4852Q300.06 304.2252 302.49 299.3652Q304.92 294.5052 306 285.0552Q307.08 275.6052 307.08 259.4052Q307.08 257.4252 306.9 255.0852Q306.72 252.7452 305.82 252.7452Q305.28 252.7452 304.38 254.4552Q303.48 256.1652 302.04 260.6652Q301.32 262.8252 300.06 265.6152Q298.8 268.4052 296.1 270.8352Q293.4 273.2652 288.9 274.9752Q284.4 276.6852 277.2 276.6852Z" fill="rgb(249, 176, 39)" transform="matrix(1 0 0 1 515.708305 353.7)"/><path d="" fill="rgb(249, 176, 39)" transform="matrix(1 0 0 1 515.708305 353.7)"/></g></g>

  </svg>