<svg xmlns="http://www.w3.org/2000/svg" xmlns:xlink="http://www.w3.org/1999/xlink" width="559px" height="218px" viewBox="0 0 558.5071161793094 217.49737788981872">
    <g style="" id="5bfb8d3c-5610-4ec3-954f-b4dc16b2c454">
<g style=""><path d="M-257.06868,76.08045l33.29268,25.08783l36.38969,-5.02657l-33.29268,-25.08783l-36.38969,5.02657zM-220.67899,71.05388l33.29268,25.08783v-17.61572l-33.29268,-25.08783v17.61572zM-227.06315,54.32002l33.29268,25.08783l1.70244,-8.82819l-33.29268,-25.08783l-1.70244,8.82819zM-225.3607,45.49182l33.29268,25.08783l14.47075,-1.99887l-33.29268,-25.08783l-14.47075,1.99887zM-215.57167,70.3484l33.29268,25.08783l41.70982,-5.76145l-33.29268,-25.08783l-41.70982,5.76145zM-173.86185,64.58695l33.29268,25.08783v-17.61572l-33.29268,-25.08783v17.61572zM-178.11795,47.55913l33.29268,25.08783l-17.98204,-63.46763l-33.29268,-25.08783l17.98204,63.46763zM-196.09999,-15.9085l-38.73055,5.34992l-17.98204,68.43541l-4.2561,0.5879v17.61572l36.38969,-5.02657v-17.61572l-6.38416,0.88185l1.70244,-8.82819l14.47075,-1.99887l1.70244,8.35787l-6.38416,0.88185v17.61572l41.70982,-5.76145v-17.61572l-4.2561,0.5879zM-218.65734,11.80494l33.29268,25.08783l1.06403,-0.14698l-33.29268,-25.08783l-1.06403,0.14698zM-223.01985,33.78271l33.29268,25.08783l4.36251,-21.97777l-33.29268,-25.08783l-4.36251,21.97777zM-218.65734,11.80494l1.06403,-0.14698l4.36251,20.77257l-9.78904,1.35218zM-97.78399,54.07819l33.29268,25.08783v-27.4977l-33.29268,-25.08783v27.4977zM-128.53434,40.71007l33.29268,25.08783v-48.33581l-33.29268,-25.08783v48.33581zM-128.53434,-7.62574l33.29268,25.08783l9.78904,-1.35218l-33.29268,-25.08783l-9.78904,1.35218zM-118.7453,-8.97792l33.29268,25.08783v-17.61572l-33.29268,-25.08783v17.61572zM-163.6472,-2.77554l33.29268,25.08783l5.32013,-0.73488l-33.29268,-25.08783l-5.32013,0.73488zM-163.6472,63.17598l33.29268,25.08783l65.86321,-9.0978l-33.29268,-25.08783l-65.86321,9.0978zM-97.78399,54.07819v-27.4977l-21.17412,2.92482v9.88199l-9.57623,1.32278v-48.33581l9.78904,-1.35218v-17.61572l-44.9019,6.20237v17.61572l5.32013,-0.73488v48.33581l-5.32013,0.73488v17.61572zM-10.21465,-23.96944l33.29268,25.08783l4.0433,-0.55851l-33.29268,-25.08783l-4.0433,0.55851zM-11.38508,3.58253l33.29268,25.08783l-9.36343,-43.71262l-33.29268,-25.08783l9.36343,43.71262zM-62.56473,10.65206l33.29268,25.08783l-4.1497,-26.81708l-33.29268,-25.08783l4.1497,26.81708zM-66.71443,-16.16503l33.29268,25.08783l4.0433,-0.55851l-33.29268,-25.08783l-4.0433,0.55851zM-62.67113,-16.72353l33.29268,25.08783v-17.61572l-33.29268,-25.08783v17.61572zM-102.04009,-11.28543l33.29268,25.08783l4.2561,-0.5879l-33.29268,-25.08783l-4.2561,0.5879zM-80.86598,51.74127l33.29268,25.08783l31.81438,-4.39457l-33.29268,-25.08783l-31.81438,4.39457zM-49.0516,47.3467l33.29268,25.08783l10.21465,-47.81334l-33.29268,-25.08783l-10.21465,47.81334zM-38.83695,-0.46664l33.29268,25.08783l1.06403,-0.14698l-33.29268,-25.08783l-1.06403,0.14698zM-28.09029,44.45128l33.29268,25.08783l31.81438,-4.39457l-33.29268,-25.08783l-31.81438,4.39457zM3.72409,40.0567l33.29268,25.08783l15.85399,-68.14146l-33.29268,-25.08783l-15.85399,68.14146zM19.57808,-28.08476l33.29268,25.08783l4.2561,-0.5879l-33.29268,-25.08783l-4.2561,0.5879zM23.83418,-28.67266l33.29268,25.08783v-17.61572l-33.29268,-25.08783v17.61572zM-10.21465,-23.96944l4.0433,-0.55851l-4.1497,27.9635l-1.06403,0.14698l-9.36343,-43.71262l-30.64395,4.2329l-10.10825,46.40228l-1.06403,0.14698l-4.1497,-26.81708l4.0433,-0.55851v-17.61572l-39.36896,5.4381v17.61572l4.2561,-0.5879l16.91801,63.61461l31.81438,-4.39457l10.21465,-47.81334l1.06403,-0.14698l9.68264,45.0649l31.81438,-4.39457l15.85399,-68.14146l4.2561,-0.5879v-17.61572l-34.04883,4.70322zM20.4293,37.74919l33.29268,25.08783l36.38969,-5.02657l-33.29268,-25.08783l-36.38969,5.02657zM56.81899,32.72262l33.29268,25.08783v-17.61572l-33.29268,-25.08783v17.61572zM50.43483,15.98875l33.29268,25.08783l1.70244,-8.82819l-33.29268,-25.08783l-1.70244,8.82819zM52.13727,7.16056l33.29268,25.08783l14.47075,-1.99887l-33.29268,-25.08783l-14.47075,1.99887zM61.92631,32.01713l33.29268,25.08783l41.70982,-5.76145l-33.29268,-25.08783l-41.70982,5.76145zM103.63613,26.25569l33.29268,25.08783v-17.61572l-33.29268,-25.08783v17.61572zM99.38003,9.22787l33.29268,25.08783l-17.98204,-63.46763l-33.29268,-25.08783l17.98204,63.46763zM81.39799,-54.23976l-38.73055,5.34992l-17.98204,68.43541l-4.2561,0.5879v17.61572l36.38969,-5.02657v-17.61572l-6.38416,0.88185l1.70244,-8.82819l14.47075,-1.99887l1.70244,8.35787l-6.38416,0.88185v17.61572l41.70982,-5.76145v-17.61572l-4.2561,0.5879zM58.84064,-26.52632l33.29268,25.08783l1.06403,-0.14698l-33.29268,-25.08783l-1.06403,0.14698zM54.47813,-4.54855l33.29268,25.08783l4.36251,-21.97777l-33.29268,-25.08783l-4.36251,21.97777zM58.84064,-26.52632l1.06403,-0.14698l4.36251,20.77257l-9.78904,1.35218zM145.45235,-45.47198l33.29268,25.08783l3.72409,-0.51441l-33.29268,-25.08783l-3.72409,0.51441zM141.83466,-28.32326l33.29268,25.08783l-6.27775,-15.78184l-33.29268,-25.08783l6.27775,15.78184zM135.55691,-44.10511l33.29268,25.08783l3.72409,-0.51441l-33.29268,-25.08783l-3.72409,0.51441zM139.281,-44.61952l33.29268,25.08783v-17.61572l-33.29268,-25.08783v17.61572zM98.1032,-38.93156l33.29268,25.08783l4.2561,-0.5879l-33.29268,-25.08783l-4.2561,0.5879zM118.21329,24.24212l33.29268,25.08783l40.43299,-5.58508l-33.29268,-25.08783l-40.43299,5.58508zM158.64628,18.65704l33.29268,25.08783v-17.61572l-33.29268,-25.08783v17.61572zM153.32615,1.7762l33.29268,25.08783v-11.17094l-33.29268,-25.08783v11.17094zM153.32615,-9.39474l33.29268,25.08783l20.5357,-40.0015l-33.29268,-25.08783l-20.5357,40.0015zM173.86185,-49.39623l33.29268,25.08783l4.2561,-0.5879l-33.29268,-25.08783l-4.2561,0.5879zM178.11795,-49.98413l33.29268,25.08783v-17.61572l-33.29268,-25.08783v17.61572zM145.45235,-45.47198l3.72409,-0.51441l-6.27775,17.51616l-1.06403,0.14698l-6.27775,-15.78184l3.72409,-0.51441v-17.61572l-41.17781,5.68796v17.61572l4.2561,-0.5879l21.17412,34.24005v11.17094l-5.32013,0.73488v17.61572l40.43299,-5.58508v-17.61572l-5.32013,0.73488v-11.17094l20.5357,-40.0015l4.2561,-0.5879v-17.61572l-32.6656,4.51215zM247.97126,0.84037l33.29268,25.08783c6.06495,-5.49232 9.09742,-12.78563 9.09742,-21.87992l-33.29268,-25.08783c0,9.09429 -3.03247,16.3876 -9.09742,21.87992zM257.06868,-21.03954l33.29268,25.08783c0,-6.6596 -1.72018,-11.81054 -5.16053,-15.45281l-33.29268,-25.08783c3.44035,3.64227 5.16053,8.79321 5.16053,15.45281zM251.90815,-36.49235l33.29268,25.08783c-0.69769,-0.73864 -1.47925,-1.43403 -2.34468,-2.08618l-33.29268,-25.08783c0.86543,0.65215 1.64699,1.34754 2.34468,2.08618zM220.7514,-48.02942l33.29268,25.08783c-0.75762,-0.57091 -1.13643,-1.37876 -1.13643,-2.42354l-33.29268,-25.08783c0,1.04478 0.37881,1.85263 1.13643,2.42354zM219.61496,-50.45295l33.29268,25.08783c0,-1.36056 0.44334,-2.37062 1.33003,-3.03016l-33.29268,-25.08783c-0.88669,0.65954 -1.33003,1.6696 -1.33003,3.03016zM220.945,-53.48312l33.29268,25.08783c0.88669,-0.65954 2.39406,-1.13629 4.52211,-1.43024l-33.29268,-25.08783c-2.12805,0.29395 -3.63542,0.7707 -4.52211,1.43024zM225.46711,-54.91336l33.29268,25.08783c2.29899,-0.31756 3.9971,-0.06294 5.09432,0.76388l-33.29268,-25.08783c-1.09722,-0.82681 -2.79533,-1.08144 -5.09432,-0.76388zM232.06407,-50.45396l33.29268,25.08783l21.28052,-2.93951l-33.29268,-25.08783l-21.28052,2.93951zM253.34459,-53.39348l33.29268,25.08783v-19.22691l-33.29268,-25.08783v19.22691zM194.56849,-26.54369l33.29268,25.08783c3.4603,2.60752 8.3333,4.67764 14.61902,6.21034l-33.29268,-25.08783c-6.28571,-1.5327 -11.15872,-3.60282 -14.61902,-6.21034zM209.18751,-20.33335l33.29268,25.08783l9.15062,1.9584l-33.29268,-25.08783l-9.15062,-1.9584zM218.33813,-18.37495l33.29268,25.08783c2.26992,0.54576 3.86596,1.16669 4.78812,1.86281l-33.29268,-25.08783c-0.92216,-0.69612 -2.51819,-1.31706 -4.78812,-1.86281zM212.9116,-9.56941l33.29268,25.08783c-0.99309,-0.86534 -1.48964,-2.40795 -1.48964,-4.62781l-33.29268,-25.08783c0,2.21987 0.49655,3.76247 1.48964,4.62781zM188.01339,10.304l33.29268,25.08783c3.26301,1.05306 7.92699,1.75147 13.99194,2.09525l-33.29268,-25.08783c-6.06495,-0.34378 -10.72893,-1.0422 -13.99194,-2.09525zM202.00533,12.39925l33.29268,25.08783c6.06495,0.34378 12.50231,0.04535 19.31207,-0.8953l-33.29268,-25.08783c-6.80977,0.94064 -13.24712,1.23908 -19.31207,0.8953zM221.31741,11.50395l33.29268,25.08783c11.70429,-1.61673 20.5889,-5.17126 26.65385,-10.66358l-33.29268,-25.08783c-6.06495,5.49232 -14.94957,9.04685 -26.65385,10.66358zM247.97126,0.84037c6.06495,-5.49232 9.09742,-12.78563 9.09742,-21.87992c0,-6.6596 -1.72018,-11.81054 -5.16053,-15.45281c-0.69769,-0.73864 -1.47925,-1.43403 -2.34468,-2.08618c-3.40208,-2.56365 -8.10025,-4.45903 -14.09453,-5.68615l-9.25703,-1.9437c-2.34086,-0.46435 -4.02556,-0.98353 -5.05412,-1.55754c-0.1458,-0.08137 -0.28127,-0.1692 -0.4064,-0.26349c-0.75762,-0.57091 -1.13643,-1.37876 -1.13643,-2.42354c0,-1.36056 0.44334,-2.37062 1.33003,-3.03016c0.88669,-0.65954 2.39406,-1.13629 4.52211,-1.43024c2.29899,-0.31756 3.9971,-0.06294 5.09432,0.76388c1.00176,0.75488 1.50264,1.98672 1.50264,3.69552l21.28052,-2.93951v-19.22691c-3.33395,-1.61613 -7.71419,-2.67598 -13.14072,-3.17955c-5.42653,-0.50357 -11.22547,-0.32913 -17.39682,0.52333c-12.83925,1.77351 -22.0076,5.24191 -27.50507,10.40522c-5.49747,5.1633 -8.2462,11.96986 -8.2462,20.41968c0,6.94603 1.72018,12.22229 5.16053,15.82875c0.69389,0.7274 1.47796,1.42049 2.3522,2.07928c3.4603,2.60752 8.3333,4.67764 14.61902,6.21034l9.15062,1.9584c2.26992,0.54576 3.86596,1.16669 4.78812,1.86281c0.92216,0.69612 1.38323,1.61705 1.38323,2.76279c0,1.36056 -0.47881,2.44713 -1.43644,3.25968c-0.95762,0.81256 -2.53593,1.37071 -4.73492,1.67446c-2.6246,0.36254 -4.43344,0.11114 -5.42653,-0.7542c-0.99309,-0.86534 -1.48964,-2.40795 -1.48964,-4.62781l-23.40857,3.23347v21.26775c3.26301,1.05306 7.92699,1.75147 13.99194,2.09525c6.06495,0.34378 12.50231,0.04535 19.31207,-0.8953c11.70429,-1.61673 20.5889,-5.17126 26.65385,-10.66358z" fill="rgb(0, 0, 0)" stroke="rgb(0, 0, 0)" stroke-width="11.07708130023472" stroke-linejoin="round" transform="matrix(1 0 0 1 262.608679 141.41693)"/><path d="" fill="rgb(62, 208, 203)" transform="matrix(1 0 0 1 262.608679 141.41693)"/><path d="M-178.11795 47.55913L-173.86185 46.97123L-173.86185 64.58695L-215.57167 70.3484L-215.57167 52.73268L-209.18751 51.85083L-210.88995 43.49295L-225.3607 45.49182L-227.06315 54.32002L-220.67899 53.43816L-220.67899 71.05388L-257.06868 76.08045L-257.06868 58.46473L-252.81258 57.87683L-234.83054 -10.55858L-196.09999 -15.9085ZM-223.01985 33.78271L-213.23081 32.43053L-217.59331 11.65797L-218.65734 11.80494Z" fill="rgb(62, 208, 203)" transform="matrix(1 0 0 1 262.608679 141.41693)"/><path d="M-163.6472 63.17598L-163.6472 45.56027L-158.32707 44.82539L-158.32707 -3.51042L-163.6472 -2.77554L-163.6472 -20.39126L-118.7453 -26.59363L-118.7453 -8.97792L-128.53434 -7.62574L-128.53434 40.71007L-118.95811 39.38729L-118.95811 29.5053L-97.78399 26.58048L-97.78399 54.07819Z" fill="rgb(62, 208, 203)" transform="matrix(1 0 0 1 262.608679 141.41693)"/><path d="M-10.21465 -41.58515L23.83418 -46.28837L23.83418 -28.67266L19.57808 -28.08476L3.72409 40.0567L-28.09029 44.45128L-37.77292 -0.61362L-38.83695 -0.46664L-49.0516 47.3467L-80.86598 51.74127L-97.78399 -11.87334L-102.04009 -11.28543L-102.04009 -28.90115L-62.67113 -34.33925L-62.67113 -16.72353L-66.71443 -16.16503L-62.56473 10.65206L-61.5007 10.50508L-51.39246 -35.89719L-20.74851 -40.13009L-11.38508 3.58253L-10.32105 3.43555L-6.17135 -24.52794L-10.21465 -23.96944Z" fill="rgb(62, 208, 203)" transform="matrix(1 0 0 1 262.608679 141.41693)"/><path d="M99.38003 9.22787L103.63613 8.63997L103.63613 26.25569L61.92631 32.01713L61.92631 14.40142L68.31047 13.51956L66.60803 5.16169L52.13727 7.16056L50.43483 15.98875L56.81899 15.1069L56.81899 32.72262L20.4293 37.74919L20.4293 20.13347L24.6854 19.54557L42.66744 -48.88984L81.39799 -54.23976ZM54.47813 -4.54855L64.26717 -5.90073L59.90466 -26.6733L58.84064 -26.52632Z" fill="rgb(62, 208, 203)" transform="matrix(1 0 0 1 262.608679 141.41693)"/><path d="M145.45235 -63.0877L178.11795 -67.59985L178.11795 -49.98413L173.86185 -49.39623L153.32615 -9.39474L153.32615 1.7762L158.64628 1.04133L158.64628 18.65704L118.21329 24.24212L118.21329 6.6264L123.53342 5.89152L123.53342 -5.27942L102.3593 -39.51947L98.1032 -38.93156L98.1032 -56.54728L139.281 -62.23524L139.281 -44.61952L135.55691 -44.10511L141.83466 -28.32326L142.89869 -28.47024L149.17644 -45.9864L145.45235 -45.47198Z" fill="rgb(62, 208, 203)" transform="matrix(1 0 0 1 262.608679 141.41693)"/><path d="M221.31741 11.50395Q211.10276 12.91492 202.00533 12.39925Q192.90791 11.88358 188.01339 10.304L188.01339 -10.96376L211.42196 -14.19722Q211.42196 -10.86742 212.9116 -9.56941Q214.40124 -8.27139 218.33813 -8.8152Q221.63661 -9.27083 223.07305 -10.48967Q224.50948 -11.70851 224.50948 -13.74935Q224.50948 -15.46796 223.12625 -16.51214Q221.74302 -17.55632 218.33813 -18.37495L209.18751 -20.33335Q197.37682 -23.21326 192.2163 -28.62296Q187.05577 -34.03267 187.05577 -44.45172Q187.05577 -57.12644 195.30197 -64.8714Q203.54817 -72.61635 222.80704 -75.27661Q232.06407 -76.5553 240.20387 -75.79994Q248.34367 -75.04458 253.34459 -72.62039L253.34459 -53.39348L232.06407 -50.45396Q232.06407 -55.82461 225.46711 -54.91336Q222.27503 -54.47243 220.945 -53.48312Q219.61496 -52.4938 219.61496 -50.45295Q219.61496 -48.62694 221.1578 -47.76592Q222.70064 -46.90491 226.21193 -46.20838L235.46895 -44.26469Q246.74763 -41.95576 251.90815 -36.49235Q257.06868 -31.02894 257.06868 -21.03954Q257.06868 -7.39811 247.97126 0.84037Q238.87383 9.07886 221.31741 11.50395Z" fill="rgb(62, 208, 203)" transform="matrix(1 0 0 1 262.608679 141.41693)"/><path d="" fill="rgb(62, 208, 203)" transform="matrix(1 0 0 1 262.608679 141.41693)"/></g></g>

  </svg>