<svg xmlns="http://www.w3.org/2000/svg" xmlns:xlink="http://www.w3.org/1999/xlink" width="60px" height="60px" viewBox="0 0 56.060163913149154 56.060163913143015">
    <g id="c1eef048-44e3-46d9-a8fd-fbc8e6fde7b4">
<g style="">
		<g id="90c59497-13ef-4165-9924-5d5620c49ed9">
<path style="stroke: rgb(66,29,14); stroke-width: 7.573557; stroke-dasharray: none; stroke-linecap: round; stroke-dashoffset: 0; stroke-linejoin: round; stroke-miterlimit: 10; fill: rgb(255,255,255); fill-opacity: 0; fill-rule: nonzero; opacity: 1;" d="M28.17481,3.83342c0.03114,0.0403 0.06229,0.08061 0.09343,0.12274c0.05496,0.14656 0.10992,0.29312 0.16488,0.4415c0.16121,0.42502 0.32426,0.85187 0.48914,1.27688c0.10809,0.27296 0.21617,0.54593 0.32426,0.81889c0.05496,0.13557 0.10809,0.27113 0.16305,0.40487c0.10809,0.26197 0.21617,0.52394 0.32426,0.78408c0.05496,0.13007 0.10809,0.25831 0.16305,0.38838c0.10809,0.25098 0.21617,0.50013 0.32609,0.75111c0.05313,0.12274 0.10809,0.24732 0.16305,0.37006c0.10809,0.23999 0.218,0.47814 0.32792,0.71813c0.05313,0.11908 0.10809,0.23632 0.16305,0.3554c0.11175,0.229 0.22167,0.45799 0.33159,0.68699c0.05679,0.11358 0.11175,0.22533 0.16671,0.33891c0.11175,0.21984 0.22533,0.43784 0.33708,0.65768c0.05496,0.10809 0.11175,0.21617 0.16854,0.32426c0.11358,0.21068 0.229,0.41952 0.34258,0.62837c0.05679,0.10442 0.11541,0.20701 0.17221,0.31143c0.11725,0.19968 0.23266,0.4012 0.34991,0.60089c0.05862,0.09893 0.11725,0.19785 0.17587,0.29678c0.11908,0.19236 0.23999,0.38471 0.35907,0.57524c0.06046,0.09526 0.12091,0.19052 0.17953,0.28579c0.12274,0.1832 0.24732,0.36639 0.37006,0.54959c0.06046,0.0916 0.12274,0.18137 0.18503,0.27296c0.12641,0.17587 0.25281,0.35174 0.37922,0.52578c0.06412,0.08793 0.12824,0.17404 0.19236,0.26197c0.13007,0.16854 0.26197,0.33525 0.39204,0.50379c0.06595,0.08427 0.1319,0.16671 0.19785,0.25098c0.13557,0.16121 0.27113,0.32243 0.4067,0.48364c0.06778,0.08061 0.13557,0.15938 0.20518,0.23999c0.13923,0.15389 0.28029,0.3096 0.42135,0.46349c0.06961,0.07694 0.14106,0.15389 0.21251,0.23083c0.14473,0.14839 0.29128,0.29678 0.43784,0.44517c0.07328,0.07511 0.14656,0.14839 0.21984,0.22167c0.15205,0.14289 0.30411,0.28579 0.45616,0.42868c0.07694,0.07145 0.15205,0.14289 0.229,0.21251c0.15938,0.13923 0.31693,0.27663 0.47448,0.41403c0.08061,0.06778 0.15938,0.1374 0.23999,0.20518c0.16488,0.1319 0.32975,0.26564 0.49463,0.39937c0.08244,0.06595 0.16671,0.1319 0.24915,0.19785c0.17221,0.12824 0.34441,0.25648 0.51662,0.38471c0.0861,0.06412 0.17404,0.12824 0.26014,0.19236c0.17953,0.12457 0.35907,0.24915 0.5386,0.37372c0.0916,0.06229 0.18137,0.12274 0.27296,0.18503c0.18686,0.12091 0.37555,0.24182 0.56241,0.36273c0.09526,0.06046 0.19052,0.12091 0.28396,0.18137c0.19602,0.11725 0.39204,0.23632 0.58806,0.35357c0.09893,0.05862 0.19785,0.11725 0.29678,0.17587c0.20518,0.11541 0.41036,0.23083 0.61554,0.34624c0.10442,0.05679 0.20701,0.11541 0.31143,0.17221c0.21251,0.11358 0.42685,0.22533 0.64119,0.33891c0.10809,0.05679 0.21617,0.11358 0.32609,0.16854c0.2235,0.11175 0.447,0.2235 0.6705,0.33525c0.11358,0.05496 0.22716,0.10992 0.34075,0.16488c0.23266,0.10992 0.46715,0.21984 0.70164,0.32975c0.11725,0.05496 0.23632,0.10992 0.3554,0.16488c0.24365,0.10809 0.48914,0.218 0.73279,0.32609c0.12457,0.05496 0.24732,0.10809 0.37189,0.16305c0.25464,0.10809 0.51112,0.21617 0.76576,0.32609c0.13007,0.05313 0.25831,0.10809 0.38838,0.16121c0.26564,0.10809 0.5331,0.21617 0.80057,0.32426c0.13557,0.05496 0.2693,0.10809 0.40487,0.16305c0.27846,0.10809 0.55692,0.21617 0.83538,0.32609c0.43234,0.16305 0.86469,0.32609 1.29703,0.49097c0.01649,0.0055 0.03298,0.01099 0.0513,0.01649c0.02382,0.02565 0.04763,0.0513 0.07145,0.07511c0.01649,0.04946 0.03114,0.09893 0.04763,0.14656c0,0.01832 0,0.03664 0,0.05496c-0.01466,0.03114 -0.02931,0.06229 -0.0458,0.09343c-0.00916,0.01282 -0.01832,0.02748 -0.02931,0.04214c-0.02931,0.01649 -0.06046,0.03481 -0.0916,0.05313c-0.14656,0.05313 -0.29495,0.10809 -0.4415,0.16305c-0.42685,0.16305 -0.85187,0.32609 -1.27872,0.48914c-0.27296,0.10809 -0.54593,0.218 -0.81889,0.32609c-0.13557,0.05313 -0.2693,0.10809 -0.40487,0.16121c-0.26197,0.10809 -0.52211,0.21617 -0.78408,0.32609c-0.12824,0.05313 -0.25831,0.10809 -0.38838,0.16121c-0.24915,0.10809 -0.50013,0.218 -0.74928,0.32609c-0.12457,0.05496 -0.24732,0.10809 -0.37189,0.16305c-0.23816,0.10992 -0.47814,0.218 -0.71813,0.32792c-0.11725,0.05496 -0.23632,0.10992 -0.35357,0.16488c-0.229,0.10992 -0.45799,0.21984 -0.68699,0.33159c-0.11358,0.05496 -0.22716,0.10992 -0.34075,0.16671c-0.218,0.11175 -0.43784,0.2235 -0.65585,0.33525c-0.10809,0.05679 -0.218,0.11358 -0.32609,0.16854c-0.20884,0.11541 -0.41769,0.229 -0.62837,0.34258c-0.10259,0.05862 -0.20701,0.11541 -0.3096,0.17221c-0.20152,0.11725 -0.4012,0.23449 -0.60272,0.34991c-0.09893,0.06046 -0.19785,0.11908 -0.29678,0.1777c-0.19052,0.11908 -0.38288,0.23816 -0.57524,0.35723c-0.09526,0.06046 -0.18869,0.12091 -0.28396,0.18137c-0.1832,0.12274 -0.36639,0.24548 -0.55142,0.36823c-0.08977,0.06229 -0.18137,0.12457 -0.27113,0.18503c-0.17587,0.12824 -0.35174,0.25464 -0.52761,0.38105c-0.0861,0.06412 -0.17404,0.12824 -0.26014,0.19052c-0.16854,0.1319 -0.33708,0.26197 -0.50562,0.39387c-0.08244,0.06595 -0.16671,0.1319 -0.24915,0.19785c-0.16121,0.13373 -0.32243,0.2693 -0.48364,0.40487c-0.08061,0.06961 -0.16121,0.1374 -0.23999,0.20518c-0.15572,0.14106 -0.3096,0.28029 -0.46532,0.42135c-0.07694,0.07145 -0.15205,0.14289 -0.229,0.21251c-0.15022,0.14656 -0.29861,0.29128 -0.447,0.43784c-0.07328,0.07328 -0.14656,0.14839 -0.21984,0.22167c-0.14473,0.15205 -0.28762,0.30228 -0.43051,0.45433c-0.06961,0.07694 -0.14106,0.15389 -0.21251,0.23083c-0.1374,0.15755 -0.2748,0.3151 -0.41403,0.47448c-0.06778,0.07877 -0.13557,0.15938 -0.20335,0.23816c-0.13373,0.16488 -0.26747,0.32975 -0.39937,0.49463c-0.06595,0.08427 -0.1319,0.16671 -0.19785,0.25098c-0.12824,0.17221 -0.25831,0.34258 -0.38655,0.51478c-0.06412,0.08793 -0.12641,0.17404 -0.19052,0.26197c-0.12457,0.17953 -0.24915,0.35907 -0.37372,0.5386c-0.06229,0.08977 -0.12457,0.18137 -0.18686,0.27113c-0.12091,0.18869 -0.24182,0.37555 -0.36273,0.56241c-0.06046,0.09526 -0.12091,0.19052 -0.17953,0.28579c-0.11908,0.19602 -0.23632,0.39204 -0.3554,0.58806c-0.05862,0.09893 -0.11725,0.19785 -0.17587,0.29678c-0.11541,0.20518 -0.23083,0.41036 -0.34624,0.61371c-0.05679,0.10442 -0.11358,0.20884 -0.17221,0.31143c-0.11175,0.21434 -0.22533,0.42868 -0.33891,0.64302c-0.05496,0.10809 -0.11175,0.21617 -0.16854,0.32426c-0.11175,0.2235 -0.22167,0.44883 -0.33342,0.67233c-0.05496,0.11175 -0.11175,0.22533 -0.16671,0.33891c-0.10992,0.23449 -0.21984,0.46898 -0.32975,0.70164c-0.05496,0.11908 -0.10809,0.23632 -0.16305,0.3554c-0.10992,0.24548 -0.218,0.48914 -0.32792,0.73462c-0.05313,0.12274 -0.10809,0.24732 -0.16305,0.37006c-0.10809,0.25648 -0.21617,0.51112 -0.32426,0.7676c-0.05496,0.12824 -0.10809,0.25831 -0.16305,0.38655c-0.10809,0.26747 -0.21617,0.53494 -0.32426,0.80057c-0.05313,0.13557 -0.10809,0.27113 -0.16121,0.40487c-0.10992,0.28029 -0.218,0.55875 -0.32609,0.83721c-0.16305,0.43234 -0.32792,0.86469 -0.49097,1.2952c-0.0055,0.01832 -0.01282,0.03481 -0.01832,0.0513c-0.02565,0.02382 -0.0513,0.04763 -0.07511,0.07145c-0.04946,0.01649 -0.09893,0.03114 -0.14839,0.0458c-0.01649,0 -0.03481,0 -0.05313,0c-0.03114,-0.01466 -0.06229,-0.02931 -0.09343,-0.0458c-0.03114,-0.0403 -0.06229,-0.08061 -0.09343,-0.12274c-0.05496,-0.14656 -0.10992,-0.29312 -0.16488,-0.4415c-0.16121,-0.42502 -0.32426,-0.85187 -0.48914,-1.27688c-0.10809,-0.27296 -0.21617,-0.54593 -0.32426,-0.81889c-0.05496,-0.13557 -0.10809,-0.27113 -0.16305,-0.40487c-0.10809,-0.26197 -0.21617,-0.52394 -0.32426,-0.78408c-0.05496,-0.13007 -0.10809,-0.25831 -0.16305,-0.38838c-0.10809,-0.25098 -0.21617,-0.50013 -0.32609,-0.75111c-0.05313,-0.12274 -0.10809,-0.24732 -0.16305,-0.37006c-0.10809,-0.23999 -0.218,-0.47814 -0.32792,-0.71813c-0.05313,-0.11908 -0.10809,-0.23632 -0.16305,-0.3554c-0.11175,-0.229 -0.22167,-0.45799 -0.33159,-0.68699c-0.05679,-0.11358 -0.11175,-0.22533 -0.16671,-0.33891c-0.11175,-0.21984 -0.22533,-0.43784 -0.33708,-0.65768c-0.05496,-0.10809 -0.11175,-0.21617 -0.16854,-0.32426c-0.11358,-0.21068 -0.229,-0.41952 -0.34258,-0.62837c-0.05679,-0.10442 -0.11541,-0.20701 -0.17221,-0.31143c-0.11725,-0.19968 -0.23266,-0.4012 -0.34991,-0.60089c-0.05862,-0.09893 -0.11725,-0.19785 -0.17587,-0.29678c-0.11908,-0.19236 -0.23999,-0.38471 -0.35907,-0.57524c-0.06046,-0.09526 -0.12091,-0.19052 -0.17953,-0.28579c-0.12274,-0.1832 -0.24732,-0.36639 -0.37006,-0.54959c-0.06046,-0.0916 -0.12274,-0.18137 -0.18503,-0.27296c-0.12641,-0.17587 -0.25281,-0.35174 -0.37922,-0.52578c-0.06412,-0.08793 -0.12824,-0.17404 -0.19236,-0.26197c-0.13007,-0.16854 -0.26197,-0.33525 -0.39204,-0.50379c-0.06595,-0.08427 -0.1319,-0.16671 -0.19785,-0.25098c-0.13557,-0.16121 -0.27113,-0.32243 -0.4067,-0.48364c-0.06778,-0.08061 -0.13557,-0.15938 -0.20518,-0.23999c-0.13923,-0.15389 -0.28029,-0.3096 -0.42135,-0.46349c-0.06961,-0.07694 -0.14106,-0.15389 -0.21251,-0.23083c-0.14473,-0.14839 -0.29128,-0.29678 -0.43784,-0.44517c-0.07328,-0.07511 -0.14656,-0.14839 -0.21984,-0.22167c-0.15205,-0.14289 -0.30411,-0.28579 -0.45616,-0.42868c-0.07694,-0.07145 -0.15205,-0.14289 -0.229,-0.21251c-0.15938,-0.13923 -0.31693,-0.27663 -0.47448,-0.41403c-0.08061,-0.06778 -0.15938,-0.1374 -0.23999,-0.20518c-0.16488,-0.1319 -0.32975,-0.26564 -0.49463,-0.39937c-0.08244,-0.06595 -0.16671,-0.1319 -0.24915,-0.19785c-0.17221,-0.12824 -0.34441,-0.25648 -0.51662,-0.38471c-0.0861,-0.06412 -0.17404,-0.12824 -0.26014,-0.19236c-0.17953,-0.12457 -0.35907,-0.24915 -0.5386,-0.37372c-0.0916,-0.06229 -0.18137,-0.12274 -0.27296,-0.18503c-0.18686,-0.12091 -0.37555,-0.24182 -0.56241,-0.36273c-0.09526,-0.06046 -0.19052,-0.12091 -0.28396,-0.18137c-0.19602,-0.11725 -0.39204,-0.23632 -0.58806,-0.35357c-0.09893,-0.05862 -0.19785,-0.11725 -0.29861,-0.17587c-0.20335,-0.11541 -0.40853,-0.23083 -0.61371,-0.34624c-0.10442,-0.05679 -0.20701,-0.11541 -0.31143,-0.17221c-0.21434,-0.11358 -0.42685,-0.22533 -0.64119,-0.33891c-0.10809,-0.05679 -0.218,-0.11358 -0.32609,-0.16854c-0.2235,-0.11175 -0.447,-0.2235 -0.6705,-0.33525c-0.11358,-0.05496 -0.22716,-0.10992 -0.34075,-0.16488c-0.23266,-0.10992 -0.46715,-0.21984 -0.70164,-0.32975c-0.11725,-0.05496 -0.23632,-0.10992 -0.3554,-0.16488c-0.24365,-0.10809 -0.48914,-0.218 -0.73279,-0.32609c-0.12457,-0.05496 -0.24732,-0.10809 -0.37189,-0.16305c-0.25464,-0.10809 -0.51112,-0.21617 -0.76576,-0.32609c-0.13007,-0.05313 -0.25831,-0.10809 -0.38838,-0.16121c-0.26564,-0.10809 -0.5331,-0.21617 -0.80057,-0.32426c-0.13557,-0.05496 -0.2693,-0.10809 -0.40487,-0.16305c-0.27846,-0.10809 -0.55692,-0.21617 -0.83538,-0.32609c-0.43234,-0.16305 -0.86469,-0.32609 -1.29703,-0.49097c-0.01649,-0.0055 -0.03298,-0.01099 -0.0513,-0.01832c-0.02382,-0.02382 -0.04763,-0.04946 -0.07145,-0.07511c-0.01466,-0.04946 -0.03114,-0.09709 -0.0458,-0.14656c0,-0.01832 0,-0.03664 0,-0.05313c0.01466,-0.03114 0.03114,-0.06229 0.0458,-0.09343c0.04214,-0.03114 0.08244,-0.06229 0.12274,-0.09526c0.14656,-0.05313 0.29495,-0.10809 0.4415,-0.16305c0.42685,-0.16305 0.85187,-0.32609 1.27872,-0.48914c0.27296,-0.10809 0.54593,-0.218 0.81889,-0.32609c0.13557,-0.05313 0.2693,-0.10809 0.40487,-0.16121c0.26197,-0.10809 0.52211,-0.21617 0.78408,-0.32426c0.12824,-0.05496 0.25831,-0.10992 0.38838,-0.16305c0.24915,-0.10809 0.50013,-0.218 0.74928,-0.32609c0.12457,-0.05496 0.24732,-0.10809 0.37189,-0.16305c0.23816,-0.10992 0.47814,-0.218 0.71813,-0.32792c0.11725,-0.05496 0.23632,-0.10992 0.35357,-0.16488c0.229,-0.10992 0.45799,-0.21984 0.68699,-0.32975c0.11358,-0.05679 0.22716,-0.11175 0.34075,-0.16671c0.218,-0.11175 0.43784,-0.22533 0.65585,-0.33708c0.10809,-0.05679 0.218,-0.11175 0.32609,-0.16854c0.20884,-0.11358 0.41769,-0.229 0.62837,-0.34258c0.10259,-0.05679 0.20701,-0.11541 0.3096,-0.17221c0.20152,-0.11541 0.4012,-0.23266 0.60089,-0.34991c0.10076,-0.05862 0.19968,-0.11725 0.29861,-0.17587c0.19052,-0.11908 0.38288,-0.23816 0.57524,-0.35907c0.09343,-0.05862 0.18869,-0.11908 0.28396,-0.17953c0.1832,-0.12274 0.36639,-0.24548 0.54959,-0.36823c0.0916,-0.06229 0.1832,-0.12457 0.27296,-0.18503c0.17587,-0.12824 0.35174,-0.25464 0.52761,-0.38105c0.0861,-0.06412 0.17404,-0.12641 0.26014,-0.19052c0.16854,-0.1319 0.33708,-0.26197 0.50562,-0.39204c0.08244,-0.06595 0.16671,-0.1319 0.24915,-0.19785c0.16121,-0.13557 0.32243,-0.27113 0.48364,-0.4067c0.08061,-0.06778 0.15938,-0.1374 0.23999,-0.20518c0.15572,-0.13923 0.3096,-0.28029 0.46532,-0.42135c0.07511,-0.06961 0.15205,-0.14106 0.229,-0.21251c0.14839,-0.14473 0.29678,-0.29128 0.447,-0.43784c0.07328,-0.07328 0.14656,-0.14656 0.21984,-0.21984c0.14289,-0.15205 0.28579,-0.30411 0.42868,-0.45616c0.07145,-0.07694 0.14289,-0.15205 0.21251,-0.229c0.13923,-0.15755 0.27663,-0.31693 0.41403,-0.47448c0.06778,-0.08061 0.1374,-0.15938 0.20518,-0.23999c0.13373,-0.16488 0.26564,-0.32975 0.39937,-0.49463c0.06595,-0.08244 0.1319,-0.16671 0.19785,-0.24915c0.12824,-0.17221 0.25648,-0.34441 0.38471,-0.51662c0.06412,-0.0861 0.12824,-0.17221 0.19236,-0.26014c0.12457,-0.17953 0.24915,-0.35907 0.37372,-0.5386c0.06229,-0.08977 0.12274,-0.18137 0.18503,-0.27296c0.12091,-0.18686 0.24182,-0.37372 0.36273,-0.56241c0.06046,-0.09343 0.12091,-0.18869 0.18137,-0.28396c0.11725,-0.19602 0.23632,-0.39204 0.35357,-0.58806c0.05862,-0.09893 0.11725,-0.19785 0.17587,-0.29678c0.11541,-0.20518 0.23083,-0.41036 0.34624,-0.61554c0.05679,-0.10259 0.11358,-0.20701 0.17221,-0.3096c0.11175,-0.21434 0.22533,-0.42868 0.33891,-0.64302c0.05496,-0.10809 0.11175,-0.21617 0.16854,-0.32609c0.11175,-0.2235 0.22167,-0.447 0.33342,-0.6705c0.05496,-0.11358 0.10992,-0.22716 0.16671,-0.34075c0.10992,-0.23266 0.21984,-0.46715 0.32792,-0.70164c0.05496,-0.11908 0.10992,-0.23632 0.16488,-0.3554c0.10992,-0.24365 0.218,-0.48914 0.32609,-0.73279c0.05496,-0.12457 0.10992,-0.24732 0.16305,-0.37189c0.10809,-0.25648 0.21617,-0.51112 0.32609,-0.7676c0.05313,-0.12824 0.10809,-0.25831 0.16121,-0.38655c0.10809,-0.26747 0.21617,-0.53494 0.32426,-0.8024c0.05496,-0.13373 0.10809,-0.2693 0.16305,-0.40487c0.10809,-0.27846 0.21617,-0.55692 0.32426,-0.83721c0.16488,-0.43234 0.32792,-0.86469 0.49097,-1.29703c0.0055,-0.01649 0.01282,-0.03298 0.01832,-0.04946c0.02565,-0.02382 0.0513,-0.04763 0.07511,-0.07145c0.04946,-0.01649 0.09893,-0.03114 0.14656,-0.0458c0.01832,0 0.03664,0 0.05496,0c0.03114,0.01466 0.06229,0.02931 0.09343,0.0458z" stroke-linecap="round"/>
</g>
		<g id="c1eef048-44e3-46d9-a8fd-fbc8e6fde7b4-child-0">
<path style="stroke: rgb(193,193,193); stroke-width: 0; stroke-dasharray: none; stroke-linecap: butt; stroke-dashoffset: 0; stroke-linejoin: miter; stroke-miterlimit: 4; fill: rgb(62,208,203); fill-rule: evenodd; opacity: 1;" transform="matrix(0.183197 0 0 0.183197 28.030082 28.030082) matrix(1 0 0 1 0 0)  translate(-132.330059, -132.335)" d="M 263.75 133.65 C 186.61 162.34 162.34 186.65 133.65 263.75 C 133.45 264.30 132.92 264.67 132.34 264.67 C 131.75 264.67 131.22 264.30 131.02 263.75 C 102.33 186.61 78.02 162.34 0.92 133.65 C 0.37 133.45 0.00 132.92 0.00 132.34 C 0.00 131.75 0.37 131.22 0.92 131.02 C 78.06 102.33 102.33 78.06 131.00 0.92 C 131.20 0.37 131.73 0.00 132.31 0.00 C 132.90 0.00 133.43 0.37 133.63 0.92 C 162.32 78.06 186.63 102.33 263.73 131.02 C 264.28 131.22 264.66 131.74 264.66 132.33 C 264.66 132.92 264.30 133.44 263.75 133.65 Z" stroke-linecap="round"/>
</g>
</g>
</g>

  </svg>