<svg xmlns="http://www.w3.org/2000/svg" xmlns:xlink="http://www.w3.org/1999/xlink" width="392px" height="72px" viewBox="0 0 392.19899299328245 71.84356441338525">
    <g style="" id="61a8b155-64d4-42a8-92e5-add52ed14537">
<g style=""><path d="M-48.50441,-3.29717l-10.08306,6.54802l10.8719,13.16072l10.08306,-6.54802l-10.8719,-13.16072zM-37.63251,9.86355l-10.08306,6.54802v7.82014l10.08306,-6.54802v-7.82014zM-37.63251,17.68369l-10.08306,6.54802c0,0.80533 0.18014,1.38813 0.54042,1.74841l10.08306,-6.54802c-0.36028,-0.36028 -0.54042,-0.94308 -0.54042,-1.74841zM-37.0921,19.43209l-10.08306,6.54802c0.36028,0.36028 0.94308,0.54042 1.74841,0.54042l10.08306,-6.54802c-0.80533,0 -1.38813,-0.18014 -1.74841,-0.54042zM-35.34369,19.97251l-10.08306,6.54802h9.53676l10.08306,-6.54802h-9.53676zM-25.80693,19.97251l-10.08306,6.54802c0.64866,0 1.15296,-0.11687 1.51288,-0.35061l10.08306,-6.54802c-0.35993,0.23374 -0.86422,0.35061 -1.51288,0.35061zM-36.85657,-25.45331l-10.08306,6.54802c-0.08693,0.05645 -0.16544,0.11972 -0.23552,0.18981l10.08306,-6.54802c0.07009,-0.07009 0.14859,-0.13336 0.23552,-0.18981zM-37.0921,-25.2635l-10.08306,6.54802c-0.36028,0.36028 -0.54042,0.94308 -0.54042,1.74841l10.08306,-6.54802c0,-0.80533 0.18014,-1.38813 0.54042,-1.74841zM-37.63251,-23.5151l-10.08306,6.54802v13.54219l10.08306,-6.54802v-13.54219zM-61.84287,-25.45331l-10.08306,6.54802c-0.08693,0.05645 -0.16544,0.11972 -0.23552,0.18981l10.08306,-6.54802c0.07009,-0.07009 0.14859,-0.13336 0.23552,-0.18981zM-62.0784,-25.2635l-10.08306,6.54802c-0.36028,0.36028 -0.54042,0.94308 -0.54042,1.74841l10.08306,-6.54802c0,-0.80533 0.18014,-1.38813 0.54042,-1.74841zM-62.61881,-23.5151l-10.08306,6.54802v41.19879l10.08306,-6.54802v-41.19879zM-62.61881,17.68369l-10.08306,6.54802c0,0.80533 0.18014,1.38813 0.54042,1.74841l10.08306,-6.54802c-0.36028,-0.36028 -0.54042,-0.94308 -0.54042,-1.74841zM-62.0784,19.43209l-10.08306,6.54802c0.36028,0.36028 0.94308,0.54042 1.74841,0.54042l10.08306,-6.54802c-0.80533,0 -1.38813,-0.18014 -1.74841,-0.54042zM-60.32999,19.97251l-10.08306,6.54802h9.53676l10.08306,-6.54802h-9.53676zM-50.79324,19.97251l-10.08306,6.54802c0.64866,0 1.15296,-0.11687 1.51288,-0.35061l10.08306,-6.54802c-0.35993,0.23374 -0.86422,0.35061 -1.51288,0.35061zM-49.04483,19.43209c0.36028,-0.36028 0.54042,-0.94308 0.54042,-1.74841v-20.98086l10.8719,13.16072v7.82014c0,0.80533 0.18014,1.38813 0.54042,1.74841c0.36028,0.36028 0.94308,0.54042 1.74841,0.54042h9.53676c0.64866,0 1.15296,-0.11687 1.51288,-0.35061c0.08693,-0.05645 0.16544,-0.11972 0.23552,-0.18981c0.36028,-0.36028 0.54042,-0.94308 0.54042,-1.74841v-41.19879c0,-0.80533 -0.18014,-1.38813 -0.54042,-1.74841c-0.36028,-0.36028 -0.94308,-0.54042 -1.74841,-0.54042h-9.53676c-0.64866,0 -1.15296,0.11687 -1.51288,0.35061c-0.08693,0.05645 -0.16544,0.11972 -0.23552,0.18981c-0.36028,0.36028 -0.54042,0.94308 -0.54042,1.74841v13.54219l-12.3342,-14.1144c-0.55101,-0.63578 -1.11262,-1.08083 -1.68483,-1.33515c-0.57221,-0.25431 -1.26097,-0.38147 -2.0663,-0.38147h-6.61215c-0.64866,0 -1.15296,0.11687 -1.51288,0.35061c-0.08693,0.05645 -0.16544,0.11972 -0.23552,0.18981c-0.36028,0.36028 -0.54042,0.94308 -0.54042,1.74841v41.19879c0,0.80533 0.18014,1.38813 0.54042,1.74841c0.36028,0.36028 0.94308,0.54042 1.74841,0.54042h9.53676c0.64866,0 1.15296,-0.11687 1.51288,-0.35061c0.08693,-0.05645 0.16544,-0.11972 0.23552,-0.18981zM9.03402,2.48846l-10.08306,6.54802h12.39778l10.08306,-6.54802h-12.39778zM21.4318,2.48846l-10.08306,6.54802c0.64866,0 1.15296,-0.11687 1.51288,-0.35061l10.08306,-6.54802c-0.35993,0.23374 -0.86422,0.35061 -1.51288,0.35061zM9.03402,-13.78761l-10.08306,6.54802h17.54763l10.08306,-6.54802h-17.54763zM26.58165,-13.78761l-10.08306,6.54802c0.64866,0 1.15296,-0.11687 1.51288,-0.35061l10.08306,-6.54802c-0.35993,0.23374 -0.86422,0.35061 -1.51288,0.35061zM-4.4316,-25.45331l-10.08306,6.54802c-0.08693,0.05645 -0.16544,0.11972 -0.23552,0.18981l10.08306,-6.54802c0.07009,-0.07009 0.14859,-0.13336 0.23552,-0.18981zM-4.66712,-25.2635l-10.08306,6.54802c-0.36028,0.36028 -0.54042,0.94308 -0.54042,1.74841l10.08306,-6.54802c0,-0.80533 0.18014,-1.38813 0.54042,-1.74841zM-5.20754,-23.5151l-10.08306,6.54802v41.19879l10.08306,-6.54802v-41.19879zM-5.20754,17.68369l-10.08306,6.54802c0,0.80533 0.18014,1.38813 0.54042,1.74841l10.08306,-6.54802c-0.36028,-0.36028 -0.54042,-0.94308 -0.54042,-1.74841zM-4.66712,19.43209l-10.08306,6.54802c0.36028,0.36028 0.94308,0.54042 1.74841,0.54042l10.08306,-6.54802c-0.80533,0 -1.38813,-0.18014 -1.74841,-0.54042zM-2.91872,19.97251l-10.08306,6.54802h29.50037l10.08306,-6.54802h-29.50037zM26.58165,19.97251l-10.08306,6.54802c0.64866,0 1.15296,-0.11687 1.51288,-0.35061l10.08306,-6.54802c-0.35993,0.23374 -0.86422,0.35061 -1.51288,0.35061zM28.33005,19.43209c0.36028,-0.36028 0.54042,-0.94308 0.54042,-1.74841v-7.43867c0,-0.80533 -0.18014,-1.38813 -0.54042,-1.74841c-0.36028,-0.36028 -0.94308,-0.54042 -1.74841,-0.54042h-17.54763v-5.46774h12.39778c0.64866,0 1.15296,-0.11687 1.51288,-0.35061c0.08693,-0.05645 0.16544,-0.11972 0.23552,-0.18981c0.36028,-0.36028 0.54042,-0.94308 0.54042,-1.74841v-6.80289c0,-0.80533 -0.18014,-1.38813 -0.54042,-1.74841c-0.36028,-0.36028 -0.94308,-0.54042 -1.74841,-0.54042h-12.39778v-4.89553h17.54763c0.64866,0 1.15296,-0.11687 1.51288,-0.35061c0.08693,-0.05645 0.16544,-0.11972 0.23552,-0.18981c0.36028,-0.36028 0.54042,-0.94308 0.54042,-1.74841v-7.43867c0,-0.80533 -0.18014,-1.38813 -0.54042,-1.74841c-0.36028,-0.36028 -0.94308,-0.54042 -1.74841,-0.54042h-29.50037c-0.64866,0 -1.15296,0.11687 -1.51288,0.35061c-0.08693,0.05645 -0.16544,0.11972 -0.23552,0.18981c-0.36028,0.36028 -0.54042,0.94308 -0.54042,1.74841v41.19879c0,0.80533 0.18014,1.38813 0.54042,1.74841c0.36028,0.36028 0.94308,0.54042 1.74841,0.54042h29.50037c0.64866,0 1.15296,-0.11687 1.51288,-0.35061c0.08693,-0.05645 0.16544,-0.11972 0.23552,-0.18981zM74.99658,19.52746l-10.08306,6.54802c0.03803,-0.02129 0.07545,-0.0439 0.11228,-0.06781l10.08306,-6.54802c-0.03682,0.02391 -0.07425,0.04652 -0.11228,0.06781zM70.71804,-25.45331l-10.08306,6.54802c-0.08693,0.05645 -0.16544,0.11972 -0.23552,0.18981l10.08306,-6.54802c0.07009,-0.07009 0.14859,-0.13336 0.23552,-0.18981zM70.48252,-25.2635l-10.08306,6.54802c-0.36028,0.36028 -0.54042,0.94308 -0.54042,1.74841l10.08306,-6.54802c0,-0.80533 0.18014,-1.38813 0.54042,-1.74841zM69.9421,-23.5151l-10.08306,6.54802v17.48405l10.08306,-6.54802v-17.48405zM69.9421,-6.03104l-10.08306,6.54802c0,0.42386 -0.04239,0.84771 -0.12716,1.27157l10.08306,-6.54802c0.08477,-0.42386 0.12716,-0.84771 0.12716,-1.27157zM69.81494,-4.75948l-10.08306,6.54802c-0.08477,0.42386 -0.21193,0.8689 -0.38147,1.33515l10.08306,-6.54802c0.16954,-0.46624 0.2967,-0.91129 0.38147,-1.33515zM69.43347,-3.42433l-10.08306,6.54802l-2.98818,8.96455l10.08306,-6.54802l2.98818,-8.96455zM66.44529,5.54022l-10.08306,6.54802c-0.12716,0.42386 -0.27551,0.70996 -0.44505,0.85831l10.08306,-6.54802c0.16954,-0.14835 0.31789,-0.43445 0.44505,-0.85831zM66.00024,6.39853l-10.08306,6.54802c-0.02509,0.02195 -0.05204,0.04228 -0.08084,0.06099l10.08306,-6.54802c0.0288,-0.0187 0.05575,-0.03903 0.08084,-0.06099zM45.73174,-25.45331l-10.08306,6.54802c-0.08693,0.05645 -0.16544,0.11972 -0.23552,0.18981l10.08306,-6.54802c0.07009,-0.07009 0.14859,-0.13336 0.23552,-0.18981zM45.49621,-25.2635l-10.08306,6.54802c-0.36028,0.36028 -0.54042,0.94308 -0.54042,1.74841l10.08306,-6.54802c0,-0.80533 0.18014,-1.38813 0.54042,-1.74841zM44.9558,-23.5151l-10.08306,6.54802v16.78469l10.08306,-6.54802v-16.78469zM44.9558,-6.73041l-10.08306,6.54802c0,1.01725 0.03179,1.87556 0.09537,2.57492l10.08306,-6.54802c-0.06358,-0.69936 -0.09537,-1.55767 -0.09537,-2.57492zM45.05117,-4.15548l-10.08306,6.54802c0.06358,0.69936 0.18014,1.36694 0.34968,2.00272l10.08306,-6.54802c-0.16954,-0.63578 -0.2861,-1.30336 -0.34968,-2.00272zM45.40085,-2.15276l-10.08306,6.54802c0.16954,0.63578 0.38147,1.30336 0.63578,2.00272l10.08306,-6.54802c-0.25431,-0.69936 -0.46624,-1.36694 -0.63578,-2.00272zM46.03663,-0.15004l-10.08306,6.54802c0.25431,0.69936 0.57221,1.51528 0.95368,2.44777l10.08306,-6.54802c-0.38147,-0.93248 -0.69936,-1.74841 -0.95368,-2.44777zM46.99031,2.29772l-10.08306,6.54802l6.23068,15.5767l10.08306,-6.54802l-6.23068,-15.5767zM53.22099,17.87442l-10.08306,6.54802c0.2967,0.80533 0.70996,1.35634 1.23978,1.65304l10.08306,-6.54802c-0.52982,-0.2967 -0.94308,-0.84771 -1.23978,-1.65304zM54.46077,19.52746l-10.08306,6.54802c0.52982,0.2967 1.19739,0.44505 2.00272,0.44505l10.08306,-6.54802c-0.80533,0 -1.4729,-0.14835 -2.00272,-0.44505zM56.46348,19.97251l-10.08306,6.54802h16.53038l10.08306,-6.54802h-16.53038zM72.99386,19.97251l-10.08306,6.54802c0.80533,0 1.4729,-0.14835 2.00272,-0.44505l10.08306,-6.54802c-0.52982,0.2967 -1.19739,0.44505 -2.00272,0.44505zM74.99658,19.52746c0.03803,-0.02129 0.07545,-0.0439 0.11228,-0.06781c0.47626,-0.30929 0.8521,-0.8377 1.1275,-1.58522l6.23068,-15.5767c0.38147,-0.93248 0.69936,-1.74841 0.95368,-2.44777c0.25431,-0.69936 0.46624,-1.36694 0.63578,-2.00272c0.16954,-0.63578 0.2861,-1.30336 0.34968,-2.00272c0.06358,-0.69936 0.09537,-1.55767 0.09537,-2.57492v-16.78469c0,-0.80533 -0.18014,-1.38813 -0.54042,-1.74841c-0.36028,-0.36028 -0.94308,-0.54042 -1.74841,-0.54042h-9.9818c-0.64866,0 -1.15296,0.11687 -1.51288,0.35061c-0.08693,0.05645 -0.16544,0.11972 -0.23552,0.18981c-0.36028,0.36028 -0.54042,0.94308 -0.54042,1.74841v17.48405c0,0.42386 -0.04239,0.84771 -0.12716,1.27157c-0.08477,0.42386 -0.21193,0.8689 -0.38147,1.33515l-2.98818,8.96455c-0.12716,0.42386 -0.27551,0.70996 -0.44505,0.85831c-0.02509,0.02195 -0.05204,0.04228 -0.08084,0.06099c-0.16583,0.10769 -0.3932,0.16154 -0.6821,0.16154h-0.69936c-0.33908,0 -0.5934,-0.07417 -0.76294,-0.22252c-0.16954,-0.14835 -0.31789,-0.43445 -0.44505,-0.85831l-2.98818,-8.90097c-0.16954,-0.46624 -0.2967,-0.91129 -0.38147,-1.33515c-0.08477,-0.42386 -0.12716,-0.84771 -0.12716,-1.27157v-17.54763c0,-0.80533 -0.21193,-1.38813 -0.63578,-1.74841c-0.42386,-0.36028 -1.03845,-0.54042 -1.84377,-0.54042h-10.10896c-0.64866,0 -1.15296,0.11687 -1.51288,0.35061c-0.08693,0.05645 -0.16544,0.11972 -0.23552,0.18981c-0.36028,0.36028 -0.54042,0.94308 -0.54042,1.74841v16.78469c0,1.01725 0.03179,1.87556 0.09537,2.57492c0.06358,0.69936 0.18014,1.36694 0.34968,2.00272c0.16954,0.63578 0.38147,1.30336 0.63578,2.00272c0.25431,0.69936 0.57221,1.51528 0.95368,2.44777l6.23068,15.5767c0.2967,0.80533 0.70996,1.35634 1.23978,1.65304c0.52982,0.2967 1.19739,0.44505 2.00272,0.44505h16.53038c0.80533,0 1.4729,-0.14835 2.00272,-0.44505zM116.1,2.48846l-10.08306,6.54802h12.39778l10.08306,-6.54802h-12.39778zM128.49778,2.48846l-10.08306,6.54802c0.64866,0 1.15296,-0.11687 1.51288,-0.35061l10.08306,-6.54802c-0.35993,0.23374 -0.86422,0.35061 -1.51288,0.35061zM116.1,-13.78761l-10.08306,6.54802h17.54763l10.08306,-6.54802h-17.54763zM133.64763,-13.78761l-10.08306,6.54802c0.64866,0 1.15296,-0.11687 1.51288,-0.35061l10.08306,-6.54802c-0.35993,0.23374 -0.86422,0.35061 -1.51288,0.35061zM102.63438,-25.45331l-10.08306,6.54802c-0.08693,0.05645 -0.16544,0.11972 -0.23552,0.18981l10.08306,-6.54802c0.07009,-0.07009 0.14859,-0.13336 0.23552,-0.18981zM102.39886,-25.2635l-10.08306,6.54802c-0.36028,0.36028 -0.54042,0.94308 -0.54042,1.74841l10.08306,-6.54802c0,-0.80533 0.18014,-1.38813 0.54042,-1.74841zM101.85844,-23.5151l-10.08306,6.54802v41.19879l10.08306,-6.54802v-41.19879zM101.85844,17.68369l-10.08306,6.54802c0,0.80533 0.18014,1.38813 0.54042,1.74841l10.08306,-6.54802c-0.36028,-0.36028 -0.54042,-0.94308 -0.54042,-1.74841zM102.39886,19.43209l-10.08306,6.54802c0.36028,0.36028 0.94308,0.54042 1.74841,0.54042l10.08306,-6.54802c-0.80533,0 -1.38813,-0.18014 -1.74841,-0.54042zM104.14727,19.97251l-10.08306,6.54802h29.50037l10.08306,-6.54802h-29.50037zM133.64763,19.97251l-10.08306,6.54802c0.64866,0 1.15296,-0.11687 1.51288,-0.35061l10.08306,-6.54802c-0.35993,0.23374 -0.86422,0.35061 -1.51288,0.35061zM135.39604,19.43209c0.36028,-0.36028 0.54042,-0.94308 0.54042,-1.74841v-7.43867c0,-0.80533 -0.18014,-1.38813 -0.54042,-1.74841c-0.36028,-0.36028 -0.94308,-0.54042 -1.74841,-0.54042h-17.54763v-5.46774h12.39778c0.64866,0 1.15296,-0.11687 1.51288,-0.35061c0.08693,-0.05645 0.16544,-0.11972 0.23552,-0.18981c0.36028,-0.36028 0.54042,-0.94308 0.54042,-1.74841v-6.80289c0,-0.80533 -0.18014,-1.38813 -0.54042,-1.74841c-0.36028,-0.36028 -0.94308,-0.54042 -1.74841,-0.54042h-12.39778v-4.89553h17.54763c0.64866,0 1.15296,-0.11687 1.51288,-0.35061c0.08693,-0.05645 0.16544,-0.11972 0.23552,-0.18981c0.36028,-0.36028 0.54042,-0.94308 0.54042,-1.74841v-7.43867c0,-0.80533 -0.18014,-1.38813 -0.54042,-1.74841c-0.36028,-0.36028 -0.94308,-0.54042 -1.74841,-0.54042h-29.50037c-0.64866,0 -1.15296,0.11687 -1.51288,0.35061c-0.08693,0.05645 -0.16544,0.11972 -0.23552,0.18981c-0.36028,0.36028 -0.54042,0.94308 -0.54042,1.74841v41.19879c0,0.80533 0.18014,1.38813 0.54042,1.74841c0.36028,0.36028 0.94308,0.54042 1.74841,0.54042h29.50037c0.64866,0 1.15296,-0.11687 1.51288,-0.35061c0.08693,-0.05645 0.16544,-0.11972 0.23552,-0.18981zM172.11255,-14.35981l-10.08306,6.54802c1.10203,0 1.84377,0.2861 2.22524,0.85831l10.08306,-6.54802c-0.38147,-0.57221 -1.12322,-0.85831 -2.22524,-0.85831zM174.33779,-13.5015l-10.08306,6.54802c0.38147,0.57221 0.57221,1.28216 0.57221,2.12988l10.08306,-6.54802c0,-0.84771 -0.19074,-1.55767 -0.57221,-2.12988zM174.91,-11.37163l-10.08306,6.54802v2.16166l10.08306,-6.54802v-2.16166zM174.91,-9.20996l-10.08306,6.54802c0,0.84771 -0.19074,1.55767 -0.57221,2.12988l10.08306,-6.54802c0.38147,-0.57221 0.57221,-1.28216 0.57221,-2.12988zM174.33779,-7.08009l-10.08306,6.54802c-0.119,0.1785 -0.27306,0.32916 -0.46219,0.45198l10.08306,-6.54802c0.18912,-0.12282 0.34318,-0.27348 0.46219,-0.45198zM167.34417,-14.35981l-10.08306,6.54802h4.76838l10.08306,-6.54802h-4.76838zM172.11255,-14.35981c1.10203,0 1.84377,0.2861 2.22524,0.85831c0.38147,0.57221 0.57221,1.28216 0.57221,2.12988v2.16166c0,0.84771 -0.19074,1.55767 -0.57221,2.12988c-0.119,0.1785 -0.27306,0.32916 -0.46219,0.45198c-0.41713,0.27089 -1.00481,0.40633 -1.76306,0.40633h-4.76838v-8.13803zM167.34417,5.22233l-10.08306,6.54802h8.90097l10.08306,-6.54802h-8.90097zM176.24514,5.22233l-10.08306,6.54802c0.8901,0 1.51528,0.22252 1.87556,0.66757l10.08306,-6.54802c-0.36028,-0.44505 -0.98546,-0.66757 -1.87556,-0.66757zM178.12071,5.8899l-10.08306,6.54802c0.36028,0.44505 0.54042,1.13381 0.54042,2.0663l10.08306,-6.54802c0,-0.93248 -0.18014,-1.62125 -0.54042,-2.0663zM178.66112,7.9562l-10.08306,6.54802v9.72749l10.08306,-6.54802v-9.72749zM178.66112,17.68369l-10.08306,6.54802c0,0.80533 0.18014,1.38813 0.54042,1.74841l10.08306,-6.54802c-0.36028,-0.36028 -0.54042,-0.94308 -0.54042,-1.74841zM179.20154,19.43209l-10.08306,6.54802c0.36028,0.36028 0.94308,0.54042 1.74841,0.54042l10.08306,-6.54802c-0.80533,0 -1.38813,-0.18014 -1.74841,-0.54042zM180.94994,19.97251l-10.08306,6.54802h9.85465l10.08306,-6.54802h-9.85465zM190.80459,19.97251l-10.08306,6.54802c0.64866,0 1.15296,-0.11687 1.51288,-0.35061l10.08306,-6.54802c-0.35993,0.23374 -0.86422,0.35061 -1.51288,0.35061zM185.40043,-5.01379l-10.08306,6.54802c0.32863,-0.13781 0.63274,-0.2975 0.91232,-0.47906l10.08306,-6.54802c-0.27958,0.18156 -0.58369,0.34125 -0.91232,0.47906zM153.7514,-25.45331l-10.08306,6.54802c-0.08693,0.05645 -0.16544,0.11972 -0.23552,0.18981l10.08306,-6.54802c0.07009,-0.07009 0.14859,-0.13336 0.23552,-0.18981zM153.51587,-25.2635l-10.08306,6.54802c-0.36028,0.36028 -0.54042,0.94308 -0.54042,1.74841l10.08306,-6.54802c0,-0.80533 0.18014,-1.38813 0.54042,-1.74841zM152.97546,-23.5151l-10.08306,6.54802v41.19879l10.08306,-6.54802v-41.19879zM152.97546,17.68369l-10.08306,6.54802c0,0.80533 0.18014,1.38813 0.54042,1.74841l10.08306,-6.54802c-0.36028,-0.36028 -0.54042,-0.94308 -0.54042,-1.74841zM153.51587,19.43209l-10.08306,6.54802c0.36028,0.36028 0.94308,0.54042 1.74841,0.54042l10.08306,-6.54802c-0.80533,0 -1.38813,-0.18014 -1.74841,-0.54042zM155.26428,19.97251l-10.08306,6.54802h9.79107l10.08306,-6.54802h-9.79107zM165.05535,19.97251l-10.08306,6.54802c0.64866,0 1.15296,-0.11687 1.51288,-0.35061l10.08306,-6.54802c-0.35993,0.23374 -0.86422,0.35061 -1.51288,0.35061zM166.80376,19.43209c0.36028,-0.36028 0.54042,-0.94308 0.54042,-1.74841v-12.46136h8.90097c0.8901,0 1.51528,0.22252 1.87556,0.66757c0.36028,0.44505 0.54042,1.13381 0.54042,2.0663v9.72749c0,0.80533 0.18014,1.38813 0.54042,1.74841c0.36028,0.36028 0.94308,0.54042 1.74841,0.54042h9.85465c0.64866,0 1.15296,-0.11687 1.51288,-0.35061c0.08693,-0.05645 0.16544,-0.11972 0.23552,-0.18981c0.36028,-0.36028 0.54042,-0.94308 0.54042,-1.74841v-13.47862c0,-2.67029 -0.70996,-4.81076 -2.12988,-6.42142c-1.41992,-1.61065 -3.27429,-2.54314 -5.56311,-2.79745c0.32863,-0.13781 0.63274,-0.2975 0.91232,-0.47906c0.83825,-0.54437 1.45603,-1.28537 1.85334,-2.22302c0.52982,-1.25037 0.79473,-2.76566 0.79473,-4.54585v-2.92461c0,-3.13653 -0.90069,-5.69026 -2.70208,-7.66119c-1.80139,-1.97093 -5.07567,-2.95639 -9.82286,-2.95639h-21.1716c-0.64866,0 -1.15296,0.11687 -1.51288,0.35061c-0.08693,0.05645 -0.16544,0.11972 -0.23552,0.18981c-0.36028,0.36028 -0.54042,0.94308 -0.54042,1.74841v41.19879c0,0.80533 0.18014,1.38813 0.54042,1.74841c0.36028,0.36028 0.94308,0.54042 1.74841,0.54042h9.79107c0.64866,0 1.15296,-0.11687 1.51288,-0.35061c0.08693,-0.05645 0.16544,-0.11972 0.23552,-0.18981z" fill="rgb(0, 0, 0)" stroke="rgb(0, 0, 0)" stroke-width="6.556592287046853" stroke-linejoin="round" transform="matrix(1 0 0 1 195.827284 35.921782)"/><path d="M-50.79324 19.97251L-60.32999 19.97251Q-61.53798 19.97251 -62.0784 19.43209Q-62.61881 18.89168 -62.61881 17.68369L-62.61881 -23.5151Q-62.61881 -24.72309 -62.0784 -25.2635Q-61.53798 -25.80392 -60.32999 -25.80392L-53.71784 -25.80392Q-52.50985 -25.80392 -51.65154 -25.42245Q-50.79324 -25.04098 -49.96672 -24.0873L-37.63251 -9.9729L-37.63251 -23.5151Q-37.63251 -24.72309 -37.0921 -25.2635Q-36.55168 -25.80392 -35.34369 -25.80392L-25.80693 -25.80392Q-24.59894 -25.80392 -24.05853 -25.2635Q-23.51811 -24.72309 -23.51811 -23.5151L-23.51811 17.68369Q-23.51811 18.89168 -24.05853 19.43209Q-24.59894 19.97251 -25.80693 19.97251L-35.34369 19.97251Q-36.55168 19.97251 -37.0921 19.43209Q-37.63251 18.89168 -37.63251 17.68369L-37.63251 9.86355L-48.50441 -3.29717L-48.50441 17.68369Q-48.50441 18.89168 -49.04483 19.43209Q-49.58525 19.97251 -50.79324 19.97251Z" fill="rgb(246, 105, 110)" transform="matrix(1 0 0 1 195.827284 35.921782)"/><path d="M26.58165 19.97251L-2.91872 19.97251Q-4.12671 19.97251 -4.66712 19.43209Q-5.20754 18.89168 -5.20754 17.68369L-5.20754 -23.5151Q-5.20754 -24.72309 -4.66712 -25.2635Q-4.12671 -25.80392 -2.91872 -25.80392L26.58165 -25.80392Q27.78964 -25.80392 28.33005 -25.2635Q28.87047 -24.72309 28.87047 -23.5151L28.87047 -16.07643Q28.87047 -14.86844 28.33005 -14.32802Q27.78964 -13.78761 26.58165 -13.78761L9.03402 -13.78761L9.03402 -8.89207L21.4318 -8.89207Q22.63979 -8.89207 23.1802 -8.35166Q23.72062 -7.81124 23.72062 -6.60325L23.72062 0.19964Q23.72062 1.40763 23.1802 1.94804Q22.63979 2.48846 21.4318 2.48846L9.03402 2.48846L9.03402 7.9562L26.58165 7.9562Q27.78964 7.9562 28.33005 8.49661Q28.87047 9.03703 28.87047 10.24502L28.87047 17.68369Q28.87047 18.89168 28.33005 19.43209Q27.78964 19.97251 26.58165 19.97251Z" fill="rgb(246, 105, 110)" transform="matrix(1 0 0 1 195.827284 35.921782)"/><path d="M72.99386 19.97251L56.46348 19.97251Q55.2555 19.97251 54.46077 19.52746Q53.66604 19.08241 53.22099 17.87442L46.99031 2.29772Q46.4181 0.899 46.03663 -0.15004Q45.65516 -1.19909 45.40085 -2.15276Q45.14653 -3.10644 45.05117 -4.15548Q44.9558 -5.20453 44.9558 -6.73041L44.9558 -23.5151Q44.9558 -24.72309 45.49621 -25.2635Q46.03663 -25.80392 47.24462 -25.80392L57.35358 -25.80392Q58.56157 -25.80392 59.19735 -25.2635Q59.83314 -24.72309 59.83314 -23.5151L59.83314 -5.96747Q59.83314 -5.33168 59.96029 -4.6959Q60.08745 -4.06012 60.34177 -3.36075L63.32995 5.54022Q63.52068 6.176 63.775 6.39853Q64.02931 6.62105 64.53794 6.62105L65.2373 6.62105Q65.74593 6.62105 66.00024 6.39853Q66.25455 6.176 66.44529 5.54022L69.43347 -3.42433Q69.68779 -4.12369 69.81494 -4.75948Q69.9421 -5.39526 69.9421 -6.03104L69.9421 -23.5151Q69.9421 -24.72309 70.48252 -25.2635Q71.02293 -25.80392 72.23092 -25.80392L82.21273 -25.80392Q83.42072 -25.80392 83.96113 -25.2635Q84.50155 -24.72309 84.50155 -23.5151L84.50155 -6.73041Q84.50155 -5.20453 84.40618 -4.15548Q84.31081 -3.10644 84.0565 -2.15276Q83.80219 -1.19909 83.42072 -0.15004Q83.03925 0.899 82.46704 2.29772L76.23636 17.87442Q75.79131 19.08241 74.99658 19.52746Q74.20185 19.97251 72.99386 19.97251Z" fill="rgb(246, 105, 110)" transform="matrix(1 0 0 1 195.827284 35.921782)"/><path d="M133.64763 19.97251L104.14727 19.97251Q102.93928 19.97251 102.39886 19.43209Q101.85844 18.89168 101.85844 17.68369L101.85844 -23.5151Q101.85844 -24.72309 102.39886 -25.2635Q102.93928 -25.80392 104.14727 -25.80392L133.64763 -25.80392Q134.85562 -25.80392 135.39604 -25.2635Q135.93645 -24.72309 135.93645 -23.5151L135.93645 -16.07643Q135.93645 -14.86844 135.39604 -14.32802Q134.85562 -13.78761 133.64763 -13.78761L116.1 -13.78761L116.1 -8.89207L128.49778 -8.89207Q129.70577 -8.89207 130.24619 -8.35166Q130.78661 -7.81124 130.78661 -6.60325L130.78661 0.19964Q130.78661 1.40763 130.24619 1.94804Q129.70577 2.48846 128.49778 2.48846L116.1 2.48846L116.1 7.9562L133.64763 7.9562Q134.85562 7.9562 135.39604 8.49661Q135.93645 9.03703 135.93645 10.24502L135.93645 17.68369Q135.93645 18.89168 135.39604 19.43209Q134.85562 19.97251 133.64763 19.97251Z" fill="rgb(246, 105, 110)" transform="matrix(1 0 0 1 195.827284 35.921782)"/><path d="M167.34417 -14.35981L167.34417 -6.22178L172.11255 -6.22178Q173.76559 -6.22178 174.33779 -7.08009Q174.91 -7.9384 174.91 -9.20996L174.91 -11.37163Q174.91 -12.6432 174.33779 -13.5015Q173.76559 -14.35981 172.11255 -14.35981ZM165.05535 19.97251L155.26428 19.97251Q154.05629 19.97251 153.51587 19.43209Q152.97546 18.89168 152.97546 17.68369L152.97546 -23.5151Q152.97546 -24.72309 153.51587 -25.2635Q154.05629 -25.80392 155.26428 -25.80392L176.43588 -25.80392Q183.55666 -25.80392 186.25874 -22.84753Q188.96082 -19.89113 188.96082 -15.18633L188.96082 -12.26173Q188.96082 -9.59143 188.16609 -7.71587Q187.37136 -5.84031 185.40043 -5.01379Q188.83366 -4.63232 190.96354 -2.21634Q193.09341 0.19964 193.09341 4.20507L193.09341 17.68369Q193.09341 18.89168 192.553 19.43209Q192.01258 19.97251 190.80459 19.97251L180.94994 19.97251Q179.74195 19.97251 179.20154 19.43209Q178.66112 18.89168 178.66112 17.68369L178.66112 7.9562Q178.66112 6.55747 178.12071 5.8899Q177.58029 5.22233 176.24514 5.22233L167.34417 5.22233L167.34417 17.68369Q167.34417 18.89168 166.80376 19.43209Q166.26334 19.97251 165.05535 19.97251Z" fill="rgb(246, 105, 110)" transform="matrix(1 0 0 1 195.827284 35.921782)"/></g></g>

  </svg>