<svg xmlns="http://www.w3.org/2000/svg" xmlns:xlink="http://www.w3.org/1999/xlink" width="152px" height="60px" viewBox="0 0 98.54590699999244 38.93156795361597">
    <g style="" id="6345a2cf-2849-426c-af3c-373b70f9e085">
<g style=""><path d="M-32.16161 -16.77365Q-30.37007 -16.63584 -29.43984 -16.63584Q-28.09619 -16.63584 -27.09706 -16.77365L-26.68363 -16.8081Q-26.23574 -16.8081 -26.02903 -16.60139Q-25.78786 -16.39467 -25.63282 -16.03292Q-25.47778 -15.67116 -25.47778 -15.29218Q-25.47778 -14.94765 -25.65005 -14.60313Q-25.99457 -13.87962 -26.2702 -13.604Q-26.54582 -13.32838 -27.13151 -13.32838Q-27.95838 -13.32838 -28.44072 -13.2767Q-28.92305 -13.22502 -29.16422 -12.88049Q-29.33649 -12.60487 -29.33649 -12.13976Q-29.33649 -11.67465 -29.33649 -11.64019Q-29.33649 -11.39903 -29.30203 -10.83056Q-29.26758 -10.26209 -29.26758 -9.19405Q-29.26758 -7.78149 -29.40539 -6.57565Q-29.5432 -5.43871 -29.5432 -4.0606Q-29.5432 -2.57913 -29.40539 -1.06321Q-29.33649 1.21067 -29.33649 2.8644Q-29.33649 5.13828 -29.40539 8.51464L-29.43984 9.96166Q-29.43984 10.47845 -29.57766 10.59903Q-29.71547 10.71962 -30.1978 10.82298Q-30.37007 10.85743 -30.66292 10.90911Q-30.95576 10.96079 -31.12803 10.96079Q-31.40365 10.96079 -31.64482 10.82298Q-32.23051 10.47845 -32.42 10.22005Q-32.60949 9.96166 -32.6784 9.37596Q-32.78176 8.37683 -32.78176 7.17099Q-32.78176 5.31054 -32.60949 3.17447Q-32.57504 2.62323 -32.54059 1.96863Q-32.50614 1.31403 -32.50614 0.55607L-32.50614 -0.95985Q-32.50614 -2.78585 -32.54059 -3.78498L-32.54059 -4.92191L-32.50614 -6.81681Q-32.47168 -7.40251 -32.47168 -8.53945Q-32.47168 -10.81333 -32.91957 -12.91494Q-32.91957 -12.98385 -32.95402 -13.13889Q-32.98847 -13.29392 -33.09183 -13.3456Q-33.19519 -13.39728 -33.36745 -13.39728Q-33.64308 -13.43174 -34.15987 -13.43174Q-34.29768 -13.43174 -34.86615 -13.43174Q-35.43462 -13.43174 -35.8825 -13.56955Q-36.15812 -13.70736 -36.22703 -13.79349Q-36.29594 -13.87962 -36.36484 -14.22415Q-36.4682 -14.63758 -36.4682 -14.98211Q-36.4682 -15.63671 -36.08922 -16.11905Q-35.74469 -16.56693 -35.60688 -16.67029Q-35.46907 -16.77365 -35.05564 -16.77365Q-34.67666 -16.8081 -34.02206 -16.8081L-32.95402 -16.8081Z" fill="rgb(37, 37, 37)" transform="matrix(1 0 0 1 49.272953 19.465784)"/><path d="M-14.14284 10.75407Q-14.38401 10.78852 -14.72854 10.85743Q-15.07306 10.92633 -15.27978 10.92633Q-15.62431 10.92633 -16.00329 10.71962Q-16.34781 10.5129 -16.48562 10.25451Q-16.62343 9.99611 -16.62343 9.58268Q-16.62343 9.06589 -16.48562 8.10121Q-16.31336 7.17099 -16.31336 6.37858Q-16.31336 5.86178 -16.41672 5.20718Q-16.48562 4.8282 -16.48562 3.96689L-16.48562 2.76104Q-16.48562 1.86527 -16.52008 1.34848Q-16.55453 0.79724 -16.7957 0.21154Q-17.03687 -0.37416 -17.10577 -0.51197Q-17.4503 -1.44219 -18.1049 -1.44219Q-18.38052 -1.44219 -18.79396 -1.20102Q-19.17294 -0.95985 -19.37965 -0.73591Q-19.58637 -0.51197 -19.75863 -0.09853Q-19.86199 0.14263 -19.86199 0.83169Q-19.86199 1.07286 -19.89644 2.14089Q-19.9309 3.20893 -20.13761 5.13828Q-20.20652 5.72397 -20.03425 6.89537Q-19.89644 8.06676 -19.89644 8.79027Q-19.89644 9.75494 -20.44769 10.32341Q-20.99893 10.89188 -21.79134 10.89188Q-22.20477 10.85743 -22.44594 10.7713Q-22.68711 10.68517 -22.85938 10.37509Q-23.16945 9.78939 -23.23836 9.13479L-23.27281 8.20457Q-23.41062 5.44835 -23.41062 3.79462Q-23.41062 1.93418 -23.27281 0.52161Q-23.16945 -0.58087 -23.16945 -1.33883Q-23.16945 -1.95898 -23.2039 -2.37241Q-23.23836 -2.68249 -23.23836 -3.33709Q-23.23836 -4.19841 -23.2039 -4.64629L-23.16945 -6.09331Q-23.16945 -6.95463 -23.27281 -7.88485Q-23.44507 -9.50413 -23.44507 -10.70997Q-23.44507 -11.77801 -23.30726 -13.50064Q-23.27281 -13.84517 -23.27281 -14.32751Q-23.27281 -14.80984 -23.16945 -15.15437Q-22.92828 -16.08459 -22.29091 -16.49803Q-21.65353 -16.91146 -20.79221 -16.8081Q-20.5855 -16.77365 -20.13761 -16.77365Q-19.4141 -16.77365 -19.03513 -16.8081L-17.82928 -16.84255Q-16.89906 -16.84255 -16.24446 -16.72197Q-15.58985 -16.60139 -15.14197 -16.18795Q-14.3151 -15.42999 -13.83277 -14.68926Q-13.35043 -13.94853 -13.14371 -13.0183Q-12.90254 -11.81246 -12.90254 -9.8142Q-12.90254 -8.09156 -13.07481 -7.40251L-13.24707 -6.64455Q-13.52269 -5.3698 -13.69495 -4.87024Q-13.86722 -4.37067 -14.3151 -3.85388Q-14.72854 -3.37154 -14.72854 -2.95811Q-14.72854 -2.64804 -14.60795 -2.40687Q-14.48737 -2.1657 -14.29788 -1.9073Q-14.10839 -1.64891 -13.97058 -1.44219Q-13.14371 0.00482 -13.24707 1.83082Q-13.35043 3.69126 -13.35043 4.7593Q-13.35043 5.68952 -13.28152 6.86091Q-13.21262 8.06676 -13.24707 8.79027Q-13.24707 9.47932 -13.45379 10.09947Q-13.6605 10.71962 -14.14284 10.75407ZM-18.62169 -4.47403Q-17.89819 -4.47403 -17.4503 -4.92191Q-16.83015 -5.54206 -16.5373 -6.31725Q-16.24446 -7.09244 -16.24446 -8.16047Q-16.24446 -8.91843 -16.34781 -9.57303Q-16.34781 -9.8142 -16.39949 -10.26209Q-16.45117 -10.70997 -16.45117 -11.08895Q-16.45117 -11.36457 -16.38227 -12.05363Q-16.31336 -13.05276 -16.65789 -13.43174Q-16.89906 -13.6729 -17.38139 -13.75904Q-17.86373 -13.84517 -18.31162 -13.77626Q-18.55279 -13.74181 -18.93177 -13.74181Q-19.31075 -13.74181 -19.55192 -13.6729Q-19.79308 -13.604 -19.96535 -13.36283Q-20.20652 -13.05276 -20.13761 -12.50151Q-20.06871 -11.33012 -20.06871 -10.77888L-20.10316 -8.95288Q-20.13761 -8.43609 -20.13761 -7.40251Q-20.13761 -5.9555 -19.9309 -5.26644Q-19.82754 -4.92191 -19.68973 -4.73242Q-19.55192 -4.54294 -19.20739 -4.50848Z" fill="rgb(37, 37, 37)" transform="matrix(1 0 0 1 49.272953 19.465784)"/><path d="M-7.9069 10.82298Q-9.38836 10.96079 -9.8707 10.06502Q-10.04297 9.72049 -10.04297 8.79027Q-10.04297 8.03231 -9.97406 6.58529Q-9.8707 5.37945 -9.8707 4.1047Q-9.8707 2.9333 -9.93961 2.31316Q-10.00851 1.48629 -10.00851 -0.23635L-10.00851 -2.64804Q-10.00851 -4.7152 -10.11187 -5.71433Q-10.21523 -7.16134 -10.21523 -8.5739Q-10.21523 -9.74529 -10.14632 -11.81246Q-10.07742 -13.604 -10.07742 -14.39641Q-10.07742 -14.60313 -10.09465 -14.89598Q-10.11187 -15.18882 -10.07742 -15.60226Q-10.00851 -16.42912 -9.52618 -16.70474Q-9.38836 -16.77365 -9.07829 -16.77365Q-8.66486 -16.77365 -8.49259 -16.7392Q-7.66573 -16.67029 -7.2523 -16.67029L-5.4263 -16.70474Q-3.32469 -16.70474 -2.25665 -15.96401Q-1.18862 -15.22328 -0.39621 -13.32838Q0.2584 -11.7091 0.2584 -9.43522Q0.2584 -8.74617 0.18949 -7.43696L0.15504 -6.43783Q0.12058 -5.81769 0.12058 -4.54294Q0.12058 -3.19928 0.18949 -0.71868L0.22394 2.55432Q0.22394 5.03492 0.01723 6.27522Q-0.18949 7.54997 -0.44789 8.44574Q-0.70628 9.34151 -1.22307 9.89275Q-1.67096 10.40954 -2.25665 10.61626Q-2.84235 10.82298 -4.186 10.82298Q-4.73725 10.82298 -5.04732 10.78852L-6.39098 10.75407Q-7.35565 10.75407 -7.9069 10.82298ZM-6.39098 7.9634Q-6.14981 7.99785 -5.80528 8.04953Q-5.46076 8.10121 -5.21959 8.10121Q-4.84061 8.10121 -4.56498 7.9634Q-4.35827 7.86004 -4.03097 7.70501Q-3.70367 7.54997 -3.56586 7.36048Q-3.42805 7.17099 -3.32469 6.75756Q-3.15242 6.10295 -3.11797 5.36222Q-3.08352 4.62149 -3.08352 4.44922Q-3.08352 3.48455 -3.01461 3.00221Q-2.8768 1.89972 -2.8768 0.65942Q-2.8768 -0.75314 -2.98016 -1.99343Q-3.08352 -3.64716 -3.04907 -4.74965Q-2.91125 -7.78149 -2.91125 -8.64281Q-2.91125 -10.36544 -3.18688 -11.19231Q-3.25578 -11.36457 -3.29023 -11.60574Q-3.32469 -11.84691 -3.32469 -11.95027Q-3.39359 -12.57042 -3.56586 -12.84604Q-4.186 -13.77626 -5.56411 -13.77626Q-6.35653 -13.77626 -6.63215 -13.51787Q-6.90777 -13.25947 -6.90777 -12.77713Q-6.90777 -12.53596 -6.87332 -12.24312Q-6.83886 -11.95027 -6.83886 -11.67465Q-6.87332 -11.22676 -6.80441 -10.3999Q-6.73551 -9.64194 -6.73551 -8.98734Q-6.73551 -8.29828 -6.90777 -6.23112Q-7.01113 -5.09418 -7.01113 -3.92279L-6.97667 -1.99343Q-6.94222 -1.33883 -6.94222 -0.06408L-6.90777 4.07024L-6.94222 6.10295Q-6.94222 6.79201 -6.76996 7.58442Q-6.6666 7.92895 -6.39098 7.9634Z" fill="rgb(37, 37, 37)" transform="matrix(1 0 0 1 49.272953 19.465784)"/><path d="M7.21784 8.72136Q7.21784 9.2726 7.01113 9.61713Q6.94222 9.75494 6.87332 9.96166Q6.80441 10.16837 6.6666 10.30619Q6.28762 10.71962 5.97755 10.87465Q5.66747 11.02969 4.87506 11.02969Q4.35827 11.02969 4.08265 10.82298Q3.5314 10.47845 3.35914 9.99611Q3.29023 9.78939 3.11797 9.42764Q2.94571 9.06589 2.98016 8.75581Q2.98016 8.65245 3.03184 8.35961Q3.08352 8.06676 3.16965 7.86004Q3.25578 7.65333 3.42805 7.51552Q3.56586 7.41216 3.80703 7.15376Q4.04819 6.89537 4.32382 6.82646Q4.73725 6.68865 5.08178 6.68865Q5.39185 6.68865 5.61579 6.79201Q5.83974 6.89537 6.0809 7.08486Q6.32207 7.27435 6.49434 7.3777Q7.11449 7.82559 7.21784 8.51464Z" fill="rgb(37, 37, 37)" transform="matrix(1 0 0 1 49.272953 19.465784)"/><path d="M11.52443 -16.60139Q11.83451 -16.7392 12.28239 -16.7392Q13.0059 -16.7392 13.6605 -16.32576Q13.86722 -16.18795 13.93612 -15.91233Q14.00503 -15.63671 14.02226 -15.29218Q14.03948 -14.94765 14.07393 -14.70649Q14.55627 -12.26034 14.83189 -10.95114L14.9697 -10.26209Q15.65876 -7.2647 15.76212 -5.92104Q15.83102 -5.16308 16.02051 -4.49126Q16.21 -3.81943 16.41672 -3.81943Q16.55453 -3.81943 16.64066 -4.21563Q16.72679 -4.61184 16.7957 -5.12863Q16.83015 -5.26644 16.93351 -6.0244Q17.03687 -6.78236 17.27804 -7.43696Q17.62256 -8.43609 17.81205 -9.52135Q18.00154 -10.60661 18.17381 -12.08808Q18.41498 -14.15524 18.7595 -14.8443Q18.86286 -15.05101 19.06958 -15.53335Q19.27629 -16.01569 19.53469 -16.30854Q19.79308 -16.60139 20.17206 -16.70474Q20.41323 -16.8081 20.82667 -16.8081Q21.58463 -16.8081 22.03251 -16.29131Q22.4804 -15.77452 22.41149 -15.05101Q22.34259 -14.39641 22.34259 -13.39728Q22.34259 -12.3637 22.44594 -11.33012Q22.61821 -9.02179 22.61821 -7.43696L22.61821 -6.12776Q22.61821 -5.74878 22.68711 -4.64629Q22.75602 -3.33709 22.75602 -2.44132Q22.75602 -1.89008 22.68711 -0.9254Q22.61821 -0.37416 22.61821 1.34848Q22.61821 3.38119 22.75602 5.24164Q22.85938 6.20631 22.85938 6.96427Q22.85938 8.10121 22.5493 9.65158Q22.44594 10.20283 22.27368 10.47845Q22.10142 10.75407 21.68798 10.82298Q21.13674 10.92633 20.89557 10.92633Q20.20652 10.92633 20.01703 10.70239Q19.82754 10.47845 19.79308 10.09947Q19.75863 9.72049 19.72418 9.54823Q19.48301 7.54997 19.48301 6.0685Q19.48301 5.06937 19.58637 4.00134Q19.75863 2.41651 19.75863 0.3838L19.72418 -3.54381Q19.72418 -4.09505 19.75863 -4.40512L19.79308 -5.33535Q19.79308 -5.78323 19.74141 -5.98995Q19.68973 -6.19667 19.51746 -6.19667Q19.3452 -6.19667 19.27629 -5.97272Q19.20739 -5.74878 19.12126 -5.16308Q19.03513 -4.57739 18.96622 -4.23286Q18.82841 -3.30264 18.51833 -0.95985Q18.20826 1.38293 18.00154 2.55432L17.72592 3.86353Q17.4503 4.96601 17.31249 5.65507Q17.20913 6.10295 17.00241 6.27522Q16.8646 6.37858 16.62343 6.43025Q16.38227 6.48193 16.24446 6.37858Q15.79657 5.9996 15.72766 5.72397Q15.38314 4.31141 15.31423 3.38119Q15.24533 2.76104 15.10752 2.10644Q14.93525 1.45184 14.76299 0.3149Q14.72854 0.10818 14.50459 -1.16657Q14.28065 -2.44132 13.79831 -4.19841Q13.72941 -4.47403 13.71218 -4.74965Q13.69495 -5.02527 13.64328 -5.21476Q13.5916 -5.40425 13.45379 -5.40425Q13.24707 -5.40425 13.24707 -5.05973Q13.24707 -4.64629 13.35043 -3.30264Q13.45379 -2.75139 13.45379 -1.95898Q13.45379 -1.20102 13.31597 0.3838Q13.17816 1.96863 13.17816 2.79549Q13.17816 3.20893 13.24707 3.96689Q13.48824 6.17186 13.48824 9.23815Q13.48824 9.89275 13.19539 10.32341Q12.90254 10.75407 12.45466 10.82298Q12.31685 10.85743 12.04122 10.85743Q11.111 10.85743 10.5253 10.03056Q10.35304 9.78939 10.33581 9.41041Q10.31859 9.03143 10.35304 8.48019Q10.42195 7.68778 10.42195 6.92982Q10.42195 6.61974 10.35304 6.13741Q10.21523 5.44835 10.14632 3.38119Q10.14632 1.65855 10.18078 0.48716Q10.24968 -1.85562 10.24968 -3.61271Q10.24968 -6.05885 10.11187 -8.26383Q10.07742 -8.67726 10.07742 -9.43522Q10.07742 -10.50325 10.21523 -12.43261Q10.35304 -13.87962 10.35304 -14.63758Q10.35304 -15.4989 10.55976 -15.87788Q10.76647 -16.25686 11.52443 -16.60139Z" fill="rgb(37, 37, 37)" transform="matrix(1 0 0 1 49.272953 19.465784)"/><path d="M29.26758 -13.36283Q29.12977 -12.26034 29.12977 -10.26209Q29.12977 -8.22938 28.99196 -7.09244L28.99196 -6.95463Q28.99196 -6.71346 29.11254 -6.62732Q29.23313 -6.54119 29.33649 -6.6101Q29.64656 -6.74791 29.81882 -7.12689L30.23226 -7.95375Q30.85241 -9.09069 31.23139 -10.02092Q31.61037 -10.95114 31.71372 -11.88136Q31.81708 -12.91494 32.05825 -13.77626Q32.29942 -14.63758 32.71285 -15.74007Q33.09183 -16.8081 33.81534 -16.7392Q34.15987 -16.70474 34.5733 -16.77365Q34.98673 -16.84255 35.26235 -16.84255Q35.53798 -16.84255 35.84805 -16.7392Q36.19258 -16.60139 36.19258 -16.18795Q36.19258 -15.91233 36.15812 -15.77452Q36.05477 -15.22328 35.50352 -13.87962Q35.2279 -13.25947 34.95228 -12.53596Q34.67666 -11.81246 34.53885 -11.08895Q33.9187 -8.02266 33.09183 -6.19667Q32.64395 -5.16308 32.64395 -4.54294Q32.64395 -4.09505 32.91957 -3.19928Q33.71198 -0.2708 34.02206 2.07199Q34.15987 3.24338 34.5733 4.51813Q34.98673 5.79288 35.09009 6.10295Q35.43462 7.03318 35.71024 8.03231Q35.74469 8.20457 36.02031 8.75581Q36.33039 9.30706 36.33039 9.8583Q36.33039 10.444 35.57243 10.71962Q35.26235 10.82298 34.95228 10.82298Q34.43549 10.82298 33.71198 10.58181Q33.40191 10.47845 33.22964 10.20283Q33.05738 9.92721 32.88512 9.44487Q32.50614 8.37683 32.29942 7.58442L31.71372 5.79288Q31.4381 5.00047 31.12803 3.72572Q30.81795 2.45097 30.64569 1.27957Q30.37007 -0.23635 29.99109 -0.47751Q29.85328 -0.58087 29.71547 -0.58087Q29.4743 -0.58087 29.38817 -0.18467Q29.30203 0.21154 29.26758 1.00395Q29.26758 1.41738 29.19868 1.89972Q29.12977 2.2787 29.12977 3.24338Q29.12977 5.10383 29.06087 6.75756Q29.02641 7.10208 29.02641 7.72223L29.06087 8.75581Q29.12977 9.58268 29.12977 10.06502Q29.12977 10.47845 28.95751 10.65071Q28.78524 10.82298 28.37181 10.82298L27.16597 10.82298Q26.64918 10.82298 26.44246 10.68517Q26.06348 10.40954 25.96012 9.30706Q25.92567 8.75581 25.99457 7.61887L26.02903 6.24076L25.99457 3.27783Q25.99457 2.38206 26.02903 1.89972Q26.16684 -0.02963 26.16684 -2.51022Q26.16684 -4.7841 26.02903 -6.57565Q25.89122 -8.33273 25.89122 -10.3999L25.92567 -13.74181L25.89122 -15.70561Q25.89122 -16.18795 25.97735 -16.4119Q26.06348 -16.63584 26.37355 -16.77365Q26.58027 -16.87701 26.82144 -16.87701Q27.06261 -16.87701 27.16597 -16.84255Q27.37268 -16.77365 27.68276 -16.75642Q27.99283 -16.7392 28.19955 -16.70474Q28.64743 -16.63584 28.83692 -16.4119Q29.02641 -16.18795 29.09532 -15.70561Q29.30203 -14.53422 29.30203 -13.94853Q29.30203 -13.56955 29.26758 -13.36283Z" fill="rgb(37, 37, 37)" transform="matrix(1 0 0 1 49.272953 19.465784)"/></g></g>

  </svg>