<svg xmlns="http://www.w3.org/2000/svg" xmlns:xlink="http://www.w3.org/1999/xlink" width="111px" height="121px" viewBox="0 0 111.37094369810075 121.06154972173795">
    <g style="" id="94d35a2c-f0ab-4174-9c62-11836def801d">
<g style=""><path d="" fill="rgb(37, 37, 37)" transform="matrix(1 0 0 1 55.685281 89.390636)"/><path d="M-43.96206 -5.82592L-42.97377 -6.22399Q-42.76929 -6.25638 -42.76929 -5.85958Q-42.76929 -5.46279 -43.94502 -4.37945Q-45.12075 -3.29612 -46.77359 -3.03431Q-48.42643 -2.77251 -49.3636 -3.59018Q-50.30078 -4.40784 -50.30078 -5.96052Q-50.30078 -9.2384 -46.07497 -13.13388Q-41.84916 -17.02935 -35.68084 -19.95587Q-29.51252 -22.88239 -23.85538 -23.77846Q-15.57416 -25.09017 -11.53578 -23.00402Q-7.49741 -20.91787 -7.49741 -16.32884Q-7.49741 -10.46317 -15.54008 -3.7031Q-19.76589 -0.13541 -24.67328 2.3671Q-19.28878 2.10078 -16.08534 4.52621Q-13.66573 6.3512 -13.66573 9.7671Q-13.66573 13.18299 -16.8862 17.22976Q-20.10668 21.27653 -25.4571 24.45304Q-30.80752 27.62955 -36.3965 28.51482Q-42.83745 29.53505 -45.87049 27.15164Q-47.23366 26.05641 -47.23366 25.03854Q-47.23366 24.02067 -46.72247 22.80107Q-49.21025 27.74965 -50.36894 30.24495Q-50.88012 31.36104 -52.43072 31.60665Q-53.98132 31.85226 -54.8333 31.15912Q-55.68528 30.46597 -55.68528 29.43085Q-55.68528 28.39573 -55.37857 27.55356Q-53.84501 23.23918 -44.55845 6.77624Q-35.27189 -9.6867 -33.19306 -12.39676Q-32.10253 -13.91515 -28.25159 -14.52512Q-26.71803 -14.76803 -26.71803 -14.07796Q-26.71803 -13.5604 -31.25055 -5.59662Q-35.78307 2.36715 -35.98755 2.74458Q-31.25055 0.61409 -26.29204 -2.56934Q-21.33353 -5.75278 -17.63594 -9.37482Q-13.93836 -12.99685 -13.93836 -15.44664Q-13.93836 -19.4836 -22.59446 -18.11251Q-31.6595 -16.67663 -40.04296 -10.48366Q-42.12179 -8.94674 -43.21232 -7.77339Q-44.30285 -6.60004 -44.30285 -6.18599Q-44.30285 -5.77194 -43.96206 -5.82592ZM-37.82782 9.69534Q-38.44125 9.7925 -39.19099 8.46209Q-42.4285 14.21951 -45.97273 21.19865Q-44.37101 18.70218 -41.30389 18.21636Q-39.25914 17.89248 -39.25914 18.41004Q-39.25914 18.61706 -39.70217 18.85976Q-41.06534 19.59324 -41.06534 20.62835Q-41.06534 23.11264 -35.85123 22.28675Q-28.79686 21.16936 -23.07156 15.29392Q-20.00444 12.18579 -20.00444 10.21906Q-20.00444 9.01142 -22.49222 7.95631Q-25.38894 6.79346 -31.31871 7.73271Q-35.44228 8.38587 -36.60097 9.03521Q-37.75966 9.68454 -37.82782 9.69534Z" fill="rgb(37, 37, 37)" transform="matrix(1 0 0 1 55.685281 89.390636)"/><path d="M14.89258 -31.6067Q16.52837 -31.8658 17.77226 -31.07946Q19.01615 -30.29313 19.01615 -28.36091Q19.01615 -26.42868 16.90324 -21.97078Q14.79034 -17.51288 11.82545 -12.7475Q8.86057 -7.98213 5.11187 -2.55779Q-0.8179 6.04135 -6.27056 13.01224Q-6.30464 13.43168 -6.56023 14.59355Q-6.81582 15.75541 -6.81582 16.89404Q-6.81582 18.03268 -5.77641 18.78239Q-4.737 19.53211 -3.20344 19.2892Q-1.66988 19.04629 0.0852 17.66416Q1.84027 16.28204 3.13528 14.73126Q6.54319 10.63754 7.36109 10.50799Q8.17899 10.37844 8.17899 12.89723L8.17899 13.58731Q8.17899 14.93296 7.70188 15.62961Q4.83924 19.63695 1.26093 21.9462Q-2.31738 24.25544 -5.52082 24.76285Q-8.72425 25.27027 -10.39413 23.55079Q-12.06401 21.83131 -12.06401 18.38091Q-12.06401 11.65264 -8.50274 1.99674Q-4.94147 -7.65915 -0.47711 -14.74953Q9.57623 -30.76461 14.89258 -31.6067ZM13.35901 -25.63612Q13.35901 -26.15368 13.01822 -26.0997Q11.82545 -25.91077 6.74767 -18.20567Q1.66988 -10.50057 -0.59638 -6.03563Q-2.86265 -1.57069 -4.87331 4.95851Q-0.85198 -0.50901 6.25352 -11.86493Q13.35901 -23.22084 13.35901 -25.63612Z" fill="rgb(37, 37, 37)" transform="matrix(1 0 0 1 55.685281 89.390636)"/><path d="M33.49977 6.40222Q34.14728 6.29965 34.28359 7.27868Q34.41991 8.2577 34.41991 9.32732Q34.41991 10.39695 34.21544 10.84338Q33.22714 12.93215 29.88739 16.23873Q26.54763 19.5453 23.54867 20.02033Q21.7084 20.31182 20.14076 19.43875Q18.57312 18.56568 18.57312 15.77086Q18.57312 12.97603 20.03852 10.05261Q11.5869 22.12206 6.78174 22.88318Q4.87331 23.18546 3.69758 21.99154Q2.52186 20.79761 2.52186 19.33119Q2.52186 17.86477 2.9308 16.23006Q3.33975 14.59536 3.79982 13.28034Q4.25989 11.96532 5.16299 9.99356Q6.06608 8.0218 6.50911 7.12354Q6.95214 6.22527 7.9234 4.39798Q8.89465 2.57069 10.47933 -0.50964Q12.06401 -3.58998 13.10342 -5.11752Q14.14283 -6.64507 15.13113 -6.81887Q16.11942 -6.99266 16.86916 -6.28332Q17.6189 -5.57398 17.6189 -5.05642Q17.6189 -4.53886 15.3356 -0.03672Q8.58794 13.38452 8.58794 15.42025Q8.58794 15.93781 8.96281 15.87843Q10.59861 15.61933 17.10772 7.41148Q23.61683 -0.79637 24.6392 -2.97679Q25.66158 -5.15722 26.63283 -6.69122Q27.60409 -8.22522 28.08119 -8.61133Q29.5466 -9.80956 31.86398 -10.24563Q32.23885 -10.30501 32.44332 -10.30289Q32.6478 -10.30078 32.92043 -9.7919Q33.19306 -9.28302 33.19306 -8.97248Q32.88635 -7.95779 30.48377 -3.40225Q28.08119 1.1533 27.80856 1.74854Q23.78723 10.80448 23.78723 13.35778Q23.78723 14.80694 24.87776 14.63421Q26.85435 14.04509 29.64883 10.66961Q30.67121 9.43805 31.67654 8.17468Q32.68188 6.91131 32.92043 6.68375Q33.15898 6.4562 33.49977 6.40222Z" fill="rgb(37, 37, 37)" transform="matrix(1 0 0 1 55.685281 89.390636)"/><path d="M55.68528 -12.08662Q55.68528 -9.80936 53.86205 -7.79537Q52.03882 -5.78137 49.72143 -5.41431Q48.97169 -5.29555 48.73314 -5.62006Q48.49459 -5.94456 48.49459 -6.53113Q48.49459 -7.1177 48.6309 -7.69135Q47.40405 -7.08298 45.90457 -5.98286Q44.40509 -4.88275 42.22403 -2.84658Q40.04297 -0.81042 40.04297 0.01768Q40.04297 0.29371 40.84382 0.16686Q41.64468 0.04 43.31456 -0.79381Q44.98444 -1.62763 45.64898 -1.73289Q46.31352 -1.83815 46.518 -1.80153Q46.96103 -1.63018 47.47221 -0.90031Q47.9834 -0.17043 47.9834 0.29537Q47.9834 0.76117 47.09734 1.66061Q46.21129 2.56005 45.08667 3.13498Q43.96206 3.70991 43.58719 3.97631Q36.3965 9.18676 36.3965 10.70494Q36.3965 13.39625 40.92902 12.67831Q43.82575 12.21948 46.75655 9.89203Q49.24433 7.9108 51.23796 5.95607Q53.23158 4.00135 53.75981 3.53814Q54.28804 3.07492 54.56067 3.03174Q55.44673 2.89139 55.44673 4.89262Q55.44673 6.89385 55.20817 7.56996Q54.96962 8.24607 53.84501 9.35581Q46.55208 16.51468 40.04297 17.5457Q36.5669 18.0963 34.48807 17.45947Q30.67121 16.30434 30.67121 12.68143Q30.67121 7.91988 37.18032 4.43907Q35.88531 4.05763 35.51044 3.20265Q35.13557 2.34767 35.13557 0.32919Q35.13557 -1.68929 36.99288 -4.2435Q38.8502 -6.7977 41.54245 -8.67331Q47.54037 -12.90124 52.24329 -13.64616Q53.3679 -13.8243 54.52659 -13.45577Q55.68528 -13.08724 55.68528 -12.08662Z" fill="rgb(37, 37, 37)" transform="matrix(1 0 0 1 55.685281 89.390636)"/><path d="" fill="rgb(37, 37, 37)" transform="matrix(1 0 0 1 55.685281 89.390636)"/></g></g>

  </svg>