<svg xmlns="http://www.w3.org/2000/svg" xmlns:xlink="http://www.w3.org/1999/xlink" width="509px" height="173px" viewBox="0 0 508.56547058184515 173.07535649942275">
    <g style="" id="f3fd5d96-4fa6-47e9-8e62-802cb13470ea">
<g style=""><path d="" fill="rgb(37, 37, 37)" transform="matrix(1 0 0 1 254.281756 97.74599)"/><path d="M-214.00002 75.30758Q-215.52636 75.54935 -216.21322 73.10828Q-217.12902 69.77626 -219.03695 61.42439Q-219.95276 57.08787 -220.71593 54.11801Q-221.70805 50.10266 -222.50938 45.70938Q-223.31071 41.31609 -224.07388 36.80086Q-225.98181 25.82186 -225.90549 26.19612Q-226.13444 24.99609 -226.36339 23.83469Q-226.59234 22.67329 -226.82129 21.70507Q-226.97393 21.18836 -227.54631 18.61326Q-228.11869 16.03816 -228.195 14.35034Q-228.50027 8.83536 -229.07265 5.06259Q-229.64503 1.28983 -230.94242 -4.91796Q-231.09505 -6.13008 -231.24769 -6.64679Q-231.78191 -9.1893 -233.23193 -10.31182Q-234.68196 -11.43434 -237.35306 -11.39759Q-238.4215 -11.38289 -239.10835 -11.27409Q-241.01628 -10.97188 -242.69525 -10.01052Q-244.06896 -9.25205 -244.94661 -8.10855Q-245.82425 -6.96504 -245.97689 -5.6273Q-246.05321 -5.1516 -246.05321 -4.37891Q-246.05321 -3.29715 -245.63346 -2.74549Q-245.21372 -2.19383 -244.2216 -2.11917Q-243.99264 -2.07817 -243.53474 -2.1507Q-242.61894 -2.29576 -241.77945 -2.89234Q-240.93996 -3.48892 -240.71101 -3.60246Q-240.55837 -3.7039 -240.25311 -3.75226Q-239.71889 -3.83687 -239.37546 -3.38903Q-239.03203 -2.94118 -238.8794 -2.19267Q-238.80308 -1.89568 -238.80308 -1.20027Q-238.80308 1.19506 -240.25311 3.35645Q-241.39786 5.00588 -243.115 6.08919Q-244.83213 7.1725 -246.58743 7.45053Q-248.34272 7.72856 -249.79274 7.18555Q-252.15857 6.16946 -253.34149 4.00014Q-254.52441 1.83082 -254.21914 -1.15374Q-252.99806 -11.85568 -239.56625 -14.91045Q-236.6662 -15.52435 -235.21618 -15.75403Q-232.01086 -16.26174 -229.56871 -16.33949Q-225.14232 -16.49974 -223.08176 -16.82613Q-222.24227 -16.9591 -220.10539 -17.45211L-219.7238 -17.51255Q-218.50273 -17.70596 -218.42641 -16.8681L-218.42641 -16.71356Q-218.42641 -15.94088 -219.2659 -15.11249Q-221.63173 -12.72877 -221.63173 -8.94261Q-221.63173 -6.85635 -220.71593 -2.67438Q-220.10539 -0.14395 -219.95276 1.06817L-219.34222 4.98943Q-219.03695 7.02732 -217.62508 16.23045Q-216.21322 25.43358 -215.22109 33.69871Q-215.06846 34.60175 -214.91583 36.43202Q-214.76319 38.7259 -214.53424 40.0032Q-214.45792 40.30019 -214.30529 41.12596Q-214.15265 41.95174 -213.9237 42.34045Q-213.69475 42.72916 -213.23685 42.81117Q-212.39736 42.98727 -211.9013 41.90421Q-211.40524 40.82114 -211.2526 39.25159Q-210.56575 32.42043 -209.57363 25.07731Q-208.73414 18.76285 -208.19992 14.27393Q-207.81833 10.96821 -207.81833 8.41834Q-207.81833 4.70945 -208.81046 -2.47391Q-209.49731 -7.0785 -210.41312 -9.98554Q-211.32892 -12.89259 -213.61844 -15.00254Q-214.68687 -15.76052 -214.68687 -16.68774Q-214.68687 -17.61497 -213.96186 -18.07751Q-213.23685 -18.54006 -211.86314 -18.75765L-205.22355 -19.73207Q-203.01036 -20.08263 -201.94192 -20.32914Q-199.42345 -20.88259 -198.2787 -20.52304Q-197.66816 -20.31067 -197.66816 -19.76979Q-197.66816 -19.30618 -198.20238 -18.48751Q-198.7366 -17.66884 -199.34714 -16.79945Q-200.72084 -14.88195 -200.9498 -14.38207Q-201.71297 -12.94762 -201.71297 -10.70684Q-201.71297 -9.23873 -201.33138 -7.522Q-200.9498 -5.80526 -200.87348 -5.50828Q-200.41558 -4.03544 -200.26294 -2.90059Q-197.21026 13.69223 -195.91287 24.69067Q-195.76023 26.28913 -195.6076 29.51023Q-195.30233 35.25702 -194.69179 37.86471Q-194.31021 39.81326 -193.3944 39.6682Q-193.08913 39.61984 -192.78386 39.33968Q-192.24964 38.86872 -191.98253 37.97646Q-191.71543 37.08419 -191.56279 35.74645L-190.87594 29.06983Q-189.8075 19.5511 -189.42591 14.62274Q-188.66274 4.84328 -186.52586 -8.55358Q-186.14428 -10.93208 -186.14428 -12.86379Q-186.14428 -17.19083 -188.43379 -18.83716Q-190.18908 -19.94996 -190.18908 -20.95445Q-190.18908 -21.72714 -189.76934 -21.9868Q-189.34959 -22.24645 -188.12852 -22.43987Q-182.32842 -23.35858 -179.42837 -23.97248L-178.13098 -24.25525Q-176.52832 -24.5091 -176.52832 -23.58188Q-176.52832 -23.041 -176.94806 -22.43364Q-177.36781 -21.82627 -178.28361 -20.75399Q-179.73364 -19.21074 -180.26786 -18.12163Q-181.10735 -16.36602 -181.60341 -13.85349Q-182.09947 -11.34095 -182.63369 -7.1611Q-183.01527 -3.70084 -183.54949 -0.75729Q-184.16003 2.73924 -184.77057 9.79011Q-185.22847 15.42598 -185.61006 18.26809Q-186.14428 22.0616 -186.90745 29.44573Q-188.0522 40.29011 -189.34959 47.44978Q-189.96013 50.7145 -190.87594 57.19558Q-191.94438 65.40075 -192.86018 69.48651Q-193.31808 71.87709 -194.76811 72.10677Q-195.6076 72.23975 -196.14182 71.82212Q-196.67604 71.40449 -197.13394 70.16346Q-197.97343 67.97837 -198.50765 63.96776Q-198.66028 62.6011 -199.11818 60.51011Q-199.72872 57.59334 -199.91951 54.9578Q-200.11031 52.32226 -200.18662 51.56166Q-200.49189 44.81038 -201.78928 37.75264Q-202.24719 35.19804 -202.62877 32.09047Q-203.01036 28.9829 -203.08667 27.9905Q-203.16299 26.68902 -203.46826 24.11024Q-203.54458 23.42691 -203.62089 22.12543Q-203.69721 20.82396 -203.96432 20.13222Q-204.23143 19.44047 -204.84197 19.53718Q-205.37619 19.6218 -205.60514 20.43075Q-205.83409 21.2397 -205.94857 21.99188Q-206.06304 22.74407 -206.06304 22.89861L-207.36043 33.30356Q-208.58151 44.08276 -209.49731 49.79116Q-210.03153 52.88925 -210.29864 56.25411Q-210.56575 59.61897 -210.64207 60.48101Q-211.2526 68.15003 -211.93946 72.58587Q-212.16841 73.78116 -212.58815 74.4658Q-213.0079 75.15043 -214.00002 75.30758Z" fill="rgb(37, 37, 37)" transform="matrix(1 0 0 1 254.281756 97.74599)"/><path d="M-170.95717 18.11064Q-170.34663 14.45958 -169.7361 11.89028Q-168.89661 7.81661 -168.74398 6.63341Q-168.51502 4.89723 -167.90449 2.01886Q-167.29395 -1.01405 -167.065 -2.44115Q-166.98868 -2.83958 -166.75973 -3.95761Q-166.53078 -5.07563 -166.68341 -5.66961Q-166.91236 -6.40603 -167.10316 -6.76215Q-167.29395 -7.11827 -167.75185 -7.35481Q-168.43871 -7.70963 -169.50715 -8.08127Q-170.194 -8.28155 -170.57559 -8.68472Q-170.95717 -9.08789 -170.95717 -9.5515Q-170.95717 -10.16965 -170.49927 -10.55125Q-169.96505 -11.09948 -169.50715 -11.01748Q-167.75185 -10.90917 -165.92024 -11.19929Q-164.24127 -11.46523 -161.64648 -12.33985L-161.2649 -12.47756Q-160.50173 -12.59844 -159.96751 -11.91038Q-159.81487 -11.78002 -159.81487 -11.3164Q-159.81487 -10.77552 -160.12014 -10.22492Q-160.42541 -9.67433 -160.50173 -9.58497Q-160.95963 -8.58522 -160.95963 -7.81253Q-160.95963 -7.03984 -160.57804 -5.97989Q-160.19646 -4.91994 -160.04383 -4.17143Q-159.66224 -2.76377 -159.50961 -1.08804L-159.20434 0.71805Q-158.74643 3.27265 -158.5938 4.25297L-157.98326 7.63335Q-157.83063 8.38185 -157.71615 9.17504Q-157.60168 9.96823 -157.37273 10.85919Q-156.76219 15.16679 -155.99902 17.28669Q-154.62531 21.2416 -152.87002 29.15404L-152.3358 31.61928L-151.87789 33.24666Q-150.96209 36.57868 -150.73314 38.93774Q-150.5805 41.15436 -149.89365 44.29084Q-149.2068 47.42732 -148.36731 49.30333Q-147.52782 50.94754 -147.22255 51.24689Q-146.91728 51.54625 -145.61989 51.72709Q-145.08567 51.79701 -144.74224 52.28349Q-144.39882 52.76997 -144.39882 53.31085Q-144.39882 53.85173 -144.7804 54.29852Q-145.16199 54.7453 -146.84097 55.01125Q-150.27524 55.55522 -151.72526 55.63036Q-152.56475 55.68607 -154.47268 56.14281L-156.76219 56.58273Q-157.37273 56.67944 -158.17406 56.96091Q-158.97539 57.24237 -159.43329 57.3149Q-160.12014 57.4237 -160.50173 57.17506Q-160.807 56.99161 -160.807 56.528Q-160.807 55.60078 -159.50961 54.46805Q-157.90695 53.05517 -157.4872 52.216Q-157.06746 51.37682 -157.06746 49.83145Q-157.06746 47.97701 -157.41088 46.3315Q-157.75431 44.68599 -157.90695 44.16928Q-158.28853 42.37528 -158.36485 40.91927Q-158.51748 39.16627 -158.70828 38.3079Q-158.89907 37.44953 -159.43329 36.76146Q-160.27278 35.58087 -160.69252 35.37692Q-161.11226 35.17296 -162.63861 35.41473L-164.16495 35.81104Q-164.54653 35.87148 -165.57682 36.15057Q-166.6071 36.42967 -167.14132 36.43702Q-168.20976 36.52899 -168.74398 36.4977Q-169.2782 36.46642 -169.58346 36.51477Q-170.11768 36.67666 -170.27032 36.85537Q-170.42295 37.03409 -170.57559 37.13553Q-171.10981 37.68376 -171.33876 38.26091Q-171.56771 38.99259 -171.72034 40.4076Q-171.87298 41.51354 -172.02561 42.07859Q-172.33088 43.59505 -172.4072 44.76617Q-172.71247 47.13258 -172.94142 48.0188Q-173.39932 49.8685 -173.62827 51.68194Q-173.62827 54.46361 -172.55983 55.37613Q-172.17825 55.70204 -171.56771 56.18484Q-170.95717 56.66765 -170.69006 57.01168Q-170.42295 57.35572 -170.42295 57.74206Q-170.42295 58.82382 -171.79666 59.04141Q-172.4072 59.13812 -172.97958 59.15151Q-173.55195 59.16491 -174.08617 59.24952Q-174.84934 59.37041 -175.57436 59.56252Q-176.29937 59.75462 -177.74939 59.9843L-179.581 60.27442Q-180.95471 60.49201 -181.25998 60.30856Q-181.56525 60.04784 -181.56525 59.81604Q-181.56525 59.12062 -180.11522 57.73191Q-177.97835 55.7708 -177.44413 54.75896Q-176.90991 53.74712 -176.22305 50.85665Q-175.84147 49.32811 -175.23093 45.87022Q-174.62039 42.41233 -174.31512 39.65958Q-174.08617 37.6916 -173.24668 33.07705L-172.8651 31.08489Q-172.17825 27.11267 -170.95717 18.11064ZM-164.08863 32.63094Q-163.78336 32.58258 -163.43994 32.56682Q-163.09651 32.55106 -162.48597 32.45435Q-160.57804 32.15214 -160.57804 29.60228Q-160.57804 29.37047 -160.807 27.32049Q-161.03595 25.73411 -161.41753 23.39923Q-161.79912 21.06434 -162.10439 19.49006Q-162.63861 17.56569 -163.09651 14.47021Q-163.40178 12.50958 -163.4781 12.28987L-164.01231 9.90189Q-164.31758 8.40487 -164.58469 7.86767Q-164.8518 7.33046 -165.30971 7.48026Q-166.22551 7.70259 -166.53078 8.79407Q-166.83605 9.88555 -166.91236 10.90213Q-166.98868 11.91871 -166.98868 12.22778Q-167.44658 15.85467 -168.20976 19.06629Q-168.36239 19.70862 -168.82029 23.02643Q-169.2782 26.34424 -169.43083 27.06383Q-169.58346 27.78343 -169.77426 28.6636Q-169.96505 29.54378 -170.04137 30.40582Q-170.27032 31.83292 -170.27032 32.06472Q-170.27032 32.91468 -169.7361 33.13913Q-169.20188 33.36359 -168.43871 33.31997Q-167.67554 33.27636 -166.83605 33.14339Z" fill="rgb(37, 37, 37)" transform="matrix(1 0 0 1 254.281756 97.74599)"/><path d="M-128.52486 51.87823Q-129.05908 52.34919 -129.74593 52.45799Q-130.43279 52.56678 -130.89069 52.1757Q-131.27228 51.8498 -131.38675 51.13388Q-131.50123 50.41796 -131.57754 50.19825Q-131.73018 49.60427 -131.8065 48.68914Q-131.88281 47.77401 -132.11176 47.03759Q-132.87493 44.76314 -134.24864 39.03106L-135.92762 31.33834Q-136.08025 30.51256 -136.15657 29.40426Q-136.23289 28.29595 -136.23289 27.83234Q-136.23289 25.05067 -136.76711 23.43538Q-137.45396 21.22612 -137.98818 18.37453L-138.44608 15.8972Q-140.04874 8.96508 -141.34613 4.53447Q-141.72772 3.12681 -141.80404 1.9026L-142.18562 -0.35501Q-142.49089 -1.62023 -142.83432 -2.64759Q-143.17774 -3.67495 -143.33038 -4.11439L-144.09355 -6.15702Q-144.47514 -7.56468 -145.04751 -8.16944Q-145.61989 -8.77419 -146.68833 -9.45491Q-147.75677 -10.05836 -148.29099 -10.59189Q-148.44362 -10.72225 -148.82521 -11.04815Q-149.2068 -11.37405 -149.32127 -11.85816Q-149.43575 -12.34227 -149.28311 -13.2164Q-149.13048 -14.09054 -147.4515 -14.35648Q-146.76465 -14.46527 -146.07779 -14.65134Q-145.39094 -14.8374 -144.7804 -14.93411Q-144.16987 -15.03082 -143.8646 -15.0019Q-141.95667 -14.91777 -140.58296 -15.13536Q-139.51452 -15.3046 -138.9803 -15.54375Q-137.91186 -15.94479 -135.69867 -16.29536L-134.78286 -16.44042Q-133.79074 -16.59757 -133.25652 -16.29584Q-132.7223 -15.91685 -132.7223 -15.37597Q-132.7223 -15.0669 -132.87493 -14.73364Q-133.1802 -14.06714 -133.67626 -13.40905Q-134.17233 -12.75097 -134.32496 -12.57225Q-134.9355 -11.8574 -135.24076 -11.3068Q-135.54603 -10.7562 -135.62235 -9.97142Q-135.69867 -8.5685 -135.46972 -7.56164Q-135.24076 -6.55478 -134.70655 -5.24857Q-134.09601 -3.72263 -133.86706 -2.44533Q-133.25652 0.3169 -132.79862 3.41238Q-132.56967 4.45787 -132.37887 5.81849Q-132.18808 7.1791 -131.8065 9.05037Q-131.27228 11.43835 -130.96701 14.94435Q-130.89069 15.78221 -130.58542 17.5883Q-129.82225 21.949 -129.89857 24.27914Q-129.97488 26.30021 -129.5933 27.97831Q-129.21171 29.65641 -128.60118 31.64596Q-128.14327 33.19607 -127.83801 33.14771Q-127.53274 33.09936 -126.99852 31.08303Q-126.54061 29.38786 -126.38798 27.4706Q-126.23535 25.55334 -126.23535 25.08973Q-126.08271 23.36565 -125.77744 21.11514Q-125.47218 18.86463 -125.31954 17.68143L-124.86164 14.51816Q-124.32742 10.87918 -123.86952 8.7204L-123.48793 6.65098Q-123.3353 5.62231 -122.34317 1.13812Q-122.03791 0.00801 -121.35105 -3.34607L-120.05366 -10.81481Q-119.97734 -11.21324 -119.97734 -11.90866Q-119.97734 -13.76311 -121.58 -14.43647Q-122.72476 -14.95056 -123.22082 -15.41287Q-123.71688 -15.87517 -123.86952 -16.77822L-123.86952 -17.08729Q-123.86952 -18.01452 -122.41949 -18.39873Q-121.19842 -18.66942 -119.06154 -18.85335Q-117.38256 -18.96476 -116.61939 -19.08564Q-115.55095 -19.25488 -114.48251 -19.65592Q-114.25356 -19.76946 -113.71934 -19.85408Q-112.80354 -19.99914 -112.193 -19.78677Q-111.65878 -19.63958 -111.65878 -19.02143Q-111.65878 -18.63509 -111.96405 -18.12313Q-112.26932 -17.61116 -112.80354 -17.29474Q-114.40619 -16.2682 -115.13121 -15.3034Q-115.85622 -14.33861 -116.77202 -12.3391Q-117.45888 -10.7622 -117.68783 -9.95325Q-117.91678 -9.1443 -118.06942 -7.49749Q-118.22205 -5.61887 -118.67995 -2.99647Q-119.13786 -0.37408 -119.29049 0.80913L-119.97734 4.70408Q-120.20629 6.13118 -120.4734 7.21661Q-120.74051 8.30205 -120.89315 9.02164Q-121.80895 12.95286 -122.03791 14.68904Q-122.87739 21.31257 -123.25898 23.92287Q-123.56425 26.36655 -123.64056 27.76947Q-123.7932 30.26624 -124.02215 31.69334Q-124.17478 32.64474 -124.63269 34.72625Q-125.09059 36.9623 -125.24322 37.75916Q-125.47218 39.18626 -125.77744 42.01629Q-126.08271 46.0826 -126.76957 48.58672Q-127.30379 50.75759 -128.52486 51.87823Z" fill="rgb(37, 37, 37)" transform="matrix(1 0 0 1 254.281756 97.74599)"/><path d="M-82.81091 45.02364Q-86.09255 45.54344 -87.69521 45.64276Q-89.67945 45.80252 -90.59526 45.94758Q-91.89265 46.15308 -94.18216 46.67027Q-94.86901 46.85633 -96.39536 47.25264Q-97.9217 47.64894 -99.14277 47.84236Q-100.1349 47.99951 -102.42441 48.20762Q-104.10338 48.24176 -105.85868 48.51979L-106.62185 48.64067Q-107.38502 48.76156 -107.69029 48.53947Q-107.99556 48.31738 -107.99556 47.31289Q-107.99556 46.46294 -107.65213 45.94493Q-107.3087 45.42692 -106.54553 44.9197Q-103.49285 42.96806 -103.49285 39.56824Q-103.49285 38.48648 -103.7218 35.27747Q-103.87443 33.60174 -103.87443 32.75178Q-103.87443 31.59275 -103.79812 30.80798Q-103.49285 27.05074 -103.49285 20.48291Q-103.49285 17.23763 -103.18758 12.39862Q-102.95863 9.19435 -102.95863 6.41268Q-102.95863 4.09462 -103.11126 2.95977Q-103.41653 -0.6235 -103.41653 -4.56419L-103.41653 -9.50938L-103.41653 -12.05924Q-103.49285 -13.9016 -103.98891 -15.09796Q-104.48497 -16.29431 -105.78236 -16.78423Q-108.07187 -17.65787 -108.07187 -19.20324Q-108.07187 -19.89866 -107.69029 -20.34545Q-107.3087 -20.8695 -106.81264 -20.90944Q-106.31658 -20.94938 -106.16395 -20.97356L-102.57704 -21.46444Q-101.73755 -21.59741 -99.90594 -22.04207Q-98.30328 -22.52773 -96.54799 -22.80576Q-95.02165 -23.04753 -94.25848 -23.01388Q-93.0374 -23.05276 -92.50318 -23.13737L-90.21367 -23.57729Q-89.14523 -23.74653 -87.00835 -23.93047L-83.87935 -24.34882L-82.73459 -24.53015Q-81.36089 -24.74774 -80.9793 -24.42184Q-80.29245 -23.60341 -80.29245 -22.44438Q-80.36876 -20.11424 -80.67403 -18.59778Q-80.90298 -17.09341 -80.82667 -15.32833Q-80.82667 -14.24657 -81.36089 -13.85287Q-81.58984 -13.66207 -81.97142 -13.60163Q-82.81091 -13.46866 -83.1925 -14.64451Q-83.49777 -16.06426 -84.98595 -17.33527Q-86.47413 -18.60629 -88.30574 -19.86154Q-89.29787 -20.47708 -91.12948 -20.18695Q-92.73214 -19.9331 -93.80058 -19.14571Q-94.71638 -18.45977 -94.94533 -18.1917Q-95.17428 -17.92363 -95.78482 -16.97697Q-97.15853 -14.7504 -96.85326 -11.39893Q-96.77694 -10.79287 -96.77694 -9.86565Q-96.77694 -8.93843 -96.92958 -7.67795Q-97.08221 -6.26294 -97.08221 -5.33572Q-97.08221 -3.71308 -96.85326 -2.04944Q-96.62431 -0.3858 -96.54799 0.3748Q-96.24272 2.72177 -95.63219 3.70683Q-94.64006 5.24959 -93.19004 5.01991Q-92.35055 4.88693 -91.58738 4.22517Q-90.67157 3.46196 -90.06104 2.20623Q-89.4505 0.95049 -88.91628 -0.75677Q-88.61101 -1.50054 -88.00047 -2.13812Q-87.38994 -2.77571 -86.7794 -2.64061Q-85.93991 -2.38724 -85.93991 -1.69182L-85.93991 -0.5328Q-85.93991 0.00808 -86.01623 0.40651Q-86.3215 2.00024 -86.3215 3.93195Q-86.3215 5.86367 -86.09255 7.83638Q-86.01623 8.21064 -86.01623 9.06059Q-86.01623 10.7605 -86.47413 12.61021Q-86.7794 13.66305 -87.46626 13.77185Q-87.92416 13.84438 -88.22943 13.58366Q-88.91628 13.15157 -88.91628 11.76074L-88.91628 11.06532Q-88.91628 10.44717 -89.06891 10.16228Q-89.67945 8.86815 -90.25183 8.34066Q-90.82421 7.81318 -91.81633 7.97033Q-92.5795 8.09121 -93.41899 8.53326Q-94.33479 8.98739 -94.6019 9.33878Q-94.86901 9.69016 -95.05981 10.29989Q-95.2506 10.90963 -95.55587 11.49886Q-96.31904 13.16512 -96.31904 15.86952Q-96.31904 18.18757 -96.24272 19.79812Q-96.24272 20.80262 -96.16641 21.79502Q-96.09009 22.78742 -96.01377 23.70256Q-95.7085 28.44485 -95.7085 31.07198Q-95.7085 33.2355 -95.86114 35.11413L-95.93745 36.98066Q-95.93745 40.22594 -94.86901 41.48617Q-93.80058 42.7464 -90.59526 41.92961Q-87.77152 41.17327 -86.66493 40.18667Q-85.55833 39.20007 -84.41357 36.31434Q-83.80303 34.8268 -83.30697 33.93691Q-82.81091 33.04701 -81.89511 32.20654Q-81.51352 31.83702 -80.90298 31.74031Q-80.29245 31.64361 -79.75823 31.94533Q-79.22401 32.24705 -79.14769 32.77585Q-78.99506 33.67889 -78.99506 33.83343Q-78.99506 34.29704 -79.18585 34.98404Q-79.37664 35.67105 -79.45296 36.06948Q-79.60559 36.78907 -80.0635 39.48873Q-80.21613 41.44462 -80.67403 43.06253Q-80.9793 44.0381 -81.39904 44.4523Q-81.81879 44.86649 -82.81091 45.02364Z" fill="rgb(37, 37, 37)" transform="matrix(1 0 0 1 254.281756 97.74599)"/><path d="" fill="rgb(37, 37, 37)" transform="matrix(1 0 0 1 254.281756 97.74599)"/><path d="M-1.60951 -50.28393Q-1.53319 -49.44607 -1.53319 -47.97797Q-1.53319 -45.11903 -2.29636 -44.68907Q-3.44112 -44.04413 -4.4714 -45.42631Q-5.50168 -46.80849 -6.57012 -49.11185Q-8.2491 -53.09567 -12.33206 -55.07608Q-16.41503 -57.05648 -20.99405 -56.33118Q-23.74147 -55.896 -26.18362 -54.50468Q-30.07579 -52.3428 -34.5785 -47.53435Q-35.95221 -46.08046 -36.98249 -44.44917Q-38.01277 -42.81787 -39.15753 -40.62757Q-39.53911 -39.94898 -39.99701 -39.14239Q-40.45492 -38.33581 -40.98914 -37.40124Q-42.36284 -35.0974 -43.0497 -32.32284Q-43.73655 -29.54828 -44.34709 -25.51087L-44.80499 -22.65668Q-45.87343 -16.76957 -45.87343 -10.12447Q-45.87343 -5.02474 -45.03394 2.95548Q-44.57604 7.4418 -43.62208 10.53597Q-42.66811 13.63015 -41.37072 16.12904Q-40.07333 18.62794 -37.32591 23.06068Q-33.73901 28.90581 -31.56397 32.15428Q-29.38894 35.40275 -26.33625 38.66674Q-23.28357 41.93073 -19.62035 44.20943Q-14.20183 47.52366 -7.33329 48.67649Q-0.46475 49.82933 7.24328 49.07201Q10.14333 48.76719 14.45524 47.31151Q18.76716 45.85583 21.97248 44.26636Q22.9646 43.80014 24.10936 43.00067Q25.25411 42.20119 25.6357 42.14075Q25.94097 42.0924 26.47519 42.39412Q27.39099 43.09901 27.39099 44.41258Q27.39099 45.72614 26.62782 47.00606Q25.33043 49.066 22.27775 50.39949Q17.6224 52.60499 11.51703 53.57206Q5.41167 54.53913 -0.84634 54.06227Q-9.08858 53.59064 -14.23999 52.35898Q-19.39139 51.12733 -23.74147 48.64836Q-28.09154 46.16939 -34.5785 41.24722Q-39.76806 37.27858 -44.80499 28.80418Q-49.84192 20.32979 -52.36039 11.37921Q-53.58146 6.85924 -54.34463 1.9963Q-55.1078 -2.86664 -55.71834 -9.18322Q-55.87097 -11.32256 -55.87097 -12.40432Q-55.87097 -17.89039 -54.34463 -24.69998Q-52.05512 -35.80296 -46.94187 -42.87164Q-43.58392 -47.42149 -40.41676 -50.85936Q-37.2496 -54.29724 -33.51006 -56.66674Q-28.3205 -59.96134 -24.12306 -60.62621L-20.84142 -61.14601Q-16.64398 -61.81087 -14.43078 -61.23421Q-13.89656 -61.08702 -12.67549 -60.73955Q-11.45442 -60.39209 -10.46229 -60.24016Q-9.47017 -60.08824 -8.63068 -60.22121Q-7.33329 -60.42671 -6.34117 -61.35654Q-5.95958 -61.72606 -5.46352 -62.38415Q-4.96746 -63.04224 -4.50956 -63.57838Q-3.67007 -64.40677 -2.98322 -64.51556Q-1.60951 -64.73315 -1.60951 -62.33783L-1.68583 -58.23051Q-1.76214 -56.90485 -1.76214 -54.27772Q-1.76214 -52.88689 -1.60951 -50.28393Z" fill="rgb(37, 37, 37)" transform="matrix(1 0 0 1 254.281756 97.74599)"/><path d="M6.93801 31.5804Q4.95376 32.04924 4.26691 32.15803Q2.35898 32.46024 0.68001 32.18531Q-0.99897 31.91037 -3.13585 30.85801Q-4.05166 30.38492 -5.19641 29.02088L-6.72275 27.56274Q-8.17278 26.24704 -8.85963 24.46276Q-9.54649 22.67848 -10.08071 19.90416Q-10.38598 18.32987 -10.46229 16.48751Q-10.53861 14.64516 -10.53861 14.18155Q-10.84388 8.8211 -10.84388 3.10323Q-10.84388 2.56235 -10.61493 -3.73267Q-10.30966 -8.72621 -10.46229 -10.55648Q-10.61493 -13.15943 -10.61493 -14.473Q-10.61493 -16.48198 -10.30966 -20.5483Q-10.08071 -24.37072 -8.85963 -27.88669Q-8.17278 -29.69539 -6.95171 -31.35691Q-5.73063 -33.01842 -5.00562 -34.33092Q-4.28061 -35.64343 -3.97534 -35.92359Q-2.14373 -37.52727 0.52737 -38.33671Q0.98527 -38.48651 2.62609 -38.97821Q4.26691 -39.46992 5.64062 -39.68751Q7.70118 -40.01389 9.68542 -39.63278Q11.3644 -39.28057 15.18026 -36.94878L17.77504 -35.50534Q18.99611 -34.92607 19.49217 -33.69108Q19.98823 -32.45609 20.36982 -30.27574Q20.52245 -29.06362 20.67509 -28.46965Q21.51458 -25.35734 21.66721 -19.50911Q21.74353 -15.19416 21.74353 -6.84916Q21.74353 -5.61286 21.59089 -3.42516Q21.28562 0.56389 21.43826 2.31689Q21.51458 3.00022 21.51458 4.46832Q21.51458 7.01818 21.05667 10.95414Q20.90404 11.751 20.7514 13.47509Q20.59877 15.27644 19.45401 18.16216Q19.14875 18.9832 18.99611 20.47548Q18.99611 20.70729 18.84348 21.54278Q18.69084 22.37828 18.30926 23.05687Q16.55396 26.11657 13.80655 28.32893Q10.60123 30.76836 6.93801 31.5804ZM8.54067 27.54039Q10.60123 26.59585 11.63151 25.77588Q12.66179 24.9559 13.19601 23.32591Q13.73023 21.77319 13.88286 20.39681Q14.0355 19.02044 14.11182 16.76756Q14.11182 15.06765 14.26445 9.63468Q14.26445 7.93477 14.41708 4.04717Q14.56972 0.00502 14.56972 -2.31303L14.4934 -7.16886Q14.34077 -10.38997 14.34077 -12.16714Q14.18813 -17.24269 14.18813 -19.48348L14.26445 -23.51353Q14.26445 -26.75881 13.34865 -28.93181Q13.19601 -29.29397 12.471 -31.11085Q11.74599 -32.92772 10.98281 -34.08177Q10.21964 -35.23582 9.45647 -35.50128Q8.54067 -35.81983 7.05248 -35.85454Q5.5643 -35.88926 4.19059 -35.67167Q2.8932 -35.46617 2.4353 -35.2391Q1.13791 -34.64726 0.06947 -33.47353Q-0.99897 -32.2998 -1.38056 -30.92579L-1.83846 -28.53521Q-2.06741 -27.26264 -2.18189 -26.54909Q-2.29636 -25.83554 -2.29636 -25.10149Q-2.29636 -24.36744 -2.37268 -23.42813L-2.52531 -19.30872Q-2.60163 -14.89232 -2.98322 -11.74114Q-3.05953 -10.95637 -3.05953 -9.33373L-3.05953 -7.78836Q-3.05953 -7.24748 -3.02137 -6.4422Q-2.98322 -5.63692 -3.05953 -4.46581Q-3.05953 -2.84317 -3.51744 0.62918Q-4.12797 5.362 -3.97534 7.65588L-3.8227 9.87249Q-3.3648 16.13598 -3.3648 17.68135Q-3.28848 19.44644 -3.02137 20.44726Q-2.75426 21.44807 -2.06741 23.11646L-1.45687 24.48785Q-0.77002 26.07896 0.18394 26.93235Q1.13791 27.78574 2.28266 27.52714Q2.74057 27.45461 4.87745 27.57975Q7.62486 27.91725 8.54067 27.54039Z" fill="rgb(37, 37, 37)" transform="matrix(1 0 0 1 254.281756 97.74599)"/><path d="M47.99661 24.76779Q45.93605 25.48051 44.10444 25.77064Q41.05176 26.25417 38.76224 25.76687Q37.84644 25.60285 36.96879 25.31689Q36.09114 25.03093 35.32797 24.4564Q32.27529 22.23553 31.4358 16.95971Q30.90158 14.10812 30.90158 10.7083Q30.90158 8.93113 30.9779 7.99182Q31.13053 5.95866 31.13053 3.17699Q31.13053 0.85893 31.05421 -0.13347L30.9779 -3.36666Q30.9779 -6.14833 31.13053 -8.25876Q31.28317 -11.37368 31.28317 -13.769Q31.28317 -18.40511 31.05421 -23.23677Q30.90158 -25.68519 31.09237 -27.68575Q31.28317 -29.68632 31.35948 -30.23929Q31.74107 -32.8496 31.66475 -34.61468Q31.66475 -36.5464 29.37524 -38.5018Q27.69626 -39.93577 27.69626 -41.0948Q27.69626 -41.71295 28.23048 -42.18391Q28.68838 -42.56551 29.29892 -42.62358Q29.90946 -42.68166 30.13841 -42.71792Q30.9779 -42.85089 31.74107 -43.04905Q32.50424 -43.2472 33.26741 -43.36808Q33.80163 -43.4527 34.87007 -43.4674Q36.47273 -43.48945 37.46485 -43.6466Q37.99907 -43.73122 39.98332 -44.20005L40.59385 -44.29676Q41.66229 -44.466 42.12019 -44.46126Q43.036 -44.45178 43.036 -43.52456Q43.036 -42.6746 42.19651 -41.22807Q41.58598 -40.28141 40.44122 -39.17286Q39.60173 -38.2672 39.22014 -37.70451Q38.83856 -37.14183 38.76224 -36.58886Q38.68592 -35.88135 38.76224 -34.81168Q38.83856 -33.74201 38.83856 -33.04659Q38.83856 -31.50122 38.53329 -28.6712Q38.22802 -26.45933 38.15171 -24.90187Q38.07539 -22.72626 38.60961 -19.17926Q38.83856 -17.59288 39.02935 -15.84593Q39.22014 -14.09897 39.06751 -12.60669Q38.91488 -11.03714 38.91488 -8.02367L38.91488 -4.62385Q38.91488 -2.38306 38.83856 -1.21195Q38.60961 1.83779 38.60961 4.46492Q38.60961 6.93752 38.76224 9.73364Q38.91488 12.52977 38.99119 13.52217L39.14383 15.73878Q39.22014 17.1948 39.48725 18.27288Q39.75436 19.35097 40.51754 20.1573Q40.74649 20.43011 41.16623 21.02041Q41.58598 21.61071 42.00572 21.9692Q42.42546 22.32769 43.036 22.38552Q44.02812 22.53744 45.63078 22.28359Q48.3782 21.84841 50.28613 20.54171Q52.11774 19.24709 53.0717 17.39608Q54.02566 15.54507 54.36909 13.63623Q54.71252 11.72738 55.01779 8.35648Q55.17042 6.70967 55.17042 3.69619Q55.17042 -0.08997 55.0941 -2.39594Q55.0941 -4.79126 55.17042 -6.03965L55.24674 -9.83789Q55.24674 -12.23322 55.01779 -14.51501Q54.78883 -16.565 54.78883 -20.7375L54.78883 -25.68269L54.71252 -38.41991Q54.71252 -40.04255 54.40725 -40.96005Q54.10198 -41.87756 53.18618 -42.50518Q51.58352 -43.71943 51.20193 -44.1226Q50.66771 -44.65613 50.66771 -45.19701Q50.66771 -45.66062 51.0493 -45.8756Q51.27825 -46.0664 51.81247 -46.15102Q52.19405 -46.21146 52.6138 -46.20068Q53.03354 -46.1899 53.41513 -46.25034Q54.02566 -46.42431 54.90331 -46.48606Q55.78096 -46.54781 56.31518 -46.63243Q56.8494 -46.71705 57.91784 -47.04082Q59.13891 -47.38877 59.82576 -47.49757Q61.96264 -47.83604 61.96264 -46.83155Q61.96264 -46.13613 61.12315 -45.38501Q60.81789 -45.02758 60.28367 -44.20891Q59.74945 -43.39024 58.98628 -42.80575Q58.14679 -42.20917 57.95599 -41.83124Q57.7652 -41.45331 57.7652 -40.52608L57.84152 -35.90206Q57.84152 -34.43396 57.61257 -31.9251Q57.45993 -29.58286 57.45993 -28.34657L57.53625 -23.95435Q57.68888 -20.88778 57.68888 -19.34241Q57.68888 -10.7656 57.7652 -6.60519Q57.84152 -2.83112 57.84152 4.27759L57.84152 8.29555Q57.84152 13.93616 55.55201 18.85766Q54.6362 20.93443 52.53748 22.42589Q50.43876 23.91735 47.99661 24.76779Z" fill="rgb(37, 37, 37)" transform="matrix(1 0 0 1 254.281756 97.74599)"/><path d="M93.48161 17.02224Q92.41317 16.34152 91.84079 15.15725Q91.26841 13.97298 90.65788 11.8289Q89.81839 9.41201 89.81839 9.41201Q87.91046 4.6145 86.91834 2.60813Q86.23148 1.24882 85.27752 -2.2317Q84.32356 -5.71222 84.17092 -6.30619Q83.10248 -10.00038 82.87353 -10.65953L81.65246 -13.78866Q81.34719 -14.513 80.46954 -16.6534Q79.5919 -18.79381 78.75241 -21.2107Q78.14187 -22.89117 76.53921 -28.97333Q75.1655 -34.01001 74.47865 -36.21927Q73.79179 -38.42853 73.25758 -38.73025Q72.72336 -39.03198 72.45625 -38.29425Q72.18914 -37.55652 72.18914 -36.3975Q72.11282 -34.9173 72.15098 -34.1893Q72.18914 -33.46129 72.18914 -33.07495Q72.18914 -31.60685 72.0365 -30.19183Q71.96018 -28.40257 72.18914 -26.19805Q72.18914 -25.73444 72.30361 -24.3231Q72.41809 -22.91176 72.26545 -21.65129Q72.0365 -18.98789 72.0365 -16.28349L72.11282 -10.88678L72.11282 -3.39173Q72.11282 -1.92363 71.96018 1.19129Q71.80755 4.15167 71.80755 5.61977Q71.80755 7.55149 72.0365 9.36967L72.41809 12.16816Q72.79967 14.50304 73.02862 15.43264Q73.25758 16.36223 73.94443 16.94885Q74.17338 17.14439 74.59312 17.54152Q75.01287 17.93864 75.24182 18.44326Q75.39445 18.72815 75.39445 18.95996Q75.39445 19.80991 73.94443 20.03959Q72.4944 20.26927 71.73123 20.31289L69.13645 20.64662Q67.53379 20.90048 66.77062 21.1759L66.38904 21.31361Q66.00745 21.37405 65.74034 21.14592Q65.47323 20.91779 65.39691 20.54353L65.39691 20.23446Q65.39691 19.61631 65.58771 19.23838Q65.7785 18.86045 66.04561 18.5477Q66.31272 18.23495 66.38904 18.1456Q67.99169 16.19183 68.75487 14.71875Q69.51804 13.24567 69.3654 11.49267Q69.28909 10.11392 69.28909 8.18221L69.3654 5.23391Q69.3654 3.92035 69.13645 1.40675Q69.06013 0.64615 69.06013 -0.82195Q69.06013 -1.98098 69.13645 -3.4998Q69.21277 -5.01863 69.28909 -5.8034Q69.3654 -6.51091 69.44172 -7.45022Q69.51804 -8.38953 69.51804 -9.62583Q69.51804 -11.1712 69.3654 -14.3923Q69.21277 -17.30433 69.21277 -18.8497L69.21277 -24.33577Q69.21277 -27.81285 69.28909 -29.52485L69.51804 -33.42454Q69.74699 -36.78335 69.82331 -41.27702Q69.82331 -42.89966 69.51804 -43.46945Q69.21277 -44.03925 68.48776 -44.54256Q67.76274 -45.04587 67.30484 -45.43695Q66.54167 -46.01148 66.54167 -47.17051Q66.54167 -47.71139 66.77062 -47.97946Q67.07589 -48.41416 67.45747 -48.55187Q68.06801 -48.72584 68.83118 -48.73082Q69.59435 -48.7358 70.12857 -48.82042Q70.89174 -48.94131 71.50228 -49.15391Q72.11282 -49.36652 72.72336 -49.46323Q73.02862 -49.51159 73.56284 -49.55757Q74.09706 -49.60355 74.78392 -49.55781Q75.1655 -49.54099 75.77604 -49.59906Q76.38658 -49.65713 76.88264 -49.54253Q77.3787 -49.42794 77.68397 -48.85814Q79.13399 -46.61523 80.5077 -41.57856Q81.65246 -37.51011 84.01829 -31.08522Q85.77358 -26.18626 88.13941 -19.37502Q89.81839 -14.3867 90.50524 -11.7911Q90.65788 -11.11986 91.1921 -8.61598Q91.72632 -6.1121 92.48949 -4.61035Q93.48161 -2.68124 94.16846 -3.25365Q94.39741 -3.44445 94.39741 -5.14436Q94.39741 -6.5352 94.24478 -8.98361Q94.16846 -9.58967 94.16846 -10.90324Q94.16846 -13.22129 94.39741 -15.57562Q94.55005 -18.69054 94.55005 -19.92683L94.47373 -23.31456Q94.3211 -27.15381 94.3211 -29.00826L94.39741 -32.03382Q94.62637 -34.85175 94.47373 -36.75929Q94.3211 -38.66683 94.24478 -39.89103Q94.16846 -41.11524 94.16846 -42.96969Q94.16846 -44.97867 93.25266 -46.64942Q92.33685 -48.32017 91.03946 -49.11916Q89.8947 -49.78779 89.8947 -50.86955Q89.8947 -51.7195 90.58156 -52.0601Q90.88683 -52.263 91.49736 -52.3597Q92.1079 -52.45641 93.02371 -52.44693L94.779 -52.80223Q95.38954 -52.97621 96.53429 -53.15753Q97.14483 -53.25424 98.3659 -53.29312Q98.67117 -53.2642 99.20539 -53.42609Q99.73961 -53.58798 100.04488 -53.63633Q101.41859 -53.85392 101.41859 -52.69489Q101.41859 -52.15401 101.07516 -51.59737Q100.73173 -51.04073 100.19751 -50.80157Q98.28959 -49.95848 97.71721 -48.9406Q97.14483 -47.92271 97.14483 -46.2228L97.22115 -43.68503L97.29746 -34.81123Q97.29746 -28.78429 97.14483 -25.8239Q96.9922 -23.79074 96.9922 -20.23639Q96.9922 -18.69102 96.83956 -14.64888Q96.68693 -12.22938 96.68693 -7.43873L96.68693 -2.339Q96.68693 -0.17548 96.30534 2.43482Q96.00007 5.41938 96.00007 6.81021Q96.00007 7.89197 96.07639 8.42077L96.22902 10.94645Q96.22902 11.71914 96.38166 13.39487Q96.53429 15.22514 95.77112 16.42778Q95.46585 17.17155 94.62637 17.30452Q94.09215 17.38914 93.48161 17.02224Z" fill="rgb(37, 37, 37)" transform="matrix(1 0 0 1 254.281756 97.74599)"/><path d="M137.82185 -33.5033Q137.74553 -32.95033 137.74553 -31.79131Q137.74553 -29.78232 137.97448 -27.73234Q138.12712 -25.59299 138.12712 -24.43397Q138.12712 -16.08896 138.0508 -11.74983Q137.89817 -5.85325 137.05868 -2.475Q136.98236 -2.15383 136.90604 -1.7554Q136.82973 -1.35697 136.75341 -0.804Q136.14287 2.22891 135.60865 3.93617Q135.07443 5.64343 133.85336 6.76406Q132.47965 8.14068 130.19014 9.70099Q127.90062 11.26131 126.06901 12.16958Q124.77162 12.83869 122.8637 13.29544L121.64262 13.41158Q121.18472 13.48411 120.95577 13.59765Q118.28467 14.79343 117.29255 15.56872Q116.91096 15.86097 116.91096 16.09278Q116.91096 16.17004 117.13991 16.21105Q117.36886 16.25205 117.59782 16.13852L119.35311 15.62868Q120.11628 15.43053 120.99393 15.52332Q121.87157 15.61611 122.71106 15.79221Q123.55055 16.04558 124.39004 16.49212Q125.22953 16.93866 125.53479 17.12212Q125.76375 17.24039 126.18349 17.52161Q126.60323 17.80283 127.06114 17.92347Q127.51904 18.04411 128.12958 17.94741Q129.50328 17.72982 130.80067 16.8289Q131.10594 16.54874 131.41121 16.22995Q131.71648 15.91115 132.09807 15.54164Q132.93755 14.71325 133.3573 14.45359Q133.77704 14.19393 134.08231 14.37738Q134.38758 14.56084 134.38758 14.86991Q134.38758 15.25625 133.85336 16.03629Q133.47177 16.71488 132.63229 17.54327L131.56385 18.9488Q131.02963 19.80611 130.0375 20.38823Q129.04538 20.97036 128.6638 21.26261Q126.83219 22.47995 124.84794 22.79425Q123.3216 23.03601 121.94789 22.78999Q121.5663 22.77317 120.42155 22.33634Q119.04784 21.70398 118.20835 21.83695L115.99516 22.11025Q114.62145 22.32784 113.78196 22.84715Q113.47669 23.05004 112.6372 23.56936Q111.79771 24.08867 111.03454 24.36409Q110.27137 24.63951 109.66084 24.65895Q109.27925 24.64213 109.16477 24.31255Q109.0503 23.98297 109.27925 23.4831Q109.73715 22.40608 110.27137 21.62604Q110.95823 20.66729 111.33981 19.83416Q112.56089 17.24542 114.31618 15.65383Q115.53725 14.53319 115.53725 14.14685Q115.53725 13.91504 114.92672 13.62541Q114.31618 13.41304 113.62933 13.25139Q112.94247 13.08975 112.40825 12.78802Q111.64508 12.29076 110.99639 11.69809Q110.34769 11.10543 109.12662 9.52167Q108.51608 8.76842 108.09634 7.67588Q107.67659 6.58333 107.52396 6.29844Q106.30288 3.1693 106.07393 -0.58059Q105.9213 -2.02452 105.9213 -4.88345L105.9213 -8.66961Q105.9213 -9.90591 105.76866 -14.05424Q105.53971 -22.36297 105.53971 -23.44473Q105.53971 -29.47168 105.84498 -35.23791Q105.84498 -35.70152 105.9213 -37.56805Q105.99761 -39.43459 106.30288 -41.10558Q106.8371 -44.04914 107.52396 -46.05101Q108.21081 -48.05289 109.66084 -49.82794L111.18718 -51.76961Q112.33193 -53.49631 113.24774 -54.25952Q115.38462 -55.98882 117.0636 -56.79565Q118.74257 -57.60247 120.6505 -57.90468Q121.33735 -58.01348 123.3216 -58.17324Q126.98482 -58.52167 130.19014 -57.09767Q132.93755 -55.75568 134.69285 -53.25204Q135.07443 -52.69433 135.22707 -51.90719Q135.3797 -51.12005 135.3797 -50.88824Q135.53234 -49.44432 135.8376 -48.71998Q136.98236 -46.27418 137.13499 -44.44391Q137.28763 -42.76818 137.44026 -42.01967Q137.89817 -38.22877 137.89817 -35.67891Q137.89817 -34.21081 137.82185 -33.5033ZM130.72436 -16.77084Q130.72436 -18.39348 131.02963 -21.68711Q131.48753 -25.93214 131.33489 -27.91695Q131.18226 -29.43814 131.18226 -30.13356Q130.64804 -35.3032 130.64804 -38.54848Q130.49541 -43.9331 130.49541 -45.94208Q130.41909 -48.32532 130.26645 -49.84652Q130.11382 -51.36771 129.5796 -52.75119Q129.04538 -54.13468 128.09142 -54.56309Q127.13745 -54.9915 124.92426 -55.33635Q123.85582 -55.39892 121.87157 -55.27779Q119.88733 -55.15667 118.51362 -54.93908Q116.22411 -54.57643 114.92672 -51.20291Q113.17142 -46.36604 113.01879 -41.3194Q113.01879 -35.06065 112.86615 -30.86397Q112.78984 -28.53383 113.09511 -23.63699Q113.17142 -22.79913 113.24774 -21.65219Q113.32406 -20.50525 113.32406 -18.95987Q113.40037 -16.34483 113.40037 -11.70872Q113.40037 -10.7815 113.24774 -9.05741L113.17142 -6.49546Q113.17142 -5.80004 113.32406 -4.43339Q113.24774 -4.96218 113.62933 -2.47276Q113.85828 -1.50453 114.01091 0.1712Q114.08723 3.24985 114.46881 4.54161Q114.8504 5.83337 115.7662 7.69729Q117.29255 10.54627 119.58206 10.80176Q120.49787 10.88851 121.87157 10.67092Q124.31372 10.28409 125.84006 9.26964Q126.83219 8.57161 127.63351 6.86068Q128.43484 5.14974 129.00722 3.51371Q129.5796 1.87767 129.73224 1.46716Q130.64804 -0.99596 130.64804 -4.70485L130.57172 -9.71522L130.72436 -16.77084Z" fill="rgb(37, 37, 37)" transform="matrix(1 0 0 1 254.281756 97.74599)"/><path d="M164.30389 6.34511Q162.24332 7.05784 160.41171 7.34796Q157.35903 7.83149 155.06952 7.34419Q154.15371 7.18018 153.27606 6.89422Q152.39842 6.60826 151.63525 6.03372Q148.58256 3.81286 147.74307 -1.46297Q147.20885 -4.31455 147.20885 -7.71437Q147.20885 -9.49155 147.28517 -10.43086Q147.4378 -12.46402 147.4378 -15.24569Q147.4378 -17.56374 147.36149 -18.55615L147.28517 -21.78934Q147.28517 -24.571 147.4378 -26.68143Q147.59044 -29.79635 147.59044 -32.19168Q147.59044 -36.82779 147.36149 -41.65944Q147.20885 -44.10786 147.39965 -46.10843Q147.59044 -48.109 147.66676 -48.66197Q148.04834 -51.27227 147.97202 -53.03736Q147.97202 -54.96907 145.68251 -56.92448Q144.00353 -58.35844 144.00353 -59.51747Q144.00353 -60.13562 144.53775 -60.60658Q144.99566 -60.98819 145.60619 -61.04626Q146.21673 -61.10433 146.44568 -61.1406Q147.28517 -61.27357 148.04834 -61.47172Q148.81151 -61.66987 149.57468 -61.79076Q150.1089 -61.87538 151.17734 -61.89008Q152.78 -61.91213 153.77212 -62.06927Q154.30634 -62.15389 156.29059 -62.62273L156.90113 -62.71943Q157.96957 -62.88867 158.42747 -62.88393Q159.34327 -62.87446 159.34327 -61.94723Q159.34327 -61.09728 158.50379 -59.65074Q157.89325 -58.70408 156.74849 -57.59553Q155.909 -56.68988 155.52742 -56.12719Q155.14583 -55.5645 155.06952 -55.01153Q154.9932 -54.30403 155.06952 -53.23436Q155.14583 -52.16468 155.14583 -51.46927Q155.14583 -49.9239 154.84056 -47.09387Q154.5353 -44.882 154.45898 -43.32454Q154.38266 -41.14893 154.91688 -37.60193Q155.14583 -36.01556 155.33663 -34.2686Q155.52742 -32.52164 155.37478 -31.02937Q155.22215 -29.45982 155.22215 -26.44634L155.22215 -23.04653Q155.22215 -20.80574 155.14583 -19.63462Q154.91688 -16.58488 154.91688 -13.95775Q154.91688 -11.48516 155.06952 -8.68903Q155.22215 -5.89291 155.29847 -4.90051L155.4511 -2.68389Q155.52742 -1.22788 155.79453 -0.14979Q156.06164 0.92829 156.82481 1.73463Q157.05376 2.00744 157.4735 2.59773Q157.89325 3.18803 158.31299 3.54652Q158.73274 3.90501 159.34327 3.96284Q160.3354 4.11477 161.93805 3.86091Q164.68547 3.42573 166.5934 2.11903Q168.42501 0.82442 169.37897 -1.02659Q170.33294 -2.87761 170.67636 -4.78645Q171.01979 -6.69529 171.32506 -10.06619Q171.47769 -11.71301 171.47769 -14.72648Q171.47769 -18.51264 171.40138 -20.81861Q171.40138 -23.21394 171.47769 -24.46232L171.55401 -28.26057Q171.55401 -30.65589 171.32506 -32.93769Q171.09611 -34.98767 171.09611 -39.16017L171.09611 -44.10536L171.01979 -56.84258Q171.01979 -58.46522 170.71452 -59.38273Q170.40925 -60.30023 169.49345 -60.92786Q167.89079 -62.1421 167.5092 -62.54527Q166.97498 -63.0788 166.97498 -63.61968Q166.97498 -64.08329 167.35657 -64.29827Q167.58552 -64.48908 168.11974 -64.57369Q168.50133 -64.63414 168.92107 -64.62335Q169.34081 -64.61257 169.7224 -64.67301Q170.33294 -64.84699 171.21058 -64.90874Q172.08823 -64.97048 172.62245 -65.0551Q173.15667 -65.13972 174.22511 -65.46349Q175.44618 -65.81145 176.13304 -65.92024Q178.26992 -66.25872 178.26992 -65.25422Q178.26992 -64.55881 177.43043 -63.80769Q177.12516 -63.45026 176.59094 -62.63159Q176.05672 -61.81292 175.29355 -61.22842Q174.45406 -60.63184 174.26327 -60.25391Q174.07248 -59.87598 174.07248 -58.94876L174.14879 -54.32473Q174.14879 -52.85663 173.91984 -50.34777Q173.76721 -48.00554 173.76721 -46.76924L173.84352 -42.37702Q173.99616 -39.31046 173.99616 -37.76509Q173.99616 -29.18828 174.07248 -25.02786Q174.14879 -21.25379 174.14879 -14.14509L174.14879 -10.12712Q174.14879 -4.48652 171.85928 0.43498Q170.94347 2.51175 168.84475 4.00321Q166.74603 5.49467 164.30389 6.34511Z" fill="rgb(37, 37, 37)" transform="matrix(1 0 0 1 254.281756 97.74599)"/><path d="M207.04147 -0.88799Q203.75983 -0.36819 202.15717 -0.26887Q200.17293 -0.10911 199.25712 0.03595Q197.95973 0.24145 195.67022 0.75864Q194.98336 0.94471 193.45702 1.34101Q191.93068 1.73731 190.7096 1.93073Q189.71748 2.08788 187.42797 2.29599Q185.74899 2.33013 183.9937 2.60816L183.23053 2.72905Q182.46736 2.84993 182.16209 2.62784Q181.85682 2.40576 181.85682 1.40127Q181.85682 0.55131 182.20025 0.0333Q182.54367 -0.48471 183.30685 -0.99193Q186.35953 -2.94357 186.35953 -6.34339Q186.35953 -7.42515 186.13058 -10.63416Q185.97794 -12.30989 185.97794 -13.15985Q185.97794 -14.31887 186.05426 -15.10365Q186.35953 -18.86089 186.35953 -25.42872Q186.35953 -28.674 186.6648 -33.513Q186.89375 -36.71728 186.89375 -39.49895Q186.89375 -41.817 186.74112 -42.95186Q186.43585 -46.53512 186.43585 -50.47582L186.43585 -55.42101L186.43585 -57.97087Q186.35953 -59.81323 185.86347 -61.00958Q185.36741 -62.20594 184.07002 -62.69586Q181.7805 -63.5695 181.7805 -65.11487Q181.7805 -65.81029 182.16209 -66.25707Q182.54367 -66.78113 183.03974 -66.82107Q183.5358 -66.86101 183.68843 -66.88518L187.27533 -67.37607Q188.11482 -67.50904 189.94643 -67.9537Q191.54909 -68.43936 193.30439 -68.71739Q194.83073 -68.95916 195.5939 -68.92551Q196.81497 -68.96438 197.34919 -69.049L199.63871 -69.48892Q200.70715 -69.65816 202.84403 -69.8421L205.97303 -70.26045L207.11778 -70.44178Q208.49149 -70.65937 208.87308 -70.33347Q209.55993 -69.51504 209.55993 -68.35601Q209.48361 -66.02587 209.17835 -64.50941Q208.94939 -63.00504 209.02571 -61.23995Q209.02571 -60.15819 208.49149 -59.7645Q208.26254 -59.5737 207.88095 -59.51326Q207.04147 -59.38028 206.65988 -60.55614Q206.35461 -61.97589 204.86643 -63.2469Q203.37824 -64.51792 201.54663 -65.77317Q200.55451 -66.3887 198.7229 -66.09858Q197.12024 -65.84473 196.0518 -65.05734Q195.136 -64.3714 194.90705 -64.10333Q194.67809 -63.83526 194.06756 -62.8886Q192.69385 -60.66202 192.99912 -57.31056Q193.07544 -56.7045 193.07544 -55.77728Q193.07544 -54.85006 192.9228 -53.58958Q192.77017 -52.17457 192.77017 -51.24735Q192.77017 -49.62471 192.99912 -47.96107Q193.22807 -46.29742 193.30439 -45.53683Q193.60965 -43.18985 194.22019 -42.2048Q195.21231 -40.66204 196.66234 -40.89172Q197.50183 -41.02469 198.265 -41.68646Q199.1808 -42.44967 199.79134 -43.7054Q200.40188 -44.96114 200.9361 -46.66839Q201.24137 -47.41217 201.8519 -48.04975Q202.46244 -48.68734 203.07298 -48.55224Q203.91246 -48.29887 203.91246 -47.60345L203.91246 -46.44442Q203.91246 -45.90354 203.83615 -45.50511Q203.53088 -43.91139 203.53088 -41.97967Q203.53088 -40.04796 203.75983 -38.07524Q203.83615 -37.70099 203.83615 -36.85103Q203.83615 -35.15113 203.37824 -33.30142Q203.07298 -32.24857 202.38612 -32.13978Q201.92822 -32.06725 201.62295 -32.32797Q200.9361 -32.76005 200.9361 -34.15089L200.9361 -34.84631Q200.9361 -35.46445 200.78346 -35.74935Q200.17293 -37.04348 199.60055 -37.57096Q199.02817 -38.09845 198.03605 -37.9413Q197.27288 -37.82042 196.43339 -37.37837Q195.51758 -36.92424 195.25047 -36.57285Q194.98336 -36.22147 194.79257 -35.61173Q194.60178 -35.002 194.29651 -34.41277Q193.53334 -32.74651 193.53334 -30.04211Q193.53334 -27.72405 193.60965 -26.1135Q193.60965 -25.10901 193.68597 -24.11661Q193.76229 -23.12421 193.83861 -22.20907Q194.14387 -17.46678 194.14387 -14.83964Q194.14387 -12.67612 193.99124 -10.7975L193.91492 -8.93097Q193.91492 -5.68569 194.98336 -4.42546Q196.0518 -3.16523 199.25712 -3.98201Q202.08085 -4.73836 203.18745 -5.72496Q204.29405 -6.71156 205.43881 -9.59728Q206.04934 -11.08483 206.5454 -11.97472Q207.04147 -12.86461 207.95727 -13.70509Q208.33886 -14.07461 208.94939 -14.17131Q209.55993 -14.26802 210.09415 -13.9663Q210.62837 -13.66457 210.70469 -13.13578Q210.85732 -12.23274 210.85732 -12.0782Q210.85732 -11.61459 210.66653 -10.92758Q210.47574 -10.24058 210.39942 -9.84215Q210.24678 -9.12256 209.78888 -6.42289Q209.63625 -4.467 209.17835 -2.8491Q208.87308 -1.87353 208.45333 -1.45933Q208.03359 -1.04514 207.04147 -0.88799Z" fill="rgb(37, 37, 37)" transform="matrix(1 0 0 1 254.281756 97.74599)"/><path d="M231.08136 -4.85036Q228.56289 -4.29691 226.65496 -4.38104Q226.27338 -4.39787 225.51021 -4.27698Q224.89967 -4.18028 223.52596 -3.80815Q222.15225 -3.43602 221.54172 -3.33932Q218.87062 -2.91622 217.57323 -2.78799Q216.88637 -2.67919 216.5811 -3.01718Q216.27584 -3.43244 216.27584 -3.74151Q216.27584 -4.82327 217.95481 -6.09371Q219.2522 -7.0719 219.74826 -8.00043Q220.24433 -8.92895 220.32064 -10.40915Q220.54959 -14.38611 220.54959 -15.85421L220.62591 -27.61112Q220.62591 -30.93367 220.54959 -32.62149Q220.39696 -35.91986 220.39696 -40.94231Q220.39696 -46.50565 220.47328 -49.68575Q220.54959 -51.47501 220.54959 -54.56576Q220.54959 -57.03835 220.47328 -58.49436Q220.47328 -58.95798 220.32064 -60.1701Q220.16801 -62.30944 220.16801 -63.54574Q220.16801 -65.70925 219.40484 -66.67013Q218.64167 -67.63101 217.03901 -68.22711Q215.36003 -68.81112 215.36003 -70.20195Q215.36003 -70.89737 215.97057 -71.61222Q216.27584 -71.96965 217.15348 -72.1473Q218.03113 -72.32495 218.98509 -72.47606Q219.93906 -72.62716 220.54959 -72.72387L223.29701 -73.08178Q225.12862 -73.21736 226.12074 -73.37451Q227.41813 -73.58001 230.16555 -74.32427Q230.8524 -74.51033 231.80637 -74.73871Q232.76033 -74.96708 233.98141 -75.16049Q235.58406 -75.41435 236.72882 -75.2866Q239.3236 -75.00219 239.74335 -74.8755Q240.16309 -74.74882 241.9947 -74.03445Q242.83419 -73.70381 243.82631 -72.70193Q243.97895 -72.4943 244.32237 -72.20099Q244.6658 -71.90768 244.97107 -71.72423Q245.81056 -71.16178 246.34478 -70.31918Q246.879 -69.47657 247.22242 -68.68102Q247.56585 -67.88546 247.71848 -67.60056Q248.55797 -65.87909 248.93956 -63.69874Q249.01588 -63.24722 249.24483 -62.5108Q249.47378 -61.77438 249.47378 -60.84716Q249.47378 -59.22452 249.09219 -56.84602Q248.78692 -54.63415 246.72636 -50.67614Q245.35265 -47.98595 241.84207 -45.1891Q241.23153 -44.70605 240.62099 -44.3389Q240.01046 -43.97176 239.70519 -43.6916Q239.39992 -43.41144 239.39992 -43.10236Q239.39992 -42.63875 240.77363 -42.08366Q241.9947 -41.50439 242.83419 -40.94194Q243.67368 -40.3795 244.43685 -39.41862Q245.04739 -38.5881 245.39081 -37.13576Q245.73424 -35.68343 246.11583 -32.49859L246.72636 -28.26826Q246.879 -26.74706 246.879 -25.6653Q246.879 -22.49729 246.34478 -17.9311Q246.19214 -16.90243 246.19214 -15.20252Q246.19214 -13.88895 246.49741 -11.77379Q246.72636 -10.34195 247.87112 -10.52328Q248.40534 -10.6079 248.71061 -10.81079Q249.47378 -11.16348 249.81721 -12.68598Q250.16063 -14.20848 250.4659 -16.65215Q250.54222 -17.35966 250.96196 -17.88976Q251.38171 -18.41985 251.99224 -18.51656Q252.29751 -18.56491 252.75541 -18.40564Q253.5949 -17.99773 253.93833 -17.54988Q254.28176 -17.10204 254.28176 -15.94301Q254.28176 -14.39764 253.90017 -12.40548Q253.67122 -11.28746 252.6791 -10.04855Q251.68697 -8.80964 250.4659 -7.92081Q249.32114 -7.04406 246.879 -6.65724Q243.06314 -6.05282 241.11705 -7.44447Q239.17097 -8.83613 238.48411 -12.51349Q237.72094 -16.71965 237.72094 -21.97391L237.79726 -25.92669Q237.79726 -27.93568 237.3012 -31.10238Q236.80514 -34.26909 236.27092 -35.80711Q235.58406 -37.86183 234.32483 -39.09184Q233.0656 -40.32185 231.53926 -39.77101Q229.78396 -39.10664 229.21159 -38.51373Q228.63921 -37.92082 228.1813 -36.14838Q227.7234 -34.2214 227.7234 -32.5215Q227.7234 -31.74881 227.87604 -29.764Q228.02867 -27.16105 228.02867 -25.30661L228.02867 -21.67498Q228.02867 -16.42072 227.64709 -12.72866Q227.57077 -12.33023 227.57077 -11.63481Q227.57077 -9.7031 228.63921 -8.94511Q229.17343 -8.64339 230.08923 -8.4021Q231.00504 -8.16082 231.61557 -7.87119Q232.68401 -7.42227 232.68401 -6.49505Q232.68401 -6.26325 232.53138 -5.77546Q232.22611 -5.03169 231.08136 -4.85036ZM234.36299 -44.39078Q235.88933 -44.94162 236.69066 -45.60943Q237.49199 -46.27724 238.25516 -47.71169Q239.78151 -50.73512 240.08677 -52.71519Q240.39204 -54.30892 241.0789 -55.96308Q241.76575 -57.77179 241.76575 -58.4672Q241.76575 -60.08984 241.5368 -61.90802L241.30785 -63.57167Q241.23153 -64.02319 241.0789 -65.54438Q240.92626 -67.06558 240.54468 -67.85509Q239.62887 -69.40994 238.59859 -70.25124Q237.56831 -71.09253 236.11828 -71.481Q234.82089 -71.89365 232.98928 -71.60353Q232.37875 -71.50682 231.15767 -71.15887Q229.40238 -70.64903 228.83 -69.013Q228.25762 -67.37696 228.10499 -64.10751Q228.02867 -60.77287 227.64709 -58.78072Q227.49445 -57.52024 227.49445 -57.05663Q227.49445 -56.05214 227.79972 -54.40059Q228.10499 -52.90357 228.10499 -52.13088L228.02867 -48.1781Q228.02867 -46.71 228.71552 -45.38932Q229.40238 -44.06865 230.3945 -43.91672Q231.46294 -43.69962 232.45506 -43.85677Q233.21823 -43.97765 234.36299 -44.39078Z" fill="rgb(37, 37, 37)" transform="matrix(1 0 0 1 254.281756 97.74599)"/><path d="" fill="rgb(37, 37, 37)" transform="matrix(1 0 0 1 254.281756 97.74599)"/></g></g>

  </svg>