<svg xmlns="http://www.w3.org/2000/svg" xmlns:xlink="http://www.w3.org/1999/xlink" width="125px" height="125px" viewBox="0 0 124.69941138898139 124.69941138898173">
    <g id="7399ecdf-45f2-4269-9bb0-1e2d6246244b">
<g style="">
		<g id="7399ecdf-45f2-4269-9bb0-1e2d6246244b-child-0">
<path style="stroke: rgb(193,193,193); stroke-width: 0; stroke-dasharray: none; stroke-linecap: butt; stroke-dashoffset: 0; stroke-linejoin: miter; stroke-miterlimit: 4; fill: rgb(37,37,37); fill-rule: nonzero; opacity: 1;" transform="matrix(0.121845 -0.121845 0.121845 0.121845 62.349706 62.349706) matrix(21.333333 0 0 21.333333 0 0)  translate(-11.997972, -11.988432)" d="M 23.12 0.88 C 22.50 0.24 21.61 -0.08 20.72 0.02 C 18.45 0.24 12.71 1.21 8.46 5.46 C 4.78 9.14 1.97 13.60 0.24 18.51 L 0.00 19.12 L 4.86 23.98 L 5.46 23.74 C 10.38 22.01 14.84 19.21 18.54 15.54 C 22.78 11.29 23.76 5.55 23.98 3.28 C 24.07 2.39 23.76 1.51 23.12 0.88 z M 17.12 14.13 C 13.80 17.46 9.78 20.03 5.35 21.64 L 4.56 20.85 L 16.71 8.71 L 15.29 7.29 L 3.15 19.44 L 2.35 18.64 C 3.98 14.22 6.54 10.20 9.88 6.88 C 13.67 3.08 18.86 2.21 20.92 2.01 C 21.21 1.98 21.50 2.08 21.71 2.29 C 21.92 2.50 22.03 2.79 22.00 3.08 C 21.79 5.14 20.92 10.33 17.13 14.13 z" stroke-linecap="round"/>
</g>
</g>
</g>

  </svg>