<svg xmlns="http://www.w3.org/2000/svg" xmlns:xlink="http://www.w3.org/1999/xlink" width="399px" height="60px" viewBox="0 0 331.9090539999888 49.897744598128725">
    <g style="" id="e2b8319b-eff8-4749-b52a-0c127a26f4fa">
<g style=""><path d="M-127.54835 14.26899Q-128.78475 14.57809 -130.02116 14.29107Q-131.25756 14.00404 -132.00824 13.7391Q-132.14071 13.43 -132.3615 12.72348Q-132.58228 12.01697 -132.75891 11.1559Q-132.93554 10.29483 -133.02385 9.47792Q-133.11217 8.66101 -132.9797 8.17528Q-132.89138 7.82202 -132.69267 7.18174Q-132.49397 6.54146 -132.6706 5.92326Q-132.84723 5.34921 -133.15633 4.66478Q-133.46543 3.98034 -133.64206 3.45045Q-133.73037 3.18551 -133.70829 2.9868Q-133.68621 2.78809 -133.81869 2.61146Q-134.34857 2.16989 -135.05509 2.03742L-135.05509 2.34652Q-135.32003 2.78809 -135.16548 3.51669Q-135.01093 4.24528 -135.18756 4.81933Q-135.45251 5.61416 -135.5629 6.67393Q-135.67329 7.73371 -135.78369 8.90388Q-135.89408 10.07405 -136.00447 11.24421Q-136.11487 12.41438 -136.29149 13.43Q-136.68891 13.69494 -137.90324 13.89365Q-139.11756 14.09236 -140.46436 14.20275Q-141.81116 14.31315 -143.02548 14.29107Q-144.23981 14.26899 -144.63722 14.00404Q-144.99048 13.78326 -145.0788 13.43Q-145.16711 13.07674 -145.16711 12.45854Q-145.25543 12.37022 -145.34374 11.84034Q-145.43205 11.31045 -145.52037 10.64809Q-145.60868 9.98573 -145.65284 9.38961Q-145.697 8.79348 -145.60868 8.5727Q-145.52037 8.35191 -145.3879 8.21944Q-145.25543 8.08697 -145.16711 7.73371Q-145.78531 7.33629 -146.02818 6.1882Q-146.27104 5.04011 -146.3152 3.98034L-146.3152 2.21405Q-146.40352 1.90495 -146.58014 1.17635Q-146.75677 0.44775 -146.84509 0.0945Q-146.97756 -0.39123 -146.95548 -0.81073Q-146.9334 -1.23022 -146.86717 -1.64972Q-146.80093 -2.06921 -146.75677 -2.46663Q-146.71262 -2.86404 -146.84509 -3.34977Q-146.9334 -3.74719 -147.17627 -4.4537Q-147.41913 -5.16022 -147.5516 -5.60179L-147.5516 -10.15Q-147.81655 -11.03314 -147.99318 -12.22539Q-148.16981 -13.41764 -147.94902 -14.60988Q-147.81655 -15.3164 -147.9711 -15.95668Q-148.12565 -16.59696 -148.34644 -17.19308Q-148.56722 -17.78921 -148.72177 -18.38533Q-148.87632 -18.98146 -148.78801 -19.59966Q-147.90486 -20.04123 -146.71262 -20.1737Q-146.13857 -20.21786 -145.43205 -20.23994Q-144.72554 -20.26202 -144.0411 -20.23994Q-143.35666 -20.21786 -142.78262 -20.08539Q-142.20857 -19.95292 -141.85531 -19.73213Q-141.41374 -19.42303 -141.36958 -18.84898Q-141.32543 -18.27494 -141.1488 -17.65674Q-140.88385 -16.77359 -140.75138 -15.73589Q-140.61891 -14.6982 -140.53059 -13.59427Q-140.44228 -12.49033 -140.33189 -11.3864Q-140.22149 -10.28247 -140.04486 -9.31101Q-139.86824 -9.26685 -139.802 -9.24477Q-139.73576 -9.22269 -139.47082 -9.17854Q-139.11756 -9.57595 -139.00717 -9.92921Q-138.89677 -10.28247 -138.94093 -11.12146Q-138.49936 -11.78382 -138.63183 -12.75528Q-138.7643 -13.72674 -138.67599 -14.60988Q-138.58767 -15.05146 -138.34481 -15.91252Q-138.10194 -16.77359 -137.96947 -17.25932Q-137.837 -17.70089 -137.837 -18.12039Q-137.837 -18.53988 -137.837 -18.87106Q-137.837 -19.20224 -137.70453 -19.46719Q-137.57206 -19.73213 -137.13048 -19.8646Q-136.77722 -20.1737 -135.73953 -20.1737Q-134.70183 -20.1737 -133.57582 -20.01915Q-132.44981 -19.8646 -131.56666 -19.62174Q-130.68352 -19.37887 -130.5952 -19.20224L-130.5952 -17.78921Q-130.2861 -17.30348 -130.26402 -16.64112Q-130.24194 -15.97876 -130.33026 -15.25016Q-130.41857 -14.52157 -130.46273 -13.77089Q-130.50689 -13.02022 -130.33026 -12.40202Q-130.10947 -11.6955 -129.977 -10.94483Q-129.84453 -10.19415 -129.62374 -9.48764Q-129.44711 -9.39932 -129.33672 -9.37724Q-129.22633 -9.35516 -128.91723 -9.31101Q-128.82891 -9.39932 -128.78475 -9.39932Q-128.7406 -9.39932 -128.51981 -9.48764Q-128.29902 -11.60719 -128.16655 -13.28516Q-128.03408 -14.96314 -127.54835 -16.5528Q-127.41588 -16.99438 -127.37172 -17.50219Q-127.32756 -18.00999 -127.26133 -18.45157Q-127.19509 -18.89314 -127.01846 -19.22432Q-126.84183 -19.5555 -126.44442 -19.73213Q-125.82622 -20.12955 -124.7002 -20.19578Q-123.57419 -20.26202 -122.55858 -20.1737Q-121.94037 -20.08539 -121.1897 -20.04123Q-120.43903 -19.99707 -119.60004 -19.95292Q-119.68835 -19.2464 -119.82082 -18.00999Q-119.95329 -16.77359 -120.17408 -14.87483Q-120.43903 -14.43325 -120.65981 -13.68258Q-120.8806 -12.93191 -121.03515 -12.07084Q-121.1897 -11.20977 -121.25594 -10.3487Q-121.32217 -9.48764 -121.32217 -8.78112L-121.32217 -5.73427Q-121.41049 -5.24854 -121.65335 -4.58618Q-121.89622 -3.92382 -121.98453 -3.48224Q-122.117 -2.95236 -122.13908 -2.40039Q-122.16116 -1.84842 -122.13908 -1.31854Q-122.117 -0.78865 -122.09492 -0.30292Q-122.07285 0.18281 -122.117 0.53607Q-122.24947 1.0218 -122.60273 1.59584Q-122.95599 2.16989 -123.08846 2.74393Q-123.22093 3.14135 -123.13262 3.56084Q-123.04431 3.98034 -122.95599 4.44399Q-122.86768 4.90764 -122.77936 5.37129Q-122.69105 5.83495 -122.82352 6.36483Q-123.04431 7.33629 -123.30925 8.35191Q-123.57419 9.36753 -123.79498 10.25067Q-123.88329 10.60393 -123.81706 10.97927Q-123.75082 11.35461 -123.66251 11.75202Q-123.57419 12.14944 -123.55211 12.52478Q-123.53004 12.90011 -123.79498 13.29753Q-123.97161 13.78326 -124.25863 13.95989Q-124.54565 14.13652 -125.20801 14.13652Q-125.69374 13.82742 -126.42234 14.00404Q-127.15093 14.18067 -127.54835 14.26899ZM-144.50475 -0.17045Q-144.37228 -0.39123 -144.30604 -0.43539Q-144.23981 -0.47955 -144.37228 -0.74449Q-144.46059 -0.52371 -144.50475 -0.45747Q-144.54891 -0.39123 -144.63722 -0.17045ZM-142.12026 1.37506L-142.12026 1.06596L-142.25273 1.06596Q-142.3852 0.97764 -142.36312 0.99972Q-142.34104 1.0218 -142.56183 0.93349Q-142.51767 1.0218 -142.49559 1.15427Q-142.47352 1.28674 -142.3852 1.37506ZM-143.93071 -3.48224Q-144.01902 -3.70303 -143.99694 -3.68095Q-143.97486 -3.65887 -144.06318 -3.79135L-144.06318 -3.48224ZM-139.0734 0.80101L-139.0734 0.53607L-139.47082 0.53607L-139.47082 0.80101ZM-138.23442 -0.17045L-138.23442 -0.30292L-138.36689 -0.30292L-138.36689 -0.43539L-138.80846 -0.43539L-138.80846 -0.17045ZM-137.70453 -0.43539Q-137.79284 -0.65618 -137.77076 -0.6341Q-137.74869 -0.61202 -137.837 -0.74449L-137.837 -0.43539ZM-133.81869 1.77247L-133.81869 1.24259L-133.95116 1.24259L-133.95116 1.06596L-134.79015 0.93349Q-134.8343 1.11011 -134.85638 1.19843Q-134.87846 1.28674 -134.92262 1.50753Q-134.8343 1.59584 -134.85638 1.59584Q-134.87846 1.59584 -134.79015 1.77247ZM-136.29149 -0.43539Q-136.07071 -0.74449 -135.76161 -0.87696Q-135.84992 -0.96528 -135.82784 -0.9432Q-135.80576 -0.92112 -136.02655 -1.00944Q-136.20318 -0.78865 -136.33565 -0.72241Q-136.46812 -0.65618 -136.55644 -0.43539ZM-133.37711 -1.9809L-133.37711 -2.11337Q-133.2888 -2.20168 -133.24464 -2.1796Q-133.20048 -2.15753 -133.24464 -2.37831L-133.37711 -2.37831L-133.50958 -1.9809ZM-130.06532 -0.74449L-130.06532 -1.00944L-130.5952 -1.14191L-130.72768 -0.74449ZM-129.3588 -0.17045L-129.3588 -0.43539L-129.62374 -0.43539L-129.62374 -0.17045ZM-128.65228 0.0945Q-128.69644 -0.12629 -128.71852 -0.19253Q-128.7406 -0.25876 -128.78475 -0.43539L-128.91723 -0.43539L-128.91723 -0.30292Q-129.00554 -0.2146 -129.00554 -0.17045Q-129.00554 -0.12629 -129.09386 0.0945ZM-131.16925 -2.95236L-131.43419 -2.95236Q-131.47835 -2.73157 -131.50043 -2.73157Q-131.52251 -2.73157 -131.43419 -2.51078Q-131.34588 -2.42247 -131.34588 -2.44455Q-131.34588 -2.46663 -131.16925 -2.37831ZM-127.28341 -1.71595Q-127.37172 -1.89258 -127.34964 -1.89258Q-127.32756 -1.89258 -127.41588 -1.9809L-127.41588 -1.71595ZM-124.89891 0.4036Q-124.5015 0.27113 -124.45734 0.16073Q-124.41318 0.05034 -124.63397 -0.17045Q-124.8106 0.18281 -124.89891 0.4036ZM-125.03138 -1.9809L-125.03138 -2.24584L-125.34048 -2.24584L-125.34048 -1.9809ZM-124.05992 -2.51078L-124.05992 -2.68741Q-123.97161 -2.77573 -123.99369 -2.75365Q-124.01577 -2.73157 -123.92745 -2.95236L-123.79498 -2.95236L-123.79498 -3.08483L-124.05992 -3.08483Q-124.23655 -2.86404 -124.25863 -2.86404Q-124.28071 -2.86404 -124.36902 -2.51078Z" fill="rgb(222, 198, 133)" transform="matrix(1 0 0 1 165.954527 24.948872)"/><path d="M-120.70397 14.0482Q-120.83644 13.91573 -121.01307 13.76118Q-121.1897 13.60663 -121.41049 13.51831Q-121.36633 12.98843 -121.21178 12.72348Q-121.05723 12.45854 -120.96891 12.10528L-120.96891 9.89742Q-120.52734 8.21944 -120.37279 6.38691Q-120.21824 4.55438 -119.73251 2.96472L-119.73251 -0.65618Q-119.46756 -1.62764 -119.31301 -2.81988Q-119.15846 -4.01213 -119.00391 -5.20438Q-118.84936 -6.39663 -118.67273 -7.56679Q-118.4961 -8.73696 -118.23116 -9.66427L-118.23116 -11.47471Q-117.78959 -12.84359 -117.34801 -14.47741Q-116.90644 -16.11123 -116.42071 -17.30348Q-116.19992 -17.78921 -116.17785 -18.34117Q-116.15577 -18.89314 -115.84667 -19.2464Q-115.71419 -19.51134 -115.6038 -19.57758Q-115.49341 -19.64381 -115.31678 -19.82044Q-115.05184 -19.77629 -114.01414 -19.82044Q-112.97644 -19.8646 -111.82835 -19.90876Q-110.68026 -19.95292 -109.64257 -19.90876Q-108.60487 -19.8646 -108.33993 -19.68797Q-107.76588 -19.42303 -107.76588 -18.9373Q-107.76588 -18.45157 -107.50094 -17.87752Q-107.01521 -16.86191 -106.57363 -15.71382Q-106.13206 -14.56573 -105.86712 -13.41764L-105.86712 -10.23831Q-105.69049 -9.70842 -105.35931 -9.17854Q-105.02813 -8.64865 -104.89566 -8.16292L-104.89566 -5.64595Q-104.80734 -5.42517 -104.60863 -4.82904Q-104.40993 -4.23292 -104.32161 -3.96797Q-104.14498 -3.39393 -104.18914 -2.86404Q-104.2333 -2.33415 -104.32161 -1.80427Q-104.40993 -1.27438 -104.45408 -0.76657Q-104.49824 -0.25876 -104.32161 0.31528Q-103.96835 1.59584 -103.70341 3.18551Q-103.43847 4.77517 -103.08521 6.01157L-103.08521 8.08697Q-102.99689 8.39607 -102.79819 8.99219Q-102.59948 9.58832 -102.51116 9.89742Q-102.42285 10.29483 -102.42285 10.67017Q-102.42285 11.04551 -102.44493 11.39876Q-102.46701 11.75202 -102.44493 12.0832Q-102.42285 12.41438 -102.24622 12.67933Q-102.24622 13.38584 -102.37869 13.78326Q-102.64363 13.87157 -103.59302 13.98197Q-104.5424 14.09236 -105.62425 14.13652Q-106.70611 14.18067 -107.67757 14.13652Q-108.64903 14.09236 -108.91397 13.91573L-109.17891 13.91573Q-109.22307 13.65079 -109.26723 13.1209Q-109.31139 12.59101 -109.37762 11.99489Q-109.44386 11.39876 -109.53217 10.89096Q-109.62049 10.38315 -109.75296 10.16236L-109.88543 9.76494Q-110.81273 9.54416 -111.82835 9.54416Q-112.84397 9.54416 -113.50633 9.89742Q-113.6388 10.64809 -113.77127 11.66371Q-113.90375 12.67933 -114.30116 13.20921Q-114.52195 13.7391 -115.36094 13.93781Q-116.19992 14.13652 -117.19346 14.13652Q-118.187 14.13652 -119.18054 14.07028Q-120.17408 14.00404 -120.70397 14.0482ZM-112.0933 2.12573Q-111.65172 2.12573 -111.25431 2.10365Q-110.85689 2.08157 -110.59195 1.99326Q-110.41532 1.15427 -110.56987 0.16073Q-110.72442 -0.83281 -110.94521 -1.71595Q-111.07768 -2.37831 -111.07768 -3.06275Q-111.07768 -3.74719 -111.12184 -4.36539Q-111.16599 -4.98359 -111.29846 -5.4914Q-111.43094 -5.99921 -111.82835 -6.35247Q-112.44655 -4.80696 -112.7115 -2.70949Q-112.97644 -0.61202 -112.93228 1.50753Q-113.15307 2.12573 -112.86605 2.14781Q-112.57903 2.16989 -112.0933 2.12573ZM-115.71419 -8.69281Q-115.62588 -8.91359 -115.55964 -9.02399Q-115.49341 -9.13438 -115.31678 -9.26685Q-115.44925 -9.53179 -115.42717 -9.48764Q-115.40509 -9.44348 -115.71419 -9.53179Q-115.84667 -9.31101 -115.89082 -9.20061Q-115.93498 -9.09022 -115.97914 -8.69281ZM-107.94251 -8.16292Q-107.72172 -8.03045 -107.63341 -8.20708Q-107.54509 -8.3837 -107.50094 -8.42786L-107.36847 -8.42786Q-107.32431 -8.64865 -107.39054 -8.62657Q-107.45678 -8.60449 -107.50094 -8.69281Q-107.67757 -8.51618 -107.94251 -8.16292ZM-108.64903 -9.39932Q-108.69318 -10.01752 -108.91397 -10.28247Q-109.13476 -10.54741 -109.62049 -10.63573Q-109.53217 -10.28247 -109.37762 -10.06168Q-109.22307 -9.8409 -109.04644 -9.53179Q-108.86981 -9.44348 -108.86981 -9.46556Q-108.86981 -9.48764 -108.7815 -9.39932Z" fill="rgb(222, 198, 133)" transform="matrix(1 0 0 1 165.954527 24.948872)"/><path d="M-98.71364 14.13652Q-99.19937 13.25337 -99.46431 12.0832Q-99.72925 10.91303 -99.92796 9.65455Q-100.12667 8.39607 -100.3033 7.13759Q-100.47993 5.8791 -100.78903 4.81933L-100.78903 2.21405Q-101.05397 1.28674 -101.2306 0.22697Q-101.40723 -0.83281 -101.56178 -1.89258Q-101.71633 -2.95236 -101.89296 -3.96797Q-102.06959 -4.98359 -102.33453 -5.86674L-102.33453 -9.17854Q-102.42285 -9.39932 -102.48908 -9.75258Q-102.55532 -10.10584 -102.62156 -10.50325Q-102.68779 -10.90067 -102.75403 -11.25393Q-102.82026 -11.60719 -102.86442 -11.82797L-102.86442 -14.21247Q-103.17352 -15.22809 -103.46054 -16.48657Q-103.74757 -17.74505 -103.83588 -18.89314Q-103.74757 -19.02561 -103.65925 -19.13601Q-103.57094 -19.2464 -103.43847 -19.33471Q-103.08521 -19.59966 -102.24622 -19.75421Q-101.40723 -19.90876 -100.43577 -19.97499Q-99.46431 -20.04123 -98.58116 -19.99707Q-97.69802 -19.95292 -97.21229 -19.8646Q-96.9915 -19.51134 -96.66032 -19.20224Q-96.32914 -18.89314 -96.24083 -18.49573L-96.24083 -15.84629Q-96.02004 -15.18393 -95.82133 -13.61634Q-95.62262 -12.04876 -95.46807 -10.28247Q-95.31352 -8.51618 -95.20313 -6.88236Q-95.09274 -5.24854 -95.09274 -4.4537Q-94.87195 -4.36539 -94.91611 -4.32123Q-94.96027 -4.27708 -94.60701 -4.18876Q-94.47454 -4.36539 -94.36414 -5.40309Q-94.25375 -6.44078 -94.16543 -7.67719Q-94.07712 -8.91359 -94.03296 -10.0396Q-93.9888 -11.16561 -93.9888 -11.56303Q-93.59139 -12.09292 -93.39268 -13.30724Q-93.19397 -14.52157 -93.03942 -15.84629Q-92.88487 -17.17101 -92.66409 -18.27494Q-92.4433 -19.37887 -92.04588 -19.73213Q-91.64847 -20.04123 -91.18482 -19.95292Q-90.72116 -19.8646 -90.36791 -20.1737Q-89.61723 -20.21786 -88.75617 -20.21786Q-87.8951 -20.21786 -87.1665 -20.06331Q-86.43791 -19.90876 -85.9301 -19.5555Q-85.42229 -19.20224 -85.37813 -18.49573Q-86.12881 -17.78921 -86.2392 -16.86191Q-86.34959 -15.9346 -86.28336 -14.89691Q-86.21712 -13.85921 -86.12881 -12.71112Q-86.04049 -11.56303 -86.34959 -10.4591Q-86.57038 -9.57595 -86.76909 -8.44994Q-86.96779 -7.32393 -87.18858 -6.57326L-87.18858 -4.18876Q-87.2769 -3.79135 -87.54184 -3.2173Q-87.80678 -2.64326 -87.8951 -2.24584L-87.8951 1.24259Q-88.02757 1.77247 -88.29251 2.43483Q-88.55746 3.09719 -88.73409 3.58292L-88.73409 7.86618Q-89.08734 9.10259 -89.33021 10.78056Q-89.57308 12.45854 -89.83802 13.7391Q-90.50038 14.0482 -91.62639 14.22483Q-92.7524 14.40146 -94.03296 14.44562Q-95.31352 14.48978 -96.57201 14.40146Q-97.83049 14.31315 -98.71364 14.13652ZM-93.72386 13.25337L-93.72386 12.98843Q-93.90049 12.8118 -93.9888 12.63517Q-94.07712 12.45854 -94.25375 12.28191Q-94.16543 12.67933 -94.07712 12.83388Q-93.9888 12.98843 -93.85633 13.25337ZM-92.17836 12.01697Q-91.95757 11.79618 -91.84718 11.72994Q-91.73678 11.66371 -91.64847 11.31045L-91.91341 11.31045Q-92.00173 11.53124 -92.11212 11.68579Q-92.22251 11.84034 -92.31083 12.01697ZM-97.47723 5.79079Q-97.65386 5.70247 -97.7201 5.63624Q-97.78633 5.57 -98.00712 5.48169L-98.00712 5.92326Q-97.83049 6.01157 -97.76425 6.05573Q-97.69802 6.09989 -97.47723 6.1882ZM-92.88487 10.33899L-92.88487 9.8091Q-93.28229 9.5 -93.50307 9.12466Q-93.72386 8.74933 -94.25375 8.52854Q-94.03296 9.14674 -93.74594 9.5Q-93.45892 9.85326 -93.14982 10.33899ZM-96.19667 7.86618Q-95.88757 7.64539 -95.68886 7.44669Q-95.49015 7.24798 -95.35768 6.89472Q-94.96027 6.45315 -95.22521 6.05573Q-95.53431 6.4973 -95.90965 6.9168Q-96.28498 7.33629 -96.50577 7.86618Q-96.3733 7.9545 -96.39538 7.91034Q-96.41746 7.86618 -96.32914 7.99865ZM-93.01734 6.45315L-93.01734 6.1882L-93.28229 6.05573L-93.14982 6.45315ZM-98.22791 0.66854L-98.49285 0.66854Q-98.44869 0.93349 -98.47077 0.88933Q-98.49285 0.84517 -98.22791 0.93349ZM-99.46431 -0.61202Q-99.28768 -0.87696 -99.06689 -0.87696Q-98.84611 -0.87696 -98.62532 -1.14191L-99.46431 -1.14191Q-99.59678 -0.92112 -99.61886 -0.92112Q-99.64094 -0.92112 -99.72925 -0.61202ZM-98.93442 -5.16022L-99.06689 -5.16022Q-99.15521 -5.24854 -99.15521 -5.24854Q-99.15521 -5.24854 -99.33184 -5.33685L-99.33184 -5.16022Q-99.42015 -5.07191 -99.50847 -5.09399Q-99.59678 -5.11606 -99.46431 -5.02775Q-99.37599 -4.93944 -99.33184 -4.93944Q-99.28768 -4.93944 -99.06689 -4.89528ZM-96.9915 -3.2173Q-96.94734 -3.30562 -96.90319 -3.37185Q-96.85903 -3.43809 -96.81487 -3.5264Q-96.94734 -3.61472 -96.92526 -3.57056Q-96.90319 -3.5264 -96.9915 -3.65887L-97.38892 -3.65887Q-97.47723 -3.39393 -97.52139 -3.2173ZM-98.22791 -4.89528L-98.22791 -5.16022L-98.62532 -5.16022L-98.62532 -4.89528ZM-96.41746 -3.39393Q-96.50577 -3.48224 -96.50577 -3.46017Q-96.50577 -3.43809 -96.6824 -3.5264Q-96.59409 -3.43809 -96.59409 -3.46017Q-96.59409 -3.48224 -96.41746 -3.39393ZM-97.25644 -5.16022Q-97.34476 -5.20438 -97.45515 -5.24854Q-97.56555 -5.29269 -97.65386 -5.33685Q-97.6097 -5.07191 -97.6097 -5.09399Q-97.6097 -5.11606 -97.25644 -5.02775ZM-98.62532 -11.16561L-98.62532 -11.29809Q-98.31622 -11.43056 -98.18375 -11.51887Q-98.05128 -11.60719 -97.96296 -11.96045L-98.22791 -11.96045L-98.75779 -11.16561ZM-91.64847 -7.89797Q-91.56015 -7.98629 -91.44976 -8.05252Q-91.33937 -8.11876 -91.25105 -8.20708Q-91.33937 -8.29539 -91.31729 -8.25123Q-91.29521 -8.20708 -91.38352 -8.33955L-92.22251 -8.33955Q-92.09004 -7.98629 -92.06796 -7.98629Q-92.04588 -7.98629 -91.64847 -7.89797ZM-89.4406 -7.89797Q-89.39645 -8.0746 -89.30813 -8.33955L-90.01465 -8.33955Q-90.19128 -8.25123 -90.38999 -8.27331Q-90.58869 -8.29539 -90.98611 -8.33955Q-90.98611 -7.98629 -90.4783 -7.98629Q-89.97049 -7.98629 -89.4406 -7.89797ZM-92.22251 -8.86943Q-91.60431 -9.04606 -90.76532 -8.93567Q-89.92633 -8.82528 -89.30813 -9.04606L-89.30813 -9.17854Q-89.79386 -9.17854 -90.38999 -9.20061Q-90.98611 -9.22269 -91.516 -9.31101Q-91.69263 -9.22269 -91.89133 -9.20061Q-92.09004 -9.17854 -92.35498 -9.17854L-92.35498 -9.04606L-92.22251 -9.04606ZM-91.64847 -9.8409Q-91.29521 -9.92921 -91.27313 -9.90713Q-91.25105 -9.88505 -91.11858 -10.15L-91.64847 -10.15ZM-89.88218 -10.01752L-90.27959 -10.28247Q-90.41206 -10.10584 -90.43414 -10.08376Q-90.45622 -10.06168 -90.54454 -9.8409L-90.27959 -9.8409Q-90.19128 -9.75258 -90.14712 -9.77466Q-90.10296 -9.79674 -89.88218 -9.70842ZM-89.04319 -9.70842L-89.04319 -10.01752Q-89.21982 -10.06168 -89.33021 -10.08376Q-89.4406 -10.10584 -89.70555 -10.15L-89.70555 -9.70842Z" fill="rgb(222, 198, 133)" transform="matrix(1 0 0 1 165.954527 24.948872)"/><path d="M-83.9651 13.78326Q-84.18589 13.25337 -84.34044 11.99489Q-84.49499 10.7364 -84.53914 9.32337Q-84.5833 7.91034 -84.56122 6.67393Q-84.53914 5.43753 -84.40667 5.04011L-84.40667 2.96472Q-84.2742 2.47899 -84.03133 1.86079Q-83.78847 1.24259 -83.70015 0.58023Q-83.61184 -0.08213 -83.94302 -0.6341Q-84.2742 -1.18606 -84.40667 -1.62764Q-84.53914 -2.06921 -84.47291 -2.42247Q-84.40667 -2.77573 -84.31836 -3.10691Q-84.23004 -3.43809 -84.14173 -3.76927Q-84.05341 -4.10045 -84.14173 -4.54202Q-84.31836 -5.55764 -84.36251 -6.97067Q-84.40667 -8.3837 -84.40667 -9.70842Q-84.40667 -10.54741 -84.47291 -12.0046Q-84.53914 -13.46179 -84.53914 -14.98522Q-84.53914 -16.50865 -84.42875 -17.78921Q-84.31836 -19.06977 -83.9651 -19.5555Q-83.70015 -19.8646 -83.28066 -19.88668Q-82.86117 -19.90876 -82.39751 -19.8646Q-81.93386 -19.82044 -81.47021 -19.82044Q-81.00656 -19.82044 -80.6533 -20.08539Q-78.79869 -19.90876 -76.94409 -19.97499Q-75.08948 -20.04123 -73.27903 -19.68797Q-72.88162 -19.59966 -72.57252 -19.68797Q-72.26342 -19.77629 -71.99847 -19.88668Q-71.73353 -19.99707 -71.49066 -20.06331Q-71.2478 -20.12955 -70.9387 -20.08539Q-70.6296 -20.04123 -70.27634 -19.88668Q-69.92308 -19.73213 -69.52566 -19.68797Q-69.26072 -18.9373 -69.21656 -18.03207Q-69.1724 -17.12685 -69.23864 -16.22162Q-69.30488 -15.3164 -69.50358 -14.49949Q-69.70229 -13.68258 -69.96724 -13.15269Q-70.49712 -13.06438 -71.46858 -13.08646Q-72.44004 -13.10853 -73.47774 -13.13061Q-74.51544 -13.15269 -75.39858 -13.08646Q-76.28173 -13.02022 -76.63499 -12.75528Q-76.94409 -12.6228 -77.01032 -12.57865Q-77.07656 -12.53449 -77.16487 -12.18123Q-77.16487 -12.18123 -77.1428 -11.65134Q-77.12072 -11.12146 -77.07656 -10.48118Q-77.0324 -9.8409 -76.98825 -9.31101Q-76.94409 -8.78112 -76.89993 -8.73696Q-76.81162 -8.56033 -76.63499 -8.29539Q-76.23757 -8.29539 -75.33235 -8.33955Q-74.42712 -8.3837 -73.4115 -8.3837Q-72.39589 -8.3837 -71.53482 -8.31747Q-70.67375 -8.25123 -70.36465 -8.03045Q-69.92308 -7.85382 -69.65813 -7.05899Q-69.39319 -6.26415 -69.30488 -5.31477Q-69.21656 -4.36539 -69.30488 -3.50432Q-69.39319 -2.64326 -69.65813 -2.33415Q-69.87892 -2.02505 -70.69583 -1.89258Q-71.51274 -1.76011 -72.50628 -1.73803Q-73.49982 -1.71595 -74.49336 -1.73803Q-75.4869 -1.76011 -76.06094 -1.76011Q-76.19341 -1.6718 -76.32589 -1.5614Q-76.45836 -1.45101 -76.63499 -1.36269Q-76.7233 -0.08213 -76.74538 1.46337Q-76.76746 3.00888 -76.76746 4.46607Q-76.76746 5.04011 -76.87785 5.61416Q-76.98825 6.1882 -76.76746 6.54146L-76.63499 6.98303Q-76.23757 7.07135 -75.35443 7.07135Q-74.47128 7.07135 -73.56606 7.02719Q-72.66083 6.98303 -71.91016 6.89472Q-71.15948 6.80641 -70.9387 6.67393L-69.83476 6.67393Q-69.39319 6.89472 -69.21656 7.79994Q-69.03993 8.70517 -69.01785 9.8091Q-68.99578 10.91303 -69.15033 11.92865Q-69.30488 12.94427 -69.52566 13.34169Q-70.05555 13.47416 -70.69583 13.47416Q-71.33611 13.47416 -71.99847 13.47416Q-72.66083 13.47416 -73.34527 13.49624Q-74.02971 13.51831 -74.69207 13.65079Q-75.53105 13.82742 -76.76746 13.91573Q-78.00386 14.00404 -79.3065 14.00404Q-80.60914 14.00404 -81.84555 13.93781Q-83.08195 13.87157 -83.9651 13.78326ZM-81.62476 4.59854L-81.62476 4.06865L-81.88971 4.06865L-81.88971 4.59854ZM-80.07926 2.52315L-80.38836 2.52315Q-80.25589 2.61146 -80.27796 2.58938Q-80.30004 2.56731 -80.07926 2.65562ZM-81.35982 -0.25876Q-81.2715 -0.43539 -81.18319 -0.52371L-81.49229 -0.52371Q-81.5806 -0.43539 -81.5806 -0.45747Q-81.5806 -0.47955 -81.75723 -0.39123L-81.75723 -0.12629ZM-81.75723 -4.85112Q-81.84555 -5.07191 -81.91178 -5.16022Q-81.97802 -5.24854 -82.15465 -5.38101Q-82.06633 -5.20438 -82.08841 -5.20438Q-82.11049 -5.20438 -82.02218 -5.11606L-82.02218 -4.85112ZM-81.05072 -7.7655Q-81.22735 -8.33955 -81.60268 -8.91359Q-81.97802 -9.48764 -82.59622 -9.70842Q-82.55207 -8.60449 -81.88971 -8.03045Q-81.80139 -7.94213 -81.691 -7.89797Q-81.5806 -7.85382 -81.49229 -7.7655ZM-80.38836 -6.08752Q-80.0351 -6.22 -79.85847 -6.39663Q-79.68184 -6.57326 -79.4169 -6.79404Q-79.32858 -7.05899 -79.3065 -7.1473Q-79.28443 -7.23561 -79.4169 -7.4564Q-79.50521 -7.10314 -79.77016 -6.8382Q-80.0351 -6.57326 -80.38836 -6.35247ZM-81.18319 -11.78382Q-81.2715 -12.26955 -81.47021 -12.46825Q-81.66892 -12.66696 -81.88971 -13.02022L-82.15465 -13.02022Q-82.15465 -12.53449 -82.02218 -12.33578Q-81.88971 -12.13707 -81.62476 -11.91629Q-81.53645 -11.82797 -81.47021 -11.82797Q-81.40398 -11.82797 -81.18319 -11.78382ZM-75.53105 -6.35247Q-75.39858 -6.5291 -75.50898 -6.55118Q-75.61937 -6.57326 -75.66353 -6.61741Q-75.88431 -6.61741 -75.75184 -6.5291Q-75.61937 -6.44078 -75.53105 -6.35247ZM-80.21173 -9.97337L-80.21173 -10.10584Q-79.68184 -10.32663 -79.50521 -10.70196Q-79.32858 -11.0773 -78.97532 -11.47471Q-79.1078 -11.73966 -79.06364 -11.6955Q-79.01948 -11.65134 -79.24027 -11.78382Q-79.54937 -11.43056 -79.79223 -11.01106Q-80.0351 -10.59157 -80.38836 -10.23831L-80.38836 -9.97337ZM-80.78577 -15.40471Q-81.2715 -16.42033 -82.15465 -17.03853Q-82.06633 -16.50865 -81.88971 -16.22162Q-81.71308 -15.9346 -81.49229 -15.53719Q-81.2715 -15.44887 -81.29358 -15.47095Q-81.31566 -15.49303 -81.18319 -15.40471ZM-80.52083 -13.72674Q-79.85847 -13.94752 -79.57145 -14.45533Q-79.28443 -14.96314 -78.84285 -15.40471L-78.84285 -15.9346L-79.1078 -15.9346Q-79.37274 -15.44887 -79.726 -14.87483Q-80.07926 -14.30078 -80.52083 -13.99168ZM-76.50252 -15.22809Q-76.59083 -15.84629 -76.98825 -16.28786Q-77.38566 -16.72943 -77.87139 -16.90606Q-77.73892 -16.46449 -77.56229 -16.17747Q-77.38566 -15.89044 -77.16487 -15.53719Q-76.94409 -15.44887 -76.85577 -15.40471Q-76.76746 -15.36056 -76.63499 -15.22809ZM-75.53105 -14.56573Q-75.39858 -14.47741 -75.19988 -14.63196Q-75.00117 -14.78651 -74.84662 -15.02938Q-74.69207 -15.27224 -74.62583 -15.53719Q-74.55959 -15.80213 -74.69207 -15.9346Q-75.00117 -15.3164 -75.53105 -14.96314Q-75.53105 -14.65404 -75.57521 -14.6982Q-75.61937 -14.74235 -75.53105 -14.56573ZM-76.06094 -17.61258Q-75.70768 -17.83337 -75.53105 -18.14247L-75.35443 -18.14247Q-75.31027 -18.36325 -75.3765 -18.36325Q-75.44274 -18.36325 -75.53105 -18.45157Q-75.61937 -18.3191 -75.77392 -18.2087Q-75.92847 -18.09831 -76.06094 -18.00999ZM-72.1751 -15.40471L-72.1751 -15.66966Q-72.44004 -15.75797 -72.61667 -15.80213Q-72.52836 -15.6255 -72.52836 -15.6255Q-72.52836 -15.6255 -72.44004 -15.53719L-72.44004 -15.40471ZM-73.4115 -16.77359Q-73.49982 -16.95022 -73.49982 -16.95022Q-73.49982 -16.95022 -73.58813 -17.03853L-73.58813 -16.77359ZM-71.77768 -17.61258Q-71.51274 -17.70089 -71.46858 -17.78921Q-71.42443 -17.87752 -71.20364 -18.00999Q-71.29195 -18.09831 -71.33611 -18.09831Q-71.38027 -18.09831 -71.60106 -18.14247Q-71.68937 -18.00999 -71.71145 -17.92168Q-71.73353 -17.83337 -71.77768 -17.61258Z" fill="rgb(222, 198, 133)" transform="matrix(1 0 0 1 165.954527 24.948872)"/><path d="" fill="rgb(222, 198, 133)" transform="matrix(1 0 0 1 165.954527 24.948872)"/><path d="M-47.44701 14.22483Q-48.15353 14.22483 -48.44055 14.11444Q-48.72758 14.00404 -49.08083 13.78326Q-49.08083 13.20921 -49.14707 12.43646Q-49.21331 11.66371 -49.25746 10.8468Q-49.30162 10.02989 -49.25746 9.23506Q-49.21331 8.44023 -48.99252 7.82202Q-48.90421 7.55708 -48.88213 7.35837Q-48.86005 7.15966 -48.88213 6.93888Q-48.90421 6.71809 -48.99252 6.40899Q-49.08083 6.09989 -49.25746 5.57Q-49.34578 5.30506 -49.3237 4.66478Q-49.30162 4.0245 -49.38994 3.80371Q-49.52241 3.31798 -49.50033 2.76601Q-49.47825 2.21405 -49.41201 1.66208Q-49.34578 1.11011 -49.36786 0.62438Q-49.38994 0.13865 -49.65488 -0.2146Q-49.83151 -0.70033 -50.14061 -0.92112Q-50.44971 -1.14191 -50.75881 -1.49517Q-51.24454 -1.45101 -51.42117 -1.40685Q-51.5978 -1.36269 -51.86274 -1.18606Q-51.5978 1.11011 -51.73027 3.42837Q-51.86274 5.74663 -51.86274 8.52854Q-51.86274 8.92596 -51.81859 9.54416Q-51.77443 10.16236 -51.75235 10.78056Q-51.73027 11.39876 -51.77443 11.95073Q-51.81859 12.5027 -51.99522 12.8118Q-52.03937 13.43 -52.19392 13.58455Q-52.34847 13.7391 -52.56926 14.09236Q-53.01083 14.09236 -53.98229 14.13652Q-54.95376 14.18067 -55.99145 14.18067Q-57.02915 14.18067 -57.93437 14.13652Q-58.8396 14.09236 -59.10454 13.91573L-59.36948 13.91573Q-59.4578 13.38584 -59.39156 12.92219Q-59.32533 12.45854 -59.23701 11.97281Q-59.1487 11.61955 -59.25909 11.44292Q-59.36948 11.26629 -59.36948 11.00135Q-59.41364 10.4273 -59.32533 9.63247Q-59.23701 8.83764 -59.23701 8.08697L-59.23701 6.45315Q-59.4578 5.79079 -59.54611 4.75309Q-59.63443 3.71539 -59.63443 2.63354Q-59.63443 1.55169 -59.54611 0.51399Q-59.4578 -0.52371 -59.23701 -1.18606Q-59.01623 -1.93674 -59.21493 -2.81988Q-59.41364 -3.70303 -59.50196 -4.10045L-59.50196 -10.10584Q-59.50196 -10.90067 -59.56819 -12.24747Q-59.63443 -13.59427 -59.63443 -15.0073Q-59.63443 -16.42033 -59.52404 -17.61258Q-59.41364 -18.80483 -59.10454 -19.2464L-59.10454 -19.51134Q-58.88375 -19.59966 -58.64089 -19.64381Q-58.39802 -19.68797 -58.26555 -19.82044Q-57.55904 -19.59966 -56.58757 -19.82044Q-55.61611 -20.04123 -54.64465 -19.82044Q-54.37971 -19.73213 -54.00437 -19.57758Q-53.62904 -19.42303 -53.14331 -19.51134Q-52.79005 -19.59966 -52.14977 -19.79837Q-51.50949 -19.99707 -50.89128 -19.82044Q-49.83151 -19.51134 -48.86005 -19.42303Q-47.88859 -19.33471 -46.98336 -19.2464Q-46.07814 -19.15808 -45.23915 -18.9373Q-44.40016 -18.71651 -43.56117 -18.14247Q-43.07544 -17.78921 -42.63387 -17.10477Q-42.1923 -16.42033 -42.01567 -15.80213Q-41.79488 -15.05146 -41.90527 -14.36702Q-42.01567 -13.68258 -41.75072 -13.15269Q-41.39747 -12.44618 -41.17668 -11.85005Q-40.95589 -11.25393 -40.88966 -10.63573Q-40.82342 -10.01752 -40.93381 -9.33309Q-41.04421 -8.64865 -41.30915 -7.72134L-41.30915 -6.48494Q-41.48578 -5.9109 -41.83904 -5.53556Q-42.1923 -5.16022 -42.56763 -4.82904Q-42.94297 -4.49786 -43.29623 -4.1446Q-43.64949 -3.79135 -43.82612 -3.30562Q-43.91443 -3.17314 -43.89235 -3.19522Q-43.87027 -3.2173 -43.95859 -2.99651Q-43.4287 -2.51078 -42.85466 -1.80427Q-42.28061 -1.09775 -42.01567 -0.34708Q-41.61825 0.66854 -41.41954 2.16989Q-41.22084 3.67124 -41.1546 5.32714Q-41.08836 6.98303 -41.22084 8.61685Q-41.35331 10.25067 -41.61825 11.44292Q-41.79488 12.32607 -41.72864 12.92219Q-41.66241 13.51831 -42.01567 14.09236Q-42.32477 14.09236 -43.09752 14.0482Q-43.87027 14.00404 -44.75342 13.98197Q-45.63657 13.95989 -46.40932 14.00404Q-47.18207 14.0482 -47.44701 14.22483ZM-57.16162 7.9545L-57.16162 7.82202L-57.02915 7.82202L-57.02915 7.68955L-57.42656 7.55708Q-57.33825 7.73371 -57.36033 7.73371Q-57.38241 7.73371 -57.29409 7.82202L-57.29409 7.9545ZM-56.19016 8.08697Q-55.57196 7.99865 -55.30701 7.8441Q-55.04207 7.68955 -54.37971 7.68955L-54.37971 7.55708Q-54.73297 7.42461 -55.2187 7.42461Q-55.43949 7.55708 -55.8369 7.55708Q-56.23432 7.55708 -56.58757 7.55708ZM-53.40825 7.55708L-53.67319 7.55708Q-53.58488 7.64539 -53.58488 7.62332Q-53.58488 7.60124 -53.40825 7.68955ZM-57.42656 3.80371Q-57.20578 3.75955 -57.16162 3.75955Q-57.11746 3.75955 -57.02915 3.67124L-56.72005 3.67124Q-56.80836 3.45045 -56.80836 3.47253Q-56.80836 3.49461 -56.89668 3.36214Q-56.98499 3.27382 -57.05123 3.31798Q-57.11746 3.36214 -57.42656 3.36214ZM-54.64465 5.04011Q-54.82128 4.9518 -54.88752 4.9518Q-54.95376 4.9518 -55.2187 4.90764Q-55.35117 5.34921 -55.26286 5.34921Q-55.17454 5.34921 -54.64465 5.30506ZM-55.08623 3.67124L-55.08623 3.53877L-56.32263 3.22966Q-56.36679 3.31798 -56.38887 3.45045Q-56.41095 3.58292 -56.4551 3.67124ZM-54.24724 5.30506Q-54.07061 5.2609 -53.89398 5.23882Q-53.71735 5.21674 -53.54072 5.17259L-53.54072 5.04011Q-53.71735 4.99596 -53.89398 4.97388Q-54.07061 4.9518 -54.24724 4.90764ZM-55.48364 2.39068L-55.74859 2.39068Q-55.74859 2.69978 -55.77066 2.65562Q-55.79274 2.61146 -55.48364 2.69978ZM-53.40825 3.53877Q-53.49656 3.31798 -53.47449 3.31798Q-53.45241 3.31798 -53.54072 3.22966L-53.54072 3.53877ZM-54.77713 1.86079Q-54.33555 1.81663 -54.24724 1.72832L-54.11477 1.72832L-54.11477 1.59584L-54.77713 1.59584ZM-57.16162 -2.15753L-57.16162 -2.33415Q-56.94083 -2.55494 -56.94083 -2.53286Q-56.94083 -2.51078 -57.02915 -2.73157Q-57.16162 -2.55494 -57.1837 -2.55494Q-57.20578 -2.55494 -57.42656 -2.46663L-57.42656 -2.33415L-57.29409 -2.33415L-57.29409 -2.15753ZM-54.77713 -0.78865L-54.9096 -1.18606Q-55.17454 -1.05359 -55.15246 -1.09775Q-55.13038 -1.14191 -55.2187 -0.78865ZM-44.356 7.68955L-44.356 7.42461L-45.06252 7.42461L-45.06252 7.68955ZM-43.69364 7.68955Q-43.82612 7.42461 -43.80404 7.46877Q-43.78196 7.51292 -44.09106 7.42461L-44.09106 7.68955ZM-56.4551 -5.77842L-56.72005 -5.77842Q-56.63173 -5.69011 -56.65381 -5.71219Q-56.67589 -5.73427 -56.4551 -5.64595ZM-47.31454 3.36214Q-47.40286 3.18551 -47.38078 3.18551Q-47.3587 3.18551 -47.44701 3.09719L-47.44701 3.36214ZM-46.16645 5.30506Q-45.68072 5.30506 -45.50409 5.17259L-44.356 5.17259L-44.356 4.90764L-46.03398 4.90764ZM-45.76904 3.67124Q-45.98982 3.22966 -46.60803 3.09719Q-46.51971 3.31798 -46.40932 3.38422Q-46.29892 3.45045 -46.16645 3.67124ZM-45.06252 3.36214Q-45.23915 3.14135 -45.19499 3.16343Q-45.15084 3.18551 -45.50409 3.09719Q-45.45994 3.36214 -45.43786 3.34006Q-45.41578 3.31798 -45.06252 3.36214ZM-52.70173 -4.10045Q-52.5251 -4.18876 -52.30432 -4.40955L-51.99522 -4.40955Q-52.17185 -4.63033 -52.12769 -4.60826Q-52.08353 -4.58618 -52.43679 -4.67449Q-52.5251 -4.4537 -52.56926 -4.40955Q-52.61342 -4.36539 -52.70173 -4.10045ZM-44.09106 3.36214Q-44.22353 3.14135 -44.26769 3.11927Q-44.31185 3.09719 -44.53263 2.96472L-44.66511 3.36214ZM-43.95859 3.53877Q-43.78196 3.45045 -43.78196 3.45045Q-43.78196 3.45045 -43.69364 3.36214L-43.56117 3.36214Q-43.47286 3.14135 -43.53909 3.16343Q-43.60533 3.18551 -43.69364 3.09719Q-43.78196 3.18551 -43.78196 3.16343Q-43.78196 3.14135 -43.95859 3.22966ZM-49.08083 -2.73157Q-48.72758 -2.51078 -48.286 -2.86404Q-48.06522 -2.95236 -48.06522 -2.93028Q-48.06522 -2.9082 -47.9769 -2.99651Q-48.15353 -3.08483 -48.286 -3.10691Q-48.41848 -3.12899 -48.68342 -3.12899Q-48.81589 -2.81988 -48.79381 -2.81988Q-48.77173 -2.81988 -49.08083 -2.73157ZM-45.50409 -2.5991L-45.50409 -2.86404L-45.76904 -2.86404L-45.76904 -2.5991ZM-46.03398 -3.8355L-46.03398 -3.96797L-45.76904 -4.10045L-45.76904 -4.54202Q-46.1223 -4.4537 -46.07814 -4.49786Q-46.03398 -4.54202 -46.16645 -4.27708L-46.34308 -4.27708Q-46.38724 -4.05629 -46.321 -4.05629Q-46.25477 -4.05629 -46.16645 -3.96797L-46.16645 -3.8355ZM-47.13791 -6.22Q-47.22623 -6.39663 -47.22623 -6.39663Q-47.22623 -6.39663 -47.31454 -6.48494L-47.31454 -6.22ZM-46.16645 -6.61741L-46.47555 -6.61741Q-46.34308 -6.5291 -46.36516 -6.55118Q-46.38724 -6.57326 -46.16645 -6.48494ZM-50.3614 -7.72134Q-49.74319 -7.80966 -49.23539 -8.27331Q-48.72758 -8.73696 -48.55095 -9.26685Q-48.24185 -9.70842 -48.19769 -10.21623Q-48.15353 -10.72404 -48.26392 -11.25393Q-48.37432 -11.78382 -48.57303 -12.24747Q-48.77173 -12.71112 -48.94836 -13.02022Q-49.47825 -13.63842 -50.33932 -13.94752Q-51.20038 -14.25662 -51.95106 -13.85921Q-52.08353 -13.63842 -52.17185 -12.84359Q-52.26016 -12.04876 -52.26016 -11.09938Q-52.26016 -10.15 -52.17185 -9.31101Q-52.08353 -8.47202 -51.86274 -8.16292Q-51.73027 -7.67719 -51.24454 -7.52264Q-50.75881 -7.36809 -50.3614 -7.72134Z" fill="rgb(222, 198, 133)" transform="matrix(1 0 0 1 165.954527 24.948872)"/><path d="M-39.05713 13.91573Q-39.23376 13.87157 -39.4987 13.78326Q-39.71949 12.8118 -39.85196 11.24421Q-39.98443 9.67663 -40.02859 7.97657Q-40.07275 6.27652 -39.98443 4.6427Q-39.89612 3.00888 -39.63117 1.86079Q-39.41039 1.06596 -39.65325 0.51399Q-39.89612 -0.03798 -39.89612 -0.78865Q-39.94027 -2.77573 -39.89612 -4.91736Q-39.85196 -7.05899 -39.63117 -8.69281Q-39.58702 -9.00191 -39.71949 -9.50972Q-39.85196 -10.01752 -39.89612 -10.23831Q-40.07275 -10.94483 -40.09482 -12.3137Q-40.1169 -13.68258 -40.02859 -15.13977Q-39.94027 -16.59696 -39.76365 -17.81129Q-39.58702 -19.02561 -39.36623 -19.42303Q-38.74803 -19.51134 -38.30645 -19.48926Q-37.86488 -19.46719 -37.42331 -19.82044Q-35.96612 -19.82044 -34.97258 -19.62174Q-33.97904 -19.42303 -32.69848 -19.2464Q-32.08028 -17.39179 -32.16859 -15.20601Q-32.2569 -13.02022 -32.2569 -10.63573L-32.2569 -2.5991Q-32.34522 -2.33415 -32.45561 -1.84842Q-32.56601 -1.36269 -32.63224 -0.81073Q-32.69848 -0.25876 -32.69848 0.2932Q-32.69848 0.84517 -32.56601 1.28674Q-32.34522 1.90495 -32.30106 2.81017Q-32.2569 3.71539 -32.2569 4.59854L-32.2569 10.86888Q-32.2569 11.39876 -32.12443 12.0832Q-31.99196 12.76764 -32.2569 13.20921Q-32.38938 13.60663 -33.38292 13.84949Q-34.37646 14.09236 -35.52454 14.18067Q-36.67263 14.26899 -37.73241 14.20275Q-38.79218 14.13652 -39.05713 13.91573ZM-35.74533 2.47899Q-35.39207 2.56731 -35.30376 2.43483Q-35.21544 2.30236 -35.12713 2.2582L-34.90634 2.2582Q-34.99466 2.08157 -35.01674 2.01534Q-35.03881 1.9491 -35.03881 1.9491Q-35.03881 1.9491 -35.10505 1.9491Q-35.17129 1.9491 -35.34792 1.81663ZM-35.96612 -1.14191Q-36.05443 -1.40685 -36.05443 -1.40685Q-36.05443 -1.40685 -36.1869 -1.58348L-36.1869 -1.14191ZM-34.68556 -2.20168Q-34.28814 -1.9809 -34.00112 -2.31208Q-33.7141 -2.64326 -34.06735 -3.04067Q-34.24398 -2.81988 -34.46477 -2.68741Q-34.68556 -2.55494 -34.90634 -2.42247Q-34.77387 -2.24584 -34.81803 -2.29Q-34.86219 -2.33415 -34.68556 -2.20168Z" fill="rgb(222, 198, 133)" transform="matrix(1 0 0 1 165.954527 24.948872)"/><path d="M-25.19174 13.78326Q-25.67747 13.78326 -26.38398 13.82742Q-27.0905 13.87157 -27.75286 13.84949Q-28.41522 13.82742 -28.98926 13.71702Q-29.56331 13.60663 -29.7841 13.34169Q-30.18151 12.8118 -30.0932 11.92865Q-30.00488 11.04551 -30.18151 10.29483Q-30.53477 8.8818 -30.57893 7.09343Q-30.62308 5.30506 -30.62308 3.49461Q-30.62308 1.81663 -30.68932 -0.08213Q-30.75556 -1.9809 -30.77764 -3.8355Q-30.79971 -5.69011 -30.7114 -7.36809Q-30.62308 -9.04606 -30.31398 -10.23831Q-30.13735 -10.98898 -30.31398 -11.85005Q-30.49061 -12.71112 -30.62308 -13.15269Q-30.79971 -13.77089 -30.60101 -14.34494Q-30.4023 -14.91898 -30.31398 -15.27224Q-30.22567 -15.66966 -30.31398 -16.02292Q-30.4023 -16.37617 -30.51269 -16.72943Q-30.62308 -17.08269 -30.68932 -17.45803Q-30.75556 -17.83337 -30.62308 -18.3191Q-30.53477 -18.67235 -30.33606 -19.2464Q-30.13735 -19.82044 -30.04904 -20.26202Q-29.60747 -20.39449 -29.01134 -20.43865Q-28.41522 -20.4828 -27.75286 -20.4828Q-27.0905 -20.4828 -26.42814 -20.43865Q-25.76578 -20.39449 -25.19174 -20.39449Q-25.10342 -20.4828 -25.05927 -20.52696Q-25.01511 -20.57112 -24.92679 -20.65943Q-24.08781 -20.65943 -23.24882 -20.61528Q-22.40983 -20.57112 -21.87994 -20.39449Q-21.35005 -20.26202 -20.90848 -20.2841Q-20.46691 -20.30617 -20.04741 -20.39449Q-19.62792 -20.4828 -19.18635 -20.50488Q-18.74477 -20.52696 -18.25904 -20.39449Q-17.42005 -20.12955 -16.53691 -19.64381Q-15.65376 -19.15808 -14.88101 -18.49573Q-14.10826 -17.83337 -13.53421 -17.03853Q-12.96017 -16.2437 -12.69522 -15.40471Q-12.51859 -14.87483 -12.58483 -14.43325Q-12.65107 -13.99168 -12.73938 -13.57219Q-12.82769 -13.15269 -12.89393 -12.71112Q-12.96017 -12.26955 -12.82769 -11.78382Q-12.65107 -11.12146 -12.43028 -10.63573Q-12.20949 -10.15 -12.03286 -9.66427Q-11.85623 -9.17854 -11.85623 -8.53825Q-11.85623 -7.89797 -12.12118 -6.92651L-12.12118 -1.36269Q-12.16534 -0.34708 -12.29781 0.4036Q-12.43028 1.15427 -12.43028 2.2582Q-12.43028 2.69978 -12.31989 3.18551Q-12.20949 3.67124 -12.12118 4.17905Q-12.03286 4.68686 -12.01078 5.21674Q-11.98871 5.74663 -12.12118 6.27652Q-12.47444 7.33629 -12.78354 8.19736Q-13.09264 9.05843 -13.51213 9.76494Q-13.93163 10.47146 -14.50567 11.06758Q-15.07972 11.66371 -15.87455 12.23775Q-16.13949 12.41438 -16.66938 12.7014Q-17.19927 12.98843 -17.55253 12.94427Q-17.72915 12.90011 -17.94994 12.7014Q-18.17073 12.5027 -18.52399 12.67933Q-18.6123 12.72348 -18.81101 12.94427Q-19.00972 13.16506 -19.09803 13.20921L-19.93702 13.20921Q-20.11365 13.29753 -20.40067 13.49624Q-20.68769 13.69494 -20.90848 13.78326Q-21.52668 13.95989 -22.14488 13.76118Q-22.76309 13.56247 -23.11634 13.47416Q-23.64623 13.56247 -24.15404 13.62871Q-24.66185 13.69494 -25.19174 13.78326ZM-27.97365 -9.8409L-27.97365 -10.10584L-28.10612 -10.10584L-28.10612 -9.8409ZM-22.5423 6.40899Q-22.32151 6.58562 -21.9241 6.56354Q-21.52668 6.54146 -21.3059 6.40899Q-20.06949 6.01157 -19.67208 4.39983Q-19.27466 2.78809 -19.29674 0.69062Q-19.31882 -1.40685 -19.5396 -3.59264Q-19.76039 -5.77842 -19.76039 -7.32393Q-19.76039 -8.0746 -19.71623 -8.93567Q-19.67208 -9.79674 -19.71623 -10.63573Q-19.76039 -11.47471 -19.89286 -12.18123Q-20.02533 -12.88775 -20.33443 -13.32932Q-21.21758 -14.21247 -22.98387 -14.30078Q-23.07219 -14.12415 -23.11634 -14.10207Q-23.1605 -14.08 -23.24882 -13.85921Q-23.4696 -13.63842 -23.44752 -13.02022Q-23.42545 -12.40202 -23.31505 -11.67342Q-23.20466 -10.94483 -23.09427 -10.21623Q-22.98387 -9.48764 -22.98387 -9.00191L-22.98387 1.81663Q-22.98387 2.96472 -23.07219 4.17905Q-23.1605 5.39337 -22.98387 6.27652Q-22.89556 6.32068 -22.76309 6.34275Q-22.63061 6.36483 -22.5423 6.40899ZM-27.26713 -13.02022Q-27.66455 -13.37348 -27.8191 -13.79297Q-27.97365 -14.21247 -28.54769 -14.43325Q-28.59185 -14.08 -28.45938 -13.61634Q-28.32691 -13.15269 -27.97365 -12.88775Q-27.7087 -12.66696 -27.26713 -12.6228ZM-26.42814 -10.94483Q-26.20736 -11.20977 -25.96449 -11.49679Q-25.72162 -11.78382 -25.45668 -12.04876Q-25.545 -12.26955 -25.545 -12.24747Q-25.545 -12.22539 -25.63331 -12.35786Q-25.8541 -11.96045 -26.1632 -11.73966Q-26.4723 -11.51887 -26.60477 -10.94483ZM-27.3996 -17.21516Q-27.66455 -17.39179 -27.77494 -17.56842Q-27.88533 -17.74505 -28.23859 -17.87752Q-28.32691 -17.70089 -28.37106 -17.34764Q-28.10612 -17.12685 -27.92949 -16.95022Q-27.75286 -16.77359 -27.3996 -16.64112ZM-26.29567 -14.96314L-26.29567 -15.09561Q-25.80994 -15.3164 -25.50084 -15.78005Q-25.19174 -16.2437 -25.05927 -16.77359L-25.45668 -16.77359Q-25.72162 -16.28786 -26.03073 -15.86837Q-26.33983 -15.44887 -26.60477 -14.96314ZM-22.8514 -16.90606Q-23.20466 -17.12685 -23.4696 -17.52426Q-23.73455 -17.92168 -23.95533 -18.3191L-24.22028 -18.3191L-24.22028 -18.00999Q-24.04365 -17.78921 -23.93325 -17.54634Q-23.82286 -17.30348 -23.71247 -17.10477Q-23.60207 -16.90606 -23.40337 -16.72943Q-23.20466 -16.5528 -22.8514 -16.50865ZM-17.55253 -11.0773L-17.55253 -11.20977Q-17.33174 -11.34224 -17.22135 -11.45264Q-17.11095 -11.56303 -17.02264 -11.78382Q-16.53691 -12.26955 -16.84601 -12.75528Q-16.93432 -12.6228 -17.08887 -12.37994Q-17.24342 -12.13707 -17.39797 -11.89421Q-17.55253 -11.65134 -17.64084 -11.45264Q-17.72915 -11.25393 -17.685 -11.20977L-17.685 -11.0773ZM-21.04095 -15.9346Q-20.95264 -16.2437 -20.8864 -16.30994Q-20.82017 -16.37617 -20.73185 -16.64112L-21.04095 -16.64112Q-21.26174 -16.28786 -21.37213 -16.22162Q-21.48252 -16.15539 -21.04095 -15.9346ZM-18.52399 -16.37617Q-18.43567 -16.33202 -18.45775 -16.30994Q-18.47983 -16.28786 -18.39151 -16.37617L-18.25904 -16.37617L-18.25904 -16.50865Q-18.6123 -16.72943 -18.85517 -17.06061Q-19.09803 -17.39179 -19.49545 -17.61258L-19.49545 -17.21516Q-19.18635 -16.99438 -19.05387 -16.75151Q-18.9214 -16.50865 -18.52399 -16.37617ZM-17.685 -14.83067Q-17.3759 -15.3164 -17.08887 -15.53719Q-16.80185 -15.75797 -16.71354 -16.50865L-17.02264 -16.50865Q-17.19927 -15.97876 -17.50837 -15.71382Q-17.81747 -15.44887 -17.9941 -14.83067ZM-19.49545 -18.00999Q-19.58376 -18.09831 -19.58376 -18.09831Q-19.58376 -18.09831 -19.76039 -18.18662Q-19.67208 -18.09831 -19.69415 -18.09831Q-19.71623 -18.09831 -19.49545 -18.00999Z" fill="rgb(222, 198, 133)" transform="matrix(1 0 0 1 165.954527 24.948872)"/><path d="M-9.825 13.78326Q-10.04578 13.25337 -10.20034 11.99489Q-10.35489 10.7364 -10.39904 9.32337Q-10.4432 7.91034 -10.42112 6.67393Q-10.39904 5.43753 -10.26657 5.04011L-10.26657 2.96472Q-10.1341 2.47899 -9.89123 1.86079Q-9.64837 1.24259 -9.56005 0.58023Q-9.47174 -0.08213 -9.80292 -0.6341Q-10.1341 -1.18606 -10.26657 -1.62764Q-10.39904 -2.06921 -10.33281 -2.42247Q-10.26657 -2.77573 -10.17826 -3.10691Q-10.08994 -3.43809 -10.00163 -3.76927Q-9.91331 -4.10045 -10.00163 -4.54202Q-10.17826 -5.55764 -10.22241 -6.97067Q-10.26657 -8.3837 -10.26657 -9.70842Q-10.26657 -10.54741 -10.33281 -12.0046Q-10.39904 -13.46179 -10.39904 -14.98522Q-10.39904 -16.50865 -10.28865 -17.78921Q-10.17826 -19.06977 -9.825 -19.5555Q-9.56005 -19.8646 -9.14056 -19.88668Q-8.72107 -19.90876 -8.25741 -19.8646Q-7.79376 -19.82044 -7.33011 -19.82044Q-6.86646 -19.82044 -6.5132 -20.08539Q-4.65859 -19.90876 -2.80399 -19.97499Q-0.94938 -20.04123 0.86107 -19.68797Q1.25848 -19.59966 1.56758 -19.68797Q1.87669 -19.77629 2.14163 -19.88668Q2.40657 -19.99707 2.64944 -20.06331Q2.8923 -20.12955 3.2014 -20.08539Q3.51051 -20.04123 3.86376 -19.88668Q4.21702 -19.73213 4.61444 -19.68797Q4.87938 -18.9373 4.92354 -18.03207Q4.9677 -17.12685 4.90146 -16.22162Q4.83522 -15.3164 4.63652 -14.49949Q4.43781 -13.68258 4.17286 -13.15269Q3.64298 -13.06438 2.67152 -13.08646Q1.70006 -13.10853 0.66236 -13.13061Q-0.37534 -13.15269 -1.25848 -13.08646Q-2.14163 -13.02022 -2.49489 -12.75528Q-2.80399 -12.6228 -2.87022 -12.57865Q-2.93646 -12.53449 -3.02477 -12.18123Q-3.02477 -12.18123 -3.0027 -11.65134Q-2.98062 -11.12146 -2.93646 -10.48118Q-2.8923 -9.8409 -2.84815 -9.31101Q-2.80399 -8.78112 -2.75983 -8.73696Q-2.67152 -8.56033 -2.49489 -8.29539Q-2.09747 -8.29539 -1.19225 -8.33955Q-0.28702 -8.3837 0.7286 -8.3837Q1.74421 -8.3837 2.60528 -8.31747Q3.46635 -8.25123 3.77545 -8.03045Q4.21702 -7.85382 4.48197 -7.05899Q4.74691 -6.26415 4.83522 -5.31477Q4.92354 -4.36539 4.83522 -3.50432Q4.74691 -2.64326 4.48197 -2.33415Q4.26118 -2.02505 3.44427 -1.89258Q2.62736 -1.76011 1.63382 -1.73803Q0.64028 -1.71595 -0.35326 -1.73803Q-1.3468 -1.76011 -1.92084 -1.76011Q-2.05331 -1.6718 -2.18579 -1.5614Q-2.31826 -1.45101 -2.49489 -1.36269Q-2.5832 -0.08213 -2.60528 1.46337Q-2.62736 3.00888 -2.62736 4.46607Q-2.62736 5.04011 -2.73775 5.61416Q-2.84815 6.1882 -2.62736 6.54146L-2.49489 6.98303Q-2.09747 7.07135 -1.21433 7.07135Q-0.33118 7.07135 0.57404 7.02719Q1.47927 6.98303 2.22994 6.89472Q2.98062 6.80641 3.2014 6.67393L4.30534 6.67393Q4.74691 6.89472 4.92354 7.79994Q5.10017 8.70517 5.12225 9.8091Q5.14432 10.91303 4.98977 11.92865Q4.83522 12.94427 4.61444 13.34169Q4.08455 13.47416 3.44427 13.47416Q2.80399 13.47416 2.14163 13.47416Q1.47927 13.47416 0.79483 13.49624Q0.11039 13.51831 -0.55197 13.65079Q-1.39095 13.82742 -2.62736 13.91573Q-3.86376 14.00404 -5.1664 14.00404Q-6.46904 14.00404 -7.70545 13.93781Q-8.94185 13.87157 -9.825 13.78326ZM-7.48466 4.59854L-7.48466 4.06865L-7.74961 4.06865L-7.74961 4.59854ZM-5.93916 2.52315L-6.24826 2.52315Q-6.11579 2.61146 -6.13786 2.58938Q-6.15994 2.56731 -5.93916 2.65562ZM-7.21972 -0.25876Q-7.1314 -0.43539 -7.04309 -0.52371L-7.35219 -0.52371Q-7.4405 -0.43539 -7.4405 -0.45747Q-7.4405 -0.47955 -7.61713 -0.39123L-7.61713 -0.12629ZM-7.61713 -4.85112Q-7.70545 -5.07191 -7.77168 -5.16022Q-7.83792 -5.24854 -8.01455 -5.38101Q-7.92623 -5.20438 -7.94831 -5.20438Q-7.97039 -5.20438 -7.88208 -5.11606L-7.88208 -4.85112ZM-6.91062 -7.7655Q-7.08725 -8.33955 -7.46258 -8.91359Q-7.83792 -9.48764 -8.45612 -9.70842Q-8.41196 -8.60449 -7.74961 -8.03045Q-7.66129 -7.94213 -7.5509 -7.89797Q-7.4405 -7.85382 -7.35219 -7.7655ZM-6.24826 -6.08752Q-5.895 -6.22 -5.71837 -6.39663Q-5.54174 -6.57326 -5.2768 -6.79404Q-5.18848 -7.05899 -5.1664 -7.1473Q-5.14432 -7.23561 -5.2768 -7.4564Q-5.36511 -7.10314 -5.63006 -6.8382Q-5.895 -6.57326 -6.24826 -6.35247ZM-7.04309 -11.78382Q-7.1314 -12.26955 -7.33011 -12.46825Q-7.52882 -12.66696 -7.74961 -13.02022L-8.01455 -13.02022Q-8.01455 -12.53449 -7.88208 -12.33578Q-7.74961 -12.13707 -7.48466 -11.91629Q-7.39635 -11.82797 -7.33011 -11.82797Q-7.26388 -11.82797 -7.04309 -11.78382ZM-1.39095 -6.35247Q-1.25848 -6.5291 -1.36888 -6.55118Q-1.47927 -6.57326 -1.52343 -6.61741Q-1.74421 -6.61741 -1.61174 -6.5291Q-1.47927 -6.44078 -1.39095 -6.35247ZM-6.07163 -9.97337L-6.07163 -10.10584Q-5.54174 -10.32663 -5.36511 -10.70196Q-5.18848 -11.0773 -4.83522 -11.47471Q-4.9677 -11.73966 -4.92354 -11.6955Q-4.87938 -11.65134 -5.10017 -11.78382Q-5.40927 -11.43056 -5.65213 -11.01106Q-5.895 -10.59157 -6.24826 -10.23831L-6.24826 -9.97337ZM-6.64567 -15.40471Q-7.1314 -16.42033 -8.01455 -17.03853Q-7.92623 -16.50865 -7.74961 -16.22162Q-7.57298 -15.9346 -7.35219 -15.53719Q-7.1314 -15.44887 -7.15348 -15.47095Q-7.17556 -15.49303 -7.04309 -15.40471ZM-6.38073 -13.72674Q-5.71837 -13.94752 -5.43135 -14.45533Q-5.14432 -14.96314 -4.70275 -15.40471L-4.70275 -15.9346L-4.9677 -15.9346Q-5.23264 -15.44887 -5.5859 -14.87483Q-5.93916 -14.30078 -6.38073 -13.99168ZM-2.36242 -15.22809Q-2.45073 -15.84629 -2.84815 -16.28786Q-3.24556 -16.72943 -3.73129 -16.90606Q-3.59882 -16.46449 -3.42219 -16.17747Q-3.24556 -15.89044 -3.02477 -15.53719Q-2.80399 -15.44887 -2.71567 -15.40471Q-2.62736 -15.36056 -2.49489 -15.22809ZM-1.39095 -14.56573Q-1.25848 -14.47741 -1.05978 -14.63196Q-0.86107 -14.78651 -0.70652 -15.02938Q-0.55197 -15.27224 -0.48573 -15.53719Q-0.41949 -15.80213 -0.55197 -15.9346Q-0.86107 -15.3164 -1.39095 -14.96314Q-1.39095 -14.65404 -1.43511 -14.6982Q-1.47927 -14.74235 -1.39095 -14.56573ZM-1.92084 -17.61258Q-1.56758 -17.83337 -1.39095 -18.14247L-1.21433 -18.14247Q-1.17017 -18.36325 -1.2364 -18.36325Q-1.30264 -18.36325 -1.39095 -18.45157Q-1.47927 -18.3191 -1.63382 -18.2087Q-1.78837 -18.09831 -1.92084 -18.00999ZM1.965 -15.40471L1.965 -15.66966Q1.70006 -15.75797 1.52343 -15.80213Q1.61174 -15.6255 1.61174 -15.6255Q1.61174 -15.6255 1.70006 -15.53719L1.70006 -15.40471ZM0.7286 -16.77359Q0.64028 -16.95022 0.64028 -16.95022Q0.64028 -16.95022 0.55197 -17.03853L0.55197 -16.77359ZM2.36242 -17.61258Q2.62736 -17.70089 2.67152 -17.78921Q2.71567 -17.87752 2.93646 -18.00999Q2.84815 -18.09831 2.80399 -18.09831Q2.75983 -18.09831 2.53904 -18.14247Q2.45073 -18.00999 2.42865 -17.92168Q2.40657 -17.83337 2.36242 -17.61258Z" fill="rgb(222, 198, 133)" transform="matrix(1 0 0 1 165.954527 24.948872)"/><path d="M18.47983 14.22483Q17.77331 14.22483 17.48629 14.11444Q17.19927 14.00404 16.84601 13.78326Q16.84601 13.20921 16.77977 12.43646Q16.71354 11.66371 16.66938 10.8468Q16.62522 10.02989 16.66938 9.23506Q16.71354 8.44023 16.93432 7.82202Q17.02264 7.55708 17.04472 7.35837Q17.06679 7.15966 17.04472 6.93888Q17.02264 6.71809 16.93432 6.40899Q16.84601 6.09989 16.66938 5.57Q16.58106 5.30506 16.60314 4.66478Q16.62522 4.0245 16.53691 3.80371Q16.40444 3.31798 16.42651 2.76601Q16.44859 2.21405 16.51483 1.66208Q16.58106 1.11011 16.55899 0.62438Q16.53691 0.13865 16.27196 -0.2146Q16.09533 -0.70033 15.78623 -0.92112Q15.47713 -1.14191 15.16803 -1.49517Q14.6823 -1.45101 14.50567 -1.40685Q14.32904 -1.36269 14.0641 -1.18606Q14.32904 1.11011 14.19657 3.42837Q14.0641 5.74663 14.0641 8.52854Q14.0641 8.92596 14.10826 9.54416Q14.15241 10.16236 14.17449 10.78056Q14.19657 11.39876 14.15241 11.95073Q14.10826 12.5027 13.93163 12.8118Q13.88747 13.43 13.73292 13.58455Q13.57837 13.7391 13.35758 14.09236Q12.91601 14.09236 11.94455 14.13652Q10.97309 14.18067 9.93539 14.18067Q8.8977 14.18067 7.99247 14.13652Q7.08725 14.09236 6.8223 13.91573L6.55736 13.91573Q6.46904 13.38584 6.53528 12.92219Q6.60152 12.45854 6.68983 11.97281Q6.77814 11.61955 6.66775 11.44292Q6.55736 11.26629 6.55736 11.00135Q6.5132 10.4273 6.60152 9.63247Q6.68983 8.83764 6.68983 8.08697L6.68983 6.45315Q6.46904 5.79079 6.38073 4.75309Q6.29241 3.71539 6.29241 2.63354Q6.29241 1.55169 6.38073 0.51399Q6.46904 -0.52371 6.68983 -1.18606Q6.91062 -1.93674 6.71191 -2.81988Q6.5132 -3.70303 6.42489 -4.10045L6.42489 -10.10584Q6.42489 -10.90067 6.35865 -12.24747Q6.29241 -13.59427 6.29241 -15.0073Q6.29241 -16.42033 6.40281 -17.61258Q6.5132 -18.80483 6.8223 -19.2464L6.8223 -19.51134Q7.04309 -19.59966 7.28595 -19.64381Q7.52882 -19.68797 7.66129 -19.82044Q8.36781 -19.59966 9.33927 -19.82044Q10.31073 -20.04123 11.28219 -19.82044Q11.54713 -19.73213 11.92247 -19.57758Q12.29781 -19.42303 12.78354 -19.51134Q13.1368 -19.59966 13.77708 -19.79837Q14.41736 -19.99707 15.03556 -19.82044Q16.09533 -19.51134 17.06679 -19.42303Q18.03826 -19.33471 18.94348 -19.2464Q19.8487 -19.15808 20.68769 -18.9373Q21.52668 -18.71651 22.36567 -18.14247Q22.8514 -17.78921 23.29297 -17.10477Q23.73455 -16.42033 23.91118 -15.80213Q24.13196 -15.05146 24.02157 -14.36702Q23.91118 -13.68258 24.17612 -13.15269Q24.52938 -12.44618 24.75016 -11.85005Q24.97095 -11.25393 25.03719 -10.63573Q25.10342 -10.01752 24.99303 -9.33309Q24.88264 -8.64865 24.61769 -7.72134L24.61769 -6.48494Q24.44106 -5.9109 24.08781 -5.53556Q23.73455 -5.16022 23.35921 -4.82904Q22.98387 -4.49786 22.63061 -4.1446Q22.27736 -3.79135 22.10073 -3.30562Q22.01241 -3.17314 22.03449 -3.19522Q22.05657 -3.2173 21.96825 -2.99651Q22.49814 -2.51078 23.07219 -1.80427Q23.64623 -1.09775 23.91118 -0.34708Q24.30859 0.66854 24.5073 2.16989Q24.70601 3.67124 24.77224 5.32714Q24.83848 6.98303 24.70601 8.61685Q24.57354 10.25067 24.30859 11.44292Q24.13196 12.32607 24.1982 12.92219Q24.26443 13.51831 23.91118 14.09236Q23.60207 14.09236 22.82932 14.0482Q22.05657 14.00404 21.17342 13.98197Q20.29028 13.95989 19.51752 14.00404Q18.74477 14.0482 18.47983 14.22483ZM8.76522 7.9545L8.76522 7.82202L8.8977 7.82202L8.8977 7.68955L8.50028 7.55708Q8.58859 7.73371 8.56652 7.73371Q8.54444 7.73371 8.63275 7.82202L8.63275 7.9545ZM9.73668 8.08697Q10.35489 7.99865 10.61983 7.8441Q10.88477 7.68955 11.54713 7.68955L11.54713 7.55708Q11.19387 7.42461 10.70814 7.42461Q10.48736 7.55708 10.08994 7.55708Q9.69253 7.55708 9.33927 7.55708ZM12.51859 7.55708L12.25365 7.55708Q12.34196 7.64539 12.34196 7.62332Q12.34196 7.60124 12.51859 7.68955ZM8.50028 3.80371Q8.72107 3.75955 8.76522 3.75955Q8.80938 3.75955 8.8977 3.67124L9.2068 3.67124Q9.11848 3.45045 9.11848 3.47253Q9.11848 3.49461 9.03017 3.36214Q8.94185 3.27382 8.87562 3.31798Q8.80938 3.36214 8.50028 3.36214ZM11.28219 5.04011Q11.10556 4.9518 11.03932 4.9518Q10.97309 4.9518 10.70814 4.90764Q10.57567 5.34921 10.66399 5.34921Q10.7523 5.34921 11.28219 5.30506ZM10.84062 3.67124L10.84062 3.53877L9.60421 3.22966Q9.56005 3.31798 9.53798 3.45045Q9.5159 3.58292 9.47174 3.67124ZM11.6796 5.30506Q11.85623 5.2609 12.03286 5.23882Q12.20949 5.21674 12.38612 5.17259L12.38612 5.04011Q12.20949 4.99596 12.03286 4.97388Q11.85623 4.9518 11.6796 4.90764ZM10.4432 2.39068L10.17826 2.39068Q10.17826 2.69978 10.15618 2.65562Q10.1341 2.61146 10.4432 2.69978ZM12.51859 3.53877Q12.43028 3.31798 12.45236 3.31798Q12.47444 3.31798 12.38612 3.22966L12.38612 3.53877ZM11.14972 1.86079Q11.59129 1.81663 11.6796 1.72832L11.81208 1.72832L11.81208 1.59584L11.14972 1.59584ZM8.76522 -2.15753L8.76522 -2.33415Q8.98601 -2.55494 8.98601 -2.53286Q8.98601 -2.51078 8.8977 -2.73157Q8.76522 -2.55494 8.74314 -2.55494Q8.72107 -2.55494 8.50028 -2.46663L8.50028 -2.33415L8.63275 -2.33415L8.63275 -2.15753ZM11.14972 -0.78865L11.01725 -1.18606Q10.7523 -1.05359 10.77438 -1.09775Q10.79646 -1.14191 10.70814 -0.78865ZM21.57084 7.68955L21.57084 7.42461L20.86432 7.42461L20.86432 7.68955ZM22.2332 7.68955Q22.10073 7.42461 22.12281 7.46877Q22.14488 7.51292 21.83578 7.42461L21.83578 7.68955ZM9.47174 -5.77842L9.2068 -5.77842Q9.29511 -5.69011 9.27303 -5.71219Q9.25095 -5.73427 9.47174 -5.64595ZM18.6123 3.36214Q18.52399 3.18551 18.54606 3.18551Q18.56814 3.18551 18.47983 3.09719L18.47983 3.36214ZM19.76039 5.30506Q20.24612 5.30506 20.42275 5.17259L21.57084 5.17259L21.57084 4.90764L19.89286 4.90764ZM20.15781 3.67124Q19.93702 3.22966 19.31882 3.09719Q19.40713 3.31798 19.51752 3.38422Q19.62792 3.45045 19.76039 3.67124ZM20.86432 3.36214Q20.68769 3.14135 20.73185 3.16343Q20.77601 3.18551 20.42275 3.09719Q20.46691 3.36214 20.48899 3.34006Q20.51106 3.31798 20.86432 3.36214ZM13.22511 -4.10045Q13.40174 -4.18876 13.62253 -4.40955L13.93163 -4.40955Q13.755 -4.63033 13.79916 -4.60826Q13.84331 -4.58618 13.49005 -4.67449Q13.40174 -4.4537 13.35758 -4.40955Q13.31342 -4.36539 13.22511 -4.10045ZM21.83578 3.36214Q21.70331 3.14135 21.65915 3.11927Q21.615 3.09719 21.39421 2.96472L21.26174 3.36214ZM21.96825 3.53877Q22.14488 3.45045 22.14488 3.45045Q22.14488 3.45045 22.2332 3.36214L22.36567 3.36214Q22.45399 3.14135 22.38775 3.16343Q22.32151 3.18551 22.2332 3.09719Q22.14488 3.18551 22.14488 3.16343Q22.14488 3.14135 21.96825 3.22966ZM16.84601 -2.73157Q17.19927 -2.51078 17.64084 -2.86404Q17.86163 -2.95236 17.86163 -2.93028Q17.86163 -2.9082 17.94994 -2.99651Q17.77331 -3.08483 17.64084 -3.10691Q17.50837 -3.12899 17.24342 -3.12899Q17.11095 -2.81988 17.13303 -2.81988Q17.15511 -2.81988 16.84601 -2.73157ZM20.42275 -2.5991L20.42275 -2.86404L20.15781 -2.86404L20.15781 -2.5991ZM19.89286 -3.8355L19.89286 -3.96797L20.15781 -4.10045L20.15781 -4.54202Q19.80455 -4.4537 19.8487 -4.49786Q19.89286 -4.54202 19.76039 -4.27708L19.58376 -4.27708Q19.5396 -4.05629 19.60584 -4.05629Q19.67208 -4.05629 19.76039 -3.96797L19.76039 -3.8355ZM18.78893 -6.22Q18.70061 -6.39663 18.70061 -6.39663Q18.70061 -6.39663 18.6123 -6.48494L18.6123 -6.22ZM19.76039 -6.61741L19.45129 -6.61741Q19.58376 -6.5291 19.56168 -6.55118Q19.5396 -6.57326 19.76039 -6.48494ZM15.56545 -7.72134Q16.18365 -7.80966 16.69146 -8.27331Q17.19927 -8.73696 17.3759 -9.26685Q17.685 -9.70842 17.72915 -10.21623Q17.77331 -10.72404 17.66292 -11.25393Q17.55253 -11.78382 17.35382 -12.24747Q17.15511 -12.71112 16.97848 -13.02022Q16.44859 -13.63842 15.58753 -13.94752Q14.72646 -14.25662 13.97578 -13.85921Q13.84331 -13.63842 13.755 -12.84359Q13.66668 -12.04876 13.66668 -11.09938Q13.66668 -10.15 13.755 -9.31101Q13.84331 -8.47202 14.0641 -8.16292Q14.19657 -7.67719 14.6823 -7.52264Q15.16803 -7.36809 15.56545 -7.72134Z" fill="rgb(222, 198, 133)" transform="matrix(1 0 0 1 165.954527 24.948872)"/><path d="" fill="rgb(222, 198, 133)" transform="matrix(1 0 0 1 165.954527 24.948872)"/><path d="M41.66241 13.78326Q40.82342 13.51831 40.09482 13.49624Q39.36623 13.47416 38.74803 13.07674Q38.39477 12.85596 37.86488 12.3923Q37.33499 11.92865 36.78303 11.37669Q36.23106 10.82472 35.76741 10.31691Q35.30376 9.8091 35.12713 9.45584Q34.90634 9.01427 34.72971 8.32983Q34.55308 7.64539 34.42061 7.24798L34.42061 5.17259Q34.28814 4.77517 34.28814 4.24528Q34.28814 3.71539 34.31022 3.11927Q34.3323 2.52315 34.31022 1.92702Q34.28814 1.3309 34.15567 0.84517Q33.75825 -0.56786 33.95696 -2.51078Q34.15567 -4.4537 34.15567 -6.35247Q34.15567 -7.67719 34.11151 -9.13438Q34.06735 -10.59157 34.11151 -11.98252Q34.15567 -13.37348 34.37646 -14.5878Q34.59724 -15.80213 35.12713 -16.64112Q35.43623 -17.12685 35.89988 -17.70089Q36.36353 -18.27494 36.9155 -18.80483Q37.46747 -19.33471 38.06359 -19.75421Q38.65971 -20.1737 39.27791 -20.39449Q39.71949 -20.52696 40.20522 -20.5932Q40.69095 -20.65943 41.1546 -20.70359Q41.61825 -20.74775 42.03775 -20.85814Q42.45724 -20.96853 42.76634 -21.23348Q46.78466 -21.27763 49.25746 -19.57758Q51.73027 -17.87752 52.61342 -14.83067L52.61342 -13.02022Q52.92252 -11.87213 52.85628 -10.28247Q52.79005 -8.69281 52.74589 -7.32393Q52.39263 -7.23561 51.84067 -7.21354Q51.2887 -7.19146 50.80297 -7.19146Q50.71465 -7.27977 50.42763 -7.50056Q50.14061 -7.72134 50.09645 -7.7655Q49.74319 -7.85382 49.58864 -7.63303Q49.43409 -7.41224 49.30162 -7.32393Q48.94836 -7.36809 48.66134 -7.39017Q48.37432 -7.41224 48.02106 -7.4564Q47.49117 -7.32393 46.80673 -7.21354Q46.1223 -7.10314 45.37162 -7.05899Q45.15084 -7.41224 45.06252 -7.67719Q44.97421 -7.94213 44.97421 -8.60449Q45.10668 -8.91359 45.10668 -9.53179Q45.10668 -10.15 45.06252 -10.85651Q45.01836 -11.56303 44.95213 -12.24747Q44.88589 -12.93191 44.84173 -13.32932Q44.44432 -13.59427 44.24561 -13.81505Q44.0469 -14.03584 43.4287 -14.12415Q43.16376 -13.90337 42.85466 -13.77089Q42.54555 -13.63842 42.32477 -13.32932Q41.97151 -12.84359 41.97151 -12.13707Q41.97151 -11.43056 42.03775 -10.63573Q42.10398 -9.8409 42.17022 -9.04606Q42.23645 -8.25123 42.05982 -7.63303Q41.79488 -6.61741 41.61825 -5.31477Q41.44162 -4.01213 41.37539 -2.68741Q41.30915 -1.36269 41.37539 -0.17045Q41.44162 1.0218 41.66241 1.81663Q41.70657 2.12573 41.66241 2.52315Q41.61825 2.92056 41.55202 3.34006Q41.48578 3.75955 41.44162 4.20113Q41.39747 4.6427 41.48578 5.04011Q41.57409 5.2609 41.70657 5.54792Q41.83904 5.83495 41.92735 6.14405Q42.36893 6.40899 42.65595 6.54146Q42.94297 6.67393 43.18584 6.69601Q43.4287 6.71809 43.7378 6.62978Q44.0469 6.54146 44.57679 6.40899Q44.75342 5.65832 44.81966 4.70893Q44.88589 3.75955 44.90797 2.74393Q44.93005 1.72832 44.93005 0.73478Q44.93005 -0.25876 44.97421 -1.09775Q45.32746 -1.31854 45.48201 -1.40685Q45.63657 -1.49517 46.21061 -1.49517Q46.56387 -1.27438 47.24831 -1.16399Q47.93274 -1.05359 48.33016 -0.96528Q48.55095 -1.27438 48.7055 -1.38477Q48.86005 -1.49517 49.43409 -1.49517Q49.52241 -1.40685 49.91982 -1.36269Q50.31724 -1.31854 50.80297 -1.31854Q51.2887 -1.31854 51.79651 -1.34062Q52.30432 -1.36269 52.61342 -1.36269Q52.92252 -0.70033 52.87836 0.44775Q52.74589 0.7127 52.74589 1.66208Q52.74589 2.61146 52.76797 3.73747Q52.79005 4.86348 52.76797 5.92326Q52.74589 6.98303 52.61342 7.51292Q52.216 8.83764 51.15623 10.20652Q50.09645 11.57539 48.5951 12.56893Q47.09376 13.56247 45.30539 13.98197Q43.51702 14.40146 41.66241 13.78326ZM36.36353 -11.20977Q36.49601 -11.3864 36.69471 -11.60719Q36.89342 -11.82797 37.07005 -12.07084Q37.24668 -12.3137 37.33499 -12.55657Q37.42331 -12.79943 37.33499 -13.02022Q37.02589 -12.57865 36.71679 -12.13707Q36.40769 -11.6955 36.09859 -11.20977ZM39.71949 -12.88775Q39.41039 -13.10853 39.27791 -13.3514Q39.14544 -13.59427 38.74803 -13.72674L38.74803 -13.15269Q39.01297 -12.97606 39.12336 -12.84359Q39.23376 -12.71112 39.71949 -12.6228ZM39.27791 -16.77359L39.27791 -17.21516L38.8805 -17.34764Q38.92466 -17.21516 38.94674 -17.06061Q38.96881 -16.90606 39.01297 -16.77359ZM40.51432 -14.83067Q40.82342 -15.27224 41.11044 -15.49303Q41.39747 -15.71382 41.48578 -16.37617Q41.66241 -16.59696 41.70657 -16.64112Q41.75072 -16.68528 41.66241 -16.90606Q41.30915 -16.37617 40.82342 -15.95668Q40.33769 -15.53719 40.1169 -14.83067ZM47.62364 -9.70842L47.62364 -9.97337Q47.53533 -10.06168 47.55741 -10.06168Q47.57949 -10.06168 47.49117 -10.23831Q47.31454 -10.28247 47.0496 -10.37078Q47.13791 -10.06168 47.18207 -10.01752Q47.22623 -9.97337 47.49117 -9.8409L47.49117 -9.70842ZM44.13522 -16.77359Q44.0469 -16.81775 43.8482 -17.03853Q43.64949 -17.25932 43.45078 -17.45803Q43.25207 -17.65674 43.07544 -17.78921Q42.89881 -17.92168 42.89881 -17.87752Q42.76634 -17.70089 42.78842 -17.74505Q42.8105 -17.78921 42.89881 -17.61258Q43.03129 -17.17101 43.34039 -16.81775Q43.64949 -16.46449 44.13522 -16.37617ZM49.12499 -10.94483Q49.38994 -11.20977 49.6328 -11.49679Q49.87567 -11.78382 50.09645 -12.04876Q50.0523 -12.26955 50.0523 -12.3137Q50.0523 -12.35786 49.96398 -12.49033Q49.74319 -12.0046 49.38994 -11.71758Q49.03668 -11.43056 48.86005 -10.94483ZM48.02106 -12.75528Q48.10937 -12.71112 48.0873 -12.68904Q48.06522 -12.66696 48.15353 -12.75528L48.33016 -12.75528L48.33016 -12.88775Q47.84443 -13.28516 47.62364 -13.88129Q47.40286 -14.47741 46.78466 -14.6982Q46.82881 -14.12415 46.96128 -13.81505Q47.09376 -13.50595 47.18207 -13.02022Q47.44701 -12.88775 47.53533 -12.84359Q47.62364 -12.79943 48.02106 -12.75528ZM46.65218 -14.83067L46.65218 -15.09561L46.34308 -15.09561L46.34308 -14.83067ZM45.54825 -15.53719Q45.72488 -15.89044 45.92359 -16.17747Q46.1223 -16.46449 46.21061 -16.90606L45.94567 -16.90606Q45.72488 -16.64112 45.3937 -16.30994Q45.06252 -15.97876 45.23915 -15.66966Q45.37162 -15.58134 45.34954 -15.60342Q45.32746 -15.6255 45.54825 -15.53719ZM49.30162 -14.96314Q49.47825 -15.27224 49.61072 -15.38264Q49.74319 -15.49303 49.83151 -15.9346L49.56656 -15.9346Q49.43409 -15.75797 49.30162 -15.58134Q49.16915 -15.40471 48.99252 -15.27224L48.99252 -14.96314ZM48.15353 -17.03853Q47.84443 -17.25932 47.68988 -17.52426Q47.53533 -17.78921 47.18207 -18.00999Q47.09376 -17.74505 47.11583 -17.63466Q47.13791 -17.52426 47.18207 -17.21516Q47.53533 -17.08269 47.6678 -16.92814Q47.80027 -16.77359 48.15353 -16.64112Z" fill="rgb(222, 198, 133)" transform="matrix(1 0 0 1 165.954527 24.948872)"/><path d="M61.13578 13.65079Q59.32533 13.65079 57.73566 13.69494Q56.146 13.7391 54.33555 13.51831Q54.02645 12.8118 53.96022 11.35461Q53.89398 9.89742 53.91606 8.24152Q53.93814 6.58562 54.00437 4.99596Q54.07061 3.40629 54.07061 2.39068L54.07061 -1.76011Q54.11477 -1.9809 54.20308 -2.37831Q54.2914 -2.77573 54.35763 -3.2173Q54.42387 -3.65887 54.42387 -4.12253Q54.42387 -4.58618 54.33555 -4.98359Q54.24724 -5.24854 54.13685 -5.71219Q54.02645 -6.17584 53.91606 -6.70573Q53.80567 -7.23561 53.76151 -7.72134Q53.71735 -8.20708 53.80567 -8.56033Q53.89398 -8.91359 53.98229 -9.35516Q54.07061 -9.79674 54.07061 -10.37078L54.07061 -19.11393Q54.24724 -19.33471 54.42387 -19.53342Q54.6005 -19.73213 54.77713 -19.95292Q56.41095 -19.90876 57.8019 -19.93084Q59.19286 -19.95292 60.87083 -19.95292Q61.09162 -19.77629 61.29033 -19.62174Q61.48903 -19.46719 61.70982 -19.29056Q61.70982 -18.18662 61.64359 -16.6632Q61.57735 -15.13977 61.57735 -13.61634Q61.57735 -12.09292 61.7319 -10.7682Q61.88645 -9.44348 62.28387 -8.73696Q62.94623 -8.73696 63.25533 -9.00191Q63.87353 -9.00191 64.27094 -9.04606Q64.66836 -9.09022 65.02162 -9.26685Q65.10993 -10.85651 65.13201 -12.46825Q65.15409 -14.08 65.19825 -15.66966Q65.19825 -16.2437 65.13201 -16.77359Q65.06578 -17.30348 65.0437 -17.78921Q65.02162 -18.27494 65.06578 -18.73859Q65.10993 -19.20224 65.33072 -19.68797Q65.68398 -19.82044 65.971 -19.79837Q66.25802 -19.77629 66.52297 -19.73213Q66.78791 -19.68797 67.09701 -19.64381Q67.40611 -19.59966 67.80353 -19.68797Q69.03993 -19.95292 70.27634 -19.93084Q71.51274 -19.90876 72.52836 -19.29056Q72.61667 -17.87752 72.63875 -16.57488Q72.66083 -15.27224 72.63875 -13.94752Q72.61667 -12.6228 72.57252 -11.23185Q72.52836 -9.8409 72.52836 -8.29539Q72.52836 -7.50056 72.61667 -6.68365Q72.70499 -5.86674 72.74915 -5.04983Q72.7933 -4.23292 72.77122 -3.43809Q72.74915 -2.64326 72.52836 -1.89258L72.52836 4.06865Q72.61667 4.3336 72.7933 4.81933Q72.96993 5.30506 72.83746 5.8791L72.52836 6.14405Q72.44004 6.4973 72.61667 6.62978Q72.7933 6.76225 72.83746 6.98303Q72.92577 7.46877 72.77122 8.02073Q72.61667 8.5727 72.52836 8.92596L72.52836 13.07674Q72.4842 13.20921 72.35173 13.36376Q72.21926 13.51831 72.13094 13.65079Q71.91016 13.7391 71.15948 13.80534Q70.40881 13.87157 69.50358 13.89365Q68.59836 13.91573 67.78145 13.87157Q66.96454 13.82742 66.6996 13.65079Q65.94892 13.65079 65.75021 13.49624Q65.55151 13.34169 65.19825 13.07674Q65.19825 10.78056 65.06578 8.4623Q64.9333 6.14405 65.02162 3.75955Q65.06578 3.22966 64.88915 2.45691Q64.71252 1.68416 64.88915 1.0218Q64.97746 0.66854 65.10993 0.22697Q65.2424 -0.2146 65.33072 -0.65618Q65.55151 -0.70033 65.59566 -0.70033Q65.63982 -0.70033 65.72814 -0.78865Q65.81645 -0.92112 65.79437 -0.89904Q65.77229 -0.87696 65.86061 -1.09775Q65.72814 -1.23022 65.57358 -1.45101Q65.41903 -1.6718 65.33072 -1.89258Q64.9333 -1.93674 64.40342 -1.93674Q63.87353 -1.93674 63.65274 -1.76011Q63.03454 -1.76011 62.6592 -1.76011Q62.28387 -1.76011 62.06308 -1.64972Q61.84229 -1.53932 61.70982 -1.27438Q61.57735 -1.00944 61.44488 -0.52371Q61.35656 -0.34708 61.15786 -0.12629Q60.95915 0.0945 61.0033 0.31528Q61.13578 0.4036 61.22409 0.49191Q61.31241 0.58023 61.35656 0.64646Q61.40072 0.7127 61.44488 0.7127Q61.57735 1.19843 61.33448 1.41922Q61.09162 1.64 61.13578 1.99326Q61.17993 2.12573 61.4228 2.28028Q61.66566 2.43483 61.70982 2.52315L61.70982 9.45584Q61.70982 9.89742 61.7319 10.44938Q61.75398 11.00135 61.75398 11.53124Q61.75398 12.06112 61.68774 12.5027Q61.62151 12.94427 61.44488 13.20921Q61.35656 13.29753 61.29033 13.43Q61.22409 13.56247 61.13578 13.65079ZM68.51004 5.30506Q68.77499 5.17259 68.62044 5.08427Q68.46589 4.99596 68.37757 4.90764Q68.28926 4.99596 68.28926 5.19466Q68.28926 5.39337 68.51004 5.30506ZM69.08409 4.3336Q69.26072 4.24528 69.26072 4.26736Q69.26072 4.28944 69.34903 4.20113L69.48151 4.20113Q69.39319 4.11281 69.34903 4.11281Q69.30488 4.11281 69.08409 4.06865ZM68.37757 1.81663L68.11263 1.81663Q68.11263 2.12573 68.09055 2.08157Q68.06847 2.03742 68.37757 2.12573ZM59.19286 -6.79404Q59.50196 -6.88236 59.59027 -6.97067Q59.67859 -7.05899 59.89937 -7.19146Q59.85521 -7.41224 59.85521 -7.52264Q59.85521 -7.63303 59.7669 -7.7655Q59.63443 -7.54472 59.54611 -7.43432Q59.4578 -7.32393 59.36948 -7.05899L59.19286 -7.05899ZM63.52027 -6.48494L63.52027 -6.61741L63.78521 -6.61741Q63.74106 -6.8382 63.74106 -6.88236Q63.74106 -6.92651 63.65274 -7.05899Q63.56443 -6.8382 63.52027 -6.79404Q63.47611 -6.74988 63.3878 -6.48494ZM66.6996 -7.58887Q66.61128 -8.03045 66.54505 -8.09668Q66.47881 -8.16292 66.16971 -8.29539Q66.21387 -7.94213 66.25802 -7.8759Q66.30218 -7.80966 66.43465 -7.58887ZM67.40611 -6.22Q67.84769 -6.35247 68.17887 -6.74988Q68.51004 -7.1473 68.64252 -7.58887Q68.73083 -7.80966 68.73083 -7.80966Q68.73083 -7.80966 68.64252 -8.03045Q68.42173 -7.63303 68.11263 -7.16938Q67.80353 -6.70573 67.40611 -6.48494ZM67.53858 -10.23831Q67.89184 -10.37078 68.02431 -10.54741Q68.15679 -10.72404 68.37757 -10.94483Q68.28926 -11.03314 68.2451 -11.03314Q68.20094 -11.03314 67.98016 -11.0773Q67.89184 -10.7682 67.82561 -10.6578Q67.75937 -10.54741 67.53858 -10.37078ZM70.89454 -7.89797Q70.80622 -8.0746 70.69583 -8.25123Q70.58544 -8.42786 70.45297 -8.56033Q70.36465 -8.64865 70.32049 -8.64865Q70.27634 -8.64865 70.05555 -8.73696Q70.14386 -8.51618 70.12179 -8.51618Q70.09971 -8.51618 70.18802 -8.42786Q70.27634 -8.16292 70.34257 -8.11876Q70.40881 -8.0746 70.58544 -7.89797ZM70.58544 -11.91629L70.58544 -12.3137L70.18802 -12.44618L70.32049 -12.04876L70.45297 -12.04876L70.45297 -11.91629Z" fill="rgb(222, 198, 133)" transform="matrix(1 0 0 1 165.954527 24.948872)"/><path d="M74.82454 14.0482Q74.69207 13.91573 74.51544 13.76118Q74.33881 13.60663 74.11802 13.51831Q74.16218 12.98843 74.31673 12.72348Q74.47128 12.45854 74.55959 12.10528L74.55959 9.89742Q75.00117 8.21944 75.15572 6.38691Q75.31027 4.55438 75.796 2.96472L75.796 -0.65618Q76.06094 -1.62764 76.21549 -2.81988Q76.37004 -4.01213 76.52459 -5.20438Q76.67914 -6.39663 76.85577 -7.56679Q77.0324 -8.73696 77.29735 -9.66427L77.29735 -11.47471Q77.73892 -12.84359 78.18049 -14.47741Q78.62207 -16.11123 79.1078 -17.30348Q79.32858 -17.78921 79.35066 -18.34117Q79.37274 -18.89314 79.68184 -19.2464Q79.81431 -19.51134 79.92471 -19.57758Q80.0351 -19.64381 80.21173 -19.82044Q80.47667 -19.77629 81.51437 -19.82044Q82.55207 -19.8646 83.70015 -19.90876Q84.84824 -19.95292 85.88594 -19.90876Q86.92364 -19.8646 87.18858 -19.68797Q87.76263 -19.42303 87.76263 -18.9373Q87.76263 -18.45157 88.02757 -17.87752Q88.5133 -16.86191 88.95487 -15.71382Q89.39645 -14.56573 89.66139 -13.41764L89.66139 -10.23831Q89.83802 -9.70842 90.1692 -9.17854Q90.50038 -8.64865 90.63285 -8.16292L90.63285 -5.64595Q90.72116 -5.42517 90.91987 -4.82904Q91.11858 -4.23292 91.2069 -3.96797Q91.38352 -3.39393 91.33937 -2.86404Q91.29521 -2.33415 91.2069 -1.80427Q91.11858 -1.27438 91.07442 -0.76657Q91.03027 -0.25876 91.2069 0.31528Q91.56015 1.59584 91.8251 3.18551Q92.09004 4.77517 92.4433 6.01157L92.4433 8.08697Q92.53161 8.39607 92.73032 8.99219Q92.92903 9.58832 93.01734 9.89742Q93.10566 10.29483 93.10566 10.67017Q93.10566 11.04551 93.08358 11.39876Q93.0615 11.75202 93.08358 12.0832Q93.10566 12.41438 93.28229 12.67933Q93.28229 13.38584 93.14982 13.78326Q92.88487 13.87157 91.93549 13.98197Q90.98611 14.09236 89.90425 14.13652Q88.8224 14.18067 87.85094 14.13652Q86.87948 14.09236 86.61454 13.91573L86.34959 13.91573Q86.30544 13.65079 86.26128 13.1209Q86.21712 12.59101 86.15088 11.99489Q86.08465 11.39876 85.99633 10.89096Q85.90802 10.38315 85.77555 10.16236L85.64308 9.76494Q84.71577 9.54416 83.70015 9.54416Q82.68454 9.54416 82.02218 9.89742Q81.88971 10.64809 81.75723 11.66371Q81.62476 12.67933 81.22735 13.20921Q81.00656 13.7391 80.16757 13.93781Q79.32858 14.13652 78.33504 14.13652Q77.3415 14.13652 76.34796 14.07028Q75.35443 14.00404 74.82454 14.0482ZM83.43521 2.12573Q83.87678 2.12573 84.2742 2.10365Q84.67162 2.08157 84.93656 1.99326Q85.11319 1.15427 84.95864 0.16073Q84.80409 -0.83281 84.5833 -1.71595Q84.45083 -2.37831 84.45083 -3.06275Q84.45083 -3.74719 84.40667 -4.36539Q84.36251 -4.98359 84.23004 -5.4914Q84.09757 -5.99921 83.70015 -6.35247Q83.08195 -4.80696 82.81701 -2.70949Q82.55207 -0.61202 82.59622 1.50753Q82.37544 2.12573 82.66246 2.14781Q82.94948 2.16989 83.43521 2.12573ZM79.81431 -8.69281Q79.90263 -8.91359 79.96886 -9.02399Q80.0351 -9.13438 80.21173 -9.26685Q80.07926 -9.53179 80.10134 -9.48764Q80.12341 -9.44348 79.81431 -9.53179Q79.68184 -9.31101 79.63768 -9.20061Q79.59353 -9.09022 79.54937 -8.69281ZM87.586 -8.16292Q87.80678 -8.03045 87.8951 -8.20708Q87.98341 -8.3837 88.02757 -8.42786L88.16004 -8.42786Q88.2042 -8.64865 88.13796 -8.62657Q88.07173 -8.60449 88.02757 -8.69281Q87.85094 -8.51618 87.586 -8.16292ZM86.87948 -9.39932Q86.83532 -10.01752 86.61454 -10.28247Q86.39375 -10.54741 85.90802 -10.63573Q85.99633 -10.28247 86.15088 -10.06168Q86.30544 -9.8409 86.48206 -9.53179Q86.65869 -9.44348 86.65869 -9.46556Q86.65869 -9.48764 86.74701 -9.39932Z" fill="rgb(222, 198, 133)" transform="matrix(1 0 0 1 165.954527 24.948872)"/><path d="M94.34206 13.47416Q94.25375 13.29753 94.18751 13.23129Q94.12128 13.16506 94.03296 12.94427Q93.85633 12.59101 93.94465 11.88449Q94.03296 11.17798 94.03296 10.55978L94.03296 -12.35786Q94.03296 -13.28516 93.9888 -14.32286Q93.94465 -15.36056 93.90049 -16.39825Q93.85633 -17.43595 93.87841 -18.40741Q93.90049 -19.37887 94.03296 -20.12955Q94.29791 -20.21786 94.38622 -20.2841Q94.47454 -20.35033 94.87195 -20.39449Q94.96027 -20.4828 95.22521 -20.52696Q95.49015 -20.57112 95.57847 -20.65943Q96.32914 -20.65943 96.96942 -20.5932Q97.6097 -20.52696 98.09543 -20.39449Q98.80195 -20.1737 99.70717 -20.37241Q100.6124 -20.57112 101.00981 -20.65943Q101.49555 -20.7919 101.82672 -20.63735Q102.1579 -20.4828 102.37869 -20.39449Q102.86442 -20.26202 103.21768 -20.43865Q103.57094 -20.61528 103.79172 -20.65943Q104.01251 -20.70359 104.47616 -20.61528Q104.93981 -20.52696 105.29307 -20.52696Q105.4697 -20.1737 105.82296 -19.29056Q106.17622 -18.40741 106.46324 -17.36971Q106.75026 -16.33202 106.92689 -15.3164Q107.10352 -14.30078 106.97105 -13.72674Q106.88274 -13.37348 106.55156 -12.93191Q106.22038 -12.49033 106.26453 -12.04876Q106.35285 -11.29809 106.8165 -10.79028Q107.28015 -10.28247 107.50094 -9.70842Q107.81004 -9.00191 107.8542 -8.20708Q107.89835 -7.41224 108.07498 -6.66157Q108.25161 -6.57326 108.31785 -6.55118Q108.38408 -6.5291 108.64903 -6.48494Q109.00229 -7.19146 109.11268 -7.98629Q109.22307 -8.78112 109.44386 -9.70842L109.44386 -11.34224Q110.06206 -13.41764 110.37116 -15.66966Q110.68026 -17.92168 111.12184 -20.12955Q111.43094 -20.26202 111.93875 -20.52696Q112.44655 -20.7919 112.93228 -20.65943Q113.24139 -20.57112 113.88167 -20.39449Q114.52195 -20.21786 115.14015 -20.39449Q115.67004 -20.52696 116.6415 -20.57112Q117.61296 -20.61528 118.69481 -20.54904Q119.77667 -20.4828 120.85852 -20.37241Q121.94037 -20.26202 122.64689 -20.12955Q122.95599 -19.46719 123.02223 -18.27494Q123.08846 -17.08269 123.06638 -15.69174Q123.04431 -14.30078 122.97807 -12.93191Q122.91183 -11.56303 122.91183 -10.54741L122.91183 12.10528Q122.91183 13.29753 122.33779 13.54039Q121.76374 13.78326 121.14554 13.78326Q120.74813 13.78326 120.17408 13.82742Q119.60004 13.87157 119.00391 13.89365Q118.40779 13.91573 117.8779 13.87157Q117.34801 13.82742 117.08307 13.65079Q116.28824 13.7391 115.89082 13.07674Q115.49341 12.41438 115.36094 11.20006Q115.22846 9.98573 115.27262 8.32983Q115.31678 6.67393 115.31678 4.73101Q115.31678 4.20113 115.38301 3.42837Q115.44925 2.65562 115.44925 1.9491Q115.44925 1.24259 115.33886 0.7127Q115.22846 0.18281 114.87521 0.0945Q114.78689 0.22697 114.61026 0.62438Q114.43363 1.0218 114.23493 1.48545Q114.03622 1.9491 113.90375 2.39068Q113.77127 2.83225 113.77127 3.09719Q113.37386 3.75955 113.48425 4.55438Q113.59464 5.34921 113.37386 6.27652Q113.06476 7.33629 112.7115 8.77141Q112.35824 10.20652 112.0933 11.26629Q111.91667 11.92865 111.87251 12.3923Q111.82835 12.85596 111.69588 13.16506Q111.56341 13.47416 111.18807 13.62871Q110.81273 13.78326 110.0179 13.78326Q109.88543 13.69494 109.33347 13.65079Q108.7815 13.60663 108.11914 13.58455Q107.45678 13.56247 106.8165 13.54039Q106.17622 13.51831 105.86712 13.47416Q105.64633 13.20921 105.33723 12.96635Q105.02813 12.72348 104.89566 12.37022Q104.8515 12.01697 104.82942 11.61955Q104.80734 11.22214 104.76319 10.86888Q104.32161 9.45584 103.99043 7.60124Q103.65925 5.74663 103.21768 4.3336Q103.04105 3.75955 103.08521 3.18551Q103.12937 2.61146 103.10729 2.14781Q103.08521 1.68416 102.86442 1.35298Q102.64363 1.0218 101.98128 0.97764Q101.71633 1.50753 101.62802 2.56731Q101.5397 3.62708 101.5397 4.84141Q101.5397 6.05573 101.60594 7.2259Q101.67217 8.39607 101.67217 9.1909Q101.49555 9.5 101.45139 10.02989Q101.40723 10.55978 101.40723 11.13382Q101.40723 11.70787 101.47347 12.23775Q101.5397 12.76764 101.5397 13.07674Q101.31892 13.25337 101.12021 13.40792Q100.9215 13.56247 100.70071 13.78326Q100.03835 13.78326 99.46431 13.67287Q98.89026 13.56247 98.49285 13.47416Q98.05128 13.38584 97.54347 13.54039Q97.03566 13.69494 96.6824 13.78326ZM98.09543 -12.75528L98.09543 -13.15269L97.9188 -13.15269L97.9188 -13.32932L97.52139 -13.32932L97.52139 -13.02022Q97.65386 -12.93191 97.67594 -12.90983Q97.69802 -12.88775 97.78633 -12.75528ZM99.19937 -11.20977Q99.42015 -11.51887 99.66302 -11.78382Q99.90588 -12.04876 100.17083 -12.35786L100.17083 -12.6228L99.86173 -12.6228Q99.64094 -12.26955 99.39807 -11.91629Q99.15521 -11.56303 98.89026 -11.20977ZM101.98128 -13.15269Q101.89296 -13.37348 101.91504 -13.3514Q101.93712 -13.32932 101.8488 -13.46179L101.8488 -13.15269ZM99.19937 -14.96314Q99.42015 -15.3164 99.81757 -15.78005Q100.21498 -16.2437 100.03835 -16.64112Q99.77341 -16.15539 99.39807 -15.86837Q99.02274 -15.58134 98.89026 -14.96314ZM104.05667 -11.78382L104.05667 -11.91629Q104.14498 -12.0046 104.18914 -12.04876Q104.2333 -12.09292 104.32161 -12.18123Q104.2333 -12.40202 104.25538 -12.37994Q104.27745 -12.35786 104.18914 -12.49033Q104.01251 -12.26955 103.94628 -12.18123Q103.88004 -12.09292 103.79172 -11.78382ZM112.22577 -11.20977Q112.49071 -11.56303 112.97644 -12.04876Q113.46217 -12.53449 113.19723 -13.02022Q112.88813 -12.57865 112.57903 -12.13707Q112.26993 -11.6955 111.96082 -11.20977ZM115.58172 -12.88775Q115.27262 -13.15269 115.18431 -13.37348Q115.09599 -13.59427 114.61026 -13.72674Q114.65442 -13.55011 114.6765 -13.37348Q114.69858 -13.19685 114.74273 -13.02022Q114.96352 -12.93191 115.11807 -12.82151Q115.27262 -12.71112 115.58172 -12.6228ZM112.79981 -15.53719L112.79981 -16.06707L112.66734 -16.06707Q112.57903 -15.89044 112.53487 -15.53719ZM119.02599 -9.70842L119.02599 -9.97337Q118.89352 -10.10584 118.87144 -10.21623Q118.84936 -10.32663 118.76105 -10.54741L118.36363 -10.67988Q118.4961 -10.41494 118.62858 -10.17207Q118.76105 -9.92921 118.89352 -9.70842ZM116.81813 -11.34224Q117.12723 -11.82797 117.41425 -12.115Q117.70127 -12.40202 117.78959 -13.02022Q117.43633 -12.97606 117.2597 -12.88775Q117.03891 -12.49033 116.84021 -12.15915Q116.6415 -11.82797 116.55318 -11.34224ZM120.5715 -10.94483Q120.74813 -11.16561 120.81436 -11.18769Q120.8806 -11.20977 120.96891 -11.51887L121.14554 -11.51887L121.14554 -11.65134L120.83644 -11.65134Q120.74813 -11.47471 120.63773 -11.29809Q120.52734 -11.12146 120.43903 -10.94483ZM115.00768 -16.90606Q115.09599 -16.86191 115.14015 -16.90606Q115.22846 -16.99438 115.22846 -16.99438Q115.22846 -16.99438 115.31678 -17.21516Q115.09599 -17.30348 114.74273 -17.48011L114.74273 -17.03853ZM116.55318 -14.83067Q116.6415 -15.09561 116.86228 -15.33848Q117.08307 -15.58134 117.28178 -15.82421Q117.48049 -16.06707 117.5688 -16.33202Q117.65712 -16.59696 117.52464 -16.90606Q117.12723 -16.42033 116.75189 -15.89044Q116.37655 -15.36056 115.97914 -14.83067ZM119.86498 -13.15269Q119.51172 -13.46179 119.24678 -13.83713Q118.98183 -14.21247 118.4961 -14.43325Q118.58442 -13.85921 118.98183 -13.32932Q119.37925 -12.79943 119.86498 -12.6228ZM120.5715 -14.6982Q120.79228 -15.0073 120.92476 -15.11769Q121.05723 -15.22809 121.14554 -15.66966L120.83644 -15.66966Q120.70397 -15.44887 120.5715 -15.18393Q120.43903 -14.91898 120.30655 -14.6982ZM119.99745 -16.37617L119.99745 -16.77359Q119.90914 -16.81775 119.71043 -17.03853Q119.51172 -17.25932 119.31301 -17.48011Q119.11431 -17.70089 118.95976 -17.83337Q118.80521 -17.96584 118.76105 -17.87752Q118.67273 -17.78921 118.69481 -17.78921Q118.71689 -17.78921 118.62858 -17.61258Q118.93768 -17.39179 119.18054 -17.06061Q119.42341 -16.72943 119.60004 -16.37617Z" fill="rgb(222, 198, 133)" transform="matrix(1 0 0 1 165.954527 24.948872)"/><path d="M124.89891 13.51831Q124.54565 13.25337 124.41318 12.23775Q124.28071 11.22214 124.25863 9.96365Q124.23655 8.70517 124.28071 7.49084Q124.32487 6.27652 124.32487 5.57Q124.32487 4.15697 124.45734 2.47899Q124.58981 0.80101 124.7002 -0.89904Q124.8106 -2.5991 124.76644 -4.23292Q124.72228 -5.86674 124.32487 -7.19146Q124.14824 -7.80966 124.1924 -8.42786Q124.23655 -9.04606 124.34695 -9.66427Q124.45734 -10.28247 124.47942 -10.90067Q124.5015 -11.51887 124.32487 -12.18123Q124.1924 -12.66696 124.1924 -13.30724Q124.1924 -13.94752 124.25863 -14.56573Q124.32487 -15.18393 124.43526 -15.73589Q124.54565 -16.28786 124.63397 -16.64112Q124.72228 -16.99438 124.65605 -17.34764Q124.58981 -17.70089 124.54565 -18.03207Q124.5015 -18.36325 124.52358 -18.69443Q124.54565 -19.02561 124.76644 -19.29056Q124.85475 -19.5555 124.98723 -19.64381Q125.1197 -19.73213 125.4288 -19.82044Q125.56127 -19.90876 125.87037 -19.95292Q126.17947 -19.99707 126.26779 -20.08539Q128.91723 -20.12955 131.43419 -20.10747Q133.95116 -20.08539 136.11487 -19.71005Q138.27857 -19.33471 139.86824 -18.40741Q141.4579 -17.48011 142.25273 -15.66966Q142.65015 -14.74235 142.71638 -13.70466Q142.78262 -12.66696 142.78262 -11.34224L142.78262 -9.39932Q142.91509 -8.91359 142.89301 -8.25123Q142.87093 -7.58887 142.73846 -6.86028Q142.60599 -6.13168 142.36312 -5.46932Q142.12026 -4.80696 141.81116 -4.40955Q141.19295 -3.5264 140.02279 -2.75365Q138.85262 -1.9809 137.66037 -1.62764Q136.77722 -1.40685 136.00447 -1.51724Q135.23172 -1.62764 134.61352 -1.23022Q133.81869 -1.23022 133.00178 -1.20814Q132.18487 -1.18606 131.69914 -0.92112Q131.52251 -0.03798 131.6329 0.88933Q131.74329 1.81663 131.96408 2.52315L131.96408 4.3336L131.96408 9.05843Q131.96408 9.54416 132.03032 10.14028Q132.09655 10.7364 132.11863 11.31045Q132.14071 11.88449 132.09655 12.3923Q132.05239 12.90011 131.83161 13.20921Q131.69914 13.38584 130.72768 13.56247Q129.75621 13.7391 128.58605 13.82742Q127.41588 13.91573 126.3561 13.87157Q125.29633 13.82742 124.89891 13.51831ZM128.91723 -1.23022Q128.82891 -1.58348 128.82891 -1.58348Q128.82891 -1.58348 128.65228 -1.76011L128.65228 -2.06921L128.34318 -2.06921Q128.38734 -1.80427 128.40942 -1.64972Q128.4315 -1.49517 128.51981 -1.36269Q128.60812 -1.27438 128.65228 -1.27438Q128.69644 -1.27438 128.91723 -1.23022ZM127.81329 -2.86404Q127.76914 -3.08483 127.74706 -3.23938Q127.72498 -3.39393 127.68082 -3.57056L127.23925 -3.57056Q127.32756 -3.34977 127.30548 -3.30562Q127.28341 -3.26146 127.37172 -3.17314L127.37172 -2.86404ZM127.94577 -6.22Q128.12239 -6.30831 128.12239 -6.28623Q128.12239 -6.26415 128.21071 -6.35247Q127.81329 -6.48494 127.41588 -6.48494Q127.01846 -6.48494 126.40026 -6.48494Q126.40026 -6.35247 126.59897 -6.28623Q126.79768 -6.22 127.06262 -6.17584Q127.32756 -6.13168 127.57043 -6.15376Q127.81329 -6.17584 127.94577 -6.22ZM128.78475 -6.08752Q129.00554 -6.13168 129.0497 -6.13168Q129.09386 -6.13168 129.18217 -6.22L129.49127 -6.22L129.49127 -6.48494L128.65228 -6.48494ZM132.22902 -6.22Q132.14071 -6.30831 132.09655 -6.30831Q132.05239 -6.30831 131.83161 -6.35247Q131.91992 -6.26415 131.96408 -6.26415Q132.00824 -6.26415 132.22902 -6.22ZM135.98239 -6.22L135.98239 -6.35247Q135.45251 -6.57326 134.48105 -6.48494Q134.48105 -6.39663 134.56936 -6.15376Q134.65767 -5.9109 134.87846 -6.22ZM127.94577 -14.83067Q127.90161 -15.05146 127.90161 -15.09561Q127.90161 -15.13977 127.81329 -15.22809Q127.54835 -16.02292 126.84183 -16.19955Q126.75352 -15.80213 127.04054 -15.49303Q127.32756 -15.18393 127.81329 -14.96314L127.81329 -14.83067ZM128.65228 -13.59427L128.65228 -13.72674Q129.27048 -13.94752 129.46919 -14.43325Q129.6679 -14.91898 130.02116 -15.40471Q129.88869 -15.6255 129.95492 -15.58134Q130.02116 -15.53719 129.75621 -15.66966Q129.40296 -15.18393 129.11593 -14.76443Q128.82891 -14.34494 128.51981 -13.85921L128.51981 -13.59427ZM137.26295 -6.48494Q137.61621 -6.61741 137.66037 -6.72781Q137.70453 -6.8382 137.92531 -7.05899Q137.79284 -7.32393 137.81492 -7.27977Q137.837 -7.23561 137.5279 -7.32393Q137.43958 -7.10314 137.43958 -7.08106Q137.43958 -7.05899 137.26295 -6.92651ZM132.80307 -7.4564Q133.2888 -7.4564 133.86284 -7.56679Q134.43689 -7.67719 134.92262 -8.00837Q135.40835 -8.33955 135.73953 -8.95775Q136.07071 -9.57595 136.02655 -10.59157Q136.02655 -12.04876 135.67329 -13.13061Q135.32003 -14.21247 133.95116 -14.34494L132.58228 -14.34494Q131.83161 -14.43325 131.58874 -13.68258Q131.34588 -12.93191 131.36796 -11.87213Q131.39003 -10.81236 131.52251 -9.75258Q131.65498 -8.69281 131.65498 -8.11876Q131.56666 -7.7655 131.67706 -7.61095Q131.78745 -7.4564 131.96408 -7.41224Q132.14071 -7.36809 132.3615 -7.41224Q132.58228 -7.4564 132.80307 -7.4564ZM128.34318 -17.34764Q129.09386 -17.56842 129.31464 -18.3191L129.49127 -18.3191Q129.31464 -18.53988 129.38088 -18.49573Q129.44711 -18.45157 129.18217 -18.58404Q129.00554 -18.27494 128.80683 -18.12039Q128.60812 -17.96584 128.51981 -17.61258L128.34318 -17.61258ZM131.96408 -15.22809Q131.87576 -15.71382 131.47835 -16.2437Q131.08093 -16.77359 130.72768 -16.90606Q130.81599 -16.42033 131.03678 -16.00084Q131.25756 -15.58134 131.69914 -15.40471L131.69914 -15.22809ZM137.5279 -10.37078Q137.61621 -10.59157 137.68245 -10.70196Q137.74869 -10.81236 137.92531 -10.94483Q137.79284 -11.20977 137.85908 -11.14354Q137.92531 -11.0773 137.66037 -11.20977Q137.48374 -10.98898 137.41751 -10.87859Q137.35127 -10.7682 137.26295 -10.37078ZM132.6706 -17.34764Q133.02385 -17.43595 133.20048 -17.61258Q133.37711 -17.78921 133.50958 -18.14247L133.64206 -18.14247Q133.50958 -18.40741 133.55374 -18.36325Q133.5979 -18.3191 133.37711 -18.45157Q133.20048 -18.18662 133.04593 -18.07623Q132.89138 -17.96584 132.80307 -17.61258L132.6706 -17.61258ZM140.04486 -12.04876L140.04486 -12.3137L139.73576 -12.3137L139.73576 -12.04876ZM137.66037 -14.43325Q137.74869 -14.6982 137.77076 -14.78651Q137.79284 -14.87483 137.66037 -15.09561Q137.5279 -14.87483 137.43958 -14.78651Q137.35127 -14.6982 137.26295 -14.43325Z" fill="rgb(222, 198, 133)" transform="matrix(1 0 0 1 165.954527 24.948872)"/><path d="M141.50206 14.3573Q140.79554 14.00404 140.64099 13.31961Q140.48644 12.63517 140.50852 11.86242Q140.53059 11.08966 140.53059 10.33899Q140.53059 9.58832 140.13318 9.05843Q140.26565 8.13112 140.81762 7.75579Q141.36958 7.38045 141.94363 6.85056Q142.20857 6.85056 142.84885 6.89472Q143.48913 6.93888 144.17357 7.00511Q144.85801 7.07135 145.45413 7.18174Q146.05026 7.29214 146.22689 7.42461Q146.84509 7.51292 146.97756 7.68955Q147.11003 7.86618 147.46329 8.08697Q147.50745 9.45584 147.63992 10.64809Q147.77239 11.84034 147.77239 13.38584Q147.5516 13.60663 147.39705 13.80534Q147.2425 14.00404 147.06587 14.22483Q146.66846 14.31315 145.89571 14.4677Q145.12295 14.62225 144.28397 14.71056Q143.44498 14.79888 142.67222 14.75472Q141.89947 14.71056 141.50206 14.3573Z" fill="rgb(222, 198, 133)" transform="matrix(1 0 0 1 165.954527 24.948872)"/></g></g>

  </svg>