<svg xmlns="http://www.w3.org/2000/svg" xmlns:xlink="http://www.w3.org/1999/xlink" width="877px" height="254px" viewBox="0 0 876.7863049269217 254.23674336492707">
    <g style="" id="9546b330-b8e6-47b6-b890-b80a56084964">
<g style=""><path d="M-334.32697,77.06642l36.06544,27.17726v-37.46752l-36.06544,-27.17726v37.46752zM-374.27945,61.89786l36.06544,27.17726v-20.71186l-36.06544,-27.17726v20.71186zM-374.27945,41.186l36.06544,27.17726l10.19078,-0.99842l-36.06544,-27.17726l-10.19078,0.99842zM-364.08867,40.18758l36.06544,27.17726v-13.2649l-36.06544,-27.17726v13.2649zM-374.27945,27.92111l36.06544,27.17726v-18.38468l-36.06544,-27.17726v18.38468zM-374.27945,9.53642l36.06544,27.17726l14.01232,-1.37283l-36.06544,-27.17726l-14.01232,1.37283zM-360.26713,24.2211l36.06544,27.17726l25.94016,-2.54144l-36.06544,-27.17726l-25.94016,2.54144zM-334.32697,21.67966l36.06544,27.17726v-35.14034l-36.06544,-27.17726v35.14034zM-412.49486,13.28051l36.06544,27.17726l5.79021,-0.56729l-36.06544,-27.17726l-5.79021,0.56729zM-412.49486,84.72478l36.06544,27.17726l78.16789,-7.65836l-36.06544,-27.17726l-78.16789,7.65836zM-334.32697,77.06642v-37.46752l-25.94016,2.54144v18.38468l-14.01232,1.37283v-20.71186l10.19078,-0.99842v-13.2649l-10.19078,0.99842v-18.38468l14.01232,-1.37283v16.05751l25.94016,-2.54144v-35.14034l-78.16789,7.65836v19.08283l5.79021,-0.56729v52.36143l-5.79021,0.56729v19.08283zM-262.1809,23.33819l36.06544,27.17726l21.88701,-26.92875l-36.06544,-27.17726l-21.88701,26.92875zM-240.29389,-3.59056l36.06544,27.17726l6.02182,-0.58998l-36.06544,-27.17726l-6.02182,0.58998zM-234.27207,-4.18054l36.06544,27.17726v-19.08283l-36.06544,-27.17726v19.08283zM-274.45615,-0.24358l36.06544,27.17726l4.40056,-0.43114l-36.06544,-27.17726l-4.40056,0.43114zM-277.58287,9.60417l36.06544,27.17726l-6.36924,-8.9174l-36.06544,-27.17726l6.36924,8.9174zM-283.9521,0.68677l36.06544,27.17726l4.40056,-0.43114l-36.06544,-27.17726l-4.40056,0.43114zM-279.55154,0.25563l36.06544,27.17726v-19.08283l-36.06544,-27.17726v19.08283zM-322.97815,4.51027l36.06544,27.17726l4.86378,-0.47652l-36.06544,-27.17726l-4.86378,0.47652zM-323.20976,75.97723l36.06544,27.17726l40.5315,-3.971l-36.06544,-27.17726l-40.5315,3.971zM-282.67826,72.00623l36.06544,27.17726v-19.08283l-36.06544,-27.17726v19.08283zM-287.42623,53.38858l36.06544,27.17726l6.71665,-10.19947l-36.06544,-27.17726l-6.71665,10.19947zM-280.70958,43.18911l36.06544,27.17726l1.15804,-0.11346l-36.06544,-27.17726l-1.15804,0.11346zM-277.58287,71.50702l36.06544,27.17726l43.77402,-4.28868l-36.06544,-27.17726l-43.77402,4.28868zM-233.80885,67.21834l36.06544,27.17726v-19.08283l-36.06544,-27.17726v19.08283zM-238.67263,48.61203l36.06544,27.17726l-23.50827,-25.27384l-36.06544,-27.17726l23.50827,25.27384zM-262.1809,23.33819l21.88701,-26.92875l6.02182,-0.58998v-19.08283l-40.18409,3.93696v19.08283l4.40056,-0.43114l-6.36924,10.16543l-1.15804,0.11346l-6.36924,-8.9174l4.40056,-0.43114v-19.08283l-43.42661,4.25464v19.08283l4.86378,-0.47652l23.16086,24.9588l-22.23442,27.31187l-6.02182,0.58998v19.08283l40.5315,-3.971v-19.08283l-4.74798,0.46517l6.71665,-10.19947l1.15804,-0.11346l6.71665,8.88337l-4.74798,0.46517v19.08283l43.77402,-4.28868v-19.08283l-4.86378,0.47652zM-222.46003,66.10646l36.06544,27.17726l49.33263,-4.83327l-36.06544,-27.17726l-49.33263,4.83327zM-173.1274,61.27319l36.06544,27.17726v-19.08283l-36.06544,-27.17726v19.08283zM-184.24462,43.27955l36.06544,27.17726v-16.75566l-36.06544,-27.17726v16.75566zM-184.24462,26.52389l36.06544,27.17726l12.62267,-1.23668l-36.06544,-27.17726l-12.62267,1.23668zM-171.62195,25.2872l36.06544,27.17726c9.95917,-0.97573 17.56365,-3.8734 22.81344,-8.69302l-36.06544,-27.17726c-5.24979,4.81961 -12.85428,7.71728 -22.81344,8.69302zM-148.8085,16.59419l36.06544,27.17726c5.24979,-4.81961 7.87469,-12.03891 7.87469,-21.6579l-36.06544,-27.17726c0,9.61899 -2.6249,16.83829 -7.87469,21.6579zM-140.93381,-5.06371l36.06544,27.17726c0,-9.61899 -2.6249,-16.32395 -7.87469,-20.11489l-36.06544,-27.17726c5.24979,3.79093 7.87469,10.4959 7.87469,20.11489zM-222.46003,-5.3378l36.06544,27.17726l5.79021,-0.56729l-36.06544,-27.17726l-5.79021,0.56729zM-222.46003,66.10646l49.33263,-4.83327v-19.08283l-11.11721,1.08919v-16.75566l12.62267,-1.23668c9.95917,-0.97573 17.56365,-3.8734 22.81344,-8.69302c5.24979,-4.81961 7.87469,-12.03891 7.87469,-21.6579c0,-9.61899 -2.6249,-16.32395 -7.87469,-20.11489c-5.24979,-3.79093 -12.85428,-5.19854 -22.81344,-4.22281l-50.83808,4.98077v19.08283l5.79021,-0.56729v52.36143l-5.79021,0.56729zM-184.24462,10.00095l36.06544,27.17726v-19.08283l-36.06544,-27.17726v19.08283zM-184.24462,-9.08189l36.06544,27.17726l3.93735,-0.38575l-36.06544,-27.17726l-3.93735,0.38575zM-180.30727,-9.46764l36.06544,27.17726c1.98012,-0.194 3.52242,0.12515 4.62691,0.95744l-36.06544,-27.17726c-1.10449,-0.83229 -2.64679,-1.15144 -4.62691,-0.95744zM-184.24462,10.00095v-19.08283l3.93735,-0.38575c1.98012,-0.194 3.52242,0.12515 4.62691,0.95744c0.14434,0.10876 0.28119,0.22629 0.41058,0.35258c1.11944,1.0927 1.67916,2.91899 1.67916,5.47889v4.18891c0,4.96464 -2.23888,7.66631 -6.71665,8.10501zM-57.90214,49.98421l36.06544,27.17726v-29.78784l-36.06544,-27.17726v29.78784zM-91.36958,34.18029l36.06544,27.17726v-52.36143l-36.06544,-27.17726v52.36143zM-91.36958,-18.18115l36.06544,27.17726l10.65399,-1.04381l-36.06544,-27.17726l-10.65399,1.04381zM-80.71559,-19.22495l36.06544,27.17726v-19.08283l-36.06544,-27.17726v19.08283zM-129.58499,-14.43706l36.06544,27.17726l5.79021,-0.56729l-36.06544,-27.17726l-5.79021,0.56729zM-129.58499,57.0072l36.06544,27.17726l71.68285,-7.023l-36.06544,-27.17726l-71.68285,7.023zM-57.90214,49.98421v-29.78784l-23.04505,2.2578v10.705l-10.42239,1.02111v-52.36143l10.65399,-1.04381v-19.08283l-48.86941,4.78789v19.08283l5.79021,-0.56729v52.36143l-5.79021,0.56729v19.08283zM29.7038,31.85976l36.06544,27.17726c7.68168,-8.19956 11.52253,-20.48324 11.52253,-36.85103l-36.06544,-27.17726c0,16.3678 -3.84084,28.65147 -11.52253,36.85103zM41.22633,-4.99127l36.06544,27.17726c0,-16.3678 -3.84084,-27.89888 -11.52253,-34.59324l-36.06544,-27.17726c7.68168,6.69436 11.52253,18.22544 11.52253,34.59324zM29.7038,-39.58451l36.06544,27.17726c-0.53787,-0.46874 -1.09154,-0.91767 -1.66102,-1.3468l-36.06544,-27.17726c0.56948,0.42913 1.12315,0.87807 1.66102,1.3468zM-34.0646,39.61689l36.06544,27.17726c7.56359,5.69957 17.91482,7.90573 31.05369,6.61847l-36.06544,-27.17726c-13.13887,1.28726 -23.4901,-0.9189 -31.05369,-6.61847zM-3.01091,46.23536l36.06544,27.17726c14.12812,-1.38418 25.03303,-6.17604 32.71471,-14.3756l-36.06544,-27.17726c-7.68168,8.19956 -18.58659,12.99143 -32.71471,14.3756zM29.7038,31.85976c7.68168,-8.19956 11.52253,-20.48324 11.52253,-36.85103c0,-16.3678 -3.84084,-27.89888 -11.52253,-34.59324c-0.53787,-0.46874 -1.09154,-0.91767 -1.66102,-1.3468c-7.56359,-5.69957 -17.91482,-7.90573 -31.05369,-6.61847c-14.12812,1.38418 -25.03303,6.17604 -32.71471,14.3756c-7.68168,8.19956 -11.52253,20.48324 -11.52253,36.85103c0,16.3678 3.84084,27.89888 11.52253,34.59324c0.53787,0.46874 1.09154,0.91767 1.66102,1.3468c7.56359,5.69957 17.91482,7.90573 31.05369,6.61847c14.12812,-1.38418 25.03303,-6.17604 32.71471,-14.3756zM-8.91693,24.06586l36.06544,27.17726c-1.31245,-1.22893 -1.96867,-3.35606 -1.96867,-6.38139l-36.06544,-27.17726c0,3.02533 0.65622,5.15246 1.96867,6.38139zM-10.8856,17.68447l36.06544,27.17726v-35.14034l-36.06544,-27.17726v35.14034zM-10.8856,-17.45587l36.06544,27.17726c0,-2.94775 0.65622,-5.18408 1.96867,-6.70897l-36.06544,-27.17726c-1.31245,1.52489 -1.96867,3.76121 -1.96867,6.70897zM-8.91693,-24.16484l36.06544,27.17726c1.31245,-1.52489 3.28112,-2.41592 5.90602,-2.67309l-36.06544,-27.17726c-2.6249,0.25717 -4.59357,1.1482 -5.90602,2.67309zM-3.01091,-26.83793l36.06544,27.17726c2.33387,-0.22866 4.14896,0.14544 5.44528,1.12228l-36.06544,-27.17726c-1.29632,-0.97684 -3.11141,-1.35094 -5.44528,-1.12228zM-8.51675,24.40231l36.06544,27.17726c-0.13956,-0.10517 -0.27295,-0.21731 -0.40018,-0.33645l-36.06544,-27.17726c0.12723,0.11913 0.26062,0.23128 0.40018,0.33645zM-8.91693,24.06586c-1.31245,-1.22893 -1.96867,-3.35606 -1.96867,-6.38139v-35.14034c0,-2.94775 0.65622,-5.18408 1.96867,-6.70897c1.31245,-1.52489 3.28112,-2.41592 5.90602,-2.67309c2.33387,-0.22866 4.14896,0.14544 5.44528,1.12228c0.16165,0.12181 0.31523,0.25299 0.46074,0.39355c1.31245,1.26772 1.96867,3.37546 1.96867,6.32321v35.14034c0,2.94775 -0.65622,5.18408 -1.96867,6.70897c-1.31245,1.52489 -3.28112,2.41592 -5.90602,2.67309c-2.37044,0.23224 -4.20572,-0.14149 -5.50584,-1.1212c-0.13956,-0.10517 -0.27295,-0.21731 -0.40018,-0.33645zM52.57515,39.1604l36.06544,27.17726l45.8585,-4.4929l-36.06544,-27.17726l-45.8585,4.4929zM98.43364,34.6675l36.06544,27.17726v-19.08283l-36.06544,-27.17726v19.08283zM90.79056,16.33348l36.06544,27.17726v-19.08283l-36.06544,-27.17726v19.08283zM90.79056,-2.74935l36.06544,27.17726c3.47413,-0.34037 6.15693,-0.33171 8.0484,0.02598l-36.06544,-27.17726c-1.89147,-0.35769 -4.57427,-0.36636 -8.0484,-0.02598zM98.83896,-2.72337l36.06544,27.17726c1.08391,0.20498 2.00302,0.59168 2.75735,1.1601l-36.06544,-27.17726c-0.75433,-0.56843 -1.67344,-0.95513 -2.75735,-1.1601zM104.33966,34.08887l36.06544,27.17726l36.70996,-3.59659l-36.06544,-27.17726l-36.70996,3.59659zM141.04962,30.49228l36.06544,27.17726v-19.08283l-36.06544,-27.17726v19.08283zM135.60682,11.94269l36.06544,27.17726v-8.95962l-36.06544,-27.17726v8.95962zM135.60682,2.98307l36.06544,27.17726c0,-4.85936 -1.3707,-8.32193 -4.1121,-10.38773l-36.06544,-27.17726c2.7414,2.06579 4.1121,5.52837 4.1121,10.38773zM124.48961,-9.65808l36.06544,27.17726l-0.1158,-1.15224l-36.06544,-27.17726l0.1158,1.15224zM124.3738,-10.81032l36.06544,27.17726c3.86014,-1.85207 6.83245,-4.78074 8.91693,-8.78601l-36.06544,-27.17726c-2.08448,4.00528 -5.05679,6.93395 -8.91693,8.78601zM133.29073,-19.59633l36.06544,27.17726c2.08448,-4.00528 3.12672,-8.60659 3.12672,-13.80395l-36.06544,-27.17726c0,5.19736 -1.04224,9.79867 -3.12672,13.80395zM136.41745,-33.40028l36.06544,27.17726c0,-9.23113 -2.6249,-15.64519 -7.87469,-19.2422l-36.06544,-27.17726c5.24979,3.597 7.87469,10.01107 7.87469,19.2422zM52.57515,-32.28387l36.06544,27.17726l5.79021,-0.56729l-36.06544,-27.17726l-5.79021,0.56729zM52.57515,39.1604l45.8585,-4.4929v-19.08283l-7.64308,0.74882v-19.08283c3.47413,-0.34037 6.15693,-0.33171 8.0484,0.02598c1.08391,0.20498 2.00302,0.59168 2.75735,1.1601c0.56201,0.4235 1.03254,0.94788 1.4116,1.57314c0.88783,1.46447 1.33175,3.70936 1.33175,6.73469v27.3443l36.70996,-3.59659v-19.08283l-5.4428,0.53325v-8.95962c0,-4.85936 -1.3707,-8.32193 -4.1121,-10.38773c-1.76613,-1.33087 -4.10117,-2.08201 -7.00511,-2.25342l-0.1158,-1.15224c3.86014,-1.85207 6.83245,-4.78074 8.91693,-8.78601c2.08448,-4.00528 3.12672,-8.60659 3.12672,-13.80395c0,-9.23113 -2.6249,-15.64519 -7.87469,-19.2422c-5.24979,-3.597 -12.85428,-4.90764 -22.81344,-3.93191l-53.15417,5.20768v19.08283l5.79021,-0.56729v52.36143l-5.79021,0.56729zM90.79056,-16.94512l36.06544,27.17726v-19.08283l-36.06544,-27.17726v19.08283zM90.79056,-36.02795l36.06544,27.17726l6.25343,-0.61267l-36.06544,-27.17726l-6.25343,0.61267zM97.04399,-36.64062l36.06544,27.17726c1.98012,-0.194 3.52242,0.12515 4.62691,0.95744l-36.06544,-27.17726c-1.10449,-0.83229 -2.64679,-1.15144 -4.62691,-0.95744zM90.79056,-16.94512v-19.08283l6.25343,-0.61267c1.98012,-0.194 3.52242,0.12515 4.62691,0.95744c0.14434,0.10876 0.28119,0.22629 0.41058,0.35258c1.11944,1.0927 1.67916,2.91899 1.67916,5.47889v4.18891c0,2.55989 -0.55972,4.49586 -1.67916,5.80791c-1.11944,1.31205 -2.7986,2.07775 -5.03749,2.2971zM196.63567,25.04634l36.06544,27.17726v-19.08283l-36.06544,-27.17726v19.08283zM190.84546,6.53079l36.06544,27.17726v-52.36143l-36.06544,-27.17726v52.36143zM190.84546,-45.83065l36.06544,27.17726l5.79021,-0.56729l-36.06544,-27.17726l-5.79021,0.56729zM196.63567,-46.39793l36.06544,27.17726v-19.08283l-36.06544,-27.17726v19.08283zM152.63005,-42.08656l36.06544,27.17726l5.79021,-0.56729l-36.06544,-27.17726l-5.79021,0.56729zM152.63005,29.35771l36.06544,27.17726l44.00563,-4.31137l-36.06544,-27.17726l-44.00563,4.31137zM196.63567,25.04634v-19.08283l-5.79021,0.56729v-52.36143l5.79021,-0.56729v-19.08283l-44.00563,4.31137v19.08283l5.79021,-0.56729v52.36143l-5.79021,0.56729v19.08283zM275.38259,-54.11302l36.06544,27.17726l5.55861,-0.54459l-36.06544,-27.17726l-5.55861,0.54459zM280.94119,-27.08059l36.06544,27.17726l-30.45653,-43.67593l-36.06544,-27.17726l30.45653,43.67593zM208.67932,-47.57789l36.06544,27.17726l5.79021,-0.56729l-36.06544,-27.17726l-5.79021,0.56729zM208.67932,23.86638l36.06544,27.17726l37.98381,-3.72139l-36.06544,-27.17726l-37.98381,3.72139zM246.66313,20.14499l36.06544,27.17726v-19.08283l-36.06544,-27.17726v19.08283zM241.10452,1.60675l36.06544,27.17726v-33.39496l-36.06544,-27.17726v33.39496zM275.03518,17.36529l36.06544,27.17726l32.541,-3.18814l-36.06544,-27.17726l-32.541,3.18814zM307.57618,14.17714l36.06544,27.17726v-71.44427l-36.06544,-27.17726v71.44427zM307.57618,-57.26713l36.06544,27.17726l5.79021,-0.56729l-36.06544,-27.17726l-5.79021,0.56729zM313.36639,-57.83441l36.06544,27.17726v-19.08283l-36.06544,-27.17726v19.08283zM275.38259,-54.11302l5.55861,-0.54459v27.57702l-30.45653,-43.67593l-41.80535,4.0958v19.08283l5.79021,-0.56729v52.36143l-5.79021,0.56729v19.08283l37.98381,-3.72139v-19.08283l-5.55861,0.54459v-33.39496l33.93066,49.1535l32.541,-3.18814v-71.44427l5.79021,-0.56729v-19.08283l-37.98381,3.72139zM371.50014,-21.17538l36.06544,27.17726l6.25343,-0.61267l-36.06544,-27.17726l-6.25343,0.61267zM363.31214,-12.10111l36.06544,27.17726c-0.15475,-0.11661 -0.30122,-0.24154 -0.43941,-0.37479l-36.06544,-27.17726c0.13819,0.13325 0.28466,0.25818 0.43941,0.37479zM362.87272,-12.4759l36.06544,27.17726c-1.35105,-1.30272 -2.02657,-3.58311 -2.02657,-6.84115l-36.06544,-27.17726c0,3.25804 0.67552,5.53843 2.02657,6.84115zM360.84615,-19.31706l36.06544,27.17726v-33.97675l-36.06544,-27.17726v33.97675zM360.84615,-53.29381l36.06544,27.17726c0,-3.25804 0.67552,-5.6708 2.02657,-7.23825l-36.06544,-27.17726c-1.35105,1.56746 -2.02657,3.98021 -2.02657,7.23825zM362.87272,-60.53207l36.06544,27.17726c1.35105,-1.56746 3.49343,-2.4949 6.42714,-2.78232l-36.06544,-27.17726c-2.93371,0.28742 -5.07609,1.21487 -6.42714,2.78232zM369.29986,-63.31439l36.06544,27.17726c2.63363,-0.25803 4.62954,0.12469 5.98772,1.14816l-36.06544,-27.17726c-1.35818,-1.02346 -3.35409,-1.40618 -5.98772,-1.14816zM377.75358,-49.48142l36.06544,27.17726l28.95107,-2.83643l-36.06544,-27.17726l-28.95107,2.83643zM406.70465,-52.31785l36.06544,27.17726v-27.80974l-36.06544,-27.17726v27.80974zM338.05729,2.51645l36.06544,27.17726c8.06659,6.07861 18.944,8.44738 32.63223,7.1063l-36.06544,-27.17726c-13.68823,1.34108 -24.56564,-1.02769 -32.63223,-7.1063zM370.68951,9.62275l36.06544,27.17726c7.56588,-0.74125 14.61064,-2.18778 21.13428,-4.33959l-36.06544,-27.17726c-6.52364,2.15181 -13.5684,3.59833 -21.13428,4.33959zM391.8238,5.28317l36.06544,27.17726c6.52364,-2.15181 11.48392,-4.36377 14.88085,-6.63589l-36.06544,-27.17726c-3.39693,2.27212 -8.35721,4.48408 -14.88085,6.63589zM406.70465,-1.35272l36.06544,27.17726v-23.27175l-36.06544,-27.17726v23.27175zM406.70465,-24.62447l36.06544,27.17726l5.79021,-0.56729l-36.06544,-27.17726l-5.79021,0.56729zM412.49486,-25.19176l36.06544,27.17726v-17.33745l-36.06544,-27.17726v17.33745zM412.49486,-42.52921l-40.99472,4.01638v17.33745l6.25343,-0.61267v0.81451c0,3.25804 -0.67552,5.6708 -2.02657,7.23825c-1.35105,1.56746 -3.49343,2.4949 -6.42714,2.78232c-2.63363,0.25803 -4.62954,-0.12469 -5.98772,-1.14816c-0.15475,-0.11661 -0.30122,-0.24154 -0.43941,-0.37479c-1.35105,-1.30272 -2.02657,-3.58311 -2.02657,-6.84115v-33.97675c0,-3.25804 0.67552,-5.6708 2.02657,-7.23825c1.35105,-1.56746 3.49343,-2.4949 6.42714,-2.78232c2.63363,-0.25803 4.62954,0.12469 5.98772,1.14816c0.15475,0.11661 0.30122,0.24154 0.43941,0.37479c1.35105,1.30272 2.02657,3.58311 2.02657,6.84115v5.46886l28.95107,-2.83643v-27.80974c-3.24252,-1.62163 -8.0677,-2.89428 -14.47554,-3.81793c-6.40784,-0.92365 -13.27889,-1.0262 -20.61316,-0.30764c-15.13176,1.48251 -26.77009,6.34623 -34.91499,14.59117c-8.1449,8.24494 -12.21735,20.55131 -12.21735,36.91911c0,15.97993 4.09175,27.38946 12.27525,34.22859c0.4244,0.35468 0.85721,0.69826 1.29843,1.03074c8.06659,6.07861 18.944,8.44738 32.63223,7.1063c7.56588,-0.74125 14.61064,-2.18778 21.13428,-4.33959c6.52364,-2.15181 11.48392,-4.36377 14.88085,-6.63589v-23.27175l5.79021,-0.56729z" fill="rgb(0, 0, 0)" stroke="rgb(0, 0, 0)" stroke-width="11.99963171653209" stroke-linejoin="round" transform="matrix(0.999803 -0.01984 0.01984 0.999803 421.33664 161.344938)"/><path d="" fill="rgb(62, 208, 203)" transform="matrix(0.999803 -0.01984 0.01984 0.999803 421.33664 161.344938)"/><path d="M-412.49486 84.72478L-412.49486 65.64194L-406.70465 65.07466L-406.70465 12.71322L-412.49486 13.28051L-412.49486 -5.80233L-334.32697 -13.46068L-334.32697 21.67966L-360.26713 24.2211L-360.26713 8.16359L-374.27945 9.53642L-374.27945 27.92111L-364.08867 26.92268L-364.08867 40.18758L-374.27945 41.186L-374.27945 61.89786L-360.26713 60.52503L-360.26713 42.14035L-334.32697 39.59891L-334.32697 77.06642Z" fill="rgb(62, 208, 203)" transform="matrix(0.999803 -0.01984 0.01984 0.999803 421.33664 161.344938)"/><path d="M-238.67263 48.61203L-233.80885 48.13551L-233.80885 67.21834L-277.58287 71.50702L-277.58287 52.42419L-272.83489 51.95902L-279.55154 43.07565L-280.70958 43.18911L-287.42623 53.38858L-282.67826 52.9234L-282.67826 72.00623L-323.20976 75.97723L-323.20976 56.8944L-317.18793 56.30442L-294.95351 28.99256L-318.11437 4.03375L-322.97815 4.51027L-322.97815 -14.57256L-279.55154 -18.8272L-279.55154 0.25563L-283.9521 0.68677L-277.58287 9.60417L-276.42483 9.49071L-270.05559 -0.67472L-274.45615 -0.24358L-274.45615 -19.32641L-234.27207 -23.26338L-234.27207 -4.18054L-240.29389 -3.59056L-262.1809 23.33819Z" fill="rgb(62, 208, 203)" transform="matrix(0.999803 -0.01984 0.01984 0.999803 421.33664 161.344938)"/><path d="M-222.46003 47.02363L-216.66982 46.45635L-216.66982 -5.90509L-222.46003 -5.3378L-222.46003 -24.42064L-171.62195 -29.40141Q-156.6832 -30.865 -148.8085 -25.1786Q-140.93381 -19.4922 -140.93381 -5.06371Q-140.93381 9.36477 -148.8085 16.59419Q-156.6832 23.82361 -171.62195 25.2872L-184.24462 26.52389L-184.24462 43.27955L-173.1274 42.19036L-173.1274 61.27319L-222.46003 66.10646ZM-180.30727 9.61519Q-173.59062 8.95714 -173.59062 1.51018L-173.59062 -2.67873Q-173.59062 -6.51857 -175.26978 -8.15762Q-176.94895 -9.79667 -180.30727 -9.46764L-184.24462 -9.08189L-184.24462 10.00095Z" fill="rgb(62, 208, 203)" transform="matrix(0.999803 -0.01984 0.01984 0.999803 421.33664 161.344938)"/><path d="M-129.58499 57.0072L-129.58499 37.92437L-123.79478 37.35708L-123.79478 -15.00435L-129.58499 -14.43706L-129.58499 -33.5199L-80.71559 -38.30779L-80.71559 -19.22495L-91.36958 -18.18115L-91.36958 34.18029L-80.94719 33.15917L-80.94719 22.45417L-57.90214 20.19637L-57.90214 49.98421Z" fill="rgb(62, 208, 203)" transform="matrix(0.999803 -0.01984 0.01984 0.999803 421.33664 161.344938)"/><path d="M-3.01091 46.23536Q-24.2031 48.31163 -35.72562 38.27009Q-47.24815 28.22855 -47.24815 3.67685Q-47.24815 -20.87484 -35.72562 -33.17418Q-24.2031 -45.47352 -3.01091 -47.54978Q18.18127 -49.62605 29.7038 -39.58451Q41.22633 -29.54297 41.22633 -4.99127Q41.22633 19.56042 29.7038 31.85976Q18.18127 44.1591 -3.01091 46.23536ZM-3.01091 25.52351Q0.92643 25.13775 2.89511 22.85042Q4.86378 20.56308 4.86378 16.14145L4.86378 -18.99889Q4.86378 -23.42052 2.89511 -25.3221Q0.92643 -27.22368 -3.01091 -26.83793Q-6.94826 -26.45217 -8.91693 -24.16484Q-10.8856 -21.8775 -10.8856 -17.45587L-10.8856 17.68447Q-10.8856 22.22246 -8.91693 24.06586Q-6.94826 25.90926 -3.01091 25.52351Z" fill="rgb(62, 208, 203)" transform="matrix(0.999803 -0.01984 0.01984 0.999803 421.33664 161.344938)"/><path d="M52.57515 20.07757L58.36536 19.51028L58.36536 -32.85115L52.57515 -32.28387L52.57515 -51.3667L105.72931 -56.57438Q120.66806 -58.03798 128.54276 -52.64248Q136.41745 -47.24697 136.41745 -33.40028Q136.41745 -25.60424 133.29073 -19.59633Q130.16402 -13.58842 124.3738 -10.81032L124.48961 -9.65808Q135.60682 -9.00188 135.60682 2.98307L135.60682 11.94269L141.04962 11.40944L141.04962 30.49228L104.33966 34.08887L104.33966 6.74456Q104.33966 2.20657 103.00791 0.00987Q101.67616 -2.18683 98.83896 -2.72337Q96.00175 -3.25991 90.79056 -2.74935L90.79056 16.33348L98.43364 15.58466L98.43364 34.6675L52.57515 39.1604ZM97.04399 -17.55779Q100.40231 -17.88681 102.08148 -19.85489Q103.76064 -21.82296 103.76064 -25.6628L103.76064 -29.85171Q103.76064 -33.69155 102.08148 -35.3306Q100.40231 -36.96965 97.04399 -36.64062L90.79056 -36.02795L90.79056 -16.94512Z" fill="rgb(62, 208, 203)" transform="matrix(0.999803 -0.01984 0.01984 0.999803 421.33664 161.344938)"/><path d="M152.63005 29.35771L152.63005 10.27487L158.42026 9.70759L158.42026 -42.65385L152.63005 -42.08656L152.63005 -61.1694L196.63567 -65.48077L196.63567 -46.39793L190.84546 -45.83065L190.84546 6.53079L196.63567 5.9635L196.63567 25.04634Z" fill="rgb(62, 208, 203)" transform="matrix(0.999803 -0.01984 0.01984 0.999803 421.33664 161.344938)"/><path d="M275.38259 -73.19585L313.36639 -76.91725L313.36639 -57.83441L307.57618 -57.26713L307.57618 14.17714L275.03518 17.36529L241.10452 -31.78821L241.10452 1.60675L246.66313 1.06215L246.66313 20.14499L208.67932 23.86638L208.67932 4.78355L214.46953 4.21626L214.46953 -48.14517L208.67932 -47.57789L208.67932 -66.66072L250.48467 -70.75652L280.94119 -27.08059L280.94119 -54.65761L275.38259 -54.11302Z" fill="rgb(62, 208, 203)" transform="matrix(0.999803 -0.01984 0.01984 0.999803 421.33664 161.344938)"/><path d="M412.49486 -25.19176L406.70465 -24.62447L406.70465 -1.35272Q401.60926 2.05546 391.8238 5.28317Q382.03833 8.51087 370.68951 9.62275Q349.03411 11.7444 336.75886 1.48571Q324.4836 -8.77298 324.4836 -32.74288Q324.4836 -57.29458 336.70096 -69.66199Q348.91831 -82.0294 371.61595 -84.25316Q382.61736 -85.331 392.22911 -83.94552Q401.84087 -82.56004 406.70465 -80.12759L406.70465 -52.31785L377.75358 -49.48142L377.75358 -54.95029Q377.75358 -59.83735 375.727 -61.79144Q373.70043 -63.74553 369.29986 -63.31439Q364.8993 -62.88325 362.87272 -60.53207Q360.84615 -58.18088 360.84615 -53.29381L360.84615 -19.31706Q360.84615 -14.42999 362.87272 -12.4759Q364.8993 -10.52182 369.29986 -10.95295Q373.70043 -11.38409 375.727 -13.73528Q377.75358 -16.08647 377.75358 -20.97353L377.75358 -21.78804L371.50014 -21.17538L371.50014 -38.51283L412.49486 -42.52921Z" fill="rgb(62, 208, 203)" transform="matrix(0.999803 -0.01984 0.01984 0.999803 421.33664 161.344938)"/><path d="" fill="rgb(62, 208, 203)" transform="matrix(0.999803 -0.01984 0.01984 0.999803 421.33664 161.344938)"/></g></g>

  </svg>