<svg xmlns="http://www.w3.org/2000/svg" xmlns:xlink="http://www.w3.org/1999/xlink" width="373px" height="223px" viewBox="0 0 373.14469681745686 222.82251799358096">
    <g style="" id="487ca807-3987-40f6-9ccd-9fcf28668ba3">
<g style=""><path d="" fill="rgb(37, 37, 37)" transform="matrix(1 0 0 1 186.57109 155.283264)"/><path d="M-168.92927 0.81339Q-170.8829 2.56137 -170.8829 4.32956Q-170.8829 6.09775 -168.27807 5.68516Q-167.15325 5.50699 -165.37723 4.56635L-165.31803 4.55697Q-165.02203 4.51009 -165.02203 5.73883Q-165.02203 6.96758 -165.25883 7.24484Q-171.3565 12.58622 -175.55975 13.252Q-179.76301 13.91778 -181.65743 11.8203Q-183.55185 9.72282 -183.55185 5.85677Q-183.55185 1.99072 -179.3486 -3.02062Q-175.14535 -8.03197 -168.04126 -12.84347Q-160.93718 -17.65496 -150.42905 -21.71697Q-139.92092 -25.77897 -126.80796 -27.85602Q-113.695 -29.93307 -104.87409 -26.14556Q-96.05318 -22.35806 -96.05318 -15.73482Q-96.05318 -9.11159 -100.64124 -1.55184Q-105.22929 6.00792 -112.12618 12.16519Q-119.02306 18.32246 -127.42956 22.89071Q-135.83607 27.45897 -142.46655 28.50922Q-149.09703 29.55946 -152.76748 24.74636Q-161.76599 40.49706 -164.96282 46.24807Q-168.15966 51.99908 -170.37969 55.91709Q-172.59972 59.83509 -173.81333 62.06524Q-175.02695 64.29539 -175.08615 64.36471Q-176.32936 65.94022 -177.75018 66.16527L-180.65102 67.1642L-182.07183 67.26938L-183.07825 67.42879Q-186.57109 67.98205 -186.57109 65.76431Q-186.57109 62.94719 -174.90855 42.69867Q-163.246 22.45016 -152.91548 5.82914Q-142.58495 -10.79187 -140.86813 -12.92191Q-139.15131 -15.05195 -137.81929 -15.5926Q-136.48728 -16.13325 -133.52724 -16.60211L-130.5672 -17.07097Q-129.79759 -17.19288 -129.79759 -15.96413Q-129.79759 -14.73539 -130.0936 -14.20899Q-135.30326 -6.01133 -148.91943 17.90321Q-148.44582 18.78721 -147.35061 18.85349Q-146.2554 18.91976 -145.01218 18.72284L-143.29536 18.4509Q-137.84889 17.5882 -131.51441 13.91757Q-125.17994 10.24693 -120.38468 5.77117Q-115.58942 1.29542 -112.36298 -3.26151Q-109.13654 -7.81843 -109.13654 -10.6955Q-109.13654 -13.57256 -110.91256 -15.56892Q-112.68858 -17.56527 -115.76702 -18.39631Q-121.8055 -20.01721 -130.4192 -18.65282Q-139.03291 -17.28844 -151.19866 -10.83605Q-163.36441 -4.38366 -168.92927 0.81339Z" fill="rgb(37, 37, 37)" transform="matrix(1 0 0 1 186.57109 155.283264)"/><path d="M-69.11685 3.76428Q-64.61759 3.05161 -64.61759 6.16843Q-64.61759 7.84672 -65.3872 8.74782Q-66.15681 9.64893 -68.67284 14.45296Q-71.18887 19.25699 -74.23771 26.60291Q-77.28655 33.94883 -78.17456 38.94453Q-78.35216 39.57204 -78.35216 40.65094Q-78.35216 43.94758 -76.57614 43.66626Q-74.80012 43.38494 -72.37289 41.29222Q-69.94566 39.1995 -68.05124 36.95142Q-66.15681 34.70334 -64.35119 32.37942Q-62.54557 30.0555 -62.19036 29.69954Q-61.83516 29.34358 -61.12475 29.23106Q-59.99994 29.05289 -59.76313 30.75361Q-59.52633 32.45432 -59.52633 34.31242Q-59.52633 36.17053 -59.88154 36.94605Q-61.59836 40.6345 -67.42963 46.35326Q-73.2609 52.07202 -78.02656 52.82688Q-82.79222 53.58174 -85.04184 51.00108Q-87.29147 48.42041 -87.29147 44.85405Q-87.29147 41.2877 -86.10746 38.40291Q-91.02112 45.6546 -97.3852 51.15806Q-103.74927 56.66152 -107.77492 57.29916Q-111.80057 57.93681 -114.3462 55.88254Q-117.60224 53.34141 -117.60224 47.91695Q-117.60224 42.49249 -115.20461 36.62832Q-112.80698 30.76414 -108.89974 25.61987Q-104.99249 20.4756 -100.31563 16.01859Q-90.48831 6.66994 -82.20021 5.35713Q-79.00337 4.85076 -76.99055 5.61083Q-74.97772 6.37091 -74.44491 7.90486Q-73.0241 5.52201 -72.04728 4.79787Q-71.07047 4.07373 -69.11685 3.76428ZM-76.99055 11.66465Q-87.11387 13.26815 -97.9476 26.37255Q-101.79565 31.0579 -105.02209 37.26314Q-108.24853 43.46838 -108.24853 45.56624Q-108.24853 47.6641 -107.06451 47.47656Q-105.40689 47.21399 -97.8292 39.39048Q-90.25151 31.56696 -87.76508 28.0563Q-85.04184 24.1485 -76.99055 11.66465Z" fill="rgb(37, 37, 37)" transform="matrix(1 0 0 1 186.57109 155.283264)"/><path d="M-45.55496 12.919Q-31.58359 -5.35762 -21.75627 -6.91423Q-19.32904 -7.2987 -17.76022 -6.07869Q-16.1914 -4.85869 -16.1914 -2.52107Q-16.1914 -0.18346 -19.47704 5.82137Q-22.76268 11.82621 -25.54511 16.04308Q-27.02513 18.19555 -28.88995 18.49093Q-30.75478 18.78631 -31.79079 17.57182Q-32.8268 16.35733 -32.8268 14.49923Q-32.8268 10.36345 -28.44595 4.45486L-28.56435 4.35374Q-30.51797 4.843 -38.24367 13.67895Q-45.96936 22.5149 -51.38623 29.39676Q-56.8031 36.27862 -63.13758 45.91317Q-64.9728 48.78123 -66.24561 48.98284Q-67.51843 49.18445 -69.62005 48.70817Q-71.72168 48.23188 -72.16569 47.94258Q-72.60969 47.65327 -72.60969 46.81413Q-72.60969 45.97499 -72.13609 44.7911Q-71.66248 43.60722 -70.38966 41.36769Q-69.11685 39.12816 -66.54162 34.16491Q-63.96639 29.20165 -58.51992 19.10838Q-53.07345 9.0151 -52.00784 6.92827Q-49.75821 2.61598 -48.33739 0.59276Q-45.67336 -3.24572 -39.33888 -4.24908Q-37.91807 -4.47413 -37.91807 -2.67597Q-37.91807 0.14115 -43.06853 8.74901Z" fill="rgb(37, 37, 37)" transform="matrix(1 0 0 1 186.57109 155.283264)"/><path d="M22.58508 -10.76099Q27.08433 -11.47366 27.08433 -8.35684Q27.08433 -6.67856 26.31472 -5.77745Q25.54511 -4.87634 23.02908 -0.07231Q20.51305 4.73172 17.46421 12.07764Q14.41538 19.42355 13.52737 24.41925Q13.34976 25.04677 13.34976 26.12567Q13.34976 29.4223 15.12579 29.14099Q16.90181 28.85967 19.32904 26.76695Q21.75627 24.67423 23.65069 22.42615Q25.54511 20.17807 27.35074 17.85415Q29.15636 15.53022 29.51156 15.17427Q29.86677 14.81831 30.57718 14.70578Q31.70199 14.52762 31.93879 16.22833Q32.17559 17.92905 32.17559 19.78715Q32.17559 21.64525 31.82039 22.42078Q30.10357 26.10923 24.2723 31.82799Q18.44103 37.54674 13.67537 38.30161Q8.90971 39.05647 6.66008 36.47581Q4.41045 33.89514 4.41045 30.32878Q4.41045 26.76242 5.59447 23.87763Q0.68081 31.12933 -5.68327 36.63279Q-12.04735 42.13624 -16.073 42.77389Q-20.09865 43.41154 -22.64428 41.35727Q-25.90032 38.81614 -25.90032 33.39168Q-25.90032 27.96722 -23.50269 22.10304Q-21.10506 16.23887 -17.19781 11.0946Q-13.29056 5.95032 -8.61371 1.49332Q1.21361 -7.85534 9.50172 -9.16814Q12.69856 -9.67451 14.71138 -8.91444Q16.72421 -8.15436 17.25701 -6.62041Q18.67783 -9.00326 19.65464 -9.7274Q20.63145 -10.45154 22.58508 -10.76099ZM14.71138 -2.86062Q4.58806 -1.25712 -6.24568 11.84727Q-10.09372 16.53263 -13.32016 22.73787Q-16.5466 28.94311 -16.5466 31.04097Q-16.5466 33.13883 -15.36259 32.95128Q-13.70497 32.68872 -6.12728 24.86521Q1.45042 17.04169 3.93685 13.53103Q6.66008 9.62323 14.71138 -2.86062Z" fill="rgb(37, 37, 37)" transform="matrix(1 0 0 1 186.57109 155.283264)"/><path d="M101.14444 -67.49929Q102.26926 -67.67746 102.92046 -67.06134Q103.57167 -66.44522 103.57167 -65.69599Q103.57167 -64.94675 102.41726 -62.75595Q101.26284 -60.56514 97.11879 -53.16563Q92.97474 -45.76611 90.66591 -41.56432Q77.22735 -17.31828 69.59045 -0.82424Q61.95356 15.66981 61.95356 18.84657L61.95356 19.32608Q61.95356 21.78357 63.72958 21.50225Q65.5056 21.22094 68.02163 19.14412Q70.53767 17.0673 72.43209 14.84919Q74.32651 12.63108 76.25054 10.25843Q78.17456 7.88579 78.58896 7.46051Q79.00337 7.03524 79.65458 6.93209Q80.66099 6.77268 80.95699 8.01448Q81.253 9.25627 81.253 11.56392Q81.253 13.87156 80.89779 14.64709Q79.18097 18.2756 73.3497 24.02433Q67.51843 29.77305 62.30876 30.59824Q53.42866 32.00482 53.42866 24.3926Q53.42866 19.65743 56.9807 11.42264Q52.18544 18.47576 47.21258 23.69892Q37.97727 33.31343 31.16918 34.39181Q27.38034 34.99195 25.57471 32.58071Q23.76909 30.16947 23.76909 25.10464Q23.76909 20.03981 27.67634 12.34814Q31.58359 4.65647 37.41486 -1.9314Q43.24613 -8.51926 50.35022 -13.45064Q57.45431 -18.38202 63.43358 -19.32911Q65.328 -19.62918 67.87363 -17.69479Q69.59045 -20.72391 74.20811 -29.72689Q88.71229 -56.77902 93.38915 -62.97424Q95.87558 -66.66472 101.14444 -67.49929ZM64.26239 -11.48854Q55.73748 -8.22018 48.39659 -0.94365Q41.0557 6.33288 37.38526 13.59744Q33.71481 20.862 33.71481 22.83998Q33.71481 24.81796 34.54362 24.68668Q38.09567 24.12405 52.12624 5.83806Q59.11193 -3.18037 64.26239 -11.48854Z" fill="rgb(37, 37, 37)" transform="matrix(1 0 0 1 186.57109 155.283264)"/><path d="M115.23421 -45.69561Q115.23421 -42.2791 112.09658 -38.33563Q108.95894 -34.39216 105.5549 -33.85297Q102.15085 -33.31378 102.15085 -36.91011Q102.15085 -40.50643 105.14049 -44.24664Q108.13013 -47.98686 111.74137 -48.55886Q113.33979 -48.81205 114.287 -48.063Q115.23421 -47.31396 115.23421 -45.69561ZM105.6437 8.15005Q105.6437 9.94822 105.28849 10.78369Q102.38766 17.23705 96.05318 21.92664Q89.7187 26.61624 85.04184 27.35703Q80.36499 28.09783 76.99054 25.45558Q73.6161 22.81332 73.6161 19.51669Q73.6161 16.22006 76.87214 9.41074Q80.12818 2.60142 83.38422 -3.24888Q86.64026 -9.09917 86.64026 -9.54872Q86.64026 -9.99826 85.42665 -11.12468Q84.21303 -12.2511 84.21303 -12.88046Q84.21303 -13.50981 86.66986 -16.56624Q89.12669 -19.62267 92.64914 -22.78795Q96.17158 -25.95323 98.0364 -26.24861Q99.90123 -26.54399 101.38124 -25.10014Q102.86126 -23.65628 102.86126 -22.27769Q102.86126 -20.8991 88.77149 5.90757Q88.59389 6.29534 87.79468 7.65068Q86.99547 9.00601 86.55146 9.88552Q86.10746 10.76502 85.51545 11.99763Q84.33143 14.58272 84.33143 16.20107Q84.33143 18.23899 87.05467 17.80764Q89.7779 17.37629 92.70834 15.02404Q95.63877 12.6718 97.77 10.05655Q103.33487 3.12127 104.10448 2.99937Q105.6437 2.75556 105.6437 8.15005Z" fill="rgb(37, 37, 37)" transform="matrix(1 0 0 1 186.57109 155.283264)"/><path d="M107.77492 9.31095L107.71572 10.27934Q107.71572 11.77781 108.84054 12.67854Q109.96535 13.57928 110.91256 13.42924Q118.01665 12.30398 123.49272 9.27879Q128.96878 6.2536 128.96878 4.09581Q128.96878 3.07685 126.98556 2.64175Q125.00233 2.20665 120.29588 1.84327Q115.58942 1.47989 113.45819 1.18811Q111.32697 0.89633 110.08375 0.55381Q108.84054 0.21128 107.53812 -0.54144Q104.75569 -2.0787 104.75569 -6.00469Q104.75569 -9.93068 107.62692 -14.25152Q110.49816 -18.57237 114.81981 -22.01409Q119.14146 -25.45581 124.11432 -28.34135Q133.94164 -34.03374 140.63133 -35.09336Q147.20261 -36.13423 148.74183 -33.50097Q149.21543 -32.55703 149.21543 -31.29832L149.21543 -30.87875Q149.21543 -27.70199 147.88341 -25.69284Q146.5514 -23.68369 143.68016 -21.79037Q140.80893 -19.89704 139.12171 -19.62979Q137.43449 -19.36254 136.99048 -19.53197Q136.54648 -19.70139 136.25047 -20.04411Q135.95447 -20.38683 135.51046 -20.49631Q135.06646 -20.6058 135.06646 -21.32507Q135.06646 -22.04433 135.65846 -22.88734Q136.25047 -23.73035 136.48728 -24.607Q132.58003 -23.80829 128.31757 -21.48481Q124.05512 -19.16134 121.00629 -16.64049Q117.95745 -14.11965 115.94462 -11.94272Q113.9318 -9.7658 113.9318 -8.89668Q113.9318 -8.02757 116.65503 -7.91947Q128.90958 -7.40306 132.75763 -6.21442Q136.60568 -5.02577 138.08569 -2.98253Q139.56571 -0.93928 139.56571 0.91882Q139.56571 4.7549 136.54648 8.64965Q133.52724 12.5444 129.08718 15.40548Q119.55587 21.65038 112.48138 22.77095Q105.40689 23.89152 102.71326 22.13042Q100.01963 20.36932 100.01963 17.37238Q100.01963 14.37544 101.52925 11.58892Q103.03886 8.80241 105.40689 8.42732Q107.77492 8.05223 107.77492 9.31095Z" fill="rgb(37, 37, 37)" transform="matrix(1 0 0 1 186.57109 155.283264)"/><path d="M186.57109 -36.01655Q186.57109 -32.06059 183.40385 -28.56197Q180.23661 -25.06335 176.21096 -24.42571Q174.90855 -24.21941 174.49414 -24.78312Q174.07974 -25.34684 174.07974 -26.3658Q174.07974 -27.38476 174.31654 -28.38129Q172.18531 -27.32444 169.58048 -25.41338Q166.97565 -23.50231 163.1868 -19.96517Q159.39796 -16.42803 159.39796 -14.9895Q159.39796 -14.50999 160.78917 -14.73035Q162.18039 -14.95072 165.08123 -16.39919Q167.98206 -17.84766 169.13648 -18.03052Q170.29089 -18.21337 170.64609 -18.14976Q171.4157 -17.85209 172.30371 -16.58419Q173.19173 -15.31628 173.19173 -14.50711Q173.19173 -13.69794 171.65251 -12.13548Q170.11329 -10.57302 168.15966 -9.57427Q166.20604 -8.57553 165.55483 -8.11275Q153.06348 0.93862 153.06348 3.57592Q153.06348 8.25115 160.93718 7.00398Q165.96924 6.20692 171.0605 2.16379Q175.38215 -1.27793 178.84539 -4.67359Q182.30864 -8.06925 183.22625 -8.87392Q184.14386 -9.67859 184.61747 -9.75361Q186.15668 -9.99742 186.15668 -6.52097Q186.15668 -3.04452 185.74228 -1.87001Q185.32787 -0.6955 183.37425 1.23229Q170.7053 13.66836 159.39796 15.4594Q153.35948 16.41588 149.74824 15.3096Q143.11776 13.30297 143.11776 7.00939Q143.11776 -1.26216 154.4251 -7.30886Q152.17547 -7.97148 151.52426 -9.45671Q150.87305 -10.94194 150.87305 -14.44836Q150.87305 -17.95478 154.09949 -22.39182Q157.32593 -26.82887 162.00279 -30.0871Q172.42212 -37.43167 180.59182 -38.72572Q182.54544 -39.03517 184.55827 -38.39497Q186.57109 -37.75478 186.57109 -36.01655Z" fill="rgb(37, 37, 37)" transform="matrix(1 0 0 1 186.57109 155.283264)"/><path d="" fill="rgb(37, 37, 37)" transform="matrix(1 0 0 1 186.57109 155.283264)"/></g></g>

  </svg>