<svg xmlns="http://www.w3.org/2000/svg" xmlns:xlink="http://www.w3.org/1999/xlink" width="1444px" height="420px" viewBox="0 0 1444.2359697999927 420.02935053346755">
    <g id="6733ac6b-4338-427c-9abe-129906ddd00b">
<g style="">
		<g id="6733ac6b-4338-427c-9abe-129906ddd00b-child-0">
<path style="stroke: rgb(193,193,193); stroke-width: 0; stroke-dasharray: none; stroke-linecap: butt; stroke-dashoffset: 0; stroke-linejoin: miter; stroke-miterlimit: 4; fill: rgb(219,32,32); fill-rule: nonzero; opacity: 1;" transform="matrix(0.265688 -0.003466 0.003466 0.265688 1299.407943 118.432269) matrix(1 0 0 1 0 0)  translate(-256, -256)" d="M 256.00 0.00 C 114.51 0.00 0.00 114.50 0.00 256.00 C 0.00 397.49 114.50 512.00 256.00 512.00 C 397.49 512.00 512.00 397.50 512.00 256.00 C 512.00 114.51 397.50 0.00 256.00 0.00 z M 156.95 52.75 C 149.20 73.85 142.70 95.30 137.45 117.05 C 122.11 112.39 107.02 106.80 92.20 100.29 C 110.96 80.58 132.81 64.54 156.95 52.75 z M 72.34 124.24 C 91.51 133.12 111.13 140.54 131.14 146.49 C 125.33 177.49 122.01 209.03 121.23 241.00 L 30.50 241.00 C 33.27 198.56 47.73 158.39 72.34 124.24 z M 72.34 387.76 C 47.73 353.61 33.27 313.44 30.50 271.00 L 121.23 271.00 C 122.01 302.97 125.33 334.51 131.14 365.51 C 111.13 371.46 91.51 378.88 72.34 387.76 z M 92.20 411.71 C 107.01 405.20 122.10 399.61 137.45 394.95 C 142.70 416.70 149.20 438.15 156.95 459.25 C 132.82 447.47 110.97 431.43 92.20 411.71 z M 241.00 481.50 C 225.25 480.47 209.80 477.84 194.87 473.67 C 183.00 445.55 173.53 416.72 166.47 387.31 C 190.79 381.87 215.67 378.69 241.00 377.80 L 241.00 481.50 z M 241.00 347.78 C 213.55 348.68 186.59 352.08 160.25 357.95 C 155.01 329.42 152.00 300.40 151.24 271.00 L 241.00 271.00 L 241.00 347.78 z M 241.00 241.00 L 151.24 241.00 C 152.00 211.60 155.01 182.58 160.25 154.05 C 186.59 159.92 213.55 163.32 241.00 164.22 L 241.00 241.00 z M 241.00 134.21 C 215.67 133.31 190.78 130.13 166.47 124.69 C 173.53 95.28 183.00 66.45 194.87 38.33 C 209.80 34.16 225.25 31.53 241.00 30.50 L 241.00 134.21 z M 439.66 124.24 C 464.27 158.39 478.73 198.56 481.50 241.00 L 390.77 241.00 C 389.99 209.03 386.67 177.49 380.86 146.49 C 400.87 140.54 420.49 133.12 439.66 124.24 z M 419.80 100.28 C 404.99 106.80 389.89 112.39 374.55 117.05 C 369.30 95.30 362.80 73.85 355.05 52.75 C 379.18 64.53 401.03 80.57 419.80 100.28 z M 271.00 30.50 C 286.75 31.53 302.20 34.16 317.13 38.33 C 329.00 66.45 338.47 95.28 345.53 124.69 C 321.22 130.13 296.33 133.31 271.00 134.20 L 271.00 30.50 z M 271.00 164.22 C 298.45 163.32 325.40 159.92 351.75 154.05 C 356.98 182.58 360.00 211.60 360.76 241.00 L 271.00 241.00 L 271.00 164.22 z M 317.13 473.67 C 302.20 477.84 286.75 480.47 271.00 481.50 L 271.00 377.80 C 296.33 378.69 321.22 381.87 345.53 387.31 C 338.47 416.72 329.00 445.55 317.13 473.67 z M 271.00 347.78 L 271.00 271.00 L 360.76 271.00 C 360.00 300.40 356.99 329.42 351.75 357.95 C 325.40 352.08 298.45 348.68 271.00 347.78 z M 355.05 459.25 C 362.80 438.15 369.30 416.70 374.55 394.95 C 389.89 399.61 404.99 405.20 419.80 411.71 C 401.04 431.42 379.19 447.46 355.05 459.25 z M 439.66 387.76 C 420.49 378.88 400.87 371.46 380.86 365.51 C 386.67 334.51 389.99 302.97 390.77 271.00 L 481.50 271.00 C 478.74 313.44 464.27 353.61 439.66 387.76 z" stroke-linecap="round"/>
</g>
</g>
</g>
<g style="" id="1b4d67a4-2abb-4c04-ad99-c77a8810dc05">
<g style=""><path d="M-367.79142 -9.71492Q-372.27036 -9.71492 -374.9741 -12.69177Q-377.67785 -15.66862 -377.67785 -20.5299L-377.67785 -47.84047Q-377.67785 -48.38668 -377.13164 -48.38668L-372.98043 -48.38668Q-372.43422 -48.38668 -372.43422 -47.84047L-372.43422 -19.98369Q-372.43422 -17.4165 -371.15062 -15.83248Q-369.86703 -14.24847 -367.79142 -14.24847Q-365.6612 -14.24847 -364.3776 -15.83248Q-363.094 -17.4165 -363.094 -19.98369L-363.094 -47.84047Q-363.094 -48.38668 -362.54779 -48.38668L-358.39659 -48.38668Q-357.85038 -48.38668 -357.85038 -47.84047L-357.85038 -20.5299Q-357.85038 -15.66862 -360.58143 -12.69177Q-363.31249 -9.71492 -367.79142 -9.71492Z" fill="rgb(219, 32, 32)" transform="matrix(1 0 0 1 791.071662 313.09229)"/><path d="M-333.27086 -47.84047Q-333.27086 -48.38668 -332.72465 -48.38668L-328.62807 -48.38668Q-328.08186 -48.38668 -328.08186 -47.84047L-328.08186 -10.6981Q-328.08186 -10.15188 -328.62807 -10.15188L-333.32549 -10.15188Q-333.76245 -10.15188 -333.92632 -10.58885L-343.21191 -35.55071Q-343.26653 -35.65996 -343.37577 -35.63264Q-343.48502 -35.60533 -343.48502 -35.49609L-343.4304 -10.6981Q-343.4304 -10.15188 -343.97661 -10.15188L-348.12781 -10.15188Q-348.67402 -10.15188 -348.67402 -10.6981L-348.67402 -47.84047Q-348.67402 -48.38668 -348.12781 -48.38668L-343.48502 -48.38668Q-343.04805 -48.38668 -342.88418 -47.94971L-333.54397 -22.98785Q-333.48935 -22.82399 -333.38011 -22.8513Q-333.27086 -22.87861 -333.27086 -23.04247L-333.27086 -47.84047Z" fill="rgb(219, 32, 32)" transform="matrix(1 0 0 1 791.071662 313.09229)"/><path d="M-317.48536 -10.15188Q-318.03157 -10.15188 -318.03157 -10.6981L-318.03157 -47.84047Q-318.03157 -48.38668 -317.48536 -48.38668L-308.52749 -48.38668Q-303.99394 -48.38668 -301.3175 -45.601Q-298.64106 -42.81532 -298.64106 -38.06329L-298.64106 -20.47528Q-298.64106 -15.72324 -301.3175 -12.93756Q-303.99394 -10.15188 -308.52749 -10.15188L-317.48536 -10.15188ZM-312.78794 -14.90392Q-312.78794 -14.68544 -312.56945 -14.68544L-308.58211 -14.74006Q-306.50651 -14.74006 -305.25022 -16.35138Q-303.99394 -17.96271 -303.93931 -20.74838L-303.93931 -37.79018Q-303.93931 -40.57586 -305.1956 -42.21449Q-306.45189 -43.85313 -308.58211 -43.85313L-312.56945 -43.85313Q-312.78794 -43.85313 -312.78794 -43.63464L-312.78794 -14.90392Z" fill="rgb(219, 32, 32)" transform="matrix(1 0 0 1 791.071662 313.09229)"/><path d="M-271.16663 -44.39934Q-271.16663 -43.85313 -271.71284 -43.85313L-284.0026 -43.85313Q-284.22108 -43.85313 -284.22108 -43.63464L-284.22108 -31.78185Q-284.22108 -31.56337 -284.0026 -31.56337L-276.46488 -31.56337Q-275.91867 -31.56337 -275.91867 -31.01716L-275.91867 -27.57603Q-275.91867 -27.02982 -276.46488 -27.02982L-284.0026 -27.02982Q-284.22108 -27.02982 -284.22108 -26.81133L-284.22108 -14.90392Q-284.22108 -14.68544 -284.0026 -14.68544L-271.71284 -14.68544Q-271.16663 -14.68544 -271.16663 -14.13923L-271.16663 -10.6981Q-271.16663 -10.15188 -271.71284 -10.15188L-288.9185 -10.15188Q-289.46471 -10.15188 -289.46471 -10.6981L-289.46471 -47.84047Q-289.46471 -48.38668 -288.9185 -48.38668L-271.71284 -48.38668Q-271.16663 -48.38668 -271.16663 -47.84047L-271.16663 -44.39934Z" fill="rgb(219, 32, 32)" transform="matrix(1 0 0 1 791.071662 313.09229)"/><path d="M-247.40644 -10.15188Q-247.89803 -10.15188 -248.06189 -10.58885L-253.08704 -26.86595Q-253.14166 -27.02982 -253.30552 -27.02982L-257.129 -27.02982Q-257.34748 -27.02982 -257.34748 -26.81133L-257.34748 -10.6981Q-257.34748 -10.15188 -257.8937 -10.15188L-262.0449 -10.15188Q-262.59111 -10.15188 -262.59111 -10.6981L-262.59111 -47.84047Q-262.59111 -48.38668 -262.0449 -48.38668L-252.26772 -48.38668Q-249.48204 -48.38668 -247.35182 -47.02115Q-245.22159 -45.65562 -244.04724 -43.17036Q-242.87288 -40.6851 -242.87288 -37.51707Q-242.87288 -34.07594 -244.29303 -31.53606Q-245.71318 -28.99618 -248.17113 -27.84913Q-248.335 -27.68527 -248.28038 -27.52141L-242.70902 -10.75272L-242.6544 -10.53423Q-242.6544 -10.15188 -243.14599 -10.15188L-247.40644 -10.15188ZM-257.129 -43.85313Q-257.34748 -43.85313 -257.34748 -43.63464L-257.34748 -31.39951Q-257.34748 -31.18102 -257.129 -31.18102L-253.08704 -31.18102Q-250.84757 -31.18102 -249.48204 -32.90159Q-248.11651 -34.62215 -248.11651 -37.46245Q-248.11651 -40.41199 -249.48204 -42.13256Q-250.84757 -43.85313 -253.08704 -43.85313L-257.129 -43.85313Z" fill="rgb(219, 32, 32)" transform="matrix(1 0 0 1 791.071662 313.09229)"/><path d="" fill="rgb(219, 32, 32)" transform="matrix(1 0 0 1 791.071662 313.09229)"/><path d="M-217.5833 -48.22282Q-217.25557 -48.38668 -216.92784 -48.38668L-212.55815 -48.38668Q-212.01194 -48.38668 -212.01194 -47.84047L-212.01194 -10.6981Q-212.01194 -10.15188 -212.55815 -10.15188L-216.70936 -10.15188Q-217.25557 -10.15188 -217.25557 -10.6981L-217.25557 -42.65146Q-217.25557 -42.7607 -217.3375 -42.84263Q-217.41943 -42.92457 -217.47405 -42.86995L-222.33534 -41.61366L-222.55382 -41.55904Q-222.88155 -41.55904 -222.99079 -42.05063L-223.20927 -45.10941Q-223.20927 -45.601 -222.82693 -45.76487L-217.5833 -48.22282Z" fill="rgb(219, 32, 32)" transform="matrix(1 0 0 1 791.071662 313.09229)"/><path d="M-200.2684 -10.15188Q-200.5415 -10.15188 -200.67806 -10.31575Q-200.81461 -10.47961 -200.75999 -10.75272L-191.52902 -43.63464Q-191.47439 -43.68926 -191.55633 -43.77119Q-191.63826 -43.85313 -191.7475 -43.85313L-200.37764 -43.85313Q-200.59612 -43.85313 -200.59612 -43.63464L-200.59612 -41.4498Q-200.59612 -40.90358 -201.14234 -40.90358L-204.36498 -40.90358Q-204.91119 -40.90358 -204.91119 -41.4498L-204.85657 -47.84047Q-204.85657 -48.38668 -204.31036 -48.38668L-186.50387 -48.38668Q-185.95766 -48.38668 -185.95766 -47.84047L-185.95766 -44.18085Q-185.95766 -44.07161 -186.0669 -43.5254L-195.29787 -10.58885Q-195.40712 -10.15188 -195.89871 -10.15188L-200.2684 -10.15188Z" fill="rgb(219, 32, 32)" transform="matrix(1 0 0 1 791.071662 313.09229)"/><path d="" fill="rgb(219, 32, 32)" transform="matrix(1 0 0 1 791.071662 313.09229)"/><path d="M-149.08839 -10.15188Q-149.57998 -10.15188 -149.74385 -10.58885L-154.76899 -26.86595Q-154.82361 -27.02982 -154.98747 -27.02982L-158.81095 -27.02982Q-159.02944 -27.02982 -159.02944 -26.81133L-159.02944 -10.6981Q-159.02944 -10.15188 -159.57565 -10.15188L-163.72686 -10.15188Q-164.27307 -10.15188 -164.27307 -10.6981L-164.27307 -47.84047Q-164.27307 -48.38668 -163.72686 -48.38668L-153.94967 -48.38668Q-151.164 -48.38668 -149.03377 -47.02115Q-146.90355 -45.65562 -145.72919 -43.17036Q-144.55484 -40.6851 -144.55484 -37.51707Q-144.55484 -34.07594 -145.97499 -31.53606Q-147.39514 -28.99618 -149.85309 -27.84913Q-150.01695 -27.68527 -149.96233 -27.52141L-144.39097 -10.75272L-144.33635 -10.53423Q-144.33635 -10.15188 -144.82794 -10.15188L-149.08839 -10.15188ZM-158.81095 -43.85313Q-159.02944 -43.85313 -159.02944 -43.63464L-159.02944 -31.39951Q-159.02944 -31.18102 -158.81095 -31.18102L-154.76899 -31.18102Q-152.52952 -31.18102 -151.164 -32.90159Q-149.79847 -34.62215 -149.79847 -37.46245Q-149.79847 -40.41199 -151.164 -42.13256Q-152.52952 -43.85313 -154.76899 -43.85313L-158.81095 -43.85313Z" fill="rgb(219, 32, 32)" transform="matrix(1 0 0 1 791.071662 313.09229)"/><path d="M-117.95434 -44.39934Q-117.95434 -43.85313 -118.50056 -43.85313L-130.79031 -43.85313Q-131.0088 -43.85313 -131.0088 -43.63464L-131.0088 -31.78185Q-131.0088 -31.56337 -130.79031 -31.56337L-123.25259 -31.56337Q-122.70638 -31.56337 -122.70638 -31.01716L-122.70638 -27.57603Q-122.70638 -27.02982 -123.25259 -27.02982L-130.79031 -27.02982Q-131.0088 -27.02982 -131.0088 -26.81133L-131.0088 -14.90392Q-131.0088 -14.68544 -130.79031 -14.68544L-118.50056 -14.68544Q-117.95434 -14.68544 -117.95434 -14.13923L-117.95434 -10.6981Q-117.95434 -10.15188 -118.50056 -10.15188L-135.70621 -10.15188Q-136.25242 -10.15188 -136.25242 -10.6981L-136.25242 -47.84047Q-136.25242 -48.38668 -135.70621 -48.38668L-118.50056 -48.38668Q-117.95434 -48.38668 -117.95434 -47.84047L-117.95434 -44.39934Z" fill="rgb(219, 32, 32)" transform="matrix(1 0 0 1 791.071662 313.09229)"/><path d="M-100.47558 -48.82365Q-96.16051 -48.82365 -93.48408 -45.98335Q-90.80764 -43.14305 -90.80764 -38.55488L-90.80764 -19.98369Q-90.80764 -16.21483 -92.66476 -13.56571Q-94.52188 -10.91658 -97.6899 -10.09726Q-97.85377 -9.98802 -97.85377 -9.82416L-97.85377 -4.74439Q-97.85377 -4.19818 -98.39998 -4.19818L-102.6058 -4.19818Q-103.15202 -4.19818 -103.15202 -4.74439L-103.15202 -9.82416Q-103.15202 -9.98802 -103.31588 -10.09726Q-106.48391 -10.9712 -108.31371 -13.59302Q-110.14352 -16.21483 -110.14352 -19.98369L-110.14352 -38.55488Q-110.14352 -43.14305 -107.46709 -45.98335Q-104.79065 -48.82365 -100.47558 -48.82365ZM-96.05127 -39.10109Q-96.05127 -41.39517 -97.28024 -42.84263Q-98.50922 -44.29009 -100.47558 -44.29009Q-102.44194 -44.29009 -103.67092 -42.84263Q-104.89989 -41.39517 -104.89989 -39.10109L-104.89989 -19.43748Q-104.89989 -17.14339 -103.67092 -15.69593Q-102.44194 -14.24847 -100.47558 -14.24847Q-98.50922 -14.24847 -97.28024 -15.69593Q-96.05127 -17.14339 -96.05127 -19.43748Z" fill="rgb(219, 32, 32)" transform="matrix(1 0 0 1 791.071662 313.09229)"/><path d="M-71.90873 -9.71492Q-76.38766 -9.71492 -79.09141 -12.69177Q-81.79515 -15.66862 -81.79515 -20.5299L-81.79515 -47.84047Q-81.79515 -48.38668 -81.24894 -48.38668L-77.09773 -48.38668Q-76.55152 -48.38668 -76.55152 -47.84047L-76.55152 -19.98369Q-76.55152 -17.4165 -75.26793 -15.83248Q-73.98433 -14.24847 -71.90873 -14.24847Q-69.7785 -14.24847 -68.49491 -15.83248Q-67.21131 -17.4165 -67.21131 -19.98369L-67.21131 -47.84047Q-67.21131 -48.38668 -66.6651 -48.38668L-62.51389 -48.38668Q-61.96768 -48.38668 -61.96768 -47.84047L-61.96768 -20.5299Q-61.96768 -15.66862 -64.69874 -12.69177Q-67.42979 -9.71492 -71.90873 -9.71492Z" fill="rgb(219, 32, 32)" transform="matrix(1 0 0 1 791.071662 313.09229)"/><path d="M-51.64428 -10.15188Q-52.1905 -10.15188 -52.1905 -10.6981L-52.1905 -47.84047Q-52.1905 -48.38668 -51.64428 -48.38668L-47.49308 -48.38668Q-46.94687 -48.38668 -46.94687 -47.84047L-46.94687 -10.6981Q-46.94687 -10.15188 -47.49308 -10.15188L-51.64428 -10.15188Z" fill="rgb(219, 32, 32)" transform="matrix(1 0 0 1 791.071662 313.09229)"/><path d="M-21.7119 -10.15188Q-22.20349 -10.15188 -22.36736 -10.58885L-27.3925 -26.86595Q-27.44712 -27.02982 -27.61098 -27.02982L-31.43446 -27.02982Q-31.65295 -27.02982 -31.65295 -26.81133L-31.65295 -10.6981Q-31.65295 -10.15188 -32.19916 -10.15188L-36.35037 -10.15188Q-36.89658 -10.15188 -36.89658 -10.6981L-36.89658 -47.84047Q-36.89658 -48.38668 -36.35037 -48.38668L-26.57318 -48.38668Q-23.7875 -48.38668 -21.65728 -47.02115Q-19.52706 -45.65562 -18.3527 -43.17036Q-17.17835 -40.6851 -17.17835 -37.51707Q-17.17835 -34.07594 -18.5985 -31.53606Q-20.01865 -28.99618 -22.4766 -27.84913Q-22.64046 -27.68527 -22.58584 -27.52141L-17.01448 -10.75272L-16.95986 -10.53423Q-16.95986 -10.15188 -17.45145 -10.15188L-21.7119 -10.15188ZM-31.43446 -43.85313Q-31.65295 -43.85313 -31.65295 -43.63464L-31.65295 -31.39951Q-31.65295 -31.18102 -31.43446 -31.18102L-27.3925 -31.18102Q-25.15303 -31.18102 -23.7875 -32.90159Q-22.42198 -34.62215 -22.42198 -37.46245Q-22.42198 -40.41199 -23.7875 -42.13256Q-25.15303 -43.85313 -27.3925 -43.85313L-31.43446 -43.85313Z" fill="rgb(219, 32, 32)" transform="matrix(1 0 0 1 791.071662 313.09229)"/><path d="M9.42215 -44.39934Q9.42215 -43.85313 8.87593 -43.85313L-3.41382 -43.85313Q-3.63231 -43.85313 -3.63231 -43.63464L-3.63231 -31.78185Q-3.63231 -31.56337 -3.41382 -31.56337L4.1239 -31.56337Q4.67011 -31.56337 4.67011 -31.01716L4.67011 -27.57603Q4.67011 -27.02982 4.1239 -27.02982L-3.41382 -27.02982Q-3.63231 -27.02982 -3.63231 -26.81133L-3.63231 -14.90392Q-3.63231 -14.68544 -3.41382 -14.68544L8.87593 -14.68544Q9.42215 -14.68544 9.42215 -14.13923L9.42215 -10.6981Q9.42215 -10.15188 8.87593 -10.15188L-8.32972 -10.15188Q-8.87593 -10.15188 -8.87593 -10.6981L-8.87593 -47.84047Q-8.87593 -48.38668 -8.32972 -48.38668L8.87593 -48.38668Q9.42215 -48.38668 9.42215 -47.84047L9.42215 -44.39934Z" fill="rgb(219, 32, 32)" transform="matrix(1 0 0 1 791.071662 313.09229)"/><path d="M26.30008 -9.71492Q21.98501 -9.71492 19.33588 -12.41866Q16.68676 -15.12241 16.68676 -19.4921L16.68676 -20.91225Q16.68676 -21.45846 17.23297 -21.45846L21.27493 -21.45846Q21.82114 -21.45846 21.82114 -20.91225L21.82114 -19.7652Q21.82114 -17.25263 23.07743 -15.75055Q24.33372 -14.24847 26.30008 -14.24847Q28.26644 -14.24847 29.55003 -15.69593Q30.83363 -17.14339 30.83363 -19.4921Q30.83363 -21.07611 30.15087 -22.27778Q29.4681 -23.47944 28.34837 -24.43531Q27.22864 -25.39118 24.71606 -27.2483Q21.93039 -29.3239 20.34637 -30.79867Q18.76236 -32.27344 17.66994 -34.34905Q16.57751 -36.42465 16.57751 -39.21033Q16.57751 -43.63464 19.19933 -46.22915Q21.82114 -48.82365 26.02697 -48.82365Q30.39666 -48.82365 33.04579 -46.03797Q35.69491 -43.25229 35.69491 -38.71874L35.69491 -37.35321Q35.69491 -36.807 35.1487 -36.807L31.10674 -36.807Q30.56053 -36.807 30.56053 -37.35321L30.56053 -38.82798Q30.56053 -41.28593 29.30424 -42.78801Q28.04795 -44.29009 26.02697 -44.29009Q24.11523 -44.29009 22.91357 -42.95188Q21.7119 -41.61366 21.7119 -39.21033Q21.7119 -37.02548 22.91357 -35.5234Q24.11523 -34.02132 27.55636 -31.50875Q30.83363 -29.0508 32.49958 -27.52141Q34.16552 -25.99201 35.06677 -24.16221Q35.96802 -22.3324 35.96802 -19.81983Q35.96802 -15.23165 33.29158 -12.47328Q30.61515 -9.71492 26.30008 -9.71492Z" fill="rgb(219, 32, 32)" transform="matrix(1 0 0 1 791.071662 313.09229)"/><path d="" fill="rgb(219, 32, 32)" transform="matrix(1 0 0 1 791.071662 313.09229)"/><path d="M73.71122 -10.15188Q73.21963 -10.15188 73.11039 -10.64347L71.90873 -16.92491Q71.90873 -17.03415 71.82679 -17.08877Q71.74486 -17.14339 71.63562 -17.14339L62.73238 -17.14339Q62.62313 -17.14339 62.5412 -17.08877Q62.45927 -17.03415 62.45927 -16.92491L61.31223 -10.64347Q61.2576 -10.15188 60.71139 -10.15188L56.56019 -10.15188Q56.28708 -10.15188 56.15053 -10.31575Q56.01398 -10.47961 56.0686 -10.75272L64.20715 -47.89509Q64.31639 -48.38668 64.80798 -48.38668L69.66926 -48.38668Q70.21547 -48.38668 70.27009 -47.89509L78.46326 -10.75272L78.46326 -10.64347Q78.46326 -10.15188 77.97167 -10.15188L73.71122 -10.15188ZM63.38783 -21.51308Q63.38783 -21.2946 63.55169 -21.2946L70.8163 -21.2946Q70.98017 -21.2946 70.98017 -21.51308L67.26593 -40.90358Q67.21131 -41.01283 67.15669 -41.01283Q67.10207 -41.01283 67.04745 -40.90358L63.38783 -21.51308Z" fill="rgb(219, 32, 32)" transform="matrix(1 0 0 1 791.071662 313.09229)"/><path d="M94.19415 -9.71492Q89.76984 -9.71492 87.06609 -12.41866Q84.36235 -15.12241 84.36235 -19.60134L84.36235 -38.99184Q84.36235 -43.47078 87.06609 -46.14721Q89.76984 -48.82365 94.19415 -48.82365Q98.67308 -48.82365 101.37683 -46.14721Q104.08058 -43.47078 104.08058 -38.99184L104.08058 -38.11791Q104.08058 -37.57169 103.53436 -37.57169L99.38316 -37.35321Q98.83695 -37.35321 98.83695 -37.89942L98.83695 -39.31957Q98.83695 -41.55904 97.55335 -42.92457Q96.26975 -44.29009 94.19415 -44.29009Q92.11855 -44.29009 90.86226 -42.92457Q89.60597 -41.55904 89.60597 -39.31957L89.60597 -19.21899Q89.60597 -16.97953 90.86226 -15.614Q92.11855 -14.24847 94.19415 -14.24847Q96.26975 -14.24847 97.55335 -15.614Q98.83695 -16.97953 98.83695 -19.21899L98.83695 -20.63914Q98.83695 -21.18535 99.38316 -21.18535L103.53436 -20.96687Q104.08058 -20.96687 104.08058 -20.42066L104.08058 -19.60134Q104.08058 -15.12241 101.37683 -12.41866Q98.67308 -9.71492 94.19415 -9.71492Z" fill="rgb(219, 32, 32)" transform="matrix(1 0 0 1 791.071662 313.09229)"/><path d="M122.16017 -9.71492Q117.73586 -9.71492 115.03211 -12.41866Q112.32837 -15.12241 112.32837 -19.60134L112.32837 -38.99184Q112.32837 -43.47078 115.03211 -46.14721Q117.73586 -48.82365 122.16017 -48.82365Q126.6391 -48.82365 129.34285 -46.14721Q132.0466 -43.47078 132.0466 -38.99184L132.0466 -38.11791Q132.0466 -37.57169 131.50039 -37.57169L127.34918 -37.35321Q126.80297 -37.35321 126.80297 -37.89942L126.80297 -39.31957Q126.80297 -41.55904 125.51937 -42.92457Q124.23577 -44.29009 122.16017 -44.29009Q120.08457 -44.29009 118.82828 -42.92457Q117.572 -41.55904 117.572 -39.31957L117.572 -19.21899Q117.572 -16.97953 118.82828 -15.614Q120.08457 -14.24847 122.16017 -14.24847Q124.23577 -14.24847 125.51937 -15.614Q126.80297 -16.97953 126.80297 -19.21899L126.80297 -20.63914Q126.80297 -21.18535 127.34918 -21.18535L131.50039 -20.96687Q132.0466 -20.96687 132.0466 -20.42066L132.0466 -19.60134Q132.0466 -15.12241 129.34285 -12.41866Q126.6391 -9.71492 122.16017 -9.71492Z" fill="rgb(219, 32, 32)" transform="matrix(1 0 0 1 791.071662 313.09229)"/><path d="M150.23544 -9.71492Q145.7565 -9.71492 143.02545 -12.44597Q140.29439 -15.17703 140.29439 -19.71058L140.29439 -38.77336Q140.29439 -43.30691 143.02545 -46.06528Q145.7565 -48.82365 150.23544 -48.82365Q154.76899 -48.82365 157.52736 -46.06528Q160.28573 -43.30691 160.28573 -38.77336L160.28573 -19.71058Q160.28573 -15.17703 157.52736 -12.44597Q154.76899 -9.71492 150.23544 -9.71492ZM150.23544 -14.24847Q152.42028 -14.24847 153.73119 -15.69593Q155.0421 -17.14339 155.0421 -19.4921L155.0421 -39.04647Q155.0421 -41.39517 153.73119 -42.84263Q152.42028 -44.29009 150.23544 -44.29009Q148.10521 -44.29009 146.82161 -42.84263Q145.53802 -41.39517 145.53802 -39.04647L145.53802 -19.4921Q145.53802 -17.14339 146.82161 -15.69593Q148.10521 -14.24847 150.23544 -14.24847Z" fill="rgb(219, 32, 32)" transform="matrix(1 0 0 1 791.071662 313.09229)"/><path d="M186.55849 -48.00433Q186.77698 -48.38668 187.21395 -48.38668L191.36515 -48.38668Q191.91136 -48.38668 191.91136 -47.84047L191.91136 -10.6981Q191.91136 -10.15188 191.36515 -10.15188L187.21395 -10.15188Q186.66773 -10.15188 186.66773 -10.6981L186.66773 -37.79018Q186.66773 -37.95404 186.5858 -37.95404Q186.50387 -37.95404 186.39463 -37.8448L181.151 -28.06762Q180.98714 -27.68527 180.65941 -27.68527Q180.33168 -27.68527 180.16782 -28.06762L174.97881 -37.79018Q174.86957 -37.89942 174.78764 -37.89942Q174.70571 -37.89942 174.70571 -37.73556L174.70571 -10.6981Q174.70571 -10.15188 174.15949 -10.15188L170.00829 -10.15188Q169.46208 -10.15188 169.46208 -10.6981L169.46208 -47.84047Q169.46208 -48.38668 170.00829 -48.38668L174.15949 -48.38668Q174.54184 -48.38668 174.81495 -48.00433L180.55017 -37.73556Q180.60479 -37.68094 180.71403 -37.68094Q180.82327 -37.68094 180.87789 -37.73556L186.55849 -48.00433Z" fill="rgb(219, 32, 32)" transform="matrix(1 0 0 1 791.071662 313.09229)"/><path d="M212.06656 -48.4413Q216.27239 -48.4413 218.86689 -45.40983Q221.4614 -42.37835 221.4614 -37.46245Q221.4614 -32.65579 218.94883 -29.70625Q216.43625 -26.75671 212.33967 -26.75671L207.20528 -26.75671Q206.9868 -26.75671 206.9868 -26.53823L206.9868 -10.6981Q206.9868 -10.15188 206.44059 -10.15188L202.28938 -10.15188Q201.74317 -10.15188 201.74317 -10.6981L201.74317 -47.89509Q201.74317 -48.4413 202.28938 -48.4413L212.06656 -48.4413ZM211.24725 -30.96254Q213.48671 -30.96254 214.85224 -32.6831Q216.21777 -34.40367 216.21777 -37.35321Q216.21777 -40.35737 214.85224 -42.13256Q213.48671 -43.90775 211.24725 -43.90775L207.20528 -43.90775Q206.9868 -43.90775 206.9868 -43.68926L206.9868 -31.18102Q206.9868 -30.96254 207.20528 -30.96254L211.24725 -30.96254Z" fill="rgb(219, 32, 32)" transform="matrix(1 0 0 1 791.071662 313.09229)"/><path d="M243.09137 -10.15188Q242.59978 -10.15188 242.49054 -10.64347L241.28887 -16.92491Q241.28887 -17.03415 241.20694 -17.08877Q241.12501 -17.14339 241.01576 -17.14339L232.11252 -17.14339Q232.00328 -17.14339 231.92135 -17.08877Q231.83941 -17.03415 231.83941 -16.92491L230.69237 -10.64347Q230.63775 -10.15188 230.09154 -10.15188L225.94033 -10.15188Q225.66723 -10.15188 225.53067 -10.31575Q225.39412 -10.47961 225.44874 -10.75272L233.58729 -47.89509Q233.69653 -48.38668 234.18812 -48.38668L239.0494 -48.38668Q239.59562 -48.38668 239.65024 -47.89509L247.84341 -10.75272L247.84341 -10.64347Q247.84341 -10.15188 247.35182 -10.15188L243.09137 -10.15188ZM232.76797 -21.51308Q232.76797 -21.2946 232.93184 -21.2946L240.19645 -21.2946Q240.36031 -21.2946 240.36031 -21.51308L236.64607 -40.90358Q236.59145 -41.01283 236.53683 -41.01283Q236.48221 -41.01283 236.42759 -40.90358L232.76797 -21.51308Z" fill="rgb(219, 32, 32)" transform="matrix(1 0 0 1 791.071662 313.09229)"/><path d="M270.62042 -47.84047Q270.62042 -48.38668 271.16663 -48.38668L275.26322 -48.38668Q275.80943 -48.38668 275.80943 -47.84047L275.80943 -10.6981Q275.80943 -10.15188 275.26322 -10.15188L270.5658 -10.15188Q270.12883 -10.15188 269.96497 -10.58885L260.67937 -35.55071Q260.62475 -35.65996 260.51551 -35.63264Q260.40627 -35.60533 260.40627 -35.49609L260.46089 -10.6981Q260.46089 -10.15188 259.91468 -10.15188L255.76347 -10.15188Q255.21726 -10.15188 255.21726 -10.6981L255.21726 -47.84047Q255.21726 -48.38668 255.76347 -48.38668L260.40627 -48.38668Q260.84324 -48.38668 261.0071 -47.94971L270.34732 -22.98785Q270.40194 -22.82399 270.51118 -22.8513Q270.62042 -22.87861 270.62042 -23.04247L270.62042 -47.84047Z" fill="rgb(219, 32, 32)" transform="matrix(1 0 0 1 791.071662 313.09229)"/><path d="M292.46888 -10.20651Q291.92266 -10.20651 291.92266 -10.75272L291.92266 -26.37436L291.86804 -26.64747L284.2757 -47.78585L284.22108 -48.00433Q284.22108 -48.38668 284.71267 -48.38668L289.08236 -48.38668Q289.57396 -48.38668 289.73782 -47.94971L294.38062 -32.87428Q294.43524 -32.76503 294.54448 -32.76503Q294.65372 -32.76503 294.70834 -32.87428L299.35114 -47.94971Q299.515 -48.38668 300.00659 -48.38668L304.37628 -48.38668Q304.97712 -48.38668 304.81325 -47.78585L297.22091 -26.64747L297.16629 -26.37436L297.16629 -10.75272Q297.16629 -10.20651 296.62008 -10.20651L292.46888 -10.20651Z" fill="rgb(219, 32, 32)" transform="matrix(1 0 0 1 791.071662 313.09229)"/><path d="M313.82574 -10.15188Q313.27953 -10.15188 313.27953 -10.6981L313.27953 -47.84047Q313.27953 -48.38668 313.82574 -48.38668L317.97695 -48.38668Q318.52316 -48.38668 318.52316 -47.84047L318.52316 -10.6981Q318.52316 -10.15188 317.97695 -10.15188L313.82574 -10.15188Z" fill="rgb(219, 32, 32)" transform="matrix(1 0 0 1 791.071662 313.09229)"/><path d="M343.97661 -47.84047Q343.97661 -48.38668 344.52282 -48.38668L348.6194 -48.38668Q349.16562 -48.38668 349.16562 -47.84047L349.16562 -10.6981Q349.16562 -10.15188 348.6194 -10.15188L343.92199 -10.15188Q343.48502 -10.15188 343.32115 -10.58885L334.03556 -35.55071Q333.98094 -35.65996 333.8717 -35.63264Q333.76245 -35.60533 333.76245 -35.49609L333.81708 -10.6981Q333.81708 -10.15188 333.27086 -10.15188L329.11966 -10.15188Q328.57345 -10.15188 328.57345 -10.6981L328.57345 -47.84047Q328.57345 -48.38668 329.11966 -48.38668L333.76245 -48.38668Q334.19942 -48.38668 334.36329 -47.94971L343.7035 -22.98785Q343.75812 -22.82399 343.86736 -22.8513Q343.97661 -22.87861 343.97661 -23.04247L343.97661 -47.84047Z" fill="rgb(219, 32, 32)" transform="matrix(1 0 0 1 791.071662 313.09229)"/><path d="M368.28301 -9.71492Q363.8587 -9.71492 361.15495 -12.33673Q358.45121 -14.95854 358.45121 -19.27361L358.45121 -39.26495Q358.45121 -43.58002 361.15495 -46.20183Q363.8587 -48.82365 368.28301 -48.82365Q372.70732 -48.82365 375.43838 -46.20183Q378.16944 -43.58002 378.16944 -39.21033L378.16944 -36.91624Q378.16944 -36.37003 377.62323 -36.37003L373.47202 -36.37003Q372.92581 -36.37003 372.92581 -36.91624L372.92581 -39.31957Q372.92581 -41.55904 371.64221 -42.92457Q370.35862 -44.29009 368.28301 -44.29009Q366.20741 -44.29009 364.92381 -42.92457Q363.64022 -41.55904 363.64022 -39.31957L363.64022 -19.21899Q363.64022 -16.97953 364.92381 -15.614Q366.20741 -14.24847 368.28301 -14.24847Q370.35862 -14.24847 371.64221 -15.614Q372.92581 -16.97953 372.92581 -19.21899L372.92581 -25.22732Q372.92581 -25.4458 372.70732 -25.4458L368.55612 -25.4458Q368.00991 -25.4458 368.00991 -25.99201L368.00991 -29.37852Q368.00991 -29.92474 368.55612 -29.92474L377.62323 -29.92474Q378.16944 -29.92474 378.16944 -29.37852L378.16944 -19.27361Q378.16944 -14.95854 375.43838 -12.33673Q372.70732 -9.71492 368.28301 -9.71492Z" fill="rgb(219, 32, 32)" transform="matrix(1 0 0 1 791.071662 313.09229)"/><path d="M-291.56763 6.17984Q-287.3618 6.17984 -284.7673 9.21131Q-282.17279 12.24278 -282.17279 17.15868Q-282.17279 21.96534 -284.68536 24.91489Q-287.19794 27.86443 -291.29452 27.86443L-296.42891 27.86443Q-296.64739 27.86443 -296.64739 28.08291L-296.64739 43.92304Q-296.64739 44.46925 -297.1936 44.46925L-301.34481 44.46925Q-301.89102 44.46925 -301.89102 43.92304L-301.89102 6.72605Q-301.89102 6.17984 -301.34481 6.17984L-291.56763 6.17984ZM-292.38694 23.6586Q-290.14748 23.6586 -288.78195 21.93803Q-287.41642 20.21747 -287.41642 17.26793Q-287.41642 14.26376 -288.78195 12.48858Q-290.14748 10.71339 -292.38694 10.71339L-296.42891 10.71339Q-296.64739 10.71339 -296.64739 10.93187L-296.64739 23.44011Q-296.64739 23.6586 -296.42891 23.6586L-292.38694 23.6586Z" fill="rgb(219, 32, 32)" transform="matrix(1 0 0 1 791.071662 313.09229)"/><path d="M-260.54282 44.46925Q-261.03441 44.46925 -261.14365 43.97766L-262.34532 37.69623Q-262.34532 37.58699 -262.42725 37.53237Q-262.50918 37.47775 -262.61842 37.47775L-271.52167 37.47775Q-271.63091 37.47775 -271.71284 37.53237Q-271.79478 37.58699 -271.79478 37.69623L-272.94182 43.97766Q-272.99644 44.46925 -273.54265 44.46925L-277.69386 44.46925Q-277.96696 44.46925 -278.10352 44.30539Q-278.24007 44.14153 -278.18545 43.86842L-270.0469 6.72605Q-269.93766 6.23446 -269.44607 6.23446L-264.58479 6.23446Q-264.03857 6.23446 -263.98395 6.72605L-255.79078 43.86842L-255.79078 43.97766Q-255.79078 44.46925 -256.28237 44.46925L-260.54282 44.46925ZM-270.86622 33.10806Q-270.86622 33.32654 -270.70235 33.32654L-263.43774 33.32654Q-263.27388 33.32654 -263.27388 33.10806L-266.98812 13.71755Q-267.04274 13.60831 -267.09736 13.60831Q-267.15198 13.60831 -267.2066 13.71755L-270.86622 33.10806Z" fill="rgb(219, 32, 32)" transform="matrix(1 0 0 1 791.071662 313.09229)"/><path d="M-233.23225 44.46925Q-233.72384 44.46925 -233.88771 44.03228L-238.91285 27.75518Q-238.96747 27.59132 -239.13134 27.59132L-242.95482 27.59132Q-243.1733 27.59132 -243.1733 27.80981L-243.1733 43.92304Q-243.1733 44.46925 -243.71951 44.46925L-247.87072 44.46925Q-248.41693 44.46925 -248.41693 43.92304L-248.41693 6.78067Q-248.41693 6.23446 -247.87072 6.23446L-238.09353 6.23446Q-235.30786 6.23446 -233.17763 7.59998Q-231.04741 8.96551 -229.87305 11.45078Q-228.6987 13.93604 -228.6987 17.10406Q-228.6987 20.54519 -230.11885 23.08508Q-231.539 25.62496 -233.99695 26.772Q-234.16081 26.93587 -234.10619 27.09973L-228.53484 43.86842L-228.48021 44.0869Q-228.48021 44.46925 -228.9718 44.46925L-233.23225 44.46925ZM-242.95482 10.76801Q-243.1733 10.76801 -243.1733 10.9865L-243.1733 23.22163Q-243.1733 23.44011 -242.95482 23.44011L-238.91285 23.44011Q-236.67338 23.44011 -235.30786 21.71955Q-233.94233 19.99898 -233.94233 17.15868Q-233.94233 14.20914 -235.30786 12.48858Q-236.67338 10.76801 -238.91285 10.76801L-242.95482 10.76801Z" fill="rgb(219, 32, 32)" transform="matrix(1 0 0 1 791.071662 313.09229)"/><path d="M-202.09821 10.2218Q-202.09821 10.76801 -202.64442 10.76801L-214.93417 10.76801Q-215.15266 10.76801 -215.15266 10.9865L-215.15266 22.83928Q-215.15266 23.05777 -214.93417 23.05777L-207.39646 23.05777Q-206.85024 23.05777 -206.85024 23.60398L-206.85024 27.04511Q-206.85024 27.59132 -207.39646 27.59132L-214.93417 27.59132Q-215.15266 27.59132 -215.15266 27.80981L-215.15266 39.71721Q-215.15266 39.9357 -214.93417 39.9357L-202.64442 39.9357Q-202.09821 39.9357 -202.09821 40.48191L-202.09821 43.92304Q-202.09821 44.46925 -202.64442 44.46925L-219.85007 44.46925Q-220.39629 44.46925 -220.39629 43.92304L-220.39629 6.78067Q-220.39629 6.23446 -219.85007 6.23446L-202.64442 6.23446Q-202.09821 6.23446 -202.09821 6.78067L-202.09821 10.2218Z" fill="rgb(219, 32, 32)" transform="matrix(1 0 0 1 791.071662 313.09229)"/><path d="M-178.11953 6.78067Q-178.11953 6.23446 -177.57331 6.23446L-173.47673 6.23446Q-172.93052 6.23446 -172.93052 6.78067L-172.93052 43.92304Q-172.93052 44.46925 -173.47673 44.46925L-178.17415 44.46925Q-178.61112 44.46925 -178.77498 44.03228L-188.06057 19.07042Q-188.11519 18.96118 -188.22444 18.98849Q-188.33368 19.0158 -188.33368 19.12504L-188.27906 43.92304Q-188.27906 44.46925 -188.82527 44.46925L-192.97648 44.46925Q-193.52269 44.46925 -193.52269 43.92304L-193.52269 6.78067Q-193.52269 6.23446 -192.97648 6.23446L-188.33368 6.23446Q-187.89671 6.23446 -187.73285 6.67143L-178.39263 31.63328Q-178.33801 31.79715 -178.22877 31.76984Q-178.11953 31.74253 -178.11953 31.57866L-178.11953 6.78067Z" fill="rgb(219, 32, 32)" transform="matrix(1 0 0 1 791.071662 313.09229)"/><path d="M-144.47291 6.23446Q-143.92669 6.23446 -143.92669 6.78067L-143.92669 10.2218Q-143.92669 10.76801 -144.47291 10.76801L-151.62827 10.76801Q-151.84676 10.76801 -151.84676 10.9865L-151.84676 43.92304Q-151.84676 44.46925 -152.39297 44.46925L-156.54418 44.46925Q-157.09039 44.46925 -157.09039 43.92304L-157.09039 10.9865Q-157.09039 10.76801 -157.30887 10.76801L-164.08189 10.76801Q-164.62811 10.76801 -164.62811 10.2218L-164.62811 6.78067Q-164.62811 6.23446 -164.08189 6.23446L-144.47291 6.23446Z" fill="rgb(219, 32, 32)" transform="matrix(1 0 0 1 791.071662 313.09229)"/><path d="" fill="rgb(219, 32, 32)" transform="matrix(1 0 0 1 791.071662 313.09229)"/><path d="M-112.24644 44.90622Q-116.72537 44.90622 -119.45643 42.17516Q-122.18748 39.44411 -122.18748 34.91055L-122.18748 15.84778Q-122.18748 11.31422 -119.45643 8.55585Q-116.72537 5.79749 -112.24644 5.79749Q-107.71288 5.79749 -104.95451 8.55585Q-102.19615 11.31422 -102.19615 15.84778L-102.19615 34.91055Q-102.19615 39.44411 -104.95451 42.17516Q-107.71288 44.90622 -112.24644 44.90622ZM-112.24644 40.37267Q-110.06159 40.37267 -108.75068 38.92521Q-107.43978 37.47775 -107.43978 35.12904L-107.43978 15.57467Q-107.43978 13.22596 -108.75068 11.7785Q-110.06159 10.33104 -112.24644 10.33104Q-114.37666 10.33104 -115.66026 11.7785Q-116.94385 13.22596 -116.94385 15.57467L-116.94385 35.12904Q-116.94385 37.47775 -115.66026 38.92521Q-114.37666 40.37267 -112.24644 40.37267Z" fill="rgb(219, 32, 32)" transform="matrix(1 0 0 1 791.071662 313.09229)"/><path d="M-77.72588 44.46925Q-78.21747 44.46925 -78.38133 44.03228L-83.40648 27.75518Q-83.4611 27.59132 -83.62496 27.59132L-87.44844 27.59132Q-87.66692 27.59132 -87.66692 27.80981L-87.66692 43.92304Q-87.66692 44.46925 -88.21314 44.46925L-92.36434 44.46925Q-92.91055 44.46925 -92.91055 43.92304L-92.91055 6.78067Q-92.91055 6.23446 -92.36434 6.23446L-82.58716 6.23446Q-79.80148 6.23446 -77.67126 7.59998Q-75.54103 8.96551 -74.36668 11.45078Q-73.19232 13.93604 -73.19232 17.10406Q-73.19232 20.54519 -74.61247 23.08508Q-76.03262 25.62496 -78.49057 26.772Q-78.65444 26.93587 -78.59982 27.09973L-73.02846 43.86842L-72.97384 44.0869Q-72.97384 44.46925 -73.46543 44.46925L-77.72588 44.46925ZM-87.44844 10.76801Q-87.66692 10.76801 -87.66692 10.9865L-87.66692 23.22163Q-87.66692 23.44011 -87.44844 23.44011L-83.40648 23.44011Q-81.16701 23.44011 -79.80148 21.71955Q-78.43595 19.99898 -78.43595 17.15868Q-78.43595 14.20914 -79.80148 12.48858Q-81.16701 10.76801 -83.40648 10.76801L-87.44844 10.76801Z" fill="rgb(219, 32, 32)" transform="matrix(1 0 0 1 791.071662 313.09229)"/><path d="" fill="rgb(219, 32, 32)" transform="matrix(1 0 0 1 791.071662 313.09229)"/><path d="M-35.72222 44.46925Q-36.21381 44.46925 -36.32306 43.97766L-37.52472 37.69623Q-37.52472 37.58699 -37.60665 37.53237Q-37.68858 37.47775 -37.79783 37.47775L-46.70107 37.47775Q-46.81031 37.47775 -46.89225 37.53237Q-46.97418 37.58699 -46.97418 37.69623L-48.12122 43.97766Q-48.17584 44.46925 -48.72205 44.46925L-52.87326 44.46925Q-53.14637 44.46925 -53.28292 44.30539Q-53.41947 44.14153 -53.36485 43.86842L-45.2263 6.72605Q-45.11706 6.23446 -44.62547 6.23446L-39.76419 6.23446Q-39.21798 6.23446 -39.16335 6.72605L-30.97018 43.86842L-30.97018 43.97766Q-30.97018 44.46925 -31.46177 44.46925L-35.72222 44.46925ZM-46.04562 33.10806Q-46.04562 33.32654 -45.88175 33.32654L-38.61714 33.32654Q-38.45328 33.32654 -38.45328 33.10806L-42.16752 13.71755Q-42.22214 13.60831 -42.27676 13.60831Q-42.33138 13.60831 -42.386 13.71755L-46.04562 33.10806Z" fill="rgb(219, 32, 32)" transform="matrix(1 0 0 1 791.071662 313.09229)"/><path d="M-23.05012 44.46925Q-23.59633 44.46925 -23.59633 43.92304L-23.59633 6.78067Q-23.59633 6.23446 -23.05012 6.23446L-14.09225 6.23446Q-9.5587 6.23446 -6.88226 9.02013Q-4.20583 11.80581 -4.20583 16.55785L-4.20583 34.14586Q-4.20583 38.8979 -6.88226 41.68357Q-9.5587 44.46925 -14.09225 44.46925L-23.05012 44.46925ZM-18.3527 39.71721Q-18.3527 39.9357 -18.13422 39.9357L-14.14687 39.88108Q-12.07127 39.88108 -10.81499 38.26975Q-9.5587 36.65843 -9.50408 33.87275L-9.50408 16.83096Q-9.50408 14.04528 -10.76036 12.40664Q-12.01665 10.76801 -14.14687 10.76801L-18.13422 10.76801Q-18.3527 10.76801 -18.3527 10.9865L-18.3527 39.71721Z" fill="rgb(219, 32, 32)" transform="matrix(1 0 0 1 791.071662 313.09229)"/><path d="M14.91157 44.90622Q10.43264 44.90622 7.72889 41.92937Q5.02514 38.95252 5.02514 34.09124L5.02514 6.78067Q5.02514 6.23446 5.57136 6.23446L9.72256 6.23446Q10.26877 6.23446 10.26877 6.78067L10.26877 34.63745Q10.26877 37.20464 11.55237 38.78865Q12.83597 40.37267 14.91157 40.37267Q17.04179 40.37267 18.32539 38.78865Q19.60899 37.20464 19.60899 34.63745L19.60899 6.78067Q19.60899 6.23446 20.1552 6.23446L24.30641 6.23446Q24.85262 6.23446 24.85262 6.78067L24.85262 34.09124Q24.85262 38.95252 22.12156 41.92937Q19.3905 44.90622 14.91157 44.90622Z" fill="rgb(219, 32, 32)" transform="matrix(1 0 0 1 791.071662 313.09229)"/><path d="M35.17601 44.46925Q34.6298 44.46925 34.6298 43.92304L34.6298 6.78067Q34.6298 6.23446 35.17601 6.23446L39.32722 6.23446Q39.87343 6.23446 39.87343 6.78067L39.87343 39.71721Q39.87343 39.9357 40.09191 39.9357L52.32705 39.9357Q52.87326 39.9357 52.87326 40.48191L52.87326 43.92304Q52.87326 44.46925 52.32705 44.46925L35.17601 44.46925Z" fill="rgb(219, 32, 32)" transform="matrix(1 0 0 1 791.071662 313.09229)"/><path d="M74.72171 6.23446Q75.26793 6.23446 75.26793 6.78067L75.26793 10.2218Q75.26793 10.76801 74.72171 10.76801L67.56635 10.76801Q67.34786 10.76801 67.34786 10.9865L67.34786 43.92304Q67.34786 44.46925 66.80165 44.46925L62.65044 44.46925Q62.10423 44.46925 62.10423 43.92304L62.10423 10.9865Q62.10423 10.76801 61.88575 10.76801L55.11273 10.76801Q54.56652 10.76801 54.56652 10.2218L54.56652 6.78067Q54.56652 6.23446 55.11273 6.23446L74.72171 6.23446Z" fill="rgb(219, 32, 32)" transform="matrix(1 0 0 1 791.071662 313.09229)"/><path d="" fill="rgb(219, 32, 32)" transform="matrix(1 0 0 1 791.071662 313.09229)"/><path d="M106.83894 44.90622Q102.41463 44.90622 99.71088 42.28441Q97.00714 39.66259 97.00714 35.34752L97.00714 15.35619Q97.00714 11.04112 99.71088 8.4193Q102.41463 5.79749 106.83894 5.79749Q111.26326 5.79749 113.99431 8.4193Q116.72537 11.04112 116.72537 15.41081L116.72537 17.7049Q116.72537 18.25111 116.17916 18.25111L112.02795 18.25111Q111.48174 18.25111 111.48174 17.7049L111.48174 15.30157Q111.48174 13.0621 110.19814 11.69657Q108.91455 10.33104 106.83894 10.33104Q104.76334 10.33104 103.47974 11.69657Q102.19615 13.0621 102.19615 15.30157L102.19615 35.40214Q102.19615 37.64161 103.47974 39.00714Q104.76334 40.37267 106.83894 40.37267Q108.91455 40.37267 110.19814 39.00714Q111.48174 37.64161 111.48174 35.40214L111.48174 29.39382Q111.48174 29.17533 111.26326 29.17533L107.11205 29.17533Q106.56584 29.17533 106.56584 28.62912L106.56584 25.24261Q106.56584 24.6964 107.11205 24.6964L116.17916 24.6964Q116.72537 24.6964 116.72537 25.24261L116.72537 35.34752Q116.72537 39.66259 113.99431 42.28441Q111.26326 44.90622 106.83894 44.90622Z" fill="rgb(219, 32, 32)" transform="matrix(1 0 0 1 791.071662 313.09229)"/><path d="M135.62428 44.90622Q131.14535 44.90622 128.4416 41.92937Q125.73786 38.95252 125.73786 34.09124L125.73786 6.78067Q125.73786 6.23446 126.28407 6.23446L130.43527 6.23446Q130.98149 6.23446 130.98149 6.78067L130.98149 34.63745Q130.98149 37.20464 132.26508 38.78865Q133.54868 40.37267 135.62428 40.37267Q137.75451 40.37267 139.0381 38.78865Q140.3217 37.20464 140.3217 34.63745L140.3217 6.78067Q140.3217 6.23446 140.86791 6.23446L145.01912 6.23446Q145.56533 6.23446 145.56533 6.78067L145.56533 34.09124Q145.56533 38.95252 142.83427 41.92937Q140.10322 44.90622 135.62428 44.90622Z" fill="rgb(219, 32, 32)" transform="matrix(1 0 0 1 791.071662 313.09229)"/><path d="M169.81711 44.46925Q169.32552 44.46925 169.21628 43.97766L168.01462 37.69623Q168.01462 37.58699 167.93268 37.53237Q167.85075 37.47775 167.74151 37.47775L158.83826 37.47775Q158.72902 37.47775 158.64709 37.53237Q158.56516 37.58699 158.56516 37.69623L157.41812 43.97766Q157.36349 44.46925 156.81728 44.46925L152.66608 44.46925Q152.39297 44.46925 152.25642 44.30539Q152.11987 44.14153 152.17449 43.86842L160.31304 6.72605Q160.42228 6.23446 160.91387 6.23446L165.77515 6.23446Q166.32136 6.23446 166.37598 6.72605L174.56915 43.86842L174.56915 43.97766Q174.56915 44.46925 174.07756 44.46925L169.81711 44.46925ZM159.49372 33.10806Q159.49372 33.32654 159.65758 33.32654L166.92219 33.32654Q167.08606 33.32654 167.08606 33.10806L163.37182 13.71755Q163.3172 13.60831 163.26258 13.60831Q163.20796 13.60831 163.15333 13.71755L159.49372 33.10806Z" fill="rgb(219, 32, 32)" transform="matrix(1 0 0 1 791.071662 313.09229)"/><path d="M197.12768 44.46925Q196.63609 44.46925 196.47223 44.03228L191.44708 27.75518Q191.39246 27.59132 191.2286 27.59132L187.40512 27.59132Q187.18663 27.59132 187.18663 27.80981L187.18663 43.92304Q187.18663 44.46925 186.64042 44.46925L182.48922 44.46925Q181.94301 44.46925 181.94301 43.92304L181.94301 6.78067Q181.94301 6.23446 182.48922 6.23446L192.2664 6.23446Q195.05208 6.23446 197.1823 7.59998Q199.31253 8.96551 200.48688 11.45078Q201.66124 13.93604 201.66124 17.10406Q201.66124 20.54519 200.24109 23.08508Q198.82094 25.62496 196.36299 26.772Q196.19912 26.93587 196.25374 27.09973L201.8251 43.86842L201.87972 44.0869Q201.87972 44.46925 201.38813 44.46925L197.12768 44.46925ZM187.40512 10.76801Q187.18663 10.76801 187.18663 10.9865L187.18663 23.22163Q187.18663 23.44011 187.40512 23.44011L191.44708 23.44011Q193.68655 23.44011 195.05208 21.71955Q196.41761 19.99898 196.41761 17.15868Q196.41761 14.20914 195.05208 12.48858Q193.68655 10.76801 191.44708 10.76801L187.40512 10.76801Z" fill="rgb(219, 32, 32)" transform="matrix(1 0 0 1 791.071662 313.09229)"/><path d="M210.50986 44.46925Q209.96365 44.46925 209.96365 43.92304L209.96365 6.78067Q209.96365 6.23446 210.50986 6.23446L219.46773 6.23446Q224.00128 6.23446 226.67772 9.02013Q229.35415 11.80581 229.35415 16.55785L229.35415 34.14586Q229.35415 38.8979 226.67772 41.68357Q224.00128 44.46925 219.46773 44.46925L210.50986 44.46925ZM215.20728 39.71721Q215.20728 39.9357 215.42576 39.9357L219.41311 39.88108Q221.48871 39.88108 222.74499 38.26975Q224.00128 36.65843 224.0559 33.87275L224.0559 16.83096Q224.0559 14.04528 222.79962 12.40664Q221.54333 10.76801 219.41311 10.76801L215.42576 10.76801Q215.20728 10.76801 215.20728 10.9865L215.20728 39.71721Z" fill="rgb(219, 32, 32)" transform="matrix(1 0 0 1 791.071662 313.09229)"/><path d="M239.40444 44.46925Q238.85823 44.46925 238.85823 43.92304L238.85823 6.78067Q238.85823 6.23446 239.40444 6.23446L243.55565 6.23446Q244.10186 6.23446 244.10186 6.78067L244.10186 43.92304Q244.10186 44.46925 243.55565 44.46925L239.40444 44.46925Z" fill="rgb(219, 32, 32)" transform="matrix(1 0 0 1 791.071662 313.09229)"/><path d="M269.11834 44.46925Q268.62675 44.46925 268.51751 43.97766L267.31584 37.69623Q267.31584 37.58699 267.23391 37.53237Q267.15198 37.47775 267.04274 37.47775L258.13949 37.47775Q258.03025 37.47775 257.94832 37.53237Q257.86639 37.58699 257.86639 37.69623L256.71934 43.97766Q256.66472 44.46925 256.11851 44.46925L251.9673 44.46925Q251.6942 44.46925 251.55764 44.30539Q251.42109 44.14153 251.47571 43.86842L259.61426 6.72605Q259.7235 6.23446 260.21509 6.23446L265.07638 6.23446Q265.62259 6.23446 265.67721 6.72605L273.87038 43.86842L273.87038 43.97766Q273.87038 44.46925 273.37879 44.46925L269.11834 44.46925ZM258.79494 33.10806Q258.79494 33.32654 258.95881 33.32654L266.22342 33.32654Q266.38728 33.32654 266.38728 33.10806L262.67305 13.71755Q262.61842 13.60831 262.5638 13.60831Q262.50918 13.60831 262.45456 13.71755L258.79494 33.10806Z" fill="rgb(219, 32, 32)" transform="matrix(1 0 0 1 791.071662 313.09229)"/><path d="M296.64739 6.78067Q296.64739 6.23446 297.1936 6.23446L301.29019 6.23446Q301.8364 6.23446 301.8364 6.78067L301.8364 43.92304Q301.8364 44.46925 301.29019 44.46925L296.59277 44.46925Q296.1558 44.46925 295.99194 44.03228L286.70635 19.07042Q286.65172 18.96118 286.54248 18.98849Q286.43324 19.0158 286.43324 19.12504L286.48786 43.92304Q286.48786 44.46925 285.94165 44.46925L281.79044 44.46925Q281.24423 44.46925 281.24423 43.92304L281.24423 6.78067Q281.24423 6.23446 281.79044 6.23446L286.43324 6.23446Q286.87021 6.23446 287.03407 6.67143L296.37429 31.63328Q296.42891 31.79715 296.53815 31.76984Q296.64739 31.74253 296.64739 31.57866L296.64739 6.78067Z" fill="rgb(219, 32, 32)" transform="matrix(1 0 0 1 791.071662 313.09229)"/></g></g>
<g style="" id="a5e387a1-e52d-4e1d-87d7-875cdc0d59fd">
<g style=""><path d="M-273.31153 47.21008L-290.36531 39.81109L-300.02009 -4.94379L-313.10367 0.83103L-313.10367 27.99075L-306.607 30.69769L-314.72784 47.11985L-334.12764 39.72086L-334.12764 -43.38245L-343.33126 -48.43542L-332.5937 -65.30873L-311.20881 -53.2177L-289.01183 -65.03804L-265.28092 -21.90733L-282.15423 -13.2451L-273.04084 26.63727L-264.82976 30.60746ZM-313.10367 -7.74097L-287.65836 -19.832L-303.44889 -48.52566L-313.10367 -43.74338Z" fill="rgb(219, 32, 32)" transform="matrix(1 0 0 1 807.771309 128.391036)"/><path d="M-212.04427 46.48823L-254.45313 32.86325L-254.18243 -48.52566L-227.92504 -65.57943L-203.11134 -58.72183L-208.25455 -42.02898L-233.88032 -49.7889L-234.06079 -23.89243L-205.72806 -23.89243L-209.78848 -7.28981L-234.15102 -7.65074L-234.33148 19.77967L-202.02857 29.79538Z" fill="rgb(219, 32, 32)" transform="matrix(1 0 0 1 807.771309 128.391036)"/><path d="M-155.82998 46.84915L-193.54679 33.76557L-180.10229 18.69689L-145.81427 30.427L-145.54358 -4.94379L-153.48396 -8.01166L-163.31921 4.71099L-187.32081 -5.84611L-187.23058 -50.87168L-157.63462 -65.39897L-125.06101 -55.83442L-134.89625 -39.86342L-166.83824 -49.33774L-166.83824 -17.39575L-159.34902 -14.05718L-148.52122 -27.68215L-125.78286 -18.56876L-125.78286 33.94603Z" fill="rgb(219, 32, 32)" transform="matrix(1 0 0 1 807.771309 128.391036)"/><path d="M-55.85336 -43.92384C-62.07934 -44.6457 -69.56857 -45.18709 -77.32849 -45.54801L-77.68941 23.74986L-61.71842 28.62237L-68.48579 46.48823L-97.90129 37.37483L-97.81106 -40.9462L-84.81771 -45.81871C-97.72083 -46.26987 -110.80441 -46.26987 -120.09827 -46.17963L-112.78951 -64.31619C-98.08176 -65.12827 -69.20764 -64.40642 -54.13896 -62.60179Z" fill="rgb(219, 32, 32)" transform="matrix(1 0 0 1 807.771309 128.391036)"/><path d="M19.49003 47.21008L2.43625 39.81109L-7.21853 -4.94379L-20.30211 0.83103L-20.30211 27.99075L-13.80544 30.69769L-21.92628 47.11985L-41.32608 39.72086L-41.32608 -43.38245L-50.5297 -48.43542L-39.79214 -65.30873L-18.40725 -53.2177L3.78973 -65.03804L27.52064 -21.90733L10.64733 -13.2451L19.76072 26.63727L27.9718 30.60746ZM-20.30211 -7.74097L5.1432 -19.832L-10.64733 -48.52566L-20.30211 -43.74338Z" fill="rgb(219, 32, 32)" transform="matrix(1 0 0 1 807.771309 128.391036)"/><path d="M46.19858 47.48077L29.32527 43.69105L35.73172 25.0131L51.07109 29.16376L50.89063 -41.2169L63.52305 -45.54801C51.79294 -46.3601 48.09345 -46.17963 33.92708 -45.45778L36.8145 -63.86503C51.79294 -64.40642 57.3873 -64.49665 72.27552 -63.68457L71.28297 -46.54056L71.28297 23.74986Z" fill="rgb(219, 32, 32)" transform="matrix(1 0 0 1 807.771309 128.391036)"/><path d="M129.21166 46.39799L87.16373 32.68279L87.16373 -48.52566L113.51136 -65.4892L138.59575 -58.6316L133.18185 -42.11921L107.37561 -49.96936L107.37561 19.68944L139.49806 29.97584Z" fill="rgb(219, 32, 32)" transform="matrix(1 0 0 1 807.771309 128.391036)"/><path d="M203.38204 -43.92384C197.15606 -44.6457 189.66684 -45.18709 181.90692 -45.54801L181.54599 23.74986L197.51699 28.62237L190.74961 46.48823L161.33411 37.37483L161.42434 -40.9462L174.41769 -45.81871C161.51457 -46.26987 148.43099 -46.26987 139.13714 -46.17963L146.4459 -64.31619C161.15365 -65.12827 190.02776 -64.40642 205.09644 -62.60179Z" fill="rgb(219, 32, 32)" transform="matrix(1 0 0 1 807.771309 128.391036)"/><path d="M255.62614 46.48823L213.21728 32.86325L213.48798 -48.52566L239.74538 -65.57943L264.55907 -58.72183L259.41587 -42.02898L233.79009 -49.7889L233.60963 -23.89243L261.94235 -23.89243L257.88193 -7.28981L233.5194 -7.65074L233.33893 19.77967L265.64185 29.79538Z" fill="rgb(219, 32, 32)" transform="matrix(1 0 0 1 807.771309 128.391036)"/><path d="M285.58303 -65.12827L338.81968 -48.61589L338.81968 29.88561L309.7651 46.57846L271.59713 37.91622L277.19149 28.62237L277.37196 -41.2169L287.92905 -44.19454L271.86783 -49.42797ZM317.97618 30.78793L318.33711 -34.26906L297.40337 -41.12666L297.04245 23.5694L292.80156 24.74241Z" fill="rgb(219, 32, 32)" transform="matrix(1 0 0 1 807.771309 128.391036)"/></g></g>
<g style="" id="7bac7cae-84a3-4ad3-8df4-a95da423010e">
<g style=""><path d="M112.53108 37.56037Q112.53108 45.06245 116.9966 50.42107Q121.46212 55.77969 130.03592 62.92452Q136.46626 67.9259 138.25247 70.06935L89.31038 136.87352Q70.73382 127.58524 54.83657 114.72454Q38.93933 101.86385 38.93933 93.64729L34.29519 17.91209L20.36277 -0.30723L10.36 6.12312L10.36 74.35625L-41.79726 136.51628Q-60.37382 126.15627 -87.16693 117.40386Q-113.96005 108.65144 -138.25247 106.50799Q-133.60833 95.79074 -124.32005 80.42936Q-115.03177 65.06797 -105.38625 53.81486Q-95.74073 42.56176 -90.02487 42.56176Q-81.09383 42.56176 -65.19658 44.52658Q-49.29933 46.49141 -33.22346 51.13555L-111.8166 -25.67138L-25.36415 -95.69072L-27.15036 -95.69072Q-56.8014 -95.69072 -80.55796 -87.8314Q-104.31453 -79.97209 -126.10626 -62.8245L-135.39454 -70.32657Q-121.81936 -90.33209 -101.09935 -109.08727Q-80.37934 -127.84245 -53.22899 -140.34591Q-26.07863 -152.84936 3.57242 -152.84936Q38.93933 -152.84936 67.87589 -136.23763Q96.81245 -119.6259 113.60281 -97.47692Q130.39316 -75.32795 131.10764 -60.68105L86.80969 -34.95966Q97.52694 -27.45758 102.70694 -20.31275Q107.88694 -13.16792 110.20901 -0.12861Q112.53108 12.91071 112.53108 37.56037ZM-0.35724 -91.04658Q-10.00276 -94.61899 -17.86208 -95.33347L-17.86208 1.83622L-0.35724 -11.02447ZM10.36 -18.88379L42.1545 -42.10449Q41.44002 -43.53345 40.54691 -45.14104Q39.65381 -46.74863 38.58209 -48.89208Q32.15174 -61.75277 26.07863 -70.32657Q20.00553 -78.90036 10.36 -85.33071ZM-0.35724 12.55347L-17.86208 23.62795L-17.86208 56.49418Q-7.50207 60.78107 -0.35724 65.06797Z" fill="rgb(219, 32, 32)" transform="matrix(1 0 0 1 190.354702 218.187887)"/></g></g>
<g id="c5ad2905-57de-486e-b325-c935ca26f870">
<g style="">
		<g id="c5ad2905-57de-486e-b325-c935ca26f870-child-0">
<path style="stroke: rgb(193,193,193); stroke-width: 0; stroke-dasharray: none; stroke-linecap: butt; stroke-dashoffset: 0; stroke-linejoin: miter; stroke-miterlimit: 4; fill: rgb(219,32,32); fill-rule: nonzero; opacity: 1;" transform="matrix(0.267158 0 0 0.267158 1302.397077 317.402108) matrix(1 0 0 1 121.272268 155.772)  translate(-367.998, -402.4975)" d="M 420.49 352.01 L 307.54 352.01 L 307.54 316.44 L 275.05 359.47 L 242.54 402.49 L 275.05 445.52 L 307.54 488.55 L 307.54 463.94 L 367.74 461.66 C 420.95 458.45 433.67 436.47 433.67 436.47 L 493.45 325.39 C 471.41 356.12 420.49 352.01 420.49 352.01 z" stroke-linecap="round"/>
</g>
		<g id="c5ad2905-57de-486e-b325-c935ca26f870-child-1">
<path style="stroke: rgb(193,193,193); stroke-width: 0; stroke-dasharray: none; stroke-linecap: butt; stroke-dashoffset: 0; stroke-linejoin: miter; stroke-miterlimit: 4; fill: rgb(219,32,32); fill-rule: nonzero; opacity: 1;" transform="matrix(0.267158 0 0 0.267158 1302.397077 317.402108) matrix(1 0 0 1 176.403734 15.623065)  translate(-423.129466, -262.348566)" d="M 451.53 192.18 L 355.18 248.15 L 403.35 331.65 C 452.44 336.23 467.56 321.09 467.56 321.09 C 506.89 298.84 485.01 249.51 485.01 249.51 L 451.53 192.18 z" stroke-linecap="round"/>
</g>
		<g id="c5ad2905-57de-486e-b325-c935ca26f870-child-2">
<path style="stroke: rgb(193,193,193); stroke-width: 0; stroke-dasharray: none; stroke-linecap: butt; stroke-dashoffset: 0; stroke-linejoin: miter; stroke-miterlimit: 4; fill: rgb(219,32,32); fill-rule: nonzero; opacity: 1;" transform="matrix(0.267158 0 0 0.267158 1302.397077 317.402108) matrix(1 0 0 1 -161.2315 51.6975)  translate(-85.494232, -298.423)" d="M 66.96 425.68 C 52.09 390.93 82.04 349.49 82.04 349.49 L 140.59 252.92 L 170.99 271.36 L 151.02 221.26 L 131.10 171.17 L 77.46 176.65 L 23.81 182.15 L 44.84 194.89 L 15.62 247.55 C -9.22 294.71 3.01 316.99 3.01 316.99 L 66.96 425.68 z" stroke-linecap="round"/>
</g>
		<g id="c5ad2905-57de-486e-b325-c935ca26f870-child-3">
<path style="stroke: rgb(193,193,193); stroke-width: 0; stroke-dasharray: none; stroke-linecap: butt; stroke-dashoffset: 0; stroke-linejoin: miter; stroke-miterlimit: 4; fill: rgb(219,32,32); fill-rule: nonzero; opacity: 1;" transform="matrix(0.267158 0 0 0.267158 1302.397077 317.402108) matrix(1 0 0 1 -102.850391 158.2625)  translate(-143.875341, -404.988)" d="M 83.71 408.62 C 82.36 453.81 135.88 460.64 135.88 460.64 L 202.31 461.74 L 204.38 350.31 L 108.00 348.24 C 78.62 387.83 83.71 408.62 83.71 408.62 z" stroke-linecap="round"/>
</g>
		<g id="c5ad2905-57de-486e-b325-c935ca26f870-child-4">
<path style="stroke: rgb(193,193,193); stroke-width: 0; stroke-dasharray: none; stroke-linecap: butt; stroke-dashoffset: 0; stroke-linejoin: miter; stroke-miterlimit: 4; fill: rgb(219,32,32); fill-rule: nonzero; opacity: 1;" transform="matrix(0.267158 0 0 0.267158 1302.397077 317.402108) matrix(1 0 0 1 59.798268 -149.687)  translate(-306.524, -97.0385)" d="M 324.37 181.03 L 377.65 189.18 L 400.04 140.13 L 422.47 91.10 L 400.84 102.79 L 370.23 50.92 C 342.12 5.63 316.71 4.90 316.71 4.90 L 190.57 5.06 C 228.10 9.84 248.67 56.61 248.67 56.61 L 302.33 155.97 L 271.06 172.87 L 324.37 181.03 z" stroke-linecap="round"/>
</g>
		<g id="c5ad2905-57de-486e-b325-c935ca26f870-child-5">
<path style="stroke: rgb(193,193,193); stroke-width: 0; stroke-dasharray: none; stroke-linecap: butt; stroke-dashoffset: 0; stroke-linejoin: miter; stroke-miterlimit: 4; fill: rgb(219,32,32); fill-rule: nonzero; opacity: 1;" transform="matrix(0.267158 0 0 0.267158 1302.397077 317.402108) matrix(1 0 0 1 -82.847232 -159.544175)  translate(-163.8785, -87.181325)" d="M 236.69 75.57 C 217.40 30.20 196.88 24.06 196.88 24.06 C 158.61 0.05 125.62 42.73 125.62 42.73 L 91.07 99.46 L 186.10 157.63 L 236.69 75.57 z" stroke-linecap="round"/>
</g>
</g>
</g>
<g id="dfe8aab9-39d7-4578-9743-fb876a88d44f">
<g style="">
		<g id="dfe8aab9-39d7-4578-9743-fb876a88d44f-child-0">
<path style="stroke: rgb(60,232,25); stroke-width: 8.367926; stroke-dasharray: none; stroke-linecap: round; stroke-dashoffset: 0; stroke-linejoin: miter; stroke-miterlimit: 10; fill: none; fill-rule: nonzero; opacity: 1;" d="M4.18396,397.52862v-393.25402h392.11269v393.25402z" stroke-linecap="round"/>
</g>
</g>
</g>
<g id="62defe29-3492-431d-86b6-6c65cf5f957a">
<g style="">
		<g id="62defe29-3492-431d-86b6-6c65cf5f957a-child-0">
<path style="stroke: rgb(60,232,25); stroke-width: 8.372301; stroke-dasharray: none; stroke-linecap: round; stroke-dashoffset: 0; stroke-linejoin: miter; stroke-miterlimit: 10; fill: rgb(255,255,255); fill-opacity: 0; fill-rule: nonzero; opacity: 1;" d="M395.99582,397.1929v-393.00675h1044.04034v393.00675z" stroke-linecap="round"/>
</g>
</g>
</g>
<g id="4ab60132-bed8-43e1-b0c1-b1d4d2de4cec">
<g style="">
		<g id="4ab60132-bed8-43e1-b0c1-b1d4d2de4cec-child-0">
<path style="stroke: rgb(60,232,25); stroke-width: 8.363391; stroke-dasharray: none; stroke-linecap: round; stroke-dashoffset: 0; stroke-linejoin: miter; stroke-miterlimit: 10; fill: rgb(255,255,255); fill-opacity: 0; fill-rule: nonzero; opacity: 1;" d="M396.29644,397.08558v-195.79953h1043.74536v195.79953z" stroke-linecap="round"/>
</g>
</g>
</g>
<g id="e75243e4-4cd9-4b61-80ef-5f04c5244fb5">
<g style="">
		<g id="e75243e4-4cd9-4b61-80ef-5f04c5244fb5-child-0">
<path style="stroke: rgb(60,232,25); stroke-width: 8.367926; stroke-dasharray: none; stroke-linecap: round; stroke-dashoffset: 0; stroke-linejoin: miter; stroke-miterlimit: 10; fill: none; fill-rule: nonzero; opacity: 1;" d="M1219.93061,397.52862v-393.25402h220.1214v393.25402z" stroke-linecap="round"/>
</g>
</g>
</g>

  </svg>