<svg xmlns="http://www.w3.org/2000/svg" xmlns:xlink="http://www.w3.org/1999/xlink" width="242px" height="479px" viewBox="0 0 242.2377289320575 479.60914253058036">
    <g style="" id="33f0b581-9651-4cf4-9426-8e378bd356cd">
<g style=""><path d="" fill="rgb(37, 37, 37)" transform="matrix(1 0 0 1 121.118069 363.052467)"/><path d="M-93.38329 111.4884Q-106.24994 104.85588 -113.54104 91.56906Q-120.83214 78.28223 -121.11807 57.93004Q-118.83066 56.29656 -117.544 55.61091Q-116.25733 54.92526 -112.25438 54.57791Q-110.53882 53.28104 -106.3929 52.49079Q-102.24698 51.70053 -97.52921 51.29116Q-92.81144 50.88178 -88.23663 50.62831Q-83.66182 50.37484 -80.80256 50.12673Q-78.51516 53.65924 -76.79961 58.24588Q-75.08405 62.83251 -72.79665 66.79553Q-70.50924 70.75854 -67.2211 73.05622Q-63.93296 75.35389 -58.21444 74.28368Q-52.49593 62.88146 -50.78038 50.8221Q-49.06483 38.76274 -57.35667 28.86325Q-60.21592 29.97235 -62.93222 32.21706Q-65.64851 34.46176 -68.65073 36.58777Q-71.65295 38.71378 -75.22702 40.02842Q-78.80109 41.34305 -83.37589 40.30502Q-93.09736 38.27859 -102.38994 31.33594Q-111.68252 24.39329 -114.82771 14.90821Q-116.25733 10.72726 -115.82845 6.38504Q-115.39956 2.04283 -116.82919 -2.71212Q-117.68696 -5.50769 -118.11585 -9.77547Q-118.54474 -14.04326 -118.54474 -18.49176Q-118.54474 -22.94026 -118.11585 -27.13897Q-117.68696 -31.33769 -116.82919 -34.56912Q-115.68548 -38.11236 -116.82919 -41.60062Q-117.97289 -45.08888 -118.54474 -47.04826Q-119.40252 -49.84382 -119.11659 -53.31263Q-118.83066 -56.78144 -117.97289 -60.01288Q-117.11511 -63.24431 -115.97141 -66.35705Q-114.82771 -69.46979 -113.96993 -71.55323Q-112.5403 -75.40828 -109.68105 -79.67439Q-106.82179 -83.9405 -103.24772 -87.98163Q-99.67365 -92.02276 -95.81366 -95.22771Q-91.95366 -98.43265 -87.9507 -100.215Q-85.09145 -101.32411 -82.08923 -101.72812Q-79.08701 -102.13214 -76.08479 -102.67965Q-73.08257 -103.22716 -70.36628 -104.03686Q-67.64999 -104.84657 -65.36258 -106.48005Q-61.35963 -106.8274 -58.92926 -106.03379Q-56.49889 -105.24018 -53.63964 -104.91429L-43.06039 -105.83229Q-38.48558 -104.79426 -33.053 -101.53466Q-27.62041 -98.27507 -22.75967 -93.96135Q-17.89894 -89.64763 -14.03895 -84.67308Q-10.17895 -79.69852 -8.74932 -75.51758L-9.6071 -59.94515Q-8.4634 -54.87839 -6.60488 -52.45666Q-4.74636 -50.03493 -3.31674 -47.00198Q-2.45896 -44.78041 -2.74489 -40.0201Q-3.03081 -35.25979 -2.45896 -33.58741Q-1.88711 -29.90603 -2.88785 -26.5187Q-3.88859 -23.13136 -5.17525 -19.71921Q-6.46192 -16.30706 -7.17673 -12.65754Q-7.89155 -9.00801 -7.03377 -5.06444Q-4.46044 5.04426 -3.31674 18.00352Q-2.17303 30.96278 -3.03081 44.23921Q-3.88859 57.51564 -6.74784 69.53075Q-9.6071 81.54585 -15.03968 89.47926Q-19.90042 96.78904 -29.193 103.04839Q-38.48558 109.30774 -49.63668 112.85836Q-60.78777 116.40898 -72.36776 116.55281Q-83.94775 116.69665 -93.38329 111.4884ZM-95.09884 87.24226Q-93.38329 85.3714 -90.95292 85.01701Q-88.52255 84.66262 -86.23515 83.02913Q-87.66478 82.57919 -88.95144 82.54733Q-90.23811 82.51548 -92.52551 82.71397Q-93.66921 83.38721 -95.95662 83.7292Q-98.24402 84.07118 -100.53143 84.26967L-100.53143 85.13067Q-98.81587 86.1298 -98.24402 86.51068Q-97.67217 86.89156 -95.09884 87.24226ZM-79.94479 84.2053Q-78.51516 83.50724 -78.65812 83.66315Q-78.80109 83.81905 -77.94331 83.17062Q-79.08701 82.40886 -79.94479 81.6223L-82.51812 81.84559Q-82.51812 83.28059 -82.37515 84.27269Q-82.23219 85.26478 -79.94479 84.2053ZM-63.64703 92.83608Q-65.36258 92.41095 -66.50629 91.93619Q-65.93443 93.60857 -65.93443 93.46507Q-65.93443 93.32157 -63.64703 93.69708ZM-89.66626 68.68986L-89.66626 66.10686L-92.52551 66.35497L-93.38329 68.1514L-94.24107 69.08683ZM-54.78334 90.91895L-56.49889 91.06782Q-56.21297 93.052 -56.35593 92.77741Q-56.49889 92.50282 -54.78334 92.92795ZM-24.1893 78.5062L-24.1893 76.7842L-26.76263 77.0075L-26.76263 78.7295ZM-33.91077 63.85177Q-30.76559 63.86585 -27.04856 63.25631Q-23.33153 62.64677 -21.33005 61.03809Q-26.47671 60.62369 -33.91077 61.26877ZM-31.33744 51.00047Q-33.62485 50.91196 -34.1967 50.53108Q-34.76855 50.1502 -36.77003 49.74987Q-35.91225 51.68444 -35.91225 51.68444Q-35.91225 51.68444 -33.91077 52.37177Q-33.33892 52.89615 -33.053 52.72784Q-32.76707 52.55952 -31.33744 53.00947ZM-30.47967 50.92604Q-27.90634 50.41574 -27.90634 50.55924Q-27.90634 50.70274 -26.76263 48.8815L-30.47967 49.20404ZM-18.75672 51.0568Q-18.18487 50.43318 -17.04116 49.75993L-17.04116 48.89893L-20.47227 49.19666Q-21.33005 48.69709 -21.9019 48.74672Q-22.47375 48.79634 -24.1893 48.6582L-24.1893 50.3802Q-21.9019 50.46872 -20.61523 51.07457Q-19.32857 51.68042 -18.75672 51.0568ZM-69.93739 -5.05908Q-62.78925 -0.80035 -59.07222 -2.84489Q-55.35519 -4.88943 -54.06852 -10.31058Q-52.78186 -15.73172 -52.78186 -23.19372Q-52.78186 -30.65572 -52.78186 -37.25672L-52.78186 -57.05972Q-53.63964 -59.56829 -55.92704 -61.23531Q-58.21444 -62.90232 -59.93 -64.76246L-67.36406 -64.11738Q-70.22332 -58.99027 -71.50998 -51.41662Q-72.79665 -43.84297 -72.93961 -35.50757Q-73.08257 -27.17216 -72.2248 -19.21059Q-71.36702 -11.24903 -69.93739 -5.05908Z" fill="rgb(37, 37, 37)" transform="matrix(1 0 0 1 121.118069 363.052467)"/><path d="M51.58097 106.08436Q47.57801 105.57071 42.28839 105.02521Q36.99877 104.47971 32.42396 103.44168Q29.5647 102.54178 25.56175 99.44513Q21.55879 96.34848 17.69879 92.52193Q13.8388 88.69537 10.69362 84.66329Q7.54843 80.63121 6.40473 77.57345Q5.26103 74.5157 5.11807 71.2276Q4.9751 67.93951 4.9751 64.49551Q4.9751 61.05151 4.83214 57.61991Q4.68918 54.18832 3.8314 50.81875L2.11585 49.24561Q0.68622 45.35167 1.97289 40.64802Q3.25955 35.94437 3.8314 33.59875L3.8314 10.92575Q4.68918 7.69432 6.40473 3.38395Q8.12029 -0.92641 10.12176 -3.97009Q11.26547 -5.79133 12.69509 -7.06338Q14.12472 -8.33544 15.55435 -9.46399Q16.98398 -10.59254 18.12768 -12.27029Q19.27138 -13.94803 19.84323 -16.58065Q16.69805 -18.31673 12.26621 -21.66317Q7.83436 -25.0096 6.40473 -28.90355L6.40473 -47.84555Q6.11881 -48.68174 5.11807 -50.4604Q4.11733 -52.23906 3.8314 -53.07525Q2.97363 -55.87082 4.11733 -61.85356Q5.26103 -67.8363 7.26251 -74.18048Q9.26399 -80.52465 11.40843 -85.73323Q13.55287 -90.94181 14.69657 -92.76306Q16.1262 -94.89611 18.55657 -97.5465Q20.98694 -100.19689 23.84619 -102.8845Q26.70545 -105.57211 29.70767 -107.69812Q32.70988 -109.82413 35.28321 -110.90843Q37.85654 -111.99273 39.28617 -111.82978Q40.7158 -111.66683 42.43135 -113.2507Q47.57801 -113.69729 53.58245 -114.64882Q59.58689 -115.60034 65.59132 -116.12137Q71.59576 -116.64239 77.02835 -116.5398Q82.46093 -116.4372 86.46389 -115.34955Q91.0387 -113.73752 96.0424 -110.58421Q101.04609 -107.4309 105.33498 -103.35456Q109.62386 -99.27822 112.912 -94.39754Q116.20015 -89.51687 117.9157 -84.49973Q119.63126 -79.7696 119.0594 -75.12798Q118.48755 -70.48635 119.91718 -64.87041Q121.34681 -58.96746 120.77496 -51.74284Q120.20311 -44.51822 117.05793 -38.5053Q114.77052 -33.71481 110.6246 -30.05456Q106.47868 -26.3943 102.76165 -22.91476L102.76165 -21.76676L103.61942 -21.8412Q104.76313 -18.78344 106.76461 -16.51761Q108.76608 -14.25179 110.91053 -11.85487Q113.05497 -9.45795 115.05645 -6.90513Q117.05793 -4.3523 117.9157 -0.69573L117.9157 11.07127Q121.91866 26.22192 120.91792 40.22825Q119.91718 54.23459 114.91348 66.00528Q109.90979 77.77597 101.47498 86.40038Q93.04018 95.0248 81.88908 99.14942Q79.02983 100.25853 75.59872 101.70426Q72.16761 103.14998 68.30762 104.34593Q64.44762 105.54187 60.15874 106.20104Q55.86985 106.8602 51.58097 106.08436ZM63.01799 62.90293Q64.73355 61.03206 66.16318 60.33401Q67.5928 59.63596 68.45058 56.97852Q69.30836 55.75609 69.88021 48.81847Q70.45206 41.88085 70.73798 33.67654Q71.02391 25.47223 70.59502 18.33444Q70.16613 11.19666 69.30836 9.83609Q68.16465 6.77834 66.02021 5.24242Q63.87577 3.7065 62.16022 1.55936L55.86985 2.1052Q54.72615 3.63944 53.58245 4.45618Q52.43875 5.27293 51.58097 6.78236Q50.15134 8.62841 49.72246 11.39213Q49.29357 14.15584 49.57949 17.00103Q49.86542 19.84622 50.43727 22.5231Q51.00912 25.19998 51.58097 26.87236Q52.43875 29.95493 51.29505 32.92417Q50.15134 35.89341 49.57949 37.66503Q48.43579 42.06928 48.86468 46.19356Q49.29357 50.31784 50.58023 53.6502Q51.8669 56.98255 54.01134 59.23597Q56.15578 61.48939 58.72911 62.12709Q59.58689 62.62666 60.44466 62.69573Q61.30244 62.76479 63.01799 62.90293ZM23.56027 -61.10119L23.56027 -62.82319L21.84471 -62.67433L21.84471 -60.95233ZM39.85802 -52.4704Q39.5721 -54.74159 39.42913 -55.30319Q39.28617 -55.86478 37.85654 -56.88873Q37.57062 -55.71592 37.42766 -55.27301Q37.28469 -54.83011 36.99877 -53.08329Q37.85654 -52.58373 37.57062 -52.84592Q37.28469 -53.10811 37.85654 -52.29673ZM31.56618 -64.37889L29.85063 -64.23003Q30.42248 -61.98365 30.27952 -62.25824Q30.13655 -62.53284 31.56618 -61.79589ZM29.85063 -67.10003Q30.42248 -67.72365 30.27952 -67.42424Q30.13655 -67.12484 30.70841 -68.03546L29.85063 -67.96103Q29.27878 -68.4854 29.27878 -68.3419Q29.27878 -68.1984 28.13508 -68.67316Q28.421 -66.40197 28.27804 -66.67657Q28.13508 -66.95116 29.85063 -66.23903ZM24.41804 -80.11762Q25.56175 -81.07787 25.41878 -80.92196Q25.27582 -80.76605 24.41804 -81.83962ZM36.99877 -73.17329L36.99877 -74.03429L37.85654 -74.10873Q37.28469 -74.92011 37.14173 -75.1947Q36.99877 -75.46929 36.99877 -75.46929Q36.99877 -75.46929 36.99877 -75.75629Q36.99877 -76.04329 36.99877 -77.47829Q39.00025 -79.08697 39.28617 -79.97278Q39.5721 -80.85859 39.85802 -84.0404L37.85654 -83.86673Q36.42692 -81.44667 35.14025 -79.18252Q33.85359 -76.91838 32.42396 -74.49832Q31.28026 -73.53808 30.85137 -73.78786Q30.42248 -74.03765 30.13655 -74.15634Q29.85063 -74.27503 29.42174 -74.09431Q28.99285 -73.91359 28.13508 -72.40416ZM63.01799 -39.26907Q65.01947 -42.02575 67.44984 -45.25014Q69.88021 -48.47453 72.16761 -50.96902Q72.45354 -58.45583 72.02465 -65.59361Q71.59576 -72.73139 66.73503 -74.60561Q65.01947 -76.17875 63.16096 -76.59148Q61.30244 -77.00421 57.87133 -76.70648Q56.44171 -75.14742 55.298 -74.18718Q54.1543 -73.22694 53.29652 -70.85651Q51.58097 -68.69864 51.15208 -64.78693Q50.72319 -60.87521 51.00912 -56.59502Q51.29505 -52.31483 52.15282 -48.37126Q53.0106 -44.4277 54.1543 -42.80494Q55.298 -41.18218 58.0143 -40.41338Q60.73059 -39.64459 63.01799 -39.26907ZM51.58097 -87.92764Q49.57949 -89.47597 48.29283 -91.08632Q47.00616 -92.69667 44.14691 -93.59656Q45.57653 -90.56362 46.43431 -88.77255Q47.29209 -86.98148 51.58097 -87.06664ZM58.72911 -96.58391Q59.58689 -98.09334 61.15948 -99.6648Q62.73207 -101.23626 64.1617 -102.50831L64.1617 -103.36931L60.44466 -103.04677Q59.58689 -101.53734 58.72911 -99.74091Q57.87133 -97.94448 56.72763 -96.41024ZM107.05053 -61.17092Q106.76461 -62.29411 106.76461 -62.29411Q106.76461 -62.29411 106.19275 -62.81849L106.19275 -61.09649ZM81.88908 -86.82658Q78.7439 -88.56266 77.02835 -92.1448Q75.31279 -95.72693 72.16761 -97.75002Q71.88169 -96.2902 71.73872 -94.9863Q71.59576 -93.68239 71.30984 -92.22258Q74.16909 -90.17469 75.59872 -87.71574Q77.02835 -85.2568 81.88908 -85.10458ZM88.17944 -74.74442Q89.60907 -76.59047 90.89574 -77.27612Q92.1824 -77.96177 94.46981 -79.02125L94.46981 -79.88225Q93.04018 -80.0452 92.75425 -80.02039Q92.46833 -79.99558 91.89648 -80.51996Q93.04018 -82.0542 93.3261 -82.94001Q93.61203 -83.82582 92.75425 -85.18639Q91.61055 -82.79114 90.46685 -81.8309Q89.32315 -80.87066 88.17944 -80.34092Q87.03574 -79.81117 85.89204 -79.13793Q84.74834 -78.46469 83.89056 -77.24226Q85.60611 -76.81712 85.74908 -76.54252Q85.89204 -76.26793 85.89204 -75.98093Q85.89204 -75.69393 86.17796 -75.28824Q86.46389 -74.88255 88.17944 -74.74442Z" fill="rgb(37, 37, 37)" transform="matrix(1 0 0 1 121.118069 363.052467)"/><path d="" fill="rgb(37, 37, 37)" transform="matrix(1 0 0 1 121.118069 363.052467)"/></g></g>

  </svg>