<svg xmlns="http://www.w3.org/2000/svg" xmlns:xlink="http://www.w3.org/1999/xlink" width="1064px" height="707px" viewBox="0 0 1063.9970310000062 707.3999999999996">
    <g style="" id="722037ed-d62c-43bd-9fdf-193fcc00bde1">
<g style=""><path d="M-323.01 -61.5348Q-323.01 -65.6748 -322.02 -67.5648Q-321.03 -69.4548 -318.33 -69.9948Q-315.63 -70.5348 -310.77 -70.2648Q-305.91 -69.9948 -298.17 -69.9948Q-293.67 -69.9948 -289.26 -70.0848Q-284.85 -70.1748 -280.35 -70.1748L-259.29 -70.1748Q-255.51 -70.1748 -253.44 -69.9048Q-251.37 -69.6348 -250.38 -68.8248Q-249.39 -68.0148 -249.21 -66.3048Q-249.03 -64.5948 -249.03 -61.5348Q-249.03 -56.4948 -250.83 -53.0748Q-252.63 -49.6548 -259.65 -49.6548Q-263.07 -49.6548 -266.22 -49.4748Q-269.37 -49.2948 -272.79 -48.9348Q-272.79 -40.2948 -272.61 -32.2848Q-272.43 -24.2748 -272.16 -16.4448Q-271.89 -8.6148 -271.62 -0.5148Q-271.35 7.5852 -270.99 16.4052L-269.73 47.9052Q-269.37 54.0252 -269.64 57.4452Q-269.91 60.8652 -271.17 62.4852Q-272.43 64.1052 -274.86 64.3752Q-277.29 64.6452 -281.61 64.6452Q-286.47 64.6452 -289.26 63.9252Q-292.05 63.2052 -293.58 61.0452Q-295.11 58.8852 -295.56 54.9252Q-296.01 50.9652 -296.37 44.6652Q-296.91 32.2452 -297.36 20.5452Q-297.81 8.8452 -298.17 -2.5848Q-298.53 -14.0148 -298.8 -25.6248Q-299.07 -37.2348 -299.43 -49.6548Q-306.63 -49.6548 -311.22 -50.1048Q-315.81 -50.5548 -318.42 -51.8148Q-321.03 -53.0748 -322.02 -55.4148Q-323.01 -57.7548 -323.01 -61.5348Z" fill="rgb(222, 198, 133)" transform="matrix(1 0 0 1 531.998516 353.7)"/><path d="M-243.63 -5.3748Q-243.27 -26.0748 -241.02 -40.3848Q-238.77 -54.6948 -233.37 -63.6048Q-227.97 -72.5148 -218.79 -76.5648Q-209.61 -80.6148 -195.39 -80.6148Q-181.89 -80.6148 -173.61 -75.1248Q-165.33 -69.6348 -160.92 -59.6448Q-156.51 -49.6548 -155.16 -35.6148Q-153.81 -21.5748 -154.17 -4.4748Q-154.53 12.6252 -156.42 25.8552Q-158.31 39.0852 -163.17 48.0852Q-168.03 57.0852 -176.49 61.6752Q-184.95 66.2652 -198.27 66.2652Q-213.03 66.2652 -222.12 62.8452Q-231.21 59.4252 -236.07 51.1452Q-240.93 42.8652 -242.46 29.0952Q-243.99 15.3252 -243.63 -5.3748ZM-219.51 -4.6548Q-219.69 12.0852 -218.7 23.1552Q-217.71 34.2252 -214.92 40.7952Q-212.13 47.3652 -207.45 49.9752Q-202.77 52.5852 -195.75 52.5852Q-188.73 52.5852 -184.05 49.7052Q-179.37 46.8252 -176.58 40.3452Q-173.79 33.8652 -172.44 23.3352Q-171.09 12.8052 -170.91 -2.4948Q-170.55 -17.7948 -171.72 -28.7748Q-172.89 -39.7548 -175.77 -46.7748Q-178.65 -53.7948 -183.51 -57.1248Q-188.37 -60.4548 -195.39 -60.4548Q-202.41 -60.4548 -207 -58.0248Q-211.59 -55.5948 -214.29 -49.2948Q-216.99 -42.9948 -218.07 -32.1948Q-219.15 -21.3948 -219.51 -4.6548Z" fill="rgb(222, 198, 133)" transform="matrix(1 0 0 1 531.998516 353.7)"/><path d="" fill="rgb(222, 198, 133)" transform="matrix(1 0 0 1 531.998516 353.7)"/><path d="M-11.79 -47.3148Q-11.79 -43.8948 -13.14 -41.3748Q-14.49 -38.8548 -18.27 -38.8548Q-21.87 -38.8548 -24.12 -39.1248Q-26.37 -39.3948 -27.72 -40.4748Q-29.07 -41.5548 -29.52 -43.4448Q-29.97 -45.3348 -29.97 -48.5748Q-29.97 -54.3348 -34.02 -57.6648Q-38.07 -60.9948 -48.69 -60.9948Q-56.43 -60.9948 -60.75 -57.9348Q-65.07 -54.8748 -66.96 -47.8548Q-68.85 -40.8348 -69.21 -29.4948Q-69.57 -18.1548 -69.57 -1.5948Q-69.57 10.8252 -67.14 20.6352Q-64.71 30.4452 -60.48 37.3752Q-56.25 44.3052 -50.76 47.9952Q-45.27 51.6852 -39.15 51.6852Q-34.29 51.6852 -31.14 49.5252Q-27.99 47.3652 -26.1 43.9452Q-24.21 40.5252 -23.4 36.1152Q-22.59 31.7052 -22.41 27.2052Q-22.23 22.7052 -22.32 18.4752Q-22.41 14.2452 -22.41 11.1852Q-22.41 5.6052 -24.03 4.4352Q-25.65 3.2652 -29.79 4.1652Q-33.39 4.8852 -37.98 6.0552Q-42.57 7.2252 -46.35 7.2252Q-50.49 7.2252 -53.1 6.3252Q-55.71 5.4252 -55.71 1.1052Q-55.71 -3.0348 -52.92 -4.2948Q-50.13 -5.5548 -47.07 -5.9148Q-39.15 -6.8148 -31.86 -8.2548Q-24.57 -9.6948 -16.47 -10.5948Q-13.05 -10.9548 -11.25 -9.7848Q-9.45 -8.6148 -8.64 -6.0948Q-7.83 -3.5748 -7.74 0.3852Q-7.65 4.3452 -7.65 9.3852Q-7.65 18.9252 -9 28.8252Q-10.35 38.7252 -14.67 46.8252Q-18.99 54.9252 -26.91 60.0552Q-34.83 65.1852 -47.97 65.1852Q-59.49 65.1852 -68.76 60.8652Q-78.03 56.5452 -84.51 47.8152Q-90.99 39.0852 -94.5 26.1252Q-98.01 13.1652 -98.01 -4.1148Q-98.01 -24.2748 -96.57 -38.6748Q-95.13 -53.0748 -90 -62.2548Q-84.87 -71.4348 -75.15 -75.7548Q-65.43 -80.0748 -48.87 -80.0748Q-41.31 -80.0748 -34.65 -78.0048Q-27.99 -75.9348 -22.86 -71.7948Q-17.73 -67.6548 -14.76 -61.5348Q-11.79 -55.4148 -11.79 -47.3148Z" fill="rgb(222, 198, 133)" transform="matrix(1 0 0 1 531.998516 353.7)"/><path d="M2.61 -5.3748Q2.97 -26.0748 5.22 -40.3848Q7.47 -54.6948 12.87 -63.6048Q18.27 -72.5148 27.45 -76.5648Q36.63 -80.6148 50.85 -80.6148Q64.35 -80.6148 72.63 -75.1248Q80.91 -69.6348 85.32 -59.6448Q89.73 -49.6548 91.08 -35.6148Q92.43 -21.5748 92.07 -4.4748Q91.71 12.6252 89.82 25.8552Q87.93 39.0852 83.07 48.0852Q78.21 57.0852 69.75 61.6752Q61.29 66.2652 47.97 66.2652Q33.21 66.2652 24.12 62.8452Q15.03 59.4252 10.17 51.1452Q5.31 42.8652 3.78 29.0952Q2.25 15.3252 2.61 -5.3748ZM26.73 -4.6548Q26.55 12.0852 27.54 23.1552Q28.53 34.2252 31.32 40.7952Q34.11 47.3652 38.79 49.9752Q43.47 52.5852 50.49 52.5852Q57.51 52.5852 62.19 49.7052Q66.87 46.8252 69.66 40.3452Q72.45 33.8652 73.8 23.3352Q75.15 12.8052 75.33 -2.4948Q75.69 -17.7948 74.52 -28.7748Q73.35 -39.7548 70.47 -46.7748Q67.59 -53.7948 62.73 -57.1248Q57.87 -60.4548 50.85 -60.4548Q43.83 -60.4548 39.24 -58.0248Q34.65 -55.5948 31.95 -49.2948Q29.25 -42.9948 28.17 -32.1948Q27.09 -21.3948 26.73 -4.6548Z" fill="rgb(222, 198, 133)" transform="matrix(1 0 0 1 531.998516 353.7)"/><path d="" fill="rgb(222, 198, 133)" transform="matrix(1 0 0 1 531.998516 353.7)"/><path d="M179.01 0.0252Q179.01 16.4052 179.55 26.2152Q180.09 36.0252 181.53 41.3352Q182.97 46.6452 185.31 48.3552Q187.65 50.0652 191.07 50.0652Q197.01 50.0652 200.43 48.6252Q203.85 47.1852 205.74 43.4952Q207.63 39.8052 208.17 33.6852Q208.71 27.5652 208.71 18.2052Q208.71 11.5452 209.79 8.7552Q210.87 5.9652 216.09 5.9652Q220.95 5.9652 222.03 8.3052Q223.11 10.6452 223.11 15.8652Q223.11 29.9052 222.21 39.3552Q221.31 48.8052 217.71 54.5652Q214.11 60.3252 207.18 62.7552Q200.25 65.1852 188.01 65.1852Q176.49 65.1852 169.38 62.7552Q162.27 60.3252 158.4 53.4852Q154.53 46.6452 153.27 34.5852Q152.01 22.5252 152.01 3.0852Q152.01 -2.3148 152.19 -10.5948Q152.37 -18.8748 152.55 -28.1448Q152.73 -37.4148 152.91 -47.0448Q153.09 -56.6748 153.09 -64.9548Q153.09 -68.5548 156.06 -69.9048Q159.03 -71.2548 165.33 -71.2548Q172.89 -71.2548 176.31 -69.8148Q179.73 -68.3748 179.73 -64.2348Q179.73 -59.7348 179.73 -54.6048Q179.73 -49.4748 179.55 -44.0748Q182.43 -44.0748 185.13 -44.1648Q187.83 -44.2548 190.71 -44.2548L211.77 -44.2548Q217.17 -44.2548 219.6 -42.9048Q222.03 -41.5548 222.03 -35.6148Q222.03 -33.0948 221.04 -31.7448Q220.05 -30.3948 218.61 -29.8548Q217.17 -29.3148 215.28 -29.2248Q213.39 -29.1348 211.41 -29.1348Q202.59 -29.1348 195.39 -28.9548Q188.19 -28.7748 179.37 -28.9548Q179.19 -21.0348 179.1 -13.6548Q179.01 -6.2748 179.01 0.0252Z" fill="rgb(222, 198, 133)" transform="matrix(1 0 0 1 531.998516 353.7)"/><path d="M234.99 -5.3748Q235.35 -26.0748 237.6 -40.3848Q239.85 -54.6948 245.25 -63.6048Q250.65 -72.5148 259.83 -76.5648Q269.01 -80.6148 283.23 -80.6148Q296.73 -80.6148 305.01 -75.1248Q313.29 -69.6348 317.7 -59.6448Q322.11 -49.6548 323.46 -35.6148Q324.81 -21.5748 324.45 -4.4748Q324.09 12.6252 322.2 25.8552Q320.31 39.0852 315.45 48.0852Q310.59 57.0852 302.13 61.6752Q293.67 66.2652 280.35 66.2652Q265.59 66.2652 256.5 62.8452Q247.41 59.4252 242.55 51.1452Q237.69 42.8652 236.16 29.0952Q234.63 15.3252 234.99 -5.3748ZM259.11 -4.6548Q258.93 12.0852 259.92 23.1552Q260.91 34.2252 263.7 40.7952Q266.49 47.3652 271.17 49.9752Q275.85 52.5852 282.87 52.5852Q289.89 52.5852 294.57 49.7052Q299.25 46.8252 302.04 40.3452Q304.83 33.8652 306.18 23.3352Q307.53 12.8052 307.71 -2.4948Q308.07 -17.7948 306.9 -28.7748Q305.73 -39.7548 302.85 -46.7748Q299.97 -53.7948 295.11 -57.1248Q290.25 -60.4548 283.23 -60.4548Q276.21 -60.4548 271.62 -58.0248Q267.03 -55.5948 264.33 -49.2948Q261.63 -42.9948 260.55 -32.1948Q259.47 -21.3948 259.11 -4.6548Z" fill="rgb(222, 198, 133)" transform="matrix(1 0 0 1 531.998516 353.7)"/><path d="M-183.96 172.8252Q-179.46 172.8252 -176.94 173.3652Q-174.42 173.9052 -173.25 175.6152Q-172.08 177.3252 -171.63 180.5652Q-171.18 183.8052 -170.64 189.0252Q-169.74 197.8452 -169.56 209.8152Q-169.38 221.7852 -169.2 233.9352Q-169.02 246.0852 -168.75 256.6152Q-168.48 267.1452 -167.76 273.0852Q-167.22 276.6852 -164.52 276.6852Q-163.98 276.6852 -163.17 273.2652Q-162.36 269.8452 -161.37 264.2652Q-160.38 258.6852 -159.3 251.8452Q-158.22 245.0052 -157.14 238.2552Q-156.06 231.5052 -154.89 225.4752Q-153.72 219.4452 -152.82 215.4852Q-151.38 209.5452 -149.85 203.6952Q-148.32 197.8452 -146.7 191.9052Q-146.34 190.4652 -145.53 188.6652Q-144.72 186.8652 -143.55 185.3352Q-142.38 183.8052 -140.58 182.8152Q-138.78 181.8252 -136.26 181.8252Q-129.96 181.8252 -127.8 184.7952Q-125.64 187.7652 -124.02 191.9052Q-121.5 198.2052 -120.42 204.8652Q-119.34 211.5252 -117.9 218.0052Q-116.82 222.8652 -115.83 229.7052Q-114.84 236.5452 -113.85 244.0152Q-112.86 251.4852 -111.78 258.7752Q-110.7 266.0652 -109.62 271.9152Q-108.54 277.7652 -107.55 281.3652Q-106.56 284.9652 -105.48 284.9652Q-104.94 284.9652 -103.95 284.0652Q-102.96 283.1652 -102.6 280.6452Q-101.7 275.4252 -101.07 265.5252Q-100.44 255.6252 -99.81 244.3752Q-99.18 233.1252 -98.64 221.9652Q-98.1 210.8052 -97.38 202.8852Q-96.48 192.8052 -95.94 186.8652Q-95.4 180.9252 -94.5 177.8652Q-93.6 174.8052 -91.98 173.8152Q-90.36 172.8252 -87.12 172.8252Q-84.06 172.8252 -82.17 173.1852Q-80.28 173.5452 -79.2 174.7152Q-78.12 175.8852 -77.76 178.3152Q-77.4 180.7452 -77.4 184.8852Q-77.4 186.1452 -77.49 187.3152Q-77.58 188.4852 -77.76 189.7452L-89.28 292.5252Q-90 299.3652 -90.54 303.5952Q-91.08 307.8252 -92.34 310.2552Q-93.6 312.6852 -96.03 313.5852Q-98.46 314.4852 -102.96 314.4852Q-105.84 314.4852 -107.73 314.2152Q-109.62 313.9452 -111.06 312.9552Q-112.5 311.9652 -113.58 309.9852Q-114.66 308.0052 -115.92 304.5852Q-118.26 298.6452 -119.7 292.3452Q-121.14 286.0452 -122.58 279.9252Q-123.84 274.1652 -125.1 266.6952Q-126.36 259.2252 -127.62 251.5752Q-128.88 243.9252 -130.14 237.1752Q-131.4 230.4252 -132.66 226.2852Q-133.56 223.2252 -134.1 222.5952Q-134.64 221.9652 -135.9 221.9652Q-137.16 221.9652 -138.33 223.4052Q-139.5 224.8452 -140.4 229.8852Q-140.94 232.7652 -141.93 238.7952Q-142.92 244.8252 -144.18 251.8452Q-145.44 258.8652 -146.79 266.1552Q-148.14 273.4452 -149.58 278.8452Q-151.2 285.6852 -152.73 292.4352Q-154.26 299.1852 -156.78 305.6652Q-158.04 308.7252 -159.21 310.7052Q-160.38 312.6852 -161.91 313.7652Q-163.44 314.8452 -165.69 315.2052Q-167.94 315.5652 -171.18 315.5652Q-175.68 315.5652 -178.29 314.6652Q-180.9 313.7652 -182.34 311.1552Q-183.78 308.5452 -184.5 303.7752Q-185.22 299.0052 -185.94 291.0852L-195.84 189.7452Q-196.02 188.6652 -196.02 187.5852Q-196.02 186.5052 -196.02 185.4252Q-196.02 181.1052 -195.75 178.5852Q-195.48 176.0652 -194.22 174.8052Q-192.96 173.5452 -190.62 173.1852Q-188.28 172.8252 -183.96 172.8252Z" fill="rgb(222, 198, 133)" transform="matrix(1 0 0 1 531.998516 353.7)"/><path d="M-70.74 246.6252Q-70.38 225.9252 -68.13 211.6152Q-65.88 197.3052 -60.48 188.3952Q-55.08 179.4852 -45.9 175.4352Q-36.72 171.3852 -22.5 171.3852Q-9 171.3852 -0.72 176.8752Q7.56 182.3652 11.97 192.3552Q16.38 202.3452 17.73 216.3852Q19.08 230.4252 18.72 247.5252Q18.36 264.6252 16.47 277.8552Q14.58 291.0852 9.72 300.0852Q4.86 309.0852 -3.6 313.6752Q-12.06 318.2652 -25.38 318.2652Q-40.14 318.2652 -49.23 314.8452Q-58.32 311.4252 -63.18 303.1452Q-68.04 294.8652 -69.57 281.0952Q-71.1 267.3252 -70.74 246.6252ZM-46.62 247.3452Q-46.8 264.0852 -45.81 275.1552Q-44.82 286.2252 -42.03 292.7952Q-39.24 299.3652 -34.56 301.9752Q-29.88 304.5852 -22.86 304.5852Q-15.84 304.5852 -11.16 301.7052Q-6.48 298.8252 -3.69 292.3452Q-0.9 285.8652 0.45 275.3352Q1.8 264.8052 1.98 249.5052Q2.34 234.2052 1.17 223.2252Q0 212.2452 -2.88 205.2252Q-5.76 198.2052 -10.62 194.8752Q-15.48 191.5452 -22.5 191.5452Q-29.52 191.5452 -34.11 193.9752Q-38.7 196.4052 -41.4 202.7052Q-44.1 209.0052 -45.18 219.8052Q-46.26 230.6052 -46.62 247.3452Z" fill="rgb(222, 198, 133)" transform="matrix(1 0 0 1 531.998516 353.7)"/><path d="M56.52 270.7452Q56.52 271.6452 56.61 272.6352Q56.7 273.6252 56.7 274.5252Q57.06 279.7452 57.33 285.0552Q57.6 290.3652 57.96 295.7652Q58.32 300.6252 57.96 304.0452Q57.6 307.4652 56.43 309.4452Q55.26 311.4252 52.83 312.3252Q50.4 313.2252 46.44 313.2252Q41.4 313.2252 38.43 312.4152Q35.46 311.6052 33.84 309.2652Q32.22 306.9252 31.68 302.6952Q31.14 298.4652 30.78 291.6252L27.72 227.0052Q27.36 222.5052 27.45 217.9152Q27.54 213.3252 27.18 208.8252Q26.46 197.8452 26.46 191.6352Q26.46 185.4252 27.45 182.2752Q28.44 179.1252 30.6 178.4052Q32.76 177.6852 36.54 177.6852Q41.76 177.6852 46.98 177.5052Q52.2 177.3252 57.42 177.3252Q71.82 177.3252 80.82 178.6752Q89.82 180.0252 94.95 184.4352Q100.08 188.8452 101.97 197.3952Q103.86 205.9452 103.86 220.3452Q103.86 229.7052 102.96 236.8152Q102.06 243.9252 99.45 249.5052Q96.84 255.0852 92.07 259.5852Q87.3 264.0852 79.74 268.4052Q81.18 270.2052 83.79 272.5452Q86.4 274.8852 89.46 277.8552Q92.52 280.8252 95.67 284.2452Q98.82 287.6652 101.34 291.8052Q103.32 294.8652 104.49 296.9352Q105.66 299.0052 106.38 300.6252Q107.1 302.2452 107.28 303.7752Q107.46 305.3052 107.46 307.4652Q107.46 310.7052 106.29 311.9652Q105.12 313.2252 100.08 313.2252Q98.1 313.2252 97.11 312.8652Q96.12 312.5052 94.5 311.4252Q93.24 310.5252 90.81 307.7352Q88.38 304.9452 85.32 301.1652Q82.26 297.3852 78.93 292.8852Q75.6 288.3852 72.54 284.2452Q69.48 280.1052 67.05 276.5952Q64.62 273.0852 63.36 271.2852ZM54 218.1852Q54.36 226.4652 54.9 234.7452Q55.44 243.0252 55.8 251.3052Q55.8 252.7452 55.89 254.0952Q55.98 255.4452 55.98 256.8852Q65.7 256.8852 71.82 254.6352Q77.94 252.3852 81.27 247.7952Q84.6 243.2052 85.77 236.4552Q86.94 229.7052 86.94 220.7052Q86.94 214.2252 85.86 208.9152Q84.78 203.6052 82.08 199.8252Q79.38 196.0452 74.79 193.9752Q70.2 191.9052 63.18 191.9052Q57.96 191.9052 55.44 192.9852Q52.92 194.0652 53.1 197.4852Q53.46 203.2452 53.55 208.1052Q53.64 212.9652 54 218.1852Z" fill="rgb(222, 198, 133)" transform="matrix(1 0 0 1 531.998516 353.7)"/><path d="M118.44 295.9452Q117.36 267.1452 116.73 238.7952Q116.1 210.4452 115.38 181.8252Q115.38 178.2252 115.83 176.2452Q116.28 174.2652 117.63 173.2752Q118.98 172.2852 121.59 172.1052Q124.2 171.9252 128.52 171.9252Q132.66 171.9252 135.27 172.2852Q137.88 172.6452 139.41 173.8152Q140.94 174.9852 141.48 177.4152Q142.02 179.8452 142.2 183.9852Q142.92 198.9252 142.83 213.7752Q142.74 228.6252 142.92 243.7452Q149.58 232.9452 155.79 222.2352Q162 211.5252 168.3 200.7252Q171 196.0452 173.79 191.3652Q176.58 186.6852 179.64 182.1852Q180.72 180.7452 182.16 179.3952Q183.6 178.0452 185.58 178.0452Q187.92 178.0452 190.17 178.5852Q192.42 179.1252 194.31 180.2052Q196.2 181.2852 197.37 182.9052Q198.54 184.5252 198.54 186.6852Q198.54 188.3052 198.36 189.8352Q198.18 191.3652 197.46 193.1652Q196.74 194.9652 195.57 197.3052Q194.4 199.6452 192.42 202.8852Q185.58 214.7652 177.57 225.9252Q169.56 237.0852 161.28 248.2452Q169.2 259.9452 177.57 270.8352Q185.94 281.7252 193.5 293.6052Q194.76 295.5852 195.93 297.7452Q197.1 299.9052 197.1 303.5052Q197.1 306.3852 195.93 307.9152Q194.76 309.4452 190.98 309.4452Q188.1 309.4452 185.13 306.8352Q182.16 304.2252 180.36 302.2452Q176.94 298.4652 173.25 293.2452Q169.56 288.0252 165.87 282.2652Q162.18 276.5052 158.67 270.7452Q155.16 264.9852 152.46 260.1252Q150.3 263.1852 148.23 266.2452Q146.16 269.3052 144 272.3652Q144.36 279.2052 144.63 285.7752Q144.9 292.3452 145.26 299.1852Q145.44 304.5852 145.17 307.8252Q144.9 311.0652 143.55 312.8652Q142.2 314.6652 139.5 315.2952Q136.8 315.9252 132.3 315.9252Q127.8 315.9252 125.19 315.0252Q122.58 314.1252 121.14 311.8752Q119.7 309.6252 119.25 305.7552Q118.8 301.8852 118.44 295.9452Z" fill="rgb(222, 198, 133)" transform="matrix(1 0 0 1 531.998516 353.7)"/></g></g>

  </svg>