<svg xmlns="http://www.w3.org/2000/svg" xmlns:xlink="http://www.w3.org/1999/xlink" width="186px" height="88px" viewBox="0 0 186.00506842652976 88.42247804642477">
    <g style="" id="6fdbde85-6b1a-47af-b205-3e68f864480d">
<g style=""><path d="" fill="rgb(37, 37, 37)" transform="matrix(1 0 0 1 93.001798 55.658629)"/><path d="M-90.02772 32.4289Q-90.24458 32.55394 -90.72167 32.63542Q-91.19877 32.71691 -91.56743 32.73588Q-91.93609 32.75484 -92.19632 32.75529Q-92.36981 32.78492 -92.58667 32.71196Q-92.80353 32.639 -92.8469 32.47041Q-93.06376 32.02345 -92.97701 31.48063L-92.76015 30.21159L-92.58667 29.08196Q-92.23969 26.6467 -92.04452 24.98536Q-91.84934 23.32403 -91.80597 21.51262Q-91.7626 20.40521 -91.41563 18.05795Q-91.06865 16.06269 -91.02528 15.08728Q-90.93853 13.31246 -90.41807 9.79157Q-90.0711 7.18031 -89.94098 5.92608Q-89.76749 3.69645 -89.72412 2.89704Q-89.63738 0.90223 -89.50726 -0.13199Q-89.42052 -0.98281 -89.31209 -1.44133Q-89.20366 -1.89985 -88.85668 -2.31111Q-88.16273 -3.13364 -86.73146 -3.3781Q-85.90739 -3.51885 -85.25681 -3.45396Q-85.17007 -3.46878 -84.97489 -3.45811Q-84.77972 -3.44745 -84.64961 -3.38167Q-84.30263 -3.17694 -84.17251 -2.75916Q-83.91228 -2.05561 -83.82554 -0.44242L-83.73879 0.59876Q-83.47856 2.53432 -83.08822 4.22764Q-83.04484 4.57224 -82.87136 5.46661L-82.61112 6.83016Q-81.74369 11.522 -81.61357 13.91978L-81.52683 16.50096Q-81.52683 17.42496 -81.44008 19.08215Q-81.39671 19.51474 -81.22322 20.67311Q-81.17985 21.1497 -81.09311 21.79488Q-81.00636 22.44007 -80.91962 23.39325L-80.74613 25.34362Q-80.4859 27.49917 -80.4859 28.59917Q-80.4859 29.47917 -80.52927 29.92658Q-80.57264 30.41799 -80.96299 30.72666Q-81.35334 31.03533 -81.96055 31.05104L-82.61112 31.11816Q-83.30508 31.23668 -83.71711 31.19706Q-84.12914 31.15743 -84.17251 30.68084Q-84.21589 30.33625 -84.25926 29.88166Q-84.30263 29.42706 -84.38937 28.82588Q-84.47612 27.9607 -84.47612 27.6087L-84.43275 26.50129Q-84.43275 26.01729 -84.56286 25.73151Q-84.64961 25.52633 -85.25681 25.63004Q-86.12425 25.69019 -86.60134 25.77168Q-87.03506 25.84576 -87.9025 26.08192Q-88.24947 26.18518 -88.42296 26.39081Q-88.59645 26.59644 -88.68319 27.00726Q-88.76994 27.37407 -88.81331 28.08548Q-88.85668 28.79689 -89.03017 29.35452Q-89.11691 29.58933 -89.11691 29.94133L-89.07354 30.59393Q-89.07354 31.47393 -89.24703 31.78956Q-89.42052 32.10519 -90.02772 32.4289ZM-85.69053 21.78812Q-85.47367 21.75108 -85.34356 21.59685Q-85.25681 21.49404 -85.25681 21.05404Q-85.4303 19.63167 -85.4303 18.22367Q-85.4303 16.85967 -85.51704 16.30248L-85.69053 14.35212Q-85.69053 13.60412 -85.7339 13.25952Q-85.86402 11.82975 -86.03751 10.97938Q-86.25437 9.69642 -86.29774 8.51582Q-86.29774 7.76782 -86.38448 7.69464Q-86.47123 7.53346 -86.64471 7.56309Q-86.77483 7.58531 -86.88326 7.84583Q-86.99169 8.10635 -87.03506 8.46576L-87.16518 9.67598Q-87.42541 11.65643 -87.46878 12.80784Q-87.46878 13.29184 -87.51215 13.71724Q-87.55552 14.14265 -87.5989 14.50206Q-87.77238 16.02769 -87.81576 17.3551Q-87.81576 18.2351 -87.85913 18.77051Q-87.85913 20.31051 -87.9025 21.19792Q-87.9025 21.24192 -87.92419 21.48762Q-87.94587 21.73332 -87.85913 21.85051Q-87.68564 22.08488 -87.20855 22.00339L-86.5146 21.88486Q-86.03751 21.80338 -85.82065 21.81034Z" fill="rgb(37, 37, 37)" transform="matrix(1 0 0 1 93.001798 55.658629)"/><path d="M-75.10778 -5.4074Q-72.85244 -5.61661 -71.6814 -5.81662Q-69.98989 -6.10552 -68.73211 -6.49635L-68.21165 -6.62925Q-67.64781 -6.72555 -67.38758 -6.506Q-67.08398 -6.29385 -66.8888 -5.86519Q-66.69363 -5.43652 -66.69363 -4.95252Q-66.69363 -4.51252 -66.91049 -4.03548Q-67.34421 -3.0374 -67.69118 -2.62614Q-68.03816 -2.21488 -68.77548 -2.08894Q-69.81641 -1.91116 -70.42361 -1.74145Q-71.03082 -1.57174 -71.33442 -1.07988Q-71.55128 -0.69084 -71.55128 -0.09684Q-71.55128 0.49716 -71.55128 0.54116Q-71.55128 0.84916 -71.50791 1.56775Q-71.46454 2.28634 -71.46454 3.65034Q-71.46454 5.45434 -71.63803 7.02397Q-71.81152 8.50561 -71.81152 10.26561Q-71.81152 12.15761 -71.63803 14.06397Q-71.55128 16.95316 -71.55128 19.06516Q-71.55128 21.96916 -71.63803 26.29597L-71.6814 28.15138Q-71.6814 28.81138 -71.85489 28.99501Q-72.02837 29.17864 -72.63558 29.41435Q-72.85244 29.49539 -73.2211 29.62436Q-73.58976 29.75333 -73.80662 29.79037Q-74.1536 29.84963 -74.4572 29.72548Q-75.19453 29.41142 -75.43307 29.12216Q-75.67162 28.8329 -75.75836 28.09972Q-75.88848 26.84594 -75.88848 25.30594Q-75.88848 22.92994 -75.67162 20.1649Q-75.62824 19.4535 -75.58487 18.61009Q-75.5415 17.76668 -75.5415 16.79868L-75.5415 14.86268Q-75.5415 12.53068 -75.58487 11.26209L-75.58487 9.81009L-75.5415 7.38268Q-75.49813 6.62727 -75.49813 5.17527Q-75.49813 2.27127 -76.06196 -0.31643Q-76.06196 -0.40443 -76.10534 -0.59502Q-76.14871 -0.78561 -76.27882 -0.82939Q-76.40894 -0.87316 -76.6258 -0.83612Q-76.97277 -0.82086 -77.62335 -0.70974Q-77.79684 -0.68011 -78.51248 -0.55788Q-79.22811 -0.43565 -79.79195 -0.51535Q-80.13892 -0.63209 -80.22567 -0.72727Q-80.31241 -0.82246 -80.39916 -1.24764Q-80.52927 -1.75342 -80.52927 -2.19342Q-80.52927 -3.02942 -80.05218 -3.7269Q-79.61846 -4.37298 -79.44497 -4.53461Q-79.27149 -4.69625 -78.75102 -4.78514Q-78.27393 -4.91063 -77.44987 -5.05138L-76.10534 -5.28102Z" fill="rgb(37, 37, 37)" transform="matrix(1 0 0 1 93.001798 55.658629)"/><path d="M-59.84086 -4.40696Q-59.79749 -4.06237 -59.79749 -3.31437Q-59.79749 -2.30237 -59.97098 -0.07274Q-60.14447 2.1569 -60.14447 3.3009Q-60.14447 4.3569 -60.01435 5.39067Q-59.92761 5.85986 -59.71075 5.97682Q-59.49389 6.09378 -59.10354 6.02711Q-57.9325 5.82709 -57.36866 5.90679Q-57.02169 5.93553 -56.8482 5.9059Q-56.5446 5.85404 -56.28437 5.6776Q-55.41693 5.13344 -55.41693 4.12144Q-55.41693 3.68144 -55.4603 3.46885Q-55.50367 2.99226 -55.50367 1.93626Q-55.50367 1.01226 -55.41693 -1.02656Q-55.33018 -2.97738 -55.33018 -3.90138L-55.37356 -5.60997Q-55.41693 -6.04256 -55.41693 -6.83456Q-55.41693 -7.93456 -55.02658 -8.35323Q-54.20251 -9.15398 -53.11822 -9.33918Q-52.55438 -9.43548 -51.73031 -9.00423Q-51.38334 -8.84349 -51.29659 -8.46231Q-51.20985 -8.08112 -51.20985 -7.70712Q-51.20985 -7.33312 -51.20985 -7.24512L-51.25322 -5.65371L-51.25322 -3.40971Q-51.25322 -1.47371 -51.38334 -0.43949Q-51.77369 3.19118 -51.77369 6.93118Q-51.77369 10.09918 -51.47008 12.77533Q-51.25322 14.76229 -51.25322 17.57829Q-51.25322 19.47029 -51.29659 20.40169Q-51.29659 21.06169 -51.31828 21.9894Q-51.33997 22.9171 -51.29659 24.05369L-51.25322 24.88229Q-51.25322 25.45429 -51.51345 25.71873Q-51.81706 25.94659 -52.55438 25.98452Q-52.9881 25.9706 -53.37845 26.05927Q-53.76879 26.14794 -54.0724 26.1998Q-55.02658 26.36277 -55.20007 24.8524Q-55.37356 23.29803 -55.37356 21.01003Q-55.37356 18.89803 -55.24344 16.76381Q-55.1567 14.02099 -55.1567 12.74499Q-55.1567 11.51299 -55.41693 10.74344Q-55.67716 9.97389 -56.45785 9.71123Q-56.89157 9.56531 -57.58552 9.68383Q-57.97587 9.7505 -58.75657 9.97184Q-59.45052 10.13437 -59.66738 10.50141Q-59.88424 10.86845 -59.88424 11.66045L-59.92761 14.83586Q-59.92761 15.97986 -59.88424 16.54445Q-59.84086 16.97704 -59.84086 17.90104Q-59.84086 18.73704 -59.92761 20.42386Q-60.01435 21.93467 -60.01435 22.63867Q-60.01435 23.16667 -59.92761 24.03186L-59.88424 25.16845Q-59.88424 25.69645 -60.01435 26.02667Q-60.14447 26.3569 -60.49144 26.68016Q-60.75167 26.9446 -61.09865 27.22387Q-61.44563 27.50313 -61.74923 27.55499L-62.70341 27.76196Q-63.48411 27.8953 -63.83108 27.51456Q-64.09131 27.16301 -64.09131 26.48101Q-64.09131 25.79901 -64.09131 25.71101L-64.09131 20.38701Q-64.09131 19.59501 -63.91783 17.80538Q-63.87445 17.44597 -63.78771 16.35315Q-63.70097 15.26034 -63.74434 14.34375Q-63.91783 7.64138 -63.91783 -0.49862L-63.91783 -4.50262Q-63.91783 -5.86662 -63.74434 -6.55625Q-63.57085 -7.11389 -63.00701 -7.43019Q-62.83353 -7.54782 -62.44318 -7.61449Q-62.13958 -7.66634 -61.53237 -7.68205Q-61.09865 -7.62413 -60.62156 -7.70562Q-60.31796 -7.75747 -60.12278 -7.57081Q-59.92761 -7.38414 -59.92761 -7.03214Q-59.92761 -6.15214 -59.84086 -4.40696Z" fill="rgb(37, 37, 37)" transform="matrix(1 0 0 1 93.001798 55.658629)"/><path d="M-42.96919 -3.68061Q-43.14267 -1.49498 -43.14267 1.93702Q-43.14267 2.55302 -43.18605 4.87043Q-43.22942 7.18784 -43.4029 9.15347Q-43.44628 9.55688 -43.44628 10.34888Q-43.44628 11.18488 -43.35953 12.16006Q-43.27279 13.13524 -43.22942 13.47984Q-42.96919 15.67939 -43.05593 16.6182Q-43.22942 19.02384 -41.92826 19.4176Q-41.23431 19.65108 -40.15001 19.46588Q-39.67292 19.38439 -39.41269 19.29595Q-39.19583 19.21491 -38.87054 19.11535Q-38.54525 19.01579 -38.06816 18.9343Q-37.24409 18.79355 -37.00555 18.92881Q-36.767 19.06407 -36.4634 19.54021Q-36.07305 20.04554 -36.07305 20.88154Q-36.07305 21.71754 -36.50677 22.75962Q-36.68026 23.18525 -37.04892 23.33622Q-37.41758 23.48718 -38.02479 23.59089Q-38.76211 23.71683 -39.10908 23.73209L-42.23186 24.22146Q-43.79325 24.48814 -44.79081 24.74652Q-45.74499 24.99749 -46.52568 24.16283Q-46.74254 23.93587 -46.91603 23.3935Q-47.08952 22.85113 -47.08952 22.32313L-47.04615 20.29173Q-47.00277 19.62432 -47.00277 18.30432Q-47.00277 17.07232 -47.13289 15.64254Q-47.30638 14.26417 -47.30638 12.15217Q-47.30638 10.74417 -47.17626 10.01795Q-47.08952 9.56313 -47.08952 8.15513L-47.13289 5.52254Q-47.17626 4.91395 -47.17626 4.03395Q-47.21963 2.72136 -47.13289 0.02254Q-47.04615 -2.10427 -47.04615 -3.16027Q-47.04615 -5.80027 -47.30638 -7.55983Q-47.39312 -8.16101 -47.39312 -8.42501Q-47.39312 -9.30501 -46.91603 -9.8265Q-46.6558 -10.09094 -46.11365 -10.27154Q-45.5715 -10.45214 -45.2679 -10.504Q-44.57395 -10.62252 -44.29203 -10.51667Q-44.01011 -10.41082 -43.77157 -10.16557Q-43.53302 -9.92031 -43.4029 -9.81053Q-42.92581 -9.36402 -42.92581 -8.35202L-42.88244 -5.67543Q-42.88244 -5.01543 -42.96919 -3.68061Z" fill="rgb(37, 37, 37)" transform="matrix(1 0 0 1 93.001798 55.658629)"/><path d="M-27.13843 -13.64447Q-26.79146 -13.61574 -25.62042 -13.81575Q-23.79879 -14.12688 -23.3217 -14.12036Q-22.80124 -14.07726 -22.51932 -13.55341Q-22.23741 -13.02956 -22.02055 -11.9226Q-21.97717 -11.79801 -21.97717 -11.44601Q-21.97717 -11.05001 -22.12898 -10.67208Q-22.28078 -10.29415 -22.54101 -10.07371Q-22.67112 -9.96348 -23.06147 -9.89681Q-23.53856 -9.81533 -23.71205 -9.82969Q-24.53612 -9.73294 -25.62042 -9.41575Q-27.05169 -8.99529 -28.00587 -8.92032Q-28.61308 -8.86061 -28.80825 -8.67327Q-29.00343 -8.48594 -29.00343 -8.13394Q-29.00343 -7.38594 -29.0468 -6.80653Q-29.13354 -5.20771 -29.13354 -4.10771Q-29.13354 -2.25971 -28.91668 -1.41675Q-28.87331 -1.24816 -28.80825 -0.79727Q-28.74319 -0.34638 -28.52633 -0.16342Q-28.22273 0.00472 -27.87576 0.01146Q-27.52878 0.0182 -26.96495 -0.07811Q-26.61797 -0.13737 -26.35774 -0.22582Q-26.09751 -0.31426 -25.88065 -0.3513Q-25.4903 -0.41797 -25.09995 -0.30864Q-24.79635 -0.2285 -24.64455 -0.12243Q-24.49275 -0.01635 -24.31926 0.30602Q-24.1024 0.70898 -24.12408 1.41668Q-24.14577 2.12438 -24.14577 2.30038Q-24.14577 3.57638 -26.18425 3.92455Q-26.44448 3.969 -26.74809 3.97686Q-27.05169 3.98471 -27.35529 4.03656Q-27.6589 4.08842 -27.91913 4.22087Q-28.56971 4.59598 -28.72151 4.77591Q-28.87331 4.95584 -28.87331 5.52784Q-28.87331 6.14384 -28.82994 6.48843L-28.78657 7.88902Q-28.78657 8.28502 -28.87331 9.26784Q-28.91668 9.62725 -28.91668 10.41925L-28.87331 12.69984Q-28.87331 14.94384 -29.22029 16.6311Q-29.30703 17.04192 -29.06848 17.24317Q-28.82994 17.44443 -28.35285 17.36295Q-28.00587 17.30368 -27.83238 17.23005Q-27.1818 16.98693 -26.61797 16.89063Q-25.88065 16.7647 -25.23007 16.78558Q-24.44937 16.74024 -24.05903 16.67357Q-23.45182 16.56986 -23.06147 16.72319Q-22.45427 17.01548 -22.23741 17.37444Q-22.02055 17.7334 -22.10729 18.76022Q-22.15066 19.20762 -22.36752 19.70666Q-22.58438 20.2057 -22.93136 20.57296Q-23.49519 21.19727 -24.62286 21.21387Q-25.40356 21.21521 -26.22762 21.35596Q-26.92157 21.47449 -28.30947 21.79954Q-29.39377 22.11673 -30.4347 22.29452Q-31.25877 22.43527 -31.99609 22.4292Q-32.82016 22.43795 -33.16713 22.21122Q-33.51411 21.98448 -33.47073 21.27307Q-33.16713 18.14122 -33.16713 15.14922Q-33.16713 13.82922 -33.2105 13.17662Q-33.38399 9.64226 -33.38399 1.98626Q-33.38399 1.45826 -33.34062 0.72485Q-33.29725 -0.00856 -33.25387 -0.36797Q-33.2105 -0.90338 -33.16713 -1.63678Q-33.12376 -2.37019 -33.12376 -3.33819Q-33.12376 -4.04219 -33.16713 -4.89278Q-33.2105 -5.74338 -33.25387 -6.17597Q-33.38399 -7.47374 -33.38399 -8.79374Q-33.38399 -9.32174 -33.29725 -10.48056Q-33.2105 -11.41938 -32.69004 -12.03627Q-32.16958 -12.65316 -31.30214 -12.80132Q-30.39133 -12.95689 -29.09017 -13.26712Q-28.04924 -13.53291 -27.74564 -13.58476Q-27.31192 -13.65884 -27.13843 -13.64447Z" fill="rgb(37, 37, 37)" transform="matrix(1 0 0 1 93.001798 55.658629)"/><path d="M-15.08104 -15.65985Q-12.8257 -15.86906 -11.65466 -16.06907Q-9.96315 -16.35798 -8.70536 -16.74881L-8.1849 -16.8817Q-7.62107 -16.978 -7.36084 -16.75845Q-7.05723 -16.54631 -6.86206 -16.11764Q-6.66688 -15.68898 -6.66688 -15.20498Q-6.66688 -14.76498 -6.88374 -14.28794Q-7.31746 -13.28986 -7.66444 -12.8786Q-8.01141 -12.46733 -8.74874 -12.3414Q-9.78966 -12.16361 -10.39687 -11.9939Q-11.00408 -11.82419 -11.30768 -11.33234Q-11.52454 -10.9433 -11.52454 -10.3493Q-11.52454 -9.7553 -11.52454 -9.7113Q-11.52454 -9.4033 -11.48117 -8.68471Q-11.4378 -7.96611 -11.4378 -6.60211Q-11.4378 -4.79811 -11.61128 -3.22848Q-11.78477 -1.74685 -11.78477 0.01315Q-11.78477 1.90515 -11.61128 3.81152Q-11.52454 6.7007 -11.52454 8.8127Q-11.52454 11.7167 -11.61128 16.04352L-11.65466 17.89893Q-11.65466 18.55893 -11.82814 18.74256Q-12.00163 18.92619 -12.60884 19.1619Q-12.8257 19.24294 -13.19436 19.3719Q-13.56302 19.50087 -13.77988 19.53791Q-14.12686 19.59717 -14.43046 19.47303Q-15.16778 19.15896 -15.40633 18.8697Q-15.64487 18.58045 -15.73162 17.84726Q-15.86173 16.59349 -15.86173 15.05349Q-15.86173 12.67749 -15.64487 9.91245Q-15.6015 9.20104 -15.55813 8.35763Q-15.51476 7.51422 -15.51476 6.54622L-15.51476 4.61022Q-15.51476 2.27822 -15.55813 1.00963L-15.55813 -0.44237L-15.51476 -2.86978Q-15.47139 -3.62518 -15.47139 -5.07718Q-15.47139 -7.98118 -16.03522 -10.56888Q-16.03522 -10.65688 -16.07859 -10.84747Q-16.12196 -11.03807 -16.25208 -11.08184Q-16.3822 -11.12562 -16.59906 -11.08858Q-16.94603 -11.07332 -17.59661 -10.9622Q-17.7701 -10.93257 -18.48573 -10.81034Q-19.20137 -10.68811 -19.76521 -10.76781Q-20.11218 -10.88454 -20.19892 -10.97973Q-20.28567 -11.07491 -20.37241 -11.5001Q-20.50253 -12.00587 -20.50253 -12.44587Q-20.50253 -13.28187 -20.02544 -13.97936Q-19.59172 -14.62544 -19.41823 -14.78707Q-19.24474 -14.9487 -18.72428 -15.0376Q-18.24719 -15.16308 -17.42312 -15.30383L-16.07859 -15.53347Z" fill="rgb(37, 37, 37)" transform="matrix(1 0 0 1 93.001798 55.658629)"/><path d="M0.316 -10.10564Q0.22925 -8.85882 0.22925 -8.11082L0.27262 -5.17023Q0.35937 -2.98505 0.35937 -1.66505Q0.35937 -0.16905 0.316 0.63036L0.27262 2.96977Q0.27262 4.37777 0.40274 5.76354Q0.48948 6.62873 0.48948 8.30073L0.48948 10.58873L0.53286 12.78132Q0.53286 14.01332 0.35937 15.05495Q0.316 15.32636 0.27262 15.72977Q0.22925 16.13318 0.12082 16.4377Q0.01239 16.74222 -0.20447 16.95525Q-0.42133 17.16829 -0.89842 17.24978L-1.67911 17.33912Q-2.11283 17.3692 -3.02364 17.52476Q-3.50073 17.60625 -3.69591 17.13359Q-3.89108 16.66092 -3.84771 15.55351Q-3.76097 14.3507 -3.76097 11.5347Q-3.76097 8.6747 -3.93445 4.83233Q-3.97783 4.39974 -3.80434 2.52211L-3.71759 0.92329Q-3.71759 -0.48471 -3.84771 -1.65049Q-3.97783 -4.53226 -3.97783 -5.54426L-3.93445 -9.24767Q-3.93445 -11.09567 -4.06457 -12.56945Q-4.15131 -13.52263 -4.04288 -14.94915Q-3.93445 -16.37567 -3.67422 -16.86012Q-3.45736 -17.29316 -3.02364 -17.60924Q-2.58992 -17.92531 -2.06946 -18.01421Q-1.72249 -18.07347 -1.20202 -17.98636Q-0.42133 -17.85571 -0.20447 -17.67275Q0.01239 -17.48978 0.09914 -16.8006Q0.40274 -14.82846 0.40274 -12.40846Q0.40274 -11.61646 0.316 -10.10564Z" fill="rgb(37, 37, 37)" transform="matrix(1 0 0 1 93.001798 55.658629)"/><path d="M8.55666 15.98687Q6.73504 15.726 5.91097 14.94275Q5.08691 14.1595 4.65319 12.29758Q4.21947 10.30365 4.21947 6.47565Q4.21947 5.15565 4.30621 3.55684Q4.43633 1.29062 4.43633 -1.34938L4.39296 -6.70998Q4.39296 -8.16198 4.4797 -9.84879Q4.52307 -10.5602 4.52307 -11.9682Q4.52307 -14.0362 4.69656 -15.03383Q5.04354 -17.24909 7.29888 -19.2183Q8.3398 -20.14409 10.5084 -20.51448Q12.28665 -20.8182 14.54199 -20.19141Q15.40943 -19.94357 15.88652 -19.07906Q16.36361 -18.21454 16.45035 -17.08536Q16.49372 -16.56477 16.66721 -15.4504Q16.88407 -13.72744 16.88407 -13.28744Q16.88407 -12.45144 16.71058 -11.7618Q16.5371 -11.16017 16.36361 -10.95454Q16.19012 -10.74891 15.53954 -10.24179Q15.19257 -9.96253 14.58536 -9.85882Q14.02152 -9.76252 13.52275 -9.94133Q13.02397 -10.12014 12.9806 -10.50873Q12.89385 -11.19791 12.89385 -11.46191L12.93723 -13.00932Q12.93723 -13.84532 12.80711 -14.2631Q12.72037 -14.55628 12.63362 -15.09147Q12.54688 -15.62665 12.3517 -15.94532Q12.15653 -16.26398 11.80956 -16.38072Q11.24572 -16.50442 10.72526 -16.41552Q9.7277 -16.24514 9.16387 -15.48884Q8.86026 -15.04098 8.73015 -14.53476Q8.60003 -14.02854 8.51329 -13.41972Q8.42655 -12.81091 8.3398 -12.40009Q8.20969 -11.89387 8.20969 -10.96987Q8.20969 -10.13387 8.25306 -9.52527Q8.29643 -8.91668 8.3398 -8.48409L8.38317 -7.1275Q8.46992 -4.76631 8.46992 -3.40231Q8.46992 -2.08231 8.42655 -1.41491L8.38317 -0.3955Q8.38317 0.3085 8.46992 1.70169L8.51329 2.75028Q8.51329 3.45428 8.60003 4.75946Q8.68678 6.41665 8.68678 7.12065Q8.68678 7.64865 8.6434 8.11805Q8.60003 8.58746 8.60003 8.93946Q8.60003 9.64346 8.92532 10.2479Q9.25061 10.85234 9.81445 11.24004Q10.16142 11.44478 10.46503 11.39293Q10.89875 11.31885 11.33246 10.87077Q11.76618 10.42269 12.06979 9.88683Q12.63362 8.82253 12.63362 7.45853Q12.63362 6.57853 12.59025 6.14594Q12.50351 5.01676 12.59025 3.94594Q12.80711 2.2369 14.23838 1.99244Q14.62873 1.92577 15.14919 2.05688Q15.66966 2.18798 15.97326 2.22413Q16.36361 2.24546 16.5371 2.45783Q16.71058 2.6702 16.75395 3.14679Q16.92744 5.31716 16.92744 6.41716Q16.92744 7.42916 16.79733 8.46338L16.40698 10.77405Q16.14675 12.1385 15.36605 13.10784Q14.58536 14.07718 13.50106 14.57038Q11.20235 15.66699 9.68433 15.92627Q9.07712 16.02998 8.55666 15.98687Z" fill="rgb(37, 37, 37)" transform="matrix(1 0 0 1 93.001798 55.658629)"/><path d="" fill="rgb(37, 37, 37)" transform="matrix(1 0 0 1 93.001798 55.658629)"/><path d="M29.02821 12.05037Q27.16322 12.54491 26.55601 11.50461Q26.33915 11.10165 26.33915 9.91365Q26.33915 8.94565 26.42589 7.08284Q26.55601 5.52061 26.55601 3.89261Q26.55601 2.39661 26.46927 1.61943Q26.38252 0.57825 26.38252 -1.62175L26.38252 -4.70175Q26.38252 -7.34175 26.25241 -8.59553Q26.12229 -10.42131 26.12229 -12.22531Q26.12229 -13.72131 26.20903 -16.37612Q26.29578 -18.67894 26.29578 -19.69094Q26.29578 -19.95494 26.27409 -20.32523Q26.25241 -20.69553 26.29578 -21.23094Q26.38252 -22.30175 26.98973 -22.75746Q27.16322 -22.87509 27.55356 -22.94177Q28.07403 -23.03066 28.29089 -23.0237Q29.33181 -23.11349 29.85228 -23.20238L32.15099 -23.639Q34.79668 -24.09088 36.14121 -23.37452Q37.48573 -22.65816 38.48329 -20.40854Q39.30736 -18.48129 39.30736 -15.57729Q39.30736 -14.69729 39.22061 -13.01048L39.17724 -11.72707Q39.13387 -10.92766 39.13387 -9.29966Q39.13387 -7.58366 39.22061 -4.43048L39.26398 -0.25788Q39.26398 2.91012 39.00375 4.53856Q38.74352 6.21101 38.41823 7.41057Q38.09294 8.61013 37.44236 9.42525Q36.87853 10.18155 36.14121 10.57148Q35.40388 10.96141 33.71238 11.25032Q33.01843 11.36885 32.62808 11.39152L30.93657 11.63642Q29.72216 11.84384 29.02821 12.05037ZM30.93657 8.07242Q31.24018 8.06457 31.6739 8.05649Q32.10762 8.04841 32.41122 7.99656Q32.88831 7.91507 33.23529 7.67981Q33.49552 7.50336 33.90755 7.23499Q34.31958 6.96661 34.49307 6.69498Q34.66656 6.42335 34.79668 5.87312Q35.01354 5.00009 35.05691 4.04668Q35.10028 3.09327 35.10028 2.87327Q35.10028 1.64127 35.18702 1.01045Q35.36051 -0.42718 35.36051 -2.01118Q35.36051 -3.81518 35.23039 -5.37695Q35.10028 -7.46673 35.14365 -8.88214Q35.31714 -12.78377 35.31714 -13.88377Q35.31714 -16.08377 34.97016 -17.08051Q34.88342 -17.28569 34.84005 -17.58628Q34.79668 -17.88688 34.79668 -18.01888Q34.70993 -18.79606 34.49307 -19.11102Q33.71238 -20.16568 31.9775 -19.86937Q30.97995 -19.69899 30.63297 -19.30972Q30.286 -18.92046 30.286 -18.30446Q30.286 -17.99646 30.32937 -17.62987Q30.37274 -17.26328 30.37274 -16.91128Q30.32937 -16.33187 30.41611 -15.29068Q30.50285 -14.3375 30.50285 -13.5015Q30.50285 -12.6215 30.286 -9.94446Q30.15588 -8.47024 30.15588 -6.97424L30.19925 -4.51764Q30.24262 -3.68905 30.24262 -2.06105L30.286 3.21154L30.24262 5.81495Q30.24262 6.69495 30.45948 7.66991Q30.5896 8.08769 30.93657 8.07242Z" fill="rgb(37, 37, 37)" transform="matrix(1 0 0 1 93.001798 55.658629)"/><path d="M49.2829 -26.6971Q49.62987 -26.66836 50.80092 -26.86837Q52.62254 -27.1795 53.09963 -27.17299Q53.62009 -27.12988 53.90201 -26.60603Q54.18393 -26.08218 54.40079 -24.97522Q54.44416 -24.85063 54.44416 -24.49863Q54.44416 -24.10263 54.29236 -23.7247Q54.14055 -23.34677 53.88032 -23.12633Q53.75021 -23.0161 53.35986 -22.94943Q52.88277 -22.86795 52.70928 -22.88231Q51.88521 -22.78557 50.80092 -22.46837Q49.36964 -22.04791 48.41546 -21.97294Q47.80825 -21.91323 47.61308 -21.72589Q47.41791 -21.53856 47.41791 -21.18656Q47.41791 -20.43856 47.37453 -19.85915Q47.28779 -18.26033 47.28779 -17.16033Q47.28779 -15.31233 47.50465 -14.46937Q47.54802 -14.30078 47.61308 -13.84989Q47.67814 -13.399 47.895 -13.21604Q48.1986 -13.0479 48.54558 -13.04116Q48.89255 -13.03442 49.45639 -13.13073Q49.80336 -13.18999 50.06359 -13.27844Q50.32382 -13.36688 50.54068 -13.40392Q50.93103 -13.47059 51.32138 -13.36126Q51.62498 -13.28112 51.77678 -13.17505Q51.92859 -13.06897 52.10207 -12.74661Q52.31893 -12.34364 52.29725 -11.63594Q52.27556 -10.92824 52.27556 -10.75224Q52.27556 -9.47624 50.23708 -9.12807Q49.97685 -9.08362 49.67325 -9.07577Q49.36964 -9.06791 49.06604 -9.01606Q48.76244 -8.9642 48.5022 -8.83175Q47.85162 -8.45664 47.69982 -8.27671Q47.54802 -8.09678 47.54802 -7.52478Q47.54802 -6.90878 47.59139 -6.56419L47.63477 -5.1636Q47.63477 -4.7676 47.54802 -3.78478Q47.50465 -3.42537 47.50465 -2.63337L47.54802 -0.35278Q47.54802 1.89122 47.20105 3.57848Q47.1143 3.9893 47.35285 4.19055Q47.59139 4.39181 48.06848 4.31032Q48.41546 4.25106 48.58895 4.17743Q49.23953 3.93431 49.80336 3.83801Q50.54068 3.71208 51.19126 3.73296Q51.97196 3.68762 52.3623 3.62095Q52.96951 3.51724 53.35986 3.67057Q53.96707 3.96286 54.18393 4.32182Q54.40079 4.68078 54.31404 5.70759Q54.27067 6.155 54.05381 6.65404Q53.83695 7.15308 53.48998 7.52034Q52.92614 8.14465 51.79847 8.16125Q51.01778 8.16259 50.19371 8.30334Q49.49976 8.42187 48.11186 8.74692Q47.02756 9.06411 45.98663 9.2419Q45.16257 9.38265 44.42524 9.37658Q43.60118 9.38533 43.2542 9.1586Q42.90723 8.93186 42.9506 8.22045Q43.2542 5.0886 43.2542 2.0966Q43.2542 0.7766 43.21083 0.124Q43.03734 -3.41037 43.03734 -11.06637Q43.03734 -11.59437 43.08071 -12.32777Q43.12409 -13.06118 43.16746 -13.42059Q43.21083 -13.956 43.2542 -14.6894Q43.29757 -15.42281 43.29757 -16.39081Q43.29757 -17.09481 43.2542 -17.9454Q43.21083 -18.796 43.16746 -19.22859Q43.03734 -20.52637 43.03734 -21.84637Q43.03734 -22.37437 43.12409 -23.53318Q43.21083 -24.472 43.73129 -25.08889Q44.25176 -25.70579 45.11919 -25.85394Q46.03 -26.00951 47.33116 -26.31974Q48.37209 -26.58553 48.67569 -26.63739Q49.10941 -26.71146 49.2829 -26.6971Z" fill="rgb(37, 37, 37)" transform="matrix(1 0 0 1 93.001798 55.658629)"/><path d="M59.64879 6.77643Q59.30181 6.92369 59.12833 6.95332Q58.69461 7.0274 58.00066 6.79393Q57.61031 6.6846 57.39345 6.28164Q57.17659 5.87868 57.21996 5.43127Q57.3067 4.27245 57.3067 3.65645L57.26333 1.55186Q57.17659 0.15868 57.17659 -0.58932Q57.17659 -1.68932 57.3067 -2.76755Q57.43682 -3.80177 57.43682 -4.76977L57.39345 -6.78636Q57.3067 -8.09155 57.3067 -8.79555Q57.3067 -9.58755 57.37176 -10.61066Q57.43682 -11.63377 57.43682 -12.11777Q57.48019 -12.78518 57.52356 -14.04659Q57.56694 -15.30799 57.56694 -16.36399Q57.56694 -18.87199 57.35008 -21.12295Q57.21996 -22.37673 57.21996 -23.65273Q57.21996 -24.31273 57.3067 -25.55955Q57.39345 -26.58636 58.02234 -27.22178Q58.65123 -27.85719 59.95239 -28.34342Q60.51623 -28.57173 61.6439 -28.76433L63.85587 -29.09813Q64.63656 -29.31947 65.02691 -29.38614Q65.76423 -29.51208 66.19795 -29.36615Q67.58585 -29.03121 68.38823 -28.06825Q69.19061 -27.1053 69.58096 -25.80797Q69.97131 -24.51064 70.36165 -22.33331Q70.66526 -20.66916 70.66526 -19.08516Q70.66526 -17.19316 70.18817 -15.17568L69.75445 -13.2536Q69.45084 -11.74974 69.27736 -11.32411Q68.06294 -8.38869 65.41725 -7.93681Q64.7233 -7.81829 63.81249 -7.35472Q62.94505 -6.94257 62.38122 -6.80226Q61.90413 -6.67678 61.77401 -6.47855Q61.6439 -6.28033 61.60052 -6.05292Q61.55715 -5.82552 61.55715 -5.73752Q61.25355 -3.96966 61.25355 -2.16566Q61.25355 -0.80166 61.38367 0.49612Q61.47041 2.1533 61.47041 2.9453Q61.47041 3.4293 61.38367 4.50012Q61.21018 5.62975 60.90657 5.9896Q60.60297 6.34946 59.64879 6.77643ZM62.90168 -11.37916Q63.46552 -11.47546 64.07272 -11.77717Q64.67993 -12.07888 64.85342 -12.15251Q65.37388 -12.37341 65.56906 -13.15474Q65.76423 -13.93608 65.85097 -14.78689Q65.93772 -15.63771 65.98109 -16.04112Q66.15458 -17.30275 66.15458 -18.66675Q66.15458 -19.94275 65.98109 -21.58512Q65.85097 -22.44289 65.85097 -23.10289Q65.85097 -24.86289 64.37633 -24.91902Q64.24621 -24.9408 63.94261 -24.88895Q63.59563 -24.82968 63.05348 -24.60509Q62.51134 -24.38049 62.16436 -24.27722Q61.73064 -24.15915 61.62221 -23.78863Q61.51378 -23.41811 61.47041 -22.7507Q61.38367 -22.03188 61.38367 -21.50388L61.42704 -19.35529Q61.51378 -17.61011 61.51378 -16.73011Q61.51378 -15.98211 61.38367 -12.65988Q61.38367 -11.86788 61.70895 -11.54944Q62.03424 -11.231 62.90168 -11.37916Z" fill="rgb(37, 37, 37)" transform="matrix(1 0 0 1 93.001798 55.658629)"/><path d="M77.73488 -31.51264Q79.99022 -31.72185 81.16126 -31.92186Q82.85277 -32.21077 84.11055 -32.60159L84.63102 -32.73449Q85.19485 -32.83079 85.45508 -32.61124Q85.75869 -32.39909 85.95386 -31.97043Q86.14903 -31.54176 86.14903 -31.05776Q86.14903 -30.61776 85.93217 -30.14072Q85.49846 -29.14264 85.15148 -28.73138Q84.8045 -28.32012 84.06718 -28.19419Q83.02626 -28.0164 82.41905 -27.84669Q81.81184 -27.67698 81.50824 -27.18512Q81.29138 -26.79608 81.29138 -26.20208Q81.29138 -25.60808 81.29138 -25.56408Q81.29138 -25.25608 81.33475 -24.53749Q81.37812 -23.8189 81.37812 -22.4549Q81.37812 -20.6509 81.20463 -19.08127Q81.03115 -17.59964 81.03115 -15.83964Q81.03115 -13.94764 81.20463 -12.04127Q81.29138 -9.15208 81.29138 -7.04008Q81.29138 -4.13608 81.20463 0.19073L81.16126 2.04614Q81.16126 2.70614 80.98778 2.88977Q80.81429 3.0734 80.20708 3.30911Q79.99022 3.39015 79.62156 3.51912Q79.2529 3.64808 79.03604 3.68512Q78.68906 3.74439 78.38546 3.62024Q77.64814 3.30617 77.40959 3.01692Q77.17105 2.72766 77.0843 1.99448Q76.95419 0.7407 76.95419 -0.7993Q76.95419 -3.1753 77.17105 -5.94034Q77.21442 -6.65175 77.25779 -7.49515Q77.30116 -8.33856 77.30116 -9.30656L77.30116 -11.24256Q77.30116 -13.57456 77.25779 -14.84315L77.25779 -16.29515L77.30116 -18.72256Q77.34453 -19.47797 77.34453 -20.92997Q77.34453 -23.83397 76.7807 -26.42167Q76.7807 -26.50967 76.73733 -26.70026Q76.69395 -26.89085 76.56384 -26.93463Q76.43372 -26.97841 76.21686 -26.94137Q75.86989 -26.9261 75.21931 -26.81499Q75.04582 -26.78535 74.33018 -26.66313Q73.61455 -26.5409 73.05071 -26.62059Q72.70374 -26.73733 72.61699 -26.83252Q72.53025 -26.9277 72.44351 -27.35288Q72.31339 -27.85866 72.31339 -28.29866Q72.31339 -29.13466 72.79048 -29.83215Q73.2242 -30.47823 73.39769 -30.63986Q73.57118 -30.80149 74.09164 -30.89038Q74.56873 -31.01587 75.3928 -31.15662L76.73733 -31.38626Z" fill="rgb(37, 37, 37)" transform="matrix(1 0 0 1 93.001798 55.658629)"/><path d="M93.0018 -1.5602Q93.0018 -0.8562 92.74157 -0.37175Q92.65482 -0.18094 92.56808 0.09788Q92.48134 0.37669 92.30785 0.58232Q91.83076 1.19181 91.44041 1.45648Q91.05006 1.72115 90.05251 1.89153Q89.40193 2.00265 89.05495 1.79791Q88.361 1.47644 88.14414 0.89748Q88.0574 0.64829 87.84054 0.22333Q87.62368 -0.20163 87.66705 -0.60504Q87.66705 -0.73704 87.73211 -1.12215Q87.79717 -1.50726 87.9056 -1.78978Q88.01403 -2.0723 88.23089 -2.28534Q88.40437 -2.44697 88.70798 -2.82883Q89.01158 -3.21068 89.35856 -3.35794Q89.87902 -3.62284 90.31274 -3.69692Q90.70309 -3.76359 90.985 -3.67974Q91.26692 -3.59589 91.57052 -3.40574Q91.87413 -3.2156 92.09099 -3.12064Q92.87168 -2.68198 93.0018 -1.8242Z" fill="rgb(37, 37, 37)" transform="matrix(1 0 0 1 93.001798 55.658629)"/><path d="" fill="rgb(37, 37, 37)" transform="matrix(1 0 0 1 93.001798 55.658629)"/></g></g>

  </svg>