<svg xmlns="http://www.w3.org/2000/svg" xmlns:xlink="http://www.w3.org/1999/xlink" width="782px" height="508px" viewBox="0 0 781.9059578486776 508.03401221518175">
    <g style="" id="ff521294-4f20-47af-a418-28180f5a5aca">
<g style=""><path d="" fill="rgb(37, 37, 37)" transform="matrix(1 0 0 1 390.952979 317.518927)"/><path d="M-254.35495 -84.0289Q-254.10704 -82.56217 -254.10704 -79.29917Q-254.10704 -76.03617 -254.60286 -74.20063Q-255.34659 -70.56883 -258.56941 -70.05834Q-262.53596 -69.43006 -264.02341 -72.45745Q-266.00669 -76.9123 -269.22951 -85.93982Q-269.97324 -87.57902 -272.82419 -95.03394Q-275.67515 -102.48885 -278.40215 -107.32791Q-282.12079 -114.77089 -289.55807 -118.61285Q-296.99535 -122.45481 -305.42427 -120.36669Q-312.36573 -118.76519 -316.58019 -111.06964Q-320.79464 -103.37408 -320.79464 -95.09108Q-320.79464 -82.03908 -313.60527 -72.13385Q-298.2349 -50.72347 -289.18621 -40.35975Q-280.13752 -29.99603 -265.75878 -17.71557Q-249.14885 -3.78053 -237.24921 11.40261Q-225.34956 26.58575 -218.65601 44.35051Q-212.70619 59.97408 -212.70619 82.06208Q-212.70619 88.08608 -213.69782 97.78115Q-215.43319 111.86103 -221.63092 124.89073Q-227.82865 137.92042 -238.24085 148.35468Q-243.19903 153.40704 -257.82568 164.25785L-268.73369 172.26064Q-287.07898 186.21047 -308.39918 189.58752Q-321.78628 191.70799 -334.67757 188.98093Q-353.02285 184.85876 -362.93923 178.27198Q-372.8556 171.6852 -380.04497 159.52097Q-385.49897 151.09787 -388.22598 139.73281Q-390.95298 128.36776 -390.95298 116.31976Q-390.95298 94.73376 -384.01152 78.07226Q-376.57424 59.82622 -359.22059 44.52746Q-348.06467 34.9794 -336.41293 33.1338Q-332.44638 32.50552 -321.04255 32.20519Q-298.2349 31.35353 -286.83107 48.12121Q-279.39379 59.74417 -279.39379 72.29417Q-279.39379 80.57717 -282.86452 89.66092Q-286.08734 97.4504 -292.28507 103.0756Q-298.48281 108.7008 -307.15963 111.58118Q-311.12618 112.96247 -315.09273 113.59076Q-326.00074 115.31855 -333.19011 109.42932Q-336.66084 106.46507 -336.16502 100.36254Q-335.91711 98.06427 -334.42966 96.32266Q-332.9422 94.58105 -329.71938 92.06257Q-327.73611 90.74442 -325.0091 88.05348Q-319.30719 81.87931 -319.30719 73.84731Q-319.30719 69.58031 -321.29046 66.12946Q-323.27374 62.6786 -327.4882 61.08716Q-334.92548 57.9982 -340.37948 58.86209Q-345.08976 59.60818 -348.18862 62.23253Q-351.28749 64.85688 -353.64263 67.73993Q-355.99777 70.62298 -356.9894 71.78405Q-363.18714 79.29175 -366.40996 89.21473Q-369.63278 99.13771 -369.63278 108.92671Q-369.63278 113.69571 -367.89741 126.97484Q-367.40159 128.9043 -366.90578 132.84177Q-365.17041 144.61489 -355.00613 153.7979Q-344.84185 162.98092 -331.45475 168.13944Q-320.54674 172.43565 -306.168 170.15811Q-298.73072 168.98007 -291.78926 166.37457Q-275.42724 160.26888 -265.13901 147.97176Q-254.85077 135.67464 -247.90931 118.00913Q-243.69485 106.54858 -243.69485 93.99858Q-243.69485 88.97858 -243.94276 86.50784Q-245.18231 73.15018 -247.78535 66.158Q-250.3884 59.16581 -258.07359 44.82112L-260.80059 39.98207Q-267.49414 27.7393 -274.31165 20.28517Q-281.12916 12.83104 -293.27671 2.45617Q-303.44099 -6.22484 -309.39082 -11.80841Q-320.54674 -22.34035 -326.74447 -29.51615Q-332.9422 -36.69195 -338.89202 -47.79752Q-347.81676 -64.45587 -347.81676 -79.51587Q-347.81676 -84.03387 -347.07303 -88.16767Q-344.59394 -100.10635 -338.1483 -110.28882Q-331.70265 -120.47129 -321.78628 -126.56001Q-309.14291 -134.33567 -297.73908 -136.142Q-291.29344 -137.16297 -286.58316 -135.90106L-281.62497 -134.42742Q-279.14588 -133.5651 -276.54283 -132.84792Q-273.93979 -132.13073 -271.7086 -132.48414Q-269.72533 -132.79829 -266.75042 -134.5245Q-265.26296 -135.51311 -262.412 -137.59619Q-259.56105 -139.67927 -257.57777 -139.99342Q-256.83404 -140.11122 -255.34659 -139.84483Q-253.36331 -139.15497 -253.36331 -134.88797Q-253.36331 -132.37797 -253.98309 -128.3893Q-254.60286 -124.40063 -254.85077 -122.35336Q-255.34659 -112.73683 -255.34659 -107.21483Q-255.34659 -98.42983 -254.35495 -84.0289Z" fill="rgb(37, 37, 37)" transform="matrix(1 0 0 1 390.952979 317.518927)"/><path d="M-146.5144 121.27552Q-153.20795 123.59076 -159.15778 124.53319Q-169.07415 126.10391 -176.51143 124.52095Q-179.48634 123.98817 -182.3373 123.05925Q-185.18825 122.13033 -187.66735 120.26401Q-197.58372 113.04973 -200.31072 95.91168Q-202.04609 86.64855 -202.04609 75.60455Q-202.04609 69.83155 -201.79818 66.78029Q-201.30236 60.17575 -201.30236 51.13975Q-201.30236 43.60975 -201.55027 40.38602L-201.79818 29.88329Q-201.79818 20.84729 -201.30236 13.99175Q-200.80654 3.87321 -200.80654 -3.90779Q-200.80654 -18.96779 -201.55027 -34.66298Q-202.04609 -42.61645 -201.42631 -49.11512Q-200.80654 -55.61379 -200.55863 -57.41005Q-199.31908 -65.88939 -199.56699 -71.62313Q-199.56699 -77.89813 -207.00427 -84.25009Q-212.45828 -88.90819 -212.45828 -92.67319Q-212.45828 -94.68119 -210.72291 -96.21107Q-209.23546 -97.45067 -207.25218 -97.63932Q-205.26891 -97.82796 -204.52518 -97.94577Q-201.79818 -98.37771 -199.31908 -99.02139Q-196.83999 -99.66507 -194.3609 -100.05775Q-192.62553 -100.33263 -189.1548 -100.38038Q-183.94871 -100.45201 -180.72589 -100.96249Q-178.99052 -101.23737 -172.54488 -102.76034L-170.5616 -103.07448Q-167.09087 -103.62423 -165.60342 -103.60884Q-162.62851 -103.57806 -162.62851 -100.56606Q-162.62851 -97.80506 -165.35551 -93.10611Q-167.33878 -90.03096 -171.05742 -86.42994Q-173.78443 -83.488 -175.02397 -81.66016Q-176.26352 -79.83232 -176.51143 -78.03605Q-176.75934 -75.73778 -176.51143 -72.26305Q-176.26352 -68.78832 -176.26352 -66.52932Q-176.26352 -61.50932 -177.25516 -52.31624Q-178.24679 -45.13117 -178.4947 -40.0719Q-178.74261 -33.00464 -177.00725 -21.48251Q-176.26352 -16.32932 -175.64374 -10.65449Q-175.02397 -4.97966 -175.51979 -0.13212Q-176.01561 4.96642 -176.01561 14.75542L-176.01561 25.79942Q-176.01561 33.07842 -176.26352 36.88268Q-177.00725 46.78949 -177.00725 55.32349Q-177.00725 63.35549 -176.51143 72.43845Q-176.01561 81.52142 -175.7677 84.74515L-175.27188 91.94561Q-175.02397 96.67534 -174.15629 100.17741Q-173.28861 103.67947 -170.80951 106.29879Q-170.06579 107.18498 -168.70228 109.10251Q-167.33878 111.02004 -165.97528 112.18456Q-164.61178 113.34909 -162.62851 113.53694Q-159.40569 114.03046 -154.19959 113.20583Q-145.27485 111.79218 -139.07712 107.54748Q-133.1273 103.34205 -130.02843 97.3292Q-126.92957 91.31635 -125.81397 85.11565Q-124.69838 78.91494 -123.70674 67.96487Q-123.21093 62.61533 -123.21093 52.82633Q-123.21093 40.52733 -123.45884 33.0366Q-123.45884 25.2556 -123.21093 21.20033L-122.96302 8.86207Q-122.96302 1.08107 -123.70674 -6.33113Q-124.45047 -12.99033 -124.45047 -26.54433L-124.45047 -42.60833L-124.69838 -83.98406Q-124.69838 -89.25506 -125.69002 -92.23549Q-126.68166 -95.21591 -129.65657 -97.2547Q-134.86266 -101.19907 -136.10221 -102.50873Q-137.83758 -104.24186 -137.83758 -105.99886Q-137.83758 -107.50486 -136.59803 -108.20319Q-135.8543 -108.823 -134.11894 -109.09787Q-132.87939 -109.29421 -131.51589 -109.25919Q-130.15239 -109.22416 -128.91284 -109.4205Q-126.92957 -109.98565 -124.07861 -110.18623Q-121.22765 -110.38681 -119.49229 -110.66169Q-117.75692 -110.93656 -114.28619 -111.98831Q-110.31964 -113.1186 -108.08846 -113.47201Q-101.147 -114.57152 -101.147 -111.30852Q-101.147 -109.04952 -103.874 -106.60957Q-104.86564 -105.4485 -106.601 -102.78912Q-108.33637 -100.12975 -110.81546 -98.23107Q-113.54246 -96.29312 -114.16224 -95.06545Q-114.78201 -93.83778 -114.78201 -90.82578L-114.5341 -75.80505Q-114.5341 -71.03605 -115.27783 -62.88624Q-115.77365 -55.27771 -115.77365 -51.26171L-115.52574 -36.99397Q-115.02992 -27.03251 -115.02992 -22.01251Q-115.02992 5.84849 -114.78201 19.36322Q-114.5341 31.62295 -114.5341 54.71495L-114.5341 67.76695Q-114.5341 86.08995 -121.97138 102.07699Q-124.94629 108.82321 -131.7638 113.66808Q-138.5813 118.51295 -146.5144 121.27552Z" fill="rgb(37, 37, 37)" transform="matrix(1 0 0 1 390.952979 317.518927)"/><path d="M-48.83813 103.79594Q-57.01914 105.59378 -63.21687 105.32048Q-64.45642 105.26582 -66.93551 105.6585Q-68.91879 105.97264 -73.38116 107.18147Q-77.84352 108.39029 -79.8268 108.70444Q-88.50362 110.07882 -92.71808 110.49537Q-94.94927 110.84878 -95.9409 109.75085Q-96.93254 108.40193 -96.93254 107.39793Q-96.93254 103.88393 -91.47853 99.75703Q-87.26408 96.57948 -85.65267 93.56323Q-84.04126 90.54699 -83.79335 85.73872Q-83.04962 72.81992 -83.04962 68.05092L-82.80171 29.85965Q-82.80171 19.06665 -83.04962 13.58392Q-83.54544 2.86946 -83.54544 -13.44554Q-83.54544 -31.51754 -83.29753 -41.84781Q-83.04962 -47.66008 -83.04962 -57.70008Q-83.04962 -65.73208 -83.29753 -70.46181Q-83.29753 -71.96781 -83.79335 -75.90528Q-84.28916 -82.85474 -84.28916 -86.87074Q-84.28916 -93.89874 -86.76826 -97.02006Q-89.24735 -100.14138 -94.45345 -102.07775Q-99.90745 -103.97486 -99.90745 -108.49286Q-99.90745 -110.75186 -97.92418 -113.074Q-96.93254 -114.23507 -94.08158 -114.81216Q-91.23063 -115.38924 -88.13176 -115.88009Q-85.03289 -116.37094 -83.04962 -116.68508L-74.12488 -117.84773Q-68.17506 -118.28816 -64.95224 -118.79864Q-60.73778 -119.4662 -51.81305 -121.88385Q-49.58186 -122.48826 -46.483 -123.23011Q-43.38413 -123.97196 -39.41758 -124.60025Q-34.21148 -125.42487 -30.49284 -125.00989Q-22.06393 -124.08601 -20.70043 -123.67448Q-19.33693 -123.26295 -13.3871 -120.94239Q-10.6601 -119.86833 -7.43728 -116.61382Q-6.94146 -115.93935 -5.82587 -114.98656Q-4.71028 -114.03377 -3.71864 -113.43784Q-0.99164 -111.61078 0.74373 -108.87366Q2.47909 -106.13654 3.59468 -103.55224Q4.71028 -100.96795 5.2061 -100.04248Q7.9331 -94.45043 9.17264 -87.36777Q9.42055 -85.90104 10.16428 -83.50884Q10.90801 -81.11665 10.90801 -78.10465Q10.90801 -72.83365 9.66846 -65.10731Q8.67683 -57.92224 1.98327 -45.065Q-2.47909 -36.32618 -13.88292 -27.24085Q-15.8662 -25.67171 -17.84947 -24.47906Q-19.83274 -23.28642 -20.82438 -22.37635Q-21.81602 -21.46627 -21.81602 -20.46227Q-21.81602 -18.95627 -17.35365 -17.1531Q-13.3871 -15.27139 -10.6601 -13.44433Q-7.9331 -11.61728 -5.454 -8.49596Q-3.47073 -5.7981 -2.35514 -1.08031Q-1.23955 3.63748 0 13.98314L1.98327 27.725Q2.47909 32.66646 2.47909 36.18046Q2.47909 46.47146 0.74373 61.30434Q0.24791 64.64588 0.24791 70.16788Q0.24791 74.43488 1.23955 81.3058Q1.98327 85.957 5.70191 85.36798Q7.43728 85.0931 8.42892 84.43403Q10.90801 83.28835 12.0236 78.34265Q13.13919 73.39694 14.13083 65.45887Q14.37874 63.1606 15.74224 61.43863Q17.10574 59.71665 19.08902 59.40251Q20.08065 59.24544 21.56811 59.76283Q24.29511 61.08788 25.4107 62.54267Q26.5263 63.99747 26.5263 67.76247Q26.5263 72.78247 25.28675 79.25381Q24.54302 82.88561 21.3202 86.9101Q18.09738 90.93458 14.13083 93.82187Q10.41219 96.66989 2.47909 97.92646Q-9.91637 99.88986 -16.23806 95.3692Q-22.55975 90.84853 -24.79093 78.90294Q-27.27002 65.23962 -27.27002 48.17162L-27.02211 35.33135Q-27.02211 28.80535 -28.63353 18.5186Q-30.24494 8.23184 -31.9803 3.23571Q-34.21148 -3.43887 -38.30199 -7.43445Q-42.39249 -11.43003 -47.35068 -9.64067Q-53.05259 -7.48251 -54.91191 -5.5565Q-56.77123 -3.63049 -58.25869 2.12712Q-59.74614 8.38673 -59.74614 13.90873Q-59.74614 16.41873 -59.25032 22.86619Q-58.75451 31.32166 -58.75451 37.34566L-58.75451 49.14266Q-58.75451 66.21066 -59.99405 78.204Q-60.24196 79.49826 -60.24196 81.75726Q-60.24196 88.03226 -56.77123 90.49451Q-55.03587 91.47464 -52.06095 92.25842Q-49.08604 93.0422 -47.10277 93.98306Q-43.63204 95.44131 -43.63204 98.45331Q-43.63204 99.20631 -44.12786 100.79085Q-45.11949 103.20692 -48.83813 103.79594ZM-38.17803 -24.64759Q-33.21985 -26.43695 -30.6168 -28.60626Q-28.01375 -30.77557 -25.53466 -35.43525Q-20.57647 -45.25661 -19.58484 -51.68869Q-18.5932 -56.86576 -16.36201 -62.23917Q-14.13083 -68.11458 -14.13083 -70.37358Q-14.13083 -75.64458 -14.87456 -81.55078L-15.61829 -86.95497Q-15.8662 -88.42171 -16.36201 -93.36317Q-16.85783 -98.30463 -18.09738 -100.86929Q-21.07229 -105.92008 -24.41907 -108.65296Q-27.76584 -111.38584 -32.47612 -112.64775Q-36.69058 -113.98819 -42.6404 -113.04576Q-44.62368 -112.73162 -48.59022 -111.60133Q-54.29214 -109.94517 -56.15146 -104.63066Q-58.01078 -99.31615 -58.5066 -88.69561Q-58.75451 -77.86334 -59.99405 -71.392Q-60.48987 -67.29747 -60.48987 -65.79147Q-60.48987 -62.52847 -59.49823 -57.16354Q-58.5066 -52.30061 -58.5066 -49.79061L-58.75451 -36.95034Q-58.75451 -32.18134 -56.52332 -27.89126Q-54.29214 -23.60117 -51.06932 -23.10765Q-47.59859 -22.4024 -44.37577 -22.91289Q-41.89667 -23.30557 -38.17803 -24.64759Z" fill="rgb(37, 37, 37)" transform="matrix(1 0 0 1 390.952979 317.518927)"/><path d="M74.12488 84.06801Q71.8937 85.42543 68.67088 85.93591Q66.6876 86.25005 63.21687 86.29781L58.25869 86.83217Q53.05259 87.65679 48.09441 87.68915Q46.85486 87.88549 43.75599 87.99984Q40.65713 88.11419 39.16967 88.8518Q33.96358 90.68043 27.02211 91.77993Q23.30347 92.36895 22.55975 90.47876Q21.3202 87.6631 21.3202 86.1571Q21.3202 83.1451 24.0472 81.45815Q29.74912 77.29198 32.97194 72.5145Q36.19476 67.73702 36.19476 63.72102Q36.44267 61.67375 36.44267 59.16375Q36.44267 57.90875 36.31871 55.29288Q36.19476 52.67702 36.19476 45.39802L36.44267 27.28675Q36.69058 21.97648 36.69058 11.93648L36.93849 -6.42579Q37.1864 -12.23806 37.1864 -23.03106L37.1864 -48.88406Q37.1864 -51.39406 38.42594 -62.1324Q39.9134 -72.91 39.9134 -77.93Q39.9134 -80.942 39.41758 -86.38547Q38.67385 -90.53466 38.67385 -95.05266Q38.67385 -99.06866 38.17803 -104.51213Q37.68221 -109.45359 37.68221 -112.71659Q37.68221 -115.72859 35.69894 -117.54795Q33.71567 -119.3673 31.23657 -120.60612Q28.75748 -121.84494 27.51793 -122.6526Q23.55138 -125.03632 23.55138 -129.05232Q23.55138 -130.30732 24.0472 -131.38985Q25.03884 -132.80192 26.5263 -133.53953Q28.01375 -134.27714 34.21148 -135.25884Q38.67385 -136.46766 42.6404 -137.09595Q49.33395 -138.15619 55.28378 -137.59262Q56.27541 -137.49869 58.01078 -137.77357Q59.49823 -138.00917 63.9606 -139.218Q67.43133 -140.52075 71.14997 -141.10977L82.5538 -142.9161Q84.28916 -143.19097 86.39639 -143.77575Q88.50362 -144.36053 90.4869 -144.67467Q92.96599 -145.06735 95.19717 -144.66776Q96.93254 -144.44064 99.65954 -144.74709Q102.38654 -145.05354 104.24586 -144.59505Q106.10518 -144.13656 107.09682 -142.28563Q107.84055 -140.89743 107.84055 -137.88543Q107.84055 -134.12043 107.34473 -131.0299L106.84891 -124.92736Q106.601 -123.13109 106.601 -119.36609L106.601 -118.11109Q106.601 -115.60109 105.98123 -114.49892Q105.36146 -113.39675 102.88236 -113.00407Q101.39491 -112.76846 100.27932 -113.97226Q99.16372 -115.17605 97.80022 -117.84658Q96.43672 -120.5171 95.69299 -121.6543Q94.70136 -123.00323 93.33785 -124.92075Q91.97435 -126.83828 89.74317 -127.73987Q88.50362 -128.29653 85.52871 -129.70781Q82.5538 -131.1191 79.70284 -131.79702Q76.85189 -132.47493 74.12488 -132.04299Q72.88534 -131.84665 70.90206 -131.0305Q66.93551 -129.14721 64.95224 -126.82507Q62.96896 -124.50293 61.72942 -121.04359Q59.74614 -115.96044 59.25032 -111.74041Q58.75451 -107.52037 59.25032 -102.07691Q59.49823 -100.10817 59.49823 -95.59017Q59.49823 -90.82117 59.25032 -88.27191Q59.00242 -81.95764 59.25032 -75.47091L59.25032 -67.18791Q59.25032 -62.92091 60.48987 -59.10125Q62.72105 -53.43066 64.82828 -51.63094Q66.93551 -49.83121 71.39788 -49.03204Q72.14161 -48.89884 73.87697 -49.17372Q79.57889 -50.07688 82.5538 -57.0741Q83.79335 -59.78044 83.79335 -62.03944L83.54544 -66.76917Q83.54544 -68.52617 83.79335 -69.82044Q84.04126 -72.6207 86.02453 -74.31535Q88.0078 -76.00999 90.4869 -76.40267Q92.22226 -76.67755 93.46181 -76.12089Q96.43672 -74.8351 95.69299 -67.1873Q93.46181 -50.51889 93.95763 -42.81642Q94.20554 -38.08669 92.96599 -30.36035Q92.71808 -28.31308 92.34622 -24.86568Q91.97435 -21.41828 91.97435 -18.65728Q91.97435 -13.13528 87.51199 -12.42846Q85.2808 -12.07504 83.66939 -14.0788Q82.05798 -16.08256 81.56216 -19.51803Q80.57053 -25.88695 79.33098 -29.45561Q78.09143 -33.02427 74.86861 -34.77279Q72.88534 -35.96465 71.39788 -35.98004Q69.91042 -35.99543 66.43969 -35.19468Q62.72105 -34.35466 61.35755 -30.24818Q59.99405 -26.14171 60.24196 -20.90998Q60.48987 -17.68625 60.48987 -13.16825Q60.48987 -7.89725 60.24196 -4.84598L59.99405 2.22129Q59.99405 7.49229 59.25032 13.38309Q58.5066 26.3019 58.5066 27.3059Q58.5066 29.8159 59.00242 35.25936Q59.74614 40.91456 59.8701 45.28742Q59.99405 49.66029 59.99405 57.44129Q59.99405 65.72429 62.47315 68.72011Q64.95224 71.71593 72.14161 73.84016Q76.60398 75.14133 76.60398 79.15733Q76.60398 80.66333 75.86025 82.03614Q75.11652 83.40894 74.12488 84.06801Z" fill="rgb(37, 37, 37)" transform="matrix(1 0 0 1 390.952979 317.518927)"/><path d="M156.43077 71.28204Q154.4475 71.59619 151.34863 72.21254Q148.24977 72.82889 146.01858 72.9313Q144.53113 72.91591 142.54785 73.23005Q142.29994 73.26932 136.35012 74.71375L115.02992 78.0908Q110.81546 78.75835 110.81546 74.49135Q110.81546 72.73435 111.68314 70.58891Q112.55083 68.44348 114.03828 66.70187Q115.27783 65.25053 119.7402 60.7787Q122.71511 57.79749 123.70674 56.00892Q124.69838 54.22034 124.94629 50.16508Q125.44211 42.05454 125.93793 38.462Q126.18584 35.66174 126.68166 27.8022Q127.17747 19.94266 127.17747 12.66366Q127.17747 3.37666 126.68166 -1.5648Q125.44211 -16.67946 125.44211 -37.51246L125.44211 -67.88346Q125.44211 -72.65246 125.81397 -77.48036Q126.18584 -82.30826 126.18584 -84.31626Q126.92957 -92.46607 126.92957 -100.74907Q126.92957 -106.77307 126.43375 -113.22053L126.18584 -122.46826Q126.18584 -127.99026 123.95465 -130.52335Q121.72347 -133.05644 116.76528 -135.78508Q112.05501 -138.30199 112.05501 -141.56499Q112.05501 -143.07099 112.79874 -144.94579Q114.28619 -147.9424 117.50901 -148.45288Q119.98811 -149.09656 125.44211 -149.96046Q129.16075 -150.54948 131.14402 -150.61262Q133.37521 -150.71503 137.34176 -151.34332Q140.56458 -151.85381 146.01858 -153.2197Q153.45586 -154.89974 157.67032 -155.3163Q161.63687 -155.19159 162.62851 -154.72116Q163.62014 -154.25073 163.62014 -151.99173Q163.62014 -149.23073 161.88478 -146.44585Q160.14941 -143.66098 157.91823 -142.30357Q153.70377 -139.62801 152.58818 -137.8198Q151.47259 -136.0116 150.23304 -130.54426Q149.2414 -124.11219 149.2414 -120.84919Q149.2414 -117.58619 148.99349 -115.03692L147.01022 -78.82977Q146.76231 -75.02551 146.76231 -66.99351Q146.76231 -59.21251 147.25813 -49.50204Q147.75395 -39.79158 148.00186 -35.81485Q148.24977 -33.34411 148.99349 -20.28442Q149.73722 -7.22472 149.2414 4.39981Q148.74558 16.52635 148.74558 22.55035Q148.99349 27.53108 148.86954 33.07272Q148.74558 38.61435 148.74558 40.87335Q148.74558 46.89735 149.2414 48.32481Q150.97677 54.07394 153.20795 56.73253Q155.43914 59.39111 160.64523 62.08049Q164.85969 64.17393 164.85969 66.93493Q164.85969 69.19393 161.63687 70.45741Q160.64523 70.86549 159.28173 70.95596Q157.91823 71.04643 156.43077 71.28204Z" fill="rgb(37, 37, 37)" transform="matrix(1 0 0 1 390.952979 317.518927)"/><path d="M258.07359 55.43317Q254.60286 53.22192 252.74354 49.37493Q250.88422 45.52794 248.90095 38.56308Q246.17394 30.71203 246.17394 30.71203Q239.97621 15.12773 236.75339 8.61021Q234.52221 4.19463 231.42334 -7.11152Q228.32447 -18.41767 227.82865 -20.34714Q224.35792 -32.34739 223.6142 -34.48858L219.64765 -44.65329Q218.65601 -47.00622 215.80505 -53.95914Q212.9541 -60.91206 210.22709 -68.76311Q208.24382 -74.22197 203.03772 -93.97934Q198.57536 -110.34052 196.34417 -117.5171Q194.11299 -124.69369 192.37762 -125.67382Q190.64226 -126.65394 189.77458 -124.2575Q188.90689 -121.86106 188.90689 -118.09606Q188.65898 -113.2878 188.78294 -110.92293Q188.90689 -108.55806 188.90689 -107.30306Q188.90689 -102.53406 188.41107 -97.93753Q188.16316 -92.12526 188.90689 -84.96406Q188.90689 -83.45806 189.27876 -78.87347Q189.65062 -74.28887 189.1548 -70.19433Q188.41107 -61.54253 188.41107 -52.75753L188.65898 -35.2268L188.65898 -10.8798Q188.65898 -6.1108 188.16316 4.00774Q187.66735 13.62428 187.66735 18.39328Q187.66735 24.66828 188.41107 30.57447L189.65062 39.66513Q190.89017 47.24979 191.6339 50.26949Q192.37762 53.28918 194.60881 55.19477Q195.35253 55.82997 196.71604 57.11999Q198.07954 58.41002 198.82327 60.04922Q199.31908 60.97468 199.31908 61.72768Q199.31908 64.48868 194.60881 65.23477Q189.89853 65.98086 187.41944 66.12254L178.99052 67.20666Q173.78442 68.03128 171.30533 68.92596L170.06579 69.3733Q168.82624 69.56964 167.95856 68.82858Q167.09087 68.08752 166.84296 66.87179L166.84296 65.86779Q166.84296 63.85979 167.46274 62.63212Q168.08251 61.40445 168.95019 60.38851Q169.81788 59.37257 170.06579 59.0823Q175.27188 52.73568 177.75097 47.9505Q180.23007 43.16532 179.73425 37.47085Q179.48634 32.99212 179.48634 26.71712L179.73425 17.13985Q179.73425 12.87285 178.99052 4.70766Q178.74261 2.23692 178.74261 -2.53208Q178.74261 -6.29708 178.99052 -11.23084Q179.23843 -16.16461 179.48634 -18.71388Q179.73425 -21.01215 179.98216 -24.06342Q180.23007 -27.11468 180.23007 -31.13068Q180.23007 -36.15068 179.73425 -46.61415Q179.23843 -56.07361 179.23843 -61.09361L179.23843 -78.91461Q179.23843 -90.20961 179.48634 -95.77088L180.23007 -108.43868Q180.97379 -119.34949 181.2217 -133.94676Q181.2217 -139.21776 180.23007 -141.06868Q179.23843 -142.91961 176.88329 -144.55457Q174.52815 -146.18952 173.0407 -147.45991Q170.5616 -149.32623 170.5616 -153.09123Q170.5616 -154.84823 171.30533 -155.71904Q172.29697 -157.13111 173.53652 -157.57845Q175.51979 -158.14359 177.99888 -158.15977Q180.47798 -158.17595 182.21334 -158.45083Q184.69243 -158.84351 186.67571 -159.53415Q188.65898 -160.2248 190.64226 -160.53894Q191.6339 -160.69601 193.36926 -160.84539Q195.10463 -160.99476 197.33581 -160.84618Q198.57536 -160.79152 200.55863 -160.98016Q202.5419 -161.1688 204.15332 -160.79655Q205.76473 -160.42429 206.75636 -158.57336Q211.46664 -151.28745 215.92901 -134.92628Q219.64765 -121.71029 227.33284 -100.8396Q233.03475 -84.92577 240.71994 -62.80007Q246.17394 -46.59597 248.40513 -38.16438Q248.90095 -35.98392 250.63631 -27.85029Q252.37168 -19.71667 254.85077 -14.83835Q258.07359 -8.57183 260.30477 -10.43125Q261.0485 -11.05105 261.0485 -16.57305Q261.0485 -21.09105 260.55268 -29.04451Q260.30477 -31.01325 260.30477 -35.28025Q260.30477 -42.81025 261.0485 -50.45805Q261.54432 -60.57658 261.54432 -64.59258L261.29641 -75.59732Q260.80059 -88.06878 260.80059 -94.09278L261.0485 -103.92105Q261.79223 -113.07485 261.29641 -119.27132Q260.80059 -125.46778 260.55268 -129.44451Q260.30477 -133.42125 260.30477 -139.44525Q260.30477 -145.97125 257.32986 -151.39853Q254.35495 -156.82581 250.14049 -159.42126Q246.42185 -161.59324 246.42185 -165.10724Q246.42185 -167.86824 248.65304 -168.97465Q249.64467 -169.63372 251.62795 -169.94787Q253.61122 -170.26201 256.58613 -170.23123L262.28805 -171.38539Q264.27132 -171.95053 267.98996 -172.53955Q269.97324 -172.8537 273.93979 -172.97998Q274.93142 -172.88606 276.66679 -173.41193Q278.40215 -173.93781 279.39379 -174.09488Q283.85616 -174.8017 283.85616 -171.0367Q283.85616 -169.2797 282.74057 -167.4715Q281.62497 -165.66329 279.88961 -164.88642Q273.69188 -162.14772 271.83256 -158.84121Q269.97324 -155.5347 269.97324 -150.0127L270.22115 -141.76896L270.46906 -112.94323Q270.46906 -93.36523 269.97324 -83.7487Q269.47742 -77.14416 269.47742 -65.59816Q269.47742 -60.57816 268.9816 -47.44762Q268.48578 -39.58809 268.48578 -24.02609L268.48578 -7.46009Q268.48578 -0.43209 267.24623 8.04725Q266.2546 17.74232 266.2546 22.26032Q266.2546 25.77432 266.50251 27.49206L266.99832 35.69652Q266.99832 38.20652 267.49414 43.64998Q267.98996 49.59545 265.51087 53.50213Q264.51923 55.9182 261.79223 56.35015Q260.05686 56.62502 258.07359 55.43317Z" fill="rgb(37, 37, 37)" transform="matrix(1 0 0 1 390.952979 317.518927)"/><path d="M328.23192 -182.08167Q331.70265 -184.38843 334.55361 -185.46751Q337.40457 -186.54659 340.8753 -187.09634Q349.55212 -188.47072 355.00613 -188.33062Q360.46013 -188.19051 364.67459 -184.59107Q365.91414 -183.53241 367.40159 -183.76802Q368.64114 -183.96436 369.63278 -184.87443Q370.1286 -185.45496 371.61605 -187.07107Q373.10351 -188.68718 374.2191 -189.49139Q375.33469 -190.29559 376.57424 -190.49193Q377.07006 -190.57047 379.05333 -190.38261Q380.54079 -190.11622 380.91265 -187.91612Q381.28452 -185.71602 381.28452 -181.19802L381.03661 -174.88376Q380.7887 -172.83649 380.7887 -168.82049Q380.7887 -165.05549 381.28452 -163.37702Q381.78033 -161.44756 382.27615 -157.1336Q382.77197 -152.81963 382.77197 -148.80363Q382.77197 -143.28163 381.78033 -141.11656Q380.29288 -137.36695 377.56588 -136.935Q375.5826 -136.62086 373.59933 -139.06772Q371.12023 -142.69104 370.00464 -145.90283Q368.88905 -149.11462 367.6495 -154.18928Q367.40159 -154.90302 366.78182 -157.69135Q366.16205 -160.47968 364.9225 -162.04034Q357.98104 -170.98083 354.75822 -173.73335Q351.5354 -176.48586 347.07303 -175.77904Q345.83348 -175.5827 342.85857 -174.60949Q336.41293 -172.33352 333.56197 -169.24644Q330.71102 -166.15935 327.73611 -159.91514Q326.99238 -159.04433 323.76956 -152.76085Q318.56346 -143.65322 317.57182 -131.69915Q317.32391 -128.39688 315.83646 -119.37627Q313.35737 -105.93159 313.10946 -98.11133L312.86155 -88.78506Q312.86155 -79.74906 313.85318 -60.83013L314.349 -48.35867L315.09273 -33.91847Q315.83646 -26.75727 316.33228 -12.52881Q316.58019 -2.52808 319.05928 4.86024Q321.53837 12.24856 327.24029 23.6444Q329.47147 27.55799 333.19011 29.60447Q336.90875 31.65095 341.37112 30.94412Q344.59394 30.43364 347.81676 27.53865Q351.03958 24.64367 353.27076 20.77626Q356.9894 15.16724 358.105 8.33903Q359.22059 1.51083 358.97268 -6.9839Q358.72477 -12.21564 358.72477 -20.49864Q358.72477 -29.53464 359.22059 -38.14717Q359.71641 -44.75171 359.71641 -47.26171Q359.4685 -51.23844 354.75822 -54.75935Q354.01449 -55.39454 351.41144 -55.86073Q348.8084 -56.32692 347.4449 -57.49144Q346.08139 -58.65597 346.08139 -61.91897Q346.08139 -66.93897 354.2624 -68.23481Q360.46013 -69.21651 365.91414 -69.07641Q369.88069 -69.2027 372.60769 -69.63464Q375.33469 -70.06659 378.55751 -71.83208Q379.54915 -72.24015 381.53243 -73.05629Q383.5157 -73.87244 385.00316 -74.10804Q387.23434 -74.46146 389.96134 -73.3874Q390.95298 -72.79148 390.95298 -71.53648Q390.95298 -70.28148 390.33321 -69.05381Q389.71343 -67.82614 388.7218 -67.41806Q385.25106 -65.86431 383.88756 -63.76584Q382.52406 -61.66736 382.52406 -56.89836L381.78033 -36.19856L382.27615 -24.2291Q383.01988 -4.7689 383.01988 -4.2669Q383.01988 2.5101 382.52406 4.84764Q382.27615 6.1419 382.27615 8.9029Q382.27615 10.9109 383.5157 18.99756Q385.25106 26.00169 384.75525 30.59822Q384.75525 31.35122 384.63129 33.00236Q384.50734 34.65349 383.5157 35.81456Q382.52406 36.97564 380.7887 37.25051Q378.3096 37.64319 374.09515 35.80075Q369.88069 33.9583 368.88905 33.86438Q366.90578 33.67652 366.16205 33.79432Q364.67459 34.02993 361.94759 35.84238Q359.22059 37.65483 357.48522 38.1807Q355.99777 38.66731 352.8989 40.78966Q349.80003 42.91201 348.06467 43.43789Q345.08976 44.4111 342.36275 44.84305Q336.41293 45.78548 329.47147 45.50449Q322.53001 45.22349 318.81137 43.80451Q314.10109 41.7896 309.26686 38.16283Q304.43263 34.53605 301.95354 30.66173Q297.49117 24.34056 294.76417 14.9835Q292.03716 5.62645 289.80598 -4.81314Q287.32689 -16.97046 286.70711 -22.14329Q286.08734 -27.31612 286.08734 -37.10512L285.83943 -60.65985Q285.83943 -79.98685 287.07898 -88.71719L288.07062 -97.40826L290.79762 -117.92021Q293.77253 -136.21242 296.74744 -144.08814Q299.72235 -151.96386 306.66381 -162.09936Q313.10946 -171.15233 317.44787 -175.10252Q321.78628 -179.05271 328.23192 -182.08167Z" fill="rgb(37, 37, 37)" transform="matrix(1 0 0 1 390.952979 317.518927)"/><path d="" fill="rgb(37, 37, 37)" transform="matrix(1 0 0 1 390.952979 317.518927)"/></g></g>

  </svg>