<svg xmlns="http://www.w3.org/2000/svg" xmlns:xlink="http://www.w3.org/1999/xlink" width="1339px" height="60px" viewBox="0 0 391.3398449999986 17.53650702626601">
    <g style="" id="f6178f54-2661-452d-bcd4-e5ba0c6b4259">
<g style=""><path d="M-165.40961 -7.2297L-165.40961 -4.43627L-172.08279 -4.43627L-172.08279 -2.57399L-166.03037 -2.57399L-166.03037 0.06425L-172.08279 0.06425L-172.08279 2.08172L-165.37857 2.08172L-165.37857 4.87515L-175.34179 4.87515L-175.34179 -7.2297Z" fill="rgb(253, 250, 250)" transform="matrix(1 0 0 1 195.669922 8.768254)"/><path d="M-163.98186 4.87515L-163.98186 -7.2297L-158.08463 -7.2297L-156.2689 1.77134L-156.14475 1.77134L-154.3135 -7.2297L-148.58698 -7.2297L-148.58698 4.87515L-151.84598 4.87515L-151.84598 -4.12589L-151.93909 -4.12589L-153.77034 4.87515L-158.81402 4.87515L-160.62975 -4.12589L-160.72286 -4.12589L-160.72286 4.87515Z" fill="rgb(253, 250, 250)" transform="matrix(1 0 0 1 195.669922 8.768254)"/><path d="M-139.72561 -7.2297C-137.10289 -7.2297 -136.31142 -6.59342 -136.31142 -4.07933C-136.31142 -2.3412 -137.05634 -1.45662 -138.54617 -1.23935C-136.74596 -1.05312 -135.87689 -0.1375 -135.87689 1.69375C-135.87689 4.23887 -136.76148 4.87515 -139.72561 4.87515L-147.03508 4.87515L-147.03508 -7.2297ZM-140.71883 2.3921C-139.41523 2.3921 -139.27556 2.26795 -139.27556 1.19714C-139.27556 0.34359 -139.71009 -0.02887 -140.71883 -0.02887L-143.77608 -0.02887L-143.77608 2.3921ZM-141.02921 -2.51191C-140.09807 -2.51191 -139.71009 -2.83781 -139.71009 -3.61376C-139.71009 -4.63802 -139.83424 -4.74665 -141.02921 -4.74665L-143.77608 -4.74665L-143.77608 -2.51191Z" fill="rgb(253, 250, 250)" transform="matrix(1 0 0 1 195.669922 8.768254)"/><path d="M-127.55869 -7.2297C-124.33073 -7.2297 -123.52374 -6.53134 -123.52374 -3.7224C-123.52374 -1.72044 -124.26865 -0.77378 -125.96023 -0.54099C-124.34625 -0.37028 -123.52374 0.34359 -123.52374 1.89549L-123.52374 4.87515L-126.93793 4.87515L-126.93793 2.08172C-126.93793 0.74709 -127.10864 0.60741 -128.80021 0.60741L-131.22118 0.60741L-131.22118 4.87515L-134.48018 4.87515L-134.48018 -7.2297L-127.55869 -7.2297ZM-128.39672 -1.87563C-126.93793 -1.87563 -126.78274 -2.0153 -126.78274 -3.25682C-126.78274 -4.45179 -126.93793 -4.59146 -128.39672 -4.59146L-131.22118 -4.59146L-131.22118 -1.87563Z" fill="rgb(253, 250, 250)" transform="matrix(1 0 0 1 195.669922 8.768254)"/><path d="M-109.55661 4.87515L-113.28118 4.87515L-113.93298 2.51626L-118.58869 2.51626L-119.31808 4.87515L-122.82538 4.87515L-118.83699 -7.2297L-113.43637 -7.2297ZM-114.73997 -0.12198L-116.18324 -4.59146L-116.27635 -4.59146L-117.75066 -0.12198Z" fill="rgb(253, 250, 250)" transform="matrix(1 0 0 1 195.669922 8.768254)"/><path d="M-96.67581 -0.26165C-96.64478 3.99056 -97.87078 5.06138 -102.82135 5.06138C-107.77192 5.06138 -109.01345 3.81985 -109.01345 -1.17727C-109.01345 -6.1744 -107.77192 -7.41592 -102.82135 -7.41592C-97.87078 -7.41592 -96.64478 -6.36063 -96.67581 -2.12393L-100.09 -2.12393C-100.05896 -4.51387 -100.33831 -4.77769 -102.82135 -4.77769C-105.31992 -4.77769 -105.59926 -4.42075 -105.59926 -1.17727C-105.59926 2.0662 -105.31992 2.42314 -102.82135 2.42314C-100.33831 2.42314 -100.05896 2.15932 -100.09 -0.26165L-96.67581 -0.26165Z" fill="rgb(253, 250, 250)" transform="matrix(1 0 0 1 195.669922 8.768254)"/><path d="M-95.43429 -7.2297L-92.1753 -7.2297L-92.1753 4.87515L-95.43429 4.87515Z" fill="rgb(253, 250, 250)" transform="matrix(1 0 0 1 195.669922 8.768254)"/><path d="M-90.62339 -7.2297L-87.5351 -7.2297L-82.18104 -0.61859L-82.08792 -0.61859L-82.08792 -7.2297L-78.82893 -7.2297L-78.82893 4.87515L-81.9017 4.87515L-87.27128 -1.72044L-87.36439 -1.72044L-87.36439 4.87515L-90.62339 4.87515Z" fill="rgb(253, 250, 250)" transform="matrix(1 0 0 1 195.669922 8.768254)"/><path d="M-65.38944 -1.61181L-65.38944 4.87515L-68.33806 4.87515L-68.33806 2.93527C-68.72604 4.40958 -69.71925 5.06138 -71.47291 5.06138C-76.3614 5.06138 -77.5874 3.81985 -77.5874 -1.17727C-77.5874 -6.1744 -76.3614 -7.41592 -71.47291 -7.41592C-66.56889 -7.41592 -65.35841 -6.51582 -65.38944 -2.91541L-68.80363 -2.91541C-68.77259 -4.59146 -69.03642 -4.77769 -71.47291 -4.77769C-73.90939 -4.77769 -74.17322 -4.42075 -74.17322 -1.17727C-74.17322 2.0662 -73.90939 2.42314 -71.47291 2.42314C-69.61062 2.42314 -68.77259 1.95757 -68.71052 0.87124L-71.19356 0.87124L-71.19356 -1.61181Z" fill="rgb(253, 250, 250)" transform="matrix(1 0 0 1 195.669922 8.768254)"/><path d="" fill="rgb(253, 250, 250)" transform="matrix(1 0 0 1 195.669922 8.768254)"/><path d="M-56.32633 -4.43627L-60.03538 -4.43627L-60.03538 -7.2297L-49.32725 -7.2297L-49.32725 -4.43627L-53.06733 -4.43627L-53.06733 4.87515L-56.32633 4.87515Z" fill="rgb(253, 250, 250)" transform="matrix(1 0 0 1 195.669922 8.768254)"/><path d="M-48.4737 -7.2297L-45.2147 -7.2297L-45.2147 -2.69814L-40.55899 -2.69814L-40.55899 -7.2297L-37.3 -7.2297L-37.3 4.87515L-40.55899 4.87515L-40.55899 0.09529L-45.2147 0.09529L-45.2147 4.87515L-48.4737 4.87515Z" fill="rgb(253, 250, 250)" transform="matrix(1 0 0 1 195.669922 8.768254)"/><path d="M-25.81591 -7.2297L-25.81591 -4.43627L-32.4891 -4.43627L-32.4891 -2.57399L-26.43667 -2.57399L-26.43667 0.06425L-32.4891 0.06425L-32.4891 2.08172L-25.78487 2.08172L-25.78487 4.87515L-35.74809 4.87515L-35.74809 -7.2297Z" fill="rgb(253, 250, 250)" transform="matrix(1 0 0 1 195.669922 8.768254)"/><path d="" fill="rgb(253, 250, 250)" transform="matrix(1 0 0 1 195.669922 8.768254)"/><path d="M-16.48897 -1.17727L-16.47345 2.08172L-13.8197 2.08172C-11.616 2.08172 -11.36769 1.75582 -11.36769 -1.17727C-11.36769 -4.11037 -11.616 -4.43627 -13.8197 -4.43627L-16.47345 -4.43627ZM-19.73245 -7.2297L-13.47828 -7.2297C-9.05536 -7.2297 -7.9535 -6.01921 -7.9535 -1.17727C-7.9535 3.66466 -9.05536 4.87515 -13.47828 4.87515L-19.73245 4.87515Z" fill="rgb(253, 250, 250)" transform="matrix(1 0 0 1 195.669922 8.768254)"/><path d="M3.2202 -7.2297L3.2202 -4.43627L-3.45298 -4.43627L-3.45298 -2.57399L2.59944 -2.57399L2.59944 0.06425L-3.45298 0.06425L-3.45298 2.08172L3.25124 2.08172L3.25124 4.87515L-6.71198 4.87515L-6.71198 -7.2297Z" fill="rgb(253, 250, 250)" transform="matrix(1 0 0 1 195.669922 8.768254)"/><path d="M11.56944 -7.2297C14.7974 -7.2297 15.60439 -6.42271 15.60439 -3.19475C15.60439 -0.0599 14.85947 0.76261 11.84878 0.9178L7.90695 0.9178L7.90695 4.87515L4.64795 4.87515L4.64795 -7.2297ZM10.73141 -1.87563C12.1902 -1.87563 12.34539 -1.99978 12.34539 -3.17923C12.34539 -4.45179 12.1902 -4.59146 10.73141 -4.59146L7.90695 -4.59146L7.90695 -1.87563Z" fill="rgb(253, 250, 250)" transform="matrix(1 0 0 1 195.669922 8.768254)"/><path d="M19.8566 -4.43627L16.14755 -4.43627L16.14755 -7.2297L26.85569 -7.2297L26.85569 -4.43627L23.1156 -4.43627L23.1156 4.87515L19.8566 4.87515Z" fill="rgb(253, 250, 250)" transform="matrix(1 0 0 1 195.669922 8.768254)"/><path d="M27.70923 -7.2297L30.96823 -7.2297L30.96823 -2.69814L35.62394 -2.69814L35.62394 -7.2297L38.88294 -7.2297L38.88294 4.87515L35.62394 4.87515L35.62394 0.09529L30.96823 0.09529L30.96823 4.87515L27.70923 4.87515Z" fill="rgb(253, 250, 250)" transform="matrix(1 0 0 1 195.669922 8.768254)"/><path d="M45.8665 2.42314C47.97709 2.42314 48.22539 2.33003 48.22539 1.44544C48.22539 0.74709 47.62015 0.45222 45.33885 0.00217C41.3815 -0.7893 40.38828 -1.53421 40.38828 -3.78447C40.38828 -6.68653 41.53669 -7.41592 45.95962 -7.41592C50.41358 -7.41592 51.56199 -6.53134 51.56199 -2.993L48.1478 -2.993C48.1478 -4.60698 47.91501 -4.77769 45.95962 -4.77769C44.03526 -4.77769 43.80247 -4.66906 43.80247 -3.75343C43.80247 -3.11715 44.25252 -2.88437 45.89754 -2.54295C50.4291 -1.65836 51.63958 -0.82034 51.63958 1.61615C51.63958 4.37854 50.47565 5.06138 45.95962 5.06138C41.31942 5.06138 40.12446 4.20783 40.12446 0.80916L43.53865 0.80916C43.53865 2.26795 43.78695 2.42314 45.8665 2.42314Z" fill="rgb(253, 250, 250)" transform="matrix(1 0 0 1 195.669922 8.768254)"/><path d="" fill="rgb(253, 250, 250)" transform="matrix(1 0 0 1 195.669922 8.768254)"/><path d="M63.51164 -4.77769C60.91996 -4.77769 60.64062 -4.42075 60.64062 -1.17727C60.64062 2.0662 60.91996 2.42314 63.51164 2.42314C66.10332 2.42314 66.38266 2.0662 66.38266 -1.17727C66.38266 -4.42075 66.10332 -4.77769 63.51164 -4.77769ZM57.22643 -1.17727C57.22643 -6.1744 58.48347 -7.41592 63.51164 -7.41592C68.53981 -7.41592 69.79685 -6.1744 69.79685 -1.17727C69.79685 3.81985 68.53981 5.06138 63.51164 5.06138C58.48347 5.06138 57.22643 3.81985 57.22643 -1.17727Z" fill="rgb(253, 250, 250)" transform="matrix(1 0 0 1 195.669922 8.768254)"/><path d="M80.97055 -7.2297L80.97055 -4.43627L74.29737 -4.43627L74.29737 -2.26361L80.34979 -2.26361L80.34979 0.52982L74.29737 0.52982L74.29737 4.87515L71.03837 4.87515L71.03837 -7.2297Z" fill="rgb(253, 250, 250)" transform="matrix(1 0 0 1 195.669922 8.768254)"/><path d="" fill="rgb(253, 250, 250)" transform="matrix(1 0 0 1 195.669922 8.768254)"/><path d="M96.95516 -7.2297L96.95516 -4.43627L90.28197 -4.43627L90.28197 -2.26361L96.3344 -2.26361L96.3344 0.52982L90.28197 0.52982L90.28197 4.87515L87.02298 4.87515L87.02298 -7.2297Z" fill="rgb(253, 250, 250)" transform="matrix(1 0 0 1 195.669922 8.768254)"/><path d="M105.27336 -7.2297C108.50132 -7.2297 109.30831 -6.53134 109.30831 -3.7224C109.30831 -1.72044 108.56339 -0.77378 106.87182 -0.54099C108.4858 -0.37028 109.30831 0.34359 109.30831 1.89549L109.30831 4.87515L105.89412 4.87515L105.89412 2.08172C105.89412 0.74709 105.72341 0.60741 104.03184 0.60741L101.61087 0.60741L101.61087 4.87515L98.35187 4.87515L98.35187 -7.2297L105.27336 -7.2297ZM104.43533 -1.87563C105.89412 -1.87563 106.04931 -2.0153 106.04931 -3.25682C106.04931 -4.45179 105.89412 -4.59146 104.43533 -4.59146L101.61087 -4.59146L101.61087 -1.87563Z" fill="rgb(253, 250, 250)" transform="matrix(1 0 0 1 195.669922 8.768254)"/><path d="M120.6372 -7.2297L120.6372 -4.43627L113.96402 -4.43627L113.96402 -2.57399L120.01644 -2.57399L120.01644 0.06425L113.96402 0.06425L113.96402 2.08172L120.66824 2.08172L120.66824 4.87515L110.70502 4.87515L110.70502 -7.2297Z" fill="rgb(253, 250, 250)" transform="matrix(1 0 0 1 195.669922 8.768254)"/><path d="M131.99713 -7.2297L131.99713 -4.43627L125.32395 -4.43627L125.32395 -2.57399L131.37637 -2.57399L131.37637 0.06425L125.32395 0.06425L125.32395 2.08172L132.02817 2.08172L132.02817 4.87515L122.06495 4.87515L122.06495 -7.2297Z" fill="rgb(253, 250, 250)" transform="matrix(1 0 0 1 195.669922 8.768254)"/><path d="M136.66836 -1.17727L136.68388 2.08172L139.33764 2.08172C141.54134 2.08172 141.78964 1.75582 141.78964 -1.17727C141.78964 -4.11037 141.54134 -4.43627 139.33764 -4.43627L136.68388 -4.43627ZM133.42488 -7.2297L139.67905 -7.2297C144.10198 -7.2297 145.20383 -6.01921 145.20383 -1.17727C145.20383 3.66466 144.10198 4.87515 139.67905 4.87515L133.42488 4.87515Z" fill="rgb(253, 250, 250)" transform="matrix(1 0 0 1 195.669922 8.768254)"/><path d="M152.42018 -4.77769C149.8285 -4.77769 149.54916 -4.42075 149.54916 -1.17727C149.54916 2.0662 149.8285 2.42314 152.42018 2.42314C155.01186 2.42314 155.2912 2.0662 155.2912 -1.17727C155.2912 -4.42075 155.01186 -4.77769 152.42018 -4.77769ZM146.13497 -1.17727C146.13497 -6.1744 147.39201 -7.41592 152.42018 -7.41592C157.44835 -7.41592 158.70539 -6.1744 158.70539 -1.17727C158.70539 3.81985 157.44835 5.06138 152.42018 5.06138C147.39201 5.06138 146.13497 3.81985 146.13497 -1.17727Z" fill="rgb(253, 250, 250)" transform="matrix(1 0 0 1 195.669922 8.768254)"/><path d="M159.94691 4.87515L159.94691 -7.2297L165.84414 -7.2297L167.65987 1.77134L167.78402 1.77134L169.61527 -7.2297L175.34179 -7.2297L175.34179 4.87515L172.08279 4.87515L172.08279 -4.12589L171.98968 -4.12589L170.15843 4.87515L165.11475 4.87515L163.29902 -4.12589L163.20591 -4.12589L163.20591 4.87515Z" fill="rgb(253, 250, 250)" transform="matrix(1 0 0 1 195.669922 8.768254)"/></g></g>

  </svg>