<svg xmlns="http://www.w3.org/2000/svg" xmlns:xlink="http://www.w3.org/1999/xlink" width="372px" height="105px" viewBox="0 0 371.5707719999991 105.02950806029526">
    <g style="" id="75aa141d-8859-44ab-a9e1-d254faff5c22">
<g style=""><path d="M-177.29026 -46.64935Q-177.29026 -46.40141 -178.0406 -45.91859Q-178.79094 -45.43576 -178.9671 -44.60713Q-179.14327 -43.77849 -179.14327 -38.0433Q-179.14327 -32.30812 -178.92795 -31.47948Q-178.71264 -30.65085 -177.97535 -30.23979Q-177.23806 -29.82874 -177.23806 -29.47641Q-177.23806 -28.99358 -178.42555 -28.99358L-178.71264 -29.00663L-179.31291 -29.01968Q-179.61304 -29.03273 -179.91318 -29.03273L-180.48735 -29.05883L-182.24901 -29.05883Q-184.37606 -29.05883 -184.37606 -29.43726L-184.37606 -29.61995Q-184.37606 -29.86789 -183.53437 -30.35724Q-182.69269 -30.84659 -182.4839 -31.74047Q-182.27511 -32.63435 -182.27511 -38.1216Q-182.27511 -43.60885 -182.52305 -44.52883Q-182.77099 -45.44881 -183.30601 -45.7359Q-184.37606 -46.32312 -184.37606 -46.62325Q-184.37606 -47.13218 -180.34381 -47.13218L-178.90838 -47.15827L-178.06017 -47.15827Q-177.29026 -47.15827 -177.29026 -46.64935Z" fill="rgb(255, 255, 255)" transform="matrix(1 0 0 1 185.785386 52.514754)"/><path d="M-172.86653 -29.12407Q-174.70649 -29.12407 -174.70649 -29.64605Q-174.70649 -30.07668 -174.22366 -30.35071Q-173.34936 -30.84659 -173.20581 -31.24459Q-173.06227 -31.6426 -173.06227 -35.01586Q-173.06227 -38.38911 -173.26454 -38.96981Q-173.4668 -39.5505 -174.00182 -39.92894Q-174.53685 -40.30737 -174.53685 -40.54225Q-174.53685 -40.77714 -174.18452 -40.98593Q-173.36241 -41.46876 -171.57465 -41.46876Q-171.03962 -41.46876 -170.73949 -41.10338Q-170.63509 -40.97288 -170.44588 -40.53573Q-170.25666 -40.09858 -170.19141 -40.09858Q-169.94348 -40.11163 -169.4215 -40.45091Q-167.62069 -41.6645 -166.15917 -41.6645L-166.13307 -41.6645L-165.71549 -41.6645Q-164.65849 -41.6645 -163.81028 -41.14252Q-162.96208 -40.62055 -162.49882 -39.5766Q-162.03557 -38.53265 -162.03557 -35.0289Q-162.03557 -31.52515 -161.8855 -31.1141Q-161.73544 -30.70305 -161.0373 -30.35071Q-160.33916 -29.99838 -160.33916 -29.6591Q-160.33916 -29.07188 -164.04517 -29.07188L-164.43665 -29.07188Q-165.61109 -29.07188 -165.61109 -29.633Q-165.61109 -29.75044 -165.32401 -30.20065Q-165.03692 -30.65085 -164.93253 -31.19892Q-164.82813 -31.74699 -164.82813 -34.80707Q-164.82813 -37.86714 -165.20656 -38.74144Q-165.72854 -39.94198 -166.94213 -39.94198Q-167.82948 -39.94198 -168.65812 -39.53093Q-169.48675 -39.11988 -169.85866 -38.36954Q-170.23056 -37.6192 -170.23056 -34.78097Q-170.23056 -31.94273 -170.07397 -31.34899Q-169.91738 -30.75524 -169.69554 -30.38986L-169.21271 -29.6069Q-169.21271 -29.09798 -171.26146 -29.09798L-172.05747 -29.12407Z" fill="rgb(255, 255, 255)" transform="matrix(1 0 0 1 185.785386 52.514754)"/><path d="" fill="rgb(255, 255, 255)" transform="matrix(1 0 0 1 185.785386 52.514754)"/><path d="M-146.05012 -30.74219L-144.06662 -31.04233Q-143.72734 -31.04233 -143.72734 -30.51383Q-143.72734 -29.98533 -144.73214 -29.42421Q-145.73694 -28.86309 -146.84613 -28.86309L-147.10712 -28.86309Q-147.98142 -28.86309 -148.68609 -29.31981Q-149.39075 -29.77654 -149.71699 -30.44206Q-150.27811 -31.60345 -150.27811 -34.84621Q-150.27811 -38.08898 -150.50647 -38.89804Q-150.73484 -39.7071 -151.10022 -40.00723Q-151.77878 -40.5553 -151.77878 -40.6075Q-151.77878 -40.94678 -151.42645 -41.18167Q-150.52605 -41.78194 -150.44123 -41.86676Q-150.3564 -41.95158 -149.44295 -44.00033Q-148.98622 -45.01818 -148.40553 -45.01818Q-147.82483 -45.01818 -147.62909 -44.6006Q-147.57689 -44.49621 -147.40073 -43.46531Q-147.22456 -42.43441 -146.89833 -42.1408Q-146.57209 -41.84719 -145.44985 -41.57968Q-144.32761 -41.31217 -144.32761 -40.81629Q-144.32761 -40.32042 -145.56729 -40.07248Q-146.80698 -39.82454 -147.06797 -39.43306Q-147.5247 -38.76754 -147.5247 -35.67485Q-147.5247 -32.58215 -147.23761 -31.77309Q-146.87223 -30.74219 -146.05012 -30.74219Z" fill="rgb(255, 255, 255)" transform="matrix(1 0 0 1 185.785386 52.514754)"/><path d="M-141.62639 -29.73739Q-141.62639 -29.97228 -141.06527 -30.59213Q-140.50415 -31.21197 -140.36713 -31.83834Q-140.23011 -32.46471 -140.23011 -38.44131Q-140.23011 -44.41791 -140.50415 -45.6837Q-140.63464 -46.29702 -141.05222 -46.5841Q-141.80908 -47.11913 -141.80908 -47.15827Q-141.80908 -47.6411 -141.30016 -47.83684Q-140.33451 -48.21527 -139.04262 -48.21527L-138.61199 -48.21527Q-138.01172 -48.21527 -137.75726 -47.73245Q-137.5028 -47.24962 -137.5028 -45.6054L-137.51585 -45.12258Q-137.5289 -44.63975 -137.5289 -44.15692L-137.55499 -43.19127Q-137.55499 -42.70845 -137.55499 -42.22562Q-137.55499 -40.51616 -136.95472 -40.51616Q-136.88948 -40.52921 -136.28921 -40.79019Q-134.47535 -41.59925 -133.24871 -41.59925Q-130.95202 -41.59925 -130.02552 -39.75929Q-129.4122 -38.50656 -129.4122 -33.6Q-129.4122 -31.70785 -129.27518 -31.24459Q-129.13816 -30.78134 -128.53137 -30.28547Q-127.92457 -29.78959 -127.92457 -29.6591Q-127.92457 -29.25457 -128.45307 -29.11103Q-128.98157 -28.96748 -131.14776 -28.96748L-131.60449 -28.96748Q-133.02687 -28.96748 -133.02687 -29.54165Q-133.02687 -29.67215 -132.68759 -30.20065Q-132.3483 -30.72914 -132.24391 -31.39466Q-132.13951 -32.06018 -132.13951 -34.87884Q-132.13951 -37.6975 -132.4005 -38.42826Q-133.30091 -39.6027 -134.39705 -39.86369Q-135.89773 -39.86369 -136.79813 -38.79364Q-137.46365 -38.01068 -137.46365 -35.22464Q-137.46365 -32.43861 -137.33316 -31.67522Q-137.20266 -30.91184 -136.76551 -30.29199Q-136.32836 -29.67215 -136.32836 -29.5286Q-136.32836 -29.05883 -138.97737 -29.05883Q-141.62639 -29.05883 -141.62639 -29.73739Z" fill="rgb(255, 255, 255)" transform="matrix(1 0 0 1 185.785386 52.514754)"/><path d="M-117.49815 -37.50176L-117.49815 -37.90629Q-117.49815 -38.87194 -118.18976 -39.64837Q-118.88138 -40.42481 -119.88618 -40.42481L-120.13411 -40.42481Q-120.3168 -40.39871 -120.38205 -40.39871Q-121.29551 -40.39871 -122.11109 -39.35476Q-122.92667 -38.31082 -122.92667 -37.12333L-122.92667 -36.95368Q-122.92667 -36.5361 -122.4308 -36.5361Q-122.23506 -36.49696 -122.22201 -36.49696L-121.92187 -36.48391L-121.84358 -36.48391L-121.75223 -36.49696L-119.23371 -36.6405L-118.76393 -36.6927Q-117.49815 -36.6927 -117.49815 -37.50176ZM-122.92667 -34.04368Q-122.92667 -32.55605 -121.80443 -31.55125Q-120.68219 -30.54645 -118.95967 -30.54645Q-118.26806 -30.54645 -117.70041 -30.74872Q-117.13276 -30.95098 -116.46072 -31.23807Q-115.78868 -31.52515 -115.61904 -31.52515Q-115.09707 -31.52515 -115.09707 -30.96403Q-115.09707 -30.20717 -117.02837 -29.34591Q-118.28111 -28.78479 -119.71653 -28.78479L-120.00362 -28.78479Q-122.4569 -28.78479 -124.07502 -30.27242Q-124.94932 -31.08148 -125.43215 -32.34074Q-125.91498 -33.6 -125.91498 -35.04848L-125.90193 -35.34861L-125.90193 -35.64875Q-125.90193 -36.90149 -125.32775 -38.11508Q-124.74053 -39.32867 -123.93147 -40.11163Q-122.22201 -41.75584 -119.87313 -41.76889Q-116.3237 -41.76889 -115.14926 -39.00243Q-114.78388 -38.12813 -114.78388 -37.39736L-114.78388 -37.13637Q-114.78388 -36.23597 -115.52769 -35.92931Q-116.27151 -35.62265 -119.03797 -35.42691Q-121.80443 -35.23117 -122.03932 -35.16592Q-122.92667 -34.94408 -122.92667 -34.04368Z" fill="rgb(255, 255, 255)" transform="matrix(1 0 0 1 185.785386 52.514754)"/><path d="" fill="rgb(255, 255, 255)" transform="matrix(1 0 0 1 185.785386 52.514754)"/><path d="M-102.79153 -35.74009L-102.79153 -35.25727Q-102.79153 -33.03888 -101.93027 -31.57735Q-101.52574 -30.88574 -100.89937 -30.48121Q-100.27301 -30.07668 -99.63359 -30.07668L-99.3726 -30.07668Q-98.18511 -30.07668 -97.31733 -31.23154Q-96.44955 -32.38641 -96.44955 -34.51346L-96.44955 -35.43996Q-96.44955 -37.5409 -97.31733 -39.00896Q-98.18511 -40.47701 -99.51614 -40.47701L-99.92067 -40.47701Q-101.12121 -40.47701 -101.95637 -39.18512Q-102.79153 -37.89324 -102.79153 -35.74009ZM-93.30465 -35.6879L-93.30465 -35.03543Q-93.30465 -34.00453 -93.72223 -32.77789Q-94.59654 -30.22022 -97.20641 -29.20237Q-98.3417 -28.75869 -99.3987 -28.75869L-99.82933 -28.75869Q-102.32175 -28.75869 -103.99207 -30.42901Q-104.74893 -31.18587 -105.21871 -32.42556Q-105.68849 -33.66525 -105.68849 -35.06153L-105.68849 -35.28337Q-105.68849 -36.54915 -105.24481 -37.84104Q-104.38355 -40.35956 -101.86503 -41.33826Q-100.72973 -41.78194 -99.68578 -41.78194L-99.03332 -41.78194Q-97.87193 -41.78194 -96.74968 -41.25997Q-94.62264 -40.26822 -93.78748 -38.10203Q-93.30465 -36.82319 -93.30465 -35.6879Z" fill="rgb(255, 255, 255)" transform="matrix(1 0 0 1 185.785386 52.514754)"/><path d="M-80.85557 -34.83969L-80.85557 -35.6096Q-80.85557 -37.71055 -81.71683 -38.96328Q-82.57809 -40.21602 -83.88302 -40.21602L-84.01352 -40.21602Q-84.73123 -40.21602 -85.4098 -39.81802Q-86.08836 -39.42001 -86.44722 -38.80669Q-86.80608 -38.19337 -86.80608 -35.19202L-86.80608 -34.08283L-86.79303 -33.93928L-86.79303 -33.39121L-86.77998 -33.26072L-86.77998 -32.98668Q-86.75388 -32.6996 -86.75388 -32.5691Q-86.75388 -31.45991 -86.04269 -30.84006Q-85.3315 -30.22022 -84.13096 -30.22022L-84.00047 -30.22022Q-82.56504 -30.22022 -81.71031 -31.5382Q-80.85557 -32.85619 -80.85557 -34.83969ZM-86.07531 -29.22847Q-86.75388 -29.22847 -86.75388 -27.47333Q-86.75388 -25.71819 -86.49942 -25.24189Q-86.24496 -24.76559 -85.67731 -24.37411Q-85.10966 -23.98263 -85.10966 -23.70859Q-85.10966 -23.12137 -86.80608 -23.12137L-88.11101 -23.12137Q-91.08626 -23.12137 -91.08626 -23.72164Q-91.08626 -23.90434 -90.3294 -24.6351Q-89.92487 -25.02658 -89.68998 -26.22059Q-89.4551 -27.41461 -89.4551 -30.74219L-89.4551 -36.15767L-89.48119 -37.55395Q-89.48119 -38.83279 -89.82048 -39.42001Q-89.95097 -39.64185 -90.49904 -40.02681Q-91.04712 -40.41176 -91.04712 -40.6858Q-91.04712 -40.95983 -90.73393 -41.11643Q-89.71608 -41.6123 -88.04577 -41.6123Q-87.61514 -41.6123 -87.16493 -41.09033Q-86.71473 -40.56835 -86.66254 -40.56835Q-86.45375 -40.56835 -85.82085 -40.92721Q-85.18796 -41.28607 -85.14881 -41.31217Q-84.02657 -41.83414 -83.20446 -41.83414L-82.52589 -41.83414Q-81.79513 -41.83414 -80.86862 -41.42961Q-79.09391 -40.6597 -78.324 -38.5457Q-77.86727 -37.30602 -77.86727 -36.13157L-77.86727 -35.40081Q-77.86727 -34.18722 -78.36315 -32.90839Q-79.34185 -30.37681 -81.67768 -29.46336Q-82.66943 -29.07188 -83.98742 -29.07188L-86.07531 -29.22847Z" fill="rgb(255, 255, 255)" transform="matrix(1 0 0 1 185.785386 52.514754)"/><path d="M-62.2472 -30.44858Q-62.2472 -30.44858 -61.96012 -30.22348Q-61.67303 -29.99838 -61.67303 -29.80917Q-61.67303 -29.61995 -61.86877 -29.45031Q-62.42989 -28.94138 -64.26985 -28.94138Q-64.87012 -28.94138 -65.20288 -29.14365Q-65.53564 -29.34591 -65.7901 -29.88094Q-66.04456 -30.41596 -66.21421 -30.41596Q-66.38385 -30.40291 -66.97107 -29.98533Q-68.61529 -28.79784 -70.11596 -28.79784Q-70.12901 -28.79784 -70.15511 -28.79784L-70.54659 -28.79784Q-72.69973 -28.79784 -73.66538 -30.62475Q-74.16126 -31.57735 -74.16778 -35.28989Q-74.17431 -39.00243 -74.29175 -39.37434Q-74.4092 -39.74624 -75.12039 -40.079Q-75.83158 -40.41176 -75.83158 -40.59445Q-75.83158 -41.07728 -75.37485 -41.22082Q-74.357 -41.54705 -72.77803 -41.54705Q-71.86457 -41.54705 -71.61664 -40.80324Q-71.2904 -39.85064 -71.2904 -36.25554Q-71.2904 -32.66045 -70.97722 -31.89054Q-70.44219 -30.57255 -69.03287 -30.57255Q-68.3021 -30.57255 -67.57786 -30.95098Q-66.85362 -31.32941 -66.44909 -31.96883Q-66.04456 -32.60825 -66.04456 -35.48563Q-66.04456 -38.36301 -66.23378 -39.10683Q-66.423 -39.85064 -66.81448 -40.27474Q-67.20596 -40.69885 -67.20596 -40.94678Q-67.20596 -41.52096 -64.13936 -41.52096Q-63.49994 -41.52096 -63.3042 -41.24039Q-63.10846 -40.95983 -63.10846 -40.21602L-63.14761 -39.44611L-63.21286 -35.97498Q-63.21286 -32.58215 -63.01712 -31.74047Q-62.82138 -30.89879 -62.2472 -30.44858Z" fill="rgb(255, 255, 255)" transform="matrix(1 0 0 1 185.785386 52.514754)"/><path d="M-59.59819 -29.47641Q-59.59819 -29.75044 -59.00444 -30.18107Q-58.4107 -30.6117 -58.20191 -31.53168Q-57.99312 -32.45166 -57.99312 -38.51961Q-57.99312 -44.58755 -58.13013 -45.39661Q-58.26715 -46.20567 -58.80218 -46.558Q-59.66343 -47.11913 -59.66343 -47.24962L-59.66343 -47.40621Q-59.66343 -47.62805 -59.285 -47.79769Q-58.11056 -48.30662 -56.15316 -48.30662L-55.89217 -48.30662Q-55.22665 -48.30662 -55.12226 -47.40621Q-55.10921 -47.28877 -55.10921 -45.43576L-55.10921 -42.63015L-55.12226 -42.09513L-55.12226 -41.27302L-55.13531 -40.73799Q-55.13531 -40.73799 -55.13531 -36.60135Q-55.13531 -32.73874 -55.01134 -31.81877Q-54.88737 -30.89879 -54.43064 -30.48121Q-54.37845 -30.44206 -53.88257 -30.14192Q-53.3867 -29.84179 -53.3867 -29.5286Q-53.3867 -29.07188 -55.00482 -29.07188L-55.53984 -29.04578L-56.07486 -29.04578L-58.21496 -29.00663L-58.48899 -29.00663Q-59.59819 -29.00663 -59.59819 -29.47641Z" fill="rgb(255, 255, 255)" transform="matrix(1 0 0 1 185.785386 52.514754)"/><path d="M-43.15601 -37.50176L-43.15601 -37.90629Q-43.15601 -38.87194 -43.84762 -39.64837Q-44.53924 -40.42481 -45.54404 -40.42481L-45.79198 -40.42481Q-45.97467 -40.39871 -46.03991 -40.39871Q-46.95337 -40.39871 -47.76895 -39.35476Q-48.58454 -38.31082 -48.58454 -37.12333L-48.58454 -36.95368Q-48.58454 -36.5361 -48.08866 -36.5361Q-47.89292 -36.49696 -47.87987 -36.49696L-47.57974 -36.48391L-47.50144 -36.48391L-47.41009 -36.49696L-44.89157 -36.6405L-44.42179 -36.6927Q-43.15601 -36.6927 -43.15601 -37.50176ZM-48.58454 -34.04368Q-48.58454 -32.55605 -47.46229 -31.55125Q-46.34005 -30.54645 -44.61753 -30.54645Q-43.92592 -30.54645 -43.35827 -30.74872Q-42.79063 -30.95098 -42.11858 -31.23807Q-41.44654 -31.52515 -41.2769 -31.52515Q-40.75493 -31.52515 -40.75493 -30.96403Q-40.75493 -30.20717 -42.68623 -29.34591Q-43.93897 -28.78479 -45.3744 -28.78479L-45.66148 -28.78479Q-48.11476 -28.78479 -49.73288 -30.27242Q-50.60719 -31.08148 -51.09001 -32.34074Q-51.57284 -33.6 -51.57284 -35.04848L-51.55979 -35.34861L-51.55979 -35.64875Q-51.55979 -36.90149 -50.98562 -38.11508Q-50.3984 -39.32867 -49.58934 -40.11163Q-47.87987 -41.75584 -45.53099 -41.76889Q-41.98157 -41.76889 -40.80712 -39.00243Q-40.44174 -38.12813 -40.44174 -37.39736L-40.44174 -37.13637Q-40.44174 -36.23597 -41.18556 -35.92931Q-41.92937 -35.62265 -44.69583 -35.42691Q-47.46229 -35.23117 -47.69718 -35.16592Q-48.58454 -34.94408 -48.58454 -34.04368Z" fill="rgb(255, 255, 255)" transform="matrix(1 0 0 1 185.785386 52.514754)"/><path d="M-36.2268 -29.12407Q-38.06676 -29.12407 -38.06676 -29.64605Q-38.06676 -30.07668 -37.58394 -30.35071Q-36.70963 -30.84659 -36.56609 -31.24459Q-36.42254 -31.6426 -36.42254 -35.01586Q-36.42254 -38.38911 -36.62481 -38.96981Q-36.82707 -39.5505 -37.3621 -39.92894Q-37.89712 -40.30737 -37.89712 -40.54225Q-37.89712 -40.77714 -37.54479 -40.98593Q-36.72268 -41.46876 -34.93492 -41.46876Q-34.39989 -41.46876 -34.09976 -41.10338Q-33.99536 -40.97288 -33.80615 -40.53573Q-33.61693 -40.09858 -33.55169 -40.09858Q-33.30375 -40.11163 -32.78178 -40.45091Q-30.98097 -41.6645 -29.51944 -41.6645L-29.49334 -41.6645L-29.07576 -41.6645Q-28.01876 -41.6645 -27.17056 -41.14252Q-26.32235 -40.62055 -25.8591 -39.5766Q-25.39584 -38.53265 -25.39584 -35.0289Q-25.39584 -31.52515 -25.24578 -31.1141Q-25.09571 -30.70305 -24.39757 -30.35071Q-23.69943 -29.99838 -23.69943 -29.6591Q-23.69943 -29.07188 -27.40544 -29.07188L-27.79692 -29.07188Q-28.97137 -29.07188 -28.97137 -29.633Q-28.97137 -29.75044 -28.68428 -30.20065Q-28.39719 -30.65085 -28.2928 -31.19892Q-28.1884 -31.74699 -28.1884 -34.80707Q-28.1884 -37.86714 -28.56684 -38.74144Q-29.08881 -39.94198 -30.3024 -39.94198Q-31.18975 -39.94198 -32.01839 -39.53093Q-32.84702 -39.11988 -33.21893 -38.36954Q-33.59083 -37.6192 -33.59083 -34.78097Q-33.59083 -31.94273 -33.43424 -31.34899Q-33.27765 -30.75524 -33.05581 -30.38986L-32.57299 -29.6069Q-32.57299 -29.09798 -34.62173 -29.09798L-35.41774 -29.12407Z" fill="rgb(255, 255, 255)" transform="matrix(1 0 0 1 185.785386 52.514754)"/><path d="M-16.2352 -30.74219L-14.2517 -31.04233Q-13.91242 -31.04233 -13.91242 -30.51383Q-13.91242 -29.98533 -14.91722 -29.42421Q-15.92202 -28.86309 -17.03121 -28.86309L-17.2922 -28.86309Q-18.1665 -28.86309 -18.87117 -29.31981Q-19.57583 -29.77654 -19.90207 -30.44206Q-20.46319 -31.60345 -20.46319 -34.84621Q-20.46319 -38.08898 -20.69155 -38.89804Q-20.91992 -39.7071 -21.2853 -40.00723Q-21.96387 -40.5553 -21.96387 -40.6075Q-21.96387 -40.94678 -21.61153 -41.18167Q-20.71113 -41.78194 -20.62631 -41.86676Q-20.54149 -41.95158 -19.62803 -44.00033Q-19.1713 -45.01818 -18.59061 -45.01818Q-18.00991 -45.01818 -17.81417 -44.6006Q-17.76198 -44.49621 -17.58581 -43.46531Q-17.40964 -42.43441 -17.08341 -42.1408Q-16.75718 -41.84719 -15.63493 -41.57968Q-14.51269 -41.31217 -14.51269 -40.81629Q-14.51269 -40.32042 -15.75238 -40.07248Q-16.99206 -39.82454 -17.25305 -39.43306Q-17.70978 -38.76754 -17.70978 -35.67485Q-17.70978 -32.58215 -17.42269 -31.77309Q-17.05731 -30.74219 -16.2352 -30.74219Z" fill="rgb(255, 255, 255)" transform="matrix(1 0 0 1 185.785386 52.514754)"/><path d="" fill="rgb(255, 255, 255)" transform="matrix(1 0 0 1 185.785386 52.514754)"/><path d="M12.57776 -41.40351Q13.84355 -41.40351 13.84355 -40.69885Q13.84355 -40.5553 13.51079 -40.02681Q13.17803 -39.49831 12.73435 -38.5718Q12.29067 -37.6453 11.09013 -34.17417Q9.88959 -30.70305 9.7069 -30.35071Q9.10663 -29.21542 8.04964 -29.21542Q7.56681 -29.21542 7.07094 -30.16802Q6.57506 -31.12062 5.51154 -33.84141Q4.44802 -36.5622 4.16093 -36.5622Q4.12178 -36.5622 2.96039 -33.71092Q1.799 -30.85964 1.57716 -30.44206Q0.95079 -29.25457 0.05691 -29.25457Q-0.83697 -29.25457 -1.85482 -32.28202L-2.18105 -33.29987Q-3.57733 -37.78884 -4.77787 -39.45916Q-5.50864 -40.47701 -5.50864 -40.6858Q-5.50864 -40.89459 -5.29985 -41.07728Q-4.85617 -41.46876 -3.73393 -41.46876L-3.23805 -41.46876Q-1.65908 -41.46876 -1.28065 -40.79019Q-1.13711 -40.52921 -1.05228 -39.63532Q-0.96746 -38.74144 -0.83045 -37.95196Q-0.69343 -37.16247 -0.08011 -35.23117Q0.53321 -33.29987 1.08128 -33.29987Q1.51191 -33.29987 2.12523 -34.99628Q2.73855 -36.6927 2.73855 -38.11508Q2.73855 -38.45436 2.60153 -39.01548Q2.46452 -39.5766 2.46452 -39.78539Q2.46452 -40.56835 3.43017 -40.99898Q3.89994 -41.20777 4.84602 -41.20777Q5.7921 -41.20777 6.41847 -40.46396Q6.7447 -40.07248 6.7447 -39.34171L6.7186 -38.96328L6.70555 -38.5457Q6.70555 -38.18032 7.27972 -36.28164Q7.8539 -34.38296 8.10836 -33.86751Q8.36282 -33.35206 8.63686 -33.35206Q9.19798 -33.35206 9.93527 -35.50521Q10.67256 -37.65835 10.67256 -39.19817L10.56816 -40.51616Q10.56816 -41.40351 12.57776 -41.40351Z" fill="rgb(255, 255, 255)" transform="matrix(1 0 0 1 185.785386 52.514754)"/><path d="M18.58046 -35.74009L18.58046 -35.25727Q18.58046 -33.03888 19.44172 -31.57735Q19.84625 -30.88574 20.47262 -30.48121Q21.09898 -30.07668 21.7384 -30.07668L21.99939 -30.07668Q23.18688 -30.07668 24.05466 -31.23154Q24.92244 -32.38641 24.92244 -34.51346L24.92244 -35.43996Q24.92244 -37.5409 24.05466 -39.00896Q23.18688 -40.47701 21.85585 -40.47701L21.45132 -40.47701Q20.25078 -40.47701 19.41562 -39.18512Q18.58046 -37.89324 18.58046 -35.74009ZM28.06734 -35.6879L28.06734 -35.03543Q28.06734 -34.00453 27.64976 -32.77789Q26.77545 -30.22022 24.16558 -29.20237Q23.03029 -28.75869 21.97329 -28.75869L21.54266 -28.75869Q19.05024 -28.75869 17.37992 -30.42901Q16.62306 -31.18587 16.15328 -32.42556Q15.68351 -33.66525 15.68351 -35.06153L15.68351 -35.28337Q15.68351 -36.54915 16.12718 -37.84104Q16.98844 -40.35956 19.50696 -41.33826Q20.64226 -41.78194 21.68621 -41.78194L22.33867 -41.78194Q23.50006 -41.78194 24.62231 -41.25997Q26.74935 -40.26822 27.58451 -38.10203Q28.06734 -36.82319 28.06734 -35.6879Z" fill="rgb(255, 255, 255)" transform="matrix(1 0 0 1 185.785386 52.514754)"/><path d="M36.91479 -29.5286Q36.91479 -29.01968 34.55286 -29.01968L33.16963 -29.01968L32.62156 -29.04578L31.79945 -29.05883Q30.41622 -29.05883 30.41622 -29.5547Q30.41622 -29.90704 31.03606 -30.30504Q31.65591 -30.70305 31.87122 -31.33594Q32.08654 -31.96883 32.08654 -35.07458Q32.08654 -38.18032 31.88427 -38.84584Q31.68201 -39.51136 31.25138 -39.79844Q30.48147 -40.30737 30.48147 -40.54225Q30.48147 -40.77714 30.7555 -40.95983Q31.56456 -41.50791 33.49587 -41.50791L33.7438 -41.50791Q34.48762 -41.50791 34.8008 -40.75757Q35.11398 -40.00723 35.30973 -40.00723Q35.50547 -40.00723 35.98177 -40.37261Q36.45807 -40.73799 37.13011 -41.10338Q37.80215 -41.46876 38.62426 -41.46876Q39.44637 -41.46876 39.88352 -41.04465Q40.32067 -40.62055 40.32067 -39.95503Q40.30763 -39.27647 39.96834 -38.93718Q39.62906 -38.5979 39.23758 -38.5979Q38.8461 -38.5979 38.20668 -38.91761Q37.56726 -39.23732 37.13663 -39.23732Q36.70601 -39.23732 36.19708 -38.87846Q35.68816 -38.51961 35.3293 -37.59963Q34.97044 -36.67965 34.97044 -34.45473Q34.97044 -32.22982 35.28363 -31.58388Q35.59681 -30.93793 36.2558 -30.40291Q36.91479 -29.86789 36.91479 -29.5286Z" fill="rgb(255, 255, 255)" transform="matrix(1 0 0 1 185.785386 52.514754)"/><path d="M41.99099 -29.47641Q41.99099 -29.75044 42.58474 -30.18107Q43.17848 -30.6117 43.38727 -31.53168Q43.59606 -32.45166 43.59606 -38.51961Q43.59606 -44.58755 43.45904 -45.39661Q43.32203 -46.20567 42.787 -46.558Q41.92574 -47.11913 41.92574 -47.24962L41.92574 -47.40621Q41.92574 -47.62805 42.30418 -47.79769Q43.47862 -48.30662 45.43602 -48.30662L45.69701 -48.30662Q46.36252 -48.30662 46.46692 -47.40621Q46.47997 -47.28877 46.47997 -45.43576L46.47997 -42.63015L46.46692 -42.09513L46.46692 -41.27302L46.45387 -40.73799Q46.45387 -40.73799 46.45387 -36.60135Q46.45387 -32.73874 46.57784 -31.81877Q46.70181 -30.89879 47.15853 -30.48121Q47.21073 -30.44206 47.70661 -30.14192Q48.20248 -29.84179 48.20248 -29.5286Q48.20248 -29.07188 46.58436 -29.07188L46.04934 -29.04578L45.51432 -29.04578L43.37422 -29.00663L43.10019 -29.00663Q41.99099 -29.00663 41.99099 -29.47641Z" fill="rgb(255, 255, 255)" transform="matrix(1 0 0 1 185.785386 52.514754)"/><path d="M58.8899 -37.95848Q58.8899 -39.01548 58.21133 -39.64837Q57.53277 -40.28127 56.41052 -40.28127L56.16258 -40.28127Q55.57536 -40.28127 54.90985 -39.92894Q54.24433 -39.5766 53.8137 -38.91109Q52.95244 -37.58005 52.95244 -35.6096L52.95244 -34.83969Q52.95244 -32.88229 53.83328 -31.60345Q54.71411 -30.32461 55.97989 -30.32461L56.35832 -30.32461Q57.46752 -30.32461 58.17218 -31.08148Q58.87685 -31.83834 58.87685 -33.01278L58.90295 -33.28682L58.90295 -33.56085L58.92905 -34.23942Q58.92905 -34.86579 58.92905 -35.49216L58.9421 -35.90974L58.9421 -36.31427L58.92905 -36.45781L58.92905 -37.14942L58.916 -37.27992L58.916 -37.55395Q58.8899 -37.81494 58.8899 -37.95848ZM58.95514 -41.65145Q58.95514 -41.65145 59.01387 -41.79499Q59.07259 -41.93853 59.07259 -43.37396Q59.07259 -44.80939 58.85075 -45.48143Q58.62891 -46.15347 58.07431 -46.59063Q57.51972 -47.02778 57.51972 -47.24962Q57.51972 -47.47146 57.81985 -47.6411Q58.62891 -48.11088 60.45582 -48.11088L60.769 -48.11088Q61.68246 -48.11088 61.81295 -47.13218Q61.8521 -46.83204 61.8521 -39.67447Q61.8521 -32.51691 61.95649 -31.81877Q62.06089 -31.12062 62.45237 -30.72914Q62.53067 -30.65085 62.95477 -30.33114Q63.37887 -30.01143 63.37887 -29.77002Q63.37887 -29.5286 63.01349 -29.33286Q62.26968 -28.92833 60.58631 -28.92833Q59.99909 -28.92833 59.64676 -29.28067Q58.95514 -29.97228 58.89642 -29.97228Q58.8377 -29.97228 58.30268 -29.67215Q57.76765 -29.37201 57.01732 -29.06535Q56.26698 -28.75869 55.15778 -28.75869Q54.04859 -28.75869 53.10904 -29.24152Q51.37347 -30.12887 50.66881 -32.17762Q50.25123 -33.40426 50.25123 -34.86579Q50.25123 -37.81494 51.94112 -39.66795Q53.63101 -41.52096 56.60626 -41.52096L58.31573 -41.36436Q58.8377 -41.36436 58.95514 -41.65145Z" fill="rgb(255, 255, 255)" transform="matrix(1 0 0 1 185.785386 52.514754)"/><path d="" fill="rgb(255, 255, 255)" transform="matrix(1 0 0 1 185.785386 52.514754)"/><path d="M75.34513 -35.74009L75.34513 -35.25727Q75.34513 -33.03888 76.20638 -31.57735Q76.61091 -30.88574 77.23728 -30.48121Q77.86365 -30.07668 78.50307 -30.07668L78.76406 -30.07668Q79.95155 -30.07668 80.81933 -31.23154Q81.68711 -32.38641 81.68711 -34.51346L81.68711 -35.43996Q81.68711 -37.5409 80.81933 -39.00896Q79.95155 -40.47701 78.62051 -40.47701L78.21598 -40.47701Q77.01544 -40.47701 76.18028 -39.18512Q75.34513 -37.89324 75.34513 -35.74009ZM84.832 -35.6879L84.832 -35.03543Q84.832 -34.00453 84.41442 -32.77789Q83.54012 -30.22022 80.93025 -29.20237Q79.79495 -28.75869 78.73796 -28.75869L78.30733 -28.75869Q75.8149 -28.75869 74.14459 -30.42901Q73.38772 -31.18587 72.91795 -32.42556Q72.44817 -33.66525 72.44817 -35.06153L72.44817 -35.28337Q72.44817 -36.54915 72.89185 -37.84104Q73.75311 -40.35956 76.27163 -41.33826Q77.40692 -41.78194 78.45087 -41.78194L79.10334 -41.78194Q80.26473 -41.78194 81.38697 -41.25997Q83.51402 -40.26822 84.34918 -38.10203Q84.832 -36.82319 84.832 -35.6879Z" fill="rgb(255, 255, 255)" transform="matrix(1 0 0 1 185.785386 52.514754)"/><path d="M91.73511 -28.71954L91.01739 -28.71954Q87.19393 -28.71954 87.19393 -29.30677Q87.19393 -29.64605 87.83988 -30.05058Q88.48582 -30.45511 88.68809 -31.1663Q88.89035 -31.87749 88.89035 -35.19202Q88.89035 -38.50656 88.70113 -38.96328Q88.51192 -39.42001 88.00299 -39.76582Q87.49407 -40.11163 87.49407 -40.39219Q87.49407 -40.67275 88.07477 -41.39699Q88.65546 -42.12123 88.89035 -43.13907Q89.49062 -45.67065 90.54762 -46.81899Q91.8917 -48.29357 94.31888 -48.29357Q95.49332 -48.29357 96.19799 -47.88251Q96.90265 -47.47146 96.90265 -46.81899Q96.90265 -46.16652 96.55684 -45.85334Q96.21103 -45.54015 95.82608 -45.54015Q95.44112 -45.54015 94.57334 -46.00993Q93.70556 -46.47971 93.26188 -46.47971Q92.54417 -46.47971 92.15921 -45.58583Q91.77426 -44.69195 91.77426 -43.6219Q91.77426 -42.55185 92.21793 -42.05598Q92.37453 -41.88634 93.37933 -41.37089Q94.38413 -40.85544 94.38413 -40.46396Q94.38413 -40.16382 93.35323 -39.85716Q92.32233 -39.5505 92.07439 -39.18512Q91.65681 -38.5718 91.65681 -35.22464Q91.65681 -31.87749 91.89822 -31.19892Q92.13964 -30.52035 92.8443 -30.01143Q93.54897 -29.50251 93.54897 -29.22847Q93.54897 -28.71954 91.73511 -28.71954Z" fill="rgb(255, 255, 255)" transform="matrix(1 0 0 1 185.785386 52.514754)"/><path d="" fill="rgb(255, 255, 255)" transform="matrix(1 0 0 1 185.785386 52.514754)"/><path d="M109.26038 -30.74219L111.24388 -31.04233Q111.58317 -31.04233 111.58317 -30.51383Q111.58317 -29.98533 110.57837 -29.42421Q109.57357 -28.86309 108.46437 -28.86309L108.20339 -28.86309Q107.32908 -28.86309 106.62441 -29.31981Q105.91975 -29.77654 105.59352 -30.44206Q105.03239 -31.60345 105.03239 -34.84621Q105.03239 -38.08898 104.80403 -38.89804Q104.57567 -39.7071 104.21029 -40.00723Q103.53172 -40.5553 103.53172 -40.6075Q103.53172 -40.94678 103.88405 -41.18167Q104.78446 -41.78194 104.86928 -41.86676Q104.9541 -41.95158 105.86755 -44.00033Q106.32428 -45.01818 106.90498 -45.01818Q107.48567 -45.01818 107.68141 -44.6006Q107.73361 -44.49621 107.90978 -43.46531Q108.08594 -42.43441 108.41218 -42.1408Q108.73841 -41.84719 109.86065 -41.57968Q110.9829 -41.31217 110.9829 -40.81629Q110.9829 -40.32042 109.74321 -40.07248Q108.50352 -39.82454 108.24253 -39.43306Q107.78581 -38.76754 107.78581 -35.67485Q107.78581 -32.58215 108.07289 -31.77309Q108.43827 -30.74219 109.26038 -30.74219Z" fill="rgb(255, 255, 255)" transform="matrix(1 0 0 1 185.785386 52.514754)"/><path d="M113.68411 -29.73739Q113.68411 -29.97228 114.24523 -30.59213Q114.80636 -31.21197 114.94337 -31.83834Q115.08039 -32.46471 115.08039 -38.44131Q115.08039 -44.41791 114.80636 -45.6837Q114.67586 -46.29702 114.25828 -46.5841Q113.50142 -47.11913 113.50142 -47.15827Q113.50142 -47.6411 114.01035 -47.83684Q114.976 -48.21527 116.26788 -48.21527L116.69851 -48.21527Q117.29878 -48.21527 117.55324 -47.73245Q117.80771 -47.24962 117.80771 -45.6054L117.79466 -45.12258Q117.78161 -44.63975 117.78161 -44.15692L117.75551 -43.19127Q117.75551 -42.70845 117.75551 -42.22562Q117.75551 -40.51616 118.35578 -40.51616Q118.42103 -40.52921 119.0213 -40.79019Q120.83515 -41.59925 122.06179 -41.59925Q124.35848 -41.59925 125.28498 -39.75929Q125.8983 -38.50656 125.8983 -33.6Q125.8983 -31.70785 126.03532 -31.24459Q126.17234 -30.78134 126.77913 -30.28547Q127.38593 -29.78959 127.38593 -29.6591Q127.38593 -29.25457 126.85743 -29.11103Q126.32893 -28.96748 124.16274 -28.96748L123.70601 -28.96748Q122.28363 -28.96748 122.28363 -29.54165Q122.28363 -29.67215 122.62292 -30.20065Q122.9622 -30.72914 123.06659 -31.39466Q123.17099 -32.06018 123.17099 -34.87884Q123.17099 -37.6975 122.91 -38.42826Q122.0096 -39.6027 120.91345 -39.86369Q119.41278 -39.86369 118.51237 -38.79364Q117.84685 -38.01068 117.84685 -35.22464Q117.84685 -32.43861 117.97735 -31.67522Q118.10784 -30.91184 118.54499 -30.29199Q118.98215 -29.67215 118.98215 -29.5286Q118.98215 -29.05883 116.33313 -29.05883Q113.68411 -29.05883 113.68411 -29.73739Z" fill="rgb(255, 255, 255)" transform="matrix(1 0 0 1 185.785386 52.514754)"/><path d="M137.81236 -37.50176L137.81236 -37.90629Q137.81236 -38.87194 137.12074 -39.64837Q136.42913 -40.42481 135.42433 -40.42481L135.17639 -40.42481Q134.9937 -40.39871 134.92845 -40.39871Q134.015 -40.39871 133.19941 -39.35476Q132.38383 -38.31082 132.38383 -37.12333L132.38383 -36.95368Q132.38383 -36.5361 132.8797 -36.5361Q133.07544 -36.49696 133.08849 -36.49696L133.38863 -36.48391L133.46692 -36.48391L133.55827 -36.49696L136.07679 -36.6405L136.54657 -36.6927Q137.81236 -36.6927 137.81236 -37.50176ZM132.38383 -34.04368Q132.38383 -32.55605 133.50607 -31.55125Q134.62832 -30.54645 136.35083 -30.54645Q137.04245 -30.54645 137.61009 -30.74872Q138.17774 -30.95098 138.84978 -31.23807Q139.52182 -31.52515 139.69146 -31.52515Q140.21344 -31.52515 140.21344 -30.96403Q140.21344 -30.20717 138.28213 -29.34591Q137.0294 -28.78479 135.59397 -28.78479L135.30688 -28.78479Q132.8536 -28.78479 131.23549 -30.27242Q130.36118 -31.08148 129.87835 -32.34074Q129.39553 -33.6 129.39553 -35.04848L129.40858 -35.34861L129.40858 -35.64875Q129.40858 -36.90149 129.98275 -38.11508Q130.56997 -39.32867 131.37903 -40.11163Q133.08849 -41.75584 135.43738 -41.76889Q138.9868 -41.76889 140.16124 -39.00243Q140.52662 -38.12813 140.52662 -37.39736L140.52662 -37.13637Q140.52662 -36.23597 139.78281 -35.92931Q139.039 -35.62265 136.27253 -35.42691Q133.50607 -35.23117 133.27118 -35.16592Q132.38383 -34.94408 132.38383 -34.04368Z" fill="rgb(255, 255, 255)" transform="matrix(1 0 0 1 185.785386 52.514754)"/><path d="M-178.11237 7.88649Q-178.11237 8.39541 -180.4743 8.39541L-181.85753 8.39541L-182.4056 8.36931L-183.22771 8.35626Q-184.61094 8.35626 -184.61094 7.86039Q-184.61094 7.50806 -183.9911 7.11005Q-183.37126 6.71205 -183.15594 6.07915Q-182.94063 5.44626 -182.94063 2.34051Q-182.94063 -0.76523 -183.14289 -1.43075Q-183.34516 -2.09626 -183.77579 -2.38335Q-184.5457 -2.89227 -184.5457 -3.12716Q-184.5457 -3.36205 -184.27166 -3.54474Q-183.4626 -4.09281 -181.5313 -4.09281L-181.28336 -4.09281Q-180.53955 -4.09281 -180.22636 -3.34248Q-179.91318 -2.59214 -179.71744 -2.59214Q-179.5217 -2.59214 -179.0454 -2.95752Q-178.5691 -3.3229 -177.89705 -3.68828Q-177.22501 -4.05367 -176.4029 -4.05367Q-175.5808 -4.05367 -175.14364 -3.62956Q-174.70649 -3.20546 -174.70649 -2.53994Q-174.71954 -1.86138 -175.05882 -1.52209Q-175.3981 -1.18281 -175.78959 -1.18281Q-176.18107 -1.18281 -176.82048 -1.50252Q-177.4599 -1.82223 -177.89053 -1.82223Q-178.32116 -1.82223 -178.83008 -1.46337Q-179.33901 -1.10451 -179.69786 -0.18453Q-180.05672 0.73544 -180.05672 2.96036Q-180.05672 5.18527 -179.74354 5.83122Q-179.43035 6.47716 -178.77136 7.01218Q-178.11237 7.5472 -178.11237 7.88649Z" fill="rgb(255, 255, 255)" transform="matrix(1 0 0 1 185.785386 52.514754)"/><path d="M-168.16877 -8.35995Q-168.16877 -7.78578 -168.65812 -7.29643Q-169.14747 -6.80708 -169.63029 -6.80708Q-169.73469 -6.78098 -169.79993 -6.78098L-170.08702 -6.75488Q-170.73949 -6.75488 -171.25494 -7.18551Q-171.77039 -7.61614 -171.77039 -8.2947L-171.77039 -8.52959Q-171.77039 -9.20816 -171.22884 -9.67141Q-170.68729 -10.13466 -169.98263 -10.13466L-169.91738 -10.13466L-169.4737 -10.08247Q-169.06917 -10.08247 -168.63202 -9.64531Q-168.19486 -9.20816 -168.19486 -8.76448L-168.16877 -8.64704ZM-172.31846 -2.53994Q-172.31846 -2.53994 -172.65774 -2.70306Q-172.99702 -2.86618 -172.99702 -3.15326Q-172.99702 -3.44035 -172.72299 -3.60999Q-171.77039 -4.18416 -169.70859 -4.18416L-169.33016 -4.18416Q-168.62549 -4.18416 -168.53415 -3.53169Q-168.48195 -3.17936 -168.48195 1.21175Q-168.48195 5.60285 -168.29926 6.24879Q-168.11657 6.89474 -167.42495 7.24054Q-166.73334 7.58635 -166.73334 7.93868Q-166.73334 8.43456 -169.96958 8.43456L-170.36106 8.44761L-171.95308 8.44761Q-172.90568 8.44761 -172.90568 7.97783Q-172.90568 7.58635 -172.32498 7.22097Q-171.74429 6.85559 -171.52245 6.41191Q-171.27451 5.92909 -171.27451 4.15437L-171.26146 3.73679L-171.26146 3.33226L-171.24841 2.71895L-171.24841 2.31442L-171.23536 1.90989Q-171.23536 -1.18281 -171.43763 -1.69826Q-171.63989 -2.21371 -172.31846 -2.53994Z" fill="rgb(255, 255, 255)" transform="matrix(1 0 0 1 185.785386 52.514754)"/><path d="M-155.05417 -0.55644Q-155.60224 -0.55644 -156.57442 -1.69173Q-157.5466 -2.82703 -158.81891 -2.82703Q-160.09122 -2.82703 -160.95248 -1.56777Q-161.81373 -0.3085 -161.81373 2.00123Q-161.81373 4.31097 -160.75021 5.60938Q-159.68669 6.90779 -157.97722 6.90779Q-157.03767 6.90779 -156.40478 6.6729Q-155.77188 6.43801 -155.23034 6.1705Q-154.68879 5.90299 -154.46695 5.90299Q-154.08852 5.90299 -154.08852 6.39886Q-154.08852 7.15572 -155.61529 7.89954Q-157.14207 8.64335 -158.57749 8.64335Q-161.37006 8.64335 -163.06647 6.89474Q-163.75809 6.17702 -164.22786 5.04825Q-164.69764 3.91949 -164.69764 2.6276L-164.69764 1.98818Q-164.69764 1.96208 -164.69764 1.92294Q-164.69764 1.89684 -164.69764 1.87074Q-164.69764 0.73544 -164.18871 -0.47814Q-163.18391 -2.85313 -160.95248 -3.76658Q-159.66059 -4.28855 -158.38175 -4.28855L-158.08162 -4.28855Q-156.31996 -4.28855 -155.09332 -3.67524Q-154.10157 -3.17936 -154.10157 -2.01797Q-154.10157 -1.24806 -154.40823 -0.90225Q-154.71489 -0.55644 -155.05417 -0.55644Z" fill="rgb(255, 255, 255)" transform="matrix(1 0 0 1 185.785386 52.514754)"/><path d="M-151.66134 7.6777Q-151.66134 7.44281 -151.10022 6.82297Q-150.5391 6.20312 -150.40208 5.57675Q-150.26506 4.95038 -150.26506 -1.02622Q-150.26506 -7.00282 -150.5391 -8.26861Q-150.66959 -8.88193 -151.08717 -9.16901Q-151.84403 -9.70403 -151.84403 -9.74318Q-151.84403 -10.22601 -151.33511 -10.42175Q-150.36945 -10.80018 -149.07757 -10.80018L-148.64694 -10.80018Q-148.04667 -10.80018 -147.79221 -10.31735Q-147.53775 -9.83453 -147.53775 -8.19031L-147.55079 -7.70748Q-147.56384 -7.22466 -147.56384 -6.74183L-147.58994 -5.77618Q-147.58994 -5.29335 -147.58994 -4.81053Q-147.58994 -3.10106 -146.98967 -3.10106Q-146.92443 -3.11411 -146.32416 -3.3751Q-144.5103 -4.18416 -143.28366 -4.18416Q-140.98697 -4.18416 -140.06047 -2.3442Q-139.44715 -1.09146 -139.44715 3.81509Q-139.44715 5.70725 -139.31013 6.1705Q-139.17311 6.63375 -138.56632 7.12963Q-137.95952 7.6255 -137.95952 7.75599Q-137.95952 8.16052 -138.48802 8.30407Q-139.01652 8.44761 -141.18271 8.44761L-141.63944 8.44761Q-143.06182 8.44761 -143.06182 7.87344Q-143.06182 7.74294 -142.72254 7.21445Q-142.38325 6.68595 -142.27886 6.02043Q-142.17446 5.35491 -142.17446 2.53625Q-142.17446 -0.2824 -142.43545 -1.01317Q-143.33586 -2.18761 -144.432 -2.4486Q-145.93268 -2.4486 -146.83308 -1.37855Q-147.4986 -0.59559 -147.4986 2.19045Q-147.4986 4.97648 -147.3681 5.73987Q-147.23761 6.50326 -146.80046 7.1231Q-146.3633 7.74294 -146.3633 7.88649Q-146.3633 8.35626 -149.01232 8.35626Q-151.66134 8.35626 -151.66134 7.6777Z" fill="rgb(255, 255, 255)" transform="matrix(1 0 0 1 185.785386 52.514754)"/><path d="" fill="rgb(255, 255, 255)" transform="matrix(1 0 0 1 185.785386 52.514754)"/><path d="M-122.14371 2.35356L-122.36555 2.35356Q-124.07502 2.35356 -125.21684 3.11695Q-126.35865 3.88034 -126.35865 5.01563L-126.35865 5.27662Q-126.35865 5.94213 -125.9476 6.47063Q-125.53654 6.99913 -124.88408 6.99913L-124.72748 7.02523L-124.336 7.02523Q-122.97887 7.02523 -122.11761 5.91604Q-121.73918 5.43321 -121.73918 3.93253Q-121.73918 3.81509 -121.73918 3.69765L-121.72613 3.38446L-121.72613 3.07128Q-121.72613 2.35356 -122.14371 2.35356ZM-128.4857 -1.86138Q-128.4857 -2.82703 -126.9524 -3.59041Q-125.4191 -4.3538 -123.77488 -4.3538Q-123.72268 -4.3538 -123.67049 -4.3538Q-122.10457 -4.3538 -121.16501 -3.97537Q-119.25981 -3.21851 -118.98577 -0.76523Q-118.95967 -0.51729 -118.95967 2.51668Q-118.95967 5.55065 -118.79656 6.07263Q-118.63344 6.5946 -117.9092 6.84254Q-117.18496 7.09048 -117.18496 7.31232Q-117.18496 7.78209 -117.65474 8.03003Q-118.59429 8.52591 -119.50122 8.52591Q-120.40815 8.52591 -120.85183 8.10833Q-121.64784 7.36451 -121.70004 7.36451Q-121.75223 7.36451 -123.17461 8.02351Q-124.59699 8.6825 -125.66704 8.6825Q-127.27211 8.6825 -128.18556 7.79514Q-129.09902 6.90779 -129.09902 5.642L-129.09902 5.31577Q-129.09902 3.95863 -127.92457 2.92774Q-126.75013 1.89684 -123.69659 1.32267Q-122.58739 1.11388 -122.30031 0.93118Q-121.72613 0.5658 -121.72613 -0.55644Q-121.72613 -1.67868 -122.3264 -2.27895Q-122.92667 -2.87922 -123.93147 -2.87922Q-124.93627 -2.87922 -125.8693 -1.71131Q-126.80233 -0.54339 -127.57224 -0.54339Q-128.4857 -0.54339 -128.4857 -1.86138Z" fill="rgb(255, 255, 255)" transform="matrix(1 0 0 1 185.785386 52.514754)"/><path d="M-113.28321 8.29102Q-115.12316 8.29102 -115.12316 7.76904Q-115.12316 7.33841 -114.64034 7.06438Q-113.76603 6.5685 -113.62249 6.1705Q-113.47895 5.77249 -113.47895 2.39924Q-113.47895 -0.97402 -113.68121 -1.55472Q-113.88348 -2.13541 -114.4185 -2.51384Q-114.95352 -2.89227 -114.95352 -3.12716Q-114.95352 -3.36205 -114.60119 -3.57084Q-113.77908 -4.05367 -111.99132 -4.05367Q-111.4563 -4.05367 -111.15616 -3.68828Q-111.05177 -3.55779 -110.86255 -3.12064Q-110.67334 -2.68348 -110.60809 -2.68348Q-110.36015 -2.69653 -109.83818 -3.03582Q-108.03737 -4.24941 -106.57584 -4.24941L-106.54974 -4.24941L-106.13216 -4.24941Q-105.07517 -4.24941 -104.22696 -3.72743Q-103.37875 -3.20546 -102.9155 -2.16151Q-102.45225 -1.11756 -102.45225 2.38619Q-102.45225 5.88994 -102.30218 6.30099Q-102.15211 6.71205 -101.45397 7.06438Q-100.75583 7.41671 -100.75583 7.75599Q-100.75583 8.34321 -104.46185 8.34321L-104.85333 8.34321Q-106.02777 8.34321 -106.02777 7.78209Q-106.02777 7.66465 -105.74068 7.21445Q-105.4536 6.76424 -105.3492 6.21617Q-105.24481 5.6681 -105.24481 2.60803Q-105.24481 -0.45205 -105.62324 -1.32635Q-106.14521 -2.52689 -107.3588 -2.52689Q-108.24616 -2.52689 -109.07479 -2.11584Q-109.90342 -1.70478 -110.27533 -0.95445Q-110.64724 -0.20411 -110.64724 2.63412Q-110.64724 5.47236 -110.49065 6.0661Q-110.33405 6.65985 -110.11221 7.02523L-109.62939 7.80819Q-109.62939 8.31712 -111.67814 8.31712L-112.47415 8.29102Z" fill="rgb(255, 255, 255)" transform="matrix(1 0 0 1 185.785386 52.514754)"/><path d="M-90.21196 -0.54339Q-90.21196 -1.60039 -90.89052 -2.23328Q-91.56909 -2.86618 -92.69133 -2.86618L-92.93927 -2.86618Q-93.52649 -2.86618 -94.19201 -2.51384Q-94.85753 -2.16151 -95.28815 -1.49599Q-96.14941 -0.16496 -96.14941 1.80549L-96.14941 2.5754Q-96.14941 4.5328 -95.26858 5.81164Q-94.38775 7.09048 -93.12196 7.09048L-92.74353 7.09048Q-91.63434 7.09048 -90.92967 6.33362Q-90.22501 5.57675 -90.22501 4.40231L-90.19891 4.12828L-90.19891 3.85424L-90.17281 3.17567Q-90.17281 2.5493 -90.17281 1.92294L-90.15976 1.50536L-90.15976 1.10083L-90.17281 0.95728L-90.17281 0.26567L-90.18586 0.13517L-90.18586 -0.13886Q-90.21196 -0.39985 -90.21196 -0.54339ZM-90.14671 -4.23636Q-90.14671 -4.23636 -90.08799 -4.3799Q-90.02927 -4.52344 -90.02927 -5.95887Q-90.02927 -7.3943 -90.25111 -8.06634Q-90.47294 -8.73838 -91.02754 -9.17554Q-91.58214 -9.61269 -91.58214 -9.83453Q-91.58214 -10.05637 -91.282 -10.22601Q-90.47294 -10.69578 -88.64604 -10.69578L-88.33285 -10.69578Q-87.4194 -10.69578 -87.2889 -9.71708Q-87.24976 -9.41695 -87.24976 -2.25938Q-87.24976 4.89819 -87.14536 5.59633Q-87.04097 6.29447 -86.64949 6.68595Q-86.57119 6.76424 -86.14709 7.08395Q-85.72298 7.40366 -85.72298 7.64507Q-85.72298 7.88649 -86.08836 8.08223Q-86.83218 8.48676 -88.51554 8.48676Q-89.10276 8.48676 -89.4551 8.13443Q-90.14671 7.44281 -90.20543 7.44281Q-90.26416 7.44281 -90.79918 7.74294Q-91.3342 8.04308 -92.08454 8.34974Q-92.83488 8.6564 -93.94407 8.6564Q-95.05327 8.6564 -95.99282 8.17357Q-97.72838 7.28622 -98.43305 5.23747Q-98.85063 4.01083 -98.85063 2.5493Q-98.85063 -0.39985 -97.16074 -2.25286Q-95.47085 -4.10586 -92.49559 -4.10586L-90.78613 -3.94927Q-90.26416 -3.94927 -90.14671 -4.23636Z" fill="rgb(255, 255, 255)" transform="matrix(1 0 0 1 185.785386 52.514754)"/><path d="" fill="rgb(255, 255, 255)" transform="matrix(1 0 0 1 185.785386 52.514754)"/><path d="M-67.03631 -0.55644Q-67.58439 -0.55644 -68.55656 -1.69173Q-69.52874 -2.82703 -70.80105 -2.82703Q-72.07336 -2.82703 -72.93462 -1.56777Q-73.79588 -0.3085 -73.79588 2.00123Q-73.79588 4.31097 -72.73236 5.60938Q-71.66883 6.90779 -69.95937 6.90779Q-69.01982 6.90779 -68.38692 6.6729Q-67.75403 6.43801 -67.21248 6.1705Q-66.67093 5.90299 -66.44909 5.90299Q-66.07066 5.90299 -66.07066 6.39886Q-66.07066 7.15572 -67.59744 7.89954Q-69.12421 8.64335 -70.55964 8.64335Q-73.3522 8.64335 -75.04861 6.89474Q-75.74023 6.17702 -76.21001 5.04825Q-76.67978 3.91949 -76.67978 2.6276L-76.67978 1.98818Q-76.67978 1.96208 -76.67978 1.92294Q-76.67978 1.89684 -76.67978 1.87074Q-76.67978 0.73544 -76.17086 -0.47814Q-75.16606 -2.85313 -72.93462 -3.76658Q-71.64273 -4.28855 -70.3639 -4.28855L-70.06376 -4.28855Q-68.3021 -4.28855 -67.07546 -3.67524Q-66.08371 -3.17936 -66.08371 -2.01797Q-66.08371 -1.24806 -66.39037 -0.90225Q-66.69703 -0.55644 -67.03631 -0.55644Z" fill="rgb(255, 255, 255)" transform="matrix(1 0 0 1 185.785386 52.514754)"/><path d="M-50.67243 6.96651Q-50.67243 6.96651 -50.38535 7.19161Q-50.09826 7.41671 -50.09826 7.60593Q-50.09826 7.79514 -50.294 7.96478Q-50.85512 8.47371 -52.69508 8.47371Q-53.29535 8.47371 -53.62811 8.27144Q-53.96087 8.06918 -54.21533 7.53416Q-54.46979 6.99913 -54.63943 6.99913Q-54.80908 7.01218 -55.3963 7.42976Q-57.04051 8.61725 -58.54119 8.61725Q-58.55424 8.61725 -58.58034 8.61725L-58.97182 8.61725Q-61.12496 8.61725 -62.09061 6.79034Q-62.58649 5.83774 -62.59301 2.1252Q-62.59954 -1.58734 -62.71698 -1.95925Q-62.83442 -2.33115 -63.54561 -2.66391Q-64.2568 -2.99667 -64.2568 -3.17936Q-64.2568 -3.66219 -63.80008 -3.80573Q-62.78223 -4.13196 -61.20326 -4.13196Q-60.2898 -4.13196 -60.04186 -3.38815Q-59.71563 -2.43555 -59.71563 1.15955Q-59.71563 4.75464 -59.40245 5.52456Q-58.86742 6.84254 -57.45809 6.84254Q-56.72733 6.84254 -56.00309 6.46411Q-55.27885 6.08568 -54.87432 5.44626Q-54.46979 4.80684 -54.46979 1.92946Q-54.46979 -0.94792 -54.65901 -1.69173Q-54.84822 -2.43555 -55.2397 -2.85965Q-55.63118 -3.28375 -55.63118 -3.53169Q-55.63118 -4.10586 -52.56459 -4.10586Q-51.92517 -4.10586 -51.72943 -3.8253Q-51.53369 -3.54474 -51.53369 -2.80093L-51.57284 -2.03102L-51.63808 1.44011Q-51.63808 4.83294 -51.44234 5.67462Q-51.2466 6.51631 -50.67243 6.96651Z" fill="rgb(255, 255, 255)" transform="matrix(1 0 0 1 185.785386 52.514754)"/><path d="M-42.36 6.6729L-40.3765 6.37276Q-40.03721 6.37276 -40.03721 6.90126Q-40.03721 7.42976 -41.04201 7.99088Q-42.04681 8.552 -43.15601 8.552L-43.41699 8.552Q-44.2913 8.552 -44.99597 8.09528Q-45.70063 7.63855 -46.02686 6.97303Q-46.58799 5.81164 -46.58799 2.56888Q-46.58799 -0.67389 -46.81635 -1.48294Q-47.04471 -2.292 -47.41009 -2.59214Q-48.08866 -3.14021 -48.08866 -3.19241Q-48.08866 -3.53169 -47.73633 -3.76658Q-46.83592 -4.36685 -46.7511 -4.45167Q-46.66628 -4.53649 -45.75283 -6.58524Q-45.2961 -7.60309 -44.7154 -7.60309Q-44.13471 -7.60309 -43.93897 -7.18551Q-43.88677 -7.08112 -43.7106 -6.05022Q-43.53444 -5.01932 -43.2082 -4.72571Q-42.88197 -4.4321 -41.75973 -4.16459Q-40.63748 -3.89707 -40.63748 -3.4012Q-40.63748 -2.90532 -41.87717 -2.65739Q-43.11686 -2.40945 -43.37785 -2.01797Q-43.83457 -1.35245 -43.83457 1.74024Q-43.83457 4.83294 -43.54749 5.642Q-43.18211 6.6729 -42.36 6.6729Z" fill="rgb(255, 255, 255)" transform="matrix(1 0 0 1 185.785386 52.514754)"/><path d="M-29.92397 -0.08666L-29.92397 -0.49119Q-29.92397 -1.45685 -30.61558 -2.23328Q-31.3072 -3.00972 -32.312 -3.00972L-32.55994 -3.00972Q-32.74263 -2.98362 -32.80787 -2.98362Q-33.72133 -2.98362 -34.53691 -1.93967Q-35.3525 -0.89572 -35.3525 0.29177L-35.3525 0.46141Q-35.3525 0.87899 -34.85662 0.87899Q-34.66088 0.91814 -34.64783 0.91814L-34.3477 0.93118L-34.2694 0.93118L-34.17806 0.91814L-31.65953 0.77459L-31.18975 0.7224Q-29.92397 0.7224 -29.92397 -0.08666ZM-35.3525 3.37141Q-35.3525 4.85904 -34.23025 5.86384Q-33.10801 6.86864 -31.38549 6.86864Q-30.69388 6.86864 -30.12623 6.66637Q-29.55859 6.46411 -28.88654 6.17702Q-28.2145 5.88994 -28.04486 5.88994Q-27.52289 5.88994 -27.52289 6.45106Q-27.52289 7.20792 -29.45419 8.06918Q-30.70693 8.6303 -32.14236 8.6303L-32.42944 8.6303Q-34.88272 8.6303 -36.50084 7.14267Q-37.37515 6.33362 -37.85797 5.07435Q-38.3408 3.81509 -38.3408 2.36661L-38.32775 2.06648L-38.32775 1.76634Q-38.32775 0.51361 -37.75358 -0.69998Q-37.16636 -1.91357 -36.3573 -2.69653Q-34.64783 -4.34075 -32.29895 -4.3538Q-28.74953 -4.3538 -27.57509 -1.58734Q-27.2097 -0.71303 -27.2097 0.01773L-27.2097 0.27872Q-27.2097 1.17912 -27.95352 1.48578Q-28.69733 1.79244 -31.46379 1.98818Q-34.23025 2.18392 -34.46514 2.24917Q-35.3525 2.47101 -35.3525 3.37141Z" fill="rgb(255, 255, 255)" transform="matrix(1 0 0 1 185.785386 52.514754)"/><path d="M-20.58063 7.20792L-20.58063 7.63855Q-20.58063 9.07398 -21.54629 10.47026Q-22.86427 12.37546 -23.88212 12.37546L-23.96042 12.37546Q-24.41714 12.37546 -24.41714 11.94483L-24.41714 11.86654L-23.46454 10.62685Q-22.91647 9.90914 -22.91647 9.12618Q-22.91647 8.90434 -23.63418 8.18662Q-24.3519 7.46891 -24.3519 6.79034Q-24.3519 6.11178 -23.90169 5.6159Q-23.45149 5.12003 -22.73378 5.12003L-22.40754 5.12003Q-21.58543 5.12003 -21.08303 5.67462Q-20.58063 6.22922 -20.58063 7.20792Z" fill="rgb(255, 255, 255)" transform="matrix(1 0 0 1 185.785386 52.514754)"/><path d="" fill="rgb(255, 255, 255)" transform="matrix(1 0 0 1 185.785386 52.514754)"/><path d="M-11.2634 7.93868Q-11.2634 7.66465 -10.66965 7.23402Q-10.07591 6.80339 -9.86712 5.88341Q-9.65833 4.96343 -9.65833 -1.10451Q-9.65833 -7.17246 -9.79535 -7.98152Q-9.93237 -8.79058 -10.46739 -9.14291Q-11.32865 -9.70403 -11.32865 -9.83453L-11.32865 -9.99112Q-11.32865 -10.21296 -10.95022 -10.3826Q-9.77577 -10.89152 -7.81837 -10.89152L-7.55738 -10.89152Q-6.89187 -10.89152 -6.78747 -9.99112Q-6.77442 -9.87368 -6.77442 -8.02067L-6.77442 -5.21506L-6.78747 -4.68004L-6.78747 -3.85793L-6.80052 -3.3229Q-6.80052 -3.3229 -6.80052 0.81374Q-6.80052 4.67635 -6.67655 5.59633Q-6.55258 6.51631 -6.09586 6.93389Q-6.04366 6.97303 -5.54778 7.27317Q-5.05191 7.5733 -5.05191 7.88649Q-5.05191 8.34321 -6.67003 8.34321L-7.20505 8.36931L-7.74008 8.36931L-9.88017 8.40846L-10.1542 8.40846Q-11.2634 8.40846 -11.2634 7.93868Z" fill="rgb(255, 255, 255)" transform="matrix(1 0 0 1 185.785386 52.514754)"/><path d="M10.08533 6.96651Q10.08533 6.96651 10.37242 7.19161Q10.65951 7.41671 10.65951 7.60593Q10.65951 7.79514 10.46377 7.96478Q9.90264 8.47371 8.06269 8.47371Q7.46242 8.47371 7.12966 8.27144Q6.7969 8.06918 6.54244 7.53416Q6.28797 6.99913 6.11833 6.99913Q5.94869 7.01218 5.36147 7.42976Q3.71725 8.61725 2.21658 8.61725Q2.20353 8.61725 2.17743 8.61725L1.78595 8.61725Q-0.36719 8.61725 -1.33285 6.79034Q-1.82872 5.83774 -1.83525 2.1252Q-1.84177 -1.58734 -1.95921 -1.95925Q-2.07666 -2.33115 -2.78785 -2.66391Q-3.49904 -2.99667 -3.49904 -3.17936Q-3.49904 -3.66219 -3.04231 -3.80573Q-2.02446 -4.13196 -0.44549 -4.13196Q0.46796 -4.13196 0.7159 -3.38815Q1.04214 -2.43555 1.04214 1.15955Q1.04214 4.75464 1.35532 5.52456Q1.89034 6.84254 3.29967 6.84254Q4.03044 6.84254 4.75468 6.46411Q5.47891 6.08568 5.88344 5.44626Q6.28797 4.80684 6.28797 1.92946Q6.28797 -0.94792 6.09876 -1.69173Q5.90954 -2.43555 5.51806 -2.85965Q5.12658 -3.28375 5.12658 -3.53169Q5.12658 -4.10586 8.19318 -4.10586Q8.8326 -4.10586 9.02834 -3.8253Q9.22408 -3.54474 9.22408 -2.80093L9.18493 -2.03102L9.11968 1.44011Q9.11968 4.83294 9.31542 5.67462Q9.51116 6.51631 10.08533 6.96651Z" fill="rgb(255, 255, 255)" transform="matrix(1 0 0 1 185.785386 52.514754)"/><path d="M20.44652 7.23402Q20.44652 6.49021 19.18073 4.72855Q18.60656 3.93253 18.47607 3.93253Q18.11068 3.93253 17.51041 4.70245Q16.33597 6.19007 16.33597 6.85559Q16.33597 7.11658 16.53171 7.52763Q16.72745 7.93868 16.72745 7.99088Q16.72745 8.43456 14.97884 8.43456L14.57431 8.42151L14.16978 8.42151Q12.26458 8.42151 12.26458 7.93868Q12.26458 7.56025 13.16498 7.0448Q14.06539 6.52936 14.87445 5.5637Q17.18418 2.79724 17.18418 2.30137Q17.18418 1.6228 14.7309 -1.3916Q14.22198 -2.01797 13.36725 -2.63129Q12.51251 -3.24461 12.51251 -3.47949Q12.51251 -4.07977 16.29682 -4.07977L16.6883 -4.07977Q17.7975 -4.07977 17.7975 -3.54474Q17.60176 -2.95752 17.60176 -2.87922Q17.60176 -2.14846 18.41734 -1.01317Q19.23293 0.12213 19.36342 0.12213Q19.71575 0.12213 20.55091 -0.9153Q21.38607 -1.95272 21.38607 -2.3442Q21.38607 -2.73568 21.19685 -3.10106Q21.00764 -3.46645 21.00764 -3.62304Q21.00764 -4.04062 23.15426 -4.04062Q25.30087 -4.04062 25.30087 -3.46645Q25.30087 -3.08801 24.40699 -2.63129Q23.51311 -2.17456 22.89979 -1.4699Q20.64226 1.11388 20.64226 1.77939Q20.64226 2.6537 23.60446 6.05958Q24.11338 6.6468 24.84415 7.0448Q25.57491 7.44281 25.57491 7.86039Q25.57491 8.35626 22.92589 8.35626L22.10378 8.38236L21.28168 8.38236Q20.21163 8.38236 20.21163 7.86039Q20.44652 7.35146 20.44652 7.23402Z" fill="rgb(255, 255, 255)" transform="matrix(1 0 0 1 185.785386 52.514754)"/><path d="M40.46422 6.96651Q40.46422 6.96651 40.7513 7.19161Q41.03839 7.41671 41.03839 7.60593Q41.03839 7.79514 40.84265 7.96478Q40.28153 8.47371 38.44157 8.47371Q37.8413 8.47371 37.50854 8.27144Q37.17578 8.06918 36.92132 7.53416Q36.66686 6.99913 36.49722 6.99913Q36.32757 7.01218 35.74035 7.42976Q34.09614 8.61725 32.59546 8.61725Q32.58241 8.61725 32.55631 8.61725L32.16483 8.61725Q30.01169 8.61725 29.04604 6.79034Q28.55016 5.83774 28.54364 2.1252Q28.53711 -1.58734 28.41967 -1.95925Q28.30222 -2.33115 27.59104 -2.66391Q26.87985 -2.99667 26.87985 -3.17936Q26.87985 -3.66219 27.33657 -3.80573Q28.35442 -4.13196 29.93339 -4.13196Q30.84685 -4.13196 31.09479 -3.38815Q31.42102 -2.43555 31.42102 1.15955Q31.42102 4.75464 31.7342 5.52456Q32.26923 6.84254 33.67856 6.84254Q34.40932 6.84254 35.13356 6.46411Q35.8578 6.08568 36.26233 5.44626Q36.66686 4.80684 36.66686 1.92946Q36.66686 -0.94792 36.47764 -1.69173Q36.28843 -2.43555 35.89695 -2.85965Q35.50547 -3.28375 35.50547 -3.53169Q35.50547 -4.10586 38.57206 -4.10586Q39.21148 -4.10586 39.40722 -3.8253Q39.60296 -3.54474 39.60296 -2.80093L39.56381 -2.03102L39.49857 1.44011Q39.49857 4.83294 39.69431 5.67462Q39.89005 6.51631 40.46422 6.96651Z" fill="rgb(255, 255, 255)" transform="matrix(1 0 0 1 185.785386 52.514754)"/><path d="M49.69011 7.88649Q49.69011 8.39541 47.32818 8.39541L45.94494 8.39541L45.39687 8.36931L44.57476 8.35626Q43.19153 8.35626 43.19153 7.86039Q43.19153 7.50806 43.81138 7.11005Q44.43122 6.71205 44.64653 6.07915Q44.86185 5.44626 44.86185 2.34051Q44.86185 -0.76523 44.65958 -1.43075Q44.45732 -2.09626 44.02669 -2.38335Q43.25678 -2.89227 43.25678 -3.12716Q43.25678 -3.36205 43.53081 -3.54474Q44.33987 -4.09281 46.27118 -4.09281L46.51912 -4.09281Q47.26293 -4.09281 47.57611 -3.34248Q47.8893 -2.59214 48.08504 -2.59214Q48.28078 -2.59214 48.75708 -2.95752Q49.23338 -3.3229 49.90542 -3.68828Q50.57746 -4.05367 51.39957 -4.05367Q52.22168 -4.05367 52.65883 -3.62956Q53.09599 -3.20546 53.09599 -2.53994Q53.08294 -1.86138 52.74365 -1.52209Q52.40437 -1.18281 52.01289 -1.18281Q51.62141 -1.18281 50.98199 -1.50252Q50.34257 -1.82223 49.91195 -1.82223Q49.48132 -1.82223 48.97239 -1.46337Q48.46347 -1.10451 48.10461 -0.18453Q47.74575 0.73544 47.74575 2.96036Q47.74575 5.18527 48.05894 5.83122Q48.37212 6.47716 49.03112 7.01218Q49.69011 7.5472 49.69011 7.88649Z" fill="rgb(255, 255, 255)" transform="matrix(1 0 0 1 185.785386 52.514754)"/><path d="M59.00734 -2.40945Q59.00734 -1.01317 61.17353 4.21962Q61.47367 4.95038 61.65636 4.95038Q61.83905 4.95038 62.33493 3.89339Q64.13574 0.08298 64.13574 -1.86138Q64.13574 -2.4225 63.95304 -2.77483L63.8095 -3.00972Q63.49632 -3.4273 63.49632 -3.59694Q63.49632 -4.10586 65.15359 -4.10586L65.98874 -4.10586Q67.56771 -4.10586 67.56771 -3.50559Q67.56771 -3.16631 66.92177 -2.46817Q66.27583 -1.77003 65.98874 -1.11756Q65.70166 -0.4651 63.89432 4.33054Q62.08699 9.12618 61.09524 10.88131Q60.10349 12.63645 59.24875 13.40636Q58.39402 14.17627 57.49362 14.17627L57.15433 14.17627Q56.47577 14.17627 55.99947 13.79132Q55.52317 13.40636 55.52317 12.99531Q55.52317 12.58425 55.85592 12.32979Q56.18868 12.07533 56.73676 12.07533L57.03689 12.10143Q57.23263 12.11448 57.63716 12.11448Q58.55061 12.11448 59.32053 10.94004Q60.09044 9.76559 60.09044 8.56505Q60.09044 7.36451 56.37137 -0.50424Q56.03209 -1.22196 55.3731 -1.99187Q54.71411 -2.76178 54.71411 -3.06192Q54.71411 -3.55779 55.40572 -3.76006Q56.09734 -3.96232 57.63064 -3.96232Q59.16393 -3.96232 59.16393 -3.2968Q59.00734 -2.61824 59.00734 -2.40945Z" fill="rgb(255, 255, 255)" transform="matrix(1 0 0 1 185.785386 52.514754)"/><path d="" fill="rgb(255, 255, 255)" transform="matrix(1 0 0 1 185.785386 52.514754)"/><path d="M83.05729 2.35356L82.83545 2.35356Q81.12599 2.35356 79.98417 3.11695Q78.84235 3.88034 78.84235 5.01563L78.84235 5.27662Q78.84235 5.94213 79.25341 6.47063Q79.66446 6.99913 80.31693 6.99913L80.47352 7.02523L80.865 7.02523Q82.22213 7.02523 83.08339 5.91604Q83.46182 5.43321 83.46182 3.93253Q83.46182 3.81509 83.46182 3.69765L83.47487 3.38446L83.47487 3.07128Q83.47487 2.35356 83.05729 2.35356ZM76.71531 -1.86138Q76.71531 -2.82703 78.24861 -3.59041Q79.7819 -4.3538 81.42612 -4.3538Q81.47832 -4.3538 81.53052 -4.3538Q83.09644 -4.3538 84.03599 -3.97537Q85.9412 -3.21851 86.21523 -0.76523Q86.24133 -0.51729 86.24133 2.51668Q86.24133 5.55065 86.40445 6.07263Q86.56757 6.5946 87.2918 6.84254Q88.01604 7.09048 88.01604 7.31232Q88.01604 7.78209 87.54627 8.03003Q86.60671 8.52591 85.69978 8.52591Q84.79285 8.52591 84.34918 8.10833Q83.55317 7.36451 83.50097 7.36451Q83.44877 7.36451 82.02639 8.02351Q80.60401 8.6825 79.53397 8.6825Q77.9289 8.6825 77.01544 7.79514Q76.10199 6.90779 76.10199 5.642L76.10199 5.31577Q76.10199 3.95863 77.27643 2.92774Q78.45087 1.89684 81.50442 1.32267Q82.61361 1.11388 82.9007 0.93118Q83.47487 0.5658 83.47487 -0.55644Q83.47487 -1.67868 82.8746 -2.27895Q82.27433 -2.87922 81.26953 -2.87922Q80.26473 -2.87922 79.3317 -1.71131Q78.39867 -0.54339 77.62876 -0.54339Q76.71531 -0.54339 76.71531 -1.86138Z" fill="rgb(255, 255, 255)" transform="matrix(1 0 0 1 185.785386 52.514754)"/><path d="M91.9178 8.29102Q90.07784 8.29102 90.07784 7.76904Q90.07784 7.33841 90.56067 7.06438Q91.43497 6.5685 91.57852 6.1705Q91.72206 5.77249 91.72206 2.39924Q91.72206 -0.97402 91.51979 -1.55472Q91.31753 -2.13541 90.78251 -2.51384Q90.24748 -2.89227 90.24748 -3.12716Q90.24748 -3.36205 90.59981 -3.57084Q91.42192 -4.05367 93.20968 -4.05367Q93.74471 -4.05367 94.04484 -3.68828Q94.14924 -3.55779 94.33845 -3.12064Q94.52767 -2.68348 94.59292 -2.68348Q94.84085 -2.69653 95.36283 -3.03582Q97.16364 -4.24941 98.62516 -4.24941L98.65126 -4.24941L99.06884 -4.24941Q100.12584 -4.24941 100.97405 -3.72743Q101.82225 -3.20546 102.28551 -2.16151Q102.74876 -1.11756 102.74876 2.38619Q102.74876 5.88994 102.89883 6.30099Q103.04889 6.71205 103.74703 7.06438Q104.44517 7.41671 104.44517 7.75599Q104.44517 8.34321 100.73916 8.34321L100.34768 8.34321Q99.17324 8.34321 99.17324 7.78209Q99.17324 7.66465 99.46032 7.21445Q99.74741 6.76424 99.8518 6.21617Q99.9562 5.6681 99.9562 2.60803Q99.9562 -0.45205 99.57777 -1.32635Q99.05579 -2.52689 97.8422 -2.52689Q96.95485 -2.52689 96.12621 -2.11584Q95.29758 -1.70478 94.92567 -0.95445Q94.55377 -0.20411 94.55377 2.63412Q94.55377 5.47236 94.71036 6.0661Q94.86695 6.65985 95.08879 7.02523L95.57162 7.80819Q95.57162 8.31712 93.52287 8.31712L92.72686 8.29102Z" fill="rgb(255, 255, 255)" transform="matrix(1 0 0 1 185.785386 52.514754)"/><path d="M114.98905 -0.54339Q114.98905 -1.60039 114.31048 -2.23328Q113.63191 -2.86618 112.50967 -2.86618L112.26173 -2.86618Q111.67451 -2.86618 111.009 -2.51384Q110.34348 -2.16151 109.91285 -1.49599Q109.05159 -0.16496 109.05159 1.80549L109.05159 2.5754Q109.05159 4.5328 109.93242 5.81164Q110.81326 7.09048 112.07904 7.09048L112.45747 7.09048Q113.56667 7.09048 114.27133 6.33362Q114.976 5.57675 114.976 4.40231L115.0021 4.12828L115.0021 3.85424L115.02819 3.17567Q115.02819 2.5493 115.02819 1.92294L115.04124 1.50536L115.04124 1.10083L115.02819 0.95728L115.02819 0.26567L115.01515 0.13517L115.01515 -0.13886Q114.98905 -0.39985 114.98905 -0.54339ZM115.05429 -4.23636Q115.05429 -4.23636 115.11302 -4.3799Q115.17174 -4.52344 115.17174 -5.95887Q115.17174 -7.3943 114.9499 -8.06634Q114.72806 -8.73838 114.17346 -9.17554Q113.61887 -9.61269 113.61887 -9.83453Q113.61887 -10.05637 113.919 -10.22601Q114.72806 -10.69578 116.55497 -10.69578L116.86815 -10.69578Q117.78161 -10.69578 117.9121 -9.71708Q117.95125 -9.41695 117.95125 -2.25938Q117.95125 4.89819 118.05564 5.59633Q118.16004 6.29447 118.55152 6.68595Q118.62982 6.76424 119.05392 7.08395Q119.47802 7.40366 119.47802 7.64507Q119.47802 7.88649 119.11264 8.08223Q118.36883 8.48676 116.68546 8.48676Q116.09824 8.48676 115.74591 8.13443Q115.05429 7.44281 114.99557 7.44281Q114.93685 7.44281 114.40183 7.74294Q113.8668 8.04308 113.11647 8.34974Q112.36613 8.6564 111.25693 8.6564Q110.14774 8.6564 109.20819 8.17357Q107.47262 7.28622 106.76796 5.23747Q106.35038 4.01083 106.35038 2.5493Q106.35038 -0.39985 108.04027 -2.25286Q109.73016 -4.10586 112.70541 -4.10586L114.41488 -3.94927Q114.93685 -3.94927 115.05429 -4.23636Z" fill="rgb(255, 255, 255)" transform="matrix(1 0 0 1 185.785386 52.514754)"/><path d="M-175.08492 36.85865Q-175.63299 36.85865 -176.60517 35.72336Q-177.57735 34.58806 -178.84966 34.58806Q-180.12197 34.58806 -180.98323 35.84733Q-181.84448 37.10659 -181.84448 39.41632Q-181.84448 41.72606 -180.78096 43.02447Q-179.71744 44.32288 -178.00797 44.32288Q-177.06842 44.32288 -176.43553 44.08799Q-175.80263 43.8531 -175.26109 43.58559Q-174.71954 43.31808 -174.4977 43.31808Q-174.11927 43.31808 -174.11927 43.81395Q-174.11927 44.57082 -175.64604 45.31463Q-177.17282 46.05844 -178.60824 46.05844Q-181.4008 46.05844 -183.09722 44.30983Q-183.78884 43.59211 -184.25861 42.46335Q-184.72839 41.33458 -184.72839 40.04269L-184.72839 39.40327Q-184.72839 39.37718 -184.72839 39.33803Q-184.72839 39.31193 -184.72839 39.28583Q-184.72839 38.15054 -184.21946 36.93695Q-183.21466 34.56197 -180.98323 33.64851Q-179.69134 33.12654 -178.4125 33.12654L-178.11237 33.12654Q-176.35071 33.12654 -175.12407 33.73986Q-174.13232 34.23573 -174.13232 35.39712Q-174.13232 36.16704 -174.43898 36.51284Q-174.74564 36.85865 -175.08492 36.85865Z" fill="rgb(255, 255, 255)" transform="matrix(1 0 0 1 185.785386 52.514754)"/><path d="M-171.69209 45.09279Q-171.69209 44.8579 -171.13097 44.23806Q-170.56985 43.61821 -170.43283 42.99184Q-170.29581 42.36548 -170.29581 36.38887Q-170.29581 30.41227 -170.56985 29.14649Q-170.70034 28.53317 -171.11792 28.24608Q-171.87478 27.71106 -171.87478 27.67191Q-171.87478 27.18908 -171.36586 26.99334Q-170.4002 26.61491 -169.10832 26.61491L-168.67769 26.61491Q-168.07742 26.61491 -167.82296 27.09774Q-167.5685 27.58056 -167.5685 29.22478L-167.58154 29.70761Q-167.59459 30.19043 -167.59459 30.67326L-167.62069 31.63891Q-167.62069 32.12174 -167.62069 32.60456Q-167.62069 34.31403 -167.02042 34.31403Q-166.95518 34.30098 -166.35491 34.03999Q-164.54105 33.23093 -163.31441 33.23093Q-161.01772 33.23093 -160.09122 35.07089Q-159.4779 36.32363 -159.4779 41.23018Q-159.4779 43.12234 -159.34088 43.58559Q-159.20386 44.04884 -158.59707 44.54472Q-157.99027 45.04059 -157.99027 45.17109Q-157.99027 45.57562 -158.51877 45.71916Q-159.04727 45.8627 -161.21346 45.8627L-161.67019 45.8627Q-163.09257 45.8627 -163.09257 45.28853Q-163.09257 45.15804 -162.75329 44.62954Q-162.414 44.10104 -162.30961 43.43552Q-162.20521 42.77001 -162.20521 39.95135Q-162.20521 37.13269 -162.4662 36.40192Q-163.36661 35.22748 -164.46275 34.9665Q-165.96343 34.9665 -166.86383 36.03654Q-167.52935 36.8195 -167.52935 39.60554Q-167.52935 42.39157 -167.39885 43.15496Q-167.26836 43.91835 -166.83121 44.53819Q-166.39405 45.15804 -166.39405 45.30158Q-166.39405 45.77136 -169.04307 45.77136Q-171.69209 45.77136 -171.69209 45.09279Z" fill="rgb(255, 255, 255)" transform="matrix(1 0 0 1 185.785386 52.514754)"/><path d="M-148.94708 39.76866L-149.16891 39.76866Q-150.87838 39.76866 -152.0202 40.53204Q-153.16201 41.29543 -153.16201 42.43072L-153.16201 42.69171Q-153.16201 43.35723 -152.75096 43.88573Q-152.33991 44.41422 -151.68744 44.41422L-151.53085 44.44032L-151.13937 44.44032Q-149.78223 44.44032 -148.92098 43.33113Q-148.54255 42.8483 -148.54255 41.34763Q-148.54255 41.23018 -148.54255 41.11274L-148.5295 40.79955L-148.5295 40.48637Q-148.5295 39.76866 -148.94708 39.76866ZM-155.28906 35.55372Q-155.28906 34.58806 -153.75576 33.82468Q-152.22246 33.06129 -150.57824 33.06129Q-150.52605 33.06129 -150.47385 33.06129Q-148.90793 33.06129 -147.96837 33.43972Q-146.06317 34.19658 -145.78913 36.64986Q-145.76303 36.8978 -145.76303 39.93177Q-145.76303 42.96575 -145.59992 43.48772Q-145.4368 44.00969 -144.71256 44.25763Q-143.98832 44.50557 -143.98832 44.72741Q-143.98832 45.19718 -144.4581 45.44512Q-145.39765 45.941 -146.30458 45.941Q-147.21151 45.941 -147.65519 45.52342Q-148.4512 44.77961 -148.5034 44.77961Q-148.55559 44.77961 -149.97797 45.4386Q-151.40035 46.09759 -152.4704 46.09759Q-154.07547 46.09759 -154.98892 45.21023Q-155.90238 44.32288 -155.90238 43.05709L-155.90238 42.73086Q-155.90238 41.37373 -154.72794 40.34283Q-153.5535 39.31193 -150.49995 38.73776Q-149.39075 38.52897 -149.10367 38.34628Q-148.5295 37.98089 -148.5295 36.85865Q-148.5295 35.73641 -149.12977 35.13614Q-149.73004 34.53587 -150.73484 34.53587Q-151.73964 34.53587 -152.67266 35.70378Q-153.60569 36.8717 -154.3756 36.8717Q-155.28906 36.8717 -155.28906 35.55372Z" fill="rgb(255, 255, 255)" transform="matrix(1 0 0 1 185.785386 52.514754)"/><path d="M-135.3888 45.30158Q-135.3888 45.8105 -137.75073 45.8105L-139.13397 45.8105L-139.68204 45.78441L-140.50415 45.77136Q-141.88738 45.77136 -141.88738 45.27548Q-141.88738 44.92315 -141.26753 44.52514Q-140.64769 44.12714 -140.43238 43.49424Q-140.21706 42.86135 -140.21706 39.75561Q-140.21706 36.64986 -140.41933 35.98434Q-140.62159 35.31883 -141.05222 35.03174Q-141.82213 34.52282 -141.82213 34.28793Q-141.82213 34.05304 -141.54809 33.87035Q-140.73904 33.32228 -138.80773 33.32228L-138.55979 33.32228Q-137.81598 33.32228 -137.5028 34.07262Q-137.18961 34.82295 -136.99387 34.82295Q-136.79813 34.82295 -136.32183 34.45757Q-135.84553 34.09219 -135.17349 33.72681Q-134.50145 33.36143 -133.67934 33.36143Q-132.85723 33.36143 -132.42008 33.78553Q-131.98292 34.20963 -131.98292 34.87515Q-131.99597 35.55372 -132.33525 35.893Q-132.67454 36.23228 -133.06602 36.23228Q-133.4575 36.23228 -134.09692 35.91257Q-134.73633 35.59286 -135.16696 35.59286Q-135.59759 35.59286 -136.10652 35.95172Q-136.61544 36.31058 -136.9743 37.23056Q-137.33316 38.15054 -137.33316 40.37545Q-137.33316 42.60036 -137.01997 43.24631Q-136.70679 43.89225 -136.04779 44.42727Q-135.3888 44.9623 -135.3888 45.30158Z" fill="rgb(255, 255, 255)" transform="matrix(1 0 0 1 185.785386 52.514754)"/><path d="M-120.8714 43.36375Q-120.8714 43.36375 -120.82247 43.11255Q-120.77353 42.86135 -120.77353 39.8861Q-120.77353 36.91085 -121.23026 35.99739Q-121.68699 35.08394 -122.92667 35.08394Q-123.67049 35.08394 -124.4665 35.66464Q-125.26251 36.24533 -125.52349 36.95Q-125.78448 37.65466 -125.78448 40.23191Q-125.78448 42.80915 -125.73881 43.40942Q-125.69314 44.00969 -125.54959 44.34898L-125.37995 44.67521Q-125.17116 45.07974 -125.17116 45.26243Q-125.17116 45.74526 -127.16771 45.74526Q-129.16426 45.74526 -129.76453 45.34073L-129.99942 45.09279Q-129.99942 44.72741 -129.73843 44.46642Q-128.95547 43.67041 -128.81193 43.25283Q-128.66839 42.83525 -128.66839 39.55334Q-128.66839 36.27143 -129.22951 35.26663L-129.50355 34.9143Q-129.84283 34.48367 -129.84283 34.25531Q-129.84283 34.02694 -129.35348 33.72028Q-128.86413 33.41362 -127.8267 33.41362Q-126.78928 33.41362 -126.26731 33.96822Q-125.74533 34.52282 -125.52349 34.52282L-125.13201 34.34013L-124.14026 33.75291Q-122.92667 33.11349 -121.67394 33.11349Q-120.4212 33.11349 -119.28591 33.87687Q-118.15061 34.64026 -117.86353 34.64026L-117.41985 34.43147L-116.93702 34.14439Q-116.3237 33.779 -115.61904 33.49192Q-114.94047 33.20483 -113.81823 33.20483Q-111.67814 33.20483 -110.79078 34.97954Q-110.13831 36.28448 -110.13831 41.08664Q-110.13831 43.14844 -110.00782 43.4812Q-109.87733 43.81395 -109.30315 44.28373Q-108.72898 44.75351 -108.72898 44.8318L-108.72898 45.14499L-108.97692 45.37988Q-109.60329 45.75831 -112.16096 45.75831Q-113.3876 45.75831 -113.3876 45.15804Q-113.3876 45.09279 -113.21143 44.57082Q-113.03527 44.04884 -113.00264 43.72913Q-112.97002 43.40942 -112.97002 40.40807Q-112.97002 37.40672 -113.26363 36.64334Q-113.55724 35.87995 -113.9944 35.4689Q-114.43155 35.05784 -115.3189 35.05784Q-116.20626 35.05784 -116.81958 35.54067Q-117.4329 36.02349 -117.68084 36.61724Q-117.92877 37.21098 -117.92877 40.19928Q-117.92877 43.18759 -117.74608 43.65084Q-117.56339 44.11409 -117.06099 44.55777Q-116.55859 45.00144 -116.55859 45.14499Q-116.55859 45.79745 -118.84223 45.79745L-120.66914 45.79745Q-122.03932 45.79745 -122.03932 45.39945Q-122.03932 45.00144 -121.70004 44.63606Q-120.96927 43.86615 -120.8714 43.36375Z" fill="rgb(255, 255, 255)" transform="matrix(1 0 0 1 185.785386 52.514754)"/><path d="" fill="rgb(255, 255, 255)" transform="matrix(1 0 0 1 185.785386 52.514754)"/><path d="M-95.00107 29.05514Q-95.00107 29.62931 -95.49042 30.11866Q-95.97977 30.60801 -96.4626 30.60801Q-96.56699 30.63411 -96.63224 30.63411L-96.91932 30.66021Q-97.57179 30.66021 -98.08724 30.22958Q-98.60269 29.79895 -98.60269 29.12039L-98.60269 28.8855Q-98.60269 28.20693 -98.06114 27.74368Q-97.51959 27.28043 -96.81493 27.28043L-96.74968 27.28043L-96.306 27.33263Q-95.90147 27.33263 -95.46432 27.76978Q-95.02717 28.20693 -95.02717 28.65061L-95.00107 28.76805ZM-99.15076 34.87515Q-99.15076 34.87515 -99.49004 34.71203Q-99.82933 34.54892 -99.82933 34.26183Q-99.82933 33.97474 -99.55529 33.8051Q-98.60269 33.23093 -96.54089 33.23093L-96.16246 33.23093Q-95.4578 33.23093 -95.36645 33.8834Q-95.31425 34.23573 -95.31425 38.62684Q-95.31425 43.01794 -95.13156 43.66389Q-94.94887 44.30983 -94.25726 44.65564Q-93.56564 45.00144 -93.56564 45.35378Q-93.56564 45.84965 -96.80188 45.84965L-97.19336 45.8627L-98.78538 45.8627Q-99.73798 45.8627 -99.73798 45.39292Q-99.73798 45.00144 -99.15729 44.63606Q-98.57659 44.27068 -98.35475 43.827Q-98.10681 43.34418 -98.10681 41.56947L-98.09376 41.15189L-98.09376 40.74736L-98.08071 40.13404L-98.08071 39.72951L-98.06767 39.32498Q-98.06767 36.23228 -98.26993 35.71683Q-98.4722 35.20138 -99.15076 34.87515Z" fill="rgb(255, 255, 255)" transform="matrix(1 0 0 1 185.785386 52.514754)"/><path d="M-89.61169 45.70611Q-91.45165 45.70611 -91.45165 45.18414Q-91.45165 44.75351 -90.96882 44.47947Q-90.09451 43.9836 -89.95097 43.58559Q-89.80743 43.18759 -89.80743 39.81433Q-89.80743 36.44107 -90.00969 35.86038Q-90.21196 35.27968 -90.74698 34.90125Q-91.282 34.52282 -91.282 34.28793Q-91.282 34.05304 -90.92967 33.84425Q-90.10756 33.36143 -88.3198 33.36143Q-87.78478 33.36143 -87.48464 33.72681Q-87.38025 33.8573 -87.19103 34.29445Q-87.00182 34.73161 -86.93657 34.73161Q-86.68863 34.71856 -86.16666 34.37927Q-84.36585 33.16569 -82.90432 33.16569L-82.87822 33.16569L-82.46064 33.16569Q-81.40365 33.16569 -80.55544 33.68766Q-79.70723 34.20963 -79.24398 35.25358Q-78.78073 36.29753 -78.78073 39.80128Q-78.78073 43.30503 -78.63066 43.71608Q-78.48059 44.12714 -77.78245 44.47947Q-77.08431 44.8318 -77.08431 45.17109Q-77.08431 45.75831 -80.79033 45.75831L-81.18181 45.75831Q-82.35625 45.75831 -82.35625 45.19718Q-82.35625 45.07974 -82.06916 44.62954Q-81.78208 44.17934 -81.67768 43.63126Q-81.57329 43.08319 -81.57329 40.02312Q-81.57329 36.96305 -81.95172 36.08874Q-82.47369 34.8882 -83.68728 34.8882Q-84.57464 34.8882 -85.40327 35.29925Q-86.23191 35.71031 -86.60381 36.46065Q-86.97572 37.21098 -86.97572 40.04922Q-86.97572 42.88745 -86.81913 43.4812Q-86.66254 44.07494 -86.4407 44.44032L-85.95787 45.22328Q-85.95787 45.73221 -88.00662 45.73221L-88.80263 45.70611Z" fill="rgb(255, 255, 255)" transform="matrix(1 0 0 1 185.785386 52.514754)"/><path d="M-69.62009 44.08799L-67.63658 43.78786Q-67.2973 43.78786 -67.2973 44.31635Q-67.2973 44.84485 -68.3021 45.40597Q-69.3069 45.9671 -70.4161 45.9671L-70.67708 45.9671Q-71.55139 45.9671 -72.25605 45.51037Q-72.96072 45.05364 -73.28695 44.38813Q-73.84807 43.22673 -73.84807 39.98397Q-73.84807 36.74121 -74.07644 35.93215Q-74.3048 35.12309 -74.67018 34.82295Q-75.34875 34.27488 -75.34875 34.22268Q-75.34875 33.8834 -74.99642 33.64851Q-74.09601 33.04824 -74.01119 32.96342Q-73.92637 32.8786 -73.01292 30.82985Q-72.55619 29.812 -71.97549 29.812Q-71.3948 29.812 -71.19906 30.22958Q-71.14686 30.33398 -70.97069 31.36488Q-70.79453 32.39577 -70.46829 32.68938Q-70.14206 32.98299 -69.01982 33.25051Q-67.89757 33.51802 -67.89757 34.01389Q-67.89757 34.50977 -69.13726 34.75771Q-70.37695 35.00564 -70.63794 35.39712Q-71.09466 36.06264 -71.09466 39.15534Q-71.09466 42.24803 -70.80758 43.05709Q-70.44219 44.08799 -69.62009 44.08799Z" fill="rgb(255, 255, 255)" transform="matrix(1 0 0 1 185.785386 52.514754)"/><path d="M-57.18406 37.32843L-57.18406 36.9239Q-57.18406 35.95825 -57.87567 35.18181Q-58.56729 34.40537 -59.57209 34.40537L-59.82003 34.40537Q-60.00272 34.43147 -60.06796 34.43147Q-60.98142 34.43147 -61.797 35.47542Q-62.61259 36.51937 -62.61259 37.70686L-62.61259 37.8765Q-62.61259 38.29408 -62.11671 38.29408Q-61.92097 38.33323 -61.90792 38.33323L-61.60779 38.34628L-61.52949 38.34628L-61.43814 38.33323L-58.91962 38.18968L-58.44984 38.13749Q-57.18406 38.13749 -57.18406 37.32843ZM-62.61259 40.7865Q-62.61259 42.27413 -61.49034 43.27893Q-60.3681 44.28373 -58.64558 44.28373Q-57.95397 44.28373 -57.38632 44.08147Q-56.81868 43.8792 -56.14663 43.59211Q-55.47459 43.30503 -55.30495 43.30503Q-54.78298 43.30503 -54.78298 43.86615Q-54.78298 44.62301 -56.71428 45.48427Q-57.96702 46.04539 -59.40245 46.04539L-59.68953 46.04539Q-62.14281 46.04539 -63.76093 44.55777Q-64.63523 43.74871 -65.11806 42.48944Q-65.60089 41.23018 -65.60089 39.78171L-65.58784 39.48157L-65.58784 39.18144Q-65.58784 37.9287 -65.01367 36.71511Q-64.42645 35.50152 -63.61739 34.71856Q-61.90792 33.07434 -59.55904 33.06129Q-56.00962 33.06129 -54.83517 35.82775Q-54.46979 36.70206 -54.46979 37.43282L-54.46979 37.69381Q-54.46979 38.59421 -55.21361 38.90087Q-55.95742 39.20753 -58.72388 39.40327Q-61.49034 39.59901 -61.72523 39.66426Q-62.61259 39.8861 -62.61259 40.7865Z" fill="rgb(255, 255, 255)" transform="matrix(1 0 0 1 185.785386 52.514754)"/><path d="M-45.55709 45.30158Q-45.55709 45.8105 -47.91902 45.8105L-49.30225 45.8105L-49.85032 45.78441L-50.67243 45.77136Q-52.05566 45.77136 -52.05566 45.27548Q-52.05566 44.92315 -51.43582 44.52514Q-50.81597 44.12714 -50.60066 43.49424Q-50.38535 42.86135 -50.38535 39.75561Q-50.38535 36.64986 -50.58761 35.98434Q-50.78988 35.31883 -51.2205 35.03174Q-51.99042 34.52282 -51.99042 34.28793Q-51.99042 34.05304 -51.71638 33.87035Q-50.90732 33.32228 -48.97602 33.32228L-48.72808 33.32228Q-47.98427 33.32228 -47.67108 34.07262Q-47.3579 34.82295 -47.16216 34.82295Q-46.96642 34.82295 -46.49012 34.45757Q-46.01381 34.09219 -45.34177 33.72681Q-44.66973 33.36143 -43.84762 33.36143Q-43.02551 33.36143 -42.58836 33.78553Q-42.15121 34.20963 -42.15121 34.87515Q-42.16426 35.55372 -42.50354 35.893Q-42.84282 36.23228 -43.2343 36.23228Q-43.62578 36.23228 -44.2652 35.91257Q-44.90462 35.59286 -45.33525 35.59286Q-45.76588 35.59286 -46.2748 35.95172Q-46.78373 36.31058 -47.14258 37.23056Q-47.50144 38.15054 -47.50144 40.37545Q-47.50144 42.60036 -47.18826 43.24631Q-46.87507 43.89225 -46.21608 44.42727Q-45.55709 44.9623 -45.55709 45.30158Z" fill="rgb(255, 255, 255)" transform="matrix(1 0 0 1 185.785386 52.514754)"/><path d="M-34.76528 44.08799L-32.78178 43.78786Q-32.44249 43.78786 -32.44249 44.31635Q-32.44249 44.84485 -33.44729 45.40597Q-34.45209 45.9671 -35.56129 45.9671L-35.82227 45.9671Q-36.69658 45.9671 -37.40124 45.51037Q-38.10591 45.05364 -38.43214 44.38813Q-38.99327 43.22673 -38.99327 39.98397Q-38.99327 36.74121 -39.22163 35.93215Q-39.44999 35.12309 -39.81537 34.82295Q-40.49394 34.27488 -40.49394 34.22268Q-40.49394 33.8834 -40.14161 33.64851Q-39.2412 33.04824 -39.15638 32.96342Q-39.07156 32.8786 -38.15811 30.82985Q-37.70138 29.812 -37.12068 29.812Q-36.53999 29.812 -36.34425 30.22958Q-36.29205 30.33398 -36.11588 31.36488Q-35.93972 32.39577 -35.61348 32.68938Q-35.28725 32.98299 -34.16501 33.25051Q-33.04276 33.51802 -33.04276 34.01389Q-33.04276 34.50977 -34.28245 34.75771Q-35.52214 35.00564 -35.78313 35.39712Q-36.23985 36.06264 -36.23985 39.15534Q-36.23985 42.24803 -35.95277 43.05709Q-35.58739 44.08799 -34.76528 44.08799Z" fill="rgb(255, 255, 255)" transform="matrix(1 0 0 1 185.785386 52.514754)"/><path d="M-12.72493 33.42667Q-11.45914 33.42667 -11.45914 34.13134Q-11.45914 34.27488 -11.7919 34.80338Q-12.12466 35.33188 -12.56833 36.25838Q-13.01201 37.18488 -14.21255 40.65601Q-15.41309 44.12714 -15.59578 44.47947Q-16.19605 45.61476 -17.25305 45.61476Q-17.73588 45.61476 -18.23175 44.66216Q-18.72763 43.70956 -19.79115 40.98877Q-20.85467 38.26798 -21.14176 38.26798Q-21.1809 38.26798 -22.3423 41.11926Q-23.50369 43.97055 -23.72553 44.38813Q-24.3519 45.57562 -25.24578 45.57562Q-26.13966 45.57562 -27.15751 42.54817L-27.48374 41.53032Q-28.88002 37.04134 -30.08056 35.37103Q-30.81132 34.35318 -30.81132 34.14439Q-30.81132 33.9356 -30.60253 33.75291Q-30.15886 33.36143 -29.03661 33.36143L-28.54074 33.36143Q-26.96177 33.36143 -26.58333 34.03999Q-26.43979 34.30098 -26.35497 35.19486Q-26.27015 36.08874 -26.13313 36.87823Q-25.99611 37.66771 -25.38279 39.59901Q-24.76948 41.53032 -24.2214 41.53032Q-23.79077 41.53032 -23.17745 39.8339Q-22.56414 38.13749 -22.56414 36.71511Q-22.56414 36.37583 -22.70115 35.8147Q-22.83817 35.25358 -22.83817 35.04479Q-22.83817 34.26183 -21.87252 33.8312Q-21.40274 33.62241 -20.45667 33.62241Q-19.51059 33.62241 -18.88422 34.36623Q-18.55799 34.75771 -18.55799 35.48847L-18.58408 35.8669L-18.59713 36.28448Q-18.59713 36.64986 -18.02296 38.54854Q-17.44879 40.44722 -17.19433 40.96267Q-16.93987 41.47812 -16.66583 41.47812Q-16.10471 41.47812 -15.36742 39.32498Q-14.63013 37.17184 -14.63013 35.63201L-14.73453 34.31403Q-14.73453 33.42667 -12.72493 33.42667Z" fill="rgb(255, 255, 255)" transform="matrix(1 0 0 1 185.785386 52.514754)"/><path d="M-4.52994 29.05514Q-4.52994 29.62931 -5.01929 30.11866Q-5.50864 30.60801 -5.99146 30.60801Q-6.09586 30.63411 -6.1611 30.63411L-6.44819 30.66021Q-7.10066 30.66021 -7.61611 30.22958Q-8.13156 29.79895 -8.13156 29.12039L-8.13156 28.8855Q-8.13156 28.20693 -7.59001 27.74368Q-7.04846 27.28043 -6.3438 27.28043L-6.27855 27.28043L-5.83487 27.33263Q-5.43034 27.33263 -4.99319 27.76978Q-4.55603 28.20693 -4.55603 28.65061L-4.52994 28.76805ZM-8.67963 34.87515Q-8.67963 34.87515 -9.01891 34.71203Q-9.35819 34.54892 -9.35819 34.26183Q-9.35819 33.97474 -9.08416 33.8051Q-8.13156 33.23093 -6.06976 33.23093L-5.69133 33.23093Q-4.98666 33.23093 -4.89532 33.8834Q-4.84312 34.23573 -4.84312 38.62684Q-4.84312 43.01794 -4.66043 43.66389Q-4.47774 44.30983 -3.78612 44.65564Q-3.09451 45.00144 -3.09451 45.35378Q-3.09451 45.84965 -6.33075 45.84965L-6.72223 45.8627L-8.31425 45.8627Q-9.26685 45.8627 -9.26685 45.39292Q-9.26685 45.00144 -8.68615 44.63606Q-8.10546 44.27068 -7.88362 43.827Q-7.63568 43.34418 -7.63568 41.56947L-7.62263 41.15189L-7.62263 40.74736L-7.60958 40.13404L-7.60958 39.72951L-7.59653 39.32498Q-7.59653 36.23228 -7.7988 35.71683Q-8.00106 35.20138 -8.67963 34.87515Z" fill="rgb(255, 255, 255)" transform="matrix(1 0 0 1 185.785386 52.514754)"/><path d="M0.85945 45.70611Q-0.98051 45.70611 -0.98051 45.18414Q-0.98051 44.75351 -0.49769 44.47947Q0.37662 43.9836 0.52016 43.58559Q0.6637 43.18759 0.6637 39.81433Q0.6637 36.44107 0.46144 35.86038Q0.25918 35.27968 -0.27585 34.90125Q-0.81087 34.52282 -0.81087 34.28793Q-0.81087 34.05304 -0.45854 33.84425Q0.36357 33.36143 2.15133 33.36143Q2.68635 33.36143 2.98649 33.72681Q3.09088 33.8573 3.2801 34.29445Q3.46931 34.73161 3.53456 34.73161Q3.7825 34.71856 4.30447 34.37927Q6.10528 33.16569 7.56681 33.16569L7.59291 33.16569L8.01049 33.16569Q9.06749 33.16569 9.91569 33.68766Q10.7639 34.20963 11.22715 35.25358Q11.6904 36.29753 11.6904 39.80128Q11.6904 43.30503 11.84047 43.71608Q11.99054 44.12714 12.68868 44.47947Q13.38682 44.8318 13.38682 45.17109Q13.38682 45.75831 9.6808 45.75831L9.28932 45.75831Q8.11488 45.75831 8.11488 45.19718Q8.11488 45.07974 8.40197 44.62954Q8.68905 44.17934 8.79345 43.63126Q8.89784 43.08319 8.89784 40.02312Q8.89784 36.96305 8.51941 36.08874Q7.99744 34.8882 6.78385 34.8882Q5.89649 34.8882 5.06786 35.29925Q4.23923 35.71031 3.86732 36.46065Q3.49541 37.21098 3.49541 40.04922Q3.49541 42.88745 3.65201 43.4812Q3.8086 44.07494 4.03044 44.44032L4.51326 45.22328Q4.51326 45.73221 2.46452 45.73221L1.6685 45.70611Z" fill="rgb(255, 255, 255)" transform="matrix(1 0 0 1 185.785386 52.514754)"/><path d="M23.52616 37.32843L23.52616 36.9239Q23.52616 35.95825 22.83455 35.18181Q22.14293 34.40537 21.13813 34.40537L20.8902 34.40537Q20.7075 34.43147 20.64226 34.43147Q19.7288 34.43147 18.91322 35.47542Q18.09763 36.51937 18.09763 37.70686L18.09763 37.8765Q18.09763 38.29408 18.59351 38.29408Q18.78925 38.33323 18.8023 38.33323L19.10243 38.34628L19.18073 38.34628L19.27208 38.33323L21.7906 38.18968L22.26038 38.13749Q23.52616 38.13749 23.52616 37.32843ZM18.09763 40.7865Q18.09763 42.27413 19.21988 43.27893Q20.34212 44.28373 22.06464 44.28373Q22.75625 44.28373 23.3239 44.08147Q23.89155 43.8792 24.56359 43.59211Q25.23563 43.30503 25.40527 43.30503Q25.92724 43.30503 25.92724 43.86615Q25.92724 44.62301 23.99594 45.48427Q22.7432 46.04539 21.30777 46.04539L21.02069 46.04539Q18.56741 46.04539 16.94929 44.55777Q16.07499 43.74871 15.59216 42.48944Q15.10933 41.23018 15.10933 39.78171L15.12238 39.48157L15.12238 39.18144Q15.12238 37.9287 15.69655 36.71511Q16.28378 35.50152 17.09283 34.71856Q18.8023 33.07434 21.15118 33.06129Q24.7006 33.06129 25.87505 35.82775Q26.24043 36.70206 26.24043 37.43282L26.24043 37.69381Q26.24043 38.59421 25.49662 38.90087Q24.7528 39.20753 21.98634 39.40327Q19.21988 39.59901 18.98499 39.66426Q18.09763 39.8861 18.09763 40.7865Z" fill="rgb(255, 255, 255)" transform="matrix(1 0 0 1 185.785386 52.514754)"/><path d="" fill="rgb(255, 255, 255)" transform="matrix(1 0 0 1 185.785386 52.514754)"/><path d="M43.8962 39.95135Q44.92709 40.93005 44.92709 42.4242Q44.92709 43.91835 43.70046 44.98187Q42.47382 46.04539 40.30763 46.04539L39.95529 46.04539Q37.48897 46.04539 36.19708 45.43207Q35.47937 45.09279 35.47937 43.91835L35.47937 43.59211Q35.47937 42.09144 36.04049 42.09144Q36.51027 42.09144 37.14968 42.97227Q37.7891 43.8531 38.21973 44.15324Q39.05489 44.72741 40.18366 44.72741Q41.31243 44.72741 41.84745 44.25111Q42.38247 43.77481 42.38247 42.99184Q42.38247 42.20888 41.46902 41.54337Q40.98619 41.19103 39.218 40.43417Q37.44982 39.67731 36.57551 38.84868Q35.70121 38.02004 35.70121 36.50632Q35.70121 34.99259 36.96699 34.04652Q38.23278 33.10044 40.08579 33.10044L40.43812 33.10044Q42.8653 33.10044 43.844 33.67461Q44.35292 33.97474 44.35292 35.34493Q44.35292 36.71511 43.70046 36.71511Q43.33507 36.71511 42.70218 35.89952Q42.06929 35.08394 41.54731 34.73813Q41.02534 34.39232 40.10536 34.39232Q39.18538 34.39232 38.65036 34.8099Q38.11534 35.22748 38.11534 36.01697Q38.11534 36.80645 39.09404 37.43282Q39.34197 37.60246 41.26023 38.43762Q43.17848 39.27278 43.8962 39.95135Z" fill="rgb(255, 255, 255)" transform="matrix(1 0 0 1 185.785386 52.514754)"/><path d="M55.37962 37.32843L55.37962 36.9239Q55.37962 35.95825 54.68801 35.18181Q53.99639 34.40537 52.99159 34.40537L52.74365 34.40537Q52.56096 34.43147 52.49572 34.43147Q51.58226 34.43147 50.76668 35.47542Q49.95109 36.51937 49.95109 37.70686L49.95109 37.8765Q49.95109 38.29408 50.44697 38.29408Q50.64271 38.33323 50.65576 38.33323L50.95589 38.34628L51.03419 38.34628L51.12554 38.33323L53.64406 38.18968L54.11384 38.13749Q55.37962 38.13749 55.37962 37.32843ZM49.95109 40.7865Q49.95109 42.27413 51.07334 43.27893Q52.19558 44.28373 53.9181 44.28373Q54.60971 44.28373 55.17736 44.08147Q55.745 43.8792 56.41705 43.59211Q57.08909 43.30503 57.25873 43.30503Q57.7807 43.30503 57.7807 43.86615Q57.7807 44.62301 55.8494 45.48427Q54.59666 46.04539 53.16123 46.04539L52.87415 46.04539Q50.42087 46.04539 48.80275 44.55777Q47.92845 43.74871 47.44562 42.48944Q46.96279 41.23018 46.96279 39.78171L46.97584 39.48157L46.97584 39.18144Q46.97584 37.9287 47.55001 36.71511Q48.13723 35.50152 48.94629 34.71856Q50.65576 33.07434 53.00464 33.06129Q56.55406 33.06129 57.72851 35.82775Q58.09389 36.70206 58.09389 37.43282L58.09389 37.69381Q58.09389 38.59421 57.35007 38.90087Q56.60626 39.20753 53.8398 39.40327Q51.07334 39.59901 50.83845 39.66426Q49.95109 39.8861 49.95109 40.7865Z" fill="rgb(255, 255, 255)" transform="matrix(1 0 0 1 185.785386 52.514754)"/><path d="M67.33283 39.76866L67.11099 39.76866Q65.40152 39.76866 64.2597 40.53204Q63.11789 41.29543 63.11789 42.43072L63.11789 42.69171Q63.11789 43.35723 63.52894 43.88573Q63.94 44.41422 64.59246 44.41422L64.74906 44.44032L65.14054 44.44032Q66.49767 44.44032 67.35892 43.33113Q67.73736 42.8483 67.73736 41.34763Q67.73736 41.23018 67.73736 41.11274L67.75041 40.79955L67.75041 40.48637Q67.75041 39.76866 67.33283 39.76866ZM60.99084 35.55372Q60.99084 34.58806 62.52414 33.82468Q64.05744 33.06129 65.70166 33.06129Q65.75386 33.06129 65.80605 33.06129Q67.37197 33.06129 68.31153 33.43972Q70.21673 34.19658 70.49077 36.64986Q70.51687 36.8978 70.51687 39.93177Q70.51687 42.96575 70.67998 43.48772Q70.8431 44.00969 71.56734 44.25763Q72.29158 44.50557 72.29158 44.72741Q72.29158 45.19718 71.8218 45.44512Q70.88225 45.941 69.97532 45.941Q69.06839 45.941 68.62471 45.52342Q67.8287 44.77961 67.7765 44.77961Q67.72431 44.77961 66.30193 45.4386Q64.87955 46.09759 63.8095 46.09759Q62.20443 46.09759 61.29098 45.21023Q60.37752 44.32288 60.37752 43.05709L60.37752 42.73086Q60.37752 41.37373 61.55196 40.34283Q62.72641 39.31193 65.77995 38.73776Q66.88915 38.52897 67.17623 38.34628Q67.75041 37.98089 67.75041 36.85865Q67.75041 35.73641 67.15014 35.13614Q66.54987 34.53587 65.54507 34.53587Q64.54027 34.53587 63.60724 35.70378Q62.67421 36.8717 61.9043 36.8717Q60.99084 36.8717 60.99084 35.55372Z" fill="rgb(255, 255, 255)" transform="matrix(1 0 0 1 185.785386 52.514754)"/><path d="M83.75543 43.36375Q83.75543 43.36375 83.80437 43.11255Q83.8533 42.86135 83.8533 39.8861Q83.8533 36.91085 83.39657 35.99739Q82.93985 35.08394 81.70016 35.08394Q80.95635 35.08394 80.16034 35.66464Q79.36433 36.24533 79.10334 36.95Q78.84235 37.65466 78.84235 40.23191Q78.84235 42.80915 78.88802 43.40942Q78.9337 44.00969 79.07724 44.34898L79.24688 44.67521Q79.45567 45.07974 79.45567 45.26243Q79.45567 45.74526 77.45912 45.74526Q75.46257 45.74526 74.8623 45.34073L74.62741 45.09279Q74.62741 44.72741 74.8884 44.46642Q75.67136 43.67041 75.8149 43.25283Q75.95845 42.83525 75.95845 39.55334Q75.95845 36.27143 75.39732 35.26663L75.12329 34.9143Q74.784 34.48367 74.784 34.25531Q74.784 34.02694 75.27335 33.72028Q75.76271 33.41362 76.80013 33.41362Q77.83755 33.41362 78.35953 33.96822Q78.8815 34.52282 79.10334 34.52282L79.49482 34.34013L80.48657 33.75291Q81.70016 33.11349 82.9529 33.11349Q84.20563 33.11349 85.34093 33.87687Q86.47622 34.64026 86.76331 34.64026L87.20698 34.43147L87.68981 34.14439Q88.30313 33.779 89.00779 33.49192Q89.68636 33.20483 90.8086 33.20483Q92.9487 33.20483 93.83605 34.97954Q94.48852 36.28448 94.48852 41.08664Q94.48852 43.14844 94.61901 43.4812Q94.74951 43.81395 95.32368 44.28373Q95.89785 44.75351 95.89785 44.8318L95.89785 45.14499L95.64991 45.37988Q95.02354 45.75831 92.46587 45.75831Q91.23923 45.75831 91.23923 45.15804Q91.23923 45.09279 91.4154 44.57082Q91.59157 44.04884 91.62419 43.72913Q91.65681 43.40942 91.65681 40.40807Q91.65681 37.40672 91.3632 36.64334Q91.06959 35.87995 90.63244 35.4689Q90.19528 35.05784 89.30793 35.05784Q88.42057 35.05784 87.80725 35.54067Q87.19393 36.02349 86.946 36.61724Q86.69806 37.21098 86.69806 40.19928Q86.69806 43.18759 86.88075 43.65084Q87.06344 44.11409 87.56584 44.55777Q88.06824 45.00144 88.06824 45.14499Q88.06824 45.79745 85.7846 45.79745L83.9577 45.79745Q82.58751 45.79745 82.58751 45.39945Q82.58751 45.00144 82.9268 44.63606Q83.65756 43.86615 83.75543 43.36375Z" fill="rgb(255, 255, 255)" transform="matrix(1 0 0 1 185.785386 52.514754)"/><path d="M97.98575 45.35378Q97.98575 45.07974 98.57949 44.64911Q99.17324 44.21848 99.38203 43.2985Q99.59082 42.37853 99.59082 36.31058Q99.59082 30.24263 99.4538 29.43357Q99.31678 28.62451 98.78176 28.27218Q97.9205 27.71106 97.9205 27.58056L97.9205 27.42397Q97.9205 27.20213 98.29893 27.03249Q99.47337 26.52357 101.43077 26.52357L101.69176 26.52357Q102.35728 26.52357 102.46167 27.42397Q102.47472 27.54142 102.47472 29.39442L102.47472 32.20003L102.46167 32.73506L102.46167 33.55717L102.44862 34.09219Q102.44862 34.09219 102.44862 38.22883Q102.44862 42.09144 102.57259 43.01142Q102.69656 43.9314 103.15329 44.34898Q103.20549 44.38813 103.70136 44.68826Q104.19724 44.9884 104.19724 45.30158Q104.19724 45.75831 102.57912 45.75831L102.04409 45.78441L101.50907 45.78441L99.36898 45.82355L99.09494 45.82355Q97.98575 45.82355 97.98575 45.35378Z" fill="rgb(255, 255, 255)" transform="matrix(1 0 0 1 185.785386 52.514754)"/><path d="M114.42792 37.32843L114.42792 36.9239Q114.42792 35.95825 113.73631 35.18181Q113.04469 34.40537 112.03989 34.40537L111.79196 34.40537Q111.60927 34.43147 111.54402 34.43147Q110.63056 34.43147 109.81498 35.47542Q108.9994 36.51937 108.9994 37.70686L108.9994 37.8765Q108.9994 38.29408 109.49527 38.29408Q109.69101 38.33323 109.70406 38.33323L110.0042 38.34628L110.08249 38.34628L110.17384 38.33323L112.69236 38.18968L113.16214 38.13749Q114.42792 38.13749 114.42792 37.32843ZM108.9994 40.7865Q108.9994 42.27413 110.12164 43.27893Q111.24388 44.28373 112.9664 44.28373Q113.65801 44.28373 114.22566 44.08147Q114.79331 43.8792 115.46535 43.59211Q116.13739 43.30503 116.30703 43.30503Q116.829 43.30503 116.829 43.86615Q116.829 44.62301 114.8977 45.48427Q113.64496 46.04539 112.20954 46.04539L111.92245 46.04539Q109.46917 46.04539 107.85105 44.55777Q106.97675 43.74871 106.49392 42.48944Q106.0111 41.23018 106.0111 39.78171L106.02414 39.48157L106.02414 39.18144Q106.02414 37.9287 106.59832 36.71511Q107.18554 35.50152 107.9946 34.71856Q109.70406 33.07434 112.05294 33.06129Q115.60237 33.06129 116.77681 35.82775Q117.14219 36.70206 117.14219 37.43282L117.14219 37.69381Q117.14219 38.59421 116.39838 38.90087Q115.65456 39.20753 112.8881 39.40327Q110.12164 39.59901 109.88675 39.66426Q108.9994 39.8861 108.9994 40.7865Z" fill="rgb(255, 255, 255)" transform="matrix(1 0 0 1 185.785386 52.514754)"/><path d="M127.97315 39.95135Q129.00405 40.93005 129.00405 42.4242Q129.00405 43.91835 127.77741 44.98187Q126.55077 46.04539 124.38458 46.04539L124.03225 46.04539Q121.56592 46.04539 120.27403 45.43207Q119.55632 45.09279 119.55632 43.91835L119.55632 43.59211Q119.55632 42.09144 120.11744 42.09144Q120.58722 42.09144 121.22664 42.97227Q121.86605 43.8531 122.29668 44.15324Q123.13184 44.72741 124.26061 44.72741Q125.38938 44.72741 125.9244 44.25111Q126.45942 43.77481 126.45942 42.99184Q126.45942 42.20888 125.54597 41.54337Q125.06314 41.19103 123.29496 40.43417Q121.52677 39.67731 120.65246 38.84868Q119.77816 38.02004 119.77816 36.50632Q119.77816 34.99259 121.04394 34.04652Q122.30973 33.10044 124.16274 33.10044L124.51507 33.10044Q126.94225 33.10044 127.92095 33.67461Q128.42988 33.97474 128.42988 35.34493Q128.42988 36.71511 127.77741 36.71511Q127.41203 36.71511 126.77913 35.89952Q126.14624 35.08394 125.62427 34.73813Q125.10229 34.39232 124.18231 34.39232Q123.26233 34.39232 122.72731 34.8099Q122.19229 35.22748 122.19229 36.01697Q122.19229 36.80645 123.17099 37.43282Q123.41893 37.60246 125.33718 38.43762Q127.25543 39.27278 127.97315 39.95135Z" fill="rgb(255, 255, 255)" transform="matrix(1 0 0 1 185.785386 52.514754)"/><path d="M139.66536 39.95135Q140.69626 40.93005 140.69626 42.4242Q140.69626 43.91835 139.46962 44.98187Q138.24299 46.04539 136.07679 46.04539L135.72446 46.04539Q133.25813 46.04539 131.96625 45.43207Q131.24854 45.09279 131.24854 43.91835L131.24854 43.59211Q131.24854 42.09144 131.80966 42.09144Q132.27943 42.09144 132.91885 42.97227Q133.55827 43.8531 133.9889 44.15324Q134.82406 44.72741 135.95283 44.72741Q137.08159 44.72741 137.61662 44.25111Q138.15164 43.77481 138.15164 42.99184Q138.15164 42.20888 137.23819 41.54337Q136.75536 41.19103 134.98717 40.43417Q133.21899 39.67731 132.34468 38.84868Q131.47037 38.02004 131.47037 36.50632Q131.47037 34.99259 132.73616 34.04652Q134.00195 33.10044 135.85496 33.10044L136.20729 33.10044Q138.63447 33.10044 139.61317 33.67461Q140.12209 33.97474 140.12209 35.34493Q140.12209 36.71511 139.46962 36.71511Q139.10424 36.71511 138.47135 35.89952Q137.83846 35.08394 137.31648 34.73813Q136.79451 34.39232 135.87453 34.39232Q134.95455 34.39232 134.41953 34.8099Q133.8845 35.22748 133.8845 36.01697Q133.8845 36.80645 134.8632 37.43282Q135.11114 37.60246 137.0294 38.43762Q138.94765 39.27278 139.66536 39.95135Z" fill="rgb(255, 255, 255)" transform="matrix(1 0 0 1 185.785386 52.514754)"/><path d="M142.86246 45.35378Q142.86246 45.07974 143.4562 44.64911Q144.04995 44.21848 144.25874 43.2985Q144.46753 42.37853 144.46753 36.31058Q144.46753 30.24263 144.33051 29.43357Q144.19349 28.62451 143.65847 28.27218Q142.79721 27.71106 142.79721 27.58056L142.79721 27.42397Q142.79721 27.20213 143.17564 27.03249Q144.35008 26.52357 146.30748 26.52357L146.56847 26.52357Q147.23399 26.52357 147.33838 27.42397Q147.35143 27.54142 147.35143 29.39442L147.35143 32.20003L147.33838 32.73506L147.33838 33.55717L147.32533 34.09219Q147.32533 34.09219 147.32533 38.22883Q147.32533 42.09144 147.4493 43.01142Q147.57327 43.9314 148.03 44.34898Q148.08219 44.38813 148.57807 44.68826Q149.07395 44.9884 149.07395 45.30158Q149.07395 45.75831 147.45583 45.75831L146.9208 45.78441L146.38578 45.78441L144.24569 45.82355L143.97165 45.82355Q142.86246 45.82355 142.86246 45.35378Z" fill="rgb(255, 255, 255)" transform="matrix(1 0 0 1 185.785386 52.514754)"/><path d="M155.15494 35.00564Q155.15494 36.40192 157.32113 41.63471Q157.62127 42.36548 157.80396 42.36548Q157.98665 42.36548 158.48253 41.30848Q160.28334 37.49807 160.28334 35.55372Q160.28334 34.99259 160.10064 34.64026L159.9571 34.40537Q159.64392 33.98779 159.64392 33.81815Q159.64392 33.30923 161.30118 33.30923L162.13634 33.30923Q163.71531 33.30923 163.71531 33.9095Q163.71531 34.24878 163.06937 34.94692Q162.42343 35.64506 162.13634 36.29753Q161.84926 36.95 160.04192 41.74563Q158.23459 46.54127 157.24284 48.2964Q156.25109 50.05154 155.39635 50.82145Q154.54162 51.59137 153.64122 51.59137L153.30193 51.59137Q152.62337 51.59137 152.14707 51.20641Q151.67077 50.82145 151.67077 50.4104Q151.67077 49.99934 152.00352 49.74488Q152.33628 49.49042 152.88435 49.49042L153.18449 49.51652Q153.38023 49.52957 153.78476 49.52957Q154.69821 49.52957 155.46813 48.35513Q156.23804 47.18069 156.23804 45.98015Q156.23804 44.77961 152.51897 36.91085Q152.17969 36.19313 151.5207 35.42322Q150.86171 34.65331 150.86171 34.35318Q150.86171 33.8573 151.55332 33.65504Q152.24494 33.45277 153.77824 33.45277Q155.31153 33.45277 155.31153 34.11829Q155.15494 34.79685 155.15494 35.00564Z" fill="rgb(255, 255, 255)" transform="matrix(1 0 0 1 185.785386 52.514754)"/><path d="M166.9124 46.12369Q166.23384 46.12369 165.67272 45.64086Q165.11159 45.15804 165.11159 44.37508L165.11159 44.25763Q165.11159 43.50077 165.69229 43.00489Q166.27299 42.50902 166.87326 42.50902L167.10814 42.50902Q167.30388 42.54817 167.39523 42.54817Q167.85196 42.54817 168.34783 43.04404Q168.84371 43.53992 168.84371 44.19238L168.84371 44.37508Q168.84371 44.97535 168.36741 45.52994Q167.89111 46.08454 167.27779 46.08454L166.97765 46.12369Z" fill="rgb(255, 255, 255)" transform="matrix(1 0 0 1 185.785386 52.514754)"/></g></g>

  </svg>