<svg xmlns="http://www.w3.org/2000/svg" xmlns:xlink="http://www.w3.org/1999/xlink" width="2578px" height="60px" viewBox="0 0 730.2096060000003 16.99185068">
    <g style="" id="7d8b4ebf-5ebc-4bb1-9ced-1623ab78c4e0">
<g style=""><path d="M-341.55124 4.72373L-345.16012 4.72373L-345.79168 2.43811L-350.30279 2.43811L-351.00953 4.72373L-354.4079 4.72373L-350.54338 -7.00515L-345.31049 -7.00515ZM-346.57361 -0.11819L-347.97205 -4.44886L-348.06227 -4.44886L-349.49079 -0.11819Z" fill="rgb(253, 250, 250)" transform="matrix(1 0 0 1 365.104803 8.495925)"/><path d="M-338.01753 -7.00515L-335.02516 -7.00515L-329.83738 -0.59938L-329.74716 -0.59938L-329.74716 -7.00515L-326.58938 -7.00515L-326.58938 4.72373L-329.56672 4.72373L-334.76953 -1.66701L-334.85975 -1.66701L-334.85975 4.72373L-338.01753 4.72373Z" fill="rgb(253, 250, 250)" transform="matrix(1 0 0 1 365.104803 8.495925)"/><path d="" fill="rgb(253, 250, 250)" transform="matrix(1 0 0 1 365.104803 8.495925)"/><path d="M-302.6805 4.72373L-306.28939 4.72373L-306.92094 2.43811L-311.43205 2.43811L-312.13879 4.72373L-315.53716 4.72373L-311.67265 -7.00515L-306.43976 -7.00515ZM-307.70287 -0.11819L-309.10131 -4.44886L-309.19153 -4.44886L-310.62005 -0.11819Z" fill="rgb(253, 250, 250)" transform="matrix(1 0 0 1 365.104803 8.495925)"/><path d="M-295.85368 -1.14071L-295.83865 2.01707L-293.26731 2.01707C-291.13205 2.01707 -290.89146 1.70129 -290.89146 -1.14071C-290.89146 -3.98271 -291.13205 -4.29849 -293.26731 -4.29849L-295.83865 -4.29849ZM-298.99642 -7.00515L-292.9365 -7.00515C-288.65094 -7.00515 -287.58331 -5.83226 -287.58331 -1.14071C-287.58331 3.55085 -288.65094 4.72373 -292.9365 4.72373L-298.99642 4.72373Z" fill="rgb(253, 250, 250)" transform="matrix(1 0 0 1 365.104803 8.495925)"/><path d="M-275.67398 4.72373L-280.66628 4.72373L-284.19998 -7.00515L-280.74146 -7.00515L-278.10998 1.71633L-278.01976 1.71633L-275.16272 -7.00515L-271.83954 -7.00515Z" fill="rgb(253, 250, 250)" transform="matrix(1 0 0 1 365.104803 8.495925)"/><path d="M-258.53176 -7.00515L-258.53176 -4.29849L-264.99769 -4.29849L-264.99769 -2.49404L-259.13324 -2.49404L-259.13324 0.06225L-264.99769 0.06225L-264.99769 2.01707L-258.50169 2.01707L-258.50169 4.72373L-268.15546 4.72373L-268.15546 -7.00515Z" fill="rgb(253, 250, 250)" transform="matrix(1 0 0 1 365.104803 8.495925)"/><path d="M-254.29132 -7.00515L-251.29895 -7.00515L-246.11117 -0.59938L-246.02095 -0.59938L-246.02095 -7.00515L-242.86317 -7.00515L-242.86317 4.72373L-245.8405 4.72373L-251.04332 -1.66701L-251.13354 -1.66701L-251.13354 4.72373L-254.29132 4.72373Z" fill="rgb(253, 250, 250)" transform="matrix(1 0 0 1 365.104803 8.495925)"/><path d="M-235.58524 -4.29849L-239.17909 -4.29849L-239.17909 -7.00515L-228.80354 -7.00515L-228.80354 -4.29849L-232.42747 -4.29849L-232.42747 4.72373L-235.58524 4.72373Z" fill="rgb(253, 250, 250)" transform="matrix(1 0 0 1 365.104803 8.495925)"/><path d="M-214.86421 -0.08812C-214.86421 3.91173 -215.90176 4.90418 -220.06702 4.90418C-224.23228 4.90418 -225.26984 3.91173 -225.26984 -0.08812L-225.26984 -7.00515L-222.11206 -7.00515L-222.11206 -0.08812C-222.11206 2.10729 -221.90154 2.34788 -220.06702 2.34788C-218.2325 2.34788 -218.02198 2.10729 -218.02198 -0.08812L-218.02198 -7.00515L-214.86421 -7.00515L-214.86421 -0.08812Z" fill="rgb(253, 250, 250)" transform="matrix(1 0 0 1 365.104803 8.495925)"/><path d="M-203.94732 -7.00515C-200.81962 -7.00515 -200.03769 -6.32849 -200.03769 -3.60678C-200.03769 -1.66701 -200.75947 -0.74975 -202.3985 -0.52419C-200.83465 -0.35878 -200.03769 0.33292 -200.03769 1.83662L-200.03769 4.72373L-203.34584 4.72373L-203.34584 2.01707C-203.34584 0.72388 -203.51125 0.58855 -205.15028 0.58855L-207.49606 0.58855L-207.49606 4.72373L-210.65384 4.72373L-210.65384 -7.00515L-203.94732 -7.00515ZM-204.75932 -1.81738C-203.34584 -1.81738 -203.19547 -1.95271 -203.19547 -3.15567C-203.19547 -4.31352 -203.34584 -4.44886 -204.75932 -4.44886L-207.49606 -4.44886L-207.49606 -1.81738Z" fill="rgb(253, 250, 250)" transform="matrix(1 0 0 1 365.104803 8.495925)"/><path d="M-186.20362 -7.00515L-186.20362 -4.29849L-192.66954 -4.29849L-192.66954 -2.49404L-186.8051 -2.49404L-186.8051 0.06225L-192.66954 0.06225L-192.66954 2.01707L-186.17354 2.01707L-186.17354 4.72373L-195.82732 4.72373L-195.82732 -7.00515Z" fill="rgb(253, 250, 250)" transform="matrix(1 0 0 1 365.104803 8.495925)"/><path d="" fill="rgb(253, 250, 250)" transform="matrix(1 0 0 1 365.104803 8.495925)"/><path d="M-171.67784 -4.29849L-175.27169 -4.29849L-175.27169 -7.00515L-164.89614 -7.00515L-164.89614 -4.29849L-168.52006 -4.29849L-168.52006 4.72373L-171.67784 4.72373Z" fill="rgb(253, 250, 250)" transform="matrix(1 0 0 1 365.104803 8.495925)"/><path d="M-161.21206 -7.00515L-158.05429 -7.00515L-158.05429 -2.61434L-153.54317 -2.61434L-153.54317 -7.00515L-150.3854 -7.00515L-150.3854 4.72373L-153.54317 4.72373L-153.54317 0.09233L-158.05429 0.09233L-158.05429 4.72373L-161.21206 4.72373Z" fill="rgb(253, 250, 250)" transform="matrix(1 0 0 1 365.104803 8.495925)"/><path d="M-133.99503 4.72373L-137.60392 4.72373L-138.23547 2.43811L-142.74658 2.43811L-143.45332 4.72373L-146.85169 4.72373L-142.98718 -7.00515L-137.75429 -7.00515ZM-139.0174 -0.11819L-140.41584 -4.44886L-140.50606 -4.44886L-141.93458 -0.11819Z" fill="rgb(253, 250, 250)" transform="matrix(1 0 0 1 365.104803 8.495925)"/><path d="M-128.89747 -4.29849L-132.49132 -4.29849L-132.49132 -7.00515L-122.11577 -7.00515L-122.11577 -4.29849L-125.7397 -4.29849L-125.7397 4.72373L-128.89747 4.72373Z" fill="rgb(253, 250, 250)" transform="matrix(1 0 0 1 365.104803 8.495925)"/><path d="" fill="rgb(253, 250, 250)" transform="matrix(1 0 0 1 365.104803 8.495925)"/><path d="M-108.14636 -4.29849L-111.74021 -4.29849L-111.74021 -7.00515L-101.36466 -7.00515L-101.36466 -4.29849L-104.98859 -4.29849L-104.98859 4.72373L-108.14636 4.72373Z" fill="rgb(253, 250, 250)" transform="matrix(1 0 0 1 365.104803 8.495925)"/><path d="M-97.68059 -7.00515L-94.52281 -7.00515L-94.52281 -2.61434L-90.0117 -2.61434L-90.0117 -7.00515L-86.85392 -7.00515L-86.85392 4.72373L-90.0117 4.72373L-90.0117 0.09233L-94.52281 0.09233L-94.52281 4.72373L-97.68059 4.72373Z" fill="rgb(253, 250, 250)" transform="matrix(1 0 0 1 365.104803 8.495925)"/><path d="M-75.78666 -7.00515C-72.65896 -7.00515 -71.87703 -6.32849 -71.87703 -3.60678C-71.87703 -1.66701 -72.59881 -0.74975 -74.23785 -0.52419C-72.67399 -0.35878 -71.87703 0.33292 -71.87703 1.83662L-71.87703 4.72373L-75.18518 4.72373L-75.18518 2.01707C-75.18518 0.72388 -75.35059 0.58855 -76.98962 0.58855L-79.3354 0.58855L-79.3354 4.72373L-82.49318 4.72373L-82.49318 -7.00515L-75.78666 -7.00515ZM-76.59866 -1.81738C-75.18518 -1.81738 -75.03481 -1.95271 -75.03481 -3.15567C-75.03481 -4.31352 -75.18518 -4.44886 -76.59866 -4.44886L-79.3354 -4.44886L-79.3354 -1.81738Z" fill="rgb(253, 250, 250)" transform="matrix(1 0 0 1 365.104803 8.495925)"/><path d="M-67.66666 -7.00515L-64.50888 -7.00515L-64.50888 4.72373L-67.66666 4.72373Z" fill="rgb(253, 250, 250)" transform="matrix(1 0 0 1 365.104803 8.495925)"/><path d="M-56.99037 -7.00515L-56.99037 2.01707L-51.27629 2.01707L-51.27629 4.72373L-60.14814 4.72373L-60.14814 -7.00515Z" fill="rgb(253, 250, 250)" transform="matrix(1 0 0 1 365.104803 8.495925)"/><path d="M-44.43444 -7.00515L-44.43444 2.01707L-38.72037 2.01707L-38.72037 4.72373L-47.59222 4.72373L-47.59222 -7.00515Z" fill="rgb(253, 250, 250)" transform="matrix(1 0 0 1 365.104803 8.495925)"/><path d="M-29.77333 2.34788C-27.72829 2.34788 -27.4877 2.25766 -27.4877 1.40055C-27.4877 0.72388 -28.07415 0.43818 -30.28459 0.00211C-34.11903 -0.76478 -35.0814 -1.48656 -35.0814 -3.66693C-35.0814 -6.47886 -33.96866 -7.1856 -29.68311 -7.1856C-25.36748 -7.1856 -24.25474 -6.32849 -24.25474 -2.90004L-27.56289 -2.90004C-27.56289 -4.46389 -27.78844 -4.6293 -29.68311 -4.6293C-31.5477 -4.6293 -31.77326 -4.52404 -31.77326 -3.63686C-31.77326 -3.02034 -31.33718 -2.79478 -29.74326 -2.46397C-25.35244 -1.60686 -24.17955 -0.79486 -24.17955 1.56596C-24.17955 4.24255 -25.30733 4.90418 -29.68311 4.90418C-34.17918 4.90418 -35.33703 4.07714 -35.33703 0.78403L-32.02889 0.78403C-32.02889 2.19751 -31.78829 2.34788 -29.77333 2.34788Z" fill="rgb(253, 250, 250)" transform="matrix(1 0 0 1 365.104803 8.495925)"/><path d="" fill="rgb(253, 250, 250)" transform="matrix(1 0 0 1 365.104803 8.495925)"/><path d="M-9.83422 -4.29849L-13.42807 -4.29849L-13.42807 -7.00515L-3.05252 -7.00515L-3.05252 -4.29849L-6.67644 -4.29849L-6.67644 4.72373L-9.83422 4.72373Z" fill="rgb(253, 250, 250)" transform="matrix(1 0 0 1 365.104803 8.495925)"/><path d="M0.63156 -7.00515L3.78933 -7.00515L3.78933 -2.61434L8.30044 -2.61434L8.30044 -7.00515L11.45822 -7.00515L11.45822 4.72373L8.30044 4.72373L8.30044 0.09233L3.78933 0.09233L3.78933 4.72373L0.63156 4.72373Z" fill="rgb(253, 250, 250)" transform="matrix(1 0 0 1 365.104803 8.495925)"/><path d="M25.44266 -7.00515L25.44266 -4.29849L18.97674 -4.29849L18.97674 -2.49404L24.84118 -2.49404L24.84118 0.06225L18.97674 0.06225L18.97674 2.01707L25.47274 2.01707L25.47274 4.72373L15.81896 4.72373L15.81896 -7.00515Z" fill="rgb(253, 250, 250)" transform="matrix(1 0 0 1 365.104803 8.495925)"/><path d="" fill="rgb(253, 250, 250)" transform="matrix(1 0 0 1 365.104803 8.495925)"/><path d="M37.05126 -7.00515L40.20903 -7.00515L40.20903 -2.61434L44.72015 -2.61434L44.72015 -7.00515L47.87792 -7.00515L47.87792 4.72373L44.72015 4.72373L44.72015 0.09233L40.20903 0.09233L40.20903 4.72373L37.05126 4.72373Z" fill="rgb(253, 250, 250)" transform="matrix(1 0 0 1 365.104803 8.495925)"/><path d="M61.86237 -7.00515L61.86237 -4.29849L55.39644 -4.29849L55.39644 -2.49404L61.26088 -2.49404L61.26088 0.06225L55.39644 0.06225L55.39644 2.01707L61.89244 2.01707L61.89244 4.72373L52.23866 4.72373L52.23866 -7.00515Z" fill="rgb(253, 250, 250)" transform="matrix(1 0 0 1 365.104803 8.495925)"/><path d="M78.28281 4.72373L74.67392 4.72373L74.04237 2.43811L69.53125 2.43811L68.82451 4.72373L65.42614 4.72373L69.29066 -7.00515L74.52355 -7.00515ZM73.26044 -0.11819L71.862 -4.44886L71.77177 -4.44886L70.34325 -0.11819Z" fill="rgb(253, 250, 250)" transform="matrix(1 0 0 1 365.104803 8.495925)"/><path d="M88.6734 -7.00515C91.8011 -7.00515 92.58303 -6.32849 92.58303 -3.60678C92.58303 -1.66701 91.86125 -0.74975 90.22222 -0.52419C91.78607 -0.35878 92.58303 0.33292 92.58303 1.83662L92.58303 4.72373L89.27488 4.72373L89.27488 2.01707C89.27488 0.72388 89.10948 0.58855 87.47044 0.58855L85.12466 0.58855L85.12466 4.72373L81.96688 4.72373L81.96688 -7.00515L88.6734 -7.00515ZM87.8614 -1.81738C89.27488 -1.81738 89.42525 -1.95271 89.42525 -3.15567C89.42525 -4.31352 89.27488 -4.44886 87.8614 -4.44886L85.12466 -4.44886L85.12466 -1.81738Z" fill="rgb(253, 250, 250)" transform="matrix(1 0 0 1 365.104803 8.495925)"/><path d="M99.71059 -4.29849L96.11673 -4.29849L96.11673 -7.00515L106.49229 -7.00515L106.49229 -4.29849L102.86836 -4.29849L102.86836 4.72373L99.71059 4.72373Z" fill="rgb(253, 250, 250)" transform="matrix(1 0 0 1 365.104803 8.495925)"/><path d="" fill="rgb(253, 250, 250)" transform="matrix(1 0 0 1 365.104803 8.495925)"/><path d="M129.72451 4.72373L126.11562 4.72373L125.48407 2.43811L120.97295 2.43811L120.26621 4.72373L116.86784 4.72373L120.73236 -7.00515L125.96525 -7.00515ZM124.70214 -0.11819L123.3037 -4.44886L123.21347 -4.44886L121.78495 -0.11819Z" fill="rgb(253, 250, 250)" transform="matrix(1 0 0 1 365.104803 8.495925)"/><path d="M133.25821 -7.00515L136.25058 -7.00515L141.43836 -0.59938L141.52858 -0.59938L141.52858 -7.00515L144.68636 -7.00515L144.68636 4.72373L141.70903 4.72373L136.50621 -1.66701L136.41599 -1.66701L136.41599 4.72373L133.25821 4.72373Z" fill="rgb(253, 250, 250)" transform="matrix(1 0 0 1 365.104803 8.495925)"/><path d="M152.18984 -1.14071L152.20488 2.01707L154.77621 2.01707C156.91147 2.01707 157.15206 1.70129 157.15206 -1.14071C157.15206 -3.98271 156.91147 -4.29849 154.77621 -4.29849L152.20488 -4.29849ZM149.0471 -7.00515L155.10703 -7.00515C159.39258 -7.00515 160.46021 -5.83226 160.46021 -1.14071C160.46021 3.55085 159.39258 4.72373 155.10703 4.72373L149.0471 4.72373Z" fill="rgb(253, 250, 250)" transform="matrix(1 0 0 1 365.104803 8.495925)"/><path d="" fill="rgb(253, 250, 250)" transform="matrix(1 0 0 1 365.104803 8.495925)"/><path d="M181.51206 -7.00515L181.51206 -4.29849L175.04614 -4.29849L175.04614 -2.1933L180.91058 -2.1933L180.91058 0.51336L175.04614 0.51336L175.04614 4.72373L171.88836 4.72373L171.88836 -7.00515Z" fill="rgb(253, 250, 250)" transform="matrix(1 0 0 1 365.104803 8.495925)"/><path d="M192.42895 -7.00515C195.55665 -7.00515 196.33858 -6.32849 196.33858 -3.60678C196.33858 -1.66701 195.6168 -0.74975 193.97776 -0.52419C195.54162 -0.35878 196.33858 0.33292 196.33858 1.83662L196.33858 4.72373L193.03043 4.72373L193.03043 2.01707C193.03043 0.72388 192.86502 0.58855 191.22599 0.58855L188.88021 0.58855L188.88021 4.72373L185.72243 4.72373L185.72243 -7.00515L192.42895 -7.00515ZM191.61695 -1.81738C193.03043 -1.81738 193.1808 -1.95271 193.1808 -3.15567C193.1808 -4.31352 193.03043 -4.44886 191.61695 -4.44886L188.88021 -4.44886L188.88021 -1.81738Z" fill="rgb(253, 250, 250)" transform="matrix(1 0 0 1 365.104803 8.495925)"/><path d="M210.17265 -7.00515L210.17265 -4.29849L203.70673 -4.29849L203.70673 -2.49404L209.57117 -2.49404L209.57117 0.06225L203.70673 0.06225L203.70673 2.01707L210.20273 2.01707L210.20273 4.72373L200.54895 4.72373L200.54895 -7.00515Z" fill="rgb(253, 250, 250)" transform="matrix(1 0 0 1 365.104803 8.495925)"/><path d="M224.0368 -7.00515L224.0368 -4.29849L217.57087 -4.29849L217.57087 -2.49404L223.43532 -2.49404L223.43532 0.06225L217.57087 0.06225L217.57087 2.01707L224.06687 2.01707L224.06687 4.72373L214.4131 4.72373L214.4131 -7.00515Z" fill="rgb(253, 250, 250)" transform="matrix(1 0 0 1 365.104803 8.495925)"/><path d="M233.38984 2.34788C235.43487 2.34788 235.67547 2.25766 235.67547 1.40055C235.67547 0.72388 235.08902 0.43818 232.87858 0.00211C229.04413 -0.76478 228.08176 -1.48656 228.08176 -3.66693C228.08176 -6.47886 229.1945 -7.1856 233.48006 -7.1856C237.79569 -7.1856 238.90843 -6.32849 238.90843 -2.90004L235.60028 -2.90004C235.60028 -4.46389 235.37472 -4.6293 233.48006 -4.6293C231.61547 -4.6293 231.38991 -4.52404 231.38991 -3.63686C231.38991 -3.02034 231.82598 -2.79478 233.41991 -2.46397C237.81072 -1.60686 238.98361 -0.79486 238.98361 1.56596C238.98361 4.24255 237.85584 4.90418 233.48006 4.90418C228.98398 4.90418 227.82613 4.07714 227.82613 0.78403L231.13428 0.78403C231.13428 2.19751 231.37487 2.34788 233.38984 2.34788Z" fill="rgb(253, 250, 250)" transform="matrix(1 0 0 1 365.104803 8.495925)"/><path d="" fill="rgb(253, 250, 250)" transform="matrix(1 0 0 1 365.104803 8.495925)"/><path d="M253.32895 -4.29849L249.73509 -4.29849L249.73509 -7.00515L260.11065 -7.00515L260.11065 -4.29849L256.48672 -4.29849L256.48672 4.72373L253.32895 4.72373Z" fill="rgb(253, 250, 250)" transform="matrix(1 0 0 1 365.104803 8.495925)"/><path d="M263.79472 -7.00515L266.9525 -7.00515L266.9525 -2.61434L271.46361 -2.61434L271.46361 -7.00515L274.62139 -7.00515L274.62139 4.72373L271.46361 4.72373L271.46361 0.09233L266.9525 0.09233L266.9525 4.72373L263.79472 4.72373Z" fill="rgb(253, 250, 250)" transform="matrix(1 0 0 1 365.104803 8.495925)"/><path d="M288.60583 -7.00515L288.60583 -4.29849L282.13991 -4.29849L282.13991 -2.49404L288.00435 -2.49404L288.00435 0.06225L282.13991 0.06225L282.13991 2.01707L288.63591 2.01707L288.63591 4.72373L278.98213 4.72373L278.98213 -7.00515Z" fill="rgb(253, 250, 250)" transform="matrix(1 0 0 1 365.104803 8.495925)"/><path d="" fill="rgb(253, 250, 250)" transform="matrix(1 0 0 1 365.104803 8.495925)"/><path d="M305.47739 2.34788C307.52242 2.34788 307.76302 2.25766 307.76302 1.40055C307.76302 0.72388 307.17657 0.43818 304.96613 0.00211C301.13168 -0.76478 300.16931 -1.48656 300.16931 -3.66693C300.16931 -6.47886 301.28205 -7.1856 305.56761 -7.1856C309.88324 -7.1856 310.99598 -6.32849 310.99598 -2.90004L307.68783 -2.90004C307.68783 -4.46389 307.46228 -4.6293 305.56761 -4.6293C303.70302 -4.6293 303.47746 -4.52404 303.47746 -3.63686C303.47746 -3.02034 303.91353 -2.79478 305.50746 -2.46397C309.89827 -1.60686 311.07116 -0.79486 311.07116 1.56596C311.07116 4.24255 309.94339 4.90418 305.56761 4.90418C301.07153 4.90418 299.91368 4.07714 299.91368 0.78403L303.22183 0.78403C303.22183 2.19751 303.46242 2.34788 305.47739 2.34788Z" fill="rgb(253, 250, 250)" transform="matrix(1 0 0 1 365.104803 8.495925)"/><path d="M320.92042 -4.6293C318.40924 -4.6293 318.13857 -4.28345 318.13857 -1.14071C318.13857 2.00203 318.40924 2.34788 320.92042 2.34788C323.43161 2.34788 323.70227 2.00203 323.70227 -1.14071C323.70227 -4.28345 323.43161 -4.6293 320.92042 -4.6293ZM314.83042 -1.14071C314.83042 -5.98264 316.04842 -7.1856 320.92042 -7.1856C325.79242 -7.1856 327.01042 -5.98264 327.01042 -1.14071C327.01042 3.70122 325.79242 4.90418 320.92042 4.90418C316.04842 4.90418 314.83042 3.70122 314.83042 -1.14071Z" fill="rgb(253, 250, 250)" transform="matrix(1 0 0 1 365.104803 8.495925)"/><path d="M341.32568 -0.08812C341.32568 3.91173 340.28812 4.90418 336.12287 4.90418C331.95761 4.90418 330.92005 3.91173 330.92005 -0.08812L330.92005 -7.00515L334.07783 -7.00515L334.07783 -0.08812C334.07783 2.10729 334.28835 2.34788 336.12287 2.34788C337.95738 2.34788 338.1679 2.10729 338.1679 -0.08812L338.1679 -7.00515L341.32568 -7.00515L341.32568 -0.08812Z" fill="rgb(253, 250, 250)" transform="matrix(1 0 0 1 365.104803 8.495925)"/><path d="M348.69383 -7.00515L348.69383 2.01707L354.4079 2.01707L354.4079 4.72373L345.53605 4.72373L345.53605 -7.00515Z" fill="rgb(253, 250, 250)" transform="matrix(1 0 0 1 365.104803 8.495925)"/></g></g>

  </svg>