<svg xmlns="http://www.w3.org/2000/svg" xmlns:xlink="http://www.w3.org/1999/xlink" width="335px" height="166px" viewBox="0 0 335.47786300000007 165.97407449949742">
    <g style="" id="ae776c44-46c9-49a7-b520-cc75b1c7b3c3">
<g style=""><path d="" fill="rgb(104, 190, 155)" transform="matrix(1 0 0 1 167.738932 82.987037)"/><path d="M-145.55829 -19.65048Q-148.5501 -20.57651 -149.90354 -22.07241Q-151.25697 -23.56832 -151.96931 -26.70259Q-152.68164 -30.05057 -152.68164 -36.24788Q-152.68164 -38.38489 -152.53918 -40.94929Q-152.32548 -44.5822 -152.32548 -48.85621L-152.39671 -57.5467Q-152.39671 -59.89741 -152.25424 -62.60428Q-152.18301 -63.74402 -152.18301 -66.02349Q-152.18301 -69.37146 -151.89808 -70.9386Q-151.32821 -74.42904 -147.62406 -76.99345Q-145.91446 -78.20442 -142.35279 -78.20442Q-139.43221 -78.20442 -135.72807 -76.56605Q-134.3034 -75.92495 -133.51983 -74.39343Q-132.73626 -72.86191 -132.59379 -71.00984Q-132.52256 -70.15503 -132.23763 -68.30296Q-131.88146 -65.45362 -131.88146 -64.74129Q-131.88146 -63.38785 -132.16639 -62.31935Q-132.45133 -61.39331 -132.73626 -61.10838Q-133.0212 -60.82344 -134.0897 -60.18234Q-134.65957 -59.82617 -135.65684 -59.82617Q-136.58287 -59.82617 -137.40206 -60.25358Q-138.22124 -60.68098 -138.29248 -61.32208Q-138.43494 -62.46181 -138.43494 -62.88922L-138.36371 -65.38239Q-138.36371 -66.73582 -138.57741 -67.44816Q-138.71988 -67.94679 -138.86234 -68.83721Q-139.00481 -69.72763 -139.32536 -70.2975Q-139.64591 -70.86737 -140.21578 -71.1523Q-141.14182 -71.50847 -141.99662 -71.50847Q-143.63499 -71.50847 -144.56102 -70.43997Q-145.05966 -69.79887 -145.27336 -69.0153Q-145.48706 -68.23173 -145.62953 -67.27008Q-145.77199 -66.30842 -145.91446 -65.66732Q-146.12816 -64.88375 -146.12816 -63.38785Q-146.12816 -62.03441 -146.05693 -61.03714Q-145.98569 -60.03987 -145.91446 -59.32754L-145.84323 -57.1193Q-145.70076 -53.27269 -145.70076 -51.06445Q-145.70076 -48.92745 -145.77199 -47.85894L-145.84323 -46.22057Q-145.84323 -45.08084 -145.70076 -42.80137L-145.62953 -41.09176Q-145.62953 -39.95203 -145.48706 -37.81502Q-145.34459 -35.10815 -145.34459 -33.96841Q-145.34459 -33.11361 -145.41583 -32.36566Q-145.48706 -31.61771 -145.48706 -31.04784Q-145.48706 -29.9081 -144.95281 -28.8396Q-144.41856 -27.7711 -143.49252 -26.98753Q-142.92265 -26.56013 -142.42402 -26.56013Q-141.71168 -26.56013 -140.99935 -27.16561Q-140.28701 -27.7711 -139.78838 -28.55466Q-138.86234 -30.1218 -138.86234 -32.33004Q-138.86234 -33.75471 -138.93358 -34.46705Q-139.07604 -36.31912 -138.93358 -38.02872Q-138.57741 -40.73559 -136.2267 -40.73559Q-135.5856 -40.73559 -134.7308 -40.37943Q-133.876 -40.02326 -133.37736 -39.88079Q-132.73626 -39.73832 -132.45133 -39.34654Q-132.16639 -38.95476 -132.09516 -38.17119Q-131.81023 -34.60951 -131.81023 -32.82867Q-131.81023 -31.1903 -132.02393 -29.55193L-132.66503 -25.91902Q-133.09243 -23.78202 -134.37463 -22.42858Q-135.65684 -21.07515 -137.43767 -20.57651Q-141.21305 -19.43678 -143.70622 -19.43678Q-144.70349 -19.43678 -145.55829 -19.65048Z" fill="rgb(104, 190, 155)" transform="matrix(1 0 0 1 167.738932 82.987037)"/><path d="M-116.96664 -19.65048Q-119.31734 -20.36281 -120.4927 -20.89706Q-121.66805 -21.43131 -122.52285 -22.42858Q-123.37765 -23.42585 -123.59136 -25.13546L-124.01876 -27.84233Q-124.44616 -30.1218 -124.62424 -31.65332Q-124.80233 -33.18484 -124.65986 -34.68075L-124.51739 -36.31912Q-124.01876 -41.44793 -124.01876 -44.1548Q-124.01876 -46.57674 -124.37492 -49.63978Q-124.65986 -51.63432 -124.65986 -54.19873Q-124.65986 -56.9056 -124.44616 -59.25631Q-124.30369 -61.96318 -124.30369 -62.88922Q-124.30369 -64.38512 -124.37492 -65.16869L-124.44616 -67.51939Q-124.44616 -69.58516 -124.05437 -71.22354Q-123.66259 -72.86191 -122.66532 -74.21534Q-121.45435 -75.85371 -120.10091 -76.53043Q-118.74748 -77.20715 -116.39677 -77.70578Q-116.0406 -77.77702 -114.82963 -78.06195Q-113.97483 -78.27565 -113.19126 -78.27565Q-111.69536 -78.27565 -109.13095 -77.56332Q-107.84875 -77.20715 -107.24327 -76.60167Q-106.63778 -75.99618 -106.21038 -75.28385Q-105.78298 -74.57151 -105.64051 -74.28658Q-103.50351 -70.65367 -103.85967 -65.66732Q-104.21584 -59.96864 -104.21584 -56.33573Q-104.21584 -52.13296 -103.85967 -48.00141Q-103.71721 -46.64798 -103.71721 -44.1548Q-103.71721 -41.3767 -103.93091 -39.09722Q-104.07337 -35.82048 -104.00214 -34.53828Q-103.85967 -31.404 -103.85967 -30.40674Q-103.85967 -26.77383 -104.64324 -24.92176Q-105.42681 -23.06968 -107.49258 -21.28885Q-108.70355 -20.29158 -110.41316 -19.75733Q-112.12276 -19.22307 -113.9036 -19.22307Q-115.54197 -19.22307 -116.96664 -19.65048ZM-114.18853 -25.84779Q-112.55016 -26.13272 -111.98029 -26.56013Q-111.41043 -26.98753 -110.98302 -28.48343Q-110.34192 -31.76017 -110.34192 -39.16846Q-110.34192 -42.30273 -110.48439 -45.72194Q-110.55562 -47.71648 -110.84056 -53.34393Q-111.26796 -60.75221 -111.26796 -64.38512Q-111.26796 -66.80706 -111.19673 -67.94679Q-111.12549 -70.7249 -111.55289 -71.366Q-112.26523 -72.50574 -113.19126 -72.50574Q-113.54743 -72.50574 -114.1173 -72.29204Q-115.68444 -71.72217 -116.32554 -70.79613Q-116.96664 -69.8701 -117.32281 -67.94679Q-117.82144 -65.23992 -117.82144 -61.96318L-117.75021 -57.5467Q-117.53651 -51.20692 -117.60774 -49.21238Q-117.67897 -47.64524 -117.64336 -45.86441Q-117.60774 -44.08357 -117.60774 -43.22877Q-117.53651 -42.2315 -117.53651 -40.45066Q-117.53651 -38.09995 -117.67897 -37.17392Q-117.89267 -35.17938 -117.89267 -33.82594Q-117.89267 -31.54647 -117.18034 -29.12453Q-116.89541 -28.12726 -116.82417 -27.62863Q-116.68171 -26.63136 -116.2543 -26.20396Q-115.8269 -25.77656 -114.9721 -25.77656Q-114.47347 -25.77656 -114.18853 -25.84779Z" fill="rgb(104, 190, 155)" transform="matrix(1 0 0 1 167.738932 82.987037)"/><path d="M-95.35587 -31.11907Q-95.35587 -33.75471 -95.28464 -35.96295Q-95.2134 -38.17119 -95.14217 -39.80956Q-94.85723 -46.22057 -94.85723 -49.85348Q-94.85723 -51.63432 -94.9997 -55.196Q-95.07093 -56.4782 -95.07093 -58.97137Q-95.07093 -62.60428 -94.85723 -66.02349Q-94.64353 -70.43997 -94.71477 -73.43177Q-94.786 -75.21261 -94.42983 -76.10303Q-94.07367 -76.99345 -93.00516 -77.34962Q-92.79146 -77.42085 -92.29283 -77.42085Q-91.65173 -77.42085 -90.54761 -77.27838Q-89.44349 -77.13592 -88.73115 -77.20715Q-87.59142 -77.34962 -87.09278 -75.64001Q-85.59688 -71.22354 -84.56399 -67.41254Q-83.53111 -63.60155 -82.89001 -59.32754L-82.17767 -54.26996Q-81.3941 -48.42881 -80.89547 -45.43701Q-80.39683 -42.4452 -79.75573 -41.51916Q-79.4708 -41.09176 -79.75573 -44.22604Q-80.18313 -48.64251 -80.04066 -50.56582Q-79.75573 -53.20146 -79.75573 -56.40697Q-79.75573 -58.04534 -79.86258 -60.11111Q-79.96943 -62.17688 -79.96943 -63.17415Q-80.18313 -66.37966 -80.18313 -69.37146Q-80.18313 -72.07834 -79.8982 -74.28658Q-79.6845 -75.92495 -79.39956 -76.42358Q-79.11463 -76.92222 -77.76119 -77.13592Q-77.54749 -77.20715 -76.55022 -77.38523Q-75.55295 -77.56332 -74.98309 -77.42085Q-73.70088 -77.06468 -73.27348 -76.38797Q-72.84608 -75.71125 -72.98855 -74.42904Q-73.55842 -68.44543 -73.55842 -62.88922Q-73.55842 -60.60974 -73.41595 -56.62067L-73.34471 -50.63705Q-73.34471 -47.57401 -73.55842 -43.9411Q-73.55842 -43.7274 -73.77212 -42.12465Q-73.98582 -40.52189 -73.98582 -39.09722Q-73.98582 -34.60951 -73.84335 -31.76017Q-73.77212 -30.3355 -73.80773 -29.33823Q-73.84335 -28.34096 -73.84335 -27.91356Q-73.91458 -26.56013 -73.84335 -24.13819Q-73.70088 -19.93541 -76.19406 -20.29158Q-76.55022 -20.36281 -77.12009 -20.29158Q-77.68996 -20.22034 -78.04613 -20.22034Q-78.68723 -20.22034 -79.2571 -20.50528Q-79.82696 -20.79021 -80.1119 -21.3957Q-80.39683 -22.00118 -80.61053 -22.92722Q-81.3941 -26.20396 -82.32014 -29.40947Q-83.31741 -32.97114 -83.88727 -35.39308Q-84.45714 -37.81502 -84.74208 -40.16573Q-85.09824 -43.5137 -85.81058 -46.64798Q-86.80785 -52.41789 -87.09278 -56.40697Q-87.23525 -58.33027 -87.59142 -60.50289Q-87.94758 -62.67551 -88.23252 -62.39058Q-88.51745 -62.10565 -88.51745 -60.96591Q-88.51745 -59.89741 -88.37499 -57.7604Q-88.30375 -55.90833 -88.58869 -51.49185Q-88.87362 -47.64524 -88.87362 -45.57947Q-88.87362 -43.5137 -88.58869 -39.38216Q-88.51745 -38.38489 -88.44622 -36.88898Q-88.37499 -35.39308 -88.37499 -33.46978Q-88.23252 -26.63136 -88.23252 -24.13819Q-88.23252 -22.64228 -89.72842 -21.14638Q-90.65446 -20.22034 -92.29283 -20.22034Q-92.72023 -20.22034 -93.57503 -20.36281Q-94.50107 -20.50528 -94.89285 -21.00391Q-95.28464 -21.50255 -95.4271 -22.64228Q-95.49834 -22.99845 -95.49834 -23.71079L-95.4271 -25.42039Q-95.28464 -26.70259 -95.28464 -27.34369Z" fill="rgb(104, 190, 155)" transform="matrix(1 0 0 1 167.738932 82.987037)"/><path d="M-58.99976 -70.15503Q-58.92853 -69.6564 -58.64359 -67.80433Q-58.57236 -67.51939 -58.28743 -65.48924Q-58.00249 -63.45908 -58.07373 -61.39331Q-58.14496 -58.68644 -57.86003 -55.90833Q-57.57509 -53.13022 -56.86276 -48.78498L-56.43536 -46.07811Q-56.22166 -44.93837 -56.22166 -43.37123Q-56.15042 -42.08903 -55.97234 -40.91368Q-55.79425 -39.73832 -55.43809 -39.52462Q-55.36685 -39.45339 -55.22439 -39.45339Q-54.79699 -39.45339 -54.58329 -41.44793Q-54.44082 -43.44247 -53.65725 -47.28908Q-53.01615 -51.20692 -52.6956 -53.52201Q-52.37505 -55.8371 -52.37505 -58.47274Q-52.37505 -60.68098 -51.66271 -64.67005L-51.23531 -67.44816Q-51.16408 -68.23173 -50.87914 -69.79887Q-50.80791 -70.15503 -50.59421 -71.43724Q-50.38051 -72.71944 -50.45174 -73.64547Q-50.52298 -74.42904 -50.20242 -75.28385Q-49.88187 -76.13865 -49.31201 -76.63728Q-48.52844 -77.34962 -47.24623 -77.34962Q-46.39143 -77.34962 -45.10923 -77.06468Q-44.39689 -76.85098 -44.14758 -76.4592Q-43.89826 -76.06741 -44.04073 -75.21261L-44.18319 -73.36054Q-44.46813 -69.37146 -44.96676 -67.37693Q-45.53663 -65.09745 -45.96403 -60.32481Q-46.24896 -56.97683 -46.5339 -55.48093Q-47.3887 -51.70555 -47.6024 -49.85348L-48.38597 -41.8041Q-48.8846 -35.89172 -49.34762 -32.15196Q-49.81064 -28.4122 -50.66544 -23.99572Q-50.80791 -23.14092 -51.59148 -22.14365Q-51.94765 -21.64501 -52.51751 -21.28885Q-53.08738 -20.93268 -53.72848 -20.64774Q-54.72575 -20.14911 -55.58055 -20.14911Q-57.00522 -20.14911 -58.00249 -21.64501Q-58.57236 -22.49982 -59.24908 -24.52997Q-59.9258 -26.56013 -60.21073 -28.12726Q-60.49567 -29.33823 -60.9943 -30.7629Q-61.27923 -31.404 -61.49294 -32.40127Q-61.8491 -34.39581 -61.99157 -38.52736Q-62.13404 -42.30273 -62.45459 -45.22331Q-62.77514 -48.14388 -63.84364 -52.06172Q-63.98611 -52.56036 -63.98611 -53.62886L-63.91487 -56.2645Q-63.91487 -57.1193 -63.98611 -57.47547Q-64.12858 -58.25904 -64.55598 -60.25358Q-65.19708 -63.31662 -65.26831 -64.95499Q-65.33954 -66.59336 -65.83818 -70.36873Q-66.33681 -73.00437 -66.33681 -74.85644Q-66.33681 -75.99618 -66.22996 -76.42358Q-66.12311 -76.85098 -65.55325 -77.06468Q-64.55598 -77.56332 -63.62994 -77.56332Q-62.84637 -77.56332 -61.8491 -77.06468Q-61.6354 -76.99345 -61.208 -76.77975Q-60.7806 -76.56605 -60.60252 -76.28111Q-60.42443 -75.99618 -60.28197 -75.56878Q-59.2847 -72.71944 -58.99976 -70.15503Z" fill="rgb(104, 190, 155)" transform="matrix(1 0 0 1 167.738932 82.987037)"/><path d="M-26.70397 -77.49208Q-26.1341 -77.34962 -24.21079 -77.34962Q-21.21899 -77.34962 -20.43542 -77.20715Q-19.58062 -76.99345 -19.1176 -76.06741Q-18.65458 -75.14138 -18.29841 -73.28931Q-18.22718 -73.07561 -18.22718 -72.50574Q-18.22718 -71.86464 -18.4765 -71.29477Q-18.72581 -70.7249 -19.15321 -70.43997Q-19.36691 -70.2975 -20.00802 -70.2975Q-20.79158 -70.2975 -21.07652 -70.36873Q-22.42996 -70.43997 -24.21079 -70.22627Q-26.5615 -69.94133 -28.12864 -70.0838Q-29.12591 -70.15503 -29.44646 -69.90572Q-29.76701 -69.6564 -29.76701 -69.08653Q-29.76701 -67.87556 -29.83824 -66.94953Q-29.98071 -64.38512 -29.98071 -62.60428Q-29.98071 -59.61247 -29.62454 -58.1878Q-29.55331 -57.90287 -29.44646 -57.15492Q-29.33961 -56.40697 -28.98344 -56.0508Q-28.4848 -55.69463 -27.91494 -55.58778Q-27.34507 -55.48093 -26.41903 -55.48093Q-25.84916 -55.48093 -25.42176 -55.55216Q-24.99436 -55.6234 -24.63819 -55.6234Q-23.99709 -55.6234 -23.35599 -55.33846Q-22.85736 -55.12476 -22.60804 -54.91106Q-22.35872 -54.69736 -22.07379 -54.12749Q-21.71762 -53.41516 -21.75324 -52.27542Q-21.78885 -51.13569 -21.78885 -50.85075Q-21.78885 -48.78498 -25.13683 -48.78498Q-25.56423 -48.78498 -26.06286 -48.85621Q-26.5615 -48.92745 -27.06013 -48.92745Q-27.55877 -48.92745 -27.98617 -48.78498Q-29.05467 -48.35758 -29.30399 -48.10826Q-29.55331 -47.85894 -29.55331 -46.93291Q-29.55331 -45.93564 -29.48207 -45.36577L-29.41084 -43.0863Q-29.41084 -42.4452 -29.55331 -40.87806Q-29.62454 -40.30819 -29.62454 -39.02599L-29.55331 -35.32185Q-29.55331 -31.68894 -30.12317 -29.0533Q-30.26564 -28.4122 -29.87386 -28.02041Q-29.48207 -27.62863 -28.6985 -27.62863Q-28.12864 -27.62863 -27.8437 -27.69986Q-26.7752 -27.91356 -25.84916 -27.91356Q-24.63819 -27.91356 -23.56969 -27.69986Q-22.28749 -27.5574 -21.64639 -27.5574Q-20.64912 -27.5574 -20.00802 -27.20123Q-19.01075 -26.56013 -18.65458 -25.91902Q-18.29841 -25.27792 -18.44088 -23.63955Q-18.51211 -22.92722 -18.86828 -22.17927Q-19.22445 -21.43131 -19.79432 -20.93268Q-20.72035 -20.07788 -22.57242 -20.36281Q-23.85463 -20.57651 -25.20806 -20.57651Q-26.3478 -20.57651 -28.62727 -20.43404Q-30.40811 -20.22034 -32.11771 -20.22034Q-33.47115 -20.22034 -34.68212 -20.43404Q-36.03556 -20.64774 -36.60542 -21.11076Q-37.17529 -21.57378 -37.10406 -22.71352Q-36.60542 -27.69986 -36.60542 -32.54374Q-36.60542 -34.68075 -36.67666 -35.74925Q-36.96159 -41.51916 -36.96159 -53.91379Q-36.96159 -54.7686 -36.89036 -55.94395Q-36.81912 -57.1193 -36.74789 -57.68917Q-36.67666 -58.54397 -36.60542 -59.71932Q-36.53419 -60.89468 -36.53419 -62.46181Q-36.53419 -63.60155 -36.60542 -64.9906Q-36.67666 -66.37966 -36.74789 -67.09199Q-36.96159 -69.229 -36.96159 -71.366Q-36.96159 -72.2208 -36.81912 -74.07288Q-36.67666 -75.56878 -35.82186 -76.42358Q-34.96705 -77.27838 -33.54238 -77.27838Q-32.04648 -77.27838 -29.90947 -77.42085Q-28.19987 -77.56332 -27.70124 -77.56332Q-26.9889 -77.56332 -26.70397 -77.49208Z" fill="rgb(104, 190, 155)" transform="matrix(1 0 0 1 167.738932 82.987037)"/><path d="M-11.43298 -31.11907Q-11.43298 -33.75471 -11.36174 -35.96295Q-11.29051 -38.17119 -11.21928 -39.80956Q-10.93434 -46.22057 -10.93434 -49.85348Q-10.93434 -51.63432 -11.07681 -55.196Q-11.14804 -56.4782 -11.14804 -58.97137Q-11.14804 -62.60428 -10.93434 -66.02349Q-10.72064 -70.43997 -10.79188 -73.43177Q-10.86311 -75.21261 -10.50694 -76.10303Q-10.15077 -76.99345 -9.08227 -77.34962Q-8.86857 -77.42085 -8.36994 -77.42085Q-7.72884 -77.42085 -6.62472 -77.27838Q-5.5206 -77.13592 -4.80826 -77.20715Q-3.66853 -77.34962 -3.16989 -75.64001Q-1.67399 -71.22354 -0.6411 -67.41254Q0.39178 -63.60155 1.03289 -59.32754L1.74522 -54.26996Q2.52879 -48.42881 3.02742 -45.43701Q3.52606 -42.4452 4.16716 -41.51916Q4.45209 -41.09176 4.16716 -44.22604Q3.73976 -48.64251 3.88223 -50.56582Q4.16716 -53.20146 4.16716 -56.40697Q4.16716 -58.04534 4.06031 -60.11111Q3.95346 -62.17688 3.95346 -63.17415Q3.73976 -66.37966 3.73976 -69.37146Q3.73976 -72.07834 4.02469 -74.28658Q4.23839 -75.92495 4.52333 -76.42358Q4.80826 -76.92222 6.1617 -77.13592Q6.3754 -77.20715 7.37267 -77.38523Q8.36994 -77.56332 8.93981 -77.42085Q10.22201 -77.06468 10.64941 -76.38797Q11.07681 -75.71125 10.93434 -74.42904Q10.36448 -68.44543 10.36448 -62.88922Q10.36448 -60.60974 10.50694 -56.62067L10.57818 -50.63705Q10.57818 -47.57401 10.36448 -43.9411Q10.36448 -43.7274 10.15077 -42.12465Q9.93707 -40.52189 9.93707 -39.09722Q9.93707 -34.60951 10.07954 -31.76017Q10.15077 -30.3355 10.11516 -29.33823Q10.07954 -28.34096 10.07954 -27.91356Q10.00831 -26.56013 10.07954 -24.13819Q10.22201 -19.93541 7.72884 -20.29158Q7.37267 -20.36281 6.8028 -20.29158Q6.23293 -20.22034 5.87676 -20.22034Q5.23566 -20.22034 4.66579 -20.50528Q4.09593 -20.79021 3.81099 -21.3957Q3.52606 -22.00118 3.31236 -22.92722Q2.52879 -26.20396 1.60275 -29.40947Q0.60548 -32.97114 0.03562 -35.39308Q-0.53425 -37.81502 -0.81919 -40.16573Q-1.17535 -43.5137 -1.88769 -46.64798Q-2.88496 -52.41789 -3.16989 -56.40697Q-3.31236 -58.33027 -3.66853 -60.50289Q-4.02469 -62.67551 -4.30963 -62.39058Q-4.59456 -62.10565 -4.59456 -60.96591Q-4.59456 -59.89741 -4.45209 -57.7604Q-4.38086 -55.90833 -4.66579 -51.49185Q-4.95073 -47.64524 -4.95073 -45.57947Q-4.95073 -43.5137 -4.66579 -39.38216Q-4.59456 -38.38489 -4.52333 -36.88898Q-4.45209 -35.39308 -4.45209 -33.46978Q-4.30963 -26.63136 -4.30963 -24.13819Q-4.30963 -22.64228 -5.80553 -21.14638Q-6.73157 -20.22034 -8.36994 -20.22034Q-8.79734 -20.22034 -9.65214 -20.36281Q-10.57818 -20.50528 -10.96996 -21.00391Q-11.36174 -21.50255 -11.50421 -22.64228Q-11.57545 -22.99845 -11.57545 -23.71079L-11.50421 -25.42039Q-11.36174 -26.70259 -11.36174 -27.34369Z" fill="rgb(104, 190, 155)" transform="matrix(1 0 0 1 167.738932 82.987037)"/><path d="M26.06286 -77.42085Q29.76701 -77.13592 31.69031 -77.13592Q34.46842 -77.13592 36.53419 -77.42085L37.38899 -77.49208Q38.31503 -77.49208 38.74243 -77.06468Q39.24106 -76.63728 39.56161 -75.88933Q39.88217 -75.14138 39.88217 -74.35781Q39.88217 -73.64547 39.526 -72.93314Q38.81366 -71.43724 38.24379 -70.86737Q37.67393 -70.2975 36.46296 -70.2975Q34.75335 -70.2975 33.75608 -70.19065Q32.75881 -70.0838 32.26018 -69.37146Q31.90401 -68.8016 31.90401 -67.83994Q31.90401 -66.87829 31.90401 -66.80706Q31.90401 -66.30842 31.97525 -65.13307Q32.04648 -63.95772 32.04648 -61.74948Q32.04648 -58.82891 31.76155 -56.33573Q31.47661 -53.98503 31.47661 -51.13569Q31.47661 -48.07265 31.76155 -44.93837Q31.90401 -40.23696 31.90401 -36.81775Q31.90401 -32.11634 31.76155 -25.13546L31.69031 -22.14365Q31.69031 -21.07515 31.40538 -20.82583Q31.12044 -20.57651 30.12317 -20.36281Q29.76701 -20.29158 29.16152 -20.18473Q28.55604 -20.07788 28.19987 -20.07788Q27.63 -20.07788 27.13137 -20.36281Q25.9204 -21.07515 25.52861 -21.6094Q25.13683 -22.14365 24.99436 -23.35462Q24.78066 -25.42039 24.78066 -27.91356Q24.78066 -31.76017 25.13683 -36.17665Q25.20806 -37.31639 25.2793 -38.66982Q25.35053 -40.02326 25.35053 -41.5904L25.35053 -44.72467Q25.35053 -48.50005 25.2793 -50.56582L25.2793 -52.91652L25.35053 -56.83437Q25.42176 -58.04534 25.42176 -60.39604Q25.42176 -65.09745 24.49573 -69.4427Q24.49573 -69.58516 24.42449 -69.90572Q24.35326 -70.22627 24.13956 -70.33312Q23.92586 -70.43997 23.56969 -70.43997Q22.99982 -70.5112 21.93132 -70.5112Q21.64639 -70.5112 20.47103 -70.5112Q19.29568 -70.5112 18.36965 -70.79613Q17.79978 -71.08107 17.65731 -71.25915Q17.51484 -71.43724 17.37238 -72.14957Q17.15868 -73.00437 17.15868 -73.71671Q17.15868 -75.07015 17.94224 -76.06741Q18.65458 -76.99345 18.93951 -77.20715Q19.22445 -77.42085 20.07925 -77.42085Q20.86282 -77.49208 22.21626 -77.49208L24.42449 -77.49208Z" fill="rgb(104, 190, 155)" transform="matrix(1 0 0 1 167.738932 82.987037)"/><path d="M53.58602 -64.17142Q53.44355 -62.17688 53.44355 -60.96591L53.51478 -56.19327Q53.65725 -52.63159 53.65725 -50.49458Q53.65725 -48.07265 53.58602 -46.79044L53.51478 -43.01507Q53.51478 -40.73559 53.72848 -38.45612Q53.87095 -37.03145 53.87095 -34.32458L53.87095 -30.62044L53.94218 -27.05876Q53.94218 -25.06422 53.65725 -23.42585Q53.58602 -22.99845 53.51478 -22.35735Q53.44355 -21.71625 53.26547 -21.25323Q53.08738 -20.79021 52.73121 -20.50528Q52.37505 -20.22034 51.59148 -20.22034L50.30927 -20.29158Q49.59694 -20.36281 48.10104 -20.36281Q47.31747 -20.36281 46.99692 -21.182Q46.67637 -22.00118 46.7476 -23.78202Q46.89007 -25.70532 46.89007 -30.26427Q46.89007 -34.89445 46.60513 -41.163Q46.5339 -41.87533 46.81883 -44.86714L46.9613 -47.43154Q46.9613 -49.71102 46.7476 -51.63432Q46.5339 -56.33573 46.5339 -57.9741L46.60513 -63.95772Q46.60513 -66.94953 46.39143 -69.37146Q46.24896 -70.9386 46.42705 -73.21807Q46.60513 -75.49755 47.03253 -76.20988Q47.3887 -76.85098 48.10104 -77.24277Q48.81337 -77.63455 49.66817 -77.63455Q50.23804 -77.63455 51.09284 -77.34962Q52.37505 -76.92222 52.73121 -76.56605Q53.08738 -76.20988 53.22985 -75.07015Q53.72848 -71.7934 53.72848 -67.87556Q53.72848 -66.59336 53.58602 -64.17142Z" fill="rgb(104, 190, 155)" transform="matrix(1 0 0 1 167.738932 82.987037)"/><path d="M69.99674 -19.65048Q67.64603 -20.36281 66.47068 -20.89706Q65.29533 -21.43131 64.44053 -22.42858Q63.58572 -23.42585 63.37202 -25.13546L62.94462 -27.84233Q62.51722 -30.1218 62.33914 -31.65332Q62.16105 -33.18484 62.30352 -34.68075L62.44599 -36.31912Q62.94462 -41.44793 62.94462 -44.1548Q62.94462 -46.57674 62.58846 -49.63978Q62.30352 -51.63432 62.30352 -54.19873Q62.30352 -56.9056 62.51722 -59.25631Q62.65969 -61.96318 62.65969 -62.88922Q62.65969 -64.38512 62.58846 -65.16869L62.51722 -67.51939Q62.51722 -69.58516 62.90901 -71.22354Q63.30079 -72.86191 64.29806 -74.21534Q65.50903 -75.85371 66.86247 -76.53043Q68.2159 -77.20715 70.56661 -77.70578Q70.92278 -77.77702 72.13375 -78.06195Q72.98855 -78.27565 73.77212 -78.27565Q75.26802 -78.27565 77.83243 -77.56332Q79.11463 -77.20715 79.72011 -76.60167Q80.3256 -75.99618 80.753 -75.28385Q81.1804 -74.57151 81.32287 -74.28658Q83.45987 -70.65367 83.10371 -65.66732Q82.74754 -59.96864 82.74754 -56.33573Q82.74754 -52.13296 83.10371 -48.00141Q83.24617 -46.64798 83.24617 -44.1548Q83.24617 -41.3767 83.03247 -39.09722Q82.89001 -35.82048 82.96124 -34.53828Q83.10371 -31.404 83.10371 -30.40674Q83.10371 -26.77383 82.32014 -24.92176Q81.53657 -23.06968 79.4708 -21.28885Q78.25983 -20.29158 76.55022 -19.75733Q74.84062 -19.22307 73.05978 -19.22307Q71.42141 -19.22307 69.99674 -19.65048ZM72.77485 -25.84779Q74.41322 -26.13272 74.98309 -26.56013Q75.55295 -26.98753 75.98035 -28.48343Q76.62146 -31.76017 76.62146 -39.16846Q76.62146 -42.30273 76.47899 -45.72194Q76.40776 -47.71648 76.12282 -53.34393Q75.69542 -60.75221 75.69542 -64.38512Q75.69542 -66.80706 75.76665 -67.94679Q75.83789 -70.7249 75.41049 -71.366Q74.69815 -72.50574 73.77212 -72.50574Q73.41595 -72.50574 72.84608 -72.29204Q71.27894 -71.72217 70.63784 -70.79613Q69.99674 -69.8701 69.64057 -67.94679Q69.14194 -65.23992 69.14194 -61.96318L69.21317 -57.5467Q69.42687 -51.20692 69.35564 -49.21238Q69.2844 -47.64524 69.32002 -45.86441Q69.35564 -44.08357 69.35564 -43.22877Q69.42687 -42.2315 69.42687 -40.45066Q69.42687 -38.09995 69.2844 -37.17392Q69.0707 -35.17938 69.0707 -33.82594Q69.0707 -31.54647 69.78304 -29.12453Q70.06797 -28.12726 70.13921 -27.62863Q70.28167 -26.63136 70.70908 -26.20396Q71.13648 -25.77656 71.99128 -25.77656Q72.48991 -25.77656 72.77485 -25.84779Z" fill="rgb(104, 190, 155)" transform="matrix(1 0 0 1 167.738932 82.987037)"/><path d="M91.60751 -31.11907Q91.60751 -33.75471 91.67874 -35.96295Q91.74998 -38.17119 91.82121 -39.80956Q92.10614 -46.22057 92.10614 -49.85348Q92.10614 -51.63432 91.96368 -55.196Q91.89244 -56.4782 91.89244 -58.97137Q91.89244 -62.60428 92.10614 -66.02349Q92.31985 -70.43997 92.24861 -73.43177Q92.17738 -75.21261 92.53355 -76.10303Q92.88971 -76.99345 93.95822 -77.34962Q94.17192 -77.42085 94.67055 -77.42085Q95.31165 -77.42085 96.41577 -77.27838Q97.51989 -77.13592 98.23223 -77.20715Q99.37196 -77.34962 99.8706 -75.64001Q101.3665 -71.22354 102.39939 -67.41254Q103.43227 -63.60155 104.07337 -59.32754L104.78571 -54.26996Q105.56928 -48.42881 106.06791 -45.43701Q106.56655 -42.4452 107.20765 -41.51916Q107.49258 -41.09176 107.20765 -44.22604Q106.78025 -48.64251 106.92271 -50.56582Q107.20765 -53.20146 107.20765 -56.40697Q107.20765 -58.04534 107.1008 -60.11111Q106.99395 -62.17688 106.99395 -63.17415Q106.78025 -66.37966 106.78025 -69.37146Q106.78025 -72.07834 107.06518 -74.28658Q107.27888 -75.92495 107.56382 -76.42358Q107.84875 -76.92222 109.20219 -77.13592Q109.41589 -77.20715 110.41316 -77.38523Q111.41043 -77.56332 111.98029 -77.42085Q113.2625 -77.06468 113.6899 -76.38797Q114.1173 -75.71125 113.97483 -74.42904Q113.40496 -68.44543 113.40496 -62.88922Q113.40496 -60.60974 113.54743 -56.62067L113.61866 -50.63705Q113.61866 -47.57401 113.40496 -43.9411Q113.40496 -43.7274 113.19126 -42.12465Q112.97756 -40.52189 112.97756 -39.09722Q112.97756 -34.60951 113.12003 -31.76017Q113.19126 -30.3355 113.15565 -29.33823Q113.12003 -28.34096 113.12003 -27.91356Q113.0488 -26.56013 113.12003 -24.13819Q113.2625 -19.93541 110.76932 -20.29158Q110.41316 -20.36281 109.84329 -20.29158Q109.27342 -20.22034 108.91725 -20.22034Q108.27615 -20.22034 107.70628 -20.50528Q107.13642 -20.79021 106.85148 -21.3957Q106.56655 -22.00118 106.35285 -22.92722Q105.56928 -26.20396 104.64324 -29.40947Q103.64597 -32.97114 103.07611 -35.39308Q102.50624 -37.81502 102.2213 -40.16573Q101.86514 -43.5137 101.1528 -46.64798Q100.15553 -52.41789 99.8706 -56.40697Q99.72813 -58.33027 99.37196 -60.50289Q99.0158 -62.67551 98.73086 -62.39058Q98.44593 -62.10565 98.44593 -60.96591Q98.44593 -59.89741 98.58839 -57.7604Q98.65963 -55.90833 98.37469 -51.49185Q98.08976 -47.64524 98.08976 -45.57947Q98.08976 -43.5137 98.37469 -39.38216Q98.44593 -38.38489 98.51716 -36.88898Q98.58839 -35.39308 98.58839 -33.46978Q98.73086 -26.63136 98.73086 -24.13819Q98.73086 -22.64228 97.23496 -21.14638Q96.30892 -20.22034 94.67055 -20.22034Q94.24315 -20.22034 93.38835 -20.36281Q92.46231 -20.50528 92.07053 -21.00391Q91.67874 -21.50255 91.53628 -22.64228Q91.46504 -22.99845 91.46504 -23.71079L91.53628 -25.42039Q91.67874 -26.70259 91.67874 -27.34369Z" fill="rgb(104, 190, 155)" transform="matrix(1 0 0 1 167.738932 82.987037)"/><path d="M125.39921 -20.29158Q125.04304 -20.14911 124.25947 -20.14911Q123.47591 -20.14911 122.87042 -20.22034Q122.26494 -20.29158 121.83753 -20.36281Q121.5526 -20.36281 121.19643 -20.54089Q120.84027 -20.71898 120.76903 -21.00391Q120.41286 -21.78748 120.55533 -22.64228L120.9115 -24.63682L121.19643 -26.41766Q121.7663 -30.26427 122.08685 -32.89991Q122.4074 -35.53555 122.47864 -38.45612Q122.54987 -40.23696 123.11974 -43.9411Q123.68961 -47.07538 123.76084 -48.64251Q123.90331 -51.49185 124.75811 -57.04807Q125.32798 -61.17961 125.54168 -63.17415Q125.82661 -66.73582 125.89784 -68.01803Q126.04031 -71.22354 126.25401 -72.86191Q126.39648 -74.21534 126.57456 -74.92768Q126.75265 -75.64001 127.32252 -76.20988Q128.46225 -77.34962 130.81296 -77.34962Q132.16639 -77.34962 133.2349 -77.06468Q133.37736 -77.06468 133.69791 -76.99345Q134.01846 -76.92222 134.23217 -76.77975Q134.80203 -76.35235 135.01573 -75.64001Q135.44314 -74.42904 135.5856 -71.7934L135.72807 -70.0838Q136.15547 -66.87829 136.79657 -64.02895Q136.86781 -63.45908 137.15274 -61.96318L137.58014 -59.68371Q139.00481 -51.84802 139.21851 -47.93018L139.36098 -43.7274Q139.36098 -42.2315 139.50345 -39.52462Q139.57468 -38.81229 139.85961 -36.88898Q139.93085 -36.10542 140.07331 -35.03691Q140.21578 -33.96841 140.35825 -32.40127L140.64318 -29.19577Q141.07058 -25.63409 141.07058 -23.85325Q141.07058 -22.42858 140.99935 -21.71625Q140.92812 -20.93268 140.28701 -20.54089Q139.64591 -20.14911 138.64864 -20.29158L137.58014 -20.36281Q136.4404 -20.36281 135.76369 -20.54089Q135.08697 -20.71898 135.01573 -21.50255Q134.9445 -22.07241 134.87327 -22.82037Q134.80203 -23.56832 134.65957 -24.56559Q134.5171 -25.99026 134.5171 -26.56013L134.58833 -28.34096Q134.58833 -29.12453 134.37463 -29.62317Q134.23217 -29.97933 133.2349 -29.97933Q131.81023 -30.1218 131.02666 -30.1218Q130.31432 -30.1218 128.88965 -29.97933Q128.31978 -29.9081 128.03485 -29.62317Q127.74992 -29.33823 127.60745 -28.69713Q127.46498 -28.12726 127.39375 -26.98753Q127.32252 -25.84779 127.03758 -24.99299Q126.89511 -24.63682 126.89511 -24.06695L126.96635 -22.99845Q126.96635 -21.57378 126.68141 -21.11076Q126.39648 -20.64774 125.39921 -20.29158ZM132.52256 -36.31912Q132.87873 -36.31912 133.09243 -36.53282Q133.2349 -36.67528 133.2349 -37.38762Q132.94996 -39.73832 132.94996 -42.0178Q132.94996 -44.22604 132.8075 -45.15207L132.52256 -48.35758Q132.52256 -49.56855 132.45133 -50.13842Q132.23763 -52.48912 131.95269 -53.91379Q131.59653 -56.0508 131.52529 -57.9741Q131.52529 -59.18507 131.38283 -59.32754Q131.24036 -59.61247 130.95542 -59.61247Q130.74172 -59.61247 130.56364 -59.22069Q130.38556 -58.82891 130.31432 -58.25904L130.10062 -56.33573Q129.67322 -53.20146 129.60199 -51.34939Q129.60199 -50.56582 129.53075 -49.8891Q129.45952 -49.21238 129.38829 -48.64251Q129.10335 -46.22057 129.03212 -44.08357Q129.03212 -42.6589 128.96089 -41.8041Q128.96089 -39.31092 128.88965 -37.88625Q128.88965 -37.81502 128.85404 -37.42324Q128.81842 -37.03145 128.96089 -36.81775Q129.24582 -36.39035 130.02939 -36.39035L131.16912 -36.39035Q131.95269 -36.39035 132.30886 -36.31912Z" fill="rgb(104, 190, 155)" transform="matrix(1 0 0 1 167.738932 82.987037)"/><path d="M155.3443 -65.73856Q155.05937 -62.24811 155.05937 -56.6919Q155.05937 -55.69463 154.98813 -51.95487Q154.9169 -48.21511 154.63197 -45.08084Q154.56073 -44.43974 154.56073 -43.15753Q154.56073 -41.8041 154.7032 -40.20134Q154.84567 -38.59859 154.9169 -38.02872Q155.3443 -34.39581 155.20183 -32.89991Q154.9169 -29.0533 157.05391 -28.05603Q158.19364 -27.48616 159.97448 -27.48616Q160.75805 -27.48616 161.18545 -27.5574Q161.54162 -27.62863 162.07587 -27.69986Q162.61012 -27.7711 163.39369 -27.7711Q164.74712 -27.7711 165.13891 -27.48616Q165.53069 -27.20123 166.02933 -26.34643Q166.67043 -25.42039 166.67043 -24.06695Q166.67043 -22.71352 165.95809 -21.14638Q165.67316 -20.50528 165.06767 -20.36281Q164.46219 -20.22034 163.46492 -20.22034Q162.25395 -20.22034 161.68408 -20.29158L156.55527 -20.36281Q153.99086 -20.36281 152.35249 -20.22034Q150.78536 -20.07788 149.50315 -21.64501Q149.14699 -22.07241 148.86205 -22.99845Q148.57712 -23.92449 148.57712 -24.77929L148.64835 -28.05603Q148.71958 -29.12453 148.71958 -31.26154Q148.71958 -33.25608 148.50588 -35.60678Q148.22095 -37.88625 148.22095 -41.30546Q148.22095 -43.58493 148.43465 -44.72467Q148.57712 -45.43701 148.57712 -47.71648L148.50588 -51.99049Q148.43465 -52.98776 148.43465 -54.41243Q148.36342 -56.54943 148.50588 -60.89468Q148.64835 -64.31389 148.64835 -66.02349Q148.64835 -70.2975 148.22095 -73.21807Q148.07848 -74.21534 148.07848 -74.64274Q148.07848 -76.06741 148.86205 -76.77975Q149.28945 -77.13592 150.17987 -77.27838Q151.07029 -77.42085 151.56893 -77.42085Q152.70866 -77.42085 153.17168 -77.17153Q153.6347 -76.92222 154.02648 -76.4592Q154.41827 -75.99618 154.63197 -75.78248Q155.41553 -74.92768 155.41553 -73.28931L155.48677 -68.94406Q155.48677 -67.87556 155.3443 -65.73856Z" fill="rgb(104, 190, 155)" transform="matrix(1 0 0 1 167.738932 82.987037)"/><path d="M-152.06756 17.53342Q-151.85386 15.46764 -153.56346 14.47037Q-154.4895 13.90051 -155.62924 13.90051Q-156.69774 13.90051 -157.41007 14.39914Q-158.54981 15.18271 -158.54981 16.89231Q-158.54981 18.03205 -158.15802 19.34987Q-157.76624 20.66769 -157.62377 21.09509Q-156.6265 24.3006 -153.27853 30.78285Q-151.07029 35.05686 -150.50042 36.33906Q-150.00179 37.62127 -149.21822 39.8295Q-148.14972 43.31995 -146.93875 45.74189Q-145.87024 47.80766 -145.37161 50.0159Q-144.87298 52.22413 -144.87298 54.00497Q-144.87298 56.85431 -146.4045 60.27352Q-147.93602 63.69273 -149.78809 64.61876Q-151.14152 65.3311 -152.45934 65.61603Q-153.77716 65.90097 -155.41553 65.90097Q-156.8402 65.90097 -157.69501 65.82973Q-160.11695 65.68727 -162.04025 63.94205Q-163.96356 62.19683 -164.81836 59.56119Q-165.24576 58.20775 -165.49508 56.96116Q-165.74439 55.71458 -165.74439 54.64607Q-165.74439 54.00497 -165.45946 51.58303Q-165.31699 50.51453 -164.74712 49.90905Q-164.17726 49.30356 -162.89505 48.51999Q-161.96902 47.95012 -160.90051 47.95012Q-159.76078 47.95012 -158.94159 48.69808Q-158.12241 49.44603 -157.90871 50.657Q-157.76624 51.65427 -157.76624 51.9392Q-157.76624 52.5803 -157.87309 53.39949Q-157.97994 54.21867 -157.97994 54.85977Q-157.97994 56.78308 -157.62377 57.92281Q-157.26761 59.06255 -155.91417 59.41872Q-155.70047 59.48995 -155.3443 59.48995Q-154.13333 59.48995 -153.24291 58.27898Q-152.35249 57.06801 -152.21003 55.99951Q-152.13879 55.64334 -152.13879 54.78854Q-152.13879 53.15017 -152.60181 51.33372Q-153.06483 49.51726 -153.99086 47.95012Q-154.41827 47.16656 -155.27307 44.95832Q-155.48677 44.38845 -155.84294 43.53365Q-156.1991 42.67884 -156.76897 41.39664Q-156.91144 41.11171 -157.73062 39.15279Q-158.54981 37.19386 -159.90325 35.27056Q-161.47038 33.13355 -162.18272 31.49518Q-162.89505 29.85681 -164.10602 25.86774Q-164.17726 25.51157 -164.31972 25.1554Q-164.46219 24.79923 -164.60466 24.3006Q-165.53069 21.30879 -165.53069 19.02932Q-165.53069 17.74712 -165.35261 15.82381Q-165.17453 13.90051 -164.74712 12.90324Q-163.10875 9.27033 -160.47311 8.13059Q-158.05117 7.20456 -155.27307 7.20456Q-154.13333 7.20456 -153.06483 7.41826Q-147.93602 8.41553 -146.22641 13.18817Q-145.79901 14.32791 -145.51408 15.89505Q-145.22914 17.46218 -145.22914 18.95809Q-145.22914 20.02659 -145.44284 21.02386Q-145.87024 23.0184 -147.15245 23.58826Q-148.57712 24.01567 -149.36069 24.01567Q-150.50042 24.01567 -151.42646 23.37456Q-152.21003 22.66223 -152.21003 19.88412Q-152.21003 18.53068 -152.06756 17.53342Z" fill="rgb(104, 190, 155)" transform="matrix(1 0 0 1 167.738932 82.987037)"/><path d="M-113.30074 13.90051Q-113.22951 14.47037 -113.22951 15.68134Q-113.22951 17.31972 -113.51445 20.88139Q-113.79938 24.44307 -113.79938 26.29514Q-113.79938 28.00474 -113.58568 29.71435Q-113.44321 30.49791 -113.08704 30.74723Q-112.73088 30.99655 -112.08977 30.99655Q-110.16647 30.99655 -109.24043 31.28148Q-108.67057 31.42395 -108.38563 31.42395Q-107.887 31.42395 -107.4596 31.21025Q-106.03493 30.56915 -106.03493 28.93078Q-106.03493 28.21844 -106.10616 27.86227Q-106.17739 27.07871 -106.17739 25.3691Q-106.17739 23.8732 -106.03493 20.59646Q-105.89246 17.46218 -105.89246 15.96628L-105.96369 13.18817Q-106.03493 12.47584 -106.03493 11.19363Q-106.03493 9.4128 -105.39383 8.84293Q-104.04039 7.77443 -102.25955 7.77443Q-101.33352 7.77443 -99.98008 8.70046Q-99.41021 9.05663 -99.26774 9.69773Q-99.12528 10.33883 -99.12528 10.94432Q-99.12528 11.5498 -99.12528 11.69227L-99.19651 14.25667L-99.19651 17.88958Q-99.19651 21.02386 -99.41021 22.66223Q-100.05131 28.43214 -100.05131 34.48699Q-100.05131 39.6158 -99.55268 44.03228Q-99.19651 47.30902 -99.19651 51.86797Q-99.19651 54.93101 -99.26774 56.42691Q-99.26774 57.49541 -99.30336 58.99132Q-99.33898 60.48722 -99.26774 62.33929L-99.19651 63.69273Q-99.19651 64.61876 -99.62391 64.97493Q-100.12255 65.25987 -101.33352 65.1174Q-102.04585 64.97493 -102.68695 65.01055Q-103.32805 65.04617 -103.82669 65.04617Q-105.39383 65.04617 -105.67876 62.55299Q-105.96369 59.98859 -105.96369 56.28444Q-105.96369 52.86524 -105.74999 49.44603Q-105.60753 45.02955 -105.60753 42.96378Q-105.60753 40.96924 -106.03493 39.65142Q-106.46233 38.3336 -107.74453 37.6925Q-108.45687 37.33633 -109.5966 37.33633Q-110.2377 37.33633 -111.51991 37.4788Q-112.65964 37.55003 -113.01581 38.08428Q-113.37198 38.61853 -113.37198 39.90074L-113.44321 45.02955Q-113.44321 46.88162 -113.37198 47.80766Q-113.30074 48.51999 -113.30074 50.0159Q-113.30074 51.36933 -113.44321 54.07621Q-113.58568 56.49814 -113.58568 57.63788Q-113.58568 58.49268 -113.44321 59.91735L-113.37198 61.76942Q-113.37198 62.62423 -113.58568 63.12286Q-113.79938 63.6215 -114.36925 64.0489Q-114.79665 64.40506 -115.36652 64.76123Q-115.93638 65.1174 -116.43502 65.1174L-118.00216 65.18863Q-119.28436 65.18863 -119.85423 64.4763Q-120.28163 63.8352 -120.28163 62.73108Q-120.28163 61.62696 -120.28163 61.48449L-120.28163 52.86524Q-120.28163 51.58303 -119.99669 48.73369Q-119.92546 48.16382 -119.78299 46.4186Q-119.64053 44.67338 -119.71176 43.17748Q-119.99669 32.27875 -119.99669 19.10055L-119.99669 12.6183Q-119.99669 10.41006 -119.71176 9.34156Q-119.42683 8.48676 -118.50079 8.13059Q-118.21586 7.98813 -117.57476 7.98813Q-117.07612 7.98813 -116.07885 8.13059Q-115.36652 8.34429 -114.58295 8.34429Q-114.08431 8.34429 -113.76376 8.70046Q-113.44321 9.05663 -113.44321 9.6265Q-113.44321 11.05117 -113.30074 13.90051Z" fill="rgb(104, 190, 155)" transform="matrix(1 0 0 1 167.738932 82.987037)"/><path d="M-70.11745 65.18863Q-70.47362 65.3311 -71.25719 65.3311Q-72.04076 65.3311 -72.64624 65.25987Q-73.25173 65.18863 -73.67913 65.1174Q-73.96406 65.1174 -74.32023 64.93932Q-74.6764 64.76123 -74.74763 64.4763Q-75.1038 63.69273 -74.96133 62.83793L-74.60516 60.84339L-74.32023 59.06255Q-73.75036 55.21594 -73.42981 52.5803Q-73.10926 49.94466 -73.03803 47.02409Q-72.96679 45.24325 -72.39692 41.53911Q-71.82706 38.40483 -71.75582 36.8377Q-71.61336 33.98836 -70.75855 28.43214Q-70.18869 24.3006 -69.97498 22.30606Q-69.69005 18.74439 -69.61882 17.46218Q-69.47635 14.25667 -69.26265 12.6183Q-69.12018 11.26487 -68.9421 10.55253Q-68.76402 9.8402 -68.19415 9.27033Q-67.05441 8.13059 -64.70371 8.13059Q-63.35027 8.13059 -62.28177 8.41553Q-62.1393 8.41553 -61.81875 8.48676Q-61.4982 8.55799 -61.2845 8.70046Q-60.71463 9.12786 -60.50093 9.8402Q-60.07353 11.05117 -59.93106 13.68681L-59.78859 15.39641Q-59.36119 18.60192 -58.72009 21.45126Q-58.64886 22.02113 -58.36392 23.51703L-57.93652 25.7965Q-56.51185 33.63219 -56.29815 37.55003L-56.15568 41.75281Q-56.15568 43.24871 -56.01322 45.95559Q-55.94198 46.66792 -55.65705 48.59123Q-55.58582 49.37479 -55.44335 50.4433Q-55.30088 51.5118 -55.15842 53.07894L-54.87348 56.28444Q-54.44608 59.84612 -54.44608 61.62696Q-54.44608 63.05163 -54.51731 63.76396Q-54.58855 64.54753 -55.22965 64.93932Q-55.87075 65.3311 -56.86802 65.18863L-57.93652 65.1174Q-59.07626 65.1174 -59.75298 64.93932Q-60.42969 64.76123 -60.50093 63.97766Q-60.57216 63.4078 -60.6434 62.65984Q-60.71463 61.91189 -60.8571 60.91462Q-60.99956 59.48995 -60.99956 58.92008L-60.92833 57.13925Q-60.92833 56.35568 -61.14203 55.85704Q-61.2845 55.50088 -62.28177 55.50088Q-63.70644 55.35841 -64.49 55.35841Q-65.20234 55.35841 -66.62701 55.50088Q-67.19688 55.57211 -67.48181 55.85704Q-67.76675 56.14198 -67.90921 56.78308Q-68.05168 57.35295 -68.12291 58.49268Q-68.19415 59.63242 -68.47908 60.48722Q-68.62155 60.84339 -68.62155 61.41326L-68.55031 62.48176Q-68.55031 63.90643 -68.83525 64.36945Q-69.12018 64.83247 -70.11745 65.18863ZM-62.9941 49.16109Q-62.63793 49.16109 -62.42423 48.94739Q-62.28177 48.80493 -62.28177 48.09259Q-62.5667 45.74189 -62.5667 43.46241Q-62.5667 41.25417 -62.70917 40.32814L-62.9941 37.12263Q-62.9941 35.91166 -63.06533 35.34179Q-63.27904 32.99109 -63.56397 31.56642Q-63.92014 29.42941 -63.99137 27.50611Q-63.99137 26.29514 -64.13384 26.15267Q-64.2763 25.86774 -64.56124 25.86774Q-64.77494 25.86774 -64.95302 26.25952Q-65.13111 26.6513 -65.20234 27.22117L-65.41604 29.14448Q-65.84344 32.27875 -65.91468 34.13082Q-65.91468 34.91439 -65.98591 35.59111Q-66.05714 36.26783 -66.12838 36.8377Q-66.41331 39.25964 -66.48454 41.39664Q-66.48454 42.82131 -66.55578 43.67611Q-66.55578 46.16929 -66.62701 47.59396Q-66.62701 47.66519 -66.66263 48.05697Q-66.69824 48.44876 -66.55578 48.66246Q-66.27084 49.08986 -65.48727 49.08986L-64.34754 49.08986Q-63.56397 49.08986 -63.2078 49.16109Z" fill="rgb(104, 190, 155)" transform="matrix(1 0 0 1 167.738932 82.987037)"/><path d="M-23.23002 65.82973Q-26.22182 64.9037 -27.57526 63.4078Q-28.9287 61.91189 -29.64103 58.77762Q-30.35337 55.42964 -30.35337 49.23233Q-30.35337 47.09532 -30.2109 44.53092Q-29.9972 40.89801 -29.9972 36.624L-30.06843 27.93351Q-30.06843 25.5828 -29.92597 22.87593Q-29.85473 21.73619 -29.85473 19.45672Q-29.85473 16.10875 -29.5698 14.54161Q-28.99993 11.05117 -25.29579 8.48676Q-23.58618 7.27579 -20.02451 7.27579Q-17.10394 7.27579 -13.39979 8.91416Q-11.97512 9.55526 -11.19155 11.08678Q-10.40799 12.6183 -10.26552 14.47037Q-10.19428 15.32518 -9.90935 17.17725Q-9.55318 20.02659 -9.55318 20.73892Q-9.55318 22.09236 -9.83812 23.16086Q-10.12305 24.0869 -10.40799 24.37183Q-10.69292 24.65677 -11.76142 25.29787Q-12.33129 25.65404 -13.32856 25.65404Q-14.25459 25.65404 -15.07378 25.22663Q-15.89297 24.79923 -15.9642 24.15813Q-16.10667 23.0184 -16.10667 22.59099L-16.03543 20.09782Q-16.03543 18.74439 -16.24913 18.03205Q-16.3916 17.53342 -16.53407 16.643Q-16.67653 15.75258 -16.99709 15.18271Q-17.31764 14.61284 -17.8875 14.32791Q-18.81354 13.97174 -19.66834 13.97174Q-21.30671 13.97174 -22.23275 15.04024Q-22.73138 15.68134 -22.94508 16.46491Q-23.15878 17.24848 -23.30125 18.21013Q-23.44372 19.17179 -23.58618 19.81289Q-23.79989 20.59646 -23.79989 22.09236Q-23.79989 23.4458 -23.72865 24.44307Q-23.65742 25.44034 -23.58618 26.15267L-23.51495 28.36091Q-23.37248 32.20752 -23.37248 34.41576Q-23.37248 36.55276 -23.44372 37.62127L-23.51495 39.25964Q-23.51495 40.39937 -23.37248 42.67884L-23.30125 44.38845Q-23.30125 45.52818 -23.15878 47.66519Q-23.01632 50.37206 -23.01632 51.5118Q-23.01632 52.3666 -23.08755 53.11455Q-23.15878 53.86251 -23.15878 54.43237Q-23.15878 55.57211 -22.62453 56.64061Q-22.09028 57.70911 -21.16425 58.49268Q-20.59438 58.92008 -20.09574 58.92008Q-19.38341 58.92008 -18.67107 58.3146Q-17.95874 57.70911 -17.4601 56.92555Q-16.53407 55.35841 -16.53407 53.15017Q-16.53407 51.7255 -16.6053 51.01316Q-16.74777 49.16109 -16.6053 47.45149Q-16.24913 44.74462 -13.89843 44.74462Q-13.25733 44.74462 -12.40252 45.10078Q-11.54772 45.45695 -11.04909 45.59942Q-10.40799 45.74189 -10.12305 46.13367Q-9.83812 46.52545 -9.76688 47.30902Q-9.48195 50.8707 -9.48195 52.65154Q-9.48195 54.28991 -9.69565 55.92828L-10.33675 59.56119Q-10.76415 61.69819 -12.04636 63.05163Q-13.32856 64.40506 -15.1094 64.9037Q-18.88477 66.04343 -21.37795 66.04343Q-22.37521 66.04343 -23.23002 65.82973Z" fill="rgb(104, 190, 155)" transform="matrix(1 0 0 1 167.738932 82.987037)"/><path d="M22.30398 15.11148Q22.01905 17.39095 22.01905 21.52249Q22.01905 25.72527 21.73411 28.07597L21.73411 28.36091Q21.73411 28.85954 21.98343 29.03763Q22.23275 29.21571 22.44645 29.07324Q23.08755 28.78831 23.44372 28.00474L24.29852 26.29514Q25.58072 23.94443 26.36429 22.02113Q27.14786 20.09782 27.36156 18.17452Q27.57526 16.03751 28.0739 14.25667Q28.57253 12.47584 29.42733 10.19636Q30.2109 7.98813 31.7068 8.13059Q32.41914 8.20183 33.27394 8.05936Q34.12874 7.91689 34.69861 7.91689Q35.26848 7.91689 35.90958 8.13059Q36.62192 8.41553 36.62192 9.27033Q36.62192 9.8402 36.55068 10.12513Q36.33698 11.26487 35.19725 14.04297Q34.62738 15.32518 34.05751 16.82108Q33.48764 18.31698 33.20271 19.81289Q31.92051 26.15267 30.2109 29.92805Q29.28487 32.06505 29.28487 33.34725Q29.28487 34.27329 29.85473 36.12536Q31.4931 42.18021 32.13421 47.02409Q32.41914 49.44603 33.27394 52.08167Q34.12874 54.71731 34.34244 55.35841Q35.05478 57.28171 35.62465 59.34749Q35.69588 59.70365 36.26575 60.84339Q36.90685 61.98312 36.90685 63.12286Q36.90685 64.33383 35.33971 64.9037Q34.69861 65.1174 34.05751 65.1174Q32.98901 65.1174 31.4931 64.61876Q30.852 64.40506 30.49583 63.8352Q30.13967 63.26533 29.7835 62.26806Q28.99993 60.05982 28.57253 58.42145L27.36156 54.71731Q26.79169 53.07894 26.15059 50.4433Q25.50949 47.80766 25.15332 45.38572Q24.58345 42.25144 23.79989 41.75281Q23.51495 41.53911 23.23002 41.53911Q22.73138 41.53911 22.5533 42.35829Q22.37521 43.17748 22.30398 44.81585Q22.30398 45.67065 22.16151 46.66792Q22.01905 47.45149 22.01905 49.44603Q22.01905 53.29264 21.87658 56.71185Q21.80535 57.42418 21.80535 58.70638L21.87658 60.84339Q22.01905 62.55299 22.01905 63.55026Q22.01905 64.40506 21.66288 64.76123Q21.30671 65.1174 20.45191 65.1174L17.95874 65.1174Q16.89023 65.1174 16.46283 64.83247Q15.67927 64.2626 15.46556 61.98312Q15.39433 60.84339 15.5368 58.49268L15.60803 55.64334L15.5368 49.51726Q15.5368 47.66519 15.60803 46.66792Q15.89297 42.67884 15.89297 37.55003Q15.89297 32.84862 15.60803 29.14448Q15.3231 25.51157 15.3231 21.23756L15.39433 14.32791L15.3231 10.2676Q15.3231 9.27033 15.50118 8.80731Q15.67927 8.34429 16.32037 8.05936Q16.74777 7.84566 17.2464 7.84566Q17.74504 7.84566 17.95874 7.91689Q18.38614 8.05936 19.02724 8.09498Q19.66834 8.13059 20.09574 8.20183Q21.02178 8.34429 21.41356 8.80731Q21.80535 9.27033 21.94781 10.2676Q22.37521 12.68954 22.37521 13.90051Q22.37521 14.68408 22.30398 15.11148Z" fill="rgb(104, 190, 155)" transform="matrix(1 0 0 1 167.738932 82.987037)"/><path d="M68.12291 19.74165Q67.83798 23.2321 67.83798 28.78831Q67.83798 29.78558 67.76675 33.52534Q67.69551 37.2651 67.41058 40.39937Q67.33935 41.04047 67.33935 42.32268Q67.33935 43.67611 67.48181 45.27887Q67.62428 46.88162 67.69551 47.45149Q68.12291 51.0844 67.98045 52.5803Q67.69551 56.42691 69.83252 57.42418Q70.97225 57.99405 72.75309 57.99405Q73.53666 57.99405 73.96406 57.92281Q74.32023 57.85158 74.85448 57.78035Q75.38873 57.70911 76.1723 57.70911Q77.52574 57.70911 77.91752 57.99405Q78.30931 58.27898 78.80794 59.13378Q79.44904 60.05982 79.44904 61.41326Q79.44904 62.76669 78.73671 64.33383Q78.45177 64.97493 77.84629 65.1174Q77.2408 65.25987 76.24353 65.25987Q75.03256 65.25987 74.4627 65.18863L69.33388 65.1174Q66.76948 65.1174 65.13111 65.25987Q63.56397 65.40233 62.28177 63.8352Q61.9256 63.4078 61.64066 62.48176Q61.35573 61.55572 61.35573 60.70092L61.42696 57.42418Q61.4982 56.35568 61.4982 54.21867Q61.4982 52.22413 61.2845 49.87343Q60.99956 47.59396 60.99956 44.17475Q60.99956 41.89528 61.21326 40.75554Q61.35573 40.0432 61.35573 37.76373L61.2845 33.48972Q61.21326 32.49245 61.21326 31.06778Q61.14203 28.93078 61.2845 24.58553Q61.42696 21.16632 61.42696 19.45672Q61.42696 15.18271 60.99956 12.26214Q60.8571 11.26487 60.8571 10.83747Q60.8571 9.4128 61.64066 8.70046Q62.06807 8.34429 62.95848 8.20183Q63.8489 8.05936 64.34754 8.05936Q65.48727 8.05936 65.95029 8.30868Q66.41331 8.55799 66.80509 9.02101Q67.19688 9.48403 67.41058 9.69773Q68.19415 10.55253 68.19415 12.1909L68.26538 16.53615Q68.26538 17.60465 68.12291 19.74165Z" fill="rgb(104, 190, 155)" transform="matrix(1 0 0 1 167.738932 82.987037)"/><path d="M113.65691 7.98813Q114.22678 8.13059 116.15008 8.13059Q119.14189 8.13059 119.92546 8.27306Q120.78026 8.48676 121.24328 9.4128Q121.7063 10.33883 122.06247 12.1909Q122.1337 12.4046 122.1337 12.97447Q122.1337 13.61557 121.88438 14.18544Q121.63507 14.75531 121.20766 15.04024Q120.99396 15.18271 120.35286 15.18271Q119.56929 15.18271 119.28436 15.11148Q117.93092 15.04024 116.15008 15.25394Q113.79938 15.53888 112.23224 15.39641Q111.23497 15.32518 110.91442 15.57449Q110.59387 15.82381 110.59387 16.39368Q110.59387 17.60465 110.52264 18.53068Q110.38017 21.09509 110.38017 22.87593Q110.38017 25.86774 110.73634 27.29241Q110.80757 27.57734 110.91442 28.32529Q111.02127 29.07324 111.37744 29.42941Q111.87607 29.78558 112.44594 29.89243Q113.01581 29.99928 113.94185 29.99928Q114.51171 29.99928 114.93912 29.92805Q115.36652 29.85681 115.72268 29.85681Q116.36379 29.85681 117.00489 30.14175Q117.50352 30.35545 117.75284 30.56915Q118.00216 30.78285 118.28709 31.35272Q118.64326 32.06505 118.60764 33.20479Q118.57202 34.34452 118.57202 34.62946Q118.57202 36.69523 115.22405 36.69523Q114.79665 36.69523 114.29801 36.624Q113.79938 36.55276 113.30074 36.55276Q112.80211 36.55276 112.37471 36.69523Q111.30621 37.12263 111.05689 37.37195Q110.80757 37.62127 110.80757 38.5473Q110.80757 39.54457 110.87881 40.11444L110.95004 42.39391Q110.95004 43.03501 110.80757 44.60215Q110.73634 45.17202 110.73634 46.45422L110.80757 50.15836Q110.80757 53.79127 110.2377 56.42691Q110.09524 57.06801 110.48702 57.4598Q110.87881 57.85158 111.66237 57.85158Q112.23224 57.85158 112.51718 57.78035Q113.58568 57.56665 114.51171 57.56665Q115.72268 57.56665 116.79119 57.78035Q118.07339 57.92281 118.71449 57.92281Q119.71176 57.92281 120.35286 58.27898Q121.35013 58.92008 121.7063 59.56119Q122.06247 60.20229 121.92 61.84066Q121.84877 62.55299 121.4926 63.30094Q121.13643 64.0489 120.56656 64.54753Q119.64053 65.40233 117.78846 65.1174Q116.50625 64.9037 115.15282 64.9037Q114.01308 64.9037 111.73361 65.04617Q109.95277 65.25987 108.24317 65.25987Q106.88973 65.25987 105.67876 65.04617Q104.32532 64.83247 103.75545 64.36945Q103.18559 63.90643 103.25682 62.76669Q103.75545 57.78035 103.75545 52.93647Q103.75545 50.79946 103.68422 49.73096Q103.39929 43.96105 103.39929 31.56642Q103.39929 30.71161 103.47052 29.53626Q103.54175 28.36091 103.61299 27.79104Q103.68422 26.93624 103.75545 25.76089Q103.82669 24.58553 103.82669 23.0184Q103.82669 21.87866 103.75545 20.48961Q103.68422 19.10055 103.61299 18.38822Q103.39929 16.25121 103.39929 14.11421Q103.39929 13.25941 103.54175 11.40733Q103.68422 9.91143 104.53902 9.05663Q105.39383 8.20183 106.8185 8.20183Q108.3144 8.20183 110.4514 8.05936Q112.16101 7.91689 112.65964 7.91689Q113.37198 7.91689 113.65691 7.98813Z" fill="rgb(104, 190, 155)" transform="matrix(1 0 0 1 167.738932 82.987037)"/><path d="M158.69228 17.53342Q158.90598 15.46764 157.19637 14.47037Q156.27034 13.90051 155.1306 13.90051Q154.0621 13.90051 153.34976 14.39914Q152.21003 15.18271 152.21003 16.89231Q152.21003 18.03205 152.60181 19.34987Q152.9936 20.66769 153.13606 21.09509Q154.13333 24.3006 157.48131 30.78285Q159.68955 35.05686 160.25941 36.33906Q160.75805 37.62127 161.54162 39.8295Q162.61012 43.31995 163.82109 45.74189Q164.88959 47.80766 165.38823 50.0159Q165.88686 52.22413 165.88686 54.00497Q165.88686 56.85431 164.35534 60.27352Q162.82382 63.69273 160.97175 64.61876Q159.61831 65.3311 158.30049 65.61603Q156.98267 65.90097 155.3443 65.90097Q153.91963 65.90097 153.06483 65.82973Q150.64289 65.68727 148.71958 63.94205Q146.79628 62.19683 145.94148 59.56119Q145.51408 58.20775 145.26476 56.96116Q145.01544 55.71458 145.01544 54.64607Q145.01544 54.00497 145.30038 51.58303Q145.44284 50.51453 146.01271 49.90905Q146.58258 49.30356 147.86478 48.51999Q148.79082 47.95012 149.85932 47.95012Q150.99906 47.95012 151.81824 48.69808Q152.63743 49.44603 152.85113 50.657Q152.9936 51.65427 152.9936 51.9392Q152.9936 52.5803 152.88675 53.39949Q152.77989 54.21867 152.77989 54.85977Q152.77989 56.78308 153.13606 57.92281Q153.49223 59.06255 154.84567 59.41872Q155.05937 59.48995 155.41553 59.48995Q156.6265 59.48995 157.51692 58.27898Q158.40734 57.06801 158.54981 55.99951Q158.62104 55.64334 158.62104 54.78854Q158.62104 53.15017 158.15802 51.33372Q157.69501 49.51726 156.76897 47.95012Q156.34157 47.16656 155.48677 44.95832Q155.27307 44.38845 154.9169 43.53365Q154.56073 42.67884 153.99086 41.39664Q153.8484 41.11171 153.02921 39.15279Q152.21003 37.19386 150.85659 35.27056Q149.28945 33.13355 148.57712 31.49518Q147.86478 29.85681 146.65381 25.86774Q146.58258 25.51157 146.44011 25.1554Q146.29765 24.79923 146.15518 24.3006Q145.22914 21.30879 145.22914 19.02932Q145.22914 17.74712 145.40723 15.82381Q145.58531 13.90051 146.01271 12.90324Q147.65108 9.27033 150.28672 8.13059Q152.70866 7.20456 155.48677 7.20456Q156.6265 7.20456 157.69501 7.41826Q162.82382 8.41553 164.53342 13.18817Q164.96082 14.32791 165.24576 15.89505Q165.53069 17.46218 165.53069 18.95809Q165.53069 20.02659 165.31699 21.02386Q164.88959 23.0184 163.60739 23.58826Q162.18272 24.01567 161.39915 24.01567Q160.25941 24.01567 159.33338 23.37456Q158.54981 22.66223 158.54981 19.88412Q158.54981 18.53068 158.69228 17.53342Z" fill="rgb(104, 190, 155)" transform="matrix(1 0 0 1 167.738932 82.987037)"/></g></g>

  </svg>