<svg xmlns="http://www.w3.org/2000/svg" xmlns:xlink="http://www.w3.org/1999/xlink" width="114px" height="60px" viewBox="0 0 114.42280599999867 60.16552165293854">
    <g style="" id="fbc8f57b-2d59-4472-85c4-76df84543468">
<g style=""><path d="M8.07296 -19.60431Q7.35861 -19.60431 7.35861 -17.55948Q7.35861 -16.48795 7.51934 -15.89415Q7.68007 -15.30034 7.78722 -15.11283L7.94795 -14.89852Q8.16226 -14.60385 8.16226 -14.52349Q8.16226 -14.21989 7.71579 -14.11274Q7.26932 -14.00558 5.59952 -14.00558Q3.92973 -14.00558 3.92973 -14.35383Q3.92973 -14.58599 4.44763 -14.94317Q4.96554 -15.30034 5.08608 -16.0013Q5.20663 -16.70226 5.20663 -20.21151Q5.20663 -23.72076 5.06822 -24.40386Q4.92982 -25.08696 4.5905 -25.4352L4.3762 -25.63165Q4.00116 -25.97097 4.00116 -26.03347Q4.00116 -26.4978 5.67989 -26.4978L6.08171 -26.48887L6.50139 -26.48887Q8.25155 -26.48887 8.25155 -26.11384Q8.25155 -25.93525 7.97028 -25.57807Q7.689 -25.2209 7.6265 -24.9798Q7.39433 -24.13151 7.39433 -21.83666Q7.39433 -20.89014 7.75151 -20.89014Q7.89438 -20.89014 8.27834 -21.19374Q9.15342 -21.88131 10.34103 -23.31447Q11.52864 -24.74764 11.52864 -25.30126L11.51078 -25.54236L11.4572 -25.76559L11.41256 -25.9799Q11.41256 -26.26564 11.74294 -26.35493Q12.07333 -26.44422 13.10021 -26.44422Q14.67178 -26.44422 14.67178 -25.99775Q14.67178 -25.8906 13.76545 -25.24322Q12.85912 -24.59584 12.05547 -23.73862Q10.1178 -21.67593 10.1178 -21.02408Q10.1178 -20.66691 13.02878 -16.87192Q13.75206 -15.93433 14.57356 -15.22444Q15.39507 -14.51456 15.39507 -14.40741Q15.39507 -13.99665 13.71634 -13.99665L13.32345 -13.99665Q12.40372 -13.99665 12.10012 -14.27793Q11.79652 -14.5592 11.60007 -15.06818Q11.18039 -16.15757 9.92135 -17.88094Q8.6623 -19.60431 8.07296 -19.60431Z" fill="rgb(255, 255, 255)" transform="matrix(1 0 0 1 57.211403 30.082761)"/><path d="M21.77958 -26.06919Q21.77958 -25.89953 21.26614 -25.56914Q20.7527 -25.23876 20.63215 -24.67174Q20.51161 -24.10472 20.51161 -20.18026Q20.51161 -16.25579 20.65894 -15.68877Q20.80628 -15.12176 21.31079 -14.84048Q21.8153 -14.5592 21.8153 -14.31811Q21.8153 -13.98772 21.00272 -13.98772L20.80628 -13.99665L20.39552 -14.00558Q20.19015 -14.01451 19.98477 -14.01451L19.59188 -14.03237L18.38641 -14.03237Q16.93092 -14.03237 16.93092 -14.29132L16.93092 -14.41633Q16.93092 -14.58599 17.50687 -14.92085Q18.08281 -15.2557 18.22568 -15.86736Q18.36855 -16.47902 18.36855 -20.23383Q18.36855 -23.98864 18.19889 -24.61816Q18.02924 -25.24769 17.66313 -25.44413Q16.93092 -25.84595 16.93092 -26.05133Q16.93092 -26.39958 19.6901 -26.39958L20.67234 -26.41744L21.25275 -26.41744Q21.77958 -26.41744 21.77958 -26.06919Z" fill="rgb(255, 255, 255)" transform="matrix(1 0 0 1 57.211403 30.082761)"/><path d="M34.14679 -24.5244L34.14679 -24.24759Q34.14679 -23.51538 33.70925 -23.51538Q33.58423 -23.51538 33.1333 -24.12705Q32.68237 -24.73871 32.2225 -24.99766Q31.76264 -25.25662 31.03489 -25.25662Q30.30715 -25.25662 30.10624 -25.09589Q29.90533 -24.93516 29.8205 -24.44404Q29.73567 -23.95292 29.73567 -20.18472Q29.73567 -16.41652 29.86514 -15.85397Q29.99462 -15.29141 30.54824 -14.89852Q31.10186 -14.50563 31.10186 -14.25114Q31.10186 -13.99665 30.2625 -13.99665L29.9589 -14.00558L29.36956 -14.01451Q29.06596 -14.02344 28.78022 -14.02344L27.91407 -14.03237Q26.78004 -14.03237 26.47197 -14.09041Q26.16391 -14.14845 26.16391 -14.45205Q26.16391 -14.60385 26.73986 -14.96996Q27.3158 -15.33606 27.46314 -15.9388Q27.61047 -16.54153 27.61047 -20.4526Q27.61047 -24.36368 27.50332 -24.74764Q27.36045 -25.24769 26.50769 -25.24769Q25.65494 -25.24769 25.19061 -24.97534Q24.72628 -24.70299 24.29767 -24.06008Q23.86906 -23.41716 23.51188 -23.41716Q23.244 -23.41716 23.244 -23.90828L23.244 -24.17616Q23.244 -26.09598 23.57439 -26.32814Q23.6994 -26.41744 28.85166 -26.41744L33.10205 -26.43529Q33.77175 -26.43529 33.95927 -26.08705Q34.14679 -25.7388 34.14679 -24.5244Z" fill="rgb(255, 255, 255)" transform="matrix(1 0 0 1 57.211403 30.082761)"/><path d="M45.96037 -24.5244L45.96037 -24.24759Q45.96037 -23.51538 45.52283 -23.51538Q45.39782 -23.51538 44.94688 -24.12705Q44.49595 -24.73871 44.03609 -24.99766Q43.57622 -25.25662 42.84848 -25.25662Q42.12073 -25.25662 41.91982 -25.09589Q41.71891 -24.93516 41.63408 -24.44404Q41.54925 -23.95292 41.54925 -20.18472Q41.54925 -16.41652 41.67873 -15.85397Q41.8082 -15.29141 42.36183 -14.89852Q42.91545 -14.50563 42.91545 -14.25114Q42.91545 -13.99665 42.07609 -13.99665L41.77249 -14.00558L41.18315 -14.01451Q40.87955 -14.02344 40.59381 -14.02344L39.72766 -14.03237Q38.59362 -14.03237 38.28556 -14.09041Q37.97749 -14.14845 37.97749 -14.45205Q37.97749 -14.60385 38.55344 -14.96996Q39.12939 -15.33606 39.27672 -15.9388Q39.42406 -16.54153 39.42406 -20.4526Q39.42406 -24.36368 39.3169 -24.74764Q39.17403 -25.24769 38.32128 -25.24769Q37.46852 -25.24769 37.00419 -24.97534Q36.53986 -24.70299 36.11125 -24.06008Q35.68264 -23.41716 35.32547 -23.41716Q35.05758 -23.41716 35.05758 -23.90828L35.05758 -24.17616Q35.05758 -26.09598 35.38797 -26.32814Q35.51298 -26.41744 40.66524 -26.41744L44.91563 -26.43529Q45.58534 -26.43529 45.77285 -26.08705Q45.96037 -25.7388 45.96037 -24.5244Z" fill="rgb(255, 255, 255)" transform="matrix(1 0 0 1 57.211403 30.082761)"/><path d="M53.03245 -13.98772L52.76457 -13.98772L52.49668 -13.99665L51.16621 -13.99665Q47.99627 -13.99665 47.74625 -14.0413Q47.28192 -14.12166 47.28192 -14.43419Q47.28192 -14.56813 47.76857 -14.90745Q48.25522 -15.24677 48.40256 -15.88522Q48.54989 -16.52367 48.54989 -20.57761Q48.54989 -24.63156 48.44721 -24.98427Q48.34452 -25.33698 47.92484 -25.51557Q47.26406 -25.80131 47.26406 -26.12277Q47.26406 -26.44422 48.26415 -26.44422L48.79992 -26.44422L49.05887 -26.43529L49.86251 -26.42637Q52.02343 -26.42637 52.02343 -26.10491Q52.02343 -25.99775 51.38944 -25.38163Q51.03226 -25.03338 50.876 -24.18955Q50.71974 -23.34573 50.71974 -19.6936Q50.71974 -16.04148 50.83135 -15.70217Q50.94297 -15.36285 51.35372 -15.22891Q51.60375 -15.14854 52.33596 -15.14854Q53.91646 -15.14854 54.70224 -15.5593Q55.14871 -15.79146 55.66662 -16.51474Q56.18452 -17.23802 56.47473 -17.23802Q56.76493 -17.23802 56.76493 -16.86299L56.76493 -16.63082Q56.76493 -14.66636 56.28275 -14.22882Q56.01486 -13.98772 53.03245 -13.98772Z" fill="rgb(255, 255, 255)" transform="matrix(1 0 0 1 57.211403 30.082761)"/><path d="M-17.76869 0.44967L-17.76869 0.3961Q-17.76869 -0.44327 -19.20632 -3.80072Q-19.45635 -4.38113 -19.46528 -4.38113L-19.72423 -3.78286Q-21.20651 -0.32718 -21.20651 0.41396Q-21.20651 0.53897 -21.05024 0.5479Q-20.89398 0.55683 -20.81361 0.55683L-20.11712 0.57468L-19.48314 0.57468L-19.42063 0.56575Q-17.76869 0.56575 -17.76869 0.44967ZM-25.2158 5.20904Q-25.2158 4.9858 -24.70683 4.69113Q-24.19785 4.39646 -23.95676 3.94106Q-23.71567 3.48567 -23.27813 2.29359Q-22.84059 1.10152 -22.08605 -0.71115Q-21.33152 -2.52381 -20.88951 -3.96591Q-20.44751 -5.40801 -20.28678 -5.79197Q-19.92068 -6.66705 -19.25097 -6.66705L-19.00095 -6.66705Q-18.83129 -6.66705 -18.58127 -6.47953Q-18.07229 -6.09557 -17.51867 -4.83653Q-17.33115 -4.40792 -16.95612 -3.36764Q-16.58108 -2.32737 -15.45598 0.6997Q-14.33088 3.72676 -14.19694 3.99464Q-13.9737 4.45897 -13.43794 4.74025Q-12.90217 5.02152 -12.90217 5.19118Q-12.90217 5.56621 -13.34864 5.65551Q-13.65224 5.71801 -14.8845 5.71801L-15.4024 5.72694Q-17.05434 5.72694 -17.05434 5.28047Q-17.05434 5.20011 -16.8445 4.89651Q-16.63466 4.59291 -16.63466 4.12858Q-16.63466 3.66425 -16.96951 2.7981Q-17.30436 1.93195 -17.53206 1.72658Q-17.75976 1.5212 -19.47421 1.5212Q-21.18865 1.5212 -21.47439 1.70872Q-21.76013 1.89623 -22.09052 2.71774Q-22.42091 3.53924 -22.42091 4.05268Q-22.42091 4.56612 -22.10391 4.95902Q-21.78692 5.35191 -21.78692 5.36977Q-21.78692 5.69123 -22.88077 5.69123Q-23.97462 5.69123 -24.59521 5.6064Q-25.2158 5.52157 -25.2158 5.20904Z" fill="rgb(255, 255, 255)" transform="matrix(1 0 0 1 57.211403 30.082761)"/><path d="M-8.14281 -4.47042L-8.14281 -1.08618Q-8.14281 -0.46113 -7.97315 -0.27807Q-7.80349 -0.09502 -7.14272 -0.09502L-6.72304 -0.09502Q-5.54436 -0.09502 -4.81661 -0.82277Q-4.08887 -1.55051 -4.08887 -2.81848L-4.08887 -3.11315Q-4.08887 -4.40792 -4.86572 -5.12227Q-5.64258 -5.83662 -6.99092 -5.83662L-7.07128 -5.83662Q-7.83921 -5.83662 -7.99101 -5.63124Q-8.14281 -5.42587 -8.14281 -4.47042ZM-7.24987 -6.78313L-6.29443 -6.78313Q-3.13342 -6.78313 -2.20476 -4.88117Q-1.85652 -4.16682 -1.85652 -3.30067L-1.85652 -3.05065Q-1.85652 -3.05065 -1.85652 -3.03279Q-1.85652 -1.33621 -3.34773 -0.29147Q-4.41032 0.44967 -6.63374 0.61933Q-7.58026 0.69077 -7.7767 0.914Q-8.08923 1.26225 -8.08923 2.58826Q-8.08923 3.91428 -7.81242 4.30717Q-7.67848 4.49469 -7.20969 4.77596Q-6.74089 5.05724 -6.74089 5.20904Q-6.74089 5.6823 -7.89279 5.6823L-10.15192 5.6823Q-11.44668 5.6823 -11.44668 5.25369Q-11.44668 4.9858 -10.97343 4.70006Q-10.50017 4.41432 -10.36623 4.09733Q-10.23229 3.78034 -10.23229 2.45879L-10.22336 2.23555Q-10.21443 2.00339 -10.21443 1.77122Q-10.21443 1.53906 -10.21443 1.30689L-10.2055 0.84257L-10.2055 -0.31825L-10.21443 -0.78258Q-10.21443 -4.18468 -10.35283 -4.85885Q-10.49124 -5.53302 -10.94217 -5.79197Q-11.39311 -6.05092 -11.39311 -6.27862Q-11.39311 -6.50632 -11.14308 -6.61348Q-10.89306 -6.72063 -9.62509 -6.72063L-8.67857 -6.73849L-7.97315 -6.76528Q-7.49989 -6.78313 -7.24987 -6.78313Z" fill="rgb(255, 255, 255)" transform="matrix(1 0 0 1 57.211403 30.082761)"/><path d="M3.26002 -4.47042L3.26002 -1.08618Q3.26002 -0.46113 3.42968 -0.27807Q3.59934 -0.09502 4.26011 -0.09502L4.6798 -0.09502Q5.85848 -0.09502 6.58622 -0.82277Q7.31397 -1.55051 7.31397 -2.81848L7.31397 -3.11315Q7.31397 -4.40792 6.53711 -5.12227Q5.76025 -5.83662 4.41191 -5.83662L4.33155 -5.83662Q3.56362 -5.83662 3.41182 -5.63124Q3.26002 -5.42587 3.26002 -4.47042ZM4.15296 -6.78313L5.10841 -6.78313Q8.26941 -6.78313 9.19807 -4.88117Q9.54631 -4.16682 9.54631 -3.30067L9.54631 -3.05065Q9.54631 -3.05065 9.54631 -3.03279Q9.54631 -1.33621 8.05511 -0.29147Q6.99251 0.44967 4.76909 0.61933Q3.82257 0.69077 3.62613 0.914Q3.3136 1.26225 3.3136 2.58826Q3.3136 3.91428 3.59041 4.30717Q3.72435 4.49469 4.19314 4.77596Q4.66194 5.05724 4.66194 5.20904Q4.66194 5.6823 3.51005 5.6823L1.25091 5.6823Q-0.04385 5.6823 -0.04385 5.25369Q-0.04385 4.9858 0.42941 4.70006Q0.90266 4.41432 1.0366 4.09733Q1.17055 3.78034 1.17055 2.45879L1.17947 2.23555Q1.1884 2.00339 1.1884 1.77122Q1.1884 1.53906 1.1884 1.30689L1.19733 0.84257L1.19733 -0.31825L1.1884 -0.78258Q1.1884 -4.18468 1.05 -4.85885Q0.91159 -5.53302 0.46066 -5.79197Q0.00972 -6.05092 0.00972 -6.27862Q0.00972 -6.50632 0.25975 -6.61348Q0.50977 -6.72063 1.77774 -6.72063L2.72426 -6.73849L3.42968 -6.76528Q3.90294 -6.78313 4.15296 -6.78313Z" fill="rgb(255, 255, 255)" transform="matrix(1 0 0 1 57.211403 30.082761)"/><path d="M17.18094 0.44967L17.18094 0.3961Q17.18094 -0.44327 15.74331 -3.80072Q15.49329 -4.38113 15.48436 -4.38113L15.22541 -3.78286Q13.74313 -0.32718 13.74313 0.41396Q13.74313 0.53897 13.89939 0.5479Q14.05566 0.55683 14.13602 0.55683L14.83251 0.57468L15.4665 0.57468L15.52901 0.56575Q17.18094 0.56575 17.18094 0.44967ZM9.73383 5.20904Q9.73383 4.9858 10.24281 4.69113Q10.75178 4.39646 10.99288 3.94106Q11.23397 3.48567 11.67151 2.29359Q12.10905 1.10152 12.86358 -0.71115Q13.61812 -2.52381 14.06012 -3.96591Q14.50213 -5.40801 14.66286 -5.79197Q15.02896 -6.66705 15.69866 -6.66705L15.94869 -6.66705Q16.11835 -6.66705 16.36837 -6.47953Q16.87734 -6.09557 17.43097 -4.83653Q17.61848 -4.40792 17.99352 -3.36764Q18.36855 -2.32737 19.49366 0.6997Q20.61876 3.72676 20.7527 3.99464Q20.97593 4.45897 21.5117 4.74025Q22.04746 5.02152 22.04746 5.19118Q22.04746 5.56621 21.60099 5.65551Q21.29739 5.71801 20.06514 5.71801L19.54723 5.72694Q17.89529 5.72694 17.89529 5.28047Q17.89529 5.20011 18.10514 4.89651Q18.31498 4.59291 18.31498 4.12858Q18.31498 3.66425 17.98012 2.7981Q17.64527 1.93195 17.41757 1.72658Q17.18987 1.5212 15.47543 1.5212Q13.76099 1.5212 13.47525 1.70872Q13.18951 1.89623 12.85912 2.71774Q12.52873 3.53924 12.52873 4.05268Q12.52873 4.56612 12.84572 4.95902Q13.16272 5.35191 13.16272 5.36977Q13.16272 5.69123 12.06887 5.69123Q10.97502 5.69123 10.35442 5.6064Q9.73383 5.52157 9.73383 5.20904Z" fill="rgb(255, 255, 255)" transform="matrix(1 0 0 1 57.211403 30.082761)"/><path d="M26.68182 -4.47042L26.68182 -1.47908Q26.68182 -0.82723 26.82915 -0.69775Q26.97649 -0.56828 27.45867 -0.56828L27.84264 -0.56828Q29.17312 -0.56828 29.8964 -1.23352Q30.61968 -1.89876 30.61968 -2.97921L30.61968 -3.34532Q30.61968 -4.45256 29.90979 -5.09994Q29.1999 -5.74732 28.05694 -5.74732L27.50332 -5.74732Q26.94077 -5.74732 26.81129 -5.56427Q26.68182 -5.38122 26.68182 -4.47042ZM28.28911 -6.68491Q31.53047 -6.68491 32.45913 -4.70259Q32.70915 -4.16682 32.70915 -3.36318Q32.70915 -1.86304 31.36082 -0.74687Q30.61075 -0.12181 30.61075 0.29787Q30.61075 0.42288 31.49476 1.91856Q32.37877 3.41423 32.78505 3.92321Q33.19134 4.43218 33.79854 4.67774Q34.40574 4.9233 34.40574 5.1376Q34.40574 5.77159 33.02168 5.77159Q32.01266 5.77159 31.51262 5.28047Q31.16437 4.94116 30.11963 3.07491Q29.07489 1.20867 28.94095 1.03901Q28.46769 0.44074 27.50332 0.44074Q27.09257 0.44074 26.94077 0.81131Q26.78897 1.18188 26.78897 2.46772Q26.78897 3.75355 26.96309 4.17323Q27.13721 4.59291 27.49439 4.97241Q27.85157 5.35191 27.85157 5.41441Q27.85157 5.71801 26.71753 5.71801L26.41393 5.70908L26.11926 5.69123Q25.92282 5.6823 25.51207 5.6823Q23.41366 5.6823 23.41366 5.32512Q23.41366 4.96794 23.70833 4.78936Q24.4584 4.32503 24.51197 4.22681Q24.71735 3.85177 24.71735 2.16412L24.73521 1.53906L24.74414 0.914Q24.74414 0.60147 24.74414 0.28894L24.72628 -0.63971Q24.72628 -4.27398 24.55216 -4.8901Q24.37803 -5.50623 23.9271 -5.77858Q23.47616 -6.05092 23.47616 -6.2563Q23.47616 -6.61348 24.90487 -6.61348L25.20847 -6.6224Q25.52099 -6.63133 25.82459 -6.63133L27.66405 -6.68491Z" fill="rgb(255, 255, 255)" transform="matrix(1 0 0 1 57.211403 30.082761)"/><path d="M43.39764 -6.69384Q44.996 -6.69384 44.996 -4.89903Q44.996 -4.42577 44.79062 -4.42577Q44.67454 -4.42577 44.24146 -4.68919Q43.80839 -4.95261 43.52265 -5.05083Q42.25467 -5.48837 41.27244 -5.48837Q40.29021 -5.48837 39.9241 -5.00619Q39.41513 -4.33648 39.41513 -2.54167Q39.41513 -1.89876 39.85267 -1.58623Q40.29021 -1.2737 40.85722 -1.2737Q41.42424 -1.2737 42.00911 -1.66213Q42.59399 -2.05056 42.60292 -2.05056Q43.04939 -2.05056 43.21458 -1.70231Q43.37978 -1.35406 43.37978 -0.56828Q43.37978 0.81578 42.74579 0.81578Q42.57613 0.81578 42.04037 0.3827Q41.5046 -0.05037 40.90634 -0.05037Q39.87946 -0.05037 39.54014 0.38717Q39.3169 0.67291 39.3169 2.10161Q39.3169 3.53031 39.82588 4.19109Q40.11162 4.55719 41.19208 4.55719Q42.27253 4.55719 43.71016 4.09286Q44.11199 3.96785 44.35308 3.79819Q44.59417 3.62854 44.8442 3.43655Q45.09422 3.24457 45.15673 3.24457Q45.46032 3.24457 45.46032 3.54817L45.46032 3.83391Q45.46032 4.52147 45.2237 4.96348Q44.98707 5.40548 44.79062 5.5305Q44.42452 5.76266 41.87964 5.76266L40.70096 5.76266L40.30807 5.75373Q36.94169 5.75373 36.42378 5.67783Q35.90588 5.60193 35.90588 5.28047Q35.90588 5.0751 36.38806 4.76257Q36.87025 4.45004 37.01312 3.97678Q37.15599 3.50352 37.15599 0.27108L37.19171 -3.22031Q37.19171 -4.93475 36.9774 -5.3455Q36.87918 -5.53302 36.42378 -5.77411Q35.96838 -6.01521 35.96838 -6.20272Q35.96838 -6.5599 36.54879 -6.64919Q36.78989 -6.68491 40.34378 -6.68491L43.0226 -6.69384Z" fill="rgb(255, 255, 255)" transform="matrix(1 0 0 1 57.211403 30.082761)"/><path d="M53.03245 5.76266L52.76457 5.76266L52.49668 5.75373L51.16621 5.75373Q47.99627 5.75373 47.74625 5.70908Q47.28192 5.62872 47.28192 5.31619Q47.28192 5.18225 47.76857 4.84293Q48.25522 4.50362 48.40256 3.86516Q48.54989 3.22671 48.54989 -0.82723Q48.54989 -4.88117 48.44721 -5.23388Q48.34452 -5.5866 47.92484 -5.76518Q47.26406 -6.05092 47.26406 -6.37238Q47.26406 -6.69384 48.26415 -6.69384L48.79992 -6.69384L49.05887 -6.68491L49.86251 -6.67598Q52.02343 -6.67598 52.02343 -6.35452Q52.02343 -6.24737 51.38944 -5.63124Q51.03226 -5.283 50.876 -4.43917Q50.71974 -3.59534 50.71974 0.05678Q50.71974 3.7089 50.83135 4.04822Q50.94297 4.38753 51.35372 4.52147Q51.60375 4.60184 52.33596 4.60184Q53.91646 4.60184 54.70224 4.19109Q55.14871 3.95892 55.66662 3.23564Q56.18452 2.51236 56.47473 2.51236Q56.76493 2.51236 56.76493 2.8874L56.76493 3.11956Q56.76493 5.08403 56.28275 5.52157Q56.01486 5.76266 53.03245 5.76266Z" fill="rgb(255, 255, 255)" transform="matrix(1 0 0 1 57.211403 30.082761)"/><path d="M33.97713 12.96725L34.28073 12.96725Q34.90578 12.96725 35.71836 13.12351Q36.53093 13.27978 36.99526 13.30657Q37.45959 13.33336 37.72747 13.48515Q38.24538 13.77982 38.24538 15.01208Q38.24538 16.24434 37.78105 16.24434Q37.62925 16.24434 37.03098 15.56124Q36.43271 14.87814 35.88802 14.58347Q34.92364 14.06557 33.7271 14.06557Q33.03954 14.06557 32.34305 14.4406Q30.24464 15.55677 30.24464 19.29819Q30.25357 21.61983 31.3251 23.04853Q32.39663 24.47723 34.30752 24.47723Q35.94159 24.47723 37.07563 23.39678Q37.78105 22.72707 37.97749 22.72707Q38.35253 22.72707 38.35253 23.27177Q38.35253 23.54858 38.00428 24.13792Q37.65604 24.72726 37.22743 24.96835Q36.02196 25.63806 34.09321 25.63806L33.78068 25.63806Q32.70022 25.63806 31.59298 25.24516Q29.3517 24.45045 28.44983 22.10202Q27.98551 20.87869 27.98551 19.42766Q27.98551 17.97664 28.44983 16.76224Q29.38742 14.29773 31.6287 13.41372Q32.76273 12.96725 33.97713 12.96725Z" fill="rgb(255, 255, 255)" transform="matrix(1 0 0 1 57.211403 30.082761)"/><path d="M42.25467 18.88744L42.25467 19.36962Q42.25467 21.70019 43.28155 23.26284Q43.74588 23.96826 44.43791 24.37901Q45.12994 24.78976 45.86215 24.78976L46.00502 24.78976Q47.59445 24.78976 48.54989 23.30748Q48.92493 22.736 49.19281 21.78056Q49.46069 20.82511 49.46069 19.74466L49.46069 19.25354Q49.46069 18.06593 49.15709 17.01226Q47.6391 14.42274 45.80857 13.84233Q45.1478 13.85126 44.48702 14.15486Q43.11189 14.79778 42.55827 16.74438Q42.25467 17.82484 42.25467 18.88744ZM51.90734 18.97673L51.90734 19.39641Q51.90734 20.61081 51.47873 21.81628Q50.59472 24.29865 48.33559 25.26302Q47.1837 25.75414 46.02288 25.75414L45.60319 25.75414Q44.4513 25.75414 43.44675 25.28981Q42.44219 24.82548 41.70998 24.07095Q40.97777 23.31641 40.52684 22.08416Q40.0759 20.8519 40.0759 19.63751L40.0759 19.21782Q40.0759 17.97664 40.50451 16.77564Q40.93312 15.57463 41.70998 14.71741Q42.48684 13.86019 43.59408 13.378Q44.70133 12.89581 45.88894 12.89581L46.09431 12.89581Q48.63919 12.89581 50.18397 14.49418Q50.9519 15.28889 51.42962 16.51222Q51.90734 17.73554 51.90734 18.97673Z" fill="rgb(255, 255, 255)" transform="matrix(1 0 0 1 57.211403 30.082761)"/><path d="M54.85404 25.70949Q54.38972 25.70949 54.00575 25.3791Q53.62179 25.04872 53.62179 24.51295L53.62179 24.43259Q53.62179 23.91468 54.01915 23.57537Q54.4165 23.23605 54.82726 23.23605L54.98798 23.23605Q55.12193 23.26284 55.18443 23.26284Q55.49696 23.26284 55.83628 23.60215Q56.17559 23.94147 56.17559 24.38794L56.17559 24.51295Q56.17559 24.9237 55.84967 25.3032Q55.52375 25.6827 55.10407 25.6827L54.89869 25.70949Z" fill="rgb(255, 255, 255)" transform="matrix(1 0 0 1 57.211403 30.082761)"/></g></g>

  </svg>