<svg xmlns="http://www.w3.org/2000/svg" xmlns:xlink="http://www.w3.org/1999/xlink" width="549px" height="60px" viewBox="0 0 343.7035214999996 37.59257245229196">
    <g id="635cb1fd-1c0b-4557-9c00-2709168d9299">
<g style="">
		<g id="635cb1fd-1c0b-4557-9c00-2709168d9299-child-0">
<path style="stroke: rgb(193,193,193); stroke-width: 0; stroke-dasharray: none; stroke-linecap: butt; stroke-dashoffset: 0; stroke-linejoin: miter; stroke-miterlimit: 4; fill: rgb(104,190,155); fill-rule: nonzero; opacity: 1;" transform="matrix(0.423541 0 0 0.423541 171.851761 18.796286) matrix(1 0 0 1 0 0)  translate(-403.624559, -45.15)" d="M 766.30 90.30 L 45.20 90.30 C 28.56 91.08 12.84 82.65 4.29 68.36 C -4.26 54.07 -4.26 36.23 4.29 21.94 C 12.84 7.65 28.56 -0.78 45.20 0.00 L 766.30 0.00 C 790.41 1.13 809.37 21.01 809.37 45.15 C 809.37 69.29 790.41 89.17 766.30 90.30 Z M 45.20 2.00 C 29.29 1.23 14.25 9.29 6.06 22.95 C -2.12 36.62 -2.12 53.68 6.06 67.35 C 14.25 81.01 29.29 89.07 45.20 88.30 L 766.30 88.30 C 789.32 87.19 807.42 68.20 807.42 45.15 C 807.42 22.10 789.32 3.11 766.30 2.00 Z" stroke-linecap="round"/>
</g>
		<g id="635cb1fd-1c0b-4557-9c00-2709168d9299-child-1">
<path style="stroke: rgb(193,193,193); stroke-width: 0; stroke-dasharray: none; stroke-linecap: butt; stroke-dashoffset: 0; stroke-linejoin: miter; stroke-miterlimit: 4; fill: rgb(104,190,155); fill-rule: nonzero; opacity: 1;" transform="matrix(0.423541 0 0 0.423541 171.851761 18.796286) matrix(1 0 0 1 196.375441 0.05)  translate(-600, -45.2)" d="M 585.30 25.60 L 595.10 25.60 L 614.70 45.20 L 595.10 64.80 L 585.30 64.80 L 604.90 45.20 z" stroke-linecap="round"/>
</g>
		<g id="635cb1fd-1c0b-4557-9c00-2709168d9299-child-2">
<path style="stroke: rgb(193,193,193); stroke-width: 0; stroke-dasharray: none; stroke-linecap: butt; stroke-dashoffset: 0; stroke-linejoin: miter; stroke-miterlimit: 4; fill: rgb(104,190,155); fill-rule: nonzero; opacity: 1;" transform="matrix(0.423541 0 0 0.423541 171.851761 18.796286) matrix(1 0 0 1 257.375441 0.05)  translate(-661, -45.2)" d="M 646.30 25.60 L 656.10 25.60 L 675.70 45.20 L 656.10 64.80 L 646.30 64.80 L 665.90 45.20 z" stroke-linecap="round"/>
</g>
		<g id="635cb1fd-1c0b-4557-9c00-2709168d9299-child-3">
<path style="stroke: rgb(193,193,193); stroke-width: 0; stroke-dasharray: none; stroke-linecap: butt; stroke-dashoffset: 0; stroke-linejoin: miter; stroke-miterlimit: 4; fill: rgb(104,190,155); fill-rule: nonzero; opacity: 1;" transform="matrix(0.423541 0 0 0.423541 171.851761 18.796286) matrix(1 0 0 1 226.875441 0.05)  translate(-630.5, -45.2)" d="M 615.80 25.60 L 625.60 25.60 L 645.20 45.20 L 625.60 64.80 L 615.80 64.80 L 635.40 45.20 z" stroke-linecap="round"/>
</g>
		<g id="635cb1fd-1c0b-4557-9c00-2709168d9299-child-4">
<path style="stroke: rgb(193,193,193); stroke-width: 0; stroke-dasharray: none; stroke-linecap: butt; stroke-dashoffset: 0; stroke-linejoin: miter; stroke-miterlimit: 4; fill: rgb(104,190,155); fill-rule: nonzero; opacity: 1;" transform="matrix(0.423541 0 0 0.423541 171.851761 18.796286) matrix(1 0 0 1 318.375441 0.05)  translate(-722, -45.2)" d="M 707.30 25.60 L 717.10 25.60 L 736.70 45.20 L 717.10 64.80 L 707.30 64.80 L 726.90 45.20 z" stroke-linecap="round"/>
</g>
		<g id="635cb1fd-1c0b-4557-9c00-2709168d9299-child-5">
<path style="stroke: rgb(193,193,193); stroke-width: 0; stroke-dasharray: none; stroke-linecap: butt; stroke-dashoffset: 0; stroke-linejoin: miter; stroke-miterlimit: 4; fill: rgb(104,190,155); fill-rule: nonzero; opacity: 1;" transform="matrix(0.423541 0 0 0.423541 171.851761 18.796286) matrix(1 0 0 1 287.875441 0.05)  translate(-691.5, -45.2)" d="M 676.80 25.60 L 686.60 25.60 L 706.20 45.20 L 686.60 64.80 L 676.80 64.80 L 696.40 45.20 z" stroke-linecap="round"/>
</g>
		<g id="635cb1fd-1c0b-4557-9c00-2709168d9299-child-6">
<path style="stroke: rgb(193,193,193); stroke-width: 0; stroke-dasharray: none; stroke-linecap: butt; stroke-dashoffset: 0; stroke-linejoin: miter; stroke-miterlimit: 4; fill: rgb(104,190,155); fill-rule: nonzero; opacity: 1;" transform="matrix(0.423541 0 0 0.423541 171.851761 18.796286) matrix(1 0 0 1 348.875441 0.05)  translate(-752.5, -45.2)" d="M 737.80 25.60 L 747.60 25.60 L 767.20 45.20 L 747.60 64.80 L 737.80 64.80 L 757.40 45.20 z" stroke-linecap="round"/>
</g>
		<g id="635cb1fd-1c0b-4557-9c00-2709168d9299-child-7">
<path style="stroke: rgb(193,193,193); stroke-width: 0; stroke-dasharray: none; stroke-linecap: butt; stroke-dashoffset: 0; stroke-linejoin: miter; stroke-miterlimit: 4; fill: rgb(241,144,39); fill-rule: nonzero; opacity: 1;" transform="matrix(0.423541 0 0 0.423541 171.851761 18.796286) matrix(1 0 0 1 0.210369 0)  translate(-403.834928, -45.15)" d="M 766.30 8.50 L 45.20 8.50 C 31.65 7.79 18.81 14.62 11.83 26.25 C 4.84 37.88 4.84 52.42 11.83 64.05 C 18.81 75.68 31.65 82.51 45.20 81.80 L 766.30 81.80 C 785.80 80.78 801.08 64.67 801.08 45.15 C 801.08 25.63 785.80 9.52 766.30 8.50 Z M 766.30 76.80 L 45.20 76.80 C 33.47 77.46 22.33 71.58 16.27 61.51 C 10.20 51.45 10.20 38.85 16.27 28.79 C 22.33 18.72 33.47 12.84 45.20 13.50 L 766.30 13.50 C 783.09 14.44 796.22 28.33 796.22 45.15 C 796.22 61.97 783.09 75.86 766.30 76.80 Z" stroke-linecap="round"/>
</g>
		<g id="635cb1fd-1c0b-4557-9c00-2709168d9299-child-8">
<path style="stroke: rgb(193,193,193); stroke-width: 0; stroke-dasharray: none; stroke-linecap: butt; stroke-dashoffset: 0; stroke-linejoin: miter; stroke-miterlimit: 4; fill: rgb(241,144,39); fill-rule: nonzero; opacity: 1;" transform="matrix(0.423541 0 0 0.423541 171.851761 18.796286) matrix(1 0 0 1 -291.724559 0.05)  translate(-111.9, -45.2)" d="M 97.20 25.60 L 116.80 45.20 L 97.20 64.80 L 107.00 64.80 L 126.60 45.20 L 107.00 25.60 z" stroke-linecap="round"/>
</g>
		<g id="635cb1fd-1c0b-4557-9c00-2709168d9299-child-9">
<path style="stroke: rgb(193,193,193); stroke-width: 0; stroke-dasharray: none; stroke-linecap: butt; stroke-dashoffset: 0; stroke-linejoin: miter; stroke-miterlimit: 4; fill: rgb(241,144,39); fill-rule: nonzero; opacity: 1;" transform="matrix(0.423541 0 0 0.423541 171.851761 18.796286) matrix(1 0 0 1 -322.224559 0.05)  translate(-81.4, -45.2)" d="M 66.70 25.60 L 86.30 45.20 L 66.70 64.80 L 76.50 64.80 L 96.10 45.20 L 76.50 25.60 z" stroke-linecap="round"/>
</g>
		<g id="635cb1fd-1c0b-4557-9c00-2709168d9299-child-10">
<path style="stroke: rgb(193,193,193); stroke-width: 0; stroke-dasharray: none; stroke-linecap: butt; stroke-dashoffset: 0; stroke-linejoin: miter; stroke-miterlimit: 4; fill: rgb(241,144,39); fill-rule: nonzero; opacity: 1;" transform="matrix(0.423541 0 0 0.423541 171.851761 18.796286) matrix(1 0 0 1 -230.724559 0.05)  translate(-172.9, -45.2)" d="M 158.20 25.60 L 177.80 45.20 L 158.20 64.80 L 168.00 64.80 L 187.60 45.20 L 168.00 25.60 z" stroke-linecap="round"/>
</g>
		<g id="635cb1fd-1c0b-4557-9c00-2709168d9299-child-11">
<path style="stroke: rgb(193,193,193); stroke-width: 0; stroke-dasharray: none; stroke-linecap: butt; stroke-dashoffset: 0; stroke-linejoin: miter; stroke-miterlimit: 4; fill: rgb(241,144,39); fill-rule: nonzero; opacity: 1;" transform="matrix(0.423541 0 0 0.423541 171.851761 18.796286) matrix(1 0 0 1 -261.224559 0.05)  translate(-142.4, -45.2)" d="M 127.70 25.60 L 147.30 45.20 L 127.70 64.80 L 137.50 64.80 L 157.10 45.20 L 137.50 25.60 z" stroke-linecap="round"/>
</g>
		<g id="635cb1fd-1c0b-4557-9c00-2709168d9299-child-12">
<path style="stroke: rgb(193,193,193); stroke-width: 0; stroke-dasharray: none; stroke-linecap: butt; stroke-dashoffset: 0; stroke-linejoin: miter; stroke-miterlimit: 4; fill: rgb(241,144,39); fill-rule: nonzero; opacity: 1;" transform="matrix(0.423541 0 0 0.423541 171.851761 18.796286) matrix(1 0 0 1 -169.724559 0.05)  translate(-233.9, -45.2)" d="M 219.20 25.60 L 238.80 45.20 L 219.20 64.80 L 229.00 64.80 L 248.60 45.20 L 229.00 25.60 z" stroke-linecap="round"/>
</g>
		<g id="635cb1fd-1c0b-4557-9c00-2709168d9299-child-13">
<path style="stroke: rgb(193,193,193); stroke-width: 0; stroke-dasharray: none; stroke-linecap: butt; stroke-dashoffset: 0; stroke-linejoin: miter; stroke-miterlimit: 4; fill: rgb(241,144,39); fill-rule: nonzero; opacity: 1;" transform="matrix(0.423541 0 0 0.423541 171.851761 18.796286) matrix(1 0 0 1 -200.224559 0.05)  translate(-203.4, -45.2)" d="M 188.70 25.60 L 208.30 45.20 L 188.70 64.80 L 198.50 64.80 L 218.10 45.20 L 198.50 25.60 z" stroke-linecap="round"/>
</g>
		<g id="635cb1fd-1c0b-4557-9c00-2709168d9299-child-14">
<path style="stroke: rgb(193,193,193); stroke-width: 0; stroke-dasharray: none; stroke-linecap: butt; stroke-dashoffset: 0; stroke-linejoin: miter; stroke-miterlimit: 4; fill: rgb(241,144,39); fill-rule: nonzero; opacity: 1;" transform="matrix(0.423541 0 0 0.423541 171.851761 18.796286) matrix(1 0 0 1 -108.724559 0.05)  translate(-294.9, -45.2)" d="M 280.20 25.60 L 299.80 45.20 L 280.20 64.80 L 290.00 64.80 L 309.60 45.20 L 290.00 25.60 z" stroke-linecap="round"/>
</g>
		<g id="635cb1fd-1c0b-4557-9c00-2709168d9299-child-15">
<path style="stroke: rgb(193,193,193); stroke-width: 0; stroke-dasharray: none; stroke-linecap: butt; stroke-dashoffset: 0; stroke-linejoin: miter; stroke-miterlimit: 4; fill: rgb(241,144,39); fill-rule: nonzero; opacity: 1;" transform="matrix(0.423541 0 0 0.423541 171.851761 18.796286) matrix(1 0 0 1 -139.224559 0.05)  translate(-264.4, -45.2)" d="M 249.70 25.60 L 269.30 45.20 L 249.70 64.80 L 259.50 64.80 L 279.10 45.20 L 259.50 25.60 z" stroke-linecap="round"/>
</g>
		<g id="635cb1fd-1c0b-4557-9c00-2709168d9299-child-16">
<path style="stroke: rgb(193,193,193); stroke-width: 0; stroke-dasharray: none; stroke-linecap: butt; stroke-dashoffset: 0; stroke-linejoin: miter; stroke-miterlimit: 4; fill: rgb(241,144,39); fill-rule: nonzero; opacity: 1;" transform="matrix(0.423541 0 0 0.423541 171.851761 18.796286) matrix(1 0 0 1 -47.674559 0.05)  translate(-355.95, -45.2)" d="M 341.20 25.60 L 360.90 45.20 L 341.20 64.80 L 351.10 64.80 L 370.70 45.20 L 351.10 25.60 z" stroke-linecap="round"/>
</g>
		<g id="635cb1fd-1c0b-4557-9c00-2709168d9299-child-17">
<path style="stroke: rgb(193,193,193); stroke-width: 0; stroke-dasharray: none; stroke-linecap: butt; stroke-dashoffset: 0; stroke-linejoin: miter; stroke-miterlimit: 4; fill: rgb(241,144,39); fill-rule: nonzero; opacity: 1;" transform="matrix(0.423541 0 0 0.423541 171.851761 18.796286) matrix(1 0 0 1 -78.224559 0.05)  translate(-325.4, -45.2)" d="M 310.70 25.60 L 330.30 45.20 L 310.70 64.80 L 320.50 64.80 L 340.10 45.20 L 320.50 25.60 z" stroke-linecap="round"/>
</g>
		<g id="635cb1fd-1c0b-4557-9c00-2709168d9299-child-18">
<path style="stroke: rgb(193,193,193); stroke-width: 0; stroke-dasharray: none; stroke-linecap: butt; stroke-dashoffset: 0; stroke-linejoin: miter; stroke-miterlimit: 4; fill: rgb(241,144,39); fill-rule: nonzero; opacity: 1;" transform="matrix(0.423541 0 0 0.423541 171.851761 18.796286) matrix(1 0 0 1 13.375441 0.05)  translate(-417, -45.2)" d="M 402.30 25.60 L 421.90 45.20 L 402.30 64.80 L 412.10 64.80 L 431.70 45.20 L 412.10 25.60 z" stroke-linecap="round"/>
</g>
		<g id="635cb1fd-1c0b-4557-9c00-2709168d9299-child-19">
<path style="stroke: rgb(193,193,193); stroke-width: 0; stroke-dasharray: none; stroke-linecap: butt; stroke-dashoffset: 0; stroke-linejoin: miter; stroke-miterlimit: 4; fill: rgb(241,144,39); fill-rule: nonzero; opacity: 1;" transform="matrix(0.423541 0 0 0.423541 171.851761 18.796286) matrix(1 0 0 1 -17.124559 0.05)  translate(-386.5, -45.2)" d="M 371.80 25.60 L 391.40 45.20 L 371.80 64.80 L 381.60 64.80 L 401.20 45.20 L 381.60 25.60 z" stroke-linecap="round"/>
</g>
		<g id="635cb1fd-1c0b-4557-9c00-2709168d9299-child-20">
<path style="stroke: rgb(193,193,193); stroke-width: 0; stroke-dasharray: none; stroke-linecap: butt; stroke-dashoffset: 0; stroke-linejoin: miter; stroke-miterlimit: 4; fill: rgb(241,144,39); fill-rule: nonzero; opacity: 1;" transform="matrix(0.423541 0 0 0.423541 171.851761 18.796286) matrix(1 0 0 1 74.375441 0.05)  translate(-478, -45.2)" d="M 463.30 25.60 L 482.90 45.20 L 463.30 64.80 L 473.10 64.80 L 492.70 45.20 L 473.10 25.60 z" stroke-linecap="round"/>
</g>
		<g id="635cb1fd-1c0b-4557-9c00-2709168d9299-child-21">
<path style="stroke: rgb(193,193,193); stroke-width: 0; stroke-dasharray: none; stroke-linecap: butt; stroke-dashoffset: 0; stroke-linejoin: miter; stroke-miterlimit: 4; fill: rgb(241,144,39); fill-rule: nonzero; opacity: 1;" transform="matrix(0.423541 0 0 0.423541 171.851761 18.796286) matrix(1 0 0 1 43.875441 0.05)  translate(-447.5, -45.2)" d="M 432.80 25.60 L 452.40 45.20 L 432.80 64.80 L 442.60 64.80 L 462.20 45.20 L 442.60 25.60 z" stroke-linecap="round"/>
</g>
		<g id="635cb1fd-1c0b-4557-9c00-2709168d9299-child-22">
<path style="stroke: rgb(193,193,193); stroke-width: 0; stroke-dasharray: none; stroke-linecap: butt; stroke-dashoffset: 0; stroke-linejoin: miter; stroke-miterlimit: 4; fill: rgb(241,144,39); fill-rule: nonzero; opacity: 1;" transform="matrix(0.423541 0 0 0.423541 171.851761 18.796286) matrix(1 0 0 1 135.375441 0.05)  translate(-539, -45.2)" d="M 524.30 25.60 L 543.90 45.20 L 524.30 64.80 L 534.10 64.80 L 553.70 45.20 L 534.10 25.60 z" stroke-linecap="round"/>
</g>
		<g id="635cb1fd-1c0b-4557-9c00-2709168d9299-child-23">
<path style="stroke: rgb(193,193,193); stroke-width: 0; stroke-dasharray: none; stroke-linecap: butt; stroke-dashoffset: 0; stroke-linejoin: miter; stroke-miterlimit: 4; fill: rgb(241,144,39); fill-rule: nonzero; opacity: 1;" transform="matrix(0.423541 0 0 0.423541 171.851761 18.796286) matrix(1 0 0 1 104.875441 0.05)  translate(-508.5, -45.2)" d="M 493.80 25.60 L 513.40 45.20 L 493.80 64.80 L 503.60 64.80 L 523.20 45.20 L 503.60 25.60 z" stroke-linecap="round"/>
</g>
		<g id="635cb1fd-1c0b-4557-9c00-2709168d9299-child-24">
<path style="stroke: rgb(193,193,193); stroke-width: 0; stroke-dasharray: none; stroke-linecap: butt; stroke-dashoffset: 0; stroke-linejoin: miter; stroke-miterlimit: 4; fill: rgb(241,144,39); fill-rule: nonzero; opacity: 1;" transform="matrix(0.423541 0 0 0.423541 171.851761 18.796286) matrix(1 0 0 1 165.875441 0.05)  translate(-569.5, -45.2)" d="M 554.80 25.60 L 574.40 45.20 L 554.80 64.80 L 564.60 64.80 L 584.20 45.20 L 564.60 25.60 z" stroke-linecap="round"/>
</g>
		<g id="635cb1fd-1c0b-4557-9c00-2709168d9299-child-25">
<path style="stroke: rgb(193,193,193); stroke-width: 0; stroke-dasharray: none; stroke-linecap: butt; stroke-dashoffset: 0; stroke-linejoin: miter; stroke-miterlimit: 4; fill: rgb(241,144,39); fill-rule: nonzero; opacity: 1;" transform="matrix(0.423541 0 0 0.423541 171.851761 18.796286) matrix(1 0 0 1 -344.124559 -0.75)  translate(-59.5, -44.4)" d="M 53.60 56.40 L 65.40 45.30 L 53.60 32.40 z" stroke-linecap="round"/>
</g>
</g>
</g>

  </svg>