<svg xmlns="http://www.w3.org/2000/svg" xmlns:xlink="http://www.w3.org/1999/xlink" width="113px" height="139px" viewBox="0 0 112.5863555699616 138.85241743612306">
    <g style="" id="7353ba6e-c0bf-4c3f-9683-b1c339c3731b">
<g style=""><path d="M-14.4692 55.19271L-17.5268 54.19887Q-18.91417 53.74791 -19.21568 52.65954Q-19.5172 51.57118 -18.95679 49.84707Q-18.39638 48.12296 -17.58648 47.41819Q-16.77659 46.71341 -15.41616 47.15561L-14.47329 47.46208L-12.9847 42.88242L-10.70834 43.62233ZM-15.2866 49.50609Q-15.70416 49.37036 -15.94982 49.46178Q-16.19548 49.5532 -16.35022 49.82309Q-16.50496 50.09298 -16.68009 50.63177Q-16.91651 51.35913 -16.85996 51.73494Q-16.8034 52.11074 -16.31849 52.26836L-16.06257 52.35154L-15.15191 49.54987Z" fill="rgb(253, 250, 250)" transform="matrix(1 0.000175 -0.000175 1 56.327791 55.56347)"/><path d="M-18.97402 40.39885Q-17.64689 41.03792 -17.34801 42.18005Q-17.04912 43.32219 -17.75579 44.78969L-20.26905 50.00886Q-20.95114 51.42531 -21.98741 51.81448Q-23.02368 52.20364 -24.35081 51.56457Q-25.67793 50.9255 -26.01983 49.87269Q-26.36173 48.81988 -25.67964 47.40342L-23.16638 42.18425Q-22.45357 40.70399 -21.37735 40.23188Q-20.30114 39.75978 -18.97402 40.39885ZM-19.94491 42.41506Q-20.23841 42.27372 -20.46339 42.47978Q-20.68838 42.68584 -20.9096 43.14523L-23.49046 48.50477Q-23.66251 48.86208 -23.67434 49.13148Q-23.68617 49.40088 -23.39267 49.54221Q-22.84396 49.80644 -22.44454 48.97699L-19.86982 43.6302Q-19.64246 43.15805 -19.64056 42.86029Q-19.63865 42.56253 -19.94491 42.41506Z" fill="rgb(253, 250, 250)" transform="matrix(1 0.000175 -0.000175 1 56.327791 55.56347)"/><path d="M-24.34945 37.32689Q-22.96909 38.24373 -22.8101 39.3355Q-22.65111 40.42726 -23.66198 41.9492L-24.32023 42.94023L-26.31408 41.6159L-25.4756 40.35352Q-24.97408 39.59845 -25.4578 39.27716Q-25.72915 39.09693 -25.94112 39.18567Q-26.15309 39.27442 -26.40385 39.65195Q-26.73298 40.14747 -26.83049 40.55027Q-26.92801 40.95308 -26.89011 41.2928Q-26.85222 41.63253 -26.68591 42.4061L-26.39275 43.85903Q-26.03637 45.52398 -26.83567 46.72737Q-27.69766 48.02514 -28.74404 48.30779Q-29.79042 48.59044 -30.93482 47.83033Q-32.30338 46.92132 -32.42315 45.7961Q-32.54291 44.67087 -31.51636 43.12534L-29.45172 44.49669L-29.90226 45.2006Q-30.03548 45.40117 -30.00176 45.59359Q-29.96804 45.78602 -29.76748 45.91923Q-29.53152 46.07596 -29.32734 46.02454Q-29.12316 45.97313 -28.97427 45.74897Q-28.64515 45.25345 -28.85882 44.34641L-29.28633 42.43018Q-29.43283 41.75478 -29.46518 41.21471Q-29.49752 40.67463 -29.33749 40.07531Q-29.17746 39.47599 -28.73079 38.80351Q-27.73559 37.30517 -26.67371 36.89679Q-25.61183 36.48841 -24.34945 37.32689Z" fill="rgb(253, 250, 250)" transform="matrix(1 0.000175 -0.000175 1 56.327791 55.56347)"/><path d="M-26.91386 35.70791L-34.8934 44.89185L-38.57125 41.69632L-37.02922 39.92154L-35.22237 41.49144L-33.67105 39.70597L-35.40306 38.2011L-33.89819 36.46908L-32.16618 37.97396L-30.33618 35.86774L-32.26064 34.19566L-30.70932 32.41019Z" fill="rgb(253, 250, 250)" transform="matrix(1 0.000175 -0.000175 1 56.327791 55.56347)"/><path d="M-30.83843 32.20544L-39.60226 40.64423L-41.23304 38.95063L-32.4692 30.51185Z" fill="rgb(253, 250, 250)" transform="matrix(1 0.000175 -0.000175 1 56.327791 55.56347)"/><path d="M-42.42533 37.72106L-44.48838 35.07319Q-45.28922 34.04532 -45.11985 33.08744Q-44.95048 32.12956 -43.84193 31.2479L-39.36801 27.72621Q-37.95781 26.60952 -36.85105 26.55517Q-35.7443 26.50082 -34.83899 27.66276L-32.82817 30.2436ZM-36.29347 29.29872Q-36.7026 28.77362 -37.21653 29.17404L-42.16594 33.03029Q-42.48994 33.28273 -42.61277 33.45923Q-42.7356 33.63572 -42.687 33.81332Q-42.63841 33.99091 -42.42079 34.27022L-42.2554 34.4825L-36.03233 29.6339Z" fill="rgb(253, 250, 250)" transform="matrix(1 0.000175 -0.000175 1 56.327791 55.56347)"/><path d="M-38.00935 22.71251Q-37.27463 23.98917 -37.67263 25.10065Q-38.07064 26.21214 -39.48233 27.02457L-44.50304 29.914Q-45.86563 30.69818 -46.94069 30.43445Q-48.01574 30.17072 -48.75047 28.89406Q-49.48519 27.6174 -49.17311 26.55537Q-48.86103 25.49334 -47.49844 24.70916L-42.47774 21.81973Q-41.05377 21.00023 -39.89892 21.21804Q-38.74407 21.43585 -38.00935 22.71251ZM-39.94889 23.82872Q-40.11137 23.54638 -40.4134 23.58947Q-40.71543 23.63256 -41.15735 23.88689L-46.31309 26.85403Q-46.6568 27.05184 -46.81864 27.26754Q-46.98048 27.48324 -46.81799 27.76557Q-46.51421 28.29342 -45.7163 27.83422L-40.57284 24.87414Q-40.11864 24.61275 -39.94899 24.36804Q-39.77934 24.12333 -39.94889 23.82872Z" fill="rgb(253, 250, 250)" transform="matrix(1 0.000175 -0.000175 1 56.327791 55.56347)"/><path d="M-39.71476 19.93848L-51.00948 24.46035L-51.94122 22.13304L-46.95298 18.93074L-52.35709 21.09429L-53.23093 18.91161L-41.93622 14.38974L-41.05185 16.59872L-46.25307 19.99307L-40.59914 17.7295Z" fill="rgb(253, 250, 250)" transform="matrix(1 0.000175 -0.000175 1 56.327791 55.56347)"/><path d="M-49.61288 15.55358L-53.643 17.42902L-54.31338 15.08699L-49.94807 14.38257Z" fill="rgb(253, 250, 250)" transform="matrix(1 0.000175 -0.000175 1 56.327791 55.56347)"/><path d="M-43.18626 8.50656Q-42.88949 10.13687 -43.56579 11.00857Q-44.24208 11.88027 -46.0396 12.20748L-47.21009 12.42054L-47.63875 10.06565L-46.14778 9.79424Q-45.25598 9.63191 -45.35998 9.0606Q-45.41832 8.74011 -45.62926 8.64895Q-45.8402 8.55778 -46.2861 8.63895Q-46.87134 8.74548 -47.22917 8.95458Q-47.587 9.16367 -47.80547 9.42658Q-48.02394 9.68949 -48.46591 10.34578L-49.30935 11.56462Q-50.2617 12.97603 -51.683 13.23476Q-53.21577 13.51377 -54.14508 12.95593Q-55.0744 12.3981 -55.32044 11.04647Q-55.61467 9.43009 -54.88707 8.56345Q-54.15947 7.69681 -52.33408 7.36453L-51.89019 9.80303L-52.70978 9.96662Q-52.94666 10.00974 -53.06191 10.16748Q-53.17716 10.32522 -53.13404 10.5621Q-53.08331 10.84079 -52.90466 10.95223Q-52.72602 11.06367 -52.46127 11.01548Q-51.87603 10.90895 -51.37074 10.12596L-50.28669 8.48903Q-49.9017 7.91508 -49.53505 7.51723Q-49.16839 7.11938 -48.62563 6.81904Q-48.08286 6.51869 -47.28861 6.37411Q-45.51895 6.05198 -44.48831 6.53379Q-43.45767 7.01559 -43.18626 8.50656Z" fill="rgb(253, 250, 250)" transform="matrix(1 0.000175 -0.000175 1 56.327791 55.56347)"/><path d="" fill="rgb(253, 250, 250)" transform="matrix(1 0.000175 -0.000175 1 56.327791 55.56347)"/><path d="M-43.85949 -0.21342Q-43.89163 1.11754 -44.74633 1.89736Q-45.60104 2.67719 -47.05943 2.64198L-52.66645 2.5066Q-54.47883 2.46284 -55.38174 1.7185Q-56.28465 0.97416 -56.24738 -0.56918Q-56.21491 -1.9143 -55.4588 -2.71776Q-54.7027 -3.52121 -53.3151 -3.48771L-51.21955 -3.43711L-51.27801 -1.0159L-53.07622 -1.05931Q-53.60011 -1.07196 -53.80141 -0.94932Q-54.00272 -0.82667 -54.01024 -0.51517Q-54.0181 -0.18951 -53.79446 -0.06369Q-53.57082 0.06214 -53.13188 0.07273L-47.02929 0.22008Q-46.54788 0.2317 -46.32499 0.09541Q-46.10211 -0.04089 -46.09527 -0.32407Q-46.0816 -0.89043 -47.00194 -0.91266L-49.19661 -0.96564L-49.13747 -3.41518L-46.84368 -3.3598Q-43.78531 -3.28595 -43.85949 -0.21342Z" fill="rgb(253, 250, 250)" transform="matrix(1 0.000175 -0.000175 1 56.327791 55.56347)"/><path d="M-43.93382 -3.07524L-55.75625 -6.17844L-55.09812 -10.24707L-42.90252 -9.45083L-43.27116 -7.17184L-45.24174 -7.31842L-45.47695 -5.86434L-43.55613 -5.41016ZM-47.18661 -7.44651L-53.38249 -7.90353L-53.40058 -7.79168L-47.36302 -6.35594Z" fill="rgb(253, 250, 250)" transform="matrix(1 0.000175 -0.000175 1 56.327791 55.56347)"/><path d="M-42.8571 -9.43051L-54.51789 -12.90094L-53.82299 -15.23582L-44.14413 -12.35523L-43.42904 -14.75798L-41.44711 -14.16812Z" fill="rgb(253, 250, 250)" transform="matrix(1 0.000175 -0.000175 1 56.327791 55.56347)"/><path d="M-41.41559 -14.25549L-52.60543 -19.03096L-51.64923 -21.27154L-42.36126 -17.30773L-41.37726 -19.61344L-39.47538 -18.80178Z" fill="rgb(253, 250, 250)" transform="matrix(1 0.000175 -0.000175 1 56.327791 55.56347)"/><path d="M-45.31677 -22.10499L-47.12781 -23.07336L-45.95908 -25.25909L-44.14805 -24.29072ZM-42.61896 -20.66245L-41.45023 -22.84818L-39.6392 -21.87981L-40.80792 -19.69408Z" fill="rgb(253, 250, 250)" transform="matrix(1 0.000175 -0.000175 1 56.327791 55.56347)"/><path d="" fill="rgb(253, 250, 250)" transform="matrix(1 0.000175 -0.000175 1 56.327791 55.56347)"/><path d="M-36.38764 -24.09135L-46.03508 -31.50381L-43.06665 -35.36728L-41.2023 -33.93484L-42.66063 -32.0368L-40.78505 -30.59572L-39.38712 -32.41515L-37.5677 -31.01722L-38.96562 -29.1978L-36.75311 -27.49785L-35.19986 -29.51944L-33.32428 -28.07836Z" fill="rgb(253, 250, 250)" transform="matrix(1 0.000175 -0.000175 1 56.327791 55.56347)"/><path d="M-33.47683 -28.18161L-41.78751 -37.06702L-39.07741 -39.60182L-33.26304 -34.87821L-37.58789 -40.995L-34.8571 -43.54915L-26.54642 -34.66375L-28.17041 -33.1448L-34.15913 -39.54767L-29.19446 -32.18699L-30.78742 -30.69707L-37.86225 -36.08408L-31.87353 -29.68121Z" fill="rgb(253, 250, 250)" transform="matrix(1 0.000175 -0.000175 1 56.327791 55.56347)"/><path d="M-32.91516 -44.86559L-30.1426 -46.65535Q-29.02406 -47.3774 -28.165 -47.15648Q-27.30593 -46.93557 -26.50707 -45.69803L-26.21517 -45.24586Q-25.27037 -43.78224 -26.13316 -42.82069Q-25.38305 -43.06889 -24.72952 -42.63102Q-24.07598 -42.19314 -23.43075 -41.19359Q-22.3784 -39.56338 -22.32474 -38.40953Q-22.27107 -37.25569 -23.54431 -36.43379L-26.31686 -34.64403ZM-28.0185 -42.58141Q-27.75672 -42.7504 -27.78826 -43.00819Q-27.81981 -43.26598 -28.05025 -43.62296L-28.71085 -44.64631Q-29.03347 -45.14608 -29.47374 -44.86187L-29.90212 -44.58534L-28.43498 -42.31256ZM-25.27536 -37.86188Q-24.47811 -38.37654 -24.96971 -39.1381L-25.79162 -40.41133Q-26.09119 -40.87541 -26.38166 -41.02506Q-26.67213 -41.17471 -27.01722 -40.95195L-27.398 -40.70615L-25.48533 -37.7432Z" fill="rgb(253, 250, 250)" transform="matrix(1 0.000175 -0.000175 1 56.327791 55.56347)"/><path d="M-26.34057 -48.96362L-22.95103 -50.54218Q-22.14216 -50.91889 -21.52879 -50.75926Q-20.91542 -50.59963 -20.45341 -50.01017Q-19.9914 -49.4207 -19.51305 -48.39356Q-19.07655 -47.4563 -19.07534 -46.81629Q-19.07413 -46.17627 -19.5819 -45.68981Q-19.03334 -45.82029 -18.62329 -45.52692Q-18.21324 -45.23354 -17.89633 -44.55307L-15.9787 -40.36837L-18.13569 -39.36382L-20.14477 -43.6778Q-20.36003 -44.14001 -20.59957 -44.18469Q-20.83912 -44.22937 -21.31417 -44.00813L-18.97023 -38.97516L-21.20426 -37.93474ZM-21.66585 -46.17231Q-21.20364 -46.38756 -21.67004 -47.38902Q-21.87334 -47.82555 -22.0135 -48.02588Q-22.15367 -48.22621 -22.29525 -48.26183Q-22.43683 -48.29745 -22.62942 -48.20776L-23.14299 -47.96858L-22.19226 -45.92715Z" fill="rgb(253, 250, 250)" transform="matrix(1 0.000175 -0.000175 1 56.327791 55.56347)"/><path d="M-16.01668 -40.38562L-18.4913 -52.35541L-14.5541 -53.57416L-9.84705 -42.2954L-12.05242 -41.61274L-12.79693 -43.44314L-14.20404 -43.00757L-13.75718 -41.08503ZM-13.54659 -45.24229L-15.89094 -50.9957L-15.99918 -50.9622L-14.60192 -44.91561Z" fill="rgb(253, 250, 250)" transform="matrix(1 0.000175 -0.000175 1 56.327791 55.56347)"/><path d="M-7.15499 -42.59545Q-8.46842 -42.37776 -9.39451 -43.0713Q-10.3206 -43.76483 -10.55914 -45.20402L-11.47623 -50.73719Q-11.77266 -52.52569 -11.21059 -53.55203Q-10.64851 -54.57836 -9.12549 -54.83079Q-7.79809 -55.0508 -6.86725 -54.45854Q-5.93641 -53.86628 -5.70945 -52.49696L-5.3667 -50.42901L-7.75603 -50.03299L-8.05015 -51.80752Q-8.13583 -52.32451 -8.29401 -52.49928Q-8.45219 -52.67406 -8.75958 -52.62311Q-9.08096 -52.56984 -9.16267 -52.3266Q-9.24438 -52.08335 -9.17259 -51.6502L-8.17445 -45.62798Q-8.09571 -45.15291 -7.92008 -44.95949Q-7.74446 -44.76607 -7.46501 -44.81239Q-6.9061 -44.90503 -7.05663 -45.81325L-7.41559 -47.97901L-4.99832 -48.37966L-4.62315 -46.11609Q-4.12292 -43.09799 -7.15499 -42.59545Z" fill="rgb(253, 250, 250)" transform="matrix(1 0.000175 -0.000175 1 56.327791 55.56347)"/><path d="M-3.85982 -43.14925L-4.63031 -55.29109L-2.28393 -55.43998L-1.51344 -43.29815Z" fill="rgb(253, 250, 250)" transform="matrix(1 0.000175 -0.000175 1 56.327791 55.56347)"/><path d="M-1.07523 -43.39759L-0.5771 -55.55364L1.9277 -55.451L2.80732 -49.58896L3.04566 -55.40519L5.39479 -55.30893L4.89667 -43.15287L2.51923 -43.2503L1.55156 -49.38527L1.30221 -43.30017Z" fill="rgb(253, 250, 250)" transform="matrix(1 0.000175 -0.000175 1 56.327791 55.56347)"/><path d="M7.6268 -42.55289Q6.33118 -42.79027 5.86449 -43.81891Q5.39779 -44.84755 5.73727 -46.70043L6.68168 -51.85504Q6.98543 -53.51287 7.87949 -54.22741Q8.77356 -54.94194 10.23635 -54.67393Q11.42052 -54.45697 11.98851 -53.86334Q12.5565 -53.26971 12.64136 -52.31822Q12.72621 -51.36674 12.46586 -49.94574L10.12539 -50.37455L10.32193 -51.44727Q10.40105 -51.87914 10.32603 -52.13767Q10.251 -52.3962 9.94451 -52.45235Q9.26187 -52.57742 9.09852 -51.68582L8.03669 -45.89036Q7.93714 -45.34704 8.02541 -45.04288Q8.11367 -44.73873 8.46196 -44.67492Q8.81024 -44.61111 9.00061 -44.86421Q9.19097 -45.11731 9.29051 -45.66064L9.60447 -47.3742L8.96362 -47.49161L9.34139 -49.55346L12.26698 -49.01744L10.99075 -42.05175L10.02948 -42.22787L9.80925 -43.30495Q8.96421 -42.30785 7.6268 -42.55289Z" fill="rgb(253, 250, 250)" transform="matrix(1 0.000175 -0.000175 1 56.327791 55.56347)"/><path d="" fill="rgb(253, 250, 250)" transform="matrix(1 0.000175 -0.000175 1 56.327791 55.56347)"/><path d="M15.10552 -40.70002L18.70234 -49.84761L17.35788 -50.37625L18.21303 -52.55111L23.16908 -50.6024L22.31393 -48.42754L20.96947 -48.95618L17.37265 -39.80859Z" fill="rgb(253, 250, 250)" transform="matrix(1 0.000175 -0.000175 1 56.327791 55.56347)"/><path d="M18.74432 -39.29081L24.61171 -49.94874L26.73338 -48.78072L24.63641 -44.97166L25.64141 -44.41839L27.73837 -48.22745L29.86003 -47.05944L23.99264 -36.40151L21.87097 -37.56952L24.53487 -42.40839L23.52987 -42.96167L20.86598 -38.12279Z" fill="rgb(253, 250, 250)" transform="matrix(1 0.000175 -0.000175 1 56.327791 55.56347)"/><path d="M24.30412 -36.16363L31.53931 -45.94473L35.4563 -43.04728L34.05812 -41.15711L32.13378 -42.58056L30.72717 -40.679L32.5718 -39.3145L31.20731 -37.46987L29.36268 -38.83437L27.70339 -36.5912L29.75297 -35.0751L28.34637 -33.17354Z" fill="rgb(253, 250, 250)" transform="matrix(1 0.000175 -0.000175 1 56.327791 55.56347)"/><path d="" fill="rgb(253, 250, 250)" transform="matrix(1 0.000175 -0.000175 1 56.327791 55.56347)"/><path d="M39.69081 -39.30676L41.95005 -36.82418Q42.82706 -35.86047 42.73133 -34.89245Q42.63561 -33.92443 41.59764 -32.96069L37.40573 -29.10761Q36.08493 -27.88649 34.98556 -27.74777Q33.88618 -27.60906 32.89478 -28.69847L30.69274 -31.1182ZM34.22008 -30.44073Q34.66811 -29.9484 35.14997 -30.38691L39.79042 -34.60988Q40.09419 -34.88633 40.20318 -35.07169Q40.31217 -35.25705 40.25016 -35.43041Q40.18814 -35.60378 39.94982 -35.86565L39.7687 -36.06468L33.9341 -30.75498Z" fill="rgb(253, 250, 250)" transform="matrix(1 0.000175 -0.000175 1 56.327791 55.56347)"/><path d="M34.89694 -26.42125L44.8929 -33.35657L47.67026 -29.35353L45.73856 -28.01329L44.3741 -29.9799L42.43077 -28.63159L43.73871 -26.74644L41.85356 -25.4385L40.54562 -27.32365L38.25318 -25.73313L39.70645 -23.63852L37.76311 -22.29021Z" fill="rgb(253, 250, 250)" transform="matrix(1 0.000175 -0.000175 1 56.327791 55.56347)"/><path d="M48.66293 -27.78228L50.14501 -24.9292Q50.81749 -23.63463 50.26895 -22.64743Q49.72041 -21.66023 48.11163 -20.82453Q46.50284 -19.98882 45.43125 -20.05461Q44.35965 -20.12041 43.70023 -21.38984L43.2432 -22.26965L38.96986 -20.0498L37.86646 -22.1739ZM45.25663 -23.15595Q45.45903 -22.76632 45.69824 -22.65916Q45.93745 -22.552 46.23705 -22.63581Q46.53666 -22.71963 47.03941 -22.98078Q47.71811 -23.33335 47.94141 -23.64087Q48.16471 -23.94839 47.92967 -24.40086L47.80562 -24.63966L45.19134 -23.28164Z" fill="rgb(253, 250, 250)" transform="matrix(1 0.000175 -0.000175 1 56.327791 55.56347)"/><path d="M40.98075 -15.79324L50.18851 -19.23309L49.68294 -20.58639L51.87211 -21.40422L53.73577 -16.41558L51.54661 -15.59775L51.04104 -16.95105L41.83327 -13.5112Z" fill="rgb(253, 250, 250)" transform="matrix(1 0.000175 -0.000175 1 56.327791 55.56347)"/><path d="M42.36511 -12.14491L54.21399 -14.90568L54.76357 -12.54694L50.52887 -11.56026L50.7892 -10.44296L55.0239 -11.42964L55.57348 -9.0709L43.7246 -6.31013L43.17502 -8.66887L48.5546 -9.92231L48.29427 -11.03961L42.91469 -9.78617Z" fill="rgb(253, 250, 250)" transform="matrix(1 0.000175 -0.000175 1 56.327791 55.56347)"/><path d="M43.9134 -3.06924Q43.76287 -4.71949 44.51405 -5.52756Q45.26522 -6.33562 47.08473 -6.50158L48.26953 -6.60965L48.48695 -4.22595L46.97775 -4.08829Q46.07504 -4.00595 46.12779 -3.42766Q46.15738 -3.10325 46.35937 -2.99368Q46.56137 -2.8841 47.01272 -2.92527Q47.60512 -2.97931 47.98013 -3.15573Q48.35515 -3.33216 48.59614 -3.57458Q48.83714 -3.81701 49.33576 -4.43137L50.28431 -5.57032Q51.35846 -6.8914 52.79715 -7.02262Q54.34867 -7.16414 55.22466 -6.52583Q56.10065 -5.88751 56.22544 -4.51936Q56.37468 -2.88321 55.57285 -2.08474Q54.77102 -1.28628 52.9233 -1.11775L52.69816 -3.58607L53.52905 -3.67608Q53.76884 -3.69796 53.89766 -3.84482Q54.02649 -3.99168 54.00461 -4.23146Q53.97888 -4.51355 53.81087 -4.64045Q53.64285 -4.76734 53.37486 -4.7429Q52.78246 -4.68886 52.2095 -3.95394L50.9841 -2.41996Q50.54957 -1.88256 50.14896 -1.51891Q49.74836 -1.15526 49.18102 -0.9044Q48.61369 -0.65355 47.80972 -0.58022Q46.01842 -0.41683 45.03474 -0.98843Q44.05105 -1.56003 43.9134 -3.06924Z" fill="rgb(253, 250, 250)" transform="matrix(1 0.000175 -0.000175 1 56.327791 55.56347)"/><path d="" fill="rgb(253, 250, 250)" transform="matrix(1 0.000175 -0.000175 1 56.327791 55.56347)"/><path d="M43.80003 5.74642Q43.96648 4.28287 44.94651 3.62458Q45.92654 2.96629 47.54488 3.15033L53.30056 3.8049Q54.86262 3.98255 55.5713 4.83289Q56.27997 5.68323 56.11353 7.14678Q55.94709 8.61032 55.06557 9.27982Q54.18405 9.94932 52.62199 9.77167L46.86631 9.1171Q45.23389 8.93146 44.43374 8.07071Q43.63359 7.20997 43.80003 5.74642ZM46.0235 5.99928Q45.98669 6.32295 46.25534 6.46754Q46.52399 6.61213 47.0306 6.66975L52.94108 7.34192Q53.33511 7.38673 53.59338 7.30919Q53.85166 7.23165 53.88847 6.90799Q53.95728 6.30286 53.04257 6.19884L47.14616 5.52827Q46.62547 5.46905 46.34369 5.5653Q46.06191 5.66154 46.0235 5.99928Z" fill="rgb(253, 250, 250)" transform="matrix(1 0.000175 -0.000175 1 56.327791 55.56347)"/><path d="M43.48226 9.04009L55.28981 11.97259L54.11545 16.7011L51.81992 16.13099L52.40369 13.78048L50.52052 13.31278L49.96748 15.53958L47.69944 14.9763L48.25249 12.7495L42.89166 11.4181Z" fill="rgb(253, 250, 250)" transform="matrix(1 0.000175 -0.000175 1 56.327791 55.56347)"/><path d="" fill="rgb(253, 250, 250)" transform="matrix(1 0.000175 -0.000175 1 56.327791 55.56347)"/><path d="M41.27147 16.75161L52.35361 21.77198L50.34312 26.21L48.18862 25.23398L49.18802 23.02787L47.42055 22.22718L46.47375 24.31718L44.34506 23.35285L45.29185 21.26285L40.26038 18.98352Z" fill="rgb(253, 250, 250)" transform="matrix(1 0.000175 -0.000175 1 56.327791 55.56347)"/><path d="M49.59391 27.6929L47.63649 30.87872Q47.16938 31.63897 46.56966 31.84399Q45.96993 32.049 45.25948 31.81197Q44.54903 31.57493 43.58364 30.98177Q42.70271 30.44052 42.34882 29.90724Q41.99493 29.37397 42.15033 28.68816Q41.76462 29.09948 41.26078 29.08081Q40.75693 29.06214 40.11735 28.66918L36.21025 26.23534L37.45588 24.208L41.51056 26.69926Q41.94499 26.96619 42.16946 26.87139Q42.39394 26.77659 42.66828 26.33009L37.93782 23.42362L39.22794 21.32387ZM44.15492 27.94168Q43.888 28.37611 44.82927 28.95444Q45.23956 29.20653 45.46695 29.29637Q45.69434 29.38622 45.8321 29.33787Q45.96985 29.28952 46.08107 29.10851L46.37765 28.62581L44.45892 27.44691Z" fill="rgb(253, 250, 250)" transform="matrix(1 0.000175 -0.000175 1 56.327791 55.56347)"/><path d="M36.00245 26.49906L45.47251 34.13684L42.41384 37.92928L40.58377 36.45329L42.08643 34.59015L40.24534 33.10527L38.80492 34.89124L37.01895 33.45082L38.45937 31.66485L36.28754 29.91323L34.68707 31.89764L32.84598 30.41276Z" fill="rgb(253, 250, 250)" transform="matrix(1 0.000175 -0.000175 1 56.327791 55.56347)"/><path d="M32.71249 30.55957L41.21396 39.2626L37.7287 42.66715L36.0858 40.98531L37.79804 39.31272L36.14525 37.62075L34.50394 39.22405L32.90063 37.58273L34.54195 35.97943L32.59225 33.98351L30.76856 35.76496L29.11578 34.07298Z" fill="rgb(253, 250, 250)" transform="matrix(1 0.000175 -0.000175 1 56.327791 55.56347)"/><path d="M36.3412 43.91306L33.65958 45.93205Q32.61862 46.71579 31.66367 46.53061Q30.70872 46.34542 29.84551 45.22245L26.39826 40.69092Q25.30503 39.26245 25.26899 38.15495Q25.23294 37.04745 26.40969 36.16148L29.02342 34.1936ZM28.02139 37.6428Q27.48959 38.04319 27.88146 38.56368L31.65536 43.57616Q31.90241 43.90429 32.07685 44.03002Q32.25129 44.15575 32.42966 44.11009Q32.60804 44.06444 32.89091 43.85147L33.10589 43.68961L28.36083 37.38723Z" fill="rgb(253, 250, 250)" transform="matrix(1 0.000175 -0.000175 1 56.327791 55.56347)"/><path d="M21.4077 39.24956Q22.69633 38.53604 23.80109 38.95237Q24.90584 39.3687 25.69482 40.79363L28.50086 45.86142Q29.2624 47.23678 28.98094 48.30734Q28.69947 49.37789 27.41084 50.0914Q26.12221 50.80492 25.06548 50.47533Q24.00876 50.14573 23.24721 48.77037L20.44118 43.70258Q19.64533 42.26526 19.8822 41.11417Q20.11907 39.96308 21.4077 39.24956ZM22.4917 41.20729Q22.20671 41.36508 22.2448 41.66778Q22.28289 41.97048 22.52988 42.41655L25.41138 47.62063Q25.60348 47.96757 25.81648 48.13295Q26.02947 48.29833 26.31446 48.14054Q26.84726 47.84553 26.40131 47.04013L23.52666 41.84844Q23.27281 41.38998 23.03094 41.21631Q22.78907 41.04263 22.4917 41.20729Z" fill="rgb(253, 250, 250)" transform="matrix(1 0.000175 -0.000175 1 56.327791 55.56347)"/><path d="M18.82647 40.97574L22.7532 52.49088L19.24102 53.68856L15.88048 46.99332L17.31065 54.34682L13.77166 55.55364L9.84492 44.0385L11.94955 43.32081L14.77918 51.61868L13.27668 42.86825L15.34109 42.16427L19.57827 49.98216L16.74865 41.68429Z" fill="rgb(253, 250, 250)" transform="matrix(1 0.000175 -0.000175 1 56.327791 55.56347)"/><path d="" fill="rgb(253, 250, 250)" transform="matrix(1 0.000175 -0.000175 1 56.327791 55.56347)"/></g></g>
<g id="3497de3c-a7cb-499a-ad6b-0b7d585a085e">
<g style="">
		<g id="3497de3c-a7cb-499a-ad6b-0b7d585a085e-child-0">
<path style="stroke: rgb(193,193,193); stroke-width: 0; stroke-dasharray: none; stroke-linecap: butt; stroke-dashoffset: 0; stroke-linejoin: miter; stroke-miterlimit: 4; fill: rgb(253,250,250); fill-rule: nonzero; opacity: 1;" transform="matrix(0.189338 0.000033 -0.000033 0.189338 56.290859 64.595195) matrix(1.000094 0 0 1.000094 0 0)  translate(-255.976, -255.97625)" d="M 287.30 511.95 L 287.30 413.78 C 374.35 404.64 443.05 332.94 447.49 244.59 L 462.58 244.59 C 467.63 244.59 470.67 238.98 467.91 234.75 L 395.72 124.00 C 392.26 118.70 384.02 121.15 384.02 127.48 L 384.02 235.48 C 384.02 292.71 342.43 340.22 287.83 349.45 L 287.83 155.34 L 306.69 160.45 C 311.64 161.79 316.06 157.04 314.37 152.21 L 262.63 4.26 C 260.64 -1.42 252.60 -1.42 250.61 4.26 L 198.84 152.29 C 197.16 157.11 201.54 161.85 206.48 160.54 L 224.13 155.88 L 224.13 349.45 C 169.52 340.22 127.93 292.71 127.93 235.49 L 127.93 127.48 C 127.93 121.15 119.69 118.70 116.23 124.00 L 44.04 234.75 C 41.28 238.98 44.32 244.59 49.37 244.59 L 64.46 244.59 C 68.90 332.94 137.60 404.64 224.66 413.78 L 224.66 511.95 z" stroke-linecap="round"/>
</g>
</g>
</g>

  </svg>