<svg xmlns="http://www.w3.org/2000/svg" xmlns:xlink="http://www.w3.org/1999/xlink" width="558px" height="263px" viewBox="0 0 557.5316600000006 262.7291969994935">
    <g style="" id="726d09b6-ce61-454b-8e62-50a7c22cedfa">
<g style=""><path d="M42.24091 79.12327Q43.72631 77.4522 44.84035 77.4522Q45.9544 77.4522 46.88277 78.38057Q47.81114 79.30894 47.81114 80.42299Q47.81114 81.90838 46.6971 83.2081Q36.67068 93.42019 24.60185 102.05405Q12.53302 110.6879 3.43498 110.6879Q-1.57823 110.6879 -5.57023 105.95321Q-9.56223 101.21851 -16.61785 90.26373Q-23.11646 79.86596 -25.53022 76.52382Q-50.78193 41.06002 -79.00443 34.7471Q-81.4182 35.30412 -83.27494 35.48979Q-85.13169 35.67547 -86.24573 35.86114Q-99.05726 75.78113 -113.16851 123.68511L-113.53986 128.32697Q-113.53986 129.81236 -113.81837 130.92641Q-114.09688 132.04045 -114.83958 132.59748L-116.882 132.78315Q-118.55307 132.78315 -119.29577 132.04045Q-120.59549 130.74073 -120.59549 129.25534Q-120.59549 128.51264 -120.22414 127.39859Q-105.18452 75.78113 -92.55866 36.41817Q-94.78675 36.60384 -99.42861 36.60384Q-102.3994 36.60384 -103.97763 35.76831Q-105.55586 34.93277 -105.55586 32.70468Q-105.55586 27.5058 -91.25894 27.5058L-89.58787 27.5058Q-76.59067 -12.78554 -56.90919 -70.71593Q-55.98081 -73.50105 -53.9384 -73.50105Q-52.63868 -73.50105 -51.89598 -72.75835Q-51.15328 -72.01565 -51.15328 -70.71593Q-51.15328 -69.60188 -51.52463 -68.85919Q-69.90639 -15.01363 -83.64629 27.87715L-78.63308 28.80552Q-47.43979 23.23529 -18.19609 3.55381Q11.04762 -16.12767 29.05803 -41.00804Q47.06845 -65.8884 47.06845 -86.1269Q47.06845 -104.32299 32.49301 -114.16373Q17.91757 -124.00447 -9.56223 -124.00447Q-40.01282 -124.00447 -71.6703 -109.70754Q-103.32777 -95.41062 -123.93762 -72.01565Q-144.54748 -48.62068 -144.54748 -23.1833Q-144.54748 -12.97121 -140.3698 -7.58665Q-136.19213 -2.2021 -128.20813 -1.83075Q-124.49465 -1.4594 -124.30897 1.14004L-124.30897 1.51139Q-124.30897 4.2965 -127.83679 4.2965Q-138.6059 4.11083 -144.54748 -3.22331Q-150.48906 -10.55744 -150.48906 -23.1833Q-150.48906 -50.10608 -128.76516 -74.8936Q-107.04126 -99.68113 -73.99123 -114.81359Q-40.94119 -129.94605 -9.56223 -129.94605Q20.14567 -129.94605 36.57785 -118.52707Q53.01003 -107.1081 53.01003 -86.1269Q53.01003 -66.07407 36.02082 -41.28655Q19.03162 -16.49902 -8.91237 3.92516Q-36.85636 24.34933 -67.30695 32.33333Q-42.79794 41.9884 -20.70269 73.18169Q-16.9892 78.56624 -11.2333 87.66428Q-4.92037 97.6907 -1.85674 101.21851Q1.20688 104.74632 3.43498 104.74632Q11.2333 104.74632 22.18808 96.76233Q33.14287 88.77833 42.24091 79.12327Z" fill="rgb(255, 255, 255)" transform="matrix(1 0 0 1 278.76583 129.946046)"/><path d="M34.62827 7.63864Q33.14287 7.63864 32.02882 6.5246Q30.91478 5.41055 30.91478 3.73948Q30.91478 1.69706 32.30734 0.30451Q33.69989 -1.08805 35.55664 -1.08805Q37.04203 -1.08805 38.15608 0.02599Q39.27012 1.14004 39.27012 2.81111Q39.27012 4.66785 37.9704 6.15325Q36.67068 7.63864 34.62827 7.63864ZM66.74993 21.19287Q67.6783 21.93557 67.6783 23.04961Q67.6783 24.53501 66.37858 25.83473Q53.56705 40.503 39.36296 52.29332Q25.15887 64.08364 20.14567 64.08364Q15.13246 64.08364 15.13246 55.91397Q15.13246 49.97239 17.63906 40.03882Q20.14567 30.10524 23.4878 22.86394Q24.41618 20.63585 26.27292 20.63585Q27.20129 20.63585 27.75831 21.0072Q29.24371 21.93557 29.24371 23.42096Q29.24371 24.53501 28.68669 25.64905Q25.7159 32.14766 23.39497 41.33854Q21.07404 50.52942 21.07404 55.91397Q21.07404 57.58504 21.25971 57.95639Q25.90157 56.09965 38.7131 44.86635Q51.52463 33.63305 62.10807 22.12124Q63.59346 20.45017 64.89318 20.45017Q65.63588 20.45017 66.74993 21.19287Z" fill="rgb(255, 255, 255)" transform="matrix(1 0 0 1 278.76583 129.946046)"/><path d="M111.68312 21.19287Q112.98284 22.12124 112.98284 23.42096Q112.98284 24.34933 111.86879 25.83473Q100.91401 39.94598 85.59587 54.42858Q70.27774 68.91118 61.1797 68.91118Q56.35216 68.91118 53.75272 64.82634Q51.15328 60.7415 51.15328 53.31453Q51.15328 41.61705 56.25933 31.77631Q61.36537 21.93557 68.23532 16.17966Q75.10527 10.42376 79.56146 10.42376Q82.34657 10.42376 83.9248 12.09483Q85.50304 13.7659 85.50304 16.55101Q85.50304 20.63585 81.04685 27.87715Q79.74713 30.10524 78.07606 30.10524Q77.51904 30.10524 76.59067 29.54822Q75.29095 28.61984 75.29095 27.32012Q75.29095 26.20608 76.21932 24.72068Q79.56146 19.15045 79.56146 16.55101L79.56146 16.36534L79.56146 16.36534Q76.21932 16.36534 70.74193 21.19287Q65.26453 26.0204 61.1797 34.46859Q57.09486 42.91677 57.09486 53.31453Q57.09486 57.95639 58.20891 60.46299Q59.32295 62.9696 61.1797 62.9696Q68.79234 62.9696 82.62508 49.41537Q96.45782 35.86114 107.04126 22.30692Q108.52665 20.63585 110.01205 20.63585Q110.75475 20.63585 111.68312 21.19287Z" fill="rgb(255, 255, 255)" transform="matrix(1 0 0 1 278.76583 129.946046)"/><path d="M162.55789 21.19287Q164.04328 22.12124 164.04328 23.42096Q164.04328 24.53501 163.11491 26.0204Q144.3618 56.84234 134.70674 56.84234Q131.73595 56.84234 130.52906 53.96439Q129.32218 51.08644 129.32218 45.14486Q129.32218 41.80272 129.50786 39.94598L129.69353 32.33333Q129.69353 27.13445 128.95083 19.5218Q127.83679 19.5218 105.55586 67.9828L102.21373 75.03843Q101.47103 76.7095 100.26415 77.35936Q99.05726 78.00922 97.75754 77.4522Q94.97243 76.33815 95.71512 72.99601L98.68591 60.55583Q108.15531 21.0072 116.60349 -9.4434Q125.05167 -39.89399 135.44943 -63.66031Q145.8472 -87.42662 155.68794 -87.42662Q158.47305 -87.42662 159.95845 -85.3842Q161.44384 -83.34179 161.44384 -79.99965Q161.44384 -69.78756 150.39622 -49.64189Q139.3486 -29.49623 120.96684 -0.15968L119.85279 1.14004Q114.28256 21.37854 108.34098 47.18728Q117.25335 27.87715 121.52386 20.72868Q125.79437 13.58022 128.95083 13.58022Q133.03567 13.58022 134.6139 19.61464Q136.19213 25.64905 135.63511 35.30412L135.26376 44.21649Q135.26376 48.487 135.63511 50.71509Q138.79157 49.60104 144.64031 42.35974Q150.48906 35.11845 157.91603 23.04961Q159.40142 20.82152 161.07249 20.82152Q162.00087 20.82152 162.55789 21.19287ZM155.68794 -81.48504Q143.61911 -81.48504 125.23735 -18.35577Q138.6059 -39.70832 147.05408 -55.95482Q155.50226 -72.20133 155.50226 -79.99965Q155.50226 -80.18532 155.40943 -80.83518Q155.31659 -81.48504 155.68794 -81.48504Z" fill="rgb(255, 255, 255)" transform="matrix(1 0 0 1 278.76583 129.946046)"/></g></g>

  </svg>