<svg xmlns="http://www.w3.org/2000/svg" xmlns:xlink="http://www.w3.org/1999/xlink" width="558px" height="252px" viewBox="0 0 557.5316600000006 251.9600850376769">
    <g style="" id="74191086-a1c6-48e5-a65b-a3d76b1f3d11">
<g style=""><path d="M18.38176 21.19287Q19.49581 21.93557 19.49581 23.23529Q19.49581 24.53501 18.19609 25.83473Q-1.29972 49.41537 -24.69469 71.51062Q-48.08966 93.60586 -71.6703 108.1813Q-95.25094 122.75674 -113.44702 122.75674Q-129.22934 122.75674 -137.77036 110.22372Q-146.31138 97.6907 -146.31138 74.48141Q-146.31138 37.53221 -124.95883 -11.11447Q-103.60628 -59.76114 -71.02044 -94.38941Q-38.43459 -129.01767 -6.31293 -129.20335Q4.82753 -129.20335 9.93358 -123.0761Q15.03962 -116.94884 15.03962 -103.76596Q15.03962 -87.05527 4.54902 -59.76114Q-5.94158 -32.46702 -20.70269 -11.85716Q-35.4638 8.75269 -47.53263 8.75269Q-49.57505 8.75269 -50.96761 7.45297Q-52.36017 6.15325 -52.36017 4.11083L-52.36017 3.55381Q-52.17449 1.88274 -50.87477 1.32571Q-49.57505 0.76869 -48.461 1.51139L-46.97561 2.81111Q-37.69189 2.06841 -24.2305 -17.05605Q-10.76911 -36.1805 -0.83553 -61.43221Q9.09804 -86.68392 9.09804 -103.76596Q9.09804 -114.53508 5.66307 -118.89842Q2.22809 -123.26177 -6.31293 -123.26177Q-36.76352 -123.0761 -68.04965 -89.56188Q-99.33577 -56.04766 -119.85279 -8.88637Q-140.3698 38.27491 -140.3698 74.48141Q-140.3698 95.27693 -133.49985 106.04604Q-126.6299 116.81516 -113.44702 116.81516Q-96.36498 116.81516 -73.71271 102.70391Q-51.06044 88.59266 -28.40817 67.05443Q-5.7559 45.51621 13.7399 22.12124Q15.2253 20.45017 16.52502 20.45017Q17.63906 20.45017 18.38176 21.19287Z" fill="rgb(255, 255, 255)" transform="matrix(1 0 0 1 278.76583 129.203349)"/><path d="M71.29895 21.19287Q72.59867 22.12124 72.59867 23.42096Q72.59867 24.34933 71.48462 25.83473Q64.80035 34.7471 54.12407 41.43137Q43.4478 48.11565 36.02082 48.11565Q31.56464 48.11565 28.9652 45.60905Q26.36576 43.10244 26.36576 38.83193L26.36576 38.64626Q19.12446 47.92998 15.03962 47.92998Q12.44018 47.92998 11.04762 46.16607Q9.65507 44.40216 9.65507 41.43137Q9.65507 36.41817 14.11125 23.79231Q15.2253 21.0072 17.26771 21.0072Q20.05283 21.0072 20.05283 23.79231Q20.05283 24.34933 19.68148 25.83473Q15.59664 36.97519 15.59664 41.43137L15.59664 41.80272Q18.56743 39.7603 28.59385 25.64905L29.52222 24.16366Q30.82194 22.30692 32.49301 22.30692Q33.42138 22.30692 34.16408 22.86394Q35.4638 23.97798 35.4638 25.46338Q35.4638 26.57743 34.90678 27.69147Q32.30734 32.89035 32.30734 38.83193Q32.30734 42.17407 36.02082 42.17407Q41.9624 42.17407 51.33896 36.13965Q60.71551 30.10524 66.65709 22.49259Q67.95681 20.63585 69.62788 20.63585Q70.55625 20.63585 71.29895 21.19287Z" fill="rgb(255, 255, 255)" transform="matrix(1 0 0 1 278.76583 129.203349)"/><path d="M194.77239 -40.63669Q195.70076 -39.33697 195.70076 -38.77994Q195.70076 -36.9232 193.47267 -36.55185L193.10132 -36.55185L192.17295 -36.55185Q190.68755 -36.55185 189.94485 -36.9232L189.20216 -37.29455Q141.48385 -35.06646 94.87959 -28.9392Q83.36778 -0.53103 75.94081 14.87994L75.38378 15.99399Q63.6863 59.25611 63.6863 75.03843Q63.6863 76.15248 64.05765 76.89517Q68.69951 73.73871 85.78155 54.05723Q102.86359 34.37575 110.66191 22.67826Q111.96163 20.82152 113.6327 20.82152Q114.56107 20.82152 115.11809 21.19287Q116.60349 22.12124 116.60349 23.42096Q116.60349 24.34933 115.67512 25.83473Q109.17651 35.86114 97.66471 49.60104Q86.1529 63.34095 76.12648 73.27452Q66.10007 83.2081 63.12928 83.2081Q57.74472 83.2081 57.74472 75.03843Q57.74472 62.59825 64.52183 34.56142Q71.29895 6.5246 81.51104 -27.08246Q54.77393 -23.1833 36.02082 -19.46981Q35.4638 -19.28414 34.53543 -19.28414Q32.30734 -19.28414 31.75031 -21.6979L31.75031 -22.4406Q31.75031 -24.48302 34.90678 -25.41139Q62.01523 -30.4246 83.55345 -33.39539L85.4102 -39.52264Q95.06526 -70.34458 101.47103 -87.05527Q107.87679 -103.76596 111.59028 -103.76596Q114.00405 -103.76596 115.21093 -101.72355Q116.41781 -99.68113 116.41781 -96.33899Q116.41781 -83.15611 97.47903 -35.25213Q141.66952 -41.00804 189.20216 -43.23613Q192.72997 -43.23613 194.77239 -40.63669ZM89.86638 -34.32376L90.79475 -34.32376Q110.47623 -83.89881 110.47623 -96.33899Q108.24814 -87.98364 107.1341 -85.01286L101.37819 -68.48784L90.98043 -37.6659ZM88.19531 -28.01083L88.00964 -28.01083Q87.63829 -27.26813 87.63829 -26.71111Z" fill="rgb(255, 255, 255)" transform="matrix(1 0 0 1 278.76583 129.203349)"/><path d="M162.46505 21.19287Q163.39342 22.12124 163.39342 23.04961Q163.39342 24.34933 161.72235 26.0204Q137.77036 49.78672 125.14451 57.77072Q118.08888 62.41257 113.26135 62.41257Q104.906 62.41257 104.906 49.97239Q104.906 42.17407 109.36219 28.80552Q113.81837 15.43696 120.22414 5.31771Q126.6299 -4.80154 132.38581 -4.80154Q134.79957 -4.80154 136.28497 -2.9448Q137.77036 -1.08805 137.77036 1.69706Q137.77036 8.56701 132.57148 14.60143Q127.3726 20.63585 119.57428 23.23529Q118.08888 23.60664 117.53186 23.42096Q114.56107 30.84794 112.70433 37.90356Q110.84758 44.95919 110.84758 49.97239Q110.84758 53.68588 111.40461 55.07844Q111.96163 56.471 113.26135 56.471Q116.23214 56.471 121.80237 53.12886Q133.49985 45.70188 157.63752 21.93557Q159.30859 20.2645 160.60831 20.2645Q161.53668 20.2645 162.46505 21.19287ZM131.82878 1.14004Q129.60069 1.69706 126.6299 5.87474Q123.65911 10.05241 120.68832 16.36534Q125.51586 13.95157 128.67232 9.86673Q131.82878 5.7819 131.82878 1.69706L131.82878 1.14004Z" fill="rgb(255, 255, 255)" transform="matrix(1 0 0 1 278.76583 129.203349)"/></g></g>

  </svg>