<svg xmlns="http://www.w3.org/2000/svg" xmlns:xlink="http://www.w3.org/1999/xlink" width="765px" height="232px" viewBox="0 0 764.6052930000005 232.1383150321226">
    <g style="" id="6530e4ed-8776-450b-bf5b-26a0dd3e47f8">
<g style=""><path d="M-356.11661 -111.93175L-309.48351 -111.93175Q-288.324 -111.93175 -279.28499 -98.27052Q-270.24598 -84.60928 -270.24598 -58.31397Q-270.24598 -32.01865 -278.25783 -18.66556Q-286.26968 -5.31248 -307.01833 -5.31248L-321.39858 -5.31248L-321.39858 64.53445L-356.11661 64.53445ZM-319.34426 -37.15446Q-312.97586 -37.15446 -309.9971 -39.51693Q-307.01833 -41.8794 -306.09388 -46.29619Q-305.16944 -50.71298 -305.16944 -58.93026Q-305.16944 -70.0236 -307.63463 -74.95397Q-310.09981 -79.88434 -317.49537 -79.88434L-321.39858 -79.88434L-321.39858 -37.15446Z" fill="rgb(241, 144, 39)" transform="matrix(1 0 0 1 382.302647 116.069158)"/><path d="M-217.03905 66.17791Q-238.404 66.17791 -249.49733 53.13297Q-260.59067 40.08803 -260.59067 16.46333L-260.59067 -67.55841Q-260.59067 -90.36138 -249.49733 -101.9683Q-238.404 -113.57521 -217.03905 -113.57521Q-195.67411 -113.57521 -184.58078 -101.9683Q-173.48744 -90.36138 -173.48744 -67.55841L-173.48744 16.46333Q-173.48744 40.29346 -184.58078 53.23568Q-195.67411 66.17791 -217.03905 66.17791ZM-217.03905 33.71963Q-212.31411 33.71963 -210.67066 29.61099Q-209.0272 25.50235 -209.0272 18.10679L-209.0272 -68.17471Q-209.0272 -73.92681 -210.56794 -77.52187Q-212.10868 -81.11693 -216.83362 -81.11693Q-225.6672 -81.11693 -225.6672 -67.76384L-225.6672 18.31222Q-225.6672 25.91321 -223.81831 29.81642Q-221.96942 33.71963 -217.03905 33.71963Z" fill="rgb(241, 144, 39)" transform="matrix(1 0 0 1 382.302647 116.069158)"/><path d="M-116.58274 66.17791Q-140.6183 66.17791 -151.30077 54.26284Q-161.98324 42.34778 -161.98324 15.84704L-161.98324 -1.40926L-127.26521 -1.40926L-127.26521 20.57197Q-127.26521 33.71963 -118.84249 33.71963Q-114.11755 33.71963 -112.26866 30.9463Q-110.41977 28.17296 -110.41977 21.59913Q-110.41977 12.97099 -112.4741 7.3216Q-114.52842 1.67222 -117.71261 -2.12828Q-120.89681 -5.92877 -129.1141 -13.94062L-144.31608 -29.1426Q-161.98324 -46.3989 -161.98324 -67.35298Q-161.98324 -89.95052 -151.60892 -101.76286Q-141.23459 -113.57521 -121.30768 -113.57521Q-97.47755 -113.57521 -87.00051 -100.94113Q-76.52347 -88.30706 -76.52347 -61.39545L-112.4741 -61.39545L-112.67953 -73.51594Q-112.67953 -77.00829 -114.63113 -79.06261Q-116.58274 -81.11693 -120.07508 -81.11693Q-124.18373 -81.11693 -126.23805 -78.85718Q-128.29237 -76.59743 -128.29237 -72.69422Q-128.29237 -64.06607 -118.43163 -54.82162L-97.88841 -35.10013Q-90.69829 -28.11544 -85.97335 -21.84976Q-81.24841 -15.58408 -78.37236 -7.05865Q-75.49631 1.46679 -75.49631 13.17642Q-75.49631 39.2663 -85.0489 52.7221Q-94.6015 66.17791 -116.58274 66.17791Z" fill="rgb(241, 144, 39)" transform="matrix(1 0 0 1 382.302647 116.069158)"/><path d="M-62.96495 64.53445L-62.96495 -111.93175L7.70371 -111.93175L7.70371 -77.83002L-27.01433 -77.83002L-27.01433 -43.52285L6.26568 -43.52285L6.26568 -10.24285L-27.01433 -10.24285L-27.01433 30.22728L9.96346 30.22728L9.96346 64.53445Z" fill="rgb(241, 144, 39)" transform="matrix(1 0 0 1 382.302647 116.069158)"/><path d="M20.02963 64.53445L20.02963 -111.93175L54.13137 -111.93175L54.13137 64.53445Z" fill="rgb(241, 144, 39)" transform="matrix(1 0 0 1 382.302647 116.069158)"/><path d="M68.30619 -111.93175L116.9936 -111.93175Q135.89336 -111.93175 145.34324 -101.45472Q154.79312 -90.97768 154.99855 -70.43446L155.40941 12.14926Q155.61484 38.23914 146.3704 51.38679Q137.12595 64.53445 115.76101 64.53445L68.30619 64.53445ZM110.00891 33.30877Q119.66422 33.30877 119.66422 23.85889L119.66422 -67.14755Q119.66422 -73.10508 118.73978 -76.08385Q117.81533 -79.06261 115.35015 -80.08977Q112.88496 -81.11693 107.74916 -81.11693L103.84595 -81.11693L103.84595 33.30877Z" fill="rgb(241, 144, 39)" transform="matrix(1 0 0 1 382.302647 116.069158)"/><path d="M211.69782 66.17791Q190.33288 66.17791 179.23954 53.13297Q168.1462 40.08803 168.1462 16.46333L168.1462 -67.55841Q168.1462 -90.36138 179.23954 -101.9683Q190.33288 -113.57521 211.69782 -113.57521Q233.06276 -113.57521 244.1561 -101.9683Q255.24943 -90.36138 255.24943 -67.55841L255.24943 16.46333Q255.24943 40.29346 244.1561 53.23568Q233.06276 66.17791 211.69782 66.17791ZM211.69782 33.71963Q216.42276 33.71963 218.06621 29.61099Q219.70967 25.50235 219.70967 18.10679L219.70967 -68.17471Q219.70967 -73.92681 218.16893 -77.52187Q216.62819 -81.11693 211.90325 -81.11693Q203.06967 -81.11693 203.06967 -67.76384L203.06967 18.31222Q203.06967 25.91321 204.91856 29.81642Q206.76745 33.71963 211.69782 33.71963Z" fill="rgb(241, 144, 39)" transform="matrix(1 0 0 1 382.302647 116.069158)"/><path d="M269.42425 64.53445L269.42425 -111.93175L305.78574 -111.93175L322.01488 -27.49915L322.01488 -111.93175L356.11661 -111.93175L356.11661 64.53445L321.60401 64.53445L303.93685 -23.80137L303.93685 64.53445Z" fill="rgb(241, 144, 39)" transform="matrix(1 0 0 1 382.302647 116.069158)"/></g></g>

  </svg>