<?xml version="1.0" encoding="utf-8"?>
<!-- Generator: Adobe Illustrator 24.0.0, SVG Export Plug-In . SVG Version: 6.00 Build 0)  -->
<svg version="1.1" id="Layer_1" xmlns="http://www.w3.org/2000/svg" xmlns:xlink="http://www.w3.org/1999/xlink" x="0px" y="0px"
	 viewBox="0 0 399.7 291.3" style="enable-background:new 0 0 399.7 291.3;" xml:space="preserve">
<style type="text/css">
	.st0{fill:#231F20;}
</style>
<title>0b578be4-750c-4c57-a5e5-83dafdc269fd</title>
<g id="Layer_2_1_">
	<g id="Layer_1-2">
		<g id="_0b578be4-750c-4c57-a5e5-83dafdc269fd">
			<g id="_0b578be4-750c-4c57-a5e5-83dafdc269fd-child-0">
				<path class="st0" d="M76.9,221.7c1.3-0.6,2.5-1.3,3.6-2.1c1.1,1.4,2.1,2.9,3.2,4.2c2.4,2.9,2.4,2.9,6,1.6
					c3.2-1.1,4.4-0.6,6.3,2.6c1.3,2.2,1.2,2.5-1.6,5.1c-0.1,0.1-0.2,0.2-0.3,0.3c-2,1.9-2.3,3.2-0.8,5.3s2.9,2.5,5.3,1.2
					c1-0.5,2-1.2,3.2-1.9c-0.8-2.3-1.6-4.3-2.5-6.7c1.1-0.8,2.3-1.4,3.5-2c2.2-0.8,3.6-0.1,4.8,2c1,1.2,0.8,3-0.5,4
					c-0.2,0.1-0.3,0.2-0.5,0.3c-0.4,0.3-0.8,0.7-1.1,1.1c-1.7,1.6-1.8,2.9-0.6,4.7c2.1,3,3.6,3.4,6.9,1.7c0.9-0.5,1.7-1.1,2.7-1.8
					c-0.5-1.4-1.1-2.8-1.5-4.1c-0.7-2-0.4-3.1,1.2-3.9c1.7-1.1,4-0.7,5.1,1c0,0,0,0,0,0c1.3,1.8,1.3,2.9-0.4,4.4
					c-1,0.9-2.1,1.8-3.5,2.9c0.8,1.4,1.4,2.5,2.1,3.5c1.9,2.7,3,2.9,6.2,1.3c2.7-1.4,2.9-1.8,1.6-5.2c-0.2-0.4-0.3-0.7-0.4-1.1
					c-0.4-1.7-0.1-3.1,1.7-3.9c2-0.9,4.3-0.2,5.5,1.6c1,1.6,0.7,2.9-0.8,4c-0.9,0.6-1.6,1.2-2.3,2c-0.5,0.6-0.7,1.3-0.7,2
					c0.8,3.7,4.4,5.2,7.6,3.2l1-0.6c1.1-0.7,1.7-1.6,1-2.9c-0.3-0.6-0.6-1.2-0.8-1.8c-0.6-1.7-0.8-3.3,1.1-4.4
					c2.1-1.3,4.2-1.4,5.7,0.3c0.9,1.2,1.6,2.4,2.2,3.7l-3,2.3c-2.8,2.2-2.5,5.3,0.7,7.1c1.6,0.9,3.1,0.2,4.4-0.6
					c1.4-0.7,1.9-2.3,1.3-3.7c-0.5-1.4-1-2.9-1.4-4.3c3.5-3.9,6.3-4.3,8.8-1.3c1.5,2.1,4.4,2.7,6.5,1.3c0.3-0.2,0.7-0.3,1.1-0.5
					c1.8-0.9,3.2-0.4,4.4,1.1c0.2,0.3,0.4,0.7,0.7,1c2.3,2.9,2.9,2.9,6.2,1.1c1.2-0.7,2.4-1.3,3.8-2c1.1,1.6,2,2.9,2.9,4.1
					c1.6,2,2.7,2.2,5,0.9c2.8-1.5,3.2-2.2,2.4-4.9c-0.4-1.2-0.8-2.4-1.2-3.6c1.7-1.8,3.6-3.6,5.8-2.6c2,0.9,4.1,2.4,3.7,5.4
					c-0.9,0.5-1.7,1.1-2.6,1.7c-2.7,2-2.7,4.1-0.2,6.4c1.6,1.4,2.6,1.3,4.9-0.1c1.4-0.7,2.1-2.4,1.4-3.8c0-0.1-0.1-0.1-0.1-0.2
					c-0.6-1.4-1.1-2.8-1.7-4c0.4-0.4,0.7-0.7,1.1-1.1c0.5-0.4,1.1-0.7,1.7-1c3.1-1.7,3.9-1.6,6.3,1.1c0.9,0.9,1.7,1.9,2.8,3.1
					c1-0.4,2.1-0.9,3.1-1.4c3.9-1.8,4.3-1.6,6.8,1.6c2,2.5,2.8,2.8,5.6,1.5c2.4-1.4,5.5-0.6,7,1.7c1.9,2.6,2.2,2.7,5.2,1.4
					c3.5-1.5,4-2.5,7,1.7c1.8,2.4,2.7,2.7,5.3,1.5c4.3-2,4.4-1.8,7.3,1.9c1.8,2.3,2.1,2.4,4.9,1.2c0.5-0.2,0.9-0.5,1.4-0.7
					c2.8-1.1,3.1-1,5,1.2c1,1.2,2,2.3,3.1,3.5c1.8-0.7,3.4-1.3,4.9-2c1.7-0.8,3-0.7,4,1c0.3,0.4,0.6,0.8,0.9,1.2
					c2.3,2.8,3,2.9,6.2,1.2c1.2-0.7,2.4-1.3,3.8-2c0.9,1.3,1.5,2.3,2.2,3.3c2.1,2.9,3.5,3.2,6.5,1.3c2.3-1.5,2.4-1.5,1.1-5.6
					c-0.4-1.3-0.7-2.6,0.6-3.5c1.5-1,3-2.6,4.9-1.3c1.8,1.1,3.7,2.4,3.6,5c-1.2,0.9-2.4,1.7-3.5,2.6c-1.7,1.5-1.8,2.4-0.6,4.4
					c1.4,2.1,2.9,2.6,4.9,1.8s2.6-2.1,2-4.3c-0.5-1.5-1.1-3-1.7-4.7c0.9-0.6,1.7-1.2,2.4-1.6c4.4-2.4,4.6-2.3,8.1,1.3
					c0.7,0.7,1.9,1.6,2.5,1.4c1.8-0.6,3.5-1.6,4.9-2.9c0.5-0.5-0.1-2.4-0.4-3.5c-0.9-3.1-0.2-4.5,2.7-5.9c2.7-1.3,4.1,0.5,5.6,2.1
					c1.9,1.9,3,2,5.4,0.4s3-2.5,2.1-5c-1.8-4.9-0.6-4.8,2.9-7c1.2-0.9,2.9-0.6,3.8,0.6c0.5,0.5,0.8,1,1.2,1.5c1.8,1.9,2.5,2,4.8,0.7
					s2.8-2.3,2.1-4.7c-0.5-1.6-1.1-3.1-1.7-4.7c1-0.8,1.8-1.4,2.6-2c3.7-3,3.8-3,2.1-7.6c-0.6-1.7-0.4-3,1.1-4.1s2.9-2.5,4.2-3.6
					c-0.6-1.5-1-2.6-1.4-3.7c-1.2-3.4-1-4,1.8-6.3s2.9-2.5,1.3-5.7c-1.3-2.2-0.7-5,1.3-6.5c2.6-2.3,2.8-3,1.3-6
					c-0.6-1.1-1.3-2.2-2-3.4c-1.5,0.5-2.6,0.8-3.6,1.1c-2.5,0.7-3.8,0.3-4.6-1.5c-1-1.9-0.6-3.6,1.4-5.1c1.8-1.4,2.5-1.4,3.9,0.3
					c1,1.1,1.9,2.4,3,3.9c1.3-0.8,2.5-1.4,3.5-2.1c2-1.3,2.2-2.5,1.2-4.6c-1.3-2.6-2.1-3.1-4.5-2.4l-4.2,1.3
					c-0.4-0.4-0.7-0.7-1.1-1.1c-3.1-4.6-3.1-4.7,0.8-8.7c2-2,0.6-7.3-2.1-8.1c-0.5-0.1-1-0.1-1.5,0.1c-0.7,0.2-1.5,0.5-2.2,0.8
					c-2.4,0.7-3.3,0.3-4.5-1.8s-1-3.2,0.6-4.9c1.3-1.2,2.6-2.4,3.9-3.7c-1.1-1.6-2.1-3.2-3.1-4.8c-0.8-1.2-0.5-2.9,0.7-3.8
					c0,0,0,0,0,0c0.7-0.6,1.4-1.2,2.1-1.7c1.1-0.9,1.8-1.9,1.1-3.4c-0.8-1.6-1.5-3.4-2.8-4.4c-0.7-0.6-2.6,0.2-3.9,0.5
					c-2.2,0.5-4.3-0.9-4.8-3c-0.1-0.4-0.1-0.9-0.1-1.3c0.3-2,2.1-2.6,3.6-3.3s2.1,0.5,2.9,1.4s1.8,2.1,2.8,3.2
					c1.2-0.6,2.4-1.4,3.6-2.1c1.8-1.4,1.9-2.5,0.6-4.8c-1.4-2.5-1.8-2.8-4.2-2c-1.4,0.4-2.7,0.8-4.5,1.4c-0.9-2.1-2.6-4.1-2.2-5.7
					c0.5-2.2,2.6-3.9,4.4-6.3c-0.3-1-0.7-2-1.1-3c-2-3.9-2-4,1.2-6.9c2.3-2,2.4-2.6,0.9-5.3c-0.6-1.1-1.3-2.2-2-3.3l-3.7,1
					c-2.4,0.7-3.7,0.3-4.7-1.4c-1.1-1.7-0.8-4,0.7-5.3c1-1,2.1-1.9,3.4-3l-2.2-3.8c-1.4-2.1-1-4.9,1.1-6.4c2.5-2.3,2.6-3.2,0.7-5.9
					c-1.4-1.9-2-2-5.1-0.8c-1.3,0.5-2.7,1.6-3.9,0.1c-1.3-1.6-2.4-3.3-3.4-5.1c-0.3-0.5,0.3-1.7,0.8-2.3c0.6-0.7,1.3-1.3,2.1-1.7
					c1.8-1.2,1.8-2.7,0.9-4.4c-1.3-2.5-2.7-3-5.4-1.7c-3,1.5-3.2,2.1-1.6,5c0.6,1.1,1.1,2.3,1.6,3.5c-1,0.7-2,1.2-3,1.8
					c-1.7,0.8-3.8,0.2-4.8-1.4c-1.2-1.7-1.1-3,0.7-4.8c0.9-0.9,1.8-1.8,2.7-2.7c-0.2-0.6-0.4-1.1-0.7-1.7c-2.6-4.8-2.7-4.9-8-3.4
					c-2,0.5-3.6,0.2-4.7-1.7l-2.4-4.1c1.5-1.2,2.9-2.5,4.2-3.8c1.2-1.3,0.9-3-0.5-4.5s-2.8-1.5-4.9-0.3c-1.4,0.9-2.5,1.9-1.6,3.8
					c0.7,1.5,1.3,3,2.1,4.8c-1.5,0.7-3,1.3-4.6,1.8c-1,0.2-2,0-2.9-0.5c-3.1-2-3.2-4.3-0.4-6.7c2.4-2.1,2.4-4.1,0.1-6.2
					c-1.7-1.6-3.1-1.6-5.6-0.1c-2.1,1.3-2.2,1.7-1.1,4.5c0.1,0.4,0.3,0.8,0.4,1.1c0.7,1.7,0.3,3-1.5,3.8c-2.2,1-3.9,0.7-5.5-1.3
					c-1.3-1.5-0.9-2.8,0.4-4.1c1-1,2-2,2.9-2.8c-1.8-5.4-3.8-8.3-9.9-2.5c0.4,1.3,0.8,2.6,1.2,4c0.6,2.1,0,3.1-2.1,3.8
					c-2.5,0.8-4,0.2-5.3-2c-1-1.8-0.8-2.4,1.6-4.5s2.4-2.4,1.2-4.5c-1.4-2.6-2.9-3.3-5.4-2.5c-2.9,1-3.7,2.3-2.5,5.4
					c0.6,1.6,1.4,3.1-0.4,4.5c-2.5,2-5.2,1.7-6.9-1.1c-0.5-0.9-1-1.8-1.4-2.7c1.2-1,2.4-1.9,3.4-2.9c0.5-0.5,1.4-1.5,1.2-1.8
					c-0.6-1.5-1.4-2.9-2.6-4.1c-1.4-1.2-3-0.2-4.3,0.7c-1.2,0.8-1.7,2.5-1,3.8c0.5,1.4,1.1,2.8,1.7,4.3c-1.4,0.8-2.4,1.5-3.4,2
					c-2.7,1.3-3.7,1.2-5.9-1c-1.8-2-4.8-2.6-7.1-1.2c-0.5,0.2-0.9,0.5-1.4,0.8c-1,0.7-2.4,0.5-3.1-0.5c0,0,0,0,0,0
					c-0.6-0.7-1.1-1.4-1.6-2.2c-1.1-1.7-2.6-1.9-4.4-1.3c-3,1.1-3.7,2.7-2.6,6.1c0.9,2.9,0.7,3.5-1.5,4.9c-2.2,1.3-3.8,1.3-5.6-0.3
					c-0.5-0.5-1-1.1-1.5-1.7c-0.7-1.1-2.3-1.5-3.4-0.7c0,0,0,0-0.1,0l-5.5,3.2c1.9,6,1.6,7.3-1.3,8.3c-2.4,0.8-4.1-0.7-5.1-4.3
					c0.9-0.8,1.8-1.5,2.7-2.3s1.8-1.3,3.1-2.3c-1.1-1.4-2-2.6-2.9-3.8c-1.3-1.6-2.9-1.4-4.5-0.5s-2.6,2.1-1.9,4.1
					c0.4,0.8,0.7,1.6,1,2.5c0.2,0.8,0.3,2.2-0.1,2.5c-1.8,1.4-3.9,2.5-6.1,3.3c-0.7,0.2-2.1-1.5-3-2.5c-1.3-1.3-2.5-2.2-4.4-1.5
					c-2.8,1-3.7,2.8-2.8,5.7c1.4,4,1.3,4-2.2,6.1l-1,0.6c-1.6,1-2.9,0.9-4-0.7c-0.4-0.5-0.8-1-1.2-1.5c-1.7-1.8-3-2-5.1-0.7
					s-2.7,2.7-2,4.9c0.5,1.5,1,2.9,1.5,4.4l-7,4.1c-1.2-1.4-2.1-2.7-3.2-3.7c-1.5-1.5-2.7-1.5-4.9-0.1c-1.6,1-2.5,2.2-1.5,4.2
					c0.6,1.5,1.2,3,1.7,4.5l-6.9,5.1c0.5,1.5,1,2.8,1.4,4.2c0.5,1.2,0.3,2.6-0.5,3.6c-2.3,2.6-4.4,2.7-6.9,0.2s-2.6-2.7-5.5-1
					c-3.1,1.8-3.3,2.3-2.1,6c0.4,1.1,1.1,2.8,0.7,3.2c-1.5,1.6-3.3,2.9-5.2,3.8c-1.8,0.8-2.6-1-3.6-2.2c-2.1-2.6-2.8-2.7-5.5-1
					c-2.3,1.5-2.5,2.3-1.1,5.2c0.6,1.1,1.4,2.2,2.3,3.2c1.3-0.9,2.7-1.6,4.1-2.3c0.8-0.3,2.3-0.6,2.5-0.2c1,1.3,1.6,2.8,2,4.4
					c0.3,1.9-1.6,2.4-2.9,3.2c-1.6,1-2.7-0.1-3.7-1.1s-1.9-2-2.9-3.1l-4.7,2.8c-1.5,0.9-2.2,2.1-1.3,3.9c0.4,0.8,0.7,1.7,0.9,2.6
					c0.5,1.4-0.1,3-1.4,3.7c-3.2,2.3-4.2,2.2-6.8-0.8c-1.9-2.2-2.8-2.4-5.3-1c-2.8,1.6-3.3,2.8-2,6c0.7,1.7,1.2,3.2-0.2,4.7
					c-2.9,3-5.2,2.9-8-0.3c-1.9-2.2-2.6-2.3-5-1c-3.3,1.8-3.5,2.3-2.1,5.8c0.3,0.6,0.6,1.2,0.7,1.8c0,0.8,0,2-0.5,2.4
					c-1.8,1.6-3.7,3.3-6.5,3.5c-0.9-1.2-1.7-2.3-2.6-3.4c-1.6-1.8-3.5-1.8-5.5-0.2s-2,3.8-0.2,6.6c1,1.5,1.8,1.6,4.4,0.3
					c0.8-0.5,1.6-0.9,2.4-1.3c1.2-0.4,2.3-0.2,2.8,1.3c0.3,0.9,0.6,1.7,0.9,2.6c0.5,2-0.6,3.2-2.1,4.2c-1.3,1-3.2,0.8-4.2-0.5
					c-1.1-1.1-2.1-2.3-3.3-3.6c-1.4,0.9-2.8,1.6-4.1,2.4c-2.2,1.4-2.5,2.3-1.6,4.9c0.5,1.3,1,2.6,1.7,4.1c-2.2,1.7-4.2,3.3-6.4,5
					c0.6,1.4,1.1,2.8,1.6,4.2c0.9,2.4,0.7,3.5-1.4,5.1c-1.3,0.8-2.6,1.6-3.9,2.3c-1-1.3-1.8-2.3-2.5-3.2c-2.1-2.7-4.6-2.7-6.6-0.1
					c-1.1,1.5-0.9,3,0.4,5c1,1.5,2.3,2,4,1.1c1.3-0.7,2.8-1.2,4.5-1.9c0.8,1.2,1.6,2.5,2.3,3.8c1.1,2.6,0.7,3.6-1.6,5.3
					c-1.1,0.9-2.2,1.7-3.3,2.6c0.8,1.9,1.3,3.6,2.2,5.2s0.5,2.9-0.8,4.1c-4.1,3.7-4.1,3.8-1.2,8.4c0.4,0.6,0.9,1.3,1.4,1.8
					c1.5-0.5,2.8-0.9,4.2-1.4c1.8-0.6,3,0.1,4,1.6s1.2,2.9,0.1,4.4c-0.6,0.7-1.3,1.2-2,1.9c-1.4,1.3-2.6,1-3.6-0.4s-1.8-3.1-2.9-5
					c-1.3,0.8-2.6,1.6-3.9,2.6c-2.2,1.8-2.3,3-0.9,5.3c1.3,2,2.5,2.4,5,1.4c1.3-0.5,2.5-1.1,3.9-1.7l4.4,7.4c-1.3,1-2.4,1.8-3.5,2.7
					c-2.1,1.8-2.3,2.8-1,5c1.4,2.4,2.5,2.9,5.1,1.9L76.9,221.7z M340.4,71.3c-1-2.1-0.3-3.3,3.1-5c2.8,2,3.1,2.5,3.3,5.8
					C343.1,74,341.6,73.8,340.4,71.3L340.4,71.3z M348.8,96.3c0.9-0.8,2.3,0,2.9,1.4c0.5,1.2,0.2,2.2-1,2.4c-0.9,0.2-2-0.2-3.7-0.5
					C347.7,98.1,348,96.9,348.8,96.3L348.8,96.3z M351.2,136c1.3-0.9,2.1-0.2,2.9,0.9c1,1.5,1,2.5-0.2,3.3c-1.2,0.9-2.8,0.7-3.8-0.5
					C349.4,138.4,349.9,136.8,351.2,136L351.2,136z M357.6,163.9c1.8,0.4,2.7,1.2,2.3,2.8c-0.1,0.4-1.4,0.8-1.9,0.6
					C356.2,166.6,356.6,165.4,357.6,163.9L357.6,163.9z M362.8,194.8c-0.2-0.7,0.5-1.7,0.8-2.6c0.9,0.4,1.9,0.6,2.5,1.2
					c0.3,0.4-0.1,1.4-0.3,3C364.3,195.7,363,195.4,362.8,194.8L362.8,194.8z M243.9,33.1c-0.6-1.3,0.2-2.6,2.4-3.8
					c1.1-0.7,2.3-1.4,3.2,0.3c1,2,0.7,3.7-0.9,4.7c-1.5,1-3.5,0.5-4.5-1C244,33.3,244,33.2,243.9,33.1z M351.4,231.1
					c0.4-1.3,1.5-2.3,2.8-2.6c2.4-0.3,3.4,1.6,4.1,3.8c-1.4,1.8-3.3,2.9-5.3,2.3C352.2,234.2,351.2,232.1,351.4,231.1z M338,240.6
					c0.5-0.1,1.1-0.2,1.7-0.1c0,0.5,0.1,1.1-0.1,1.3c-0.5,0.3-1,0.4-1.6,0.5l-1.2-0.6C337.2,241.3,337.5,240.8,338,240.6z
					 M325.4,249.4c0.5,1.4-0.2,2.2-3.5,3.4c-1.5-2.5-1.5-4,0-4.7C323.2,247.5,324.8,248.1,325.4,249.4L325.4,249.4z M202.3,44.8
					c1.1-0.6,2.4-1.6,3.6,0.1c1,1.5,0.7,3.5-0.8,4.5c-0.1,0.1-0.2,0.1-0.2,0.1c-1.7,1-3.1,0.7-4.3-1.1
					C199.7,47.1,200.1,46.2,202.3,44.8z M184.7,57.4c-0.8-1.9,0.7-2.5,1.7-3.2c2.2-1.3,3.2-1.2,4,0.4c1,1.8,0.6,3.3-1.1,4.3
					C187.7,59.7,185.7,59.1,184.7,57.4C184.8,57.5,184.7,57.4,184.7,57.4L184.7,57.4z M291.8,257c-0.5-1.6-0.3-3.1,1.6-3.9
					c1.7-0.8,3.8-0.1,4.8,1.5c1,1.6,0.1,2.8-1,3.7c-1,0.8-2.1,1.4-3.6,2.4C292.9,259.6,292.4,258.3,291.8,257L291.8,257z M283.6,255
					c-1,0.7-2.1,1-3-0.1c-0.8-1.3-0.6-3.5,0.4-4c1.2-0.7,2.7-0.3,3.5,0.8C285.5,253.2,284.7,254.2,283.6,255L283.6,255z M171.3,62.8
					c2.7-1.5,4.3-0.8,4.8,2.4c0.3,1.8-0.6,2.9-2.1,3.8c-1.2,0.9-2.9,0.6-3.8-0.6c0,0,0,0,0,0c-0.8-0.9-1.6-1.9-2.7-3.2L171.3,62.8
					L171.3,62.8z M269.4,248.7c0.6-0.2,1.5,0.4,2.3,0.7c-0.2,0.8-0.6,1.5-1.1,2.2c-0.3,0.3-1.3-0.3-2.4-0.5
					C268.7,250,268.9,248.9,269.4,248.7L269.4,248.7z M256.7,245.3c1,0.4,1.8,0.6,2.1,1c0.2,0.5,0.1,1.1-0.2,1.6
					c-0.6,0.3-1.4,0.2-2-0.2C256.4,247.3,256.7,246.4,256.7,245.3L256.7,245.3z M246.4,245.6c-1-0.5-1.9-0.6-2.1-1
					c-0.1-0.8-0.1-1.6,0.1-2.3c0.8,0.2,1.9,0.1,2.3,0.6S246.6,244.3,246.4,245.6L246.4,245.6z M151.1,88c-0.7-1.6,0.4-2.3,1.6-3
					c1.2-0.5,2.4-0.9,3.2,0.7c0.6,1.3,0.1,2.9-1.2,3.5c0,0,0,0,0,0c-1.2,0.7-2.8,0.2-3.4-1C151.2,88.1,151.2,88.1,151.1,88L151.1,88
					z M231.9,239.2c0.5-0.7,1.5-0.8,2.2-0.2c0.2,0.1,0.3,0.3,0.4,0.5c0.4,0.7-0.1,1.8-0.2,3.3c-1.3-0.5-2.3-0.7-2.6-1.2
					C231.5,240.8,231.5,239.9,231.9,239.2L231.9,239.2z M220.2,236.2c0.7-0.2,1.5,0.3,2.3,0.5c-0.3,0.7-0.4,1.6-0.9,1.9
					s-1.3-0.1-2.3-0.2C219.6,237.4,219.8,236.3,220.2,236.2L220.2,236.2z M133.5,108.7c0.3-0.5,0.6-1.3,1-1.3
					c0.7,0.1,1.3,0.3,1.9,0.7c-0.4,0.5-0.6,1.2-1,1.4c-0.6,0.2-1.2,0.3-1.8,0.3C133.5,109.4,133.5,109.1,133.5,108.7z M118.4,115.4
					c1.6-0.9,3-0.8,3.7,0.4c0.9,1.3,0.6,3.1-0.7,4c-0.2,0.1-0.3,0.2-0.5,0.3c-1.5,0.8-2.6,0.5-3.5-1.1c-0.8-1.1-0.5-2.5,0.6-3.3
					C118,115.6,118.2,115.5,118.4,115.4L118.4,115.4z M178,241c-0.8-2.1-0.3-3.2,1.6-4.1c1.6-0.9,3.7-0.4,4.6,1.2c0,0,0,0.1,0.1,0.1
					c1,1.6,0.8,2.9-1.1,4.3c-0.9,0.7-2,1.1-3.4,2C179.1,243.4,178.5,242.2,178,241z M171.1,236.5c0,2-1.6,2.4-3.1,2.8
					c-1.2-1.1-2-2.4-0.8-3.7c0.7-0.5,1.6-0.7,2.4-0.5C170.2,235.2,171.1,236,171.1,236.5L171.1,236.5z M100.6,126.3
					c1.5-2.2,3.3-3.4,5.4-2.6c0.9,0.3,1.4,2.3,1.5,3.6c0.1,1.5-1.6,2.9-3.1,2.9C102,130.1,101.2,128.3,100.6,126.3L100.6,126.3z
					 M84.1,146.4c1.2-0.6,2.6-0.9,3.4,0.5c0.7,1.1,0.4,2.6-0.7,3.4c0,0-0.1,0-0.1,0.1c-1.3,0.7-2.9,0.2-3.6-1.1c0,0,0-0.1-0.1-0.1
					C82.4,148,83,147.1,84.1,146.4L84.1,146.4z M74.5,184c1.1-0.5,2.2-0.7,3,0.6s0.3,3.4-0.9,3.6c-0.9,0.1-1.9-0.6-2.5-0.8
					C73.1,185.7,73.1,184.7,74.5,184L74.5,184z M77.6,212.5c0.9-0.7,1.8-1.3,2.8-1.8c2.1-1,3.5-0.6,4.7,1.1s1.4,3.2-0.3,4.8
					c-1.3,1.1-2.8,2-4.3,2.8L77.6,212.5L77.6,212.5z M364.2,151.4c-0.8-1.3-1.3-2.7-1.9-4.1c1.5-0.5,3.1-0.8,4.6-1.4
					c1.9-0.8,3,0.2,3.9,1.5c1.1,1.4,1,3.3-0.2,4.6C368,154.6,366.1,154.6,364.2,151.4L364.2,151.4z M361,78.9
					c0.7,1.1,1.6,2.9,1.2,3.8c-0.6,1.4-2.3,2.2-3.6,3.2c-0.5,0.2-1,0.1-1.4-0.3c-1.4-1.6-3.5-2.8-3-5.8c1.1-0.5,2-1,2.9-1.3
					C358.5,77.9,360,77.3,361,78.9L361,78.9z M56.7,173.4c0.9-1.9,3.2-2.8,5.1-1.9c0.7,0.3,1.2,0.8,1.6,1.4l2,2.9
					c-1.1,1.9-3,2.6-4.8,3.2c-1.4,0.4-2.2-0.2-2.8-1.4C57,176.3,55.7,175.1,56.7,173.4z M66.1,155c-2.1-0.9-3.5-3-3.3-5.3
					c0-1.1,2.8-3.1,4.1-3.2c1.5-0.1,2.7,1.2,4.6,5.3L66.1,155L66.1,155z M160.6,249.1c1.6,2.7,1.4,5-0.5,6.2s-3.9,0.8-5.3-1.3
					c-1.4-2.3-1-3.6,1.8-5.3C158.6,247.5,159.7,247.6,160.6,249.1L160.6,249.1z M85.2,228.9c2.3,1.5,3.5,3.3,3,5.8
					c-0.2,1.2-3.3,2.7-4.6,2.3c-1.6-0.3-2.8-1.6-3-3.2C80.4,230.6,83.2,230.3,85.2,228.9z M151.9,72c-1.3-0.5-2.8-3.7-2-4.6
					c1-1.2,2.5-2.6,3.9-2.7c2.6-0.1,3.2,2.5,4.2,4.9C155.9,70.9,154.4,72.9,151.9,72L151.9,72z M118,103.2l-2.1-3.5
					c-0.9-1.6-0.1-2.8,1.1-3.7c1.2-1.1,3-1.1,4.3-0.1c2.9,2.2,2.8,4.5-0.3,6.2C120,102.5,119,102.9,118,103.2L118,103.2z M211.5,248
					c0.8,1.1,1.4,2,1.9,2.9c0.8,1.4,1,2.7-0.2,3.9s-2.7,2.1-4.1,1.1c-1.2-0.8-2.5-2.4-2.4-3.6C206.8,249.8,209.1,248.9,211.5,248
					L211.5,248z M53.8,188.8c-0.8-1.9-0.1-3.6,2-4.7c1.7-0.9,3-0.7,3.9,1.1c0.5,1,1,2,1.8,3.4c-1.2,0.8-2.4,1.5-3.7,2.1
					C56.1,191.4,54.6,190.6,53.8,188.8z M367.5,107.5c1.3,2,0.9,3.7-1,4.9s-3.8,0.6-5.3-1.9c-1-1.8-0.9-2.5,1.1-3.7
					C364.7,105.3,366.2,105.5,367.5,107.5L367.5,107.5z M377.8,213.8c1.2,0.9,1.9,2.3,1.9,3.8c-0.5,1.4-1.7,2.4-3.1,2.8
					c-2.9,0.6-3.3-2.2-4.6-4.3C373.8,214.4,375.5,212.6,377.8,213.8L377.8,213.8z M227.8,24.9c-1.4-2.4-1-4.1,1.1-5.3
					s3.6-0.5,4.9,1.6c1.1,1.9,0.6,3.4-1.7,4.8C230.1,27.1,228.9,26.8,227.8,24.9L227.8,24.9z M237.7,256.7c1.2,2.3,0.7,4.1-1.4,5.1
					c-1.9,0.9-3.4,0.4-4.4-1.7s-0.3-3.5,1.9-4.6C235.7,254.7,236.8,255,237.7,256.7L237.7,256.7z M342.4,261.4
					c-0.9,1.2-2.5,2.5-4,1.4c-1.2-0.9-2.7-2.6-2.7-3.9c0.1-2.4,2.4-3.1,5-3.3C341.8,257.6,344,259,342.4,261.4L342.4,261.4z
					 M262.1,262.7c1,1.8,1.5,4.2-0.7,5.3c-2.1,1-3.4,0.9-4.6-1s-0.8-3.4,1.4-4.8C259.8,261,261.2,261.1,262.1,262.7L262.1,262.7z
					 M101,109.6c-1.3-2.2-1-3.5,1.2-4.7s3.2-0.8,4.6,1.7c1.2,2.1,1,2.8-1.4,4.2S102.3,111.9,101,109.6z M255.5,19.1
					c-1.3-2.2-0.9-4.4,1-5.4s3.4-0.5,4.5,1.5s0.8,3.1-1.5,4.4C257.8,20.7,256.4,20.5,255.5,19.1z M66.9,140.4
					c-1.2-2-0.8-3.6,1.2-4.9c2.1-1.3,3.4-0.9,4.8,1.3c1.2,1.9,0.9,3.1-1.4,4.4S67.9,142.2,66.9,140.4L66.9,140.4z M356.2,247.4
					c1,0.6,1.7,2.6,1.8,3.9c0,1.6-1.4,2.5-2.9,2.6c-2.7,0.2-3.2-2.1-4.3-4.2C352.5,248,354,246,356.2,247.4L356.2,247.4z
					 M223.4,251.7c1.8,1.4,3.1,2.9,2.6,5.2c-0.3,1.3-3.2,2.8-4.1,2.1c-1.1-0.9-2.5-2.2-2.6-3.5C219.1,253,221.5,252.5,223.4,251.7
					L223.4,251.7z M172.9,257.3c-0.9,1.2-2.4,2.1-3.6,1.3s-2.4-2.4-2.3-3.5c0.1-2.1,2-3,4.5-3.2C172.5,253.6,174.6,255,172.9,257.3
					L172.9,257.3z M85.6,118.9c-1.2-1.9-0.8-3.5,0.9-4.7s3.3-0.7,4.5,1.2s0.9,3.1-0.8,4.3c-1.2,1.1-3.1,1-4.2-0.2
					C85.8,119.3,85.7,119.1,85.6,118.9L85.6,118.9z M381.2,201.8c1.1,1,1.7,2.4,1.5,3.9c-0.7,1.3-2,2.2-3.5,2.4
					c-2.5,0-2.9-2.4-3.7-4.6C377.3,202,379.1,200.3,381.2,201.8L381.2,201.8z M60.2,216.5c-0.9-1.5-0.4-3.5,1.1-4.5
					c0.1-0.1,0.2-0.1,0.3-0.2c1.5-0.9,3.4-0.4,4.3,1.1c0,0.1,0.1,0.2,0.1,0.2c0.9,1.4,0.6,3.2-0.8,4.2c-0.1,0.1-0.2,0.1-0.3,0.2
					C63.1,218.7,61.2,218.3,60.2,216.5L60.2,216.5z M249.8,259.8c1.4,2.2,1.2,3.7-0.8,4.9s-3.2,1-4.5-1.1s-0.8-3.4,1.4-4.8
					C247.8,257.8,248.6,257.9,249.8,259.8L249.8,259.8z M376,227.7c0.9,1.3,0.6,3.1-0.7,4.1c-0.2,0.2-0.4,0.3-0.7,0.4
					c-1.8,0.9-3,0.4-4.3-1.8c-1.1-1.9-0.7-2.9,1.3-4S374.9,225.6,376,227.7z M274.5,266.4c1.2,2.1,0.9,3.6-1,4.6s-3.5,0.5-4.5-1.4
					c-0.9-1.8-0.3-3.4,1.7-4.5C272.4,264.2,273.5,264.6,274.5,266.4L274.5,266.4z M328.7,37.1c-0.9-2.1-0.4-3.5,1.6-4.4
					c1.5-0.8,3.4-0.3,4.2,1.2c0,0,0,0.1,0,0.1c0.9,1.8,0,3.6-2.2,4.6C330.6,39.4,329.5,39,328.7,37.1z M379.6,163.3
					c0.9,1.7,0.4,3.1-1.4,4.2c-2,1.1-3,0.9-4.2-1.1s-0.9-3.3,0.9-4.2C376.9,161.2,378.6,161.6,379.6,163.3L379.6,163.3z M135.4,78.9
					c-1.1-1.9-0.8-3.5,1-4.5c1.7-0.8,3.7-0.1,4.5,1.6c0,0,0,0,0,0c0.9,1.6,0.4,3.1-1.4,4.1S136.6,80.8,135.4,78.9L135.4,78.9z
					 M74.6,228.8c1.1,1.9,0.8,3.1-1,4.1c-1.5,0.9-3.4,0.4-4.3-1c0,0,0,0,0-0.1c-0.9-1.6-0.3-3,1.6-4.1
					C72.7,226.7,73.5,226.9,74.6,228.8L74.6,228.8z M184.8,39.3c-1.1-1.9-0.8-3.1,1.1-4.1s3-0.7,4.1,1.2s0.8,2.5-1.1,3.7
					C186.8,41.3,185.9,41.2,184.8,39.3z M51.1,201.1c-0.8-1.6-0.1-3.4,1.5-4.2c1.7-1,3-0.6,4.1,1.4c1,1.8,0.7,2.6-1.2,3.7
					S52,202.7,51.1,201.1L51.1,201.1z M385.1,191.1c1.1,1.8,0.9,3.2-0.8,4.2s-2.9,0.6-4.1-1.4s-1-2.8,0.7-3.8
					C382.8,188.9,384,189.2,385.1,191.1L385.1,191.1z M120.6,253.6c0.8,1.8,0.3,3.3-1.6,4.1s-2.9,0.5-3.8-1.2s-0.3-3.3,1.5-4.2
					c1.3-0.8,3-0.3,3.8,1C120.5,253.4,120.6,253.5,120.6,253.6z M326.4,266.8c1.1,1.8,0.9,3.2-0.8,4.3s-3.2,1-4.3-0.7
					s-0.8-3,1.1-4.1S325.5,265.2,326.4,266.8L326.4,266.8z M373.2,135.6c1.2,1.8,0.9,3.2-0.8,4.2s-3,0.6-4.1-1.3s-0.9-3,0.7-3.9
					c1.3-0.9,3-0.7,4,0.6C373,135.4,373.1,135.5,373.2,135.6L373.2,135.6z M70.1,127.5c-0.8-1.6-0.4-3,1.3-3.9s2.9-0.7,3.9,1
					s0.7,3-0.9,3.9c-1.2,0.9-3,0.7-3.9-0.5C70.3,127.9,70.2,127.7,70.1,127.5z M108.1,250.3c1,1.3,0.7,3.2-0.6,4.2
					c-0.1,0.1-0.2,0.1-0.3,0.2c-1.5,0.9-3.2,0.3-4.1-1.4s-0.3-3.2,1.4-4.1c1.2-0.7,2.7-0.3,3.4,0.9
					C108,250.1,108.1,250.1,108.1,250.3L108.1,250.3z M286.6,269.9c1,1.9,0.7,3.1-1.1,4.1s-3.4,0.6-4.2-1s-0.3-3,1.6-4.1
					S285.6,268.1,286.6,269.9L286.6,269.9z M169.5,48.5c-1.1-1.8-0.7-3.2,1-4.3c1.7-1,3-0.6,4.1,1.3c1,1.7,0.7,2.6-1.2,3.7
					S170.4,50.1,169.5,48.5z M200.3,30.1c-0.9-1.2-0.7-2.9,0.5-3.8c0.2-0.2,0.4-0.3,0.7-0.4c1.3-0.8,3-0.3,3.8,1
					c0,0.1,0.1,0.2,0.1,0.2c0.9,1.5,0.4,2.9-1.3,3.9S201.2,31.8,200.3,30.1L200.3,30.1z M350.5,55.4c-0.8-1.3-0.4-2.9,0.8-3.7
					c1.4-0.8,3.1-0.5,4.2,0.7c0.8,1.5,0.2,3.4-1.4,4.2c0,0-0.1,0-0.1,0C352.7,57.3,351.1,56.8,350.5,55.4L350.5,55.4z M131.3,255.6
					c1,0.7,1.7,1.8,1.7,3c-0.4,1.2-1.3,2.1-2.4,2.5c-2.2,0.5-2.5-1.6-3.4-3C128.2,256.1,129.5,254.8,131.3,255.6L131.3,255.6z
					 M49.7,157.3c1.5-0.9,2.6-0.7,3.6,0.7c1.1,1.6,0.9,2.9-0.6,3.9c-1.8,1.1-2.8,0.9-3.8-0.8S48,158.3,49.7,157.3z M95.6,247.3
					c1.1,2,0.8,3-0.9,4c-1.2,0.8-2.7,0.5-3.5-0.7c-0.1-0.2-0.2-0.4-0.3-0.5c-0.8-1.6-0.3-2.7,1.5-3.8S95,246,95.6,247.3L95.6,247.3z
					 M298.7,273.4c0.8,1.1,0.6,2.7-0.6,3.6c-0.2,0.1-0.3,0.2-0.5,0.3c-1.3,0.7-2.9,0.2-3.6-1c0,0,0-0.1-0.1-0.1
					c-1-1.5-0.5-2.8,1.3-3.8S297.7,271.8,298.7,273.4L298.7,273.4z M183.4,255.4c1.3,1.6,2.7,2.9,1.4,4.6c-0.6,0.7-2.2,1.5-2.9,1.2
					c-1.1-0.5-2-1.5-2.2-2.7C179.6,256.4,181.6,256,183.4,255.4L183.4,255.4z M154.3,57.4c-0.9-1.2-0.7-2.9,0.5-3.9
					c0,0,0.1-0.1,0.1-0.1c1.4-0.8,3.2-0.3,4.1,1c0.8,1.2,0.4,2.7-1,3.6S155.2,58.7,154.3,57.4L154.3,57.4z M369.3,94.4
					c0.9,0.6,1.5,1.7,1.4,2.8c-0.5,1.1-1.4,2-2.6,2.4c-2.2,0.6-2.7-1.3-3.5-3.1C365.9,94.6,367.4,93.5,369.3,94.4L369.3,94.4z
					 M120.1,88c-0.9-1.2-0.7-2.9,0.5-3.8c0.1-0.1,0.2-0.1,0.3-0.2c1.5-0.9,2.9-0.6,4,1.1s0.7,2.4-1,3.5S121,89.4,120.1,88L120.1,88z
					 M371.3,238.6c1.1,1.6,2.7,2.9,1,4.6c-0.7,0.7-2.3,1.2-3,0.9c-1.1-0.6-1.8-1.7-1.9-2.9C367.6,239.2,369.4,238.8,371.3,238.6z
					 M48.9,169c1.2,1.2,2.7,2.4,1.4,4.2c-0.8,0.9-2,1.4-3.3,1.2c-1.1-0.6-1.7-1.6-1.8-2.8C45.3,169.6,47,169.1,48.9,169L48.9,169z
					 M51.9,148.8c-0.8-1.3-0.4-3,0.9-3.7c1.3-0.8,3-0.4,3.7,0.9c0,0,0.1,0.1,0.1,0.1c0.8,1,0.5,2.5-0.5,3.3
					c-0.2,0.1-0.4,0.2-0.5,0.3c-1.1,0.8-2.6,0.6-3.4-0.4C52,149.1,51.9,148.9,51.9,148.8L51.9,148.8z M243.7,15.1
					c-0.9-1.3-0.6-3.1,0.7-4c0,0,0,0,0.1,0c1.2-0.8,2.9-0.4,3.6,0.9c0,0,0,0,0,0.1c1,1.5,0.6,2.7-1.2,3.8
					C245.7,16.5,244.6,16.5,243.7,15.1L243.7,15.1z M104.5,96.7c-0.8-1.2-0.5-2.8,0.7-3.6s2.8-0.5,3.6,0.7c0.1,0.1,0.2,0.3,0.2,0.4
					c0.8,1,0.6,2.4-0.4,3.2c-0.2,0.1-0.4,0.2-0.6,0.3C106.5,98.6,105.3,98.2,104.5,96.7L104.5,96.7z M363.1,66.7
					c0.9,1.2,2.6,2.3,1.3,3.9c-0.8,0.9-2,1.4-3.2,1.3c-1.3-0.4-2.1-1.7-1.8-3C359.7,66.9,361.3,66.8,363.1,66.7L363.1,66.7z
					 M88.9,105.1c-0.7-2.1,1.2-2.4,2.8-3.3c1.7,0.9,3,2,2,3.8c-0.7,0.9-1.7,1.5-2.8,1.5C90.1,107.1,89.1,105.9,88.9,105.1
					L88.9,105.1z M144.6,259.8c0.9,1.3,0.6,3.1-0.7,4.1c-1.3,0.5-2.9,0.1-3.8-1c-0.7-1.3-0.2-2.9,1.1-3.6c0,0,0,0,0,0
					c1-0.8,2.5-0.6,3.2,0.5C144.5,259.7,144.5,259.8,144.6,259.8L144.6,259.8z M299.3,16c-1,0.2-2,0.1-3-0.1
					c-1.1-1.9-0.7-3.4,0.6-4.2s2.4-0.8,3.3,0.7S300.7,15.5,299.3,16L299.3,16z M216.2,20.7c-1-1.6-0.7-2.7,0.8-3.5
					c1.1-0.7,2.5-0.4,3.3,0.6c0.1,0.1,0.2,0.3,0.2,0.5c0.8,1.5,0.4,2.6-1.2,3.4C217.8,22.5,217.1,22.2,216.2,20.7L216.2,20.7z
					 M61.7,225.8c0.9,1.5,0.8,2.8-0.6,3.6s-2.4,0.3-3.3-1.1c-0.7-0.8-0.6-2.1,0.2-2.8c0.1-0.1,0.3-0.2,0.4-0.3
					C59.6,224.4,60.8,224.3,61.7,225.8z M47.8,211.5c1-1.9,2.3-2.8,3.7-2c0.9,0.7,1.4,1.7,1.4,2.8c0,0.7-1.2,1.8-2,1.9
					C48.8,214.8,48.8,212.7,47.8,211.5z M388,179.1c0.8,1,0.5,2.5-0.5,3.3c0,0-0.1,0-0.1,0.1c-1.1,0.9-2.8,0.5-3.8-1.1
					c-0.8-1.1-0.4-2.2,0.8-3c0.9-0.8,2.3-0.8,3.1,0.1C387.7,178.7,387.9,178.9,388,179.1L388,179.1z M83.3,244.6
					c0.5,1.3,0.7,2.5-0.3,3c-1.8,1.1-3.2,0.7-4-0.8s-0.5-2.4,0.9-3.2S82.7,243.1,83.3,244.6z M47,182.8c0.7,1.1,0.4,2.5-0.7,3.2
					c-0.1,0-0.1,0.1-0.2,0.1c-1.4,0.9-2.8,0.8-3.7-0.6c-0.8-1.1-0.6-2.6,0.5-3.4c0.1-0.1,0.2-0.1,0.3-0.2c1.2-0.8,2.7-0.5,3.5,0.7
					C46.9,182.6,46.9,182.7,47,182.8L47,182.8z M341.9,40c-0.7-1.4-0.6-2.5,0.8-3.3s2.4-0.7,3.3,0.7c0.7,1,0.5,2.4-0.5,3.1
					c-0.1,0.1-0.2,0.1-0.3,0.2C343.9,41.6,342.8,41.1,341.9,40z M382.1,151.3c0.7,1,0.5,2.4-0.5,3.1c-0.2,0.1-0.4,0.2-0.6,0.3
					c-1,0.3-2.2-0.2-4.1-0.4c0.9-1.7,1.2-3,2-3.7c0.9-0.8,2.3-0.6,3.1,0.3C382,151,382.1,151.1,382.1,151.3L382.1,151.3z
					 M196.8,260.7c0.7,1.4,0.5,2.5-0.9,3.2s-2.5,0.5-3-0.7c-1-1.6-0.4-2.6,0.9-3.4S196.1,259.4,196.8,260.7L196.8,260.7z
					 M376.2,123.8c0.6,1,0.3,2.3-0.7,3c-0.2,0.1-0.3,0.2-0.5,0.2c-0.9,0.3-2.2-0.4-3-0.5c-0.9-2.1-0.3-3.1,1-3.8
					S375.5,122.5,376.2,123.8L376.2,123.8z M55.1,136.1c-0.7-1-0.4-2.4,0.7-3.1c0.1-0.1,0.2-0.1,0.3-0.2c1-0.7,2.4-0.4,3.1,0.6
					c0.1,0.1,0.1,0.2,0.2,0.4c0.8,1.3,0.8,2.4-0.6,3.2C57.1,137.8,55.8,137.6,55.1,136.1z M73.9,115.1c-0.9-0.6-0.4-2.6,0.7-3.3
					c1.3-1,2.5-0.5,3.4,0.5s0.5,2.5-1.3,3.7C75.7,115.8,74.8,115.5,73.9,115.1z M308.3,17.9c-0.6-0.8-0.5-2.1,0.4-2.7
					c0.1-0.1,0.2-0.2,0.4-0.2c1.4-0.8,2.5-0.7,3.3,0.7c0.7,0.9,0.6,2.2-0.3,3c-0.2,0.1-0.3,0.2-0.5,0.3c-1.5,0.9-2.5,0.3-3.2-1
					L308.3,17.9z M283.8,11.9c-1-1.7-0.5-2.7,0.9-3.4s2.4-0.1,3.2,1.1c0.9,1.5,0.2,2.4-1.1,3.1c-0.9,0.7-2.1,0.5-2.8-0.4
					C284,12.1,283.9,12,283.8,11.9L283.8,11.9z M353.9,261.8c0.2,1.1-0.4,2.2-0.7,4.1c-1.7-0.8-3-1.1-3.7-1.9
					c-0.9-1.3-0.1-2.4,1.2-3.1S353.8,260.6,353.9,261.8L353.9,261.8z M138.6,65.7c0.1-0.9,0.5-1.9,1-2.7c1.1-1.1,2.7-0.6,3.5,0.8
					c0.6,0.8,0.5,2-0.4,2.6c-0.1,0.1-0.3,0.2-0.4,0.2C141.1,67.4,140,67.8,138.6,65.7L138.6,65.7z M156.6,263.2
					c0.8,1,0.7,2.5-0.3,3.3c0,0-0.1,0.1-0.1,0.1c-1.2,0.8-2.6,0.4-3.6-1.3c-0.4-0.7-0.1-1.7,1.1-2.5c0.8-0.7,2.1-0.7,2.8,0.1
					C156.5,263,156.6,263.1,156.6,263.2L156.6,263.2z M310.6,276.8c0.3,1-0.1,2.2-0.4,4.1c-1.6-0.9-2.8-1.2-3.4-1.9
					c-0.9-1-0.3-2.5,1-3.2S310.3,275.6,310.6,276.8L310.6,276.8z M338.2,271c0.7,1.2,0.6,2.2-0.6,3s-2.4,0.3-3.5-1.6
					c-0.5-0.8,0-1.7,1.2-2.3S337.5,269.9,338.2,271z M39.6,197.6c-0.7-1.2-0.7-2.1,1.2-3.3c0.6,0.2,2,0.4,2.7,1.1
					c0.9,1,0.2,2.1-1,2.8S40.3,198.8,39.6,197.6z M373.3,83.8c0.6,0.9,0.3,2.2-0.7,2.7c-0.1,0.1-0.2,0.1-0.3,0.2
					c-1.2,0.6-2.5,0.4-2.9-0.9c-0.3-0.8,0.3-1.9,0.3-2.4C371.6,82.2,372.6,82.6,373.3,83.8z M126.7,75.6c-0.8,0.5-2,0.1-2.7,0.2
					c-1-1.7-0.8-2.9,0.3-3.5c0.9-0.3,1.9-0.2,2.7,0.3c0.8,0.6,0.9,1.7,0.3,2.4C127.1,75.3,126.9,75.5,126.7,75.6L126.7,75.6z
					 M271.8,8.5c-0.3-0.8,0.1-1.9,0.2-3.7c1.7,0.7,2.9,0.8,3.5,1.5c0.7,0.9,0.5,2.1-0.4,2.8c-0.1,0.1-0.2,0.1-0.4,0.2
					C273.4,10,272.3,9.7,271.8,8.5z M231.8,11.3c-0.8-1.2-0.4-2.1,1.4-3.2c0.4,0.1,1.5,0.2,2,0.8c0.7,0.7,0.7,1.9,0,2.6
					c-0.1,0.1-0.3,0.2-0.4,0.3c-0.8,0.7-2,0.6-2.7-0.2C232,11.5,231.9,11.4,231.8,11.3L231.8,11.3z M368.9,252.9
					c0.8,1.1,0.3,2.1-1,2.8c-0.8,0.5-1.9,0.3-2.4-0.6c-0.1-0.2-0.2-0.4-0.2-0.7c-0.2-0.8,0.2-1.8,0.4-3.4
					C367.2,251.9,368.4,252.2,368.9,252.9z M108.2,84.1c-0.7-0.8-0.4-1.9,0.7-2.6s2.2-0.6,2.7,0.4c0.4,0.7,0.2,1.8,0.3,3.5
					C110.1,84.8,108.8,84.7,108.2,84.1z M320.8,21c-0.3-0.9,0.2-2,0.4-3.7c1.4,0.8,2.4,1,2.9,1.6c0.9,1,0.7,2.1-0.5,2.9
					S321.2,22.3,320.8,21z M207.9,262.8c1,1.4,2.4,2.6,0.4,4c-1,0.7-2.3,0.4-2.9-0.5c-0.1-0.1-0.2-0.3-0.2-0.5
					C204.6,264.5,205.1,263.9,207.9,262.8z M70.6,242c0.5,0.7,0.4,1.8-0.4,2.3c-0.1,0.1-0.3,0.2-0.4,0.2c-1.2,0.6-2.2,0.4-3.3-1.4
					c0.3-0.6,0.7-1.6,1.4-2.2C69.2,240,70,240.9,70.6,242z M188.7,26.1c-0.6-0.7-0.4-1.8,0.3-2.3c0.1-0.1,0.3-0.2,0.4-0.2
					c1.2-0.7,2.4-0.5,2.8,0.8c0.2,0.7-0.3,1.7-0.6,3.3C190.2,27,189.2,26.8,188.7,26.1L188.7,26.1z M173,35c0.2-0.5,0.2-1.5,0.8-2.1
					c1-1,2.1-0.8,2.9,0.4s0.3,2-0.7,2.6S174.1,36.7,173,35z M39.1,145.3c0.8-1.3,1.1-2.6,1.7-2.8c0.9-0.2,1.9,0,2.7,0.6
					c0.8,0.8,0.1,2.7-1,2.8C41.6,146,40.7,145.6,39.1,145.3L39.1,145.3z M58.7,123.8c-0.7-0.7-0.7-1.9,0-2.6
					c0.2-0.1,0.3-0.3,0.5-0.4c0.8-0.6,2-0.4,2.7,0.4c0.1,0.1,0.2,0.3,0.2,0.4c0.8,1.3,0.2,2.2-1.5,3.1
					C59.9,124.6,59.2,124.2,58.7,123.8L58.7,123.8z M32.8,169.9c0.7-1.4,1-2.6,1.7-2.8c0.9-0.2,1.9,0,2.6,0.6
					c0.8,0.7,0.1,2.7-0.9,2.9C35.4,170.6,34.4,170.2,32.8,169.9z M166.2,266.2c0.7-0.3,1.7,0,3.4,0c-0.7,1.6-0.9,2.6-1.5,3.1
					c-0.7,0.6-1.7,0.5-2.3-0.1c-0.1-0.1-0.2-0.3-0.3-0.5C164.9,267.8,165,266.7,166.2,266.2L166.2,266.2z M390.5,219.2
					c0.6,1,0.6,2.1-0.5,2.6c-0.7,0.3-1.7,0.1-3.5,0.1c0.7-1.6,0.9-2.6,1.4-3.2c0.6-0.6,1.7-0.6,2.3,0
					C390.3,218.8,390.4,219,390.5,219.2z M40,157.7c-0.8,0.5-2,0.4-3.7,0.6c0.5-1.7,0.5-2.9,1.1-3.4c0.7-0.7,1.8-0.7,2.5-0.1
					c0.2,0.2,0.3,0.4,0.4,0.6C40.6,156.1,40.4,157.5,40,157.7L40,157.7z M104.1,263.7c0.3,0.3-0.1,1.9-0.6,2.2
					c-0.7,0.4-1.7,0.1-3.5,0.1c0.8-1.6,1-2.9,1.6-3.1C102.5,262.7,103.4,263,104.1,263.7L104.1,263.7z M233.2,270.4
					c0.8,0.8,0.6,1.9-0.8,3.1c-0.6-0.3-1.9-0.4-2.1-1c-0.2-0.9,0.1-1.9,0.7-2.6C231.2,269.5,232.7,269.8,233.2,270.4L233.2,270.4z
					 M43.3,132.6c-0.8-0.8-0.4-1.7,0.5-2.3s2.1-0.8,2.6,0.4c0.3,0.8,0,1.8,0,3.5C44.9,133.5,43.9,133.3,43.3,132.6L43.3,132.6z
					 M30.9,182.4c-1-1.8-0.4-2.5,0.7-3s2.2-0.4,2.4,0.9c0.1,0.9-0.3,1.8-0.9,2.4C32.5,183,31.4,182.5,30.9,182.4z M257.7,276.6
					c0.7,0.5,0.8,1.5,0.3,2.1c-0.2,0.2-0.4,0.4-0.6,0.5c-0.7,0.4-1.8,0.1-3.5,0.2c0.7-1.6,0.9-2.7,1.6-3.2
					C256.2,275.9,257.1,276.1,257.7,276.6z M221.2,267.2c0.5,0.7,0.4,1.7-0.3,2.2c-0.2,0.1-0.3,0.2-0.5,0.3c-0.8,0.3-1.7,0-3.4-0.2
					c0.9-1.5,1.1-2.5,1.7-3c0.7-0.6,1.8-0.5,2.3,0.3C221.1,266.9,221.2,267,221.2,267.2L221.2,267.2z M160.2,45.1
					c-0.7,0.3-1.5,0-3-0.2c0.6-1.5,0.9-2.8,1.4-3c0.9-0.1,1.9,0.2,2.6,0.8C162.2,43.8,161.2,44.8,160.2,45.1L160.2,45.1z
					 M322.3,280.4c0.3,0.8,0.1,1.6-0.4,2.2c-0.7,0.4-1.7,0.1-3.5,0c0.8-1.5,1.1-2.6,1.8-3C321,279.5,321.8,279.8,322.3,280.4
					L322.3,280.4z M92.5,91.5c1.3-1.2,2.4-2,3.7-0.4c0.6,1,0.2,2.3-0.8,2.9c0,0-0.1,0-0.1,0C93.3,94.5,92.8,93.3,92.5,91.5z
					 M77,100.6c1.1-1,2.3-2.1,3.5-0.5c0.7,0.7,0.6,1.9-0.1,2.6c-0.2,0.1-0.3,0.3-0.5,0.3C77.8,103.8,77.2,102.4,77,100.6z M46,221.8
					c1.4,0.6,2.6,0.6,3.1,1.3c0.6,0.8,0.4,2-0.4,2.6c-0.2,0.1-0.3,0.2-0.5,0.3c-1.2,0.6-2-0.2-2.4-1.2
					C45.7,223.7,45.8,222.8,46,221.8L46,221.8z M39.8,207.6c0.4,0.8-0.1,2-0.3,3.9c-1.5-1.1-2.5-1.5-2.9-2.2c-0.3-0.5,0.2-2,0.5-2.1
					C38,207,39.6,207.1,39.8,207.6L39.8,207.6z M378.9,111.4c0.3,0.8,0,1.7,0,3.4c-1.6-0.7-2.6-0.8-3.1-1.4
					c-0.6-0.6-0.6-1.6,0.1-2.2c0.2-0.1,0.3-0.3,0.5-0.3C377.2,110.3,378.4,110.2,378.9,111.4L378.9,111.4z M245.9,273.5
					c-0.3,0.9-0.3,2.1-0.9,2.5s-1.6-0.1-3.2-0.2c0.7-1.4,0.9-2.6,1.4-2.7C243.9,272.9,244.9,273.4,245.9,273.5L245.9,273.5z
					 M204.4,16.9c-0.3-0.5,0-1.6,0.1-2.9c1.3,0.5,2.2,0.6,2.7,1.2c0.6,0.6,0.6,1.5,0,2.1c-0.2,0.2-0.4,0.3-0.7,0.4
					C205.8,17.8,205,17.5,204.4,16.9z M145.2,54.8c-1.2-0.6-2.3-0.8-2.5-1.4c-0.2-0.8,0-1.6,0.5-2.3c0.6-0.6,1.5-0.5,2.1,0.1
					c0.2,0.2,0.3,0.4,0.4,0.7C145.8,52.6,145.4,53.5,145.2,54.8L145.2,54.8z M21.8,166.6c-0.3-0.8-0.1-1.6,0.4-2.3
					c0.8-0.3,1.6-0.2,2.3,0.3c0.4,0.4,0.1,1.5,0.1,2.9C23.3,167,22.1,167,21.8,166.6L21.8,166.6z M126.1,268.9
					c1.1,0.3,2.2,0.5,2.2,0.8c0,0.9-0.2,1.8-0.4,2.7c-0.8-0.3-1.9-0.3-2.3-0.8S125.8,270.1,126.1,268.9L126.1,268.9z M390.8,167.2
					c0.2,0.8-0.1,1.6-0.6,2.2c-0.7,0.4-1.7,0.1-3.4,0.1c0.7-1.5,0.9-2.4,1.4-2.8C389.1,166,390.3,166,390.8,167.2L390.8,167.2z
					 M116.5,266.7c0.1,0.8-0.2,1.6-0.7,2.2c-0.9,0.8-1.9,0.6-2.8-1.1c0.1-0.6,0.4-1.2,0.7-1.8C114.5,265.3,116.3,265.6,116.5,266.7
					L116.5,266.7z M28,141.8c-0.4-0.5,0-1.5,0.1-2.9c1.2,0.5,2.4,0.6,2.6,1.2c0.2,0.8,0,1.6-0.5,2.2C29.5,142.6,28.6,142.4,28,141.8
					L28,141.8z M259.9,5.2c-0.4-0.7-0.1-1.8,0-3.5c1.6,0.9,2.6,1.2,3,1.8c0.3,0.4-0.3,1.8-0.8,2.1C261.4,5.8,260.6,5.7,259.9,5.2
					L259.9,5.2z M393.6,207.2c0.2,0.8,0,1.6-0.5,2.2c-0.6,0.4-1.7,0.2-3.5,0.4c0.7-1.7,0.9-2.8,1.5-3.3c0.5-0.6,1.4-0.6,2-0.1
					C393.4,206.6,393.5,206.8,393.6,207.2L393.6,207.2z M64.9,113.2c-1.5-1-2.5-1.4-2.8-2.1c-0.2-0.5,0.5-1.4,0.8-2.2
					c0.7,0.3,1.7,0.5,2.1,1.1S65,111.4,64.9,113.2L64.9,113.2z M91.7,260.2c0.4,0.6,0,1.7-0.1,3.5c-1.6-0.9-2.6-1.1-3-1.8
					c-0.2-0.8,0.1-1.6,0.7-2.1C90.1,259.5,91,259.7,91.7,260.2L91.7,260.2z M269.9,280.2c0.4,0.5,0.1,1.5,0,2.9
					c-1.3-0.5-2.2-0.6-2.7-1.1c-0.6-0.5-0.6-1.5-0.1-2.1c0.2-0.2,0.4-0.3,0.7-0.4C268.5,279.3,269.3,279.6,269.9,280.2L269.9,280.2z
					 M387.2,231.6c0.6,0.5,0.6,1.4,0.1,2c-0.2,0.2-0.4,0.4-0.7,0.4c-0.8,0.1-1.6-0.2-2.2-0.8c-0.4-0.5,0-1.5,0.1-2.9
					C385.7,230.9,386.7,231.1,387.2,231.6L387.2,231.6z M54.4,241c0.5-1.4,0.6-2.3,1.1-2.8c0.8-0.8,2.1-0.9,2.6,0.4
					c0.2,0.8-0.1,1.7-0.7,2.3C56.9,241.2,55.9,241,54.4,241L54.4,241z M79.1,257.2c0.3,0.5-0.1,1.5-0.2,2.3
					c-0.8-0.1-1.9,0.1-2.3-0.4s-0.1-1.5-0.2-2.8C77.7,256.7,78.8,256.7,79.1,257.2L79.1,257.2z M366.1,58.4c-0.5,0.3-1.5,0-2.9-0.1
					c0.6-1.3,0.8-2.3,1.3-2.6s1.5,0.3,2.2,0.5C366.6,57,366.6,58.1,366.1,58.4L366.1,58.4z M384.5,139.4c0.2,0.8,0.1,1.6-0.4,2.2
					c-0.5,0.4-1.5,0-2.9-0.1c0.5-1.2,0.6-2.1,1.1-2.6c0.4-0.5,1.2-0.6,1.7-0.1C384.3,139,384.4,139.2,384.5,139.4L384.5,139.4z
					 M27,154.6c-0.6,0.3-1.5-0.1-3-0.3c0.8-1.3,1.1-2.4,1.6-2.5c0.8,0,1.6,0.4,2.1,1C27.9,153,27.4,154.3,27,154.6z M27.3,204.7
					c0.3,0.6-0.3,1.5-0.5,2.3c-0.6-0.3-1.5-0.3-1.9-0.8s-0.2-1.3-0.2-2.5C25.9,204.1,27.1,204.2,27.3,204.7L27.3,204.7z M29.5,191.3
					c1,1.1,2.3,2.1,0.6,3.2c-0.8,0.3-1.6,0.1-2.3-0.4C26.8,192.6,27.9,191.8,29.5,191.3L29.5,191.3z M33.5,221.7
					c0.3-0.9,0.5-2,0.8-2c0.8,0,1.6,0.2,2.3,0.5c-0.2,0.8-0.5,1.5-0.9,2.2C35.5,222.6,34.5,222.1,33.5,221.7L33.5,221.7z
					 M336.3,25.1c-1.3-0.5-2.2-0.6-2.6-1.2c-0.3-0.7-0.2-1.4,0.2-2c0.5-0.5,1.3-0.6,1.8-0.1c0.2,0.2,0.3,0.4,0.4,0.6
					C336.3,23.2,336.3,24.1,336.3,25.1L336.3,25.1z M180.6,270.4c0.3,0.2-0.1,1.3-0.2,2.6c-0.9-0.3-1.7-0.8-2.5-1.4
					c-0.2-0.2,0.2-1.6,0.4-1.6C179.1,269.9,179.9,270,180.6,270.4z M129.4,62.8c-0.4,0.3-1.3,0-2.3,0c0.2-1,0.3-2.2,0.6-2.3
					c0.8,0,1.6,0.1,2.3,0.3C129.8,61.6,129.8,62.5,129.4,62.8L129.4,62.8z M20.8,179c-0.6,0.3-1.5,0-3.1-0.1
					c0.8-1.3,1.1-2.3,1.7-2.6c0.4-0.2,1.5,0.3,1.8,0.8C21.4,177.8,21.2,178.5,20.8,179z M46.7,120.2c-0.2-0.6,0.1-1.5,0.3-2.9
					c1.2,0.8,2.3,1.1,2.4,1.7c0,0.8-0.4,1.5-1,2C48.2,121.2,46.9,120.7,46.7,120.2z M357.5,43.5c-1.1-0.5-2.1-0.6-2.2-1
					c-0.1-0.8,0-1.5,0.3-2.2c0.7,0.1,1.7,0.1,2,0.5C357.9,41.3,357.6,42.2,357.5,43.5L357.5,43.5z M31.4,129.4
					c-0.3-0.4,0.2-1.3,0.4-2.3c1,0.5,2,0.6,2.1,1.1c0.1,0.7-0.1,1.4-0.7,1.8C32.6,130,31.9,129.8,31.4,129.4L31.4,129.4z
					 M282.2,283.1c0.8,0.8,0.4,1.7-0.5,2.1c-0.9,0.1-1.7,0.1-2.6,0c0.6-1.2,0.7-2.1,1.2-2.5C280.9,282.6,281.6,282.7,282.2,283.1
					L282.2,283.1z M394.3,194c0.9,0.4,1.8,0.5,2.1,1c0.2,0.6,0,1.3-0.4,1.8c-0.8,0.7-1.8,0.6-2.1-0.5C393.6,195.7,394,195,394.3,194
					L394.3,194z M294.3,286.6c0.2,0.6,0,1.3-0.5,1.8c-0.5,0.2-1.3-0.2-2.3-0.4c0.5-0.9,0.6-1.8,1-2.1
					C293.2,285.8,293.9,286.1,294.3,286.6L294.3,286.6z M140.6,273.2c-0.2,0.7-0.3,1.6-0.7,1.9s-1.3-0.1-2.3-0.1
					c0.3-1,0.4-2.1,0.8-2.2C139.2,272.8,140,272.9,140.6,273.2L140.6,273.2z M16,188.4c1,0.5,2,0.6,2.1,1c0.2,0.6-0.3,1.4-0.5,2.1
					c-0.6-0.3-1.5-0.3-1.8-0.8S15.9,189.5,16,188.4L16,188.4z M349.7,274.5c0.2,0.7,0.1,1.4-0.3,2c-0.4,0.3-1.3-0.1-2.4-0.2
					c0.5-1,0.6-1.8,1.1-2.1C348.4,273.9,349.5,274.2,349.7,274.5L349.7,274.5z M66.7,254.3c0.1,0.8,0,1.6-0.2,2.4
					c-1-0.5-2-0.6-2.1-1c0-0.7,0.3-1.3,0.8-1.8C65.4,253.7,66.6,254,66.7,254.3z M365.2,265.5c-0.1,0.7-0.4,1.4-0.7,2
					c-0.2,0.2-1.1-0.3-1.9-0.5c0.4-0.8,0.5-1.6,1-1.8S364.7,265.4,365.2,265.5L365.2,265.5z M373.7,71.6c0.7-0.1,1.3-0.1,2,0.1
					c-0.1,0.6,0,1.5-0.3,1.7c-0.6,0.2-1.3,0.3-2,0.2c-0.3-0.2-0.6-0.4-0.9-0.5C372.9,72.6,373.2,71.8,373.7,71.6L373.7,71.6z
					 M11.6,163.3c-0.5,0.3-1.3,0.1-2.4,0.2c0.3-1,0.3-1.9,0.7-2c0.7-0.1,1.4,0,2,0.2C11.8,162.2,11.9,163.1,11.6,163.3z M221.9,8.2
					c-0.6-0.1-1.1-0.3-1.9-0.4c0.1-0.8,0.2-1.8,0.4-1.8c0.7,0,1.3,0.1,1.9,0.3C222.2,6.8,222,7.5,221.9,8.2z M383.5,244
					c0.1,0.7,0,1.4-0.3,1.9c-0.1,0.2-1.1,0-2-0.1c0.1-0.8,0.3-1.5,0.7-2.2C382.1,243.4,383.4,243.7,383.5,244z M381.6,99.5
					c0,0.7-0.1,1.5-0.3,2.2c-0.9-0.3-1.4-0.5-2-0.7c0.1-0.7,0.4-1.3,0.8-1.8C380.3,98.9,381.5,99.2,381.6,99.5L381.6,99.5z
					 M43.1,235c1.1,0.2,1.7,0.4,2.4,0.5c-0.1,0.7-0.4,1.3-0.7,1.9c-0.5,0.2-1.1,0.1-1.5-0.2C43,236.5,43,235.8,43.1,235z
					 M32.9,232.7c-0.2,0.6-0.2,1.3-0.5,1.6s-1.1-0.1-2-0.2c0.4-0.8,0.5-1.5,0.9-1.7S32.3,232.6,32.9,232.7L32.9,232.7z M4.9,188
					c-0.4,0.3-1.2,0.2-2.5,0.3c1-1.5,1.2-2.2,1.6-2.4s1,0.3,1.5,0.5C5.3,187,5.2,187.7,4.9,188L4.9,188z M37.9,104.7
					c-0.3-0.3,0.1-1,0.1-1.9c0.8,0.3,1.6,0.4,1.8,0.7c0.2,0.5,0,1.1-0.4,1.5C38.9,105.1,38.3,105,37.9,104.7L37.9,104.7z M53.5,95.7
					c-0.2-0.4,0.1-1,0.2-1.9c0.8,0.3,1.3,0.5,1.8,0.7c-0.1,0.6-0.4,1.1-0.8,1.6C54.3,96.1,53.8,96,53.5,95.7L53.5,95.7z M249.6,1.9
					c-0.4,0.2-1.1,0-1.9-0.1c0.3-0.8,0.4-1.7,0.8-1.8c0.7,0,1.3,0.2,1.9,0.4C250,1,250,1.7,249.6,1.9z M161.8,31.8
					c-0.1-0.5-0.2-1-0.1-1.5c0.2-0.4,0.4-0.7,0.6-1.1c0.5,0.4,1.2,0.7,1.3,1.3c0.1,0.6-0.1,1.2-0.5,1.6
					C162.6,32.2,162.2,32.2,161.8,31.8L161.8,31.8z M15.1,201.7c-0.4,0.8-0.6,1.6-1,1.7s-1-0.3-1.6-0.5c0.2-0.5,0.3-1.3,0.6-1.5
					S14.2,201.6,15.1,201.7z M23.4,218.8c-0.3,0.3-1.1,0.1-2,0.1c0.3-0.8,0.3-1.6,0.6-1.8s1.1,0,1.6,0.1
					C23.6,217.7,23.8,218.5,23.4,218.8z M112.3,71.7c-0.3-0.6,0-1.3,0.1-2c0.6,0.1,1.4,0,1.6,0.3c0.3,0.8,0.4,1.6,0.3,2.4
					C113.3,72.1,112.4,72,112.3,71.7z M82.4,90.3c-0.5-0.3-1.2-0.5-1.3-0.8s0.3-1.1,0.5-1.6c0.5,0.2,1.3,0.3,1.6,0.7
					s0.3,1.1,0.3,1.7C83.1,90.4,82.8,90.4,82.4,90.3L82.4,90.3z M10.9,215.7c-0.5,0.1-1-0.1-2-0.3c0.5-0.8,0.7-1.6,1.1-1.6
					s1.1,0.4,1.4,0.8C11.5,215,11.3,215.4,10.9,215.7L10.9,215.7z M151,276.2c0.6,0.1,1.1,0.3,1.6,0.6c0.2,0.1-0.2,0.8-0.3,1.6
					c-0.8-0.4-1.4-0.5-1.7-0.9C150.5,277.3,150.9,276.6,151,276.2z M96.1,80.6c0.4-0.8,0.6-1.6,1-1.8s1.1,0.4,1.6,0.6
					c-0.2,0.5-0.3,1.3-0.7,1.5S97.1,80.8,96.1,80.6L96.1,80.6z M52.4,250.6c0.8,0.4,1.7,0.4,1.8,0.8s-0.2,1.1-0.5,1.5
					c-0.1,0.2-1.1-0.1-1.3-0.3C52.2,252.2,52.4,251.5,52.4,250.6L52.4,250.6z M65.1,98.7c0.4-0.8,0.7-1.6,0.9-1.6
					c0.6,0.2,1.2,0.4,1.8,0.8c-0.3,0.5-0.5,1.2-0.9,1.3S66,99,65.1,98.7z M50.3,107.8c-0.2-0.4,0.1-1.1,0.3-2
					c0.8,0.5,1.5,0.7,1.7,1.1c0.1,0.5-0.1,1.1-0.6,1.4C51.4,108.5,50.5,108.1,50.3,107.8z M34.3,117c0.5-0.8,0.8-1.6,1.1-1.6
					s1.1,0.4,1.4,0.8c0.1,0.2-0.3,1.1-0.5,1.2C35.8,117.5,35.3,117.2,34.3,117L34.3,117z M2,200.1c-0.4,0.3-1.1,0.1-2,0.1
					c0.3-0.9,0.5-1.4,0.7-2c0.6,0.1,1.1,0.3,1.6,0.6C2.4,199.3,2.3,199.7,2,200.1L2,200.1z M8.3,175.6c-0.7,0.1-1.3,0.1-2-0.1
					c0.4-0.8,0.5-1.7,0.9-1.8s1.1,0.3,1.5,0.7C8.7,174.8,8.6,175.3,8.3,175.6L8.3,175.6z M190.9,272.9c0.8,0.4,1.4,0.4,1.7,0.8
					c0.1,0.4,0.1,0.9-0.2,1.2c-0.5,0.1-1.1,0.1-1.6,0C190.7,274.4,190.8,273.8,190.9,272.9L190.9,272.9z M18.6,228.9
					c0.7,0.1,1.3,0.4,1.9,0.7c0.2,0.1-0.1,1.1-0.3,1.2c-0.5,0.1-1.1,0-1.5-0.3C18.5,230.4,18.7,229.6,18.6,228.9L18.6,228.9z
					 M178.4,23.1c-0.4-0.1-0.9-0.3-1.6-0.6c0.3-0.6,0.5-1.2,0.8-1.4s0.9,0.2,1.3,0.3C178.8,22,178.6,22.5,178.4,23.1L178.4,23.1z
					 M306.4,290c-0.1,0.4-0.1,1-0.4,1.2s-0.9,0-2.4-0.2c0.6-0.7,0.9-1.3,1.2-1.4C305.3,289.7,305.8,289.8,306.4,290L306.4,290z
					 M147.7,41.2c-0.4,0-0.9-0.1-1.6-0.3c0.2-0.7,0.1-1.3,0.4-1.5c0.4-0.1,0.8-0.1,1.2,0.1C147.8,40.1,147.8,40.6,147.7,41.2
					L147.7,41.2z M398,182.7c0.3-0.2,0.8,0,1.7,0c-0.4,0.8-0.6,1.3-0.9,1.4s-0.8-0.1-1.2-0.2C397.7,183.6,397.7,183,398,182.7
					L398,182.7z M393.2,155.3c0.3,0.4,0.1,1-0.3,1.3c-0.4,0.2-0.9,0.2-1.2-0.2c-0.2-0.2-0.1-0.8-0.1-1.5
					C392.4,155,393,155,393.2,155.3L393.2,155.3z M347.8,27.2c-0.7-0.3-1.1-0.5-1.5-0.6c0.2-0.4,0.4-0.8,0.7-1.2
					c0.1-0.1,0.9,0,0.9,0.2C347.9,26.1,347.9,26.7,347.8,27.2z M40.5,248.1c0.5-0.1,0.9-0.1,1.4,0c0,0.4-0.1,0.9-0.2,1.6
					c-0.5-0.2-1-0.4-1.5-0.7C40.2,248.9,40.3,248.1,40.5,248.1z M87.8,273.2c0.2,0.2-0.1,0.8-0.2,1.7c-0.5-0.3-1-0.6-1.4-1
					c-0.1-0.2,0.2-0.9,0.4-0.9C87,272.9,87.5,273,87.8,273.2L87.8,273.2z"/>
			</g>
		</g>
	</g>
</g>
</svg>
