<svg xmlns="http://www.w3.org/2000/svg" viewBox="0 0 268.02 282.62"><defs><style>.cls-1{fill:#010101;}</style></defs><title>Asset 203mdpi</title><g id="Layer_2" data-name="Layer 2"><g id="Layer_1-2" data-name="Layer 1"><path class="cls-1" d="M210.79,234.08c19-15.69,24.58-34.69,31-53.08a193.9,193.9,0,0,1,13.29-28.64c5.32-9.69,10.23-19.36,12.14-29.35,6.48-34-29.22-67.24-79-66.63-29.58.36-52,17.25-66,35.09-28.05,35.71-49.37,40.69-54,73.89-4.34,30.93-8.75,85.87,53.55,99.45C144.9,269.85,194.87,247.24,210.79,234.08Z"/><path class="cls-1" d="M15.61,162.78c13.11,6.08,19.24,19.43,20.12,21.42,3.87,8.72,1.66,10.33,5.84,17.52,3.92,6.76,6.37,6.2,13,14.28,5.6,6.84,12.67,15.47,11,25.31-.29,1.74-1.38,8.29-5.84,10.38-11.57,5.42-35.07-24.21-38.94-29.2,0,0-20.36-26.3-18.82-50,.19-2.93.67-9.07,4.54-11C7.45,161,9.87,160.12,15.61,162.78Z"/><path class="cls-1" d="M214.31,28.07a14.94,14.94,0,0,0,0,17.15c3.52,4.86,9.8,7.08,14.86,5.71,9.69-2.62,14.36-18.21,8.31-25C232.47,20.28,219.85,20.38,214.31,28.07Z"/><path class="cls-1" d="M240.15,32.72a9.48,9.48,0,1,1,9.48-9.47A9.48,9.48,0,0,1,240.15,32.72Zm0-17.6a8.13,8.13,0,1,0,8.12,8.13A8.14,8.14,0,0,0,240.15,15.12Z"/><path class="cls-1" d="M229.13,163a1.26,1.26,0,1,0,1.7.52A1.26,1.26,0,0,0,229.13,163Z"/><path class="cls-1" d="M244.37,173.84a1.3,1.3,0,0,0-.52.52,1.24,1.24,0,0,0,0,1.18,1.25,1.25,0,0,0,1,.67,1.33,1.33,0,0,0,.73-.14,1.3,1.3,0,0,0,.66-1,1.31,1.31,0,0,0-.14-.72,1.24,1.24,0,0,0-.52-.52A1.26,1.26,0,0,0,244.37,173.84Z"/><path class="cls-1" d="M240.46,166.44a1.25,1.25,0,0,0,.45,2.36,1.31,1.31,0,0,0,.72-.14,1.26,1.26,0,0,0,.66-1,1.16,1.16,0,0,0-.14-.72,1.22,1.22,0,0,0-.51-.52A1.26,1.26,0,0,0,240.46,166.44Z"/><path class="cls-1" d="M233.05,170.35a1.26,1.26,0,1,0,1.7.53A1.26,1.26,0,0,0,233.05,170.35Z"/><path class="cls-1" d="M231.3,176a1.26,1.26,0,1,0,1.7.53A1.27,1.27,0,0,0,231.3,176Z"/><path class="cls-1" d="M238.71,172.1a1.25,1.25,0,1,0,1.7.52A1.27,1.27,0,0,0,238.71,172.1Z"/><path class="cls-1" d="M227.39,168.61a1.25,1.25,0,1,0,1.7.52A1.26,1.26,0,0,0,227.39,168.61Z"/><path class="cls-1" d="M234.8,164.69a1.25,1.25,0,1,0,1.17,2.22,1.25,1.25,0,0,0-1.17-2.22Z"/><path class="cls-1" d="M244.8,192.57a1.26,1.26,0,1,0,1.69.53A1.25,1.25,0,0,0,244.8,192.57Z"/><path class="cls-1" d="M248.29,181.25a1.24,1.24,0,0,0-.52.52,1.25,1.25,0,0,0,1,1.84,1.26,1.26,0,0,0,1.38-1.11,1.19,1.19,0,0,0-.14-.73,1.28,1.28,0,0,0-.51-.52A1.26,1.26,0,0,0,248.29,181.25Z"/><path class="cls-1" d="M240.88,185.17a1.25,1.25,0,0,0,1.17,2.22,1.25,1.25,0,1,0-1.17-2.22Z"/><path class="cls-1" d="M239.13,190.83a1.26,1.26,0,1,0,1.7.52A1.25,1.25,0,0,0,239.13,190.83Z"/><path class="cls-1" d="M246.54,186.91a1.26,1.26,0,1,0,1.7.52A1.26,1.26,0,0,0,246.54,186.91Z"/><path class="cls-1" d="M235.22,183.42a1.26,1.26,0,0,0-.52,1.7,1.26,1.26,0,0,0,2.22-1.18A1.27,1.27,0,0,0,235.22,183.42Z"/><path class="cls-1" d="M242.63,179.51a1.25,1.25,0,0,0-.53,1.69,1.25,1.25,0,1,0,2.22-1.17A1.24,1.24,0,0,0,242.63,179.51Z"/><path class="cls-1" d="M237.39,196.49a1.19,1.19,0,0,0-.52.52,1.25,1.25,0,0,0,1.69,1.7,1.26,1.26,0,0,0,.62-.74,1.25,1.25,0,0,0-.83-1.57A1.25,1.25,0,0,0,237.39,196.49Z"/><path class="cls-1" d="M237,177.76a1.26,1.26,0,1,0,1.7.52A1.26,1.26,0,0,0,237,177.76Z"/><path class="cls-1" d="M243.05,198.23a1.26,1.26,0,1,0,1.7.53A1.26,1.26,0,0,0,243.05,198.23Z"/><path class="cls-1" d="M241.3,203.89a1.37,1.37,0,0,0-.52.52,1.27,1.27,0,0,0,1,1.85,1.31,1.31,0,0,0,.72-.14,1.26,1.26,0,0,0,.61-.74,1.27,1.27,0,0,0-.83-1.58A1.29,1.29,0,0,0,241.3,203.89Z"/><path class="cls-1" d="M221.73,166.86a1.24,1.24,0,0,0-.52.52,1.25,1.25,0,0,0,1,1.84,1.16,1.16,0,0,0,.72-.14,1.24,1.24,0,0,0,.53-1.69,1.3,1.3,0,0,0-.75-.62A1.27,1.27,0,0,0,221.73,166.86Z"/><path class="cls-1" d="M214.32,170.78a1.26,1.26,0,1,0,1.7.52A1.25,1.25,0,0,0,214.32,170.78Z"/><path class="cls-1" d="M208.66,169a1.26,1.26,0,0,0-.52,1.7,1.26,1.26,0,0,0,2.22-1.18A1.27,1.27,0,0,0,208.66,169Z"/><path class="cls-1" d="M216.07,165.12a1.25,1.25,0,0,0-.53,1.69,1.25,1.25,0,1,0,2.22-1.17A1.24,1.24,0,0,0,216.07,165.12Z"/><path class="cls-1" d="M229.56,181.67a1.3,1.3,0,0,0-.52.52,1.26,1.26,0,0,0,0,1.18,1.28,1.28,0,0,0,1,.67,1.31,1.31,0,0,0,.72-.14,1.25,1.25,0,0,0,.53-1.7,1.26,1.26,0,0,0-.74-.61A1.24,1.24,0,0,0,229.56,181.67Z"/><path class="cls-1" d="M225.64,174.27a1.24,1.24,0,0,0-.52.52,1.26,1.26,0,0,0,1,1.84,1.25,1.25,0,0,0,1.33-.88,1.26,1.26,0,0,0-1.79-1.48Z"/><path class="cls-1" d="M218.24,178.18a1.26,1.26,0,1,0,1.69.53A1.25,1.25,0,0,0,218.24,178.18Z"/><path class="cls-1" d="M216.49,183.85a1.26,1.26,0,0,0,1.18,2.22,1.26,1.26,0,0,0-1.18-2.22Z"/><path class="cls-1" d="M223.9,179.93a1.25,1.25,0,1,0,1.7.52A1.26,1.26,0,0,0,223.9,179.93Z"/><path class="cls-1" d="M212.58,176.44a1.25,1.25,0,1,0,1.69.52A1.26,1.26,0,0,0,212.58,176.44Z"/><path class="cls-1" d="M220,172.52a1.26,1.26,0,1,0,1.7.53A1.26,1.26,0,0,0,220,172.52Z"/><path class="cls-1" d="M230,200.4a1.26,1.26,0,1,0,1.7.53A1.26,1.26,0,0,0,230,200.4Z"/><path class="cls-1" d="M233.47,189.08a1.3,1.3,0,0,0-.52.52,1.26,1.26,0,0,0,1,1.84,1.16,1.16,0,0,0,.72-.14,1.24,1.24,0,0,0,.61-.74,1.22,1.22,0,0,0-.09-.95,1.26,1.26,0,0,0-.74-.62A1.29,1.29,0,0,0,233.47,189.08Z"/><path class="cls-1" d="M226.07,193a1.25,1.25,0,1,0,1.7.52A1.26,1.26,0,0,0,226.07,193Z"/><path class="cls-1" d="M224.32,198.66a1.26,1.26,0,1,0,1.7.52A1.25,1.25,0,0,0,224.32,198.66Z"/><path class="cls-1" d="M231.73,194.74A1.25,1.25,0,1,0,232.9,197a1.25,1.25,0,0,0,.53-1.69A1.26,1.26,0,0,0,231.73,194.74Z"/><path class="cls-1" d="M220.41,191.25a1.25,1.25,0,1,0,1.17,2.22,1.25,1.25,0,0,0-1.17-2.22Z"/><path class="cls-1" d="M227.81,187.34a1.26,1.26,0,0,0,1.18,2.22,1.26,1.26,0,0,0-1.18-2.22Z"/><path class="cls-1" d="M222.58,204.32a1.19,1.19,0,0,0-.52.52,1.25,1.25,0,0,0,1,1.84,1.23,1.23,0,0,0,.72-.14,1.26,1.26,0,0,0,.52-1.7,1.24,1.24,0,0,0-.74-.61A1.22,1.22,0,0,0,222.58,204.32Z"/><path class="cls-1" d="M222.15,185.59a1.26,1.26,0,1,0,1.7.52A1.25,1.25,0,0,0,222.15,185.59Z"/><path class="cls-1" d="M233.9,207.81a1.25,1.25,0,1,0,1.7.52A1.26,1.26,0,0,0,233.9,207.81Z"/><path class="cls-1" d="M232.15,213.47a1.26,1.26,0,0,0-.52,1.7l2.22-1.18A1.26,1.26,0,0,0,232.15,213.47Z"/><path class="cls-1" d="M228.24,206.06a1.26,1.26,0,1,0,1.7.53A1.26,1.26,0,0,0,228.24,206.06Z"/><path class="cls-1" d="M235.64,202.15a1.26,1.26,0,1,0,1.7.52A1.26,1.26,0,0,0,235.64,202.15Z"/><path class="cls-1" d="M226.49,211.73a1.22,1.22,0,0,0-.52.51,1.27,1.27,0,0,0,1,1.85,1.33,1.33,0,0,0,.73-.14,1.31,1.31,0,0,0,.61-.74,1.29,1.29,0,0,0-.09-1,1.26,1.26,0,0,0-1.7-.52Z"/><path class="cls-1" d="M206.91,174.69a1.3,1.3,0,0,0-.52.52,1.26,1.26,0,0,0,1,1.84,1.22,1.22,0,0,0,.72-.13,1.25,1.25,0,0,0,.61-.75,1.22,1.22,0,0,0-.09-.95,1.26,1.26,0,0,0-.74-.62A1.29,1.29,0,0,0,206.91,174.69Z"/><path class="cls-1" d="M199.51,178.61a1.25,1.25,0,1,0,1.7.52A1.26,1.26,0,0,0,199.51,178.61Z"/><path class="cls-1" d="M193.85,176.86a1.25,1.25,0,1,0,1.7.53A1.26,1.26,0,0,0,193.85,176.86Z"/><path class="cls-1" d="M201.25,173a1.26,1.26,0,1,0,1.7.52A1.25,1.25,0,0,0,201.25,173Z"/><path class="cls-1" d="M214.75,189.51a1.3,1.3,0,0,0-.53.51,1.27,1.27,0,0,0,1,1.85,1.31,1.31,0,0,0,.72-.14,1.23,1.23,0,0,0,.61-.74,1.25,1.25,0,0,0-.83-1.57A1.18,1.18,0,0,0,214.75,189.51Z"/><path class="cls-1" d="M210.83,182.1a1.19,1.19,0,0,0-.52.52,1.25,1.25,0,0,0,1.69,1.7,1.26,1.26,0,0,0,.62-.74,1.29,1.29,0,0,0-.09-1,1.27,1.27,0,0,0-.74-.61A1.25,1.25,0,0,0,210.83,182.1Z"/><path class="cls-1" d="M203.42,186a1.26,1.26,0,1,0,1.7.53A1.27,1.27,0,0,0,203.42,186Z"/><path class="cls-1" d="M201.68,191.68a1.25,1.25,0,0,0-.53,1.69,1.26,1.26,0,1,0,.53-1.69Z"/><path class="cls-1" d="M209.08,187.76a1.26,1.26,0,0,0,1.18,2.22,1.26,1.26,0,0,0-1.18-2.22Z"/><path class="cls-1" d="M197.76,184.27a1.26,1.26,0,1,0,1.7.52A1.25,1.25,0,0,0,197.76,184.27Z"/><path class="cls-1" d="M205.17,180.35a1.26,1.26,0,1,0,1.7.53A1.26,1.26,0,0,0,205.17,180.35Z"/><path class="cls-1" d="M215.17,208.23a1.26,1.26,0,1,0,1.7.53A1.26,1.26,0,0,0,215.17,208.23Z"/><path class="cls-1" d="M218.66,196.91a1.26,1.26,0,0,0,.45,2.36,1.19,1.19,0,0,0,.73-.14,1.25,1.25,0,0,0,.52-1.69,1.26,1.26,0,0,0-.74-.62A1.29,1.29,0,0,0,218.66,196.91Z"/><path class="cls-1" d="M211.25,200.83a1.26,1.26,0,1,0,1.7.52A1.26,1.26,0,0,0,211.25,200.83Z"/><path class="cls-1" d="M209.51,206.49a1.25,1.25,0,1,0,1.7.52A1.25,1.25,0,0,0,209.51,206.49Z"/><path class="cls-1" d="M216.92,202.57a1.25,1.25,0,1,0,1.17,2.22,1.25,1.25,0,0,0-1.17-2.22Z"/><path class="cls-1" d="M205.59,199.08a1.27,1.27,0,0,0-.52,1.7,1.25,1.25,0,1,0,.52-1.7Z"/><path class="cls-1" d="M213,195.17a1.25,1.25,0,1,0,1.7.52A1.25,1.25,0,0,0,213,195.17Z"/><path class="cls-1" d="M207.76,212.15a1.24,1.24,0,0,0-.52.52,1.26,1.26,0,0,0,1,1.84,1.25,1.25,0,0,0,1.33-.88,1.26,1.26,0,0,0-1.79-1.48Z"/><path class="cls-1" d="M207.34,193.42a1.26,1.26,0,0,0-.52,1.7,1.26,1.26,0,0,0,2.22-1.18A1.27,1.27,0,0,0,207.34,193.42Z"/><path class="cls-1" d="M219.09,215.64a1.25,1.25,0,1,0,1.69.52A1.26,1.26,0,0,0,219.09,215.64Z"/><path class="cls-1" d="M217.34,221.3a1.26,1.26,0,0,0-.52,1.7,1.26,1.26,0,0,0,2.22-1.18A1.27,1.27,0,0,0,217.34,221.3Z"/><path class="cls-1" d="M224.75,217.39a1.25,1.25,0,0,0-.53,1.69,1.25,1.25,0,1,0,2.22-1.17A1.24,1.24,0,0,0,224.75,217.39Z"/><path class="cls-1" d="M213.42,213.9a1.26,1.26,0,1,0,1.7.52A1.25,1.25,0,0,0,213.42,213.9Z"/><path class="cls-1" d="M220.83,210a1.26,1.26,0,1,0,1.7.52A1.25,1.25,0,0,0,220.83,210Z"/><path class="cls-1" d="M215.59,227a1.3,1.3,0,0,0-.52.52,1.26,1.26,0,0,0,1,1.84,1.16,1.16,0,0,0,.72-.14,1.21,1.21,0,0,0,.61-.74,1.22,1.22,0,0,0-.09-.95,1.26,1.26,0,0,0-.74-.62A1.29,1.29,0,0,0,215.59,227Z"/><path class="cls-1" d="M211.68,219.56a1.22,1.22,0,0,0-.52.51,1.24,1.24,0,0,0,0,1.18,1.25,1.25,0,0,0,1,.67,1.31,1.31,0,0,0,.72-.14,1.25,1.25,0,0,0,.53-1.7,1.26,1.26,0,0,0-.74-.61A1.2,1.2,0,0,0,211.68,219.56Z"/><path class="cls-1" d="M192.1,182.52a1.37,1.37,0,0,0-.52.52,1.26,1.26,0,0,0,0,1.18,1.28,1.28,0,0,0,1.7.53,1.26,1.26,0,0,0,.52-1.7,1.26,1.26,0,0,0-.74-.62A1.29,1.29,0,0,0,192.1,182.52Z"/><path class="cls-1" d="M184.7,186.44a1.25,1.25,0,1,0,1.69.52A1.26,1.26,0,0,0,184.7,186.44Z"/><path class="cls-1" d="M179,184.69a1.26,1.26,0,0,0,1.18,2.22,1.26,1.26,0,0,0-1.18-2.22Z"/><path class="cls-1" d="M186.44,180.78a1.26,1.26,0,1,0,1.7.52A1.25,1.25,0,0,0,186.44,180.78Z"/><path class="cls-1" d="M199.93,197.34a1.28,1.28,0,0,0-.52.51,1.27,1.27,0,0,0,1,1.85,1.31,1.31,0,0,0,.72-.14,1.26,1.26,0,0,0,.52-1.7,1.26,1.26,0,0,0-1.7-.52Z"/><path class="cls-1" d="M196,189.93a1.19,1.19,0,0,0-.52.52,1.25,1.25,0,0,0,1,1.84,1.23,1.23,0,0,0,.72-.14,1.26,1.26,0,0,0,.62-.74,1.25,1.25,0,0,0-.84-1.57A1.27,1.27,0,0,0,196,189.93Z"/><path class="cls-1" d="M188.61,193.85a1.26,1.26,0,0,0,1.18,2.22,1.26,1.26,0,0,0-1.18-2.22Z"/><path class="cls-1" d="M186.87,199.51a1.25,1.25,0,0,0-.53,1.69,1.25,1.25,0,1,0,2.22-1.17A1.24,1.24,0,0,0,186.87,199.51Z"/><path class="cls-1" d="M194.27,195.59a1.26,1.26,0,1,0,1.7.52A1.26,1.26,0,0,0,194.27,195.59Z"/><path class="cls-1" d="M183,192.1a1.25,1.25,0,1,0,1.7.52A1.27,1.27,0,0,0,183,192.1Z"/><path class="cls-1" d="M190.36,188.18a1.26,1.26,0,1,0,1.7.53A1.26,1.26,0,0,0,190.36,188.18Z"/><path class="cls-1" d="M200.36,216.06a1.26,1.26,0,1,0,1.7.53A1.26,1.26,0,0,0,200.36,216.06Z"/><path class="cls-1" d="M203.85,204.74a1.24,1.24,0,0,0-.52.52,1.25,1.25,0,0,0,1,1.84A1.16,1.16,0,0,0,205,207a1.24,1.24,0,0,0,.53-1.69,1.32,1.32,0,0,0-.74-.62A1.29,1.29,0,0,0,203.85,204.74Z"/><path class="cls-1" d="M196.44,208.66a1.26,1.26,0,1,0,1.7.52A1.25,1.25,0,0,0,196.44,208.66Z"/><path class="cls-1" d="M194.7,214.32a1.25,1.25,0,1,0,1.69.52A1.26,1.26,0,0,0,194.7,214.32Z"/><path class="cls-1" d="M202.1,210.4a1.26,1.26,0,1,0,1.7.53A1.26,1.26,0,0,0,202.1,210.4Z"/><path class="cls-1" d="M190.78,206.91a1.26,1.26,0,1,0,1.7.53A1.26,1.26,0,0,0,190.78,206.91Z"/><path class="cls-1" d="M198.19,203a1.25,1.25,0,1,0,1.17,2.22,1.25,1.25,0,1,0-1.17-2.22Z"/><path class="cls-1" d="M192.53,201.25a1.25,1.25,0,1,0,1.17,2.22,1.25,1.25,0,0,0-1.17-2.22Z"/><path class="cls-1" d="M208.19,230.88a1.25,1.25,0,1,0,1.7.52A1.26,1.26,0,0,0,208.19,230.88Z"/><path class="cls-1" d="M204.27,223.47a1.26,1.26,0,1,0,1.7.52A1.26,1.26,0,0,0,204.27,223.47Z"/><path class="cls-1" d="M202.53,229.13a1.25,1.25,0,1,0,1.7.53A1.26,1.26,0,0,0,202.53,229.13Z"/><path class="cls-1" d="M209.93,225.22a1.26,1.26,0,1,0,1.7.52A1.25,1.25,0,0,0,209.93,225.22Z"/><path class="cls-1" d="M198.61,221.73a1.26,1.26,0,0,0,1.18,2.22,1.27,1.27,0,0,0,.52-1.7A1.25,1.25,0,0,0,198.61,221.73Z"/><path class="cls-1" d="M206,217.81a1.25,1.25,0,1,0,1.7.52A1.26,1.26,0,0,0,206,217.81Z"/><path class="cls-1" d="M200.78,234.79a1.24,1.24,0,0,0-.52.52,1.26,1.26,0,0,0,0,1.18,1.28,1.28,0,0,0,1.7.53,1.26,1.26,0,0,0-1.18-2.23Z"/><path class="cls-1" d="M196.87,227.39a1.22,1.22,0,0,0-.52.51,1.26,1.26,0,0,0,0,1.18,1.28,1.28,0,0,0,1,.67,1.31,1.31,0,0,0,.72-.14,1.26,1.26,0,0,0,.52-1.7A1.24,1.24,0,0,0,196.87,227.39Z"/><path class="cls-1" d="M212.1,238.28a1.26,1.26,0,1,0,1.7.53A1.27,1.27,0,0,0,212.1,238.28Z"/><path class="cls-1" d="M210.36,244a1.25,1.25,0,0,0-.53,1.69,1.26,1.26,0,0,0,1.7.53l.53-1.7A1.26,1.26,0,0,0,210.36,244Z"/><path class="cls-1" d="M206.44,236.54a1.26,1.26,0,1,0,1.7.52A1.25,1.25,0,0,0,206.44,236.54Z"/><path class="cls-1" d="M213.85,232.62a1.26,1.26,0,0,0-.52,1.7,1.25,1.25,0,0,0,2.22-1.17A1.26,1.26,0,0,0,213.85,232.62Z"/><path class="cls-1" d="M204.7,242.2a1.19,1.19,0,0,0-.52.52,1.25,1.25,0,0,0,1,1.84,1.23,1.23,0,0,0,.72-.14,1.25,1.25,0,0,0-1.17-2.22Z"/><path class="cls-1" d="M177.29,190.35a1.3,1.3,0,0,0-.52.52,1.24,1.24,0,0,0,0,1.18,1.25,1.25,0,0,0,1,.67,1.31,1.31,0,0,0,.72-.14,1.26,1.26,0,0,0-1.17-2.23Z"/><path class="cls-1" d="M169.88,194.27a1.26,1.26,0,1,0,1.7.52A1.25,1.25,0,0,0,169.88,194.27Z"/><path class="cls-1" d="M164.22,192.52a1.26,1.26,0,1,0,1.7.53A1.26,1.26,0,0,0,164.22,192.52Z"/><path class="cls-1" d="M171.63,188.61a1.25,1.25,0,1,0,1.7.52A1.26,1.26,0,0,0,171.63,188.61Z"/><path class="cls-1" d="M185.12,205.17a1.19,1.19,0,0,0-.52.52,1.23,1.23,0,0,0,0,1.18,1.26,1.26,0,0,0,1,.66,1.31,1.31,0,0,0,.72-.14,1.25,1.25,0,1,0-1.17-2.22Z"/><path class="cls-1" d="M181.2,197.76a1.3,1.3,0,0,0-.52.52,1.26,1.26,0,0,0,1,1.84,1.23,1.23,0,0,0,.72-.14,1.26,1.26,0,1,0-1.18-2.22Z"/><path class="cls-1" d="M173.8,201.68a1.25,1.25,0,0,0-.53,1.69,1.26,1.26,0,1,0,.53-1.69Z"/><path class="cls-1" d="M172.05,207.34a1.26,1.26,0,0,0,1.18,2.22,1.26,1.26,0,0,0-1.18-2.22Z"/><path class="cls-1" d="M179.46,203.42a1.26,1.26,0,0,0-.52,1.7,1.26,1.26,0,0,0,2.22-1.18A1.27,1.27,0,0,0,179.46,203.42Z"/><path class="cls-1" d="M168.14,199.93a1.25,1.25,0,1,0,1.7.52A1.26,1.26,0,0,0,168.14,199.93Z"/><path class="cls-1" d="M175.54,196a1.26,1.26,0,1,0,1.7.52A1.25,1.25,0,0,0,175.54,196Z"/><path class="cls-1" d="M193,220a1.19,1.19,0,0,0-.52.52,1.26,1.26,0,0,0,1,1.84A1.26,1.26,0,1,0,193,220Z"/><path class="cls-1" d="M185.54,223.9a1.26,1.26,0,1,0,1.7.52A1.25,1.25,0,0,0,185.54,223.9Z"/><path class="cls-1" d="M189,212.57a1.39,1.39,0,0,0-.53.52,1.26,1.26,0,0,0,0,1.18,1.28,1.28,0,0,0,1.7.53,1.26,1.26,0,0,0-1.17-2.23Z"/><path class="cls-1" d="M181.63,216.49a1.25,1.25,0,1,0,1.7.52A1.25,1.25,0,0,0,181.63,216.49Z"/><path class="cls-1" d="M179.88,222.15a1.26,1.26,0,1,0,1.7.52A1.26,1.26,0,0,0,179.88,222.15Z"/><path class="cls-1" d="M187.29,218.24a1.25,1.25,0,0,0,1.17,2.22,1.25,1.25,0,1,0-1.17-2.22Z"/><path class="cls-1" d="M176,214.74a1.25,1.25,0,1,0,1.17,2.22,1.25,1.25,0,0,0,.53-1.69A1.26,1.26,0,0,0,176,214.74Z"/><path class="cls-1" d="M183.37,210.83a1.26,1.26,0,1,0,1.7.52A1.26,1.26,0,0,0,183.37,210.83Z"/><path class="cls-1" d="M177.71,209.08a1.27,1.27,0,0,0-.52,1.7,1.25,1.25,0,1,0,.52-1.7Z"/><path class="cls-1" d="M193.38,238.71a1.25,1.25,0,1,0,1.69.52A1.26,1.26,0,0,0,193.38,238.71Z"/><path class="cls-1" d="M189.46,231.3a1.26,1.26,0,0,0-.52,1.7,1.25,1.25,0,0,0,2.22-1.17A1.26,1.26,0,0,0,189.46,231.3Z"/><path class="cls-1" d="M187.71,237a1.27,1.27,0,0,0-.52,1.7,1.25,1.25,0,1,0,.52-1.7Z"/><path class="cls-1" d="M195.12,233.05a1.26,1.26,0,1,0,1.7.52A1.25,1.25,0,0,0,195.12,233.05Z"/><path class="cls-1" d="M183.8,229.56a1.25,1.25,0,1,0,1.7.52A1.25,1.25,0,0,0,183.8,229.56Z"/><path class="cls-1" d="M191.21,225.64a1.25,1.25,0,1,0,1.17,2.22,1.25,1.25,0,0,0-1.17-2.22Z"/><path class="cls-1" d="M201.21,253.52a1.25,1.25,0,1,0,1.17,2.22l.52-1.69A1.25,1.25,0,0,0,201.21,253.52Z"/><path class="cls-1" d="M197.29,246.11a1.26,1.26,0,1,0,1.7.53A1.26,1.26,0,0,0,197.29,246.11Z"/><path class="cls-1" d="M195.55,251.78a1.25,1.25,0,0,0-.53,1.69,1.25,1.25,0,1,0,2.22-1.17A1.24,1.24,0,0,0,195.55,251.78Z"/><path class="cls-1" d="M203,247.86a1.26,1.26,0,1,0,1.7.52A1.26,1.26,0,0,0,203,247.86Z"/><path class="cls-1" d="M191.63,244.37a1.25,1.25,0,1,0,1.7.52A1.27,1.27,0,0,0,191.63,244.37Z"/><path class="cls-1" d="M199,240.45a1.26,1.26,0,1,0,1.69.53A1.25,1.25,0,0,0,199,240.45Z"/><path class="cls-1" d="M162.28,198.29a.18.18,0,0,0-.07.05.31.31,0,0,0-.13.06,1.22,1.22,0,0,0-.52.51,1.26,1.26,0,0,0,0,1.18,1.28,1.28,0,0,0,1,.67,1.31,1.31,0,0,0,.72-.14l.12-.08s.06,0,.08,0a1.25,1.25,0,1,0-1.17-2.22Z"/><path class="cls-1" d="M166.2,205.7l-.08,0-.13.06a1.3,1.3,0,0,0-.52.52,1.26,1.26,0,0,0,0,1.18,1.24,1.24,0,0,0,1,.66,1.16,1.16,0,0,0,.72-.14l.12-.07.08,0a1.26,1.26,0,0,0,.52-1.7A1.24,1.24,0,0,0,166.2,205.7Z"/><path class="cls-1" d="M177.94,227.91l-.07.05-.13.06a1.24,1.24,0,0,0-.52.52,1.25,1.25,0,0,0,1,1.84,1.16,1.16,0,0,0,.72-.14.35.35,0,0,0,.12-.07l.09,0a1.26,1.26,0,0,0-1.18-2.23Z"/><path class="cls-1" d="M174,220.51l-.08.05-.13.06a1.28,1.28,0,0,0-.52.51,1.27,1.27,0,0,0,1,1.85,1.31,1.31,0,0,0,.72-.14l.12-.08.08,0a1.25,1.25,0,0,0-1.17-2.22Z"/><path class="cls-1" d="M170.11,213.1l-.07.05-.13.06a1.19,1.19,0,0,0-.52.52,1.25,1.25,0,0,0,1,1.84,1.23,1.23,0,0,0,.72-.14l.12-.07.09,0a1.26,1.26,0,0,0-1.18-2.22Z"/><path class="cls-1" d="M185.77,242.73l-.07.05-.13.05a1.3,1.3,0,0,0-.52.52,1.24,1.24,0,0,0,0,1.18,1.25,1.25,0,0,0,1,.67,1.31,1.31,0,0,0,.72-.14.57.57,0,0,0,.13-.08l.08,0a1.26,1.26,0,0,0-1.18-2.22Z"/><path class="cls-1" d="M181.86,235.32l-.08.05-.13.06a1.24,1.24,0,0,0-.52.52,1.26,1.26,0,0,0,1,1.84,1.23,1.23,0,0,0,.72-.14l.12-.07.08,0a1.25,1.25,0,1,0-1.17-2.22Z"/><path class="cls-1" d="M193.6,257.54l-.07,0-.13.06a1.19,1.19,0,0,0-.52.52,1.26,1.26,0,0,0,1,1.84,1.26,1.26,0,0,0,.73-.14l.12-.07s.05,0,.08,0a1.26,1.26,0,0,0-1.18-2.22Z"/><path class="cls-1" d="M189.69,250.13l-.08.05-.13.06a1.3,1.3,0,0,0-.52.52,1.26,1.26,0,0,0,1,1.84,1.16,1.16,0,0,0,.72-.14l.12-.07.08,0a1.26,1.26,0,1,0-1.17-2.23Z"/><path class="cls-1" d="M154.67,202.31a1.26,1.26,0,1,0,1.7.52A1.26,1.26,0,0,0,154.67,202.31Z"/><path class="cls-1" d="M149,200.57a1.25,1.25,0,0,0,1.17,2.22,1.25,1.25,0,1,0-1.17-2.22Z"/><path class="cls-1" d="M156.42,196.65a1.25,1.25,0,1,0,1.69.52A1.26,1.26,0,0,0,156.42,196.65Z"/><path class="cls-1" d="M158.59,209.72a1.25,1.25,0,1,0,1.69.52A1.26,1.26,0,0,0,158.59,209.72Z"/><path class="cls-1" d="M156.84,215.38a1.25,1.25,0,1,0,1.7.52A1.27,1.27,0,0,0,156.84,215.38Z"/><path class="cls-1" d="M164.25,211.46a1.25,1.25,0,1,0,1.7.53A1.26,1.26,0,0,0,164.25,211.46Z"/><path class="cls-1" d="M152.93,208a1.25,1.25,0,1,0,1.17,2.22,1.25,1.25,0,0,0-1.17-2.22Z"/><path class="cls-1" d="M160.33,204.06a1.26,1.26,0,1,0,1.18,2.22,1.26,1.26,0,0,0-1.18-2.22Z"/><path class="cls-1" d="M170.33,231.94a1.26,1.26,0,1,0,1.7.52A1.25,1.25,0,0,0,170.33,231.94Z"/><path class="cls-1" d="M166.42,224.53a1.25,1.25,0,1,0,1.7.52A1.26,1.26,0,0,0,166.42,224.53Z"/><path class="cls-1" d="M164.67,230.19a1.26,1.26,0,1,0,1.7.53A1.26,1.26,0,0,0,164.67,230.19Z"/><path class="cls-1" d="M172.08,226.28a1.25,1.25,0,0,0-.53,1.69,1.26,1.26,0,1,0,.53-1.69Z"/><path class="cls-1" d="M160.76,222.79a1.25,1.25,0,0,0-.53,1.69,1.25,1.25,0,1,0,2.22-1.17A1.24,1.24,0,0,0,160.76,222.79Z"/><path class="cls-1" d="M168.16,218.87a1.26,1.26,0,1,0,1.7.52A1.25,1.25,0,0,0,168.16,218.87Z"/><path class="cls-1" d="M162.93,235.85a1.33,1.33,0,0,0-.53.52,1.26,1.26,0,0,0,1,1.84,1.22,1.22,0,0,0,.72-.13,1.25,1.25,0,0,0,.61-.75,1.18,1.18,0,0,0-.09-1,1.24,1.24,0,0,0-1.69-.53Z"/><path class="cls-1" d="M162.5,217.12a1.26,1.26,0,1,0,1.7.53A1.26,1.26,0,0,0,162.5,217.12Z"/><path class="cls-1" d="M178.16,246.75a1.26,1.26,0,1,0,1.7.52A1.25,1.25,0,0,0,178.16,246.75Z"/><path class="cls-1" d="M174.25,239.34a1.26,1.26,0,1,0,1.7.53A1.26,1.26,0,0,0,174.25,239.34Z"/><path class="cls-1" d="M172.5,245a1.26,1.26,0,0,0,1.18,2.22,1.27,1.27,0,0,0,.52-1.7A1.25,1.25,0,0,0,172.5,245Z"/><path class="cls-1" d="M179.91,241.09a1.25,1.25,0,1,0,1.7.52A1.26,1.26,0,0,0,179.91,241.09Z"/><path class="cls-1" d="M168.59,237.6a1.25,1.25,0,1,0,1.7.52A1.26,1.26,0,0,0,168.59,237.6Z"/><path class="cls-1" d="M176,233.68a1.27,1.27,0,0,0-.52,1.7,1.25,1.25,0,1,0,.52-1.7Z"/><path class="cls-1" d="M170.76,250.67a1.22,1.22,0,0,0-.52.51,1.26,1.26,0,0,0,0,1.18,1.28,1.28,0,0,0,1,.67,1.31,1.31,0,0,0,.72-.14,1.23,1.23,0,0,0,.61-.74,1.25,1.25,0,0,0-.83-1.57A1.18,1.18,0,0,0,170.76,250.67Z"/><path class="cls-1" d="M166.84,243.26a1.19,1.19,0,0,0-.52.52,1.26,1.26,0,0,0,1,1.84,1.26,1.26,0,0,0,1.34-.88,1.29,1.29,0,0,0-.09-1,1.26,1.26,0,0,0-1.7-.52Z"/><path class="cls-1" d="M186,261.56a1.26,1.26,0,1,0,1.7.53A1.27,1.27,0,0,0,186,261.56Z"/><path class="cls-1" d="M182.08,254.16a1.25,1.25,0,1,0,1.7.52A1.26,1.26,0,0,0,182.08,254.16Z"/><path class="cls-1" d="M180.33,259.82a1.26,1.26,0,1,0,1.7.52A1.25,1.25,0,0,0,180.33,259.82Z"/><path class="cls-1" d="M187.74,255.9a1.26,1.26,0,0,0-.52,1.7,1.25,1.25,0,0,0,2.22-1.17A1.26,1.26,0,0,0,187.74,255.9Z"/><path class="cls-1" d="M176.42,252.41a1.25,1.25,0,1,0,1.17,2.22,1.25,1.25,0,0,0,.53-1.69A1.26,1.26,0,0,0,176.42,252.41Z"/><path class="cls-1" d="M183.82,248.5a1.26,1.26,0,1,0,1.7.52A1.25,1.25,0,0,0,183.82,248.5Z"/><path class="cls-1" d="M178.59,265.48a1.19,1.19,0,0,0-.52.52,1.25,1.25,0,0,0,1,1.84,1.23,1.23,0,0,0,.72-.14,1.26,1.26,0,0,0,.62-.74,1.25,1.25,0,0,0-.84-1.57A1.22,1.22,0,0,0,178.59,265.48Z"/><path class="cls-1" d="M174.67,258.07a1.3,1.3,0,0,0-.52.52,1.26,1.26,0,0,0,0,1.18,1.24,1.24,0,0,0,1,.66,1.16,1.16,0,0,0,.72-.14,1.24,1.24,0,0,0,.61-.74,1.26,1.26,0,0,0-.83-1.57A1.29,1.29,0,0,0,174.67,258.07Z"/><path class="cls-1" d="M184.25,267.22a1.26,1.26,0,1,0,1.7.53A1.26,1.26,0,0,0,184.25,267.22Z"/><path class="cls-1" d="M191.66,263.31a1.25,1.25,0,1,0,1.17,2.22l.52-1.7A1.25,1.25,0,0,0,191.66,263.31Z"/><path class="cls-1" d="M147.26,206.23a1.28,1.28,0,0,0-.52.51,1.27,1.27,0,0,0,1,1.85,1.31,1.31,0,0,0,.72-.14,1.21,1.21,0,0,0,.61-.74,1.25,1.25,0,0,0-.09-1,1.26,1.26,0,0,0-1.7-.52Z"/><path class="cls-1" d="M139.86,210.14a1.25,1.25,0,1,0,1.17,2.22,1.25,1.25,0,0,0,.53-1.69A1.26,1.26,0,0,0,139.86,210.14Z"/><path class="cls-1" d="M134.2,208.4a1.25,1.25,0,0,0-.53,1.69,1.25,1.25,0,1,0,2.22-1.17A1.24,1.24,0,0,0,134.2,208.4Z"/><path class="cls-1" d="M141.6,204.48a1.27,1.27,0,0,0-.52,1.7,1.26,1.26,0,1,0,.52-1.7Z"/><path class="cls-1" d="M155.1,221a1.21,1.21,0,0,0-.53.52,1.26,1.26,0,0,0,1,1.84,1.23,1.23,0,0,0,.72-.14,1.26,1.26,0,0,0,.52-1.7,1.24,1.24,0,0,0-.74-.61A1.26,1.26,0,0,0,155.1,221Z"/><path class="cls-1" d="M151.18,213.63a1.26,1.26,0,0,0-.52,1.7,1.26,1.26,0,0,0,1.69.53,1.3,1.3,0,0,0,.62-.75,1.27,1.27,0,0,0-.09-1,1.25,1.25,0,0,0-1.7-.53Z"/><path class="cls-1" d="M143.77,217.55a1.26,1.26,0,1,0,1.7.52A1.25,1.25,0,0,0,143.77,217.55Z"/><path class="cls-1" d="M142,223.21a1.25,1.25,0,1,0,1.7.52A1.26,1.26,0,0,0,142,223.21Z"/><path class="cls-1" d="M149.43,219.29a1.26,1.26,0,1,0,1.7.53A1.27,1.27,0,0,0,149.43,219.29Z"/><path class="cls-1" d="M138.11,215.8a1.26,1.26,0,1,0,1.7.53A1.26,1.26,0,0,0,138.11,215.8Z"/><path class="cls-1" d="M145.52,211.89a1.25,1.25,0,1,0,1.7.52A1.25,1.25,0,0,0,145.52,211.89Z"/><path class="cls-1" d="M155.52,239.77a1.25,1.25,0,1,0,1.7.52A1.25,1.25,0,0,0,155.52,239.77Z"/><path class="cls-1" d="M159,228.45a1.22,1.22,0,0,0-.52.51,1.24,1.24,0,0,0,0,1.18,1.25,1.25,0,0,0,1,.67,1.36,1.36,0,0,0,.73-.14,1.27,1.27,0,0,0,.61-.74,1.29,1.29,0,0,0-.09-1,1.23,1.23,0,0,0-.74-.61A1.2,1.2,0,0,0,159,228.45Z"/><path class="cls-1" d="M151.6,232.36a1.27,1.27,0,0,0-.52,1.7,1.25,1.25,0,1,0,.52-1.7Z"/><path class="cls-1" d="M149.86,238a1.25,1.25,0,1,0,1.17,2.22,1.25,1.25,0,0,0,.53-1.69A1.26,1.26,0,0,0,149.86,238Z"/><path class="cls-1" d="M157.27,234.11a1.25,1.25,0,0,0-.53,1.69,1.25,1.25,0,1,0,2.22-1.17A1.24,1.24,0,0,0,157.27,234.11Z"/><path class="cls-1" d="M145.94,230.62a1.26,1.26,0,1,0,1.7.52A1.25,1.25,0,0,0,145.94,230.62Z"/><path class="cls-1" d="M153.35,226.7a1.26,1.26,0,0,0-.52,1.7,1.26,1.26,0,0,0,2.22-1.18A1.27,1.27,0,0,0,153.35,226.7Z"/><path class="cls-1" d="M148.11,243.68a1.37,1.37,0,0,0-.52.52,1.26,1.26,0,0,0,0,1.18,1.28,1.28,0,0,0,1.7.53,1.3,1.3,0,0,0,.61-.74,1.24,1.24,0,0,0-.09-1,1.26,1.26,0,0,0-.74-.62A1.29,1.29,0,0,0,148.11,243.68Z"/><path class="cls-1" d="M147.69,225a1.25,1.25,0,0,0-.53,1.69,1.26,1.26,0,1,0,.53-1.69Z"/><path class="cls-1" d="M163.35,254.58a1.26,1.26,0,1,0,1.7.52A1.26,1.26,0,0,0,163.35,254.58Z"/><path class="cls-1" d="M159.43,247.17a1.26,1.26,0,1,0,1.7.53A1.27,1.27,0,0,0,159.43,247.17Z"/><path class="cls-1" d="M157.69,252.84a1.25,1.25,0,0,0,1.17,2.22,1.25,1.25,0,1,0-1.17-2.22Z"/><path class="cls-1" d="M165.1,248.92a1.25,1.25,0,1,0,1.69.52A1.26,1.26,0,0,0,165.1,248.92Z"/><path class="cls-1" d="M153.77,245.43a1.26,1.26,0,1,0,1.7.52A1.26,1.26,0,0,0,153.77,245.43Z"/><path class="cls-1" d="M161.18,241.51a1.26,1.26,0,1,0,1.7.53A1.26,1.26,0,0,0,161.18,241.51Z"/><path class="cls-1" d="M155.94,258.5a1.28,1.28,0,0,0-.52.51,1.27,1.27,0,0,0,1,1.85,1.31,1.31,0,0,0,.72-.14,1.21,1.21,0,0,0,.61-.74,1.25,1.25,0,0,0-.09-1,1.26,1.26,0,0,0-1.7-.52Z"/><path class="cls-1" d="M152,251.09a1.19,1.19,0,0,0-.52.52,1.25,1.25,0,0,0,1,1.84,1.23,1.23,0,0,0,.72-.14,1.26,1.26,0,0,0,.62-.74,1.26,1.26,0,0,0-1.79-1.48Z"/><path class="cls-1" d="M171.18,269.39a1.26,1.26,0,1,0,1.7.53A1.26,1.26,0,0,0,171.18,269.39Z"/><path class="cls-1" d="M167.27,262a1.25,1.25,0,1,0,1.69.52A1.26,1.26,0,0,0,167.27,262Z"/><path class="cls-1" d="M165.52,267.65a1.25,1.25,0,1,0,1.7.52A1.25,1.25,0,0,0,165.52,267.65Z"/><path class="cls-1" d="M172.93,263.73A1.25,1.25,0,1,0,174.1,266a1.25,1.25,0,0,0-1.17-2.22Z"/><path class="cls-1" d="M161.6,260.24a1.26,1.26,0,0,0,1.18,2.22,1.26,1.26,0,0,0-1.18-2.22Z"/><path class="cls-1" d="M169,256.33a1.26,1.26,0,0,0,1.18,2.22,1.26,1.26,0,0,0-1.18-2.22Z"/><path class="cls-1" d="M163.77,273.31a1.24,1.24,0,0,0-.52.52,1.26,1.26,0,0,0,1,1.84,1.23,1.23,0,0,0,.72-.14,1.21,1.21,0,0,0,.61-.74,1.26,1.26,0,0,0-1.79-1.48Z"/><path class="cls-1" d="M159.86,265.9a1.26,1.26,0,0,0,.45,2.36,1.16,1.16,0,0,0,.72-.14,1.24,1.24,0,0,0,.53-1.69,1.32,1.32,0,0,0-.74-.62A1.29,1.29,0,0,0,159.86,265.9Z"/><path class="cls-1" d="M169.44,275.06a1.25,1.25,0,0,0-.53,1.69,1.25,1.25,0,1,0,2.22-1.17A1.24,1.24,0,0,0,169.44,275.06Z"/><path class="cls-1" d="M176.84,271.14a1.26,1.26,0,1,0,1.7.52A1.25,1.25,0,0,0,176.84,271.14Z"/><path class="cls-1" d="M132.45,214.06a1.19,1.19,0,0,0-.52.52,1.23,1.23,0,0,0,0,1.18,1.26,1.26,0,0,0,1,.66,1.33,1.33,0,0,0,.73-.14,1.27,1.27,0,0,0,.61-.74,1.29,1.29,0,0,0-.09-1,1.21,1.21,0,0,0-.74-.61A1.25,1.25,0,0,0,132.45,214.06Z"/><path class="cls-1" d="M125,218a1.26,1.26,0,1,0,1.7.53A1.27,1.27,0,0,0,125,218Z"/><path class="cls-1" d="M119.38,216.23a1.26,1.26,0,1,0,1.7.52A1.26,1.26,0,0,0,119.38,216.23Z"/><path class="cls-1" d="M126.79,212.31a1.26,1.26,0,0,0-.52,1.7,1.26,1.26,0,0,0,2.22-1.18A1.27,1.27,0,0,0,126.79,212.31Z"/><path class="cls-1" d="M140.28,228.87a1.24,1.24,0,0,0-.52.52,1.26,1.26,0,0,0,0,1.18,1.26,1.26,0,0,0,2.31-.22,1.29,1.29,0,0,0-.09-1,1.27,1.27,0,0,0-.74-.61A1.29,1.29,0,0,0,140.28,228.87Z"/><path class="cls-1" d="M136.37,221.46a1.3,1.3,0,0,0-.52.52,1.26,1.26,0,0,0,0,1.18,1.25,1.25,0,0,0,1,.66,1.22,1.22,0,0,0,.72-.13,1.26,1.26,0,0,0,.61-.74,1.2,1.2,0,0,0-.09-1,1.24,1.24,0,0,0-1.69-.53Z"/><path class="cls-1" d="M129,225.38a1.26,1.26,0,1,0,1.7.52A1.27,1.27,0,0,0,129,225.38Z"/><path class="cls-1" d="M127.22,231a1.25,1.25,0,1,0,1.69.52A1.26,1.26,0,0,0,127.22,231Z"/><path class="cls-1" d="M134.62,227.13a1.26,1.26,0,0,0,1.18,2.22,1.26,1.26,0,1,0-1.18-2.22Z"/><path class="cls-1" d="M123.3,223.63a1.26,1.26,0,1,0,1.7.53A1.26,1.26,0,0,0,123.3,223.63Z"/><path class="cls-1" d="M130.71,219.72a1.25,1.25,0,1,0,1.69.52A1.26,1.26,0,0,0,130.71,219.72Z"/><path class="cls-1" d="M140.71,247.6a1.25,1.25,0,1,0,1.69.52A1.26,1.26,0,0,0,140.71,247.6Z"/><path class="cls-1" d="M144.2,236.28a1.22,1.22,0,0,0-.52.51,1.28,1.28,0,0,0,0,1.19,1.3,1.3,0,0,0,1,.66,1.31,1.31,0,0,0,.72-.14,1.26,1.26,0,0,0,.62-.74,1.29,1.29,0,0,0-.09-1,1.25,1.25,0,0,0-.75-.61A1.18,1.18,0,0,0,144.2,236.28Z"/><path class="cls-1" d="M136.79,240.19a1.26,1.26,0,1,0,1.7.53A1.26,1.26,0,0,0,136.79,240.19Z"/><path class="cls-1" d="M135.05,245.85a1.25,1.25,0,1,0,1.17,2.22,1.25,1.25,0,0,0-1.17-2.22Z"/><path class="cls-1" d="M142.45,241.94a1.26,1.26,0,1,0,1.7.52A1.25,1.25,0,0,0,142.45,241.94Z"/><path class="cls-1" d="M131.13,238.45a1.25,1.25,0,1,0,1.7.52A1.25,1.25,0,0,0,131.13,238.45Z"/><path class="cls-1" d="M138.54,234.53a1.25,1.25,0,1,0,1.7.53A1.26,1.26,0,0,0,138.54,234.53Z"/><path class="cls-1" d="M133.3,251.51a1.3,1.3,0,0,0-.52.52,1.24,1.24,0,0,0,0,1.18,1.25,1.25,0,0,0,1,.67,1.26,1.26,0,0,0,1.34-.88,1.26,1.26,0,0,0-1.79-1.49Z"/><path class="cls-1" d="M132.88,232.79a1.25,1.25,0,0,0-.53,1.69,1.25,1.25,0,1,0,2.22-1.17A1.24,1.24,0,0,0,132.88,232.79Z"/><path class="cls-1" d="M148.54,262.41a1.25,1.25,0,1,0,1.17,2.22,1.25,1.25,0,0,0,.53-1.69A1.26,1.26,0,0,0,148.54,262.41Z"/><path class="cls-1" d="M144.62,255a1.26,1.26,0,0,0,1.18,2.22,1.27,1.27,0,0,0,.52-1.7A1.25,1.25,0,0,0,144.62,255Z"/><path class="cls-1" d="M142.88,260.67a1.25,1.25,0,0,0-.53,1.69,1.25,1.25,0,1,0,2.22-1.17A1.24,1.24,0,0,0,142.88,260.67Z"/><path class="cls-1" d="M150.28,256.75a1.27,1.27,0,0,0-.52,1.7,1.26,1.26,0,1,0,.52-1.7Z"/><path class="cls-1" d="M139,253.26a1.26,1.26,0,1,0,1.7.52A1.25,1.25,0,0,0,139,253.26Z"/><path class="cls-1" d="M146.37,249.34a1.26,1.26,0,1,0,1.7.53A1.26,1.26,0,0,0,146.37,249.34Z"/><path class="cls-1" d="M141.13,266.33a1.19,1.19,0,0,0-.52.52,1.23,1.23,0,0,0,0,1.18,1.26,1.26,0,0,0,1,.66,1.33,1.33,0,0,0,.73-.14,1.27,1.27,0,0,0,.61-.74,1.29,1.29,0,0,0-.09-1,1.21,1.21,0,0,0-.74-.61A1.25,1.25,0,0,0,141.13,266.33Z"/><path class="cls-1" d="M137.22,258.92a1.33,1.33,0,0,0-.53.52,1.26,1.26,0,0,0,1,1.84,1.23,1.23,0,0,0,.72-.14,1.26,1.26,0,0,0,.52-1.7,1.25,1.25,0,0,0-1.69-.52Z"/><path class="cls-1" d="M156.37,277.22a1.26,1.26,0,1,0,1.7.53A1.26,1.26,0,0,0,156.37,277.22Z"/><path class="cls-1" d="M152.45,269.82a1.26,1.26,0,1,0,1.7.52A1.25,1.25,0,0,0,152.45,269.82Z"/><path class="cls-1" d="M150.71,275.48a1.25,1.25,0,1,0,1.7.52A1.26,1.26,0,0,0,150.71,275.48Z"/><path class="cls-1" d="M158.11,271.56a1.26,1.26,0,1,0,1.7.53A1.27,1.27,0,0,0,158.11,271.56Z"/><path class="cls-1" d="M146.79,268.07a1.26,1.26,0,1,0,1.7.53A1.26,1.26,0,0,0,146.79,268.07Z"/><path class="cls-1" d="M154.2,264.16a1.25,1.25,0,1,0,1.7.52A1.26,1.26,0,0,0,154.2,264.16Z"/><path class="cls-1" d="M149,281.14a1.24,1.24,0,0,0-.52.52l2.31,1a1.29,1.29,0,0,0-.09-1,1.27,1.27,0,0,0-.74-.61A1.29,1.29,0,0,0,149,281.14Z"/><path class="cls-1" d="M145.05,273.73a1.3,1.3,0,0,0-.52.52,1.26,1.26,0,0,0,0,1.18,1.25,1.25,0,0,0,1,.66,1.22,1.22,0,0,0,.72-.13,1.26,1.26,0,0,0,.61-.74,1.2,1.2,0,0,0-.09-1,1.24,1.24,0,0,0-1.69-.53Z"/><path class="cls-1" d="M117.64,221.89a1.19,1.19,0,0,0-.52.52,1.25,1.25,0,0,0,1.69,1.7,1.26,1.26,0,0,0,.62-.74,1.25,1.25,0,0,0-.83-1.57A1.25,1.25,0,0,0,117.64,221.89Z"/><path class="cls-1" d="M125.47,236.7a1.26,1.26,0,0,0,.45,2.36,1.16,1.16,0,0,0,.72-.14,1.24,1.24,0,0,0,.53-1.69,1.25,1.25,0,0,0-1.7-.53Z"/><path class="cls-1" d="M121.55,229.29a1.37,1.37,0,0,0-.52.52,1.27,1.27,0,0,0,1,1.85,1.31,1.31,0,0,0,.72-.14,1.26,1.26,0,0,0,.61-.74,1.27,1.27,0,0,0-.83-1.58A1.29,1.29,0,0,0,121.55,229.29Z"/><path class="cls-1" d="M112.4,238.87a1.26,1.26,0,1,0,1.7.52A1.26,1.26,0,0,0,112.4,238.87Z"/><path class="cls-1" d="M119.81,235a1.25,1.25,0,1,0,1.7.52A1.26,1.26,0,0,0,119.81,235Z"/><path class="cls-1" d="M125.89,255.43a1.26,1.26,0,1,0,1.7.52A1.26,1.26,0,0,0,125.89,255.43Z"/><path class="cls-1" d="M129.38,244.11a1.24,1.24,0,0,0-.52.52,1.26,1.26,0,0,0,0,1.18,1.28,1.28,0,0,0,1,.66,1.31,1.31,0,0,0,.72-.14,1.26,1.26,0,0,0-.22-2.31A1.25,1.25,0,0,0,129.38,244.11Z"/><path class="cls-1" d="M122,248a1.25,1.25,0,1,0,1.17,2.22,1.25,1.25,0,0,0,.53-1.69A1.26,1.26,0,0,0,122,248Z"/><path class="cls-1" d="M120.23,253.68a1.26,1.26,0,1,0,1.7.53A1.26,1.26,0,0,0,120.23,253.68Z"/><path class="cls-1" d="M127.64,249.77a1.25,1.25,0,1,0,1.7.52A1.27,1.27,0,0,0,127.64,249.77Z"/><path class="cls-1" d="M116.32,246.28a1.25,1.25,0,1,0,1.7.52A1.26,1.26,0,0,0,116.32,246.28Z"/><path class="cls-1" d="M123.72,242.36a1.27,1.27,0,0,0-.52,1.7,1.25,1.25,0,1,0,.52-1.7Z"/><path class="cls-1" d="M118.06,240.62a1.26,1.26,0,0,0,1.18,2.22,1.26,1.26,0,0,0-1.18-2.22Z"/><path class="cls-1" d="M133.72,270.24a1.26,1.26,0,1,0,1.18,2.22,1.26,1.26,0,0,0-1.18-2.22Z"/><path class="cls-1" d="M129.81,262.84a1.25,1.25,0,0,0,1.17,2.22,1.25,1.25,0,1,0-1.17-2.22Z"/><path class="cls-1" d="M128.06,268.5a1.26,1.26,0,1,0,1.7.52A1.25,1.25,0,0,0,128.06,268.5Z"/><path class="cls-1" d="M135.47,264.58a1.26,1.26,0,0,0-.52,1.7,1.26,1.26,0,0,0,2.22-1.18A1.27,1.27,0,0,0,135.47,264.58Z"/><path class="cls-1" d="M124.15,261.09a1.25,1.25,0,1,0,1.7.52A1.26,1.26,0,0,0,124.15,261.09Z"/><path class="cls-1" d="M131.56,257.18a1.25,1.25,0,0,0-.53,1.69,1.25,1.25,0,1,0,2.22-1.17A1.24,1.24,0,0,0,131.56,257.18Z"/><path class="cls-1" d="M126.32,274.16a1.19,1.19,0,0,0-.52.52,1.25,1.25,0,0,0,1,1.84,1.31,1.31,0,0,0,.72-.14,1.25,1.25,0,1,0-1.17-2.22Z"/><path class="cls-1" d="M122.4,266.75a1.3,1.3,0,0,0-.52.52,1.26,1.26,0,0,0,1,1.84,1.23,1.23,0,0,0,.72-.14,1.26,1.26,0,0,0-1.18-2.22Z"/><path class="cls-1" d="M137.64,277.65a1.25,1.25,0,1,0,1.7.52A1.25,1.25,0,0,0,137.64,277.65Z"/><path class="cls-1" d="M143.3,279.4a1.26,1.26,0,0,0,1.18,2.22,1.27,1.27,0,0,0,.52-1.7A1.25,1.25,0,0,0,143.3,279.4Z"/><path class="cls-1" d="M132,275.9a1.26,1.26,0,0,0-.52,1.7,1.25,1.25,0,0,0,2.22-1.17A1.26,1.26,0,0,0,132,275.9Z"/><path class="cls-1" d="M139.39,272a1.25,1.25,0,1,0,1.69.52A1.26,1.26,0,0,0,139.39,272Z"/><path class="cls-1" d="M110.66,244.53a1.24,1.24,0,0,0-.52.52,1.25,1.25,0,0,0,1,1.84,1.16,1.16,0,0,0,.72-.14,1.25,1.25,0,0,0-1.17-2.22Z"/><path class="cls-1" d="M105,242.79a1.25,1.25,0,0,0-.53,1.69,1.25,1.25,0,1,0,2.22-1.17A1.24,1.24,0,0,0,105,242.79Z"/><path class="cls-1" d="M118.49,259.34a1.3,1.3,0,0,0-.52.52,1.26,1.26,0,0,0,0,1.18,1.28,1.28,0,0,0,1,.67,1.31,1.31,0,0,0,.72-.14,1.26,1.26,0,0,0-1.17-2.23Z"/><path class="cls-1" d="M111.08,263.26a1.26,1.26,0,1,0,1.7.52A1.27,1.27,0,0,0,111.08,263.26Z"/><path class="cls-1" d="M114.57,251.94a1.24,1.24,0,0,0-.52.52,1.26,1.26,0,0,0,0,1.18,1.24,1.24,0,0,0,1,.66,1.31,1.31,0,0,0,.72-.14,1.26,1.26,0,0,0-1.18-2.22Z"/><path class="cls-1" d="M107.17,255.85a1.26,1.26,0,1,0,1.69.53A1.25,1.25,0,0,0,107.17,255.85Z"/><path class="cls-1" d="M112.83,257.6a1.25,1.25,0,1,0,1.69.52A1.26,1.26,0,0,0,112.83,257.6Z"/><path class="cls-1" d="M108.91,250.19a1.26,1.26,0,1,0,1.7.53A1.26,1.26,0,0,0,108.91,250.19Z"/><path class="cls-1" d="M103.25,248.45a1.26,1.26,0,1,0,1.7.52A1.25,1.25,0,0,0,103.25,248.45Z"/><path class="cls-1" d="M115,270.67a1.25,1.25,0,1,0,1.69.52A1.26,1.26,0,0,0,115,270.67Z"/><path class="cls-1" d="M120.66,272.41a1.25,1.25,0,1,0,1.7.53A1.26,1.26,0,0,0,120.66,272.41Z"/><path class="cls-1" d="M116.74,265a1.26,1.26,0,0,0,1.18,2.22,1.27,1.27,0,0,0,.52-1.7A1.25,1.25,0,0,0,116.74,265Z"/><path class="cls-1" d="M199.22,213.43a99.44,99.44,0,0,0,6.84-8.77c12.81-18.36,16.09-42.84,14.39-66.29s-8-46.5-12.63-69.68c-2-9.86-3.73-19.9-7.87-29.1-8.66-19.27-27.31-32.72-46.84-37.4S113.39.76,95.19,7.86c-16.33,6.37-32,16.34-40.94,31.93-4.8,8.34-7.49,17.89-10.13,27.34q-6.19,22.08-12.37,44.16c-2.22,7.95-4.46,16-4.65,24.4-.61,27.57,23.35,58.46,46.14,69.93,5.46,2.75,10.73,5.85,16,9.1,10,6.22,20.11,12.73,31.22,16.34a81,81,0,0,0,29,3.88C171.45,233.91,186,228.43,199.22,213.43Z"/><path class="cls-1" d="M36.32,58.79a3.73,3.73,0,0,1-1.81-.44L25.44,53l-9.06,5.32a3.92,3.92,0,0,1-3.62,0L0,50.86l3.62-2.3,11,6.42,9.06-5.31a3.92,3.92,0,0,1,3.62,0L36.32,55l9.07-5.31a3.92,3.92,0,0,1,3.62,0L58.07,55l11-6.42,3.62,2.3L59.88,58.35a3.92,3.92,0,0,1-3.62,0L47.2,53l-9.07,5.32A3.7,3.7,0,0,1,36.32,58.79Z"/><path class="cls-1" d="M36.32,48.29a3.63,3.63,0,0,1-1.81-.45l-9.07-5.31-9.06,5.31a3.87,3.87,0,0,1-3.62,0L0,40.36l3.62-2.3,11,6.42,9.06-5.31a3.87,3.87,0,0,1,3.62,0l9.07,5.31,9.07-5.31a3.87,3.87,0,0,1,3.62,0l9.06,5.31,11-6.42,3.62,2.3L59.88,47.84a3.87,3.87,0,0,1-3.62,0L47.2,42.53l-9.07,5.31A3.6,3.6,0,0,1,36.32,48.29Z"/><path class="cls-1" d="M36.32,69.29a3.73,3.73,0,0,1-1.81-.44l-9.07-5.32-9.06,5.32a3.92,3.92,0,0,1-3.62,0L0,61.37l3.62-2.3,11,6.42,9.06-5.32a3.92,3.92,0,0,1,3.62,0l9.07,5.32,9.07-5.32a3.92,3.92,0,0,1,3.62,0l9.06,5.32,11-6.42,3.62,2.3L59.88,68.85a3.92,3.92,0,0,1-3.62,0L47.2,63.53l-9.07,5.32A3.7,3.7,0,0,1,36.32,69.29Z"/><path class="cls-1" d="M64.63,176.33a1.18,1.18,0,0,1-.85-.35l-7.35-7.35A1.19,1.19,0,0,1,58.12,167l7.35,7.35a1.18,1.18,0,0,1,0,1.68A1.16,1.16,0,0,1,64.63,176.33Z"/><path class="cls-1" d="M57.28,176.33a1.18,1.18,0,0,1-.85-.35,1.2,1.2,0,0,1,0-1.68L63.78,167a1.19,1.19,0,0,1,1.69,0,1.18,1.18,0,0,1,0,1.68L58.12,176A1.16,1.16,0,0,1,57.28,176.33Z"/></g></g></svg>