<svg xmlns="http://www.w3.org/2000/svg" viewBox="0 0 625.88 406.66"><defs><style>.cls-1{fill:#191919;}</style></defs><title>Asset 146mdpi</title><g id="Layer_2" data-name="Layer 2"><g id="Layer_1-2" data-name="Layer 1"><path class="cls-1" d="M615.14,296.61l-4.67-.09-.32.27-1.65.32.26-1.81-1-.48-.1-2.57.6-1.82,1.31-.56,1.28-1.34-.1-2.82-2.1-2.76.63-1.05-.07-1.8.64-.79,1.94-1.36,0-.22,0,0-.38-1.27-2.06-1.73-.14-3.85.28-1.3-.7-19-.45-3.07-.79-3.32-.43-2.81-.76-2.55-2.18-4.8L602,230.2l-1-.22-.09-2.32.68-1.95.86-1.45,2.22-2.91-.16-4.37,2.66-.1,1.63-.83,1.61-1.6,2-1.1L613,212l-1-1-1.68-.2-.06-1.8.28-1.3.84-4.4.6-1.82.65-.29-.19,3.87L613.7,204l.23-2.83.62-1.31.66,0,.44,2.82.66,0,.32-.53.24-2.32.5-3.38h0l.37-.27h.28l1.29-1.07.33-.27.31-.53.63-.79-.14,0,.14-.23-1.33.05-1,1.06-1,.3-.08-2.06,1-1.06,2-.59,1.63-.83-.1-2.83-1-.22.25-2.33-1.32.31L618,186.38l-.1.17-.22.1v.25L617.1,188l-.94-.15-2.11-1.29-2.4-2-.19-.64-.11-.63,1.92.18,2.06,1.72,1.35.47,1-.81.63-1,.66,0,0-.51.67,0,.28-1.29-1.39-1.75-.8-3.58-.49-5.13,1.62-.31.25-2.33-1.72-1.48.24-2.32.93-1.84.3-1-1,0-1,.55-.31.53-.31.52-.67,0,0,.51-.66,0-1.63,1.09-3.29.89-1.3.82-1.65.58,0-.52-.72-.69,0,0-.34-.25-.55-.78.48-1,.21-.55.7-1.1,0,.07,1.26-2.1,2.86-3.45,2.26-1.89.65-.54-.17-4.62-.76-2.55-.74-1.86v-.42l-.35-.5-1.37-1-.24-.81.17-1L612,140.8v-.05l.33-.22-.29-1.27.19-1.3-.34-.24-.33-9-.76-2.55-1.33,0-3.93,1.69-.66.28-1.81,1.3-.46.2-.06-1.67.29-1-.09-.58.05-.45-.35-1.36-.48-3-1-1.25L599,117.61l-.89-1.51.31-.52,3.65-.4.3-.78L601,112.65l-.79-.71-.25-.28-.83-.9-.91-1.2v-.15l-1-1.25-.49-4.1-.69-.74-1.78-3-2-.44-.41-2-1-.73-2.3.85.29-1,.23-.52h.09l.6-1.57.3-1-1.37-1-.41-2-1.57-.46-.87-.36-1-1.63-3.68-.63-.39-1.4,0-.64-.36-.76-2.08-2.24-1.67-.2,0-.51-.74-.67,0-.08-.68-.49-1.67-.19-2.63.87-1.34-.21-.41-2,.32-.27,1.68.45,2-.33.7,1,1.32-.3,0-1.55-.36-.5-.33,0-.34-.25-7.34-.5-4,.15-2-.44-7.63.8.4,1.78-2,.08-.22.18-1.1.12,0-1,1.64-.57,0-.77-.34-.25-4.33-.09,0-.52.66,0,0-1-2.66.1-.62-1.69.11-.35,2.43-.09.3-.78-1.7-1,2.63-.87,3.33.13,3.62-1.16,0-1.28,1.3-.82,0-1L554,66.28l-.32.27-1,1.32-2,.33-1-.73-2.34-.17-.3.78-.67,0-.72-1.51-.66,0,.37,1-2.68-.42-.29,1.3-.63.79.37,1,1.38,1.49-4-.11,0-.77-.13-.42.09-.61-.34-.24-.08-2.06,1.65-.32.19-.22.14,0v-.13l.32-.4-.34-.25-4.34-.35,0-.77-.68-.49-3,.88-3-.4-1.69-.71-.08-2.31-1.33,0-1,.55-2.33.08.08-.65.23-.13v-.05l4.43-.27c-.3-2-.6-4-.88-6l-.48,0-7.33-.25-13-.29-4.32.16-2-.44L497,54.72l-.38-1.27-2.67-.16-3.75-.12,1.1-.26.63-1,.27-1.81-.67,0-1,1.06-2.28,1.38.22.6-1.89-.06-4.65.17-20.6,1,.59-2.08-.36-.76-9.33-.17-2.31.35,0-.78,5-.18,1.65-.58,5.63-.72,1.62-1.09,2.65-.35,1.33-.05,1.32-.31,1-.55-2.35-.43.27-1.81-.36-.76-3.35-.39-.33-.91.62-.38,7.63-.8.32-.27-.69-.49-5-.59,0-.77,3.63-.9,0-.77-2-.44,1.56-2.64.28-1.55-1.35-.46-13,.22-6,0-11,.15-2-.18-8.64.32-6.32,0-12.31.2L396,33.51l-1.65.31L390,33.73l-.69.08H388V34l-1.33.15-2-.19-2.33.09-1.32.31-7.33-.25-2,.33-4.32.16-.09-2.31L367,32l-.34-.25-.47,0L365,31.31l-.7-1,.61-1.57-.14-.38.11-.39h-.25l-.09-.25-3-.15-.35-.5,2.3-.6.64-.8.27-1.81L363,22.64l.25-2.33-.69-.49-1.35-.46-.42-2.3-1.7-1-2.71-1.44-1.69-.71-3,.37-3.64.65-1.35-.47-1.64.58-2.32.34-2.67-.16.36.76.38,1.27-1.25,2.11-4.31.41-.66.29-.3.78,1.69.71,0,1.28-.65.54-2,.85-2.33.08L331,22.79l-.35-.5h-.11l-.23-.24-.49.27h-.17l-1,.55-1.36.58-4.26.4-.44-3.07-.35-.25-3.31.38-2,.33-2.66-.16-2,.85-3,.11L309,21l-1.33,0,0,.78-2-.19-.68-.49-2.33.09-3,.88-6.3.75-5.63.72-1.31.57,0,.51-1.11-.13-.9-.31-4.66.17-1,.3-2.68-.42-.36-.76.66,0,0-1-.68-.49-3.33-.13-2.72-1.45-3-.14,0-.52,2.64-.61,3-.88.31-.78-4.66.17-.64.54-2.62,1.12-.7-.74-1.67-.2-.31.53,0,.77,2-.07-.63.79-2-.44L259,19.54l-2-.18-.3.78-1,.55-1.67-.19L252.71,20l-1,1.07-4.61,1.2-6.3.75-1-.74.64-.79,3-.88,0-.52L239,19.51l-1.63.83,0-.51-1.34-.21-.64.54-1.66.06-1.32.31-3,.11-1.31.56-7,1-3.32.13-.38-1.28-.67,0-.31.52-1,.3-.71-1.26-2-.44-3.66.13-1-.22-.36-.76L206,17.9l-1.82.33-1.82.07L201,17.83l-.36-.76L198,16.92l-1-.74,0,.08-1.32-.8-2-.7-3-1.43-.36-.76-1-.73-2.65.36-3.65.39-4-.11-2-1.21-2.65.35-2.32.35-5.63.72L164.54,12l-3.29.9-2.32.34,0-.52-1.37-1-4-.63L148.86,11l-3,.62-1.35-.46-1.65.32-3.32.38-.37-1-1-.22-.32.53-1.65.32,0-.52-.66,0-.3,1-1,.29-2.33-.17-1.35-.46-1.31.56-3.64.65-1.63.83-2.32.34,0-.51-2.31.34-2-.69L116.61,12l2-.59,0-.52-2-.44-3,.12-4,.66-4.33-.1-1,1.07-.38-1.28-.37-1-1.32.3L99.9,10l-1.69-.45V9l-1-1.25-3.31.38-3.26,1.92L89.33,12.2,85,12.87l-1,1.06-3-.14-2.63.87-.6,1.82-2.63.87-.61,1.31L72.27,19l-1.68-.45-1.65.32-.82.35-.83.22-.48.34-.49.22-.39.4-.58.4-.3.42-.35.12-.3.79-1.11,5.95-.61,1.57L60.07,31l0,1.29.35.24,1.67.2-.25,2.32-.65.28-1-1.24-1.34-.21-.63.79L58,37l.34.24,3.36.91,2.09,2.49-2,.08-1.29,1.08L56.81,42l-1.31.56-2,.08-1.32.3-.3,1,1,.74L57,46.59l1.38,1.23-.15,4.9.37.52v.23l.34.25-.26,1.81-.21,3.35-.91,2.61.71,1L59,64l-1.33,0-.37.23-.29,0,0,.15-.61.39-.62,1.31-2-.19-1.39-1.49-1.69-.71L47,63.94l-.64.54-2,.84L41,64.93l-3.32.12-1.3.82,0,1.29.34.24L41.5,69l1.7,1,.38,1-5,1-1,.55L38,74.05l2,.18.08,2.06.34.24,1.71,1.22,1.67.2.28-1.56-.35-.5-.41-2,1,0,5.34.32.08,2.06.68.48.14,3.6-1.3,1.08-3,.88-2.6,1.64.08,2.31,2,1L45.6,88l-1.71.51-.36-.76-2-.19-.7.36-.29-.06-.65.54-1.67-.2-2,.07-2.64.62L32,90,31.71,92l.34.25,5,1.36.38,1.27.18.08.17.42L37.88,97l-1.33,0-3-1.17-2.67-.16-.26,1.81-2.32.34-1-.47-1.65.31.49,4.1-.67,0-1-1-1,0-.3,1-.66,0-1.3.82-1.65.32L17.65,99,17,98.5l.43,2.56.45,3.32-1.63.84L10.29,107l-1.63.83-.29,1.3.69.49,1.68.45,4.66.08.33-.26,1.65-.32-.27,1.81,1,.47.09,2.57-.59,1.83-1.32.56L15,118.12l.11,2.83,2.1,2.75-.63,1.06.07,1.79-.64.8-1.95,1.36.06.22-.05,0,.38,1.27L16.54,132l.15,3.86-.29,1.29.71,19,.44,3.07.79,3.31.44,2.82.76,2.54,2.17,4.81,2.14,3.78,1,.22.08,2.31-.67,2-.86,1.45-2.23,2.91.17,4.37-2.66.09-1.64.84-1.6,1.6-2,1.1-.61,1.31,1,1,1.67.2.07,1.8-.29,1.29-.83,4.41-.6,1.82-.65.28.18-3.86-1.29,1.07L12,205.46l-.62,1.31-.67,0L10.23,204l-.67,0-.31.52L9,206.86l-.49,3.38,0,0-.38.27H7.81l-1.3,1.08-.32.27-.31.53-.64.79.15,0-.14.23,1.33-.05,1-1.07,1-.29.07,2.06-1,1.06-2,.59L4,216.56l.1,2.83,1,.22-.25,2.32,1.32-.3,1.62-1.35.1-.18.22-.09v-.26l.63-1.05.94.15,2.1,1.28,2.41,2,.19.64.11.63-1.93-.18-2.06-1.72L9.19,221l-1,.81-.62,1.05-.67,0,0,.51-.66,0L6,224.72l1.4,1.75L8.2,230l.49,5.14-1.62.31-.25,2.32,1.72,1.48-.25,2.33-.93,1.83-.29,1,1,0,1-.55.32-.53.31-.53.67,0,0-.51.66,0,1.62-1.09,3.3-.89,1.3-.82,1.64-.58,0,.52.73.69,0,0,.34.25.55.78-.48,1-.22.54-.7,1.11,0-.08-1.25,2.11-2.87,3.45-2.26,1.88-.64.54.17,4.63.76,2.54.73,1.86,0,.43.35.5,1.37,1,.24.81-.17,1-1.62,1.35v.05l-.32.21.28,1.28-.19,1.29.35.25.33,9,.76,2.55,1.33-.05,3.93-1.69.66-.28,1.81-1.31.46-.19.06,1.67-.29,1,.09.58-.05.44.34,1.36.48,3,1.05,1.25L26.86,289l.89,1.52-.32.52-3.64.39-.31.79,1.4,1.75.79.7.25.29.83.89.91,1.21v.15l1.05,1.25.48,4.09.7.75,1.77,3,2,.44.4,2.05,1,.73,2.3-.86-.3,1-.23.53H36.8l-.61,1.57-.29,1,1.37,1,.4,2.05,1.58.45.86.37,1,1.62,3.69.64.38,1.4,0,.64.36.76L47.63,324l1.67.19,0,.52.74.66-.05.08.69.49,1.67.2,2.63-.87,1.34.21.41,2-.33.27-1.68-.45-2,.33-.71-1-1.32.31.06,1.54.35.5h.34l.34.25,7.34.5,4-.15,2,.44,7.63-.8-.4-1.79,2-.07.22-.18,1.1-.13,0,1-1.64.58,0,.77.34.24,4.33.1,0,.51-.67,0,0,1,2.66-.1.62,1.69-.12.35-2.42.09-.3.78,1.7,1-2.63.87-3.34-.14-3.61,1.17,0,1.28-1.3.82,0,1,2.34.17.32-.27,1-1.32,2-.33,1,.73,2.34.17.3-.78.66,0,.73,1.52.66,0-.37-1,2.68.42.28-1.3.64-.8-.37-1-1.39-1.49,4,.1,0,.78.13.42-.09.6.34.25.08,2.05-1.66.32-.18.23-.14,0v.13l-.31.4.34.24,4.34.36,0,.77.68.49,3-.89,3,.41,1.69.71.09,2.31,1.33-.05,1-.55,2.32-.09-.08.66-.22.13v.05l-4.43.27c.31,2,.6,4,.89,6l.47,0,7.33.24,13,.29,4.32-.16,2,.44,3.33.14.38,1.27,2.67.16,3.76.12-1.11.26L134,354.8l-.27,1.81.67,0,1-1.07,2.27-1.37-.22-.6,1.89.06,4.66-.17,20.6-1L164,354.5l.36.76,9.32.16,2.32-.34,0,.77-5,.19-1.64.57-5.63.73-1.62,1.09-2.65.35-1.33.05-1.32.31-1,.55,2.34.42-.26,1.82.36.75,3.34.39.33.91-.61.39-7.63.8-.32.27.68.49,5,.58,0,.77-3.63.91,0,.77,2,.44L155.94,372l-.27,1.56,1.35.46,13-.22,6,0,11-.15,2,.19,8.65-.32,6.32,0,12.31-.2,13.64-.25,1.65-.32,4.33.1.68-.08h1.31v-.16l1.32-.15,2,.18,2.32-.08,1.32-.31,7.34.24,2-.33,4.32-.16.09,2.31.34.25.34.24.47,0,1.21.42.71,1-.61,1.57.14.38-.11.39h.25l.09.25,3,.15.35.5-2.31.6-.63.79-.27,1.82L262.9,384l-.25,2.33.69.48,1.34.47.42,2.3,1.7,1,2.72,1.44,1.69.71,3-.37,3.64-.65,1.35.47,1.64-.58,2.32-.34,2.67.16-.37-.76-.38-1.28,1.26-2.1,4.31-.42.65-.28.31-.78-1.69-.71,0-1.29.65-.53,2-.85,2.33-.09.06,1.55.35.5h.11l.23.25.49-.27h.16l1-.55,1.37-.59,4.25-.39.45,3.07.34.24,3.32-.38,2-.33,2.67.16,2-.84,3-.11.37,1,1.33-.05,0-.77,2,.18.69.49,2.32-.08,3-.88,6.29-.75,5.63-.73,1.32-.56,0-.51,1.11.13.9.31,4.65-.17,1-.3,2.68.42.36.76-.67,0,0,1,.69.49,3.33.13,2.72,1.44,3,.15,0,.51-2.64.62-3,.88-.3.78,4.65-.17.65-.54,2.62-1.13.69.75,1.67.2.32-.53,0-.77-2,.07.63-.79,2,.44,2.35.42,2,.19.31-.79,1-.55,1.67.2,1.35.46,1-1.06,4.61-1.2,6.3-.75,1,.73-.63.8-3,.88,0,.52,4.35.61,1.64-.84v.52l1.34.2.65-.53,1.66-.07,1.32-.3,3-.11,1.31-.57,7-1,3.32-.13.38,1.27.66,0,.32-.53,1-.29.72,1.26,2,.44,3.66-.14,1,.22.36.76,1.72,1.48,1.82-.32,1.83-.07,1.35.46.36.76,2.67.16,1,.74.05-.08,1.31.8,2,.69,3,1.43.37.76,1,.74,2.65-.36,3.65-.39,4,.11,2,1.21,2.65-.36,2.31-.34,5.64-.72,1.69.71,3.29-.9,2.32-.34,0,.51,1.37,1,4,.62,4.67.09,3-.63,1.35.47,1.65-.32,3.31-.38.37,1,1,.22.31-.53,1.66-.32,0,.51.66,0,.29-1,1-.29,2.34.17,1.35.46,1.31-.56,3.63-.65,1.64-.83,2.32-.35v.52l2.32-.35,2,.7.72,1.26-2,.59,0,.51,2,.44,3-.11,4-.66,4.33.1,1-1.07.38,1.27.38,1,1.32-.31,2.33.17,1.68.46,0,.51,1.05,1.25,3.31-.38,3.26-1.92,1.25-2.11,4.3-.67,1-1.07,3,.15,2.63-.87.6-1.82,2.63-.87.62-1.31,2.32-.35,1.68.46,1.65-.32.82-.35.82-.23.49-.34.49-.21.39-.4.58-.41.3-.41.35-.12.3-.79,1.11-6,.61-1.56,2.61-1.39,0-1.28-.34-.25-1.67-.19.25-2.33.65-.28,1.05,1.25,1.33.21.64-.8.25-2.32-.34-.25-3.37-.9-2.09-2.5,2-.07,1.29-1.08,3.66-.13,1.31-.57,2-.07,1.32-.31.29-1-1-.73-4.07-1.91-1.37-1.23.15-4.9-.37-.53v-.23l-.34-.24.26-1.81.21-3.35.9-2.61-.7-1-.72-1.52,1.33,0,.37-.23.28-.05,0-.15.61-.39.61-1.31,2,.18,1.39,1.5,1.69.7,3.65-.13.65-.54,2-.84,3.35.39,3.32-.13,1.3-.82-.05-1.28-.34-.25-4.72-1.62-1.7-1-.37-1,5-1,1-.55-.39-1.53-2-.18-.07-2.06-.34-.24-1.71-1.23-1.68-.19-.27,1.55.35.5.41,2.05-1,0-5.34-.31-.07-2.06-.69-.49-.13-3.59,1.29-1.08,3-.88,2.6-1.64-.09-2.32-2-1,.24-.85,1.71-.51.36.76,2,.18.7-.35.29.06.64-.54,1.68.2,2-.08,2.64-.61,1.62-1.09.26-2.07-.34-.24-5-1.36-.38-1.27-.18-.09-.18-.41,0-1.54,1.33,0,3,1.17L595,311l.27-1.81,2.32-.35,1,.48,1.66-.32-.49-4.1.67,0,1,1,1,0,.29-1,.67,0,1.3-.82,1.65-.32,1.81,4.05.69.49-.43-2.56-.46-3.33,1.64-.83,5.92-1.76,1.64-.83.28-1.3-.68-.49ZM472.29,71.38l1.34.16-.36-.76-.68-.11,0-.09,1.65-.57,0,1.28,1,0,1-.8.28-1.3,1,0,0,.52.67.23,2-.08-.63,1.06.38,1.27.05,1.28-2.32.35,0-.52-1-.22,0-1L476,72l-1,.81,0,1.54-.64.54-1.34-.21v.17l-.48-.46.13-.21-.35-.25-2.32.09-1.31.56.07,2.06-1,0-.07-1.8,2.28-1.37.23-.59.5-.7Zm13.25,6.44,2.65-.35,0,.51.42.6.3.92.71,1.26-1.8-.62-1.58-.8-1.32.3-.29,1,.66.72h-.17l-1.31-.29-.51-.37v-.25l-1-.74-6,0-.39-1.53.3-.78.33-.27,2.32-.09,1.64-.83,0,.77.67.23.32-.27h.33v-.26l1-.81,2,.7Zm-.78-3.06,2-.84,1.34.46,0,.52L486.8,76l-1.65.32ZM506,71.66l-3.29,1.15-.33.14-1,.17v-.26l-.83,0-.28-.07-.57-.41,0-.51,2.57-2.67,1.7-.29.46.34.18.38,2.66-.1-.29,1Zm.54,5.64,0,.52-1,.29-1.69-.71-1-.73-.71-1.26,1.31-.57,1.69.71.72,1.26ZM465.11,66.19l2,1.64.14.2-1.42-.8-2-.43-.09-.3-.7-1,1.32-.31,0,.51Zm2.43,13.11-.22,1-2.31.34.11-1.36.17.06-.06-1.54,1.35.47.69.49V79Zm-3-2.24-1.34-.21-1,.81L462,79.47l.33,0,0,.52,1,1L465,80.9l0,.77.22-.25.11.24-.31.78-.56.13-.1,0,.33-.1-3.32-1.93-.43-.28L460.62,79l.92-2.09,1-.81,1.67.2Zm-24,4.23.15.2v.31l-1,0,0-.51Zm55.21-5.14.05,1.55h-.33l0,.18-.71.36h-.22l-.41-2,1-.3,1-1.06.67.23Zm-1.43-2.52-1,0-1.93,1.62-.26,2.07-.65.28-.75-2-.68-.49,1-1.07L493,72.91v-.45l.16-.1,1.15-.27Zm-37.8-2.24.09.26-1.32.31-.69-.75V71l.77-.15-.08.16Zm102.21,6.8.66,0,0,.51-.66,0ZM473,66.06l1.43-.7v.27l.66,0,.31-.53-.43,0,.08,0-.37-1L474,63l5.3-.71.69,0v0l.67,0,0-.05,9.21-.46,1.07.13.47-.21,8.8-.43,8.29-.82,2.32-.35,7,.77.7,1,3.08.05-1.7.45,0,.51-.67,0-.32.21-.33.08-.18.24-.47.29-1.63.84,0-1-1.33,0v.2l-.33.07.28.77-1.24.29-1-.47-2.32.34-1.63.83-2.66.1-1.62,1.09-5.31.45-.63,1.06,1.66-.07-.59,2.08-1.29,1.08.07,1.8-1.63.83L497,72l-1.66.07-.67-.24L494.9,70l-1-.73-.35-.25-2.67-.41-.72-1.26L486.8,67l-3.31.38-1-.48-1.66.06-.61,1.57-.66,0-3.35-.39.28-1.55-1.33,0-.62,1.31-1,.55,0-.52-.66,0-.31.53-1.08,0,0,0ZM403.5,47.38l1.67-.06-.31.78-1.34-.21ZM153.59,335.28l-1.35-.16.37.76.68.1,0,.1-1.64.57-.05-1.28-1,0-1,.81-.29,1.3-1,0,0-.52-.68-.23-2,.07.62-1.05-.38-1.27,0-1.29,2.31-.34,0,.51,1,.22,0,1,.66,0,1-.81-.06-1.54.65-.54,1.34.21v-.17l.49.46-.13.21.34.24,2.33-.08,1.31-.57L157,330l1,0,.07,1.8-2.28,1.37-.23.59-.5.7Zm-13.25-6.44-2.65.35,0-.51-.42-.6-.3-.92-.72-1.26,1.8.62,1.59.8,1.32-.31.29-1-.66-.71h.17l1.31.29.51.36v.26l1,.73,6,0,.39,1.53-.31.78-.32.27-2.33.09-1.63.83,0-.77-.67-.23-.33.27H144V330l-1,.81-2-.69Zm.78,3.05-2,.85-1.35-.47,0-.51,1.29-1.08,1.66-.31ZM119.93,335l3.29-1.16.32-.14,1-.16v.26l.84,0,.28.08.57.41v.51l-2.56,2.67-1.7.28-.46-.33-.18-.38-2.66.1.29-1Zm-.54-5.65,0-.51,1-.29,1.69.71,1,.73.71,1.26-1.31.56-1.69-.71-.71-1.26Zm41.37,11.11-2-1.64-.14-.2,1.42.81,2,.42.09.31.71,1-1.32.31,0-.52Zm-2.43-13.1.22-1,2.32-.34-.11,1.35-.18-.06.06,1.55-1.35-.47-.68-.49v-.26Zm3,2.24,1.33.21,1-.81.27-1.81h-.33l0-.51-1-1-1.66.06,0-.77-.22.24-.11-.23.3-.78.57-.13.09,0-.32.1,3.32,1.93.43.27.37,1.24-.92,2.1-1,.81-1.67-.2Zm23.95-4.23-.15-.2,0-.31,1,0,0,.52Zm-55.21,5.13L130,329h.34l0-.19.7-.35h.22l.41,2-1,.29-1,1.07-.68-.23Zm1.43,2.52,1,0,1.94-1.62.26-2.07.65-.28.74,2,.69.49-1,1.07-3,1.13,0,.45-.16.11-1.16.26Zm37.8,2.25-.09-.27,1.32-.3.69.74v.26l-.78.15.09-.16ZM67.1,328.46l-.67,0,0-.52.67,0Zm85.78,12.14-1.43.7V341l-.66,0-.32.52h.44l-.08,0,.37,1,.7,1-5.29.71-.69,0v-.05l-.66,0,0,0-9.21.46-1.07-.13-.47.2-8.81.44-8.29.82-2.31.34-7-.77-.7-1-3.08-.06,1.7-.44,0-.51.67,0,.32-.2.33-.08.17-.24.48-.3,1.63-.83,0,1,1.33-.05v-.21l.33-.06L111,342l1.24-.29,1,.48,2.31-.34,1.64-.83,2.66-.1,1.62-1.09,5.31-.46.63-1.05-1.67.06.59-2.08,1.29-1.07-.06-1.8,1.63-.84-.26,2.07,1.67-.06.67.23-.27,1.81,1,.74.34.24L135,338l.71,1.26,3.35.39,3.31-.38,1,.48,1.66-.07.61-1.56.66,0,3.34.39-.27,1.56,1.33-.05.61-1.31,1-.55,0,.51.67,0,.31-.53,1.08,0-.06,0Zm69.49,18.68-1.66.06.3-.78,1.34.2Z"/><polygon class="cls-1" points="608.05 329.8 600.75 330.59 599.27 330.9 598.44 330.93 597.78 331.21 598.15 332.23 599.15 332.36 599.16 332.45 601.16 332.63 601.54 333.9 601.75 334.05 601.89 334.4 602.29 334.44 602.57 334.64 603.48 334.55 603.9 334.59 603.95 334.5 606.88 334.22 609.85 333.6 610.15 332.56 609.42 331.04 608.05 329.8"/><polygon class="cls-1" points="624.41 280.25 621.17 279.66 618.16 279.26 614.79 278.35 611.79 278.21 613.57 281.23 617.94 282.35 622.92 282.17 623.58 281.88 625.88 281.03 625.86 280.51 625.18 280.28 624.41 280.25"/><polygon class="cls-1" points="556.16 70.31 555.54 71.63 551.23 72.04 548.57 72.14 548.25 72.41 548.62 73.42 552.27 73.29 554.6 73.2 556.6 73.26 556.6 73.39 558.6 73.31 560.29 74.02 562.59 73.17 562.57 72.65 559.87 71.72 557.54 71.81 557.85 71.03 557.46 69.5 555.8 69.56 556.16 70.31"/><polygon class="cls-1" points="605.03 311.39 603.63 309.38 602.97 309.67 603.1 313 603.46 313.76 603.89 316.58 604.26 317.34 604.41 321.45 605.41 321.41 606.74 321.36 607.37 320.57 605.97 318.56 605.84 315.22 605.03 311.39"/><polygon class="cls-1" points="151.83 368.84 138.53 369.33 135.55 369.7 135.56 369.77 133.9 370.02 128.31 371.77 128 372.55 128.68 372.79 130.5 372.92 130.35 372.98 140.36 373.64 152.02 373.98 154.01 373.65 153.94 371.85 153.2 369.82 151.83 368.84"/><polygon class="cls-1" points="581.56 369.64 577.25 370.05 576.93 370.32 576.64 370.68 576.61 370.59 575.66 371.91 575.71 373.45 575.74 374.23 576.04 374.35 576.09 374.47 576.24 374.44 579.12 375.64 581.11 375.31 584.09 374.95 585.72 373.86 585.98 372.05 583.59 370.33 581.56 369.64"/><polygon class="cls-1" points="586.91 325.18 584.9 325 584.93 325.77 586.33 327.52 588.02 328.23 590.32 327.37 590.94 326.32 590.26 325.83 586.91 325.18"/><polygon class="cls-1" points="122.13 375.6 120.81 376.17 120.84 376.94 124.51 376.99 124.51 377.06 130.83 377.08 130.81 376.31 124.45 375.52 122.13 375.6"/><polygon class="cls-1" points="592.4 320.86 589.07 320.73 588.79 322.03 590.15 323 593.48 322.88 594.13 322.6 594.42 321.3 594.08 321.06 592.4 320.86"/><polygon class="cls-1" points="615.69 140.92 616.67 140.37 618.98 139.77 619.96 139.22 620.23 137.67 619.22 137.45 618.6 138.5 615.27 138.62 613.98 139.7 614.69 140.96 615.69 140.92"/><polygon class="cls-1" points="546.51 61.41 551.78 59.93 552.41 59.13 552.37 57.85 551.68 57.36 547.69 57.51 546.09 58.66 543.76 59.2 543.12 59.73 543.16 61.02 544.86 61.73 546.51 61.41"/><polygon class="cls-1" points="340.47 384.49 337.17 385.38 336.2 386.19 338.53 386.11 342.83 385.43 345.13 384.57 345.44 383.79 343.77 383.85 340.47 384.49"/><polygon class="cls-1" points="403.51 388.07 402.52 388.37 403.25 390.14 403.94 390.63 406.25 390.29 406.54 388.99 405.86 388.5 403.51 388.07"/><polygon class="cls-1" points="584.39 68.75 584.34 67.47 582.65 66.76 581.34 67.32 581.39 68.61 582.75 69.33 584.39 68.75"/><polygon class="cls-1" points="107.65 371.25 107.69 372.28 110.68 372.17 110.98 371.38 110.3 370.89 107.65 371.25"/><polygon class="cls-1" points="380.94 389.68 380.66 391.23 381.34 391.72 382.65 391.16 382.94 389.86 382.6 389.62 380.94 389.68"/><polygon class="cls-1" points="386.64 391.01 386.01 391.81 386.07 393.61 387.39 393.3 388 391.73 387.65 391.23 386.64 391.01"/><polygon class="cls-1" points="498.11 48.8 496.82 49.87 496.87 51.16 497.86 51.12 501.15 49.97 501.77 48.66 500.41 47.94 498.74 47.74 498.11 48.8"/><polygon class="cls-1" points="618.98 175.79 619.98 175.76 620.94 174.69 620.89 173.41 620.55 173.16 619.23 173.47 618.98 175.79"/><polygon class="cls-1" points="611.88 208.73 613.55 208.93 613.86 208.15 612.8 206.64 611.8 206.68 611.88 208.73"/><polygon class="cls-1" points="572.6 55.81 572.89 54.77 572.55 54.53 571.21 54.32 570.57 55.12 570.94 56.13 572.6 55.81"/><polygon class="cls-1" points="579.01 345.55 577.67 345.34 577.73 347.14 579.4 347.07 579.69 346.04 579.01 345.55"/><polygon class="cls-1" points="391.53 388.26 391.89 389.02 394.22 388.93 394.86 388.13 394.51 387.89 391.53 388.26"/><polygon class="cls-1" points="565.06 59.18 565.03 58.15 563.36 57.96 563.06 59 564.08 59.47 565.06 59.18"/><polygon class="cls-1" points="623.69 159.15 623.35 158.91 621.68 158.71 621.73 160.25 622.73 160.22 623.69 159.15"/><polygon class="cls-1" points="521.99 46.37 521.63 45.87 520.3 45.91 520.02 47.21 521.68 47.15 521.99 46.37"/><polygon class="cls-1" points="481.83 49.66 481.78 48.12 480.44 47.91 480.48 49.19 481.83 49.66"/><polygon class="cls-1" points="321.69 389.82 323.02 389.77 322.98 388.48 321.98 388.52 321.69 389.82"/><polygon class="cls-1" points="573.81 375.84 574.81 376.06 575.43 374.75 574.1 374.8 573.81 375.84"/><polygon class="cls-1" points="576.76 347.69 576.08 347.45 574.41 347.26 574.43 347.77 576.45 348.47 576.76 347.69"/><polygon class="cls-1" points="371.09 393.39 372.43 393.6 372.39 392.57 371.05 392.36 371.09 393.39"/><polygon class="cls-1" points="378.42 393.63 378.45 394.4 380.12 394.6 380.1 394.08 379.76 393.84 378.42 393.63"/><polygon class="cls-1" points="497.12 66.84 496.1 66.37 495.81 67.66 497.14 67.61 497.12 66.84"/><polygon class="cls-1" points="368.37 391.95 369.38 392.17 370 391.11 368.68 391.16 368.37 391.95"/><rect class="cls-1" x="528.87" y="51.75" width="1" height="1.29" transform="translate(-1.58 19.64) rotate(-2.12)"/><polygon class="cls-1" points="244.95 384.69 246.29 384.89 246.25 383.87 245.25 383.9 244.95 384.69"/><polygon class="cls-1" points="521.44 49.73 520.44 49.51 520.14 50.55 521.14 50.52 521.44 49.73"/><polygon class="cls-1" points="613.35 59.7 612.34 59.48 612.04 60.27 613.38 60.48 613.35 59.7"/><polygon class="cls-1" points="624.13 161.97 623.12 161.75 622.49 162.8 624.14 162.48 624.13 161.97"/><polygon class="cls-1" points="568.96 352.87 569.96 352.83 569.93 352.06 568.6 352.11 568.96 352.87"/><polygon class="cls-1" points="346.44 384.01 347.78 384.22 347.75 383.45 346.42 383.5 346.44 384.01"/><polygon class="cls-1" points="369.24 388.57 370.25 388.79 370.21 387.76 369.22 387.8 369.24 388.57"/><polygon class="cls-1" points="504.07 48.06 504.06 47.55 503.05 47.33 503.09 48.35 504.07 48.06"/><polygon class="cls-1" points="375.58 388.85 376.91 388.8 376.89 388.29 375.88 388.07 375.58 388.85"/><polygon class="cls-1" points="381.48 386.31 380.14 386.11 380.17 386.88 381.16 386.84 381.48 386.31"/><polygon class="cls-1" points="505.28 62.68 505.32 63.71 506.29 62.9 505.28 62.68"/><polygon class="cls-1" points="306.46 391.93 307.46 391.89 307.77 391.36 306.76 391.14 306.46 391.93"/><polygon class="cls-1" points="546.98 406.43 547.65 406.66 547.96 405.87 546.95 405.65 546.98 406.43"/><polygon class="cls-1" points="113 362.82 114.66 362.76 114.65 362.5 113.31 362.29 113 362.82"/><polygon class="cls-1" points="526.72 48.51 526.06 48.53 525.76 49.31 526.75 49.28 526.72 48.51"/><polygon class="cls-1" points="533.07 49.04 532.06 48.82 532.09 49.59 533.09 49.56 533.07 49.04"/><polygon class="cls-1" points="570.76 374.41 571.75 374.37 571.73 373.6 571.06 373.63 570.76 374.41"/><polygon class="cls-1" points="617.7 284.93 618.68 284.38 617.34 284.18 617.7 284.93"/><polygon class="cls-1" points="134.58 379.26 135.58 379.48 135.55 378.71 134.89 378.73 134.58 379.26"/><polygon class="cls-1" points="445.48 397.84 446.14 397.81 446.45 397.29 445.45 397.07 445.48 397.84"/><polygon class="cls-1" points="467.96 52.49 468.14 52.19 469.25 52.15 469.57 51.88 469.53 50.59 468.17 49.87 466.53 50.45 466.57 51.73 467.26 52.22 467.28 52.22 467.29 52.51 467.96 52.49"/><polygon class="cls-1" points="624.86 334.33 625.53 334.56 625.84 333.77 624.84 333.81 624.86 334.33"/><rect class="cls-1" x="203.11" y="386.99" width="1" height="0.51" transform="translate(-14.2 7.81) rotate(-2.12)"/><polygon class="cls-1" points="232.15 380.53 232.79 379.99 231.79 379.77 232.15 380.53"/><polygon class="cls-1" points="570.06 346.65 570.37 345.87 569.7 345.89 570.06 346.65"/><polygon class="cls-1" points="600.34 346.3 600.98 345.76 600.31 345.53 600.34 346.3"/><rect class="cls-1" x="222.28" y="383.46" width="0.67" height="0.51" transform="translate(-14.06 8.51) rotate(-2.12)"/><rect class="cls-1" x="587.4" y="59.88" width="0.67" height="0.51" transform="translate(-1.82 21.81) rotate(-2.12)"/><rect class="cls-1" x="612.71" y="141.02" width="0.67" height="0.51" transform="translate(-4.81 22.8) rotate(-2.12)"/><rect class="cls-1" x="623.88" y="164.02" width="0.67" height="0.51" transform="translate(-5.66 23.23) rotate(-2.12)"/><polygon class="cls-1" points="144.57 379.4 145.21 378.86 144.55 378.89 144.57 379.4"/><polygon class="cls-1" points="17.83 76.85 25.12 76.07 26.61 75.76 27.44 75.73 28.1 75.44 27.73 74.43 26.72 74.29 26.72 74.21 24.71 74.03 24.34 72.75 24.13 72.61 23.98 72.25 23.58 72.22 23.31 72.02 22.4 72.11 21.98 72.07 21.93 72.15 19 72.44 16.02 73.06 15.73 74.1 16.45 75.62 17.83 76.85"/><polygon class="cls-1" points="1.46 126.41 4.71 127 7.72 127.4 11.08 128.31 14.08 128.45 12.31 125.43 7.94 124.31 2.95 124.49 2.3 124.77 0 125.63 0.02 126.14 0.69 126.38 1.46 126.41"/><polygon class="cls-1" points="69.72 336.34 70.34 335.03 74.65 334.62 77.31 334.52 77.63 334.25 77.26 333.23 73.6 333.37 71.28 333.45 69.28 333.4 69.27 333.27 67.28 333.35 65.59 332.64 63.29 333.49 63.31 334.01 66.01 334.94 68.33 334.85 68.03 335.63 68.42 337.16 70.08 337.1 69.72 336.34"/><polygon class="cls-1" points="20.84 95.27 22.25 97.27 22.9 96.99 22.78 93.65 22.42 92.89 21.98 90.08 21.62 89.32 21.47 85.21 20.47 85.25 19.14 85.3 18.5 86.09 19.91 88.1 20.04 91.44 20.84 95.27"/><polygon class="cls-1" points="474.05 37.82 487.34 37.32 490.32 36.96 490.32 36.88 491.98 36.64 497.57 34.89 497.87 34.1 497.2 33.87 495.38 33.74 495.53 33.68 485.52 33.02 473.86 32.68 471.87 33.01 471.94 34.81 472.68 36.84 474.05 37.82"/><polygon class="cls-1" points="44.31 37.02 48.62 36.6 48.95 36.33 49.24 35.97 49.27 36.06 50.22 34.74 50.16 33.2 50.13 32.43 49.84 32.31 49.79 32.19 49.64 32.22 46.75 31.01 44.77 31.34 41.79 31.71 40.16 32.8 39.9 34.61 42.29 36.32 44.31 37.02"/><polygon class="cls-1" points="38.97 81.47 40.97 81.66 40.95 80.89 39.55 79.14 37.86 78.43 35.56 79.28 34.93 80.34 35.62 80.83 38.97 81.47"/><polygon class="cls-1" points="503.75 31.05 505.06 30.49 505.03 29.72 501.37 29.67 501.37 29.6 495.04 29.58 495.07 30.35 501.43 31.14 503.75 31.05"/><polygon class="cls-1" points="33.47 85.79 36.81 85.93 37.09 84.63 35.72 83.65 32.4 83.78 31.74 84.06 31.46 85.35 31.8 85.6 33.47 85.79"/><polygon class="cls-1" points="10.19 265.73 9.21 266.29 6.9 266.88 5.92 267.44 5.65 268.99 6.65 269.21 7.28 268.16 10.6 268.03 11.89 266.96 11.18 265.7 10.19 265.73"/><polygon class="cls-1" points="79.37 345.25 74.1 346.73 73.46 347.52 73.51 348.81 74.19 349.3 78.18 349.15 79.78 348 82.11 347.46 82.76 346.92 82.71 345.64 81.02 344.93 79.37 345.25"/><polygon class="cls-1" points="285.41 22.17 288.7 21.27 289.67 20.46 287.35 20.55 283.04 21.23 280.75 22.08 280.44 22.86 282.1 22.8 285.41 22.17"/><polygon class="cls-1" points="222.37 18.59 223.35 18.29 222.62 16.52 221.94 16.03 219.62 16.37 219.34 17.67 220.02 18.16 222.37 18.59"/><polygon class="cls-1" points="41.48 337.9 41.53 339.19 43.22 339.9 44.53 339.33 44.49 338.05 43.13 337.33 41.48 337.9"/><polygon class="cls-1" points="518.23 35.41 518.19 34.38 515.2 34.49 514.89 35.27 515.58 35.76 518.23 35.41"/><polygon class="cls-1" points="244.94 16.98 245.22 15.42 244.53 14.93 243.22 15.5 242.94 16.79 243.28 17.04 244.94 16.98"/><polygon class="cls-1" points="239.23 15.64 239.87 14.85 239.8 13.05 238.48 13.36 237.88 14.92 238.23 15.43 239.23 15.64"/><polygon class="cls-1" points="127.77 357.86 129.06 356.78 129.01 355.5 128.01 355.54 124.73 356.69 124.11 358 125.47 358.72 127.14 358.91 127.77 357.86"/><polygon class="cls-1" points="6.9 230.86 5.9 230.9 4.94 231.97 4.99 233.25 5.33 233.5 6.65 233.19 6.9 230.86"/><polygon class="cls-1" points="14.07 199.98 14 197.92 12.32 197.73 12.02 198.51 13.07 200.02 14.07 199.98"/><polygon class="cls-1" points="53.28 350.85 52.99 351.88 53.33 352.13 54.67 352.34 55.3 351.54 54.93 350.53 53.28 350.85"/><polygon class="cls-1" points="46.87 61.11 48.21 61.32 48.14 59.52 46.48 59.58 46.19 60.62 46.87 61.11"/><polygon class="cls-1" points="234.34 18.4 233.98 17.64 231.66 17.73 231.02 18.52 231.36 18.77 234.34 18.4"/><polygon class="cls-1" points="60.81 347.48 60.85 348.51 62.52 348.7 62.82 347.66 61.8 347.18 60.81 347.48"/><polygon class="cls-1" points="2.19 247.5 2.53 247.75 4.2 247.94 4.14 246.4 3.15 246.44 2.19 247.5"/><polygon class="cls-1" points="103.89 360.29 104.24 360.79 105.57 360.74 105.86 359.44 104.19 359.51 103.89 360.29"/><polygon class="cls-1" points="144.04 357 144.1 358.54 145.44 358.75 145.39 357.46 144.04 357"/><polygon class="cls-1" points="304.18 16.84 302.85 16.89 302.9 18.17 303.9 18.14 304.18 16.84"/><polygon class="cls-1" points="52.07 30.82 51.06 30.59 50.45 31.91 51.78 31.86 52.07 30.82"/><polygon class="cls-1" points="49.12 58.97 49.8 59.2 51.47 59.4 51.45 58.88 49.42 58.19 49.12 58.97"/><polygon class="cls-1" points="254.79 13.27 253.45 13.06 253.49 14.09 254.83 14.29 254.79 13.27"/><polygon class="cls-1" points="247.46 13.02 247.43 12.25 245.76 12.06 245.78 12.57 246.12 12.82 247.46 13.02"/><polygon class="cls-1" points="128.76 339.81 129.78 340.29 130.06 338.99 128.73 339.04 128.76 339.81"/><polygon class="cls-1" points="257.51 14.71 256.5 14.49 255.87 15.54 257.2 15.49 257.51 14.71"/><rect class="cls-1" x="96.01" y="353.62" width="1" height="1.29" transform="translate(-13.06 3.82) rotate(-2.12)"/><polygon class="cls-1" points="380.93 21.97 379.59 21.76 379.63 22.79 380.62 22.75 380.93 21.97"/><polygon class="cls-1" points="104.43 356.93 105.44 357.14 105.73 356.11 104.74 356.14 104.43 356.93"/><polygon class="cls-1" points="12.53 346.95 13.54 347.17 13.84 346.39 12.5 346.18 12.53 346.95"/><polygon class="cls-1" points="3.38 243.86 1.73 244.18 1.75 244.69 2.76 244.91 3.38 243.86"/><polygon class="cls-1" points="56.92 53.79 55.92 53.83 55.95 54.6 57.28 54.55 56.92 53.79"/><polygon class="cls-1" points="279.44 22.64 278.1 22.44 278.12 23.21 279.45 23.16 279.44 22.64"/><polygon class="cls-1" points="256.63 18.09 255.63 17.87 255.66 18.89 256.66 18.86 256.63 18.09"/><polygon class="cls-1" points="121.8 358.6 121.82 359.11 122.83 359.33 122.79 358.3 121.8 358.6"/><polygon class="cls-1" points="250.3 17.81 248.97 17.86 248.99 18.37 249.99 18.59 250.3 17.81"/><polygon class="cls-1" points="244.4 20.34 245.74 20.55 245.71 19.78 244.71 19.82 244.4 20.34"/><polygon class="cls-1" points="120.59 343.98 120.56 342.95 119.59 343.76 120.59 343.98"/><polygon class="cls-1" points="319.42 14.73 318.42 14.77 318.11 15.29 319.11 15.51 319.42 14.73"/><polygon class="cls-1" points="78.9 0.23 78.22 0 77.92 0.78 78.92 1 78.9 0.23"/><polygon class="cls-1" points="512.88 43.84 511.22 43.9 511.23 44.16 512.57 44.37 512.88 43.84"/><polygon class="cls-1" points="99.15 358.15 99.82 358.13 100.12 357.34 99.12 357.38 99.15 358.15"/><polygon class="cls-1" points="92.81 357.61 93.81 357.83 93.79 357.06 92.79 357.1 92.81 357.61"/><polygon class="cls-1" points="55.12 32.25 54.12 32.28 54.15 33.05 54.82 33.03 55.12 32.25"/><polygon class="cls-1" points="8.18 121.72 7.2 122.27 8.54 122.48 8.18 121.72"/><polygon class="cls-1" points="491.3 27.4 490.29 27.18 490.32 27.95 490.99 27.93 491.3 27.4"/><polygon class="cls-1" points="180.4 8.82 179.74 8.85 179.42 9.37 180.43 9.59 180.4 8.82"/><polygon class="cls-1" points="157.92 354.17 157.74 354.47 156.63 354.51 156.3 354.78 156.35 356.06 157.71 356.79 159.35 356.21 159.3 354.93 158.62 354.44 158.59 354.44 158.58 354.15 157.92 354.17"/><polygon class="cls-1" points="1.02 72.33 0.35 72.1 0.04 72.88 1.04 72.84 1.02 72.33"/><rect class="cls-1" x="421.77" y="19.15" width="1" height="0.51" transform="translate(-0.43 15.65) rotate(-2.12)"/><polygon class="cls-1" points="393.73 26.13 393.08 26.67 394.09 26.89 393.73 26.13"/><polygon class="cls-1" points="55.82 60.01 55.51 60.79 56.18 60.77 55.82 60.01"/><polygon class="cls-1" points="25.54 60.36 24.89 60.9 25.57 61.13 25.54 60.36"/><rect class="cls-1" x="402.93" y="22.69" width="0.67" height="0.51" transform="translate(-0.57 14.95) rotate(-2.12)"/><rect class="cls-1" x="37.81" y="346.26" width="0.67" height="0.51" transform="translate(-12.81 1.65) rotate(-2.12)"/><rect class="cls-1" x="12.5" y="265.12" width="0.67" height="0.51" transform="translate(-9.82 0.66) rotate(-2.12)"/><rect class="cls-1" x="1.33" y="242.12" width="0.67" height="0.51" transform="translate(-8.98 0.23) rotate(-2.12)"/><polygon class="cls-1" points="481.31 27.26 480.67 27.79 481.33 27.77 481.31 27.26"/></g></g></svg>