<svg xmlns="http://www.w3.org/2000/svg" viewBox="0 0 129.74 120.52"><defs><style>.cls-1{fill:#231f20;fill-rule:evenodd;}</style></defs><title>Asset 134mdpi</title><g id="Layer_2" data-name="Layer 2"><g id="Layer_1-2" data-name="Layer 1"><polygon class="cls-1" points="85.1 92.32 85.1 92.32 85.1 92.32 85.1 92.32"/><path class="cls-1" d="M127.66,45.78c-.27-.14-.49-.42-.84-.39l0,0a.52.52,0,0,0-.58-.23h0l-.28-.29-.31.18a.51.51,0,0,0-.21,0,6.63,6.63,0,0,1-.57-.74.55.55,0,0,0-.55-.29h-.13a1.22,1.22,0,0,0,.16-1.6c0-.18,0-.33-.27-.31a.48.48,0,0,1-.52-.23.6.6,0,0,0,.19-.06v-.55l.56-.27a.94.94,0,0,0-.08-1.32,2,2,0,0,1-.25-.32.52.52,0,0,0,.45-.55,1.6,1.6,0,0,1,.47-1.34c.2,0,.42,0,.46-.31a.23.23,0,0,0,.07-.22.72.72,0,0,1,.2-.09.22.22,0,0,1,.11-.22.38.38,0,0,0-.27-.34h0l-.3-.31c0-.61-.3-1.2-.07-1.81a.64.64,0,0,0-.48.24,2.81,2.81,0,0,0-.31.29l-.47-.06c0-.31-.33-.43-.51-.64a1.47,1.47,0,0,0,1-1,1.77,1.77,0,0,0-1-1.39c0-.16-.09-.32-.14-.47-.19.05-.42,0-.53.21a.33.33,0,0,0-.22.08.32.32,0,0,0-.33.21h0a1.56,1.56,0,0,1,0-.61c.53.44.93.24,1.24-.45-.53-.56-.53-.56-1.19-.3a2,2,0,0,1-.26.05l0,0a.5.5,0,0,0-.59-.05.25.25,0,0,1-.19.11.71.71,0,0,0-.74.73.15.15,0,0,1-.23.05l-.22-.13a3.57,3.57,0,0,1-.23-1.52h0a.39.39,0,0,0,.28-.18l0,0c.41.4.75.25,1.06-.15a.83.83,0,0,0,.07-1.17,1.4,1.4,0,0,1-.34-.69.88.88,0,0,0-.6-.52q.3,0,.6-.06c.2-.1.2-.27.16-.45s-.1-.42-.15-.63c0-.37-.15-.74,0-1.11h-.29c0-.07-.09-.21-.14-.21a14.47,14.47,0,0,0-2.62-.35h-1.35a1.57,1.57,0,0,1-.83-.27v-2c-.42.21-.18.79-.6,1,0-.3,0-.61,0-.92,0-.64,0-.64-.79-.74-.3-.34-.82-.17-1.12-.49a.53.53,0,0,0-.53,0c-.72.12-1.25-.36-1.85-.61a.65.65,0,0,0,0-.75c.16-.22,0-.37-.1-.55s0-.31,0-.46A1.53,1.53,0,0,0,110,18a1.16,1.16,0,0,0-.39-.34l-.09,0a.37.37,0,0,0,0-.11,1.32,1.32,0,0,1-.26,0l-.11.12H109a1.57,1.57,0,0,0-.23.09.82.82,0,0,1-.44-.47c0-.09,0-.18,0-.28h0c.4-.45.42.5.78.21a.41.41,0,0,1,.12-.2,1,1,0,0,0,.18-1.38c-.17-.19-.35-.38-.53-.56h0c0-.39.11-.81-.25-1.13a.86.86,0,0,0-.07-.21c0-.1,0-.2,0-.3l-.26-.28c-.21-.39-.36-.83-.81-1-.18.39.11.69.21,1-.31.44-.31.44.27.86a.5.5,0,0,0,.06.24c0,.23,0,.46,0,.68,0,.65,0,.65-.81.69-.24-.08-.32.05-.33.26l0,0a.46.46,0,0,1-.55-.27c0-.16,0-.32,0-.49l-.19-.07c-.27-.7.1-1.18.55-1.64s.57-.56.15-1.16l-.15-.22-.79-.3a.43.43,0,0,0-.06-.22c-.64-.48-.55.29-.81.47l-.86.57a1.77,1.77,0,0,1-1.33.35s0-.09-.08-.11c-.75-.46-.75-.46-.32-1.25a.43.43,0,0,1,.09-.1c0-.16,0-.33.07-.5a.74.74,0,0,0,0-.82c-.42-.12-.58.14-.75.4-.19-.4-.38-.81-.88-1a1.22,1.22,0,0,0-.26-.06c-.08-.6.12-1.26-.36-1.78-.12-.29-.36-.27-.61-.23a.33.33,0,0,1-.12.24.36.36,0,0,1,0-.1c-.11-.17-.21-.34-.31-.51a.79.79,0,0,1-.22-.06,1,1,0,0,0-.56-.55c-.1.1-.19.21-.29.32l.26.54,0,0A1.18,1.18,0,0,0,99,8h0A.34.34,0,0,0,99,8c-.08.36.11.55.42.68l.28.08c0,.19,0,.38.15.5a1,1,0,0,0,0,.3c.16.3.29.67.61.54a.57.57,0,0,1-.32.25,1,1,0,0,0-.47.26,1.85,1.85,0,0,0-.66-.7.93.93,0,0,0-.37-.1l0-.05a2,2,0,0,0-.33-1.32.49.49,0,0,0-.46-.16.6.6,0,0,0,0-.35c-.34-.33-1.12-.41-.69-1.18,0-.87-.09-1-.76-1.08-.39-.05-.81.11-1.13-.23-1.35.54-1.2,1.93-1.67,3a2.41,2.41,0,0,0,0,.38c-.27.34-.42.28-.72-.17a1.57,1.57,0,0,1-.14-.38l-.43.14c0-.21,0-.45-.34-.45a.2.2,0,0,0-.24-.07h0l0,0h0a.33.33,0,0,0,0-.22c-.15-.73-.88-1-1.28-1.48-.2-.28-.65-.26-1-.22a.48.48,0,0,0-.34.18c-.35.49-.68,1-1,1.51-.42,0-.75,0-.83-.57-.05-.33-.28-.63-.32-1a.62.62,0,0,0-.37-.2A.51.51,0,0,1,87,5.7,6.49,6.49,0,0,0,87,5c0-.15-.14-.19-.25,0l-.52,0c-.26-.39-.67-.24-1-.27-.21-.28-.51-.52-.23-.95.1-.16-.15-.35-.32-.25l-1,.63-1-.75a.7.7,0,0,0,0-.25,4.32,4.32,0,0,0-1.55-.35,1.67,1.67,0,0,0-1.28.07l-.11-.12a1.66,1.66,0,0,1-1.12.09l0,0v0c0-.31-.12-.52-.46-.52a3,3,0,0,1-1.43-.08.31.31,0,0,0-.29-.23c-.27-.35-.74-.3-1.08-.51-.18-.12-.34,0-.38.23s.14.3.32.32a3.25,3.25,0,0,0,.54,0,2,2,0,0,1-1,.83c-.24.14-.52.23-.67.49L72.78,3l-.3-.51-.21-.08c-.78.24-.39.57-.07.9l-.5,1.08-.29.24c-.85.1-1.41-.19-1.51-1.11a.3.3,0,0,0-.08-.17c.4-.2.31-.64.46-1,0-1-.14-1.16-1-1.18a2.81,2.81,0,0,1-.91-.12c-.76,0-.79.47-.79,1a.65.65,0,0,0,.07.21,1.45,1.45,0,0,0-.1.41.74.74,0,0,0-.31.51l.08.07,0,0-.06-.09-.32,0-.15-.79h0l.5-.86h0l.78-1c-.85-.22-.85-.22-1.07.49a.34.34,0,0,0-.08.23.19.19,0,0,0-.19,0c-.31.19-.37.56-.57.83l.12.07h0l-.12-.08-.5.32a.76.76,0,0,0-.18.22.56.56,0,0,0-.09-.52,1.29,1.29,0,0,0-.78-.65A1.28,1.28,0,0,1,63.87,1c-.95-.12-1.3.6-1.72,1.22a.23.23,0,0,1-.12.18c-.11.23-.41.12-.54.3a.31.31,0,0,0-.19,0c0-.07,0-.14-.07-.22l-.5,0a1.35,1.35,0,0,0-1.65,1.16,3.41,3.41,0,0,1-.33.73l-.26.28.15.07,0,0-.1-.11a1.69,1.69,0,0,0-.36-.17c-.7-.15-1,.08-1,.78a4.88,4.88,0,0,0,.06.52.28.28,0,0,0-.12.2c-.57,0-1.14,0-1.7,0a1.81,1.81,0,0,1-.49-.18,3.47,3.47,0,0,0-.29-.25l-.33-.09a.58.58,0,0,0-.09-.28l-.06-.26a.33.33,0,0,0-.21-.23h0s0,0,0-.12a.22.22,0,0,0-.11-.18c-.63-.48-.73-.48-1.32,0h0c-.23.08-.32.28-.42.47a2.36,2.36,0,0,1-.78-.1,4.51,4.51,0,0,0-2.88.09c.09,0,.24,0,.26,0a1.24,1.24,0,0,0,1.36.61,1,1,0,0,1,.75.27l.09.54c0,.08,0,.17,0,.25s0,.36-.05.54-.38.26-.47.21c-.46-.26-1-.06-1.42-.18a.76.76,0,0,0-.79-.34h0l-.51-.23a.35.35,0,0,0,0-.28A1,1,0,0,1,47.5,6c-.47-1.34-.83-1.24-1.78-.54-.93.11-.94.82-1,1.5l-.15-.13h-.45c0,.57-.08,1.08-.69,1.31,0,.1.05.19.07.29h0v0l-1.05.56-.12.08a.58.58,0,0,0-.05.29.33.33,0,0,0,.05.12,1.09,1.09,0,0,0-.56,0c.09-.17.2-.34.29-.51a.78.78,0,0,0,0-.34c-.25-.5-.26-.5-1-.59-.12,0-.22-.12-.33-.19a.37.37,0,0,1-.2.07c-.34.17,0,.6-.34.78h0L39.92,9a1.64,1.64,0,0,0-.89.22c-.58.18-.66.35-.66,1.06a2.58,2.58,0,0,1-.06.37c-.16.23-.47.43-.45.7a.74.74,0,0,0-.72,0c-.23.07-.46.12-.59-.16a.57.57,0,0,1,0-.13c-.17-.69-.18-.69.38-1.1a.64.64,0,0,0,.23-.44c-.16-.15,0-.44-.28-.55a.54.54,0,0,0-.25,0c-.11.11-.22.22-.32.34s-.26.09-.37,0c0,0,.08,0,.12-.08a.57.57,0,0,0,0-.26L35,8.78a.87.87,0,0,0-.31.81h0l-.26.24c-.36.51-.36.6,0,1.08.15.06.4.08.36.29a2.61,2.61,0,0,0,.1.75s-.13.08-.2.13a1.11,1.11,0,0,0-1.39.45c-.54.12-.85-.35-1.27-.51-.13-.69-.74-.95-1.18-1.36a.51.51,0,0,0-.54-.08c-.4.6.12.73.47.94a1.89,1.89,0,0,0,.21.09c-.13.14-.25.29-.38.44a1.48,1.48,0,0,1,0,.21h.5a.58.58,0,0,1,.54.32l0,.56,0,.54h0c-.59-.13-.94.31-1.37.55-.49-.36-.49-.36-.83,0l-.27.27a.28.28,0,0,0-.25.06.65.65,0,0,0-.24,0c-.07.19-.08.42-.31.52l-.11.1s0-.06,0-.1h.13a.66.66,0,0,0-.58-.27l-.81,0a1.11,1.11,0,0,1-.82,0c-.51,0-.53.43-.58.8l-.07,0h-.21a.46.46,0,0,0,.13-.08,1,1,0,0,0,.08-.9l0,0a.29.29,0,0,0,.35-.09,1.94,1.94,0,0,1,0-.24l-.3-.05A.56.56,0,0,0,25.7,14a1.61,1.61,0,0,0,.38.16.92.92,0,0,0,.33,0,1.51,1.51,0,0,0,.28-.15,1.2,1.2,0,0,0,.18-.26c.14-.14.11.12.2.09h.15a.83.83,0,0,0,.07-.13.81.81,0,0,1,.36-.73c.16,0,.34.28.49,0,.28.11.52.14.48-.29a2.46,2.46,0,0,1,0-.26h0a.38.38,0,0,0-.31-.26l0,0c-.58-.34-1.13-.42-1.56.24a.24.24,0,0,1-.09.21c-.21.19-.62,0-.73.37l-.31.21c-.93.3-1.09.5-1,1.39a.58.58,0,0,1-.48.21.43.43,0,0,0-.39.31,1.69,1.69,0,0,0-.55,1.1l-.3.26a1,1,0,0,0,.53.87c.37.19.55.56.82.84l.59.49c-.07.25-.23.5-.06.77l-.47.06a1,1,0,0,0,0,.73,1.19,1.19,0,0,0-.57.6l0,0-.55.3A.29.29,0,0,0,23,21l-.06-.2a.32.32,0,0,1-.3-.25c-.15,0-.2.13-.24.24l-.22.16c0-.07,0-.11-.17-.13l-.41-.08a.32.32,0,0,0-.06-.18H21a.54.54,0,0,1-.56.54l-.28.26c0,.51,0,.5-.44.32a1.56,1.56,0,0,0-.38,0l-.33.73-.81.58A.42.42,0,0,0,18,23c-.17-.32-.36-.08-.54,0h0l-.18-.1a.53.53,0,0,0,0-.13c-.07-.16-.25-.19-.36-.3l-.27,0c-.33-.3-.61-.76-1.15-.36a1.09,1.09,0,0,0-.49.74,4,4,0,0,1-.56,1.3,0,0,0,0,1,0,0v0a.5.5,0,0,0-.74.27.44.44,0,0,0,.22.65,3.94,3.94,0,0,0,.48.18.65.65,0,0,0,.16.74c.24.2.46.42.69.63s.19.06.25,0h0c.21-.11.46-.19.31-.51l-.33-.45a.37.37,0,0,0-.31-.33l-.19,0a1.7,1.7,0,0,1,0-.22,3.54,3.54,0,0,1-.11-.44l.15,0a.41.41,0,0,1,.28.09h0a.53.53,0,0,0,.37.22.18.18,0,0,1,.17.11.38.38,0,0,1,.21.22l.34.32a1,1,0,0,1,.27.23h0a1.43,1.43,0,0,0,.31.24h0c.24.4-.08,1.13.7,1.22l.05,0a.21.21,0,0,0,0,.2.38.38,0,0,1-.4.22c-.42,0-.59.24-.67.6l-.32,0H15.8c-.13.24-.56.16-.56.53s0,1-.05,1.55c-.07.11-.15.22-.22.34s0,.47-.34.51a.68.68,0,0,1-.71-.3c-.14-.23-.24-.49-.55-.54a.27.27,0,0,0-.06-.17c-.17-.2-.44-.14-.66-.23a1.12,1.12,0,0,0-.36.05,1.34,1.34,0,0,0-.23.13.92.92,0,0,0,.12-.74.84.84,0,0,0-1-.08,8,8,0,0,1-.86.33,2.26,2.26,0,0,0-.31.23l-.22.05a.43.43,0,0,0-.15.18.22.22,0,0,0-.18,0,.31.31,0,0,1-.19.06.57.57,0,0,1,0,.18c.1.18.14.46.42.3,0,0,0,.05,0,.07a.2.2,0,0,0,.3-.1.66.66,0,0,1,.06-.2q.11-.16.21,0l.27.31c.19.07.39.14.55-.06s0-.29-.08-.42-.12-.05-.15-.11h0a1,1,0,0,0,.31.18,1.13,1.13,0,0,0,.76-.08l-.06.05-.22.26A3.28,3.28,0,0,1,11,31a2.27,2.27,0,0,0-.65.55c0,.05,0,.11,0,.16.16.42.53.25.82.28.33.31.12.77.3,1.12a.82.82,0,0,1,0,.73v0c-.57-.32-.72-1.34-1.68-1a2.71,2.71,0,0,0-.83.82,2.43,2.43,0,0,0-.62,1.58l0,.06a.39.39,0,0,1-.21,0,1.64,1.64,0,0,0,0-.23H7.88a1.57,1.57,0,0,1-.27.25c-.32.18-.24.39-.06.61l.34.29a.53.53,0,0,1,0,.67c0,.06,0,.11,0,.16a.18.18,0,0,0-.25.08h0l-.05,0a2.15,2.15,0,0,0-1-.71.77.77,0,0,0-.14.81c.09.37.34.46.63.55-.17.35-.17.66.26.83-.06.15-.08.39-.19.44-.4.2-.14.4,0,.61a1,1,0,0,0-.31,1.4h0c-.35.36-.34.39-.1.82a1.52,1.52,0,0,1,.09.49.34.34,0,0,0-.25.3,7.45,7.45,0,0,0-.46.77c-.1.19,0,.32.22.34h0l0,0h0c.25.23.18.66.52.84a.71.71,0,0,0,.49.6c0,.16.07.32.1.48h0c-.26,0-.29.21-.36.37a4.11,4.11,0,0,0-.15.46,1,1,0,0,0,.5,1.51.8.8,0,0,0,.27,0c-.09.44-.13.44-.73.43a.37.37,0,0,0,0,.21c.2.29.16.71.48,1,0,0,0,0,0,0L7,50.05c-.24,0-.48.11-.71,0L6,50.3c0,.13.1.26,0,.38l-.1.22a.15.15,0,0,0-.18,0H5.48a.93.93,0,0,0-.15-.13.62.62,0,0,0-.75.16c-.18.19-.4.42-.3.68a1.31,1.31,0,0,1-.11,1.11c0,.08.08.24.12.36a3.12,3.12,0,0,1,1.35,1.64h0c-.36.25-.28.72-.51,1s.05.31.23.38c-.36.28,0,.64-.09.93s.12.52.42.6l.2.29a.35.35,0,0,0-.28.28c-.55.28-.55.28-.51.87l0,0a.44.44,0,0,0-.23.06c-.28.63-.87.43-1.36.52a1.62,1.62,0,0,0,0,.22.72.72,0,0,0,.55.3,1.34,1.34,0,0,0-.6.26l0,.09a.25.25,0,0,0-.31.21,2,2,0,0,0,.09,1.27c.12.32-.06.37-.21.52s-.06.49.14.69a.31.31,0,0,0,.06.26c0,.23-.07.44.17.58a.15.15,0,0,0,0,.17c-.21.43-.71.65-.8,1.16A2.82,2.82,0,0,0,1,66c-.33.43-.33.43,0,.85l.73,1a.84.84,0,0,1,0,.27,2.1,2.1,0,0,0,.24.06c-.21.06-.37.29-.45.8.44.54.44.53,1.07.32a2.32,2.32,0,0,1,.38-.07.12.12,0,0,0,.14.08.48.48,0,0,0,.74,0c.53,0,.53,0,.53-.52.24-.15.58.07.8-.21a.6.6,0,0,1,.81.13c.35.15.59-.09.87-.22a.83.83,0,0,0,.8.18l.78-.22c-.11-.25-.25-.49-.57-.36a1.73,1.73,0,0,1-.87.07s0,0,0-.06a.74.74,0,0,0,0-.25l1-.47a.17.17,0,0,0,.26,0l.23-.21c.19.18.56.15.64.48s.18.41.45.32L9.38,68l0,.17-.16.23,0,0a.53.53,0,0,0-.6.32c-.13,0-.27,0-.41,0l-.27,0a1.21,1.21,0,0,0-1.23.56.71.71,0,0,0,0,.8c-.45,0-.52.4-.79.58s-.53.16-.56-.28c0-.09-.17-.17-.26-.26-.68-.15-.9.35-1.15.81-.15.64-.57,1.3.08,1.9a2.32,2.32,0,0,0,.22.3c.1.28.09.62.47.7.31-.53.61-1.06.92-1.58l.27.34c0,.09,0,.21,0,.25a1.21,1.21,0,0,1,.35,1.46.65.65,0,0,0-.14,0,1.31,1.31,0,0,0-.69.4l0,0c-.25-.11-.43-.35-.7-.42a3.12,3.12,0,0,0-.77,1,1.09,1.09,0,0,0,0,1.22.65.65,0,0,1,.26.45c0,.09,0,.18,0,.26a4.67,4.67,0,0,0,.13.67.25.25,0,0,0,.29.21c.15,0,.17-.19.15-.33.23-.26.56-.43.41-.91s.09-.77-.07-1.15c0,0,.13-.09.2-.13.11.18.18.45.34.52.39.18.52.56.78.84-.37.92-.37.92.47,1.41a.31.31,0,0,0,0,.19,2.77,2.77,0,0,0-1.32.58.7.7,0,0,0-.15,1.13c.31.37.66.71,1,1.06-.31.61-.31.83,0,1.18s.63.21,1,0a1.14,1.14,0,0,1,.38-.13c.55.3,1.08.57,1.15,1.33a.56.56,0,0,0,.78.49c.3-.08.63.39.55.73a4.22,4.22,0,0,1-.32.86.87.87,0,0,0,.08.77,1,1,0,0,0,.42.61l.09,0a1.43,1.43,0,0,0,.26,1c0,.17,0,.35,0,.53a.36.36,0,0,1,.26.28c.34.46.53,1.17,1.36.88l.55-.33a.69.69,0,0,0,.25,0,.31.31,0,0,0,.28.25.64.64,0,0,0,.54.36,1.35,1.35,0,0,1,1.12,1,.82.82,0,0,0,.29,1c.45.35.14.62-.06.91-.3-.11-.11-.51-.39-.65l-.63.44,0,.8-.28,0h0a.26.26,0,0,0,0,.3h0a.35.35,0,0,0,.29-.29c.19-.06.39-.25.58,0A2,2,0,0,1,15,94a.57.57,0,0,0-.24.56,2,2,0,0,0-.05.24l-.22.06a.28.28,0,0,0,.21.26l.29.22a.83.83,0,0,0,0-.22l.09.05h.11l.29.3a.21.21,0,0,0,0,.17c.39.13.32.58.56.81v0a.61.61,0,0,0,.56.13.42.42,0,0,0,0,.42l.05.54c0,.3,0,.61.3.79.23,0,.46.08.48.34s0,.62,0,.92c0,.48.13.58.86.76l.27.25a.87.87,0,0,0,.66.17l-.13.07a.86.86,0,0,1-.2.26l-.3,0c0-.13,0-.26,0-.38-.26.18-.38.38-.1.64.12.49.49.58.92.57a.6.6,0,0,0,.68-.29,0,0,0,0,0,0,0l.37,0s-.05,0-.06.06a.58.58,0,0,0,.11.73c.59.61.59.61,1.33.33.66.48.66.48,1.13,0,.29-.1.21-.36.26-.56h.58c0,.13.1.32,0,.37-.63.52-.47,1.08-.08,1.64a1.38,1.38,0,0,1,.29.73,1,1,0,0,0,.33.39.67.67,0,0,1-.34-.16c-.35.2-.32.49-.19.81a.59.59,0,0,0,.63.39l.66-.07c.29.27.66.44.83.82a1.54,1.54,0,0,0,.28.29h0l.12.11.14-.09a.45.45,0,0,1,.06-.12c.53-.58.52-.57.17-1.17a4.16,4.16,0,0,1-.23-.62.87.87,0,0,0-1-.17,1,1,0,0,0-.15.14.67.67,0,0,0-.21-.1,1.66,1.66,0,0,0,.32-.13l.15-.11.1.07h.27a.29.29,0,0,0,.28-.27h.13l.14,0a.9.9,0,0,1,.06-.22H27c.06.1.11.29.16.29.22,0,.17-.19.17-.33a3.07,3.07,0,0,1,.25-.26c.28.29.56.6,1,.38.12,0,.29-.13.32,0,.07.4.66.35.64.8l-.07.11.07.11a.45.45,0,0,0,.25.09c0,.23-.18,0-.21.08-.19.12-.56.15-.33.53l0,0a1.89,1.89,0,0,0,.25.31h0l.81.25,0-.46h.09l.09,0a.6.6,0,0,0,.44.26,1.11,1.11,0,0,1,.76.5v.81a2.11,2.11,0,0,0,.19.23l-.48.89c-.45.88-.38,1.07.54,1.35a.29.29,0,0,0,.2.07c0,.24.07.48.1.72s.3.37.54.36c.54,0,1.08,0,1.61-.07,0-.14,0-.28.05-.42a.82.82,0,0,1,.2-.12c.1-.32.52-.2.64-.48h0l1.31-.06c.24.06.33-.18.52-.24,0,.33,0,.59.46.55a4.42,4.42,0,0,1,.63,0,.79.79,0,0,0,.31.52.72.72,0,0,1,.31.51.64.64,0,0,0,.37.4,1.15,1.15,0,0,0-.39.18c-.21.14-.09.32-.06.48-.72-.23-1.32-.89-2.19-.58-.07,0-.21-.15-.33-.21s-.31-.2-.49-.06a.67.67,0,0,0-.25.59c0,.45.4.57.61.85l.49,0a.4.4,0,0,0,.27.11l.32,0c.17,0,.35,0,.53-.06.45,0,.92.27,1.36,0,.33.16.53-.2.81-.22a.34.34,0,0,0,.34,0l0-.06,0,0,.13,0,.28,0c.36,0,.71.33,1.07,0a.34.34,0,0,1,0-.22.75.75,0,0,1,1.08,0c.19.18.28-.07.33-.25.4,0,.51-.29.68-.55a1.72,1.72,0,0,1-.74,2,1.88,1.88,0,0,0-.3.27.7.7,0,0,0,.12,1.21c.33.23.68.41,1,.62,0,.48-.06,1,.48,1.25.11,0,.33.1.36,0,.32-.47,1-.32,1.32-.75l.23,0c.62-.2,1.13-.44.32-1.07h0a1.07,1.07,0,0,1-.25,0,1.3,1.3,0,0,1,0-.55l.12-.21.1-.14.23-.24a1.83,1.83,0,0,0,.13-.16c.25.25.49.41.87.13a.27.27,0,0,1,.34,0,1.35,1.35,0,0,1-.06.34,5.52,5.52,0,0,0-.25,1.14c0,.16,0,.33-.07.49a2.51,2.51,0,0,0,.25.32c.42.28,1,.1,1.35.36s.69.75,1.11,1.06c.81.22,1-.23,1-.91a.53.53,0,0,0-.14-.24h.22A.73.73,0,0,0,52,117h0a1,1,0,0,0,.23-.35.29.29,0,0,1,.09-.2,2.11,2.11,0,0,1,.21-.31c0-.07,0-.14,0-.21a.62.62,0,0,1-.11-.4.59.59,0,0,1,.2-.38l.05-.06h0l.14,0a.55.55,0,0,0,0-.18l.07-.08h0l.16,0a.41.41,0,0,1,.08-.24l-.2,0a.36.36,0,0,0-.07-.18h.46l0,0a.27.27,0,0,0-.08.23.27.27,0,0,1,.13.17.28.28,0,0,0,.25.22.33.33,0,0,0,.33-.36.39.39,0,0,0-.06-.11,1.64,1.64,0,0,0,.4-.43,2.73,2.73,0,0,0,.23-.25,1.89,1.89,0,0,0,.2-.27s0,0,0,0a1.46,1.46,0,0,0,.21.16,1.81,1.81,0,0,0,.37.18h.1a.2.2,0,0,0-.15.18l-.25.48c0,.23.18.24.31.32l.24.15a2.83,2.83,0,0,0-1.75.06s0,0,0,.12a.27.27,0,0,0,.08.22l0,0a.75.75,0,0,1,.11.43.65.65,0,0,1-.13.43c-.2.22-.73.25-.44.76a.16.16,0,0,1,.15.07.27.27,0,0,0,.27.06l0,0a.5.5,0,0,1,.05.13l.48-.23c.22.41.76.29,1,.63l.19-.15.09-.09-.06.08-.22.16h0a.27.27,0,0,0,.24.26.58.58,0,0,0,.07.21.49.49,0,0,0-.16.19.63.63,0,0,0,.17.67.88.88,0,0,0,1.11.19.58.58,0,0,1,.52-.08.63.63,0,0,0,.92-.5c.09-.54.43-.52.76-.55a3.84,3.84,0,0,1,.8.14c.1.09.21.25.29.24a3,3,0,0,1,1.31.33.71.71,0,0,1-.74.18c-.06,0-.16-.14-.19-.12-.2.1-.17.27-.09.43s.17.53.51.53l.25.08a3.13,3.13,0,0,0,1.93.76c.32-.79-.3-.66-.68-.77.34-.08.4-.48.69-.62a.89.89,0,0,0,0-.23L62,118.38c.11-.76,1.31-.72,1.27-1.6a.49.49,0,0,1,.16.4c0,.48,0,1,0,1.44h0a1.33,1.33,0,0,1,.27.26h0a.64.64,0,0,0,.83,0l.3-.27H65l.12,0h.83l0,0s0,0,0,0,0,.34.1.36c.79.16,1.35.78,2.09,1l.27.28c.27-.1.51-.22.3-.57,0-.27-.5-.2-.45-.54,0-.1-.08-.2-.11-.3h0c0-.08,0-.16,0-.24h0a.18.18,0,0,0-.16,0s0-.09-.07-.13c-.2-.25-.32-.56-.63-.7a.29.29,0,0,0,0-.24.34.34,0,0,0,0-.22c.25-.26.64-.4.68-.83a2.28,2.28,0,0,1,.38,0,1,1,0,0,0,1,.51.59.59,0,0,0,0,.26c.11.25.15.59.48.59a.75.75,0,0,0,0,.26,1.79,1.79,0,0,0,.44.58,3.15,3.15,0,0,0,.29.22c.16,0,.32.17.49,0l.1,0h.1a2.24,2.24,0,0,0,1.45-1c0-.13.07-.26.22-.3.72-.29.53-.88.46-1.43a.4.4,0,0,1,.11-.38.65.65,0,0,1,.63.15l.08,0,.09,0a.88.88,0,0,0,.89-.77h0c.08-.09.17-.16.25-.25a1.7,1.7,0,0,0,0,.22.47.47,0,0,1,.17,0l-.19-.21a.5.5,0,0,0,.1-.11.51.51,0,0,0-.09-.49c.44-.26.54-.25.71.1l.11.24a.06.06,0,0,0,0,0,1.63,1.63,0,0,0,.13.37h0a.64.64,0,0,0,.08.67.25.25,0,0,1,0,.22,1.45,1.45,0,0,1,.18.32.88.88,0,0,0,1.19.06.35.35,0,0,0,.26-.07l.09,0h.11c.13.24.36.27.59.31v-.08h0l0,.08c.39.49.56.52,1.16.2a1.27,1.27,0,0,0,.08-.72l-.06-.08a.76.76,0,0,1,.21,0l.23-.31c0-.26,0-.52,0-.78a1.14,1.14,0,0,0,.26-.09.83.83,0,0,0,0,.15l.11,0,.11,0,.59,0a.24.24,0,0,0,.08-.25l.15-.06a.74.74,0,0,0,0,.14c.37.38.87.61,1.23,1a.72.72,0,0,1-.7-.27c-.28.17-.65.21-.82.54a.78.78,0,0,1,0,.22l.14,0a.05.05,0,0,0,0,0,.66.66,0,0,0,.69.66l.8.36a.47.47,0,0,0,.28-.24h0a2.65,2.65,0,0,1,.53-.58v-.5l.27-.22c.21.24.42.31.58,0s.17-.41.26-.61a1.47,1.47,0,0,1,1-.6c.63-.14,1,.23,1.52.45.8.35,1.19.17,1.35-.68a3.07,3.07,0,0,0,0-.68l.47-.6c.42.26.47.24.61-.31.27.09.5.07.58-.26a.44.44,0,0,1,.25-.25v0a2.2,2.2,0,0,0,.41-.84h.08c0,.16.08.26.25.22l.47.07h0l.87,1.26.3-.43a.19.19,0,0,0,.28,0l.09-1c.18-.12.2-.48.44-.43s.35.26.47.44a1.55,1.55,0,0,1,.14.49l.49.06a.46.46,0,0,0,.31.51c.18.3.53.21.79.32l.6.49.56,0c.24.1.46.15.45-.23-.53-.68-.53-.68.07-1.12a.38.38,0,0,0,0-.54l-.09-.57c0-.16-.06-.23-.18-.28a.58.58,0,0,0-.06-.26.33.33,0,0,0,0-.24c.21-.12.23-.34.28-.55.87-.41,1.06-.32,1.14.58,0,.17,0,.34,0,.51s-.16.64.21.84a.76.76,0,0,0,1.08.19l.3,0,.3-.26.12,0,.12,0c.43.28.81.75,1.4.3.41-.44.23-1.1.56-1.58a.91.91,0,0,0,0-.53,1.8,1.8,0,0,0-.08-.39.41.41,0,0,0-.33-.13h0a.45.45,0,0,0-.38-.1,1.29,1.29,0,0,0-.08.55c-.07.12-.12.25-.19.37a1.12,1.12,0,0,0-.16.61l-.26-.18c0-.41.42-.71.34-1.16-.23,0-.45-.13-.43-.38s0-.78.45-.94h.21a.59.59,0,0,0,.59.25c0-.07,0-.14,0-.22h0l.5-.64c0-.26,0-.52.05-.78l.24-.3a.39.39,0,0,1,0-.26.12.12,0,0,1,.07-.16l.1,0a.48.48,0,0,0,.16.12.27.27,0,0,0,.29-.2.81.81,0,0,0,.19-.55.57.57,0,0,0,.32-.31h0c.09-.17.22-.09.34-.06a.2.2,0,0,1,.19.08,1,1,0,0,0,.36.2l.71.09c.13.2.28.13.42,0h0a.73.73,0,0,0,.46-.84,2,2,0,0,1,.24-1.13,3.15,3.15,0,0,0-3-1.63l-.06,0v0h0l-.22-.3c0-.15,0-.29,0-.44a7.85,7.85,0,0,0,1.12-.42.86.86,0,0,1,.75,0,.48.48,0,0,0,.28-.37s0,0,0,0c0,.18,0,.37,0,.55a.39.39,0,0,0-.25.17c-.07.16-.28.33-.16.48.31.38.63.81,1.24.57a.7.7,0,0,0,.22.7.92.92,0,0,1,.38.64,1.48,1.48,0,0,0,.28-.28c.31-.61.32-.65-.33-1-.28-.16-.23-.34-.25-.55.12-.46.18-1,.86-.87.18,0,.4,0,.47-.15.18-.43.63-.46.93-.71.12-.1.15-.31.22-.46s.19-.13.14-.27a.77.77,0,0,0-.33-.34l.37-.27-.21-.51c.19-.68.19-.68.83-1.07l.28,0a1.26,1.26,0,0,0,.33.16,1,1,0,0,0,.53-.15l.24,0,0-.49h.21a.25.25,0,0,0,.31.16c.16,0,.29,0,.26-.24-.13-.41.25-.52.43-.74,0,.32,0,.67.17,1a1.66,1.66,0,0,1,.21.06c.46.32.75-.15,1.12-.25a.61.61,0,0,0,.24-.6c-.06-.26-.18-.53,0-.76s0-.59,0-.88a.19.19,0,0,0,0-.31.53.53,0,0,0-.49,0,.74.74,0,0,0,.1-.63,1.7,1.7,0,0,1-.21-1.4.64.64,0,0,0,.33.1,1.25,1.25,0,0,0,.61-.24.71.71,0,0,0,0,.29l.09.1-.43.28a.17.17,0,0,0-.12.06s0,.09.12.13h0c0,.15.1.19.17.13a.45.45,0,0,0,.06.27.81.81,0,0,0,.56.15,1.16,1.16,0,0,0,.53-.24h0c.1-.08.18-.18.28-.27s.1-.17.09-.25c-.05-.47-.22-.94.23-1.35a.55.55,0,0,0-.18-.59,1,1,0,0,0-.39,0c0-.64-.35-1.22-.29-1.86.39,0,.53-.23.69-.5s-.09-.45.13-.61a2.37,2.37,0,0,1,.27-.28h0a.22.22,0,0,0,0-.32h0a.53.53,0,0,0,0-.39l.14-.11a.48.48,0,0,1,0-.49,2.07,2.07,0,0,0,.19-1.12c.44.2.54.69.85,1a.6.6,0,0,0,.73.14.87.87,0,0,0,.63-.79l.51-.36a1.29,1.29,0,0,1,.4,0c.46.2.7-.1.89-.4s0-.59-.28-.81a1.7,1.7,0,0,1-.19-.19h0c.34-.39.34-.39,0-.83,0-.15,0-.3-.07-.45-.74-.12-.87,0-.67.63.07.21.18.42.27.62l-.09.84h0l0,0v0h0c-.08-1-1-1.62-1.28-2.52a.36.36,0,0,1,0-.29l.1-.09h0a.91.91,0,0,0,.26-.13.45.45,0,0,1,.13-.23s0,0,0-.09a.16.16,0,0,0-.08-.17h0c-.11-.18-.39-.09-.47-.32s0-.17-.08-.25.05,0,.07-.1,0-.1-.12-.14v0a.71.71,0,0,0-.33-.35l.31,0a.48.48,0,0,1,.27-.43c.14.21.27.17.39,0a.4.4,0,0,0,.21-.09l.3.29.26,0,.29-.48a.92.92,0,0,0,.34-.39s0,0,0,0a.6.6,0,0,0,.14.21A1.07,1.07,0,0,1,122,78c.1.08.17.2.27.29l.11.06A.59.59,0,0,0,123,78a.13.13,0,0,0-.07-.21l-.24-.26h0l.28,0,.81,0a2.29,2.29,0,0,1,0,.25c-.17.27-.17.27.24.29a.24.24,0,0,0,0-.23.3.3,0,0,0-.22-.31.76.76,0,0,0,0-.26c-.22-.39-.28-.39-.63,0a.35.35,0,0,0-.18,0h0a.63.63,0,0,0-.27-.51.29.29,0,0,0-.29-.21c0,.25,0,.5,0,.76-.28,0-.58,0-.76.27a.4.4,0,0,0-.12-.1.62.62,0,0,0-.46.07c0-.07,0-.15,0-.22l-.1,0a2,2,0,0,0,0-.24s0-.06,0-.08a.23.23,0,0,0-.08-.34,0,0,0,0,1,0,0l-.12-.1c-.38-.17-.15-.52-.22-.79h0l.48.2h1s0,.07.07.1a.22.22,0,0,0,.3-.06,1.11,1.11,0,0,0,.58-.77.62.62,0,0,1,.23-.07h0c.16-.15.42-.09.56-.28s.49-.2.6-.47a.32.32,0,0,0,.23-.06,1.88,1.88,0,0,0,.39-.77,1.07,1.07,0,0,0-.32-.62l-.09,0,0-.17a.24.24,0,0,0,.24-.06,1.24,1.24,0,0,1,0-.27.76.76,0,0,0,0-.84h0c-.18-.16-.21-.33,0-.49h0a1.14,1.14,0,0,1,.22-.32,1.93,1.93,0,0,0,0-.24h-.53a1.06,1.06,0,0,0-.26.33c-.33.19-.71.34-.85.76a.22.22,0,0,0-.08.21c-.07,0-.14,0-.19.07l-.06.29a.47.47,0,0,1,0,.16l-.21.07-.33.07a.62.62,0,0,0-.32.23.28.28,0,0,0-.18,0l0,0a.28.28,0,0,0,0-.25l-.15,0a.67.67,0,0,0,.09-.14,3.34,3.34,0,0,0,.1-1.37l.16,0a.92.92,0,0,0,.29,0,.6.6,0,0,0,.25-.16.47.47,0,0,0,.09-.22s0,0,0,0a.93.93,0,0,0,.36.14,2.27,2.27,0,0,0,1.29-.38,2,2,0,0,0,.5-1.22c0-.36,0-.73,0-1.1-.41-.3.26-1.24-.71-1.2l-.09.12a.2.2,0,0,0,0-.07.59.59,0,0,0-.6-.17c-.37.14-.69,0-1-.07,0-.18,0-.35-.07-.52l.08,0,.09,0h0a.88.88,0,0,0,.26.12c.61,0,1.15.48,1.78.21,0,0,0,0,0,0a.56.56,0,0,1,.27.5.67.67,0,0,0,.25-1c-.18-.31-.52-.22-.8,0l-.29-.55a1.82,1.82,0,0,0-.92-.57l.28,0s0,.07,0,.1a.66.66,0,0,0,.33.12l.11,0a.35.35,0,0,0,.19.17l.36-.26h0c.49-.23.5-.25.17-.86,0-.1,0-.19,0-.29.29-.32.06-.68.07-1s.5-.54.36-1c0-.08-.08-.16-.12-.24a1.09,1.09,0,0,1-.3-.23h-.27l0,0,0,0a1.76,1.76,0,0,0,0-.51,2.74,2.74,0,0,1,.31-2.11l.57-.88a1.54,1.54,0,0,0,.32-.23.94.94,0,0,0,.06-1.3,3.4,3.4,0,0,1-.77-1.81l.38-.51a.79.79,0,0,0,.22,0,1.09,1.09,0,0,1,0-.26l.71-.86.09-.79a1,1,0,0,0,.24-.05c0-.15,0-.3,0-.45h0c.51,0,.7-.27.76-.71a.15.15,0,0,1,.07-.18,6.23,6.23,0,0,0,.17-2.43l-.18,0c0-.17,0-.34,0-.51l.27-.55C128.17,46.1,128.18,46.05,127.66,45.78ZM31.33,11.68s.06,0,.06.06ZM7,51.17l0,0v0ZM6.8,51l0,.06.06.06h0l0,0A.68.68,0,0,0,6.79,51Zm-.3,0v0ZM5.56,61.44l-.06.11a.36.36,0,0,0,0-.1A.08.08,0,0,0,5.56,61.44ZM5.1,60.08A.48.48,0,0,0,5.19,60l.07,0,0,0a.79.79,0,0,1-.22.06ZM2.2,66.81a1.18,1.18,0,0,1,.07.2.08.08,0,0,0-.08,0A.4.4,0,0,0,2.2,66.81ZM4,68.39a.76.76,0,0,1-.09.09l-.16,0c-.24.11-.57,0-.76.25a.3.3,0,0,1,0-.08,2.63,2.63,0,0,0-.66-.39A1,1,0,0,0,2.68,68l.23.07a2,2,0,0,0,.54.07A1,1,0,0,0,4,68S4,68,4,68H4a.32.32,0,0,0,.15.41Zm3.06-4a.78.78,0,0,0-.32.78,1,1,0,0,1-.24.84.33.33,0,0,0-.24,0c-.11-.15-.21-.2-.29,0h0L5.1,66c.11.65-.46.63-.81.83l-.06.1a1.42,1.42,0,0,1,0-.16.94.94,0,0,0-.82,0,.21.21,0,0,1-.2,0l.05,0A4,4,0,0,0,3.78,66a.42.42,0,0,0,.24.2,2.29,2.29,0,0,0,1.15-.23.55.55,0,0,0,0-.5l-.08-.07a1.07,1.07,0,0,0-.06-1.25.55.55,0,0,0-.18,0l-.56.53-.24,0,.07,0a1.81,1.81,0,0,0,.17-.46.5.5,0,0,1,.29-.31c.1,0,.21,0,.31,0l.14,0a.83.83,0,0,1,.32.06.23.23,0,0,0,.29,0c0,.11,0,.39.27.18.11-.08.17-.21.27-.3s.37-.2.54,0A2.34,2.34,0,0,0,7,64.1c0,.09,0,.18,0,.27ZM11.28,35.1h0s0,0,0,.08S11.28,35.12,11.28,35.1Zm-2,2.44A.42.42,0,0,0,9.71,37c-.05-.11-.11-.13-.19-.07a.47.47,0,0,0-.15-.19l.36-.1a1.15,1.15,0,0,0,.25-.12h0c.1.41.44.5.83.51h0a.46.46,0,0,1-.33.45c-.43.19-.46.48-.23.84a5.81,5.81,0,0,0-.57.4,2.19,2.19,0,0,0-.53-.64.78.78,0,0,0,.16-.43A.5.5,0,0,0,9.3,37.54Zm-.48-1.68h0a2.13,2.13,0,0,1-.38-.14v-.31A1.36,1.36,0,0,0,8.82,35.86Zm-.7,5.2H8a2,2,0,0,1-.11-.2c-.11-.22-.23-.41-.51-.41,0,0,0,0,0-.06l.06,0a1.23,1.23,0,0,0,.71,0,1.54,1.54,0,0,1,.85,0,1.08,1.08,0,0,0,.53-.06,1.26,1.26,0,0,0,.53-.54c0,.3,0,.57-.43.57A.9.9,0,0,0,9,41H8.7ZM9,52.72a1.48,1.48,0,0,1-.3.36l-.07.08a.48.48,0,0,0-.17-.26.81.81,0,0,1,.13-.3.55.55,0,0,1,.18-.16h.06l.12.13.05,0A.4.4,0,0,1,9,52.72ZM8.8,42.46a.32.32,0,0,0,.09.23c-.09,0-.13-.08-.13-.19a4.19,4.19,0,0,0-.63-1.13s.08,0,.09,0c.21.39.51.27.79.22H9c.18.57.64.29,1,.35h0C9.63,42.2,9.08,42,8.8,42.46Zm.62,19.83,0,0a.22.22,0,0,0-.1-.09l.1,0h0C9.44,62.21,9.44,62.26,9.42,62.29Zm-.18,7.57,0,0h.11a.54.54,0,0,0,.1.2c-.08.24-.27.28-.46.32a.16.16,0,0,0,0-.07c-.43-.3-.8,0-1.15.11C8.23,70.15,8.81,70.19,9.24,69.86ZM9.61,71a.64.64,0,0,0,.05.33l-.12.11c0-.14-.07-.23-.21-.24A1.42,1.42,0,0,0,9.61,71Zm-.1-1.43Zm0-1.68,0-.05s0,0,.05.05Zm0,4.42a.67.67,0,0,0-.06.12.1.1,0,0,1,.05-.14s0,0,0,0ZM9.23,77a.3.3,0,0,1,0,.1A.5.5,0,0,0,9.19,77h0ZM9,76.18Zm-.3-4.43h0ZM7,72.25l0,0a.22.22,0,0,0,0,.08Zm.42,6.8a4.66,4.66,0,0,0,1.12,0c.63-.06,1.07-.35.66-1,.38-.44.74-.2,1.11,0a1.41,1.41,0,0,1-.49.79,10.73,10.73,0,0,0-.86.79C8.48,79.38,7.78,79.54,7.42,79.05ZM9.2,81.46v0l0,0A.31.31,0,0,1,9.2,81.46Zm1.73-.9,0,.25c-.19.11-.17.19-.06.26a.58.58,0,0,0-.19.19.84.84,0,0,0-.15.6.76.76,0,0,0,.09.09s0,.06,0,.1h-.15c-.1,0-.19.18-.34.09s0-.28-.06-.42a.73.73,0,0,0-.27-.45.49.49,0,0,0-.53.07h0c-.28-.14-.56-.22-.8.07l-.48.24,0,0a.47.47,0,0,0-.42-.15,10.82,10.82,0,0,0,1.21-.53,1.42,1.42,0,0,0,.25-.3,4.25,4.25,0,0,0,1.57-.54A1.57,1.57,0,0,0,11,79.8a.5.5,0,0,0-.08.12A1.07,1.07,0,0,0,10.93,80.56Zm0-8.53h0Zm-.53-24.58-.48.13a1.94,1.94,0,0,1-.68,0l0-.07a.69.69,0,0,1,.14-.39,1.26,1.26,0,0,0,.42.16,1.28,1.28,0,0,0,.75-.26.43.43,0,0,0,.1-.09v0c.1.17.33.16.47.29C10.84,47.29,10.6,47.37,10.35,47.45Zm.81,16.61h0l0,0h0ZM11,44.78l-.13.13h0s0,0,0,.05l0,0s-.07,0-.1-.08a2.17,2.17,0,0,1-.24.07c-.3,0-.4-.07-.31-.34,0-.11.16-.19.24-.29l0,0c.25-.21.25-.25,0-.47a.13.13,0,0,0,0-.06h0a.85.85,0,0,0,.42-.22h0a1.29,1.29,0,0,0,.46.52C11.18,44.29,11.1,44.55,11,44.78ZM13,81.07h.09v.09L13,81.08Zm-.26-.51v0h-.1A.18.18,0,0,0,12.75,80.56Zm-.85,6.8s0-.07,0-.1l.05.11Zm1.2-5.78-.08.07c-.14.37-.54.62-.5,1.08h0l-.46.21a.88.88,0,0,0,0-.82l.22-.18.08-.08a.84.84,0,0,0,.3-.08.35.35,0,0,0,.15-.17l.19,0,.08-.07Zm.28-21v0h0ZM13.45,44s0,0,0-.07a.19.19,0,0,0,0,.08Zm.08,5.58h0C13.53,49.6,13.48,49.59,13.53,49.55Zm.08,34h0Zm0-34.25h0v0h0l0,0h0Zm-.49-6.59a.1.1,0,0,1,.05,0,.7.7,0,0,0,0-.58,1.8,1.8,0,0,0,.62-.27A.85.85,0,0,1,13.12,42.7Zm.78,42.5ZM14,75.73h0Zm2-29.08Zm-.39-17.3ZM14.76,41.9l.07.07h-.09A.14.14,0,0,0,14.76,41.9Zm-.33,1.34,0,0h0Zm-.12,40.32a.29.29,0,0,0-.16,0v-.13h.32C14.4,83.47,14.36,83.52,14.31,83.56Zm.32-34.13,0,0h0l0,0A.07.07,0,0,0,14.63,49.43Zm.15,29.39,0-.13,0,0,.16.07A.59.59,0,0,0,14.78,78.82Zm0-18.31a.86.86,0,0,1,.07-.1l0,.09Zm.5,26.61h0A0,0,0,0,1,15.24,87.12Zm0-13.17h0a.08.08,0,0,1,0,0l.06,0Zm.27,0s0,0,0,0h0l.09,0Zm-.07-24.74c-.07,0-.15,0-.25,0a4,4,0,0,1-.5.11l0,0h0c0-.23,0-.47,0-.71a8.06,8.06,0,0,1,1.19-.33h.05l.08.11.14.23a.45.45,0,0,1-.41.43A1.51,1.51,0,0,0,15.45,49.18Zm.62,1.22Zm-.28,39.42s0,0,0,0h0l0-.06ZM16,70.63s0,0,0,0H16Zm0,.05s0,0,0,0h0S16.06,70.67,16.06,70.68Zm.15,23.65a.55.55,0,0,0-.09-.28l.06,0a.47.47,0,0,1,.38.1A.47.47,0,0,0,16.21,94.33Zm.4-7.47v0h0Zm-.08-46.19a.44.44,0,0,0-.15-.12.5.5,0,0,0,.1-.11.49.49,0,0,1,0-.12l.11,0s0,.15.08.2l.12.08A.66.66,0,0,0,16.53,40.67Zm.57,1a.09.09,0,0,0,0,0h0Zm.07-11a.43.43,0,0,0,0-.07h0a.59.59,0,0,0,0,.08Zm.47,66.1v0h0A0,0,0,0,0,17.64,96.75Zm22-80.36v0h0ZM39.31,48v0h0Zm-.44-18.09h0Zm-.32-12.09h0v0Zm0,6.27h.08a.11.11,0,0,1-.08,0Zm-1.1,6.61h0Zm-.62,33.11-.07.11h0Zm-.19-29.87v0h0S36.63,33.92,36.63,33.91Zm0,18.94a1.45,1.45,0,0,1,0,.3v0a2.43,2.43,0,0,0,0-.27Zm-.31-20.54h0l0,0Zm0,39a.2.2,0,0,1-.07.2h0A1.72,1.72,0,0,1,36.31,71.35ZM36.22,57s0,0,0,.08a.22.22,0,0,0,0-.08Zm-.09,47.7h0s0,0,0,0A0,0,0,0,0,36.13,104.7Zm-.07-72.12h0v.06l0,0S36.06,32.59,36.06,32.58ZM33.8,28.19h.06l0,0h0ZM32.3,13.5l.08,0a.29.29,0,0,0,.13,0,1.3,1.3,0,0,0,.11.58.46.46,0,0,0,.16.15.47.47,0,0,1-.25.17,2.51,2.51,0,0,1,0-.27.74.74,0,0,0-.23-.53A.2.2,0,0,0,32.3,13.5Zm.2,6.73h0ZM32,23.8Zm-.75-7.5.07,0h0l.06.06v0s0-.06-.05-.08h0l-.07,0Zm-1,.83c-.06.17,0,.31.22.44l.16-.07h0c0,.06,0,.12,0,.19h0a1,1,0,0,0-.43.24,1.7,1.7,0,0,0-.09-.54C30,17.27,30.06,17.16,30.21,17.13Zm.38,7.45a.16.16,0,0,1-.09,0h.09Zm-1.93-6.26v0h0v0h0Zm-2.17.57,0,0,0,0Zm0,1.72c.24.07.26.31.36.49a1.59,1.59,0,0,0,.4.58l-.24.26a.82.82,0,0,0-.26-.06h0l-.15-.19a2.5,2.5,0,0,1-.1-.49h0v-.15c0-.14,0-.29,0-.43Zm.17,13.08-.26.1C26.5,33.71,26.59,33.62,26.67,33.69Zm-1.7,0h0l.15,0,0,0-.1.09L25,34s0-.08,0-.12l0-.1Zm-.64-9.35s0,0,0,.05a.07.07,0,0,1,0-.07Zm-1.7,9.33Zm-.23,0v0s0,0,0,0Zm-.57-8.28-.18-.3,0-.05.3-.36,0-.05.06,0,.12.39C22.3,25.4,22.08,25.41,21.83,25.4Zm.28-1.31h0Zm-.45-1.32a.1.1,0,0,0,.12,0l.07.07a.68.68,0,0,0,.28,0l0,.09-.21.2c-.07-.13-.16-.23-.3-.18A.55.55,0,0,0,21.66,22.77ZM20.17,38.13h.08l.18.17-.09.09v.12h0a1.83,1.83,0,0,0-.06-.25l-.1-.09Zm.26,3.52h0a.36.36,0,0,0,.15.38c-.34,0-.82.39-1-.16C19.83,41.75,20.19,41.86,20.43,41.65Zm-.87-17.9a.88.88,0,0,0,.28,0,.27.27,0,0,0,.05.13l-.23.18h-.14a.06.06,0,0,1,0,0,.64.64,0,0,0-.21-.28A1.18,1.18,0,0,1,19.56,23.75Zm-.15,2.3a0,0,0,0,1,0,0l0,0h0Zm-2-1.31a4.4,4.4,0,0,1-.39-.26,1.3,1.3,0,0,1-.26-.31,1.09,1.09,0,0,1-.05-.26,1.9,1.9,0,0,0,0-.25.37.37,0,0,1,.19-.28c.09.2.35.26.46.45l.07,0a1.49,1.49,0,0,0,.52.88v-.11h.07l-.08.1c.11.07.21.18.33.19a.93.93,0,0,1,.79.63l0,.5c-.33-.16-.55-.56-1-.54A1.72,1.72,0,0,0,17.42,24.74Zm1.45,7,0,0v0Zm-.06,9,0,0v0Zm-.88-14.21c-.1,0-.2-.05-.14-.14a.42.42,0,0,0,.15.11S17.93,26.51,17.93,26.52ZM18,65.74v0h0l0,0ZM18,67h0S18.05,67,18,67Zm.52-19.35h0v-.06h0Zm.16,46.57.09,0v.08Zm0-.49s0,.07,0,.11c-.15-.09-.08-.16.08-.22v0S18.75,93.7,18.71,93.76Zm.2-16.23a1.43,1.43,0,0,0,0-.22.55.55,0,0,1,.07-.25,1.74,1.74,0,0,0,.23-.39c.08.21.18.4.46.43,0,.12,0,.25,0,.37h0v0a.49.49,0,0,0-.41-.1C19,77.35,19.09,77.64,18.91,77.53Zm.17-22.25h0l0,0h0S19.09,55.29,19.08,55.28Zm.22,8.77v0h0Zm.06,9.32h0Zm.2,1.89-.11,0a.62.62,0,0,0-.09-.12Zm.06-10.07Zm-.49,14.48a1,1,0,0,0,.2-.34,1.23,1.23,0,0,0,.5.16.31.31,0,0,1-.24.09A4.14,4.14,0,0,0,19.13,79.67Zm.73,12.81h0l-.06,0ZM20,100.8s0-.06-.06-.09a.74.74,0,0,0-.4-.08l.21-.1a1.65,1.65,0,0,0,.31-.2h0a.77.77,0,0,1,.07.43Zm-.15-22.5c.37,0,.55-.47.9-.56l.11.08C20.78,78.36,20.45,78.52,19.82,78.3Zm.1-11.45h0Zm0,7.43.14-.07a.73.73,0,0,0,.29-.19l.28.08a.25.25,0,0,0,0,.12c-.2,0-.4.06-.48.29a1,1,0,0,0-.24,0Zm1.07-5a.25.25,0,0,0,0,.12h0l-.1.07s0,0,0,.11a.17.17,0,0,0,0,.07.59.59,0,0,0-.23,0C20.79,69.61,20.91,69.48,21,69.33ZM20.83,61s0-.06.05-.09a.24.24,0,0,0,0,.08Zm.46,2.57v0h0Zm.18,2.72a1.06,1.06,0,0,0-.15.42.83.83,0,0,0-.22-.08H21L21,66Zm.25,6.42a.34.34,0,0,1-.26,0ZM21,87l0,0h0ZM20.7,58.08l0,0h0A0,0,0,0,1,20.7,58.08Zm1,41.9Zm-.14-1.27-.09,0a1.32,1.32,0,0,0-.93.25,1.13,1.13,0,0,0,.24-.82.28.28,0,0,0,.25,0s0,0,0,0c.29,0,.63-.17.77.29Zm.24-15.17Zm0,0h0Zm0-6.16v0h0ZM22,100.71a.46.46,0,0,0-.07-.07.42.42,0,0,0,.15-.11h0l-.09.11ZM22,77.37l.11-.05s0,0,0,.06Zm.15-3.11h0l0,0Zm.28-2,.19,0a.19.19,0,0,0,0,.14A2.18,2.18,0,0,1,22.38,72.23Zm.54,8.9h0Zm0-6.72h0l0,0Zm-.19-5.73a.66.66,0,0,0-.19-.18h-.11c.26-.37.48-.16.69,0A.63.63,0,0,0,22.69,68.68ZM23,66a.81.81,0,0,0-.3-.17,1.71,1.71,0,0,0-1.15.28v-.66l0,0h.76l.3.3.24-.32,0,0,.28-.33.18,0C23.09,65.38,23.07,65.72,23,66Zm-1.43-5v0h0Zm.29,2.75h0l-.12,0h0Zm1.77-2.52ZM23.43,46c0,.29-.2.12-.31.16-.75.35-1.32,1.26-2.35.77l-.05,0c-.08-.92-.52-1.14-1.34-.65l0,.28-.31.31-.26-.11-.12.1-.2,0a.79.79,0,0,0-.37.1.88.88,0,0,0,0-.58.67.67,0,0,0-.13-.22.73.73,0,0,0,.41,0,.31.31,0,0,0,.15-.31l-.09-.1h0c.17,0,.43.09.45-.09s-.18-.18-.35-.19l0-.14a.79.79,0,0,1,0-.13v-.47h0l.24,0a1.05,1.05,0,0,0,.05-.19.27.27,0,0,0,.19-.14c.74.23,1.38,1,2.28.44l.13-.12c.2.11.37.29.63.25h0c.19.32.19.32.53,0a.38.38,0,0,0-.13-.09l.05,0,.08.1c.33,0,.59.16.89.23h0a.34.34,0,0,0,.3.35A1.14,1.14,0,0,0,23.43,46Zm-1.64-1.91V44h.06Zm1.73.38h0Zm.77,22.26v0a4.26,4.26,0,0,1,.5.06h0a.45.45,0,0,1-.08.23l-.07,0A2.88,2.88,0,0,0,24.29,66.69Zm0-18.23h0l0,0,0,0v0Zm.28,25.77h0Zm0-2.19v0h0Zm.25,1Zm.29-1.61-.5,0h0a.57.57,0,0,0,.07-.22s0,0,0-.05a.44.44,0,0,0,.48,0A.38.38,0,0,1,25.1,71.48Zm0-2.45Zm.33-2.3a.69.69,0,0,1-.3.26c0-.09,0-.18,0-.27a.79.79,0,0,0,.26-.08.12.12,0,0,1,.05,0Zm.23,2.84h0s0,0,0,0a.06.06,0,0,0,0,0Zm.06,33.7a.73.73,0,0,1,.32-.09C25.92,103.24,25.82,103.31,25.71,103.27Zm.48-36.72h0l.09-.09s0,.06,0,.08Zm.23,27.61,0,0h0v0Zm.07-25.43Zm-.07-3.83c-.41,0-.7-.06-.79-.52a.33.33,0,0,0-.36-.29,3.58,3.58,0,0,0-.64-.93,1.16,1.16,0,0,0,1.29-.37,3.22,3.22,0,0,1,.57,1.3c0,.19,0,.37,0,.55A.79.79,0,0,0,26.42,64.9ZM24.89,44a1.19,1.19,0,0,0,.26-.33.81.81,0,0,0,.14.33h0A.7.7,0,0,0,25,44,.23.23,0,0,0,24.89,44ZM26,62.74a0,0,0,0,1,0,0h0Zm.63,31.91v-.13h0A.49.49,0,0,0,26.61,94.65Zm.06-23.6h0Zm.09,32h0Zm0-.63h0Zm-.13-40,0,0a.36.36,0,0,0,.17.36C26.64,62.72,26.63,62.56,26.6,62.41Zm.64.36h0l0,0h0Zm0,4.07a.67.67,0,0,1,.14-.28l.15.28h-.29Zm.46,4.25,0,0,0,0Zm.91,32h0a3.44,3.44,0,0,0-.45,0h-.07c0-.08-.05-.17-.07-.26.25-.4.38,0,.56.09a.34.34,0,0,0,.05.17A.13.13,0,0,1,28.65,103.05Zm-.43-37.5a.28.28,0,0,0,.13-.07s0,0,0,0v.23h0s0,0,0,0A.5.5,0,0,0,28.22,65.55Zm.32,36.14s0,0,0,0l0,.1Zm.62-28.62a.74.74,0,0,0-.37-.17h-.08a.75.75,0,0,0,.18-.13,1,1,0,0,1,.12-.16l.18.07Zm-.22-27.94h0l0,0h0l0,0Zm.31,51s0,0,0,0h.07Zm.21,5.78h0v0A0,0,0,0,1,29.46,101.88Zm0,0h0l0,0s0,0,0,0S29.5,101.88,29.49,101.88ZM29.9,71.3h0a.74.74,0,0,0,0-.21A.25.25,0,0,1,29.9,71.3Zm.43,33.08Zm.21-32.69h0Zm-.49-1.93a1.24,1.24,0,0,0-.42.15.09.09,0,0,1,0,0l.11,0c.13-.07.12-.28.3-.3a.45.45,0,0,0,.3-.45l.49,0c0,.19.06.29.29.24h0C30.8,69.52,30.55,69.92,30.05,69.76ZM29.76,52.6h0v0Zm.54,13.67Zm.27-2.67a.31.31,0,0,0,.21.18.69.69,0,0,1,.1.19v0a1.29,1.29,0,0,1-.53-.39A.55.55,0,0,0,30.57,63.6Zm-.14-9.79.1-.12a.78.78,0,0,0,.24.2.13.13,0,0,0,0,.06h-.11a.32.32,0,0,0,0-.09A.52.52,0,0,0,30.43,53.81Zm.43-16h0v0Zm.56,63h0v0l.09,0Zm.07-31.9a.31.31,0,0,0,0-.19l0,0s0,0,0,0a.67.67,0,0,0,.34-.07C31.78,68.81,31.86,69.19,31.49,68.9Zm0-7.35c0-.07,0-.14.08-.14s0,.06,0,.12A.12.12,0,0,0,31.48,61.55ZM32,59.79h0a2.64,2.64,0,0,1-1-.12.22.22,0,0,0,.14-.14.42.42,0,0,0,.15,0l.13-.1a1.05,1.05,0,0,0,.2-.27.76.76,0,0,0,0-.16h.08a.88.88,0,0,0,.21.66s0,0,0,0l.08.14Zm-.12-.86a2,2,0,0,0,.65-.33,2.26,2.26,0,0,0,0,.45h-.07l-.13.06Zm.67,10.13,0,0v0S32.5,69.05,32.51,69.06Zm-.27,34.64.1,0a2.46,2.46,0,0,1,.1.47c0,.12,0,.19-.09.14s0-.17,0-.24l-.09-.1Zm.81,5.32h-.22c-.38-.15-.42.15-.53.35l0,0s0,0,0,0a.48.48,0,0,0,0-.53.59.59,0,0,0,.35-.53.27.27,0,0,0,.23,0,.56.56,0,0,0,0-.25.67.67,0,0,0,.59-.43c.09-.2.15-.42.41-.45a.27.27,0,0,0,.2.12.18.18,0,0,0,.11.17c0,.23-.07.45-.1.68h0C33.52,108.13,33.39,108.69,33.05,109ZM32.52,63.8h0Zm.25,26.12a.25.25,0,0,1,0-.08l.06.07ZM33,86.56h0l0,.07Zm.6-47.13h0s0,0,0-.06a.1.1,0,0,0,0,.05Zm0,34h0Zm0,0c0,.07,0,.17,0,.22S33.6,73.48,33.6,73.4Zm0-16.73h0v0Zm.26,4.95h.06l0,.05Zm.28,9.59h0a.43.43,0,0,0,0,0l0,0,0,0Zm0,9.85h0Zm.19,29.27c0,.06,0,.12,0,.18h0l-.11,0a.58.58,0,0,0-.38.17c0-.23.28-.47,0-.7h0c.12-.26.22-.53.53-.65,0,.28,0,.55,0,.83A1.62,1.62,0,0,0,34.34,110.33Zm-.12-60.46h0a0,0,0,0,1,0,0Zm.19,41.29s0,0,0,0v.07A.08.08,0,0,1,34.41,91.16Zm.06,19.48h0Zm.6-2.61c-.14.49-.48,1-.09,1.46a1.3,1.3,0,0,0-.22.19,1.34,1.34,0,0,1-.13-.4l0-.82c.08-.22.14-.48.44-.47C35.1,108,35.08,108,35.07,108Zm-.24-10.67a1,1,0,0,0-.08-.11h.07s0,0,0,.06A.09.09,0,0,0,34.83,97.36Zm.13,7.55h0Zm0-2.77.19-.2a.31.31,0,0,1,.09-.07C35.11,102.07,35,102.13,34.93,102.14Zm0-36A1.09,1.09,0,0,0,35,66s0,0,0,0Zm.36-34.95a.94.94,0,0,0-.59.65c0,.16,0,.34-.23.42L34.1,33l-.5.12c-.49.09-.49.09-.54.63l-.06.38c-.41.28-.85.51-.75,1.14,0,.15-.14.32-.19.49-.17.62-.83.73-1.18,1.17l-.56.26c-.22-.26-.44-.31-.65,0a3.64,3.64,0,0,0-.22.49c-.17.07-.35.15-.37.36s0,.36,0,.54a.84.84,0,0,1-.75.95.84.84,0,0,0-.72.73c0,.09-.2.16-.31.24l-.55-.06-.51.06c-.23.09-.16.39-.34.52h0l.13.17a3.34,3.34,0,0,1-.64.66,2.64,2.64,0,0,1,0,.28l0,0c-.06.09-.2.12-.24.24a.61.61,0,0,0-.26-.15.82.82,0,0,0-.64.16,2.09,2.09,0,0,1-.39.27l-.29.12h0a.45.45,0,0,0,0-.2.3.3,0,0,0-.08-.08c0-.4-.3-.72-.31-1.11a.41.41,0,0,1-.18-.46.58.58,0,0,0,.28-.09l.13,0h.13a.49.49,0,0,0,.54,0,.66.66,0,0,1,.24,0c.14-.09.3-.14.44-.23a.83.83,0,0,0,.3-.39.39.39,0,0,0-.18-.43h0c-.08-.11-.16-.1-.23,0h0c-.2.11-.41.19-.61,0h0c-.17-.35-.37-.6-.77-.25-.19.5-.69.52-1.08.7a.28.28,0,0,0-.29-.17c0,.17,0,.34,0,.52l.21,0h0a1.05,1.05,0,0,0,.06.24,2,2,0,0,0,.27,1.09c0,.21,0,.44-.06.63l0,0c-.34-.44-.38-1-.72-1.47h-.07l0-.08a2,2,0,0,1-.1-.21,1.26,1.26,0,0,0,.39-.67,1.67,1.67,0,0,0,.06-.38,2.42,2.42,0,0,0-.1-.93,1.18,1.18,0,0,0-.11-.19l.17-.06-.05-.09h0l.05.1c0,.06,0,.12,0,.18l.27,0c.06-.06.17-.11.17-.16,0-.23-.23-.17-.37-.21h0l0-.42.45.07a.83.83,0,0,0,.35-.05.47.47,0,0,0,.15-.13c.21,0,.33-.14.34-.41,0,0,0-.1,0-.15a.71.71,0,0,1,.1-.14s0,0,0,0c.63.29,1.11-.3,1.69-.34l.32-.14-.48.63a.41.41,0,0,0,0,.48c.11.18.28.17.46.17a.92.92,0,0,0,.68-.34.32.32,0,0,0,0,.17c.11-.21.23-.42.34-.64a2.76,2.76,0,0,1-.15-.94.52.52,0,0,0,.11-.1.43.43,0,0,0,.05-.33h0l.1,0a.25.25,0,0,0,0,.07.62.62,0,0,0,.27.09.15.15,0,0,0,.07.1l-.1.07c-.06,1.19.93.06,1.19.54a1.13,1.13,0,0,0,.83-.56h0a2.25,2.25,0,0,0,1.62-1.08.67.67,0,0,0-1-.08c-.09.07-.26,0-.39.06-.21-.35-.47-.37-.73-.07-.11.13-.18.29-.37.35l-.25-.29c.09-.34.43-.64.24-1,0,0,0,0,0,0a1.69,1.69,0,0,0-.08-.74,2.36,2.36,0,0,1-.32-.91,1,1,0,0,0,1.49.36c.51.55.81,0,1.16-.24a.75.75,0,0,0,.09-.3.4.4,0,0,0,.34,0h0a.39.39,0,0,0,.17.3.82.82,0,0,0,.26,0h.09l.16-.07a.22.22,0,0,1,.1-.08h0c.09,0,.15.18.25.15.61,0,.85-.57,1.25-.88a1.1,1.1,0,0,0,0-1l.07,0,.18.05c1.3.82,1.32.83,1.88-.19a.38.38,0,0,0,.13.09l.17,0,.24.4c-.06.23.06.32.27.34a.18.18,0,0,0,0,.13A3.2,3.2,0,0,1,35.24,31.22ZM35.51,49v0h0l0,0Zm0,16.42Zm2.13,42.07h0c-.16.09-.29.19-.18.4a.57.57,0,0,1,0,.54c-.26,0-.58-.15-.72.16h0a.43.43,0,0,0-.2.26v0c-.14-.13-.14-.34-.21-.51a.86.86,0,0,0,0-.16.89.89,0,0,0-.8-.46.5.5,0,0,0,0-.16l0-.4a2.53,2.53,0,0,0,.12-.36.83.83,0,0,0,0-.35l0-.06c.11-.15.18-.34.29-.49s0,0,0-.06l1.25-.45.25.32c-.16.26-.59.11-.7.44a.6.6,0,0,1,.19.06c0,.33.19.55.34.8l.17,0a.16.16,0,0,0,0,.07.39.39,0,0,0,.26,0Zm.62,1.8a2,2,0,0,1-.44-.12l-.1-.06c0-.12,0-.25,0-.38l1,0a.29.29,0,0,0,.07.23,1.16,1.16,0,0,1,0,.18A1.68,1.68,0,0,1,38.27,109.33Zm.86-2.84-.35,0h0l-.24-.12s0-.08,0-.11.16-.06.11-.14a.54.54,0,0,0,0-.11l0,0a.06.06,0,0,0,0,0,.29.29,0,0,0,.12-.07,3.09,3.09,0,0,0,.54.48Zm.22-15h0ZM39.22,91a.17.17,0,0,1,.1-.11l0,.06Zm.19,19.17s0,0,0,0v0Zm.22-79.75a0,0,0,0,1,0,0h0Zm.86-21Zm.09,64.12.27.11C40.74,73.68,40.65,73.62,40.58,73.52ZM79.09,32h0Zm-.17,18.55h0Zm.21,2.83a.22.22,0,0,0,0,.17,2.2,2.2,0,0,0-.21-.32A1.35,1.35,0,0,0,79.13,53.39Zm0,6.86h0v0Zm-.29-36.88h0a.34.34,0,0,1-.12-.06A.48.48,0,0,0,78.79,23.37Zm-.43,27a1.63,1.63,0,0,0,.19.09v.27h0a1.82,1.82,0,0,1-.71-.35l.17-.07C78.14,50.29,78.25,50.36,78.36,50.41Zm.16,9,0,0v0h0Zm0,1.68a.32.32,0,0,0,0,.19h0A.48.48,0,0,1,78.53,61.1Zm-.36-8.87h0l-.07,0,.07-.07h0v0l0,0Zm0,8.2a.83.83,0,0,0,0,.22.47.47,0,0,1-.13.11,1.31,1.31,0,0,0,0-.39A.94.94,0,0,0,78.17,60.43ZM78,63h0Zm0,0s0,0,0,0l0,0Zm.07-24.7a.18.18,0,0,0-.08.25h0a.7.7,0,0,0-.13.16,1,1,0,0,1,0-.38Zm-2.2-34.5L76,3.72a.57.57,0,0,0,.39.08.91.91,0,0,0-.1-.43c.06-.1.1-.2.16-.3L76.49,3A2.52,2.52,0,0,1,76.43,4l-.07,0c-.35-.13-.58.06-.78.3,0-.14,0-.28-.21-.29,0,0,0-.11,0-.11A.84.84,0,0,0,75.86,3.78ZM75.5,5.72v0h0Zm0,34c0-.06-.1-.08-.2,0h0l.08-.05c.05-.08.09-.16.13-.24A2,2,0,0,1,75.52,39.73Zm-.22-34a.19.19,0,0,0,.12.07.38.38,0,0,0,0,.33.86.86,0,0,0-.39,0s0,0-.06.07h0C75,6,75.17,5.87,75.3,5.73ZM75,31.2h0v-.08S75,31.17,75,31.2Zm-.1,10.33a.36.36,0,0,0-.25,0,.45.45,0,0,0-.06-.12A.37.37,0,0,1,74.93,41.53Zm-.1,3a1,1,0,0,1-.08.11.45.45,0,0,0,0-.11Zm-1-8.71h0l0,0s0,0,0,0Zm-.22-14.65h0l-.12-.05Zm-.35,22.45.07-.06h0l-.06.1,0-.06ZM73,4.08h0Zm-.16.06s0,0,0,0H73V4.2a.85.85,0,0,1,0,.16.3.3,0,0,1-.18.22A.61.61,0,0,0,72.87,4.14ZM72.8,48.46h0Zm0,0h0ZM72.62,9l.14,0h0c-.22.09-.49,0-.7.17v0h0C72.18,9.06,72.35,8.9,72.62,9Zm-.89,33.18ZM71.48,6.37s0-.1,0-.15a.74.74,0,0,1-.12.31V6.46ZM70.66,43.9l.25-.16c.12.37.22.75.77.59a.8.8,0,0,0,.43-.92s0-.07.07-.11h0c0,.16.16.22.3.26a1.17,1.17,0,0,1,.05.2l.24.53s-.06,0-.08,0a.92.92,0,0,0-.16.31s0,.05,0,.07a.47.47,0,0,1-.33,0c-.15-.05-.21.08-.27.19a.47.47,0,0,0-.09.28.7.7,0,0,0-.37.14c.26-1.15-.47-.88-1.15-.68,0,0,0,0,0,0C70.19,44.25,70.24,44.2,70.66,43.9Zm2.1,11.67h0v0l0,0Zm0,2.5h0ZM72.5,70.13h0l0,0h0Zm0-13.92h0Zm-2.26-9.32,0,0v.07l0,0ZM69.93,5a.42.42,0,0,0,0,.12c-.06.17-.19.19-.33.2a.32.32,0,0,0-.09-.42C69.66,4.81,69.8,4.91,69.93,5Zm-.46,2.31,0,0-.08,0S69.45,7.36,69.47,7.34ZM67.93,6.21c0-.44-.07-.88-.1-1.32l0-.8a.83.83,0,0,0,.26-.61,1.22,1.22,0,0,1,.23-.59.88.88,0,0,0,.28,0l.07,0,.53.41a.66.66,0,0,0,0,.24h0a1.25,1.25,0,0,0-.54.55h0a.29.29,0,0,0-.22.29v.3l-.28.18.27.1a1.49,1.49,0,0,0,0,.21c0,.23.21.4.29.6-.19.55-.2.56-.81.47a.38.38,0,0,0-.15.13h0Zm1.3,37,0,0v0ZM69,15.51l-.08,0-.12-.14A1.24,1.24,0,0,1,69,15.51Zm-.15-8a.82.82,0,0,1,.07-.29h0A2,2,0,0,0,68.84,7.49Zm-.09,4h0v0Zm-.89,14.73h0v0h0Zm-.14,1.94a3.61,3.61,0,0,0,.36-.51.14.14,0,0,0,0,.06c-.18.19.71.43,0,.59-.1,0-.16.12-.25.14l-.07,0,0,0,0,0a0,0,0,0,0,0,0l0-.09Zm-.16,16.94v0l0,0v.05l0,0h0Zm-.24-6.82h0v0Zm-.56,5.48h0ZM66,29.44a.56.56,0,0,0-.2.27.74.74,0,0,1,0-.26v-.06A.43.43,0,0,0,66,29.44ZM65.38,7.9h0Zm-.1,20.62h0Zm-1.36,1.82.13.14-.2-.08Zm-.18-18h0Zm.24,19,.07,0a1.05,1.05,0,0,0-.1.57c-.11-.14-.25-.28-.36-.43a1.66,1.66,0,0,0-.19-.18A1.28,1.28,0,0,0,64,31.3ZM63,47.08a.61.61,0,0,0,.34-.49s0,0,0,0h.16a.71.71,0,0,0,.07.09,1.46,1.46,0,0,0,.33.37l.16.08h-.8l-.22,0Zm0,1.56h-.17l.06,0ZM63,6.82a.22.22,0,0,1,0-.13.24.24,0,0,0,0,.14Zm.22,29,0,0v0h0Zm0,3.27h0Zm.29,3.07h0Zm0-39s0,.07,0,.1l-.29.26a.76.76,0,0,0-.21,0l-.06,0A1.48,1.48,0,0,1,63.48,3.15ZM61.36,5.44a3.25,3.25,0,0,0,.37-1.14,1.34,1.34,0,0,0,0-.28.37.37,0,0,0,.13-.17H62A.28.28,0,0,0,62,4a.9.9,0,0,0,.27.42c.26.08.18.21,0,.34a.54.54,0,0,0,.09.32l.06,0a.49.49,0,0,0,.23.34c.15,0,.32,0,.41-.14h.08A.49.49,0,0,0,63.35,5a.57.57,0,0,0,0-.13h.08l0,0,0,.06c.09.66.07.67-.47.77-.29.52-.78.25-1.19.3L61.56,6a3.88,3.88,0,0,0-.26-.31.28.28,0,0,0-.06-.2Zm1.23,29.81s0,0,0,0h0Zm-1.31-3.77a0,0,0,0,1,0,0v0ZM60.78,8a.24.24,0,0,0,.27.09l.11,0h0a.28.28,0,0,0,0,.13s0,0,0,.06a1.15,1.15,0,0,0-.58-.07A.59.59,0,0,0,60.78,8Zm-.53,24.71.1,0a.51.51,0,0,0,.57,0,.42.42,0,0,0,.1-.17,2.26,2.26,0,0,0,.52,0,.53.53,0,0,0-.07.35l0,0-.18.07a1.11,1.11,0,0,0-.07-.16.16.16,0,0,0-.22,0c-.32.05-.55.16-.61.53,0,.15-.18.27-.27.4h0l-.48-.1c0-.12,0-.24,0-.37l.12,0a2.26,2.26,0,0,0,.42-.26A.42.42,0,0,0,60.25,32.68ZM59.9,35v0Zm-.09-19.67h0l-.09,0ZM59.64,12h0l0,0,0,.06,0,0h0Zm-.27-2.74h0l-.09-.11A.87.87,0,0,0,59.37,9.27ZM59,50.85c.45-.33,1.11.1,1.51-.43a.51.51,0,0,0,.06-.3l-.13-.23.07-.08.11,0a.73.73,0,0,0,.54.11.38.38,0,0,0,.16-.14s0,0,0,0l0,.05a.78.78,0,0,0,0,.22h.54a.56.56,0,0,1,.09-.17l-.07-.08h0l.1.1.15-.08.49-.08a.75.75,0,0,0,.33-.25h0c.14-.11.33-.07.48-.13a.52.52,0,0,0,.19-.17h0l.06.06a.65.65,0,0,0-.3.68.85.85,0,0,0,.07.39.2.2,0,0,0,.31-.08,1.33,1.33,0,0,0,.3-.84.22.22,0,0,0,.27-.18l.2-.07c.16-.33,0-.75.35-1a1,1,0,0,0,.89-.57l-.1-.11h0v-.05l.07,0a.25.25,0,0,1,0-.07l.15,0a.93.93,0,0,1,.64-.93h0a1.1,1.1,0,0,1,.5.38h.13l.12.06a.19.19,0,0,0,.28,0l.46-.31a.69.69,0,0,0,.1-.79h0l.3-.2c.25.11.48.31.78.2v.12l.3-.15h0a.5.5,0,0,1,.23.09h0a1.31,1.31,0,0,0,.09.34l0,0s-.08,0-.11.12v0s0,0-.08.08a.11.11,0,0,0,0,.08.43.43,0,0,0-.21.11h0c-.14.15-.38.09-.52.25l0-.07a.62.62,0,0,0-.33-.07.68.68,0,0,0-.58.55c-.06.13.25.22,0,.36l-.07.15v.1a.49.49,0,0,0-.15-.1.78.78,0,0,0-.52.06c-.21.17-.33.43-.54.59l0,0c.06-.16,0-.23-.2-.28l-.14.09a.88.88,0,0,0,0,.16l0,.06h0a.18.18,0,0,0-.23,0,.28.28,0,0,0-.08.21l0,0h0a.65.65,0,0,0-.31,0l-.16.1h0a.43.43,0,0,0-.09.1.47.47,0,0,0,0,.31c-.58-.34-.62.1-.68.52a.65.65,0,0,0,.2.44c-.7,0-1.17.31-.81,1.29a2.28,2.28,0,0,1,.15.44,2.12,2.12,0,0,1-.44,0h0l.07,0s0,0,.06-.11a.19.19,0,0,0-.08-.2.54.54,0,0,0-.78-.19,1.15,1.15,0,0,1-.59.19h0a.33.33,0,0,0-.07.23.13.13,0,0,0-.17.08h0a.11.11,0,0,0-.09.11c-.07,0-.13-.06-.19-.07a1.5,1.5,0,0,0-.37,0,.65.65,0,0,0-.2.17c-.14-.39.14-.7.2-1.06l-.48-.06-.53.31-.1.08,0,.13,0,.13a.48.48,0,0,1-.1.23l-.19.15a.68.68,0,0,0-.4,0V52h0a.45.45,0,0,0-.28-.18l-.12,0s0-.11,0-.11.09-.09.09-.09a1,1,0,0,0,.13-.25V51.3l-.06-.15a.27.27,0,0,0-.3,0l-.29,0h0l-.17-.34Zm10,.06h0v0Zm-3.48-.84h-.06a.18.18,0,0,0,0-.07A.22.22,0,0,1,65.47,50.07Zm-2.82,7.82h0v0A.08.08,0,0,0,62.65,57.89ZM61.5,52.25a.42.42,0,0,0-.13-.07.28.28,0,0,1,.18-.14.18.18,0,0,0,0,.07A.33.33,0,0,0,61.5,52.25Zm-.89.42a.67.67,0,0,0,0,.2l-.12.11a.21.21,0,0,0,0-.14h0Zm-.82,1.27,0,.09-.09-.11Zm-1-13.39h0Zm-.3-5.77v0h0ZM58.25,5.44v0l0,0Zm-1.1,41.85a.08.08,0,0,1,0,.08h0A.19.19,0,0,0,57.15,47.29Zm-.25.62h0l0,0h0Zm-.18,4.6h0a1.19,1.19,0,0,0,.33,0,1.13,1.13,0,0,1,.41,0,1.26,1.26,0,0,1-.2.2.59.59,0,0,1-.41,0l-.22-.08ZM56,35.11v0l0,0Zm-.19,18.66a.79.79,0,0,0,.31-.52.49.49,0,0,0,.24.29c.27.06.57-.09.81.13a1.08,1.08,0,0,1,1.28.22l0,.09c0,.39.31.6.5.87l0,.07a.48.48,0,0,0-.22-.07.65.65,0,0,0-.31,0h0c-.07-.88-.37-1.34-1.29-.75a.43.43,0,0,0-.1.31c0,.13.14.23.19.36a.2.2,0,0,1-.11.18A1.06,1.06,0,0,1,57,55l-.27,0-.26-.09a1.63,1.63,0,0,0-.3-.07.79.79,0,0,0-.45.13.82.82,0,0,0-.3.41v0c-.25.09-.36.25-.16.58,0,.1.06.29.2.23s.06-.08.08-.17l.28.49a.44.44,0,0,0-.22,0,1.09,1.09,0,0,0-.17.13L55,56.65a.75.75,0,0,0,.05-.26,3.42,3.42,0,0,0-.24-1,.61.61,0,0,0-.29-.26,1.2,1.2,0,0,0,.27-.28,3.54,3.54,0,0,1,.5-.64A6.54,6.54,0,0,1,55.85,53.77ZM58,61.91h0v0a.14.14,0,0,1,.06.07l.15.06a.2.2,0,0,1-.11.11.3.3,0,0,0,0-.13s0-.05-.07-.07h0Zm-3-5.16Zm-.43-16.29h.09l-.07,0h0Zm.18-.88h0l.15,0Zm.52,11.63Zm0-5h0l-.08.05,0,0ZM54.16,5.72h0Zm-.35,1.44a1,1,0,0,0-.18.22,1.68,1.68,0,0,0-.29-.24C53.5,7.14,53.66,7.17,53.81,7.16Zm-.5,4.3v0h0Zm0,15.35h0ZM53,9.23a.24.24,0,0,0,.13.07h-.07Zm-.24-1,0,0a.74.74,0,0,0,.28.14.18.18,0,0,0-.09,0,.66.66,0,0,0,0,.74L52.75,9C52.75,8.74,52.75,8.5,52.76,8.27Zm-.15,12.91a.71.71,0,0,1-.28-.08h0Zm-.92-2h0Zm.65,18.67a5,5,0,0,0,.77,0,1.44,1.44,0,0,0,.36-.15.35.35,0,0,0,.08-.5l0,0a1,1,0,0,0,.79-.25,3.22,3.22,0,0,0,1-.81c0,.39-.67.44-.65.87a.24.24,0,0,1,0,.08l-.15,0c0,.16,0,.32,0,.48-.28.18-.56,0-.84,0a1.23,1.23,0,0,1-.25,1.11v0h0a.45.45,0,0,0-.49.44c0,.21-.05.42-.07.62l-.3.27h0a.93.93,0,0,1-.47-.73c0-.29-.28-.27-.5-.22A1.79,1.79,0,0,1,52.34,37.82Zm1.82,12.54,0,0v0Zm-.56,6.07ZM53,40.81l-.06,0,.06,0Zm-3.29-2.1a.48.48,0,0,0,.13-.3s0,0,0,0a.17.17,0,0,0,.1,0,0,0,0,0,0,0,0c.13.16.31.27.43.44a.65.65,0,0,1,.05.27,2.89,2.89,0,0,0,0,.29.74.74,0,0,0,.08.29.35.35,0,0,0,.28.13l.16,0s0,0,0,0a.06.06,0,0,0,0,0,.82.82,0,0,0,0,.35,1.06,1.06,0,0,0,.06.19.49.49,0,0,0-.18.48l-.47,0-.31,0a.65.65,0,0,1-.78.2h0l-.33-1.3h0v0A1.31,1.31,0,0,0,49.75,38.71ZM50,51.84h0ZM49,37.53h0Zm0-10.67,0,0h0ZM47.18,41.41h0l-.06.06a.36.36,0,0,0,0-.09ZM46.76,12.6h0v0Zm0,17.22v0h0ZM46.48,18.6l0,0a.3.3,0,0,1-.1-.09Zm-.27-3.83h0v0l0,0Zm0,33.41v0h0ZM45.73,8.44l0,0v0Zm-.38,52.24,0,0,0,0ZM45,8.23a2.06,2.06,0,0,1-.17.33.38.38,0,0,0-.15,0A1.39,1.39,0,0,0,45,8.23ZM44.82,50a.22.22,0,0,1,0,.08l0,0Zm-.19-27.54h0l.07.07-.07-.06Zm-1.5,12.88,0,0v0ZM43,53.43Zm0,0h0Zm-.27-.29h0a.35.35,0,0,0,0-.08l0,0s0,0,0-.07A.7.7,0,0,0,42.68,53.13Zm-.76.53a.12.12,0,0,1-.11-.09Zm-.64,8.25Zm0,0h0ZM42,109.51l0,0,0,0Zm.13-5.1h0l0,0,0,0S42.17,104.38,42.16,104.41Zm.35,1.86,0-.06a.22.22,0,0,1,0-.22l.21-.15a1.18,1.18,0,0,0,.31-.32s0,0,0,0a.17.17,0,0,0,.12,0,.25.25,0,0,0,.13.09h0a.58.58,0,0,0,.32.16.51.51,0,0,0,0,.17.5.5,0,0,0,.15.14l-.38,0Zm.14-13.69h0s0,0,0,0Zm0,0s0,0,0,0Zm1.12,13.65s0,0,0,0v0Zm0-.19h0Zm-.74.52h.08a.21.21,0,0,1,0,.06Zm.2,1.31-.11-.1a.45.45,0,0,0,0-.11s0,0,0,0,.27.19.41.28Zm.42-1.51c0,.07,0,.1-.07.11h0l0,0h0a.35.35,0,0,0,0-.06.18.18,0,0,0-.09-.15v0h.29A.39.39,0,0,0,43.65,106.37Zm.14,1.69,0,0h0l.06,0Zm0-37.95a2.46,2.46,0,0,0-.07-.29,1.73,1.73,0,0,0,.42.15Zm.75,35.78,0,0a0,0,0,0,1,0,0Zm.35,8.07h0l0,0Zm0-14Zm0,14h0Zm.88,2.12a1.18,1.18,0,0,0-.29.16,1.5,1.5,0,0,1-.5.26l.25-.16a3,3,0,0,1,.51-.36l.15.11Zm.33.13,0,0s0,0,0,0l.1,0h0Zm.16-2.21-.31.07a1.35,1.35,0,0,1-.77,0h0v0h.05a1.12,1.12,0,0,0,.28-.16,2.48,2.48,0,0,0,.26-.19h0a.42.42,0,0,1,.5.29S46.21,114,46.21,114Zm-.82-43.6h0Zm.25,3.27h0v0Zm.29,9.06ZM46.08,113l.07.09s0,0-.07,0Zm.83-38.14h0a.61.61,0,0,0,.12-.16s0,0,0,0Zm.51-12.36,0,0a1,1,0,0,0-.77,0,.45.45,0,0,0-.23.26v0l-.15,0a.23.23,0,0,0-.1.07.46.46,0,0,0-.18-.13,1.12,1.12,0,0,0-.36,0,1,1,0,0,0-.51.16.62.62,0,0,0-.17.47.63.63,0,0,1,0,.27c-.05-.07-.07-.17-.16-.21a.83.83,0,0,0-.35,0,1.33,1.33,0,0,0-.46.27s-.06.11-.1.16a.41.41,0,0,0-.05-.09.71.71,0,0,0-.33-.14.82.82,0,0,0-.3.1l.06-.15a1.34,1.34,0,0,0-.11-.14.42.42,0,0,0-.5.07l0,.29a.61.61,0,0,0,.65.21h0c.27.13.23.4.26.64a.48.48,0,0,0-.07.24.68.68,0,0,0-.28.45,0,0,0,0,0,0,0c-.54-.21-1.38.24-1.58-.73a.74.74,0,0,1-.15-.52.7.7,0,0,0,.69-.27c.27-.2.42-.41.16-.63l.25,0a1.27,1.27,0,0,0,.34-.05L43,63.1a3.68,3.68,0,0,0,.44-.23l.2-.17h.08s0,0,.07-.09,0,0,0,0a0,0,0,0,1,0,0,1.41,1.41,0,0,0,.32.17.1.1,0,0,0,0,0c0,.15.09.18.21.2v-.21a.54.54,0,0,0,.27-.07h0a1,1,0,0,0,.23-.36.26.26,0,0,1,0-.19.69.69,0,0,0-.21-.31l0,0a.1.1,0,0,0,0-.09l.16,0,.15-.07a1,1,0,0,0,.22-.23,1.49,1.49,0,0,0,.07-.25l.16-.1a.29.29,0,0,0,.05-.24,1,1,0,0,0,.25.2l.5,0c.23-.24.56-.07.82-.19l0-.08c.08.09.15.08.24,0l.29-.23.24-.33c.21-.12.14-.27.06-.44a6.32,6.32,0,0,1-.25-.6c.25-.09.57,0,.73-.33l0,0c.09-.1.24-.18.25-.29.07-.44.21-.78.72-.83.07,0,.12-.12.18-.18h0l1.2-.55.13,0c.17-.19.54-.06.63-.38a.68.68,0,0,0-.09-.17l0,0h0a.52.52,0,0,1,.11.1.71.71,0,0,0,.31-.1c.26-.2.55-.36.81-.58l.24-.19c.1,0,.16.08.12.23-.16.61.19.57.57.55h0l.06.22c0,.38,0,.75,0,1.13l0,0c-.34.06-.53-.26-.82-.3a.13.13,0,0,1,0-.06v0h0s0-.07,0-.12a.56.56,0,0,0-.61-.27.73.73,0,0,0-.53.46l-.27.55c-.1.17-.21.34-.32.51h0a.37.37,0,0,0-.23.31,2.06,2.06,0,0,1-.35.37c-.32.21-.29.46-.15.75a.66.66,0,0,1,.44-.11.48.48,0,0,0-.18.07.71.71,0,0,1-.26,0,.23.23,0,0,0,0,.24c-.1.28-.2.56-.29.84h0c-.39,0-.81-.14-1.12.24-.35,0-.35.39-.54.57s-.56.07-.61.44l0,.05-.09,0a.2.2,0,0,0-.14.06ZM52,58.72l-.06.05a.39.39,0,0,0,0,.14,2.16,2.16,0,0,0-.31-.29c.08,0,.12-.07.12-.17h0a.73.73,0,0,0,.25,0C52,58.57,52,58.64,52,58.72Zm-1.11,4.54h0Zm0,0v0h0Zm-.76,3.08,0,0h0ZM47.87,87.16a.14.14,0,0,0,0-.06h0l.08,0Zm1.29,20.75c0-.14.14-.16.25-.15h.08a.55.55,0,0,0,0,.38l-.09,0C49.28,108.09,49.15,108,49.16,107.91Zm.05-33.14h0Zm.17,34.55.1,0h.13s.26-.29.21.07a3.91,3.91,0,0,0-.44.26l0-.07A.47.47,0,0,0,49.38,109.32Zm.8,6h0c-.23-.14-.51-.15-.74-.29a.66.66,0,0,1-.08-.41.56.56,0,0,0,0-.12h0a.24.24,0,0,0,.18-.25h0a.64.64,0,0,0,.28,0,.92.92,0,0,0,.29-.23l.08-.16a1.15,1.15,0,0,0,0-.37s0-.09,0-.13c.15-.11.22.33.35.37l-.14.15a.55.55,0,0,0,.17.59.85.85,0,0,0,0,.23Zm.71,1.11c0-.1,0-.2-.08-.31a.48.48,0,0,0,.39-.19C51.12,116.14,51,116.3,50.89,116.47Zm.16-35.88-.13,0,.1,0c-.09-.15.18,0,.21,0Zm.18,31.76h0Zm.18-14.84h0l0-.09v.09h0Zm.82,16.76a.84.84,0,0,0,0-.17l.22.08A.91.91,0,0,0,52.23,114.27Zm.82-29.09v0h0Zm.48,20.55v0h0Zm.61-20.3.11.24C54.07,85.61,54,85.56,54.14,85.43ZM54.39,108v0h0Zm0-20.58,0,0v0ZM55,105.46s0,0,0,0l0,0Zm0,0h0Zm.5-.74s0,0,0-.06h0S55.48,104.69,55.48,104.71Zm.35,11.67-.06.12-.13,0a1.64,1.64,0,0,0-.25-.19h0a4.22,4.22,0,0,0,.77-.22.55.55,0,0,0,0,.25h0A.35.35,0,0,0,55.83,116.38Zm0-1.42c.16-.13.3-.27.45-.41l0,0h0l0,.07.07.16.13,0h.05a1.06,1.06,0,0,0,.17.2A3.46,3.46,0,0,1,55.85,115Zm1-11.51h-.11v0a.56.56,0,0,0-.18-.27.82.82,0,0,1-.31-.59v0l.3.14.12,0a.4.4,0,0,0,.13-.13h0l.28.15s0,0,0,0C57.08,103,56.88,103.2,56.88,103.45Zm.56-4.83,0,0h0s0,0,0,0ZM58,74.82l0,0,0,0Zm0,0,.08,0v0ZM58,84.37h0l.16,0Zm.76,16.78h0Zm1.11,7.07s0,0,0,0h0Zm.75,5.7a.33.33,0,0,1-.21.13c0-.22,0-.43,0-.65h0a.44.44,0,0,0,.15-.08A1.26,1.26,0,0,1,60.64,113.92Zm0-28.61a.2.2,0,0,0,0-.08v.14Zm.11,15.78h0Zm.19-26.93H61v.07A.5.5,0,0,1,60.93,74.16Zm.07.1v0s0,0,0,0h0A.06.06,0,0,1,61,74.26ZM61,74h0a0,0,0,0,0,0,0l0,.06Zm.21,43.34,0,0c.07,0,.15,0,.15.1A.21.21,0,0,1,61.22,117.29Zm1.62-11.7c-.78.57-1.21.4-1.34-.51,0-.32.22-.5.32-.74h0l0,0h0a1.51,1.51,0,0,0,.36.18c.46.05.78.22.83.73,0,0,.07.09.14.13a.38.38,0,0,0,0,.1C63.11,105.82,62.93,105.49,62.84,105.59ZM61.57,80.82Zm.52-3.33h0ZM62.48,70l.11,0h-.1A0,0,0,0,1,62.48,70ZM64,64.07h0Zm0,0Zm0,20.57h0ZM64.2,76h0Zm.8,40.57a1.75,1.75,0,0,0-.12.32v0a.31.31,0,0,0-.36.23l-.12.07-.08,0a1.44,1.44,0,0,0,0-1.28l.23-.27c.34,0,.58.05.54.48,0,.09,0,.19,0,.29ZM64.35,67v0h0Zm.39,2.75h0s0,0,0,0l0,0ZM65.38,82a1.49,1.49,0,0,1,0-.3h0A1,1,0,0,1,65.38,82Zm0-4.75s0,0,0,0l0,0Zm.66,41.28-.14.08a.62.62,0,0,0,.15-.2l0,.11Zm.71-2.32s0,0,0,0v-.09c-.2-.33-.15-.71-.29-1.05l0,0h0c.4.3.24.74.32,1.13Zm-.54-8.91-.16.12a3.86,3.86,0,0,1,.16-.48.73.73,0,0,0,.06-.3,1.32,1.32,0,0,1,0-.56.82.82,0,0,1,.16-.22c.15-.11.34-.17.49-.29s0,0,0,0a.64.64,0,0,0,0,.07A1.29,1.29,0,0,1,66.25,107.28Zm1.44,3.22a.38.38,0,0,0,0-.15.59.59,0,0,1,.08-.32c0,.18,0,.36,0,.54Zm.42-1.74v0s0,0,0,0Zm.26-2.41-.16.07a1.07,1.07,0,0,0,.39-1.06,1.4,1.4,0,0,0-.09-.17h.4a2.05,2.05,0,0,1,.06.92h0l0,.11a.88.88,0,0,0-.4.11Zm0-29.44,0,0s-.07-.11-.08-.1l.09-.07a0,0,0,0,1,0,0A.13.13,0,0,0,68.35,76.91Zm.38,12.42s0,0-.06,0v0l0,0h0s0,0,0,0h0Zm0,22.84s-.05.07-.05,0ZM68.6,112l0,0h0S68.6,112,68.6,112Zm-.06,2.82h.32a.45.45,0,0,0,.13.36,3.58,3.58,0,0,1,.26.29C69,115.23,68.78,115,68.54,114.8Zm.68-37.57Zm.54-3h0l-.28.36h0l-.53.19A.83.83,0,0,0,69,75c-.29.35-.83.33-1.06.75l-.31.33.18,0a.77.77,0,0,0-.15.33l-.06.22a.71.71,0,0,0-.44.17c-.37-.47-.94-.49-1.47-.61l0-.08a.3.3,0,0,0,.23.07.84.84,0,0,0,.5-.32.1.1,0,0,0,0,0c.6.25,1,0,1.19-.56v0a.5.5,0,0,0,.21,0,.56.56,0,0,0,.28-.56l0-.09.12,0,.12-.11.07-.07c.25-.05.31-.11.3-.29s.17-.16.25-.25a.71.71,0,0,0,0-.79.33.33,0,0,0,.39,0,.69.69,0,0,0,.3.14h.11a1.54,1.54,0,0,1,.19.17h0c0,.16,0,.33,0,.5h0ZM65.67,61.61l0,0,0,0ZM67,74.19Zm.82-5.44h0Zm.74-2.69a.55.55,0,0,1,.05-.17l0,.06h0A.26.26,0,0,0,68.57,66.06Zm.94,6.4v.05a.11.11,0,0,0-.08,0,.25.25,0,0,0,0,.09c-.2,0-.26-.09-.29-.23a1.26,1.26,0,0,0,.33,0S69.48,72.46,69.51,72.46Zm0-7.82v0h0Zm.12-6.77h.14a.19.19,0,0,1,0,.08ZM70,103.54h0l0,0h0Zm.08-32.48L70.07,71a.74.74,0,0,0,.17-.25.53.53,0,0,0,0,.22ZM69.76,56.2a.31.31,0,0,0-.25,0,1.38,1.38,0,0,0-.78,0l-.06.51a.69.69,0,0,0-.25,0c0,.06,0,.17.1.17s.16-.06.16-.17a.43.43,0,0,0,.41.14h0a1.8,1.8,0,0,0-.25.68.43.43,0,0,1,0,.05,1,1,0,0,0-1,.21.79.79,0,0,0-.11.29h-.13a.33.33,0,0,0,0,.22.27.27,0,0,0-.25.32c0,.19,0,.38,0,.57a.34.34,0,0,0-.06.12h0l-.17.08a4.89,4.89,0,0,1-.64.34c-.39.21-.78.43-.61,1l0,0h0l-.14.08,0,0,0,0a.83.83,0,0,0-.11.15.44.44,0,0,0-.5.24.56.56,0,0,0-.34,0l-.1.06H64a1,1,0,0,0-.56.47,1.28,1.28,0,0,0-.32-.24.89.89,0,0,0-.36-.07.62.62,0,0,0-.42.28.29.29,0,0,0,0,.31v0c-1.22-.4-1.29.54-1.48,1.33v.2a.65.65,0,0,0,0,.13c-.45-.22-.66,0-.76.43a2.16,2.16,0,0,0-.76.17l-.19.13a.81.81,0,0,0-.51.11c-.25.1-.28.26-.29.49s.15.27.3.31l-.06.17a.8.8,0,0,0,0,.31.24.24,0,0,0,.06.08.26.26,0,0,0-.26.28,1.08,1.08,0,0,0-.11.18,2,2,0,0,1-.28.57,2.17,2.17,0,0,1-.37.31l-.19.07H57.2l.06-.13a.39.39,0,0,0-.14-.25,1.67,1.67,0,0,0,.05-.18.74.74,0,0,0,.45-.38c.11-.23,0-.39-.21-.49a.25.25,0,0,1-.18.08c0,.26,0,.52-.08.78a1.75,1.75,0,0,1-.32,0,2.5,2.5,0,0,0-.38-.06H56.4a.29.29,0,0,0-.41,0h-.07c-.45.44-1.21.38-1.56,1a.84.84,0,0,0-.07.35l0,.21a.34.34,0,0,0,0,.17c-.08-.16,0-.34-.11-.49s-.06-.06-.09-.09c-.43.23-.28.61-.15.91a.34.34,0,0,0,.38.19c0,.33-.18.66,0,1h0l0,0a.19.19,0,0,0-.19.17l-.06,0-.13-.05-.2.05a1.12,1.12,0,0,0-1.6-.52A3,3,0,0,0,50.76,71a3.09,3.09,0,0,0-.14.32.44.44,0,0,0-.3.52.44.44,0,0,1-.28.5.78.78,0,0,0-.1-.15c-.51,0-.19-.84-.84-.73a4.21,4.21,0,0,0-1.41.23c0-.05,0-.1,0-.15a2,2,0,0,1,1-1.65c.33-.25.78-.41.85-.88.42.33.63,0,.88-.3l.14-.2c1.49.36,1.61.25,1.66-1.4l.26-.31c.31-.17.4-.51.58-.78.52-.19.69-.7,1-1.06,0,.18.09.35.13.52s-.13.5.12.59a6.81,6.81,0,0,0,1.11.22,2,2,0,0,1,.05-.26h0c-.15-.15-.12-.37-.2-.54-.2-.35-.42,0-.63,0V64.35c0-.31.11-.54.48-.48l-.12.12c0,.4-.2.87.47.91a1,1,0,0,1,.79-.59,1.39,1.39,0,0,1,.84-.58c.37-.14.35-.44.25-.75.24.08.46.27.73,0a1.61,1.61,0,0,0,.69-1.08c.31-.12.75,0,.84-.53l.29-.56c.28-.41,1.16.24,1.17-.66L61.06,60a.31.31,0,0,0,.15-.1h0a1.09,1.09,0,0,1,.08.15c.18,0,.36-.06.46.12a.46.46,0,0,0,.65.21.75.75,0,0,0,.57-.89l-.11-.07.24-.23a.24.24,0,0,0,.11-.08l.28,0,.16,0,.32-.1c.21-.07.41-.16.63-.22l0-.05h0a.24.24,0,0,0,.26-.29h-.14a3.34,3.34,0,0,0,.73-.57.47.47,0,0,0,0-.33L65.15,57c0-.08-.09-.15-.14-.23h.21c.42.06.85.25,1.27,0,0,0,0,.08,0,.11a.45.45,0,0,0,.38-.24.41.41,0,0,0,.37.43.9.9,0,0,0,.46-.27c.2-.23.48-.37.63-.65l.25-.54a.32.32,0,0,0,0-.25.56.56,0,0,1,.15-.62A.42.42,0,0,0,69,55l.1,0h.3a.39.39,0,0,0,.17.14h0a.42.42,0,0,0,.18.17.57.57,0,0,0,.31.23,1,1,0,0,0,.33.19c.68,0,.54-.5.58-.89a1,1,0,0,0,.42,0l.29-.09a.55.55,0,0,0,.22-.18.59.59,0,0,0,.17.1c-.43.25-.43.66-.34,1.09a1.3,1.3,0,0,0,.08.17.3.3,0,0,0-.15.26.66.66,0,0,0-.55.27h-.25A1.37,1.37,0,0,0,69.76,56.2Zm1.65,11.45h0Zm-.28,3.56Zm-.31,4s0,0,0,0l0,0c.08-.16.12-.35.2-.52a.43.43,0,0,0,0-.07l.06,0A.61.61,0,0,0,71,75s0,0,0,0S70.84,75.06,70.82,75.16ZM71,112.69c-.05,0-.1,0-.14,0H71l.07,0ZM71,100.41h0c.06,0,.11-.11.17-.17S71,100.36,71,100.41Zm0-19.45v-.08a.61.61,0,0,1,0-.18l0-.09a.21.21,0,0,0,0-.06h0a.58.58,0,0,0,.1.12A3.47,3.47,0,0,1,70.92,81Zm.76,9.73v0l0,0Zm0,0h0Zm.66,16.23a.43.43,0,0,0-.33-.15c0-.09,0-.18,0-.27a.8.8,0,0,0,.13-.19s0-.06,0-.09a.47.47,0,0,0,.15-.42h.07a.38.38,0,0,1,0,.15c0,.09,0,.19,0,.29a2,2,0,0,1,0,.64Zm-.16-29.6,0,0v0Zm0,7.08v0Zm0,21.4,0,0,0,0ZM72.29,80h0v0Zm.19,32.67h0ZM71.73,74.1c0,.05-.17,0-.25,0a.24.24,0,0,0-.07-.18.44.44,0,0,0-.44-.24c-.37,0-.42-.26-.37-.56a1,1,0,0,0,.59-1c0-.06.08-.1.11-.16.16-.24.44-.39.46-.71l0,0a.28.28,0,0,0,.27,0,.21.21,0,0,1,.11.24.22.22,0,0,0,.15.29.63.63,0,0,0,.26.63,1,1,0,0,0,.73-.21l.16-.14h0c.08,0,.2,0,.23.08a.18.18,0,0,1,0,.19,1,1,0,0,1-.41.16c-.16.08-.31.17-.22.39s0,.29-.11.33A5.39,5.39,0,0,0,71.73,74.1Zm2,39.56v0a.1.1,0,0,1,0-.1.1.1,0,0,0,0,.09S73.74,113.64,73.74,113.66Zm.12,1.38Zm.08-1.34s0,0,0,0h0A0,0,0,0,1,73.94,113.7Zm.19-31.79,0,0V82Zm0,0h0l0,0ZM73.09,79l-.08.07a.63.63,0,0,1-.2-.73h0l.23-.18a1.27,1.27,0,0,0,.33.16,2.64,2.64,0,0,0,1.45,0C74.29,78.67,73.62,78.68,73.09,79Zm.82-19.52,0,0h0l0,0h0Zm0,9.86,0,0v0a.75.75,0,0,0,.34.19H74Zm1,3.25h0Zm-.1-11.3v0c0-.22-.52-.16-.38-.42a.49.49,0,0,0,.37.16A.58.58,0,0,0,75,61,.36.36,0,0,1,74.87,61.29ZM75,58.74a.75.75,0,0,0-.14.17c0-.11,0-.22,0-.33a.71.71,0,0,1,.14.1s0,0,0,0Zm-.33-4.47c-.37.12-.7.36-1.14.11-.17-.09-.51.09-.77.15l0-.37a1,1,0,0,0,.21-.25,4.18,4.18,0,0,0,.53-1.13c0-.06,0-.11,0-.16l.09,0a.82.82,0,0,0,.12.2c.37.28.82.18,1.23.21L75,53l-.09.56c0,.13-.05.28.12.32s.14-.08.2-.13l.26-.27a1.18,1.18,0,0,0,.09.63.89.89,0,0,1-.1.37.25.25,0,0,0-.17,0A.54.54,0,0,0,74.7,54.27Zm.69,45.35a.41.41,0,0,0,0-.11h0v.1Zm.18-35.1a1.58,1.58,0,0,0-.18-.47.35.35,0,0,0,.33.06C75.66,64.24,75.64,64.39,75.57,64.52Zm.23,18.2h0l0,0Zm.61,27.81-.19-.07a1.81,1.81,0,0,0-.31-.09h0v0h0l.24-.46a.56.56,0,0,0,.51-.44C77.19,109.94,76.65,110.2,76.41,110.53Zm-.07-16.59h0l.07,0h-.07s0,0,0,0h0Zm0-30.39h0Zm.58-1.45a.2.2,0,0,0-.11,0,.25.25,0,0,1,.14,0Zm0,2.3.09,0h0Zm-.68-12.19h0l-.21-.2h-.72a3.21,3.21,0,0,0,.51-.46.56.56,0,0,0,.15.1,1.77,1.77,0,0,0,1,0,1,1,0,0,1,.07.34Zm.81,34.85,0,0v0ZM76.89,6.53a1.09,1.09,0,0,0-.26,0c-.09-.24-.2-.22-.32,0-.21-.09-.14-.32-.23-.47a.51.51,0,0,0,0-.21c.5-.2.5-.2.29-.64l-.11-.24h.31c.3.21.7.3.87.67l.13.1c-.06,0-.11,0-.14.13ZM78,83a.05.05,0,0,1,0,0v.1Zm.68,28.15.16-.05,0,0a.08.08,0,0,0,0,.07C79,111.38,78.76,111.16,78.7,111.18Zm.45-42s0,.11,0,.17a1.24,1.24,0,0,1-.33.59c-.1-.21-.29-.24-.52-.18a1,1,0,0,0-.31.43l0,.13a1.12,1.12,0,0,1-.31-.1l0,0a.48.48,0,0,0-.11-.09.7.7,0,0,0,.17-.24,1.21,1.21,0,0,0,0-.19l.32-.37c0-.2,0-.41,0-.62a.55.55,0,0,1,.06-.26.36.36,0,0,0,.09.08c.28.37.53.81,1.06.63A.25.25,0,0,1,79.15,69.16Zm.15-31.38v0l0,0Zm.09-34.27c.12.19.19.08.26,0h0l0,0C79.58,3.61,79.48,3.69,79.39,3.51ZM80,84.3h0ZM80.89,12s-.06,0-.12.07l0-.05A.78.78,0,0,1,80.89,12Zm-.17,4.69h-.06C80.65,16.64,80.69,16.66,80.72,16.7Zm-.17,33.94a1.79,1.79,0,0,1,.76.2h0a1.5,1.5,0,0,0,0,.22.63.63,0,0,0-.58,0l0,0-.24-.42ZM81,14.45l0,0h0S81,14.46,81,14.45Zm.15,39.74-.09,0a.06.06,0,0,1,0,0Zm-.45,8.53h0v0Zm0,21.89a.15.15,0,0,1,0,.06s0,0,0-.08Zm-.07-6.54s0,0,0-.06,0,0,0,.06Zm0,23.48,0-.1v.13Zm.07.07h0v0l0-.06Zm.28,9.89h0l0-.07s0,0,0,0l0,0h0Zm.55-5.34a1.17,1.17,0,0,0-.44.29,0,0,0,0,0,0,0l-.38-.2v0h0a.62.62,0,0,1,.55-.54.84.84,0,0,1,.32.45Zm0-7.47.12.1,0,0A.4.4,0,0,1,81.59,98.7Zm.24,6.49Zm.54-46.59h0Zm0,1.64h0Zm.23,3.84h0v0Zm0-.53h0Zm.25-9.87-.08,0,.09,0A0,0,0,0,1,82.9,53.68Zm.27-47.12,0-.39-.54.06L82.42,6a.35.35,0,0,0-.32-.25h0c-.11-.26-.33-.47-.33-.77a.72.72,0,0,1-.47-.38.93.93,0,0,0-.3-.35c0-.07,0-.13,0-.19a4.59,4.59,0,0,0,0-1,.77.77,0,0,0,.15.16.63.63,0,0,0,.62.06.47.47,0,0,0-.06.21,1.48,1.48,0,0,0,.4.64l.12.14.25.27a1.76,1.76,0,0,0,1,.74h.07a.67.67,0,0,0-.29.35,1.61,1.61,0,0,0,.21,1.3C83.37,6.81,83.28,6.67,83.17,6.56Zm.39,100.63a.37.37,0,0,1-.1-.24h.1l0,.08a.39.39,0,0,0-.06.11S83.56,107.17,83.56,107.19Zm.19.46ZM84,90.34h0s0,0,0,0Zm.34,2.2,0,0S84.3,92.54,84.32,92.54Zm0,.08s0,0,0,0l0,0S84.33,92.61,84.33,92.62Zm.24-34.29h0Zm1.18-29.17,0,.06a.22.22,0,0,1-.1.23A1,1,0,0,0,85.75,29.16ZM85.67,58h0l.22,0a.38.38,0,0,1-.22.09V58Zm-.58,34.28h0l0,0v0Zm.49,21.44c-.11.13-.26.22-.35.35a.54.54,0,0,0-.31-.06.28.28,0,0,0,0-.15.64.64,0,0,0,.61-.2C85.43,113.58,85.73,113.7,85.58,113.76ZM85.39,95h0ZM86,107.15s0,0,0,0h0S86,107.14,86,107.15Zm-.39-47.6-.24-.2-.11-.12c0-.12.09-.24.14-.37l.28-.21a2.46,2.46,0,0,0,.52.55A1.54,1.54,0,0,0,85.56,59.55Zm1.2-20.13h0l-.16,0a.4.4,0,0,1,.2,0Zm.09-17.22.06-.1A.12.12,0,0,1,86.85,22.2ZM87,23.54h0Zm.28,83.31v0h0Zm0-96.73-.28,0a.31.31,0,0,0-.12,0h0a2.17,2.17,0,0,1,.53-.56.61.61,0,0,0,0,.56.18.18,0,0,0,0,.07A.55.55,0,0,0,87.32,10.12Zm.25,78.62s0,.07,0,.1a.16.16,0,0,1,0-.07Zm0,10.7v0h0Zm0,0Zm.27-21.38h0Zm0,.82h0Zm0,0h0Zm.26-28.81v0h0Zm0,8.29h0Zm0,51.53v0s0,0,0,0Zm.22-66.64-.18,0a.4.4,0,0,1,.18,0ZM89,64.07s0,0,0,0h0l0,0Zm0-12.9,0,0h0Zm0,18.47v0l0,0v0ZM89,68l-.1,0s0,0,0,0h-.15s0,0,.05-.08a.2.2,0,0,0,0-.15l.22.09-.1,0S89,68,89,68Zm.23-17.9h0Zm-.08-32.61.06-.06,0,0Zm.37,29.86h0ZM91.86,8.08h0a.6.6,0,0,1-.14-.21Zm-1,3.42Zm0,14.77h0l0,.05Zm-.77,48.5h0Zm0-23v0h0Zm-.25,3.31h0Zm0,49.84,0,0a.45.45,0,0,1,0-.11h0l0,0A.36.36,0,0,1,89.78,104.89Zm0-1.74a.35.35,0,0,1,0-.08.3.3,0,0,0,.23,0,1.85,1.85,0,0,0,0,.23A.36.36,0,0,0,89.81,103.15Zm.52,7.77,0,0,0-.06,0,0Zm.29-4.72a.48.48,0,0,0-.34-.53.27.27,0,0,0-.09,0c.34-.1.59.17.88.3A1.2,1.2,0,0,0,90.62,106.2Zm0-36.09h0v0S90.59,70.1,90.6,70.11Zm0-.24v0h0Zm0,31h0a.44.44,0,0,0-.07.09.29.29,0,0,1,0-.09h.09Zm.22-27.45,0,.06a.22.22,0,0,1-.07-.06Zm0-16.26h0l.11,0Zm.27,18.19,0,0h0ZM91.27,90v-.1h0A.37.37,0,0,1,91.27,90Zm.14-22.66h0l0,0v0Zm-.1-17.87c.07.15-.21.36-.47.37,0-.57-.06-.71-.35-.79.27-.28.73-.37.85-.8h.15C91.46,48.67,91.06,49,91.31,49.5Zm.42,7a.71.71,0,0,0-.19-.57.37.37,0,0,0,.19-.23v0C92.11,55.91,91.89,56.2,91.73,56.49Zm.18,49h0l0,0h0Zm0-38.71a2.35,2.35,0,0,0-.06-1,.08.08,0,0,1,0,0l.06,0a1.53,1.53,0,0,1,.29.9A1.27,1.27,0,0,0,91.94,66.78ZM92.31,64s0,0,0,0l0-.06,0,0Zm.2,47.49,0,0v0ZM93,66.55h0v0Zm0-10.15h0v0Zm0-9.85c-.09.13-.17.37-.26.37-.33,0-.25.27-.33.43l0,.15a1.21,1.21,0,0,0,.08.56.35.35,0,0,0,.08.13.42.42,0,0,0-.47.25h0l0,0a.32.32,0,0,0-.32.22l-.42-.42a.72.72,0,0,0,.56-.52c0-.19-.2-.24-.32-.34a1.11,1.11,0,0,0-.64-.56.86.86,0,0,0-.11-.28c-.06-.09-.16-.07-.23-.11a.31.31,0,0,1,.23,0,1.85,1.85,0,0,0,1.3-.24,1.24,1.24,0,0,1,.27-.17.9.9,0,0,1,.58.55Zm.48,26.84h0Zm0,30.7h0Zm0-6.69a.22.22,0,0,0-.14,0v-.09a.76.76,0,0,0-.18-.42l.15.07.31.14a.63.63,0,0,0,0,.36ZM94.7,59.73l0,0v0Zm.07.81s0,0,.07-.06,0-.06,0-.08a1.14,1.14,0,0,1,.19.19Zm.41,36.26-.09.1a.51.51,0,0,0,0-.17h0a.72.72,0,0,1,.48-.17A2.7,2.7,0,0,0,95.18,96.8Zm.35-4.2v0h0Zm0-83v0h0v0h0Zm-.37-.08a.38.38,0,0,0-.15,0h0c.13-.66-.25-1.5.66-1.91a.41.41,0,0,1,.17,0l0,.39A2,2,0,0,0,95.18,9.52Zm.6,99,0,0v0Zm.34,2.91a.2.2,0,0,0-.05.09v0h0a.55.55,0,0,0,0-.22h0l.09.16Zm.22-63.78-.09,0,.1,0A.13.13,0,0,1,96.34,47.65Zm0-34.43c-.25.32-.39-.27-.65-.36h0a.27.27,0,0,0,.21-.36C96.14,12.71,96.61,12.87,96.33,13.22Zm9.49,8.27s.06.07.08.11h-.08a1.15,1.15,0,0,1,0-.19A.22.22,0,0,0,105.82,21.49ZM105.67,26l0,0,0,0v0h0S105.67,26,105.67,26Zm-.51-7.86c-.25-.06-.26-.38-.34-.61A6,6,0,0,0,105.16,18.1Zm-1.66,6h0v0Zm-2,13.56,0,.08s0,0,0,0Zm0,.12h0v0Zm0-19.24h0s0,0,0,0h0v0c0,.05,0,0,0,0h0Zm-.82,5.25Zm-.43,2.3c.07.08.12.17.07.19l0,0c0-.07-.07-.14-.1-.2Zm-.39,10.32h0s0,0,0,0h0v0Zm-1.37-6.06v0h0ZM98,16.14h0s0,.06,0,.09A.27.27,0,0,1,98,16.14ZM97.54,47c.21-.54.59-.2.88-.16a1.54,1.54,0,0,0,1.57-.38.49.49,0,0,0-.24-.64c-.5-.23-1.19.18-1.56-.47a.88.88,0,0,0-.19-.24c.49,0,1,.2,1.14-.45a.63.63,0,0,0,.64.35,1.3,1.3,0,0,0,.9-.94c.27,0,.38-.27.53-.48.05.25.23.34.48.34a.5.5,0,0,0,.13,0,.57.57,0,0,0,.17.43c-.4.35-1,.59-.77,1.31l0,0h0c-.63,0-.63,0-.55.54a1.22,1.22,0,0,1,0,.27c0,.25-.19.37-.46.27a1.8,1.8,0,0,1-.35-.21c0,.27-.19.39-.38.52l-.43.31c-.55,0-1-.38-1.59-.31Zm4.26,3.63h0Zm-.76.83-.05-.05v0A.1.1,0,0,1,101,51.49Zm-.11-3.94-.05,0v0Zm-.2,4h0Zm0,4.34-.06,0a.1.1,0,0,1,0,0Zm-2.63-2.05a.89.89,0,0,0,.23,0l.08.06a.28.28,0,0,0-.14.29.69.69,0,0,0-.15-.07A.32.32,0,0,0,98.07,53.79Zm0-4.48v0l0,0Zm-.54-27.2,0,.06c0-.05,0-.09,0-.13ZM97.4,50.27h0Zm-.21-2.68ZM96.9,21.83l.11,0-.12,0Zm-.21,55.11c.1-.07.21-.15.34-.26a.22.22,0,0,1-.09.18A.38.38,0,0,1,96.69,76.94Zm.46,27.9a.09.09,0,0,0,0,.06h0a.41.41,0,0,1-.15-.4,1.06,1.06,0,0,0,.17.2h0a0,0,0,0,0,0,0,.13.13,0,0,0,0,.12ZM97.06,93.9a.1.1,0,0,1,0,0s0,0,0,.06Zm1.19,4.33-.14,0a1.4,1.4,0,0,0-.3.15.84.84,0,0,0-.23.23,3.61,3.61,0,0,0-.24.62.79.79,0,0,0,0,.13h-.17a.7.7,0,0,1,0-.29c0-.12,0-.23.05-.35a2.54,2.54,0,0,0,0-.39l.12-.08a2.07,2.07,0,0,0,.17-.24l.09-.11.06-.1h.12a1.14,1.14,0,0,0,0-.26h0v0h0a1.11,1.11,0,0,0,.68.34A.57.57,0,0,0,98.25,98.23Zm-.54-28.4h0v0s0,0,0,0h0Zm.14-5.8a.21.21,0,0,0,0-.06.86.86,0,0,0,.07.1ZM98,85.73h0Zm1.37,16.44h0Zm.21,2.27.09-.09h0Zm0-15.2.09-.07a.5.5,0,0,0,0,.12h0A.18.18,0,0,1,99.57,89.24ZM100.72,111h0Zm.1-1.5v-.11a2.15,2.15,0,0,1-.19-1.2c.25.36,0,.87.24,1.24Zm1-13.59h0l0,0s0,0,0,0Zm.24-18.19h0Zm-.19-13.12c-.14.08-.13.32,0,.47a1.28,1.28,0,0,1,.11.2.37.37,0,0,1-.21.15,2.22,2.22,0,0,0-.78.28.59.59,0,0,0-.12.48.42.42,0,0,0,.21.24,1.16,1.16,0,0,1,.4.2l.14.25a.86.86,0,0,0,.07.1.55.55,0,0,0-.2.2.21.21,0,0,0-.18.2A1.42,1.42,0,0,1,101,68h-.1a.29.29,0,0,0,0,.1l-.07,0h0l.12,0-.21-.34a.43.43,0,0,0-.53-.12.53.53,0,0,0-.13.13c-.21,0-.4-.07-.46-.36l.15-.47s0,0,0-.12,0-.13-.12-.18h0a.8.8,0,0,0-.22-.13.18.18,0,0,0,0-.2l.2-.25a.49.49,0,0,1,0-.12.66.66,0,0,0,.18-.19,1.92,1.92,0,0,0-.18-1.84.44.44,0,0,0-.45-.18h0a1,1,0,0,0,0-.45c.48-.08.71-.36.47-1h0a.46.46,0,0,0-.3-.26h0a.59.59,0,0,0-.25-.31h0a.93.93,0,0,0-.28-.28h0c-.1-.1-.17-.09-.22,0v.42a.45.45,0,0,1,0,.41.44.44,0,0,1-.53.25.53.53,0,0,0-.47.14h0l-.17-.07-.11.15-.1,0a1.18,1.18,0,0,0-.07-.2.5.5,0,0,1-.24-.09.71.71,0,0,1,0,.14l-.08,0,.07-.11v-.14A.45.45,0,0,0,97,62a.7.7,0,0,1,0-.14c.28,0,.52-.11.38-.5a.17.17,0,0,1-.19-.06.16.16,0,0,1-.12.13l0,0s0,0,0-.06a11.58,11.58,0,0,1,.65-1.49.91.91,0,0,1,.09-.74.53.53,0,0,1,.57-.17c.16,0,.21-.23.23-.41a1.54,1.54,0,0,0,.17.19c.28.28.42.27.54-.05a1.21,1.21,0,0,0,0-.38A3.48,3.48,0,0,0,98,56.93a1.54,1.54,0,0,0-.3-.11c-.12,0-.17,0-.18-.15a1.28,1.28,0,0,1,.44-.09h0c0,.12.08.18.27.13.5-.19.5-.19.55.29s.27.81.83.48a.81.81,0,0,0,0-.22,1.21,1.21,0,0,1-.22-.32v0c-.3-.14-.06-.5-.26-.69a1.54,1.54,0,0,1,.86.41.81.81,0,0,1,.47.59.34.34,0,0,0,0,.24h0a.27.27,0,0,0-.22.31.21.21,0,0,0,0,.25c.12.39.63.21.79.54.22,0,.44,0,.54-.24.16,0,.24-.13.31-.26s0-.18-.05-.27-.11-.14-.17-.11a1,1,0,0,0,0-.16l0-.09a.24.24,0,0,0,.17-.24c0-.24.07-.45.32-.55l.13,0,.08,0a.23.23,0,0,0,.18.07.32.32,0,0,1,0,.09.85.85,0,0,0,.09.47.6.6,0,0,0-.18.48h0c.1.09.18.2.33.21a.66.66,0,0,0,.44-.32l.16,0a.21.21,0,0,1,.2.06.41.41,0,0,1-.08.19l-.29.29a.62.62,0,0,0-.09.93h-.11a.16.16,0,0,0,.15.05s0,0,0,0a1.94,1.94,0,0,0,.27.21l.06,0v.2c-.39.28-.31.81-.58,1.15l0,0a.89.89,0,0,0-.26.72h0a.63.63,0,0,0-.14.5,1,1,0,0,0,.14.31v.1a.23.23,0,0,1,0,.26c-.1.11-.11.19,0,.25h0c-.08.22.05.42.07.63s-.1.52,0,.77l-.15,0a1,1,0,0,0-.21.21C102.13,64.56,102,64.51,101.91,64.55Zm.46,15.11,0,0s0,0,0,.06Zm.55,24.76v-.06l.08,0Zm0-24.72h0Zm0-1-.55-.24h0c0-.13-.05-.27-.07-.39h0v0l.65-.18.26.14c.55.09,1.08.48,1.64.06a.44.44,0,0,0,0-.15c.15.28-.14.43-.29.62s.08.28-.11.35a.23.23,0,0,0-.25,0C103.9,78.28,103.44,78.4,103,78.66Zm1.84-31.25h0Zm-.42,43.53h0Zm-.08-2.2h0s0,0,0,0Zm-.56,3.8a.1.1,0,0,0-.07,0v-.06s0,0,0,0Zm-.47,8a2.41,2.41,0,0,0,0-.38c0-.14,0-.28.08-.42a1.3,1.3,0,0,0,0-.34v0a.33.33,0,0,0,.13-.19h0a.66.66,0,0,0,.37.21.9.9,0,0,0,.23,0,.7.7,0,0,1,0,.35.52.52,0,0,1-.13.06A2.5,2.5,0,0,0,103.26,100.56Zm.77,1.35,0,0h0Zm-.2,0s0,0,0,0l0,0Zm.87.67.29.13.42.19.35.17c-.24.38-.58.07-.91-.13a.46.46,0,0,0-.28.08h0l-.06-.27c-.06-.17-.15-.13-.24,0h0l0,0a.42.42,0,0,0-.27,0h0l-.27-.09h0a1.94,1.94,0,0,0,0-.24l.26-.28h0A1.54,1.54,0,0,0,104.7,102.56Zm.15-6.69c0,.09,0,.19,0,.28a1.27,1.27,0,0,0-.06.18,2.51,2.51,0,0,1,0-.67.56.56,0,0,0-.62-.53l-.05,0a.48.48,0,0,0-.07-.23c-.17-.18-.3-.42-.54-.46a.39.39,0,0,0,.12-.41c-.22-.5.35-.39.48-.62l0,0,.08,0a1.17,1.17,0,0,0,0,1.16l.15.13a.59.59,0,0,1,.23,0h0A1.33,1.33,0,0,1,104.85,95.87Zm0-3.6,0,0h0v-.08a.67.67,0,0,0,.19-.09.6.6,0,0,1,.08.08A1.15,1.15,0,0,1,104.89,92.27Zm.11-1.64Zm-.32-59.38a.56.56,0,0,0-.18-.16.31.31,0,0,0-.21.05v-.06c.08-.08.18-.14.26-.22.14-.25.31-.5,0-.74A1.85,1.85,0,0,1,104,29h0v0c.18,0,.37,0,.43-.19s-.06-.31-.23-.41a3,3,0,0,1-.91-.7l.06-.17c.46-.29,1.13.63,1.51-.11.1.17.21.32.44.24,0,.71.31,1.39.4,2.1a2.06,2.06,0,0,0,.23.41v.19c0,.1.1.11.19.06l-.12.07a1.48,1.48,0,0,0-.36.3v-.42c-.28.16-.29.32-.06.48l-.11.12-.25.24Zm1,5.16h-.06l0,0Zm-.2,27Zm-.11,12.45h0s0,0,0,0Zm-.13,19.87h0Zm.1-19.25h0Zm0,19.12v0a.3.3,0,0,0,.13,0h0Zm.22,1.72h0Zm-.18-21.69h0l.06-.08a.53.53,0,0,1,.15,0Zm.24,3.26h0v0a.1.1,0,0,0,.07,0Zm.19-39.5h0l0,0S105.89,39.4,105.86,39.38ZM106,65.17Zm0,4h0Zm.14,29.07h0ZM106,32.78c.05-.16,0-.22-.21-.21a.81.81,0,0,1,.24-.17l.13,0,0,.13C106.17,32.65,106.05,32.71,106,32.78Zm.24,9.67h0Zm0,51.21h0Zm0,5.52h0S106.21,99.17,106.21,99.18Zm.26-63h0Zm.27,31.48h0Zm0,.28Zm.23-39.7a.79.79,0,0,0-.23.14l-.08.09s-.11,0-.11,0a1.76,1.76,0,0,0,.07-.4.82.82,0,0,0-.1-.24c.26-.27.58-.51.59-.91a1,1,0,0,0,.34.38,1.8,1.8,0,0,0-.08.21,1.73,1.73,0,0,0-.07.64A1,1,0,0,0,107,28.22Zm.32,43.83h0a.1.1,0,0,1-.08,0h.1v0h0Zm0-40.47s0,0,0,0h0Zm.14,42.54a.44.44,0,0,1-.08-.11s0,0,0,0a.3.3,0,0,1,.09.15Zm-.06-7.85h0Zm.22-48.49h0Zm.52,6.86h0Zm0,1.36h0s0,0,0,0Zm0,22.45h0S108.13,48.44,108.13,48.45Zm-.07,0h0s0,0,0,0l-.05,0A.13.13,0,0,0,108.06,48.46Zm0,13.69,0,0h0Zm0,9.06v0h0Zm0-46.59v0s0,0,0,0Zm.54,13.7h0l.06.06h0Zm0,13.92Zm-.31,2.33a.14.14,0,0,1,0-.07h0C108.41,54.6,108.4,54.63,108.4,54.57Zm0-25.22h-.05v0a.78.78,0,0,0-.09-.34,1.21,1.21,0,0,0,.37-.11h0v0a1.7,1.7,0,0,0,0,.22,1.27,1.27,0,0,0,0,.2A.69.69,0,0,0,108.43,29.35Zm.22.5Zm0,68.87c-.26-.1.06-.32.11-.48a2,2,0,0,0,.08.26A.24.24,0,0,0,108.65,98.72Zm.19-32a1.54,1.54,0,0,1-.17-.19,2.09,2.09,0,0,0,.2.22ZM114.67,51l.16.18-.18,0A.59.59,0,0,0,114.67,51Zm-.31-1.28h0a.42.42,0,0,1-.17.18A1.4,1.4,0,0,0,114.36,49.69Zm-2.43-24.53c.08-.29.29-.28.5-.26,0,0,0,.08,0,.12a.62.62,0,0,0,.69.53h0a1.48,1.48,0,0,0,.3.26l0,.05a.44.44,0,0,1-.21.16c-.16.06-.34.09-.43.28-.33.18-.22.52-.3.8l0,0h0a.81.81,0,0,1-.87-.8C112,26,112.23,25.64,111.93,25.16Zm1.45,10.71,0,0v0Zm-.87-.52-.07.06a3.57,3.57,0,0,1-.37.79c-.06-.36-.33-.7-.24-1.06l.32.19a.29.29,0,0,0,.3,0h0Zm-1.08,7c.1-.73.17-.77.75-.4l.32.23a.69.69,0,0,1,0,.25c-.16.1-.2.19-.09.27a3.39,3.39,0,0,1-1.43.39c-.2.08-.43.15-.36.39l-.13.1a1.51,1.51,0,0,1-.09.18.69.69,0,0,0-.39-.58.53.53,0,0,0,0-.19h0a.75.75,0,0,0,.56-.25h.55l.28-.25A.53.53,0,0,1,111.43,42.33Zm-.3,17.91h0l-.06,0h0Zm-.3-10.14,0,0h0A.09.09,0,0,0,110.83,50.1Zm-.21,0Zm0,27.38h0s0,0,0,0h0Zm-.66-13.37-.08,0a.9.9,0,0,1-.3-.28l0,0a.68.68,0,0,1,.53-.23v0a.78.78,0,0,0,.2.24C110.26,64.05,110.17,64.2,109.94,64.13Zm.14,7.71ZM110,44.24c.1-.15.21-.28.31-.43v0a1.4,1.4,0,0,0-.09.17.72.72,0,0,0,0,.29A.3.3,0,0,0,110,44.24Zm.33-.44a.05.05,0,0,1,0,0l0,0Zm.88-9a2.15,2.15,0,0,1-.72.26,1.2,1.2,0,0,0,.15-.74.85.85,0,0,0,.23,0C110.88,34.59,111,34.71,111.21,34.82ZM110,21.38l0,0h0a.27.27,0,0,0,.23.21c-.05.05-.1.09-.08.17a2.11,2.11,0,0,0,.63,1.16,2.89,2.89,0,0,0-.92-.23.42.42,0,0,1-.42-.41.54.54,0,0,0-.23-.44,1.77,1.77,0,0,1,0-.23C109.54,21.72,109.76,21.51,110,21.38ZM109.5,69h0l0,0Zm0-21.4h0Zm-.26-2s0,0,0,0v0Zm0,39.83h0v0h0ZM109,66.84H109l0,0,0,0h0l0,0A.14.14,0,0,0,109,66.84Zm0,24.59,0,0h0l0-.46h0c.46-.16.85.24,1.3.18a.56.56,0,0,1,.58.45l-.06.07a.51.51,0,0,0,0,.3.42.42,0,0,0,.14.18l-.06.06a.63.63,0,0,0-.1.3l0,.06h-.06l0,0a2.36,2.36,0,0,0-.29-.48C110.05,91.65,109.7,91.17,109,91.43Zm3.13,3.07c-.33,0-.33.24-.2.52-.58,0-.57.57-.76.94a1,1,0,0,0-.45-.87l-.19-.07c-.07-.25-.13-.5-.2-.75a1.29,1.29,0,0,0,.79-1.41h0a1.4,1.4,0,0,1,.9.15h0C112,93.5,112.45,94,112.14,94.5Zm.32-40.06a.57.57,0,0,0-.37-.2l.28,0a.39.39,0,0,0,.08.1l.14.07A.75.75,0,0,0,112.46,54.44Zm.94,20.43,0,0a.63.63,0,0,1,.07-.22A.34.34,0,0,1,113.4,74.87Zm.21,15.3,0,0,.06,0A.43.43,0,0,0,113.61,90.17Zm.31-43.29,0-.05,0,0Zm0-6.13-.07.08h-.21l-.24-.09a.32.32,0,0,0-.3,0v0h-.56l0,0s0,0-.07,0v-.09c0-.06,0-.12,0-.18a3.4,3.4,0,0,0-.12-.34,1.87,1.87,0,0,0-.15-.32l0-.05h.07a.83.83,0,0,0,.35,0l.16-.08a.88.88,0,0,0,.19-.24.17.17,0,0,0,.2,0h0a1.77,1.77,0,0,0,0-.23l0,0,.08.06v0a.8.8,0,0,0,.09.3l.11.12a1,1,0,0,0,.29.19h.16a.44.44,0,0,0,.14.23,1.33,1.33,0,0,0,.19.14l-.15,0C113.75,40.36,113.71,40.54,113.87,40.75Zm.22,29.75h0s0,0,0,0h0Zm.33,24h0v0h0Zm0,0s0,0,0,0h0l0,0Zm.26.09Zm0-5.1a.74.74,0,0,0-.38-.06.8.8,0,0,0-.16.08c0-.15,0-.3,0-.46a.8.8,0,0,0,.7.26Zm.22-7.74a2,2,0,0,0-.63-.35h0l.1-.09,0,0c0-.05.07-.12.11-.18h.27c0,.08,0,.17,0,.25l0,.08a.19.19,0,0,0,.06.16l0,0,0,0Zm2.57-57.09a.71.71,0,0,0,.21.17,3.23,3.23,0,0,1,.59.29,4.86,4.86,0,0,1,.38.41l-.34.11,0,.05a.73.73,0,0,0-1.17-.33,1.52,1.52,0,0,0,0-.21A.67.67,0,0,0,117.43,24.67ZM116.87,34h0Zm-.53-2.21a.08.08,0,0,1,0-.07.22.22,0,0,0,0,.11l0,0v0s0,0,0,0h0Zm-.82-3.54v0Zm0,1.94.7.27s0,0,0,.06l-.88.1c0-.05-.05-.11-.08-.16h0A.36.36,0,0,0,115.54,30.14Zm-.3,25.43h0Zm-.27-29h0v0l0,0h0Zm0,47.65.12-.11h0Zm.64-13.37a3.33,3.33,0,0,1-.25.28h0a.29.29,0,0,0-.14-.13V60.9l.18,0a2.36,2.36,0,0,1,.48-.29A1.2,1.2,0,0,0,115.64,60.83Zm-.2-16.73h0v0Zm0,4.3h0Zm.31-.22s0,0,0,0v0Zm.78,10.94c-.16.24,0,.6-.23.81a2.32,2.32,0,0,0-.18-.6.69.69,0,0,1,0-.71l.11-.11s0,0,0-.07l0,0,0,0,.19.14c0,.17.07.35.1.52h0Zm-.21-16.66-.15.1-.27.2a2.06,2.06,0,0,0-.37.35h0a.23.23,0,0,0-.16,0,.72.72,0,0,0,.11-.31.79.79,0,0,0-.22-.66.27.27,0,0,0,.28-.24l.24-.13c0-.16,0-.32,0-.48l.09,0a.23.23,0,0,1,.06-.12h0l-.09.12.14,0a.29.29,0,0,0,0,.09,1.44,1.44,0,0,0,.33.32l.5.32a1.92,1.92,0,0,0,.31.18A1,1,0,0,0,116.37,42.46ZM117.19,83v0h0Zm0-21.67v0h0v0h0Zm.32,20.44h0ZM117.7,29a.46.46,0,0,0-.46.22l-.16-.1a1.7,1.7,0,0,0,.38-.33c0-.09,0-.19,0-.29h0a1.55,1.55,0,0,1,0-.21l1.37-.29,0,.07a5.85,5.85,0,0,0,.41.92,1.55,1.55,0,0,1-.93,0A1.23,1.23,0,0,0,117.7,29Zm.39,43.48,0,0s0,.06,0,.08,0-.07,0-.1,0,0,0,0h.14Zm.23,10.72h0c0-.15,0-.3,0-.45s-.1-.58-.33-.79c0-.11,0-.21,0-.32h.1a.79.79,0,0,0,.34-.14,6.76,6.76,0,0,0,.48,1,3.42,3.42,0,0,1,.13,1h0A1.72,1.72,0,0,0,118.32,83.16Zm.47-14.35,0,0s0,0,0,0Zm.22,10-.15,0a.68.68,0,0,0,.13-.27.66.66,0,0,1,.07.25Zm0-46.63-.13,0v0h0l.22,0h0l.06,0Zm.31-.5a.15.15,0,0,1,0,.07h-.36a.89.89,0,0,1-.13-.67.49.49,0,0,0,.48.16h0a.42.42,0,0,0,0,.15c0,.09.08.16.09.24Zm-.59-4.31h0A1.3,1.3,0,0,0,118,27a.78.78,0,0,1,.55-.23s0,0,0,0a8,8,0,0,0,1.08.13l-.22,0A1.48,1.48,0,0,0,118.76,27.34Zm.69,9.41h0l.19.19A1.7,1.7,0,0,1,119.45,36.75Zm.45,19.09h0Zm3.51,17.37a1,1,0,0,0,.23.36A1.83,1.83,0,0,0,123,74a1.38,1.38,0,0,0-.24-.54A.81.81,0,0,0,123.41,73.21Zm.92-26a.29.29,0,0,1,.13,0l-.13,0Zm-1.93-11.7a.86.86,0,0,0,.25-.59c.18-.1.19.11.3.15a.23.23,0,0,0,.14,0v0a2.3,2.3,0,0,0,.35.58q.24.24.45.48l0,0a.4.4,0,0,0,0,.34l-.16,0c0-.13,0-.23-.15-.32a.73.73,0,0,0-.29-.11h-.16l-.27-.15a.74.74,0,0,0,0-.14.58.58,0,0,0-.39-.34l-.09,0Zm.3,9.89,0,0h-.06a.06.06,0,0,0,0,0S122.66,45.46,122.7,45.44Zm0,2.47h0ZM121.5,39a.35.35,0,0,0,.1.19h0a.7.7,0,0,0-.11.21.44.44,0,0,0-.51,0A1.67,1.67,0,0,1,121.5,39ZM121,53.44a.88.88,0,0,1,.06-.29,4.61,4.61,0,0,1,0,1.23h0l-.13-.08A2.84,2.84,0,0,0,121,53.44ZM120.75,43h0v0h0Zm0-9.58h0v0Zm-.33,4.7h0l-.07,0Zm0,22.71a.56.56,0,0,1,0-.74.56.56,0,0,0,.17.09l.31.1a1.64,1.64,0,0,1,.56.28l0,0,0,0a2.08,2.08,0,0,1-1,.2Zm.13,12.65h0a.76.76,0,0,1,0,.11S120.49,73.5,120.48,73.46Zm.65-9.1h0c-.12-.1-.23-.21-.34-.32s-.22-.16-.21-.31c.13.05.24.12.37.18a.87.87,0,0,0,.22.05A.59.59,0,0,0,121.13,64.36Zm.43,11c-.14.09-.24,0-.32-.1l.06-.37a1.09,1.09,0,0,0,.26,0,.93.93,0,0,0,.15-.13,1.9,1.9,0,0,1,.09.36s0,.07,0,.11Zm.27-16.53Zm0-25.32a.27.27,0,0,0-.09.15l-.23,0c0-.3.06-.59,0-.88,0,0,0-.1,0-.15l.11.06a.43.43,0,0,0,.38-.14v0h0l0,0c0,.16,0,.33,0,.49s0,.23,0,.34A1.43,1.43,0,0,0,121.88,33.56ZM122,56a2,2,0,0,0,.47-.15.64.64,0,0,0,.09.77l-.09.1a.06.06,0,0,0,0,0C122.35,56.48,122.29,56.16,122,56Zm2.13,5.75a.37.37,0,0,1,.08.17L124,62a.89.89,0,0,0-.54-.32h0a.35.35,0,0,0-.25-.3c-.09-.27-.33-.39-.54-.54a.38.38,0,0,0-.25-.3.59.59,0,0,0,0-.23.48.48,0,0,0,0-.24.41.41,0,0,0,.15.07c.51-.05,1-.09,1.06-.77a1.5,1.5,0,0,1,0-.24c0-.06.06-.08.09,0a.2.2,0,0,0-.09.18,1.6,1.6,0,0,0,0,.49.25.25,0,0,0,.07.12c-.12.14-.28.27,0,.47h.08l-.13,0c-.07.57.18.86.76.86l.09,0C124.29,61.28,124.1,61.43,124.17,61.73Zm1.59-10.36c-.06-.12-.13-.23-.23-.22.09-.16.18-.34.31.09l0,0A.31.31,0,0,0,125.76,51.37Z"/><polygon class="cls-1" points="47.3 60.78 47.29 60.79 47.29 60.79 47.3 60.78"/><path class="cls-1" d="M1.42,62.67a.74.74,0,0,1,.11-.88.38.38,0,0,0-.09-.58.51.51,0,0,0-.63,0,1.29,1.29,0,0,0-.68,1,.79.79,0,0,0-.13.33,1.36,1.36,0,0,0,.21.68A1.86,1.86,0,0,1,.32,64v0a.5.5,0,0,1-.13,0,.49.49,0,0,0,0,.24H.32s0,0,0,0c0,.19.12.34.36.2.08-.16.17-.31.26-.46A4.22,4.22,0,0,0,1.42,62.67Z"/><path class="cls-1" d="M29.83,108.76a.47.47,0,0,0-.07-.55,1.77,1.77,0,0,0-.28-.27h0c-.13-.17,0-.44-.27-.55h0c-.14-.17-.4-.13-.55-.28s-.2-.31-.31-.45a.37.37,0,0,0-.46-.17.48.48,0,0,0-.29.42,1.11,1.11,0,0,0,.76,1.28,1.35,1.35,0,0,1,.8.85l.61.51c.26.09.35,0,.25-.25S29.75,109,29.83,108.76Z"/><path class="cls-1" d="M84.86,117.55h0Z"/><path class="cls-1" d="M87.79,116.2a1.15,1.15,0,0,1-.79.15c-.34-.07-.4.52-.79.35-.61,0-.74.8-1.34.85a.5.5,0,0,0,0,.77,1.38,1.38,0,0,0,1.36,0c.13-.2.39-.07.55-.21a1.7,1.7,0,0,0,.34-.5,1.65,1.65,0,0,1,.18-.41h0a1.67,1.67,0,0,1,.28-.25h0c.11-.14.29-.2.37-.36S88,116.27,87.79,116.2Z"/><path class="cls-1" d="M78.55,2.71h0Z"/><path class="cls-1" d="M16.89,20.79c.45-.13,1,.12,1.37-.27.56.23.51-.43.82-.56l.12,0h.12c.4-.11.89-.15.62-.79a1.62,1.62,0,0,0-1.41-.27c-.17.17-.45.05-.62.22a1.39,1.39,0,0,0-.21.27c-.07.3-.3.45-.53.63l-.61.51C16.54,20.75,16.6,20.89,16.89,20.79Z"/><path class="cls-1" d="M106.21,106.27l0,0a.76.76,0,0,0-.26,0l0,.11a1.81,1.81,0,0,1-.31-.09h0v0h0c-.07-.1-.14-.11-.21,0v0a.53.53,0,0,0-.29.28h0a2.56,2.56,0,0,0-1.29,1c-.33.44-.41.84.18,1.13.4.08.68-.22,1-.29a.87.87,0,0,0,.43-.21,1.85,1.85,0,0,0,.21-.45,1.89,1.89,0,0,1,.19-.44,1.17,1.17,0,0,0,0-.2c.18-.08.42-.07.47-.34l0,0C106.69,106.49,106.66,106.28,106.21,106.27Z"/><polygon class="cls-1" points="102.65 10.11 102.65 10.11 102.65 10.11 102.65 10.11"/><path class="cls-1" d="M118.87,23.49l1.33.54a1.26,1.26,0,0,1,.34.13c.3.24.51.12.7-.15-.19-.68-.19-.68-.78-.71l-1.09-.62a1.84,1.84,0,0,0-.5.11C118.53,23,118.54,23.35,118.87,23.49Z"/><path class="cls-1" d="M129.23,52h0c-.24.42-1.21,0-1.05.88.39.44-.19,1,.23,1.46a2.76,2.76,0,0,0,1.15-2.24l.2-.24C129.32,51.61,129.26,51.62,129.23,52Z"/><path class="cls-1" d="M128.17,52.84h0Z"/><path class="cls-1" d="M93.82,6.62l.62-.89v0a.27.27,0,0,0,.22-.23l-.22.22a.77.77,0,0,0,.22-.22.21.21,0,0,0,.1-.18.39.39,0,0,0,.2-.36.87.87,0,0,1-.26-.08l0,.13a.73.73,0,0,0-.48-.06s0,0,0,0a.18.18,0,0,0-.28.1c0,.16-.07.32-.11.48a.26.26,0,0,1-.22.2c-.37.29-.47.76-.74,1.12C93.49,7.08,93.49,7.08,93.82,6.62Z"/><path class="cls-1" d="M15.87,98.64c-.08-.15-.14-.43-.24-.45-.44-.07-.45-.49-.68-.72a.36.36,0,0,1-.23,0,2.84,2.84,0,0,1-.3-.57c-.1-.47-.43-.49-.8-.46a2,2,0,0,0,.26,1.87.26.26,0,0,0,.28,0v0a.19.19,0,0,0,.08.16,3.13,3.13,0,0,0,.36.22c.13.06.27.07.4.13a.42.42,0,0,0,.18.08.71.71,0,0,0,.32.53c.23,0,.47,0,.58-.31-.09-.18-.18-.35-.26-.53Zm-1.72-.86a.57.57,0,0,0-.11-.11.58.58,0,0,0,.12.1Z"/><path class="cls-1" d="M104.08,11.85a3.57,3.57,0,0,0,.27-.28h0a.75.75,0,0,1,.75-.18c.51,0,.86-.11.55-.73-.22-.12-.5-.42-.7-.19s-.87.38-1.19.74l-.23,0a1.52,1.52,0,0,0-.34.22h0C103.32,12.33,103.43,12.38,104.08,11.85Z"/><path class="cls-1" d="M61.3,1.32a.63.63,0,0,0,1,.09c.13-.1.25-.22.37-.33L64,.79c-.33-.91-.53-1-1.21-.47a3.21,3.21,0,0,1-.45.24c-.35.17-.69.35-1,.53,0,0-.06,0-.09.07s0,.11.06.17Z"/><polygon class="cls-1" points="67.31 1.62 67.3 1.61 67.3 1.61 67.31 1.62"/><path class="cls-1" d="M125.19,39.9a.41.41,0,0,0-.27.41c0,.26.23.18.39.12l.61-.21a.31.31,0,0,0,0-.23c.2.12.39.17.57,0a.64.64,0,0,0,.06-.52s0,0,0-.06.14-.18.22-.27a2.35,2.35,0,0,1,0-.26c.39-.34.25-.88.48-1.28-.53,0-.54,0-.57.51a.31.31,0,0,1-.19.3,3.91,3.91,0,0,0-.48,0s-.09.09-.11.15,0,.08.08.09l.48,0,.06.24h0l-.55.3c-.47.26-.09.53,0,.79C125.68,40,125.45,39.78,125.19,39.9Z"/><path class="cls-1" d="M33,112.19a2.29,2.29,0,0,0-.51-.15.44.44,0,0,1,0,.23c.13.17.09.42.26.57.19,0,.38,0,.45-.22A.35.35,0,0,0,33,112.19Z"/><polygon class="cls-1" points="32.8 112.85 32.79 112.84 32.79 112.84 32.8 112.85"/><path class="cls-1" d="M11.18,95.13a.11.11,0,0,1,0,.14c.14.1.26.28.45.18a.32.32,0,0,0,.15-.45,2.65,2.65,0,0,1-.09-.49C11.13,94.39,11.35,94.93,11.18,95.13Z"/><path class="cls-1" d="M11.69,94.51v0Z"/><path class="cls-1" d="M26.48,107.36v0h0S26.48,107.37,26.48,107.36Z"/><path class="cls-1" d="M26.46,107.66c.28.15.45.47.8.5.06-.73,0-.75-.79-.78A.23.23,0,0,0,26.46,107.66Z"/><path class="cls-1" d="M110.86,16.68c.12-.27.35-.28.59-.28a1,1,0,0,0,0,.24s.09.07.14.1a.24.24,0,0,0,0-.1.85.85,0,0,0,0-.23h0l.07,0,.07,0a.92.92,0,0,0-.13-.24l-.77-.05c-.27,0-.38.12-.34.36S110.68,16.73,110.86,16.68Z"/><path class="cls-1" d="M83,119.44c.08-.29.07-.52-.31-.56h-.53l0,0c-.34.2-.32.54-.3.86a1.21,1.21,0,0,0,.25.08.24.24,0,0,0,.3.18,1.77,1.77,0,0,0,1.08.38.29.29,0,0,0,.19-.15.37.37,0,0,0,0-.23C83.52,119.64,83,119.79,83,119.44Z"/><path class="cls-1" d="M1.29,58.63c.36-.29.43,0,.51.27s.5.38.74.07a.76.76,0,0,1,.65-.38.69.69,0,0,0,.43-.2A1,1,0,0,0,3.86,58c.05-.2,0-.41.1-.61a.83.83,0,0,1,0-.15,1.21,1.21,0,0,0-.32-1.1h0c0-.45.2-.93-.19-1.31-.2.31-.73.49-.4,1l-.42.37v.49c0,.19,0,.38,0,.58a2,2,0,0,0,0,.25l-.54.31a1.82,1.82,0,0,0-1.19.47c-.25.12-.35.32-.13.52S1.17,58.86,1.29,58.63Z"/><path class="cls-1" d="M82.64,117.25l-.52-.29-.3-.52c-.31.06-.26.29-.24.51l.22,0a2.64,2.64,0,0,0,.34.41C82.35,117.56,82.53,117.52,82.64,117.25Z"/><path class="cls-1" d="M8.4,34.53V34l-.51.29C8,34.46,8.2,34.48,8.4,34.53Z"/><path class="cls-1" d="M6.22,47.4h0a3.45,3.45,0,0,0-.28.26.27.27,0,0,0,0,.25C6.51,47.83,6.51,47.83,6.22,47.4Z"/><path class="cls-1" d="M126.67,53.08c-.23,0-.15.2-.18.33l-.57.26c.07.21.23.31.41.21a.42.42,0,0,0,.17-.46l.26,0A1.72,1.72,0,0,0,126.67,53.08Z"/><path class="cls-1" d="M81.27,118.89a1.94,1.94,0,0,0,0-.24.43.43,0,0,0-.25,0,.26.26,0,0,0,.26.29c0,.18,0,.36,0,.54C81.62,119.24,81.53,119.06,81.27,118.89Z"/><path class="cls-1" d="M94.94,111.78h0v0h0Z"/><path class="cls-1" d="M94.85,111.89l.09-.11s0,0-.07,0S94.86,111.86,94.85,111.89Z"/><path class="cls-1" d="M12.78,92.57a.39.39,0,0,0-.24.05l.22.21A.78.78,0,0,0,12.78,92.57Z"/><path class="cls-1" d="M126.46,36.17a.22.22,0,0,0-.21.23h.2A.39.39,0,0,0,126.46,36.17Z"/><path class="cls-1" d="M116.89,20.8v0l0,0h0c.11.41.17.86.8.86a3.94,3.94,0,0,0,0-1.41,2.29,2.29,0,0,0,.08-.28c-.09-.27-.18-.54-.28-.81-.55.15-.55.15-.4.66,0,.12,0,.26.06.39l-.67.1A.71.71,0,0,0,116.89,20.8Z"/><path class="cls-1" d="M112,18.29c.26.34.52.68,1,.63.21.49.21.49.63.34l.24-.1c.69.57.69.57,1.11,0a.21.21,0,0,1,0-.23,2.31,2.31,0,0,0-.84-1,13.26,13.26,0,0,0-1.67-.12l-.14,0-.26-.16-.34.1C111.68,18,111.71,18.23,112,18.29Z"/><path class="cls-1" d="M51.44,118.84c.3.09.62.24.76-.23C51.61,118.31,51.61,118.31,51.44,118.84Z"/><path class="cls-1" d="M57.52,4s.13-.11.2-.16l.26,0c.33-.14.39-.5.57-.75s.63-.61,1-.9c.16-.15.11-.32.09-.49-.91-.11-.91-.11-1.06.76L58,2.45c-.15.14-.23.35-.39.5a.13.13,0,0,0,0,.06,1,1,0,0,1-.77-.22,2,2,0,0,1-1.45.45,3.63,3.63,0,0,0-.65,0,1.79,1.79,0,0,0,1,.56A8.74,8.74,0,0,1,57.52,4Z"/><path class="cls-1" d="M37.7,10.94a.42.42,0,0,0-.49.23C37.42,11.2,37.61,11.17,37.7,10.94Z"/><path class="cls-1" d="M12.81,90.63l.78,0C13.22,90.31,13.22,90.31,12.81,90.63Z"/><path class="cls-1" d="M42.65,7.09l-.09,0s0,.05,0,.07l.12-.12Z"/><path class="cls-1" d="M122.45,78.94c-.11,0-.16,0-.12.11s.07,0,.11,0l.1-.07S122.49,78.94,122.45,78.94Z"/><path class="cls-1" d="M122.13,79.68l.12,0,.12,0C122.28,79.52,122.2,79.52,122.13,79.68Z"/><path class="cls-1" d="M121.79,79.66l-.2-.2C121.58,79.61,121.65,79.67,121.79,79.66Z"/><path class="cls-1" d="M54.69,118.62H55a.46.46,0,0,0,0-.26A.34.34,0,0,0,54.69,118.62Z"/><path class="cls-1" d="M12.41,94.11l0,0,.06-.13c-.12-.53-.12-.53-.75-.49a1,1,0,0,1-.11.23,1.14,1.14,0,0,0-.08.68l.12.12.27.09c.22.29.52.17.8.17,0-.17,0-.35,0-.52l-.23-.06Z"/><path class="cls-1" d="M9.81,86.89c.12.22.34.19.54.21A.44.44,0,0,0,9.81,86.89Z"/><path class="cls-1" d="M22.1,17.77c.28.25-.1.47,0,.72.1.41.6.08.74.42a1,1,0,0,0,.14.22c.3,0,.7.2.84-.13s-.13-.59-.38-.79l-.22-.15a.34.34,0,0,0-.28-.25l0,0c0-.21,0-.44-.26-.54h0a.38.38,0,0,0-.22-.32h0a.45.45,0,0,0-.08-.23.29.29,0,0,0,.26-.24c-.21,0-.41,0-.49.24l.1.09,0,0-.08-.12-.47.31a1,1,0,0,0-.05.25l0,.27C21.61,17.86,21.86,17.79,22.1,17.77Z"/><path class="cls-1" d="M110.88,15.3a.39.39,0,0,0-.11.06s0,.05,0,.07a1.59,1.59,0,0,0,.13-.13Z"/><polygon class="cls-1" points="59.63 12.03 59.64 12.03 59.64 12.02 59.63 12.03 59.63 12.03"/><path class="cls-1" d="M115.27,91.75h0L115,92a.76.76,0,0,0,.26,0s.05,0,.08-.09A.15.15,0,0,0,115.27,91.75Z"/><polygon class="cls-1" points="72.01 9.23 72.02 9.23 72.02 9.23 72.01 9.23"/><path class="cls-1" d="M115.54,92.86a2.51,2.51,0,0,0,0-.27c-.07-.09-.14-.09-.21,0S115.41,92.82,115.54,92.86Z"/><polygon class="cls-1" points="81.28 3.81 81.29 3.82 81.29 3.81 81.28 3.81"/><path class="cls-1" d="M81.34,3.91l.07,0-.12-.11A.2.2,0,0,0,81.34,3.91Z"/><polygon class="cls-1" points="116.34 31.75 116.34 31.75 116.34 31.75 116.34 31.75 116.34 31.75 116.34 31.75"/><polygon class="cls-1" points="101.84 95.86 101.84 95.86 101.84 95.86 101.84 95.86 101.84 95.86"/><polygon class="cls-1" points="101.84 95.86 101.84 95.86 101.84 95.86 101.84 95.86"/><path class="cls-1" d="M29.45,32.89s0,.07-.06.11.15.11.22.11a.49.49,0,0,0,.44-.25l0,0a.91.91,0,0,1,.16-.11l-.2-.12Z"/><polygon class="cls-1" points="107.31 72.03 107.3 72.03 107.3 72.04 107.31 72.04 107.31 72.03"/><path class="cls-1" d="M22.63,44.9h0Z"/><path class="cls-1" d="M22.1,44.9h0v0Z"/><path class="cls-1" d="M33.59,31.76c-.19.16-.32.33,0,.52l0-.52h.11l.14,0C33.76,31.64,33.68,31.66,33.59,31.76Z"/><path class="cls-1" d="M27.18,36.79l.09.13a1.09,1.09,0,0,0,0-.18Z"/><polygon class="cls-1" points="99.61 63.83 99.61 63.83 99.62 63.84 99.61 63.83"/><polygon class="cls-1" points="68.67 89.3 68.67 89.3 68.67 89.3 68.67 89.3 68.67 89.3"/><path class="cls-1" d="M53.33,38.61h0Z"/><polygon class="cls-1" points="46.2 48.2 46.2 48.2 46.2 48.2 46.2 48.2"/><path class="cls-1" d="M65.54,48.62l.09.07s0,0,0,0S65.56,48.63,65.54,48.62Z"/><path class="cls-1" d="M73.89,59.44Z"/><path class="cls-1" d="M70,73.94h0Z"/><polygon class="cls-1" points="55.52 64.9 55.52 64.9 55.52 64.9 55.52 64.9"/><path class="cls-1" d="M61.33,61.34c-.06.14-.26.32-.07.42s.5-.06.67-.23,0-.31-.1-.46Z"/><path class="cls-1" d="M59.34,63.17a.59.59,0,0,0-.41.32c0,.1,0,.16.16.19l.42-.27s0-.09,0-.13A.13.13,0,0,0,59.34,63.17Z"/><path class="cls-1" d="M46.83,61.38a1.13,1.13,0,0,0-.35.21.66.66,0,0,1-.2.06c-.31.33.11.35.21.51h0c.33-.15.56-.36.49-.77Z"/><path class="cls-1" d="M67.31,57.25l-.29.54h.56C67.57,57.57,67.57,57.34,67.31,57.25Z"/><polygon class="cls-1" points="51.44 56.44 51.43 56.43 51.43 56.44 51.44 56.44"/></g></g></svg>