<svg xmlns="http://www.w3.org/2000/svg" viewBox="0 0 314.55 200.69"><defs><style>.cls-1{fill-rule:evenodd;}</style></defs><title>Asset 127mdpi</title><g id="Layer_2" data-name="Layer 2"><g id="Layer_1-2" data-name="Layer 1"><path class="cls-1" d="M117.59,168.2c-.9.61-2.09-.71-2.47.23C115.71,168.67,117,169.28,117.59,168.2Z"/><path class="cls-1" d="M120.67,167.33c-.25-.5-.19,0-.41.08C119.38,167.64,120.62,168.14,120.67,167.33Z"/><path class="cls-1" d="M144,30.18c.13-1-.83-1.07-.73-.12C143.55,29.84,143.71,30.14,144,30.18Z"/><path class="cls-1" d="M155.34,177.8c.21-.19.69.19.71-.4C155.82,177.31,155.36,176.9,155.34,177.8Z"/><path class="cls-1" d="M166.12,177.77c.28-.05.59-.22.73.12C166.8,176.82,166.27,177.23,166.12,177.77Z"/><path class="cls-1" d="M170.48,177.7a.91.91,0,0,0,.9-.71C170.86,177.25,170.58,176.92,170.48,177.7Z"/><path class="cls-1" d="M174.71,177.38c-.36-.39-.45.22-.92.19C173.88,178,174.65,177.83,174.71,177.38Z"/><path class="cls-1" d="M184.29,199.41a3.6,3.6,0,0,0,.16,1.28c.34,0,.48-.41.47-1.14C184.61,199.8,184.59,199.16,184.29,199.41Z"/><path class="cls-1" d="M202,177c-.51.95-1.13-1-1.34.26.38.43,1.06-.08,1.28.8C201.86,177.54,202,177.43,202,177Z"/><path class="cls-1" d="M197.9,16.84c.72-.25,2,.33,1.9-1.69-.54,1.67-1.7.3-2.14,1C197.79,16.18,197.89,16.4,197.9,16.84Z"/><path class="cls-1" d="M205.89,164.88c-.41.23-.91.09-.69.93.07-1,.4,1.06.51-.1-.08,0-.12-.2-.12-.51C205.71,165.14,205.88,165.19,205.89,164.88Z"/><path class="cls-1" d="M200.75,15.75c-.12-.28-.47,0-.6.38C200.34,16.55,200.69,16.27,200.75,15.75Z"/><path class="cls-1" d="M203.53,15.2c-.2-.7-1.31-1-1.45,0C202.43,14.83,203.07,15.06,203.53,15.2Z"/><path class="cls-1" d="M211.62,168c-.2-.07-.28-.51-.54-.41,0,.61-.17,1.16.16,1.28,0-.18,0-.35,0-.53C211.37,168.22,211.6,168.31,211.62,168Z"/><path class="cls-1" d="M212.9,16c-.09-.53,0-1.74-.19-1.8,0,.26,0,.52,0,.77-.26.5-.5-.31-.6.65C212.26,16.13,212.56,16.12,212.9,16Z"/><path class="cls-1" d="M215.75,14.88c-1-.38-1.68-.05-2.69,0,0,.33-.12.38-.07.8C214.21,15,215.1,15.5,215.75,14.88Z"/><path class="cls-1" d="M218.6,15.89a3.68,3.68,0,0,0-.38.87c.3-.19,1.24-1.93,1.11-.75,1.43-1.58,3.61-.9,5-1.26.37-1.46.44.51.66-1.45a18.25,18.25,0,0,0-2,.12c.17,0,.3.06.33.47-1.12.14-2.36-.5-3.59,1-.29-.51-.58.07-.65-.66-.71.67-1.41-.26-2,.94-.05-.74-1.5-.55-1.13.22C216.79,15.86,217.88,14.11,218.6,15.89Z"/><path class="cls-1" d="M235.59,187.12c0,.71.19.49,0,1,.24,0,.28-.51.61-.39,0-.65-.26-.58-.36-1C235.88,187.11,235.73,187.12,235.59,187.12Z"/><path class="cls-1" d="M232.37,10.79l-.41.08c0,.35,0,.7,0,1.05C232.26,11.83,232.38,11.46,232.37,10.79Z"/><path class="cls-1" d="M245.39,172l-.06-1.3c-.22,1.31-.89.2-1.18,1.29C244.56,172.28,244.79,172,245.39,172Z"/><path class="cls-1" d="M245.27,173.9c0-1.51.77.59.91-.45-.34-.12-.4-1.14-.78-1.16.27,1.27-.45.47-.46,1.15C245.08,173.47,245.13,173.83,245.27,173.9Z"/><path class="cls-1" d="M251.61,169.74a4.12,4.12,0,0,0,.27,1.27c0-.55.13-.59.29-.32C252.11,170,251.87,169.86,251.61,169.74Z"/><path class="cls-1" d="M254.26,161.59c-.12.39-.11,1.86.19,1.81C254.35,162.38,254.6,162,254.26,161.59Z"/><path class="cls-1" d="M257,163.41c-.13-.82.32-.43.26-1.11C257.08,161.66,256.53,163.19,257,163.41Z"/><path class="cls-1" d="M261.36,164.92c0-.95-.34-.73-.66-.66a14.62,14.62,0,0,0-.2,2.41c.25-.09.34.34.54.42-.24-1.27,0-.18.27-.85C261.21,165.65,260.85,165.11,261.36,164.92Z"/><path class="cls-1" d="M261.44,169.11c-.11-.92.28-.83.24-1.63C261.41,166.73,261.13,168.71,261.44,169.11Z"/><path class="cls-1" d="M265,178.67a1.55,1.55,0,0,0-.31.06c0,.75.41,1.47.55.68C265,179.48,265,179.19,265,178.67Z"/><path class="cls-1" d="M265,175.23c0,1.14.46,1,.68,1.45C265.64,175.73,265.36,175.38,265,175.23Z"/><path class="cls-1" d="M259.8,16.92c-.13-.76.5-.34.5-.36s-.12.06-.09.28c.23,0,.32-.28.27-.85C260.25,15.36,259.31,16.06,259.8,16.92Z"/><path class="cls-1" d="M269.5,163.83c0-1.26-.28-1.5-.69-1.44,0,1.07.64.4.6,1.72-.55-.3-.8-1.48-1.24-2.12.19,2.11-.66.59-.74,2,.44.29.76-.9,1-.2,0,.54-.26.57-.26,1.11a5.7,5.7,0,0,0,1,1.12c.42-.36,0-1.05.35-1.39.6-.15.52,1.76.93,2.18.14-1.32-.21-.84-.3-2,.37-1,.53.32.8-.68C270.54,163.56,270.23,163.76,269.5,163.83Z"/><path class="cls-1" d="M262,35.16c-.14.1-.09.6-.17.82.15.34.59.83.62-.12C262.13,36,262.27,34.86,262,35.16Z"/><path class="cls-1" d="M271.07,154.84c-.5,0-.08,2.16-.58.91.07.36-.06,1.36.16,1.28.27-1.61.93,0,1.34-.27C271.91,155.51,270.69,156.56,271.07,154.84Z"/><path class="cls-1" d="M271.29,157.42c.16,1.69.08.72-.14,1.61.08,0,.13.19.13.5C271.8,159.55,271.72,157.5,271.29,157.42Z"/><path class="cls-1" d="M272,161.76c.14,0,.22-.17.3-.33,0,.43.17.68.21.22-.3-.59-.13-2-.31-2.3A5.43,5.43,0,0,0,272,161.76Z"/><path class="cls-1" d="M266.45,29c-.06,0-.12.06-.09.28l.31-.06c-.34-1.12.63-.69.26-1.1C266.34,27.83,266.56,28.29,266.45,29Z"/><path class="cls-1" d="M266.84,30.77a3.34,3.34,0,0,1,.06-1.06C266.51,29.61,266.35,30.92,266.84,30.77Z"/><path class="cls-1" d="M273.21,163.36c0,1,.39.58.56.94C273.87,163.09,273.35,163.81,273.21,163.36Z"/><path class="cls-1" d="M267.45,16.45c-.24,0-.46-.47-.5.36C267.1,17.14,267.47,17.12,267.45,16.45Z"/><path class="cls-1" d="M267.4,17.51c.37-.45.22.68.53.42a2.12,2.12,0,0,0-.37-1.5C267.58,17,267.29,16.82,267.4,17.51Z"/><path class="cls-1" d="M274.55,151.52a16.86,16.86,0,0,1-.3,2.42c.39.21.16-.91.36-1.12.17.16,0,1.28.35,1a16.53,16.53,0,0,1-.2-2.32C274.75,151.8,274.65,151.66,274.55,151.52Z"/><path class="cls-1" d="M275.27,149c-.08,0-.13-.19-.12-.5-.33-.06-.45.32-.37,1.12C275,149.62,275.2,149.42,275.27,149Z"/><path class="cls-1" d="M271.19,35.43c-.05,1.09-.5,0-.57,1.17C271,36.79,271.59,36.13,271.19,35.43Z"/><path class="cls-1" d="M277.69,192.18a4.23,4.23,0,0,0-.05,1.06C278.15,193.84,278.06,192.45,277.69,192.18Z"/><path class="cls-1" d="M277.76,193.74l.06,1.31c.28,0,.24-.6.26-1.11C277.94,194,277.85,193.87,277.76,193.74Z"/><path class="cls-1" d="M278.27,198.12c0-.27,0-.53,0-.79-.35-.2-.12.85-.14,1.35.31-.52.55,1.15.51-.1C278.58,198.15,278.31,198.49,278.27,198.12Z"/><path class="cls-1" d="M274.5,30.56c-.24-.93-1.18-.33-1.23.25C273.89,30.73,274,30.45,274.5,30.56Z"/><path class="cls-1" d="M275.21,32.53c0-.83-.82-1-.83-.1C274.73,32.25,275,32.42,275.21,32.53Z"/><path class="cls-1" d="M277.9,51.19c-.15-.24-.39-.18-.53-.41.1,1-.4.74-.46,1.4C277.38,52,277.53,51.93,277.9,51.19Z"/><path class="cls-1" d="M276.52,10.45c-.16-.55-.67.15-.7.66C276.12,10.59,276.56,11.27,276.52,10.45Z"/><path class="cls-1" d="M283.43,155.28c.38-.31,0-1.06,0-1.84.21-.13.25-.58.38-.87.09-.87-.34-.13-.25-1,.19-.07.33-.24.38-.6-.24,0-.23-.87-.55-.68a7.7,7.7,0,0,1-.28,3c.15-.91-.42-1-.43-.44.12.06.52.7.25,1-.25,0-.27-.76-.46-1,0,1.86,1,2,.81,4.3a3.53,3.53,0,0,1,.76-1.72C283.69,155.4,283.53,155.51,283.43,155.28Z"/><path class="cls-1" d="M283.11,150.35c-.17-.46-.58-.59-.61.38C282.84,150.36,283,150.83,283.11,150.35Z"/><path class="cls-1" d="M279.37,39.86a5,5,0,0,0-.17-1.55c-.32,1-1.42-.13-1.59,1.63C278.16,39.46,278.82,40.11,279.37,39.86Z"/><path class="cls-1" d="M280.88,109.24c.12,0,.24,0,.23.48.27,0,.32-.43.26-1.1C281.19,108.8,281,108.84,280.88,109.24Z"/><path class="cls-1" d="M279.4,61.68c.36.19.13-.85.15-1.35-.29-.22-.7.1-.79,1,.37.13.42-.38.6-.65C279.55,61.12,279.36,61,279.4,61.68Z"/><path class="cls-1" d="M279.36,51.43c-.32-1.41,0,.32-.61.12,0,.71.23.46.34.72C278.89,51.38,279.43,52,279.36,51.43Z"/><path class="cls-1" d="M280.7,51.16c-.37.45-.23-.67-.54-.42s-.28,1.3-.59.65C279.76,52.71,280.49,52,280.7,51.16Z"/><path class="cls-1" d="M281,60.3l.72-.14a3,3,0,0,0-.38-1.5C281.58,60.45,281.07,59.44,281,60.3Z"/><path class="cls-1" d="M282.37,51.36c.32-.18.9.16.9-.71C283,51.37,282.41,50.24,282.37,51.36Z"/><path class="cls-1" d="M283,56.49c.28.22.39,1,.67,1.18-.19-1.34.49-.86.44-1.93C283.65,56.44,283.36,56.58,283,56.49Z"/><path class="cls-1" d="M282.61,38.16c-.1.4-.39.43-.36,1.12A.77.77,0,0,0,282.61,38.16Z"/><path class="cls-1" d="M283.38,50.89c.19.42.54.14.61-.38-.14,0-.12-.44-.23-.48C284,51,283.32,50.21,283.38,50.89Z"/><path class="cls-1" d="M284.32,62.8c.27-.15.56-.24.7-.66-.11-.54-.4-.53-.74-.38C284.29,62.11,284.31,62.45,284.32,62.8Z"/><path class="cls-1" d="M285.54,62c0-.5-.14-.56-.15-1-.34.48-.84-.83-.82.42C285.07,61.09,285.29,61.62,285.54,62Z"/><path class="cls-1" d="M282.78,18.4c.29-.29.34-.4.53.16-.13-1.46.3-.44.41-.08,0-.52-.05-1-.07-1.56-.28,0-.3-.67-.46-1-.1.65-.6.48-.56,1.43C283.05,17.22,282.63,17.74,282.78,18.4Z"/><path class="cls-1" d="M284.8,50.08c0,.61-.25.66-.4.35l0,.78C284.8,51.49,285.13,50.48,284.8,50.08Z"/><path class="cls-1" d="M284.87,37.45c-.19,0-.64-.58-.72.14C284.33,37.56,284.77,38.18,284.87,37.45Z"/><path class="cls-1" d="M285.13,50.55c.32-.11.61-.31.57-1.17C285.39,49.51,285.33,50.19,285.13,50.55Z"/><path class="cls-1" d="M286.87,73.61c0,.55-.13,1,.16,1.27,0-.57.24-.6.49-.62,0-.39,0-1-.14-1C287.28,74.06,287.11,74.14,286.87,73.61Z"/><path class="cls-1" d="M285.44,38.65c.55-.07.08-1.68-.19-1.8C285.24,37.68,285.48,37.73,285.44,38.65Z"/><path class="cls-1" d="M288.24,76.49c.28.36.13,1.81.11,2.34C289.05,79.44,288.51,75.45,288.24,76.49Z"/><path class="cls-1" d="M288.39,58.58c-.26,0-.5.05-.49.62.16.11.27.34.43.44C288.29,59.15,288.42,59,288.39,58.58Z"/><path class="cls-1" d="M288.33,45.44c-.22-.22-.21-1.12-.56-.94-.11.41-.42.39-.37,1.13C287.84,45.65,288.12,45.9,288.33,45.44Z"/><path class="cls-1" d="M291.77,130.48c.11,0,.27.07.11.24-.15,0-.19-.39-.33-.45.25,1.28-.07.62-.14,1.6.4-.64.72.23,1.25,0C292.59,130.85,292,129.13,291.77,130.48Z"/><path class="cls-1" d="M288.87,50.59c-.22.25-.55.27-.58.91C288.53,51.32,288.9,51.38,288.87,50.59Z"/><path class="cls-1" d="M290.69,80.21c.07-1-.51-1.56-.66-.92C290.39,79.17,290.4,80.1,290.69,80.21Z"/><path class="cls-1" d="M289.38,60c1.06-.31,2,1.28,2.74,1C291.49,60,290.34,59,289.38,60Z"/><path class="cls-1" d="M293.92,148.73c.23.4.3,1.26.77.9C294.66,148.8,294.11,148.06,293.92,148.73Z"/><path class="cls-1" d="M293,90c-.31.46-.45.18-.82.16.11,1.11-.63.41-.45,1.67.43-.55.95-1.55,1.34-.27A4.83,4.83,0,0,0,293,90Z"/><path class="cls-1" d="M292.12,89.13c0-.16,0-.31-.11-.24s0,.35,0,.52c.1,0,.13.19.22.22a8.16,8.16,0,0,0,.15-1.35C292,88,292.37,89.18,292.12,89.13Z"/><path class="cls-1" d="M295.09,149.28a3.69,3.69,0,0,0,.18,1.81c.2-.69.51-.69.63.13C296.08,149.72,295.6,149.44,295.09,149.28Z"/><path class="cls-1" d="M293.22,104.69c.18-.19.62.19.61-.39C293.74,104.11,293.09,103.75,293.22,104.69Z"/><path class="cls-1" d="M292.88,66.36c-.24.2-.52.33-.47,1.15C292.6,67.88,293,67.36,292.88,66.36Z"/><path class="cls-1" d="M293,65.82l0,.78c.35,0,.37-.65.58-.9C293.37,65.25,293.32,66,293,65.82Z"/><path class="cls-1" d="M304.93,38.73c.18.4.48,0,.61-.38C305.45,38.15,304.79,37.79,304.93,38.73Z"/><path class="cls-1" d="M307.76,41.85c0-.48-.78-1-.62-.14.48,0,.77.58,1.17.82A1.88,1.88,0,0,0,308,41C308,41.29,307.86,41.57,307.76,41.85Z"/><path class="cls-1" d="M313.3,42.85a8.94,8.94,0,0,1-.12,1.87c.56-.34,1,1.25,1.37.51A3.69,3.69,0,0,0,313.3,42.85Z"/><path class="cls-1" d="M298.31,109.46c-1.11-1.93-2.38-2.85-3.84-2.39-.18-.75,0-.9-.17-1.54-.76.37-1.2-.26-1.51-1.28,0,.79-.23-.21-.41.08a8.18,8.18,0,0,1,.6,2c-1.1,0-1.36,1.74-2.34,1,.16-2.28,1-3.12.88-6-.14-.77-.57-.61-.59-1.73a.45.45,0,0,0-.4.34c-.38-1.77-1.12-1.68-1.91-.93-.15-.87-.07-1.24-.37-1.24-.16-.82.33-.27.16-1.09-.08,0-.13-.19-.12-.5a.46.46,0,0,0-.4.35c-.47-2.08-2.84-2-1.79-5.17.33,0,.75-.33.94.07.09-1.58.87-.24,1.19-1.29-.73.09-1-.58-1.43.55.06-1.64-.52-1.93,0-2.63a1.42,1.42,0,0,1-1-.86c.29-.28-.17-.63-.06-1.3.53.18.61-.61.77-1.2A1.5,1.5,0,0,0,287.84,86c0-.32,0-.74.07-.81.24.53.54.9,1.06.58a20,20,0,0,0-.13-2.87c.78-.7.06-2.57.37-3.77-.43.47-1-.48-1.23.79a5.89,5.89,0,0,0-.81-1.94c0,2.11-1.19,1-1.36-.26-.32.35-.58.83-.88,1.22,0-.26-.09-.29-.12-.5.09-1,.38-1.33.66-1.45-.18.08-.25-.2-.24-.74-.22.19-.64.77-.73-.11.24-.41.77-.05.59-.64-.53.61.07-.91-.37-1.51.22-.67.6-.12.92-.18.1-.68-.09-.81.06-1.07,1.05.11,1.69-.55,2.36-.46-.41-.17,0-1.28.25-1.37.14,1.06.51-.37.75.38-.22.67-.32.46-.71.4-.12.81.12.87,0,1.59.43.34,0-1.13.27-1.11s.37-.17.42.18-.25.26-.17.82c.5-.08.53.44.48,1.49.3,0,.25.19.55.68,0-.5-.15-.55-.15-1,.12-.3.36-.33.49-.63-.24.45.39,1.53.55.68-.12-.23-.23-.47-.35-.72.56-.13.74,1.12,1.05.32-.14,0-.14-.55-.24-.74.25.49.65,0,.7-.67-.24.13-.42.64-.52-.16.46-.64-.32-3.15-.5-1.73.83-.27.1,2.32.23.47-.34-.16-.1.89-.38.86-.39-2.8.57-1.46.79-3.31-.22.52-.54.84-.82.17-.22-2.4-1-3.75-1.79-3.83.32-.11.24-1,.3-1.66-.44.16-.43-.5-.59-1.72-.27.53-.39.66-.72.14-.13.36,0,1.28-.25,1.36a.85.85,0,0,1-.57-1.2c-.4.39-1-.16-1.09,1.27a.93.93,0,0,1,.33.46l-.3.05c.71,1.91-.69,4-1.16,2.08.14,0,.75-.11.4-.34-.26.21-.37,0-.34-.72.18.38.47-.22.48-.89-.4.35-.47-.31-.65-.66-.45,1.25-1.43.81-2.09,2,0-.36-.19-.4-.24-.74.16,0,.36,0,.28-.58-.58-.13-.62.89-1.09,1-.1-.78-.46-1.06-.21,0-.43.25-.72.07-.67-1.17-.17.52-.26.08-.51.1,0-.33.1-.56.28-.58,0-.23-.05-.24-.11-.24,0-.22,0-.26.09-.29l.2,0c-.15.55,0,.34.05,1.05.57-.54.28-.51.68-.93-.27-.13-.39-.78-.66-.92,0-.43.28-.2.29-.58-.48-.89-.4.92-.68,1.19l-.51.1c0-.39,0-1-.15-1a7.87,7.87,0,0,1-.12,1.87c-.24.13-.15-.73-.35-.72,0,.31-.15.32-.3.32-.05.61-.31,1.7.18,1.54.11-.62-.31-.92-.05-1s.32.6.46,1c-.21.72-1-.06-1.24.25.15,0,.14.64-.07.54-.11-.78.14-.8,0-1.58-.48-.15-.56.54-.9.7,0-.33-.15-.33-.14-.76.31-.46-1,1.1-1.38,1.59,0-.27-.1-.3-.13-.5a11.68,11.68,0,0,0,.34-1.65c.26-.27.6.68.72-.14-.42.11-.65-.36-.86-.88.47,0,.17-1.28.53-2,.24.2.9,1.8.78,1.16-.08,0-.13-.19-.13-.5.58-.21,1.05.94,1.33-.52-.35.18-.77.37-1.14,0,.07-.57.26-.85.58-.9.22.2.43.44.65.66.22-.82-.27-2.24.08-2.91-.27-.08-.85-.71-1-.06.26,0,.38.4.55.68-.92,1.75-1.28-1.77-1.27-2.91a1.6,1.6,0,0,1-.67-.91c0-1.13.76-.46.66-1.71-.28-.3-.28,1.09-.4.34.42-.46-.22-1.69.33-1.91,0,.35,0,.7,0,1,.39.06.26-1,.26-1.74a14.5,14.5,0,0,0,9.15-1c0,.69-.12,1.76.21,2.1a8.2,8.2,0,0,1,.11-2.12.1.1,0,0,1-.1-.08l.28-.11c-2.25-1.41-4.62.56-6.95-.4,1-.86,2.3-.24,3.64-1.09-1.9-1.05-4-.77-5.9-1v0c-.27-.06-.63.2-.77-.9a4.08,4.08,0,0,1,0,.8l-.31-.07h0a.83.83,0,0,1,0-.15,1.51,1.51,0,0,1-.33.07,23.1,23.1,0,0,0-2.44-.43,4.54,4.54,0,0,1-.42-1.37c-.08-.71.37-.32.38-.87-.13,0-.08-.27,0-.52a1.64,1.64,0,0,1-.59-.76.56.56,0,0,1,.18-.07,27.93,27.93,0,0,0,3.44.91c0,.27,0,.57,0,.89.45-.3,1.09-.05,1.12-.7,4.17.63,8.63.32,12.11-1.39a3.34,3.34,0,0,0,2.16-2.1,20.89,20.89,0,0,1-12,2.27c-.88-.85-2.1-.7-3.31-.65,0-.13,0-.24,0-.33-.29.13-.67,0-1,.31l-.25,0a2.75,2.75,0,0,1-1-.46.48.48,0,0,0,.09-.19c-.4-.75-.86,0-1-1.12.3.06.76,0,.78-.94-.54.09-.75-.82-1.09-1.36.21-.22,1.6,1.24,1.77.17-.73-.44-1.08-1.46-1.27-2.9-.31-.31-.49.82-.62.12.51.09-.39-1.31-.43-.44.29-.07.25,1.3-.05,1.32a3.86,3.86,0,0,0-.18-1.8,2,2,0,0,0-1.71,1.13c.32-.19.43.49.61-.12.35,1.06.22,1.83.74,2.48-.45.26-.43,0-.7.66-.09-.55.25-.88-.14-.76-.24,1.25-.9.72-1.24,0-.52.56-2.25,2.62-2.37.47-.14,0-.22.16-.29.32-.34.35.29,0,.13.76-.09,0-.11.18-.17.27h0c-.13-.37-.45-1.48-.55-.92A1.69,1.69,0,0,1,266,39a1.64,1.64,0,0,1-1.75-1.22,14.37,14.37,0,0,1-1.58-.09.73.73,0,0,0-.09-.54c-.21.87-1.23-.7-1.52-1.53.42-.25.68-1.76,1.2-1a4.08,4.08,0,0,1,.21-1.08,2.28,2.28,0,0,1,.22.22l.18-.19a1,1,0,0,0,.3.6c0-.22,0-.4-.06-.57a5.86,5.86,0,0,0,3.62.53c-.83-1.08-2-.89-2.93-1.24l-.14-.05c.33-.28.67-.54,1-.84l.1.29a.93.93,0,0,1,0-.37,6.64,6.64,0,0,0,.87-1,15,15,0,0,0-1.77-.12,4,4,0,0,0,.18-1,1.08,1.08,0,0,1,1.15.3c-.32-.81.51-.66.58-.91.06-1.06-.34-.72-.28-1.78-.23.16-.54.7-.63-.14.55-.55,1,.11,1.42-.55-.22-.34.34-1,.46-1.4-.13,0-.07-.28,0-.52-.24-.07-.35-.5-.55-.68.42-.44-.13-.59-.16-1.28.06-.44.51-.05.38-.87-.22-.22-.82-.74-.83.16.54,0,.15,1.78-.1,2.39-.34-1.27-1.18.1-1.43-1.82a6.14,6.14,0,0,1-.26,1.1c-.51-.36-.86-.67-.6-2-.26.09-.34-.33-.45-.7.12-.29.78-.44.84.36.26-.08.3-.56.52-.1.14-.5.24-1.08.34-1.65.54.43.49-.51.93-.19,0-.6-.06-1.21-.08-1.82-.27-.29-.4.85-.52.1a2.66,2.66,0,0,0,.22-2.14c.14-.33.24-.36.41-.09a3,3,0,0,1-.09-2.08c-.27.13-.45,0-.45-.7-.19,0-.21.34-.4.34a3,3,0,0,0-.15-1c.34-.24.33-1.32.52-2.47-.08,0-.13-.19-.13-.5-.37.8-.51-.76-.71.4a5.21,5.21,0,0,1-.09-2.08c.15.31.4.26.4-.34-.4.15-.75.25-1,1.24-.13-.21-.68-.63-.37-1.24,0,.2,0,.52.13.5-.19-1.16-.58-1.28-.86-.62,0-1.05-.66-.58-.38-1.5-.38-.18,0,1.19-.36,1.13-.6-1.2-2.07-.58-3.07.87,0-.08.22.06.22.22-.92.16-2.12-2-2.68.53-.27-.3.15-.83-.15-1,0,.26-.16.36-.2,0,.08-.07.11-.24.08-.54.27.09.42.37.38-.6-1.4-.07-3.14.07-4.35.07-.27,0-.52.86-.73-.11,0,.52.17.48.24.74-.17.27-.27.69-.48.88-.2-1-1-.42-1.44.29-1.26-.78-2.13,1.23-3,.07-.74,1-2.67-.78-3.47,1.21-.13,0-.25,0-.23-.48-.43-.12-.14,1.29-.57,1.17-.23.12-.15-.73-.34-.72-.26.67-.52.66-.37,1.12-.28-.22-.39-1-.67-1.18-.14,1.29-.61.12-.84-.1-1.28,1.14-3.12.79-4.75,2.79.32.13.87-.11.65.68.37-1,.92-.56,1.17-1.84.38.84,1,.19,1.32-.52.32.42.34.36.74.12,0,.52.16.49.24.74-.55,1.69-1.39.65-2.32,1.51,1.17.82,1.8.32,2.9,0,0,.6.07,1,.25,1,.4-1.76,2.31-1.17,2.79-.29.7-.71,1.39-2,1.94-.65-.15-.61,1.2-1.92,1.32-.52,0,.43-.28.2-.28.58.29.3.76-1,1.05.32.25-2.11,1.75.09,2.29-2a1.82,1.82,0,0,1,.28,1.52c.43-.66.54-.52,1.18-1.29.57,2.57,2.49-.7,3.08,1.5-1.23.67-3.54,1-5.06,2.84.58-.59,1.28.74,1.62-.85,0,1.58.81.47.91,1.66-.85-.34-2.31,1.5-2.73-.5,0,.91.39.78.49,1.48-.77.45-1.35-1.67-2.06.4a1.93,1.93,0,0,0-.16-1.28,3.15,3.15,0,0,1-2.38.21c-.34-.08-.73-.93-1.07-.84s-.49.66-.8.68-1.05-.73-.75-.64c-.45-.14-1.08-.46-1.43.55,0-1.17-.88.35-.87-.88-.37.16-.37,1.12-.89,1-.13-.69-.31-1.21-.67-1.18-.8.55-1.54,1.8-2.75,1.07,0,.31.05.73-.07.8-.85.26-1.53,1.93-2.07.14-.3,1.58-.82.19-1.23.25s-1.58,1.88-1.66.07c-.14.34-.07,1.11-.36,1.12,0-.82-.3-.68-.46-1-.23,2-1.36.42-1.7,1.39-1-1.58-2,1.06-3,.33,0-.41,0-.9-.24-.74.05.59.25,1.06,0,1.31L223.7,20a4.91,4.91,0,0,0-.49-.52,3.49,3.49,0,0,0,.06.46c-2.32-.32-4.64-.6-7-.73-6-.34-13.49.34-19.86.09-2.33-.08-4.69.38-6.84-1.42-.37-.18-.45.26-.73.26-.4-.19-.56-.93-.87-1.27-1.75-1.17-3.55-1-5.27-1.48-6.05-1.72-11.56-7-18-6.68,2.76,2.76,7.54,1,9,6.59-.27.78-.69,1-1.19,1.09.07-.07.11-.21.06-.53a1.86,1.86,0,0,1-.59.49,5.69,5.69,0,0,1-.83-.22l-.56-.4c0,.08,0,.15,0,.22a2.82,2.82,0,0,0-2.26,0c-.17-2.12-2.07-.42-2.36-2.31-.77.72-1.41-.5-2.19,0,.65,2.35,3.14.56,3.6,3.32-5.65,1.16-12.78-.31-18.8-1.48-1.4-.27-2.73.27-3.9-1,.39-1.68,2.51.15,2.77-1.85-2.05-1.25-5.12-1.17-8-.92a2,2,0,0,1,0-.26c-.58.28-.77.53-1.31,0,.08-.33.07-.94.25-1-.08-.29-.16-.09-.44-.27a7.5,7.5,0,0,1-.31,1.74l-.51.05c-.18-.43-.35-.88-.47-.05a8.19,8.19,0,0,1-.2-1.78c-.33.27-.32-.91-.52-.27,0-.55.06-.8.25-.75,0-.73-.6.2-.62-.52-.25.27.12.82.27.76-.08.34-.07.95-.25,1s-.08-.64-.1-1c-.33.22-.64.9-.7-.52-.45,1.11-1,.34-1.39.72-.1-.37-.1-.62.08-.76-.23-.82-.54,0-.61-.27-.11,0-.07.46-.08.76-.28-.14-.36.59-.44-.27-.12,1-.62.86-.77,1.75.16-.1.66-1.14.62.21-2.17-.16-3.63-1-5.67-1.05-.18-.65-.47-1.09-.64-1.79a8.33,8.33,0,0,0,2.28-2.13c.86.15,2.55.08,3-1.34-5,.79-12.82.74-17.88,1.88-6.89,1.51-14,2-20.66,3.45a21.66,21.66,0,0,1-5.22.87c-1.2,0-2.36-1.1-3.56-1.24-10-1-20.67.47-31.44,1.1-.13-.75-.39-.18-.59-.38s.07-1.43-.35,0c.29.48.47.34.72.4-3.15.19-6.3.28-9.44.23a5.13,5.13,0,0,0,.77-1.61c.25-3.13-.15-5.39-.85-5.85-1-.69-2.15,2.84-3,1.44-.28.38-1.16.43-1.56,1.22a6.88,6.88,0,0,1,0,1.52c.33.23.9-.21.88,1a1.41,1.41,0,0,0,.26-.75c0,.56.29.18.27,1.27.1-.86.64-.49.6-1.76.46.44.8,1.29.73,3.32l.06.1A66.46,66.46,0,0,1,32.14,10c-1.54.73-3.66,1.07-5.45,1.91,0,5.12-3.5.29-4.2,4,.26.78.83-.1,1.23.77,0,3.54-1.47,8.82.29,10.87-.26.9-.69-.86-1,0,.52,4.09,1,10.77-.14,14.26a1,1,0,0,0,.06.59L19.32,43a25.67,25.67,0,0,0,2.59,4.69,2,2,0,0,0,0,.26c-1.09.54-2.56,0-2.78,3,.62,1.36,1.91,0,2.79.65a3.56,3.56,0,0,0-.52,1.21c-.69.07-1.47-.11-1.74,1.09,0,1.25.94.8,1.27,1.45l0,.23c-.76-.31-.18.47-.33,1.81-2.21,1-4,2.91-5.25,6.61.58,2.75,1.88,4.14,2.92,6-.11.05-.2.23-.19.7.16,0,.26-.21.38-.34.11.21.22.43.32.66a8.9,8.9,0,0,1-.25.9,3.52,3.52,0,0,0-.32,1,.29.29,0,0,1,0,.09v0c-.21,1-.31,2.35-.75,2.8s-1.73-1.4-1.84,0l1.63.44c.27,1.68.32,3.8.45,5.75A3,3,0,0,0,16.35,83a7.19,7.19,0,0,1-.35,4.6c1.1,1.52.83,2.89,1.28,5.5-1.4-.63-1.61,2-3.13,1a5.91,5.91,0,0,0,.48,1.13c-1,.36-2.19,1-2.53,3.63-1-1.19-1-4.09-1.89-5.38-.5.7-.54,2.73-1,3.52a3.31,3.31,0,0,1-.14,2.53c.57,1.27,1.69.92,2.46,1.59,0,2.51-1.14,1.69-.82,5a3,3,0,0,1,.45,1.28,3.22,3.22,0,0,0-.25,1,8.69,8.69,0,0,0,.35,1.44,1.29,1.29,0,0,1-.64-.29c0,1-.67.55-.88,1.11.15,0,.36,1.1.45.26,0-.08.8,0,1.16-.43a1.36,1.36,0,0,1,0,.2c1.1-.24,1.13,2.75,2.21,2.6a14.92,14.92,0,0,1,0,2.11,1.16,1.16,0,0,0-.43.4,1.32,1.32,0,0,1,.39.06c-.17,1.77-.61,3.24-.77,5-.28.31-.07-.82-.35-.52a9.74,9.74,0,0,0-.65,4.55c-.59,1-1.45,1.3-1.8,3a5.24,5.24,0,0,0,2.69-1.45c.24-.18.18.51.35.52-.06,1-.09,1.14.2,1.52,0,.73-.37.84-.36,1.42-.42-.26-1-.74-1.25.43.34-.44.7.06,1,.2a1.91,1.91,0,0,0-.26.72c-.32-.09-.49-.63-.79-.78a4,4,0,0,0,.09,1,26.51,26.51,0,0,0-2,5.26c-.23,0-.5-.11-.6.24.77,2.43,1.5-2.42,2.59-2.21.23.79-.06,1.46.2,2,.17-.06.5-1.68.52,0,.27-.07.24-1,.52-1-.09-.75-.28.14-.44,0,0-1.18.49-.84.78-.74.25-1.53.15-2.79.48-4.3-.09-.44-.3-.52-.36-1,.29-.71.81,0,.87,1-.13,0-.25,0-.34.4.43-.1.82.74.88-.56a.36.36,0,0,1-.5.17c.35-.91,1-.84,1.26-2.17a19.43,19.43,0,0,0-.39-3.81,1.84,1.84,0,0,1,1-1.5c0-3,2-2.32,2.3-5.26a3.08,3.08,0,0,1,3-.93c.05-.69-.18-.51-.19-1,.65-.69,1.8,0,1.9-2.23a1.51,1.51,0,0,0,.53-.21,7.08,7.08,0,0,0,.52,3.88c-.1.46-.44.44-.46,1,0,1,.61.77.75,1.54-.24.36-.65.38-.71,1,.31,1.6,1,3.09,1.16,4.65-.16,1.24-.3,2.34-.43,3.38h0c-.31,2.43-.55,4.56-.74,7.31a5.25,5.25,0,0,1-1.71-.55c.33,1.52.93,1.91,1.61,2.19v.07c0,.46-.3.14-.35.49a4.69,4.69,0,0,1,.08.59c-.34-.07-.68-.22-.92-.25a2.45,2.45,0,0,1-.27,2.39c-.24,0-.53-.19-.55.27a.45.45,0,0,0,.46.28,1.57,1.57,0,0,0,1.58.18l0,.62c-.55.32-.79.1-1.18-.55a9.55,9.55,0,0,1,.48,1.9c.15-.44.43-.58.7-.49,0,.58-.05,1.21-.07,1.91.08.2.2.28.35.27a6.26,6.26,0,0,0-.09,1.85,47.58,47.58,0,0,1-6.4-.16c1.09,1.38,3,.7,4.57.74.61,0,1.28.11,1.91.12a10.56,10.56,0,0,1,.16,3c2-.14,2.75,6,4.69,6a4.65,4.65,0,0,1,.58-2.27c-.93-2.11-2.15-3.37-3-5.66a1.66,1.66,0,0,1,.25-1.26c.2-.09,0,1.16.27.77-.1-3,1.43-.55,2.09-.45.2-.16.22-.83.42-1,.48.83,1.31,1.13,1.67.55.88,1.07,2.09,2.23,2.71.84-1,.55-2.16-.44-2.9-2.11.08-.44.18-.55.3-.51l.2.18a3,3,0,0,0,.47.58c-.08.27-.22.61,0,.79,0-.32.17-.3.32-.28a2.49,2.49,0,0,0,0-.55l.39.23v0l0,0a11.65,11.65,0,0,0,1.53.7,1,1,0,0,0,0,.1H34c0,.55.16.61.35.64-.07.52-.21.85-.51.71a2.37,2.37,0,0,1-.56,2.23c-.66-.4-1.41-.28-2-.52,0,1.29.45.19.57.81-.37.87-.5-.59-1-.25.17,1.1-.19,1-.32,1.37a4.48,4.48,0,0,0,.91.81c-.37.91-.9-.15-1.12-.53.11.67-.44.28-.54,1.1a4.94,4.94,0,0,0,3.11.22c0-.83-1-.84-.69-1.63.21,0,.74.91.93.44,0,.39,0,.77-.28.73.16.22.25.66.45.77-.1-1.16.2-1.21.15-2.27a.17.17,0,0,0-.25.1v-.06c-.3-.22-.6.84-.78,0,.16-1.21,1.26-.28,1.12.25.13-.4.41-.42.54-.83a3.12,3.12,0,0,1,.31.66,8,8,0,0,1-.06,1.15c.57-.53.74,1.88,1.33,2.07.16.8-.31,1-.07,1.26s.16-.19.17-.5c.57.31.79.08,1.32.54.3.94.47,2.26,1.15,2.06a22.36,22.36,0,0,0-.05,3c1.14,2,2.75-3.46,3.33,1.35a4.08,4.08,0,0,0,.06-2.28c1.09-1.9,2.79-2.84,4.08-2.68-.1.62-.06,1.65-.33,1.77a11.56,11.56,0,0,1,0,2.79,1.91,1.91,0,0,1,.69-1c-.06-.24-.22-.94.08-.75a1.64,1.64,0,0,0-.27-.77c.18-.28.25-.09.52-.49.16,0,.06.86.18,1,.23-.08.31-.6.25-1.51.33.44.17,0,.34-.5.11-.13.14.65.08.93.28-.26.89.12,1.25.63-.38-.68.74-.59.16-1,1-.53,1.56-.51,2.26-1.28l.17.44a2.86,2.86,0,0,1,3,2c12-1.17,24.38,1.44,36.73,2.26,32.9,2.22,66.36,8,97.43,6.09,1.6-.09,2.75-1.8,3.94-2.64-15.3-2.53-29.4.62-44.42-2.86,19-.4,39.27-1.18,59.07-1.59.14.54.26.93.41.39s-.32,0-.35-.39l2.88-.06c0,.05,0,.11.06.2.54-.39.62.65.36,1.24.47-.59.51.46.92-.44,0,.33.14.34.13.77s-.15.62-.39.59a8.73,8.73,0,0,0,.92,1.93c.11-.68-.44-.74-.15-1,.44.21.38-.63.7-.67,0,1.24.54.69.77,1.16-.41,1.19-.93-.87-1.12.49.28-.07.65.27.58,1.2-.24.2-.76-.18-.81.42.52.39.92-.14,1.1,1.62.12-1.17.84-.09,1.2-1,.2.49,0,.52.15,1,.3-.5.46.88.53.16-.26,0-.06-.86.06-.8,0,.66.37.45.64.4,0,.8.22.73.17,1.54,1-1,1.77.95,2.72.51.08.37-.06,1.37.17,1.28.17-.8.47-1.07.79-.68,0,.34-.17.27-.18.56a1.07,1.07,0,0,0,.74.22c-.35.06-.55.37-.86.36-12.64-.59-25.64-.66-38.76-.47-1,0-2,0-3,0a.24.24,0,0,0-.38-.15v.15c-12,0-24.17-1.07-36.34-1.73l-.66,0c-.1-.13-.19-.15-.27,0l-.27,0c-.63-1.47-1.66-2.6-2.73-1.66-.61-.61-1.52-2.06-2.11-.9-.12-.93-.8-.12-1.07-.58,0,.32,0,.62-.18.56-1.47-1.42-2.89-.33-4.42-1.49,0,1.39-.73.32-.89,1,.41.12.62.85,1,1.12,0-.31-.05-.74.07-.8a1.19,1.19,0,0,1,.36,1c.08.82-.51.21-.37,1.13.77-1.13,1.49-.55,2.19.22a293.14,293.14,0,0,1-30.55-3.28c-13.17-2.22-26.23-7.12-38.93-4-.09,2.15.85,1.53,1.38,2.12.65.74.91,2,1.37,2.58s1.16.6,1.81,1.26.84,1.81,1.58,2.17c1.52.71,3.73-.33,5.74-.4,6.24-.22,12.14,1.33,17.5,2.56,15.88,3.68,32.1,2.87,47.49,3.7,4.16.23,8.13,1.32,12,.55a49.37,49.37,0,0,1,5.53-1c2.38-.19,3.91-1.21,5.54-1.43,5.12-.81,10.45.94,15.5,1a289.52,289.52,0,0,0,40.85-2,1.42,1.42,0,0,1,.3,0,.41.41,0,0,0-.08.23c.22.36.67.56.79-.22,1,0,1.91,0,1.47-1.46.26.14.4.45.21,1.19.35-.84,1.25-1.5,1.24,0,.33-.23,0-1.19.15-1.34,1.15,2.15,2.31.19,3.4,1.7,0-1.18,1,1.24,1.22-.51a1.18,1.18,0,0,1,.34.72c-1.36,1.14-2,.95-3.38.94,0,1.41.56,1,.62,2.24-2.26,2.08-4.25,3.19-6.36,1.52-2.34.93-4.84-.53-7,2.43-1.35.18-3.26.92-4.85.44.72,1.95,2.33-.54,3.16,1.21,0,.61,0,1.35-.12,1.87a4.29,4.29,0,0,1,1.57,2.58c1.13-.51,2.41.77,3.2,2.25.33.14.17-.75.49-.62,0,.64.22.53.16,1.29.3-.44.69-.41.85.35.59-1.05.61.52,1.22-.5,0,.26,0,.52,0,.78,1.14-.28,2,1.69,3,.72,0,.49.14.54.15,1,.62.11.88-.5,1.16.56,1.73-.84,3.25,1.61,5.06-.48a1.15,1.15,0,0,0,.34.72c.67-.93,2.15-.78,2.84-1.35.14-.49.24-1.08.35-1.64.28-.06-.22.76.22.48s-.38-.89,0-1c.08.34.24.45.43.44-.12-1.11.45-.79.79-.94.43-1.93,1.57-2.38,2-4.34,1.41.14,2.07-2,2.7-4.48.16.77.38-.46.53.16a5.53,5.53,0,0,1-.42-2.29c.14,0,.13-.36.3-.32,0,.49-.09.6-.06,1.07a3.21,3.21,0,0,1,.77-1.47c-.63-.48.43-1.7.56-1.43-.26-.78-.76-.28-1,.2,0-.39-.08-.95.06-1.06.64-.16,1.21.52,2,.14.19-.64-.25-1.42.36-1.39,0,1.06.47,1.18.08,1.83.48.22.37-.8.8-.69l0,.78c.33.14.17-.75.49-.62a13.8,13.8,0,0,1,1.35,2.36c-.57-.38-1.08.81-1.46-.23.22-.25.55-.26.58-.91-.53-.64-.62,1.44-1.13.23-.81,1.49-1.82-.62-2.23,1.23.83.09,1.63,2.81,1.89,1.38-.11.34-.52.11-.49-.34s.12-.86.37-.87c.41,1.06.4.12,1,.06-.27.78.58.82.07,1.56.25.46.89-.9,1,.6-.21.2-.69-.19-.71.41.35,0-.36.88.05,1,.46-1.11.68.92,1.14,0,0,.34-.11.39-.07.81.31-.36.27-.18.53.16.07-1-.4-.34-.37-1.25,1.12-.29,1.41-.75,2,.92-.12.06-.29,0-.29.32.13.08.22.3.24.74.49.1.66-.5.89-1,1.31.9,3,2.52,4.93,1.38,0,.52-.27.39-.16,1.09a2.11,2.11,0,0,0,.41-2.45c.25-.16.25.43.53.16,0-.53,0-1-.07-1.57.46,0,.63-.56.66-1.44-.23-.48-.08-2.12-.41-2.29-.25.83-.44.84-.81.43,0,.71.23,1.9-.24,1.62.24-1.45,0-.94-.37-1.24.05-1.17.6-1.87,1-1,0-.34,0-.69,0-1-.6.18-.88.36-1.29,1.31a5.83,5.83,0,0,1,.46-1.41c-1-.29-3.62.81-3.54-2.71-.44-.44-.93-.9-1.47-.24-.05.85.29.49.36,1-.44.6-.85.41-1.08-.83.07,1-.6,1.12-.7.4,0,1-.53,1.09-.71.4.07-.07.11-.24.08-.54.15-.08.38,0,.4-.34a.77.77,0,0,1-.45-.71c-.18.4-.35.05-.48.89.19.12.4-.85.52-.1-.15.55-.23,1.27-.56,1.43-.65-1.81-.3-2.51.89-3.34.27.69.43,1,.85.62.11-.67-.34-1-.05-1.3.3-.12.39.89.62.14.11-1-.46,0-.35-1,.33-1.25.75-.18,1.2-1,0,.3,0,.74.14.76.51-1,1.15-.52,2.13-1-.05.85.36.29.36,1,.53-.81,1.19-.32,1.42-.55-.8,1.5-2.11,1.55-2.88.58.24.93.84.78,1.11,1.62.33.13.17-.76.49-.63.21.85.51,1.21.09,1.83.4-.09.5,0,.77-1.21-.2-.21-.31.85-.41.09.12-1.16.73,0,1,.05-.06-.8-.47-.54-.57-1.2.43.14.44,0,.92-.18a3.47,3.47,0,0,0-.14-1c.61-.92,1.56-.37,1.79-1.66-.14-.59-.43-.65-.58-1.21.51-.22,1.18,1.37,1.72,1.24-.13.43-.52.33-.81.42.38,1.38.7.31.92-.18.21.41.21,1.52.25,1,.37-.1-.25-.82.07-.8l.21,0a3.07,3.07,0,0,0,.17,1.54c0-.54.26-.56.26-1.1-.25.08-.3.56-.42-.18.43-.46.66.06,1.11-.75,0,.94.54,1.67.76.9-.25.09-.49.15-.53-.41.41.16.93-.89,1.27-1.58a2,2,0,0,0-.47-1.48c0,.83.38.62.15,1.28-.53-.22-.86-.52-1.32.53-.3-.5-.23-2.58-.52-2.26.22-.11,0-1.15.15-1.35-.31.19-.39-.58-.25-1-.31.36-.27,0-.5.36-.23-1.08-.46-2.13-.94-2.44,0,.66.5,1.39.29,1.78-.28.06-.26-.77-.55-.67-.08,1.38,1.21,1.21,1,2.42-.34.05-.42-.67-.84-.36,0-1.1-.63-1-.92-1.92.18-.2.46.67.52-.1-.41-.37.2-.48.17-.83,0-.18-.28-.82-.15-1,.7,0,1.5-1,2-1.8l.14,0c.93.47,1.85.94,2.75,1.42a.35.35,0,0,0,.1.23c.13,0,.18,0,.18-.08l.15.08a3.45,3.45,0,0,0,0,.46c.56-.67,1.12,1.34,1.14,2.4.17-.27.51-.19.59-.64-.16-.89-.93-.37-.7-1.66l.51.27a2,2,0,0,1-.06.39c.36-.21.79.89.68,1.18s-.31-1.16-.43-.18c.14.08.23.3.24.74.32-.49.5-.32.64.4.12-.73,1-.22,1.26.28.05.9-.43.68-.46,1.41.23-.1.34.14.35.72-.12.06-.3,0-.3.32.25,0,.5-.06.61-.39-.48-2.12.59-1.75.7-2.77.31.47.44.39.83.1a1.71,1.71,0,0,1,.24-1.62c-.12-1.86,0-3.62.47-3.51-.12,0-.13-.4-.14-.77-.18,0-.56.82-.71.14.17-.52.19.12.51-.09-.17-.83.32-.27.16-1.09-.27,0-.52,0-.62-.56.45-.6,1-1.24,1.62-.67.23-.68.84-.48,1-1.38.85-.13,1.55-1,2.19-2a3.14,3.14,0,0,1,.13,1.13c-.15.08-.38,0-.4.34.52-.2.21,2.13.71,2a7.45,7.45,0,0,1,.36-3.49c-.12,0-.28.11-.31-.2.66-.34.47-2.46,1.34-2.37.15.13.06,1,.25,1a7,7,0,0,1,.9-3.08,8.17,8.17,0,0,1,.59,1.47,1.43,1.43,0,0,0-.29.58c.55-.38.8.78.48,1.48.46,0,.5-.85.89-1,0,.85.29.49.36,1-.12,1.29-.73.53-.89,1,.38,1.6-1.24,1-1.46,2.13.23,2,.65-.29,1.23-.24.25.09.47.92.28,1.52.61-.57,1.08-1.42,1.64-.33.24-.39-.22-.74.06-1.06a1.07,1.07,0,0,1,.33.46c-.18,0-.26.25-.29.58.28,0,.6.15.78,1.17-.07-.51.43-.94.5-.37-.14,0-.07.48-.18.56-.58,0-1.08.27-1.08,1.53a17.54,17.54,0,0,0,1.5,3.38c-.47.21-.65-.46-.66-.92-.1.84-.51-.47-.49.63.28.52.7.59.8,1.68.13.82-.24.59-.26,1.1a3.48,3.48,0,0,1,1.05,2.69c.32.13.17-.76.49-.63.18.89-.22,1.73.09,2.09a6,6,0,0,1,.44-1.67c.05.37.2.41.24.75,0,.52-.61,0-.47.88.24.23.4.74.75.64-.09-.73-.44-1.25,0-1.59.21.42.36,1,.58,1.47a10.28,10.28,0,0,1-.08-4.2c-.31.16-.25-.81-.37-1.24.19-.15.64.23.49-.62-.38-.15-.28,0-.55-.68.16,1.45-.44,3.24-.84,2a2.17,2.17,0,0,0,0-1.33c-.3,0-.33,1.12-.51.11.49-.16-.07-.82-.15-1l-.06-1.3c.4,0,.85-1,1.12-.49,0,.6-.56.08-.48.88.39.65.61,0,1,.6a1.59,1.59,0,0,0,.28-.84c-.1-.39-.35-.32-.36-1,.13,0,.16.31.32.2,0-.17,0-.34,0-.52s0-.51-.13-.5c-.64.31-1.24.24-1.48-.76.47.64.34-.05.92-.18,0,.26,0,.52,0,.78.31-.42.34-.13.72-.14-.34-.7-.58-.55-.6-1.73-.31.78-.87.6-1.33.56.43-.08,0-2,0-1.87-.45.41-.16,2.32-.78,1.21.27-.16.35-.71.24-1.63-.34.25-.36-.47-.55-.68.27-.08.34-.55.48-.89-.39-.46.46-.75.05-1.32-.28.52-.33.42-.59.64,0-1.21-.87-1.59-.43-2.54.31.34.42-.18.84.1,0-.73-.23-.49-.26-1a3.3,3.3,0,0,0,.89-1.22,3.46,3.46,0,0,1-.17-1.55c.24,1.21.78.12,1.14.21a1.43,1.43,0,0,1,0-1.23c-.27,0-.63.36-.55-.68.39.39.8-.08,1.12-.49a8.87,8.87,0,0,1,.3,2.05.7.7,0,0,0,.39-.61c-.46-.25-.05-1.29-.21-2.32.36,0,.3-1,.57-1.17,0,1.26.41,2.11.13,2.87.37,0,.51.3.82-.16a5.4,5.4,0,0,0,1,3c.17-.5-.18-.78.16-1.08.13.5.47.32.47,1.22-.26.36-.48-.71-.4.34.61.09.84.87,1.19,1.08-.34.48-1,2.33-1.41,1.07,0-.52.27-.39.16-1.09-.34-.24-.44.26-.83-.09a4.07,4.07,0,0,0,0,1.32c.12,0,.29-.1.32.2.07,1.16-.35,1.31-.76,1.47.59.72.64,2.76.6,4.08.25.12.48.29.83.1-.35,1.06.33.49.45,1-.31.56-.1.7.15,1,0,.67-.38.45-.36,1.12.19.39.5.42.66.92a6.87,6.87,0,0,1,0-2.36c-.39-.11-.33-1.75-.58-1.47-.08-.71.37-.31.37-.86-.15-.11-.27-.34-.43-.44,0,.39.08,1-.06,1.06a16.83,16.83,0,0,1-.73-2.48c.69-.44.64,1.4,1.29,1.06-.17.5.08.75.16,1.28.36.12.09-1.09.48-.88s.07.95.25,1c.2-.59-.12-.83.05-1.32-.32.18-.47-.14-.46-1,.46-.39.9,2,1.16.3l-.52.11c0-.84-.29-1,.05-1.33.24,1,.29-.65.58-.91-.31-.78-.4-.5-.69-1.43.29.12-.12-1.22.16-1.09s.26,1.93.46,1c-.3-.49-.11-1.09-.27-1.52-.33-.07-.4.7-.53-.16.23-.93.87.28.92-.19a5,5,0,0,1-.48-1.74c.37-.14.47-.89.88-1-.15,1.46.58.21.67.93-.07,1.07-.42,0-.81.42a2.29,2.29,0,0,1,.07,1.56c.41-.76.64.19.46,1.22.49-1.37,1,.55,1.87-.1-.13-1.47.3-.45.41-.08,0-.47-.35-1.46-.08-1.82.13,0,.15.3.32.19,0-1,.33-1.18.31-2.17-.08,0-.2,0-.21-.21.33.24.78.13,1.06.57-.18,1.32.1,3.68.59,4.09-.14.73-.84,1.52-.51,2.47.07-.47.15-.94.48-.88.05.45-.23,1.35.07,1.56.45-.83.08-2,.39-3-.19-.2-.38-.41-.37-1.24.32.13.36-.34.61-.38.2-1.71.08-4.08.49-5.36-.37-.08-.29,1.3-.6.64,0-.69.3-.63.25-1.36-.16,0-.35.11-.33-.46.12-.07.29,0,.3-.32a16.59,16.59,0,0,1-.49-1.74c.77-.22.56-2.1,0-2.37a10.65,10.65,0,0,1,.61-2.49c.4,1.07.06,1.52.12,2.6.8.48.44-3.41.09-2.64.11-.68.33-.53.6-.38-.13-.82.33-.43.26-1.11-.23.12-.38,0-.43-.44.12-.29.37-.33.49-.62a39.47,39.47,0,0,1-.2-4.43c-.2-.34-.54-.28-.66-.92a2.64,2.64,0,0,0,0-1.59.46.46,0,0,0,.4-.34c.07-1.1-.26-1-.29-1.79.3,0,.67-.27.83.1,0-.48.09-.59.06-1.06-.33-.28-.54.88-.72.14s.33-1,.49-.62c.14-1.54,1.46-3.16.32-4.53.14-.11.18-.42.4-.34a7.94,7.94,0,0,0-.4-2c.14-.09.16-.46.29-.58.28-.28.28.31.52.16.41-1.93-.31-5.46-1.19-3.45a2.83,2.83,0,0,1,.24-1.63c.38.23.7.62,1.17.56.89,2.32,1.62,5.34.65,7.76-.36.89-.75.24-.86,1.75.47-.17.6-.51.94.08-.22-2.13,1.27-.64,1.59-1.63.17.27.17,1.06.45,1a5,5,0,0,0,.48-.89c.43.73,1.07-.08,2,.14a3.87,3.87,0,0,1-.08.54c1.06-.73,2.15.67,3.06-1.13.42.07.64.77,1.17.55a8.52,8.52,0,0,0,.28,1.79C301.32,116.61,300.35,109.45,298.31,109.46Zm-10.1-40.85c-.21.72-.5,1-.81.42C287.59,68,287.78,68.78,288.21,68.61Zm-2.35.73c.12,0,.32-.83.06-.81.18-.63.74.1.95.34,0,1.19-.68.34-.82.16.14.86.5.67.17,1.55.43.48,1.08-.77,1.19,1.08-.67.25-1.47.93-2-.66-.19-.21-.55.12-.55-.68.28,0,.64-.37.55.68,0-.6.41-.55.58-.9-.44-.56-1-1-1.45,0C284.28,68.59,285.48,68.43,285.86,69.34Zm-8.61-21.18c0-.39.23-.23.28-.5a1.09,1.09,0,0,1,.87.74c-.43,0-.82,0-1.17,0C277.24,48.31,277.24,48.24,277.25,48.16Zm-.54-.52c0,.38-.26.27-.28.64l-.12,0a1.26,1.26,0,0,1-.12-.58Zm.5-4.62c-.15,0-.29.16-.37.49a2.39,2.39,0,0,1-.13-.58C276.88,43,277,43,277.21,43Zm-3.63-2.8v0h0Zm-8.85-12.71c.08.81-.47.29-.48.89-.17,0,.06-1.11-.08-1.83C264.47,26.53,264.5,27.31,264.73,27.51ZM239.47,12c-.71-1.28.44-1.94.75-1.72-.11-.09,0,1.15.12.23.16.2,0,.4.15,1C240,11.56,239.63,10.83,239.47,12Zm2.14-.95c.62-.24,1.36-1.32,1.92-.91C243.24,11.46,242.06,12.11,241.61,11.06Zm2.83-1.61c0-.67.35-.7.5-.36C244.87,9.56,244.61,9.83,244.44,9.45ZM12.93,130.62l0,0s0,0,0,0ZM23.67,21c.23-.54.62,0,.62.77C24.11,22.14,23.66,21.78,23.67,21Zm8.29,126a.08.08,0,0,0,0,0h0Zm.74-1.88a2.15,2.15,0,0,1-.84,0,.85.85,0,0,1-.14-.21c.08-1.2.64.24,1-.22A2.12,2.12,0,0,1,32.7,145.05Zm1.17,7.17-.24-.27a1.74,1.74,0,0,0,.17-.53C33.94,151.54,34.1,152.19,33.87,152.22Zm0-.91a.88.88,0,0,0,0-.34c.09-.06.18,0,.22.1Zm3-6.59a3.17,3.17,0,0,1-.15-.37,1.92,1.92,0,0,1,.32.09A1.48,1.48,0,0,0,36.78,144.72Zm8.16,12.39a2.29,2.29,0,0,1,0,1.27,1.6,1.6,0,0,1-1.23-.8c.26-.16-.08-.54,0-1,.36.18.21-1.06.52-1,.51,1.14,1,.16,1.49.55C45.54,156.69,45.21,156.82,44.94,157.11ZM48.2,160c0-.71-.47.18-.44-.52.34,0,.56-1.27.79-.23C48.26,159,48.43,160.07,48.2,160ZM123.44,27a2.09,2.09,0,0,0,.27.16,1.72,1.72,0,0,0-.37.25A1.75,1.75,0,0,1,123.44,27Zm-7.24-.41a.46.46,0,0,0-.07.17.79.79,0,0,1-.08-.16ZM116.13,28c0-.07-.06-.13-.08-.19.15-.45.37-.21.48.22Zm.27-1.37.47,0a.75.75,0,0,1,0,.16C116.85,27.63,116.62,26.84,116.4,26.59Zm.62,0,.5.06C117.34,27,117.17,26.88,117,26.63Zm.37,1.41c0-.14.06-.42.14-.48a1.22,1.22,0,0,0,.13.49Zm3.63.31c-.35.06-.29-.78-.62-.78a5.86,5.86,0,0,1-2.51.48,2.3,2.3,0,0,1-.28-1.35l.5.08a1.43,1.43,0,0,0-.14,1c.1,0,.07-.46.08-.75.35.52.85-.48,1.23.28a1.19,1.19,0,0,0,0-.39,4.1,4.1,0,0,0,1.65,0,4.18,4.18,0,0,1-.05.47c.07-.32.22-.45.39-.49A2.07,2.07,0,0,1,121,28.35Zm1.31-.07a.22.22,0,0,0,0-.08l0,.07c-.14,0-.28-.08-.41-.12-.05-1,.33-.69.61-.71-.13-1.06-.57,0-.78.23a3.91,3.91,0,0,1,.07.45.44.44,0,0,0-.29,0l0-1.05a.5.5,0,0,1,.19-.13h0a1.05,1.05,0,0,1,1,.14,4.11,4.11,0,0,1,0,.91c.13-.1.18-.42.26-.68a1.32,1.32,0,0,1,.26.53A.64.64,0,0,1,122.33,28.28Zm3.8.24c-.18-.76-.41.48-.73.26-.38-1-1.37-.2-1.93-.22a2.07,2.07,0,0,1-.14-1c.17.15.51.07.66-.28.77.18,1.29-.54,2.12-.55C126.08,27.75,126.59,27.9,126.13,28.52Zm7.47-17.76a.76.76,0,0,0,0,.14h0S133.59,10.81,133.6,10.76Zm-1.41-.54a1.74,1.74,0,0,0,.53.52,10.89,10.89,0,0,1,.43-1.26c.22.07-.12.44,0,1,.16-.76.28,0,.35.41a10.13,10.13,0,0,1-1.35,0A3.56,3.56,0,0,0,132.19,10.22Zm-5.08,18.53a1.45,1.45,0,0,1-.38-1.29c.24-.89.63.06,1-.53C127.67,27.88,127.52,28.59,127.11,28.75Zm3-.05v0l0,0c-.21,0-.23.14-.23.3a.83.83,0,0,0-.09.43.18.18,0,0,1-.09.06v-.07h0s0,0,0-.07,0-.06,0-.09a2.49,2.49,0,0,1-.15-.6l-.17.19c-.32-.14-.73-.08-.65-1.14.59.25,1-.73,1.45,0v1Zm4.56.44a2.91,2.91,0,0,0-1.42-.14h-.43a.64.64,0,0,0,0,.07l-.31.05c0-.18-.1-.27-.24-.13v.15a2.12,2.12,0,0,1-1.41-.44c0,.38,0,.86-.2.79a3.41,3.41,0,0,0,0-.54h-.11c-.1-.58-.32-.71-.11-1.53,1.67-.27,2.92.7,4.27-.08A10.54,10.54,0,0,1,134.68,29.14Zm.41-17.57v.14c0-.07,0-.14-.05-.22A.56.56,0,0,1,135.09,11.57ZM141.29,29a.71.71,0,0,0-.17.42l.08-.05a.68.68,0,0,0-.17.4H141a2.35,2.35,0,0,0-1.25-.62l-.18-.23c-.09.05-.19.07-.26.2a3,3,0,0,0-.6,0c-.28-.33-.54-.48-.8,0,0,.07,0,.12,0,.16l-.2,0c0-.21-.16-.15-.17-.46a2.06,2.06,0,0,1-.1.5,3.3,3.3,0,0,1-.94,0c0-.18,0-.36,0-.54a1,1,0,0,1-.33.44,2.41,2.41,0,0,1-1.25-1.69c1.57-.15,2.59-.48,3.77,1,1-1.14,2-.27,2.81-.3C141.27,28.31,141.23,28.68,141.29,29Zm6.08,1.49a2,2,0,0,0-.33-.58c.05-.1.09-.2.12-.27,0-.27-.18-.18-.18-.51a1.49,1.49,0,0,1-.18.55,1.32,1.32,0,0,0-.42-.23c-.33-.18-.28.43-.39.69l-.09,0c0-.46-.13-.68-.36-.64a1.73,1.73,0,0,1-3,.46,2.68,2.68,0,0,0,0-.42c-.08-.05-.08.1-.09.26a3.82,3.82,0,0,1-.18-.77c-.1.05,0,.25,0,.25a1.44,1.44,0,0,1,0,.3A4.11,4.11,0,0,1,141.6,28c3,.14,6.26.05,10.24.33C151.36,31.6,148.29,29,147.37,30.49Zm23.89-1.79a2,2,0,0,0,.09.59c-5.9.18-11.91.79-17.28.81-.21-.14,0-1.24-.26-1.3-.35,1.28-.88.31-1.47,0,0,.64,0,1.25-.22,1.31a4.2,4.2,0,0,1,0-1.54,2.23,2.23,0,0,0,1.44-.82c1.66,1.63,3.59-.52,5.5.93.5-.89,2.28-.76,2.8-.05,2.84-.25,7.26-1.58,10.6-.2A1.31,1.31,0,0,1,171.26,28.7Zm1.86-11.61c1.21-1.05,2.86,1.2,4.28,1.47C176.54,18.53,174,18.66,173.12,17.09Zm40,150.29c-.06-.67.19-.71.38-.86C213.65,167.44,213.37,167.86,213.15,167.38ZM228.94,175c-.21-.87.63-1.38.6-.39C229.15,174.27,229.3,174.87,228.94,175Zm2,13.52c.08-.63,0-1.66.35-1.64C231.4,187.53,231.33,188.51,231,188.56Zm19.52-8.86a9.88,9.88,0,0,0,.17,1.54l-.41.08c.05-.86-.35-.3-.44-.7C250.16,180.62,250,179.71,250.5,179.7Zm-1.2,1c0,.82-.22.95-.47,1.15A1.31,1.31,0,0,1,249.3,180.72Zm-7.59-.59c.1,1.51-.3.73-.57,1.16C241.06,180.34,241.48,180.43,241.71,180.13Zm4.66-16.44a.43.43,0,0,1-.08-.25l.16.09A.8.8,0,0,0,246.37,163.69Zm3-4.6a2.05,2.05,0,0,0-.3.63c-.19-.12-.18-.43-.22-.65A4.61,4.61,0,0,1,249.4,159.09Zm-1.7,6.43c.06.5.31.42.26,1.27-.3,0-.27-.95-.65-.66.13-1.28-.39-.9-.68-1.18a5.4,5.4,0,0,1,.11-1.25c.71.41,1.41.83,2.11,1.25C248.49,165.18,248.11,165.6,247.7,165.52Zm1.67,2.57c-.32,0-.24-1.26-.67-.92a.79.79,0,0,1,.7-.66A10,10,0,0,1,249.37,168.09Zm.21-2.15a1.29,1.29,0,0,1,0-.52l.4.24C249.85,165.9,249.76,166.34,249.58,165.94Zm.94,2.44c-.27.26-.55.54-.81.43a3,3,0,0,0,.07-.8C250.09,167.92,250.28,168.22,250.52,168.38Zm-.3-2c-.2-.09-.23-.32-.16-.66l.16.09C250.21,165.94,250.22,166.16,250.22,166.34Zm.46-.3a1.94,1.94,0,0,0,0,.2c-.23.21-.3-.07-.37-.38Zm-.08-5.3c-.25,0-.45-.42-.62.13.12.41.48.09.55.68-.24.39-.5.18-.93.18.3.48.36,1.68.89,1.4.14.76-.2.5-.38.6v.08l-.52-.51c.08,0,.17-.12.28-.31-.43.24-.93-1.31-1.05-.37-.38-.32-.77-.63-1.17-.94.8-.23,1.36.17,2.14-.51-.48-1,.25-1-.06-2.2a.91.91,0,0,1,.26-.38c.12.36.31.31.14.93,0,.57.37,0,.52.16C250.69,160.15,250.55,160.25,250.6,160.74Zm-.18-1.54a1.06,1.06,0,0,1,.14-.8l.15,0c0,.3,0,.74,0,1C250.66,159.28,250.57,159.16,250.42,159.2Zm0-144.09c.27-1.44,1.24-.36,1.92-1.18C252.14,15.57,250.94,15.51,250.39,15.11Zm1,143.9s-.07-.2-.08-.49a4.1,4.1,0,0,0,1.31-.06C252.12,158.89,251.58,159.53,251.35,159Zm1.57-147.57c-.09-1.26.45-.51.71-.4C253.61,11.94,253.15,11.54,252.92,11.44Zm.93-.18.41-.08C254.38,12.17,253.81,12.28,253.85,11.26Zm.81,146.39a.67.67,0,0,1,.14-.28l.12-.09.08,0a2.56,2.56,0,0,0,.12.71ZM257.52,9.74c0-.77.58-.82.52.16C257.83,10.59,257.83,9.55,257.52,9.74Zm4.24,23.35s0,0,0-.06a1.93,1.93,0,0,1,.47.29C262,33.46,262,33.51,261.76,33.09Zm.27-17.4c.42-.62-.33-2.25.42-2.19C262.51,14.65,262.53,15.72,262,15.69Zm2.33-6c.06.49-.27,1.19.14,1,0,.35-.24.26-.4.34.18-.54,0-.66-.05-1.31Zm-.23,1.89c-.17.67-.58.83-.65,1.71-.22-.18,0-1.39,0-1.85C263.81,11.2,263.89,11.64,264.13,11.59Zm-1.08-3.21c.21,0,.17.69.44.44a2.76,2.76,0,0,1-.59.91C262.79,8.94,263.25,9.34,263.05,8.38Zm.7,6.44c.11-.12.24-.51.08-.54-.27-.51.33,0,.42.18a20.62,20.62,0,0,1-.36,3.49c-.44-.63-.64-2-1.05-2.69C263.22,14.7,263.35,14.26,263.75,14.82ZM263,18.39c0,.35,0,.7,0,1.05-.32.38-.11-.83-.43-.45A.66.66,0,0,1,263,18.39ZM261.8,8.11c.15.34.77-.54.89-1,.05,1.43-.75,2.14-1.05,2.05C261.62,8.52,262.1,8.73,261.8,8.11Zm-.49,3c.32.62-.25,1.36-.68,1.18C260.56,11.27,261.25,11.85,261.31,11.1Zm-1.34.26c0,.67-.32.59-.59.65C259.48,11.29,259.68,11.14,260,11.36Zm-.83-2.46c0,.71.19.49,0,1l.21,0C259.59,10.85,258.32,9.11,259.14,8.9Zm-.09,148.32c0-.26-.1-.29-.13-.5s0-.36.06-.49a3.71,3.71,0,0,0,.57.18A2.13,2.13,0,0,0,259.05,157.22Zm1.1-.74c0,1-.43.84-.6.38C259.54,156.28,260,156.67,260.15,156.48Zm-.12,4.23c-.31.25-.39-.19-.63-.14a8.8,8.8,0,0,0-.17-1.54c.45.29,1.08-1.25,1.28.8C260.24,159.89,259.85,159.71,260,160.71Zm-.17-142.49c-.32,0-.41-.73-.85-.36,0-1.26.3-.31.58-.9-.19-1.79-.72-.27-1.07-.84.84-1.92,2.15-.36,2.68-2.64.33-.39.12.83.44.44-.11,1.33-.23,1.89-.38,3.23C260.7,16.25,260.26,17.94,259.86,18.22ZM260.92,37h0a1,1,0,0,0,.05-.63,1.85,1.85,0,0,1,.43.89C261.25,37.23,261.09,37.14,260.92,37Zm13.93,126c0,1.19-.3.47-.69.66C274.1,162.38,274.45,163.38,274.85,163Zm-.89-6.14a1.24,1.24,0,0,1-.88,1.23,13.12,13.12,0,0,1,0-2.1C273.55,156.36,273.56,156.88,274,156.89Zm-.88-111.58c.23-.21.3.07.4.26l-.4,0A.74.74,0,0,1,273.08,45.31Zm.76-8.57c-.32,0-.45-.58-.66-.91C273.27,34.53,274.06,36.19,273.84,36.74Zm-.64,2c.12-.06.07-.49.07-.8.26-.09.34.35.54.42,0,1-1,.34-.7.66-.07.66-.42-.25-.44-.7C272.75,38,273.19,38,273.2,38.71Zm-.32-2.56c.06.43-.05.51-.18.56a1,1,0,0,0,.33.46c0,.67-.35.69-.5.36C272.67,37.13,272.55,36.16,272.88,36.15Zm-1.12-1.89c.07-.57.74-.5.64.41C272.06,34.94,272,34.46,271.76,34.26Zm-.57,19.84c.3.12.46,1.23.63.14.34-.18.34.72.56.94-.27.31-.44.82-.79,1,.14-2.19-.68.35-.78-1.17C271.26,55.08,271.43,55.27,271.19,54.1Zm-1,92.76c0-1.12.61-.71.9-.71C270.92,146.61,270.4,147.15,270.2,146.86Zm.47-81.08c0-.6.44-1,.59-.65C271.34,66.25,270.92,65.91,270.67,65.78Zm3.17,81.41c.32-1.24-.15-1.34-.31-2.57l.4-.08c.1,1.42.16,1.25.33,2.57Zm-.33-85.13c.2-.22.27-1.25-.06-1.31-.33,1.14-.8,1-1.25,2.09.41.69.67-1,1.2-.76-.17.86.14,0,.35.72,0,.85-.07,1.43-.34,1.64,0-.24.07-.48.18-.56-1.11-.69-1.63.56-2.08-.11,0-.52-.05-1.05-.07-1.57-.34.58-.46,0-.83-.09.21-1.13-.25-.45-.28-1.53.32.31.47,1.12.79,1.42.19,0,.2-.36.4-.34a2.21,2.21,0,0,0-.26-1.26c-.15.14.05.32,0,.78-.18.07-.23-.28-.42-.18-.11-.79.34-.39.15-1.34-.16-.77-.38.46-.53-.16,0-1,.73-.21.56-1.43.31-.25.39.2.63.14.07-.8-.25-.42-.44-.44,0-.34,0-.69,0-1,.35-.19.58,0,.83.09.09-.1.26-.81.09-.83l-.12.06a.17.17,0,0,1,.12-.06c.51-.23,1.09-.08,1.47.79.35-.14-.24-1.11.06-1.06a7,7,0,0,1,.41,2.29c-.67-.12-1.09-1-1.72-1.25.13.79.52.77.87.88-.15,1,.09.64.35,1-.12,1.32-.72.66-1.19,1,.24.91,1,.65,1.55,0,.08.81-.29.65-.14,1.6.24.42.3,0,.62-.11C274.45,62.14,273.89,61.92,273.51,62.06Zm.57-5.91.41-.07c0,.35,0,.69,0,1C274.22,57.3,274.07,57,274.08,56.15Zm.5-.36c-.32-.27-.07-.57-.63-.14,0-.53.26-.56.26-1.09-.46.89-1,1.38-1.62.84a4.67,4.67,0,0,0,1.18-1.55c-.37-.53-1.54,1.17-1.78-.43.25-.68.72.31.78-1,.41-.12,0,.41.24.74.34-.38,1-.28,1.12-.48.14.76-.2.51-.38.6.11,1,.55,1,1.07.84C274.77,55,274.51,55.27,274.58,55.79Zm.82,9.31c0-.35,0-.7,0-1,.12,0,.18-.1.19-.31C275.79,63.9,275.67,65.23,275.4,65.1Zm.36,76.19c0-.78-.46-1.52-.08-1.83.3.07.34.93.48,1.48l.62-.12c0,.47.15.52.15,1C276.53,141.68,276.31,141,275.76,141.29Zm.83-4.64.31-.06c0,.52.05,1,.07,1.56C276.74,138,276.62,137.45,276.59,136.65Zm7.89-70.2c-.23.13-.39,0-.52-.16C283.94,65.49,284.49,65.64,284.48,66.45Zm-4-1.31c-.25.16-.25-.43-.53-.16C279.94,64.21,280.54,64.16,280.49,65.14ZM279.81,64c-.05-2,.77-.29,0,0Zm2.8,63.35c-.13-1,.45-1.1.41-.08Zm.65,3a3.6,3.6,0,0,1-.16-1.28c.41-.39.43.47.74.38A1.48,1.48,0,0,1,283.26,130.33ZM280.66,109c-.29.41-.51.37-.73-.12-.3.24.12.54.05,1a2.73,2.73,0,0,1-.91-1.66c1.08,0,1.43-.55,2.17-.17,0-.3-.19-.19-.32-.2.64-2.6,1.18-.15,2.42-1.53a14.14,14.14,0,0,1,.3,2c.1-.19.08-.62.29-.59-.27,1.39.35,1.35.42,2.55C283.1,109.84,281.28,111.59,280.66,109Zm4.38.45c-.3-.18-.39-1-.5-1.74-.34.67-.58.55-.75-.64.12-.37.37-.43.42.18.28-.67-.5-.61-.39-1.77.8.66,1.59-.94,2.4.31,0,.88.08,1.74.48,1.49a10.64,10.64,0,0,0,.11,2.34c-.31-.14-.42-.87-.68-1.18C285.75,109.56,285.19,108.75,285,109.47Zm1,18.46c-.31.26-.39-.19-.63-.13a5.5,5.5,0,0,1,.55-1.69c-.12-1.19-.33.47-.42-.18-.13-1,.47-.42.69-.66,0,1.13.54.69.6,1.72C286.45,127,286,127,286.06,127.93Zm1.64-14.52a3.73,3.73,0,0,0-.09-2.09c-.33.34-.42.88-.72.15.05-1.18.45-.42.68-.93,0-.66-.4-.34-.55-.68a2.36,2.36,0,0,1,.55-1.68c.57,1.56.22,2.6.81,4.3C287.9,112.27,288.2,113.68,287.7,113.41Z"/><path class="cls-1" d="M289.21,79.17a1.31,1.31,0,0,0,.27-.56A1.54,1.54,0,0,0,289.21,79.17Z"/><path class="cls-1" d="M287.83,142.31c.2-.15.44-.18.38-.86-.22.4-.42-.6-.41.08C288,141.6,287.79,141.87,287.83,142.31Z"/><path class="cls-1" d="M266.66,26.6c0,.32,0,.61.23.48-.11-1.46-.52-.57-.65-.4C266.41,27,266.52,26.93,266.66,26.6Z"/><path class="cls-1" d="M173.83,178.61a5.78,5.78,0,0,0,2.21.61c0-.85.6-.31.45-1.41C176,179.59,174.59,177.64,173.83,178.61Z"/><path class="cls-1" d="M204.41,164.39c-.19.07-.33.23-.38.6.38-.46.46,1.48.74.37-.15-.23-.4-.16-.45-.7C204.38,164.64,204.44,164.61,204.41,164.39Z"/><path class="cls-1" d="M210.33,178.73c-.21,1.27-.41.44-.82.16-.06.71-.33,1.11-.5.36-.26,1.75.56.32,1.16.56-.18.64,0,.28.14.76.83-.35,2-.87,2.44-1-.73-.85-2,1.53-2.41-.57C210.4,179,210.45,178.75,210.33,178.73Z"/><path class="cls-1" d="M201.81,18.43a7.16,7.16,0,0,1,2.74-1.33c-.08,0-.2,0-.22-.22a10.63,10.63,0,0,1,2.16-.43c-.08,0-.13-.19-.13-.5.85-.62,1.76,1.34,2.28-.19-.56-.7-1.3.72-1.49-.75-1-.3-2.24,1.09-3.32-.13-.57,1.59-1.76.69-2.27.19A3.34,3.34,0,0,1,201.81,18.43Z"/><path class="cls-1" d="M208.85,16c.16.41.59,0,.75.38-.17-1.93.84.67.89-1-.7.22-1.27-.35-1.58-.48,0-.16,0-.3-.11-.24C208.84,15.33,209,15.45,208.85,16Z"/><path class="cls-1" d="M230.87,195.42a2.57,2.57,0,0,1-.07.8c.3-.38.39-.27.63.15C231.37,195.68,231.12,195.54,230.87,195.42Z"/><path class="cls-1" d="M231.59,195.28c.32.11-.07.58,0,1,.27,0,.24-.6.26-1.1C231.76,195.22,231.31,194.84,231.59,195.28Z"/><path class="cls-1" d="M225.68,14.22c.43,0,.49-.69.78-.94,0-.66-.54-1-.55-.68.19.2.33.9.05,1-.22-.29-.89-1.59-.83-.1C225.4,13.5,225.76,13.17,225.68,14.22Z"/><path class="cls-1" d="M234.66,189.68c.06-2.12-.43-.75-.31-2.31C233.77,187.53,234.49,189.14,234.66,189.68Z"/><path class="cls-1" d="M228.6,12.33c.05.53.39.17.44.7-.15.07-.38,0-.39.34.27-.27.28.32.52.16a8.22,8.22,0,0,1-.42-2.54c-.06,2.42-1.63,2.06-2.1,1.72.6.43,0,1.18,0,2.11C227.35,14.1,228.23,14.21,228.6,12.33Z"/><path class="cls-1" d="M234,11.79c-.29-.22-.4-1-.68-1.18C233.27,11.59,233.89,12.11,234,11.79Z"/><path class="cls-1" d="M247.28,174.81c.22.19.43-.76.17-.82-.11.47-.17,1.07-.47,1.14-.49,0-1.12-1.31-1.36-.25a3.34,3.34,0,0,0,2,.92C247.75,174.74,247.34,175.31,247.28,174.81Z"/><path class="cls-1" d="M248.46,173.52c-.44.53-.27.89-.43,1.93A3.5,3.5,0,0,0,248.46,173.52Z"/><path class="cls-1" d="M251.92,160.21c0,1.13.51.59.54.43C252.32,160.37,252.24,159.93,251.92,160.21Z"/><path class="cls-1" d="M257.38,171.23c.27.41.79.06.58,1.2.27.56,1.09.71,1-.72C258.25,171.27,258.15,171.09,257.38,171.23Z"/><path class="cls-1" d="M263.29,173.48c.16,0,.09.55,0,.78.16.1.28.33.44.44C263.8,173.86,263.35,173,263.29,173.48Z"/><path class="cls-1" d="M263.7,34.81c-.11,1.28-.11-.38-.23-.48.11.69-.49-.09-.38.61.38,0,.48.39.36,1.24C263.74,36.09,264.11,35,263.7,34.81Z"/><path class="cls-1" d="M269,149.73c.87-.07-.09,2,.53,2.53.44-.65-.44-1.55.22-1.89a3.53,3.53,0,0,0-.28-1.78C269.66,150.7,269,148.46,269,149.73Z"/><path class="cls-1" d="M263.48,6.2c0,.14.09.28.1,0-.07,0-.13,0-.12-.24s.21-.05.2-.3c-.31.25-.32-.39-.63-.15a3.86,3.86,0,0,1,0,1.33C263.31,7,263.15,6.06,263.48,6.2Z"/><path class="cls-1" d="M265.94,31.48c.51.4,1.29,1.53,1.71,1.23-.5,0-.4-1.87-.75-.63C266.74,31.45,266,29.63,265.94,31.48Z"/><path class="cls-1" d="M267.86,30.31c-.29,0-.23.79-.37,1.12.08.35.4,0,.43.44,0,.31-.14.32-.29.32a1.71,1.71,0,0,0,.25,1c-.12-1.23.44-.32.67-1.18.09.66.18.89,0,1.33-.13,0-.16-.31-.32-.21.34,1.09-.3.75-.34,1.65.23.5.35-.26.49-.62a1.9,1.9,0,0,1,.79,1.42c-.18,0-.26.25-.29.58.17.26.25.81.55.68,0-.64-.21-.53-.16-1.28.28.75.48-.28.35,1,.25,0,.45.43.62-.13-.13-.49-.25-1-.38-1.5,0,.39-.24.29-.4.35.07-.81-.25-.42-.43-.44a2.39,2.39,0,0,0-.14-.76.84.84,0,0,0,.7-.67c-.33-.12-.21-.76-.05-1-.28,0-.53-1.69-.77-.9.12,0,.27.38.13.5C268.47,31.52,267.62,31.79,267.86,30.31ZM269,33c.13.82-.24.59-.26,1.1C268.46,33.82,268.68,32.69,269,33Z"/><path class="cls-1" d="M266,9.12c0-.5.33-.25.27-.85-.25-.24.1-1-.26-1.26,0,1.26-.66-.24-.71.4A1.82,1.82,0,0,1,266,9.12Z"/><path class="cls-1" d="M272.15,155.68a3.65,3.65,0,0,1-.08.54c.11,0,.17.26.22.48-.06,0-.12.07-.09.28l.21,0c.06,0,.12-.06.09-.28-.31-.17-.13-.37-.15-1Z"/><path class="cls-1" d="M271.91,61.06c0,.82.27-.73.32.2-.14.33-.22.8-.48.88,0-.2,0-.51-.12-.5.15.63,0,.83.14,1,.27-.62.78-.73,1-1.5C272.49,61.25,271.9,59.86,271.91,61.06Z"/><path class="cls-1" d="M275.68,151.29c.16,1,.38.55.78,1.16a2.91,2.91,0,0,1,0-.3c.48.45,1.08,1,1.32.3-.38,0-.79-.78-1.18-1.06v0c.11-.05.18.35.21,0-.44-.11-.64-1.58-.2-2.06-.27.08-1-.9-.85-.36.45.26.2.84.39,1.76C275.77,150.44,276.3,151.4,275.68,151.29Z"/><path class="cls-1" d="M279.48,58.77c-.44.39-.34.06-.73-.12C278.88,59.45,279.47,59.6,279.48,58.77Z"/><path class="cls-1" d="M280.78,60.09c0-.16,0-.32.1-.29s.11-.06.09-.28c-.17-.61-.32-.56-.45-.7,0-.34.17-.27.18-.56-.22,0-.25-.61-.26-1.26-.52-.28-1.11-.16-1.79-.7,0,.93.5.42.48,1.49-.28.24-.23-.48-.44-.45,0,.35,0,.7.05,1,.33,0,.41-.55.81-.43.18.13,0,1.24.26,1.27,0-.41.17-.07.22.22-.26,0-.42.21-.49.62C280,59.91,280.62,58.74,280.78,60.09Z"/><path class="cls-1" d="M279.65,39a.34.34,0,0,1,.42.18c.13-1,1.2-.82.07-.8C280,38.47,279.34,39.42,279.65,39Z"/><path class="cls-1" d="M283.74,61.34a.66.66,0,0,0,.39-.6c-.11-.93-1.35.85-1-1.12a1.29,1.29,0,0,0-.61.38c.36.17.12.57,0,1C283,61.71,283.55,60.18,283.74,61.34Z"/><path class="cls-1" d="M292.66,103.75c0-.43.28-.21.29-.59-.21-.43-.94-.44-.72.15.13,0,.13-.37.29-.32C292.43,103.38,292.44,103.65,292.66,103.75Z"/><path class="cls-1" d="M291.5,51.65c.18,1.3-1.33.9-1.54,2.67.9.38,1.61.06,2.31.6.1-.27,0-1,.27-.85,0,.14.1.28.11,0-.31-.17-.14-.37-.15-1-.39-.33,0,.9-.28.84-.05-.44-.34.41-.34-.72,0-.67.39-.45.37-1.12C292.09,51.62,291.66,52.06,291.5,51.65Z"/><path class="cls-1" d="M293.17,56.58c.06.09.21,1.23.23.48,0-.34-.15-.34-.14-.77-.28,0-.18.48-.41.09.06.5-.11.54-.17.82C293,57.78,292.94,56.74,293.17,56.58Z"/><path class="cls-1" d="M311.91,41.81a8.2,8.2,0,0,0-1-2.16A6.07,6.07,0,0,0,311,38c-1.15-1.31-3.5-3.77-4,.28.87,3.23,3,2.69,4.25,4.68,0-.73-.23-.49-.25-1C311.23,41.27,311.53,42.05,311.91,41.81Z"/><path class="cls-1" d="M311.55,42.94c.06.57.22.89.45,1,.17-.27.09-1.08.48-.89a1.91,1.91,0,0,1-.24,1.63c.31-.25.32.39.63.14a9.9,9.9,0,0,0-.53-2.53C312.18,42.7,311.81,42.71,311.55,42.94Z"/><path class="cls-1" d="M235,189.09a1.21,1.21,0,0,1,.34.72c-.29,1.51-.76-.05-1.19,1.29-.09-.56.26-.89-.13-.76-.13.36,0,.54.05,1.3-.43-.64-.29.81-.08.55-.4.95-.81.75-1.26,1.83.47.58.37,1,1.09,1.35.08.73-.7.86-.24,1.63.15-.91,1.17-1.33.35-1.65,1.16.18,1-1.12,1.66-2.17a.6.6,0,0,1-.84-.36c0-1.59.8,0,1-.72-.09-.12-.3-1.52.25-1.37C235.55,190.14,235.66,188,235,189.09Z"/><path class="cls-1" d="M243.51,174a2.68,2.68,0,0,0,.56-1.42l-.62.12Z"/><path class="cls-1" d="M292.07,90.45c-.28-1.54-1.38-.87-1.42.55-.26-.1-.76-1-.95-.34.22.71-.55,1.36-1,1.51,0-.39,0-1-.15-1,.11,2.14-1.39,1.13-1.56,2.15,1.67-.18,3-2.17,4.59-1.7.12-1-.36-.09-.35-.72C292,91,291.47,89.91,292.07,90.45Z"/><path class="cls-1" d="M301.31,67.06l-.06-1.3c-.68-1.48-1.49.78-1.78-.44-.05,1.82-.85.84-1.05,2.05-.27-.62.07-1.29-.27-1.53-.45.41-.33,2-.95,2,0-.52-.3-.27-.26-1-.43.42-.45.17-.83-.1-.22,1.76-1.81.17-2.08,2.26.82-.63,2.75-2,3.22.15-.11.37-.09,1,.15,1,.08-.4,0-1,.38-.86.6,3.12,2.59.43,3.29-.65,0,.3,0,.74.14.75.11-1,.58-1.29.73-2.25C301.72,66.72,301.56,66.82,301.31,67.06Z"/><path class="cls-1" d="M303.44,35.34c.36.14.43-.33.47-.88-.37.17-.7.18-.75-.64A2.39,2.39,0,0,0,301.34,35c.09.44.49-.11.54.42s-.26.39-.16,1.08c.27-.23.22.5.34.72.61-.63.65.06,1.07.58.2-.12.17-.74.37-.86.44.54.7,1.6,1.23,1.86,0-1.58-.31-1.24-.44-2.81C304,35.84,303.56,36,303.44,35.34Z"/><path class="cls-1" d="M9.21,113c.42-.32.51.25.66-.56C9.78,112.2,9.19,112.14,9.21,113Z"/><path class="cls-1" d="M9,111.34c.35-.77.39.89.67,0-.26-.21-.56-1.77-.9-.81C8.89,110.59,8.86,111.12,9,111.34Z"/><path class="cls-1" d="M12.78,113.19c-.15-.37-.68-.46-.67.28C12.31,113.32,12.77,113.79,12.78,113.19Z"/><path class="cls-1" d="M13,155.87c.3,0,.66.14.66-.56C13.44,155.48,12.89,154.88,13,155.87Z"/><path class="cls-1" d="M10.9,142c.15.38.67.47.66-.28C11.37,141.83,10.9,141.35,10.9,142Z"/><path class="cls-1" d="M10.54,140.32c.31.66.78.07.88-.57C11,139.74,10.64,139.68,10.54,140.32Z"/><path class="cls-1" d="M13.11,141.37c.38-.35.84-.5,1.21-.85C13.86,140.25,13.24,140.18,13.11,141.37Z"/><path class="cls-1" d="M24.57,155.12h.55C25.2,154,24.56,154.29,24.57,155.12Z"/><path class="cls-1" d="M11.21,154.81a2.62,2.62,0,0,0-.36-1.91c-.07.83.21.8.14,1.64-.31.77-.78,0-.88.83,1,.7,1.9.07,2.78.23C12.19,155.56,11.91,154.08,11.21,154.81Z"/><path class="cls-1" d="M13.9,155.86c.8.12,1.61.61,2.11-.32C15.22,154.89,14.69,155.32,13.9,155.86Z"/><path class="cls-1" d="M9.48,129.66c.72.62.7.3,1.24,1.08a3.79,3.79,0,0,0,.09-1.1C10.33,129.91,9.64,129.26,9.48,129.66Z"/><path class="cls-1" d="M25.8,155.65c.37,0,.45-.7.65-1.11C26.19,154.81,25.75,154.64,25.8,155.65Z"/><path class="cls-1" d="M16.13,141.86c-.28,0-.54,0-.68-.26,0,.32,0,.78-.09.82s-.32,0-.33.28c.68.14.37.38,1.12.53A3.94,3.94,0,0,1,16.13,141.86Z"/><path class="cls-1" d="M18.12,141.55a4.72,4.72,0,0,0,.32-1.1c.06,0,.13,0,.11-.27-.61.26-1.08-.79-1.22.56C17.61,141,17.78,141.48,18.12,141.55Z"/><path class="cls-1" d="M19.08,139.07c-.41.4-.82-.69-1,0,.16.07.14.6.24.82C18.65,139.24,19.1,140.47,19.08,139.07Z"/><path class="cls-1" d="M24,152.67c-.52-.39-1.09-.75-1.55,0A.93.93,0,0,0,24,152.67Z"/><path class="cls-1" d="M23.57,155.41c.25.54.62-.1.66-.83C24,154.8,23.63,154.75,23.57,155.41Z"/><path class="cls-1" d="M16.12,141.59c.71-.21.77,1.24,1.25,1.62l0-1.37C16.71,142.17,16.77,140.55,16.12,141.59Z"/><path class="cls-1" d="M22.12,155.16c-.34.12-.58-.71-.66.29.83.67,1.24-.66,2,.24l0-1.37C23,153.93,21.62,154.34,22.12,155.16Z"/><path class="cls-1" d="M16.24,156.09c.33-.18,1,.33,1.11-.29C17.29,155.1,16.32,155.25,16.24,156.09Z"/><path class="cls-1" d="M15.54,147.07c-.21.12-.48.11-.43.83C15.31,148.39,15.54,147.81,15.54,147.07Z"/><path class="cls-1" d="M22.07,145a4.06,4.06,0,0,0,.64-1.93c-.27.17-.81-.33-.89.29.08.48.53,0,.57.54C22.27,144.13,21.83,144.86,22.07,145Z"/><path class="cls-1" d="M7.29,152.69c-.14.84.34,1.54.45.81-.63-1.11.4.42.33-.83Z"/><path class="cls-1" d="M7.52,111.64c-.48.22-.82-.75-.88.56C6.84,111.8,7.38,112.18,7.52,111.64Z"/><path class="cls-1" d="M8.27,130.78a3.85,3.85,0,0,0,.09-1.37c-.26.35-.44.88-.76,1.11C7.94,130.31,7.94,131,8.27,130.78Z"/><path class="cls-1" d="M7.89,148.57c-.38-.26-1-1.39-1.46-.52C7,147.83,7.6,149,7.89,148.57Z"/><path class="cls-1" d="M30.74,151.46c-.35-.13-.45.35-.54.83C30.58,152.49,30.68,152,30.74,151.46Z"/><path class="cls-1" d="M4.65,147.81c.17.52,1.45.86,1.34.25C5.5,148.27,5,147.15,4.65,147.81Z"/><path class="cls-1" d="M157.51,9.39h.26c-.13-.45-.09-.58.17-.5-.06-.34-.19-.48-.36-.52C157.6,8.84,157.48,8.92,157.51,9.39Z"/><path class="cls-1" d="M146.5,8.84c.06-1-.42-.34-.62-.53C145.9,9,146.25,8.79,146.5,8.84Z"/><path class="cls-1" d="M49.68,10.73c.08-.33-.67-.43-1-.53A.87.87,0,0,0,49.68,10.73Z"/><path class="cls-1" d="M46.22,162.22c0,.75.69,1.75.7.27C46.62,163,46.53,162.36,46.22,162.22Z"/><path class="cls-1" d="M37,161.45c-.17.45.29,1.41-.06,2,.31,1,.33-1,.6-1C37.61,161,37.13,162.66,37,161.45Z"/><path class="cls-1" d="M34.46,157.07l0,1.28c.31.09.22.7.52.26C34.55,158.07,35.25,157.39,34.46,157.07Z"/><path class="cls-1" d="M33.34,158.31c0-.41.08-.43.08-.75.21.33.5.44.71.77,0-.72-.27-2.36.32-2.52-.45-1.37-.65,1.79-1.29,1.48a6.19,6.19,0,0,1-.33,2.28,10.61,10.61,0,0,0,.63,1.79c.32.09.44-.38.51-1,.22.64.24.24.62.27C34.08,160.14,33.94,158.54,33.34,158.31Z"/><path class="cls-1" d="M20.29,162.26c0,.33.26.34.26,0a1.47,1.47,0,0,1,.27,1c.22,0,.33-.36.34-1C20.74,162.12,20.63,161.56,20.29,162.26Z"/><path class="cls-1" d="M19.19,165.78c.33-.54,1.62-.47,1.81-2.23C20.45,164.73,19.57,163.88,19.19,165.78Z"/><path class="cls-1" d="M17.88,157.38a7.51,7.51,0,0,0,.1,1.78c.08-.2.2-.27.35-.25C18.26,158.14,18.18,157.44,17.88,157.38Z"/><path class="cls-1" d="M17.32,80.05c-.83-1.28-2.14.27-2.51,2.47C15.49,82.24,16.21,79.94,17.32,80.05Z"/><path class="cls-1" d="M13.15,90.84c.41-.08.57-.85.86-1.25-.1-1-.35,0-.7-.27,0-.55.07-.8.26-.75-.25-.77-.49.57-.6,1C12.91,90.34,13.21,90.06,13.15,90.84Z"/><path class="cls-1" d="M12.5,145.06c-.42-.7-.95.38-1.3.73C11.61,146.46,12,144.88,12.5,145.06Z"/><path class="cls-1" d="M.06,140.41c.26,0,.33-.52.51-.74,0-.38-.13-.65-.18-1A2.38,2.38,0,0,0,.06,140.41Z"/><path class="cls-1" d="M47.23,160.38a.71.71,0,0,0-.07.09S47.22,160.47,47.23,160.38Z"/><path class="cls-1" d="M160.22,9.47a8.77,8.77,0,0,0,.25-1c.1,0,.08.47.09.77.57.12.93-1.63,1.48-.73,0,.57-.47,0-.52.5.23.51.35-.24.7.27.07-.89,0-.62.07-1.52-.73-.31-.64.15-1.57,0,.27.89-.48.37-.43.75,0-1-.33-.85-.52,0-.25-.26.12-.67-.1-1-.29.56-1-.41-.86.73-.11,0-.16.05-.18.25-.21-.26.16-1.11-.27-1,.3.86-.2.68-.34,1C158.5,9.91,159.63,8.8,160.22,9.47Z"/><path class="cls-1" d="M144.83,8c.21.07.07,1.13-.08,1,0,.37.27.1.27.52-.13-1,.38-1.66.69-1-.13-.93-.85-.75-1.29-1.35C144.63,7.67,144.69,8.42,144.83,8Z"/><path class="cls-1" d="M55.85,0c.16,1.28-.27.88-.42,1.26C55.65,2.12,56.48.13,55.85,0Z"/><path class="cls-1" d="M43.43,171c-.07.2,0,.69-.17.76.09.9.22,0,.53.26,0-.79.18-.8.43-.74a3.82,3.82,0,0,1-.1-1C44,171.09,43.76,171.54,43.43,171Z"/><path class="cls-1" d="M35.62,2c0,.46-.11.54-.08,1,.32-.05.33-.34.61,0,0,.31-.11.51-.26.49.14.74.28.15.45,1,.19-.08,0-1.11-.1-1.27.13-.29.21-.72.43-.75-.06-.26-.2-.26-.19-.76-.56-.31-.8,0-1-1-.26-.07-.26.57-.52.5C35.11,1.45,35.32,2.33,35.62,2Z"/><path class="cls-1" d="M21.59,162c.08.22.5-.7.51-1.51C21.75,160.53,21.82,161.72,21.59,162Z"/><path class="cls-1" d="M20.35,127.54c-.06-.64-.22.46-.43.23.07.51.24.69.44.78C20.28,128.1,20.06,127.76,20.35,127.54Z"/><path class="cls-1" d="M19.42,163c-.15.08-.63-.05-.78,1C19.05,163.58,19.13,163.76,19.42,163Z"/><path class="cls-1" d="M18.67,166c-.61.45.44.06.51-.5C19,164.69,18.82,165.94,18.67,166Z"/><path class="cls-1" d="M11.74,139.21c.39-.18.84-.31.64,2-.16,0-.19-.32-.35-.27,0,1,.67.95.79.78-.41-.63,0-1.19.07-2a3.08,3.08,0,0,1-.29-2A2.8,2.8,0,0,0,11.74,139.21Z"/><path class="cls-1" d="M10.53,131.57c-1.17-2.25-1.85,1.48-3.39,1.43,0,1.63-.44,2-.95,1.5A3.2,3.2,0,0,0,6,136a.78.78,0,0,0-.79.24c-.85-1.46-1.5-3.78-2.92-4.14-.11.89-.18.39-.43.75a18.64,18.64,0,0,1,1,2.81,7.18,7.18,0,0,0-.07,1.77c.36-.53.23.25.09.77,0-1.15-.59-.39-1-.79a5.94,5.94,0,0,0-.16,1.51c.27,0,1-.79.88,1,.67.91,1.76.55,2.29,1.84-.25,2.57-.88,1.42-1.56.46.07,1-.22.85-.34,1.26.48,2.77,1.55.64,2.27.07-.22-.31.17-1-.1-1.27.45-1.59,1.25-2.2,1.53-4.27.21-.1.19.46.44.26a4.09,4.09,0,0,1,.07-1.26c.31.51.72.78.52-.75.15.06.43-.24.35.52.15-.32.17-1,.34-1.26s.07.82.35.52c.06-1.23.66-.93.68-2.27C9.83,134.72,10.34,132.82,10.53,131.57Z"/><path class="cls-1" d="M141.61,9.21c.18-.39.27-1,.51-1.26.24.34.33,1.14.71,1,0-.51,0-.79.17-.75a2.94,2.94,0,0,1-.1-.77,8.77,8.77,0,0,0-.25,1c-.2-.71-.6-.82-.8-1.54-.19,0-.18.63-.16,1.26-.11-.29-.18-.23-.17.25-.27-.73-.47-.13-.8-.79-.17.57-.25,1.4-.68,1.25C140.66,9.46,141.26,8.57,141.61,9.21Z"/></g></g></svg>