<svg xmlns="http://www.w3.org/2000/svg" width="981.23" height="142.5" viewBox="0 0 981.23 142.5">
  <defs>
    <style>
      .cls-1, .cls-2 {
        fill: #c94097;
      }

      .cls-1 {
        stroke: #fff;
        stroke-linejoin: round;
        stroke-width: 14.46px;
      }
    </style>
  </defs>
  <title>1277777</title>
  <g id="Layer_2" data-name="Layer 2">
    <g id="Layer_1-2" data-name="Layer 1">
      <g id="_12" data-name="12">
        <path class="cls-1" d="M36.42,13.3V23.36q4.77,2.75,4.9,2.74V16C41.23,16,39.6,15.12,36.42,13.3ZM7.23,29.76V39.82c1.92.1,3.42.15,4.48.15V29.9C10.65,29.9,9.15,29.85,7.23,29.76Zm4.48.14V40a114.85,114.85,0,0,0,15.08-1.45V28.46A114.46,114.46,0,0,1,11.71,29.9Zm15.08-1.44V38.52a116.73,116.73,0,0,1,15.12-1.44V27A115.36,115.36,0,0,0,26.79,28.46Zm5,27.58V66.1c0,.1,0,.15.11.15V56.18C31.83,56.18,31.79,56.13,31.79,56Zm.11.14V66.25a16.77,16.77,0,0,0,1.75-3V53.15A16.86,16.86,0,0,1,31.9,56.18Zm1.75-3V63.21a30.43,30.43,0,0,1,1.72-3V50.12A30.43,30.43,0,0,0,33.65,53.15Zm1.72-3V60.18c.11,0,.17,0,.17.15V50.26C35.54,50.16,35.48,50.12,35.37,50.12Zm-15.06,63v10.07a16.4,16.4,0,0,1,7.69-5.2V107.87A16.4,16.4,0,0,0,20.31,113.07Zm5,5.06v10.06l2.37,1.59V119.72Zm2.37,1.59v10.06a7.6,7.6,0,0,0,3.73-2.17V117.55A7.6,7.6,0,0,1,27.71,119.72Zm3.73-2.17v10.06a12.87,12.87,0,0,1,3.35-2.45V115.09A12.73,12.73,0,0,0,31.44,117.55Zm3.35-2.46v0Zm0,1.74v10.06a4.72,4.72,0,0,1,.05.68V117.51A4.61,4.61,0,0,0,34.79,116.83ZM34,122.89V133l3.68-3.9V119Zm3.68-3.9v10.07c.41.29.67,1.13.78,2.53V121.52C38.32,120.12,38.06,119.28,37.65,119Zm.78,2.53v10.07c.09,1.39.29,2.19.61,2.38V123.9C38.72,123.71,38.52,122.92,38.43,121.52ZM39,123.9V134l2.87-1.88V122ZM41.91,122v10.06q10.4-56,18.73-96.17V25.86Q52.3,66,41.91,122ZM60.64,25.86V35.92h.78V25.86Zm.78,0V35.92q11.16,0,32,2.89V28.75Q72.6,25.86,61.42,25.86Zm32,2.89V38.81Q94.8,35.19,94.8,27V16.91Q94.8,25.13,93.43,28.75ZM75.77,12.21q-12.1-.5-17.87-.5c-1.15,0-2.63-.08-4.46-.22s-3.35-.22-4.32-.22a32.64,32.64,0,0,0-6.38.94,45.58,45.58,0,0,1-6.32,1.09C39.6,15.12,41.23,16,41.32,16l-.86.29A28.73,28.73,0,0,1,34,15.24a30.19,30.19,0,0,0-6.69-1.08H22.11c-2.32.1-4.06.15-5.21.15A20.18,20.18,0,0,1,14,14a19.13,19.13,0,0,0-2.89-.29c-.21,0-.44.38-.68,1.15Q8,24.71,7.23,29.76c1.92.09,3.42.14,4.48.14a114.46,114.46,0,0,0,15.08-1.44A115.36,115.36,0,0,1,41.91,27c-1.2,2.22-2.32,4.5-3.35,6.86A18.06,18.06,0,0,0,37,41.16l-.89,1.74c-.77.57-1.67,2.62-2.67,6.13a30.09,30.09,0,0,0-1.66,7c0,.09,0,.14.11.14a16.86,16.86,0,0,0,1.75-3,30.43,30.43,0,0,1,1.72-3c.11,0,.17,0,.17.14a8.58,8.58,0,0,1-.91,2.89q-5.61,11.7-9,29.46-2.79,15.15-5.3,30.46a16.4,16.4,0,0,1,7.69-5.2l-1.42,1c-.49,4.13-.9,7.22-1.24,9.24l2.37,1.59a7.6,7.6,0,0,0,3.73-2.17,12.73,12.73,0,0,1,3.35-2.46v1.74a4.61,4.61,0,0,1,.05.68A11.24,11.24,0,0,1,34.5,120c-.27,1.35-.44,2.31-.53,2.89l3.68-3.9c.41.29.67,1.13.78,2.53s.29,2.19.61,2.38L41.91,122q10.4-56,18.73-96.17h.78q11.16,0,32,2.89,1.36-3.62,1.37-11.84a6.91,6.91,0,0,0-1.09-4.19Q87.8,12.72,75.77,12.21Zm48.69,47V69.28l21.12-.15V59.07Zm7.5,2.6V71.88a8.91,8.91,0,0,0,2.61.29V62.1A8.58,8.58,0,0,1,132,61.81Zm2.61.29V72.17l3.53-.29V61.81Zm3.53-.29V71.88h4.29V61.81Zm4.29,0V71.88a5.35,5.35,0,0,1,2.78.86V62.68A5.33,5.33,0,0,0,142.39,61.81ZM119,59.07v0Zm0-.9V68.24a67.52,67.52,0,0,1,1-7.63V50.55A67.75,67.75,0,0,0,119,58.17Zm1-7.62V60.61q2.15-13.43,5.37-27.43V23.11Q122.15,37.12,120,50.55Zm5.37-27.44V33.18q.39-1.3,1.86-5.2V17.92Q125.78,21.82,125.39,23.11Zm1.86-5.19V28a14,14,0,0,0,1.64-4.91V13A14,14,0,0,1,127.25,17.92Zm-.85-3V25c.25-1.45.49-2.55.69-3.32V11.56C126.89,12.33,126.65,13.44,126.4,14.88ZM76.51,78.27V88.34l16.11-2.46V75.82Zm16.11-2.45V85.88a6.06,6.06,0,0,1,.27,2V77.84A6,6,0,0,0,92.62,75.82Zm-5.35,39.42V125.3a13.55,13.55,0,0,0,.26,2.46V117.69A13.54,13.54,0,0,1,87.27,115.24Zm.26,2.45v10.07q9.19,2.6,10.58,2.6V120.29Q96.73,120.29,87.53,117.69Zm10.58,2.6v10.07a3.4,3.4,0,0,1,1.68.58V120.87A3.51,3.51,0,0,0,98.11,120.29Zm1.68.58v10.07a6.44,6.44,0,0,0,2.25.57V121.45A6.28,6.28,0,0,1,99.79,120.87Zm2.25.58v10.06l.57-.14V121.3Zm.57-.15v10.07q4.65-6.06,7.86-20.65V100.66Q107.28,115.24,102.61,121.3Zm7.86-20.64v10.06q4.82-21.51,5-22.38V78.27Q115.28,79.14,110.47,100.66Zm5-22.39V88.34h2.25V78.27Zm2.25,0V88.34q14.19.57,21.38,1.15V79.43Q131.88,78.85,117.68,78.27Zm21.38,1.16V89.49H141V79.43Zm-4.17,36.1v10.06q0,3.47,8.07,3.47V119Q134.89,119,134.89,115.53ZM143,119v10.07l9.26-1V118Zm9.26-1v10.07q.75-8,4.88-20.8V97.19Q153,110,152.22,118Zm4.88-20.79v10.06q5-15.3,6-20.64V76.54Q162,81.88,157.1,97.19Zm6-20.65V86.61Q174.22,85,176.34,84V73.94Q174.21,75,163.07,76.54Zm13.21-3.29V83.31a5.94,5.94,0,0,1,.77-2.77V70.48A5.91,5.91,0,0,0,176.28,73.25Zm.77-2.77V80.54a7.09,7.09,0,0,1,2.84-2.45V68A7.12,7.12,0,0,0,177.05,70.48Zm2.13-8.38v0Zm-10.4-1V71.16A1.83,1.83,0,0,1,170.7,70V59.94A1.82,1.82,0,0,0,168.78,61.09Zm1.92-1.15V70a7.68,7.68,0,0,0,2.81-.58V59.36A7.89,7.89,0,0,1,170.7,59.94Zm2.81-.58V69.42a18.22,18.22,0,0,1,2.56-.72V58.64A15.8,15.8,0,0,0,173.51,59.36Zm2.56-.72V68.7l.8-2.31V56.33Zm-8.85-4.34V64.37q0-13.29,9.12-40.58V13.73Q167.22,41,167.22,54.3ZM162.9,17.05l-1.2-2.45-4.6-3.33q-2.86,10.26-4,15.6-.83,7.65-2.17,15.3-1.57,11.13-4.64,13-2,1.3-10.87,1.95t-10.91,2.09l21.12-.14L132,61.81a8.58,8.58,0,0,0,2.61.29l3.53-.29h4.29a5.33,5.33,0,0,1,2.78.87h-.57a43.26,43.26,0,0,1-8.59-.8,55.67,55.67,0,0,0-8.53-.93A19.83,19.83,0,0,1,119,59.07v-.58a2.45,2.45,0,0,1,0-.32,67.75,67.75,0,0,1,1-7.62q2.15-13.42,5.37-27.44.39-1.29,1.86-5.19A14,14,0,0,0,128.89,13l-.63-.58c-.78,1.06-1.4,1.88-1.86,2.45h0c.25-1.44.49-2.55.69-3.32a76.45,76.45,0,0,1-9.56.44q-6.84,0-8-.87-1.38,5.05-5.42,23.39a143.24,143.24,0,0,1-6.34,23.11c-.5,1.15-3.65,1.73-9.43,1.73A22,22,0,0,1,84.65,59a25.31,25.31,0,0,0-3.48-.36c-.94,0-1.51.33-1.72,1-.12.29-.67,3.37-1.63,9.24s-1.31,9-1.31,9.38l16.11-2.45a6,6,0,0,1,.27,2q0,5.93-2.83,18.27t-2.79,19.13a13.54,13.54,0,0,0,.26,2.45q9.19,2.61,10.58,2.6a3.51,3.51,0,0,1,1.68.58,6.28,6.28,0,0,0,2.25.58l.57-.15q4.65-6.06,7.86-20.64,4.82-21.52,5-22.39h2.25q14.19.58,21.38,1.16H141v5.63q-6.12,25-6.12,30.47,0,3.47,8.07,3.46l9.26-1Q153,110,157.1,97.19q5-15.3,6-20.65,11.15-1.59,13.27-2.6a3.93,3.93,0,0,1-.06-.69,5.91,5.91,0,0,1,.77-2.77A7.12,7.12,0,0,1,179.89,68a27.45,27.45,0,0,1-.71-5.92v-1h-10.4a1.82,1.82,0,0,1,1.92-1.15,7.89,7.89,0,0,0,2.81-.58,15.8,15.8,0,0,1,2.56-.72l.8-2.31-9.3.14a6.67,6.67,0,0,1-.35-2.17q0-13.27,9.12-40.57l-5.11,2-.53-2.31-5.21,1.88L164.8,12ZM115,67V77.08l1.27-1.16V65.86Zm1.27-1.15V75.92l5.91-.14V65.71ZM115,67l1.27-1.15,5.91-.15-1.3,1.88Zm9.25.29V77.36l.69-1.3V66Zm.69-1.3V76.06l8.38.15V66.14Zm8.38.14a67.69,67.69,0,0,1-9.07,1.16l.69-1.3ZM259.22,29.47V39.53a21.59,21.59,0,0,0,3.23-3.61V25.86A22,22,0,0,1,259.22,29.47Zm-2.62-5.92V33.61c0-.38.87-1,2.62-1.95V21.6C257.47,22.51,256.6,23.16,256.6,23.55Zm2.62-1.95V31.66a8.52,8.52,0,0,0,2.83-2.09V19.5A8.5,8.5,0,0,1,259.22,21.6Zm-.41-6.14V25.53a7.81,7.81,0,0,1,.81-3.32V12.14A7.85,7.85,0,0,0,258.81,15.46ZM174,30.05V40.11h5.32V30.05Zm.44,6.93V47l31-3.61V33.37Zm17,29.6V76.64a19.93,19.93,0,0,0,.64,4.77V71.34A19.86,19.86,0,0,1,191.44,66.58Zm.64,4.76V81.41c3.73-.2,5.91-.29,6.52-.29V71.05C198,71.05,195.81,71.15,192.08,71.34Zm6.52-.29V81.12h.65V71.05Zm.65,0V81.12c0,.27,0,.55,0,.84V71.9C199.27,71.61,199.26,71.33,199.25,71.05Zm-6,24.12v0Zm-11.59,13.72V119a26.82,26.82,0,0,0,1.43,7.51V116.39A26.83,26.83,0,0,1,181.68,108.89Zm1.43,7.5v10.07q11.25,0,33.8,1.44V117.84Q194.37,116.4,183.11,116.39Zm33.8,1.45V127.9q22.67,1.46,33.88,1.45V119.28Q239.58,119.28,216.91,117.84Zm28.7-2.75v10.07a29.39,29.39,0,0,0,9.28-1.3V113.8A29.7,29.7,0,0,1,245.61,115.09Zm5.18-3.89v10.06a20.12,20.12,0,0,1,2.9-3.32V107.87A19.9,19.9,0,0,0,250.79,111.2Zm-1.2-5.2v10.06l.4-1.59V104.41Zm.4-1.59v0Zm0-.87v10.07l6-6.36V97.19ZM214.53,95.6v10.07a57.07,57.07,0,0,1,2-12.35V83.26A57,57,0,0,0,214.53,95.6Zm2-12.34V93.32a52.67,52.67,0,0,0,2.19-12.63V70.62A52.74,52.74,0,0,1,216.53,83.26Zm2.19-12.64V80.69q4.22,0,12.74-.29V70.33Q222.94,70.61,218.72,70.62Zm12.74-.29V80.4q8.52-.3,12.76-.29V70Q240,70,231.46,70.33Zm2.43-4V76.35q3.93,0,10.33-2.88V63.4Q237.82,66.3,233.89,66.29Zm5.4-6.07V70.29a21.39,21.39,0,0,0,4.34-4.19V56A21.34,21.34,0,0,1,239.29,60.22Zm-17.6-7.94V62.35a52.69,52.69,0,0,1,1-9.1V43.19A52.69,52.69,0,0,0,221.69,52.28Zm1-9.09V53.25l1.83-9.1V34.09Zm1.83-9.1V44.15q20.34-3.16,34.74-4.62V29.47Q244.82,30.91,224.48,34.09Zm34.74-4.62a22,22,0,0,0,3.23-3.61,9.78,9.78,0,0,0-3.13-1.23c-1.81-.53-2.72-.89-2.72-1.08,0-.39.87-1,2.62-1.95a8.5,8.5,0,0,0,2.83-2.1q-3.24-1.72-3.24-4a7.85,7.85,0,0,1,.81-3.32l-33.31,5.2L225,13.44q-2.6,1.31-7.67,1.3c-.44,0-1.14-.05-2.09-.14H213c-1.51,0-2.26.57-2.26,1.73a2.87,2.87,0,0,1-2.27,2.89q-5.61,1.88-25.82,3.46c-3.51.29-5.61,1.11-6.32,2.46a6.51,6.51,0,0,0-1,2.52c-.35,1.4-.79,2.19-1.32,2.39h5.32c0,.48-.8,1.51-2.4,3.1S174.54,36,174.48,37l31-3.61c-.49,1.54-.84,5.34-1,11.4q-.28,7.8-2.71,10.26-5.35.72-8.12,1.15a23.41,23.41,0,0,0-2.19,10.4,19.86,19.86,0,0,0,.64,4.76c3.73-.19,5.91-.29,6.52-.29h.65c0,.28,0,.56,0,.85q0,5-3,12.87-3,8.52-3,10.4v.14l-.74,1c-1.64-.19-2.79-.29-3.46-.29a2.93,2.93,0,0,0-1.81.44,5.25,5.25,0,0,1-1.27.58,27.05,27.05,0,0,0-2.61,5.7,22.53,22.53,0,0,0-1.7,6.14,26.83,26.83,0,0,0,1.43,7.5q11.25,0,33.8,1.45t33.88,1.44l-5.18-4.19a29.7,29.7,0,0,0,9.28-1.29c-.2-.1-.93-.53-2.2-1.3a8.91,8.91,0,0,1-1.9-1.3,19.9,19.9,0,0,1,2.9-3.33l-4.1-1.87.4-1.59v-.87l6-6.35Q252.28,96,244.42,96h-5.53q-3.91.15-5.87.15-3.12,0-9.31-.29t-9.18-.29a57,57,0,0,1,2-12.34,52.74,52.74,0,0,0,2.19-12.64q4.22,0,12.74-.29T244.22,70c-.39-.48-2-1.1-4.93-1.87q-4.9-1.15-5.4-1.88,3.93,0,10.33-2.89l-4.93-3.18A21.34,21.34,0,0,0,243.63,56a6.44,6.44,0,0,0-2.87-.58q-3.24,0-9.5.29t-9.47.29c-.07-1.83-.1-3.08-.1-3.76a52.69,52.69,0,0,1,1-9.09l1.83-9.1q20.34-3.18,34.74-4.62ZM376.81,90.69v10.07Q388,85.88,399.22,63.36V53.29Q388,75.82,376.81,90.69Zm22.41-37.4V63.36Q410.06,42.71,410.06,41V30.91Q410.06,32.65,399.22,53.29Zm-.78-42.88V20.47l.23-1.15V9.25ZM290.5,48.67V58.74L300,75.05V65L290.5,48.67Zm5.33,29.6V88.34a7.65,7.65,0,0,0,2.41,5.77V84.05A7.67,7.67,0,0,1,295.83,78.27Zm2.41,5.78V94.11q6.4-1.73,12.55-3.61V80.44Q304.65,82.32,298.24,84.05Zm12.55-3.61V90.5q7.44-2.59,10.86-7.07V73.36Q318.23,77.85,310.79,80.44Zm.63-5.2V85.31q5.1-7.52,15.47-13.72V61.52Q316.53,67.73,311.42,75.24Zm15.47-13.72V71.59q5.06-3,18.47-9.53V52Q332,58.5,326.89,61.52ZM345.36,52V62.06l.43.72V52.72Zm-13,56.17v10.07q0,4.33,5.72,8.52V116.68Q332.37,112.5,332.38,108.16Zm5.72,8.52v10.07q4.22,3,9,6.21V122.89Q342.32,119.71,338.1,116.68Zm9,6.21V133a195.18,195.18,0,0,0,29.71-32.2V90.69A194.38,194.38,0,0,1,347.1,122.89Zm29.71-32.2Q388,75.83,399.22,53.29q10.84-20.64,10.84-22.38c0-1.15-.86-1.88-2.57-2.16a56.78,56.78,0,0,1-5.25-9.32q-3.57-6.7-3.8-9l.23-1.16V8.67a37.88,37.88,0,0,0-8.79,1.3q-4.33,1-8.65,2.17-16.43,3.46-25,5.2Q348.84,19.65,345,21a278.79,278.79,0,0,0-28.82,11.12q-15.56,7.22-25.71,16.6L300,65q-4.2,8.52-4.19,13.28a7.67,7.67,0,0,0,2.41,5.78q6.4-1.74,12.55-3.61,7.44-2.59,10.86-7.08l-1.5-.57-6.82,2.74-1.91-.29q5.1-7.5,15.47-13.72,5.06-3,18.47-9.53l.43.73a115.65,115.65,0,0,1-3.47,12.85q-9.94,36.68-9.94,42.59,0,4.34,5.72,8.52,4.22,3,9,6.21a194.38,194.38,0,0,0,29.71-32.2Zm-23.18,0v10.07q0-6.93,4.59-23.11V67.59Q353.63,83.76,353.63,90.69Zm4.59-23.1V77.65q3.61-11.84,7.24-23.53V44.05Q361.85,55.75,358.22,67.59Zm7.24-23.54V54.12q4.85-1.59,10.24-3V41Q370.3,42.46,365.46,44.05Zm10.24-3V51.08a39.2,39.2,0,0,1,10.4-1.73V39.29A38.79,38.79,0,0,0,375.7,41Zm10.4-1.73V49.35a2.94,2.94,0,0,1,1.89.72V40A2.94,2.94,0,0,0,386.1,39.29ZM374.05,68.17a115.34,115.34,0,0,1-19.65,24,1.53,1.53,0,0,1-.77-1.45q0-6.93,4.59-23.1,3.61-11.85,7.24-23.54,4.85-1.59,10.24-3a38.79,38.79,0,0,1,10.4-1.73A2.94,2.94,0,0,1,388,40a127.1,127.1,0,0,1-13.94,28.16ZM391.1,113.8v10.06h4V113.8Zm4,0v0Zm0,1.15v0Zm0,.58v10.06q3.34-.14,8.25,4.62V120.15Q398.44,115.38,395.1,115.53Zm8.25,4.62v10.06a9.77,9.77,0,0,1,4.36-3.61V116.54A9.77,9.77,0,0,0,403.35,120.15Zm4.36-3.61V126.6a1.41,1.41,0,0,1,.78,1.3V117.84A1.4,1.4,0,0,0,407.71,116.54Zm.11,3.9V130.5c0,.48.52,1.06,1.57,1.73V122.17C408.34,121.5,407.82,120.92,407.82,120.44Zm1.57,1.73v10.06a2.8,2.8,0,0,0,1.9,1V123.18A2.82,2.82,0,0,1,409.39,122.17Zm1.9,1v10.07q1.23,0,1.68-4.05V119.14C412.67,121.83,412.11,123.18,411.29,123.18Zm1.68-4V129.2a15.75,15.75,0,0,0,.89-5.2V113.94A15.84,15.84,0,0,1,413,119.14Zm.89-5.2V124l11.22-48.22V65.71Zm9.88-49.24V74.77l2-2.17V62.53Zm2-2.17V72.6a55.85,55.85,0,0,1,2-15.88V46.65A55.9,55.9,0,0,0,425.76,62.53Zm2-15.88V56.72q3.15-7.51,5.74-15V31.63Q430.93,39.15,427.78,46.65Zm5.74-15V41.7c.68-2.7,1.46-5.78,2.36-9.24V22.39C435,25.86,434.2,28.94,433.52,31.63Zm2.36-9.24V32.46a84.22,84.22,0,0,0,1.36-9.39V13A83.58,83.58,0,0,1,435.88,22.39ZM400.45,65.13q-2.56,12.14-5.35,24.26-2.88,14.44-4,24.41h4v1.73q3.34-.15,8.25,4.62a9.77,9.77,0,0,1,4.36-3.61,1.4,1.4,0,0,1,.78,1.3,2.81,2.81,0,0,1-.45,1.23,5.44,5.44,0,0,0-.22,1.37c0,.48.52,1.06,1.57,1.73a2.82,2.82,0,0,0,1.9,1c.82,0,1.38-1.35,1.68-4a15.84,15.84,0,0,0,.89-5.2l11.22-48.23-1.34-1,2-2.17a55.9,55.9,0,0,1,2-15.88q3.15-7.5,5.74-15,1-4,2.36-9.24A83.58,83.58,0,0,0,437.24,13a4.94,4.94,0,0,0-2.71-.73,4.78,4.78,0,0,0-2.92,1.3l-8.77-3.17-2.7,2.45a3.89,3.89,0,0,0-3.59-2.6,2.85,2.85,0,0,0-1.68.58q-7.72,27.58-12.63,44.76c-.9,4.24-1.49,7.42-1.79,9.53Zm97-49.38V25.82A4.74,4.74,0,0,0,500.58,27V16.91A4.75,4.75,0,0,1,497.41,15.75Zm3.17,1.16V27h0V16.91ZM439,50.26V60.33a25.75,25.75,0,0,0,.68,7.07V57.34A25.89,25.89,0,0,1,439,50.26Zm.68,7.08V67.4Q442,74.33,455.86,81V70.91Q442,64.27,439.72,57.34Zm16.14,13.57V81q10.41,4.77,20.93,9.39V80.3Q466.26,75.66,455.86,70.91Zm20.93,9.39V90.36c1.82,1.06,2.72,1.68,2.72,1.88V82.17C479.51,82,478.61,81.35,476.79,80.3ZM425.65,95v10.07q3.81,11.84,15.08,11.84V106.86Q429.47,106.86,425.65,95Zm15.08,11.84v10.07a62.51,62.51,0,0,0,11.85-1.45V105.42A63.21,63.21,0,0,1,440.73,106.86Zm11.85-1.44v10.06q7.69-1.73,9.61-4.33V101.09Q460.27,103.68,452.58,105.42Zm9.61-4.33v10.06h3.17V101.09Zm3.17,0v10.06a2.72,2.72,0,0,1,2.38-.72V100.37A2.69,2.69,0,0,0,465.36,101.09Zm-42.52,3.32v10.06a82.28,82.28,0,0,1,4.49,7.22V111.63A80.81,80.81,0,0,0,422.84,104.41Zm4.49,7.22v10.06q4.28,2,8.78,4V115.67Q431.61,113.64,427.33,111.63Zm8.78,4v10.07q5.75,2.31,9.25,2.31V118Q441.85,118,436.11,115.67Zm9.25,2.31v10.07a91,91,0,0,0,21.24-3V115A91,91,0,0,1,445.36,118Zm21.24-3V125q13.14-3.18,19.48-7.66V107.3Q479.74,111.77,466.6,115Zm19.48-7.65v10.06q7.94-5.49,8.61-6.21V101.09Q494,101.81,486.08,107.3Zm8.61-6.21v10.06q7-8.52,7-21.08V80Q501.72,92.57,494.69,101.09Zm-36.12-51V60.18a17.58,17.58,0,0,1,8.83-10.25V39.86A17.6,17.6,0,0,0,458.57,50.12Zm8.83-10.26V49.93q6.9-2.59,13.24-5.2V34.67Q474.31,37.27,467.4,39.86Zm13.24-5.19V44.73a42.4,42.4,0,0,1,5.44-1.52V33.15A40.67,40.67,0,0,0,480.64,34.67Zm5.44-1.52V43.21a37.53,37.53,0,0,1,5.78-1.08V32.07A37.53,37.53,0,0,0,486.08,33.15Zm5.78-1.08V42.13c1.28,0,2.76,1.13,4.42,3.4V35.46C494.62,33.2,493.14,32.07,491.86,32.07Zm4.42,3.39V45.53a14.13,14.13,0,0,1,2.83,5.55V41A14.16,14.16,0,0,0,496.28,35.46ZM499.11,41V51.08q6.57-6.34,6.57-17V24Q505.68,34.66,499.11,41Zm-1.7-25.27a4.75,4.75,0,0,0,3.17,1.16h0a85.46,85.46,0,0,0-9.74-.44,9.11,9.11,0,0,0-3.17.44l-.23.28c-.9.2-1.89,1.09-2.94,2.68s-1.93,2.38-2.61,2.38-1.09-.53-1.25-1.59c0-1.06-.41-1.59-1.24-1.59A61.84,61.84,0,0,0,458.46,23q-12.54,4.62-17,12Q439,39,439,50.26a25.89,25.89,0,0,0,.68,7.08q2.25,6.93,16.14,13.57,10.41,4.77,20.93,9.39c1.82,1,2.72,1.68,2.72,1.87,0,2.51-2,4.62-6.11,6.36q-5,1.57-10,3.32-10.86,5.34-27.22,5.34A25.43,25.43,0,0,1,425.65,95q3.81,11.85,15.08,11.84a63.21,63.21,0,0,0,11.85-1.44q7.69-1.74,9.61-4.33h3.17a2.69,2.69,0,0,1,2.38-.72q-12.67,8.8-19.68,8.8A51.8,51.8,0,0,1,435.43,107a84.36,84.36,0,0,0-12.59-2.6,80.81,80.81,0,0,1,4.49,7.22q4.28,2,8.78,4,5.75,2.31,9.25,2.31a91,91,0,0,0,21.24-3q13.14-3.18,19.48-7.65,7.94-5.49,8.61-6.21,7-8.52,7-21.08,0-4.77-5.67-9.39a101.21,101.21,0,0,0-10-6.06Q468,54.89,458.57,50.12a17.64,17.64,0,0,1,8.83-10.26q6.9-2.59,13.24-5.19a40.67,40.67,0,0,1,5.44-1.52,37.53,37.53,0,0,1,5.78-1.08c1.28,0,2.76,1.13,4.42,3.39A14.16,14.16,0,0,1,499.11,41q6.57-6.36,6.57-17c0-.87,0-2-.11-3.54s-.12-2.57-.12-3.25l-1.7-2.74Zm80,0V25.82A5.36,5.36,0,0,0,580.66,27V16.91A5.38,5.38,0,0,1,577.43,15.75Zm3.23,1.16V27h.12V16.91ZM519.15,50.26V60.33a25.75,25.75,0,0,0,.68,7.07V57.34A25.89,25.89,0,0,1,519.15,50.26Zm.68,7.08V67.4q2.49,6.93,16,13.57V70.91Q522.31,64.27,519.83,57.34Zm16,13.57V81Q546.7,85.74,557,90.36V80.3Q546.69,75.66,535.87,70.91ZM557,80.3V90.36c1.8,1.06,2.7,1.68,2.7,1.88V82.17C559.74,82,558.84,81.35,557,80.3ZM505.68,95v10.07q4,11.84,15.28,11.84V106.86Q509.63,106.86,505.68,95ZM521,106.86v10.07a54.39,54.39,0,0,0,11.3-1.45V105.42A55,55,0,0,1,521,106.86Zm11.3-1.44v10.06q8.13-1.73,9.93-4.33V101.09Q540.39,103.68,532.26,105.42Zm9.93-4.33v10.06h3.38V101.09Zm3.38,0v10.06a3,3,0,0,1,2.25-.72V100.37A3,3,0,0,0,545.57,101.09Zm-42.27,3.32v10.06a55.8,55.8,0,0,1,3.62,7.22V111.63A55.16,55.16,0,0,0,503.3,104.41Zm3.62,7.22v10.06q4.88,2,9.29,4V115.67Q511.79,113.64,506.92,111.63Zm9.29,4v10.07a26.69,26.69,0,0,0,9.38,2.31V118A26.69,26.69,0,0,1,516.21,115.67Zm9.38,2.31v10.07a90.21,90.21,0,0,0,21.1-3V115A90.21,90.21,0,0,1,525.59,118Zm21.1-3V125q13.15-3.18,19.55-7.66V107.3Q559.85,111.77,546.69,115Zm19.55-7.65v10.06q7.85-5.49,8.28-6.21V101.09Q574.09,101.81,566.24,107.3Zm8.28-6.21v10.06q7.15-8.52,7.15-21.08V80Q581.67,92.57,574.52,101.09Zm-35.94-51V60.18a18.49,18.49,0,0,1,9-10.25V39.86A18.51,18.51,0,0,0,538.58,50.12Zm9-10.26V49.93q6.3-2.59,13-5.2V34.67Q553.89,37.27,547.6,39.86Zm13-5.19V44.73c.89-.29,2.8-.79,5.71-1.52V33.15C563.44,33.87,561.53,34.38,560.64,34.67Zm5.71-1.52V43.21a36.18,36.18,0,0,1,5.49-1.08V32.07A36.18,36.18,0,0,0,566.35,33.15Zm5.49-1.08V42.13q2.24,0,4.58,3.4V35.46Q574.08,32.07,571.84,32.07Zm4.58,3.39V45.53Q579,48.92,579,51.08V41C579,39.58,578.13,37.72,576.42,35.46ZM579,41V51.08q6.91-6.34,6.91-17V24Q585.9,34.66,579,41Zm-1.56-25.27a5.38,5.38,0,0,0,3.23,1.16h.12a91.57,91.57,0,0,0-9.83-.44,10.22,10.22,0,0,0-3.14.44l-.11.28c-.9.2-1.91,1.09-3,2.68s-2,2.38-2.69,2.38-.9-.53-.9-1.59c-.3-1.06-.82-1.59-1.57-1.59A61.57,61.57,0,0,0,538.58,23Q526,27.59,521.41,35q-2.26,4-2.26,15.31a25.89,25.89,0,0,0,.68,7.08q2.49,6.93,16,13.57Q546.7,75.68,557,80.3c1.8,1,2.7,1.68,2.7,1.87,0,2.51-2.1,4.62-6.29,6.36q-4.85,1.57-9.46,3.32-11.73,5.34-27.56,5.34A26.08,26.08,0,0,1,505.68,95q4,11.85,15.28,11.84a55,55,0,0,0,11.3-1.44q8.13-1.74,9.93-4.33h3.38a3,3,0,0,1,2.25-.72q-12.86,8.8-19.4,8.8A52.27,52.27,0,0,1,515.64,107a81.45,81.45,0,0,0-12.34-2.6,55.16,55.16,0,0,1,3.62,7.22q4.88,2,9.29,4a26.69,26.69,0,0,0,9.38,2.31,90.21,90.21,0,0,0,21.1-3q13.15-3.18,19.55-7.65,7.85-5.49,8.28-6.21,7.15-8.52,7.15-21.08,0-4.77-5.36-9.39a116.42,116.42,0,0,0-10-6.06q-18.3-9.68-27.77-14.44a18.51,18.51,0,0,1,9-10.26q6.3-2.59,13-5.19c.89-.29,2.8-.8,5.71-1.52a36.18,36.18,0,0,1,5.49-1.08q2.24,0,4.58,3.39C578.13,37.72,579,39.58,579,41q6.91-6.36,6.91-17c0-.87-.07-2-.22-3.54s-.11-2.57-.11-3.25L584,14.45Zm4.24,98.05v10.06h3.9V113.8Zm3.9,0v10.06a1.67,1.67,0,0,1,.55,1.16V115A1.67,1.67,0,0,0,585.57,113.8Zm.55,1.15v0Zm0,.58v10.06q3.12-.14,8,4.62V120.15Q589.24,115.38,586.12,115.53Zm8,4.62v10.06a8.39,8.39,0,0,1,4.32-3.61V116.54A8.39,8.39,0,0,0,594.13,120.15Zm4.32-3.61V126.6a1.46,1.46,0,0,1,.66,1.3V117.84A1.45,1.45,0,0,0,598.45,116.54Zm0,3.9V130.5c0,.48.48,1.06,1.44,1.73V122.17C598.93,121.5,598.45,120.92,598.45,120.44Zm1.44,1.73v10.06a3.93,3.93,0,0,0,2.1,1V123.18A4,4,0,0,1,599.89,122.17Zm2.1,1v10.07c1,0,1.58-1.35,1.88-4.05V119.14C603.57,121.83,603,123.18,602,123.18Zm1.88-4V129.2q.55-2.59.88-5.2V113.94Q604.42,116.54,603.87,119.14Zm.88-5.2V124l11.13-48.22V65.71Zm9.7-49.24V74.77l2-2.17V62.53Zm2-2.17V72.6a48.15,48.15,0,0,1,2.41-15.88V46.65A48.19,48.19,0,0,0,616.43,62.53Zm2.41-15.88V56.72q2.63-7.51,5.26-15V31.63Q621.48,39.15,618.84,46.65Zm5.26-15V41.7a37.06,37.06,0,0,0,2.51-9.24V22.39A36.82,36.82,0,0,1,624.1,31.63Zm2.51-9.24V32.46q.66-2.89,1.53-9.39V13Q627.27,19.51,626.61,22.39ZM591.24,65.13q-2.44,12.14-5.12,24.26-3.12,14.44-4.45,24.41h3.9a1.67,1.67,0,0,1,.55,1.15v.58q3.12-.15,8,4.62a8.39,8.39,0,0,1,4.32-3.61,1.45,1.45,0,0,1,.66,1.3,4.84,4.84,0,0,1-.22,1.23,2.93,2.93,0,0,0-.44,1.37c0,.48.48,1.06,1.44,1.73a4,4,0,0,0,2.1,1c1,0,1.58-1.35,1.88-4q.55-2.61.88-5.2l11.13-48.23-1.43-1,2-2.17a48.19,48.19,0,0,1,2.41-15.88q2.63-7.5,5.26-15a36.82,36.82,0,0,0,2.51-9.24q.66-2.88,1.53-9.38a5.41,5.41,0,0,0-2.62-.73,5.53,5.53,0,0,0-3.17,1.3l-8.78-3.17-2.64,2.45q-1.32-2.59-3.53-2.6a3.06,3.06,0,0,0-1.87.58q-7.75,27.58-12.74,44.76-1.21,6.36-1.55,9.53ZM700,90.69v10.07a307.07,307.07,0,0,0,22.35-37.4V53.29Q710.64,75.82,700,90.69Zm22.35-37.4V63.36Q733.23,42.71,733.23,41V30.91Q733.23,32.65,722.31,53.29Zm-.91-42.88V20.47l.51-1.15V9.25ZM613.57,48.67V58.74l9.54,16.31V65Zm5.27,29.6V88.34a7.65,7.65,0,0,0,2.41,5.77V84.05A7.67,7.67,0,0,1,618.84,78.27Zm2.41,5.78V94.11q6.24-1.73,12.55-3.61V80.44Q627.49,82.32,621.25,84.05Zm12.55-3.61V90.5q7.17-2.59,10.73-7.07V73.36Q641,77.85,633.8,80.44Zm.55-5.2V85.31a53.71,53.71,0,0,1,15.36-13.72V61.52a53.86,53.86,0,0,0-15.36,13.72Zm15.36-13.72V71.59q5.06-3,18.61-9.53V52q-13.56,6.51-18.61,9.53ZM668.32,52V62.06l.21.72V52.72Zm-13,56.17v10.07q0,4.33,5.78,8.52V116.68Q655.29,112.5,655.3,108.16Zm5.78,8.52v10.07q4.47,3,8.72,6.21V122.89Q665.56,119.71,661.08,116.68Zm8.72,6.21V133A190.88,190.88,0,0,0,700,100.76V90.69A190.12,190.12,0,0,1,669.8,122.89ZM700,90.69q10.68-14.86,22.35-37.4,10.92-20.64,10.92-22.38c0-1.15-.93-1.88-2.79-2.16a70.74,70.74,0,0,1-5.21-9.32q-3.63-6.7-3.83-9l.51-1.16-.3-.58a34,34,0,0,0-8.52,1.3q-4.5,1-9,2.17-16.27,3.46-24.14,5.2c-5.41,1.54-9.4,2.74-11.94,3.61a271.62,271.62,0,0,0-28.66,11.12q-15.68,7.22-25.77,16.6L623.11,65q-4.27,8.52-4.27,13.28a7.67,7.67,0,0,0,2.41,5.78q6.24-1.74,12.55-3.61,7.17-2.59,10.73-7.08l-1.29-.57-6.94,2.74-1.95-.29a53.86,53.86,0,0,1,15.36-13.72q5.06-3,18.61-9.53l.21.73q-1.69,8.66-3,12.85-10.24,36.68-10.25,42.59,0,4.34,5.78,8.52,4.47,3,8.72,6.21A190.12,190.12,0,0,0,700,90.69Zm-23.39,0v10.07q0-6.93,4.74-23.11V67.59Q676.57,83.76,676.57,90.69Zm4.74-23.1V77.65q3.57-11.84,7.23-23.53V44.05Q684.88,55.75,681.31,67.59Zm7.23-23.54V54.12q5-1.59,10.18-3V41Q693.53,42.46,688.54,44.05Zm10.18-3V51.08A38.86,38.86,0,0,1,709,49.35V39.29A38.46,38.46,0,0,0,698.72,41ZM709,39.29V49.35a2.63,2.63,0,0,1,1.94.72V40A2.63,2.63,0,0,0,709,39.29Zm-12,28.88a115.63,115.63,0,0,1-19.64,24,1.51,1.51,0,0,1-.85-1.45q0-6.93,4.74-23.1,3.57-11.85,7.23-23.54,5-1.59,10.18-3A38.46,38.46,0,0,1,709,39.29,2.63,2.63,0,0,1,711,40a120.18,120.18,0,0,1-13.89,28.16Zm99.08-38.7V39.53a38.71,38.71,0,0,0,3.32-3.61V25.86A40,40,0,0,1,796.14,29.47Zm-2.71-5.92V33.61c0-.38.9-1,2.71-1.95V21.6C794.33,22.51,793.43,23.16,793.43,23.55Zm2.71-1.95V31.66a11,11,0,0,0,3.05-2.09V19.5A11,11,0,0,1,796.14,21.6Zm-.54-6.14V25.53a8.62,8.62,0,0,1,.72-3.32V12.14A8.66,8.66,0,0,0,795.6,15.46ZM711,30.05V40.11h5.39V30.05Zm.41,6.93V47l31.17-3.61V33.37Zm16.88,29.6V76.64a18.34,18.34,0,0,0,.7,4.77V71.34A18.27,18.27,0,0,1,728.24,66.58Zm.7,4.76V81.41c3.79-.2,6-.29,6.68-.29V71.05C735,71.05,732.73,71.15,728.94,71.34Zm6.68-.29V81.12h.59V71.05Zm.59,0V81.12c0,.2,0,.41,0,.62V71.68C736.22,71.46,736.22,71.26,736.21,71.05Zm-17.64,37.84V119a27.11,27.11,0,0,0,1.42,7.51V116.39A27.12,27.12,0,0,1,718.57,108.89Zm1.42,7.5v10.07q11.14,0,33.66,1.44V117.84Q731.14,116.4,720,116.39Zm33.66,1.45V127.9q22.85,1.46,33.94,1.45V119.28Q776.49,119.28,753.65,117.84Zm28.61-2.75v10.07a30.4,30.4,0,0,0,9.53-1.3V113.8A30.71,30.71,0,0,1,782.26,115.09Zm5.33-3.89v10.06a20.8,20.8,0,0,1,2.93-3.32V107.87A20.57,20.57,0,0,0,787.59,111.2Zm-1.1-5.2v10.06l.37-1.59V104.41Zm.37-2.46v10.07l6-6.36V97.19ZM751.33,95.6v10.07q0-4.2,2.13-12.35V83.26Q751.33,91.41,751.33,95.6Zm2.13-12.34V93.32a54,54,0,0,0,2.13-12.63V70.62A54.09,54.09,0,0,1,753.46,83.26Zm2.13-12.64V80.69q4.23,0,12.81-.29V70.33Q759.82,70.61,755.59,70.62Zm12.81-.29V80.4q8.46-.3,12.56-.29V70Q776.87,70,768.4,70.33Zm2.46-4V76.35q3.85,0,10.1-2.88V63.4Q774.72,66.3,770.86,66.29Zm5.26-6.07V70.29a22.7,22.7,0,0,0,4.47-4.19V56A22.66,22.66,0,0,1,776.12,60.22Zm-17.54-7.94V62.35a52.69,52.69,0,0,1,1-9.1V43.19A52.69,52.69,0,0,0,758.58,52.28Zm1-9.09V53.25l1.82-9.1V34.09Zm1.82-9.1V44.15Q781.7,41,796.14,39.53V29.47Q781.7,30.91,761.36,34.09Zm34.78-4.62a40,40,0,0,0,3.32-3.61c-.18-.29-1.23-.7-3.14-1.23s-2.89-.89-2.89-1.08c0-.39.9-1,2.71-1.95a11,11,0,0,0,3.05-2.1c-2.4-1.15-3.59-2.5-3.59-4a8.66,8.66,0,0,1,.72-3.32l-33.15,5.2-1.33-3.9a17.43,17.43,0,0,1-7.6,1.3c-.52,0-1.23-.05-2.14-.14h-2.23c-1.43,0-2.15.57-2.15,1.73a3.38,3.38,0,0,1-2.64,2.89q-5.31,1.88-25.49,3.46c-3.59.29-5.75,1.11-6.5,2.46a11.51,11.51,0,0,1-.82,2.52c-.27,1.4-.71,2.19-1.32,2.39h5.39c0,.48-.81,1.51-2.44,3.1S711.42,36,711.36,37l31.17-3.61q-.88,2.31-1.18,11.4-.2,7.8-2.57,10.26-5.55.72-8.14,1.15a21.69,21.69,0,0,0-2.4,10.4,18.27,18.27,0,0,0,.7,4.76c3.79-.19,6-.29,6.68-.29h.59c0,.21,0,.41,0,.63q0,5.07-3,13.09Q730,93.29,730,95.17v.14l-.8,1c-1.6-.19-2.67-.29-3.21-.29a3.35,3.35,0,0,0-1.8.44,3.54,3.54,0,0,1-1.41.58,30.41,30.41,0,0,0-2.43,5.7q-1.82,4.55-1.82,6.14a27.12,27.12,0,0,0,1.42,7.5q11.14,0,33.66,1.45,22.85,1.44,33.94,1.44l-5.33-4.19a30.71,30.71,0,0,0,9.53-1.29,24,24,0,0,1-2.18-1.3,9.49,9.49,0,0,1-2-1.3,20.57,20.57,0,0,1,2.93-3.33l-4-1.87.37-1.59v-.87l6-6.35Q789.15,96,781.7,96h-6c-2.62.1-4.57.15-5.82.15q-3.23,0-9.33-.29t-9.26-.29q0-4.18,2.13-12.34a54.09,54.09,0,0,0,2.13-12.64q4.23,0,12.81-.29T781,70q-.37-.72-5.22-1.87-4.41-1.15-4.88-1.88,3.85,0,10.1-2.89l-4.84-3.18A22.66,22.66,0,0,0,780.59,56a6.47,6.47,0,0,0-3-.58q-3.18,0-9.49.29t-9.45.29c-.06-1.83-.09-3.08-.09-3.76a52.69,52.69,0,0,1,1-9.09l1.82-9.1q20.34-3.18,34.78-4.62Zm62,91.54v10.07a4,4,0,0,0,4,2.74V123.76A4,4,0,0,1,858.15,121Zm4,2.75v10.06q1.89,0,2.41-4.62V119.14Q864.08,123.76,862.19,123.76Zm2.41-11v10.07L867,135.27V125.2ZM867,125.2v10.07q1.49-.44,1.71-5.49V119.72Q868.47,124.76,867,125.2Zm1.71-5.48v10.06q.13-5.93.66-6.64V113.07Q868.84,113.79,868.7,119.72Zm.66-6.65v10.07a15.79,15.79,0,0,1,.59,5V118.13A15.86,15.86,0,0,0,869.36,113.07Zm.59,5.06v10.06a12.84,12.84,0,0,0,.81,5.2V123.33A12.84,12.84,0,0,1,870,118.13Zm.81,5.2v10.06c.19-1.73.41-3.49.65-5.27V118.05C871.17,119.84,871,121.59,870.76,123.33Zm.65-5.28v10.07a3.15,3.15,0,0,1,3.2-2.82V115.24A3.14,3.14,0,0,0,871.41,118.05Zm3.2-2.81V125.3l.79-.86V114.37Zm.79-.87v0Zm-.79-5.2v10.07a11.63,11.63,0,0,1,1.44-4.69V104.48A11.67,11.67,0,0,0,874.61,109.17Zm1.44-4.69v10.07a11.82,11.82,0,0,0,1.43-4.7V99.79A11.79,11.79,0,0,1,876.05,104.48Zm.29-9.75V104.8q0-1.59,1.78-6.93V87.8Q876.33,93.16,876.34,94.73Zm1.78-6.93V97.87c.71-2.41,1.54-4.81,2.48-7.22V80.58Q879.19,84.2,878.12,87.8Zm2.48-7.22V90.65q4.32-14.45,9.09-41.44V39.14Q884.92,66.14,880.6,80.58Zm9.09-41.44V49.21q.54-1.16,3.74-15.16V24Q890.23,38,889.69,39.14ZM893.43,24V34.05a66,66,0,0,0,2.3-15.45V8.53A65.83,65.83,0,0,1,893.43,24Zm-98.65,90V124a21.6,21.6,0,0,0,.27,3.61V117.55A21.69,21.69,0,0,1,794.78,113.94Zm.27,3.61v10.06a71.12,71.12,0,0,1,10.11,1.52V119.07A69.67,69.67,0,0,0,795.05,117.55Zm10.11,1.52v10.06a95.87,95.87,0,0,0,9.54,1.66V120.73Q811.66,120.43,805.16,119.07Zm9.54,1.66v10.06q1.9-14.86,3.2-22.24V98.49Q816.6,105.86,814.7,120.73Zm3.2-22.24v10.06q2.73-21.79,4.36-32.77V65.71q-1.62,11-4.36,32.78ZM819.53,68V78.09L823,71.3V61.23ZM823,61.23V71.3q3,7.65,6,15.31V76.54Q826,68.89,823,61.23Zm6,15.31V86.61a53.13,53.13,0,0,0,8.6,13.86V90.4A53.13,53.13,0,0,1,829,76.54Zm8.6,13.86v10.07q8.08,9.24,8.73,10.11V100.51Q845.7,99.64,837.61,90.4Zm8.73,10.11v10.07a81.81,81.81,0,0,1,4.67,7.94V108.45A83.21,83.21,0,0,0,846.34,100.51Zm4.67,7.94v10.07a36.85,36.85,0,0,0,5.37,7.36V115.82A36.67,36.67,0,0,1,851,108.45Zm5.37,7.37v10.06q.93,2.46,1.77,5.2V121C857.59,119.19,857,117.45,856.38,115.82Zm1.77,5.19a4,4,0,0,0,4,2.75q1.89,0,2.41-4.62v-6.36L867,125.2q1.49-.44,1.71-5.48.13-5.93.66-6.65a15.86,15.86,0,0,1,.59,5.06,12.84,12.84,0,0,0,.81,5.2c.19-1.74.41-3.49.65-5.28a3.14,3.14,0,0,1,3.2-2.81l.79-.87v-.72a7.59,7.59,0,0,0-.5-2.31,12.34,12.34,0,0,1-.29-2.17,11.67,11.67,0,0,1,1.44-4.69,11.79,11.79,0,0,0,1.43-4.69,8.6,8.6,0,0,0-.57-2.53,8.6,8.6,0,0,1-.57-2.53q0-1.58,1.78-6.93,1.07-3.6,2.48-7.22,4.32-14.43,9.09-41.44Q890.23,38,893.43,24a65.83,65.83,0,0,0,2.3-15.45l-.13-.14a13.08,13.08,0,0,0-3,3.53,10,10,0,0,1-2.95,3.54l-.2-.14q-2.85-5.34-4-8.09Q879.75,11,879,12.72c-1,2.5-1.87,5-2.63,7.36a1,1,0,0,0-.65-.43,1.8,1.8,0,0,0-1.08.43V19.5c0-5.48-.17-8.76-.51-9.81q-2.18,3.17-7.56,29-4.35,21.23-6.17,32.2-1,8.67-1.45,13.28-2.53-1.59-6.82-9-9.93-18.48-14.49-27.87Q827.85,29.18,827,26q-4-9.81-4.32-10.25-2.8-4.9-9.37-7.08-4.89,7.51-11.88,50-6.64,40-6.65,55.3a21.69,21.69,0,0,0,.27,3.61,69.67,69.67,0,0,1,10.11,1.52q6.5,1.37,9.54,1.66,1.9-14.88,3.2-22.24,2.73-21.81,4.36-32.78L819.53,68,823,61.23q3,7.67,6,15.31a53.13,53.13,0,0,0,8.6,13.86q8.08,9.24,8.73,10.11a83.21,83.21,0,0,1,4.67,7.94,36.67,36.67,0,0,0,5.37,7.37c.62,1.63,1.21,3.37,1.77,5.19ZM915.67,13.3V23.36q4.8,2.75,4.92,2.74V16C920.51,16,918.87,15.12,915.67,13.3ZM886.43,29.76V39.82c2,.1,3.51.15,4.54.15V29.9C889.94,29.9,888.42,29.85,886.43,29.76Zm4.54.14V40a116.57,116.57,0,0,0,15.11-1.45V28.46A116.16,116.16,0,0,1,891,29.9Zm15.11-1.44V38.52A117.63,117.63,0,0,1,921,37.08V27A116.22,116.22,0,0,0,906.08,28.46ZM911,56V66.1q0,.15.12.15V56.18C911.08,56.18,911,56.13,911,56Zm.12.14V66.25a15.34,15.34,0,0,0,1.77-3V53.15A15.42,15.42,0,0,1,911.16,56.18Zm1.77-3V63.21a23.09,23.09,0,0,1,1.7-3V50.12A23.09,23.09,0,0,0,912.93,53.15Zm1.7-3V60.18c.11,0,.17,0,.17.15V50.26C914.8,50.16,914.74,50.12,914.63,50.12Zm-15.14,63v10.07a17,17,0,0,1,7.81-5.2V107.87A17,17,0,0,0,899.49,113.07Zm5,5.06v10.06l2.41,1.59V119.72Zm2.41,1.59v10.06a6.78,6.78,0,0,0,3.62-2.17V117.55A6.78,6.78,0,0,1,906.94,119.72Zm3.62-2.17v10.06a14.5,14.5,0,0,1,3.54-2.45V115.09A14.33,14.33,0,0,0,910.56,117.55Zm3.54-.72v10.06a3.9,3.9,0,0,1,.08.87V117.69A3.76,3.76,0,0,0,914.1,116.83Zm-.93,6.06V133l3.76-3.9V119Zm3.76-3.9v10.07c.42.29.66,1.13.74,2.53V121.52C917.59,120.12,917.35,119.28,916.93,119Zm.74,2.53v10.07a8.64,8.64,0,0,0,.57,2.38V123.9A8.52,8.52,0,0,1,917.67,121.52Zm.57,2.38V134l2.73-1.88V122ZM921,122v10.06q10.69-56,18.94-96.17V25.86Q931.66,66,921,122Zm18.94-96.17V35.92h.85V25.86Zm.85,0V35.92q11,0,32,2.89V28.75Q951.76,25.86,940.76,25.86Zm32,2.89V38.81Q974,35.19,974,27V16.91Q974,25.13,972.71,28.75ZM955.07,12.21q-12.11-.5-18-.5c-.94,0-2.41-.08-4.39-.22s-3.29-.22-4.24-.22a32.22,32.22,0,0,0-6.39.94,40.64,40.64,0,0,1-6.35,1.09c3.2,1.82,4.84,2.74,4.92,2.74l-.78.29a30,30,0,0,1-6.64-1.09,32.3,32.3,0,0,0-6.48-1.08h-5.36c-2.3.1-4.06.15-5.27.15A20.09,20.09,0,0,1,893.3,14a20.53,20.53,0,0,0-2.94-.29c-.09,0-.31.38-.67,1.15q-2.51,9.82-3.26,14.88c2,.09,3.51.14,4.54.14a116.16,116.16,0,0,0,15.11-1.44A116.22,116.22,0,0,1,921,27c-1.07,2.22-2.06,4.5-3,6.86a15.68,15.68,0,0,0-1.82,7.29l-.81,1.74c-.69.57-1.67,2.62-2.92,6.13A35.17,35.17,0,0,0,911,56c0,.09,0,.14.12.14a15.42,15.42,0,0,0,1.77-3,23.09,23.09,0,0,1,1.7-3c.11,0,.17,0,.17.14a8.72,8.72,0,0,1-.87,2.89q-5.65,11.7-9.21,29.46-2.62,15.15-5.23,30.46a17,17,0,0,1,7.81-5.2l-1.47,1a82.2,82.2,0,0,1-1.3,9.24l2.41,1.59a6.78,6.78,0,0,0,3.62-2.17,14.33,14.33,0,0,1,3.54-2.46v1.74a3.76,3.76,0,0,1,.08.86,10.23,10.23,0,0,1-.31,2.31c-.35,1.35-.58,2.31-.7,2.89l3.76-3.9c.42.29.66,1.13.74,2.53a8.52,8.52,0,0,0,.57,2.38L921,122q10.69-56,18.94-96.17h.85q11,0,32,2.89Q974,25.14,974,16.91a6.58,6.58,0,0,0-1.16-4.19q-5.76,0-17.77-.51Z"/>
        <path class="cls-2" d="M93.71,12.72a6.91,6.91,0,0,1,1.09,4.19q0,8.22-1.37,11.84-20.84-2.89-32-2.89h-.78Q52.3,66,41.91,122L39,123.9c-.32-.19-.52-1-.61-2.38s-.37-2.24-.78-2.53L34,122.89c.09-.58.26-1.54.53-2.89a9.1,9.1,0,0,0,.29-3.17v-1.74a12.73,12.73,0,0,0-3.35,2.46,7.6,7.6,0,0,1-3.73,2.17l-2.37-1.59c.34-2,.75-5.11,1.24-9.24l1.42-1a16.4,16.4,0,0,0-7.69,5.2q2.52-15.3,5.3-30.46,3.41-17.76,9-29.46a8.58,8.58,0,0,0,.91-2.89c0-.1-.06-.14-.17-.14a30.43,30.43,0,0,0-1.72,3,16.86,16.86,0,0,1-1.75,3c-.07,0-.11,0-.11-.14a30.09,30.09,0,0,1,1.66-7c1-3.51,1.9-5.56,2.67-6.13L37,41.16a18.06,18.06,0,0,1,1.55-7.29c1-2.36,2.15-4.64,3.35-6.86a115.36,115.36,0,0,0-15.12,1.45A114.46,114.46,0,0,1,11.71,29.9c-1.06,0-2.56,0-4.48-.14Q8,24.71,10.46,14.88c.24-.77.47-1.15.68-1.15A19.13,19.13,0,0,1,14,14a20.18,20.18,0,0,0,2.87.29c1.15,0,2.89-.05,5.21-.15h5.17A30.19,30.19,0,0,1,34,15.24a28.73,28.73,0,0,0,6.49,1.09l.86-.29c-.09,0-1.72-.92-4.9-2.74a45.58,45.58,0,0,0,6.32-1.09,32.64,32.64,0,0,1,6.38-.94c1,0,2.41.08,4.32.22s3.31.22,4.46.22q5.77,0,17.87.5T93.71,12.72Z"/>
        <path class="cls-2" d="M164.8,12l.69,3.32,5.21-1.88.53,2.31,5.11-2Q167.22,41,167.22,54.3a6.67,6.67,0,0,0,.35,2.17l9.3-.14-.8,2.31a15.8,15.8,0,0,0-2.56.72,7.89,7.89,0,0,1-2.81.58,1.82,1.82,0,0,0-1.92,1.15h10.4v1a27.45,27.45,0,0,0,.71,5.92,7.12,7.12,0,0,0-2.84,2.46,5.48,5.48,0,0,0-.71,3.46q-2.13,1-13.27,2.6-1,5.34-6,20.65Q153,110,152.22,118L143,119q-8.07,0-8.07-3.46,0-5.49,6.12-30.47V79.43h-1.95q-7.19-.59-21.38-1.16h-2.25q-.15.87-5,22.39-3.19,14.58-7.86,20.64l-.57.15a6.28,6.28,0,0,1-2.25-.58,3.51,3.51,0,0,0-1.68-.58q-1.38,0-10.58-2.6a13.54,13.54,0,0,1-.26-2.45q0-6.8,2.79-19.13t2.83-18.27a6,6,0,0,0-.27-2L76.51,78.27q0-.57,1.31-9.38c1-5.87,1.51-9,1.63-9.24.21-.68.78-1,1.72-1a25.31,25.31,0,0,1,3.48.36,22,22,0,0,0,3.68.36c5.78,0,8.93-.58,9.43-1.73a143.24,143.24,0,0,0,6.34-23.11q4-18.33,5.42-23.39,1.17.87,8,.87a76.45,76.45,0,0,0,9.56-.44c-.2.77-.44,1.88-.69,3.32h0c.46-.57,1.08-1.39,1.86-2.45l.63.58a14,14,0,0,1-1.64,4.91q-1.47,3.9-1.86,5.19-3.24,14-5.37,27.44-1.12,6.93-1,7.94v.58A19.83,19.83,0,0,0,127.48,61a55.67,55.67,0,0,1,8.53.93,43.26,43.26,0,0,0,8.59.8h.57a5.33,5.33,0,0,0-2.78-.87H138.1l-3.53.29a8.58,8.58,0,0,1-2.61-.29l13.62-2.74-21.12.14q2.17-1.44,10.91-2.09,8.9-.65,10.87-1.95,3.06-1.87,4.64-13,1.34-7.65,2.17-15.3,1.19-5.34,4-15.6l4.6,3.33,1.2,2.45ZM120.86,67.59l1.3-1.88-5.91.15L115,67ZM124.92,66l-.69,1.3a67.69,67.69,0,0,0,9.07-1.16Z"/>
        <path class="cls-2" d="M224.48,34.09l-1.83,9.1a52.69,52.69,0,0,0-1,9.09c0,.68,0,1.93.1,3.76q3.17,0,9.47-.29t9.5-.29a6.44,6.44,0,0,1,2.87.58,21.34,21.34,0,0,1-4.34,4.18l4.93,3.18q-6.41,2.9-10.33,2.89.5.72,5.4,1.88c2.89.77,4.54,1.39,4.93,1.87q-4.25,0-12.76.29t-12.74.29a52.74,52.74,0,0,1-2.19,12.64,57,57,0,0,0-2,12.34q3,0,9.18.29t9.31.29q1.95,0,5.87-.15h5.53q7.86,0,11.58,1.16l-6,6.35v.87l-.4,1.59,4.1,1.87a19.9,19.9,0,0,0-2.9,3.33,8.91,8.91,0,0,0,1.9,1.3c1.27.77,2,1.2,2.2,1.3a29.7,29.7,0,0,1-9.28,1.29l5.18,4.19q-11.21,0-33.88-1.44t-33.8-1.45a26.83,26.83,0,0,1-1.43-7.5,22.53,22.53,0,0,1,1.7-6.14,27.05,27.05,0,0,1,2.61-5.7,5.25,5.25,0,0,0,1.27-.58,2.93,2.93,0,0,1,1.81-.44c.67,0,1.82.1,3.46.29l.74-1v-.14q0-1.87,3-10.4,3.22-8.52,2.95-13.72h-.65c-.61,0-2.79.1-6.52.29a19.86,19.86,0,0,1-.64-4.76,23.41,23.41,0,0,1,2.19-10.4q2.76-.43,8.12-1.15,2.43-2.46,2.71-10.26c.18-6.06.53-9.86,1-11.4l-31,3.61c.06-1,.88-2.24,2.48-3.83s2.4-2.62,2.4-3.1H174c.53-.2,1-1,1.32-2.39a6.51,6.51,0,0,1,1-2.52c.71-1.35,2.81-2.17,6.32-2.46q20.21-1.59,25.82-3.46a2.87,2.87,0,0,0,2.27-2.89c0-1.16.75-1.73,2.26-1.73h2.19c1,.09,1.65.14,2.09.14q5.07,0,7.67-1.3l1.35,3.9,33.31-5.2a7.85,7.85,0,0,0-.81,3.32q0,2.31,3.24,4a8.5,8.5,0,0,1-2.83,2.1c-1.75.91-2.62,1.56-2.62,1.95,0,.19.91.55,2.72,1.08a9.78,9.78,0,0,1,3.13,1.23,22,22,0,0,1-3.23,3.61Q244.82,30.91,224.48,34.09Z"/>
        <path class="cls-2" d="M347.1,122.89q-4.78-3.18-9-6.21-5.73-4.19-5.72-8.52,0-5.91,9.94-42.59a115.65,115.65,0,0,0,3.47-12.85l-.43-.73Q332,58.5,326.89,61.52q-10.36,6.21-15.47,13.72l1.91.29,6.82-2.74,1.5.57q-3.42,4.48-10.86,7.08-6.14,1.88-12.55,3.61a7.67,7.67,0,0,1-2.41-5.78q0-4.76,4.19-13.28L290.5,48.67q10.15-9.37,25.71-16.6A278.79,278.79,0,0,1,345,21q3.81-1.31,11.23-3.61,8.53-1.74,25-5.2Q385.55,11,389.88,10a37.88,37.88,0,0,1,8.79-1.3v.58l-.23,1.16q.22,2.31,3.8,9a56.78,56.78,0,0,0,5.25,9.32c1.71.28,2.57,1,2.57,2.16s-3.61,8.62-10.84,22.38Q388,75.82,376.81,90.69A194.38,194.38,0,0,1,347.1,122.89ZM388,40a2.94,2.94,0,0,0-1.89-.72A38.79,38.79,0,0,0,375.7,41q-5.4,1.44-10.24,3-3.61,11.7-7.24,23.54-4.59,16.17-4.59,23.1a1.53,1.53,0,0,0,.77,1.45,115.34,115.34,0,0,0,19.65-24A127.1,127.1,0,0,0,388,40Z"/>
        <path class="cls-2" d="M402.24,55.6q4.9-17.18,12.63-44.76a2.85,2.85,0,0,1,1.68-.58,3.89,3.89,0,0,1,3.59,2.6l2.7-2.45,8.77,3.17a4.78,4.78,0,0,1,2.92-1.3,4.94,4.94,0,0,1,2.71.73,83.58,83.58,0,0,1-1.36,9.38c-.9,3.47-1.68,6.55-2.36,9.24q-2.59,7.52-5.74,15a55.9,55.9,0,0,0-2,15.88l-2,2.17,1.34,1-11.22,48.23a15.84,15.84,0,0,1-.89,5.2c-.3,2.69-.86,4-1.68,4a2.82,2.82,0,0,1-1.9-1c-1.05-.67-1.57-1.25-1.57-1.73a5.44,5.44,0,0,1,.22-1.37,2.81,2.81,0,0,0,.45-1.23,1.4,1.4,0,0,0-.78-1.3,9.77,9.77,0,0,0-4.36,3.61q-4.91-4.77-8.25-4.62V113.8h-4q1.11-10,4-24.41,2.79-12.12,5.35-24.26C400.75,63,401.34,59.84,402.24,55.6Z"/>
        <path class="cls-2" d="M503.75,14.45l1.7,2.74c0,.68,0,1.76.12,3.25s.11,2.67.11,3.54q0,10.68-6.57,17a14.16,14.16,0,0,0-2.83-5.56c-1.66-2.26-3.14-3.39-4.42-3.39a37.53,37.53,0,0,0-5.78,1.08,40.67,40.67,0,0,0-5.44,1.52q-6.33,2.59-13.24,5.19a17.6,17.6,0,0,0-8.83,10.26q9.39,4.76,27.51,14.44a101.21,101.21,0,0,1,10,6.06q5.67,4.62,5.67,9.39,0,12.55-7,21.08-.68.72-8.61,6.21-6.34,4.47-19.48,7.65a91,91,0,0,1-21.24,3q-3.51,0-9.25-2.31-4.5-2-8.78-4a80.81,80.81,0,0,0-4.49-7.22,84.36,84.36,0,0,1,12.59,2.6,51.8,51.8,0,0,0,12.63,2.16q7,0,19.68-8.8a2.69,2.69,0,0,0-2.38.72h-3.17q-1.92,2.59-9.61,4.33a63.21,63.21,0,0,1-11.85,1.44q-11.26,0-15.08-11.84a25.43,25.43,0,0,0,10.57,2.17q16.36,0,27.22-5.34,5-1.74,10-3.32c4.07-1.74,6.11-3.85,6.11-6.36,0-.19-.9-.82-2.72-1.87q-10.53-4.64-20.93-9.39Q442,64.27,439.72,57.34a25.89,25.89,0,0,1-.68-7.08Q439,39,441.41,35q4.51-7.35,17-12a61.84,61.84,0,0,1,20.94-3.9c.83,0,1.24.53,1.24,1.59.16,1.06.57,1.59,1.25,1.59s1.55-.8,2.61-2.38,2-2.48,2.94-2.68l.23-.28a9.11,9.11,0,0,1,3.17-.44,85.46,85.46,0,0,1,9.74.44h0a4.75,4.75,0,0,1-3.17-1.16Z"/>
        <path class="cls-2" d="M584,14.45l1.56,2.74c0,.68,0,1.76.11,3.25s.22,2.67.22,3.54q0,10.68-6.91,17c0-1.44-.86-3.3-2.57-5.56q-2.34-3.39-4.58-3.39a36.18,36.18,0,0,0-5.49,1.08c-2.91.72-4.82,1.23-5.71,1.52q-6.75,2.59-13,5.19a18.51,18.51,0,0,0-9,10.26q9.46,4.76,27.77,14.44a116.42,116.42,0,0,1,10,6.06q5.36,4.62,5.36,9.39,0,12.55-7.15,21.08-.43.72-8.28,6.21-6.39,4.47-19.55,7.65a90.21,90.21,0,0,1-21.1,3,26.69,26.69,0,0,1-9.38-2.31q-4.43-2-9.29-4a55.16,55.16,0,0,0-3.62-7.22,81.45,81.45,0,0,1,12.34,2.6,52.27,52.27,0,0,0,12.78,2.16q6.55,0,19.4-8.8a3,3,0,0,0-2.25.72h-3.38q-1.8,2.59-9.93,4.33a55,55,0,0,1-11.3,1.44q-11.33,0-15.28-11.84a26.08,26.08,0,0,0,10.75,2.17q15.83,0,27.56-5.34,4.62-1.74,9.46-3.32c4.19-1.74,6.29-3.85,6.29-6.36,0-.19-.9-.82-2.7-1.87q-10.35-4.64-21.17-9.39-13.56-6.64-16-13.57a25.89,25.89,0,0,1-.68-7.08q0-11.26,2.26-15.31Q526,27.6,538.58,23a61.57,61.57,0,0,1,20.93-3.9c.75,0,1.27.53,1.57,1.59q0,1.59.9,1.59c.67,0,1.57-.8,2.69-2.38s2.13-2.48,3-2.68l.11-.28a10.22,10.22,0,0,1,3.14-.44,91.57,91.57,0,0,1,9.83.44h-.12a5.38,5.38,0,0,1-3.23-1.16Z"/>
        <path class="cls-2" d="M592.79,55.6q5-17.18,12.74-44.76a3.06,3.06,0,0,1,1.87-.58q2.21,0,3.53,2.6l2.64-2.45,8.78,3.17a5.53,5.53,0,0,1,3.17-1.3,5.41,5.41,0,0,1,2.62.73q-.87,6.49-1.53,9.38a36.82,36.82,0,0,1-2.51,9.24q-2.62,7.52-5.26,15a48.19,48.19,0,0,0-2.41,15.88l-2,2.17,1.43,1-11.13,48.23q-.33,2.59-.88,5.2c-.3,2.69-.92,4-1.88,4a4,4,0,0,1-2.1-1c-1-.67-1.44-1.25-1.44-1.73a2.93,2.93,0,0,1,.44-1.37,4.84,4.84,0,0,0,.22-1.23,1.45,1.45,0,0,0-.66-1.3,8.39,8.39,0,0,0-4.32,3.61q-4.89-4.77-8-4.62V115a1.67,1.67,0,0,0-.55-1.15h-3.9q1.33-10,4.45-24.41,2.67-12.12,5.12-24.26Q591.57,62,592.79,55.6Z"/>
        <path class="cls-2" d="M669.8,122.89q-4.24-3.18-8.72-6.21-5.79-4.19-5.78-8.52,0-5.91,10.25-42.59,1.28-4.18,3-12.85l-.21-.73q-13.56,6.51-18.61,9.53a53.86,53.86,0,0,0-15.36,13.72l1.95.29,6.94-2.74,1.29.57Q641,77.85,633.8,80.44q-6.31,1.88-12.55,3.61a7.67,7.67,0,0,1-2.41-5.78q0-4.76,4.27-13.28l-9.54-16.32q10.09-9.37,25.77-16.6A271.62,271.62,0,0,1,668,21c2.54-.87,6.53-2.07,11.94-3.61q7.88-1.74,24.14-5.2,4.51-1.16,9-2.17a34,34,0,0,1,8.52-1.3l.3.58-.51,1.16q.21,2.31,3.83,9a70.74,70.74,0,0,0,5.21,9.32c1.86.28,2.79,1,2.79,2.16s-3.64,8.62-10.92,22.38Q710.64,75.82,700,90.69A190.12,190.12,0,0,1,669.8,122.89ZM711,40a2.63,2.63,0,0,0-1.94-.72A38.46,38.46,0,0,0,698.72,41q-5.19,1.44-10.18,3-3.66,11.7-7.23,23.54-4.74,16.17-4.74,23.1a1.51,1.51,0,0,0,.85,1.45,115.63,115.63,0,0,0,19.64-24A120.18,120.18,0,0,0,711,40Z"/>
        <path class="cls-2" d="M761.36,34.09l-1.82,9.1a52.69,52.69,0,0,0-1,9.09c0,.68,0,1.93.09,3.76q3.17,0,9.45-.29t9.49-.29a6.47,6.47,0,0,1,3,.58,22.66,22.66,0,0,1-4.47,4.18L781,63.4q-6.24,2.9-10.1,2.89.46.72,4.88,1.88Q780.59,69.32,781,70q-4.1,0-12.56.29t-12.81.29a54.09,54.09,0,0,1-2.13,12.64q-2.13,8.14-2.13,12.34,3.09,0,9.26.29t9.33.29c1.25,0,3.2-.05,5.82-.15h6q7.45,0,11.18,1.16l-6,6.35v.87l-.37,1.59,4,1.87a20.57,20.57,0,0,0-2.93,3.33,9.49,9.49,0,0,0,2,1.3,24,24,0,0,0,2.18,1.3,30.71,30.71,0,0,1-9.53,1.29l5.33,4.19q-11.1,0-33.94-1.44-22.51-1.44-33.66-1.45a27.12,27.12,0,0,1-1.42-7.5q0-1.59,1.82-6.14a30.41,30.41,0,0,1,2.43-5.7,3.54,3.54,0,0,0,1.41-.58A3.35,3.35,0,0,1,726,96c.54,0,1.61.1,3.21.29l.8-1v-.14q0-1.87,3.19-10.4t3-13.72h-.59c-.67,0-2.89.1-6.68.29a18.27,18.27,0,0,1-.7-4.76,21.69,21.69,0,0,1,2.4-10.4q2.6-.43,8.14-1.15,2.37-2.46,2.57-10.26.3-9.09,1.18-11.4L711.36,37c.06-1,.91-2.24,2.54-3.83s2.44-2.62,2.44-3.1H711c.61-.2,1-1,1.32-2.39a11.51,11.51,0,0,0,.82-2.52c.75-1.35,2.91-2.17,6.5-2.46q20.17-1.59,25.49-3.46a3.38,3.38,0,0,0,2.64-2.89c0-1.16.72-1.73,2.15-1.73h2.23c.91.09,1.62.14,2.14.14a17.43,17.43,0,0,0,7.6-1.3l1.33,3.9,33.15-5.2a8.66,8.66,0,0,0-.72,3.32c0,1.54,1.19,2.89,3.59,4a11,11,0,0,1-3.05,2.1c-1.81.91-2.71,1.56-2.71,1.95,0,.19,1,.55,2.89,1.08s3,.94,3.14,1.23a40,40,0,0,1-3.32,3.61Q781.7,30.91,761.36,34.09Z"/>
        <path class="cls-2" d="M856.38,115.82a36.67,36.67,0,0,1-5.37-7.37,83.21,83.21,0,0,0-4.67-7.94q-.65-.87-8.73-10.11A53.13,53.13,0,0,1,829,76.54q-3-7.65-6-15.31L819.53,68l2.73-2.31q-1.62,11-4.36,32.78-1.3,7.37-3.2,22.24-3-.3-9.54-1.66a69.67,69.67,0,0,0-10.11-1.52,21.69,21.69,0,0,1-.27-3.61q0-15.3,6.65-55.3,7-42.46,11.88-50,6.56,2.17,9.37,7.08Q823,16.18,827,26q.84,3.18,10.61,21.37,4.56,9.39,14.49,27.87,4.27,7.37,6.82,9,.45-4.62,1.45-13.28,1.82-11,6.17-32.2,5.38-25.84,7.56-29c.34,1.05.51,4.33.51,9.81v.58a1.8,1.8,0,0,1,1.08-.43,1,1,0,0,1,.65.43c.76-2.4,1.64-4.86,2.63-7.36q.78-1.74,6.5-5.49,1.17,2.75,4,8.09l.2.14a10,10,0,0,0,2.95-3.54,13.08,13.08,0,0,1,3-3.53l.13.14A65.83,65.83,0,0,1,893.43,24q-3.2,14-3.74,15.16-4.77,27-9.09,41.44-1.41,3.61-2.48,7.22-1.79,5.36-1.78,6.93a8.6,8.6,0,0,0,.57,2.53,8.6,8.6,0,0,1,.57,2.53,11.79,11.79,0,0,1-1.43,4.69,11.67,11.67,0,0,0-1.44,4.69,12.34,12.34,0,0,0,.29,2.17,7.59,7.59,0,0,1,.5,2.31v.72l-.79.87a3.14,3.14,0,0,0-3.2,2.81c-.24,1.79-.46,3.54-.65,5.28a12.84,12.84,0,0,1-.81-5.2,15.86,15.86,0,0,0-.59-5.06q-.52.72-.66,6.65-.23,5-1.71,5.48l-2.39-12.42v6.36q-.52,4.62-2.41,4.62a4,4,0,0,1-4-2.75C857.59,119.19,857,117.45,856.38,115.82Z"/>
        <path class="cls-2" d="M972.84,12.72A6.58,6.58,0,0,1,974,16.91q0,8.22-1.29,11.84-21-2.89-32-2.89h-.85Q931.66,66,921,122l-2.73,1.87a8.52,8.52,0,0,1-.57-2.38c-.08-1.4-.32-2.24-.74-2.53l-3.76,3.9c.12-.58.35-1.54.7-2.89a7.8,7.8,0,0,0,.23-3.17v-1.74a14.33,14.33,0,0,0-3.54,2.46,6.78,6.78,0,0,1-3.62,2.17l-2.41-1.59a82.2,82.2,0,0,0,1.3-9.24l1.47-1a17,17,0,0,0-7.81,5.2q2.6-15.3,5.23-30.46,3.56-17.76,9.21-29.46a8.72,8.72,0,0,0,.87-2.89c0-.1-.06-.14-.17-.14a23.09,23.09,0,0,0-1.7,3,15.42,15.42,0,0,1-1.77,3c-.08,0-.12,0-.12-.14a35.17,35.17,0,0,1,1.42-7c1.25-3.51,2.23-5.56,2.92-6.13l.81-1.74A15.68,15.68,0,0,1,918,33.87c.9-2.36,1.89-4.64,3-6.86a116.22,116.22,0,0,0-14.89,1.45A116.16,116.16,0,0,1,891,29.9c-1,0-2.55,0-4.54-.14q.75-5.06,3.26-14.88c.36-.77.58-1.15.67-1.15a20.53,20.53,0,0,1,2.94.29,20.09,20.09,0,0,0,2.76.29c1.21,0,3-.05,5.27-.15h5.36a32.3,32.3,0,0,1,6.48,1.08,30,30,0,0,0,6.64,1.09l.78-.29c-.08,0-1.72-.92-4.92-2.74A40.64,40.64,0,0,0,922,12.21a32.22,32.22,0,0,1,6.39-.94c1,0,2.37.08,4.24.22s3.45.22,4.39.22q5.93,0,18,.5T972.84,12.72Z"/>
      </g>
    </g>
  </g>
</svg>
