<svg xmlns="http://www.w3.org/2000/svg" width="414.82" height="286.04" viewBox="0 0 414.82 286.04">
  <defs>
    <style>
      .cls-1, .cls-2 {
        fill: #374a9f;
      }

      .cls-1 {
        stroke: #fff;
        stroke-linejoin: round;
        stroke-width: 19.48px;
      }
    </style>
  </defs>
  <title>2377777</title>
  <g id="Layer_2" data-name="Layer 2">
    <g id="Layer_1-2" data-name="Layer 1">
      <g id="_23" data-name="23">
        <path class="cls-1" d="M143.66,135.69v42.39q2.66-3.11,2.66-8.72V127C146.32,130.71,145.43,133.62,143.66,135.69ZM14.17,179.45v42.39L26.79,221V178.56Zm12.62-.89v0Zm-17,51.14v42.38c0,1.95.22,3.18.67,3.71V233.4C10,232.87,9.74,231.64,9.74,229.7Zm.67,3.7v42.39c.44.53,1.55.65,3.32.36V233.77C12,234.05,10.85,233.93,10.41,233.4Zm3.32.37v42.38c1.62-.25,4-.79,7.19-1.59V232.17Q16.17,233.39,13.73,233.77Zm7.19-1.6v42.39q4.75-1.21,7.19-1.6V230.57C26.49,230.83,24.09,231.37,20.92,232.17Zm7.19-1.6V273a29.08,29.08,0,0,1,3.77-.37V230.2A31,31,0,0,0,28.11,230.57Zm3.77-.37v42.39l4.65,3.06V233.27Zm4.65,3.07v42.38q5.74-5.85,10-22V211.28Q42.28,227.42,36.53,233.27Zm10-22v42.39q3.09-11.94,6.19-24.08V187.2Q49.59,199.35,46.49,211.28Zm6.19-24.08v42.39a73.81,73.81,0,0,1,3.77-8.45V178.75A73.81,73.81,0,0,0,52.68,187.2Zm3.77-8.45v42.39a37.52,37.52,0,0,0,3.1-8.56V170.19A37.36,37.36,0,0,1,56.45,178.75Zm3.1-8.56v42.39l37.85-8.06V162.13Zm37.67-5.41v42.39a34.24,34.24,0,0,0,.4,4.93V169.72A34.37,34.37,0,0,1,97.22,164.78Zm.4,4.94V212.1q.66,5.51.66,7.3V177Q98.28,175.21,97.62,169.72Zm.66,7.29V219.4a179.65,179.65,0,0,0,2.22,26.09V203.11A179.89,179.89,0,0,1,98.28,177Zm2.22,26.1v42.38q2.88,18.6,7.08,23.31V226.41Q103.38,221.7,100.5,203.11Zm7.08,23.3V268.8q11.51.61,16.82-.22V226.19Q119.09,227,107.58,226.41Zm16.82-.22v42.39a22.09,22.09,0,0,0,5.32-1.86V224.33a21.65,21.65,0,0,1-5.32,1.86Zm5.32-1.86v42.39a40.69,40.69,0,0,1,4.87-2V222.32A44.45,44.45,0,0,0,129.72,224.33Zm4.87-2v42.39c.44-4.55.66-7.58.66-9.07V213.25C135.25,214.74,135,217.77,134.59,222.32Zm-5.54-63.45v0Zm0-3.14v42.39q9.52-3.76,13.06-4.32V151.41C139.75,151.78,135.4,153.23,129.05,155.73Zm13.06-4.32V193.8q6.42-1,7.31-1.84V149.57Q148.54,150.38,142.11,151.41Zm3.32-8.83V185a6,6,0,0,0,2.22-5.06V137.52A6,6,0,0,1,145.43,142.58Zm-1.77-6.89c1.77-2.07,2.66-5,2.66-8.71l-.89-1q-2.66.42-15.94,3.88c-.29-5-1-8.29-2-9.76L114.89,53.76l-3.77,4a35.43,35.43,0,0,1-3.1-3.31q-6.63,1.5-6.86-3.61C98.5,52.12,96,53.53,93.52,55s-3.65,4-3.65,7.42A18.46,18.46,0,0,1,87,71.66q-4.42,6.77-6.41,10.22-2.88,4.94-17.49,34-10.64,21-19.48,32.92-1.34,1.78-9.19,4T25,157.1q-6.42,8.64-10.85,22.35l12.62-.89v1.34q.21,7.59-8.42,24.54T9.74,229.7c0,1.94.22,3.17.67,3.7s1.55.65,3.32.37q2.43-.39,7.19-1.6c3.17-.8,5.57-1.34,7.19-1.6a31,31,0,0,1,3.77-.37l4.65,3.07q5.74-5.85,10-22,3.09-11.92,6.19-24.08a73.81,73.81,0,0,1,3.77-8.45,37.36,37.36,0,0,0,3.1-8.56l37.85-8.06a17.91,17.91,0,0,0-.18,2.65,34.37,34.37,0,0,0,.4,4.94q.66,5.49.66,7.29a179.89,179.89,0,0,0,2.22,26.1q2.88,18.58,7.08,23.3,11.51.63,16.82-.22a21.65,21.65,0,0,0,5.32-1.86,44.45,44.45,0,0,1,4.87-2c.44-4.55.66-7.58.66-9.07q0-9.19-3.1-27t-3.1-27.41v-3.14c6.35-2.5,10.7-3.95,13.06-4.32q6.42-1,7.31-1.84-2.65-4.29-3.77-6.57l-.22-.42a6,6,0,0,0,2.22-5.06Zm-69.06,5v42.39q1.77-7,7.52-18.46V122.2Q76.38,133.66,74.6,140.66Zm7.52-18.46v42.39q6.42-12.68,11.29-16.37V105.83Q88.55,109.52,82.12,122.2Zm11.29-16.37v42.39l4.87,30.16V136ZM74.6,140.66q1.77-7,7.52-18.46,6.42-12.67,11.29-16.37L98.28,136Zm169.56-22.58v42.39q7.31-8.57,14.83-16.94V101.15Q251.46,109.52,244.16,118.08ZM259,101.15v42.38a106.2,106.2,0,0,0,16.16-23.65V77.5A106.43,106.43,0,0,1,259,101.15ZM275.15,77.5v42.38q8-15.16,8-26.37V51.12Q283.11,62.33,275.15,77.5ZM155.39,58.06v42.38a101.34,101.34,0,0,0,.89,10.73V68.79A101.74,101.74,0,0,1,155.39,58.06Zm.89,10.73v42.38a101.78,101.78,0,0,1,.88,11.18V80A101.46,101.46,0,0,0,156.28,68.79Zm.22,17.33v42.39q6-4.54,19-8.42V77.7Q162.48,81.59,156.5,86.12Zm19-8.42v42.39q10.17-2.75,20.36-5.71V72Q185.72,75,175.54,77.7Zm-24.13,72.9V193q3.76,3,3.76,4.11V154.7Q155.17,153.59,151.41,150.6Zm.22,10.72v42.39l4.43-.26V161.06Zm-1.55,7.2V210.9a2.91,2.91,0,0,1,1.77.17V168.68A2.84,2.84,0,0,0,150.08,168.52Zm1.77.16v42.39a2.12,2.12,0,0,0,1.33.24V168.92A2.12,2.12,0,0,1,151.85,168.68Zm1.33.24v42.39l.88-.37V168.55Zm-2.88,6.73V218q15.49-6.06,23.24-9.76V165.89Q165.8,169.6,150.3,175.65Zm13.5,40.44v42.39a11.42,11.42,0,0,0,1.33,4.94V221A11.42,11.42,0,0,1,163.8,216.09Zm1.33,4.94v42.39q3.54-3.26,7.31-6.55V214.49q-3.76,3.28-7.31,6.54Zm7.31-6.54v42.38a46.61,46.61,0,0,0,5.31,4.76V219.24A47.56,47.56,0,0,1,172.44,214.49Zm5.31,4.75v42.39q4.65-5.44,5.31-9.59V209.65Q182.4,213.79,177.75,219.24Zm5.31-9.59V252l.89-1.26V208.39Zm.89-1.26v42.39l3.1,10.71V219.1Zm3.1,10.71v42.39q3.54-10.2,8.63-30.74V188.36Q190.59,208.9,187.05,219.1Zm8.63-30.74v42.39q5.08-20.53,8.41-30.48V157.88Q200.77,167.83,195.68,188.36Zm8.41-30.48v42.39q6,5.08,19.48,26.7V184.58Q210.07,163,204.09,157.88Zm19.48,26.7V227q11.07,17.73,22.8,22.14V206.72Q234.64,202.31,223.57,184.58Zm22.8,22.14v42.39l12.84-15.28V191.45Zm11.73-17.79v42.39a10.13,10.13,0,0,1,2.22-.58V188.36A10.17,10.17,0,0,0,258.1,188.93Zm2.22-.57v42.38c1.47-.23,2.5,0,3.09.85V189.21C262.82,188.4,261.79,188.12,260.32,188.36Zm3.09.85v42.38l5.1-8.65V180.55Zm-35.63-55.74v42.39a125.34,125.34,0,0,0,16.38-15.39V118.08A124.66,124.66,0,0,1,227.78,133.47Zm16.38-15.39q7.31-8.56,14.83-16.93A106.43,106.43,0,0,0,275.15,77.5q8-15.18,8-26.38T267.62,35.88a63.28,63.28,0,0,0-25-.71A92.16,92.16,0,0,0,232.2,37.5Q182.4,52.4,155.39,58.06a101.74,101.74,0,0,0,.89,10.73A101.46,101.46,0,0,1,157.16,80a25,25,0,0,1-.66,6.16q6-4.53,19-8.42Q185.71,75,195.9,72a299.92,299.92,0,0,1-6.2,31.92q-5.74,24-11.06,29.11a139.8,139.8,0,0,1-13.73,8.47q-10.84,5.77-13.5,9.11,3.76,3,3.76,4.1,0,.68-3.54,6.62l4.43-.26-.67,3.47-5.31,4a2.84,2.84,0,0,1,1.77.16,2.12,2.12,0,0,0,1.33.24l.88-.37-3.76,7.1q15.49-6.06,23.24-9.76a110.35,110.35,0,0,0-4,16.78q-.45,2.09-2.44,16.75a65.64,65.64,0,0,1-2,8.39,35.23,35.23,0,0,0-1.33,8.28,11.42,11.42,0,0,0,1.33,4.94q3.54-3.25,7.31-6.54a47.56,47.56,0,0,0,5.31,4.75q4.65-5.44,5.31-9.59l.89-1.26,3.1,10.71q3.54-10.2,8.63-30.74t8.41-30.48q6,5.1,19.48,26.7,11.07,17.73,22.8,22.14l12.84-15.27-1.11-2.52a10.17,10.17,0,0,1,2.22-.57c1.47-.24,2.5,0,3.09.85l5.1-8.66q-6.21-6.41-20.15-23.91Q236,141.13,227.78,133.47a124.66,124.66,0,0,0,16.38-15.39Zm-29.22-9.45V151q2-10.84,4-21.7V86.92Q216.93,97.77,214.94,108.63Zm4-21.71v42.39q2.88-14.36,6.2-20.72V66.2Q221.81,72.56,218.92,86.92Zm6.2-20.72v42.39q21.91-1.92,28.33,2V68.18Q247,64.28,225.12,66.2Zm28.33,2q-2.2,8.2-16.38,22.34-12.62,12.78-22.13,18.11,2-10.86,4-21.71,2.88-14.36,6.2-20.72Q247,64.28,253.45,68.18Zm62.2-43.55V67q7.31,3.09,7.53,3.06V27.69Q323,27.72,315.65,24.63ZM270.94,57.32V99.71q4.43-.48,6.86-.87V56.45Q275.37,56.84,270.94,57.32Zm6.86-.87V98.84q7.76-1.25,23.13-5.94V50.52Q285.56,55.22,277.8,56.45Zm23.13-5.93V92.9q15.39-4.7,22.91-5.89V44.62Q316.33,45.82,300.93,50.52Zm7.64,41.59V134.5c0,.15.07.21.22.19V92.3C308.64,92.32,308.57,92.26,308.57,92.11Zm.22.19v42.39a37.07,37.07,0,0,0,2.66-5.13V87.17C309.82,90.57,308.94,92.28,308.79,92.3Zm2.66-5.13v42.39a36.34,36.34,0,0,1,2.65-5.13V82A36.34,36.34,0,0,0,311.45,87.17ZM314.1,82v42.39c.15,0,.23,0,.23.18V82.23C314.33,82.08,314.25,82,314.1,82ZM290.86,183.48v42.39a32.4,32.4,0,0,1,12-10V173.5A32.4,32.4,0,0,0,290.86,183.48Zm7.75,6.61v42.39l3.76,1.86V192Zm3.76,1.86v42.39q2.22-.57,5.65-4.26V187.69Q304.59,191.38,302.37,192Zm5.65-4.26v42.39a24.47,24.47,0,0,1,5.2-4.64V183.05A24.77,24.77,0,0,0,308,187.69Zm5.2-1.95v42.39a7.21,7.21,0,0,1,0,1V186.71A7.3,7.3,0,0,0,313.22,185.74Zm-1.33,9.63v42.38l5.76-7V188.39Zm5.76-7v42.39c.59.36,1,1.61,1.1,3.75V192.14C318.61,190,318.24,188.75,317.65,188.39Zm1.1,3.75v42.39c.15,2.14.45,3.33.89,3.56V195.7C319.2,195.47,318.9,194.28,318.75,192.14Zm.89,3.56v42.39l4.2-3.59V192.11Zm4.2-3.59V234.5Q340,145,352.84,80.58V38.2Q340,102.57,323.84,192.11Zm29-153.91V80.58l1.11-.17V38ZM354,38V80.41q17-2.73,49.14-3.36V34.66Q371,35.31,354,38Zm49.14-3.36V77.05q2-5.92,2-18.7V16Q405.08,28.74,403.09,34.66ZM376,13.32q-18.48,2.16-27.56,3.61-2.21.36-6.64.73t-6.64.72a54.2,54.2,0,0,0-9.74,3,75.81,75.81,0,0,1-9.74,3.24q7.31,3.09,7.53,3.06l-1.33.66a43.58,43.58,0,0,1-10-.09,43,43,0,0,0-10.18-.06l-8,1.27q-5.31,1.08-8,1.5a31.83,31.83,0,0,1-4.43.26,28.92,28.92,0,0,0-4.42.26c-.3,0-.67.7-1.11,2Q272,49.3,270.94,57.32q4.43-.48,6.86-.87,7.76-1.23,23.13-5.93t22.91-5.9Q321.41,50.16,319,56a30.49,30.49,0,0,0-2.43,11.71l-1.33,2.9q-1.54,1.59-4.09,10.18t-2.55,11.28c0,.15.07.21.22.19s1-1.73,2.66-5.13A36.34,36.34,0,0,1,314.1,82c.15,0,.23,0,.23.19A15.66,15.66,0,0,1,313,86.92q-8.64,19.53-13.95,48-4.2,24.21-8.19,48.61a32.4,32.4,0,0,1,12-10l-2.22,1.92q-1.11,9.83-2,14.67l3.76,1.86q2.22-.57,5.65-4.26a24.77,24.77,0,0,1,5.2-4.64v2.69a7.3,7.3,0,0,1,0,1,20.84,20.84,0,0,1-.49,4c-.45,2.16-.74,3.71-.89,4.63l5.76-7c.59.36,1,1.61,1.1,3.75s.45,3.33.89,3.56l4.2-3.59q16.17-89.55,29-153.91L354,38q17-2.72,49.14-3.36,2-5.92,2-18.7,0-4.26-1.77-6.22-8.85,1.41-27.34,3.58Z"/>
        <path class="cls-2" d="M147.65,137.52a6,6,0,0,1-2.22,5.06l.22.42q1.11,2.28,3.77,6.57-.88.81-7.31,1.84c-2.36.37-6.71,1.82-13.06,4.32v3.14q0,9.65,3.1,27.41t3.1,27c0,1.49-.22,4.52-.66,9.07a44.45,44.45,0,0,0-4.87,2,21.65,21.65,0,0,1-5.32,1.86q-5.31.84-16.82.22-4.2-4.71-7.08-23.3A179.89,179.89,0,0,1,98.28,177q0-1.8-.66-7.29a27,27,0,0,1-.22-7.59l-37.85,8.06a37.36,37.36,0,0,1-3.1,8.56,73.81,73.81,0,0,0-3.77,8.45q-3.09,12.15-6.19,24.08-4.22,16.14-10,22l-4.65-3.07a31,31,0,0,0-3.77.37c-1.62.26-4,.8-7.19,1.6s-5.57,1.34-7.19,1.6c-1.77.28-2.88.16-3.32-.37s-.67-1.76-.67-3.7q0-8.3,8.63-25.26t8.42-24.54v-1.34l-12.62.89Q18.6,165.74,25,157.1q1.55-2,9.4-4.31t9.19-4q8.85-12,19.48-32.92,14.61-29,17.49-33.95,2-3.47,6.41-10.22a18.46,18.46,0,0,0,2.88-9.2q0-5.16,3.65-7.42c2.44-1.51,5-2.92,7.64-4.24q.23,5.12,6.86,3.61a35.43,35.43,0,0,0,3.1,3.31l3.77-4,12.61,66.36c1,1.47,1.7,4.73,2,9.76q13.29-3.47,15.94-3.88l.89,1c0,3.73-.89,6.64-2.66,8.71ZM98.28,136l-4.87-30.16q-4.86,3.69-11.29,16.37-5.75,11.46-7.52,18.46Z"/>
        <path class="cls-2" d="M227.78,133.47q8.19,7.67,20.58,23.17,14,17.51,20.15,23.91l-5.1,8.66c-.59-.81-1.62-1.09-3.09-.85a10.17,10.17,0,0,0-2.22.57l1.11,2.52-12.84,15.27q-11.73-4.41-22.8-22.14-13.5-21.6-19.48-26.7-3.32,9.94-8.41,30.48t-8.63,30.74L184,208.39l-.89,1.26q-.66,4.14-5.31,9.59a47.56,47.56,0,0,1-5.31-4.75q-3.76,3.28-7.31,6.54a11.42,11.42,0,0,1-1.33-4.94,35.23,35.23,0,0,1,1.33-8.28,65.64,65.64,0,0,0,2-8.39q2-14.67,2.44-16.75a110.35,110.35,0,0,1,4-16.78q-7.74,3.71-23.24,9.76l3.76-7.1-.88.37a2.12,2.12,0,0,1-1.33-.24,2.84,2.84,0,0,0-1.77-.16l5.31-4,.67-3.47-4.43.26q3.54-5.94,3.54-6.62,0-1.11-3.76-4.1,2.66-3.34,13.5-9.11A139.8,139.8,0,0,0,178.64,133q5.31-5.1,11.06-29.11A299.92,299.92,0,0,0,195.9,72q-10.18,3-20.36,5.71-13.06,3.89-19,8.42a25,25,0,0,0,.66-6.16,101.46,101.46,0,0,0-.88-11.17,101.74,101.74,0,0,1-.89-10.73q27-5.66,76.81-20.56a92.16,92.16,0,0,1,10.41-2.33,63.28,63.28,0,0,1,25,.71q15.5,4,15.49,15.24t-8,26.38A106.43,106.43,0,0,1,259,101.15q-7.53,8.37-14.83,16.93A124.66,124.66,0,0,1,227.78,133.47ZM225.12,66.2q-3.31,6.36-6.2,20.72l-4,21.71q9.51-5.34,22.13-18.11,14.18-14.14,16.38-22.34Q247,64.28,225.12,66.2Z"/>
        <path class="cls-2" d="M403.31,9.74q1.77,2,1.77,6.22,0,12.78-2,18.7Q371,35.31,354,38l-1.11.18q-12.84,64.36-29,153.91l-4.2,3.59c-.44-.23-.74-1.42-.89-3.56s-.51-3.39-1.1-3.75l-5.76,7c.15-.92.44-2.47.89-4.63a16.46,16.46,0,0,0,.44-5v-2.69a24.77,24.77,0,0,0-5.2,4.64q-3.43,3.69-5.65,4.26l-3.76-1.86q.88-4.84,2-14.67l2.22-1.92a32.4,32.4,0,0,0-12,10q4-24.4,8.19-48.61,5.31-28.41,13.95-47.95a15.66,15.66,0,0,0,1.33-4.69c0-.15-.08-.22-.23-.19a36.34,36.34,0,0,0-2.65,5.13c-1.63,3.4-2.51,5.11-2.66,5.13s-.22,0-.22-.19q0-2.69,2.55-11.28t4.09-10.18l1.33-2.9A30.49,30.49,0,0,1,319,56q2.44-5.88,4.87-11.42-7.51,1.2-22.91,5.9T277.8,56.45q-2.43.39-6.86.87,1.11-8,4.87-23.86c.44-1.27.81-1.93,1.11-2a28.92,28.92,0,0,1,4.42-.26,31.83,31.83,0,0,0,4.43-.26q2.66-.42,8-1.5l8-1.27a43,43,0,0,1,10.18.06,43.58,43.58,0,0,0,10,.09l1.33-.66q-.23,0-7.53-3.06a75.81,75.81,0,0,0,9.74-3.24,54.2,54.2,0,0,1,9.74-3q2.22-.35,6.64-.72t6.64-.73q9.07-1.44,27.56-3.61T403.31,9.74Z"/>
      </g>
    </g>
  </g>
</svg>
