<svg xmlns="http://www.w3.org/2000/svg" width="839.73" height="447.29" viewBox="0 0 839.73 447.29">
  <defs>
    <style>
      .cls-1, .cls-2 {
        fill: #54b948;
      }

      .cls-1 {
        stroke: #fff;
        stroke-linejoin: round;
        stroke-width: 19.48px;
      }
    </style>
  </defs>
  <title>3477777</title>
  <g id="Layer_2" data-name="Layer 2">
    <g id="Layer_1-2" data-name="Layer 1">
      <g id="_34" data-name="34">
        <path class="cls-1" d="M192.33,95.4v67.76a11.63,11.63,0,0,0,7.79,1.63V97A11.56,11.56,0,0,1,192.33,95.4ZM200.12,97v67.77l.35-.06V97ZM49.37,203.86v67.76q0,12.18,1.77,17.28V221.14Q49.37,216,49.37,203.86Zm1.77,17.28V288.9q5.67,16.29,39.64,27.36V248.49Q56.8,237.44,51.14,221.14Zm39.64,27.35v67.77q25.47,7.75,51.3,15.1V263.6Q116.25,256.25,90.78,248.49Zm51.3,15.11v67.76c4.49,1.91,6.73,3.11,6.73,3.58V267.18Q148.81,266.46,142.08,263.6ZM16.47,320.2V388Q26,415.81,53.62,411.41V343.65Q26,348.06,16.47,320.2Zm37.15,23.45v67.76q11.67-1.86,27.95-8V335.61Q65.3,341.79,53.62,343.65Zm27.95-8v67.76q19.83-7.47,24.77-14.71V320.9Q101.39,328.15,81.57,335.61Zm24.77-14.71v67.76l7.79-1.24V319.66Zm7.79-1.24v67.76q1.77-2.43,5.66-2.69V317Q115.91,317.23,114.13,319.66ZM9.74,344.56v67.76a160,160,0,0,1,10.62,16.23V360.79A158.85,158.85,0,0,0,9.74,344.56Zm10.62,16.23v67.76l21.94,6.53V367.32Zm21.94,6.53v67.76q14.14,3.46,23,2.06V369.38Q56.45,370.79,42.3,367.32Zm23,2.06v67.76q21.58-3.45,51.66-15.77V353.61Q86.89,365.94,65.3,369.38ZM117,353.61v67.76q32.21-13,47.77-26.62V327Q149.16,340.58,117,353.61ZM164.73,327v67.76Q184.2,378,185.61,376V308.25Q184.2,310.28,164.73,327Zm20.88-18.74V376Q203,352.1,203,320.93V253.17Q203,284.34,185.61,308.25ZM97.5,195.82v67.76q5.31-17.32,21.58-28.88V166.93Q102.81,178.49,97.5,195.82Zm21.58-28.89V234.7l31.85-18V149Zm31.85-18v67.76q3.18-1.58,14.16-6V142.93Q154.11,147.37,150.93,149Zm14.16-6v67.76q11-4.44,13.8-4.89V138Q176.06,138.49,165.09,142.93Zm13.8-4.89V205.8q5-.8,11,6.67V144.71Q183.83,137.24,178.89,138Zm11,6.67v67.76q6,7.46,6.72,12.72V157.43Q195.88,152.16,189.86,144.71Zm6.72,12.72v67.76q16.28-18.36,16.28-44.88V112.55Q212.86,139.07,196.58,157.43Zm-4.25-62A11.56,11.56,0,0,0,200.12,97l.35,0a226,226,0,0,0-24.06,2.76,27.38,27.38,0,0,0-7.79,2.32l-.35.77q-3.18,1.23-7.25,7.79t-6.55,7q-2.47.39-3-3.46c-.35-2.57-1.35-3.73-3-3.46q-24.76,3.94-51.31,17.86-30.78,16.38-41.75,36.41-6,11-6,38.94,0,12.18,1.77,17.28,5.67,16.29,39.64,27.35,25.47,7.77,51.3,15.11,6.73,2.86,6.73,3.58,0,9.31-15.57,18.25-11.69,5.81-23,11.92-28.67,17.83-67.59,24a59.8,59.8,0,0,1-26.18-1.19Q26,348.05,53.62,343.65q11.67-1.86,27.95-8,19.83-7.47,24.77-14.71l7.79-1.24q1.77-2.43,5.66-2.7Q88.65,343.8,72,346.45q-11.67,1.86-31.14-.41Q19,343.82,9.74,344.56a158.85,158.85,0,0,1,10.62,16.23l21.94,6.53q14.14,3.46,23,2.06,21.58-3.45,51.66-15.77,32.21-13,47.77-26.62,19.47-16.73,20.88-18.74Q203,284.34,203,253.17q0-11.83-13.8-21.09-6.37-4-24.06-11.21Q120.15,204,97.5,195.82q5.31-17.32,21.58-28.89l31.85-18q3.18-1.59,14.16-6t13.8-4.89q5-.79,11,6.67t6.72,12.72q16.28-18.36,16.28-44.88,0-3.22-.36-8.72t-.35-8l-3.89-6.19Zm24.77,77.75v67.76l1.42,6.94V180.09Zm1.42,6.94v67.76l7.07,3.17V183.26ZM210,215.49v67.76l25.12-4V211.48Zm6,95.79V379a246.48,246.48,0,0,0,1.77,27.67V338.94A246.17,246.17,0,0,1,216,311.28Zm1.77,27.66v67.77l9.2-3.62V335.33Zm9.2-3.61v67.76l1.77,4V339.34Zm1.77,4V407.1l2.48-1.11V338.23Zm2.48-1.11V406A43.29,43.29,0,0,0,244,412.92V345.16A43.29,43.29,0,0,1,231.26,338.23ZM244,345.16v67.76q3.18-8.4,8.13-12.41V332.75Q247.18,336.77,244,345.16Zm8.13-12.41v67.76c1.42,0,2.36,2.25,2.84,6.72V339.46C254.49,335,253.55,332.76,252.13,332.75Zm2.84,6.71v67.77q.71,6.69,8.49,5.45V344.92C258.27,345.74,255.44,343.93,255,339.46Zm8.49,5.46v67.76q3.89-.63,3.89-12.09V332.83Q267.35,344.29,263.46,344.92Zm2.83-28.05v67.76q0-16.12,8.14-56.12V260.75Q266.28,300.74,266.29,316.87Zm8.14-56.12v67.76q6.72-35.47,13.09-57.27V203.47Q281.15,225.28,274.43,260.75Zm13.09-57.28v67.77A177.29,177.29,0,0,0,319,265.49V197.73A176.42,176.42,0,0,1,287.52,203.47ZM318,195.75v67.76a3.69,3.69,0,0,1,3.19-2.66V193.09A3.69,3.69,0,0,0,318,195.75Zm-6.72-6.81V256.7a38,38,0,0,0,8.67-4.43V184.51A38.36,38.36,0,0,1,311.23,188.94Zm8.67-4.43v67.76l6.19-4.75V179.76Zm-.53-16.94v67.77A75.32,75.32,0,0,1,325,223V155.2A76.13,76.13,0,0,0,319.37,167.57ZM299.9,158.5v67.76q1.07-7.33,8.14-32.12V126.38Q301,151.16,299.9,158.5ZM308,126.38v67.76q5.67-20.25,5.67-32.43V93.94Q313.71,106.14,308,126.38ZM217.1,173.15l1.42,6.94,7.07,3.17a93.49,93.49,0,0,0-7.78,5.9q-7.42,9.08-7.78,26.33l25.12-4q-1.77,13.17-11,49.76-8.15,31.41-8.14,50a246.17,246.17,0,0,0,1.77,27.66l9.2-3.61,1.77,4,2.48-1.11A43.29,43.29,0,0,0,244,345.16q3.18-8.4,8.13-12.41c1.42,0,2.36,2.25,2.84,6.71s3.3,6.28,8.49,5.46q3.89-.63,3.89-12.09,0-2.86-.53-8.16t-.53-7.8q0-16.12,8.14-56.12,6.72-35.48,13.09-57.28A176.42,176.42,0,0,0,319,197.73l-1.06-2a3.69,3.69,0,0,1,3.19-2.66l-1.77-.43q-5-3.15-8.14-3.72a38.36,38.36,0,0,0,8.67-4.43l6.19-4.75q-6.72-11.83-6.72-12.19A76.13,76.13,0,0,1,325,155.2q-7.44,1.19-25.13,3.3,1.07-7.33,8.14-32.12,5.67-20.25,5.67-32.44c0-1.91-.36-3.16-1.07-3.77q-9.9,7.68-15.21,11l-12.74-6.57-11.32,17.94q-2.49-6.06-8.14-5.15a7.65,7.65,0,0,0-4.25,2.11q-10.26,37.83-14.86,57.19A152.18,152.18,0,0,0,217.1,173.15Zm205.59,13.41v67.76q0-5.38,11.33-27.25V159.31Q422.7,181.18,422.69,186.56ZM434,159.31v67.76q11.33-21.87,11.32-32.63V126.68Q445.34,137.44,434,159.31Zm-65.82,32v67.76q1.41-3.45,4.78-15.09V176.22Q369.62,187.86,368.2,191.31ZM373,176.22V244q3.36-11.64,3.36-13.8V162.42C376.34,163.86,375.22,168.45,373,176.22Zm-55,7.35v67.76q0,7.87,7.43,13.5V197.07Q318,191.45,318,183.57ZM300.26,305v67.76q0,8.61,2.65,11.22V316.22Q300.26,313.6,300.26,305Zm2.65,11.22V384q2.65,2.63,11.15,1.27V317.49Q305.57,318.84,302.91,316.22Zm11.15,1.27v67.76L330,412.09V344.33ZM330,344.33v67.76q3.9-1.33,5.66-7.35V337Q333.89,343,330,344.33Zm5.66-7.35v67.76q10.28-32.82,15.57-49.07V287.91Q345.92,304.17,335.64,337Zm15.57-49.07v67.76q4.26-16.44,8.85-32.95V255Q355.46,271.46,351.21,287.91Zm8.85-33v67.76q7.08-25.12,11.32-30.11V224.85Q367.14,229.83,360.06,255Zm11.32-30.11v67.76q2.13,3.6,12.74,5.85V230.7Q373.52,228.45,371.38,224.85Zm12.74,5.85v67.76q9.56,1.69,15.22.79V231.49Q393.67,232.4,384.12,230.7Zm15.22.79v67.76Q402.88,298.7,431,275V207.27Q402.87,230.93,399.34,231.49ZM431,207.27V275q28.13-23.67,32-28.94V178.33Q459.15,183.61,431,207.27Zm32-28.94v67.76q3.2-4.09,3.54-7.38V171Q466.23,174.24,463,178.33ZM426.23,191l-2.83.09a30.1,30.1,0,0,1-.71-4.54q0-5.38,11.33-27.25t11.32-32.63q0-9.32-7.08-8.18l-5.3.84-6.73,6.45q-28.31,5.24-34,16.53a142.92,142.92,0,0,0-9.91,24.16q-2.12,7.5-3.89,15-3.18,8.76-9.91,12l-.35-2.1q1.41-3.45,4.78-15.09c2.24-7.77,3.36-12.36,3.36-13.8q0-5-8.49-3.66-30.44,4.86-43.17,11.55-6.74,3.23-6.73,13.26,0,7.88,7.43,13.5-7.08,28-14.51,56.07Q300.27,295,300.26,305q0,8.6,2.65,11.22t11.15,1.27L330,344.33q3.9-1.33,5.66-7.35,10.28-32.82,15.57-49.07,4.26-16.44,8.85-33,7.08-25.14,11.32-30.11,2.13,3.6,12.74,5.85,9.56,1.7,15.22.79,3.54-.56,31.67-24.22t32-28.94q3.2-4.1,3.54-7.38Zm12-15.54v67.76l1.42,3.36V178.83Zm1.42,3.36v67.76l8.14,1.57V180.4ZM418.09,271.5v67.76l6,2.27V273.77Zm1.77,12.26v67.76q0,32.61,15.93,30.07V313.83Q419.86,316.37,419.86,283.76Zm15.93,30.07v67.76l14.15-2.26V311.57Zm14.15-2.26v67.76q17.7-2.82,55.56-29.65V281.92Q467.63,308.74,449.94,311.57Zm55.56-29.65v67.76q33.25-23.6,51-42.54V239.38Q538.76,258.34,505.5,281.92Zm30.07-31v67.76q8.14-13.49,13.8-19.4V231.55q-5.65,5.92-13.8,19.41Zm9.56-29.12V289.6L551.85,271V203.21Zm-81.74,24.51v67.77a14.37,14.37,0,0,1,5.31-11.6V234.76A14.37,14.37,0,0,0,463.39,246.35Zm5.31-11.59v67.76a64.75,64.75,0,0,1,11.67-5.81V229A64.75,64.75,0,0,0,468.7,234.76ZM480.37,229v67.76q15.22-7.8,41.76-31V197.92Q495.58,221.14,480.37,229Zm41.76-31v67.76q26.54-23.22,37.86-38.29V159.63Q548.67,174.69,522.13,197.92ZM560,159.63v67.76q7.08-9.37,7.08-19.77V139.86Q567.07,150.26,560,159.63ZM562.82,123q-5-10.68-11.68-9.6a152.94,152.94,0,0,0-40.69,12.23,448.28,448.28,0,0,0-40,22.15q-30.07,19.13-32.2,27.71l1.42,3.36,8.14,1.57q-29.73,66-29.73,78.2v12.9l6,2.27a13.71,13.71,0,0,0-4.25,10q0,32.61,15.93,30.07l14.15-2.26q17.7-2.83,55.56-29.65,33.25-23.6,51-42.54l-.71-2q-7.79.53-17.69,15L535.57,251q8.14-13.49,13.8-19.41l-4.24-9.71,6.72-18.63-.71-2.4c-2.83.22-6.37,2.09-10.61,5.64q-31.5,24.74-46,32.78-19.81,10.7-26.19,11.71l-2.83.45a7.84,7.84,0,0,1-2.12-5,14.37,14.37,0,0,1,5.31-11.59A64.75,64.75,0,0,1,480.37,229q15.22-7.8,41.76-31T560,159.63q7.08-9.37,7.08-19.77,0-7.52-4.25-16.88Zm-75,63.22V254q1.77-6.74,8.67-14.46V171.73Q489.57,179.47,487.8,186.2Zm8.67-14.47V239.5q6.9-7.74,13.63-11V160.78Q503.37,164,496.47,171.73Zm13.63-10.95v67.76l4.24.4V161.18Zm4.24.4q-2.82,12.63-23.71,25.28l-2.83-.26q1.77-6.73,8.67-14.47t13.63-10.95Zm67.24-8.58v67.76l1.41,3.36V156ZM583,156v67.77l8.14,1.56V157.52Zm-21.58,79.78v0Zm0,12.9v67.76l6,2.26V250.89Zm1.77,12.25v67.77q0,32.61,15.92,30.06V291Q563.17,293.5,563.18,260.88ZM579.1,291v67.76l14.15-2.26V288.69Zm14.15-2.26v67.76q17.7-2.82,55.56-29.65V259Q611,285.88,593.25,288.69ZM648.81,259V326.8q33.26-23.58,51-42.53V216.51q-17.68,18.94-51,42.53Zm30.08-31v67.76q8.13-13.48,13.8-19.4V208.68Q687,214.61,678.89,228.08ZM688.44,199v67.77l6.72-18.64V180.33ZM606.7,223.48v67.76a14.39,14.39,0,0,1,5.31-11.6V211.88A14.39,14.39,0,0,0,606.7,223.48Zm5.31-11.6v67.76a64.56,64.56,0,0,1,11.67-5.8V206.08A64.56,64.56,0,0,0,612,211.88Zm11.67-5.8v67.76q15.23-7.81,41.76-31V175Q638.91,198.28,623.68,206.08Zm41.76-31v67.77q26.53-23.24,37.86-38.3V136.75Q692,151.81,665.44,175Zm37.86-38.29v67.76q7.08-9.37,7.08-19.76V117Q710.38,127.37,703.3,136.75Zm2.83-36.64q-4.95-10.68-11.67-9.61a153.38,153.38,0,0,0-40.7,12.23,449.43,449.43,0,0,0-40,22.15Q583.69,144,581.58,152.6L583,156l8.14,1.57q-29.73,66-29.72,78.21v12.9l6,2.26a13.7,13.7,0,0,0-4.24,10q0,32.61,15.92,30.07l14.15-2.26q17.7-2.82,55.56-29.65,33.26-23.58,51-42.53l-.7-2q-7.78.53-17.7,15l-2.47-1.4q8.13-13.49,13.8-19.4L688.44,199l6.72-18.63-.7-2.39q-4.25.31-10.62,5.63-31.5,24.74-46,32.79Q618,227,611.65,228.06l-2.83.45a7.87,7.87,0,0,1-2.12-5,14.39,14.39,0,0,1,5.31-11.6,64.56,64.56,0,0,1,11.67-5.8q15.23-7.82,41.76-31t37.86-38.29q7.08-9.37,7.08-19.76,0-7.53-4.25-16.88Zm-75,63.21v67.76q1.77-6.72,8.67-14.46V148.86Q632.89,156.58,631.12,163.32Zm8.67-14.46v67.76q6.9-7.73,13.62-11V137.91Q646.69,141.12,639.79,148.86Zm13.62-11v67.76l4.25.39V138.3Zm4.25.39q-2.83,12.64-23.71,25.29l-2.83-.27q1.77-6.73,8.67-14.46t13.62-11ZM721,92.72v67.76l1.41,6.94V99.66Zm1.41,6.94v67.76l7.08,3.17V102.83Zm-8.49,35.4v67.76l25.12-4V131.05Zm6,95.79v67.76a246.48,246.48,0,0,0,1.77,27.67V258.51A246.17,246.17,0,0,1,719.93,230.85Zm1.77,27.66v67.77l9.2-3.62V254.9Zm9.2-3.61v67.76l1.77,4V258.91Zm1.77,4v67.77l2.48-1.12V257.8Zm2.48-1.11v67.76a43.29,43.29,0,0,0,12.74,6.93V264.73A43.29,43.29,0,0,1,735.15,257.8Zm12.74,6.93v67.76q3.18-8.4,8.14-12.41V252.32Q751.07,256.34,747.89,264.73ZM756,252.32v67.76c1.41,0,2.36,2.25,2.83,6.72V259C758.39,254.57,757.44,252.33,756,252.32Zm2.83,6.71V326.8q.71,6.69,8.49,5.45V264.49Q759.57,265.74,758.86,259Zm8.49,5.46v67.76q3.9-.63,3.89-12.09V252.4Q771.24,263.86,767.35,264.49Zm2.83-28.05V304.2q0-16.12,8.14-56.12V180.32Q770.18,220.31,770.18,236.44Zm8.14-56.12v67.76q6.72-35.47,13.09-57.27V123Q785.05,144.85,778.32,180.32ZM791.41,123v67.77a177.57,177.57,0,0,0,31.5-5.75V117.3A176.7,176.7,0,0,1,791.41,123Zm30.43-7.72v67.76a3.7,3.7,0,0,1,3.19-2.66V112.66A3.7,3.7,0,0,0,821.84,115.32Zm-6.72-6.81v67.76a38,38,0,0,0,8.67-4.43V104.08A38.36,38.36,0,0,1,815.12,108.51Zm8.67-4.43v67.76l6.19-4.75V99.33Zm-.53-16.94v67.77a75.32,75.32,0,0,1,5.66-12.37V74.77A76.13,76.13,0,0,0,823.26,87.14ZM803.8,78.07v67.76q1.07-7.34,8.14-32.12V46Q804.86,70.73,803.8,78.07ZM811.94,46v67.76q5.65-20.25,5.66-32.43V13.51Q817.6,25.71,811.94,46ZM721,92.72l1.41,6.94,7.08,3.17a92.31,92.31,0,0,0-7.79,5.9q-7.43,9.08-7.78,26.33l25.12-4q-1.77,13.17-11,49.76-8.13,31.41-8.14,50a246.17,246.17,0,0,0,1.77,27.66l9.2-3.61,1.77,4,2.48-1.11a43.29,43.29,0,0,0,12.74,6.93q3.18-8.4,8.14-12.41c1.41,0,2.36,2.25,2.83,6.71s3.3,6.29,8.49,5.46q3.9-.63,3.89-12.09c0-1.91-.17-4.63-.53-8.16s-.53-6.12-.53-7.8q0-16.12,8.14-56.12Q785,144.84,791.41,123a176.7,176.7,0,0,0,31.5-5.74l-1.07-2a3.7,3.7,0,0,1,3.19-2.66l-1.77-.43a24.51,24.51,0,0,0-8.14-3.72,38.36,38.36,0,0,0,8.67-4.43L830,99.33q-6.72-11.82-6.72-12.19a76.13,76.13,0,0,1,5.66-12.37Q821.5,76,803.8,78.07q1.07-7.33,8.14-32.12,5.65-20.25,5.66-32.44c0-1.91-.36-3.16-1.06-3.77q-9.91,7.68-15.22,11L788.58,14.2,777.26,32.14q-2.47-6.06-8.14-5.15a7.65,7.65,0,0,0-4.25,2.11Q754.61,66.93,750,86.29a152.1,152.1,0,0,0-29,6.43Z"/>
        <path class="cls-2" d="M208.26,89.63l3.89,6.19q0,2.5.35,8t.36,8.72q0,26.52-16.28,44.88-.71-5.27-6.72-12.72t-11-6.67q-2.83.45-13.8,4.89t-14.16,6l-31.85,18q-16.27,11.56-21.58,28.89,22.65,8.2,67.59,25.05,17.68,7.2,24.06,11.21,13.8,9.25,13.8,21.09,0,31.17-17.34,55.08-1.41,2-20.88,18.74Q149.16,340.58,117,353.61,86.89,365.94,65.3,369.38q-8.85,1.41-23-2.06l-21.94-6.53A158.85,158.85,0,0,0,9.74,344.56Q19,343.81,40.88,346q19.47,2.28,31.14.41Q88.66,343.8,119.79,317q-3.89.27-5.66,2.7l-7.79,1.24q-4.95,7.25-24.77,14.71-16.27,6.18-27.95,8Q26,348.06,16.47,320.2a59.8,59.8,0,0,0,26.18,1.19q38.92-6.21,67.59-24,11.33-6.11,23-11.92,15.57-8.93,15.57-18.25,0-.72-6.73-3.58-25.83-7.35-51.3-15.11-34-11.06-39.64-27.35-1.77-5.1-1.77-17.28,0-27.95,6-38.94,11-20,41.75-36.41,26.55-13.9,51.31-17.86c1.66-.27,2.66.89,3,3.46s1.36,3.72,3,3.46,3.83-2.58,6.55-7,5.13-7,7.25-7.79l.35-.77a27.38,27.38,0,0,1,7.79-2.32A226,226,0,0,1,200.47,97l-.35,0a11.56,11.56,0,0,1-7.79-1.62Z"/>
        <path class="cls-2" d="M246.12,166.72q4.6-19.36,14.86-57.19a7.65,7.65,0,0,1,4.25-2.11q5.65-.92,8.14,5.15l11.32-17.94,12.74,6.57q5.31-3.36,15.21-11c.71.61,1.07,1.86,1.07,3.77q0,12.19-5.67,32.44Q301,151.16,299.9,158.5q17.7-2.12,25.13-3.3a76.13,76.13,0,0,0-5.66,12.37q0,.36,6.72,12.19l-6.19,4.75a38.36,38.36,0,0,1-8.67,4.43q3.18.57,8.14,3.72l1.77.43a3.69,3.69,0,0,0-3.19,2.66l1.06,2a176.42,176.42,0,0,1-31.49,5.74q-6.37,21.81-13.09,57.28-8.15,40-8.14,56.12,0,2.5.53,7.8t.53,8.16q0,11.46-3.89,12.09c-5.19.82-8-1-8.49-5.46s-1.42-6.7-2.84-6.71q-4.95,4-8.13,12.41a43.29,43.29,0,0,1-12.74-6.93l-2.48,1.11-1.77-4-9.2,3.61A246.17,246.17,0,0,1,216,311.28q0-18.64,8.14-50,9.19-36.59,11-49.76l-25.12,4q.34-17.27,7.78-26.33a93.49,93.49,0,0,1,7.78-5.9l-7.07-3.17-1.42-6.94A152.18,152.18,0,0,1,246.12,166.72Z"/>
        <path class="cls-2" d="M466.57,171q-.35,3.28-3.54,7.38-3.88,5.28-32,28.94t-31.67,24.22q-5.67.91-15.22-.79-10.61-2.25-12.74-5.85-4.25,5-11.32,30.11-4.6,16.5-8.85,33-5.29,16.26-15.57,49.07-1.75,6-5.66,7.35l-15.92-26.84q-8.49,1.35-11.15-1.27T300.26,305q0-10,10.61-51.86,7.44-28.06,14.51-56.07-7.42-5.62-7.43-13.5,0-10,6.73-13.26,12.74-6.69,43.17-11.55,8.49-1.35,8.49,3.66c0,1.44-1.12,6-3.36,13.8s-3.84,12.79-4.78,15.09l.35,2.1q6.74-3.22,9.91-12,1.77-7.44,3.89-15a142.92,142.92,0,0,1,9.91-24.16q5.67-11.3,34-16.53l6.73-6.45,5.3-.84q7.08-1.14,7.08,8.18,0,10.75-11.32,32.63t-11.33,27.25a30.1,30.1,0,0,0,.71,4.54l2.83-.09Z"/>
        <path class="cls-2" d="M567.07,139.86q0,10.39-7.08,19.77-11.32,15.06-37.86,38.29t-41.76,31a64.75,64.75,0,0,0-11.67,5.81,14.37,14.37,0,0,0-5.31,11.59,7.84,7.84,0,0,0,2.12,5l2.83-.45q6.38-1,26.19-11.71,14.5-8,46-32.78c4.24-3.55,7.78-5.42,10.61-5.64l.71,2.4-6.72,18.63,4.24,9.71q-5.65,5.92-13.8,19.41l2.48,1.39q9.91-14.47,17.69-15l.71,2q-17.69,19-51,42.54-37.87,26.82-55.56,29.65l-14.15,2.26q-15.93,2.54-15.93-30.07a13.71,13.71,0,0,1,4.25-10l-6-2.27V258.6q0-12.18,29.73-78.2l-8.14-1.57-1.42-3.36q2.13-8.58,32.2-27.71a448.28,448.28,0,0,1,40-22.15,152.94,152.94,0,0,1,40.69-12.23q6.74-1.08,11.68,9.6Q567.06,132.34,567.07,139.86Zm-57,20.92q-6.74,3.22-13.63,10.95T487.8,186.2l2.83.26q20.88-12.65,23.71-25.28Z"/>
        <path class="cls-2" d="M710.38,117q0,10.38-7.08,19.76Q692,151.81,665.44,175t-41.76,31a64.56,64.56,0,0,0-11.67,5.8,14.39,14.39,0,0,0-5.31,11.6,7.87,7.87,0,0,0,2.12,5l2.83-.45q6.38-1,26.19-11.7,14.5-8.06,46-32.79,6.38-5.31,10.62-5.63l.7,2.39L688.44,199l4.25,9.72q-5.67,5.92-13.8,19.4l2.47,1.4q9.92-14.49,17.7-15l.7,2q-17.68,18.94-51,42.53Q611,285.88,593.25,288.69L579.1,291q-15.93,2.55-15.92-30.07a13.7,13.7,0,0,1,4.24-10l-6-2.26v-12.9q0-12.19,29.72-78.21L583,156l-1.41-3.35q2.11-8.58,32.2-27.72a449.43,449.43,0,0,1,40-22.15,153.38,153.38,0,0,1,40.7-12.23q6.72-1.06,11.67,9.61Q710.38,109.46,710.38,117Zm-57,20.92q-6.72,3.21-13.62,11t-8.67,14.46l2.83.27q20.87-12.66,23.71-25.29Z"/>
        <path class="cls-2" d="M750,86.29q4.61-19.37,14.86-57.19A7.65,7.65,0,0,1,769.12,27q5.65-.91,8.14,5.15L788.58,14.2l12.74,6.57q5.31-3.36,15.22-11c.7.61,1.06,1.86,1.06,3.77q0,12.19-5.66,32.44-7.08,24.78-8.14,32.12,17.69-2.11,25.12-3.3a76.13,76.13,0,0,0-5.66,12.37q0,.36,6.72,12.19l-6.19,4.75a38.36,38.36,0,0,1-8.67,4.43,24.51,24.51,0,0,1,8.14,3.72l1.77.43a3.7,3.7,0,0,0-3.19,2.66l1.07,2a176.7,176.7,0,0,1-31.5,5.74q-6.36,21.81-13.09,57.28-8.15,40-8.14,56.12c0,1.68.18,4.27.53,7.8s.53,6.25.53,8.16q0,11.46-3.89,12.09-7.79,1.25-8.49-5.46c-.47-4.46-1.42-6.7-2.83-6.71q-5,4-8.14,12.41a43.29,43.29,0,0,1-12.74-6.93l-2.48,1.11-1.77-4-9.2,3.61a246.17,246.17,0,0,1-1.77-27.66q0-18.65,8.14-50,9.21-36.59,11-49.76l-25.12,4q.35-17.27,7.78-26.33a92.31,92.31,0,0,1,7.79-5.9l-7.08-3.17L721,92.72A152.1,152.1,0,0,1,750,86.29Z"/>
      </g>
    </g>
  </g>
</svg>
