<svg xmlns="http://www.w3.org/2000/svg" width="980.21" height="538.38" viewBox="0 0 980.21 538.38">
  <defs>
    <style>
      .cls-1 {
        fill: #2f2e2e;
      }
    </style>
  </defs>
  <title>4577777</title>
  <g id="Layer_2" data-name="Layer 2">
    <g id="Layer_1-2" data-name="Layer 1">
      <g id="_45" data-name="45">
        <g id="c492bd58-dde9-4afb-a2d6-37049639ac51">
          <g>
            <g id="c492bd58-dde9-4afb-a2d6-37049639ac51-child-0">
              <path class="cls-1" d="M881.6,237.22a2.57,2.57,0,0,1,.52.67,4.31,4.31,0,0,1,0,.88c-.25.45-.61,1-1.19.7a2.07,2.07,0,0,1-.57-.61,2.27,2.27,0,0,1,0-.9C880.64,237.53,881,236.94,881.6,237.22Z"/>
            </g>
            <g id="c492bd58-dde9-4afb-a2d6-37049639ac51-child-1">
              <path class="cls-1" d="M928.31,264.18a2.85,2.85,0,0,1,1.09,0,4.26,4.26,0,0,1,1.22.67,3.66,3.66,0,0,1,1.12,2.17v2.9a1.69,1.69,0,0,1-.59.68,2.57,2.57,0,0,1-1.17,0,6.32,6.32,0,0,1-1.46-1.46L927,265.76C926.78,265.17,927.77,264.56,928.31,264.18Z"/>
            </g>
            <g id="c492bd58-dde9-4afb-a2d6-37049639ac51-child-2">
              <path class="cls-1" d="M753.06,322.14a1.64,1.64,0,0,1,.93,0,5.86,5.86,0,0,1,1.48,1.58,4.61,4.61,0,0,1,0,2.09,2.91,2.91,0,0,1-2.34,1.31,3.23,3.23,0,0,1-1.64-3.59C751.66,323,752.47,322.56,753.06,322.14Z"/>
            </g>
            <g id="c492bd58-dde9-4afb-a2d6-37049639ac51-child-3">
              <path class="cls-1" d="M814.45,236.67c.5,0,1.21-.27,1.49.23a13.33,13.33,0,0,1,.83,2,7.74,7.74,0,0,1,0,1.8,1.79,1.79,0,0,1-.58.68,2.61,2.61,0,0,1-1.18,0c-.27-.16-1.15-1-1.15-1.26v-2.73A1.44,1.44,0,0,1,814.45,236.67Z"/>
            </g>
            <g id="c492bd58-dde9-4afb-a2d6-37049639ac51-child-4">
              <path class="cls-1" d="M871.05,376.08a4.18,4.18,0,0,1,1.24.64,3.27,3.27,0,0,1,.93,2.11,2.86,2.86,0,0,1-3.59,2.6c-.49,0-1-.81-1.33-1.43a3.71,3.71,0,0,1,0-1.69C868.51,377,869.27,375.72,871.05,376.08Z"/>
            </g>
            <g id="c492bd58-dde9-4afb-a2d6-37049639ac51-child-5">
              <path class="cls-1" d="M817.22,17.59a14.1,14.1,0,0,1,5.59.55A13.38,13.38,0,0,1,817.22,17.59Z"/>
            </g>
            <g id="c492bd58-dde9-4afb-a2d6-37049639ac51-child-6">
              <path class="cls-1" d="M517.57,17.77c-.27-.09-.7-.36-.65-.78a8.07,8.07,0,0,0,1.39,0c.16,0,.55-.46.68-.57a5,5,0,0,1,0,1.22C518.79,18.12,518,18,517.57,17.77Z"/>
            </g>
            <g id="c492bd58-dde9-4afb-a2d6-37049639ac51-child-7">
              <path class="cls-1" d="M638.18,12.39c.7,0,2.07-.45,2,.45C639.46,12.81,638.09,13.29,638.18,12.39Z"/>
            </g>
            <g id="c492bd58-dde9-4afb-a2d6-37049639ac51-child-8">
              <path class="cls-1" d="M443.65,37.5a64.67,64.67,0,0,1,9.7-1.15,14.13,14.13,0,0,1,3.78.39c.75.17,1.79-.53,2.28-.37a22.2,22.2,0,0,0,4.85.91,79.7,79.7,0,0,0,10.59-.46c1-.4,2-1,3-1.5A4.84,4.84,0,0,0,479,34.1a1.84,1.84,0,0,0,0-1,8,8,0,0,0-2.86-1.71l-3-3.12,1.13-7.89c0-.22,1-.72,1.19-.69a84.27,84.27,0,0,0,11.34.76,114.65,114.65,0,0,0,13.23-.49l12.76-2.12c.14,0,.52.54.66.67a5.92,5.92,0,0,0-2.35,1.42,2.81,2.81,0,0,0,1.24.91,3.64,3.64,0,0,0-2.09,1.53,2.19,2.19,0,0,0,0,1.08,2.56,2.56,0,0,0,.86.84c.69.17,1.57-.3,2-.14a11.58,11.58,0,0,0,3,.45l2.78,1.19,3.6.32a4.62,4.62,0,0,0,5.21-1.48,38.13,38.13,0,0,0,4.35-1.15c.4-.12,1.8.17,2,0l2.51-2.33a1.85,1.85,0,0,1,1,0,6.33,6.33,0,0,0,3.15,1.8,7,7,0,0,1,3.81-.53A4.17,4.17,0,0,0,546,18.79c2.33-.14,4.58-.34,6.7-.63.43,0,.68-.56.92-1a2,2,0,0,0,0-.92,1.59,1.59,0,0,0-.76-.88,15.29,15.29,0,0,1-7.6-4.81,14.55,14.55,0,0,0,2.8,0,3,3,0,0,0,1.42-1.67c.24-.62-.34-1.37-.48-2.31-.09-.57,1.09-1,1.15-1.61l.5-4.91a9,9,0,0,1,2.43,0,10.33,10.33,0,0,1,3,3.38,31.92,31.92,0,0,1,8.56,3.59,6,6,0,0,0,1.79,0,25.7,25.7,0,0,1,4.1,1.39.83.83,0,0,0,1-.33,52.64,52.64,0,0,0,6.38.65,44.59,44.59,0,0,1,5.39,3h7c.39,0,1.62.57,2,.57s1.38-.57,2-.64,1.06,1.24,1.6,1.24h9.38a96.53,96.53,0,0,1,13-1.8l7.56.57c.44,0,1.66.56,2.05.56s1.64-.57,2-.57h4.28c.2,0,.77.7,1,.88-.39.18-.79.38-1.17.59a1.36,1.36,0,0,0-.55,1.44h7.56l6.11.54,7.35-.13c1.44.45,2.55,0,2.75-1,0-.29-.57-.71-1.06-.87a9.87,9.87,0,0,1,2-.88h11.27c2.1,0,4.12-.63,6.22-.5a24.22,24.22,0,0,1,4.76,1c.38.11,1.65-.59,2.18-.57l17.63.63a6.72,6.72,0,0,1,3.11,1.68c.23.29,2,.2,2.48.35l3.61,1.33A13.61,13.61,0,0,0,717,17.5a13.42,13.42,0,0,0,3.6-1.06,12.37,12.37,0,0,1,2.67-2.92h5.4a4.31,4.31,0,0,1-.33,2.27c.22.18.61.65.76.66l6.41.6c6.26-.13,12.33-.7,18.48-1.19l9.52-1.17h5.07c3.08.6,6.35,1.37,9.73,1.8l9.34.56a47.72,47.72,0,0,0,5.39,1.11c2.43.18,4.62-.63,7.07-.56A25,25,0,0,0,803.74,19c.7-1,1.26-2.51,3.16-2.14.11,0,.45.45.58.56l-1.17.59c.31.2.4.58.59.87a2.43,2.43,0,0,0,3.17.64c.3-.18,1.67.52,2.1.54a44.33,44.33,0,0,0,7.19-.59l3.83.57a15,15,0,0,0,3.59-.59V18.18c-.72,0-2.3.34-2.52-.49l3.1-.63a45.49,45.49,0,0,1,7.18.62c1.8-.31,3.46-.76,5.09-1.19l2.73.57a51.74,51.74,0,0,0,9.55-.55,7,7,0,0,1,3.1.59,27.69,27.69,0,0,1,6.82-1.17h8c.63,0,1.8.69,2.54.61l6.84-.77V16.9c-2.46.56-4.69,1.44-7.19,1.91a1.65,1.65,0,0,0-1.09,1.09,82.87,82.87,0,0,0,12.69-.7c3.09-.37,6.43-.84,9.49-1.36.14,0,.61.55.64.72s-.21,1.94,0,2.12a6.46,6.46,0,0,1,1.67,3.48,4.81,4.81,0,0,1-1.67,1.8l-2.33,1.26v2.6a3.87,3.87,0,0,0,2.84,2A6.55,6.55,0,0,1,897,30.36a50.16,50.16,0,0,1,5.73,2.07,13.69,13.69,0,0,1,3.31-.92h11.72c.39,0,1.79.76,2.1.62,1.8-.69,3.4-1.53,5.09-2.32.3-.15,1.43.09,1.79,0s1-1.06,1.39-1.06h7.31l7.78,1.79h3.17a32.29,32.29,0,0,0,4.31,1.17,29.83,29.83,0,0,1,4.3-.59l5.39-2.64c.34-.16,1.2-1.42,1.56-1.46a10.13,10.13,0,0,0,3.24-1.11,2.56,2.56,0,0,1,1.4,0l2.69,1c.36.14,1.8-.09,2.14,0,1.94.43,3.6,1.26,5.74,1.94a15.36,15.36,0,0,1,3,4.6,4.2,4.2,0,0,1,0,1.8c0,.23-.94.7-1.15,1.26-.86,2.49-1.19,6-2.7,8.43-.88,1.4-2.66,2-3.77,3.19a21,21,0,0,1-7.57,2.36l-10.78,3.25a78.63,78.63,0,0,0-11.34,5.52L937,61.1c-1.35.46-2.7,1.2-2.84,2.82a62.9,62.9,0,0,0,.43,7c0,4.44-.34,8.7-.52,13l-1.15,2.69-.6,3.6.6,3.39V109l1.16,29.55.6,4.78-.6,4.76v9c0,.41.6,1.63.6,2s-.6,1.4-.6,1.79.54,1.64.58,2a18.39,18.39,0,0,1-.65,6,18,18,0,0,1,.67,6,11.29,11.29,0,0,0,.63,2.18c.16.68-.52,1.15-1,1.45a8.42,8.42,0,0,1-1.42,0c-2.58-23.87-2-50.55-3.37-75.64l-.63-7.48a47.64,47.64,0,0,1,1.07-8.14c-.44-2.72-1.43-5.11-1.92-7.87-.63-3.6-2-6.67-2.87-10.32a4,4,0,0,0-1.41-2.64c-1.43.32-2.82.84-4.2,1.24h-3.72a1.3,1.3,0,0,0-1,1L913,150c.54,4.44,1.53,8.43,2.39,12.45l-.61,2.72c0,.36.54,1.63.52,1.79a15.21,15.21,0,0,1-1.56,5.27l-.61,3.59c-.11.61-1,1.05-1.6,1.48a1.67,1.67,0,0,1-.94,0,2.28,2.28,0,0,1-.82-2,49.2,49.2,0,0,0,2.17-13.4l-2.35-13.23V136.58c0-.4.59-1.64.59-2s-.59-1.4-.59-1.8.56-1.56.56-2.12a32.62,32.62,0,0,0-.56-3.38c-.09-.45.63-1.9.54-2.33l-.56-2.72.58-5.26V103.33c0-.41.57-1.63.57-2s-.57-1.62-.57-2V78.85a14.33,14.33,0,0,0-4,.31c-.16,0-.63-.56-.65-.72a13.91,13.91,0,0,0,0-2.5,77.63,77.63,0,0,1-2.39-11.11c-.21-1.38-.41-2.89-1.42-3.46a1.74,1.74,0,0,0-1.06,0,2.85,2.85,0,0,0-1,2v6.74c0,.42-.57,1.64-.57,2s.57,1.64.59,2c.13,3.6.2,7.37.59,10.79a47.71,47.71,0,0,0,0,13.71,3.61,3.61,0,0,1-1,2.89,2.17,2.17,0,0,1-.88,0,1.43,1.43,0,0,1-.9-1,127.94,127.94,0,0,1-.67-14.38,163.88,163.88,0,0,0-3.59-19.77,4.17,4.17,0,0,0-1.13-1.27,2.26,2.26,0,0,0-1.21,0,7.35,7.35,0,0,0-3.05,2.69,17.52,17.52,0,0,0-2.14,6.74l.61,33.59-.63,2.74.59,2.73v17.88a88.24,88.24,0,0,0,.85,12.58,79.72,79.72,0,0,1,.3,12.46l-.61,8.89c.11,3.13.52,6.36.5,9.63,0,5.13-.68,10-.5,15.35l.59,2.73-.59,2.72v21.56c.34,10.43,1.06,20.8,1.21,31.51a5,5,0,0,0,.86,1.92c1.27,1.24,2,3,3.47,4.1l1.79,3.6,2.07,6.48c0,4.3-.48,8.23-.54,12.39-.25,17.68.88,34.54,1.69,51.15v23.52l-.59,8.16-1.17,5.39c-.49,8-.83,15.89-.68,24.34,0,.57-.9,1.06-1.49,1.49a1.5,1.5,0,0,1-1,0c-.61-.34-1.41-1-1.41-1.6,0-1.92.39-3.6.46-5.39V371.08l.6-4.13a31.36,31.36,0,0,1-.63-4.93l1.2-2.8.58-4.08V321.51L892,309.26c-.42-7.55-.15-15.51-.78-22.76-.68-2.4-.16-5.87-.52-8.73a11.41,11.41,0,0,0-1.92-5.25l-3.45-3.59a22.8,22.8,0,0,1-3.83-12.82,37.91,37.91,0,0,1,2.34-6.61c.11-12.31-.45-24.14-.58-36.16V169.65l-.57-4.76.57-4.77L881,91.07c0-.39-.56-1.61-.56-2s.58-1.65.56-1.94L879.76,73l-2.08-4.24A18.9,18.9,0,0,0,873.26,66h-2.79a33.06,33.06,0,0,0-4.65,1.48,4.82,4.82,0,0,0-2.41,1.9V81.75l1.17,24.49v11.29l.62,4.76a7.29,7.29,0,0,1-.53,2.88c-.11.39.52,1.67.53,2.08l.6,13.43V173L865.2,186c.49,12.58,1,25.65,1.17,38.6V254.5c0,.41-.57,1.63-.57,2s.57,1.41.57,1.8-.57,1.4-.57,1.8.59,1.62.59,2.1c0,4-.38,7.6-.63,11.41.74,20.24,2.07,40,2.37,60.66-.66,3.49-1.25,7.05-1.79,10.78a83.16,83.16,0,0,1-2.93,21.17c-.11.44-.9.83-.7.65l-.49-182.09-.38-38.12-3-72.34A4.83,4.83,0,0,0,857,71.57a29.85,29.85,0,0,0-5.56-2,4.53,4.53,0,0,0-1.42.54,2.39,2.39,0,0,0-1,2.09,131.23,131.23,0,0,1-1.8,21.4,225.1,225.1,0,0,1,1.19,26.1c-.81,4.63-1.3,9.6-1.8,14.57a12.55,12.55,0,0,0,.61,4.59l-.59,3,.57,4.1c0,9.52.38,18.67.6,27.69l-.6,15.65v34.24c0,.4-.57,1.64-.57,2s.61,1.64.59,2.14c0,3.29-.54,6.35-.61,9.54l.59,10.21v10.44c0,.63.6,1.8.6,2.5,0,3.69-.47,7.19-.51,11-.12,16.17.6,31.88.49,48.52l.59,4.08-.61,3.94a29.5,29.5,0,0,1,0,12.2l-1.13,2.71a18.27,18.27,0,0,0,0,2.34l-1.17,5.39v9.92l.56,5.39a16.33,16.33,0,0,1-.58,3.8,17.38,17.38,0,0,1,.58,3.79l-.58,4.38a37.3,37.3,0,0,1,.47,7.08,2.22,2.22,0,0,1-2.84,2.14,3.14,3.14,0,0,1-1.11-1.15,9.74,9.74,0,0,1,0-2.53,13.19,13.19,0,0,0,.55-2c-.34-1.53.42-3.59-.5-5.28-.13-.27.47-1.59.52-2a12.84,12.84,0,0,0,0-2.32c0-.43-.57-1.63-.57-2s.59-1.64.59-2.09c0-4.46-.38-8.54-.63-12.8.61-8,1.31-15.95,2.34-23.83l-.56-3.2v-23.9l-.57-2.71.5-2.66a259.22,259.22,0,0,1-1.13-30.39l.57-3.42-.59-3.39V229.53l.59-3.39-.59-3.4c-.16-7,.48-13.62.59-20.44V173.73c-.12-11.41-.77-22.63-.45-34.15a191.81,191.81,0,0,1,1.64-19.44l-.63-23.37.54-2.46a63.92,63.92,0,0,0-2.3-12.58,50.51,50.51,0,0,0-.6-10,9.67,9.67,0,0,0-3.45-3c-2.93-1.19-6.52-1.51-9.77-2.59l-.72.27a4.51,4.51,0,0,0-2.91,3.38l-.56,3c0,9,.61,17.47.59,26.85l1.17,19c.41,12.58.68,25.27,1.17,37.52l-.59,7.5c0,3.34.62,6.54.57,10.15,0,.47-.57,1.69-.57,2.09s.59,1.4.59,1.79-.59,1.41-.59,1.8.59,1.64.59,2.07c.11,19.41-.92,37.74-1.46,56.56L825,251c-.27,6.68-.61,13.6-1.15,19.77l.88,7,1.79,25.07c.78,11.64,1.8,23.08,3.22,34,.15,6-.3,11.41-.65,16.93a3.48,3.48,0,0,1-1.09,1.26,2.57,2.57,0,0,1-1.17,0,3.5,3.5,0,0,1-.88-.88L824.5,351l.61-6.44-3.47-42.09c0-12.26-.93-23.9-1.8-35.21l.58-5.39v-8.16l1.17-17.7c.41-11.88.14-24.21.77-35.78a34.14,34.14,0,0,0,.3-8.74c-.41-13.33-.79-27.35,0-40.54-.77-15-1.29-30.14-2.33-44.83a228.32,228.32,0,0,0-1.8-33.06l-.9-2.92a5.93,5.93,0,0,0-2.06-2.58,7.82,7.82,0,0,0-1.91-.92c-.22,0-1.06-.14-1.22,0L810.07,69a6.2,6.2,0,0,0-.88,1.94l-.6,3.11c-.14,5,.4,9.65.6,14.48a33.06,33.06,0,0,1-.6,7.75l.6,4.22-.56,7.33c0,13.48,1,26.35,1.8,39.27v74.1c.44,6.74,1.16,13.21,1.15,20.42a6.45,6.45,0,0,1-.58,2.53l-3.49,3.6v3.86l-2.33,6.9v19.77l1.17,15v15.51c0,.63.59,1.8.61,2.57a12.69,12.69,0,0,0,.28,4.21,5.28,5.28,0,0,1,1.66-1.42,2.48,2.48,0,0,1,1.15,0,2.87,2.87,0,0,1,.9,2,4,4,0,0,1-1,2.62,1.79,1.79,0,0,1-.92,0c-.54-.32-.93-1-1.53-1.24v14.27l.58,4.77-.58,3.5.56,3.2-.59,19.25c-1.15,5.39-2.79,10.15-4.12,15.11a32.46,32.46,0,0,0,1.19,4.48v3.16c0,.38-1.35,1.8-1.8,1.8a2.77,2.77,0,0,1-2.93-1.28,9,9,0,0,1-.59-2.46l-.65-9.38a74,74,0,0,1,4.14-10l.57-6.09v-6.22l.58-2.68c-1.3-11-1.08-23.72-1.15-35.82l.57-2.73-.57-2.71-.6-19.65L801,274.43V259.64l-.9-2.92a7.1,7.1,0,0,0-1.36-2.13c-.2-.24-.22-1.15-.38-1.44l-1.8-2.84-2.91-2.91L791.54,243a48.8,48.8,0,0,1,.61-5.55c-1-11.63-1.31-24.07-2.21-35.61a105.18,105.18,0,0,1,.48-11.64l-.59-8.18.59-29.94c.16-5.39.92-10.41,1.15-15.57l-.57-6.79V121l.57-3.41a21.71,21.71,0,0,1,0-9.22c0-7.19-.39-13.84-.68-20.65a7.3,7.3,0,0,0-.83-1.92c-.18-.27-1-.9-1.17-1.17a7.86,7.86,0,0,1-.86-1.94l-.59-5V71.88l-.58-5.39a3.61,3.61,0,0,0-1.22-1.3,16.1,16.1,0,0,0-4.71-1.4,1.22,1.22,0,0,0-1,.95c-.28,6,.26,11.17.49,16.61a1.24,1.24,0,0,1-1,1.08h-2.86a17.69,17.69,0,0,1-2.26-4.08c-.27-.52-1-.32-1.46-.16a4.76,4.76,0,0,0-1.79,1.8l-.58,3.48V94.83a43.21,43.21,0,0,1,1.8,6.9l-.58,4.12L771.12,121c-.14,9,.29,17.39.59,26.06l.6,3.59-.51,2.86a25,25,0,0,0,.45,5.39c.36,11.74.52,23.36.61,35.58L774,206.74c.43,20.17,1.21,39.79,1.8,59.51l-.58,8.18c.29,6,.88,12.22,1,18.36,0,2.79-.38,5.54-.49,8.18l.61,7.48c0,8.18-.84,15.87-1.18,23.72v10.89c.64,9.26,1.52,18.6,1.79,28.4a54,54,0,0,0,1.8,6.77,7.85,7.85,0,0,1,0,2.56c-.11.45-.7,1-1.06.95a51.47,51.47,0,0,0-6.69-.59,2.82,2.82,0,0,1-1.31-1.15,10.61,10.61,0,0,1,1.46-5.27l.61-6.18v-7.19L770,334.15l.6-30V270.94l-.6-8.16.6-8.18-1.17-38.3V196.54l-.6-5.4.61-5.39c-.14-6.43-.52-13-.62-19.61,0-.43-.56-1.67-.56-2.06s.75-1.8.61-2.16A62.7,62.7,0,0,1,766,151.14v-6l.92-6.75a24.36,24.36,0,0,0,.27-10.68c0-11.14-.74-21.91-1.12-32.67V76.1l-.57-4.47a2.79,2.79,0,0,0-4.35-.34L759.62,75c0,11.77.91,22.88,1.18,34.36v22l.58,18.39-.58,18.37V188.5c0,.41.58,1.64.58,2.05s-.58,1.4-.58,1.8.58,1.63.6,2.06c.09,11.49.57,22.61,1.17,33.63-.15,11.43.12,22.57.59,33.45,0,.41.56,1.63.56,2s-.58,1.63-.58,2.05v21.78l.58,8.84-.42,7.69c-.36,2.86-1.31,5.2-1.44,8,.54,1.4,1.33,2.46,1.64,3.59a14.52,14.52,0,0,0-1.44,4.28,62.36,62.36,0,0,0-.7,7.73,1.48,1.48,0,0,1-.56.7,2.08,2.08,0,0,1-1.16,0c-.29-.14-1.19-1-1.19-1.28,0-3.59.38-6.72.59-10.1a13.82,13.82,0,0,0-.59-5.15l1.19-4.17.61-5.58c0-3.68-.49-7.18-.61-10.89V279.75c-.22-2.88-1-6.26,0-9l-.6-2.7c-.37-13.33-.68-26.54-.57-40.25-.47-10.79-1.15-21.57-1.8-32.08V175.27l-.59-7.47.59-7.5-.61-37.74-.49-6.11a7.57,7.57,0,0,1,.54-3.45c.13-.38-.54-1.67-.54-2.08V85.63L755,82.54c-1.15-2.82-2.15-6-3.16-9-.68-2.08-.95-4.46-1.58-6.58-.11-.37-.5-1-1.08-.63-.25.15-1.13.92-1.17,1.19-.36,3.6-.84,7.42-1.15,11l.56,4.76,2.34,65.58c0,.34-.63,1.62-.56,2,.12.77.7,1.58.57,2.37l-.57,3.36v21.21l1.17,15v17.49c0,.41-.63.7-1,.93a2.09,2.09,0,0,1-.93,0,2,2,0,0,1-.92-1,7.23,7.23,0,0,1-.66-2.63l.61-4.51V192.26c-.31-4.37-1.26-8.41-1.69-12.58-.33-3.11-.29-6.36-.65-9.33l1.13-14a7.63,7.63,0,0,0-.5-3.6c-.16-.37.57-1.68.56-2.19l-.83-22.07c-.4-5.07-.22-11-.49-16.51-.35-7.66-1.5-15.1-2.21-22.38V74.94l-.61-7a5.5,5.5,0,0,0-1.7-2.69c-.71-.51-1.68,0-2.32.48a6.59,6.59,0,0,0-1.8,1.8l-1.8,7.58v8L734,86.26,732.82,89c0,5.78.47,11.12.59,16.69v16.18l-.57,3.4.57,3.41c.15,10.15.13,20.38-.57,29.83.79,14.49,1.42,29.28,2.32,43.48l-.58,5.25c.33,3.86.67,8,1,12.24.8,11.68,1.79,23.27,2,35.69a4.77,4.77,0,0,0,2.36,2.05c.63.18.83,1.36,1.11,2.17a3.31,3.31,0,0,1,0,1.33l-1.17,2.72v18.47c0,.41.6,1.64.6,2s-.6,1.64-.6,2.05v28.2l-1.15,9.52v3.89l.56,2.71c-1.49,5-1.8,11.05-2.84,16.43a3.26,3.26,0,0,1-2.91,1.43c8.84-75.28-8.82-147.22-3.59-224.76.14-11,0-21.83-.56-32.35l-1.17-8.16V78.84c0-.42.59-1.64.59-2s-.59-1.64-.59-2V67.35a6.2,6.2,0,0,0-.88-1.94c-.29-.4-1.47-1.4-2.43-2.3-15.56,52.51,2,134-6,196.87.16,5.26.68,10.17,1.15,15.15a119.61,119.61,0,0,0,0,24.08l1.21,2.8a117,117,0,0,1-2.5,12.87,4.22,4.22,0,0,1-1.42,2.52,1.92,1.92,0,0,1-1,0c-.43-.16-1-.68-1-1.1a67.93,67.93,0,0,1,2.28-11.21,6.77,6.77,0,0,0,0-2.29l-1.19-4.09a54.38,54.38,0,0,0-.57-8.74,7.75,7.75,0,0,1,.63-3.18,10.69,10.69,0,0,1,0-7.19c-1.26-6-.74-13.58-1.8-19.68,1.42-11,.9-23.72,1.69-35.47l.61-2.74c0-.36-.59-1.63-.59-2s.63-1.65.59-2.12c-1.33-18.19-.5-40.06-1.17-59.81l-.59-5.39.58-5.39-.58-10.5V111.69c-.59-13.14-1-26.73-1.8-40.06L712.8,68a7.28,7.28,0,0,1-1.58-2.28,6.59,6.59,0,0,0-3.51-1c-8,34.14-12.58,66.49-11.86,106.59l.61,3.4a12.06,12.06,0,0,1-.34,1.47c.56,27.26,2.25,54.29,3.85,80.88a181.6,181.6,0,0,1,2.91,33.24c.49,4.64,1.29,9.19,1.8,13.61v12.45l-.6,2.72c0,.43.69,1.92.6,2.33l-.6,2.74L703.8,343a169,169,0,0,0,.43,25.65,16.93,16.93,0,0,0,2.12,6,6.28,6.28,0,0,1,0,2.59,3,3,0,0,1-2.79,2.46,4.49,4.49,0,0,1-2.71-1.69l-1.46-3.09V349.75l.56-8.86c-.25-5.48-.61-11.41-1.13-16.63l.57-5.39V300.7l-1.16-6.79v-4.1l-3-32.08V245.87l-2.9-56.2v-8.36l-.57-2.73.86-3c-.3-5.74-.9-11.58-.66-18,0-.45-.56-1.67-.56-2.08s.63-1.64.61-2.14c-.74-19.12-1.44-38.48-1.24-58.63a6.39,6.39,0,0,0-.83-1.94c-.19-.28-1-1.16-1.31-1.2a5.16,5.16,0,0,1-2.84-1.17,77.81,77.81,0,0,1-3.74-16,25.28,25.28,0,0,0,.53-7,4.36,4.36,0,0,0-1.1-1.2c-2.75-1.8-7.5-.65-10.28,1.43L672.9,287.1l-1.9,4.08-.6,7.65a47.27,47.27,0,0,0-1.65,6.71c.74,4,1.8,7.76,2.3,12,0,.23-.48.73-.63.79a2.32,2.32,0,0,1-1.17,0,4.76,4.76,0,0,1-1.67-2.84c-.66-2.48-1-5.09-1.79-7.44a65.15,65.15,0,0,1,1.79-12v-3.7l1.19-8.16c0-4.86.36-9.37.57-13.72l-.59-7.58.59-10.21V236.74c.17-4.44.79-8.63,1.15-12.94a8.21,8.21,0,0,0-.52-4c-.14-.31.54-1.44.54-1.8s-.57-1.62-.59-2c-.58-10.59-.94-21.44-1.08-32.35-.22-17.31-.23-34.53-1.31-51-.32-5-1.22-9.71-1.69-14.6l-.59-10.89V82.52A129.87,129.87,0,0,1,664,68.73c0-.39-1.24-1.65-1.67-1.79l-3.71-1.8c-11.07,12.58-2,47.46-4.43,70.09,0,11.88-.27,23.26-.62,34.81l-.57,2.74.61,2.71a61.28,61.28,0,0,1-1.24,9.92,3.31,3.31,0,0,1-1,1.94,7,7,0,0,1-1.94,0c0-3.16.48-5.84.59-8.75l.57-36.45a234.38,234.38,0,0,0-1.13-25.68l.56-4.76v-27l-1.15-4.08L648.32,76V69.69a2.83,2.83,0,0,0-1.06-1.8,3.27,3.27,0,0,0-1.46,0,1.72,1.72,0,0,0-.68.58l-1.48,3.12-.57,4.08c-.16,19.77.43,38.89,1.17,57.94l.57,5.4-.57,4.38.57,4.76c.24,9-.34,18.48.31,27,.68,8.88,0,19.29.18,28.76,0,.36-1.58,1.49-1.66,1.92l-.61,3.6c.09,4.45.79,8.69.6,13.6,0,.41-.56,1.64-.56,2s.66,1.65.61,2.17l-.59,4.53c-.35,12.92-.29,26.1-.45,38.8a234.34,234.34,0,0,0,1.58,29.26,113.35,113.35,0,0,0-1.8,13.23v16.54a4.35,4.35,0,0,1-.59,1.34,1.68,1.68,0,0,1-1.8.87,3,3,0,0,1-1.69-2.48c0-.24.49-1.46.52-1.8l.58-6.72a8.9,8.9,0,0,0-.52-4c-.17-.36.52-1.69.54-2.08.12-5.4.23-10.79.57-16.05-.38-7.95-1.17-15.51-1.8-23.24l.6-39.29.57-3.39-.57-2.63.57-2.73V212a26.37,26.37,0,0,0-1.09-6.76c-.11-.3.71-1.65.59-2.28-1.24-5.86-2.77-11.84-3.6-18.38a1.7,1.7,0,0,1,1.26-1.8s.58.38.7.7a60.11,60.11,0,0,1,2.45,10.94,9.11,9.11,0,0,0,.95,4.07c.27.32.59.79,1.2.54l-1.31-53.09-.82-17.51c-.27-8.63-.71-17.15-1.46-25.16l.59-4.67-.59-5.4v-13l-.59-6.59a12.86,12.86,0,0,0-2-5.3l-3-2.9a16.22,16.22,0,0,0-3.86-.57c-.47,0-.88.55-1,1-1,4-1.39,8.57-2.18,13s-1.89,9.33-.74,14.24c-.37,7.33-.7,14.66-.64,22.53l-.58,8.16c1.26,19.2,1.42,39.81,2.3,59.46,0,.45-.77,1.79-.57,2.19a6.94,6.94,0,0,1,0,5.68c-.18.32.52,1.69.52,2.1v14.2l1.17,25.86v16.71l-.56,7.79-2.35,11.46v2.79a33.9,33.9,0,0,0-1.8,6.76v6.41a4.34,4.34,0,0,1-.61,1.35c-.34.54-1.06,1.1-1.71.83-.29-.13-1.24-1-1.22-1.26a34.47,34.47,0,0,1,.61-3.45v-4c1.36-8,2.51-16.57,4.08-24.32V248.6c0-.39-.59-1.62-.59-2s.59-1.64.59-2v-9.9c-.76-11.7-1.8-23.47-1.8-36l.59-3.41-.59-3.4V168.68l-.88-17.51c-.18-7-.81-13.39-1.47-19.77l1.36-48.88.56-5.39a9.61,9.61,0,0,0-.58-3.6l-2.6-4c-.09-.13-.92,0-1.08,0a1.36,1.36,0,0,0-.88,1c-.16,10.79.29,21.32.5,31.69l-.59,17.7v36.92l-.59,11.55,1.17,19.56v17.3a2.8,2.8,0,0,1-1.07,1.8,2.56,2.56,0,0,1-1.45,0,2.62,2.62,0,0,1-.92-2.05c0-4.62.54-8.86.38-13.51a111.61,111.61,0,0,0-1.58-16.32l.57-2.63-.59-3.41c-.16-7,.41-13.61.58-20.42s-.31-13.19-.58-19.44l.61-5.39a73.46,73.46,0,0,1-.59-9.73l.57-3.39-.57-3.42v-5.16c0-.41-.59-1.63-.59-2s.62-1.63.62-2.19c-.14-6.61-.73-12.78-.62-19.9l-.6-5.62c-.29-1.46-.88-2.77-1.18-4.35l-2.34-2.34a1.88,1.88,0,0,0-1.8-.61,4,4,0,0,0-2,2.63l-3.21,11.89c.21,9.74.73,19.2.73,29.53l1.17,20.42v46.28l.58,2.71-.87,2.93-2.35,4.66a1.4,1.4,0,0,1-.93.59,1.3,1.3,0,0,1-1.08-.31A1.39,1.39,0,0,1,597,185a32.76,32.76,0,0,1,2.27-6.62V165.82a5.8,5.8,0,0,0-.44-1.51l-.14-28.23c-.32-10.79-1-21.57-1.19-32.68,0-.41-.55-1.63-.55-2.05s.57-1.38.57-1.79-.57-1.64-.57-2l-.58-12a73.55,73.55,0,0,1,1.12-13.34c-.4-2.57-.67-5.14-1.15-7.56a2,2,0,0,0-.56-.69,9.26,9.26,0,0,0-1.29,0,9.84,9.84,0,0,1-2.79,3.51l-1.2,7.08a4.86,4.86,0,0,1-2.3,3.21v-9c0-.41-.62-.7-1-.92a2.57,2.57,0,0,0-1.17,0c-1,.4-2,1-3.12,1.58a2.74,2.74,0,0,0-1.12,2.14v4.84l-1.18,2.78,2.37,20.17a7.45,7.45,0,0,1-.54,3.16c-.13.38.54,1.67.54,2.09v8.55l-.6,3.4.6,3.21-.6,4.08L581.1,153c1.51,16.55,3.06,33.34,4.12,50.32l.59,16.32.86,3.9a5.43,5.43,0,0,1-.61,4.64c-.25.31-1.67.83-1.8,1.22a43.19,43.19,0,0,1-1.92,5.39v4.89l-.59,3.4.61,3.41c0,8.15-.83,15.68-1.22,23.55a6.4,6.4,0,0,1-.54,1.33,2.6,2.6,0,0,1-2.86.81c-.18.21-.67.61-.67.79a25.43,25.43,0,0,0,.62,4.76l-.62,4.15c.26,12.2,1.8,23.69,2.23,35.59.42,10,1.35,19.17,1.3,29.36-.61,7.59-1.66,14.94-2.34,22.27l.58,4.37a4.71,4.71,0,0,1-1.53,4,2.79,2.79,0,0,1-1.62,0c-.61-.29-1.42-.95-1.53-1.56l-.57-3.69.46-3.88,1.17-2.73V348.58l.58-7.49a34.23,34.23,0,0,0-1.19-7.09l-1.15-11.28v-15l-2.64-35.19-3.7-37.94.54-4.08V215l-1.17-19.07V159.73a288.93,288.93,0,0,0-2.32-30,15.07,15.07,0,0,0,.49-3.59,16.62,16.62,0,0,0-.51-3.78l.54-3-1.11-13.09.57-4.88a58.9,58.9,0,0,1-1.79-8.72V81.26c-.62-1.4-1.41-2.77-2.14-4.19h-1.33a77.72,77.72,0,0,0-.7,11.31c0,.56-.9,1.08-1.51,1.49a1.38,1.38,0,0,1-.94,0,3.51,3.51,0,0,1-.92-2,44.55,44.55,0,0,1-1.09-9.42c-.09-2.37.34-4.49.41-6.84a2,2,0,0,0-1.53-1.5,5.21,5.21,0,0,0-2.48.81,14.6,14.6,0,0,0-2.94,3.74v4.37c0,.27-1.15,1.08-1.15,1.35v3.7l1.79,6v17.66l.54,3.42a16.69,16.69,0,0,0-.57,3.77l.55,5.39c.38,9,.51,18,.6,27.43L550,161.35v28.48l-.57,6a3.24,3.24,0,0,1-1.06,1.8,2.66,2.66,0,0,1-1.48,0,2.2,2.2,0,0,1-.8-2,29.35,29.35,0,0,0,.88-7.76,199.89,199.89,0,0,0-1-21.19l.58-5.39c-.4-10.53-1.17-21.1-1.8-31.51V118.5c-.41-9.67-1-19.34-1.13-29.37a71.74,71.74,0,0,1-2.37-11l-2-2.75a6.67,6.67,0,0,0-1.67,0l-1.23,96.55.47,22.21.59,5.39-.52,4.37v22.86l-.59,3.4a99.05,99.05,0,0,1,1.15,16.42l1.17,10.9V266l.59,4.1-.57,3.77a135.42,135.42,0,0,1,1.15,22.86l-1.17,6.81v3.38a44.9,44.9,0,0,0-2.36,11.76c0,.28-.84,1.13-1.13,1.29a2.57,2.57,0,0,1-1.17,0,1.69,1.69,0,0,1-.59-.68v-4.94a62.6,62.6,0,0,1,2.35-9.17c.13-4.58.67-8.84,1.15-13.1L535,271.16v-5.4c-1-11.21-1.49-22.89-2.9-33.91l.56-3.23V206c0-.42.58-1.64.58-2s-.65-1.64-.63-2.25l.77-87.29c1-10,0-21.06-.7-30.55a12.7,12.7,0,0,1,.57-3.74l-.57-2.86V70.66l-.88-2.91a3.47,3.47,0,0,0-1.46-2l-3.11-1.46c-1.94-.47-3.84-.83-5.75-1.15a5.38,5.38,0,0,0-2.08,1.8c-1.1,3-1.91,6.56-3,9.5l1.1,37c0,.39.57,1.61.57,2s-.59,1.63-.59,2v16.91a20.09,20.09,0,0,0,.59,2c.17.66-.52,1.09-1.06,1.42a2.72,2.72,0,0,1-.9,0,2.08,2.08,0,0,1-.91-1,9.61,9.61,0,0,1-.63-2.48V118.7c-.77-16.68-1.91-33.34-1.65-50.95,0-1.8.43-3.47.44-5.4a2.82,2.82,0,0,0-1.09-1.25,2.76,2.76,0,0,0-2.93,1.29,7.86,7.86,0,0,0-.61,2.46V81.76a94,94,0,0,1-1.8,10.7c.76,17,1.49,34,1.8,51.52q1,11.58,1.8,23.37c-.11,10.1.23,20.81-.18,30.55,0,1-.63,1.8-.47,3.11,0,.4-.52.74-.92,1a9.27,9.27,0,0,1-1.49,0c-.49-30.25-1.8-60.17-3.94-88.87V95.24l1.17-4.09-.59-2.72L503,68.66c0-2.84.56-5.59.54-8.61,0-.46-.58-.79-.86-.89a11.13,11.13,0,0,0-5.18-.54c-.49,0-.85,1.11-.86,1.79-.13,2.84-.26,5.81-.65,8.54l1.17,8.11v8.37L496,107.2c0,11.23,1.26,21.69,1.13,33.23a7.67,7.67,0,0,1-.82,2c-.29.5-1,.25-1.5.2a1.37,1.37,0,0,1-.55-.61v-9c0-.39.57-1.62.57-2s-.56-1.62-.59-2.05l-1.8-17.49c-.27-10.06.31-19.76.59-29.56l.58-3.43c-.25-1.57-.85-2.88-1.08-4.37a31.58,31.58,0,0,1-.66-8.73l1.79-5.84a3,3,0,0,0-.23-2.32c-.49-.72-1.4-.6-2.09-.87-3.43-1.38-6.56-3.09-10.2-4.36a3.71,3.71,0,0,0-1.69,0,2.57,2.57,0,0,0-1.4,1.56,74,74,0,0,0-1.8,10.1V71.7a23.87,23.87,0,0,1-1.57,3.06h-1.29a23.31,23.31,0,0,1-.63-7L474,59.59a31.75,31.75,0,0,0-.63-6.81,3.15,3.15,0,0,0-.59-1.48l-5.18-3.7a17.27,17.27,0,0,0-6.38-1.38c-6.22-2.09-12.09-4-17.56-6.22-.68-.29-1.79-.58-1.6-1.39S442.86,37.62,443.65,37.5ZM932.31,68.73c-.84.22-.54,1.8-.52,2.52h.52Zm-.61,6.21a5.35,5.35,0,0,0,.86,1h.31v-3A2.41,2.41,0,0,0,931.7,74,1.67,1.67,0,0,0,931.7,74.94ZM874.57,34.71a7.2,7.2,0,0,1,2.16,1.37c.5.56,1.79.13,2.57-.29a7.74,7.74,0,0,0,2.85,3.45c2.2-.25,4.64-.57,7.19-.64.27,0,1.06-.94,1.1-1.05a1.37,1.37,0,0,0,0-1.36,1.4,1.4,0,0,0-1.2-.69l-2.45-3a6.93,6.93,0,0,1-2.71-2H881.2c-.79,0-2.07.57-2.12,1.13a19.63,19.63,0,0,0,.22,3,4,4,0,0,1-2.93-1.79l-1.8,1ZM795.33,211.06c.27,6.29,1.1,12.47,1.65,18.47v10.52c0,.12.45.54.67.79.93-.22,1.58-1.26,2.26-1.8a2.66,2.66,0,0,1,2-.77,3.58,3.58,0,0,1,2.3,1c.45.57.61,1.42,1.35,1.8a2.48,2.48,0,0,0,.86,0c.52-.33,1.22-.76,1.08-1.42a17.91,17.91,0,0,1-.61-2.05l-.58-18.39c0-27.5-.16-54.54-1.17-81.09L804,120.4l.62-41.8-1.2-5.39L802.81,67a2.34,2.34,0,0,0-1.53-1.56l-3.87-.63c-.25,0-1.13.93-1.31,1.22a6.67,6.67,0,0,0-.88,1.94v3.31c0,.39-.59,1.63-.59,2s.59,1.64.59,2V101l-.57,16.34c1.11,24.35-1.66,47.38,1.16,71.76C795.49,196.28,795,203.45,795.33,211.06ZM694.88,111.11l.6,4a1.61,1.61,0,0,0,1.09-1.1c.81-6.22.9-13.21,1.22-20l-.57-15.56-.9-1.94a.68.68,0,0,0-.9-.25,1.65,1.65,0,0,0-.5.63c-.13,4.85.43,9.18.56,13.62l-.6,8.16ZM568.88,101c.32,6.67.38,13.27,1.2,19.07l-1.22,4.3a37.92,37.92,0,0,1,.92,7c.61,7.48,1.79,14.74,2,22.36v31.9c0,2.41.5,4.74.63,7l-.63,2.95c-.16.74.56,1.63.61,2.5-.48.3,0,1.06,0,1.34l.59,10.34v11.66c0,2.84-.57,5.57-.61,8.49a32.54,32.54,0,0,1,1.8,7.85l.59,13.6,1.17,6.82.58,7.18a10.39,10.39,0,0,0,.88,1.95c.18-.2.88-.78.88-1v-3.6c0-.41.63-1.67.56-2l-.78-3.27c.25-6.92.2-14,.2-21a21.71,21.71,0,0,0-1.8-4.8l-.59-3.18v-3.88l.59-3.11a5.54,5.54,0,0,1,1.8-2.84c2-.28,3.25,1.39,4,3.42v-4.66l.6-3.41-.6-3.4-.62-10.49-4-43.86v-7.78l1.15-23.13V101.19l-.58-12.06c-.37-2.93-1.42-5.64-1.79-8.75V76.79a5.63,5.63,0,0,0-1.91-3.08,8.71,8.71,0,0,0-6.23,8.38c-.24,3.59-.72,7-.62,10.69Z"/>
            </g>
            <g id="c492bd58-dde9-4afb-a2d6-37049639ac51-child-9">
              <path class="cls-1" d="M423.09,45.21a11,11,0,0,1,1.35-3.13c.16.2.91.77.91,1,0,1.6-.46,2.95-.57,4.44-.25,3,.18,6.45-.24,9.15a76.2,76.2,0,0,1-1,8l-1.17,2.71v4.53c.36,3.49,1.18,6.63,1.24,10.5a5,5,0,0,1-1.44,0c-.63-.31-1.42-.94-1.53-1.57l-1.18-6.2a78.36,78.36,0,0,1,.68-11.46C420.82,56.89,422.33,51.48,423.09,45.21Z"/>
            </g>
            <g id="c492bd58-dde9-4afb-a2d6-37049639ac51-child-10">
              <path class="cls-1" d="M747.94,240.1c.25,0,1,1,1,1.15a5.09,5.09,0,0,1-1.37,5,1.89,1.89,0,0,1-1,0c-.45-.16-1-.65-1-1v-3.86A2.9,2.9,0,0,1,747.94,240.1Z"/>
            </g>
            <g id="c492bd58-dde9-4afb-a2d6-37049639ac51-child-11">
              <path class="cls-1" d="M446.09,167.51a7.52,7.52,0,0,1,1.37-2.14c.18-.23.16-1.18.39-1.51l2.32-3.34,4.14-4.08a1.8,1.8,0,0,1,2,.25c.15.13.47.56.87,1-5.59,9.5-12.58,18.69-10.14,35.94l.57,15.91c0,.19-.48.68-.64.73a2,2,0,0,1-1.15,0,3.16,3.16,0,0,1-1.17-1.26c-.49-10.92-1.33-21.67-1.19-33l.88-3.9Z"/>
            </g>
            <g id="c492bd58-dde9-4afb-a2d6-37049639ac51-child-12">
              <path class="cls-1" d="M410.18,212.42l.9-2.91a4.63,4.63,0,0,1,1.91-2.34h2.64c.32,0,1.31,1.23,1.51,1.59a5.53,5.53,0,0,1,.05,5,11.29,11.29,0,0,1-1.79,1.8,7.79,7.79,0,0,1-1.93.86,3,3,0,0,1-3.3-2.54A5.72,5.72,0,0,1,410.18,212.42Z"/>
            </g>
            <g id="c492bd58-dde9-4afb-a2d6-37049639ac51-child-13">
              <path class="cls-1" d="M803.58,232.26a1.81,1.81,0,0,1,.68.58,2.79,2.79,0,0,1,0,1.22c-.21.47-.92.23-1.42.16a1.85,1.85,0,0,1-.57-.61q0-.68,0-1.35A9.55,9.55,0,0,1,803.58,232.26Z"/>
            </g>
            <g id="c492bd58-dde9-4afb-a2d6-37049639ac51-child-14">
              <path class="cls-1" d="M524.24,157.59a4.62,4.62,0,0,1,1.29-1.24c.61-.18,1.28.36,1.92.65a2.07,2.07,0,0,1,.69.72,23.3,23.3,0,0,1,1.49,7,70.94,70.94,0,0,1-.52,11.84,92.23,92.23,0,0,1-1.67,9.22l.57,3.42v9.92c.38,6.9,1,13.77,1.17,21a132.69,132.69,0,0,1-.59,39.54v3.59a2.94,2.94,0,0,1-2.32,1.24c-.24,0-1.24-1-1.23-1.27.13-4.77.81-9,1.32-13.57l-2.48-59.49.63-4.17c-.45-2.68-1.26-5.21-1.8-7.89l-.59-5.25a57.6,57.6,0,0,1,1.18-13.42A9.26,9.26,0,0,1,524.24,157.59Z"/>
            </g>
            <g id="c492bd58-dde9-4afb-a2d6-37049639ac51-child-15">
              <path class="cls-1" d="M488.08,201.28a8.49,8.49,0,0,0,2.46-1.58c.27-.33.9,0,1.33.25s1.09.36,1.26.68a37.62,37.62,0,0,1,2.66,5.68,73.74,73.74,0,0,1,2.48,11.09,11.18,11.18,0,0,0-.6,4.73,3.84,3.84,0,0,1-.91,2.17,6.07,6.07,0,0,0-2.25,1.62,13.92,13.92,0,0,0-2.62,5.82l-.62,5.63v14.77l-.57,4.1.57,2.91-.55,2.71a29.94,29.94,0,0,0,.14,6.06c.76,3.6,0,7.08.38,11.2,0,.46-.54.86-.95,1a8.9,8.9,0,0,1-1.93,0v-4.08l-1.15-8.16c-.39-7.38.31-14.07.58-20.83,0-.57-.59-1.79-.59-2.21s.66-1.69.59-2.05l-.58-2.71a64.1,64.1,0,0,1,.63-11.5,28.4,28.4,0,0,0-2.95-7.41l-.7-3.74.87-5A38.33,38.33,0,0,1,488.08,201.28Z"/>
            </g>
            <g id="c492bd58-dde9-4afb-a2d6-37049639ac51-child-16">
              <path class="cls-1" d="M461.35,223.64c.38-.16,1-.38,1.35.18s.7.59.59,1.15a4.38,4.38,0,0,1-1.54,2.62c-.27.2-1.58,0-2,0a12.08,12.08,0,0,1,0-2.55A3,3,0,0,1,461.35,223.64Z"/>
            </g>
          </g>
        </g>
        <g id="_10efdb09-1a15-496a-9339-295aeed58819" data-name="10efdb09-1a15-496a-9339-295aeed58819">
          <g>
            <g id="_10efdb09-1a15-496a-9339-295aeed58819-child-0" data-name="10efdb09-1a15-496a-9339-295aeed58819-child-0">
              <path class="cls-1" d="M268,298.75l-.64-9.14c-.13-.75-.57-1.29-1.07-1.32-.1,0-.44.55-.5.75a10.93,10.93,0,0,0-.51,1.95l.1,7.29,1.19,11.7c-.25,3.07-.36,6.44-.43,9.74a12.75,12.75,0,0,1-.74,2.95c-.26.62-.93.79-1.2,1.46s0,1.76-.25,1.93a6.3,6.3,0,0,1-.86-1.46l-1.27-16.43a64.9,64.9,0,0,0-1.39-8.08,2.92,2.92,0,0,0-1-1.71,1.3,1.3,0,0,0-1.49-.12,3.89,3.89,0,0,0-1,1.68c0,2.18-.18,4.34-.4,6.49.55,4.59.94,9.22,1.18,13.86,1.92,14.42,3.61,29.2,4.78,44.86l-.36,54.2c0,12.07.42,23.65,1,34.92a49.58,49.58,0,0,1-.41,9.45l.6,4.95.88,27.64.58,4.06a28.86,28.86,0,0,0-.39,7.44,4.58,4.58,0,0,0,1.17,0,2.6,2.6,0,0,0,.81-1.49,23.26,23.26,0,0,0,.52-3.57c-.11-14.72-.84-28.72-1.08-43l-.2-58c0-13.07-.45-25.48-1-37.83l-1.31-21.48-.15-11.73a6.76,6.76,0,0,1,.78-1.46c.28,1,.52,2.08,1.19,2.48a2.11,2.11,0,0,0,1.36,0,6.91,6.91,0,0,0,1.11-1.71,13.39,13.39,0,0,0,.76-2.85c.08-3.45.32-6.92.39-10.16l-.76-8.78Z"/>
            </g>
            <g id="_10efdb09-1a15-496a-9339-295aeed58819-child-1" data-name="10efdb09-1a15-496a-9339-295aeed58819-child-1">
              <path class="cls-1" d="M258.89,251.71a2.26,2.26,0,0,0,.57,1,1.46,1.46,0,0,0,1.05,0,3,3,0,0,0,.51-1c.16-.69.39-2.92.48-3.64l.23-23.2,1.49-5.63-.13-15.91a1.42,1.42,0,0,0-1.07-1.31c-.1,0-.44.57-.5.74a10.44,10.44,0,0,0-.5,2v5c0,.4-1,1.59-1,2v4.19l-.92,9.92Z"/>
            </g>
            <g id="_10efdb09-1a15-496a-9339-295aeed58819-child-2" data-name="10efdb09-1a15-496a-9339-295aeed58819-child-2">
              <path class="cls-1" d="M508.32,98.74c-.29-.15-.63.25-.81.27a21.47,21.47,0,0,1-8.43-.57,11,11,0,0,1-2.94-2c-.87.12-1.7-.67-2-1.94.1-.17.36-.87.65-1.06A42.6,42.6,0,0,1,500.71,91c.37-.18,1.38-1,1.73-1.27s.3-.84.2-1.29-.44-.79-.57-.79l-7.5.22c-.36,0-1.48,1-1.84.9-.68-.15-1.43-.92-2.14-.65a10.74,10.74,0,0,1-3.48.77c-.27,0-1.07-1.71-1.33-1.66a7.23,7.23,0,0,1-4.74-.67l-2.53,1-10.66.3V86.08l2.84-1a12.21,12.21,0,0,0,9.75-2.9,12.73,12.73,0,0,0,1.95-3c-.26-1.1.29-1.91.57-2.78a5.38,5.38,0,0,1-1.5,0l-2.37-1.56c-.36-.25-1.87.37-2.09,0l-2.29-3.22a2,2,0,0,0-1.63,0l-2.37,1.78h-3.25l-3.62-2.48c-.44-.27-.6.4-.75.84-.65,2.09-1,4.71-2.74,5.09h-4A196.13,196.13,0,0,0,412.12,74l-2.42.92-2.46-.8c-5.76,0-10.94,1.44-16.93,1.32a20.47,20.47,0,0,1-13.22,1.14,59.21,59.21,0,0,1-10.41-3.15,2.64,2.64,0,0,1-1.63-2c-.24-1.24.36-2.15.11-3.42a2.48,2.48,0,0,0-.56-.82,8.7,8.7,0,0,1-2.28,0,12.28,12.28,0,0,1-3.7-2c-.44-.38-.6-1.86-.89-1.86a11.82,11.82,0,0,0-4.1.84,11.34,11.34,0,0,0-4-.69,6.54,6.54,0,0,1-2.74,2.65,10.08,10.08,0,0,1-2.29-.79c-.38-.13-.73.61-1.14.52L339.88,65c-.26,0-1.11,2.11-1.4,2.21a38.16,38.16,0,0,1-7.84,1.91l-9.75.29c-1.8.35-3.54,1.44-5.24,2a16.54,16.54,0,0,0-3.33-1.88c-.47,2.53-1.76,4.51-3.41,5.25l-4.52.62c-3.46.42-5.94,2.48-9.14,3.18-.71.14-1.45-.48-2.35-.25-.18,0-.69,1.21-.87,1.21l-8.2.25-2.42.92-2.47-.77h-4.35c-.37,0-1.54,1.09-1.9.92-1.12-.55-2.09-1.71-3.25-2.16a6,6,0,0,1-2.51,2.21c-.25.17-1.42-.7-1.72-.67l-25.7,2.47-7.31,1.94-4.19.12c-.37,0-1.44.87-1.81.89s-1.48-.79-1.84-.79h-11a108.92,108.92,0,0,0-23.74.27l-13.09.35a18.68,18.68,0,0,1-6.11-2.3l-2.61,1-4.88-.74a14.87,14.87,0,0,1-2.79-5c-.1-.15-1,0-1,0l-2.88,4.51a19.77,19.77,0,0,0-8.82-.75,11.3,11.3,0,0,1-2-.79c-.38,0-1.45.82-1.82.89a3.66,3.66,0,0,1-2,0,11.38,11.38,0,0,0-4.35-2.47h-3.25c-.28,0-1.07,1.8-1.38,2.15a5.2,5.2,0,0,1-1.8,1.36c-1.82,0-3.54-.66-5.35-.71l-12.24.34A12,12,0,0,0,108,80h-4.37c-6-1.61-11.92-4.09-18.21-5.83-2.06-.59-3.93-2-6-2.62a9.62,9.62,0,0,1-3.47.86c-2.46,0-4.71-.71-7.28-.54L66,73.21a4.91,4.91,0,0,0-1.09,1,3.52,3.52,0,0,0-.67,2.18,15.54,15.54,0,0,0,.7,3.4,12.18,12.18,0,0,1,0,1.48,25.85,25.85,0,0,0,2.7,5.33c.29.3,1.28.94,1.62,1.24a2.87,2.87,0,0,1,.78,2.48c0,.22-.42.89-.57.89a22.82,22.82,0,0,0-4.58.92C59.42,91,53.64,90.21,48.53,88.48a1.8,1.8,0,0,0-2.78.47l-2.06,3.54a6.43,6.43,0,0,0,0,1.39,11.07,11.07,0,0,0-2.54,3.47,3.6,3.6,0,0,1-1.85,1.46c-1.2,0-2.35-.66-3.59-.64-9.95.35-19.29.15-28.81,0-.52,0-1,1.26-1.36,2.18a11.13,11.13,0,0,0,0,2.16,17.84,17.84,0,0,0-3.07,4.71,5.73,5.73,0,0,1,0,1.31L0,113.07l.1,6.12a27.64,27.64,0,0,0,1.52,6.27c2.05,1,3.67,3.34,4.41,6.42l.4,31.57.81,4.14c.25,1.24,1,2.06,1.84,2,.13,0,.55-.77.55-1,0-2.8-.55-5.2-.65-7.75l-.36-28.21a13.11,13.11,0,0,1,.75-2.82c.18-.4.89-1.69,1.12-1.72h3l3,4.52a18.71,18.71,0,0,1,4.78,5,102.25,102.25,0,0,1,1.2,13.26l.28,21.34c0,.6.56,2.33.56,2.93s-.48,2.35-.48,2.95l.48,38.26c-.56,8.63-1.1,17.58-1.21,26.6l.47,38-.72,27.41L22,320.83a2.35,2.35,0,0,0,.55,1,1.55,1.55,0,0,0,1,0,5.17,5.17,0,0,0,1-1.91c0-2.3-.52-4.29-.55-6.37,0-6,.62-11.74.75-17.62l.36-54.2c.37-16.93,1.25-33.88.9-52l-.63-8.8.41-8.8c-.15-10.48-.13-20.47.18-30.18-.15-2.81.95-5.43,2.69-6.4a2.62,2.62,0,0,1,1.93,1.81l.61,5,.17,57.57c0,1.64-.42,3.3-.43,5a2,2,0,0,0,.9,1.44,1,1,0,0,0,.85,0,5.86,5.86,0,0,0,.8-3c.58-16.56.66-34.28,1.47-50.44l-.14-12A16.41,16.41,0,0,1,35.4,137c.39-1,.77-2.48,1.34-3a9.2,9.2,0,0,0,2.07-2.62,13.11,13.11,0,0,0,4.41-1.71c.58-.35,1.38.59,2,1.19a7.83,7.83,0,0,1,1.62,3.94l.6,4.43.12,9.5-.73,23.49v12.39c0,1.24-.42,2.48-.33,3.92.49,6.74,1.19,13.28,1.63,20.6.6,9,1.46,19.82,0,28.1a2.2,2.2,0,0,0,.94,2,1.33,1.33,0,0,0,.79,0,2.54,2.54,0,0,0,.8-1.48,22.93,22.93,0,0,0,0-2.75l1-6c-.24-12.27-.89-24.53-1.94-36.7l.21-24.79A196,196,0,0,0,51.19,141c.41-7,2-12.39,5.83-14.87l4.25-.12A5.4,5.4,0,0,1,63,127.24a12.14,12.14,0,0,1,1.33,2.06,18,18,0,0,1,.83,2.75l.58,5.85.41,31.3-.84,15.67v38.56L65,230.05c-.19,1.83.18,3.42,1.12,3.69a21.86,21.86,0,0,0,1.43-4.58c.55-27.56,1.41-54.85,2.11-82.14l-.18-13.11a19.52,19.52,0,0,1,.49-3.67,13.17,13.17,0,0,1,1.53-2.68,4.74,4.74,0,0,1,1.8-1.38,4,4,0,0,1,2.36,1.31,7.34,7.34,0,0,1,1.62,3.94l.63,7.24c.25,11.47,0,22.55-.27,33.56-.36,15,.14,32.39-.28,47.78.42,9.3.65,18.91.89,28.45l.85,4.19a3.87,3.87,0,0,0,1.2,2.48,1,1,0,0,0,.84,0,4.7,4.7,0,0,0,.82-3l-1.11-5.38-.23-18.44-.66-8.67.4-8.82-.14-11.73c.6-21.68.6-44.34,1.79-65.43l.74-4.21A5.94,5.94,0,0,1,84,126.52a8.53,8.53,0,0,1,4.07-2.1c.42-.15,1.09.47,1.63,1.24a7.22,7.22,0,0,1,1,3l.66,4.23c.16,5.51-.34,10.49-.23,15.79.08,6.64.47,13.29,1.19,19.83l-.89,12.39.42,32.52a8.93,8.93,0,0,0,1.41,3.69,1,1,0,0,0,.91,0,4.88,4.88,0,0,0,.81-3l-1.1-5.38.47-4-.57-5c.39-10.56.54-21.61,1.17-32-.44-12.84-.26-25.71.55-38.5a14.18,14.18,0,0,1,.75-2.9,5.19,5.19,0,0,1,2.63-2.47,2.42,2.42,0,0,1,1.07,0,5,5,0,0,1,1.9,1.29,16,16,0,0,1,1,4.51l-.44,48.1c0,.55.56.94.91,1.27a1,1,0,0,0,.85,0,5.2,5.2,0,0,0,.75-2.8c0-15.4,1.21-29.37,1.08-45.09l.73-4.16a7.49,7.49,0,0,1,1.84-3.57h5.83c3.77,1.78,4.14,10.56,4.24,18.37s-.21,15.29-.16,23l1.12,89.37c0,.6-.49,2.48-.47,3s.6,2,.55,2.48c-.12,1.12-.65,2.48-.41,3.6a23.65,23.65,0,0,1,0,9.91,8.86,8.86,0,0,1,.29,1.41c-.56,8.58-.29,19.46-.47,29.2,0,.59-.55,2.48-.45,2.9a30,30,0,0,1,.62,4.95,5.05,5.05,0,0,0,1,1.81,1.26,1.26,0,0,0,1,0,2.36,2.36,0,0,0,.56-1,48.65,48.65,0,0,0-.67-5.15c1.11-24.12,1.25-49.87,1.09-75.84-.08-11.65,0-22.9.18-33.68l-.72-17.11c-.09-16.73.41-33.48,1.48-50.14a10.63,10.63,0,0,1,.76-3l1.82-3a2.4,2.4,0,0,1,2.13-1.27,2.61,2.61,0,0,1,2,1.56,20.73,20.73,0,0,1,1.15,6.37l-.09,35.2-.41,7.83.62,7.81c0,.64.57,1,.92,1.31a1,1,0,0,0,.85,0,7.5,7.5,0,0,0,1.1-1.71,6.75,6.75,0,0,0,0-1.68,21.87,21.87,0,0,1-.86-2.9c0-2.93.37-5.66.44-8.56l-.1-9.49c.21-9,.59-17.77.7-27.11l.46-4.56a12.77,12.77,0,0,1,.76-3,5,5,0,0,1,2-1.56c.75-.33,1.53.07,2,1a19.33,19.33,0,0,1,1.51,4.24l.62,5.82.23,18.44,1.62,42-.61,40.62.26,20.67-1,3.94a9.17,9.17,0,0,0,0,2,7.35,7.35,0,0,0,1,2.7.86.86,0,0,0,.85,0,30.89,30.89,0,0,0,1.28-4.51l.49-4.48-.28-22.31,1.09-38.74c-.54-9-.78-18.49-.89-28.33l-.62-6.81.45-6.87a157.67,157.67,0,0,1,.82-24.31,7.8,7.8,0,0,1,1.21-3.69l4.06-.13,2.46.77,2.42-.92,4.07-.12,2.75,5a2,2,0,0,0,2,0L168,123.4a68.33,68.33,0,0,0,10.49.72,3.83,3.83,0,0,1,1.82,1.16,8.16,8.16,0,0,1,1,3.15l.59,4.44.29,22.63.59,4.95-.46,5,.16,13.11-.6,29.17.15,11.45.62,7.81a44.5,44.5,0,0,1-.44,5.43l.58,5c.33,13.35-.11,26.09,0,39.11l1,76.26c0,.59.55,2.33.55,2.92s-.52,2.48-.49,3a113.62,113.62,0,0,1-.4,12.66,2.4,2.4,0,0,0,.58,1.14,1.55,1.55,0,0,0,1,0,5.16,5.16,0,0,0,1-1.83l.34-14.87c-.11-23.3-.86-47.39-.72-70.12.65-17.1.39-35.54.2-54-.41-5.22-1-11.07-.23-16.06l-.6-4.95c0-8.38.59-16.16.75-24.34l-.12-9.77.75-23.49-.23-17.87,1-7.59a5.89,5.89,0,0,1,1-1.83,5.26,5.26,0,0,1,1.72-1.31l4.33-.13a2.39,2.39,0,0,1,2,1.61,40.21,40.21,0,0,1,2,9.72l.27,23.47-1.62,119.64.23,16.48-.34,14.67.7,14.65.73,56.43c-1,17.52-1,36.21-1.38,54.13,0,.92.6,2.65.58,3.74l-.32,19.56.66,10.73-.39,10.78.34,26.55c0,.57.72,2.47.59,3a17,17,0,0,0-.46,5.75c.51,7.09,1.19,15.34,0,21.17a3.89,3.89,0,0,0,.65,1.88,2.23,2.23,0,0,0,1.4,0,1.94,1.94,0,0,0,.79-1.44c.41-10.41.57-21.29.72-32.22q-2.31-61.89-.05-123.87l-.58-46.37L200.65,283l1-94.18.74-23.67c-.65-9.64.53-17.49,3.1-22.67l3.54-6,3.75-9.54a2.44,2.44,0,0,1,1.85-1.46l4.87-.13,3-.94c.7-.2,1.44.47,2.14.65.34,0,1.45-.75,1.82-.77l8.2-.22a4.92,4.92,0,0,1,1.75,1.19,7.1,7.1,0,0,1,1.08,1.78,21.35,21.35,0,0,1,.57,3.62l.43,34.7a108.6,108.6,0,0,1-.79,12.39c-.1.64.81,2.35,1.49,1.93a4.11,4.11,0,0,0,1.43-3.27c.6-15.56.33-32.22,1.11-47.09a11.94,11.94,0,0,1,.76-3,2.76,2.76,0,0,1,2-1.61l4.34-.15a8.58,8.58,0,0,1,3.31,5.94c.37,21.72-.26,42.14.34,64.25l.6,5.85-.45,5.89c-.78,31.21-1,63.08-1.42,94.76.67,17.62,1.4,35.21,1.77,53.31a11,11,0,0,0,.78,2.77c.34.55.7,1.74,1.29,1.19.27-.27,1.18-1.56,1.12-1.93-.31-2-.8-4-1.19-6l-.7-54.78c.52-19.83.8-40,1-60.1.1-7.61,0-15.27.54-22.31-.36-3.17-.57-6.39-.63-9.61l.74-22.66V142.51a117.52,117.52,0,0,1,.86-14.45,9.87,9.87,0,0,1,1.53-2.8c.31-.4,1.53-1.46,1.82-1.31l2.37,1.19a6.3,6.3,0,0,1,2.34,2.92,25.51,25.51,0,0,1,1.44,5.92c.31,15.94-.11,31.23,0,46.77l1.63,40.77.18,13.68c0,.57.53,2.48.52,2.66-.36,3.52-.82,6.71-1.19,9.64a4.84,4.84,0,0,0,.68,1.95,1.27,1.27,0,0,0,.86,0,2.15,2.15,0,0,0,.86-1.46l1-7.43-1.22-55.62.47-5.9-.6-5.85.67-30.38a93.89,93.89,0,0,1,1-11.78,17.85,17.85,0,0,1,1.18-3,9.63,9.63,0,0,1,1.42-2.48c2.51-.84,5-.47,6.09,1.34A79.13,79.13,0,0,1,281,139.09c.29,12.12.5,23.89,1.12,35.17a9.11,9.11,0,0,0,1.62,4,1.41,1.41,0,0,0,1,0c.47-.67,1.21-1.54,1.08-2.23-.31-1.46-.69-2.9-1.12-4.31l-.57-44.62a5.2,5.2,0,0,1,2.34-2.23h3.24a5,5,0,0,1,1.77,1.22,10.35,10.35,0,0,1,1.35,2.08A22,22,0,0,1,294,134c.47,7.44-.13,14.73-.1,22.06l.64,49.45c0,9.29-.7,17.92-.7,27.38a20.4,20.4,0,0,0,.57,3.62,6.26,6.26,0,0,0,1,1.79,1.3,1.3,0,0,0,1.06,0,2,2,0,0,0,.53-1.07,42.55,42.55,0,0,0-.65-5.1c.57-22.48.64-45.78.72-69.4l.78-21.54v-7.26c.27-3,.76-6.2,2.81-6.89a65.6,65.6,0,0,1,7.76,1.61,4.78,4.78,0,0,1,1.14,1.56l1.36,4.44.59,4.46.74,17.35.59,46.64-1.35,58.44.28,33.41L310,355.06l.15,12.57-.8,19.6.75,17.95c.67,3,1.2,6.12,1.63,9.24a2.33,2.33,0,0,0,.9,1.49,3.51,3.51,0,0,0,1.21,0l-.12-7.56a32.39,32.39,0,0,0-1.62-6.89l-.18-14,.75-23.5-.12-9.49c1.34-18.22,1.63-38.34,2.41-57.65l-.49-39.09.45-5-.56-3.77.47-3.92c.18-16.23,1-31.28,1-47.81l.46-4.95-.59-5-.32-32.17.34-14.52,1-7.59a6.38,6.38,0,0,1,1-1.86,5.4,5.4,0,0,1,1.74-1.29h2.77a4.78,4.78,0,0,1,1.77,1.22,9.91,9.91,0,0,1,1.63,4.24c.29,14.35.16,28.18,0,42.13L324.81,201c-.26,18.44,0,37.18.19,56.44l-.48,3.94.56,3.74-.45,5,.62,6.81.11,9.92a9.72,9.72,0,0,0,1.41,3.76,4.23,4.23,0,0,0,1.42,0c-1.81-25.3-.23-55-.44-83l.92-45.3c.18-4.07.18-9.2.25-14,0-5.7.27-11.4,1.46-15.16.29-.9,1.39-2.8,1.74-2.83l5.23-.12a27.88,27.88,0,0,1,5.76,1.53,6.93,6.93,0,0,1,1.77,1.14,7.32,7.32,0,0,1,1.07,1.79,20.4,20.4,0,0,1,.57,3.62l.2,15.09L348,170.91c.23,9.79.08,19.61-.44,29.37-.26,7.56-1.07,14.63-1.39,21.84-.39,8.5-.46,17-.83,25.18a16.12,16.12,0,0,0,.47,5c-.78,14.2-.65,29-1.19,42.92s-.92,28.26-.76,43.08a9.61,9.61,0,0,0,1.63,4.24,1.49,1.49,0,0,0,1,0,2.93,2.93,0,0,0,.5-1,7.82,7.82,0,0,0,0-1.53l-1.13-7.44.45-4.95-.1-7c1.33-32.87,2.47-66.1,2.39-100.95a186.92,186.92,0,0,0,2.31-24.79l.32-16.92c-.28-11.6-1.62-22.31-1.49-34.48l.45-5.87a12.93,12.93,0,0,1,.75-2.8c.26-.6,1.28-2.48,1.62-2.48h3.72c12.85,31.18,2.6,94.35,5,138.57l.88,25.38c0,.59.55,2.33.57,2.92s-.49,2.48-.49,2.95l.21,16.46-.92,9.91a27.79,27.79,0,0,0,0,3.65,7,7,0,0,0,1,2.7.79.79,0,0,0,.81,0,5.47,5.47,0,0,0,.77-2.88c0-6.42.73-12.39.89-18.39l-.36-26.81L364,277l.41-9.91c-.1-13.91-.36-27.61.28-40.53.4-8.57.37-18.49.3-27.68-.13-17.13.67-32,.54-49.2l.71-7a23,23,0,0,1,1-4.24c.21-.57,1.25-2.72,1.7-2.72h5.48c.79-.05,1.54.62,1.93,1.68.44,1.61.81,3.28,1.12,5,.32,18.86.08,37,.18,55.54l.53,42.76c0,6.89-.37,13.48-.24,20.67a25.06,25.06,0,0,0,.55,3.62,6.63,6.63,0,0,0,1.07,1.78,1.3,1.3,0,0,0,1.06,0,2.46,2.46,0,0,0,.54-1.07c0-2.28-.49-4.18-.57-6.34-.31-8.6.14-16.76.13-25.13l-.34-27.27-.59-5.7c.41-4.95.62-10.18.78-15.26.37-13.11.52-26.18.6-39.66l.47-4.48a16.53,16.53,0,0,1,.75-2.83c.26-.59,1.3-2.48,1.62-2.48l4.19-.12a4.62,4.62,0,0,1,1.76,1.19,10,10,0,0,1,1.62,4.24l.2,15.41c-.39,13.26-.9,26.87-1,40.55,0,10.63.67,20.74.72,31.13,0,15.89-.44,31.45-.86,47.09.27,6.52.71,12.79.76,19.6,0,.67-.49,2.48-.47,3s.55,2.33.57,2.92v6.17a2.59,2.59,0,0,1-1.46,2.16c-1.43,0-2.41,1.66-2.62,4.49l1.62,8.35c-.94,12.91-1.21,27.26-1.62,41l.26,19c-.1,3.76-.89,7.21-1,11.2.44,0,1.77.2,1.86,0,.49-1.46.93-3,1.32-4.54l.21-24.29c.41-11,.73-22.3,1.25-33.83.26-5.45,1.06-10.65,1.27-16.58a11.85,11.85,0,0,0,1.51-4.38l-.5-38.62c.21-14.25.91-28.62,1-43.07l-.68-14.65.74-60.53a108.86,108.86,0,0,1,.9-13.18c.57-1.12,1.26-2.06,1.91-3.1h4.14a32.77,32.77,0,0,1,6-3.49,2.94,2.94,0,0,1,1.32,0,4.89,4.89,0,0,1,1.88,1.29,10,10,0,0,1,.83,4.51c.39,25.47-.75,49.89-1,74.9l.16,12.59c-.71,21.31-1.52,43.17-1.78,65.15l.66,11.7-.24,22.66c.34,15.73,1.12,31.37,1.12,47.73l-.33,14.7.69,12.69a6.21,6.21,0,0,0,1,2.7,1,1,0,0,0,.81,0,1.93,1.93,0,0,0,.8-1.49c0-2.77-.52-5.18-.59-7.73l.15-30.73.46-4.74a308.72,308.72,0,0,1-1-40.25c-.31-19-.36-37.89.42-55.34,0-.45.29-1.54-.15-1.93,0-1.79.39-3.42.43-5,.19-7.16.35-14.28.55-21.24,0-4.34.23-8.7.65-13l-.31-5.7,2.13-75.1a44.15,44.15,0,0,1,3.89-13l3.25-2.73L426,125a5.71,5.71,0,0,1,3.38,1,4.48,4.48,0,0,1,1.9,1.91,32.1,32.1,0,0,1,2.71,6.34c.34,25.9-.78,49.82-1,74.36-.21,18-.4,35.64-.48,53.38l.17,19.53c-.6,21-1.36,42.28-1.75,63.5l.31,24L429,444.53c-.2,10.59-.13,21.29-.15,31.58l.83,23.45.31,24.78a7.87,7.87,0,0,0,.57,1.93c.32.77,1,1.54,1.54,1.12a4.18,4.18,0,0,0,1-1.74c-.23-9.51,0-19.82-.62-28.77-.68-8.53-.47-19.83-.63-29.59l.34-9.79-.21-19.83.94-9.92c.59-15.66.55-31.79,1.5-46.71L434.14,354l1.26-47.54,2.44-160.75.81-15.37.73-4.21a7.6,7.6,0,0,1,1.63-3.45l4.79-.94,11.51-.74,28.59-3.82a44.89,44.89,0,0,0,6.49-2.16,21.34,21.34,0,0,0,10.46-6.84,7.11,7.11,0,0,0,4.08-2.1l1.78-3a20.75,20.75,0,0,0,.8-3.62A9.19,9.19,0,0,0,508.32,98.74ZM464.77,88.28A126.21,126.21,0,0,0,453,93.54,33.64,33.64,0,0,1,448.46,96c-.26,0-.94,1.66-1.23,1.66-4.87,0-9.39-.79-14.13-1.21l-2.73-2.16c-.34-.22-1.1-1.86-1.43-2s-1.74.27-2.14,0a12.2,12.2,0,0,0-4.13-2.48c-.36,0-1.05-1.32-1.82-.57a8,8,0,0,0-.57,6.62,7.4,7.4,0,0,1-.71,1l-10.82.3-4.87-1.51L401.43,94l-3.85-.75c-1-.77-2.16-1.09-2.81-2.48a2.61,2.61,0,0,1-.29-1.66,2.38,2.38,0,0,1,.58-.79,126.73,126.73,0,0,1,18.14-2.11c5.41-.29,10.4-.94,15.51-1.43q14.63.51,28.65,1.68l5.43-.17c.35,0,1.49-1,1.77-.79a10.19,10.19,0,0,0,3.15.66A5.71,5.71,0,0,1,464.77,88.28Z"/>
            </g>
          </g>
        </g>
      </g>
    </g>
  </g>
</svg>
