<svg xmlns="http://www.w3.org/2000/svg" width="1116.84" height="147.89" viewBox="0 0 1116.84 147.89">
  <defs>
    <style>
      .cls-1 {
        fill: #492979;
      }
    </style>
  </defs>
  <title>aaa77777</title>
  <g id="Layer_2" data-name="Layer 2">
    <g id="Layer_1-2" data-name="Layer 1">
      <g id="aaa">
        <path class="cls-1" d="M123.75,106v39.88H0v-3.47a16.66,16.66,0,0,0,7.47-5.53,13.6,13.6,0,0,0,2.76-8.38V20.05a13.61,13.61,0,0,0-2.76-8.39A16.57,16.57,0,0,0,0,6.14V2.66H120.48V42.55H117a15,15,0,0,0-5.52-6.75,14.76,14.76,0,0,0-8.39-2.46H44V59.52H72.61A13.61,13.61,0,0,0,81,56.76a16.59,16.59,0,0,0,5.52-7.46H90V99.41H86.52A16.62,16.62,0,0,0,81,91.94a13.61,13.61,0,0,0-8.39-2.76H44v26h62.39a14.8,14.8,0,0,0,8.38-2.45,15,15,0,0,0,5.52-6.75Z"/>
        <path class="cls-1" d="M238.09,147.89A105.05,105.05,0,0,1,204,142.57a114.31,114.31,0,0,1-27.92-13.7,14.12,14.12,0,0,0-9.41-3.48,17.55,17.55,0,0,0-7.16,1.63l-2.66-2,7-8.8,18.62-25c.54-.55,1-.55,1.43,0a94.93,94.93,0,0,0,26.28,19.33,64.25,64.25,0,0,0,28.13,6.65q9.81,0,14.32-3.38t4.5-8.08a11.79,11.79,0,0,0-2.25-7.16q-2.25-3.06-10.23-6t-24.14-5q-24.13-3.08-38.25-12.79T168.14,43a37.51,37.51,0,0,1,7-22.4,45.06,45.06,0,0,1,19.23-15A68.89,68.89,0,0,1,221.94.2q24.54,0,44.18,11.05a14.65,14.65,0,0,0,9,3.07,17,17,0,0,0,7.57-2.05l2.86,2.05-6.75,9L263.25,45.41a1.12,1.12,0,0,1-1.43.2q-20.25-14.72-43.57-14.72-7.77,0-12.06,3.17t-4.3,7.46q0,5.94,8.39,9.82t26.38,6.14q25.36,3.27,40,13.5t14.63,33.14q0,14.31-7.57,24.13A46.18,46.18,0,0,1,264,143,68.56,68.56,0,0,1,238.09,147.89Z"/>
        <path class="cls-1" d="M442.85,2.66a.9.9,0,0,1,1,1V42.55h-3.48a14.77,14.77,0,0,0-13.91-9.21h-28v95.12a13.6,13.6,0,0,0,2.76,8.38,16.66,16.66,0,0,0,7.47,5.53v3.47H354.48v-3.47a16.66,16.66,0,0,0,7.47-5.53,13.6,13.6,0,0,0,2.76-8.38V33.34h-28a14.76,14.76,0,0,0-8.39,2.46,15,15,0,0,0-5.52,6.75H319.3V3.68a.9.9,0,0,1,1-1Z"/>
        <path class="cls-1" d="M482.94,147.89a16.76,16.76,0,0,1-16.77-16.77,16.37,16.37,0,0,1,4.91-12.07,16.12,16.12,0,0,1,11.86-4.91,16.77,16.77,0,0,1,17,17A16.17,16.17,0,0,1,495,143,16.42,16.42,0,0,1,482.94,147.89Z"/>
        <path class="cls-1" d="M633.9,142.37a16.69,16.69,0,0,0,7.46-5.53,13.6,13.6,0,0,0,2.76-8.38V37.64h-17a.91.91,0,0,1-1-1V34c0-.69.21-1.1.62-1.23L667.24,1a3.14,3.14,0,0,1,1.23-.41h8.38a.9.9,0,0,1,1,1V128.46a13.61,13.61,0,0,0,2.77,8.38,16.69,16.69,0,0,0,7.46,5.53v3.47H633.9Z"/>
        <path class="cls-1" d="M768.29,147.89q-23.73,0-39.48-18a48.91,48.91,0,0,1-7-9.41c-.27-.68-.13-1.16.41-1.43l21.07-12.89c.68-.27,1.16-.2,1.43.21a22.63,22.63,0,0,0,3.68,4.5,29.61,29.61,0,0,0,7.16,5.21q4.1,2.15,11,2.15a25.64,25.64,0,0,0,14.42-4.4,34.22,34.22,0,0,0,10.74-11.35,29.15,29.15,0,0,0,4.29-14.11,45.76,45.76,0,0,1-11.66,7.26Q777.09,99,766.65,99a43.4,43.4,0,0,1-39.27-23.73,53.46,53.46,0,0,1-5.94-25.36,51,51,0,0,1,5.83-23.73A46.73,46.73,0,0,1,744.76,7.77q11.67-7.15,28-7.16A51.19,51.19,0,0,1,801.42,9.2a59.93,59.93,0,0,1,20.76,23.94q7.68,15.33,7.67,34.57A106,106,0,0,1,822,108.1q-7.66,18.32-21.58,29.05A51.08,51.08,0,0,1,768.29,147.89ZM772.38,72a20.15,20.15,0,0,0,14.93-6.24,20.42,20.42,0,0,0,6.13-14.83,20.95,20.95,0,0,0-21.06-21.07A19.76,19.76,0,0,0,757.75,36a20.51,20.51,0,0,0-6,14.93,20.61,20.61,0,0,0,6,14.83A19.59,19.59,0,0,0,772.38,72Z"/>
        <path class="cls-1" d="M948.29,69.55a44.66,44.66,0,0,1,10.43,5.62,45.18,45.18,0,0,1,11.46,12q5.31,7.77,5.31,18.61a34.17,34.17,0,0,1-8.08,22.71A49.91,49.91,0,0,1,946.35,143a77.24,77.24,0,0,1-27.52,4.91,75.53,75.53,0,0,1-27.3-4.91,49.31,49.31,0,0,1-20.77-14.52,34.49,34.49,0,0,1-8-22.71,34.1,34.1,0,0,1,5-18.71A42.48,42.48,0,0,1,889,69.55q-3.08-1-7.88-5a35.63,35.63,0,0,1-8.48-11,34,34,0,0,1-3.69-16.16,30.53,30.53,0,0,1,7.26-20.55A44.07,44.07,0,0,1,894.9,4.19,69.19,69.19,0,0,1,918.83,0,70.92,70.92,0,0,1,943,4.19a44.65,44.65,0,0,1,19,12.69,30.27,30.27,0,0,1,7.37,20.55,32.19,32.19,0,0,1-3.89,16,36.56,36.56,0,0,1-8.9,10.94A33.46,33.46,0,0,1,948.29,69.55Zm-29-44.6a22.56,22.56,0,0,0-13.91,4.3q-5.73,4.29-5.72,10.23,0,6.14,5.72,10.43a22.56,22.56,0,0,0,13.91,4.3,22.1,22.1,0,0,0,13.81-4.3q5.63-4.29,5.62-10.43,0-5.94-5.62-10.23A22.1,22.1,0,0,0,919.24,25Zm0,97.78a22,22,0,0,0,14.93-5.32,16.59,16.59,0,0,0,0-25.77,22,22,0,0,0-14.93-5.32,22.38,22.38,0,0,0-15,5.32,16.42,16.42,0,0,0,0,25.77A22.38,22.38,0,0,0,919.24,122.73Z"/>
        <path class="cls-1" d="M1055.27,147.89q-23.73,0-39.48-18a48.91,48.91,0,0,1-7-9.41c-.27-.68-.13-1.16.41-1.43l21.07-12.89c.68-.27,1.16-.2,1.43.21a22.75,22.75,0,0,0,3.69,4.5,29.23,29.23,0,0,0,7.16,5.21q4.08,2.15,11,2.15a25.64,25.64,0,0,0,14.42-4.4,34.22,34.22,0,0,0,10.74-11.35,29.28,29.28,0,0,0,4.3-14.11,45.94,45.94,0,0,1-11.66,7.26q-7.37,3.38-17.8,3.37a43.4,43.4,0,0,1-39.27-23.73,53.46,53.46,0,0,1-5.93-25.36,50.84,50.84,0,0,1,5.83-23.73,46.63,46.63,0,0,1,17.48-18.41q11.67-7.15,28-7.16A51.17,51.17,0,0,1,1088.4,9.2a60,60,0,0,1,20.77,23.94q7.66,15.33,7.67,34.57A106,106,0,0,1,1109,108.1q-7.67,18.32-21.58,29.05A51.08,51.08,0,0,1,1055.27,147.89ZM1059.36,72a20.15,20.15,0,0,0,14.93-6.24,20.43,20.43,0,0,0,6.14-14.83,21,21,0,0,0-21.07-21.07A19.78,19.78,0,0,0,1044.73,36a20.51,20.51,0,0,0-6,14.93,20.61,20.61,0,0,0,6,14.83A19.61,19.61,0,0,0,1059.36,72Z"/>
      </g>
    </g>
  </g>
</svg>
