<svg xmlns="http://www.w3.org/2000/svg" width="2200.4" height="272.41" viewBox="0 0 2200.4 272.41">
  <defs>
    <style>
      .cls-1 {
        fill: #c8489a;
      }
    </style>
  </defs>
  <title>bg77777</title>
  <g id="Layer_2" data-name="Layer 2">
    <g id="Layer_1-2" data-name="Layer 1">
      <g id="bg">
        <path class="cls-1" d="M31.63.55v5.6H19v35H12.63v-35H0V.55Z"/>
        <path class="cls-1" d="M62.77,17.68V.55H69.2V41.19H62.77V23.4H44.6V41.19H38.17V.55H44.6V17.68Z"/>
        <path class="cls-1" d="M84,23.29v12.3h20.38v5.6H77.55V.55h26.52v5.6H84V17.74h17.58v5.55Z"/>
        <path class="cls-1" d="M144.17,23.67,155.37.55h8.4V41.19h-6.31v-31L147.19,31.09h-6l-10.27-21V41.19h-6.32V.55h8.52Z"/>
        <path class="cls-1" d="M178.55,23.29v12.3h20.37v5.6h-26.8V.55h26.53v5.6h-20.1V17.74h17.57v5.55Z"/>
        <path class="cls-1" d="M224.46,41.74A18.37,18.37,0,0,1,207.16,31a24.13,24.13,0,0,1,0-20.35,18.67,18.67,0,0,1,6.67-7.74A18.76,18.76,0,0,1,224.46,0a19,19,0,0,1,9.17,2,15.65,15.65,0,0,1,5.8,5.25,18.08,18.08,0,0,1,2.66,7h-6.43a10.54,10.54,0,0,0-3.48-6c-1.85-1.63-4.41-2.44-7.66-2.44A11.89,11.89,0,0,0,217.43,8,13,13,0,0,0,213,13.54a18.26,18.26,0,0,0-1.48,7.33A18.26,18.26,0,0,0,213,28.2a13,13,0,0,0,4.45,5.55,11.89,11.89,0,0,0,7.09,2.11c3.25,0,5.81-.82,7.66-2.47a10.65,10.65,0,0,0,3.48-6h6.43a18.4,18.4,0,0,1-2.66,7,15.53,15.53,0,0,1-5.8,5.27A19,19,0,0,1,224.46,41.74Z"/>
        <path class="cls-1" d="M273.61,17.68V.55H280V41.19h-6.43V23.4H255.44V41.19H249V.55h6.43V17.68Z"/>
        <path class="cls-1" d="M293.17,41.19h-6.76L300.58.55h8.24L323,41.19h-6.75l-3.13-9.12H296.3ZM304.75,7.41l-6.53,19h13Z"/>
        <path class="cls-1" d="M361.6,23.67,372.8.55h8.4V41.19h-6.31v-31L364.62,31.09h-6l-10.27-21V41.19h-6.31V.55h8.51Z"/>
        <path class="cls-1" d="M394.33,41.19h-6.75L401.74.55H410l14.23,40.64h-6.76l-3.13-9.12H397.46ZM405.92,7.41l-6.54,19h13Z"/>
        <path class="cls-1" d="M453.15,41.19,443.92,24.6H437V41.19h-6.42V.55h15.1a15.13,15.13,0,0,1,7.25,1.62,11.27,11.27,0,0,1,4.59,4.37,11.89,11.89,0,0,1,1.56,6,11.83,11.83,0,0,1-2.22,7.06,11.52,11.52,0,0,1-6.29,4.31l9.77,17.3ZM437,6.15V19.22h8.57a6.79,6.79,0,0,0,5.14-1.92,6.46,6.46,0,0,0,1.84-4.61,6.43,6.43,0,0,0-1.84-4.64,6.81,6.81,0,0,0-5.14-1.9Z"/>
        <path class="cls-1" d="M491.27,20a12.48,12.48,0,0,1,5.16,3.19,8.8,8.8,0,0,1,2.3,6.53,11.54,11.54,0,0,1-1.42,5.63,10.63,10.63,0,0,1-4.48,4.23,16.21,16.21,0,0,1-7.66,1.62H468.09V.55h16.69a14.93,14.93,0,0,1,6.6,1.37,10.42,10.42,0,0,1,4.28,3.68,9.24,9.24,0,0,1,1.48,5.11,8.88,8.88,0,0,1-1.87,6,9.63,9.63,0,0,1-4,2.94ZM474.51,6V17.79h9.67a6.76,6.76,0,0,0,5-1.7,5.72,5.72,0,0,0,1.67-4.17,5.76,5.76,0,0,0-1.67-4.18,6.8,6.8,0,0,0-5-1.7ZM484.67,35.7q3.85,0,5.74-1.84a6.13,6.13,0,0,0,1.9-4.59,6.09,6.09,0,0,0-1.9-4.58q-1.89-1.85-5.74-1.84H474.51V35.7Z"/>
        <path class="cls-1" d="M512.19.55v35h20.54v5.6h-27V.55Z"/>
        <path class="cls-1" d="M546.79,23.29v12.3h20.38v5.6H540.36V.55h26.53v5.6h-20.1V17.74h17.57v5.55Z"/>
        <path class="cls-1" d="M622.91,32.13l8-31.58h6.54l-10.6,40.64h-7.69l-7.8-29.49-7.8,29.49h-7.69L585.23.55h6.54l8,31.69L608.14.55h6.42Z"/>
        <path class="cls-1" d="M661,41.74a19.24,19.24,0,0,1-10.79-3A18.87,18.87,0,0,1,643.34,31,23.21,23.21,0,0,1,641,20.81a22.89,22.89,0,0,1,2.31-10.1A18.91,18.91,0,0,1,650.18,3a21.19,21.19,0,0,1,21.64,0,18.82,18.82,0,0,1,6.83,7.74A22.89,22.89,0,0,1,681,20.81,23.21,23.21,0,0,1,678.65,31a18.77,18.77,0,0,1-6.83,7.77A19.35,19.35,0,0,1,661,41.74Zm0-5.88a12.34,12.34,0,0,0,7.22-2.11,13.45,13.45,0,0,0,4.62-5.55,17.65,17.65,0,0,0,1.56-7.39,17.54,17.54,0,0,0-1.56-7.33A13.24,13.24,0,0,0,668.19,8,12.47,12.47,0,0,0,661,5.88,12.33,12.33,0,0,0,653.78,8a13.18,13.18,0,0,0-4.59,5.52,18,18,0,0,0,0,14.72,13.38,13.38,0,0,0,4.59,5.55A12.2,12.2,0,0,0,661,35.86Z"/>
        <path class="cls-1" d="M707.43,23.67,718.64.55H727V41.19h-6.32v-31L710.45,31.09h-6l-10.27-21V41.19h-6.32V.55h8.51Z"/>
        <path class="cls-1" d="M740.17,41.19h-6.76L747.58.55h8.24L770,41.19h-6.75l-3.13-9.12H743.3ZM751.75,7.41l-6.53,19h13Z"/>
        <path class="cls-1" d="M802.17,29.71V.55h6.43V41.19h-5.88l-19.94-29v29h-6.37V.55h5.82Z"/>
        <path class="cls-1" d="M848.19,19.83H866v2.91a21.29,21.29,0,0,1-2.36,10.38,15.79,15.79,0,0,1-6.43,6.45A19.24,19.24,0,0,1,848,41.74,19.45,19.45,0,0,1,837.1,38.8a18.36,18.36,0,0,1-6.73-7.71,23.87,23.87,0,0,1-2.22-10.17,23.65,23.65,0,0,1,2.25-10.21A18.51,18.51,0,0,1,837.16,3a19.49,19.49,0,0,1,11-3,18.91,18.91,0,0,1,9,2A15,15,0,0,1,862.8,7a18.08,18.08,0,0,1,2.69,6.76h-6.42a10.42,10.42,0,0,0-3.49-5.69,10.93,10.93,0,0,0-7.39-2.33,12.48,12.48,0,0,0-7.38,2.14,13.42,13.42,0,0,0-4.59,5.57,17.84,17.84,0,0,0-1.54,7.33,18.37,18.37,0,0,0,1.54,7.45,13.2,13.2,0,0,0,4.59,5.6A12.44,12.44,0,0,0,848.08,36a11.59,11.59,0,0,0,8.33-3,11.51,11.51,0,0,0,3.37-8H848.19Z"/>
        <path class="cls-1" d="M891.2,41.74a19.22,19.22,0,0,1-10.79-3A18.8,18.8,0,0,1,873.57,31a23.21,23.21,0,0,1-2.31-10.19,22.89,22.89,0,0,1,2.31-10.1A18.84,18.84,0,0,1,880.41,3,21.18,21.18,0,0,1,902,3a18.91,18.91,0,0,1,6.84,7.74,22.89,22.89,0,0,1,2.31,10.1A23.21,23.21,0,0,1,908.88,31,18.87,18.87,0,0,1,902,38.77,19.32,19.32,0,0,1,891.2,41.74Zm0-5.88a12.34,12.34,0,0,0,7.22-2.11A13.35,13.35,0,0,0,903,28.2a17.5,17.5,0,0,0,1.57-7.39A17.4,17.4,0,0,0,903,13.48,13.15,13.15,0,0,0,898.42,8,13.54,13.54,0,0,0,884,8a13.23,13.23,0,0,0-4.58,5.52,17.4,17.4,0,0,0-1.57,7.33,17.5,17.5,0,0,0,1.57,7.39A13.44,13.44,0,0,0,884,33.75,12.24,12.24,0,0,0,891.2,35.86Z"/>
        <path class="cls-1" d="M932,.55a19.16,19.16,0,0,1,10.69,2.88A18.48,18.48,0,0,1,949.36,11a22.39,22.39,0,0,1,2.25,9.91,22.42,22.42,0,0,1-2.25,9.91,18.54,18.54,0,0,1-6.67,7.53A19.16,19.16,0,0,1,932,41.19H918.11V.55Zm-.27,35a12.67,12.67,0,0,0,7.33-2.08A13.18,13.18,0,0,0,943.65,28a17,17,0,0,0,1.53-7.14,17.09,17.09,0,0,0-1.53-7.19,13.11,13.11,0,0,0-4.59-5.44,12.68,12.68,0,0,0-7.33-2.09h-7.2V35.53Z"/>
        <path class="cls-1" d="M985.28,41.74A17.1,17.1,0,0,1,977,39.93a13.25,13.25,0,0,1-5.14-4.73,15.74,15.74,0,0,1-2.22-6.31h6.53A8.77,8.77,0,0,0,979,34a11,11,0,0,0,12.49.33,5.68,5.68,0,0,0,2.2-4.64A4.64,4.64,0,0,0,992.11,26a11.2,11.2,0,0,0-4.8-2.14l-5.38-1.26a18.84,18.84,0,0,1-8.21-3.74,9,9,0,0,1-3.05-7.25,10.78,10.78,0,0,1,1.76-6.15,11.26,11.26,0,0,1,4.94-4.06A17.57,17.57,0,0,1,984.62,0q6.42,0,9.91,3.38a13.91,13.91,0,0,1,4.2,8.21h-6.26a7,7,0,0,0-2.39-4.29,10,10,0,0,0-11.17-.08,5.08,5.08,0,0,0-2,4q0,3.86,5.88,5.17l5.76,1.37a18.06,18.06,0,0,1,8.35,4,9.74,9.74,0,0,1,3.13,7.61,11.88,11.88,0,0,1-1.73,6.29,12,12,0,0,1-5.05,4.47A17.82,17.82,0,0,1,985.28,41.74Z"/>
        <path class="cls-1" d="M1035.31.55v5.6h-12.63v35h-6.37v-35h-12.64V.55Z"/>
        <path class="cls-1" d="M1041.9,41.19h-6.76L1049.31.55h8.24l14.23,40.64H1065l-3.13-9.12H1045Zm11.59-33.78-6.54,19h13Z"/>
        <path class="cls-1" d="M1102.81.55v5.6h-12.64v35h-6.37v-35h-12.63V.55Z"/>
        <path class="cls-1" d="M1125.16,41.74a18,18,0,0,1-8.29-1.81,13.09,13.09,0,0,1-5.55-5.28,16.5,16.5,0,0,1-2-8.34V.55h6.43V26.31a9.62,9.62,0,0,0,2.39,6.78q2.38,2.61,7,2.61c3.07,0,5.42-.87,7-2.61a9.59,9.59,0,0,0,2.42-6.78V.55H1141V26.31a16.5,16.5,0,0,1-2,8.34,13,13,0,0,1-5.57,5.28A18.23,18.23,0,0,1,1125.16,41.74Z"/>
        <path class="cls-1" d="M1155.81,23.29v12.3h20.37v5.6h-26.8V.55h26.53v5.6h-20.1V17.74h17.57v5.55Z"/>
        <path class="cls-1" d="M1210.56,41.74a17.13,17.13,0,0,1-8.24-1.81,13.29,13.29,0,0,1-5.13-4.73,15.91,15.91,0,0,1-2.23-6.31h6.54a8.75,8.75,0,0,0,2.77,5.13,11,11,0,0,0,12.5.33,5.7,5.7,0,0,0,2.19-4.64A4.66,4.66,0,0,0,1217.4,26a11.25,11.25,0,0,0-4.81-2.14l-5.38-1.26a18.9,18.9,0,0,1-8.21-3.74,9,9,0,0,1-3-7.25,10.85,10.85,0,0,1,1.76-6.15,11.31,11.31,0,0,1,4.94-4.06A17.6,17.6,0,0,1,1209.9,0q6.43,0,9.92,3.38a14,14,0,0,1,4.2,8.21h-6.26a7,7,0,0,0-2.39-4.29,8.29,8.29,0,0,0-5.63-1.75,8.38,8.38,0,0,0-5.55,1.67,5.08,5.08,0,0,0-2,4q0,3.86,5.88,5.17l5.77,1.37a18,18,0,0,1,8.34,4,9.74,9.74,0,0,1,3.13,7.61,11.79,11.79,0,0,1-1.73,6.29,12,12,0,0,1-5,4.47A17.79,17.79,0,0,1,1210.56,41.74Z"/>
        <path class="cls-1" d="M1260.59.55v5.6H1248v35h-6.37v-35H1229V.55Z"/>
        <path class="cls-1" d="M1267.18,41.19h-6.75L1274.6.55h8.24l14.22,40.64h-6.75l-3.13-9.12h-16.87Zm11.59-33.78-6.53,19h13Z"/>
        <path class="cls-1" d="M1329.19,29.71V.55h6.43V41.19h-5.88l-19.94-29v29h-6.37V.55h5.82Z"/>
        <path class="cls-1" d="M1357.86.55a19.15,19.15,0,0,1,10.68,2.88,18.41,18.41,0,0,1,6.67,7.53,22.39,22.39,0,0,1,2.25,9.91,22.42,22.42,0,0,1-2.25,9.91,18.47,18.47,0,0,1-6.67,7.53,19.15,19.15,0,0,1-10.68,2.88H1344V.55Zm-.28,35a12.7,12.7,0,0,0,7.34-2.08A13.08,13.08,0,0,0,1369.5,28a16.82,16.82,0,0,0,1.54-7.14,17,17,0,0,0-1.54-7.19,13,13,0,0,0-4.58-5.44,12.71,12.71,0,0,0-7.34-2.09h-7.19V35.53Z"/>
        <path class="cls-1" d="M1398.5,41.74a17.1,17.1,0,0,1-8.24-1.81,13.29,13.29,0,0,1-5.13-4.73,15.76,15.76,0,0,1-2.23-6.31h6.54a8.75,8.75,0,0,0,2.77,5.13,11,11,0,0,0,12.5.33,5.7,5.7,0,0,0,2.19-4.64,4.66,4.66,0,0,0-1.56-3.68,11.3,11.3,0,0,0-4.81-2.14l-5.38-1.26a18.9,18.9,0,0,1-8.21-3.74,9,9,0,0,1-3-7.25,10.85,10.85,0,0,1,1.76-6.15,11.31,11.31,0,0,1,4.94-4.06A17.57,17.57,0,0,1,1397.84,0q6.42,0,9.91,3.38a13.91,13.91,0,0,1,4.2,8.21h-6.26a6.92,6.92,0,0,0-2.39-4.29,8.24,8.24,0,0,0-5.62-1.75,8.38,8.38,0,0,0-5.55,1.67,5.08,5.08,0,0,0-2,4q0,3.86,5.88,5.17l5.76,1.37a18,18,0,0,1,8.35,4,9.74,9.74,0,0,1,3.13,7.61,11.79,11.79,0,0,1-1.73,6.29,12,12,0,0,1-5,4.47A17.79,17.79,0,0,1,1398.5,41.74Z"/>
        <path class="cls-1" d="M1437.22,41.19h-6.76L1444.63.55h8.24l14.23,40.64h-6.76l-3.13-9.12h-16.86Zm11.59-33.78-6.54,19h13Z"/>
        <path class="cls-1" d="M1486.43,41.74a17.1,17.1,0,0,1-8.24-1.81,13.32,13.32,0,0,1-5.14-4.73,15.74,15.74,0,0,1-2.22-6.31h6.54a8.75,8.75,0,0,0,2.77,5.13,11,11,0,0,0,12.49.33,5.68,5.68,0,0,0,2.2-4.64,4.64,4.64,0,0,0-1.57-3.68,11.2,11.2,0,0,0-4.8-2.14l-5.38-1.26a18.9,18.9,0,0,1-8.21-3.74,9,9,0,0,1-3-7.25,10.78,10.78,0,0,1,1.76-6.15,11.31,11.31,0,0,1,4.94-4.06A17.57,17.57,0,0,1,1485.77,0q6.42,0,9.91,3.38a13.91,13.91,0,0,1,4.2,8.21h-6.26a6.92,6.92,0,0,0-2.39-4.29,10,10,0,0,0-11.17-.08,5.08,5.08,0,0,0-2,4q0,3.86,5.88,5.17l5.76,1.37a18.06,18.06,0,0,1,8.35,4,9.74,9.74,0,0,1,3.13,7.61,11.88,11.88,0,0,1-1.73,6.29,12,12,0,0,1-5,4.47A17.82,17.82,0,0,1,1486.43,41.74Z"/>
        <path class="cls-1" d="M1525.15,41.19h-6.76L1532.56.55h8.24L1555,41.19h-6.75l-3.13-9.12h-16.86Zm11.58-33.78-6.53,19h13Z"/>
        <path class="cls-1" d="M1601.38.55v5.6h-20.93V18.62h18.4v5.55h-18.4v17H1574V.55Z"/>
        <path class="cls-1" d="M1624.83,41.74a18.09,18.09,0,0,1-8.3-1.81,13.07,13.07,0,0,1-5.54-5.28,16.5,16.5,0,0,1-2-8.34V.55h6.43V26.31a9.62,9.62,0,0,0,2.39,6.78q2.39,2.61,7,2.61c3.07,0,5.42-.87,7-2.61a9.58,9.58,0,0,0,2.41-6.78V.55h6.43V26.31a16.5,16.5,0,0,1-2,8.34,13,13,0,0,1-5.57,5.28A18.23,18.23,0,0,1,1624.83,41.74Z"/>
        <path class="cls-1" d="M1663.16,41.74a17.13,17.13,0,0,1-8.24-1.81,13.29,13.29,0,0,1-5.13-4.73,15.91,15.91,0,0,1-2.23-6.31h6.54a8.75,8.75,0,0,0,2.77,5.13,11,11,0,0,0,12.5.33,5.7,5.7,0,0,0,2.19-4.64A4.66,4.66,0,0,0,1670,26a11.25,11.25,0,0,0-4.81-2.14l-5.38-1.26a18.9,18.9,0,0,1-8.21-3.74,9,9,0,0,1-3-7.25,10.85,10.85,0,0,1,1.76-6.15,11.31,11.31,0,0,1,4.94-4.06A17.6,17.6,0,0,1,1662.5,0q6.43,0,9.92,3.38a14,14,0,0,1,4.2,8.21h-6.26A7,7,0,0,0,1668,7.3a8.29,8.29,0,0,0-5.63-1.75,8.38,8.38,0,0,0-5.55,1.67,5.08,5.08,0,0,0-2,4q0,3.86,5.88,5.17l5.77,1.37a18.06,18.06,0,0,1,8.35,4,9.77,9.77,0,0,1,3.13,7.61,11.88,11.88,0,0,1-1.73,6.29,12,12,0,0,1-5.06,4.47A17.79,17.79,0,0,1,1663.16,41.74Z"/>
        <path class="cls-1" d="M1690.9,41.19h-6.43V.55h6.43Z"/>
        <path class="cls-1" d="M1717.75,41.74a19.24,19.24,0,0,1-10.79-3,18.87,18.87,0,0,1-6.84-7.77,23.34,23.34,0,0,1-2.3-10.19,23,23,0,0,1,2.3-10.1A18.91,18.91,0,0,1,1707,3a21.19,21.19,0,0,1,21.64,0,18.91,18.91,0,0,1,6.84,7.74,22.88,22.88,0,0,1,2.3,10.1,23.2,23.2,0,0,1-2.3,10.19,18.87,18.87,0,0,1-6.84,7.77A19.35,19.35,0,0,1,1717.75,41.74Zm0-5.88a12.37,12.37,0,0,0,7.23-2.11,13.35,13.35,0,0,0,4.61-5.55,17.65,17.65,0,0,0,1.56-7.39,17.54,17.54,0,0,0-1.56-7.33A13.15,13.15,0,0,0,1725,8a12.5,12.5,0,0,0-7.23-2.08A12.33,12.33,0,0,0,1710.56,8a13.25,13.25,0,0,0-4.59,5.52,17.54,17.54,0,0,0-1.56,7.33A17.65,17.65,0,0,0,1706,28.2a13.46,13.46,0,0,0,4.59,5.55A12.2,12.2,0,0,0,1717.75,35.86Z"/>
        <path class="cls-1" d="M1770.42,29.71V.55h6.43V41.19H1771l-19.93-29v29h-6.38V.55h5.83Z"/>
        <path class="cls-1" d="M1816.34,41.74a19.25,19.25,0,0,1-10.8-3,18.77,18.77,0,0,1-6.83-7.77,23.21,23.21,0,0,1-2.31-10.19,22.89,22.89,0,0,1,2.31-10.1A18.82,18.82,0,0,1,1805.54,3a21.19,21.19,0,0,1,21.64,0,18.91,18.91,0,0,1,6.84,7.74,22.89,22.89,0,0,1,2.31,10.1A23.21,23.21,0,0,1,1834,31a18.87,18.87,0,0,1-6.84,7.77A19.32,19.32,0,0,1,1816.34,41.74Zm0-5.88a12.34,12.34,0,0,0,7.22-2.11,13.35,13.35,0,0,0,4.61-5.55,18,18,0,0,0,0-14.72A13.15,13.15,0,0,0,1823.56,8a12.47,12.47,0,0,0-7.22-2.08,12.34,12.34,0,0,0-7.2,2.08,13.23,13.23,0,0,0-4.58,5.52,17.4,17.4,0,0,0-1.57,7.33,17.5,17.5,0,0,0,1.57,7.39,13.44,13.44,0,0,0,4.58,5.55A12.21,12.21,0,0,0,1816.34,35.86Z"/>
        <path class="cls-1" d="M1870.6.55v5.6h-20.93V18.62h18.4v5.55h-18.4v17h-6.42V.55Z"/>
        <path class="cls-1" d="M1895.64,41.19h-6.75L1903.06.55h8.23l14.23,40.64h-6.76l-3.13-9.12h-16.86Zm11.59-33.78-6.54,19h13Z"/>
        <path class="cls-1" d="M1957.65,29.71V.55h6.42V41.19h-5.87l-19.94-29v29h-6.37V.55h5.82Z"/>
        <path class="cls-1" d="M1990.54,41.74a18.59,18.59,0,0,1-10.62-3,18.82,18.82,0,0,1-6.68-7.74,24.13,24.13,0,0,1,0-20.35A18.31,18.31,0,0,1,1990.54,0a19.05,19.05,0,0,1,9.18,2,15.54,15.54,0,0,1,5.79,5.25,18.08,18.08,0,0,1,2.66,7h-6.42a10.61,10.61,0,0,0-3.49-6q-2.77-2.45-7.66-2.44A11.89,11.89,0,0,0,1983.51,8a13,13,0,0,0-4.44,5.55,18.77,18.77,0,0,0,0,14.66,13,13,0,0,0,4.44,5.55,11.89,11.89,0,0,0,7.09,2.11q4.89,0,7.66-2.47a10.72,10.72,0,0,0,3.49-6h6.42a18.4,18.4,0,0,1-2.66,7,15.43,15.43,0,0,1-5.79,5.27A19.05,19.05,0,0,1,1990.54,41.74Z"/>
        <path class="cls-1" d="M2021.52,41.19h-6.43V.55h6.43Z"/>
        <path class="cls-1" d="M2036.29,23.29v12.3h20.38v5.6h-26.8V.55h26.52v5.6h-20.1V17.74h17.58v5.55Z"/>
        <path class="cls-1" d="M2090.06,29.71V.55h6.43V41.19h-5.88l-19.94-29v29h-6.37V.55h5.82Z"/>
        <path class="cls-1" d="M2134.66.55v5.6H2122v35h-6.37v-35H2103V.55Z"/>
        <path class="cls-1" d="M15.71,77.44a19.15,19.15,0,0,1,10.68,2.88,18.41,18.41,0,0,1,6.67,7.53,22.95,22.95,0,0,1,0,19.82,18.47,18.47,0,0,1-6.67,7.53,19.15,19.15,0,0,1-10.68,2.88H1.81V77.44Zm-.28,35a12.65,12.65,0,0,0,7.33-2.08,13.09,13.09,0,0,0,4.59-5.44,16.85,16.85,0,0,0,1.54-7.14,17,17,0,0,0-1.54-7.2,13,13,0,0,0-4.59-5.43A12.65,12.65,0,0,0,15.43,83H8.24v29.38Z"/>
        <path class="cls-1" d="M48.66,118.08H42.23V77.44h6.43Z"/>
        <path class="cls-1" d="M72.61,111.27,84.14,77.44h6.75L76.67,118.08H68.43L54.26,77.44H61Z"/>
        <path class="cls-1" d="M102.92,118.08H96.5V77.44h6.42Z"/>
        <path class="cls-1" d="M137,106.6V77.44h6.42v40.64h-5.87l-19.94-29v29h-6.37V77.44h5.82Z"/>
        <path class="cls-1" d="M158.23,118.08H151.8V77.44h6.43Z"/>
        <path class="cls-1" d="M196.4,77.44V83H183.76v35h-6.37V83H164.76v-5.6Z"/>
        <path class="cls-1" d="M218,97.32l10.38-19.88h7L221.11,103.8v14.28h-6.37V103.8L200.52,77.44h7Z"/>
        <path class="cls-1" d="M258.29,118.08h-6.75l14.17-40.64h8.23l14.23,40.64h-6.76L278.28,109H261.42ZM269.88,84.3l-6.54,19h13Z"/>
        <path class="cls-1" d="M320.3,106.6V77.44h6.42v40.64h-5.87l-19.94-29v29h-6.37V77.44h5.82Z"/>
        <path class="cls-1" d="M349,77.44a19.15,19.15,0,0,1,10.68,2.88,18.41,18.41,0,0,1,6.67,7.53,22.95,22.95,0,0,1,0,19.82,18.47,18.47,0,0,1-6.67,7.53A19.15,19.15,0,0,1,349,118.08h-13.9V77.44Zm-.28,35a12.65,12.65,0,0,0,7.33-2.08,13.16,13.16,0,0,0,4.59-5.44,17,17,0,0,0,1.54-7.14,17.18,17.18,0,0,0-1.54-7.2A13.07,13.07,0,0,0,356,85.13,12.65,12.65,0,0,0,348.69,83H341.5v29.38Z"/>
        <path class="cls-1" d="M415.47,77.44V83H394.55V95.51H413v5.54h-18.4v17h-6.43V77.44Z"/>
        <path class="cls-1" d="M438.93,118.63a18.22,18.22,0,0,1-8.3-1.81,13,13,0,0,1-5.54-5.28,16.52,16.52,0,0,1-2-8.34V77.44h6.42V103.2a9.66,9.66,0,0,0,2.39,6.78c1.6,1.74,3.93,2.61,7,2.61s5.41-.87,7-2.61a9.58,9.58,0,0,0,2.41-6.78V77.44h6.43V103.2a16.52,16.52,0,0,1-2,8.34,13.08,13.08,0,0,1-5.57,5.28A18.39,18.39,0,0,1,438.93,118.63Z"/>
        <path class="cls-1" d="M493,77.44V83H480.34v35H474V83H461.33v-5.6Z"/>
        <path class="cls-1" d="M515.32,118.63a18.17,18.17,0,0,1-8.29-1.81,13.09,13.09,0,0,1-5.55-5.28,16.52,16.52,0,0,1-2-8.34V77.44h6.43V103.2a9.66,9.66,0,0,0,2.39,6.78q2.39,2.61,7,2.61t7-2.61a9.59,9.59,0,0,0,2.42-6.78V77.44h6.42V103.2a16.63,16.63,0,0,1-2,8.34,13.05,13.05,0,0,1-5.58,5.28A18.36,18.36,0,0,1,515.32,118.63Z"/>
        <path class="cls-1" d="M562.11,118.08l-9.22-16.59H546v16.59h-6.43V77.44h15.1a15.13,15.13,0,0,1,7.25,1.62,11.18,11.18,0,0,1,4.59,4.36,12,12,0,0,1,1.56,6,11.83,11.83,0,0,1-2.22,7.06,11.49,11.49,0,0,1-6.29,4.31l9.78,17.3ZM546,83V96.11h8.56a6.79,6.79,0,0,0,5.14-1.92,6.75,6.75,0,0,0,0-9.26A6.85,6.85,0,0,0,554.53,83Z"/>
        <path class="cls-1" d="M583.48,118.08h-6.43V77.44h6.43Z"/>
        <path class="cls-1" d="M605.94,118.63a17.22,17.22,0,0,1-8.24-1.81,13.29,13.29,0,0,1-5.13-4.73,15.76,15.76,0,0,1-2.23-6.31h6.54a8.75,8.75,0,0,0,2.77,5.13,11,11,0,0,0,12.5.33,5.71,5.71,0,0,0,2.19-4.64,4.66,4.66,0,0,0-1.56-3.68,11.3,11.3,0,0,0-4.81-2.14l-5.38-1.26a18.9,18.9,0,0,1-8.21-3.74,9,9,0,0,1-3-7.25,10.85,10.85,0,0,1,1.76-6.15A11.31,11.31,0,0,1,598,78.32a17.41,17.41,0,0,1,7.25-1.43q6.42,0,9.91,3.38a14,14,0,0,1,4.21,8.21h-6.27a6.93,6.93,0,0,0-2.38-4.29,10,10,0,0,0-11.18-.08,5.06,5.06,0,0,0-2,4q0,3.85,5.88,5.17l5.76,1.37a17.91,17.91,0,0,1,8.35,4,9.74,9.74,0,0,1,3.13,7.61A11.73,11.73,0,0,1,619,112.5a11.91,11.91,0,0,1-5.05,4.48A17.79,17.79,0,0,1,605.94,118.63Z"/>
        <path class="cls-1" d="M656,77.44V83H643.34v35H637V83H624.34v-5.6Z"/>
        <path class="cls-1" d="M668.93,118.08h-6.42V77.44h6.42Z"/>
        <path class="cls-1" d="M695.41,118.63a18.37,18.37,0,0,1-17.3-10.71,24,24,0,0,1,0-20.35,18.28,18.28,0,0,1,17.3-10.68,19,19,0,0,1,9.17,2,15.46,15.46,0,0,1,5.79,5.25,18.08,18.08,0,0,1,2.66,7h-6.42a10.57,10.57,0,0,0-3.49-6q-2.77-2.44-7.66-2.44a11.84,11.84,0,0,0-7.08,2.11,13,13,0,0,0-4.45,5.55,18.77,18.77,0,0,0,0,14.66,13,13,0,0,0,4.45,5.55,11.84,11.84,0,0,0,7.08,2.11q4.89,0,7.66-2.47a10.72,10.72,0,0,0,3.49-6H713a18.33,18.33,0,0,1-2.66,7,15.45,15.45,0,0,1-5.79,5.28A19,19,0,0,1,695.41,118.63Z"/>
        <path class="cls-1" d="M762.41,77.44V83H749.78v35h-6.37V83H730.77v-5.6Z"/>
        <path class="cls-1" d="M775.37,100.18v12.3h20.38v5.6H768.94V77.44h26.53V83h-20.1V94.63h17.57v5.55Z"/>
        <path class="cls-1" d="M821.28,118.63a18.59,18.59,0,0,1-10.62-3,18.81,18.81,0,0,1-6.68-7.74,24.13,24.13,0,0,1,0-20.35,18.31,18.31,0,0,1,17.3-10.68,19.05,19.05,0,0,1,9.18,2,15.54,15.54,0,0,1,5.79,5.25,18.08,18.08,0,0,1,2.66,7h-6.42a10.57,10.57,0,0,0-3.49-6q-2.78-2.44-7.66-2.44a11.89,11.89,0,0,0-7.09,2.11,13.07,13.07,0,0,0-4.45,5.55,18.89,18.89,0,0,0,0,14.66,13.07,13.07,0,0,0,4.45,5.55,11.89,11.89,0,0,0,7.09,2.11q4.89,0,7.66-2.47a10.72,10.72,0,0,0,3.49-6h6.42a18.33,18.33,0,0,1-2.66,7,15.53,15.53,0,0,1-5.79,5.28A19.05,19.05,0,0,1,821.28,118.63Z"/>
        <path class="cls-1" d="M870.44,94.57V77.44h6.42v40.64h-6.42V100.29H852.26v17.79h-6.43V77.44h6.43V94.57Z"/>
        <path class="cls-1" d="M911,106.6V77.44h6.42v40.64h-5.87l-19.94-29v29h-6.37V77.44H891Z"/>
        <path class="cls-1" d="M944.25,118.63a19.24,19.24,0,0,1-10.79-3,18.87,18.87,0,0,1-6.84-7.77,23.21,23.21,0,0,1-2.31-10.19,22.89,22.89,0,0,1,2.31-10.1,19,19,0,0,1,6.84-7.75,21.26,21.26,0,0,1,21.64,0,19,19,0,0,1,6.84,7.75,23,23,0,0,1,2.3,10.1,23.34,23.34,0,0,1-2.3,10.19,18.87,18.87,0,0,1-6.84,7.77A19.35,19.35,0,0,1,944.25,118.63Zm0-5.88a12.34,12.34,0,0,0,7.22-2.11,13.45,13.45,0,0,0,4.62-5.55,18.14,18.14,0,0,0,0-14.72,13.24,13.24,0,0,0-4.62-5.52,12.47,12.47,0,0,0-7.22-2.08,12.33,12.33,0,0,0-7.19,2.08,13.18,13.18,0,0,0-4.59,5.52,18,18,0,0,0,0,14.72,13.38,13.38,0,0,0,4.59,5.55A12.2,12.2,0,0,0,944.25,112.75Z"/>
        <path class="cls-1" d="M977.59,77.44v35h20.54v5.6h-27V77.44Z"/>
        <path class="cls-1" d="M1020.87,118.63a19.25,19.25,0,0,1-10.8-3,18.77,18.77,0,0,1-6.83-7.77,23.21,23.21,0,0,1-2.31-10.19,22.89,22.89,0,0,1,2.31-10.1,18.91,18.91,0,0,1,6.83-7.75,21.26,21.26,0,0,1,21.64,0,19,19,0,0,1,6.84,7.75,22.89,22.89,0,0,1,2.31,10.1,23.21,23.21,0,0,1-2.31,10.19,18.87,18.87,0,0,1-6.84,7.77A19.32,19.32,0,0,1,1020.87,118.63Zm0-5.88a12.34,12.34,0,0,0,7.22-2.11,13.35,13.35,0,0,0,4.61-5.55,18,18,0,0,0,0-14.72,13.15,13.15,0,0,0-4.61-5.52,12.47,12.47,0,0,0-7.22-2.08,12.34,12.34,0,0,0-7.2,2.08,13.32,13.32,0,0,0-4.59,5.52,18.14,18.14,0,0,0,0,14.72,13.54,13.54,0,0,0,4.59,5.55A12.21,12.21,0,0,0,1020.87,112.75Z"/>
        <path class="cls-1" d="M1066.39,96.72h17.8v2.91a21.29,21.29,0,0,1-2.36,10.38,15.79,15.79,0,0,1-6.43,6.45,19.24,19.24,0,0,1-9.23,2.17,19.45,19.45,0,0,1-10.87-2.94,18.33,18.33,0,0,1-6.73-7.72,24.32,24.32,0,0,1,0-20.37,18.6,18.6,0,0,1,6.76-7.75,19.57,19.57,0,0,1,11-3,18.91,18.91,0,0,1,9,2,15,15,0,0,1,5.71,5.08,18.27,18.27,0,0,1,2.69,6.75h-6.42a10.43,10.43,0,0,0-3.49-5.68,10.93,10.93,0,0,0-7.39-2.33A12.48,12.48,0,0,0,1059,84.8a13.42,13.42,0,0,0-4.59,5.57,17.81,17.81,0,0,0-1.54,7.33,18.37,18.37,0,0,0,1.54,7.45,13.2,13.2,0,0,0,4.59,5.6,12.44,12.44,0,0,0,7.27,2.11,10.87,10.87,0,0,0,11.7-11h-11.59Z"/>
        <path class="cls-1" d="M1105.5,97.32l10.38-19.88h7l-14.28,26.36v14.28h-6.37V103.8L1088,77.44h7Z"/>
        <path class="cls-1" d="M1132.52,118.63a3.81,3.81,0,0,1-2.83-1.15,4,4,0,0,1,0-5.61,4.06,4.06,0,0,1,5.66,0,4.07,4.07,0,0,1,0,5.61A3.83,3.83,0,0,1,1132.52,118.63Z"/>
        <path class="cls-1" d="M1175.74,118.63a18.62,18.62,0,0,1-10.63-3,18.86,18.86,0,0,1-6.67-7.74,24.13,24.13,0,0,1,0-20.35,18.28,18.28,0,0,1,17.3-10.68,19,19,0,0,1,9.17,2,15.57,15.57,0,0,1,5.8,5.25,18.08,18.08,0,0,1,2.66,7H1187a10.57,10.57,0,0,0-3.49-6c-1.85-1.63-4.41-2.44-7.66-2.44a11.89,11.89,0,0,0-7.09,2.11,13,13,0,0,0-4.45,5.55,18.89,18.89,0,0,0,0,14.66,13,13,0,0,0,4.45,5.55,11.89,11.89,0,0,0,7.09,2.11c3.25,0,5.81-.82,7.66-2.47a10.72,10.72,0,0,0,3.49-6h6.42a18.33,18.33,0,0,1-2.66,7,15.56,15.56,0,0,1-5.8,5.28A19,19,0,0,1,1175.74,118.63Z"/>
        <path class="cls-1" d="M1202.87,118.08h-6.75l14.17-40.64h8.23l14.23,40.64H1226l-3.13-9.12H1206Zm11.59-33.78-6.54,19h13Z"/>
        <path class="cls-1" d="M1261.69,118.08l-9.22-16.59h-6.92v16.59h-6.43V77.44h15.1a15.13,15.13,0,0,1,7.25,1.62,11.25,11.25,0,0,1,4.59,4.36,12,12,0,0,1,1.56,6,11.83,11.83,0,0,1-2.22,7.06,11.49,11.49,0,0,1-6.29,4.31l9.78,17.3Zm-16.14-35V96.11h8.56a6.79,6.79,0,0,0,5.14-1.92,6.75,6.75,0,0,0,0-9.26,6.85,6.85,0,0,0-5.14-1.89Z"/>
        <path class="cls-1" d="M1290.47,111.27,1302,77.44h6.76l-14.23,40.64h-8.23l-14.17-40.64h6.75Z"/>
        <path class="cls-1" d="M1320.79,100.18v12.3h20.37v5.6h-26.8V77.44h26.53V83h-20.1V94.63h17.57v5.55Z"/>
        <path class="cls-1" d="M1362.69,77.44a19.11,19.11,0,0,1,10.68,2.88,18.5,18.5,0,0,1,6.68,7.53,22.95,22.95,0,0,1,0,19.82,18.57,18.57,0,0,1-6.68,7.53,19.11,19.11,0,0,1-10.68,2.88H1348.8V77.44Zm-.27,35a12.67,12.67,0,0,0,7.33-2.08,13.14,13.14,0,0,0,4.58-5.44,16.85,16.85,0,0,0,1.54-7.14,17,17,0,0,0-1.54-7.2,13.05,13.05,0,0,0-4.58-5.43,12.68,12.68,0,0,0-7.33-2.09h-7.2v29.38Z"/>
        <path class="cls-1" d="M1429.2,77.44V83h-20.92V95.51h18.39v5.54h-18.39v17h-6.43V77.44Z"/>
        <path class="cls-1" d="M1459.41,118.08l-9.23-16.59h-6.92v16.59h-6.43V77.44h15.11a15.16,15.16,0,0,1,7.25,1.62,11.22,11.22,0,0,1,4.58,4.36,12.25,12.25,0,0,1-.66,13,11.5,11.5,0,0,1-6.28,4.31l9.77,17.3Zm-16.15-35V96.11h8.57a6.76,6.76,0,0,0,5.13-1.92,6.75,6.75,0,0,0,0-9.26,6.82,6.82,0,0,0-5.13-1.89Z"/>
        <path class="cls-1" d="M1491.54,118.63a19.25,19.25,0,0,1-10.8-3,18.77,18.77,0,0,1-6.83-7.77,23.21,23.21,0,0,1-2.31-10.19,22.89,22.89,0,0,1,2.31-10.1,18.91,18.91,0,0,1,6.83-7.75,21.26,21.26,0,0,1,21.64,0,19,19,0,0,1,6.84,7.75,22.89,22.89,0,0,1,2.31,10.1,23.21,23.21,0,0,1-2.31,10.19,18.87,18.87,0,0,1-6.84,7.77A19.32,19.32,0,0,1,1491.54,118.63Zm0-5.88a12.36,12.36,0,0,0,7.22-2.11,13.35,13.35,0,0,0,4.61-5.55,18,18,0,0,0,0-14.72,13.15,13.15,0,0,0-4.61-5.52,12.49,12.49,0,0,0-7.22-2.08,12.34,12.34,0,0,0-7.2,2.08,13.32,13.32,0,0,0-4.59,5.52,18.14,18.14,0,0,0,0,14.72,13.54,13.54,0,0,0,4.59,5.55A12.21,12.21,0,0,0,1491.54,112.75Z"/>
        <path class="cls-1" d="M1538,100.56l11.2-23.12h8.4v40.64h-6.31v-31L1541,108h-6l-10.27-21v31.09h-6.31V77.44H1527Z"/>
        <path class="cls-1" d="M1593.85,77.44a15.22,15.22,0,0,1,7.8,1.89,12.7,12.7,0,0,1,4.89,5,13.45,13.45,0,0,1,1.65,6.5,13.6,13.6,0,0,1-1.65,6.57,12.67,12.67,0,0,1-4.89,4.94,15.22,15.22,0,0,1-7.8,1.89H1585v13.9h-6.43V77.44Zm0,21.14a8,8,0,0,0,4.31-1.1,7.14,7.14,0,0,0,2.69-2.85,8.09,8.09,0,0,0,.91-3.79,8.24,8.24,0,0,0-.91-3.82,7.09,7.09,0,0,0-2.69-2.88,8.07,8.07,0,0,0-4.31-1.1H1585V98.58Z"/>
        <path class="cls-1" d="M1637.18,118.08,1628,101.49H1621v16.59h-6.43V77.44h15.11a15.12,15.12,0,0,1,7.24,1.62,11.18,11.18,0,0,1,4.59,4.36,12,12,0,0,1,1.57,6,11.84,11.84,0,0,1-2.23,7.06,11.49,11.49,0,0,1-6.29,4.31l9.78,17.3ZM1621,83V96.11h8.57a6.78,6.78,0,0,0,5.13-1.92,6.75,6.75,0,0,0,0-9.26,6.84,6.84,0,0,0-5.13-1.89Z"/>
        <path class="cls-1" d="M1658.55,118.08h-6.43V77.44h6.43Z"/>
        <path class="cls-1" d="M1681,118.63a17.25,17.25,0,0,1-8.24-1.81,13.29,13.29,0,0,1-5.13-4.73,15.91,15.91,0,0,1-2.23-6.31H1672a8.75,8.75,0,0,0,2.77,5.13,11,11,0,0,0,12.5.33,5.71,5.71,0,0,0,2.19-4.64,4.66,4.66,0,0,0-1.56-3.68,11.25,11.25,0,0,0-4.81-2.14l-5.38-1.26a18.9,18.9,0,0,1-8.21-3.74,9,9,0,0,1-3-7.25,10.85,10.85,0,0,1,1.76-6.15,11.31,11.31,0,0,1,4.94-4.06,17.44,17.44,0,0,1,7.25-1.43q6.44,0,9.92,3.38a14,14,0,0,1,4.2,8.21h-6.26a7,7,0,0,0-2.39-4.29,10,10,0,0,0-11.18-.08,5.06,5.06,0,0,0-2,4q0,3.85,5.88,5.17l5.77,1.37a17.92,17.92,0,0,1,8.34,4,9.74,9.74,0,0,1,3.13,7.61,11.73,11.73,0,0,1-1.73,6.28,11.91,11.91,0,0,1-5,4.48A17.79,17.79,0,0,1,1681,118.63Z"/>
        <path class="cls-1" d="M1731,77.44V83h-12.63v35H1712V83h-12.63v-5.6Z"/>
        <path class="cls-1" d="M1744,118.08h-6.43V77.44H1744Z"/>
        <path class="cls-1" d="M1778.11,106.6V77.44h6.43v40.64h-5.88l-19.94-29v29h-6.37V77.44h5.82Z"/>
        <path class="cls-1" d="M1799.31,100.18v12.3h20.38v5.6h-26.81V77.44h26.53V83h-20.1V94.63h17.57v5.55Z"/>
        <path class="cls-1" d="M1859.5,100.56l11.21-23.12h8.4v40.64h-6.32v-31L1862.52,108h-6l-10.27-21v31.09H1840V77.44h8.51Z"/>
        <path class="cls-1" d="M1892.24,118.08h-6.76l14.17-40.64h8.24l14.22,40.64h-6.75l-3.13-9.12h-16.86Zm11.58-33.78-6.53,19h13Z"/>
        <path class="cls-1" d="M1951.06,118.08l-9.23-16.59h-6.92v16.59h-6.43V77.44h15.11a15.16,15.16,0,0,1,7.25,1.62,11.22,11.22,0,0,1,4.58,4.36,12.25,12.25,0,0,1-.66,13,11.49,11.49,0,0,1-6.29,4.31l9.78,17.3Zm-16.15-35V96.11h8.57a6.76,6.76,0,0,0,5.13-1.92,6.75,6.75,0,0,0,0-9.26,6.82,6.82,0,0,0-5.13-1.89Z"/>
        <path class="cls-1" d="M1989.17,96.88a12.42,12.42,0,0,1,5.16,3.19,8.8,8.8,0,0,1,2.31,6.53,11.58,11.58,0,0,1-1.43,5.63,10.55,10.55,0,0,1-4.47,4.23,16.26,16.26,0,0,1-7.67,1.62H1966V77.44h16.7a14.88,14.88,0,0,1,6.59,1.37,10.3,10.3,0,0,1,4.28,3.68,9.25,9.25,0,0,1,1.49,5.11,8.88,8.88,0,0,1-1.87,6,9.6,9.6,0,0,1-4,2.94Zm-16.75-13.95V94.68h9.67a6.73,6.73,0,0,0,5-1.7,6,6,0,0,0,0-8.35,6.77,6.77,0,0,0-5-1.7Zm10.16,29.66c2.56,0,4.48-.62,5.74-1.84a6.51,6.51,0,0,0,0-9.17c-1.26-1.23-3.18-1.84-5.74-1.84h-10.16v12.85Z"/>
        <path class="cls-1" d="M2010.1,77.44v35h20.54v5.6h-27V77.44Z"/>
        <path class="cls-1" d="M2044.7,100.18v12.3h20.37v5.6h-26.8V77.44h26.53V83h-20.1V94.63h17.57v5.55Z"/>
        <path class="cls-1" d="M2090.12,118.08h-6.76l14.17-40.64h8.24L2120,118.08h-6.75l-3.13-9.12h-16.86ZM2101.7,84.3l-6.53,19h13Z"/>
        <path class="cls-1" d="M2152.12,106.6V77.44h6.43v40.64h-5.88l-19.94-29v29h-6.37V77.44h5.82Z"/>
        <path class="cls-1" d="M2180.79,77.44a19.15,19.15,0,0,1,10.68,2.88,18.41,18.41,0,0,1,6.67,7.53,22.86,22.86,0,0,1,0,19.82,18.47,18.47,0,0,1-6.67,7.53,19.15,19.15,0,0,1-10.68,2.88h-13.9V77.44Zm-.28,35a12.7,12.7,0,0,0,7.34-2.08,13.14,13.14,0,0,0,4.58-5.44,16.85,16.85,0,0,0,1.54-7.14,17,17,0,0,0-1.54-7.2,13.05,13.05,0,0,0-4.58-5.43,12.71,12.71,0,0,0-7.34-2.09h-7.19v29.38Z"/>
        <path class="cls-1" d="M8.24,177.06v12.31H28.61V195H1.81V154.33H28.34v5.6H8.24v11.59H25.81v5.54Z"/>
        <path class="cls-1" d="M62,183.49V154.33h6.42V195H62.55L42.62,166v29H36.25V154.33h5.82Z"/>
        <path class="cls-1" d="M101.38,171.46V154.33h6.43V195h-6.43v-17.8H83.2V195H76.78V154.33H83.2v17.13Z"/>
        <path class="cls-1" d="M120.94,195h-6.76l14.17-40.64h8.24L150.81,195h-6.75l-3.13-9.12H124.07Zm11.58-33.78L126,180.14h13Z"/>
        <path class="cls-1" d="M182.94,183.49V154.33h6.43V195h-5.88l-19.94-29v29h-6.37V154.33H163Z"/>
        <path class="cls-1" d="M215.84,195.52a18.62,18.62,0,0,1-10.63-3,18.85,18.85,0,0,1-6.67-7.74,24.13,24.13,0,0,1,0-20.35,18.54,18.54,0,0,1,6.67-7.74,18.76,18.76,0,0,1,10.63-2.94,19,19,0,0,1,9.17,2,15.44,15.44,0,0,1,5.79,5.24,18.2,18.2,0,0,1,2.67,7H227a10.52,10.52,0,0,0-3.49-6c-1.84-1.63-4.4-2.45-7.66-2.45a11.89,11.89,0,0,0-7.08,2.12,13,13,0,0,0-4.45,5.55,18.89,18.89,0,0,0,0,14.66,13,13,0,0,0,4.45,5.55,11.88,11.88,0,0,0,7.08,2.11c3.26,0,5.82-.82,7.66-2.47a10.66,10.66,0,0,0,3.49-6h6.43a18.35,18.35,0,0,1-2.67,7,15.45,15.45,0,0,1-5.79,5.28A19,19,0,0,1,215.84,195.52Z"/>
        <path class="cls-1" d="M246.81,177.06v12.31h20.38V195h-26.8V154.33h26.52v5.6h-20.1v11.59h17.58v5.54Z"/>
        <path class="cls-1" d="M288.72,154.33a19.15,19.15,0,0,1,10.68,2.88,18.44,18.44,0,0,1,6.67,7.52,23,23,0,0,1,0,19.83,18.44,18.44,0,0,1-6.67,7.52A19.08,19.08,0,0,1,288.72,195h-13.9V154.33Zm-.28,35a12.63,12.63,0,0,0,7.34-2.09,13.05,13.05,0,0,0,4.58-5.43,17.46,17.46,0,0,0,0-14.34,13.05,13.05,0,0,0-4.58-5.43,12.63,12.63,0,0,0-7.34-2.09h-7.19v29.38Z"/>
        <path class="cls-1" d="M363.35,185.91l8-31.58h6.53L367.25,195h-7.68l-7.8-29.49L344,195h-7.69l-10.6-40.64h6.54l8,31.69,8.4-31.69H355Z"/>
        <path class="cls-1" d="M390.43,195H384V154.33h6.42Z"/>
        <path class="cls-1" d="M428.6,154.33v5.6H416v35H409.6v-35H397v-5.6Z"/>
        <path class="cls-1" d="M459.74,171.46V154.33h6.43V195h-6.43v-17.8H441.56V195h-6.42V154.33h6.42v17.13Z"/>
        <path class="cls-1" d="M501.26,195.52a17.25,17.25,0,0,1-8.24-1.81,13.29,13.29,0,0,1-5.13-4.73,15.91,15.91,0,0,1-2.23-6.31h6.54A8.75,8.75,0,0,0,495,187.8a11,11,0,0,0,12.5.33,5.71,5.71,0,0,0,2.19-4.64,4.66,4.66,0,0,0-1.56-3.68,11.18,11.18,0,0,0-4.81-2.14l-5.38-1.26a18.9,18.9,0,0,1-8.21-3.74,9,9,0,0,1-3.05-7.25,10.85,10.85,0,0,1,1.76-6.15,11.31,11.31,0,0,1,4.94-4.06,17.44,17.44,0,0,1,7.25-1.43q6.43,0,9.91,3.38a14,14,0,0,1,4.21,8.21h-6.26a7,7,0,0,0-2.39-4.29,9.95,9.95,0,0,0-11.18-.08,5.06,5.06,0,0,0-2,4c0,2.56,2,4.29,5.88,5.16l5.77,1.38a17.92,17.92,0,0,1,8.34,4,9.73,9.73,0,0,1,3.13,7.61,11.73,11.73,0,0,1-1.73,6.28,11.91,11.91,0,0,1-5,4.48A17.79,17.79,0,0,1,501.26,195.52Z"/>
        <path class="cls-1" d="M529,154.33v35h20.54V195h-27V154.33Z"/>
        <path class="cls-1" d="M563.6,177.06v12.31H584V195h-26.8V154.33H583.7v5.6H563.6v11.59h17.57v5.54Z"/>
        <path class="cls-1" d="M598,177.06v12.31h20.38V195h-26.8V154.33h26.52v5.6H598v11.59h17.58v5.54Z"/>
        <path class="cls-1" d="M638.84,173.88,658,195h-8.46l-17-19v19H626V154.33h6.43v18L649,154.38h8.18Z"/>
        <path class="cls-1" d="M696.17,177.45l11.21-23.12h8.4V195h-6.32V164l-10.27,20.87h-6l-10.27-21V195h-6.32V154.33h8.52Z"/>
        <path class="cls-1" d="M730.55,177.06v12.31h20.38V195h-26.8V154.33h26.53v5.6H730.55v11.59h17.58v5.54Z"/>
        <path class="cls-1" d="M776.47,195.52a18.62,18.62,0,0,1-10.63-3,18.85,18.85,0,0,1-6.67-7.74,24.13,24.13,0,0,1,0-20.35,18.54,18.54,0,0,1,6.67-7.74,18.76,18.76,0,0,1,10.63-2.94,19,19,0,0,1,9.17,2,15.44,15.44,0,0,1,5.79,5.24,18.2,18.2,0,0,1,2.67,7h-6.43a10.52,10.52,0,0,0-3.49-6c-1.84-1.63-4.4-2.45-7.66-2.45a11.89,11.89,0,0,0-7.08,2.12,13,13,0,0,0-4.45,5.55A18.89,18.89,0,0,0,765,182a13,13,0,0,0,4.45,5.55,11.88,11.88,0,0,0,7.08,2.11c3.26,0,5.82-.82,7.66-2.47a10.66,10.66,0,0,0,3.49-6h6.43a18.35,18.35,0,0,1-2.67,7,15.45,15.45,0,0,1-5.79,5.28A19,19,0,0,1,776.47,195.52Z"/>
        <path class="cls-1" d="M825.62,171.46V154.33h6.43V195h-6.43v-17.8H807.44V195H801V154.33h6.42v17.13Z"/>
        <path class="cls-1" d="M845.17,195h-6.75l14.17-40.64h8.24L875.05,195H868.3l-3.14-9.12H848.3Zm11.59-33.78-6.53,18.95h13Z"/>
        <path class="cls-1" d="M907.18,183.49V154.33h6.42V195h-5.87l-19.94-29v29h-6.37V154.33h5.82Z"/>
        <path class="cls-1" d="M928.38,195H922V154.33h6.43Z"/>
        <path class="cls-1" d="M954.85,195.52a18.62,18.62,0,0,1-10.63-3,18.92,18.92,0,0,1-6.67-7.74,24.13,24.13,0,0,1,0-20.35,18.28,18.28,0,0,1,17.3-10.68,19,19,0,0,1,9.17,2,15.55,15.55,0,0,1,5.8,5.24,18.18,18.18,0,0,1,2.66,7h-6.43a10.5,10.5,0,0,0-3.48-6,11.2,11.2,0,0,0-7.66-2.45,11.9,11.9,0,0,0-7.09,2.12,13,13,0,0,0-4.45,5.55,18.89,18.89,0,0,0,0,14.66,13,13,0,0,0,4.45,5.55,11.89,11.89,0,0,0,7.09,2.11c3.25,0,5.81-.82,7.66-2.47a10.64,10.64,0,0,0,3.48-6h6.43a18.33,18.33,0,0,1-2.66,7,15.56,15.56,0,0,1-5.8,5.28A19,19,0,0,1,954.85,195.52Z"/>
        <path class="cls-1" d="M982,195h-6.75l14.17-40.64h8.23L1011.86,195h-6.76l-3.13-9.12H985.11Zm11.59-33.78L987,180.14h13Z"/>
        <path class="cls-1" d="M1024.65,154.33v35h20.54V195h-27V154.33Z"/>
        <path class="cls-1" d="M1071.89,177.06v12.31h20.37V195h-26.8V154.33H1092v5.6h-20.1v11.59h17.57v5.54Z"/>
        <path class="cls-1" d="M1106.32,154.33v35h20.54V195h-27V154.33Z"/>
        <path class="cls-1" d="M1140.92,177.06v12.31h20.38V195h-26.8V154.33H1161v5.6h-20.1v11.59h17.58v5.54Z"/>
        <path class="cls-1" d="M1188.48,177.45l11.21-23.12h8.4V195h-6.32V164l-10.27,20.87h-6l-10.27-21V195h-6.32V154.33h8.51Z"/>
        <path class="cls-1" d="M1222.86,177.06v12.31h20.38V195h-26.8V154.33H1243v5.6h-20.1v11.59h17.58v5.54Z"/>
        <path class="cls-1" d="M1276.63,183.49V154.33h6.43V195h-5.88l-19.94-29v29h-6.37V154.33h5.82Z"/>
        <path class="cls-1" d="M1321.23,154.33v5.6h-12.64v35h-6.37v-35h-12.63v-5.6Z"/>
        <path class="cls-1" d="M1340.67,195.52a17.22,17.22,0,0,1-8.24-1.81,13.32,13.32,0,0,1-5.14-4.73,15.74,15.74,0,0,1-2.22-6.31h6.54a8.75,8.75,0,0,0,2.77,5.13,11,11,0,0,0,12.49.33,5.69,5.69,0,0,0,2.2-4.64,4.66,4.66,0,0,0-1.56-3.68,11.18,11.18,0,0,0-4.81-2.14l-5.38-1.26a18.9,18.9,0,0,1-8.21-3.74,9,9,0,0,1-3-7.25,10.78,10.78,0,0,1,1.76-6.15,11.31,11.31,0,0,1,4.94-4.06,17.41,17.41,0,0,1,7.25-1.43q6.42,0,9.91,3.38a13.88,13.88,0,0,1,4.2,8.21h-6.26a6.89,6.89,0,0,0-2.39-4.29,9.93,9.93,0,0,0-11.17-.08,5.06,5.06,0,0,0-2,4c0,2.56,2,4.29,5.88,5.16l5.76,1.38a18,18,0,0,1,8.35,4,9.73,9.73,0,0,1,3.13,7.61,11.82,11.82,0,0,1-1.73,6.28,12,12,0,0,1-5,4.48A17.82,17.82,0,0,1,1340.67,195.52Z"/>
        <path class="cls-1" d="M1366.81,187.61a4.07,4.07,0,0,1,2.91,1.1,3.82,3.82,0,0,1,1.15,2.91,7.8,7.8,0,0,1-1.12,3.65,66.63,66.63,0,0,1-4.2,6.29l-.39.55h-3l4.12-6.7a3.65,3.65,0,0,1-2.53-1.21,3.87,3.87,0,0,1-1-2.69,3.71,3.71,0,0,1,1.15-2.83A4.08,4.08,0,0,1,1366.81,187.61Z"/>
        <path class="cls-1" d="M1421.84,154.33v5.6h-12.63v35h-6.37v-35h-12.63v-5.6Z"/>
        <path class="cls-1" d="M1453,171.46V154.33h6.43V195H1453v-17.8H1434.8V195h-6.42V154.33h6.42v17.13Z"/>
        <path class="cls-1" d="M1474.18,195h-6.43V154.33h6.43Z"/>
        <path class="cls-1" d="M1496.64,195.52a17.25,17.25,0,0,1-8.24-1.81,13.29,13.29,0,0,1-5.13-4.73,15.74,15.74,0,0,1-2.22-6.31h6.53a8.75,8.75,0,0,0,2.77,5.13,11,11,0,0,0,12.5.33,5.72,5.72,0,0,0,2.2-4.64,4.67,4.67,0,0,0-1.57-3.68,11.13,11.13,0,0,0-4.81-2.14l-5.38-1.26a18.9,18.9,0,0,1-8.21-3.74,9,9,0,0,1-3-7.25,10.85,10.85,0,0,1,1.76-6.15,11.31,11.31,0,0,1,4.94-4.06,17.44,17.44,0,0,1,7.25-1.43q6.43,0,9.92,3.38a14,14,0,0,1,4.2,8.21h-6.26a7,7,0,0,0-2.39-4.29,9.95,9.95,0,0,0-11.18-.08,5.06,5.06,0,0,0-2,4c0,2.56,2,4.29,5.88,5.16l5.77,1.38a18,18,0,0,1,8.35,4,9.76,9.76,0,0,1,3.13,7.61,11.82,11.82,0,0,1-1.73,6.28,12,12,0,0,1-5.06,4.48A17.79,17.79,0,0,1,1496.64,195.52Z"/>
        <path class="cls-1" d="M1544.7,195.52a17.22,17.22,0,0,1-8.24-1.81,13.22,13.22,0,0,1-5.13-4.73,15.76,15.76,0,0,1-2.23-6.31h6.54a8.75,8.75,0,0,0,2.77,5.13,11,11,0,0,0,12.49.33,5.69,5.69,0,0,0,2.2-4.64,4.66,4.66,0,0,0-1.56-3.68,11.18,11.18,0,0,0-4.81-2.14l-5.38-1.26a18.9,18.9,0,0,1-8.21-3.74,9,9,0,0,1-3.05-7.25,10.85,10.85,0,0,1,1.76-6.15,11.31,11.31,0,0,1,4.94-4.06,17.41,17.41,0,0,1,7.25-1.43q6.42,0,9.91,3.38a13.88,13.88,0,0,1,4.2,8.21h-6.26a6.89,6.89,0,0,0-2.39-4.29,9.93,9.93,0,0,0-11.17-.08,5.06,5.06,0,0,0-2,4c0,2.56,2,4.29,5.88,5.16l5.76,1.38a18,18,0,0,1,8.35,4,9.73,9.73,0,0,1,3.13,7.61,11.73,11.73,0,0,1-1.73,6.28,12,12,0,0,1-5,4.48A17.82,17.82,0,0,1,1544.7,195.52Z"/>
        <path class="cls-1" d="M1594.73,154.33v5.6H1582.1v35h-6.37v-35H1563.1v-5.6Z"/>
        <path class="cls-1" d="M1601.32,195h-6.75l14.17-40.64H1617L1631.2,195h-6.76l-3.13-9.12h-16.86Zm11.59-33.78-6.54,18.95h13Z"/>
        <path class="cls-1" d="M1662.23,154.33v5.6H1649.6v35h-6.37v-35h-12.64v-5.6Z"/>
        <path class="cls-1" d="M1684.58,195.52a18.17,18.17,0,0,1-8.29-1.81,13.09,13.09,0,0,1-5.55-5.28,16.54,16.54,0,0,1-2-8.35V154.33h6.43v25.75a9.67,9.67,0,0,0,2.39,6.79c1.59,1.74,3.93,2.61,7,2.61s5.42-.87,7-2.61a9.6,9.6,0,0,0,2.42-6.79V154.33h6.42v25.75a16.64,16.64,0,0,1-2,8.35,13.05,13.05,0,0,1-5.58,5.28A18.36,18.36,0,0,1,1684.58,195.52Z"/>
        <path class="cls-1" d="M1715.23,177.06v12.31h20.37V195h-26.8V154.33h26.53v5.6h-20.1v11.59h17.57v5.54Z"/>
        <path class="cls-1" d="M1762.29,177.06v12.31h20.38V195h-26.8V154.33h26.52v5.6h-20.1v11.59h17.58v5.54Z"/>
        <path class="cls-1" d="M1809.86,177.45l11.2-23.12h8.4V195h-6.31V164l-10.27,20.87h-6l-10.27-21V195h-6.32V154.33h8.52Z"/>
        <path class="cls-1" d="M1861,173.77a12.46,12.46,0,0,1,5.16,3.18,8.85,8.85,0,0,1,2.31,6.54,11.58,11.58,0,0,1-1.43,5.63,10.57,10.57,0,0,1-4.48,4.23,16.19,16.19,0,0,1-7.66,1.62h-17.08V154.33h16.7a14.78,14.78,0,0,1,6.59,1.37,10.42,10.42,0,0,1,4.28,3.68,9.24,9.24,0,0,1,1.48,5.11,9,9,0,0,1-1.86,6,9.72,9.72,0,0,1-4,2.94Zm-16.75-14v11.75h9.66a6.8,6.8,0,0,0,5-1.7,6.05,6.05,0,0,0,0-8.35,6.8,6.8,0,0,0-5-1.7Zm10.16,29.66c2.56,0,4.47-.62,5.73-1.84a6.49,6.49,0,0,0,0-9.18c-1.26-1.22-3.17-1.84-5.73-1.84h-10.16v12.86Z"/>
        <path class="cls-1" d="M1893.39,195.52a19.24,19.24,0,0,1-10.79-3,19,19,0,0,1-6.84-7.77,23.21,23.21,0,0,1-2.31-10.19,22.89,22.89,0,0,1,2.31-10.1,19,19,0,0,1,6.84-7.75,21.26,21.26,0,0,1,21.64,0,18.91,18.91,0,0,1,6.83,7.75,22.89,22.89,0,0,1,2.31,10.1,23.21,23.21,0,0,1-2.31,10.19,18.9,18.9,0,0,1-6.83,7.77A19.35,19.35,0,0,1,1893.39,195.52Zm0-5.88a12.34,12.34,0,0,0,7.22-2.11,13.35,13.35,0,0,0,4.61-5.55,18,18,0,0,0,0-14.72,13.15,13.15,0,0,0-4.61-5.52,13.48,13.48,0,0,0-14.42,0,13.23,13.23,0,0,0-4.58,5.52,18,18,0,0,0,0,14.72,13.44,13.44,0,0,0,4.58,5.55A12.26,12.26,0,0,0,1893.39,189.64Z"/>
        <path class="cls-1" d="M1934.2,154.33a19.15,19.15,0,0,1,10.68,2.88,18.52,18.52,0,0,1,6.67,7.52,23,23,0,0,1,0,19.83,18.52,18.52,0,0,1-6.67,7.52A19.08,19.08,0,0,1,1934.2,195h-13.9V154.33Zm-.28,35a12.58,12.58,0,0,0,7.33-2.09,13.15,13.15,0,0,0,4.59-5.43,17.46,17.46,0,0,0,0-14.34,13.15,13.15,0,0,0-4.59-5.43,12.58,12.58,0,0,0-7.33-2.09h-7.19v29.38Z"/>
        <path class="cls-1" d="M1967.15,195h-6.43V154.33h6.43Z"/>
        <path class="cls-1" d="M1981.92,177.06v12.31h20.38V195h-26.8V154.33H2002v5.6h-20.1v11.59h17.58v5.54Z"/>
        <path class="cls-1" d="M2023.61,195.52a17.22,17.22,0,0,1-8.24-1.81,13.25,13.25,0,0,1-5.14-4.73,15.74,15.74,0,0,1-2.22-6.31h6.53a8.77,8.77,0,0,0,2.78,5.13,11,11,0,0,0,12.49.33,5.69,5.69,0,0,0,2.2-4.64,4.64,4.64,0,0,0-1.57-3.68,11.08,11.08,0,0,0-4.8-2.14l-5.38-1.26a18.84,18.84,0,0,1-8.21-3.74,9,9,0,0,1-3-7.25,10.85,10.85,0,0,1,1.75-6.15,11.34,11.34,0,0,1,5-4.06,17.41,17.41,0,0,1,7.25-1.43q6.42,0,9.91,3.38a13.88,13.88,0,0,1,4.2,8.21h-6.26a6.94,6.94,0,0,0-2.39-4.29,9.93,9.93,0,0,0-11.17-.08,5.06,5.06,0,0,0-2,4c0,2.56,2,4.29,5.87,5.16l5.77,1.38a18,18,0,0,1,8.35,4,9.73,9.73,0,0,1,3.13,7.61,11.82,11.82,0,0,1-1.73,6.28,12,12,0,0,1-5.05,4.48A17.82,17.82,0,0,1,2023.61,195.52Z"/>
        <path class="cls-1" d="M31.63,231.22v5.6H19v35H12.63v-35H0v-5.6Z"/>
        <path class="cls-1" d="M44.6,271.86H38.17V231.22H44.6Z"/>
        <path class="cls-1" d="M72.5,254.34l11.2-23.12h8.4v40.64H85.79v-31L75.52,261.75h-6l-10.27-21v31.09H52.94V231.22h8.52Z"/>
        <path class="cls-1" d="M106.88,254v12.31h20.37v5.6h-26.8V231.22H127v5.6h-20.1v11.59h17.57V254Z"/>
        <path class="cls-1" d="M141.31,231.22v35h20.54v5.6h-27V231.22Z"/>
        <path class="cls-1" d="M175.91,254v12.31h20.38v5.6h-26.8V231.22H196v5.6h-20.1v11.59h17.58V254Z"/>
        <path class="cls-1" d="M217.6,272.41a17.1,17.1,0,0,1-8.24-1.82,13.16,13.16,0,0,1-5.14-4.72,15.73,15.73,0,0,1-2.22-6.32h6.53a8.76,8.76,0,0,0,2.78,5.14,11,11,0,0,0,12.49.33,5.69,5.69,0,0,0,2.2-4.64,4.62,4.62,0,0,0-1.57-3.68,11.08,11.08,0,0,0-4.8-2.14l-5.38-1.27a18.82,18.82,0,0,1-8.22-3.73,9,9,0,0,1-3-7.25,10.85,10.85,0,0,1,1.75-6.15,11.43,11.43,0,0,1,4.95-4.07,17.57,17.57,0,0,1,7.25-1.42q6.42,0,9.91,3.37a14,14,0,0,1,4.2,8.21h-6.26A6.94,6.94,0,0,0,222.4,238a9.95,9.95,0,0,0-11.18-.08,5.08,5.08,0,0,0-2,4q0,3.84,5.87,5.16l5.77,1.38a17.86,17.86,0,0,1,8.35,4,9.72,9.72,0,0,1,3.13,7.6,11.83,11.83,0,0,1-1.73,6.29,12,12,0,0,1-5,4.48A17.82,17.82,0,0,1,217.6,272.41Z"/>
        <path class="cls-1" d="M253.24,272.41a17.1,17.1,0,0,1-8.24-1.82,13.2,13.2,0,0,1-5.13-4.72,15.75,15.75,0,0,1-2.23-6.32h6.54a8.75,8.75,0,0,0,2.77,5.14,11,11,0,0,0,12.5.33,5.71,5.71,0,0,0,2.19-4.64,4.65,4.65,0,0,0-1.56-3.68,11.18,11.18,0,0,0-4.81-2.14l-5.38-1.27a18.78,18.78,0,0,1-8.21-3.73,9,9,0,0,1-3.05-7.25,10.85,10.85,0,0,1,1.76-6.15,11.4,11.4,0,0,1,4.94-4.07,17.57,17.57,0,0,1,7.25-1.42q6.42,0,9.91,3.37a13.94,13.94,0,0,1,4.2,8.21h-6.26A6.9,6.9,0,0,0,258,238a9.93,9.93,0,0,0-11.17-.08,5.06,5.06,0,0,0-2,4q0,3.84,5.88,5.16l5.76,1.38a17.82,17.82,0,0,1,8.35,4A9.72,9.72,0,0,1,268,260a11.74,11.74,0,0,1-1.73,6.29,11.91,11.91,0,0,1-5,4.48A17.82,17.82,0,0,1,253.24,272.41Z"/>
        <path class="cls-1" d="M305.8,250.49h17.79v2.91a21.12,21.12,0,0,1-2.36,10.38,15.73,15.73,0,0,1-6.42,6.46,21.19,21.19,0,0,1-20.11-.77,18.24,18.24,0,0,1-6.72-7.72,24.28,24.28,0,0,1,0-20.37,18.74,18.74,0,0,1,6.76-7.75,19.57,19.57,0,0,1,11-3,19,19,0,0,1,9,2,15,15,0,0,1,5.71,5.08,18.37,18.37,0,0,1,2.69,6.75h-6.43a10.34,10.34,0,0,0-3.49-5.68,10.93,10.93,0,0,0-7.38-2.34,12.52,12.52,0,0,0-7.39,2.15,13.26,13.26,0,0,0-4.58,5.57,17.65,17.65,0,0,0-1.54,7.33,18.12,18.12,0,0,0,1.54,7.44,13.07,13.07,0,0,0,4.58,5.61,12.52,12.52,0,0,0,7.28,2.11,10.89,10.89,0,0,0,11.7-11H305.8Z"/>
        <path class="cls-1" d="M352.87,271.86l-9.23-16.59h-6.92v16.59h-6.43V231.22H345.4a15.16,15.16,0,0,1,7.25,1.62,11.22,11.22,0,0,1,4.58,4.36,11.93,11.93,0,0,1,1.57,6,11.79,11.79,0,0,1-2.23,7.06,11.54,11.54,0,0,1-6.29,4.31l9.78,17.3Zm-16.15-35v13.07h8.57a6.78,6.78,0,0,0,5.13-1.92,6.75,6.75,0,0,0,0-9.26,6.84,6.84,0,0,0-5.13-1.89Z"/>
        <path class="cls-1" d="M372.58,271.86h-6.75L380,231.22h8.23l14.23,40.64H395.7l-3.13-9.12H375.71Zm11.59-33.78L377.63,257h13Z"/>
        <path class="cls-1" d="M424.87,272.41a18.62,18.62,0,0,1-10.63-3,18.85,18.85,0,0,1-6.67-7.74,24,24,0,0,1,0-20.35,18.62,18.62,0,0,1,6.67-7.75,21.18,21.18,0,0,1,19.8-.9,15.44,15.44,0,0,1,5.79,5.24,18.2,18.2,0,0,1,2.67,7h-6.43a10.57,10.57,0,0,0-3.49-6q-2.77-2.44-7.66-2.45a11.85,11.85,0,0,0-7.08,2.12,13,13,0,0,0-4.45,5.54,18.8,18.8,0,0,0,0,14.67,13,13,0,0,0,4.45,5.55,11.84,11.84,0,0,0,7.08,2.11q4.89,0,7.66-2.47a10.72,10.72,0,0,0,3.49-6h6.43a18.35,18.35,0,0,1-2.67,7,15.35,15.35,0,0,1-5.79,5.27A18.92,18.92,0,0,1,424.87,272.41Z"/>
        <path class="cls-1" d="M455.84,254v12.31h20.38v5.6h-26.8V231.22h26.52v5.6h-20.1v11.59h17.58V254Z"/>
        <path class="cls-1" d="M501.26,271.86h-6.75l14.17-40.64h8.23l14.23,40.64h-6.76l-3.13-9.12H504.39Zm11.59-33.78L506.31,257h13Z"/>
        <path class="cls-1" d="M563.27,260.38V231.22h6.42v40.64h-5.87l-19.94-29v29h-6.37V231.22h5.82Z"/>
        <path class="cls-1" d="M591.93,231.22a19.16,19.16,0,0,1,10.69,2.88,18.52,18.52,0,0,1,6.67,7.52,23,23,0,0,1,0,19.83,18.52,18.52,0,0,1-6.67,7.52,19.09,19.09,0,0,1-10.69,2.89H578V231.22Zm-.27,35a12.65,12.65,0,0,0,7.33-2.09,13.15,13.15,0,0,0,4.59-5.43,17.46,17.46,0,0,0,0-14.34A13.24,13.24,0,0,0,599,238.9a12.65,12.65,0,0,0-7.33-2.08h-7.19V266.2Z"/>
        <path class="cls-1" d="M650.64,254.34l11.21-23.12h8.4v40.64h-6.31v-31l-10.27,20.87h-6l-10.27-21v31.09h-6.32V231.22h8.52Z"/>
        <path class="cls-1" d="M697.11,272.41a19.22,19.22,0,0,1-10.79-3,19,19,0,0,1-6.84-7.77,23.21,23.21,0,0,1-2.31-10.19,22.89,22.89,0,0,1,2.31-10.1,19,19,0,0,1,6.84-7.75,21.24,21.24,0,0,1,21.63,0,18.93,18.93,0,0,1,6.84,7.75,22.89,22.89,0,0,1,2.31,10.1,23.21,23.21,0,0,1-2.31,10.19,18.92,18.92,0,0,1-6.84,7.77A19.32,19.32,0,0,1,697.11,272.41Zm0-5.88a12.34,12.34,0,0,0,7.22-2.11,13.35,13.35,0,0,0,4.61-5.55,18,18,0,0,0,0-14.72,13.15,13.15,0,0,0-4.61-5.52,13.48,13.48,0,0,0-14.42,0,13.23,13.23,0,0,0-4.58,5.52,18,18,0,0,0,0,14.72,13.44,13.44,0,0,0,4.58,5.55A12.26,12.26,0,0,0,697.11,266.53Z"/>
        <path class="cls-1" d="M737.91,231.22a19.16,19.16,0,0,1,10.69,2.88,18.52,18.52,0,0,1,6.67,7.52,23,23,0,0,1,0,19.83A18.52,18.52,0,0,1,748.6,269a19.09,19.09,0,0,1-10.69,2.89H724V231.22Zm-.27,35a12.65,12.65,0,0,0,7.33-2.09,13.15,13.15,0,0,0,4.59-5.43,17.57,17.57,0,0,0,0-14.34A13.24,13.24,0,0,0,745,238.9a12.65,12.65,0,0,0-7.33-2.08h-7.2V266.2Z"/>
        <path class="cls-1" d="M770.87,254v12.31h20.37v5.6h-26.8V231.22H791v5.6h-20.1v11.59h17.57V254Z"/>
        <path class="cls-1" d="M821.45,271.86l-9.23-16.59H805.3v16.59h-6.42V231.22H814a15.16,15.16,0,0,1,7.25,1.62,11.22,11.22,0,0,1,4.58,4.36,12.28,12.28,0,0,1-.65,13.05,11.58,11.58,0,0,1-6.29,4.31l9.77,17.3Zm-16.15-35v13.07h8.57A6.75,6.75,0,0,0,819,248a6.75,6.75,0,0,0,0-9.26,6.81,6.81,0,0,0-5.13-1.89Z"/>
        <path class="cls-1" d="M862.14,260.38V231.22h6.43v40.64h-5.88l-19.93-29v29h-6.37V231.22h5.82Z"/>
        <path class="cls-1" d="M896,271.86h-6.43V231.22H896Z"/>
        <path class="cls-1" d="M930.08,260.38V231.22h6.43v40.64h-5.88l-19.94-29v29h-6.37V231.22h5.83Z"/>
        <path class="cls-1" d="M970.61,260.38V231.22H977v40.64h-5.88l-19.93-29v29h-6.38V231.22h5.83Z"/>
        <path class="cls-1" d="M1003.89,272.41a19.24,19.24,0,0,1-10.79-3,18.9,18.9,0,0,1-6.83-7.77A23.21,23.21,0,0,1,984,251.48a22.89,22.89,0,0,1,2.31-10.1,18.91,18.91,0,0,1,6.83-7.75,21.26,21.26,0,0,1,21.64,0,19,19,0,0,1,6.84,7.75,22.89,22.89,0,0,1,2.31,10.1,23.21,23.21,0,0,1-2.31,10.19,19,19,0,0,1-6.84,7.77A19.33,19.33,0,0,1,1003.89,272.41Zm0-5.88a12.37,12.37,0,0,0,7.23-2.11,13.35,13.35,0,0,0,4.61-5.55,18,18,0,0,0,0-14.72,13.15,13.15,0,0,0-4.61-5.52,12.51,12.51,0,0,0-7.23-2.09,12.34,12.34,0,0,0-7.19,2.09,13.32,13.32,0,0,0-4.59,5.52,18.14,18.14,0,0,0,0,14.72,13.54,13.54,0,0,0,4.59,5.55A12.2,12.2,0,0,0,1003.89,266.53Z"/>
        <path class="cls-1" d="M1045.3,265.05l11.54-33.83h6.75l-14.22,40.64h-8.24L1027,231.22h6.76Z"/>
        <path class="cls-1" d="M1069.25,271.86h-6.76l14.17-40.64h8.24l14.23,40.64h-6.76l-3.13-9.12h-16.86Zm11.59-33.78L1074.3,257h13Z"/>
        <path class="cls-1" d="M1130.16,231.22v5.6h-12.63v35h-6.38v-35h-12.63v-5.6Z"/>
        <path class="cls-1" d="M1143.12,271.86h-6.43V231.22h6.43Z"/>
        <path class="cls-1" d="M1170,272.41a19.24,19.24,0,0,1-10.79-3,18.9,18.9,0,0,1-6.83-7.77,23.21,23.21,0,0,1-2.31-10.19,22.89,22.89,0,0,1,2.31-10.1,18.91,18.91,0,0,1,6.83-7.75,21.26,21.26,0,0,1,21.64,0,19,19,0,0,1,6.84,7.75,22.89,22.89,0,0,1,2.31,10.1,23.21,23.21,0,0,1-2.31,10.19,19,19,0,0,1-6.84,7.77A19.33,19.33,0,0,1,1170,272.41Zm0-5.88a12.37,12.37,0,0,0,7.23-2.11,13.35,13.35,0,0,0,4.61-5.55,18,18,0,0,0,0-14.72,13.15,13.15,0,0,0-4.61-5.52,12.51,12.51,0,0,0-7.23-2.09,12.34,12.34,0,0,0-7.19,2.09,13.32,13.32,0,0,0-4.59,5.52,18.14,18.14,0,0,0,0,14.72,13.54,13.54,0,0,0,4.59,5.55A12.2,12.2,0,0,0,1170,266.53Z"/>
        <path class="cls-1" d="M1222.64,260.38V231.22h6.43v40.64h-5.88l-19.93-29v29h-6.37V231.22h5.82Z"/>
      </g>
    </g>
  </g>
</svg>
