<svg xmlns="http://www.w3.org/2000/svg" width="1674.22" height="84.3" viewBox="0 0 1674.22 84.3">
  <defs>
    <style>
      .cls-1 {
        fill: #ed1e78;
      }
    </style>
  </defs>
  <title>cd77777</title>
  <g id="Layer_2" data-name="Layer 2">
    <g id="Layer_1-2" data-name="Layer 1">
      <g id="cd">
        <path class="cls-1" d="M40.71,45.59,61.56,1.11H81.3V83.19H66.44V23.74L47.58,63.33h-14L14.86,23.85V83.19H0V1.11H20.08Z"/>
        <path class="cls-1" d="M134.55,47.81V70.1H175V83.19H119.46V1.11h55V14.2H134.55V35.05h34.93V47.81Z"/>
        <path class="cls-1" d="M248.13,84.3q-12.76,0-21.8-6a38.16,38.16,0,0,1-13.64-15.64,47,47,0,0,1-4.61-20.52,47,47,0,0,1,4.61-20.52A38.16,38.16,0,0,1,226.33,6q9-6,21.8-6,11.2,0,19,4.16A31,31,0,0,1,279,14.92a37.79,37.79,0,0,1,5.38,14.36h-15a19.55,19.55,0,0,0-6.54-11.09q-5.22-4.55-14.53-4.55a22.4,22.4,0,0,0-13.48,4.05,25.15,25.15,0,0,0-8.43,10.59,35.38,35.38,0,0,0,0,27.73,25.12,25.12,0,0,0,8.43,10.6,22.4,22.4,0,0,0,13.48,4q9.32,0,14.53-4.61a19.81,19.81,0,0,0,6.54-11.14h15A38.2,38.2,0,0,1,279,69.32a30.85,30.85,0,0,1-11.93,10.82Q259.34,84.29,248.13,84.3Z"/>
        <path class="cls-1" d="M368.92,34.83V1.11H384V83.19H368.92V47.92H334.64V83.19H319.56V1.11h15.08V34.83Z"/>
        <path class="cls-1" d="M433.81,83.19H418.06L446.34,1.11H466l28.4,82.08H478.62l-5.88-17.3H439.68Zm22.4-66.66L444,52.8h24.4Z"/>
        <path class="cls-1" d="M579.89,56.79V1.11h15V83.19H581.11L543.39,28.51V83.19h-15V1.11h13.75Z"/>
        <path class="cls-1" d="M648.1,83.19H633V1.11H648.1Z"/>
        <path class="cls-1" d="M723.31,84.3q-12.76,0-21.8-6a38.16,38.16,0,0,1-13.64-15.64,47,47,0,0,1-4.61-20.52,47,47,0,0,1,4.61-20.52A38.16,38.16,0,0,1,701.51,6q9-6,21.8-6,11.19,0,19,4.16A31,31,0,0,1,754.2,14.92a37.79,37.79,0,0,1,5.38,14.36h-15a19.61,19.61,0,0,0-6.54-11.09q-5.22-4.55-14.53-4.55a22.38,22.38,0,0,0-13.48,4.05,25.15,25.15,0,0,0-8.43,10.59,35.38,35.38,0,0,0,0,27.73,25.12,25.12,0,0,0,8.43,10.6,22.38,22.38,0,0,0,13.48,4q9.32,0,14.53-4.61a19.86,19.86,0,0,0,6.54-11.14h15a38.2,38.2,0,0,1-5.38,14.41,30.85,30.85,0,0,1-11.93,10.82Q734.52,84.29,723.31,84.3Z"/>
        <path class="cls-1" d="M802,83.19H786.2L814.48,1.11h19.63l28.4,82.08H846.76l-5.88-17.3h-33Zm22.4-66.66L812.15,52.8h24.4Z"/>
        <path class="cls-1" d="M911.65,1.11v69h40.82V83.19H896.56V1.11Z"/>
        <path class="cls-1" d="M1066.6,1.11q12.75,0,21.8,5.82A37.07,37.07,0,0,1,1102,22.13a45.15,45.15,0,0,1,4.55,20,45.15,45.15,0,0,1-4.55,20,37.13,37.13,0,0,1-13.58,15.2q-9,5.82-21.8,5.82h-29.5V1.11Zm-.66,68.77a23.75,23.75,0,0,0,22.62-14.25A32.55,32.55,0,0,0,1091.45,42a32.07,32.07,0,0,0-2.89-13.53,24.42,24.42,0,0,0-8.65-10.26,24.13,24.13,0,0,0-14-3.94h-13.76V69.88Z"/>
        <path class="cls-1" d="M1156.78,83.19h-15.09V1.11h15.09Z"/>
        <path class="cls-1" d="M1227.55,67.88,1250,1.11h15.75l-28.39,82.08h-19.64L1189.39,1.11h15.75Z"/>
        <path class="cls-1" d="M1313.4,83.19h-15.09V1.11h15.09Z"/>
        <path class="cls-1" d="M1403,56.79V1.11h15V83.19h-13.75l-37.71-54.68V83.19h-15V1.11h13.76Z"/>
        <path class="cls-1" d="M1471.24,83.19h-15.09V1.11h15.09Z"/>
        <path class="cls-1" d="M1571.62,1.11V14.2h-25.29v69h-15.09v-69H1506V1.11Z"/>
        <path class="cls-1" d="M1637.84,39.49l19.85-38.38h16.53l-28.84,53.57V83.19h-15V54.68L1601.57,1.11H1618Z"/>
      </g>
    </g>
  </g>
</svg>
