<svg xmlns="http://www.w3.org/2000/svg" width="841.38" height="841.26" viewBox="0 0 841.38 841.26">
  <defs>
    <style>
      .cls-1 {
        fill: #76c043;
      }
    </style>
  </defs>
  <title>de77777</title>
  <g id="Layer_2" data-name="Layer 2">
    <g id="Layer_1-2" data-name="Layer 1">
      <g id="de">
        <g id="_6f4c84a4-7ea2-4ca8-82ba-acf9e375a948-child-0" data-name="6f4c84a4-7ea2-4ca8-82ba-acf9e375a948-child-0">
          <path class="cls-1" d="M841.38,415.48H688c68.58-90.58,93.29-178.54,55.58-230.37-47.13-64.57-177.27-53.62-317.69,17.64V0h-10.4V208.11a843.56,843.56,0,0,0-102.87,64.44c-61,44.53-112.34,93.94-151.25,143H0v10.4H153.37C84.79,516.46,60,604.42,97.81,656.17c47.11,64.58,177.25,53.62,317.67-17.66V841.26h10.4V633.2a842.65,842.65,0,0,0,102.89-64.45c61-44.53,112.34-93.93,151.23-143H841.38ZM652.24,251.72c29.52,40.44,21.55,101.47-14.78,163.76H425.88V237.14C522.82,196.19,613.82,199.15,652.24,251.72ZM327.68,293.21a497.79,497.79,0,0,1,87.8-51.5V415.48H210.23C237.27,372.77,277.33,329.93,327.68,293.21ZM189.12,589.64c-29.52-40.44-21.53-101.47,14.8-163.76H415.48V604.22C318.54,645.17,227.54,642.31,189.12,589.64Zm324.59-41.47a500.26,500.26,0,0,1-87.83,51.48V425.88H631.15C604.11,468.62,564,511.43,513.71,548.17Z"/>
        </g>
      </g>
    </g>
  </g>
</svg>
