<svg xmlns="http://www.w3.org/2000/svg" width="3547.23" height="762.29" viewBox="0 0 3547.23 762.29">
  <defs>
    <style>
      .cls-1 {
        fill: #72cddf;
      }
    </style>
  </defs>
  <title>eee77777</title>
  <g id="Layer_2" data-name="Layer 2">
    <g id="Layer_1-2" data-name="Layer 1">
      <g id="eee">
        <path class="cls-1" d="M67.94,757.85a15.94,15.94,0,0,1-8-.71q-3.15-1.29-6.89-5.87L6.22,693.67a26.73,26.73,0,0,1-4.65-8.76A35.11,35.11,0,0,1,0,674.1V90.5a31.64,31.64,0,0,1,1.26-9.74,33.74,33.74,0,0,1,5-8.94L53.34,8.38a21.67,21.67,0,0,1,5.85-5.87A30.5,30.5,0,0,1,66.45,0H269a15.87,15.87,0,0,1,7.5,1.62Q279.77,3.24,284,8.1l47.2,60.3q5.44,8,5.43,19.24l-.2,139.9q0,8-3.34,12.17-2.39,4.13-9.81,4.33l-96.67,3.42q-6.31.21-9.3-3.77t-3-12.16l.06-53.18v-.82a14,14,0,0,0-.88-4.88,35.8,35.8,0,0,0-1.83-4l-7.31-8.85a16.38,16.38,0,0,0-3.3-2.79,7,7,0,0,0-4.14-1.13l-57.12,1.33a10.61,10.61,0,0,0-3.87.92,8.88,8.88,0,0,0-3.4,2.56l-.37.84-6.92,9.29a20.31,20.31,0,0,0-2.2,4.21,11.87,11.87,0,0,0-1.16,5V572.33a13.37,13.37,0,0,0,1.32,4.45,8.49,8.49,0,0,0,1.77,3.58l6.89,8.5a7.5,7.5,0,0,0,3,2.64,8.6,8.6,0,0,0,4.78.8l56.74-5q4.25-.37,7.55-4.76l6.87-9.57a16.69,16.69,0,0,0,3.19-10.1l.11-92.45q0-5.73-2.52-8.83a7.9,7.9,0,0,0-6.94-2.79L172.8,461q-6.6.46-9.57-3.46t-2.86-12.15l.25-123.71q0-8.25,2.76-12.52,3.06-4.25,9.62-4.56L323.31,298q7.28-.25,9.73,3.65,3.31,3.87,3.3,11.92l-.46,327.23a32.94,32.94,0,0,1-6.3,19.88l-47.42,65.16a22.16,22.16,0,0,1-5.7,6.26,25.79,25.79,0,0,1-7.51,3.22l-1.87.2Z"/>
        <path class="cls-1" d="M630.91,698.93a15.55,15.55,0,0,1-10.41-2.61q-2.93-3.26-3.89-10.15l-8.17-79.24q-.53-7.73-4.53-10.93a12.5,12.5,0,0,0-9.29-2.83l-75.38,5.56a13.63,13.63,0,0,0-9,4.23q-4.14,3.85-4.8,11l-8.88,81.74q-.62,7.92-4.5,11.82a14.21,14.21,0,0,1-9.52,4.41l-100.76,9.56q-6.45.63-9.65-3.86Q368.67,713.16,370,705L464.85,16.6c.8-4.75,2.38-8.3,4.72-10.68q2.35-3.55,8.23-3.55l161-.05A13.52,13.52,0,0,1,648,5.79q3.94,3.48,3.93,10.43l91.77,656.91q1,7.56-2.1,12.38a11.47,11.47,0,0,1-9.32,5.3ZM525.21,440.7a8.36,8.36,0,0,0,1.09,5.81,6.3,6.3,0,0,0,5.32,2.45l51-2.82a6.87,6.87,0,0,0,5.53-3,9.26,9.26,0,0,0,1.65-6L560.19,178c-.73-2.08-1.48-3.1-2.26-3.07q-1.87,0-2.82,3.18Z"/>
        <path class="cls-1" d="M1014.6,672.21q-6.45.39-9.86-2.76a14.79,14.79,0,0,1-4.9-9l-53-228.68a13.55,13.55,0,0,0-2.36-4.77A5.36,5.36,0,0,0,940,425.3l-22.47.92a10.08,10.08,0,0,0-7.15,3.3q-2.46,3.11-2.47,8.37l-.61,225.33q0,7.51-3,11.46a12.46,12.46,0,0,1-9.19,4.37l-98,6.88a11.11,11.11,0,0,1-9.17-3.12q-3.16-3.57-3.14-11.18L786.5,17.49q0-7.6,3.2-11.41t9.55-3.8l252-.06c3.83,0,6.77.5,8.82,1.48a16.17,16.17,0,0,1,6.55,5.92l47.48,55.27a26.33,26.33,0,0,1,6.19,17.66l-.44,255.77a29,29,0,0,1-1.59,9.63,26.59,26.59,0,0,1-4.67,8.23l-38.65,46.26-.78.76a23.22,23.22,0,0,0-3.87,9,45.38,45.38,0,0,0,.75,9.59l57.59,227.07a46.22,46.22,0,0,1-1.16,11.85q-3.14,4.57-9.36,4.91ZM908.34,272.65q0,5.25,2.34,8.19a9.49,9.49,0,0,0,7.22,2.81L979.63,282a10.7,10.7,0,0,0,7.7-3.93l7-8.38a10.61,10.61,0,0,0,2.13-3.77,14.05,14.05,0,0,0,.92-5.24l.21-96.08v-1.49a9.58,9.58,0,0,0-.83-4.08,10.48,10.48,0,0,0-2.17-3.32l-6.86-8.1a13.06,13.06,0,0,0-3.6-2.57,6.66,6.66,0,0,0-4-1l-61.82.84a9.92,9.92,0,0,0-7.3,3.1c-1.53,2-2.3,4.79-2.31,8.3Z"/>
        <path class="cls-1" d="M1419.91,652.9a17.08,17.08,0,0,1-9.78-2.95q-2.85-3.16-3.26-9.66L1397.3,566q0-7.23-3.49-10.4a14.43,14.43,0,0,0-9.76-3L1308.89,555a15,15,0,0,0-9.6,3.6q-4,3.4-4.44,10l-9,75.33q-.42,7.3-5.23,10.78a11.83,11.83,0,0,1-8.43,3.63L1170.54,663q-6.29.31-9.42-3.94t-1.95-11.66l94.62-632q1.21-6.57,4.41-9.86t9.61-3.28l160.26,0q5.31,0,8.18,3.25,3.27,3.26,4.87,9.75l92.49,618.89q1.64,7.16-2.08,11.56a11.06,11.06,0,0,1-9.07,4.52ZM1315,408.65a5.06,5.06,0,0,0,1,5.41,6.24,6.24,0,0,0,4.88,2.44l51.66-1.21a6,6,0,0,0,4.88-2.64,5.85,5.85,0,0,0,1.23-5.46l-29-241.73q-.71-2.9-2.43-2.88c-1.42,0-2.13,1-2.13,2.91Z"/>
        <path class="cls-1" d="M1639.05,650.22a20.8,20.8,0,0,1-8.29-1.33,20.37,20.37,0,0,1-7-5.64l-47.45-53.15a34.09,34.09,0,0,1-5-7.82,47.16,47.16,0,0,1-.85-9.33l.62-494.59V76.92q0-5,.1-8.27,1.65-3.24,6.46-7.56l46.51-53.91a16,16,0,0,1,6.63-5A36.39,36.39,0,0,1,1637.39,0h201.89a18.82,18.82,0,0,1,7.48,1.43,24.93,24.93,0,0,1,7.48,5.74L1901.17,61a25.47,25.47,0,0,1,6.24,17.23l.08,124.87q0,7.18-2.9,10.76-3.31,3.57-9.68,3.54l-97.18-.22q-5.82,0-9.15-3.59t-3.32-10.75V155.53a7,7,0,0,0-1.67-4.3,4.52,4.52,0,0,0-1.66-3.58l-6.65-7.89a11.19,11.19,0,0,0-3.33-2.51,9.33,9.33,0,0,0-5-1.07l-56.53,0a11.62,11.62,0,0,0-3.74.72,7.9,7.9,0,0,0-3,2.16l-.74.71-6.74,7.9a13.66,13.66,0,0,0-2.18,3.59,9.76,9.76,0,0,0-1,4.3V494.78a16.82,16.82,0,0,0,1.24,3.94,8.3,8.3,0,0,0,1.76,3.21l7,7.85a6.72,6.72,0,0,0,3,2.5,9.23,9.23,0,0,0,4.48,1.05l56.53-.15a10.88,10.88,0,0,0,8.31-3.59l6.65-7.88a12.18,12.18,0,0,0,3.33-8.6v-81c0-3.34-.84-6-2.5-7.88a8.83,8.83,0,0,0-7.06-2.87l-32,0q-6.24,0-9.4-3.56-3.57-3.57-3.57-10.74l.14-107.53q0-7.17,3.51-10.76,3.09-3.58,9.32-3.59l151.22.27c4.27,0,7.5,1.23,9.72,3.63q2.89,3.61,2.9,10.78l.19,292.1a25.05,25.05,0,0,1-6.21,17.15l-47.27,53.36a18,18,0,0,1-5.82,5q-1.67,1.42-7.06,2.11l-2.08,0Z"/>
        <path class="cls-1" d="M1984.34,649.29c-4.4-.08-7.71-1.35-9.91-3.78s-3.31-6-3.31-10.84V16.53q0-7.19,3.31-10.78,2.89-3.6,9.09-3.59l276.66,0q6.42,0,9.64,3.64c1.87,2.43,2.82,6.08,2.82,10.94l.2,109.34q0,7.29-2.87,10.91-3.19,3.61-9.53,3.56L2103,139.39c-3.4,0-5.71.93-7,2.85-1.85,1.91-2.77,4.56-2.76,7.92l.17,94.58a11.3,11.3,0,0,0,2.73,8q1.73,2.89,7,3l132.19,1.78q6.21.1,9.43,3.79t3.32,11l.13,107.72q0,7.27-3.13,10.85t-9.5,3.41l-132.27-2.72q-5.4-.1-7,2.76-2.61,2.85-2.6,7.9l.19,101.8a11.83,11.83,0,0,0,2.56,8c.94,1.95,3.26,3,7,3.05l157.68,4.39q6.1.2,9.31,3.94t3.15,11.05l.2,109.34q0,7.29-3.19,10.8t-9.22,3.26Z"/>
        <path class="cls-1" d="M2477.55,668.28q-6.16-.35-9.26-4.22t-3.11-11.26L2463.71,17q0-7.38,3.07-11.08,2.68-3.7,9.24-3.7l97,0A14.55,14.55,0,0,1,2582.45,6q3.38,3.73,3.38,11.21l1.07,642.66q0,7.49-3,11t-9,3.17Z"/>
        <path class="cls-1" d="M2882.68,696.17q-10.66-.85-14.39-13.47L2781,383.39c-.7-2.56-1.87-3.76-3.5-3.57q-2,.27-2,4.84V672.58q0,7.6-2.82,11.21T2764.2,687l-97.83-7a14.44,14.44,0,0,1-9.5-4.41q-3.32-4-3.32-11.5l-1.4-646.81q0-7.53,3.28-11.28,2.55-3.76,9.13-3.76l88.38,0a13.49,13.49,0,0,1,8.47,3,35.37,35.37,0,0,1,5.64,9.14l86.35,293.69q1.07,3.87,3.58,4c1.67.07,2.5-1.7,2.49-5.29l-.84-289.13q0-7.69,3.33-11.54,2.68-3.84,9.39-3.84l96.49,0q6.63,0,10.11,3.9,2.53,3.9,2.55,11.71l1.79,671q0,7.81-3.1,11.44t-8.83,3.13Z"/>
        <path class="cls-1" d="M3114,718.89a19.56,19.56,0,0,1-8.27-2.37,42.37,42.37,0,0,1-6.89-7l-47-63.34a35.7,35.7,0,0,1-5.24-19.3l-1.83-541.16V84.16a19.18,19.18,0,0,1,2.12-9.43c.15-2.61,1.4-5.22,3.73-7.83l46.85-59a34.09,34.09,0,0,1,5.74-5.54A27.53,27.53,0,0,1,3110.57,0h198.85a17.29,17.29,0,0,1,8.13,1.63q3.27,1.64,6.94,6.54l47.1,61.77A31.68,31.68,0,0,1,3378,89.77l.19,184.5q0,8.24-3.24,12.21-3.08,4-9.32,3.71l-97.27-4.07a11.57,11.57,0,0,1-9.22-4.42q-3.23-4.18-3.23-12.27l-.13-93.05v-.81c0-1.61-.08-3.24-.23-4.87-1-1.62-1.89-3-2.68-4.09l-7-9.05a13,13,0,0,0-3.2-2.9,7.36,7.36,0,0,0-4.28-1.29l-53.94-1.16a9.31,9.31,0,0,0-7.64,3.85l-6.94,8.65a17.73,17.73,0,0,0-1.93,3.95,8.54,8.54,0,0,0-1.89,5.57l1.12,375.62v.8a10.32,10.32,0,0,0,1.34,4.87,25.85,25.85,0,0,0,2.1,4.16l7,9.34a16,16,0,0,0,3.2,3.05,7.67,7.67,0,0,0,4.29,1.53l54.48,4.36a6.13,6.13,0,0,0,3.84-.91,14.87,14.87,0,0,0,3.18-2.57h0l6.86-8.34a6.44,6.44,0,0,0,2.15-3.89,18.53,18.53,0,0,0,.73-5.59l-.13-105.18q0-8.1,3.25-11.93t9.15-3.49l97.24,6.22q6.24.41,9.33,4.73,3.25,4.33,3.26,12.57l.2,196.84q0,11.54-6.31,19.13l-46.68,56.64a21.45,21.45,0,0,1-5.82,5.09,23.57,23.57,0,0,1-7,1.7l-2.2-.24Z"/>
        <path class="cls-1" d="M3440.61,750.78q-12-1.39-12.06-18L3428.46,600q0-8.29,3.19-12.16t9-3.35l94.1,8.84q12.52,1.26,12.52,18.17V746.84q0,8.46-3.1,12.28t-9.4,3Z"/>
      </g>
    </g>
  </g>
</svg>
