<svg xmlns="http://www.w3.org/2000/svg" width="826.74" height="758.11" viewBox="0 0 826.74 758.11">
  <defs>
    <style>
      .cls-1 {
        fill: #e7e514;
      }
    </style>
  </defs>
  <title>gt77777</title>
  <g id="Layer_2" data-name="Layer 2">
    <g id="Layer_1-2" data-name="Layer 1">
      <g id="gt">
        <g id="cbe900da-0757-4fa0-9bda-11845e556834-child-0">
          <path class="cls-1" d="M826.74,374.42H676c67.39-81.64,91.67-160.9,54.62-207.61-46.31-58.19-174.19-48.32-312.17,15.9V0H408.25V187.54a843.56,843.56,0,0,0-101.08,58.08c-60,40.12-110.38,84.64-148.62,128.84H0v9.37H150.7C83.32,465.42,58.93,544.68,96.11,591.32c46.29,58.19,174.16,48.32,312.14-15.92V758.11h10.21V570.61a841.75,841.75,0,0,0,101.11-58.07C579.52,472.41,630,427.89,668.16,383.69H826.74ZM640.89,226.84c29,36.45,21.17,91.44-14.53,147.58H418.46V213.7C513.72,176.8,603.13,179.47,640.89,226.84ZM322,264.23a501.42,501.42,0,0,1,86.27-46.41v156.6H206.57C233.14,335.92,272.5,297.32,322,264.23ZM185.82,531.36c-29-36.45-21.14-91.44,14.56-147.58H408.25V544.5C313,581.4,223.58,578.83,185.82,531.36ZM504.76,494a503,503,0,0,1-86.3,46.39V383.78H620.17C593.6,422.3,554.21,460.88,504.76,494Z"/>
        </g>
      </g>
    </g>
  </g>
</svg>
