<svg xmlns="http://www.w3.org/2000/svg" width="1229.28" height="1229.09" viewBox="0 0 1229.28 1229.09">
  <defs>
    <style>
      .cls-1 {
        fill: #5ebc62;
      }
    </style>
  </defs>
  <title>hy77777</title>
  <g id="Layer_2" data-name="Layer 2">
    <g id="Layer_1-2" data-name="Layer 1">
      <g id="hy">
        <g id="c48e7390-49e7-4bd0-b356-4ccb669be9a7-child-0">
          <path class="cls-1" d="M1229.28,607H1005.16c100.2-132.35,136.31-260.86,81.21-336.58-68.86-94.34-259-78.34-464.16,25.77V0H607V304.06a1229.91,1229.91,0,0,0-150.29,94.15c-89.16,65.05-164.14,137.24-221,208.89H0v15.19H224.08C123.88,754.56,87.62,883.07,142.91,958.68,211.73,1053,401.86,1037,607,932.87v296.22h15.18v-304A1231.6,1231.6,0,0,0,772.54,831c89.16-65.06,164.13-137.24,221-208.9h235.79ZM952.94,367.77C996.06,426.86,984.42,516,931.34,607H622.21V346.47C763.85,286.64,896.8,291,952.94,367.77Zm-474.2,60.62A726.62,726.62,0,0,1,607,353.15V607H307.15C346.66,544.62,405.18,482,478.74,428.39ZM276.3,861.47c-43.12-59.09-31.44-148.24,21.64-239.26H607V882.77C465.39,942.61,332.44,938.43,276.3,861.47Zm474.23-60.58a730.22,730.22,0,0,1-128.32,75.2V622.21H922.13C882.62,684.66,824.06,747.21,750.53,800.89Z"/>
        </g>
      </g>
    </g>
  </g>
</svg>
