<svg xmlns="http://www.w3.org/2000/svg" width="3288.44" height="1626.7" viewBox="0 0 3288.44 1626.7">
  <defs>
    <style>
      .cls-1 {
        fill: #6d54a3;
      }
    </style>
  </defs>
  <title>lo77777</title>
  <g id="Layer_2" data-name="Layer 2">
    <g id="Layer_1-2" data-name="Layer 1">
      <g id="lo">
        <path class="cls-1" d="M250.26,1626.7q-123.87,0-187.07-65.69T0,1370.18V1001.05H231.49v359.12q0,17.52,8.76,27.53t23.78,10h0q15,0,23.77-10.64t8.76-26.9V1054.85q0-25-6.26-41.92a80.56,80.56,0,0,0-18.77-29.4L68.82,780.82q-37.53-37.55-53.18-80.71T0,591.87V256.52Q0,131.39,63.19,65.69T250.26,0h27.53Q401.67,0,464.86,65.69t63.19,190.83V625.65H296.56V266.53q0-16.27-8.76-26.9T264,229h0q-15,0-23.78,10t-8.76,27.53V574.35q0,25,6.26,41.92a80.69,80.69,0,0,0,18.77,29.4L459.23,848.39q37.54,37.53,53.18,80.71t15.64,108.23v332.85q0,125.13-63.19,190.83T277.79,1626.7Z"/>
        <path class="cls-1" d="M868.41,1286.34H794.58l-15,327.85H548.07L700.73,12.51H961l153.91,1601.68H883.42Zm-8.76-217.72L833.37,465.49h-3.75l-26.28,603.13Z"/>
        <path class="cls-1" d="M1382.69,1626.7q-123.87,0-187.07-65.69t-63.19-190.83V256.52q0-125.13,63.19-190.83T1382.69,0h27.53q123.89,0,187.07,65.69t63.19,190.83V700.73H1429V266.53q0-17.52-8.76-27.53t-23.77-10h0q-15,0-23.78,10t-8.76,27.53V1360.17q0,17.52,8.76,27.53t23.78,10h0q15,0,23.77-10t8.76-27.53V916h231.49v454.22q0,125.13-63.19,190.83t-187.07,65.69Z"/>
        <path class="cls-1" d="M2028.37,1614.19q-7.51-18.78-11.89-46.93a369.83,369.83,0,0,1-4.38-56.93l1.25-518q0-18.78-10.63-29.41t-29.41-10.64h-25v662h-229V12.51h296.56q110.12,0,167.67,57.56t57.56,167.68V722q0,41.29-11.26,67t-40,36.91q28.77,11.26,40,36.92t11.26,66.94v545.57q0,91.35,18.77,138.9Zm-55.06-889.68q18.76,0,29.41-10.64t10.63-29.41V281.54q0-18.77-10.63-29.4t-29.41-10.64h-25v483Z"/>
        <path class="cls-1" d="M2312.42,12.51h394.16v229H2543.91V693.22h162.67v229H2543.91v463h162.67v229H2312.42Z"/>
        <path class="cls-1" d="M2764.14,12.51H3063.2q110.12,0,167.68,57.56t57.56,167.68V1389q0,110.11-57.56,167.68t-167.68,57.56H2764.14ZM3020.66,1385.2q18.77,0,29.4-10.64t10.64-29.4V281.54q0-18.77-10.64-29.4t-29.4-10.64h-25V1385.2Z"/>
      </g>
    </g>
  </g>
</svg>
