<svg xmlns="http://www.w3.org/2000/svg" width="1757.31" height="423.86" viewBox="0 0 1757.31 423.86">
  <defs>
    <style>
      .cls-1 {
        stroke: #fff;
        stroke-linecap: round;
        stroke-miterlimit: 10;
        stroke-width: 13.18px;
      }

      .cls-2 {
        fill: #fff;
      }
    </style>
  </defs>
  <title>mj77777</title>
  <g id="Layer_2" data-name="Layer 2">
    <g id="Layer_1-2" data-name="Layer 1">
      <g id="mj">
        <g id="e27d1a00-dbb0-4f90-9ff0-188750c2ea27">
          <g id="e27d1a00-dbb0-4f90-9ff0-188750c2ea27-child-0">
            <path class="cls-1" d="M6.59,417.27V6.68H416V417.27Z"/>
          </g>
        </g>
        <g id="_647a0ef5-9e2d-41cf-a611-dc9c76cc1a2a" data-name="647a0ef5-9e2d-41cf-a611-dc9c76cc1a2a">
          <g id="_647a0ef5-9e2d-41cf-a611-dc9c76cc1a2a-child-0" data-name="647a0ef5-9e2d-41cf-a611-dc9c76cc1a2a-child-0">
            <path class="cls-1" d="M415.68,416.92V6.59h1335V416.92Z"/>
          </g>
        </g>
        <g id="babd86d4-61d5-4023-8eea-64190a77dcea">
          <g id="babd86d4-61d5-4023-8eea-64190a77dcea-child-0">
            <path class="cls-1" d="M416,416.81V212.38H1750.72V416.81Z"/>
          </g>
        </g>
        <g id="_6a63abcd-222f-4c1e-9d52-94a46306d9ed" data-name="6a63abcd-222f-4c1e-9d52-94a46306d9ed">
          <g>
            <path class="cls-2" d="M538.49,75.49c20.14,0,25.17,4.35,25.17,21.88,0,12.49-4.65,18.4-15.2,19.85,10.07,1.06,15.2,5.52,15.2,15.2V151h-21.3V133.58c0-8.32-1.07-9.2-11.62-9.2H515.63V151H495.3V75.49Zm-5.23,33.4c9.1,0,10.07-.87,10.07-8.62,0-7.45-1-8.32-10.07-8.32H515.63v16.94Z"/>
            <path class="cls-2" d="M686.86,75.49V92.91H645.23v11.62H683V121H645.23v12.59h41.83V151H624.89V75.49Z"/>
            <path class="cls-2" d="M781.21,135.71c13.17,0,14.72-.58,14.72-6.1,0-4.35-3.78-6.19-18-9C753.23,115.67,747,111,747,97c0-18.11,7.17-22.66,34.76-22.66,27.79,0,35,5.52,35,27.6H795.44c0-10.07-1.45-11.14-13.65-11.14-12,0-13.46.68-13.46,6.4,0,4,2.81,5.42,13.07,7.55,28.28,5.52,35.83,10.75,35.83,26,0,17.23-7.26,21.49-35.44,21.49-28.95,0-36.41-5.32-36.41-26.53h21.31C766.69,134.74,768.24,135.71,781.21,135.71Z"/>
            <path class="cls-2" d="M896.28,92.91H873.14V75.49H940V92.91H916.61V151H896.28Z"/>
            <path class="cls-2" d="M1041,75.49c20.14,0,25.17,4.35,25.17,21.88,0,12.49-4.65,18.4-15.2,19.85,10.07,1.06,15.2,5.52,15.2,15.2V151h-21.3V133.58c0-8.32-1.07-9.2-11.62-9.2h-15.1V151H997.79V75.49Zm-5.23,33.4c9.1,0,10.07-.87,10.07-8.62,0-7.45-1-8.32-10.07-8.32h-17.62v16.94Z"/>
            <path class="cls-2" d="M1127.38,75.49h20.34V151h-20.34Z"/>
            <path class="cls-2" d="M1285,119c.19,26.53-7.46,33.21-38.34,33.21S1208,144.43,1208,113.25s7.75-38.93,38.64-38.93,38.53,6.59,38.34,33h-21.3c.19-14.91-1.55-16.56-17-16.56s-17.34,2.23-17.34,22.47,1.75,22.46,17.34,22.46,17.23-1.64,17-16.75Z"/>
            <path class="cls-2" d="M1364,92.91h-23.14V75.49h66.81V92.91h-23.34V151H1364Z"/>
            <path class="cls-2" d="M1527.49,75.49V92.91h-41.63v11.62h37.76V121h-37.76v12.59h41.82V151h-62.16V75.49Z"/>
            <path class="cls-2" d="M1609.15,113.25l.1,20.33h16.56c13.75,0,15.3-2,15.3-20.33s-1.55-20.34-15.3-20.34h-16.56Zm-20.23-37.76h39c27.59,0,34.47,7.55,34.47,37.76S1655.53,151,1627.94,151h-39Z"/>
          </g>
        </g>
        <g id="_35726334-57dc-482a-9a45-f22f068adaee" data-name="35726334-57dc-482a-9a45-f22f068adaee">
          <g>
            <path class="cls-2" d="M536.78,283.67c0,13.1-3.4,16.35-17,16.35s-17-3.25-17-16.35V261H513v22.64c0,7.19.69,8,6.7,8s6.7-.79,6.7-8V261h10.34Z"/>
            <path class="cls-2" d="M544.16,261H554l17,21h.29V261h10.34v38.4h-9.75l-17-20.93h-.3v20.93H544.16Z"/>
            <path class="cls-2" d="M599.75,280.23l0,10.34h8.42c7,0,7.78-1,7.78-10.34s-.79-10.34-7.78-10.34H599.8ZM589.46,261H609.3c14,0,17.53,3.84,17.53,19.2s-3.49,19.2-17.53,19.2H589.46Z"/>
            <path class="cls-2" d="M665.24,261v8.86H644.06v5.91h19.21v8.37H644.06v6.4h21.27v8.86H633.72V261Z"/>
            <path class="cls-2" d="M694.68,261c10.24,0,12.8,2.21,12.8,11.12,0,6.35-2.36,9.36-7.73,10.1,5.12.54,7.73,2.8,7.73,7.73v9.45H696.65v-8.86c0-4.24-.54-4.68-5.91-4.68h-7.68v13.54H672.72V261ZM692,278c4.63,0,5.12-.44,5.12-4.38s-.49-4.23-5.12-4.23h-9V278Z"/>
            <path class="cls-2" d="M741,273.88h-9.35V267h4.48c4.28,0,5.37-.93,5.37-6h8.86v38.4H741Z"/>
            <path class="cls-2" d="M788.33,261v6.89l-14.62,31.51H762.33l13.89-30-11.87,0v6.45H756V261Z"/>
            <path class="cls-2" d="M833.68,261c10.24,0,12.8,2.21,12.8,11.12,0,6.35-2.36,9.36-7.73,10.1,5.12.54,7.73,2.8,7.73,7.73v9.45H835.65v-8.86c0-4.24-.55-4.68-5.91-4.68h-7.68v13.54H811.72V261ZM831,278c4.63,0,5.12-.44,5.12-4.38s-.49-4.23-5.12-4.23h-9V278Z"/>
            <path class="cls-2" d="M885.38,261v8.86H864.2v5.91h19.21v8.37H864.2v6.4h21.27v8.86H853.86V261Z"/>
            <path class="cls-2" d="M913.34,291.06c6.9,0,7.68-1.08,7.68-10.83,0-10.29-.93-11.43-9.15-11.43s-9.16,1.14-9.16,11.43c0,9.75.88,10.83,8.76,10.83Zm-21.46-10.83c0-15.86,4-19.8,20-19.8s20,3.94,20,19.8c0,6.45-2.32,9.85-7.59,10.83h9.06v8.37H911.87C895.86,299.43,891.88,295.59,891.88,280.23Z"/>
            <path class="cls-2" d="M973.81,283.67c0,13.1-3.4,16.35-17,16.35s-17-3.25-17-16.35V261h10.34v22.64c0,7.19.69,8,6.7,8s6.7-.79,6.7-8V261h10.34Z"/>
            <path class="cls-2" d="M981.19,261h10.34v38.4H981.19Z"/>
            <path class="cls-2" d="M1021.37,261c10.24,0,12.8,2.21,12.8,11.12,0,6.35-2.36,9.36-7.73,10.1,5.12.54,7.73,2.8,7.73,7.73v9.45h-10.83v-8.86c0-4.24-.54-4.68-5.91-4.68h-7.68v13.54H999.41V261Zm-2.66,17c4.63,0,5.12-.44,5.12-4.38s-.49-4.23-5.12-4.23h-9V278Z"/>
            <path class="cls-2" d="M1073.07,261v8.86H1051.9v5.91h19.2v8.37h-19.2v6.4h21.27v8.86h-31.61V261Z"/>
            <path class="cls-2" d="M1097.29,291.65c6.7,0,7.49-.29,7.49-3.1,0-2.22-1.92-3.15-9.16-4.58-12.56-2.51-15.71-4.87-15.71-12,0-9.21,3.65-11.53,17.68-11.53s17.77,2.81,17.77,14h-10.83c0-5.12-.74-5.67-6.94-5.67s-6.85.35-6.85,3.25c0,2,1.43,2.76,6.65,3.84,14.38,2.81,18.22,5.47,18.22,13.2,0,8.76-3.69,10.93-18,10.93-14.72,0-18.51-2.71-18.51-13.49h10.83C1089.91,291.16,1090.7,291.65,1097.29,291.65Z"/>
            <path class="cls-2" d="M1180.11,299.43h-11.82l-2.07-7.48h-14.77l-2.31,7.48H1138l12.66-38.4h17.13Zm-16.45-15.85-4.57-14.18h-.3l-4.68,14.18Z"/>
            <path class="cls-2" d="M1223.93,283.13c.1,13.49-3.79,16.89-19.5,16.89s-19.64-3.94-19.64-19.79,3.94-19.8,19.64-19.8,19.6,3.35,19.5,16.79H1213.1c.1-7.58-.79-8.42-8.67-8.42s-8.81,1.14-8.81,11.43.89,11.42,8.81,11.42,8.77-.84,8.67-8.52Z"/>
            <path class="cls-2" d="M1269,283.13c.1,13.49-3.79,16.89-19.49,16.89s-19.65-3.94-19.65-19.79,3.94-19.8,19.65-19.8,19.59,3.35,19.49,16.79h-10.83c.1-7.58-.79-8.42-8.66-8.42s-8.82,1.14-8.82,11.43.89,11.42,8.82,11.42,8.76-.84,8.66-8.52Z"/>
            <path class="cls-2" d="M1294.83,268.8c-8.22,0-9.11,1.14-9.11,11.43s.89,11.42,9.11,11.42,9.11-1.13,9.11-11.42S1303.06,268.8,1294.83,268.8Zm-19.94,11.43c0-15.86,4-19.8,19.94-19.8s19.94,3.94,19.94,19.8-4,19.79-19.94,19.79S1274.89,296.08,1274.89,280.23Z"/>
            <path class="cls-2" d="M1321.67,299.43V261h18.71l5.76,28.55h.39l5.81-28.55h18.17v38.4h-10.34V270.87h-.3l-5.81,28.56h-16l-5.76-28.56H1332v28.56Z"/>
            <path class="cls-2" d="M1400.35,261c10.24,0,12.8,2.56,12.8,12.8,0,9.94-2.36,12.55-11.92,13h-12.5v12.56h-10.34V261Zm-2.66,17c4.63,0,5.12-.39,5.12-4.13,0-4-.49-4.48-5.12-4.48h-9V278Z"/>
            <path class="cls-2" d="M1457,299.43h-11.82l-2.06-7.48h-14.78l-2.31,7.48h-11.13l12.66-38.4h17.13Zm-16.44-15.85L1436,269.4h-.3L1431,283.58Z"/>
            <path class="cls-2" d="M1462.14,261h9.8l17,21h.29V261h10.34v38.4h-9.75l-17-20.93h-.3v20.93h-10.34Z"/>
            <path class="cls-2" d="M1530.78,284.66h-1.48v14.77H1519V284.66h-1.82L1505.22,261h11.62l7.19,15.8h.3l7-15.8h11Z"/>
            <path class="cls-2" d="M1548,261h10.34v38.4H1548Z"/>
            <path class="cls-2" d="M1566.18,261h9.8l17,21h.3V261h10.34v38.4h-9.75l-17-20.93h-.29v20.93h-10.34Z"/>
            <path class="cls-2" d="M1649.19,278.85v20.58h-9.35v-6.15c-1.23,4.67-4.38,6.74-9.95,6.74-15.51,0-19.4-3.94-19.4-19.79s3.89-19.8,19.4-19.8,19.4,2.86,19.3,14.28h-10.83c.1-5.31-.74-5.91-8.47-5.91s-8.57,1.14-8.57,11.43.84,11.42,8.57,11.42c5.91,0,8.57-1.48,8.77-4.92h-7.88v-7.88Z"/>
            <path class="cls-2" d="M643.23,330c10.24,0,12.8,2.56,12.8,12.8,0,9.94-2.36,12.55-11.92,13.05h-12.5v12.55H621.27V330Zm-2.66,17c4.63,0,5.12-.39,5.12-4.13,0-4-.49-4.48-5.12-4.48h-9v8.61Z"/>
            <path class="cls-2" d="M699.85,368.36H688L686,360.88H671.19l-2.31,7.48H657.75L670.41,330h17.13Zm-16.44-15.85-4.58-14.18h-.3l-4.68,14.18Z"/>
            <path class="cls-2" d="M727.47,330c10.24,0,12.8,2.21,12.8,11.12,0,6.36-2.36,9.36-7.73,10.1,5.12.54,7.73,2.81,7.73,7.73v9.45H729.44V359.5c0-4.23-.54-4.68-5.91-4.68h-7.68v13.54H705.51V330Zm-2.66,17c4.63,0,5.12-.44,5.12-4.38s-.49-4.23-5.12-4.23h-9v8.61Z"/>
            <path class="cls-2" d="M779.17,330v8.86H758v5.91h19.2v8.37H758v6.4h21.27v8.86H747.66V330Z"/>
            <path class="cls-2" d="M786.66,330h9.79l17,21h.3V330h10.34v38.4h-9.75l-17-20.92H797v20.92H786.66Z"/>
            <path class="cls-2" d="M841.51,338.82H829.74V330h34v8.86H851.85v29.54H841.51Z"/>
            <path class="cls-2" d="M906.06,337.74c-8.23,0-9.11,1.13-9.11,11.42s.88,11.42,9.11,11.42,9.1-1.13,9.1-11.42S914.28,337.74,906.06,337.74Zm-19.95,11.42c0-15.85,4-19.79,19.95-19.79S926,333.31,926,349.16,922,369,906.06,369,886.11,365,886.11,349.16Z"/>
            <path class="cls-2" d="M954.85,330c10.24,0,12.8,2.21,12.8,11.12,0,6.36-2.36,9.36-7.73,10.1,5.12.54,7.73,2.81,7.73,7.73v9.45H956.82V359.5c0-4.23-.54-4.68-5.91-4.68h-7.68v13.54H932.89V330Zm-2.66,17c4.63,0,5.12-.44,5.12-4.38s-.49-4.23-5.12-4.23h-9v8.61Z"/>
            <path class="cls-2" d="M1032.64,368.36h-11.81l-2.07-7.48H1004l-2.32,7.48H990.55L1003.2,330h17.14Zm-16.44-15.85-4.58-14.18h-.3l-4.67,14.18Z"/>
            <path class="cls-2" d="M1048.6,349.16l.05,10.34h8.42c7,0,7.78-1,7.78-10.34s-.79-10.34-7.78-10.34h-8.42ZM1038.31,330h19.84c14,0,17.53,3.84,17.53,19.2s-3.5,19.2-17.53,19.2h-19.84Z"/>
            <path class="cls-2" d="M1116.15,352.61c0,13.09-3.4,16.34-17,16.34s-17-3.25-17-16.34V330h10.34v22.65c0,7.18.69,8,6.69,8s6.7-.79,6.7-8V330h10.34Z"/>
            <path class="cls-2" d="M1133.88,330V359.5h18.71v8.86h-29V330Z"/>
            <path class="cls-2" d="M1167.8,338.82H1156V330h34v8.86h-11.87v29.54H1167.8Z"/>
            <path class="cls-2" d="M1251.11,347.78v20.58h-9.36v-6.15c-1.23,4.68-4.38,6.74-9.94,6.74-15.51,0-19.4-3.94-19.4-19.79s3.89-19.79,19.4-19.79,19.4,2.85,19.3,14.28h-10.83c.1-5.32-.74-5.91-8.47-5.91s-8.57,1.13-8.57,11.42.84,11.42,8.57,11.42c5.91,0,8.57-1.47,8.76-4.92h-7.87v-7.88Z"/>
            <path class="cls-2" d="M1292.08,352.61c0,13.09-3.4,16.34-17,16.34s-17-3.25-17-16.34V330h10.34v22.65c0,7.18.69,8,6.7,8s6.7-.79,6.7-8V330h10.34Z"/>
            <path class="cls-2" d="M1338.36,368.36h-11.82l-2.07-7.48H1309.7l-2.31,7.48h-11.13l12.65-38.4h17.14Zm-16.45-15.85-4.58-14.18H1317l-4.68,14.18Z"/>
            <path class="cls-2" d="M1366,330c10.24,0,12.8,2.21,12.8,11.12,0,6.36-2.36,9.36-7.73,10.1,5.12.54,7.73,2.81,7.73,7.73v9.45H1368V359.5c0-4.23-.54-4.68-5.91-4.68h-7.68v13.54H1344V330Zm-2.66,17c4.63,0,5.12-.44,5.12-4.38s-.49-4.23-5.12-4.23h-9v8.61Z"/>
            <path class="cls-2" d="M1396.46,349.16l0,10.34h8.42c7,0,7.78-1,7.78-10.34s-.79-10.34-7.78-10.34h-8.42ZM1386.17,330H1406c14,0,17.53,3.84,17.53,19.2s-3.5,19.2-17.53,19.2h-19.84Z"/>
            <path class="cls-2" d="M1430.43,330h10.34v38.4h-10.34Z"/>
            <path class="cls-2" d="M1488,368.36h-11.82l-2.07-7.48h-14.77l-2.31,7.48h-11.13L1458.6,330h17.13Zm-16.45-15.85L1467,338.33h-.3L1462,352.51Z"/>
            <path class="cls-2" d="M1493.21,330h9.8l17,21h.3V330h10.34v38.4h-9.75l-17-20.92h-.29v20.92h-10.34Z"/>
          </g>
        </g>
        <g id="_683cac7f-8544-4332-8732-f4e5641982d5" data-name="683cac7f-8544-4332-8732-f4e5641982d5">
          <g id="_683cac7f-8544-4332-8732-f4e5641982d5-child-0" data-name="683cac7f-8544-4332-8732-f4e5641982d5-child-0">
            <path class="cls-2" d="M327,99.92c-30.93-29.83-72-46.26-115.75-46.26S126.47,70.09,95.54,99.92,47.43,169.64,47.43,212,64.51,294.13,95.54,324s72,46.25,115.75,46.25S296.11,353.87,327,324,375.15,254.32,375.15,212,358.07,129.84,327,99.92ZM71.1,222.31H122c0,.57,0,1.14.09,1.73a216,216,0,0,0,8.56,49.81H86.3A130.37,130.37,0,0,1,71.1,222.31Zm195.09-75.4a167.8,167.8,0,0,1,12.42,53.85H219.53V146.91Zm-46.67-21.54V88.2a125.18,125.18,0,0,1,35.55,37.19Zm-21.73-37v37H164.61A114.77,114.77,0,0,1,197.79,88.35Zm0,58.56v53.85h-54a185.16,185.16,0,0,1,10.82-53.85ZM122,200.76H71.19A130.52,130.52,0,0,1,88.1,146.91h43.47A204.79,204.79,0,0,0,122,200.76Zm21.81,22.08v-.53h54.06v51.54H153.46A194.46,194.46,0,0,1,143.76,222.84Zm54,72.55v40.28c-12.93-8.05-24.27-20.45-33.31-36.67-.68-1.18-1.3-2.39-1.94-3.61Zm21.74,39.31V295.39h37.71A118.64,118.64,0,0,1,219.53,334.7Zm0-60.85V222.31h59.21a165.79,165.79,0,0,1-10.93,51.54Zm81-51.54h51a130.36,130.36,0,0,1-15.19,51.54H290.92A190.15,190.15,0,0,0,300.5,222.31Zm-.11-21.55a191.54,191.54,0,0,0-10.92-53.85h45a130.51,130.51,0,0,1,16.9,53.85Zm18.79-75.37H280c-.07-.12-.12-.24-.18-.35a152.2,152.2,0,0,0-34.68-44.31A141.71,141.71,0,0,1,319.18,125.39ZM171,82.39a144.6,144.6,0,0,0-30.88,43H103.4A141.51,141.51,0,0,1,171,82.39Zm-70.34,213h37.8q3.19,7.26,7,14a130.59,130.59,0,0,0,24.34,31.8,141.21,141.21,0,0,1-69.07-45.82Zm143.44,48.1a144,144,0,0,0,34.27-41.37q1.86-3.31,3.55-6.71h39.9a141.47,141.47,0,0,1-77.7,48.08Z"/>
          </g>
        </g>
      </g>
    </g>
  </g>
</svg>
