<svg xmlns="http://www.w3.org/2000/svg" width="858.09" height="272.41" viewBox="0 0 858.09 272.41">
  <defs>
    <style>
      .cls-1 {
        fill: #037c8a;
      }
    </style>
  </defs>
  <title>nh77777</title>
  <g id="Layer_2" data-name="Layer 2">
    <g id="Layer_1-2" data-name="Layer 1">
      <g id="nh">
        <path class="cls-1" d="M0,0H67V39H39.37v76.82H64.91v39.16H39.37V272.41H0Z"/>
        <path class="cls-1" d="M76.19,0h67V39H115.56v76.82h27.67v39H115.56v78.74h27.67v39h-67Z"/>
        <path class="cls-1" d="M153,0h53.42l10.64,205.16h.42L228.14,0h53.42V272.41H242.62V146.85L246,73.64h-1.28L232.4,272.41H202.18L189.84,73.64h-1.28l3.4,73.21V272.41H153Z"/>
        <path class="cls-1" d="M293.05,0h39.38V272.41H293.05Z"/>
        <path class="cls-1" d="M343.92,0h42.77l26.18,196.22h.64l-5.32-54.06V0H446.5V272.41H403.72L377.12,76.19h-.64l5.32,57.25v139H343.92Z"/>
        <path class="cls-1" d="M458,0h39.37V272.41H458Z"/>
        <path class="cls-1" d="M508.85,0h42.78l26.18,196.22h.64l-5.32-54.06V0h38.3V272.41H568.66L542.05,76.19h-.63l5.32,57.25v139H508.85Z"/>
        <path class="cls-1" d="M622.93,0H662.3V272.41H622.93Z"/>
        <path class="cls-1" d="M692.3,39.16H670.81V0H753V39.16H731.68V272.41H692.3Z"/>
        <path class="cls-1" d="M757.43,0h42.35L807,102.37h1.48L815.74,0h42.35L827.45,177.92v94.49H788.07V177.92Z"/>
      </g>
    </g>
  </g>
</svg>
