<svg xmlns="http://www.w3.org/2000/svg" width="1627.23" height="345.82" viewBox="0 0 1627.23 345.82">
  <defs>
    <style>
      .cls-1 {
        fill: #ef3c23;
      }
    </style>
  </defs>
  <title>ooo77777</title>
  <g id="Layer_2" data-name="Layer 2">
    <g id="Layer_1-2" data-name="Layer 1">
      <g id="ooo">
        <path class="cls-1" d="M86.84,292.33l2.13-.42-2.45,36.71L0,345.82l.14-2.16a31.63,31.63,0,0,0,4.75-8.41,32.4,32.4,0,0,0,1.93-9.17L16.94,174.35a25.75,25.75,0,0,0-.73-8.64A16.26,16.26,0,0,0,12.47,159l.14-2.16,82.27-16.35-2.41,36.18-2.12.42a17.07,17.07,0,0,0-7.11-3.39,21.45,21.45,0,0,0-8.65.12l-27.07,5.38L44.6,222.92l12.21-2.42a33,33,0,0,0,8.84-3.09,31.82,31.82,0,0,0,7.72-5.8l2.13-.42-2.6,38.88-2.12.42a16.31,16.31,0,0,0-7.14-2.84A25.4,25.4,0,0,0,55,248l-12.21,2.42-3.89,58.32,31.32-6.22a27,27,0,0,0,8.74-3.47A34.17,34.17,0,0,0,86.84,292.33Z"/>
        <path class="cls-1" d="M98.07,324.2a50.32,50.32,0,0,0,9.59-14.15l43.5-90.37-32.49-70.59a28.76,28.76,0,0,0-7.21-9.76l.14-2.16,45.13-8.91-.14,2.16a44.08,44.08,0,0,0-1.67,7.39,11,11,0,0,0,.8,5.57l17.12,41.93,23-49.8a15.12,15.12,0,0,0,1.58-6,34.3,34.3,0,0,0-.72-6.92l.15-2.16,45.14-8.8-.14,2.16a59.82,59.82,0,0,0-8.72,12.88L190.19,212l32.44,75.47a24.27,24.27,0,0,0,7.94,10.72l-.15,2.16-45.15,8.8.15-2.16a25.33,25.33,0,0,0,1.8-7.42,15.92,15.92,0,0,0-1.11-6.84l-17.49-44.27-24.2,52.45a22,22,0,0,0-2.07,7.47,19.22,19.22,0,0,0,.85,6.89l-.14,2.16-45.13,8.91Z"/>
        <path class="cls-1" d="M252.87,109.48l101-19.29-2.54,38.07-2.13.4a15.87,15.87,0,0,0-7-4.94,17.14,17.14,0,0,0-8.64-.37l-16.48,3.12-9.39,140.66a25.88,25.88,0,0,0,.74,8.66,16.34,16.34,0,0,0,3.75,6.75L312,284.7l-42.52,8.13.14-2.16a31.8,31.8,0,0,0,4.76-8.38,32.32,32.32,0,0,0,1.92-9.16l9.39-140.66-16.47,3.16a23.9,23.9,0,0,0-8.91,3.72,33.91,33.91,0,0,0-7.86,7.78l-2.12.41Z"/>
        <path class="cls-1" d="M360.28,273.49a31.82,31.82,0,0,0,4.76-8.36A32.18,32.18,0,0,0,367,256l10.13-151.73a26,26,0,0,0-.74-8.67,16.38,16.38,0,0,0-3.75-6.76l.15-2.16,49.49-9.13q24.22-4.38,36.72,7.66t10.67,39.32a77.12,77.12,0,0,1-8.37,30.7,61.51,61.51,0,0,1-19.67,22.58l16.75,64.51q1.49,5.34,7.63,12l-.15,2.16L429.06,263l-18-73.56-8.78,1.61-3.95,59.13a25.62,25.62,0,0,0,.74,8.66,16.45,16.45,0,0,0,3.75,6.78l-.14,2.16-42.58,7.87Zm49.24-111.76q13.05-2.39,19.6-10t7.48-21.35q.91-13.77-4.79-19t-18.74-2.86l-5.32,1L404.2,162.7Z"/>
        <path class="cls-1" d="M572.06,202.23l2.14-.35-2.45,36.72-87,14.54.14-2.16a31,31,0,0,0,4.77-8.3,32,32,0,0,0,1.93-9.14L501.72,81.81a26.05,26.05,0,0,0-.74-8.68,16.93,16.93,0,0,0-3.76-6.82l.14-2.16L580.09,50.3l-2.42,36.18-2.13.34a18,18,0,0,0-7.16-3.65,21.7,21.7,0,0,0-8.7-.18l-27.23,4.52-2.92,43.74,12.28-2.05a32.27,32.27,0,0,0,8.9-2.81,30.55,30.55,0,0,0,7.76-5.55l2.14-.35L558,159.37l-2.13.34a17,17,0,0,0-7.19-3.09,26.18,26.18,0,0,0-8.72.11l-12.28,2.06L523.8,217.1l31.5-5.22a26.26,26.26,0,0,0,8.8-3.16A32.77,32.77,0,0,0,572.06,202.23Z"/>
        <path class="cls-1" d="M750.58,28.18a29.07,29.07,0,0,0-4.81,8.08,31,31,0,0,0-1.93,9.08L733.71,197.07a26,26,0,0,0,.75,8.74,18,18,0,0,0,3.79,7l-.14,2.16-43,5.44.14-2.16a29.36,29.36,0,0,0,4.8-8.12,31.16,31.16,0,0,0,1.93-9.09l7.39-110.69-38.81,75.89-3,.41-29.5-66.59-7.4,111a26,26,0,0,0,.74,8.71,17.33,17.33,0,0,0,3.78,6.93l-.15,2.16-42.8,6.49.14-2.16a30.56,30.56,0,0,0,4.79-8.23,31.7,31.7,0,0,0,1.93-9.11L609.31,64.12a25.94,25.94,0,0,0-.74-8.7,17.25,17.25,0,0,0-3.77-6.9l.14-2.16,42.81-6.49,25.47,63.46,34.55-71.86,43-5.45Z"/>
        <path class="cls-1" d="M849.81,166.83l2.16-.19-2.45,36.72-87.77,8.87.15-2.16a28.93,28.93,0,0,0,4.81-8,30.83,30.83,0,0,0,1.93-9.06L778.77,41.23a26.12,26.12,0,0,0-.75-8.76,18.18,18.18,0,0,0-3.8-7.07l.15-2.16,83.45-8.48L855.4,50.93l-2.16.2A19.86,19.86,0,0,0,846,47a22.13,22.13,0,0,0-8.78-.79l-27.46,2.72-2.92,43.74,12.38-1.26a30.89,30.89,0,0,0,9-2.22,28.34,28.34,0,0,0,7.83-5l2.15-.2-2.59,38.88-2.16.2a18.51,18.51,0,0,0-7.25-3.6,26.25,26.25,0,0,0-8.8-.48L805,120.15l-3.89,58.32,31.77-3.12a25.22,25.22,0,0,0,8.88-2.56A29.74,29.74,0,0,0,849.81,166.83Z"/>
        <path class="cls-1" d="M924.93,195.45a27,27,0,0,0,4.83-7.84,30,30,0,0,0,1.94-9L941.83,26.89a26.84,26.84,0,0,0-.76-8.82,19.31,19.31,0,0,0-3.81-7.28l.14-2.16L987.64,5.7q24.6-1.18,37.28,12.66t10.87,41.17a69.34,69.34,0,0,1-8.46,29.81,51,51,0,0,1-19.94,20.1l17.07,67.4q1.51,5.59,7.75,13.16l-.14,2.16-37.31,1.56-18.32-76.59-8.92.48-3.95,59.12a27,27,0,0,0,.76,8.84,19.5,19.5,0,0,0,3.82,7.32l-.15,2.16-43.21,2.56ZM974.81,89q13.25-.69,19.89-7.47T1002.27,61q.91-13.77-4.87-19.81t-19-5.36l-5.4.29-3.55,53.19Z"/>
        <path class="cls-1" d="M1167.55,173.71a30.19,30.19,0,0,0,6.14,13.51l-.15,2.16-40.85.19.14-2.16a21.45,21.45,0,0,0,2.83-6,13.55,13.55,0,0,0,.13-5.94l-3.72-25.31-40.85.79-7.1,25.51a13.69,13.69,0,0,0-.67,5.95,18,18,0,0,0,2,5.88l-.15,2.16-40.84,1.23.15-2.16a36.79,36.79,0,0,0,7.93-13.73l48.23-160.39a10.59,10.59,0,0,0,.2-7.15,9.2,9.2,0,0,0-3.47-4.62l.15-2.16,40.57-.83Zm-49.72-118-20.3,69.45,31.65-.61Z"/>
        <path class="cls-1" d="M1254,192.87q-22.44-.74-37.79-12.32t-22.47-32.64q-7.12-21.12-5.19-50,2.12-31.59,11.85-53.8t26.34-33.52Q1243.36-.65,1265.27,0a82.32,82.32,0,0,1,18.28,2.38,74.27,74.27,0,0,1,11.39,4.07l-2.33,34.83-2.7-.14A30.29,30.29,0,0,0,1266,29.84q-11.35-.4-20.57,7.83t-15,23.95q-5.78,15.69-7.19,36.75-1.26,18.9,3,33.46t12.44,22.78q8.11,8.23,17.85,8.58,10.54.42,17.22-2.12a37.91,37.91,0,0,0,12.46-7.92l2.7.14-2.27,34a73.92,73.92,0,0,1-32.63,5.57Z"/>
        <path class="cls-1" d="M1320.08,194.49l-13-.85.15-2.16a23,23,0,0,0,4.82-7.28,28.34,28.34,0,0,0,2-8.83l10.12-151.72a28,28,0,0,0-.75-9,22.92,22.92,0,0,0-3.82-7.84l.14-2.16,13,.86L1350,6.78l13,1-.14,2.16a22.43,22.43,0,0,0-4.82,7.2,28,28,0,0,0-2,8.8l-10.12,151.73a28.14,28.14,0,0,0,.75,9,23.52,23.52,0,0,0,3.81,7.92l-.14,2.16-13-1.05Z"/>
        <path class="cls-1" d="M1386.94,200.21,1374,198.93l.15-2.16a22.11,22.11,0,0,0,4.81-7.14,27.5,27.5,0,0,0,1.94-8.78L1391,29.12a28.61,28.61,0,0,0-.75-9,23.75,23.75,0,0,0-3.81-8l.15-2.16,12.92,1.27L1424,13.85l33,86,4.18-62.64a29.21,29.21,0,0,0-.75-9.08,24.75,24.75,0,0,0-3.79-8.12l.15-2.16,12.87,1.7,17.16,2.37,12.85,1.86-.14,2.16a20.62,20.62,0,0,0-4.79,6.93,27.09,27.09,0,0,0-1.93,8.71L1481.46,211.9,1471,210.41l-51.9-122.86-6.45,96.66a29.06,29.06,0,0,0,.75,9.06,24.47,24.47,0,0,0,3.8,8l-.14,2.16L1404.16,202Z"/>
        <path class="cls-1" d="M1514.71,122.57q2.07-31,12.75-51.45t27.58-29q16.88-8.52,37.38-4.8a86.15,86.15,0,0,1,18,5,84.1,84.1,0,0,1,11.19,5.73l-2.33,34.83-2.65-.52a40.14,40.14,0,0,0-9.72-9.54,35.8,35.8,0,0,0-13.78-5.34q-10.65-2-20.25,4.63t-16.11,21.2q-6.49,14.59-7.85,34.84a115.7,115.7,0,0,0,2.47,33.74q3.66,15.93,10.66,26t15,11.59a14.31,14.31,0,0,0,5.26,0c1.72-.31,2.79-.89,3.21-1.72l3.58-53.73a29.81,29.81,0,0,0-.73-9.15,26.66,26.66,0,0,0-3.75-8.35l.14-2.16,12.77,2.39,17,3.27,12.74,2.53-.14,2.16a19.21,19.21,0,0,0-4.75,6.71,26.74,26.74,0,0,0-1.93,8.65l-4.48,67.22c-.11,1.62-1.64,3.74-4.59,6.34s-7.4,4.62-13.32,6-13.06,1.35-21.39-.21a66.67,66.67,0,0,1-35.2-17.85q-14.72-14.07-21.7-36.89T1514.71,122.57Z"/>
      </g>
    </g>
  </g>
</svg>
