<svg xmlns="http://www.w3.org/2000/svg" width="854.56" height="608.49" viewBox="0 0 854.56 608.49">
  <defs>
    <style>
      .cls-1, .cls-2 {
        stroke: #fff;
        stroke-linecap: round;
        stroke-miterlimit: 10;
        stroke-width: 13.18px;
      }

      .cls-2, .cls-3 {
        fill: #fff;
      }
    </style>
  </defs>
  <title>sw77777</title>
  <g id="Layer_2" data-name="Layer 2">
    <g id="Layer_1-2" data-name="Layer 1">
      <g id="sw">
        <g id="a2728166-38ce-4ae3-be24-b5ebb6472f01">
          <g id="a2728166-38ce-4ae3-be24-b5ebb6472f01-child-0">
            <path class="cls-1" d="M7,172.4V6.59H848V172.4Z"/>
          </g>
        </g>
        <g id="c682dd1d-c05f-4b79-ad30-a898a55ff0ef">
          <g id="c682dd1d-c05f-4b79-ad30-a898a55ff0ef-child-0">
            <path class="cls-2" d="M7,436.08V172.4H848V436.08Z"/>
          </g>
        </g>
        <g id="_3d37c8ac-3457-456a-9a36-7486c9ce0485" data-name="3d37c8ac-3457-456a-9a36-7486c9ce0485">
          <g id="_3d37c8ac-3457-456a-9a36-7486c9ce0485-child-0" data-name="3d37c8ac-3457-456a-9a36-7486c9ce0485-child-0">
            <path class="cls-1" d="M6.59,601.89V436.08h841V601.89Z"/>
          </g>
        </g>
        <g id="_12913707-1d87-44f4-b02d-3b5c555852cf" data-name="12913707-1d87-44f4-b02d-3b5c555852cf">
          <g>
            <path class="cls-3" d="M71.9,134.93V43.36h21A21.72,21.72,0,0,1,102,45,13.12,13.12,0,0,1,107.7,50a22.77,22.77,0,0,1,3,8.09,61.94,61.94,0,0,1,.89,11.11v1.92A63.79,63.79,0,0,1,110,86.15a16.94,16.94,0,0,1-5.49,9.45q-3.94,3.23-11.13,3.22H85.85v36.11ZM85.85,87.32h4.78a6.11,6.11,0,0,0,4.58-1.56c1-1,1.67-2.76,2-5.17a74.32,74.32,0,0,0,.5-9.65V69.17q-.06-7.44-1.3-11.27c-.84-2.54-2.73-3.82-5.67-3.82H85.85Z"/>
            <path class="cls-3" d="M164.37,134.93l13.06-91.57h18.42l13.89,91.57h-13l-2.19-16.34H179.77l-2,16.34Zm16.75-27.52h12l-6.14-46h-.21Z"/>
            <path class="cls-3" d="M268.39,134.93V43.36h23q7.19,0,10.72,2.81a13.62,13.62,0,0,1,4.66,8.22,66.92,66.92,0,0,1,1.12,13.22c0,5.37-.55,9.6-1.64,12.66a9.67,9.67,0,0,1-6.69,6.17,7.59,7.59,0,0,1,4,2,10.92,10.92,0,0,1,2.6,4.47,34.89,34.89,0,0,1,1.43,7.55q.44,4.61.44,11.26v2.92q0,2.39,0,5.64c0,2.17,0,4.33.08,6.48s.08,4,.15,5.51a14.65,14.65,0,0,0,.26,2.71H294.66a11.86,11.86,0,0,1-.23-2.68c-.06-1.62-.11-3.67-.16-6.17s-.09-5.18-.1-8.06,0-5.72,0-8.51V102.1a24.27,24.27,0,0,0-.6-6.22,4.55,4.55,0,0,0-2.18-2.94,11.54,11.54,0,0,0-4.56-1l-4.47-.26v43.24Zm14-54.06H288a5.77,5.77,0,0,0,3.87-1.14q1.33-1.14,1.83-4.22a60.91,60.91,0,0,0,.49-8.84V66.1a44.92,44.92,0,0,0-.47-7.44,5.15,5.15,0,0,0-1.95-3.59,8.43,8.43,0,0,0-4.6-1h-4.74Z"/>
            <path class="cls-3" d="M370.32,134.93V43.36H401v12H384.27V82h15.92V93.78H384.27v29.13h17.37v12Z"/>
            <path class="cls-3" d="M462.32,134.93V43.36h10.93l19.4,54.94-1-25v-30H504.2v91.57h-9.88L474.39,78.06l.78,24v32.83Z"/>
            <path class="cls-3" d="M573.1,134.93V55.43H562.39V43.36h34.9V55.43H587v79.5Z"/>
            <path class="cls-3" d="M647.47,134.93l13-91.57h18.42l13.89,91.57h-13l-2.18-16.34H662.86l-2,16.34Zm16.75-27.52h12l-6.14-46h-.2Z"/>
            <path class="cls-3" d="M751.48,134.93V43.36h13.94v79.71h17.64v11.86Z"/>
          </g>
        </g>
        <g id="_4c408795-abdb-4ad8-b94e-255cc09f95ad" data-name="4c408795-abdb-4ad8-b94e-255cc09f95ad">
          <g>
            <path d="M57.61,392.55,82.78,216h35.51l26.78,176.52H120l-4.21-31.49H87.3l-3.82,31.49ZM89.9,339.49H113l-11.83-88.66h-.4Z"/>
            <path d="M164.88,392.55V216h39.61q13.44,0,21.57,5.37a30.21,30.21,0,0,1,11.78,15.49q3.66,10.14,3.66,24.48l.1,79.63q0,17.36-3.76,28.83t-12.08,17.1q-8.32,5.63-22.17,5.62Zm26.88-20.86h8.82a15.05,15.05,0,0,0,7.88-1.91c2.1-1.27,3.67-3.52,4.71-6.77s1.55-7.84,1.55-13.79l-.1-87.15q0-13.55-3.31-19.46t-11.63-5.92h-7.92Z"/>
            <path d="M287.79,392.55,260.41,216H286l11.53,79.74,7.12,56.16h.7l6.12-56.16L321.09,216h25.07L321,392.55Z"/>
            <path d="M367.58,392.55V216h26.88V392.55Z"/>
            <path d="M457.5,394.56q-11,0-18.41-3.46A27.29,27.29,0,0,1,427.46,381a45.64,45.64,0,0,1-6.07-16.25,118.92,118.92,0,0,1-1.81-21.82V327.16h25.48v17.75q0,14.25,2.41,20.46t9.52,6.22q4.81,0,7.28-2.26c1.63-1.5,2.74-3.91,3.31-7.22a80.68,80.68,0,0,0,.85-13A39.66,39.66,0,0,0,464.27,331a73.17,73.17,0,0,0-12.59-17.05l-13-13.44a94.05,94.05,0,0,1-9.78-11.94,54.7,54.7,0,0,1-6.92-14.09,55.62,55.62,0,0,1-2.56-17.4q0-13.94,3.41-23.57a27.08,27.08,0,0,1,11.54-14.59q8.12-5,22.26-5,10.64,0,17.5,3.26a24.73,24.73,0,0,1,10.74,9.52A43.49,43.49,0,0,1,490.29,242a117.33,117.33,0,0,1,1.61,20.51V273.4H467.12V260.76a86.44,86.44,0,0,0-.85-13.34q-.86-5.31-3.16-8a8.43,8.43,0,0,0-6.72-2.66,11.49,11.49,0,0,0-6.82,1.86,10.35,10.35,0,0,0-3.76,5.72,35.63,35.63,0,0,0-1.15,10,29.06,29.06,0,0,0,1.4,9.53,27.1,27.1,0,0,0,4.32,7.73q2.89,3.7,7.22,8.32l14.54,15.75A94.53,94.53,0,0,1,488.39,319a62,62,0,0,1,5.81,27.08q0,15.86-3.41,26.63T479.36,389Q471.34,394.56,457.5,394.56Z"/>
            <path d="M554,394.56q-13.74,0-22.41-5.82t-12.79-17.25q-4.11-11.43-4.11-28.28V262.47q0-15.24,4-26.08a33.16,33.16,0,0,1,12.74-16.65q8.71-5.82,22.86-5.81,10.63,0,18,3.31a28.93,28.93,0,0,1,11.83,9.57,41.69,41.69,0,0,1,6.57,15.25,91.83,91.83,0,0,1,2.06,20.41v80.74q0,16.85-4,28.28T576.3,388.74Q567.78,394.56,554,394.56Zm0-23.27c3.35,0,5.85-1,7.53-3s2.79-5.07,3.35-9.18a116.89,116.89,0,0,0,.86-15.59V261.26q0-11.52-2.16-17.8t-9.28-6.27q-7.32,0-9.93,6.07t-2.6,17.9v82.35a118.94,118.94,0,0,0,.85,15.79q.86,6.17,3.51,9.08C547.93,370.32,550.56,371.29,554,371.29Z"/>
            <path d="M621,392.55V216h44.43q13.85,0,20.66,5.42t9,15.84a128,128,0,0,1,2.16,25.48q0,15.54-3.16,24.42t-12.89,11.89a14.4,14.4,0,0,1,7.72,3.76,20.74,20.74,0,0,1,5,8.62A66.84,66.84,0,0,1,696.66,326q.84,8.88.85,21.72v5.62c0,3.07,0,6.7,0,10.88s.08,8.34.15,12.48.17,7.69.3,10.64a26.94,26.94,0,0,0,.5,5.21H671.63c-.2-.33-.35-2.06-.45-5.16s-.2-7.08-.3-11.89-.17-10-.2-15.55,0-11,0-16.39v-14.3a47.22,47.22,0,0,0-1.15-12,8.68,8.68,0,0,0-4.22-5.67,21.78,21.78,0,0,0-8.77-1.9l-8.63-.5v83.34Zm27-104.21h10.73q4.92,0,7.48-2.2t3.51-8.13a115.53,115.53,0,0,0,1-17.05v-1.1a86.53,86.53,0,0,0-.9-14.34c-.61-3.34-1.86-5.65-3.77-6.92s-4.86-1.91-8.87-1.91H648Z"/>
            <path d="M742.29,392.55V322L712.71,216h25.67l17.45,66h.4l15.55-66h25.57L769.17,322v70.51Z"/>
          </g>
        </g>
        <g id="_8207ffe7-f88d-43f8-9a04-70dbd4a413a2" data-name="8207ffe7-f88d-43f8-9a04-70dbd4a413a2">
          <g>
            <path class="cls-3" d="M72.28,565.56V474H99.64V483H83v31.32H98.76v8.94H83v33.4H99.85v8.95Z"/>
            <path class="cls-3" d="M112.44,565.56l13.11-48.48L112.86,474h9.41l9,30.49L139.08,474h9.67l-12.69,47,13.11,44.58h-9.36l-9.32-31.63-8.22,31.63Z"/>
            <path class="cls-3" d="M165,565.56V474h18.42a18.83,18.83,0,0,1,8.87,1.82,12.46,12.46,0,0,1,5.23,5.26,24.7,24.7,0,0,1,2.47,8.27,82.72,82.72,0,0,1,.65,10.87v1.4a70.9,70.9,0,0,1-1.43,15.46q-1.44,6.24-5.15,9.39t-10.64,3.14h-7.65v35.95Zm10.77-44.89h6.55a6.09,6.09,0,0,0,4.79-1.8c1.08-1.2,1.81-3.18,2.21-6a83,83,0,0,0,.6-11.29v-1.76q0-8.85-1.35-13.09c-.9-2.82-2.9-4.24-6-4.24h-6.81Z"/>
            <path class="cls-3" d="M217.59,565.56V474h10.77v82.67h16.9v8.89Z"/>
            <path class="cls-3" d="M259.78,565.56V474h10.77v91.56Z"/>
            <path class="cls-3" d="M308.53,566.66q-6.66,0-10.61-3.26a18,18,0,0,1-5.67-9.54,58.67,58.67,0,0,1-1.72-15.3V500.43a72.3,72.3,0,0,1,.78-11.06,26.74,26.74,0,0,1,2.78-8.69,14.15,14.15,0,0,1,5.6-5.67,18.8,18.8,0,0,1,9.2-2,17.66,17.66,0,0,1,8.74,1.9,13.19,13.19,0,0,1,5.26,5.41,25.19,25.19,0,0,1,2.57,8.32,73.75,73.75,0,0,1,.71,10.64v10.15H315.61v-10.2q0-8.53-1.23-12.77a5.25,5.25,0,0,0-5.49-4.24,5.94,5.94,0,0,0-6.06,4.34q-1.53,4.35-1.53,12.62v39.64a82.29,82.29,0,0,0,.57,10.8,11.85,11.85,0,0,0,2.16,6,5.67,5.67,0,0,0,4.55,1.87q4.32,0,5.67-4.37t1.36-14.36V528.63h10.66v10a63.53,63.53,0,0,1-1.59,15.4c-1.05,4.16-2.87,7.3-5.43,9.41S313.11,566.66,308.53,566.66Z"/>
            <path class="cls-3" d="M345.37,565.56V474h10.77v91.56Z"/>
            <path class="cls-3" d="M381,565.56V483h-10.1V474h30.23V483h-9.42v82.61Z"/>
            <path class="cls-3" d="M464.61,566.66q-6.66,0-10.61-3.26a18,18,0,0,1-5.67-9.54,59.1,59.1,0,0,1-1.72-15.3V500.43a72.3,72.3,0,0,1,.78-11.06,26.51,26.51,0,0,1,2.79-8.69,14.12,14.12,0,0,1,5.59-5.67,18.81,18.81,0,0,1,9.21-2,17.71,17.71,0,0,1,8.74,1.9,13.22,13.22,0,0,1,5.25,5.41,25.42,25.42,0,0,1,2.58,8.32,73.83,73.83,0,0,1,.7,10.64v10.15H471.69v-10.2q0-8.53-1.22-12.77a5.27,5.27,0,0,0-5.49-4.24,5.93,5.93,0,0,0-6.06,4.34q-1.55,4.35-1.54,12.62v39.64a82.29,82.29,0,0,0,.57,10.8,12,12,0,0,0,2.16,6,5.68,5.68,0,0,0,4.56,1.87q4.31,0,5.67-4.37t1.35-14.36V528.63h10.66v10a64.09,64.09,0,0,1-1.58,15.4q-1.59,6.24-5.44,9.41T464.61,566.66Z"/>
            <path class="cls-3" d="M518.62,566.6q-6.87,0-10.85-3a16.58,16.58,0,0,1-5.67-9.11,57.89,57.89,0,0,1-1.69-15.24V498.87A53.58,53.58,0,0,1,502,485.13a16.8,16.8,0,0,1,5.57-9.05q4-3.22,11.34-3.22a19.23,19.23,0,0,1,9,1.84,12.93,12.93,0,0,1,5.38,5.26,24.21,24.21,0,0,1,2.63,8.19,72.36,72.36,0,0,1,.73,10.72v40.37A59.87,59.87,0,0,1,535,554.48a16.42,16.42,0,0,1-5.57,9.11Q525.48,566.61,518.62,566.6Zm0-9.26a5.84,5.84,0,0,0,4.52-1.69q1.56-1.7,2.14-5.64a78.48,78.48,0,0,0,.57-10.67v-41.1q0-8.22-1.3-12.17a5.4,5.4,0,0,0-5.67-3.95c-3,0-5.06,1.3-6.12,3.92s-1.58,6.67-1.58,12.15v41.15a78.3,78.3,0,0,0,.57,10.69q.57,3.93,2.19,5.62A6.14,6.14,0,0,0,518.62,557.34Z"/>
            <path class="cls-3" d="M556.6,565.56V474h8.11l21.23,62.33-1.09-26.49V474h9.52v91.56h-7.91l-20.55-62.84.62,23.1v39.74Z"/>
            <path class="cls-3" d="M619.24,565.56V483h-10.1V474h30.23V483H630v82.61Z"/>
            <path class="cls-3" d="M654.15,565.56V474h27.36V483H664.92v31.32h15.71v8.94H664.92v33.4h16.8v8.95Z"/>
            <path class="cls-3" d="M699.46,565.56V474h8.12l21.23,62.33-1.1-26.49V474h9.52v91.56h-7.9l-20.55-62.84.62,23.1v39.74Z"/>
            <path class="cls-3" d="M762.1,565.56V483H752V474h30.23V483h-9.42v82.61Z"/>
          </g>
        </g>
      </g>
    </g>
  </g>
</svg>
