<svg xmlns="http://www.w3.org/2000/svg" width="782.18" height="735.56" viewBox="0 0 782.18 735.56">
  <defs>
    <style>
      .cls-1 {
        fill: #ffcc3f;
      }
    </style>
  </defs>
  <title>uuu77777</title>
  <g id="Layer_2" data-name="Layer 2">
    <g id="Layer_1-2" data-name="Layer 1">
      <g id="uuu">
        <g id="_8904d6c4-e722-4c12-b0e1-f3fad836b0b1" data-name="8904d6c4-e722-4c12-b0e1-f3fad836b0b1">
          <g id="_8904d6c4-e722-4c12-b0e1-f3fad836b0b1-child-0" data-name="8904d6c4-e722-4c12-b0e1-f3fad836b0b1-child-0">
            <path class="cls-1" d="M14.68,275.31A268,268,0,0,0,.05,357.66c0,6.46,1,12.88,1.52,19.29C.67,388.65.05,398.77.05,406.59a130.34,130.34,0,0,0,3.88,35.54C22,513.79,62.82,569.3,121.26,604.62a399.94,399.94,0,0,0,45,42.3c145.68,114.63,379.65,137,526.39-47.36,95.62-120.14,115.75-258.72,55.12-380.72C682.07,86.28,527.45-3.6,372,.11,220.7,3.94,95.67,91.68,27.33,240.72"/>
          </g>
        </g>
        <g id="_1e48eac9-bbb1-453c-acbd-3ecdd369f335" data-name="1e48eac9-bbb1-453c-acbd-3ecdd369f335">
          <g>
            <path class="cls-1" d="M325.08,589q-17.44,0-29.57-6.06T277.46,567.3a37.77,37.77,0,0,1-5.94-20.24q0-12.36,5.58-18a18.53,18.53,0,0,1,13.81-5.7,16.81,16.81,0,0,1,12,4.73q5,4.73,5,12.72a15.51,15.51,0,0,1-1.69,7.64,34.23,34.23,0,0,1-4.85,6.42q-4.84,4.84-4.85,9a13.51,13.51,0,0,0,4.61,10.3q4.61,4.23,16,4.24a33.07,33.07,0,0,0,17.57-5,35.94,35.94,0,0,0,13-13.94,42.12,42.12,0,0,0,4.85-20.35,36.61,36.61,0,0,0-5.58-19.51A40.76,40.76,0,0,0,331.38,505a45.59,45.59,0,0,0-22.29-5.45v-2.91q17.45-2.41,27.74-14.29t10.3-28.6q0-12.36-5.93-20.72t-17.09-8.36q-9.21,0-15,3.39t-5.82,9.45a12.73,12.73,0,0,0,1.21,5.94,31.18,31.18,0,0,0,3.64,5.21,28.15,28.15,0,0,1,4.24,5.94,17,17,0,0,1,1.57,7.87,17.79,17.79,0,0,1-18.17,17.69,16.1,16.1,0,0,1-13.45-6.42q-5-6.42-5-16.6a40.78,40.78,0,0,1,5.81-21.33,41.75,41.75,0,0,1,17-15.51q11.14-5.81,26.41-5.81,22.07,0,36.84,10.66t14.79,29.57q0,26.17-26.91,40.23,17.46,4.11,26.78,15.27t9.33,27.62a45.26,45.26,0,0,1-7.63,25.09q-7.64,11.74-21.81,18.9T325.08,589Z"/>
            <path class="cls-1" d="M459.59,589q-16.48,0-30.06-11.27t-21.44-31q-7.87-19.76-7.88-44a121.65,121.65,0,0,1,7.88-44.47q7.88-20.24,21.57-32t29.93-11.75q16.23,0,29.93,11.75t21.57,32Q519,478.48,519,502.71t-7.87,44q-7.89,19.75-21.45,31T459.59,589Zm-.25-9.21q11.88,0,17.33-18.9t5.45-58.17q0-39.73-5.45-59.37t-17.33-19.63q-11.86,0-17.08,19.51t-5.21,59.49q0,39.51,5.21,58.29T459.34,579.78Z"/>
          </g>
        </g>
        <g id="_4caf94c9-de8e-4951-a182-fe58dc5163cf" data-name="4caf94c9-de8e-4951-a182-fe58dc5163cf">
          <g>
            <path class="cls-1" d="M563.06,453.17c-2.21,1.16-3.64,2.28-4.27,3.37l-8.9,15.37V485a3.7,3.7,0,0,0,.9,2.37,5,5,0,0,0,2.37,1.58v.52h-13.9V489a5,5,0,0,0,2.37-1.58,3.74,3.74,0,0,0,.89-2.37V471.91l-9-15.16a6.77,6.77,0,0,0-2.16-2.21,10.34,10.34,0,0,0-2.9-1.37v-.53h14.38v.53c-1.23.38-1.85,1-1.85,1.89a4.31,4.31,0,0,0,.48,1.53l7,12.69,7.37-12.74a3.53,3.53,0,0,0,.58-1.69c0-.77-.52-1.33-1.58-1.68v-.53h8.22Z"/>
            <path class="cls-1" d="M596.28,482.6l-1,6.9H568.69V489a4.91,4.91,0,0,0,2.37-1.58A3.7,3.7,0,0,0,572,485V457.12a3.7,3.7,0,0,0-.9-2.37,4.77,4.77,0,0,0-2.37-1.58v-.53h26.44l.36,6.74H595a9.1,9.1,0,0,0-2.29-3.16,6.49,6.49,0,0,0-4.35-1.26h-9v12.32h6.58a3.89,3.89,0,0,0,2.56-.74,5.13,5.13,0,0,0,1.39-2.21h.53v8.22h-.53a5.17,5.17,0,0,0-1.39-2.22,3.89,3.89,0,0,0-2.56-.73h-6.58v17.64h8.79a9.08,9.08,0,0,0,3.45-.56,6.16,6.16,0,0,0,2.21-1.47,18.92,18.92,0,0,0,2-2.61Z"/>
            <path class="cls-1" d="M634,485.39a4.93,4.93,0,0,0,1.69,2,12.5,12.5,0,0,0,2.58,1.56v.52H624.25V489c1.4-.46,2.1-1.23,2.1-2.32a2.86,2.86,0,0,0-.31-1.27l-2.64-6.26H609.66L607,485.39a3.42,3.42,0,0,0-.32,1.43,2.22,2.22,0,0,0,1.84,2.16v.52h-8.79V489a11.34,11.34,0,0,0,2.63-1.53,5,5,0,0,0,1.74-2.06L618,452.48l.1-.31H620Zm-11.58-8.58-5.85-14.11-6,14.11Z"/>
            <path class="cls-1" d="M669.69,485.45a5.22,5.22,0,0,0,1.74,2A14.15,14.15,0,0,0,674,489v.52H663.48l-8.69-18.11h-2.21V485a3.69,3.69,0,0,0,.89,2.37,5,5,0,0,0,2.37,1.58v.52h-13.9V489a5,5,0,0,0,2.37-1.58,3.74,3.74,0,0,0,.89-2.37V457.12a3.74,3.74,0,0,0-.89-2.37,4.86,4.86,0,0,0-2.37-1.58v-.53h15q7.11,0,11.11,2.29a7.72,7.72,0,0,1,4,7.19,7.55,7.55,0,0,1-2.56,6,13.55,13.55,0,0,1-6.76,3Zm-17.06-16.38h4q3.75,0,5.56-1.66t1.81-5.18c0-2.5-.61-4.33-1.84-5.51a7.75,7.75,0,0,0-5.53-1.76h-4Z"/>
            <path class="cls-1" d="M689,490a22.37,22.37,0,0,1-5.63-.87,13,13,0,0,1-4.63-2v-7.85h.63a12.56,12.56,0,0,0,3.76,6.32,9.75,9.75,0,0,0,6.4,2,6.37,6.37,0,0,0,4.32-1.34,4.22,4.22,0,0,0,1.53-3.29,6.93,6.93,0,0,0-1.66-4.56,15.55,15.55,0,0,0-5.24-3.66,29.79,29.79,0,0,1-6.16-3.68,10.23,10.23,0,0,1-3-3.77,11.92,11.92,0,0,1-.85-4.76,9.5,9.5,0,0,1,1.61-5.37,11.12,11.12,0,0,1,4.29-3.8,12.59,12.59,0,0,1,5.79-1.36,18,18,0,0,1,5.56.84,14.58,14.58,0,0,1,3.87,1.74v6.74H699q-2.79-7-8.85-7a5.61,5.61,0,0,0-4,1.61,5.49,5.49,0,0,0-1.69,4.18q0,3.79,5.43,6.53a74.58,74.58,0,0,1,6.89,3.8,12.94,12.94,0,0,1,3.85,3.73,9.62,9.62,0,0,1,1.47,5.43,8.9,8.9,0,0,1-1.73,5.37,11.23,11.23,0,0,1-4.72,3.66A16.41,16.41,0,0,1,689,490Z"/>
          </g>
        </g>
        <g id="_53eddfdf-476d-4510-ba3d-cdc4d3d89c48" data-name="53eddfdf-476d-4510-ba3d-cdc4d3d89c48">
          <g>
            <path class="cls-1" d="M122.68,485.39a4.93,4.93,0,0,0,1.69,2A12.5,12.5,0,0,0,127,489v.52H112.89V489c1.4-.46,2.1-1.23,2.1-2.32a2.86,2.86,0,0,0-.31-1.27L112,479.13H98.3l-2.63,6.26a3.42,3.42,0,0,0-.32,1.43A2.22,2.22,0,0,0,97.2,489v.52H88.4V489A11.34,11.34,0,0,0,91,487.45a5,5,0,0,0,1.74-2.06l13.85-32.91.11-.31h1.94Zm-11.58-8.58-5.85-14.11-6,14.11Z"/>
            <path class="cls-1" d="M150.43,490a22.77,22.77,0,0,1-9.16-1.92,16.76,16.76,0,0,1-7.32-6.24,19.49,19.49,0,0,1-2.9-11.06q0-6.74,3.22-10.93a17.79,17.79,0,0,1,7.92-6,26.18,26.18,0,0,1,9.4-1.79,24.07,24.07,0,0,1,5.45.57,24.51,24.51,0,0,1,3.84,1.19c.93.4,2.08.94,3.45,1.61V463h-.42q-4.53-8.52-12.16-8.53a11.88,11.88,0,0,0-6,1.58,11.61,11.61,0,0,0-4.53,5.27,22.55,22.55,0,0,0-1.76,9.63q0,8.8,3.24,12.8a10.51,10.51,0,0,0,8.61,4,7.88,7.88,0,0,0,4.47-1,3.23,3.23,0,0,0,1.37-2.82v-7.11a3.74,3.74,0,0,0-.89-2.37,4.93,4.93,0,0,0-2.37-1.58v-.52h13.27v.52a5.26,5.26,0,0,0-2.43,1.58,3.59,3.59,0,0,0-.94,2.37v6.27c0,1.54,0,2.65.08,3.32a4.12,4.12,0,0,0,.34,1.52l-.32.32a3.89,3.89,0,0,0-1.58-.37,10.33,10.33,0,0,0-2.47.58,34.52,34.52,0,0,1-4.24,1.16A26.89,26.89,0,0,1,150.43,490Z"/>
            <path class="cls-1" d="M203.19,482.6l-1.05,6.9H175.6V489A5,5,0,0,0,178,487.4a3.7,3.7,0,0,0,.9-2.37V457.12a3.7,3.7,0,0,0-.9-2.37,4.86,4.86,0,0,0-2.37-1.58v-.53H202l.36,6.74h-.52a9.1,9.1,0,0,0-2.29-3.16,6.49,6.49,0,0,0-4.35-1.26h-9v12.32h6.58a3.84,3.84,0,0,0,2.55-.74,5,5,0,0,0,1.4-2.21h.53v8.22h-.53a5.09,5.09,0,0,0-1.4-2.22,3.84,3.84,0,0,0-2.55-.73h-6.58v17.64H195a9.08,9.08,0,0,0,3.45-.56,6.16,6.16,0,0,0,2.21-1.47,18.92,18.92,0,0,0,2-2.61Z"/>
            <path class="cls-1" d="M212.51,489a4.91,4.91,0,0,0,2.37-1.58,3.7,3.7,0,0,0,.9-2.37V457.12a3.7,3.7,0,0,0-.9-2.37,4.77,4.77,0,0,0-2.37-1.58v-.53h18.33a18.85,18.85,0,0,1,9.4,2.32,16.59,16.59,0,0,1,6.45,6.42,18.6,18.6,0,0,1,2.32,9.27,20.23,20.23,0,0,1-2.32,9.69,17,17,0,0,1-6.45,6.74,18.3,18.3,0,0,1-9.4,2.42H212.51Zm16.43-1.79a9.89,9.89,0,0,0,6.27-2.06,12.66,12.66,0,0,0,4-5.79,25.46,25.46,0,0,0,1.37-8.74q0-7.17-2.82-11.4T228.94,455h-5.79v32.23Z"/>
          </g>
        </g>
        <g id="df96e1af-6844-4d7e-a9a4-03a53d9062c5">
          <g>
            <path class="cls-1" d="M80.23,410.21c-.94.18-1.41-.13-1.41-.9V248.76c0-.77.47-1.16,1.42-1.16l25.64-.06c1,0,1.44.37,1.44,1.12l-.25,134.6c0,.76.45,1.07,1.36.94l33.78-4.45c.91-.11,1.36.2,1.36.92L143.51,399c0,.72-.46,1.15-1.37,1.28Z"/>
            <path class="cls-1" d="M180.39,395.14c-.9.11-1.34-.18-1.34-.89l.53-145.81q0-1,1.47-1.05l65.89-.11c1,0,1.52.34,1.52,1l-.07,16.86c0,.67-.51,1-1.52,1l-37.45.56c-.94,0-1.41.37-1.42,1.06l-.15,34.08c0,.69.46,1,1.4,1l23.85-1c1,0,1.51.28,1.51.95l-.08,17c0,.68-.5,1-1.49,1.09l-23.88,1.33c-.93.05-1.41.42-1.41,1.11l-.22,48.13q0,1,1.41.9L246.57,369c.93-.08,1.39.22,1.39.89l-.07,16.86c0,.67-.47,1-1.4,1.13Z"/>
            <path class="cls-1" d="M321.1,384.41q-20.66,1.21-30.54-5.85t-9.73-18.32l.28-88.19q0-11.22,9.95-19t30-7.74q20.38,0,30,7.57t9.65,18.42l0,6.5c0,.64-.55,1-1.66,1l-24.07.21c-.79,0-1.18-.3-1.18-.95v-5q0-10.39-11.67-10.32-12.68.09-12.69,10.57l-.15,86a6.87,6.87,0,0,0,3,5.87c2,1.45,4.9,2.09,8.8,1.9s7-1,9-2.61a7.34,7.34,0,0,0,3.17-6.18l.09-35.21c0-.65-.49-.95-1.49-.93l-7.92.21c-1,0-1.45-.28-1.45-.92l0-15.84c0-.65.49-1,1.45-1l35.91-.6c.94,0,1.41.31,1.4.94l-.05,52q0,10.89-9.88,18.71T321.1,384.41Z"/>
            <path class="cls-1" d="M400.87,380.5c-1,0-1.48-.33-1.48-1V248.13c0-.63.47-.95,1.41-.95l66,0c1,0,1.46.32,1.46,1l.06,16.24c0,.65-.49,1-1.49.95l-37.53-.21c-1,0-1.48.31-1.48,1l.07,31.52c0,.64.49,1,1.48,1l23.91.33c.89,0,1.34.34,1.35,1l0,16.16c0,.64-.43.95-1.31.93l-23.94-.44c-1,0-1.48.3-1.48.94l.1,44.51c0,.63.49,1,1.48,1L467,364.27c1.12.05,1.68.4,1.69,1.05l.06,16.23c0,.65-.58.94-1.73.88Z"/>
            <path class="cls-1" d="M506.4,384.94q-1.41-.1-1.41-1.08l-.54-135.64c0-.65.47-1,1.4-1l22.5,0a2.11,2.11,0,0,1,1.77.8l30.35,43.64a1.23,1.23,0,0,0,1.08.55c.34-.06.51-.36.5-.9l-.22-43c0-.68.5-1,1.53-1l25,0c1,0,1.44.35,1.44,1l.69,143.77c0,.69-.45,1-1.37.87l-25.3-2.85c-.81-.09-1.22-.47-1.22-1.15l-.3-53a3.25,3.25,0,0,0-.2-1.24l-28-41.3a1.37,1.37,0,0,0-1.06-.63c-.41,0-.61.25-.61.78l.5,92.52c0,.67-.49,1-1.48.87Z"/>
            <path class="cls-1" d="M628.55,398.12c-1-.14-1.51-.57-1.51-1.28l-.51-148.34c0-.72.45-1.07,1.36-1.07l43,.09q19.68,0,30.27,8,10.47,8.21,10.47,24.12v99.74q0,15.92-10.42,22.16t-29.87,2.92Zm40.44-15q7.14,1,10.77-2.1t3.65-9l-.18-89.92a13.39,13.39,0,0,0-3.59-9.64q-3.79-3.71-10.91-3.88l-12.21-.27c-.94,0-1.41.33-1.41,1.07l.25,110.82q0,1.11,1.41,1.29Z"/>
          </g>
        </g>
        <g id="a6405c48-9038-471d-9c9e-7aa6855f4699">
          <g>
            <path class="cls-1" d="M199,212.94a.32.32,0,0,1-.36-.36V163.1a.32.32,0,0,1,.36-.36h15.63a.32.32,0,0,1,.36.36v6a.32.32,0,0,1-.36.36H206.2a.32.32,0,0,0-.36.36V183.4a.32.32,0,0,0,.36.35h6.59a.32.32,0,0,1,.36.36v6a.32.32,0,0,1-.36.36H206.2a.32.32,0,0,0-.36.35v21.73a.32.32,0,0,1-.36.36Z"/>
            <path class="cls-1" d="M223.91,212.94a.32.32,0,0,1-.36-.36V163.1a.32.32,0,0,1,.36-.36h6.46a.32.32,0,0,1,.35.36v49.48a.32.32,0,0,1-.35.36Z"/>
            <path class="cls-1" d="M240.84,212.94a.32.32,0,0,1-.36-.36V163.1a.32.32,0,0,1,.36-.36h11.33a9.5,9.5,0,0,1,5.34,1.54,10.53,10.53,0,0,1,3.62,4.09,12,12,0,0,1,1.29,5.49v5.88a8.08,8.08,0,0,1-1,4.16,8.55,8.55,0,0,1-2.83,2.94c-.19.14-.19.31,0,.5q2.86,2.66,2.87,7.67v17.57a.32.32,0,0,1-.36.36h-6.45a.32.32,0,0,1-.36-.36V196.52a7.25,7.25,0,0,0-1-4.41,4.34,4.34,0,0,0-3.62-1.33H248a.32.32,0,0,0-.36.36v21.44a.32.32,0,0,1-.36.36ZM251.09,184a3.47,3.47,0,0,0,3.12-1.61,8.13,8.13,0,0,0,1-4.41v-2.44a8.3,8.3,0,0,0-1-4.45,3.44,3.44,0,0,0-3.12-1.65H248a.32.32,0,0,0-.36.36v13.84a.32.32,0,0,0,.36.36Z"/>
            <path class="cls-1" d="M281.14,213.66q-5.16,0-7.67-2.8a9.79,9.79,0,0,1-2.51-6.81v-4.23a.32.32,0,0,1,.36-.36h6.38a.32.32,0,0,1,.36.36v3.37c0,2.49,1,3.73,3.08,3.73a3.16,3.16,0,0,0,2.51-1,4,4,0,0,0,.86-2.76,14.47,14.47,0,0,0-2-6.53q-2-3.72-6.06-10.4a54.89,54.89,0,0,1-4.05-7.67,17.1,17.1,0,0,1-1.33-6.6,10.5,10.5,0,0,1,2.51-7c1.67-2,4.21-2.94,7.6-2.94s6,.94,7.64,2.8a9.93,9.93,0,0,1,2.47,6.81V174a.32.32,0,0,1-.35.36h-6.24a.32.32,0,0,1-.36-.36v-1.51q0-3.87-3.16-3.87a2.83,2.83,0,0,0-2.29.93,3.53,3.53,0,0,0-.79,2.37,9.26,9.26,0,0,0,1,4.23c.64,1.29,1.95,3.44,3.91,6.46a103.65,103.65,0,0,1,6.45,11.4,23.21,23.21,0,0,1,2.37,10,9.48,9.48,0,0,1-2.76,6.81Q286.3,213.65,281.14,213.66Z"/>
            <path class="cls-1" d="M306.82,212.94a.32.32,0,0,1-.36-.36V169.84a.32.32,0,0,0-.36-.36h-6.38a.32.32,0,0,1-.36-.36v-6a.32.32,0,0,1,.36-.36H320.3a.32.32,0,0,1,.36.36v6a.32.32,0,0,1-.36.36h-6.38a.32.32,0,0,0-.36.36v42.74a.32.32,0,0,1-.36.36Z"/>
            <path class="cls-1" d="M358.31,213.66c-3.44,0-6-.93-7.6-2.8a10,10,0,0,1-2.44-6.81V171.63a10,10,0,0,1,2.44-6.81c1.62-1.86,4.16-2.8,7.6-2.8s5.88.95,7.46,2.84a10.46,10.46,0,0,1,2.36,6.92v2.44a.32.32,0,0,1-.36.35h-6a.32.32,0,0,1-.36-.35v-1.58a5.32,5.32,0,0,0-.64-2.91,2.5,2.5,0,0,0-2.23-1q-3.07,0-3.08,3.87v30.41q0,3.87,3.08,3.87c1.92,0,2.87-1.29,2.87-3.87v-2.94a.32.32,0,0,1,.36-.36H368a.32.32,0,0,1,.36.36v3.8a10.11,10.11,0,0,1-1.15,4.73,9,9,0,0,1-3.44,3.62A10.3,10.3,0,0,1,358.31,213.66Z"/>
            <path class="cls-1" d="M377.17,212.94a.32.32,0,0,1-.36-.36V163.1a.32.32,0,0,1,.36-.36h6.45a.32.32,0,0,1,.36.36v18.79a.32.32,0,0,0,.36.36h6.1a.32.32,0,0,0,.36-.36V163.1c0-.24.11-.36.35-.36h6.46a.32.32,0,0,1,.36.36v49.48a.32.32,0,0,1-.36.36h-6.46c-.24,0-.35-.12-.35-.36V189.35a.32.32,0,0,0-.36-.36h-6.1a.32.32,0,0,0-.36.36v23.23a.32.32,0,0,1-.36.36Z"/>
            <path class="cls-1" d="M407.15,212.94c-.19,0-.29-.12-.29-.36l6.67-49.48c0-.24.14-.36.43-.36h7.82c.28,0,.43.12.43.36l6.67,49.48c0,.24-.1.36-.29.36h-6.24c-.29,0-.43-.12-.43-.36l-.86-7.17c0-.24-.14-.36-.43-.36h-5.52c-.29,0-.43.12-.43.36l-.86,7.17c0,.24-.15.36-.43.36Zm12.76-14.63c.19,0,.29-.12.29-.36l-2.08-19.57c0-.1-.07-.15-.22-.15s-.21.05-.21.15L415.54,198c0,.24.09.36.28.36Z"/>
            <path class="cls-1" d="M438.06,212.94a.32.32,0,0,1-.36-.36V163.1a.32.32,0,0,1,.36-.36h5.88a.47.47,0,0,1,.43.29l6.09,12.69c.15.29.29.29.43,0L457,163a.47.47,0,0,1,.43-.29h5.88a.32.32,0,0,1,.36.36v49.48a.32.32,0,0,1-.36.36h-6.38a.32.32,0,0,1-.36-.36V180c0-.19-.05-.3-.14-.32s-.2,0-.29.18l-5.24,9.39c-.14.2-.28.2-.43,0l-5.23-9.39c-.1-.14-.19-.22-.29-.22s-.14.1-.14.29v32.7a.32.32,0,0,1-.36.36Z"/>
            <path class="cls-1" d="M473.7,212.94a.32.32,0,0,1-.36-.36V163.1a.32.32,0,0,1,.36-.36H485a9.5,9.5,0,0,1,5.34,1.54,10.48,10.48,0,0,1,3.63,4.09,12,12,0,0,1,1.29,5.49v8.75a10.19,10.19,0,0,1-2.84,7.42,9.87,9.87,0,0,1-7.42,2.9h-4.16a.32.32,0,0,0-.36.36v19.29a.32.32,0,0,1-.36.36ZM484,186.19a3.49,3.49,0,0,0,3.12-1.61,8.13,8.13,0,0,0,1-4.41v-4.59a8.3,8.3,0,0,0-1-4.45,3.46,3.46,0,0,0-3.12-1.65h-3.09a.32.32,0,0,0-.36.36v16a.32.32,0,0,0,.36.36Z"/>
            <path class="cls-1" d="M504.61,212.94a.32.32,0,0,1-.36-.36V163.1a.32.32,0,0,1,.36-.36h6.45a.32.32,0,0,1,.36.36v49.48a.32.32,0,0,1-.36.36Z"/>
            <path class="cls-1" d="M531.07,213.66q-5.16,0-7.6-2.8a10,10,0,0,1-2.44-6.81V171.63a10.05,10.05,0,0,1,2.44-6.81c1.63-1.86,4.16-2.8,7.6-2.8s6,.94,7.61,2.8a10,10,0,0,1,2.43,6.81v32.42a10,10,0,0,1-2.43,6.81C537.05,212.73,534.52,213.66,531.07,213.66Zm0-6.74a2.47,2.47,0,0,0,2.23-1,5.26,5.26,0,0,0,.64-2.9V172.64a5.32,5.32,0,0,0-.64-2.91,3.06,3.06,0,0,0-4.45,0,5.31,5.31,0,0,0-.65,2.91v30.41a5.25,5.25,0,0,0,.65,2.9A2.46,2.46,0,0,0,531.07,206.92Z"/>
            <path class="cls-1" d="M550.87,212.94a.32.32,0,0,1-.36-.36V163.1a.32.32,0,0,1,.36-.36h5.66a.46.46,0,0,1,.43.29l7.6,15.35c.1.14.2.2.29.17s.15-.13.15-.32V163.1c0-.24.11-.36.35-.36h6.31a.32.32,0,0,1,.36.36v49.48a.32.32,0,0,1-.36.36h-6.31c-.24,0-.35-.12-.35-.36V193.94a.94.94,0,0,0-.08-.43L558,179.31c-.1-.15-.19-.22-.29-.22s-.14.1-.14.29v33.2a.32.32,0,0,1-.36.36Z"/>
          </g>
        </g>
      </g>
    </g>
  </g>
</svg>
