<svg xmlns="http://www.w3.org/2000/svg" width="234.65" height="633.78" viewBox="0 0 234.65 633.78">
  <defs>
    <style>
      .cls-1 {
        fill: #3c5daa;
      }
    </style>
  </defs>
  <title>vf77777</title>
  <g id="Layer_2" data-name="Layer 2">
    <g id="Layer_1-2" data-name="Layer 1">
      <g id="vf">
        <g id="bccfd1ee-e036-46bd-95c1-5517c32b9817">
          <g id="bccfd1ee-e036-46bd-95c1-5517c32b9817-child-0">
            <path class="cls-1" d="M101.93,0C77.19,0,54.06,16.35,34.29,44.71,49.42,28.56,66.16,19.57,83.78,19.55c67.92-.1,123.18,133,123.4,297.19S152.53,614.19,84.61,614.28c-17.62,0-34.38-8.91-49.56-25,19.84,28.3,43,44.55,67.77,44.52,73.05-.1,132.07-142.06,131.82-317.07S175-.1,101.93,0Z"/>
          </g>
        </g>
        <g id="_1e77ec13-e125-45e0-aef5-66b317576f15" data-name="1e77ec13-e125-45e0-aef5-66b317576f15">
          <g>
            <path class="cls-1" d="M130.33,548.23h-23L59.41,491.46C50.36,480.6,46.24,478,39.17,478,29.29,478,28,479.78,28,496.56,28,511.37,29.79,513,44.43,513v36.2C8.89,549.22,0,537.37,0,496.4c0-42.63,6.58-53,32.91-52,18.43.5,25.67-1.64,37.19,11.69l30.61,35.71v-50h29.62Z"/>
            <path class="cls-1" d="M26.33,373.63c0,18.43,4,20.41,39.82,20.41s39.83-2,39.83-20.41-4-20.4-39.83-20.4S26.33,355.2,26.33,373.63Zm39.82,56.61c-53,0-66.15-11.35-66.15-56.61S13.17,317,66.15,317s66.16,11.36,66.16,56.61S119.14,430.24,66.15,430.24Z"/>
            <path class="cls-1" d="M45.25,307.15C9.05,307.15,0,296,0,251.36c0-44.43,13.33-55.62,67-56,51.67,0,64.67,11.19,64.67,56.12,0,41.47-6.91,51.83-34.56,51.83v-36.2c9.55,0,10.53-1.81,10.53-17.77s-1.31-17.78-13.16-17.78H70.93c10.69,3,15.47,11.69,15.47,27.65C86.4,297.6,78.17,307.15,45.25,307.15ZM44.43,271c12.67,0,14-2,14-19.59,0-13.82-4.44-19.75-14.65-19.75-15.63,0-17.44,2-17.44,19.75C26.33,269,28.14,271,44.27,271Z"/>
            <path class="cls-1" d="M45.25,185.54C9.05,185.54,0,174.35,0,129.75,0,85.32,13.33,74.13,67,73.8c51.67,0,64.67,11.19,64.67,56.11,0,41.47-6.91,51.84-34.56,51.84v-36.2c9.55,0,10.53-1.81,10.53-17.77S106.31,110,94.46,110H70.93c10.69,3,15.47,11.69,15.47,27.65C86.4,176,78.17,185.54,45.25,185.54Zm-.82-36.21c12.67,0,14-2,14-19.58C58.42,115.93,54,110,43.77,110c-15.63,0-17.44,2-17.44,19.75,0,17.61,1.81,19.58,17.94,19.58Z"/>
          </g>
        </g>
      </g>
    </g>
  </g>
</svg>
