<?xml version="1.0" encoding="utf-8"?>
<!-- Generator: Adobe Illustrator 24.0.0, SVG Export Plug-In . SVG Version: 6.00 Build 0)  -->
<svg version="1.1" id="Layer_1" xmlns="http://www.w3.org/2000/svg" xmlns:xlink="http://www.w3.org/1999/xlink" x="0px" y="0px"
	 viewBox="0 0 19.2 19.1" style="enable-background:new 0 0 19.2 19.1;" xml:space="preserve">
<style type="text/css">
	.st0{fill:#231F20;}
</style>
<title>Asset 7</title>
<g id="Layer_2_1_">
	<g id="Layer_1-2">
		<g id="_8993f9c3-a56e-4339-8253-0c560bf7426e">
			<g id="_8993f9c3-a56e-4339-8253-0c560bf7426e-child-0">
				<path class="st0" d="M18.2,14c-2.4,1.2-5.6,1.8-7.9,0.2c0,1,0.5,2,1.4,2.7c0.2,0.1,0.5,0.3,0.6,0.5c0.5,0.4,1,0.6,1.6,0.8
					c-2.8-0.2-5.3-1.9-6.6-4.5C6.3,15.4,7,17.5,8,19c-2.1-1.9-3.2-4.7-2.7-7.5c-1.8,0.8-2.6,2.9-2.6,4.8c-0.7-2.7,0.1-5.6,2.2-7.6
					C3,8.3,1.1,9.5,0,10.9c1.1-2.6,3.5-4.4,6.3-4.8c-1-1.3-2.8-1.5-4.3-1.3C1.6,4.9,1.3,5,1,5c2.4-1.2,5.5-1.8,7.9-0.2
					c-0.1-1-0.6-2-1.4-2.6C7.3,2,7.1,1.8,6.9,1.7C6.4,1.3,5.9,1,5.3,0.9c2.8,0.2,5.3,1.9,6.6,4.5c1-1.7,0.4-3.8-0.6-5.3
					c2.1,1.9,3.2,4.7,2.7,7.5c1.8-0.8,2.6-2.9,2.6-4.8c0.7,2.7-0.1,5.7-2.2,7.6c1.9,0.4,3.7-0.8,4.9-2.2c-1.1,2.6-3.5,4.4-6.2,4.9
					c1.1,1.2,2.8,1.7,4.3,1.3C17.6,14.2,17.9,14.1,18.2,14z"/>
			</g>
		</g>
	</g>
</g>
</svg>
