<?xml version="1.0" encoding="utf-8"?>
<!-- Generator: Adobe Illustrator 24.0.0, SVG Export Plug-In . SVG Version: 6.00 Build 0)  -->
<svg version="1.1" id="Layer_1" xmlns="http://www.w3.org/2000/svg" xmlns:xlink="http://www.w3.org/1999/xlink" x="0px" y="0px"
	 viewBox="0 0 114.3 274.2" style="enable-background:new 0 0 114.3 274.2;" xml:space="preserve">
<style type="text/css">
	.st0{fill:#231F20;}
</style>
<title>Asset 1</title>
<g id="Layer_2_1_">
	<g id="Layer_1-2">
		<g id="_161b4716-38d8-479c-83f3-60d30a183a52">
			<g id="_161b4716-38d8-479c-83f3-60d30a183a52-child-0">
				<path class="st0" d="M110.4,0c0,2.1-2.9,6.2-1.5,7.7c0.1,0.9-0.4,1.5-0.6,2.3c0.5,1.4-1.7,5.7,0.3,4.8c-0.5,2.6-1.6,4.4-2.4,6.8
					c-1.1,1-0.7,2.8-0.4,4.2c0.4,0.4,0.8,0.9,1,1.5c0.4,0.3,0.8,0.5,1.3,0.5c0.5,0.7,1.5,0.9,1.7,1.7c0.4,0,1.4,0.5,1.6,0
					c0.3,0.8,0.9,1.3,1.7,1.5c-0.1,1.9-1,1.6,1.2,2.8c-0.5,1.6-1.7,2.6-2.5,3.9c-0.5,0.5-1.1-0.2-1.7-0.4c0.5-0.3-0.1-0.8-0.4-0.4
					c-0.1,0.2-0.2,0.6-0.4,0.7c-2,1.2-2.9,3.1-4.3,4.6c-1.8,4.9-5,10.3-4,15.9c-0.3,1.7-0.7,3.6,0,5.3c-0.2,0.5-0.3,1.1-0.3,1.6
					c-1,4.3-2.5,9.4-0.8,13.7c0,1.3-1.5,3.5,0.1,4.2v3.3c-0.1,3.5-3.1,6.3-2.8,9.6c-0.8,10-3.3,18.7-5.5,28c0.1,2.7-0.8,4.6-0.3,7
					c-0.6,1.1-1,2.3-1.1,3.5c0.3,2.2,0.1,4.4-0.6,6.6c0.2,0.2,0.6,0.5,0.6,0.7c-1.8,3.8-1.8,8.3,0,12.1c0.1,2.2,0,4.4-0.3,6.6
					c0.7,3.4,1,6.9,0.9,10.3c0.4,0.7-0.2,1.6,0.3,2.4c0,0.1,0.7,0.6,0.7,0.7c0,0.7-0.1,1.3-0.4,1.9h0.8c-0.3,1.5,0.7,3.9,1.2,5.3
					c0.5,1,1.4,1.4,2.1,2.1c1,3-1.6,5.7-3.6,7.6c-1.6,1-4.7,1-6.5,0.9c-0.6-0.2-1.3-0.3-1.9-0.2c-0.2-0.3-0.3-0.7-0.6-0.8
					c-1.4-0.3-1.9-2.6-3.1-3.5c-0.5-1.8-1.2-4.8-1.7-6.9c0.2-4.2,0.2-10.6-1.8-14.2c-0.9-1.4-1-3.5-1-5.1c-0.2-2-1-4.1-0.6-6.2
					c-0.7-4.1-2.6-7.9-1.9-12.1c0.8-4-0.1-10,1.4-13.8c-0.2-4.3,0.2-10.1,0.5-14.5c0.6-4.2,0.5-8.2,0.9-12.4c0-0.1,0.5-0.5,0.5-0.7
					c0-0.2,0-0.4,0-0.6c1.5-3.3,4.6-5.6,4.1-9.3c-0.8-0.9-1.3-2-1.4-3.1c-0.7-0.8-0.6-3.6-0.6-4.6c0.1-1,0.4-1.9,0.8-2.8
					c0.5-1.5,0.1-3.4,0.3-4.9l-1.2-0.7c1-1.3,0.1-7.2,0-8.7c0.7-2,2.4-3.4,2.1-5.4l0.4-1.4c0.1-2.4,0.5-4.7,1.4-6.9
					c0.3-3.6,0.8-7.7,0-11.3c0.3-0.9,0.3-1.8,0-2.7c0.2-2.5-0.5-5.4-0.3-8c-0.6-0.6-1.4-1-2.3-1.2c-0.2-0.4-0.7-0.5-1.1-0.4
					c-0.2-0.9-0.6-1.7-1.2-2.5c-4.6-0.6-6,5.9-9.3,7.9c-2.4,1.8-5.2,2.1-8,3.1l-1.6,1.6c-1.5,0-2.4,1.7-3.7,2.3
					c-0.6,0-1.1,0.2-1.5,0.7h-1.8c-0.6,0.5-1.4,0.7-2.2,0.5c-1.1,1-2.6-0.2-4.2-0.1c-0.9,0.8-1.6,1.8-1.8,3
					c3.7,4.5-0.8,9.7,0.6,14.6c-0.6,1.2,0.6,1.9,0.5,3c-0.3,0.9-0.3,1,0.4,1.7l-0.8,5c0.3,1,0.4,2.1,0.3,3.2
					c0.3,1.2,1.4,1.8,0.8,3.1c0.4,1.9-1,5.4,0.5,6.8c0,0.8-0.3,2.3,0.6,2.8v1.9c0.9,2.4,1.2,5.1,0.9,7.6l-0.5,1.9
					c0.9,2,0.1,4.5-0.3,6.4l0.6,0.4c-1.3,2.8-0.5,6.4-0.7,9.5c-0.2,0.3-0.4,0.5,0,0.8c0,0.3,0,0.6,0,0.8c1.7,4.5,0.6,10.3,0.1,15.1
					c-1.1,2.4-1.7,5.1-1.7,7.8c-0.3,1.8-0.3,3.6,0.1,5.4c-0.5,2.1-1.1,3.9-0.9,6.3c0.7,0.4,1,1.5,1.9,1.7c0.2,0.1,0.4,0.3,0.3,0.5
					l-0.6,1.4c-0.1,0.3,0.4,0.8,0.3,1.1l-1.4,2.9c0,2,0.4,3.2,0,4.9c0.7,2,0.1,4.3,0.6,6.3c-0.4,2.9-2.2,6-1.4,9.1
					c0.5,0.5,0.9,1.4,0.5,1.9c0.1,0.6,0.4,1.1,0.8,1.5c0.3,2,0,4.4,0.8,6.3c-0.2,0.8-0.4,1.7-0.5,2.5c1.1,1.5-2.8,4.4-0.2,4.3
					c-0.3,3.5,1.2,7.3-0.9,10.4l1.4,2.2v4.5c-0.8,1.9-1.2,3.9-1.4,5.9c0.3,2.8,0,6.1,0.4,8.9c0.6,1.3,0.9,2.7,1,4.2
					c-0.4,5.6,1.6,11.1,3,16.1c-1.4,4-2,6.7,0.6,10.2c-0.1,1.4,0,2.9,0.3,4.3c2.5,5.4,5.2,5.6,0.6,11.5c-0.6,0.3-1.1,0.7-1.6,1.2
					c-3.1,1.5-6.9-0.3-9.1-2.4c-0.2-0.8-1.1-1-1-1.8c-0.3-0.3-0.6-0.8-0.3-1.2c-0.9-0.2-1.6-2-1.5-2.9c-2.6-2.9-1.4-8.6-2.6-12.5
					c-0.1-0.7,0.3-3.9-0.5-4.2c0.1-0.9-0.1-1.9-0.6-2.7l-0.3-1.9c-1.4-2-1.6-4.9-1.7-7.5c-0.7-3.6-1.5-7.8-1.9-11.4
					c0.4-1.9-0.5-3.9-0.5-5.8c0.1-2.4-0.2-4.7-0.8-7c-1.9-2-0.6-7.9-0.5-10.4c0.5-1.1,0.5-2.9,0.8-4c0.8-0.3,0.9-3.4,1-4
					c-0.5-0.9,0.2-1.8,0-3c-1-1.9-0.8-4.5-0.2-6.5c-0.8-0.3-1.3-1.2-1.1-2l-0.6-1.4c0.4-4.5,0.6-9.4-1.2-13.5
					c-2.4-8.1,1.2-17.3,0.8-25.4c0.2-10.5,3.9-20.8,2.2-31.5c-0.7-0.8-0.6-3.2-0.6-4.2c0-0.2-0.3-0.8-0.2-0.9
					c0.7-2.1-0.5-3.9-1.1-5.7c-2.9-3.6-3.2-8.7-2.2-13.2c0.8-1.5,1.7-3.8,1.1-5.7v-1.6c-0.5-0.6-0.9-1.3-1.1-2
					c0.8-8.3,0.9-15.8,2-24c-0.3-0.3-0.6-0.6-0.8-0.9c-0.7-0.2-1.4-0.4-2.1-0.5l-1.2-1.1c-0.6,0.2-1.8-0.8-2.3-1.1
					c-0.6,0-1.1-0.4-1.3-0.9c-2.7-1.7-7-4.3-8.1-7.6c-1.5-3.2-5.4-1.3-8.1-1.6c-0.1,0-0.5-0.5-0.6-0.5c-0.4,0.1-1.4-0.4-1.8-0.6V0
					H110.4z M49.7,62.3c0.7,0,0.5,1.6,0.5,2.3H51l-0.2,0.9c0.3,0.2-0.7,0-0.9,0.1L48.7,66c-0.9-0.3-1.2,0.3-2.1,0.4
					C46,66,47,65.2,47.3,64.9C47.7,63.6,48.7,63,49.7,62.3z"/>
			</g>
		</g>
	</g>
</g>
</svg>
