<?xml version="1.0" encoding="utf-8"?>
<!-- Generator: Adobe Illustrator 24.0.0, SVG Export Plug-In . SVG Version: 6.00 Build 0)  -->
<svg version="1.1" id="Layer_1" xmlns="http://www.w3.org/2000/svg" xmlns:xlink="http://www.w3.org/1999/xlink" x="0px" y="0px"
	 viewBox="0 0 62.6 80.5" style="enable-background:new 0 0 62.6 80.5;" xml:space="preserve">
<style type="text/css">
	.st0{fill:#231F20;}
</style>
<title>302ae034-5e0c-40c4-8253-9c8cd45f7095</title>
<g id="Layer_2_1_">
	<g id="Layer_1-2">
		<g id="_302ae034-5e0c-40c4-8253-9c8cd45f7095">
			<g id="_302ae034-5e0c-40c4-8253-9c8cd45f7095-child-0">
				<path class="st0" d="M33.9,0.1c0.2,0.8,0.3,1.6,0.3,2.4c0.2,5.5,0.1,11.1,0.4,16.6c0.2,2.8,0.8,5.5,1.7,8.1
					c1.9,5.6,6.3,8.5,11.7,9.8c4,1,8.2,1.3,12.3,1.9c0.8,0.1,1.5,0.3,2.2,0.5c0,0.3,0,0.5,0.1,0.8c-0.8,0.3-1.6,0.6-2.4,0.9
					c-4,0.8-7.9,1.6-11.9,2.4c-2.1,0.4-4.2,0.9-6.2,1.6c-5.5,1.8-9.7,6.1-11.4,11.6c-2,6.3-3.3,12.8-3.9,19.4
					c-0.1,1.5-0.3,2.9-0.4,4.3c-1.7,0.2-1.8-0.6-1.7-1.5c0.1-2.6,0.4-5.1,0.4-7.7c0.2-4.9-0.2-9.8-1.2-14.6c-1.7-7.3-6-12.4-13.1-15
					c-2.7-0.8-5.5-1.5-8.3-2C1.7,39.5,0.8,39.2,0,39c0.1-1.7,1-1.7,2-1.7c4.5,0,8.9-0.7,13.2-2.2c3.7-1.1,6.8-3.7,8.6-7.1
					c3.7-6.6,5.7-13.8,7.4-21c0.4-1.8,0.7-3.5,1.1-5.3c0.2-0.6,0.5-1.1,0.8-1.6L33.9,0.1L33.9,0.1z"/>
			</g>
		</g>
	</g>
</g>
</svg>
