<?xml version="1.0" encoding="utf-8"?>
<!-- Generator: Adobe Illustrator 24.0.0, SVG Export Plug-In . SVG Version: 6.00 Build 0)  -->
<svg version="1.1" id="Layer_1" xmlns="http://www.w3.org/2000/svg" xmlns:xlink="http://www.w3.org/1999/xlink" x="0px" y="0px"
	 viewBox="0 0 118 168.4" style="enable-background:new 0 0 118 168.4;" xml:space="preserve">
<style type="text/css">
	.st0{fill:#231F20;}
</style>
<title>a4717ff2-ab76-4a4b-95c4-bcd631014787</title>
<g id="Layer_2_1_">
	<g id="Layer_1-2">
		<g id="a4717ff2-ab76-4a4b-95c4-bcd631014787">
			<g id="a4717ff2-ab76-4a4b-95c4-bcd631014787-child-0">
				<path class="st0" d="M71.7,59.1c2.5,0,4.7,0,6.9,0c2.1,0,4.1,0,6.2,0.2c3.4,0.5,4.6,2.8,3.1,5.8c-1,2-2.2,3.8-3.6,5.6
					C76.4,80.4,68.6,90,60.7,99.6c-16.5,19.9-33.1,39.8-49.6,59.7c-1.9,2.2-3.8,4.4-5.7,6.7c-0.6,0.7-1.2,1.3-1.8,1.8
					c-0.7,0.7-1.8,0.9-2.6,0.3c-0.8-0.5-1.1-1.6-0.7-2.5c0.5-1.3,1.1-2.6,1.8-3.9c3.6-6.5,7.2-13,11-19.4
					c10.3-17.2,20.8-34.3,31.2-51.6c2.3-3.8,4.5-7.7,6.6-11.5c0.6-1.1,1-2.3,1.7-3.9c-1.4,0.4-2.3,0.6-3.2,0.9
					c-2.9,0.9-5.9,1.9-8.8,2.8c-1.1,0.3-2.3,0.5-3.5,0.6c-2.8,0.1-4.5-1.7-4-4.5c0.3-1.5,0.8-2.9,1.5-4.2c1.9-3.6,3.9-7.2,6.1-10.7
					c5.5-8.7,11-17.3,16.8-25.9c4.1-6.1,7.6-12.6,10.5-19.4c1.2-2.8,2.5-5.5,3.7-8.2c1.5-3.7,5.3-6,9.3-5.6c4,0.1,7.9,0.2,11.9,0.1
					C99,0.8,105.2,0.3,111.4,0c1.2-0.1,2.4-0.1,3.5,0.1c2.7,0.4,3.8,2.5,2.4,4.9c-1,1.7-2.2,3.3-3.6,4.7
					c-6.6,7.4-13.2,14.7-19.7,22.2c-6.1,6.9-12.1,14-18.2,21C74.2,54.7,72.7,56.8,71.7,59.1L71.7,59.1z"/>
			</g>
		</g>
	</g>
</g>
</svg>
