<?xml version="1.0" encoding="utf-8"?>
<!-- Generator: Adobe Illustrator 24.0.0, SVG Export Plug-In . SVG Version: 6.00 Build 0)  -->
<svg version="1.1" id="Layer_1" xmlns="http://www.w3.org/2000/svg" xmlns:xlink="http://www.w3.org/1999/xlink" x="0px" y="0px"
	 viewBox="0 0 296.7 272.1" style="enable-background:new 0 0 296.7 272.1;" xml:space="preserve">
<style type="text/css">
	.st0{fill:#060606;}
</style>
<title>aOgaqeJRuvlxRT3oR7mIm</title>
<g id="Layer_2_1_">
	<g id="Layer_1-2">
		<g id="aOgaqeJRuvlxRT3oR7mIm">
			<g id="aOgaqeJRuvlxRT3oR7mIm-child-1">
				<path class="st0" d="M217.9,213.9c-19.3-23.5-46.2-43.5-70.8-64c-24.3-23.6,18.6,10.9,22.8,14.8c1.5,3.4,57.6,34.2,49.5,36.4
					c-8.6-4.7-18.7-13.4-27.8-18C195.6,187.8,224.6,209.8,217.9,213.9z M170.4,166.9c0,0,0.2-0.3,0.1-0.3L170.4,166.9z M226.6,220.1
					c-10.6-8.7,3.7,11.9,5.1,15C247,262.1,238,226.3,226.6,220.1z M236.7,258.1c-8.4-37.7-42.7-61.1-73.7-87.7
					C125,136.6,86.3,106,46.7,73.7C26.9,54.3-5.9,57.6,0.9,22.4c5.2-26.5,40.5-30.8,52.7-6c3.7,5.4,2,6.1,2.2,10.5
					c2,11.9,29.8,41,32.5,42.2c35.3,32.5,86.3,72,120.7,103.7c16.4,14.5,44.6,46.4,68,33.9c11.9-8.7,20.4,7.4,13.9,15.7
					c-2.9,2.6,4.8,4.9,5.8,6.1c-0.8,8.2-7.2,17.8-16.4,17.5c-1.5-0.3-2.2,0.3-1.7,1.6c1.8,8-10.7,8.5-11.9,15.3
					C263.6,280.1,241.8,269.7,236.7,258.1L236.7,258.1z M172.2,176.2c0,0,0.2-0.3,0.1-0.3L172.2,176.2z M51.2,19.8
					C42-5.6,1,1.9,5.9,26.1c6.8-7,9.4-13.2,19.9-7.8C32.9,14,43.9,16.5,51.2,19.8z M269.1,254.8c11.3-8.1-2.1-9.9,17.6-14.8
					c4.1-3.6,7.2-8.2,5.1-10.4c-3.6,1-11.7,0-15.9-2.8c-3.6,20.6-24.8,8-7.4,28C268.4,255.1,268.9,254.8,269.1,254.8L269.1,254.8z
					 M248.2,265.8c8.5,8.8,21.2-4.9,14.4-10.9C252.9,242.2,238.1,256.3,248.2,265.8L248.2,265.8z M241.5,259.7
					c-0.7-3.7,3.8-25,4.8-10.8c4.7-2.1-2.5-7.4,0.4-10.8c2.6-1.2,7,6.9,4.8,8.2c9.3,1.3,2.9-7.4,17.3-12.1
					c-4.8-5.4-2.7-6.9-11.7-5.2c-3.9-2.2-5.8,4.8-8.6,4.6c-3-9.9,19.7-12.2,21.8-2.6c1.9-12.5,9.2-7.4,16.7-7.1
					c0.9-2.8,5.4-10.1,2.2-12.3c0.6,4.4-3,7.4-3.3,1.9c1-2-4.2-6.4-6.4-4.1c-26.7,12-44.9-9.9-71.3-33c-36.1-33-83-69.9-120.4-103.1
					C77.3,63.8,67.8,53.3,59.4,42c-8.8-14.2-6.1-22-25.9-22.6c-7.4,5.9-16.9-4.9-21.1,4.9c-2.2,3.3-5.2,6.4-7.5,5.5
					c-8.3,15.2,18.2,25.1,30.7,32c9.5,5.5,18.5,14.5,28.5,22.2c35.8,28.2,68.6,55.7,103.6,86.1c31.3,25.8,64.5,51.4,73.9,90.3
					L241.5,259.7z M251.1,269.5C251.1,269.5,251.2,269.4,251.1,269.5C251.1,269.4,251.1,269.5,251.1,269.5L251.1,269.5z M44.9,65.3
					c-3.1-8.5,20.6,11.9,23,12.9c4,3.3,7,6.9,10.9,9.9c4-3.1,8.6,6.1,13.1,8.1c7.3,5.8,7.2,10.8,15.9,16c2.2,2.4,32.1,26.5,17,19.1
					C97,107.5,74.8,87.1,44.9,65.3z M80.7,91.4c0,0.1,0.1,0.2,0.2,0.3C80.8,91.7,80.8,91.6,80.7,91.4z M42.7,51.9
					C36.7,47.5,6.3,33,15.8,26.1c5.8-3,11.4-0.4,12.1,6.4c1.4-3.6,5.5,0.1,7.2-2c1-0.3-6-3.3-5.3-3.7c0.3-2.2,2.1-1.6,4.3-0.4
					c7.6,3.3,3.2,9.6-3.1,7.5c0.2,7.5-13.3,1.5-6.5-1.6c-0.6-4.6-4.3-4.8-7.9-3.2c8.5,7.9,2.7,6.2,20.4,15.8c1.5,0.9,9.2,5.3,9.6,6
					C47,53.6,45.1,54.7,42.7,51.9L42.7,51.9z M35.4,28.6C35.4,28.6,35.4,28.5,35.4,28.6C35.4,28.6,35.3,28.6,35.4,28.6z M27.4,34.2
					c-0.2,0.3-0.5,0.4-0.9,0.4c1,0.5,1.7-0.2,1.2-1C27.7,33.8,27.5,34,27.4,34.2L27.4,34.2z M4,36.1c-1.6,3,7.4,14.1,7.8,7.8
					c3.5,1.8,14,10.6,14.5,8.1C25,45.3,8.3,41,7,36.9c0.3-3.3,1.2-1.4,2.9-2.9c1.3-1,1.1-0.9,1.7,0.6c1.4,5.9,9.7,13.1,5,2.6
					C13.9,28.1,7.4,28.5,4,36.1z M155.8,140.3c1.4-1.6,1-1.8-0.8-2.9c-2.3-1.2-3.2-3-1.4-4.2c-0.8-1.1,7.9,5,9.1,6.1
					c0.9,1-3.6,4.5-3.3,4.3C159.2,143.7,153.3,142.1,155.8,140.3L155.8,140.3z M160.5,140c0,0,0.2-0.3,0.1-0.3L160.5,140z"/>
			</g>
		</g>
	</g>
</g>
</svg>
