<?xml version="1.0" encoding="utf-8"?>
<!-- Generator: Adobe Illustrator 24.0.0, SVG Export Plug-In . SVG Version: 6.00 Build 0)  -->
<svg version="1.1" id="Layer_1" xmlns="http://www.w3.org/2000/svg" xmlns:xlink="http://www.w3.org/1999/xlink" x="0px" y="0px"
	 viewBox="0 0 146.9 398.9" style="enable-background:new 0 0 146.9 398.9;" xml:space="preserve">
<style type="text/css">
	.st0{fill:#231F20;}
</style>
<title>bff8d9ff-f7aa-4ee7-8fb8-fe781c7113f4</title>
<g id="Layer_2_1_">
	<g id="Layer_1-2">
		<g id="bff8d9ff-f7aa-4ee7-8fb8-fe781c7113f4">
			<g id="bff8d9ff-f7aa-4ee7-8fb8-fe781c7113f4-child-0">
				<path class="st0" d="M145,145.9h-0.3c-3-22.3-30.8-35.8-56.4-46.5c27.4-11,57.2-25,57.4-49.4S131,20,112.7,10.1l-5,9.3
					c15.8,8.5,27.7,18.2,27.6,30.4c-0.1,19.6-30.8,31.9-60.9,43.8C44.4,81.3,14,68.5,14.2,49s21.5-28,45.1-38l-4-9.8
					C29.6,12,3.6,25.8,3.5,48.8S33,87.7,60.2,99.1c-25.7,10.4-53.7,23.5-57.1,45.7H2.8v3.6v0.5v3.8H3c3,21.9,30.8,35.4,56.4,46.1
					c-27.3,11-57.2,25-57.4,49.8s29.5,38.9,56.7,50.3c-27.4,11-57.3,25.1-57.5,49.8v1.9c-0.6,4.7,0.2,6.5,3.9,13.5
					c4.6,8.5,29,25,29,25l4.8-10.2c0,0-9.4-0.4-18.2-11.5c-3.8-4.5-6.8-9.6-9.1-15.1v-3.4c0.1-20,32.1-32.9,60.9-44.2
					c28.6,11.8,60.3,25.1,60.2,45.1v3.6h0.1c-1.3,5.2-4.3,10.9-11.7,16.6c-9.7,7.5-33.3,18.6-33.3,18.6l3.9,9.3
					c0,0,27.1-12.2,36.5-20.1s15.1-23,15.1-24.3v-3.6c0.2-24.8-29.5-39.3-56.7-50.7c27.4-11,57.2-25,57.4-49.4s-29.5-39.3-56.7-50.7
					c25.7-10.3,53.7-23.4,57.1-45.2h0.3v-3.6v-0.4L145,145.9z M133.7,249.6c-0.1,19.6-30.8,31.9-60.9,43.8
					c-29.9-12.3-60.4-25.1-60.2-44.7s32.2-32.9,60.9-44.2C102.1,216.3,133.9,229.6,133.7,249.6z M73.6,193.2
					c-29.8-12.3-60.2-25-60.2-44.3c0.4-19.8,32.2-32.7,60.9-43.9c28.4,11.7,60.1,25,60.2,44.8C134,169.1,103.5,181.4,73.6,193.2z"/>
			</g>
			<g id="bff8d9ff-f7aa-4ee7-8fb8-fe781c7113f4-child-1">
				<path class="st0" d="M146.1,149.9c0.2-24.1-25.7-38.3-54.7-50.7c29.1-11.9,55.3-25.6,55.5-49.5s-19.1-33.1-33.7-40.9l-1.5,2.9
					c13.8,7.3,32.1,19.3,32,38s-27.1,35.9-56.4,47.7c-2.8-1.2-5.7-2.4-8.6-3.6C88.9,89.8,99,85.6,108,81.1l9.8,0.1
					c0.9,0,1.6-0.7,1.6-1.6c0-0.9-0.7-1.6-1.6-1.6H114c6.3-3.6,11.8-7.5,15.8-11.8h1.6c0.9,0,1.6-0.7,1.6-1.6
					c0.1-0.6-0.2-1.1-0.8-1.3c3.1-3.8,4.8-8.6,4.9-13.5c0-4.9-2.4-11.6-7.4-17.1c-0.9-1-1.9-1.9-2.9-2.9
					c-5.5-4.8-11.6-8.9-18.2-12.2l-1.6,2.9c5.2,2.6,10.1,5.8,14.7,9.3l-94.1-0.7c8.3-6.4,20-11.8,32-16.9l-1.3-3
					c-13.8,5.8-27,12.1-35.8,19.9h-4c-0.8,0.1-1.5,0.7-1.5,1.6c0,0.9,0.7,1.6,1.6,1.6h0.7C14.7,37.2,12,42.6,12,48.8
					s1.6,9.2,4.5,13.3c0.8,1.1,1.7,2.2,2.7,3.3c3.9,4.3,9.3,8.3,15.6,12c1.9,1.2,3.9,2.2,5.9,3.3c8.8,4.7,19,9,29.2,13.2l4.3,1.8
					c0.3,0.1,0.6,0.3,0.9,0.4l7.8,3.2c1.4,0.6,2.8,1.2,4.3,1.8c29.2,12.3,55.9,26,55.7,49s-27.2,35.9-56.5,47.7
					c-2.8-1.2-5.7-2.4-8.6-3.6c9-3.5,17.9-7.2,26-11.1l10.5,0.1c0.9,0,1.6-0.7,1.6-1.6c0-0.9-0.7-1.6-1.6-1.6h-4.2
					c6.7-3.6,12.7-7.5,17.2-11.8h3.3c0.9,0,1.6-0.7,1.6-1.6c0-0.9-0.7-1.6-1.6-1.6h-0.3c3.8-4.5,6-9.4,6-14.9s-2.5-11.6-6.9-16.5
					c-0.5-0.6-1.1-1.2-1.7-1.7c-4.3-4.3-10-8.2-16.5-12c-2-1.1-4-2.2-6.2-3.3c-8.2-4.2-17.4-8.1-26.7-11.9l-4.3-1.8
					c-0.5-0.2-1-0.4-1.5-0.6c-2.4-1-4.8-2-7.2-3l-4.3-1.8C32.1,84.9,5.3,71.3,5.5,48.6S29.8,13.9,55.9,3l-1.3-3
					C27.5,11.4,2.4,25.1,2.2,48.6S28,86.5,57,98.9c-29.2,12-55.3,25.8-55.5,49.9s25.8,37.9,54.7,50.3C27,211.1,0.9,224.9,0.8,249
					s25.8,37.9,54.7,50.3C26.3,311.3,0.2,325,0,349.2s19.2,33.1,33.8,40.8l1.5-2.9c-13.8-7.4-32.1-19.3-32-38s27.1-36.2,56.4-48.1
					c2.8,1.2,5.7,2.4,8.6,3.6c-9.3,3.7-18.5,7.4-26.8,11.5l-10.5-0.1c-0.9,0-1.6,0.7-1.6,1.6c0,0.9,0.7,1.6,1.6,1.6h4.3
					c-6.1,3.2-11.7,7.1-16.7,11.7h-2.2c-0.9,0-1.6,0.7-1.6,1.6c0,0.7,0.4,1.3,1,1.5c-3.7,4.5-5.9,9.5-6,15s1.8,10.2,5.6,15
					c0.9,1.2,1.9,2.3,2.9,3.3c4.7,4.7,11.3,9.3,20,13.9l1.5-2.9c-6-3.1-11.6-6.7-16.7-11l98.2,0.7c-8.4,7.1-21,13.1-34.2,18.6l1.3,3
					c14.8-6.2,28.9-13,37.7-21.6h3c0.9,0,1.6-0.7,1.6-1.6c0-0.9-0.7-1.6-1.6-1.6h-0.1c3.6-4.5,5.8-9.4,5.8-14.9s-2.5-11.6-6.9-16.5
					c-0.5-0.6-1.1-1.2-1.7-1.8c-5-4.7-10.5-8.8-16.6-12c-2-1.1-4-2.2-6.1-3.3c-8.2-4.2-17.4-8.1-26.6-11.9l-4.4-1.7
					c-0.5-0.2-1-0.4-1.5-0.6l-7.2-3l-4.3-1.8c-29.1-12.3-55.9-25.9-55.7-48.6c0.2-22.7,27.1-36.2,56.4-48.1c2.8,1.2,5.7,2.4,8.6,3.6
					c-9.3,3.7-18.5,7.4-26.8,11.5l-10.5-0.1c-0.9,0-1.6,0.7-1.6,1.6s0.7,1.6,1.6,1.6h4.3c-6.1,3.2-11.7,7.1-16.8,11.8h-2.2
					c-0.9,0-1.6,0.7-1.6,1.6c0,0.7,0.4,1.3,1,1.5c-3.7,4.5-5.9,9.5-6,15.1s2.1,10.4,5.8,15c0.9,1.2,1.9,2.3,3,3.3
					c5.1,4.7,10.8,8.8,16.9,12c2,1.1,4.1,2.2,6.3,3.3c8,4,16.9,7.8,25.9,11.5l4.3,1.8c0.3,0.1,0.6,0.3,0.9,0.4
					c2.6,1,5.2,2.1,7.8,3.2l4.3,1.8c29.2,12.3,55.9,26,55.7,48.9s-24.3,34.7-50.4,45.6l1.3,3c27.1-11.4,52.3-25.1,52.4-48.6
					S119.1,312,90,299.6c29.1-11.9,55.3-25.6,55.5-49.5s-25.7-38.3-54.8-50.7C119.8,187.5,146.1,173.8,146.1,149.9L146.1,149.9z
					 M23.9,32.2l101.7,0.8c4.6,4.4,7.2,8.8,8.1,13.4h-0.1L15.6,45.4C16.6,40.6,19.5,36.2,23.9,32.2z M20.6,62.1
					c-3.4-4.1-5.4-8.5-5.3-13.3s0-0.1,0-0.2s0.2,0.1,0.3,0.1l117.9,0.9c0.2,0,0.3,0,0.4-0.1v0.2c0,4.8-2.1,9.2-5.5,13.2L20.6,62.1
					L20.6,62.1z M23.8,65.4l101.4,0.8c-4.7,4.2-10.8,8.1-17.9,11.7l-65.8-0.5C34.4,73.6,28.3,69.6,23.8,65.4z M74.3,92.1
					c-9-3.7-18-7.4-26.2-11.4l52.6,0.4C92.4,84.9,83.3,88.5,74.3,92.1z M124.8,365.1l-105.1-0.8c-4.1-4.4-6.2-8.8-6.6-13.4h0.2
					l117.9,0.9c0.1,0,0.3,0,0.4,0C131.1,356.6,128.7,361,124.8,365.1L124.8,365.1z M131.6,348.6c-0.1,0-0.2-0.1-0.3-0.1l-118-0.9
					h-0.2c0.5-4.8,2.9-9.2,6.8-13.3l105.1,0.8C128.8,339.3,131.2,343.7,131.6,348.6L131.6,348.6z M121.6,331.8l-98.2-0.7
					c5.8-4.6,12.2-8.6,18.9-11.7l60.6,0.5C109.6,323.1,115.8,327.1,121.6,331.8L121.6,331.8z M72.7,306.4c8,3.3,16.1,6.6,23.5,10.2
					L49,316.2C56.5,312.8,64.6,309.6,72.7,306.4z M73.5,192.2c-7.7-3.2-15.4-6.3-22.5-9.7l45.3,0.3
					C89.1,186.1,81.3,189.1,73.5,192.2L73.5,192.2z M103.1,179.6l-59-0.4c-6.8-3.2-13.2-7.3-19.1-12l97.5,0.7
					C117.3,172.1,110.6,176,103.1,179.6z M126,164.6l-104.6-0.8c-4-4.1-6.4-8.6-6.8-13.4h0.2l117.9,0.9c0.1,0,0.2,0,0.3,0
					C132.6,156.1,130,160.6,126,164.6L126,164.6z M133,148.1c-0.1,0-0.2-0.1-0.3-0.1l-117.9-0.9h-0.2c0.5-4.8,2.9-9.2,6.8-13.3
					l105.1,0.8C130.3,138.8,132.7,143.3,133,148.1L133,148.1z M123,131.4l-98.3-0.7c5-4.2,11.5-8.1,18.8-11.7l60.7,0.5
					C111.7,123.2,118.2,127.2,123,131.4L123,131.4z M74.2,106c8,3.3,16.1,6.7,23.5,10.2l-47.2-0.3C58,112.4,66,109.2,74.2,106
					L74.2,106z M73.4,206.2c8,3.3,16.1,6.6,23.5,10.2L49.8,216C57.3,212.6,65.3,209.4,73.4,206.2L73.4,206.2z M43,219.2l60.6,0.4
					c6.7,3.3,13,7.3,18.7,12l-98.2-0.7C29.9,226.3,36.3,222.3,43,219.2L43,219.2z M20.7,234.1l105.1,0.8c3.8,4.1,6.2,8.6,6.6,13.4
					c-0.1,0-0.2-0.1-0.3-0.1l-118-0.9h-0.2C14.3,242.5,16.8,238.1,20.7,234.1z M13.8,250.6h0.2l117.9,0.9c0.1,0,0.2,0,0.3,0
					c-0.5,4.8-3,9.3-7,13.3L20.7,264C16.7,259.9,14.3,255.4,13.8,250.6z M24.1,267.3l97.6,0.7c-5.1,4.2-11.8,8.1-19.3,11.7
					l-59.2-0.4C35.8,275.6,29.2,271.6,24.1,267.3L24.1,267.3z M72.7,292.3c-7.7-3.2-15.4-6.3-22.6-9.7l45.4,0.3
					C88.3,286.2,80.5,289.3,72.7,292.3L72.7,292.3z M142.1,250c-0.2,22.7-27.1,35.9-56.4,47.7c-2.8-1.2-5.7-2.4-8.6-3.5
					c9-3.6,17.9-7.2,26-11.1l10.4,0.1c0.9,0,1.6-0.7,1.6-1.6c0-0.9-0.7-1.6-1.6-1.6h-4.1c6.2-3.1,12-7.1,17.1-11.7h3.3
					c0.9,0,1.6-0.7,1.6-1.6c0-0.9-0.7-1.6-1.6-1.6h-0.3c3.8-4.5,6-9.4,6-14.9s-2.5-11.6-6.9-16.5c-0.5-0.6-1.1-1.2-1.7-1.8
					c-5-4.7-10.5-8.8-16.6-12c-2-1.1-4-2.2-6.1-3.3c-8.3-4.2-17.4-8.1-26.6-11.9l-4.3-1.8c-0.5-0.2-1-0.4-1.5-0.6
					c-2.4-1-4.8-2-7.2-2.9l-4.3-1.8c-29.1-12.3-55.9-25.9-55.7-48.6s27.1-36.2,56.5-48.2c2.8,1.2,5.7,2.4,8.6,3.6
					c-9.3,3.7-18.5,7.5-26.8,11.5l-11.8-0.1c-0.9,0-1.6,0.7-1.6,1.6c0,0.9,0.7,1.6,1.6,1.6h5.6c-6.1,3.2-11.7,7.1-16.7,11.7h-2.2
					c-0.9,0-1.6,0.7-1.6,1.6c0,0,0,0,0,0c0,0.7,0.3,1.3,1,1.5c-3.7,4.5-5.9,9.5-6,15.1s2.1,10.4,5.8,15c0.9,1.2,1.9,2.3,3,3.3
					c5.1,4.7,10.8,8.8,17,12c2,1.1,4.1,2.2,6.3,3.3c8,4,16.9,7.8,25.8,11.5l4.3,1.8c0.3,0.1,0.6,0.3,0.9,0.4c2.6,1,5.2,2.1,7.8,3.2
					l4.3,1.8C115.5,213.4,142.2,227.1,142.1,250L142.1,250z"/>
			</g>
		</g>
	</g>
</g>
</svg>
