<?xml version="1.0" encoding="utf-8"?>
<!-- Generator: Adobe Illustrator 24.0.0, SVG Export Plug-In . SVG Version: 6.00 Build 0)  -->
<svg version="1.1" id="Layer_1" xmlns="http://www.w3.org/2000/svg" xmlns:xlink="http://www.w3.org/1999/xlink" x="0px" y="0px"
	 viewBox="0 0 174.1 81.6" style="enable-background:new 0 0 174.1 81.6;" xml:space="preserve">
<style type="text/css">
	.st0{fill:#231F20;}
</style>
<title>cfe2e776-0105-4522-993e-3f658a00124f</title>
<g id="Layer_2_1_">
	<g id="Layer_1-2">
		<g id="cfe2e776-0105-4522-993e-3f658a00124f">
			<g id="cfe2e776-0105-4522-993e-3f658a00124f-child-0">
				<path class="st0" d="M148.1,80.2l0.1-0.3l0.6-0.9l0.4-0.5l1-1.1l1.1-1.1L154,74l1.4-1.1l2.7-1.7l0.6-0.4l1-0.4l1.1-0.1l0.3,0.1
					l0.8-0.1l0.4-0.1l1.1-0.5l0.6-0.3l1.3-0.9l2-1.6l1.2-1.1l1.9-1.5l0.9-0.6l1.3-0.6l0.6-0.2l0.7,0.2l0.4,1.1v0.2l-0.3,0.7
					l-0.2,0.4l-0.6,0.9l-0.6,1l-1.9,2.3l-1,1.1l-2,2L167,73l-0.9,0.7l-1.1,0.7l-0.7,0.3l-1.1,0.5l-0.6,0.2l-0.9,0.4l-0.9,0.3
					l-1.1,0.2l-0.5,0.1l-0.4-0.3l-0.2-1v-0.3l-0.3-0.3l-0.2-0.1l-0.6,0.2l-0.4,0.2l-1.1,0.8l-2.2,1.8l-0.6,0.6l-1.1,1l-0.5,0.4
					l-0.9,0.7l-0.4,0.3l-0.7,0.5l-0.3,0.2l-0.5,0.3l-0.4,0.2l-0.4-0.2l-0.1-0.2 M114.8,72.8L114.8,72.8l0.3-0.3l0.2-0.2l0.6-0.6
					l0.4-0.3l0.9-0.8l0.5-0.4l1.2-1l1.3-1.2l3.2-2.6l5.4-4.4l1.6-1.3l3-2.3l1.4-1.1l2.5-1.9l1.2-0.9l2.1-1.5l1-0.7l1.7-1l0.8-0.5
					l1.3-0.7l0.6-0.3l0.9-0.2l0.4-0.1l0.5,0.2l0.3,0.7v0.1l-0.2,0.4l-0.1,0.2l-0.5,0.6l-0.6,0.7l-1.8,1.8l-1,1l-2.4,2.3l-1.3,1.2
					l-2.8,2.5l-1.4,1.3l-2.9,2.5l-1.4,1.2l-2.7,2.2l-1.3,1l-2.2,1.6l-0.5,0.4l-0.9,0.6l-1.1,0.7l-0.8,0.4l-1.8,0.6l-0.9,0.3
					l-1.8,0.3l-0.8,0.1l-1.3-0.1h-0.3l-0.4-0.2l-0.1-0.1 M8.5,71.4L8.1,71l-0.3-1.3L7.7,69l0.1-1.5L8,66.7l0.5-1.4l1.1-1.4l0.3-0.2
					l0.7-0.2h0.4l0.8,0.1l0.8,0.2l1.3,1.1l0.6,0.6l0.7,1.5l0.1,0.4v0.8L15,69.4L14.7,70l-1,0.9l-0.6,0.4l-1.3,0.5L11.2,72H9.9H9.3
					 M93.4,69.9v-0.1l0.4-0.6l0.3-0.3l1-0.9l0.6-0.5l1.5-1.2l0.8-0.7l2-1.5l1-0.8l2.4-1.8l1.3-0.9l2.9-2.1l1.5-1.1l3.3-2.3l5.3-3.7
					l0.9-0.6l1.6-1l0.7-0.5l1.2-0.8l0.6-0.4l0.9-0.5l0.4-0.2l0.7-0.3l0.7-0.3l0.9,0.1l1.1,0.8l0.5,0.6l0.4,1.1l-0.3,1.3l-0.1,0.1
					l-0.5,0.4l-0.3,0.2l-0.9,0.6l-0.5,0.3l-1.2,0.8l-0.6,0.4l-1.5,1l-1.5,1l-3.6,2.3l-1.9,1.2l-4,2.4l-2,1.2l-3.8,2.2l-1.9,1.1
					l-3.3,1.9l-0.8,0.4l-1.4,0.7l-0.6,0.4l-1,0.6L96,70.4l-0.7,0.3L94.7,71h-0.4l-0.6-0.3l-0.3-0.2 M57.4,68.1v-0.2l0.4-0.7l0.3-0.4
					l0.8-0.9l0.5-0.5l1.2-1l2-1.5l0.4-0.3l0.9-0.6l0.5-0.3l1.1-0.8l1.1-0.8l2.7-2l8.7-6.6l1.2-0.9l2.1-1.5l1-0.8l1.9-1.3l0.9-0.6
					l1.6-1l0.8-0.5l1.3-0.7l0.6-0.3l1-0.3l0.5-0.1h0.7h0.3l0.4,0.3l0.3,0.8v0.1l-0.3,0.3L92,45.3l-0.6,0.6L91,46.2L90.1,47l-0.5,0.4
					l-1.2,1l-1.2,1l-3,2.4l-5.2,4l-1.2,0.9l-2.2,1.7l-1.1,0.8l-1.9,1.5l-1,0.7L70,62.6l-0.8,0.6l-1.5,1.1l-1.5,1l-2.3,1.6l-1.1,0.7
					l-1.7,1l-0.8,0.4l-1.1,0.5l-0.5,0.2h-0.6l-0.3-0.1l-0.3-0.4l-0.1-0.3 M137.2,67.6v-0.2l0.2-0.4l0.1-0.3l0.5-0.6l0.5-0.7l1.7-1.8
					l1-1l2.3-2.2l1.2-1.1l2.7-2.3l1.4-1.2l2.7-2.2l1.3-1.1l2.5-1.9l1.2-0.9l2-1.3l0.5-0.3l0.8-0.4l0.9-0.4l0.8-0.2l1.1-0.7l0.2-0.2
					l0.3-0.4l0.1-0.6v-0.1l-0.3-0.2l-0.2-0.1l-0.5-0.2l-0.6-0.2l-1.9-0.4l-1-0.2l-2.7-0.3l-4.8-0.5l-2.7-0.2l-5.2-0.5l-1.4-0.1
					l-2.8-0.3l-1.4-0.1l-3-0.3l-1.6-0.2l-3.4-0.4l-1.8-0.2l-3.8-0.5l-2-0.3l-4.4-0.6l-7.5-1l-0.5-0.1l-1.4-0.2l-0.7-0.1l-1.7-0.1
					l-1.7-0.1l-4.2-0.2l-13.6-0.4h-2.2L80,37.6l-2.2-0.1l-4-0.2l-1,0l-1.7-0.1l-0.8-0.1L68.8,37l-0.7-0.1L67,36.8l-1.3-0.2l-0.8-0.2
					l-2.1-0.7l-1.1-0.4L59,34l-1.4-0.7l-3-1.5l-1.5-0.8l-3-1.6l-1.5-0.8L45.8,27l-1.3-0.8l-2.2-1.5l-1-0.7l-1.4-1.2l-0.3-0.3
					l-0.4-0.4l-0.2-0.5v-0.3l0.2-0.5l0.1-0.2l0.4-0.3l0.2-0.1h0.6h0.3l0.9,0.2l0.5,0.1l1.3,0.5l0.7,0.3l1.6,0.8l0.9,0.4l2,1l3.4,1.9
					l1.5,0.9l2.7,1.5l1.3,0.7l2.4,1.2l1.2,0.6l2.1,0.9l1,0.4l1.8,0.7l1.8,0.6l3.1,0.5h4.5l0.7-0.1l1.6,0h0.8l1.8,0.1l0.9,0.1
					l1.8,0.2l2.5,0.4l1.5,0.3l2.7,0.3h0.6h1l0.9-0.3l0.1-0.1V34v-0.1L92,33.6l-0.3-0.3l-1.4-0.9l-0.8-0.5l-2.2-1.1l-1.2-0.6
					l-2.8-1.3l-1.4-0.7l-3.2-1.4l-1.6-0.7l-3.4-1.4l-9.9-3.5l-1.3-0.4L60,19.9l-1.2-0.4l-2-0.8l-0.9-0.4l-1.3-0.7l-0.9-0.8l-0.1-0.3
					l0.2-0.5l0.2-0.2l0.7-0.2l0.4-0.1h1.1h0.6l1.4,0.2l0.8,0.1l1.7,0.3l0.9,0.2l2,0.5l2.1,0.5l4.7,1.5l2.4,0.8l5.1,1.9l2.6,1
					l5.1,2.2l2.6,1.1l4.7,2.3l6.1,3.5l0.4,0.3l1.5,0.6l0.9,0.3l2.3,0.6l1.2,0.3l2.7,0.6l4.2,0.7l0.7,0.1l1.7,0.2l0.9,0.1l2.1,0.3
					l2.2,0.3l5.1,0.7l2.6,0.4l5.5,0.7l8,1.1l1.9,0.3l3.5,0.5l1.7,0.2l3.1,0.4l1.5,0.2l2.7,0.4l1.3,0.2l2.3,0.4l1.1,0.2l2,0.3
					l0.9,0.2l1.6,0.3l0.8,0.2l1.3,0.3l0.6,0.1l1,0.3l0.5,0.1l0.8,0.2l0.4,0.1l0.5,0.2l0.4,0.2l0.2,0.5v0.2l-0.6,0.5l-1.5,0.8
					l-0.2,0.1l-0.6,0.4l-0.3,0.2l-0.9,0.6l-0.5,0.3l-1.1,0.8l-0.6,0.4l-1.3,1l-1.3,1l-3.1,2.5l-4.9,4l-1.4,1.2l-2.6,2.1l-1.3,1
					l-2.2,1.8l-1.1,0.8l-1.9,1.3l-0.9,0.6l-1.5,1l-0.7,0.4l-1.1,0.6l-0.5,0.2l-0.8,0.2l-0.4,0.1l-0.4-0.2l-0.2-0.1 M75,65.5l0.1-0.1
					l0.5-0.4l0.3-0.2l0.8-0.6l0.4-0.3l1-0.7l0.6-0.4l1.3-0.9l1.3-0.9l3.2-2l1.6-1l3.5-2.2l1.7-1.1l3.4-2l1.6-1l2.9-1.7l0.7-0.4
					l1.2-0.7l0.6-0.3l1-0.5l0.4-0.2l0.7-0.3l0.7-0.2h0.6l0.6,0.3l0.2,0.2l-0.2,0.7l-0.2,0.4l-0.8,1l-0.5,0.5l-1.5,1.3l-0.8,0.7
					L99.8,54l-1.1,0.8l-2.7,1.8l-1.4,0.9l-3.1,2l-5.2,3.1l-1.1,0.6l-2.1,1.1l-1,0.5l-1.8,0.9l-0.8,0.4l-1.4,0.6l-0.7,0.3l-1.1,0.3
					l-0.5,0.1l-0.7,0.1h-0.3l-0.3-0.2l-0.1-0.1l0.1-0.5l0.1-0.3 M38.2,51.7l0.1-0.2l0.3-0.4l0.2-0.2l0.5-0.3l2.1-0.7l2.2-0.3l4-0.7
					l1.9-0.3l3.2-0.8l0.7-0.2l1.2-0.4l0.6-0.2l0.9-0.4l0.4-0.2l0.5-0.4l0.3-0.5v-0.4l0.3-0.7L58,44l0.7-0.6l0.4-0.3l0.9-0.4l1.5-0.3
					h0.3l0.1,0.5l-0.6,1.3L61,44.7l-0.3,0.6l-0.1,0.3L60.4,46v0.2l0.1,0.3l0.1,0.1l0.4,0.1h0.2l0.7-0.1l0.4-0.1l1-0.3l0.5-0.2
					l1.2-0.4l2.2-0.8l0.9-0.3l1.6-0.6l0.8-0.3l1.4-0.4l1.3-0.4l1.9-0.3l0.9-0.1l1.3,0.3l1.4,1.2l0.2,0.3l0.1,0.6v0.3L78.5,46
					l-0.3,0.3L76.9,47l-2.8,1.3l-1.8,0.8l-3.9,1.3l-2,0.6L62.1,52l-2.2,0.4L55,52.8l-8.1,0.3h-2.4h-0.7h-1.2l-1.2,0l-1.6-0.2
					l-0.7-0.1l-0.7-0.3l-0.3-0.2 M0,37.7v-0.8l0.4-1.2l0.3-0.5l0.9-0.6L2,34.5l1,0.1l1.5,1.1L5,36.3l0.4,1.1l0.1,0.5l-0.3,0.9
					l-0.2,0.4l-0.9,0.6l-1.9,0.4H1.9L1.3,40L1,39.9l-0.5-0.3l-0.2-0.2l-0.2-0.6L0,38.5 M14.1,37.9L14,37.6l-0.1-0.6v-0.3l0.3-0.5
					l0.2-0.3l0.7-0.5l0.4-0.2l1.2-0.4l0.6-0.2l1.6-0.3l0.9-0.1l2.1-0.3l1.1-0.1l2.7-0.2l4.6-0.3l1.4-0.1l2.6-0.1h1.3h2.4h1.2h2.1h1
					l1.8,0.1h0.9l1.5,0.1l0.7,0.1l1.2,0.2l0.5,0.1l0.8,0.2l0.4,0.1l0.5,0.2l0.2,0.1l0.2,0.2v0.1L51,34.9L50.9,35l-0.5,0.3L50,35.4
					l-0.9,0.3l-0.5,0.1l-1.3,0.3l-0.7,0.2l-1.6,0.3l-0.9,0.2l-2,0.3l-3.5,0.5l-1.7,0.2l-3.2,0.3l-1.6,0.2l-3,0.3l-1.5,0.1l-2.6,0.2
					L24,38.8h-2.3h-1.1h-1.9h-0.9l-1.4-0.1l-0.6-0.1l-0.9-0.2l-0.4-0.1 M167.1,33.9l-0.4-0.2l-1.3-1l-0.7-0.6l-1.7-1.6l-1.8-1.7
					l-4-4.1l-1-1l-1.8-2l-0.9-1L152,19l-0.7-0.8l-0.9-1.3l-0.6-1.3V15l0.4-0.6l0.3-0.2l0.9,0.1l0.5,0.2l1.4,0.9l2.5,2.1l0.7,0.7
					l1.6,1.6l0.8,0.8l1.7,1.7l1.8,1.8l3.4,3.5l0.8,0.9l1.5,1.6l0.7,0.8l1.2,1.2l0.5,0.6l0.8,0.9l0.6,0.8l0.1,0.4l-0.3,0.4l-0.2,0.1
					h-0.8h-0.4l-1.2-0.4l-0.6-0.3 M108.9,27.2l-0.8-0.8l-1.6-1.4l-0.8-0.7l-1.3-1.1l-0.6-0.5l-0.9-0.6l-0.6-0.3l-0.1,0.1l0.1,0.4
					l0.1,0.3l0.3,0.7l1.7,2.8l0.5,0.7l0.7,1.2l0.3,0.5l0.4,0.8l0.2,0.4V30v0.2h-0.3h-0.2l-0.6-0.4l-0.3-0.2l-0.8-0.7l-0.5-0.4
					l-1.1-1.1l-2-2l-0.7-0.7l-1.1-1.3l-0.6-0.6l-0.9-1.1L97.2,21L96.6,20l-0.3-0.4L96,18.9l0-0.3l-0.1-0.5v-0.2l0.2-0.3l0.1-0.1
					l0.5-0.1l1,0.1l0.5,0.1l1.6,0.3l2.3,0.4l0.7,0.1l1.3,0.2l1.2,0.2h0.2l0.8,0.6l0.4,0.4l1.2,1.1l0.6,0.6l1.4,1.4l0.7,0.7L112,25
					l0.7,0.8l1.4,1.5l0.7,0.7l1.2,1.3l0.5,0.6l0.8,1l0.5,0.9v0.3l-0.1,0.4l-0.1,0.2l-0.3,0.2l-0.2,0l-0.5-0.1l-0.3-0.1l-0.7-0.3
					l-0.4-0.2l-0.9-0.6l-0.5-0.3l-1.1-0.8l-0.6-0.5l-1.3-1.1l-0.7-0.6 M127.2,31.3l-1.3-0.6l-2.3-1.2l-1.1-0.6l-1.6-1.3l-0.7-0.6
					l-0.8-1.1l-0.1-0.3l-0.1-0.5l0.2-0.6l0.2-0.2l0.6-0.2h0.3l0.9,0.2l0.5,0.1l1.2,0.5l2.2,1.1l1,0.5l1.7,1l0.8,0.5l1.2,1l0.6,0.5
					l0.8,0.8l0.3,0.4l0.3,0.7l0.1,0.3l-0.1,0.4l-0.1,0.2l-0.7,0.1h-0.4l-1.2-0.3l-0.7-0.2 M144.5,30.2l-1.2-0.7l-2.2-1.4l-1.1-0.7
					l-1.9-1.5l-0.9-0.7l-1.6-1.4l-0.7-0.7l-1.2-1.3l-0.5-0.6l-0.7-1.1l-0.3-0.5l-0.2-0.8v-0.4l0.4-0.5l1.3-0.3h0.1l0.4,0.1l0.2,0.1
					l0.6,0.3l0.6,0.4l1.7,1.1l0.9,0.6l2,1.5l1,0.8l2.2,1.7l1.1,0.9l2,1.7l1,0.8l1.7,1.5l0.8,0.7L151,31l0.2,0.2l0.3,0.4l0.2,0.4v0.4
					l-0.4,0.4L151,33l-1-0.1l-0.6-0.2l-1.7-0.7l-0.9-0.4 M163.5,17.2l-0.7-0.3l-1.1-0.6l-0.5-0.3l-0.7-0.5l-0.3-0.3l-0.3-0.4
					l-0.1-0.2l0.1-0.4l0.1-0.1l0.5-0.2l0.3-0.1l0.9-0.1h0.5h1.2l2.3,0.2l1.5,0.1l2.4,0.4l1.1,0.2l1.6,0.6l0.7,0.3l0.9,0.8l0.5,1.5
					V18l-0.3,0.3l-0.2,0.1l-0.6,0.2l-0.7,0.1h-2.1l-1.1-0.1l-2.4-0.4l-1.2-0.3 M25.3,7.9l-0.6-1.3l-0.7-2.1l-0.3-0.9l0.1-1.4
					l0.1-0.6l0.9-0.8L27,0.1L27.6,0h1h0.5l0.8,0.3l0.4,0.2l0.6,0.6l0.9,1.4l0.6,1.1l0.6,2.1l0.2,1L33,8.4l-0.2,0.8L32,10.4l-2,0.9
					l-0.5,0.1l-0.9-0.1l-0.4-0.1L27.4,11l-0.4-0.3l-0.7-0.9L26,9.3L25.3,7.9z"/>
			</g>
		</g>
	</g>
</g>
</svg>
