<?xml version="1.0" encoding="utf-8"?>
<!-- Generator: Adobe Illustrator 24.0.0, SVG Export Plug-In . SVG Version: 6.00 Build 0)  -->
<svg version="1.1" id="Layer_1" xmlns="http://www.w3.org/2000/svg" xmlns:xlink="http://www.w3.org/1999/xlink" x="0px" y="0px"
	 viewBox="0 0 155 82.8" style="enable-background:new 0 0 155 82.8;" xml:space="preserve">
<style type="text/css">
	.st0{fill:#5D5D5D;}
	.st1{fill:#231F20;}
	.st2{fill:#787778;}
	.st3{fill:#FFFFFF;}
</style>
<title>d744623f-3b98-477e-9aeb-4c46392c7db6</title>
<g id="Layer_2_1_">
	<g id="Layer_1-2">
		<g id="d744623f-3b98-477e-9aeb-4c46392c7db6">
			<g id="d744623f-3b98-477e-9aeb-4c46392c7db6-child-0">
				<path class="st0" d="M40.1,18.4c3,1.3,4.5-3.6,3.9-4.6C41.2,9.2,37.1,17.2,40.1,18.4z M76.2,5.1c2.3,5.3-2.7,8.2-5.6,7.2
					c0,0-4.2,5.3-10.7,3.5S46.7,8.4,55.4,3.1S73.8-0.3,76.2,5.1L76.2,5.1z M109.8,20.4c1.3,1.1,0.3,5-2.1,4.7S106.9,18,109.8,20.4z
					 M75,63.2c2.5,0.2,4.4,4.7,1.1,6.3s-5.7,1.2-6.7,4c-1.5,4.3-5.1,7.6-9.5,8.8c-6.2,1.6-14.8-1.4-9.4-7.3s10-6,12.9-5.4
					s3.2,2,4.7-0.1S72.5,63,75,63.2z M96.1,15.1c1.8,1.4,1,5.4-2,5.1S93.8,13.3,96.1,15.1z M114.7,14.4c-2.8-2.3,2.2-5.4,4.1-6.4
					c2.2-1.2,5.2,2.1,3.9,4.5S117.5,16.6,114.7,14.4z M140.4,45.8c-2.7,2-6,1.3-5.7-0.5s2.5-3.4,4.6-3.7
					C141.9,41.3,143.1,43.8,140.4,45.8L140.4,45.8z M142.7,15.1c5.1-3.3,13-0.9,12.2,4.9s-9.4,5.3-13.8,3.1
					C137.8,21.4,137.6,18.3,142.7,15.1L142.7,15.1z M87.5,69.1c-1.1-2.5,4.4-10.6,7.2-8.5c2.2,1.6,3.1,5.2,0.3,8.4
					S88.6,71.5,87.5,69.1z M65.3,39.7c4.4-0.1,10-0.9,10.7-6.8s2.7-9.8,6.1-9.5s4.5,2.1,4.2,4s-0.7,3.3,0.8,3s5.3-6.8,8.8-6.2
					s5.5,4.6,5.1,5.7s-3.2,1-0.3,2.4s11.8,7.5,14.4,2.8s-1.8-9.8,5.8-9.8s8.4,7.6,3.4,13.5s-9.6,9.1-14.3,8.3s-3.1-4.8-6-5.5
					s-1.3,1.4-3.5,1.1s-0.6-3.8-1.6-4.6s-2.4-2.1-3.3-0.7s0.2,1.8-0.4,3.3s-1.9,1.8-1.8,2.9s1.8,2.2,2.3,3.7s0.5,6.9-2.5,6.2
					s-0.5-4-2.6-4.2s-2.4-1.2-7.3,0.5c-2.4,0.8-18.3-7.4-22.1-6.2s5.6,9,3,11.8c-0.8,0.9-1.9,1.5-3.1,1.7
					c-6.4,0.1-18.3-4.9-26.3,0.2s-12,13.1-20.2,10s1.8-6.9,5.8-7.2s13.5-14.3,12.9-20.8c0,0-0.3-9,15.1-5.2S60.9,39.8,65.3,39.7
					L65.3,39.7z M5.7,56.7c-2.7,2-6,1.3-5.7-0.5s2.5-3.4,4.7-3.7C7.2,52.3,8.4,54.7,5.7,56.7L5.7,56.7z"/>
			</g>
			<g id="d744623f-3b98-477e-9aeb-4c46392c7db6-child-1">
				<path class="st1" d="M40.1,18.4c3,1.3,4.5-3.6,3.9-4.6C41.2,9.2,37.1,17.2,40.1,18.4z M76.2,5.1c2.3,5.3-2.7,8.2-5.6,7.2
					c0,0-4.2,5.3-10.7,3.5S46.7,8.4,55.4,3.1S73.8-0.3,76.2,5.1L76.2,5.1z M109.8,20.4c1.3,1.1,0.3,5-2.1,4.7S106.9,18,109.8,20.4z
					 M75,63.2c2.5,0.2,4.4,4.7,1.1,6.3s-5.7,1.2-6.7,4c-1.5,4.3-5.1,7.6-9.5,8.8c-6.2,1.6-14.8-1.4-9.4-7.3s10-6,12.9-5.4
					s3.2,2,4.7-0.1S72.5,63,75,63.2z M96.1,15.1c1.8,1.4,1,5.4-2,5.1S93.8,13.3,96.1,15.1z M114.7,14.4c-2.8-2.3,2.2-5.4,4.1-6.4
					c2.2-1.2,5.2,2.1,3.9,4.5S117.5,16.6,114.7,14.4z M140.4,45.8c-2.7,2-6,1.3-5.7-0.5s2.5-3.4,4.6-3.7
					C141.9,41.3,143.1,43.8,140.4,45.8L140.4,45.8z M142.7,15.1c5.1-3.3,13-0.9,12.2,4.9s-9.4,5.3-13.8,3.1
					C137.8,21.4,137.6,18.3,142.7,15.1L142.7,15.1z M87.5,69.1c-1.1-2.5,4.4-10.6,7.2-8.5c2.2,1.6,3.1,5.2,0.3,8.4
					S88.6,71.5,87.5,69.1z M65.3,39.7c4.4-0.1,10-0.9,10.7-6.8s2.7-9.8,6.1-9.5s4.5,2.1,4.2,4s-0.7,3.3,0.8,3s5.3-6.8,8.8-6.2
					s5.5,4.6,5.1,5.7s-3.2,1-0.3,2.4s11.8,7.5,14.4,2.8s-1.8-9.8,5.8-9.8s8.4,7.6,3.4,13.5s-9.6,9.1-14.3,8.3s-3.1-4.8-6-5.5
					s-1.3,1.4-3.5,1.1s-0.6-3.8-1.6-4.6s-2.4-2.1-3.3-0.7s0.2,1.8-0.4,3.3s-1.9,1.8-1.8,2.9s1.8,2.2,2.3,3.7s0.5,6.9-2.5,6.2
					s-0.5-4-2.6-4.2s-2.4-1.2-7.3,0.5c-2.4,0.8-18.3-7.4-22.1-6.2s5.6,9,3,11.8c-0.8,0.9-1.9,1.5-3.1,1.7
					c-6.4,0.1-18.3-4.9-26.3,0.2s-12,13.1-20.2,10s1.8-6.9,5.8-7.2s13.5-14.3,12.9-20.8c0,0-0.3-9,15.1-5.2S60.9,39.8,65.3,39.7
					L65.3,39.7z M5.7,56.7c-2.7,2-6,1.3-5.7-0.5s2.5-3.4,4.7-3.7C7.2,52.3,8.4,54.7,5.7,56.7L5.7,56.7z"/>
			</g>
			<g id="d744623f-3b98-477e-9aeb-4c46392c7db6-child-2">
				<path class="st2" d="M89.9,45.6c-1-0.6-2.5,1.1-2.5,1.1l3.1,0.8C91.7,47.9,91.2,46.3,89.9,45.6z M56,9.3c0,0,5.1,1.7,7.9-0.6
					c0,0-1.7,2.1,0.2,2.9c1.9,0.8,4.2-1.9,4.2-1.9s-1.3,4.6-5.7,4.8c-2.5,0.2-5-1-6.5-3c0,0,3.9,1.3,5.3-0.1
					C61.4,11.4,58.7,12,56,9.3L56,9.3z M104.5,40.1c2.6,0.7,5.5,0.3,7.8-1c0,0-0.7,2.5,2.4,2.7c4,0.2,8.6-5.4,8.6-5.4
					s-4.2,6.5-8.5,7.8c-6.8,2.2-5.3-2-5.3-2C107.6,42.2,105.8,41.5,104.5,40.1z M76.7,68.2c0,0-3.9,2.8-5.2,1.4s1.5-4.8,1.5-4.8
					S72.1,69.8,76.7,68.2z M140,45c0,0-3.5,1.9-4.1,0.5c-0.5-1.1,0.8-2,0.8-2S136.8,45.8,140,45z M76.1,44
					c3.9,0.9,10.3,1.7,10.3,1.7s-2.7,1.7-4.4,1.6s-19.1-6.7-19.1-6.7S71.1,42.8,76.1,44z M140.5,19.1c0.7-1.1,1.7-1.9,2.8-2.3
					c0,0-2.3,1.8,0.7,3.1s8.5-0.1,9-1.8c0,0,1.7,1,0.2,3.1c-1.9,1.5-4.3,2.1-6.7,1.7C142.2,22.5,139.4,20.8,140.5,19.1L140.5,19.1z
					 M88.6,67.2c0.4-0.8,0.8-1.7,1.3-2.4c-0.5,1.1,0,2.4,1.1,2.8c2.4,1.1,4.4-1.5,4.4-1.5c-0.6,1.5-1.7,2.8-3.2,3.5
					C89.8,70.8,88,68.8,88.6,67.2z M56.5,78.1c2.1,2.7,8.3,0.2,8.3,0.2s-4.5,3.3-9.5,2.7s-4-3.6-1.6-5.9c1.5-1.5,3.3-2.6,5.3-3.5
					C58.9,71.5,54.4,75.4,56.5,78.1z M56.7,54c-3-0.2-8.3-1.3-8.3-1.3s10.3-1,11.6-3.7C61.8,54.2,59.7,54.2,56.7,54L56.7,54z
					 M29.3,53.7c0,0,4.4-9.1,5.2-12.3l0.8,3.2L29.3,53.7z M5.3,56c0,0-3.5,1.9-4.1,0.5c-0.5-1.1,0.8-2,0.8-2S2,56.8,5.3,56z"/>
			</g>
			<g id="d744623f-3b98-477e-9aeb-4c46392c7db6-child-3">
				<path class="st3" d="M121.8,11.3c0.2-2.3-1.8-2.6-3.5-1.8c-1,0.4-1.8,1.2-2.1,2.3C115.5,13.3,121.6,13.5,121.8,11.3z M67.2,73.5
					c1.1,2.1-3,4.2-5.4,3.6c-2.8-0.7-3.4-3.9-1-5.3c2.1-1.3,4.9-0.7,6.3,1.5C67.2,73.3,67.2,73.4,67.2,73.5z M141,43.4
					c-0.3,0.9-3,1.3-3.5,0.1c-0.1-0.4,1.2-1.1,1.7-1.2C140.3,42,141.2,42.5,141,43.4z M145.6,17.5c-0.9-1.2,2.2-2.5,2.8-2.5
					c2.1,0,4.2,1.4,3.7,2.4S146.9,19.2,145.6,17.5L145.6,17.5z M82.2,30.5c-1.7,0.7-5.5-0.9-3-3.7s4.5-2.5,5.4-1.2
					S83.9,29.8,82.2,30.5z M96.2,30.4c0.6,2,2.8,1.7,5.6,3.4c2.7,1.5,5.5,2.8,8.4,3.9c-2.3,0.1-7.1-2.4-6.5-1.3s-0.9,2.9-2.9,2
					s-0.8-3.5-4.5-5.1c-2.5-0.9-5.2-1.1-7.8-0.7c2.7-0.5,6.7-2.8,5.9-4.5s-1.4-2.3,1-2.8c2-0.3,3.9,1,4.2,3c0,0.2,0,0.4,0.1,0.5
					C99.5,30.7,95.3,27.3,96.2,30.4z M88.4,32.6L88.4,32.6L88.4,32.6z M86.6,33c0,0-1.8,2.5-0.9,4.5s1.6-3,3.8-2.2s5.3,4.6,1.9,6.5
					s-4.9-3.4-6.2-1.7S84.9,44,82,44.3s-15.9-3-15.9-3s8.7-1.3,11.2-3.1s4.3-2.2,5.8-1.7S83.8,31.9,86.6,33L86.6,33z M67.4,1.7
					c2.5-0.1,7.8,2.2,7.9,5.8s-8.8,0.9-9.7-2.1S66.4,1.7,67.4,1.7z M116.2,35.5c0.4-1,1-1.8,1.8-2.5c0.2,0,0.5,0.1,0.7,0.1l-0.1-0.1
					c-1.7-1.7-2-5.6,0.6-6.3c2-0.5,7.1,0.8,6.6,3.1c-0.4,1.9-4.2,4.1-6.3,3.7c0.7,0.5,1,1.4,0.6,2.2c-0.6,1.9-5.1,2.9-7.8,2.3
					C112.3,37.9,115.3,37.5,116.2,35.5L116.2,35.5z M63,2.3c1.2,0.5,1.9,2.1-0.2,2.6s-5.3,0.2-4-1.3C59.9,2.5,61.5,2,63,2.3z
					 M43.1,13.1c0.6,0.6,0.7,1.5,0.2,2.2c-0.6,0.7-3,0.6-2.5-1.1S42.7,12.6,43.1,13.1z M40,43.8c2.9,0.2,5.5,1.9,6.7,4.6
					c0,0,4.8-5.1,10.5-0.8c2.4,1.8-9.9,4.8-16.6,5.7s-11.8,8-14.8,10.1c-6.3,4.4-11.2,4.3-12,1.8c-0.4-1.2,4-4.3,6-2.3
					c2.4,2.4,7.5-1,10.5-5.5C35.4,49.3,34.9,43.4,40,43.8z M43.4,34.6c6.9-0.2,14.5,4.2,14.5,4.2c-2.4-1.3-9.6-1.8-10.3,0.9
					c0,0.1,0,0.2,0,0.3l0,0c-0.3,1.2-1.3,2.1-3.5,2.3c-5.9,0.4-7.8-2-7.4-4.5C37.2,35.8,40.7,34.4,43.4,34.6L43.4,34.6z M95.8,15.9
					c0.6,0.6,0.7,1.5,0.2,2.2c-0.6,0.7-3,0.6-2.4-1.1S95.3,15.4,95.8,15.9z M107.2,22.1c0.6-1.8,1.8-1.6,2.3-1.1
					c0.6,0.6,0.7,1.5,0.2,2.2C109,23.9,106.6,23.8,107.2,22.1z M6.3,54.4c-0.3,0.9-3,1.3-3.5,0.1c-0.2-0.4,1.2-1.1,1.7-1.2
					C5.6,52.9,6.5,53.5,6.3,54.4z M90.5,64.6c0.5-1.5,1.7-2.7,3.3-3c1.3,0,2.6,1.1,0.9,2.5C93,65.4,90,66.5,90.5,64.6z"/>
			</g>
		</g>
	</g>
</g>
</svg>
