<?xml version="1.0" encoding="utf-8"?>
<!-- Generator: Adobe Illustrator 24.0.0, SVG Export Plug-In . SVG Version: 6.00 Build 0)  -->
<svg version="1.1" id="Layer_1" xmlns="http://www.w3.org/2000/svg" xmlns:xlink="http://www.w3.org/1999/xlink" x="0px" y="0px"
	 viewBox="0 0 114.6 244.1" style="enable-background:new 0 0 114.6 244.1;" xml:space="preserve">
<style type="text/css">
	.st0{fill:#231F20;}
</style>
<title>Asset 2</title>
<g id="Layer_2_1_">
	<g id="Layer_1-2">
		<g id="_80c247ae-6a08-47d6-b4f7-e678e3eb110b">
			<g id="_80c247ae-6a08-47d6-b4f7-e678e3eb110b-child-0">
				<path class="st0" d="M21.8,65.6c0,0-9.7,17.5,0.6,40.7s42.2,24.8,52,46.8c4.8,10.8,3.3,23.6-7.6,28.5s-22.1,5.8-30.5-13.5
					c-6.1-14.1-3.7-23.6-3.7-23.6s-11.2,15,0.6,34.7c9.9,16.5,69.6,38.7,81.3,65.1c0,0-14.4-37.9-5.2-68.8S97.7,95.7,64.8,81.1
					c0,0,11.2,8.9,19.7,28.1s-3,36.3-18,2.7c-11.3-25.5,1-35.9-37.4-63.1C2.9,30.3,2.4,11.5,0.4,0c-1.9,8.2,2,34.6,21,50.6
					c35,29.4,33.7,56.1,20,57.6C20.1,110.4,21.8,65.6,21.8,65.6z"/>
			</g>
		</g>
	</g>
</g>
</svg>
