<?xml version="1.0" encoding="utf-8"?>
<!-- Generator: Adobe Illustrator 24.0.0, SVG Export Plug-In . SVG Version: 6.00 Build 0)  -->
<svg version="1.1" id="Layer_1" xmlns="http://www.w3.org/2000/svg" xmlns:xlink="http://www.w3.org/1999/xlink" x="0px" y="0px"
	 viewBox="0 0 150.5 124.8" style="enable-background:new 0 0 150.5 124.8;" xml:space="preserve">
<style type="text/css">
	.st0{fill:#231F20;}
</style>
<title>Asset 14</title>
<g id="Layer_2_1_">
	<g id="Layer_1-2">
		<g id="_1e27100d-c14f-4b69-93b5-4e6dd501e275">
			<g id="_1e27100d-c14f-4b69-93b5-4e6dd501e275-child-0">
				<path class="st0" d="M0,8.2c1.2,0.6,2.3,1.4,3.3,2.3c0.8,0.7,1.2,1.8,2,2.6c0.1,0.1-0.1,1.1,0,1.3c0.7,0.8,1.3,1.6,1.8,2.5
					l2.8,1.4l2.6,0.8h5l1.8,0.3c0.4,0.1,0.8,0.3,1.1,0.5c0.8,0.8,1.1,1.9,0.8,3l0.9,1.9c0.3,0.9,0.4,1.8,0.3,2.8
					c0.2,0.6,0.5,1.2,0.8,1.7c-0.4,0.9,0.1,2-0.1,3.5l0.6,1.8l0.2,2.6c0.2,1.1,0.2,2.2,0,3.3c0.2,0.2,0.8,0.7,0.9,0.9
					c0.2,1.4,0.6,2.7,0.9,4c0.2,0.9,0.3,1.8,0.3,2.7c0.1,0.4,0.2,0.7,0.3,1.1c0.3,1.2,0.4,2.4,0.3,3.6c0,0.4,0.4,0.8,0.4,1v2.6
					c0,0.2,0.6,0.6,0.6,0.8c0.1,0.3,0.2,0.5,0.2,0.8c0.1,0.6-0.2,1.4,0.1,2.2c-0.1,2.9,0,5.8,0.5,8.6c-0.2,2-0.2,4-0.1,6l0.3,1.5
					c-0.4,1.1,0.3,2.1-0.1,3.3c0.1,1.3,0.4,2.5,1,3.7c0.1,0.3,1.1,0.3,1.1,0.8v1.5l1.4,1.9c0.1,0.9,0.6,1.7,1.3,2.2
					c0.1,0.1,0,0.6,0,0.7s0.4,0.9,0.5,1.1c0.1,0.2,0,0.4-0.2,0.6l0.4,1.5c0,0.1-0.8,0.7-0.8,0.8c-0.1,1.6,0,3.1,0.1,4.7
					c0.2,1.1,0.6,2.2,1,3.2c0,0,0.4,0.3,0.4,0.4c0,1.3,0.5,2,0.6,3.1c0,0.4-0.1,0.8-0.4,1.1c-0.2,0.3,0.2,0.6,0.1,0.9
					c-0.2,1.8-0.4,3.7-0.4,5.6c0,0.4-0.1,0.8-0.4,1.1c-0.1,0.1,0,0.6,0,0.7l-0.7,1.6c0,0.8,0.3,1.5,0.3,2.3v1.9
					c0.8,1.2,1.8,2.2,2.8,3.2c1.2,0.3,2.3,0.7,3.4,1h3.1c0.4,0,0.6-0.6,0.8-1h2.2c0.4-0.7,0.9-1.2,1.5-1.6c0.2,0,0.5,0,0.7,0v-1.6
					c0-0.3,0.4-0.6,0.6-0.8c-0.4-1-0.6-2-0.6-3c-0.4-0.5-0.8-0.9-1.4-1.2c0.2-0.3,0.8-0.4,0.8-0.6c0-0.5,0-0.9-0.1-1.4
					c0.3-0.7,0.6-1.4,1-2.1l-0.1-2.2c0.3-0.1-0.1-0.2-0.1-0.3l-1.4-1.7h1.4c0.1-0.4-0.2-0.7-0.4-1c0-0.1,0-0.2,0-0.3
					c0-0.1,0.1-0.2,0.2-0.3c-0.2-1.1-0.3-2.3-0.4-3.5c0-0.1-0.4-0.4-0.5-0.6c0-0.2,0-0.4,0-0.7c0.1-0.3,0.6-0.2,0.8,0l0.4-0.4
					c-0.5-0.3-1-0.6-1.4-1.1c-0.1-0.1,0-0.8,0-0.9c-0.2-0.6-0.4-1.1-0.8-1.5c-0.1-0.2-0.1-0.4,0-0.6c0.1-0.1,0.2-0.3,0.4-0.3
					c0.2,0,0.4,0,0.6,0l0.1-2.6c0-0.2,0.4-1,0.3-1.2c-0.3-0.9-0.9-1.8-1.7-2.3c0.4-0.1,1-0.6,0.8-0.9c-0.5-1.3-0.8-2.7-1-4.1
					c0-0.1,0.6-0.8,0.6-1c-0.3-0.8-0.6-1.5-1-2.2v-1.8c-0.3-0.7-0.4-1.6-0.1-2.3c-0.6-1.1-1.1-2.3-1.5-3.5c0.2-0.7,0.3-1.4,0.3-2.1
					c0.3,0,0.5,0,0.8,0c0.1-0.1,0.3-0.2,0.4-0.3c0.1-0.2,0-0.5-0.2-0.6c0.1-0.4,0.3-0.8,0.7-1.1c-0.1-0.4-0.5-0.6-0.6-0.9
					s0.3-0.8,0.1-0.9c-0.4-0.5-0.6-1.1-1.2-1.3c0.1-0.1,0.4-0.5,0.6-0.5s1.3,0,1.1-0.2c-0.7-0.5-1.2-1-1.7-1.7
					c-0.2-0.3,0.3-0.7,0.2-0.9c-0.4-0.5-0.7-1.1-1.2-1.3c0.1-0.1,0.4-0.5,0.5-0.5C44,62,44.8,62.3,45,62c-0.3-0.5-0.8-0.8-1.3-1
					c0.3-0.4,0.5-0.9,0.5-1.4c-0.1-0.4-0.1-0.8,0-1.2c0.2-0.4,0.9-0.3,1-0.8c0.1-0.3,0.1-0.7,0-1l-0.7-1.7c-0.1-0.3,0.7-0.5,0.6-0.9
					c-0.1-0.2-0.7-0.6-0.7-0.7l0.3-3.9c0-0.3-0.5-1-0.5-1.2s0.4-0.8,0.3-1c-0.4-1.1-0.7-2.2-0.9-3.3c-0.1-0.3,0.1-0.7,0-1.1
					c0-0.1-0.4-0.4-0.5-0.5c-0.1-0.3-0.1-0.6,0-0.9c0.1-0.2,0.6-0.7,0.6-0.8V39c0-0.2-0.6-0.6-0.6-0.8c-0.1-0.3-0.1-0.6,0-0.9
					c0.4-0.3,0.9-0.5,1.3-0.7c-0.6-0.5-1.2-1.1-1.6-1.8c-0.3,0-0.7,0.1-0.8-0.1c0.4-0.2,0.7-0.5,1.1-0.8c0.5-1.2,0.7-2.5,0.6-3.7
					c0-0.1-0.6-0.6-0.6-0.8l-0.6-3.9c0-0.2-0.6-0.6-0.6-0.8c-0.1-0.4-0.1-0.8,0-1.2c0-0.1,0.5-0.4,0.5-0.5v-1.6l-0.3,0.3
					c0-0.2,0-0.5,0-0.7c0.1-0.3,0.6,0,0.8-0.1c0.5-0.2,0.6-0.9,1-1.1c0.9-0.4,1.8-0.8,2.8-1.1l-0.4-0.4c0.3-0.1,0.5-0.2,0.8-0.4
					c0.3-0.3,0.3-1,0.7-1c1.4-0.1,2.8,0,4.2,0.4c0.4,0.6,0.4,1.4,0.8,1.9l1.3,1.2c0.2,0.2,0.5,1.1,0.6,1.3l1.5,1.5
					c0.9,0.4,1.8,0.8,2.5,1.4c1,0.2,1.8,0.6,2.7,0.8c1.9,0.5,4,0.8,6,1.1l1.4,1.4c0.3,0.3,0.4,0.7,0.5,1.1c-0.3,1.6-0.4,3.3-0.3,4.9
					c0.1,0.4,0.2,0.8,0.3,1.3c0,1.1-0.1,2.2-0.3,3.3l0.4,2c0.1,0.3-0.2,0.6-0.2,0.9c0.4,2.4,0.7,4.7,0.8,7.1c0,0.3-0.4,1.1-0.3,1.3
					c0.2,0.5,0.4,1.1,0.6,1.6l0.1,2.1c0,2.1,0.6,4.1,0.9,6.2c0,0.2-0.1,0.4-0.1,0.5c0.2,1.2,0.3,2.4,0.2,3.5
					c0.8,2.7,1.1,5.6,0.9,8.4c0.3,1.7,0.8,3,0.7,5.1c0.3,1.5,0.5,3.1,0.6,4.6l0.6,2.3c0.1,0.4-0.3,0.6-0.4,1h1l0.2,1.6
					c0.3,0.9-0.2,2.1,0.1,3.6c-0.7,1.3-0.8,2.8-0.3,4.2c-0.3,0.4-0.3,0.9,0,1.3c0.2,1.4,0.3,2.9,0.2,4.3c0.6,0.9,1,1.9,1.2,3
					c0,0.5-0.6,0.6-0.5,0.8c0.5,0.8,0.7,1.6,1.3,2c0.1,0,0,0.4,0,0.5c0.2,0.4,1,0.5,1.1,0.8c0.2,1.2,0.9,2.2,1.9,2.8
					c2,1.3,4.3,1.9,6.7,1.9c0.1,0,0.3-0.5,0.4-0.6s0.6-0.3,0.8-0.5l1.3-1.4c0.1-0.6,0.3-1.3,0.6-1.8c0-0.6,0.1-1.3,0.3-1.9
					c0.1-0.2-0.3-1.1-0.3-1.3c0.1-0.7,0.3-1.3,0.5-2c-0.1-1.2,0-2-0.2-3.4c0-0.1-0.4-0.4-0.4-0.5s0-0.8,0-1
					c-0.2-0.4-0.3-0.7-0.5-1.1v-1.7c0-0.4,0.8-0.7,0.8-1c-0.2-1.6,0-3.3-0.1-4.8c0-0.2-0.6-0.6-0.6-0.8c0-0.5-0.2-1-0.5-1.4
					c0.3-0.8-0.2-1.6,0.1-2.6c-0.3-0.7-0.4-1.4-0.3-2.1c0-0.2-0.7-0.6-0.7-0.8c0.1-1.2,0.4-2.4,0.8-3.6c0.4-0.4,0.7-0.9,0.8-1.4
					c0-0.2-0.6-0.5-0.6-0.7s-0.4-0.9-0.5-1.2c0.2-0.2,0.2-0.4,0.2-0.6c0-0.2-0.2-0.4-0.4-0.5c-0.1-1.6-0.6-2.6-0.7-3.9
					c0.2-0.8,0.4-1.7,0.6-2.5c0.1-0.4,0.1-0.7,0-1.1c0-0.1-0.5-0.4-0.5-0.6s0.1-1.1,0-1.3S87,63.3,87,63.2c-0.1-0.5,0.4-0.9,0.3-1.5
					c-0.1-0.7-0.2-1.4-0.3-2c0.3-0.6,0.3-1.2,0-1.8c0.3-0.5,0.3-1.2-0.1-1.7c-0.2-0.2,0.1-0.5,0.1-0.6c0-1.1-0.1-2.3-0.3-3.4L86,50
					l0.1-3.8c0-0.5,0.1-0.9,0.2-1.3c0-0.3-0.6-0.6-0.6-1c0-0.7,0.2-1.3,0.3-2c0.1-1.8-0.2-2.7,0-4.5c0-0.3-0.7-0.6-0.6-1
					c0.5-1.5,1.1-2.9,1.6-4.3c0.4-0.9,0.6-1.9,0.8-2.9c0-0.1,0.5-0.6,0.6-0.8s-0.1-0.5,0-0.6c0.4-0.4,1-0.7,1.3-1.3
					c2.2-1.3,4.6-2.2,6.6-3.8c1.2-0.1,2.4-0.4,3.5-0.7c1.6-0.5,3.2-1.2,4.5-2.2c0.3-0.6,0.7-1.1,1.2-1.5c0.1-0.1,0-0.6,0-0.8h1.3
					c0-0.3,0.1-0.7,0.2-1c0.4-0.7,0.9-1.3,1.5-1.8c0.3-0.3,0.7-0.4,1.1-0.5h2.3l1.6,0.5c0.8,0.4,1.5,0.9,2.1,1.5
					c0.1,0.1,0,0.6,0,0.6c-0.6,0.9-1.2,1.7-1.9,2.4c-0.2,0.3-0.4,0.7-0.5,1l-0.2,1.6c0,0.2-0.5,0.8-0.5,1.1l-0.3,3
					c0,0.1,0.3,0.4,0.3,0.5c0.8,0.8,1.7,1.4,2.7,2c0.5,0,1,0.1,1.5,0.3c0.1,0.1,0.8-0.4,1-0.3c0.5,0.2,1.1,0.2,1.6,0
					c0.2-0.1,0.9,0.3,1.2,0.3c0.9-0.1,1.8,0.2,2.6,0.8v1.9c0.1,0.5,0.3,0.9,0.7,1.3c-0.4,0.2-0.8,0.3-0.9,0.7c-0.1,0.1,0,0.7,0,0.9
					s-0.7,0.5-0.5,0.8c0.2,0.3,0.5,0.6,0.8,0.8c0.2,0.1,0.5,0.3,0.3,0.6h-1c0,0.5,0.4,1.2,0.1,1.9c0.3,0.1,0.8,0.3,0.9,0.7
					c0.2,0.8,0.2,1.7,0,2.6c0.5,0.6,0.7,1.4,0.4,2.1l0.7,0.6c-0.4,0.6-0.6,1.3-0.8,2c-0.2,1-0.2,2,0,3c0,0.6-0.3,1.1-0.8,1.5
					l-0.4,2.5c0,0.2-0.3,0.6,0,0.8c-0.1,0.7-0.2,1.3-0.4,2c0.1,1.9,0.4,3.8,1,5.5c-0.1-0.2,0.2,0,0.3,0.3c0.7,2.3,2.6,4.1,5,4.6
					c1.5,0.6,3.9,1.3,5.7,0.6c0.4-0.5,1-0.8,1.6-1c0.4-0.5,0.6-1.4,1.2-1.8c0.2-0.9,0.6-1.6,0.9-2.8c-0.2-0.5-0.5-0.9-0.9-1.2
					c-0.2-1.1,0.2-2.1,0.1-3.5c0.3-0.3,0.6-0.7,0.7-1.1c0.1-0.4-0.6-0.7-1.2-1c0.6-1.9,1.1-3.8,1.3-5.8c0-0.3-0.4-0.7-0.5-1.1
					c-0.1-0.2,0.3-0.8,0.3-0.9c-0.6-1.9-1.1-3.9-1.4-5.9c0-0.2-0.6-0.6-0.8-0.9c-0.2-0.3-0.4-0.7-0.5-1.1c-0.1-1-0.3-1.9-0.6-2.8
					c-0.1-0.2,0.3-0.5,0.2-0.8c-0.3-0.8-0.2-1.7,0.1-2.5c-0.1-1.3-0.5-2.7-1.1-3.9c-0.4-0.5-0.8-1.1-1-1.7c-0.1-0.2-0.1-0.4,0.1-0.5
					c-0.7-0.4-1.1-1.2-0.9-2l1.5-1.5c0.3,0,0.5,0,0.8,0l0.3-1.6v-2.3c0-0.1-0.6-0.5-0.5-0.6c0.2-0.7,0.4-1.3,0.6-1.9
					c0.1-0.2,0-0.5-0.2-0.6c0.6-1.4,0.9-3,1.1-4.5c1-0.5,2-1,2.9-1.7c0.4-1.1,0.8-2.2,1-3.3c0-0.1-0.4-0.7-0.3-0.9
					c0.3-0.7,0.6-1.5,1-2.2c0-0.1,0-0.6,0-0.6c0.2-0.3,0.4-0.5,0.7-0.7c1-0.5,2.1-0.8,3.2-1c0.6,0.1,1.1-0.3,1.3-0.8H0V8.2z"/>
			</g>
			<g id="_1e27100d-c14f-4b69-93b5-4e6dd501e275-child-1">
				<path class="st0" d="M150.4,4.5c-0.2-0.3-0.5-0.9-0.8-0.8c-0.7,0.1-1.3-0.4-1.8-0.1c-0.2,0.1-0.9,0.3-1.1,0.4
					c-0.2,0.2-0.3,0.4-0.4,0.6c-0.1-0.1-0.3-0.4-0.5-0.4c0,0.3,0,0.5,0,0.8l1.2,1.6c0.4,0.3,0.8,0.4,1.3,0.3l1.8-0.9
					c0.1-0.1,0.2-0.2,0.3-0.4C150.5,5.2,150.5,4.9,150.4,4.5z"/>
			</g>
		</g>
	</g>
</g>
</svg>
