<?xml version="1.0" encoding="utf-8"?>
<!-- Generator: Adobe Illustrator 24.0.0, SVG Export Plug-In . SVG Version: 6.00 Build 0)  -->
<svg version="1.1" id="Layer_1" xmlns="http://www.w3.org/2000/svg" xmlns:xlink="http://www.w3.org/1999/xlink" x="0px" y="0px"
	 viewBox="0 0 281.5 308.7" style="enable-background:new 0 0 281.5 308.7;" xml:space="preserve">
<style type="text/css">
	.st0{fill:#FFFFFF;stroke:#231F20;stroke-width:3;stroke-miterlimit:10;}
	.st1{fill:#231F20;stroke:#231F20;stroke-width:3;stroke-miterlimit:10;}
</style>
<title>Asset 2</title>
<g id="Layer_2_1_">
	<g id="Layer_1-2">
		<g id="aef6d111-3d04-4492-95e5-70fffb960d12">
			<g id="aef6d111-3d04-4492-95e5-70fffb960d12-child-0">
				<path class="st0" d="M281.1,132.8c-0.4-1.3-1-2.5-1.8-3.6l0,0l-19.2-25.5v0.1c-1.7-2.5-4.4-4.1-7.4-4.6l-55.8-9.3L189,35.2
					c-0.3-1.9-1.1-3.8-2.3-5.3l0,0L167.4,4.3l0,0c-4-5-11.3-5.7-16.3-1.6c-0.9,0.7-1.6,1.5-2.2,2.4L95.1,84.2
					c-0.5,0.8-1.4,1.3-2.3,1.4l-82.7,10c-6.3,0.7-10.8,6.4-10,12.7c0.2,1.8,0.8,3.5,1.9,5l40.9,62.2c0.6,0.9,0.7,2.1,0.3,3.1
					L6.9,262.1c-1.7,3.8-1.2,8.3,1.4,11.6l0,0l19.1,25.2l0.3,0.4v0.1l0,0c3.5,4.2,9.4,5.4,14.2,2.9l74.3-39.1
					c1.1-0.6,2.5-0.5,3.6,0.3l55,42.8c2,1.6,4.5,2.4,7,2.4c1.6,0,3.2-0.4,4.7-1.1c3.9-1.7,6.5-5.3,6.9-9.5l8.7-90.6
					c0.1-0.9,0.5-1.7,1.2-2.2l74.1-60.7C280.8,141.8,282.3,137.2,281.1,132.8z"/>
			</g>
			<g id="aef6d111-3d04-4492-95e5-70fffb960d12-child-1">
				<path class="st1" d="M254,109.6c-0.3-1.2-1.4-2.2-2.6-2.4l-53.3-8.9l-4.3-0.7l-4.3-0.7l-7.6-1.3c-5-0.8-8.8-4.7-9.5-9.7
					l-5.6-39.1l-0.9-6l-0.9-6l-3.4-23.8c-0.2-1.3-1.2-2.4-2.5-2.7c-1.3-0.4-2.7,0.2-3.4,1.3l-53.8,79.1c-1.9,2.7-4.9,4.5-8.2,4.9
					l-82.6,10c-1.8,0.2-3.1,1.8-2.9,3.6c0.1,0.5,0.2,1,0.5,1.4l11.9,18l2.8,4.2l26.3,39.9c2,3.3,2.4,7.3,1,10.9l-0.4,1l-35.8,82.5
					c-0.7,1.7,0,3.6,1.7,4.3c0.9,0.4,2,0.4,2.9-0.1l19.3-10.1l5.8-3l5.8-3.1l43.5-22.9c4-2.1,8.8-1.7,12.4,1.1l55,42.8
					c0.9,0.8,2.2,0.9,3.3,0.5c1.1-0.5,1.9-1.5,2-2.7l8.7-90.6c0.3-3.1,1.8-5.9,4.2-7.8l57.3-46.9l4.2-3.5l4.2-3.5l8.4-6.9
					C253.9,112.1,254.3,110.8,254,109.6z"/>
			</g>
		</g>
	</g>
</g>
</svg>
