<?xml version="1.0" encoding="utf-8"?>
<!-- Generator: Adobe Illustrator 24.0.0, SVG Export Plug-In . SVG Version: 6.00 Build 0)  -->
<svg version="1.1" id="Layer_1" xmlns="http://www.w3.org/2000/svg" xmlns:xlink="http://www.w3.org/1999/xlink" x="0px" y="0px"
	 viewBox="0 0 150 150" style="enable-background:new 0 0 150 150;" xml:space="preserve">
<style type="text/css">
	.st0{fill:#231F20;}
</style>
<title>wordfence-central-icon</title>
<path class="st0" d="M133.1,60.1c-8.2,0-14.9,6.7-14.9,14.9s6.7,14.9,14.9,14.9S148,83.2,148,75l0,0C148,66.8,141.3,60.1,133.1,60.1
	z"/>
<path class="st0" d="M16.9,60.1C8.7,60.1,2,66.8,2,75s6.7,14.9,14.9,14.9S31.8,83.2,31.8,75l0,0C31.8,66.8,25.1,60.1,16.9,60.1z"/>
<path class="st0" d="M89.9,16.9C89.9,8.7,83.2,2,75,2c-8.2,0-14.9,6.7-14.9,14.9c0,8.2,6.7,14.9,14.9,14.9l0,0
	C83.2,31.8,89.9,25.1,89.9,16.9z"/>
<path class="st0" d="M60.1,133.1c0,8.2,6.7,14.9,14.9,14.9s14.9-6.7,14.9-14.9s-6.7-14.9-14.9-14.9l0,0
	C66.8,118.2,60.1,124.9,60.1,133.1z"/>
<path class="st0" d="M109.7,87.3c0.3-0.9,0.6-1.9,0.9-2.8s0.5-1.9,0.7-2.9l-4.5-5.2c0-1,0-1.9,0-2.9l4.5-5.2
	c-0.4-1.9-0.9-3.8-1.5-5.7l-6.5-2.3c-0.3-0.6-0.7-1.2-1-1.8c-0.1-0.2-0.3-0.5-0.4-0.7l1.2-6.8c-1.3-1.5-2.7-2.9-4.2-4.2l-6.8,1.3
	c-0.2-0.1-0.4-0.2-0.6-0.4c-0.6-0.4-1.2-0.7-1.9-1.1l-2.3-6.5c-0.9-0.3-1.9-0.6-2.8-0.9s-1.9-0.5-2.9-0.7l-5.2,4.5c-1,0-1.9,0-2.9,0
	l-5.2-4.5c-1.9,0.4-3.8,0.9-5.7,1.5l-2.3,6.5c-0.6,0.3-1.2,0.7-1.8,1c-0.2,0.1-0.5,0.3-0.7,0.4L51.1,47c-1.5,1.3-2.9,2.7-4.2,4.2
	l1.3,6.8c-0.1,0.2-0.2,0.4-0.4,0.6c-0.4,0.6-0.7,1.2-1.1,1.9l-6.5,2.3c-0.3,0.9-0.6,1.9-0.9,2.8s-0.5,1.9-0.7,2.9l4.5,5.2
	c0,1,0,1.9,0,2.9l-4.5,5.2c0.4,1.9,0.9,3.8,1.5,5.7l6.5,2.3c0.3,0.6,0.7,1.2,1,1.8c0.1,0.2,0.3,0.5,0.4,0.7L47,98.9
	c1.3,1.5,2.7,2.9,4.2,4.2l6.8-1.3c0.2,0.1,0.4,0.2,0.6,0.4c0.6,0.4,1.2,0.7,1.9,1.1l2.3,6.5c0.9,0.3,1.9,0.6,2.8,0.9
	s1.9,0.5,2.9,0.7l5.2-4.5c1,0,1.9,0,2.9,0l5.2,4.5c1.9-0.4,3.8-0.9,5.7-1.5l2.3-6.5c0.6-0.3,1.2-0.7,1.8-1c0.2-0.1,0.5-0.3,0.7-0.4
	l6.8,1.2c1.5-1.3,2.9-2.7,4.2-4.2l-1.3-6.8c0.1-0.2,0.2-0.4,0.4-0.6c0.4-0.6,0.7-1.2,1.1-1.9L109.7,87.3z M102.3,82.3
	c-4,15.1-19.5,24.1-34.5,20.1S43.6,83,47.6,67.9S67,43.8,82.1,47.8c7.9,2.1,14.6,7.5,18.2,14.9C103.3,68.8,104,75.7,102.3,82.3
	L102.3,82.3z"/>
<path class="st0" d="M81.1,52.3c-0.8-0.2-1.5-0.4-2.3-0.5c-11.9-1.9-23.4,5.5-26.5,17.2c-0.2,0.8-0.4,1.5-0.5,2.3
	c-1.9,11.9,5.5,23.4,17.2,26.5c0.8,0.2,1.5,0.4,2.3,0.5c12.8,2.1,24.9-6.6,27-19.5c0.4-2.5,0.4-5,0-7.5C96.8,62.1,90,54.6,81.1,52.3
	z"/>
</svg>
