<svg xmlns="http://www.w3.org/2000/svg" viewBox="0 0 367.76 460.79"><title>3ed768b9-0ffe-45c2-803b-416a24e65d59 (2)</title><g id="Layer_2" data-name="Layer 2"><g id="Layer_1-2" data-name="Layer 1"><g id="_3ed768b9-0ffe-45c2-803b-416a24e65d59" data-name="3ed768b9-0ffe-45c2-803b-416a24e65d59"><g id="_3ed768b9-0ffe-45c2-803b-416a24e65d59-child-0" data-name="3ed768b9-0ffe-45c2-803b-416a24e65d59-child-0"><path d="M65.58,460.79A14.67,14.67,0,0,1,55,456.47a14.37,14.37,0,0,1-4.45-10.73,22.3,22.3,0,0,1,2.09-8.35,125.2,125.2,0,0,1,8.18-14.94l89.28-146.09H16.85A17,17,0,0,1,5,271.81a14.75,14.75,0,0,1-5-11.29,17,17,0,0,1,6.87-14.25L303.51,6.65a45.09,45.09,0,0,1,7-4.86A12.67,12.67,0,0,1,316.74,0,15.38,15.38,0,0,1,330.6,7.55q4.75,7.54-.77,16.69l-97.44,159H350.91a17.07,17.07,0,0,1,11.95,4.43,14.93,14.93,0,0,1,4.89,11.52,17.61,17.61,0,0,1-6.64,14.17L84.86,450.16a67.38,67.38,0,0,1-11.2,8.35A17.28,17.28,0,0,1,65.58,460.79Zm7.47-22.38,275.2-236c.44-.29.63-.62.55-1s-.4-.54-1-.54H202.27L309.92,24.83c.31-.59.31-1,0-1.21s-.73-.13-1.32.31L19.5,257.44q-.66.44-.54.87c.08.29.33.44.77.44H180.11L71.34,436.87c-.58,1-.67,1.73-.23,2.09S72.24,439.14,73.05,438.41Z"/></g></g></g></g></svg>