<svg xmlns="http://www.w3.org/2000/svg" viewBox="0 0 1034.18 1033.67"><defs><style>.cls-1{fill:none;}</style></defs><title>6b9559b8-b488-4279-ad89-65ad0e1d40b7 (2)</title><g id="Layer_2" data-name="Layer 2"><g id="Layer_1-2" data-name="Layer 1"><g id="_6b9559b8-b488-4279-ad89-65ad0e1d40b7" data-name="6b9559b8-b488-4279-ad89-65ad0e1d40b7"><g id="_6b9559b8-b488-4279-ad89-65ad0e1d40b7-child-0" data-name="6b9559b8-b488-4279-ad89-65ad0e1d40b7-child-0"><path class="cls-1" d="M1023.38,516.83c0,279.48-226.68,506.05-506.3,506.05S10.8,796.31,10.8,516.83s226.68-506,506.28-506S1023.38,237.36,1023.38,516.83Z"/></g><g id="_6b9559b8-b488-4279-ad89-65ad0e1d40b7-child-1" data-name="6b9559b8-b488-4279-ad89-65ad0e1d40b7-child-1"><path d="M517.08,0C232,0,0,231.86,0,516.83s232,516.84,517.08,516.84,517.1-231.85,517.1-516.84S802.21,0,517.08,0Zm0,1004.86c-269.22,0-488.25-218.92-488.25-488s219-488,488.25-488,488.28,218.93,488.28,488S786.32,1004.86,517.08,1004.86Zm0-941c-249.9,0-453.21,203.23-453.21,453s203.31,453,453.21,453,453.25-203.21,453.25-453S767,63.82,517.08,63.82Zm204.1,453c0,24.06-.86,47.2-2.41,69.37-60.27-10.92-129.51-17-203.21-17-72.45,0-140.63,5.83-200.19,16.4-1.51-22-2.36-44.89-2.36-68.81a938.83,938.83,0,0,1,7.05-117.43,1268.89,1268.89,0,0,1,197.1-14.94,1270.11,1270.11,0,0,1,197.1,14.94A940.62,940.62,0,0,1,721.18,516.83Zm-5,99.57c-7.24,69.47-22,128.24-41.56,175.94-45.81-9.47-99.75-14.81-157.53-14.81s-111.71,5.34-157.51,14.81c-19.63-47.74-34.41-106.68-41.63-176.4,56.21-10.28,122.83-16.54,197.62-16.54C591.66,599.27,659.35,605.79,716.17,616.4Zm-199.09-262A1317.3,1317.3,0,0,0,324.71,368c11.08-66,29.34-120.63,52-163.24A1090.23,1090.23,0,0,1,517.08,196a1090.43,1090.43,0,0,1,140.36,8.72c22.68,42.61,41,97.24,52,163.24A1317.57,1317.57,0,0,0,517.08,354.42ZM174.23,269.35c29.41-23.28,87-45.28,165.8-59.1-20.72,44.4-36.95,98.81-46.75,162.83-83.06,15-150.45,38.45-192.44,67.67A420.48,420.48,0,0,1,174.23,269.35Zm519.86-59.1C772.92,224,830.56,246.07,860,269.36A420.92,420.92,0,0,1,933.3,440.8c-42-29.28-109.39-52.64-192.46-67.68C731.05,309.06,714.81,254.65,694.09,210.25Zm119,4.67c-36.57-14.25-82.14-25.56-133.74-33.28-17.64-31.14-37.7-56.16-59.17-75A423.15,423.15,0,0,1,813.07,214.92ZM640.94,176.71a1185.36,1185.36,0,0,0-247.55,0c36.2-54.62,80.54-82.84,123.69-82.84S604.59,122.09,640.94,176.71Zm-286,4.93c-51.57,7.69-97.15,19-133.72,33.27A422.89,422.89,0,0,1,414.1,106.64c-21.55,18.84-41.6,43.86-59.25,75Zm-259.74,304c28.58-34.18,100.25-62.83,193.93-80.83a993.37,993.37,0,0,0-6.15,112c0,26,1,50.81,2.68,74.63-75.6,16.26-134.43,40.61-166.07,70.46A420.47,420.47,0,0,1,94,516.83C93.91,506.33,94.43,496,95.18,485.64ZM132,691.75l.46.36c20.56-26.1,75.34-52.39,155.85-70.3,7.33,69.37,21.92,128.55,41.5,177.45-37.5,10.12-67.62,23.38-87.27,39A425.4,425.4,0,0,1,132,691.75Zm134.9,165.87c16.37-11.25,41.81-21.94,75-30.54C362.39,870,387.09,903.37,414.08,927a421.79,421.79,0,0,1-147.22-69.35Zm105.43-37.34c40.51-7.88,89.34-12.84,144.79-12.84s104.3,5,144.82,12.84c-39.24,78.61-92.88,119.6-144.82,119.6s-105.56-41-144.79-119.55Zm320,6.81c33.19,8.61,58.68,19.3,75,30.55A421.86,421.86,0,0,1,620.15,927C647.09,903.41,671.8,870,692.32,827.09Zm99.3,11.21c-19.56-15.6-49.65-28.86-87.26-39,19.55-48.78,34.06-107.75,41.4-176.83,78.88,17.89,132.57,43.85,152.88,69.64l5.23-4.12A425.11,425.11,0,0,1,791.63,838.33ZM913.74,664.1c-30.57-30.4-89.25-55.31-165.24-72,1.74-24.06,2.71-49.06,2.71-75.29a993.36,993.36,0,0,0-6.14-112c93.69,18.05,165.38,46.62,193.94,80.84.75,10.32,1.27,20.68,1.27,31.18a420.89,420.89,0,0,1-26.52,147.3Z"/></g></g></g></g></svg>