<svg xmlns="http://www.w3.org/2000/svg" viewBox="0 0 42.89 42.89"><title>7a4a428b-09e0-46bc-9024-8d6920f38ad1</title><g id="Layer_2" data-name="Layer 2"><g id="Layer_1-2" data-name="Layer 1"><g id="_7a4a428b-09e0-46bc-9024-8d6920f38ad1" data-name="7a4a428b-09e0-46bc-9024-8d6920f38ad1"><g id="_7a4a428b-09e0-46bc-9024-8d6920f38ad1-child-0" data-name="7a4a428b-09e0-46bc-9024-8d6920f38ad1-child-0"><path d="M0,21.45A21.31,21.31,0,0,0,4.21,34.2c.31-5.78,7-10.48,15.52-11-.56,8.52-5.26,15.21-11,15.52a21.44,21.44,0,0,0,25.51,0c-5.79-.31-10.49-7-11.05-15.52,8.52.56,15.22,5.26,15.53,11a21.44,21.44,0,0,0,0-25.51c-.31,5.79-7,10.48-15.52,11,.56-8.51,5.26-15.21,11-15.52a21.44,21.44,0,0,0-25.51,0c5.78.31,10.48,7,11,15.52-8.52-.56-15.21-5.26-15.52-11A21.32,21.32,0,0,0,0,21.45Z"/></g></g></g></g></svg>