<?xml version="1.0" encoding="utf-8"?>
<!-- Generator: Adobe Illustrator 24.0.0, SVG Export Plug-In . SVG Version: 6.00 Build 0)  -->
<svg version="1.1" id="Layer_1" xmlns="http://www.w3.org/2000/svg" xmlns:xlink="http://www.w3.org/1999/xlink" x="0px" y="0px"
	 viewBox="0 0 224.3 210.1" style="enable-background:new 0 0 224.3 210.1;" xml:space="preserve">
<style type="text/css">
	.st0{fill:#231F20;}
</style>
<title>1a55fed8-207c-4e35-b5ad-7501b197be70-child-1</title>
<g id="Layer_2_1_">
	<g id="Layer_1-2">
		<g id="_1a55fed8-207c-4e35-b5ad-7501b197be70-child-1">
			<path class="st0" d="M224.1,84.9c0-4.7-0.6-9.3-1.9-13.8c-1.5-4.9-3.2-9.7-5.4-14.4c-2.1-4.5-4.5-8.7-7.3-12.8
				c-4.2-6.4-9.5-11.7-14.9-17.1c-1.6-1.7-3.4-3.2-5.3-4.6c-3.5-2.6-7.1-4.9-10.7-7.4c-0.8-0.6-1.6-1.1-2.5-1.5
				c-2.4-1.1-4.7-2.3-7.2-3.3c-4.1-1.6-8.4-3.1-12.6-4.6c-0.4-0.2-1.2-0.1-1.4,0.2c-0.8,0.9-1.5,0.6-1.9-0.2c-1-1.9-2.8-2.2-4.6-2.5
				c-0.8-0.1-2-0.1-2.2-0.5c-0.6-1.1-1.5-0.8-2.3-1c-0.1,0-0.1,0.1-0.2,0.1l0.8,0.4c-0.5,0.1-1.1,0.1-1.6,0
				c-6.7-1.4-13.6-2-20.4-1.8c-2.5,0.1-5.1,0.2-7.6,0.4c-4.1,0.3-8.3,0.6-12.4,1.1c-4.4,0.6-8.8,1.3-13.2,2c-2.9,0.5-6,0.6-8.7,1.9
				C80,6,79.2,6.6,78.5,7.3c-0.7,0.7-1.4,1.5-2.6,1c-0.2-0.1-0.5-0.1-0.7,0c-1.3,0.5-2.5,1-3.7,1.5c-0.4-0.2-1-0.6-1.4-0.5
				c-2.3,0.7-4.6,1.5-6.8,2.5c-4.2,1.9-8.5,3.8-12.6,6c-3.1,1.6-6.1,3.5-8.8,5.6c-2.6,2.1-5.1,4.3-7.5,6.8c-4.2,4.2-8.4,8.6-11.1,14
				c-0.6,1.3-1.4,2.5-2.2,3.8c-0.2,0.3-0.3,0.7-0.4,1c-0.4,1.7-1.2,3.3-2.1,4.7c-0.9,1.4-1.7,2.8-2.4,4.3c-2.2,5.1-3.2,10.5-4,16
				c-0.2,1.1-0.4,2.1-1.7,2.3c0.6,0.8,1.5,1.5,1.6,2.2c0.1,1.8,0,3.7-0.3,5.5c-0.4,1.4-0.9,2.7-1.5,4c-0.1,0.3-0.1,0.7,0,1
				c0.3-0.5,0.5-0.8,0.8-1.3c0.1,7.5,0,14.8,0.4,22s1.6,14.4,2.5,21.8c-2.6-0.5-5-1-7.4-1.5c-2.9-0.6-5.7,1.2-6.4,4.1
				c-0.1,0.3-0.1,0.7-0.1,1c0.1,3.3,0,6.6,0.3,9.9c0.2,2.7,0.7,5.4,1.7,7.9c1.6,3.7,3.5,7.2,5.7,10.7c1.4,2.4,2.6,5.1,5.2,6.6
				c0.9,0.6,0.9,1.8,2,2.1c0.6,0.2,1.2,0.3,1.8,0.4c4,0.9,8.1,1.5,12.2,2c3.8,0.3,7.7-0.2,11.6-0.3c0.8,0.1,1.6,0.2,2.4,0.4
				c-0.9,3.8-3.5,6.4-5.7,9.1c-2,2.5-3.3,5.1-1.9,8.3c0.9,2.3,2.4,4.3,4.2,5.8c2.7,2.1,5.9,3.7,9.2,4.6c2.8,0.8,5.5,1.7,8.2,2.7
				c4.8,1.7,9.4,2,14-0.5c0.6-0.3,1-0.8,1.3-1.4c1-1.9,1.8-3.9,3-5.7c1.6-2.8,3.4-5.4,5.4-8.4c0.5,1.1,0.8,1.9,1.2,2.6
				c1.7,3.1,3.3,6.2,5.2,9.2c1.2,2,2.3,4,4.4,5.3c2.1,1.3,4.4,2.4,6.8,3.1c2.7,0.8,5.7,0.7,8.4-0.1c1.7-0.6,3.4-1,5.1-1.3
				c2.9,0,5.8-0.3,8.7-0.8c5.2-1,10.3-2.9,14.9-5.5c2.5-1.5,4.8-3.3,7-5.3c1.7-1.6,3.2-3.4,4.6-5.2c1.1-1.4,1.1-3.3,0.1-4.7
				c-1-1.6-2.4-2.8-4.2-3.4c-3.4-1.1-6.6-2.3-10-3.5c-2.4-0.8-4.6-2.3-6.1-4.4c-1.2-1.8-1-2.6,1-3.4c0.5-0.2,1.1-0.4,1.7-0.4
				c2-0.1,3.9-0.1,5.9,0c6.7,0.9,13.6,0.2,20-2.1c4.8-1.8,9.4-3.8,13.5-7c4.2-3.2,7.6-7.3,9.8-12.1c3.2-7.4,3.6-14.8,0.1-22.2
				c-1.1-2.6-2.8-4.9-4.9-6.8c-2.5-2.1-3.9-5.2-3.8-8.5c0-0.9,0.5-2.3,1.1-2.5c0.8-0.2,1.8,0.5,2.8,0.8c0.1,0,0.2,0.2,0.3,0.3
				l1.8,1.2c1.2,0.8,2.4,1.5,3.6,2.3c0.5,0.3,1.4,0.6,1.4,1c0.2,1.1,0.9,1.5,1.6,2c0.1,0.1,0.2,0.3,0.3,0.5c0.2,0.5,0.2,1.1,0.6,1.4
				c1.5,1.6,2.6,3.5,3.4,5.6c1.4,3.1,2.4,6.4,3,9.8c0.7,3.9,0.7,7.9,1.1,11.9c0.2,1.8,0.6,3.6,1.1,5.3c0.4,1.2,2.2,2.3,3.2,2
				c1.3-0.3,2.5-1,3.5-1.8c2.7-2.5,5.2-5.1,7.4-7.9c3.1-4.1,5.8-8.4,8.5-12.8c3.2-5.3,6.1-10.7,7.5-16.8c0.3-1.4,0.4-2.6-1.1-3.4
				c-0.1,0,0-0.3,0-0.5c0.3,0,0.6,0.1,1.3,0.1c0.4-1.9,0.9-3.8,1.3-5.6c0.1-0.6,0.1-1.2,0.1-1.8c0.1-3.5,0.3-7.1,0.3-10.6
				c0-2.8-0.2-5.6-0.3-8.4L224.1,84.9z M20.3,171.2c-0.1-0.5-0.2-1.1-0.4-1.8c-0.3-0.1-0.8-0.2-1.3-0.3c0-0.1,0-0.3,0.1-0.3
				c0.6,0.1,1.2,0.2,1.8,0.2c1,0,1.5,0.5,1.5,1.3C22,171.3,21.1,171.2,20.3,171.2z M153.7,64.2c-0.1,0.3-0.6,0.8-0.9,0.8
				c-0.8,0-1.6-0.3-2.2-0.7c-0.5-0.6-0.8-1.3-1-2c-0.3-1.1,0.2-1.8,1.4-1.8c1.7,0.2,3,1.7,2.8,3.4C153.8,63.9,153.8,64.1,153.7,64.2
				L153.7,64.2z M146.5,38.5c1.6-0.1,3.9,1.9,3.9,3.5c0,1-1.7,2.3-3.1,2.3c-1.6-0.1-2.9-1.4-3-3C144.1,39.9,145.1,38.6,146.5,38.5
				L146.5,38.5z M131.3,46.9c1.4,0.3,2.4,1.4,2.5,2.8c0,1.2-0.9,2.2-2.1,2.3c-1.2-0.1-2.1-1.2-2-2.4c0-0.1,0-0.1,0-0.2
				C129.7,48,130.5,46.9,131.3,46.9L131.3,46.9z M122.8,67.4c1.1-0.1,2.1,0.5,2.4,1.5c0.4,1.1-0.4,1.8-1.3,2.3s-1.6,1.2-2.5,0.5
				c-0.8-0.5-1.7-1.1-1.3-2.3C120.5,68.3,121.6,67.5,122.8,67.4L122.8,67.4z M111,1.1v0.1l-1,0.2c0-0.1,0-0.2,0-0.3
				C110.3,1.2,110.7,1.2,111,1.1z M92.6,22.3c0.8-4.4,3.7-7.1,7.2-9.2c4.8-3.1,10.4-4.5,16.1-3.9c1.6,0.2,3.2,0.3,4.4,1.6
				c1.6,1.7,1.3,2.8-0.9,3.9c-1.7,0.8-3.7,1.3-5.4,2c-3.3,1.4-6.2,3.6-8.5,6.4c-1.2,1.5-2.2,3.1-3.4,4.5c-1.1,1.2-2.3,2.2-3.5,3.2
				c-0.5,0.3-1,0.4-1.5,0.5c-0.4-0.1-0.8-0.3-1.1-0.5C93.2,28.9,92,25.5,92.6,22.3z M103.1,50.3c-1.5-0.1-2.7-1.2-3.1-2.6
				c-0.2-1.3,0.4-2.2,1.9-2.8c1.1-0.5,2.3-0.5,3.5-0.2c1.1,0.1,1.9,1.1,1.8,2.2c0,0.3-0.1,0.5-0.3,0.8
				C106.2,49.1,104.9,50.5,103.1,50.3L103.1,50.3z M106.5,76.2c0,0.2-0.1,0.4-0.2,0.6c-0.4-0.1-0.7-0.2-1.1-0.3l0.1-0.5
				C105.7,76,106.1,76.1,106.5,76.2L106.5,76.2z M102.6,84h0.3v2.1l-1.1-0.8C102.1,84.8,102.3,84.4,102.6,84L102.6,84z M101.7,73.4
				c0.2-0.1,0.4-0.1,0.5-0.1l0.1,1c-0.1,0-0.2,0-0.3,0.1C101.9,74,101.8,73.7,101.7,73.4L101.7,73.4z M99.2,74.7
				c0-0.4-0.1-0.9-0.2-1.6c0.8,0.2,1.3,0.3,1.9,0.5C101.2,75.3,99.5,74,99.2,74.7L99.2,74.7z M93,65.7c0,0.1-0.1,0.2-0.2,0.4
				c-0.5-0.3-1-0.5-1.7-0.8C92.4,64.2,92.3,66,93,65.7L93,65.7z M94.1,78.5c-0.4,0.6-0.7,1.3-1.1,1.9C92.3,79.5,92.4,79.3,94.1,78.5
				L94.1,78.5z M92.1,82.9c0,0.1,0,0.2,0,0.3c-0.2,0-0.5,0-0.7,0c0.1-0.2,0.3-0.3,0.5-0.5L92.1,82.9L92.1,82.9z M91,81
				c-0.5,0.3-0.8,1-1.5,0.6c0-0.2-0.1-0.3-0.1-0.5l1.5-0.5L91,81z M91,84.9c-0.9-0.3-1.4-0.4-2-0.6c0-0.1,0-0.3,0-0.4
				c0.4-0.1,0.8-0.2,1.3-0.2C90.5,83.8,90.7,84.2,91,84.9L91,84.9z M88.6,76c0.1-0.2,0.2-0.3,0.2-0.5c0.3,0.1,0.5,0.2,0.8,0.4
				c-0.1,0.1-0.1,0.3-0.2,0.4L88.6,76L88.6,76z M89.6,73.6c-0.5,0.5-0.9,0.8-1.3,1.1C88.3,74.1,88.7,73.7,89.6,73.6L89.6,73.6z
				 M87.9,80.1h1.3v0.4h-1.3L87.9,80.1z M87.5,83.1c0.3-0.2,0.7-0.4,1-0.7c0.2,0.3-0.3,0.9-1.3,2C86.6,83.8,86.9,83.4,87.5,83.1
				L87.5,83.1z M88.3,86.3c-0.1,0.1-0.2,0.2-0.2,0.2c-0.2-0.4-0.4-0.8-0.6-1.1L88.3,86.3L88.3,86.3z M84.9,7c0.2,0,0.3,0.1,0.5,0.2
				c-0.1,0.3-0.2,0.6-0.4,0.9c-0.1-0.1-0.3-0.2-0.3-0.2C84.8,7.6,84.9,7.3,84.9,7L84.9,7z M83.2,10.3c0.2,0.5,0.4,0.8,0.5,1.1
				L86,9.5c0,2.6-0.2,2.9-1.8,3.4c0.3-0.2,0.5-0.5,0.7-0.8c0.1-0.3,0.3-0.6,0.3-0.9c-0.7,1.1-1.7,1-2.8,0.7
				C82.6,11.4,82.8,11,83.2,10.3L83.2,10.3z M83.6,79.7l1.4-0.8l0.2,0.3C84.8,79.5,84.9,80.7,83.6,79.7L83.6,79.7z M84.8,83.4
				l-1.2,1.1c0.1-0.8,0.4-1.3,1-1.4L84.8,83.4z M82.6,79.7l-0.4,0.2c-0.1-0.3-0.2-0.6-0.3-0.9c0.1-0.1,0.2-0.1,0.4-0.1
				C82.3,79.1,82.5,79.4,82.6,79.7L82.6,79.7z M82.1,14.8l-0.4,0.8c0-0.3-0.1-0.6-0.1-0.8C81.8,14.8,82,14.8,82.1,14.8L82.1,14.8z
				 M81.6,15.7c-0.4,0.1-0.7,0.3-1.1,0.4c-0.1-0.3-0.1-0.5-0.2-1C80.9,15.3,81.3,15.5,81.6,15.7L81.6,15.7z M81.1,86.2l-1.9-1.1
				l1.7-0.9C80.9,85,81,85.5,81.1,86.2z M79.7,11.6c0.3,0.3,0.6,0.5,0.9,0.7c0,0-0.1,0.1-0.1,0.1C79.9,12.6,79.3,12.7,79.7,11.6z
				 M77.3,15.8c0.8-0.2,1.8-0.5,2.4,0.4c1.2,1.7,1.3,2.9,0.3,4c-1.1,1.2-2.2,2.3-3.5,3.3c-1.7,1.3-1.6,1.6-4,0.1l1.1-0.7
				c-1.7-0.8-4.2,0-4.5-2.5C71.1,17.4,74.2,16.6,77.3,15.8L77.3,15.8z M79.1,85.1c-0.2,0.3-0.3,0.5-0.7,1c-0.2-0.7-0.4-1.1-0.5-1.5
				c0.1-0.1,0.1-0.2,0.2-0.2C78.5,84.6,78.8,84.8,79.1,85.1L79.1,85.1z M65.2,43.1c1.2-3.2,3.3-5.9,6-7.9c0.7-0.3,1.5-0.4,2.2-0.2
				c4.6,0.7,5.2,3.5,4.3,7.3c-0.4,1.4-1.4,2.7-2.7,3.5c-3.4,2.9-6.5,6.2-9.2,9.8c-0.3,0.4-0.7,0.8-1,1.1l-0.4-0.2
				C64,52,63.6,47.5,65.2,43.1L65.2,43.1z M76.2,85.9c-0.1,0-0.3,0.1-0.4,0.1c-0.1-0.5-0.2-1.1-0.2-1.6c0.1,0,0.2,0,0.3,0
				C75.9,85,76,85.4,76.2,85.9L76.2,85.9z M74.3,77.8l0.5-0.1c0.1,0.3,0.1,0.6,0.2,0.9c-0.1,0-0.2,0.1-0.3,0.1
				C74.6,78.4,74.5,78.1,74.3,77.8L74.3,77.8z M74.5,90c-0.2,0.5-0.4,1-0.6,1.4l-0.2-0.3c-0.2-0.8-0.4-1.5-0.6-2.4
				c1-0.9,1.1,0.5,1.5,0.8C74.6,89.6,74.6,89.8,74.5,90L74.5,90z M71.6,90.9c0.1,0,0.2-0.1,0.3-0.1c0.3,0.4,0.6,0.7,1,1.3
				c-0.5,0-1.1,0.1-1.2,0C71.6,91.8,71.5,91.4,71.6,90.9L71.6,90.9z M71.2,88.7c-0.5-0.4-0.4-0.8,0.5-1.2
				C71.4,88,71.3,88.3,71.2,88.7L71.2,88.7z M71.8,86.7l0.4-1l0.4,0.1l-0.2,1.1C72.2,86.8,71.9,86.7,71.8,86.7L71.8,86.7z
				 M69.2,129.4c-1.2,0.1-2,0.2-3.3,0.3C67.2,128.4,68.3,128.3,69.2,129.4z M65.4,127.8c0.1-0.9-0.1-1.8,1.1-1.4L65.4,127.8z
				 M67.8,84c0,0.2,0.1,0.4,0.2,0.6l-1.4,0.4c-0.1-0.1-0.2-0.3-0.3-0.4L67.8,84z M67.3,125.8l0.9-0.2l0.1,0.3
				c-0.3,0.1-0.6,0.2-0.9,0.2C67.4,126,67.4,125.9,67.3,125.8L67.3,125.8z M68.4,124.8c-1.3,0.4-1.2-1.1-1.5-1.7
				c-0.2-0.4,0.6-1.3,1-1.8c0.7,0.7,1.1,1.2,1.5,1.7C69.2,123.4,68.9,123.9,68.4,124.8L68.4,124.8z M66.9,92.6
				c0.4-0.9,0.7-1.7,1.2-2.7C68.3,92.7,68.3,92.7,66.9,92.6z M67,88.6h1.6c0.1-0.6,0.3-1.2,0.4-2c0.8,0.8,1.4,1.5,0.8,2.4
				C69.3,89.6,67.8,89.5,67,88.6L67,88.6z M27.1,144.9c0-0.1-0.1-0.3-0.1-0.4l2-0.7c0,0.2,0.1,0.4,0.2,0.5L27.1,144.9z M31,139.9
				l-1-0.9c0.7-0.6,1.4-1.1,2.1-1.6l0.2,0.2C31.9,138.4,31.4,139.1,31,139.9L31,139.9z M32.6,136.4c-0.2-0.6,0.1-0.9,1-0.8
				C33.1,136,32.8,136.2,32.6,136.4z M34.3,136.8c0-0.6-0.1-1.2-0.1-1.8c0.2-0.1,0.3-0.2,0.4-0.2c0.6,0.8,1.2,1.7,1.8,2.5
				L34.3,136.8z M39,168.8c-0.5-0.4-0.7-0.7-1.1-1l1.6-0.8C39.2,167.7,39.1,168.1,39,168.8z M39,137.4c-0.3-0.6-0.6-1.1-0.9-1.6
				c0.1-0.1,0.1-0.2,0.2-0.3l1.9,0.6L39,137.4z M49.6,151.2c-0.1,0-0.2-0.1-0.3-0.1c0.1-0.2,0.2-0.5,0.3-0.7c0.1,0,0.2,0.1,0.3,0.1
				C49.7,150.7,49.7,151,49.6,151.2L49.6,151.2z M59.7,168.7l-0.4-0.2l0.8-1.4l0.4,0.2C60.2,167.8,59.9,168.2,59.7,168.7L59.7,168.7
				z M60.3,129.3c0.1-0.3,0.3-0.7,0.4-1c0.4,0.5,1.7-0.3,1.2,1.2c0.8-0.1,1.3-0.2,1.9-0.3C62.8,130.2,61.3,130.3,60.3,129.3
				L60.3,129.3z M61.5,126.7c0.1-0.1,0.2-0.2,0.3-0.2c0.3,0.4,0.6,0.8,0.9,1.2l-0.2,0.2L61.5,126.7z M61.7,119c-0.5,1-1,2.1-1.3,3.1
				c-1.3,2.8-3.2,5.5-6,6.2s-3.6,3.2-5.2,4.9c-0.3,0.4-0.6,0.9-0.9,1.4c-1.1,1.9-1.1,1.8-3.3,1.4c-0.7,0-1.3,0-2,0.1
				c-1.9-1.4-4.2-1.5-6.2-2.3c-0.1,0.1-0.1,0.3-0.2,0.4l1,0.9c-0.1,0.1-0.2,0.2-0.3,0.4l-1.7-1.8c-0.3-0.3-0.6-0.6-0.9-0.9
				c-1.3-1.3-2.8-2.4-4-3.8c-2.3-2.5-3.1-5.8-4.1-8.9c-0.2-1-0.1-2,0.4-2.8c0.9-1.9,1.1-4,0.6-6c-0.8-4.7,0-9.3,1.3-13.8
				c0.7-2.6,1.4-5.2,1.9-7.8c0.3-2,1.1-4,2.2-5.7c1-1.6,2.1-3.2,3.3-4.6c2.4-2.4,4.9-4.6,7.5-6.8c2.5-2.1,5.3-1.9,8.1-0.7
				c2.1,0.8,4,1.9,5.7,3.4c1.5,1.6,3.7,2.8,4.3,5.2c0.1,0.3,0.5,0.5,0.8,0.7s0.5,0.3,0.6,0.5c0.6,1.8,1.6,2.2,3.3,1.6
				c0,0.1,0.1,0.2,0.2,0.3c-0.4,0.3-0.8,0.5-1.4,0.9c0.5,2.8,0.7,5.6,0.8,8.4c-0.1,5.2,1.5,10.4,0,15.7
				C65.2,112.2,63.7,115.8,61.7,119L61.7,119z M95.5,157.5c-0.6,1.2-1.2,2.3-2,3.3c-0.8-0.2-1.6-0.4-2.4-0.5
				c-1.8-0.1-2.6-1.5-3.6-2.7c-1.3-1.5-1.3-3.3-1.6-5.1c-0.4-2.3-1-4.6-1.7-6.8c-1-3.8-2.2-7.5-3.2-11.3c-0.1-0.6-0.2-1.3-0.2-1.9
				l-0.4-0.1c-0.8,2.6-1.5,5.1-2.4,7.9c-0.4-0.5-0.7-0.9-1.1-1.4c-0.3,1.4-0.6,2.6-0.9,3.9c-0.3,0.5-0.6,1-1,1.4
				c-0.1,0.1-0.3,0.2-0.3,0.3c-1.4,2.2-2,4.9-1.7,7.6c0.5,2.9,0.1,5.9-1.1,8.6c-0.2,0.4-0.6,0.7-1,0.7c-1.6-0.2-3.2-0.3-4.4-1.8
				c-2.7-3.4-2.8-7.1-2.3-11.1c0.5-2.8,1.2-5.5,2.1-8.2c0.3-0.7,0.7-1.4,1.2-2.1c1.4-3.4,2.7-6.8,4-10.1c0.3-0.8,0.6-1.6,0.8-2.4
				c0.1-0.4,0.1-0.9,0-1.3c0.2,0,0.4-0.1,0.6-0.2c-0.2-0.4-0.5-0.8-0.8-1.2c-0.7,0.3-0.7,1.8-2.1,0.9c0.5-0.4,1-0.8,1.4-1.2
				c0.8-0.7,1.5-1.5,2.1-2.4c0.4-0.9,0.9-1,1.5-0.7c1.5-2.2,2.9-4.4,4.4-6.4c0.7-1.1,2.2-1.5,3.3-0.8c0.2,0.1,0.4,0.3,0.6,0.5
				c1.2,1.1,2.1,2.4,2.9,3.8c0.6,1.4,1,2.8,1.3,4.3c0.4,1.4,0.6,2.9,0.9,4.3c0.8,0.2,1.5,0.2,2.4,0.4c-2.1,3.6-0.7,7,0,10.4
				c0.2,1.5,0.4,2.9,0.8,4.4c0.8,2.6,2,5.1,2.8,7.7C95.4,151,96.7,154.2,95.5,157.5L95.5,157.5z M96.3,83.7L95.8,82l-0.6,0.2
				c0.3,0.8,0.5,1.6,0.7,2.4c-1.1,0.1-2.1-0.7-3-2.1c0.3-0.4,0.6-0.7,0.9-1c0.3-0.2,0.6-0.3,0.9-0.3c0.6,1.2,1.3,0,2.1,0.1
				C97.2,82.2,97.3,83.1,96.3,83.7L96.3,83.7z M97,71.9h-0.4v-1.3h0.5L97,71.9z M97.8,83.2c0.7,0.4,1.1,0.7,1.8,1.1l-0.7,0.8
				C98.6,84.5,98.3,84,97.8,83.2L97.8,83.2z M121.3,135.5c-3.3-0.6-6.9-0.8-10-1.9c-3.6-1.3-6.4-4.1-8.7-7.3c-0.8-1.1-1-2.6-1.4-3.9
				c-0.7-2-1.6-3.9-2.2-5.9c-0.8-3.2-1-6.4-0.6-9.7c0.2-1.8,0.4-3.6,0.4-5.4c0.1-2.6,1-5.2,2.7-7.2c1.7-2.4,3.2-4.8,4.5-7.4
				c0.4-1.2,0.8-2.4,0.9-3.6c1.4,0.8,2.1,0.1,2.9-0.7c2.9-3,6-5.9,9.7-7.8c3.9-2.2,8.5-2.7,12.8-1.3c1.7,0.7,3.2,1.7,4.6,2.8
				c1.6,1.1,3,2.4,4.3,3.8c2.9,3.5,5.1,7.5,6.6,11.7c0.5,1.7,0.9,3.5,1.1,5.3c0,0.2,0.1,0.5,0.2,0.7c1.1,1.7,0.6,3.6,0.5,5.5
				c-0.1,1.8-0.7,3.6-1.6,5.2c-1,1.6-1.4,3.5-1.2,5.4c0.1,1.1-1.3,2.3-1.7,3.5c-0.8,2.4-3.2,3.8-3.6,6.4c0,0.2-0.1,0.3-0.2,0.4
				c-1.1,0.7-2.2,1.5-3.4,2.2c-1.8,0.9-3.7,1.6-5.5,2.5c-0.5,0.2-1.1,0.5-1.3,0.9c-0.9,2.1-2.7,3.1-4.6,4.2
				C124.9,134.8,123.3,135.8,121.3,135.5L121.3,135.5z M135.4,162.2c-0.8,0.3-1.7,0.5-2.6,0.6c-2-0.1-3.5-1.3-5.1-2.2
				c-1.1-0.7-2.1-1.4-3-2.2c-0.8-0.6-0.8-1.3,0.1-1.7c0.9-0.4,1.7-1,2.2-1.8c0.3-0.6,1.5-0.8,2.3-1.2c6.9-2.9,13.9-5.8,20.8-8.6
				c1.6-0.6,3.2-1.1,4.7-0.1c0.6,0.4,1.1,0.9,1.5,1.4c0.7,0.7,1.2,1.6,1.7,2.4c0.7,1.4-0.3,3.3-1.9,4.3c-3,1.8-6.2,3.4-9.6,4.6
				C142.8,159.2,139.1,160.8,135.4,162.2L135.4,162.2z M154,165.3l5.1,0.6C157.8,166.5,155.2,166.4,154,165.3L154,165.3z
				 M166.7,119.9l-0.5-0.7c0.1,0,0.1-0.1,0.1-0.1l0.7,0.5C167,119.7,166.8,119.8,166.7,119.9L166.7,119.9z M168.1,114.3
				c-0.1-0.1-0.1-0.2-0.1-0.4l1-0.4l0.2,0.5L168.1,114.3L168.1,114.3z M171.1,27.9c-0.5,0.8-1.2,1.4-2,1.8c-2,0.8-4.3,0.3-5.7-1.3
				c-1-0.9-1.4-2.4-0.9-3.7c0.3-1.2,1.3-2.1,2.5-2.3c0.6-0.1,1.3-0.2,2-0.3C170.1,21.8,172.5,25.8,171.1,27.9L171.1,27.9z
				 M183.7,115c-0.2,0.1-0.6-0.3-1.1-0.6c0.8-0.2,1.3-0.4,1.9-0.6c0.1,0,0.1,0.1,0.2,0.2C184.4,114.4,184.1,114.8,183.7,115
				L183.7,115z M208.1,111.8c0.4,0,0.7-0.1,1.1-0.2v0.5c-0.4,0-0.7,0-1.1,0C208.1,112,208.1,111.9,208.1,111.8L208.1,111.8z
				 M209.6,114.4c-0.2,0.1-0.4,0.3-0.6,0.4c-0.1-0.5,0.3-0.7,1.1-0.7C210,114.2,209.8,114.3,209.6,114.4L209.6,114.4z M64.1,84
				c0.2,0.2,0.4,0.4,0.7,0.7c-0.2,0.2-0.3,0.3-0.5,0.5l-0.8-0.7l0.4-0.4C63.9,84.1,64.1,84,64.1,84z"/>
		</g>
	</g>
</g>
</svg>
