<svg xmlns="http://www.w3.org/2000/svg" viewBox="0 0 230.45 230.58"><title>2b046a28-3ee7-4af5-8ddf-d027d0515736</title><g id="Layer_2" data-name="Layer 2"><g id="Layer_1-2" data-name="Layer 1"><g id="_2b046a28-3ee7-4af5-8ddf-d027d0515736" data-name="2b046a28-3ee7-4af5-8ddf-d027d0515736"><g id="_2b046a28-3ee7-4af5-8ddf-d027d0515736-child-0" data-name="2b046a28-3ee7-4af5-8ddf-d027d0515736-child-0"><path d="M230.45,115.43a1,1,0,0,1-1,1c-20.77,0-83.06,3-96.62,16.6s-16.59,75.85-16.59,96.62a1,1,0,0,1-2.08,0c0-20.77-3-83.07-16.6-96.62S21.68,116.45.92,116.45a1,1,0,0,1,0-2.07c20.76,0,83.06-3,96.61-16.6s16.6-75.85,16.6-96.6a1.06,1.06,0,0,1,.47-1,1.16,1.16,0,0,1,1.14,0,1.1,1.1,0,0,1,.47,1c0,20.75,3,83.05,16.59,96.6s75.85,16.6,96.62,16.6A1,1,0,0,1,230.45,115.43Z"/></g></g></g></g></svg>