<svg xmlns="http://www.w3.org/2000/svg" viewBox="0 0 294.68 259.28"><defs><style>.cls-1{fill:#f9f6f6;}.cls-2{fill:#0c0c0c;}</style></defs><title>ZaHAqc8EN11yn8g3YiIH5</title><g id="Layer_2" data-name="Layer 2"><g id="Layer_1-2" data-name="Layer 1"><g id="ZaHAqc8EN11yn8g3YiIH5"><g id="ZaHAqc8EN11yn8g3YiIH5-child-0"><path class="cls-1" d="M147.2,174.92l10.21,8.66-4.23,5,29.63,25.13L191.93,203l5.73,4.86-8.85,10.43,10.25,8.7,9.13-10.77.39,1.49a2.63,2.63,0,0,0,.83,1.33,2.57,2.57,0,0,0,1.85.58l.31,0,1.61,1.37,0,.34a2.52,2.52,0,0,0,2.81,2.37l.37-.1,1.51,1.29,0,.35a2.6,2.6,0,0,0,.9,1.83,2.66,2.66,0,0,0,2,.59l.34-.05,1.4,1.19,0,.37a2.57,2.57,0,0,0,.91,1.92,2.6,2.6,0,0,0,2.11.58l.39-.11,1.33,1.12V233a2.58,2.58,0,0,0,3.06,2.59l.36-.07,1.22,1,0,.39a2.56,2.56,0,0,0,.91,2.09,2.51,2.51,0,0,0,2.2.54l.37-.08,1.22,1v.41a2.52,2.52,0,0,0,3.14,2.67l.39-.09,1.22,1,0,.41a2.4,2.4,0,0,0,3.43,2.48l.4-.11,1.12,1,0,.42a2.52,2.52,0,0,0,.88,2.25,2.6,2.6,0,0,0,2.42.53l.42-.13,2.81,2.38.28,0,.2.17a10.68,10.68,0,0,0,13.77-2.24l5.68-6.71.55.47c1,.65,3.42,2.07,4.46.84,1.25-1.47-.28-3.5-1.28-4.59l-.5-.52,5.17-6.1,1.79,1.25a4.06,4.06,0,0,1,.8,5.5l-8.8,12.63,3.61,3.82.57-.4c5.95-4.17,10.63-10.87,13.51-15.78a8.81,8.81,0,0,0-1.15-10.51l-3.84-4.16,1.68-2a10.64,10.64,0,0,0-.13-13.84l-.22-.18v-.27l-2.79-2.37.06-.44a2.61,2.61,0,0,0-.89-2.36,2.52,2.52,0,0,0-2.4-.48l-.43.11-1.08-.92.05-.41a2.57,2.57,0,0,0-.86-2.27,2.53,2.53,0,0,0-2.38-.48l-.4.1-1.15-1,.05-.4a2.55,2.55,0,0,0-3.19-2.71l-.4.1-1.22-1,0-.39a2.6,2.6,0,0,0-.89-2.16,2.56,2.56,0,0,0-2.21-.54l-.38.08-1.22-1,0-.39a2.59,2.59,0,0,0-3.09-2.62l-.38.08-1.29-1.09v-.38a2.55,2.55,0,0,0-.91-2,2.59,2.59,0,0,0-2.11-.57l-.37,0-1.34-1.14v-.36a2.61,2.61,0,0,0-.92-2,2.54,2.54,0,0,0-2-.58l-.35,0L253,180.34l0-.35a2.56,2.56,0,0,0-2.85-2.42l-.35,0-1.55-1.31.34-.63a2.52,2.52,0,0,0-.87-1.79,2.46,2.46,0,0,0-1.44-.59l-1.53-.15,9.09-10.73-10.29-8.72-8.83,10.42L229,159.25l9.12-10.76-29.63-25.13-4.26,5L194,119.72l-3.49,4.12-17.68-15,5.72-6.74L165.86,91.35l-6.75,8L111.47,61v-.37a6.64,6.64,0,0,0-6.64-6.6,5.59,5.59,0,0,0-1.41.15l-.36.07-.59-.5,0-.44V53.1a6.64,6.64,0,0,0-6.64-6.74,6,6,0,0,0-1.74.24l-.4.1-.6-.5-.1-.47A6.71,6.71,0,0,0,86.33,39a7.21,7.21,0,0,0-1.53.2l-.36.08-1.58-1.33,0-.31A6.55,6.55,0,0,0,81,33.83,6.62,6.62,0,0,0,74.87,32l-.26.06-.18-.16a17.63,17.63,0,0,0-14.35.2L59,32.59l0-1.19a4.3,4.3,0,0,0-1.48-3.2,4.36,4.36,0,0,0-4.27-.79l-.32.11L40.18,21.37l-3.66-3.1L29.05,6.55,16.17,1.05,1,18.9,8.56,30.71l13,5.59,3.58,3,8,11.38,0,.34a4.37,4.37,0,0,0,5,5L39.21,56l-.31,1.16A17.65,17.65,0,0,0,39.2,67l.06.2,0,.22A7.56,7.56,0,0,0,39,68.81a6.66,6.66,0,0,0,6.65,6.71,6.35,6.35,0,0,0,1.14-.1l1.09-.18-.18,1.1a6.62,6.62,0,0,0,8.36,7.44l1-.29,0,1.24a6.66,6.66,0,0,0,8.08,6.53l1-.22-.07,1.24A6.54,6.54,0,0,0,71,98.8l.18,0,.14.11,50,44.82-6.75,8,12.74,10.8,5.73-6.75,17.67,15Z"/></g><g id="ZaHAqc8EN11yn8g3YiIH5-child-1"><path class="cls-2" d="M146.07,175l10.22,8.67-4.26,5,30.82,26.13L192,204.05l4.55,3.86-8.85,10.43,11.47,9.73,8.66-10.2a3.33,3.33,0,0,0,1.08,1.73,3.42,3.42,0,0,0,2.43.77l1.11.94a3.32,3.32,0,0,0,1.16,2.3h0a3.34,3.34,0,0,0,2.54.77l1,.81a3.37,3.37,0,0,0,3.8,3.22l.85.72a3.27,3.27,0,0,0,4,3.17l.76.65a3.39,3.39,0,0,0,1.2,2.61,3.3,3.3,0,0,0,2.83.72l.69.59a3.35,3.35,0,0,0,4.1,3.39l.62.53a3.35,3.35,0,0,0,1.18,2.81,3.3,3.3,0,0,0,3,.69l.54.47a3.34,3.34,0,0,0,4.25,3.51l.5.43a3.38,3.38,0,0,0,4.32,3.66l2.43,2.06a.75.75,0,0,0,.6.17,11.4,11.4,0,0,0,14.92-2.5l5.17-6.09c1.59,1,4.26,2.38,5.67.72,1.67-2-.32-4.57-1.42-5.73l4.24-5,1.06.9a3.29,3.29,0,0,1,.72,4.42l-9.19,13.16,4.57,4.82,1.13-.8c6.08-4.28,10.86-11,13.73-16a9.58,9.58,0,0,0-1.2-11.5l-3.48-3.62,1.25-1.47a11.42,11.42,0,0,0-.18-14.83.77.77,0,0,0-.27-.56L287,208.39a3.42,3.42,0,0,0-1.16-3.08,3.36,3.36,0,0,0-3.07-.73l-.44-.37a3.32,3.32,0,0,0-4.24-3.6l-.51-.43a3.32,3.32,0,0,0-4.17-3.54l-.58-.49a3.37,3.37,0,0,0-1.16-2.77,3.41,3.41,0,0,0-2.94-.71l-.59-.5a3.67,3.67,0,0,0-3.86-3.69l-.74-.62a3.36,3.36,0,0,0-3.95-3.35l-.8-.68a3.39,3.39,0,0,0-1.2-2.55,3.33,3.33,0,0,0-2.58-.81l-.91-.77a3.4,3.4,0,0,0-1.19-2.45h0a3.43,3.43,0,0,0-2.52-.77l-1-.88a3.28,3.28,0,0,0-1.17-2.33,3.37,3.37,0,0,0-1.89-.79l8.64-10.19-11.47-9.73L234.62,163l-4.54-3.86,9.12-10.76-30.81-26.14-4.26,5-10.22-8.66-3.5,4.13-16.46-14,5.69-6.71-13.9-11.8L159,98.2,112.26,60.65a7.42,7.42,0,0,0-2.18-5.17,7.27,7.27,0,0,0-5.27-2.21,6.85,6.85,0,0,0-1.57.15h0a1.23,1.23,0,0,0,0-.27,7.49,7.49,0,0,0-7.48-7.54,6.48,6.48,0,0,0-2,.28l-.1-.09a7.48,7.48,0,0,0-7.45-7.55,8.07,8.07,0,0,0-1.7.21l-1-.87a7.4,7.4,0,0,0-8.91-6.27,18.4,18.4,0,0,0-14.83,0A5.16,5.16,0,0,0,58,27.49a5.27,5.27,0,0,0-5-.94L40.7,20.66l-3.43-2.9L30.35,6.92l-.69-1.09-1.2-.52L16,0,0,18.88,7.28,30.29l.7,1.1,1.19.51,11.83,5,3.43,2.91L32.24,51a5.15,5.15,0,0,0,5.84,6,18.29,18.29,0,0,0,.31,10.29,7.4,7.4,0,0,0-.2,1.62,7.49,7.49,0,0,0,7.44,7.51,7,7,0,0,0,1.28-.12,7.42,7.42,0,0,0,9.38,8.38v.16a7.38,7.38,0,0,0,2.18,5.3,7.47,7.47,0,0,0,6.89,2,.91.91,0,0,0,0,.33,7.33,7.33,0,0,0,5.42,7.09l49.51,44.35-6.76,8,13.91,11.8,5.73-6.76,16.46,14Zm38.54,32.8-2.13,2.52-25.95-22,2.13-2.51Zm16.63,12.85-2.46,2.91-6.59-5.6,2.46-2.9Zm40.66-61.31,1.93-2.28,6.6,5.59-1.94,2.28Zm-78-62,2.23-2.62,9,7.66L173,105Zm-33.81,58.19-3.1,3.66-9-7.66,3.1-3.66Zm77.23,57.94-6.59-5.59,2.6-3.07,6.6,5.59Zm-8.69-8.06-4.55-3.86,1.73-2,4.55,3.85Zm91.13,27.67a6.38,6.38,0,0,1,.83,7.66A51.16,51.16,0,0,1,278.88,255l-.52-.57C281,251.7,291.19,240.8,290,237.06a14.7,14.7,0,0,0-4.47-6.09l1-1.22Zm-2.3-9.35L265.18,250a8.2,8.2,0,0,1-10,2l1.65-1.95a6.15,6.15,0,0,0,5.92-.83c3.17-2.57,20.59-24.28,20.59-24.28s-2.08-.45-2.22-3.54l6.63-7.82A8.18,8.18,0,0,1,287.44,223.78Zm-56.76-56.15-4.54-3.85,1.87-2.21,4.55,3.85Zm4.31-.14,6.6,5.59-2.9,3.42-6.59-5.59Zm-39.57,27.57-25.94-22,30.15-35.57,25.94,22Zm28.84-14.91,6.6,5.59L213.5,206.21l-6.59-5.6Zm-19,17.43-4.55-3.85,2.48-2.93,4.55,3.86Zm4.51-5.32-4.54-3.86,1.47-1.73,4.54,3.86Zm3.72-4.38L209,184l11.63-13.71,4.54,3.86Zm12.71-10,3.19-3.77,6.6,5.6-3.19,3.75Zm35.14,55.91A145.63,145.63,0,0,1,282.77,208C283,207.85,273.52,225.66,261.37,233.74Zm-5.18-3.34a156.36,156.36,0,0,1,22.05-26.49C278.45,203.71,268.6,222,256.19,230.4Zm-5.12-3.28a164.14,164.14,0,0,1,22.68-27.29C273.91,199.59,263.7,218.36,251.07,227.12Zm-5.18-3.32a173.78,173.78,0,0,1,23.33-28.09c.17-.25-10.43,19-23.38,28Zm-5.16-3.33a184.22,184.22,0,0,1,24-28.89c.17-.25-10.85,19.49-24,28.85Zm-5.19-3.33a192.73,192.73,0,0,1,24.62-29.67c.16-.24-11.2,19.9-24.67,29.63Zm-5.17-3.32a203.51,203.51,0,0,1,25.25-30.47c.18-.27-11.55,20.38-25.3,30.43Zm-5.18-3.32a214.76,214.76,0,0,1,25.9-31.27c.19-.27-11.93,20.84-26,31.22ZM220,207.17a224.57,224.57,0,0,1,26.5-32c.24-.32-12.27,21.28-26.54,32Zm-11.26-80.43,25.94,22-4.26,5-25.94-22Zm-46.27-9.39-9-7.66,4.79-5.65,9,7.66Zm5.89-1.42,16.17,13.71L183.39,131,167.22,117.3Zm-6.64,7.83,4.66-5.49L182.56,132l-4.13,4.88A6.84,6.84,0,0,0,176,131.4L168.44,125A6.89,6.89,0,0,0,161.74,123.76Zm5.64,26.13L163,155l-16.16-13.71,4.83-5.69A6.88,6.88,0,0,0,154,142l7.57,6.42A6.83,6.83,0,0,0,167.38,149.89ZM124.1,139.37l-1.78,2.09-46.9-42a7.46,7.46,0,0,0,2.69-1.7l0,0Zm7.69-4.13,9,7.66-4.08,4.82-9-7.66ZM109,60.76a4.21,4.21,0,0,1-1,2.75l-.25.29-21.12,21a13.2,13.2,0,0,1-6.1-6l21.19-21a4.14,4.14,0,0,1,3-1.25,4.29,4.29,0,0,1,4.27,4.3Zm-4.56,10.8,1.78-1.76,44.7,37.91-1.61,1.9ZM81.51,89.82c-1.65-.72-5.13-2.65-6.17-5.94l2.77-2.75a16.27,16.27,0,0,0,6.1,6ZM62,63.73l21.18-21a4.36,4.36,0,0,1,3-1.25,4.29,4.29,0,0,1,3,7.33L68.2,69.61A13.25,13.25,0,0,1,62,63.73ZM48.25,60.22l2.42-2.41a16.39,16.39,0,0,0,6.12,6L54.68,65.9c-1.27-.52-5.08-2.34-6.38-5.64Zm18.12,15.9,2.71-2.71a16.42,16.42,0,0,0,6.12,6l-2.4,2.39c-1.29-.51-5.09-2.33-6.38-5.65Zm33.59-23a4.15,4.15,0,0,1-1,2.75l-.24.29L77.59,77.07a13.07,13.07,0,0,1-6.12-6l21.2-21a4.16,4.16,0,0,1,3-1.25,4.31,4.31,0,0,1,4.28,4.3ZM79.14,35.63a4.28,4.28,0,0,1,.21,5.78l-.24.28L59.2,61.47a12.93,12.93,0,0,1-6.12-6l20-19.85a4.3,4.3,0,0,1,6.06.09ZM41.38,68.81A4.36,4.36,0,0,1,42.5,66c0,1.65.84,4.91,6.55,5.55l-.35.41a4.28,4.28,0,0,1-7.3-3Zm15.37.1,2.88-2.86A16.37,16.37,0,0,0,65.81,72l-2.63,2.61c-1.29-.5-5.12-2.29-6.4-5.65Zm10.42,18.5-.35.41a4.28,4.28,0,0,1-6.17-5.92c0,1.66.88,4.87,6.56,5.54Zm8.64,8a4.29,4.29,0,1,1-6-6.14c-.13,1.34,0,5.25,6,6.17Zm9.77-5.2,1.91-1.88,46.45,39.38-1.73,2Zm59.79,47.2-9-7.66,10.44-12.32,9,7.66Zm-8.43-13.31-46.1-39.1,11.87-11.66,45,38.14Zm11.53-8.65,3-3.55,9,7.66-3,3.51Zm5.83-11.82L110,66.08h0a7.66,7.66,0,0,0,1.38-2l45.53,36.51ZM170.77,113l1.37-1.61,16.2,13.74L187,126.78ZM70.68,33.37,57.14,46.86a11.72,11.72,0,0,1-3.4-6.41l1.74-2.06a15.21,15.21,0,0,1,15.3-4.94Zm-37-15.28-5.17,6.09c-3.55-2.59-3.66-7-3.18-10.21l3.23-3.81ZM29.92,31.93c.16-1.27,1-3.5,4.14-7.13l-.59-1.55,2.18-2.57,2.22,1.88Zm-2.69,3.19-1.37,1.61-2.22-1.89L25,33.27Zm2.26,2.27,6.17,8.36-1.66,2-6-8.55Zm5.09-6,1-1.18,8,6.16L42.27,38Zm11,2.72L36.62,29l4-4.72L50,28.79Zm-20-26.51L13.08,22.34c.51-3.08,4.08-7.66,4.15-7.73S14.88,10,13.71,7.66l3.2-3.78ZM4,19.06l1.5-1.77,5,8.05L9.12,27Zm8,10.51,1.2-1.41,9.14,3.18-1.64,1.94ZM35.5,51.33l18.32-21.6a2,2,0,0,1,2.33,3.15L39,53.12a2,2,0,0,1-2.45.5A2,2,0,0,1,35.5,51.33Zm8.24,1.23A20.14,20.14,0,0,0,44,60.14L40.88,63.2a15.2,15.2,0,0,1,2.81-10.68ZM51,74.72a5.29,5.29,0,0,0,.6,2.26,11.61,11.61,0,0,1,1.21,1.22l1.35,1.15a11.24,11.24,0,0,0,3.47.85l-.24.28a4.27,4.27,0,0,1-6.29-5.78Zm84.47,80,2.07-2.43L153.72,166l-2.07,2.44Zm58.79-31.62,7.78,6.6L196,136.86l-5.53-4.69-35.74,42.14,5.54,4.7-1.9,2.23-7.77-6.6Zm9.83,25.48,9.75,8.27a8,8,0,0,1,.88,11.32l-6.58,7.77-12-28.68a8,8,0,0,1,8,1.36Zm-15.31,5.7L201.3,184a8,8,0,0,1-11.11.74l-9.75-8.27a8,8,0,0,1-.87-11.32Z"/></g></g></g></g></svg>