<svg xmlns="http://www.w3.org/2000/svg" viewBox="0 0 249.26 113.34"><defs><style>.cls-1{fill:#231f20;}</style></defs><title>46ae32b9-4e34-4964-9b91-e7240ab0c23b</title><g id="Layer_2" data-name="Layer 2"><g id="Layer_1-2" data-name="Layer 1"><g id="_46ae32b9-4e34-4964-9b91-e7240ab0c23b" data-name="46ae32b9-4e34-4964-9b91-e7240ab0c23b"><g id="_46ae32b9-4e34-4964-9b91-e7240ab0c23b-child-0" data-name="46ae32b9-4e34-4964-9b91-e7240ab0c23b-child-0"><path class="cls-1" d="M116,0c.47.09.91.17,1.4.24,1.84.23,3.73.31,5.53.71a51.25,51.25,0,0,1,12.39,4.51,22.47,22.47,0,0,1,2.24,1.34,7.08,7.08,0,0,1,3.13,4.31,4.53,4.53,0,0,1-1.06.59c-1.8.52-3.6.89-5.39,1.44-7.11,2.17-14,5-20.85,7.82-.73.28-1.5.52-2.23.8a2,2,0,0,1-2-.21A17.59,17.59,0,0,1,107,19.83c-2.41-2.23-4.8-4.5-7.2-6.76a10.58,10.58,0,0,1-1.3-1.38,3.14,3.14,0,0,1,0-4.25,11.55,11.55,0,0,1,2.54-2.14,38.35,38.35,0,0,1,7.77-3.54c1-.38,2.05-.77,3.1-1.17l4-.59Z"/></g><g id="_46ae32b9-4e34-4964-9b91-e7240ab0c23b-child-1" data-name="46ae32b9-4e34-4964-9b91-e7240ab0c23b-child-1"><path class="cls-1" d="M114.66,37.58c-.07-1.48-.2-2.95-.18-4.41a6.5,6.5,0,0,1,2.74-5.3,22.67,22.67,0,0,1,3.56-2.16c6.1-2.77,12.21-5.57,18.38-8.21a222.84,222.84,0,0,1,23.56-8.39c4.15-1.23,8.29-2.47,12.48-3.62,2.16-.59,4.32-1,6.5-1.49,3.59-.72,7.17-1.39,10.78-2a64,64,0,0,1,14.36-.82c2,.08,4,.17,6,.33a37,37,0,0,1,10,2.18l23,8.23a14.41,14.41,0,0,1,2.28,1,1.86,1.86,0,0,1,.88,2.8,14,14,0,0,1-1.79,2.65c-1.94,2.23-3.84,4.47-5.94,6.51-4.87,4.78-9.7,9.62-14.81,14.17a107.86,107.86,0,0,1-36.59,21.62,189.7,189.7,0,0,1-19.66,5.74c-4.8,1.12-9.61,2.15-14.4,3.31-7.38,1.78-14.72,3.65-22.09,5.47a14,14,0,0,1-2.22.41,4.24,4.24,0,0,1-4.66-2.33,54.13,54.13,0,0,1-2.36-5.07c-2.62-6.89-5.27-13.8-7.31-20.89-.94-3.2-1.65-6.48-2.47-9.7Zm80.18,4.56c1.16-.26,2.33-.5,3.47-.84a15.93,15.93,0,0,0,10.06-8.17,8.37,8.37,0,0,0,.64-7c-.44-1.24-.85-2.47-1.28-3.71-.09-.3-.31-.65-.24-.9.25-.73-.18-1.13-.62-1.51a25.11,25.11,0,0,0-2.52-2,20.07,20.07,0,0,0-11.52-3.24A17.16,17.16,0,0,0,180,20.55a13.37,13.37,0,0,0-3.63,8.36A12,12,0,0,0,184.07,41,21,21,0,0,0,194.84,42.14Z"/></g><g id="_46ae32b9-4e34-4964-9b91-e7240ab0c23b-child-2" data-name="46ae32b9-4e34-4964-9b91-e7240ab0c23b-child-2"><path class="cls-1" d="M83.52,50.05a17.51,17.51,0,0,0,1.84.52L95.6,52.14c2.52.37,5,.69,7.54,1.08a10.16,10.16,0,0,1,2.39.64c1.15.47,1.26,1.32.33,2.11A9.51,9.51,0,0,1,104,57.18c-2.11,1.1-4.24,2.18-6.37,3.26a3.27,3.27,0,0,0-1.22,1c.43,0,.83,0,1.26,0,2.29-.17,4.6-.36,6.89-.52a21.65,21.65,0,0,1,6.17.32,14.3,14.3,0,0,1,2.6.82,5.57,5.57,0,0,1,3,2.8,36.29,36.29,0,0,1,3.19,9.57c.27,1.57.09,1.87-1.33,2.65-5,2.72-10,5.3-14.91,8.23A255.07,255.07,0,0,0,79,102.07q-5.44,4.17-11.07,8.09A44.62,44.62,0,0,1,63,113a3.89,3.89,0,0,1-1.49.36A1.48,1.48,0,0,1,59.84,112a5.29,5.29,0,0,1,.08-2.21,53.69,53.69,0,0,1,1.82-5.41c.78-2,1.71-3.86,2.51-5.81a17.84,17.84,0,0,0,.93-3c.39-1.73-.13-2.33-1.79-2a34.78,34.78,0,0,0-5.12,1.56c-4.36,1.69-8.68,3.55-13,5.23A50.09,50.09,0,0,1,40.35,102c-.74.19-1.56.31-2.07-.45s0-1.46.34-2.1a29.51,29.51,0,0,1,1.82-2.5c1.65-2,3.34-3.85,5-5.8a32.61,32.61,0,0,0,2-2.78c.64-1.06.39-1.56-.81-1.71a10,10,0,0,0-2.62,0c-4.15.67-8.31,1.4-12.45,2.14-2.23.41-4.44.9-6.67,1.31-4.3.79-8.6,1.62-12.9,2.31-2.76.45-5.52.71-8.28,1a8.17,8.17,0,0,1-1.78,0c-.7-.1-1.47-.2-1.8-1a1.82,1.82,0,0,1,.61-2,16.13,16.13,0,0,1,2.31-2.06A60.85,60.85,0,0,1,9,84.47c5.62-3,11.31-5.81,16.94-8.73,3.78-2,7.53-3.91,11.24-6A22.37,22.37,0,0,0,40.88,67c1.74-1.59,1.55-2.69-.67-3.58a34.54,34.54,0,0,0-4.09-1.27c-2.47-.63-5-1.14-7.42-1.79a19.92,19.92,0,0,1-3.26-1.12c-1.08-.46-2.33-1-2.42-2.37s1-2,2.05-2.54a48.38,48.38,0,0,1,6.21-2.74c5.25-1.7,10.57-3.18,15.86-4.76,4.48-1.33,9-2.69,13.43-4.12a12.51,12.51,0,0,0,3.07-1.56c1.27-.85,1.29-1.64.23-2.71-.59-.59-1.27-1.1-1.86-1.68-1.58-1.51-1.35-2.89.76-3.52a25,25,0,0,1,5.13-.88c11.44-.6,22.87-.54,34.32-.16,1.24,0,1.92.31,2.26,1.59.53,1.87,1.27,3.67,1.88,5.53.69,2.16.09,3.44-2,4.28-1.32.51-2.72.87-4.1,1.27-4.48,1.23-9,2.43-13.43,3.69a8.58,8.58,0,0,0-3.32,1.48Z"/></g><g id="_46ae32b9-4e34-4964-9b91-e7240ab0c23b-child-3" data-name="46ae32b9-4e34-4964-9b91-e7240ab0c23b-child-3"><path class="cls-1" d="M131.62,99.92c-1.67,0-3.38,0-5.08,0a5.19,5.19,0,0,1-1.27-.29c-1.82-.55-3.39-1.65-2.42-4.41,1.18-3.26,2.45-6.45,3.69-9.69.33-.91,1-1.7.79-2.8-.06-.2.25-.59.52-.74.94-.57,1.91-1.1,2.9-1.64a.48.48,0,0,1,.34-.06c1.38.6,2.64-.19,3.91-.47a136.71,136.71,0,0,1,17.37-3,50.14,50.14,0,0,1,7.84-.35,7.1,7.1,0,0,1,2.1.4,1.42,1.42,0,0,1,.81,2.41,23.2,23.2,0,0,1-1.66,2.18,64.71,64.71,0,0,1-23.8,16.65c-1.92.76-3.95,1.18-6,1.78Z"/></g></g></g></g></svg>