<svg xmlns="http://www.w3.org/2000/svg" viewBox="0 0 162.33 49.61"><title>a1666a28-60cd-4ede-9c4d-e4ce322a8efe</title><g id="Layer_2" data-name="Layer 2"><g id="Layer_1-2" data-name="Layer 1"><g id="a1666a28-60cd-4ede-9c4d-e4ce322a8efe"><g id="a1666a28-60cd-4ede-9c4d-e4ce322a8efe-child-0"><path d="M102.93,20.72c1.5-2.25,2.83-4.2,4.14-6.17s2.5-3.66,3.56-5.59c1.75-3.18,1.19-5.16-1.4-4.92A23,23,0,0,0,104,5.19C94,8.56,83.92,12,73.86,15.48Q42.45,26.48,11,37.58c-2.38.84-4.75,1.73-7.13,2.64a14.75,14.75,0,0,0-2.12,1A3.08,3.08,0,0,0,0,43.38c-.17,1,.19,1.55,1,1.54a23.22,23.22,0,0,0,3.21-.15c5.78-.84,11.53-1.59,17.36-2.62,15.75-2.82,31.53-5.81,47.29-8.67,3.48-.63,6.92-1.12,10.35-1.61a26.61,26.61,0,0,1,3.22-.07c-1.08,1.11-1.73,1.8-2.4,2.48-2.28,2.28-4.58,4.52-6.82,6.83A23.68,23.68,0,0,0,70.8,44c-1.74,2.52-1.72,4.66.13,5.27a7.42,7.42,0,0,0,3.22.26c3.16-.38,6.34-.78,9.6-1.45,8.11-1.68,16.24-3.42,24.4-5.33a76.29,76.29,0,0,1,17-2.15c2.23,0,4.51-.15,6.79-.28,3.27-.16,6.16-2.19,8.69-6.15,2.3-3.58,4.64-7.14,7.08-10.62,3.88-5.49,7.85-10.9,11.76-16.35A32.81,32.81,0,0,0,161.56,4c1.38-2.59.89-4.29-1.24-4a22.77,22.77,0,0,0-4.76,1.4c-8,3.1-16.08,6.3-24.12,9.38-7.52,2.88-15,5.63-22.54,8.39a18.11,18.11,0,0,1-6,1.52Z"/></g></g></g></g></svg>