<svg xmlns="http://www.w3.org/2000/svg" viewBox="0 0 131.84 158.26"><title>6c739b3e-800e-4aa4-b7e9-415ea4e733cb</title><g id="Layer_2" data-name="Layer 2"><g id="Layer_1-2" data-name="Layer 1"><g id="_6c739b3e-800e-4aa4-b7e9-415ea4e733cb" data-name="6c739b3e-800e-4aa4-b7e9-415ea4e733cb"><g id="_6c739b3e-800e-4aa4-b7e9-415ea4e733cb-child-0" data-name="6c739b3e-800e-4aa4-b7e9-415ea4e733cb-child-0"><path d="M52.16,59.22c.82-2.09,1.51-3.93,2.25-5.76a39.8,39.8,0,0,1,2.21-5.05c1.55-2.63,4.14-2.81,6.47-.43a31.5,31.5,0,0,1,4,5c6.5,10,13,20.06,19.34,30.16q19.89,31.53,39.68,63.12c1.49,2.39,2.93,4.79,4.36,7.2a14.4,14.4,0,0,1,1.13,2.21c.34.88.38,1.73-.56,2.27a2,2,0,0,1-2.57-.35,41.72,41.72,0,0,1-3-2.89c-4.88-5.4-9.82-10.74-14.55-16.25-12.75-14.89-25.35-29.88-38.07-44.8-2.8-3.28-5.71-6.5-8.62-9.69-.81-.9-1.79-1.67-3.13-2.88-.08,1.33-.14,2.14-.17,3-.09,2.8-.12,5.59-.26,8.36a11.53,11.53,0,0,1-.58,3.14c-.85,2.4-3.08,3.11-5.55,1.69a15.55,15.55,0,0,1-3.47-2.77c-2.75-2.93-5.5-5.88-8-9C36.67,77.75,30.39,70,24.25,62.09A121.16,121.16,0,0,0,9.54,46.3c-2.21-2-4.32-4-6.46-6.11C0,37.25-.78,34,.79,30.41c1.41-3.24,2.75-6.53,3.9-9.87,1.82-5.3,3.45-10.65,5.18-16a14.81,14.81,0,0,1,1.24-2.92c1.3-2.09,3.54-2.24,5.33-.25A28,28,0,0,1,19.72,6.1c4.8,8.17,9.48,16.37,14.3,24.53,4.51,7.63,9.14,15.22,13.75,22.79a23.65,23.65,0,0,0,4.41,5.83Z"/></g></g></g></g></svg>