<svg xmlns="http://www.w3.org/2000/svg" viewBox="0 0 555.8 856.27"><title>Asset 55</title><g id="Layer_2" data-name="Layer 2"><g id="Layer_1-2" data-name="Layer 1"><g id="b6091b85-627c-4b3f-ae1e-7dcf10dcb397"><g id="b6091b85-627c-4b3f-ae1e-7dcf10dcb397-child-0"><path d="M305.73,4.26c-130-22-257.52,42.21-294.91,172.55C-8.8,245.18-.64,315.63,26.46,380.86,55.23,450.13,116.24,501,153.86,563.5c4,13.38,7.14,27.07,8.2,41.35,1.76,23.8-8.32,52.25,10.37,72.07,16.38,17.36,43.52,14.62,65.49,15.76,45.1,2.34,90.19,3.94,135.31,5.66,16.55.64,31.59-14.82,31.19-31.2-1-39.83,9.82-71.45,19.58-105.4C631.33,402.76,595.63,53.35,305.73,4.26ZM199.89,93.55c-30.5,30-54.11,69.29-69.69,107-26.8,64.95-28,131.68-7.48,194.23C60.27,283.82,66.25,129.54,199.89,93.55Z"/></g><g id="b6091b85-627c-4b3f-ae1e-7dcf10dcb397-child-1"><path d="M386.92,723.71c-27.71-20.15-71.77-21.69-105.38-22.83-34.66-1.18-74.61-.24-105.27,17.12-24.67,14-11.81,42.35,7.28,49.13l-.72.94c31.64,8.22,66.15,3.4,98.71,4.78S348,783.59,380,776.61C406.6,770.83,405.42,737.17,386.92,723.71Z"/></g><g id="b6091b85-627c-4b3f-ae1e-7dcf10dcb397-child-2"><path d="M350.63,785.75c-19.68,6.85-53-4.58-74.59-4.62-27.84-.06-56.13,2.86-82.83,11-16.78,5.12-18.58,31.64,0,35.86,33,7.5,66.61,12.52,99.71,19.72,25.05,5.46,51,13.43,76.07,4.68C410.72,837.82,392.78,771,350.63,785.75Z"/></g></g></g></g></svg>