<svg xmlns="http://www.w3.org/2000/svg" viewBox="0 0 74.67 74.96"><defs><style>.cls-1{fill:#181515;}</style></defs><title>ab1bcd5a-2cfe-4d90-8433-4335bebf698f</title><g id="Layer_2" data-name="Layer 2"><g id="Layer_1-2" data-name="Layer 1"><g id="ab1bcd5a-2cfe-4d90-8433-4335bebf698f"><g id="ab1bcd5a-2cfe-4d90-8433-4335bebf698f-child-0"><path class="cls-1" d="M74.67,71.09,65.52,58.85,50.35,43.72l-2,2,15,15.07,7.49,10-.33.34-10-7.5-15-15-2,2L58.56,65.8,70.78,75ZM32.8,17.55l-2,2,8.52,8.58q3.63-3.57,10.83-3.57a9,9,0,0,1,4.79,1,3.47,3.47,0,0,1,1.48,3.17,15,15,0,0,1-2.31,7.05,48.47,48.47,0,0,1-6.69,8.81,55.22,55.22,0,0,1-10.27,8.87c-3.39,2.18-6.26,3.28-8.61,3.27a3.49,3.49,0,0,1-3.14-1.47,9,9,0,0,1-1-4.8q0-7.25,3.5-10.91l-8.33-8.36-2,2,6.56,6.61a20.14,20.14,0,0,0-2.59,10.64q0,9.15,7,9.15,4.25,0,9.8-3.48a56.49,56.49,0,0,0,11.23-9.59,50.74,50.74,0,0,0,7.24-9.68,17.4,17.4,0,0,0,2.5-8.13,6.18,6.18,0,0,0-2.35-5.26q-2.34-1.76-6.81-1.76a19.64,19.64,0,0,0-10.58,2.62Zm3.13-6.05A4.75,4.75,0,0,0,34.61,8L27.93,1.3A4.65,4.65,0,0,0,24.47,0c-2,0-4.39.81-7.21,2.43A42.16,42.16,0,0,0,8.9,8.93a36.89,36.89,0,0,0-6.48,8.23A15.65,15.65,0,0,0,0,24.53a6.24,6.24,0,0,0,.28,1.92A3.71,3.71,0,0,0,1.22,28l6.7,6.77a4.66,4.66,0,0,0,3.46,1.37c2,0,4.44-.82,7.27-2.48A41.62,41.62,0,0,0,27,27.11a41.68,41.68,0,0,0,6.51-8.38Q35.93,14.49,35.93,11.5Zm-2.88,0q0,2.37-2.25,6.11a42.08,42.08,0,0,1-5.9,7.47A37.2,37.2,0,0,1,17.57,31q-3.8,2.28-6.18,2.28a1.91,1.91,0,0,1-1.44-.5l-3.5-3.5a21,21,0,0,0,6.69-3,40.28,40.28,0,0,0,7.19-5.9,43.34,43.34,0,0,0,5.85-7.31,21,21,0,0,0,2.91-6.6L32.58,10A2.11,2.11,0,0,1,33.05,11.5Zm-30.17,13q0-2.45,2.24-6.2A38.23,38.23,0,0,1,10.92,11a38.4,38.4,0,0,1,7.42-5.91q3.77-2.24,6.13-2.24a1.69,1.69,0,0,1,1.91,1.91q0,2.34-2.23,6.09a40.43,40.43,0,0,1-5.91,7.5,36.86,36.86,0,0,1-7.34,5.89q-3.8,2.3-6.18,2.29C3.5,26.56,2.88,25.89,2.88,24.54Z"/></g></g></g></g></svg>