<svg xmlns="http://www.w3.org/2000/svg" viewBox="0 0 171.69 150.13"><defs><style>.cls-1{fill:#2d2d2d;}</style></defs><title>308c3391-c603-4bf2-ae7f-1be702c0eeab</title><g id="Layer_2" data-name="Layer 2"><g id="Layer_1-2" data-name="Layer 1"><g id="_308c3391-c603-4bf2-ae7f-1be702c0eeab" data-name="308c3391-c603-4bf2-ae7f-1be702c0eeab"><g id="_308c3391-c603-4bf2-ae7f-1be702c0eeab-child-0" data-name="308c3391-c603-4bf2-ae7f-1be702c0eeab-child-0"><path class="cls-1" d="M4.64,82.38a.77.77,0,0,1,.68-.83c15.08-1.32,61.42-7.28,76-17S119.7,13.93,126.86.4a.79.79,0,0,1,.61-.4.76.76,0,0,1,.42.09.75.75,0,0,1,.39.61.68.68,0,0,1-.09.42c-9,16.94-26,54.25-21.28,61.47s45.16,6.13,64.05,4.47a.77.77,0,0,1,.13,1.52c-15.08,1.32-61.41,7.28-76,17S56.71,136.2,49.55,149.73a.8.8,0,0,1-.44.37.82.82,0,0,1-.58-.06.79.79,0,0,1-.4-.61.76.76,0,0,1,.09-.42c9-16.95,26-54.25,21.27-61.47s-45.15-6.13-64-4.48A.76.76,0,0,1,4.64,82.38ZM.28,118.93c5.92-.51,18.64-.84,20.09,1.42s-3.85,14-6.68,19.29v.13a.27.27,0,0,0,.45.16c2.25-4.31,9.69-17.06,14.29-20.12s19.11-5,23.84-5.42a.2.2,0,0,0,.15-.09.24.24,0,0,0,.06-.17.26.26,0,0,0-.09-.17.22.22,0,0,0-.16,0c-5.93.52-18.65.86-20.11-1.4s3.87-14,6.7-19.3a.2.2,0,0,0,0-.13.21.21,0,0,0-.12-.19l-.12,0a.23.23,0,0,0-.2.12c-2.25,4.25-9.72,17.06-14.29,20.13S5,118.09.22,118.5a.3.3,0,0,0-.17.08.41.41,0,0,0,0,.19A.23.23,0,0,0,.28,118.93Z"/></g></g></g></g></svg>