<?xml version="1.0" encoding="utf-8"?>
<!-- Generator: Adobe Illustrator 24.0.0, SVG Export Plug-In . SVG Version: 6.00 Build 0)  -->
<svg version="1.1" id="Layer_1" xmlns="http://www.w3.org/2000/svg" xmlns:xlink="http://www.w3.org/1999/xlink" x="0px" y="0px"
	 viewBox="0 0 295.1 350.4" style="enable-background:new 0 0 295.1 350.4;" xml:space="preserve">
<style type="text/css">
	.st0{fill-rule:evenodd;clip-rule:evenodd;fill:#231F20;}
</style>
<title>Asset 7</title>
<g id="Layer_2_1_">
	<g id="Layer_1-2">
		<g id="z2AjbRljRIpHwvpY-Qq6T">
			<g id="z2AjbRljRIpHwvpY-Qq6T-child-0">
				<path class="st0" d="M215.6,178.3c-88.6,11.4-97.8,81-107.1,171.6c0,0.3-0.3,0.5-0.6,0.5c-0.3,0-0.5-0.2-0.6-0.5
					C98.2,259.2,89,189.6,0.4,178.3C0.2,178.2,0,178,0,177.7c0-0.2,0.2-0.5,0.4-0.5C89,165.7,98.2,96.1,107.5,5.5
					c0-0.3,0.3-0.5,0.5-0.5c0.3,0,0.5,0.2,0.6,0.5c9.3,90.6,18.5,160.2,107.1,171.6c0.3,0,0.6,0.2,0.7,0.5c0,0.3-0.2,0.6-0.5,0.7
					C215.7,178.3,215.7,178.3,215.6,178.3L215.6,178.3z"/>
			</g>
			<g id="z2AjbRljRIpHwvpY-Qq6T-child-1">
				<path class="st0" d="M266.4,74.9C229.7,80.7,225,110,221,148.4c-0.1,0.2-0.3,0.4-0.5,0.4c-0.2,0-0.5-0.1-0.5-0.4
					c-4-38.3-8.7-67.7-45.4-73.5c-0.2-0.1-0.4-0.3-0.4-0.5c0-0.2,0.2-0.5,0.4-0.5C211.3,68.1,216,38.7,220,0.4
					c0.1-0.2,0.3-0.4,0.5-0.4c0.2,0,0.4,0.1,0.5,0.4c4,38.3,8.7,67.7,45.4,73.5c0.2,0.1,0.4,0.3,0.4,0.5
					C266.8,74.6,266.7,74.8,266.4,74.9z"/>
			</g>
			<g id="z2AjbRljRIpHwvpY-Qq6T-child-2">
				<path class="st0" d="M294.7,144.1c-13.4,2.9-15.9,13.9-17.6,28.3c-0.1,0.3-0.4,0.5-0.7,0.4c-0.2,0-0.4-0.2-0.4-0.4
					c-1.6-14.4-4.2-25.4-17.6-28.3c-0.3-0.1-0.5-0.4-0.4-0.7c0.1-0.2,0.2-0.3,0.4-0.4c13.4-2.9,15.9-13.9,17.6-28.3
					c0.1-0.3,0.4-0.5,0.7-0.4c0.2,0,0.4,0.2,0.4,0.4c1.6,14.4,4.2,25.4,17.6,28.3c0.3,0.1,0.5,0.4,0.4,0.7
					C295,143.9,294.9,144,294.7,144.1z"/>
			</g>
		</g>
	</g>
</g>
</svg>
