<?xml version="1.0" encoding="utf-8"?>
<!-- Generator: Adobe Illustrator 24.0.0, SVG Export Plug-In . SVG Version: 6.00 Build 0)  -->
<svg version="1.1" id="Layer_1" xmlns="http://www.w3.org/2000/svg" xmlns:xlink="http://www.w3.org/1999/xlink" x="0px" y="0px"
	 viewBox="0 0 179.1 107.7" style="enable-background:new 0 0 179.1 107.7;" xml:space="preserve">
<style type="text/css">
	.st0{fill:#231F20;}
</style>
<title>Asset 58</title>
<g id="Layer_2_1_">
	<g id="Layer_1-2">
		<g id="bd7a7efd-03dd-4fad-bcae-dca447f1546c">
			<g id="bd7a7efd-03dd-4fad-bcae-dca447f1546c-child-0">
				<path class="st0" d="M153.7,36.3h15.1c5.7,0,10.3-4.6,10.3-10.3V10.3c0-5.7-4.6-10.3-10.3-10.3c0,0,0,0,0,0H153
					c-5.7,0-10.3,4.6-10.3,10.3c0,0,0,0,0,0v15.1c0,5.7-4.6,10.3-10.2,10.3H118c-5.7,0-10.3-4.6-10.3-10.3c0,0,0,0,0,0V10.3
					c0-5.7-4.6-10.3-10.3-10.3c0,0,0,0,0,0H81.6C76,0,71.4,4.6,71.4,10.3v15.1c0,5.7-4.6,10.3-10.2,10.3c0,0,0,0,0,0H46.6
					c-5.7,0-10.3-4.6-10.3-10.3l0,0V10.3C36.3,4.6,31.8,0,26.1,0c0,0,0,0,0,0H10.3C4.6,0,0,4.6,0,10.3c0,0,0,0,0,0v15.8
					c0,5.7,4.6,10.3,10.3,10.3c0,0,0,0,0,0h15.1c5.7,0,10.3,4.6,10.3,10.3v14.5c0,5.7-4.6,10.3-10.3,10.3H10.3C4.6,71.4,0,76,0,81.6
					v15.8c0,5.7,4.6,10.3,10.3,10.3c0,0,0,0,0,0h15.8c5.7,0,10.3-4.6,10.3-10.3c0,0,0,0,0,0V82.3c0-5.7,4.6-10.3,10.3-10.3h14.5
					c5.7,0,10.3,4.6,10.3,10.3v15.2c0,5.7,4.6,10.3,10.3,10.3l0,0h15.8c5.7,0,10.3-4.6,10.3-10.3v0V82.3c0-5.7,4.6-10.3,10.3-10.3
					c0,0,0,0,0,0h14.5c5.7,0,10.3,4.6,10.3,10.2c0,0,0,0,0,0v15.2c0,5.7,4.6,10.2,10.2,10.3h15.8c5.7,0,10.3-4.6,10.3-10.2
					c0,0,0,0,0,0V81.6c0-5.7-4.6-10.3-10.3-10.3l0,0h-15.2c-5.7,0-10.3-4.6-10.3-10.2c0,0,0,0,0,0V46.6
					C143.4,40.9,148,36.3,153.7,36.3z M107.1,61.1c0,5.7-4.6,10.3-10.3,10.3c0,0,0,0,0,0H82.3c-5.7,0-10.3-4.6-10.3-10.2
					c0,0,0,0,0,0V46.6c0-5.7,4.6-10.3,10.3-10.3c0,0,0,0,0,0h14.5c5.7,0,10.3,4.6,10.3,10.3v0V61.1z"/>
			</g>
		</g>
	</g>
</g>
</svg>
