<svg xmlns="http://www.w3.org/2000/svg" viewBox="0 0 3333.33 2940.85"><defs><style>.cls-1{fill:#f0cb97;fill-rule:evenodd;}</style></defs><title>02bbaad7-0dd7-48cd-91c7-52f14ddf2ec7more fire</title><g id="Layer_2" data-name="Layer 2"><g id="Layer_1-2" data-name="Layer 1"><g id="_02bbaad7-0dd7-48cd-91c7-52f14ddf2ec7" data-name="02bbaad7-0dd7-48cd-91c7-52f14ddf2ec7"><g id="_02bbaad7-0dd7-48cd-91c7-52f14ddf2ec7-child-0" data-name="02bbaad7-0dd7-48cd-91c7-52f14ddf2ec7-child-0"><path class="cls-1" d="M3333.09,1591.23c2.44,12.06-14.22,5.24-17.25,4.63C3312.94,1583.93,3330,1590.52,3333.09,1591.23Zm-62,26.81c2.19,10.37,24.65,12.68,35.26,10.93,6.43-1.07,20-1.31,20.23-10.46C3308.74,1616.93,3293.67,1610.12,3271.07,1618Zm-122.13-421.48c5.24-.74,12,5.76,12.92-3.46C3156.59,1193.74,3149.78,1187.13,3148.94,1196.56ZM2802.28,161.06c15.38,5.74,60.49,4.39,58.94-20.94-15.91-1.11-54.71,3.15-58.76,21.22Zm365.86,1331.08c1.08,15.48,29.94,13.23,32.73,1.53-10.43-.93-19.32-5.34-32.56-1.25ZM2716.68,460l-116,31.09c-4.52,1.21-1.68,7,5.6,3.54L2675,476.18c25.75-4.27,45.24-15.63,68.72-18.42,12.18-1.4,25.47,2.82,37,.29,34.75-7.56,66.62-28.81,110.53-34.65,4.52-1.22,10.28-5.17,3-5.95C2828.5,440.07,2780.82,426.67,2716.68,460Zm368.64,774,2.55,9.5,8.58-2.3-2.55-9.5Zm42.32,381.51c2.08,12.92,12.51,9.8,21.08,9.69C3148.4,1608.84,3132.92,1622.3,3127.64,1615.5Zm-157.09-345.72c8,32.47,56,13.7,68.4-3C3013.28,1269.5,2991.2,1256.47,2970.55,1269.78Zm-249.22-1102,2.54,9.51,8.58-2.3-2.55-9.51Zm293.23,1335.64c4.13,2.51,24.3,6.2,16-9.42C3024.29,1496.17,3014.23,1496.24,3014.56,1503.38Zm8.34,99.76c7.94-.26,30.43,7.3,31.36-3.25-5.63-4.41-28.21-11.94-31.35,2.92Zm60.86,244.1c9.43.87,22.83,11.41,21.4-5.73-6.79,4.55-21.55-9.57-21.39,5.4Zm-76-214.52c-10.91,5.77,31.18,5.66,27.11-2.12-6.51-4.39-16.38-1.75-27.1,1.78Zm-105-237.21c6.23-.36,16-7.46,7.29-7.1-6.13,0-16,7.13-7.28,6.77Zm136.84,922.79c3.74,28.36,35.89,20,42.48,4C3069.62,2317.28,3059,2309.19,3039.65,2318.3Zm-216.51-825c-1.79-.39-4.54-8.09-6.82-8.47-14.09-1.7-28.05,6-44.24,6.82-20.07,1.1-43-9.62-54.11,4.31,44-6.31,88.28,25.42,128.84,1.19-8.74-8.28-14.84-2.27-23.72-4.05ZM2988.29,2230c4.35,25.46,24.94,19.28,45,13.46,3.14-1.94,4-5.34,1.79-10.67-12.78-10.05-32.11-18-46.87-3Zm-214.11-575.51c10.79-5.85,30.71,6.89,34.4-9.22-12.5,9-30.35-7.75-34.46,9ZM2948.32,2287c.16,10.92,9.1,8.52,12.41,12,1.95,2.11,6.88,16.46,9.43,17.85,5.13,2.9,15.38-6.42,18.44.21-9.52-18.59-18.41-37.35-40.44-30.68Zm-21-9.71c9.14,6.43,21.07,7.06,36.89.41-6.26-21.87-31.18-15.63-37.06-1Zm34.1,93,2.55,9.51,8.58-2.3L2970,2368ZM2714.8,1604.41c3.32,2.07,23.37,5.68,21.4-5.74-7,4.28-21.69-9.74-21.56,5.13Zm-96.19-341.67c10.1-1.39,15.81-5.55,14.58-14.2-8.53-6.37-20.78-.79-14.75,13.59Zm191.46,1127.05c-46.25,4.83-98.86,7-140.86,7.07-28.33.14-56.71,1.94-86.81,2.88-18.62.61-36.45-.64-55.4-.49-30.26.33-63.31,5.35-82.48,1.72-22.4-4.29-43.13-13.42-63.44-13.56-10.22-6-13.95-19.6-20.58-25.16-18.51-12.25-39.4-19-60.49-19.51-33.4,3.36-72.06,26.21-68.46,54.06,4.79,36,86.31,63.85,112,56.75,14.94-4,25.87-26.32,42.11-31.76a133.32,133.32,0,0,1,22.77-1c25.65.14,52-9,75.6-10.07a199.27,199.27,0,0,1,19.8,4.89,146.52,146.52,0,0,0,22.68-.93c32.5-.49,62.52-5,91.06-4a403.22,403.22,0,0,0,42.58,3.93c13.66-1,25-8,38.64-10.36,35.1-5.9,80.75.28,113.84-5,15.35-2.47,28.52-10.16,43-11.51,27.89-2.55,54.18,9.25,78.15-.57,3-1.91,3.94-5.21,1.69-10.64C2894.78,2370.92,2853.15,2385.26,2810.07,2389.79Zm-6.58-110.53c18.29,31.36,66.48,36,100.42,13.95C2893.83,2243.77,2823.61,2242.54,2803.49,2279.26Zm-339-802.56c16.61,42.44,66.26,19.27,109,11.55,11.13-2,18.26,9.13,21.49-5.76-47.83,6.36-78.1-21-131.15-5.39Zm228,490.17c14.1,6.52,17.5,0,28.37,2.58-2.9-16-30.58-20.07-28.68-2.28Zm-136.71-458.55c6.82-6.65,18.23,10.46,17.25-4.62-3.34-.31-20-7.13-17.56,4.92Zm-25.47,267.23c9.45,35.27,37.73,32.73,64.32,33.82,3.75-22.92,36.34-4.59,37.89-30.53C2606.39,1765,2555.61,1746,2530.32,1775.55Zm-107.56-246.81c21.13-.84,43.56-8.28,62.69-6.61,16.12,1.49,37.92,19.42,49.8-3.05-39.47,12.11-75.83-21.42-112.46,9.76Zm179,324.52,2.58,9.6,8.67-2.32-2.58-9.61Zm61.47,315.36c1.23,20.81,39.75,20.68,31.45-3.28-8.35-5.32-24.94-9.31-31.39,3.48Zm-184.94-553c9.6-8.05,24.36,9,25.73-6.9-3.83-2.48-26.63-3.82-25.63,7.31Zm203.8,726.28,2.57,9.61,8.58-2.3-2.58-9.61ZM2568,2087.22c-5.42,16.68,19.37,22.86,31.68,32.27,8,6.18,10.48,22.5,22.25,14.41C2608.65,2108.86,2593.39,2087.31,2568,2087.22ZM2682,2495.53l2.55,9.51,8.58-2.3-2.55-9.51Zm-267.19-790.91-8.57,2.29c-3.61,13.46,18.29,10,14.08,1.27-3.22.53-5.45.69-5.69-3.51Zm70.63,384.22c2.08,12.92,10.19,14,21.08,9.69-2.26-12.87-10.37-14-21.26-9.64ZM2570.9,2459c-22.13-.31-31.1-26.39-59.23-14.8,12.82,25.7,33.88,35.29,63,29Zm-191.3-628c4.74,1.79,18.76,6.91,11.63-8.27-5,2.33-12.59,2.83-11.73,8.62Zm-141.42-441.84c-.36,15.65,37.91,14.93,31.33-3.36-7.39-4.7-20.09.68-31.43,3.72Zm-8.51-48c-1.17,24.41,31.82,19.51,22.75-1.06A26.42,26.42,0,0,0,2229.67,1341.22Zm136.47,560.6c6-.74,10.37-6.29,10.27-12.94-8.22-5.58-18.6-3-10.38,12.53Zm-55.89-173.89c-2.55,15.58,23,8.73,12.91-3.46Zm97.68,433.17a19.83,19.83,0,0,1,14.2,1.35l-2.57-9.61c-7.72-4.07-12-2.7-11.74,7.86Zm-138-463.24c2.28,15.16,26,13.86,22.77-1a26.6,26.6,0,0,0-22.88.55Zm68.42,476.73c15.07,34.09,70.54,44.09,86.22,12.61-22.27-14.52-60.52-31.44-86.79-12.9Zm-79.45-330.81c-17.12,1.41-33.17,14.91-46,17.35,7-4.6,15,5.18,25.23,8.58,18.6,6,77.05,11.56,74.34-14.77-16.76-2.41-34.55-13.09-54.18-11.45Zm64.88,156.14c-2.34,16.73,30.85,16.28,22.66-1a26.59,26.59,0,0,0-23.23.75Zm93.55,332.19,2.55,9.5,8-2.15-2.65-9.91Zm-106.82-364.35,2.55,9.51,8.58-2.3-2.55-9.5Zm39.9,183.22c4.76,1.9,18.82,6.79,11.66-8.16-5.46,1.79-13.09,2.08-12.23,7.88ZM2124,1374.56l2.55,9.51c5.44-1.46,7.55,4.55,14.11,1.37l-2.55-9.51c-6.09.87-8.12-4.84-14.68-1.65ZM2122.38,1523c12.45,2.58,48.53-3.36,52.75-9-17-1-47.87-12.26-53.32,8.7Zm60,35-8.58,2.29c-3.59,13.56,18.32,10.1,14.11,1.37-3.32-.2-5.81.46-6.1-4Zm-89.61-211.2,2.54,9.5,9.23-2.47-2.55-9.5Zm-3.15,108.53,17.25-4.62-3.81-14.21c-11.56,1.13-21.88,3.56-13.39,18.27Zm-57.05-178.62c28.88-35.35-28.39-55.39-47.93-58.59s-19.13-9.77-35.19-11a18.85,18.85,0,0,0-17.16,4.59c12.54,23.92-8.42,26.14,4.1,50,25.06-10.11,35.36,8.38,47.66,22.94-19,5.09-6,32.84-30.57,23.53,6.31,26.13,43.15,2,48.52-7.85,7.38,9.85,22.57,4.91,37,.29a19.72,19.72,0,0,0-6.34-24.38Zm33.54,159.5c7.17,5,23,1.63,20.2-10.56-7.12-5.54-23-2.28-20.15,10Zm132.5,408.52c-21-16.29-35.91-11.52-67.81-12.51a325,325,0,0,0-47.09-2.72c-28.33,5-60.8,28.78-89,29-12.81.15-17.22-9.3-29.56-7.41,11.86,17-18,6.68-13.33,18.91a459.27,459.27,0,0,1,112.55-9.79c21.66,1.87,38.22,5.76,56.59,5.33,29.45-.77,47.31,4.63,69.66,1.71-.64-10.13,15.92-8.87,8-23.08ZM2053,1352.85l2.57,9.61,8.58-2.3-2.57-9.61Zm-2.2,26.11c4,2.54,24.24,6.33,15.9-9.29-6.1,2-16.65,2-15.9,8.53Zm-65.83-263-8.58,2.3c.77,2.86.77,5.82-3.07,5.86l2.57,9.61c2.58-.69,5.24-.74,5.6,3.54l8.57-2.3c-.76-2.86-.86-5.79,3-5.84l-2.58-9.6c-2.59-.08-5.19.18-5.45-4.13Zm-34-6.79c3.72.21,8.58-2.3,10,2.48,10.89-2.15,11.49-11,13.32-18.9C1967,1079.65,1938.54,1087.06,1951,1109.14ZM2444,2931.88c-3.36,15.15,22,8.25,18.54.19C2456.34,2932.09,2452.55,2927.52,2444,2931.88ZM2036.64,1377.16c-14.2-1.34-4.83,12.25-3.49,21.31l13.19-3.53A29.5,29.5,0,0,0,2036.64,1377.16Zm193,754.7,2.55,9.5,8.58-2.3-2.55-9.5Zm146.39,700.91c2.14,12.79,7,20,18,15.55C2391.92,2835.53,2387,2828.3,2376.05,2832.77Zm-18.38-51.28,2.57,9.61,8.58-2.3-2.58-9.6ZM1871,1171.44c3.59.13,6,2.65,6.88,8.34,11.35-3,25-4.73,28.78-12.86C1896.41,1142.72,1876.18,1152.08,1871,1171.44ZM1949.83,1431c6.73-1.81,15-3.37,10.27-12.94C1954.07,1418.79,1949.73,1424.33,1949.83,1431Zm-125-328.91c10.6,15.57,21.37,30.65,40.29,30.07C1859.41,1106.84,1838.92,1110.79,1824.82,1102.08Zm449,1727.4c-5.93,20.65,10.95,48.23,33,37.17C2305.71,2847.34,2291.53,2831.31,2273.84,2829.48Zm-393.67-1400.2c11.51,1.62,16.56,16,34,6.22C1914.16,1411.51,1880.24,1408.88,1880.17,1429.28ZM1801.05,1134c8.57-2.3,9,11.5,19.82,5-.34-6.81,3.62-10.83-.88-20.25C1809.19,1120.84,1798.9,1123.38,1801.05,1134Zm41.18,188c.25,20.86,35,11.11,31.36-3.25C1865.65,1313.1,1848.72,1309.31,1842.23,1322Zm144.38,487.17,3.83,14.31,12.91-3.46-2.54-9.51c-5.65,1.08-7.67-4.63-14.23-1.44Zm184.68,654.93-8.58,2.3c-3.49,13.54,18.33,10.1,14.18,1.24-2.76.41-5.27.65-5.63-3.64ZM1521.63,91.2l2.55,9.5,8.67-2.32-2.55-9.51Zm338.15,1450.9c10.24-2.74,27,18.84,32.62,1.45-10.58-1.88-32.05-24.06-32.64-1.55Zm-65.37-278.28,2.55,9.51,8.58-2.3-2.55-9.5Zm108.31,455.86,2.55,9.51c4.33-1.16,6.2,2.5,10,2.48-1.65-6.13,3.66-8.1.4-15.45Zm-287.67-1005,3.84,14.31c7.65,14.17,3.35-10,.5-15.47,1.5-12.12,8.85-20.45,3.89-36.76-10.84-.6-15.68-12.77-26.52-13.38,7.34,22.25,9.76,23.14,18.18,50.89ZM1647,833.79a73.64,73.64,0,0,0,8.52,48.77c-5.85,15-3,55.58,9.19,69-5.45-28.45,10.39-43.1-1.93-76.17,1.63-9.42,6.61-16.67,6.44-27.25-7.71-4.07-14.26-11.19-22.33-14.73Zm72,251.21c-6.53,1.09-11.63,6.4-12.79,13.5a19.39,19.39,0,0,0,7.54,18.58c6.18-1.66,10.86-7.08,12-13.95a20.33,20.33,0,0,0-6.84-18.54Zm-75.29-281-3.84-14.31c-2.21-5.32-3-13.66-8.14-13.05,4.6,7.21,2.2,28.88,11.87,27Zm116.93,591.36c-2.11,19.41,38.72,13.51,31.45-3.27-7.49-5.45-20.09-.1-31.56,2.87ZM1536,557.22c.11,14.43,9.4,10.74,10.72,22.66a42.09,42.09,0,0,0,16.39-24.77,17.2,17.2,0,0,0-14.31-6.58,15.92,15.92,0,0,0-12.91,8.28Zm163.34,609.6,2.44,9.1,8.49-2.27-2.55-9.51Zm177.37,661.94,2.54,9.51,8.49-2.28-2.55-9.5Zm-152.15-516.53a29.71,29.71,0,0,0,9.37,18c11.73-1.61,12.33-10.42,7.79-22.57Zm237.78,870.45c-1.64-6.14,3.76-8.13.51-15.48-12.47-4.1-8.2,20-.4,15.88Zm-17.15,4.59,2.55,9.51,8.57-2.3-2.54-9.51ZM1834.12,1962.1c6.92,4.06,36.42.54,38.74-10.38C1861.63,1946,1837.18,1944.74,1834.12,1962.1Zm-428-1702.24c-1.64-6.13,3.66-8.1.5-15.47C1393.55,239.67,1397.38,264.28,1406.08,259.86Zm83.13,396.22,2.58,9.61c4.33-1.16,6.08,2.42,9.84,2.4-1.62-6,3.78-8,.5-15.47Zm335,1319c1.73,11.26,5.84,17.72,13.7,16.82,4.48-8.76-1.36-22.42-14.07-16.72ZM1281.41,2.3l2.55,9.5,8.58-2.29L1290,0Zm526.7,2069c-2.52-9.4,10.1-9.17,3.49-21.31C1801.14,2048.94,1798.57,2072.19,1808.11,2071.28Zm63.38,253.5,2.68,10,8.21-2.2-2.74-10.22ZM1261.67,135.22c15.63,1.18,22.22,9.16,24.53-11.73C1279.19,118.36,1258.45,122.49,1261.67,135.22Zm530.18,1961.34,2.58,9.61,8.57-2.3-2.57-9.61ZM1403,801.67l-8.58,2.3c-3.58,13.55,18.33,10.09,14.11,1.36C1406.38,805.9,1404.07,805.76,1403,801.67Zm214.75,835.75c4.73,1.8,18.82,6.79,11.53-8.24-4,1.85-11.93,2.32-11.07,8.11Zm159.21,559.88-8.58,2.29c-3.61,13.46,18.33,10.1,14.08,1.27-2.23.16-4.49.22-5.56-3.77Zm-19.3-20.36c1.71,11.16,5.81,17.61,13.68,16.71-.62-13,2.82-20.8-13.27-17ZM1178,117l2.55,9.51,8.67-2.32-2.55-9.51ZM1131.7,98.83c3.61,21.93,26.7,9.61,21.49-5.76a15.27,15.27,0,0,0-21.08,5.43Zm489.11,1808c-5.51,10.79-5.35,24.33.35,35.62,3.62.24,8.39-2.24,9.86,2.51,15.59-4.18,14.7-19,8.23-37.92-7.33,3.28-10.07-2.89-17.93-.12ZM1359.58,966.23l-8.58,2.3c-3.59,13.56,18.32,10.1,14.11,1.37-2,1-4.75.72-5-3.59Zm159.64,937.83c30.76-11.75,69.28.28,91.47-19.47C1579.65,1896.41,1542.45,1882.28,1519.22,1904.06ZM1109.48,48.37c-11.73,1.61-12.33,10.42-7.82,22.47,11.64-1.59,18-6.68,13.44-18.83C1112.27,52.11,1109.77,52.78,1109.48,48.37Zm521.05,2116.5a9,9,0,0,0-9.79,6.24,11.05,11.05,0,0,0,3.28,12.27,9,9,0,0,0,11.61.51C1631.5,2171.08,1640.25,2172.35,1630.53,2164.87ZM1017.14,47.58l2.54,9.51,8.67-2.32-2.54-9.51ZM1492,1905.87c3.23-.1,24.56-8.34,11.65-8.17C1486.2,1897.79,1482.87,1906,1492,1905.87Zm-146.36,3.5c-.64,15-9.8,26.51,8.93,33.32,7.38-9.32-8.54-10.09.4-15.45,37.44-12.66,85.25-7.28,113-25.12C1431,1900.1,1362.22,1931.67,1345.67,1909.37ZM1204.56,987.61c4.82,1.77,18.82,6.79,11.63-8.26C1211.33,981.52,1204.07,981.72,1204.56,987.61Zm-264.7-955c-3.93,7.84-1,19.21,9.34,17.87C952.48,42.78,949.44,31.43,939.86,32.58Zm280.28,1201c8.48,5.84,26.4.38,19-15.29-4.64-3.68-10.82-3.89-15.23-.41a14.53,14.53,0,0,0-4.17,15.8Zm-148-225.79c7.81,0,42.8,5.51,34.4-9.22-12.91,9.38-30.73-7.32-34.77,9.32Zm227.12,1036.53c18.27-15.19,40.94,13.68,62.68-6.61-7.39-44.57-65.25-25.13-63,6.71Zm-12.18-114.07c-2.8,16.09,25.57,6.52,22.75-1-10.18,4.81-11.73-6.17-23.12,1.15Zm-282-1016.77,2.55,9.5,8.57-2.3-2.54-9.5Zm242.14,1007c6-.74,10.49-6.21,10.36-13C1249.46,1902.28,1239.07,1904.85,1247.2,1920.42ZM988,1193.64c11.44-3.06,26-4.11,23.19-16.4C1001.79,1168.36,976.61,1169.2,988,1193.64Zm179.42,686.91,2.54,9.51,8.67-2.32-2.54-9.51Zm-99.69-269.08c.54,18.59,26.19,13.25,22.75-1-9.86,4.5-11.69-6.4-22.8.85Zm103,350.14,2.54,9.5,8.58-2.29-2.55-9.51Zm-272-963.28c-.73-7.15,4.93-10,4.83-16.63-10-2-16.11,17.35-4.89,16.42Zm230.72,964c-10.91,5.78,31.15,5.57,27-2.09-6.61-4.36-16.91-1.49-27.08,1.89ZM754.74,546.68c.75,23.46,23.29,18.3,18.51.08C767.06,546.89,763.23,542.21,754.74,546.68Zm282.87,1072.65c6.14-.33,16-7.47,7.29-7.11C1038.67,1612.58,1029,1619.66,1037.61,1619.33ZM732.49,532.27c6.76,11.55,23.32-9.65,6-11.91C735.52,520,731.22,530.09,732.49,532.27ZM813.58,903.5c-10.84,15.62,21,31.41,26.58,13.26C825.76,923.14,822,908.93,813.58,903.5Zm306.25,1143c6-.74,10.38-6.29,10.28-12.94C1122,2028.35,1111.61,2030.91,1119.83,2046.46ZM1147,2131l2.57,9.61,8.49-2.28-2.58-9.61Zm-377-1338.29c11.72-1.61,8.32-13.19,7.81-22.47C762.92,770.17,776.31,787.29,770.05,792.69Zm312.1,1182.14,2.58,9.61c4.33-1.16,6.18,2.4,9.83,2.4-1.64-6.13,3.79-8,.51-15.47Zm-80.93-285.06,2.55,9.5,8.58-2.3-2.55-9.5Zm4.6,34.48,2.65,9.92c5.54-1.49,7.64,4.52,14.2,1.34l-3.83-14.31ZM792.71,928.92c4.86,7.8-7.23,23.2,6.38,23.82-.77-2.86-.86-5.79,3.08-5.86,1.9,3.43,2.52,9.4,6.79,8.37-9.58-16.17-1.39-21.76-16.11-25.81ZM782.46,942c-3.42,20.42-.72,18.71,8.93,33.32,6.06,9.33,4.19,20.79,13.67,16.71,2.93-19-13.22-32.39-22.46-49.52Zm223.3,833.35c4.76,1.9,18.73,6.81,11.56-8.14-4.65,2.56-12.26,3-11.43,8.65ZM714.51,791.68c-15.86.2-17,10.26-23.28,16.43,6.93,19.94,25.83,32.19,44.62,28.91-1.08-23.6-10.59-24.77-21.2-44.83ZM657.42,664.56c-1.51,9.5-8.73,15.38-.91,30.92C693.87,710.23,697.48,648.79,657.42,664.56ZM948.51,1699.29l2.58,9.61c5.44-1.46,7.52,4.45,14.08,1.26l-3.84-14.31Zm-36.5-16c6.22,0,10,4.67,18.44.2l-5.09-19C913.77,1666.31,907.34,1671.43,912,1683.33ZM642.73,627.09c-13.61-6.87-29.13-4.68-39.93,5.55-1.42,45.63,59.88,33.47,40.09-4.94Zm248.76,979.68,2.55,9.5c7.51,3.69,11.79,2.32,11.53-8.24-5.36,1.77-7.35-3.83-13.91-.65Zm59,203.29,2.55,9.51,8.58-2.3-2.55-9.51ZM578.22,558.27c4.83,1.77,18.82,6.78,11.63-8.27C584.78,552.13,577.45,552.45,578.22,558.27ZM888.07,1817.59l2.55,9.5,8.58-2.3-2.55-9.5ZM664.24,1188.48l12.82-3.44-3.8-14.21C663.69,1172.41,660.65,1178.38,664.24,1188.48Zm-13.41,18.93c11.73-1.61,12.36-10.32,7.82-22.47C642.2,1185.18,640,1200.79,650.83,1207.41Zm-42.08,169.47c21,4.56,35.4,24,51.94,21.91,16.61-2.92,30.68-14.25,37.86-30.64-.49,1.12,7.06-10.54,7.31-7-1.55-30.14-24.73-32.92-66.11-23.14-10,9.24-7.27,26.7-18.09,35.41-15.4-11-23.67-36-42.83-39.58-19,7.49-18.22,27.56-8.73,53.39C587.68,1374.64,597.51,1374.41,608.75,1376.88Zm216.49,498.41,2.55,9.5,8.57-2.3-2.54-9.5ZM658.35,1287.12l3.75,14,12.91-3.46-3.8-14.2Zm-10.23,150.75c.44,6.78-3.65,10.72.76,20.17a14.78,14.78,0,0,0,13.84-4.8,17.94,17.94,0,0,0,3.82-15.27C658.72,1441.27,655.71,1435.18,648.12,1437.87ZM460.54,737.8c1.29,4.81-2,6.56-1.79,10.67,4.34-1.16,6.21,2.5,9.84,2.4-1.26-4.7,2-6.56,1.79-10.66C466.07,741.47,464.29,737.78,460.54,737.8ZM404.3,1370.2c-3.64,13.36-10.57,24.74-1.41,46.39C458.56,1446.15,477.86,1333.73,404.3,1370.2Zm-59,72c13.31-5.65,24.41-1.5,34.4-9.22-1.4,1,3.31-6.47,3-5.94,2.32-4.24,4.23-2.67,7.32-7,14.55-19.46-12.81-55.18-33.76-57.34-6-.59-19.67,8.12-33,14-31.06,13.59-50.08,31.17-45.71,53,2.33,11.64,12.77,18.49,27.37,33.52,17,2.24,26.81-15.07,40.49-20.81ZM185.54,1342.6c2,15.47,9.39,20.27,22.28,14.52a15.57,15.57,0,0,0-5.23-19.53,12.06,12.06,0,0,0-17.59,4.83Zm-52.82,9.11c-11.73,1.61-12.36,10.33-7.82,22.47l16.61-4.44a29.89,29.89,0,0,0-9.33-18.21ZM12.27,1434.93c-20.11,5.39-13.75,29.1,6.41,23.92a20.32,20.32,0,0,0-6.95-24.1Zm2926.81-95.15c-3,2-8.39,2.25-7.29,7.1-2.39.64-3.84,5.19,1.29,4.8,10.06-13,11-7.55,17.66-20.06-3.3,6.14-5.62-18,6.12-11.83-4.22-15.74-17.17-15-31-12.2-7.12,12.54,3.91,27.11,12.63,32Zm-83,68.26c-26.51,4-35.16,19-46,17.36-4.83-.68-6.3,6.72-7.29,7.1-31.53,11.08-47.5,25.65-69.22,33.88-9.78,3.72-21.76.68-31.45,3.28-26.19,7-47.57,27.21-74.74,30.22-6.51,3.38,1.83,6.84,9.86,2.5,9.23-2.47,17.48-5.23,25.83-6.92,14.61-3,32.84,1.17,45.44-2a75.42,75.42,0,0,1,1.78-10.67c3.71-2.42,6.67,3.47,9.84,2.4a53.89,53.89,0,0,0,27.52-17.56,113,113,0,0,1,56.4-30.45c14.29-2.73,35,9.78,52.35,6.46s35.33-6.84,42.19-31.79a188.94,188.94,0,0,0-43.09-4ZM2880.74,1605c9.49-1.45,35.13,3.08,35.69-4.41C2907.42,1600.89,2885.09,1590.22,2880.74,1605ZM1307.33,924.36c2.19-1.79,2.53-9,6.09-11.93,10.1-8.08,30.13-10,46-17.36,36.13-16.8,76-41.17,106.6-48.94,1,5.77-4.78,12.78,3.81,14.21,11.5-6.15,19.42-16.82,30.6-23.43a129.27,129.27,0,0,0,11.62-8.26c5.08-1.36,8.38,5.42,14.2,1.34,4.06-3,1.66-9.32,10.25-13,10.75-4.53,24-3.9,34.4-9.22s18.11-15.81,30.6-23.43c28.67-16.22,69-28.22,95-40.78,12.17-5.88,22.17-16.89,31.86-18.72,23.52-6.3,40.87,4.93,52.41,6.33,28.38,3.35,72.87-19.52,90.21-24.17,8.67-2.32,16.33,2.31,22.78-1a94.33,94.33,0,0,0,23.16-16.51c20.56-38.37,71.77-35.77,108-44.16,11.44-3.06,21.62-11.16,33.12-14,14.66-3.93,30.19,2,45.53-2s33-17.82,49-23.32c5.26-1.41,7.37,3.17,14.2,1.34s6-8.29,15.87-9.4,19.35,4.34,28.28,2.61c5.72-1.53,6.64-7.69,16-9.32,57.89-10.48,121.16-42.22,184.47-49.43,13.22-1.57,24.91,3,36.95.28a177.23,177.23,0,0,0,24.45-11.69c23.58-9.39,50-9,74.34-14.77,16.41-4.4,31.81-17.4,47.31-12.68-2.23-12.77-16-8.2-25.32-8.55-11.39-.46-25.79,7.78-32.62-1.45a153.65,153.65,0,0,1-27.24,17.49c-19.87,7.4-31.5-1.32-41.29.87-7.47,2-17.35,9-24.47,11.6-25.41,9.21-50.61,17.39-63.28,22.1-51.61,19.53-99.88,18.33-131.68,25.1-44,9.26-85.34,26.48-124.61,33.39-5.54,1.48-7.08-2.82-14.11-1.37-50.19,10.82-105.7,28.32-144.41,28.5-1.29.35-9-7-11.12-7.21-10.16-1-24.91,6.68-35.69,4.42-4.13-.65-11-10-16.75-10.85-4.19-.52-19,8.38-25.73,6.89-1.34-.19-1.33-8.62-2.55-9.5-6.19-3.93-24.56,11.29-28.78,12.86-22.58,8.35-51.15,10.2-68.81,18.44a107.58,107.58,0,0,0-40.94,36.49c-2.12,2.76-5.67,5-7.29,7.1a226.76,226.76,0,0,1-63.84,52.82,405.58,405.58,0,0,1-79.09,31.38c1.7-3.63,4-25.28-6.38-23.81,5.2,25.66-9.35,38.88-34,44.84a39.93,39.93,0,0,0-17.51-31c-22.94,2.21-3.17,32.07-16.8,40.22-20.89,26.08-72,41.2-109.75,54.93-21.06,7.73-39.74,22.48-69.12,33.86-14.62,5.56-42.19,17.44-46.06,17.38-17.81-.05-28.25-20.58-39-25.26-5.69-2.42-15.68,7.49-15.46-6.05,32.05-23.92,98.48-25.4,90.36-75.26-18.27-25-44.87-2.55-66.52-7.7-9.9-2.28-15-9.67-22.25-14.42-12-7.75-10.82-6.08-18-15.65-5.49-7.19-22.17-9-26.59-13.26,14.11,34.57,72.77,41.74,50.07,83.54,7,8,21.52,1.36,29.56,7.42,1.18,10.64-11.37,16.19-17.65,20.07A104.2,104.2,0,0,1,1220.73,876c-15.63.36-74.45-45.78-79.31-55.43-9.58-18-3-42.25-11-58.17-6.84-13.73-21.65-19.18-29.16-22.86-30.1-14.94-62.94-28.28-94.89-10.29,17.9,39.9,47.87,56.19,81.92,64.81,2.57,18.81,11.28,15.17,19.2,20.38,11.22,7.19,19.84,12.43,28,18,5.82,4,9.36,13.92,13.67,16.71,8.67,5.78,20.89,6,30.83,12.12a61.15,61.15,0,0,1,24.91,24c-31.07,18-67.87,26.73-99.38,42a422.46,422.46,0,0,0-100.22,72.76c-23.64,3.26-46.75-26.91-69.66-1.72,14.28,34.09,45-8.77,66.52,7.71-16.28,34-42.88,61.33-45.76,104.06-18,12.06-16.29,26.28-19.86,46.19-1.73,9-11.37,12.9-2.28,26.14,38.74,13.61,16.41-18.43,19.44-30.74-.34,1.3,7.77-7.89,7.29-7.1,2.47-3,5.63-3.7,7.32-7-10.87-31.71-4.28-36.65,3.22-57,1.74-5,2.8-11.7,4.75-16.61,4.61-14.16,12.6-19.37,19.44-30.73,10.64-17.86,23-42.21,42.61-47.24,18.89,35.47,39.92,67.08,53.4,113.32-22.5,24.87-46.74,51.74-70.66,80.17-36.33,43.37-80.62,85-75.55,147.87-37.44,21.87-46.84-22.83-74.78-20.82-42.94,3.18-39.22,54.33-81.78,73,9.86-7.13,10.73,3.15,15.46,6,1.94,1.34,6.47-3.16,8.58-2.3,16.25,6,29.73,19.09,37.33,36-40.09,8.66-66.26-4.16-96.68.38a19.9,19.9,0,0,0-8.34-12.67,16.05,16.05,0,0,0-13.94-1.85c-3.75,8.13-19.5,8.4-23.25,16.53,9.7-17.28-20.39-27.4-26.61-13.36,1.11,14.49,17,8.92,21.08,9.69,1.48.37,5,7.64,6.79,8.37s6.27-2.78,8.67-2.32,5.1,7.61,6.82,8.47c17.31,8.18,20.33,2.11,31.33-3.36,23.4-11.53,31.3-1.59,46.81,2.8,10.73,3.15,20,3.63,29.66,7.39,24.69,9.49,48.68,31.87,68.57,32.68,35.48,1.44,74.5-22.27,113.05-25.26,6.11-.43,10.71,5.68,15.46,6,15.14,1.53,34.65-8.3,48.51-7.85,7.37.21,15.16,9,21,9.71a121.52,121.52,0,0,0,27.09-2.22c34.24-5,48.7-7.13,73.81.6-29,15.87-42.48,42.94-74,50.5-11.9,3.18-31.58-1.62-46.82-2.8s-25.11.38-36.86-.31c-1.66.45-8.72-7.08-11.22-7.18-20-.89-37.16,6.67-54.1,4.31-6.77-.93-11.11-9.73-19.71-4.91-3.75-17-18.67-11.76-24.82-24l-43,11.51c-5,7.35-1.92,19.8-6.53,27.28-30.58-3.42-59.34-.1-83.77-3.08a67.57,67.57,0,0,1-14.08-1.27c-4-1.43-7.65-7.15-11.22-7.18,1-.27-3.52,6.42-7.32,7-12.44,1.91-30.14-3.65-42.48-4-19.9-.48-40.08,3.51-59.73.66-8.32-1.16-12.51-7.6-21-9.61a103.81,103.81,0,0,0-24.07-3.85s.77,5.82-3,6c-15.24.68-37.23-2.41-46.82-2.8-22.83-43.51-81.62-27.53-75.6,10.07,3.91,23.82,31.3,36.75,54.46,31.31,16.86-3.86,20.9-32.66,43.51-26.88,9.07,70.75,51.48,32,85.72,28.08,10.53-1.29,18.23,6.07,29.63,7.29,13.3.93,26.3-6.28,40-5.58,11.63.61,23,9.73,35.16,11,8.76.94,18.07-2.32,27-2.1,49.76,1.24,91.17,5.59,136.18,9.42,29.77,3,54.87,6.66,80.63,9.07,7,.64,13.18,3.81,19.8,4.88s20.06-11.84,19.7,4.91c-25.78,14.47-68.48,33.69-88.16,49.15-7,5.5-22.34,7.41-17.66,20.07,12.19,1.22,18.44-12.72,27.52-17.56s20.83-3.07,30.07-8.06c17.27-9.34,29.12-30.81,49.52-38.79a57.14,57.14,0,0,1,39.9-5.66c2,7.57-9.87,6.7-4.74,16.61,11.3,9.35,31.82.68,40.78,14.6-1.12,44.12,26.48,50.09,48.46,43.21,12.38-4,17-29,35.31-40.13,23-14.06,36.49-11.42,57.09-10.15-27.91,29.39-48.7,66.18-82.35,87.8-8.37,5.64-24.81,6.65-33.12,14-1.22,1-4.09,9.42-6,11.8-17.35,21.2-28.4,31.61-31.5,54.35-.76,5.68-4.55,12.17-4.75,16.61-2.36,49.49,40.34,71.57,77.5,66a106.51,106.51,0,0,0,63.71-37.45,35.1,35.1,0,0,0,7.79-22.57c.17-1.58,6.68-5,7.32-7,5.56-18.36-9.29-45.38-8-64.24,1.86-25.91,48.11-106,58.68-107.52a69.28,69.28,0,0,0,11.22,7.18c10.81,3.46,20.53,2.83,23.53,19.22-13.11,6-18.18,24.37-31.09,38.9-9.48,10.75-16.29,13-21.9,21.2-9.07,13.39-27.58,53.51-27.68,68.66,0,12.06-1.78,37.61,15.82,41.66-12.63-13.92-5.16-22.94-4.69-34.46,1.18-27.7-1.9-29.94,11.27-43.88a511.55,511.55,0,0,1,67.2-58.76c4.56-11.41,5.59-25.27,19.36-30.71,12.86,6.3,35.38-6.3,52.91-9.14,4.64-7.38.62-20.54,12.06-23.61,13.08,11.94,27.64,2.45,42.48,4,22.32,2.12,43.47,6.53,66.61,7.67,16.35.88,34.69-.42,51.06,1.66a116.39,116.39,0,0,1,21,9.61c17.81,1.15,35.79-6.63,54.11-4.31,6.66,14.54-4.08,16.87,6.38,23.82,19.49-2.92,16-14.25,17.69-20,18.27,6.94,35.85,1.35,55.46.37,6.19-.13,12.42,4.67,19.73,5,19.25.65,45-1.76,55.36.39a257.21,257.21,0,0,0,71,6.52c34.55-.93,66.41,3.24,97.88,4.45,27.65,1,56.22-2.69,82.48-1.73,11.18.4,36.36,15.45,45.53-2-80.38-.37-157.7-6-237.11-7.9,2.27-16.27-3.78-21.88-13.17-32.18-15.52-5.15-21.34,10-24.54,11.72-6.78,3.46-15.74-15.94-14.11-1.36,6-5.23,12.95,20.63,5.1,19a26.39,26.39,0,0,0-22.75,1.05c-1.52-14.16,20.58-12.85,9.49-33.21-13.08-5.26-14.75,11.73-19.71-4.91-1.54-10.54,13.51,3.94,10.37-13-17.38,1.92-14.45,16.91-26.33,22.39-3,18.77,21.06,20.65,12,27.36a363.53,363.53,0,0,0-97.85-4.35c-13.75-31.37-47.5-23.42-63.91-49.26,15.86-.2,14.62-11.48,28.78-12.86-3.89-14.52-2.53-25.29,5.27-32a109.94,109.94,0,0,0,59.73-.67l3.81,14.21c6.54-1.75,8.45-11.25,14.6-14.1,21.44-10,33-2.48,49.87-3.17,42.68-1.58,93.76-8.69,124.9,2.35l5.09,19c-3.8,10.54-27.51,8-31.77,18.7,4.09,20,10.62,17.09,8.93,33.32,17.66,2.06,12.86-10.68,14.61-14.11.72-1.39,23.07.51,23.19-16.4s-11.13-12-11.91-27.48c34.51-33.9,84.71-4.84,129.73-14.28l25.83-6.92c-2.1-10.39-15.92,1.86-22.78,1-28.73-2-58.89-3.94-79.43-4.24-10.73-.2-22.53,4.5-31.43,3.38s-16.07-8-25.32-8.55c-7.76-.55-15.3,1.57-22.69.93-17.16-1.32-52-.09-65.32-2.88A460.06,460.06,0,0,0,1792.6,1498c-11.42-.55-24.21,5.94-31.33,3.36-4.19-1.62-.67-8.8-6.88-8.34-4.49.21-14.89,9.35-20.23,10.46a228.62,228.62,0,0,1-49.77,3.14c-10.44-20.86-3.12-43-14.05-52.43,10.14,7.58,23.51,6.19,31.36-3.25,10,7,22.41,9.87,32.2,16.89,16.19-9.7,22.36-27.24,47.73-28.12,14.8-.47,38.17,28.44,58.73,30.27,16.88,1.39,33.67-12.31,47.22-12.65,23.23-.75,28.82,12,46.38,18.14,19.93-8.63,32-1.8,43-11.52,12.58,23.69,28.88,1.13,45.53-2,13.19-2.44,25.86,11.26,36.86.31,12.52,3.55,23.94,35.1,33.5,21.7-11.15-15.42-27.18-25.8-44.62-28.91-15.08-.56-31.55,8.45-48.49,8-7.22,0-17.5-8.12-25.32-8.55s-15.24,6.6-25.83,6.92c-18.55.48-48.27-10.07-66.52-7.7-14,1.77-28.73,11.2-38.65,10.36-28.65-2.52-53.82-35.21-77.32-30.34-12.28,2.53-20.51,17.55-31.86,18.73-10.73-11.26-26.4-7.39-33.47-21.6-2.21-4.56,3-25.57-5.88-39.29,8.11,5.17,14.64,0,10.37-13-19.47-1.8-11-10.63-20.58-25.16-5.14-7.72-13-5.49-13.68-16.72,9.26-21.54,8.68-49.54,17.81-71.16,23.44-1.79,15.52-24,27.93-33-13.81-7.26-23.77-7.55-33.37-21.63-16.38-24.2-11.34-64.44-23-85.75,11.68-25,11.76-57.93,1.49-97.36,3.32-14.91,11.55-26.65,11.28-43.88-9.36-1-6-26.88-16.25-26.32,10.6,10.41-1.72,17.55-2.2,26.11-.33,6.12,5.46,13,5.13,19.11s-6.53,7-6,11.81c0,0,8.18,5.47,8.07,13.17s-6.11,17.41-6.44,27.25c-.31,6.22,5.13,12.87,5.1,19-.06,2-6,9.18-6.13,11.83-.37,16.32,3.19,33.66,4.19,49.93.44,1.64-5.1,14.19-4.74,16.61,1,7,12.05,16.6,6.38,23.82-9.48-8.42-26.23-2-35.19-11.06l-5.1-19c-19.64-5-35.61-17.41-41.13-50.22-11.69-6.73-10.48,14.42-19,15.27-1.57.42-10.22-10.85-12.41-12-8.41-4.1-15.18-1.3-19.7-4.91a67.29,67.29,0,0,1-23.11-34.56,23.18,23.18,0,0,0,15.87-9.4c14.85,8.18-.08,32.89,15.81,41.67,35.19-.78,15.77-37.09,32.8-49.54,9.52-9.13,10.17-13.69,24.44-11.7-3.16-24.35,32.41-23.69,11.78-59.36a62.33,62.33,0,0,0-60.14,16.11c-13.66,16.16-3.69,39.34-13.06,54.56a168,168,0,0,0-50.27,18.62,119.2,119.2,0,0,0-46.32-18.27c-16.27-3.53-32.25-18.53-49.36-12.3-9.94-8.29-14.8-8.74-18-15.55-4.24,17-20.45-2.52-31.33,3.36-1.1-5.95-7.07-1.29,0,0,14.64,1.11,27.33,12.72,30.85,28.43-5.78-21.57,13.55-1.44,24.45-11.7,1.64,6.13-3.69,8-.41,15.45,13.28-11.67,39.17,2.65,48.08,7.49s30.76,4.14,32.11,16.92c-20.86,2.2-25.64,15-40.34,21-4.23-6.21-1.62-26-10.72-22.65-2.74,9-10.21,15-18.91,15.36-9.7-5.94-.5-17-9-33.42-15.91,11.82-42,8.72-54.61,19.78-1.13,1-.61,9.15-1.69,10.64-3.32,4.61-9,3.19-11.63,8.27-1,2,2.83,7.24,2.55,9.5-1.81,12.43-8.91,6.22.76,20.18,8.21,11.82,2.74,10.22,5.12,19.11a86.18,86.18,0,0,1,8.14,13c8.94,17.87,37.95,26.53,36.83,51.48-23.73,14-5.35,9.54-25.83,6.92a171.92,171.92,0,0,1-16.39,24.77c-8.78,8.92-14.46,16.14-28.81,12.76a116.33,116.33,0,0,0,.93-30.82c-38.68-6.39-51.82-62.8-76.58-96.92a155.6,155.6,0,0,0-7.49-79.61c-14.64-7-38.6,3.55-46.38-18.14,12-11.75,19.12-28.24,19.85-46.18a249.46,249.46,0,0,1,59.44-36.41c16.58,6.51,28.75,21.33,35.54,46.67-12,4.08-30.51,3.8-27.52,17.57,11.25,5.09,24.54,5.25,29.16,22.86-1.17,21.46-26.33,27.54-39.58,41.17,4.36,13-2.26,53.19,18.29,51.3,17.6-8.11,4.79-19,9.58-33.24,8.62-25.76,35.34-50,35-75.76-.36-18-15.49-30.9-9.78-53.47,15.68-4.2,28.12,21.17,38.24,5.09-2.19-20-11.46-26.18-15.84-41.77a26.42,26.42,0,0,1-22.75,1.06c-9.4,4.38-.62,20.54-6.44,27.25C1285.92,932.28,1296.26,933.24,1307.33,924.36ZM1219,886.79c6.84,15.59,20.3,18.23,24.39,39.37-20.89,18-58,25.41-80.87,42.05-10.82-17.48-30.06-18.46-38.5-40.74C1160.68,917.2,1183.11,897.61,1219,886.79Zm434.33,434.78c7-15.67-13.88-21.15-18.77-35.72,1.7,20.36,28.18,47.23,23.51,70.39-7,6-15.76,10.9-17.75,20.09,8.71,14.43,26.56,11,40.78,14.6,10.42,25.58,19.85,37.19,0,51.07l-9-33.53a43.38,43.38,0,0,0-29.66-7.39c-7.09-21.32-40-31.78-65.58-38.52.14-25.67,23-43.86,38.8-61.45,4.1-4.6,4.61-13.39,9.08-17.77,9.62-9.48,30.77-25.33,49-23.32C1679.15,1283.75,1671.15,1308.14,1653.3,1321.57Zm-91.46-169.4c-10.65,6.36-11-8-16.75-10.85-17.5,2.94-30.41-2.8-46.82-2.79,4-16.74-9.5-20.35-4.59-34.48-6.2-1.74-35.33,9.46-43.74-8.66a37.66,37.66,0,0,0,27.52-17.56c21.29,10.07,29.36,6.26,48.84,27.67,4.33,5.85,8.89,11.42,13.7,16.81C1547.49,1128.52,1561.18,1126.83,1561.84,1152.17ZM1677,1616.38c-65.53-7.31-131.48-13.64-198.37-18.28,10.76-20.74,26.35-14.95,47.32-12.68s42.64,2.71,56.66,5.2c6-.64,10.49-6.21,10.27-12.94,8.23,1.19,5.7,10.19-1.7,10.64,13.42,13.17,32.45,14.09,56.68,5.3-12.14-3.65-5.22-8.79-12.41-12-.2-19.56,21.86,13.31,12.41,12C1657.7,1601.07,1670.46,1602.58,1677,1616.38Zm-48.43-43.12a25,25,0,0,0-.41,15.45c-8.76.15-11.51-11.6-24.06-3.85C1609,1570.72,1620.34,1585.23,1628.6,1573.26Zm-353.34-339.15c-4.3,16.05-17-.7-18.54-.18-8.39,3-1.67,12.94-14.61,14.1-4.42,9,8.22,30.67,5.88,39.29-6.65,8-9.23-7.17-11.12-7.21l-30.07,8.06a28.41,28.41,0,0,0-19,15.26c-26.8-15.93-57.59-20.5-86.22-12.61-4.23-23.18-11-40.88-6.73-59.43,2.8-11.71,25.7-28.8,29.69-43.78,2.16-7.81-5.27-23.35-3.4-29.66.44-1.32,8.54-1,8.67-2.32.4-11.06-8.83-11.55-9.45-18-.42-4.49,7.52-6.62,4.77-16.51-3.54-13.18-18.87-30.55-27-49a255.66,255.66,0,0,1-7.64-28.52c-12.07-22.18-32.9-30.19-37.58-71.66,16.77-11.17,31.83-24,56.33-30.32-13.62,15.59,8.36,26.79,10.18,38,2.14,13.12-11.49,25,.36,35.62,2,15.56,15,9.56,19.32,20.45l30.07-8c13.61,23.52,15.41,49.77,29,73.85,6,10.76,15.24,14.1,20.55,25.05,10.35,21.66,10.66,37.57,23.89,54.84,1.55,2.11,10.32,5.67,11.15,7.31,6.5,11,7.59,26.46,21.84,29.87A25,25,0,0,0,1275.26,1234.11Zm-18.28,224c7.14,17.81-1.53,25.28,7.14,44-18.06,13.39-30.71,5.28-52.82,9.12,1.92-26,28.55-36.25,45.76-52.8Zm-23.51-70.38c7,36.26-17.28,49.87-42.22,31.69-20,2.3-38.39,13.9-61.4,11.41-7.44-.86-13.23-9.93-21-9.72-28.3,1-51.23,11-79.93,11.23a201.9,201.9,0,0,1-62.28-8.83,216.82,216.82,0,0,1-45-13.46c-3.83-1.72-18-.77-16.66-10.88a352.35,352.35,0,0,0,49-38.64c13.33,15,17.14,21.91,40.28,30.06a71.24,71.24,0,0,0,54.11-4.3c10.75-4.53,25.39-10.42,26.24-22.37,32.47,27.12,80.31,25.59,126.34,7,13.82-4.14,6.82,30.27,33,17.13Zm3.69,65.4c-19.56,21.45-34,46.14-72.7,55.19-6.73-16.27,12.45-20.32,23.69-31.87,9.76-10.07,17.85-26.7,29.28-28.33-3.23.86,10.64,17.19,19.89,5.62Zm-3.64,72.4c-2.23,30.4-36.31,12-55.8,15,2.32-21.22,36.77-5.58,55.91-14.54Zm-30.47,23.5c-1.63,23.44-28,6.29-40,5.58-.36-19.07,26-1.82,40.14-5.17Zm-39-25.26c-2.08,7.35-7.65,12.78-14.7,14.13l-3.84-14.31c11.15,6.54,7.55-5.42,18.65.59Zm-34.93,24.59c12.93-.07-8.37,8.26-11.63,8.26-9.16.48-5.68-7.57,11.65-8.16Zm-17.51-31c-1.3,18.76-16.34,12.82-28.78,12.86-7.81,0-22.84-7-29.66-7.39-11.33-.58-24.35,5.43-35.69,4.42-2.41-.12-9.3-7-11.13-7.21-10-.59-22.3,3.46-32.61-1.45-15,6.1-8.24-7.1,3-6,52,4.36,82.29,10.81,134.94,5.14ZM1094,1537.4c-16.17,22.3-54.9,10.55-85.46,7.56s-60.78-8.8-90.65-11.42-62.1-1.55-93.51-5.51c-15.16-2-29-7.66-43.86-8.73s-30.66,3.28-45.53,2c-8.89-.69-19.6-6.36-29.54-7.31-11.95-1.41-21.28-1.2-32.74-1.53,14.57-12.78,36.32.13,55.49.47,21.06.38,41.81-7,62.68-6.61,2.5.1,9.42,7.12,11.13,7.21,9,.53,22.6,1,32.61,1.45,35.72,1.93,59.14-3.25,83.27,18.55a144.67,144.67,0,0,1,48.61-7.88c-2.65-.27,15.53,2.63,14.17,1.25,0,0-3.19,10.6-1.79,10.66s9.41-8.43,15.9-9.3c0,0,10.23,1.32,14.17,1.25,9.93.18,18.14,6.09,29.66,7.39a367.7,367.7,0,0,0,55.5.9ZM2821.09,1606c12-6.07,34,5.36,35.66-4.52C2847.69,1601.56,2825.45,1590.86,2821.09,1606Zm-2.72,41.48c3,8.72,15.36-.94,19.79,4.88C2840.08,1636.24,2801.36,1648.15,2818.37,1647.43Zm-147-32c-5.42,5.61-.63,1.7,5.53,3.66,8.61,2.63,31,10.31,31.33-3.35-14.77,5.38-22.74-3.33-36.59-.39Zm-144.44-22.54c21.35,49.05,82.21,7.22,117.67,9.33-.89,12.18,30-5.07,12.82-3.43-50.13,11.79-73-30.63-130-6Zm39.34,60.88c7.75-2.84,38.25,1.81,25.74-6.89-9.12,8-23.91-9.15-25.27,6.77Zm-115.73-4.7c10,.6,34.19,9.9,39.93-5.55C2476,1651.75,2453.48,1638.93,2450.55,1649Zm-4.6-34.48c7.59-3.79,34.23,2.66,21.4-5.74-7,4.94-21.74-9.18-21.58,5.79Zm-101-84.69c-1.42,3.56-6.73-3.34-5.63-3.64a112.35,112.35,0,0,1-25.73,6.9c-6.76-.16-10.67-9.19-16.72-10.75-14.06-3.79-27.51,4-38.24-5.09-2-7.57,10-6.72,4.75-16.61-11.6-3.79-19.33-15.31-38.15-5.12-4.12,14.14,9.35,15.35,2.05,25-13.28,1.37-39.74-8.85-45.53,2,16.93,5.65,34.4,0,51.15,1.63,1-.27,5.16,7.82,6.79,8.37,13.89,4.61,22.87-6.13,35.69-4.41,7.69.68,13.22,8.4,21,9.61,16.63,2.66,33.83-4.35,49.89-3.07,9.07.64,10.95,6.16,19.71,4.91a72.49,72.49,0,0,0,41.69-16.32c-12.42,10.45-56.24-11.77-63,6.25ZM2332.25,1620c-22.8-18.32-56.43-15.45-90.65-11.43-19.13-21.6-63.78-28.48-93.54-5.61,5.27,33.32,37.49,13.73,47.17,38.41-10.44.5-34.84-8.63-39.91,5.66,54.06.3,111.34-5.08,158.78,8.51,2.67-.72,5.35-.67,5.59,3.54,30.26-16.22,70.67-7.44,104-7.38.91-15.8-14.8-4.69-19.82-5-7.4-.32-16.48-3.58-24-3.75-33.46-.89-59.47,7.17-76.36-10.1-2.08,7.35-7.64,12.78-14.7,14.12.77-16.31-1.34-13.11-10.62-22.67-5.3.54-12,4.08-14.2-1.35-17.39-.71-2,19.72-17.66,20.07-12.4-9.38-41.13,12.88-45-13.46,34.61-2.92,64.5-28.24,101.33-17a34.6,34.6,0,0,0,10.72,22.65c10.48-2.59,20.77-5.13,18.62-15.73Zm25.74-6.9c10.22-1.31,49.1,4.7,40-5.58-12.36,4.41-49-5.38-40.34,5.12Zm142.7,635.51c-12.48-4.87-39.71-18.72-48.08-7.49,7.59,10.23,22.66,4.11,29.55,7.31,16.53,7.84,27.56,29.09,45.9,33.71,13.64-3.33,24.64-13.94,29.31-28.23-20-5.93-35.52-23.35-57-5.76Zm-111.64-21.14c-16.84-.85-33.75,3.9-51.06-1.65-13.2-4.24-25.54-21.53-39-25.27-15.44-4.51-29,2.51-45.53,2-2.59-.07-11.38-5.6-15.46-6-6.81-.7-14.14,0-18.44-.21-35-1.57-77.63,3.6-105.26,2.68-44.57-1.42-110.74,13.57-146.45,3.53-14.24,0-.85,17.86-18.94,15.26-35-2.56-74.52-52.67-102.19-3.18,24.09,84.36,105.22-1.36,149.88,26.23,16.34-1.75,13.66-26.12,27.5-17.67,87.21-22,153.91,21,226.67,21,12.44-.05,30.41.61,41.19-.85,17-2.35,33.62-12.51,51.56-13.82,4.74-.39,12.77,4.14,19.8,4.89,27.36,3.62,51.39,3.65,68.4-3-13.81-1.34-29.14-3.59-43-4.37Zm-99.18-335.82c1.23,9.75,8.36,8,12.41,12-2.58.69-4.88,2.08-3,5.94l8.58-2.3c2.58-.69,4.85-2.17,3-5.94-11.19,4-8.6-18.07-21.31-10.17Zm-332.5-278.35c-13.92-.65-28.88-15.16-37-.39,34.38.65,83.57,10.48,110.79,1-21.69-7.88-50.35-.09-74.13-1.06Zm-187.09,264c-2-7.56-3.89-16.71-12.41-12-8.87.84-6.88,8.64-10.37,13-11-9.86-38.63,12.65-43.77-8.76-22,14.75-55.74-2.16-86,23,22.41,2.1,52.34-10.52,66.54,7.81,14.16-1.39,5.84-17.34,23.26-16.53,12.3-2.42,11.33,21.28,26.52,13.38-.77-5.82-4.38-13.4.5-15.47,70.49-8.82,149.88,6,206.59-19.65C1881.54,1872.71,1828.56,1869,1770.28,1877.32Zm-349-1560.73c14.62-2.27-12.84,19.22,5.1,19,.58-12.2,14,10.37,27-2.09-2.52-9.4,10.1-9.17,3.57-21.33-5.16.29-8.15-3.51-11.21-7.18-10.88.72-6.93,11.05-20.14,10.43-1-2.15-5.68-3.85-4.23,1.57Zm315.94,1385.32c1.8,3,8.75-4.21,9.86,2.51,5.64,26.2,0,40.21.61,71.26-19.06-1-7.06,10.55-9,17.75-.79,3-10.59,4.37-11.65,8.16s4,9.88,3.84,14.31-10,9-10.37,13c-.64,6.85,7.51,9.6,8.17,13.15,1.91,10.44-12.76,19.52-2.29,26.13,12.74,1.08,2.43-10.84,4.84-16.63,3.69-9.1,15.56-11.29,17.68-20,1.44-6.41-8.36-17.91-.88-20.25.47,13.57,11.69,6.73,16.75,10.85,7.68-14.87-12.26-12.92-19.3-20.35,13.83-13.35-5.13-47.93,11.78-59.36-.71-14.82-7.78-33.85,2.72-41.48,6.19,7.22,16.12,6.64,28.29,2.61,9.8-19.5,4.41-41.83-17-46.5-18.61-3.77-23.06,21.3-28.78,12.87,5-12.3,7.56-20.11-12.51-12,8.81,14.4,5.15,41.34,7,44.47ZM1672,2026.12c17.59,11.4,40.29,13.09,60.49,19.51.16,7.95-12.4,7.59-3.48,21.31a26.49,26.49,0,0,0,22.78-1c-1.18-7.35-6.28-17.16-.79-20.27,21.18,3.42,56.46,1.52,63.31-22-16.18-4.65-27.78-18.08-40.29-30.07a80.33,80.33,0,0,1,46-17.48,33.64,33.64,0,0,1,4.77-16.51c-6.81-15.81-19-20.86-30.44-27.67,7.71-8.09-9.75-28.61-23.54-19.21-.53,21.28,12.88,20.76,16.24,26.32,6.82,11.43,4.42,26.42,17.51,31-37.81,31.93-120.19,9.31-132.86,56.09Zm-308.62-1030c-.73,12,24.8,5.08,9.84,2.41C1368.77,996.85,1350.7,989.2,1363.42,996.09ZM1138,653.23c8.49,44.62,28.39,69.08,33.69,108.42,8.06-1.29,7.69-8.2,10.28-12.95,4.62-8.57-10.74-15-3.34-29.78-17.2,7-17.4-19.22-26.08-28.72a19.62,19.62,0,0,0,11.53-8.24c-6.9-43.84-.4-79-10.41-124.84-8.76.16-11.39-11.52-24-3.75,8.59,28.38-1.93,49.27,10.16,89.2-4.53,6.36-14.85,8.79-13.42,18.93A19.84,19.84,0,0,0,1138,653.23Zm5.53,140.94c3.36,1.84,18.09,15.86,18.42.1-5.39,2.76-20.09-11.16-17.91.31Zm-134.89-90.94c13.42-7.1,9.66,8.37,8.08,13.17,12.58-5.45,25.2,6.62,24.45-11.7C1033.46,702.5,1011.77,690.56,1008.64,703.23ZM827.18,731c1.22-4.27.61-7.29,1.78-10.67s3.81-2.77,1.79-10.66c1.26,4.7-14.76-21.14-15-21.5-6.19-6.12-53.75-26.46-53.2-26.61-25.94,5.75-29.7,31.95-22,72.3,11.33,16.46,34.17,10.56,44.62,28.91,19.33.19,26.41-18,38.65-10.36C815.9,739.87,824.71,741,827.18,731Zm-27.91,33.11c2.54,6.88,3.12,17.9,9.34,17.88,0-3.95-2.52-9.41,1.79-10.67.71,2.66,4.83,4.4,4.24-1.14-6.79,1.6-6.31-11-15.29-5.76Zm-18,122.15s-5.52.82-5.53-3.67c0-2.62,10.06-17,.43-15.34-4.22,14.5-19.71-1.62-6.79-8.37a20.13,20.13,0,0,0-25.82,6.92c3.54,21,14,18.17,19.27,20.25-6.49,12.7,16,31.09,18.38,51.28,11.27-4.44,5.28-20.15,16.28-24.85-17.12,6.23-1-6.74-9.34-17.87-28.29,4.73-6.78-6.84-6.8-8Zm11.37,109.58c4.27,13-2.26,18.13-10.37,13,22.51,26.83-6.17,60.37,7.52,79.71,6.24-22.81.59-48.69,9.23-68.86,0,0,3.33,5.79,4.33-1.16-.36,2-10.94-8-2.54-9.51.71,2.66,4.86,4.51,4.24-1.13C797.57,1009.79,798.77,995.44,792.66,995.88Zm-16.35,162.57c1.41-14.29,22.88-59.59-2.4-60.6,17.5,17.33-11.71,47.4,2,60.7Zm2226,470.37c-8-19.11-25.43-4.14-42.48-4S2917,1610.15,2910,1628a32.63,32.63,0,0,1,15.46,6c-28.45,11.9-63.19-1.91-83,17.1,48.3-9.77,103.19,6.2,147-18.9-12.37-.08-27.38,5.15-37-.29C2973.44,1622.2,2983.34,1634.45,3002.3,1628.82ZM1364,1873.78a185.07,185.07,0,0,0-30.83-12.12c-8.72-4.12-19.57-56.43-28.72-38.2,22.23,16.94,21.14,78.91,53,77.6C1363.37,1894.66,1362.61,1883.69,1364,1873.78ZM3272,1173a125.19,125.19,0,0,0-37.71-20.46c-22.13-6.56-53-13.3-69.16-17.18-7-1.75-11.64,1.58-18.45-.21-17.3-4.46-34.81-16.31-51.91-21.81-5.07-1.59-9.88,0-14.2-1.34-14.59-4.64-26.51-8.56-40.69-14.62-8.37-3.57-14-10.83-22.34-14.39s-20.75-3.64-29.57-7.42c-3.86-1.48-6.36-5.63-11.13-7.2a178.88,178.88,0,0,1-25.41-8.53,671.63,671.63,0,0,0-67.28-27.88c-16.12-6.63-36.63-23.05-53.7-11.13,52.76,23.87,126.08,48.82,178,79.93,4.46,2.64,9.63-.94,14.17,1.24,2.47,1.09,4.3,7.18,6.88,8.34,4.42,2.11,10.32-.24,14.2,1.35,14.3,6.14,27.8,13.7,42,19.42,7.2,2.9,13,6.05,21.06,9.59a390.16,390.16,0,0,0,45.06,13.56c2.9.87,7.83,6,11.09,7.11s9.72-.63,14.2,1.34c20.38,10,34.38,33.85,55.75,36.12a80.13,80.13,0,0,0,38.65-10.36C3270.15,1182.93,3275.13,1180.5,3272,1173ZM2685.79,962.65c4.42,30.14,25.54,27.44,47.58,23C2738.23,963.93,2708.92,953.05,2685.79,962.65Zm-48.86-27.77c2.07,12.91,10.09,14,21,9.71C2655.73,931.26,2647.82,930.53,2636.93,934.88Zm-45.22-13.42,2.55,9.51,8.67-2.32-2.55-9.51ZM2471.6,713.73c-11.84,4.16-16.2,13.32-10.78,28.41,9.81-4.71,11.55,6.22,22.78-.95-.13-19.69-19.67-12.92-11.91-27.48Zm-25.3-8.45c1.58-3.71,13.57-19.08-.79-20.28,2.44,6.14-13.57,19.09.88,20.26Zm-89.3-6.75a19.17,19.17,0,0,0,8.4,12.54,15.44,15.44,0,0,0,13.85,1.88c10.37-1.14,1.13-15,9.11-17.67,7.56,14.19,30.19-1,33.46,21.6,6.06,14.48-11.48,16.55,2,25a23.19,23.19,0,0,1,18.44.2c-4.61-57.81-58.35-74.63-85.22-43.55ZM2452.83,678c10.69-6.58,3,23.31,13.67,16.72-8.8-10.35,7.35-23.12-6.38-23.82,1.46,9.14-7.72-.78-7.2,7.08Zm-10.11,288.43c-4.69-22.3-21-22-34.75-26.41-9.41,4.39,1.32,21.56-12.06,23.61-37.58,7.33-66.61-37.91-97.47-19.89-19.73-32.29-84.45-12.65-85-58.85-9,3.29-14.69-.23-16.75-10.85-1.4-15.18,5.83-29.17,18.19-35.44A136.17,136.17,0,0,1,2232,885.07c12.56-7.75,15.19,3.93,23.95,3.77,11.51-15.35-1.18-43.5-20-40.53A67.57,67.57,0,0,0,2251,818.74c-14.23-3.64-21.8-20.45-37.74-20.56-4.14-6.23-1.62-26-10.63-22.68.53,5.66-2.79,8.74-6.12,11.83-2.34-21.29-19.39-15.18-35.16-11,.44,8.65,9.65,10.56,3.83,14.31-14.7-18-23,13-47.32,12.68-3.77,10.65.36,26.42-9.51,33.11-48.79-22-176.58,11.39-113.11,76.32a233.79,233.79,0,0,0,54.46,31.31,190.27,190.27,0,0,0,64.73,18.37c7.77.22,16.07-6.06,25.83-6.92,12.1-.94,23.82,3.7,32.61,1.45,12.18-3.26,22.26-12.86,33.15-13.92,13.85-1.41,30.56,6.71,43.83,8.63s25.9-.36,36.86.32c1.82.16,8.66,6.88,11.24,7.28,5.41.63,11.55-4.52,17.16-4.6,26-.49,57.56,15.58,76,25.53a235.44,235.44,0,0,0,28,18c4.37,1.57,14.75-2.85,22.65-1,4.64,1.06,12.65,10.31,16.75,10.85,5.52,1,11.69-5.43,17.16-4.59,17.3,2.59,33.67,15,46.81,2.79C2529.11,955.66,2474.45,966,2442.72,966.43Z"/></g></g></g></g></svg>