<svg xmlns="http://www.w3.org/2000/svg" viewBox="0 0 650.68 67.8"><defs><style>.cls-1{fill:#fff;}</style></defs><title>0d62b79d-ce93-46a8-ac98-8e7ac5673d19mdpi</title><g id="Layer_2" data-name="Layer 2"><g id="Layer_1-2" data-name="Layer 1"><g id="_0d62b79d-ce93-46a8-ac98-8e7ac5673d19" data-name="0d62b79d-ce93-46a8-ac98-8e7ac5673d19"><g id="_5cdbc7fa-4bbe-4f91-ad6e-b821cccb7895" data-name="5cdbc7fa-4bbe-4f91-ad6e-b821cccb7895"><path class="cls-1" d="M14,43.91V67.8H0V0H26.45A30.64,30.64,0,0,1,39.88,2.79a20.62,20.62,0,0,1,8.92,7.94,22.15,22.15,0,0,1,3.12,11.71q0,10-6.82,15.72T26.21,43.91ZM14,32.6H26.45Q32,32.6,34.9,30t2.91-7.45a11.22,11.22,0,0,0-2.93-8.06,11,11,0,0,0-8.11-3.16H14Zm104.9,21.23H94.38l-4.66,14H74.87L100.1,0h13l25.38,67.8H123.57ZM98.15,42.51H115.1l-8.52-25.37Zm99.08.47H186.1V67.8h-14V0h25.19q12,0,18.54,5.35t6.52,15.14a20.78,20.78,0,0,1-3,11.57,20.42,20.42,0,0,1-9.1,7.38l14.67,27.71v.65h-15ZM186.1,31.66h11.27c3.51,0,6.22-.89,8.15-2.67a9.57,9.57,0,0,0,2.89-7.38,10.24,10.24,0,0,0-2.73-7.55q-2.72-2.74-8.36-2.74H186.1Zm115.06,6.76H274.33V56.58h31.48V67.8H260.36V0h45.36V11.32H274.33V27.47h26.83ZM396.51,67.8h-14L355.35,23.19V67.8h-14V0h14l27.24,44.7V0h13.92Zm89.26-56.48H465V67.8H451V11.32H430.54V0h55.23Zm68,42.51H529.3l-4.66,14H509.79L535,0H548l25.38,67.8H558.49ZM533.07,42.51H550L541.5,17.14ZM621,56.58h29.66V67.8H607.05V0h14Z"/></g></g></g></g></svg>