<svg xmlns="http://www.w3.org/2000/svg" viewBox="0 0 105.77 56.79"><defs><style>.cls-1{fill:#010101;}</style></defs><title>Asset 226mdpi</title><g id="Layer_2" data-name="Layer 2"><g id="Layer_1-2" data-name="Layer 1"><path class="cls-1" d="M105,23a.75.75,0,1,0,0-1.49h-8.6V10.84H105a.76.76,0,0,0,.75-.75.75.75,0,0,0-.75-.74h-8.6V.74A.74.74,0,0,0,95.68,0a.75.75,0,0,0-.75.74V9.35H84.22V.74A.75.75,0,0,0,83.47,0a.74.74,0,0,0-.74.74V9.35H72V.74A.74.74,0,0,0,71.27,0a.75.75,0,0,0-.75.74V9.35H59.81V.74A.75.75,0,0,0,59.06,0a.74.74,0,0,0-.74.74V9.35H47.45V.74A.75.75,0,0,0,46.7,0,.74.74,0,0,0,46,.74V9.35H35.24V.74A.74.74,0,0,0,34.5,0a.75.75,0,0,0-.75.74V9.35H23V.74a.75.75,0,0,0-1.49,0V9.35H10.84V.74A.75.75,0,0,0,10.09,0a.74.74,0,0,0-.74.74V9.35H.74a.74.74,0,0,0-.74.74.75.75,0,0,0,.74.75H9.35V21.55H.74A.75.75,0,0,0,.74,23H9.35V33.75H.74A.75.75,0,0,0,0,34.5a.74.74,0,0,0,.74.74H9.35V46H.74a.75.75,0,0,0,0,1.49H9.35v8.6a.74.74,0,0,0,.74.74.75.75,0,0,0,.75-.74v-8.6H21.55v8.6a.75.75,0,0,0,1.49,0v-8.6H33.75v8.6a.75.75,0,0,0,.75.74.74.74,0,0,0,.74-.74v-8.6H46v8.6a.74.74,0,0,0,.74.74.75.75,0,0,0,.75-.74v-8.6H58.32v8.6a.74.74,0,0,0,.74.74.75.75,0,0,0,.75-.74v-8.6H70.52v8.6a.75.75,0,0,0,.75.74.74.74,0,0,0,.74-.74v-8.6H82.73v8.6a.74.74,0,0,0,.74.74.75.75,0,0,0,.75-.74v-8.6H94.93v8.6a.75.75,0,0,0,.75.74.74.74,0,0,0,.74-.74v-8.6H105A.75.75,0,1,0,105,46h-8.6V35.24H105a.75.75,0,0,0,.75-.74.76.76,0,0,0-.75-.75h-8.6V23ZM94.93,10.84V21.55H84.22V10.84Zm-12.2,0V21.55H72V10.84ZM56.05,33.75h-8.6V23H58.32V33.75ZM35.24,23H46V33.75H35.24ZM33.75,33.75H23V23H33.75ZM59.81,23H70.52V33.75H59.81ZM72,23H82.73V33.75H72Zm-1.49-12.2V21.55H59.81V10.84Zm-20.8,0h8.6V21.55H47.45V10.84Zm-3.76,0V21.55H35.24V10.84Zm-12.21,0V21.55H23V10.84Zm-22.91,0H21.55V21.55H10.84Zm0,12.2H21.55V33.75H10.84Zm0,22.92V35.24H21.55V46ZM23,46V35.24H33.75V46Zm12.2,0V35.24H46V46Zm20.81,0h-8.6V35.24H58.32V46Zm3.76,0V35.24H70.52V46ZM72,46V35.24H82.73V46Zm22.92,0H84.22V35.24H94.93Zm0-12.21H84.22V23H94.93Z"/></g></g></svg>