<svg xmlns="http://www.w3.org/2000/svg" viewBox="0 0 834.24 238.24"><title>Asset 51</title><g id="Layer_2" data-name="Layer 2"><g id="Layer_1-2" data-name="Layer 1"><g id="aa765c65-dadc-4802-a82e-428decd2fcd8"><g id="ae7a2d40-d59c-416b-bf2c-073705d9537c"><path d="M137.64,226q0,6.21-2.12,9.22t-6.63,3q-4.45,0-6.58-3c-1.43-2-2.16-4.9-2.21-8.81v-4.72c0-4.09.71-7.12,2.12-9.11s3.63-3,6.63-3,5.2,1,6.61,2.87,2.14,4.88,2.18,8.88Zm-3.54-4.83q0-4.48-1.26-6.54a4.34,4.34,0,0,0-4-2.06,4.27,4.27,0,0,0-3.95,2.05c-.82,1.36-1.24,3.45-1.28,6.28v5.65q0,4.51,1.32,6.66a4.72,4.72,0,0,0,7.84.12c.85-1.35,1.29-3.47,1.32-6.38Zm64-3.86a6.44,6.44,0,0,1-1.09,3.7,7.37,7.37,0,0,1-3,2.54,8,8,0,0,1,3.44,2.74,6.82,6.82,0,0,1,1.27,4.06,7.28,7.28,0,0,1-2.43,5.75,10.68,10.68,0,0,1-12.84,0,7.3,7.3,0,0,1-2.41-5.74,7.07,7.07,0,0,1,1.23-4.06,7.64,7.64,0,0,1,3.41-2.75,7.3,7.3,0,0,1-2.92-2.54,6.62,6.62,0,0,1-1.07-3.69,7.21,7.21,0,0,1,2.25-5.58,9.58,9.58,0,0,1,11.87,0,7.18,7.18,0,0,1,2.26,5.58Zm-2.88,13a5.12,5.12,0,0,0-1.48-3.8,5.26,5.26,0,0,0-3.87-1.47,5,5,0,0,0-5.27,5.27A4.94,4.94,0,0,0,186,234a6.27,6.27,0,0,0,7.81,0,4.91,4.91,0,0,0,1.41-3.71ZM190,212.57a4.55,4.55,0,0,0-3.37,1.29,5.34,5.34,0,0,0,0,6.94,5.07,5.07,0,0,0,6.78,0,5.23,5.23,0,0,0-.05-6.89,4.5,4.5,0,0,0-3.34-1.34Zm57.55,9.67h2.65a5.85,5.85,0,0,0,3.93-1.32,4.4,4.4,0,0,0,1.44-3.46q0-4.89-4.87-4.89a5.08,5.08,0,0,0-3.66,1.31,4.59,4.59,0,0,0-1.37,3.47h-3.53a7.08,7.08,0,0,1,2.42-5.49,9.94,9.94,0,0,1,12.31-.11,7.53,7.53,0,0,1,2.23,5.79,6.1,6.1,0,0,1-1.17,3.51,7.15,7.15,0,0,1-3.2,2.54,6.85,6.85,0,0,1,3.54,2.41,6.71,6.71,0,0,1,1.25,4.11,7.6,7.6,0,0,1-2.44,5.94,9.17,9.17,0,0,1-6.36,2.19,9.4,9.4,0,0,1-6.37-2.12,7,7,0,0,1-2.46-5.59h3.55a4.53,4.53,0,0,0,1.44,3.51,5.43,5.43,0,0,0,3.84,1.32,5.33,5.33,0,0,0,3.91-1.34,5.13,5.13,0,0,0,1.36-3.84,4.69,4.69,0,0,0-1.49-3.72,6.5,6.5,0,0,0-4.3-1.34H247.5Zm72.8-4.93a6.45,6.45,0,0,1-1.1,3.7,7.37,7.37,0,0,1-3,2.54,8,8,0,0,1,3.45,2.74,6.82,6.82,0,0,1,1.27,4.06,7.25,7.25,0,0,1-2.44,5.75,10.67,10.67,0,0,1-12.83,0,7.31,7.31,0,0,1-2.42-5.74,7,7,0,0,1,1.24-4.06,7.64,7.64,0,0,1,3.41-2.75A7.27,7.27,0,0,1,305,221a6.62,6.62,0,0,1-1.07-3.69,7.18,7.18,0,0,1,2.26-5.58,9.58,9.58,0,0,1,11.87,0,7.18,7.18,0,0,1,2.26,5.58Zm-2.88,13a5.12,5.12,0,0,0-1.48-3.8,5.26,5.26,0,0,0-3.87-1.47,5,5,0,0,0-5.27,5.27,4.94,4.94,0,0,0,1.4,3.72,6.25,6.25,0,0,0,7.8,0,4.88,4.88,0,0,0,1.42-3.71Zm-5.31-17.71a4.55,4.55,0,0,0-3.37,1.29,5.34,5.34,0,0,0,0,6.94,5.07,5.07,0,0,0,6.78,0,5.23,5.23,0,0,0-.05-6.89,4.5,4.5,0,0,0-3.34-1.34Zm54,11.35,1.41-13.87H381.8v3.27H370.55l-.84,7.58a9,9,0,0,1,4.64-1.2,7.7,7.7,0,0,1,6,2.51,9.84,9.84,0,0,1,2.23,6.79,9.48,9.48,0,0,1-2.32,6.77,8.46,8.46,0,0,1-6.48,2.47,8.8,8.8,0,0,1-6-2,8.21,8.21,0,0,1-2.66-5.65h3.35a5.57,5.57,0,0,0,1.7,3.6,5.26,5.26,0,0,0,3.63,1.21,4.75,4.75,0,0,0,3.86-1.68,7,7,0,0,0,1.41-4.64,6.47,6.47,0,0,0-1.52-4.48,5.15,5.15,0,0,0-4-1.69,5.86,5.86,0,0,0-3.63,1l-.94.76ZM443,226q0,6.21-2.12,9.22t-6.63,3c-3,0-5.16-1-6.59-3s-2.16-4.9-2.21-8.81v-4.72c0-4.09.71-7.12,2.12-9.11s3.63-3,6.64-3,5.2,1,6.61,2.87,2.14,4.88,2.18,8.88Zm-3.53-4.83q0-4.48-1.26-6.54a4.34,4.34,0,0,0-4-2.06,4.27,4.27,0,0,0-3.95,2.05c-.83,1.36-1.25,3.45-1.28,6.28v5.65q0,4.51,1.31,6.66a4.33,4.33,0,0,0,4,2.15,4.28,4.28,0,0,0,3.89-2c.85-1.35,1.29-3.47,1.33-6.38Zm48.79,2.75,1.42-13.87H504v3.27H492.71l-.84,7.58a9,9,0,0,1,4.64-1.2,7.68,7.68,0,0,1,6,2.51,9.84,9.84,0,0,1,2.24,6.79,9.48,9.48,0,0,1-2.32,6.77,8.46,8.46,0,0,1-6.49,2.47,8.79,8.79,0,0,1-6-2,8.21,8.21,0,0,1-2.66-5.65h3.34a5.67,5.67,0,0,0,1.7,3.6,5.29,5.29,0,0,0,3.63,1.21,4.76,4.76,0,0,0,3.87-1.68,7.06,7.06,0,0,0,1.4-4.64,6.46,6.46,0,0,0-1.51-4.48,5.15,5.15,0,0,0-4-1.69,5.86,5.86,0,0,0-3.63,1l-.94.76Zm71.07,13.94h-3.55V214.31l-7.12,2.62v-3.21l10.12-3.8h.55ZM626.78,212l-11.52,25.82h-3.7L623,213H608v-2.9h18.79Zm57-2v3h-.65a9.3,9.3,0,0,0-6.57,2.45,10.1,10.1,0,0,0-2.82,6.66,7.53,7.53,0,0,1,6-2.52,7.21,7.21,0,0,1,5.8,2.56,11.2,11.2,0,0,1-.17,13.48,8.06,8.06,0,0,1-6.28,2.58,7.93,7.93,0,0,1-6.47-3.06,12.2,12.2,0,0,1-2.48-7.9v-1.36q0-7.66,3.27-11.73t9.75-4.16Zm-4.64,12.53a5.61,5.61,0,0,0-3.34,1.09,5.68,5.68,0,0,0-2.12,2.73v1.3a9.14,9.14,0,0,0,1.55,5.54,4.62,4.62,0,0,0,3.85,2.1,4.51,4.51,0,0,0,3.76-1.76,8.46,8.46,0,0,0,0-9.23A4.45,4.45,0,0,0,679.12,222.56Z"/></g></g><g id="a85c55e0-1e0c-4c78-9d69-a8f31fd5311b"><g id="a85c55e0-1e0c-4c78-9d69-a8f31fd5311b-child-0"><path d="M0,.64H17.55V190.11H0ZM28.28,190.11H38V.64H28.28Zm16.77,0H55V.64h-10Zm22.82,0H89.52V.64H67.87Zm38.81,0H117.4V.64H106.68Zm27.5,0h44.66V.64H134.18Zm116.23,0H265V.64H250.41ZM277.91.64V190.11H297.8V.64ZM196.58,190.11h9.75V.64h-9.75Zm23.4,0h9.56V.64H220Z"/></g></g><g id="f81af4de-61d9-453e-b2d6-97af94e71357"><g id="f81af4de-61d9-453e-b2d6-97af94e71357-child-0"><path d="M251.35,0H268.9V189.47H251.35Zm28.28,189.47h9.75V0h-9.75Zm16.77,0h10V0h-10Zm22.82,0h21.65V0H319.22Zm38.81,0h10.72V0H358Zm27.5,0h44.66V0H385.53Zm116.23,0h14.63V0H501.76ZM529.26,0V189.47h19.89V0ZM447.93,189.47h9.75V0h-9.75Zm23.41,0h9.55V0h-9.55Z"/></g></g><g id="_60d1303f-5390-46e3-a070-ef8bc630bb20" data-name="60d1303f-5390-46e3-a070-ef8bc630bb20"><g id="_60d1303f-5390-46e3-a070-ef8bc630bb20-child-0" data-name="60d1303f-5390-46e3-a070-ef8bc630bb20-child-0"><path d="M834.24,0H816.69V189.47h17.55ZM806,189.47h-9.75V0H806Zm-16.78,0h-9.94V0h9.94Zm-22.81,0H744.73V0h21.65Zm-38.81,0H716.84V0h10.73Zm-27.5,0H655.41V0h44.66Zm-116.23,0H569.21V0h14.63ZM556.34,0V189.47H536.45V0Zm81.32,189.47h-9.75V0h9.75Zm-23.4,0H604.7V0h9.56Z"/></g></g></g></g></svg>