<svg xmlns="http://www.w3.org/2000/svg" viewBox="0 0 88.15 88.15"><defs><style>.cls-1{fill:#010101;}</style></defs><title>Asset 171mdpi</title><g id="Layer_2" data-name="Layer 2"><g id="Layer_1-2" data-name="Layer 1"><path class="cls-1" d="M87,16.82H1.16a1.16,1.16,0,1,1,0-2.31H87a1.16,1.16,0,1,1,0,2.31Z"/><path class="cls-1" d="M87,35.76H1.16a1.16,1.16,0,1,1,0-2.31H87a1.16,1.16,0,1,1,0,2.31Z"/><path class="cls-1" d="M87,54.7H1.16a1.16,1.16,0,1,1,0-2.31H87a1.16,1.16,0,1,1,0,2.31Z"/><path class="cls-1" d="M87,73.64H1.16a1.16,1.16,0,1,1,0-2.31H87a1.16,1.16,0,1,1,0,2.31Z"/><path class="cls-1" d="M72.49,88.15A1.16,1.16,0,0,1,71.33,87V1.16a1.16,1.16,0,1,1,2.31,0V87A1.16,1.16,0,0,1,72.49,88.15Z"/><path class="cls-1" d="M53.54,88.15A1.16,1.16,0,0,1,52.39,87V1.16a1.16,1.16,0,1,1,2.31,0V87A1.16,1.16,0,0,1,53.54,88.15Z"/><path class="cls-1" d="M34.6,88.15A1.15,1.15,0,0,1,33.45,87V1.16a1.16,1.16,0,1,1,2.31,0V87A1.16,1.16,0,0,1,34.6,88.15Z"/><path class="cls-1" d="M15.66,88.15A1.16,1.16,0,0,1,14.5,87V1.16a1.16,1.16,0,0,1,2.32,0V87A1.16,1.16,0,0,1,15.66,88.15Z"/></g></g></svg>