<?xml version="1.0" encoding="utf-8"?>
<!-- Generator: Adobe Illustrator 24.0.0, SVG Export Plug-In . SVG Version: 6.00 Build 0)  -->
<svg version="1.1" id="Layer_1" xmlns="http://www.w3.org/2000/svg" xmlns:xlink="http://www.w3.org/1999/xlink" x="0px" y="0px"
	 viewBox="0 0 97 97" style="enable-background:new 0 0 97 97;" xml:space="preserve">
<style type="text/css">
	.st0{fill:#231F20;}
</style>
<title>Asset 73</title>
<g id="Layer_2_1_">
	<g id="Layer_1-2">
		<g id="_20836435-a20d-4350-ba0e-8f6513b005d9">
			<g id="_20836435-a20d-4350-ba0e-8f6513b005d9-child-0">
				<path class="st0" d="M48.6,97c-6.4,0.1-12.8-1.2-18.8-3.7c-11.7-4.9-21-14.1-26-25.8c-2.6-6-3.9-12.5-3.8-19
					c0-6.4,1.2-12.8,3.8-18.8c5-11.7,14.3-21,25.9-26c6-2.5,12.4-3.8,18.9-3.7C55,0,61.4,1.2,67.3,3.8c11.7,5,20.9,14.3,25.9,26
					c2.5,5.9,3.8,12.3,3.8,18.7c0.1,6.5-1.2,13-3.8,19c-2.4,5.8-6,11.1-10.5,15.5c-4.5,4.4-9.7,7.9-15.5,10.3
					C61.4,95.8,55,97.1,48.6,97z M33,65.6c0.3,0,0.6-0.2,0.8-0.4c0.3-0.3,0.4-0.6,0.4-1c-0.1-0.7-0.5-1.4-1.1-1.8
					c-0.7-0.8-1.4-1.6-2.1-2.4c-0.4-0.5-0.7-1-1-1.6c-0.2-0.5-0.5-0.9-0.8-1.3c-0.4-0.4-0.8-0.7-1.3-0.9c-0.7-0.3-1.1-0.7-1.2-1
					c-0.2-0.7-0.3-1.4-0.3-2.2c0-0.5,0.2-0.7,0.5-0.7c0.5,0,1,0.3,1.3,0.8c0.4,0.5,0.8,1.1,1.1,1.6s0.6,0.8,0.8,0.8
					c0.3,0,0.6-0.2,0.9-0.4c0.3-0.2,0.7-0.4,1.1-0.6c0.5-0.3,1-0.5,1.5-0.9c0.5-0.3,0.8-0.7,0.8-1c0-0.8-0.2-1.6-0.6-2.2
					c-0.4-0.5-0.8-1-1.2-1.4C32.3,48.9,32,48.5,32,48c0-0.4,0.2-0.8,0.5-1c0.3-0.3,0.6-0.4,1-0.5c0.3,0,0.5,0.1,0.5,0.2
					c0,0.2-0.1,0.4-0.3,0.5c-0.2,0.2-0.3,0.6-0.3,0.9c0,0.2,0.1,0.5,0.3,0.6c0.2,0.2,0.4,0.3,0.7,0.3c0.5,0,0.9-0.3,1.1-0.8
					c0.2-0.5,0.5-1,0.9-1.5c0.5-0.6,1.3-0.8,2-0.8c1.1,0,2.1-0.3,3-0.8c1.3-0.9,2.4-2,3.4-3.3c0.6-0.7,1.1-1.3,1.6-2.1
					c0.2-0.3,0.3-0.6,0.3-1c0.1-0.7-0.1-1.4-0.6-1.9c-0.4-0.4-0.8-0.7-1.2-1c-0.4-0.2-0.6-0.5-0.6-0.7c0.1-0.3,0.2-0.7,0.5-0.9
					c0.3-0.4,0.5-0.8,0.5-1.3c0-0.3-0.3-0.4-0.8-0.5c-0.3,0-0.5-0.1-0.7-0.3c-0.2-0.2-0.2-0.5-0.2-0.7c0-0.3,0.2-0.6,0.7-1
					c0.3-0.3,0.7-0.5,1.1-0.6c0.2,0,0.3,0.1,0.3,0.2c0,0.1,0,0.3-0.1,0.4c-0.1,0.2-0.1,0.3-0.1,0.5c0,0.4,0.5,0.6,1.5,0.6
					c0.7,0,1,0.1,1,0.4s0.4,0.5,1.2,0.7v2.1c0,0.7,0.1,1,0.2,1c0.7,0,1.4-0.2,2-0.7c0.5-0.6,0.8-1.3,0.8-2.1c0-1.1-0.5-2.1-1.3-2.8
					c0.6-0.1,1.1-0.5,1.4-1c0.2-0.4,0.4-0.9,0.7-1.2c0.3-0.3,0.8-0.4,1.2-0.2c0.5,0.1,0.9,0,1.3-0.3c0.3-0.3,0.6-0.7,0.8-1.1
					c0.2-0.5,0.4-0.9,0.6-1.3c0.3-0.6,0.6-1.3,0.9-2c0.2-0.7,0.3-1.5,0.3-2.2c0-0.4-0.1-0.7-0.3-1.1c-0.2-0.4-0.4-0.8-0.6-1.2
					c-0.1-0.5-0.3-0.9-0.5-1.4c-0.2-0.4-0.4-0.6-0.8-0.6c-0.2,0-0.4,0.1-0.6,0.2C55,17,54.8,17.1,54.6,17c-0.3,0-0.6-0.1-0.8-0.3
					c-0.3-0.2-0.4-0.5-0.4-0.9c0.1-0.7,0.4-1.3,0.9-1.8c0.5-0.7,1.3-1.1,2.2-1.1c0.3,0,0.6,0.1,0.8,0.3c0.3,0.2,0.6,0.3,1,0.3
					c0.5,0,0.9-0.3,1.1-0.7c0.3-0.5,0.6-0.9,0.9-1.4c0.2-0.4,0.6-0.6,1-0.7c0.3,0,0.5,0.1,0.6,0.4c0.1,0.5,0.2,0.9,0.2,1.4
					c0,0.3,0,0.6-0.1,0.9c0,0.3-0.1,0.6-0.1,0.9c0,0.3,0.1,0.5,0.3,0.8c0.2,0.2,0.4,0.5,0.5,0.7c0.3,0.7,0.6,1.4,1.1,2
					c0.5,0.6,0.9,1,1.2,1s0.5-0.3,0.7-0.9c0.2-1,0.4-2.1,0.3-3.2c0-0.7,0-1.4-0.2-2.1c-0.1-0.8-0.2-1.7-0.2-2.5c0-0.4,0-0.8,0.1-1.1
					C65.9,8.8,66,8.4,65.9,8c0-0.2,0-0.4,0-0.5c0-0.2,0-0.4-0.1-0.6c-2.4-0.9-4.9-1.6-7.4-2.2c-2.3-0.5-4.6-0.8-6.9-0.8
					c-0.5,0.8-1.1,1.5-1.7,2.2c-0.5,0.5-0.8,0.7-0.9,0.7c-0.8,0-1.6-0.1-2.3-0.2c-0.8-0.1-1.7-0.3-2.5-0.6c-0.2-0.1-0.3-0.3-0.2-0.9
					S44,4.3,44,4c-5.2,0.3-10.3,1.7-15,4c-4.2,2.1-8.1,4.9-11.4,8.2c-3,3-5.7,6.4-7.9,10.1c-1.8,3-3.2,6.3-4.2,9.7
					c0.4,0.3,0.8,0.5,1.2,0.9c0.4,0.3,0.6,0.7,0.6,1.1c0,0.6,0,1.1,0,1.6c0,0.5,0,1,0,1.5c0,0.3,0.1,0.5,0.4,0.5s0.4,0.2,0.4,0.6
					c0,1.4,0.1,2.8,0.4,4.2c0.2,1.4,0.5,2.8,0.9,4.1c0.2,0.6,0.3,1.2,0.4,1.8c0.1,0.6,0.3,1,0.6,1c0.6,0,1-0.4,1.2-1.3
					s0.4-1.8,0.6-2.6S12.6,48,13,48c0.6-0.2,1.2-0.5,1.6-1c0.7-0.7,1.4-1.4,2.1-2s1.2-1,1.5-1c0.5,0,1.1,0,1.6,0.2
					c0.4,0.3,0.7,0.7,0.9,1.1c0.4,0.6,0.6,1.3,0.7,2c0,0.8,0,1.5,0.3,2.3c0.2,0.4,0.6,0.6,1,0.6c0.6,0,1,0.4,1.3,1.3
					c0.3,1,0.4,2,0.4,3.1c0,0.3,0,0.6,0.1,0.9c0,0.3,0.1,0.6,0.3,0.9c0.2,0.3,0.3,0.6,0.5,0.9c0.2,0.3,0.4,0.6,0.6,0.9
					c-0.6-0.3-1.1-0.7-1.6-1.1c-0.3-0.4-0.8-0.6-1.3-0.6c-0.5,0-0.6,0.3-0.3,0.7c0.5,0.7,1,1.3,1.6,1.9c0.8,0.8,1.6,1.6,2.4,2.5
					s1.6,1.7,2.2,2.4c0.2,0.2,0.4,0.4,0.7,0.5c0.3,0.1,0.5,0.2,0.8,0.4c0.4,0.2,0.8,0.4,1.2,0.6C32.2,65.5,32.6,65.6,33,65.6z
					 M39.2,62.8c0.3,0,0.5-0.4,0.9-1.1s0.6-1.5,0.9-2.3c0.1-0.5,0.3-0.9,0.6-1.3c0.2-0.2,0.3-0.3,0.4-0.5c0.1-0.2,0.2-0.3,0.2-0.5
					c0-0.4,0-0.8,0.1-1.2c0-0.4,0.1-0.8,0.1-1.2c0.1-0.5,0.2-0.9,0.3-1.4c0.1-0.5,0.2-0.9,0.2-1.4c0-0.4-0.1-0.6-0.4-0.6
					c-0.9-0.1-1.9,0.1-2.7,0.6c-0.4,0.3-0.7,0.8-0.7,1.3c0,0.5-0.3,1-0.7,1.4c-0.5,0.4-1.1,0.9-1.7,1.4c-0.5,0.4-0.9,1-1.3,1.5h-1.3
					c-0.4,0-0.7,0.2-1,0.5c-0.3,0.2-0.5,0.6-0.5,1c0.1,0.5,0.3,1.1,0.6,1.5c0.4,0.5,0.9,1.1,1.4,1.5c0.5,0.4,0.8,0.7,1.1,0.7
					c0.3,0,0.5,0,0.8-0.1c0.2-0.1,0.5-0.1,0.8-0.1c0.3,0,0.6,0.1,0.9,0.3C38.5,62.7,38.8,62.8,39.2,62.8L39.2,62.8z M37.5,66.2
					c1.8,0.1,3.5-0.2,5.2-0.7c1-0.5,2-0.7,3.1-0.8c0.4,0,0.8-0.1,1-0.5c0.2-0.3,0.5-0.5,0.8-0.5c0.5-0.1,1-0.3,1.4-0.8
					c0.5-0.5,0.8-0.9,0.8-1.2s-0.1-0.4-0.3-0.4c-0.4,0-0.7,0.1-1,0.3c-0.4,0.2-0.7,0.5-1,0.8c-0.2,0.3-0.5,0.5-0.8,0.6
					c-0.6,0-1.2,0.1-1.8,0.2c-0.8,0.1-1.6,0.3-2.3,0.4S41,64,40.2,64.2c-0.9,0.1-1.8,0.2-2.7,0.2c-0.3,0-0.7,0-1,0
					c-0.4,0-0.8,0-1.2,0c-0.1,0-0.3,0.1-0.4,0.4c-0.1,0.2-0.2,0.4-0.2,0.7c0,0.2,0.1,0.4,0.2,0.6c0.1,0.2,0.3,0.3,0.5,0.4
					c0.4,0,0.8,0,1.2,0s0.7,0,1.1,0L37.5,66.2z M37.7,20.2c-0.5,0-0.9-0.2-1.2-0.6c-0.3-0.3-0.4-0.7-0.4-1.1c0-0.3,0.2-0.7,0.5-0.8
					c0.4-0.2,0.8-0.4,1.2-0.7c0.3-0.2,0.6-0.5,0.8-0.8c0.2-0.3,0.5-0.5,0.9-0.5c0.3,0,0.6,0.2,0.7,0.5c0.2,0.3,0.2,0.7,0.2,1.1
					c0,0.8-0.3,1.5-0.9,2C39,19.9,38.4,20.2,37.7,20.2L37.7,20.2z M61.7,85.4c1.2,0.1,2.4-0.2,3.4-0.9c0.8-0.6,1.4-1.3,2-2.1
					c0.5-0.8,1.1-1.4,1.9-2c2.1-1.7,3.2-3.4,3.2-5.4c0-0.7-0.2-1.2-0.7-1.4s-0.7-0.4-0.7-0.7c0-0.2,0-0.4,0-0.6c0-0.2,0-0.4,0-0.6
					c-0.1-0.7-0.4-1.3-1-1.8c-0.6-0.4-0.9-1-1-1.7v-1.7c0-0.4-0.2-0.7-0.4-1c-0.2-0.4-0.4-0.8-0.7-1.1c-0.2-0.4-0.4-0.8-0.7-1.2
					c-0.2-0.3-0.5-0.6-0.9-0.6c-0.3,0-0.6,0.3-0.9,0.9c-0.3,0.8-0.5,1.7-0.7,2.5c-0.1,0.6-0.3,1.1-0.6,1.6c-0.2,0.4-0.7,0.6-1.1,0.6
					c-0.7,0-1.4-0.3-1.9-0.8c-0.7-0.5-1.1-1-1.1-1.4c0-0.3,0.1-0.6,0.3-0.8c0.3-0.3,0.4-0.6,0.3-1c0-0.5-0.3-0.9-1-1.2
					c-1-0.3-2-0.5-3-0.4c-0.9,0-1.7,0.1-2.5,0.5c-0.5,0.2-0.9,0.7-1.1,1.2c-0.2,0.7-0.6,1.1-1.2,1.1c-0.4,0-0.7-0.1-0.9-0.4
					c-0.1-0.2-0.4-0.4-0.7-0.4c-0.5,0.1-1,0.4-1.3,0.8c-0.6,0.5-1.5,1.3-2.7,2.2c-0.1,0.1-0.2,0.3-0.3,0.5c0,0.2-0.1,0.4-0.2,0.6
					c0,0.2-0.1,0.4-0.3,0.6c-0.3,0.3-0.6,0.5-1,0.7c-0.5,0.2-0.9,0.4-1.2,0.5c-0.3,0.1-0.6,0.2-0.9,0.2c-0.5,0-1,0.4-1.1,0.9
					c-0.2,0.5-0.3,1.1-0.3,1.7c0.1,1.1,0.5,2.1,1.1,3c0.8,1.5,1.5,3,2.1,4.6c-0.2,0.2-0.3,0.4-0.4,0.6c-0.1,0.1-0.1,0.3-0.1,0.4
					c0,0.7,0.7,1.1,2.1,1.1c0.5,0,1,0,1.5-0.1c0.5-0.1,0.9-0.1,1.4-0.1c0.4,0,0.8-0.1,1.2-0.3c0.4-0.3,0.9-0.5,1.4-0.7
					c1.2-0.3,2.4-0.4,3.6-0.3c1.4,0,2.2,0.4,2.2,1.3c0,0.1,0,0.2,0,0.3c0,0.1,0,0.2,0,0.3c0,0.2,0.1,0.5,0.3,0.6
					c0.2,0.2,0.5,0.3,0.7,0.3c0.5,0,0.9,0.3,1.2,0.7c0.4,0.4,1.3,0.7,2.8,0.7L61.7,85.4z M43.7,62.6c1,0,1.5-0.2,1.5-0.7
					c0-0.3-0.1-0.6-0.3-0.7c-0.2-0.1-0.3-0.3-0.3-0.6v-1c0-0.3,0.2-0.5,0.6-0.6s0.8-0.3,1.2-0.4c0.4-0.1,0.6-0.4,0.6-0.8v-0.7
					c0-0.3-0.1-0.5-0.3-0.5s-0.5,0.2-0.5,0.6s-0.1,0.7-0.4,0.7c-0.2,0-0.4-0.1-0.5-0.3c-0.2-0.2-0.5-0.3-0.8-0.3
					c-0.7,0-1.4,0.4-1.8,1c-0.5,0.8-0.8,1.7-0.7,2.6C42,62.1,42.6,62.6,43.7,62.6L43.7,62.6z M47.5,56c0.8,0,1.1-0.1,1.1-0.4
					c-0.1-0.4-0.3-0.8-0.5-1.2c0.2-0.1,0.4-0.4,0.4-0.7c-0.1-0.5-0.3-0.9-0.6-1.3c-0.4-0.6-0.8-1.1-1.3-1.7
					c-0.5-0.5-0.8-0.8-1.1-0.8c-0.3,0-0.6-0.2-0.7-0.5c-0.1-0.4-0.2-0.8-0.2-1.3c0-0.4-0.1-0.8-0.4-1.1c-0.2-0.2-0.5-0.3-0.8-0.4
					c-0.2,0-0.4,0.1-0.4,0.4c-0.1,0.5-0.1,1.1-0.1,1.6c0,1.1,0.4,2.1,1.1,2.9v0.8c-0.1,0.7,0,1.5,0.3,2.2c0.2,0.3,0.6,0.5,1.2,0.5
					c0.4,0.1,0.7,0.2,1,0.4C46.8,55.8,47.2,56,47.5,56L47.5,56z M50.4,59.7c0.5,0,0.8-0.3,0.8-0.8c0-0.3-0.1-0.7-0.4-0.9
					c-0.3-0.2-0.4-0.6-0.4-1c0-0.2,0-0.5,0.2-0.7c0.1-0.1,0.2-0.3,0.2-0.4c0-0.3-0.3-0.4-0.8-0.4c-0.5,0-0.9,0.3-1.1,0.7
					c-0.3,0.6-0.4,1.3-0.4,2c-0.7,0.2-1.1,0.4-1.1,0.8s0.6,0.5,1.8,0.5c0.2,0,0.4,0,0.6,0.1C50,59.7,50.2,59.7,50.4,59.7L50.4,59.7z
					 M65,62.1c0.4-0.1,0.8-0.2,1.2-0.4c0.6-0.3,0.9-0.5,0.9-0.7c0-0.1-0.1-0.2-0.1-0.3c-0.1-0.1-0.1-0.2-0.1-0.3
					c0-0.2,0.2-0.3,0.5-0.3c0.5,0.1,0.9,0.3,1.2,0.7c0.5,0.5,1.2,0.7,1.9,0.7c0.7,0,1-0.2,1-0.6s-0.5-0.8-1.6-0.9l-1.5-1.6v-1.1
					l-1.2-0.3c-0.4-0.3-0.9-0.6-1.3-0.9L64.4,55c-1.1,0-2.1,0-3.1,0s-1.9,0.1-2.9,0.2c-0.4,0.4-0.7,0.8-1,1.3
					c-0.3,0.5-0.6,0.7-1,0.7s-0.4-0.2-0.4-0.4c0-0.3-0.1-0.6-0.3-0.9c-0.2-0.3-0.5-0.4-1.2-0.4c-0.5,0-0.9,0.1-1.3,0.2
					c-0.5,0.1-0.9,0.3-1.3,0.6v0.5c0,0.3,0.2,0.7,0.5,0.8c0.3,0.2,0.5,0.4,0.8,0.6c0.2,0.2,0.4,0.5,0.6,0.8c0.2,0.3,0.6,0.4,1.4,0.4
					c0.4,0,1,0,1.8-0.1s1.6-0.1,2.4-0.1c0.5,0,0.9,0,1.3,0.2c0.2,0.1,0.4,0.3,0.3,0.6c0,0.3-0.1,0.5-0.3,0.7
					c-0.2,0.1-0.3,0.3-0.3,0.5c0,0.4,0.8,0.6,2.4,0.6c0.4,0,0.8,0.1,1.2,0.2C64.3,62.1,64.7,62.1,65,62.1L65,62.1z M53.6,38.4
					c0.1,0,0.8-0.2,2.2-0.7c0.9-0.2,1.8-0.6,2.6-1.2c0.3-0.4,0.6-0.9,1-1.2c0.3-0.4,0.8-0.8,1.3-1.3c0.2-0.2,0.3-0.4,0.4-0.7
					c0.2-0.5,0.3-1,0.3-1.5c0-0.4,0-0.8,0.1-1.3c0.1-0.6,0.1-1.2,0.1-1.8c0-0.4,0.2-0.6,0.7-0.7s0.7-0.5,0.7-1.2S62.7,26,62.5,26
					c-0.8,0-1.3-0.2-1.5-0.6c-0.2-0.4-0.4-0.6-0.6-0.6s-0.4,0.2-0.7,0.5c-0.3,0.6-0.4,1.3-0.3,2c0,1.4,0,2.4-0.1,3.1
					c0,0.6-0.1,1.2-0.3,1.7c-0.1,0.1-0.4,0.4-1,0.9s-0.9,0.8-1.1,1.1c-0.1,0.1-0.3,0.2-0.4,0.2h-1.3c-0.5,0-0.9,0.3-1.2,0.6
					c-0.3,0.4-0.7,0.8-0.9,1.2c-0.1,0.2-0.2,0.4-0.3,0.7c-0.1,0.2-0.1,0.4-0.1,0.5c0,0.3,0.1,0.5,0.3,0.7
					C53.1,38.3,53.3,38.4,53.6,38.4L53.6,38.4z M61.6,89.4c0.5,0,1-0.3,1.4-0.7c0.4-0.3,0.6-0.8,0.7-1.3c0-0.6-0.5-0.8-1.5-0.8
					c-1.2,0-1.7,0.4-1.7,1.2c0,0.4,0.1,0.8,0.4,1.2C61,89.3,61.3,89.5,61.6,89.4L61.6,89.4z M66.6,87.9c0.7-0.1,1.4-0.3,2-0.6
					c0.9-0.4,1.8-0.8,2.7-1.3c0.8-0.5,1.6-1,2.3-1.6c0.6-0.5,1-1,1-1.3c0-0.3-0.1-0.5-0.2-0.7c-0.2-0.3-0.3-0.7-0.5-1
					c-0.2-0.3-0.3-0.7-0.2-1.1c0-0.3-0.1-0.5-0.5-0.5c-0.2,0-0.4,0.1-0.5,0.3c-0.2,0.5-0.2,1-0.2,1.6c0,0.5-0.2,0.9-0.7,1.1
					c-0.5,0.2-0.7,0.7-0.7,1.2c0,0.5-0.1,0.7-0.2,0.7s-0.2-0.2-0.3-0.5s-0.3-0.5-0.5-0.5c-0.4,0.1-0.7,0.2-1,0.5
					c-0.5,0.3-1,0.7-1.5,1c-0.6,0.3-1.1,0.7-1.5,1.2c-0.2,0.2-0.3,0.5-0.3,0.8c0,0.4,0.3,0.8,0.7,0.8C66.6,87.9,66.6,87.9,66.6,87.9
					L66.6,87.9z"/>
			</g>
		</g>
	</g>
</g>
</svg>
