<svg xmlns="http://www.w3.org/2000/svg" viewBox="0 0 847.36 246.97"><defs><style>.cls-1{fill:none;stroke:#000;stroke-linecap:round;stroke-miterlimit:10;stroke-width:8.82px;}</style></defs><title>Asset 52</title><g id="Layer_2" data-name="Layer 2"><g id="Layer_1-2" data-name="Layer 1"><g id="_3f2c33c6-8096-4fcd-b1ee-6ca6db3f46bf" data-name="3f2c33c6-8096-4fcd-b1ee-6ca6db3f46bf"><g id="_3f2c33c6-8096-4fcd-b1ee-6ca6db3f46bf-child-0" data-name="3f2c33c6-8096-4fcd-b1ee-6ca6db3f46bf-child-0"><path class="cls-1" d="M4.41,242.56V4.41H843V242.56Z"/></g></g><g id="f4c2558b-7fcf-402a-8c08-8728113f63fc"><g id="_7a891af5-2959-4e9f-b71b-a308185a4fe0" data-name="7a891af5-2959-4e9f-b71b-a308185a4fe0"><path d="M737.31,132.73H721.82v-2.64l7.68-8.37a18.66,18.66,0,0,0,2.36-3.1,5,5,0,0,0,.71-2.49,3.8,3.8,0,0,0-.93-2.66,3.23,3.23,0,0,0-2.49-1,3.71,3.71,0,0,0-2.9,1.14,4.47,4.47,0,0,0-1,3.12h-3.84a7.49,7.49,0,0,1,1-3.79,6.46,6.46,0,0,1,2.73-2.62,8.77,8.77,0,0,1,4.11-.93,7.81,7.81,0,0,1,5.29,1.68,5.87,5.87,0,0,1,1.94,4.66,7.9,7.9,0,0,1-1,3.62,20.78,20.78,0,0,1-3.19,4.29l-5.63,6h10.69Zm17.94-9.7q0,5-1.85,7.49a6.56,6.56,0,0,1-5.66,2.53,6.67,6.67,0,0,1-5.63-2.46q-1.89-2.46-1.93-7.29v-4c0-3.31.62-5.8,1.86-7.45a7.75,7.75,0,0,1,11.31-.06c1.24,1.61,1.87,4,1.9,7.24Zm-3.84-4.3a9.76,9.76,0,0,0-.89-4.76,3.38,3.38,0,0,0-5.58-.08,9,9,0,0,0-.93,4.47v5.22a10,10,0,0,0,.9,4.81,3,3,0,0,0,2.83,1.59,3,3,0,0,0,2.74-1.47,9.38,9.38,0,0,0,.93-4.58Zm22.74,14H758.66v-2.64l7.67-8.37a18.82,18.82,0,0,0,2.37-3.1,5,5,0,0,0,.7-2.49,3.8,3.8,0,0,0-.93-2.66,3.2,3.2,0,0,0-2.49-1,3.67,3.67,0,0,0-2.89,1.14,4.47,4.47,0,0,0-1,3.12h-3.85a7.49,7.49,0,0,1,1-3.79,6.54,6.54,0,0,1,2.74-2.62,8.73,8.73,0,0,1,4.1-.93,7.82,7.82,0,0,1,5.3,1.68,5.86,5.86,0,0,1,1.93,4.66,7.9,7.9,0,0,1-1,3.62,20.42,20.42,0,0,1-3.19,4.29l-5.63,6h10.7Zm3.22-9.37a24.23,24.23,0,0,1,1-6.93,19.24,19.24,0,0,1,2.88-5.87,11.52,11.52,0,0,1,4-3.64l.76,2.25a11.69,11.69,0,0,0-3.61,5.17,22.82,22.82,0,0,0-1.51,8l0,1.36a25.23,25.23,0,0,0,1.35,8.55,12.69,12.69,0,0,0,3.79,5.72l-.76,2.14a11.56,11.56,0,0,1-4-3.65,19,19,0,0,1-2.88-5.87,25,25,0,0,1-1-7.18Zm24,1.16h2.86v3.08h-2.86v5.13h-3.85V127.6h-9.95l-.11-2.34,9.93-15.57h4Zm-9.88,0h6V114.9l-.28.5Zm23-.9a23.6,23.6,0,0,1-1,6.78,19.44,19.44,0,0,1-2.93,5.95,11.52,11.52,0,0,1-4.09,3.71l-.76-2.14a12.21,12.21,0,0,0,3.75-5.61,24.69,24.69,0,0,0,1.39-8.61v-.37a25.32,25.32,0,0,0-1.2-8,14.28,14.28,0,0,0-3.45-5.8l-.49-.44.76-2.16a11.5,11.5,0,0,1,3.92,3.48,18.65,18.65,0,0,1,2.91,5.6,23.69,23.69,0,0,1,1.14,6.38Z"/></g></g><g id="f47697ef-6891-4e49-abca-00cce6777d72"><g id="c39a8587-ec40-483e-879d-976d9ce5002b"><path d="M216.57,59.45,214.14,62v6.69h-3.73V47.25h3.73V57.32l2.07-2.55,6.28-7.52H227l-8,9.51,8.43,12H223Zm16.34,9.27h-3.58V52.77h3.58Zm-3.8-20.09a1.93,1.93,0,0,1,.52-1.38,2.35,2.35,0,0,1,3,0,1.93,1.93,0,0,1,.53,1.38,1.82,1.82,0,0,1-.53,1.34,2.35,2.35,0,0,1-3,0A1.82,1.82,0,0,1,229.11,48.63Zm12.19.26v3.88h2.81v2.65H241.3v8.91a2,2,0,0,0,.36,1.32,1.67,1.67,0,0,0,1.29.4,5.4,5.4,0,0,0,1.25-.15v2.78a9,9,0,0,1-2.36.33q-4.12,0-4.12-4.55v-9h-2.63V52.77h2.63V48.89Zm10,0v3.88h2.81v2.65h-2.81v8.91a2,2,0,0,0,.36,1.32,1.67,1.67,0,0,0,1.29.4,5.4,5.4,0,0,0,1.25-.15v2.78a9,9,0,0,1-2.36.33q-4.12,0-4.13-4.55v-9h-2.62V52.77h2.62V48.89Zm9.36,19.83h-3.58V46.08h3.58Zm25.18-9c0,3.09-.58,5.41-1.73,7a7.11,7.11,0,0,1-10.51.06q-1.77-2.3-1.81-6.79V56.22c0-3.09.58-5.4,1.73-6.95a7.22,7.22,0,0,1,10.54-.05c1.15,1.5,1.75,3.75,1.78,6.75Zm-3.58-4a9.1,9.1,0,0,0-.83-4.43,3.15,3.15,0,0,0-5.2-.07,8.38,8.38,0,0,0-.87,4.16V60.2a9.29,9.29,0,0,0,.84,4.48,2.82,2.82,0,0,0,2.64,1.47,2.77,2.77,0,0,0,2.55-1.36,8.78,8.78,0,0,0,.87-4.27Zm21.18,13H289.05V66.26l7.15-7.8a17.5,17.5,0,0,0,2.2-2.88,4.66,4.66,0,0,0,.66-2.32,3.55,3.55,0,0,0-.86-2.48,3,3,0,0,0-2.33-1,3.42,3.42,0,0,0-2.69,1.07,4.16,4.16,0,0,0-1,2.9h-3.58a7.07,7.07,0,0,1,.89-3.53,6.07,6.07,0,0,1,2.55-2.44A8.12,8.12,0,0,1,295.9,47a7.27,7.27,0,0,1,4.94,1.57,5.46,5.46,0,0,1,1.8,4.34,7.3,7.3,0,0,1-.91,3.37,18.86,18.86,0,0,1-3,4l-5.24,5.62h10ZM314,60a22.42,22.42,0,0,1,.91-6.46,18,18,0,0,1,2.68-5.47,10.65,10.65,0,0,1,3.75-3.39l.71,2.1a10.93,10.93,0,0,0-3.37,4.81A21.62,21.62,0,0,0,317.28,59v1.27a23.51,23.51,0,0,0,1.26,8,11.8,11.8,0,0,0,3.53,5.33l-.71,2a10.69,10.69,0,0,1-3.75-3.4,17.79,17.79,0,0,1-2.69-5.47A23.53,23.53,0,0,1,314,60Zm27.27,5.94a7.09,7.09,0,0,1-3.23,2.3,13.18,13.18,0,0,1-4.69.78,9.3,9.3,0,0,1-4.77-1.22,8.08,8.08,0,0,1-3.21-3.5A12.28,12.28,0,0,1,324.21,59V57.29q0-4.86,2.33-7.6A8.08,8.08,0,0,1,333,47a8.57,8.57,0,0,1,5.69,1.77,7.63,7.63,0,0,1,2.54,5.1h-3.66a4.11,4.11,0,0,0-4.5-3.88,4.39,4.39,0,0,0-3.81,1.81,9.2,9.2,0,0,0-1.35,5.3v1.65a8.71,8.71,0,0,0,1.47,5.4A4.83,4.83,0,0,0,333.5,66c1.91,0,3.26-.43,4.07-1.3v-4.2h-4.43V57.71h8.14ZM353.38,56a8.6,8.6,0,0,0-1.45-.12,3.28,3.28,0,0,0-3.32,1.89V68.72H345V52.77h3.42l.08,1.78a4,4,0,0,1,3.6-2.08,3.3,3.3,0,0,1,1.27.21Zm11.36,12.68a5.5,5.5,0,0,1-.42-1.49A5.56,5.56,0,0,1,360.14,69a5.62,5.62,0,0,1-3.92-1.37,4.38,4.38,0,0,1-1.52-3.39,4.53,4.53,0,0,1,1.89-3.91A9.19,9.19,0,0,1,362,59h2.2v-1a2.52,2.52,0,0,0-2.81-2.73,3.14,3.14,0,0,0-2,.61,1.9,1.9,0,0,0-.78,1.56H355a4,4,0,0,1,.87-2.46,5.82,5.82,0,0,1,2.36-1.79,8.36,8.36,0,0,1,3.34-.65,6.69,6.69,0,0,1,4.47,1.41,5,5,0,0,1,1.71,4V65a8.2,8.2,0,0,0,.6,3.44v.25Zm-3.94-2.58a4,4,0,0,0,2-.52,3.47,3.47,0,0,0,1.41-1.38v-3h-1.94a5.29,5.29,0,0,0-3,.69,2.25,2.25,0,0,0-1,2,2.13,2.13,0,0,0,.68,1.65A2.65,2.65,0,0,0,360.8,66.14Zm24.71-5.23a9.48,9.48,0,0,1-1.68,5.9,5.84,5.84,0,0,1-8.71.48v7.56h-3.59V52.77h3.31l.14,1.62a5.25,5.25,0,0,1,4.29-1.92,5.45,5.45,0,0,1,4.58,2.18,9.72,9.72,0,0,1,1.66,6Zm-3.57-.31a6.69,6.69,0,0,0-.95-3.79,3.09,3.09,0,0,0-2.72-1.4,3.27,3.27,0,0,0-3.15,1.81V64.3a3.33,3.33,0,0,0,3.18,1.85A3.12,3.12,0,0,0,381,64.78,7.36,7.36,0,0,0,381.94,60.6Zm10.13-6.09a5.6,5.6,0,0,1,4.44-2q5.1,0,5.17,5.83V68.72H398.1V58.43a3.15,3.15,0,0,0-.72-2.34,2.93,2.93,0,0,0-2.1-.68,3.46,3.46,0,0,0-3.21,1.91v11.4h-3.58V46.08h3.58Zm20.14,5.72a22.2,22.2,0,0,1-.9,6.32,17.91,17.91,0,0,1-2.73,5.54,10.65,10.65,0,0,1-3.82,3.46l-.71-2a11.28,11.28,0,0,0,3.51-5.23,23.24,23.24,0,0,0,1.29-8V60a23.41,23.41,0,0,0-1.12-7.46,13.19,13.19,0,0,0-3.22-5.41l-.46-.41.71-2a10.63,10.63,0,0,1,3.66,3.25,17.58,17.58,0,0,1,2.71,5.21,21.68,21.68,0,0,1,1.06,5.95Z"/></g></g><g id="d22cc1a2-ca59-457b-bb43-85a8bdbe650a"><g id="_9fd00e5b-52aa-4a60-85a1-d93c0a61b8ad" data-name="9fd00e5b-52aa-4a60-85a1-d93c0a61b8ad"><path d="M222.25,186.56v3.18h-.48a7.64,7.64,0,0,0-5.16,1.77,7.39,7.39,0,0,0-2.29,4.89,6.26,6.26,0,0,1,4.73-1.94,5.93,5.93,0,0,1,4.82,2.15,8.48,8.48,0,0,1,1.76,5.55,7.94,7.94,0,0,1-2.06,5.69,7.15,7.15,0,0,1-5.42,2.18,7,7,0,0,1-5.59-2.55,10,10,0,0,1-2.15-6.68v-1.31q0-6.06,3-9.49t8.49-3.44Zm-4.13,11a4.07,4.07,0,0,0-2.32.71,4.17,4.17,0,0,0-1.54,1.9v1.17a6.94,6.94,0,0,0,1.07,4.07,3.3,3.3,0,0,0,2.79,1.52,3.22,3.22,0,0,0,2.7-1.29,5.3,5.3,0,0,0,1-3.37,5.45,5.45,0,0,0-1-3.4,3.26,3.26,0,0,0-2.69-1.31ZM244,188.81l-9.21,20.9h-4l9.19-20H228.07v-3.09h16Zm17.6,3.94a5.34,5.34,0,0,1-.87,3,6,6,0,0,1-2.38,2.08,6.57,6.57,0,0,1,2.78,2.3,5.76,5.76,0,0,1,1,3.29,6,6,0,0,1-2.05,4.82,9.34,9.34,0,0,1-11,0,6.06,6.06,0,0,1-2.06-4.81,5.88,5.88,0,0,1,1-3.32,6.25,6.25,0,0,1,2.75-2.27,6.08,6.08,0,0,1-2.35-2.08,5.41,5.41,0,0,1-.86-3,6,6,0,0,1,1.9-4.67,8.53,8.53,0,0,1,10.27,0,6,6,0,0,1,1.9,4.67Zm-3.34,10.49a3.79,3.79,0,0,0-1-2.76,4,4,0,0,0-5.38,0,3.82,3.82,0,0,0-1,2.77,3.68,3.68,0,0,0,1,2.7,3.63,3.63,0,0,0,2.73,1,3.68,3.68,0,0,0,2.72-1,3.73,3.73,0,0,0,1-2.74Zm-.49-10.35a3.59,3.59,0,0,0-.87-2.48,3,3,0,0,0-2.34-1,3,3,0,0,0-2.33.93,3.54,3.54,0,0,0-.85,2.52,3.62,3.62,0,0,0,.86,2.52,3,3,0,0,0,2.33.93,3.05,3.05,0,0,0,2.34-.93A3.62,3.62,0,0,0,257.8,192.89Zm10.38,12.77a2.19,2.19,0,0,1,1.66.61,2.13,2.13,0,0,1,.58,1.53,2,2,0,0,1-.58,1.49,2.26,2.26,0,0,1-1.66.59,2.23,2.23,0,0,1-1.63-.58,2,2,0,0,1-.6-1.5,2.13,2.13,0,0,1,.58-1.53A2.17,2.17,0,0,1,268.18,205.66Zm21.9,4.05H274.59v-2.64l7.67-8.37a18.82,18.82,0,0,0,2.37-3.1,5,5,0,0,0,.7-2.49,3.8,3.8,0,0,0-.93-2.66,3.2,3.2,0,0,0-2.49-1,3.67,3.67,0,0,0-2.89,1.14,4.47,4.47,0,0,0-1,3.12h-3.85a7.49,7.49,0,0,1,1-3.79,6.54,6.54,0,0,1,2.74-2.62,8.73,8.73,0,0,1,4.1-.93,7.82,7.82,0,0,1,5.3,1.68,5.86,5.86,0,0,1,1.93,4.66,7.9,7.9,0,0,1-1,3.62,20.42,20.42,0,0,1-3.19,4.29l-5.63,6h10.7Zm7.37-13.27h2.34a4.2,4.2,0,0,0,2.81-.92,3.27,3.27,0,0,0,1-2.61,3.56,3.56,0,0,0-.87-2.56,3.44,3.44,0,0,0-2.63-.91,3.68,3.68,0,0,0-2.55.9,3,3,0,0,0-1,2.33h-3.84a5.81,5.81,0,0,1,.94-3.23,6.36,6.36,0,0,1,2.63-2.27,8.58,8.58,0,0,1,3.77-.81,7.94,7.94,0,0,1,5.42,1.73,6.08,6.08,0,0,1,2,4.82,4.9,4.9,0,0,1-1,2.92,6.27,6.27,0,0,1-2.55,2.06,5.63,5.63,0,0,1,2.88,2,5.57,5.57,0,0,1,1,3.32,6.18,6.18,0,0,1-2.13,4.94,9.31,9.31,0,0,1-11,.06,5.84,5.84,0,0,1-2.12-4.71h3.84a3.22,3.22,0,0,0,1,2.47,3.89,3.89,0,0,0,2.75,1,4,4,0,0,0,2.81-1,3.55,3.55,0,0,0,1-2.76,3.63,3.63,0,0,0-1.07-2.8,4.64,4.64,0,0,0-3.2-1h-2.26Zm40.23,5.77A8.26,8.26,0,0,1,335,208a9.24,9.24,0,0,1-6.31,2.07,9,9,0,0,1-4.85-1.31,8.44,8.44,0,0,1-3.23-3.71,13.32,13.32,0,0,1-1.19-5.58v-2.16a13.46,13.46,0,0,1,1.15-5.74,8.77,8.77,0,0,1,3.32-3.83,9.29,9.29,0,0,1,5-1.34,8.9,8.9,0,0,1,6.14,2.07,8.63,8.63,0,0,1,2.7,5.85h-4a5.72,5.72,0,0,0-1.45-3.58,4.79,4.79,0,0,0-3.41-1.1,4.68,4.68,0,0,0-4,1.91,9.52,9.52,0,0,0-1.43,5.59v2a10.13,10.13,0,0,0,1.33,5.7,4.44,4.44,0,0,0,3.92,2,5.15,5.15,0,0,0,3.54-1.06,5.53,5.53,0,0,0,1.51-3.53ZM351.26,208a6,6,0,0,1-4.81,2,5.33,5.33,0,0,1-4.22-1.63,7,7,0,0,1-1.43-4.72V192.59h3.85v11c0,2.17.9,3.26,2.7,3.26s3.13-.67,3.78-2V192.59H355v17.12h-3.63Zm17.23-3a1.74,1.74,0,0,0-.85-1.57,8.73,8.73,0,0,0-2.8-1,14.26,14.26,0,0,1-3.28-1c-1.92-.93-2.88-2.27-2.88-4a4.55,4.55,0,0,1,1.87-3.7,7.36,7.36,0,0,1,4.74-1.49,7.69,7.69,0,0,1,5,1.52,4.8,4.8,0,0,1,1.9,3.94H368.3a2.37,2.37,0,0,0-.82-1.84,3.17,3.17,0,0,0-2.19-.74,3.4,3.4,0,0,0-2.06.59,1.85,1.85,0,0,0-.8,1.57,1.56,1.56,0,0,0,.74,1.37,10.12,10.12,0,0,0,3,1,14,14,0,0,1,3.55,1.19,5.11,5.11,0,0,1,1.92,1.65,4.3,4.3,0,0,1,.62,2.34,4.46,4.46,0,0,1-1.91,3.74,8.15,8.15,0,0,1-5,1.44,8.82,8.82,0,0,1-3.75-.76,6.2,6.2,0,0,1-2.56-2.09,5,5,0,0,1-.92-2.87h3.74a2.7,2.7,0,0,0,1,2.1,4,4,0,0,0,2.52.74,3.86,3.86,0,0,0,2.31-.58A1.79,1.79,0,0,0,368.49,205.06Zm11.95-16.63v4.16h3v2.85h-3V205a2.15,2.15,0,0,0,.38,1.42,1.81,1.81,0,0,0,1.39.44,5.64,5.64,0,0,0,1.34-.16v3A9.17,9.17,0,0,1,381,210q-4.42,0-4.43-4.89v-9.7h-2.82v-2.85h2.82v-4.16ZM385.2,201a10,10,0,0,1,1-4.53,7.16,7.16,0,0,1,2.8-3.1,7.8,7.8,0,0,1,4.14-1.09,7.48,7.48,0,0,1,5.63,2.23,8.77,8.77,0,0,1,2.33,5.92l0,.9a10.19,10.19,0,0,1-1,4.53,7.17,7.17,0,0,1-2.78,3.08,7.94,7.94,0,0,1-4.19,1.1,7.44,7.44,0,0,1-5.8-2.42,9.24,9.24,0,0,1-2.17-6.43Zm3.84.33a6.86,6.86,0,0,0,1.1,4.14,3.8,3.8,0,0,0,6.06,0,7.57,7.57,0,0,0,1.09-4.45,6.75,6.75,0,0,0-1.12-4.11,3.76,3.76,0,0,0-6,0,7.48,7.48,0,0,0-1.11,4.47ZM408,192.59l.11,1.79a6.16,6.16,0,0,1,4.94-2.11c2.29,0,3.85.88,4.7,2.63a6.09,6.09,0,0,1,5.25-2.63,5.33,5.33,0,0,1,4.22,1.57,6.93,6.93,0,0,1,1.41,4.62v11.25h-3.84V198.57a3.43,3.43,0,0,0-.71-2.39,3.1,3.1,0,0,0-2.36-.76,3.19,3.19,0,0,0-2.14.71,3.8,3.8,0,0,0-1.17,1.84l0,11.74h-3.85V198.44a2.74,2.74,0,0,0-3.08-3,3.4,3.4,0,0,0-3.28,1.89v12.4h-3.84V192.59Zm28.67,17.12h-3.84V192.59h3.84Zm-4.08-21.57a2.06,2.06,0,0,1,.56-1.47,2.12,2.12,0,0,1,1.61-.58,2.15,2.15,0,0,1,1.61.58,2,2,0,0,1,.57,1.47,2,2,0,0,1-.57,1.45,2.15,2.15,0,0,1-1.61.58,2.12,2.12,0,0,1-1.61-.58A2,2,0,0,1,432.57,188.14Zm12.37,18.5h9.12v3.07h-13.9v-2.52l8.69-11.5h-8.53v-3.1h13.4V195ZM464.42,210a8,8,0,0,1-5.93-2.31,8.36,8.36,0,0,1-2.27-6.13v-.47a10.27,10.27,0,0,1,1-4.58A7.53,7.53,0,0,1,460,193.4a7.33,7.33,0,0,1,4-1.13,6.7,6.7,0,0,1,5.4,2.23,9.47,9.47,0,0,1,1.91,6.32v1.55H460.1a5.09,5.09,0,0,0,1.42,3.35,4.23,4.23,0,0,0,3.12,1.24,5.21,5.21,0,0,0,4.31-2.14l2.07,2a7,7,0,0,1-2.75,2.38,8.48,8.48,0,0,1-3.85.85ZM464,195.36a3.23,3.23,0,0,0-2.55,1.11,5.69,5.69,0,0,0-1.25,3.08h7.33v-.28a4.71,4.71,0,0,0-1-2.92A3.2,3.2,0,0,0,464,195.36Z"/></g></g><g id="b64946dc-77d6-4bdd-b322-dd578bd01e1e"><g id="b64946dc-77d6-4bdd-b322-dd578bd01e1e-child-0"><path d="M210.41,146.47v-38.6h65.93v38.6Z"/></g></g><g id="_6ef03190-e6ab-4b70-8251-efcc4ab1383a" data-name="6ef03190-e6ab-4b70-8251-efcc4ab1383a"><g id="_6ef03190-e6ab-4b70-8251-efcc4ab1383a-child-0" data-name="6ef03190-e6ab-4b70-8251-efcc4ab1383a-child-0"><path d="M238,140.64a14,14,0,1,1,3.88-27.42l-1.36,4.7a9.24,9.24,0,0,0-2.52-.35,9.09,9.09,0,1,0,0,18.17,9.24,9.24,0,0,0,2.52-.35l1.36,4.7A14.1,14.1,0,0,1,238,140.64Z"/></g><g id="_6ef03190-e6ab-4b70-8251-efcc4ab1383a-child-1" data-name="6ef03190-e6ab-4b70-8251-efcc4ab1383a-child-1"><path d="M258.88,135.74a9.11,9.11,0,0,1-8.76-6.64h6.66v-4.89h-6.66a9.11,9.11,0,0,1,8.76-6.64,9.29,9.29,0,0,1,2.52.35l1.36-4.7a14.15,14.15,0,0,0-3.88-.55,14,14,0,1,0,0,28,14.15,14.15,0,0,0,3.88-.55l-1.36-4.7A9.29,9.29,0,0,1,258.88,135.74Z"/></g></g><g id="_109e1008-8181-4c90-bcd6-b00e11cc2891" data-name="109e1008-8181-4c90-bcd6-b00e11cc2891"><g id="_109e1008-8181-4c90-bcd6-b00e11cc2891-child-0" data-name="109e1008-8181-4c90-bcd6-b00e11cc2891-child-0"><path d="M563.06,209.94A82.65,82.65,0,1,1,586,47.88l-8,27.8a53.72,53.72,0,1,0,0,103.23l8,27.8A82.75,82.75,0,0,1,563.06,209.94Z"/></g><g id="_109e1008-8181-4c90-bcd6-b00e11cc2891-child-1" data-name="109e1008-8181-4c90-bcd6-b00e11cc2891-child-1"><path d="M686.58,181a53.81,53.81,0,0,1-51.73-39.25h39.32V112.83H634.85A53.77,53.77,0,0,1,701.5,75.68l8-27.8a82.65,82.65,0,1,0,0,158.83l-8-27.8A53.83,53.83,0,0,1,686.58,181Z"/></g></g><g id="a5804991-cc4e-4254-8c81-798b38673a1f"><g id="a5804991-cc4e-4254-8c81-798b38673a1f-child-0"><path d="M100.07,46.51a91.65,91.65,0,0,1,14.9.69c.79.14,1.88.41,2,1.34a1.62,1.62,0,0,1-1.47,2,82.32,82.32,0,0,0-17.68-.7c-2.65.08-5.25.54-7.87.81a1.62,1.62,0,0,1-1.44-2.45c.5-.82,1.52-.86,2.34-1,3-.43,6.11-.57,9.16-.77ZM77,54a1.82,1.82,0,0,0-.82,3c.44.48,1.16.35,1.72.21a65.71,65.71,0,0,1,7.61-1.66c.53-.13,1.16-.16,1.48-.65a1.86,1.86,0,0,0-.08-2.15,2.06,2.06,0,0,0-2.12-.51C82.13,52.78,79.52,53.29,77,54Zm11.65.77a1.62,1.62,0,0,0,1,2.44c1.75.06,3.47-.48,5.24-.58a64.85,64.85,0,0,1,8.81-.46,121.43,121.43,0,0,1,16.92,1.21,69,69,0,0,1,14.32,3.76,6.94,6.94,0,0,0,2.63.81,1.72,1.72,0,0,0,1.37-2,2.2,2.2,0,0,0-1.48-1.35,86.93,86.93,0,0,0-13.88-4c-.81-.21-18.53-3.86-33.46-.66A2.53,2.53,0,0,0,88.6,54.8Zm26,6.28c-.08-1.13-.89-1.41-2.55-1.66-6-1-17.33-.51-25.73,1a99.5,99.5,0,0,0-17.16,4c-.89.32-2.08.47-2.51,1.45a1.84,1.84,0,0,0,.59,2.2A2.07,2.07,0,0,0,69,67.94c2.21-.73,4.41-1.49,6.66-2.13,3.73-1,17.68-3.33,18.27-3a98.72,98.72,0,0,1,18.83,0,1.6,1.6,0,0,0,1.85-1.74Zm6,2.13c6,1.39,12,3,17.46,6a80.31,80.31,0,0,1,7.44,3.68c1.12.47,2,1.49,3.24,1.6a2,2,0,0,0,1.38-.73,1.81,1.81,0,0,0-.25-2c-.64-.76-1.67-.92-2.42-1.51-4.11-2-8.17-4.14-12.36-6a88.54,88.54,0,0,0-12.4-3.84c-.72-.09-1.46-.46-2.18-.17a1.59,1.59,0,0,0,.08,3Zm.24,4.62c-.76-.48-8.85-1.37-10.62-1.45a97.53,97.53,0,0,0-12.51.08A127.62,127.62,0,0,0,78.1,69.82c-.76.21-1.78.34-2,1.21a1.48,1.48,0,0,0,.7,1.91,2.2,2.2,0,0,0,1.81.13s11.62-3.2,20.24-3.41q6.17-.14,12.33,0c2.72.21,5.41.64,8.12,1a2.51,2.51,0,0,0,2-.38,1.62,1.62,0,0,0-.47-2.45ZM128,72a23.67,23.67,0,0,0,4,1.59c2.19.78,4.33,1.72,6.5,2.55a69.86,69.86,0,0,1,12.28,7,26.08,26.08,0,0,1,3.09,2.27,7.15,7.15,0,0,0,2.29,1.42A1.67,1.67,0,0,0,157.68,85c-.15-1.33-1.56-1.83-2.42-2.66A79.09,79.09,0,0,0,141.35,74a120.59,120.59,0,0,0-11.46-4.59c-.47-.13-1-.38-1.49-.13A1.6,1.6,0,0,0,128,72Zm-59.47.53c-2.33.87-4.59,1.86-6.84,2.93a1.86,1.86,0,0,0-1.07,2c.1.76.87,1.21,1.53,1.46a7.35,7.35,0,0,0,1.76-.75c1.29-.66,2.66-1.19,4-1.83,1.71-.83,3.59-1.24,5.2-2.23,1.06-.92.22-3.23-1.33-2.75a17.8,17.8,0,0,0-3.2,1.24Zm71.86,8.92c-.38-1.26-1.86-1.45-2.85-2.06a69.73,69.73,0,0,0-9.92-3.55,78.41,78.41,0,0,0-23.71-3.27A81.91,81.91,0,0,0,81.83,76.1,81.17,81.17,0,0,0,70.61,80,77.52,77.52,0,0,0,59,85.77a34.11,34.11,0,0,0-3.81,2.71,2,2,0,0,0-.77,2.32,1.33,1.33,0,0,0,1.58.86,25,25,0,0,0,2.72-1.73,88.59,88.59,0,0,1,12.35-6.68C88,75.16,107.83,74.7,120.4,77.33a75,75,0,0,1,17.41,5.8,2.65,2.65,0,0,0,1.58.44,1.63,1.63,0,0,0,1-2.09ZM90.24,81A1.73,1.73,0,0,0,89.59,84c.75.51,1.67.19,2.48.08a77.85,77.85,0,0,1,8.59-1.21,80.39,80.39,0,0,1,8.36-.21c.78,0,1.74.21,2.31-.48a1.65,1.65,0,0,0-.65-2.56,6.43,6.43,0,0,0-2.36-.21,67.51,67.51,0,0,0-7,.16C97.84,79.72,91.87,80.42,90.24,81Zm30.4,1.35a1.8,1.8,0,0,0,1.22,1.6c1.42.63,3,.87,4.43,1.37a22.15,22.15,0,0,0,3.17.94A1.65,1.65,0,0,0,131,84.54a2.39,2.39,0,0,0-1.71-1.78,47.64,47.64,0,0,0-6.86-2,1.44,1.44,0,0,0-1.82,1.6ZM72.37,85.9a60.74,60.74,0,0,0-6.25,3.26C62,91.79,57.71,94.4,54.24,97.93a71.54,71.54,0,0,0-12.45,16.13,1.61,1.61,0,0,0-.11,1.29,1.63,1.63,0,0,0,2.2,1c.57-.16.8-.78,1.12-1.21a56.4,56.4,0,0,1,5.29-8c.68-.7,1.13-1.64,2-2.17,1.34-1.67,2.81-3.23,4.26-4.81A14.24,14.24,0,0,0,58,98.9a47.3,47.3,0,0,1,5.56-4.19,65.94,65.94,0,0,1,10.67-6,29.83,29.83,0,0,0,3.6-1.74,1.79,1.79,0,0,0,.35-1.73,1.65,1.65,0,0,0-2-1.07,30,30,0,0,0-3.83,1.74Zm61.81,2a103.81,103.81,0,0,1,9.59,5c1.61.82,3,2,4.51,2.93A8.61,8.61,0,0,0,149.71,97c.74.4,1.21,1.13,1.93,1.56a23.19,23.19,0,0,1,2.39,2,57.18,57.18,0,0,1,7,8.09,65.09,65.09,0,0,1,4,6.92,1.65,1.65,0,0,0,2.43.44,1.92,1.92,0,0,0,.45-1.92,17.11,17.11,0,0,0-1.21-2.28c-1.05-1.74-2-3.52-3.2-5.15a51.09,51.09,0,0,0-6.95-8.16c-.91-1-2.07-1.78-3-2.78a49,49,0,0,0-4.07-2.87c-3.81-3-8.21-5.07-12.48-7.28-.81-.35-1.62-1-2.56-.77-1.41.35-1.47,2.5-.24,3.13ZM84.06,89.24A68.09,68.09,0,0,0,70.6,95.06a56.4,56.4,0,0,0-5.9,3.61c-4.39,3.27-8.81,6.65-12.3,10.92A49.05,49.05,0,0,0,41.54,132.8a4.58,4.58,0,0,0,.05,2.21c.17.47.71.56,1.14.67a1.72,1.72,0,0,0,1.9-1.37c.38-1.5.45-3.06.78-4.59.89-4.12,2.9-7.87,4.92-11.51a39.31,39.31,0,0,1,3.13-4.78c.54-.77,1.25-1.37,1.81-2.12a60.71,60.71,0,0,1,7.41-7c2.53-2,5.27-3.73,8-5.5,2-1.15,4-2.17,6.06-3.22a92.79,92.79,0,0,1,10.14-3.79,74.22,74.22,0,0,1,15-3.14,2.07,2.07,0,0,0,2-1,1.89,1.89,0,0,0-.28-1.86,2.68,2.68,0,0,0-2.31-.48,88.69,88.69,0,0,0-17.19,3.93Zm22.3-1.37c.85.83,2.09.51,3.16.59a66.89,66.89,0,0,1,27.54,7.27c1.66,1,3.41,1.78,5,2.91a78.15,78.15,0,0,1,6.4,4.72c.9,1,2,1.7,2.86,2.74.73.65,1.29,1.48,2,2.15,1,1,1.64,2.42,2.93,3.14a1.45,1.45,0,0,0,2-1.34c.12-.83-.54-1.45-1-2.07a49.24,49.24,0,0,0-6.28-6.47,42.73,42.73,0,0,0-7.4-5.58,39.5,39.5,0,0,0-4.81-2.85c-7.79-4.36-16.65-6.42-25.45-7.55a36.19,36.19,0,0,0-6.58-.24,1.59,1.59,0,0,0-.43,2.61Zm42.32-.12c0,.9.92,1.3,1.54,1.78a72.53,72.53,0,0,1,10.41,9.32,12,12,0,0,0,2.13,2.31,1.58,1.58,0,0,0,2-2c-.52-1.39-1.83-2.21-2.69-3.36s-2-1.91-2.88-3c-1.5-1.29-2.89-2.69-4.5-3.85a21.84,21.84,0,0,0-3-2.36c-.57-.38-1.23-.91-2-.67a1.57,1.57,0,0,0-1.08,1.8Zm-60.91,7a51.08,51.08,0,0,0-13.22,6.74,32.7,32.7,0,0,0-3.63,3.11c-1.17,1.22-2.54,2.24-3.6,3.58a49.7,49.7,0,0,0-7.83,11,49.52,49.52,0,0,0-5.16,13c-.65,2.87-.89,5.9-2.36,8.51a21,21,0,0,1-5.13,5.35c-.78.61-2,.93-2.11,2.07a1.62,1.62,0,0,0,2,1.79,15.48,15.48,0,0,0,2.8-1.86A17.14,17.14,0,0,0,56,139.6c.75-2.2,1-4.49,1.59-6.74,1.4-6.8,4.94-12.9,8.84-18.56a37.24,37.24,0,0,1,3.27-4c1.7-1.45,3.19-3.14,4.84-4.65a39.54,39.54,0,0,1,4.64-3.27,53.09,53.09,0,0,1,5.08-2.78,59.79,59.79,0,0,1,16-4.61,58.66,58.66,0,0,1,9.91-.33,58.63,58.63,0,0,1,9.8,1.14,1.55,1.55,0,0,0,1.85-1.38,1.51,1.51,0,0,0-1.26-1.79,61.06,61.06,0,0,0-16.07-1.29,58.86,58.86,0,0,0-16.75,3.4Zm41,3.48a9,9,0,0,0,2.36,1.11,38,38,0,0,1,7.07,3.6c.85.4,1.52,1.2,2.47,1.29a1.44,1.44,0,0,0,1.63-1.43c.06-1.36-1.33-2-2.35-2.57a58.6,58.6,0,0,0-9.08-4.6,2.33,2.33,0,0,0-1.49-.21,1.66,1.66,0,0,0-.61,2.79Zm-28-.31a63.34,63.34,0,0,0-14.94,4.78,55.32,55.32,0,0,0-8.46,5,47.11,47.11,0,0,0-13.43,15.82,19.88,19.88,0,0,0-1.72,4.11c-.26,1,.73,1.77,1.64,1.77a1.92,1.92,0,0,0,1.4-1.06,44.23,44.23,0,0,1,2.57-5.1,43.09,43.09,0,0,1,10.56-12.17c1.78-1.15,3.47-2.47,5.34-3.51a54,54,0,0,1,22-7c2.22-.18,4.45,0,6.68-.11a1.56,1.56,0,0,0,1.17-2.3c-.39-.89-1.49-.89-2.32-.91a45.28,45.28,0,0,0-5.94.15,37.53,37.53,0,0,0-4.51.55Zm20.6,3.3c.24.75,1,1,1.71,1.32a44,44,0,0,1,9.71,4,46.47,46.47,0,0,1,4.88,3.25,47.27,47.27,0,0,1,10.63,11,33.71,33.71,0,0,1,4.68,8.78,38.08,38.08,0,0,1,2.37,10.18,62.55,62.55,0,0,1,.18,9.78,93.51,93.51,0,0,1-1.9,11.76,86.14,86.14,0,0,1-13.73,30.38,56.17,56.17,0,0,1-4.41,5.78,47.82,47.82,0,0,1-4.69,5.07,2.53,2.53,0,0,0-1.08,2.24,1.5,1.5,0,0,0,1.69,1.44A2.64,2.64,0,0,0,133,205a39.61,39.61,0,0,1,2.82-3,87.58,87.58,0,0,0,7.74-9.91c1.61-2.31,2.92-4.79,4.42-7.18,1.72-3.25,3.23-6.6,4.65-10a82.45,82.45,0,0,0,6-25,49.7,49.7,0,0,0,.11-9.29c-.14-1.41-.35-2.82-.59-4.22a42.61,42.61,0,0,0-6.51-16.52,46.54,46.54,0,0,0-8.22-9.43,47.06,47.06,0,0,0-16.06-10c-1.24-.46-2.45-1-3.73-1.32a2.69,2.69,0,0,0-1.46,0,1.48,1.48,0,0,0-.83,2.09Zm-31.73,6.21a48,48,0,0,0-11.78,7.71,53.54,53.54,0,0,0-5.27,5.88,38.77,38.77,0,0,0-5.26,9.12,49.28,49.28,0,0,0-3,12.57c-.35,2.29-.64,4.68-1.85,6.72a30.47,30.47,0,0,1-4.74,6.15c-1.12.89-2,2-3.19,2.85-1.48,1.48-3.23,2.66-4.84,4-1,.61-1.82,1.47-2.87,2-.67.46-1.66,1-1.58,1.91A1.61,1.61,0,0,0,46.38,168c1.37.23,2.34-1,3.43-1.64S52,164.73,53.2,164c.86-.94,2-1.56,2.85-2.5a40.68,40.68,0,0,0,8.25-8.68A18.43,18.43,0,0,0,67,145.93c.47-2.2.55-4.46,1-6.66a53.37,53.37,0,0,1,1.66-6.47,38.94,38.94,0,0,1,11-15.66,44.06,44.06,0,0,1,11.53-7.28,57,57,0,0,1,13.61-3.3,44.94,44.94,0,0,1,12.36.8,38.64,38.64,0,0,1,8.37,2.58c1.11.49,2.27,1.3,3.53,1a1.59,1.59,0,0,0,.15-2.58A14.48,14.48,0,0,0,127,106.7a49.58,49.58,0,0,0-14.2-3.39c-2.07,0-4.14-.11-6.21,0a52.78,52.78,0,0,0-17,4.12Zm58.15,3.57a45.7,45.7,0,0,1,10,14.58c.81,1.59,1.16,3.38,2,5,.47.52,1.37,1,2,.54a1.47,1.47,0,0,0,.85-1.77,47.4,47.4,0,0,0-3.65-8.67,53,53,0,0,0-4.27-6.66q-2-2.5-4.12-4.92a2.45,2.45,0,0,0-2.43-1c-1.27.36-1.27,2.09-.39,2.86Zm-38.75-.7a1.69,1.69,0,0,0-1.78-1.19,42,42,0,0,0-10.58,2.12,2.76,2.76,0,0,0-2,1.46c-.65,1.12.57,2.82,1.83,2.31,0,0,2.12-1.23,7.73-2.26,1.29-.24,2.6-.32,3.87-.56.86-.14,1-1.15,1-1.88ZM146.38,146a58.45,58.45,0,0,0-.75-8.46A30.8,30.8,0,0,0,138.16,122a45,45,0,0,0-5.88-5.49,53.28,53.28,0,0,0-6.42-4A40.63,40.63,0,0,0,113,109.14a1.72,1.72,0,0,0-1.72,1.07,1.58,1.58,0,0,0,.41,1.77,37.83,37.83,0,0,1,13,3.47,34.79,34.79,0,0,1,4.55,2.87c5.52,4,10.34,9.41,12.29,16.06,1.69,5.56,1.73,11.43,1.43,17.19a104.37,104.37,0,0,1-1.21,10.69,1.49,1.49,0,0,0,.81,1.72,1.78,1.78,0,0,0,2.42-1.26c.31-1.4.43-2.85.64-4.27A97.91,97.91,0,0,0,146.4,146Zm-9.86-29.33a29.9,29.9,0,0,1,2.44,2.2,25.45,25.45,0,0,1,2.39,2.48c.65,1,1.56,1.72,2.12,2.74a32.35,32.35,0,0,1,5.21,12.18,1.51,1.51,0,0,0,.89,1.24,1.6,1.6,0,0,0,2.29-1.31,19.84,19.84,0,0,0-1.38-5.41,34.57,34.57,0,0,0-3.13-6.62,40.69,40.69,0,0,0-4.57-6.13,13.59,13.59,0,0,1-1.93-2c-1.17-.76-1.91-2.13-3.29-2.56a1.51,1.51,0,0,0-1.26.11A1.92,1.92,0,0,0,136.52,116.66Zm-79.73-2.74c-1.33,1-2,2.5-2.95,3.79-4.77,6.57-6.52,18.1-6.52,18.1-.65,2.95-3.1,5-5.65,6.4a2.19,2.19,0,0,0-1.25,1.33,1.75,1.75,0,0,0,2.23,2A22.49,22.49,0,0,0,45,143.93a13.15,13.15,0,0,0,5-5.71c1-2.28.94-4.83,1.62-7.21a46.22,46.22,0,0,1,5.88-13.14c.51-.86,1.39-1.58,1.55-2.61a1.49,1.49,0,0,0-2.23-1.36Zm46.32,2a26.66,26.66,0,0,0-7.28,3.38,27.64,27.64,0,0,0-10.54,14.3,16,16,0,0,0-.66,4.73c.05.7-.22,1.5.23,2.11a1.72,1.72,0,0,0,2.78-.32c.28-1.85.1-3.78.69-5.58a25.6,25.6,0,0,1,3.28-6.47,24,24,0,0,1,9.32-7.85,21.61,21.61,0,0,1,7.65-2,24.58,24.58,0,0,1,9.46,1c.88.3,2,.7,2.81.09a1.51,1.51,0,0,0,.3-2,2.31,2.31,0,0,0-1.26-.83,25.77,25.77,0,0,0-4.8-1.21,39.77,39.77,0,0,0-7.07-.08,28.94,28.94,0,0,0-4.89.86Zm-13.57-.11a34.88,34.88,0,0,0-3.79,2.94,3.91,3.91,0,0,0-1.56,1.71A1.54,1.54,0,0,0,86,122.71a23.6,23.6,0,0,0,3.25-2.58c1.06-.87,2.48-1.37,3.29-2.53.26-1.07-.81-2.41-1.94-2.12a3,3,0,0,0-1,.35Zm76.33,7.93a41.56,41.56,0,0,1,1.94,6.68,62.86,62.86,0,0,1,1.34,13.95c-.16,3.49-.53,7-.86,10.44a1.43,1.43,0,0,0,1.05,1.46,1.66,1.66,0,0,0,2.2-1.46c.09-1.09.17-2.17.3-3.25a4.66,4.66,0,0,1-.32-1.61c.11.27,0,.89.45.9a128,128,0,0,0,.21-13c-.05-.54-.23-1.06-.23-1.6a47.66,47.66,0,0,0-1.19-7.41,64.46,64.46,0,0,0-2.49-7.73c-.28-.6-.44-1.37-1.1-1.7a1.61,1.61,0,0,0-2.42,1.06c-.19,1.21.73,2.19,1.13,3.25Zm-42-2.1a6.87,6.87,0,0,0,1.7,1.57c.89.56,1.53,1.42,2.42,2a27.49,27.49,0,0,1,5.34,6,29.09,29.09,0,0,1,3.79,12c.1,1.71,0,3.41,0,5.12a1.46,1.46,0,0,0,1.39,1.5,1.7,1.7,0,0,0,1.81-1.53,34.52,34.52,0,0,0-1-10.57,26.71,26.71,0,0,0-4.81-10.27c-2.19-3-5.12-5.28-8-7.59a2.3,2.3,0,0,0-2.14-.27,1.52,1.52,0,0,0-.6,2Zm-22.8,2A19.24,19.24,0,0,0,94,130.7a18,18,0,0,0-3,9.51c0,4.47-.22,9.25-2.59,13.19a1.6,1.6,0,0,0,1.21,2.37c.87.11,1.53-.65,1.91-1.34a22.11,22.11,0,0,0,2.31-7.5,32.25,32.25,0,0,0,.19-5.56,16.45,16.45,0,0,1,3.9-10.69,14.51,14.51,0,0,1,6.12-4.83,18.08,18.08,0,0,1,17.35,1.83,19.65,19.65,0,0,1,8.19,9.66,25.23,25.23,0,0,1,1.53,7.49A71.87,71.87,0,0,1,130.4,159a1.69,1.69,0,0,0,1.61,2,2,2,0,0,0,1.85-2,80.4,80.4,0,0,0,.59-8.35,40.63,40.63,0,0,0-.57-9.08,24.77,24.77,0,0,0-2.65-8.05,24.25,24.25,0,0,0-21.9-12.31,19.28,19.28,0,0,0-8.3,2.39Zm-22-.4c-.83-.06-1.34.71-1.79,1.28a49.47,49.47,0,0,0-4.08,7.28,42,42,0,0,0-2.94,11.9c-.37,4.87-1.3,9.83-3.76,14.13a47.6,47.6,0,0,1-5.74,7.5,77.46,77.46,0,0,1-10.51,9,1.89,1.89,0,0,0-.5,2.43,1.65,1.65,0,0,0,2.23.49c1.36-1.15,2.87-2.07,4.24-3.19,1.66-1.53,3.46-2.86,5.08-4.41.37-.64,1.1-.91,1.5-1.53a60.72,60.72,0,0,0,5.37-6.69A27.48,27.48,0,0,0,71,156.22c3.22-9.16,2.43-20.47,7.32-27.26a27.43,27.43,0,0,0,2.16-3.46,1.58,1.58,0,0,0-1.33-2.26Zm3.07,4.07a38.16,38.16,0,0,0-2.93,5.41,41.32,41.32,0,0,0-3.17,13.77c0,1.64-.21,3.26-.26,4.9a25.52,25.52,0,0,1-3,10.66,38.83,38.83,0,0,1-3.52,5.1,45.28,45.28,0,0,1-4,5.23,60.54,60.54,0,0,1-10.37,9.35c-.61.54-1.66.92-1.6,1.91a1.67,1.67,0,0,0,1.8,1.77c.64-.11,1.07-.64,1.61-.94a65.38,65.38,0,0,0,7.09-5.66,47.92,47.92,0,0,0,5.59-6.24c1.76-2,3.14-4.3,4.73-6.44a29.15,29.15,0,0,0,2.63-4.56,27.86,27.86,0,0,0,2.07-8.14,68,68,0,0,0,.56-7.67c.56-5.13,1.55-10.39,4.34-14.84a12.38,12.38,0,0,0,1.57-2.82,3,3,0,0,0-.48-1.29,1.73,1.73,0,0,0-1.92-.24,3.61,3.61,0,0,0-.74.72Zm42.46,7.07a16.43,16.43,0,0,0-9.42-6.39,19.67,19.67,0,0,0-9.3.5,2.21,2.21,0,0,0-1.83,1.75,1.7,1.7,0,0,0,2.37,1.83,14.47,14.47,0,0,1,5.59-1.23,12.17,12.17,0,0,1,11.11,7.35,16.09,16.09,0,0,1,1.44,7.77c.37.29.67.73,1.18.78a1.7,1.7,0,0,0,2-1.62,18.22,18.22,0,0,0-3.17-10.74Zm-25.49.11A14.62,14.62,0,0,0,97.57,140c-.21,2.55.08,5.12-.32,7.65a29.41,29.41,0,0,1-5.77,15.12c-.86,1.1.31,3,1.69,2.43a9.38,9.38,0,0,0,3-3.5A36.86,36.86,0,0,0,99.53,153a29.76,29.76,0,0,0,1.15-7.9,43.06,43.06,0,0,1,.3-6.91,8.84,8.84,0,0,1,1.53-2.89,1.71,1.71,0,0,0-1.74-2.43,3.2,3.2,0,0,0-1.64,1.62Zm62,1.32c.25,1.93.43,3.86.6,5.79.05,3,.05,6,0,9.08a1.61,1.61,0,0,0,1.44,1.34,1.89,1.89,0,0,0,1.83-1.8c0-5.25.27-10.55-.72-15.73a1.69,1.69,0,0,0-1.94-.91,1.84,1.84,0,0,0-1.2,2.23Zm-43.91-.27a9,9,0,0,0-6.58-1.19,9.66,9.66,0,0,0-3.85,1.77,9.39,9.39,0,0,0-3.2,6.88,52.76,52.76,0,0,1-.48,8,65.77,65.77,0,0,1-1.79,7.71,37.25,37.25,0,0,1-5.41,11.52c-1.52,2-3.27,3.84-4.81,5.85a145.23,145.23,0,0,1-12.62,13.16,58.29,58.29,0,0,1-6,4.92c-.78.86-2.1,1.28-2.42,2.49a2,2,0,0,0,.37,1.62c.41.59,1.24.48,1.86.38,1.18-.92,2.28-1.92,3.49-2.82,3-2.24,5.72-4.79,8.48-7.31,3-3,5.84-6.23,8.7-9.41,1.41-1.82,2.75-3.72,4.3-5.44a20.75,20.75,0,0,0,3.93-5.59,36.43,36.43,0,0,0,2.53-6.29,44.51,44.51,0,0,0,2.9-13c.12-2,0-4,.08-6a5.78,5.78,0,0,1,5.34-5.4,5.47,5.47,0,0,1,5.26,2.95c1,1.81.81,4,.83,6a62.78,62.78,0,0,1-.42,8,1.44,1.44,0,0,0,1,1.61,1.69,1.69,0,0,0,2.18-.81c.89-2.82.41-11.82.41-11.82C121.07,140.27,119.87,137.1,117.21,135.52Zm-57.76.82a24.77,24.77,0,0,1-1.87,6.94,21,21,0,0,1-3.68,4.91,41.21,41.21,0,0,1-7.09,6.15c-1,.87-2.29,1.37-3.34,2.21a1.7,1.7,0,0,0,2.29,2.5c1.85-1.1,3.49-2.55,5.27-3.76,1.18-1,2.43-1.89,3.53-3a30.75,30.75,0,0,0,5.73-7,25.67,25.67,0,0,0,2.23-9,1.55,1.55,0,0,0-3.07.1Zm51,6.21a51.85,51.85,0,0,1-.26,6.71,47.28,47.28,0,0,1-1,6,57.59,57.59,0,0,1-5.1,14.4,2,2,0,0,0-.28,1.53,1.56,1.56,0,0,0,2.43,1,7.55,7.55,0,0,0,1.64-2.79,71.49,71.49,0,0,0,5.74-20.4c.08-2.09.06-4.19,0-6.28a1.63,1.63,0,0,0-2-1.55,1.79,1.79,0,0,0-1.26,1.34Zm38.74,2.77c-.14,2.09-.11,4.17-.22,6.26a69,69,0,0,1-1.75,11,1.6,1.6,0,0,0,2.5,1.38c.87-.73,1-2,1.21-3a73.58,73.58,0,0,0,1.5-15.59,1.75,1.75,0,0,0-2.22-1.12c-.48.18-1,.54-1,1.12ZM84,147.07a1.59,1.59,0,0,0-2.07,1.26c-.13,4.45.33,9-.85,13.32-1.09,3.57-3.28,6.66-5.52,9.58a78.44,78.44,0,0,1-5.24,6.11c-1.34,1.13-2.49,2.47-3.84,3.6a2.7,2.7,0,0,0-1.07,2,1.38,1.38,0,0,0,2,1.29,11.92,11.92,0,0,0,2-1.51,52.25,52.25,0,0,0,5.85-5.77s6-7.45,8.28-12.12A18.67,18.67,0,0,0,85,157.38c.14-2.79,0-5.59.09-8.4A1.8,1.8,0,0,0,84,147.06Zm40.64,4.27a40.16,40.16,0,0,1-1.42,10.2,71.45,71.45,0,0,1-10.94,23,64,64,0,0,1-5.34,6.27,29.88,29.88,0,0,1-4.16,4.18c-3.17,3-6.58,5.68-10,8.36-.8.59-1.75,1.16-2.07,2.15s.51,2.36,1.62,2.09,1.61-1.21,2.47-1.74c5.64-4.25,11.22-8.71,15.84-14.1A61.55,61.55,0,0,0,119,179.94c.75-1.55,1.71-3,2.43-4.54a74.54,74.54,0,0,0,3.72-9,53.34,53.34,0,0,0,2.66-15,1.59,1.59,0,0,0-1.8-1.58,1.76,1.76,0,0,0-1.45,1.59Zm12.54,3.52a68.05,68.05,0,0,1-9.77,31.55,80.24,80.24,0,0,1-7.17,9.76c-1.41,1.6-3,3.06-4.43,4.62-2,1.82-4,3.62-6.05,5.31a2.16,2.16,0,0,0-1.24,2.66,1.62,1.62,0,0,0,2.55.48c.92-.78,1.94-1.44,2.79-2.31a27.89,27.89,0,0,0,2.78-2.33,50.65,50.65,0,0,0,4.81-4.91,61.47,61.47,0,0,0,5.21-6.18,69.26,69.26,0,0,0,6.5-10.67,67.09,67.09,0,0,0,5.42-15,71.17,71.17,0,0,0,1.83-13,1.57,1.57,0,0,0-2.23-1.37,1.84,1.84,0,0,0-1,1.4ZM160,159.47a34.78,34.78,0,0,1-.9,4.59,86.48,86.48,0,0,1-9.2,22.62,43.64,43.64,0,0,1-5.29,7.49c-.47.7-1.12,1.64-.56,2.47a1.64,1.64,0,0,0,2.74.19,72.6,72.6,0,0,0,7.09-10.55,75.07,75.07,0,0,0,4.32-9.11,82.57,82.57,0,0,0,5.21-18.23,1.72,1.72,0,0,0-2.31-1.89c-.91.44-1,1.56-1.12,2.45Zm-44.69.73a21.71,21.71,0,0,1-1,4.3,53.34,53.34,0,0,1-5.66,12.7c-.49.81-1.19,1.64-1,2.66a1.62,1.62,0,0,0,2.49.92,7.43,7.43,0,0,0,1.77-2.66,62.83,62.83,0,0,0,3.57-7.1,62.08,62.08,0,0,0,2.12-6.25,31.09,31.09,0,0,0,1-3.92,1.72,1.72,0,0,0-2.21-1.72,1.23,1.23,0,0,0-1,1.09Zm50.92,1a60.1,60.1,0,0,1-4.64,13.94,12.86,12.86,0,0,0-1.31,2.91,1.45,1.45,0,0,0,.88,1.69,1.77,1.77,0,0,0,2.26-.92,88.39,88.39,0,0,0,3.75-8.78c1-2.87,1.72-5.8,2.4-8.75.32-1.14-.75-2.53-2-2.16-.94.2-1.24,1.22-1.38,2Zm-38.11,7.37a58.71,58.71,0,0,1-2.47,8,1.51,1.51,0,0,0,1.86,2c1-.22,1.34-1.27,1.67-2.1a71,71,0,0,0,2.3-7.7,1.64,1.64,0,0,0-2.23-1.78,1.81,1.81,0,0,0-1.16,1.62Zm-40.09.1c-2,2.07-3.69,4.35-5.51,6.56-1.21,1.57-2.63,2.95-3.89,4.48a74.37,74.37,0,0,1-13.31,10.59c-.86.8-2.41,1-2.65,2.36a1.67,1.67,0,0,0,2.38,1.8c2.37-1.65,4.93-3,7.18-4.87a82.62,82.62,0,0,0,11.14-10c1.16-1.46,2.35-2.9,3.52-4.38.59-.94,1.46-1.64,2.07-2.56a13.06,13.06,0,0,1,1.73-2,2.34,2.34,0,0,0,.56-2.75,1.66,1.66,0,0,0-1.91-.47A3.94,3.94,0,0,0,88,168.66Zm53.63,3.27a53.22,53.22,0,0,1-3.2,8.17,92.81,92.81,0,0,1-7.16,12.11,59.08,59.08,0,0,1-3.6,4.74,67.19,67.19,0,0,1-8.42,8.53,2.1,2.1,0,0,0-.5,2.23,1.71,1.71,0,0,0,1.56.95c1.21-.47,2-1.57,3-2.35.94-1,2-1.84,2.9-2.89a62,62,0,0,0,6.24-7.2,61.6,61.6,0,0,0,4.31-6.39A75,75,0,0,0,142.1,180a51,51,0,0,0,3.52-9.91c.33-1.26-1.28-2.28-2.38-1.72-1.3.7-1.19,2.34-1.56,3.59Zm-43.21,6.69c-1.88,2.15-3.72,4.3-5.65,6.42a94.28,94.28,0,0,1-7.08,6.62c-1.88,1.79-4,3.27-6,4.93-1.13.79-2.18,1.72-3.37,2.44a2.17,2.17,0,0,0-1,1.95,1.52,1.52,0,0,0,2,1.41,84.2,84.2,0,0,0,8.85-6.77A105.72,105.72,0,0,0,96,186.54c1.1-1.3,2.2-2.59,3.35-3.84a28.18,28.18,0,0,1,3.26-3.48c.34-.6,1-1.32.61-2.05a1.7,1.7,0,0,0-1.72-.89,5.53,5.53,0,0,0-3,2.32Zm2.82,7.23c-2.2,2.15-4.09,4.59-6.43,6.58-.93.68-1.63,1.62-2.57,2.31a102,102,0,0,1-9.45,7.5,1.91,1.91,0,0,0-.2,3.11c1.18.51,2.24-.46,3.1-1.13a86,86,0,0,0,9.75-7.89c3.06-2.74,5.82-5.78,8.67-8.73.56-.62,1.51-1.14,1.39-2.12a1.7,1.7,0,0,0-2.28-1.37,8.77,8.77,0,0,0-2,1.76ZM119,187.27a72.56,72.56,0,0,1-10.34,11.25,68.81,68.81,0,0,1-6.74,5.79,2,2,0,0,0-.35,3,1.75,1.75,0,0,0,2.18-.24c2.44-2,4.81-4,7.15-6.09,2-1.74,3.76-3.68,5.63-5.53,1.18-1.38,2.42-2.69,3.49-4.17.35-.5.87-.83,1.14-1.39.37-.76,1.15-1.22,1.53-2a1.67,1.67,0,0,0-.11-2.12,1.59,1.59,0,0,0-1.37-.5c-1.07.13-1.66,1.14-2.21,1.93Z"/></g></g></g></g></svg>