<svg xmlns="http://www.w3.org/2000/svg" viewBox="0 0 828.45 217.09"><title>Asset 27</title><g id="Layer_2" data-name="Layer 2"><g id="Layer_1-2" data-name="Layer 1"><g id="f3705a62-3ab0-4b68-bd0a-61bb51e39920"><g id="f3705a62-3ab0-4b68-bd0a-61bb51e39920-child-0"><path d="M68.67,145.51V86.58H55.05V71.47H87.47v74Z"/></g><g id="f3705a62-3ab0-4b68-bd0a-61bb51e39920-child-1"><path d="M158.14,90.59a17.32,17.32,0,0,1-9.3,15.32C157,109.29,162,116.36,162,124.6c0,13.31-11.83,21.76-30.31,21.76s-30.31-8.35-30.31-21.44c0-8.45,5.49-15.63,14-19-6.23-3.49-10.24-9.4-10.24-15.85,0-11.83,10.35-19.33,26.4-19.33C147.89,70.73,158.14,78.44,158.14,90.59Zm-39,32.43c0,6.23,4.44,9.71,12.57,9.71s12.67-3.38,12.67-9.71c0-6.13-4.54-9.62-12.67-9.62S119.16,116.89,119.16,123Zm1.9-31.37c0,5.28,3.8,8.24,10.67,8.24s10.67-3,10.67-8.24c0-5.5-3.8-8.56-10.67-8.56S121.06,86.15,121.06,91.65Z"/></g><g id="f3705a62-3ab0-4b68-bd0a-61bb51e39920-child-2"><path d="M193.33,79.83a89.42,89.42,0,1,1-56.07-56.07V3.85a108.47,108.47,0,1,0,76,76Z"/></g><g id="f3705a62-3ab0-4b68-bd0a-61bb51e39920-child-3"><path d="M187.91,29.12V8.3H173V29.12H152.26v15H173V64.9h15V44.08h20.82v-15Z"/></g></g><g id="e8a3cee5-1e69-4dec-b044-3e192e6bc4ea"><g id="e8a3cee5-1e69-4dec-b044-3e192e6bc4ea-child-0"><path d="M687.24,10.18l-35.3,61.17,43.15,24.87,27.45-47.56,9.57,16.93L720.7,72.2l43.89-.5,14.59-24.63L786.89,34l-11.51,6.63-17.53-30.4ZM793.15,71.35,749.61,96.47l26.48,46.59-18,.12V130.43L751,143.18l-14.46,25.49v.12l14.08,24.89,7.53,13.24V193.68h35l35.3-61.18Zm-170.52,24,11.66,6.72-17.66,30.4,35.31,61.18h70.6V143.43l-54.91.35L677.32,127l11.51,6.63-22.3-37.75Z"/></g></g><g id="_809c760b-da9e-4db2-9976-66c62c484cbf" data-name="809c760b-da9e-4db2-9976-66c62c484cbf"><g id="_809c760b-da9e-4db2-9976-66c62c484cbf-child-0" data-name="809c760b-da9e-4db2-9976-66c62c484cbf-child-0"><path d="M542.15,212.68V3.69h10.2v209Z"/></g><g id="_809c760b-da9e-4db2-9976-66c62c484cbf-child-1" data-name="809c760b-da9e-4db2-9976-66c62c484cbf-child-1"><path d="M532.34,212.68V3.69h3.37v209Z"/></g><g id="_809c760b-da9e-4db2-9976-66c62c484cbf-child-2" data-name="809c760b-da9e-4db2-9976-66c62c484cbf-child-2"><path d="M516.27,212.68V3.69h9.05v209Z"/></g><g id="_809c760b-da9e-4db2-9976-66c62c484cbf-child-3" data-name="809c760b-da9e-4db2-9976-66c62c484cbf-child-3"><path d="M503.05,181V3.69h9.05V181Z"/></g><g id="_809c760b-da9e-4db2-9976-66c62c484cbf-child-4" data-name="809c760b-da9e-4db2-9976-66c62c484cbf-child-4"><path d="M492.65,181V3.69H496V181Z"/></g><g id="_809c760b-da9e-4db2-9976-66c62c484cbf-child-5" data-name="809c760b-da9e-4db2-9976-66c62c484cbf-child-5"><path d="M477.71,181V3.69h6.79V181Z"/></g><g id="_809c760b-da9e-4db2-9976-66c62c484cbf-child-6" data-name="809c760b-da9e-4db2-9976-66c62c484cbf-child-6"><path d="M461.66,181V3.69h12.47V181Z"/></g><g id="_809c760b-da9e-4db2-9976-66c62c484cbf-child-7" data-name="809c760b-da9e-4db2-9976-66c62c484cbf-child-7"><path d="M452.4,181V3.69h4.53V181Z"/></g><g id="_809c760b-da9e-4db2-9976-66c62c484cbf-child-8" data-name="809c760b-da9e-4db2-9976-66c62c484cbf-child-8"><path d="M437.46,181V3.69h7.94V181Z"/></g><g id="_809c760b-da9e-4db2-9976-66c62c484cbf-child-9" data-name="809c760b-da9e-4db2-9976-66c62c484cbf-child-9"><path d="M420.85,181.21V3.7h14.72V181.21Z"/></g><g id="_809c760b-da9e-4db2-9976-66c62c484cbf-child-10" data-name="809c760b-da9e-4db2-9976-66c62c484cbf-child-10"><path d="M412.72,181.21V3.7h4.52V181.21Z"/></g><g id="_809c760b-da9e-4db2-9976-66c62c484cbf-child-11" data-name="809c760b-da9e-4db2-9976-66c62c484cbf-child-11"><path d="M397.23,181V3.69h9V181Z"/></g><g id="_809c760b-da9e-4db2-9976-66c62c484cbf-child-12" data-name="809c760b-da9e-4db2-9976-66c62c484cbf-child-12"><path d="M386.84,181V3.69h3.37V181Z"/></g><g id="_809c760b-da9e-4db2-9976-66c62c484cbf-child-13" data-name="809c760b-da9e-4db2-9976-66c62c484cbf-child-13"><path d="M371.9,181V3.69h6.79V181Z"/></g><g id="_809c760b-da9e-4db2-9976-66c62c484cbf-child-14" data-name="809c760b-da9e-4db2-9976-66c62c484cbf-child-14"><path d="M355.85,181V3.69h12.46V181Z"/></g><g id="_809c760b-da9e-4db2-9976-66c62c484cbf-child-15" data-name="809c760b-da9e-4db2-9976-66c62c484cbf-child-15"><path d="M346.59,181V3.69h4.52V181Z"/></g><g id="_809c760b-da9e-4db2-9976-66c62c484cbf-child-16" data-name="809c760b-da9e-4db2-9976-66c62c484cbf-child-16"><path d="M331.65,181V3.69h7.94V181Z"/></g><g id="_809c760b-da9e-4db2-9976-66c62c484cbf-child-17" data-name="809c760b-da9e-4db2-9976-66c62c484cbf-child-17"><path d="M319,181V3.69h6.79V181Z"/></g><g id="_809c760b-da9e-4db2-9976-66c62c484cbf-child-18" data-name="809c760b-da9e-4db2-9976-66c62c484cbf-child-18"><path d="M302.94,181V3.69H315.4V181Z"/></g><g id="_809c760b-da9e-4db2-9976-66c62c484cbf-child-19" data-name="809c760b-da9e-4db2-9976-66c62c484cbf-child-19"><path d="M293.68,212.79V3.7h4.52V212.79Z"/></g><g id="_809c760b-da9e-4db2-9976-66c62c484cbf-child-20" data-name="809c760b-da9e-4db2-9976-66c62c484cbf-child-20"><path d="M278.74,212.79V3.7h7.94V212.79Z"/></g><g id="_809c760b-da9e-4db2-9976-66c62c484cbf-child-21" data-name="809c760b-da9e-4db2-9976-66c62c484cbf-child-21"><path d="M330.85,203c0,6.58-2.44,10.13-6.76,10.13-3.78,0-6.35-3.55-6.4-10S320.48,193,324.45,193,330.85,196.86,330.85,203Zm-10.51.3c0,5.07,1.56,7.89,3.94,7.89,2.67,0,4-3.13,4-8.08s-1.22-7.88-3.94-7.88c-2.28.06-4,2.87-4,8.14Z"/></g><g id="_809c760b-da9e-4db2-9976-66c62c484cbf-child-22" data-name="809c760b-da9e-4db2-9976-66c62c484cbf-child-22"><path d="M344.31,195.41a8.54,8.54,0,0,0-2,.12,7.86,7.86,0,0,0-6.76,6.87h0a5.91,5.91,0,0,1,10.71,4,6.48,6.48,0,0,1-6.44,6.75c-4.13,0-6.75-3.21-6.75-8.24a12.19,12.19,0,0,1,3.06-8.73,10.49,10.49,0,0,1,6.19-2.85,12.21,12.21,0,0,1,1.91-.16Zm-.75,11.16a3.86,3.86,0,0,0-1-3.14,3.91,3.91,0,0,0-3-1.3,4.32,4.32,0,0,0-3.75,2.38,2.36,2.36,0,0,0-.3,1.16c0,3.2,1.52,5.54,4.26,5.54C342,211.21,343.56,209.34,343.56,206.57Z"/></g><g id="_809c760b-da9e-4db2-9976-66c62c484cbf-child-23" data-name="809c760b-da9e-4db2-9976-66c62c484cbf-child-23"><path d="M359.57,195.41a8.54,8.54,0,0,0-2,.12,7.84,7.84,0,0,0-6.75,6.87h.08a5.89,5.89,0,0,1,10.56,4,6.48,6.48,0,0,1-6.44,6.75c-4.13,0-6.75-3.21-6.75-8.24a12.13,12.13,0,0,1,3.17-8.73,10.55,10.55,0,0,1,6.18-2.85,12.21,12.21,0,0,1,1.91-.16Zm-.74,11.16a3.94,3.94,0,0,0-4-4.44,4.38,4.38,0,0,0-3.75,2.38,2.36,2.36,0,0,0-.3,1.16c0,3.2,1.52,5.54,4.26,5.54C357.31,211.21,358.83,209.34,358.83,206.57Z"/></g><g id="_809c760b-da9e-4db2-9976-66c62c484cbf-child-24" data-name="809c760b-da9e-4db2-9976-66c62c484cbf-child-24"><path d="M376.37,193.57v1.68l-8.44,17.64h-2.7l8.44-17.13h-9.45V193.6Z"/></g><g id="_809c760b-da9e-4db2-9976-66c62c484cbf-child-25" data-name="809c760b-da9e-4db2-9976-66c62c484cbf-child-25"><path d="M378.84,208a5.52,5.52,0,0,1,3.83-5.18h0a4.81,4.81,0,0,1-3.05-4.36c0-3.06,2.58-5.15,6-5.15,3.75,0,5.63,2.36,5.63,4.76a4.89,4.89,0,0,1-3.18,4.53v.1a5.34,5.34,0,0,1,3.9,5.07c0,3.37-2.88,5.62-6.58,5.62C381.27,213.24,378.84,210.82,378.84,208Zm10.42-.12c0-2.36-1.69-3.49-4.26-4.24a4.21,4.21,0,0,0-3.49,4,3.59,3.59,0,0,0,3.88,3.7,3.52,3.52,0,0,0,2.7-.88,3.42,3.42,0,0,0,1.17-2.58Zm-7.21-9.67c0,1.92,1.47,3,3.7,3.56a3.79,3.79,0,0,0,2.94-3.51,3,3,0,0,0-3.28-3.16,3.15,3.15,0,0,0-2.37.81,3.06,3.06,0,0,0-1,2.28Z"/></g><g id="_809c760b-da9e-4db2-9976-66c62c484cbf-child-26" data-name="809c760b-da9e-4db2-9976-66c62c484cbf-child-26"><path d="M406.91,193.57v1.68l-8.45,17.64h-2.68l8.44-17.13H394.7V193.6Z"/></g><g id="_809c760b-da9e-4db2-9976-66c62c484cbf-child-27" data-name="809c760b-da9e-4db2-9976-66c62c484cbf-child-27"><path d="M422.19,193.57v1.69l-8.34,17.66H411l8.45-17.12H410v-2.17Z"/></g><g id="_809c760b-da9e-4db2-9976-66c62c484cbf-child-28" data-name="809c760b-da9e-4db2-9976-66c62c484cbf-child-28"><path d="M425.52,209.9a8.64,8.64,0,0,0,4.29,1.23c3.37,0,4.4-2.15,4.37-3.75,0-2.72-2.47-3.88-5.07-3.88h-1.47v-2h1.47c1.91,0,4.31-1,4.31-3.28,0-1.54-1-2.92-3.38-2.92a7.27,7.27,0,0,0-3.87,1.28l-.67-1.91a9.21,9.21,0,0,1,5.07-1.48c3.81,0,5.53,2.26,5.53,4.63a4.75,4.75,0,0,1-3.56,4.54h0a5.06,5.06,0,0,1,4.31,5c0,3.09-2.4,5.81-7,5.81a9.7,9.7,0,0,1-5.07-1.31Z"/></g><g id="_809c760b-da9e-4db2-9976-66c62c484cbf-child-29" data-name="809c760b-da9e-4db2-9976-66c62c484cbf-child-29"><path d="M440.16,212.92v-1.69l2.06-2c4.95-4.7,7.17-7.2,7.21-10.13a3.47,3.47,0,0,0-3.85-3.79,6.68,6.68,0,0,0-4.11,1.69l-.84-1.84a8.58,8.58,0,0,1,5.49-2,5.58,5.58,0,0,1,4.24,1.47,5.51,5.51,0,0,1,1.69,4.16c0,3.58-2.6,6.47-6.76,10.4l-1.55,1.42h8.69v2.18Z"/></g><g id="_809c760b-da9e-4db2-9976-66c62c484cbf-child-30" data-name="809c760b-da9e-4db2-9976-66c62c484cbf-child-30"><path d="M457,211.06a10.63,10.63,0,0,0,2.11,0,7.27,7.27,0,0,0,4-1.87,8.42,8.42,0,0,0,2.56-5.07h0a5.71,5.71,0,0,1-4.56,2.08,5.6,5.6,0,0,1-5.7-5.93,6.63,6.63,0,0,1,6.6-6.87c3.95,0,6.4,3.22,6.4,8.15a12.25,12.25,0,0,1-3.38,9.09,9.65,9.65,0,0,1-5.59,2.45,12,12,0,0,1-2.4.15Zm1-11.13a3.71,3.71,0,0,0,3.71,4.11,4.38,4.38,0,0,0,3.82-2,1.66,1.66,0,0,0,.23-.95c0-3.37-1.21-5.84-3.95-5.84C459.44,195.22,457.91,197.2,457.91,199.93Z"/></g><g id="_809c760b-da9e-4db2-9976-66c62c484cbf-child-31" data-name="809c760b-da9e-4db2-9976-66c62c484cbf-child-31"><path d="M470.47,208a5.52,5.52,0,0,1,3.83-5.18h0a4.81,4.81,0,0,1-3.05-4.36c0-3.06,2.58-5.15,6-5.15,3.75,0,5.63,2.36,5.63,4.76a4.89,4.89,0,0,1-3.18,4.53v.1a5.34,5.34,0,0,1,3.9,5.07c0,3.37-2.88,5.62-6.58,5.62C473,213.24,470.47,210.82,470.47,208Zm10.42-.12c0-2.36-1.69-3.49-4.26-4.24a4.21,4.21,0,0,0-3.49,4,3.59,3.59,0,0,0,3.88,3.7,3.52,3.52,0,0,0,2.7-.88,3.42,3.42,0,0,0,1.17-2.58Zm-7.21-9.67c0,1.92,1.47,3,3.7,3.56a3.77,3.77,0,0,0,2.93-3.51,3,3,0,0,0-3.27-3.16,3.15,3.15,0,0,0-2.37.81,3.06,3.06,0,0,0-1,2.28Z"/></g><g id="_809c760b-da9e-4db2-9976-66c62c484cbf-child-32" data-name="809c760b-da9e-4db2-9976-66c62c484cbf-child-32"><path d="M486.6,209.9a8.74,8.74,0,0,0,4.29,1.23c3.37,0,4.4-2.15,4.37-3.75,0-2.72-2.47-3.88-5.07-3.88h-1.45v-2h1.45c1.91,0,4.33-1,4.33-3.28,0-1.54-1-2.92-3.38-2.92a7,7,0,0,0-3.87,1.28l-.69-1.91a9.21,9.21,0,0,1,5.07-1.48c3.8,0,5.54,2.26,5.54,4.63a4.82,4.82,0,0,1-3.58,4.54h0a5.06,5.06,0,0,1,4.32,5c0,3.09-2.42,5.81-7.06,5.81a9.72,9.72,0,0,1-5.07-1.31Z"/></g></g></g></g></svg>