<?xml version="1.0" encoding="utf-8"?>
<!-- Generator: Adobe Illustrator 24.0.0, SVG Export Plug-In . SVG Version: 6.00 Build 0)  -->
<svg version="1.1" id="Layer_1" xmlns="http://www.w3.org/2000/svg" xmlns:xlink="http://www.w3.org/1999/xlink" x="0px" y="0px"
	 viewBox="0 0 26.1 25.3" style="enable-background:new 0 0 26.1 25.3;" xml:space="preserve">
<style type="text/css">
	.st0{fill:#231F20;}
</style>
<title>Asset 16</title>
<g id="Layer_2_1_">
	<g id="Layer_1-2">
		<g id="_73a699a7-3537-4fb7-b8f9-653c59f8efbd">
			<g id="_73a699a7-3537-4fb7-b8f9-653c59f8efbd-child-0">
				<path class="st0" d="M17.4,3.1c-0.8-2.4-3.4-3.7-5.8-2.9c-1.4,0.5-2.5,1.5-2.9,2.9l0,0c-0.6,1.8-2.3,3-4.2,3l0,0
					C2,6.2,0,8.2,0,10.7c0,1.3,0.6,2.6,1.7,3.5l0.8,0.6C4,16,4.7,18.1,4,20l0,0c-0.7,2.1,0.4,4.4,2.5,5.1c1.3,0.5,2.8,0.2,3.9-0.7
					l0,0c1.6-1.3,3.9-1.3,5.5,0l0,0c1.7,1.4,4.2,1.1,5.6-0.6c0.9-1.1,1.1-2.5,0.7-3.8l0,0c-0.6-1.9,0-4,1.5-5.2l0.8-0.6
					c1.9-1.6,2.2-4.4,0.6-6.3c-0.8-1-2.1-1.6-3.5-1.7l0,0C19.7,6.2,18,5,17.4,3.1L17.4,3.1z"/>
			</g>
		</g>
	</g>
</g>
</svg>
