<?xml version="1.0" encoding="utf-8"?>
<!-- Generator: Adobe Illustrator 24.0.0, SVG Export Plug-In . SVG Version: 6.00 Build 0)  -->
<svg version="1.1" id="Layer_1" xmlns="http://www.w3.org/2000/svg" xmlns:xlink="http://www.w3.org/1999/xlink" x="0px" y="0px"
	 viewBox="0 0 38 38.3" style="enable-background:new 0 0 38 38.3;" xml:space="preserve">
<style type="text/css">
	.st0{fill:#231F20;}
</style>
<title>Asset 6</title>
<g id="Layer_2_1_">
	<g id="Layer_1-2">
		<g id="_33540fb4-7100-4883-84c8-228853ebe78e">
			<g id="_33540fb4-7100-4883-84c8-228853ebe78e-child-0">
				<path class="st0" d="M38,16.4c0,0,0,0.1,0,0.1c0,0-0.1,0-0.1,0c-3.7,0-6.3,0.8-7.8,2.4c-1.2,1.2-1.8,5-2.1,8.5
					c1.9,0.1,3.7,0.2,4.7,0.2c0.1,0,0.1,0.1,0.1,0.1c0,0.1-0.1,0.1-0.1,0.1c-1,0-2.8,0.1-4.8,0.2c-0.1,1.9-0.2,3.5-0.2,4.5
					c0,0,0,0.1,0,0.1c0,0-0.1,0-0.1,0c0,0-0.1,0-0.1,0c0,0,0-0.1,0-0.1c0-1,0-2.6-0.2-4.5c-3.4,0.3-7.1,0.9-8.3,2.1
					c-1.6,1.6-2.4,4.2-2.4,7.8c0,0.1,0,0.1-0.1,0.2c0,0-0.1,0-0.2,0c0,0-0.1-0.1-0.1-0.2c0-3.7-0.8-6.3-2.4-7.8
					c-2-1.9-10.9-2.3-13.8-2.3c-0.1,0-0.1-0.1-0.1-0.1c0-0.1,0.1-0.1,0.1-0.1c3,0,11.8-0.4,13.7-2.4c1.6-1.6,2.4-4.2,2.4-7.8
					c0-0.1,0-0.1,0.1-0.1c0,0,0.1,0,0.2,0c0,0,0.1,0.1,0.1,0.1c0,3.7,0.8,6.3,2.4,7.8c1.2,1.2,4.9,1.8,8.2,2.1
					c-0.3-3.5-0.9-7.3-2.1-8.4c-1.6-1.6-4.1-2.4-7.8-2.4c-0.1,0-0.1-0.1-0.1-0.1c0-0.1,0.1-0.1,0.1-0.1c3.7,0,6.3-0.8,7.8-2.4
					c2-1.9,2.4-10.8,2.4-13.7c0,0,0-0.1,0-0.1c0,0,0.1,0,0.1,0c0,0,0.1,0,0.1,0c0,0,0,0.1,0,0.1c0,3,0.4,11.8,2.4,13.7
					c1.6,1.6,4.2,2.4,7.8,2.4c0.1,0,0.2,0,0.2,0C38,16.3,38,16.4,38,16.4z"/>
			</g>
		</g>
	</g>
</g>
</svg>
