<?xml version="1.0" encoding="utf-8"?>
<!-- Generator: Adobe Illustrator 24.0.0, SVG Export Plug-In . SVG Version: 6.00 Build 0)  -->
<svg version="1.1" id="Layer_1" xmlns="http://www.w3.org/2000/svg" xmlns:xlink="http://www.w3.org/1999/xlink" x="0px" y="0px"
	 viewBox="0 0 156.6 161.1" style="enable-background:new 0 0 156.6 161.1;" xml:space="preserve">
<style type="text/css">
	.st0{fill:#FFFFFF;fill-opacity:0;stroke:#231F20;stroke-width:12.39;stroke-linecap:round;stroke-linejoin:round;}
	.st1{fill-rule:evenodd;clip-rule:evenodd;fill:#FFFFFF;stroke:#231F20;stroke-miterlimit:10;}
	.st2{fill:#FFFFFF;fill-opacity:0;stroke:#231F20;stroke-width:13.87;stroke-linecap:round;stroke-linejoin:round;}
	.st3{fill-rule:evenodd;clip-rule:evenodd;fill:#FFFBEF;stroke:#231F20;stroke-miterlimit:10;}
</style>
<title>Asset 3</title>
<g id="Layer_2_1_">
	<g id="Layer_1-2">
		<g id="b0f1a8cb-efd9-46f7-b8e4-95a1c05a861e">
			<g id="_8db46b94-e6b2-42e5-a94e-7e2199d74e09">
				<path class="st0" d="M110.8,6.2C110.8,6.3,110.8,6.3,110.8,6.2c0.1,0.4,0.1,0.7,0.2,1c0.2,0.9,0.3,1.8,0.5,2.7s0.3,1.7,0.5,2.5
					c0.1,0.5,0.2,1.1,0.3,1.6c0,0.3,0.1,0.5,0.2,0.8c0.1,0.5,0.2,1,0.3,1.5c0.1,0.2,0.1,0.5,0.2,0.7c0.1,0.5,0.2,0.9,0.3,1.4
					l0.2,0.7l0.4,1.3c0.1,0.2,0.1,0.4,0.2,0.7c0.1,0.4,0.3,0.8,0.4,1.3c0.1,0.2,0.1,0.4,0.2,0.6c0.1,0.4,0.3,0.8,0.4,1.2l0.2,0.6
					l0.4,1.1c0.1,0.2,0.2,0.4,0.2,0.5l0.4,1c0.1,0.2,0.2,0.3,0.2,0.5l0.5,1l0.2,0.5c0.2,0.3,0.3,0.6,0.5,0.9
					c0.1,0.1,0.2,0.3,0.3,0.5c0.2,0.3,0.4,0.6,0.6,0.9s0.2,0.3,0.3,0.4l0.6,0.8l0.3,0.4l0.6,0.8l0.3,0.4l0.7,0.7l0.3,0.3l0.7,0.7
					l0.4,0.3l0.8,0.6l0.4,0.3l0.8,0.6l0.4,0.3l0.9,0.5l0.4,0.3l1,0.5l0.5,0.3l1,0.5l0.5,0.2l1.1,0.4l0.5,0.2l1.2,0.4l0.6,0.2
					l1.2,0.4l0.6,0.2l1.3,0.4l0.7,0.2l1.4,0.4l0.7,0.2l1.5,0.3l0.7,0.2l1.6,0.3l0.8,0.2l1.6,0.3l0.8,0.2l1.7,0.3l2.7,0.5l0,0h0.1
					c0,0,0,0.1,0,0.1l0,0l0,0l0,0h-0.1l-0.9,0.2l-2.7,0.5l-2.5,0.5l-1.6,0.3l-0.8,0.2l-1.5,0.3l-0.8,0.2l-1.4,0.3l-0.7,0.2l-1.3,0.4
					l-0.7,0.2l-1.3,0.4l-0.6,0.2l-1.2,0.4l-0.6,0.2l-1.1,0.4l-0.6,0.2l-1,0.5l-0.5,0.2l-1,0.5l-0.5,0.3l-0.9,0.5l-0.4,0.3l-0.9,0.5
					l-0.4,0.3l-0.8,0.6l-0.4,0.3l-0.8,0.6l-0.4,0.3l-0.7,0.7l-0.3,0.3c-0.2,0.3-0.4,0.5-0.7,0.7l-0.3,0.4l-0.6,0.8l-0.3,0.4
					c-0.2,0.3-0.4,0.6-0.6,0.8l-0.3,0.4l-0.5,0.9l-0.3,0.5l-0.5,1c-0.1,0.2-0.2,0.3-0.3,0.5l-0.5,1l-0.2,0.5l-0.4,1.1l-0.2,0.6
					l-0.5,1.3c-0.1,0.2-0.1,0.4-0.2,0.6l-0.4,1.2c-0.1,0.2-0.1,0.4-0.2,0.6c-0.1,0.4-0.3,0.9-0.4,1.3l-0.2,0.7l-0.4,1.4l-0.2,0.7
					l-0.3,1.5c0,0.3-0.1,0.5-0.2,0.8l-0.3,1.5c-0.1,0.3-0.1,0.5-0.2,0.8l-0.3,1.6c-0.1,0.3-0.1,0.6-0.2,0.8l-0.3,1.7
					c-0.2,0.9-0.3,1.8-0.5,2.7l0,0l0,0h-0.1l0,0c0,0,0,0-0.1,0c0,0,0-0.1,0-0.1c-0.1-0.3-0.1-0.6-0.2-0.9c-0.2-0.9-0.3-1.8-0.5-2.7
					s-0.3-1.7-0.5-2.5c-0.1-0.5-0.2-1.1-0.3-1.6c0-0.3-0.1-0.5-0.2-0.8c-0.1-0.5-0.2-1-0.3-1.5c-0.1-0.3-0.1-0.5-0.2-0.7
					c-0.1-0.5-0.2-1-0.3-1.4l-0.2-0.7l-0.4-1.3c-0.1-0.2-0.1-0.4-0.2-0.7c-0.1-0.4-0.3-0.8-0.4-1.3c-0.1-0.2-0.1-0.4-0.2-0.6
					c-0.1-0.4-0.3-0.8-0.4-1.2l-0.2-0.6l-0.4-1.1c-0.1-0.2-0.1-0.4-0.2-0.6l-0.4-1c-0.1-0.2-0.2-0.3-0.2-0.5l-0.5-1l-0.2-0.5
					l-0.5-0.9c-0.1-0.2-0.2-0.3-0.3-0.5s-0.4-0.6-0.6-0.9l-0.3-0.4l-0.6-0.8l-0.3-0.4l-0.6-0.8l-0.3-0.4l-0.7-0.7l-0.3-0.3L99,55.6
					c-0.1-0.1-0.2-0.2-0.4-0.3s-0.5-0.4-0.8-0.6l-0.4-0.3l-0.8-0.6l-0.4-0.3l-1-0.5l-0.4-0.3l-1-0.5L93.3,52l-1-0.5l-0.5-0.2
					l-1.1-0.4l-0.6-0.2L89,50.3L88.4,50l-1.2-0.4l-0.6-0.2l-1.3-0.4l-0.7-0.2l-1.4-0.4l-0.7-0.2L81.1,48l-0.7-0.2l-1.6-0.3L78,47.3
					L76.4,47l-0.8-0.2l-1.7-0.3L71.1,46l0,0H71c0,0,0-0.1,0-0.1l0,0v-0.1h0.1l0.9-0.2l2.7-0.5l2.5-0.5l1.6-0.3l0.8-0.2l1.5-0.3
					l0.7-0.2l1.4-0.4l0.7-0.2l1.3-0.4l0.7-0.2l1.3-0.4l0.6-0.2l1.2-0.4l0.6-0.2l1.1-0.4l0.6-0.2l1-0.5l0.5-0.2l1-0.5l0.5-0.2
					l0.9-0.5l0.4-0.3l0.9-0.5l0.4-0.3l0.8-0.6l0.4-0.3l0.8-0.6l0.4-0.3l0.7-0.7c0.1-0.1,0.2-0.2,0.3-0.3l0.7-0.7l0.3-0.4l0.6-0.8
					l0.3-0.4l0.6-0.8l0.3-0.4c0.2-0.3,0.3-0.6,0.5-0.9l0.3-0.5c0.2-0.3,0.3-0.6,0.5-1l0.2-0.5c0.2-0.3,0.3-0.7,0.5-1
					c0.1-0.2,0.2-0.3,0.2-0.5c0.2-0.4,0.3-0.7,0.4-1.1l0.2-0.5c0.1-0.4,0.3-0.8,0.4-1.1l0.2-0.6c0.1-0.4,0.3-0.8,0.4-1.2l0.2-0.6
					c0.1-0.4,0.3-0.9,0.4-1.3c0.1-0.2,0.1-0.4,0.2-0.7l0.4-1.4c0.1-0.2,0.1-0.5,0.2-0.7l0.3-1.5l0.2-0.8c0.1-0.5,0.2-1,0.3-1.6
					c0-0.3,0.1-0.5,0.2-0.8l0.3-1.6c0.1-0.3,0.1-0.6,0.2-0.8c0.1-0.6,0.2-1.2,0.3-1.7c0.2-0.9,0.3-1.8,0.5-2.7l0,0V6.4h0.1l0,0h0.1
					L110.8,6.2z"/>
			</g>
			<g id="b0f1a8cb-efd9-46f7-b8e4-95a1c05a861e-child-0">
				<path class="st1" d="M150.2,46c-29.6,5.3-34.1,9.8-39.4,39.4c0,0.1-0.1,0.1-0.1,0.1c0,0,0,0,0,0c-0.1,0-0.1-0.1-0.1-0.1
					c-5.3-29.6-9.8-34.1-39.4-39.4C71,46,71,45.9,71,45.9c0-0.1,0-0.1,0.1-0.1c0,0,0,0,0,0c29.6-5.3,34.2-9.8,39.4-39.4
					c0-0.1,0-0.1,0.1-0.1c0,0,0,0,0,0c0.1,0,0.1,0.1,0.1,0.1c5.3,29.6,9.8,34.1,39.4,39.4c0.1,0,0.1,0.1,0.1,0.1
					C150.3,45.9,150.3,46,150.2,46z"/>
			</g>
		</g>
		<g id="_9de548a4-b221-4e28-a64b-f57501bdfc22">
			<g id="c477c628-11a4-49fd-9358-5ea2ae7e7cae">
				<path class="st2" d="M30.3,107.6L30.3,107.6c0,0.2,0.1,0.4,0.1,0.6c0.1,0.5,0.2,1,0.3,1.6s0.2,1,0.3,1.5
					c0.1,0.3,0.1,0.6,0.2,0.9c0,0.2,0.1,0.3,0.1,0.5s0.1,0.6,0.2,0.9s0.1,0.3,0.1,0.4l0.2,0.8c0,0.1,0.1,0.3,0.1,0.4
					s0.1,0.5,0.2,0.8s0.1,0.3,0.1,0.4s0.2,0.5,0.2,0.7s0.1,0.2,0.1,0.4l0.2,0.7l0.1,0.3l0.3,0.7c0,0.1,0.1,0.2,0.1,0.3
					s0.2,0.4,0.3,0.6s0.1,0.2,0.1,0.3L34,121l0.1,0.3l0.3,0.5l0.2,0.3l0.3,0.5c0,0.1,0.1,0.2,0.2,0.3s0.2,0.3,0.3,0.5l0.2,0.2
					L36,124l0.2,0.2l0.4,0.4l0.2,0.2l0.4,0.4l0.2,0.2l0.5,0.4l0.2,0.2l0.5,0.3l0.3,0.2l0.5,0.3l0.3,0.2l0.6,0.3l0.3,0.1l0.6,0.3
					l0.3,0.1L42,128l0.3,0.1l0.7,0.2l0.3,0.1l0.7,0.2l0.4,0.1l0.8,0.2l0.4,0.1l0.8,0.2l0.4,0.1l0.9,0.2l0.4,0.1L49,130l0.5,0.1
					l1,0.2l0.5,0.1l1,0.2l1.6,0.3l0,0l0,0c0,0,0,0,0,0.1l0,0l0,0l0,0l0,0L53,131l-1.6,0.3l-1.5,0.3l-0.9,0.2l-0.5,0.1l-0.9,0.2
					l-0.4,0.1l-0.8,0.2l-0.4,0.1l-0.8,0.2l-0.4,0.1l-0.7,0.2l-0.4,0.1l-0.7,0.2l-0.3,0.1l-0.7,0.3l-0.3,0.1l-0.6,0.3l-0.3,0.1
					l-0.6,0.3l-0.3,0.1l-0.5,0.3c-0.1,0-0.2,0.1-0.3,0.2l-0.5,0.3l-0.3,0.2l-0.5,0.4l-0.2,0.2c-0.1,0.1-0.3,0.3-0.4,0.4l-0.2,0.2
					c-0.1,0.1-0.3,0.3-0.4,0.4l-0.2,0.2l-0.4,0.4l-0.2,0.2l-0.4,0.4l-0.2,0.2l-0.3,0.5l-0.2,0.3l-0.3,0.5l-0.2,0.3
					c-0.1,0.2-0.2,0.4-0.3,0.6l-0.1,0.3c-0.1,0.2-0.2,0.4-0.3,0.6l-0.1,0.3l-0.3,0.6l-0.1,0.3c-0.1,0.2-0.2,0.4-0.3,0.7l-0.1,0.3
					c-0.1,0.2-0.2,0.5-0.2,0.7s-0.1,0.2-0.1,0.4s-0.2,0.5-0.2,0.8s-0.1,0.3-0.1,0.4s-0.1,0.5-0.2,0.8s-0.1,0.3-0.1,0.4l-0.2,0.9
					c0,0.1-0.1,0.3-0.1,0.4c-0.1,0.3-0.1,0.6-0.2,0.9s-0.1,0.3-0.1,0.5c-0.1,0.3-0.1,0.6-0.2,1l-0.1,0.5c-0.1,0.3-0.1,0.7-0.2,1
					c-0.1,0.5-0.2,1.1-0.3,1.6l0,0l0,0h-0.1l0,0l0,0l0,0l-0.1-0.6c-0.1-0.5-0.2-1-0.3-1.6s-0.2-1-0.3-1.5c-0.1-0.3-0.1-0.6-0.2-0.9
					c0-0.1-0.1-0.3-0.1-0.5c-0.1-0.3-0.1-0.6-0.2-0.9s-0.1-0.3-0.1-0.4s-0.1-0.6-0.2-0.8s-0.1-0.3-0.1-0.4l-0.2-0.8
					c0-0.1-0.1-0.3-0.1-0.4s-0.1-0.5-0.2-0.7l-0.1-0.4c-0.1-0.2-0.1-0.5-0.2-0.7l-0.1-0.3c-0.1-0.2-0.2-0.4-0.3-0.7
					s-0.1-0.2-0.1-0.3s-0.2-0.4-0.3-0.6s-0.1-0.2-0.1-0.3l-0.3-0.6l-0.1-0.3l-0.3-0.5l-0.2-0.3l-0.3-0.5c0-0.1-0.1-0.2-0.2-0.3
					s-0.2-0.3-0.4-0.5s-0.1-0.1-0.2-0.2l-0.4-0.4l-0.2-0.2l-0.4-0.4l-0.2-0.2l-0.4-0.4l-0.2-0.2l-0.5-0.4l-0.2-0.2l-0.5-0.3
					l-0.3-0.2l-0.5-0.3l-0.3-0.1l-0.6-0.3l-0.3-0.1l-0.6-0.3l-0.3-0.1l-0.6-0.3l-0.3-0.1l-0.7-0.2l-0.3-0.1l-0.7-0.2l-0.4-0.1
					l-0.8-0.2l-0.4-0.1l-0.8-0.2l-0.4-0.1l-0.9-0.2l-0.4-0.1l-0.9-0.2l-0.5-0.1l-1-0.2l-0.5-0.1l-1-0.2L7,130.9l0,0l0,0v-0.1l0,0
					l0,0l0,0l0.6-0.1l1.6-0.3l1.5-0.3l0.9-0.2l0.5-0.1l0.9-0.2l0.4-0.1l0.8-0.2l0.4-0.1l0.8-0.2l0.4-0.1l0.7-0.2l0.4-0.1l0.7-0.2
					l0.3-0.1l0.7-0.3l0.3-0.1l0.6-0.3l0.3-0.1l0.6-0.3l0.3-0.1l0.5-0.3l0.3-0.2l0.5-0.3l0.3-0.2l0.5-0.3l0.2-0.2l0.4-0.4l0.2-0.2
					l0.4-0.4l0.2-0.2l0.4-0.4c0.1-0.1,0.1-0.2,0.2-0.2l0.4-0.4l0.2-0.2l0.3-0.5l0.2-0.3c0.1-0.2,0.2-0.3,0.3-0.5l0.1-0.3l0.3-0.6
					l0.1-0.3l0.3-0.6l0.1-0.3c0.1-0.2,0.2-0.4,0.3-0.6c0-0.1,0.1-0.2,0.1-0.3l0.2-0.7l0.1-0.3c0.1-0.2,0.1-0.5,0.2-0.7l0.1-0.4
					c0.1-0.3,0.1-0.5,0.2-0.8s0.1-0.3,0.1-0.4l0.2-0.8c0-0.1,0.1-0.3,0.1-0.4l0.2-0.9l0.1-0.4c0.1-0.3,0.1-0.6,0.2-0.9
					s0.1-0.3,0.1-0.5c0.1-0.3,0.1-0.7,0.2-1s0.1-0.3,0.1-0.5c0.1-0.3,0.1-0.7,0.2-1c0.1-0.5,0.2-1.1,0.3-1.6l0,0l0,0h0.1l0,0l0,0
					L30.3,107.6z"/>
			</g>
			<g id="_9de548a4-b221-4e28-a64b-f57501bdfc22-child-0">
				<path class="st3" d="M53.5,130.9c-17.4,3.1-20,5.8-23.1,23.1c0,0,0,0.1-0.1,0.1h0c0,0-0.1,0-0.1-0.1c-3.1-17.4-5.7-20-23.1-23.1
					c0,0-0.1,0-0.1-0.1c0,0,0,0,0,0c0,0,0-0.1,0.1-0.1c17.4-3.1,20-5.8,23.1-23.1c0,0,0-0.1,0.1-0.1c0,0,0.1,0,0.1,0.1c0,0,0,0,0,0
					c3.1,17.4,5.8,20,23.1,23.1C53.5,130.8,53.5,130.8,53.5,130.9C53.5,130.9,53.5,130.9,53.5,130.9z"/>
			</g>
		</g>
	</g>
</g>
</svg>
