<svg xmlns="http://www.w3.org/2000/svg" viewBox="0 0 291.27 291.18"><defs><style>.cls-1{fill:#1a1a1a;}</style></defs><title>Asset 149mdpi</title><g id="Layer_2" data-name="Layer 2"><g id="Layer_1-2" data-name="Layer 1"><path class="cls-1" d="M145.64,149.2a3.61,3.61,0,1,0-3.62-3.61A3.61,3.61,0,0,0,145.64,149.2Z"/><path class="cls-1" d="M153.73,149.2a3.61,3.61,0,1,0-3.62-3.61A3.61,3.61,0,0,0,153.73,149.2Z"/><path class="cls-1" d="M150.68,155.53a3.62,3.62,0,1,0-3.61-3.61A3.61,3.61,0,0,0,150.68,155.53Z"/><circle class="cls-1" cx="143.84" cy="153.48" r="3.61"/><path class="cls-1" d="M138.35,152.71a3.61,3.61,0,1,0-3.61-3.61A3.61,3.61,0,0,0,138.35,152.71Z"/><path class="cls-1" d="M138.35,145.69a3.61,3.61,0,1,0-3.61-3.61A3.61,3.61,0,0,0,138.35,145.69Z"/><path class="cls-1" d="M143.84,141.32a3.62,3.62,0,1,0-3.62-3.62A3.62,3.62,0,0,0,143.84,141.32Z"/><path class="cls-1" d="M150.68,142.88a3.62,3.62,0,1,0-3.61-3.61A3.61,3.61,0,0,0,150.68,142.88Z"/><path class="cls-1" d="M161.81,149.13a3.54,3.54,0,1,0-3.54-3.54A3.54,3.54,0,0,0,161.81,149.13Z"/><path class="cls-1" d="M160.21,156.18a3.57,3.57,0,1,0-3.56-3.57A3.57,3.57,0,0,0,160.21,156.18Z"/><path class="cls-1" d="M155.72,161.78a3.54,3.54,0,1,0-3.54-3.54A3.54,3.54,0,0,0,155.72,161.78Z"/><path class="cls-1" d="M149.24,164.91a3.55,3.55,0,1,0-3.55-3.55A3.55,3.55,0,0,0,149.24,164.91Z"/><path class="cls-1" d="M142,164.91a3.55,3.55,0,1,0-3.55-3.55A3.55,3.55,0,0,0,142,164.91Z"/><path class="cls-1" d="M135.55,161.78a3.54,3.54,0,1,0-3.55-3.54A3.53,3.53,0,0,0,135.55,161.78Z"/><path class="cls-1" d="M131.06,156.15a3.54,3.54,0,1,0-3.55-3.54A3.53,3.53,0,0,0,131.06,156.15Z"/><path class="cls-1" d="M129.46,149.13a3.54,3.54,0,1,0-3.55-3.54A3.54,3.54,0,0,0,129.46,149.13Z"/><circle class="cls-1" cx="131.06" cy="138.57" r="3.52"/><circle class="cls-1" cx="135.55" cy="132.94" r="3.52" transform="translate(-38.97 207.7) rotate(-67.63)"/><circle class="cls-1" cx="142.04" cy="129.82" r="3.52" transform="translate(-32.06 211.77) rotate(-67.63)"/><circle class="cls-1" cx="149.24" cy="129.82" r="3.54"/><path class="cls-1" d="M155.72,136.49a3.55,3.55,0,1,0-3.54-3.55A3.55,3.55,0,0,0,155.72,136.49Z"/><path class="cls-1" d="M160.21,142.11a3.54,3.54,0,1,0-3.54-3.54A3.54,3.54,0,0,0,160.21,142.11Z"/><path class="cls-1" d="M169.9,148.93a3.34,3.34,0,1,0-3.34-3.34A3.34,3.34,0,0,0,169.9,148.93Z"/><path class="cls-1" d="M168.83,156.09a3.35,3.35,0,1,0-3.35-3.35A3.35,3.35,0,0,0,168.83,156.09Z"/><path class="cls-1" d="M165.69,162.6a3.34,3.34,0,1,0-3.35-3.34A3.34,3.34,0,0,0,165.69,162.6Z"/><path class="cls-1" d="M160.77,167.91a3.35,3.35,0,1,0-3.35-3.35A3.35,3.35,0,0,0,160.77,167.91Z"/><path class="cls-1" d="M154.5,171.52a3.34,3.34,0,1,0-3.34-3.34A3.33,3.33,0,0,0,154.5,171.52Z"/><path class="cls-1" d="M147.45,173.13a3.34,3.34,0,1,0-3.34-3.34A3.34,3.34,0,0,0,147.45,173.13Z"/><path class="cls-1" d="M140.23,172.57a3.32,3.32,0,1,0-3.31-3.32A3.33,3.33,0,0,0,140.23,172.57Z"/><path class="cls-1" d="M133.5,169.93a3.32,3.32,0,1,0-3.32-3.32A3.32,3.32,0,0,0,133.5,169.93Z"/><path class="cls-1" d="M127.85,165.42a3.32,3.32,0,1,0-3.32-3.32A3.32,3.32,0,0,0,127.85,165.42Z"/><path class="cls-1" d="M123.77,159.44a3.32,3.32,0,1,0-3.32-3.32A3.32,3.32,0,0,0,123.77,159.44Z"/><path class="cls-1" d="M121.64,152.53a3.32,3.32,0,1,0-3.32-3.32A3.32,3.32,0,0,0,121.64,152.53Z"/><path class="cls-1" d="M121.64,145.29a3.32,3.32,0,1,0-3.32-3.32A3.32,3.32,0,0,0,121.64,145.29Z"/><path class="cls-1" d="M123.77,138.38a3.32,3.32,0,1,0-3.32-3.32A3.32,3.32,0,0,0,123.77,138.38Z"/><path class="cls-1" d="M127.85,132.4a3.32,3.32,0,1,0-3.32-3.32A3.31,3.31,0,0,0,127.85,132.4Z"/><path class="cls-1" d="M133.5,127.89a3.32,3.32,0,1,0-3.32-3.32A3.32,3.32,0,0,0,133.5,127.89Z"/><path class="cls-1" d="M140.23,125.25a3.32,3.32,0,1,0-3.31-3.32A3.33,3.33,0,0,0,140.23,125.25Z"/><path class="cls-1" d="M147.45,124.71a3.32,3.32,0,1,0-3.32-3.32A3.32,3.32,0,0,0,147.45,124.71Z"/><path class="cls-1" d="M154.5,126.32a3.32,3.32,0,1,0-3.32-3.32A3.32,3.32,0,0,0,154.5,126.32Z"/><path class="cls-1" d="M160.77,129.94a3.32,3.32,0,1,0-3.32-3.32A3.32,3.32,0,0,0,160.77,129.94Z"/><path class="cls-1" d="M165.69,135.24a3.32,3.32,0,1,0-3.32-3.32A3.32,3.32,0,0,0,165.69,135.24Z"/><path class="cls-1" d="M168.83,141.76a3.32,3.32,0,1,0-3.32-3.32A3.32,3.32,0,0,0,168.83,141.76Z"/><path class="cls-1" d="M178,148.71a3.12,3.12,0,1,0-3.11-3.12A3.12,3.12,0,0,0,178,148.71Z"/><circle class="cls-1" cx="177.18" cy="152.79" r="3.12" transform="translate(-22.24 30.43) rotate(-9.24)"/><circle class="cls-1" cx="174.79" cy="159.63" r="3.12" transform="translate(-23.37 30.14) rotate(-9.24)"/><circle class="cls-1" cx="170.93" cy="165.77" r="3.12"/><circle class="cls-1" cx="165.81" cy="170.89" r="3.12"/><circle class="cls-1" cx="159.68" cy="174.74" r="3.12" transform="translate(-25.99 27.91) rotate(-9.24)"/><path class="cls-1" d="M152.84,180.26a3.12,3.12,0,1,0-3.12-3.12A3.12,3.12,0,0,0,152.84,180.26Z"/><path class="cls-1" d="M145.64,181.07a3.12,3.12,0,1,0-3.12-3.12A3.12,3.12,0,0,0,145.64,181.07Z"/><path class="cls-1" d="M138.44,180.26a3.12,3.12,0,1,0-3.12-3.12A3.12,3.12,0,0,0,138.44,180.26Z"/><circle class="cls-1" cx="131.6" cy="174.74" r="3.1"/><path class="cls-1" d="M125.46,174a3.1,3.1,0,1,0-3.1-3.09A3.09,3.09,0,0,0,125.46,174Z"/><circle class="cls-1" cx="120.34" cy="165.77" r="3.1"/><circle class="cls-1" cx="116.48" cy="159.63" r="3.1"/><circle class="cls-1" cx="114.09" cy="152.79" r="3.1"/><path class="cls-1" d="M113.28,148.69a3.1,3.1,0,1,0-3.1-3.1A3.09,3.09,0,0,0,113.28,148.69Z"/><circle class="cls-1" cx="114.09" cy="138.39" r="3.1"/><path class="cls-1" d="M116.48,134.65a3.1,3.1,0,1,0-3.09-3.1A3.1,3.1,0,0,0,116.48,134.65Z"/><circle class="cls-1" cx="120.34" cy="125.42" r="3.1"/><circle class="cls-1" cx="125.46" cy="120.29" r="3.1"/><circle class="cls-1" cx="131.6" cy="116.44" r="3.1"/><path class="cls-1" d="M138.44,117.14a3.1,3.1,0,1,0-3.1-3.1A3.1,3.1,0,0,0,138.44,117.14Z"/><path class="cls-1" d="M145.64,116.33a3.1,3.1,0,1,0-3.1-3.1A3.09,3.09,0,0,0,145.64,116.33Z"/><path class="cls-1" d="M152.84,117.14a3.1,3.1,0,1,0-3.1-3.1A3.09,3.09,0,0,0,152.84,117.14Z"/><circle class="cls-1" cx="159.68" cy="116.44" r="3.1" transform="translate(-16.63 27.15) rotate(-9.24)"/><circle class="cls-1" cx="165.81" cy="120.29" r="3.1"/><circle class="cls-1" cx="170.93" cy="125.42" r="3.1"/><path class="cls-1" d="M174.79,134.65a3.1,3.1,0,1,0-3.1-3.1A3.09,3.09,0,0,0,174.79,134.65Z"/><circle class="cls-1" cx="177.18" cy="138.39" r="3.12" transform="translate(-19.92 30.25) rotate(-9.24)"/><path class="cls-1" d="M186.08,148.48a2.89,2.89,0,1,0-2.89-2.89A2.89,2.89,0,0,0,186.08,148.48Z"/><circle class="cls-1" cx="185.43" cy="152.81" r="2.89" transform="translate(-22.13 31.75) rotate(-9.24)"/><path class="cls-1" d="M183.5,162.7a2.9,2.9,0,1,0-2.89-2.9A2.9,2.9,0,0,0,183.5,162.7Z"/><path class="cls-1" d="M180.36,169.23a2.9,2.9,0,1,0-2.9-2.89A2.89,2.89,0,0,0,180.36,169.23Z"/><path class="cls-1" d="M176.1,175.1a2.9,2.9,0,1,0-2.9-2.9A2.9,2.9,0,0,0,176.1,175.1Z"/><path class="cls-1" d="M170.85,180.11a2.9,2.9,0,1,0-2.89-2.9A2.9,2.9,0,0,0,170.85,180.11Z"/><circle class="cls-1" cx="164.8" cy="181.21" r="2.89"/><path class="cls-1" d="M158.13,187a2.9,2.9,0,1,0-2.89-2.89A2.89,2.89,0,0,0,158.13,187Z"/><path class="cls-1" d="M151.06,188.57a2.9,2.9,0,1,0-2.89-2.9A2.9,2.9,0,0,0,151.06,188.57Z"/><path class="cls-1" d="M143.82,188.89a2.9,2.9,0,1,0-2.89-2.89A2.89,2.89,0,0,0,143.82,188.89Z"/><path class="cls-1" d="M136.63,187.92a2.9,2.9,0,1,0-2.89-2.9A2.9,2.9,0,0,0,136.63,187.92Z"/><path class="cls-1" d="M129.74,185.68a2.9,2.9,0,1,0-2.9-2.9A2.89,2.89,0,0,0,129.74,185.68Z"/><circle class="cls-1" cx="123.35" cy="179.35" r="2.89"/><circle class="cls-1" cx="117.68" cy="174.83" r="2.87"/><path class="cls-1" d="M112.91,172.24a2.88,2.88,0,1,0-2.87-2.88A2.87,2.87,0,0,0,112.91,172.24Z"/><path class="cls-1" d="M109.19,166a2.87,2.87,0,1,0-2.87-2.87A2.86,2.86,0,0,0,109.19,166Z"/><path class="cls-1" d="M106.64,159.22a2.87,2.87,0,1,0-2.87-2.87A2.87,2.87,0,0,0,106.64,159.22Z"/><circle class="cls-1" cx="105.35" cy="149.22" r="2.87"/><circle class="cls-1" cx="105.35" cy="141.96" r="2.87"/><circle class="cls-1" cx="106.64" cy="134.83" r="2.87"/><path class="cls-1" d="M109.19,130.91a2.87,2.87,0,1,0-2.87-2.87A2.86,2.86,0,0,0,109.19,130.91Z"/><path class="cls-1" d="M112.91,124.69a2.88,2.88,0,1,0-2.87-2.87A2.87,2.87,0,0,0,112.91,124.69Z"/><circle class="cls-1" cx="117.68" cy="116.35" r="2.87"/><circle class="cls-1" cx="123.35" cy="111.83" r="2.87"/><path class="cls-1" d="M129.74,111.27a2.87,2.87,0,1,0-2.87-2.87A2.88,2.88,0,0,0,129.74,111.27Z"/><circle class="cls-1" cx="136.63" cy="106.16" r="2.87"/><circle class="cls-1" cx="143.82" cy="105.18" r="2.87"/><path class="cls-1" d="M151.06,108.38a2.87,2.87,0,1,0-2.87-2.87A2.88,2.88,0,0,0,151.06,108.38Z"/><path class="cls-1" d="M158.13,110a2.87,2.87,0,1,0-2.87-2.87A2.87,2.87,0,0,0,158.13,110Z"/><circle class="cls-1" cx="164.8" cy="109.97" r="2.87"/><circle class="cls-1" cx="170.85" cy="113.97" r="2.87"/><path class="cls-1" d="M176.1,121.85a2.87,2.87,0,1,0-2.88-2.87A2.88,2.88,0,0,0,176.1,121.85Z"/><circle class="cls-1" cx="180.36" cy="124.84" r="2.87"/><path class="cls-1" d="M183.5,134.27a2.9,2.9,0,1,0-2.89-2.89A2.89,2.89,0,0,0,183.5,134.27Z"/><path class="cls-1" d="M185.43,141.26a2.9,2.9,0,1,0-2.89-2.89A2.89,2.89,0,0,0,185.43,141.26Z"/><path class="cls-1" d="M194.17,148.26a2.67,2.67,0,1,0-2.67-2.67A2.67,2.67,0,0,0,194.17,148.26Z"/><circle class="cls-1" cx="193.63" cy="152.82" r="2.67"/><path class="cls-1" d="M192,162.57a2.67,2.67,0,1,0-2.67-2.67A2.68,2.68,0,0,0,192,162.57Z"/><path class="cls-1" d="M189.37,169.32a2.67,2.67,0,1,0-2.67-2.67A2.68,2.68,0,0,0,189.37,169.32Z"/><circle class="cls-1" cx="185.74" cy="172.93" r="2.67"/><path class="cls-1" d="M181.22,181.27a2.67,2.67,0,1,0-2.67-2.67A2.67,2.67,0,0,0,181.22,181.27Z"/><path class="cls-1" d="M175.9,186.21a2.67,2.67,0,1,0-2.67-2.67A2.68,2.68,0,0,0,175.9,186.21Z"/><path class="cls-1" d="M169.9,190.29a2.67,2.67,0,1,0-2.67-2.66A2.66,2.66,0,0,0,169.9,190.29Z"/><path class="cls-1" d="M163.37,193.44a2.67,2.67,0,1,0-2.67-2.67A2.67,2.67,0,0,0,163.37,193.44Z"/><path class="cls-1" d="M156.44,195.58a2.67,2.67,0,1,0-2.67-2.67A2.67,2.67,0,0,0,156.44,195.58Z"/><path class="cls-1" d="M149.26,196.66a2.67,2.67,0,1,0-2.67-2.67A2.66,2.66,0,0,0,149.26,196.66Z"/><path class="cls-1" d="M142,196.66a2.67,2.67,0,1,0-2.67-2.67A2.67,2.67,0,0,0,142,196.66Z"/><path class="cls-1" d="M134.83,195.58a2.67,2.67,0,1,0-2.66-2.67A2.66,2.66,0,0,0,134.83,195.58Z"/><path class="cls-1" d="M127.9,193.44a2.67,2.67,0,1,0-2.67-2.67A2.66,2.66,0,0,0,127.9,193.44Z"/><path class="cls-1" d="M121.37,190.29a2.67,2.67,0,1,0-2.67-2.66A2.67,2.67,0,0,0,121.37,190.29Z"/><path class="cls-1" d="M115.37,186.21a2.67,2.67,0,1,0-2.67-2.67A2.67,2.67,0,0,0,115.37,186.21Z"/><path class="cls-1" d="M110.05,181.25a2.65,2.65,0,1,0-2.64-2.65A2.64,2.64,0,0,0,110.05,181.25Z"/><circle class="cls-1" cx="105.53" cy="172.93" r="2.65"/><path class="cls-1" d="M101.9,169.3a2.65,2.65,0,1,0-2.64-2.65A2.65,2.65,0,0,0,101.9,169.3Z"/><path class="cls-1" d="M99.25,162.54a2.65,2.65,0,1,0-2.64-2.64A2.64,2.64,0,0,0,99.25,162.54Z"/><circle class="cls-1" cx="97.64" cy="152.82" r="2.65"/><path class="cls-1" d="M97.1,148.24a2.65,2.65,0,1,0-2.65-2.65A2.65,2.65,0,0,0,97.1,148.24Z"/><path class="cls-1" d="M97.64,141A2.65,2.65,0,1,0,95,138.36,2.65,2.65,0,0,0,97.64,141Z"/><path class="cls-1" d="M99.25,133.93a2.65,2.65,0,1,0-2.64-2.65A2.64,2.64,0,0,0,99.25,133.93Z"/><path class="cls-1" d="M101.9,127.18a2.65,2.65,0,1,0-2.64-2.65A2.65,2.65,0,0,0,101.9,127.18Z"/><path class="cls-1" d="M105.53,120.89a2.65,2.65,0,1,0-2.65-2.64A2.65,2.65,0,0,0,105.53,120.89Z"/><path class="cls-1" d="M110.05,115.22a2.65,2.65,0,1,0-2.64-2.64A2.64,2.64,0,0,0,110.05,115.22Z"/><path class="cls-1" d="M115.37,110.29a2.65,2.65,0,1,0-2.64-2.65A2.65,2.65,0,0,0,115.37,110.29Z"/><path class="cls-1" d="M121.37,106.2a2.65,2.65,0,1,0-2.65-2.64A2.64,2.64,0,0,0,121.37,106.2Z"/><path class="cls-1" d="M127.9,103.05a2.65,2.65,0,1,0-2.64-2.64A2.65,2.65,0,0,0,127.9,103.05Z"/><path class="cls-1" d="M134.83,100.92a2.65,2.65,0,1,0-2.64-2.65A2.65,2.65,0,0,0,134.83,100.92Z"/><path class="cls-1" d="M142,99.84a2.65,2.65,0,1,0-2.65-2.65A2.65,2.65,0,0,0,142,99.84Z"/><path class="cls-1" d="M149.26,99.84a2.65,2.65,0,1,0-2.64-2.65A2.65,2.65,0,0,0,149.26,99.84Z"/><path class="cls-1" d="M156.44,100.92a2.65,2.65,0,1,0-2.65-2.65A2.65,2.65,0,0,0,156.44,100.92Z"/><path class="cls-1" d="M163.37,103.05a2.65,2.65,0,1,0-2.65-2.64A2.65,2.65,0,0,0,163.37,103.05Z"/><path class="cls-1" d="M169.9,106.2a2.65,2.65,0,1,0-2.64-2.64A2.64,2.64,0,0,0,169.9,106.2Z"/><path class="cls-1" d="M175.9,110.29a2.65,2.65,0,1,0-2.65-2.65A2.65,2.65,0,0,0,175.9,110.29Z"/><path class="cls-1" d="M181.22,115.22a2.65,2.65,0,1,0-2.65-2.64A2.64,2.64,0,0,0,181.22,115.22Z"/><path class="cls-1" d="M185.74,120.92a2.67,2.67,0,1,0-2.67-2.67A2.68,2.68,0,0,0,185.74,120.92Z"/><path class="cls-1" d="M189.37,127.2a2.67,2.67,0,1,0-2.67-2.67A2.68,2.68,0,0,0,189.37,127.2Z"/><path class="cls-1" d="M192,134a2.67,2.67,0,1,0-2.67-2.67A2.67,2.67,0,0,0,192,134Z"/><path class="cls-1" d="M193.63,141a2.67,2.67,0,1,0-2.67-2.67A2.67,2.67,0,0,0,193.63,141Z"/><path class="cls-1" d="M202.26,148a2.45,2.45,0,1,0-2.44-2.45A2.45,2.45,0,0,0,202.26,148Z"/><path class="cls-1" d="M201.8,155.28a2.45,2.45,0,1,0-2.45-2.45A2.45,2.45,0,0,0,201.8,155.28Z"/><circle class="cls-1" cx="200.41" cy="159.95" r="2.45"/><path class="cls-1" d="M198.12,169.29a2.45,2.45,0,1,0-2.44-2.45A2.45,2.45,0,0,0,198.12,169.29Z"/><circle class="cls-1" cx="194.98" cy="173.38" r="2.45"/><path class="cls-1" d="M191,181.9a2.45,2.45,0,1,0-2.45-2.44A2.44,2.44,0,0,0,191,181.9Z"/><path class="cls-1" d="M186.31,187.43a2.45,2.45,0,1,0-2.44-2.45A2.45,2.45,0,0,0,186.31,187.43Z"/><path class="cls-1" d="M180.94,192.31a2.45,2.45,0,1,0-2.44-2.45A2.45,2.45,0,0,0,180.94,192.31Z"/><path class="cls-1" d="M175,196.46a2.45,2.45,0,1,0-2.44-2.45A2.45,2.45,0,0,0,175,196.46Z"/><path class="cls-1" d="M168.56,199.82a2.45,2.45,0,1,0-2.45-2.45A2.45,2.45,0,0,0,168.56,199.82Z"/><path class="cls-1" d="M161.75,202.32a2.45,2.45,0,1,0-2.45-2.44A2.44,2.44,0,0,0,161.75,202.32Z"/><circle class="cls-1" cx="154.67" cy="201.49" r="2.45"/><path class="cls-1" d="M147.45,204.63a2.45,2.45,0,1,0-2.44-2.44A2.45,2.45,0,0,0,147.45,204.63Z"/><path class="cls-1" d="M140.2,204.4a2.45,2.45,0,1,0-2.45-2.44A2.44,2.44,0,0,0,140.2,204.4Z"/><path class="cls-1" d="M133,203.24a2.45,2.45,0,1,0-2.44-2.44A2.44,2.44,0,0,0,133,203.24Z"/><path class="cls-1" d="M126.08,201.18a2.45,2.45,0,1,0-2.45-2.45A2.45,2.45,0,0,0,126.08,201.18Z"/><circle class="cls-1" cx="119.44" cy="195.8" r="2.45"/><path class="cls-1" d="M113.24,194.48a2.45,2.45,0,1,0-2.45-2.45A2.45,2.45,0,0,0,113.24,194.48Z"/><circle class="cls-1" cx="107.56" cy="187.51" r="2.45"/><path class="cls-1" d="M102.52,184.72a2.43,2.43,0,1,0-2.43-2.42A2.42,2.42,0,0,0,102.52,184.72Z"/><path class="cls-1" d="M98.18,178.91a2.43,2.43,0,1,0-2.43-2.43A2.43,2.43,0,0,0,98.18,178.91Z"/><path class="cls-1" d="M94.62,172.58a2.42,2.42,0,1,0-2.43-2.42A2.42,2.42,0,0,0,94.62,172.58Z"/><path class="cls-1" d="M91.89,165.86a2.43,2.43,0,1,0-2.42-2.43A2.43,2.43,0,0,0,91.89,165.86Z"/><path class="cls-1" d="M90.05,158.84a2.43,2.43,0,1,0-2.42-2.42A2.43,2.43,0,0,0,90.05,158.84Z"/><path class="cls-1" d="M89.12,151.64a2.42,2.42,0,1,0-2.42-2.42A2.42,2.42,0,0,0,89.12,151.64Z"/><path class="cls-1" d="M89.12,144.38A2.42,2.42,0,1,0,86.7,142,2.42,2.42,0,0,0,89.12,144.38Z"/><path class="cls-1" d="M90.05,137.19a2.43,2.43,0,1,0-2.42-2.42A2.43,2.43,0,0,0,90.05,137.19Z"/><path class="cls-1" d="M91.89,130.17a2.43,2.43,0,1,0-2.42-2.42A2.43,2.43,0,0,0,91.89,130.17Z"/><path class="cls-1" d="M94.62,123.44A2.42,2.42,0,1,0,92.19,121,2.42,2.42,0,0,0,94.62,123.44Z"/><path class="cls-1" d="M98.18,117.12a2.42,2.42,0,1,0-2.43-2.42A2.42,2.42,0,0,0,98.18,117.12Z"/><path class="cls-1" d="M102.52,111.31a2.43,2.43,0,1,0-2.43-2.43A2.43,2.43,0,0,0,102.52,111.31Z"/><path class="cls-1" d="M107.56,106.09a2.42,2.42,0,1,0-2.42-2.42A2.42,2.42,0,0,0,107.56,106.09Z"/><path class="cls-1" d="M113.24,101.57a2.43,2.43,0,1,0-2.42-2.42A2.42,2.42,0,0,0,113.24,101.57Z"/><circle class="cls-1" cx="119.44" cy="95.38" r="2.42"/><path class="cls-1" d="M126.08,94.87a2.43,2.43,0,1,0-2.42-2.42A2.42,2.42,0,0,0,126.08,94.87Z"/><path class="cls-1" d="M133,92.81a2.43,2.43,0,1,0-2.42-2.43A2.43,2.43,0,0,0,133,92.81Z"/><path class="cls-1" d="M140.2,91.65a2.43,2.43,0,1,0-2.42-2.43A2.42,2.42,0,0,0,140.2,91.65Z"/><path class="cls-1" d="M147.45,91.41A2.42,2.42,0,1,0,145,89,2.42,2.42,0,0,0,147.45,91.41Z"/><path class="cls-1" d="M154.67,92.11a2.42,2.42,0,1,0-2.42-2.42A2.42,2.42,0,0,0,154.67,92.11Z"/><path class="cls-1" d="M161.75,93.73a2.43,2.43,0,1,0-2.43-2.43A2.42,2.42,0,0,0,161.75,93.73Z"/><path class="cls-1" d="M168.56,96.23a2.42,2.42,0,1,0-2.43-2.42A2.42,2.42,0,0,0,168.56,96.23Z"/><path class="cls-1" d="M175,99.59a2.43,2.43,0,1,0-2.42-2.42A2.42,2.42,0,0,0,175,99.59Z"/><path class="cls-1" d="M180.94,103.74a2.43,2.43,0,1,0-2.42-2.42A2.42,2.42,0,0,0,180.94,103.74Z"/><path class="cls-1" d="M186.31,108.62a2.43,2.43,0,1,0-2.42-2.42A2.43,2.43,0,0,0,186.31,108.62Z"/><path class="cls-1" d="M191,114.17a2.45,2.45,0,1,0-2.45-2.45A2.45,2.45,0,0,0,191,114.17Z"/><circle class="cls-1" cx="194.98" cy="117.8" r="2.45"/><path class="cls-1" d="M198.12,126.79a2.45,2.45,0,1,0-2.44-2.45A2.45,2.45,0,0,0,198.12,126.79Z"/><circle class="cls-1" cx="200.41" cy="131.23" r="2.45"/><path class="cls-1" d="M201.8,140.79a2.45,2.45,0,1,0-2.45-2.44A2.44,2.44,0,0,0,201.8,140.79Z"/><path class="cls-1" d="M210.35,147.81a2.22,2.22,0,1,0-2.22-2.22A2.21,2.21,0,0,0,210.35,147.81Z"/><path class="cls-1" d="M210,155.06a2.22,2.22,0,1,0-2.23-2.22A2.23,2.23,0,0,0,210,155.06Z"/><circle class="cls-1" cx="208.73" cy="159.99" r="2.22"/><path class="cls-1" d="M206.72,169.19A2.23,2.23,0,1,0,204.5,167,2.22,2.22,0,0,0,206.72,169.19Z"/><path class="cls-1" d="M203.94,175.89a2.22,2.22,0,1,0-2.22-2.22A2.21,2.21,0,0,0,203.94,175.89Z"/><circle class="cls-1" cx="200.43" cy="180.02" r="2.22"/><circle class="cls-1" cx="196.23" cy="185.94" r="2.22"/><path class="cls-1" d="M191.4,193.57a2.22,2.22,0,1,0-2.22-2.22A2.22,2.22,0,0,0,191.4,193.57Z"/><path class="cls-1" d="M186,198.41a2.22,2.22,0,1,0-2.23-2.22A2.23,2.23,0,0,0,186,198.41Z"/><path class="cls-1" d="M180.07,202.61a2.22,2.22,0,1,0-2.22-2.22A2.23,2.23,0,0,0,180.07,202.61Z"/><path class="cls-1" d="M173.71,206.12a2.22,2.22,0,1,0-2.22-2.22A2.23,2.23,0,0,0,173.71,206.12Z"/><circle class="cls-1" cx="167.01" cy="206.68" r="2.22"/><path class="cls-1" d="M160,210.91a2.23,2.23,0,1,0-2.22-2.23A2.23,2.23,0,0,0,160,210.91Z"/><path class="cls-1" d="M152.88,212.12a2.22,2.22,0,1,0-2.22-2.22A2.21,2.21,0,0,0,152.88,212.12Z"/><path class="cls-1" d="M145.64,212.53a2.22,2.22,0,1,0-2.23-2.22A2.23,2.23,0,0,0,145.64,212.53Z"/><circle class="cls-1" cx="138.39" cy="209.9" r="2.22"/><path class="cls-1" d="M131.23,210.91a2.23,2.23,0,1,0-2.22-2.23A2.23,2.23,0,0,0,131.23,210.91Z"/><circle class="cls-1" cx="124.26" cy="206.68" r="2.22"/><circle class="cls-1" cx="117.56" cy="203.9" r="2.22"/><path class="cls-1" d="M111.2,202.61a2.22,2.22,0,1,0-2.22-2.22A2.22,2.22,0,0,0,111.2,202.61Z"/><path class="cls-1" d="M105.28,198.41a2.22,2.22,0,1,0-2.22-2.22A2.23,2.23,0,0,0,105.28,198.41Z"/><path class="cls-1" d="M99.87,193.57a2.22,2.22,0,1,0-2.22-2.22A2.21,2.21,0,0,0,99.87,193.57Z"/><path class="cls-1" d="M95,188.14a2.2,2.2,0,1,0-2.2-2.2A2.21,2.21,0,0,0,95,188.14Z"/><circle class="cls-1" cx="90.84" cy="180.02" r="2.2"/><path class="cls-1" d="M87.33,175.87a2.2,2.2,0,1,0-2.2-2.2A2.21,2.21,0,0,0,87.33,175.87Z"/><circle class="cls-1" cx="84.55" cy="166.96" r="2.2"/><circle class="cls-1" cx="82.54" cy="159.99" r="2.2"/><circle class="cls-1" cx="81.33" cy="152.84" r="2.2"/><path class="cls-1" d="M80.92,147.79a2.2,2.2,0,1,0-2.2-2.2A2.21,2.21,0,0,0,80.92,147.79Z"/><circle class="cls-1" cx="81.33" cy="138.34" r="2.2"/><circle class="cls-1" cx="82.54" cy="131.19" r="2.2"/><path class="cls-1" d="M84.55,126.41a2.2,2.2,0,1,0-2.2-2.19A2.2,2.2,0,0,0,84.55,126.41Z"/><path class="cls-1" d="M87.33,119.71a2.2,2.2,0,1,0-2.2-2.2A2.21,2.21,0,0,0,87.33,119.71Z"/><circle class="cls-1" cx="90.84" cy="111.16" r="2.2"/><path class="cls-1" d="M95,107.44a2.2,2.2,0,1,0-2.2-2.2A2.21,2.21,0,0,0,95,107.44Z"/><circle class="cls-1" cx="99.87" cy="99.83" r="2.2"/><circle class="cls-1" cx="105.28" cy="94.99" r="2.2"/><circle class="cls-1" cx="111.2" cy="90.79" r="2.2"/><circle class="cls-1" cx="117.56" cy="87.28" r="2.2"/><circle class="cls-1" cx="124.26" cy="84.5" r="2.2"/><path class="cls-1" d="M131.23,84.69A2.2,2.2,0,1,0,129,82.5,2.19,2.19,0,0,0,131.23,84.69Z"/><circle class="cls-1" cx="138.39" cy="81.28" r="2.2"/><path class="cls-1" d="M145.64,83.07a2.2,2.2,0,1,0-2.2-2.2A2.19,2.19,0,0,0,145.64,83.07Z"/><path class="cls-1" d="M152.88,83.48a2.2,2.2,0,1,0-2.2-2.2A2.2,2.2,0,0,0,152.88,83.48Z"/><circle class="cls-1" cx="160.04" cy="82.5" r="2.2"/><circle class="cls-1" cx="167.01" cy="84.5" r="2.2"/><path class="cls-1" d="M173.71,89.48a2.2,2.2,0,1,0-2.19-2.2A2.19,2.19,0,0,0,173.71,89.48Z"/><path class="cls-1" d="M180.07,93a2.2,2.2,0,1,0-2.2-2.2A2.2,2.2,0,0,0,180.07,93Z"/><path class="cls-1" d="M186,97.19a2.2,2.2,0,1,0-2.2-2.2A2.19,2.19,0,0,0,186,97.19Z"/><circle class="cls-1" cx="191.4" cy="99.83" r="2.22"/><circle class="cls-1" cx="196.23" cy="105.24" r="2.22"/><path class="cls-1" d="M200.43,113.38a2.22,2.22,0,1,0-2.22-2.22A2.21,2.21,0,0,0,200.43,113.38Z"/><path class="cls-1" d="M203.94,119.73a2.22,2.22,0,1,0-2.22-2.22A2.21,2.21,0,0,0,203.94,119.73Z"/><path class="cls-1" d="M206.72,126.44a2.23,2.23,0,1,0-2.22-2.22A2.22,2.22,0,0,0,206.72,126.44Z"/><circle class="cls-1" cx="208.73" cy="131.19" r="2.22"/><path class="cls-1" d="M210,140.57a2.23,2.23,0,1,0-2.23-2.23A2.23,2.23,0,0,0,210,140.57Z"/><path class="cls-1" d="M218.44,147.59a2,2,0,1,0-2-2A2,2,0,0,0,218.44,147.59Z"/><path class="cls-1" d="M218.08,154.84a2,2,0,1,0-2-2A2,2,0,0,0,218.08,154.84Z"/><path class="cls-1" d="M217,162a2,2,0,1,0-2-2A2,2,0,0,0,217,162Z"/><path class="cls-1" d="M215.21,169.05a2,2,0,1,0-2-2A2,2,0,0,0,215.21,169.05Z"/><path class="cls-1" d="M212.72,175.87a2,2,0,1,0-2-2A2,2,0,0,0,212.72,175.87Z"/><path class="cls-1" d="M209.58,182.41a2,2,0,1,0-2-2A2,2,0,0,0,209.58,182.41Z"/><path class="cls-1" d="M205.79,188.6a2,2,0,1,0-2-2A2,2,0,0,0,205.79,188.6Z"/><circle class="cls-1" cx="201.41" cy="192.39" r="2"/><path class="cls-1" d="M196.47,199.71a2,2,0,1,0-2-2A2,2,0,0,0,196.47,199.71Z"/><path class="cls-1" d="M191,204.51a2,2,0,1,0-2-2A2,2,0,0,0,191,204.51Z"/><path class="cls-1" d="M185.14,208.75a2,2,0,1,0-2-2A2,2,0,0,0,185.14,208.75Z"/><path class="cls-1" d="M178.85,212.38a2,2,0,1,0-2-2A2,2,0,0,0,178.85,212.38Z"/><path class="cls-1" d="M172.23,215.36a2,2,0,1,0-2-2A2,2,0,0,0,172.23,215.36Z"/><path class="cls-1" d="M165.35,217.67a2,2,0,1,0-2-2A2,2,0,0,0,165.35,217.67Z"/><path class="cls-1" d="M158.28,219.29a2,2,0,1,0-2-2A2,2,0,0,0,158.28,219.29Z"/><path class="cls-1" d="M151.08,220.19a2,2,0,1,0-2-2A2,2,0,0,0,151.08,220.19Z"/><path class="cls-1" d="M143.82,220.37a2,2,0,1,0-2-2A2,2,0,0,0,143.82,220.37Z"/><path class="cls-1" d="M136.58,219.83a2,2,0,1,0-2-2A2,2,0,0,0,136.58,219.83Z"/><path class="cls-1" d="M129.43,218.57a2,2,0,1,0-2-2A2,2,0,0,0,129.43,218.57Z"/><path class="cls-1" d="M122.45,216.6a2,2,0,1,0-2-2A2,2,0,0,0,122.45,216.6Z"/><path class="cls-1" d="M115.69,214a2,2,0,1,0-2-2A2,2,0,0,0,115.69,214Z"/><path class="cls-1" d="M109.23,210.64a2,2,0,1,0-2-2A2,2,0,0,0,109.23,210.64Z"/><path class="cls-1" d="M103.14,206.7a2,2,0,1,0-2-2A2,2,0,0,0,103.14,206.7Z"/><path class="cls-1" d="M97.46,202.18a2,2,0,1,0-2-2A2,2,0,0,0,97.46,202.18Z"/><path class="cls-1" d="M92.26,197.11a2,2,0,1,0-2-2A2,2,0,0,0,92.26,197.11Z"/><path class="cls-1" d="M87.6,191.53a2,2,0,1,0-2-2A2,2,0,0,0,87.6,191.53Z"/><path class="cls-1" d="M83.51,185.53a2,2,0,1,0-2-2A2,2,0,0,0,83.51,185.53Z"/><path class="cls-1" d="M80,179.15a2,2,0,1,0-2-2A2,2,0,0,0,80,179.15Z"/><path class="cls-1" d="M77.22,172.47a2,2,0,1,0-2-2A2,2,0,0,0,77.22,172.47Z"/><path class="cls-1" d="M75.08,165.53a2,2,0,1,0-2-2A2,2,0,0,0,75.08,165.53Z"/><path class="cls-1" d="M73.64,158.42a2,2,0,1,0-2-2A2,2,0,0,0,73.64,158.42Z"/><path class="cls-1" d="M72.92,151.19a2,2,0,1,0-2-2A2,2,0,0,0,72.92,151.19Z"/><path class="cls-1" d="M72.92,143.94a2,2,0,1,0-2-2A2,2,0,0,0,72.92,143.94Z"/><path class="cls-1" d="M73.64,136.71a2,2,0,1,0-2-2A2,2,0,0,0,73.64,136.71Z"/><path class="cls-1" d="M75.08,129.6a2,2,0,1,0-2-2A2,2,0,0,0,75.08,129.6Z"/><path class="cls-1" d="M77.22,122.66a2,2,0,1,0-2-2A2,2,0,0,0,77.22,122.66Z"/><path class="cls-1" d="M80,116a2,2,0,1,0-2-2A2,2,0,0,0,80,116Z"/><path class="cls-1" d="M83.51,109.6a2,2,0,1,0-2-2A2,2,0,0,0,83.51,109.6Z"/><path class="cls-1" d="M87.6,103.6a2,2,0,1,0-2-2A2,2,0,0,0,87.6,103.6Z"/><path class="cls-1" d="M92.26,98a2,2,0,1,0-2-2A2,2,0,0,0,92.26,98Z"/><path class="cls-1" d="M97.46,93a2,2,0,1,0-2-2A2,2,0,0,0,97.46,93Z"/><path class="cls-1" d="M103.14,88.45a2,2,0,1,0-2-2A2,2,0,0,0,103.14,88.45Z"/><path class="cls-1" d="M109.23,84.51a2,2,0,1,0-2-2A2,2,0,0,0,109.23,84.51Z"/><path class="cls-1" d="M115.69,81.2a2,2,0,1,0-2-2A2,2,0,0,0,115.69,81.2Z"/><path class="cls-1" d="M122.45,78.55a2,2,0,1,0-2-2A2,2,0,0,0,122.45,78.55Z"/><path class="cls-1" d="M129.43,76.58a2,2,0,1,0-2-2A2,2,0,0,0,129.43,76.58Z"/><path class="cls-1" d="M136.58,75.32a2,2,0,1,0-2-2A2,2,0,0,0,136.58,75.32Z"/><path class="cls-1" d="M143.82,74.78a2,2,0,1,0-2-2A2,2,0,0,0,143.82,74.78Z"/><circle class="cls-1" cx="151.08" cy="72.99" r="1.97"/><path class="cls-1" d="M158.28,75.86a2,2,0,1,0-2-2A2,2,0,0,0,158.28,75.86Z"/><path class="cls-1" d="M165.35,77.48a2,2,0,1,0-2-2A2,2,0,0,0,165.35,77.48Z"/><path class="cls-1" d="M172.23,79.79a2,2,0,1,0-2-2A2,2,0,0,0,172.23,79.79Z"/><path class="cls-1" d="M178.85,82.8a2,2,0,1,0-2-2A2,2,0,0,0,178.85,82.8Z"/><path class="cls-1" d="M185.14,86.4a2,2,0,1,0-2-2A2,2,0,0,0,185.14,86.4Z"/><path class="cls-1" d="M191,90.64a2,2,0,1,0-2-2A2,2,0,0,0,191,90.64Z"/><path class="cls-1" d="M196.47,95.47a2,2,0,1,0-2-2A2,2,0,0,0,196.47,95.47Z"/><path class="cls-1" d="M201.41,100.79a2,2,0,1,0-2-2A2,2,0,0,0,201.41,100.79Z"/><path class="cls-1" d="M205.79,106.57a2,2,0,1,0-2-2A2,2,0,0,0,205.79,106.57Z"/><path class="cls-1" d="M209.58,112.77a2,2,0,1,0-2-2A2,2,0,0,0,209.58,112.77Z"/><path class="cls-1" d="M212.72,119.31a2,2,0,1,0-2-2A2,2,0,0,0,212.72,119.31Z"/><path class="cls-1" d="M215.21,126.13a2,2,0,1,0-2-2A2,2,0,0,0,215.21,126.13Z"/><path class="cls-1" d="M217,133.16a2,2,0,1,0-2-2A2,2,0,0,0,217,133.16Z"/><path class="cls-1" d="M218.08,140.34a2,2,0,1,0-2-2A2,2,0,0,0,218.08,140.34Z"/><path class="cls-1" d="M226.53,147.36a1.77,1.77,0,1,0-1.77-1.77A1.77,1.77,0,0,0,226.53,147.36Z"/><path class="cls-1" d="M226.21,154.61a1.77,1.77,0,1,0-1.78-1.77A1.77,1.77,0,0,0,226.21,154.61Z"/><path class="cls-1" d="M225.23,161.81a1.78,1.78,0,1,0-1.77-1.78A1.78,1.78,0,0,0,225.23,161.81Z"/><circle class="cls-1" cx="223.62" cy="167.11" r="1.77"/><path class="cls-1" d="M221.37,175.79A1.78,1.78,0,1,0,219.6,174,1.78,1.78,0,0,0,221.37,175.79Z"/><path class="cls-1" d="M218.52,182.46a1.77,1.77,0,1,0-1.77-1.77A1.77,1.77,0,0,0,218.52,182.46Z"/><path class="cls-1" d="M215.08,188.85a1.77,1.77,0,1,0-1.77-1.77A1.77,1.77,0,0,0,215.08,188.85Z"/><path class="cls-1" d="M211.08,194.91a1.77,1.77,0,1,0-1.77-1.77A1.77,1.77,0,0,0,211.08,194.91Z"/><path class="cls-1" d="M206.56,200.59a1.78,1.78,0,1,0-1.78-1.78A1.78,1.78,0,0,0,206.56,200.59Z"/><circle class="cls-1" cx="201.54" cy="204.06" r="1.77"/><path class="cls-1" d="M196.07,210.61a1.77,1.77,0,1,0-1.77-1.77A1.78,1.78,0,0,0,196.07,210.61Z"/><path class="cls-1" d="M190.2,214.88a1.78,1.78,0,1,0-1.77-1.78A1.78,1.78,0,0,0,190.2,214.88Z"/><path class="cls-1" d="M184,218.6a1.78,1.78,0,1,0-1.77-1.77A1.77,1.77,0,0,0,184,218.6Z"/><path class="cls-1" d="M177.43,221.75a1.78,1.78,0,1,0-1.77-1.77A1.77,1.77,0,0,0,177.43,221.75Z"/><path class="cls-1" d="M170.63,224.3a1.78,1.78,0,1,0-1.77-1.77A1.78,1.78,0,0,0,170.63,224.3Z"/><circle class="cls-1" cx="163.64" cy="224.46" r="1.77"/><path class="cls-1" d="M156.49,227.53a1.78,1.78,0,1,0-1.77-1.78A1.78,1.78,0,0,0,156.49,227.53Z"/><path class="cls-1" d="M149.26,228.18a1.78,1.78,0,1,0-1.77-1.78A1.78,1.78,0,0,0,149.26,228.18Z"/><path class="cls-1" d="M142,228.18a1.78,1.78,0,1,0-1.78-1.78A1.78,1.78,0,0,0,142,228.18Z"/><path class="cls-1" d="M134.78,227.53a1.78,1.78,0,1,0-1.78-1.78A1.78,1.78,0,0,0,134.78,227.53Z"/><circle class="cls-1" cx="127.63" cy="224.46" r="1.77"/><path class="cls-1" d="M120.64,224.3a1.78,1.78,0,1,0-1.78-1.77A1.77,1.77,0,0,0,120.64,224.3Z"/><path class="cls-1" d="M113.84,221.75a1.78,1.78,0,1,0-1.77-1.77A1.77,1.77,0,0,0,113.84,221.75Z"/><path class="cls-1" d="M107.3,218.6a1.78,1.78,0,1,0-1.77-1.77A1.77,1.77,0,0,0,107.3,218.6Z"/><path class="cls-1" d="M101.07,214.88a1.78,1.78,0,1,0-1.77-1.78A1.78,1.78,0,0,0,101.07,214.88Z"/><path class="cls-1" d="M95.2,210.61a1.77,1.77,0,1,0-1.77-1.77A1.77,1.77,0,0,0,95.2,210.61Z"/><circle class="cls-1" cx="89.73" cy="204.06" r="1.77"/><path class="cls-1" d="M84.71,200.59a1.78,1.78,0,1,0-1.77-1.78A1.78,1.78,0,0,0,84.71,200.59Z"/><path class="cls-1" d="M80.19,194.91a1.77,1.77,0,1,0-1.77-1.77A1.77,1.77,0,0,0,80.19,194.91Z"/><path class="cls-1" d="M76.19,188.85a1.77,1.77,0,1,0-1.77-1.77A1.77,1.77,0,0,0,76.19,188.85Z"/><path class="cls-1" d="M72.75,182.46A1.77,1.77,0,1,0,71,180.69,1.77,1.77,0,0,0,72.75,182.46Z"/><path class="cls-1" d="M69.9,175.76A1.75,1.75,0,1,0,68.15,174,1.75,1.75,0,0,0,69.9,175.76Z"/><path class="cls-1" d="M67.65,168.86a1.75,1.75,0,1,0-1.75-1.75A1.75,1.75,0,0,0,67.65,168.86Z"/><path class="cls-1" d="M66,161.78A1.75,1.75,0,1,0,64.29,160,1.75,1.75,0,0,0,66,161.78Z"/><path class="cls-1" d="M65.06,154.59a1.75,1.75,0,1,0-1.74-1.75A1.75,1.75,0,0,0,65.06,154.59Z"/><path class="cls-1" d="M64.74,147.34A1.75,1.75,0,1,0,63,145.59,1.75,1.75,0,0,0,64.74,147.34Z"/><path class="cls-1" d="M65.06,140.09a1.75,1.75,0,1,0-1.74-1.75A1.75,1.75,0,0,0,65.06,140.09Z"/><path class="cls-1" d="M66,132.9a1.75,1.75,0,1,0-1.75-1.75A1.75,1.75,0,0,0,66,132.9Z"/><path class="cls-1" d="M67.65,125.82a1.75,1.75,0,1,0-1.75-1.75A1.75,1.75,0,0,0,67.65,125.82Z"/><path class="cls-1" d="M69.9,118.92a1.75,1.75,0,1,0-1.75-1.75A1.76,1.76,0,0,0,69.9,118.92Z"/><path class="cls-1" d="M72.75,112.24A1.75,1.75,0,1,0,71,110.49,1.75,1.75,0,0,0,72.75,112.24Z"/><path class="cls-1" d="M76.19,105.85a1.75,1.75,0,1,0-1.75-1.75A1.75,1.75,0,0,0,76.19,105.85Z"/><path class="cls-1" d="M80.19,99.79A1.75,1.75,0,1,0,78.44,98,1.75,1.75,0,0,0,80.19,99.79Z"/><path class="cls-1" d="M84.71,94.12A1.75,1.75,0,1,0,83,92.37,1.75,1.75,0,0,0,84.71,94.12Z"/><path class="cls-1" d="M89.73,88.87A1.75,1.75,0,1,0,88,87.12,1.75,1.75,0,0,0,89.73,88.87Z"/><path class="cls-1" d="M95.2,84.09a1.75,1.75,0,1,0-1.75-1.75A1.75,1.75,0,0,0,95.2,84.09Z"/><path class="cls-1" d="M101.07,79.83a1.75,1.75,0,1,0-1.75-1.75A1.75,1.75,0,0,0,101.07,79.83Z"/><path class="cls-1" d="M107.3,76.1a1.75,1.75,0,1,0-1.75-1.75A1.75,1.75,0,0,0,107.3,76.1Z"/><path class="cls-1" d="M113.84,73a1.75,1.75,0,1,0-1.75-1.75A1.75,1.75,0,0,0,113.84,73Z"/><path class="cls-1" d="M120.64,70.4a1.75,1.75,0,1,0-1.75-1.75A1.75,1.75,0,0,0,120.64,70.4Z"/><path class="cls-1" d="M127.63,68.47a1.75,1.75,0,1,0-1.75-1.75A1.75,1.75,0,0,0,127.63,68.47Z"/><path class="cls-1" d="M134.78,67.18A1.75,1.75,0,1,0,133,65.43,1.76,1.76,0,0,0,134.78,67.18Z"/><path class="cls-1" d="M142,66.53a1.75,1.75,0,1,0-1.75-1.75A1.76,1.76,0,0,0,142,66.53Z"/><path class="cls-1" d="M149.26,66.53a1.75,1.75,0,1,0-1.75-1.75A1.75,1.75,0,0,0,149.26,66.53Z"/><path class="cls-1" d="M156.49,67.18a1.75,1.75,0,1,0-1.75-1.75A1.75,1.75,0,0,0,156.49,67.18Z"/><path class="cls-1" d="M163.64,68.47a1.75,1.75,0,1,0-1.75-1.75A1.75,1.75,0,0,0,163.64,68.47Z"/><path class="cls-1" d="M170.63,70.4a1.75,1.75,0,1,0-1.75-1.75A1.75,1.75,0,0,0,170.63,70.4Z"/><path class="cls-1" d="M177.43,73a1.75,1.75,0,1,0-1.75-1.75A1.75,1.75,0,0,0,177.43,73Z"/><path class="cls-1" d="M184,76.1a1.75,1.75,0,1,0-1.75-1.75A1.75,1.75,0,0,0,184,76.1Z"/><path class="cls-1" d="M190.2,79.85a1.78,1.78,0,1,0-1.77-1.77A1.77,1.77,0,0,0,190.2,79.85Z"/><path class="cls-1" d="M196.07,84.12a1.78,1.78,0,1,0-1.77-1.78A1.78,1.78,0,0,0,196.07,84.12Z"/><path class="cls-1" d="M201.54,88.89a1.77,1.77,0,1,0-1.77-1.77A1.77,1.77,0,0,0,201.54,88.89Z"/><path class="cls-1" d="M206.56,94.14a1.78,1.78,0,1,0-1.78-1.77A1.78,1.78,0,0,0,206.56,94.14Z"/><path class="cls-1" d="M211.08,99.81A1.77,1.77,0,1,0,209.31,98,1.77,1.77,0,0,0,211.08,99.81Z"/><path class="cls-1" d="M215.08,105.87a1.77,1.77,0,1,0-1.77-1.77A1.77,1.77,0,0,0,215.08,105.87Z"/><path class="cls-1" d="M218.52,112.26a1.77,1.77,0,1,0-1.77-1.77A1.77,1.77,0,0,0,218.52,112.26Z"/><circle class="cls-1" cx="221.37" cy="117.17" r="1.77"/><path class="cls-1" d="M223.62,125.84a1.77,1.77,0,1,0-1.78-1.77A1.77,1.77,0,0,0,223.62,125.84Z"/><path class="cls-1" d="M225.23,132.92a1.78,1.78,0,1,0-1.77-1.77A1.77,1.77,0,0,0,225.23,132.92Z"/><path class="cls-1" d="M226.21,140.11a1.77,1.77,0,1,0-1.78-1.77A1.77,1.77,0,0,0,226.21,140.11Z"/><path class="cls-1" d="M234.62,147.14a1.55,1.55,0,1,0-1.55-1.55A1.54,1.54,0,0,0,234.62,147.14Z"/><path class="cls-1" d="M234.33,154.39a1.55,1.55,0,1,0-1.55-1.55A1.54,1.54,0,0,0,234.33,154.39Z"/><circle class="cls-1" cx="233.44" cy="160.05" r="1.55"/><path class="cls-1" d="M232,168.7a1.55,1.55,0,1,0-1.55-1.54A1.55,1.55,0,0,0,232,168.7Z"/><circle class="cls-1" cx="229.92" cy="174.12" r="1.55"/><path class="cls-1" d="M227.32,182.45a1.55,1.55,0,1,0-1.55-1.55A1.55,1.55,0,0,0,227.32,182.45Z"/><path class="cls-1" d="M224.17,189a1.55,1.55,0,1,0-1.55-1.55A1.55,1.55,0,0,0,224.17,189Z"/><circle class="cls-1" cx="220.49" cy="193.7" r="1.55"/><path class="cls-1" d="M216.32,201.19a1.55,1.55,0,1,0-1.54-1.55A1.54,1.54,0,0,0,216.32,201.19Z"/><circle class="cls-1" cx="211.68" cy="205.22" r="1.55"/><circle class="cls-1" cx="206.6" cy="210.41" r="1.55"/><path class="cls-1" d="M201.12,216.71a1.55,1.55,0,1,0-1.55-1.55A1.54,1.54,0,0,0,201.12,216.71Z"/><circle class="cls-1" cx="195.26" cy="219.45" r="1.55"/><path class="cls-1" d="M189.08,224.8a1.55,1.55,0,1,0-1.55-1.55A1.54,1.54,0,0,0,189.08,224.8Z"/><circle class="cls-1" cx="182.6" cy="226.53" r="1.55"/><circle class="cls-1" cx="175.88" cy="229.28" r="1.55"/><circle class="cls-1" cx="168.96" cy="231.47" r="1.55"/><path class="cls-1" d="M161.88,234.63a1.55,1.55,0,1,0-1.55-1.55A1.54,1.54,0,0,0,161.88,234.63Z"/><circle class="cls-1" cx="154.7" cy="234.11" r="1.55"/><path class="cls-1" d="M147.45,236.11a1.55,1.55,0,1,0-1.55-1.55A1.55,1.55,0,0,0,147.45,236.11Z"/><path class="cls-1" d="M140.19,236a1.55,1.55,0,1,0-1.55-1.55A1.55,1.55,0,0,0,140.19,236Z"/><path class="cls-1" d="M133,235.22a1.55,1.55,0,1,0-1.55-1.55A1.54,1.54,0,0,0,133,235.22Z"/><circle class="cls-1" cx="125.83" cy="232.34" r="1.55"/><circle class="cls-1" cx="118.83" cy="230.44" r="1.55"/><path class="cls-1" d="M112,229.52a1.55,1.55,0,1,0-1.55-1.55A1.54,1.54,0,0,0,112,229.52Z"/><path class="cls-1" d="M105.4,226.51a1.55,1.55,0,1,0-1.55-1.55A1.56,1.56,0,0,0,105.4,226.51Z"/><circle class="cls-1" cx="99.06" cy="221.42" r="1.55"/><circle class="cls-1" cx="93.04" cy="217.37" r="1.55"/><path class="cls-1" d="M87.36,214.39a1.55,1.55,0,1,0-1.55-1.55A1.54,1.54,0,0,0,87.36,214.39Z"/><path class="cls-1" d="M82.07,209.42a1.55,1.55,0,1,0-1.54-1.55A1.55,1.55,0,0,0,82.07,209.42Z"/><path class="cls-1" d="M77.21,204a1.55,1.55,0,1,0-1.55-1.55A1.56,1.56,0,0,0,77.21,204Z"/><path class="cls-1" d="M72.8,198.26a1.55,1.55,0,1,0-1.55-1.55A1.54,1.54,0,0,0,72.8,198.26Z"/><circle class="cls-1" cx="68.88" cy="190.61" r="1.55"/><circle class="cls-1" cx="65.46" cy="184.2" r="1.53"/><circle class="cls-1" cx="62.58" cy="177.54" r="1.53"/><path class="cls-1" d="M60.25,172.19a1.53,1.53,0,1,0-1.52-1.53A1.53,1.53,0,0,0,60.25,172.19Z"/><path class="cls-1" d="M58.49,165.14A1.53,1.53,0,1,0,57,163.62,1.52,1.52,0,0,0,58.49,165.14Z"/><circle class="cls-1" cx="57.32" cy="156.45" r="1.53"/><circle class="cls-1" cx="56.72" cy="149.22" r="1.53"/><path class="cls-1" d="M56.72,143.49A1.53,1.53,0,1,0,55.2,142,1.53,1.53,0,0,0,56.72,143.49Z"/><path class="cls-1" d="M57.32,136.25a1.53,1.53,0,1,0-1.53-1.52A1.52,1.52,0,0,0,57.32,136.25Z"/><circle class="cls-1" cx="58.49" cy="127.56" r="1.53"/><path class="cls-1" d="M60.25,122.05a1.53,1.53,0,1,0-1.52-1.53A1.53,1.53,0,0,0,60.25,122.05Z"/><circle class="cls-1" cx="62.58" cy="113.64" r="1.53"/><circle class="cls-1" cx="65.46" cy="106.98" r="1.53"/><path class="cls-1" d="M68.88,102.1a1.53,1.53,0,1,0-1.53-1.53A1.52,1.52,0,0,0,68.88,102.1Z"/><path class="cls-1" d="M72.8,96a1.53,1.53,0,1,0-1.52-1.52A1.53,1.53,0,0,0,72.8,96Z"/><path class="cls-1" d="M77.21,90.23a1.53,1.53,0,1,0-1.53-1.53A1.54,1.54,0,0,0,77.21,90.23Z"/><path class="cls-1" d="M82.07,84.84a1.53,1.53,0,1,0-1.52-1.53A1.52,1.52,0,0,0,82.07,84.84Z"/><path class="cls-1" d="M87.36,79.86a1.53,1.53,0,1,0-1.52-1.52A1.53,1.53,0,0,0,87.36,79.86Z"/><path class="cls-1" d="M93,75.34a1.53,1.53,0,1,0-1.53-1.53A1.52,1.52,0,0,0,93,75.34Z"/><path class="cls-1" d="M99.06,71.29a1.53,1.53,0,1,0-1.52-1.52A1.52,1.52,0,0,0,99.06,71.29Z"/><path class="cls-1" d="M105.4,67.75a1.53,1.53,0,1,0-1.53-1.53A1.53,1.53,0,0,0,105.4,67.75Z"/><path class="cls-1" d="M112,64.73a1.53,1.53,0,1,0-1.52-1.52A1.53,1.53,0,0,0,112,64.73Z"/><path class="cls-1" d="M118.83,62.26a1.53,1.53,0,0,0,0-3,1.53,1.53,0,1,0,0,3Z"/><path class="cls-1" d="M125.83,60.36a1.53,1.53,0,1,0-1.52-1.52A1.52,1.52,0,0,0,125.83,60.36Z"/><path class="cls-1" d="M133,59a1.53,1.53,0,1,0-1.52-1.53A1.54,1.54,0,0,0,133,59Z"/><path class="cls-1" d="M140.19,58.3a1.53,1.53,0,1,0-1.52-1.53A1.53,1.53,0,0,0,140.19,58.3Z"/><path class="cls-1" d="M147.45,58.15a1.53,1.53,0,1,0-1.52-1.53A1.53,1.53,0,0,0,147.45,58.15Z"/><path class="cls-1" d="M154.7,58.59a1.53,1.53,0,1,0-1.53-1.52A1.52,1.52,0,0,0,154.7,58.59Z"/><path class="cls-1" d="M161.88,59.63a1.53,1.53,0,1,0-1.52-1.53A1.54,1.54,0,0,0,161.88,59.63Z"/><circle class="cls-1" cx="168.96" cy="59.72" r="1.53"/><path class="cls-1" d="M175.88,63.43a1.53,1.53,0,1,0,0-3,1.53,1.53,0,0,0,0,3Z"/><path class="cls-1" d="M182.6,66.17a1.53,1.53,0,1,0-1.52-1.52A1.53,1.53,0,0,0,182.6,66.17Z"/><path class="cls-1" d="M189.08,69.48a1.55,1.55,0,1,0-1.55-1.55A1.55,1.55,0,0,0,189.08,69.48Z"/><circle class="cls-1" cx="195.26" cy="71.73" r="1.55"/><path class="cls-1" d="M201.12,77.57A1.55,1.55,0,1,0,199.57,76,1.55,1.55,0,0,0,201.12,77.57Z"/><circle class="cls-1" cx="206.6" cy="80.77" r="1.55"/><circle class="cls-1" cx="211.68" cy="85.96" r="1.55"/><path class="cls-1" d="M216.32,93.09a1.55,1.55,0,1,0-1.54-1.55A1.55,1.55,0,0,0,216.32,93.09Z"/><circle class="cls-1" cx="220.49" cy="97.48" r="1.55"/><circle class="cls-1" cx="224.17" cy="103.74" r="1.55"/><path class="cls-1" d="M227.32,111.83a1.55,1.55,0,1,0-1.55-1.55A1.54,1.54,0,0,0,227.32,111.83Z"/><circle class="cls-1" cx="229.92" cy="117.06" r="1.55"/><path class="cls-1" d="M232,125.57a1.55,1.55,0,1,0-1.55-1.55A1.55,1.55,0,0,0,232,125.57Z"/><circle class="cls-1" cx="233.44" cy="131.13" r="1.55"/><circle class="cls-1" cx="234.33" cy="138.34" r="1.55"/><path class="cls-1" d="M242.71,146.91a1.32,1.32,0,1,0-1.32-1.32A1.32,1.32,0,0,0,242.71,146.91Z"/><path class="cls-1" d="M242.44,154.17a1.33,1.33,0,1,0-1.32-1.33A1.32,1.32,0,0,0,242.44,154.17Z"/><path class="cls-1" d="M241.63,161.38a1.32,1.32,0,1,0-1.33-1.32A1.32,1.32,0,0,0,241.63,161.38Z"/><path class="cls-1" d="M240.28,168.52a1.33,1.33,0,1,0-1.33-1.33A1.33,1.33,0,0,0,240.28,168.52Z"/><circle class="cls-1" cx="238.4" cy="174.2" r="1.32"/><circle class="cls-1" cx="236" cy="181.06" r="1.32"/><path class="cls-1" d="M233.1,189a1.32,1.32,0,1,0-1.33-1.32A1.32,1.32,0,0,0,233.1,189Z"/><path class="cls-1" d="M229.7,195.45a1.33,1.33,0,1,0-1.32-1.32A1.32,1.32,0,0,0,229.7,195.45Z"/><path class="cls-1" d="M225.84,201.6a1.33,1.33,0,1,0-1.32-1.33A1.33,1.33,0,0,0,225.84,201.6Z"/><path class="cls-1" d="M221.53,207.44a1.33,1.33,0,1,0-1.32-1.32A1.33,1.33,0,0,0,221.53,207.44Z"/><path class="cls-1" d="M216.8,212.94a1.33,1.33,0,0,0,0-2.65,1.33,1.33,0,1,0,0,2.65Z"/><circle class="cls-1" cx="211.66" cy="216.75" r="1.32"/><circle class="cls-1" cx="206.16" cy="221.49" r="1.32"/><circle class="cls-1" cx="200.32" cy="225.8" r="1.32"/><path class="cls-1" d="M194.17,231a1.32,1.32,0,1,0-1.32-1.32A1.33,1.33,0,0,0,194.17,231Z"/><path class="cls-1" d="M187.75,234.38a1.33,1.33,0,1,0-1.32-1.33A1.33,1.33,0,0,0,187.75,234.38Z"/><path class="cls-1" d="M181.1,237.28a1.33,1.33,0,1,0-1.32-1.32A1.32,1.32,0,0,0,181.1,237.28Z"/><path class="cls-1" d="M174.25,239.68a1.33,1.33,0,1,0-1.32-1.33A1.33,1.33,0,0,0,174.25,239.68Z"/><path class="cls-1" d="M167.24,241.56a1.33,1.33,0,1,0-1.33-1.33A1.33,1.33,0,0,0,167.24,241.56Z"/><circle class="cls-1" cx="160.1" cy="241.58" r="1.32"/><circle class="cls-1" cx="152.89" cy="242.39" r="1.32"/><path class="cls-1" d="M145.64,244a1.33,1.33,0,1,0-1.33-1.32A1.32,1.32,0,0,0,145.64,244Z"/><circle class="cls-1" cx="138.38" cy="242.39" r="1.32"/><circle class="cls-1" cx="131.17" cy="241.58" r="1.32"/><path class="cls-1" d="M124,241.56a1.33,1.33,0,1,0,0-2.65,1.33,1.33,0,0,0,0,2.65Z"/><path class="cls-1" d="M117,239.68a1.33,1.33,0,1,0,0-2.65,1.33,1.33,0,0,0,0,2.65Z"/><path class="cls-1" d="M110.17,237.28a1.33,1.33,0,1,0-1.32-1.32A1.32,1.32,0,0,0,110.17,237.28Z"/><path class="cls-1" d="M103.52,234.38a1.33,1.33,0,1,0-1.33-1.33A1.33,1.33,0,0,0,103.52,234.38Z"/><path class="cls-1" d="M97.1,231a1.32,1.32,0,1,0-1.33-1.32A1.32,1.32,0,0,0,97.1,231Z"/><circle class="cls-1" cx="90.95" cy="225.8" r="1.32"/><circle class="cls-1" cx="85.11" cy="221.49" r="1.32"/><circle class="cls-1" cx="79.61" cy="216.75" r="1.32"/><path class="cls-1" d="M74.47,212.94a1.33,1.33,0,1,0-1.32-1.32A1.32,1.32,0,0,0,74.47,212.94Z"/><path class="cls-1" d="M69.74,207.44a1.33,1.33,0,1,0-1.32-1.32A1.32,1.32,0,0,0,69.74,207.44Z"/><path class="cls-1" d="M65.43,201.6a1.33,1.33,0,1,0-1.33-1.33A1.32,1.32,0,0,0,65.43,201.6Z"/><path class="cls-1" d="M61.57,195.45a1.33,1.33,0,1,0-1.33-1.32A1.32,1.32,0,0,0,61.57,195.45Z"/><path class="cls-1" d="M58.17,189a1.32,1.32,0,1,0-1.32-1.32A1.33,1.33,0,0,0,58.17,189Z"/><circle class="cls-1" cx="55.27" cy="181.06" r="1.32"/><circle class="cls-1" cx="52.87" cy="174.2" r="1.3"/><path class="cls-1" d="M51,168.52a1.33,1.33,0,1,0,0-2.65,1.33,1.33,0,0,0,0,2.65Z"/><circle class="cls-1" cx="49.64" cy="160.06" r="1.3"/><path class="cls-1" d="M48.83,154.15a1.31,1.31,0,1,0-1.3-1.31A1.31,1.31,0,0,0,48.83,154.15Z"/><path class="cls-1" d="M48.56,146.89a1.3,1.3,0,1,0-1.3-1.3A1.3,1.3,0,0,0,48.56,146.89Z"/><path class="cls-1" d="M48.83,139.64a1.31,1.31,0,1,0-1.3-1.3A1.3,1.3,0,0,0,48.83,139.64Z"/><circle class="cls-1" cx="49.64" cy="131.12" r="1.3"/><circle class="cls-1" cx="50.99" cy="123.99" r="1.3"/><circle class="cls-1" cx="52.87" cy="116.98" r="1.3"/><path class="cls-1" d="M55.27,111.43a1.31,1.31,0,1,0-1.3-1.31A1.31,1.31,0,0,0,55.27,111.43Z"/><circle class="cls-1" cx="58.17" cy="103.47" r="1.3"/><circle class="cls-1" cx="61.57" cy="97.05" r="1.3"/><circle class="cls-1" cx="65.43" cy="90.91" r="1.3"/><circle class="cls-1" cx="69.74" cy="85.06" r="1.3"/><circle class="cls-1" cx="74.47" cy="79.56" r="1.3"/><circle class="cls-1" cx="79.61" cy="74.43" r="1.3"/><circle class="cls-1" cx="85.11" cy="69.69" r="1.3"/><circle class="cls-1" cx="90.95" cy="65.38" r="1.3"/><path class="cls-1" d="M97.1,62.82a1.3,1.3,0,1,0-1.3-1.3A1.3,1.3,0,0,0,97.1,62.82Z"/><circle class="cls-1" cx="103.52" cy="58.13" r="1.3"/><circle class="cls-1" cx="110.17" cy="55.23" r="1.3"/><circle class="cls-1" cx="117.02" cy="52.83" r="1.3"/><path class="cls-1" d="M124,52.25a1.3,1.3,0,1,0-1.3-1.3A1.31,1.31,0,0,0,124,52.25Z"/><circle class="cls-1" cx="131.17" cy="49.6" r="1.3"/><circle class="cls-1" cx="138.38" cy="48.79" r="1.3"/><path class="cls-1" d="M145.64,49.82a1.31,1.31,0,1,0-1.31-1.31A1.31,1.31,0,0,0,145.64,49.82Z"/><circle class="cls-1" cx="152.89" cy="48.79" r="1.3"/><circle class="cls-1" cx="160.1" cy="49.6" r="1.3"/><path class="cls-1" d="M167.24,52.27A1.32,1.32,0,1,0,165.91,51,1.32,1.32,0,0,0,167.24,52.27Z"/><circle class="cls-1" cx="174.25" cy="52.83" r="1.3"/><path class="cls-1" d="M181.1,56.55a1.33,1.33,0,1,0-1.32-1.32A1.32,1.32,0,0,0,181.1,56.55Z"/><path class="cls-1" d="M187.75,59.45a1.32,1.32,0,1,0-1.32-1.32A1.32,1.32,0,0,0,187.75,59.45Z"/><path class="cls-1" d="M194.17,62.84a1.32,1.32,0,1,0-1.32-1.32A1.33,1.33,0,0,0,194.17,62.84Z"/><path class="cls-1" d="M200.32,66.71A1.33,1.33,0,1,0,199,65.38,1.33,1.33,0,0,0,200.32,66.71Z"/><path class="cls-1" d="M206.16,71a1.33,1.33,0,1,0-1.32-1.33A1.33,1.33,0,0,0,206.16,71Z"/><path class="cls-1" d="M211.66,75.75a1.32,1.32,0,1,0-1.32-1.32A1.33,1.33,0,0,0,211.66,75.75Z"/><circle class="cls-1" cx="216.8" cy="79.56" r="1.32"/><circle class="cls-1" cx="221.53" cy="85.06" r="1.32"/><path class="cls-1" d="M225.84,92.23a1.33,1.33,0,1,0-1.32-1.32A1.33,1.33,0,0,0,225.84,92.23Z"/><path class="cls-1" d="M229.7,98.38a1.33,1.33,0,1,0-1.32-1.33A1.33,1.33,0,0,0,229.7,98.38Z"/><circle class="cls-1" cx="233.1" cy="103.47" r="1.32"/><path class="cls-1" d="M236,111.45a1.33,1.33,0,1,0-1.32-1.33A1.32,1.32,0,0,0,236,111.45Z"/><path class="cls-1" d="M238.4,118.3a1.33,1.33,0,0,0,0-2.65,1.33,1.33,0,1,0,0,2.65Z"/><path class="cls-1" d="M240.28,125.31A1.32,1.32,0,1,0,239,124,1.32,1.32,0,0,0,240.28,125.31Z"/><path class="cls-1" d="M241.63,132.45a1.33,1.33,0,1,0-1.33-1.33A1.33,1.33,0,0,0,241.63,132.45Z"/><path class="cls-1" d="M242.44,139.66a1.33,1.33,0,1,0-1.32-1.32A1.32,1.32,0,0,0,242.44,139.66Z"/><path class="cls-1" d="M250.8,146.69a1.1,1.1,0,1,0-1.1-1.1A1.1,1.1,0,0,0,250.8,146.69Z"/><path class="cls-1" d="M250.55,153.94a1.1,1.1,0,1,0-1.1-1.09A1.09,1.09,0,0,0,250.55,153.94Z"/><path class="cls-1" d="M249.8,161.17a1.1,1.1,0,1,0-1.1-1.1A1.1,1.1,0,0,0,249.8,161.17Z"/><path class="cls-1" d="M248.55,168.32a1.1,1.1,0,1,0-1.1-1.1A1.1,1.1,0,0,0,248.55,168.32Z"/><path class="cls-1" d="M246.81,175.37a1.1,1.1,0,1,0-1.09-1.1A1.1,1.1,0,0,0,246.81,175.37Z"/><path class="cls-1" d="M244.6,182.28a1.1,1.1,0,1,0-1.1-1.1A1.09,1.09,0,0,0,244.6,182.28Z"/><path class="cls-1" d="M241.9,189a1.1,1.1,0,1,0-1.09-1.1A1.1,1.1,0,0,0,241.9,189Z"/><path class="cls-1" d="M238.75,195.56a1.1,1.1,0,1,0-1.09-1.1A1.1,1.1,0,0,0,238.75,195.56Z"/><path class="cls-1" d="M235.16,201.87a1.1,1.1,0,1,0-1.1-1.1A1.1,1.1,0,0,0,235.16,201.87Z"/><path class="cls-1" d="M231.14,207.91a1.1,1.1,0,1,0-1.1-1.09A1.09,1.09,0,0,0,231.14,207.91Z"/><path class="cls-1" d="M226.71,213.67a1.1,1.1,0,1,0-1.1-1.1A1.1,1.1,0,0,0,226.71,213.67Z"/><path class="cls-1" d="M221.9,219.1a1.1,1.1,0,1,0-1.1-1.1A1.1,1.1,0,0,0,221.9,219.1Z"/><path class="cls-1" d="M216.72,224.19a1.1,1.1,0,1,0-1.1-1.1A1.1,1.1,0,0,0,216.72,224.19Z"/><path class="cls-1" d="M211.2,228.91a1.1,1.1,0,1,0-1.09-1.1A1.1,1.1,0,0,0,211.2,228.91Z"/><path class="cls-1" d="M205.38,233.24a1.1,1.1,0,1,0-1.1-1.1A1.09,1.09,0,0,0,205.38,233.24Z"/><path class="cls-1" d="M199.26,237.15a1.1,1.1,0,1,0-1.1-1.1A1.1,1.1,0,0,0,199.26,237.15Z"/><path class="cls-1" d="M192.89,240.64a1.1,1.1,0,1,0-1.1-1.1A1.1,1.1,0,0,0,192.89,240.64Z"/><path class="cls-1" d="M186.3,243.67a1.1,1.1,0,1,0-1.1-1.09A1.09,1.09,0,0,0,186.3,243.67Z"/><path class="cls-1" d="M179.51,246.25a1.1,1.1,0,1,0-1.1-1.1A1.1,1.1,0,0,0,179.51,246.25Z"/><path class="cls-1" d="M172.56,248.35a1.1,1.1,0,1,0-1.1-1.1A1.1,1.1,0,0,0,172.56,248.35Z"/><path class="cls-1" d="M165.48,250a1.1,1.1,0,1,0-1.1-1.09A1.09,1.09,0,0,0,165.48,250Z"/><path class="cls-1" d="M158.31,251.09a1.1,1.1,0,1,0-1.1-1.1A1.1,1.1,0,0,0,158.31,251.09Z"/><path class="cls-1" d="M151.08,251.71a1.1,1.1,0,1,0-1.1-1.1A1.1,1.1,0,0,0,151.08,251.71Z"/><path class="cls-1" d="M143.82,251.84a1.1,1.1,0,1,0-1.1-1.1A1.1,1.1,0,0,0,143.82,251.84Z"/><path class="cls-1" d="M136.57,251.46a1.1,1.1,0,1,0-1.1-1.1A1.1,1.1,0,0,0,136.57,251.46Z"/><path class="cls-1" d="M129.36,250.59a1.1,1.1,0,1,0-1.1-1.1A1.1,1.1,0,0,0,129.36,250.59Z"/><path class="cls-1" d="M122.23,249.22a1.1,1.1,0,1,0-1.1-1.1A1.1,1.1,0,0,0,122.23,249.22Z"/><path class="cls-1" d="M115.22,247.36a1.1,1.1,0,1,0-1.1-1.1A1.1,1.1,0,0,0,115.22,247.36Z"/><path class="cls-1" d="M108.34,245a1.1,1.1,0,1,0-1.1-1.1A1.1,1.1,0,0,0,108.34,245Z"/><path class="cls-1" d="M101.65,242.21a1.1,1.1,0,1,0-1.1-1.1A1.1,1.1,0,0,0,101.65,242.21Z"/><path class="cls-1" d="M95.16,239a1.1,1.1,0,1,0-1.1-1.1A1.1,1.1,0,0,0,95.16,239Z"/><path class="cls-1" d="M88.92,235.25a1.1,1.1,0,1,0-1.1-1.1A1.1,1.1,0,0,0,88.92,235.25Z"/><path class="cls-1" d="M82.94,231.12a1.1,1.1,0,1,0-1.1-1.09A1.09,1.09,0,0,0,82.94,231.12Z"/><path class="cls-1" d="M77.27,226.6a1.1,1.1,0,1,0-1.1-1.1A1.1,1.1,0,0,0,77.27,226.6Z"/><path class="cls-1" d="M71.92,221.69a1.1,1.1,0,1,0-1.1-1.1A1.1,1.1,0,0,0,71.92,221.69Z"/><path class="cls-1" d="M66.92,216.43a1.1,1.1,0,1,0-1.1-1.1A1.1,1.1,0,0,0,66.92,216.43Z"/><path class="cls-1" d="M62.29,210.83a1.1,1.1,0,1,0-1.09-1.1A1.1,1.1,0,0,0,62.29,210.83Z"/><path class="cls-1" d="M58.07,204.93a1.1,1.1,0,1,0-1.1-1.1A1.1,1.1,0,0,0,58.07,204.93Z"/><path class="cls-1" d="M54.26,198.75a1.1,1.1,0,1,0-1.1-1.1A1.1,1.1,0,0,0,54.26,198.75Z"/><path class="cls-1" d="M50.88,192.32a1.1,1.1,0,1,0-1.09-1.1A1.1,1.1,0,0,0,50.88,192.32Z"/><path class="cls-1" d="M48,185.67a1.1,1.1,0,1,0,0-2.2,1.1,1.1,0,0,0,0,2.2Z"/><path class="cls-1" d="M45.51,178.82a1.08,1.08,0,1,0-1.08-1.08A1.07,1.07,0,0,0,45.51,178.82Z"/><path class="cls-1" d="M43.53,171.83a1.08,1.08,0,1,0-1.08-1.07A1.07,1.07,0,0,0,43.53,171.83Z"/><path class="cls-1" d="M42,164.73A1.08,1.08,0,1,0,41,163.65,1.08,1.08,0,0,0,42,164.73Z"/><path class="cls-1" d="M41,157.54A1.08,1.08,0,1,0,40,156.46,1.08,1.08,0,0,0,41,157.54Z"/><path class="cls-1" d="M40.53,150.3a1.08,1.08,0,1,0-1.07-1.08A1.08,1.08,0,0,0,40.53,150.3Z"/><path class="cls-1" d="M40.53,143A1.08,1.08,0,1,0,39.46,142,1.08,1.08,0,0,0,40.53,143Z"/><path class="cls-1" d="M41,135.79A1.08,1.08,0,1,0,40,134.72,1.07,1.07,0,0,0,41,135.79Z"/><path class="cls-1" d="M42,128.6A1.08,1.08,0,1,0,41,127.53,1.07,1.07,0,0,0,42,128.6Z"/><path class="cls-1" d="M43.53,121.5a1.08,1.08,0,1,0-1.08-1.08A1.07,1.07,0,0,0,43.53,121.5Z"/><path class="cls-1" d="M45.51,114.51a1.08,1.08,0,1,0-1.08-1.07A1.07,1.07,0,0,0,45.51,114.51Z"/><path class="cls-1" d="M48,107.68a1.08,1.08,0,1,0-1.07-1.07A1.07,1.07,0,0,0,48,107.68Z"/><path class="cls-1" d="M50.88,101A1.08,1.08,0,1,0,49.81,100,1.08,1.08,0,0,0,50.88,101Z"/><path class="cls-1" d="M54.26,94.61a1.08,1.08,0,1,0-1.08-1.08A1.08,1.08,0,0,0,54.26,94.61Z"/><path class="cls-1" d="M58.07,88.43A1.08,1.08,0,1,0,57,87.35,1.07,1.07,0,0,0,58.07,88.43Z"/><path class="cls-1" d="M62.29,82.53a1.08,1.08,0,1,0-1.07-1.08A1.08,1.08,0,0,0,62.29,82.53Z"/><path class="cls-1" d="M66.92,76.93a1.08,1.08,0,1,0-1.08-1.08A1.07,1.07,0,0,0,66.92,76.93Z"/><circle class="cls-1" cx="71.92" cy="70.59" r="1.08"/><path class="cls-1" d="M77.27,66.76a1.08,1.08,0,1,0-1.08-1.08A1.07,1.07,0,0,0,77.27,66.76Z"/><path class="cls-1" d="M82.94,62.23a1.08,1.08,0,1,0-1.07-1.08A1.08,1.08,0,0,0,82.94,62.23Z"/><path class="cls-1" d="M88.92,58.11A1.08,1.08,0,1,0,87.84,57,1.07,1.07,0,0,0,88.92,58.11Z"/><path class="cls-1" d="M95.16,54.41a1.08,1.08,0,1,0-1.07-1.08A1.08,1.08,0,0,0,95.16,54.41Z"/><path class="cls-1" d="M101.65,51.14a1.08,1.08,0,1,0-1.08-1.07A1.08,1.08,0,0,0,101.65,51.14Z"/><path class="cls-1" d="M108.34,48.34a1.08,1.08,0,1,0-1.07-1.08A1.08,1.08,0,0,0,108.34,48.34Z"/><path class="cls-1" d="M115.22,46a1.08,1.08,0,1,0-1.08-1.08A1.07,1.07,0,0,0,115.22,46Z"/><path class="cls-1" d="M122.23,44.14a1.08,1.08,0,1,0-1.07-1.08A1.08,1.08,0,0,0,122.23,44.14Z"/><path class="cls-1" d="M129.36,42.77a1.08,1.08,0,1,0-1.07-1.08A1.08,1.08,0,0,0,129.36,42.77Z"/><path class="cls-1" d="M136.57,41.89a1.08,1.08,0,1,0-1.08-1.07A1.08,1.08,0,0,0,136.57,41.89Z"/><path class="cls-1" d="M143.82,41.54a1.1,1.1,0,1,0-1.1-1.1A1.1,1.1,0,0,0,143.82,41.54Z"/><path class="cls-1" d="M151.08,41.64A1.08,1.08,0,1,0,150,40.57,1.08,1.08,0,0,0,151.08,41.64Z"/><path class="cls-1" d="M158.31,42.27a1.08,1.08,0,1,0-1.08-1.08A1.08,1.08,0,0,0,158.31,42.27Z"/><path class="cls-1" d="M165.48,43.39a1.08,1.08,0,1,0-1.07-1.07A1.07,1.07,0,0,0,165.48,43.39Z"/><circle class="cls-1" cx="172.56" cy="43.93" r="1.08"/><circle class="cls-1" cx="179.51" cy="46.03" r="1.08"/><path class="cls-1" d="M186.3,49.7a1.1,1.1,0,1,0-1.1-1.09A1.09,1.09,0,0,0,186.3,49.7Z"/><path class="cls-1" d="M192.89,52.74a1.1,1.1,0,1,0-1.1-1.1A1.1,1.1,0,0,0,192.89,52.74Z"/><path class="cls-1" d="M199.26,56.23a1.1,1.1,0,1,0-1.1-1.1A1.1,1.1,0,0,0,199.26,56.23Z"/><path class="cls-1" d="M205.38,60.14a1.1,1.1,0,1,0-1.1-1.1A1.09,1.09,0,0,0,205.38,60.14Z"/><path class="cls-1" d="M211.2,64.47a1.1,1.1,0,1,0-1.09-1.1A1.1,1.1,0,0,0,211.2,64.47Z"/><path class="cls-1" d="M216.72,69.19a1.1,1.1,0,1,0-1.1-1.1A1.1,1.1,0,0,0,216.72,69.19Z"/><path class="cls-1" d="M221.9,74.28a1.1,1.1,0,1,0-1.1-1.1A1.1,1.1,0,0,0,221.9,74.28Z"/><path class="cls-1" d="M226.71,79.71a1.1,1.1,0,1,0-1.1-1.1A1.1,1.1,0,0,0,226.71,79.71Z"/><path class="cls-1" d="M231.14,85.46a1.1,1.1,0,1,0-1.1-1.1A1.1,1.1,0,0,0,231.14,85.46Z"/><path class="cls-1" d="M235.16,91.51a1.1,1.1,0,1,0-1.1-1.1A1.1,1.1,0,0,0,235.16,91.51Z"/><path class="cls-1" d="M238.75,97.82a1.1,1.1,0,1,0-1.09-1.1A1.1,1.1,0,0,0,238.75,97.82Z"/><path class="cls-1" d="M241.9,104.36a1.1,1.1,0,1,0-1.09-1.1A1.1,1.1,0,0,0,241.9,104.36Z"/><path class="cls-1" d="M244.6,111.1a1.1,1.1,0,1,0-1.1-1.1A1.09,1.09,0,0,0,244.6,111.1Z"/><path class="cls-1" d="M246.81,118a1.1,1.1,0,1,0-1.09-1.1A1.1,1.1,0,0,0,246.81,118Z"/><path class="cls-1" d="M248.55,125.06a1.1,1.1,0,1,0,0-2.2,1.1,1.1,0,0,0,0,2.2Z"/><path class="cls-1" d="M249.8,132.21a1.1,1.1,0,1,0-1.1-1.1A1.1,1.1,0,0,0,249.8,132.21Z"/><path class="cls-1" d="M250.55,139.43a1.1,1.1,0,1,0-1.1-1.1A1.1,1.1,0,0,0,250.55,139.43Z"/><path class="cls-1" d="M258.89,146.47a.88.88,0,1,0-.88-.88A.88.88,0,0,0,258.89,146.47Z"/><circle class="cls-1" cx="258.66" cy="152.85" r="0.87"/><path class="cls-1" d="M258,161a.88.88,0,1,0-.87-.88A.87.87,0,0,0,258,161Z"/><path class="cls-1" d="M256.8,168.11a.87.87,0,1,0-.87-.87A.88.88,0,0,0,256.8,168.11Z"/><circle class="cls-1" cx="255.19" cy="174.32" r="0.87"/><path class="cls-1" d="M253.12,182.15a.88.88,0,1,0-.87-.87A.88.88,0,0,0,253.12,182.15Z"/><path class="cls-1" d="M250.61,189a.88.88,0,1,0,0-1.75.88.88,0,0,0,0,1.75Z"/><path class="cls-1" d="M247.67,195.6a.88.88,0,1,0-.87-.87A.87.87,0,0,0,247.67,195.6Z"/><path class="cls-1" d="M244.32,202.06a.9.9,0,1,0-.9-.89A.89.89,0,0,0,244.32,202.06Z"/><path class="cls-1" d="M240.55,208.25a.88.88,0,1,0-.87-.88A.87.87,0,0,0,240.55,208.25Z"/><path class="cls-1" d="M236.4,214.2a.88.88,0,0,0,0-1.75.88.88,0,1,0,0,1.75Z"/><path class="cls-1" d="M231.87,219.88A.88.88,0,1,0,231,219,.87.87,0,0,0,231.87,219.88Z"/><path class="cls-1" d="M227,225.25a.88.88,0,1,0-.87-.87A.88.88,0,0,0,227,225.25Z"/><circle class="cls-1" cx="221.78" cy="229.43" r="0.87"/><path class="cls-1" d="M216.25,235a.88.88,0,0,0,0-1.75.88.88,0,1,0,0,1.75Z"/><path class="cls-1" d="M210.43,239.35a.88.88,0,1,0-.87-.87A.88.88,0,0,0,210.43,239.35Z"/><path class="cls-1" d="M204.35,243.31a.88.88,0,0,0,0-1.75.88.88,0,1,0,0,1.75Z"/><circle class="cls-1" cx="198.02" cy="246" r="0.87"/><path class="cls-1" d="M191.48,250a.88.88,0,1,0-.88-.88A.88.88,0,0,0,191.48,250Z"/><path class="cls-1" d="M184.75,252.75a.88.88,0,0,0,0-1.75.88.88,0,1,0,0,1.75Z"/><path class="cls-1" d="M177.86,255a.88.88,0,1,0-.88-.88A.87.87,0,0,0,177.86,255Z"/><path class="cls-1" d="M170.84,256.88A.88.88,0,1,0,170,256,.87.87,0,0,0,170.84,256.88Z"/><path class="cls-1" d="M163.71,258.27a.88.88,0,1,0,0-1.75.88.88,0,0,0,0,1.75Z"/><path class="cls-1" d="M156.51,259.2a.88.88,0,1,0,0-1.75.88.88,0,0,0,0,1.75Z"/><path class="cls-1" d="M149.27,259.66a.88.88,0,1,0-.88-.87A.87.87,0,0,0,149.27,259.66Z"/><path class="cls-1" d="M142,259.66a.88.88,0,1,0-.88-.87A.87.87,0,0,0,142,259.66Z"/><circle class="cls-1" cx="134.76" cy="258.32" r="0.87"/><path class="cls-1" d="M127.56,258.27a.88.88,0,1,0-.87-.88A.87.87,0,0,0,127.56,258.27Z"/><path class="cls-1" d="M120.43,256.88a.88.88,0,1,0-.87-.87A.87.87,0,0,0,120.43,256.88Z"/><path class="cls-1" d="M113.41,255a.88.88,0,1,0,0-1.75.88.88,0,0,0,0,1.75Z"/><path class="cls-1" d="M106.52,252.75a.88.88,0,1,0-.87-.87A.88.88,0,0,0,106.52,252.75Z"/><path class="cls-1" d="M99.79,250a.88.88,0,1,0,0-1.75.88.88,0,0,0,0,1.75Z"/><circle class="cls-1" cx="93.25" cy="246" r="0.87"/><path class="cls-1" d="M86.93,243.31a.88.88,0,0,0,0-1.75.88.88,0,1,0,0,1.75Z"/><path class="cls-1" d="M80.84,239.35a.88.88,0,1,0-.87-.87A.88.88,0,0,0,80.84,239.35Z"/><path class="cls-1" d="M75,235a.88.88,0,1,0-.87-.87A.87.87,0,0,0,75,235Z"/><circle class="cls-1" cx="69.49" cy="229.43" r="0.87"/><path class="cls-1" d="M64.28,225.25a.88.88,0,0,0,0-1.75.88.88,0,1,0,0,1.75Z"/><circle class="cls-1" cx="59.4" cy="219.01" r="0.87"/><path class="cls-1" d="M54.87,214.2a.88.88,0,1,0-.87-.87A.88.88,0,0,0,54.87,214.2Z"/><path class="cls-1" d="M50.72,208.25a.88.88,0,1,0-.88-.88A.87.87,0,0,0,50.72,208.25Z"/><path class="cls-1" d="M47,202a.88.88,0,1,0-.87-.87A.87.87,0,0,0,47,202Z"/><path class="cls-1" d="M43.6,195.6a.88.88,0,0,0,0-1.75.88.88,0,1,0,0,1.75Z"/><path class="cls-1" d="M40.66,189a.88.88,0,1,0-.88-.88A.88.88,0,0,0,40.66,189Z"/><path class="cls-1" d="M38.15,182.15a.88.88,0,1,0-.87-.87A.88.88,0,0,0,38.15,182.15Z"/><path class="cls-1" d="M36.08,175.17a.85.85,0,1,0-.85-.85A.85.85,0,0,0,36.08,175.17Z"/><path class="cls-1" d="M34.47,168.11a.87.87,0,1,0-.88-.87A.87.87,0,0,0,34.47,168.11Z"/><path class="cls-1" d="M33.31,160.93a.86.86,0,0,0,.85-.86.85.85,0,0,0-1.7,0A.86.86,0,0,0,33.31,160.93Z"/><path class="cls-1" d="M32.61,153.7a.86.86,0,1,0-.85-.85A.85.85,0,0,0,32.61,153.7Z"/><path class="cls-1" d="M32.38,146.47a.88.88,0,1,0,0-1.75.88.88,0,0,0,0,1.75Z"/><path class="cls-1" d="M32.61,139.19a.86.86,0,1,0,0-1.71.85.85,0,0,0-.85.85A.86.86,0,0,0,32.61,139.19Z"/><path class="cls-1" d="M33.31,132a.85.85,0,1,0-.85-.85A.85.85,0,0,0,33.31,132Z"/><path class="cls-1" d="M34.47,124.79a.85.85,0,1,0-.85-.85A.85.85,0,0,0,34.47,124.79Z"/><path class="cls-1" d="M36.08,117.72a.86.86,0,1,0,0-1.71.85.85,0,0,0-.85.85A.86.86,0,0,0,36.08,117.72Z"/><path class="cls-1" d="M38.15,110.76a.86.86,0,0,0,.85-.86.85.85,0,1,0-1.7,0A.86.86,0,0,0,38.15,110.76Z"/><path class="cls-1" d="M40.66,103.94a.85.85,0,1,0-.85-.85A.85.85,0,0,0,40.66,103.94Z"/><path class="cls-1" d="M43.6,97.3a.85.85,0,0,0,0-1.7.85.85,0,1,0,0,1.7Z"/><path class="cls-1" d="M47,90.87a.86.86,0,1,0,0-1.71.85.85,0,0,0-.85.85A.86.86,0,0,0,47,90.87Z"/><path class="cls-1" d="M50.72,84.66a.85.85,0,0,0,.85-.85.85.85,0,1,0-1.7,0A.85.85,0,0,0,50.72,84.66Z"/><path class="cls-1" d="M54.87,78.7a.85.85,0,1,0-.85-.85A.85.85,0,0,0,54.87,78.7Z"/><path class="cls-1" d="M59.4,73a.86.86,0,1,0-.85-.85A.85.85,0,0,0,59.4,73Z"/><path class="cls-1" d="M64.28,67.65a.85.85,0,1,0-.85-.85A.85.85,0,0,0,64.28,67.65Z"/><path class="cls-1" d="M69.49,62.6a.85.85,0,1,0-.85-.85A.85.85,0,0,0,69.49,62.6Z"/><path class="cls-1" d="M75,57.9a.86.86,0,1,0-.85-.86A.85.85,0,0,0,75,57.9Z"/><path class="cls-1" d="M80.84,53.55A.85.85,0,1,0,80,52.7.85.85,0,0,0,80.84,53.55Z"/><path class="cls-1" d="M86.93,49.59a.85.85,0,1,0-.86-.85A.85.85,0,0,0,86.93,49.59Z"/><path class="cls-1" d="M93.25,46a.85.85,0,1,0-.85-.85A.85.85,0,0,0,93.25,46Z"/><path class="cls-1" d="M99.79,42.88a.85.85,0,1,0-.85-.85A.85.85,0,0,0,99.79,42.88Z"/><path class="cls-1" d="M106.52,40.16a.86.86,0,1,0-.85-.86A.85.85,0,0,0,106.52,40.16Z"/><path class="cls-1" d="M113.41,37.87a.85.85,0,0,0,.85-.85.85.85,0,1,0-1.7,0A.85.85,0,0,0,113.41,37.87Z"/><path class="cls-1" d="M120.43,36a.86.86,0,1,0-.85-.85A.85.85,0,0,0,120.43,36Z"/><path class="cls-1" d="M127.56,34.64a.85.85,0,1,0-.85-.85A.85.85,0,0,0,127.56,34.64Z"/><path class="cls-1" d="M134.76,33.71a.85.85,0,1,0-.85-.85A.85.85,0,0,0,134.76,33.71Z"/><path class="cls-1" d="M142,33.25a.86.86,0,0,0,.85-.86.86.86,0,0,0-1.71,0A.86.86,0,0,0,142,33.25Z"/><path class="cls-1" d="M149.27,33.27a.88.88,0,1,0-.88-.88A.87.87,0,0,0,149.27,33.27Z"/><path class="cls-1" d="M156.51,33.71a.85.85,0,1,0-.85-.85A.85.85,0,0,0,156.51,33.71Z"/><path class="cls-1" d="M163.71,34.66a.88.88,0,1,0-.87-.87A.88.88,0,0,0,163.71,34.66Z"/><path class="cls-1" d="M170.84,36a.86.86,0,0,0,0-1.71.86.86,0,1,0,0,1.71Z"/><path class="cls-1" d="M177.86,37.89a.88.88,0,0,0,0-1.75.88.88,0,1,0,0,1.75Z"/><path class="cls-1" d="M184.75,40.16a.86.86,0,1,0-.85-.86A.85.85,0,0,0,184.75,40.16Z"/><path class="cls-1" d="M191.48,42.9a.88.88,0,0,0,0-1.75.88.88,0,1,0,0,1.75Z"/><circle class="cls-1" cx="198.02" cy="45.18" r="0.87"/><path class="cls-1" d="M204.35,49.62a.88.88,0,1,0-.88-.88A.88.88,0,0,0,204.35,49.62Z"/><path class="cls-1" d="M210.43,53.58a.88.88,0,1,0,0-1.75.88.88,0,0,0,0,1.75Z"/><path class="cls-1" d="M216.25,57.92a.88.88,0,1,0-.88-.88A.87.87,0,0,0,216.25,57.92Z"/><circle class="cls-1" cx="221.78" cy="61.75" r="0.87"/><path class="cls-1" d="M227,67.68a.88.88,0,1,0,0-1.75.88.88,0,0,0,0,1.75Z"/><path class="cls-1" d="M231.87,73.05a.88.88,0,1,0-.87-.87A.87.87,0,0,0,231.87,73.05Z"/><path class="cls-1" d="M236.4,78.73a.88.88,0,1,0-.88-.88A.88.88,0,0,0,236.4,78.73Z"/><path class="cls-1" d="M240.55,84.68a.88.88,0,1,0-.87-.87A.87.87,0,0,0,240.55,84.68Z"/><circle class="cls-1" cx="244.32" cy="90.01" r="0.87"/><path class="cls-1" d="M247.67,97.33a.88.88,0,1,0,0-1.75.88.88,0,0,0,0,1.75Z"/><path class="cls-1" d="M250.61,104a.88.88,0,1,0-.87-.87A.87.87,0,0,0,250.61,104Z"/><path class="cls-1" d="M253.12,110.78a.88.88,0,1,0,0-1.75.88.88,0,0,0,0,1.75Z"/><circle class="cls-1" cx="255.19" cy="116.86" r="0.87"/><path class="cls-1" d="M256.8,124.82a.88.88,0,1,0,0-1.75.88.88,0,0,0,0,1.75Z"/><path class="cls-1" d="M258,132a.88.88,0,1,0-.87-.87A.87.87,0,0,0,258,132Z"/><path class="cls-1" d="M258.66,139.21a.88.88,0,1,0-.88-.88A.87.87,0,0,0,258.66,139.21Z"/><path class="cls-1" d="M267,146.24a.65.65,0,1,0-.65-.65A.65.65,0,0,0,267,146.24Z"/><circle class="cls-1" cx="266.76" cy="152.85" r="0.65"/><circle class="cls-1" cx="266.11" cy="160.08" r="0.65"/><path class="cls-1" d="M265,167.91a.65.65,0,1,0-.65-.65A.65.65,0,0,0,265,167.91Z"/><circle class="cls-1" cx="263.52" cy="174.36" r="0.65"/><circle class="cls-1" cx="261.59" cy="181.36" r="0.65"/><circle class="cls-1" cx="259.24" cy="188.23" r="0.65"/><path class="cls-1" d="M256.49,195.62a.68.68,0,1,0-.67-.67A.67.67,0,0,0,256.49,195.62Z"/><circle class="cls-1" cx="253.34" cy="201.49" r="0.65"/><circle class="cls-1" cx="249.8" cy="207.83" r="0.65"/><circle class="cls-1" cx="245.89" cy="213.95" r="0.65"/><circle class="cls-1" cx="241.63" cy="219.82" r="0.65"/><circle class="cls-1" cx="237.02" cy="225.43" r="0.67"/><circle class="cls-1" cx="232.08" cy="230.75" r="0.65"/><path class="cls-1" d="M226.83,236.44a.68.68,0,1,0-.67-.67A.67.67,0,0,0,226.83,236.44Z"/><circle class="cls-1" cx="221.29" cy="240.46" r="0.65"/><circle class="cls-1" cx="215.48" cy="244.82" r="0.65"/><circle class="cls-1" cx="209.42" cy="248.82" r="0.65"/><circle class="cls-1" cx="203.14" cy="252.45" r="0.65"/><circle class="cls-1" cx="196.64" cy="255.69" r="0.65"/><circle class="cls-1" cx="189.97" cy="258.55" r="0.65"/><circle class="cls-1" cx="183.13" cy="261" r="0.65"/><circle class="cls-1" cx="176.16" cy="263.03" r="0.65"/><circle class="cls-1" cx="169.09" cy="264.65" r="0.65"/><path class="cls-1" d="M161.92,266.49a.65.65,0,1,0-.65-.65A.65.65,0,0,0,161.92,266.49Z"/><circle class="cls-1" cx="154.7" cy="266.6" r="0.65"/><circle class="cls-1" cx="147.45" cy="266.92" r="0.65"/><path class="cls-1" d="M140.19,267.46a.65.65,0,1,0-.65-.65A.65.65,0,0,0,140.19,267.46Z"/><circle class="cls-1" cx="132.95" cy="266.27" r="0.65"/><circle class="cls-1" cx="125.76" cy="265.3" r="0.65"/><circle class="cls-1" cx="118.63" cy="263.89" r="0.65"/><path class="cls-1" d="M111.61,262.72a.65.65,0,1,0-.65-.65A.66.66,0,0,0,111.61,262.72Z"/><circle class="cls-1" cx="104.7" cy="259.82" r="0.65"/><circle class="cls-1" cx="97.94" cy="257.17" r="0.65"/><path class="cls-1" d="M91.36,254.77a.65.65,0,1,0-.65-.65A.65.65,0,0,0,91.36,254.77Z"/><path class="cls-1" d="M85,251.33a.65.65,0,1,0-.65-.65A.65.65,0,0,0,85,251.33Z"/><path class="cls-1" d="M78.79,247.51a.65.65,0,1,0-.65-.65A.65.65,0,0,0,78.79,247.51Z"/><circle class="cls-1" cx="72.85" cy="242.68" r="0.65"/><circle class="cls-1" cx="67.17" cy="238.16" r="0.65"/><circle class="cls-1" cx="61.78" cy="233.3" r="0.65"/><path class="cls-1" d="M56.68,228.78a.66.66,0,1,0-.65-.65A.66.66,0,0,0,56.68,228.78Z"/><circle class="cls-1" cx="51.91" cy="222.66" r="0.65"/><path class="cls-1" d="M47.47,217.57a.66.66,0,1,0-.65-.66A.66.66,0,0,0,47.47,217.57Z"/><path class="cls-1" d="M43.38,211.57a.65.65,0,1,0-.65-.65A.65.65,0,0,0,43.38,211.57Z"/><circle class="cls-1" cx="39.65" cy="204.68" r="0.65"/><circle class="cls-1" cx="36.31" cy="198.24" r="0.65"/><path class="cls-1" d="M33.36,192.26a.65.65,0,1,0-.66-.65A.66.66,0,0,0,33.36,192.26Z"/><circle class="cls-1" cx="30.8" cy="184.81" r="0.65"/><path class="cls-1" d="M28.66,178.52a.65.65,0,1,0-.65-.65A.65.65,0,0,0,28.66,178.52Z"/><path class="cls-1" d="M26.94,171.47a.65.65,0,1,0-.65-.65A.65.65,0,0,0,26.94,171.47Z"/><circle class="cls-1" cx="25.65" cy="163.68" r="0.65"/><circle class="cls-1" cx="24.78" cy="156.47" r="0.65"/><circle class="cls-1" cx="24.35" cy="149.22" r="0.65"/><path class="cls-1" d="M24.35,142.59a.63.63,0,1,0-.63-.63A.63.63,0,0,0,24.35,142.59Z"/><path class="cls-1" d="M24.78,135.34a.63.63,0,0,0,.63-.63.63.63,0,0,0-1.26,0A.63.63,0,0,0,24.78,135.34Z"/><circle class="cls-1" cx="25.65" cy="127.5" r="0.63"/><path class="cls-1" d="M26.94,121a.63.63,0,1,0,0-1.26.63.63,0,0,0,0,1.26Z"/><path class="cls-1" d="M28.66,113.94a.63.63,0,1,0-.62-.63A.63.63,0,0,0,28.66,113.94Z"/><path class="cls-1" d="M30.8,107a.63.63,0,1,0-.62-.63A.63.63,0,0,0,30.8,107Z"/><path class="cls-1" d="M33.36,100.2a.63.63,0,1,0-.63-.63A.63.63,0,0,0,33.36,100.2Z"/><path class="cls-1" d="M36.31,93.57a.63.63,0,0,0,0-1.26.63.63,0,0,0,0,1.26Z"/><circle class="cls-1" cx="39.65" cy="86.5" r="0.63"/><path class="cls-1" d="M43.38,80.89a.63.63,0,1,0-.63-.63A.63.63,0,0,0,43.38,80.89Z"/><path class="cls-1" d="M47.47,74.89a.63.63,0,1,0-.63-.62A.62.62,0,0,0,47.47,74.89Z"/><path class="cls-1" d="M51.91,69.15a.63.63,0,0,0,.63-.63.64.64,0,0,0-.63-.63.63.63,0,0,0-.63.63A.63.63,0,0,0,51.91,69.15Z"/><path class="cls-1" d="M56.68,63.68a.63.63,0,1,0-.62-.62A.63.63,0,0,0,56.68,63.68Z"/><path class="cls-1" d="M61.78,58.51a.63.63,0,1,0-.63-.63A.63.63,0,0,0,61.78,58.51Z"/><circle class="cls-1" cx="67.17" cy="53.03" r="0.63"/><circle class="cls-1" cx="72.85" cy="48.5" r="0.63"/><path class="cls-1" d="M78.79,45a.63.63,0,1,0,0-1.26.63.63,0,1,0,0,1.26Z"/><path class="cls-1" d="M85,41.13a.63.63,0,1,0-.62-.63A.63.63,0,0,0,85,41.13Z"/><path class="cls-1" d="M91.36,37.69a.63.63,0,0,0,.62-.63.63.63,0,1,0-.62.63Z"/><circle class="cls-1" cx="97.94" cy="34.01" r="0.63"/><circle class="cls-1" cx="104.7" cy="31.36" r="0.63"/><circle class="cls-1" cx="111.61" cy="29.11" r="0.63"/><circle class="cls-1" cx="118.63" cy="27.29" r="0.63"/><circle class="cls-1" cx="125.76" cy="25.89" r="0.63"/><circle class="cls-1" cx="132.95" cy="24.91" r="0.63"/><path class="cls-1" d="M140.19,25a.63.63,0,1,0-.63-.63A.63.63,0,0,0,140.19,25Z"/><circle class="cls-1" cx="147.45" cy="24.26" r="0.65"/><circle class="cls-1" cx="154.7" cy="24.59" r="0.65"/><path class="cls-1" d="M161.92,26a.63.63,0,1,0-.62-.63A.63.63,0,0,0,161.92,26Z"/><circle class="cls-1" cx="169.09" cy="26.53" r="0.65"/><circle class="cls-1" cx="176.16" cy="28.15" r="0.65"/><circle class="cls-1" cx="183.13" cy="30.19" r="0.65"/><circle class="cls-1" cx="189.97" cy="32.63" r="0.65"/><circle class="cls-1" cx="196.64" cy="35.49" r="0.65"/><circle class="cls-1" cx="203.14" cy="38.74" r="0.65"/><circle class="cls-1" cx="209.42" cy="42.37" r="0.65"/><circle class="cls-1" cx="215.48" cy="46.36" r="0.65"/><circle class="cls-1" cx="221.29" cy="50.72" r="0.65"/><path class="cls-1" d="M226.83,56.06a.65.65,0,1,0-.65-.65A.65.65,0,0,0,226.83,56.06Z"/><circle class="cls-1" cx="232.08" cy="60.43" r="0.65"/><circle class="cls-1" cx="237.02" cy="65.75" r="0.65"/><circle class="cls-1" cx="241.63" cy="71.36" r="0.65"/><circle class="cls-1" cx="245.89" cy="77.23" r="0.65"/><circle class="cls-1" cx="249.8" cy="83.35" r="0.65"/><circle class="cls-1" cx="253.34" cy="89.69" r="0.65"/><circle class="cls-1" cx="256.49" cy="96.24" r="0.65"/><circle class="cls-1" cx="259.24" cy="102.95" r="0.65"/><circle class="cls-1" cx="261.59" cy="109.82" r="0.65"/><circle class="cls-1" cx="263.52" cy="116.82" r="0.65"/><path class="cls-1" d="M265,124.57a.65.65,0,1,0-.65-.65A.65.65,0,0,0,265,124.57Z"/><circle class="cls-1" cx="266.11" cy="131.1" r="0.65"/><circle class="cls-1" cx="266.76" cy="138.33" r="0.65"/><path class="cls-1" d="M275.07,146a.43.43,0,0,0,0-.86.43.43,0,0,0,0,.86Z"/><path class="cls-1" d="M274.87,153.27a.43.43,0,0,0,0-.85.43.43,0,1,0,0,.85Z"/><path class="cls-1" d="M274.26,160.51a.43.43,0,1,0-.43-.43A.42.42,0,0,0,274.26,160.51Z"/><path class="cls-1" d="M273.24,167.7a.43.43,0,1,0,0-.85.43.43,0,1,0,0,.85Z"/><path class="cls-1" d="M271.82,174.82a.43.43,0,1,0,0-.85.43.43,0,0,0,0,.85Z"/><path class="cls-1" d="M270,181.85a.43.43,0,1,0,0-.85.43.43,0,1,0,0,.85Z"/><path class="cls-1" d="M267.81,188.77a.43.43,0,0,0,.42-.43.43.43,0,1,0-.85,0A.43.43,0,0,0,267.81,188.77Z"/><path class="cls-1" d="M265.22,195.55a.43.43,0,1,0-.43-.43A.42.42,0,0,0,265.22,195.55Z"/><path class="cls-1" d="M262.25,202.2a.45.45,0,1,0-.45-.45A.45.45,0,0,0,262.25,202.2Z"/><path class="cls-1" d="M258.92,208.65a.45.45,0,1,0-.45-.45A.45.45,0,0,0,258.92,208.65Z"/><path class="cls-1" d="M255.23,214.9a.45.45,0,0,0,.45-.45.45.45,0,0,0-.9,0A.45.45,0,0,0,255.23,214.9Z"/><path class="cls-1" d="M251.2,220.92a.43.43,0,1,0-.43-.43A.42.42,0,0,0,251.2,220.92Z"/><path class="cls-1" d="M246.83,226.72a.43.43,0,0,0,.43-.43.43.43,0,0,0-.43-.43.44.44,0,0,0-.43.43A.43.43,0,0,0,246.83,226.72Z"/><path class="cls-1" d="M242.15,232.29a.45.45,0,0,0,0-.9.45.45,0,0,0,0,.9Z"/><path class="cls-1" d="M237.16,237.56a.45.45,0,1,0-.45-.45A.45.45,0,0,0,237.16,237.56Z"/><path class="cls-1" d="M231.88,242.55a.45.45,0,1,0,0-.9.45.45,0,1,0,0,.9Z"/><path class="cls-1" d="M226.34,247.21a.43.43,0,0,0,0-.85.43.43,0,1,0,0,.85Z"/><circle class="cls-1" cx="220.53" cy="251.15" r="0.43"/><circle class="cls-1" cx="214.5" cy="255.18" r="0.45"/><path class="cls-1" d="M208.25,259.32a.45.45,0,1,0-.45-.45A.45.45,0,0,0,208.25,259.32Z"/><path class="cls-1" d="M201.79,262.65a.45.45,0,1,0-.44-.44A.45.45,0,0,0,201.79,262.65Z"/><path class="cls-1" d="M195.17,265.6a.43.43,0,1,0-.43-.43A.42.42,0,0,0,195.17,265.6Z"/><path class="cls-1" d="M188.38,268.19a.43.43,0,0,0,.43-.43.43.43,0,1,0-.85,0A.42.42,0,0,0,188.38,268.19Z"/><path class="cls-1" d="M181.47,270.39a.43.43,0,0,0,0-.85.43.43,0,1,0,0,.85Z"/><path class="cls-1" d="M174.44,272.21a.43.43,0,0,0,.42-.43.43.43,0,1,0-.85,0A.43.43,0,0,0,174.44,272.21Z"/><path class="cls-1" d="M167.32,273.62a.43.43,0,0,0,0-.85.43.43,0,1,0,0,.85Z"/><circle class="cls-1" cx="160.13" cy="274.21" r="0.43"/><path class="cls-1" d="M152.89,275.25a.43.43,0,1,0-.42-.43A.43.43,0,0,0,152.89,275.25Z"/><path class="cls-1" d="M145.64,275.45a.43.43,0,1,0-.43-.43A.42.42,0,0,0,145.64,275.45Z"/><path class="cls-1" d="M138.38,275.25a.43.43,0,1,0-.43-.43A.42.42,0,0,0,138.38,275.25Z"/><path class="cls-1" d="M131.14,274.64a.43.43,0,1,0-.42-.43A.43.43,0,0,0,131.14,274.64Z"/><path class="cls-1" d="M124,273.62a.43.43,0,1,0-.42-.42A.42.42,0,0,0,124,273.62Z"/><path class="cls-1" d="M116.83,272.21a.43.43,0,0,0,.43-.43.43.43,0,1,0-.85,0A.43.43,0,0,0,116.83,272.21Z"/><path class="cls-1" d="M109.8,270.39a.43.43,0,1,0-.42-.42A.42.42,0,0,0,109.8,270.39Z"/><path class="cls-1" d="M102.89,268.19a.42.42,0,0,0,.42-.43.43.43,0,1,0-.85,0A.43.43,0,0,0,102.89,268.19Z"/><path class="cls-1" d="M96.1,265.6a.43.43,0,1,0,0-.85.43.43,0,0,0,0,.85Z"/><path class="cls-1" d="M89.48,262.63a.43.43,0,0,0,0-.85.43.43,0,1,0,0,.85Z"/><path class="cls-1" d="M83,259.3a.43.43,0,1,0-.43-.43A.42.42,0,0,0,83,259.3Z"/><circle class="cls-1" cx="76.77" cy="255.18" r="0.43"/><path class="cls-1" d="M70.74,251.58a.43.43,0,1,0-.43-.43A.42.42,0,0,0,70.74,251.58Z"/><path class="cls-1" d="M64.93,247.21a.43.43,0,1,0-.42-.42A.42.42,0,0,0,64.93,247.21Z"/><path class="cls-1" d="M59.39,242.53a.43.43,0,1,0-.43-.43A.42.42,0,0,0,59.39,242.53Z"/><path class="cls-1" d="M54.11,237.54a.43.43,0,1,0,0-.85.43.43,0,0,0,0,.85Z"/><path class="cls-1" d="M49.12,232.26a.43.43,0,1,0-.42-.42A.42.42,0,0,0,49.12,232.26Z"/><path class="cls-1" d="M44.44,226.72a.43.43,0,0,0,.43-.43.43.43,0,0,0-.86,0A.43.43,0,0,0,44.44,226.72Z"/><path class="cls-1" d="M40.07,220.92a.43.43,0,1,0-.42-.43A.43.43,0,0,0,40.07,220.92Z"/><path class="cls-1" d="M36,214.88a.43.43,0,1,0,0-.85.43.43,0,1,0,0,.85Z"/><circle class="cls-1" cx="32.35" cy="208.2" r="0.43"/><path class="cls-1" d="M29,202.18a.44.44,0,0,0,.43-.43.43.43,0,0,0-.43-.43.43.43,0,0,0-.43.43A.43.43,0,0,0,29,202.18Z"/><path class="cls-1" d="M26.05,195.55a.43.43,0,1,0,0-.85.43.43,0,0,0,0,.85Z"/><path class="cls-1" d="M23.47,188.77a.43.43,0,0,0,.42-.43.43.43,0,1,0-.85,0A.43.43,0,0,0,23.47,188.77Z"/><circle class="cls-1" cx="21.26" cy="181.42" r="0.43"/><circle class="cls-1" cx="19.45" cy="174.39" r="0.43"/><path class="cls-1" d="M18,167.7a.43.43,0,1,0-.43-.43A.43.43,0,0,0,18,167.7Z"/><path class="cls-1" d="M17,160.51a.43.43,0,1,0-.43-.43A.42.42,0,0,0,17,160.51Z"/><path class="cls-1" d="M16.41,153.27a.43.43,0,0,0,0-.85.43.43,0,1,0,0,.85Z"/><path class="cls-1" d="M16.2,146a.43.43,0,1,0-.42-.43A.43.43,0,0,0,16.2,146Z"/><path class="cls-1" d="M16.41,138.76a.43.43,0,1,0-.43-.43A.42.42,0,0,0,16.41,138.76Z"/><circle class="cls-1" cx="17.02" cy="131.1" r="0.4"/><path class="cls-1" d="M18,124.34a.43.43,0,0,0,.43-.43.43.43,0,1,0-.86,0A.43.43,0,0,0,18,124.34Z"/><circle class="cls-1" cx="19.45" cy="116.79" r="0.4"/><path class="cls-1" d="M21.26,110.16a.4.4,0,0,0,.4-.4.4.4,0,1,0-.8,0A.4.4,0,0,0,21.26,110.16Z"/><circle class="cls-1" cx="23.47" cy="102.84" r="0.4"/><path class="cls-1" d="M26.05,96.46a.4.4,0,0,0,.41-.4.41.41,0,1,0-.81,0A.4.4,0,0,0,26.05,96.46Z"/><path class="cls-1" d="M29,89.83a.4.4,0,1,0-.4-.4A.4.4,0,0,0,29,89.83Z"/><circle class="cls-1" cx="32.35" cy="82.98" r="0.4"/><path class="cls-1" d="M36,77.13a.41.41,0,1,0-.4-.4A.4.4,0,0,0,36,77.13Z"/><path class="cls-1" d="M40.07,71.09a.4.4,0,1,0-.4-.4A.4.4,0,0,0,40.07,71.09Z"/><path class="cls-1" d="M44.44,65.29a.4.4,0,1,0-.4-.4A.4.4,0,0,0,44.44,65.29Z"/><circle class="cls-1" cx="49.12" cy="59.34" r="0.4"/><circle class="cls-1" cx="54.11" cy="54.07" r="0.4"/><circle class="cls-1" cx="59.39" cy="49.08" r="0.4"/><path class="cls-1" d="M64.93,44.8a.41.41,0,1,0,0-.81.41.41,0,0,0,0,.81Z"/><path class="cls-1" d="M70.74,40.43a.4.4,0,1,0-.41-.4A.4.4,0,0,0,70.74,40.43Z"/><circle class="cls-1" cx="76.77" cy="36" r="0.4"/><path class="cls-1" d="M83,32.71a.41.41,0,0,0,0-.81.41.41,0,1,0,0,.81Z"/><path class="cls-1" d="M89.48,29.38a.41.41,0,1,0-.41-.41A.4.4,0,0,0,89.48,29.38Z"/><circle class="cls-1" cx="96.1" cy="26.01" r="0.4"/><circle class="cls-1" cx="102.89" cy="23.42" r="0.4"/><path class="cls-1" d="M109.8,21.62a.41.41,0,1,0-.4-.4A.4.4,0,0,0,109.8,21.62Z"/><path class="cls-1" d="M116.83,19.81a.41.41,0,0,0,.41-.41.41.41,0,0,0-.81,0A.41.41,0,0,0,116.83,19.81Z"/><circle class="cls-1" cx="123.95" cy="17.99" r="0.43"/><path class="cls-1" d="M131.14,17.37a.4.4,0,1,0-.4-.4A.4.4,0,0,0,131.14,17.37Z"/><circle class="cls-1" cx="138.38" cy="16.36" r="0.43"/><path class="cls-1" d="M145.64,16.58a.43.43,0,0,0,0-.85.43.43,0,1,0,0,.85Z"/><circle class="cls-1" cx="152.89" cy="16.36" r="0.43"/><path class="cls-1" d="M160.13,17.4a.43.43,0,1,0-.43-.43A.42.42,0,0,0,160.13,17.4Z"/><circle class="cls-1" cx="167.32" cy="17.99" r="0.43"/><path class="cls-1" d="M174.44,19.83a.43.43,0,1,0-.43-.43A.42.42,0,0,0,174.44,19.83Z"/><path class="cls-1" d="M181.47,21.64a.43.43,0,0,0,0-.85.43.43,0,1,0,0,.85Z"/><path class="cls-1" d="M188.38,23.85a.43.43,0,1,0-.42-.43A.43.43,0,0,0,188.38,23.85Z"/><path class="cls-1" d="M195.17,26.44a.43.43,0,0,0,.42-.43.43.43,0,1,0-.85,0A.43.43,0,0,0,195.17,26.44Z"/><path class="cls-1" d="M201.79,29.4a.43.43,0,1,0,0-.85.43.43,0,0,0,0,.85Z"/><path class="cls-1" d="M208.25,32.73a.43.43,0,0,0,0-.85.43.43,0,1,0,0,.85Z"/><path class="cls-1" d="M214.5,36.42a.43.43,0,0,0,0-.85.43.43,0,1,0,0,.85Z"/><circle class="cls-1" cx="220.53" cy="40.03" r="0.43"/><path class="cls-1" d="M226.34,44.82a.43.43,0,1,0-.43-.43A.42.42,0,0,0,226.34,44.82Z"/><path class="cls-1" d="M231.88,49.51a.43.43,0,0,0,.43-.43.43.43,0,1,0-.85,0A.43.43,0,0,0,231.88,49.51Z"/><path class="cls-1" d="M237.16,54.49a.43.43,0,1,0,0-.85.43.43,0,1,0,0,.85Z"/><path class="cls-1" d="M242.15,59.77a.43.43,0,1,0-.43-.43A.42.42,0,0,0,242.15,59.77Z"/><path class="cls-1" d="M246.83,65.32a.43.43,0,0,0,.43-.43.43.43,0,0,0-.43-.43.43.43,0,0,0-.43.43A.44.44,0,0,0,246.83,65.32Z"/><path class="cls-1" d="M251.2,71.12a.42.42,0,0,0,.42-.43.43.43,0,1,0-.85,0A.43.43,0,0,0,251.2,71.12Z"/><path class="cls-1" d="M255.23,77.15a.43.43,0,1,0-.43-.42A.42.42,0,0,0,255.23,77.15Z"/><path class="cls-1" d="M258.92,83.41a.43.43,0,0,0,.43-.43.44.44,0,0,0-.43-.43.43.43,0,0,0-.43.43A.43.43,0,0,0,258.92,83.41Z"/><path class="cls-1" d="M262.25,89.86a.43.43,0,0,0,.43-.43.43.43,0,0,0-.43-.43.44.44,0,0,0-.43.43A.43.43,0,0,0,262.25,89.86Z"/><circle class="cls-1" cx="265.22" cy="96.06" r="0.43"/><path class="cls-1" d="M267.81,103.27a.42.42,0,0,0,.42-.43.43.43,0,1,0-.85,0A.43.43,0,0,0,267.81,103.27Z"/><path class="cls-1" d="M270,110.18a.43.43,0,1,0,0-.85.43.43,0,1,0,0,.85Z"/><path class="cls-1" d="M271.82,117.21a.43.43,0,1,0-.42-.42A.42.42,0,0,0,271.82,117.21Z"/><path class="cls-1" d="M273.24,124.34a.43.43,0,0,0,.43-.43.43.43,0,0,0-.43-.43.43.43,0,0,0-.43.43A.44.44,0,0,0,273.24,124.34Z"/><path class="cls-1" d="M274.26,131.52a.43.43,0,0,0,0-.85.43.43,0,1,0,0,.85Z"/><path class="cls-1" d="M274.87,138.76a.43.43,0,1,0-.43-.43A.42.42,0,0,0,274.87,138.76Z"/><path class="cls-1" d="M283.16,145.79a.2.2,0,1,0-.2-.2A.2.2,0,0,0,283.16,145.79Z"/><path class="cls-1" d="M283,153.05a.2.2,0,1,0-.2-.2A.2.2,0,0,0,283,153.05Z"/><path class="cls-1" d="M282.39,160.29a.2.2,0,0,0,.2-.2.2.2,0,1,0-.4,0A.2.2,0,0,0,282.39,160.29Z"/><path class="cls-1" d="M281.44,167.48a.2.2,0,1,0-.2-.2A.2.2,0,0,0,281.44,167.48Z"/><circle class="cls-1" cx="280.1" cy="174.42" r="0.22"/><path class="cls-1" d="M278.39,181.68a.2.2,0,0,0,.21-.2.21.21,0,0,0-.21-.21.2.2,0,0,0-.2.21A.2.2,0,0,0,278.39,181.68Z"/><path class="cls-1" d="M276.32,188.63a.2.2,0,0,0,0-.4.2.2,0,1,0,0,.4Z"/><path class="cls-1" d="M273.87,195.49a.22.22,0,1,0,0-.44.22.22,0,0,0,0,.44Z"/><path class="cls-1" d="M271.07,202.19a.23.23,0,1,0-.22-.22A.22.22,0,0,0,271.07,202.19Z"/><circle class="cls-1" cx="267.92" cy="208.51" r="0.22"/><path class="cls-1" d="M264.43,215.1a.22.22,0,0,0,.22-.22.22.22,0,1,0-.44,0A.22.22,0,0,0,264.43,215.1Z"/><path class="cls-1" d="M260.61,221.27a.22.22,0,0,0,.22-.22.23.23,0,1,0-.22.22Z"/><path class="cls-1" d="M256.47,227.21a.2.2,0,1,0,0-.4.2.2,0,1,0,0,.4Z"/><circle class="cls-1" cx="252.01" cy="232.75" r="0.22"/><path class="cls-1" d="M247.27,238.46a.22.22,0,0,0,.22-.22.23.23,0,1,0-.45,0A.22.22,0,0,0,247.27,238.46Z"/><path class="cls-1" d="M242.24,243.7a.22.22,0,0,0,.22-.23.22.22,0,0,0-.22-.22.23.23,0,1,0,0,.45Z"/><path class="cls-1" d="M236.93,248.66a.23.23,0,1,0-.22-.22A.22.22,0,0,0,236.93,248.66Z"/><path class="cls-1" d="M231.38,253.31a.2.2,0,1,0-.2-.2A.2.2,0,0,0,231.38,253.31Z"/><path class="cls-1" d="M225.59,257.69a.2.2,0,0,0,.2-.2.2.2,0,0,0-.2-.21.21.21,0,0,0-.21.21A.2.2,0,0,0,225.59,257.69Z"/><circle class="cls-1" cx="219.57" cy="261.55" r="0.22"/><path class="cls-1" d="M213.35,265.51a.22.22,0,0,0,0-.44.22.22,0,1,0,0,.44Z"/><path class="cls-1" d="M206.93,268.92a.23.23,0,1,0-.22-.22A.22.22,0,0,0,206.93,268.92Z"/><circle class="cls-1" cx="200.35" cy="271.76" r="0.22"/><path class="cls-1" d="M193.62,274.7a.22.22,0,0,0,.22-.23.22.22,0,0,0-.22-.22.23.23,0,1,0,0,.45Z"/><path class="cls-1" d="M186.75,277a.2.2,0,0,0,.2-.21.2.2,0,0,0-.4,0A.2.2,0,0,0,186.75,277Z"/><path class="cls-1" d="M179.77,279a.23.23,0,0,0,.22-.23.22.22,0,0,0-.22-.22.22.22,0,0,0-.23.22A.23.23,0,0,0,179.77,279Z"/><path class="cls-1" d="M172.69,280.65a.22.22,0,0,0,.22-.22.23.23,0,1,0-.22.22Z"/><path class="cls-1" d="M165.53,281.87a.2.2,0,0,0,.21-.2.21.21,0,1,0-.41,0A.2.2,0,0,0,165.53,281.87Z"/><path class="cls-1" d="M158.32,282.73a.2.2,0,1,0,0-.4.2.2,0,0,0,0,.4Z"/><path class="cls-1" d="M151.08,283.21a.2.2,0,0,0,.2-.2.2.2,0,1,0-.4,0A.2.2,0,0,0,151.08,283.21Z"/><path class="cls-1" d="M143.82,283.3a.2.2,0,1,0-.2-.2A.2.2,0,0,0,143.82,283.3Z"/><path class="cls-1" d="M136.57,283a.2.2,0,0,0,.2-.21.2.2,0,0,0-.2-.2.2.2,0,0,0-.21.2A.21.21,0,0,0,136.57,283Z"/><path class="cls-1" d="M129.34,282.35a.2.2,0,0,0,.2-.21.2.2,0,0,0-.2-.2.2.2,0,0,0-.21.2A.21.21,0,0,0,129.34,282.35Z"/><path class="cls-1" d="M122.15,281.3a.2.2,0,0,0,.2-.21.2.2,0,0,0-.4,0A.2.2,0,0,0,122.15,281.3Z"/><path class="cls-1" d="M115,279.87a.2.2,0,0,0,.21-.2.21.21,0,0,0-.21-.21.2.2,0,0,0-.2.21A.2.2,0,0,0,115,279.87Z"/><path class="cls-1" d="M108,278.07a.2.2,0,0,0,.2-.21.2.2,0,0,0-.4,0A.2.2,0,0,0,108,278.07Z"/><path class="cls-1" d="M101.07,275.9a.21.21,0,0,0,.2-.21.2.2,0,0,0-.4,0A.21.21,0,0,0,101.07,275.9Z"/><path class="cls-1" d="M94.27,273.36a.2.2,0,1,0-.2-.2A.2.2,0,0,0,94.27,273.36Z"/><path class="cls-1" d="M87.61,270.47a.2.2,0,1,0-.2-.2A.2.2,0,0,0,87.61,270.47Z"/><path class="cls-1" d="M81.11,267.24a.2.2,0,0,0,.2-.2.2.2,0,1,0-.4,0A.2.2,0,0,0,81.11,267.24Z"/><path class="cls-1" d="M74.79,263.66a.2.2,0,1,0-.2-.2A.2.2,0,0,0,74.79,263.66Z"/><path class="cls-1" d="M68.67,259.76a.2.2,0,1,0,0-.4.2.2,0,1,0,0,.4Z"/><path class="cls-1" d="M62.76,255.54a.2.2,0,0,0,.2-.2.2.2,0,1,0-.4,0A.2.2,0,0,0,62.76,255.54Z"/><path class="cls-1" d="M57.08,251a.2.2,0,1,0-.2-.2A.2.2,0,0,0,57.08,251Z"/><path class="cls-1" d="M51.65,246.19a.2.2,0,1,0-.2-.2A.2.2,0,0,0,51.65,246.19Z"/><path class="cls-1" d="M46.49,241.09a.2.2,0,0,0,0-.4.2.2,0,1,0,0,.4Z"/><path class="cls-1" d="M41.59,235.73a.21.21,0,0,0,.21-.21.2.2,0,0,0-.21-.2.2.2,0,0,0-.2.2A.2.2,0,0,0,41.59,235.73Z"/><path class="cls-1" d="M37,230.11a.2.2,0,1,0-.2-.2A.2.2,0,0,0,37,230.11Z"/><path class="cls-1" d="M32.69,224.26a.2.2,0,1,0,0-.4.2.2,0,0,0,0,.4Z"/><path class="cls-1" d="M28.71,218.19a.2.2,0,1,0-.2-.2A.2.2,0,0,0,28.71,218.19Z"/><path class="cls-1" d="M25.05,211.92a.2.2,0,0,0,.2-.2.2.2,0,1,0-.4,0A.2.2,0,0,0,25.05,211.92Z"/><path class="cls-1" d="M21.73,205.46a.2.2,0,1,0-.2-.2A.2.2,0,0,0,21.73,205.46Z"/><path class="cls-1" d="M18.75,198.84a.2.2,0,1,0,0-.4.2.2,0,1,0,0,.4Z"/><path class="cls-1" d="M16.13,192.07a.2.2,0,1,0-.2-.2A.2.2,0,0,0,16.13,192.07Z"/><path class="cls-1" d="M13.87,185.17a.2.2,0,1,0-.2-.2A.2.2,0,0,0,13.87,185.17Z"/><path class="cls-1" d="M12,178.16a.2.2,0,0,0,0-.4.2.2,0,1,0,0,.4Z"/><path class="cls-1" d="M10.45,171.06a.2.2,0,1,0,0-.4.2.2,0,1,0,0,.4Z"/><path class="cls-1" d="M9.31,163.89a.2.2,0,1,0-.2-.2A.2.2,0,0,0,9.31,163.89Z"/><path class="cls-1" d="M8.54,156.67a.2.2,0,1,0-.2-.2A.2.2,0,0,0,8.54,156.67Z"/><path class="cls-1" d="M8.16,149.42a.2.2,0,1,0-.2-.2A.2.2,0,0,0,8.16,149.42Z"/><path class="cls-1" d="M8.16,142.16A.2.2,0,1,0,8,142,.2.2,0,0,0,8.16,142.16Z"/><path class="cls-1" d="M8.54,134.91a.2.2,0,1,0-.2-.2A.2.2,0,0,0,8.54,134.91Z"/><path class="cls-1" d="M9.31,127.69a.2.2,0,1,0-.2-.2A.2.2,0,0,0,9.31,127.69Z"/><path class="cls-1" d="M10.45,120.5a.18.18,0,1,0-.18-.18A.18.18,0,0,0,10.45,120.5Z"/><path class="cls-1" d="M12,113.4a.18.18,0,0,0,0-.36.18.18,0,0,0,0,.36Z"/><path class="cls-1" d="M13.87,106.39a.18.18,0,1,0-.18-.18A.18.18,0,0,0,13.87,106.39Z"/><path class="cls-1" d="M16.13,99.52a.21.21,0,0,0,.2-.21.2.2,0,0,0-.4,0A.21.21,0,0,0,16.13,99.52Z"/><path class="cls-1" d="M18.75,92.72a.18.18,0,0,0,0-.36.18.18,0,0,0,0,.36Z"/><path class="cls-1" d="M21.73,86.1a.18.18,0,1,0-.18-.18A.18.18,0,0,0,21.73,86.1Z"/><path class="cls-1" d="M25.05,79.64a.18.18,0,0,0,.18-.17.18.18,0,0,0-.36,0A.18.18,0,0,0,25.05,79.64Z"/><path class="cls-1" d="M28.71,73.37a.18.18,0,1,0-.18-.18A.18.18,0,0,0,28.71,73.37Z"/><path class="cls-1" d="M32.69,67.3a.18.18,0,0,0,0-.36.18.18,0,0,0,0,.36Z"/><path class="cls-1" d="M37,61.45a.18.18,0,1,0-.18-.18A.18.18,0,0,0,37,61.45Z"/><path class="cls-1" d="M41.59,55.84a.18.18,0,1,0-.18-.18A.18.18,0,0,0,41.59,55.84Z"/><path class="cls-1" d="M46.49,50.47a.18.18,0,0,0,0-.36.18.18,0,0,0,0,.36Z"/><path class="cls-1" d="M51.65,45.37a.18.18,0,1,0-.18-.18A.18.18,0,0,0,51.65,45.37Z"/><path class="cls-1" d="M57.08,40.55a.18.18,0,1,0-.18-.18A.18.18,0,0,0,57.08,40.55Z"/><path class="cls-1" d="M62.76,36a.18.18,0,0,0,.18-.18.18.18,0,0,0-.36,0A.18.18,0,0,0,62.76,36Z"/><path class="cls-1" d="M68.67,31.8a.18.18,0,1,0-.18-.18A.18.18,0,0,0,68.67,31.8Z"/><path class="cls-1" d="M74.79,27.9a.18.18,0,1,0-.18-.18A.18.18,0,0,0,74.79,27.9Z"/><path class="cls-1" d="M81.11,24.32a.18.18,0,0,0,.18-.17.18.18,0,1,0-.36,0A.18.18,0,0,0,81.11,24.32Z"/><path class="cls-1" d="M87.61,21.09a.18.18,0,1,0-.18-.18A.18.18,0,0,0,87.61,21.09Z"/><path class="cls-1" d="M94.27,18.2a.18.18,0,1,0-.18-.18A.18.18,0,0,0,94.27,18.2Z"/><path class="cls-1" d="M101.07,15.67a.18.18,0,1,0-.18-.18A.18.18,0,0,0,101.07,15.67Z"/><path class="cls-1" d="M108,13.5a.18.18,0,1,0-.18-.18A.18.18,0,0,0,108,13.5Z"/><path class="cls-1" d="M115,11.69a.18.18,0,0,0,.18-.18.18.18,0,0,0-.36,0A.18.18,0,0,0,115,11.69Z"/><path class="cls-1" d="M122.15,10.27a.18.18,0,1,0-.18-.18A.18.18,0,0,0,122.15,10.27Z"/><path class="cls-1" d="M129.34,9.24a.2.2,0,0,0,.2-.2.2.2,0,0,0-.2-.21.21.21,0,0,0-.21.21A.2.2,0,0,0,129.34,9.24Z"/><path class="cls-1" d="M136.57,8.57a.2.2,0,0,0,.2-.2.2.2,0,0,0-.2-.21.21.21,0,0,0-.21.21A.2.2,0,0,0,136.57,8.57Z"/><path class="cls-1" d="M143.82,8.28a.2.2,0,1,0-.2-.2A.2.2,0,0,0,143.82,8.28Z"/><path class="cls-1" d="M151.08,8.38a.2.2,0,0,0,.2-.21.2.2,0,0,0-.4,0A.2.2,0,0,0,151.08,8.38Z"/><path class="cls-1" d="M158.32,8.86a.21.21,0,0,0,.21-.21.2.2,0,0,0-.21-.2.2.2,0,0,0-.2.2A.2.2,0,0,0,158.32,8.86Z"/><path class="cls-1" d="M165.53,9.72a.21.21,0,0,0,.21-.21.2.2,0,0,0-.21-.2.2.2,0,0,0-.2.2A.2.2,0,0,0,165.53,9.72Z"/><path class="cls-1" d="M172.69,11a.2.2,0,0,0,.2-.21.2.2,0,0,0-.4,0A.2.2,0,0,0,172.69,11Z"/><path class="cls-1" d="M179.77,12.57a.2.2,0,0,0,0-.4.2.2,0,1,0,0,.4Z"/><path class="cls-1" d="M186.75,14.56a.2.2,0,0,0,.2-.2.2.2,0,1,0-.4,0A.2.2,0,0,0,186.75,14.56Z"/><path class="cls-1" d="M193.62,16.91a.2.2,0,1,0-.2-.2A.2.2,0,0,0,193.62,16.91Z"/><path class="cls-1" d="M200.35,19.62a.2.2,0,1,0-.2-.2A.2.2,0,0,0,200.35,19.62Z"/><path class="cls-1" d="M206.93,22.69a.21.21,0,0,0,.21-.21.2.2,0,0,0-.21-.2.2.2,0,0,0-.2.2A.2.2,0,0,0,206.93,22.69Z"/><path class="cls-1" d="M213.35,26.09a.2.2,0,1,0,0-.4.2.2,0,1,0,0,.4Z"/><path class="cls-1" d="M219.57,29.83a.2.2,0,1,0-.2-.2A.2.2,0,0,0,219.57,29.83Z"/><path class="cls-1" d="M225.59,33.9a.2.2,0,0,0,.2-.21.2.2,0,0,0-.2-.2.2.2,0,0,0-.21.2A.21.21,0,0,0,225.59,33.9Z"/><path class="cls-1" d="M231.38,38.27a.2.2,0,1,0-.2-.2A.2.2,0,0,0,231.38,38.27Z"/><path class="cls-1" d="M236.93,43a.2.2,0,0,0,.21-.2.21.21,0,0,0-.21-.21.2.2,0,0,0-.2.21A.2.2,0,0,0,236.93,43Z"/><path class="cls-1" d="M242.24,47.91a.2.2,0,0,0,.2-.2.21.21,0,1,0-.41,0A.2.2,0,0,0,242.24,47.91Z"/><path class="cls-1" d="M247.27,53.14a.2.2,0,1,0,0-.4.2.2,0,1,0,0,.4Z"/><path class="cls-1" d="M252,58.64a.21.21,0,0,0,.21-.21.2.2,0,0,0-.21-.2.2.2,0,0,0-.2.2A.2.2,0,0,0,252,58.64Z"/><path class="cls-1" d="M256.47,64.37a.2.2,0,0,0,0-.4.2.2,0,1,0,0,.4Z"/><path class="cls-1" d="M260.61,70.33a.2.2,0,1,0-.2-.2A.2.2,0,0,0,260.61,70.33Z"/><path class="cls-1" d="M264.43,76.51a.2.2,0,0,0,.2-.2.2.2,0,1,0-.4,0A.2.2,0,0,0,264.43,76.51Z"/><path class="cls-1" d="M267.92,82.87a.2.2,0,1,0-.2-.2A.2.2,0,0,0,267.92,82.87Z"/><path class="cls-1" d="M271.07,89.41a.2.2,0,1,0-.2-.2A.2.2,0,0,0,271.07,89.41Z"/><path class="cls-1" d="M273.87,96.11a.2.2,0,1,0-.2-.2A.2.2,0,0,0,273.87,96.11Z"/><path class="cls-1" d="M276.32,103a.2.2,0,0,0,0-.4.2.2,0,1,0,0,.4Z"/><path class="cls-1" d="M278.39,109.91a.21.21,0,0,0,.21-.21.2.2,0,0,0-.21-.2.2.2,0,0,0-.2.2A.2.2,0,0,0,278.39,109.91Z"/><path class="cls-1" d="M280.1,117a.2.2,0,1,0-.2-.2A.2.2,0,0,0,280.1,117Z"/><path class="cls-1" d="M281.44,124.1a.2.2,0,1,0-.2-.2A.2.2,0,0,0,281.44,124.1Z"/><path class="cls-1" d="M282.39,131.3a.2.2,0,0,0,.2-.21.2.2,0,1,0-.4,0A.2.2,0,0,0,282.39,131.3Z"/><path class="cls-1" d="M283,138.53a.2.2,0,1,0-.2-.2A.2.2,0,0,0,283,138.53Z"/><path class="cls-1" d="M291.25,145.61l0,0,0,0,0,0Z"/><circle class="cls-1" cx="291.07" cy="152.85" r="0.02"/><path class="cls-1" d="M290.52,160.11s0,0,0,0,0,0,0,0l0,0Z"/><circle class="cls-1" cx="289.62" cy="167.29" r="0.02"/><path class="cls-1" d="M288.36,174.47s0,0,0,0a0,0,0,0,0,0,0l0,0S288.35,174.47,288.36,174.47Z"/><path class="cls-1" d="M286.75,181.54l0,0a0,0,0,0,0,0,0s0,0,0,0S286.73,181.54,286.75,181.54Z"/><circle class="cls-1" cx="284.78" cy="188.51" r="0.02"/><path class="cls-1" d="M282.47,195.42s0,0,0,0l0,0s0,0,0,0A0,0,0,0,0,282.47,195.42Z"/><path class="cls-1" d="M279.81,202.17s0,0,0,0,0,0,0,0a0,0,0,0,0,0,0Z"/><path class="cls-1" d="M276.83,208.79l0,0a0,0,0,0,0,0,0,0,0,0,0,0,0,0Z"/><path class="cls-1" d="M273.52,215.25a0,0,0,0,0,0,0l0,0s0,0,0,0S273.5,215.25,273.52,215.25Z"/><circle class="cls-1" cx="269.89" cy="221.52" r="0.02"/><circle class="cls-1" cx="265.95" cy="227.62" r="0.02"/><path class="cls-1" d="M261.71,233.53a0,0,0,0,0,0,0,0,0,0,0,0,0,0l0,0A0,0,0,0,0,261.71,233.53Z"/><circle class="cls-1" cx="257.18" cy="239.19" r="0.02"/><circle class="cls-1" cx="252.38" cy="244.63" r="0.02"/><path class="cls-1" d="M247.31,249.85l0,0a0,0,0,0,0,0,0,0,0,0,0,0,0,0Z"/><circle class="cls-1" cx="241.99" cy="254.77" r="0.02"/><path class="cls-1" d="M236.42,259.46s0,0,0,0a0,0,0,0,0,0,0s0,0,0,0Z"/><path class="cls-1" d="M230.64,263.84l0,0,0,0s0,0,0,0S230.62,263.84,230.64,263.84Z"/><path class="cls-1" d="M224.64,267.93l0,0a0,0,0,0,0,0,0s0,0,0,0S224.62,267.93,224.64,267.93Z"/><path class="cls-1" d="M218.44,271.72s0,0,0,0l0,0,0,0S218.43,271.72,218.44,271.72Z"/><circle class="cls-1" cx="212.07" cy="275.17" r="0.02"/><path class="cls-1" d="M205.52,278.34s0,0,0,0a0,0,0,0,0,0,0s0,0,0,0Z"/><path class="cls-1" d="M198.83,281.16s0,0,0,0,0,0,0,0l0,0A0,0,0,0,0,198.83,281.16Z"/><circle class="cls-1" cx="192.01" cy="283.62" r="0.02"/><path class="cls-1" d="M185.07,285.78s0,0,0,0,0,0,0,0l0,0Z"/><circle class="cls-1" cx="178.04" cy="287.55" r="0.02"/><path class="cls-1" d="M170.92,289l0,0,0,0,0,0Z"/><circle class="cls-1" cx="163.74" cy="290.07" r="0.02"/><path class="cls-1" d="M156.52,290.82l0,0s0,0,0,0a0,0,0,0,0,0,0S156.5,290.82,156.52,290.82Z"/><path class="cls-1" d="M149.27,291.18l0,0a0,0,0,0,0,0,0s0,0,0,0S149.25,291.18,149.27,291.18Z"/><path class="cls-1" d="M142,291.18l0,0a0,0,0,0,0,0,0s0,0,0,0S142,291.18,142,291.18Z"/><path class="cls-1" d="M134.75,290.82s0,0,0,0a0,0,0,0,0,0,0s0,0,0,0Z"/><circle class="cls-1" cx="127.53" cy="290.07" r="0.02"/><path class="cls-1" d="M120.35,289l0,0,0,0,0,0Z"/><circle class="cls-1" cx="113.23" cy="287.55" r="0.02"/><path class="cls-1" d="M106.2,285.78l0,0,0,0,0,0Z"/><circle class="cls-1" cx="99.26" cy="283.62" r="0.02"/><path class="cls-1" d="M92.44,281.16a0,0,0,0,0,0,0l0,0s0,0,0,0S92.42,281.16,92.44,281.16Z"/><path class="cls-1" d="M85.75,278.34l0,0s0,0,0,0a0,0,0,0,0,0,0S85.73,278.34,85.75,278.34Z"/><circle class="cls-1" cx="79.21" cy="275.17" r="0.02"/><path class="cls-1" d="M72.83,271.72s0,0,0,0l0,0,0,0S72.82,271.72,72.83,271.72Z"/><path class="cls-1" d="M66.63,267.93s0,0,0,0,0,0,0,0a0,0,0,0,0,0,0Z"/><path class="cls-1" d="M60.63,263.84s0,0,0,0,0,0,0,0l0,0Z"/><path class="cls-1" d="M54.85,259.46l0,0s0,0,0,0a0,0,0,0,0,0,0S54.83,259.46,54.85,259.46Z"/><circle class="cls-1" cx="49.29" cy="254.77" r="0.02"/><path class="cls-1" d="M44,249.85s0,0,0,0,0,0,0,0a0,0,0,0,0,0,0Z"/><circle class="cls-1" cx="38.89" cy="244.63" r="0.02"/><circle class="cls-1" cx="34.09" cy="239.19" r="0.02"/><path class="cls-1" d="M29.56,233.53a0,0,0,0,0,0,0l0,0,0,0A0,0,0,0,0,29.56,233.53Z"/><circle class="cls-1" cx="25.32" cy="227.62" r="0.02"/><circle class="cls-1" cx="21.39" cy="221.52" r="0.02"/><path class="cls-1" d="M17.75,215.25s0,0,0,0,0,0,0,0l0,0A0,0,0,0,0,17.75,215.25Z"/><path class="cls-1" d="M14.44,208.79s0,0,0,0,0,0,0,0a0,0,0,0,0,0,0Z"/><path class="cls-1" d="M11.46,202.17l0,0a0,0,0,0,0,0,0s0,0,0,0S11.44,202.17,11.46,202.17Z"/><circle class="cls-1" cx="8.8" cy="195.39" r="0.02"/><path class="cls-1" d="M6.49,188.53a0,0,0,0,0,0,0l0,0,0,0A0,0,0,0,0,6.49,188.53Z"/><path class="cls-1" d="M4.53,181.54l0,0a0,0,0,0,0,0,0s0,0,0,0S4.51,181.54,4.53,181.54Z"/><circle class="cls-1" cx="1.65" cy="167.29" r="0.02"/><circle class="cls-1" cx="0.2" cy="152.85" r="0.02"/><path class="cls-1" d="M0,145.61l0,0,0,0,0,0Z"/><circle class="cls-1" cx="0.2" cy="138.33" r="0.02"/><path class="cls-1" d="M1.65,123.91a0,0,0,0,0,0,0,0,0,0,0,0,0,0,0,0,0,0,0,0,0A0,0,0,0,0,1.65,123.87Z"/><path class="cls-1" d="M4.53,109.68a0,0,0,0,0,0,0,0,0,0,0,0,0,0s0,0,0,0S4.51,109.68,4.53,109.68Z"/><path class="cls-1" d="M6.49,102.69a0,0,0,0,0,0,0,0,0,0,0,0,0,0,0,0,0,0,0,0,0A0,0,0,0,0,6.49,102.65Z"/><circle class="cls-1" cx="8.8" cy="95.79" r="0.02"/><circle class="cls-1" cx="21.39" cy="69.66" r="0.02"/><path class="cls-1" d="M49.29,36.43a0,0,0,0,0,0,0l0,0s0,0,0,0S49.27,36.43,49.29,36.43Z"/><path class="cls-1" d="M66.63,23.29s0,0,0,0,0,0,0,0l0,0A0,0,0,0,0,66.63,23.29Z"/><path class="cls-1" d="M92.44,10.07s0,0,0,0a0,0,0,0,0,0,0s0,0,0,0A0,0,0,0,0,92.44,10.07Z"/><path class="cls-1" d="M113.23,3.65s0,0,0,0,0,0,0,0a0,0,0,0,0,0,0A0,0,0,0,0,113.23,3.61Z"/><path class="cls-1" d="M120.35,2.21a0,0,0,0,0,0,0l0,0,0,0A0,0,0,0,0,120.35,2.21Z"/><path class="cls-1" d="M134.75.41a0,0,0,0,0,0,0s0,0,0,0a0,0,0,0,0,0,0S134.74.41,134.75.41Z"/><path class="cls-1" d="M142,0a0,0,0,0,0,0,0,0,0,0,0,0,0,0s0,0,0,0S142,0,142,0Z"/><path class="cls-1" d="M149.27,0a0,0,0,0,0,0,0l0,0s0,0,0,0S149.25,0,149.27,0Z"/><path class="cls-1" d="M156.52.41s0,0,0,0a0,0,0,0,0,0,0s0,0,0,0A0,0,0,0,0,156.52.41Z"/><circle class="cls-1" cx="163.74" cy="1.11" r="0.02"/><path class="cls-1" d="M178,3.65a0,0,0,0,0,0,0,0,0,0,0,0,0,0s0,0,0,0S178,3.65,178,3.65Z"/><path class="cls-1" d="M185.07,5.44s0,0,0,0,0,0,0,0l0,0A0,0,0,0,0,185.07,5.44Z"/><circle class="cls-1" cx="192.01" cy="7.56" r="0.02"/><path class="cls-1" d="M198.83,10.07a0,0,0,0,0,0,0s0,0,0,0a0,0,0,0,0,0,0S198.82,10.07,198.83,10.07Z"/><path class="cls-1" d="M205.52,12.89a0,0,0,0,0,0,0s0,0,0,0a0,0,0,0,0,0,0S205.51,12.89,205.52,12.89Z"/><circle class="cls-1" cx="212.07" cy="16.01" r="0.02"/><path class="cls-1" d="M218.44,19.51a0,0,0,0,0,0,0s0,0,0,0,0,0,0,0A0,0,0,0,0,218.44,19.51Z"/><path class="cls-1" d="M224.64,23.29a0,0,0,0,0,0,0,0,0,0,0,0,0,0s0,0,0,0S224.62,23.29,224.64,23.29Z"/><path class="cls-1" d="M230.64,27.38a0,0,0,0,0,0,0,0,0,0,0,0,0,0s0,0,0,0S230.62,27.38,230.64,27.38Z"/><circle class="cls-1" cx="236.42" cy="31.75" r="0.02"/><path class="cls-1" d="M242,36.43a0,0,0,0,0,0,0l0,0s0,0,0,0S242,36.43,242,36.43Z"/><circle class="cls-1" cx="247.31" cy="41.35" r="0.02"/><circle class="cls-1" cx="252.38" cy="46.55" r="0.02"/><path class="cls-1" d="M257.18,52l0,0a0,0,0,0,0,0,0,0,0,0,0,0,0,0Z"/><path class="cls-1" d="M261.71,57.69a0,0,0,0,0,0,0,0,0,0,0,0,0,0,0,0,0,0,0,0,0Z"/><path class="cls-1" d="M266,63.59s0,0,0,0a0,0,0,0,0,0,0s0,0,0,0A0,0,0,0,0,266,63.59Z"/><circle class="cls-1" cx="269.89" cy="69.66" r="0.02"/><circle class="cls-1" cx="273.52" cy="75.95" r="0.02"/><path class="cls-1" d="M276.83,82.43a0,0,0,0,0,0,0l0,0a0,0,0,0,0,0,0A0,0,0,0,0,276.83,82.39Z"/><circle class="cls-1" cx="279.81" cy="89.03" r="0.02"/><path class="cls-1" d="M282.47,95.81l0,0a0,0,0,0,0,0,0s0,0,0,0S282.45,95.81,282.47,95.81Z"/><path class="cls-1" d="M284.78,102.69a0,0,0,0,0,0,0,0,0,0,0,0,0,0,0,0,0,0,0,0,0A0,0,0,0,0,284.78,102.65Z"/><path class="cls-1" d="M286.75,109.68a0,0,0,0,0,0,0,0,0,0,0,0,0,0s0,0,0,0S286.73,109.68,286.75,109.68Z"/><circle class="cls-1" cx="288.36" cy="116.74" r="0.02"/><path class="cls-1" d="M289.62,123.91a0,0,0,0,0,0,0,0,0,0,0,0,0,0,0,0,0,0,0,0,0A0,0,0,0,0,289.62,123.87Z"/><path class="cls-1" d="M290.52,131.11s0,0,0,0,0,0,0,0l0,0Z"/><circle class="cls-1" cx="291.07" cy="138.33" r="0.02"/></g></g></svg>