<svg xmlns="http://www.w3.org/2000/svg" viewBox="0 0 291.27 291.27"><defs><style>.cls-1{fill:#1a1a1a;}</style></defs><title>Asset 150mdpi</title><g id="Layer_2" data-name="Layer 2"><g id="Layer_1-2" data-name="Layer 1"><path class="cls-1" d="M137.55,0a0,0,0,0,0,0,0l0,0s0,0,0,0S137.53,0,137.55,0Z"/><path class="cls-1" d="M145.64,0a0,0,0,0,0,0,0,0,0,0,0,0,0,0s0,0,0,0S145.62,0,145.64,0Z"/><path class="cls-1" d="M153.73,0a0,0,0,0,0,0,0,0,0,0,0,0,0,0s0,0,0,0S153.71,0,153.73,0Z"/><path class="cls-1" d="M97.1,8.13l0,0,0,0,0,0Z"/><path class="cls-1" d="M105.19,8.16a0,0,0,0,0,0-.05,0,0,0,0,0,0,0,0,0,0,0,0,0,0A0,0,0,0,0,105.19,8.16Z"/><path class="cls-1" d="M113.28,8.2a.09.09,0,1,0-.09-.09A.09.09,0,0,0,113.28,8.2Z"/><path class="cls-1" d="M121.37,8.25a.13.13,0,0,0,.13-.14.13.13,0,0,0-.13-.13.13.13,0,0,0-.14.13A.14.14,0,0,0,121.37,8.25Z"/><path class="cls-1" d="M129.46,8.27a.16.16,0,0,0,.15-.16.15.15,0,0,0-.15-.15.16.16,0,0,0-.16.15A.16.16,0,0,0,129.46,8.27Z"/><path class="cls-1" d="M137.55,8.29a.18.18,0,0,0,0-.36.18.18,0,0,0,0,.36Z"/><path class="cls-1" d="M145.64,8.31a.2.2,0,0,0,0-.4.2.2,0,1,0,0,.4Z"/><path class="cls-1" d="M153.73,8.29a.18.18,0,0,0,0-.36.18.18,0,1,0,0,.36Z"/><path class="cls-1" d="M161.81,8.27a.16.16,0,0,0,.16-.16.16.16,0,0,0-.16-.15.15.15,0,0,0-.15.15A.16.16,0,0,0,161.81,8.27Z"/><path class="cls-1" d="M169.9,8.25a.14.14,0,0,0,.14-.14A.13.13,0,0,0,169.9,8a.13.13,0,0,0-.13.13A.13.13,0,0,0,169.9,8.25Z"/><path class="cls-1" d="M178,8.2a.09.09,0,1,0-.09-.09A.09.09,0,0,0,178,8.2Z"/><path class="cls-1" d="M186.08,8.16a0,0,0,0,0,0-.05,0,0,0,0,0,0,0,0,0,0,0,0,0,0A0,0,0,0,0,186.08,8.16Z"/><path class="cls-1" d="M194.17,8.13s0,0,0,0,0,0,0,0l0,0Z"/><path class="cls-1" d="M80.92,16.22a0,0,0,0,0,0,0,0,0,0,0,0,0,0,0,0,0,0,0,0,0A0,0,0,0,0,80.92,16.18Z"/><path class="cls-1" d="M89,16.29a.09.09,0,1,0-.09-.09A.09.09,0,0,0,89,16.29Z"/><path class="cls-1" d="M97.1,16.38a.18.18,0,1,0-.18-.18A.18.18,0,0,0,97.1,16.38Z"/><path class="cls-1" d="M105.19,16.45a.25.25,0,0,0,.24-.25.25.25,0,1,0-.49,0A.25.25,0,0,0,105.19,16.45Z"/><path class="cls-1" d="M113.28,16.49a.29.29,0,1,0-.29-.29A.29.29,0,0,0,113.28,16.49Z"/><path class="cls-1" d="M121.37,16.56a.36.36,0,1,0,0-.72.36.36,0,0,0,0,.72Z"/><path class="cls-1" d="M129.46,16.58a.38.38,0,0,0,0-.76.38.38,0,1,0,0,.76Z"/><path class="cls-1" d="M137.55,16.61a.41.41,0,0,0,.4-.41.41.41,0,0,0-.81,0A.41.41,0,0,0,137.55,16.61Z"/><path class="cls-1" d="M145.64,16.63a.43.43,0,1,0-.43-.43A.42.42,0,0,0,145.64,16.63Z"/><path class="cls-1" d="M153.73,16.61a.41.41,0,0,0,.4-.41.41.41,0,0,0-.81,0A.41.41,0,0,0,153.73,16.61Z"/><path class="cls-1" d="M161.81,16.58a.38.38,0,1,0-.38-.38A.38.38,0,0,0,161.81,16.58Z"/><path class="cls-1" d="M169.9,16.56a.36.36,0,1,0-.35-.36A.36.36,0,0,0,169.9,16.56Z"/><path class="cls-1" d="M178,16.52a.32.32,0,1,0,0-.63.32.32,0,0,0,0,.63Z"/><path class="cls-1" d="M186.08,16.45a.25.25,0,0,0,.25-.25.25.25,0,1,0-.49,0A.25.25,0,0,0,186.08,16.45Z"/><path class="cls-1" d="M194.17,16.38a.18.18,0,1,0-.18-.18A.18.18,0,0,0,194.17,16.38Z"/><path class="cls-1" d="M202.26,16.29a.09.09,0,1,0-.09-.09A.09.09,0,0,0,202.26,16.29Z"/><path class="cls-1" d="M210.35,16.22a0,0,0,0,0,0,0,0,0,0,0,0,0,0l0,0A0,0,0,0,0,210.35,16.22Z"/><path class="cls-1" d="M64.74,24.31a0,0,0,0,0,0,0,0,0,0,0,0,0,0l0,0A0,0,0,0,0,64.74,24.31Z"/><path class="cls-1" d="M72.83,24.38a.09.09,0,1,0-.09-.09A.09.09,0,0,0,72.83,24.38Z"/><path class="cls-1" d="M80.92,24.47a.18.18,0,1,0-.18-.18A.18.18,0,0,0,80.92,24.47Z"/><path class="cls-1" d="M89,24.58a.29.29,0,1,0-.29-.29A.29.29,0,0,0,89,24.58Z"/><path class="cls-1" d="M97.1,24.67a.38.38,0,1,0-.38-.38A.38.38,0,0,0,97.1,24.67Z"/><path class="cls-1" d="M105.19,24.74a.45.45,0,1,0-.45-.45A.45.45,0,0,0,105.19,24.74Z"/><circle class="cls-1" cx="113.28" cy="24.29" r="0.52"/><path class="cls-1" d="M121.37,24.85a.56.56,0,1,0-.56-.56A.56.56,0,0,0,121.37,24.85Z"/><path class="cls-1" d="M129.46,24.9a.61.61,0,1,0-.61-.61A.6.6,0,0,0,129.46,24.9Z"/><path class="cls-1" d="M137.55,24.92a.63.63,0,1,0-.63-.63A.63.63,0,0,0,137.55,24.92Z"/><path class="cls-1" d="M145.64,24.94a.65.65,0,1,0-.66-.65A.66.66,0,0,0,145.64,24.94Z"/><path class="cls-1" d="M153.73,24.92a.63.63,0,1,0-.63-.63A.63.63,0,0,0,153.73,24.92Z"/><path class="cls-1" d="M161.81,24.9a.61.61,0,1,0-.6-.61A.61.61,0,0,0,161.81,24.9Z"/><path class="cls-1" d="M169.9,24.85a.56.56,0,1,0-.56-.56A.56.56,0,0,0,169.9,24.85Z"/><circle class="cls-1" cx="177.99" cy="24.29" r="0.52"/><path class="cls-1" d="M186.08,24.76a.47.47,0,1,0-.47-.47A.47.47,0,0,0,186.08,24.76Z"/><path class="cls-1" d="M194.17,24.67a.38.38,0,1,0-.38-.38A.38.38,0,0,0,194.17,24.67Z"/><path class="cls-1" d="M202.26,24.58a.29.29,0,1,0-.29-.29A.29.29,0,0,0,202.26,24.58Z"/><path class="cls-1" d="M210.35,24.49a.2.2,0,1,0-.2-.2A.2.2,0,0,0,210.35,24.49Z"/><path class="cls-1" d="M218.44,24.38a.09.09,0,1,0-.09-.09A.09.09,0,0,0,218.44,24.38Z"/><path class="cls-1" d="M226.53,24.31a0,0,0,0,0,0,0l0,0,0,0A0,0,0,0,0,226.53,24.31Z"/><path class="cls-1" d="M56.65,32.4l0,0a0,0,0,0,0,0,0,0,0,0,0,0,0,0Z"/><path class="cls-1" d="M64.74,32.52a.13.13,0,0,0,.13-.14.13.13,0,0,0-.13-.13.13.13,0,0,0-.14.13A.14.14,0,0,0,64.74,32.52Z"/><path class="cls-1" d="M72.83,32.65a.27.27,0,1,0-.27-.27A.27.27,0,0,0,72.83,32.65Z"/><path class="cls-1" d="M80.92,32.76a.38.38,0,1,0-.38-.38A.38.38,0,0,0,80.92,32.76Z"/><path class="cls-1" d="M89,32.87a.49.49,0,0,0,0-1,.49.49,0,1,0,0,1Z"/><path class="cls-1" d="M97.1,33a.58.58,0,0,0,0-1.16.58.58,0,1,0,0,1.16Z"/><path class="cls-1" d="M105.19,33.05a.67.67,0,0,0,0-1.34.67.67,0,1,0,0,1.34Z"/><path class="cls-1" d="M113.28,33.12a.74.74,0,1,0-.74-.74A.74.74,0,0,0,113.28,33.12Z"/><path class="cls-1" d="M121.37,33.17a.79.79,0,0,0,.78-.79.79.79,0,0,0-1.57,0A.79.79,0,0,0,121.37,33.17Z"/><path class="cls-1" d="M129.46,33.21a.83.83,0,1,0-.83-.83A.83.83,0,0,0,129.46,33.21Z"/><path class="cls-1" d="M137.55,33.23a.85.85,0,1,0-.86-.85A.85.85,0,0,0,137.55,33.23Z"/><path class="cls-1" d="M145.64,33.26a.88.88,0,1,0-.88-.88A.88.88,0,0,0,145.64,33.26Z"/><path class="cls-1" d="M153.73,33.23a.85.85,0,1,0-.86-.85A.85.85,0,0,0,153.73,33.23Z"/><path class="cls-1" d="M161.81,33.21a.83.83,0,1,0-.83-.83A.83.83,0,0,0,161.81,33.21Z"/><path class="cls-1" d="M169.9,33.17a.79.79,0,0,0,.79-.79.79.79,0,1,0-.79.79Z"/><path class="cls-1" d="M178,33.12a.74.74,0,1,0-.74-.74A.74.74,0,0,0,178,33.12Z"/><path class="cls-1" d="M186.08,33.05a.67.67,0,1,0-.67-.67A.67.67,0,0,0,186.08,33.05Z"/><path class="cls-1" d="M194.17,33a.58.58,0,1,0-.58-.58A.58.58,0,0,0,194.17,33Z"/><path class="cls-1" d="M202.26,32.87a.49.49,0,1,0-.49-.49A.49.49,0,0,0,202.26,32.87Z"/><path class="cls-1" d="M210.35,32.76a.38.38,0,1,0-.38-.38A.38.38,0,0,0,210.35,32.76Z"/><path class="cls-1" d="M218.44,32.65a.27.27,0,1,0-.27-.27A.27.27,0,0,0,218.44,32.65Z"/><path class="cls-1" d="M226.53,32.54a.16.16,0,1,0-.16-.16A.16.16,0,0,0,226.53,32.54Z"/><path class="cls-1" d="M234.62,32.43a0,0,0,0,0,0,0,0,0,0,0,0,0,0,0,0,0,0,0,0,0A0,0,0,0,0,234.62,32.43Z"/><path class="cls-1" d="M48.56,40.52a0,0,0,0,0,0-.05,0,0,0,0,0-.08,0A0,0,0,0,0,48.56,40.52Z"/><path class="cls-1" d="M56.65,40.65a.18.18,0,1,0-.18-.18A.18.18,0,0,0,56.65,40.65Z"/><path class="cls-1" d="M64.74,40.78a.31.31,0,1,0-.31-.31A.31.31,0,0,0,64.74,40.78Z"/><path class="cls-1" d="M72.83,40.92a.45.45,0,1,0-.45-.45A.45.45,0,0,0,72.83,40.92Z"/><path class="cls-1" d="M80.92,41.05a.58.58,0,1,0-.58-.58A.58.58,0,0,0,80.92,41.05Z"/><path class="cls-1" d="M89,41.17a.7.7,0,0,0,.69-.7.7.7,0,0,0-1.39,0A.7.7,0,0,0,89,41.17Z"/><path class="cls-1" d="M97.1,41.26a.79.79,0,0,0,.78-.79.79.79,0,0,0-1.57,0A.79.79,0,0,0,97.1,41.26Z"/><path class="cls-1" d="M105.19,41.35a.88.88,0,1,0-.88-.88A.88.88,0,0,0,105.19,41.35Z"/><path class="cls-1" d="M113.28,41.41a.94.94,0,1,0-1-.94A.94.94,0,0,0,113.28,41.41Z"/><path class="cls-1" d="M121.37,41.48a1,1,0,1,0-1-1A1,1,0,0,0,121.37,41.48Z"/><path class="cls-1" d="M129.46,41.52a1.05,1.05,0,1,0-1.06-1.05A1,1,0,0,0,129.46,41.52Z"/><path class="cls-1" d="M137.55,41.55a1.08,1.08,0,1,0-1.08-1.08A1.07,1.07,0,0,0,137.55,41.55Z"/><path class="cls-1" d="M145.64,41.57a1.1,1.1,0,1,0-1.1-1.1A1.09,1.09,0,0,0,145.64,41.57Z"/><path class="cls-1" d="M153.73,41.55a1.08,1.08,0,1,0-1.08-1.08A1.07,1.07,0,0,0,153.73,41.55Z"/><path class="cls-1" d="M161.81,41.52a1.05,1.05,0,1,0-1.05-1.05A1.05,1.05,0,0,0,161.81,41.52Z"/><path class="cls-1" d="M169.9,41.48a1,1,0,1,0-1-1A1,1,0,0,0,169.9,41.48Z"/><path class="cls-1" d="M178,41.41a.94.94,0,1,0-.94-.94A.95.95,0,0,0,178,41.41Z"/><path class="cls-1" d="M186.08,41.35a.88.88,0,1,0,0-1.75.88.88,0,0,0,0,1.75Z"/><path class="cls-1" d="M194.17,41.26a.79.79,0,0,0,.79-.79.79.79,0,1,0-.79.79Z"/><path class="cls-1" d="M202.26,41.17a.7.7,0,0,0,.7-.7.7.7,0,1,0-.7.7Z"/><path class="cls-1" d="M210.35,41.05a.58.58,0,1,0,0-1.16.58.58,0,0,0,0,1.16Z"/><path class="cls-1" d="M218.44,40.94a.47.47,0,1,0-.47-.47A.47.47,0,0,0,218.44,40.94Z"/><path class="cls-1" d="M226.53,40.81a.34.34,0,1,0,0-.68.34.34,0,1,0,0,.68Z"/><path class="cls-1" d="M234.62,40.67a.2.2,0,1,0-.2-.2A.2.2,0,0,0,234.62,40.67Z"/><path class="cls-1" d="M242.71,40.52a0,0,0,0,0,0-.05,0,0,0,0,0,0,0,0,0,0,0,0,0,0A0,0,0,0,0,242.71,40.52Z"/><path class="cls-1" d="M40.47,48.61a.05.05,0,0,0,.05,0,0,0,0,0,0-.05,0,0,0,0,0,0,0,0S40.45,48.61,40.47,48.61Z"/><path class="cls-1" d="M48.56,48.76a.2.2,0,1,0-.2-.2A.2.2,0,0,0,48.56,48.76Z"/><path class="cls-1" d="M56.65,48.92a.36.36,0,1,0-.36-.36A.36.36,0,0,0,56.65,48.92Z"/><path class="cls-1" d="M64.74,49.05a.49.49,0,1,0-.49-.49A.49.49,0,0,0,64.74,49.05Z"/><path class="cls-1" d="M72.83,49.19a.63.63,0,1,0-.63-.63A.63.63,0,0,0,72.83,49.19Z"/><path class="cls-1" d="M80.92,49.32a.76.76,0,1,0-.76-.76A.76.76,0,0,0,80.92,49.32Z"/><path class="cls-1" d="M89,49.43a.87.87,0,1,0-.88-.87A.87.87,0,0,0,89,49.43Z"/><path class="cls-1" d="M97.1,49.55a1,1,0,1,0-1-1A1,1,0,0,0,97.1,49.55Z"/><path class="cls-1" d="M105.19,49.64a1.08,1.08,0,1,0-1.08-1.08A1.08,1.08,0,0,0,105.19,49.64Z"/><circle class="cls-1" cx="113.28" cy="48.56" r="1.17"/><path class="cls-1" d="M121.37,49.77a1.21,1.21,0,1,0-1.21-1.21A1.21,1.21,0,0,0,121.37,49.77Z"/><path class="cls-1" d="M129.46,49.84a1.28,1.28,0,1,0-1.28-1.28A1.27,1.27,0,0,0,129.46,49.84Z"/><path class="cls-1" d="M137.55,49.86a1.3,1.3,0,1,0-1.31-1.3A1.3,1.3,0,0,0,137.55,49.86Z"/><path class="cls-1" d="M145.64,49.86a1.3,1.3,0,1,0-1.31-1.3A1.3,1.3,0,0,0,145.64,49.86Z"/><path class="cls-1" d="M153.73,49.86a1.3,1.3,0,1,0-1.31-1.3A1.3,1.3,0,0,0,153.73,49.86Z"/><path class="cls-1" d="M161.81,49.84a1.28,1.28,0,1,0-1.27-1.28A1.28,1.28,0,0,0,161.81,49.84Z"/><path class="cls-1" d="M169.9,49.79a1.23,1.23,0,1,0-1.23-1.23A1.23,1.23,0,0,0,169.9,49.79Z"/><circle class="cls-1" cx="177.99" cy="48.56" r="1.17"/><path class="cls-1" d="M186.08,49.66a1.1,1.1,0,1,0-1.1-1.1A1.1,1.1,0,0,0,186.08,49.66Z"/><path class="cls-1" d="M194.17,49.55a1,1,0,1,0-1-1A1,1,0,0,0,194.17,49.55Z"/><path class="cls-1" d="M202.26,49.46a.9.9,0,1,0-.89-.9A.9.9,0,0,0,202.26,49.46Z"/><path class="cls-1" d="M210.35,49.35a.79.79,0,1,0-.78-.79A.79.79,0,0,0,210.35,49.35Z"/><path class="cls-1" d="M218.44,49.21a.65.65,0,1,0-.65-.65A.65.65,0,0,0,218.44,49.21Z"/><circle class="cls-1" cx="226.53" cy="48.56" r="0.52"/><path class="cls-1" d="M234.62,48.92a.36.36,0,1,0-.36-.36A.36.36,0,0,0,234.62,48.92Z"/><path class="cls-1" d="M242.71,48.76a.2.2,0,1,0-.2-.2A.2.2,0,0,0,242.71,48.76Z"/><path class="cls-1" d="M250.8,48.63a.07.07,0,1,0-.07-.07A.07.07,0,0,0,250.8,48.63Z"/><path class="cls-1" d="M32.38,56.67a0,0,0,0,0,0,0l0,0,0,0A0,0,0,0,0,32.38,56.67Z"/><path class="cls-1" d="M40.47,56.83a.18.18,0,1,0-.18-.18A.18.18,0,0,0,40.47,56.83Z"/><path class="cls-1" d="M48.56,57a.36.36,0,1,0-.36-.36A.36.36,0,0,0,48.56,57Z"/><circle class="cls-1" cx="56.65" cy="56.65" r="0.52"/><path class="cls-1" d="M64.74,57.32a.67.67,0,1,0-.67-.67A.67.67,0,0,0,64.74,57.32Z"/><path class="cls-1" d="M72.83,57.46a.81.81,0,1,0-.81-.81A.81.81,0,0,0,72.83,57.46Z"/><path class="cls-1" d="M80.92,57.59a.94.94,0,1,0-.94-.94A.94.94,0,0,0,80.92,57.59Z"/><path class="cls-1" d="M89,57.73a1.08,1.08,0,1,0-1.08-1.08A1.08,1.08,0,0,0,89,57.73Z"/><path class="cls-1" d="M97.1,57.84a1.19,1.19,0,1,0-1.19-1.19A1.19,1.19,0,0,0,97.1,57.84Z"/><path class="cls-1" d="M105.19,57.93a1.28,1.28,0,1,0-1.28-1.28A1.28,1.28,0,0,0,105.19,57.93Z"/><path class="cls-1" d="M113.28,58a1.37,1.37,0,1,0-1.37-1.37A1.37,1.37,0,0,0,113.28,58Z"/><path class="cls-1" d="M121.37,58.09a1.44,1.44,0,1,0-1.44-1.44A1.44,1.44,0,0,0,121.37,58.09Z"/><path class="cls-1" d="M129.46,58.13A1.48,1.48,0,1,0,128,56.65,1.48,1.48,0,0,0,129.46,58.13Z"/><path class="cls-1" d="M137.55,58.18A1.53,1.53,0,1,0,136,56.65,1.53,1.53,0,0,0,137.55,58.18Z"/><path class="cls-1" d="M145.64,58.18a1.53,1.53,0,1,0-1.53-1.53A1.53,1.53,0,0,0,145.64,58.18Z"/><path class="cls-1" d="M153.73,58.18a1.53,1.53,0,1,0-1.53-1.53A1.53,1.53,0,0,0,153.73,58.18Z"/><path class="cls-1" d="M161.81,58.13a1.48,1.48,0,1,0-1.48-1.48A1.49,1.49,0,0,0,161.81,58.13Z"/><path class="cls-1" d="M169.9,58.09a1.44,1.44,0,1,0-1.43-1.44A1.44,1.44,0,0,0,169.9,58.09Z"/><path class="cls-1" d="M178,58a1.37,1.37,0,1,0-1.36-1.37A1.37,1.37,0,0,0,178,58Z"/><path class="cls-1" d="M186.08,58a1.3,1.3,0,1,0-1.3-1.3A1.3,1.3,0,0,0,186.08,58Z"/><path class="cls-1" d="M194.17,57.84A1.19,1.19,0,1,0,193,56.65,1.19,1.19,0,0,0,194.17,57.84Z"/><path class="cls-1" d="M202.26,57.73a1.08,1.08,0,1,0-1.07-1.08A1.08,1.08,0,0,0,202.26,57.73Z"/><path class="cls-1" d="M210.35,57.61a1,1,0,1,0-1-1A1,1,0,0,0,210.35,57.61Z"/><path class="cls-1" d="M218.44,57.48a.83.83,0,1,0-.83-.83A.83.83,0,0,0,218.44,57.48Z"/><path class="cls-1" d="M226.53,57.32a.67.67,0,1,0-.67-.67A.67.67,0,0,0,226.53,57.32Z"/><circle class="cls-1" cx="234.62" cy="56.65" r="0.52"/><path class="cls-1" d="M242.71,57a.36.36,0,1,0-.36-.36A.36.36,0,0,0,242.71,57Z"/><path class="cls-1" d="M250.8,56.85a.2.2,0,1,0-.2-.2A.2.2,0,0,0,250.8,56.85Z"/><path class="cls-1" d="M258.89,56.69a0,0,0,0,0,0,0s0,0,0,0,0,0,0,0A0,0,0,0,0,258.89,56.69Z"/><path class="cls-1" d="M24.29,64.76a0,0,0,0,0,0,0,0,0,0,0,0,0,0l0,0A0,0,0,0,0,24.29,64.76Z"/><path class="cls-1" d="M32.38,64.87a.13.13,0,0,0,.14-.13.14.14,0,0,0-.14-.14.13.13,0,0,0-.13.14A.13.13,0,0,0,32.38,64.87Z"/><path class="cls-1" d="M40.47,65.05a.31.31,0,1,0-.31-.31A.31.31,0,0,0,40.47,65.05Z"/><path class="cls-1" d="M48.56,65.23a.49.49,0,1,0-.49-.49A.49.49,0,0,0,48.56,65.23Z"/><path class="cls-1" d="M56.65,65.41a.67.67,0,1,0-.67-.67A.67.67,0,0,0,56.65,65.41Z"/><path class="cls-1" d="M64.74,65.57a.83.83,0,1,0-.83-.83A.83.83,0,0,0,64.74,65.57Z"/><path class="cls-1" d="M72.83,65.73a1,1,0,0,0,0-2,1,1,0,0,0,0,2Z"/><path class="cls-1" d="M80.92,65.86a1.12,1.12,0,1,0-1.12-1.12A1.12,1.12,0,0,0,80.92,65.86Z"/><path class="cls-1" d="M89,66a1.26,1.26,0,1,0-1.26-1.26A1.26,1.26,0,0,0,89,66Z"/><path class="cls-1" d="M97.1,66.11a1.37,1.37,0,1,0-1.37-1.37A1.37,1.37,0,0,0,97.1,66.11Z"/><path class="cls-1" d="M105.19,66.22a1.48,1.48,0,1,0-1.48-1.48A1.48,1.48,0,0,0,105.19,66.22Z"/><path class="cls-1" d="M113.28,66.31a1.57,1.57,0,1,0-1.57-1.57A1.57,1.57,0,0,0,113.28,66.31Z"/><path class="cls-1" d="M121.37,66.4a1.66,1.66,0,1,0-1.66-1.66A1.66,1.66,0,0,0,121.37,66.4Z"/><path class="cls-1" d="M129.46,66.44a1.71,1.71,0,1,0-1.71-1.7A1.7,1.7,0,0,0,129.46,66.44Z"/><path class="cls-1" d="M137.55,66.49a1.75,1.75,0,1,0-1.75-1.75A1.75,1.75,0,0,0,137.55,66.49Z"/><path class="cls-1" d="M145.64,66.49a1.75,1.75,0,1,0-1.75-1.75A1.75,1.75,0,0,0,145.64,66.49Z"/><path class="cls-1" d="M153.73,66.49A1.75,1.75,0,1,0,152,64.74,1.74,1.74,0,0,0,153.73,66.49Z"/><path class="cls-1" d="M161.81,66.44a1.71,1.71,0,1,0-1.7-1.7A1.7,1.7,0,0,0,161.81,66.44Z"/><path class="cls-1" d="M169.9,66.4a1.66,1.66,0,1,0-1.66-1.66A1.66,1.66,0,0,0,169.9,66.4Z"/><path class="cls-1" d="M178,66.33a1.59,1.59,0,1,0-1.59-1.59A1.6,1.6,0,0,0,178,66.33Z"/><path class="cls-1" d="M186.08,66.24a1.5,1.5,0,1,0-1.5-1.5A1.51,1.51,0,0,0,186.08,66.24Z"/><path class="cls-1" d="M194.17,66.13a1.39,1.39,0,1,0-1.39-1.39A1.39,1.39,0,0,0,194.17,66.13Z"/><path class="cls-1" d="M202.26,66A1.28,1.28,0,1,0,201,64.74,1.28,1.28,0,0,0,202.26,66Z"/><path class="cls-1" d="M210.35,65.88a1.14,1.14,0,1,0-1.14-1.14A1.15,1.15,0,0,0,210.35,65.88Z"/><path class="cls-1" d="M218.44,65.73a1,1,0,1,0-1-1A1,1,0,0,0,218.44,65.73Z"/><path class="cls-1" d="M226.53,65.57a.83.83,0,1,0-.83-.83A.83.83,0,0,0,226.53,65.57Z"/><path class="cls-1" d="M234.62,65.41a.67.67,0,1,0-.67-.67A.67.67,0,0,0,234.62,65.41Z"/><circle class="cls-1" cx="242.71" cy="64.74" r="0.52"/><path class="cls-1" d="M250.8,65.08a.34.34,0,1,0-.34-.34A.34.34,0,0,0,250.8,65.08Z"/><path class="cls-1" d="M258.89,64.9a.16.16,0,1,0-.16-.16A.16.16,0,0,0,258.89,64.9Z"/><path class="cls-1" d="M267,64.76a0,0,0,0,0,0,0l0,0,0,0A0,0,0,0,0,267,64.76Z"/><path class="cls-1" d="M24.29,72.92a.09.09,0,1,0-.09-.09A.09.09,0,0,0,24.29,72.92Z"/><path class="cls-1" d="M32.38,73.1a.27.27,0,1,0-.27-.27A.27.27,0,0,0,32.38,73.1Z"/><path class="cls-1" d="M40.47,73.28a.45.45,0,1,0-.45-.45A.45.45,0,0,0,40.47,73.28Z"/><path class="cls-1" d="M48.56,73.46a.63.63,0,1,0-.63-.63A.63.63,0,0,0,48.56,73.46Z"/><path class="cls-1" d="M56.65,73.64a.81.81,0,1,0-.81-.81A.81.81,0,0,0,56.65,73.64Z"/><path class="cls-1" d="M64.74,73.82a1,1,0,0,0,0-2,1,1,0,0,0,0,2Z"/><path class="cls-1" d="M72.83,74a1.15,1.15,0,0,0,0-2.29,1.15,1.15,0,1,0,0,2.29Z"/><path class="cls-1" d="M80.92,74.13a1.3,1.3,0,1,0-1.3-1.3A1.3,1.3,0,0,0,80.92,74.13Z"/><path class="cls-1" d="M89,74.26a1.44,1.44,0,0,0,0-2.87,1.44,1.44,0,1,0,0,2.87Z"/><path class="cls-1" d="M97.1,74.4a1.57,1.57,0,1,0-1.57-1.57A1.57,1.57,0,0,0,97.1,74.4Z"/><circle class="cls-1" cx="105.19" cy="72.83" r="1.68"/><path class="cls-1" d="M113.28,74.62a1.8,1.8,0,1,0-1.8-1.79A1.79,1.79,0,0,0,113.28,74.62Z"/><path class="cls-1" d="M121.37,74.69a1.86,1.86,0,1,0-1.87-1.86A1.86,1.86,0,0,0,121.37,74.69Z"/><path class="cls-1" d="M129.46,74.76a1.93,1.93,0,1,0-1.93-1.93A1.94,1.94,0,0,0,129.46,74.76Z"/><path class="cls-1" d="M137.55,74.8a2,2,0,1,0-2-2A2,2,0,0,0,137.55,74.8Z"/><path class="cls-1" d="M145.64,74.8a2,2,0,1,0-2-2A2,2,0,0,0,145.64,74.8Z"/><path class="cls-1" d="M153.73,74.8a2,2,0,1,0-2-2A2,2,0,0,0,153.73,74.8Z"/><path class="cls-1" d="M161.81,74.76a1.93,1.93,0,1,0-1.92-1.93A1.93,1.93,0,0,0,161.81,74.76Z"/><path class="cls-1" d="M169.9,74.69A1.86,1.86,0,1,0,168,72.83,1.87,1.87,0,0,0,169.9,74.69Z"/><path class="cls-1" d="M178,74.62a1.8,1.8,0,1,0-1.79-1.79A1.8,1.8,0,0,0,178,74.62Z"/><circle class="cls-1" cx="186.08" cy="72.83" r="1.68"/><path class="cls-1" d="M194.17,74.4a1.57,1.57,0,1,0-1.57-1.57A1.57,1.57,0,0,0,194.17,74.4Z"/><path class="cls-1" d="M202.26,74.29a1.46,1.46,0,1,0-1.46-1.46A1.46,1.46,0,0,0,202.26,74.29Z"/><path class="cls-1" d="M210.35,74.13a1.3,1.3,0,1,0-1.3-1.3A1.3,1.3,0,0,0,210.35,74.13Z"/><circle class="cls-1" cx="218.44" cy="72.83" r="1.17"/><path class="cls-1" d="M226.53,73.82a1,1,0,1,0-1-1A1,1,0,0,0,226.53,73.82Z"/><path class="cls-1" d="M234.62,73.66a.83.83,0,1,0-.83-.83A.83.83,0,0,0,234.62,73.66Z"/><path class="cls-1" d="M242.71,73.48a.65.65,0,1,0-.65-.65A.65.65,0,0,0,242.71,73.48Z"/><path class="cls-1" d="M250.8,73.3a.47.47,0,1,0-.47-.47A.47.47,0,0,0,250.8,73.3Z"/><path class="cls-1" d="M258.89,73.12a.29.29,0,1,0-.29-.29A.29.29,0,0,0,258.89,73.12Z"/><path class="cls-1" d="M267,72.92a.09.09,0,1,0-.09-.09A.09.09,0,0,0,267,72.92Z"/><path class="cls-1" d="M16.2,80.94a0,0,0,0,0,0,0,0,0,0,0,0,0,0,0,0,0,0,0,0,0A0,0,0,0,0,16.2,80.9Z"/><path class="cls-1" d="M24.29,81.1a.18.18,0,1,0-.18-.18A.18.18,0,0,0,24.29,81.1Z"/><path class="cls-1" d="M32.38,81.3a.38.38,0,1,0-.38-.38A.38.38,0,0,0,32.38,81.3Z"/><path class="cls-1" d="M40.47,81.5a.58.58,0,1,0-.58-.58A.58.58,0,0,0,40.47,81.5Z"/><path class="cls-1" d="M48.56,81.68a.76.76,0,1,0-.76-.76A.76.76,0,0,0,48.56,81.68Z"/><path class="cls-1" d="M56.65,81.86a.94.94,0,1,0-.94-.94A.94.94,0,0,0,56.65,81.86Z"/><path class="cls-1" d="M64.74,82a1.12,1.12,0,1,0-1.12-1.12A1.12,1.12,0,0,0,64.74,82Z"/><path class="cls-1" d="M72.83,82.22a1.3,1.3,0,1,0-1.3-1.3A1.3,1.3,0,0,0,72.83,82.22Z"/><path class="cls-1" d="M80.92,82.38a1.46,1.46,0,1,0-1.46-1.46A1.47,1.47,0,0,0,80.92,82.38Z"/><path class="cls-1" d="M89,82.53a1.62,1.62,0,0,0,0-3.23,1.62,1.62,0,1,0,0,3.23Z"/><path class="cls-1" d="M97.1,82.67a1.75,1.75,0,1,0-1.75-1.75A1.76,1.76,0,0,0,97.1,82.67Z"/><path class="cls-1" d="M105.19,82.8a1.89,1.89,0,1,0-1.89-1.88A1.88,1.88,0,0,0,105.19,82.8Z"/><path class="cls-1" d="M113.28,82.89a2,2,0,1,0-2-2A2,2,0,0,0,113.28,82.89Z"/><path class="cls-1" d="M121.37,83a2.09,2.09,0,1,0-2.09-2.08A2.08,2.08,0,0,0,121.37,83Z"/><path class="cls-1" d="M129.46,83.05a2.13,2.13,0,1,0-2.13-2.13A2.13,2.13,0,0,0,129.46,83.05Z"/><path class="cls-1" d="M137.55,83.09a2.18,2.18,0,1,0-2.18-2.17A2.17,2.17,0,0,0,137.55,83.09Z"/><path class="cls-1" d="M145.64,83.12a2.2,2.2,0,1,0-2.2-2.2A2.2,2.2,0,0,0,145.64,83.12Z"/><path class="cls-1" d="M153.73,83.12a2.2,2.2,0,1,0-2.2-2.2A2.2,2.2,0,0,0,153.73,83.12Z"/><path class="cls-1" d="M161.81,83.07a2.16,2.16,0,1,0-2.15-2.15A2.16,2.16,0,0,0,161.81,83.07Z"/><path class="cls-1" d="M169.9,83a2.09,2.09,0,1,0-2.08-2.08A2.08,2.08,0,0,0,169.9,83Z"/><path class="cls-1" d="M178,82.91a2,2,0,1,0-2-2A2,2,0,0,0,178,82.91Z"/><path class="cls-1" d="M186.08,82.8a1.89,1.89,0,1,0-1.88-1.88A1.89,1.89,0,0,0,186.08,82.8Z"/><path class="cls-1" d="M194.17,82.69a1.77,1.77,0,1,0-1.77-1.77A1.78,1.78,0,0,0,194.17,82.69Z"/><path class="cls-1" d="M202.26,82.53a1.62,1.62,0,1,0-1.61-1.61A1.62,1.62,0,0,0,202.26,82.53Z"/><path class="cls-1" d="M210.35,82.4a1.48,1.48,0,1,0-1.48-1.48A1.48,1.48,0,0,0,210.35,82.4Z"/><path class="cls-1" d="M218.44,82.22a1.3,1.3,0,1,0-1.3-1.3A1.3,1.3,0,0,0,218.44,82.22Z"/><path class="cls-1" d="M226.53,82.06a1.15,1.15,0,1,0-1.14-1.14A1.15,1.15,0,0,0,226.53,82.06Z"/><path class="cls-1" d="M234.62,81.88a1,1,0,1,0-1-1A1,1,0,0,0,234.62,81.88Z"/><path class="cls-1" d="M242.71,81.7a.79.79,0,1,0-.78-.78A.78.78,0,0,0,242.71,81.7Z"/><path class="cls-1" d="M250.8,81.5a.58.58,0,1,0-.58-.58A.58.58,0,0,0,250.8,81.5Z"/><path class="cls-1" d="M258.89,81.32a.4.4,0,0,0,.4-.4.4.4,0,1,0-.8,0A.4.4,0,0,0,258.89,81.32Z"/><path class="cls-1" d="M267,81.12a.2.2,0,1,0-.2-.2A.2.2,0,0,0,267,81.12Z"/><path class="cls-1" d="M275.07,81a0,0,0,0,0,0,0,0,0,0,0,0,0,0,0,0,0,0,0-.05,0A0,0,0,0,0,275.07,81Z"/><path class="cls-1" d="M16.2,89.1a.09.09,0,1,0-.09-.09A.09.09,0,0,0,16.2,89.1Z"/><path class="cls-1" d="M24.29,89.3A.29.29,0,1,0,24,89,.29.29,0,0,0,24.29,89.3Z"/><path class="cls-1" d="M32.38,89.5a.49.49,0,0,0,.49-.49.49.49,0,1,0-1,0A.49.49,0,0,0,32.38,89.5Z"/><path class="cls-1" d="M40.47,89.7a.7.7,0,1,0-.69-.69A.69.69,0,0,0,40.47,89.7Z"/><path class="cls-1" d="M48.56,89.88a.88.88,0,1,0-.87-.87A.87.87,0,0,0,48.56,89.88Z"/><path class="cls-1" d="M56.65,90.09a1.08,1.08,0,0,0,0-2.16,1.08,1.08,0,0,0,0,2.16Z"/><path class="cls-1" d="M64.74,90.26A1.26,1.26,0,1,0,63.48,89,1.26,1.26,0,0,0,64.74,90.26Z"/><path class="cls-1" d="M72.83,90.44a1.44,1.44,0,0,0,0-2.87,1.44,1.44,0,1,0,0,2.87Z"/><path class="cls-1" d="M80.92,90.62a1.62,1.62,0,0,0,0-3.23,1.62,1.62,0,1,0,0,3.23Z"/><path class="cls-1" d="M89,90.78A1.77,1.77,0,1,0,87.24,89,1.77,1.77,0,0,0,89,90.78Z"/><path class="cls-1" d="M97.1,90.94A1.93,1.93,0,1,0,95.17,89,1.94,1.94,0,0,0,97.1,90.94Z"/><path class="cls-1" d="M105.19,91.07A2.07,2.07,0,1,0,103.12,89,2.06,2.06,0,0,0,105.19,91.07Z"/><path class="cls-1" d="M113.28,91.18A2.18,2.18,0,1,0,111.1,89,2.17,2.17,0,0,0,113.28,91.18Z"/><path class="cls-1" d="M121.37,91.3A2.29,2.29,0,1,0,119.08,89,2.29,2.29,0,0,0,121.37,91.3Z"/><path class="cls-1" d="M129.46,91.36A2.36,2.36,0,1,0,127.1,89,2.35,2.35,0,0,0,129.46,91.36Z"/><path class="cls-1" d="M137.55,91.41a2.4,2.4,0,1,0-2.4-2.4A2.41,2.41,0,0,0,137.55,91.41Z"/><path class="cls-1" d="M145.64,91.43A2.42,2.42,0,1,0,143.21,89,2.42,2.42,0,0,0,145.64,91.43Z"/><path class="cls-1" d="M153.73,91.41a2.4,2.4,0,1,0-2.41-2.4A2.41,2.41,0,0,0,153.73,91.41Z"/><path class="cls-1" d="M161.81,91.36A2.36,2.36,0,1,0,159.46,89,2.35,2.35,0,0,0,161.81,91.36Z"/><path class="cls-1" d="M169.9,91.3A2.29,2.29,0,1,0,167.62,89,2.29,2.29,0,0,0,169.9,91.3Z"/><path class="cls-1" d="M178,91.21A2.2,2.2,0,1,0,175.8,89,2.2,2.2,0,0,0,178,91.21Z"/><path class="cls-1" d="M186.08,91.07A2.07,2.07,0,1,0,184,89,2.07,2.07,0,0,0,186.08,91.07Z"/><path class="cls-1" d="M194.17,90.94A1.93,1.93,0,1,0,192.24,89,1.93,1.93,0,0,0,194.17,90.94Z"/><path class="cls-1" d="M202.26,90.8A1.8,1.8,0,1,0,200.47,89,1.8,1.8,0,0,0,202.26,90.8Z"/><path class="cls-1" d="M210.35,90.62A1.62,1.62,0,1,0,208.74,89,1.62,1.62,0,0,0,210.35,90.62Z"/><path class="cls-1" d="M218.44,90.47A1.46,1.46,0,1,0,217,89,1.46,1.46,0,0,0,218.44,90.47Z"/><path class="cls-1" d="M226.53,90.29A1.28,1.28,0,1,0,225.25,89,1.28,1.28,0,0,0,226.53,90.29Z"/><path class="cls-1" d="M234.62,90.11a1.1,1.1,0,1,0-1.1-1.1A1.1,1.1,0,0,0,234.62,90.11Z"/><path class="cls-1" d="M242.71,89.91a.9.9,0,1,0-.9-.9A.9.9,0,0,0,242.71,89.91Z"/><path class="cls-1" d="M250.8,89.7a.7.7,0,1,0-.7-.69A.7.7,0,0,0,250.8,89.7Z"/><circle class="cls-1" cx="258.89" cy="89.01" r="0.52"/><path class="cls-1" d="M267,89.32a.32.32,0,1,0-.31-.31A.31.31,0,0,0,267,89.32Z"/><path class="cls-1" d="M275.07,89.12A.11.11,0,1,0,275,89,.11.11,0,0,0,275.07,89.12Z"/><path class="cls-1" d="M8.11,97.12a0,0,0,0,0,0,0l0,0a0,0,0,0,0,0,0A0,0,0,0,0,8.11,97.08Z"/><path class="cls-1" d="M16.2,97.28A.18.18,0,1,0,16,97.1.18.18,0,0,0,16.2,97.28Z"/><path class="cls-1" d="M24.29,97.48a.38.38,0,1,0-.38-.38A.38.38,0,0,0,24.29,97.48Z"/><path class="cls-1" d="M32.38,97.68A.58.58,0,0,0,33,97.1a.58.58,0,1,0-1.16,0A.58.58,0,0,0,32.38,97.68Z"/><path class="cls-1" d="M40.47,97.88a.79.79,0,1,0-.78-.78A.78.78,0,0,0,40.47,97.88Z"/><path class="cls-1" d="M48.56,98.08a1,1,0,1,0-1-1A1,1,0,0,0,48.56,98.08Z"/><path class="cls-1" d="M56.65,98.29a1.19,1.19,0,1,0-1.19-1.19A1.19,1.19,0,0,0,56.65,98.29Z"/><path class="cls-1" d="M64.74,98.47a1.37,1.37,0,1,0-1.37-1.37A1.37,1.37,0,0,0,64.74,98.47Z"/><path class="cls-1" d="M72.83,98.67a1.57,1.57,0,1,0-1.57-1.57A1.57,1.57,0,0,0,72.83,98.67Z"/><path class="cls-1" d="M80.92,98.85a1.75,1.75,0,1,0-1.75-1.75A1.76,1.76,0,0,0,80.92,98.85Z"/><path class="cls-1" d="M89,99a1.93,1.93,0,1,0-1.93-1.93A1.94,1.94,0,0,0,89,99Z"/><path class="cls-1" d="M97.1,99.18A2.09,2.09,0,1,0,95,97.1,2.08,2.08,0,0,0,97.1,99.18Z"/><path class="cls-1" d="M105.19,99.34a2.25,2.25,0,1,0-2.25-2.24A2.24,2.24,0,0,0,105.19,99.34Z"/><path class="cls-1" d="M113.28,99.48a2.38,2.38,0,1,0-2.38-2.38A2.38,2.38,0,0,0,113.28,99.48Z"/><path class="cls-1" d="M121.37,99.59a2.49,2.49,0,1,0-2.49-2.49A2.5,2.5,0,0,0,121.37,99.59Z"/><path class="cls-1" d="M129.46,99.68a2.58,2.58,0,1,0-2.58-2.58A2.59,2.59,0,0,0,129.46,99.68Z"/><path class="cls-1" d="M137.55,99.72a2.63,2.63,0,1,0-2.63-2.62A2.62,2.62,0,0,0,137.55,99.72Z"/><path class="cls-1" d="M145.64,99.74A2.65,2.65,0,1,0,143,97.1,2.64,2.64,0,0,0,145.64,99.74Z"/><path class="cls-1" d="M153.73,99.72a2.63,2.63,0,1,0-2.63-2.62A2.62,2.62,0,0,0,153.73,99.72Z"/><path class="cls-1" d="M161.81,99.68a2.58,2.58,0,1,0-2.58-2.58A2.58,2.58,0,0,0,161.81,99.68Z"/><path class="cls-1" d="M169.9,99.59a2.49,2.49,0,1,0-2.49-2.49A2.49,2.49,0,0,0,169.9,99.59Z"/><path class="cls-1" d="M178,99.48a2.38,2.38,0,1,0-2.37-2.38A2.38,2.38,0,0,0,178,99.48Z"/><path class="cls-1" d="M186.08,99.34a2.25,2.25,0,1,0-2.24-2.24A2.24,2.24,0,0,0,186.08,99.34Z"/><path class="cls-1" d="M194.17,99.21a2.11,2.11,0,1,0-2.11-2.11A2.11,2.11,0,0,0,194.17,99.21Z"/><path class="cls-1" d="M202.26,99a1.93,1.93,0,1,0-1.93-1.93A1.93,1.93,0,0,0,202.26,99Z"/><path class="cls-1" d="M210.35,98.87a1.77,1.77,0,1,0-1.77-1.77A1.77,1.77,0,0,0,210.35,98.87Z"/><path class="cls-1" d="M218.44,98.69a1.59,1.59,0,1,0-1.59-1.59A1.59,1.59,0,0,0,218.44,98.69Z"/><path class="cls-1" d="M226.53,98.49a1.39,1.39,0,1,0-1.39-1.39A1.39,1.39,0,0,0,226.53,98.49Z"/><path class="cls-1" d="M234.62,98.31a1.21,1.21,0,1,0-1.21-1.21A1.21,1.21,0,0,0,234.62,98.31Z"/><path class="cls-1" d="M242.71,98.11a1,1,0,1,0-1-1A1,1,0,0,0,242.71,98.11Z"/><path class="cls-1" d="M250.8,97.91a.81.81,0,1,0-.81-.81A.81.81,0,0,0,250.8,97.91Z"/><path class="cls-1" d="M258.89,97.7a.61.61,0,1,0-.61-.6A.61.61,0,0,0,258.89,97.7Z"/><path class="cls-1" d="M267,97.5a.41.41,0,1,0-.4-.4A.4.4,0,0,0,267,97.5Z"/><path class="cls-1" d="M275.07,97.28a.18.18,0,1,0-.18-.18A.18.18,0,0,0,275.07,97.28Z"/><path class="cls-1" d="M283.16,97.12a0,0,0,0,0,0,0,0,0,0,0,0,0,0,0,0,0,0,0,0,0A0,0,0,0,0,283.16,97.08Z"/><path class="cls-1" d="M8.11,105.23a0,0,0,0,0,.05,0,0,0,0,0,0-.05,0,0,0,0,0,0,0,0A0,0,0,0,0,8.11,105.23Z"/><path class="cls-1" d="M16.2,105.43a.25.25,0,1,0,0-.49.25.25,0,1,0,0,.49Z"/><path class="cls-1" d="M24.29,105.64a.45.45,0,1,0-.45-.45A.45.45,0,0,0,24.29,105.64Z"/><path class="cls-1" d="M32.38,105.86a.67.67,0,0,0,.67-.67.67.67,0,1,0-1.34,0A.67.67,0,0,0,32.38,105.86Z"/><path class="cls-1" d="M40.47,106.06a.88.88,0,1,0-.87-.87A.88.88,0,0,0,40.47,106.06Z"/><path class="cls-1" d="M48.56,106.26a1.08,1.08,0,1,0-1.08-1.07A1.08,1.08,0,0,0,48.56,106.26Z"/><path class="cls-1" d="M56.65,106.47a1.28,1.28,0,1,0-1.28-1.28A1.28,1.28,0,0,0,56.65,106.47Z"/><path class="cls-1" d="M64.74,106.67a1.48,1.48,0,1,0-1.48-1.48A1.48,1.48,0,0,0,64.74,106.67Z"/><circle class="cls-1" cx="72.83" cy="105.19" r="1.68"/><path class="cls-1" d="M80.92,107.07A1.89,1.89,0,1,0,79,105.19,1.88,1.88,0,0,0,80.92,107.07Z"/><path class="cls-1" d="M89,107.25a2.07,2.07,0,1,0-2.07-2.06A2.06,2.06,0,0,0,89,107.25Z"/><path class="cls-1" d="M97.1,107.43a2.25,2.25,0,1,0-2.25-2.24A2.24,2.24,0,0,0,97.1,107.43Z"/><path class="cls-1" d="M105.19,107.59a2.4,2.4,0,1,0-2.4-2.4A2.41,2.41,0,0,0,105.19,107.59Z"/><path class="cls-1" d="M113.28,107.74a2.56,2.56,0,1,0-2.56-2.55A2.55,2.55,0,0,0,113.28,107.74Z"/><path class="cls-1" d="M121.37,107.86a2.67,2.67,0,1,0-2.67-2.67A2.68,2.68,0,0,0,121.37,107.86Z"/><path class="cls-1" d="M129.46,108a2.78,2.78,0,1,0-2.79-2.78A2.79,2.79,0,0,0,129.46,108Z"/><circle class="cls-1" cx="137.55" cy="105.19" r="2.85"/><path class="cls-1" d="M145.64,108.06a2.87,2.87,0,1,0-2.88-2.87A2.88,2.88,0,0,0,145.64,108.06Z"/><circle class="cls-1" cx="153.73" cy="105.19" r="2.85"/><path class="cls-1" d="M161.81,108a2.78,2.78,0,1,0-2.78-2.78A2.79,2.79,0,0,0,161.81,108Z"/><path class="cls-1" d="M169.9,107.88a2.69,2.69,0,1,0-2.69-2.69A2.7,2.7,0,0,0,169.9,107.88Z"/><path class="cls-1" d="M178,107.74a2.56,2.56,0,1,0-2.55-2.55A2.55,2.55,0,0,0,178,107.74Z"/><path class="cls-1" d="M186.08,107.61a2.43,2.43,0,1,0-2.42-2.42A2.42,2.42,0,0,0,186.08,107.61Z"/><path class="cls-1" d="M194.17,107.45a2.27,2.27,0,1,0-2.26-2.26A2.27,2.27,0,0,0,194.17,107.45Z"/><path class="cls-1" d="M202.26,107.27a2.09,2.09,0,1,0-2.08-2.08A2.09,2.09,0,0,0,202.26,107.27Z"/><path class="cls-1" d="M210.35,107.07a1.89,1.89,0,1,0-1.88-1.88A1.89,1.89,0,0,0,210.35,107.07Z"/><path class="cls-1" d="M218.44,106.89a1.71,1.71,0,1,0-1.7-1.7A1.71,1.71,0,0,0,218.44,106.89Z"/><path class="cls-1" d="M226.53,106.69a1.51,1.51,0,1,0-1.5-1.5A1.5,1.5,0,0,0,226.53,106.69Z"/><path class="cls-1" d="M234.62,106.49a1.3,1.3,0,1,0-1.3-1.3A1.3,1.3,0,0,0,234.62,106.49Z"/><path class="cls-1" d="M242.71,106.29a1.1,1.1,0,1,0-1.1-1.1A1.1,1.1,0,0,0,242.71,106.29Z"/><path class="cls-1" d="M250.8,106.08a.9.9,0,1,0-.9-.89A.89.89,0,0,0,250.8,106.08Z"/><path class="cls-1" d="M258.89,105.86a.67.67,0,0,0,.67-.67.67.67,0,1,0-1.34,0A.67.67,0,0,0,258.89,105.86Z"/><path class="cls-1" d="M267,105.66a.47.47,0,1,0-.47-.47A.47.47,0,0,0,267,105.66Z"/><path class="cls-1" d="M275.07,105.46a.27.27,0,1,0-.27-.27A.27.27,0,0,0,275.07,105.46Z"/><path class="cls-1" d="M283.16,105.25a.07.07,0,0,0,.07-.06.07.07,0,0,0-.14,0A.07.07,0,0,0,283.16,105.25Z"/><path class="cls-1" d="M8.11,113.37a.09.09,0,1,0-.09-.09A.09.09,0,0,0,8.11,113.37Z"/><path class="cls-1" d="M16.2,113.57a.29.29,0,1,0-.29-.29A.29.29,0,0,0,16.2,113.57Z"/><circle class="cls-1" cx="24.29" cy="113.28" r="0.52"/><path class="cls-1" d="M32.38,114a.74.74,0,1,0-.74-.74A.74.74,0,0,0,32.38,114Z"/><path class="cls-1" d="M40.47,114.22a.95.95,0,1,0-.94-.94A.94.94,0,0,0,40.47,114.22Z"/><circle class="cls-1" cx="48.56" cy="113.28" r="1.17"/><path class="cls-1" d="M56.65,114.65a1.37,1.37,0,1,0-1.37-1.37A1.37,1.37,0,0,0,56.65,114.65Z"/><path class="cls-1" d="M64.74,114.85a1.57,1.57,0,1,0-1.57-1.57A1.57,1.57,0,0,0,64.74,114.85Z"/><path class="cls-1" d="M72.83,115.07a1.8,1.8,0,1,0-1.8-1.79A1.79,1.79,0,0,0,72.83,115.07Z"/><path class="cls-1" d="M80.92,115.25a2,2,0,1,0-2-2A2,2,0,0,0,80.92,115.25Z"/><path class="cls-1" d="M89,115.45a2.18,2.18,0,1,0-2.18-2.17A2.17,2.17,0,0,0,89,115.45Z"/><path class="cls-1" d="M97.1,115.65a2.38,2.38,0,1,0-2.38-2.37A2.38,2.38,0,0,0,97.1,115.65Z"/><path class="cls-1" d="M105.19,115.83a2.56,2.56,0,1,0-2.56-2.55A2.55,2.55,0,0,0,105.19,115.83Z"/><path class="cls-1" d="M113.28,116a2.72,2.72,0,1,0-2.72-2.71A2.71,2.71,0,0,0,113.28,116Z"/><path class="cls-1" d="M121.37,116.15a2.87,2.87,0,1,0-2.87-2.87A2.88,2.88,0,0,0,121.37,116.15Z"/><path class="cls-1" d="M129.46,116.26a3,3,0,1,0-3-3A3,3,0,0,0,129.46,116.26Z"/><path class="cls-1" d="M137.55,116.33a3.05,3.05,0,1,0-3.06-3A3.06,3.06,0,0,0,137.55,116.33Z"/><path class="cls-1" d="M145.64,116.37a3.1,3.1,0,1,0-3.1-3.09A3.09,3.09,0,0,0,145.64,116.37Z"/><path class="cls-1" d="M153.73,116.35a3.08,3.08,0,1,0-3.08-3.07A3.08,3.08,0,0,0,153.73,116.35Z"/><path class="cls-1" d="M161.81,116.26a3,3,0,1,0-3-3A3,3,0,0,0,161.81,116.26Z"/><path class="cls-1" d="M169.9,116.15a2.87,2.87,0,1,0-2.87-2.87A2.88,2.88,0,0,0,169.9,116.15Z"/><path class="cls-1" d="M178,116a2.74,2.74,0,1,0-2.73-2.73A2.73,2.73,0,0,0,178,116Z"/><path class="cls-1" d="M186.08,115.86a2.58,2.58,0,1,0-2.58-2.58A2.58,2.58,0,0,0,186.08,115.86Z"/><path class="cls-1" d="M194.17,115.68a2.4,2.4,0,1,0-2.4-2.4A2.4,2.4,0,0,0,194.17,115.68Z"/><path class="cls-1" d="M202.26,115.48a2.2,2.2,0,1,0-2.2-2.2A2.2,2.2,0,0,0,202.26,115.48Z"/><path class="cls-1" d="M210.35,115.27a2,2,0,1,0-2-2A2,2,0,0,0,210.35,115.27Z"/><path class="cls-1" d="M218.44,115.07a1.8,1.8,0,1,0-1.79-1.79A1.8,1.8,0,0,0,218.44,115.07Z"/><path class="cls-1" d="M226.53,114.87a1.6,1.6,0,1,0-1.59-1.59A1.59,1.59,0,0,0,226.53,114.87Z"/><path class="cls-1" d="M234.62,114.67a1.39,1.39,0,1,0-1.39-1.39A1.39,1.39,0,0,0,234.62,114.67Z"/><path class="cls-1" d="M242.71,114.47a1.19,1.19,0,1,0-1.19-1.19A1.19,1.19,0,0,0,242.71,114.47Z"/><path class="cls-1" d="M250.8,114.24a1,1,0,1,0-1-1A1,1,0,0,0,250.8,114.24Z"/><path class="cls-1" d="M258.89,114a.76.76,0,0,0,.76-.76.76.76,0,1,0-1.52,0A.76.76,0,0,0,258.89,114Z"/><path class="cls-1" d="M267,113.82a.54.54,0,0,0,.54-.54.54.54,0,1,0-1.08,0A.54.54,0,0,0,267,113.82Z"/><path class="cls-1" d="M275.07,113.59a.32.32,0,1,0-.31-.31A.31.31,0,0,0,275.07,113.59Z"/><path class="cls-1" d="M283.16,113.39a.11.11,0,0,0,.11-.11.11.11,0,1,0-.22,0A.11.11,0,0,0,283.16,113.39Z"/><path class="cls-1" d="M8.11,121.5a.13.13,0,0,0,.14-.13.14.14,0,0,0-.14-.14.13.13,0,0,0-.13.14A.13.13,0,0,0,8.11,121.5Z"/><path class="cls-1" d="M16.2,121.73a.36.36,0,0,0,.36-.36.36.36,0,0,0-.72,0A.36.36,0,0,0,16.2,121.73Z"/><path class="cls-1" d="M24.29,121.93a.56.56,0,1,0-.56-.56A.56.56,0,0,0,24.29,121.93Z"/><path class="cls-1" d="M32.38,122.15a.79.79,0,1,0-.78-.78A.78.78,0,0,0,32.38,122.15Z"/><path class="cls-1" d="M40.47,122.38a1,1,0,1,0-1-1A1,1,0,0,0,40.47,122.38Z"/><path class="cls-1" d="M48.56,122.58a1.21,1.21,0,1,0-1.21-1.21A1.21,1.21,0,0,0,48.56,122.58Z"/><path class="cls-1" d="M56.65,122.8a1.44,1.44,0,1,0-1.44-1.43A1.44,1.44,0,0,0,56.65,122.8Z"/><path class="cls-1" d="M64.74,123a1.66,1.66,0,1,0-1.66-1.66A1.66,1.66,0,0,0,64.74,123Z"/><path class="cls-1" d="M72.83,123.23A1.87,1.87,0,1,0,71,121.37,1.86,1.86,0,0,0,72.83,123.23Z"/><path class="cls-1" d="M80.92,123.45a2.09,2.09,0,1,0-2.09-2.08A2.08,2.08,0,0,0,80.92,123.45Z"/><path class="cls-1" d="M89,123.65a2.29,2.29,0,1,0-2.29-2.28A2.29,2.29,0,0,0,89,123.65Z"/><path class="cls-1" d="M97.1,123.86a2.49,2.49,0,1,0-2.49-2.49A2.5,2.5,0,0,0,97.1,123.86Z"/><path class="cls-1" d="M105.19,124a2.67,2.67,0,1,0-2.67-2.67A2.68,2.68,0,0,0,105.19,124Z"/><path class="cls-1" d="M113.28,124.24a2.87,2.87,0,1,0-2.87-2.87A2.88,2.88,0,0,0,113.28,124.24Z"/><path class="cls-1" d="M121.37,124.39a3,3,0,1,0-3-3A3,3,0,0,0,121.37,124.39Z"/><path class="cls-1" d="M129.46,124.53a3.17,3.17,0,1,0-3.17-3.16A3.17,3.17,0,0,0,129.46,124.53Z"/><path class="cls-1" d="M137.55,124.64a3.28,3.28,0,1,0-3.28-3.27A3.27,3.27,0,0,0,137.55,124.64Z"/><path class="cls-1" d="M145.64,124.69a3.32,3.32,0,1,0-3.32-3.32A3.32,3.32,0,0,0,145.64,124.69Z"/><path class="cls-1" d="M153.73,124.64a3.28,3.28,0,1,0-3.28-3.27A3.27,3.27,0,0,0,153.73,124.64Z"/><path class="cls-1" d="M161.81,124.55a3.19,3.19,0,1,0-3.18-3.18A3.18,3.18,0,0,0,161.81,124.55Z"/><path class="cls-1" d="M169.9,124.42a3,3,0,1,0-3.05-3A3,3,0,0,0,169.9,124.42Z"/><path class="cls-1" d="M178,124.24a2.87,2.87,0,1,0-2.87-2.87A2.88,2.88,0,0,0,178,124.24Z"/><path class="cls-1" d="M186.08,124.06a2.7,2.7,0,1,0-2.69-2.69A2.7,2.7,0,0,0,186.08,124.06Z"/><path class="cls-1" d="M194.17,123.88a2.52,2.52,0,1,0-2.51-2.51A2.52,2.52,0,0,0,194.17,123.88Z"/><path class="cls-1" d="M202.26,123.68a2.31,2.31,0,1,0-2.31-2.31A2.31,2.31,0,0,0,202.26,123.68Z"/><path class="cls-1" d="M210.35,123.45a2.09,2.09,0,1,0-2.08-2.08A2.09,2.09,0,0,0,210.35,123.45Z"/><path class="cls-1" d="M218.44,123.25a1.89,1.89,0,1,0-1.88-1.88A1.89,1.89,0,0,0,218.44,123.25Z"/><circle class="cls-1" cx="226.53" cy="121.37" r="1.68"/><path class="cls-1" d="M234.62,122.82a1.46,1.46,0,1,0-1.46-1.45A1.45,1.45,0,0,0,234.62,122.82Z"/><path class="cls-1" d="M242.71,122.6a1.24,1.24,0,1,0-1.23-1.23A1.23,1.23,0,0,0,242.71,122.6Z"/><path class="cls-1" d="M250.8,122.4a1,1,0,1,0-1-1A1,1,0,0,0,250.8,122.4Z"/><path class="cls-1" d="M258.89,122.17a.81.81,0,1,0-.81-.8A.8.8,0,0,0,258.89,122.17Z"/><path class="cls-1" d="M267,122a.59.59,0,1,0-.58-.58A.58.58,0,0,0,267,122Z"/><path class="cls-1" d="M275.07,121.75a.38.38,0,1,0-.38-.38A.38.38,0,0,0,275.07,121.75Z"/><path class="cls-1" d="M283.16,121.52a.16.16,0,0,0,.16-.15.16.16,0,0,0-.32,0A.16.16,0,0,0,283.16,121.52Z"/><path class="cls-1" d="M8.11,129.61a.16.16,0,0,0,.16-.15.16.16,0,0,0-.16-.16.16.16,0,0,0-.15.16A.15.15,0,0,0,8.11,129.61Z"/><path class="cls-1" d="M16.2,129.84a.38.38,0,0,0,.38-.38.38.38,0,1,0-.76,0A.38.38,0,0,0,16.2,129.84Z"/><path class="cls-1" d="M24.29,130.06a.61.61,0,1,0-.6-.6A.6.6,0,0,0,24.29,130.06Z"/><path class="cls-1" d="M32.38,130.29a.83.83,0,1,0-.83-.83A.83.83,0,0,0,32.38,130.29Z"/><path class="cls-1" d="M40.47,130.51a1.06,1.06,0,1,0-1-1A1,1,0,0,0,40.47,130.51Z"/><path class="cls-1" d="M48.56,130.73a1.28,1.28,0,1,0-1.28-1.27A1.27,1.27,0,0,0,48.56,130.73Z"/><path class="cls-1" d="M56.65,130.94a1.48,1.48,0,1,0-1.48-1.48A1.48,1.48,0,0,0,56.65,130.94Z"/><path class="cls-1" d="M64.74,131.16a1.71,1.71,0,1,0-1.71-1.7A1.7,1.7,0,0,0,64.74,131.16Z"/><path class="cls-1" d="M72.83,131.39a1.93,1.93,0,1,0-1.93-1.93A1.94,1.94,0,0,0,72.83,131.39Z"/><path class="cls-1" d="M80.92,131.59a2.13,2.13,0,1,0-2.13-2.13A2.13,2.13,0,0,0,80.92,131.59Z"/><path class="cls-1" d="M89,131.81a2.36,2.36,0,1,0-2.36-2.35A2.35,2.35,0,0,0,89,131.81Z"/><path class="cls-1" d="M97.1,132a2.58,2.58,0,1,0-2.58-2.58A2.59,2.59,0,0,0,97.1,132Z"/><path class="cls-1" d="M105.19,132.24a2.79,2.79,0,1,0-2.78-2.78A2.79,2.79,0,0,0,105.19,132.24Z"/><path class="cls-1" d="M113.28,132.44a3,3,0,1,0-3-3A3,3,0,0,0,113.28,132.44Z"/><path class="cls-1" d="M121.37,132.62a3.17,3.17,0,1,0-3.17-3.16A3.17,3.17,0,0,0,121.37,132.62Z"/><path class="cls-1" d="M129.46,132.8a3.35,3.35,0,1,0-3.35-3.34A3.35,3.35,0,0,0,129.46,132.8Z"/><path class="cls-1" d="M137.55,132.93a3.48,3.48,0,1,0-3.48-3.47A3.47,3.47,0,0,0,137.55,132.93Z"/><path class="cls-1" d="M145.64,133a3.53,3.53,0,1,0-3.53-3.52A3.53,3.53,0,0,0,145.64,133Z"/><path class="cls-1" d="M153.73,132.93a3.48,3.48,0,1,0-3.48-3.47A3.47,3.47,0,0,0,153.73,132.93Z"/><path class="cls-1" d="M161.81,132.82a3.37,3.37,0,1,0-3.36-3.36A3.37,3.37,0,0,0,161.81,132.82Z"/><path class="cls-1" d="M169.9,132.64a3.19,3.19,0,1,0-3.18-3.18A3.18,3.18,0,0,0,169.9,132.64Z"/><path class="cls-1" d="M178,132.46a3,3,0,1,0-3-3A3,3,0,0,0,178,132.46Z"/><path class="cls-1" d="M186.08,132.26a2.81,2.81,0,1,0-2.8-2.8A2.81,2.81,0,0,0,186.08,132.26Z"/><path class="cls-1" d="M194.17,132a2.58,2.58,0,1,0-2.58-2.58A2.58,2.58,0,0,0,194.17,132Z"/><path class="cls-1" d="M202.26,131.83a2.38,2.38,0,1,0-2.38-2.37A2.37,2.37,0,0,0,202.26,131.83Z"/><path class="cls-1" d="M210.35,131.61a2.16,2.16,0,1,0-2.15-2.15A2.16,2.16,0,0,0,210.35,131.61Z"/><path class="cls-1" d="M218.44,131.41a2,2,0,1,0-1.95-1.95A2,2,0,0,0,218.44,131.41Z"/><path class="cls-1" d="M226.53,131.18a1.73,1.73,0,1,0-1.73-1.72A1.72,1.72,0,0,0,226.53,131.18Z"/><path class="cls-1" d="M234.62,131a1.51,1.51,0,1,0-1.5-1.5A1.5,1.5,0,0,0,234.62,131Z"/><path class="cls-1" d="M242.71,130.73a1.28,1.28,0,1,0-1.28-1.27A1.27,1.27,0,0,0,242.71,130.73Z"/><path class="cls-1" d="M250.8,130.53a1.08,1.08,0,1,0-1.08-1.07A1.08,1.08,0,0,0,250.8,130.53Z"/><path class="cls-1" d="M258.89,130.31a.85.85,0,0,0,.85-.85.85.85,0,1,0-1.7,0A.85.85,0,0,0,258.89,130.31Z"/><path class="cls-1" d="M267,130.08a.63.63,0,1,0-.63-.62A.63.63,0,0,0,267,130.08Z"/><path class="cls-1" d="M275.07,129.86a.41.41,0,1,0-.4-.4A.4.4,0,0,0,275.07,129.86Z"/><path class="cls-1" d="M283.16,129.64a.18.18,0,1,0-.18-.18A.18.18,0,0,0,283.16,129.64Z"/><path class="cls-1" d="M291.25,129.48l0,0s0,0,0,0,0,0,0,0Z"/><path class="cls-1" d="M0,137.57l0,0s0,0,0,0,0,0,0,0Z"/><path class="cls-1" d="M8.11,137.73a.19.19,0,0,0,.18-.18.18.18,0,0,0-.36,0A.19.19,0,0,0,8.11,137.73Z"/><path class="cls-1" d="M16.2,138a.41.41,0,1,0,0-.81.41.41,0,0,0,0,.81Z"/><path class="cls-1" d="M24.29,138.17a.63.63,0,1,0-.63-.62A.63.63,0,0,0,24.29,138.17Z"/><path class="cls-1" d="M32.38,138.4a.85.85,0,0,0,.85-.85.85.85,0,1,0-1.7,0A.85.85,0,0,0,32.38,138.4Z"/><path class="cls-1" d="M40.47,138.62a1.08,1.08,0,1,0-1.08-1.07A1.07,1.07,0,0,0,40.47,138.62Z"/><path class="cls-1" d="M48.56,138.85a1.31,1.31,0,1,0-1.3-1.3A1.3,1.3,0,0,0,48.56,138.85Z"/><path class="cls-1" d="M56.65,139.07a1.53,1.53,0,1,0-1.53-1.52A1.53,1.53,0,0,0,56.65,139.07Z"/><path class="cls-1" d="M64.74,139.3A1.75,1.75,0,1,0,63,137.55,1.75,1.75,0,0,0,64.74,139.3Z"/><path class="cls-1" d="M72.83,139.52a2,2,0,1,0-2-2A2,2,0,0,0,72.83,139.52Z"/><path class="cls-1" d="M80.92,139.72a2.18,2.18,0,1,0-2.18-2.17A2.17,2.17,0,0,0,80.92,139.72Z"/><path class="cls-1" d="M89,140a2.4,2.4,0,1,0-2.4-2.4A2.41,2.41,0,0,0,89,140Z"/><path class="cls-1" d="M97.1,140.17a2.63,2.63,0,1,0-2.63-2.62A2.62,2.62,0,0,0,97.1,140.17Z"/><circle class="cls-1" cx="105.19" cy="137.55" r="2.85"/><path class="cls-1" d="M113.28,140.6a3.06,3.06,0,1,0-3-3A3.06,3.06,0,0,0,113.28,140.6Z"/><path class="cls-1" d="M121.37,140.82a3.28,3.28,0,1,0-3.28-3.27A3.27,3.27,0,0,0,121.37,140.82Z"/><path class="cls-1" d="M129.46,141a3.48,3.48,0,1,0-3.48-3.47A3.47,3.47,0,0,0,129.46,141Z"/><path class="cls-1" d="M137.55,141.16a3.62,3.62,0,1,0-3.62-3.61A3.61,3.61,0,0,0,137.55,141.16Z"/><path class="cls-1" d="M145.64,141.16a3.62,3.62,0,1,0-3.62-3.61A3.61,3.61,0,0,0,145.64,141.16Z"/><path class="cls-1" d="M153.73,141.16a3.62,3.62,0,1,0-3.62-3.61A3.61,3.61,0,0,0,153.73,141.16Z"/><circle class="cls-1" cx="161.81" cy="137.55" r="3.5"/><path class="cls-1" d="M169.9,140.84a3.3,3.3,0,1,0-3.29-3.29A3.29,3.29,0,0,0,169.9,140.84Z"/><path class="cls-1" d="M178,140.62a3.08,3.08,0,1,0-3.07-3.07A3.08,3.08,0,0,0,178,140.62Z"/><path class="cls-1" d="M186.08,140.42a2.88,2.88,0,1,0-2.87-2.87A2.87,2.87,0,0,0,186.08,140.42Z"/><path class="cls-1" d="M194.17,140.19a2.65,2.65,0,1,0-2.64-2.64A2.65,2.65,0,0,0,194.17,140.19Z"/><path class="cls-1" d="M202.26,140a2.43,2.43,0,1,0-2.42-2.42A2.43,2.43,0,0,0,202.26,140Z"/><path class="cls-1" d="M210.35,139.74a2.2,2.2,0,1,0-2.2-2.19A2.19,2.19,0,0,0,210.35,139.74Z"/><path class="cls-1" d="M218.44,139.52a2,2,0,1,0-2-2A2,2,0,0,0,218.44,139.52Z"/><path class="cls-1" d="M226.53,139.32a1.78,1.78,0,1,0-1.77-1.77A1.77,1.77,0,0,0,226.53,139.32Z"/><path class="cls-1" d="M234.62,139.09a1.55,1.55,0,1,0-1.55-1.54A1.54,1.54,0,0,0,234.62,139.09Z"/><path class="cls-1" d="M242.71,138.87a1.33,1.33,0,1,0-1.32-1.32A1.32,1.32,0,0,0,242.71,138.87Z"/><path class="cls-1" d="M250.8,138.64a1.1,1.1,0,1,0-1.1-1.09A1.09,1.09,0,0,0,250.8,138.64Z"/><path class="cls-1" d="M258.89,138.42a.88.88,0,0,0,0-1.75.88.88,0,1,0,0,1.75Z"/><path class="cls-1" d="M267,138.2a.65.65,0,1,0-.65-.65A.65.65,0,0,0,267,138.2Z"/><path class="cls-1" d="M275.07,138a.43.43,0,1,0,0-.85.43.43,0,1,0,0,.85Z"/><path class="cls-1" d="M283.16,137.75a.2.2,0,0,0,.2-.2.2.2,0,1,0-.4,0A.2.2,0,0,0,283.16,137.75Z"/><path class="cls-1" d="M291.25,137.57l0,0s0,0,0,0,0,0,0,0Z"/><path class="cls-1" d="M0,145.66a0,0,0,0,0,0,0s0,0,0,0,0,0,0,0A0,0,0,0,0,0,145.66Z"/><path class="cls-1" d="M8.11,145.84a.2.2,0,0,0,.2-.2.2.2,0,1,0-.4,0A.2.2,0,0,0,8.11,145.84Z"/><path class="cls-1" d="M16.2,146.06a.43.43,0,1,0-.42-.42A.42.42,0,0,0,16.2,146.06Z"/><path class="cls-1" d="M24.29,146.29a.66.66,0,1,0-.65-.65A.66.66,0,0,0,24.29,146.29Z"/><path class="cls-1" d="M32.38,146.51a.88.88,0,1,0-.87-.87A.88.88,0,0,0,32.38,146.51Z"/><path class="cls-1" d="M40.47,146.73a1.1,1.1,0,1,0-1.1-1.09A1.09,1.09,0,0,0,40.47,146.73Z"/><path class="cls-1" d="M48.56,146.94a1.31,1.31,0,1,0-1.3-1.3A1.3,1.3,0,0,0,48.56,146.94Z"/><path class="cls-1" d="M56.65,147.16a1.53,1.53,0,1,0-1.53-1.52A1.53,1.53,0,0,0,56.65,147.16Z"/><path class="cls-1" d="M64.74,147.39A1.75,1.75,0,1,0,63,145.64,1.75,1.75,0,0,0,64.74,147.39Z"/><path class="cls-1" d="M72.83,147.61a2,2,0,1,0-2-2A2,2,0,0,0,72.83,147.61Z"/><path class="cls-1" d="M80.92,147.83a2.2,2.2,0,1,0-2.2-2.19A2.2,2.2,0,0,0,80.92,147.83Z"/><path class="cls-1" d="M89,148.06a2.43,2.43,0,1,0-2.42-2.42A2.42,2.42,0,0,0,89,148.06Z"/><path class="cls-1" d="M97.1,148.28a2.65,2.65,0,1,0-2.65-2.64A2.64,2.64,0,0,0,97.1,148.28Z"/><path class="cls-1" d="M105.19,148.51a2.88,2.88,0,1,0-2.87-2.87A2.88,2.88,0,0,0,105.19,148.51Z"/><path class="cls-1" d="M113.28,148.73a3.1,3.1,0,1,0-3.1-3.09A3.09,3.09,0,0,0,113.28,148.73Z"/><path class="cls-1" d="M121.37,149a3.32,3.32,0,1,0-3.32-3.32A3.32,3.32,0,0,0,121.37,149Z"/><path class="cls-1" d="M129.46,149.16a3.53,3.53,0,1,0-3.53-3.52A3.53,3.53,0,0,0,129.46,149.16Z"/><path class="cls-1" d="M137.55,149.25a3.62,3.62,0,1,0-3.62-3.61A3.61,3.61,0,0,0,137.55,149.25Z"/><path class="cls-1" d="M145.64,149.25a3.62,3.62,0,1,0-3.62-3.61A3.61,3.61,0,0,0,145.64,149.25Z"/><path class="cls-1" d="M153.73,149.25a3.62,3.62,0,1,0-3.62-3.61A3.61,3.61,0,0,0,153.73,149.25Z"/><path class="cls-1" d="M161.81,149.18a3.55,3.55,0,1,0-3.54-3.54A3.55,3.55,0,0,0,161.81,149.18Z"/><path class="cls-1" d="M169.9,149a3.35,3.35,0,1,0-3.34-3.34A3.35,3.35,0,0,0,169.9,149Z"/><path class="cls-1" d="M178,148.75a3.12,3.12,0,1,0-3.11-3.11A3.11,3.11,0,0,0,178,148.75Z"/><path class="cls-1" d="M186.08,148.53a2.9,2.9,0,1,0-2.89-2.89A2.9,2.9,0,0,0,186.08,148.53Z"/><path class="cls-1" d="M194.17,148.3a2.67,2.67,0,1,0-2.67-2.66A2.66,2.66,0,0,0,194.17,148.3Z"/><path class="cls-1" d="M202.26,148.08a2.45,2.45,0,1,0-2.44-2.44A2.45,2.45,0,0,0,202.26,148.08Z"/><path class="cls-1" d="M210.35,147.86a2.23,2.23,0,1,0-2.22-2.22A2.22,2.22,0,0,0,210.35,147.86Z"/><path class="cls-1" d="M218.44,147.63a2,2,0,1,0-2-2A2,2,0,0,0,218.44,147.63Z"/><path class="cls-1" d="M226.53,147.41a1.78,1.78,0,1,0-1.77-1.77A1.77,1.77,0,0,0,226.53,147.41Z"/><path class="cls-1" d="M234.62,147.18a1.55,1.55,0,1,0-1.55-1.54A1.54,1.54,0,0,0,234.62,147.18Z"/><path class="cls-1" d="M242.71,147a1.33,1.33,0,1,0-1.32-1.32A1.32,1.32,0,0,0,242.71,147Z"/><path class="cls-1" d="M250.8,146.73a1.1,1.1,0,1,0-1.1-1.09A1.09,1.09,0,0,0,250.8,146.73Z"/><path class="cls-1" d="M258.89,146.51a.88.88,0,0,0,0-1.75.88.88,0,1,0,0,1.75Z"/><path class="cls-1" d="M267,146.29a.66.66,0,1,0-.65-.65A.66.66,0,0,0,267,146.29Z"/><path class="cls-1" d="M275.07,146.08a.45.45,0,1,0-.45-.44A.45.45,0,0,0,275.07,146.08Z"/><path class="cls-1" d="M283.16,145.86a.22.22,0,0,0,.22-.22.23.23,0,1,0-.22.22Z"/><path class="cls-1" d="M291.25,145.66a0,0,0,0,0,0,0s0,0,0,0,0,0,0,0A0,0,0,0,0,291.25,145.66Z"/><path class="cls-1" d="M0,153.75a0,0,0,0,0,0,0s0,0,0,0,0,0,0,0A0,0,0,0,0,0,153.75Z"/><path class="cls-1" d="M8.11,153.9a.18.18,0,0,0,.18-.17.18.18,0,0,0-.36,0A.18.18,0,0,0,8.11,153.9Z"/><path class="cls-1" d="M16.2,154.13a.41.41,0,1,0,0-.81.41.41,0,0,0,0,.81Z"/><path class="cls-1" d="M24.29,154.35a.63.63,0,1,0-.63-.62A.63.63,0,0,0,24.29,154.35Z"/><path class="cls-1" d="M32.38,154.58a.86.86,0,1,0-.85-.85A.85.85,0,0,0,32.38,154.58Z"/><path class="cls-1" d="M40.47,154.8a1.08,1.08,0,1,0-1.08-1.07A1.07,1.07,0,0,0,40.47,154.8Z"/><path class="cls-1" d="M48.56,155a1.31,1.31,0,1,0-1.3-1.3A1.3,1.3,0,0,0,48.56,155Z"/><path class="cls-1" d="M56.65,155.25a1.53,1.53,0,1,0-1.53-1.52A1.53,1.53,0,0,0,56.65,155.25Z"/><path class="cls-1" d="M64.74,155.47A1.75,1.75,0,1,0,63,153.73,1.74,1.74,0,0,0,64.74,155.47Z"/><path class="cls-1" d="M72.83,155.7a2,2,0,1,0-2-2A2,2,0,0,0,72.83,155.7Z"/><path class="cls-1" d="M80.92,155.92a2.2,2.2,0,1,0-2.2-2.19A2.2,2.2,0,0,0,80.92,155.92Z"/><path class="cls-1" d="M89,156.13a2.41,2.41,0,1,0-2.4-2.4A2.41,2.41,0,0,0,89,156.13Z"/><path class="cls-1" d="M97.1,156.35a2.63,2.63,0,1,0-2.63-2.62A2.62,2.62,0,0,0,97.1,156.35Z"/><circle class="cls-1" cx="105.19" cy="153.73" r="2.85"/><path class="cls-1" d="M113.28,156.8a3.08,3.08,0,1,0-3.08-3.07A3.08,3.08,0,0,0,113.28,156.8Z"/><path class="cls-1" d="M121.37,157a3.28,3.28,0,1,0-3.28-3.27A3.27,3.27,0,0,0,121.37,157Z"/><path class="cls-1" d="M129.46,157.2a3.48,3.48,0,1,0-3.48-3.47A3.47,3.47,0,0,0,129.46,157.2Z"/><path class="cls-1" d="M137.55,157.34a3.62,3.62,0,1,0-3.62-3.61A3.61,3.61,0,0,0,137.55,157.34Z"/><path class="cls-1" d="M145.64,157.34a3.62,3.62,0,1,0-3.62-3.61A3.61,3.61,0,0,0,145.64,157.34Z"/><path class="cls-1" d="M153.73,157.34a3.62,3.62,0,1,0-3.62-3.61A3.61,3.61,0,0,0,153.73,157.34Z"/><circle class="cls-1" cx="161.81" cy="153.73" r="3.5"/><path class="cls-1" d="M169.9,157a3.3,3.3,0,1,0-3.29-3.29A3.29,3.29,0,0,0,169.9,157Z"/><path class="cls-1" d="M178,156.82a3.1,3.1,0,1,0-3.09-3.09A3.1,3.1,0,0,0,178,156.82Z"/><path class="cls-1" d="M186.08,156.6a2.88,2.88,0,1,0-2.87-2.87A2.87,2.87,0,0,0,186.08,156.6Z"/><path class="cls-1" d="M194.17,156.37a2.65,2.65,0,1,0-2.64-2.64A2.65,2.65,0,0,0,194.17,156.37Z"/><path class="cls-1" d="M202.26,156.15a2.43,2.43,0,1,0-2.42-2.42A2.43,2.43,0,0,0,202.26,156.15Z"/><path class="cls-1" d="M210.35,155.92a2.2,2.2,0,1,0-2.2-2.19A2.19,2.19,0,0,0,210.35,155.92Z"/><path class="cls-1" d="M218.44,155.72a2,2,0,1,0-2-2A2,2,0,0,0,218.44,155.72Z"/><path class="cls-1" d="M226.53,155.5a1.78,1.78,0,1,0-1.77-1.77A1.77,1.77,0,0,0,226.53,155.5Z"/><path class="cls-1" d="M234.62,155.27a1.55,1.55,0,1,0-1.55-1.54A1.54,1.54,0,0,0,234.62,155.27Z"/><path class="cls-1" d="M242.71,155.05a1.33,1.33,0,1,0-1.32-1.32A1.32,1.32,0,0,0,242.71,155.05Z"/><path class="cls-1" d="M250.8,154.82a1.1,1.1,0,1,0-1.1-1.09A1.09,1.09,0,0,0,250.8,154.82Z"/><path class="cls-1" d="M258.89,154.6a.88.88,0,0,0,0-1.75.88.88,0,1,0,0,1.75Z"/><path class="cls-1" d="M267,154.38a.66.66,0,1,0-.65-.65A.66.66,0,0,0,267,154.38Z"/><path class="cls-1" d="M275.07,154.15a.43.43,0,1,0,0-.85.43.43,0,1,0,0,.85Z"/><path class="cls-1" d="M283.16,153.93a.2.2,0,0,0,.2-.2.2.2,0,1,0-.4,0A.2.2,0,0,0,283.16,153.93Z"/><path class="cls-1" d="M291.25,153.75a0,0,0,0,0,0,0s0,0,0,0,0,0,0,0A0,0,0,0,0,291.25,153.75Z"/><path class="cls-1" d="M8.11,162a.16.16,0,0,0,.16-.16.16.16,0,0,0-.16-.15.15.15,0,0,0-.15.15A.16.16,0,0,0,8.11,162Z"/><path class="cls-1" d="M16.2,162.2a.39.39,0,1,0-.38-.39A.38.38,0,0,0,16.2,162.2Z"/><path class="cls-1" d="M24.29,162.42a.61.61,0,1,0-.6-.61A.61.61,0,0,0,24.29,162.42Z"/><path class="cls-1" d="M32.38,162.64a.83.83,0,1,0-.83-.83A.83.83,0,0,0,32.38,162.64Z"/><path class="cls-1" d="M40.47,162.87a1.06,1.06,0,1,0-1-1.06A1.05,1.05,0,0,0,40.47,162.87Z"/><path class="cls-1" d="M48.56,163.09a1.28,1.28,0,1,0-1.28-1.28A1.28,1.28,0,0,0,48.56,163.09Z"/><path class="cls-1" d="M56.65,163.3a1.49,1.49,0,1,0-1.48-1.49A1.49,1.49,0,0,0,56.65,163.3Z"/><path class="cls-1" d="M64.74,163.52A1.71,1.71,0,1,0,63,161.81,1.7,1.7,0,0,0,64.74,163.52Z"/><path class="cls-1" d="M72.83,163.74a1.93,1.93,0,1,0-1.93-1.93A1.93,1.93,0,0,0,72.83,163.74Z"/><path class="cls-1" d="M80.92,164a2.16,2.16,0,1,0-2.16-2.16A2.16,2.16,0,0,0,80.92,164Z"/><path class="cls-1" d="M89,164.17a2.36,2.36,0,1,0-2.36-2.36A2.35,2.35,0,0,0,89,164.17Z"/><path class="cls-1" d="M97.1,164.39a2.58,2.58,0,1,0-2.58-2.58A2.58,2.58,0,0,0,97.1,164.39Z"/><path class="cls-1" d="M105.19,164.6a2.79,2.79,0,1,0-2.78-2.79A2.79,2.79,0,0,0,105.19,164.6Z"/><path class="cls-1" d="M113.28,164.8a3,3,0,1,0-3-3A3,3,0,0,0,113.28,164.8Z"/><path class="cls-1" d="M121.37,165a3.19,3.19,0,1,0-3.19-3.19A3.18,3.18,0,0,0,121.37,165Z"/><path class="cls-1" d="M129.46,165.18a3.37,3.37,0,1,0-3.37-3.37A3.37,3.37,0,0,0,129.46,165.18Z"/><circle class="cls-1" cx="137.55" cy="161.81" r="3.5"/><path class="cls-1" d="M145.64,165.36a3.55,3.55,0,1,0-3.55-3.55A3.55,3.55,0,0,0,145.64,165.36Z"/><circle class="cls-1" cx="153.73" cy="161.81" r="3.5"/><path class="cls-1" d="M161.81,165.2a3.39,3.39,0,1,0-3.38-3.39A3.38,3.38,0,0,0,161.81,165.2Z"/><path class="cls-1" d="M169.9,165a3.21,3.21,0,1,0-3.2-3.21A3.2,3.2,0,0,0,169.9,165Z"/><path class="cls-1" d="M178,164.82a3,3,0,1,0-3-3A3,3,0,0,0,178,164.82Z"/><path class="cls-1" d="M186.08,164.62a2.81,2.81,0,1,0-2.8-2.81A2.81,2.81,0,0,0,186.08,164.62Z"/><path class="cls-1" d="M194.17,164.42a2.61,2.61,0,1,0-2.6-2.61A2.61,2.61,0,0,0,194.17,164.42Z"/><path class="cls-1" d="M202.26,164.19a2.38,2.38,0,1,0-2.38-2.38A2.37,2.37,0,0,0,202.26,164.19Z"/><path class="cls-1" d="M210.35,164a2.18,2.18,0,1,0-2.17-2.18A2.18,2.18,0,0,0,210.35,164Z"/><path class="cls-1" d="M218.44,163.77a2,2,0,1,0-1.95-2A2,2,0,0,0,218.44,163.77Z"/><path class="cls-1" d="M226.53,163.54a1.73,1.73,0,1,0-1.73-1.73A1.72,1.72,0,0,0,226.53,163.54Z"/><path class="cls-1" d="M234.62,163.32a1.51,1.51,0,1,0-1.5-1.51A1.51,1.51,0,0,0,234.62,163.32Z"/><path class="cls-1" d="M242.71,163.12a1.31,1.31,0,1,0-1.3-1.31A1.31,1.31,0,0,0,242.71,163.12Z"/><path class="cls-1" d="M250.8,162.89a1.08,1.08,0,1,0-1.08-1.08A1.08,1.08,0,0,0,250.8,162.89Z"/><path class="cls-1" d="M258.89,162.67a.86.86,0,1,0-.85-.86A.85.85,0,0,0,258.89,162.67Z"/><path class="cls-1" d="M267,162.44a.63.63,0,1,0-.63-.63A.63.63,0,0,0,267,162.44Z"/><path class="cls-1" d="M275.07,162.22a.41.41,0,1,0-.4-.41A.4.4,0,0,0,275.07,162.22Z"/><path class="cls-1" d="M283.16,162a.18.18,0,0,0,.18-.18.18.18,0,0,0-.36,0A.18.18,0,0,0,283.16,162Z"/><path class="cls-1" d="M291.25,161.84s0,0,0,0a0,0,0,0,0,0,0,0,0,0,0,0,0,0S291.24,161.84,291.25,161.84Z"/><path class="cls-1" d="M8.11,170a.14.14,0,0,0,.14-.14.13.13,0,0,0-.14-.13.13.13,0,0,0-.13.13A.13.13,0,0,0,8.11,170Z"/><path class="cls-1" d="M16.2,170.26a.36.36,0,1,0-.36-.36A.36.36,0,0,0,16.2,170.26Z"/><path class="cls-1" d="M24.29,170.47a.57.57,0,0,0,.56-.57.56.56,0,0,0-1.12,0A.57.57,0,0,0,24.29,170.47Z"/><path class="cls-1" d="M32.38,170.69a.79.79,0,1,0,0-1.57.79.79,0,0,0,0,1.57Z"/><path class="cls-1" d="M40.47,170.91a1,1,0,1,0-1-1A1,1,0,0,0,40.47,170.91Z"/><path class="cls-1" d="M48.56,171.14a1.24,1.24,0,1,0-1.23-1.24A1.23,1.23,0,0,0,48.56,171.14Z"/><path class="cls-1" d="M56.65,171.34a1.44,1.44,0,1,0-1.44-1.44A1.44,1.44,0,0,0,56.65,171.34Z"/><path class="cls-1" d="M64.74,171.56a1.66,1.66,0,1,0-1.66-1.66A1.66,1.66,0,0,0,64.74,171.56Z"/><path class="cls-1" d="M72.83,171.77A1.87,1.87,0,1,0,71,169.9,1.87,1.87,0,0,0,72.83,171.77Z"/><path class="cls-1" d="M80.92,172a2.09,2.09,0,1,0-2.09-2.09A2.08,2.08,0,0,0,80.92,172Z"/><path class="cls-1" d="M89,172.19a2.29,2.29,0,1,0-2.29-2.29A2.29,2.29,0,0,0,89,172.19Z"/><path class="cls-1" d="M97.1,172.39a2.49,2.49,0,1,0-2.49-2.49A2.49,2.49,0,0,0,97.1,172.39Z"/><path class="cls-1" d="M105.19,172.6a2.7,2.7,0,1,0-2.69-2.7A2.7,2.7,0,0,0,105.19,172.6Z"/><path class="cls-1" d="M113.28,172.78a2.88,2.88,0,1,0-2.87-2.88A2.88,2.88,0,0,0,113.28,172.78Z"/><path class="cls-1" d="M121.37,173a3.05,3.05,0,1,0-3.05-3A3,3,0,0,0,121.37,173Z"/><path class="cls-1" d="M129.46,173.09a3.19,3.19,0,1,0-3.19-3.19A3.18,3.18,0,0,0,129.46,173.09Z"/><path class="cls-1" d="M137.55,173.2a3.3,3.3,0,1,0-3.3-3.3A3.29,3.29,0,0,0,137.55,173.2Z"/><path class="cls-1" d="M145.64,173.25a3.35,3.35,0,1,0-3.35-3.35A3.35,3.35,0,0,0,145.64,173.25Z"/><path class="cls-1" d="M153.73,173.2a3.3,3.3,0,1,0-3.3-3.3A3.29,3.29,0,0,0,153.73,173.2Z"/><path class="cls-1" d="M161.81,173.11a3.21,3.21,0,1,0-3.2-3.21A3.2,3.2,0,0,0,161.81,173.11Z"/><path class="cls-1" d="M169.9,173a3.05,3.05,0,1,0-3.05-3A3,3,0,0,0,169.9,173Z"/><path class="cls-1" d="M178,172.8a2.9,2.9,0,1,0-2.89-2.9A2.9,2.9,0,0,0,178,172.8Z"/><path class="cls-1" d="M186.08,172.62a2.72,2.72,0,1,0-2.71-2.72A2.72,2.72,0,0,0,186.08,172.62Z"/><path class="cls-1" d="M194.17,172.42a2.52,2.52,0,1,0-2.51-2.52A2.52,2.52,0,0,0,194.17,172.42Z"/><path class="cls-1" d="M202.26,172.21A2.31,2.31,0,1,0,200,169.9,2.3,2.3,0,0,0,202.26,172.21Z"/><path class="cls-1" d="M210.35,172a2.11,2.11,0,1,0-2.11-2.11A2.1,2.1,0,0,0,210.35,172Z"/><path class="cls-1" d="M218.44,171.79a1.89,1.89,0,1,0-1.88-1.89A1.89,1.89,0,0,0,218.44,171.79Z"/><circle class="cls-1" cx="226.53" cy="169.9" r="1.68"/><path class="cls-1" d="M234.62,171.36a1.46,1.46,0,1,0-1.46-1.46A1.46,1.46,0,0,0,234.62,171.36Z"/><path class="cls-1" d="M242.71,171.16a1.26,1.26,0,1,0-1.26-1.26A1.26,1.26,0,0,0,242.71,171.16Z"/><path class="cls-1" d="M250.8,170.94a1,1,0,1,0-1-1A1,1,0,0,0,250.8,170.94Z"/><path class="cls-1" d="M258.89,170.71a.81.81,0,1,0-.81-.81A.81.81,0,0,0,258.89,170.71Z"/><path class="cls-1" d="M267,170.49a.59.59,0,1,0-.58-.59A.58.58,0,0,0,267,170.49Z"/><path class="cls-1" d="M275.07,170.29a.39.39,0,0,0,.38-.39.38.38,0,0,0-.76,0A.39.39,0,0,0,275.07,170.29Z"/><path class="cls-1" d="M283.16,170.06a.16.16,0,0,0,.16-.16.16.16,0,0,0-.32,0A.16.16,0,0,0,283.16,170.06Z"/><path class="cls-1" d="M8.11,178.08A.09.09,0,1,0,8,178,.09.09,0,0,0,8.11,178.08Z"/><path class="cls-1" d="M16.2,178.31a.32.32,0,1,0,0-.63.32.32,0,0,0,0,.63Z"/><circle class="cls-1" cx="24.29" cy="177.99" r="0.52"/><path class="cls-1" d="M32.38,178.73a.74.74,0,1,0-.74-.74A.74.74,0,0,0,32.38,178.73Z"/><path class="cls-1" d="M40.47,178.94a.95.95,0,1,0-.94-.95A.95.95,0,0,0,40.47,178.94Z"/><circle class="cls-1" cx="48.56" cy="177.99" r="1.17"/><path class="cls-1" d="M56.65,179.36A1.37,1.37,0,1,0,55.28,178,1.37,1.37,0,0,0,56.65,179.36Z"/><path class="cls-1" d="M64.74,179.59a1.6,1.6,0,1,0-1.59-1.6A1.6,1.6,0,0,0,64.74,179.59Z"/><path class="cls-1" d="M72.83,179.79A1.8,1.8,0,1,0,71,178,1.8,1.8,0,0,0,72.83,179.79Z"/><path class="cls-1" d="M80.92,180a2,2,0,1,0-2-2A2,2,0,0,0,80.92,180Z"/><path class="cls-1" d="M89,180.19a2.2,2.2,0,1,0-2.2-2.2A2.2,2.2,0,0,0,89,180.19Z"/><path class="cls-1" d="M97.1,180.37A2.38,2.38,0,1,0,94.72,178,2.38,2.38,0,0,0,97.1,180.37Z"/><path class="cls-1" d="M105.19,180.55a2.56,2.56,0,1,0-2.56-2.56A2.55,2.55,0,0,0,105.19,180.55Z"/><path class="cls-1" d="M113.28,180.73a2.74,2.74,0,1,0-2.74-2.74A2.73,2.73,0,0,0,113.28,180.73Z"/><path class="cls-1" d="M121.37,180.87A2.88,2.88,0,1,0,118.5,178,2.88,2.88,0,0,0,121.37,180.87Z"/><path class="cls-1" d="M129.46,181a3,3,0,1,0-3-3A3,3,0,0,0,129.46,181Z"/><path class="cls-1" d="M137.55,181.07a3.08,3.08,0,1,0-3.08-3.08A3.08,3.08,0,0,0,137.55,181.07Z"/><path class="cls-1" d="M145.64,181.11a3.12,3.12,0,1,0-3.12-3.12A3.11,3.11,0,0,0,145.64,181.11Z"/><path class="cls-1" d="M153.73,181.09a3.1,3.1,0,1,0-3.1-3.1A3.1,3.1,0,0,0,153.73,181.09Z"/><path class="cls-1" d="M161.81,181a3,3,0,1,0-3-3A3,3,0,0,0,161.81,181Z"/><path class="cls-1" d="M169.9,180.89A2.9,2.9,0,1,0,167,178,2.9,2.9,0,0,0,169.9,180.89Z"/><path class="cls-1" d="M178,180.73a2.74,2.74,0,1,0-2.73-2.74A2.73,2.73,0,0,0,178,180.73Z"/><path class="cls-1" d="M186.08,180.57A2.58,2.58,0,1,0,183.5,178,2.57,2.57,0,0,0,186.08,180.57Z"/><path class="cls-1" d="M194.17,180.39a2.4,2.4,0,1,0-2.4-2.4A2.39,2.39,0,0,0,194.17,180.39Z"/><path class="cls-1" d="M202.26,180.21A2.22,2.22,0,1,0,200,178,2.21,2.21,0,0,0,202.26,180.21Z"/><path class="cls-1" d="M210.35,180a2,2,0,1,0-2-2A2,2,0,0,0,210.35,180Z"/><path class="cls-1" d="M218.44,179.81a1.82,1.82,0,1,0-1.82-1.82A1.81,1.81,0,0,0,218.44,179.81Z"/><path class="cls-1" d="M226.53,179.61a1.62,1.62,0,1,0-1.61-1.62A1.62,1.62,0,0,0,226.53,179.61Z"/><path class="cls-1" d="M234.62,179.38a1.39,1.39,0,1,0-1.39-1.39A1.39,1.39,0,0,0,234.62,179.38Z"/><path class="cls-1" d="M242.71,179.18a1.19,1.19,0,1,0-1.19-1.19A1.19,1.19,0,0,0,242.71,179.18Z"/><path class="cls-1" d="M250.8,179a1,1,0,1,0-1-1A1,1,0,0,0,250.8,179Z"/><path class="cls-1" d="M258.89,178.76a.77.77,0,1,0-.76-.77A.76.76,0,0,0,258.89,178.76Z"/><path class="cls-1" d="M267,178.53a.54.54,0,1,0-.54-.54A.54.54,0,0,0,267,178.53Z"/><path class="cls-1" d="M275.07,178.33a.34.34,0,1,0-.34-.34A.34.34,0,0,0,275.07,178.33Z"/><path class="cls-1" d="M283.16,178.11a.11.11,0,0,0,.11-.12.11.11,0,1,0-.22,0A.11.11,0,0,0,283.16,178.11Z"/><path class="cls-1" d="M8.11,186.13a0,0,0,0,0,.05,0,0,0,0,0,0-.05,0,0,0,0,0,0,0,0A0,0,0,0,0,8.11,186.13Z"/><path class="cls-1" d="M16.2,186.33a.25.25,0,1,0,0-.49.25.25,0,1,0,0,.49Z"/><path class="cls-1" d="M24.29,186.55a.47.47,0,1,0-.47-.47A.47.47,0,0,0,24.29,186.55Z"/><path class="cls-1" d="M32.38,186.76a.68.68,0,1,0-.67-.68A.67.67,0,0,0,32.38,186.76Z"/><path class="cls-1" d="M40.47,187a.88.88,0,1,0,0-1.75.88.88,0,0,0,0,1.75Z"/><path class="cls-1" d="M48.56,187.18a1.1,1.1,0,1,0-1.1-1.1A1.1,1.1,0,0,0,48.56,187.18Z"/><path class="cls-1" d="M56.65,187.38a1.3,1.3,0,1,0-1.3-1.3A1.3,1.3,0,0,0,56.65,187.38Z"/><path class="cls-1" d="M64.74,187.59a1.51,1.51,0,1,0-1.5-1.51A1.51,1.51,0,0,0,64.74,187.59Z"/><circle class="cls-1" cx="72.83" cy="186.08" r="1.68"/><path class="cls-1" d="M80.92,188A1.89,1.89,0,1,0,79,186.08,1.89,1.89,0,0,0,80.92,188Z"/><path class="cls-1" d="M89,188.15a2.07,2.07,0,1,0-2.07-2.07A2.07,2.07,0,0,0,89,188.15Z"/><path class="cls-1" d="M97.1,188.33a2.25,2.25,0,1,0-2.25-2.25A2.24,2.24,0,0,0,97.1,188.33Z"/><path class="cls-1" d="M105.19,188.51a2.43,2.43,0,1,0-2.43-2.43A2.42,2.42,0,0,0,105.19,188.51Z"/><path class="cls-1" d="M113.28,188.66a2.58,2.58,0,1,0-2.58-2.58A2.58,2.58,0,0,0,113.28,188.66Z"/><path class="cls-1" d="M121.37,188.78a2.7,2.7,0,1,0-2.7-2.7A2.7,2.7,0,0,0,121.37,188.78Z"/><path class="cls-1" d="M129.46,188.89a2.81,2.81,0,1,0-2.81-2.81A2.81,2.81,0,0,0,129.46,188.89Z"/><path class="cls-1" d="M137.55,189a2.87,2.87,0,1,0-2.88-2.87A2.87,2.87,0,0,0,137.55,189Z"/><path class="cls-1" d="M145.64,189a2.9,2.9,0,1,0-2.9-2.9A2.9,2.9,0,0,0,145.64,189Z"/><path class="cls-1" d="M153.73,189a2.87,2.87,0,1,0-2.88-2.87A2.87,2.87,0,0,0,153.73,189Z"/><path class="cls-1" d="M161.81,188.89a2.81,2.81,0,1,0-2.8-2.81A2.81,2.81,0,0,0,161.81,188.89Z"/><path class="cls-1" d="M169.9,188.8a2.72,2.72,0,1,0-2.71-2.72A2.72,2.72,0,0,0,169.9,188.8Z"/><path class="cls-1" d="M178,188.66a2.58,2.58,0,1,0-2.58-2.58A2.57,2.57,0,0,0,178,188.66Z"/><path class="cls-1" d="M186.08,188.51a2.43,2.43,0,1,0-2.42-2.43A2.43,2.43,0,0,0,186.08,188.51Z"/><path class="cls-1" d="M194.17,188.35a2.27,2.27,0,1,0-2.26-2.27A2.27,2.27,0,0,0,194.17,188.35Z"/><path class="cls-1" d="M202.26,188.17a2.09,2.09,0,1,0-2.08-2.09A2.09,2.09,0,0,0,202.26,188.17Z"/><path class="cls-1" d="M210.35,188a1.91,1.91,0,1,0-1.9-1.91A1.9,1.9,0,0,0,210.35,188Z"/><path class="cls-1" d="M218.44,187.79a1.71,1.71,0,1,0-1.7-1.71A1.71,1.71,0,0,0,218.44,187.79Z"/><path class="cls-1" d="M226.53,187.61a1.53,1.53,0,1,0-1.52-1.53A1.53,1.53,0,0,0,226.53,187.61Z"/><path class="cls-1" d="M234.62,187.41a1.33,1.33,0,1,0-1.32-1.33A1.33,1.33,0,0,0,234.62,187.41Z"/><path class="cls-1" d="M242.71,187.18a1.1,1.1,0,1,0-1.1-1.1A1.1,1.1,0,0,0,242.71,187.18Z"/><path class="cls-1" d="M250.8,187a.9.9,0,1,0-.9-.9A.9.9,0,0,0,250.8,187Z"/><path class="cls-1" d="M258.89,186.78a.7.7,0,1,0-.7-.7A.7.7,0,0,0,258.89,186.78Z"/><path class="cls-1" d="M267,186.55a.47.47,0,1,0-.47-.47A.47.47,0,0,0,267,186.55Z"/><path class="cls-1" d="M275.07,186.35a.27.27,0,1,0-.27-.27A.27.27,0,0,0,275.07,186.35Z"/><path class="cls-1" d="M283.16,186.15a.07.07,0,0,0,.07-.07.07.07,0,0,0-.14,0A.07.07,0,0,0,283.16,186.15Z"/><path class="cls-1" d="M8.11,194.2s0,0,0,0l0,0,0,0S8.1,194.2,8.11,194.2Z"/><path class="cls-1" d="M16.2,194.35a.18.18,0,1,0-.18-.18A.18.18,0,0,0,16.2,194.35Z"/><path class="cls-1" d="M24.29,194.55a.38.38,0,1,0-.38-.38A.38.38,0,0,0,24.29,194.55Z"/><path class="cls-1" d="M32.38,194.76a.59.59,0,1,0-.58-.59A.58.58,0,0,0,32.38,194.76Z"/><path class="cls-1" d="M40.47,195a.79.79,0,1,0,0-1.57.79.79,0,0,0,0,1.57Z"/><path class="cls-1" d="M48.56,195.16a1,1,0,1,0-1-1A1,1,0,0,0,48.56,195.16Z"/><path class="cls-1" d="M56.65,195.36a1.19,1.19,0,1,0-1.19-1.19A1.19,1.19,0,0,0,56.65,195.36Z"/><path class="cls-1" d="M64.74,195.56a1.39,1.39,0,1,0-1.39-1.39A1.39,1.39,0,0,0,64.74,195.56Z"/><path class="cls-1" d="M72.83,195.74a1.57,1.57,0,1,0-1.57-1.57A1.57,1.57,0,0,0,72.83,195.74Z"/><path class="cls-1" d="M80.92,196a1.78,1.78,0,1,0-1.77-1.78A1.78,1.78,0,0,0,80.92,196Z"/><path class="cls-1" d="M89,196.1a1.93,1.93,0,1,0-1.93-1.93A1.93,1.93,0,0,0,89,196.1Z"/><path class="cls-1" d="M97.1,196.28A2.11,2.11,0,1,0,95,194.17,2.11,2.11,0,0,0,97.1,196.28Z"/><path class="cls-1" d="M105.19,196.44a2.27,2.27,0,1,0-2.27-2.27A2.27,2.27,0,0,0,105.19,196.44Z"/><path class="cls-1" d="M113.28,196.57a2.4,2.4,0,1,0-2.4-2.4A2.4,2.4,0,0,0,113.28,196.57Z"/><path class="cls-1" d="M121.37,196.69a2.52,2.52,0,1,0-2.52-2.52A2.52,2.52,0,0,0,121.37,196.69Z"/><path class="cls-1" d="M129.46,196.75a2.58,2.58,0,1,0-2.58-2.58A2.58,2.58,0,0,0,129.46,196.75Z"/><path class="cls-1" d="M137.55,196.82a2.65,2.65,0,1,0-2.65-2.65A2.64,2.64,0,0,0,137.55,196.82Z"/><path class="cls-1" d="M145.64,196.84a2.67,2.67,0,1,0-2.67-2.67A2.66,2.66,0,0,0,145.64,196.84Z"/><path class="cls-1" d="M153.73,196.82a2.65,2.65,0,1,0-2.65-2.65A2.64,2.64,0,0,0,153.73,196.82Z"/><path class="cls-1" d="M161.81,196.78a2.61,2.61,0,1,0-2.6-2.61A2.61,2.61,0,0,0,161.81,196.78Z"/><path class="cls-1" d="M169.9,196.69a2.52,2.52,0,1,0-2.51-2.52A2.52,2.52,0,0,0,169.9,196.69Z"/><path class="cls-1" d="M178,196.57a2.4,2.4,0,1,0-2.4-2.4A2.39,2.39,0,0,0,178,196.57Z"/><path class="cls-1" d="M186.08,196.44a2.27,2.27,0,1,0-2.26-2.27A2.27,2.27,0,0,0,186.08,196.44Z"/><path class="cls-1" d="M194.17,196.28a2.11,2.11,0,1,0-2.11-2.11A2.1,2.1,0,0,0,194.17,196.28Z"/><path class="cls-1" d="M202.26,196.12a1.95,1.95,0,1,0-1.95-2A1.95,1.95,0,0,0,202.26,196.12Z"/><path class="cls-1" d="M210.35,196a1.78,1.78,0,1,0-1.77-1.78A1.78,1.78,0,0,0,210.35,196Z"/><path class="cls-1" d="M218.44,195.77a1.6,1.6,0,1,0-1.59-1.6A1.6,1.6,0,0,0,218.44,195.77Z"/><path class="cls-1" d="M226.53,195.59a1.42,1.42,0,1,0-1.41-1.42A1.42,1.42,0,0,0,226.53,195.59Z"/><path class="cls-1" d="M234.62,195.38a1.21,1.21,0,1,0-1.21-1.21A1.21,1.21,0,0,0,234.62,195.38Z"/><path class="cls-1" d="M242.71,195.18a1,1,0,1,0-1-1A1,1,0,0,0,242.71,195.18Z"/><path class="cls-1" d="M250.8,195a.81.81,0,1,0-.81-.81A.81.81,0,0,0,250.8,195Z"/><path class="cls-1" d="M258.89,194.78a.61.61,0,1,0-.61-.61A.61.61,0,0,0,258.89,194.78Z"/><path class="cls-1" d="M267,194.58a.41.41,0,1,0-.4-.41A.4.4,0,0,0,267,194.58Z"/><path class="cls-1" d="M275.07,194.37a.2.2,0,1,0-.2-.2A.2.2,0,0,0,275.07,194.37Z"/><path class="cls-1" d="M283.16,194.2s0,0,0,0l0,0a0,0,0,0,0,0,0S283.15,194.2,283.16,194.2Z"/><path class="cls-1" d="M16.2,202.35a.09.09,0,1,0-.09-.09A.09.09,0,0,0,16.2,202.35Z"/><path class="cls-1" d="M24.29,202.55a.29.29,0,1,0-.29-.29A.29.29,0,0,0,24.29,202.55Z"/><path class="cls-1" d="M32.38,202.76a.5.5,0,1,0-.49-.5A.49.49,0,0,0,32.38,202.76Z"/><path class="cls-1" d="M40.47,203a.7.7,0,1,0,0-1.39.7.7,0,0,0,0,1.39Z"/><path class="cls-1" d="M48.56,203.16a.9.9,0,1,0-.9-.9A.9.9,0,0,0,48.56,203.16Z"/><path class="cls-1" d="M56.65,203.34a1.08,1.08,0,1,0-1.08-1.08A1.08,1.08,0,0,0,56.65,203.34Z"/><path class="cls-1" d="M64.74,203.54a1.28,1.28,0,1,0-1.28-1.28A1.28,1.28,0,0,0,64.74,203.54Z"/><path class="cls-1" d="M72.83,203.72a1.46,1.46,0,1,0-1.46-1.46A1.46,1.46,0,0,0,72.83,203.72Z"/><path class="cls-1" d="M80.92,203.88a1.62,1.62,0,1,0-1.62-1.62A1.62,1.62,0,0,0,80.92,203.88Z"/><path class="cls-1" d="M89,204.06a1.8,1.8,0,1,0-1.8-1.8A1.8,1.8,0,0,0,89,204.06Z"/><path class="cls-1" d="M97.1,204.19a1.93,1.93,0,1,0-1.93-1.93A1.93,1.93,0,0,0,97.1,204.19Z"/><path class="cls-1" d="M105.19,204.35a2.09,2.09,0,1,0-2.09-2.09A2.09,2.09,0,0,0,105.19,204.35Z"/><path class="cls-1" d="M113.28,204.46a2.2,2.2,0,1,0-2.2-2.2A2.2,2.2,0,0,0,113.28,204.46Z"/><path class="cls-1" d="M121.37,204.57a2.31,2.31,0,1,0-2.31-2.31A2.31,2.31,0,0,0,121.37,204.57Z"/><path class="cls-1" d="M129.46,204.64a2.38,2.38,0,1,0-2.38-2.38A2.37,2.37,0,0,0,129.46,204.64Z"/><path class="cls-1" d="M137.55,204.69a2.43,2.43,0,1,0-2.43-2.43A2.43,2.43,0,0,0,137.55,204.69Z"/><path class="cls-1" d="M145.64,204.71a2.45,2.45,0,1,0-2.45-2.45A2.45,2.45,0,0,0,145.64,204.71Z"/><path class="cls-1" d="M153.73,204.69a2.43,2.43,0,1,0-2.43-2.43A2.43,2.43,0,0,0,153.73,204.69Z"/><path class="cls-1" d="M161.81,204.64a2.38,2.38,0,1,0-2.37-2.38A2.37,2.37,0,0,0,161.81,204.64Z"/><path class="cls-1" d="M169.9,204.57a2.31,2.31,0,1,0-2.31-2.31A2.3,2.3,0,0,0,169.9,204.57Z"/><path class="cls-1" d="M178,204.48a2.22,2.22,0,1,0-2.22-2.22A2.21,2.21,0,0,0,178,204.48Z"/><path class="cls-1" d="M186.08,204.35a2.09,2.09,0,1,0-2.08-2.09A2.09,2.09,0,0,0,186.08,204.35Z"/><path class="cls-1" d="M194.17,204.21a2,2,0,1,0-1.95-2A1.95,1.95,0,0,0,194.17,204.21Z"/><path class="cls-1" d="M202.26,204.06a1.8,1.8,0,1,0-1.79-1.8A1.81,1.81,0,0,0,202.26,204.06Z"/><path class="cls-1" d="M210.35,203.9a1.64,1.64,0,1,0-1.64-1.64A1.63,1.63,0,0,0,210.35,203.9Z"/><path class="cls-1" d="M218.44,203.72a1.46,1.46,0,1,0-1.46-1.46A1.46,1.46,0,0,0,218.44,203.72Z"/><path class="cls-1" d="M226.53,203.54a1.28,1.28,0,1,0,0-2.56,1.28,1.28,0,1,0,0,2.56Z"/><path class="cls-1" d="M234.62,203.36a1.1,1.1,0,1,0-1.1-1.1A1.1,1.1,0,0,0,234.62,203.36Z"/><path class="cls-1" d="M242.71,203.18a.92.92,0,1,0-.92-.92A.92.92,0,0,0,242.71,203.18Z"/><path class="cls-1" d="M250.8,203a.72.72,0,1,0-.72-.72A.72.72,0,0,0,250.8,203Z"/><circle class="cls-1" cx="258.89" cy="202.26" r="0.52"/><path class="cls-1" d="M267,202.58a.32.32,0,1,0-.31-.32A.31.31,0,0,0,267,202.58Z"/><path class="cls-1" d="M275.07,202.37a.11.11,0,1,0-.11-.11A.11.11,0,0,0,275.07,202.37Z"/><path class="cls-1" d="M16.2,210.37a0,0,0,0,0,0,0l0,0,0,0A0,0,0,0,0,16.2,210.37Z"/><path class="cls-1" d="M24.29,210.55a.2.2,0,1,0-.2-.2A.2.2,0,0,0,24.29,210.55Z"/><path class="cls-1" d="M32.38,210.73a.38.38,0,1,0-.38-.38A.38.38,0,0,0,32.38,210.73Z"/><path class="cls-1" d="M40.47,210.94a.59.59,0,0,0,.58-.59.58.58,0,0,0-1.16,0A.59.59,0,0,0,40.47,210.94Z"/><path class="cls-1" d="M48.56,211.14a.79.79,0,1,0-.79-.79A.79.79,0,0,0,48.56,211.14Z"/><path class="cls-1" d="M56.65,211.32a1,1,0,1,0-1-1A1,1,0,0,0,56.65,211.32Z"/><path class="cls-1" d="M64.74,211.5a1.15,1.15,0,1,0-1.14-1.15A1.15,1.15,0,0,0,64.74,211.5Z"/><path class="cls-1" d="M72.83,211.65a1.3,1.3,0,1,0-1.3-1.3A1.3,1.3,0,0,0,72.83,211.65Z"/><path class="cls-1" d="M80.92,211.83a1.48,1.48,0,1,0-1.48-1.48A1.48,1.48,0,0,0,80.92,211.83Z"/><path class="cls-1" d="M89,212a1.62,1.62,0,1,0-1.62-1.62A1.62,1.62,0,0,0,89,212Z"/><path class="cls-1" d="M97.1,212.12a1.77,1.77,0,1,0-1.77-1.77A1.77,1.77,0,0,0,97.1,212.12Z"/><path class="cls-1" d="M105.19,212.24a1.89,1.89,0,1,0-1.89-1.89A1.89,1.89,0,0,0,105.19,212.24Z"/><path class="cls-1" d="M113.28,212.35a2,2,0,1,0-2-2A2,2,0,0,0,113.28,212.35Z"/><path class="cls-1" d="M121.37,212.44a2.09,2.09,0,1,0-2.09-2.09A2.09,2.09,0,0,0,121.37,212.44Z"/><path class="cls-1" d="M129.46,212.51a2.16,2.16,0,1,0-2.16-2.16A2.16,2.16,0,0,0,129.46,212.51Z"/><path class="cls-1" d="M137.55,212.55a2.2,2.2,0,1,0-2.2-2.2A2.19,2.19,0,0,0,137.55,212.55Z"/><path class="cls-1" d="M145.64,212.57a2.22,2.22,0,1,0-2.23-2.22A2.22,2.22,0,0,0,145.64,212.57Z"/><path class="cls-1" d="M153.73,212.55a2.2,2.2,0,1,0-2.2-2.2A2.19,2.19,0,0,0,153.73,212.55Z"/><path class="cls-1" d="M161.81,212.53a2.18,2.18,0,1,0-2.17-2.18A2.18,2.18,0,0,0,161.81,212.53Z"/><path class="cls-1" d="M169.9,212.46a2.11,2.11,0,1,0-2.1-2.11A2.1,2.1,0,0,0,169.9,212.46Z"/><path class="cls-1" d="M178,212.37a2,2,0,1,0-2-2A2,2,0,0,0,178,212.37Z"/><path class="cls-1" d="M186.08,212.26a1.91,1.91,0,1,0-1.9-1.91A1.9,1.9,0,0,0,186.08,212.26Z"/><path class="cls-1" d="M194.17,212.12a1.77,1.77,0,1,0-1.77-1.77A1.78,1.78,0,0,0,194.17,212.12Z"/><path class="cls-1" d="M202.26,212a1.64,1.64,0,1,0-1.63-1.64A1.63,1.63,0,0,0,202.26,212Z"/><path class="cls-1" d="M210.35,211.83a1.48,1.48,0,1,0-1.48-1.48A1.48,1.48,0,0,0,210.35,211.83Z"/><path class="cls-1" d="M218.44,211.68a1.33,1.33,0,1,0,0-2.65,1.33,1.33,0,0,0,0,2.65Z"/><path class="cls-1" d="M226.53,211.5a1.15,1.15,0,1,0,0-2.29,1.15,1.15,0,0,0,0,2.29Z"/><path class="cls-1" d="M234.62,211.32a1,1,0,1,0,0-1.93,1,1,0,0,0,0,1.93Z"/><path class="cls-1" d="M242.71,211.14a.79.79,0,1,0,0-1.57.79.79,0,0,0,0,1.57Z"/><path class="cls-1" d="M250.8,211a.61.61,0,1,0-.61-.61A.61.61,0,0,0,250.8,211Z"/><path class="cls-1" d="M258.89,210.76a.41.41,0,1,0-.4-.41A.4.4,0,0,0,258.89,210.76Z"/><path class="cls-1" d="M267,210.58a.22.22,0,0,0,.22-.23.22.22,0,1,0-.44,0A.22.22,0,0,0,267,210.58Z"/><path class="cls-1" d="M275.07,210.4a0,0,0,0,0,0-.05,0,0,0,0,0,0,0,0,0,0,0,0-.05,0A0,0,0,0,0,275.07,210.4Z"/><path class="cls-1" d="M24.29,218.53a.09.09,0,1,0-.09-.09A.09.09,0,0,0,24.29,218.53Z"/><path class="cls-1" d="M32.38,218.71a.27.27,0,1,0-.27-.27A.27.27,0,0,0,32.38,218.71Z"/><path class="cls-1" d="M40.47,218.91a.47.47,0,1,0-.47-.47A.47.47,0,0,0,40.47,218.91Z"/><path class="cls-1" d="M48.56,219.09a.65.65,0,1,0-.65-.65A.65.65,0,0,0,48.56,219.09Z"/><path class="cls-1" d="M56.65,219.27a.83.83,0,1,0-.83-.83A.83.83,0,0,0,56.65,219.27Z"/><path class="cls-1" d="M64.74,219.43a1,1,0,1,0-1-1A1,1,0,0,0,64.74,219.43Z"/><circle class="cls-1" cx="72.83" cy="218.44" r="1.17"/><path class="cls-1" d="M80.92,219.74a1.3,1.3,0,1,0-1.3-1.3A1.3,1.3,0,0,0,80.92,219.74Z"/><path class="cls-1" d="M89,219.9a1.46,1.46,0,1,0-1.46-1.46A1.46,1.46,0,0,0,89,219.9Z"/><path class="cls-1" d="M97.1,220a1.59,1.59,0,1,0-1.59-1.59A1.59,1.59,0,0,0,97.1,220Z"/><path class="cls-1" d="M105.19,220.15a1.71,1.71,0,1,0-1.71-1.71A1.71,1.71,0,0,0,105.19,220.15Z"/><path class="cls-1" d="M113.28,220.24a1.8,1.8,0,1,0-1.8-1.8A1.8,1.8,0,0,0,113.28,220.24Z"/><path class="cls-1" d="M121.37,220.33a1.89,1.89,0,1,0-1.89-1.89A1.89,1.89,0,0,0,121.37,220.33Z"/><path class="cls-1" d="M129.46,220.39a2,2,0,1,0-2-1.95A2,2,0,0,0,129.46,220.39Z"/><path class="cls-1" d="M137.55,220.42a2,2,0,1,0-2-2A2,2,0,0,0,137.55,220.42Z"/><path class="cls-1" d="M145.64,220.44a2,2,0,1,0-2-2A2,2,0,0,0,145.64,220.44Z"/><path class="cls-1" d="M153.73,220.44a2,2,0,1,0-2-2A2,2,0,0,0,153.73,220.44Z"/><path class="cls-1" d="M161.81,220.39a1.95,1.95,0,1,0-1.95-1.95A2,2,0,0,0,161.81,220.39Z"/><path class="cls-1" d="M169.9,220.33a1.89,1.89,0,1,0-1.88-1.89A1.89,1.89,0,0,0,169.9,220.33Z"/><path class="cls-1" d="M178,220.26a1.82,1.82,0,1,0-1.81-1.82A1.81,1.81,0,0,0,178,220.26Z"/><path class="cls-1" d="M186.08,220.15a1.71,1.71,0,1,0-1.7-1.71A1.71,1.71,0,0,0,186.08,220.15Z"/><path class="cls-1" d="M194.17,220a1.59,1.59,0,1,0-1.59-1.59A1.6,1.6,0,0,0,194.17,220Z"/><path class="cls-1" d="M202.26,219.9a1.46,1.46,0,1,0-1.46-1.46A1.46,1.46,0,0,0,202.26,219.9Z"/><path class="cls-1" d="M210.35,219.77a1.33,1.33,0,1,0,0-2.65,1.33,1.33,0,0,0,0,2.65Z"/><circle class="cls-1" cx="218.44" cy="218.44" r="1.17"/><path class="cls-1" d="M226.53,219.45a1,1,0,1,0-1-1A1,1,0,0,0,226.53,219.45Z"/><path class="cls-1" d="M234.62,219.27a.83.83,0,1,0-.83-.83A.83.83,0,0,0,234.62,219.27Z"/><path class="cls-1" d="M242.71,219.09a.65.65,0,1,0-.65-.65A.65.65,0,0,0,242.71,219.09Z"/><path class="cls-1" d="M250.8,218.91a.47.47,0,1,0-.47-.47A.47.47,0,0,0,250.8,218.91Z"/><path class="cls-1" d="M258.89,218.73a.29.29,0,1,0-.29-.29A.29.29,0,0,0,258.89,218.73Z"/><path class="cls-1" d="M267,218.55a.11.11,0,1,0-.11-.11A.11.11,0,0,0,267,218.55Z"/><path class="cls-1" d="M24.29,226.55a0,0,0,0,0,0,0,0,0,0,0,0,0,0l0,0Z"/><path class="cls-1" d="M32.38,226.69a.16.16,0,1,0-.16-.16A.16.16,0,0,0,32.38,226.69Z"/><path class="cls-1" d="M40.47,226.87a.34.34,0,0,0,.34-.34.34.34,0,1,0-.68,0A.34.34,0,0,0,40.47,226.87Z"/><circle class="cls-1" cx="48.56" cy="226.53" r="0.52"/><path class="cls-1" d="M56.65,227.2a.67.67,0,1,0-.67-.67A.67.67,0,0,0,56.65,227.2Z"/><path class="cls-1" d="M64.74,227.36a.83.83,0,1,0-.83-.83A.83.83,0,0,0,64.74,227.36Z"/><path class="cls-1" d="M72.83,227.52a1,1,0,1,0-1-1A1,1,0,0,0,72.83,227.52Z"/><path class="cls-1" d="M80.92,227.68a1.15,1.15,0,1,0-1.15-1.15A1.15,1.15,0,0,0,80.92,227.68Z"/><path class="cls-1" d="M89,227.81a1.28,1.28,0,1,0-1.28-1.28A1.28,1.28,0,0,0,89,227.81Z"/><path class="cls-1" d="M97.1,227.92a1.39,1.39,0,1,0-1.39-1.39A1.39,1.39,0,0,0,97.1,227.92Z"/><path class="cls-1" d="M105.19,228a1.5,1.5,0,1,0-1.51-1.5A1.5,1.5,0,0,0,105.19,228Z"/><path class="cls-1" d="M113.28,228.12a1.59,1.59,0,1,0-1.6-1.59A1.59,1.59,0,0,0,113.28,228.12Z"/><circle class="cls-1" cx="121.37" cy="226.53" r="1.68"/><path class="cls-1" d="M129.46,228.26a1.73,1.73,0,1,0-1.73-1.73A1.72,1.72,0,0,0,129.46,228.26Z"/><path class="cls-1" d="M137.55,228.3a1.77,1.77,0,1,0-1.78-1.77A1.77,1.77,0,0,0,137.55,228.3Z"/><path class="cls-1" d="M145.64,228.3a1.77,1.77,0,1,0-1.78-1.77A1.77,1.77,0,0,0,145.64,228.3Z"/><path class="cls-1" d="M153.73,228.3a1.77,1.77,0,1,0-1.78-1.77A1.77,1.77,0,0,0,153.73,228.3Z"/><path class="cls-1" d="M161.81,228.26a1.73,1.73,0,1,0-1.72-1.73A1.72,1.72,0,0,0,161.81,228.26Z"/><circle class="cls-1" cx="169.9" cy="226.53" r="1.68"/><path class="cls-1" d="M178,228.15a1.62,1.62,0,1,0-1.61-1.62A1.62,1.62,0,0,0,178,228.15Z"/><path class="cls-1" d="M186.08,228.06a1.53,1.53,0,1,0-1.52-1.53A1.53,1.53,0,0,0,186.08,228.06Z"/><path class="cls-1" d="M194.17,227.94a1.41,1.41,0,1,0-1.41-1.41A1.42,1.42,0,0,0,194.17,227.94Z"/><path class="cls-1" d="M202.26,227.81a1.28,1.28,0,0,0,0-2.56,1.28,1.28,0,0,0,0,2.56Z"/><path class="cls-1" d="M210.35,227.68a1.15,1.15,0,1,0,0-2.29,1.15,1.15,0,0,0,0,2.29Z"/><path class="cls-1" d="M218.44,227.54a1,1,0,1,0-1-1A1,1,0,0,0,218.44,227.54Z"/><path class="cls-1" d="M226.53,227.38a.85.85,0,1,0-.85-.85A.85.85,0,0,0,226.53,227.38Z"/><path class="cls-1" d="M234.62,227.23a.7.7,0,1,0-.69-.7A.7.7,0,0,0,234.62,227.23Z"/><circle class="cls-1" cx="242.71" cy="226.53" r="0.52"/><path class="cls-1" d="M250.8,226.87a.34.34,0,0,0,.34-.34.34.34,0,1,0-.68,0A.34.34,0,0,0,250.8,226.87Z"/><path class="cls-1" d="M258.89,226.71a.18.18,0,1,0-.18-.18A.18.18,0,0,0,258.89,226.71Z"/><path class="cls-1" d="M267,226.55l0,0,0,0,0,0Z"/><path class="cls-1" d="M32.38,234.67a0,0,0,0,0,0,0,0,0,0,0,0,0,0,0,0,0,0,0,0,0A0,0,0,0,0,32.38,234.67Z"/><path class="cls-1" d="M40.47,234.82a.2.2,0,1,0-.2-.2A.2.2,0,0,0,40.47,234.82Z"/><path class="cls-1" d="M48.56,235a.36.36,0,1,0-.36-.36A.36.36,0,0,0,48.56,235Z"/><circle class="cls-1" cx="56.65" cy="234.62" r="0.52"/><path class="cls-1" d="M64.74,235.29a.67.67,0,1,0-.67-.67A.67.67,0,0,0,64.74,235.29Z"/><path class="cls-1" d="M72.83,235.45a.83.83,0,1,0-.83-.83A.83.83,0,0,0,72.83,235.45Z"/><path class="cls-1" d="M80.92,235.59a1,1,0,1,0-1-1A1,1,0,0,0,80.92,235.59Z"/><path class="cls-1" d="M89,235.72a1.1,1.1,0,1,0-1.1-1.1A1.1,1.1,0,0,0,89,235.72Z"/><path class="cls-1" d="M97.1,235.83a1.21,1.21,0,1,0-1.21-1.21A1.21,1.21,0,0,0,97.1,235.83Z"/><path class="cls-1" d="M105.19,235.92a1.3,1.3,0,1,0-1.3-1.3A1.3,1.3,0,0,0,105.19,235.92Z"/><path class="cls-1" d="M113.28,236a1.39,1.39,0,1,0-1.39-1.39A1.39,1.39,0,0,0,113.28,236Z"/><path class="cls-1" d="M121.37,236.08a1.46,1.46,0,1,0-1.46-1.46A1.45,1.45,0,0,0,121.37,236.08Z"/><path class="cls-1" d="M129.46,236.12a1.5,1.5,0,1,0-1.51-1.5A1.5,1.5,0,0,0,129.46,236.12Z"/><path class="cls-1" d="M137.55,236.17a1.55,1.55,0,1,0-1.55-1.55A1.54,1.54,0,0,0,137.55,236.17Z"/><path class="cls-1" d="M145.64,236.17a1.55,1.55,0,1,0-1.55-1.55A1.54,1.54,0,0,0,145.64,236.17Z"/><path class="cls-1" d="M153.73,236.17a1.55,1.55,0,1,0-1.55-1.55A1.54,1.54,0,0,0,153.73,236.17Z"/><path class="cls-1" d="M161.81,236.12a1.5,1.5,0,1,0-1.5-1.5A1.51,1.51,0,0,0,161.81,236.12Z"/><path class="cls-1" d="M169.9,236.08a1.46,1.46,0,1,0-1.45-1.46A1.46,1.46,0,0,0,169.9,236.08Z"/><path class="cls-1" d="M178,236a1.39,1.39,0,1,0-1.39-1.39A1.39,1.39,0,0,0,178,236Z"/><path class="cls-1" d="M186.08,235.94a1.32,1.32,0,1,0-1.32-1.32A1.33,1.33,0,0,0,186.08,235.94Z"/><path class="cls-1" d="M194.17,235.83a1.21,1.21,0,1,0-1.21-1.21A1.21,1.21,0,0,0,194.17,235.83Z"/><path class="cls-1" d="M202.26,235.72a1.1,1.1,0,1,0-1.1-1.1A1.1,1.1,0,0,0,202.26,235.72Z"/><path class="cls-1" d="M210.35,235.59a1,1,0,1,0,0-1.93,1,1,0,0,0,0,1.93Z"/><path class="cls-1" d="M218.44,235.45a.83.83,0,1,0-.83-.83A.83.83,0,0,0,218.44,235.45Z"/><path class="cls-1" d="M226.53,235.32a.7.7,0,1,0-.69-.7A.7.7,0,0,0,226.53,235.32Z"/><path class="cls-1" d="M234.62,235.16a.54.54,0,1,0-.54-.54A.54.54,0,0,0,234.62,235.16Z"/><path class="cls-1" d="M242.71,235a.38.38,0,1,0-.38-.38A.38.38,0,0,0,242.71,235Z"/><path class="cls-1" d="M250.8,234.82a.2.2,0,1,0-.2-.2A.2.2,0,0,0,250.8,234.82Z"/><path class="cls-1" d="M258.89,234.67a0,0,0,0,0,0,0,0,0,0,0,0-.08,0A0,0,0,0,0,258.89,234.67Z"/><path class="cls-1" d="M40.47,242.76a0,0,0,0,0,.05,0,0,0,0,0,0-.05,0,0,0,0,0,0,0,0A0,0,0,0,0,40.47,242.76Z"/><path class="cls-1" d="M48.56,242.91a.2.2,0,1,0-.2-.2A.2.2,0,0,0,48.56,242.91Z"/><path class="cls-1" d="M56.65,243.07a.36.36,0,1,0-.36-.36A.36.36,0,0,0,56.65,243.07Z"/><circle class="cls-1" cx="64.74" cy="242.71" r="0.52"/><path class="cls-1" d="M72.83,243.36a.65.65,0,1,0-.65-.65A.65.65,0,0,0,72.83,243.36Z"/><path class="cls-1" d="M80.92,243.5a.79.79,0,0,0,.78-.79.79.79,0,0,0-1.57,0A.79.79,0,0,0,80.92,243.5Z"/><path class="cls-1" d="M89,243.61a.9.9,0,1,0-.9-.9A.9.9,0,0,0,89,243.61Z"/><path class="cls-1" d="M97.1,243.72a1,1,0,1,0-1-1A1,1,0,0,0,97.1,243.72Z"/><path class="cls-1" d="M105.19,243.81a1.1,1.1,0,1,0-1.1-1.1A1.1,1.1,0,0,0,105.19,243.81Z"/><path class="cls-1" d="M113.28,243.9a1.19,1.19,0,1,0-1.19-1.19A1.19,1.19,0,0,0,113.28,243.9Z"/><path class="cls-1" d="M121.37,243.94a1.23,1.23,0,1,0-1.24-1.23A1.23,1.23,0,0,0,121.37,243.94Z"/><path class="cls-1" d="M129.46,244a1.28,1.28,0,1,0-1.28-1.28A1.27,1.27,0,0,0,129.46,244Z"/><path class="cls-1" d="M137.55,244a1.32,1.32,0,1,0-1.33-1.32A1.32,1.32,0,0,0,137.55,244Z"/><path class="cls-1" d="M145.64,244a1.32,1.32,0,1,0-1.33-1.32A1.32,1.32,0,0,0,145.64,244Z"/><path class="cls-1" d="M153.73,244a1.32,1.32,0,1,0-1.33-1.32A1.32,1.32,0,0,0,153.73,244Z"/><path class="cls-1" d="M161.81,244a1.3,1.3,0,1,0-1.3-1.3A1.31,1.31,0,0,0,161.81,244Z"/><path class="cls-1" d="M169.9,244a1.26,1.26,0,1,0-1.25-1.26A1.26,1.26,0,0,0,169.9,244Z"/><path class="cls-1" d="M178,243.9a1.19,1.19,0,1,0-1.19-1.19A1.19,1.19,0,0,0,178,243.9Z"/><path class="cls-1" d="M186.08,243.81a1.1,1.1,0,1,0-1.1-1.1A1.1,1.1,0,0,0,186.08,243.81Z"/><path class="cls-1" d="M194.17,243.72a1,1,0,1,0-1-1A1,1,0,0,0,194.17,243.72Z"/><path class="cls-1" d="M202.26,243.63a.92.92,0,1,0-.92-.92A.92.92,0,0,0,202.26,243.63Z"/><path class="cls-1" d="M210.35,243.5a.79.79,0,0,0,.79-.79.79.79,0,1,0-.79.79Z"/><path class="cls-1" d="M218.44,243.36a.65.65,0,1,0-.65-.65A.65.65,0,0,0,218.44,243.36Z"/><circle class="cls-1" cx="226.53" cy="242.71" r="0.52"/><path class="cls-1" d="M234.62,243.09a.38.38,0,1,0-.38-.38A.38.38,0,0,0,234.62,243.09Z"/><path class="cls-1" d="M242.71,242.94a.24.24,0,0,0,.23-.23.23.23,0,0,0-.23-.22.22.22,0,0,0-.22.22A.23.23,0,0,0,242.71,242.94Z"/><path class="cls-1" d="M250.8,242.78a.07.07,0,1,0-.07-.07A.07.07,0,0,0,250.8,242.78Z"/><path class="cls-1" d="M48.56,250.87a.07.07,0,1,0-.07-.07A.07.07,0,0,0,48.56,250.87Z"/><path class="cls-1" d="M56.65,251a.2.2,0,1,0-.2-.2A.2.2,0,0,0,56.65,251Z"/><path class="cls-1" d="M64.74,251.14a.34.34,0,1,0-.34-.34A.34.34,0,0,0,64.74,251.14Z"/><path class="cls-1" d="M72.83,251.27a.47.47,0,1,0-.47-.47A.47.47,0,0,0,72.83,251.27Z"/><path class="cls-1" d="M80.92,251.38a.58.58,0,1,0-.58-.58A.58.58,0,0,0,80.92,251.38Z"/><path class="cls-1" d="M89,251.5a.7.7,0,1,0-.7-.7A.7.7,0,0,0,89,251.5Z"/><path class="cls-1" d="M97.1,251.61a.81.81,0,1,0-.81-.81A.81.81,0,0,0,97.1,251.61Z"/><path class="cls-1" d="M105.19,251.7a.9.9,0,1,0-.9-.9A.89.89,0,0,0,105.19,251.7Z"/><path class="cls-1" d="M113.28,251.76a1,1,0,1,0-1-1A1,1,0,0,0,113.28,251.76Z"/><path class="cls-1" d="M121.37,251.83a1,1,0,1,0-1-1A1,1,0,0,0,121.37,251.83Z"/><path class="cls-1" d="M129.46,251.88a1.08,1.08,0,1,0-1.08-1.08A1.08,1.08,0,0,0,129.46,251.88Z"/><path class="cls-1" d="M137.55,251.9a1.1,1.1,0,1,0-1.1-1.1A1.09,1.09,0,0,0,137.55,251.9Z"/><path class="cls-1" d="M145.64,251.9a1.1,1.1,0,1,0-1.1-1.1A1.09,1.09,0,0,0,145.64,251.9Z"/><path class="cls-1" d="M153.73,251.9a1.1,1.1,0,1,0-1.1-1.1A1.09,1.09,0,0,0,153.73,251.9Z"/><path class="cls-1" d="M161.81,251.88a1.08,1.08,0,1,0-1.07-1.08A1.08,1.08,0,0,0,161.81,251.88Z"/><path class="cls-1" d="M169.9,251.83a1,1,0,1,0-1-1A1,1,0,0,0,169.9,251.83Z"/><path class="cls-1" d="M178,251.76a1,1,0,1,0-1-1A1,1,0,0,0,178,251.76Z"/><path class="cls-1" d="M186.08,251.7a.9.9,0,1,0-.89-.9A.9.9,0,0,0,186.08,251.7Z"/><path class="cls-1" d="M194.17,251.61a.81.81,0,1,0-.8-.81A.81.81,0,0,0,194.17,251.61Z"/><path class="cls-1" d="M202.26,251.52a.72.72,0,1,0-.72-.72A.72.72,0,0,0,202.26,251.52Z"/><path class="cls-1" d="M210.35,251.41a.61.61,0,1,0-.6-.61A.61.61,0,0,0,210.35,251.41Z"/><path class="cls-1" d="M218.44,251.27a.47.47,0,1,0-.47-.47A.47.47,0,0,0,218.44,251.27Z"/><path class="cls-1" d="M226.53,251.14a.34.34,0,0,0,0-.68.34.34,0,0,0,0,.68Z"/><path class="cls-1" d="M234.62,251a.2.2,0,1,0-.2-.2A.2.2,0,0,0,234.62,251Z"/><path class="cls-1" d="M242.71,250.87a.07.07,0,1,0-.07-.07A.07.07,0,0,0,242.71,250.87Z"/><path class="cls-1" d="M56.65,258.93a0,0,0,0,0,0-.08,0,0,0,1,0,0,.08Z"/><path class="cls-1" d="M64.74,259.05a.16.16,0,1,0-.16-.16A.16.16,0,0,0,64.74,259.05Z"/><path class="cls-1" d="M72.83,259.18a.29.29,0,1,0-.29-.29A.29.29,0,0,0,72.83,259.18Z"/><path class="cls-1" d="M80.92,259.29a.4.4,0,0,0,0-.8.4.4,0,1,0,0,.8Z"/><circle class="cls-1" cx="89.01" cy="258.89" r="0.52"/><path class="cls-1" d="M97.1,259.5a.61.61,0,1,0-.61-.61A.61.61,0,0,0,97.1,259.5Z"/><path class="cls-1" d="M105.19,259.56a.67.67,0,1,0,0-1.34.67.67,0,1,0,0,1.34Z"/><path class="cls-1" d="M113.28,259.65a.76.76,0,1,0,0-1.52.76.76,0,1,0,0,1.52Z"/><path class="cls-1" d="M121.37,259.7a.81.81,0,1,0-.81-.81A.8.8,0,0,0,121.37,259.7Z"/><path class="cls-1" d="M129.46,259.74a.85.85,0,0,0,0-1.7.85.85,0,1,0,0,1.7Z"/><path class="cls-1" d="M137.55,259.76a.87.87,0,1,0-.88-.87A.87.87,0,0,0,137.55,259.76Z"/><path class="cls-1" d="M145.64,259.76a.87.87,0,1,0-.88-.87A.87.87,0,0,0,145.64,259.76Z"/><path class="cls-1" d="M153.73,259.76a.87.87,0,1,0-.88-.87A.87.87,0,0,0,153.73,259.76Z"/><path class="cls-1" d="M161.81,259.74a.85.85,0,1,0-.85-.85A.85.85,0,0,0,161.81,259.74Z"/><path class="cls-1" d="M169.9,259.7a.81.81,0,1,0-.8-.81A.81.81,0,0,0,169.9,259.7Z"/><path class="cls-1" d="M178,259.65a.76.76,0,1,0-.76-.76A.76.76,0,0,0,178,259.65Z"/><path class="cls-1" d="M186.08,259.59a.7.7,0,1,0-.69-.7A.7.7,0,0,0,186.08,259.59Z"/><path class="cls-1" d="M194.17,259.5a.61.61,0,1,0-.6-.61A.61.61,0,0,0,194.17,259.5Z"/><circle class="cls-1" cx="202.26" cy="258.89" r="0.52"/><path class="cls-1" d="M210.35,259.29a.4.4,0,1,0-.4-.4A.4.4,0,0,0,210.35,259.29Z"/><path class="cls-1" d="M218.44,259.18a.29.29,0,1,0-.29-.29A.29.29,0,0,0,218.44,259.18Z"/><path class="cls-1" d="M226.53,259.07a.18.18,0,1,0-.18-.18A.18.18,0,0,0,226.53,259.07Z"/><path class="cls-1" d="M234.62,258.93a0,0,0,1,0,0-.08,0,0,0,1,0,0,.08Z"/><path class="cls-1" d="M64.74,267l0,0a0,0,0,0,0,0,0l0,0Z"/><path class="cls-1" d="M72.83,267.07a.09.09,0,1,0-.09-.09A.09.09,0,0,0,72.83,267.07Z"/><path class="cls-1" d="M80.92,267.18a.2.2,0,1,0-.2-.2A.2.2,0,0,0,80.92,267.18Z"/><path class="cls-1" d="M89,267.29a.31.31,0,1,0-.32-.31A.31.31,0,0,0,89,267.29Z"/><path class="cls-1" d="M97.1,267.38a.4.4,0,1,0-.41-.4A.4.4,0,0,0,97.1,267.38Z"/><path class="cls-1" d="M105.19,267.45a.47.47,0,1,0-.47-.47A.47.47,0,0,0,105.19,267.45Z"/><path class="cls-1" d="M113.28,267.52a.54.54,0,1,0,0-1.08.54.54,0,0,0,0,1.08Z"/><path class="cls-1" d="M121.37,267.56a.58.58,0,1,0-.59-.58A.58.58,0,0,0,121.37,267.56Z"/><path class="cls-1" d="M129.46,267.61a.63.63,0,1,0-.63-.63A.63.63,0,0,0,129.46,267.61Z"/><path class="cls-1" d="M137.55,267.63a.65.65,0,1,0-.65-.65A.66.66,0,0,0,137.55,267.63Z"/><path class="cls-1" d="M145.64,267.63A.65.65,0,1,0,145,267,.66.66,0,0,0,145.64,267.63Z"/><path class="cls-1" d="M153.73,267.63a.65.65,0,1,0-.66-.65A.66.66,0,0,0,153.73,267.63Z"/><path class="cls-1" d="M161.81,267.61a.63.63,0,1,0-.62-.63A.63.63,0,0,0,161.81,267.61Z"/><path class="cls-1" d="M169.9,267.56a.58.58,0,1,0-.58-.58A.58.58,0,0,0,169.9,267.56Z"/><path class="cls-1" d="M178,267.52a.54.54,0,1,0-.53-.54A.54.54,0,0,0,178,267.52Z"/><path class="cls-1" d="M186.08,267.45a.47.47,0,1,0-.47-.47A.47.47,0,0,0,186.08,267.45Z"/><path class="cls-1" d="M194.17,267.38a.4.4,0,1,0-.4-.4A.4.4,0,0,0,194.17,267.38Z"/><path class="cls-1" d="M202.26,267.29A.31.31,0,1,0,202,267,.31.31,0,0,0,202.26,267.29Z"/><path class="cls-1" d="M210.35,267.2a.22.22,0,1,0,0-.44.22.22,0,0,0,0,.44Z"/><path class="cls-1" d="M218.44,267.09a.11.11,0,1,0-.11-.11A.11.11,0,0,0,218.44,267.09Z"/><path class="cls-1" d="M226.53,267l0,0,0,0,0,0Z"/><path class="cls-1" d="M80.92,275.11a0,0,0,0,0,0,0,0,0,0,0,0,0-.05,0,0,0,0,0,0,.05A0,0,0,0,0,80.92,275.11Z"/><path class="cls-1" d="M89,275.18a.11.11,0,1,0-.11-.11A.11.11,0,0,0,89,275.18Z"/><path class="cls-1" d="M97.1,275.25a.18.18,0,1,0-.18-.18A.18.18,0,0,0,97.1,275.25Z"/><path class="cls-1" d="M105.19,275.34a.27.27,0,1,0-.27-.27A.27.27,0,0,0,105.19,275.34Z"/><path class="cls-1" d="M113.28,275.38a.31.31,0,1,0-.32-.31A.31.31,0,0,0,113.28,275.38Z"/><path class="cls-1" d="M121.37,275.45a.38.38,0,1,0-.38-.38A.38.38,0,0,0,121.37,275.45Z"/><path class="cls-1" d="M129.46,275.47a.4.4,0,1,0-.41-.4A.4.4,0,0,0,129.46,275.47Z"/><path class="cls-1" d="M137.55,275.5a.43.43,0,0,0,.42-.43.43.43,0,1,0-.85,0A.43.43,0,0,0,137.55,275.5Z"/><path class="cls-1" d="M145.64,275.52a.45.45,0,1,0-.45-.45A.45.45,0,0,0,145.64,275.52Z"/><path class="cls-1" d="M153.73,275.5a.43.43,0,0,0,.42-.43.43.43,0,1,0-.85,0A.43.43,0,0,0,153.73,275.5Z"/><path class="cls-1" d="M161.81,275.47a.4.4,0,1,0-.4-.4A.4.4,0,0,0,161.81,275.47Z"/><path class="cls-1" d="M169.9,275.45a.38.38,0,1,0,0-.76.38.38,0,0,0,0,.76Z"/><path class="cls-1" d="M178,275.41a.34.34,0,1,0-.33-.34A.34.34,0,0,0,178,275.41Z"/><path class="cls-1" d="M186.08,275.34a.27.27,0,1,0-.27-.27A.27.27,0,0,0,186.08,275.34Z"/><path class="cls-1" d="M194.17,275.27a.2.2,0,1,0-.2-.2A.2.2,0,0,0,194.17,275.27Z"/><path class="cls-1" d="M202.26,275.18a.11.11,0,1,0-.11-.11A.11.11,0,0,0,202.26,275.18Z"/><path class="cls-1" d="M210.35,275.11a0,0,0,0,0,.05,0,0,0,0,0,0-.05-.05,0,0,0,0,0,0,.05A0,0,0,0,0,210.35,275.11Z"/><path class="cls-1" d="M97.1,283.18l0,0a0,0,0,0,0,0,0,0,0,0,0,0,0,0Z"/><path class="cls-1" d="M105.19,283.23a.07.07,0,0,0,0-.14.07.07,0,0,0,0,.14Z"/><path class="cls-1" d="M113.28,283.27a.11.11,0,0,0,0-.22.11.11,0,1,0,0,.22Z"/><path class="cls-1" d="M121.37,283.32a.16.16,0,0,0,0-.32.16.16,0,1,0,0,.32Z"/><path class="cls-1" d="M129.46,283.34a.18.18,0,1,0-.18-.18A.18.18,0,0,0,129.46,283.34Z"/><path class="cls-1" d="M137.55,283.36a.2.2,0,0,0,0-.4.2.2,0,1,0,0,.4Z"/><path class="cls-1" d="M145.64,283.38a.22.22,0,0,0,.22-.22.23.23,0,1,0-.45,0A.22.22,0,0,0,145.64,283.38Z"/><path class="cls-1" d="M153.73,283.36a.2.2,0,0,0,0-.4.2.2,0,1,0,0,.4Z"/><path class="cls-1" d="M161.81,283.34a.18.18,0,1,0,0-.36.18.18,0,0,0,0,.36Z"/><path class="cls-1" d="M169.9,283.32a.16.16,0,1,0,0-.32.16.16,0,0,0,0,.32Z"/><path class="cls-1" d="M178,283.27a.11.11,0,1,0,0-.22.11.11,0,0,0,0,.22Z"/><path class="cls-1" d="M186.08,283.23a.07.07,0,0,0,0-.14.07.07,0,0,0,0,.14Z"/><path class="cls-1" d="M194.17,283.18s0,0,0,0,0,0,0,0a0,0,0,0,0,0,0Z"/><path class="cls-1" d="M129.46,291.27l0,0,0,0s0,0,0,0S129.44,291.27,129.46,291.27Z"/><path class="cls-1" d="M137.55,291.27l0,0,0,0s0,0,0,0S137.53,291.27,137.55,291.27Z"/><path class="cls-1" d="M145.64,291.27l0,0,0,0s0,0,0,0S145.62,291.27,145.64,291.27Z"/><path class="cls-1" d="M153.73,291.27l0,0,0,0s0,0,0,0S153.71,291.27,153.73,291.27Z"/><path class="cls-1" d="M161.81,291.27s0,0,0,0,0,0,0,0l0,0Z"/></g></g></svg>