<svg xmlns="http://www.w3.org/2000/svg" viewBox="0 0 2038.65 163.33"><defs><style>.cls-1{fill:none;}</style></defs><title>Asset 19</title><g id="Layer_2" data-name="Layer 2"><g id="Layer_1-2" data-name="Layer 1"><g id="_5e137950-f22d-4981-ae3b-3e4b74257bc1" data-name="5e137950-f22d-4981-ae3b-3e4b74257bc1"><g id="_5e137950-f22d-4981-ae3b-3e4b74257bc1-child-0" data-name="5e137950-f22d-4981-ae3b-3e4b74257bc1-child-0"><path d="M26.56,118.76a26.8,26.8,0,0,0-3.2,11.06,18,18,0,0,0,.18,2.84L1.24,94.33A10,10,0,0,1,0,89.69a10.81,10.81,0,0,1,1.24-4.81L12,66.16,0,59.39l38.87-.72,18.9,34.07L45.65,85.79Zm17.13-108a17.4,17.4,0,0,1,15.68-9.1c7.33,0,13,3.4,17.11,10.35l6.07,10.15-21,36.39-34-19.8Zm2.49,138.9a18.66,18.66,0,0,1-18.55-18.55,25.06,25.06,0,0,1,3-10.7l5.7-10.15H78.63v39.4Zm33.88-140A21.92,21.92,0,0,0,69.54,0H113.4c3.93,0,6.94,1.61,8.75,4.65L133,23.2l11.76-7L125.88,50.13,87.2,49.58l12-6.77Zm67.58,100.93a21.59,21.59,0,0,0,13.55-4.28l-22.11,38.51a9.88,9.88,0,0,1-8.73,4.82H109.47v13.72L89.5,130l20-33.35v13.92Zm17.11-32.1a18.41,18.41,0,0,1,2.51,9.09,19.83,19.83,0,0,1-9.81,16.4,22.22,22.22,0,0,1-10.15,2.33H135.51l-21-36.38,34.05-19.44Z"/></g></g><g id="b069bd9e-da98-4d8a-9ad5-8bfb335ebbe6"><g id="b069bd9e-da98-4d8a-9ad5-8bfb335ebbe6-child-0"><path d="M629.94,5.05V157.69H605.62V5.05Z"/></g><g id="b069bd9e-da98-4d8a-9ad5-8bfb335ebbe6-child-1"><path d="M471.14,5.05V157.69H446.82V5.05Z"/></g><g id="b069bd9e-da98-4d8a-9ad5-8bfb335ebbe6-child-2"><path d="M590.38,5.05V157.69H578.22V5.05Z"/></g><g id="b069bd9e-da98-4d8a-9ad5-8bfb335ebbe6-child-3"><path d="M514.53,5.05V157.69H502.37V5.05Z"/></g><g id="b069bd9e-da98-4d8a-9ad5-8bfb335ebbe6-child-4"><path d="M493.22,5.05V157.69H481.06V5.05Z"/></g><g id="b069bd9e-da98-4d8a-9ad5-8bfb335ebbe6-child-5"><path d="M441.47,5.05V157.69H429.31V5.05Z"/></g><g id="b069bd9e-da98-4d8a-9ad5-8bfb335ebbe6-child-6"><path d="M420.21,5.05V157.69h-6.16V5.05Z"/></g><g id="b069bd9e-da98-4d8a-9ad5-8bfb335ebbe6-child-7"><path d="M562.46,5.05V157.69H526V5.05Z"/></g></g><g id="_7018d54c-4712-47c0-85b5-3fa5c83298f6" data-name="7018d54c-4712-47c0-85b5-3fa5c83298f6"><g id="_7018d54c-4712-47c0-85b5-3fa5c83298f6-child-0" data-name="7018d54c-4712-47c0-85b5-3fa5c83298f6-child-0"><path d="M728.41,5.05V157.69H704.09V5.05Z"/></g><g id="_7018d54c-4712-47c0-85b5-3fa5c83298f6-child-1" data-name="7018d54c-4712-47c0-85b5-3fa5c83298f6-child-1"><path d="M569.61,5.05V157.69H545.29V5.05Z"/></g><g id="_7018d54c-4712-47c0-85b5-3fa5c83298f6-child-2" data-name="7018d54c-4712-47c0-85b5-3fa5c83298f6-child-2"><path d="M688.85,5.05V157.69H676.69V5.05Z"/></g><g id="_7018d54c-4712-47c0-85b5-3fa5c83298f6-child-3" data-name="7018d54c-4712-47c0-85b5-3fa5c83298f6-child-3"><path d="M613,5.05V157.69H600.84V5.05Z"/></g><g id="_7018d54c-4712-47c0-85b5-3fa5c83298f6-child-4" data-name="7018d54c-4712-47c0-85b5-3fa5c83298f6-child-4"><path d="M591.7,5.05V157.69H579.54V5.05Z"/></g><g id="_7018d54c-4712-47c0-85b5-3fa5c83298f6-child-5" data-name="7018d54c-4712-47c0-85b5-3fa5c83298f6-child-5"><path d="M540,5.05V157.69H527.78V5.05Z"/></g><g id="_7018d54c-4712-47c0-85b5-3fa5c83298f6-child-6" data-name="7018d54c-4712-47c0-85b5-3fa5c83298f6-child-6"><path d="M518.68,5.05V157.69h-6.15V5.05Z"/></g><g id="_7018d54c-4712-47c0-85b5-3fa5c83298f6-child-7" data-name="7018d54c-4712-47c0-85b5-3fa5c83298f6-child-7"><path d="M660.93,5.05V157.69H624.45V5.05Z"/></g></g><g id="_3edd2b23-a04b-4753-83d1-07da540bd3e1" data-name="3edd2b23-a04b-4753-83d1-07da540bd3e1"><g id="_3edd2b23-a04b-4753-83d1-07da540bd3e1-child-0" data-name="3edd2b23-a04b-4753-83d1-07da540bd3e1-child-0"><path class="cls-1" d="M1786.14,140.48c27.75,14.13,64.45,21.92,103.36,21.92s75.6-7.79,103.35-21.92c29.52-15,45.8-35.71,45.8-58.17s-16.28-43.12-45.8-58.17C1965.1,10,1928.4,2.23,1889.5,2.23S1813.9,10,1786.15,24.14c-29.53,15-45.8,35.71-45.8,58.17S1756.61,125.43,1786.14,140.48Z"/></g><g id="_3edd2b23-a04b-4753-83d1-07da540bd3e1-child-1" data-name="3edd2b23-a04b-4753-83d1-07da540bd3e1-child-1"><path d="M1889.5,155.43c78.41,0,142.19-32.79,142.19-73.11S1967.91,9.2,1889.5,9.2,1747.32,42,1747.32,82.32,1811.09,155.43,1889.5,155.43ZM1751,90.42c9.72,10.26,37.62,17.85,71.92,22.11a73.49,73.49,0,0,0,43.48,39.14C1805.69,146.55,1758.14,121.55,1751,90.42Zm139.87,26a554.34,554.34,0,0,0,61.92-3.54,70.41,70.41,0,0,1-61.92,39.69Zm0-2.79V51.57a551.75,551.75,0,0,1,63.47,3.59,70.25,70.25,0,0,1-.24,54.86A542.66,542.66,0,0,1,1890.89,113.67Zm0-64.88V12a70.38,70.38,0,0,1,62.18,40.28A563.59,563.59,0,0,0,1890.89,48.79Zm-2.79,0a563.91,563.91,0,0,0-62.19,3.5A70.4,70.4,0,0,1,1888.1,12Zm0,2.79v62.09a545.27,545.27,0,0,1-63.24-3.64,70.21,70.21,0,0,1-.24-54.84A551.54,551.54,0,0,1,1888.1,51.58Zm0,64.88v36.15a70.41,70.41,0,0,1-61.92-39.69A554.2,554.2,0,0,0,1888.1,116.46Zm24.48,35.22a73.47,73.47,0,0,0,43.48-39.15c34.29-4.26,62.19-11.85,71.9-22.11C2020.85,121.55,1973.31,146.55,1912.58,151.68Zm76.16-47.56c-9.46,2.2-20,4-31.44,5.51a72.84,72.84,0,0,0,.22-54.08c44.39,5.65,71.38,16.46,71.38,26.76C2028.9,90.23,2014.26,98.18,1988.74,104.12ZM2028,74.39c-9.66-10.07-37.46-17.52-71.71-21.72A73.46,73.46,0,0,0,1912.58,13C1973.43,18.08,2021.05,43.18,2028,74.39Zm-161.6-61.45a73.48,73.48,0,0,0-43.74,39.73c-34.23,4.2-62,11.66-71.69,21.72,7-31.21,54.58-56.31,115.43-61.44Zm-76.16,48c9.39-2.15,19.91-3.94,31.21-5.38a72.89,72.89,0,0,0,.23,54.06c-11.39-1.46-22-3.31-31.44-5.51-25.52-5.94-40.16-13.89-40.16-21.81,0-7.74,14.64-15.53,40.16-21.36Z"/></g></g><g id="_7e40dbfc-9adf-4c10-aa93-ca8dc7c1c3f6" data-name="7e40dbfc-9adf-4c10-aa93-ca8dc7c1c3f6"><g id="_7e40dbfc-9adf-4c10-aa93-ca8dc7c1c3f6-child-0" data-name="7e40dbfc-9adf-4c10-aa93-ca8dc7c1c3f6-child-0"><path d="M1227.22,108.28v54.49h54.5v-53.5h52.51v53.5h54.5v-53.5h52.5v53.5h54.5V108.28h-53.5V55.77h53.5V1.27h-54.5v53.5h-52.5V1.27h-54.5v53.5h-52.51V1.27h-54.5v54.5h53.51v52.51Zm108-52.51h52.51v52.51h-52.51Z"/></g></g><g id="_631bcb38-5ebb-4783-89ab-2ae93d82eecf" data-name="631bcb38-5ebb-4783-89ab-2ae93d82eecf"><g id="_631bcb38-5ebb-4783-89ab-2ae93d82eecf-child-0" data-name="631bcb38-5ebb-4783-89ab-2ae93d82eecf-child-0"><path d="M1012.37,108.11V162.6h54.5V109.1h52.51v53.5h54.49V109.1h52.51v53.5h54.5V108.11h-53.5V55.6h53.5V1.1h-54.5V54.6h-52.51V1.1h-54.49V54.6h-52.51V1.1h-54.5V55.6h53.51v52.51Zm108-52.51h52.51v52.51h-52.51Z"/></g></g><g id="_196964e7-e1fa-489a-874b-29ab6e40fd38" data-name="196964e7-e1fa-489a-874b-29ab6e40fd38"><g id="_196964e7-e1fa-489a-874b-29ab6e40fd38-child-0" data-name="196964e7-e1fa-489a-874b-29ab6e40fd38-child-0"><path d="M806.53,108.23v54.5H861V109.22h52.51v53.51H968V109.22h52.51v53.51H1075v-54.5h-53.5V55.72H1075V1.22h-54.5V54.73H968V1.22H913.54V54.73H861V1.22h-54.5v54.5H860v52.51Zm108-52.51H967v52.51H914.53Z"/></g></g><g id="_8cd5e9c8-9cf9-442b-b205-e1703138fcb6" data-name="8cd5e9c8-9cf9-442b-b205-e1703138fcb6"><g id="_8cd5e9c8-9cf9-442b-b205-e1703138fcb6-child-0" data-name="8cd5e9c8-9cf9-442b-b205-e1703138fcb6-child-0"><path d="M1629.46,43.58A37.49,37.49,0,0,1,1592,81h-41.84v2.07H1592a37.48,37.48,0,0,1,37.45,37.45V162.4h2.07V120.59A37.49,37.49,0,0,1,1669,83.14h41.8V81.07H1669a37.5,37.5,0,0,1-37.46-37.46V1.81h-2.07v41.8Z"/></g></g><g id="_379ec3ea-4a53-44b8-9cc6-59c9ad274e73" data-name="379ec3ea-4a53-44b8-9cc6-59c9ad274e73"><g id="_379ec3ea-4a53-44b8-9cc6-59c9ad274e73-child-0" data-name="379ec3ea-4a53-44b8-9cc6-59c9ad274e73-child-0"><path d="M249.16,107.14V63.75h-10V52.63H263v54.51Z"/></g><g id="_379ec3ea-4a53-44b8-9cc6-59c9ad274e73-child-1" data-name="379ec3ea-4a53-44b8-9cc6-59c9ad274e73-child-1"><path d="M315,66.7A12.74,12.74,0,0,1,308.19,78c6,2.49,9.72,7.7,9.72,13.77,0,9.79-8.71,16-22.32,16S273.27,101.62,273.27,92c0-6.22,4-11.51,10.34-14-4.59-2.57-7.54-6.92-7.54-11.67,0-8.71,7.62-14.23,19.44-14.23C307.49,52.08,315,57.76,315,66.7Zm-28.7,23.88c0,4.59,3.27,7.15,9.26,7.15s9.33-2.48,9.33-7.15c0-4.51-3.34-7.08-9.33-7.08S286.33,86.07,286.33,90.58Zm1.4-23.1c0,3.89,2.8,6.07,7.86,6.07s7.85-2.18,7.85-6.07c0-4-2.8-6.3-7.85-6.3S287.73,63.44,287.73,67.48Z"/></g><g id="_379ec3ea-4a53-44b8-9cc6-59c9ad274e73-child-2" data-name="379ec3ea-4a53-44b8-9cc6-59c9ad274e73-child-2"><path d="M340.94,58.78A65.84,65.84,0,1,1,299.66,17.5V2.83a79.85,79.85,0,1,0,55.95,56Z"/></g><g id="_379ec3ea-4a53-44b8-9cc6-59c9ad274e73-child-3" data-name="379ec3ea-4a53-44b8-9cc6-59c9ad274e73-child-3"><path d="M337,21.44V6.11h-11V21.44H310.7v11h15.24V47.79h11V32.46h15.32v-11Z"/></g></g></g></g></svg>