<svg xmlns="http://www.w3.org/2000/svg" viewBox="0 0 3023.19 242.27"><defs><style>.cls-1{fill:#1d1714;}.cls-2{fill:#fff;}</style></defs><title>Asset 21</title><g id="Layer_2" data-name="Layer 2"><g id="Layer_1-2" data-name="Layer 1"><g id="_8476adc6-537a-4c67-a310-e626e2967838" data-name="8476adc6-537a-4c67-a310-e626e2967838"><g id="_8476adc6-537a-4c67-a310-e626e2967838-child-0" data-name="8476adc6-537a-4c67-a310-e626e2967838-child-0"><path class="cls-1" d="M0,22.17H15V184.92H0ZM24.22,184.92h8.36V22.17H24.22Zm14.37,0h8.52V22.17H38.59Zm19.54,0H76.68V22.17H58.13Zm33.25,0h9.19V22.17H91.38Zm23.55,0h38.26V22.17H114.93Zm99.57,0H227V22.17H214.5ZM238.05,22.17V184.92h17V22.17ZM168.39,184.92h8.35V22.17h-8.35Zm20.05,0h8.18V22.17h-8.18Z"/></g></g><g id="_8263661d-4376-4382-a39e-4990b8ea8d09" data-name="8263661d-4376-4382-a39e-4990b8ea8d09"><g id="_8263661d-4376-4382-a39e-4990b8ea8d09-child-0" data-name="8263661d-4376-4382-a39e-4990b8ea8d09-child-0"><path class="cls-1" d="M215.3,21.62h15V184.37h-15Zm24.23,162.75h8.35V21.62h-8.35Zm14.36,0h8.52V21.62h-8.52Zm19.55,0H292V21.62H273.44Zm33.24,0h9.19V21.62h-9.19Zm23.56,0h38.25V21.62H330.24Zm99.56,0h12.53V21.62H429.8ZM453.35,21.62V184.37h17V21.62ZM383.69,184.37h8.36V21.62h-8.36Zm20.05,0h8.18V21.62h-8.18Z"/></g></g><g id="_4340e364-c3b4-4f52-a8b7-3429fc2f0e6b" data-name="4340e364-c3b4-4f52-a8b7-3429fc2f0e6b"><g id="_4340e364-c3b4-4f52-a8b7-3429fc2f0e6b-child-0" data-name="4340e364-c3b4-4f52-a8b7-3429fc2f0e6b-child-0"><path class="cls-1" d="M714.6,21.62h-15V184.37h15ZM690.38,184.37H682V21.62h8.35Zm-14.37,0h-8.52V21.62H676Zm-19.54,0H637.92V21.62h18.55Zm-33.25,0H614V21.62h9.18Zm-23.55,0H561.41V21.62h38.26Zm-99.56,0H487.58V21.62h12.53ZM476.55,21.62V184.37h-17V21.62Zm69.66,162.75h-8.35V21.62h8.35Zm-20,0H518V21.62h8.19Z"/></g></g><g id="_7924b408-1c92-4f26-ba28-27936ffc35f6" data-name="7924b408-1c92-4f26-ba28-27936ffc35f6"><g id="_7924b408-1c92-4f26-ba28-27936ffc35f6-child-0" data-name="7924b408-1c92-4f26-ba28-27936ffc35f6-child-0"><path class="cls-1" d="M2277.53,179.82a60.29,60.29,0,1,1,16.73-118.21l-5.85,20.27a39.18,39.18,0,1,0,0,75.3l5.85,20.28A60.48,60.48,0,0,1,2277.53,179.82Z"/></g><g id="_7924b408-1c92-4f26-ba28-27936ffc35f6-child-1" data-name="7924b408-1c92-4f26-ba28-27936ffc35f6-child-1"><path class="cls-1" d="M2367.63,158.71a39.23,39.23,0,0,1-37.73-28.62h28.67V109H2329.9a39.26,39.26,0,0,1,48.61-27.1l5.85-20.27a60.29,60.29,0,1,0,0,115.85l-5.85-20.28A39.07,39.07,0,0,1,2367.63,158.71Z"/></g></g><g id="ceb8dc95-3e12-4138-b4a3-2fb6e02820c7"><g id="ceb8dc95-3e12-4138-b4a3-2fb6e02820c7-child-0"><path class="cls-1" d="M2445.22,151a20.29,20.29,0,0,0-2.43,8.37,14,14,0,0,0,.14,2.15l-16.87-29a7.46,7.46,0,0,1-.94-3.51,8,8,0,0,1,.94-3.64l8.11-14.17-9.05-5.12,29.41-.55,14.3,25.78-9.17-5.26Zm13-81.75A13.18,13.18,0,0,1,2470,62.33c5.54,0,9.85,2.56,12.95,7.83l4.58,7.68-15.91,27.53-25.77-15Zm1.89,105.09a14.1,14.1,0,0,1-14-14,18.93,18.93,0,0,1,2.29-8.1l4.31-7.67h32v29.8Zm25.63-105.9a16.5,16.5,0,0,0-8-7.29h33.19a7.26,7.26,0,0,1,6.62,3.51l8.23,14,8.9-5.26L2520.36,99l-29.26-.41,9.05-5.12Zm51.14,76.36a16.33,16.33,0,0,0,10.25-3.24l-16.73,29.14a7.47,7.47,0,0,1-6.61,3.64h-15.8v10.39l-15.11-25.23,15.11-25.23v10.53Zm12.94-24.29a14,14,0,0,1,1.9,6.88,15,15,0,0,1-7.42,12.41,16.8,16.8,0,0,1-7.68,1.76h-8.92L2511.74,114l25.77-14.71Z"/></g></g><g id="_9acc1d7f-49ab-461b-bd59-a673c3b87fbf" data-name="9acc1d7f-49ab-461b-bd59-a673c3b87fbf"><g id="_9acc1d7f-49ab-461b-bd59-a673c3b87fbf-child-0" data-name="9acc1d7f-49ab-461b-bd59-a673c3b87fbf-child-0"><path class="cls-1" d="M2076.82,147.64s8.33,25,39.58,32.37v-9.29c31.86,0,57.69-20.07,57.69-51.93a57.69,57.69,0,0,0-115.38,0,59.39,59.39,0,0,0,.61,8.39c3.81-24.43,25-43.48,55.64-49.55.24-3.21.49-6.43.78-10.1,25,4.52,39.12,31,39.12,31s-12.18,22-38.09,30l.05-12.78C2086.79,125.41,2076.82,147.64,2076.82,147.64Z"/></g></g><g id="_207c1c05-ba74-4ed0-bcf2-ec03603c51bf" data-name="207c1c05-ba74-4ed0-bcf2-ec03603c51bf"><g id="_207c1c05-ba74-4ed0-bcf2-ec03603c51bf-child-0" data-name="207c1c05-ba74-4ed0-bcf2-ec03603c51bf-child-0"><path class="cls-1" d="M2637.26,178.91c-9.27-.76-21.2-2.8-22.19-3.79-.72-.72-.71-1.87.07-7.47,1-7.25,3.16-29.84,3.82-40.26l.41-6.59,1.34-7.91-1.1-10.35V113l-2,7.17-4.4.29c-6.42.41-12.85-2.31-15.79-4.85-1.31-1.14-1.32-1.24-.34-5.07.8-3.19,9.26-28,12.45-36.5a3.33,3.33,0,0,1,3.06-2.62c4.4-.93,20.57-7.46,21.72-8.78,1.84-2.13,5.68-3,15-3.33,9.7-.36,15.28.37,17.7,2.31,2.08,1.68,5.35,3.13,15.43,6.86,4.66,1.71,9.07,3.42,9.8,3.78,1,.52,2.88,5,8.57,21.15,8.35,23.64,8.32,21.47.43,24.77-3.91,1.63-5.81,2-10.87,2.29l-5,.29-.88-9.94-.43-10.6-.87,10.94,1,9.61.42,6.59c.76,12,2.25,28.18,3.47,37.64,1,7.66,1,9.45.38,10.13-1.05,1-12.73,2.94-23.36,3.8a169.87,169.87,0,0,1-27.9,0ZM2658.38,69.4c4.47-2.25,6.93-5.85,4.61-6.74-3.71-1.43-21.82-.87-23.4.71-1.28,1.28,3.74,5.58,8.18,7.05,2.33.76,8.21.2,10.62-1Z"/></g></g><g id="_35e8ace4-d12b-4b33-8e3d-c9d690951d63" data-name="35e8ace4-d12b-4b33-8e3d-c9d690951d63"><g id="_35e8ace4-d12b-4b33-8e3d-c9d690951d63-child-0" data-name="35e8ace4-d12b-4b33-8e3d-c9d690951d63-child-0"><path class="cls-1" d="M2797.39,225V16.47h208.5V225Z"/></g></g><g id="_02f66630-e1b7-432f-9511-2118bb790a25" data-name="02f66630-e1b7-432f-9511-2118bb790a25"><g id="_02f66630-e1b7-432f-9511-2118bb790a25-child-0" data-name="02f66630-e1b7-432f-9511-2118bb790a25-child-0"><path class="cls-2" d="M2922.29,119.57a18.74,18.74,0,0,1-18.72-18.72V0h-3.12V100.85a18.74,18.74,0,0,1-18.72,18.72H2780.92v3.12h100.86a18.75,18.75,0,0,1,18.72,18.73V242.27h3.12V141.42a18.74,18.74,0,0,1,18.72-18.73h100.85v-3.12h-100.9Z"/></g></g><g id="_84155616-c2eb-433d-9e54-95c70b6c0156" data-name="84155616-c2eb-433d-9e54-95c70b6c0156"><g id="_84155616-c2eb-433d-9e54-95c70b6c0156-child-0" data-name="84155616-c2eb-433d-9e54-95c70b6c0156-child-0"><path class="cls-1" d="M1948.76,87.47V17.36h-70.11V86.19h-67.56V17.36H1741V86.19h-67.56V17.36h-70.11V87.47h68.84V155h-68.84v70.11h70.11V156.3H1741v68.83h70.11V156.3h67.56v68.83h70.11V155h-68.84V87.47Zm-139,67.55h-67.55V87.47h67.55Z"/></g></g><g id="_774a30ce-c5c5-4709-94ad-590e778ef66b" data-name="774a30ce-c5c5-4709-94ad-590e778ef66b"><g id="_774a30ce-c5c5-4709-94ad-590e778ef66b-child-0" data-name="774a30ce-c5c5-4709-94ad-590e778ef66b-child-0"><path class="cls-1" d="M1138.41,5.24c-7.84,54-54.85,96.68-114.56,103.44C964.17,101.92,917.18,59.2,909.29,5.24c-7.82,54-54.83,96.68-114.56,103.44h0c59.73,7.07,106.74,49.49,114.56,103.45,7.86-54,54.85-96.38,114.56-103.45,59.73,7.07,106.74,49.49,114.56,103.45,7.86-54,54.85-96.38,114.56-103.45h0C1193.33,101.92,1146.34,59.2,1138.41,5.24Z"/></g><g id="_774a30ce-c5c5-4709-94ad-590e778ef66b-child-1" data-name="774a30ce-c5c5-4709-94ad-590e778ef66b-child-1"><path class="cls-1" d="M1482.25,108.68c-59.73-6.76-106.75-49.48-114.59-103.44h0c-7.86,54-54.85,96.68-114.56,103.44h0c59.73,7.07,106.72,49.49,114.56,103.45h0c7.84-54,54.86-96.38,114.56-103.45Z"/></g></g></g></g></svg>