<svg xmlns="http://www.w3.org/2000/svg" viewBox="0 0 876.15 239.38"><defs><style>.cls-1{fill:none;stroke:#000;stroke-linecap:round;stroke-miterlimit:10;stroke-width:10.24px;}</style></defs><title>Asset 23</title><g id="Layer_2" data-name="Layer 2"><g id="Layer_1-2" data-name="Layer 1"><g id="_869de899-aede-46dc-8c6a-e0398371b901" data-name="869de899-aede-46dc-8c6a-e0398371b901"><g id="_869de899-aede-46dc-8c6a-e0398371b901-child-0" data-name="869de899-aede-46dc-8c6a-e0398371b901-child-0"><path class="cls-1" d="M5.12,234.26V5.12H871V234.26Z"/></g></g><g id="_0df69aa6-05c0-4a1e-8a0b-59e5d88f5cfd" data-name="0df69aa6-05c0-4a1e-8a0b-59e5d88f5cfd"><g id="_2eea27e6-4bd6-4f91-9d8b-23245dea3d43" data-name="2eea27e6-4bd6-4f91-9d8b-23245dea3d43"><path d="M166.76,68l-2,13.42H113.72v30.44H160v13.41H113.72V158h52l2.1,13.41H99V68Zm55-1.5q17,0,26.75,7.53t9.72,21.4v1.81H243.45V95a12.62,12.62,0,0,0-5.87-11.15q-5.88-3.91-15.53-3.92-10.7,0-16.64,3.54a11.2,11.2,0,0,0-5.95,10.17,10.65,10.65,0,0,0,3.39,8.14,24,24,0,0,0,8.43,5q5.06,1.82,13.94,4.07a158.79,158.79,0,0,1,18.53,5.88,31.88,31.88,0,0,1,12.14,8.59q5,5.71,5,15.22,0,16.88-10.32,24.64t-29,7.76q-18.67,0-29-7.91t-10.31-23l.15-3h14.76l-.15,3.17q0,8.75,6.55,13t18.16,4.3q11.31,0,17.86-4.15t6.56-11.38a12.5,12.5,0,0,0-3.55-9.26,23.82,23.82,0,0,0-8.89-5.5q-5.35-2-14.54-4.37a164.73,164.73,0,0,1-18.08-5.73,29.54,29.54,0,0,1-11.61-8.36c-3.2-3.77-4.82-8.72-4.82-14.85q0-14.93,10.1-22.15t27-7.23ZM352.25,68V81.41H319.86v90H305.09v-90h-32.4V68Zm20.65,86.65v16.73H357.68V154.64Zm94.79-88.15q10.85,0,18.38,4.37a29,29,0,0,1,11.3,11.3,30.19,30.19,0,0,1,3.77,14.62q0,10.85-4.37,17.78t-14,14.31l-28.79,22a41.22,41.22,0,0,0-5.35,4.29c-1.25,1.25-1.88,2.18-1.88,2.79h54.85v13.41h-71v-3.62a31.11,31.11,0,0,1,3.69-14.69,35.57,35.57,0,0,1,10.32-12l30-22.6a35.58,35.58,0,0,0,9-10.1,22.55,22.55,0,0,0,2.71-11,17,17,0,0,0-2.26-8.52,17.22,17.22,0,0,0-6.63-6.48,21.08,21.08,0,0,0-10.55-2.48,22.72,22.72,0,0,0-11.22,2.71,19.93,19.93,0,0,0-7.61,7.23,19,19,0,0,0-2.72,10v2.11a8,8,0,0,0,.15,1.81H430.77l-.15-1.51V101a37.11,37.11,0,0,1,3.91-16.66,30.91,30.91,0,0,1,12.21-12.88q8.29-5,20.95-5Zm92.22,0A34.51,34.51,0,0,1,577.32,71,33.71,33.71,0,0,1,589.9,83.52a34.88,34.88,0,0,1,4.67,17.93v36.62a35.05,35.05,0,0,1-4.52,17.7,33.46,33.46,0,0,1-12.43,12.51,34.55,34.55,0,0,1-17.71,4.6h-2a34.8,34.8,0,0,1-17.85-4.6,32.16,32.16,0,0,1-12.29-12.58,36.17,36.17,0,0,1-4.37-17.63V101.45A35.58,35.58,0,0,1,528,83.36a33,33,0,0,1,12.43-12.43A34.85,34.85,0,0,1,558,66.49ZM559,79.9a20.48,20.48,0,0,0-14.77,5.8,19.34,19.34,0,0,0-6,14.54v38.88a19.34,19.34,0,0,0,6,14.54A20.49,20.49,0,0,0,559,159.47a20.21,20.21,0,0,0,14.92-5.88,19.69,19.69,0,0,0,5.87-14.47V100.24a19.65,19.65,0,0,0-5.87-14.46A20.21,20.21,0,0,0,559,79.9ZM660.88,66.49Q656.67,81.57,646.11,102T627,132.49h34.66v-30a116.43,116.43,0,0,0,8.14-20.64h6.63v50.63h13.11V145.9H676.4v25.47H661.63V145.9H613V132.34a271.84,271.84,0,0,0,32.09-65.85Zm110.9,14.92H726l-2.26,30.28Q733.51,104,743.3,104q17.33,0,25.62,9.42t8.28,24.49a36.43,36.43,0,0,1-4.44,18.15,31.52,31.52,0,0,1-12.51,12.36,41,41,0,0,1-37,.08,32.36,32.36,0,0,1-12.73-12.06,34.31,34.31,0,0,1-4.75-17.33h14.77a20.5,20.5,0,0,0,6.26,14.54,20.2,20.2,0,0,0,14.68,5.81q9.35,0,15.14-6t5.81-16a20.21,20.21,0,0,0-5.88-14.92,19.69,19.69,0,0,0-14.47-5.87q-12.81,0-19.43,10.4l-13.26-2L713.62,68h58.16Z"/></g></g></g></g></svg>