<svg xmlns="http://www.w3.org/2000/svg" xmlns:xlink="http://www.w3.org/1999/xlink" width="63px" height="78px" viewBox="0 0 62.501758999998856 77.72000000000025">
    <g transform="matrix(1 0 0 1 -54388.944311 6840.923073)" id="45217e4f-ca21-4ff3-9d12-0a6cae5bde21">

</g>
<g id="b8482b19-7d3a-4405-a80b-e84a48734b33">
<g style="">
		<g id="8813ffa6-dd21-451d-88ba-9ea6dcc5bdcd">
<path style="stroke: rgb(54,54,54); stroke-width: 0; stroke-dasharray: none; stroke-linecap: butt; stroke-dashoffset: 0; stroke-linejoin: miter; stroke-miterlimit: 4; fill: rgb(54,54,54); fill-rule: nonzero; opacity: 1;" d="M27.81088,27.04c1.07,0.36 1.61,0.92 1.61,1.69c0,0.47 -0.17,0.94 -0.52,1.4c-0.35,0.45 -0.76,0.84 -1.23,1.15c-0.97,0.62 -1.65,0.97 -2.02,1.04c1.19,0.9 1.78,1.84 1.78,2.82c0,0.97 -0.25,1.53 -0.76,1.68c-1.47,-1.09 -2.91,-1.64 -4.3,-1.64c-0.51,0 -1.21,0.14 -2.1,0.42c-0.89,0.28 -1.43,0.45 -1.63,0.51c-0.2,0.06 -0.47,0.14 -0.81,0.23c-0.34,0.1 -0.64,0.17 -0.89,0.21c-0.62,0.12 -1.17,0.18 -1.64,0.18c-1.77,0 -3,-0.86 -3.68,-2.57c-0.56,0.65 -1.26,1.27 -2.09,1.84c-0.83,0.57 -1.47,0.86 -1.92,0.86c-0.44,0 -0.82,-0.15 -1.15,-0.45c-0.33,-0.3 -0.49,-0.63 -0.49,-0.98c0,-0.35 0.04,-0.61 0.11,-0.78c7.18,-7.19 11.75,-13.13 13.72,-17.82c0.65,-1.57 0.98,-2.81 0.98,-3.73c0,-0.91 -0.13,-1.59 -0.38,-2.04c-0.25,-0.44 -0.53,-0.75 -0.83,-0.93c-0.3,-0.17 -0.58,-0.33 -0.83,-0.46c-0.25,-0.13 -0.38,-0.23 -0.38,-0.28c0,-0.05 0.17,-0.26 0.51,-0.63c1.03,-1.07 1.55,-1.94 1.55,-2.62v-0.18c-0.16,-1.24 -0.66,-2.25 -1.49,-3.03c-0.84,-0.79 -1.88,-1.18 -3.12,-1.18c-1.24,0 -2.21,0.41 -2.91,1.22c-0.71,0.81 -1.06,1.83 -1.06,3.05c0,1.22 0.41,2.31 1.22,3.28c0.81,0.97 1.93,1.45 3.35,1.45c0.18,0 0.31,-0.01 0.4,-0.02c0,0.5 -0.13,0.86 -0.38,1.09c-0.51,0.47 -1.21,0.71 -2.1,0.71c-0.75,0 -1.63,-0.24 -2.64,-0.71c-0.05,-0.03 -0.07,-0.05 -0.08,-0.05c-0.01,0 -0.02,0.03 -0.03,0.1c-0.01,0.07 -0.04,0.17 -0.09,0.3c-0.05,0.13 -0.13,0.36 -0.24,0.68c-0.12,0.31 -0.27,0.61 -0.46,0.88c-0.19,0.27 -0.4,0.54 -0.65,0.81c-0.53,0.61 -1.23,0.91 -2.09,0.91c-0.31,0 -0.59,-0.08 -0.86,-0.24c0.59,-0.69 0.89,-1.42 0.89,-2.17c0,-0.27 -0.18,-1.01 -0.54,-2.23c-0.35,-1.22 -0.53,-2.28 -0.53,-3.17c0,-0.89 0.2,-1.78 0.61,-2.67c0.41,-0.89 0.95,-1.63 1.62,-2.23c0.67,-0.6 1.45,-1.11 2.32,-1.52c1.65,-0.8 3.36,-1.2 5.13,-1.2c1.77,0 3.36,0.26 4.79,0.78c1.43,0.51 2.63,1.21 3.6,2.08c2.04,1.85 3.06,4.06 3.06,6.65c0,3.03 -0.78,5.75 -2.35,8.16c-1.21,1.85 -2.51,3.49 -3.9,4.92c-1.83,1.89 -4.28,4.27 -7.34,7.12l7.58,0.13c1.36,0 2.45,-0.21 3.28,-0.64c0.83,-0.43 1.63,-1.16 2.4,-2.18zM40.88088,20.9c0,0 -0.04,0.13 -0.13,0.4c-0.09,0.27 -0.19,0.9 -0.32,1.89c-0.13,0.99 -0.19,2.1 -0.19,3.34c0,1.25 0.01,2.14 0.03,2.68c0.03,0.54 0.09,1.17 0.2,1.9c0.11,0.73 0.3,1.25 0.55,1.54c0.61,0.73 1.53,1.09 2.77,1.09c1.21,0 2.05,-0.3 2.5,-0.89c0.41,-0.51 0.67,-0.99 0.76,-1.43c0.09,-0.43 0.15,-0.78 0.2,-1.05c0.04,-0.27 0.07,-0.67 0.1,-1.2c0.02,-0.53 0.03,-0.97 0.03,-1.31c0,0 0,-0.51 0,-1.52c0,-3.12 -0.41,-5.43 -1.22,-6.92c-0.18,-0.33 -0.34,-0.56 -0.47,-0.7c-0.13,-0.14 -0.19,-0.25 -0.19,-0.33c0,-0.08 0.1,-0.25 0.29,-0.5c0.2,-0.25 0.42,-0.58 0.65,-0.98c0.23,-0.39 0.44,-1.19 0.64,-2.4c0.2,-1.21 0.3,-2.44 0.3,-3.7c0,-1.27 0,-2.09 -0.01,-2.47c-0.01,-0.39 -0.03,-0.85 -0.06,-1.39c-0.03,-0.54 -0.07,-0.94 -0.13,-1.2c-0.06,-0.25 -0.15,-0.56 -0.27,-0.91c-0.11,-0.35 -0.26,-0.59 -0.43,-0.74c-0.17,-0.15 -0.38,-0.3 -0.63,-0.46c-0.25,-0.17 -0.55,-0.27 -0.89,-0.32c-0.34,-0.05 -0.73,-0.08 -1.17,-0.08c-0.45,0 -0.84,0.03 -1.17,0.08c-0.33,0.05 -0.62,0.15 -0.87,0.32c-0.25,0.16 -0.46,0.31 -0.63,0.46c-0.17,0.15 -0.32,0.39 -0.44,0.74c-0.11,0.35 -0.2,0.66 -0.26,0.91c-0.06,0.26 -0.1,0.66 -0.13,1.19c-0.05,0.81 -0.07,1.89 -0.07,3.24c0,1.34 0.06,2.55 0.19,3.62c0.13,1.07 0.28,1.86 0.46,2.37c0.19,0.51 0.37,0.92 0.56,1.22c0.18,0.31 0.33,0.53 0.46,0.68c0.13,0.15 0.19,0.26 0.19,0.35c0,0.09 -0.06,0.22 -0.19,0.39c-0.13,0.17 -0.28,0.43 -0.46,0.78c-0.19,0.35 -0.37,0.78 -0.55,1.31zM54.96088,20.52c0,0 -0.07,0.13 -0.21,0.38c-0.14,0.25 -0.28,0.83 -0.43,1.74c-0.15,0.91 -0.22,2.11 -0.22,3.6c0,1.48 -0.29,2.93 -0.88,4.34c-0.59,1.41 -1.37,2.56 -2.35,3.43c-0.98,0.87 -2.08,1.53 -3.29,2c-1.21,0.47 -2.48,0.7 -3.79,0.7c-1.31,0 -2.58,-0.23 -3.79,-0.7c-1.21,-0.47 -2.31,-1.13 -3.29,-2c-0.99,-0.87 -1.77,-2.02 -2.35,-3.43c-0.59,-1.41 -0.88,-2.85 -0.88,-4.31c0,-1.47 -0.1,-2.66 -0.29,-3.57c-0.19,-0.91 -0.42,-1.61 -0.68,-2.08c-0.27,-0.47 -0.53,-0.86 -0.8,-1.15c-0.27,-0.29 -0.5,-0.5 -0.69,-0.63c-0.19,-0.13 -0.29,-0.23 -0.29,-0.29c0,-0.05 0.1,-0.14 0.29,-0.27c0.19,-0.13 0.42,-0.33 0.69,-0.6c0.27,-0.27 0.53,-0.64 0.8,-1.1c0.65,-1.12 0.97,-2.73 0.97,-4.84c0,-2.11 0.29,-3.89 0.88,-5.35c0.58,-1.47 1.36,-2.65 2.35,-3.56c0.98,-0.91 2.08,-1.61 3.29,-2.1c1.21,-0.49 2.48,-0.73 3.79,-0.73c1.31,0 2.58,0.24 3.79,0.72c1.21,0.48 2.31,1.18 3.29,2.09c0.98,0.91 1.76,2.09 2.35,3.56c0.59,1.47 0.88,2.97 0.88,4.48c0,1.51 0.08,2.73 0.25,3.64c0.17,0.91 0.38,1.59 0.61,2.05c0.24,0.45 0.48,0.82 0.71,1.11c0.23,0.28 0.44,0.49 0.61,0.63c0.17,0.14 0.25,0.24 0.25,0.29c0,0.05 -0.1,0.15 -0.29,0.31c-0.2,0.15 -0.39,0.34 -0.58,0.55c-0.19,0.21 -0.42,0.58 -0.7,1.09zM34.60088,67.9c1.08,0.35 1.62,0.92 1.62,1.69c0,0.47 -0.17,0.94 -0.52,1.39c-0.35,0.46 -0.76,0.85 -1.23,1.16c-0.98,0.62 -1.65,0.97 -2.02,1.04c1.18,0.9 1.77,1.84 1.77,2.81c0,0.98 -0.25,1.54 -0.75,1.69c-1.48,-1.09 -2.91,-1.64 -4.3,-1.64c-0.52,0 -1.22,0.14 -2.11,0.42c-0.89,0.28 -1.43,0.45 -1.63,0.51c-0.2,0.06 -0.47,0.14 -0.81,0.23c-0.34,0.1 -0.63,0.17 -0.88,0.21c-0.62,0.12 -1.17,0.18 -1.64,0.18c-1.77,0 -3,-0.86 -3.68,-2.57c-0.57,0.65 -1.27,1.26 -2.1,1.84c-0.83,0.57 -1.47,0.86 -1.91,0.86c-0.45,0 -0.83,-0.15 -1.16,-0.45c-0.33,-0.31 -0.49,-0.63 -0.49,-0.98c0,-0.35 0.04,-0.61 0.12,-0.78c7.18,-7.19 11.75,-13.13 13.72,-17.83c0.65,-1.57 0.97,-2.81 0.97,-3.72c0,-0.91 -0.12,-1.59 -0.37,-2.04c-0.25,-0.44 -0.53,-0.75 -0.84,-0.93c-0.3,-0.18 -0.58,-0.34 -0.83,-0.47c-0.25,-0.13 -0.37,-0.22 -0.37,-0.27c0,-0.05 0.17,-0.26 0.51,-0.63c1.03,-1.07 1.55,-1.94 1.55,-2.62v-0.18c-0.17,-1.24 -0.67,-2.25 -1.5,-3.03c-0.83,-0.79 -1.87,-1.18 -3.11,-1.18c-1.25,0 -2.22,0.41 -2.92,1.22c-0.7,0.81 -1.05,1.83 -1.05,3.05c0,1.22 0.41,2.31 1.22,3.28c0.81,0.97 1.93,1.45 3.35,1.45c0.17,0 0.3,-0.01 0.39,-0.02c0,0.5 -0.12,0.86 -0.37,1.08c-0.52,0.47 -1.22,0.71 -2.11,0.71c-0.75,0 -1.63,-0.24 -2.64,-0.71c-0.04,-0.03 -0.06,-0.04 -0.07,-0.04c-0.01,0 -0.02,0.03 -0.04,0.1c-0.01,0.07 -0.04,0.17 -0.09,0.3c-0.04,0.13 -0.12,0.36 -0.24,0.67c-0.12,0.32 -0.27,0.62 -0.45,0.89c-0.19,0.27 -0.41,0.54 -0.66,0.81c-0.53,0.61 -1.23,0.91 -2.08,0.91c-0.31,0 -0.6,-0.08 -0.87,-0.24c0.59,-0.7 0.89,-1.43 0.89,-2.18c0,-0.27 -0.18,-1.01 -0.53,-2.22c-0.35,-1.22 -0.53,-2.28 -0.53,-3.17c0,-0.9 0.2,-1.79 0.61,-2.68c0.41,-0.89 0.94,-1.63 1.61,-2.22c0.67,-0.6 1.45,-1.11 2.32,-1.52c1.65,-0.8 3.36,-1.2 5.13,-1.2c1.77,0 3.36,0.26 4.79,0.78c1.43,0.51 2.63,1.21 3.6,2.08c2.04,1.85 3.06,4.06 3.06,6.65c0,3.03 -0.78,5.75 -2.35,8.16c-1.21,1.85 -2.51,3.49 -3.9,4.92c-1.83,1.89 -4.28,4.27 -7.34,7.12l7.58,0.13c1.36,0 2.46,-0.21 3.29,-0.64c0.83,-0.43 1.62,-1.16 2.39,-2.18zM39.99088,41.41c1.46,0 2.68,0.63 3.65,1.89c0.05,-0.05 0.1,-0.11 0.17,-0.2c0.07,-0.09 0.22,-0.24 0.47,-0.46c0.24,-0.21 0.49,-0.4 0.74,-0.56c0.67,-0.45 1.38,-0.67 2.14,-0.67c0.76,0 1.34,0.11 1.73,0.34c0.39,0.22 0.61,0.43 0.67,0.64l0.09,0.33c-1.02,0.99 -1.72,2.04 -2.1,3.13c-0.39,1.09 -0.58,2.55 -0.58,4.36c0,1.82 0.08,3.28 0.24,4.38c0.17,1.1 0.37,1.9 0.6,2.41c0.24,0.5 0.48,0.89 0.72,1.17c0.25,0.28 0.45,0.49 0.61,0.64c0.17,0.15 0.25,0.3 0.25,0.44c0,0.14 -0.08,0.28 -0.25,0.43c-0.16,0.15 -0.36,0.37 -0.61,0.68c-0.24,0.3 -0.48,0.71 -0.72,1.23c-0.56,1.23 -0.84,3.12 -0.84,5.67c0,2.55 0.19,4.44 0.58,5.66c0.38,1.22 1.08,2.36 2.1,3.43c0,0.53 -0.41,0.93 -1.24,1.2c-0.31,0.09 -0.75,0.13 -1.3,0.13c-0.55,0 -1.13,-0.16 -1.74,-0.48c-0.61,-0.31 -1.05,-0.63 -1.33,-0.94l-0.4,-0.47c-0.51,0.79 -1.31,1.35 -2.39,1.69c-0.41,0.13 -0.83,0.2 -1.25,0.2c-0.42,0 -0.79,-0.04 -1.1,-0.13c-0.31,-0.09 -0.55,-0.21 -0.71,-0.34c-0.29,-0.27 -0.47,-0.55 -0.53,-0.86c1.02,-1.07 1.72,-2.21 2.1,-3.43c0.39,-1.22 0.58,-2.75 0.58,-4.6c0,-1.85 -0.08,-3.3 -0.24,-4.36c-0.17,-1.07 -0.37,-1.86 -0.6,-2.37c-0.24,-0.52 -0.48,-0.93 -0.72,-1.23c-0.25,-0.31 -0.45,-0.53 -0.61,-0.68c-0.16,-0.15 -0.24,-0.29 -0.24,-0.43c0,-0.14 0.08,-0.29 0.24,-0.44c0.16,-0.15 0.36,-0.36 0.61,-0.64c0.24,-0.28 0.48,-0.67 0.72,-1.17c0.56,-1.2 0.84,-3.09 0.84,-5.66c0,-2.57 -0.19,-4.4 -0.58,-5.49c-0.38,-1.09 -1.08,-2.14 -2.1,-3.13c0,-0.53 0.41,-0.92 1.24,-1.17c0.31,-0.09 0.68,-0.14 1.09,-0.14z" stroke-linecap="round"/>
</g>
</g>
</g>
<g transform="matrix(1 0 0 1 -54388.944311 6840.923073)" id="5905b174-8d09-4a41-b867-714859cc7305">

</g>
<g transform="matrix(1 0 0 1 -54388.944311 6840.923073)" id="a8a1c5bc-c5f4-4919-99bc-cff524876091">

</g>

  </svg>