<svg xmlns="http://www.w3.org/2000/svg" xmlns:xlink="http://www.w3.org/1999/xlink" width="243px" height="153px" viewBox="0 0 242.88055000000168 152.6899999999996">
    <g transform="matrix(1 0 0 1 -80289.05958 6371.840287)" id="3b9ab7c6-65ca-4ac2-92e6-4c75c9c941b0">

</g>
<g id="0b277b28-6800-40a7-a8dc-26482642fd01">
<g style="">
		<g id="7f855164-984c-4e6d-af1b-b6294d82dd67">
<path style="stroke: rgb(193,193,193); stroke-width: 0; stroke-dasharray: none; stroke-linecap: butt; stroke-dashoffset: 0; stroke-linejoin: miter; stroke-miterlimit: 4; fill: rgb(255,218,179); fill-rule: nonzero; opacity: 1;" d="M64.53028,76.24c0,53.3 5.73,59.25 56.91,59.25c51.18,0 56.91,-5.95 56.91,-59.25c0,-53.31 -5.73,-59.25 -56.91,-59.25c-51.18,0 -56.91,5.94 -56.91,59.25zM121.44028,0c64.56,0 80.7,15.29 80.7,76.24c0,61.16 -16.14,76.45 -80.7,76.45c-64.56,0 -80.7,-15.29 -80.7,-76.45c0,-60.95 16.14,-76.24 80.7,-76.24zM89.37028,37.37h42.05c19.54,0 24.42,4.25 24.42,21.24c0,12.11 -4.46,18.05 -14.44,19.33c9.56,1.06 14.44,5.52 14.44,14.86v18.05h-20.6v-16.99c0,-8.07 -1.06,-8.92 -11.46,-8.92h-14.66v25.91h-19.75zM126.32028,69.87c8.92,0 9.77,-0.85 9.77,-8.29c0,-7.22 -0.85,-8.07 -9.77,-8.07h-17.2v16.36z" stroke-linecap="round"/>
</g>
</g>
</g>
<g transform="matrix(1 0 0 1 -80289.05958 6371.840287)" id="51fd72f3-439b-4593-b545-5259a8add152">

</g>
<g transform="matrix(1 0 0 1 -80289.05958 6371.840287)" id="f67118b7-39ad-4777-b8fc-80e447cd92e4">

</g>

  </svg>