<svg xmlns="http://www.w3.org/2000/svg" xmlns:xlink="http://www.w3.org/1999/xlink" width="139px" height="60px" viewBox="0 0 121.63961700000073 52.67000000000007">
    <g transform="matrix(1 0 0 1 -58298.101015 6452.829878)" id="5c93cd0a-2513-4d41-bf02-70839c3c41b9">

</g>
<g id="d4194ad4-9857-4b94-9c9f-e3f62ffaaa50">
<g style="">
		<g id="434ed056-07a8-4bce-8389-66ba72e994ce">
<path style="stroke: rgb(193,193,193); stroke-width: 0; stroke-dasharray: none; stroke-linecap: butt; stroke-dashoffset: 0; stroke-linejoin: miter; stroke-miterlimit: 4; fill: rgb(252,248,227); fill-rule: nonzero; opacity: 1;" d="M16.67481,52.09v-51.44h15.37v5.02h-9.32v17.6h8.82v5.03h-8.82v18.76h9.44v5.03zM48.23481,52.67c-2.09,0 -3.78,-0.37 -5.08,-1.12c-1.31,-0.75 -2.31,-1.82 -3.02,-3.2c-0.7,-1.39 -1.18,-3.02 -1.44,-4.9c-0.27,-1.88 -0.4,-3.96 -0.4,-6.24v-5h5.88v5.24c0,3.6 0.26,6.18 0.77,7.73c0.52,1.55 1.64,2.32 3.35,2.32c1.19,0 2.06,-0.28 2.62,-0.83c0.55,-0.55 0.91,-1.45 1.06,-2.68c0.16,-1.23 0.24,-2.84 0.24,-4.85c0,-2.3 -0.41,-4.28 -1.22,-5.93c-0.81,-1.66 -1.97,-3.25 -3.49,-4.77l-3.36,-3.36c-0.97,-0.99 -1.93,-2.08 -2.87,-3.26c-0.93,-1.17 -1.71,-2.51 -2.32,-4.02c-0.61,-1.5 -0.92,-3.21 -0.92,-5.14c0,-2.59 0.27,-4.83 0.82,-6.72c0.55,-1.89 1.54,-3.36 2.98,-4.39c1.44,-1.03 3.49,-1.55 6.14,-1.55c2.09,0 3.76,0.36 5.01,1.09c1.26,0.72 2.21,1.75 2.84,3.08c0.63,1.33 1.05,2.92 1.25,4.75c0.21,1.83 0.31,3.86 0.31,6.08v3.04h-5.79v-3.45c0,-2.09 -0.08,-3.83 -0.25,-5.22c-0.16,-1.39 -0.49,-2.44 -1,-3.14c-0.51,-0.7 -1.3,-1.05 -2.37,-1.05c-0.97,0 -1.77,0.24 -2.38,0.71c-0.61,0.48 -1.06,1.22 -1.33,2.21c-0.27,0.99 -0.41,2.27 -0.41,3.83c0,1.37 0.16,2.49 0.49,3.38c0.33,0.89 0.84,1.71 1.51,2.47c0.67,0.76 1.5,1.65 2.47,2.68l3.51,3.72c1.85,1.93 3.36,4.08 4.54,6.47c1.18,2.39 1.77,5.16 1.77,8.32c0,2.84 -0.28,5.28 -0.83,7.33c-0.56,2.05 -1.55,3.62 -2.97,4.72c-1.42,1.1 -3.46,1.65 -6.11,1.65zM67.49481,52.09v-46.42h-5.67v-5.02h16.98v5.02h-5.29v46.42zM84.91481,52.09v-51.44h9.68c2.69,0 4.78,0.56 6.28,1.68c1.5,1.12 2.55,2.72 3.16,4.81c0.6,2.08 0.9,4.57 0.9,7.48l0.03,22.59c0,3.47 -0.35,6.3 -1.04,8.49c-0.69,2.19 -1.81,3.81 -3.36,4.84c-1.55,1.03 -3.61,1.55 -6.18,1.55zM90.93481,47.21h3.1c1.09,0 2,-0.24 2.72,-0.72c0.72,-0.47 1.26,-1.36 1.62,-2.67c0.36,-1.31 0.54,-3.2 0.54,-5.67v-23.68c0,-3.23 -0.38,-5.55 -1.14,-6.94c-0.76,-1.39 -2.01,-2.09 -3.74,-2.09h-3.1z" stroke-linecap="round"/>
</g>
</g>
</g>
<g transform="matrix(1 0 0 1 -58298.101015 6452.829878)" id="4d6f9bb5-e48d-4980-b3bf-20a1fa786db4">

</g>
<g transform="matrix(1 0 0 1 -58298.101015 6452.829878)" id="7f2da192-5d91-4498-a3e8-2d3b40ec7f5c">

</g>

  </svg>