<svg xmlns="http://www.w3.org/2000/svg" xmlns:xlink="http://www.w3.org/1999/xlink" width="1446px" height="1446px" viewBox="0 0 1445.9893558359036 1445.9893558359045">
    <g id="34c5bc74-12e0-455b-be9a-16b2e445c376">
<g style="">
		<g id="34c5bc74-12e0-455b-be9a-16b2e445c376-child-0">
<path style="stroke: rgb(193,193,193); stroke-width: 0; stroke-dasharray: none; stroke-linecap: butt; stroke-dashoffset: 0; stroke-linejoin: miter; stroke-miterlimit: 4; fill: rgb(255,255,255); fill-rule: nonzero; opacity: 1;" transform="matrix(2.118149 0 0 2.118149 722.994678 722.994678) matrix(1.333333 0 0 1.333333 0.00008 0.00008)  translate(-256, -256)" d="M 256.00 241.00 C 247.72 241.00 241.00 247.72 241.00 256.00 C 241.00 264.28 247.72 271.00 256.00 271.00 C 264.28 271.00 271.00 264.28 271.00 256.00 C 271.00 247.72 264.28 241.00 256.00 241.00 z M 256.00 241.00" stroke-linecap="round"/>
</g>
		<g id="34c5bc74-12e0-455b-be9a-16b2e445c376-child-1">
<path style="stroke: rgb(193,193,193); stroke-width: 0; stroke-dasharray: none; stroke-linecap: butt; stroke-dashoffset: 0; stroke-linejoin: miter; stroke-miterlimit: 4; fill: rgb(255,255,255); fill-rule: nonzero; opacity: 1;" transform="matrix(2.118149 0 0 2.118149 722.994678 722.994678) matrix(1.333333 0 0 1.333333 88.080807 142.067786)  translate(-322.060547, -362.550781)" d="M 301.00 350.86 L 301.00 382.71 C 316.61 377.14 330.75 368.82 343.12 358.27 L 315.63 342.39 C 310.98 345.62 306.10 348.45 301.00 350.86 z M 301.00 350.86" stroke-linecap="round"/>
</g>
		<g id="34c5bc74-12e0-455b-be9a-16b2e445c376-child-2">
<path style="stroke: rgb(193,193,193); stroke-width: 0; stroke-dasharray: none; stroke-linecap: butt; stroke-dashoffset: 0; stroke-linejoin: miter; stroke-miterlimit: 4; fill: rgb(255,255,255); fill-rule: nonzero; opacity: 1;" transform="matrix(2.118149 0 0 2.118149 722.994678 722.994678) matrix(1.333333 0 0 1.333333 -88.080651 142.067786)  translate(-189.939453, -362.550781)" d="M 168.88 358.27 C 181.25 368.82 195.39 377.14 211.00 382.71 L 211.00 350.86 C 205.90 348.45 201.02 345.62 196.37 342.39 z M 168.88 358.27" stroke-linecap="round"/>
</g>
		<g id="34c5bc74-12e0-455b-be9a-16b2e445c376-child-3">
<path style="stroke: rgb(193,193,193); stroke-width: 0; stroke-dasharray: none; stroke-linecap: butt; stroke-dashoffset: 0; stroke-linejoin: miter; stroke-miterlimit: 4; fill: rgb(255,255,255); fill-rule: nonzero; opacity: 1;" transform="matrix(2.118149 0 0 2.118149 722.994678 722.994678) matrix(1.333333 0 0 1.333333 -159.775961 0.000077)  translate(-136.167969, -256)" d="M 151.00 256.00 C 151.00 253.16 151.12 250.33 151.34 247.53 L 123.48 231.46 C 122.00 239.44 121.00 247.59 121.00 256.00 C 121.00 264.41 122.00 272.56 123.48 280.54 L 151.34 264.47 C 151.12 261.67 151.00 258.84 151.00 256.00 z M 151.00 256.00" stroke-linecap="round"/>
</g>
		<g id="34c5bc74-12e0-455b-be9a-16b2e445c376-child-4">
<path style="stroke: rgb(193,193,193); stroke-width: 0; stroke-dasharray: none; stroke-linecap: butt; stroke-dashoffset: 0; stroke-linejoin: miter; stroke-miterlimit: 4; fill: rgb(255,255,255); fill-rule: nonzero; opacity: 1;" transform="matrix(2.118149 0 0 2.118149 722.994678 722.994678) matrix(1.333333 0 0 1.333333 159.776122 0.000077)  translate(-375.832031, -256)" d="M 361.00 256.00 C 361.00 258.84 360.88 261.67 360.66 264.47 L 388.52 280.54 C 390.00 272.56 391.00 264.41 391.00 256.00 C 391.00 247.59 390.00 239.44 388.52 231.46 L 360.66 247.53 C 360.88 250.33 361.00 253.16 361.00 256.00 z M 361.00 256.00" stroke-linecap="round"/>
</g>
		<g id="34c5bc74-12e0-455b-be9a-16b2e445c376-child-5">
<path style="stroke: rgb(193,193,193); stroke-width: 0; stroke-dasharray: none; stroke-linecap: butt; stroke-dashoffset: 0; stroke-linejoin: miter; stroke-miterlimit: 4; fill: rgb(255,255,255); fill-rule: nonzero; opacity: 1;" transform="matrix(2.118149 0 0 2.118149 722.994678 722.994678) matrix(1.333333 0 0 1.333333 88.080807 -142.06763)  translate(-322.060547, -149.449219)" d="M 343.12 153.73 C 330.75 143.18 316.61 134.86 301.00 129.29 L 301.00 161.14 C 306.10 163.55 310.98 166.38 315.63 169.61 z M 343.12 153.73" stroke-linecap="round"/>
</g>
		<g id="34c5bc74-12e0-455b-be9a-16b2e445c376-child-6">
<path style="stroke: rgb(193,193,193); stroke-width: 0; stroke-dasharray: none; stroke-linecap: butt; stroke-dashoffset: 0; stroke-linejoin: miter; stroke-miterlimit: 4; fill: rgb(255,255,255); fill-rule: nonzero; opacity: 1;" transform="matrix(2.118149 0 0 2.118149 722.994678 722.994678) matrix(1.333333 0 0 1.333333 -88.080651 -142.06763)  translate(-189.939453, -149.449219)" d="M 211.00 161.14 L 211.00 129.29 C 195.39 134.86 181.25 143.18 168.88 153.73 L 196.37 169.61 C 201.02 166.38 205.90 163.55 211.00 161.14 z M 211.00 161.14" stroke-linecap="round"/>
</g>
		<g id="34c5bc74-12e0-455b-be9a-16b2e445c376-child-7">
<path style="stroke: rgb(193,193,193); stroke-width: 0; stroke-dasharray: none; stroke-linecap: butt; stroke-dashoffset: 0; stroke-linejoin: miter; stroke-miterlimit: 4; fill: rgb(255,255,255); fill-rule: nonzero; opacity: 1;" transform="matrix(2.118149 0 0 2.118149 722.994678 722.994678) matrix(1.333333 0 0 1.333333 0 0)  translate(-256, -256)" d="M 451.00 241.00 L 512.00 241.00 C 509.87 205.56 498.88 172.00 483.70 141.86 L 432.38 171.49 L 417.38 145.51 L 468.79 115.82 C 449.73 86.99 425.01 62.27 396.18 43.21 L 366.49 94.62 L 340.51 79.62 L 370.14 28.30 C 339.99 13.12 306.48 2.08 271.00 0.00 L 271.00 61.00 L 241.00 61.00 L 241.00 0.00 C 205.52 2.08 172.01 13.12 141.86 28.29 L 171.49 79.62 L 145.51 94.62 L 115.83 43.21 C 86.99 62.27 62.27 86.99 43.21 115.83 L 94.62 145.51 L 79.62 171.49 L 28.29 141.86 C 13.12 172.01 2.08 205.52 0.00 241.00 L 61.00 241.00 L 61.00 271.00 L 0.00 271.00 C 2.08 306.48 13.12 339.99 28.30 370.14 L 79.62 340.51 L 94.62 366.49 L 43.21 396.18 C 62.27 425.01 86.99 449.73 115.83 468.79 L 145.51 417.38 L 171.49 432.38 L 141.86 483.70 C 172.01 498.88 205.52 509.92 241.00 512.00 L 241.00 451.00 L 271.00 451.00 L 271.00 512.00 C 306.48 509.92 339.99 498.88 370.14 483.70 L 340.51 432.38 L 366.49 417.38 L 396.18 468.79 C 425.01 449.73 449.73 425.01 468.79 396.18 L 417.38 366.49 L 432.38 340.51 L 483.70 370.14 C 498.88 340.00 509.87 306.44 512.00 271.00 L 451.00 271.00 z M 256.00 421.00 C 165.02 421.00 91.00 346.98 91.00 256.00 C 91.00 165.02 165.02 91.00 256.00 91.00 C 346.98 91.00 421.00 165.02 421.00 256.00 C 421.00 346.98 346.98 421.00 256.00 421.00 z M 256.00 421.00" stroke-linecap="round"/>
</g>
		<g id="34c5bc74-12e0-455b-be9a-16b2e445c376-child-8">
<path style="stroke: rgb(193,193,193); stroke-width: 0; stroke-dasharray: none; stroke-linecap: butt; stroke-dashoffset: 0; stroke-linejoin: miter; stroke-miterlimit: 4; fill: rgb(255,255,255); fill-rule: nonzero; opacity: 1;" transform="matrix(2.118149 0 0 2.118149 722.994678 722.994678) matrix(1.333333 0 0 1.333333 0.002649 -0.002564)  translate(-256.001954, -255.998047)" d="M 312.76 205.90 L 304.69 199.00 C 297.63 192.97 289.66 188.36 280.99 185.28 L 271.00 181.75 L 271.00 122.52 C 266.01 121.95 261.14 121.00 256.00 121.00 C 250.86 121.00 245.99 121.95 241.00 122.52 L 241.00 181.75 L 231.01 185.28 C 222.34 188.35 214.37 192.97 207.31 199.00 L 199.24 205.90 L 147.72 176.16 C 141.78 184.20 136.51 192.73 132.45 201.99 L 184.21 231.86 L 182.26 242.30 C 181.43 246.74 181.00 251.32 181.00 256.00 C 181.00 260.67 181.43 265.26 182.26 269.70 L 184.21 280.14 L 132.45 310.01 C 136.51 319.27 141.78 327.79 147.72 335.83 L 199.24 306.10 L 207.31 313.00 C 214.37 319.03 222.34 323.64 231.01 326.72 L 241.00 330.25 L 241.00 389.48 C 245.99 390.04 250.86 391.00 256.00 391.00 C 261.14 391.00 266.01 390.04 271.00 389.48 L 271.00 330.25 L 280.99 326.72 C 289.66 323.64 297.63 319.03 304.69 313.00 L 312.76 306.10 L 364.28 335.83 C 370.22 327.79 375.49 319.27 379.55 310.01 L 327.79 280.14 L 329.74 269.70 C 330.57 265.26 331.00 260.67 331.00 256.00 C 331.00 251.32 330.57 246.74 329.74 242.30 L 327.79 231.86 L 379.55 201.99 C 375.49 192.73 370.22 184.20 364.28 176.16 z M 256.00 301.00 C 231.19 301.00 211.00 280.81 211.00 256.00 C 211.00 231.19 231.19 211.00 256.00 211.00 C 280.81 211.00 301.00 231.19 301.00 256.00 C 301.00 280.81 280.81 301.00 256.00 301.00 z M 256.00 301.00" stroke-linecap="round"/>
</g>
</g>
</g>

  </svg>