<svg xmlns="http://www.w3.org/2000/svg" xmlns:xlink="http://www.w3.org/1999/xlink" width="145px" height="60px" viewBox="0 0 71.95337099999597 29.729999999999563">
    <g transform="matrix(1 0 0 1 -80398.716464 2781.598656)" id="a27dc713-01fd-4b2e-a41a-a0119874ffb6">

</g>
<g id="c2e65919-4a5c-459a-846d-b4f1992a7851">
<g style="">
		<g id="16915ff3-370e-4c1a-9348-38606f6c287a">
<path style="stroke: rgb(255,218,179); stroke-width: 0; stroke-dasharray: none; stroke-linecap: butt; stroke-dashoffset: 0; stroke-linejoin: miter; stroke-miterlimit: 4; fill: rgb(255,218,179); fill-rule: nonzero; opacity: 1;" d="M8.90669,10.09h-7.03v-5.17h3.37c3.22,0 4.03,-0.71 4.03,-4.48h6.66v28.85h-7.03zM36.19669,8.62c0,-2.45 -0.48,-2.7 -4.21,-2.7c-3.74,0 -4.22,0.25 -4.22,2.7c0,2.44 0.48,2.7 4.22,2.7c3.73,0 4.21,-0.26 4.21,-2.7zM24.84669,14.27c-2.85,-0.55 -4.11,-2.51 -4.11,-6.25c0,-6.43 2.41,-8.02 11.25,-8.02c8.84,0 11.24,1.59 11.24,8.02c0,3.74 -1.26,5.7 -4.07,6.25c4.07,0.48 5.88,2.78 5.88,7.44c0,6.43 -2.77,8.02 -13.05,8.02c-10.32,0 -13.1,-1.59 -13.1,-8.02c0,-4.66 1.82,-6.96 5.96,-7.44zM31.98669,23.82c4.4,0 4.95,-0.34 4.95,-3.3c0,-2.95 -0.55,-3.29 -4.95,-3.29c-4.4,0 -4.96,0.34 -4.96,3.29c0,2.96 0.56,3.3 4.96,3.3zM56.09669,14.57v-7.73h6.29v7.73h7.69v6.29h-7.69v7.69h-6.29v-7.69h-7.73v-6.29z" stroke-linecap="round"/>
</g>
</g>
</g>
<g transform="matrix(1 0 0 1 -80398.716464 2781.598656)" id="d63dd226-1e83-4838-ac46-3d1a5e48d59f">

</g>
<g transform="matrix(1 0 0 1 -80398.716464 2781.598656)" id="24376505-ce1b-4e92-baf6-19213d9705f3">

</g>

  </svg>