<svg xmlns="http://www.w3.org/2000/svg" xmlns:xlink="http://www.w3.org/1999/xlink" width="328px" height="542px" viewBox="0 0 327.983572386438 542.1605834099973">
    <g id="45e15a7f-c978-4af0-90a9-d563f9318307">
<g style="">
		<g id="45e15a7f-c978-4af0-90a9-d563f9318307-child-0">
<path style="stroke: rgb(193,193,193); stroke-width: 0; stroke-dasharray: none; stroke-linecap: butt; stroke-dashoffset: 0; stroke-linejoin: miter; stroke-miterlimit: 4; fill: rgb(4,3,31); fill-rule: nonzero; opacity: 1;" transform="matrix(0.246029 -35.350229 27.790003 0.193412 163.991786 271.080292) matrix(1 0 0 1 0 0)  translate(-7.6365, -7.6365)" d="M 0.00 1.80 L 0.90 1.80 L 0.90 13.47 L 0.00 13.47 L 0.00 1.80 z M 1.45 13.47 L 1.95 13.47 L 1.95 1.80 L 1.45 1.80 L 1.45 13.47 z M 2.31 13.47 L 2.82 13.47 L 2.82 1.80 L 2.31 1.80 L 2.31 13.47 z M 3.48 13.47 L 4.59 13.47 L 4.59 1.80 L 3.48 1.80 L 3.48 13.47 z M 5.47 13.47 L 6.02 13.47 L 6.02 1.80 L 5.47 1.80 L 5.47 13.47 z M 6.88 13.47 L 9.17 13.47 L 9.17 1.80 L 6.88 1.80 L 6.88 13.47 z M 12.84 13.47 L 13.59 13.47 L 13.59 1.80 L 12.84 1.80 L 12.84 13.47 z M 14.25 1.80 L 14.25 13.47 L 15.27 13.47 L 15.27 1.80 L 14.25 1.80 z M 10.08 13.47 L 10.58 13.47 L 10.58 1.80 L 10.08 1.80 L 10.08 13.47 z M 11.28 13.47 L 11.77 13.47 L 11.77 1.80 L 11.28 1.80 L 11.28 13.47 z" stroke-linecap="round"/>
</g>
</g>
</g>

  </svg>