<svg xmlns="http://www.w3.org/2000/svg" xmlns:xlink="http://www.w3.org/1999/xlink" width="63px" height="78px" viewBox="0 0 62.501758999998856 77.13000000000011">
    <g transform="matrix(1 0 0 1 -53834.134439 6840.923073)" id="24fe3dab-8b3b-4360-9d85-e56f6ce67d40">

</g>
<g id="a769dba9-3ccf-46bd-a85b-94903dd7d98e">
<g style="">
		<g id="8dfcb087-2f3d-4d69-a476-b06b430176d1">
<path style="stroke: rgb(54,54,54); stroke-width: 0; stroke-dasharray: none; stroke-linecap: butt; stroke-dashoffset: 0; stroke-linejoin: miter; stroke-miterlimit: 4; fill: rgb(54,54,54); fill-rule: nonzero; opacity: 1;" d="M27.24088,16.21c0,0.79 -0.52,1.5 -1.56,2.13c0.28,0.09 0.55,0.28 0.82,0.59c0.49,0.57 0.74,1.05 0.74,1.44c0,0.73 -0.15,1.13 -0.45,1.22l-0.15,0.05c-1.33,-0.87 -3.44,-1.31 -6.32,-1.31l-0.98,9.73c0,0.97 0.3,1.59 0.89,1.84c0.47,0.19 1.05,0.29 1.74,0.29c0.69,0 1.23,-0.27 1.62,-0.81c0.39,-0.54 0.59,-1.21 0.59,-2.01c0,-1.31 -0.53,-2.48 -1.58,-3.5c0.15,-0.59 0.58,-0.88 1.31,-0.88c1.25,0 2.2,0.32 2.84,0.95l0.33,0.33c0.86,-0.85 1.84,-1.28 2.93,-1.28c0.43,0 0.77,0.07 1.03,0.22c0.25,0.15 0.43,0.37 0.52,0.66c-1.2,0.95 -1.8,2.47 -1.8,4.58c0,2.11 0.67,3.72 2.02,4.84c0,0.39 -0.31,0.68 -0.93,0.87c-0.24,0.07 -0.51,0.11 -0.82,0.11c-1.47,0 -2.72,-0.7 -3.77,-2.11c-0.57,0.69 -1.36,1.22 -2.35,1.58c-0.99,0.35 -1.82,0.53 -2.49,0.53c-0.67,0 -1.21,-0.05 -1.6,-0.15c-0.39,-0.09 -0.74,-0.21 -1.04,-0.36c-0.31,-0.15 -0.59,-0.31 -0.85,-0.5c-0.27,-0.19 -0.5,-0.37 -0.69,-0.54c-0.39,-0.36 -0.69,-0.69 -0.91,-0.98c-0.61,1.02 -1.52,1.77 -2.75,2.26c-0.46,0.18 -0.98,0.27 -1.55,0.27c-0.58,0 -1.06,-0.11 -1.44,-0.33c-0.39,-0.23 -0.61,-0.45 -0.67,-0.67l-0.09,-0.33c0.71,-0.43 1.2,-0.82 1.45,-1.19c0.25,-0.36 0.43,-0.64 0.56,-0.84c0.13,-0.2 0.23,-0.51 0.32,-0.92c0.09,-0.41 0.15,-0.75 0.2,-1.01c0.05,-0.26 0.08,-0.7 0.1,-1.31c0.02,-0.61 0.03,-1.11 0.03,-1.49v-1.86c0,-3.79 -0.72,-6.31 -2.17,-7.56c-0.16,-0.13 -0.24,-0.27 -0.24,-0.4c0,-0.13 0.08,-0.27 0.24,-0.42c0.17,-0.15 0.37,-0.37 0.61,-0.65c0.25,-0.28 0.49,-0.67 0.72,-1.17c0.56,-1.2 0.84,-3.07 0.84,-5.62c0,-2.55 -0.19,-4.39 -0.58,-5.52c-0.39,-1.13 -1.09,-2.18 -2.1,-3.14c0,-0.53 0.41,-0.92 1.24,-1.17c0.31,-0.09 0.77,-0.13 1.36,-0.13c0.59,0 1.22,0.21 1.91,0.64c0.69,0.43 1.19,0.85 1.5,1.26l0.46,0.64c1.39,-1.69 2.96,-2.54 4.7,-2.54c0.93,0 1.9,0.18 2.9,0.54c0.99,0.36 1.78,0.89 2.36,1.58c1.06,-1.41 2.32,-2.12 3.77,-2.12c0.49,0 0.88,0.08 1.17,0.25c0.29,0.17 0.49,0.43 0.58,0.76c-0.74,0.57 -1.26,1.2 -1.57,1.91c-0.3,0.71 -0.45,1.59 -0.45,2.62c0,1.83 0.6,3.2 1.8,4.1c-0.06,0.23 -0.23,0.44 -0.5,0.61c-0.27,0.17 -0.65,0.25 -1.13,0.25c-0.48,0 -0.97,-0.1 -1.46,-0.31c-0.49,-0.21 -0.84,-0.41 -1.06,-0.62l-0.33,-0.33c-0.85,0.84 -1.82,1.26 -2.91,1.26c-0.43,0 -0.77,-0.07 -1.04,-0.22c-0.27,-0.15 -0.44,-0.36 -0.53,-0.64c1.05,-0.95 1.57,-2.06 1.57,-3.33c0,-1.4 -0.8,-2.1 -2.39,-2.1c-1.59,0 -2.39,0.51 -2.39,1.53c0,0.06 0,0.13 0,0.2l0.95,9.9c1.63,0 2.91,-0.09 3.85,-0.27c0.93,-0.19 1.76,-0.52 2.47,-1.01c0.15,0 0.28,0.11 0.41,0.32c0.13,0.21 0.19,0.48 0.19,0.79zM46.45088,28.4c0,-1.93 -0.48,-3.53 -1.44,-4.78c-0.96,-1.25 -2.24,-1.87 -3.83,-1.87c-0.43,0 -0.91,0.07 -1.44,0.2c-0.53,0.13 -0.84,0.2 -0.91,0.2l-0.18,-0.05c-0.15,-0.07 -0.28,-0.29 -0.4,-0.64c-0.34,-1.15 -0.94,-2.08 -1.81,-2.77c-2.84,-2.29 -4.26,-5.34 -4.26,-9.13c0,-3.06 1,-5.42 3,-7.07c2.01,-1.66 4.78,-2.49 8.33,-2.49c1.55,0 2.91,0.3 4.09,0.89c1.17,0.59 2.08,1.17 2.71,1.73c1.43,1.29 2.15,2.96 2.15,5.01c0,0.68 -0.18,1.59 -0.53,2.73c-0.35,1.13 -0.53,1.82 -0.53,2.06c0,0.89 0.37,1.74 1.11,2.55c-0.27,-0.09 -0.64,-0.14 -1.13,-0.14c-0.49,0 -0.96,-0.12 -1.39,-0.37c-0.43,-0.25 -0.78,-0.56 -1.03,-0.93c-0.49,-0.7 -0.85,-1.49 -1.09,-2.38c-0.1,0.17 -0.48,0.33 -1.13,0.5c-0.65,0.17 -1.2,0.26 -1.65,0.26c-0.45,0 -0.84,-0.06 -1.18,-0.19c-0.34,-0.13 -0.59,-0.26 -0.75,-0.4c-0.15,-0.14 -0.27,-0.32 -0.34,-0.54c-0.11,-0.25 -0.16,-0.48 -0.16,-0.67c0.92,-0.05 1.72,-0.28 2.41,-0.71c0.69,-0.43 1.03,-1.12 1.03,-2.07c0,-0.95 -0.28,-1.7 -0.85,-2.23c-0.57,-0.53 -1.21,-0.8 -1.92,-0.8c-2.32,0 -3.48,1.39 -3.48,4.17c0,2.35 0.6,4.1 1.79,5.25c0.63,0.61 1.26,0.91 1.91,0.91c0.65,0 1.33,-0.1 2.04,-0.3c0.71,-0.2 1.12,-0.3 1.23,-0.3c0.11,0 0.24,0.19 0.37,0.58c0.45,1.31 1.02,2.2 1.7,2.66c1.61,1.07 2.89,2.43 3.84,4.1c0.95,1.67 1.42,3.45 1.42,5.34c0,1.89 -0.33,3.5 -1,4.81c-0.67,1.32 -1.55,2.39 -2.64,3.2c-2.25,1.67 -4.85,2.5 -7.8,2.5c-2.73,0 -5.08,-0.72 -7.03,-2.17c-0.95,-0.71 -1.7,-1.63 -2.27,-2.76c-0.57,-1.13 -0.85,-2.21 -0.85,-3.23c0,-1.02 0.19,-2.09 0.58,-3.2c0.39,-1.11 0.59,-1.98 0.59,-2.59c0,-0.61 -0.25,-1.26 -0.75,-1.94c0.21,-0.15 0.48,-0.22 0.82,-0.22c0.91,0 1.72,0.45 2.42,1.36c0.71,0.91 1.07,1.83 1.08,2.78c0.97,-0.51 1.82,-0.77 2.55,-0.77c0.73,0 1.27,0.07 1.62,0.21c0.35,0.14 0.6,0.32 0.75,0.54c0.25,0.35 0.38,0.68 0.38,0.97v0.18c-0.86,0.11 -1.61,0.47 -2.25,1.08c-0.65,0.61 -0.97,1.39 -0.97,2.34c0,0.94 0.3,1.64 0.91,2.1c0.61,0.46 1.37,0.69 2.3,0.69c0.92,0 1.79,-0.37 2.62,-1.1c0.83,-0.73 1.24,-1.76 1.24,-3.09zM9.21088,48.89c-0.59,-0.15 -0.88,-0.64 -0.88,-1.47c0,-0.83 0.41,-1.59 1.24,-2.28c-0.35,-0.25 -0.65,-0.58 -0.89,-0.99c-0.23,-0.41 -0.35,-0.82 -0.35,-1.23c0,-0.41 0.07,-0.75 0.22,-1.01c0.15,-0.25 0.37,-0.43 0.66,-0.52c1.15,0.71 2.31,1.07 3.48,1.07c0.46,0 1.08,-0.18 1.85,-0.53c0.78,-0.36 1.36,-0.54 1.74,-0.54c0.95,0 1.78,0.61 2.49,1.82c0.69,-1.21 1.51,-1.82 2.44,-1.82c0.38,0 0.96,0.18 1.74,0.54c0.77,0.35 1.39,0.53 1.85,0.53c1.12,0 2.28,-0.36 3.48,-1.07c0.37,0 0.62,0.28 0.77,0.85c0.06,0.21 0.09,0.47 0.09,0.8c0,0.33 -0.11,0.69 -0.33,1.06c-0.35,0.59 -0.66,0.93 -0.93,1.04c0.34,0.21 0.63,0.52 0.88,0.95c0.25,0.43 0.38,0.81 0.38,1.13c0,0.33 -0.03,0.6 -0.09,0.81c-0.06,0.21 -0.13,0.37 -0.2,0.48c-0.16,0.19 -0.35,0.32 -0.57,0.38c-0.9,-1.04 -2.14,-1.56 -3.73,-1.56l-2.28,0.09c-0.18,0.18 -0.27,1.16 -0.27,2.93c0,1.77 0.08,3.19 0.25,4.25c0.16,1.07 0.36,1.86 0.61,2.37c0.24,0.51 0.48,0.91 0.72,1.2c0.23,0.3 0.43,0.52 0.6,0.67c0.16,0.15 0.24,0.28 0.24,0.41c0,0.13 -0.06,0.26 -0.18,0.39c-0.11,0.13 -0.26,0.27 -0.44,0.4c-0.18,0.13 -0.38,0.38 -0.59,0.74c-0.21,0.36 -0.41,0.8 -0.59,1.32c-0.41,1.21 -0.62,2.97 -0.62,5.28c0,2.31 0.2,4.05 0.59,5.22c0.39,1.17 1.09,2.24 2.1,3.2c0,0.53 -0.42,0.92 -1.25,1.19c-0.31,0.09 -0.74,0.14 -1.29,0.14c-0.55,0 -1.13,-0.22 -1.72,-0.65c-0.59,-0.43 -1.02,-0.85 -1.29,-1.26l-0.37,-0.64c-0.43,1.06 -1.2,1.82 -2.29,2.28c-0.44,0.18 -0.89,0.27 -1.34,0.27c-0.45,0 -0.83,-0.05 -1.15,-0.14c-0.32,-0.09 -0.55,-0.2 -0.7,-0.33c-0.33,-0.29 -0.51,-0.58 -0.55,-0.86c1.01,-0.96 1.7,-2.03 2.09,-3.21c0.39,-1.17 0.59,-2.66 0.59,-4.45c0,-1.8 -0.08,-3.24 -0.24,-4.32c-0.17,-1.09 -0.37,-1.88 -0.6,-2.37c-0.24,-0.49 -0.48,-0.87 -0.72,-1.14c-0.25,-0.27 -0.45,-0.48 -0.61,-0.63c-0.17,-0.15 -0.25,-0.29 -0.25,-0.42c0,-0.13 0.08,-0.27 0.25,-0.42c0.16,-0.15 0.36,-0.37 0.61,-0.67c0.24,-0.29 0.48,-0.7 0.72,-1.22c0.56,-1.19 0.84,-2.98 0.84,-5.35c0,-2.37 -0.09,-3.77 -0.27,-4.18c0,-0.06 -0.65,-0.09 -1.95,-0.09c-1.3,0 -2.19,0.12 -2.66,0.37c-0.47,0.25 -0.92,0.64 -1.33,1.19zM44.93088,49.02c0,-2.27 -0.9,-3.41 -2.71,-3.41c-1.59,0 -2.55,0.52 -2.88,1.57c-0.15,0.46 -0.22,1.22 -0.22,2.27c0,1.06 0.03,2.13 0.09,3.22c0.06,1.08 0.14,1.94 0.24,2.59c0.11,0.64 0.22,1.19 0.33,1.65c0.12,0.46 0.24,0.8 0.36,1.02c0.11,0.22 0.22,0.4 0.33,0.55c0.22,0.33 0.33,0.57 0.33,0.74c0,0.16 -0.09,0.37 -0.26,0.64c-0.18,0.27 -0.37,0.61 -0.58,1.04c-0.56,1.14 -0.84,3.5 -0.84,7.09c0,2.23 0.22,3.62 0.66,4.17c0.49,0.59 1.23,0.89 2.24,0.89c0.99,0 1.63,-0.16 1.92,-0.47c0.29,-0.31 0.49,-0.57 0.61,-0.78c0.12,-0.22 0.21,-0.56 0.26,-1.01c0.08,-0.65 0.12,-1.56 0.12,-2.71v-0.29c0,-3.51 -0.28,-5.82 -0.85,-6.93c-0.21,-0.4 -0.4,-0.74 -0.57,-1.01c-0.18,-0.27 -0.27,-0.49 -0.27,-0.65c0,-0.15 0.06,-0.31 0.18,-0.46c0.12,-0.15 0.26,-0.39 0.42,-0.71c0.16,-0.32 0.32,-0.77 0.49,-1.34c0.4,-1.41 0.6,-3.96 0.6,-7.67zM29.56088,75.8c1.79,-1.66 2.69,-4.28 2.69,-7.87c0,-3.09 -0.28,-5.24 -0.85,-6.43c-0.37,-0.79 -0.72,-1.33 -1.06,-1.62c-0.34,-0.29 -0.51,-0.51 -0.51,-0.65c0,-0.14 0.08,-0.29 0.24,-0.45c0.17,-0.15 0.37,-0.38 0.61,-0.67c0.25,-0.3 0.49,-0.71 0.72,-1.24c0.57,-1.25 0.85,-3.15 0.85,-5.71c0,-2.57 -0.2,-4.38 -0.59,-5.44c-0.39,-1.07 -1.09,-2.07 -2.1,-3.02c0,-0.53 0.41,-0.92 1.22,-1.17c0.33,-0.09 0.77,-0.14 1.34,-0.14c0.57,0 1.19,0.19 1.84,0.56c0.66,0.37 1.14,0.74 1.43,1.11l0.45,0.55c1.3,-1.48 3.78,-2.22 7.45,-2.22c2.77,0 4.86,0.65 6.27,1.95c1.79,1.67 2.68,4.25 2.68,7.72c0,3.96 0.58,6.55 1.73,7.76c0.13,0.15 0.2,0.29 0.2,0.42c0,0.13 -0.07,0.27 -0.2,0.41c-0.13,0.14 -0.29,0.36 -0.48,0.65c-0.18,0.3 -0.37,0.7 -0.56,1.2c-0.46,1.19 -0.69,3.31 -0.69,6.34c0,3.03 -0.78,5.33 -2.34,6.91c-1.56,1.59 -3.71,2.38 -6.44,2.38c-3.63,0 -6.17,-0.85 -7.62,-2.55c-0.64,1.06 -1.51,1.82 -2.6,2.28c-0.44,0.18 -0.94,0.27 -1.5,0.27c-0.57,0 -1.04,-0.11 -1.42,-0.34c-0.39,-0.22 -0.61,-0.44 -0.67,-0.66z" stroke-linecap="round"/>
</g>
</g>
</g>
<g transform="matrix(1 0 0 1 -53834.134439 6840.923073)" id="6fc07b6a-3a6c-4a8e-a089-a8240b090214">

</g>
<g transform="matrix(1 0 0 1 -53834.134439 6840.923073)" id="d3c1acab-f7e2-4e60-b0dc-fd7b32bc7017">

</g>

  </svg>