<svg xmlns="http://www.w3.org/2000/svg" xmlns:xlink="http://www.w3.org/1999/xlink" width="336px" height="669px" viewBox="0 0 335.7896413226117 668.2584148000005">
    <g id="ef864cf4-8d5b-4d7a-a28f-1645b54f2361">
<g style="">
		<g id="ef864cf4-8d5b-4d7a-a28f-1645b54f2361-child-0">
<path style="stroke: rgb(193,193,193); stroke-width: 0; stroke-dasharray: none; stroke-linecap: butt; stroke-dashoffset: 0; stroke-linejoin: miter; stroke-miterlimit: 4; fill: rgb(249,195,12); fill-rule: nonzero; opacity: 1;" transform="matrix(0 0.254468 -0.263982 0 167.894821 334.129207) matrix(1 0 0 1 0 0)  translate(-1313.05, -637.088145)" d="M 571.70 215.00 C 569.50 211.70 567.80 207.90 565.60 203.50 C 567.50 200.90 568.60 197.70 570.60 197.00 C 573.30 196.30 576.30 196.70 578.80 198.00 C 580.50 198.70 581.50 200.90 582.70 202.70 C 627.90 268.70 673.30 334.70 718.90 400.80 C 722.20 405.20 725.20 409.90 727.70 414.90 C 729.50 417.40 729.50 423.40 727.70 424.70 C 724.40 426.60 720.30 426.80 716.70 425.30 C 712.90 422.80 709.80 419.40 707.50 415.50 C 662.10 348.70 616.80 281.90 571.60 215.00 Z M 639.50 496.80 C 637.20 499.90 636.50 503.90 637.70 507.70 C 640.50 513.70 644.20 519.20 648.60 524.10 C 710.90 599.60 773.10 675.00 835.30 750.40 C 843.40 760.20 851.00 770.70 859.60 780.30 C 862.20 782.70 865.80 784.10 869.40 783.80 C 871.60 783.80 873.30 779.50 875.30 777.20 C 874.00 773.80 872.50 770.60 870.70 767.30 C 865.30 759.80 859.70 752.30 853.90 745.20 C 786.40 663.30 718.70 581.50 651.00 499.80 C 647.80 495.90 643.50 493.20 639.70 496.90 Z M 960.70 657.40 C 963.50 662.70 965.80 669.70 973.50 666.30 C 981.20 662.90 977.60 656.50 975.90 650.70 C 975.60 649.50 975.20 648.40 974.70 647.30 C 967.70 633.10 961.00 618.70 953.50 604.80 C 901.20 507.00 852.70 408.00 794.90 313.60 C 793.50 311.40 792.70 308.20 790.80 306.90 C 788.40 304.90 785.20 304.10 782.10 304.40 C 779.80 305.10 778.10 308.60 775.90 311.00 C 777.50 315.20 778.90 318.40 781.10 321.60 L 960.60 657.60 Z M 468.90 485.40 C 515.20 538.30 563.90 589.00 615.60 637.10 C 619.70 640.40 624.10 643.50 628.60 646.20 C 631.30 643.70 635.50 641.70 635.60 639.60 C 635.80 635.70 634.40 631.90 631.90 628.80 C 614.50 611.60 595.90 595.50 579.00 577.80 C 538.20 535.30 498.10 492.00 457.80 449.10 C 454.00 445.00 449.60 440.60 444.20 445.30 C 438.80 450.00 442.20 455.60 446.30 460.00 C 453.80 468.50 461.60 476.80 469.00 485.40 Z M 391.50 571.30 C 453.40 626.20 515.30 681.00 577.30 735.90 C 579.90 738.10 582.70 740.00 585.50 741.90 C 588.20 739.80 591.70 738.70 592.00 736.80 C 592.90 733.50 592.40 730.00 590.60 727.00 C 584.30 718.70 577.30 711.00 569.70 703.90 C 513.70 655.30 457.50 607.00 401.10 558.80 C 396.30 554.70 390.30 548.10 384.50 555.70 C 378.60 563.20 386.70 567.10 391.50 571.30 Z M 1067.10 498.60 C 1076.90 533.20 1085.80 568.30 1095.50 603.00 C 1096.90 606.30 1099.70 608.80 1103.20 609.60 C 1105.90 609.60 1110.50 605.10 1110.50 602.60 C 1111.00 594.60 1110.30 586.60 1108.30 578.70 C 1079.90 482.80 1051.40 387.00 1022.60 291.10 C 1016.90 272.20 1011.00 253.60 1005.90 234.50 C 1004.60 229.60 1003.50 224.70 998.20 226.10 C 992.90 227.50 991.50 231.80 988.40 234.20 C 990.90 242.10 992.20 248.00 994.00 254.10 C 1018.30 335.60 1042.90 417.10 1067.10 498.60 Z M 144.00 1086.50 C 105.40 1079.10 66.80 1071.90 28.10 1064.80 C 21.30 1063.10 14.20 1062.10 7.20 1061.60 C 3.70 1062.50 0.90 1065.20 -0.00 1068.60 C -0.00 1071.20 3.20 1075.10 6.10 1076.90 C 9.20 1078.30 12.60 1079.00 15.90 1079.10 C 42.00 1083.80 68.10 1088.30 94.10 1093.20 C 110.10 1096.10 126.20 1099.80 139.30 1103.00 C 150.30 1102.70 155.40 1097.90 152.30 1092.20 C 150.40 1089.30 147.50 1087.20 144.10 1086.50 Z M 278.60 1006.60 C 274.40 1004.80 269.90 1003.90 265.30 1003.60 C 262.00 1004.20 259.20 1006.50 258.00 1009.70 C 258.00 1013.10 259.50 1016.30 261.80 1018.70 C 264.00 1020.40 266.50 1021.40 269.10 1021.80 C 387.40 1060.10 505.90 1098.10 624.60 1136.00 C 636.80 1139.80 649.30 1142.50 661.80 1145.80 C 669.90 1144.70 674.20 1142.50 674.40 1137.50 L 674.40 1137.50 C 674.40 1130.70 669.10 1129.70 664.60 1128.30 C 651.40 1124.80 638.00 1121.70 624.90 1117.60 C 511.90 1082.00 398.80 1046.20 285.80 1010.00 C 283.40 1009.20 281.10 1007.40 278.70 1006.60 Z M 718.10 1001.20 C 709.00 993.30 699.10 986.30 688.80 980.20 C 591.40 929.30 493.90 878.60 396.10 828.10 C 393.40 826.70 388.80 829.00 385.10 829.50 C 386.10 833.40 385.90 838.60 388.30 840.90 C 393.20 844.80 398.60 848.10 404.30 850.70 C 469.60 884.80 535.20 918.60 599.90 953.20 C 636.30 972.80 671.90 993.40 707.50 1013.40 C 709.30 1014.40 711.20 1015.10 714.10 1016.30 C 717.00 1014.60 720.70 1013.10 721.00 1011.00 L 720.70 1011.00 C 721.40 1007.50 720.50 1004.00 718.20 1001.20 Z M 205.40 586.70 C 223.10 599.40 240.60 612.50 258.50 624.90 C 307.40 658.50 356.30 691.80 405.20 725.50 C 443.70 752.30 481.80 779.80 520.20 806.90 C 524.20 809.70 528.90 811.90 533.80 814.60 C 536.70 812.90 539.90 812.00 540.70 809.90 C 541.60 807.00 541.40 803.70 540.00 800.90 C 539.00 798.70 536.20 797.20 534.00 795.60 C 483.10 759.40 432.20 723.30 381.10 687.30 C 324.50 647.80 267.60 608.70 210.60 570.00 C 208.00 568.10 202.70 570.00 198.60 570.60 C 198.80 574.40 199.30 578.20 200.30 581.90 C 200.90 583.90 203.50 585.20 205.50 586.70 Z M 880.10 287.10 C 881.70 291.90 883.80 296.50 886.70 300.70 C 889.10 303.50 892.90 304.80 896.50 304.20 C 899.30 302.00 901.00 298.60 900.90 295.00 C 900.40 290.50 899.10 286.20 897.10 282.20 C 877.20 231.40 857.10 180.50 837.10 129.80 C 835.90 126.30 834.10 123.00 831.70 120.00 C 829.50 117.80 826.40 116.80 823.30 117.20 C 821.00 117.80 819.30 121.30 817.70 123.10 C 818.20 125.40 818.90 127.80 819.70 130.00 C 839.80 182.20 860.00 234.50 880.20 287.10 Z M 2131.40 536.90 C 2138.20 532.20 2144.80 527.10 2151.10 521.60 C 2184.90 487.40 2218.50 453.20 2252.10 418.30 C 2256.00 414.40 2259.90 409.70 2254.50 404.50 C 2249.10 399.30 2244.70 403.30 2240.70 407.20 L 2238.20 409.70 L 2127.40 519.60 C 2126.10 520.90 2124.30 522.00 2123.90 523.60 C 2123.10 526.20 2123.10 529.20 2123.90 531.80 C 2124.80 533.80 2128.00 534.60 2131.40 536.70 Z M 2162.80 1074.50 C 2162.80 1077.10 2167.20 1080.00 2170.10 1081.80 C 2171.60 1082.80 2174.20 1081.80 2176.30 1081.80 L 2176.70 1083.70 C 2186.50 1081.30 2196.30 1079.20 2206.00 1076.40 C 2265.20 1058.50 2324.20 1040.30 2383.40 1022.30 L 2493.10 989.00 C 2498.20 987.40 2502.90 985.20 2501.40 978.50 C 2499.90 971.90 2493.50 972.40 2488.00 974.00 C 2482.50 975.60 2478.20 977.10 2473.50 978.60 C 2372.00 1008.10 2270.60 1037.40 2169.20 1066.60 C 2165.90 1068.00 2163.40 1071.00 2162.70 1074.50 Z M 2392.10 761.10 C 2394.30 759.00 2394.50 754.50 2395.60 751.30 C 2392.00 750.00 2388.40 749.00 2384.60 748.10 C 2383.20 748.10 2381.50 749.60 2379.90 750.30 C 2347.50 767.90 2315.40 785.70 2282.90 803.00 C 2222.90 835.10 2162.60 866.90 2102.60 899.10 C 2099.60 901.20 2097.80 904.50 2097.70 908.10 C 2097.70 910.70 2102.60 912.70 2105.90 915.60 C 2115.10 912.10 2123.60 909.00 2131.40 905.20 C 2148.90 896.00 2165.90 885.60 2183.20 876.60 L 2376.80 770.80 C 2382.20 768.10 2387.30 764.80 2392.00 761.00 Z M 2398.20 886.70 C 2398.80 889.10 2402.40 890.80 2404.50 892.70 C 2408.20 891.70 2410.80 890.90 2413.20 889.60 L 2437.20 879.80 L 2533.70 838.70 C 2538.80 836.50 2544.40 833.60 2541.30 826.90 C 2538.30 820.20 2532.00 822.30 2526.60 824.70 C 2516.80 828.70 2508.00 833.00 2498.60 836.80 C 2472.30 847.40 2445.80 857.70 2419.50 868.50 C 2412.90 871.00 2406.60 874.40 2400.70 878.30 C 2398.50 880.50 2397.60 883.80 2398.20 886.80 Z M 2265.70 958.30 C 2300.20 942.60 2334.70 926.70 2369.10 910.80 C 2373.60 909.00 2377.70 906.60 2381.30 903.50 C 2383.40 901.20 2384.10 897.90 2383.50 894.90 C 2382.90 892.70 2379.50 891.40 2377.30 889.80 C 2374.20 891.00 2371.90 891.60 2369.80 892.50 L 2319.20 915.70 C 2298.90 924.90 2278.30 934.00 2258.10 943.40 C 2252.80 945.80 2248.80 950.20 2252.20 956.40 C 2255.60 962.60 2260.90 960.60 2265.70 958.40 Z M 1523.20 672.20 C 1524.30 673.00 1525.40 677.20 1527.90 678.00 L 1527.60 678.00 C 1530.90 678.70 1534.40 677.70 1536.90 675.30 C 1540.60 669.20 1543.50 662.60 1545.30 655.70 C 1556.70 612.80 1567.10 569.50 1579.00 526.60 C 1596.80 462.20 1615.70 398.00 1634.10 333.80 C 1635.60 328.80 1635.50 324.00 1630.10 322.90 C 1626.00 323.10 1622.20 325.10 1619.70 328.40 C 1617.50 331.90 1615.90 335.80 1615.20 339.90 C 1590.30 427.10 1565.10 514.30 1540.50 601.80 C 1534.20 624.20 1529.40 647.00 1523.20 672.20 Z M 1818.60 735.80 C 1822.70 737.60 1827.40 737.30 1831.10 734.80 C 1838.00 729.00 1844.30 722.50 1849.80 715.20 C 1901.70 651.80 1953.70 588.10 2005.20 524.60 C 2039.90 481.60 2073.60 437.90 2108.20 394.40 C 2111.00 390.80 2113.30 386.60 2114.90 384.60 C 2114.60 377.20 2108.80 373.70 2103.90 376.70 L 2104.10 377.10 C 2101.70 378.80 2099.50 380.90 2097.80 383.40 L 1819.80 723.40 C 1816.50 727.40 1813.90 732.60 1818.60 735.80 Z M 1777.70 476.00 C 1781.60 475.10 1787.50 476.00 1789.20 473.20 C 1794.40 467.10 1799.00 460.60 1802.80 453.60 C 1831.90 400.10 1860.90 346.60 1889.80 292.90 C 1891.10 290.30 1892.10 287.50 1893.10 284.80 C 1891.40 282.40 1890.20 279.30 1888.20 278.70 C 1885.50 278.00 1882.50 278.40 1880.00 279.80 C 1877.80 281.50 1876.20 283.60 1875.20 286.20 C 1842.20 345.40 1809.30 404.70 1776.50 464.10 C 1774.90 467.00 1777.10 472.00 1777.60 476.00 Z M 1666.50 508.90 L 1666.70 509.30 C 1670.90 508.20 1674.50 505.30 1676.50 501.40 C 1699.60 446.30 1721.60 390.70 1744.90 335.80 C 1774.20 267.40 1804.40 198.90 1834.00 130.50 C 1838.70 119.50 1842.00 108.00 1845.90 96.80 C 1847.90 91.20 1848.40 85.60 1841.60 83.40 C 1834.80 81.20 1833.00 86.50 1830.90 91.50 C 1819.90 119.00 1809.00 146.50 1797.50 173.60 C 1753.00 277.90 1708.40 382.00 1663.70 485.80 C 1661.80 490.20 1660.70 494.80 1658.50 501.30 C 1661.00 503.80 1664.10 509.30 1666.40 508.90 Z M 1972.80 695.60 C 1975.30 694.10 1977.70 692.50 1979.90 690.50 L 1979.90 690.50 C 2019.60 649.70 2059.20 609.00 2098.80 568.20 C 2100.30 566.70 2102.50 565.20 2102.70 563.40 C 2103.50 560.10 2103.00 556.60 2101.30 553.60 C 2099.90 551.90 2095.50 552.30 2092.60 552.80 C 2089.70 553.30 2089.20 555.10 2087.70 556.60 C 2050.50 594.00 2013.40 631.30 1976.30 668.70 C 1972.10 672.90 1968.30 677.60 1965.10 682.60 C 1962.90 685.20 1962.70 688.90 1964.30 691.80 C 1966.10 694.70 1969.40 696.20 1972.70 695.60 Z M 1870.40 875.70 C 1871.00 878.20 1874.90 880.00 1877.30 882.10 C 1882.30 880.10 1887.10 877.90 1891.80 875.30 C 1899.90 870.20 1907.70 864.80 1915.30 859.00 C 1980.50 807.30 2045.40 755.40 2110.00 703.40 C 2112.20 701.50 2112.20 696.80 2113.10 693.60 C 2109.50 692.50 2105.20 689.80 2102.30 690.80 C 2096.90 693.40 2091.80 696.80 2087.10 700.60 C 2012.60 751.60 1949.60 817.90 1873.40 866.80 C 1870.90 869.00 1869.70 872.50 1870.30 875.80 Z M 145.40 845.80 L 149.50 847.60 L 292.60 909.30 C 338.10 928.90 383.40 948.40 429.50 968.00 C 436.10 970.70 443.00 972.50 451.50 975.30 C 453.50 973.30 458.30 970.00 458.30 968.00 C 457.00 963.80 454.20 960.30 450.30 958.20 C 397.00 935.00 343.80 912.20 290.60 889.80 C 244.40 870.20 198.10 850.70 151.90 831.10 C 146.70 828.90 142.10 826.50 138.80 832.50 C 135.50 838.50 139.60 843.20 145.40 845.90 Z M 1780.30 660.90 C 1866.50 532.60 1953.70 404.80 2040.40 276.80 C 2042.50 274.60 2043.90 271.90 2044.70 269.10 C 2045.30 266.10 2044.50 262.90 2042.50 260.50 C 2039.70 259.20 2036.40 259.20 2033.60 260.50 C 2031.40 261.30 2029.70 264.00 2028.20 266.30 C 1989.10 324.40 1949.70 382.70 1910.20 441.00 C 1828.10 561.90 1746.00 682.70 1663.80 803.70 C 1622.00 863.90 1584.30 926.90 1550.80 992.00 C 1548.50 996.40 1546.60 1001.10 1544.20 1006.40 C 1546.30 1008.90 1547.60 1012.40 1549.80 1013.00 C 1552.80 1013.80 1556.10 1013.00 1558.60 1011.20 C 1561.90 1007.40 1564.80 1003.20 1566.90 998.60 C 1584.10 967.50 1599.60 935.20 1618.70 905.40 C 1671.70 823.20 1725.50 741.70 1780.20 660.90 Z M 543.90 1242.40 C 526.70 1240.30 509.50 1238.20 492.30 1237.10 C 422.00 1232.50 351.30 1232.10 281.50 1221.10 C 278.90 1221.10 273.60 1223.30 273.10 1225.10 C 272.70 1228.70 274.00 1232.30 276.50 1234.90 C 279.90 1237.20 283.90 1238.60 288.10 1238.90 C 313.90 1241.60 339.70 1244.60 365.60 1246.40 C 424.30 1250.60 482.90 1254.20 545.20 1258.30 C 546.50 1257.50 551.00 1255.40 551.90 1252.10 C 553.70 1246.40 549.00 1243.20 543.80 1242.30 Z M 1519.20 395.30 C 1533.80 325.10 1547.80 254.90 1562.40 184.70 C 1567.60 159.60 1574.20 134.70 1579.80 109.70 C 1580.90 104.50 1583.00 97.40 1575.10 95.40 C 1567.20 93.40 1565.80 100.10 1564.40 105.70 C 1554.60 146.00 1543.60 186.20 1535.10 226.80 C 1519.00 303.40 1505.90 380.60 1488.30 456.80 C 1468.40 543.30 1455.50 631.20 1436.00 717.90 C 1422.90 776.80 1413.20 836.30 1402.20 895.70 C 1397.60 920.00 1393.30 945.10 1389.00 968.90 C 1389.00 971.60 1389.50 974.30 1390.50 976.80 C 1392.90 980.00 1395.70 983.10 1398.70 985.90 C 1401.50 983.00 1405.30 980.50 1406.90 977.00 C 1408.70 971.90 1409.90 966.60 1410.70 961.40 C 1429.80 874.90 1448.90 788.70 1461.60 700.70 C 1468.40 653.80 1475.70 606.80 1484.60 560.20 C 1495.10 505.10 1507.80 450.40 1519.20 395.40 Z M 1394.30 650.70 C 1397.20 648.40 1399.80 645.60 1402.00 642.60 C 1403.10 639.50 1403.60 636.10 1403.50 632.80 C 1406.30 606.10 1409.10 579.30 1411.80 552.60 C 1415.70 514.50 1419.60 476.50 1423.30 438.50 C 1426.80 402.60 1430.10 366.80 1433.10 330.90 C 1434.60 313.90 1435.70 297.00 1436.40 280.00 C 1435.90 276.20 1434.20 272.80 1431.30 270.20 C 1430.30 269.20 1425.40 270.20 1424.40 271.70 C 1422.40 274.60 1421.30 278.00 1421.10 281.50 C 1419.20 298.70 1418.00 315.90 1416.30 333.20 L 1404.90 446.30 C 1401.00 484.40 1397.00 522.40 1393.10 560.40 C 1390.60 585.30 1387.90 610.30 1385.40 635.10 C 1386.30 637.70 1385.70 640.60 1386.90 642.30 L 1386.60 642.30 C 1388.90 645.30 1391.60 648.10 1394.40 650.60 Z M 1835.20 840.00 C 1873.40 800.90 1910.60 761.80 1948.10 722.00 C 1952.00 717.90 1955.50 712.90 1950.30 707.90 C 1945.10 702.90 1940.50 707.00 1936.60 711.00 C 1936.00 711.70 1935.40 712.40 1934.70 713.00 C 1847.30 802.00 1759.80 890.90 1672.30 979.80 C 1645.80 1006.70 1618.60 1032.70 1591.90 1059.40 C 1588.20 1063.90 1585.00 1068.80 1582.10 1073.90 C 1584.30 1077.10 1585.80 1080.90 1588.20 1081.50 C 1591.70 1082.10 1595.20 1081.00 1598.00 1078.80 C 1605.30 1071.90 1611.90 1063.90 1619.00 1056.80 C 1691.10 984.50 1763.40 912.70 1835.10 840.00 Z M 1335.80 18.80 C 1333.50 16.40 1331.20 12.90 1328.50 12.40 C 1325.80 11.90 1322.70 15.10 1321.50 17.60 C 1320.20 20.70 1319.70 24.10 1320.00 27.40 L 1320.00 68.50 L 1321.10 68.30 L 1321.10 112.20 C 1321.10 117.20 1321.10 122.00 1327.90 122.70 C 1334.70 123.40 1335.80 118.30 1336.70 113.50 C 1337.30 110.30 1337.60 107.00 1337.50 103.70 C 1337.00 76.50 1336.50 49.40 1335.80 22.30 L 1335.80 18.80 Z M 2619.80 1068.00 L 2614.70 1068.70 C 2571.20 1076.50 2527.70 1084.00 2484.30 1092.20 C 2470.00 1095.30 2455.90 1099.20 2442.20 1103.90 C 2439.80 1104.30 2437.60 1105.90 2436.40 1108.00 C 2435.10 1110.20 2435.00 1112.70 2435.90 1115.00 C 2438.10 1120.60 2442.70 1120.30 2447.90 1119.20 C 2485.80 1111.00 2523.80 1103.00 2561.80 1095.10 C 2580.80 1091.20 2599.90 1088.10 2618.80 1083.70 C 2622.60 1082.10 2625.40 1078.70 2626.10 1074.70 C 2626.10 1072.50 2621.30 1069.50 2619.70 1068.00 Z M 2503.10 1214.40 C 2500.80 1213.10 2498.00 1212.70 2495.40 1213.20 L 2366.70 1223.00 L 2214.90 1235.20 C 2200.20 1236.40 2185.60 1237.10 2171.10 1238.90 C 2167.80 1239.40 2164.90 1243.80 2161.90 1246.30 C 2164.60 1248.90 2167.00 1252.80 2170.30 1253.90 C 2174.70 1254.90 2179.30 1255.30 2183.80 1255.10 L 2285.50 1247.30 C 2325.40 1244.00 2365.30 1240.70 2405.20 1237.50 C 2437.30 1234.70 2469.40 1231.60 2501.50 1228.40 C 2503.90 1228.40 2507.80 1224.70 2507.90 1222.60 C 2507.50 1219.30 2505.70 1216.30 2503.10 1214.30 Z M 2398.10 1128.90 C 2401.40 1127.40 2403.60 1124.30 2403.90 1120.70 C 2403.90 1118.30 2399.00 1115.50 2395.90 1114.60 C 2392.60 1114.10 2389.30 1114.40 2386.10 1115.50 C 2334.00 1125.30 2281.80 1135.60 2229.60 1146.20 C 2102.90 1171.80 1976.20 1197.60 1849.40 1223.50 C 1828.40 1227.70 1807.20 1231.10 1786.00 1235.50 C 1761.00 1240.70 1735.90 1246.30 1711.10 1252.30 C 1707.20 1253.20 1704.20 1257.30 1702.30 1258.80 C 1701.40 1272.10 1706.90 1276.30 1716.60 1272.70 L 1717.10 1272.70 C 1754.50 1260.20 1792.80 1250.70 1831.70 1244.30 C 1925.90 1225.90 2020.00 1208.20 2114.00 1189.10 C 2200.60 1171.50 2287.10 1152.40 2373.50 1134.00 C 2381.70 1132.20 2390.10 1131.40 2398.00 1128.80 Z M 2228.20 737.00 C 2283.10 700.40 2337.90 663.60 2392.80 626.60 C 2396.30 623.60 2399.50 620.30 2402.60 616.80 C 2398.50 613.40 2395.80 610.40 2392.60 610.20 L 2392.60 610.50 C 2389.40 610.70 2386.20 611.90 2383.70 613.90 C 2294.60 672.60 2205.70 731.20 2116.50 789.90 C 1962.20 891.10 1813.40 999.50 1661.10 1104.30 C 1654.40 1109.10 1647.80 1114.30 1641.50 1119.70 C 1639.30 1121.00 1637.70 1123.30 1637.20 1125.90 C 1636.80 1128.50 1637.50 1131.20 1639.30 1133.10 C 1643.20 1137.50 1647.90 1135.70 1652.20 1133.10 C 1691.30 1106.30 1730.40 1080.40 1768.70 1052.40 C 1918.40 942.00 2074.10 840.20 2228.30 737.00 Z M 1725.50 1179.90 L 1726.20 1180.20 C 1784.90 1156.20 1844.30 1133.00 1902.90 1108.20 C 2007.20 1064.20 2111.10 1019.20 2215.20 974.70 C 2220.00 972.60 2223.90 969.80 2221.90 963.80 C 2219.90 957.80 2214.70 958.60 2209.90 959.70 C 2208.40 960.00 2207.10 960.60 2205.70 961.20 C 2180.00 971.70 2154.10 981.70 2128.50 992.60 C 2042.50 1029.10 1956.60 1066.10 1870.50 1102.40 C 1817.60 1124.70 1764.40 1146.00 1711.40 1167.90 C 1707.20 1169.40 1703.30 1171.80 1700.10 1174.90 C 1698.00 1177.70 1697.30 1181.30 1698.10 1184.70 C 1698.80 1187.00 1702.60 1188.50 1705.00 1190.40 C 1712.00 1186.20 1718.60 1183.00 1725.50 1179.80 Z M 1659.60 543.10 L 1663.90 531.90 C 1662.20 529.70 1661.30 526.00 1658.50 525.30 C 1655.40 524.80 1652.20 525.70 1649.90 527.70 C 1647.70 530.10 1646.10 533.10 1645.20 536.20 C 1624.00 586.60 1602.60 636.80 1582.00 687.60 C 1542.90 786.10 1503.80 884.80 1465.20 983.50 C 1463.20 988.30 1462.40 993.30 1467.80 995.90 C 1473.30 998.50 1477.60 994.90 1479.70 989.70 C 1480.30 988.30 1481.00 987.10 1481.60 985.60 C 1501.80 930.90 1533.70 880.90 1547.20 823.50 L 1659.50 543.10 Z M 1334.00 884.60 C 1334.00 825.90 1335.60 767.30 1335.50 708.60 C 1335.50 578.80 1334.50 449.10 1334.00 319.20 C 1334.00 317.10 1334.60 314.50 1333.50 313.10 C 1332.40 311.70 1328.80 307.40 1326.10 307.10 C 1323.40 306.80 1320.40 310.20 1319.60 312.70 C 1318.60 316.80 1318.30 320.90 1318.60 325.10 L 1318.60 609.60 L 1318.40 609.60 L 1318.40 698.50 C 1318.40 764.50 1318.20 830.60 1317.70 896.70 C 1317.70 900.60 1318.30 904.40 1319.30 908.10 C 1320.60 913.20 1323.60 916.90 1329.10 915.90 C 1334.60 914.90 1335.80 910.00 1335.50 904.90 C 1335.50 898.10 1334.00 891.20 1334.00 884.40 Z M 951.90 1073.70 C 939.30 1064.90 925.20 1058.30 912.00 1050.30 C 898.80 1042.30 882.70 1032.50 869.10 1022.70 C 782.40 961.90 695.90 901.30 609.70 840.80 C 597.50 832.20 585.30 823.50 572.70 815.40 C 569.70 813.80 566.20 813.30 562.90 814.00 C 561.10 814.00 559.90 817.80 558.10 820.30 C 559.60 822.80 561.40 825.20 563.50 827.30 C 570.30 832.70 577.50 837.10 584.60 842.60 L 845.50 1028.40 C 892.20 1061.70 944.70 1086.30 989.40 1122.70 C 990.10 1123.30 990.90 1124.20 991.60 1124.20 C 995.10 1124.20 998.60 1123.50 1002.20 1123.20 C 1002.20 1119.40 1002.80 1113.40 1000.70 1112.20 C 984.70 1098.90 968.50 1085.70 951.80 1073.80 Z M 914.20 1155.00 C 877.70 1139.20 841.40 1123.30 804.80 1107.90 C 718.40 1071.50 631.70 1035.50 545.30 999.20 C 529.70 992.60 514.30 985.00 498.60 978.80 C 495.80 977.60 491.40 980.30 487.70 981.10 C 488.50 984.80 489.70 988.40 491.20 991.90 C 492.00 993.50 494.60 994.10 496.50 994.90 C 516.60 1004.70 536.50 1013.90 556.80 1022.50 C 676.10 1073.20 795.40 1123.80 914.80 1174.40 C 917.50 1175.60 920.50 1176.20 924.60 1177.40 C 926.70 1175.70 930.60 1174.30 931.10 1171.90 C 931.70 1168.60 930.70 1165.20 928.40 1162.70 C 924.10 1159.50 919.30 1156.90 914.30 1155.10 Z M 1077.60 939.80 C 1058.00 911.90 1038.50 884.70 1019.90 856.50 C 936.20 729.70 852.70 602.80 769.50 475.70 C 767.30 471.50 764.60 467.50 761.70 463.80 C 759.40 461.80 756.10 461.00 753.10 461.60 C 750.90 461.60 749.50 465.50 747.60 467.90 C 748.90 471.20 750.30 474.40 752.00 477.50 C 758.50 487.70 765.00 497.70 771.60 507.70 C 848.60 626.20 925.80 744.60 1003.30 862.90 C 1036.20 912.80 1070.80 961.60 1104.90 1010.60 C 1107.10 1013.10 1110.50 1014.40 1113.80 1013.90 C 1116.50 1012.00 1118.30 1009.00 1118.40 1005.70 C 1118.00 1002.20 1116.70 998.80 1114.60 995.90 C 1102.40 977.10 1090.30 958.30 1077.60 939.80 Z M 874.50 1235.90 C 870.50 1233.80 866.20 1232.70 861.70 1232.20 C 750.90 1209.90 640.10 1187.70 529.20 1165.60 C 417.00 1143.50 304.30 1122.10 192.50 1100.20 C 187.00 1099.20 181.80 1098.30 180.40 1105.20 C 178.90 1112.00 183.20 1114.30 188.90 1115.60 C 209.80 1120.30 230.70 1125.40 251.80 1129.70 C 305.20 1139.50 358.80 1149.30 412.10 1159.00 C 481.20 1172.60 550.20 1187.50 619.20 1201.30 C 683.30 1214.10 747.60 1226.20 811.70 1238.80 C 831.30 1242.70 851.40 1247.20 873.90 1252.00 C 875.00 1250.80 880.30 1248.50 880.50 1245.60 L 881.00 1245.60 C 880.30 1241.60 878.00 1238.00 874.40 1235.80 Z M 995.70 990.30 C 954.30 952.30 911.70 915.50 871.70 876.00 C 804.00 809.10 738.00 740.60 671.40 672.60 C 667.90 669.10 663.40 666.30 660.00 670.60 C 658.10 674.20 658.10 678.60 660.00 682.20 C 663.50 687.50 667.60 692.20 672.30 696.40 C 721.20 746.50 771.00 795.70 819.00 846.60 C 869.80 900.40 924.60 950.00 979.70 999.20 C 984.40 1003.00 989.30 1006.50 994.40 1009.90 C 997.30 1007.80 1001.00 1007.20 1002.00 1005.20 L 1002.00 1005.60 C 1003.20 1002.80 1003.20 999.40 1002.00 996.60 C 1000.90 994.10 998.00 992.30 995.70 990.20 Z M 1004.50 543.80 C 974.10 471.10 945.20 397.10 915.60 324.60 C 914.90 321.70 913.40 319.00 911.40 316.80 C 909.10 314.70 906.00 313.90 903.00 314.40 C 900.50 316.20 898.80 318.90 898.30 321.90 C 898.30 324.60 899.20 327.20 900.50 329.50 C 951.50 454.90 1002.30 580.30 1053.70 705.50 C 1084.40 780.10 1116.10 854.30 1147.40 928.60 C 1149.50 933.90 1152.30 938.80 1155.70 943.30 C 1158.00 945.50 1161.30 946.30 1164.40 945.60 C 1166.70 944.80 1168.40 941.30 1170.30 939.00 C 1168.60 934.50 1167.60 931.10 1166.20 927.90 C 1112.20 799.90 1057.90 672.00 1004.50 543.80 Z M 1260.50 550.40 C 1256.70 513.30 1253.30 476.10 1249.10 439.00 C 1244.20 395.70 1238.80 352.50 1233.40 309.20 C 1232.00 297.70 1229.80 286.20 1226.70 275.10 C 1225.90 272.20 1220.30 270.50 1216.90 268.40 C 1215.20 271.70 1211.80 275.30 1212.10 278.20 C 1214.30 297.20 1217.70 316.00 1219.90 334.90 C 1224.10 369.90 1227.90 404.90 1231.60 439.90 C 1235.10 472.30 1238.20 504.60 1241.40 537.00 C 1244.10 562.20 1246.90 587.50 1249.80 612.70 L 1249.50 613.10 L 1249.50 620.20 C 1249.50 625.40 1250.00 630.00 1256.40 630.70 C 1262.90 631.40 1264.90 626.70 1265.60 621.70 C 1266.60 616.40 1266.80 611.00 1266.40 605.70 C 1264.60 587.20 1262.40 568.80 1260.50 550.50 Z M 1321.80 287.30 C 1325.10 287.70 1328.40 286.30 1330.60 283.70 C 1332.90 280.30 1334.20 276.20 1334.20 272.00 L 1334.20 184.00 C 1334.20 178.70 1333.10 174.20 1326.80 174.20 C 1320.50 174.20 1319.40 179.00 1319.40 184.00 L 1317.90 278.90 L 1315.50 280.20 C 1317.60 282.70 1319.30 286.80 1321.90 287.30 Z M 1200.60 644.50 C 1178.00 521.10 1155.00 397.80 1130.80 274.80 C 1113.00 185.90 1093.20 97.90 1074.70 8.90 C 1073.60 3.70 1071.90 -0.90 1065.80 0.50 C 1062.50 1.50 1060.30 6.10 1057.70 9.00 L 1059.00 10.80 C 1059.00 13.20 1059.60 15.60 1060.10 17.90 C 1083.50 122.20 1104.50 227.30 1123.10 333.20 C 1146.10 464.70 1172.60 595.50 1196.50 726.90 C 1209.20 797.10 1225.80 866.60 1232.20 937.90 C 1232.20 941.10 1237.40 943.90 1240.10 946.90 C 1242.70 943.90 1247.20 941.10 1247.70 937.80 C 1248.90 930.10 1248.90 922.30 1247.70 914.50 C 1232.20 824.40 1217.20 734.30 1200.70 644.40 Z" stroke-linecap="round"/>
</g>
</g>
</g>

  </svg>