<svg xmlns="http://www.w3.org/2000/svg" xmlns:xlink="http://www.w3.org/1999/xlink" width="162px" height="162px" viewBox="0 0 161.63830947204406 161.64555735372596">
    <g id="684e201e-b916-4d40-bffb-c0ba0d081eb9">
<g style="">
		<g id="684e201e-b916-4d40-bffb-c0ba0d081eb9-child-0">
<path style="stroke: rgb(193,193,193); stroke-width: 0; stroke-dasharray: none; stroke-linecap: butt; stroke-dashoffset: 0; stroke-linejoin: miter; stroke-miterlimit: 4; fill: rgb(4,3,31); fill-rule: nonzero; opacity: 1;" transform="matrix(0.720537 0 0 0.720537 80.819155 80.822779) matrix(1 0 0 1 0 0)  translate(-112.164969, -112.16)" d="M 224.33 112.16 C 224.37 136.19 216.65 159.59 202.33 178.88 C 200.71 148.63 165.69 124.05 121.13 121.12 C 124.06 165.68 148.64 200.70 178.89 202.32 C 139.25 231.67 85.09 231.67 45.45 202.32 C 75.71 200.70 100.29 165.68 103.22 121.12 C 58.66 124.05 23.63 148.63 22.02 178.88 C -7.33 139.25 -7.34 85.08 22.00 45.44 C 23.61 75.70 58.64 100.28 103.20 103.21 C 100.28 58.65 75.70 23.62 45.44 22.00 C 85.08 -7.35 139.24 -7.35 178.88 22.00 C 148.63 23.61 124.05 58.64 121.12 103.20 C 165.68 100.27 200.70 75.69 202.32 45.43 C 216.64 64.73 224.36 88.13 224.33 112.16 Z" stroke-linecap="round"/>
</g>
</g>
</g>

  </svg>