<svg xmlns="http://www.w3.org/2000/svg" xmlns:xlink="http://www.w3.org/1999/xlink" width="903px" height="670px" viewBox="0 0 903.0413530341466 670.4947334072399">
    <g id="e1b642ba-a5eb-4c02-b94c-1e35021f6c38">
<g style="">
		<g id="e1b642ba-a5eb-4c02-b94c-1e35021f6c38-child-0">
<path style="stroke: rgb(193,193,193); stroke-width: 0; stroke-dasharray: none; stroke-linecap: butt; stroke-dashoffset: 0; stroke-linejoin: miter; stroke-miterlimit: 4; fill: rgb(255,45,108); fill-rule: nonzero; opacity: 1;" transform="matrix(0 0.766626 -0.765731 0 451.520677 335.247367) matrix(1 0 0 1 0 0)  translate(-439.5, -594.655059)" d="M 274.65 1184.00 C 274.29 1180.97 271.74 1144.30 268.99 1102.50 C 266.23 1060.70 261.96 996.59 259.49 960.03 C 257.02 923.47 255.00 893.24 255.00 892.84 C 255.00 892.44 251.65 890.37 247.56 888.22 L 240.13 884.33 L 195.81 918.30 C 171.44 936.99 146.78 955.91 141.00 960.36 C 135.22 964.80 131.00 967.77 131.61 966.97 C 132.22 966.16 151.93 942.16 175.40 913.63 C 198.88 885.11 217.96 861.45 217.79 861.06 C 214.40 852.94 210.25 845.00 209.41 845.00 C 207.32 845.00 3.49 817.97 2.50 817.57 C 1.95 817.34 2.17 817.12 3.00 817.08 C 7.26 816.85 211.38 796.94 211.54 796.74 C 212.22 795.88 219.00 781.48 219.00 780.90 C 219.00 780.23 211.11 769.85 157.33 699.75 C 145.62 684.49 136.20 672.00 136.38 672.00 C 136.57 672.00 160.44 691.54 189.44 715.42 L 242.16 758.84 L 248.33 755.92 C 251.72 754.31 255.06 753.00 255.75 753.00 C 256.44 753.00 257.03 752.89 257.07 752.75 C 257.11 752.61 264.02 685.90 272.43 604.50 C 280.83 523.10 287.97 457.62 288.29 459.00 C 288.73 460.92 308.16 749.41 308.03 752.10 C 308.01 752.43 311.40 754.38 315.55 756.43 L 323.10 760.16 L 326.80 757.38 C 329.62 755.26 392.15 707.44 428.50 679.60 L 432.50 676.53 L 428.50 681.52 C 426.31 684.26 406.64 708.20 384.79 734.72 L 345.08 782.94 L 348.11 789.72 C 349.78 793.45 351.49 797.17 351.92 797.98 C 352.52 799.14 375.90 802.53 456.44 813.15 C 513.49 820.68 560.34 827.00 560.54 827.20 C 560.73 827.40 514.91 831.96 458.70 837.34 C 402.49 842.72 355.38 847.34 354.00 847.59 C 352.03 847.96 350.69 849.74 347.65 856.05 L 343.79 864.04 L 346.61 867.77 C 348.16 869.82 366.49 893.77 387.35 921.00 C 408.21 948.23 425.78 971.16 426.39 971.97 C 427.97 974.07 427.71 973.86 371.61 927.61 L 320.79 885.71 L 313.65 889.08 C 309.72 890.94 306.33 892.56 306.12 892.69 C 305.91 892.82 298.89 959.66 290.52 1041.21 C 279.12 1152.39 275.14 1188.12 274.65 1184.00 M 731.78 999.00 C 731.29 997.71 723.87 887.39 723.96 882.82 C 723.98 881.90 722.56 880.43 720.81 879.56 L 717.62 877.96 L 707.56 885.66 C 678.70 907.74 672.64 912.22 674.08 910.45 C 674.95 909.38 682.97 899.62 691.90 888.76 L 708.14 869.03 L 706.87 865.52 C 705.88 862.78 704.94 861.90 702.55 861.51 C 697.51 860.67 623.36 851.00 621.96 851.00 C 621.25 851.00 620.88 850.79 621.14 850.52 C 621.51 850.16 701.63 842.00 704.88 842.00 C 705.29 842.00 706.37 840.45 707.27 838.56 L 708.91 835.12 L 691.91 812.97 C 682.56 800.79 675.50 791.19 676.21 791.62 C 676.92 792.06 686.27 799.66 697.00 808.51 C 707.73 817.36 717.05 824.94 717.72 825.34 C 719.47 826.40 725.00 823.27 725.00 821.21 C 725.00 818.16 736.85 703.81 737.21 703.46 C 737.39 703.27 739.25 729.30 741.33 761.31 C 743.42 793.31 745.33 820.50 745.57 821.73 C 745.82 822.96 747.29 824.62 748.83 825.41 C 751.56 826.83 751.84 826.71 759.07 821.15 C 783.80 802.13 796.36 792.75 795.40 794.03 C 794.79 794.84 786.75 804.63 777.54 815.79 C 760.98 835.85 760.80 836.11 762.02 839.06 C 762.70 840.70 763.61 842.26 764.05 842.53 C 764.48 842.80 783.64 845.50 806.62 848.55 C 844.52 853.56 853.55 855.00 847.14 855.00 C 844.67 855.00 773.75 861.70 767.42 862.54 C 764.04 862.98 763.07 863.63 761.80 866.30 L 760.25 869.54 L 775.22 889.02 C 783.44 899.73 791.12 909.85 792.27 911.50 L 794.36 914.50 L 791.93 912.40 C 790.59 911.25 781.62 903.86 772.00 896.00 C 762.38 888.13 753.72 881.03 752.78 880.21 C 751.34 878.98 750.55 878.94 748.01 879.99 C 746.33 880.69 744.77 882.20 744.52 883.38 C 744.26 884.54 741.56 910.48 738.51 941.00 C 732.18 1004.26 732.55 1001.03 731.78 999.00 M 449.59 715.94 C 452.08 712.67 515.81 622.33 517.02 620.37 C 518.23 618.40 515.83 614.70 484.51 570.37 C 465.91 544.04 450.20 521.85 449.60 521.06 C 447.98 518.93 446.95 518.22 499.12 555.16 C 525.41 573.77 547.21 589.00 547.56 589.00 C 548.06 589.00 638.47 525.48 644.94 520.59 C 647.12 518.94 647.40 518.54 610.80 570.21 C 592.21 596.46 577.00 618.19 577.00 618.50 C 577.00 618.81 592.21 640.54 610.80 666.79 C 629.38 693.03 645.00 715.17 645.50 715.98 C 646.00 716.80 643.50 715.41 639.95 712.90 C 581.66 671.62 551.10 650.06 549.39 649.00 C 547.45 647.80 543.57 650.33 499.39 681.65 C 447.62 718.35 447.93 718.13 449.59 715.94 M 705.11 626.50 C 705.05 625.95 702.31 585.72 699.02 537.10 C 695.73 488.49 692.92 448.60 692.77 448.48 C 692.62 448.35 690.63 447.30 688.34 446.15 L 684.17 444.05 L 661.84 461.17 C 649.55 470.59 634.80 481.93 629.06 486.36 C 623.32 490.80 619.02 493.78 619.51 492.98 C 620.23 491.81 637.68 470.54 667.14 434.89 L 670.95 430.28 L 668.59 425.37 L 666.22 420.46 L 606.36 412.63 C 573.44 408.33 545.23 404.51 543.69 404.14 C 542.06 403.75 566.67 401.02 602.19 397.64 C 635.91 394.44 664.30 391.60 665.27 391.34 C 666.24 391.07 668.10 388.77 669.39 386.22 L 671.74 381.59 L 664.02 371.55 C 629.91 327.21 622.00 316.83 622.00 316.45 C 622.00 316.21 636.21 327.75 653.58 342.10 L 685.16 368.19 L 689.83 366.17 L 694.50 364.15 L 703.18 280.32 C 707.96 234.22 711.89 194.50 711.93 192.05 C 711.97 189.60 712.37 188.03 712.83 188.55 C 713.28 189.07 716.26 228.88 719.44 277.00 C 722.62 325.12 725.28 364.56 725.36 364.63 C 725.44 364.70 727.45 365.74 729.83 366.94 L 734.15 369.12 L 737.83 366.35 C 739.85 364.83 754.10 353.94 769.50 342.16 C 784.90 330.38 798.17 320.24 798.99 319.62 C 800.54 318.45 799.30 319.99 768.11 357.81 C 757.54 370.64 748.67 381.68 748.41 382.37 C 747.88 383.75 751.69 393.00 752.80 393.00 C 753.18 393.00 780.73 396.60 814.00 401.00 C 847.27 405.39 875.17 409.02 876.00 409.07 C 876.83 409.12 877.05 409.34 876.50 409.57 C 875.79 409.86 753.80 422.00 751.57 422.00 C 751.45 422.00 750.31 424.21 749.04 426.91 L 746.74 431.82 L 751.20 437.66 C 753.66 440.87 764.74 455.32 775.83 469.76 C 786.92 484.21 796.00 496.24 796.00 496.51 C 796.00 496.77 781.84 485.31 764.54 471.03 L 733.08 445.08 L 728.58 447.07 C 724.87 448.71 723.99 449.62 723.55 452.28 C 723.26 454.05 719.18 493.52 714.48 540.00 C 706.48 619.21 705.41 629.04 705.11 626.50 M 379.67 428.94 C 375.93 372.60 372.62 324.36 372.31 321.74 C 371.77 317.25 371.48 316.85 367.12 314.79 C 364.58 313.59 362.23 312.45 361.90 312.27 C 361.56 312.08 356.16 315.86 349.90 320.66 C 343.63 325.45 325.97 338.99 310.66 350.74 C 295.35 362.48 283.18 371.52 283.61 370.82 C 284.05 370.12 298.04 353.00 314.70 332.79 C 331.37 312.58 345.00 295.62 345.00 295.12 C 345.00 294.61 343.89 291.81 342.54 288.88 L 340.08 283.57 L 266.79 273.84 C 226.48 268.49 192.64 264.09 191.58 264.06 C 190.53 264.03 189.86 263.80 190.11 263.56 C 190.53 263.14 334.78 249.00 338.69 249.00 C 341.09 249.00 346.73 238.01 345.43 235.86 C 344.98 235.11 332.03 218.07 316.66 198.00 C 282.96 153.99 286.13 158.23 288.00 159.60 C 288.82 160.21 306.00 174.26 326.16 190.84 L 362.81 220.97 L 368.41 218.50 C 371.48 217.14 374.02 215.46 374.04 214.76 C 374.26 207.86 395.86 3.88 396.25 5.00 C 396.54 5.83 399.77 52.40 403.42 108.50 C 407.08 164.60 410.29 211.90 410.56 213.62 C 410.95 216.16 411.98 217.22 416.11 219.37 C 418.91 220.82 421.66 221.71 422.24 221.35 C 422.82 220.99 436.84 210.30 453.40 197.58 C 502.64 159.76 500.78 161.12 497.75 165.05 C 496.28 166.95 482.09 184.24 466.21 203.49 L 437.34 238.48 L 440.05 244.44 L 442.76 250.41 L 516.13 260.15 C 556.48 265.51 590.40 269.95 591.50 270.02 C 592.60 270.10 593.05 270.33 592.50 270.55 C 591.44 270.96 447.32 285.00 444.14 285.00 C 442.87 285.00 441.34 286.91 439.29 291.04 L 436.30 297.08 L 456.80 323.79 C 468.08 338.48 481.59 356.09 486.83 362.92 C 492.07 369.75 495.71 374.94 494.93 374.46 C 494.14 373.97 476.94 359.93 456.70 343.24 L 419.91 312.90 L 414.54 315.44 C 409.73 317.71 409.12 318.36 408.60 321.74 C 408.29 323.81 403.50 370.50 397.97 425.50 C 392.43 480.50 387.58 526.82 387.18 528.44 C 386.77 530.12 383.56 487.69 379.67 428.94 M 76.81 522.25 C 77.88 520.74 89.35 504.57 102.29 486.31 L 125.82 453.12 L 101.04 418.18 C 87.41 398.96 75.91 382.66 75.48 381.96 C 74.39 380.21 72.89 379.18 112.18 407.04 L 147.12 431.82 L 182.81 406.50 C 202.44 392.58 218.63 381.31 218.78 381.46 C 218.94 381.61 207.80 397.62 194.03 417.03 C 180.27 436.45 169.00 452.68 169.00 453.11 C 169.00 453.55 179.93 469.33 193.30 488.20 C 220.68 526.85 219.86 525.64 217.90 524.45 C 217.13 523.98 201.06 512.66 182.20 499.30 C 163.33 485.93 147.55 475.00 147.11 475.00 C 146.68 475.00 130.47 486.25 111.08 500.00 C 91.69 513.75 75.61 525.00 75.35 525.00 C 75.08 525.00 75.74 523.76 76.81 522.25 Z" stroke-linecap="round"/>
</g>
</g>
</g>

  </svg>