<svg xmlns="http://www.w3.org/2000/svg" xmlns:xlink="http://www.w3.org/1999/xlink" width="60px" height="85px" viewBox="0 0 42.27147155937564 60.056596450968755">
    <g id="1df5c601-4e06-45b9-8baa-06aadc2b4685">
<g style="">
		<g id="1df5c601-4e06-45b9-8baa-06aadc2b4685-child-0">
<path style="stroke: rgb(193,193,193); stroke-width: 0; stroke-dasharray: none; stroke-linecap: butt; stroke-dashoffset: 0; stroke-linejoin: miter; stroke-miterlimit: 4; fill: rgb(255,235,154); fill-rule: nonzero; opacity: 1;" transform="matrix(0.098279 0.030533 0.034603 -0.111381 21.135736 30.028298) matrix(1 0 0 1 0 0)  translate(-132.95, -233.15)" d="M 266.00 209.20 C 260.00 213.00 256.40 215.50 252.60 217.60 C 238.90 224.90 224.80 231.50 211.40 239.30 C 192.40 250.40 178.60 266.40 169.00 286.30 C 150.00 325.70 139.70 367.50 135.60 410.80 C 134.10 426.20 134.20 441.80 133.60 457.30 C 133.50 460.90 134.50 465.20 127.20 466.30 C 126.70 460.70 125.70 455.20 125.70 449.70 C 125.40 383.80 110.00 322.40 69.70 269.10 C 58.60 254.50 45.60 241.20 32.30 228.50 C 24.90 221.40 15.20 216.50 6.30 211.00 C 1.10 207.80 0.90 208.20 -0.10 200.70 C 44.90 191.60 73.70 163.60 91.10 122.50 C 100.10 101.20 105.60 78.70 109.50 55.90 C 112.10 41.00 114.00 26.00 116.40 11.10 C 116.90 7.70 118.20 4.50 119.40 -0.00 C 126.80 5.00 125.10 10.90 125.00 15.90 C 124.50 42.00 127.20 67.80 132.00 93.50 C 135.10 110.10 140.50 125.90 150.20 140.00 C 159.20 153.00 170.60 163.60 184.80 170.50 C 206.70 181.10 228.90 191.00 250.90 201.30 C 255.20 203.30 259.30 205.80 265.90 209.30 Z" stroke-linecap="round"/>
</g>
</g>
</g>

  </svg>