<svg xmlns="http://www.w3.org/2000/svg" xmlns:xlink="http://www.w3.org/1999/xlink" width="776px" height="776px" viewBox="0 0 776.2491903399932 776.2491903399996">
    <g id="3982d083-b3c5-4a56-a48c-31dfc3ae57f0">
<g style="">
		<g id="3982d083-b3c5-4a56-a48c-31dfc3ae57f0-child-0">
<path style="stroke: rgb(193,193,193); stroke-width: 0; stroke-dasharray: none; stroke-linecap: butt; stroke-dashoffset: 0; stroke-linejoin: miter; stroke-miterlimit: 4; fill: rgb(205,150,76); fill-rule: nonzero; opacity: 1;" transform="matrix(0.322451 0 0 0.322451 388.124595 388.124595) matrix(1 0 0 1 0 0)  translate(-1203.445111, -1203.445111)" d="M 2402.28 1198.61 L 1306.60 1198.61 L 2187.00 1111.89 C 2189.78 1111.61 2191.81 1109.14 2191.53 1106.36 C 2191.25 1103.58 2188.78 1101.55 2186.00 1101.83 L 1305.58 1188.54 L 2380.23 974.79 C 2382.02 974.45 2383.48 973.17 2384.06 971.45 C 2384.65 969.73 2384.27 967.82 2383.06 966.46 C 2381.85 965.10 2380.01 964.49 2378.23 964.87 L 1303.63 1178.62 L 2150.19 921.82 C 2152.77 920.94 2154.19 918.17 2153.40 915.57 C 2152.61 912.96 2149.89 911.44 2147.26 912.14 L 1300.71 1169.00 L 2313.00 749.65 C 2314.75 749.01 2316.01 747.47 2316.28 745.63 C 2316.55 743.79 2315.79 741.95 2314.29 740.83 C 2312.80 739.72 2310.82 739.52 2309.13 740.31 L 1296.85 1159.61 L 2077.08 742.61 C 2079.45 741.25 2080.31 738.25 2079.02 735.84 C 2077.73 733.43 2074.76 732.47 2072.31 733.69 L 1292.09 1150.69 L 2203.09 541.96 C 2204.66 540.98 2205.57 539.23 2205.47 537.39 C 2205.36 535.55 2204.27 533.90 2202.60 533.10 C 2200.94 532.31 2198.97 532.48 2197.47 533.55 L 1286.47 1142.27 L 1970.31 581.00 C 1972.40 579.21 1972.68 576.07 1970.93 573.95 C 1969.18 571.82 1966.05 571.48 1963.89 573.18 L 1280.00 1134.45 L 2054.79 359.70 C 2056.16 358.44 2056.72 356.54 2056.27 354.74 C 2055.81 352.94 2054.40 351.53 2052.60 351.07 C 2050.80 350.62 2048.90 351.18 2047.64 352.55 L 1272.86 1127.32 L 1834.11 443.44 C 1835.81 441.28 1835.47 438.15 1833.34 436.40 C 1831.22 434.65 1828.08 434.93 1826.29 437.02 L 1265.07 1120.88 L 1873.78 209.88 C 1874.85 208.38 1875.02 206.41 1874.23 204.75 C 1873.43 203.08 1871.78 201.99 1869.94 201.88 C 1868.10 201.78 1866.35 202.69 1865.37 204.26 L 1256.64 1115.26 L 1673.64 335.03 C 1674.86 332.58 1673.90 329.61 1671.49 328.32 C 1669.08 327.03 1666.08 327.89 1664.72 330.26 L 1247.72 1110.48 L 1667.00 98.23 C 1668.03 95.66 1666.80 92.74 1664.24 91.68 C 1661.68 90.62 1658.74 91.81 1657.65 94.36 L 1238.39 1106.63 L 1495.20 260.05 C 1495.93 257.41 1494.42 254.66 1491.79 253.86 C 1489.17 253.07 1486.38 254.51 1485.52 257.11 L 1228.71 1103.67 L 1442.47 29.08 C 1443.02 26.34 1441.25 23.67 1438.51 23.11 C 1435.76 22.56 1433.09 24.34 1432.54 27.08 L 1218.79 1101.71 L 1305.50 221.30 C 1305.68 219.50 1304.88 217.75 1303.42 216.69 C 1301.95 215.64 1300.03 215.45 1298.39 216.19 C 1296.74 216.94 1295.62 218.50 1295.44 220.30 L 1208.72 1100.72 L 1208.72 5.06 C 1208.80 3.20 1207.86 1.45 1206.26 0.49 C 1204.66 -0.46 1202.67 -0.46 1201.07 0.49 C 1199.47 1.45 1198.53 3.20 1198.61 5.06 L 1198.61 1100.73 L 1111.89 220.31 C 1111.61 217.53 1109.14 215.50 1106.36 215.78 C 1103.58 216.06 1101.55 218.53 1101.83 221.31 L 1188.54 1101.72 L 974.79 27.10 C 974.45 25.31 973.17 23.85 971.45 23.27 C 969.73 22.68 967.82 23.06 966.46 24.27 C 965.10 25.48 964.49 27.32 964.87 29.10 L 1178.62 1103.69 L 921.82 257.11 C 920.96 254.51 918.17 253.07 915.55 253.86 C 912.92 254.66 911.41 257.41 912.14 260.05 L 1168.94 1106.63 L 749.65 94.36 C 749.01 92.61 747.47 91.35 745.63 91.08 C 743.79 90.81 741.95 91.57 740.83 93.07 C 739.72 94.56 739.52 96.54 740.31 98.23 L 1159.60 1110.50 L 742.60 330.28 C 741.24 327.91 738.24 327.05 735.83 328.34 C 733.42 329.63 732.46 332.60 733.68 335.05 L 1150.68 1115.26 L 542.00 204.25 C 541.02 202.68 539.27 201.77 537.43 201.87 C 535.59 201.98 533.94 203.07 533.14 204.74 C 532.35 206.40 532.52 208.37 533.59 209.87 L 1142.32 1120.87 L 581.00 437.00 C 579.87 435.56 578.04 434.84 576.23 435.13 C 574.42 435.42 572.91 436.66 572.27 438.38 C 571.64 440.10 571.99 442.03 573.18 443.42 L 1134.43 1127.30 L 359.70 352.55 C 357.70 350.71 354.61 350.77 352.69 352.69 C 350.77 354.61 350.71 357.70 352.55 359.70 L 1127.31 1134.46 L 443.44 573.22 C 442.07 571.93 440.09 571.51 438.31 572.13 C 436.53 572.74 435.24 574.30 434.97 576.17 C 434.69 578.03 435.47 579.89 437.00 581.00 L 1120.86 1142.23 L 209.86 533.51 C 208.36 532.44 206.39 532.27 204.73 533.06 C 203.06 533.86 201.97 535.51 201.86 537.35 C 201.76 539.19 202.67 540.94 204.24 541.92 L 1115.24 1150.65 L 335.01 733.65 C 332.56 732.43 329.59 733.39 328.30 735.80 C 327.01 738.21 327.87 741.21 330.24 742.57 L 1110.46 1159.57 L 98.23 740.31 C 96.54 739.52 94.56 739.72 93.07 740.83 C 91.57 741.95 90.81 743.79 91.08 745.63 C 91.35 747.47 92.61 749.01 94.36 749.65 L 1106.63 1169.00 L 260.05 912.14 C 257.41 911.41 254.66 912.92 253.86 915.55 C 253.07 918.17 254.51 920.96 257.11 921.82 L 1103.67 1178.62 L 29.07 964.87 C 26.34 964.35 23.70 966.12 23.15 968.84 C 22.60 971.56 24.35 974.22 27.07 974.79 L 1101.70 1188.54 L 221.30 1101.83 C 218.52 1101.55 216.05 1103.58 215.77 1106.36 C 215.49 1109.14 217.52 1111.61 220.30 1111.89 L 1100.72 1198.61 L 5.06 1198.61 C 3.20 1198.53 1.45 1199.47 0.49 1201.07 C -0.46 1202.67 -0.46 1204.66 0.49 1206.26 C 1.45 1207.86 3.20 1208.80 5.06 1208.72 L 1100.73 1208.72 L 220.31 1295.44 C 217.65 1295.73 215.67 1298.04 215.80 1300.72 C 215.93 1303.39 218.12 1305.50 220.80 1305.53 C 220.97 1305.54 221.13 1305.54 221.30 1305.53 L 1101.70 1218.82 L 27.10 1432.54 C 24.60 1433.09 22.90 1435.43 23.16 1437.98 C 23.41 1440.54 25.54 1442.49 28.10 1442.54 C 28.44 1442.54 28.77 1442.51 29.10 1442.44 L 1103.72 1228.69 L 257.11 1485.52 C 254.71 1486.25 253.21 1488.63 253.58 1491.10 C 253.95 1493.58 256.07 1495.42 258.58 1495.42 C 259.08 1495.41 259.57 1495.34 260.05 1495.20 L 1106.63 1238.39 L 94.36 1657.68 C 91.81 1658.77 90.62 1661.71 91.68 1664.27 C 92.74 1666.83 95.66 1668.06 98.23 1667.03 L 1110.50 1247.73 L 330.28 1664.73 C 328.24 1665.83 327.20 1668.17 327.76 1670.42 C 328.33 1672.67 330.35 1674.25 332.67 1674.25 C 333.50 1674.25 334.32 1674.04 335.05 1673.65 L 1115.26 1256.65 L 204.26 1865.37 C 202.40 1866.60 201.57 1868.91 202.22 1871.05 C 202.86 1873.18 204.84 1874.64 207.07 1874.63 C 208.07 1874.63 209.05 1874.34 209.88 1873.78 L 1120.88 1265.06 L 437.00 1826.29 C 435.56 1827.42 434.84 1829.25 435.13 1831.06 C 435.42 1832.87 436.66 1834.38 438.38 1835.02 C 440.10 1835.65 442.03 1835.30 443.42 1834.11 L 1127.30 1272.86 L 352.55 2047.64 C 350.71 2049.64 350.77 2052.73 352.69 2054.65 C 354.61 2056.57 357.70 2056.63 359.70 2054.79 L 1134.46 1280.00 L 573.22 1963.89 C 572.03 1965.28 571.68 1967.21 572.31 1968.93 C 572.95 1970.65 574.46 1971.89 576.27 1972.18 C 578.08 1972.47 579.91 1971.75 581.04 1970.31 L 1142.28 1286.44 L 533.55 2197.44 C 532.48 2198.94 532.31 2200.91 533.10 2202.57 C 533.90 2204.24 535.55 2205.33 537.39 2205.44 C 539.23 2205.54 540.98 2204.63 541.96 2203.06 L 1150.68 1292.06 L 733.68 2072.27 C 733.03 2073.45 732.89 2074.84 733.28 2076.13 C 733.67 2077.41 734.57 2078.49 735.76 2079.11 C 736.49 2079.51 737.30 2079.71 738.13 2079.71 C 740.00 2079.71 741.72 2078.69 742.60 2077.04 L 1159.60 1296.81 L 740.31 2309.10 C 739.24 2311.68 740.46 2314.64 743.04 2315.71 C 743.66 2315.96 744.31 2316.10 744.98 2316.10 C 747.03 2316.10 748.87 2314.86 749.65 2312.97 L 1168.94 1300.71 L 912.14 2147.28 C 911.33 2149.95 912.84 2152.78 915.51 2153.59 C 915.99 2153.74 916.48 2153.81 916.98 2153.81 C 919.21 2153.81 921.17 2152.35 921.82 2150.22 L 1178.62 1303.65 L 964.87 2378.26 C 964.61 2379.58 964.88 2380.95 965.63 2382.07 C 966.38 2383.18 967.55 2383.95 968.87 2384.21 C 969.20 2384.27 969.53 2384.30 969.87 2384.30 C 972.30 2384.32 974.40 2382.61 974.87 2380.23 L 1188.62 1305.62 L 1101.83 2186.00 C 1101.56 2188.78 1103.59 2191.25 1106.37 2191.53 L 1106.87 2191.53 C 1109.47 2191.54 1111.64 2189.56 1111.87 2186.97 L 1198.59 1306.55 L 1198.59 2402.28 C 1198.71 2404.98 1200.94 2407.12 1203.64 2407.12 C 1206.35 2407.12 1208.58 2404.98 1208.70 2402.28 L 1208.70 1306.60 L 1295.44 2187.00 C 1295.67 2189.59 1297.84 2191.57 1300.44 2191.56 L 1300.95 2191.56 C 1303.73 2191.28 1305.75 2188.81 1305.48 2186.03 L 1218.77 1305.62 L 1432.52 2380.23 C 1432.99 2382.61 1435.09 2384.32 1437.52 2384.30 C 1437.86 2384.30 1438.19 2384.27 1438.52 2384.21 C 1441.27 2383.67 1443.06 2381.01 1442.52 2378.26 L 1228.71 1303.65 L 1485.52 2150.22 C 1486.17 2152.35 1488.13 2153.80 1490.35 2153.81 C 1490.85 2153.81 1491.34 2153.74 1491.82 2153.59 C 1493.11 2153.20 1494.18 2152.32 1494.82 2151.14 C 1495.45 2149.95 1495.59 2148.56 1495.20 2147.28 L 1238.39 1300.71 L 1657.68 2313.00 C 1658.36 2314.69 1659.89 2315.89 1661.70 2316.14 C 1663.50 2316.38 1665.30 2315.64 1666.40 2314.19 C 1667.51 2312.74 1667.75 2310.81 1667.03 2309.13 L 1247.73 1296.85 L 1664.73 2077.08 C 1665.61 2078.73 1667.33 2079.75 1669.20 2079.75 C 1670.97 2079.74 1672.62 2078.81 1673.53 2077.29 C 1674.44 2075.76 1674.48 2073.88 1673.65 2072.31 L 1256.65 1292.08 L 1865.38 2203.08 C 1866.36 2204.65 1868.11 2205.56 1869.95 2205.46 C 1871.79 2205.35 1873.44 2204.26 1874.24 2202.59 C 1875.03 2200.93 1874.86 2198.96 1873.79 2197.46 L 1265.08 1286.46 L 1826.30 1970.32 C 1828.09 1972.41 1831.23 1972.69 1833.35 1970.94 C 1835.48 1969.19 1835.82 1966.06 1834.12 1963.90 L 1272.88 1280.00 L 2047.64 2054.76 C 2048.90 2056.13 2050.80 2056.69 2052.60 2056.24 C 2054.40 2055.78 2055.81 2054.37 2056.27 2052.57 C 2056.72 2050.77 2056.16 2048.87 2054.79 2047.61 L 1280.00 1272.87 L 1963.87 1834.11 C 1965.26 1835.30 1967.19 1835.65 1968.91 1835.02 C 1970.63 1834.38 1971.87 1832.87 1972.16 1831.06 C 1972.45 1829.25 1971.73 1827.42 1970.29 1826.29 L 1286.42 1265.06 L 2197.42 1873.78 C 2198.92 1874.85 2200.89 1875.02 2202.55 1874.23 C 2204.22 1873.43 2205.31 1871.78 2205.42 1869.94 C 2205.52 1868.10 2204.61 1866.35 2203.04 1865.37 L 1292.04 1256.66 L 2072.24 1673.66 C 2072.97 1674.05 2073.79 1674.26 2074.62 1674.26 C 2076.94 1674.26 2078.96 1672.68 2079.53 1670.43 C 2080.09 1668.18 2079.05 1665.84 2077.01 1664.74 L 1296.78 1247.74 L 2309.10 1667.00 C 2309.72 1667.25 2310.37 1667.38 2311.04 1667.38 C 2313.45 1667.37 2315.52 1665.67 2315.99 1663.30 C 2316.45 1660.94 2315.19 1658.58 2312.97 1657.65 L 1300.71 1238.39 L 2147.29 1495.20 C 2147.77 1495.34 2148.26 1495.42 2148.76 1495.42 C 2151.26 1495.41 2153.38 1493.57 2153.75 1491.10 C 2154.12 1488.62 2152.61 1486.25 2150.22 1485.52 L 1303.64 1228.71 L 2378.26 1442.46 C 2378.59 1442.53 2378.92 1442.56 2379.26 1442.56 C 2381.82 1442.51 2383.95 1440.56 2384.20 1438.00 C 2384.46 1435.45 2382.76 1433.11 2380.26 1432.56 L 1305.66 1218.81 L 2186.00 1305.50 C 2186.17 1305.51 2186.33 1305.51 2186.50 1305.50 C 2189.18 1305.47 2191.37 1303.36 2191.50 1300.69 C 2191.63 1298.01 2189.65 1295.70 2186.99 1295.41 L 1306.57 1208.69 L 2402.28 1208.69 C 2404.98 1208.57 2407.12 1206.34 2407.12 1203.64 C 2407.12 1200.93 2404.98 1198.70 2402.28 1198.58 Z" stroke-linecap="round"/>
</g>
		<g id="3982d083-b3c5-4a56-a48c-31dfc3ae57f0-child-1">
<path style="stroke: rgb(193,193,193); stroke-width: 0; stroke-dasharray: none; stroke-linecap: butt; stroke-dashoffset: 0; stroke-linejoin: miter; stroke-miterlimit: 4; fill: rgb(205,150,76); fill-rule: nonzero; opacity: 1;" transform="matrix(0.322451 0 0 0.322451 388.124595 388.124595) matrix(1 0 0 1 106.029907 1072.956321)  translate(-1309.475018, -2276.401432)" d="M 1306.48 2246.49 C 1303.73 2246.79 1301.73 2249.25 1302.00 2252.00 L 1306.91 2301.77 C 1307.14 2304.36 1309.31 2306.34 1311.91 2306.33 C 1312.08 2306.34 1312.24 2306.34 1312.41 2306.33 C 1313.74 2306.20 1314.97 2305.55 1315.82 2304.51 C 1316.68 2303.48 1317.08 2302.14 1316.95 2300.81 L 1312.00 2251.00 C 1311.72 2248.23 1309.25 2246.22 1306.48 2246.49 Z" stroke-linecap="round"/>
</g>
		<g id="3982d083-b3c5-4a56-a48c-31dfc3ae57f0-child-2">
<path style="stroke: rgb(193,193,193); stroke-width: 0; stroke-dasharray: none; stroke-linecap: butt; stroke-dashoffset: 0; stroke-linejoin: miter; stroke-miterlimit: 4; fill: rgb(205,150,76); fill-rule: nonzero; opacity: 1;" transform="matrix(0.322451 0 0 0.322451 388.124595 388.124595) matrix(1 0 0 1 -105.510406 -1072.50396)  translate(-1097.934705, -130.94115)" d="M 1100.38 160.86 C 1100.55 160.87 1100.71 160.87 1100.88 160.86 C 1103.66 160.59 1105.69 158.11 1105.42 155.33 L 1100.51 105.57 C 1100.23 102.79 1097.76 100.76 1094.98 101.04 C 1092.20 101.32 1090.17 103.79 1090.45 106.57 L 1095.35 156.34 C 1095.63 158.91 1097.79 160.86 1100.38 160.86 Z" stroke-linecap="round"/>
</g>
		<g id="3982d083-b3c5-4a56-a48c-31dfc3ae57f0-child-3">
<path style="stroke: rgb(193,193,193); stroke-width: 0; stroke-dasharray: none; stroke-linecap: butt; stroke-dashoffset: 0; stroke-linejoin: miter; stroke-miterlimit: 4; fill: rgb(205,150,76); fill-rule: nonzero; opacity: 1;" transform="matrix(0.322451 0 0 0.322451 388.124595 388.124595) matrix(1 0 0 1 -1072.503967 105.972307)  translate(-130.941144, -1309.417418)" d="M 106.52 1316.90 L 156.32 1311.99 C 159.10 1311.71 161.13 1309.24 160.85 1306.46 C 160.57 1303.68 158.10 1301.65 155.32 1301.93 L 105.52 1306.84 C 102.86 1307.13 100.88 1309.44 101.01 1312.12 C 101.14 1314.79 103.33 1316.90 106.01 1316.93 Z" stroke-linecap="round"/>
</g>
		<g id="3982d083-b3c5-4a56-a48c-31dfc3ae57f0-child-4">
<path style="stroke: rgb(193,193,193); stroke-width: 0; stroke-dasharray: none; stroke-linecap: butt; stroke-dashoffset: 0; stroke-linejoin: miter; stroke-miterlimit: 4; fill: rgb(205,150,76); fill-rule: nonzero; opacity: 1;" transform="matrix(0.322451 0 0 0.322451 388.124595 388.124595) matrix(1 0 0 1 1073.006033 -105.518952)  translate(-2276.451144, -1097.926159)" d="M 2251.05 1095.33 C 2248.39 1095.62 2246.41 1097.93 2246.54 1100.61 C 2246.67 1103.28 2248.86 1105.39 2251.54 1105.42 C 2251.71 1105.43 2251.87 1105.43 2252.04 1105.42 L 2301.81 1100.51 C 2304.59 1100.23 2306.62 1097.76 2306.34 1094.98 C 2306.06 1092.20 2303.59 1090.17 2300.81 1090.45 Z" stroke-linecap="round"/>
</g>
		<g id="3982d083-b3c5-4a56-a48c-31dfc3ae57f0-child-5">
<path style="stroke: rgb(193,193,193); stroke-width: 0; stroke-dasharray: none; stroke-linecap: butt; stroke-dashoffset: 0; stroke-linejoin: miter; stroke-miterlimit: 4; fill: rgb(205,150,76); fill-rule: nonzero; opacity: 1;" transform="matrix(0.322451 0 0 0.322451 388.124595 388.124595) matrix(1 0 0 1 833.564889 683.98989)  translate(-2037.01, -1887.435)" d="M 2020.88 1867.66 C 2018.71 1866.03 2015.64 1866.40 2013.92 1868.49 C 2012.20 1870.59 2012.44 1873.67 2014.47 1875.48 L 2053.14 1907.21 C 2055.31 1908.84 2058.38 1908.47 2060.10 1906.38 C 2061.82 1904.28 2061.58 1901.20 2059.55 1899.39 Z" stroke-linecap="round"/>
</g>
		<g id="3982d083-b3c5-4a56-a48c-31dfc3ae57f0-child-6">
<path style="stroke: rgb(193,193,193); stroke-width: 0; stroke-dasharray: none; stroke-linecap: butt; stroke-dashoffset: 0; stroke-linejoin: miter; stroke-miterlimit: 4; fill: rgb(205,150,76); fill-rule: nonzero; opacity: 1;" transform="matrix(0.322451 0 0 0.322451 388.124595 388.124595) matrix(1 0 0 1 -833.048231 -683.517906)  translate(-370.39688, -519.927204)" d="M 386.48 539.67 C 388.64 541.37 391.77 541.03 393.52 538.90 C 395.27 536.78 394.99 533.64 392.90 531.85 L 354.23 500.12 C 352.06 498.49 348.99 498.86 347.27 500.95 C 345.55 503.05 345.79 506.13 347.82 507.94 Z" stroke-linecap="round"/>
</g>
		<g id="3982d083-b3c5-4a56-a48c-31dfc3ae57f0-child-7">
<path style="stroke: rgb(193,193,193); stroke-width: 0; stroke-dasharray: none; stroke-linecap: butt; stroke-dashoffset: 0; stroke-linejoin: miter; stroke-miterlimit: 4; fill: rgb(205,150,76); fill-rule: nonzero; opacity: 1;" transform="matrix(0.322451 0 0 0.322451 388.124595 388.124595) matrix(1 0 0 1 -683.544849 833.584948)  translate(-519.900262, -2037.030059)" d="M 539.00 2013.75 C 537.96 2012.90 536.63 2012.49 535.29 2012.62 C 533.96 2012.75 532.73 2013.41 531.88 2014.45 L 500.15 2053.11 C 498.96 2054.50 498.61 2056.43 499.24 2058.15 C 499.88 2059.87 501.39 2061.11 503.20 2061.40 C 505.01 2061.69 506.84 2060.97 507.97 2059.53 L 539.70 2020.86 C 540.56 2019.83 540.98 2018.50 540.84 2017.16 C 540.71 2015.82 540.05 2014.59 539.00 2013.75 Z" stroke-linecap="round"/>
</g>
		<g id="3982d083-b3c5-4a56-a48c-31dfc3ae57f0-child-8">
<path style="stroke: rgb(193,193,193); stroke-width: 0; stroke-dasharray: none; stroke-linecap: butt; stroke-dashoffset: 0; stroke-linejoin: miter; stroke-miterlimit: 4; fill: rgb(205,150,76); fill-rule: nonzero; opacity: 1;" transform="matrix(0.322451 0 0 0.322451 388.124595 388.124595) matrix(1 0 0 1 683.944614 -833.027744)  translate(-1887.389725, -370.417366)" d="M 1868.38 393.58 C 1870.54 395.35 1873.73 395.04 1875.50 392.88 L 1907.23 354.21 C 1908.86 352.04 1908.49 348.97 1906.40 347.25 C 1904.30 345.53 1901.22 345.77 1899.41 347.80 L 1867.68 386.46 C 1865.91 388.62 1866.22 391.81 1868.38 393.58 Z" stroke-linecap="round"/>
</g>
		<g id="3982d083-b3c5-4a56-a48c-31dfc3ae57f0-child-9">
<path style="stroke: rgb(193,193,193); stroke-width: 0; stroke-dasharray: none; stroke-linecap: butt; stroke-dashoffset: 0; stroke-linejoin: miter; stroke-miterlimit: 4; fill: rgb(205,150,76); fill-rule: nonzero; opacity: 1;" transform="matrix(0.322451 0 0 0.322451 388.124595 388.124595) matrix(1 0 0 1 508.486631 950.85401)  translate(-1711.931741, -2154.299121)" d="M 1704.70 2130.06 C 1703.90 2128.38 1702.24 2127.28 1700.38 2127.19 C 1698.52 2127.10 1696.76 2128.04 1695.80 2129.63 C 1694.84 2131.23 1694.83 2133.22 1695.78 2134.82 L 1719.24 2178.74 C 1720.11 2180.39 1721.83 2181.42 1723.70 2181.41 C 1725.49 2181.44 1727.16 2180.51 1728.08 2178.98 C 1729.00 2177.44 1729.02 2175.53 1728.15 2173.97 Z" stroke-linecap="round"/>
</g>
		<g id="3982d083-b3c5-4a56-a48c-31dfc3ae57f0-child-10">
<path style="stroke: rgb(193,193,193); stroke-width: 0; stroke-dasharray: none; stroke-linecap: butt; stroke-dashoffset: 0; stroke-linejoin: miter; stroke-miterlimit: 4; fill: rgb(205,150,76); fill-rule: nonzero; opacity: 1;" transform="matrix(0.322451 0 0 0.322451 388.124595 388.124595) matrix(1 0 0 1 -507.957872 -950.353771)  translate(-695.487239, -253.091341)" d="M 702.67 277.27 C 703.49 278.92 705.14 280.00 706.99 280.08 C 708.83 280.16 710.57 279.22 711.53 277.65 C 712.48 276.07 712.51 274.10 711.59 272.50 L 688.13 228.59 C 686.75 226.26 683.78 225.42 681.39 226.70 C 679.00 227.97 678.04 230.91 679.21 233.35 Z" stroke-linecap="round"/>
</g>
		<g id="3982d083-b3c5-4a56-a48c-31dfc3ae57f0-child-11">
<path style="stroke: rgb(193,193,193); stroke-width: 0; stroke-dasharray: none; stroke-linecap: butt; stroke-dashoffset: 0; stroke-linejoin: miter; stroke-miterlimit: 4; fill: rgb(205,150,76); fill-rule: nonzero; opacity: 1;" transform="matrix(0.322451 0 0 0.322451 388.124595 388.124595) matrix(1 0 0 1 -950.430536 508.463557)  translate(-253.014575, -1711.908667)" d="M 231.00 1728.73 C 231.83 1728.73 232.64 1728.52 233.37 1728.13 L 277.29 1704.68 C 278.94 1703.86 280.02 1702.21 280.10 1700.36 C 280.18 1698.52 279.24 1696.78 277.67 1695.82 C 276.09 1694.87 274.12 1694.84 272.52 1695.76 L 228.61 1719.22 C 226.56 1720.31 225.51 1722.66 226.08 1724.91 C 226.65 1727.16 228.68 1728.74 231.00 1728.73 Z" stroke-linecap="round"/>
</g>
		<g id="3982d083-b3c5-4a56-a48c-31dfc3ae57f0-child-12">
<path style="stroke: rgb(193,193,193); stroke-width: 0; stroke-dasharray: none; stroke-linecap: butt; stroke-dashoffset: 0; stroke-linejoin: miter; stroke-miterlimit: 4; fill: rgb(205,150,76); fill-rule: nonzero; opacity: 1;" transform="matrix(0.322451 0 0 0.322451 388.124595 388.124595) matrix(1 0 0 1 950.883792 -508.014226)  translate(-2154.328903, -695.430884)" d="M 2174.00 679.19 L 2130.08 702.65 C 2128.04 703.75 2127.00 706.09 2127.56 708.34 C 2128.13 710.59 2130.15 712.17 2132.47 712.17 C 2133.30 712.17 2134.12 711.96 2134.85 711.57 L 2178.76 688.11 C 2181.09 686.73 2181.93 683.76 2180.65 681.37 C 2179.38 678.98 2176.44 678.02 2174.00 679.19 Z" stroke-linecap="round"/>
</g>
		<g id="3982d083-b3c5-4a56-a48c-31dfc3ae57f0-child-13">
<path style="stroke: rgb(193,193,193); stroke-width: 0; stroke-dasharray: none; stroke-linecap: butt; stroke-dashoffset: 0; stroke-linejoin: miter; stroke-miterlimit: 4; fill: rgb(205,150,76); fill-rule: nonzero; opacity: 1;" transform="matrix(0.322451 0 0 0.322451 388.124595 388.124595) matrix(1 0 0 1 1031.824365 313.049018)  translate(-2235.269476, -1516.494129)" d="M 2213.00 1504.46 C 2211.25 1503.86 2209.31 1504.27 2207.95 1505.52 C 2206.58 1506.77 2206.01 1508.66 2206.45 1510.46 C 2206.89 1512.25 2208.28 1513.67 2210.07 1514.14 L 2257.72 1528.58 C 2258.20 1528.73 2258.69 1528.80 2259.19 1528.80 C 2261.69 1528.79 2263.81 1526.95 2264.18 1524.48 C 2264.55 1522.00 2263.04 1519.63 2260.65 1518.90 Z" stroke-linecap="round"/>
</g>
		<g id="3982d083-b3c5-4a56-a48c-31dfc3ae57f0-child-14">
<path style="stroke: rgb(193,193,193); stroke-width: 0; stroke-dasharray: none; stroke-linecap: butt; stroke-dashoffset: 0; stroke-linejoin: miter; stroke-miterlimit: 4; fill: rgb(205,150,76); fill-rule: nonzero; opacity: 1;" transform="matrix(0.322451 0 0 0.322451 388.124595 388.124595) matrix(1 0 0 1 -1031.365544 -312.614842)  translate(-172.079567, -890.830269)" d="M 194.36 902.86 C 194.84 903.01 195.33 903.08 195.83 903.08 C 198.33 903.07 200.45 901.23 200.82 898.76 C 201.19 896.28 199.68 893.91 197.29 893.18 L 149.64 878.75 C 147.01 878.05 144.29 879.57 143.50 882.18 C 142.71 884.78 144.13 887.55 146.71 888.43 Z" stroke-linecap="round"/>
</g>
		<g id="3982d083-b3c5-4a56-a48c-31dfc3ae57f0-child-15">
<path style="stroke: rgb(193,193,193); stroke-width: 0; stroke-dasharray: none; stroke-linecap: butt; stroke-dashoffset: 0; stroke-linejoin: miter; stroke-miterlimit: 4; fill: rgb(205,150,76); fill-rule: nonzero; opacity: 1;" transform="matrix(0.322451 0 0 0.322451 388.124595 388.124595) matrix(1 0 0 1 -312.618297 1031.901367)  translate(-890.826814, -2235.346478)" d="M 899.51 2206.68 C 898.23 2206.29 896.84 2206.43 895.65 2207.06 C 894.47 2207.70 893.59 2208.77 893.20 2210.06 L 878.77 2257.70 C 878.38 2258.98 878.52 2260.37 879.15 2261.56 C 879.79 2262.74 880.86 2263.62 882.15 2264.01 C 882.63 2264.16 883.12 2264.23 883.62 2264.23 C 885.85 2264.23 887.81 2262.77 888.45 2260.64 L 902.88 2213.00 C 903.27 2211.72 903.14 2210.33 902.51 2209.14 C 901.87 2207.96 900.80 2207.07 899.51 2206.68 Z" stroke-linecap="round"/>
</g>
		<g id="3982d083-b3c5-4a56-a48c-31dfc3ae57f0-child-16">
<path style="stroke: rgb(193,193,193); stroke-width: 0; stroke-dasharray: none; stroke-linecap: butt; stroke-dashoffset: 0; stroke-linejoin: miter; stroke-miterlimit: 4; fill: rgb(205,150,76); fill-rule: nonzero; opacity: 1;" transform="matrix(0.322451 0 0 0.322451 388.124595 388.124595) matrix(1 0 0 1 313.075822 -1031.382894)  translate(-1516.520934, -172.062218)" d="M 1507.86 200.64 C 1508.34 200.79 1508.83 200.86 1509.33 200.86 C 1511.56 200.86 1513.52 199.40 1514.17 197.27 L 1528.60 149.62 C 1529.30 146.99 1527.78 144.27 1525.17 143.48 C 1522.57 142.69 1519.80 144.11 1518.92 146.69 L 1504.49 194.34 C 1504.10 195.62 1504.24 197.01 1504.87 198.19 C 1505.50 199.37 1506.58 200.25 1507.86 200.64 Z" stroke-linecap="round"/>
</g>
		<g id="3982d083-b3c5-4a56-a48c-31dfc3ae57f0-child-17">
<path style="stroke: rgb(193,193,193); stroke-width: 0; stroke-dasharray: none; stroke-linecap: butt; stroke-dashoffset: 0; stroke-linejoin: miter; stroke-miterlimit: 4; fill: rgb(205,150,76); fill-rule: nonzero; opacity: 1;" transform="matrix(0.322451 0 0 0.322451 388.124595 388.124595) matrix(1 0 0 1 313.23545 1031.812261)  translate(-1516.680561, -2235.257373)" d="M 1514.30 2210.00 C 1513.81 2208.23 1512.40 2206.86 1510.61 2206.43 C 1508.82 2205.99 1506.94 2206.57 1505.70 2207.92 C 1504.45 2209.27 1504.04 2211.19 1504.62 2212.94 L 1519.10 2260.64 C 1519.75 2262.77 1521.71 2264.23 1523.94 2264.23 C 1524.44 2264.23 1524.93 2264.16 1525.41 2264.01 C 1528.08 2263.20 1529.59 2260.37 1528.78 2257.70 Z" stroke-linecap="round"/>
</g>
		<g id="3982d083-b3c5-4a56-a48c-31dfc3ae57f0-child-18">
<path style="stroke: rgb(193,193,193); stroke-width: 0; stroke-dasharray: none; stroke-linecap: butt; stroke-dashoffset: 0; stroke-linejoin: miter; stroke-miterlimit: 4; fill: rgb(205,150,76); fill-rule: nonzero; opacity: 1;" transform="matrix(0.322451 0 0 0.322451 388.124595 388.124595) matrix(1 0 0 1 -312.750229 -1031.307894)  translate(-890.694882, -172.137218)" d="M 893.07 197.37 C 893.72 199.50 895.68 200.96 897.91 200.96 C 898.41 200.96 898.90 200.89 899.38 200.74 C 902.05 199.93 903.56 197.10 902.75 194.43 L 888.27 146.74 C 887.39 144.16 884.62 142.74 882.02 143.53 C 879.41 144.32 877.89 147.04 878.59 149.67 Z" stroke-linecap="round"/>
</g>
		<g id="3982d083-b3c5-4a56-a48c-31dfc3ae57f0-child-19">
<path style="stroke: rgb(193,193,193); stroke-width: 0; stroke-dasharray: none; stroke-linecap: butt; stroke-dashoffset: 0; stroke-linejoin: miter; stroke-miterlimit: 4; fill: rgb(205,150,76); fill-rule: nonzero; opacity: 1;" transform="matrix(0.322451 0 0 0.322451 388.124595 388.124595) matrix(1 0 0 1 -1031.429381 313.273307)  translate(-172.01573, -1516.718417)" d="M 148.23 1529.00 C 148.73 1529.00 149.22 1528.93 149.70 1528.78 L 197.39 1514.30 C 199.99 1513.44 201.43 1510.65 200.64 1508.03 C 199.84 1505.40 197.09 1503.89 194.45 1504.62 L 146.76 1519.10 C 144.36 1519.83 142.86 1522.21 143.23 1524.68 C 143.60 1527.16 145.72 1529.00 148.23 1529.00 Z" stroke-linecap="round"/>
</g>
		<g id="3982d083-b3c5-4a56-a48c-31dfc3ae57f0-child-20">
<path style="stroke: rgb(193,193,193); stroke-width: 0; stroke-dasharray: none; stroke-linecap: butt; stroke-dashoffset: 0; stroke-linejoin: miter; stroke-miterlimit: 4; fill: rgb(205,150,76); fill-rule: nonzero; opacity: 1;" transform="matrix(0.322451 0 0 0.322451 388.124595 388.124595) matrix(1 0 0 1 1031.815619 -312.776693)  translate(-2235.26073, -890.668417)" d="M 2257.67 878.57 L 2210.00 893.05 C 2207.60 893.78 2206.10 896.16 2206.47 898.63 C 2206.84 901.11 2208.96 902.95 2211.47 902.95 C 2211.97 902.95 2212.46 902.88 2212.94 902.73 L 2260.64 888.25 C 2263.24 887.39 2264.68 884.60 2263.89 881.98 C 2263.09 879.35 2260.34 877.84 2257.70 878.57 Z" stroke-linecap="round"/>
</g>
		<g id="3982d083-b3c5-4a56-a48c-31dfc3ae57f0-child-21">
<path style="stroke: rgb(193,193,193); stroke-width: 0; stroke-dasharray: none; stroke-linecap: butt; stroke-dashoffset: 0; stroke-linejoin: miter; stroke-miterlimit: 4; fill: rgb(205,150,76); fill-rule: nonzero; opacity: 1;" transform="matrix(0.322451 0 0 0.322451 388.124595 388.124595) matrix(1 0 0 1 950.899645 508.243535)  translate(-2154.344756, -1711.688646)" d="M 2134.80 1695.49 C 2133.20 1694.57 2131.23 1694.60 2129.65 1695.55 C 2128.08 1696.51 2127.14 1698.25 2127.22 1700.09 C 2127.30 1701.94 2128.38 1703.59 2130.03 1704.41 L 2174.03 1727.96 C 2174.76 1728.35 2175.58 1728.56 2176.41 1728.56 C 2178.73 1728.56 2180.75 1726.98 2181.32 1724.73 C 2181.88 1722.48 2180.84 1720.14 2178.80 1719.04 Z" stroke-linecap="round"/>
</g>
		<g id="3982d083-b3c5-4a56-a48c-31dfc3ae57f0-child-22">
<path style="stroke: rgb(193,193,193); stroke-width: 0; stroke-dasharray: none; stroke-linecap: butt; stroke-dashoffset: 0; stroke-linejoin: miter; stroke-miterlimit: 4; fill: rgb(205,150,76); fill-rule: nonzero; opacity: 1;" transform="matrix(0.322451 0 0 0.322451 388.124595 388.124595) matrix(1 0 0 1 -950.483808 -507.844704)  translate(-252.961303, -695.600407)" d="M 272.57 711.84 C 273.30 712.23 274.12 712.43 274.95 712.43 C 277.27 712.44 279.30 710.86 279.87 708.61 C 280.44 706.36 279.39 704.01 277.34 702.92 L 233.34 679.37 C 230.88 678.05 227.82 678.98 226.50 681.44 C 225.18 683.90 226.11 686.96 228.57 688.28 Z" stroke-linecap="round"/>
</g>
		<g id="3982d083-b3c5-4a56-a48c-31dfc3ae57f0-child-23">
<path style="stroke: rgb(193,193,193); stroke-width: 0; stroke-dasharray: none; stroke-linecap: butt; stroke-dashoffset: 0; stroke-linejoin: miter; stroke-miterlimit: 4; fill: rgb(205,150,76); fill-rule: nonzero; opacity: 1;" transform="matrix(0.322451 0 0 0.322451 388.124595 388.124595) matrix(1 0 0 1 -507.820829 950.945917)  translate(-695.624282, -2154.391028)" d="M 709.78 2127.93 C 708.60 2127.30 707.21 2127.16 705.93 2127.55 C 704.65 2127.94 703.57 2128.83 702.94 2130.01 L 679.39 2174.01 C 678.07 2176.47 679.00 2179.53 681.46 2180.85 C 683.92 2182.17 686.98 2181.24 688.30 2178.78 L 711.86 2134.78 C 712.49 2133.60 712.63 2132.21 712.24 2130.92 C 711.85 2129.64 710.96 2128.56 709.78 2127.93 Z" stroke-linecap="round"/>
</g>
		<g id="3982d083-b3c5-4a56-a48c-31dfc3ae57f0-child-24">
<path style="stroke: rgb(193,193,193); stroke-width: 0; stroke-dasharray: none; stroke-linecap: butt; stroke-dashoffset: 0; stroke-linejoin: miter; stroke-miterlimit: 4; fill: rgb(205,150,76); fill-rule: nonzero; opacity: 1;" transform="matrix(0.322451 0 0 0.322451 388.124595 388.124595) matrix(1 0 0 1 508.313032 -950.515054)  translate(-1711.758143, -252.930057)" d="M 1697.59 279.40 C 1700.05 280.71 1703.11 279.78 1704.43 277.32 L 1727.98 233.32 C 1729.30 230.86 1728.37 227.79 1725.91 226.47 C 1723.45 225.15 1720.38 226.08 1719.06 228.54 L 1695.51 272.60 C 1694.23 275.05 1695.16 278.08 1697.59 279.40 Z" stroke-linecap="round"/>
</g>
		<g id="3982d083-b3c5-4a56-a48c-31dfc3ae57f0-child-25">
<path style="stroke: rgb(193,193,193); stroke-width: 0; stroke-dasharray: none; stroke-linecap: butt; stroke-dashoffset: 0; stroke-linejoin: miter; stroke-miterlimit: 4; fill: rgb(205,150,76); fill-rule: nonzero; opacity: 1;" transform="matrix(0.322451 0 0 0.322451 388.124595 388.124595) matrix(1 0 0 1 684.204856 833.515407)  translate(-1887.649967, -2036.960518)" d="M 1875.67 2014.40 C 1874.54 2012.96 1872.71 2012.24 1870.90 2012.53 C 1869.09 2012.82 1867.58 2014.06 1866.94 2015.78 C 1866.31 2017.50 1866.66 2019.43 1867.85 2020.82 L 1899.56 2059.43 C 1900.68 2060.92 1902.52 2061.67 1904.36 2061.40 C 1906.20 2061.12 1907.74 2059.85 1908.37 2058.10 C 1909.00 2056.35 1908.61 2054.39 1907.37 2053.01 Z" stroke-linecap="round"/>
</g>
		<g id="3982d083-b3c5-4a56-a48c-31dfc3ae57f0-child-26">
<path style="stroke: rgb(193,193,193); stroke-width: 0; stroke-dasharray: none; stroke-linecap: butt; stroke-dashoffset: 0; stroke-linejoin: miter; stroke-miterlimit: 4; fill: rgb(205,150,76); fill-rule: nonzero; opacity: 1;" transform="matrix(0.322451 0 0 0.322451 388.124595 388.124595) matrix(1 0 0 1 -683.792781 -833.158152)  translate(-519.652329, -370.28696)" d="M 531.70 392.93 C 533.49 395.02 536.63 395.30 538.75 393.55 C 540.88 391.80 541.22 388.67 539.52 386.51 L 507.81 347.90 C 506.69 346.41 504.85 345.66 503.01 345.93 C 501.17 346.21 499.63 347.48 499.00 349.23 C 498.37 350.98 498.76 352.94 500.00 354.32 Z" stroke-linecap="round"/>
</g>
		<g id="3982d083-b3c5-4a56-a48c-31dfc3ae57f0-child-27">
<path style="stroke: rgb(193,193,193); stroke-width: 0; stroke-dasharray: none; stroke-linecap: butt; stroke-dashoffset: 0; stroke-linejoin: miter; stroke-miterlimit: 4; fill: rgb(205,150,76); fill-rule: nonzero; opacity: 1;" transform="matrix(0.322451 0 0 0.322451 388.124595 388.124595) matrix(1 0 0 1 -832.882056 684.042237)  translate(-370.563055, -1887.487348)" d="M 354.34 1907.35 L 392.95 1875.65 C 394.39 1874.52 395.11 1872.69 394.82 1870.88 C 394.53 1869.07 393.29 1867.56 391.57 1866.92 C 389.85 1866.29 387.92 1866.64 386.53 1867.83 L 347.92 1899.54 C 345.91 1901.35 345.68 1904.42 347.39 1906.52 C 349.11 1908.61 352.17 1908.97 354.34 1907.35 Z" stroke-linecap="round"/>
</g>
		<g id="3982d083-b3c5-4a56-a48c-31dfc3ae57f0-child-28">
<path style="stroke: rgb(193,193,193); stroke-width: 0; stroke-dasharray: none; stroke-linecap: butt; stroke-dashoffset: 0; stroke-linejoin: miter; stroke-miterlimit: 4; fill: rgb(205,150,76); fill-rule: nonzero; opacity: 1;" transform="matrix(0.322451 0 0 0.322451 388.124595 388.124595) matrix(1 0 0 1 833.439927 -683.662112)  translate(-2036.885038, -519.782999)" d="M 2053.00 500.00 L 2014.39 531.71 C 2012.70 533.05 2012.05 535.32 2012.78 537.36 C 2013.50 539.39 2015.44 540.74 2017.60 540.71 C 2018.77 540.71 2019.91 540.31 2020.81 539.56 L 2059.42 507.86 C 2060.82 506.71 2061.51 504.90 2061.22 503.12 C 2060.93 501.33 2059.70 499.83 2058.01 499.19 C 2056.31 498.54 2054.40 498.85 2053.00 500.00 Z" stroke-linecap="round"/>
</g>
		<g id="3982d083-b3c5-4a56-a48c-31dfc3ae57f0-child-29">
<path style="stroke: rgb(193,193,193); stroke-width: 0; stroke-dasharray: none; stroke-linecap: butt; stroke-dashoffset: 0; stroke-linejoin: miter; stroke-miterlimit: 4; fill: rgb(205,150,76); fill-rule: nonzero; opacity: 1;" transform="matrix(0.322451 0 0 0.322451 388.124595 388.124595) matrix(1 0 0 1 1073.105393 105.764643)  translate(-2276.550504, -1309.209754)" d="M 2252.25 1301.74 C 2249.49 1301.49 2247.04 1303.52 2246.76 1306.28 C 2246.49 1309.04 2248.49 1311.51 2251.25 1311.81 L 2300.85 1316.70 L 2301.36 1316.70 C 2304.04 1316.67 2306.23 1314.56 2306.36 1311.89 C 2306.49 1309.21 2304.51 1306.90 2301.85 1306.61 Z" stroke-linecap="round"/>
</g>
		<g id="3982d083-b3c5-4a56-a48c-31dfc3ae57f0-child-30">
<path style="stroke: rgb(193,193,193); stroke-width: 0; stroke-dasharray: none; stroke-linecap: butt; stroke-dashoffset: 0; stroke-linejoin: miter; stroke-miterlimit: 4; fill: rgb(205,150,76); fill-rule: nonzero; opacity: 1;" transform="matrix(0.322451 0 0 0.322451 388.124595 388.124595) matrix(1 0 0 1 -1072.656255 -105.357693)  translate(-130.788856, -1098.087418)" d="M 155.12 1105.59 L 155.62 1105.59 C 158.30 1105.56 160.49 1103.45 160.62 1100.78 C 160.75 1098.10 158.77 1095.79 156.11 1095.50 L 106.51 1090.61 C 103.73 1090.33 101.26 1092.36 100.98 1095.14 C 100.70 1097.92 102.73 1100.39 105.51 1100.67 Z" stroke-linecap="round"/>
</g>
		<g id="3982d083-b3c5-4a56-a48c-31dfc3ae57f0-child-31">
<path style="stroke: rgb(193,193,193); stroke-width: 0; stroke-dasharray: none; stroke-linecap: butt; stroke-dashoffset: 0; stroke-linejoin: miter; stroke-miterlimit: 4; fill: rgb(205,150,76); fill-rule: nonzero; opacity: 1;" transform="matrix(0.322451 0 0 0.322451 388.124595 388.124595) matrix(1 0 0 1 -105.326454 1073.081912)  translate(-1098.118657, -2276.527023)" d="M 1101.07 2246.70 C 1098.29 2246.43 1095.82 2248.46 1095.54 2251.24 L 1090.65 2300.84 C 1090.38 2303.62 1092.41 2306.10 1095.19 2306.37 C 1095.36 2306.38 1095.52 2306.38 1095.69 2306.37 C 1098.28 2306.36 1100.44 2304.38 1100.69 2301.80 L 1105.59 2252.20 C 1105.85 2249.44 1103.83 2246.98 1101.07 2246.70 Z" stroke-linecap="round"/>
</g>
		<g id="3982d083-b3c5-4a56-a48c-31dfc3ae57f0-child-32">
<path style="stroke: rgb(193,193,193); stroke-width: 0; stroke-dasharray: none; stroke-linecap: butt; stroke-dashoffset: 0; stroke-linejoin: miter; stroke-miterlimit: 4; fill: rgb(205,150,76); fill-rule: nonzero; opacity: 1;" transform="matrix(0.322451 0 0 0.322451 388.124595 388.124595) matrix(1 0 0 1 105.764835 -1072.668848)  translate(-1309.209946, -130.776262)" d="M 1306.30 160.63 C 1306.47 160.64 1306.63 160.64 1306.80 160.63 C 1309.39 160.61 1311.54 158.64 1311.80 156.07 L 1316.69 106.47 C 1316.87 104.67 1316.07 102.92 1314.61 101.86 C 1313.14 100.81 1311.22 100.62 1309.58 101.36 C 1307.93 102.11 1306.81 103.67 1306.63 105.47 L 1301.73 155.08 C 1301.60 156.42 1302.00 157.76 1302.86 158.81 C 1303.72 159.85 1304.96 160.50 1306.30 160.63 Z" stroke-linecap="round"/>
</g>
</g>
</g>

  </svg>