<svg xmlns="http://www.w3.org/2000/svg" xmlns:xlink="http://www.w3.org/1999/xlink" width="95px" height="60px" viewBox="0 0 57.63442599999689 36.460000000000036">
    <g transform="matrix(1 0 0 1 -58316.775853 6178.169299)" id="2054e434-e563-4149-882e-8d569ed3a380">

</g>
<g id="84c2c4aa-a6e1-42dc-81b5-f04bd7647438">
<g style="">
		<g id="23c2aa00-89b8-43ef-8415-103c5dd33257">
<path style="stroke: rgb(193,193,193); stroke-width: 0; stroke-dasharray: none; stroke-linecap: butt; stroke-dashoffset: 0; stroke-linejoin: miter; stroke-miterlimit: 4; fill: rgb(252,248,227); fill-rule: nonzero; opacity: 1;" d="M18.27721,36.46c-1.73,0 -3.11,-0.42 -4.14,-1.27c-1.03,-0.85 -1.76,-2.09 -2.2,-3.72c-0.45,-1.63 -0.67,-3.62 -0.67,-5.95v-14.85c0,-1.57 0.1,-3 0.3,-4.3c0.21,-1.31 0.57,-2.43 1.09,-3.38c0.52,-0.95 1.24,-1.69 2.17,-2.21c0.93,-0.52 2.13,-0.78 3.59,-0.78c1.39,0 2.52,0.25 3.4,0.74c0.88,0.49 1.56,1.19 2.05,2.1c0.48,0.91 0.81,1.99 1,3.24c0.18,1.25 0.27,2.64 0.27,4.15v3.95h-4.11v-3.97c0,-2.22 -0.16,-3.88 -0.48,-4.98c-0.31,-1.1 -1.02,-1.65 -2.13,-1.65c-1.17,0 -1.96,0.56 -2.36,1.69c-0.4,1.13 -0.6,2.77 -0.6,4.92v15.43c0,1.73 0.07,3.13 0.22,4.2c0.15,1.07 0.43,1.85 0.84,2.34c0.41,0.49 1.01,0.73 1.78,0.73c1.12,0 1.85,-0.57 2.2,-1.7c0.35,-1.13 0.53,-3 0.53,-5.59v-3.95h4.15v3.91c0,2.37 -0.21,4.37 -0.62,5.99c-0.41,1.62 -1.11,2.84 -2.11,3.67c-1,0.83 -2.39,1.24 -4.17,1.24zM30.01721,36.03l5.41,-35.65h5.04l5.9,35.65h-3.95l-1.02,-6.81h-6.46l-0.93,6.81zM35.40721,25.82h5.47l-2.82,-18.83h-0.06z" stroke-linecap="round"/>
</g>
</g>
</g>
<g transform="matrix(1 0 0 1 -58316.775853 6178.169299)" id="491c13f2-55eb-4943-9e9b-8f01321676fa">

</g>
<g transform="matrix(1 0 0 1 -58316.775853 6178.169299)" id="6a39358e-8156-4ce1-9a70-2c793fe7052a">

</g>

  </svg>