<svg xmlns="http://www.w3.org/2000/svg" xmlns:xlink="http://www.w3.org/1999/xlink" width="412px" height="393px" viewBox="0 0 412.30837782750314 392.9814227831803">
    <g id="415f9ef4-5a13-4395-a54d-6f1eee1cee52">
<g style="">
		<g id="415f9ef4-5a13-4395-a54d-6f1eee1cee52-child-0">
<path style="stroke: rgb(193,193,193); stroke-width: 0; stroke-dasharray: none; stroke-linecap: butt; stroke-dashoffset: 0; stroke-linejoin: miter; stroke-miterlimit: 4; fill: rgb(4,3,31); fill-rule: nonzero; opacity: 1;" transform="matrix(1.52086 0 0 1.52086 206.154189 196.490711) matrix(1 0 0 1 0 0)  translate(-135.552134, -128.842914)" d="M 1.58 145.85 C 1.86 153.04 1.67 151.59 1.58 145.85 Z M 266.45 187.18 C 265.10 189.18 263.64 191.44 262.15 193.18 C 260.77 194.80 259.26 196.31 257.64 197.69 C 256.34 198.81 255.32 199.82 254.47 200.00 C 253.62 200.18 253.53 200.06 253.24 199.73 C 252.95 199.40 252.91 200.81 253.13 198.33 C 253.35 195.85 254.98 191.08 256.55 185.22 C 258.12 179.36 260.65 171.22 262.66 163.22 C 264.67 155.22 267.05 146.38 268.49 137.05 C 269.93 127.72 271.25 115.88 271.09 107.32 C 271.01 100.14 270.12 92.98 268.43 86.00 C 266.90 79.11 264.63 72.40 261.64 66.00 C 258.99 60.70 255.71 55.74 251.89 51.21 C 249.04 47.89 247.78 46.88 245.54 45.50 C 243.56 44.07 241.25 43.17 238.82 42.86 C 236.12 42.59 235.02 43.15 229.90 44.46 C 224.78 45.77 216.45 50.20 208.46 51.70 C 199.84 53.19 191.06 53.57 182.34 52.85 C 174.75 52.11 168.93 50.02 163.34 48.21 C 157.75 46.40 151.65 44.21 148.60 42.28 C 145.55 40.35 144.80 39.94 144.40 38.51 C 144.00 37.08 143.57 37.84 145.40 35.40 C 147.23 32.96 152.79 29.34 157.75 26.92 C 162.71 24.50 168.00 22.93 175.00 21.41 C 183.20 19.61 191.55 18.61 199.94 18.41 C 205.01 17.41 231.52 22.78 227.74 17.12 C 219.81 5.37 213.00 1.37 209.62 0.43 L 209.62 0.43 C 203.73 -1.16 187.62 2.10 179.33 2.97 C 171.99 3.63 164.72 4.90 157.59 6.75 C 150.03 8.75 140.40 11.59 134.19 14.93 C 128.97 17.67 124.23 21.26 120.19 25.56 C 116.75 29.15 113.88 33.25 111.69 37.71 C 110.30 40.46 109.48 43.46 109.27 46.53 C 109.03 49.39 109.29 52.27 110.04 55.04 C 110.84 58.04 112.07 60.91 113.69 63.56 C 115.43 66.50 117.56 69.19 120.01 71.56 C 122.34 73.70 123.95 74.44 127.32 76.43 C 130.69 78.42 135.91 80.87 140.32 83.21 C 144.73 85.55 149.22 87.70 153.78 90.45 C 158.62 93.20 163.25 96.31 167.63 99.74 C 172.28 103.59 176.58 107.84 180.49 112.44 C 183.71 116.14 186.50 120.20 188.79 124.54 C 190.66 128.52 192.11 132.67 193.14 136.94 C 194.35 140.96 195.21 145.08 195.73 149.25 C 195.99 152.19 195.89 155.15 195.44 158.07 C 195.08 160.57 194.71 162.82 193.85 164.23 C 192.99 165.64 192.94 166.12 191.19 166.58 C 189.44 167.04 188.81 166.93 184.04 165.05 C 179.27 163.17 171.04 157.84 163.96 153.05 C 156.23 147.83 148.81 142.15 141.75 136.05 C 134.66 129.84 129.83 123.60 121.58 115.88 C 113.33 108.16 99.82 95.06 92.08 89.91 C 84.34 84.76 81.48 83.66 77.25 82.68 C 74.10 81.90 70.82 81.90 67.67 82.68 C 64.88 83.18 62.22 84.23 59.84 85.78 C 56.73 87.81 53.94 90.29 51.57 93.15 C 48.78 96.52 46.41 100.21 44.51 104.15 C 43.06 107.22 42.01 110.46 41.40 113.80 C 40.53 117.80 40.40 120.65 39.67 128.02 C 38.94 135.39 38.55 150.29 37.80 158.02 C 37.38 163.56 36.65 169.07 35.61 174.52 C 34.61 179.37 33.53 184.15 32.13 187.13 C 30.97 189.28 29.01 190.88 26.67 191.59 C 25.89 191.59 25.67 191.59 24.67 190.67 C 23.67 189.75 23.47 189.58 22.00 185.73 C 19.96 179.70 18.47 173.49 17.57 167.18 C 16.70 160.30 16.42 153.35 16.72 146.42 C 16.75 137.67 17.58 128.95 19.20 120.35 C 21.20 110.25 26.06 96.19 29.65 86.35 C 33.24 76.51 38.41 67.61 40.36 61.00 C 42.86 53.33 44.62 42.79 36.76 38.66 C 22.83 35.53 8.79 73.10 5.05 83.36 C 2.56 91.18 0.94 99.25 0.23 107.42 C -0.38 113.67 0.43 116.60 0.36 121.36 C 1.04 133.57 1.36 141.36 1.58 145.85 C 1.43 136.85 1.58 117.32 4.10 103.92 C 5.24 98.45 6.88 93.09 9.00 87.92 C 10.23 84.75 11.80 81.74 13.70 78.92 C 14.63 77.48 15.79 76.20 17.12 75.12 C 18.12 74.32 18.75 73.83 19.36 73.87 C 21.06 75.37 20.44 74.56 20.24 76.57 C 19.93 79.68 18.08 86.87 16.91 92.91 C 15.74 98.95 14.13 106.38 13.28 112.82 C 12.47 119.02 11.96 125.27 11.78 131.52 C 11.48 139.25 11.09 151.63 11.78 159.19 C 12.35 165.14 13.48 171.02 15.15 176.75 C 16.53 181.80 18.24 186.75 20.26 191.58 C 21.56 194.82 23.09 197.97 24.86 200.98 C 26.59 203.79 28.47 206.51 30.50 209.12 C 31.36 210.27 32.29 211.38 33.28 212.43 C 35.18 214.61 39.44 219.89 42.05 222.10 C 44.66 224.31 46.05 225.40 48.34 226.10 C 50.63 226.80 52.65 226.63 55.54 226.43 C 58.43 226.23 59.54 225.20 65.54 224.56 C 71.54 223.92 83.93 223.20 91.61 223.78 C 98.32 224.41 104.95 225.62 111.45 227.40 C 116.71 228.61 121.86 230.22 126.88 232.20 C 129.88 233.60 129.50 233.46 130.11 234.25 C 130.63 234.78 130.87 235.52 130.76 236.25 C 130.62 236.97 129.86 237.42 129.36 237.97 C 128.90 238.58 128.36 239.12 127.75 239.58 C 126.54 240.36 125.28 241.08 123.99 241.73 C 123.10 242.36 122.15 242.88 121.14 243.29 C 117.05 245.09 112.85 246.63 108.57 247.89 C 105.64 248.60 102.66 249.06 99.65 249.28 C 95.96 249.73 90.65 250.89 86.43 250.45 C 82.21 250.01 79.00 248.34 75.08 246.94 C 71.16 245.54 65.57 243.09 62.98 242.04 C 54.10 237.57 63.33 243.37 66.37 245.16 C 69.71 247.29 73.17 249.24 76.72 251.00 C 93.32 261.43 109.99 257.51 125.95 253.58 C 133.05 251.76 139.82 249.70 144.44 247.15 C 147.99 245.19 151.18 242.66 153.89 239.64 C 155.48 238.11 156.76 236.29 157.65 234.27 C 158.52 232.54 158.96 230.62 158.93 228.68 C 158.79 226.07 158.11 223.53 156.93 221.20 C 155.52 218.35 153.63 215.77 151.34 213.56 C 147.84 210.16 143.98 207.17 139.82 204.63 C 134.93 201.49 127.82 198.47 121.82 195.20 C 115.82 191.93 109.50 189.20 103.69 185.02 C 97.72 180.68 92.20 175.74 87.23 170.28 C 82.69 165.28 78.94 160.66 76.35 155.28 C 73.85 150.11 72.28 144.54 71.71 138.83 C 71.19 132.76 71.53 126.64 72.71 120.66 C 75.96 111.88 82.33 117.00 86.36 119.50 C 118.52 137.77 136.08 165.64 164.36 185.69 C 170.80 190.18 176.04 193.08 181.04 194.85 C 185.05 196.42 189.32 197.19 193.62 197.12 C 197.88 197.20 202.10 196.35 206.00 194.63 C 209.84 192.76 212.38 190.63 215.88 186.26 C 219.38 181.89 222.94 174.78 225.53 168.26 C 228.12 161.74 229.61 155.51 231.21 147.09 C 232.81 138.67 232.88 126.40 234.51 117.74 C 236.14 109.08 238.13 100.99 240.51 95.17 C 242.22 90.68 244.61 86.48 247.60 82.71 C 249.91 79.91 251.60 78.33 253.29 77.88 C 254.40 77.41 255.68 77.67 256.52 78.53 C 257.65 79.33 257.35 77.68 259.10 82.83 C 260.85 87.98 262.25 101.28 262.25 110.25 C 262.37 119.01 261.37 127.75 259.25 136.25 C 256.79 146.84 250.85 161.25 246.17 173.00 C 241.49 184.75 233.88 199.00 231.26 206.85 C 228.64 214.70 228.44 216.06 228.37 219.43 C 228.22 221.89 228.68 224.35 229.72 226.58 C 232.02 230.11 233.72 230.58 235.43 230.02 C 238.93 228.88 244.74 220.91 248.58 216.44 C 252.20 212.29 255.54 207.91 258.58 203.33 C 262.29 197.76 265.67 191.97 268.70 186.00 C 272.35 178.38 269.22 182.88 266.45 187.18 Z" stroke-linecap="round"/>
</g>
</g>
</g>

  </svg>