<svg xmlns="http://www.w3.org/2000/svg" xmlns:xlink="http://www.w3.org/1999/xlink" width="170px" height="167px" viewBox="0 0 169.58217190497817 166.21509189800054">
    <g id="9b8fe14e-d334-4ce1-b552-40f41e88daec">
<g style="">
		<g id="9b8fe14e-d334-4ce1-b552-40f41e88daec-child-0">
<path style="stroke: rgb(193,193,193); stroke-width: 0; stroke-dasharray: none; stroke-linecap: butt; stroke-dashoffset: 0; stroke-linejoin: miter; stroke-miterlimit: 4; fill: rgb(4,3,31); fill-rule: nonzero; opacity: 1;" transform="matrix(0.343666 0 0 0.343666 84.791086 83.107546) matrix(1 0 0 1 121.272268 155.772)  translate(-367.998, -402.4975)" d="M 420.49 352.01 L 307.54 352.01 L 307.54 316.44 L 275.05 359.47 L 242.54 402.49 L 275.05 445.52 L 307.54 488.55 L 307.54 463.94 L 367.74 461.66 C 420.95 458.45 433.67 436.47 433.67 436.47 L 493.45 325.39 C 471.41 356.12 420.49 352.01 420.49 352.01 z" stroke-linecap="round"/>
</g>
		<g id="9b8fe14e-d334-4ce1-b552-40f41e88daec-child-1">
<path style="stroke: rgb(193,193,193); stroke-width: 0; stroke-dasharray: none; stroke-linecap: butt; stroke-dashoffset: 0; stroke-linejoin: miter; stroke-miterlimit: 4; fill: rgb(4,3,31); fill-rule: nonzero; opacity: 1;" transform="matrix(0.343666 0 0 0.343666 84.791086 83.107546) matrix(1 0 0 1 176.403734 15.623065)  translate(-423.129466, -262.348566)" d="M 451.53 192.18 L 355.18 248.15 L 403.35 331.65 C 452.44 336.23 467.56 321.09 467.56 321.09 C 506.89 298.84 485.01 249.51 485.01 249.51 L 451.53 192.18 z" stroke-linecap="round"/>
</g>
		<g id="9b8fe14e-d334-4ce1-b552-40f41e88daec-child-2">
<path style="stroke: rgb(193,193,193); stroke-width: 0; stroke-dasharray: none; stroke-linecap: butt; stroke-dashoffset: 0; stroke-linejoin: miter; stroke-miterlimit: 4; fill: rgb(4,3,31); fill-rule: nonzero; opacity: 1;" transform="matrix(0.343666 0 0 0.343666 84.791086 83.107546) matrix(1 0 0 1 -161.2315 51.6975)  translate(-85.494232, -298.423)" d="M 66.96 425.68 C 52.09 390.93 82.04 349.49 82.04 349.49 L 140.59 252.92 L 170.99 271.36 L 151.02 221.26 L 131.10 171.17 L 77.46 176.65 L 23.81 182.15 L 44.84 194.89 L 15.62 247.55 C -9.22 294.71 3.01 316.99 3.01 316.99 L 66.96 425.68 z" stroke-linecap="round"/>
</g>
		<g id="9b8fe14e-d334-4ce1-b552-40f41e88daec-child-3">
<path style="stroke: rgb(193,193,193); stroke-width: 0; stroke-dasharray: none; stroke-linecap: butt; stroke-dashoffset: 0; stroke-linejoin: miter; stroke-miterlimit: 4; fill: rgb(4,3,31); fill-rule: nonzero; opacity: 1;" transform="matrix(0.343666 0 0 0.343666 84.791086 83.107546) matrix(1 0 0 1 -102.850391 158.2625)  translate(-143.875341, -404.988)" d="M 83.71 408.62 C 82.36 453.81 135.88 460.64 135.88 460.64 L 202.31 461.74 L 204.38 350.31 L 108.00 348.24 C 78.62 387.83 83.71 408.62 83.71 408.62 z" stroke-linecap="round"/>
</g>
		<g id="9b8fe14e-d334-4ce1-b552-40f41e88daec-child-4">
<path style="stroke: rgb(193,193,193); stroke-width: 0; stroke-dasharray: none; stroke-linecap: butt; stroke-dashoffset: 0; stroke-linejoin: miter; stroke-miterlimit: 4; fill: rgb(4,3,31); fill-rule: nonzero; opacity: 1;" transform="matrix(0.343666 0 0 0.343666 84.791086 83.107546) matrix(1 0 0 1 59.798268 -149.687)  translate(-306.524, -97.0385)" d="M 324.37 181.03 L 377.65 189.18 L 400.04 140.13 L 422.47 91.10 L 400.84 102.79 L 370.23 50.92 C 342.12 5.63 316.71 4.90 316.71 4.90 L 190.57 5.06 C 228.10 9.84 248.67 56.61 248.67 56.61 L 302.33 155.97 L 271.06 172.87 L 324.37 181.03 z" stroke-linecap="round"/>
</g>
		<g id="9b8fe14e-d334-4ce1-b552-40f41e88daec-child-5">
<path style="stroke: rgb(193,193,193); stroke-width: 0; stroke-dasharray: none; stroke-linecap: butt; stroke-dashoffset: 0; stroke-linejoin: miter; stroke-miterlimit: 4; fill: rgb(4,3,31); fill-rule: nonzero; opacity: 1;" transform="matrix(0.343666 0 0 0.343666 84.791086 83.107546) matrix(1 0 0 1 -82.847232 -159.544175)  translate(-163.8785, -87.181325)" d="M 236.69 75.57 C 217.40 30.20 196.88 24.06 196.88 24.06 C 158.61 0.05 125.62 42.73 125.62 42.73 L 91.07 99.46 L 186.10 157.63 L 236.69 75.57 z" stroke-linecap="round"/>
</g>
</g>
</g>

  </svg>