<svg xmlns="http://www.w3.org/2000/svg" xmlns:xlink="http://www.w3.org/1999/xlink" width="859px" height="197px" viewBox="0 0 859.2863849999994 197.39999999999964">
    <g transform="matrix(1 0 0 1 -65856.083128 7171.945737)" id="428c81d8-1134-46d7-a879-408af47fac00">

</g>
<g id="3b04aaf4-60aa-407d-a62c-fab8589a1aaa" clip-path="url(#CLIPPATH_272)">
<clipPath id="CLIPPATH_272">
	<path transform="matrix(1 0 0 1 429.643193 98.7) matrix(1 0 0 1 0 0) translate(-424.155, 98.56)" id="481fe720-6a1b-427d-8808-3413eb45dff9" d="M101.56,0c-7.05,0 -13.06,-2.49 -18.05,-7.48c-4.99,-4.99 -7.48,-11 -7.48,-18.05v-145.92c0,-7.05 2.49,-13.07 7.48,-18.06c4.99,-4.99 11,-7.48 18.05,-7.48c7.05,0 13.06,2.49 18.05,7.48c4.99,4.99 7.48,11.01 7.48,18.06v120.38h57.93c7.05,0 13.06,2.5 18.05,7.49c4.99,4.99 7.48,11 7.48,18.05c0,7.05 -2.49,13.06 -7.48,18.05c-4.99,4.99 -11,7.48 -18.05,7.48zM300.88,0c-18.21,0 -34.78,-4.44 -49.69,-13.32c-14.92,-8.87 -26.8,-20.75 -35.63,-35.62c-8.83,-14.87 -13.24,-31.37 -13.24,-49.49c0,-18.12 4.41,-34.64 13.24,-49.55c8.83,-14.92 20.69,-26.82 35.56,-35.69c14.87,-8.88 31.46,-13.32 49.76,-13.32c18.31,0 34.89,4.46 49.76,13.39c14.87,8.92 26.73,20.84 35.56,35.76c8.83,14.91 13.24,31.38 13.24,49.41c0,18.12 -4.44,34.62 -13.31,49.49c-8.88,14.87 -20.78,26.75 -35.69,35.62c-14.92,8.88 -31.44,13.32 -49.56,13.32zM300.88,-51.07c8.79,0 16.77,-2.15 23.95,-6.45c7.19,-4.3 12.89,-10.04 17.1,-17.23c4.21,-7.18 6.31,-15.07 6.31,-23.68c0,-6.59 -1.24,-12.74 -3.71,-18.46c-2.47,-5.72 -5.85,-10.75 -10.15,-15.1c-4.31,-4.35 -9.34,-7.76 -15.1,-10.23c-5.77,-2.47 -11.9,-3.7 -18.4,-3.7c-8.69,0 -16.63,2.1 -23.82,6.31c-7.18,4.21 -12.92,9.91 -17.22,17.09c-4.31,7.19 -6.46,15.22 -6.46,24.09c0,8.51 2.08,16.36 6.25,23.55c4.17,7.18 9.84,12.94 17.02,17.29c7.19,4.35 15.26,6.52 24.23,6.52zM431.84,0c-7.05,0 -13.04,-2.49 -17.98,-7.48c-4.95,-4.99 -7.42,-11 -7.42,-18.05c0,-7.05 2.47,-13.04 7.42,-17.99c4.94,-4.94 10.93,-7.41 17.98,-7.41l98.7,-0.14c2.93,0 5.51,-1.05 7.76,-3.15c2.24,-2.11 3.36,-4.72 3.36,-7.83c0,-3.02 -1.12,-5.6 -3.36,-7.75c-2.25,-2.15 -4.83,-3.23 -7.76,-3.23h-62.05c-11.44,0 -21.87,-2.81 -31.3,-8.44c-9.43,-5.63 -16.93,-13.13 -22.51,-22.51c-5.58,-9.39 -8.37,-19.8 -8.37,-31.23c0,-11.35 2.79,-21.74 8.37,-31.17c5.58,-9.43 13.08,-16.93 22.51,-22.51c9.43,-5.58 19.86,-8.37 31.3,-8.37h98.56c7.14,0 13.2,2.49 18.19,7.48c4.99,4.99 7.48,11 7.48,18.05c0,7.05 -2.49,13.06 -7.48,18.05c-4.99,4.99 -11.05,7.48 -18.19,7.48h-98.56c-2.93,0 -5.49,1.08 -7.69,3.23c-2.19,2.15 -3.29,4.74 -3.29,7.76c0,3.11 1.1,5.71 3.29,7.82c2.2,2.11 4.76,3.16 7.69,3.16l62.05,0.13c8.6,0 16.65,1.6 24.16,4.81c7.51,3.2 14.1,7.64 19.77,13.31c5.67,5.68 10.09,12.29 13.24,19.84c3.16,7.55 4.79,15.58 4.88,24.09c0.09,11.35 -2.66,21.73 -8.24,31.16c-5.58,9.43 -13.08,16.93 -22.51,22.52c-9.43,5.58 -19.86,8.37 -31.3,8.37zM687.31,0.14c-7.05,0 -13.07,-2.49 -18.06,-7.48c-4.99,-4.99 -7.48,-11.01 -7.48,-18.06v-74.12c0,-7.05 2.49,-13.06 7.48,-18.05c4.99,-4.99 11.01,-7.49 18.06,-7.49c7.05,0 13.09,2.5 18.12,7.49c5.03,4.99 7.55,11 7.55,18.05v74.12c0,7.05 -2.52,13.07 -7.55,18.06c-5.03,4.99 -11.07,7.48 -18.12,7.48zM627.87,-145.92c-7.05,0 -13.06,-2.49 -18.05,-7.48c-4.99,-4.99 -7.49,-11 -7.49,-18.05c0,-7.05 2.5,-13.07 7.49,-18.06c4.99,-4.99 11,-7.48 18.05,-7.48h118.88c7.05,0 13.06,2.49 18.05,7.48c4.99,4.99 7.48,11.01 7.48,18.06c0,7.05 -2.49,13.06 -7.48,18.05c-4.99,4.99 -11,7.48 -18.05,7.48z" stroke-linecap="round"/>
</clipPath>
<g style="">
		<g id="1ad34244-d5de-46f4-b8d1-6b018841feaf">
<rect style="stroke: rgb(193,193,193); stroke-width: 0; stroke-dasharray: none; stroke-linecap: butt; stroke-dashoffset: 0; stroke-linejoin: miter; stroke-miterlimit: 4; fill: none; fill-rule: nonzero; opacity: 1;" x="-429.6431925" y="-98.69999999999999" rx="0" ry="0" width="859.286385" height="197.39999999999998" transform="matrix(1 0 0 1 429.643193 98.7) matrix(1 0 0 1 0 0)"/>
</g>
		<g id="296c73f4-e460-4bcc-af02-13e560775579">
<path style="stroke: rgb(255,212,106); stroke-width: 10.662948; stroke-dasharray: none; stroke-linecap: butt; stroke-dashoffset: 0; stroke-linejoin: miter; stroke-miterlimit: 4; fill: none; fill-rule: nonzero; opacity: 1;" d="M107.04819,197.26c-7.05,0 -13.06,-2.49 -18.05,-7.48c-4.99,-4.99 -7.48,-11 -7.48,-18.05v-145.92c0,-7.05 2.49,-13.07 7.48,-18.06c4.99,-4.99 11,-7.48 18.05,-7.48c7.05,0 13.06,2.49 18.05,7.48c4.99,4.99 7.48,11.01 7.48,18.06v120.38h57.93c7.05,0 13.06,2.5 18.05,7.49c4.99,4.99 7.48,11 7.48,18.05c0,7.05 -2.49,13.06 -7.48,18.05c-4.99,4.99 -11,7.48 -18.05,7.48zM306.36819,197.26c-18.21,0 -34.78,-4.44 -49.69,-13.32c-14.92,-8.87 -26.8,-20.75 -35.63,-35.62c-8.83,-14.87 -13.24,-31.37 -13.24,-49.49c0,-18.12 4.41,-34.64 13.24,-49.55c8.83,-14.92 20.69,-26.82 35.56,-35.69c14.87,-8.88 31.46,-13.32 49.76,-13.32c18.31,0 34.89,4.46 49.76,13.39c14.87,8.92 26.73,20.84 35.56,35.76c8.83,14.91 13.24,31.38 13.24,49.41c0,18.12 -4.44,34.62 -13.31,49.49c-8.88,14.87 -20.78,26.75 -35.69,35.62c-14.92,8.88 -31.44,13.32 -49.56,13.32zM306.36819,146.19c8.79,0 16.77,-2.15 23.95,-6.45c7.19,-4.3 12.89,-10.04 17.1,-17.23c4.21,-7.18 6.31,-15.07 6.31,-23.68c0,-6.59 -1.24,-12.74 -3.71,-18.46c-2.47,-5.72 -5.85,-10.75 -10.15,-15.1c-4.31,-4.35 -9.34,-7.76 -15.1,-10.23c-5.77,-2.47 -11.9,-3.7 -18.4,-3.7c-8.69,0 -16.63,2.1 -23.82,6.31c-7.18,4.21 -12.92,9.91 -17.22,17.09c-4.31,7.19 -6.46,15.22 -6.46,24.09c0,8.51 2.08,16.36 6.25,23.55c4.17,7.18 9.84,12.94 17.02,17.29c7.19,4.35 15.26,6.52 24.23,6.52zM437.32819,197.26c-7.05,0 -13.04,-2.49 -17.98,-7.48c-4.95,-4.99 -7.42,-11 -7.42,-18.05c0,-7.05 2.47,-13.04 7.42,-17.99c4.94,-4.94 10.93,-7.41 17.98,-7.41l98.7,-0.14c2.93,0 5.51,-1.05 7.76,-3.15c2.24,-2.11 3.36,-4.72 3.36,-7.83c0,-3.02 -1.12,-5.6 -3.36,-7.75c-2.25,-2.15 -4.83,-3.23 -7.76,-3.23h-62.05c-11.44,0 -21.87,-2.81 -31.3,-8.44c-9.43,-5.63 -16.93,-13.13 -22.51,-22.51c-5.58,-9.39 -8.37,-19.8 -8.37,-31.23c0,-11.35 2.79,-21.74 8.37,-31.17c5.58,-9.43 13.08,-16.93 22.51,-22.51c9.43,-5.58 19.86,-8.37 31.3,-8.37h98.56c7.14,0 13.2,2.49 18.19,7.48c4.99,4.99 7.48,11 7.48,18.05c0,7.05 -2.49,13.06 -7.48,18.05c-4.99,4.99 -11.05,7.48 -18.19,7.48h-98.56c-2.93,0 -5.49,1.08 -7.69,3.23c-2.19,2.15 -3.29,4.74 -3.29,7.76c0,3.11 1.1,5.71 3.29,7.82c2.2,2.11 4.76,3.16 7.69,3.16l62.05,0.13c8.6,0 16.65,1.6 24.16,4.81c7.51,3.2 14.1,7.64 19.77,13.31c5.67,5.68 10.09,12.29 13.24,19.84c3.16,7.55 4.79,15.58 4.88,24.09c0.09,11.35 -2.66,21.73 -8.24,31.16c-5.58,9.43 -13.08,16.93 -22.51,22.52c-9.43,5.58 -19.86,8.37 -31.3,8.37zM692.79819,197.4c-7.05,0 -13.07,-2.49 -18.06,-7.48c-4.99,-4.99 -7.48,-11.01 -7.48,-18.06v-74.12c0,-7.05 2.49,-13.06 7.48,-18.05c4.99,-4.99 11.01,-7.49 18.06,-7.49c7.05,0 13.09,2.5 18.12,7.49c5.03,4.99 7.55,11 7.55,18.05v74.12c0,7.05 -2.52,13.07 -7.55,18.06c-5.03,4.99 -11.07,7.48 -18.12,7.48zM633.35819,51.34c-7.05,0 -13.06,-2.49 -18.05,-7.48c-4.99,-4.99 -7.49,-11 -7.49,-18.05c0,-7.05 2.5,-13.07 7.49,-18.06c4.99,-4.99 11,-7.48 18.05,-7.48h118.88c7.05,0 13.06,2.49 18.05,7.48c4.99,4.99 7.48,11.01 7.48,18.06c0,7.05 -2.49,13.06 -7.48,18.05c-4.99,4.99 -11,7.48 -18.05,7.48z" stroke-linecap="round"/>
</g>
</g>
</g>
<g transform="matrix(1 0 0 1 -65856.083128 7171.945737)" id="9464c8b5-003d-401f-a144-eeffa349ebc7">

</g>
<g transform="matrix(1 0 0 1 -65856.083128 7171.945737)" id="819a22a3-7c93-4fb7-b8b0-d7bfb191b2ba">

</g>

  </svg>