<svg xmlns="http://www.w3.org/2000/svg" xmlns:xlink="http://www.w3.org/1999/xlink" width="542px" height="482px" viewBox="0 0 541.6344349999999 481.7399999999998">
    <g transform="matrix(1 0 0 1 -49422.599582 4807.145731)" id="13c32a58-2fac-4763-be2f-813d5a40ec3f">

</g>
<g id="d5361974-59aa-4b45-b312-290611d6eb42">
<g style="">
		<g id="b6a77163-92e9-486d-a953-8d1a6163aa66">
<path style="stroke: rgb(193,193,193); stroke-width: 0; stroke-dasharray: none; stroke-linecap: butt; stroke-dashoffset: 0; stroke-linejoin: miter; stroke-miterlimit: 4; fill: rgb(0,164,218); fill-rule: nonzero; opacity: 1;" d="M247.27222,136.57c1.47,3.88 2.21,8.59 2.21,14.13c0,3.88 -0.09,6.74 -0.27,8.59l-0.28,8.86c0,2.95 -0.65,6.09 -1.94,9.42c-1.29,3.33 -3.05,7.2 -5.26,11.63c-0.55,1.29 -1.2,2.68 -1.94,4.16c-0.74,1.48 -1.48,3.05 -2.22,4.71c-1.11,2.59 -2.86,4.2 -5.26,4.85c-2.4,0.65 -5.08,0.92 -8.04,0.83c-2.95,-0.09 -5.08,-0.14 -6.37,-0.14c-3.14,0 -8.03,-0.18 -14.68,-0.55l-14.68,-0.28c-7.21,0 -13.49,0.46 -18.84,1.38c-7.39,1.11 -14.96,1.67 -22.72,1.67c-7.2,0 -14.4,-0.56 -21.6,-1.67c-4.25,-0.73 -8.86,-1.1 -13.85,-1.1l-9.98,0.27c-5.91,0.37 -10.34,0.47 -13.29,0.28c-0.74,0 -2.59,0 -5.55,0c-2.95,0 -5.4,-0.23 -7.34,-0.69c-1.94,-0.47 -3.19,-1.25 -3.74,-2.36l-0.55,-2.21c0,-1.11 0.42,-2.08 1.25,-2.91c0.83,-0.83 2.16,-1.99 4.01,-3.47c1.29,-0.92 3.14,-2.4 5.54,-4.43c3.51,-2.77 5.82,-6.6 6.93,-11.49c1.11,-4.9 1.66,-10.95 1.66,-18.15c0,-8.87 -0.28,-17.73 -0.83,-26.59c-0.37,-3.51 -1.75,-6.84 -4.15,-9.98l-4.44,-4.98c-1.85,-1.85 -3.6,-3.88 -5.26,-6.1c-1.29,-1.29 -1.94,-2.68 -1.94,-4.15c0,-1.48 0.55,-2.87 1.66,-4.16c0.37,-0.55 1.3,-1.85 2.77,-3.88c1.48,-2.03 2.68,-4.06 3.6,-6.09c0.55,-0.74 1.48,-2.17 2.77,-4.29c1.29,-2.13 2.13,-4.02 2.5,-5.68c0.92,-6.28 1.2,-11.36 0.83,-15.24c-1.11,-8.87 -1.66,-15.42 -1.66,-19.67c0,-4.06 0.37,-7.85 1.1,-11.36c0.19,-0.73 0.28,-1.75 0.28,-3.04c0,-2.77 -0.6,-5.04 -1.8,-6.79c-1.2,-1.75 -3.09,-3.83 -5.68,-6.23c-2.77,-2.77 -4.15,-4.16 -4.15,-4.16c-0.55,-0.55 -1.57,-1.57 -3.05,-3.05c-1.48,-1.47 -2.22,-2.86 -2.22,-4.15c0,-0.93 0.37,-1.76 1.11,-2.5c0.74,-0.73 2.96,-1.33 6.65,-1.8c3.69,-0.46 7.76,-0.69 12.19,-0.69c4.61,0 7.84,0.19 9.69,0.56c3.88,0.73 8.41,1.1 13.58,1.1c2.95,0 7.39,-0.18 13.3,-0.55c5.91,-0.37 10.43,-0.55 13.57,-0.55c1.85,0 3.97,0.09 6.37,0.27c2.4,0.19 4.25,0.37 5.54,0.56c5.17,0.73 9.14,1.1 11.91,1.1c3.14,0 5.54,-0.18 7.21,-0.55c5.17,-1.11 8.95,-1.66 11.35,-1.66h45.99c3.69,0 6.33,0.69 7.9,2.08c1.57,1.38 2.72,4.01 3.46,7.89l1.38,7.76c0.37,4.8 1.21,8.68 2.5,11.63c1.47,3.51 2.21,7.58 2.21,12.19c0,2.59 -0.09,4.53 -0.27,5.82l-0.28,6.37c0,0.93 -0.18,2.13 -0.55,3.6c-1.11,2.22 -2.59,3.33 -4.44,3.33c-1.66,0 -3.32,-0.56 -4.98,-1.67c-1.67,-1.11 -3.88,-2.67 -6.65,-4.7c-2.77,-2.03 -5.91,-3.65 -9.42,-4.85c-3.51,-1.2 -7.85,-2.36 -13.02,-3.47c-5.17,-1.11 -8.78,-2.03 -10.81,-2.77c-2.58,-0.92 -5.63,-1.38 -9.14,-1.38c-3.14,0 -6.56,0.28 -10.25,0.83c-5.17,0.74 -9.14,1.02 -11.91,0.83l-5.82,-0.28c-7.57,0 -13.11,1.76 -16.62,5.27c-2.95,3.32 -4.43,6.55 -4.43,9.69c0,1.67 0.46,3.24 1.38,4.71c0.56,0.93 1.3,2.68 2.22,5.27c1.11,2.58 2.03,4.24 2.77,4.98c2.22,2.22 4.85,3.74 7.9,4.57c3.05,0.83 6.09,1.34 9.14,1.53c3.05,0.18 5.12,0.36 6.23,0.55c7.02,0.74 14.13,-2.68 21.33,-10.25c4.43,-4.99 8.04,-7.48 10.81,-7.48c2.58,0 3.87,2.12 3.87,6.37l0.56,18.01c0,1.85 -0.19,4.43 -0.56,7.76c-0.37,3.69 -0.55,6.37 -0.55,8.03c0,2.4 0.28,4.71 0.83,6.93c0.55,1.85 0.83,3.88 0.83,6.09c0,2.03 -0.09,3.74 -0.27,5.13c-0.19,1.38 -0.37,2.63 -0.56,3.74c-0.19,0.73 -0.37,1.66 -0.55,2.77c-0.19,1.11 -0.28,2.49 -0.28,4.15c-0.19,2.4 -0.65,4.57 -1.38,6.51c-0.74,1.94 -1.76,2.73 -3.05,2.36c-1.48,-0.56 -3.14,-2.22 -4.99,-4.99c-1.85,-2.77 -3.14,-4.53 -3.88,-5.26c-2.21,-2.59 -4.2,-4.39 -5.95,-5.41c-1.75,-1.01 -4.11,-1.24 -7.07,-0.69c-1.11,0.19 -2.68,0.28 -4.71,0.28c-2.58,0 -6.27,-0.37 -11.08,-1.11l-6.92,-0.83c-4.43,0 -7.71,0.55 -9.84,1.66c-2.12,1.11 -3.5,2.82 -4.15,5.13c-0.65,2.31 -0.97,5.77 -0.97,10.38c0,4.43 0.83,7.81 2.49,10.12c1.66,2.31 4.52,3.83 8.59,4.57c1.29,0.18 3.32,0.27 6.09,0.27c2.59,0 4.53,0.19 5.82,0.56c2.77,0.55 5.45,0.83 8.03,0.83c2.77,0 6.93,-0.37 12.47,-1.11c1.29,-0.19 2.91,-0.37 4.85,-0.55c1.94,-0.19 4.29,-0.28 7.06,-0.28c4.81,0 9.47,-0.74 13.99,-2.22c4.53,-1.47 9.56,-3.6 15.1,-6.37c2.03,-1.11 4.02,-2.68 5.96,-4.71c1.94,-2.03 3.46,-3.5 4.57,-4.43c3.87,-3.14 7.2,-4.71 9.97,-4.71c1.48,0 2.5,0.65 3.05,1.94zM476.92222,140.45c1.29,1.11 1.94,2.49 1.94,4.15c0,1.67 -0.74,3.24 -2.22,4.71c-1.11,1.11 -2.31,2.08 -3.6,2.91c-1.29,0.83 -2.86,2.36 -4.71,4.57c-0.55,0.55 -1.24,1.29 -2.07,2.22c-0.83,0.92 -1.53,1.84 -2.08,2.77c-4.8,8.31 -8.96,14.78 -12.47,19.39c-0.92,1.11 -2.12,2.77 -3.6,4.99c-2.21,3.51 -4.34,6.32 -6.37,8.45c-2.03,2.12 -4.8,4.01 -8.31,5.68c-9.61,4.43 -22.63,6.64 -39.06,6.64c-5.73,0 -12.65,-0.37 -20.78,-1.1c-3.69,-0.37 -6.46,-0.56 -8.31,-0.56c-5.35,-0.37 -9.69,-0.78 -13.02,-1.24c-3.33,-0.47 -6.37,-1.35 -9.14,-2.64c-4.07,-1.66 -9.15,-3.14 -15.24,-4.43c-0.92,-0.19 -3.27,-0.74 -7.06,-1.66c-3.79,-0.93 -7.16,-2.13 -10.11,-3.6c-1.85,-0.93 -4.9,-2.87 -9.15,-5.82c-2.58,-2.03 -4.84,-3.51 -6.78,-4.43c-1.94,-0.93 -3.93,-1.39 -5.96,-1.39c-1.48,0 -3.05,0.28 -4.71,0.83c-0.55,0.19 -1.48,0.28 -2.77,0.28c-3.51,0 -5.72,-0.74 -6.65,-2.22c-0.37,-0.73 -0.55,-1.29 -0.55,-1.66c0,-0.74 0.28,-1.71 0.83,-2.91c0.55,-1.2 0.92,-2.08 1.11,-2.63c1.29,-3.88 2.82,-7.11 4.57,-9.69c1.75,-2.59 4.2,-5.54 7.34,-8.87c0.93,-1.11 1.85,-2.21 2.77,-3.32c0.93,-1.11 1.85,-2.22 2.77,-3.33c3.69,-5.35 7.85,-9.05 12.47,-11.08c2.58,-1.29 5.35,-1.94 8.31,-1.94c5.54,0 11.54,1.94 18,5.82c2.41,1.66 6.19,3.6 11.36,5.82c5.36,2.03 9.7,4.25 13.02,6.65c5.17,3.87 13.39,5.81 24.66,5.81c7.2,0 13.85,-0.28 19.94,-0.83c7.21,0 10.81,-4.43 10.81,-13.29c0,-1.85 -0.09,-3.23 -0.28,-4.16c-0.37,-3.14 -2.44,-5.91 -6.23,-8.31c-3.79,-2.4 -8.08,-3.51 -12.88,-3.32c-4.62,0.18 -11.55,-0.65 -20.78,-2.5c-2.59,-0.55 -6.28,-1.2 -11.08,-1.94c-21.61,-3.14 -39.98,-10.62 -55.13,-22.44c-3.33,-2.95 -5.77,-5.58 -7.34,-7.89c-1.57,-2.31 -3.47,-5.68 -5.68,-10.11c-1.48,-3.33 -3.14,-5.91 -4.99,-7.76c-1.47,-1.48 -2.95,-2.77 -4.43,-3.88c-1.48,-1.11 -3.14,-3.05 -4.99,-5.82c-1.29,-2.03 -1.94,-3.69 -1.94,-4.98c0,-1.48 0.56,-2.87 1.67,-4.16c0.74,-1.11 1.99,-2.63 3.74,-4.57c1.75,-1.94 3,-3.74 3.74,-5.4c0.73,-1.29 2.03,-3.05 3.88,-5.26c0.37,-0.55 1.06,-1.57 2.07,-3.05c1.02,-1.48 1.99,-3.23 2.91,-5.26c0.55,-1.11 1.48,-2.59 2.77,-4.44c1.29,-1.85 2.22,-3.32 2.77,-4.43c3.14,-4.99 8.08,-9.28 14.82,-12.88c6.74,-3.6 14.08,-6.23 22.03,-7.9c5.72,-1.29 9.97,-2.12 12.74,-2.49c2.77,-0.37 6,-0.37 9.7,0c0.92,0.19 2.49,0.28 4.7,0.28l10.53,-0.28c5.17,-0.37 9.05,-0.55 11.64,-0.55c5.35,0 9.51,0.46 12.46,1.38l8.04,2.5c5.35,1.29 9.83,2.72 13.43,4.29c3.6,1.57 6.88,3.64 9.84,6.23c2.21,2.22 4.8,3.98 7.75,5.27c0.74,0.37 1.85,0.55 3.33,0.55c1.47,0 3.13,-0.32 4.98,-0.97c1.85,-0.65 3.33,-1.06 4.44,-1.25c0.73,-0.18 1.84,-0.27 3.32,-0.27c4.62,0 7.48,1.57 8.59,4.71l0.28,1.38c0,2.03 -1.11,4.53 -3.33,7.48l-6.09,8.03c-4.99,6.28 -8.4,11.36 -10.25,15.24c-1.29,2.59 -2.86,4.94 -4.71,7.06c-1.85,2.13 -3.79,3.19 -5.82,3.19c-1.11,0 -1.94,-0.18 -2.49,-0.55c-2.96,-1.48 -6.33,-2.82 -10.11,-4.02c-3.79,-1.2 -6.24,-1.98 -7.35,-2.35c-7.94,-2.41 -14.4,-4.81 -19.39,-7.21c-4.43,-2.21 -9.88,-3.32 -16.34,-3.32c-0.74,0 -5.82,0.28 -15.24,0.83c-5.17,0.19 -9.56,1.11 -13.16,2.77c-3.6,1.66 -5.4,4.43 -5.4,8.31c0,3.14 1.43,5.96 4.29,8.45c2.87,2.49 6.15,4.2 9.84,5.12c5.17,1.29 11.82,1.94 19.94,1.94c1.29,0 3.46,0.09 6.51,0.28c3.05,0.19 5.78,0.46 8.18,0.83c6.65,1.11 14.59,3.6 23.82,7.48c1.11,0.55 3.97,1.75 8.59,3.6c5.17,1.48 9.24,3.05 12.19,4.71c2.95,1.67 6.55,4.35 10.8,8.04c3.14,2.4 5.54,4.8 7.2,7.2c1.67,2.4 3.61,5.72 5.82,9.97c0.74,1.48 2.22,3.6 4.43,6.37c1.48,1.48 2.96,3.33 4.44,5.54c0.92,1.85 2.17,3.93 3.74,6.24c1.57,2.31 3,4.11 4.29,5.4zM239.51222,310.82c1.29,2.77 1.94,6 1.94,9.69l-0.28,6.65c-0.37,3.33 -0.55,5.64 -0.55,6.93c0,2.95 -0.37,5.17 -1.11,6.65c-0.92,2.03 -2.4,3.04 -4.43,3.04c-1.66,0 -3.32,-0.83 -4.99,-2.49c-1.85,-1.85 -4.99,-3.88 -9.42,-6.09c-3.51,-1.67 -5.91,-3.05 -7.2,-4.16c-1.48,-0.92 -3.51,-1.47 -6.09,-1.66c-2.59,-0.19 -4.43,-0.37 -5.54,-0.55c-4.62,-0.37 -8.87,-0.19 -12.75,0.55c-3.69,0.74 -7.11,2.96 -10.25,6.65c-0.74,0.92 -1.11,2.12 -1.11,3.6l0.28,4.15c0,1.67 -0.09,3.28 -0.28,4.85c-0.18,1.57 -0.27,3.1 -0.27,4.57c0,3.14 0.37,5.5 1.11,7.07c0.73,1.57 1.93,3.37 3.6,5.4c1.11,1.11 2.4,2.86 3.87,5.26c1.11,2.03 2.64,3.97 4.58,5.82c1.93,1.85 3.09,2.95 3.46,3.32c1.47,1.48 2.21,3.05 2.21,4.71c0,1.48 -0.64,3.05 -1.93,4.71c-1.29,1.48 -3.33,3.42 -6.1,5.82c-2.21,1.85 -4.06,3.6 -5.54,5.26c-1.11,1.29 -2.08,2.59 -2.91,3.88c-0.83,1.29 -1.43,2.59 -1.8,3.88c-0.55,2.22 -0.88,4.53 -0.97,6.93c-0.09,2.4 -0.14,4.15 -0.14,5.26l-0.83,10.53c-0.37,5.54 -0.46,9.05 -0.27,10.52c0.18,1.48 0.36,3.74 0.55,6.79c0.19,3.05 0.6,5.63 1.25,7.76c0.65,2.12 1.89,3.83 3.74,5.12c4.25,3.14 7.29,5.73 9.14,7.76c1.85,2.03 2.77,3.88 2.77,5.54c0,1.29 -0.55,2.49 -1.66,3.6c-1.85,1.85 -4.99,2.77 -9.42,2.77c-2.96,0 -5.5,-0.09 -7.62,-0.28c-2.13,-0.18 -3.93,-0.36 -5.4,-0.55c-4.07,-0.55 -8.22,-0.83 -12.47,-0.83c-2.95,0 -6,0.28 -9.14,0.83c-3.51,0.55 -7.02,0.83 -10.53,0.83c-2.95,0 -5.17,-0.09 -6.65,-0.28c-1.11,0 -2.49,-0.04 -4.15,-0.13c-1.67,-0.09 -3.51,-0.05 -5.54,0.13c-4.25,0 -7.02,-0.64 -8.31,-1.93c-1.11,-1.11 -1.67,-2.41 -1.67,-3.88c0,-2.59 1.11,-4.8 3.33,-6.65c1.11,-0.74 2.95,-2.68 5.54,-5.82c2.21,-2.77 3.6,-4.34 4.15,-4.71c0.93,-0.92 1.53,-2.12 1.81,-3.6c0.27,-1.48 0.46,-3 0.55,-4.57c0.09,-1.57 0.14,-2.82 0.14,-3.74c0,-1.29 0.09,-2.77 0.27,-4.43c0.19,-1.67 0.37,-2.96 0.56,-3.88c0.74,-4.43 1.02,-7.76 0.83,-9.97c-0.19,-2.22 -0.23,-4.16 -0.14,-5.82c0.09,-1.66 0.14,-3.14 0.14,-4.43c0,-2.77 -0.28,-5.82 -0.83,-9.15c-0.37,-1.66 -1.2,-3.18 -2.49,-4.57c-1.29,-1.38 -2.22,-2.35 -2.77,-2.91c-1.48,-1.66 -3.33,-3.41 -5.55,-5.26c-2.77,-2.4 -4.8,-4.34 -6.09,-5.82c-1.29,-1.29 -1.94,-2.58 -1.94,-3.87c0,-1.11 0.55,-2.5 1.66,-4.16c0.93,-1.29 2.22,-2.91 3.88,-4.85c1.66,-1.94 2.86,-3.65 3.6,-5.12c0.37,-0.74 1.67,-2.4 3.88,-4.99c2.59,-2.59 4.06,-4.71 4.43,-6.37c0.55,-3.33 0.83,-6.79 0.83,-10.39c0,-3.6 0,-5.95 0,-7.06c0,-3.33 -0.88,-6.33 -2.63,-9.01c-1.75,-2.67 -3.74,-4.2 -5.95,-4.57c-3.33,-0.55 -6.1,-0.83 -8.31,-0.83l-12.19,0.28c-1.29,0 -3.6,0.55 -6.93,1.66c-1.29,0.55 -3.23,1.2 -5.82,1.94c-1.85,0.37 -3.46,1.11 -4.84,2.22c-1.39,1.11 -2.68,2.31 -3.88,3.6c-1.2,1.29 -2.08,2.31 -2.63,3.04c-2.03,2.03 -3.88,3.05 -5.54,3.05c-2.03,0 -3.33,-1.2 -3.88,-3.6c-0.74,-2.95 -1.11,-5.17 -1.11,-6.65c0,-9.79 0.74,-17.54 2.22,-23.27c0.37,-1.29 0.64,-2.86 0.83,-4.71c0.18,-1.85 0.27,-3.14 0.27,-3.88c0.37,-5.54 1.48,-9.79 3.33,-12.74c2.77,-3.88 6.27,-6.19 10.52,-6.93c4.25,-0.73 11.73,-1.1 22.44,-1.1c3.69,0 7.85,0.46 12.47,1.38c7.39,0.93 11.91,1.39 13.57,1.39c2.77,0 5.36,-0.28 7.76,-0.83c5.54,-1.29 12.74,-1.94 21.61,-1.94l15.23,0.27c3.51,0 8.78,-0.18 15.8,-0.55l8.58,-0.28c10.53,0 18.38,0.28 23.55,0.83c2.95,0.37 5.22,0.97 6.79,1.8c1.57,0.83 3.18,2.36 4.85,4.58c1.29,1.66 2.21,3.37 2.77,5.12c0.55,1.75 1.11,4.29 1.66,7.62c0.37,4.06 1.2,7.48 2.49,10.25zM468.61222,370.93c0,2.22 0.37,5.36 1.11,9.42c0.19,0.93 0.37,2.04 0.55,3.33c0.19,1.29 0.28,2.86 0.28,4.71c0,8.31 -0.6,15.92 -1.8,22.85c-1.2,6.93 -1.89,10.94 -2.08,12.05c-0.55,3.14 -1.71,6.28 -3.46,9.42c-1.75,3.14 -4.39,7.3 -7.9,12.47c-3.69,5.54 -6.19,9.32 -7.48,11.35c-4.43,7.76 -11.54,13.49 -21.33,17.18c-5.73,2.21 -10.9,3.92 -15.51,5.12c-4.62,1.2 -11.08,2.08 -19.39,2.64c-2.4,0.18 -6.46,0.27 -12.19,0.27h-15.79c-2.03,0 -5.45,-0.18 -10.25,-0.55c-7.39,-0.74 -13.67,-1.11 -18.84,-1.11c-4.43,0 -9.14,0.28 -14.13,0.83c-4.8,0.55 -9.88,0.83 -15.23,0.83l-19.4,-0.27c-4.61,0 -8.12,0.09 -10.52,0.27c-6.65,0 -10.16,-0.74 -10.53,-2.21c-0.19,-0.55 -0.28,-1.39 -0.28,-2.5c0,-3.87 2.59,-7.84 7.76,-11.91c3.51,-3.14 5.91,-6.33 7.2,-9.56c1.29,-3.23 1.94,-6.97 1.94,-11.22c0,-3.32 -0.09,-5.9 -0.28,-7.75l-0.27,-10.25l0.27,-10.53c0,-1.85 -0.18,-4.43 -0.55,-7.76c-0.19,-1.85 -1.85,-4.71 -4.99,-8.58c-1.47,-1.67 -3.32,-3.42 -5.54,-5.27c-2.77,-2.4 -4.8,-4.34 -6.09,-5.81c-1.29,-1.29 -1.94,-2.86 -1.94,-4.71c0,-1.67 0.55,-3.15 1.66,-4.44c0.74,-1.11 2.17,-2.68 4.3,-4.71c2.12,-2.03 3.55,-3.87 4.29,-5.54l3.05,-4.71c1.66,-2.21 2.95,-4.34 3.88,-6.37c0.92,-1.85 1.47,-3.88 1.66,-6.09c0.18,-2.22 0.27,-4.44 0.27,-6.65v-16.9v-8.31c0,-4.62 -0.83,-8.87 -2.49,-12.74c-1.29,-2.59 -3.79,-5.54 -7.48,-8.87c-2.4,-2.21 -4.15,-4.06 -5.26,-5.54c-1.11,-1.47 -1.66,-3.13 -1.66,-4.98c0,-0.56 0.18,-1.39 0.55,-2.5c0.55,-1.29 2.4,-2.12 5.54,-2.49c3.14,-0.37 7.48,-0.56 13.02,-0.56h6.1c2.95,0 7.57,-0.37 13.85,-1.1c5.91,-0.74 10.34,-1.11 13.29,-1.11c1.67,0 3.98,0.18 6.93,0.55c9.42,1.29 17.27,1.94 23.55,1.94c5.91,0 12.37,-0.46 19.39,-1.38c3.88,-0.55 7.85,-0.83 11.91,-0.83c8.31,0 16.07,1.11 23.27,3.32c5.35,1.66 11.08,4.01 17.18,7.06c6.09,3.05 11.36,6.24 15.79,9.56c9.05,6.83 16.25,14.22 21.6,22.16c5.36,7.95 9.15,17.18 11.36,27.71c0.74,3.69 1.11,7.85 1.11,12.46c0,4.62 0,7.39 0,8.31zM414.31222,410.55c3.88,-6.09 5.82,-12.74 5.82,-19.95c0,-2.95 -0.28,-6.18 -0.83,-9.69c-0.55,-3.51 -0.92,-5.92 -1.11,-7.21c-0.74,-3.32 -1.2,-5.9 -1.38,-7.75c-1.48,-8.87 -4.9,-16.72 -10.25,-23.55c-6.65,-8.13 -13.12,-13.11 -19.4,-14.96c-2.4,-0.74 -5.35,-1.11 -8.86,-1.11c-3.69,0 -7.85,0.46 -12.47,1.39c-2.4,0.37 -8.03,1.1 -16.89,2.21l-7.76,0.83c-2.22,0 -3.65,0.51 -4.3,1.53c-0.64,1.01 -1.15,2.91 -1.52,5.68l-0.55,21.33c0,1.47 -0.09,5.67 -0.28,12.6c-0.19,6.93 -0.74,13.44 -1.66,19.53c-0.37,3.33 -0.56,5.73 -0.56,7.21c0,2.95 0.09,5.49 0.28,7.61c0.19,2.13 0.37,3.84 0.56,5.13c0.55,4.06 0.83,8.31 0.83,12.74c0,4.43 0.83,7.48 2.49,9.14c1.66,1.67 4.52,2.5 8.59,2.5c6.28,0 11.4,-0.19 15.37,-0.56c3.97,-0.37 8.73,-1.1 14.27,-2.21c1.66,-0.37 4.15,-0.56 7.48,-0.56c0.74,0 2.49,0 5.26,0c2.77,0 5.22,-0.28 7.34,-0.83c2.13,-0.55 3.93,-1.38 5.4,-2.49c1.67,-1.29 4.07,-4.06 7.21,-8.31c3.14,-4.25 5.45,-7.66 6.92,-10.25z" stroke-linecap="round"/>
</g>
</g>
</g>
<g transform="matrix(1 0 0 1 -49422.599582 4807.145731)" id="6c0f22bf-6889-4bc1-be8d-d4a851b5853a">

</g>
<g transform="matrix(1 0 0 1 -49422.599582 4807.145731)" id="9381818e-bc59-4b06-ad23-4c3d3042eade">

</g>

  </svg>