<svg xmlns="http://www.w3.org/2000/svg" xmlns:xlink="http://www.w3.org/1999/xlink" width="95px" height="60px" viewBox="0 0 57.63442599999689 36.52000000000044">
    <g transform="matrix(1 0 0 1 -59113.692259 6178.196022)" id="3f95df95-55d7-4175-af05-56a2d9adeac4">

</g>
<g id="fb95f73c-2681-4286-88b4-1139495e7893">
<g style="">
		<g id="cc7f2b78-eef4-47e8-aace-dfe002332526">
<path style="stroke: rgb(193,193,193); stroke-width: 0; stroke-dasharray: none; stroke-linecap: butt; stroke-dashoffset: 0; stroke-linejoin: miter; stroke-miterlimit: 4; fill: rgb(252,248,227); fill-rule: nonzero; opacity: 1;" d="M18.94221,36.52c-1.75,0 -3.15,-0.35 -4.18,-1.05c-1.03,-0.69 -1.77,-1.75 -2.22,-3.17c-0.45,-1.41 -0.67,-3.2 -0.67,-5.36v-26.5h4.2v26.39c0,1.29 0.05,2.39 0.14,3.31c0.09,0.91 0.34,1.61 0.75,2.1c0.41,0.49 1.07,0.73 1.98,0.73c0.93,0 1.6,-0.24 1.99,-0.73c0.39,-0.49 0.63,-1.18 0.72,-2.09c0.09,-0.91 0.13,-2.01 0.13,-3.3v-26.41h4.17v26.5c0,2.16 -0.22,3.95 -0.65,5.36c-0.43,1.42 -1.15,2.48 -2.17,3.17c-1.02,0.7 -2.42,1.05 -4.19,1.05zM38.89221,36.5c-1.45,0 -2.62,-0.26 -3.52,-0.78c-0.91,-0.52 -1.6,-1.26 -2.09,-2.22c-0.49,-0.96 -0.82,-2.09 -1,-3.39c-0.18,-1.31 -0.27,-2.75 -0.27,-4.33v-3.46h4.07v3.62c0,2.5 0.18,4.29 0.53,5.36c0.36,1.07 1.13,1.61 2.32,1.61c0.83,0 1.43,-0.19 1.82,-0.58c0.38,-0.38 0.62,-1 0.73,-1.85c0.11,-0.85 0.17,-1.97 0.17,-3.36c0,-1.59 -0.28,-2.96 -0.84,-4.11c-0.56,-1.15 -1.37,-2.26 -2.42,-3.31l-2.33,-2.32c-0.68,-0.69 -1.34,-1.45 -1.99,-2.26c-0.65,-0.82 -1.18,-1.75 -1.61,-2.79c-0.43,-1.04 -0.64,-2.23 -0.64,-3.56c0,-1.8 0.19,-3.35 0.57,-4.66c0.38,-1.31 1.07,-2.33 2.07,-3.04c1,-0.71 2.42,-1.07 4.25,-1.07c1.45,0 2.6,0.25 3.47,0.75c0.87,0.5 1.53,1.21 1.97,2.13c0.44,0.93 0.73,2.03 0.87,3.3c0.14,1.27 0.21,2.67 0.21,4.21v2.1h-4.01v-2.39c0,-1.44 -0.06,-2.64 -0.17,-3.61c-0.11,-0.97 -0.35,-1.69 -0.7,-2.18c-0.35,-0.49 -0.9,-0.73 -1.64,-0.73c-0.67,0 -1.22,0.17 -1.65,0.5c-0.43,0.33 -0.73,0.84 -0.92,1.53c-0.19,0.69 -0.29,1.57 -0.29,2.65c0,0.95 0.12,1.73 0.35,2.34c0.23,0.61 0.57,1.18 1.04,1.71c0.47,0.53 1.04,1.15 1.71,1.87l2.43,2.57c1.29,1.33 2.34,2.83 3.15,4.48c0.82,1.65 1.23,3.58 1.23,5.77c0,1.97 -0.19,3.66 -0.58,5.08c-0.39,1.42 -1.07,2.51 -2.06,3.27c-0.98,0.77 -2.39,1.15 -4.23,1.15z" stroke-linecap="round"/>
</g>
</g>
</g>
<g transform="matrix(1 0 0 1 -59113.692259 6178.196022)" id="13fe9570-3a2e-4178-bd8d-3151dd211819">

</g>
<g transform="matrix(1 0 0 1 -59113.692259 6178.196022)" id="41f7c40a-3c10-45cf-a347-9fc3164b1cd0">

</g>

  </svg>