<svg xmlns="http://www.w3.org/2000/svg" xmlns:xlink="http://www.w3.org/1999/xlink" width="1315px" height="129px" viewBox="0 0 1315.1569739999977 128.73999999999978">
    <g transform="matrix(1 0 0 1 -64228.147834 5464.282056)" id="80266029-9f45-47c1-9032-0516eb9e7fd1">

</g>
<g id="b59517de-dbf1-4bc5-b56c-089d5ad373c1">
<g style="">
		<g id="05f63c2b-ac5c-4e2d-9474-3c987412157f">
<path style="stroke: rgb(193,193,193); stroke-width: 0; stroke-dasharray: none; stroke-linecap: butt; stroke-dashoffset: 0; stroke-linejoin: miter; stroke-miterlimit: 4; fill: rgb(241,219,197); fill-rule: nonzero; opacity: 1;" d="M210.69849,28.96h-117.25c-9.01,0 -10.48,1.38 -10.48,10.3c0,8.92 1.47,10.39 10.48,10.39h89.39c22.8,0 35.22,12.42 35.22,35.22v8.56c0,22.9 -12.42,35.31 -35.22,35.31h-132.61v-28.97h125.25c9.01,0 10.39,-1.38 10.39,-10.48v-0.28c0,-9.1 -1.38,-10.48 -10.39,-10.48h-89.39c-22.8,0 -35.31,-12.41 -35.31,-35.22v-8c0,-22.9 12.51,-35.31 35.31,-35.31h124.61zM455.67849,0c22.81,0 35.22,12.41 35.22,35.31v8.27c0,22.81 -12.41,35.23 -35.22,35.23h-112.74v49.93h-32.19v-128.74zM448.22849,49.93c9.11,0 10.49,-1.47 10.49,-10.48c0,-9.11 -1.38,-10.49 -10.49,-10.49h-105.29v20.97zM659.83849,29.15l-73.48,99.59h-34.12v-4.23l91.13,-124.51h33.57l91.22,124.51v4.23h-34.39zM1012.95849,28.96h-128.28c-9.11,0 -10.49,1.38 -10.49,10.49v49.84c0,9.1 1.38,10.48 10.49,10.48h128.28v28.97h-135.64c-22.9,0 -35.31,-12.41 -35.31,-35.31v-58.12c0,-22.9 12.41,-35.31 35.31,-35.31h135.64zM1164.78849,49.93v28.88h-59.04v-28.88zM1104.55849,99.77h160.37v28.97h-160.37zM1104.55849,0h157.98v28.96h-157.98z" stroke-linecap="round"/>
</g>
</g>
</g>
<g transform="matrix(1 0 0 1 -64228.147834 5464.282056)" id="60c21963-d907-4f9a-b43b-d255837709aa">

</g>
<g transform="matrix(1 0 0 1 -64228.147834 5464.282056)" id="4f85702b-f799-4b67-825d-6938e4851643">

</g>

  </svg>