<svg xmlns="http://www.w3.org/2000/svg" xmlns:xlink="http://www.w3.org/1999/xlink" width="964px" height="95px" viewBox="0 0 963.5884090000036 95.17999999999938">
    <g transform="matrix(1 0 0 1 -60564.266944 6679.859672)" id="aee049b7-65c7-4c59-b4bc-3196524b500a">

</g>
<g id="8c291452-b46e-499e-b9a6-31f6be4c533e">
<g style="">
		<g id="bb07bad2-979f-44b7-9f5c-b58ac646caab">
<path style="stroke: rgb(193,193,193); stroke-width: 0; stroke-dasharray: none; stroke-linecap: butt; stroke-dashoffset: 0; stroke-linejoin: miter; stroke-miterlimit: 4; fill: rgb(4,3,31); fill-rule: nonzero; opacity: 1;" d="M17.3042,30.19h-2.32v-2.32h-2.32v-27.87h11.61v23.23h4.64v-23.23h11.6v27.87h-2.32v2.32h-2.32v2.32h-18.57zM47.6542,0h16.26v9.3h2.31v9.28h2.32v-18.58h11.62v32.51h-16.25v-9.28h-2.32v-9.29h-2.32v18.57h-11.62zM87.2842,0h23.21v2.34h2.32v2.32h2.32v23.21h-2.32v2.32h-2.32v2.32h-23.21zM103.5442,23.23v-13.93h-4.64v13.93zM122.2842,0h23.21v9.3h-11.6v2.32h9.28v9.27h-9.28v2.34h11.6v9.28h-23.21zM152.6342,0h25.53v2.34h2.32v9.28h-2.32v2.32h-6.95v2.32h6.95v2.32h2.32v13.93h-11.59v-11.62h-2.32v-2.31h-2.32v13.93h-11.62zM168.8942,13.94v-4.64h-4.64v4.64zM204.0542,25.55h4.63v-13.93h2.32v-2.32h-2.32v2.32h-4.63v-6.96h4.63v-2.32h4.66v-2.34h4.64v25.55h4.64v6.96h-18.57zM232.0842,23.23h2.32v-6.97h2.34v-4.64h2.32v-2.32h2.32v-2.32h-13.93v-6.98h23.21v9.3h-2.32v2.32h-2.32v4.64h-2.32v6.97h-2.32v9.28h-9.3zM274.22421,0h25.53v2.34h2.32v9.28h-2.32v2.32h-6.96v2.32h6.96v2.32h2.32v13.93h-11.59v-11.62h-2.32v-2.31h-2.32v13.93h-11.62zM290.4842,13.94v-4.64h-4.64v4.64zM309.22421,0h23.21v9.3h-11.6v2.32h9.28v9.27h-9.28v2.34h11.6v9.28h-23.21zM350.04421,39.47h-2.32v-6.96h-4.66v-2.32h-2.32v-2.32h-2.32v-23.21h2.32v-2.32h2.32v-2.34h18.57v2.34h2.32v2.32h2.32v23.21h-2.32v2.32h-6.96v2.32h9.28v9.28h-16.23zM354.68421,23.23v-13.93h-4.64v13.93zM378.05421,30.19h-2.32v-2.32h-2.31v-27.87h11.61v23.23h4.64v-23.23h11.59v27.87h-2.32v2.32h-2.31v2.32h-18.58zM408.41421,0h11.61v32.51h-11.61zM427.1542,0h25.53v2.34h2.32v9.28h-2.32v2.32h-6.96v2.32h6.96v2.32h2.32v13.93h-11.6v-11.62h-2.32v-2.31h-2.32v13.93h-11.61zM443.4042,13.94v-4.64h-4.64v4.64zM462.1442,0h23.21v9.3h-11.59v2.32h9.27v9.27h-9.27v2.34h11.59v9.28h-23.21zM492.5042,20.89h2.32v2.34h9.29v-2.34h-4.66v-2.31h-4.63v-2.32h-2.32v-11.6h2.32v-2.32h2.32v-2.34h18.57v11.62h-2.32v-2.32h-9.28v2.32h4.64v2.32h4.64v2.32h2.32v11.61h-2.32v2.32h-2.32v2.32h-18.57zM539.2742,16.26h2.32v-9.28h2.32v-6.98h18.57v6.98h2.32v9.28h2.32v16.25h-11.59v-6.96h-4.64v6.96h-11.62zM555.5342,16.26v-4.64h-4.64v4.64zM577.7642,30.19h-2.32v-2.32h-2.32v-23.21h2.32v-2.32h2.32v-2.34h20.89v11.62h-2.32v-2.32h-11.6v13.93h11.6v-2.34h2.32v11.62h-20.89zM610.4342,30.19h-2.32v-2.32h-2.32v-23.21h2.32v-2.32h2.32v-2.34h20.89v11.62h-2.32v-2.32h-11.59v13.93h11.59v-2.34h2.32v11.62h-20.89zM643.11421,30.19h-2.32v-2.32h-2.32v-23.21h2.32v-2.32h2.32v-2.34h18.57v2.34h2.32v2.32h2.32v23.21h-2.32v2.32h-2.32v2.32h-18.57zM654.72421,23.23v-13.93h-4.64v13.93zM673.46421,0h18.57v9.3h2.32v9.28h2.32v-9.28h2.32v-9.3h18.57v32.51h-11.59v-18.57h-2.32v9.29h-2.34v9.28h-11.6v-9.28h-2.31v-9.29h-2.32v18.57h-11.62zM724.71421,0h23.21v2.34h2.32v2.32h2.32v13.92h-2.32v2.31h-2.32v2.34h-11.6v9.28h-11.61zM740.96421,13.94v-4.64h-4.64v4.64zM757.38421,16.26h2.32v-9.28h2.32v-6.98h18.57v6.98h2.32v9.28h2.32v16.25h-11.59v-6.96h-4.64v6.96h-11.62zM773.64421,16.26v-4.64h-4.64v4.64zM792.38421,0h16.25v9.3h2.32v9.28h2.32v-18.58h11.61v32.51h-16.25v-9.28h-2.32v-9.29h-2.32v18.57h-11.61zM837.82421,20.89h-2.32v-6.95h-2.32v-6.96h-2.32v-6.98h11.61v13.94h4.64v-13.94h11.6v6.98h-2.32v6.96h-2.32v6.95h-2.32v11.62h-13.93zM864.70421,0h11.62v32.51h-11.62zM883.44421,0h16.26v9.3h2.32v9.28h2.31v-18.58h11.62v32.51h-16.25v-9.28h-2.32v-9.29h-2.32v18.57h-11.62zM927.71421,30.19h-2.32v-2.32h-2.32v-23.21h2.32v-2.32h2.32v-2.34h23.21v11.62h-2.32v-2.32h-13.91v13.93h4.64v9.28h-11.62zM939.33421,13.94h11.59v18.57h-9.27v-9.28h-2.32zM109.5342,62.68h23.21v2.34h2.32v2.32h2.32v13.91h-2.32v2.32h-2.32v2.34h-11.59v9.27h-11.62zM125.7942,76.61v-4.64h-4.64v4.64zM142.2142,78.93h2.32v-9.27h2.32v-6.98h18.57v6.98h2.32v9.27h2.32v16.25h-11.6v-6.95h-4.64v6.95h-11.61zM158.4642,78.93v-4.64h-4.64v4.64zM177.2042,62.68h25.53v2.34h2.32v9.27h-2.32v2.32h-6.96v2.32h6.96v2.32h2.32v13.93h-11.6v-11.61h-2.31v-2.32h-2.32v13.93h-11.62zM193.4542,76.61v-4.64h-4.63v4.64zM212.1942,62.68h23.22v9.29h-11.6v2.32h9.28v9.28h-9.28v2.34h11.6v9.27h-23.22zM242.5542,62.68h16.25v9.29h2.32v9.28h2.32v-18.57h11.62v32.5h-16.26v-9.27h-2.32v-9.3h-2.31v18.57h-11.62zM287.9942,71.97h-6.96v-9.29h25.53v9.29h-6.95v23.21h-11.62zM334.7742,92.87h-2.32v-2.32h-2.32v-23.21h2.32v-2.32h2.32v-2.34h18.57v2.34h2.32v2.32h2.32v23.21h-2.32v2.32h-2.32v2.31h-18.57zM346.3842,85.91v-13.94h-4.64v13.94zM365.1242,62.68h25.53v2.34h2.32v9.27h-2.32v2.32h-6.96v2.32h6.96v2.32h2.32v13.93h-11.59v-11.61h-2.32v-2.32h-2.32v13.93h-11.62zM381.3842,76.61v-4.64h-4.64v4.64zM416.54421,78.93h2.31v-9.27h2.32v-6.98h18.58v6.98h2.32v9.27h2.31v16.25h-11.59v-6.95h-4.64v6.95h-11.61zM432.79421,78.93v-4.64h-4.64v4.64zM451.5342,62.68h23.21v2.34h2.32v2.32h2.32v23.21h-2.32v2.32h-2.32v2.31h-23.21zM467.7842,85.91v-13.94h-4.64v13.94zM491.16421,92.87h-2.32v-2.32h-2.32v-27.87h11.62v23.23h4.64v-23.23h11.59v27.87h-2.32v2.32h-2.32v2.31h-18.57zM521.5242,62.68h11.61v23.23h11.6v9.27h-23.21zM551.8742,71.97h-6.96v-9.29h25.53v9.29h-6.95v23.21h-11.62zM598.6542,92.87h-2.32v-2.32h-2.32v-23.21h2.32v-2.32h2.32v-2.34h23.21v11.61h-2.32v-2.32h-13.91v13.94h4.63v9.27h-11.61zM610.2642,76.61h11.6v18.57h-9.28v-9.27h-2.32zM633.6442,92.87h-2.32v-2.32h-2.32v-27.87h11.62v23.23h4.64v-23.23h11.59v27.87h-2.32v2.32h-2.32v2.31h-18.57zM662.85421,78.93h2.32v-9.27h2.32v-6.98h18.57v6.98h2.32v9.27h2.32v16.25h-11.6v-6.95h-4.64v6.95h-11.61zM679.10421,78.93v-4.64h-4.64v4.64zM697.84421,62.68h25.53v2.34h2.32v9.27h-2.32v2.32h-6.96v2.32h6.96v2.32h2.32v13.93h-11.59v-11.61h-2.32v-2.32h-2.32v13.93h-11.62zM714.10421,76.61v-4.64h-4.64v4.64zM732.84421,62.68h23.21v2.34h2.31v2.32h2.32v23.21h-2.32v2.32h-2.31v2.31h-23.21zM749.09421,85.91v-13.94h-4.64v13.94zM767.83421,62.68h11.61v32.5h-11.61zM786.57421,78.93h2.32v-9.27h2.32v-6.98h18.57v6.98h2.32v9.27h2.32v16.25h-11.6v-6.95h-4.64v6.95h-11.61zM802.82421,78.93v-4.64h-4.64v4.64zM821.5642,62.68h16.26v9.29h2.31v9.28h2.32v-18.57h11.62v32.5h-16.25v-9.27h-2.32v-9.3h-2.32v18.57h-11.62z" stroke-linecap="round"/>
</g>
</g>
</g>
<g transform="matrix(1 0 0 1 -60564.266944 6679.859672)" id="3118b783-2b8c-4826-8b57-ad8471dff7ab">

</g>
<g transform="matrix(1 0 0 1 -60564.266944 6679.859672)" id="4d6f5f0a-af90-4d90-a882-4eaaa99edbd3">

</g>

  </svg>