<svg xmlns="http://www.w3.org/2000/svg" xmlns:xlink="http://www.w3.org/1999/xlink" width="4030px" height="749px" viewBox="0 0 4029.6389500000005 748.6199999999999">
    <g transform="matrix(1 0 0 1 -59700.906792 6374.351892)" id="4345f482-467e-44fb-8c24-054b11b069b4">

</g>
<g id="63e02aca-aad9-494c-b83d-f707c602a2a7">
<g style="">
		<g id="d0924aa3-e4a8-414f-9436-40b85d2433fc">
<path style="stroke: rgb(193,193,193); stroke-width: 0; stroke-dasharray: none; stroke-linecap: butt; stroke-dashoffset: 0; stroke-linejoin: miter; stroke-miterlimit: 4; fill: rgb(4,3,31); fill-rule: nonzero; opacity: 1;" d="M293.76948,561.29h187.33v94.02h-94.02v93.31h-93.31zM293.76948,280.65v-186.63h93.31v-94.02h374.66v94.02h-280.64v93.31h93.31v93.32h93.31v94.01h187.33v93.32h93.32v187.33h-93.32v93.31h-373.95v-93.31h280.64v-94.02h-94.02v-93.31h-93.31v-93.32h-187.33v-94.01zM761.73948,187.33v-93.31h93.31v-94.02h93.32v187.33zM1463.34948,94.02h-187.33v280.64h187.33zM995.37948,748.62v-93.31h93.31v-561.29h-93.31v-94.02h561.28v94.02h93.32v280.64h-93.32v93.32h-280.64v187.33h93.31v93.31zM1584.72948,655.31h93.31v-187.33h94.02v187.33h93.31v93.31h-280.64zM1772.05948,467.98v-280.65h93.31v187.33h93.32v-187.33h-93.32v-187.33h187.33v187.33h93.32v280.65h93.31v187.33h94.02v93.31h-374.66v-93.31h94.01v-187.33zM2940.93948,561.29h93.32v94.02h-93.32zM2379.64948,561.29v-373.96h93.32v-93.31h94.01v-94.02h280.65v94.02h-187.33v93.31h-93.32v373.96h93.32v94.02h280.64v93.31h-373.96v-93.31h-94.01v-94.02zM2847.62948,187.33v-93.31h93.31v-94.02h93.32v187.33zM3081.25948,655.31h93.32v-561.29h-93.32v-94.02h654.61v187.33h-93.32v-93.31h-280.64v186.63h280.64v187.33h-93.31v-93.32h-187.33v280.65h280.64v-94.02h93.32v187.33h-654.61z" stroke-linecap="round"/>
</g>
</g>
</g>
<g transform="matrix(1 0 0 1 -59700.906792 6374.351892)" id="7ff2c217-9dd4-42b8-b834-4a382262174e">

</g>
<g transform="matrix(1 0 0 1 -59700.906792 6374.351892)" id="567fe47b-543f-4980-8f59-08a20e613727">

</g>

  </svg>