<svg xmlns="http://www.w3.org/2000/svg" xmlns:xlink="http://www.w3.org/1999/xlink" width="182px" height="210px" viewBox="0 0 182.0014625343756 209.8755603999998">
    <g id="dca4801b-9076-4aa8-8a50-e84f93678446">
<g style="">
		<g id="dca4801b-9076-4aa8-8a50-e84f93678446-child-0">
<path style="stroke: rgb(193,193,193); stroke-width: 0; stroke-dasharray: none; stroke-linecap: butt; stroke-dashoffset: 0; stroke-linejoin: miter; stroke-miterlimit: 4; fill: rgb(255,255,255); fill-rule: nonzero; opacity: 1;" transform="matrix(0.299651 0 0 0.299651 91.000731 104.93778) matrix(1 0 0 1 0 0)  translate(-303.3, -350.2)" d="M 427.80 350.20 C 427.80 287.70 606.50 175.10 606.50 175.10 C 606.50 175.10 419.70 273.60 365.50 242.30 C 311.40 211.00 303.30 0.00 303.30 0.00 C 303.30 0.00 295.20 211.00 241.00 242.30 C 186.80 273.60 0.00 175.10 0.00 175.10 C 0.00 175.10 178.70 287.60 178.70 350.20 C 178.70 412.80 0.00 525.30 0.00 525.30 C 0.00 525.30 186.80 426.80 241.00 458.10 C 295.20 489.40 303.30 700.40 303.30 700.40 C 303.30 700.40 311.40 489.40 365.60 458.10 C 419.80 426.80 606.60 525.30 606.60 525.30 C 606.60 525.30 427.90 412.80 427.90 350.20 Z" stroke-linecap="round"/>
</g>
</g>
</g>

  </svg>