<svg xmlns="http://www.w3.org/2000/svg" xmlns:xlink="http://www.w3.org/1999/xlink" width="3089px" height="1000px" viewBox="0 0 3089.2668440386187 999.8400240386218">
    <g id="667d29d3-de05-4820-9e35-d385e5bde7f5">
<path style="stroke: rgb(36,32,122); stroke-width: 105.1599540386214; stroke-dasharray: none; stroke-linecap: butt; stroke-dashoffset: 0; stroke-linejoin: round; stroke-miterlimit: 4; fill: rgb(36,32,122); fill-rule: nonzero; opacity: 1;" vector-effect="non-scaling-stroke" transform="matrix(1 0 0 1 52.579977 52.579977)  translate(-71611.90817, 6867.36547)" d="M71978.78,-6253.53v117.12v-109.43v-117.12zM71719.78,-6252.74v117.12v-54.96v-117.12zM71719.78,-6307.7v117.12l259,-110.22v-117.12zM71978.78,-6417.92v117.12v-109.67v-117.12zM71719.78,-6417.37v117.12v-54.72v-117.12zM71719.78,-6472.09v117.12l259,-110.22v-117.12zM71978.78,-6582.31v117.12v-109.67v-117.12zM71611.91,-6528.25v117.11v438.45v-117.11zM71611.91,-6089.8v117.11l366.87,-163.72v-117.12zM71978.78,-6253.53v-109.43l-259,110.22v-54.96l259,-110.22v-109.67l-259,110.22v-54.72l259,-110.22v-109.67l-366.87,163.73v438.45zM72130.83,-6305.28v117.12v-109.43v-117.12zM72130.83,-6414.71v117.12c0,-10.16 3.74,-19.97 11.23,-29.41v-117.12c-7.49,9.44 -11.23,19.25 -11.23,29.41zM72142.06,-6444.12v117.12c7.65,-9.46 16.75,-15.75 27.3,-18.85v-117.11c-10.55,3.09 -19.65,9.38 -27.3,18.84zM72169.36,-6462.96v117.11l116.6,-31.02v-117.11zM72285.96,-6493.98v117.11c10.86,-2.59 20.1,-1.18 27.72,4.22v-117.12c-7.62,-5.39 -16.86,-6.81 -27.72,-4.21zM72313.68,-6489.77v117.12c7.63,5.42 11.45,13.22 11.45,23.38v-117.12c0,-10.16 -3.82,-17.95 -11.45,-23.38zM72325.13,-6356.96v117.12l118.31,-23.71v-117.12zM72364.44,-6609.05v117.12c21.71,-4.43 40.26,-12.81 55.65,-25.21v-117.12c-15.39,12.41 -33.94,20.79 -55.65,25.21zM72420.09,-6634.26v117.12c15.56,-12.34 23.35,-25.23 23.35,-38.71v-117.12c0,13.49 -7.79,26.37 -23.35,38.71zM72130.83,-6597.58v117.12v-146.15v-117.12zM72016.56,-6559.61v117.12c0,13.48 7.38,22.36 22.15,26.68v-117.12c-14.77,-4.32 -22.15,-13.19 -22.15,-26.68zM72038.71,-6532.93v117.12c14.81,4.4 32.72,3.11 53.76,-3.81v-117.12c-21.04,6.92 -38.95,8.21 -53.76,3.81zM72016.56,-6267.31v117.12l114.27,-37.97v-117.12zM72130.83,-6305.28v-109.43c0,-10.16 3.74,-19.97 11.23,-29.41c7.65,-9.46 16.75,-15.75 27.3,-18.84l116.6,-31.02c10.86,-2.6 20.1,-1.18 27.72,4.21c7.63,5.43 11.45,13.22 11.45,23.38v109.43l118.31,-23.71v-146.15c0,-20.15 -7.79,-35.92 -23.35,-47.24c-15.39,-11.41 -33.94,-14.93 -55.65,-10.51v-24.48c21.71,-4.42 40.26,-12.8 55.65,-25.21c15.56,-12.34 23.35,-25.22 23.35,-38.71v-146.15l-118.31,23.71v146.15c0,10.16 -3.82,19.6 -11.45,28.33c-7.62,8.93 -16.86,14.67 -27.72,17.27l-116.6,31.02c-10.55,3.09 -19.57,2.19 -27.06,-2.71c-7.65,-4.66 -11.47,-12.07 -11.47,-22.23v-146.15l-114.27,37.97v146.15c0,13.49 7.38,22.36 22.15,26.68c14.81,4.4 32.72,3.11 53.76,-3.81v24.48c-21.04,6.92 -38.95,20.12 -53.76,39.53c-14.77,19.34 -22.15,39.12 -22.15,59.27v146.15zM72602.1,-6586.6v117.12v-146.15v-117.12zM72602.1,-6732.75v117.12l120.08,-11.87v-117.12zM72722.18,-6744.62v117.12c11.13,-0.87 20.59,1.99 28.4,8.59v-117.12c-7.81,-6.59 -17.27,-9.46 -28.4,-8.59zM72750.58,-6736.03v117.12c7.81,6.6 11.71,14.91 11.71,24.9v-117.11c0,-10 -3.9,-18.3 -11.71,-24.91zM72762.29,-6711.12v117.11v73.2v-117.11zM72602.1,-6586.6v-146.15l120.08,-11.87c11.13,-0.87 20.59,2 28.4,8.59c7.81,6.61 11.71,14.91 11.71,24.91v73.2c0,9.99 -3.9,18.84 -11.71,26.55c-7.81,7.73 -17.27,12.03 -28.4,12.9zM72602.1,-6403.97v117.12v-72.95v-117.12zM72602.1,-6476.92v117.12l120.08,-11.87v-117.12zM72722.18,-6488.79v117.12c44.18,-3.27 82,-19.96 113.43,-50.3v-117.11c-31.43,30.33 -69.25,47.03 -113.43,50.29zM72835.61,-6539.08v117.11c31.45,-29.92 47.18,-64.96 47.18,-105.26v-117.12c0,40.31 -15.73,75.34 -47.18,105.27zM72882.79,-6644.35v117.12v-73.2v-117.12zM72482.85,-6825.78v117.12v438.45v-117.12zM72482.85,-6387.33v117.12l119.25,-16.64v-117.12zM72602.1,-6403.97v-72.95l120.08,-11.87c44.18,-3.26 82,-19.96 113.43,-50.29c31.45,-29.93 47.18,-64.96 47.18,-105.27v-73.2c0,-40.31 -15.73,-74.06 -47.18,-101.09c-31.43,-26.96 -69.25,-38.91 -113.43,-35.65l-239.33,28.51v438.45zM73324.89,-6425.26v117.12v-109.43v-117.12zM72922.98,-6426.64v117.12l401.91,1.38v-117.12zM73324.89,-6425.26v-109.43l-281.51,-3.66v-329.02l-120.4,2.28v438.45zM73485.24,-6708.18v117.12c0,-9.99 3.99,-18.25 11.95,-24.75v-117.12c-7.96,6.51 -11.95,14.76 -11.95,24.75zM73497.19,-6732.93v117.12c7.8,-6.51 17.18,-9.27 28.12,-8.28v-117.12c-10.94,-0.99 -20.32,1.78 -28.12,8.28zM73525.31,-6741.21v117.12l80.01,8.4v-117.12zM73605.32,-6732.81v117.12c11.08,1.33 20.5,6.08 28.27,14.23v-117.12c-7.77,-8.15 -17.19,-12.9 -28.27,-14.23zM73633.59,-6718.58v117.12c7.76,8.16 11.64,17.25 11.64,27.24v-117.12c0,-9.99 -3.88,-19.08 -11.64,-27.24zM73645.23,-6691.34v117.12v146.15v-117.12zM73525.31,-6521.86c-10.94,-0.99 -20.32,-5.39 -28.12,-13.21c-7.96,-7.81 -11.95,-16.8 -11.95,-26.96v-146.15c0,-9.99 3.99,-18.24 11.95,-24.75c7.8,-6.5 17.18,-9.27 28.12,-8.28l80.01,8.4c11.08,1.33 20.5,6.08 28.27,14.23c7.76,8.16 11.64,17.25 11.64,27.24v146.15c0,10.16 -3.88,18.31 -11.64,24.47c-7.77,6.18 -17.19,8.59 -28.27,7.26zM73605.32,-6404.03v117.12c43.96,5.53 81.48,-3.45 112.6,-27.17v-117.12c-31.12,23.72 -68.64,32.7 -112.6,27.17zM73717.92,-6431.2v117.12c31.06,-23.37 46.57,-55.15 46.57,-95.62v-117.12c0,40.47 -15.51,72.26 -46.57,95.62zM73365.07,-6715.82v117.12v146.15v-117.12zM73365.07,-6569.67v117.12c0,40.47 15.64,75.73 46.9,105.96v-117.12c-31.26,-30.23 -46.9,-65.48 -46.9,-105.96zM73411.97,-6463.71v117.12c31.42,30.49 69.21,47.51 113.34,51.28v-117.12c-44.13,-3.77 -81.92,-20.79 -113.34,-51.28zM73525.31,-6412.43v117.12l80.01,8.4v-117.12zM73605.32,-6404.03c43.96,5.53 81.48,-3.45 112.6,-27.17c31.06,-23.36 46.57,-55.15 46.57,-95.62v-146.15c0,-40.31 -15.51,-77.39 -46.57,-110.99c-31.12,-33.4 -68.64,-52.99 -112.6,-58.52l-80.01,-8.4c-44.13,-3.77 -81.92,7.78 -113.34,34.41c-31.26,26.73 -46.9,60.35 -46.9,100.65v146.15c0,40.48 15.64,75.73 46.9,105.96c31.42,30.49 69.21,47.51 113.34,51.28zM73921.72,-6603.72v117.12v-72.95v-117.12zM73921.72,-6676.67v117.12l116.61,31.01v-117.12zM74038.33,-6645.66v117.12c10.7,3.13 19.8,9.42 27.3,18.85v-117.12c-7.5,-9.42 -16.6,-15.71 -27.3,-18.85zM74065.63,-6626.81v117.12c7.49,9.44 11.23,19.16 11.23,29.16v-117.12c0,-9.99 -3.74,-19.72 -11.23,-29.16zM73921.72,-6603.72v-72.95l116.61,31.01c10.7,3.14 19.8,9.43 27.3,18.85c7.49,9.44 11.23,19.17 11.23,29.16c0,10.16 -3.74,17.59 -11.23,22.3c-7.5,4.9 -16.6,5.78 -27.3,2.64zM73921.72,-6347.89v117.12v-146.15v-117.12zM73921.72,-6494.04v117.12l116.61,31.01v-117.12zM74038.33,-6463.03v117.12c10.7,3.13 19.8,9.42 27.3,18.84v-117.12c-7.5,-9.42 -16.6,-15.7 -27.3,-18.84zM74065.63,-6444.19v117.12c7.49,9.44 11.23,19.25 11.23,29.41v-117.12c0,-10.16 -3.74,-19.97 -11.23,-29.41zM74076.86,-6305.35v117.12l114.5,38.04v-117.12zM74115.21,-6536.82v117.12c21.04,6.92 38.96,8.21 53.76,3.81v-117.12c-14.8,4.4 -32.72,3.11 -53.76,-3.81zM74168.97,-6533.01v117.12c14.94,-4.27 22.39,-13.11 22.39,-26.6v-117.12c0,13.49 -7.45,22.33 -22.39,26.6zM73804.04,-6373.37v117.12l117.68,25.48v-117.12zM73921.72,-6347.89v-146.15l116.61,31.01c10.7,3.14 19.8,9.42 27.3,18.84c7.49,9.44 11.23,19.25 11.23,29.41v109.43l114.5,38.04v-146.15c0,-20.15 -7.45,-39.96 -22.39,-59.35c-14.8,-19.41 -32.72,-32.61 -53.76,-39.53v-24.48c21.04,6.92 38.96,8.21 53.76,3.81c14.94,-4.27 22.39,-13.11 22.39,-26.6c0,-40.3 -14.84,-79.95 -44.6,-118.67c-29.89,-38.54 -66,-64.32 -108.43,-77.05l-234.29,-56.49v438.45zM74341.1,-6373.58v117.12l254.92,119.38v-117.11zM74341.1,-6537.97v117.12l254.92,119.38v-117.11zM74596.02,-6418.58v117.11v-109.67v-117.11zM74229.15,-6253.53v117.12l366.87,163.72v-117.11zM74596.02,-6089.8v-109.43l-254.92,-119.39v-54.96l254.92,119.39v-109.67l-254.92,-119.39v-54.72l254.92,119.39v-109.67l-366.87,-163.73v438.45z" stroke-linecap="round"/>
</g>
<g id="9efd0f7b-fecf-45b9-86f9-8cf3de060270">
<g style="">
		<g id="1d564dd4-2726-4df6-b249-5a480302c896">
<path style="stroke: rgb(193,193,193); stroke-width: 0; stroke-dasharray: none; stroke-linecap: butt; stroke-dashoffset: 0; stroke-linejoin: miter; stroke-miterlimit: 4; fill: rgb(246,234,168); fill-rule: nonzero; opacity: 1;" d="M52.58181,830.14545v-438.45l366.87,-163.73v109.67l-259,110.22v54.72l259,-110.22v109.67l-259,110.22v54.96l259,-110.22v109.43zM457.23181,652.63545v-146.15c0,-20.15 7.38,-39.93 22.15,-59.27c14.81,-19.41 32.72,-32.61 53.76,-39.53v-24.48c-21.04,6.92 -38.95,8.21 -53.76,3.81c-14.77,-4.32 -22.15,-13.19 -22.15,-26.68v-146.15l114.27,-37.97v146.15c0,10.16 3.82,17.57 11.47,22.23c7.49,4.9 16.51,5.8 27.06,2.71l116.6,-31.02c10.86,-2.6 20.1,-8.34 27.72,-17.27c7.63,-8.73 11.45,-18.17 11.45,-28.33v-146.15l118.31,-23.71v146.15c0,13.49 -7.79,26.37 -23.35,38.71c-15.39,12.41 -33.94,20.79 -55.65,25.21v24.48c21.71,-4.42 40.26,-0.9 55.65,10.51c15.56,11.32 23.35,27.09 23.35,47.24v146.15l-118.31,23.71v-109.43c0,-10.16 -3.82,-17.95 -11.45,-23.38c-7.62,-5.39 -16.86,-6.81 -27.72,-4.21l-116.6,31.02c-10.55,3.09 -19.65,9.38 -27.3,18.84c-7.49,9.44 -11.23,19.25 -11.23,29.41v109.43zM1162.85181,321.47545c11.13,-0.87 20.59,-5.17 28.4,-12.9c7.81,-7.71 11.71,-16.56 11.71,-26.55v-73.2c0,-10 -3.9,-18.3 -11.71,-24.91c-7.81,-6.59 -17.27,-9.46 -28.4,-8.59l-120.08,11.87v146.15zM923.52181,532.61545v-438.45l239.33,-28.51c44.18,-3.26 82,8.69 113.43,35.65c31.45,27.03 47.18,60.78 47.18,101.09v73.2c0,40.31 -15.73,75.34 -47.18,105.27c-31.43,30.33 -69.25,47.03 -113.43,50.29l-120.08,11.87v72.95zM1363.65181,493.30545v-438.45l120.4,-2.28v329.02l281.51,3.66v109.43zM2045.99181,406.48545c11.08,1.33 20.5,-1.08 28.27,-7.26c7.76,-6.16 11.64,-14.31 11.64,-24.47v-146.15c0,-9.99 -3.88,-19.08 -11.64,-27.24c-7.77,-8.15 -17.19,-12.9 -28.27,-14.23l-80.01,-8.4c-10.94,-0.99 -20.32,1.78 -28.12,8.28c-7.96,6.51 -11.95,14.76 -11.95,24.75v146.15c0,10.16 3.99,19.15 11.95,26.96c7.8,7.82 17.18,12.22 28.12,13.21zM1965.98181,507.51545c-44.13,-3.77 -81.92,-20.79 -113.34,-51.28c-31.26,-30.23 -46.9,-65.48 -46.9,-105.96v-146.15c0,-40.3 15.64,-73.92 46.9,-100.65c31.42,-26.63 69.21,-38.18 113.34,-34.41l80.01,8.4c43.96,5.53 81.48,25.12 112.6,58.52c31.06,33.6 46.57,70.68 46.57,110.99v146.15c0,40.47 -15.51,72.26 -46.57,95.62c-31.12,23.72 -68.64,32.7 -112.6,27.17zM2479.00181,347.23545c10.7,3.14 19.8,2.26 27.3,-2.64c7.49,-4.71 11.23,-12.14 11.23,-22.3c0,-9.99 -3.74,-19.72 -11.23,-29.16c-7.5,-9.42 -16.6,-15.71 -27.3,-18.85l-116.61,-31.01v72.95zM2244.71181,546.57545v-438.45l234.29,56.49c42.43,12.73 78.54,38.51 108.43,77.05c29.76,38.72 44.6,78.37 44.6,118.67c0,13.49 -7.45,22.33 -22.39,26.6c-14.8,4.4 -32.72,3.11 -53.76,-3.81v24.48c21.04,6.92 38.96,20.12 53.76,39.53c14.94,19.39 22.39,39.2 22.39,59.35v146.15l-114.5,-38.04v-109.43c0,-10.16 -3.74,-19.97 -11.23,-29.41c-7.5,-9.42 -16.6,-15.7 -27.3,-18.84l-116.61,-31.01v146.15zM2669.82181,666.41545v-438.45l366.87,163.73v109.67l-254.92,-119.39v54.72l254.92,119.39v109.67l-254.92,-119.39v54.96l254.92,119.39v109.43z" stroke-linecap="round"/>
</g>
</g>
</g>
<g transform="matrix(1 0 0 1 52.579977 52.579977)" id="807d149e-8214-47c6-b487-a91c8e8fc5b1">

</g>
<g transform="matrix(1 0 0 1 52.579977 52.579977)" id="4522d5cb-14bb-4c78-9788-c5595434921a">

</g>

  </svg>