<svg xmlns="http://www.w3.org/2000/svg" viewBox="0 0 805.46 190.33"><title>193fd5f0-2623-41b8-9f6c-9629e6025e6fmdpi</title><g id="Layer_2" data-name="Layer 2"><g id="Layer_1-2" data-name="Layer 1"><g id="_193fd5f0-2623-41b8-9f6c-9629e6025e6f" data-name="193fd5f0-2623-41b8-9f6c-9629e6025e6f"><g id="_5106f727-2223-4a52-8d58-71dce692c4da" data-name="5106f727-2223-4a52-8d58-71dce692c4da"><path d="M0,188.59,18.06,1.75H81.35L99.19,188.59H63.74l-2.61-30.23H38.5l-2.17,30.23Zm58.3-60L50,33.5H48.29l-7,95.06ZM115.72,1.75h51.55q20,0,30,11.09t10.22,32.84l.44,87.44q.23,27.63-9.57,41.55T166,188.59H115.72Zm44.16,153.78q10.22,0,10.22-10V49.16a34.27,34.27,0,0,0-1-9.46,6.3,6.3,0,0,0-3.59-4.24q-2.61-1.1-8.05-1.09h-4.13V155.53Zm84.61,33.06L221.43,1.53h35.68l13.7,127.24L283,1.53h35.67L295.61,188.59Zm87.22,0V1.75h36.11V188.59Zm101.8,1.74q-25.45,0-36.76-12.62T385.44,137V118.77H422.2V142q0,13.92,8.92,13.92,5,0,7-2.93t2-9.9A44.79,44.79,0,0,0,437.86,128a32.83,32.83,0,0,0-5.55-10q-3.37-4-12.07-12.51L404.15,89.4Q385.45,71.13,385.44,49q0-23.93,11-36.44T428.51,0q25.23,0,36.32,13.38t11.1,41.87H437.86l-.22-12.83a8.19,8.19,0,0,0-2.06-5.87,7.58,7.58,0,0,0-5.77-2.18q-4.35,0-6.52,2.39a9.37,9.37,0,0,0-2.18,6.53q0,9.14,10.44,18.92L453.3,83.1a122.51,122.51,0,0,1,12.62,14A55,55,0,0,1,474,112.79a67.17,67.17,0,0,1,3,21.42q0,27.63-10.11,41.87t-33.39,14.25Zm107.89,0q-22.62,0-34.37-13.81t-11.75-38.83v-89q0-24.15,11.75-36.44T541.4,0Q564,0,575.76,12.29t11.75,36.44v89q0,25.23-11.75,38.94t-34.36,13.7Zm0-34.37q5,0,6.74-4.35t1.74-12.18V48.08a25.38,25.38,0,0,0-1.63-9.9q-1.63-3.81-6.63-3.81-9.36,0-9.36,14.14v91.14q0,8.06,2,12.18T541.4,156ZM609,1.75h57.43q13.69,0,21.21,6.19t10.11,17.41q2.61,11.2,2.61,28.6,0,15.89-4.13,24.8T681.91,91.14q8.48,1.74,12.29,8.49T698,117.9l-.44,70.69H661V115.51q0-7.85-3-10t-11.1-2.18v85.27H609Zm47,69.16q7.83,0,7.83-17a69.86,69.86,0,0,0-.65-11.09c-.44-2.47-1.24-4.17-2.4-5.12a7.78,7.78,0,0,0-5-1.41h-8.7V70.91Zm84.39,117.68V127L710.62,1.75h37L758,65,768.48,1.75h37L775.66,127v61.56Z"/></g></g></g></g></svg>