<svg xmlns="http://www.w3.org/2000/svg" viewBox="0 0 423.14 125.42"><title>1d9f4c66-edd1-4b33-a1ee-2d8078bb49ef-child-3triang</title><g id="Layer_2" data-name="Layer 2"><g id="Layer_1-2" data-name="Layer 1"><g id="_1d9f4c66-edd1-4b33-a1ee-2d8078bb49ef-child-3" data-name="1d9f4c66-edd1-4b33-a1ee-2d8078bb49ef-child-3"><path d="M0,68.16a.13.13,0,0,1,0-.06.07.07,0,0,1,.05,0h0a679.6,679.6,0,0,1,98-23,691.81,691.81,0,0,1,200.84-2,676.81,676.81,0,0,1,98.48,21c6.32,1.88,19.39,5.95,25.64,8a.12.12,0,0,1,.05,0,.12.12,0,0,1,0,.1l-.07,0c-.26,0-1.53-.37-8.94-2.71-2-.63-3.75-1.18-3.9-1.2h0L397.28,64.6A702.12,702.12,0,0,0,205.43,38.12l-7,0A711.84,711.84,0,0,0,.11,68.21h0S0,68.2,0,68.16ZM.12,53.81A726.52,726.52,0,0,1,198.41,24.38,718,718,0,0,1,397.26,50.27L410.17,54h0c.16,0,1.89.56,3.9,1.18,7.4,2.28,8.68,2.65,9,2.65a.1.1,0,0,0,.07,0,.11.11,0,0,0,0-.1s0,0-.05-.05c-6.3-2-19.38-6-25.67-7.86A701.66,701.66,0,0,0,.06,53.65h0a.09.09,0,0,0,0,.11.07.07,0,0,0,0,.05H.12Zm423,8.65c-6.29-2-19.37-6.06-25.66-7.9a690,690,0,0,0-191.94-27c-2.33,0-4.68,0-7,0A692.54,692.54,0,0,0,.06,58.46h0a.08.08,0,0,0,0,.1.07.07,0,0,0,0,0,0,0,0,0,0,.06,0A720.84,720.84,0,0,1,198.41,29,712.66,712.66,0,0,1,397.26,55.05l12.9,3.71h0c.16,0,1.9.57,3.91,1.2,7.39,2.3,8.68,2.66,8.94,2.66a.08.08,0,0,0,.07,0,.1.1,0,0,0,0-.09.1.1,0,0,0-.06,0Zm-423,1a715.62,715.62,0,0,1,198.3-29.85A707.44,707.44,0,0,1,397.27,59.83l12.89,3.74h0c.15,0,1.89.58,3.9,1.21,7.4,2.31,8.68,2.67,8.94,2.67.05,0,.06,0,.07,0a.1.1,0,0,0,0-.09.12.12,0,0,0-.05,0c-6.27-2.05-19.34-6.09-25.65-8a686.12,686.12,0,0,0-199-27.16A698,698,0,0,0,98.13,40.45,683.84,683.84,0,0,0,.06,63.26h0a.09.09,0,0,0,0,.1.09.09,0,0,0,.09.06ZM.11,49h0A731.64,731.64,0,0,1,198.4,19.79a723.51,723.51,0,0,1,198.85,25.7l12.9,3.66h0c.15,0,1.89.56,3.9,1.18C421.48,52.6,422.77,53,423,53c.05,0,.06,0,.07,0a.1.1,0,0,0,0-.09.12.12,0,0,0-.05-.05c-6.15-2-19.11-5.92-25.68-7.81A700.13,700.13,0,0,0,205.43,18.36l-7,0A701.55,701.55,0,0,0,.07,48.85h0A.09.09,0,0,0,0,49a.09.09,0,0,0,.1,0Zm0-4.8A737,737,0,0,1,397.24,40.7l12.91,3.64h0c.16,0,1.9.56,3.91,1.18,7.39,2.26,8.68,2.62,8.95,2.62,0,0,.06,0,.07,0a.1.1,0,0,0,0-.09s0,0-.06-.05c-6.15-2-19.11-5.89-25.68-7.77A710.74,710.74,0,0,0,.06,44.05a.08.08,0,0,0,0,.1A.08.08,0,0,0,.11,44.21ZM384.56,79.49a663.86,663.86,0,0,0-178.94-24.4q-6.92,0-13.87.14A667.07,667.07,0,0,0,.06,87.27a.07.07,0,0,0,0,0,.06.06,0,0,0,0,.06.09.09,0,0,0,.1.06A691.67,691.67,0,0,1,205,56.5c2.29,0,4.6,0,6.9,0A691.15,691.15,0,0,1,418.2,90L423,91.6h0a.08.08,0,0,0,.08-.06.13.13,0,0,0,0-.06s0,0,0,0h0l-4.83-1.59c-6.54-2.14-7.72-2.53-7.95-2.58v0C403.94,85.2,390.83,81.26,384.56,79.49ZM.11,29.81A753.38,753.38,0,0,1,185,1.65,745,745,0,0,1,371.2,20c19,4.23,37.68,9.53,51.82,13.68h0a.1.1,0,0,0,.09-.07.08.08,0,0,0-.07-.1h0c-17.15-5.42-34.54-10.22-51.69-14.28A726.26,726.26,0,0,0,.07,29.64h0a.07.07,0,0,0,0,0,.09.09,0,0,0,.09.13Zm423,13.33h0c-17.45-5.57-34.84-10.44-51.65-14.47a714.37,714.37,0,0,0-166-19.49q-10.18,0-20.38.29A710.31,710.31,0,0,0,.07,39.25h0a.07.07,0,0,0,0,.1s0,0,0,0a0,0,0,0,0,.06,0A743.39,743.39,0,0,1,185,10.84a733.78,733.78,0,0,1,186.22,18.6c18.42,4.15,36.52,9.33,51.79,13.86h0a.07.07,0,0,0,.09-.07.07.07,0,0,0-.07-.09ZM.11,34.61A748.19,748.19,0,0,1,185,6.25,738.75,738.75,0,0,1,371.2,24.71C390,28.9,408.75,34.27,423,38.47h0a.08.08,0,1,0,0-.16c-17.3-5.5-34.69-10.34-51.68-14.39a719.22,719.22,0,0,0-166-19.33q-10.17,0-20.36.29A714.88,714.88,0,0,0,.07,34.45h0a.07.07,0,0,0-.06.1.09.09,0,0,0,.1.07Zm423,90.65q-5.9-2.06-11.84-4c-5.07-1.7-10.3-3.43-13.71-4.53-7.85-2.42-17.88-5.47-25.84-7.6A643,643,0,0,0,.06,120.88a.07.07,0,0,0,0,.1.09.09,0,0,0,.11.06A652.7,652.7,0,0,1,104.71,96.23,669.33,669.33,0,0,1,319,98.45a655.89,655.89,0,0,1,92.22,23c4.56,1.52,9,3,11.83,4h0a.09.09,0,0,0,.08,0,.09.09,0,0,0-.05-.11Zm0-9.66h0q-5-1.72-10-3.36c-5.63-1.87-11.76-3.87-15.55-5.08-7.86-2.39-17.9-5.4-25.86-7.5A650.88,650.88,0,0,0,.06,111.27h0a.09.09,0,0,0,0,.11.09.09,0,0,0,.11.05h0A661.73,661.73,0,0,1,104.73,87a677.31,677.31,0,0,1,214.18,2.2A663.44,663.44,0,0,1,413,112.41c3.86,1.28,7.5,2.5,10,3.35h0a.08.08,0,0,0,.08-.05.08.08,0,0,0,0-.11Zm0-9.66-.45-.16c-2.35-.79-4.7-1.58-7.06-2.35-6.26-2.06-13.72-4.47-18.06-5.84-7.88-2.36-17.93-5.33-25.88-7.4A658.82,658.82,0,0,0,.06,101.67a.1.1,0,0,0,0,.11.09.09,0,0,0,.11,0h0A669.8,669.8,0,0,1,104.76,77.67a685.88,685.88,0,0,1,214.12,2.16,671.5,671.5,0,0,1,96.62,23.76c2.72.9,5.22,1.73,7.13,2.38l.38.13h0a.08.08,0,0,0,.08-.06.08.08,0,0,0-.05-.1Zm0-29c-6.23-2.06-19.3-6.15-25.64-8A669.85,669.85,0,0,0,299,47.72a686.86,686.86,0,0,0-200.88,2,675.67,675.67,0,0,0-98,23.11A.09.09,0,0,0,0,73,.11.11,0,0,0,.11,73a706.46,706.46,0,0,1,198.3-30.28A697.93,697.93,0,0,1,397.29,69.39l12.88,3.8h0c.16,0,1.9.58,3.91,1.22,7.4,2.34,8.67,2.7,8.93,2.7,0,0,.06,0,.07,0a.1.1,0,0,0,0-.09.07.07,0,0,0-.05,0Zm0,33.82c-3-1-5.92-2-8.9-3-5.93-2-12.63-4.14-16.67-5.42-7.87-2.37-17.92-5.36-25.86-7.44A654.66,654.66,0,0,0,.06,106.47a.09.09,0,0,0,0,.1.09.09,0,0,0,.11.05A666.34,666.34,0,0,1,104.74,82.31a681.87,681.87,0,0,1,214.15,2.17A667.31,667.31,0,0,1,414.12,108c3.45,1.13,6.63,2.19,8.88,3h0a.09.09,0,0,0,.1-.07.08.08,0,0,0-.07-.1Zm0,9.66q-5.47-1.91-11-3.71c-5.34-1.78-11-3.64-14.56-4.79-7.86-2.4-17.9-5.43-25.85-7.55A646.65,646.65,0,0,0,.06,116.07a.1.1,0,0,0,0,.11.08.08,0,0,0,.11,0h0a658.26,658.26,0,0,1,104.6-24.64A673.12,673.12,0,0,1,318.93,93.8,657.77,657.77,0,0,1,412,116.89c4.24,1.41,8.29,2.77,11,3.7h0a.1.1,0,0,0,.1-.07.08.08,0,0,0-.07-.1ZM.12,97h0A674.68,674.68,0,0,1,104.78,73a690.49,690.49,0,0,1,214.08,2.14,675.9,675.9,0,0,1,98.75,24.31L421,100.6l2,.67a0,0,0,0,0,0,0,.08.08,0,0,0,.1-.07.07.07,0,0,0-.07-.09l0,0-1.86-.62-3.56-1.18c-6.6-2.18-15.3-5-20.13-6.49-7.88-2.34-18-5.29-25.88-7.35A663,663,0,0,0,.06,96.87h0A.08.08,0,0,0,0,97,.09.09,0,0,0,.12,97Zm0-19.21A702.56,702.56,0,0,1,198.41,47.34,692.87,692.87,0,0,1,397.3,74.18L410.18,78h0c.15,0,1.89.58,3.9,1.22C421.5,81.59,422.77,82,423,82a.08.08,0,0,0,.07,0,.1.1,0,0,0,0-.09.12.12,0,0,0-.05,0c-6.21-2.06-19.28-6.18-25.63-8.1A666,666,0,0,0,299,52.35,683,683,0,0,0,98.08,54.41a671.45,671.45,0,0,0-98,23.25.1.1,0,0,0-.06.11.1.1,0,0,0,.11.06Zm0,4.8A698,698,0,0,1,198.41,51.93a688.28,688.28,0,0,1,198.9,27l12.87,3.85h0c.16,0,1.89.59,3.9,1.23,7.41,2.36,8.67,2.74,8.93,2.74,0,0,.06,0,.07,0a.12.12,0,0,0,0-.1.12.12,0,0,0-.05,0c-6.18-2.06-19.25-6.21-25.62-8.15A660.93,660.93,0,0,0,299,57,678.07,678.07,0,0,0,98.07,59.05a667.05,667.05,0,0,0-98,23.41.09.09,0,0,0,0,.11.07.07,0,0,0,.1.05Zm0,9.61a689.71,689.71,0,0,1,417.64,2.48L423,96.44h0a.08.08,0,0,0,.1-.07.1.1,0,0,0-.07-.1l-5.28-1.74c-6.14-2-7.28-2.39-7.5-2.45v0c-6.35-2.07-19.45-6-25.73-7.82A666.62,666.62,0,0,0,.06,92.06a.09.09,0,0,0-.06.11l.05,0a.08.08,0,0,0,.07,0Z"/></g></g></g></svg>