<svg xmlns="http://www.w3.org/2000/svg" viewBox="0 0 262 262.02"><title>1db51bf5-f42a-44be-8030-15829441189dmdpi</title><g id="Layer_2" data-name="Layer 2"><g id="Layer_1-2" data-name="Layer 1"><g id="_1db51bf5-f42a-44be-8030-15829441189d" data-name="1db51bf5-f42a-44be-8030-15829441189d"><g id="_1db51bf5-f42a-44be-8030-15829441189d-child-0" data-name="1db51bf5-f42a-44be-8030-15829441189d-child-0"><path d="M262,131a130.39,130.39,0,0,1-25.7,77.92c-1.89-35.33-42.79-64-94.83-67.46,3.42,52,32.13,92.95,67.46,94.84a131,131,0,0,1-155.85,0c35.34-1.89,64.05-42.8,67.47-94.84-52,3.42-92.95,32.13-94.83,67.46a131,131,0,0,1,0-155.85c1.88,35.35,42.8,64.05,94.84,67.48-3.41-52-32.12-93-67.46-94.85a131,131,0,0,1,155.85,0c-35.33,1.88-64,42.79-67.46,94.83,52-3.42,92.94-32.13,94.83-67.47A130.53,130.53,0,0,1,262,131Z"/></g></g></g></g></svg>