<svg xmlns="http://www.w3.org/2000/svg" viewBox="0 0 72.75 25.04"><defs><style>.cls-1{fill:#bb133e;}</style></defs><title>1e05e981-431e-407c-aa5e-2216054f084a2skateboard1</title><g id="Layer_2" data-name="Layer 2"><g id="Layer_1-2" data-name="Layer 1"><g id="_1e05e981-431e-407c-aa5e-2216054f084a" data-name="1e05e981-431e-407c-aa5e-2216054f084a"><g id="_77525029-01a1-4d40-9276-cf57480a19df" data-name="77525029-01a1-4d40-9276-cf57480a19df"><path class="cls-1" d="M0,.35H5.67A5.88,5.88,0,0,1,10,1.72,5.77,5.77,0,0,1,11.34,6V7.44q0,3.8-2.51,4.8v.07a3,3,0,0,1,2,1.7,8.67,8.67,0,0,1,.57,3.45v4.27a15.39,15.39,0,0,0,.07,1.69,4.23,4.23,0,0,0,.35,1.27H7.89a5,5,0,0,1-.27-1.11,15.85,15.85,0,0,1-.07-1.88V17.25A3.78,3.78,0,0,0,7,14.92a2.28,2.28,0,0,0-1.86-.66H3.82V24.69H0ZM5.22,10.78a2.33,2.33,0,0,0,1.72-.59,2.79,2.79,0,0,0,.57-2V6.33A3.09,3.09,0,0,0,7,4.42a1.76,1.76,0,0,0-1.48-.6H3.82v7ZM14,.35H24.45V3.82H17.84v6.44h5.25v3.48H17.84v7.47h6.61v3.48H14ZM32.06,25a5.5,5.5,0,0,1-4.24-1.58,6.49,6.49,0,0,1-1.46-4.54V6.12a6.47,6.47,0,0,1,1.46-4.54A5.5,5.5,0,0,1,32.06,0a5.54,5.54,0,0,1,4.25,1.58,6.47,6.47,0,0,1,1.46,4.54V8.21H34.15V5.88q0-2.4-2-2.4c-1.33,0-2,.8-2,2.4V19.2c0,1.57.66,2.36,2,2.36s2-.79,2-2.36V14.43H32.24V11h5.53v8a6.49,6.49,0,0,1-1.46,4.54A5.54,5.54,0,0,1,32.06,25Zm8.17-4h3.69v3.69H40.23Zm7-17.18h-4V.35H55.05V3.82h-4V24.69H47.22ZM56.89.35h5.46l2.44,17.42h.07L67.29.35h5.46V24.69H69.13V6.26h-.07L66.28,24.69h-3.2L60.3,6.26h-.07V24.69H56.89Z"/></g></g></g></g></svg>