<?xml version="1.0" encoding="utf-8"?>
<!-- Generator: Adobe Illustrator 24.0.0, SVG Export Plug-In . SVG Version: 6.00 Build 0)  -->
<svg version="1.1" id="Layer_1" xmlns="http://www.w3.org/2000/svg" xmlns:xlink="http://www.w3.org/1999/xlink" x="0px" y="0px"
	 viewBox="0 0 244.8 50.3" style="enable-background:new 0 0 244.8 50.3;" xml:space="preserve">
<style type="text/css">
	.st0{fill:#231F20;}
</style>
<title>4d2d589c-d561-4acd-9c60-fd70d0a0c2e0</title>
<g id="Layer_2_1_">
	<g id="Layer_1-2">
		<g id="_4d2d589c-d561-4acd-9c60-fd70d0a0c2e0">
			<g id="_4d2d589c-d561-4acd-9c60-fd70d0a0c2e0-child-0">
				<path class="st0" d="M68.9,43c0,0-4.5,3.3-13,3c-11.8-0.3-13.5-8.7-13.4-13c0.3-6.7,6.6-10.1,13.2-9.9
					c13.5,0.5,20.9,16.8,35.1,17.3c12.8,0.5,19.8-6.5,21-7.9c11.1,5.9,28.8,5.6,38.7-2.7c-0.1,0.1-0.2,0.1-0.4,0.2
					c0.1-0.1,0.3-0.2,0.4-0.3c-4.7,1-11.3,3.3-20.6,0.4c-3.2-2.3-2-5.8,8.6-5.3c2.6,0.1,5.1,0.5,7.6,1.2
					c8.1,3.3,18.1,13.6,22.9,14.3c6.8,1.1,9.7-3.7,9.7-3.7s-2.4,1.7-6.9,1.6c-6.3-0.2-7.2-4.7-7.1-6.9c0.1-3.5,3.5-5.4,7-5.3
					c7.2,0.3,11.1,8.9,18.7,9.2c4.2,0.3,8.3-1.2,11.2-4.2c5.9,3.1,15.3,3,20.6-1.4l-0.2,0.1l0.2-0.1c-2.5,0.5-6,1.7-10.9,0.2
					c-1.7-1.2-1.1-3.1,4.6-2.9c6.2,0.2,7.1,3.7,16.3-1.3c6.3-3.4,10.1-1.7,12.6-0.9c-1.4-1.2-7.1-3-12.2-0.8
					c-9.3,4.1-14.5,1.2-13.4-1.7c1.6-4.5,10.4,0.3,10.4,0.3c-2-2.4-5-3.9-8.2-3.9c-5.6-0.2-9.1,6-14.4,5.8c-2.6-0.1-5-1.7-4.9-4.3
					c0.1-1.7,1-5,5.7-4.7c1.8,0,3.6,0.6,5.1,1.6c-1.5-2.4-4.2-3.7-7-3.3c-4.3,0.3-14.6,10.1-21,9.8l0.9,0.1c-0.6,0-1.2,0-1.8,0
					c-8.8-0.4-8.3-3.7-4.4-4.9c5.6-0.8,9.6,0.7,12.6,1.7c0.4,0.2,0.6,0.3,0.6,0.3l-0.2-0.2l0.2,0.1c-0.2-0.2-0.4-0.3-0.7-0.5
					c-7.9-6.9-23-7.2-30.4-1.4c-2.5,1.9-5.2,3.3-8.2,4.2c-6.8-0.2-10.1-3.6-8.9-6.9c3.1-8.4,19.6,0.5,19.6,0.5s-4.8-6.9-15.4-7.3
					s-17.1,11.2-27.1,10.8c-4.9-0.2-9.4-3.1-9.3-8.1c0.1-3.2,1.9-9.3,10.7-8.9c6.4,0.3,9.5,3,9.5,3s-3.6-7-13.1-6.2
					c-7.9,0.7-27.3,19-39.4,18.4c0,0,0.6,0.1,1.7,0.2c-1,0-2.2,0-3.3,0c-20.5-0.8-14.1-10.3-2.3-9.9S95,13.2,95,13.2
					C80.6-0.8,51-1.6,36.8,9.6S0,21.2,0,21.2C16.1,21.8,40,48.3,50.7,50c12.7,2,18.2-6.9,18.2-6.9L68.9,43z M199.2,29.4
					c0.7,0.7,1.6,1.3,2.5,1.8c-1.6,0.6-12.2,4.8-13.8-0.8c-0.6-2.3,1.4-4.3,5.6-4.4C195.5,26.8,197.5,28,199.2,29.4L199.2,29.4z
					 M107.1,29.2c1.4,1.3,3,2.4,4.7,3.3c-3,1.3-22.8,9.1-25.8-1.6c-1.2-4.2,2.7-8.1,10.4-8.4C100.3,24.2,103.9,26.4,107.1,29.2z"/>
			</g>
		</g>
	</g>
</g>
</svg>
