<svg xmlns="http://www.w3.org/2000/svg" viewBox="0 0 12.21 702.92"><defs><style>.cls-1{fill:#241c17;}</style></defs><title>072f83a3-ea80-467c-b7f0-05d8e347bc99</title><g id="Layer_2" data-name="Layer 2"><g id="Layer_1-2" data-name="Layer 1"><g id="_072f83a3-ea80-467c-b7f0-05d8e347bc99" data-name="072f83a3-ea80-467c-b7f0-05d8e347bc99"><g id="_072f83a3-ea80-467c-b7f0-05d8e347bc99-child-0" data-name="072f83a3-ea80-467c-b7f0-05d8e347bc99-child-0"><path class="cls-1" d="M12.21,698.32a4.58,4.58,0,0,1-1.31,3.25,4.77,4.77,0,0,1-3.21,1.35,4.69,4.69,0,0,1-3.25-1.31,4.77,4.77,0,0,1,0-6.46,4.59,4.59,0,0,1,6.46,0A4.54,4.54,0,0,1,12.21,698.32Zm-3-675.53h0a4.55,4.55,0,0,0-4.56-4.52h0A4.56,4.56,0,0,0,.07,22.84h0a4.58,4.58,0,1,0,9.12,0Zm.08,18.26h0a4.55,4.55,0,0,0-4.56-4.52h0A4.56,4.56,0,0,0,.15,41.1h0a4.58,4.58,0,1,0,9.12,0Zm.08,18.26h0a4.55,4.55,0,0,0-4.56-4.52h0A4.54,4.54,0,0,0,.24,59.36h0a4.57,4.57,0,0,0,9.11,0Zm.09,18.26h0a4.56,4.56,0,0,0-4.56-4.52h0A4.56,4.56,0,0,0,.32,77.61h0a4.58,4.58,0,1,0,9.12,0Zm.08,18.26h0A4.58,4.58,0,0,0,5,91.27H5a4.58,4.58,0,0,0-4.56,4.6h0a4.58,4.58,0,0,0,9.12,0Zm.08,18.26h0A4.57,4.57,0,0,0,5,109.53H5a4.58,4.58,0,0,0-4.56,4.6h0a4.58,4.58,0,0,0,9.12,0Zm.08,18.26h0a4.57,4.57,0,0,0-4.57-4.56h0a4.56,4.56,0,0,0-4.55,4.6h0a4.57,4.57,0,0,0,9.11,0Zm.08,18.26h0a4.57,4.57,0,0,0-4.57-4.56h0a4.58,4.58,0,0,0-4.55,4.6h0a4.58,4.58,0,0,0,9.12,0Zm.08,18.26h0a4.57,4.57,0,0,0-4.56-4.56h0a4.58,4.58,0,0,0-4.56,4.6h0a4.58,4.58,0,0,0,9.12,0Zm.09,18.25h0a4.54,4.54,0,0,0-4.57-4.55h0a4.56,4.56,0,0,0-4.56,4.6h0a4.58,4.58,0,0,0,9.12,0ZM10,205.38h0a4.52,4.52,0,0,0-1.34-3.22,4.47,4.47,0,0,0-3.22-1.33h0a4.48,4.48,0,0,0-3.24,1.35,4.53,4.53,0,0,0-1.32,3.25h0a4.58,4.58,0,0,0,9.12-.05Zm.08,18.26h0a4.56,4.56,0,0,0-4.57-4.55h0A4.58,4.58,0,0,0,1,223.69H1a4.58,4.58,0,0,0,9.12-.05Zm.08,18.26h0a4.56,4.56,0,0,0-4.57-4.56h0a4.56,4.56,0,0,0-3.23,1.35,4.49,4.49,0,0,0-1.32,3.25h0a4.57,4.57,0,0,0,9.11,0Zm.08,18.23h0a4.54,4.54,0,0,0-4.56-4.51h0a4.54,4.54,0,0,0-4.56,4.56h0a4.58,4.58,0,1,0,9.12,0Zm.08,18.26h0a4.55,4.55,0,0,0-4.56-4.52h0a4.54,4.54,0,0,0-4.55,4.57h0a4.57,4.57,0,1,0,9.11,0Zm.09,18.26h0a4.56,4.56,0,0,0-4.56-4.52h0A4.56,4.56,0,0,0,1.3,296.7h0a4.58,4.58,0,1,0,9.12,0Zm.08,18.26h0a4.56,4.56,0,0,0-4.56-4.52h0a4.56,4.56,0,0,0-3.23,1.34A4.5,4.5,0,0,0,1.38,315h0a4.58,4.58,0,1,0,9.12,0Zm.08,18.26h0A4.55,4.55,0,0,0,6,328.64H6a4.56,4.56,0,0,0-4.56,4.58h0a4.58,4.58,0,1,0,9.12,0Zm.08,18.26h0a4.54,4.54,0,0,0-4.56-4.52h0a4.56,4.56,0,0,0-4.56,4.57h0a4.58,4.58,0,1,0,9.12,0Zm.08,18.26h0a4.55,4.55,0,0,0-4.56-4.52h0a4.56,4.56,0,0,0-4.56,4.57h0a4.58,4.58,0,1,0,9.12,0ZM10.82,388h0a4.54,4.54,0,0,0-4.56-4.52h0A4.54,4.54,0,0,0,1.71,388h0a4.57,4.57,0,1,0,9.11,0Zm.09,18.26h0a4.55,4.55,0,0,0-4.56-4.52h0a4.54,4.54,0,0,0-4.56,4.57h0a4.58,4.58,0,1,0,9.12,0ZM11,424.46h0A4.55,4.55,0,0,0,6.43,420h0a4.54,4.54,0,0,0-4.56,4.56h0a4.58,4.58,0,0,0,9.12,0Zm.08,18.26h0a4.55,4.55,0,0,0-4.56-4.51h0A4.54,4.54,0,0,0,2,442.77H2a4.58,4.58,0,0,0,9.12,0ZM11.15,461h0a4.58,4.58,0,0,0-4.56-4.53h0A4.58,4.58,0,0,0,2,461.05H2a4.58,4.58,0,0,0,9.12,0Zm.08,18.26h0a4.57,4.57,0,0,0-4.57-4.55h0a4.56,4.56,0,0,0-4.55,4.6h0a4.57,4.57,0,0,0,9.11-.05Zm.08,18.26h0a4.58,4.58,0,0,0-4.56-4.56h0a4.58,4.58,0,0,0-4.56,4.6h0a4.58,4.58,0,0,0,9.12,0Zm.09,18.26h0a4.56,4.56,0,0,0-4.57-4.56h0a4.56,4.56,0,0,0-4.56,4.6h0a4.58,4.58,0,0,0,9.12,0ZM11.48,534h0a4.58,4.58,0,0,0-4.57-4.56h0a4.58,4.58,0,0,0-4.56,4.6h0a4.58,4.58,0,0,0,9.12,0Zm.08,18.26h0a4.55,4.55,0,0,0-1.34-3.23A4.5,4.5,0,0,0,7,547.72H7a4.56,4.56,0,0,0-4.56,4.6h0a4.58,4.58,0,0,0,9.12,0Zm.08,18.26h0a4.55,4.55,0,0,0-1.34-3.23A4.5,4.5,0,0,0,7.07,566h0a4.58,4.58,0,0,0-4.56,4.6h0a4.58,4.58,0,0,0,9.12,0Zm.08,18.25h0a4.54,4.54,0,0,0-4.56-4.52h0a4.5,4.5,0,0,0-3.24,1.35,4.57,4.57,0,0,0-1.32,3.25h0a4.58,4.58,0,0,0,9.12,0ZM11.8,607h0a4.54,4.54,0,0,0-4.56-4.52h0a4.54,4.54,0,0,0-4.55,4.57h0a4.57,4.57,0,1,0,9.11,0Zm.09,18.26h0a4.55,4.55,0,0,0-4.56-4.52h0a4.55,4.55,0,0,0-3.23,1.34,4.5,4.5,0,0,0-1.33,3.23h0a4.58,4.58,0,1,0,9.12,0ZM12,643.55h0A4.55,4.55,0,0,0,7.41,639h0a4.55,4.55,0,0,0-3.23,1.34,4.5,4.5,0,0,0-1.33,3.23h0a4.58,4.58,0,1,0,9.12,0Zm.08,18.26h0a4.55,4.55,0,0,0-4.56-4.52h0a4.54,4.54,0,0,0-4.56,4.57h0a4.58,4.58,0,1,0,9.12,0Zm.08,18.25h0a4.55,4.55,0,0,0-4.56-4.51h0A4.54,4.54,0,0,0,3,680.11H3a4.58,4.58,0,1,0,9.12,0ZM9,3.66a3.31,3.31,0,0,0-.24-.87A3.64,3.64,0,0,0,8.33,2a3.92,3.92,0,0,0-.55-.67,4.57,4.57,0,0,0-6.46,0,3.6,3.6,0,0,0-.58.7,5.25,5.25,0,0,0-.41.78,3.14,3.14,0,0,0-.24.86,4.53,4.53,0,0,0,1.25,4.1,5.45,5.45,0,0,0,.7.57,4.41,4.41,0,0,0,.77.42A5.16,5.16,0,0,0,3.66,9a5.51,5.51,0,0,0,.91.1A5.18,5.18,0,0,0,5.44,9a5,5,0,0,0,.86-.25,4.37,4.37,0,0,0,.76-.43,4.31,4.31,0,0,0,.7-.58A4.5,4.5,0,0,0,9.08,4.53,3.21,3.21,0,0,0,9,3.66Z"/></g></g></g></g></svg>