<svg xmlns="http://www.w3.org/2000/svg" viewBox="0 0 132.34 131.85"><defs><style>.cls-1{fill:#010101;fill-rule:evenodd;}</style></defs><title>Asset 142mdpi</title><g id="Layer_2" data-name="Layer 2"><g id="Layer_1-2" data-name="Layer 1"><path class="cls-1" d="M82.61,72.09a1.06,1.06,0,0,0-.58,1,.82.82,0,0,0,.34.72,1.58,1.58,0,0,0,.87.3,3.74,3.74,0,0,0,1.09-.48s0-.16,0-.2c0-.27,0-.49-.08-.71a1.33,1.33,0,0,0-.85-1C83.15,71.61,82.89,72,82.61,72.09Z"/><path class="cls-1" d="M29,110.39a1.1,1.1,0,0,0-1.47-.24,1.13,1.13,0,0,0-.2,1.54c.16.21.1.54.39.67,1.21-.23,1.21-.23,1.78-1.18A6.56,6.56,0,0,0,29,110.39Z"/><path class="cls-1" d="M43.18,73.89a4.17,4.17,0,0,0-.54.93,1.09,1.09,0,0,0,.77,1.37,2,2,0,0,0,1.64-1.13.25.25,0,0,0,0-.12,2,2,0,0,0-1.57-1.18A.31.31,0,0,0,43.18,73.89Z"/><path class="cls-1" d="M94.81,42.72c-.27.3-.42.54-.24,1a1.92,1.92,0,0,1,0,.7c.32.09.66.2,1,.27a1.28,1.28,0,0,0,1.11-.41c.22-.2,0-.51,0-.77a.89.89,0,0,0-.06-.4A1,1,0,0,0,94.81,42.72Z"/><path class="cls-1" d="M52.8,76.24a1.45,1.45,0,0,0-.26,1.4,1.07,1.07,0,0,0,.86.76,1.28,1.28,0,0,0,1.13-.77c.09-.29.16-.59.26-.94a7.32,7.32,0,0,0-1-.61A.86.86,0,0,0,52.8,76.24Z"/><path class="cls-1" d="M83.82,36.28c.24-.19.45-.41.71-.65-.24-.55-.35-1.18-1.07-1.42-.24-.07-.41-.12-.6.06a2.22,2.22,0,0,0-.7.82,1,1,0,0,0,.3,1.22A1.24,1.24,0,0,0,83.82,36.28Z"/><path class="cls-1" d="M103.05,67.54a1.18,1.18,0,0,0,.09-.9.69.69,0,0,0-.54-.66c-.26-.09-.35-.43-.65-.45-.92.72-.92.72-1.12,1.81.22.15.43.32.66.45A1.14,1.14,0,0,0,103.05,67.54Z"/><path class="cls-1" d="M30.46,99a1,1,0,0,0-1-1.39,1.29,1.29,0,0,0-1.23.7c-.28.47.05.75.28,1.09a.64.64,0,0,0,.53.34c.31,0,.62.06,1,.1A7.31,7.31,0,0,0,30.46,99Z"/><path class="cls-1" d="M46.11,104.83c-.41.28-.9.52-.69,1.07-.11.66-.11.67.37.9a1.73,1.73,0,0,0,.75.26c.28,0,.65,0,.83-.34a1.48,1.48,0,0,0-.26-1.76A.82.82,0,0,0,46.11,104.83Z"/><path class="cls-1" d="M78.52,9.7a1.07,1.07,0,0,0,.1,2.13c.3,0,.58.27.88.08a1.83,1.83,0,0,0,0-2.22A6.87,6.87,0,0,0,78.52,9.7Z"/><path class="cls-1" d="M89.34,64.15a3.72,3.72,0,0,1-.76-.2l-.47.66A1.46,1.46,0,0,0,88,65.77c0,.15.09.26.23.29a3.69,3.69,0,0,0,.91.19,1,1,0,0,0,.87-1.61A.77.77,0,0,0,89.34,64.15Z"/><path class="cls-1" d="M118.82,56.32c.65-.3.39-1,.66-1.34a.32.32,0,0,0-.16-.36,3.83,3.83,0,0,0-.61-.3,1,1,0,0,0-1.47,1.19A1,1,0,0,0,118.82,56.32Z"/><path class="cls-1" d="M14.89,44.74c-.12,0-.31,0-.35.12a2.07,2.07,0,0,0-.45,1.24,1.15,1.15,0,0,0,.81,1c.3.08.5-.17.76-.2s.34-.23.42-.45a6.46,6.46,0,0,1,.43-.79c-.27-.24-.49-.47-.73-.67A1.17,1.17,0,0,0,14.89,44.74Z"/><path class="cls-1" d="M62.83,29.16a1.2,1.2,0,0,0,.46,1.36l.65.44a1.46,1.46,0,0,0,.76-.54c.61-.64.45-1.3-.36-1.69l-.12-.07A1.1,1.1,0,0,0,62.83,29.16Z"/><path class="cls-1" d="M113.21,47.46a.87.87,0,0,0,1.07-.59.93.93,0,0,0,0-1,2.82,2.82,0,0,1-.31-.73,3.46,3.46,0,0,0-1,.13c-.94.4-1.15.78-.63,1.59A1.27,1.27,0,0,0,113.21,47.46Z"/><path class="cls-1" d="M37.42,82.28a3.28,3.28,0,0,1,.28-.79c-.16-.14-.35-.27-.5-.43a1.07,1.07,0,0,0-1.35-.24A1.27,1.27,0,0,0,35.4,82s0,.09,0,.14a.91.91,0,0,0,1.38.72C37.1,82.77,37.38,82.68,37.42,82.28Z"/><path class="cls-1" d="M10.07,93.31a1.29,1.29,0,0,0-.56-.88,3.52,3.52,0,0,0-1.15-.27s-.16.07-.2.14c-.2.39-.51.75-.44,1.23s.13.75.77.87a2.34,2.34,0,0,0,.52.08A1.12,1.12,0,0,0,10.07,93.31Z"/><path class="cls-1" d="M70.76,109.08c.31.53.54,1.14,1.31,1.19.13,0,.27.13.37,0,.32-.38.72-.71.71-1.27A.91.91,0,0,0,72,108c-.32,0-.62,0-.78.41A3.14,3.14,0,0,1,70.76,109.08Z"/><path class="cls-1" d="M126,95.65a5.67,5.67,0,0,1,.38-.46c-.3-.57-.47-1.1-1.08-1.28-.39-.11-.82-.08-1,.2a1.22,1.22,0,0,0-.29,1.12,6.58,6.58,0,0,0,.64,1C125.14,96,125.7,96.13,126,95.65Z"/><path class="cls-1" d="M85.4,22.6c.11.34.54.28.82.37a1.1,1.1,0,0,0,1.34-.64,1.17,1.17,0,0,0-.75-1.39L86,20.67a7.23,7.23,0,0,0-.57.74A1.38,1.38,0,0,0,85.4,22.6Z"/><path class="cls-1" d="M102.87,115a1.11,1.11,0,0,0-.56-1.26,1.14,1.14,0,0,0-1.35.52c-.13.24-.27.47-.45.78.26.23.44.44.65.6C102,116.23,102.62,116,102.87,115Z"/><path class="cls-1" d="M100.09,30.09a1.26,1.26,0,0,0-1.16.73c-.11.29-.2.58-.31.87a8.34,8.34,0,0,0,.75.58,1,1,0,0,0,1.58-.74,1.8,1.8,0,0,0,0-.4A1.06,1.06,0,0,0,100.09,30.09Z"/><path class="cls-1" d="M52.66,118.52l.54.1a1,1,0,0,0,1.09-1.45,1.67,1.67,0,0,0-.37-.55.92.92,0,0,0-1.09-.26,1.27,1.27,0,0,0-.63,1.21,2.38,2.38,0,0,1,.09.51C52.25,118.39,52.41,118.48,52.66,118.52Z"/><path class="cls-1" d="M28.33,74.83a2.66,2.66,0,0,0,0-1.06c-.34-.84-1.21-1.12-1.78-.33a.79.79,0,0,0-.19.82,2.83,2.83,0,0,1,0,.77,7.56,7.56,0,0,0,.88.29C27.59,75.41,28.31,75.1,28.33,74.83Z"/><path class="cls-1" d="M106.61,40.85a1.3,1.3,0,0,0-1.18.44.57.57,0,0,0-.16.22,1.47,1.47,0,0,0,1.15,1.6.83.83,0,0,0,.89-.46,1.24,1.24,0,0,0,.1-1.14C107.18,40.89,107.21,40.86,106.61,40.85Z"/><path class="cls-1" d="M101.92,41.86a.87.87,0,0,0-1.42.32,2,2,0,0,0-.2.35,1.07,1.07,0,0,0,.91,1.46c.25-.07.59-.05.75-.21a5.73,5.73,0,0,0,.65-1c.06-.09,0-.16-.06-.24A6.85,6.85,0,0,0,101.92,41.86Z"/><path class="cls-1" d="M26.7,22.53a1,1,0,0,0,1-.47,1.19,1.19,0,0,0-.3-1.31l-.53-.58-.77.4a1.55,1.55,0,0,0-.65,1C25.42,21.81,26.31,22.48,26.7,22.53Z"/><path class="cls-1" d="M23.72,49.05a5.4,5.4,0,0,0,.14.77c.32,1,1,1.25,1.79.54A1.06,1.06,0,0,0,25.91,49a1.11,1.11,0,0,0-1.41-.36Z"/><path class="cls-1" d="M4.56,53.19c.12,0,.27,0,.37-.06a1.73,1.73,0,0,0,.3-1.76A.55.55,0,0,0,5,51.19a1.46,1.46,0,0,0-1.65.24.89.89,0,0,0-.1,1.12A1.36,1.36,0,0,0,4.56,53.19Z"/><path class="cls-1" d="M125.35,69.78s-.16.09-.18.16c-.09.3-.15.61-.18.74a1.63,1.63,0,0,0,.31,1.06c0,.06.15.16.21.15.44-.07.91,0,1.29-.29a1,1,0,0,0,.43-1.06,1.24,1.24,0,0,0-.84-.8C126.09,69.62,125.72,70,125.35,69.78Z"/><path class="cls-1" d="M19.34,82.66a6.4,6.4,0,0,0,.43.82,1,1,0,0,0,1.7,0l.09-.11a1.1,1.1,0,0,0-.2-1.55,1.19,1.19,0,0,0-1.43.24C19.74,82.3,19.54,82.47,19.34,82.66Z"/><path class="cls-1" d="M40.4,23.59a1.55,1.55,0,0,0,1.47-.5.87.87,0,0,0,0-1.21c-.29-.27-.58-.63-1.08-.33l-.37,0a.3.3,0,0,0-.34.16,1.64,1.64,0,0,0,.08,1.68C40.19,23.45,40.3,23.59,40.4,23.59Z"/><path class="cls-1" d="M119.89,70.54c.29.21.82.3,1,.08s.81-.65.45-1.28a4,4,0,0,0,0-.5.29.29,0,0,0-.15-.19,1.9,1.9,0,0,0-1.78.23.42.42,0,0,0-.11.22A1.61,1.61,0,0,0,119.89,70.54Z"/><path class="cls-1" d="M37.52,35.16a2.67,2.67,0,0,1-.14.72,7.84,7.84,0,0,0,.82.41c.86.29,1.41-.12,1.39-1a1.09,1.09,0,0,0-.68-1.08c-.15-.07-.39-.15-.51-.08C38,34.35,37.46,34.5,37.52,35.16Z"/><path class="cls-1" d="M14.15,38.22c.64.16.91-.57,1.18-1s-.31-.78-.64-1.06a1.26,1.26,0,0,0-.62-.19.49.49,0,0,0-.37.1,3.38,3.38,0,0,0-.57.91A1,1,0,0,0,14.15,38.22Z"/><path class="cls-1" d="M95.39,12.34c.51.13,1.16-.12,1.22-.56s.19-1-.38-1.31a3.39,3.39,0,0,1-.56-.54l-.74.45a1.41,1.41,0,0,0-.56.88.34.34,0,0,0,0,.37A2.21,2.21,0,0,0,95.39,12.34Z"/><path class="cls-1" d="M20.32,37a1.3,1.3,0,0,0-.1.25c-.1.35.09,1,.32,1.08a2,2,0,0,0,1.32.06,1.07,1.07,0,0,0,.71-.9,1.29,1.29,0,0,0-.86-1.06l-.93-.22C20.63,36.46,20.47,36.72,20.32,37Z"/><path class="cls-1" d="M7.53,38.88a.75.75,0,0,0,.75-.08,5.17,5.17,0,0,1,.78-.38c-.05-.31-.07-.53-.12-.75-.22-1-.94-1.29-1.74-.63a1.14,1.14,0,0,0-.45,1.18C6.84,38.62,7.17,38.77,7.53,38.88Z"/><path class="cls-1" d="M84.4,105.78a1.19,1.19,0,0,0,1.33-.39c.18-.26,0-.52.07-.78s-.19-.45-.41-.61a5.3,5.3,0,0,1-.51-.53c-.64.27-1.21.54-1.33,1.26,0,.13,0,.3,0,.37A2.09,2.09,0,0,0,84.4,105.78Z"/><path class="cls-1" d="M115.21,67.93l-.74-.38a2.23,2.23,0,0,0-.7.76c-.42.69-.23,1.17.53,1.45a1.09,1.09,0,0,0,.25.1,1.17,1.17,0,0,0,1.24-.62A1.11,1.11,0,0,0,115.21,67.93Z"/><path class="cls-1" d="M35.39,52.77a1.16,1.16,0,0,0,.19,1.43l.54.58c.74-.28,1.38-.63,1.43-1.55a8.27,8.27,0,0,0-.7-.64A1,1,0,0,0,35.39,52.77Z"/><path class="cls-1" d="M42.19,13.91c.31.15.51-.11.77-.13s.43-.23.51-.52a3.1,3.1,0,0,1,.38-.69,6.42,6.42,0,0,0-.55-.6,1,1,0,0,0-1.8.61A1.16,1.16,0,0,0,42.19,13.91Z"/><path class="cls-1" d="M30.55,55.1c-.12-.45-.2-1-.84-1.06a2.42,2.42,0,0,1-.64-.3c-.18.2-.36.39-.53.59a1.13,1.13,0,0,0-.19,1.25c.19.42.71.51,1.16.53S30.67,55.56,30.55,55.1Z"/><path class="cls-1" d="M109.71,56.81c-.26,0-.53,0-.8,0a6.39,6.39,0,0,0-.25.78c-.16.94.39,1.47,1.3,1.29a1.14,1.14,0,0,0,1-1.27A1.2,1.2,0,0,0,109.71,56.81Z"/><path class="cls-1" d="M117.22,44.27a1.76,1.76,0,0,1,.65,0l.21-.77a1.15,1.15,0,0,0-.16-.9.5.5,0,0,0-.52-.35,3.07,3.07,0,0,0-.8.09,1,1,0,0,0-.33,1.7A.76.76,0,0,0,117.22,44.27Z"/><path class="cls-1" d="M129.78,66.79c0,.65,0,.67.59.83a2.41,2.41,0,0,0,.52.11.94.94,0,0,0,1-1.1,1.4,1.4,0,0,0-.19-.63,1,1,0,0,0-1.68-.16A.9.9,0,0,0,129.78,66.79Z"/><path class="cls-1" d="M84.76,111.32a1.92,1.92,0,0,0,.43.67c.29.33.78.12,1.14.38.15.12.61-.6.67-1.07,0-.09,0-.18,0-.51s-.16-.55-.8-.6a2.5,2.5,0,0,0-.67,0A1,1,0,0,0,84.76,111.32Z"/><path class="cls-1" d="M116.4,75.49a1.07,1.07,0,0,0,1.36-.16,1.18,1.18,0,0,0-.05-1.35l-.49-.65a4.35,4.35,0,0,0-.76.22,1.13,1.13,0,0,0-.76,1A1.31,1.31,0,0,0,116.4,75.49Z"/><path class="cls-1" d="M72.6,5.48a2,2,0,0,0,1.07-.15.94.94,0,0,0,.2-1.64.64.64,0,0,0-.82-.19c-.18.08-.45,0-.75,0a8.12,8.12,0,0,0-.31,1C71.9,4.85,72.26,5.46,72.6,5.48Z"/><path class="cls-1" d="M66.27,31.2a4.09,4.09,0,0,0-.52.51,7.53,7.53,0,0,0,.39,1,1.1,1.1,0,0,0,1.54.34,1.7,1.7,0,0,0,.1-1.87C67.63,30.9,66.71,30.9,66.27,31.2Z"/><path class="cls-1" d="M108.19,107.21a1.72,1.72,0,0,0,.22-1.16.87.87,0,0,0-1.31-.67c-.29.12-.58.22-.62.63a2.88,2.88,0,0,1-.3.74c.86.77.86.76,1.48.77A.5.5,0,0,0,108.19,107.21Z"/><path class="cls-1" d="M97.67,105.83l-.75-.33a5.89,5.89,0,0,0-.54.58c-.59.84-.25,1.57.77,1.7a1.09,1.09,0,0,0,1.19-.68A1.15,1.15,0,0,0,97.67,105.83Z"/><path class="cls-1" d="M33.38,115.65a6.85,6.85,0,0,0,.91,0,.91.91,0,0,0,.8-1.43,1.13,1.13,0,0,0-1-.76c-.5,0-.68.36-.89.72a.59.59,0,0,0-.08.5C33.19,115,33.28,115.3,33.38,115.65Z"/><path class="cls-1" d="M59,119.25a1.07,1.07,0,0,0,1.21-.38,1.09,1.09,0,0,0,.16-.5c0-.27,0-.54.07-.86a5.08,5.08,0,0,0-.7-.35c-.93-.31-1.41.12-1.42,1A1.21,1.21,0,0,0,59,119.25Z"/><path class="cls-1" d="M98.34,17.84c.08,0,.15.11.23.14a1.09,1.09,0,0,0,1.42-.4,1.12,1.12,0,0,0-.4-1.39l-.66-.51-.52.38a1.93,1.93,0,0,0-.3.27A.89.89,0,0,0,98.34,17.84Z"/><path class="cls-1" d="M54.16,128.88a1.89,1.89,0,0,0,.25-.11,1.14,1.14,0,0,0,.46-1.42,1.21,1.21,0,0,0-1.41-.4l-.7.26a5.6,5.6,0,0,0,0,1A.88.88,0,0,0,54.16,128.88Z"/><path class="cls-1" d="M53.91,23.25c-.36-.06-.58.19-.86.33s-.29.42-.3.69a1,1,0,0,1-.08.39c-.13.28,0,.41.22.54a4.45,4.45,0,0,0,.48.26c.76.29,1.29-.05,1.39-.88A1.13,1.13,0,0,0,53.91,23.25Z"/><path class="cls-1" d="M119.46,81.89a1.1,1.1,0,0,0-1.21-.79l-.82.08a6,6,0,0,0-.23.9.93.93,0,0,0,1.15,1.06,2.51,2.51,0,0,0,.27,0A1.14,1.14,0,0,0,119.46,81.89Z"/><path class="cls-1" d="M21.91,65.92c-.46,0-.67.39-.86.76s.16.84.2,1.27c0,.21.4.11.61.18a2.43,2.43,0,0,0,.27,0,1,1,0,0,0,.84-1.5A1.17,1.17,0,0,0,21.91,65.92Z"/><path class="cls-1" d="M71.53,41.1a5,5,0,0,0-.54.07A1.37,1.37,0,0,0,70,42c-.1.21.45,1,.79,1.18a.93.93,0,0,0,1.38-.61c.21-.59-.23-.93-.4-1.37C71.74,41.15,71.61,41.14,71.53,41.1Z"/><path class="cls-1" d="M128.89,59.15l-.29,0a.9.9,0,0,0-.75,1.36c.2.53.69.5,1.05.71a.34.34,0,0,0,.54-.13,1.61,1.61,0,0,1,.25-.32,1,1,0,0,0,.21-1.13C129.73,59.22,129.25,59.25,128.89,59.15Z"/><path class="cls-1" d="M60.52,76.87a5.36,5.36,0,0,0-.77-.37c-.88-.25-1.36.16-1.33,1.09a1.13,1.13,0,0,0,.68,1.08,1,1,0,0,0,1.18-.43.74.74,0,0,0,.16-.49C60.44,77.48,60.49,77.21,60.52,76.87Z"/><path class="cls-1" d="M65.88,10.24c-.26.38-.08.56.24.75a1.43,1.43,0,0,0,1.28.22c.11,0,.29-.1.32-.18a1.72,1.72,0,0,0,0-1.56.86.86,0,0,0-1.18-.28A1,1,0,0,0,65.88,10.24Z"/><path class="cls-1" d="M27.73,67.88l.63.68a.78.78,0,0,0,.22.15,1.05,1.05,0,0,0,1,0,1.51,1.51,0,0,0,.29-1.85,1,1,0,0,0-.55-.36,1.25,1.25,0,0,0-1.22.62C28,67.38,27.87,67.62,27.73,67.88Z"/><path class="cls-1" d="M100.36,84.92c.2-.17.39-.35.66-.6-.26-.58-.39-1.19-1.07-1.36-.13,0-.23-.19-.37-.08-.35.27-.75.5-.87,1A1,1,0,0,0,99,85,1.25,1.25,0,0,0,100.36,84.92Z"/><path class="cls-1" d="M46.74,60.47a1.21,1.21,0,0,0-1-1c-.27,0-.54-.06-.83-.09a7.86,7.86,0,0,0-.36.71,1.11,1.11,0,0,0,.1,1.17,1.21,1.21,0,0,0,1.28.18A1,1,0,0,0,46.74,60.47Z"/><path class="cls-1" d="M108.29,66c-.12.29-.26.54,0,.86a2.94,2.94,0,0,1,.29.71,1.73,1.73,0,0,0,1.87-.89c-.11-.25-.25-.52-.39-.8a1.46,1.46,0,0,0-.16-.21A.93.93,0,0,0,108.29,66Z"/><path class="cls-1" d="M18.82,87.78c0-.22.06-.46-.12-.64s-.5-.38-.65-.68c0,0-.17,0-.24,0a3.37,3.37,0,0,0-.59.32c-.35.23-.73.93-.59,1.12a1.67,1.67,0,0,0,1.17.84A.88.88,0,0,0,18.82,87.78Z"/><path class="cls-1" d="M70.21,23.07c.33,0,.6-.07.68-.47,0-.22.18-.42.2-.64a1.07,1.07,0,0,0-.77-1.12,1.13,1.13,0,0,0-1,.32,3.45,3.45,0,0,0-.53,1,.17.17,0,0,0,0,.12C69.23,22.66,69.57,23.13,70.21,23.07Z"/><path class="cls-1" d="M46.47,38.25c.4-.11.55-.65.65-1.09,0,0,0-.09,0-.14a1.09,1.09,0,0,0-.73-1,1.37,1.37,0,0,0-1.15.5c-.14.23-.26.47-.45.82.17.19.33.35.47.52A1.15,1.15,0,0,0,46.47,38.25Z"/><path class="cls-1" d="M90.82,121.44a2.71,2.71,0,0,0,0-.4,1,1,0,0,0-2,.24c0,.27,0,.53-.07.81a3.31,3.31,0,0,0,.87.33C90.34,122.51,90.93,122.29,90.82,121.44Z"/><path class="cls-1" d="M107.86,81.3c.3-.08.62-.1,1-.16a5.44,5.44,0,0,0,.17-.78c.06-.92-.48-1.35-1.37-1.09a1.18,1.18,0,0,0-.88.94c-.09.44.22.66.51.89A.63.63,0,0,0,107.86,81.3Z"/><path class="cls-1" d="M86.3,41.69a1.13,1.13,0,0,0-.78.48,3.39,3.39,0,0,0-.31,1c0,.06.08.17.15.22a5,5,0,0,0,.45.29c.92.47,1.52.13,1.53-.86a1.17,1.17,0,0,0-.41-1A.78.78,0,0,0,86.3,41.69Z"/><path class="cls-1" d="M78.39,88.16c0,.44.79,1.16,1.34,1.17a1,1,0,0,0,.92-1.13,2.49,2.49,0,0,0-.85-1.14A1.71,1.71,0,0,0,78.39,88.16Z"/><path class="cls-1" d="M64.31,58c-.12,1.11-.12,1.11.36,1.91a5.65,5.65,0,0,0,.93-.16,1.16,1.16,0,0,0,.8-1c0-.43-.29-.62-.59-.83a.59.59,0,0,0-.63-.11C64.91,58,64.56,57.76,64.31,58Z"/><path class="cls-1" d="M94.2,25.55a.15.15,0,0,0,.11,0c.58-.12,1.16-.24,1.42-.88a.5.5,0,0,0,.06-.24,1.52,1.52,0,0,0-1.35-1.14.89.89,0,0,0-.71.34A1.56,1.56,0,0,0,94.2,25.55Z"/><path class="cls-1" d="M35.22,93.54c.21.22.85.34,1,.2a1.67,1.67,0,0,0,.65-1.17.89.89,0,0,0-1.08-1,.83.83,0,0,0-.51.12,5.89,5.89,0,0,0-.65.84.26.26,0,0,0,0,.25A5.13,5.13,0,0,0,35.22,93.54Z"/><path class="cls-1" d="M70.81,120a1.24,1.24,0,0,0,.25-1,.71.71,0,0,0-.49-.6c-.45-.07-1-.24-1.31.3a3,3,0,0,1-.54.48,6.47,6.47,0,0,0,.39.79C69.62,120.67,70.24,120.67,70.81,120Z"/><path class="cls-1" d="M94.21,96c-.37,0-.39-.08-.69.25s-.53.21-.59.52A1.6,1.6,0,0,0,94,98.18c.44.06,1.17-.75,1.19-1.31S94.83,96,94.21,96Z"/><path class="cls-1" d="M59.53,96.17a.67.67,0,0,0,.28-.27,1.48,1.48,0,0,0-.5-1.7.64.64,0,0,0-.76-.09c-.34.25-.78.47-.65,1a3,3,0,0,1-.07.74C58.41,96.27,58.93,96.51,59.53,96.17Z"/><path class="cls-1" d="M10.07,51.77a1.42,1.42,0,0,0,1.18.12,1,1,0,0,0,.74-1,1.32,1.32,0,0,0-.87-.91c-.27-.05-.53-.07-.79-.1a1.74,1.74,0,0,0-.54.93A.87.87,0,0,0,10.07,51.77Z"/><path class="cls-1" d="M79.63,112.47c.12,0,.3,0,.37,0a2.17,2.17,0,0,0,.66-.84,1.08,1.08,0,0,0-.36-1.21,1.1,1.1,0,0,0-1.33.2c-.19.19-.36.4-.57.63C78.69,111.84,78.93,112.39,79.63,112.47Z"/><path class="cls-1" d="M115.05,53.55a4.1,4.1,0,0,0,.6-.71c-.3-.48-.48-1-1.09-1.16a1,1,0,0,0-1,.25c-.36.49-.27,1.1.27,1.81C114,53.93,114.67,53.86,115.05,53.55Z"/><path class="cls-1" d="M66,84.08a1.63,1.63,0,0,0-.51,1.72.35.35,0,0,0,.17.19,1.71,1.71,0,0,0,1.57,0,.82.82,0,0,0,.34-1c-.2-.46-.43-.93-1.09-.81C66.27,84.19,66.15,83.93,66,84.08Z"/><path class="cls-1" d="M73.45,77.32a.92.92,0,0,0-1,.79c-.13.59.3.89.61,1.26a.42.42,0,0,0,.58.11c.42-.19.82-.39,1-.88,0-.13.1-.27.06-.38A1.57,1.57,0,0,0,73.45,77.32Z"/><path class="cls-1" d="M117.17,105.39a1.11,1.11,0,0,0-1.25.67l-.36.7a5.17,5.17,0,0,0,.61.56,1,1,0,0,0,1.63-.6A1.1,1.1,0,0,0,117.17,105.39Z"/><path class="cls-1" d="M45.26,114.89a3.13,3.13,0,0,1,.32-.74,5.13,5.13,0,0,0-.69-.64,1.12,1.12,0,0,0-1.14,0,1.56,1.56,0,0,0-.13,1.76c.17.23.41.43.68.34S45.2,115.51,45.26,114.89Z"/><path class="cls-1" d="M66.52,17.11c.11-.25.23-.49.35-.74a6.09,6.09,0,0,0-.6-.54c-.76-.52-1.41-.25-1.61.65a1.14,1.14,0,0,0,.7,1.31A1.2,1.2,0,0,0,66.52,17.11Z"/><path class="cls-1" d="M60,87.94a3.7,3.7,0,0,0-.5-.19,1.13,1.13,0,0,0-1.14.56c-.22.38,0,.68.17,1a2.75,2.75,0,0,0,1.11.6s.1,0,.13,0c.32-.36.75-.66.69-1.24C60.43,88.21,60.37,88.11,60,87.94Z"/><path class="cls-1" d="M106.54,18.43a6.27,6.27,0,0,0,.8-.17c.92-.33,1.09-1,.44-1.74a1.09,1.09,0,0,0-.71-.36.86.86,0,0,0-1,.67.82.82,0,0,0,.16,1A2.05,2.05,0,0,1,106.54,18.43Z"/><path class="cls-1" d="M26.05,58.09a1.1,1.1,0,0,0,1.24-.74c.1-.24.19-.49.29-.75a5.1,5.1,0,0,0-.76-.58,1,1,0,0,0-1.46.77A1.07,1.07,0,0,0,26.05,58.09Z"/><path class="cls-1" d="M62.68,66.73a3.77,3.77,0,0,0,.36-.58.93.93,0,0,0-.81-1.44,1.23,1.23,0,0,0-.27,0,1.2,1.2,0,0,0-1,.64c-.18.37,0,.67.18,1,.31.57.94.22,1.31.54C62.49,66.89,62.64,66.8,62.68,66.73Z"/><path class="cls-1" d="M12.94,99.28a.31.31,0,0,0-.12,0,1.08,1.08,0,0,0-.71,1,1,1,0,0,0,1.12.86c.26,0,.52,0,.78,0a5,5,0,0,1,.21-.62A1,1,0,0,0,14,99.38C13.74,99.12,13.3,99.25,12.94,99.28Z"/><path class="cls-1" d="M46.92,100.16a1.61,1.61,0,0,0-1.26.34.83.83,0,0,0,0,1.28c.27.3.54.46.86.29s.51.14.69-.06a1.64,1.64,0,0,0,0-1.76A.48.48,0,0,0,46.92,100.16Z"/><path class="cls-1" d="M8.89,77a.42.42,0,0,0,.21-.45A3.67,3.67,0,0,0,9,75.86a1,1,0,0,0-1.11-.77c-.32,0-.43.3-.63.47a.65.65,0,0,0-.16.73,3.75,3.75,0,0,1,0,.67A1.75,1.75,0,0,0,8.89,77Z"/><path class="cls-1" d="M67.48,47.85c-.67,0-.69.66-1.1.89,0,0,0,.18,0,.25.26.49.55.95,1.17,1a.57.57,0,0,0,.26,0,1.77,1.77,0,0,0,.79-1.2C68.62,48.16,68.17,47.85,67.48,47.85Z"/><path class="cls-1" d="M52.81,13.52c.24,0,.44,0,.56-.24s.18-.31.25-.47a1.08,1.08,0,0,0-.48-1.49,1.15,1.15,0,0,0-1.32.57c-.13.23-.27.45-.42.7C51.82,13,52.1,13.54,52.81,13.52Z"/><path class="cls-1" d="M109.08,86.81c.22-.1.4-.2.43-.46a2.19,2.19,0,0,0,.09-.66,1.12,1.12,0,0,0-.93-1,1.16,1.16,0,0,0-1.11.94c0,.26,0,.53-.08.81C108,86.74,108.44,87.07,109.08,86.81Z"/><path class="cls-1" d="M35.93,30a.86.86,0,0,0,0,1.11c.37.29.76.65,1.31.32a2.65,2.65,0,0,1,.72-.19c0-.33,0-.55,0-.77a1.19,1.19,0,0,0-.65-1.1C37,29.19,36.18,29.62,35.93,30Z"/><path class="cls-1" d="M108.64,34.46a1.67,1.67,0,0,0,1.91.25,4.34,4.34,0,0,0,.13-1,1.1,1.1,0,0,0-.69-.92c-.4-.17-.66,0-.95.28s-.41.34-.35.65S108.5,34.2,108.64,34.46Z"/><path class="cls-1" d="M131.4,72.17c-.11,0-.29-.09-.36,0-.33.23-.71.39-.86.82a1,1,0,0,0,.14,1.12,1.2,1.2,0,0,0,1.35.07c.22-.16.42-.33.67-.52C132.19,73,132,72.41,131.4,72.17Z"/><path class="cls-1" d="M52.05,28.21a.64.64,0,0,0-.48.56,3.81,3.81,0,0,1-.33.71,5.17,5.17,0,0,0,.63.54,1,1,0,0,0,1.61-.64,1.19,1.19,0,0,0-.67-1.33C52.51,27.94,52.31,28.15,52.05,28.21Z"/><path class="cls-1" d="M96.29,55.4a1.1,1.1,0,0,0-.61-1.2c-.29-.12-.58-.21-.88-.32-.16.22-.32.44-.49.65a1.21,1.21,0,0,0-.16,1,.45.45,0,0,0,.2.31,3.64,3.64,0,0,0,.9.24A1.07,1.07,0,0,0,96.29,55.4Z"/><path class="cls-1" d="M49,55.84a1.86,1.86,0,0,0,1.13.36c.78-.12,1-.7.76-1.47-.22-.59-.83-.43-1.18-.75,0,0-.16,0-.21.1a1.49,1.49,0,0,0-.58,1.51C48.88,55.52,48.78,55.75,49,55.84Z"/><path class="cls-1" d="M109,97.84a1.1,1.1,0,0,0,1.46-.16,1.17,1.17,0,0,0-.25-1.42l-.59-.53a6.77,6.77,0,0,0-.7.41A.93.93,0,0,0,109,97.84Z"/><path class="cls-1" d="M67.65,36.5A1.55,1.55,0,0,0,68,37.77c.28.28.7.47,1,.31a4.15,4.15,0,0,0,.59-.53c.17-.15.08-.32.07-.5s0-.51,0-.76c-.58-.24-1.12-.5-1.68-.07C67.8,36.29,67.66,36.4,67.65,36.5Z"/><path class="cls-1" d="M67,78.18a1.28,1.28,0,0,0,1.24-.36c.09-.09.21-.22.2-.32a1.53,1.53,0,0,0-.75-1.36.89.89,0,0,0-1.19.27,1.31,1.31,0,0,0-.1,1.26C66.49,78,66.55,78.25,67,78.18Z"/><path class="cls-1" d="M67,102.32a1.23,1.23,0,0,0-.91-.9,5.19,5.19,0,0,0-.67.06c-.42,0-.49.1-.58.74a1.12,1.12,0,0,0,.36,1.12c.33.24.78.07,1.16,0A1.11,1.11,0,0,0,67,102.32Z"/><path class="cls-1" d="M117.77,96.93c-.19,0-.34,0-.45.14a3.25,3.25,0,0,0-.43.68,1.07,1.07,0,0,0,.5,1.37,1.16,1.16,0,0,0,1.25-.48c.15-.21.29-.44.43-.65C118.75,97.49,118.49,97,117.77,96.93Z"/><path class="cls-1" d="M42.62,98.54a2.3,2.3,0,0,0,.27-.6,1,1,0,0,0-.5-1.14,1.1,1.1,0,0,0-1.24.46c-.15.22-.3.44-.46.7a5.92,5.92,0,0,0,.69.8A.77.77,0,0,0,42.62,98.54Z"/><path class="cls-1" d="M100.13,88.85c0,.7.42,1.34.87,1.38a1.42,1.42,0,0,0,1.33-1.3,1.07,1.07,0,0,0-1.15-.93C100.79,88,100.12,88.57,100.13,88.85Z"/><path class="cls-1" d="M107,72a2.24,2.24,0,0,0-.35.41,1,1,0,0,0,.21,1.34,1,1,0,0,0,1.32-.17c.19-.19.36-.39.54-.6a2.2,2.2,0,0,0-.76-1.09A.68.68,0,0,0,107,72Z"/><path class="cls-1" d="M50.63,63.68a1.48,1.48,0,0,0-1.59.47c-.08.1-.18.24-.15.34a1.45,1.45,0,0,0,.65,1.12.94.94,0,0,0,1.13,0,1.18,1.18,0,0,0,.26-1.2Z"/><path class="cls-1" d="M79.94,27.6c.45,0,.7-.33.89-.73s-.22-.85-.2-1.29c0,0-.32-.09-.26-.08a1.58,1.58,0,0,0-1.38.25c-.15.13-.29.23-.24.44A4.1,4.1,0,0,0,79,27,1,1,0,0,0,79.94,27.6Z"/><path class="cls-1" d="M83.59,123.17a1.76,1.76,0,0,0-1-.35c-.31,0-.69.07-.79.41a1.75,1.75,0,0,0,0,1.31.94.94,0,0,0,1.37.37,1,1,0,0,0,.48-1.11C83.77,123.55,83.83,123.29,83.59,123.17Z"/><path class="cls-1" d="M45.33,124.89a1,1,0,0,0,1.17.71,1.07,1.07,0,0,0,.77-1.11c0-.27-.07-.54-.11-.83a4.5,4.5,0,0,1-.63-.17,1,1,0,0,0-1.21.37C45.06,124.15,45.25,124.56,45.33,124.89Z"/><path class="cls-1" d="M121.37,62.39a3.56,3.56,0,0,0,.47-1.09s0-.17-.11-.21a1.58,1.58,0,0,0-1.31-.56c-.08,0-.41,0-.48.17a1.48,1.48,0,0,0-.2,1.4A.93.93,0,0,0,121.37,62.39Z"/><path class="cls-1" d="M63.78,111.05c.29.13.55.3.85.46a5.59,5.59,0,0,0,.67-.62.9.9,0,0,0-.51-1.54,1.15,1.15,0,0,0-1.25.28c-.29.32-.15.68-.07,1A.51.51,0,0,0,63.78,111.05Z"/><path class="cls-1" d="M17.2,67.28c0-.3-.19-.48-.32-.71-.27-.46-.74-.21-1.1-.36s-.75.48-.8,1,.31,1,1,1A1.12,1.12,0,0,0,17.2,67.28Z"/><path class="cls-1" d="M111.84,106a1.1,1.1,0,0,0,1,.62c.4,0,.61-.33.78-.67a.56.56,0,0,0,.09-.49c-.1-.29-.18-.59-.27-.91a4.33,4.33,0,0,0-.8-.07C111.56,104.58,111.46,105.21,111.84,106Z"/><path class="cls-1" d="M105.88,101.91a1.45,1.45,0,0,0-.52-1.36.81.81,0,0,0-.35-.17,1.51,1.51,0,0,0-1.28,1.08.79.79,0,0,0,.22.76,1.06,1.06,0,0,0,.87.32,3.93,3.93,0,0,0,1-.41C105.85,102.1,105.86,102,105.88,101.91Z"/><path class="cls-1" d="M57.87,58.7a1.63,1.63,0,0,0-.42,1.82s.06.06.09.09a1.47,1.47,0,0,0,1.75-.15.84.84,0,0,0,.25-.74A1.72,1.72,0,0,0,58,58.66Z"/><path class="cls-1" d="M79.71,44a1.22,1.22,0,0,0,.51,1.13c.27.15.56.26.84.39.17-.17.31-.34.47-.49a1.09,1.09,0,0,0,.27-1.24,1.21,1.21,0,0,0-1-.48A1,1,0,0,0,79.71,44Z"/><path class="cls-1" d="M113.78,25.64a1,1,0,0,0,1-.54,1.41,1.41,0,0,0-.34-1.21c-.23-.19-.49-.36-.73-.53-.49.33-1,.61-1.11,1.28,0,.13-.08.26,0,.37A1.7,1.7,0,0,0,113.78,25.64Z"/><path class="cls-1" d="M125.47,83.3a.35.35,0,0,0,.23-.12,1.59,1.59,0,0,0,.44-1.41.54.54,0,0,0-.11-.32,1.3,1.3,0,0,0-2,.44.65.65,0,0,0,0,.39A1.82,1.82,0,0,0,125.47,83.3Z"/><path class="cls-1" d="M107.07,51l-.8-.06a4.29,4.29,0,0,0-.33.72c-.25.93.24,1.47,1.21,1.33a1,1,0,1,0-.08-2Z"/><path class="cls-1" d="M93.51,61.38a.8.8,0,0,0-.8.9c0,.35,0,.73.47.89.2.07.34.28.51.43.9-.55.9-.55,1.22-1.51A1.64,1.64,0,0,0,93.51,61.38Z"/><path class="cls-1" d="M91.4,85.12a1.19,1.19,0,0,0-1.24.09l-.69.64c.16.31.29.59.44.85a1.19,1.19,0,0,0,.78.49c.13,0,.27.08.37,0,.23-.28.55-.46.68-.83A1.08,1.08,0,0,0,91.4,85.12Z"/><path class="cls-1" d="M19.86,24.52c.23,0,.45.05.73.08a5.89,5.89,0,0,0,.32-1,.88.88,0,0,0-1.05-1l-.27,0a1,1,0,0,0-.8,1.12A1.11,1.11,0,0,0,19.86,24.52Z"/><path class="cls-1" d="M11.52,79.56a.93.93,0,0,0,0,.13A1.35,1.35,0,0,0,12,80.76,1.39,1.39,0,0,0,13.62,80a1,1,0,0,0-.94-1.2,4.93,4.93,0,0,1-.94,0C11.67,79,11.59,79.3,11.52,79.56Z"/><path class="cls-1" d="M29.22,78.88c-.26,0-.52,0-.81,0a6.7,6.7,0,0,0-.29.9c-.07.37.25,1,.52,1a1.61,1.61,0,0,0,1.17-.2.94.94,0,0,0,.42-1A1.09,1.09,0,0,0,29.22,78.88Z"/><path class="cls-1" d="M44,51.76a1,1,0,0,0-1.26,0A1.26,1.26,0,0,0,42.57,53c.13.23.27.45.41.67,1.08-.18,1.08-.18,1.65-.92A1.91,1.91,0,0,0,44,51.76Z"/><path class="cls-1" d="M60.11,11.9c0,.46.43,1.07.75,1.06.7,0,1.42-.41,1.42-.77A1.45,1.45,0,0,0,61,10.84,1.12,1.12,0,0,0,60.11,11.9Z"/><path class="cls-1" d="M7.3,71.51a3.59,3.59,0,0,0,.76.26c.48.06.86-.3.89-1a1.07,1.07,0,0,0,0-.34.93.93,0,0,0-.67-.79c-.33-.11-.57,0-.86.22-.47.29-.29.72-.4,1.09A.38.38,0,0,0,7.3,71.51Z"/><path class="cls-1" d="M91.6,105.07a.76.76,0,0,0-.25-.85c-.37-.25-.76-.47-1.22-.16a2.22,2.22,0,0,1-.57.15c0,1.15,0,1.19.35,1.6a.56.56,0,0,0,.33.19A1.46,1.46,0,0,0,91.6,105.07Z"/><path class="cls-1" d="M113.62,37.32c-.19.21-.11.39.08.57s.59.59,1.06.53c.23,0,.49,0,.61-.19a2.39,2.39,0,0,0,.29-.89c.06-.78-.61-1.16-1.35-.94C113.77,36.55,113.88,37,113.62,37.32Z"/><path class="cls-1" d="M88.87,97.39a1.11,1.11,0,0,0-.33-1.3c-.2-.15-.42-.3-.63-.44a1.65,1.65,0,0,0-1.16,1.55,5.89,5.89,0,0,0,.83.6A1,1,0,0,0,88.87,97.39Z"/><path class="cls-1" d="M13.4,90.9a7.34,7.34,0,0,0-.84.45.86.86,0,0,0,0,1.51,2.19,2.19,0,0,0,.33.23,1,1,0,0,0,1.22-.26A1.19,1.19,0,0,0,14,91.5Z"/><path class="cls-1" d="M18.19,105.33a1,1,0,0,0,.78.81,7.58,7.58,0,0,0,1,0c.07-.17.15-.38.25-.58a1.18,1.18,0,0,0-.14-1.15c-.14-.24-.88-.24-1.27-.06A.9.9,0,0,0,18.19,105.33Z"/><path class="cls-1" d="M107,24.61c-.12.25-.22.5-.35.8a4.66,4.66,0,0,0,.67.58,1,1,0,0,0,1.55-.94,1.06,1.06,0,0,0-.77-1A1.2,1.2,0,0,0,107,24.61Z"/><path class="cls-1" d="M98,104a.48.48,0,0,0,.6-.08,5.3,5.3,0,0,0,.47-.48,1,1,0,0,0-.1-1.26,1.06,1.06,0,0,0-1.34,0l-.56.53C97.18,103.26,97.34,103.77,98,104Z"/><path class="cls-1" d="M32.92,26.61c.24-.09.5-.17.74-.27a1.11,1.11,0,0,0,.32-.25.93.93,0,0,0,.14-1.22,1.35,1.35,0,0,0-1.69-.13c-.25.12-.34.58-.2,1.06A1.56,1.56,0,0,0,32.92,26.61Z"/><path class="cls-1" d="M81.47,61.37c-.06.36.46.79,1,.82a.92.92,0,0,0,.92-.79,1.15,1.15,0,0,0-.87-1.33c-.25,0-.4.15-.6.24C81.42,60.55,81.53,61,81.47,61.37Z"/><path class="cls-1" d="M77.46,62.27l.7-.36c0-.25-.07-.47-.09-.69a1,1,0,0,0-.7-.9c-.41-.13-.75.19-1,.45A1,1,0,0,0,76.17,62,1.08,1.08,0,0,0,77.46,62.27Z"/><path class="cls-1" d="M21.87,109.67a1.19,1.19,0,0,0-1,.93c-.05.22-.1.44-.18.76,1,.57,1,.57,1.55.46.12,0,.3-.09.32-.18a2.26,2.26,0,0,0,.2-1.06A1.17,1.17,0,0,0,21.87,109.67Z"/><path class="cls-1" d="M87.72,27.32a3.67,3.67,0,0,0,.82.68s.08,0,.13,0a1.6,1.6,0,0,0,1.06-1.4c0-.07,0-.18-.11-.22a2.54,2.54,0,0,0-.92-.55,1.09,1.09,0,0,0-1,.48A.94.94,0,0,0,87.72,27.32Z"/><path class="cls-1" d="M35.19,75.45l.78-.36c0-.6.05-1.09-.41-1.45-.14-.11-.28-.26-.47-.2a1.73,1.73,0,0,0-1,.58A.92.92,0,0,0,34,75.14,1.15,1.15,0,0,0,35.19,75.45Z"/><path class="cls-1" d="M7.17,63.82a.5.5,0,0,0,.13,0,.86.86,0,0,0,1.1-1,1.14,1.14,0,0,0-.15-.65c-.42-.63-1-.69-1.46-.18a.93.93,0,0,0-.29.83C6.49,63.56,6.55,63.65,7.17,63.82Z"/><path class="cls-1" d="M56.71,49.92c.25.08.51.14.9.25a6.31,6.31,0,0,0,.53-1,.71.71,0,0,0-.18-.86,1.44,1.44,0,0,0-1.17-.22c-.4.14-.8.54-.74.87A1,1,0,0,0,56.71,49.92Z"/><path class="cls-1" d="M116.16,62.92a.83.83,0,0,0-.06.9,1.79,1.79,0,0,0,.92.55,1.08,1.08,0,0,0,1-.52,1.24,1.24,0,0,0-.26-1.12c-.21-.17-.44-.31-.79-.55A10.53,10.53,0,0,0,116.16,62.92Z"/><path class="cls-1" d="M102.78,35.32a1.07,1.07,0,0,0-1,.89c0,.22-.09.43-.16.78a5.83,5.83,0,0,0,.76.37c.91.3,1.49-.23,1.32-1.17A1.09,1.09,0,0,0,102.78,35.32Z"/><path class="cls-1" d="M71.43,15.56a3,3,0,0,0,.53.14.88.88,0,0,0,1-1.1c-.07-.58-.64-.59-.89-.95-.06-.09-.25-.06-.36,0a5.49,5.49,0,0,0-.52.44A.83.83,0,0,0,71.43,15.56Z"/><path class="cls-1" d="M84,16.41a.91.91,0,0,0,1-.79,1.24,1.24,0,0,0-.58-1.07c-.54-.31-.56-.37-1,0s-.69.93-.52,1.15A1.51,1.51,0,0,0,84,16.41Z"/><path class="cls-1" d="M85.85,119.55c.81,0,1.43-.5,1.38-1.13a1.08,1.08,0,0,0-1-.83c-.72,0-1.1.39-1.09,1A.9.9,0,0,0,85.85,119.55Z"/><path class="cls-1" d="M76.93,102.42a2.16,2.16,0,0,0,.45.29c.92.41,1.5,0,1.47-.95a1,1,0,0,0-.61-1c-.4-.2-.67,0-1,.23-.47.28-.29.81-.47,1.19C76.77,102.25,76.86,102.37,76.93,102.42Z"/><path class="cls-1" d="M69.73,64.81c.37.5.89.31,1.37.39a1.84,1.84,0,0,0,.42-1.11c0-.25,0-.61-.31-.7a1.44,1.44,0,0,0-1.31,0A.85.85,0,0,0,69.73,64.81Z"/><path class="cls-1" d="M34.21,58a1.44,1.44,0,0,0-.08.25c-.11,1,.38,1.28,1.16,1.12a1.38,1.38,0,0,0,.48-.21c.31-.21.54-.69.43-.92a1.13,1.13,0,0,0-.86-.76,1.42,1.42,0,0,0-.37,0C34.4,57.53,34.36,57.56,34.21,58Z"/><path class="cls-1" d="M46.49,118.46c-.41,0-.6.33-.76.67a.64.64,0,0,0,0,.63,7,7,0,0,1,.3.79c.21,0,.43,0,.65,0,1-.11,1.29-.83.75-1.59A1.07,1.07,0,0,0,46.49,118.46Z"/><path class="cls-1" d="M28.16,44a1.06,1.06,0,0,0,.25.09c.69.17,1.15-.31,1.15-1s-.6-.72-.85-1.11c0,0-.09,0-.16,0a3.82,3.82,0,0,0-.55.31C27.22,42.86,27.29,43.58,28.16,44Z"/><path class="cls-1" d="M62.78,26.73a1.2,1.2,0,0,0,1,.2c.18,0,.3-.42.42-.66a1.06,1.06,0,0,0,.09-.4,1,1,0,0,0-.67-1.06,1.28,1.28,0,0,0-1.12.53c-.13.23-.26.45-.42.71C62.34,26.28,62.55,26.51,62.78,26.73Z"/><path class="cls-1" d="M37.22,99.83c.48-.08.61-.43.84-.76s.14-.52-.09-.79a1.15,1.15,0,0,0-.91-.47c-.18,0-.37-.1-.5.07a2,2,0,0,0-.45,1A.92.92,0,0,0,37.22,99.83Z"/><path class="cls-1" d="M127,78.59a1.54,1.54,0,0,0,.14,1.41.89.89,0,0,0,1.3.14.94.94,0,0,0,.39-1c.12-.24.11-.5-.12-.59-.44-.17-.91-.42-1.41-.13C127.22,78.44,127.05,78.5,127,78.59Z"/><path class="cls-1" d="M76.15,39.71a8,8,0,0,0,.83.35c.71-.83.71-.83.73-1.27a.57.57,0,0,0-.36-.65,5.16,5.16,0,0,0-.49-.21,1.09,1.09,0,0,0-1.14.51A1.06,1.06,0,0,0,76.15,39.71Z"/><path class="cls-1" d="M54.91,6.16a1,1,0,0,0,.86-1c0-.26,0-.53-.05-.83a3.93,3.93,0,0,0-.64-.2c-1-.17-1.49.35-1.19,1.31A1,1,0,0,0,54.91,6.16Z"/><path class="cls-1" d="M6.79,43.67a.85.85,0,0,0,.44-.87c.11-.57.1-.6-.35-.82s-1.16-.29-1.38,0a1.43,1.43,0,0,0-.15,1.16A.88.88,0,0,0,6.79,43.67Z"/><path class="cls-1" d="M127.85,47.61a1.84,1.84,0,0,0,1.06.14c.42-.11.82-.49.79-.83a1.05,1.05,0,0,0-.63-1,6.29,6.29,0,0,0-.91-.25c-.34.45-.76.83-.59,1.46C127.62,47.35,127.67,47.55,127.85,47.61Z"/><path class="cls-1" d="M81.35,53.31l.3-.58a1.12,1.12,0,0,0,.11-.25c.09-.39-.09-1-.37-1.06a1.32,1.32,0,0,0-1.16,0,.94.94,0,0,0-.55.86,1.17,1.17,0,0,0,.85.89Z"/><path class="cls-1" d="M80.91,94.32a1.23,1.23,0,0,0-1-1.36c-.42,0-.91.49-.93,1a1,1,0,0,0,1,1.11C80.46,95.06,80.91,94.72,80.91,94.32Z"/><path class="cls-1" d="M42.76,49.85a1,1,0,0,0,1-.11,1.13,1.13,0,0,0,.2-1.12,9.41,9.41,0,0,0-.49-.83,4.6,4.6,0,0,0-1,.27.73.73,0,0,0-.48.74A1.39,1.39,0,0,0,42.76,49.85Z"/><path class="cls-1" d="M14.57,71.22a1,1,0,0,0-1,.53A1,1,0,0,0,14.1,73c.23.12.48.22.74.34l.49-.46a1,1,0,0,0,.26-1.12C15.44,71.36,15,71.25,14.57,71.22Z"/><path class="cls-1" d="M121,48c.05.06.25,0,.38,0,.67-.08,1.24-.52,1.18-.89A1.27,1.27,0,0,0,121.17,46a1,1,0,0,0-.72,1A3.31,3.31,0,0,0,121,48Z"/><path class="cls-1" d="M62.9,70.25a1,1,0,0,0,.27.87,3,3,0,0,0,.9.56s.15-.06.21-.11A1.58,1.58,0,0,0,65,70.34c0-.19,0-.35-.2-.45a1.9,1.9,0,0,0-1-.34A1,1,0,0,0,62.9,70.25Z"/><path class="cls-1" d="M34.52,20.51c.42.28.84.11,1.26,0,.26-.07.38-.21.34-.48a1.35,1.35,0,0,0-.31-1.12c-.13-.13-.27-.29-.45-.25a1.56,1.56,0,0,0-1.12.67A.84.84,0,0,0,34.52,20.51Z"/><path class="cls-1" d="M20.5,75.52a2.54,2.54,0,0,1,0,.68l.63.23a1,1,0,0,0,1.13-.24,1.06,1.06,0,0,0,.05-1.14.89.89,0,0,0-1.59-.25A.67.67,0,0,0,20.5,75.52Z"/><path class="cls-1" d="M46.07,68.62a1,1,0,0,0-.54,1.53.92.92,0,0,0,.7.57c.42.06.66-.22.91-.47s.07-.43.11-.66.16-.47-.07-.61S46.53,68.49,46.07,68.62Z"/><path class="cls-1" d="M49.09,46.86c.55-.06,1-.52.9-1-.08-.29-.14-.64-.43-.81a6.43,6.43,0,0,0-.84-.36c-.37,0-.92.89-.89,1.37S48.54,46.92,49.09,46.86Z"/><path class="cls-1" d="M123.13,42.08a1,1,0,0,0,1.23-.18,1.06,1.06,0,0,0-.09-1.33c-.19-.19-.4-.35-.61-.53a4.77,4.77,0,0,0-.6.29C122.24,40.91,122.27,41.58,123.13,42.08Z"/><path class="cls-1" d="M107.94,116.12a.26.26,0,0,0,.25-.06c.27-.35.61-.67.55-1.19-.09-.18,0-.47-.24-.58a1.43,1.43,0,0,0-1.29-.15.89.89,0,0,0-.45,1.23C107,115.94,107.54,115.89,107.94,116.12Z"/><path class="cls-1" d="M32,63.76c.48,0,.76-.35.78-.9,0-.38-.57-1.16-.88-1.18a1.38,1.38,0,0,0-1.18,1.1C30.66,63.21,31.41,63.77,32,63.76Z"/><path class="cls-1" d="M60.38,20.82c.21-.16.12-.82-.17-1.22a1.39,1.39,0,0,0-.78-.53,6.39,6.39,0,0,0-.76.52,1.09,1.09,0,0,0,0,1.46A1.68,1.68,0,0,0,60.38,20.82Z"/><path class="cls-1" d="M56.26,110a.92.92,0,0,0-1.52,1c.11.25.25.47.39.73a4.87,4.87,0,0,0,.65-.1C56.75,111.41,57,110.7,56.26,110Z"/><path class="cls-1" d="M32.34,39.66A1.26,1.26,0,0,0,33,39c0-.46,0-.69-.08-.91a.31.31,0,0,0-.14-.2,1.27,1.27,0,0,0-1.4,0c-.11.07-.24.18-.25.29a1.45,1.45,0,0,0,.25,1.16A1,1,0,0,0,32.34,39.66Z"/><path class="cls-1" d="M68.65,131.76a.67.67,0,0,0,.12-.06.89.89,0,0,0,.11-1.61c-.21-.16-.42-.1-.66-.1-.74-.06-.51-.06-.82.57a.94.94,0,0,0,.22,1.11C67.88,131.94,68.29,131.84,68.65,131.76Z"/><path class="cls-1" d="M94.07,38.38a1.06,1.06,0,0,0,.23-1.24,1,1,0,0,0-1.2-.38,8.19,8.19,0,0,0-.82.44c0,.22.06.45.12.67C92.67,38.83,93.34,39,94.07,38.38Z"/><path class="cls-1" d="M92.91,77.7c.18.23.3.44.64.29.16-.07.35-.08.52-.15a1,1,0,0,0,.66-.94c0-.36-.28-.66-.72-.88s-.76.19-1.16.2c-.21,0-.11.39-.19.62A1.43,1.43,0,0,0,92.91,77.7Z"/><path class="cls-1" d="M70.07,56.17a3.63,3.63,0,0,0,.78.17c.59,0,.8-.21.78-1,0,.1,0,0,0-.17a1.05,1.05,0,0,0-.8-.81c-.36-.08-.56.18-.81.37s-.19.66-.27,1A.39.39,0,0,0,70.07,56.17Z"/><path class="cls-1" d="M72.66,90.17a6.18,6.18,0,0,0,.79-.45,5.1,5.1,0,0,0-.13-.68c-.26-.89-.93-1.09-1.6-.47l-.09.1a1,1,0,0,0-.16,1.13A1,1,0,0,0,72.66,90.17Z"/><path class="cls-1" d="M86.23,79a1,1,0,0,0-.2,1.24,1,1,0,0,0,1.21.31,6.07,6.07,0,0,0,.69-.44,4.76,4.76,0,0,0-.09-.66C87.57,78.53,86.89,78.35,86.23,79Z"/><path class="cls-1" d="M102.33,119.78a1.13,1.13,0,0,0,.27,1.23c.21.16.46.29.77.48A5.34,5.34,0,0,0,104,121c.62-.66.44-1.35-.42-1.66A1.08,1.08,0,0,0,102.33,119.78Z"/><path class="cls-1" d="M45.13,82.08c.14-.22.26-.46.41-.72a5.12,5.12,0,0,0-.44-.48c-.75-.66-1.47-.42-1.67.52a.92.92,0,0,0,1.7.68Z"/><path class="cls-1" d="M18.59,99.34a2.14,2.14,0,0,0,.42-1c.06-.31-.64-.82-1.07-.85s-.92.42-1,1a1,1,0,0,0,.88,1.11A1.85,1.85,0,0,0,18.59,99.34Z"/><path class="cls-1" d="M50.66,20.61c.87-.6.87-.6,1.15-1.54a6.64,6.64,0,0,0-.75-.56,1,1,0,0,0-1.31.32A1.12,1.12,0,0,0,50,20.12Z"/><path class="cls-1" d="M97.86,122c.08-.25,0-.63-.19-.75a1.39,1.39,0,0,0-1.3-.15.86.86,0,0,0-.56.71,1.18,1.18,0,0,0,.63,1c.25.09.52.15.87.25A6.53,6.53,0,0,0,97.86,122Z"/><path class="cls-1" d="M41.75,61.6a1,1,0,0,0-1.12.12c-.2.18-.37.38-.55.57a1.42,1.42,0,0,0,1,1.19c.13,0,.26.08.37,0s.5-.39.59-.73A1,1,0,0,0,41.75,61.6Z"/><path class="cls-1" d="M95,114.65a.78.78,0,0,0,.88.8c.48,0,.53,0,.79-.36s.49-.33.46-.65a1.49,1.49,0,0,0-1.28-1C95.43,113.42,94.93,114.15,95,114.65Z"/><path class="cls-1" d="M121.43,88.27c-.23.12-.45.27-.64.38a1.5,1.5,0,0,0,.9,1.58,2.37,2.37,0,0,0,.89-.55.92.92,0,0,0,.07-1.24A1.12,1.12,0,0,0,121.43,88.27Z"/><path class="cls-1" d="M57.11,84.22a1.54,1.54,0,0,0-1.3.19.86.86,0,0,0-.19,1.2.94.94,0,0,0,1,.46c.43.17.56-.12.72-.42a1.27,1.27,0,0,0,0-1.17C57.32,84.35,57.25,84.24,57.11,84.22Z"/><path class="cls-1" d="M103.47,59.93a1,1,0,0,0-1.14.39,7.87,7.87,0,0,0-.39.7c.14.17.27.35.42.52a1,1,0,0,0,1.1.3,1.25,1.25,0,0,0,.53-.9A.93.93,0,0,0,103.47,59.93Z"/><path class="cls-1" d="M84.51,90.37a1.58,1.58,0,0,0,1.07,1.07.35.35,0,0,0,.24-.08,3.11,3.11,0,0,0,.48-.48.85.85,0,0,0-.42-1.4,2.36,2.36,0,0,0-.42-.1C84.79,89.41,84.44,89.83,84.51,90.37Z"/><path class="cls-1" d="M115.55,86.9a3.49,3.49,0,0,0-1,.28c-.1,0-.1.32-.12.4,0,.79.31,1.41.7,1.41a1.31,1.31,0,0,0,1.39-1.21A1.18,1.18,0,0,0,115.55,86.9Z"/><path class="cls-1" d="M91.87,91.56c-.45.75-.16,1.32.71,1.43h.27a1,1,0,0,0,.93-.68,1.11,1.11,0,0,0-.6-1.08l-.8-.3A7.28,7.28,0,0,0,91.87,91.56Z"/><path class="cls-1" d="M76.43,78c.37.13.71.41,1.15.26s.66-.3.74-.71a1.11,1.11,0,0,0-.63-1.06c-.25-.09-.5-.16-.75-.23a1.44,1.44,0,0,0-.66,1.39C76.31,77.79,76.35,78,76.43,78Z"/><path class="cls-1" d="M29,16.2a3.87,3.87,0,0,0,.7-.05s.31.2.51-.24a1.08,1.08,0,0,0,0-1.26c-.08-.1-.21-.22-.32-.22a1.94,1.94,0,0,0-1.18.21.82.82,0,0,0-.4.81A1,1,0,0,0,29,16.2Z"/><path class="cls-1" d="M2.44,78a1.07,1.07,0,0,0,1.23-.31,1,1,0,0,0-.26-1.32c-.21-.17-.44-.31-.69-.48a3.62,3.62,0,0,0-.54.36C1.29,77.06,1.65,77.62,2.44,78Z"/><path class="cls-1" d="M90.11,14.37a1.07,1.07,0,0,0,.49,1.12c.22.13.47.22.72.34a1.72,1.72,0,0,0,.78-1c.1-.47,0-.74-.4-.85-.18,0-.33-.15-.5-.18A1,1,0,0,0,90.11,14.37Z"/><path class="cls-1" d="M14.75,30.63c.12.05.22.15.34.21a.82.82,0,0,0,1.25-.8,2.67,2.67,0,0,0,0-.4.92.92,0,0,0-1-.91c-.49,0-.74.34-.79,1a1.3,1.3,0,0,1-.09.39C14.4,30.36,14.51,30.52,14.75,30.63Z"/><path class="cls-1" d="M118.78,34.12a.93.93,0,0,0,.82-1c0-.37-.54-1-.77-1-.66,0-1.36.55-1.31,1A1.37,1.37,0,0,0,118.78,34.12Z"/><path class="cls-1" d="M95.24,32.11a1,1,0,0,0-.15-1.25,1.17,1.17,0,0,0-1.27.06c-.2.16-.4.34-.6.52.12.27.18.49.29.68C94,33,94.75,33,95.24,32.11Z"/><path class="cls-1" d="M99.48,23.06c0,.26,0,.52-.06.9.54.22,1,.51,1.59.21.11-.06.29-.14.3-.22,0-.39.19-.79,0-1.19a.89.89,0,0,0-1-.52A1,1,0,0,0,99.48,23.06Z"/><path class="cls-1" d="M26,88a1.3,1.3,0,0,0-.85-.81,1,1,0,0,0-1.11.28,1.18,1.18,0,0,0,.14,1.24l.51.61a6.09,6.09,0,0,0,1-.49A.74.74,0,0,0,26,88Z"/><path class="cls-1" d="M60.72,2c.54,0,.78-.27.79-.87A1,1,0,0,0,60.61,0c-.59,0-1,.5-1,1.34C59.59,1.71,60.12,2,60.72,2Z"/><path class="cls-1" d="M100.44,51.49a1.13,1.13,0,0,0-1.25.09c-.22.13-.27.93-.09,1.27a.84.84,0,0,0,1.34.34c.3-.25.51-.5.38-.9C100.88,51.69,100.85,51.74,100.44,51.49Z"/><path class="cls-1" d="M85.91,57.56a1.66,1.66,0,0,0,1-1.29.35.35,0,0,0-.1-.23,1.89,1.89,0,0,0-1-.57,1,1,0,0,0-.94.64,1.48,1.48,0,0,0,.92,1.45Z"/><path class="cls-1" d="M79.61,5.81s0-.09,0-.14a.93.93,0,0,0-.54-1A1.17,1.17,0,0,0,77.92,5l-.48.7a7.49,7.49,0,0,0,.51.61C78.68,7,79.4,6.77,79.61,5.81Z"/><path class="cls-1" d="M38.35,66a1,1,0,0,0-1.14,0A1.05,1.05,0,0,0,37,67.16a7.37,7.37,0,0,0,.52.73,4.84,4.84,0,0,0,.69-.19C39.08,67.29,39.14,66.56,38.35,66Z"/><path class="cls-1" d="M114.61,29.69a1,1,0,0,0-.13-1,1.29,1.29,0,0,0-1.11-.17c-.23.12-.46.26-.72.41a7.12,7.12,0,0,0,.13.91c.07.3.58.69.78.62C114,30.3,114.41,30.17,114.61,29.69Z"/><path class="cls-1" d="M33.51,47.14c-.35,0-.73,0-1,.32a7.49,7.49,0,0,1-.51.61c.29.48.48,1,1.12,1.09.13,0,.23.12.37,0a1.51,1.51,0,0,0,.62-1.42A.75.75,0,0,0,33.51,47.14Z"/><path class="cls-1" d="M79,18.94a1.12,1.12,0,0,0,.75.85c.25.06.52.1.79.15A1.61,1.61,0,0,0,81,18.48c0-.12-.08-.31-.16-.33-.38-.09-.75-.31-1.18-.13A.94.94,0,0,0,79,18.94Z"/><path class="cls-1" d="M104.72,28.06c.46.09.65-.37,1-.68s.15-.36,0-.58a1.26,1.26,0,0,0-.92-.73.84.84,0,0,0-.39,0,1.29,1.29,0,0,0-.51,1.53A.72.72,0,0,0,104.72,28.06Z"/><path class="cls-1" d="M41.77,86.18c0,.78.42,1.32,1,1.34a1,1,0,0,0,.91-1c0-.79-.16-1-.84-1S41.77,85.75,41.77,86.18Z"/><path class="cls-1" d="M42.41,20.15c-.08.17-.16.32,0,.49a3.56,3.56,0,0,0,.41.53,1,1,0,0,0,1.34.06,1.06,1.06,0,0,0,0-1.3l-.4-.53A1.4,1.4,0,0,0,42.41,20.15Z"/><path class="cls-1" d="M112.64,80.58a1,1,0,0,0,1-.6,7.7,7.7,0,0,0,.21-.94l-.41-.32a1,1,0,0,0-1.14-.11c-.44.26-.29.72-.36,1.1a.3.3,0,0,0,0,.13A1,1,0,0,0,112.64,80.58Z"/><path class="cls-1" d="M6,83.28a1.43,1.43,0,0,0-1.24,1.24,1,1,0,0,0,1,.89c.3,0,1-.52,1-.7C6.79,84.09,6.34,83.31,6,83.28Z"/><path class="cls-1" d="M29,31a1.14,1.14,0,0,0,.54,1c.25.11.51.17.82.27.3-.41.65-.68.63-1.13,0-.21,0-.49-.21-.6a1.63,1.63,0,0,0-.89-.27A1.08,1.08,0,0,0,29,31Z"/><path class="cls-1" d="M60.94,52.7c0,.22,0,.43-.08.66a1.61,1.61,0,0,0,1.23.43c.4,0,.56-.16.62-.55a2.48,2.48,0,0,0,.06-.54,1,1,0,0,0-.86-.9A1,1,0,0,0,60.94,52.7Z"/><path class="cls-1" d="M46.3,8.51c.26,0,.41-.21.58-.35a1,1,0,0,0,.36-1.1c-.11-.37-.53-.5-.88-.56a.94.94,0,0,0-1,.36,1,1,0,0,0,0,.91C45.52,8.23,46.06,8.19,46.3,8.51Z"/><path class="cls-1" d="M9.66,59a1.27,1.27,0,0,0,1.35-1,1.11,1.11,0,0,0-.86-.9,1,1,0,0,0-1.15.8C8.93,58.35,9.26,58.93,9.66,59Z"/><path class="cls-1" d="M65.06,4.52c.24.13.48.23.72.34.35-.4.83-.71.73-1.36,0-.18,0-.36-.2-.45a3.38,3.38,0,0,0-.62-.26,1,1,0,0,0-1.15.5A1,1,0,0,0,65.06,4.52Z"/><path class="cls-1" d="M54.58,90.06s-.16,0-.22.08c-.31.25-.7.45-.74.93,0,.18-.09.37.07.51a1.48,1.48,0,0,0,1.22.48.8.8,0,0,0,.7-.73,1.46,1.46,0,0,0-.24-.76A2.82,2.82,0,0,0,54.58,90.06Z"/><path class="cls-1" d="M77.06,117.83c.37-.15.78-.25.92-.71,0-.12.14-.2.09-.36a1.36,1.36,0,0,0-1.22-.89c-.46,0-.72.25-.77.76s.23.69.43,1A.4.4,0,0,0,77.06,117.83Z"/><path class="cls-1" d="M36.28,120.13c.11-.19.21-.39.37-.69a3.77,3.77,0,0,0-.49-.54c-.7-.58-1.35-.38-1.61.5a1.1,1.1,0,0,0,.46,1.18A1,1,0,0,0,36.28,120.13Z"/><path class="cls-1" d="M64.94,120.72a1.1,1.1,0,0,0,.85-.9c0-.26,0-.53,0-.81a3.46,3.46,0,0,0-.58-.28c-1-.28-1.49.26-1.27,1.23A1,1,0,0,0,64.94,120.72Z"/><path class="cls-1" d="M75.28,84.6a1,1,0,0,0-.48-1c-.34-.22-.61,0-.89.08-.52.21-.32.8-.61,1.14a.51.51,0,0,0,.13.21c.14.11.28.23.43.33C74.61,85.78,75.19,85.49,75.28,84.6Z"/><path class="cls-1" d="M127.13,89.46a1.37,1.37,0,0,0,1.13-1.28c0-.31-.82-.73-1.32-.7s-.73.55-.68,1.1A1,1,0,0,0,127.13,89.46Z"/><path class="cls-1" d="M21.23,43.4c-.25.1-.48.24-.75.37,0,.21.07.43.09.66a.94.94,0,0,0,.72.88c.36.09.68-.2.94-.43a.94.94,0,0,0,.17-1.12A1,1,0,0,0,21.23,43.4Z"/><path class="cls-1" d="M33.72,105.66a1.46,1.46,0,0,0,.85-1.29.88.88,0,0,0-1.11-.73c-.27,0-1,.68-.94.87C32.54,104.94,33.35,105.71,33.72,105.66Z"/><path class="cls-1" d="M23.05,27.4c.1.07.23.17.33.15a1.38,1.38,0,0,0,1.09-.72.86.86,0,0,0-.06-.91,1.12,1.12,0,0,0-1.08-.34c-.25.1-.48.24-.73.36C22.55,26.49,22.52,27,23.05,27.4Z"/><path class="cls-1" d="M110.83,93.46c-.15.1-.33.17-.34.38a1.79,1.79,0,0,0,.18,1,1,1,0,0,0,.91.46,1.12,1.12,0,0,0,.73-1c0-.26,0-.52-.07-.79C111.78,93.43,111.33,93.14,110.83,93.46Z"/><path class="cls-1" d="M81.55,81.63a.79.79,0,0,0-1.1-.63c-.57.15-.64.68-.9,1.06a1.52,1.52,0,0,0,1.52.9C81.62,82.05,81.62,82.05,81.55,81.63Z"/><path class="cls-1" d="M129.08,54.18a1.36,1.36,0,0,0,.33.57.87.87,0,0,0,1.1.09c.42-.41.27-.83.16-1.34s-.41-.51-.77-.59C129.09,52.83,128.74,53.38,129.08,54.18Z"/><path class="cls-1" d="M123.77,51.22a1.08,1.08,0,0,0,.13,1.25,1,1,0,0,0,1.32-.07l.55-.51a5.39,5.39,0,0,0-.4-.8A.89.89,0,0,0,123.77,51.22Z"/><path class="cls-1" d="M78,125.76c0-.25,0-.55-.21-.72s-.49.13-.62.53a1.45,1.45,0,0,0,0,.51c0,.32-.29.57-.26.91a.78.78,0,0,0,1,.79c.32,0,.59-.13.7-.51a1.76,1.76,0,0,1,.36-.51A1.94,1.94,0,0,0,78,125.76Z"/><path class="cls-1" d="M2,59.08a.92.92,0,0,0-.66-.9A1.19,1.19,0,0,0,0,59.11,1,1,0,0,0,1,60,.9.9,0,0,0,2,59.08Z"/><path class="cls-1" d="M61.73,41.62c-.65,0-1.29.36-1.29.75a1.4,1.4,0,0,0,1.11,1.22,1,1,0,0,0,.94-1C62.47,42.25,62,41.62,61.73,41.62Z"/><path class="cls-1" d="M39.65,125.08c.76-.06,1.28-.51,1.28-1.12a1.07,1.07,0,0,0-.91-.86,1,1,0,0,0-1.08.88C39,124.59,39.28,125.11,39.65,125.08Z"/><path class="cls-1" d="M49.33,87.44c.14,0,.41,0,.56-.16a1.92,1.92,0,0,0,.56-.74c.14-.36-.7-1.11-1.16-1.1s-.85.63-.86,1.1A.9.9,0,0,0,49.33,87.44Z"/><path class="cls-1" d="M28.26,116.7c-.44,0-1.13.67-1.16,1.16a.83.83,0,0,0,.88.83c.4,0,1.15-.47,1.15-.74C29.13,117.42,28.64,116.72,28.26,116.7Z"/><path class="cls-1" d="M72.68,127.57c-.19-.12-.39-.22-.65-.36a2.31,2.31,0,0,0-.81.77.75.75,0,0,0,.28,1c.12.06.24.13.36.18a1,1,0,0,0,1.25-.49A1,1,0,0,0,72.68,127.57Z"/><path class="cls-1" d="M88,71.48a1.33,1.33,0,0,0,1,.81.44.44,0,0,0,.36-.07,1.56,1.56,0,0,0,.59-1c0-.59-.44-.92-1.06-.9s-.53.44-.82.63S87.87,71.25,88,71.48Z"/><path class="cls-1" d="M92.36,111.69a.87.87,0,0,0-1-.86,1,1,0,0,0-1.1.81c-.08.55.42,1,1.26,1.06C91.94,112.74,92.34,112.23,92.36,111.69Z"/><path class="cls-1" d="M86.32,31.47a1.27,1.27,0,0,0-1.26,1.17,1,1,0,0,0,.9.85c.4,0,1.07-.41,1.07-.72C87,32.08,86.71,31.48,86.32,31.47Z"/><path class="cls-1" d="M55,68c-.18.07-.43-.09-.6.14a1.36,1.36,0,0,0,0,1.51.45.45,0,0,0,.31.2,1.44,1.44,0,0,0,.91-.13,1,1,0,0,0,.52-1,1.12,1.12,0,0,0-.87-.74A1.59,1.59,0,0,0,55,68Z"/><path class="cls-1" d="M90.77,54.92c-.24.19-.44.42-.65.62.21.53.4,1,1,1.21a.5.5,0,0,0,.6-.15c.13-.18.31-.33.42-.52A1,1,0,0,0,92,54.94,1,1,0,0,0,90.77,54.92Z"/><path class="cls-1" d="M23.94,95.75a3.92,3.92,0,0,0-.43-.54c-.69-.64-1.32-.48-1.62.38a1,1,0,0,0,.44,1.15,1,1,0,0,0,1.16-.33C23.64,96.2,23.78,96,23.94,95.75Z"/><path class="cls-1" d="M59.45,35.17a1.26,1.26,0,0,0-.57,1c.07.66.26.9.73.91a1.16,1.16,0,0,0,1-.28c.09-.09.24-.21.23-.28-.09-.39-.07-.82-.41-1.12A.94.94,0,0,0,59.45,35.17Z"/><path class="cls-1" d="M95.68,68.62c-.08.15-.15.31-.24.45a1,1,0,0,0,.07,1.26c.25.28.68.19,1,.14a1,1,0,0,0,.78-.83,1.08,1.08,0,0,0-.81-.93C96.25,68.66,96,68.65,95.68,68.62Z"/><path class="cls-1" d="M50.52,94.6a1.08,1.08,0,0,0-.69,1c0,.26.07.53.11.8.29,0,.56.12.83.15a.94.94,0,0,0,.4-.07c.22-.07.46-.19.48-.43a1.34,1.34,0,0,0-.19-1A1,1,0,0,0,50.52,94.6Z"/><path class="cls-1" d="M17.64,56.17c.3,0,.7-.7.7-1.19s-.43-.78-1.06-.75a1,1,0,0,0-.91.82A1.4,1.4,0,0,0,17.64,56.17Z"/><path class="cls-1" d="M57.41,30.67c.44.21.76-.22,1.16-.26,0,0,.08-.32.09-.37a1.07,1.07,0,0,0-.57-1.25,1,1,0,0,0-1,.3.94.94,0,0,0-.39.82C56.74,30.35,57.08,30.51,57.41,30.67Z"/><path class="cls-1" d="M61.34,102.33c.15-.37.08-.54-.19-.63a3,3,0,0,0-.63-.23c-.7-.07-1,.27-1,.8a2.27,2.27,0,0,0,.05.53.87.87,0,0,0,1.31.47C61.37,103,61.26,102.58,61.34,102.33Z"/><path class="cls-1" d="M76.12,95.56a.78.78,0,0,0-.54-.7c-.57-.24-.94.16-1.36.39a.29.29,0,0,0-.1.23,1.27,1.27,0,0,0,.7,1.23.61.61,0,0,0,.37.06A1.27,1.27,0,0,0,76.12,95.56Z"/><path class="cls-1" d="M74.58,50.35a1,1,0,0,0,.85,1c.25,0,.51.07.78.1a4.25,4.25,0,0,0,.35-.71c.23-.81-.21-1.3-1-1.21A1,1,0,0,0,74.58,50.35Z"/><path class="cls-1" d="M102.15,110.17a1,1,0,0,0,1-.73,1.4,1.4,0,0,0-1.18-1.28c-.25,0-.77.71-.81,1.12S101.56,110.13,102.15,110.17Z"/><path class="cls-1" d="M50.83,111.87l.05-.12a1,1,0,0,0-.39-1.18,1,1,0,0,0-1.16.33l-.47.58a6.35,6.35,0,0,0,.41.63C49.86,112.74,50.5,112.64,50.83,111.87Z"/><path class="cls-1" d="M107.82,91.72a.66.66,0,0,0,0-.14,1,1,0,0,0-.63-.93.91.91,0,0,0-1.08.54c-.1.24-.17.49-.26.75a6.7,6.7,0,0,0,.53.45C107.14,92.84,107.69,92.58,107.82,91.72Z"/><path class="cls-1" d="M61.41,127.79a1,1,0,0,0,1-.17,1,1,0,0,0,0-1.12,5.86,5.86,0,0,0-.66-.6,2.32,2.32,0,0,0-.84.44.71.71,0,0,0,.06,1.15A1.63,1.63,0,0,0,61.41,127.79Z"/><path class="cls-1" d="M14.17,60.18c-.12,0-.24-.09-.35,0a4.19,4.19,0,0,0-.51.62,1,1,0,0,0,.22,1.21,1,1,0,0,0,1.28-.25l.43-.51C14.72,60.35,14.72,60.35,14.17,60.18Z"/><path class="cls-1" d="M55.36,122.79a.93.93,0,0,0,0-1.14,1.09,1.09,0,0,0-1-.26.9.9,0,0,0-.8.78,1.12,1.12,0,0,0,.67.9c.26.07.52.12.78.18Z"/><path class="cls-1" d="M110.08,20.74c.82,0,1.37-.46,1.3-1a1,1,0,0,0-1.1-.73c-.66,0-.85.23-.84.89C109.46,20.36,109.75,20.75,110.08,20.74Z"/><path class="cls-1" d="M72.3,70.77c-.61,0-1.15.3-1.15.69a1.14,1.14,0,0,0,1,1.22.91.91,0,0,0,.87-.86C73.07,71.21,72.77,70.79,72.3,70.77Z"/><path class="cls-1" d="M44.34,93.43a.57.57,0,0,0,.25-.3,1,1,0,0,0-.16-1,8,8,0,0,0-.61-.55c-.91.43-.92.43-1.08.9a.6.6,0,0,0,0,.37A1.27,1.27,0,0,0,44.34,93.43Z"/><path class="cls-1" d="M100.91,78.69c.54-.1,1.16-.64,1.16-1s-.77-1-1.29-1-.73.39-.71,1S100.6,78.74,100.91,78.69Z"/><path class="cls-1" d="M122.49,79.48a1.06,1.06,0,0,0,1.14-.24c.22-.23.13-.95-.1-1.29l-.09-.1a.77.77,0,0,0-1.18,0c-.25.22-.47.45-.3.81C122,79.2,122.06,79.36,122.49,79.48Z"/><path class="cls-1" d="M53.16,106.26a1.25,1.25,0,0,0,.32-1.35.76.76,0,0,0-.6-.48,1.32,1.32,0,0,0-1.27,1.12.29.29,0,0,0,0,.13,1.56,1.56,0,0,0,1.26.73C52.94,106.38,53.09,106.35,53.16,106.26Z"/><path class="cls-1" d="M90.45,8.73c.22.08.72-.29.88-.67a1.81,1.81,0,0,0,.09-.37c0-.19.09-.36-.08-.52a1.32,1.32,0,0,0-1.49-.24.72.72,0,0,0-.38.53A1.31,1.31,0,0,0,90.45,8.73Z"/><path class="cls-1" d="M54.84,37.73a.64.64,0,0,0-.21-.83,3.87,3.87,0,0,0-.34-.21.86.86,0,1,0-.87,1.49l.56.37A1.72,1.72,0,0,0,54.84,37.73Z"/><path class="cls-1" d="M77.61,68.32c-.41-.07-1.09.65-1.1,1.18s.34.78.91.79c.32,0,1-.47,1-.7A1.37,1.37,0,0,0,77.61,68.32Z"/><path class="cls-1" d="M73.35,29.82A1.28,1.28,0,0,0,74.58,31a1,1,0,0,0,.79-1c0-.23-.57-1-.73-1C74.06,29.06,73.38,29.46,73.35,29.82Z"/><path class="cls-1" d="M123.33,35.44a1.27,1.27,0,0,0,1.25-1.18,1,1,0,0,0-.93-.8,6.51,6.51,0,0,0-.88.3c-.08,0-.12.23-.13.35C122.62,34.75,123,35.39,123.33,35.44Z"/><path class="cls-1" d="M84.63,47.46a1.33,1.33,0,0,0-1.19,1.14.88.88,0,0,0,.89.85c.38,0,1-.41,1-.67C85.39,48.17,85,47.48,84.63,47.46Z"/><path class="cls-1" d="M31.2,85c.36.09,1.18-.27,1.22-.54.09-.52-.29-1.27-.67-1.34a1.37,1.37,0,0,0-1.23,1A.76.76,0,0,0,31.2,85Z"/><path class="cls-1" d="M102,14a1.47,1.47,0,0,0,1.05-.08.78.78,0,0,0,.45-.89c-.11-.34-.28-.66-.71-.69-.26,0-.53,0-.89-.06-.13.33-.24.58-.33.83a.39.39,0,0,0,0,.26C101.65,13.58,101.68,13.9,102,14Z"/><path class="cls-1" d="M91.54,46.35a.9.9,0,0,0-.5,1.12c.19.49.75.7,1.48.58.25,0,.47-.41.47-.86a1.6,1.6,0,0,0-.1-.52c-.12-.36-.28-.46-.88-.41A2.62,2.62,0,0,0,91.54,46.35Z"/><path class="cls-1" d="M101.33,98.09a1,1,0,0,0-.32-1.18,7.23,7.23,0,0,0-.74-.42c-.39.31-.72.53-.85,1a.58.58,0,0,0,.26.78,2.37,2.37,0,0,0,.6.29A1,1,0,0,0,101.33,98.09Z"/><path class="cls-1" d="M63.68,94.52a.36.36,0,0,0,.23.08,1.28,1.28,0,0,0,1-1,.72.72,0,0,0,0-.26,1.32,1.32,0,0,0-1.51-.58A.85.85,0,0,0,63.05,94,4.53,4.53,0,0,0,63.68,94.52Z"/><path class="cls-1" d="M38.45,42.23a1.8,1.8,0,0,0-.93.76.63.63,0,0,0,.17.84,1.82,1.82,0,0,0,.45.29,1,1,0,0,0,1.19-.34A1,1,0,0,0,39,42.6,6.45,6.45,0,0,0,38.45,42.23Z"/><path class="cls-1" d="M35.64,11.93a.8.8,0,0,0,1.3-.33c.2-.47-.36-.72-.22-1.14a1.78,1.78,0,0,0-.86-.3.76.76,0,0,0-.71.82A1.68,1.68,0,0,0,35.64,11.93Z"/><path class="cls-1" d="M69.67,99.23s-.18,0-.22.11A3.69,3.69,0,0,0,69,100a.73.73,0,0,0,.49.93l.5.13a1,1,0,0,0,1-.65c.13-.36-.11-.6-.3-.83S70,99.36,69.67,99.23Z"/><path class="cls-1" d="M25,105.28a.92.92,0,0,0,1.11.26c.45-.18.33-.6.4-.93,0-.09,0-.18,0-.27a.78.78,0,0,0-.58-.69.74.74,0,0,0-.74.21,1.76,1.76,0,0,0-.36,1.23C24.81,105.16,24.91,105.21,25,105.28Z"/><path class="cls-1" d="M22.1,61.23a1.21,1.21,0,0,0-1.21,1.22,1,1,0,0,0,.14.34,1.23,1.23,0,0,0,1.76-.13.72.72,0,0,0,0-.26,1.17,1.17,0,0,0-.39-1A.64.64,0,0,0,22.1,61.23Z"/><path class="cls-1" d="M84.88,7.4a1.55,1.55,0,0,0,.36-.19.88.88,0,0,0,.35-1,1,1,0,0,0-1-.54c-.26,0-.51.11-.79.17a4.68,4.68,0,0,0-.11.69C83.73,7.33,84.18,7.64,84.88,7.4Z"/><path class="cls-1" d="M1.33,67.14c-.64.3-.77.6-.55,1.13a1.08,1.08,0,0,0,.63.66c.08,0,.16.11.24.1a1.5,1.5,0,0,0,1-1.24,1.64,1.64,0,0,0-.1-.33A1,1,0,0,0,1.33,67.14Z"/><path class="cls-1" d="M46.26,29.08a.26.26,0,0,0,.12,0,1.14,1.14,0,0,0,.53-.75c.05-.39-.26-.55-.48-.77a.55.55,0,0,0-.49-.11c-.11,0-.2,0-.29,0-.38-.05-.55.1-.65.48A1.07,1.07,0,0,0,45.22,29C45.51,29.3,45.91,29.11,46.26,29.08Z"/><path class="cls-1" d="M39.31,106.85a1.23,1.23,0,0,0,.83,1.25c.45.07,1.1-.58,1.12-1.12a.82.82,0,0,0-.89-.81A1.75,1.75,0,0,0,39.31,106.85Z"/><path class="cls-1" d="M67.92,94.79a.92.92,0,0,0,.81.92,1.26,1.26,0,0,0,1-1.2c0-.35-.58-.78-1.09-.78S67.9,94.16,67.92,94.79Z"/><path class="cls-1" d="M87.18,129.27a.76.76,0,0,0,.69-.7c0-.47-.26-.71-.53-1a.39.39,0,0,0-.54-.12,1.11,1.11,0,0,0-.75.71.71.71,0,0,0-.06.37A1.48,1.48,0,0,0,87.18,129.27Z"/><path class="cls-1" d="M32.18,89.51a.72.72,0,0,0-.31-.84.55.55,0,0,0-.62-.13.56.56,0,0,0-.39.64c0,.3,0,.61.09.91a.51.51,0,0,0,.68.28A.89.89,0,0,0,32.18,89.51Z"/></g></g></svg>