<svg xmlns="http://www.w3.org/2000/svg" viewBox="0 0 1793.53 372.39"><defs><style>.cls-1,.cls-3{fill:none;}.cls-1,.cls-2{stroke:#000;stroke-linecap:round;}.cls-1{stroke-miterlimit:10;stroke-width:18.12px;}.cls-2{fill:#fff;fill-opacity:0;stroke-linejoin:round;stroke-width:5.35px;}</style></defs><title>Asset 13</title><g id="Layer_2" data-name="Layer 2"><g id="Layer_1-2" data-name="Layer 1"><g id="a25b21d6-cd96-46f8-abc1-fa1c442587bd"><g id="a25b21d6-cd96-46f8-abc1-fa1c442587bd-child-0"><path class="cls-1" d="M9.06,363.33V9.06H1784.47V363.33Z"/></g></g><g id="_60758abe-23d3-4943-8189-6811633801b3" data-name="60758abe-23d3-4943-8189-6811633801b3"><g id="_60758abe-23d3-4943-8189-6811633801b3-child-0" data-name="60758abe-23d3-4943-8189-6811633801b3-child-0"><path d="M340.36,13.92h15.32v352.4H340.36Z"/></g></g><g id="_820b9ddb-cafe-41ab-aaff-6becdb1a0fa2" data-name="820b9ddb-cafe-41ab-aaff-6becdb1a0fa2"><g id="_820b9ddb-cafe-41ab-aaff-6becdb1a0fa2-child-0" data-name="820b9ddb-cafe-41ab-aaff-6becdb1a0fa2-child-0"><path d="M355.68,186.58V171.26H1787.46v15.32Z"/></g></g><g id="e2e23b46-eebb-4dde-bb01-3f0591fcabd3"><g id="b26bd830-7bee-4175-8478-9b4624238ccf"><path d="M91.91,55h77q41,0,60.71,19.5t19.67,59.87q0,51.21-34.26,66.47L250,302.23H185.85l-26.11-88.85h-7.46v88.85H91.91Zm60.37,48.5v62.75h16.28q10.51,0,15.43-6.62t4.92-17.46V125.88q0-11.53-5.6-17t-14.75-5.43Z"/></g></g><g id="_2ea33f45-afa0-480e-aa68-5088482bfc58" data-name="2ea33f45-afa0-480e-aa68-5088482bfc58"><g id="f779a0f0-5da9-4ab2-b774-6087cff7046f"><path d="M500.47,217v29.16q0,7-4.45,11t-11.86,4.06q-7.49,0-11.9-4t-4.4-11.11V217h7.55v29.19q0,4.38,2.22,6.69t6.53,2.31q8.74,0,8.75-9.24V217Zm42.7,43.64h-7.58l-19.45-31v31h-7.58V217h7.58l19.51,31.08V217h7.52Zm9,0V217H565a20.2,20.2,0,0,1,10.26,2.58,17.55,17.55,0,0,1,6.94,7.31,23.22,23.22,0,0,1,2.46,10.85v2.19a23.13,23.13,0,0,1-2.47,10.91,17.28,17.28,0,0,1-7,7.25,21.18,21.18,0,0,1-10.48,2.55Zm7.59-37.52v31.47h4.94q6,0,9.16-3.74t3.25-10.71v-2.43q0-7.1-3.09-10.85t-9-3.74Zm58,18H599.81v13.43h21v6.05H592.23V217h28.32v6.12H599.81v12h17.93ZM643,243.8h-8.45v16.81h-7.58V217h15.34q7.54,0,11.66,3.39t4.11,9.8a12.27,12.27,0,0,1-2.12,7.33A13.43,13.43,0,0,1,650,242l9.8,18.19v.39h-8.12Zm-8.45-6.09h7.79a8.67,8.67,0,0,0,6-1.93,6.76,6.76,0,0,0,2.15-5.29,7.14,7.14,0,0,0-2-5.42q-2-1.92-6-2h-8Zm64.54,22.9h-7.25v-35l-10.7,3.65v-6.14l17-6.27h.93ZM743.27,221l-17.44,39.59h-7.65l17.42-37.79H713V217h30.24ZM781.6,243.8h-8.45v16.81h-7.58V217h15.34q7.55,0,11.66,3.39t4.1,9.8a12.26,12.26,0,0,1-2.11,7.33,13.43,13.43,0,0,1-5.89,4.54l9.8,18.19v.39h-8.12Zm-8.45-6.09h7.79a8.63,8.63,0,0,0,6-1.93,6.74,6.74,0,0,0,2.16-5.29,7.14,7.14,0,0,0-2-5.42q-2-1.92-6-2h-8Zm56.22,3.42H811.45v13.43H832.4v6.05H803.87V217h28.32v6.12H811.45v12h17.92Zm43.88-1.2a27,27,0,0,1-2,10.75,17.39,17.39,0,0,1-5.5,7.2l7.5,5.85-4.92,4.43-9.29-7.34a18.84,18.84,0,0,1-3.93.39,17.41,17.41,0,0,1-9.42-2.59,17.07,17.07,0,0,1-6.41-7.39,26,26,0,0,1-2.3-11.06v-2.46a26.55,26.55,0,0,1,2.27-11.27,17,17,0,0,1,6.38-7.47,17.32,17.32,0,0,1,9.43-2.59,17.63,17.63,0,0,1,9.51,2.56,16.77,16.77,0,0,1,6.37,7.37,26.47,26.47,0,0,1,2.28,11.19Zm-7.62-2.28q0-7.36-2.75-11.18a9.08,9.08,0,0,0-7.79-3.8,8.91,8.91,0,0,0-7.66,3.85q-2.77,3.85-2.83,10.86v2.55q0,7.06,2.77,11.06a9.68,9.68,0,0,0,15.55.15q2.72-3.84,2.71-11.21ZM912.87,217v29.16q0,7-4.45,11t-11.86,4.06q-7.48,0-11.9-4t-4.4-11.11V217h7.55v29.19q0,4.38,2.22,6.69t6.53,2.31q8.75,0,8.75-9.24V217ZM929,260.61h-7.55V217H929Zm25.35-16.81h-8.45v16.81h-7.58V217h15.34q7.56,0,11.66,3.39t4.11,9.8a12.26,12.26,0,0,1-2.11,7.33,13.49,13.49,0,0,1-5.89,4.54l9.8,18.19v.39h-8.12Zm-8.45-6.09h7.79a8.67,8.67,0,0,0,6-1.93,6.74,6.74,0,0,0,2.16-5.29,7.15,7.15,0,0,0-2-5.42q-2-1.92-5.95-2h-8Zm56.23,3.42H984.16v13.43h21v6.05H976.58V217h28.32v6.12H984.16v12h17.93Zm32,8.24a5.24,5.24,0,0,0-2-4.43q-2-1.56-7.3-3.15a35.36,35.36,0,0,1-8.39-3.54q-6-3.74-6-9.77a10.63,10.63,0,0,1,4.3-8.69q4.31-3.4,11.16-3.41a18.94,18.94,0,0,1,8.12,1.67,13.33,13.33,0,0,1,5.61,4.78,12.28,12.28,0,0,1,2,6.88h-7.56a6.83,6.83,0,0,0-2.14-5.35,8.84,8.84,0,0,0-6.13-1.93,9.23,9.23,0,0,0-5.77,1.59,5.28,5.28,0,0,0-2,4.43,4.78,4.78,0,0,0,2.22,4,25.36,25.36,0,0,0,7.31,3.12,33.75,33.75,0,0,1,8.18,3.45,13,13,0,0,1,4.53,4.43,11.54,11.54,0,0,1,1.44,5.86,10.39,10.39,0,0,1-4.19,8.68q-4.18,3.22-11.34,3.22a21.35,21.35,0,0,1-8.71-1.75,14.68,14.68,0,0,1-6.17-4.84,12.07,12.07,0,0,1-2.2-7.2h7.58a7.06,7.06,0,0,0,2.46,5.76q2.46,2,7,2,4,0,5.95-1.61a5.16,5.16,0,0,0,2-4.24Zm54,1.08h-16.9l-3.54,10.16h-7.88L1076.2,217h6.8l16.52,43.64h-7.92Zm-14.78-6.11h12.65l-6.32-18.1Zm63.87,2.06q-.66,7-5.16,10.9t-12,3.91a17,17,0,0,1-9.19-2.47,16.28,16.28,0,0,1-6.13-7,25.37,25.37,0,0,1-2.25-10.58v-4.08a25.48,25.48,0,0,1,2.19-10.87,16.49,16.49,0,0,1,6.28-7.26,17.59,17.59,0,0,1,9.45-2.54q7.23,0,11.63,3.92t5.13,11.09h-7.55q-.54-4.71-2.75-6.79t-6.46-2.08a8.85,8.85,0,0,0-7.59,3.61q-2.65,3.62-2.71,10.59v3.87q0,7.07,2.53,10.79a8.41,8.41,0,0,0,7.42,3.72q4.45,0,6.71-2t2.85-6.69Zm40.07,0q-.66,7-5.16,10.9t-12,3.91a17,17,0,0,1-9.18-2.47,16.28,16.28,0,0,1-6.13-7,25.37,25.37,0,0,1-2.25-10.58v-4.08a25.48,25.48,0,0,1,2.19-10.87,16.49,16.49,0,0,1,6.28-7.26,17.59,17.59,0,0,1,9.45-2.54q7.23,0,11.63,3.92t5.13,11.09h-7.56c-.35-3.14-1.27-5.4-2.74-6.79s-3.62-2.08-6.46-2.08a8.85,8.85,0,0,0-7.59,3.61q-2.65,3.62-2.72,10.59v3.87q0,7.07,2.54,10.79a8.4,8.4,0,0,0,7.41,3.72q4.47,0,6.72-2t2.84-6.69Zm41.58-6.47a26.92,26.92,0,0,1-2.21,11.25,16.78,16.78,0,0,1-6.34,7.44,18.61,18.61,0,0,1-18.94,0,17.07,17.07,0,0,1-6.41-7.39,26,26,0,0,1-2.29-11.06v-2.46a26.55,26.55,0,0,1,2.26-11.27,17,17,0,0,1,6.38-7.47,18.65,18.65,0,0,1,18.91,0,16.77,16.77,0,0,1,6.37,7.37,26.63,26.63,0,0,1,2.27,11.19Zm-7.58-2.28q0-7.25-2.74-11.12a9.68,9.68,0,0,0-15.46,0q-2.77,3.85-2.84,10.89v2.52q0,7.19,2.81,11.12a9,9,0,0,0,7.77,3.93,8.92,8.92,0,0,0,7.75-3.84q2.71-3.84,2.71-11.21Zm25-20.68,12.58,33.45L1261.31,217h9.8v43.64h-7.55V246.22l.75-19.24-12.89,33.63H1246L1233.14,227l.75,19.21v14.39h-7.55V217Zm51.48,27.43v16.21h-7.58V217h16.7q7.31,0,11.61,3.81a12.79,12.79,0,0,1,4.3,10.07q0,6.41-4.21,10t-11.79,3.57Zm0-6.09h9.12q4,0,6.17-1.9a7,7,0,0,0,2.13-5.5,7.54,7.54,0,0,0-2.16-5.65,8.31,8.31,0,0,0-5.93-2.17h-9.33Zm50.74,12.14h-16.9L1318,260.61h-7.88L1326.55,217h6.81l16.51,43.64H1342Zm-14.77-6.11h12.65l-6.33-18.1Zm65.81,16.27h-7.58l-19.45-31v31h-7.58V217h7.58l19.51,31.08V217h7.52Zm22.36-23,10-20.68h8.39l-14.63,27.58v16.06H1408V244.55L1393.33,217h8.42Zm31.17,23h-7.56V217H1443Zm43.93,0h-7.58l-19.45-31v31h-7.58V217h7.58l19.51,31.08V217h7.52ZM1529.3,255a14.59,14.59,0,0,1-6.56,4.67,26.8,26.8,0,0,1-9.54,1.59,18.79,18.79,0,0,1-9.71-2.49,16.6,16.6,0,0,1-6.51-7.12,24.89,24.89,0,0,1-2.39-10.8v-3.42q0-9.88,4.74-15.45t13.22-5.55q7.28,0,11.56,3.59t5.16,10.37h-7.43q-1.26-7.87-9.14-7.88a9,9,0,0,0-7.75,3.67q-2.65,3.68-2.74,10.77v3.36q0,7.06,3,11a9.83,9.83,0,0,0,8.28,3.92q5.82,0,8.28-2.64V244h-9v-5.76h16.54ZM591.39,305.77V322h-7.58V278.35H600.5q7.32,0,11.62,3.81a12.77,12.77,0,0,1,4.3,10.07q0,6.4-4.21,10t-11.8,3.56Zm0-6.08h9.11q4.05,0,6.18-1.9a7,7,0,0,0,2.13-5.5,7.54,7.54,0,0,0-2.16-5.65,8.32,8.32,0,0,0-5.94-2.17h-9.32Zm50.74,12.14h-16.9L621.69,322h-7.88l16.48-43.64h6.81L653.61,322H645.7Zm-14.77-6.12H640l-6.32-18.1Zm47.22-.54h-8.44V322h-7.58V278.35h15.33q7.54,0,11.66,3.39t4.1,9.8a12.28,12.28,0,0,1-2.11,7.33,13.43,13.43,0,0,1-5.89,4.54l9.8,18.19V322h-8.12Zm-8.44-6.08h7.79a8.6,8.6,0,0,0,6-1.93,6.75,6.75,0,0,0,2.16-5.29,7.18,7.18,0,0,0-2-5.43q-2-1.9-6-2h-8Zm56.21,3.42H704.43v13.42h21V322H696.85V278.35h28.32v6.12H704.43v12h17.92ZM766.17,322h-7.59l-19.45-31v31h-7.58V278.35h7.58l19.51,31.08V278.35h7.53Zm39.62-37.52H792.18V322h-7.52V284.47H771.17v-6.12h34.62Zm54,16.84a26.76,26.76,0,0,1-2.22,11.25,16.75,16.75,0,0,1-6.34,7.43,18.55,18.55,0,0,1-18.94,0,17,17,0,0,1-6.41-7.38,26,26,0,0,1-2.29-11.06v-2.46a26.55,26.55,0,0,1,2.26-11.27,17,17,0,0,1,6.38-7.48,18.65,18.65,0,0,1,18.91,0,16.8,16.8,0,0,1,6.37,7.38,26.47,26.47,0,0,1,2.28,11.19ZM852.24,299q0-7.25-2.74-11.12a9.69,9.69,0,0,0-15.47,0q-2.78,3.86-2.83,10.89v2.52q0,7.19,2.8,11.12a9,9,0,0,0,7.78,3.92,9,9,0,0,0,7.75-3.83q2.72-3.84,2.71-11.21Zm31.17,6.14H875V322h-7.58V278.35h15.35q7.54,0,11.66,3.39t4.1,9.8a12.28,12.28,0,0,1-2.11,7.33,13.43,13.43,0,0,1-5.89,4.54l9.8,18.19V322h-8.12ZM875,299.09h7.8a8.66,8.66,0,0,0,6-1.93,6.75,6.75,0,0,0,2.16-5.29,7.18,7.18,0,0,0-2-5.43c-1.33-1.27-3.32-1.93-5.95-2h-8Zm70.43,12.74h-16.9L924.94,322h-7.88l16.49-43.64h6.8L956.86,322H949Zm-14.77-6.12h12.65l-6.33-18.1ZM961.81,322V278.35h12.88A20.21,20.21,0,0,1,985,280.93a17.61,17.61,0,0,1,6.94,7.31,23.34,23.34,0,0,1,2.45,10.85v2.19a23.13,23.13,0,0,1-2.47,10.91,17.39,17.39,0,0,1-7,7.25A21.15,21.15,0,0,1,974.36,322Zm7.58-37.52v31.46h4.94q6,0,9.16-3.73t3.25-10.71v-2.43q0-7.1-3.09-10.85t-9-3.74Zm64.43-6.12v29.16q0,7-4.45,11t-11.85,4.06q-7.49,0-11.9-4t-4.4-11.11V278.35h7.55v29.19q0,4.38,2.22,6.69t6.53,2.3q8.75,0,8.75-9.23V278.35Zm15.68,37.58h19.81V322h-27.4V278.35h7.59Zm51-31.46H1086.9V322h-7.52V284.47h-13.49v-6.12h34.62Zm52.65,31.85a14.54,14.54,0,0,1-6.56,4.68,26.79,26.79,0,0,1-9.53,1.59,18.74,18.74,0,0,1-9.71-2.49,16.56,16.56,0,0,1-6.52-7.12,24.89,24.89,0,0,1-2.38-10.8v-3.42q0-9.88,4.73-15.45t13.22-5.56q7.27,0,11.57,3.6t5.15,10.37h-7.43q-1.26-7.87-9.14-7.88a9,9,0,0,0-7.75,3.67q-2.65,3.67-2.74,10.77v3.36q0,7.07,3,11a9.83,9.83,0,0,0,8.29,3.91q5.81,0,8.27-2.63v-8.55h-9V299.6h16.54Zm40.24-38v29.16q0,7-4.45,11c-3,2.71-6.91,4.06-11.85,4.06s-9-1.33-11.89-4-4.41-6.37-4.41-11.11V278.35h7.56v29.19q0,4.38,2.21,6.69t6.54,2.3q8.75,0,8.75-9.23V278.35Zm31.86,33.48h-16.9L1204.82,322h-7.88l16.48-43.64h6.8L1236.74,322h-7.92Zm-14.78-6.12h12.65l-6.32-18.1Zm47.24-.54h-8.46V322h-7.58V278.35H1257q7.54,0,11.65,3.39t4.11,9.8a12.28,12.28,0,0,1-2.11,7.33,13.49,13.49,0,0,1-5.89,4.54l9.8,18.19V322h-8.12Zm-8.46-6.08h7.8a8.66,8.66,0,0,0,6-1.93,6.75,6.75,0,0,0,2.16-5.29,7.19,7.19,0,0,0-2-5.43q-2-1.9-5.94-2h-8ZM1280,322V278.35h12.89a20.2,20.2,0,0,1,10.26,2.58,17.61,17.61,0,0,1,6.94,7.31,23.22,23.22,0,0,1,2.46,10.85v2.19a23.13,23.13,0,0,1-2.47,10.91,17.41,17.41,0,0,1-7,7.25,21.14,21.14,0,0,1-10.47,2.55Zm7.58-37.52v31.46h5q6,0,9.16-3.73t3.25-10.71v-2.43q0-7.1-3.09-10.85t-9-3.74ZM1328.08,322h-7.55V278.35h7.55Zm34.29-10.16h-16.9L1341.93,322h-7.88l16.48-43.64h6.8L1373.85,322h-7.92Zm-14.78-6.12h12.65l-6.32-18.1ZM1413.41,322h-7.59l-19.45-31v31h-7.58V278.35h7.58l19.51,31.08V278.35h7.53Z"/></g></g><g id="_298a33a9-d240-4161-b475-841252dc54f3" data-name="298a33a9-d240-4161-b475-841252dc54f3"><g id="_5d98142c-0454-4be6-8d00-8e90945830b5" data-name="5d98142c-0454-4be6-8d00-8e90945830b5"><path d="M563.33,43h30q16,0,23.7,7.62t7.67,23.37q0,20-13.37,25.94L625,139.47H600l-10.2-34.69h-2.91v34.69H563.32Zm23.56,18.94V86.38h6.35q4.11,0,6-2.58A11.14,11.14,0,0,0,601.19,77V70.63c0-3-.73-5.21-2.19-6.62a7.91,7.91,0,0,0-5.76-2.12ZM631.37,43h48.86V62.28H654.94V81H675.2v18.8H654.94v20.39H681v19.33H631.37ZM699,136.89a22.07,22.07,0,0,1-9.4-11A40.73,40.73,0,0,1,687,109.42h22.37q-.14,6,1.46,9.07t5.83,3.11q6.48,0,6.48-6.62a11.18,11.18,0,0,0-4.23-9.14,74.53,74.53,0,0,0-10.07-6.75,115.65,115.65,0,0,1-10.12-6.62,31.06,31.06,0,0,1-8.48-9.4q-3.37-5.68-3.37-14.56,0-13,8.34-19.93t21.58-6.95a38,38,0,0,1,15.75,3A22.21,22.21,0,0,1,743,54.27q3.71,6.56,3.58,17.41H723.92q.14-11.39-7.42-11.38a6.43,6.43,0,0,0-5,1.79,6.23,6.23,0,0,0-1.66,4.43,8.69,8.69,0,0,0,4,7.35,101,101,0,0,0,9.4,5.89q4.1,2.11,8.34,4.83A45.5,45.5,0,0,1,739.47,91a29,29,0,0,1,5.9,8.94,31.56,31.56,0,0,1,2.25,12.51q0,10.2-4.24,16.42A24.43,24.43,0,0,1,732.06,138a42.21,42.21,0,0,1-15.82,2.84q-10.72,0-17.28-3.9Zm90.89-74.61v77.19H766.28V62.28H749.87V43h56.4V62.28ZM813.68,43h30.05q16,0,23.7,7.62t7.68,23.37q0,20-13.37,25.94l13.64,39.59h-25l-10.19-34.69h-2.91v34.69H813.68Zm23.57,18.94V86.38h6.35q4.11,0,6-2.58A11.14,11.14,0,0,0,851.55,77V70.63c0-3-.73-5.21-2.19-6.62a7.91,7.91,0,0,0-5.76-2.12ZM881.73,43H905.3v96.52H881.73Zm40,90q-8.41-7.87-8.41-26.42V75.92q0-18.53,8.41-26.41t23.9-7.88q15.23,0,23.36,8.08t7.88,27h-23q0-8.48-1.79-12.12T945.41,61a8.4,8.4,0,0,0-6.22,2.25q-2.25,2.25-2.25,8.08v39.85q0,5.82,2.25,8.07a8.4,8.4,0,0,0,6.22,2.25q4.9,0,6.69-3.64t1.79-12.11h23q.27,18.93-7.88,27t-23.36,8.07q-15.49,0-23.9-7.87Zm99.1-70.64v77.19H997.31V62.28H980.89V43h56.4V62.28ZM1044.71,43h48.84V62.28h-25.28V81h20.25v18.8h-20.25v20.39h26.08v19.33h-49.64Zm57.18,0h31.51Q1149.95,43,1157,52t7,25.89v26.61q0,16.82-7,25.88t-23.57,9.07h-31.51Zm28.86,77.19q4.9,0,7.29-2.91t2.38-10.2V75.39q0-7.41-2.38-10.26t-7.29-2.85h-5.29v57.86Z"/></g></g><g id="_6022c7f3-d0e8-4839-b6a0-ba4db5e44ce8" data-name="6022c7f3-d0e8-4839-b6a0-ba4db5e44ce8"><g id="_7ff8280b-0481-4845-8118-373f64257308" data-name="7ff8280b-0481-4845-8118-373f64257308"><path class="cls-2" d="M1552.75,32.4l3.54.11,1.75.09,3.51.2,1.74.13,1.73.14.87.08,1.73.15.85.09,1.72.18.85.1,1.71.2.84.11,1.69.22.84.12,1.68.24.84.13,1.66.27.83.14,1.65.28.82.15,1.64.31.81.16,1.62.32.8.17,1.61.35.79.18,1.59.37.79.19,1.57.38.78.21,1.55.4.77.21,1.54.43.76.22,1.52.45.75.23,1.49.46.75.24,1.47.49.73.25,1.46.5.72.26,1.43.52.71.27,1.42.55.69.27,1.39.56.69.29,1.37.58.67.3,1.34.6.67.3,1.32.62.65.32,1.29.63.64.33,1.35.69.65.36,1.32.71.63.36,1.28.73.62.37,1.23.74.6.37,1.19.76.58.39,1.16.77.56.39,1.11.78.54.4,1.08.8.52.41,1,.81.5.41c.34.27.67.55,1,.83l.48.41,1,.84.46.43.91.85c.15.14.3.28.44.43l.87.86.42.44.83.87.4.44.79.89.37.45.75.89c.12.15.24.3.35.46l.71.9.33.46.66.92.31.46.62.93c.1.16.2.31.29.47s.38.63.58.94l.27.47c.17.32.35.63.53,1l.25.47.48,1,.23.48c.15.32.29.65.44,1l.21.48.39,1c.07.16.13.32.19.49s.23.65.35,1l.16.49c.1.33.21.66.31,1,0,.17.09.33.14.5.08.33.17.66.26,1l.12.5c.07.33.14.67.22,1l.09.51c.06.33.11.67.17,1,0,.17,0,.34.07.51,0,.34.09.68.13,1,0,.17,0,.34,0,.51,0,.34.06.68.08,1l0,.51,0,1v.52l0,1.54-.06,1c0,.17,0,.34,0,.51,0,.34-.07.68-.1,1l-.07.51-.15,1-.09.5c-.07.34-.13.67-.2,1,0,.17-.08.33-.11.5l-.24,1c0,.17-.1.33-.14.5-.1.33-.2.66-.29,1,0,.17-.11.33-.16.5l-.33,1-.18.49-.38,1-.21.48-.42,1-.22.48c-.16.33-.31.65-.47,1l-.25.47c-.17.32-.34.64-.5,1-.09.15-.19.31-.27.47l-.56.94c-.09.16-.19.31-.29.47l-.6.93c-.1.16-.2.31-.31.46l-.64.93-.33.46-.68.91-.36.45-.72.91c-.13.14-.26.29-.38.44l-.77.9-.4.44-.8.88-.42.43-.85.87-.44.43-.89.86-.46.42-.94.85-.48.42-1,.83-.5.41-1,.82-.53.4-1,.81-.54.4-1.1.79-.56.39-1.13.78-.58.38-1.18.77-.6.38-1.21.74-.62.37-1.25.74-.64.36-1.29.72-.66.35-1.33.7-.68.35-1.93,1-1.31.63-.66.31-1.33.6-.68.3-1.35.59-.69.29-1.38.57-.69.28-1.41.55-.7.27-1.43.53-.72.26-1.44.52-.74.24-1.46.5-.74.24-1.49.47-.75.24-1.51.45-.76.22-1.52.44-.77.21-1.55.42-.78.2-1.56.39-.79.19-1.58.38-.8.18-1.59.36-.81.17-1.61.33-.81.16-1.63.32-.82.15-1.64.29-.83.14-1.66.28-.83.13L1577,148l-.84.12-1.69.23-.84.11-1.7.21-.85.1-1.71.19-.86.09-1.72.17-.87.07-1.73.15-.87.06-3.48.25-1.76.08-3.52.16-1.78,0-3.55.07h-1.79l-5.34-.07-3.54-.11-1.76-.09-3.5-.19-1.74-.14-1.73-.13-.87-.08-1.73-.16-.85-.09-1.72-.18-.85-.09-1.7-.2-.85-.11-1.69-.23-.84-.11-1.68-.25-.83-.13-1.67-.26-.82-.14L1512,147l-.82-.15-1.63-.3-.81-.16-1.62-.33-.81-.17-1.6-.35c-.27,0-.53-.12-.8-.18l-1.59-.36-.78-.19-1.58-.39-.77-.2-1.56-.41-.77-.21-1.53-.42-.76-.23-1.52-.44-.75-.23-1.5-.47-.74-.24-1.48-.48-.73-.25-1.45-.51-.72-.25-1.44-.53-.71-.27-1.41-.54-.7-.28-1.39-.56-.68-.29-1.37-.58-.68-.29-1.34-.6-.66-.31-1.32-.62-.65-.31-1.3-.64-.63-.32-2-1.05-1.31-.71-.64-.36-1.27-.73-.62-.37-1.23-.74-.6-.38c-.4-.25-.8-.5-1.19-.76-.2-.12-.39-.25-.58-.38l-1.16-.77-.56-.39-1.11-.79-.55-.4-1.07-.79-.52-.41-1-.81-.5-.41-1-.83-.48-.42-1-.84-.46-.42-.92-.85-.44-.43-.87-.86-.42-.44-.82-.87-.4-.45-.79-.88-.38-.45-.74-.9-.36-.45-.7-.91-.34-.45-.66-.92-.31-.47-.62-.93-.29-.46-.57-.94-.27-.47-.53-1c-.09-.16-.17-.32-.25-.48-.17-.32-.33-.64-.49-1l-.23-.48c-.14-.32-.29-.64-.44-1s-.14-.33-.2-.49c-.14-.32-.27-.65-.4-1s-.13-.33-.19-.49c-.11-.33-.23-.66-.35-1,0-.17-.11-.33-.16-.5-.1-.33-.21-.66-.31-1-.05-.16-.09-.33-.14-.49-.08-.34-.17-.67-.26-1l-.12-.5-.21-1c0-.16-.07-.33-.1-.5,0-.34-.11-.67-.17-1,0-.17-.05-.34-.07-.51,0-.34-.08-.68-.13-1,0-.17,0-.34,0-.51l-.09-1c0-.17,0-.34,0-.51l0-1v-.51l0-1.55.06-1c0-.17,0-.34.05-.52,0-.33.07-.67.1-1,0-.17,0-.34.07-.51l.15-1,.09-.51c.07-.34.13-.67.2-1,0-.16.08-.33.11-.5.09-.33.17-.67.25-1,0-.16.09-.33.13-.5.1-.33.19-.66.29-1l.16-.49.33-1,.18-.49c.13-.32.26-.65.38-1l.21-.49.42-1,.22-.48.47-1,.25-.48.51-1,.27-.47.55-1c.1-.15.19-.31.29-.47l.6-.93.31-.46.64-.93.33-.45c.23-.31.46-.61.68-.92l.36-.45.73-.9.37-.45.77-.89c.13-.15.26-.3.4-.44l.81-.88.42-.44.85-.87.43-.43.9-.86.46-.42.93-.85.48-.41,1-.84.5-.41,1-.82.52-.4,1-.81.54-.39,1.1-.8.56-.39,1.13-.78.59-.38,1.17-.76.6-.38L1465,52l.62-.37,1.25-.73.64-.36,1.29-.72.66-.36,1.33-.7.68-.35,1.93-1,1.31-.62.66-.31,1.33-.61.68-.29,1.35-.59.69-.29,1.37-.57.7-.28,1.4-.55.71-.27,1.43-.54.72-.25,1.44-.52.73-.25,1.47-.49.74-.24,1.49-.48.75-.23,1.5-.45.76-.22,1.53-.44.77-.21,1.54-.42.78-.2,1.56-.39.79-.2,1.58-.37.8-.18,1.59-.36.81-.17,1.61-.34.81-.16,1.63-.31.82-.15,1.64-.3.83-.14,1.66-.27.83-.13,1.67-.25.84-.12,1.69-.24.84-.1,1.7-.22.85-.09,1.71-.19.86-.09,1.72-.17.87-.08,1.73-.15.87-.06,3.48-.24,1.76-.09,3.53-.16,1.77,0,3.55-.07h1.79l5.35.07Zm-3.55,5.06h.9l1.78,0,.89,0,1.78,0,.88,0,1.77.08.88,0,1.75.1.87.06,1.74.12.86.06,1.73.15.85.08,1.71.16.85.09,1.7.18.84.1,1.68.21.84.11,1.66.23.83.12,1.65.25.82.13,1.63.26.8.14,1.62.29.8.15,1.6.31.78.16,1.58.33.78.17,1.56.34.77.18,1.54.36.76.19,1.52.39.75.19,1.5.41.74.2,1.47.42.74.22,1.45.43.72.23,1.43.45.7.24,1.41.47.7.24,1.38.49.69.25,1.36.5.67.26,1.33.52.66.26,1.31.54.65.27,1.28.56.63.28,1.26.57.62.28,1.23.59.61.29,1.2.6c.2.1.4.2.59.31l1.18.61.58.31,1.14.62.57.32,1.11.64.55.33c.37.21.73.43,1.09.65l.53.33,1.06.67.52.34,1,.68.5.35,1,.69.48.35,1,.71.47.35.93.72.45.36.9.73.44.37.86.75.42.37.84.75c.13.13.26.26.4.38l.79.77.39.38.76.78.37.39c.24.26.48.53.73.79l.34.39.69.8c.11.13.22.27.34.4l.65.81.31.4c.2.28.41.55.62.82s.19.27.29.41l.58.83.27.41.54.84.26.42c.16.28.33.56.5.84l.23.43c.15.28.31.56.46.85l.22.43.42.86.19.43.38.87c.06.14.12.29.17.44s.23.58.34.87.1.3.16.44c.09.3.19.59.29.89.05.14.09.29.13.44l.26.89c0,.15.07.3.11.45l.21.9.09.45c.06.3.11.6.17.9,0,.15,0,.3.07.46l.12.91c0,.15,0,.3,0,.45,0,.31,0,.61.08.92,0,.15,0,.31,0,.46l0,.92v.47l0,1.38-.06.92c0,.15,0,.3,0,.46s-.07.61-.11.91l-.06.46-.15.9-.09.46c-.06.3-.13.6-.19.9l-.11.44c-.08.3-.16.6-.23.9s-.09.29-.13.44c-.1.3-.19.59-.28.89l-.15.44c-.11.29-.22.59-.32.88l-.18.44-.36.87-.19.43c-.13.29-.27.58-.4.86l-.21.43-.45.86-.23.43-.48.84c-.09.14-.17.28-.25.42s-.35.56-.52.84-.19.28-.28.42-.37.55-.56.83c-.1.13-.19.27-.29.41l-.6.82-.31.41-.63.81a4.12,4.12,0,0,0-.33.4l-.68.8-.35.4c-.23.26-.47.52-.7.79l-.37.39-.75.78-.38.39-.78.77-.4.38-.82.76-.42.37-.85.75-.43.37-.89.73-.45.37-.91.72-.48.36-.94.71-.49.35-1,.7-.5.35-1,.68-.52.34-1,.67-.54.34L1627,126l-.55.32-1.1.65-.56.32-1.14.63-.58.31-1.16.62-.59.3-1.19.61-.6.3-1.22.59-.62.28-1.25.58-.63.28-1.27.56-.65.28-1.29.54-.66.27-1.32.53-.68.25-1.34.52-.69.25-1.37.49-.69.24-1.4.48-.71.24-1.42.46-.72.22-1.44.45-.73.21-1.46.43-.74.21-1.49.41-.75.2-1.51.39-.76.19-1.53.37-.77.18-1.55.35-.78.17-1.57.34-.79.16-1.58.32-.8.15-1.61.29-.81.15-1.62.27-.82.14-1.64.25-.82.12-1.66.24-.83.11-1.68.22-.84.1-1.69.19-.85.09-1.7.18-.86.07-1.72.16-.86.07-1.73.13-.87.05-1.75.11-.88.05-1.75.08-.89,0-1.77.06-.89,0-1.78,0h-.89l-1.8,0h-.9l-2.69,0-1.79,0-.89,0-1.78-.06-.88,0-1.76-.08-.88,0-1.75-.1-.87-.06-1.74-.12-.87-.06-1.72-.15-.86-.08-1.71-.16-.85-.09-1.7-.18-.84-.1-1.68-.21-.83-.11-1.67-.23-.82-.12-1.65-.24-.82-.13-1.63-.27-.81-.14-1.61-.29-.8-.15-1.6-.31-.79-.16-1.58-.32-.78-.18-1.56-.34-.77-.18-1.54-.36-.76-.19-1.51-.38-.76-.2-1.49-.4-.74-.21-1.48-.42-.73-.22-1.45-.43-.72-.23-1.43-.45-.71-.23-1.41-.48-.69-.24-1.39-.48-.68-.25-1.36-.51-.67-.26-1.34-.52-.65-.26-1.32-.54-.64-.27-1.29-.56-.63-.28-1.26-.57-.62-.28-1.23-.59-.6-.29-1.21-.6-.59-.3-1.17-.62-.58-.31-1.15-.62-.56-.32-1.12-.64-.55-.33-1.09-.65-.53-.33-1.06-.67-.52-.34-1-.68-.51-.34-1-.7-.49-.35-1-.7-.47-.36-.94-.72-.45-.36-.9-.73-.43-.37-.87-.74-.42-.38-.83-.75-.4-.38-.8-.77-.39-.38-.76-.78-.37-.39-.72-.79-.35-.39-.69-.8-.33-.4-.66-.81c-.1-.13-.2-.27-.31-.4-.2-.28-.41-.55-.61-.82l-.3-.41-.57-.83c-.1-.13-.19-.27-.28-.41l-.54-.84-.25-.42c-.17-.28-.34-.56-.5-.84l-.24-.42-.46-.86-.21-.43-.42-.86c-.07-.14-.13-.29-.2-.43l-.38-.87c-.06-.14-.12-.29-.17-.44s-.23-.58-.34-.87-.1-.29-.16-.44-.19-.59-.29-.88-.09-.3-.13-.45l-.26-.89c0-.15-.07-.3-.11-.45l-.21-.9-.09-.45c-.06-.3-.11-.6-.17-.9l-.06-.45c0-.31-.09-.61-.13-.92,0-.15,0-.3,0-.45,0-.31-.06-.61-.08-.92l0-.46,0-.92v-.46l0-1.39.06-.92c0-.15,0-.3,0-.46s.06-.61.1-.91,0-.3.07-.46.09-.6.14-.9l.09-.45c.06-.3.13-.6.19-.9l.11-.45c.08-.3.16-.6.23-.9l.14-.44.27-.89.15-.44c.11-.29.22-.58.32-.88l.18-.43.36-.88.19-.43c.13-.29.27-.58.4-.86l.21-.43.45-.86c.07-.14.15-.28.23-.42l.48-.85.26-.42c.17-.28.34-.56.52-.84l.27-.42c.19-.27.37-.55.56-.83s.19-.27.29-.41l.6-.82.31-.41.64-.81.33-.4.67-.8.35-.4.71-.79.36-.39.75-.78.38-.39.78-.77c.14-.12.27-.25.4-.38l.82-.76.42-.37.85-.75.43-.37.89-.73.45-.37.92-.72.47-.36.94-.71.49-.35,1-.7.5-.35,1-.68.52-.34,1-.68.54-.33,1.07-.66.55-.32,1.1-.65.57-.32,1.13-.63.58-.31,1.16-.62.59-.3,1.19-.61.61-.3,1.21-.59.62-.29,1.25-.57.63-.28,1.27-.56.65-.28,1.29-.54.66-.27,1.33-.53.67-.25,1.34-.52.69-.25,1.37-.49.7-.24,1.39-.48.71-.24,1.42-.46.72-.22,1.44-.45.73-.21,1.46-.43.74-.21,1.49-.41.75-.2,1.51-.39.76-.19,1.53-.37.77-.18,1.55-.35.78-.17,1.57-.34.79-.16,1.59-.32.8-.15,1.6-.3.81-.14,1.62-.27.82-.14,1.64-.25.83-.12,1.65-.24.84-.11,1.67-.22.84-.1,1.69-.19.85-.09,1.7-.18.86-.07,1.72-.16.86-.07,1.74-.13.86,0,1.75-.11.88-.05,1.76-.08.88,0,1.77-.06.89,0,1.78,0h.9l1.79,0h2.7Zm-47.74,77.42.55,1.05c.1.17.2.34.29.51l.59,1,.31.51.62,1c.11.17.22.33.32.5l.66,1,.34.48.69,1c.12.16.24.31.35.47s.48.62.72.93l.38.46.75.91.38.44.78.88.4.43.81.86.42.42.84.82.43.4.86.8.45.39.89.77.45.37.92.74.47.35.94.71.48.34,1,.68.5.32,1,.64.5.31,1,.61.51.29c.35.19.7.38,1,.58l.53.27,1.05.54.54.26,1.08.5.55.24,1.09.47.56.22,1.12.42.57.21,1.13.39.57.18,1.16.35.58.16,1.17.32.59.14,1.19.27.6.12,1.2.23.6.1,1.22.19.61.08,1.23.15.62.05,1.24.11.62,0,1.25.06h.64v-27l-3.91,0-2,0-3.91-.07-1.94-.06-3.9-.13-1.94-.08-3.87-.18-1.92-.11-3.83-.23-1.9-.13-3.78-.28-1.87-.15-3.72-.33-3.66-.37-2.71-.3-.9-.1.79,1.6Zm90-1.3-1.82.19-.92.09-3.68.36-1.87.16-3.75.3-1.9.13-3.81.26-1.92.1-3.86.21-1.93.08-3.89.15-1.95.06-3.9.1-2,0-3.91,0h-2v27l1.89-.07,1.24-.08.62-.06,1.24-.12.61-.08,1.22-.17.61-.1,1.21-.21.6-.12,1.19-.25.59-.14,1.18-.3.58-.16,1.16-.33.58-.18,1.14-.38.57-.2,1.12-.41.56-.22,1.11-.44.55-.24,1.08-.49.54-.25,1.07-.53.53-.27,1-.56.51-.29,1-.59.5-.31,1-.62.5-.33,1-.66.48-.34,1-.69.47-.36.93-.72.46-.37.91-.76.44-.38.88-.79.43-.4.85-.81.42-.42.82-.84.4-.43.8-.87.38-.44c.26-.3.51-.6.77-.89s.25-.31.37-.46l.73-.92.36-.47.7-1,.34-.48.68-1,.32-.49.64-1,.31-.5.6-1c.1-.17.2-.34.29-.52l.57-1,.28-.52c.17-.36.36-.71.53-1.06l.26-.54-2.71.3ZM1445.74,97.75a3.57,3.57,0,0,1,.1.35c.07.24.13.48.2.71s.07.24.1.36.15.47.23.7l.12.36c.09.23.17.46.25.7a3.65,3.65,0,0,1,.14.35c.1.23.19.46.28.69l.15.35c.11.23.21.46.31.69l.17.35.33.68.18.35.37.68c.06.11.12.22.19.33l.39.68a3.79,3.79,0,0,1,.2.34l.42.67.22.33.44.66.23.33.47.66.25.33.49.65.26.32.52.65.27.32.54.64.28.31.57.63.3.32c.19.21.39.42.59.62l.3.31.62.62.32.31.64.61.33.3.67.61.34.3.69.59.35.3.71.59.36.29,1.48,1.15.77.57,1.57,1.13.81.55,1.65,1.09.86.53,1.73,1.06.9.52,1.81,1c.32.16.63.33.94.5l1.89,1,1,.48,2,.95,1,.45,2,.91,1,.44,2.12.86,1.08.42,2.18.82,1.11.4,2.25.78,1.14.37,2.31.74,1.18.35,2.37.69,1.2.33,2.43.64,1.24.3,2.48.6,1.26.28,2.54.54,1.29.26,2.58.49,1.32.23,2.63.44,1.34.2,2.68.39,1.36.18,2.72.33,1.38.15,2.77.28,1.4.11-1.34-.46-.88-.33-.44-.18-.87-.35-.43-.18-.86-.37-.43-.2-.84-.39-.42-.21-.84-.41c-.14-.07-.28-.14-.41-.22l-.83-.43-.4-.23-.81-.45-.4-.24-.8-.48-.4-.24-.78-.5-.39-.25c-.25-.18-.51-.35-.77-.52l-.38-.26-.75-.54-.38-.27-.74-.56-.36-.28-.73-.57-.36-.3-.71-.59-.35-.3-.7-.61-.34-.31-.68-.62c-.11-.11-.22-.22-.34-.32l-.66-.65-.32-.33-.65-.66-.32-.33-.63-.68-.31-.35-.61-.69-.3-.35-.6-.71-.29-.36-.58-.73-.28-.37c-.19-.24-.37-.49-.56-.74l-.27-.37-.54-.76-.27-.38c-.17-.26-.34-.52-.52-.78l-.25-.39c-.17-.26-.34-.52-.5-.78s-.17-.27-.25-.4l-.48-.8-.24-.4c-.15-.28-.3-.55-.46-.82l-.22-.41-.45-.83-.21-.42-.42-.84c-.07-.14-.14-.28-.2-.42l-.41-.85c-.06-.15-.12-.29-.19-.44l-4.66-.6-1.53-.22-2.27-.33-2.23-.35-2.19-.36-2.16-.37-2.12-.39-2.08-.4-2-.41-2-.43-2-.44-1.91-.46-.62-.15-1.24-.31-.6-.16-1.2-.32-.59-.17-1.17-.32-.57-.17-1.14-.34-.55-.17-1.1-.35-.53-.17-1.07-.36-.51-.18-1-.36-.5-.18-1-.37-.47-.19-.94-.38-.46-.19-.9-.39-.44-.19-.86-.4-.41-.2-.82-.4-.39-.21-.77-.41-.37-.21-.72-.42-.35-.21-.68-.42-.32-.22-.63-.43-.3-.22-.58-.45-.28-.22-.53-.45-.25-.23-.48-.45-.22-.23c.05.23.11.47.16.71Zm202.79,0-.5.45-.28.22-.56.45-.29.22c-.21.14-.41.29-.61.44l-.32.21-.66.43-.34.22-.71.42-.37.21-.75.41-.39.21-.79.4-.41.2-.84.4-.44.2-.88.39-.45.19-.93.38-.47.19-1,.38-.49.18-1,.37-.51.18-1,.36-.54.17-1.08.35-.55.17-1.12.34-.57.17-1.15.33-.59.17-1.19.32-.6.16-1.22.32-1.88.46-1.92.45-2,.44-2,.42-2.05.41-2.09.4-2.14.38-2.17.37-2.2.35-2.25.35-2.27.33-.77.1-3.09.42-1.57.19c-.2.43-.39.86-.59,1.28s-.28.57-.41.85l-.22.42-.43.83-.22.42-.46.82-.23.4c-.16.27-.32.54-.47.81s-.17.26-.25.4-.33.52-.49.79l-.25.39-.52.78c-.08.13-.17.25-.26.38l-.53.77-.27.37-.55.75-.29.37-.57.73-.29.36-.59.72-.3.36-.6.7-.31.34-.62.69-.32.33c-.21.23-.43.45-.64.67l-.33.33-.65.65-.33.32-.68.64-.34.31-.69.62-.35.3-.7.6-.36.29-.72.58-.37.29-.73.56-.37.28-.75.54-.38.26-.77.53-.38.25-.78.51-.4.25-.79.48-.4.24-.8.47-.41.22-.82.45-.41.21-.83.43-.42.2-.84.41-.43.19-.85.38-.43.19-.87.36-.44.17-.88.34-.44.16-.89.32-.42.14,4.14-.39,2.75-.31,1.36-.17,2.7-.36,1.34-.21,2.66-.41,1.31-.23,2.61-.47,1.29-.25,2.56-.52,1.26-.28,2.51-.57,1.24-.3,2.45-.62,1.21-.33,2.4-.67,1.18-.35,2.34-.71,1.14-.37,2.28-.76,1.11-.4,2.22-.8,1.08-.42,2.14-.84,1-.44,2.08-.89,1-.45,2-.93,1-.48,1.93-1,.93-.5,1.86-1,.89-.52,1.78-1,.86-.53,1.69-1.08.81-.55,1.61-1.11.77-.57,1.53-1.14.72-.58.73-.59.35-.29c.23-.2.46-.4.7-.59l.34-.3.67-.6.33-.31.66-.6.32-.31.62-.61.31-.32.61-.62.29-.31.58-.63.28-.32.56-.63.27-.32.53-.64.26-.33.51-.65.24-.32.48-.66.23-.33.46-.66.22-.33.43-.67c.06-.11.13-.22.2-.33l.41-.68c.06-.11.12-.22.19-.33l.37-.68.18-.34c.12-.23.24-.46.35-.69s.11-.23.17-.34.21-.46.32-.69l.15-.35.3-.69c0-.12.09-.24.13-.35l.27-.7.12-.35.24-.71.11-.35.21-.71c0-.12.06-.24.1-.36l.18-.71c0-.12,0-.24.08-.36l-.71.69ZM1542.28,68.18l-2,0-4.06.08-2,.06-4,.13-2,.09-4,.18-1.94.12-3.88.24-3.82.28-2.83.23-2.79.25-2.77.27-2.73.28-2.69.31-.89.11-1,2.43c-.2.54-.39,1.09-.59,1.64l-.25.82c-.17.56-.34,1.11-.5,1.66-.08.28-.15.56-.22.84-.14.56-.28,1.12-.41,1.68l-.18.84c-.11.56-.22,1.13-.32,1.69,0,.29-.09.57-.14.85l-.24,1.7-.09.86c0,.57-.1,1.14-.16,1.71,0,.28,0,.57,0,.85,0,.58,0,1.15-.07,1.72,0,.28,0,.57,0,.86,0,.57,0,1.14,0,1.71,0,.29,0,.57,0,.86,0,.57.07,1.14.1,1.71l.09.86.18,1.7.12.85.27,1.71c.06.28.12.56.17.84l.36,1.69.21.84c.14.55.29,1.11.44,1.67.08.27.17.55.25.83.18.55.35,1.1.53,1.65.09.28.19.55.29.82.21.55.41,1.09.61,1.63.12.27.23.54.34.81l2.58.3,1.74.19,2.65.27,2.7.25,2.75.24,2.8.22,2.84.2,2.89.19,2.93.16,3,.15,3,.13,3.06.11,3.1.09,3.15.06,3.18,0,3.22,0h1.08V68.16Zm6.15,45.63,4.12,0,2,0,4.07-.08,2-.06,4-.13,2-.08,4-.19,1.95-.11,3.9-.24,3.83-.27,2.84-.23,2.81-.25,2.77-.27,2.74-.28,2.71-.3.89-.11.94-2.44c.19-.55.39-1.1.57-1.64.09-.28.17-.56.26-.83l.48-1.67.21-.83c.13-.56.26-1.12.4-1.68,0-.29.11-.57.16-.85.11-.56.21-1.13.32-1.69l.12-.85c.08-.57.15-1.14.23-1.7,0-.29,0-.57.08-.86,0-.57.09-1.14.14-1.71,0-.29,0-.57,0-.86l.06-1.71c0-.29,0-.57,0-.86l0-1.71,0-.86-.12-1.71-.09-.85c-.06-.57-.13-1.14-.2-1.71,0-.28-.08-.57-.13-.85-.09-.56-.19-1.13-.28-1.7l-.18-.84c-.12-.56-.24-1.12-.37-1.68l-.21-.84c-.16-.55-.31-1.11-.46-1.67-.09-.27-.17-.55-.26-.82l-.54-1.65-.3-.82-.63-1.62-.34-.81-2.69-.31-1.8-.2L1587.7,70l-2.78-.26-2.81-.25-2.84-.22-1-.07-3.84-.26-2-.12-3.91-.21-2-.08-4-.16-2-.06-4-.11-2,0-4.08,0h-2.06V113.8Zm-54-42.26-2,.29-3,.46-3,.48-2.89.51-.94.18-1.88.36-.91.18-1.83.38-.89.19-1.78.4-2,.47-1.7.42-1.66.43-1.6.43-.53.15-1,.3-.51.15-1,.3-.49.15-1,.3-.48.16-.93.31-.46.16-.9.31-.44.16-.87.32-.42.16-.84.32-.4.16-.8.33-.39.16-.76.33-.37.17-.73.33-.35.17L1454,82a3.59,3.59,0,0,0-.34.17l-.66.34-.31.17L1452,83l-.3.17-.58.35-.28.17-.54.35-.26.17-.51.35-.24.18-.47.35-.22.18-.44.35-.2.18-.39.36-.18.18-.36.35-.16.18-.32.36-.14.18-.28.36-.12.18-.24.36a1.62,1.62,0,0,1-.1.18l-.2.37a1.42,1.42,0,0,1-.08.18l-.15.36-.06.18-.12.37c0,.06,0,.12,0,.18s0,.24-.07.36l0,.18c0,.12,0,.25,0,.37v.18l.06.71c0,.16.07.32.1.48a2.09,2.09,0,0,0,.08.23c0,.16.11.32.17.48l.11.24.25.47.15.24c.11.16.22.31.32.47l.19.24.39.47.23.24c.16.16.31.32.47.47l.26.24.54.47.29.23.61.47.34.24.68.46.36.23.75.46.4.23.82.46.43.23.89.45.47.23,1,.44.5.23,1,.44.54.22,1.08.43.56.22,1.15.43.6.21,1.21.42.62.21,1.28.42.65.2,1.34.41.69.2,1.39.4.72.2,1.45.38.75.2,1.51.38.78.18,1.57.37.8.18,1.63.36.83.18,1.69.35,2.6.5,2.68.49,2.76.47,2.84.45,2.92.43,3,.4,1,.13c-.29-.8-.59-1.6-.89-2.41-.17-.54-.35-1.08-.53-1.62-.08-.28-.16-.55-.23-.82-.15-.55-.31-1.1-.46-1.64-.06-.28-.13-.55-.19-.83-.13-.55-.25-1.1-.37-1.66-.06-.27-.11-.55-.16-.83-.1-.55-.19-1.11-.29-1.67l-.12-.83-.21-1.68c0-.28,0-.56-.08-.84,0-.56-.08-1.12-.13-1.69l0-.84-.06-1.69c0-.28,0-.56,0-.84,0-.56,0-1.12,0-1.69,0-.28,0-.56,0-.84,0-.56.07-1.12.1-1.68,0-.28.06-.56.08-.84.07-.56.13-1.12.19-1.68l.12-.84.27-1.67c0-.28.11-.56.16-.83.12-.56.23-1.11.35-1.66.06-.28.13-.55.2-.83.14-.55.28-1.09.43-1.64l.24-.82c.17-.54.33-1.09.5-1.63.1-.27.19-.54.28-.81.2-.53.39-1.07.59-1.6.11-.27.21-.54.32-.8l-3.11.42Zm103.71,2,.55,1.62.24.81c.15.55.31,1.1.46,1.64l.21.83c.13.55.25,1.1.38,1.65.06.28.11.55.16.83.11.55.21,1.11.31,1.67l.12.83c.08.56.15,1.12.23,1.68,0,.28,0,.56.08.84l.15,1.68c0,.28,0,.56,0,.84,0,.56.05,1.12.07,1.69V91c0,.56,0,1.12,0,1.69,0,.28,0,.56,0,.84L1601,95.2c0,.28,0,.56-.08.84,0,.56-.11,1.12-.17,1.68,0,.28-.07.56-.11.84-.09.56-.17,1.12-.25,1.67-.06.28-.11.56-.16.84l-.33,1.66c-.07.27-.13.55-.2.82-.13.55-.27,1.1-.41,1.65-.08.27-.15.55-.23.82-.17.55-.33,1.09-.49,1.63-.1.27-.19.54-.28.81l-.57,1.62-.31.79,3.08-.4,2-.29,3-.45,2.93-.47,2.87-.5.94-.17,1.86-.35.91-.18,1.82-.37.89-.19,1.76-.38.86-.2h0l1.74-.41,1.13-.27,1.66-.42,1.61-.43,1.56-.43.5-.15,1-.29.49-.15,1-.3.47-.15.93-.31.46-.15.91-.31.43-.15.87-.32.42-.15.84-.32.4-.16.8-.32.39-.16.76-.32.37-.17.73-.32.35-.17.69-.33.34-.16.66-.33a3.07,3.07,0,0,1,.31-.17l.62-.34.3-.17.58-.34.28-.17.54-.33.26-.18.51-.34.24-.17.47-.35.22-.17.43-.35.2-.17.4-.35.18-.17.36-.36.16-.17.32-.35.14-.18.27-.35.13-.18c.08-.11.15-.23.23-.35l.11-.18.19-.35a1.42,1.42,0,0,0,.08-.18c.06-.12.11-.24.16-.35l.06-.18.12-.36a1.16,1.16,0,0,1,0-.18c0-.11,0-.23.07-.35a1.1,1.1,0,0,0,0-.18l0-.35v-.18l0-.55c0-.12,0-.24,0-.36s0-.12,0-.18l-.09-.37a1.34,1.34,0,0,1-.07-.18l-.13-.36-.09-.19-.17-.36a1.62,1.62,0,0,1-.1-.18c-.08-.12-.15-.24-.22-.36l-.12-.18-.26-.36-.14-.18-.3-.36-.16-.18-.34-.36-.18-.18L1647,86l-.2-.18-.42-.36-.22-.17-.45-.36-.24-.17-.49-.35-.26-.18-.53-.35-.27-.17-.57-.35-.3-.17-.6-.34-.31-.17-.64-.35-.33-.16-.68-.34-.35-.17-.71-.34-.37-.16-.75-.33-.38-.17-.79-.32-.4-.17-.82-.32-.42-.16-.85-.32-.44-.16-.89-.32-.45-.15-.92-.32-.48-.15-1-.31-.49-.15-1-.31-.5-.15-1-.29L1626,76.6l-1.62-.44-1.68-.42-1.72-.42-.58-.13-2.65-.6-1.8-.38L1615,74l-1.85-.37-.94-.17-1.9-.35-2.91-.51-3-.47-3-.45-3.09-.43-1-.13.9,2.4Zm-32.47-32.86.88.33.43.17.86.34.43.18.85.37.42.19.84.39.42.2.83.41.41.21,1.62.87.79.47,1.58.95.77.5,1.52,1,.74.55,1.46,1.1.72.57,1.4,1.18c.23.2.46.4.68.61l1.35,1.24.65.65,1.28,1.31.61.68c.41.45.81.91,1.22,1.37l.58.71,1.14,1.44.55.74,1.07,1.5c.17.25.34.51.5.77l.51.77.24.39c.16.27.33.53.49.79l.23.4.47.8.22.41.45.81.21.41.42.83.21.42.4.84c.07.14.13.29.2.43l4.67.61,1.53.22,2.27.34,2.23.35,2.21.37,2.16.38,2.13.39,2.08.41,2.05.42,2,.43,1.95.45,1.92.46.62.16,1.24.32.61.16,1.2.33.59.16,1.18.34.57.17,1.14.34.55.17,1.1.36.54.17,1.07.37.51.18,1,.37.5.19,1,.37.48.19,1,.39.46.2.9.39.44.2.86.4.42.21.82.41.39.2.78.42.37.22.72.42c.12.07.24.14.35.22l.68.43.33.22.63.44.3.23.59.45.27.23.54.45.25.24.48.46.23.24c-.06-.24-.12-.48-.17-.72a3.57,3.57,0,0,1-.1-.35c-.07-.24-.13-.48-.2-.71s-.07-.24-.11-.35l-.23-.71-.12-.35c-.09-.23-.17-.47-.26-.7l-.14-.35-.28-.69-.15-.35-.32-.69-.16-.34c-.12-.23-.23-.46-.34-.69l-.18-.34-.37-.68-.19-.33-.39-.68-.21-.33-.42-.67c-.07-.11-.14-.22-.22-.33l-.44-.66-.23-.33-.48-.66-.24-.32-.49-.65-.26-.33c-.18-.21-.35-.42-.52-.64l-.27-.32-.55-.63-.28-.32-.57-.63-.3-.31-.59-.63-.31-.3c-.2-.21-.41-.42-.62-.62l-.32-.31-.64-.6-.33-.31-.66-.6-.35-.3-.68-.59-.36-.3-.71-.58-.36-.29-1.48-1.16-.77-.56-1.57-1.13-.81-.54-1.65-1.09-.86-.53-1.73-1.06-.9-.51-1.81-1-.94-.5-1.89-1-1-.47-2-1-1-.45-2-.91-1-.43-2.11-.87-1.08-.41-2.18-.82-1.11-.4-2.25-.78-1.14-.37-2.31-.73-1.17-.35-2.37-.69-1.2-.32L1593.3,45l-1.23-.3-2.48-.59-1.26-.28-2.53-.54-1.29-.26-2.58-.49-1.31-.22-2.63-.44-1.33-.21-2.68-.38-1.36-.18-2.72-.33-1.37-.15-2.76-.27-1.4-.12,1.32.46Zm-38-.21-1.38.14-2.74.31-1.36.17-2.69.36-1.34.2-2.65.42-1.31.22-2.61.47-1.28.25-2.56.52-1.26.28-2.51.57-1.23.3-2.45.62-1.21.33-2.39.66-1.18.35-2.33.71-1.15.37-2.27.76-1.11.39-2.21.8-1.08.42-2.15.84-1,.44-2.07.88-1,.46-2,.92-1,.48-1.93,1-.94.5-1.85,1-.89.51-1.78,1-.86.54-1.69,1.07-.81.55-1.61,1.1-.77.57-1.52,1.14-.73.58-.72.58-.36.29c-.23.2-.46.4-.7.59l-.34.3-.68.6-.33.3-.65.61-.32.3-.63.62-.3.31c-.21.2-.41.41-.61.62s-.2.2-.29.31-.39.42-.59.62l-.28.32-.56.63-.27.32-.53.64-.26.33-.51.64-.24.33c-.17.21-.33.43-.49.65l-.23.33-.46.66-.22.33-.43.67c-.07.11-.14.22-.2.33l-.41.67-.19.34-.38.67-.18.34c-.12.23-.24.46-.35.69l-.17.34c-.11.23-.22.46-.32.69l-.16.34-.29.69-.14.35-.27.7c0,.12-.09.23-.13.35l-.24.7c0,.12-.07.24-.11.36l-.21.7c0,.12-.07.24-.1.36s-.12.47-.19.71,0,.24-.08.36l.71-.7.51-.47.28-.22c.18-.16.37-.31.56-.46l.3-.22.61-.45.32-.22.66-.44.35-.21.7-.43.37-.21.76-.43.39-.21.8-.41.41-.21.84-.4.44-.2.88-.4.46-.19.93-.4.47-.19,1-.38.5-.19,1-.37.51-.18,1.05-.37.54-.18,1.08-.35.56-.18,1.11-.34.58-.17,1.15-.34L1467,75l1.19-.33.61-.16,1.22-.32.63-.16,1.25-.31,1.93-.46,2-.44,2-.43,2.05-.42,2.1-.4,2.14-.39,2.18-.38,2.21-.36,2.25-.35,2.27-.33.77-.11,3.1-.42,1.57-.2.6-1.26c.14-.28.28-.56.41-.84.08-.13.15-.27.22-.41l.43-.82.23-.41.45-.8.24-.4.47-.8.25-.39c.16-.26.32-.52.49-.78l.25-.39c.35-.51.69-1,1-1.52l.54-.74L1505.2,58l.58-.71,1.18-1.41c.21-.22.41-.45.62-.68l1.25-1.34.64-.64,1.32-1.28c.22-.21.45-.41.68-.61l1.37-1.21.71-.58,1.44-1.14.74-.54,1.49-1.06.77-.5,1.55-1,.79-.46,1.61-.91.81-.43.83-.42.41-.2.84-.4.42-.19.84-.38.43-.18.86-.36.43-.17.87-.33.43-.16.88-.32.45-.14Zm16.86-.87-1.24.08-.61.06-1.23.12-.61.08-1.21.16-.6.1-1.2.21-.59.12-1.19.24-.58.14-1.17.29-.58.16-1.15.33-.57.18-1.14.36-.56.2-1.12.4-.55.22-1.1.44-.55.24-1.08.47-.53.26-1.06.51-.53.27-1,.55-.51.28-1,.59-.5.3-1,.62-.49.32-1,.65-.47.33-1,.68-.46.35-.93.72L1515,51l-.91.75-.44.38-.88.77-.42.39-.85.8-.42.41-.82.83c-.13.14-.27.28-.4.43s-.53.57-.79.85l-.39.44-.77.88-.37.45c-.24.31-.49.61-.73.91l-.36.46-.71.93-.34.48-.67,1-.33.48c-.21.33-.42.66-.64,1s-.2.34-.31.5l-.6,1-.3.51-.57,1-.28.52-.54,1c-.08.18-.17.36-.26.53l2.7-.3,1.81-.19.91-.09,3.68-.36,1.86-.16,3.73-.31,1.9-.13,3.79-.26,1.91-.11,3.84-.2,1.92-.09,3.87-.15,1.94-.06,3.89-.1,1.94,0,3.89,0h1.94V39.53l-1.86.07Zm3.91,26.51,3.89,0,2,0,3.89.08,1.94.05,3.87.13,1.93.09,3.86.17,1.91.11,3.81.24,1.89.13,3.77.28,1.86.16,3.71.33,3.65.37,2.7.3.89.11-.79-1.58-.56-1-.29-.52-.6-1-.31-.5c-.2-.33-.41-.66-.62-1l-.33-.49-.65-1-.35-.48-.68-.94-.36-.47-.72-.92-.37-.45-.75-.89-.39-.44-.78-.87-.4-.42-.81-.84-.41-.41-.84-.82-.43-.4-.86-.78-.44-.38-.89-.76-.46-.37-.91-.72-.47-.36-.94-.69-.48-.34-1-.66-.49-.32-1-.63-.5-.31-1-.6-.51-.29c-.35-.18-.69-.37-1-.56l-.53-.27-1-.53-.53-.25-1.07-.5-.55-.23-1.09-.46-.55-.22-1.11-.42-.56-.2L1563.4,42l-.57-.18-1.14-.34-.58-.16-1.16-.31-.59-.14-1.18-.27-.59-.12-1.19-.22-.6-.1-1.21-.19-.61-.08-1.21-.14-.62-.06-1.23-.1-.62,0-1.24-.06h-.63V66.1Z"/></g><g id="_6022c7f3-d0e8-4839-b6a0-ba4db5e44ce8-child-0" data-name="6022c7f3-d0e8-4839-b6a0-ba4db5e44ce8-child-0"><path class="cls-3" d="M1623.39,48.45c-20.4-10.39-47.38-16.11-76-16.11s-55.57,5.72-76,16.11c-21.71,11.06-33.67,26.25-33.67,42.76s12,31.7,33.67,42.76c20.4,10.39,47.38,16.11,76,16.11s55.58-5.71,76-16.11c21.72-11.06,33.67-26.25,33.67-42.76S1645.1,59.51,1623.39,48.45Z"/></g><g id="_6022c7f3-d0e8-4839-b6a0-ba4db5e44ce8-child-1" data-name="6022c7f3-d0e8-4839-b6a0-ba4db5e44ce8-child-1"><path d="M1547.4,37.45c-57.64,0-104.53,24.11-104.53,53.76S1489.76,145,1547.4,145s104.53-24.11,104.53-53.75S1605.05,37.45,1547.4,37.45Zm101.81,47.8c-7.15-7.55-27.66-13.12-52.87-16.25a54,54,0,0,0-32-28.78C1609,44,1644,62.36,1649.21,85.25ZM1546.38,66.11a405.6,405.6,0,0,0-45.52,2.6,51.76,51.76,0,0,1,45.52-29.18Zm0,2v45.65a403.57,403.57,0,0,1-46.66-2.64,51.65,51.65,0,0,1,.18-40.33A397.57,397.57,0,0,1,1546.38,68.16Zm0,47.7v27a51.73,51.73,0,0,1-45.71-29.61A416,416,0,0,0,1546.38,115.86Zm2,0a416.52,416.52,0,0,0,45.73-2.58,51.76,51.76,0,0,1-45.73,29.61Zm0-2V68.16a400.21,400.21,0,0,1,46.5,2.67,51.67,51.67,0,0,1,.18,40.32A407.61,407.61,0,0,1,1548.43,113.81Zm0-47.7V39.53A51.78,51.78,0,0,1,1594,68.71,405.64,405.64,0,0,0,1548.43,66.11Zm-18-25.89a54,54,0,0,0-32,28.77c-25.21,3.14-45.71,8.71-52.86,16.26C1450.84,62.36,1485.79,44,1530.44,40.22Zm-56,35c7-1.62,14.74-3,23.11-4.05a53.57,53.57,0,0,0-.16,39.76c-32.63-4.16-52.48-12.1-52.48-19.68C1444.92,85.39,1455.69,79.54,1474.45,75.18ZM1445.58,97c7.1,7.4,27.53,12.88,52.71,16a54,54,0,0,0,32.15,29.2C1485.7,138.43,1450.7,120,1445.58,97Zm118.8,45.18A54,54,0,0,0,1596.53,113c25.17-3.09,45.61-8.57,52.71-16-5.12,23-40.13,41.4-84.86,45.17Zm56-35.29c-6.91,1.58-14.64,2.9-22.95,4a53.52,53.52,0,0,0-.16-39.74c8.37,1.08,16.15,2.43,23.11,4.05,18.76,4.37,29.52,10.21,29.52,16s-10.76,11.42-29.52,15.7Z"/></g></g></g></g></svg>