<svg xmlns="http://www.w3.org/2000/svg" viewBox="0 0 1479.51 457.74"><defs><style>.cls-1{fill:none;stroke:#000;stroke-linecap:round;stroke-miterlimit:10;stroke-width:5.1px;}</style></defs><title>Asset 5</title><g id="Layer_2" data-name="Layer 2"><g id="Layer_1-2" data-name="Layer 1"><g id="_2c296242-b11b-4571-b815-3e13cec4535a" data-name="2c296242-b11b-4571-b815-3e13cec4535a"><g id="_2c296242-b11b-4571-b815-3e13cec4535a-child-0" data-name="2c296242-b11b-4571-b815-3e13cec4535a-child-0"><path d="M455.24,94V3.84H365.68V92.35h-86.3V3.84H189.82V92.35h-86.3V3.84H14V94h87.93v86.87H14V271h89.56V182.51h86.3V271h89.56V182.51h86.3V271h89.56V180.87H367.31V94ZM277.75,180.87h-86.3V94h86.3Z"/></g></g><g id="a49ca4f5-cb85-492c-8497-7970a40deba8"><g id="a49ca4f5-cb85-492c-8497-7970a40deba8-child-0"><path class="cls-1" d="M555.47,263.9V2.55h918.87V263.9Z"/></g></g><g id="c5fed689-073d-4401-8596-0efb50533abe"><g id="_796fda0d-fcaf-4b01-a12d-58e72a022971" data-name="796fda0d-fcaf-4b01-a12d-58e72a022971"><path d="M1358.56,143.35h-17v-2.9l8.4-9.18a21.41,21.41,0,0,0,2.6-3.39,5.55,5.55,0,0,0,.77-2.73,4.14,4.14,0,0,0-1-2.92,3.48,3.48,0,0,0-2.72-1.11,4,4,0,0,0-3.17,1.25,4.92,4.92,0,0,0-1.13,3.42h-4.22a8.23,8.23,0,0,1,1.05-4.15,7.31,7.31,0,0,1,3-2.88,9.58,9.58,0,0,1,4.51-1,8.56,8.56,0,0,1,5.8,1.85,6.44,6.44,0,0,1,2.12,5.11,8.65,8.65,0,0,1-1.06,4,22.1,22.1,0,0,1-3.5,4.71l-6.18,6.61h11.73Zm19.68-10.64q0,5.44-2,8.22a7.19,7.19,0,0,1-6.2,2.77,7.29,7.29,0,0,1-6.17-2.7q-2.07-2.7-2.13-8v-4.37q0-5.44,2-8.18t6.22-2.72q4.15,0,6.19,2.65t2.09,8ZM1374,128a10.67,10.67,0,0,0-1-5.21,3.71,3.71,0,0,0-6.12-.09,9.81,9.81,0,0,0-1,4.91v5.72a11,11,0,0,0,1,5.28,3.34,3.34,0,0,0,3.11,1.73,3.26,3.26,0,0,0,3-1.6,10.27,10.27,0,0,0,1-5ZM1399,143.35h-17v-2.9l8.42-9.18a20.65,20.65,0,0,0,2.59-3.39,5.55,5.55,0,0,0,.77-2.73,4.18,4.18,0,0,0-1-2.92,3.54,3.54,0,0,0-2.74-1.11,4.06,4.06,0,0,0-3.17,1.25,4.92,4.92,0,0,0-1.13,3.42h-4.22a8.23,8.23,0,0,1,1-4.15,7.28,7.28,0,0,1,3-2.88,9.57,9.57,0,0,1,4.5-1,8.54,8.54,0,0,1,5.8,1.85,6.41,6.41,0,0,1,2.13,5.11,8.67,8.67,0,0,1-1.07,4,22.1,22.1,0,0,1-3.5,4.71l-6.17,6.61H1399Zm3.54-10.27a26.71,26.71,0,0,1,1.07-7.61,20.91,20.91,0,0,1,3.16-6.44,12.63,12.63,0,0,1,4.41-4l.83,2.46a12.9,12.9,0,0,0-4,5.67,25.39,25.39,0,0,0-1.65,8.72l0,1.49a27.56,27.56,0,0,0,1.48,9.38A13.8,13.8,0,0,0,1412,149l-.83,2.34a12.44,12.44,0,0,1-4.42-4,20.85,20.85,0,0,1-3.16-6.43A27.59,27.59,0,0,1,1402.5,133.08Zm26.32,1.26H1432v3.39h-3.14v5.62h-4.22v-5.62h-10.91l-.12-2.57,10.89-17.07h4.36Zm-10.83,0h6.61V123.8l-.31.55Zm25.16-1a25.92,25.92,0,0,1-1.06,7.43,21.22,21.22,0,0,1-3.21,6.52,12.44,12.44,0,0,1-4.49,4.07l-.84-2.34a13.27,13.27,0,0,0,4.13-6.15,27.4,27.4,0,0,0,1.51-9.45V133a27.66,27.66,0,0,0-1.32-8.78,15.24,15.24,0,0,0-3.78-6.36l-.54-.49.84-2.36a12.47,12.47,0,0,1,4.3,3.82,20.68,20.68,0,0,1,3.19,6.13,25.42,25.42,0,0,1,1.25,7Z"/></g></g><g id="_5ba08f66-d913-4b97-8af1-62e3b58f3d3e" data-name="5ba08f66-d913-4b97-8af1-62e3b58f3d3e"><g id="_91011401-0401-44e4-9656-3f1b04fdbbb2" data-name="91011401-0401-44e4-9656-3f1b04fdbbb2"><path d="M788,62.93l-2.67,2.83V73.1h-4.09V49.56h4.09v11l2.27-2.79,6.88-8.25h4.95L790.65,60,799.9,73.1h-4.85ZM805.88,73.1H802V55.61h3.93Zm-4.17-22a2.06,2.06,0,0,1,.58-1.5,2.16,2.16,0,0,1,1.64-.6,2.2,2.2,0,0,1,1.65.6,2.06,2.06,0,0,1,.58,1.5,2,2,0,0,1-.58,1.48,2.23,2.23,0,0,1-1.65.59,2.19,2.19,0,0,1-1.64-.59A2,2,0,0,1,801.71,51.06Zm13.37.3v4.25h3.09v2.91h-3.09v9.76a2.13,2.13,0,0,0,.4,1.45,1.84,1.84,0,0,0,1.41.44,6,6,0,0,0,1.38-.16v3a9.58,9.58,0,0,1-2.59.37q-4.53,0-4.53-5V58.52h-2.87V55.61h2.87V51.36Zm11,0v4.25h3.09v2.91h-3.09v9.76a2.13,2.13,0,0,0,.4,1.45,1.84,1.84,0,0,0,1.41.44,6,6,0,0,0,1.38-.16v3a9.58,9.58,0,0,1-2.59.37q-4.53,0-4.53-5V58.52h-2.87V55.61h2.87V51.36ZM836.36,73.1h-3.93V48.27h3.93ZM864,63.19q0,5.09-1.9,7.65a6.71,6.71,0,0,1-5.78,2.58,6.82,6.82,0,0,1-5.75-2.51c-1.29-1.67-1.95-4.16-2-7.45V59.39c0-3.39.63-5.92,1.9-7.61A7.92,7.92,0,0,1,862,51.71q1.9,2.48,2,7.41ZM860,58.79a10,10,0,0,0-.9-4.86,3.47,3.47,0,0,0-5.71-.08,9.26,9.26,0,0,0-.94,4.57v5.34a10.42,10.42,0,0,0,.91,4.91,3.1,3.1,0,0,0,2.89,1.62,3.05,3.05,0,0,0,2.8-1.5,9.59,9.59,0,0,0,.95-4.68ZM883.26,73.1H867.44V70.4l7.84-8.55a19.48,19.48,0,0,0,2.42-3.16,5.24,5.24,0,0,0,.71-2.55,3.88,3.88,0,0,0-.94-2.72,3.28,3.28,0,0,0-2.55-1,3.8,3.8,0,0,0-3,1.16,4.6,4.6,0,0,0-1.05,3.19H867a7.73,7.73,0,0,1,1-3.87,6.77,6.77,0,0,1,2.8-2.68,9,9,0,0,1,4.19-.95A8,8,0,0,1,880.36,51a6,6,0,0,1,2,4.76,8.11,8.11,0,0,1-1,3.69,21,21,0,0,1-3.26,4.39L872.34,70h10.92Zm11.55-9.57a24.55,24.55,0,0,1,1-7.09,19.74,19.74,0,0,1,2.94-6,11.62,11.62,0,0,1,4.11-3.71l.78,2.3a12,12,0,0,0-3.7,5.28,23.76,23.76,0,0,0-1.54,8.12l0,1.39a25.73,25.73,0,0,0,1.38,8.74,12.9,12.9,0,0,0,3.88,5.84l-.78,2.19a11.71,11.71,0,0,1-4.12-3.73,19.74,19.74,0,0,1-2.94-6,25.73,25.73,0,0,1-1-7.33ZM924.72,70a7.81,7.81,0,0,1-3.54,2.53,14.51,14.51,0,0,1-5.14.85,10.19,10.19,0,0,1-5.24-1.34,8.93,8.93,0,0,1-3.52-3.84A13.35,13.35,0,0,1,906,62.41V60.57q0-5.32,2.55-8.33a8.85,8.85,0,0,1,7.13-3,9.41,9.41,0,0,1,6.24,1.94,8.35,8.35,0,0,1,2.78,5.59h-4c-.45-2.83-2.1-4.25-4.93-4.25a4.83,4.83,0,0,0-4.18,2,10.11,10.11,0,0,0-1.48,5.81v1.81a9.61,9.61,0,0,0,1.61,5.93,5.29,5.29,0,0,0,4.47,2.11c2.09,0,3.58-.48,4.46-1.43v-4.6h-4.85V61h8.93ZM938,59.2a9.34,9.34,0,0,0-1.6-.13,3.61,3.61,0,0,0-3.64,2.07v12h-3.93V55.61h3.75l.1,2a4.43,4.43,0,0,1,4-2.28,3.7,3.7,0,0,1,1.39.23Zm12.45,13.9a6.18,6.18,0,0,1-.45-1.63,6.63,6.63,0,0,1-8.9.45,4.8,4.8,0,0,1-1.66-3.72,4.94,4.94,0,0,1,2.08-4.29,10,10,0,0,1,5.94-1.5h2.41V61.27a3.06,3.06,0,0,0-.76-2.18,3,3,0,0,0-2.32-.82,3.43,3.43,0,0,0-2.19.68,2.08,2.08,0,0,0-.86,1.7H939.8a4.37,4.37,0,0,1,1-2.69,6.43,6.43,0,0,1,2.6-2,9,9,0,0,1,3.66-.72,7.34,7.34,0,0,1,4.9,1.55,5.48,5.48,0,0,1,1.87,4.34v7.89a8.84,8.84,0,0,0,.67,3.77v.27Zm-4.32-2.83a4.42,4.42,0,0,0,2.19-.57,3.76,3.76,0,0,0,1.55-1.51v-3.3h-2.12a5.76,5.76,0,0,0-3.28.76,2.47,2.47,0,0,0-1.1,2.15,2.3,2.3,0,0,0,.75,1.8,2.89,2.89,0,0,0,2,.67Zm27.1-5.74A10.41,10.41,0,0,1,971.37,71a6.4,6.4,0,0,1-9.55.52v8.3h-3.93V55.61h3.62l.16,1.78a5.75,5.75,0,0,1,4.71-2.11,6,6,0,0,1,5,2.39,10.7,10.7,0,0,1,1.82,6.62Zm-3.91-.34a7.22,7.22,0,0,0-1-4.15,3.37,3.37,0,0,0-3-1.54,3.61,3.61,0,0,0-3.46,2v7.76a3.65,3.65,0,0,0,3.49,2,3.39,3.39,0,0,0,2.94-1.51A8,8,0,0,0,969.31,64.19Zm11.1-6.67a6.17,6.17,0,0,1,4.87-2.24q5.6,0,5.67,6.39V73.1H987V61.82a3.48,3.48,0,0,0-.78-2.57,3.2,3.2,0,0,0-2.3-.75,3.8,3.8,0,0,0-3.53,2.1V73.1h-3.93V48.27h3.93Zm22.09,6.27a24.29,24.29,0,0,1-1,6.93,19.88,19.88,0,0,1-3,6.07,11.88,11.88,0,0,1-4.19,3.8l-.77-2.19a12.53,12.53,0,0,0,3.84-5.73,25.51,25.51,0,0,0,1.41-8.8V63.5a25.79,25.79,0,0,0-1.23-8.19,14.44,14.44,0,0,0-3.52-5.93l-.5-.45.77-2.2a11.52,11.52,0,0,1,4,3.56,19.3,19.3,0,0,1,3,5.71,24,24,0,0,1,1.16,6.53Z"/></g></g><g id="f86a51d8-491c-47c8-9ecd-140dab2f941c"><g id="ec1a3faa-0824-4d99-b69d-11228897d80d"><path d="M794.19,202.46v3.48h-.52a8.41,8.41,0,0,0-5.66,1.95,8.11,8.11,0,0,0-2.51,5.36,6.81,6.81,0,0,1,5.18-2.14,6.49,6.49,0,0,1,5.29,2.36,9.28,9.28,0,0,1,1.93,6.09,8.69,8.69,0,0,1-2.26,6.24,7.84,7.84,0,0,1-5.95,2.39,7.62,7.62,0,0,1-6.13-2.8,11,11,0,0,1-2.35-7.32v-1.44q0-6.65,3.24-10.41t9.3-3.76Zm-4.53,12a4.36,4.36,0,0,0-2.54.79,4.48,4.48,0,0,0-1.69,2.08v1.28a7.56,7.56,0,0,0,1.18,4.47,3.73,3.73,0,0,0,6,.25,5.81,5.81,0,0,0,1.09-3.69,6,6,0,0,0-1.11-3.74,3.54,3.54,0,0,0-3-1.44Zm28.42-9.59L808,227.84h-4.42L813.64,206H800.57v-3.38h17.51Zm19.3,4.32a5.87,5.87,0,0,1-1,3.31,6.64,6.64,0,0,1-2.6,2.28,7.17,7.17,0,0,1,3,2.51,6.38,6.38,0,0,1,1.07,3.61,6.64,6.64,0,0,1-2.26,5.29,10.23,10.23,0,0,1-12,0,6.63,6.63,0,0,1-2.26-5.28,6.45,6.45,0,0,1,1.07-3.64,6.87,6.87,0,0,1,3-2.48,6.62,6.62,0,0,1-2.57-2.28,5.94,5.94,0,0,1-.95-3.31,6.57,6.57,0,0,1,2.08-5.12,9.33,9.33,0,0,1,11.26,0,6.58,6.58,0,0,1,2.09,5.12Zm-3.67,11.5a4.13,4.13,0,0,0-1.12-3,3.9,3.9,0,0,0-3-1.16,3.86,3.86,0,0,0-2.94,1.15,4.16,4.16,0,0,0-1.11,3,4,4,0,0,0,1.09,3,4,4,0,0,0,3,1.11,4,4,0,0,0,3-1.07A4.09,4.09,0,0,0,833.71,220.74Zm-.53-11.34a3.91,3.91,0,0,0-1-2.72,3.27,3.27,0,0,0-2.57-1.07,3.31,3.31,0,0,0-2.55,1,3.93,3.93,0,0,0-.93,2.77,3.89,3.89,0,0,0,.94,2.75,3.7,3.7,0,0,0,5.12,0,3.89,3.89,0,0,0,.95-2.75Zm11.38,14a2.4,2.4,0,0,1,1.82.67,2.33,2.33,0,0,1,.63,1.67,2.26,2.26,0,0,1-.63,1.64,2.85,2.85,0,0,1-3.61,0,2.21,2.21,0,0,1-.66-1.65,2.33,2.33,0,0,1,.63-1.67A2.42,2.42,0,0,1,844.56,223.4Zm24,4.44h-17v-2.9l8.41-9.18a20.65,20.65,0,0,0,2.59-3.39,5.46,5.46,0,0,0,.78-2.73,4.14,4.14,0,0,0-1-2.92,3.5,3.5,0,0,0-2.73-1.11,4.07,4.07,0,0,0-3.18,1.25,4.91,4.91,0,0,0-1.12,3.42h-4.22a8.34,8.34,0,0,1,1-4.15,7.31,7.31,0,0,1,3-2.88,9.57,9.57,0,0,1,4.5-1,8.58,8.58,0,0,1,5.81,1.85,6.44,6.44,0,0,1,2.12,5.11,8.65,8.65,0,0,1-1.06,4,22.1,22.1,0,0,1-3.5,4.71l-6.17,6.61h11.72Zm8.09-14.56h2.57a4.6,4.6,0,0,0,3.08-1,3.63,3.63,0,0,0,1.13-2.87,3.92,3.92,0,0,0-.94-2.8,3.8,3.8,0,0,0-2.89-1,4.07,4.07,0,0,0-2.8,1,3.27,3.27,0,0,0-1.09,2.56h-4.22a6.4,6.4,0,0,1,1-3.54,7,7,0,0,1,2.88-2.49,9.45,9.45,0,0,1,4.14-.89,8.67,8.67,0,0,1,5.94,1.9,6.67,6.67,0,0,1,2.16,5.28,5.33,5.33,0,0,1-1.09,3.2,6.69,6.69,0,0,1-2.8,2.27,6.2,6.2,0,0,1,3.17,2.24,6.12,6.12,0,0,1,1.08,3.64,6.79,6.79,0,0,1-2.33,5.41,10.21,10.21,0,0,1-12.1.07,6.4,6.4,0,0,1-2.33-5.17h4.22a3.52,3.52,0,0,0,1.12,2.71,4.27,4.27,0,0,0,3,1,4.39,4.39,0,0,0,3.09-1,4.61,4.61,0,0,0-.06-6.09,5,5,0,0,0-3.5-1.08h-2.48Zm44.12,6.34a9.12,9.12,0,0,1-3,6.3,10.2,10.2,0,0,1-6.93,2.27,9.86,9.86,0,0,1-5.31-1.43,9.48,9.48,0,0,1-3.55-4.07,14.67,14.67,0,0,1-1.3-6.13V214.2a14.89,14.89,0,0,1,1.26-6.3,9.66,9.66,0,0,1,3.64-4.2,10.15,10.15,0,0,1,5.47-1.47,9.76,9.76,0,0,1,6.73,2.27,9.53,9.53,0,0,1,3,6.42H916.4a6.28,6.28,0,0,0-1.59-3.93,5.25,5.25,0,0,0-3.74-1.2,5.15,5.15,0,0,0-4.4,2.09A10.51,10.51,0,0,0,905.1,214v2.24a11.08,11.08,0,0,0,1.47,6.25,4.88,4.88,0,0,0,4.29,2.15,5.65,5.65,0,0,0,3.89-1.17,6,6,0,0,0,1.65-3.86ZM935.66,226a6.55,6.55,0,0,1-5.28,2.19,5.84,5.84,0,0,1-4.62-1.79,7.59,7.59,0,0,1-1.57-5.17V209.07h4.22v12.11q0,3.57,3,3.57t4.15-2.2V209.07h4.22v18.77h-4Zm18.89-3.26a1.91,1.91,0,0,0-.93-1.72,9.82,9.82,0,0,0-3.07-1,15.42,15.42,0,0,1-3.6-1.15c-2.1-1-3.15-2.49-3.15-4.42a5,5,0,0,1,2-4.06,8.09,8.09,0,0,1,5.21-1.63,8.45,8.45,0,0,1,5.44,1.66,5.31,5.31,0,0,1,2.07,4.33h-4.22a2.62,2.62,0,0,0-.9-2,3.49,3.49,0,0,0-2.39-.8,3.74,3.74,0,0,0-2.27.64,2,2,0,0,0-.87,1.72,1.71,1.71,0,0,0,.81,1.51,11.86,11.86,0,0,0,3.3,1.08,16.2,16.2,0,0,1,3.9,1.3A5.48,5.48,0,0,1,958,220a4.55,4.55,0,0,1,.69,2.56,4.91,4.91,0,0,1-2.1,4.11,8.93,8.93,0,0,1-5.5,1.57,9.61,9.61,0,0,1-4.11-.84,6.69,6.69,0,0,1-2.81-2.29,5.41,5.41,0,0,1-1-3.14h4.1a2.93,2.93,0,0,0,1.12,2.3,4.36,4.36,0,0,0,2.76.81,4.31,4.31,0,0,0,2.54-.63,2,2,0,0,0,.86-1.66Zm13.1-18.24v4.57H971v3.12h-3.32v10.48a2.24,2.24,0,0,0,.43,1.55,2,2,0,0,0,1.52.48,6.7,6.7,0,0,0,1.47-.17v3.26a10.19,10.19,0,0,1-2.77.4q-4.86,0-4.86-5.36V212.19h-3.09v-3.12h3.09V204.5Zm5.23,13.78a11,11,0,0,1,1.09-5,8,8,0,0,1,3.07-3.4,8.7,8.7,0,0,1,4.55-1.19,8.18,8.18,0,0,1,6.16,2.45,9.62,9.62,0,0,1,2.56,6.49l0,1a11.23,11.23,0,0,1-1.07,5,7.88,7.88,0,0,1-3,3.38,8.73,8.73,0,0,1-4.59,1.2,8.13,8.13,0,0,1-6.36-2.65,10.15,10.15,0,0,1-2.38-7Zm4.21.36a7.56,7.56,0,0,0,1.2,4.54,3.9,3.9,0,0,0,3.33,1.64,3.84,3.84,0,0,0,3.32-1.66,8.39,8.39,0,0,0,1.19-4.88,7.49,7.49,0,0,0-1.22-4.51,4.12,4.12,0,0,0-6.6,0A8.19,8.19,0,0,0,977.09,218.64Zm20.77-9.57.12,2a6.77,6.77,0,0,1,5.42-2.31c2.51,0,4.22,1,5.15,2.88a6.67,6.67,0,0,1,5.76-2.88,5.83,5.83,0,0,1,4.62,1.72,7.59,7.59,0,0,1,1.56,5.06v12.34h-4.22V215.62a3.75,3.75,0,0,0-.78-2.62,3.44,3.44,0,0,0-2.59-.83,3.54,3.54,0,0,0-2.35.77,4.09,4.09,0,0,0-1.27,2l0,12.87h-4.22V215.49q-.09-3.31-3.38-3.32a3.73,3.73,0,0,0-3.6,2.07v13.6h-4.21V209.07Zm31.44,18.77h-4.22V209.07h4.22Zm-4.48-23.65a2.23,2.23,0,0,1,.62-1.61,2.75,2.75,0,0,1,3.53,0,2.35,2.35,0,0,1,0,3.2,2.79,2.79,0,0,1-3.53,0A2.22,2.22,0,0,1,1024.82,204.19Zm13.57,20.28h10v3.37h-15.24v-2.76l9.53-12.61h-9.35v-3.4H1048v2.67Zm21.36,3.72a8.71,8.71,0,0,1-6.5-2.53,9.14,9.14,0,0,1-2.49-6.72v-.52a11.16,11.16,0,0,1,1.09-5,8.18,8.18,0,0,1,3-3.45,8.09,8.09,0,0,1,4.38-1.23,7.37,7.37,0,0,1,5.92,2.45c1.39,1.63,2.09,3.93,2.09,6.92v1.7H1055a5.66,5.66,0,0,0,1.55,3.68,4.67,4.67,0,0,0,3.42,1.35,5.71,5.71,0,0,0,4.72-2.34l2.28,2.17a7.63,7.63,0,0,1-3,2.61,9.45,9.45,0,0,1-4.23.93Zm-.5-16.09a3.54,3.54,0,0,0-2.8,1.22,6.31,6.31,0,0,0-1.37,3.38h8v-.31a5.1,5.1,0,0,0-1.13-3.2A3.5,3.5,0,0,0,1059.25,212.1Z"/></g></g><g id="f15e4b07-0629-46d8-883b-8cd18efa8047"><g id="f15e4b07-0629-46d8-883b-8cd18efa8047-child-0"><path d="M781.21,158.45V116.09h72.24v42.36Z"/></g></g><g id="_8b340bda-716d-445e-9e9b-22129b5523e5" data-name="8b340bda-716d-445e-9e9b-22129b5523e5"><g id="_8b340bda-716d-445e-9e9b-22129b5523e5-child-0" data-name="8b340bda-716d-445e-9e9b-22129b5523e5-child-0"><path d="M811.41,152.05a15.35,15.35,0,0,1,0-30.69,15.15,15.15,0,0,1,4.25.6l-1.48,5.16a10.34,10.34,0,0,0-2.77-.38,10,10,0,1,0,2.77,19.55l1.48,5.16A15.15,15.15,0,0,1,811.41,152.05Z"/></g><g id="_8b340bda-716d-445e-9e9b-22129b5523e5-child-1" data-name="8b340bda-716d-445e-9e9b-22129b5523e5-child-1"><path d="M834.31,146.68a10,10,0,0,1-9.59-7.29H832V134h-7.29a10,10,0,0,1,9.59-7.28,10.34,10.34,0,0,1,2.77.38l1.48-5.16a15.15,15.15,0,0,0-4.25-.6,15.35,15.35,0,0,0,0,30.69,15.15,15.15,0,0,0,4.25-.6l-1.48-5.16A10,10,0,0,1,834.31,146.68Z"/></g></g><g id="f098bf5f-225d-419a-9520-366f382a5ac2"><g id="f098bf5f-225d-419a-9520-366f382a5ac2-child-0"><path d="M1167.63,228.11a90.7,90.7,0,1,1,25.14-177.85L1184,80.76a58.94,58.94,0,1,0,0,113.3l8.79,30.5A90.62,90.62,0,0,1,1167.63,228.11Z"/></g><g id="f098bf5f-225d-419a-9520-366f382a5ac2-child-1"><path d="M1303,196.35a59,59,0,0,1-56.68-43.06h43.08V121.53h-43.08a58.9,58.9,0,0,1,73-40.77l8.79-30.5a90.7,90.7,0,1,0,0,174.3l-8.79-30.5A59.08,59.08,0,0,1,1303,196.35Z"/></g></g><g id="a4115468-d660-4bf2-9070-84cb301d3352"><g id="a4115468-d660-4bf2-9070-84cb301d3352-child-0"><path d="M660.29,48.76a100,100,0,0,1,16.32.75c.88.16,2.06.45,2.24,1.47a1.78,1.78,0,0,1-1.61,2.24,90.34,90.34,0,0,0-19.38-.77c-2.89.08-5.74.59-8.62.89a1.77,1.77,0,0,1-1.57-2.69c.54-.9,1.66-.95,2.57-1,3.33-.47,6.68-.63,10-.84ZM635,57a2,2,0,0,0-.91,3.32,1.86,1.86,0,0,0,1.89.23,72.07,72.07,0,0,1,8.34-1.82c.58-.14,1.28-.17,1.63-.72a2.06,2.06,0,0,0-.09-2.36,2.29,2.29,0,0,0-2.32-.56A86.26,86.26,0,0,0,635,57Zm12.76.84c-.52,1-.16,2.55,1.14,2.67,1.92.07,3.8-.52,5.74-.62a70.76,70.76,0,0,1,9.65-.51,132.23,132.23,0,0,1,18.54,1.33,75.34,75.34,0,0,1,15.7,4.12,7.66,7.66,0,0,0,2.88.89,1.88,1.88,0,0,0,1.5-2.18,2.41,2.41,0,0,0-1.62-1.49A96.48,96.48,0,0,0,686,57.69c-.89-.22-20.3-4.23-36.66-.71A2.75,2.75,0,0,0,647.72,57.85Zm28.49,6.89c-.09-1.24-1-1.54-2.79-1.82-6.62-1.07-19-.56-28.19,1.08a109.44,109.44,0,0,0-18.81,4.36c-1,.35-2.28.5-2.76,1.59a2,2,0,0,0,.65,2.41,2.27,2.27,0,0,0,1.92-.09c2.43-.8,4.84-1.64,7.3-2.34,4.08-1.05,19.38-3.65,20-3.32a107.83,107.83,0,0,1,20.64,0,1.75,1.75,0,0,0,2-1.91Zm6.55,2.34c6.56,1.52,13.18,3.31,19.13,6.56a89.45,89.45,0,0,1,8.15,4c1.23.52,2.17,1.64,3.55,1.76a2.24,2.24,0,0,0,1.52-.8,2,2,0,0,0-.28-2.15c-.7-.84-1.83-1-2.66-1.66-4.5-2.22-8.95-4.55-13.54-6.59A97,97,0,0,0,685.05,64c-.79-.1-1.61-.51-2.4-.19a1.75,1.75,0,0,0,.09,3.27Zm.26,5.07c-.84-.52-9.71-1.5-11.64-1.59a106.62,106.62,0,0,0-13.71.09,138.43,138.43,0,0,0-21.45,3.69c-.84.22-2,.36-2.26,1.33a1.64,1.64,0,0,0,.77,2.09,2.47,2.47,0,0,0,2,.14s12.73-3.51,22.17-3.74q6.76-.15,13.52,0c3,.23,5.93.7,8.9,1.1a2.76,2.76,0,0,0,2.22-.42,1.78,1.78,0,0,0-.51-2.69Zm7.87,4.6c1.31.87,2.92,1.12,4.35,1.75,2.41.85,4.75,1.89,7.12,2.8a75.4,75.4,0,0,1,13.46,7.64c1.3.59,2.2,1.73,3.39,2.5A8,8,0,0,0,721.72,93a1.83,1.83,0,0,0,1.7-2c-.16-1.47-1.71-2-2.66-2.92a85.68,85.68,0,0,0-15.24-9.18,128.34,128.34,0,0,0-12.55-5c-.52-.14-1.12-.41-1.64-.14a1.75,1.75,0,0,0-.44,3Zm-65.17.58c-2.54,1-5,2-7.48,3.21a2,2,0,0,0-1.17,2.15c.1.84.94,1.33,1.67,1.61a8.74,8.74,0,0,0,1.92-.82c1.42-.73,2.92-1.31,4.35-2,1.87-.91,3.93-1.36,5.69-2.45,1.17-1,.24-3.55-1.45-3a19.17,19.17,0,0,0-3.51,1.36Zm78.76,9.79c-.42-1.38-2.05-1.59-3.13-2.26A75.64,75.64,0,0,0,690.48,81a85.38,85.38,0,0,0-26-3.58,89.22,89.22,0,0,0-24.2,3.85A86.15,86.15,0,0,0,628,85.46a84.84,84.84,0,0,0-12.71,6.38,38.39,38.39,0,0,0-4.17,3,2.17,2.17,0,0,0-.84,2.55,1.47,1.47,0,0,0,1.73,1,31.47,31.47,0,0,0,3-1.91,95.38,95.38,0,0,1,13.53-7.32c18.5-8.89,40.25-9.39,54-6.51a82.65,82.65,0,0,1,19.08,6.37,2.84,2.84,0,0,0,1.73.49,1.79,1.79,0,0,0,1.11-2.3Zm-55-.47a1.9,1.9,0,0,0-.72,3.21c.82.56,1.84.21,2.73.09a84.88,84.88,0,0,1,9.41-1.33,90.22,90.22,0,0,1,9.16-.23c.86,0,1.9.23,2.53-.52a1.82,1.82,0,0,0-.71-2.82,7.25,7.25,0,0,0-2.59-.22,72.11,72.11,0,0,0-7.64.17C657.85,85.19,651.3,86,649.52,86.65Zm33.31,1.48a2,2,0,0,0,1.34,1.75c1.56.7,3.25,1,4.86,1.5a21.24,21.24,0,0,0,3.47,1,1.78,1.78,0,0,0,1.69-1.92,2.62,2.62,0,0,0-1.86-2,50.22,50.22,0,0,0-7.53-2.16,1.79,1.79,0,0,0-1.1.08,1.9,1.9,0,0,0-.89,1.66ZM629.93,92a68.41,68.41,0,0,0-6.84,3.58c-4.56,2.89-9.22,5.75-13,9.62a78.59,78.59,0,0,0-13.64,17.71,1.74,1.74,0,0,0-.12,1.41,1.78,1.78,0,0,0,2.41,1.12c.63-.17.87-.85,1.22-1.32a62.29,62.29,0,0,1,5.8-8.75c.75-.77,1.24-1.8,2.2-2.37,1.46-1.84,3.07-3.55,4.66-5.28a14.83,14.83,0,0,0,1.62-1.46,53.32,53.32,0,0,1,6.09-4.59A72.91,72.91,0,0,1,632,95a32.63,32.63,0,0,0,4-1.91,2,2,0,0,0,.38-1.9,1.81,1.81,0,0,0-2.2-1.17,34.27,34.27,0,0,0-4.19,1.9Zm67.74,2.22a114,114,0,0,1,10.51,5.49c1.76.89,3.28,2.17,4.94,3.21a9.9,9.9,0,0,0,1.57,1.23c.8.44,1.33,1.24,2.11,1.71a24.38,24.38,0,0,1,2.62,2.24,62.78,62.78,0,0,1,7.65,8.88,70.49,70.49,0,0,1,4.38,7.59,1.82,1.82,0,0,0,2.67.49,2.14,2.14,0,0,0,.49-2.12,20,20,0,0,0-1.33-2.5c-1.15-1.9-2.2-3.86-3.51-5.64a54.75,54.75,0,0,0-7.61-9c-1-1.13-2.27-1.95-3.32-3a54.61,54.61,0,0,0-4.47-3.15c-4.17-3.27-9-5.56-13.66-8-.9-.39-1.79-1.1-2.82-.84-1.53.38-1.6,2.74-.26,3.43Zm-54.92,1.45A75.14,75.14,0,0,0,628,102a61,61,0,0,0-6.45,4c-4.82,3.58-9.66,7.29-13.48,12a53.76,53.76,0,0,0-11.91,25.47,5.24,5.24,0,0,0,.05,2.43c.2.51.79.61,1.26.73a1.88,1.88,0,0,0,2.08-1.5c.42-1.64.49-3.36.85-5,1-4.53,3.18-8.64,5.4-12.65a44.46,44.46,0,0,1,3.42-5.24c.59-.84,1.38-1.5,2-2.33a66.41,66.41,0,0,1,8.12-7.69c2.77-2.2,5.78-4.09,8.74-6,2.17-1.26,4.4-2.38,6.64-3.53a99,99,0,0,1,11.12-4.16A80.57,80.57,0,0,1,662.26,95a2.28,2.28,0,0,0,2.19-1.1c.14-.68.26-1.54-.32-2a3,3,0,0,0-2.53-.53,98.38,98.38,0,0,0-18.84,4.32Zm24.44-1.5c.92.9,2.28.56,3.45.64a73.2,73.2,0,0,1,30.19,8c1.81,1.06,3.73,2,5.46,3.19,2.5,1.51,4.7,3.45,7,5.18,1,1.07,2.22,1.87,3.12,3,.81.71,1.42,1.62,2.22,2.36,1.15,1.06,1.8,2.65,3.21,3.44a1.59,1.59,0,0,0,2.22-1.47c.12-.91-.59-1.59-1.06-2.27a55.64,55.64,0,0,0-6.88-7.1A47,47,0,0,0,708,103a41.78,41.78,0,0,0-5.27-3.13c-8.54-4.79-18.25-7-27.88-8.28a40.46,40.46,0,0,0-7.21-.27,1.74,1.74,0,0,0-.47,2.87ZM713.55,94c0,1,1,1.43,1.7,1.95a79.65,79.65,0,0,1,11.4,10.23,13.45,13.45,0,0,0,2.34,2.54c1.27.66,2.84-1,2.21-2.24-.57-1.52-2-2.43-3-3.69s-2.16-2.1-3.16-3.23c-1.64-1.42-3.16-3-4.92-4.24a24.65,24.65,0,0,0-3.28-2.58c-.63-.42-1.35-1-2.15-.74a1.74,1.74,0,0,0-1.19,2Zm-66.74,7.74a56,56,0,0,0-14.49,7.4,34.93,34.93,0,0,0-4,3.41c-1.27,1.34-2.77,2.46-3.94,3.93a54.44,54.44,0,0,0-8.57,12.08,53.91,53.91,0,0,0-5.66,14.21c-.72,3.15-1,6.47-2.58,9.34A23.61,23.61,0,0,1,602,158c-.86.66-2.2,1-2.33,2.27a1.78,1.78,0,0,0,2.22,2,16,16,0,0,0,3.07-2,18.79,18.79,0,0,0,7.06-9.27c.82-2.41,1.15-4.93,1.74-7.39,1.54-7.47,5.41-14.16,9.69-20.37a39.93,39.93,0,0,1,3.58-4.33c1.87-1.6,3.49-3.45,5.31-5.11a41.85,41.85,0,0,1,5.08-3.58,56.64,56.64,0,0,1,5.57-3.06A65.6,65.6,0,0,1,660.54,102a64.48,64.48,0,0,1,10.85-.36,63.46,63.46,0,0,1,10.74,1.25,1.69,1.69,0,0,0,2-1.52,1.64,1.64,0,0,0-1.38-1.95A66,66,0,0,0,665.16,98a64.62,64.62,0,0,0-18.35,3.72Zm44.89,3.81a9.89,9.89,0,0,0,2.58,1.23,41.59,41.59,0,0,1,7.75,3.95c.93.43,1.66,1.31,2.71,1.41a1.57,1.57,0,0,0,1.78-1.57c.07-1.49-1.45-2.24-2.57-2.81a63.73,63.73,0,0,0-10-5.06,2.52,2.52,0,0,0-1.64-.22,1.81,1.81,0,0,0-.66,3.05ZM661,105.23a68.73,68.73,0,0,0-16.37,5.25,58.42,58.42,0,0,0-9.27,5.49,51.39,51.39,0,0,0-14.72,17.36,22,22,0,0,0-1.89,4.51c-.27,1.06.81,1.94,1.8,1.94a2.14,2.14,0,0,0,1.54-1.17c1-1.86,1.6-3.88,2.81-5.6a47.51,47.51,0,0,1,11.57-13.36c2-1.25,3.81-2.71,5.85-3.84a59.18,59.18,0,0,1,24.09-7.68c2.43-.19,4.87,0,7.32-.12a1.72,1.72,0,0,0,1.29-2.52c-.44-1-1.64-1-2.55-1a50.55,50.55,0,0,0-6.51.15,42.74,42.74,0,0,0-4.94.62Zm22.57,3.62c.27.82,1.16,1.15,1.87,1.45a48.25,48.25,0,0,1,10.65,4.35,54.77,54.77,0,0,1,17,15.6,36.87,36.87,0,0,1,5.13,9.63c1.2,3.64,2.43,7.33,2.6,11.17a67.53,67.53,0,0,1,.19,10.74,104,104,0,0,1-2.07,12.9,94,94,0,0,1-4.63,14.46A95.14,95.14,0,0,1,703.85,208a60.78,60.78,0,0,1-4.84,6.35,51.83,51.83,0,0,1-5.13,5.56,2.8,2.8,0,0,0-1.19,2.47,1.66,1.66,0,0,0,1.85,1.57,2.9,2.9,0,0,0,1.84-1.3,41.25,41.25,0,0,1,3.09-3.26A98.25,98.25,0,0,0,708,208.54c1.76-2.53,3.19-5.26,4.84-7.88,1.88-3.57,3.54-7.24,5.09-11a90.22,90.22,0,0,0,6.55-27.43,55,55,0,0,0,.12-10.19c-.15-1.56-.38-3.1-.64-4.63a46.94,46.94,0,0,0-7.14-18.13A57.71,57.71,0,0,0,690.16,108c-1.36-.51-2.69-1.07-4.08-1.45a3,3,0,0,0-1.61-.06,1.64,1.64,0,0,0-.91,2.29Zm-34.77,6.82a52.1,52.1,0,0,0-12.9,8.46,59,59,0,0,0-5.78,6.45,42.06,42.06,0,0,0-5.76,10,54.07,54.07,0,0,0-3.3,13.8c-.39,2.51-.7,5.14-2,7.37a32.83,32.83,0,0,1-5.2,6.75c-1.22,1-2.2,2.24-3.49,3.13-1.62,1.63-3.54,2.92-5.31,4.41-1.1.66-2,1.61-3.14,2.2-.73.51-1.82,1.07-1.73,2.1a1.77,1.77,0,0,0,1.33,1.77c1.5.24,2.57-1.12,3.75-1.81s2.45-1.81,3.72-2.62c.94-1,2.18-1.71,3.13-2.74a45.17,45.17,0,0,0,9-9.53,20,20,0,0,0,2.91-7.55c.53-2.42.62-4.9,1.1-7.31a59.59,59.59,0,0,1,1.82-7.1A42.75,42.75,0,0,1,639,126.26a48.78,48.78,0,0,1,12.64-8,63.18,63.18,0,0,1,14.91-3.62,49.69,49.69,0,0,1,13.55.88,42.27,42.27,0,0,1,9.16,2.83c1.22.54,2.5,1.43,3.88,1a1.74,1.74,0,0,0,.15-2.83,15.77,15.77,0,0,0-3.56-1.77,54.18,54.18,0,0,0-15.55-3.72c-2.27-.06-4.54-.13-6.81,0a58.12,58.12,0,0,0-18.65,4.53Zm63.72,3.91a50.26,50.26,0,0,1,11,16c.89,1.75,1.27,3.71,2.15,5.47.52.58,1.5,1.09,2.23.6a1.61,1.61,0,0,0,.93-1.94,52.19,52.19,0,0,0-4-9.51,58.86,58.86,0,0,0-4.68-7.31c-1.47-1.84-3-3.64-4.52-5.4a2.62,2.62,0,0,0-2.65-1c-1.4.38-1.4,2.29-.44,3.13ZM670,118.82a1.87,1.87,0,0,0-1.95-1.32,45.87,45.87,0,0,0-11.59,2.33,3,3,0,0,0-2.2,1.61c-.72,1.22.62,3.09,2,2.53,0,0,2.33-1.34,8.47-2.48,1.41-.26,2.85-.35,4.24-.61.94-.16,1.15-1.26,1-2.06Zm41,39.11a65.7,65.7,0,0,0-.82-9.29A33.83,33.83,0,0,0,702,131.58c-1.83-2.33-4.24-4.08-6.44-6a59,59,0,0,0-7-4.43,44.35,44.35,0,0,0-14-3.63,1.85,1.85,0,0,0-1.88,1.17,1.72,1.72,0,0,0,.45,1.94s7.94.52,14.26,3.81a38.19,38.19,0,0,1,5,3.15c6,4.39,11.33,10.33,13.46,17.62,1.85,6.1,1.9,12.55,1.57,18.86A115.84,115.84,0,0,1,706,175.78a1.62,1.62,0,0,0,.89,1.88,1.94,1.94,0,0,0,2.65-1.38c.34-1.54.47-3.13.7-4.68a107.72,107.72,0,0,0,.79-13.67Zm-10.81-32.19a29,29,0,0,1,2.67,2.41,26,26,0,0,1,2.62,2.73c.72,1.05,1.71,1.89,2.33,3a35.36,35.36,0,0,1,5.7,13.35,1.7,1.7,0,0,0,1,1.37,1.77,1.77,0,0,0,2.52-1.44,22.19,22.19,0,0,0-1.52-5.94A37.67,37.67,0,0,0,712.1,134a44.37,44.37,0,0,0-5-6.73A15.14,15.14,0,0,1,705,125c-1.29-.84-2.09-2.34-3.61-2.82a1.68,1.68,0,0,0-1.38.13C698.8,123.13,699.12,125,700.23,125.74Zm-87.37-3c-1.45,1-2.2,2.75-3.23,4.16-5.22,7.21-7.14,19.86-7.14,19.86-.72,3.24-3.41,5.53-6.2,7a2.38,2.38,0,0,0-1.36,1.45,1.92,1.92,0,0,0,2.44,2.22,25.29,25.29,0,0,0,2.59-1.78,14.46,14.46,0,0,0,5.43-6.28c1.11-2.5,1-5.29,1.78-7.9a50.79,50.79,0,0,1,6.44-14.42c.56-.95,1.52-1.73,1.69-2.87a1.63,1.63,0,0,0-2.44-1.49Zm50.77,2.2a29.31,29.31,0,0,0-8,3.71,30.39,30.39,0,0,0-11.56,15.7,17.49,17.49,0,0,0-.72,5.19c.06.77-.24,1.65.25,2.31a1.89,1.89,0,0,0,3-.35c.3-2,.11-4.14.75-6.12a28.26,28.26,0,0,1,3.6-7.1,26.42,26.42,0,0,1,10.21-8.62,23.68,23.68,0,0,1,8.38-2.23,26.69,26.69,0,0,1,10.37,1c1,.33,2.15.77,3.08.1a1.65,1.65,0,0,0,.33-2.24,2.59,2.59,0,0,0-1.38-.91,27.56,27.56,0,0,0-5.26-1.32A42.7,42.7,0,0,0,669,124a31.67,31.67,0,0,0-5.36.94Zm-14.88-.12a36.13,36.13,0,0,0-4.15,3.24,4.08,4.08,0,0,0-1.71,1.87,1.69,1.69,0,0,0,1.93,2.46,25.57,25.57,0,0,0,3.56-2.83c1.17-1,2.73-1.5,3.62-2.78.28-1.17-.89-2.64-2.13-2.33a3.36,3.36,0,0,0-1.14.39Zm83.64,8.71a46.47,46.47,0,0,1,2.13,7.32A69.81,69.81,0,0,1,736,156.16c-.18,3.83-.58,7.64-1,11.45a1.57,1.57,0,0,0,1.16,1.61,1.82,1.82,0,0,0,2.41-1.61c.1-1.19.19-2.38.33-3.57a5,5,0,0,1-.35-1.76c.12.3,0,1,.49,1A138.62,138.62,0,0,0,739.3,149c0-.6-.24-1.17-.24-1.77a53.77,53.77,0,0,0-1.31-8.13,71.53,71.53,0,0,0-2.72-8.48c-.32-.66-.49-1.5-1.21-1.87a1.76,1.76,0,0,0-2.65,1.17c-.21,1.33.8,2.4,1.24,3.57Zm-46-2.31a7.46,7.46,0,0,0,1.86,1.73c1,.61,1.68,1.56,2.66,2.17a29.58,29.58,0,0,1,5.84,6.64,31.91,31.91,0,0,1,4.16,13.15c.1,1.87,0,3.74,0,5.61a1.59,1.59,0,0,0,1.52,1.65,1.88,1.88,0,0,0,2-1.68,37.71,37.71,0,0,0-1.08-11.59,29.15,29.15,0,0,0-5.27-11.28c-2.39-3.27-5.6-5.79-8.71-8.32A2.51,2.51,0,0,0,687,129a1.66,1.66,0,0,0-.66,2.24Zm-25,2.17a21.14,21.14,0,0,0-7.78,7.76,19.7,19.7,0,0,0-3.3,10.44c0,4.91-.25,10.16-2.85,14.48a1.75,1.75,0,0,0,1.33,2.6c1,.12,1.67-.72,2.09-1.47A24.18,24.18,0,0,0,653.4,159a36.57,36.57,0,0,0,.2-6.1,18.12,18.12,0,0,1,4.28-11.74,15.85,15.85,0,0,1,6.71-5.29,19.76,19.76,0,0,1,19,2,21.48,21.48,0,0,1,9,10.59,27.79,27.79,0,0,1,1.68,8.22,78.89,78.89,0,0,1-.72,15.59,1.85,1.85,0,0,0,1.76,2.19,2.24,2.24,0,0,0,2-2.22,87.34,87.34,0,0,0,.64-9.16,44.47,44.47,0,0,0-.62-10,27.38,27.38,0,0,0-2.9-8.83,24,24,0,0,0-7.72-8.58,23.64,23.64,0,0,0-16.29-4.93,21.17,21.17,0,0,0-9.09,2.62Zm-24-.44c-.91-.07-1.47.77-2,1.4a54.89,54.89,0,0,0-4.47,8,46.23,46.23,0,0,0-3.23,13.06c-.4,5.35-1.41,10.79-4.12,15.51a51.89,51.89,0,0,1-6.28,8.23A86.47,86.47,0,0,1,605.74,189a2.07,2.07,0,0,0-.55,2.65,1.81,1.81,0,0,0,2.45.55c1.48-1.26,3.14-2.28,4.64-3.5,1.82-1.68,3.79-3.15,5.57-4.84.4-.7,1.21-1,1.64-1.68a66.06,66.06,0,0,0,5.89-7.35,30.73,30.73,0,0,0,3-5.66c3.52-10.05,2.65-22.47,8-29.91a29.79,29.79,0,0,0,2.37-3.8,1.73,1.73,0,0,0-1.46-2.48Zm3.37,4.46a42.07,42.07,0,0,0-3.22,5.94A45.76,45.76,0,0,0,634,158.45c0,1.8-.23,3.58-.28,5.39a28.19,28.19,0,0,1-3.26,11.69,43.14,43.14,0,0,1-3.86,5.6,51,51,0,0,1-4.44,5.73,65.45,65.45,0,0,1-11.36,10.26c-.66.6-1.82,1-1.75,2.1a1.82,1.82,0,0,0,2,1.94c.69-.12,1.17-.7,1.76-1a71,71,0,0,0,7.77-6.21,53.17,53.17,0,0,0,6.13-6.85c1.92-2.2,3.43-4.72,5.18-7.06a33.21,33.21,0,0,0,2.88-5,30.7,30.7,0,0,0,2.27-8.94c.54-2.78.38-5.63.61-8.42.61-5.63,1.69-11.4,4.75-16.28a13.29,13.29,0,0,0,1.73-3.1,3.41,3.41,0,0,0-.53-1.41,1.88,1.88,0,0,0-2.11-.26,4,4,0,0,0-.8.78Zm46.52,7.76a18,18,0,0,0-10.32-7,21.58,21.58,0,0,0-10.19.54c-.93.27-1.92.88-2,1.93a1.87,1.87,0,0,0,2.6,2,15.74,15.74,0,0,1,6.13-1.35,13.32,13.32,0,0,1,12.17,8.06,17.73,17.73,0,0,1,1.59,8.53c.4.32.73.81,1.29.86A1.86,1.86,0,0,0,690.7,157a20.06,20.06,0,0,0-3.47-11.79Zm-27.93.13a16,16,0,0,0-1.73,6.1c-.23,2.79.09,5.61-.35,8.39a32.19,32.19,0,0,1-6.32,16.59c-.94,1.21.33,3.29,1.85,2.68,1.54-.84,2.43-2.43,3.34-3.85a40.65,40.65,0,0,0,3.63-9.6,32.62,32.62,0,0,0,1.25-8.67,48,48,0,0,1,.34-7.59,9.42,9.42,0,0,1,1.67-3.16c.79-1.19-.59-3-1.9-2.68a3.49,3.49,0,0,0-1.8,1.79Zm67.91,1.45c.28,2.11.47,4.23.66,6.34,0,3.32,0,6.65,0,10a1.74,1.74,0,0,0,1.57,1.47,2.07,2.07,0,0,0,2-2c.05-5.75.29-11.57-.79-17.25a1.84,1.84,0,0,0-2.13-1,2,2,0,0,0-1.31,2.45Zm-48.11-.3a9.85,9.85,0,0,0-7.21-1.31,10.66,10.66,0,0,0-4.23,1.94,10.33,10.33,0,0,0-3.51,7.55,58,58,0,0,1-.52,8.83,72.5,72.5,0,0,1-2,8.46,41.58,41.58,0,0,1-2.39,6.51,41,41,0,0,1-3.54,6.13c-1.66,2.21-3.58,4.22-5.28,6.42a159.68,159.68,0,0,1-13.82,14.44,61.16,61.16,0,0,1-6.55,5.4c-.85.95-2.3,1.4-2.65,2.73a2.22,2.22,0,0,0,.4,1.78c.45.65,1.36.53,2,.42,1.29-1,2.5-2.11,3.83-3.09,3.26-2.47,6.26-5.26,9.28-8,3.34-3.3,6.41-6.83,9.53-10.33,1.56-2,3-4.07,4.72-6a23,23,0,0,0,4.31-6.14,41.3,41.3,0,0,0,2.78-6.9A49.07,49.07,0,0,0,667.48,161c.13-2.22,0-4.44.09-6.64a6.34,6.34,0,0,1,5.85-5.93,6,6,0,0,1,5.76,3.24c1.06,2,.89,4.35.91,6.54a69.45,69.45,0,0,1-.46,8.77,1.59,1.59,0,0,0,1.1,1.77,1.87,1.87,0,0,0,2.4-.89c1-3.1.45-13,.45-13C683.3,151.65,682,148.17,679.08,146.44Zm-63.31.89a26.93,26.93,0,0,1-2,7.62,22.73,22.73,0,0,1-4,5.39,45.48,45.48,0,0,1-7.77,6.75c-1.12,1-2.51,1.5-3.67,2.43a2,2,0,0,0,.2,2.86,1.93,1.93,0,0,0,2.32-.12c2-1.2,3.82-2.8,5.78-4.12,1.29-1.09,2.65-2.08,3.85-3.27a34,34,0,0,0,6.29-7.71,28.14,28.14,0,0,0,2.44-9.93,1.6,1.6,0,0,0-2.06-1.37A1.63,1.63,0,0,0,615.77,147.33Zm55.9,6.82a56.48,56.48,0,0,1-.28,7.36,52.26,52.26,0,0,1-1.06,6.57,63.19,63.19,0,0,1-5.59,15.81,2.23,2.23,0,0,0-.31,1.68,1.7,1.7,0,0,0,2.67,1.13,8.35,8.35,0,0,0,1.8-3.06,78.63,78.63,0,0,0,6.28-22.39c.09-2.29.07-4.6.05-6.89a1.78,1.78,0,0,0-2.16-1.7,2,2,0,0,0-1.38,1.47Zm42.46,3c-.16,2.29-.12,4.58-.24,6.87A77.73,77.73,0,0,1,712,176.11a1.75,1.75,0,0,0,2.74,1.52c1-.8,1.08-2.15,1.32-3.3a80.13,80.13,0,0,0,1.64-17.12,1.9,1.9,0,0,0-2.42-1.22c-.53.19-1.14.59-1.12,1.22Zm-71.47,1.92a1.75,1.75,0,0,0-2.27,1.39c-.14,4.87.37,9.86-.93,14.61-1.2,3.92-3.59,7.31-6.05,10.51a83.67,83.67,0,0,1-5.75,6.71c-1.46,1.24-2.72,2.71-4.2,3.95a3,3,0,0,0-1.17,2.16,1.51,1.51,0,0,0,2.16,1.41,13.86,13.86,0,0,0,2.17-1.66,57.1,57.1,0,0,0,6.4-6.33s6.55-8.18,9.08-13.3a20.45,20.45,0,0,0,1.69-8.13c.16-3.06.06-6.14.11-9.22a2,2,0,0,0-1.28-2.11Zm44.53,4.69A43.77,43.77,0,0,1,685.64,175c-2.29,9.09-6.69,17.52-12,25.19a71.63,71.63,0,0,1-5.85,6.89,32.9,32.9,0,0,1-4.56,4.58c-3.47,3.25-7.21,6.24-11,9.18-.87.65-1.92,1.28-2.27,2.36s.56,2.59,1.78,2.29,1.76-1.33,2.71-1.9c6.17-4.67,12.29-9.57,17.35-15.48a67.36,67.36,0,0,0,9.23-12.92c.82-1.69,1.87-3.27,2.66-5a81.27,81.27,0,0,0,4.08-9.91,59,59,0,0,0,2.92-16.47,1.75,1.75,0,0,0-2-1.73,1.91,1.91,0,0,0-1.58,1.75Zm13.74,3.86a74.68,74.68,0,0,1-10.7,34.62A88.27,88.27,0,0,1,682.37,213c-1.55,1.75-3.26,3.36-4.85,5.07-2.16,2-4.35,4-6.63,5.82a2.37,2.37,0,0,0-1.36,2.92c.36,1.14,2,1.24,2.79.53a39.09,39.09,0,0,0,3-2.54,29.75,29.75,0,0,0,3.06-2.55,57,57,0,0,0,5.27-5.39,69.87,69.87,0,0,0,5.71-6.78,76.85,76.85,0,0,0,7.12-11.71,74,74,0,0,0,5.94-16.49,78.74,78.74,0,0,0,2-14.27,1.73,1.73,0,0,0-2.45-1.5,2,2,0,0,0-1.06,1.54ZM726,172.72a36.32,36.32,0,0,1-1,5,95.14,95.14,0,0,1-10.09,24.83,47.74,47.74,0,0,1-5.79,8.22c-.51.77-1.22,1.8-.61,2.71a1.8,1.8,0,0,0,3,.21,79.65,79.65,0,0,0,7.77-11.58,82.24,82.24,0,0,0,4.73-10,91,91,0,0,0,5.71-20,1.89,1.89,0,0,0-2.53-2.08c-1,.49-1.12,1.71-1.23,2.69Zm-49,.8a23.66,23.66,0,0,1-1.11,4.72,59.21,59.21,0,0,1-6.2,13.94c-.54.89-1.31,1.8-1.12,2.92a1.77,1.77,0,0,0,2.72,1,8.39,8.39,0,0,0,1.94-2.92,69.27,69.27,0,0,0,3.91-7.8,65.68,65.68,0,0,0,2.32-6.85,33.69,33.69,0,0,0,1-4.3,1.89,1.89,0,0,0-2.42-1.89,1.33,1.33,0,0,0-1.1,1.19Zm55.8,1.09a65.87,65.87,0,0,1-5.08,15.29,13.87,13.87,0,0,0-1.43,3.2,1.6,1.6,0,0,0,1,1.86,1.93,1.93,0,0,0,2.47-1,95.06,95.06,0,0,0,4.11-9.63c1.06-3.15,1.88-6.37,2.63-9.6.35-1.26-.82-2.78-2.14-2.38-1,.23-1.37,1.35-1.52,2.26Zm-41.76,8.09a63.15,63.15,0,0,1-2.71,8.78,1.66,1.66,0,0,0,2,2.15c1.08-.25,1.46-1.4,1.83-2.31a78,78,0,0,0,2.51-8.45,1.79,1.79,0,0,0-2.44-2A2,2,0,0,0,691,182.7Zm-43.92.1c-2.17,2.28-4,4.78-6,7.21-1.33,1.71-2.89,3.23-4.26,4.91a82.71,82.71,0,0,1-14.6,11.63c-.94.87-2.64,1.12-2.9,2.59a1.82,1.82,0,0,0,2.6,2c2.61-1.82,5.42-3.34,7.88-5.35a90.08,90.08,0,0,0,12.2-11c1.27-1.61,2.58-3.18,3.86-4.81.64-1,1.6-1.8,2.27-2.81a14.56,14.56,0,0,1,1.9-2.17,2.57,2.57,0,0,0,.61-3,1.81,1.81,0,0,0-2.09-.51,4.38,4.38,0,0,0-1.47,1.34Zm58.76,3.59a58.72,58.72,0,0,1-3.51,9,102.06,102.06,0,0,1-7.84,13.29c-1.15,1.85-2.62,3.47-3.95,5.21a74.12,74.12,0,0,1-9.23,9.35,2.3,2.3,0,0,0-.54,2.45,1.89,1.89,0,0,0,1.71,1.05c1.33-.53,2.2-1.73,3.32-2.59,1-1.09,2.21-2,3.17-3.17A77.06,77.06,0,0,0,700.6,206a81.7,81.7,0,0,0,5.74-10.82,55.88,55.88,0,0,0,3.86-10.88c.37-1.38-1.39-2.5-2.6-1.88-1.43.76-1.31,2.57-1.71,3.93Zm-47.35,7.34c-2.06,2.36-4.08,4.72-6.19,7.05a104.57,104.57,0,0,1-7.76,7.27c-2.06,2-4.4,3.59-6.56,5.4-1.24.88-2.39,1.89-3.7,2.68a2.39,2.39,0,0,0-1.14,2.15,1.67,1.67,0,0,0,2.22,1.54,91.79,91.79,0,0,0,9.69-7.43,116.89,116.89,0,0,0,10.67-10c1.2-1.41,2.41-2.83,3.66-4.21A30,30,0,0,1,663,194.4c.37-.67,1.1-1.45.67-2.26a1.89,1.89,0,0,0-1.89-1,6.15,6.15,0,0,0-3.26,2.55Zm3.09,7.94c-2.41,2.36-4.48,5-7,7.22-1,.75-1.78,1.78-2.81,2.54a115.28,115.28,0,0,1-10.35,8.23,2.09,2.09,0,0,0-.23,3.41c1.29.56,2.46-.51,3.4-1.24a94.72,94.72,0,0,0,10.69-8.66c3.35-3,6.37-6.34,9.49-9.58.62-.68,1.66-1.26,1.52-2.32a1.86,1.86,0,0,0-2.49-1.51,9.53,9.53,0,0,0-2.18,1.93ZM681,203.23a79.37,79.37,0,0,1-11.33,12.34,75.65,75.65,0,0,1-7.38,6.36,2.22,2.22,0,0,0-.39,3.31,1.92,1.92,0,0,0,2.39-.26c2.67-2.16,5.28-4.41,7.84-6.68,2.15-1.91,4.12-4,6.16-6.07,1.3-1.52,2.66-3,3.83-4.58.38-.54,1-.91,1.25-1.52.41-.84,1.26-1.35,1.68-2.17a1.85,1.85,0,0,0-.12-2.33,1.76,1.76,0,0,0-1.5-.54c-1.17.14-1.82,1.24-2.43,2.12Z"/></g></g><g id="c40181c0-654c-46b0-a0e9-375689a4d6c2"><g id="_644d4ef3-a6f4-4468-a2c8-c81c6d4f9cea" data-name="644d4ef3-a6f4-4468-a2c8-c81c6d4f9cea"><path d="M6.36,345.67v16.49H.81V320H16.34q6.91,0,10.83,3.53a12,12,0,0,1,3.92,9.35q0,6.13-3.83,9.44t-11,3.31Zm0-4.54h10q4.45,0,6.83-2.1A7.64,7.64,0,0,0,25.54,333a7.89,7.89,0,0,0-2.37-6,9.34,9.34,0,0,0-6.51-2.35H6.36ZM50,362.74a13.65,13.65,0,0,1-10.35-4.18q-4-4.19-4-11.18v-1a18.73,18.73,0,0,1,1.78-8.32,13.84,13.84,0,0,1,5-5.73,12.5,12.5,0,0,1,6.93-2.07q6.1,0,9.49,4t3.38,11.52V348H41a11.07,11.07,0,0,0,2.7,7.48,8.51,8.51,0,0,0,6.58,2.85,9.32,9.32,0,0,0,4.8-1.16,12.2,12.2,0,0,0,3.45-3.06l3.27,2.54q-3.94,6-11.81,6.05Zm-.66-28.06A7.16,7.16,0,0,0,43.85,337a11.46,11.46,0,0,0-2.72,6.61H56.81v-.41a10.16,10.16,0,0,0-2.2-6.32A6.74,6.74,0,0,0,49.29,334.68Zm34.19,1a16.63,16.63,0,0,0-2.63-.2c-3.51,0-5.9,1.49-7.15,4.48v22.22H68.35v-31.3h5.21l.08,3.62a8.35,8.35,0,0,1,7.47-4.2,5.45,5.45,0,0,1,2.37.41Zm23.14,18.2a3.93,3.93,0,0,0-1.63-3.37,15.77,15.77,0,0,0-5.7-2.07,27,27,0,0,1-6.45-2.08,9.17,9.17,0,0,1-3.53-2.9,6.89,6.89,0,0,1-1.14-4,8.13,8.13,0,0,1,3.25-6.51,12.73,12.73,0,0,1,8.32-2.66,13.08,13.08,0,0,1,8.63,2.75,8.73,8.73,0,0,1,3.31,7H106.3a4.83,4.83,0,0,0-1.86-3.79,7,7,0,0,0-4.7-1.59A7.28,7.28,0,0,0,95.17,336a4,4,0,0,0-1.65,3.33,3.24,3.24,0,0,0,1.53,2.92,19.09,19.09,0,0,0,5.54,1.88,28.76,28.76,0,0,1,6.49,2.14,9.45,9.45,0,0,1,3.69,3,7.37,7.37,0,0,1,1.2,4.26,8,8,0,0,1-3.35,6.73,14.07,14.07,0,0,1-8.71,2.53,15.7,15.7,0,0,1-6.65-1.33,10.86,10.86,0,0,1-4.53-3.72,8.94,8.94,0,0,1-1.63-5.16h5.35a5.51,5.51,0,0,0,2.15,4.26,8.37,8.37,0,0,0,5.31,1.58,8.59,8.59,0,0,0,4.87-1.23,3.76,3.76,0,0,0,1.84-3.28Zm10.91-7.64a18.53,18.53,0,0,1,1.8-8.27,13.53,13.53,0,0,1,5-5.67,13.7,13.7,0,0,1,7.36-2,13.2,13.2,0,0,1,10.34,4.43q3.94,4.43,4,11.77v.38a18.59,18.59,0,0,1-1.75,8.2,13.31,13.31,0,0,1-5,5.65,13.85,13.85,0,0,1-7.47,2,13.17,13.17,0,0,1-10.32-4.43q-3.94-4.43-3.94-11.71Zm5.38.64a13.41,13.41,0,0,0,2.41,8.36,8.19,8.19,0,0,0,13-.05q2.4-3.19,2.4-8.95a13.35,13.35,0,0,0-2.45-8.34,7.77,7.77,0,0,0-6.49-3.2,7.68,7.68,0,0,0-6.39,3.15q-2.43,3.17-2.43,9Zm34.88-16,.17,3.94a11.42,11.42,0,0,1,9.38-4.52q9.91,0,10,11.2v20.68H172V341.45a7.23,7.23,0,0,0-1.54-5,6.2,6.2,0,0,0-4.73-1.62,7.68,7.68,0,0,0-4.57,1.39,9.43,9.43,0,0,0-3.07,3.65v22.3h-5.35v-31.3Zm47,31.3a11.17,11.17,0,0,1-.75-3.3,11.93,11.93,0,0,1-8.91,3.88,11,11,0,0,1-7.6-2.62,8.5,8.5,0,0,1-3-6.64,8.83,8.83,0,0,1,3.72-7.59q3.7-2.72,10.45-2.71h5.21v-2.45a6,6,0,0,0-1.68-4.47,6.75,6.75,0,0,0-4.95-1.67,7.76,7.76,0,0,0-4.8,1.45,4.28,4.28,0,0,0-1.94,3.5h-5.38a7.41,7.41,0,0,1,1.67-4.53,11.4,11.4,0,0,1,4.51-3.45,15.17,15.17,0,0,1,6.26-1.28c3.61,0,6.43.9,8.48,2.71a9.77,9.77,0,0,1,3.18,7.45v14.4a17.71,17.71,0,0,0,1.1,6.86v.46Zm-8.88-4.08a9.41,9.41,0,0,0,4.77-1.3,7.81,7.81,0,0,0,3.27-3.38V347h-4.2q-9.82,0-9.83,5.76a4.85,4.85,0,0,0,1.68,3.93A6.4,6.4,0,0,0,195.86,358.08Zm27.59,4.08H218.1V317.73h5.35Zm14.38,0h-5.35v-31.3h5.35ZM232,322.56a3.2,3.2,0,0,1,.8-2.2,3,3,0,0,1,2.36-.89,3.05,3.05,0,0,1,2.37.89,3.16,3.16,0,0,1,.81,2.2,3.31,3.31,0,0,1-5.54,2.17A3.09,3.09,0,0,1,232,322.56Zm21.6.72v7.58h5.84V335h-5.84v19.41a4.35,4.35,0,0,0,.78,2.82,3.28,3.28,0,0,0,2.66.94,13.12,13.12,0,0,0,2.55-.35v4.34a15.38,15.38,0,0,1-4.11.58,6.65,6.65,0,0,1-5.41-2.17,9.35,9.35,0,0,1-1.82-6.16V335H242.6v-4.14h5.69v-7.58Zm22.33,31,7.29-23.46H289L276.41,367q-2.93,7.81-9.29,7.81l-1-.09-2-.37V370l1.45.11A7.15,7.15,0,0,0,269.8,369a7.94,7.94,0,0,0,2.5-4l1.18-3.18-11.16-30.95h5.84Zm38.27,7.84h-5.35v-31.3h5.35Zm-5.78-39.6a3.2,3.2,0,0,1,.79-2.2,3,3,0,0,1,2.36-.89,3.05,3.05,0,0,1,2.37.89,3.16,3.16,0,0,1,.81,2.2,3.17,3.17,0,1,1-6.33,0ZM341,353.86a3.94,3.94,0,0,0-1.64-3.37,15.77,15.77,0,0,0-5.7-2.07,27,27,0,0,1-6.45-2.08,9.14,9.14,0,0,1-3.52-2.9,6.82,6.82,0,0,1-1.15-4,8.14,8.14,0,0,1,3.26-6.51,12.72,12.72,0,0,1,8.31-2.66,13.11,13.11,0,0,1,8.64,2.75,8.73,8.73,0,0,1,3.31,7h-5.38a4.81,4.81,0,0,0-1.87-3.79,7,7,0,0,0-4.7-1.59,7.3,7.3,0,0,0-4.57,1.27,4,4,0,0,0-1.65,3.33,3.23,3.23,0,0,0,1.54,2.92,19.09,19.09,0,0,0,5.54,1.88,28.94,28.94,0,0,1,6.49,2.14,9.45,9.45,0,0,1,3.69,3,7.37,7.37,0,0,1,1.2,4.26,8,8,0,0,1-3.36,6.73,14,14,0,0,1-8.7,2.53,15.74,15.74,0,0,1-6.66-1.33,10.83,10.83,0,0,1-4.52-3.72,9,9,0,0,1-1.64-5.16h5.35a5.55,5.55,0,0,0,2.16,4.26,8.37,8.37,0,0,0,5.31,1.58,8.64,8.64,0,0,0,4.87-1.23,3.76,3.76,0,0,0,1.84-3.28Zm34.25-30.58v7.58h5.84V335h-5.84v19.41a4.35,4.35,0,0,0,.78,2.82,3.28,3.28,0,0,0,2.66.94,13.14,13.14,0,0,0,2.54-.35v4.34a15.3,15.3,0,0,1-4.1.58,6.65,6.65,0,0,1-5.41-2.17,9.3,9.3,0,0,1-1.83-6.16V335h-5.69v-4.14h5.69v-7.58Zm17.44,11.37a11.38,11.38,0,0,1,9.25-4.37q9.93,0,10,11.2v20.68h-5.35V341.45a7.23,7.23,0,0,0-1.55-5,6.19,6.19,0,0,0-4.73-1.62,7.7,7.7,0,0,0-4.57,1.39,9.41,9.41,0,0,0-3.06,3.65v22.3h-5.35V317.73h5.35ZM433,362.74a13.65,13.65,0,0,1-10.35-4.18q-4-4.19-4-11.18v-1a18.73,18.73,0,0,1,1.78-8.32,13.84,13.84,0,0,1,5-5.73,12.5,12.5,0,0,1,6.93-2.07q6.1,0,9.49,4t3.38,11.52V348H424a11.07,11.07,0,0,0,2.7,7.48,8.51,8.51,0,0,0,6.58,2.85,9.32,9.32,0,0,0,4.8-1.16,12.2,12.2,0,0,0,3.45-3.06l3.27,2.54q-3.94,6-11.81,6.05Zm-.66-28.06a7.16,7.16,0,0,0-5.44,2.36,11.46,11.46,0,0,0-2.72,6.61h15.68v-.41a10.16,10.16,0,0,0-2.2-6.32A6.74,6.74,0,0,0,432.32,334.68Zm53.05,24.38q-3.14,3.68-9.17,3.68-5,0-7.62-2.91t-2.65-8.6V330.86h5.35v20.22q0,7.13,5.79,7.12,6.14,0,8.15-4.57V330.86h5.36v31.3h-5.1Zm18.4-28.2.17,3.94a11.41,11.41,0,0,1,9.37-4.52q9.91,0,10,11.2v20.68H518V341.45a7.23,7.23,0,0,0-1.55-5,6.2,6.2,0,0,0-4.73-1.62,7.7,7.7,0,0,0-4.57,1.39,9.43,9.43,0,0,0-3.07,3.65v22.3H498.7v-31.3Zm33.43,31.3h-5.35v-31.3h5.35Zm-5.78-39.6a3.2,3.2,0,0,1,.79-2.2,3,3,0,0,1,2.36-.89,3.05,3.05,0,0,1,2.37.89,3.16,3.16,0,0,1,.81,2.2,3.17,3.17,0,1,1-6.33,0Zm13,23.69q0-7.38,3.39-11.67A11.94,11.94,0,0,1,565.7,334l.23-3.15h4.92v43.33h-5.36V359.27a11.24,11.24,0,0,1-8.62,3.47,10.8,10.8,0,0,1-9-4.41q-3.37-4.41-3.37-11.7Zm5.36.61q0,5.38,2.27,8.44a7.2,7.2,0,0,0,6.11,3.07,8,8,0,0,0,7.29-4.22V338.82a8,8,0,0,0-7.23-4.14,7.3,7.3,0,0,0-6.16,3.08c-1.52,2.05-2.28,5.09-2.28,9.1Zm48.94,12.2q-3.13,3.68-9.17,3.68-5,0-7.62-2.91t-2.65-8.6V330.86h5.35v20.22q0,7.13,5.79,7.12,6.13,0,8.15-4.57V330.86H604v31.3h-5.1Zm26.32,3.68a13.65,13.65,0,0,1-10.35-4.18q-4-4.19-4-11.18v-1a18.73,18.73,0,0,1,1.78-8.32,13.93,13.93,0,0,1,5-5.73,12.5,12.5,0,0,1,6.93-2.07q6.11,0,9.48,4t3.39,11.52V348h-21.2a11.07,11.07,0,0,0,2.7,7.48,8.51,8.51,0,0,0,6.58,2.85,9.32,9.32,0,0,0,4.8-1.16,12,12,0,0,0,3.44-3.06l3.27,2.54q-3.93,6-11.8,6.05Zm-.66-28.06A7.16,7.16,0,0,0,619,337a11.46,11.46,0,0,0-2.72,6.61h15.68v-.41a10.16,10.16,0,0,0-2.2-6.32A6.74,6.74,0,0,0,624.42,334.68Zm35.52,27.48V335h-5v-4.14h5V328.2q0-5.24,3-8.16t8.46-2.92a25.44,25.44,0,0,1,8.19,1.77l-.9,4.51A18.41,18.41,0,0,0,671.8,322c-2.29,0-3.95.52-5,1.55a6.39,6.39,0,0,0-1.52,4.64v2.72h6.39V335h-6.39v27.16Zm22.3,0h-5.38v-31.3h5.38ZM696,330.86l.17,3.94a11.41,11.41,0,0,1,9.37-4.52q9.93,0,10,11.2v20.68h-5.35V341.45a7.23,7.23,0,0,0-1.55-5,6.19,6.19,0,0,0-4.73-1.62,7.7,7.7,0,0,0-4.57,1.39,9.41,9.41,0,0,0-3.06,3.65v22.3H691v-31.3Zm26.35,15.39q0-7.32,3.38-11.64a11.67,11.67,0,0,1,17.91-.28l.26-3.47h4.88v30.55c0,4-1.19,7.24-3.6,9.57s-5.62,3.5-9.67,3.5A16.16,16.16,0,0,1,728.9,373a11.46,11.46,0,0,1-4.95-4l2.78-3.21a10.47,10.47,0,0,0,8.42,4.25,8.21,8.21,0,0,0,6.08-2.19,8.43,8.43,0,0,0,2.18-6.19V359a11,11,0,0,1-8.76,3.7,10.7,10.7,0,0,1-8.89-4.43q-3.4-4.43-3.4-12.06Zm5.38.61q0,5.29,2.17,8.31a7,7,0,0,0,6.07,3,7.84,7.84,0,0,0,7.44-4.6V339.31a7.94,7.94,0,0,0-7.38-4.49,7.11,7.11,0,0,0-6.1,3q-2.21,3-2.2,9Zm42.11,15.88a13.67,13.67,0,0,1-10.36-4.18q-4-4.19-4-11.18v-1a18.73,18.73,0,0,1,1.78-8.32,13.89,13.89,0,0,1,5-5.73,12.5,12.5,0,0,1,6.93-2.07q6.11,0,9.49,4t3.38,11.52V348h-21.2a11.12,11.12,0,0,0,2.71,7.48,8.48,8.48,0,0,0,6.58,2.85,9.32,9.32,0,0,0,4.8-1.16,12.16,12.16,0,0,0,3.44-3.06l3.27,2.54q-3.95,6-11.8,6.05Zm-.67-28.06a7.16,7.16,0,0,0-5.44,2.36,11.53,11.53,0,0,0-2.72,6.61H776.7v-.41a10.16,10.16,0,0,0-2.2-6.32A6.72,6.72,0,0,0,769.18,334.68Zm34.19,1a16.54,16.54,0,0,0-2.63-.2q-5.26,0-7.14,4.48v22.22h-5.36v-31.3h5.21l.09,3.62a8.32,8.32,0,0,1,7.46-4.2,5.45,5.45,0,0,1,2.37.41Zm31.36,11.2q0,7.14-3.27,11.51a10.48,10.48,0,0,1-8.85,4.37,11.49,11.49,0,0,1-9-3.62v15.07h-5.35V330.86h4.89l.26,3.47a11,11,0,0,1,9.08-4.05,10.68,10.68,0,0,1,8.93,4.26q3.28,4.24,3.28,11.83Zm-5.35-.61c0-3.53-.75-6.31-2.26-8.36a7.27,7.27,0,0,0-6.19-3.07,7.87,7.87,0,0,0-7.29,4.31v15a7.89,7.89,0,0,0,7.35,4.28,7.24,7.24,0,0,0,6.12-3.05c1.51-2,2.27-5.06,2.27-9.07Zm27.27-10.59a16.54,16.54,0,0,0-2.63-.2q-5.26,0-7.14,4.48v22.22h-5.35v-31.3h5.2l.09,3.62a8.32,8.32,0,0,1,7.46-4.2,5.45,5.45,0,0,1,2.37.41Zm10.74,26.5H862v-31.3h5.36Zm-5.79-39.6a3.2,3.2,0,0,1,.8-2.2,3,3,0,0,1,2.35-.89,3.06,3.06,0,0,1,2.38.89,3.16,3.16,0,0,1,.81,2.2,3.06,3.06,0,0,1-.81,2.17,3.09,3.09,0,0,1-2.38.87,3,3,0,0,1-2.35-.87A3.09,3.09,0,0,1,861.6,322.56Zm19.41,8.3.17,3.94a11.42,11.42,0,0,1,9.38-4.52q9.91,0,10,11.2v20.68h-5.35V341.45a7.23,7.23,0,0,0-1.54-5,6.2,6.2,0,0,0-4.73-1.62,7.68,7.68,0,0,0-4.57,1.39,9.43,9.43,0,0,0-3.07,3.65v22.3H876v-31.3Zm34.88-7.58v7.58h5.85V335h-5.85v19.41a4.29,4.29,0,0,0,.79,2.82,3.28,3.28,0,0,0,2.66.94,13.14,13.14,0,0,0,2.54-.35v4.34a15.3,15.3,0,0,1-4.1.58,6.65,6.65,0,0,1-5.41-2.17,9.3,9.3,0,0,1-1.83-6.16V335h-5.69v-4.14h5.69v-7.58Zm25.34,22.94A18.4,18.4,0,0,1,943,338a13.53,13.53,0,0,1,5-5.67,13.7,13.7,0,0,1,7.36-2,13.2,13.2,0,0,1,10.34,4.43q3.94,4.43,4,11.77v.38a18.59,18.59,0,0,1-1.75,8.2,13.31,13.31,0,0,1-5,5.65,13.86,13.86,0,0,1-7.48,2,13.17,13.17,0,0,1-10.31-4.43q-3.95-4.43-3.95-11.71Zm5.38.64a13.41,13.41,0,0,0,2.42,8.36,8.18,8.18,0,0,0,12.94-.05q2.4-3.19,2.4-8.95a13.35,13.35,0,0,0-2.44-8.34,7.77,7.77,0,0,0-6.49-3.2,7.69,7.69,0,0,0-6.4,3.15q-2.43,3.17-2.43,9Zm32.46,15.3V335h-5v-4.14h5v-3.21c0-3.35.9-5.95,2.69-7.78s4.33-2.75,7.61-2.75a13.92,13.92,0,0,1,3.67.49l-.29,4.34a15.69,15.69,0,0,0-2.89-.26,5.25,5.25,0,0,0-4,1.52,6.11,6.11,0,0,0-1.42,4.35v3.3h6.68V335h-6.68v27.16Zm31.18-15.94a18.4,18.4,0,0,1,1.81-8.27,13.5,13.5,0,0,1,5-5.67,13.72,13.72,0,0,1,7.36-2,13.21,13.21,0,0,1,10.35,4.43q3.95,4.43,3.94,11.77v.38a18.59,18.59,0,0,1-1.75,8.2,13.29,13.29,0,0,1-5,5.65,13.86,13.86,0,0,1-7.48,2,13.17,13.17,0,0,1-10.31-4.43q-3.94-4.43-4-11.71Zm5.38.64a13.41,13.41,0,0,0,2.42,8.36,8.18,8.18,0,0,0,12.94-.05q2.4-3.19,2.4-8.95a13.35,13.35,0,0,0-2.44-8.34,7.79,7.79,0,0,0-6.5-3.2,7.68,7.68,0,0,0-6.39,3.15q-2.43,3.17-2.43,9Zm49.15,12.2q-3.13,3.68-9.17,3.68-5,0-7.62-2.91t-2.65-8.6V330.86h5.35v20.22q0,7.13,5.79,7.12,6.13,0,8.15-4.57V330.86H1070v31.3h-5.09Zm28.46-23.4a16.54,16.54,0,0,0-2.63-.2c-3.51,0-5.9,1.49-7.15,4.48v22.22h-5.35v-31.3h5.21l.09,3.62a8.32,8.32,0,0,1,7.46-4.2,5.45,5.45,0,0,1,2.37.41Zm37.81,18.2a3.94,3.94,0,0,0-1.64-3.37,15.77,15.77,0,0,0-5.7-2.07,27,27,0,0,1-6.45-2.08,9.25,9.25,0,0,1-3.53-2.9,6.89,6.89,0,0,1-1.14-4,8.14,8.14,0,0,1,3.26-6.51,12.72,12.72,0,0,1,8.31-2.66,13.11,13.11,0,0,1,8.64,2.75,8.73,8.73,0,0,1,3.31,7h-5.38a4.81,4.81,0,0,0-1.87-3.79,7,7,0,0,0-4.7-1.59,7.3,7.3,0,0,0-4.57,1.27,4,4,0,0,0-1.65,3.33,3.23,3.23,0,0,0,1.54,2.92,19.09,19.09,0,0,0,5.54,1.88,28.94,28.94,0,0,1,6.49,2.14,9.45,9.45,0,0,1,3.69,3,7.37,7.37,0,0,1,1.2,4.26,8,8,0,0,1-3.36,6.73,14,14,0,0,1-8.7,2.53,15.74,15.74,0,0,1-6.66-1.33,10.83,10.83,0,0,1-4.52-3.72,9,9,0,0,1-1.64-5.16h5.35a5.55,5.55,0,0,0,2.16,4.26,8.37,8.37,0,0,0,5.31,1.58,8.64,8.64,0,0,0,4.87-1.23,3.76,3.76,0,0,0,1.84-3.28Zm10.9-7.64a18.4,18.4,0,0,1,1.81-8.27,13.5,13.5,0,0,1,5-5.67,13.73,13.73,0,0,1,7.37-2,13.2,13.2,0,0,1,10.34,4.43q3.95,4.43,3.94,11.77v.38a18.59,18.59,0,0,1-1.75,8.2,13.29,13.29,0,0,1-5,5.65,13.86,13.86,0,0,1-7.48,2,13.17,13.17,0,0,1-10.31-4.43q-3.95-4.43-4-11.71Zm5.38.64a13.41,13.41,0,0,0,2.42,8.36,8.18,8.18,0,0,0,12.94-.05q2.4-3.19,2.4-8.95a13.35,13.35,0,0,0-2.44-8.34,7.78,7.78,0,0,0-6.49-3.2,7.69,7.69,0,0,0-6.4,3.15q-2.43,3.17-2.43,9Zm49.15,12.2q-3.13,3.68-9.17,3.68-5,0-7.62-2.91t-2.65-8.6V330.86h5.35v20.22q0,7.13,5.79,7.12,6.13,0,8.15-4.57V330.86h5.35v31.3h-5.09Zm19.15,3.1h-5.35V317.73h5.35Zm8.39,8.39-3-2.08a13.93,13.93,0,0,0,2.83-7.81v-4.83h5.24V360a13.22,13.22,0,0,1-1.43,5.84A13.61,13.61,0,0,1,1224,370.55Zm41.58-34.89a16.54,16.54,0,0,0-2.63-.2q-5.27,0-7.14,4.48v22.22h-5.35v-31.3h5.21l.09,3.62a8.32,8.32,0,0,1,7.45-4.2,5.53,5.53,0,0,1,2.38.41ZM1283,362.74a13.66,13.66,0,0,1-10.36-4.18q-4-4.19-4-11.18v-1a18.73,18.73,0,0,1,1.78-8.32,13.91,13.91,0,0,1,5-5.73,12.5,12.5,0,0,1,6.93-2.07q6.11,0,9.49,4t3.38,11.52V348H1274a11.12,11.12,0,0,0,2.71,7.48,8.48,8.48,0,0,0,6.58,2.85,9.32,9.32,0,0,0,4.8-1.16,12,12,0,0,0,3.44-3.06l3.27,2.54q-3.93,6-11.8,6.05Zm-.67-28.06a7.16,7.16,0,0,0-5.44,2.36,11.53,11.53,0,0,0-2.72,6.61h15.68v-.41a10.16,10.16,0,0,0-2.2-6.32A6.72,6.72,0,0,0,1282.29,334.68Zm29,20.22,7.76-24h5.46l-11.22,31.3h-4.08l-11.34-31.3h5.47Zm31,7.84a13.65,13.65,0,0,1-10.35-4.18q-4-4.19-4-11.18v-1a18.73,18.73,0,0,1,1.78-8.32,13.91,13.91,0,0,1,5-5.73,12.5,12.5,0,0,1,6.93-2.07q6.11,0,9.49,4t3.38,11.52V348h-21.2a11.07,11.07,0,0,0,2.7,7.48,8.51,8.51,0,0,0,6.58,2.85,9.36,9.36,0,0,0,4.81-1.16,12.16,12.16,0,0,0,3.44-3.06l3.27,2.54q-3.94,6-11.81,6.05Zm-.66-28.06a7.16,7.16,0,0,0-5.44,2.36,11.46,11.46,0,0,0-2.72,6.61h15.68v-.41a10.16,10.16,0,0,0-2.2-6.32A6.74,6.74,0,0,0,1341.62,334.68ZM1380,362.16a11.17,11.17,0,0,1-.75-3.3,11.93,11.93,0,0,1-8.91,3.88,11,11,0,0,1-7.59-2.62,8.47,8.47,0,0,1-3-6.64,8.83,8.83,0,0,1,3.72-7.59q3.72-2.72,10.46-2.71h5.21v-2.45a6,6,0,0,0-1.68-4.47,6.75,6.75,0,0,0-5-1.67,7.76,7.76,0,0,0-4.8,1.45,4.28,4.28,0,0,0-1.94,3.5h-5.38a7.39,7.39,0,0,1,1.66-4.53,11.44,11.44,0,0,1,4.52-3.45,15.17,15.17,0,0,1,6.26-1.28q5.42,0,8.47,2.71a9.74,9.74,0,0,1,3.19,7.45v14.4a17.71,17.71,0,0,0,1.1,6.86v.46Zm-8.88-4.08a9.42,9.42,0,0,0,4.78-1.3,7.92,7.92,0,0,0,3.27-3.38V347H1375q-9.83,0-9.83,5.76a4.87,4.87,0,0,0,1.67,3.93A6.44,6.44,0,0,0,1371.12,358.08Zm27.6,4.08h-5.35V317.73h5.35Zm14.38,0h-5.36v-31.3h5.36Zm-5.79-39.6a3.2,3.2,0,0,1,.8-2.2,3,3,0,0,1,2.35-.89,3.06,3.06,0,0,1,2.38.89,3.16,3.16,0,0,1,.81,2.2,3.06,3.06,0,0,1-.81,2.17,3.09,3.09,0,0,1-2.38.87,3,3,0,0,1-2.35-.87A3.09,3.09,0,0,1,1407.31,322.56Zm19.41,8.3.17,3.94a11.42,11.42,0,0,1,9.38-4.52q9.92,0,10,11.2v20.68h-5.35V341.45a7.23,7.23,0,0,0-1.54-5,6.2,6.2,0,0,0-4.73-1.62,7.68,7.68,0,0,0-4.57,1.39,9.43,9.43,0,0,0-3.07,3.65v22.3h-5.35v-31.3Zm26.35,15.39q0-7.32,3.39-11.64a11.66,11.66,0,0,1,17.9-.28l.26-3.47h4.89v30.55q0,6.07-3.6,9.57t-9.68,3.5a16.16,16.16,0,0,1-6.62-1.44,11.46,11.46,0,0,1-4.95-4l2.78-3.21a10.47,10.47,0,0,0,8.42,4.25,8.23,8.23,0,0,0,6.09-2.19,8.43,8.43,0,0,0,2.18-6.19V359a11,11,0,0,1-8.76,3.7,10.7,10.7,0,0,1-8.9-4.43q-3.4-4.43-3.4-12.06Zm5.38.61q0,5.29,2.17,8.31a7,7,0,0,0,6.08,3,7.83,7.83,0,0,0,7.43-4.6V339.31a7.94,7.94,0,0,0-7.38-4.49,7.11,7.11,0,0,0-6.1,3q-2.2,3-2.2,9ZM5.78,445.1H.43V413.8H5.78ZM0,405.5a3.2,3.2,0,0,1,.79-2.2,3,3,0,0,1,2.36-.9,3,3,0,0,1,2.37.9,3.16,3.16,0,0,1,.81,2.2,3.06,3.06,0,0,1-.81,2.17,3.11,3.11,0,0,1-2.37.86,3.08,3.08,0,0,1-2.36-.86A3.09,3.09,0,0,1,0,405.5Zm21.61.72v7.58h5.84v4.14H21.61v19.4a4.38,4.38,0,0,0,.78,2.83,3.28,3.28,0,0,0,2.66.94,13.14,13.14,0,0,0,2.54-.35v4.34a15.3,15.3,0,0,1-4.1.58,6.65,6.65,0,0,1-5.41-2.17,9.36,9.36,0,0,1-1.82-6.17v-19.4h-5.7V413.8h5.7v-7.58ZM51.92,436.8a3.93,3.93,0,0,0-1.63-3.37,15.4,15.4,0,0,0-5.7-2.07,27,27,0,0,1-6.45-2.09,9.16,9.16,0,0,1-3.53-2.89,6.93,6.93,0,0,1-1.14-4,8.1,8.1,0,0,1,3.25-6.51A12.73,12.73,0,0,1,45,413.22,13.08,13.08,0,0,1,53.67,416,8.73,8.73,0,0,1,57,423H51.6a4.83,4.83,0,0,0-1.86-3.79,7,7,0,0,0-4.7-1.59,7.28,7.28,0,0,0-4.57,1.27,4,4,0,0,0-1.65,3.33,3.25,3.25,0,0,0,1.53,2.92A19.09,19.09,0,0,0,45.89,427a28.27,28.27,0,0,1,6.49,2.14,9.44,9.44,0,0,1,3.69,3,7.38,7.38,0,0,1,1.2,4.27,8,8,0,0,1-3.35,6.72,14.07,14.07,0,0,1-8.71,2.54,15.7,15.7,0,0,1-6.65-1.34A10.84,10.84,0,0,1,34,440.63a9,9,0,0,1-1.63-5.17h5.35a5.53,5.53,0,0,0,2.15,4.27,8.37,8.37,0,0,0,5.31,1.58,8.59,8.59,0,0,0,4.87-1.23,3.76,3.76,0,0,0,1.84-3.28Zm25.31,8.88a13.65,13.65,0,0,1-10.35-4.18q-4-4.19-4-11.18v-1A18.71,18.71,0,0,1,64.66,421a13.93,13.93,0,0,1,5-5.73,12.5,12.5,0,0,1,6.93-2.07q6.11,0,9.48,4t3.39,11.51V431H68.24a11.07,11.07,0,0,0,2.7,7.48,8.51,8.51,0,0,0,6.58,2.85,9.32,9.32,0,0,0,4.8-1.16,12.06,12.06,0,0,0,3.44-3.07L89,439.63q-3.93,6-11.8,6.05Zm-.66-28.06A7.15,7.15,0,0,0,71.13,420a11.46,11.46,0,0,0-2.72,6.61H84.09v-.4a10.16,10.16,0,0,0-2.2-6.32,6.74,6.74,0,0,0-5.32-2.24Zm24.87,27.48H96.09V400.67h5.35Zm11.2,0V417.94h-5V413.8h5v-3.21q0-5,2.69-7.78c1.79-1.83,4.33-2.75,7.6-2.75a13.94,13.94,0,0,1,3.68.49l-.29,4.34a15.69,15.69,0,0,0-2.89-.26,5.22,5.22,0,0,0-4,1.52A6.11,6.11,0,0,0,118,410.5v3.3h6.68v4.14H118V445.1Zm38.41,0H145.7V413.8h5.35Zm-5.78-39.6a3.2,3.2,0,0,1,.79-2.2,3,3,0,0,1,2.36-.9,3,3,0,0,1,2.37.9,3.16,3.16,0,0,1,.81,2.2,3.06,3.06,0,0,1-.81,2.17,3.11,3.11,0,0,1-2.37.86,2.85,2.85,0,0,1-3.15-3Zm19.4,8.3.18,3.93a11.4,11.4,0,0,1,9.37-4.51q9.92,0,10,11.19V445.1h-5.35V424.39a7.23,7.23,0,0,0-1.55-5,6.2,6.2,0,0,0-4.73-1.62,7.7,7.7,0,0,0-4.57,1.39,9.47,9.47,0,0,0-3.07,3.64V445.1h-5.35V413.8Zm49.56-7.58v7.58h5.84v4.14h-5.84v19.4a4.38,4.38,0,0,0,.78,2.83,3.28,3.28,0,0,0,2.66.94,13.14,13.14,0,0,0,2.54-.35v4.34a15.3,15.3,0,0,1-4.1.58,6.65,6.65,0,0,1-5.41-2.17,9.31,9.31,0,0,1-1.83-6.17v-19.4h-5.69V413.8h5.69v-7.58Zm17.44,11.37a11.38,11.38,0,0,1,9.25-4.37q9.93,0,10,11.19V445.1h-5.35V424.39a7.23,7.23,0,0,0-1.55-5,6.18,6.18,0,0,0-4.72-1.62,7.7,7.7,0,0,0-4.57,1.39,9.45,9.45,0,0,0-3.06,3.64V445.1h-5.35V400.67h5.35Zm40.25,28.09a13.65,13.65,0,0,1-10.35-4.18q-4-4.19-4-11.18v-1a18.85,18.85,0,0,1,1.77-8.31,13.93,13.93,0,0,1,5-5.73,12.5,12.5,0,0,1,6.93-2.07q6.11,0,9.49,4t3.38,11.51V431h-21.2a11.07,11.07,0,0,0,2.7,7.48,8.51,8.51,0,0,0,6.58,2.85,9.32,9.32,0,0,0,4.8-1.16,12.23,12.23,0,0,0,3.45-3.07l3.26,2.55q-3.93,6-11.8,6.05Zm-.66-28.06a7.15,7.15,0,0,0-5.44,2.35,11.46,11.46,0,0,0-2.72,6.61h15.68v-.4a10.16,10.16,0,0,0-2.2-6.32,6.74,6.74,0,0,0-5.32-2.24Zm61.44,20.1,6-23.92h5.35L335,445.1h-4.34L323,421.38,315.6,445.1h-4.34l-9.08-31.3h5.32l6.16,23.43L321,413.8h4.31Zm36.13,7.38a11.1,11.1,0,0,1-.76-3.3,11.93,11.93,0,0,1-8.91,3.88,11,11,0,0,1-7.59-2.62,8.5,8.5,0,0,1-3-6.64,8.85,8.85,0,0,1,3.71-7.59q3.72-2.71,10.46-2.71H368v-2.46a6,6,0,0,0-1.68-4.47,6.75,6.75,0,0,0-4.95-1.66,7.76,7.76,0,0,0-4.8,1.45,4.26,4.26,0,0,0-1.94,3.5h-5.38a7.37,7.37,0,0,1,1.67-4.53,11.42,11.42,0,0,1,4.51-3.46,15.16,15.16,0,0,1,6.26-1.27c3.61,0,6.43.9,8.48,2.7a9.8,9.8,0,0,1,3.18,7.45v14.41a17.62,17.62,0,0,0,1.1,6.85v.47ZM360,441a9.41,9.41,0,0,0,4.77-1.3,8,8,0,0,0,3.27-3.39v-6.42h-4.2q-9.82,0-9.83,5.76a4.88,4.88,0,0,0,1.68,3.93A6.4,6.4,0,0,0,360,441Zm31.58-3.76,7.29-23.46h5.73L392,449.93q-2.93,7.81-9.29,7.81l-1-.09-2-.38v-4.33l1.45.11a7.15,7.15,0,0,0,4.24-1.1,7.91,7.91,0,0,0,2.5-4l1.18-3.18L377.88,413.8h5.84Zm60.17.46,6-23.92h5.35L454,445.1h-4.33L442,421.38,434.6,445.1h-4.34l-9.08-31.3h5.32l6.17,23.43L440,413.8h4.31Zm29.79,8a13.65,13.65,0,0,1-10.35-4.18q-4-4.19-4-11.18v-1a18.85,18.85,0,0,1,1.77-8.31,13.93,13.93,0,0,1,5-5.73,12.5,12.5,0,0,1,6.93-2.07q6.1,0,9.49,4t3.38,11.51V431H472.5a11.07,11.07,0,0,0,2.7,7.48,8.51,8.51,0,0,0,6.58,2.85,9.32,9.32,0,0,0,4.8-1.16,12.23,12.23,0,0,0,3.45-3.07l3.26,2.55q-3.93,6-11.8,6.05Zm-.66-28.06a7.15,7.15,0,0,0-5.44,2.35,11.46,11.46,0,0,0-2.72,6.61h15.68v-.4a10.16,10.16,0,0,0-2.2-6.32,6.74,6.74,0,0,0-5.32-2.24Zm39.54,27.48H515V400.67h5.35Zm7.14-15.94a18.4,18.4,0,0,1,1.81-8.27,13.53,13.53,0,0,1,5-5.67,13.7,13.7,0,0,1,7.36-2,13.2,13.2,0,0,1,10.34,4.43q3.95,4.43,4,11.77v.38a18.59,18.59,0,0,1-1.75,8.2,13.31,13.31,0,0,1-5,5.65,13.86,13.86,0,0,1-7.48,2,13.17,13.17,0,0,1-10.31-4.43q-3.94-4.42-4-11.72Zm5.38.64a13.36,13.36,0,0,0,2.42,8.35,8.17,8.17,0,0,0,12.94,0c1.6-2.13,2.4-5.12,2.4-8.95a13.38,13.38,0,0,0-2.44-8.35,8.14,8.14,0,0,0-12.89,0Q532.89,423.92,532.89,429.8Zm39.72,8,7.75-24h5.47l-11.22,31.3h-4.08l-11.34-31.3h5.47Zm31,7.84a13.69,13.69,0,0,1-10.36-4.18q-4-4.19-4-11.18v-1A18.71,18.71,0,0,1,591,421a13.93,13.93,0,0,1,5-5.73,12.47,12.47,0,0,1,6.92-2.07q6.11,0,9.49,4t3.39,11.51V431H594.59a11.12,11.12,0,0,0,2.71,7.48,8.51,8.51,0,0,0,6.58,2.85,9.32,9.32,0,0,0,4.8-1.16,12.06,12.06,0,0,0,3.44-3.07l3.27,2.55q-3.93,6-11.8,6.05Zm-.67-28.06a7.11,7.11,0,0,0-5.43,2.35,11.46,11.46,0,0,0-2.72,6.61h15.68v-.4a10.22,10.22,0,0,0-2.2-6.32,6.74,6.74,0,0,0-5.33-2.24Zm18.89,35.87-3-2.09a14,14,0,0,0,2.83-7.81v-4.83h5.24V443a13.1,13.1,0,0,1-1.44,5.84,13.61,13.61,0,0,1-3.6,4.69Zm32.28-8.39h-5.35V400.67h5.35Zm27.89,0a11.17,11.17,0,0,1-.75-3.3,11.93,11.93,0,0,1-8.91,3.88,11,11,0,0,1-7.6-2.62,8.5,8.5,0,0,1-3-6.64,8.83,8.83,0,0,1,3.72-7.59q3.71-2.71,10.45-2.71h5.21v-2.46a6,6,0,0,0-1.68-4.47,6.71,6.71,0,0,0-4.94-1.66,7.79,7.79,0,0,0-4.81,1.45,4.25,4.25,0,0,0-1.93,3.5H662.4a7.35,7.35,0,0,1,1.66-4.53,11.42,11.42,0,0,1,4.51-3.46,15.16,15.16,0,0,1,6.26-1.27c3.61,0,6.43.9,8.48,2.7a9.73,9.73,0,0,1,3.18,7.45v14.41a17.62,17.62,0,0,0,1.1,6.85v.47ZM673.1,441a9.35,9.35,0,0,0,4.77-1.3,7.83,7.83,0,0,0,3.27-3.39v-6.42H677q-9.84,0-9.84,5.76a4.88,4.88,0,0,0,1.68,3.93A6.44,6.44,0,0,0,673.1,441Zm41.1,1q-3.12,3.67-9.17,3.68-5,0-7.62-2.91t-2.65-8.61V413.8h5.36V434q0,7.11,5.78,7.11,6.14,0,8.16-4.57V413.8h5.35v31.3h-5.09Zm12.07-12.81q0-7.32,3.38-11.65a11.66,11.66,0,0,1,17.89-.27l.27-3.47h4.88v30.54q0,6.07-3.6,9.58t-9.66,3.5A16,16,0,0,1,732.8,456a11.29,11.29,0,0,1-4.94-4l2.77-3.21a10.5,10.5,0,0,0,8.42,4.25,8.18,8.18,0,0,0,6.09-2.2,8.43,8.43,0,0,0,2.18-6.19V442a11,11,0,0,1-8.76,3.71,10.7,10.7,0,0,1-8.9-4.43q-3.39-4.42-3.39-12.06Zm5.38.61q0,5.29,2.16,8.31a7.07,7.07,0,0,0,6.08,3,7.83,7.83,0,0,0,7.43-4.6V422.25a8,8,0,0,0-7.37-4.49,7.1,7.1,0,0,0-6.11,3q-2.19,3-2.19,9Zm34.47-12.21a11.37,11.37,0,0,1,9.25-4.37q9.92,0,10,11.19V445.1H780V424.39a7.23,7.23,0,0,0-1.55-5,6.2,6.2,0,0,0-4.73-1.62,7.7,7.7,0,0,0-4.57,1.39,9.45,9.45,0,0,0-3.06,3.64V445.1h-5.36V400.67h5.36Zm27.1,35.9-3-2.09a14,14,0,0,0,2.84-7.81v-4.83h5.23V443a13.22,13.22,0,0,1-1.43,5.84,13.61,13.61,0,0,1-3.6,4.69ZM839,445.1a11.17,11.17,0,0,1-.75-3.3,11.93,11.93,0,0,1-8.91,3.88,11,11,0,0,1-7.6-2.62,8.5,8.5,0,0,1-3-6.64,8.83,8.83,0,0,1,3.72-7.59q3.71-2.71,10.45-2.71h5.21v-2.46a6,6,0,0,0-1.68-4.47,6.74,6.74,0,0,0-4.94-1.66,7.79,7.79,0,0,0-4.81,1.45,4.25,4.25,0,0,0-1.93,3.5h-5.38a7.35,7.35,0,0,1,1.66-4.53,11.42,11.42,0,0,1,4.51-3.46,15.16,15.16,0,0,1,6.26-1.27c3.61,0,6.43.9,8.48,2.7a9.73,9.73,0,0,1,3.18,7.45v14.41a17.62,17.62,0,0,0,1.1,6.85v.47ZM830.13,441a9.35,9.35,0,0,0,4.77-1.3,7.83,7.83,0,0,0,3.27-3.39v-6.42H834q-9.84,0-9.84,5.76a4.88,4.88,0,0,0,1.68,3.93A6.44,6.44,0,0,0,830.13,441ZM857,413.8l.18,3.93a11.39,11.39,0,0,1,9.37-4.51q9.91,0,10,11.19V445.1h-5.35V424.39a7.23,7.23,0,0,0-1.55-5,6.2,6.2,0,0,0-4.73-1.62,7.68,7.68,0,0,0-4.57,1.39,9.47,9.47,0,0,0-3.07,3.64V445.1h-5.35V413.8Zm26.33,15.39q0-7.21,3.41-11.59a11.61,11.61,0,0,1,17.64-.62V400.67h5.35V445.1h-4.91l-.26-3.36a10.88,10.88,0,0,1-8.94,3.94,10.7,10.7,0,0,1-8.87-4.46q-3.42-4.46-3.42-11.63Zm5.35.61c0,3.55.73,6.32,2.19,8.33a7.12,7.12,0,0,0,6.08,3,7.8,7.8,0,0,0,7.43-4.57V422.19a7.87,7.87,0,0,0-7.37-4.43,7.14,7.14,0,0,0-6.14,3Q888.65,423.85,888.65,429.8Zm49.84,15.3h-5.36V400.67h5.36Zm14.37,0h-5.35V413.8h5.35Zm-5.78-39.6a3.2,3.2,0,0,1,.79-2.2,3,3,0,0,1,2.36-.9,3,3,0,0,1,2.37.9,3.16,3.16,0,0,1,.81,2.2,3.06,3.06,0,0,1-.81,2.17,3.11,3.11,0,0,1-2.37.86,2.85,2.85,0,0,1-3.15-3Zm24.67,32.34,7.75-24H985l-11.22,31.3h-4.08l-11.34-31.3h5.47Zm31,7.84a13.65,13.65,0,0,1-10.35-4.18q-4-4.19-4-11.18v-1a18.71,18.71,0,0,1,1.78-8.31,13.93,13.93,0,0,1,5-5.73,12.5,12.5,0,0,1,6.93-2.07q6.1,0,9.48,4t3.39,11.51V431H993.73a11.12,11.12,0,0,0,2.71,7.48,8.51,8.51,0,0,0,6.58,2.85,9.32,9.32,0,0,0,4.8-1.16,12.06,12.06,0,0,0,3.44-3.07l3.27,2.55q-3.93,6-11.8,6.05Zm-.66-28.06a7.15,7.15,0,0,0-5.44,2.35,11.46,11.46,0,0,0-2.72,6.61h15.68v-.4a10.16,10.16,0,0,0-2.2-6.32,6.74,6.74,0,0,0-5.32-2.24Zm46.71,28.06a13.65,13.65,0,0,1-10.35-4.18q-4-4.19-4-11.18v-1a18.71,18.71,0,0,1,1.78-8.31,13.93,13.93,0,0,1,5-5.73,12.5,12.5,0,0,1,6.93-2.07q6.11,0,9.48,4t3.39,11.51V431h-21.2a11.07,11.07,0,0,0,2.7,7.48,8.51,8.51,0,0,0,6.58,2.85,9.32,9.32,0,0,0,4.8-1.16,12.06,12.06,0,0,0,3.44-3.07l3.27,2.55q-3.93,6-11.8,6.05Zm-.66-28.06a7.15,7.15,0,0,0-5.44,2.35,11.46,11.46,0,0,0-2.72,6.61h15.68v-.4a10.16,10.16,0,0,0-2.2-6.32,6.74,6.74,0,0,0-5.32-2.24Zm38.38,27.48a11.17,11.17,0,0,1-.75-3.3,11.93,11.93,0,0,1-8.91,3.88,11,11,0,0,1-7.59-2.62,8.47,8.47,0,0,1-3-6.64,8.83,8.83,0,0,1,3.72-7.59q3.72-2.71,10.46-2.71h5.2v-2.46a6,6,0,0,0-1.68-4.47,6.71,6.71,0,0,0-4.94-1.66,7.76,7.76,0,0,0-4.8,1.45,4.26,4.26,0,0,0-1.94,3.5h-5.38a7.35,7.35,0,0,1,1.66-4.53,11.42,11.42,0,0,1,4.51-3.46,15.18,15.18,0,0,1,6.27-1.27q5.42,0,8.47,2.7a9.73,9.73,0,0,1,3.18,7.45v14.41a17.62,17.62,0,0,0,1.1,6.85v.47Zm-8.88-4.08a9.35,9.35,0,0,0,4.77-1.3,7.83,7.83,0,0,0,3.27-3.39v-6.42h-4.19q-9.84,0-9.84,5.76a4.88,4.88,0,0,0,1.68,3.93A6.44,6.44,0,0,0,1077.62,441Zm34.34.29a7.69,7.69,0,0,0,5-1.74,6.06,6.06,0,0,0,2.37-4.34h5.06a9.64,9.64,0,0,1-1.85,5.12,12.17,12.17,0,0,1-4.55,3.88,13.08,13.08,0,0,1-6,1.45,12.86,12.86,0,0,1-10.17-4.27q-3.78-4.28-3.78-11.67v-.9a18.81,18.81,0,0,1,1.68-8.13,12.8,12.8,0,0,1,4.82-5.52,13.7,13.7,0,0,1,7.42-2,12.57,12.57,0,0,1,8.75,3.15,11.29,11.29,0,0,1,3.71,8.19h-5.06a7.34,7.34,0,0,0-2.3-5,7.16,7.16,0,0,0-5.1-1.95,7.5,7.5,0,0,0-6.32,2.93q-2.25,2.94-2.25,8.49v1q0,5.4,2.23,8.33a7.53,7.53,0,0,0,6.37,2.92Zm23.8-23.72a11.39,11.39,0,0,1,9.26-4.37q9.92,0,10,11.19V445.1h-5.35V424.39a7.23,7.23,0,0,0-1.55-5,6.2,6.2,0,0,0-4.73-1.62,7.7,7.7,0,0,0-4.57,1.39,9.47,9.47,0,0,0-3.07,3.64V445.1h-5.35V400.67h5.35Zm40.64,11.6q0-7.21,3.42-11.59a11.61,11.61,0,0,1,17.64-.62V400.67h5.35V445.1h-4.91l-.26-3.36a10.91,10.91,0,0,1-8.94,3.94,10.7,10.7,0,0,1-8.87-4.46q-3.43-4.46-3.43-11.63Zm5.35.61c0,3.55.73,6.32,2.2,8.33a7.12,7.12,0,0,0,6.08,3,7.8,7.8,0,0,0,7.43-4.57V422.19a7.87,7.87,0,0,0-7.37-4.43,7.14,7.14,0,0,0-6.14,3Q1181.74,423.85,1181.75,429.8Zm48.69,15.3a11.17,11.17,0,0,1-.75-3.3,11.93,11.93,0,0,1-8.91,3.88,11,11,0,0,1-7.6-2.62,8.5,8.5,0,0,1-3-6.64,8.85,8.85,0,0,1,3.71-7.59q3.72-2.71,10.46-2.71h5.21v-2.46a6,6,0,0,0-1.68-4.47,6.75,6.75,0,0,0-5-1.66,7.76,7.76,0,0,0-4.8,1.45,4.26,4.26,0,0,0-1.94,3.5h-5.38a7.37,7.37,0,0,1,1.67-4.53,11.42,11.42,0,0,1,4.51-3.46,15.16,15.16,0,0,1,6.26-1.27c3.61,0,6.43.9,8.48,2.7a9.8,9.8,0,0,1,3.18,7.45v14.41a17.62,17.62,0,0,0,1.1,6.85v.47Zm-8.88-4.08a9.41,9.41,0,0,0,4.77-1.3,7.83,7.83,0,0,0,3.27-3.39v-6.42h-4.2q-9.83,0-9.83,5.76a4.88,4.88,0,0,0,1.68,3.93A6.4,6.4,0,0,0,1221.56,441Zm31.58-3.76,7.28-23.46h5.73l-12.58,36.13q-2.91,7.81-9.28,7.81l-1-.09-2-.38v-4.33l1.45.11A7.09,7.09,0,0,0,1247,452a7.84,7.84,0,0,0,2.5-4l1.19-3.18-11.16-30.95h5.84Z"/></g></g></g></g></svg>