<svg xmlns="http://www.w3.org/2000/svg" viewBox="0 0 150.49 149.7"><defs><style>.cls-1{fill-rule:evenodd;}</style></defs><title>Asset 119mdpi</title><g id="Layer_2" data-name="Layer 2"><g id="Layer_1-2" data-name="Layer 1"><path class="cls-1" d="M68.15,3.13A3.15,3.15,0,0,0,64.62,0a2.85,2.85,0,0,0-2.9,3.21C61.8,7,68.15,7.48,68.15,3.13Z"/><path class="cls-1" d="M88.87,3.23A3,3,0,0,0,85.25.12a2.92,2.92,0,0,0-2.8,3.22C82.54,7.38,88.87,7.43,88.87,3.23Z"/><path class="cls-1" d="M80.48,13.6a5,5,0,0,0-5.81-5.08,4.94,4.94,0,0,0-4.56,5.08C70.11,20.06,80.48,20.63,80.48,13.6Z"/><path class="cls-1" d="M53.64,18.05a4.62,4.62,0,1,0,0-9C48.92,9.9,48.76,17.25,53.64,18.05Z"/><path class="cls-1" d="M95.09,18.16a4.66,4.66,0,0,0,5.5-5.5,4.6,4.6,0,0,0-5.5-3.52C90.38,10,90.22,17.35,95.09,18.16Z"/><path class="cls-1" d="M33.84,16.29c3.67,0,3.64-6.07-.42-5.49C30.25,11.25,30.32,16.29,33.84,16.29Z"/><path class="cls-1" d="M116.75,16.39c3.67,0,3.64-6.06-.41-5.49C113.17,11.35,113.24,16.39,116.75,16.39Z"/><path class="cls-1" d="M71.36,23.75a6.28,6.28,0,0,0-6.84-6.22,6.2,6.2,0,0,0-6,6.32C58.51,32.13,71.47,32.38,71.36,23.75Z"/><path class="cls-1" d="M85.76,30.39c5.74-.09,8.14-7.32,4.46-11a6.85,6.85,0,0,0-5.08-1.76,6.49,6.49,0,0,0-3.93,1.66C77.23,23.05,79.94,30.47,85.76,30.39Z"/><path class="cls-1" d="M42.13,28.83a5.54,5.54,0,0,0,7-2.9c1.81-4.52-2.09-7.83-5.91-7.26a5.3,5.3,0,0,0-1.14,10.16Z"/><path class="cls-1" d="M111,26.86a5.36,5.36,0,1,0-9.12,0C103.67,29.77,108.84,30.2,111,26.86Z"/><path class="cls-1" d="M23.58,26.86c3.7-.1,3.64-6.23-.31-5.91S20,27,23.58,26.86Z"/><path class="cls-1" d="M127.22,27c3.7-.11,3.64-6.23-.31-5.91S123.65,27.06,127.22,27Z"/><path class="cls-1" d="M123.8,75A7.35,7.35,0,0,0,113,69.56c1.86-2.2,1.16-7.42-.41-9a7.11,7.11,0,0,0,5.08,1.35,6.77,6.77,0,0,0,5.9-7.78,6.91,6.91,0,0,0-7.77-5.91c-4.61.52-7.86,6.68-4.56,11.09-1.47-1.63-5.5-2-7.88-1.24,1.09-2.07.43-5.56-.41-7.05a7.2,7.2,0,1,0,2.49-13.47c-4.64.52-7.7,5.48-5.39,10.67-1.61-1.25-5.15-1.31-7-.62,1.1-2.18.27-5.87-.62-7.25a7.05,7.05,0,1,0,3-13.06c-5,.41-8.09,5.75-5.39,10.78-.11,0-.13-.09-.21-.11-1.66-1.46-6-1.34-7.78-.41a7.51,7.51,0,0,0-6.42-10.68c-5.23-.19-9.38,4.82-7,10.68-2.08-1.4-6.42-.78-8,.31a7,7,0,1,0-13.06-3.21c.24,4.93,5.53,8.36,10.78,5.59-1.24,1.57-1.68,5.12-.73,7.36-2.06-1.08-5.56-.42-7,.42,2.51-5.61-1.4-11.23-7.26-10.57a7.14,7.14,0,0,0-6.22,6.32c-.56,5.53,4.83,9.8,10.68,7.15-1.29,1.65-1.28,5.18-.63,7.15-2.49-1.23-6.44-.14-7.77,1a6.94,6.94,0,0,0-4.66-11A6.86,6.86,0,0,0,27,55.88c.53,4.79,6.68,7.81,11.09,4.56-2.1,1.76-2,7.21-.52,9.23a7.2,7.2,0,0,0-11,5.49c-.4,6.06,6.4,9.58,11.2,6.53a7.72,7.72,0,0,0,7.25,12c.87-.09,1.68-.54,2.39-.62a7.82,7.82,0,0,0,10.67,10.26c-2.49,5.78,1.43,10.8,6.43,11a7.46,7.46,0,0,0,7.87-8,11.34,11.34,0,0,0-.62-2.7,8.17,8.17,0,0,0,7,0c-2.17,5.56,1.39,10.64,6.63,10.78,5.72.16,9.22-5.48,7.05-11,6.84,3.51,13.68-3.9,10.57-10.37,7.09,3.43,14.11-5,9.64-11.4A7.19,7.19,0,0,0,123.8,75Zm-84,4.77c1.21-1.58,1.67-6.08,0-7.88,1.28,1,5.08,1.9,7.25.73-.5,1.66-.74,4.72.21,6.43C45,77.89,41.25,78.35,39.75,79.72Zm11.3,9.64a8.07,8.07,0,0,0,.1-6.43,8.12,8.12,0,0,0,6.22.11,9.62,9.62,0,0,0,.1,6.11A8.61,8.61,0,0,0,51.05,89.36Zm.51-21c.42-1.37.7-4.48-.1-6a8.21,8.21,0,0,0,6,0c-.44,1.42-.81,4.36.1,5.91C56.08,67.82,53.16,67.38,51.56,68.32ZM67.73,78.58a8.37,8.37,0,0,0-5.8.1c.44-1.42.8-4.36-.11-5.9a10.53,10.53,0,0,0,6,0A8.32,8.32,0,0,0,67.73,78.58ZM61.51,100c.66-1.36,1.13-4.8.21-6.63a8.16,8.16,0,0,0,6,0c-.5,1.66-.75,4.72.21,6.43C66.15,99,63.05,99,61.51,100Zm6.33-42.18A8.34,8.34,0,0,0,62,58c.44-1.43.81-4.36-.1-5.91,1.43.4,4.43.69,6-.11A8.69,8.69,0,0,0,67.84,57.85Zm4.45,31.3c.4-1.48.79-4.2,0-5.91a8.34,8.34,0,0,0,5.81-.1c-.45,1.43-.81,4.36.1,5.91C76.78,88.61,73.84,88.24,72.29,89.15Zm0-20.83a8.32,8.32,0,0,0,.1-5.8,8.4,8.4,0,0,0,5.81-.11c-.44,1.43-.81,4.36.1,5.91A10.5,10.5,0,0,0,72.29,68.32Zm6-20.63a8.58,8.58,0,0,0-6.11,0c1-1.71.72-5-.11-6.63a8.09,8.09,0,0,0,6.54,0A8.66,8.66,0,0,0,78.3,47.69Zm10.37,4.36a7.85,7.85,0,0,0,0,5.91c-1.42-.44-4.36-.81-5.91.1.44-1.42.81-4.36-.1-5.91C84.09,52.55,87.09,52.84,88.67,52.05Zm-.21,20.83a8.31,8.31,0,0,0,.11,5.8c-1.43-.44-4.37-.8-5.91.11.44-1.43.8-4.36-.11-5.91C84,73.28,86.76,73.67,88.46,72.88Zm-6,27.15c.56-1.47,1.12-4.66.1-6.42a9.65,9.65,0,0,0,6.12-.1C87.89,95.28,88,98.6,89,100,87.54,99.36,84.1,98.9,82.45,100ZM99.13,62.41c-.66,1.54-.79,4.62.11,6-1.47-.48-4.33-.92-6.12-.1a8.31,8.31,0,0,0-.1-5.8A9.63,9.63,0,0,0,99.13,62.41ZM92.92,89.26a8.23,8.23,0,0,0,0-6c1.59.55,4.65.72,6.32-.2-.83,1.6-.86,4.85.1,6.32C98,88.77,94.64,88.38,92.92,89.26ZM103.28,79.1c.52-1.54,1-4.79-.1-6.43,1.81.72,5.82.79,7.25-.62-1.09,1.65-1.38,6.11.31,7.67C109.33,78.77,105.45,77.81,103.28,79.1Z"/><path class="cls-1" d="M38.5,37.23a5.75,5.75,0,0,0-1.66-7.67,5.89,5.89,0,0,0-3.73-.73,5.46,5.46,0,0,0-3.93,8.4C31.22,40.4,36.48,40.35,38.5,37.23Z"/><path class="cls-1" d="M122.25,33.6a5.27,5.27,0,0,0-6.32-4.66,5.19,5.19,0,0,0-4.67,4.76C110.46,41.89,123.16,41.67,122.25,33.6Z"/><path class="cls-1" d="M15.49,35.05a2.45,2.45,0,0,0-3.11-3.21,2.22,2.22,0,0,0-1.65,1.55C9.63,37.23,14.71,37.79,15.49,35.05Z"/><path class="cls-1" d="M139.87,35.15a2.45,2.45,0,0,0-3.11-3.21,2.21,2.21,0,0,0-1.66,1.56C134,37.33,139.08,37.89,139.87,35.15Z"/><path class="cls-1" d="M28.66,44.48a5,5,0,0,0-5.39-5,5.1,5.1,0,0,0-5,5.18C18.41,51.41,28.77,51.15,28.66,44.48Z"/><path class="cls-1" d="M132.3,44.59a5,5,0,0,0-5.39-5,5.09,5.09,0,0,0-5,5.18C122.05,51.52,132.42,51.26,132.3,44.59Z"/><path class="cls-1" d="M15.08,58.68c3.86-2,2.17-8.57-2.7-7.77a4.2,4.2,0,0,0-3,2.07,4.42,4.42,0,0,0,0,3.94A4.42,4.42,0,0,0,15.08,58.68Z"/><path class="cls-1" d="M141.22,57a4.13,4.13,0,0,0-4.46-6,4,4,0,0,0-3,2.08,5.21,5.21,0,0,0,0,3.93C135,59.58,139.6,60.24,141.22,57Z"/><path class="cls-1" d="M28.55,68.63a6,6,0,0,0-5.8-9.22,5,5,0,0,0-2.59.83,6.22,6.22,0,0,0-1.76,8.39C20.53,71.89,26.18,72.26,28.55,68.63Z"/><path class="cls-1" d="M132.2,68.74a6,6,0,0,0-5.81-9.23,5.16,5.16,0,0,0-2.59.83,6.23,6.23,0,0,0-1.76,8.4C124.17,72,129.83,72.36,132.2,68.74Z"/><path class="cls-1" d="M2,62.93A2.23,2.23,0,0,0,.36,64.49c-1.1,3.83,4,4.39,4.77,1.65A2.45,2.45,0,0,0,2,62.93Z"/><path class="cls-1" d="M150.23,66.25A2.46,2.46,0,0,0,147.12,63a2.23,2.23,0,0,0-1.66,1.56C144.36,68.42,149.45,69,150.23,66.25Z"/><path class="cls-1" d="M17.67,75.58a4.45,4.45,0,0,0-5.08-4.36,4.34,4.34,0,0,0-4,4.56C8.66,81.37,17.79,81.84,17.67,75.58Z"/><path class="cls-1" d="M136.76,71.33a4.36,4.36,0,0,0-3.94,4.25,4.64,4.64,0,0,0,7.77,3.52A4.56,4.56,0,0,0,136.76,71.33Z"/><path class="cls-1" d="M23.79,91.85a5.83,5.83,0,0,0,5.39-5.5,5.68,5.68,0,0,0-6.53-6,5.61,5.61,0,0,0-5,4.36A5.86,5.86,0,0,0,23.79,91.85Z"/><path class="cls-1" d="M126.08,80.45A5.67,5.67,0,0,0,121.21,87c.84,6.81,10.9,6.44,11.61-.1A5.73,5.73,0,0,0,126.08,80.45Z"/><path class="cls-1" d="M33.32,90a6.29,6.29,0,0,0-6.12,6.43c0,8.45,13.18,8.61,13.07-.11A6.41,6.41,0,0,0,33.32,90Z"/><path class="cls-1" d="M116,90.09a6.23,6.23,0,0,0-5.91,6.42c0,8.74,13.19,8.26,13.06-.1A6.37,6.37,0,0,0,116,90.09Z"/><path class="cls-1" d="M12.8,92.78a3.27,3.27,0,0,0-2.28.83c-3.65,3.21,1.67,9.07,5.18,5.39A3.7,3.7,0,0,0,12.8,92.78Z"/><path class="cls-1" d="M136.86,92.88a3.53,3.53,0,0,0-3.21,3.73c.11,4.53,7.59,5,7.46-.2A3.66,3.66,0,0,0,136.86,92.88Z"/><path class="cls-1" d="M50,110a6.63,6.63,0,0,0-6.84-9.75,6.81,6.81,0,0,0-5,3.32,6.92,6.92,0,0,0,2.39,8.91A6.84,6.84,0,0,0,50,110Z"/><path class="cls-1" d="M105.35,100.35a6.81,6.81,0,0,0-5,3.31,6.73,6.73,0,0,0,11.82,6.43A6.63,6.63,0,0,0,105.35,100.35Z"/><path class="cls-1" d="M22.44,102.42a4.18,4.18,0,0,0-3.52,3.42c-1.19,7.22,10.06,7,8.91,0A4.43,4.43,0,0,0,22.44,102.42Z"/><path class="cls-1" d="M126.08,102.52a4.2,4.2,0,0,0-3.52,3.42c-1.19,7.22,10.06,7,8.91,0A4.42,4.42,0,0,0,126.08,102.52Z"/><path class="cls-1" d="M80.06,112.27a7.18,7.18,0,0,0-5.59-1.87A6.87,6.87,0,0,0,70.32,122a7.14,7.14,0,0,0,9.74,0A7.28,7.28,0,0,0,80.06,112.27Z"/><path class="cls-1" d="M53.74,110.92A6.35,6.35,0,0,0,50,121.7c4,3.89,10.61.78,10.78-4.35A6.12,6.12,0,0,0,53.74,110.92Z"/><path class="cls-1" d="M95.2,111a6.36,6.36,0,0,0-3.73,10.78c4,3.89,10.61.78,10.78-4.35A6.13,6.13,0,0,0,95.2,111Z"/><path class="cls-1" d="M38,115.06a4.73,4.73,0,0,0-5.08-2.48,4.31,4.31,0,0,0-3.32,2.28c-2.33,4.33,2.67,8.44,6.43,6.42A4.63,4.63,0,0,0,38,115.06Z"/><path class="cls-1" d="M115.82,112.68A4.35,4.35,0,0,0,112.5,115c-2.32,4.33,2.68,8.45,6.43,6.43a4.63,4.63,0,0,0,2-6.22A4.72,4.72,0,0,0,115.82,112.68Z"/><path class="cls-1" d="M63.9,122.21A5.68,5.68,0,0,0,60,125a5.5,5.5,0,0,0,2.38,7.36A5.72,5.72,0,0,0,69.7,130,5.39,5.39,0,0,0,63.9,122.21Z"/><path class="cls-1" d="M84.62,122.32a5.62,5.62,0,0,0-3.93,2.8,5.49,5.49,0,0,0,2.38,7.35,5.71,5.71,0,0,0,7.36-2.38A5.38,5.38,0,0,0,84.62,122.32Z"/><path class="cls-1" d="M43.17,123.35c-4.64.88-4.1,7.7,0,8.4a4.31,4.31,0,1,0,0-8.4Z"/><path class="cls-1" d="M105.35,123.46c-4.63.87-4.1,7.7,0,8.39a4.35,4.35,0,0,0,5.18-5.18A4.3,4.3,0,0,0,105.35,123.46Z"/><path class="cls-1" d="M74.36,134.14c-4.2.84-3.71,6.88,0,7.56A4,4,0,0,0,79,137,3.88,3.88,0,0,0,74.36,134.14Z"/><path class="cls-1" d="M53.64,134.76a3.14,3.14,0,0,0-2.39,3.93c.57,2.77,5.71,3.5,6.43,0A3.24,3.24,0,0,0,53.64,134.76Z"/><path class="cls-1" d="M95.2,134.86a3.26,3.26,0,0,0-1.66,5.39c1.56,1.62,5.13,1.05,5.59-1.56A3.2,3.2,0,0,0,95.2,134.86Z"/><path class="cls-1" d="M136.45,114.1a2.21,2.21,0,0,0-1.65,1.56c-1.1,3.83,4,4.39,4.76,1.66A2.46,2.46,0,0,0,136.45,114.1Z"/><path class="cls-1" d="M125.93,125.24a2.21,2.21,0,0,0-1.65,1.56c-1.1,3.83,4,4.39,4.76,1.66A2.46,2.46,0,0,0,125.93,125.24Z"/><path class="cls-1" d="M115.94,134.18a2.22,2.22,0,0,0-1.66,1.55c-1.1,3.84,4,4.4,4.76,1.66A2.45,2.45,0,0,0,115.94,134.18Z"/><path class="cls-1" d="M108.71,3.92A2.45,2.45,0,0,0,105.6.71a2.22,2.22,0,0,0-1.66,1.55C102.84,6.1,107.92,6.66,108.71,3.92Z"/><path class="cls-1" d="M147.24,83.36a2.23,2.23,0,0,0-1.65,1.56c-.05.17-.08.33-.11.48a2.56,2.56,0,0,0-.12.75,2.44,2.44,0,0,0,4,1.76.13.13,0,0,0,0-.06,2.23,2.23,0,0,0,.94-1.27A2.46,2.46,0,0,0,147.24,83.36Z"/><path class="cls-1" d="M85.35,144.79a2.22,2.22,0,0,0-1.66,1.55c-1.1,3.83,4,4.4,4.77,1.66A2.45,2.45,0,0,0,85.35,144.79Z"/><path class="cls-1" d="M64.87,144.39a2.2,2.2,0,0,0-1.65,1.55c-1.1,3.83,4,4.4,4.76,1.66A2.45,2.45,0,0,0,64.87,144.39Z"/><path class="cls-1" d="M46.64,3.92A2.45,2.45,0,0,0,43.54.71a2.2,2.2,0,0,0-1.66,1.55C40.78,6.1,45.85,6.66,46.64,3.92Z"/><path class="cls-1" d="M1.81,83.45A2.2,2.2,0,0,0,.16,85c-.8,2.75,1.61,3.82,3.31,3.18a2.13,2.13,0,0,0,1.45-1.52A2.46,2.46,0,0,0,1.81,83.45Z"/><path class="cls-1" d="M13.21,115.14a2.23,2.23,0,0,0-1.66,1.56c-1.1,3.83,4,4.4,4.77,1.66A2.46,2.46,0,0,0,13.21,115.14Z"/><path class="cls-1" d="M24.55,126a2.2,2.2,0,0,0-1.66,1.55c-1.09,3.83,4,4.4,4.77,1.66A2.45,2.45,0,0,0,24.55,126Z"/><path class="cls-1" d="M35.81,135.45A2.22,2.22,0,0,0,34.16,137c-1.1,3.83,4,4.4,4.76,1.66A2.45,2.45,0,0,0,35.81,135.45Z"/></g></g></svg>