<?xml version="1.0" encoding="utf-8"?>
<!-- Generator: Adobe Illustrator 24.0.0, SVG Export Plug-In . SVG Version: 6.00 Build 0)  -->
<svg version="1.1" id="Layer_1" xmlns="http://www.w3.org/2000/svg" xmlns:xlink="http://www.w3.org/1999/xlink" x="0px" y="0px"
	 viewBox="0 0 189.2 146.4" style="enable-background:new 0 0 189.2 146.4;" xml:space="preserve">
<style type="text/css">
	.st0{fill:#231F20;}
</style>
<title>b8dfe288-c6fb-46a8-9fcf-673ed16db4be</title>
<g id="Layer_2_1_">
	<g id="Layer_1-2">
		<g id="b8dfe288-c6fb-46a8-9fcf-673ed16db4be">
			<g id="b8dfe288-c6fb-46a8-9fcf-673ed16db4be-child-0">
				<path class="st0" d="M46.8,69c4-20.2,7.9-39.9,11.8-59.5c0.2-0.8,0.3-1.7,0.6-2.5c1.6-4,6-5,8.9-1.9c1.7,1.9,3,4,4,6.3
					C77.3,23.7,82.4,36,87.7,48.3c1.6,3.6,3.4,7.1,5.4,11.3c1.9-3,3.3-5.2,4.7-7.5c9-15.4,18-30.8,27-46.1c0.4-0.8,0.9-1.5,1.4-2.3
					c1.5-2.4,3.3-4.2,6.3-3.6s4,3.2,4.3,5.9c0.4,3.2,0.7,6.4,0.6,9.6c-0.1,15.2-0.3,30.4-0.4,45.6c0,2.2,0,4.4-0.1,6.9
					c0.8-0.4,1.4-0.6,1.9-0.9c13.3-8.5,26.7-16.9,40-25.4c1-0.6,2-1.2,3-1.8c1.9-0.9,4.3-1.3,5.6,0.5c1.2,1.5,1.8,3.5,1.7,5.4
					c-0.4,2.6-1.7,5.1-2.8,7.6c-9.9,21.5-19.3,43.1-26.1,65.8c-1.7,5.6-3.4,11.3-5.4,16.9c-2.7,7.4-6.8,10.4-14.7,10.3
					c-20.6-0.3-41.3-0.2-61.9-1.2c-11.6-0.6-23.2-2.9-34.8-4.9c-4.3-0.7-7.2-3.2-9.7-7.6C23.4,114.6,18.4,94.2,10.6,75
					C7,66.1,4.2,56.8,1,47.6c-0.4-1.2-0.7-2.4-0.9-3.6c-0.7-4.7,3.4-8.2,7.6-6.2c4.3,2,8.3,4.5,12,7.4c8.3,6.9,16.3,14.3,24.5,21.5
					c0.7,0.7,1.4,1.3,2.4,2.2L46.8,69z"/>
			</g>
		</g>
	</g>
</g>
</svg>
