<svg xmlns="http://www.w3.org/2000/svg" viewBox="0 0 1029.66 214.11"><defs><style>.cls-1,.cls-2,.cls-4{fill:none;}.cls-1,.cls-2{stroke:#1d1d1b;}.cls-1{stroke-miterlimit:10;}.cls-2{stroke-linecap:round;stroke-miterlimit:10;stroke-width:2.75px;}.cls-3{fill:#1d1d1b;}</style></defs><title>Asset 7</title><g id="Layer_2" data-name="Layer 2"><g id="Layer_1-2" data-name="Layer 1"><g id="_282a00a2-b540-4097-80d9-33a7bd3454ea" data-name="282a00a2-b540-4097-80d9-33a7bd3454ea"><g id="_282a00a2-b540-4097-80d9-33a7bd3454ea-child-0" data-name="282a00a2-b540-4097-80d9-33a7bd3454ea-child-0"><path class="cls-1" d="M597.82,18.45c0-4,4.22-8,8.23-11.67L600,.72c-3.7,4-7.66,8.19-11.72,8.19-4.46,0-6.68-4.09-8.91-8.19H561.51c-2.23,4.1-4.46,8.19-8.91,8.19s-6.68-4.09-8.91-8.19H525.88c-2.23,4.1-4.45,8.19-8.91,8.19s-6.68-4.09-8.9-8.19H490.26c-2.23,4.1-4.46,8.19-8.91,8.19s-6.68-4.09-8.91-8.19H454.63c-2.22,4.1-4.45,8.19-8.9,8.19s-6.68-4.09-8.9-8.19H419c-2.22,4.1-4.45,8.19-8.9,8.19S403.43,4.82,401.2.72H383.39c-2.22,4.1-4.45,8.19-8.9,8.19s-6.68-4.09-8.91-8.19H347.77c-2.23,4.1-4.45,8.19-8.9,8.19S332.19,4.82,330,.72H312.15c-2.23,4.1-4.45,8.19-8.91,8.19s-6.68-4.09-8.9-8.19H276.52c-2.22,4.1-4.45,8.19-8.9,8.19S261,4.82,258.72.72h-17.8c-2.23,4.1-4.46,8.19-8.91,8.19S225.33,4.82,223.1.72H205.29c-2.22,4.1-4.45,8.19-8.9,8.19s-6.68-4.09-8.91-8.19h-17.8c-2.23,4.1-4.46,8.19-8.91,8.19s-6.68-4.09-8.9-8.19H134.06c-2.23,4.1-4.45,8.19-8.9,8.19s-6.68-4.09-8.91-8.19H98.44c-2.23,4.1-4.45,8.19-8.9,8.19S82.86,4.82,80.64.72H62.83c-2.23,4.1-4.45,8.19-8.9,8.19S47.25,4.82,45,.72H27.21c-2.21,4.1-4.45,8.19-8.9,8.19-4.06,0-8-4.2-11.72-8.19H.5V6.79c4,3.69,8.23,7.63,8.23,11.67,0,4.44-4.12,6.65-8.23,8.87V45.08C4.61,47.29,8.73,49.51,8.73,54S4.61,60.6.5,62.82V80.55C4.61,82.77,8.73,85,8.73,89.42v0c0,4.44-4.12,6.65-8.23,8.87v17.74c4.11,2.21,8.23,4.43,8.23,8.86S4.61,131.58.5,133.8v17.73c4.11,2.22,8.23,4.44,8.23,8.87S4.61,167.05.5,169.27V187c4.11,2.22,8.23,4.44,8.23,8.87,0,4-4.23,8-8.23,11.67v6.07H6.6c3.7-4,7.66-8.2,11.72-8.2,4.45,0,6.68,4.1,8.9,8.2H45c2.23-4.1,4.45-8.2,8.91-8.2s6.68,4.1,8.9,8.2H80.67c2.22-4.1,4.45-8.2,8.9-8.2s6.68,4.1,8.91,8.2h17.81c2.23-4.1,4.45-8.2,8.91-8.2s6.67,4.1,8.9,8.2h17.81c2.23-4.1,4.45-8.2,8.91-8.2s6.68,4.1,8.9,8.2h17.81c2.23-4.1,4.45-8.2,8.91-8.2s6.68,4.1,8.9,8.2h17.81c2.23-4.1,4.46-8.2,8.91-8.2s6.68,4.1,8.9,8.2h17.81c2.23-4.1,4.46-8.2,8.91-8.2s6.68,4.1,8.91,8.2H294.4c2.22-4.1,4.45-8.2,8.9-8.2s6.68,4.1,8.91,8.2H330c2.22-4.1,4.45-8.2,8.9-8.2s6.68,4.1,8.9,8.2h17.81c2.23-4.1,4.46-8.2,8.91-8.2s6.68,4.1,8.9,8.2h17.81c2.23-4.1,4.46-8.2,8.91-8.2s6.67,4.1,8.9,8.2h17.81c2.23-4.1,4.45-8.2,8.9-8.2s6.68,4.1,8.91,8.2h17.81c2.23-4.1,4.45-8.2,8.91-8.2s6.68,4.1,8.9,8.2h17.8c2.22-4.1,4.45-8.2,8.9-8.2s6.68,4.1,8.91,8.2h17.8c2.22-4.1,4.45-8.2,8.9-8.2s6.68,4.1,8.9,8.2h17.81c2.23-4.1,4.45-8.2,8.91-8.2,4.06,0,8,4.21,11.72,8.2H606V208.8c-3-2.54-6.21-5.72-7.78-10.27s3.1-7.45,7.78-10.6V169.25c-4.12-2.22-8.23-4.43-8.23-8.87s4.11-6.65,8.23-8.87V133.76c-4.12-2.22-8.23-4.43-8.23-8.87s4.11-6.65,8.23-8.87V98.3c-4.12-2.22-8.23-4.43-8.23-8.87v0c0-4.43,4.11-6.65,8.23-8.87V62.79c-4.12-2.21-8.23-4.43-8.23-8.86s4.11-6.66,8.23-8.87V27.32C601.93,25.11,597.82,22.89,597.82,18.45Z"/></g></g><g id="_8c8f367b-b89d-43c8-b49f-a163a1305f67" data-name="8c8f367b-b89d-43c8-b49f-a163a1305f67"><g id="_8c8f367b-b89d-43c8-b49f-a163a1305f67-child-0" data-name="8c8f367b-b89d-43c8-b49f-a163a1305f67-child-0"><path class="cls-2" d="M19.73,194.92V19.24H586.18V194.92Z"/></g></g><g id="_15dc2a09-7b00-454a-8a10-3d4ebebf55c4" data-name="15dc2a09-7b00-454a-8a10-3d4ebebf55c4"><g id="_15dc2a09-7b00-454a-8a10-3d4ebebf55c4-child-0" data-name="15dc2a09-7b00-454a-8a10-3d4ebebf55c4-child-0"><path class="cls-3" d="M585.08,125.58v2.47H19.18v-2.47Z"/></g></g><g id="_60a4429c-5627-48c2-8c51-4cbd00d1c5e6" data-name="60a4429c-5627-48c2-8c51-4cbd00d1c5e6"><g id="_60a4429c-5627-48c2-8c51-4cbd00d1c5e6-child-0" data-name="60a4429c-5627-48c2-8c51-4cbd00d1c5e6-child-0"><path class="cls-4" d="M971.32,30.54C936,12.53,889.22,2.61,839.64,2.61S743.33,12.53,708,30.54c-37.62,19.17-58.35,45.48-58.35,74.1s20.73,54.93,58.35,74.1c35.34,18,82.11,27.92,131.65,27.92s96.32-9.9,131.67-27.92c37.63-19.17,58.35-45.49,58.35-74.1S1009,49.71,971.32,30.54Z"/></g><g id="_60a4429c-5627-48c2-8c51-4cbd00d1c5e6-child-1" data-name="60a4429c-5627-48c2-8c51-4cbd00d1c5e6-child-1"><path class="cls-3" d="M839.64,11.49c-99.88,0-181.14,41.77-181.14,93.14s81.26,93.15,181.14,93.15,181.14-41.78,181.14-93.15S939.54,11.49,839.64,11.49Zm176.42,82.82c-12.38-13.07-47.92-22.74-91.62-28.16a93.58,93.58,0,0,0-55.39-49.87C946.42,22.8,1007,54.65,1016.06,94.31ZM837.88,61.14A705.6,705.6,0,0,0,759,65.64a89.71,89.71,0,0,1,78.88-50.56Zm0,3.55V143.8A700.52,700.52,0,0,1,757,139.23a89.52,89.52,0,0,1,.31-69.89A690.72,690.72,0,0,1,837.88,64.69Zm0,82.66V194.2a89.68,89.68,0,0,1-79.22-51.31A718.59,718.59,0,0,0,837.88,147.35Zm3.55,0a719.24,719.24,0,0,0,79.24-4.46,89.72,89.72,0,0,1-79.24,51.31Zm0-3.55V64.69A693.63,693.63,0,0,1,922,69.33a89.49,89.49,0,0,1,.31,69.86A703.11,703.11,0,0,1,841.43,143.8Zm0-82.66V15.08a89.73,89.73,0,0,1,78.89,50.56A705.92,705.92,0,0,0,841.43,61.14ZM810.25,16.27a93.63,93.63,0,0,0-55.4,49.87c-43.68,5.43-79.22,15.1-91.6,28.17C672.31,54.65,732.88,22.8,810.25,16.27Zm-97,60.59c12-2.81,25.53-5.15,40-7a92.77,92.77,0,0,0-.27,68.9c-56.56-7.2-90.94-21-90.94-34.1C662.06,94.55,680.71,84.42,713.23,76.86Zm-50,37.86c12.31,12.83,47.72,22.33,91.35,27.68A93.61,93.61,0,0,0,810.25,193C732.72,186.46,672.06,154.49,663.19,114.72ZM869.06,193a93.62,93.62,0,0,0,55.72-50.62c43.61-5.35,79-14.86,91.34-27.68-8.87,39.77-69.53,71.74-147.06,78.29Zm97-61.15c-12,2.73-25.37,5-39.76,6.84A92.86,92.86,0,0,0,926,69.85a403.89,403.89,0,0,1,40,7c32.52,7.56,51.17,17.69,51.17,27.78,0,9.87-18.64,19.79-51.16,27.21Z"/></g></g><g id="_1577f1e8-f4d9-4304-a89a-f1c757f788ad" data-name="1577f1e8-f4d9-4304-a89a-f1c757f788ad"><g id="b4abce4e-fc0c-4c8d-a468-f96dafcfc4e7"><path class="cls-3" d="M100.71,177.41H99.9l-.85,0-4.16,0-.81,0-4.17,0A19.3,19.3,0,0,1,85.4,177a1.7,1.7,0,0,1-1.15-1.76c0-.89.63-2.09,1.89-3.62q0-.08,4.64-4.76a56.27,56.27,0,0,0,6-6.73,11.63,11.63,0,0,0,2.3-6.28,6.37,6.37,0,0,0-1.46-4.44A4.61,4.61,0,0,0,94,147.8a5.92,5.92,0,0,0-5.51,3.65c-.89,1.72-1.69,2.58-2.42,2.58q-1.77,0-1.77-2a5.52,5.52,0,0,1,.83-3.18,8.21,8.21,0,0,1,2.31-2.17,14,14,0,0,1,7.87-2.19,9.9,9.9,0,0,1,7.09,2.42,8.57,8.57,0,0,1,2.55,6.51,10,10,0,0,1-2.17,6.05,52.82,52.82,0,0,1-7.22,7.37c-3.37,3-5,4.78-5,5.45,0,.51,1.41.76,4.23.76a22.26,22.26,0,0,0,5.84-.51,9.07,9.07,0,0,0,2.87-1.51,3.79,3.79,0,0,1,2-1c.5,0,.75.6.75,1.79q0,3.54-1.33,4.77c-.58.53-2,.79-4.19.79Zm16.49-17.64v2a22.24,22.24,0,0,0,1.94,9.65,8.08,8.08,0,0,0,2,2.64,4,4,0,0,0,2.6,1.06h.64a4,4,0,0,0,2.55-.93,6.56,6.56,0,0,0,1.86-2.36,19.2,19.2,0,0,0,1.84-8.4l0-.77v-2.37a23,23,0,0,0-2-10,6.49,6.49,0,0,0-1.94-2.42A4.59,4.59,0,0,0,124,147q-3.07,0-4.92,3.56a20.1,20.1,0,0,0-1.85,9.25Zm7.22,18.15h-1a9.81,9.81,0,0,1-4.52-1.12q-4.55-2.36-6.35-8.17a23.77,23.77,0,0,1-1.08-7.2v-.53a19.49,19.49,0,0,1,3.93-12.49,10.74,10.74,0,0,1,8.81-4.21,11.2,11.2,0,0,1,8.91,4,15.33,15.33,0,0,1,2.87,5.48,22,22,0,0,1,1,6.47v1.56a20.68,20.68,0,0,1-1,6.28q-1.94,6.16-6.61,8.62a10.49,10.49,0,0,1-5,1.28Zm35.22-.51h-.82l-.84,0-4.16,0-.82,0-4.15,0a19.35,19.35,0,0,1-4.52-.28,1.7,1.7,0,0,1-1.14-1.76c0-.89.63-2.09,1.88-3.62l4.64-4.76a58.22,58.22,0,0,0,5.95-6.73,11.61,11.61,0,0,0,2.29-6.28,6.37,6.37,0,0,0-1.45-4.44A4.63,4.63,0,0,0,153,147.8a5.92,5.92,0,0,0-5.51,3.65c-.88,1.72-1.69,2.58-2.42,2.58-1.17,0-1.76-.66-1.76-2a5.52,5.52,0,0,1,.83-3.18,8.21,8.21,0,0,1,2.31-2.17,13.93,13.93,0,0,1,7.86-2.19,9.94,9.94,0,0,1,7.1,2.42,8.57,8.57,0,0,1,2.55,6.51,10,10,0,0,1-2.17,6.05,53.41,53.41,0,0,1-7.22,7.37c-3.37,3-5.06,4.78-5.06,5.45,0,.51,1.41.76,4.24.76a22.12,22.12,0,0,0,5.83-.51,9,9,0,0,0,2.88-1.51,3.79,3.79,0,0,1,2-1c.49,0,.74.6.74,1.79q0,3.54-1.32,4.77c-.59.53-2,.79-4.19.79Zm23.25-15.24q0,8.33.42,9.64a5.19,5.19,0,0,0,2.12,2.5c1.13.79,1.7,1.45,1.7,2,0,.75-.88,1.12-2.63,1.12h-8.07c-2.65,0-4-.43-4-1.3,0-.45.58-1,1.75-1.69a4.94,4.94,0,0,0,2.3-2.52q.56-1.52.55-10.32t-.58-10.14a2.76,2.76,0,0,0-2.65-1.47c-1.39-.09-2.08-.47-2.08-1.15,0-.44.42-.88,1.25-1.33q.58-.3,2.79-1.08c1.47-.52,2.69-1,3.64-1.34a6.78,6.78,0,0,1,2.31-.56,1.33,1.33,0,0,1,1.25.65,4.92,4.92,0,0,1,.37,2.28L183,153.6l-.05,1.07v1l-.05,2.15ZM209,182.54V178l0-.51v-9.62l0-1V155.76l0-1.53V145.1l0-.52v-2.5l0-1.48c0-.85.13-1.37.38-1.57a2.32,2.32,0,0,1,1.35-.29h.51a1.49,1.49,0,0,1,1.21.37,3.28,3.28,0,0,1,.3,1.77V149l0,.51v8.6l0,1v13q0,11.24-.1,12.15a1.5,1.5,0,0,1-1.71,1.43h-.52a1.44,1.44,0,0,1-1.21-.4A6.88,6.88,0,0,1,209,182.54Zm38.08-30.94s-.83,1.16-2.44,3.49-2.72,3.88-3.35,4.68-1,1.26-1.07,1.38l-1.15,1.58-.16.18-.51.74c-.34.46-.71.94-1.12,1.43a2.44,2.44,0,0,0-.61.95v.1c0,.05.08.07.25.07h.62l.2,0,3.78-.08c3.27,0,5-.1,5.08-.3q.38-.65.38-8.1l.13-2v-.43l0-.21v-.41l.08-2v-1l-.05-.13Zm-2.63,25.22a12.7,12.7,0,0,1,.82-1.66,5.67,5.67,0,0,0,.82-2.55,2.43,2.43,0,0,0-1.47-2.51,14,14,0,0,0-4.86-.6q-6.5,0-6.49-1.82v-.43q0-3,13.61-20,2-2.47,3.9-2.48a1.5,1.5,0,0,1,1.56,1.28,67.16,67.16,0,0,1,.23,8q0,7.14.59,9.26a3.65,3.65,0,0,0,2,2.05c1.13.59,1.69,1.3,1.69,2.13,0,.31-.3.64-.9,1a4.19,4.19,0,0,0-1.56,1.76,6.25,6.25,0,0,0-.65,3,3.83,3.83,0,0,0,.52,1.39,4.15,4.15,0,0,1,.53,1.9q0,1-1.92,1.74a12.46,12.46,0,0,1-4.34.71h-1.07a3.4,3.4,0,0,1-2.35-.65,2,2,0,0,1-.69-1.52Zm22.31,1.2a3.6,3.6,0,0,1-2.42-.94,3.13,3.13,0,0,1-1.1-2.48v-.23a3.08,3.08,0,0,1,1.14-2.45,3.51,3.51,0,0,1,2.31-1h.45a3.55,3.55,0,0,0,.57.08,2.74,2.74,0,0,1,1.86,1,3.06,3.06,0,0,1,1,2.24v.36a3.42,3.42,0,0,1-.93,2.26,2.74,2.74,0,0,1-2.13,1.09l-.59.07Zm22-26.42s-.83,1.16-2.44,3.49-2.72,3.88-3.35,4.68l-1.08,1.38-1.15,1.58-.15.18-.51.74c-.34.46-.71.94-1.12,1.43a2.44,2.44,0,0,0-.61.95v.1c0,.05.08.07.25.07h.61l.21,0,3.78-.08q4.91,0,5.07-.3.39-.65.39-8.1l.13-2v-.43l0-.21v-.41l.08-2v-1l0-.13Zm-2.63,25.22a12.7,12.7,0,0,1,.82-1.66,5.77,5.77,0,0,0,.81-2.55,2.43,2.43,0,0,0-1.46-2.51,14.07,14.07,0,0,0-4.87-.6q-6.48,0-6.48-1.82v-.43q0-3,13.61-20,2-2.47,3.9-2.48a1.5,1.5,0,0,1,1.56,1.28,67.16,67.16,0,0,1,.23,8q0,7.14.58,9.26a3.68,3.68,0,0,0,2,2.05c1.13.59,1.7,1.3,1.7,2.13,0,.31-.3.64-.9,1a4.19,4.19,0,0,0-1.56,1.76,6.25,6.25,0,0,0-.65,3,3.83,3.83,0,0,0,.52,1.39,4.13,4.13,0,0,1,.52,1.9c0,.68-.64,1.26-1.91,1.74a12.46,12.46,0,0,1-4.34.71h-1.07a3.4,3.4,0,0,1-2.35-.65,2,2,0,0,1-.69-1.52Zm42.4-27.13a5.88,5.88,0,0,0-1-3.47,2.78,2.78,0,0,0-2.17-1.46H325l-.15,0a2.64,2.64,0,0,0-2.38,1.86,9.45,9.45,0,0,0-.84,3.91V152l0,.18.05.76a5.07,5.07,0,0,1,.05.54,5.64,5.64,0,0,0,1,3c.65,1,1.36,1.55,2.13,1.55h.59a2.66,2.66,0,0,0,2.05-1.41,5.8,5.8,0,0,0,1-3.44l0-.18,0-.21,0-.58v-1.59a8.1,8.1,0,0,1-.07-.94ZM349,168.91v-1.43a8.66,8.66,0,0,1-.08-1,6.62,6.62,0,0,0-1.3-3.83,2.43,2.43,0,0,0-2-1.2h-.46a2.86,2.86,0,0,0-2.22,1.5,6.08,6.08,0,0,0-1,3.56,4.75,4.75,0,0,0,0,.56l-.06,1v.41l0,.21,0,.58,0,.74a6.83,6.83,0,0,0,1.2,3.65,2.54,2.54,0,0,0,2.27,1.25l.15,0a2.88,2.88,0,0,0,2.5-1.81,8.51,8.51,0,0,0,1-4.19ZM333.77,151v.58a9.16,9.16,0,0,1-2.42,6.5,7.86,7.86,0,0,1-6,2.59l-.28,0a6.49,6.49,0,0,1-5.17-2.29,8.31,8.31,0,0,1-2-5.65v-1.18a9,9,0,0,1,2.33-6.12,7.39,7.39,0,0,1,5.79-2.66h.56l.28,0a6.22,6.22,0,0,1,4.89,2.28,8.77,8.77,0,0,1,2,5.94Zm12.2-8.4h.41c.81,0,1.22.22,1.22.66a7.24,7.24,0,0,1-1.07,2.17q-11.65,19.22-18.63,29.48c-1.17,1.74-2.24,2.61-3.2,2.61s-1.45-.22-1.45-.67q0-1.53,19.73-31.65C344.12,143.49,345.12,142.62,346,142.62Zm7.61,25.17v1.43a8.42,8.42,0,0,1-2.16,5.68,6.82,6.82,0,0,1-5.35,2.48h-.84a6.42,6.42,0,0,1-4.81-2.29,8,8,0,0,1-2.13-5.64V168a8.49,8.49,0,0,1,2.13-5.71,7,7,0,0,1,5.55-2.46l.26,0a6.83,6.83,0,0,1,5.2,2.31,8,8,0,0,1,2.15,5.61Zm21.26,14.75V178l0-.51v-9.62l0-1V155.76l0-1.53V145.1l0-.52v-2.5l0-1.48c0-.85.13-1.37.38-1.57a2.32,2.32,0,0,1,1.35-.29h.51a1.53,1.53,0,0,1,1.22.37,3.41,3.41,0,0,1,.29,1.77V149l0,.51v8.6l0,1v13q0,11.24-.1,12.15a1.5,1.5,0,0,1-1.71,1.43h-.51a1.46,1.46,0,0,1-1.22-.4A6.88,6.88,0,0,1,374.84,182.54Zm37.24-20.37q0,8.33.42,9.64a5.19,5.19,0,0,0,2.12,2.5c1.13.79,1.7,1.45,1.7,2,0,.75-.88,1.12-2.63,1.12h-8.07c-2.65,0-4-.43-4-1.3,0-.45.58-1,1.75-1.69a4.94,4.94,0,0,0,2.3-2.52q.56-1.52.55-10.32t-.58-10.14A2.76,2.76,0,0,0,403,150c-1.39-.09-2.08-.47-2.08-1.15,0-.44.42-.88,1.25-1.33q.58-.3,2.79-1.08c1.47-.52,2.69-1,3.64-1.34a6.78,6.78,0,0,1,2.31-.56,1.33,1.33,0,0,1,1.25.65,4.92,4.92,0,0,1,.37,2.28l-.36,6.16-.05,1.07v1l-.05,2.15Zm27.39,15.24h-.82l-.84,0-4.16,0-.82,0-4.16,0a19.35,19.35,0,0,1-4.52-.28,1.7,1.7,0,0,1-1.14-1.76c0-.89.63-2.09,1.88-3.62q.06-.08,4.65-4.76a58.22,58.22,0,0,0,5.95-6.73,11.61,11.61,0,0,0,2.29-6.28,6.37,6.37,0,0,0-1.45-4.44,4.63,4.63,0,0,0-3.55-1.61,5.92,5.92,0,0,0-5.51,3.65q-1.33,2.58-2.43,2.58c-1.17,0-1.76-.66-1.76-2a5.52,5.52,0,0,1,.83-3.18,8.21,8.21,0,0,1,2.31-2.17,13.93,13.93,0,0,1,7.86-2.19,9.92,9.92,0,0,1,7.1,2.42,8.57,8.57,0,0,1,2.55,6.51,10,10,0,0,1-2.17,6.05,53.41,53.41,0,0,1-7.22,7.37c-3.37,3-5.06,4.78-5.06,5.45,0,.51,1.41.76,4.24.76a22.12,22.12,0,0,0,5.83-.51,9,9,0,0,0,2.88-1.51,3.79,3.79,0,0,1,2-1c.49,0,.74.6.74,1.79q0,3.54-1.32,4.77c-.58.53-2,.79-4.19.79Zm20.44-28.15h-.05q-3.86,0-3.85,4.87c0,1.47.26,2.39.79,2.78a7.6,7.6,0,0,0,2.86.28q5.5,0,8.73,2.61a10.19,10.19,0,0,1,2.87,3.61,9.29,9.29,0,0,1,1,3.94v.85a10.18,10.18,0,0,1-3.58,7.92,13,13,0,0,1-9,3.2h-.82a12.86,12.86,0,0,1-5.45-1.17c-1.69-.78-2.54-1.75-2.54-2.91v-.66c0-1.21.7-1.82,2.1-1.82a6.61,6.61,0,0,1,3,1.57,7.2,7.2,0,0,0,4.38,1.57,5.68,5.68,0,0,0,4.82-2.63,9,9,0,0,0,1.3-5.28,7.08,7.08,0,0,0-.71-3,7,7,0,0,0-1.92-2.5q-2.17-1.74-6.45-1.74l-.77.05c-.33,0-.89,0-1.7,0a1.87,1.87,0,0,1-1.75-.91,8.39,8.39,0,0,1-.53-3.68,30.34,30.34,0,0,1,.69-6.12,12,12,0,0,1,1.27-4q1-1.2,7.35-1.2a35,35,0,0,0,5.62-.31l.74-.15a7.19,7.19,0,0,1,1.35-.21c1.21,0,1.82.63,1.82,1.89q0,3.31-4,3.32c-1,0-1.85,0-2.58-.05l-1.63-.08c-1.63-.05-2.72-.07-3.25-.07Zm41.79,4.85H501a3.52,3.52,0,0,0-2.63,1.55,5.57,5.57,0,0,0-1.28,3.63l-.05.41,0,.63V161l0,.2a7.28,7.28,0,0,0,1.15,4.29,3.91,3.91,0,0,0,3.42,1.63h.18a3.94,3.94,0,0,0,3-1.37,5.25,5.25,0,0,0,1.25-3.65v-1a8.75,8.75,0,0,1-.08-1,6.85,6.85,0,0,0-1.34-4.21,3.74,3.74,0,0,0-3-1.78Zm-2.27,22.69a4.15,4.15,0,0,0-3,1.25,4.27,4.27,0,0,0-1.25,3.14v.2a4,4,0,0,0,1.71,3.42,7.79,7.79,0,0,0,4.67,1.25h.66a9.32,9.32,0,0,0,5.75-1.63,4.71,4.71,0,0,0,2.17-3.83l0-.2a2.77,2.77,0,0,0-1.2-2.34,4.63,4.63,0,0,0-2.83-.88,12.39,12.39,0,0,0-1.48-.13l-.87-.07h-.43l-1.54-.11-1-.07Zm15.7-23c0,1-.61,1.59-1.84,1.86s-1.84.76-1.84,1.51l.08.54.1.61.13.67a17.84,17.84,0,0,1,.12,2.37,6.85,6.85,0,0,1-.86,3.17q-2.43,4.51-9.35,4.95a13.12,13.12,0,0,0-2.83.38,1.77,1.77,0,0,0-1.33,1.71c0,.8.66,1.36,2,1.68.19,0,1.88.22,5.08.49s5.33.65,6.4,1.2q3.41,1.68,3.4,4.87a8,8,0,0,1-3.74,6.82q-3.74,2.63-9.79,2.63a14,14,0,0,1-7.09-1.63,6.13,6.13,0,0,1-2.11-1.93,4.36,4.36,0,0,1-.8-2.46,5.44,5.44,0,0,1,1.35-3.78,22.17,22.17,0,0,0,2.17-2.55,6.27,6.27,0,0,0-1-1.36,4,4,0,0,1-.94-2.5,4.58,4.58,0,0,1,1.24-2.82,8.43,8.43,0,0,0,1.23-1.7,20.11,20.11,0,0,0-1.53-2.61,8.79,8.79,0,0,1-1.53-4.64,7.93,7.93,0,0,1,.95-3.9q2.69-4.87,10-4.88h.74l3.54.23,1.31.05q.66,0,1.35,0l2.7-.18c1.79,0,2.69.39,2.69,1.17Z"/></g></g><g id="_4f7950b1-a659-4c00-862c-022aaf965f90" data-name="4f7950b1-a659-4c00-862c-022aaf965f90"><g id="_3cd415f4-7033-470c-baa9-efb196488039" data-name="3cd415f4-7033-470c-baa9-efb196488039"><path class="cls-3" d="M43.36,44.22a1.29,1.29,0,0,0,.24.91,1.62,1.62,0,0,0,1.07.24h.57a2.46,2.46,0,0,0,2-.9A3.87,3.87,0,0,0,48,41.91l0-.12a3.73,3.73,0,0,0-.87-2.62,2.88,2.88,0,0,0-2.21-1h-.29c-.66,0-1.05.16-1.16.48a11.86,11.86,0,0,0-.06,1.77v3.75Zm-4.81,8.24a1.47,1.47,0,0,1,.69-1.28,1.69,1.69,0,0,0,.8-1.07,45.82,45.82,0,0,0,.17-5.3A33.26,33.26,0,0,0,40,39.56a2.24,2.24,0,0,0-.6-1.2c-.56-.47-.84-.78-.84-.92v-.19c0-.32.29-.52.88-.61.17,0,1,0,2.5,0l1.56,0h.3l.93,0h.94q4.16,0,5.55,2.57a4.41,4.41,0,0,1,.53,2.09v.33a4.36,4.36,0,0,1-1.45,3.33,6.61,6.61,0,0,1-4.08,1.6,10.17,10.17,0,0,0-1.75.23c-.53.24-.79,1.11-.79,2.62A2,2,0,0,0,44.4,51c.65.53,1,1,1,1.33s-.3.47-.9.58a15.4,15.4,0,0,1-2.61.17c-2.21,0-3.32-.22-3.32-.65ZM58.67,43h-.34a1.91,1.91,0,0,0-1.41.77,2.7,2.7,0,0,0-.68,1.84v.19c0,.29.16.44.48.44l.12,0h.89l2-.12a1,1,0,0,1,.23,0,.54.54,0,0,0,.6-.62V45.1A2.15,2.15,0,0,0,60,43.67a1.7,1.7,0,0,0-1.3-.65Zm-2.29,5.6a2.51,2.51,0,0,0,1.11,2,3.28,3.28,0,0,0,2.09.65A6.83,6.83,0,0,0,61.29,51a8.86,8.86,0,0,1,1.31-.33c.35,0,.53.19.53.58s-.47.91-1.41,1.38a6.37,6.37,0,0,1-2.91.7h-.57a5.28,5.28,0,0,1-1.94-.39,4.8,4.8,0,0,1-2.78-2.63A6.31,6.31,0,0,1,53,47.82v-.54A6.58,6.58,0,0,1,53.37,45a5.17,5.17,0,0,1,2.74-3,5.88,5.88,0,0,1,2.47-.54h.27a4.64,4.64,0,0,1,3.23,1.19,4.2,4.2,0,0,1,1.07,1.52A4.7,4.7,0,0,1,63.52,46a1.19,1.19,0,0,1-.91,1.22,18,18,0,0,1-4.7.41,2.23,2.23,0,0,0-1.22.23.89.89,0,0,0-.31.78ZM71.07,43h-.22a1.89,1.89,0,0,0-1.65,1.14,5.44,5.44,0,0,0-.64,2.72v.66a5.8,5.8,0,0,0,.74,3,2.09,2.09,0,0,0,1.77,1.24h.23a1.94,1.94,0,0,0,1.58-.93,4.05,4.05,0,0,0,.67-2.46l0-.25v-1a3.65,3.65,0,0,1,0-.38,4.73,4.73,0,0,0-.74-2.67A2.1,2.1,0,0,0,71.07,43Zm0-1.57h.58a5.61,5.61,0,0,1,5,3.55,6.42,6.42,0,0,1,.4,2.24v.21a6.18,6.18,0,0,1-.5,2.4,5.58,5.58,0,0,1-1.33,1.95,5.77,5.77,0,0,1-4,1.57h-.36a5.75,5.75,0,0,1-2.21-.45A4.8,4.8,0,0,1,67,51.66a5.91,5.91,0,0,1-1.49-4.12v-.4A6.32,6.32,0,0,1,65.88,45a5.32,5.32,0,0,1,2.84-3,5.61,5.61,0,0,1,2.37-.54Zm16.88,6,0-.65a4.38,4.38,0,0,0-.84-2.65,2,2,0,0,0-1.7-.86h-.09a1.86,1.86,0,0,0-1.6.81,3.06,3.06,0,0,0-.36,1.71l0,.22,0,1v1.76l0,.34,0,.44a2.23,2.23,0,0,0,.54,1.57,1.82,1.82,0,0,0,1.4.58h.21a2.23,2.23,0,0,0,1.92-1.28A5.44,5.44,0,0,0,88,47.63v-.27ZM83.52,54.7A2.59,2.59,0,0,0,84,56.34l.52.52a1.14,1.14,0,0,1,.42.7c0,.25-.17.43-.52.52a11.33,11.33,0,0,1-2.25.14H81.9a11.24,11.24,0,0,1-2.45-.15c-.31-.1-.46-.26-.46-.48a4.73,4.73,0,0,1,.57-1,4.56,4.56,0,0,0,.72-1.86c0-.21,0-1.9,0-5.05s0-4.89-.11-5.22a1.61,1.61,0,0,0-.75-.94c-.43-.29-.65-.57-.65-.84s.18-.46.55-.59a9.11,9.11,0,0,1,2.92-.52.73.73,0,0,1,.53.17,2.69,2.69,0,0,1,.34.43c.11.17.22.26.33.26a1.67,1.67,0,0,0,.61-.26,10.15,10.15,0,0,1,1-.5,4.09,4.09,0,0,1,1.53-.24H87a3.64,3.64,0,0,1,1.71.45,4.87,4.87,0,0,1,1.46,1.2,5.82,5.82,0,0,1,1.21,3.77,6.42,6.42,0,0,1-1.62,4.54,4.78,4.78,0,0,1-1.83,1.28,6.25,6.25,0,0,1-2.23.37l-.9-.09-.5-.06-.24,0c-.35,0-.53.62-.53,1.87Zm9.63-18c0-.29.2-.49.61-.62a11.1,11.1,0,0,1,3.17-.5q.9,0,1,.78,0,.18,0,6.3a69,69,0,0,0,.2,7.22,3.41,3.41,0,0,0,.56,1.51,12.33,12.33,0,0,1,.89,1.06c0,.37-1,.56-3.15.56H96A15.07,15.07,0,0,1,93.72,53a.43.43,0,0,1-.37-.44,2.06,2.06,0,0,1,.58-1.06A3.4,3.4,0,0,0,94.65,50a53.08,53.08,0,0,0,.16-5.87,44.38,44.38,0,0,0-.17-5.64,1.81,1.81,0,0,0-.83-1C93.37,37.17,93.15,36.94,93.15,36.75ZM106.91,43h-.34a1.91,1.91,0,0,0-1.41.77,2.7,2.7,0,0,0-.68,1.84v.19c0,.29.16.44.48.44l.12,0H106l2-.12a1,1,0,0,1,.23,0,.54.54,0,0,0,.6-.62V45.1a2.15,2.15,0,0,0-.56-1.43,1.7,1.7,0,0,0-1.3-.65Zm-2.29,5.6a2.51,2.51,0,0,0,1.11,2,3.28,3.28,0,0,0,2.09.65,6.67,6.67,0,0,0,1.71-.33,8.86,8.86,0,0,1,1.31-.33c.35,0,.53.19.53.58s-.47.91-1.4,1.38a6.43,6.43,0,0,1-2.91.7h-.58a5.28,5.28,0,0,1-1.94-.39,4.79,4.79,0,0,1-2.77-2.63,6.16,6.16,0,0,1-.57-2.46v-.54a6.58,6.58,0,0,1,.41-2.29,5.17,5.17,0,0,1,2.74-3,5.88,5.88,0,0,1,2.47-.54h.27a4.64,4.64,0,0,1,3.23,1.19,4.2,4.2,0,0,1,1.07,1.52,4.7,4.7,0,0,1,.37,1.82,1.19,1.19,0,0,1-.91,1.22,18,18,0,0,1-4.7.41,2.23,2.23,0,0,0-1.22.23.89.89,0,0,0-.31.78Zm21.77-.38c0-.35-.11-.53-.33-.53h-.3a2.53,2.53,0,0,1-.45.06,2.67,2.67,0,0,0-1.8.63,1.8,1.8,0,0,0-.73,1.41v.27a1.52,1.52,0,0,0,.38,1,1.18,1.18,0,0,0,.92.44h.37a1.92,1.92,0,0,0,1.33-.49,1.3,1.3,0,0,0,.55-.94,2.19,2.19,0,0,0,0-.3l0-.19v-.51l0-.18v-.52A.82.82,0,0,1,126.39,48.24ZM131.17,52v.17c0,.27-.3.52-.89.75a5.71,5.71,0,0,1-2.09.35,1.6,1.6,0,0,1-1.28-.67c-.19-.25-.35-.38-.46-.38a1.1,1.1,0,0,0-.56.27,5,5,0,0,1-2.89.92h0a3.58,3.58,0,0,1-2.44-.79,2.79,2.79,0,0,1-.93-2.21q0-3,4.7-3.84a9.6,9.6,0,0,0,1.35-.27,1.22,1.22,0,0,0,.68-1.26,1.91,1.91,0,0,0-.44-1.4,1.41,1.41,0,0,0-1-.43,2.15,2.15,0,0,0-1.68,1,2.16,2.16,0,0,1-1.75,1,1.18,1.18,0,0,1-.89-.32,1,1,0,0,1-.3-.66,1.84,1.84,0,0,1,1.09-1.65,7.65,7.65,0,0,1,3.81-1h.61a4.46,4.46,0,0,1,1.93.43,3.18,3.18,0,0,1,1.43,1.31,9.7,9.7,0,0,1,.5,3.94,15.87,15.87,0,0,0,.2,3.52,1.25,1.25,0,0,0,.77.68c.39.15.59.33.59.56Zm7.13-9.18a4.33,4.33,0,0,1,2.33-.94,1.68,1.68,0,0,1,1.31.41,1.48,1.48,0,0,1,.35,1,1.74,1.74,0,0,1-.32,1,.86.86,0,0,1-.7.46,2.81,2.81,0,0,1-1.09-.31,3,3,0,0,0-1.07-.3,1.34,1.34,0,0,0-.84.4,2.22,2.22,0,0,0-.66,1.14,10.76,10.76,0,0,0-.18,2.32,5.77,5.77,0,0,0,.22,2,5.71,5.71,0,0,0,.92,1.22,2.09,2.09,0,0,1,.69,1.23c0,.38-.91.57-2.72.57h-1.26l-.51,0H134c-.82,0-1.23-.18-1.23-.53a1.48,1.48,0,0,1,.61-1.07,2.41,2.41,0,0,0,.76-1,17.34,17.34,0,0,0,.13-3,15.45,15.45,0,0,0-.16-3.06,1.63,1.63,0,0,0-.76-.86c-.41-.24-.61-.49-.61-.75s.27-.61.81-.76a8.64,8.64,0,0,1,2.21-.33,2.68,2.68,0,0,1,1.33.22,1.51,1.51,0,0,1,.32.6c.13.34.27.51.43.51a1.27,1.27,0,0,0,.45-.21Zm11,.23H149a1.91,1.91,0,0,0-1.41.77,2.7,2.7,0,0,0-.68,1.84v.19c0,.29.16.44.48.44l.12,0h.89l2-.12a1,1,0,0,1,.23,0,.54.54,0,0,0,.6-.62V45.1a2.15,2.15,0,0,0-.56-1.43,1.7,1.7,0,0,0-1.3-.65ZM147,48.62a2.51,2.51,0,0,0,1.11,2,3.28,3.28,0,0,0,2.09.65,6.67,6.67,0,0,0,1.71-.33,8.86,8.86,0,0,1,1.31-.33c.35,0,.53.19.53.58s-.47.91-1.4,1.38a6.43,6.43,0,0,1-2.91.7h-.58a5.28,5.28,0,0,1-1.94-.39,4.79,4.79,0,0,1-2.77-2.63,6.16,6.16,0,0,1-.57-2.46v-.54A6.58,6.58,0,0,1,144,45a5.17,5.17,0,0,1,2.74-3,5.88,5.88,0,0,1,2.47-.54h.27a4.64,4.64,0,0,1,3.23,1.19,4.2,4.2,0,0,1,1.07,1.52,4.7,4.7,0,0,1,.37,1.82,1.19,1.19,0,0,1-.91,1.22,18,18,0,0,1-4.7.41,2.23,2.23,0,0,0-1.22.23.89.89,0,0,0-.31.78Zm21.77-.38c0-.35-.11-.53-.33-.53h-.3a2.53,2.53,0,0,1-.45.06,2.67,2.67,0,0,0-1.8.63,1.8,1.8,0,0,0-.73,1.41v.27a1.52,1.52,0,0,0,.38,1,1.18,1.18,0,0,0,.92.44h.37a1.92,1.92,0,0,0,1.33-.49,1.3,1.3,0,0,0,.55-.94,2.19,2.19,0,0,0,.05-.3l0-.19v-.51l0-.18v-.52A.82.82,0,0,1,168.79,48.24ZM173.57,52v.17c0,.27-.3.52-.89.75a5.71,5.71,0,0,1-2.09.35,1.6,1.6,0,0,1-1.28-.67c-.19-.25-.35-.38-.46-.38a1.1,1.1,0,0,0-.56.27,5,5,0,0,1-2.89.92h0a3.58,3.58,0,0,1-2.44-.79,2.79,2.79,0,0,1-.93-2.21q0-3,4.7-3.84a9.6,9.6,0,0,0,1.35-.27,1.22,1.22,0,0,0,.68-1.26,1.91,1.91,0,0,0-.44-1.4,1.41,1.41,0,0,0-1-.43,2.15,2.15,0,0,0-1.68,1,2.16,2.16,0,0,1-1.75,1,1.18,1.18,0,0,1-.89-.32,1,1,0,0,1-.3-.66,1.84,1.84,0,0,1,1.09-1.65,7.64,7.64,0,0,1,3.8-1h.62a4.46,4.46,0,0,1,1.93.43,3.18,3.18,0,0,1,1.43,1.31,9.7,9.7,0,0,1,.5,3.94,15.87,15.87,0,0,0,.2,3.52,1.25,1.25,0,0,0,.77.68c.39.15.59.33.59.56ZM175,36.75c0-.29.2-.49.61-.62a11.1,11.1,0,0,1,3.17-.5q.9,0,1,.78,0,.18,0,6.3a64.76,64.76,0,0,0,.21,7.22,3.41,3.41,0,0,0,.56,1.51,12.33,12.33,0,0,1,.89,1.06c0,.37-1.05.56-3.15.56h-.48a15.07,15.07,0,0,1-2.25-.09.43.43,0,0,1-.37-.44,2.1,2.1,0,0,1,.57-1.06,3.32,3.32,0,0,0,.73-1.51,53.08,53.08,0,0,0,.16-5.87,44.38,44.38,0,0,0-.17-5.64,1.81,1.81,0,0,0-.83-1C175.21,37.17,175,36.94,175,36.75Zm17.47,5.16c1.31,0,2,.78,2,2.34a9,9,0,0,0,1,3.66c.17.35.32.53.45.53s.57-.47.92-1.41a7.85,7.85,0,0,0,.54-2.8v-.37l-.07-.33V43a.92.92,0,0,1,.52-.85,4.05,4.05,0,0,1,1.8-.29c.85,0,1.28.24,1.28.73a1.57,1.57,0,0,1-.51.91,3.82,3.82,0,0,0-.75,1.16q-.26.6-.51,1.41c-.17.54-.56,1.64-1.15,3.3s-.92,2.57-1,2.7a1.73,1.73,0,0,1-1.59,1.08c-.42,0-.79-.31-1.11-.92-.12-.23-.52-1.18-1.2-2.86a26.21,26.21,0,0,0-1.08-2.51,10.22,10.22,0,0,0-1.18,2.53c-.69,1.69-1.11,2.68-1.28,3a1.34,1.34,0,0,1-1.23.74c-.55,0-1-.4-1.45-1.19-.14-.27-.52-1.27-1.15-3s-1.09-2.93-1.38-3.59a7.76,7.76,0,0,0-1-1.69,2.84,2.84,0,0,1-.55-.84.81.81,0,0,1,.34-.67,1.58,1.58,0,0,1,1-.28h.9c1.18,0,1.94.3,2.28.89a7.88,7.88,0,0,1,.41,1.85,19.16,19.16,0,0,0,.38,2c.36,1.15.7,1.73,1,1.73s.52-.38.79-1.15a7.29,7.29,0,0,0,.4-2.43v-.38l0-.4a1.84,1.84,0,0,1,.59-1.59,2.74,2.74,0,0,1,1.62-.42ZM209,48.24c0-.35-.11-.53-.33-.53h-.31a2.34,2.34,0,0,1-.44.06,2.67,2.67,0,0,0-1.8.63,1.8,1.8,0,0,0-.73,1.41v.27a1.52,1.52,0,0,0,.38,1,1.16,1.16,0,0,0,.91.44H207a1.92,1.92,0,0,0,1.33-.49,1.3,1.3,0,0,0,.55-.94,2.19,2.19,0,0,0,0-.3l0-.19V48.42c0-.08,0-.14,0-.18ZM213.73,52v.17c0,.27-.29.52-.88.75a5.71,5.71,0,0,1-2.09.35,1.6,1.6,0,0,1-1.28-.67c-.2-.25-.35-.38-.46-.38a1.12,1.12,0,0,0-.57.27,5,5,0,0,1-2.89.92h0a3.61,3.61,0,0,1-2.45-.79,2.79,2.79,0,0,1-.93-2.21q0-3,4.71-3.84a9.6,9.6,0,0,0,1.35-.27A1.22,1.22,0,0,0,208.9,45a1.91,1.91,0,0,0-.44-1.4,1.41,1.41,0,0,0-1-.43,2.12,2.12,0,0,0-1.68,1,2.16,2.16,0,0,1-1.75,1,1.18,1.18,0,0,1-.89-.32,1,1,0,0,1-.3-.66,1.85,1.85,0,0,1,1.08-1.65,7.7,7.7,0,0,1,3.81-1h.61a4.53,4.53,0,0,1,1.94.43,3.11,3.11,0,0,1,1.42,1.31,9.47,9.47,0,0,1,.51,3.94,16.2,16.2,0,0,0,.19,3.52,1.27,1.27,0,0,0,.78.68c.39.15.58.33.58.56Zm11.92-10.28c1.07,0,1.6.28,1.6.84a1.69,1.69,0,0,1-.53.89,5,5,0,0,0-.87,1.28c-.23.47-1,2.41-2.44,5.84s-2.29,5.45-2.67,6.08a3.3,3.3,0,0,1-2.92,1.74,2.69,2.69,0,0,1-1.33-.36,1,1,0,0,1-.63-.89,1.12,1.12,0,0,1,.4-.9,1.57,1.57,0,0,1,1.08-.36,2.46,2.46,0,0,0,2.48-2.33,4.52,4.52,0,0,0-.41-1.77c-1.92-4.37-2.94-6.69-3.07-6.94a6.15,6.15,0,0,0-.89-1.15,2.21,2.21,0,0,1-.7-1.37c0-.39,1.09-.58,3.28-.58a6,6,0,0,1,1.47.12c.27.08.4.31.4.7a1.34,1.34,0,0,1-.16.55,1.57,1.57,0,0,0-.15.65,13.19,13.19,0,0,0,.57,2.18,18.41,18.41,0,0,0,1,2.67c.28.54.46.81.53.81.25,0,.77-1.12,1.55-3.37a6.92,6.92,0,0,0,.34-2.3,1.3,1.3,0,0,0-.19-.65,1.28,1.28,0,0,1-.2-.61.72.72,0,0,1,.27-.51,3.61,3.61,0,0,1,1.83-.26Zm10.91.29a1.37,1.37,0,0,1,.53,1.29,3.91,3.91,0,0,1-.14,1.3.55.55,0,0,1-.55.32c-.44,0-.91-.32-1.42-1a2.36,2.36,0,0,0-1.91-.95,1.53,1.53,0,0,0-1,.34,1,1,0,0,0-.39.75,1.39,1.39,0,0,0,.69,1.18,18.37,18.37,0,0,0,2.11,1A7.59,7.59,0,0,1,237,47.77a3,3,0,0,1,.77,2.15,3.06,3.06,0,0,1-1.17,2.38,4.39,4.39,0,0,1-3,1H233a8.33,8.33,0,0,1-3.42-.54c-.53-.25-.8-.85-.8-1.79s.18-1.41.53-1.41,1,.36,1.67,1.09a2.9,2.9,0,0,0,2.15,1.1,2.27,2.27,0,0,0,1.2-.3,1,1,0,0,0,.48-.94,1.45,1.45,0,0,0-.68-1.15,13.07,13.07,0,0,0-2-1,7.74,7.74,0,0,1-2.28-1.33,3.16,3.16,0,0,1-1-2.37A2.86,2.86,0,0,1,230,42.38a4.49,4.49,0,0,1,2.8-.92h.32a7.63,7.63,0,0,1,3.42.52ZM258.91,52.3c0,.37-.26.61-.79.72a11.67,11.67,0,0,1-2.25.17A5.72,5.72,0,0,1,254,53a.65.65,0,0,1-.43-.63,2.29,2.29,0,0,1,.3-.77,4.36,4.36,0,0,0,.42-1,17.12,17.12,0,0,0,.12-2.85,9,9,0,0,0-.41-3.32,1.56,1.56,0,0,0-1.56-.86,2.12,2.12,0,0,0-1.75.77,4.75,4.75,0,0,0-.6,2.8,19.17,19.17,0,0,0,.16,2.07,8.54,8.54,0,0,0,.47,2.13,5.47,5.47,0,0,1,.31.8c0,.35-.21.58-.64.67a14.67,14.67,0,0,1-2.8.2c-1.25,0-1.88-.19-1.88-.58a2.33,2.33,0,0,1,.55-1.17,3.1,3.1,0,0,0,.62-1.33c0-.38.08-2.26.08-5.64a47.82,47.82,0,0,0-.16-5.71,1.92,1.92,0,0,0-.51-.94,4.46,4.46,0,0,1-.84-.84.74.74,0,0,1,.51-.7,7.6,7.6,0,0,1,2.87-.45,1,1,0,0,1,1.1.62,13.9,13.9,0,0,1,.16,3c0,1.75,0,2.69,0,2.8a.49.49,0,0,0,.49.41,2.32,2.32,0,0,0,.67-.24,6.27,6.27,0,0,1,2.6-.66,3.11,3.11,0,0,1,3,1.69,9.48,9.48,0,0,1,.64,4.13,16.53,16.53,0,0,0,.16,3.32,2.91,2.91,0,0,0,.7.89c.35.34.53.56.53.65Zm8.27-4.06c0-.35-.11-.53-.33-.53h-.3a2.53,2.53,0,0,1-.45.06,2.67,2.67,0,0,0-1.8.63,1.8,1.8,0,0,0-.73,1.41v.27a1.52,1.52,0,0,0,.38,1,1.16,1.16,0,0,0,.92.44h.37a1.92,1.92,0,0,0,1.33-.49,1.3,1.3,0,0,0,.55-.94,2.19,2.19,0,0,0,.05-.3l0-.19V48.42C267.19,48.34,267.18,48.28,267.18,48.24ZM272,52v.17c0,.27-.29.52-.88.75a5.71,5.71,0,0,1-2.09.35,1.6,1.6,0,0,1-1.28-.67c-.2-.25-.35-.38-.46-.38a1.1,1.1,0,0,0-.56.27,5,5,0,0,1-2.9.92h0a3.58,3.58,0,0,1-2.44-.79,2.79,2.79,0,0,1-.93-2.21q0-3,4.7-3.84a9.6,9.6,0,0,0,1.35-.27,1.22,1.22,0,0,0,.68-1.26,1.91,1.91,0,0,0-.44-1.4,1.41,1.41,0,0,0-1-.43,2.12,2.12,0,0,0-1.68,1,2.16,2.16,0,0,1-1.75,1,1.18,1.18,0,0,1-.89-.32,1,1,0,0,1-.3-.66,1.84,1.84,0,0,1,1.09-1.65,7.64,7.64,0,0,1,3.8-1h.61a4.47,4.47,0,0,1,1.94.43,3.18,3.18,0,0,1,1.43,1.31,9.7,9.7,0,0,1,.5,3.94,15.87,15.87,0,0,0,.2,3.52,1.25,1.25,0,0,0,.77.68c.39.15.58.33.58.56Zm9.29-9.7c0-.37.89-.55,2.66-.55,1.09,0,1.63.22,1.63.67a1.7,1.7,0,0,1-.69,1.07,4.43,4.43,0,0,0-1,1.34s-.51,1.24-1.52,3.69a35.06,35.06,0,0,1-1.9,4.21,1.54,1.54,0,0,1-2.43-.07,32.13,32.13,0,0,1-1.82-4.07c-.93-2.29-1.5-3.63-1.71-4a4.2,4.2,0,0,0-1.05-1.22c-.49-.41-.74-.72-.74-.92v-.23c0-.29,1-.44,3.13-.44h.58a4.49,4.49,0,0,1,1.52.15.5.5,0,0,1,.31.49A1.27,1.27,0,0,1,278,43a1.57,1.57,0,0,0-.17.73,14.86,14.86,0,0,0,1.56,5c.22.48.37.72.46.72s.24-.25.45-.75a15.21,15.21,0,0,0,1.45-4.77,2,2,0,0,0-.24-.86,1.87,1.87,0,0,1-.25-.81Zm11,.75h-.35a1.91,1.91,0,0,0-1.41.77,2.7,2.7,0,0,0-.68,1.84v.19c0,.29.16.44.48.44l.12,0h.9l2-.12a1,1,0,0,1,.23,0,.54.54,0,0,0,.6-.62V45.1a2.15,2.15,0,0,0-.56-1.43A1.7,1.7,0,0,0,292.2,43Zm-2.3,5.6a2.51,2.51,0,0,0,1.11,2,3.28,3.28,0,0,0,2.09.65,6.67,6.67,0,0,0,1.71-.33,9.56,9.56,0,0,1,1.31-.33c.35,0,.53.19.53.58s-.47.91-1.4,1.38a6.43,6.43,0,0,1-2.91.7h-.58a5.28,5.28,0,0,1-1.94-.39,4.79,4.79,0,0,1-2.77-2.63,6.16,6.16,0,0,1-.57-2.46v-.54a6.58,6.58,0,0,1,.41-2.29,5.17,5.17,0,0,1,2.74-3,5.88,5.88,0,0,1,2.47-.54h.27a4.64,4.64,0,0,1,3.23,1.19,4.2,4.2,0,0,1,1.07,1.52A4.7,4.7,0,0,1,297,46a1.19,1.19,0,0,1-.91,1.22,18,18,0,0,1-4.7.41,2.23,2.23,0,0,0-1.22.23.89.89,0,0,0-.31.78Zm15.44-5.33-.26-.17a.59.59,0,0,1-.26-.51c0-.23.21-.45.62-.67a2.66,2.66,0,0,0,.78-.53,6.08,6.08,0,0,0,.49-1.1,5.32,5.32,0,0,1,.71-1.4,1.19,1.19,0,0,1,1-.48.92.92,0,0,1,.88.49A5.61,5.61,0,0,1,309.6,40a2.19,2.19,0,0,0,.46,1.07,3.89,3.89,0,0,0,1,.52l.79.3a.94.94,0,0,1,.39.75c0,.25-.37.48-1.11.67a2.12,2.12,0,0,0-1.42.9,8.39,8.39,0,0,0-.31,3,8.16,8.16,0,0,0,.37,3.12A1.27,1.27,0,0,0,311,51l.42,0,.61,0q.72,0,.72.54a1.24,1.24,0,0,1-.87,1.1,6.13,6.13,0,0,1-2.63.59,2.76,2.76,0,0,1-1.3-.35,2.68,2.68,0,0,1-1-.86,5,5,0,0,1-.67-2.82l0-.25c0-.17,0-.36,0-.57v-.7a15.61,15.61,0,0,0-.33-3.46,1.41,1.41,0,0,0-.63-.89Zm22.43,9c0,.37-.26.61-.79.72a11.67,11.67,0,0,1-2.25.17,5.72,5.72,0,0,1-1.89-.19.65.65,0,0,1-.43-.63,2.29,2.29,0,0,1,.3-.77,4.36,4.36,0,0,0,.42-1,17.12,17.12,0,0,0,.12-2.85,9,9,0,0,0-.41-3.32,1.56,1.56,0,0,0-1.56-.86,2.12,2.12,0,0,0-1.75.77,4.75,4.75,0,0,0-.6,2.8,19.17,19.17,0,0,0,.16,2.07,8.54,8.54,0,0,0,.47,2.13,5.47,5.47,0,0,1,.31.8c0,.35-.21.58-.64.67a14.67,14.67,0,0,1-2.8.2c-1.25,0-1.88-.19-1.88-.58a2.33,2.33,0,0,1,.55-1.17,3.1,3.1,0,0,0,.62-1.33c0-.38.08-2.26.08-5.64a47.82,47.82,0,0,0-.16-5.71,1.92,1.92,0,0,0-.51-.94,4.57,4.57,0,0,1-.83-.84.74.74,0,0,1,.5-.7,7.6,7.6,0,0,1,2.87-.45,1,1,0,0,1,1.1.62,13.9,13.9,0,0,1,.16,3c0,1.75,0,2.69,0,2.8a.49.49,0,0,0,.49.41,2.32,2.32,0,0,0,.67-.24,6.28,6.28,0,0,1,2.61-.66,3.11,3.11,0,0,1,3,1.69,9.48,9.48,0,0,1,.64,4.13,16.53,16.53,0,0,0,.16,3.32,2.91,2.91,0,0,0,.7.89c.35.34.53.56.53.65ZM335,43h-.34a1.93,1.93,0,0,0-1.42.77,2.7,2.7,0,0,0-.68,1.84v.19c0,.29.16.44.49.44l.11,0h.9l2-.12.24,0c.39,0,.59-.21.59-.62V45.1a2.15,2.15,0,0,0-.56-1.43A1.67,1.67,0,0,0,335,43Zm-2.29,5.6a2.53,2.53,0,0,0,1.1,2,3.28,3.28,0,0,0,2.09.65,6.67,6.67,0,0,0,1.71-.33,9.56,9.56,0,0,1,1.31-.33c.35,0,.53.19.53.58s-.47.91-1.4,1.38a6.43,6.43,0,0,1-2.91.7h-.58a5.28,5.28,0,0,1-1.94-.39,4.79,4.79,0,0,1-2.77-2.63,6.16,6.16,0,0,1-.57-2.46v-.54a6.37,6.37,0,0,1,.42-2.29,5.12,5.12,0,0,1,2.73-3,5.88,5.88,0,0,1,2.47-.54h.27a4.68,4.68,0,0,1,3.24,1.19,4.3,4.3,0,0,1,1.06,1.52,4.7,4.7,0,0,1,.37,1.82,1.19,1.19,0,0,1-.9,1.22,18.05,18.05,0,0,1-4.71.41,2.25,2.25,0,0,0-1.22.23.91.91,0,0,0-.3.78ZM343,37.8a1.47,1.47,0,0,1,.54-1.15,1.72,1.72,0,0,1,1.15-.47h.38a1.23,1.23,0,0,0,.29,0,1.3,1.3,0,0,1,1,.5,1.53,1.53,0,0,1,.44,1V38a.82.82,0,0,0,0,.18,1.28,1.28,0,0,1-.55,1,1.85,1.85,0,0,1-1.22.47h-.37a1.71,1.71,0,0,1-1.13-.41,1.25,1.25,0,0,1-.48-1l0-.12Zm2.23,15.3h-1.11a10.51,10.51,0,0,1-1.88-.09c-.21-.06-.31-.23-.31-.51a1.63,1.63,0,0,1,.59-1,2.66,2.66,0,0,0,.74-1.18,18,18,0,0,0,.15-3.09,17.06,17.06,0,0,0-.13-2.95,1.34,1.34,0,0,0-.8-.77c-.45-.21-.68-.47-.68-.77s.21-.53.62-.67a10,10,0,0,1,3.12-.47h.18a.68.68,0,0,1,.78.58c0,.22.06,1.53.06,3.94a28.22,28.22,0,0,0,.16,4.23,3.16,3.16,0,0,0,.82,1.31q.66.71.66.87v.14c0,.29-1,.43-3,.43Zm10.2-10.31a4.33,4.33,0,0,1,2.32-.94,1.67,1.67,0,0,1,1.31.41,1.48,1.48,0,0,1,.35,1,1.73,1.73,0,0,1-.31,1,.86.86,0,0,1-.71.46,2.82,2.82,0,0,1-1.08-.31,3,3,0,0,0-1.07-.3,1.36,1.36,0,0,0-.85.4,2.14,2.14,0,0,0-.65,1.14,10.76,10.76,0,0,0-.18,2.32,5.77,5.77,0,0,0,.22,2,5.39,5.39,0,0,0,.92,1.22,2.09,2.09,0,0,1,.69,1.23q0,.57-2.73.57H352.4l-.5,0h-.77c-.82,0-1.23-.18-1.23-.53a1.5,1.5,0,0,1,.62-1.07,2.37,2.37,0,0,0,.75-1,16.83,16.83,0,0,0,.14-3,15.45,15.45,0,0,0-.16-3.06,1.61,1.61,0,0,0-.77-.86q-.6-.36-.6-.75c0-.36.27-.61.81-.76a8.52,8.52,0,0,1,2.21-.33,2.68,2.68,0,0,1,1.33.22,1.51,1.51,0,0,1,.32.6c.12.34.26.51.43.51a1.27,1.27,0,0,0,.45-.21Zm12.86-5a1.49,1.49,0,0,1,.53-1.15,1.76,1.76,0,0,1,1.16-.47h.37a1.24,1.24,0,0,0,.3,0,1.32,1.32,0,0,1,1,.5,1.52,1.52,0,0,1,.43,1V38c0,.08,0,.14,0,.18a1.28,1.28,0,0,1-.55,1,1.88,1.88,0,0,1-1.23.47h-.36a1.72,1.72,0,0,1-1.14-.41,1.27,1.27,0,0,1-.47-1l0-.12Zm2.23,15.3H369.4a10.44,10.44,0,0,1-1.87-.09c-.21-.06-.31-.23-.31-.51a1.6,1.6,0,0,1,.58-1,2.66,2.66,0,0,0,.74-1.18,16.59,16.59,0,0,0,.16-3.09,17.06,17.06,0,0,0-.13-2.95,1.37,1.37,0,0,0-.81-.77c-.45-.21-.67-.47-.67-.77s.21-.53.62-.67a9.9,9.9,0,0,1,3.11-.47H371a.69.69,0,0,1,.79.58c0,.22.06,1.53.06,3.94a28.22,28.22,0,0,0,.16,4.23,3,3,0,0,0,.81,1.31q.66.71.66.87v.14C373.48,53,372.49,53.1,370.52,53.1Zm18.18-.87c0,.29-.24.5-.71.64a10,10,0,0,1-2.38.2,4.91,4.91,0,0,1-2-.23.69.69,0,0,1-.33-.56,2.73,2.73,0,0,1,.3-1,4.83,4.83,0,0,0,.37-1.06,25.85,25.85,0,0,0,.07-2.7,8.51,8.51,0,0,0-.39-3.15,1.54,1.54,0,0,0-1.55-.84,2.2,2.2,0,0,0-1.87,1,4.5,4.5,0,0,0-.48,2.46,12.64,12.64,0,0,0,.54,4.32,3.74,3.74,0,0,1,.33,1c0,.29-.18.48-.54.56a15.55,15.55,0,0,1-2.34.11,5.51,5.51,0,0,1-2.18-.24.75.75,0,0,1-.38-.66c0-.27.21-.55.62-.82s.66-.52.71-.74a27.87,27.87,0,0,0,.08-3,13.78,13.78,0,0,0-.18-3.1,3.55,3.55,0,0,0-.7-1.06l-.53-.61v-.24c0-.13.1-.26.29-.37a6.31,6.31,0,0,1,3.05-.59,1.12,1.12,0,0,1,.94.56c.26.37.45.55.56.55a2.57,2.57,0,0,0,.83-.38l.71-.41a4.19,4.19,0,0,1,1.75-.43h.38a3.08,3.08,0,0,1,2.94,1.64c.37.71.56,2.43.56,5.14a11.13,11.13,0,0,0,.14,2.48,2.06,2.06,0,0,0,.77.7c.42.26.63.51.63.76Zm15.07,0c0,.29-.24.5-.71.64a10,10,0,0,1-2.38.2,4.91,4.91,0,0,1-2-.23.69.69,0,0,1-.33-.56,2.73,2.73,0,0,1,.3-1,4.83,4.83,0,0,0,.37-1.06,25.85,25.85,0,0,0,.07-2.7,8.51,8.51,0,0,0-.39-3.15,1.54,1.54,0,0,0-1.55-.84,2.2,2.2,0,0,0-1.87,1,4.5,4.5,0,0,0-.48,2.46,12.64,12.64,0,0,0,.54,4.32,3.74,3.74,0,0,1,.33,1c0,.29-.18.48-.54.56a15.55,15.55,0,0,1-2.34.11,5.51,5.51,0,0,1-2.18-.24.75.75,0,0,1-.38-.66c0-.27.21-.55.62-.82s.66-.52.71-.74a27.87,27.87,0,0,0,.08-3,13.78,13.78,0,0,0-.18-3.1,3.55,3.55,0,0,0-.7-1.06l-.53-.61v-.24c0-.13.1-.26.29-.37a6.31,6.31,0,0,1,3.05-.59,1.12,1.12,0,0,1,.94.56c.26.37.45.55.56.55a2.57,2.57,0,0,0,.83-.38l.71-.41a4.19,4.19,0,0,1,1.75-.43h.38a3.08,3.08,0,0,1,2.94,1.64c.37.71.56,2.43.56,5.14a11.13,11.13,0,0,0,.14,2.48,2.06,2.06,0,0,0,.77.7c.42.26.63.51.63.76ZM410.85,43h-.34a1.93,1.93,0,0,0-1.42.77,2.69,2.69,0,0,0-.67,1.84v.19c0,.29.16.44.48.44l.12,0h.89l2-.12.24,0a.54.54,0,0,0,.6-.62V45.1a2.12,2.12,0,0,0-.57-1.43,1.67,1.67,0,0,0-1.29-.65Zm-2.29,5.6a2.53,2.53,0,0,0,1.1,2,3.31,3.31,0,0,0,2.1.65,6.83,6.83,0,0,0,1.71-.33,8.86,8.86,0,0,1,1.31-.33c.35,0,.53.19.53.58s-.47.91-1.41,1.38a6.37,6.37,0,0,1-2.91.7h-.57a5.21,5.21,0,0,1-1.94-.39,4.77,4.77,0,0,1-2.78-2.63,6.31,6.31,0,0,1-.56-2.46v-.54a6.58,6.58,0,0,1,.41-2.29,5.14,5.14,0,0,1,2.74-3,5.81,5.81,0,0,1,2.47-.54H411a4.67,4.67,0,0,1,3.23,1.19,4.3,4.3,0,0,1,1.06,1.52,4.7,4.7,0,0,1,.37,1.82,1.19,1.19,0,0,1-.9,1.22,18,18,0,0,1-4.7.41,2.29,2.29,0,0,0-1.23.23.91.91,0,0,0-.3.78Zm14.54-5.83a4.33,4.33,0,0,1,2.33-.94,1.68,1.68,0,0,1,1.31.41,1.47,1.47,0,0,1,.34,1,1.73,1.73,0,0,1-.31,1,.86.86,0,0,1-.7.46,2.81,2.81,0,0,1-1.09-.31,3,3,0,0,0-1.07-.3,1.36,1.36,0,0,0-.85.4,2.14,2.14,0,0,0-.65,1.14,10.76,10.76,0,0,0-.18,2.32,5.77,5.77,0,0,0,.22,2,5.71,5.71,0,0,0,.92,1.22,2.09,2.09,0,0,1,.69,1.23c0,.38-.91.57-2.72.57h-1.26l-.51,0h-.76c-.83,0-1.24-.18-1.24-.53a1.5,1.5,0,0,1,.62-1.07,2.37,2.37,0,0,0,.75-1,16.83,16.83,0,0,0,.14-3,15.45,15.45,0,0,0-.16-3.06,1.63,1.63,0,0,0-.76-.86c-.41-.24-.61-.49-.61-.75s.27-.61.81-.76a8.52,8.52,0,0,1,2.21-.33,2.68,2.68,0,0,1,1.33.22,1.51,1.51,0,0,1,.32.6c.13.34.27.51.43.51a1.27,1.27,0,0,0,.45-.21Zm15.73,6.85a2.36,2.36,0,0,0,.47,1.56,1.65,1.65,0,0,0,1.31.56h.54a2,2,0,0,0,1.62-1.1,5,5,0,0,0,.69-2.71v-.79a5.13,5.13,0,0,0-.71-2.86A2.07,2.07,0,0,0,441,43.23h-.2a1.7,1.7,0,0,0-1.61.8,7.84,7.84,0,0,0-.45,3.32v.23l0,.12v.93l0,.79a1.8,1.8,0,0,1,0,.22ZM436.73,53a1.56,1.56,0,0,1-1.13-.3,1,1,0,0,1-.28-.73,15.45,15.45,0,0,1,.23-1.82,14.58,14.58,0,0,0,.22-1.94v-4c0-3,0-4.77-.11-5.21a1.59,1.59,0,0,0-.58-1c-.53-.43-.79-.71-.79-.85,0-.33.31-.57.93-.74a9.07,9.07,0,0,1,2.2-.36h.27a.94.94,0,0,1,1.05.69,19,19,0,0,1,.11,2.74,25.09,25.09,0,0,0,.06,2.53.55.55,0,0,0,.61.41l.31-.11a7.35,7.35,0,0,1,2.39-.49,4.08,4.08,0,0,1,3.37,1.58,6,6,0,0,1,1.25,3.83v.29a5.91,5.91,0,0,1-.5,2.35,5.38,5.38,0,0,1-3,3.07,5.79,5.79,0,0,1-2.18.45h-.29a5.44,5.44,0,0,1-1.08-.16,7.36,7.36,0,0,0-1.48-.15l-.26,0-.53,0h-.27ZM454.41,43h-.34a1.91,1.91,0,0,0-1.41.77,2.7,2.7,0,0,0-.68,1.84v.19c0,.29.16.44.48.44l.12,0h.89l2-.12a1,1,0,0,1,.23,0,.54.54,0,0,0,.6-.62V45.1a2.15,2.15,0,0,0-.56-1.43,1.7,1.7,0,0,0-1.3-.65Zm-2.29,5.6a2.51,2.51,0,0,0,1.11,2,3.28,3.28,0,0,0,2.09.65A6.83,6.83,0,0,0,457,51a8.86,8.86,0,0,1,1.31-.33c.35,0,.53.19.53.58s-.47.91-1.41,1.38a6.37,6.37,0,0,1-2.91.7H454a5.28,5.28,0,0,1-1.94-.39,4.79,4.79,0,0,1-2.77-2.63,6.16,6.16,0,0,1-.57-2.46v-.54a6.58,6.58,0,0,1,.41-2.29,5.17,5.17,0,0,1,2.74-3,5.88,5.88,0,0,1,2.47-.54h.27a4.64,4.64,0,0,1,3.23,1.19,4.2,4.2,0,0,1,1.07,1.52,4.7,4.7,0,0,1,.37,1.82,1.19,1.19,0,0,1-.91,1.22,18,18,0,0,1-4.7.41,2.23,2.23,0,0,0-1.22.23.89.89,0,0,0-.31.78Zm15.67-.38c0-.35-.11-.53-.33-.53h-.3a2.53,2.53,0,0,1-.45.06,2.67,2.67,0,0,0-1.8.63,1.8,1.8,0,0,0-.73,1.41v.27a1.52,1.52,0,0,0,.38,1,1.16,1.16,0,0,0,.92.44h.37a1.92,1.92,0,0,0,1.33-.49,1.3,1.3,0,0,0,.55-.94,2.19,2.19,0,0,0,0-.3l0-.19V48.42C467.8,48.34,467.79,48.28,467.79,48.24ZM472.56,52v.17c0,.27-.29.52-.88.75a5.71,5.71,0,0,1-2.09.35,1.6,1.6,0,0,1-1.28-.67c-.2-.25-.35-.38-.46-.38a1.06,1.06,0,0,0-.56.27,5,5,0,0,1-2.9.92h0a3.58,3.58,0,0,1-2.44-.79,2.79,2.79,0,0,1-.93-2.21q0-3,4.7-3.84a9.6,9.6,0,0,0,1.35-.27,1.22,1.22,0,0,0,.68-1.26,1.91,1.91,0,0,0-.44-1.4,1.41,1.41,0,0,0-1-.43,2.12,2.12,0,0,0-1.68,1,2.16,2.16,0,0,1-1.75,1,1.18,1.18,0,0,1-.89-.32,1,1,0,0,1-.3-.66,1.85,1.85,0,0,1,1.08-1.65,7.7,7.7,0,0,1,3.81-1h.61a4.47,4.47,0,0,1,1.94.43,3.18,3.18,0,0,1,1.43,1.31,9.7,9.7,0,0,1,.5,3.94,15.87,15.87,0,0,0,.2,3.52,1.25,1.25,0,0,0,.77.68c.39.15.58.33.58.56Zm14.49.19c0,.63-.9,1-2.7,1a1.89,1.89,0,0,1-1.09-.22,1.82,1.82,0,0,1-.48-.6c-.13-.25-.23-.37-.31-.37a2.53,2.53,0,0,0-.73.38,8.12,8.12,0,0,1-1.27.68,4.6,4.6,0,0,1-1.77.29,3.48,3.48,0,0,1-1.85-.47,3.17,3.17,0,0,1-1.19-1.36,11.44,11.44,0,0,1-.43-4A20.14,20.14,0,0,0,475.1,44a1.49,1.49,0,0,0-.76-.58c-.41-.19-.62-.42-.62-.69s.23-.63.7-.76a10.93,10.93,0,0,1,2.72-.29,1,1,0,0,1,1,.67,17,17,0,0,1,.23,3.74,21.88,21.88,0,0,0,.2,3.86,1.59,1.59,0,0,0,1.19,1.32,1.86,1.86,0,0,0,.48.06,2.51,2.51,0,0,0,.87-.16,2.22,2.22,0,0,0,1.1-.77,5.55,5.55,0,0,0,.37-2.63,14.55,14.55,0,0,0-.21-3,4.49,4.49,0,0,0-.6-1.45,1.9,1.9,0,0,1-.39-.84c0-.55,1-.82,3-.82h.33a1.11,1.11,0,0,1,.83.24,2.09,2.09,0,0,1,.22,1.23l-.05,1.7v2.09a21,21,0,0,0,.14,3.2,3.37,3.37,0,0,0,.65,1.28,3.11,3.11,0,0,1,.52.77Zm2-8.87-.26-.17a.59.59,0,0,1-.26-.51c0-.23.21-.45.62-.67a2.66,2.66,0,0,0,.78-.53,6.08,6.08,0,0,0,.49-1.1,5.32,5.32,0,0,1,.71-1.4,1.19,1.19,0,0,1,1-.48.92.92,0,0,1,.88.49,5.61,5.61,0,0,1,.31,1.06,2.19,2.19,0,0,0,.46,1.07,3.89,3.89,0,0,0,1,.52l.79.3a.92.92,0,0,1,.4.75c0,.25-.37.48-1.11.67a2.12,2.12,0,0,0-1.43.9,8.39,8.39,0,0,0-.31,3,8.16,8.16,0,0,0,.37,3.12,1.27,1.27,0,0,0,1.22.72l.42,0,.61,0q.72,0,.72.54a1.24,1.24,0,0,1-.87,1.1,6.13,6.13,0,0,1-2.63.59,2.76,2.76,0,0,1-1.3-.35,2.68,2.68,0,0,1-1-.86,5,5,0,0,1-.67-2.82l0-.25c0-.17,0-.36,0-.57v-.7a15.61,15.61,0,0,0-.33-3.46,1.41,1.41,0,0,0-.63-.89Zm19.63-1.6c1.07,0,1.6.28,1.6.84a1.66,1.66,0,0,1-.54.89,5.56,5.56,0,0,0-.87,1.28c-.22.47-1,2.41-2.43,5.84s-2.29,5.45-2.67,6.08a3.32,3.32,0,0,1-2.92,1.74,2.69,2.69,0,0,1-1.33-.36,1,1,0,0,1-.63-.89,1.12,1.12,0,0,1,.4-.9,1.57,1.57,0,0,1,1.08-.36,2.46,2.46,0,0,0,2.48-2.33,4.52,4.52,0,0,0-.41-1.77c-1.92-4.37-2.94-6.69-3.07-6.94a6.15,6.15,0,0,0-.89-1.15,2.21,2.21,0,0,1-.7-1.37c0-.39,1.09-.58,3.28-.58a6,6,0,0,1,1.47.12c.27.08.4.31.4.7a1.34,1.34,0,0,1-.16.55,1.45,1.45,0,0,0-.16.65,12.65,12.65,0,0,0,.58,2.18,18.41,18.41,0,0,0,1,2.67c.28.54.46.81.53.81.25,0,.76-1.12,1.55-3.37a6.92,6.92,0,0,0,.34-2.3,1.3,1.3,0,0,0-.19-.65,1.28,1.28,0,0,1-.2-.61.72.72,0,0,1,.27-.51,3.56,3.56,0,0,1,1.83-.26ZM42.29,77.33a2.33,2.33,0,0,0,.47,1.55,1.65,1.65,0,0,0,1.31.56h.54a2,2,0,0,0,1.62-1.1,5,5,0,0,0,.69-2.71v-.78A5.13,5.13,0,0,0,46.21,72a2.07,2.07,0,0,0-1.75-1.07h-.2a1.69,1.69,0,0,0-1.61.79A7.88,7.88,0,0,0,42.2,75v.24l0,.12v.93l0,.78a2,2,0,0,1,0,.23Zm-2.1,3.31a1.56,1.56,0,0,1-1.13-.3,1,1,0,0,1-.28-.72A15.78,15.78,0,0,1,39,77.79a14.32,14.32,0,0,0,.22-1.93v-4c0-3,0-4.77-.11-5.2a1.64,1.64,0,0,0-.58-1c-.53-.42-.79-.7-.79-.84,0-.33.31-.58.93-.74a8.69,8.69,0,0,1,2.2-.37h.27a.94.94,0,0,1,1,.7,18.8,18.8,0,0,1,.11,2.73,25.09,25.09,0,0,0,.06,2.53A.55.55,0,0,0,43,70l.31-.1a7.4,7.4,0,0,1,2.39-.5A4.08,4.08,0,0,1,49.07,71a6,6,0,0,1,1.24,3.83v.29a5.94,5.94,0,0,1-.49,2.36,5.39,5.39,0,0,1-3,3.06,5.79,5.79,0,0,1-2.18.45h-.29a6.06,6.06,0,0,1-1.08-.15,6.71,6.71,0,0,0-1.48-.16l-.26,0-.53,0h-.27ZM62.61,69.38c1.07,0,1.6.28,1.6.83,0,.21-.18.5-.54.89a5.56,5.56,0,0,0-.87,1.28q-.33.7-2.43,5.85c-1.4,3.43-2.29,5.45-2.67,6.08a3.3,3.3,0,0,1-2.92,1.74,2.69,2.69,0,0,1-1.33-.36,1,1,0,0,1-.63-.9,1.15,1.15,0,0,1,.4-.9,1.57,1.57,0,0,1,1.08-.36,2.37,2.37,0,0,0,1.79-.74,2.32,2.32,0,0,0,.69-1.58,4.53,4.53,0,0,0-.41-1.78c-1.92-4.37-2.94-6.69-3.07-6.94a6.5,6.5,0,0,0-.89-1.15,2.17,2.17,0,0,1-.7-1.36c0-.39,1.09-.59,3.28-.59a5.41,5.41,0,0,1,1.47.13c.27.08.4.31.4.69a1.27,1.27,0,0,1-.16.55,1.65,1.65,0,0,0-.15.66,13.74,13.74,0,0,0,.57,2.18,18.41,18.41,0,0,0,1,2.67c.28.54.46.81.53.81.25,0,.77-1.12,1.55-3.37a6.94,6.94,0,0,0,.34-2.31,1.29,1.29,0,0,0-.19-.64,1.31,1.31,0,0,1-.2-.61.74.74,0,0,1,.27-.52,3.61,3.61,0,0,1,1.83-.25ZM72.07,71l-.26-.18a.56.56,0,0,1-.25-.51c0-.22.21-.44.62-.66A2.71,2.71,0,0,0,73,69.1,4.82,4.82,0,0,0,73.44,68a5.73,5.73,0,0,1,.71-1.39,1.18,1.18,0,0,1,1-.49.93.93,0,0,1,.88.5,5.68,5.68,0,0,1,.31,1,2.09,2.09,0,0,0,.47,1.07,3.48,3.48,0,0,0,1,.53l.79.3a.92.92,0,0,1,.4.75c0,.25-.37.47-1.11.67a2.08,2.08,0,0,0-1.42.89,8.42,8.42,0,0,0-.31,3A8.06,8.06,0,0,0,76.55,78a1.26,1.26,0,0,0,1.21.72l.43,0a5.79,5.79,0,0,1,.61,0c.47,0,.71.18.71.54a1.24,1.24,0,0,1-.87,1.11,6.09,6.09,0,0,1-2.63.59,2.63,2.63,0,0,1-1.29-.36,2.78,2.78,0,0,1-1-.85,5,5,0,0,1-.67-2.83V76.6c0-.17,0-.37,0-.58v-.69a15.65,15.65,0,0,0-.33-3.47,1.42,1.42,0,0,0-.64-.88ZM94.5,80c0,.37-.26.62-.79.73a11.48,11.48,0,0,1-2.24.17,5.72,5.72,0,0,1-1.89-.19.66.66,0,0,1-.44-.64,2.23,2.23,0,0,1,.31-.76,6.29,6.29,0,0,0,.42-1A17.12,17.12,0,0,0,90,75.47a8.93,8.93,0,0,0-.41-3.32A1.57,1.57,0,0,0,88,71.28a2.09,2.09,0,0,0-1.75.77,4.68,4.68,0,0,0-.61,2.81,19.82,19.82,0,0,0,.17,2.07,7.93,7.93,0,0,0,.47,2.12,6.1,6.1,0,0,1,.3.8c0,.35-.21.58-.63.67a14.79,14.79,0,0,1-2.81.2c-1.25,0-1.87-.19-1.87-.57A2.35,2.35,0,0,1,81.84,79a3.17,3.17,0,0,0,.62-1.33c.05-.37.08-2.25.08-5.64a47.46,47.46,0,0,0-.16-5.7,1.92,1.92,0,0,0-.51-.94c-.56-.5-.84-.78-.84-.85a.72.72,0,0,1,.51-.69,7.34,7.34,0,0,1,2.86-.46,1.07,1.07,0,0,1,1.11.62,15.21,15.21,0,0,1,.15,3c0,1.75,0,2.68,0,2.79a.49.49,0,0,0,.48.41,2.52,2.52,0,0,0,.67-.23,6.35,6.35,0,0,1,2.61-.66,3.12,3.12,0,0,1,3,1.68,9.72,9.72,0,0,1,.63,4.14,15.91,15.91,0,0,0,.17,3.31,3,3,0,0,0,.69.9c.35.33.53.55.53.64Zm7.24-9.27h-.34a1.91,1.91,0,0,0-1.41.77,2.7,2.7,0,0,0-.68,1.84v.19c0,.29.16.43.48.43l.12,0h.89l2-.11a1,1,0,0,1,.23,0,.54.54,0,0,0,.6-.62v-.39a2.16,2.16,0,0,0-.56-1.44,1.69,1.69,0,0,0-1.3-.64ZM99.45,76.3a2.52,2.52,0,0,0,1.11,2,3.28,3.28,0,0,0,2.09.64,6.83,6.83,0,0,0,1.71-.33,9.63,9.63,0,0,1,1.31-.32c.35,0,.53.19.53.57s-.47.91-1.41,1.38a6.37,6.37,0,0,1-2.91.7h-.57a5.28,5.28,0,0,1-1.94-.39A4.8,4.8,0,0,1,96.59,78,6.24,6.24,0,0,1,96,75.5V75a6.62,6.62,0,0,1,.41-2.29,5.17,5.17,0,0,1,2.74-3,5.88,5.88,0,0,1,2.47-.54h.27a4.64,4.64,0,0,1,3.23,1.19,4.32,4.32,0,0,1,1.07,1.53,4.62,4.62,0,0,1,.37,1.81,1.17,1.17,0,0,1-.91,1.22,18,18,0,0,1-4.7.41,2.23,2.23,0,0,0-1.22.23.89.89,0,0,0-.31.78Zm10.29-10.81a1.49,1.49,0,0,1,.53-1.15,1.76,1.76,0,0,1,1.16-.47h.37l.3,0a1.3,1.3,0,0,1,1,.51,1.47,1.47,0,0,1,.43,1v.31a1.49,1.49,0,0,0,0,.17,1.3,1.3,0,0,1-.55,1,1.88,1.88,0,0,1-1.23.47h-.36a1.63,1.63,0,0,1-1.13-.42,1.25,1.25,0,0,1-.48-1l0-.12ZM112,80.78h-1.12a10.44,10.44,0,0,1-1.87-.09c-.21,0-.31-.22-.31-.5a1.6,1.6,0,0,1,.58-1A2.61,2.61,0,0,0,110,78a16.44,16.44,0,0,0,.16-3.09A16.82,16.82,0,0,0,110,72a1.37,1.37,0,0,0-.81-.77c-.45-.22-.67-.48-.67-.78s.21-.52.62-.66a9.92,9.92,0,0,1,3.12-.47h.17a.69.69,0,0,1,.79.57c0,.22.06,1.54.06,4a28.22,28.22,0,0,0,.16,4.23,3.29,3.29,0,0,0,.81,1.31q.66.69.66.87v.14c0,.28-1,.42-3,.42Zm10.19-10.31a4.33,4.33,0,0,1,2.33-.94,1.68,1.68,0,0,1,1.31.41,1.52,1.52,0,0,1,.35,1,1.75,1.75,0,0,1-.32,1,.87.87,0,0,1-.7.45,3,3,0,0,1-1.09-.3A2.83,2.83,0,0,0,123,71.8a1.34,1.34,0,0,0-.84.4,2.22,2.22,0,0,0-.66,1.14,10.76,10.76,0,0,0-.18,2.32,5.84,5.84,0,0,0,.22,2,5.71,5.71,0,0,0,.92,1.21,2.14,2.14,0,0,1,.69,1.24c0,.37-.91.56-2.72.56h-2.53c-.82,0-1.23-.18-1.23-.53a1.48,1.48,0,0,1,.61-1.07,2.43,2.43,0,0,0,.76-1,17.19,17.19,0,0,0,.13-3,15.45,15.45,0,0,0-.16-3.06,1.56,1.56,0,0,0-.76-.86c-.41-.24-.61-.49-.61-.75s.27-.61.81-.76a8.64,8.64,0,0,1,2.21-.33,2.68,2.68,0,0,1,1.33.22,1.46,1.46,0,0,1,.33.6c.12.33.26.5.42.5a1.27,1.27,0,0,0,.45-.21Zm31.66,9.18c0,.73-1,1.1-3.12,1.1a2.91,2.91,0,0,1-1.41-.24.93.93,0,0,1-.39-.84l.16-.76a21.19,21.19,0,0,0,.22-3.61,8.24,8.24,0,0,0-.41-3.22,1.64,1.64,0,0,0-1.62-.8,1.61,1.61,0,0,0-.9.33,1.93,1.93,0,0,0-.72.87,9.72,9.72,0,0,0-.24,2.85,15,15,0,0,0,.13,2.74,3.74,3.74,0,0,0,.61,1.05,1.87,1.87,0,0,1,.47,1c0,.23-.15.4-.45.5a9.9,9.9,0,0,1-2.38.16,6.47,6.47,0,0,1-2.23-.2.81.81,0,0,1-.3-.73,1.64,1.64,0,0,1,.39-.69,2.51,2.51,0,0,0,.51-.94,17.94,17.94,0,0,0,.11-2.71,9.26,9.26,0,0,0-.38-3.19,1.37,1.37,0,0,0-1.37-.89,2.06,2.06,0,0,0-1.69.92,2.79,2.79,0,0,0-.49,1.76c0,.75,0,1.63.11,2.63a19.43,19.43,0,0,0,.23,2.12,4.88,4.88,0,0,1,.13,1,.72.72,0,0,1-.37.66,4.29,4.29,0,0,1-1.79.23q-2.73,0-2.73-1a1.69,1.69,0,0,1,.53-.91A3,3,0,0,0,135,78a21.6,21.6,0,0,0,.07-2.58,11.41,11.41,0,0,0-.3-3.2,5.19,5.19,0,0,0-.47-.83,2,2,0,0,1-.38-.92c0-.3.25-.52.75-.67a8.33,8.33,0,0,1,2.39-.4,1.31,1.31,0,0,1,.82.5c.32.33.52.5.61.5l.38-.21c.46-.27.76-.43.89-.5a4.9,4.9,0,0,1,2.05-.49,3.68,3.68,0,0,1,1.43.21,5.86,5.86,0,0,1,1,.61,1.68,1.68,0,0,0,.82.4,6,6,0,0,0,1.53-.57,5.47,5.47,0,0,1,2.32-.58A3,3,0,0,1,151.84,71q.61,1.13.61,6a4.7,4.7,0,0,0,.14,1.5,2.11,2.11,0,0,0,.68.66c.37.25.55.44.55.55Zm2.85-14.16a1.47,1.47,0,0,1,.54-1.15,1.72,1.72,0,0,1,1.16-.47h.37l.3,0a1.3,1.3,0,0,1,1,.51,1.47,1.47,0,0,1,.43,1v.31a1.49,1.49,0,0,0,0,.17,1.31,1.31,0,0,1-.56,1,1.85,1.85,0,0,1-1.22.47h-.36a1.67,1.67,0,0,1-1.14-.42,1.27,1.27,0,0,1-.47-1l0-.12Zm2.24,15.29h-1.12a10.44,10.44,0,0,1-1.87-.09c-.21,0-.32-.22-.32-.5a1.62,1.62,0,0,1,.59-1,2.61,2.61,0,0,0,.74-1.18,17.86,17.86,0,0,0,.15-3.09A18.62,18.62,0,0,0,157,72a1.37,1.37,0,0,0-.81-.77c-.45-.22-.68-.48-.68-.78s.21-.52.63-.66a9.9,9.9,0,0,1,3.11-.47h.18a.69.69,0,0,1,.79.57c0,.22.06,1.54.06,4a30.63,30.63,0,0,0,.15,4.23,3.22,3.22,0,0,0,.82,1.31q.66.69.66.87v.14c0,.28-1,.42-3,.42Zm18.18-.87c0,.29-.24.51-.71.64a9.43,9.43,0,0,1-2.39.21,4.64,4.64,0,0,1-2-.24.66.66,0,0,1-.33-.55,2.72,2.72,0,0,1,.3-1,4.61,4.61,0,0,0,.37-1,26,26,0,0,0,.07-2.71,8.49,8.49,0,0,0-.39-3.14,1.55,1.55,0,0,0-1.55-.84,2.2,2.2,0,0,0-1.87,1,4.46,4.46,0,0,0-.48,2.45,12.74,12.74,0,0,0,.54,4.33,3.82,3.82,0,0,1,.33,1c0,.3-.18.49-.54.56a15.55,15.55,0,0,1-2.34.11,5.57,5.57,0,0,1-2.19-.24.74.74,0,0,1-.37-.65c0-.27.21-.55.62-.82a1.55,1.55,0,0,0,.71-.75,27.46,27.46,0,0,0,.08-3,13.9,13.9,0,0,0-.18-3.11,3.65,3.65,0,0,0-.7-1l-.53-.61v-.25c0-.13.1-.25.29-.36a6.28,6.28,0,0,1,3-.59,1.11,1.11,0,0,1,.94.55c.26.37.45.55.56.55a2.57,2.57,0,0,0,.83-.38c.43-.25.67-.39.71-.4a4.22,4.22,0,0,1,1.75-.44h.38A3.07,3.07,0,0,1,175,70.84c.37.71.56,2.42.56,5.13a11.06,11.06,0,0,0,.14,2.48,1.91,1.91,0,0,0,.77.7c.42.27.63.52.63.76Zm7.15-.63h.2a1.77,1.77,0,0,0,1.59-.81,5.57,5.57,0,0,0,.35-2.48V74.35a6.31,6.31,0,0,0-.42-2.78,1.7,1.7,0,0,0-1.62-.74h-.1a2.15,2.15,0,0,0-1.82,1.11,4.84,4.84,0,0,0-.74,2.73v.76a4.78,4.78,0,0,0,.57,2.47A2.35,2.35,0,0,0,184.24,79.28Zm1.7-9.79c.37,0,.56-.42.56-1.27a3.69,3.69,0,0,0-.9-2.86c-.45-.39-.67-.64-.67-.76s.37-.5,1.11-.73a6.48,6.48,0,0,1,2-.36,2.33,2.33,0,0,1,1.18.2,1.31,1.31,0,0,1,.37.87q.1.67.1,6.52t.13,6.61a2.51,2.51,0,0,0,.49,1.19,2.76,2.76,0,0,0,.44.34c.29.21.43.38.43.51V80a.53.53,0,0,1-.24.37,5.22,5.22,0,0,1-3,.59,1.11,1.11,0,0,1-.94-.42,2.64,2.64,0,0,0-.36-.42,2.25,2.25,0,0,0-.76.29,5,5,0,0,1-2.33.68h-.34a3.88,3.88,0,0,1-1.7-.4A4.69,4.69,0,0,1,179,77.82a6,6,0,0,1-.37-2.08v-.38a6.53,6.53,0,0,1,.49-2.54,5,5,0,0,1,5-3.42c.6,0,1,0,1.07,0l.24,0,.47,0ZM199.33,71l-.26-.18a.57.57,0,0,1-.26-.51q0-.33.63-.66a2.71,2.71,0,0,0,.77-.53A4.82,4.82,0,0,0,200.7,68a5.73,5.73,0,0,1,.71-1.39,1.18,1.18,0,0,1,1-.49.93.93,0,0,1,.88.5,5.68,5.68,0,0,1,.31,1,2.09,2.09,0,0,0,.47,1.07,3.48,3.48,0,0,0,1,.53l.79.3a.92.92,0,0,1,.4.75c0,.25-.37.47-1.11.67a2.08,2.08,0,0,0-1.42.89,8.34,8.34,0,0,0-.32,3A8.06,8.06,0,0,0,203.8,78a1.28,1.28,0,0,0,1.22.72l.42,0a6,6,0,0,1,.62,0c.47,0,.71.18.71.54a1.24,1.24,0,0,1-.87,1.11,6.09,6.09,0,0,1-2.63.59,2.63,2.63,0,0,1-1.29-.36,2.78,2.78,0,0,1-1-.85,5,5,0,0,1-.67-2.83V76.6c0-.17,0-.37,0-.58v-.69a15.65,15.65,0,0,0-.33-3.47,1.42,1.42,0,0,0-.64-.88Zm14.81-.32h-.22a1.89,1.89,0,0,0-1.65,1.14,5.46,5.46,0,0,0-.64,2.73v.66a5.83,5.83,0,0,0,.74,3,2.1,2.1,0,0,0,1.77,1.23h.23a2,2,0,0,0,1.58-.92,4.05,4.05,0,0,0,.67-2.46l0-.25v-1a3.65,3.65,0,0,1,0-.38,4.67,4.67,0,0,0-.74-2.66,2.09,2.09,0,0,0-1.74-1.11Zm0-1.56h.59a5.2,5.2,0,0,1,2.15.49,5.26,5.26,0,0,1,2.9,3.06,6.36,6.36,0,0,1,.4,2.23v.21a6.11,6.11,0,0,1-.5,2.4,5.4,5.4,0,0,1-1.33,2,5.78,5.78,0,0,1-4,1.58H214a5.58,5.58,0,0,1-2.21-.46,4.9,4.9,0,0,1-1.78-1.2,5.91,5.91,0,0,1-1.5-4.13V75l0-.2a6.26,6.26,0,0,1,.41-2.16,5.29,5.29,0,0,1,2.84-3,5.6,5.6,0,0,1,2.36-.54Zm20.62,6.83c0-.35-.11-.53-.33-.53h-.3a2.53,2.53,0,0,1-.45.06,2.71,2.71,0,0,0-1.8.62,1.8,1.8,0,0,0-.73,1.41v.27a1.55,1.55,0,0,0,.38,1,1.17,1.17,0,0,0,.92.43h.37a2,2,0,0,0,1.33-.48,1.3,1.3,0,0,0,.55-.94,2.52,2.52,0,0,0,0-.31l0-.19v-.5l0-.19V76.1a.67.67,0,0,1,0-.17Zm4.78,3.72v.18c0,.27-.3.52-.89.75a5.72,5.72,0,0,1-2.09.34,1.6,1.6,0,0,1-1.28-.67c-.19-.25-.35-.37-.46-.37a1.1,1.1,0,0,0-.56.27,5,5,0,0,1-2.89.91l0,0a3.58,3.58,0,0,1-2.44-.79,2.81,2.81,0,0,1-.93-2.21q0-3.06,4.7-3.85A7.22,7.22,0,0,0,234,74a1.2,1.2,0,0,0,.68-1.25,1.94,1.94,0,0,0-.44-1.41,1.41,1.41,0,0,0-1-.43,2.13,2.13,0,0,0-1.68,1,2.16,2.16,0,0,1-1.75,1,1.14,1.14,0,0,1-.88-.32,1,1,0,0,1-.3-.67,1.84,1.84,0,0,1,1.08-1.64,7.7,7.7,0,0,1,3.81-1h.61a4.6,4.6,0,0,1,1.93.42A3.2,3.2,0,0,1,237.49,71a9.68,9.68,0,0,1,.5,3.93,15.8,15.8,0,0,0,.2,3.52,1.27,1.27,0,0,0,.77.69c.39.14.59.32.59.55Zm10.62-4.6,0-.65a4.33,4.33,0,0,0-.85-2.66,2,2,0,0,0-1.69-.86l-.09,0a1.84,1.84,0,0,0-1.6.81,2.91,2.91,0,0,0-.37,1.7l0,.23,0,1v1.06l0,.12v.57l0,.34,0,.45a2.21,2.21,0,0,0,.54,1.56,1.84,1.84,0,0,0,1.4.59h.22a2.22,2.22,0,0,0,1.91-1.28,5.44,5.44,0,0,0,.55-2.76v-.27Zm-4.44,7.33a2.64,2.64,0,0,0,.52,1.65l.51.51a1.16,1.16,0,0,1,.43.71c0,.25-.18.43-.53.52a11.33,11.33,0,0,1-2.25.14h-.3a11.24,11.24,0,0,1-2.45-.15c-.31-.11-.47-.27-.47-.49a4.86,4.86,0,0,1,.58-1,4.78,4.78,0,0,0,.71-1.87c0-.21.05-1.89.05-5s0-4.9-.1-5.23a1.63,1.63,0,0,0-.76-.94c-.43-.29-.64-.57-.64-.84s.18-.46.55-.59a9.3,9.3,0,0,1,2.91-.51.74.74,0,0,1,.54.17,2.68,2.68,0,0,1,.33.43c.11.17.22.26.33.26a1.7,1.7,0,0,0,.62-.26,9,9,0,0,1,1-.5,4.15,4.15,0,0,1,1.54-.24h.32a3.7,3.7,0,0,1,1.71.45,4.69,4.69,0,0,1,1.46,1.19,5.85,5.85,0,0,1,1.21,3.78A6.42,6.42,0,0,1,252,79a5,5,0,0,1-1.83,1.29,6.3,6.3,0,0,1-2.24.37l-.89-.09-.51-.06-.23,0c-.35,0-.53.62-.53,1.87Zm18.78-7.33,0-.65a4.33,4.33,0,0,0-.85-2.66,2,2,0,0,0-1.69-.86l-.09,0a1.84,1.84,0,0,0-1.6.81,2.91,2.91,0,0,0-.37,1.7l0,.23,0,1v1.06l0,.12v.57l0,.34,0,.45a2.21,2.21,0,0,0,.54,1.56,1.81,1.81,0,0,0,1.39.59h.22A2.22,2.22,0,0,0,264,78.08a5.44,5.44,0,0,0,.55-2.76v-.27Zm-4.44,7.33a2.64,2.64,0,0,0,.52,1.65l.51.51a1.16,1.16,0,0,1,.43.71c0,.25-.18.43-.53.52a11.33,11.33,0,0,1-2.25.14h-.3a11.24,11.24,0,0,1-2.45-.15c-.31-.11-.47-.27-.47-.49a4.86,4.86,0,0,1,.58-1,5,5,0,0,0,.72-1.87c0-.21,0-1.89,0-5s0-4.9-.1-5.23a1.63,1.63,0,0,0-.76-.94c-.43-.29-.64-.57-.64-.84s.18-.46.55-.59a9.36,9.36,0,0,1,2.92-.51.73.73,0,0,1,.53.17,2.69,2.69,0,0,1,.34.43c.11.17.21.26.32.26a1.7,1.7,0,0,0,.62-.26,9.23,9.23,0,0,1,1-.5,4.09,4.09,0,0,1,1.53-.24h.32a3.7,3.7,0,0,1,1.71.45,4.69,4.69,0,0,1,1.46,1.19,5.85,5.85,0,0,1,1.21,3.78A6.42,6.42,0,0,1,266.3,79a5,5,0,0,1-1.83,1.29,6.3,6.3,0,0,1-2.24.37l-.89-.09-.51-.06-.23,0c-.35,0-.53.62-.53,1.87Zm9.63-17.95c0-.28.2-.48.61-.61a10.79,10.79,0,0,1,3.17-.51q.9,0,1,.78,0,.19,0,6.3a64.76,64.76,0,0,0,.21,7.22,3.09,3.09,0,0,0,.56,1.51c.59.68.89,1,.89,1.06q0,.57-3.15.57h-.48a13.19,13.19,0,0,1-2.25-.1.42.42,0,0,1-.37-.44,2.1,2.1,0,0,1,.57-1.06,3.28,3.28,0,0,0,.73-1.5,57.77,57.77,0,0,0,.15-5.87,45.59,45.59,0,0,0-.16-5.64,1.83,1.83,0,0,0-.83-1C269.92,64.85,269.7,64.62,269.7,64.43Zm18.59,4.95c1.07,0,1.6.28,1.6.83a1.66,1.66,0,0,1-.53.89,5,5,0,0,0-.87,1.28q-.35.7-2.44,5.85a62.12,62.12,0,0,1-2.67,6.08,3.3,3.3,0,0,1-2.92,1.74,2.62,2.62,0,0,1-1.32-.36,1,1,0,0,1-.64-.9,1.16,1.16,0,0,1,.41-.9,1.54,1.54,0,0,1,1.07-.36,2.35,2.35,0,0,0,1.79-.74,2.32,2.32,0,0,0,.69-1.58,4.53,4.53,0,0,0-.41-1.78c-1.92-4.37-2.94-6.69-3.07-6.94a5.86,5.86,0,0,0-.88-1.15,2.17,2.17,0,0,1-.7-1.36c0-.39,1.09-.59,3.28-.59a5.37,5.37,0,0,1,1.46.13c.27.08.41.31.41.69a1.27,1.27,0,0,1-.16.55,1.52,1.52,0,0,0-.16.66,13.74,13.74,0,0,0,.57,2.18,18.41,18.41,0,0,0,1,2.67c.29.54.46.81.53.81.25,0,.77-1.12,1.55-3.37a6.94,6.94,0,0,0,.34-2.31,1.29,1.29,0,0,0-.19-.64,1.28,1.28,0,0,1-.19-.61.74.74,0,0,1,.27-.52,3.58,3.58,0,0,1,1.82-.25Zm18.56.21q2,0,2,2.34a9,9,0,0,0,1,3.67c.17.35.32.53.45.53s.57-.47.92-1.42a7.84,7.84,0,0,0,.54-2.79v-.38l-.08-.33v-.57a.92.92,0,0,1,.53-.85,4.05,4.05,0,0,1,1.8-.29c.85,0,1.28.24,1.28.73a1.57,1.57,0,0,1-.51.91A4.07,4.07,0,0,0,314,72.3c-.16.39-.33.86-.5,1.41s-.56,1.64-1.15,3.3-.92,2.56-1,2.69a1.73,1.73,0,0,1-1.59,1.08c-.42,0-.79-.3-1.11-.91-.12-.23-.52-1.19-1.2-2.86s-1.05-2.52-1.08-2.52A10.65,10.65,0,0,0,305.14,77c-.68,1.69-1.1,2.67-1.27,3a1.34,1.34,0,0,1-1.24.75c-.54,0-1-.4-1.44-1.19-.14-.27-.52-1.27-1.15-3S299,73.61,298.66,73a7.92,7.92,0,0,0-1-1.68,2.84,2.84,0,0,1-.55-.84.84.84,0,0,1,.34-.68,1.58,1.58,0,0,1,1-.28h.9q1.75,0,2.28.9a8.48,8.48,0,0,1,.41,1.85,19.33,19.33,0,0,0,.38,2c.36,1.15.7,1.73,1,1.73s.52-.38.79-1.15a7.23,7.23,0,0,0,.4-2.42V72l0-.4a1.84,1.84,0,0,1,.6-1.59A2.72,2.72,0,0,1,306.85,69.59ZM330.09,80c0,.37-.26.62-.78.73a11.67,11.67,0,0,1-2.25.17,5.72,5.72,0,0,1-1.89-.19.66.66,0,0,1-.44-.64,2.23,2.23,0,0,1,.31-.76,6.29,6.29,0,0,0,.42-1,17.12,17.12,0,0,0,.12-2.85,8.93,8.93,0,0,0-.41-3.32,1.55,1.55,0,0,0-1.56-.87,2.09,2.09,0,0,0-1.75.77,4.68,4.68,0,0,0-.61,2.81,19.82,19.82,0,0,0,.17,2.07,7.93,7.93,0,0,0,.47,2.12,6.1,6.1,0,0,1,.3.8c0,.35-.21.58-.63.67a14.67,14.67,0,0,1-2.8.2c-1.25,0-1.88-.19-1.88-.57a2.35,2.35,0,0,1,.55-1.18,3.17,3.17,0,0,0,.62-1.33c.05-.37.08-2.25.08-5.64a47.46,47.46,0,0,0-.16-5.7,1.92,1.92,0,0,0-.51-.94c-.56-.5-.84-.78-.84-.85a.72.72,0,0,1,.51-.69,7.39,7.39,0,0,1,2.87-.46,1.06,1.06,0,0,1,1.1.62,15.21,15.21,0,0,1,.15,3c0,1.75,0,2.68.05,2.79a.49.49,0,0,0,.48.41,2.31,2.31,0,0,0,.67-.23,6.35,6.35,0,0,1,2.61-.66,3.12,3.12,0,0,1,3,1.68,9.53,9.53,0,0,1,.64,4.14,16.32,16.32,0,0,0,.16,3.31,3,3,0,0,0,.69.9c.35.33.53.55.53.64Zm8.28-4c0-.35-.11-.53-.33-.53h-.31a2.34,2.34,0,0,1-.44.06,2.71,2.71,0,0,0-1.8.62,1.8,1.8,0,0,0-.73,1.41v.27a1.55,1.55,0,0,0,.38,1,1.15,1.15,0,0,0,.91.43h.38a2,2,0,0,0,1.33-.48,1.3,1.3,0,0,0,.55-.94,2.52,2.52,0,0,0,.05-.31l0-.19V76.1a1.49,1.49,0,0,1,0-.17Zm4.77,3.72v.18c0,.27-.29.52-.88.75a5.72,5.72,0,0,1-2.09.34,1.6,1.6,0,0,1-1.28-.67c-.2-.25-.35-.37-.46-.37a1.12,1.12,0,0,0-.57.27,5,5,0,0,1-2.89.91s0,0,0,0a3.61,3.61,0,0,1-2.45-.79,2.81,2.81,0,0,1-.93-2.21q0-3.06,4.71-3.85a7.22,7.22,0,0,0,1.35-.27,1.2,1.2,0,0,0,.68-1.25,1.94,1.94,0,0,0-.44-1.41,1.41,1.41,0,0,0-1-.43,2.1,2.1,0,0,0-1.68,1,2.16,2.16,0,0,1-1.75,1,1.18,1.18,0,0,1-.89-.32,1,1,0,0,1-.3-.67,1.84,1.84,0,0,1,1.08-1.64,7.7,7.7,0,0,1,3.81-1h.61a4.67,4.67,0,0,1,1.94.42A3.13,3.13,0,0,1,341.08,71a9.44,9.44,0,0,1,.51,3.93,16.14,16.14,0,0,0,.19,3.52,1.29,1.29,0,0,0,.78.69c.39.14.58.32.58.55ZM345,71l-.26-.18a.56.56,0,0,1-.25-.51c0-.22.21-.44.62-.66a2.71,2.71,0,0,0,.77-.53,4.82,4.82,0,0,0,.49-1.11,5.73,5.73,0,0,1,.71-1.39,1.18,1.18,0,0,1,1-.49.93.93,0,0,1,.88.5,5.68,5.68,0,0,1,.31,1,2.09,2.09,0,0,0,.47,1.07,3.48,3.48,0,0,0,1,.53l.79.3a.92.92,0,0,1,.4.75c0,.25-.37.47-1.11.67a2.08,2.08,0,0,0-1.42.89,8.34,8.34,0,0,0-.32,3A8,8,0,0,0,349.5,78a1.26,1.26,0,0,0,1.21.72l.42,0a6,6,0,0,1,.62,0c.47,0,.71.18.71.54a1.24,1.24,0,0,1-.87,1.11,6.09,6.09,0,0,1-2.63.59,2.63,2.63,0,0,1-1.29-.36,2.78,2.78,0,0,1-1-.85,5,5,0,0,1-.67-2.83V76.6c0-.17,0-.37,0-.58v-.69a15.65,15.65,0,0,0-.33-3.47A1.42,1.42,0,0,0,345,71Zm16.51-5.49a1.49,1.49,0,0,1,.53-1.15,1.76,1.76,0,0,1,1.16-.47h.38l.29,0a1.3,1.3,0,0,1,1,.51,1.47,1.47,0,0,1,.43,1v.31a1.49,1.49,0,0,0,0,.17,1.3,1.3,0,0,1-.55,1,1.88,1.88,0,0,1-1.23.47h-.36a1.63,1.63,0,0,1-1.13-.42,1.25,1.25,0,0,1-.48-1l0-.12Zm2.23,15.29h-1.12a10.44,10.44,0,0,1-1.87-.09c-.21,0-.31-.22-.31-.5a1.6,1.6,0,0,1,.58-1,2.61,2.61,0,0,0,.74-1.18,16.44,16.44,0,0,0,.16-3.09,16.82,16.82,0,0,0-.13-2.94,1.37,1.37,0,0,0-.81-.77c-.45-.22-.67-.48-.67-.78s.21-.52.62-.66a9.92,9.92,0,0,1,3.12-.47h.17a.69.69,0,0,1,.79.57c0,.22.06,1.54.06,4a28.22,28.22,0,0,0,.16,4.23,3.29,3.29,0,0,0,.81,1.31q.66.69.66.87v.14C366.72,80.64,365.73,80.78,363.76,80.78Zm18.18-.87c0,.29-.24.51-.71.64a9.39,9.39,0,0,1-2.38.21,4.66,4.66,0,0,1-2-.24.66.66,0,0,1-.33-.55,2.72,2.72,0,0,1,.3-1,4.61,4.61,0,0,0,.37-1,26,26,0,0,0,.07-2.71,8.49,8.49,0,0,0-.39-3.14,1.54,1.54,0,0,0-1.55-.84,2.17,2.17,0,0,0-1.86,1,4.36,4.36,0,0,0-.49,2.45A12.74,12.74,0,0,0,373.5,79a3.82,3.82,0,0,1,.33,1c0,.3-.18.49-.54.56a15.55,15.55,0,0,1-2.34.11,5.51,5.51,0,0,1-2.18-.24.75.75,0,0,1-.38-.65c0-.27.21-.55.62-.82s.66-.52.71-.75a27.46,27.46,0,0,0,.08-3,15,15,0,0,0-.17-3.11,3.94,3.94,0,0,0-.71-1l-.53-.61v-.25q0-.2.3-.36a6.24,6.24,0,0,1,3-.59,1.14,1.14,0,0,1,.95.55c.25.37.44.55.55.55a2.57,2.57,0,0,0,.83-.38l.71-.4a4.22,4.22,0,0,1,1.76-.44h.37a3.07,3.07,0,0,1,2.94,1.65c.37.71.56,2.42.56,5.13a10.13,10.13,0,0,0,.15,2.48,1.91,1.91,0,0,0,.77.7c.41.27.62.52.62.76Zm9.42-10.25a1.4,1.4,0,0,1,.53,1.3,4,4,0,0,1-.14,1.3.55.55,0,0,1-.55.32c-.44,0-.91-.32-1.42-1a2.34,2.34,0,0,0-1.91-1,1.53,1.53,0,0,0-1.05.34,1,1,0,0,0-.39.76,1.37,1.37,0,0,0,.69,1.17,16.66,16.66,0,0,0,2.11,1,7.76,7.76,0,0,1,2.55,1.54,3,3,0,0,1,.77,2.16A3,3,0,0,1,391.38,80a4.39,4.39,0,0,1-3,1h-.62a8.35,8.35,0,0,1-3.43-.54c-.53-.25-.79-.84-.79-1.78s.17-1.41.52-1.41,1,.36,1.67,1.09a2.88,2.88,0,0,0,2.15,1.09,2.27,2.27,0,0,0,1.2-.3,1,1,0,0,0,.49-.94,1.4,1.4,0,0,0-.69-1.14,13.07,13.07,0,0,0-2-1,8,8,0,0,1-2.28-1.34,3.12,3.12,0,0,1-1-2.36,2.83,2.83,0,0,1,1.19-2.33,4.43,4.43,0,0,1,2.8-.93h.32a7.57,7.57,0,0,1,3.42.52Zm4.22-4.17a1.47,1.47,0,0,1,.54-1.15,1.72,1.72,0,0,1,1.15-.47h.38l.29,0a1.28,1.28,0,0,1,1,.51,1.49,1.49,0,0,1,.44,1v.31a.67.67,0,0,0,0,.17,1.3,1.3,0,0,1-.55,1,1.85,1.85,0,0,1-1.22.47h-.37a1.67,1.67,0,0,1-1.13-.42,1.25,1.25,0,0,1-.48-1l0-.12Zm2.23,15.29H396.7a10.51,10.51,0,0,1-1.88-.09c-.21,0-.31-.22-.31-.5a1.62,1.62,0,0,1,.59-1,2.61,2.61,0,0,0,.74-1.18,17.86,17.86,0,0,0,.15-3.09,16.82,16.82,0,0,0-.13-2.94,1.34,1.34,0,0,0-.8-.77c-.45-.22-.68-.48-.68-.78s.21-.52.62-.66a9.92,9.92,0,0,1,3.12-.47h.18a.68.68,0,0,1,.78.57c0,.22.06,1.54.06,4A28.22,28.22,0,0,0,399.3,78a3.22,3.22,0,0,0,.82,1.31q.66.69.66.87v.14q0,.42-3,.42Zm11.28-8.07,0-.4a2.46,2.46,0,0,0-.48-1.54,1.44,1.44,0,0,0-1.15-.63h-.14a1.3,1.3,0,0,0-1.06.69,2.84,2.84,0,0,0-.46,1.63v.6a3.2,3.2,0,0,0,.54,1.89,1.46,1.46,0,0,0,1.17.77h.08a1.31,1.31,0,0,0,1.05-.59,2.12,2.12,0,0,0,.45-1.34v-.07l0-.08v-.93Zm.64,8.13a6.24,6.24,0,0,0-1-.09h-.1l-.08,0-.53,0h-.16l-.39,0h-.59l-.32,0a1.39,1.39,0,0,0-1,.5,1.68,1.68,0,0,0-.46,1.19v.25a1.33,1.33,0,0,0,.58,1.16,2.55,2.55,0,0,0,1.48.4h.52a4.33,4.33,0,0,0,2.63-.82,1.71,1.71,0,0,0,.7-1.46v-.08a1,1,0,0,0-.31-.68,1.31,1.31,0,0,0-1-.32Zm4-11.23.1.11a1,1,0,0,1,.11.6.72.72,0,0,1-.47.69,3.26,3.26,0,0,0-.84.45,2.05,2.05,0,0,0-.14.87v.31c0,.32,0,.55,0,.7a3.1,3.1,0,0,1-.39,1.49,4.67,4.67,0,0,1-3.9,2.37l-1.3.16c-.49.17-.74.41-.74.74a.61.61,0,0,0,.47.6,16.18,16.18,0,0,0,2.6.3,7.92,7.92,0,0,1,2.88.54,2.79,2.79,0,0,1,1.08.92,2.63,2.63,0,0,1,.34,1.46,3,3,0,0,1-.54,1.72,6,6,0,0,1-3.48,2.24,9.05,9.05,0,0,1-2.45.33h-.36a5.76,5.76,0,0,1-3.31-.8,2.36,2.36,0,0,1-1.15-2A2.48,2.48,0,0,1,402.8,82c.06-.09.23-.28.5-.58a1.21,1.21,0,0,0,.4-.68s-.14-.22-.42-.62a2,2,0,0,1-.42-1.19,2.5,2.5,0,0,1,.63-1.42,4.26,4.26,0,0,0,.64-.93,3.11,3.11,0,0,0-.63-.79,4.33,4.33,0,0,1-.89-1.72,2.74,2.74,0,0,1-.09-.7v-.08a3.61,3.61,0,0,1,.27-1.35,3.43,3.43,0,0,1,1.44-1.74,6,6,0,0,1,3.2-.86h.35l1.39.09.63.07.62.06,2.55-.14a1.06,1.06,0,0,1,.77.23ZM428.93,80c0,.37-.26.62-.79.73a11.55,11.55,0,0,1-2.24.17,5.79,5.79,0,0,1-1.9-.19.65.65,0,0,1-.43-.64,2.35,2.35,0,0,1,.3-.76,5.6,5.6,0,0,0,.43-1,17.12,17.12,0,0,0,.12-2.85,8.67,8.67,0,0,0-.42-3.32,1.55,1.55,0,0,0-1.55-.87,2.12,2.12,0,0,0-1.76.77,4.77,4.77,0,0,0-.6,2.81,19.17,19.17,0,0,0,.16,2.07,8.34,8.34,0,0,0,.47,2.12,5.47,5.47,0,0,1,.31.8c0,.35-.21.58-.64.67a14.6,14.6,0,0,1-2.8.2c-1.25,0-1.87-.19-1.87-.57a2.4,2.4,0,0,1,.54-1.18,3.08,3.08,0,0,0,.63-1.33c.05-.37.07-2.25.07-5.64a47.46,47.46,0,0,0-.16-5.7,1.78,1.78,0,0,0-.51-.94c-.55-.5-.83-.78-.83-.85a.72.72,0,0,1,.5-.69,7.39,7.39,0,0,1,2.87-.46,1.07,1.07,0,0,1,1.11.62,15.21,15.21,0,0,1,.15,3c0,1.75,0,2.68.05,2.79a.47.47,0,0,0,.48.41,2.52,2.52,0,0,0,.67-.23,6.28,6.28,0,0,1,2.61-.66,3.12,3.12,0,0,1,3,1.68,9.72,9.72,0,0,1,.63,4.14,15.91,15.91,0,0,0,.17,3.31,3,3,0,0,0,.69.9C428.75,79.67,428.93,79.89,428.93,80Zm1.94-9-.26-.18a.57.57,0,0,1-.26-.51c0-.22.21-.44.62-.66a2.66,2.66,0,0,0,.78-.53,6,6,0,0,0,.49-1.11A5.39,5.39,0,0,1,433,66.6a1.18,1.18,0,0,1,1-.49.93.93,0,0,1,.88.5,5.68,5.68,0,0,1,.31,1,2.1,2.1,0,0,0,.46,1.07,3.57,3.57,0,0,0,1,.53l.79.3a.92.92,0,0,1,.4.75c0,.25-.37.47-1.12.67a2.08,2.08,0,0,0-1.42.89,8.42,8.42,0,0,0-.31,3,8.06,8.06,0,0,0,.37,3.11,1.27,1.27,0,0,0,1.22.72l.42,0a5.79,5.79,0,0,1,.61,0q.72,0,.72.54a1.24,1.24,0,0,1-.87,1.11,6.13,6.13,0,0,1-2.63.59,2.66,2.66,0,0,1-1.3-.36,2.75,2.75,0,0,1-1-.85,5,5,0,0,1-.67-2.83l0-.24c0-.17,0-.37,0-.58v-.69a15.65,15.65,0,0,0-.33-3.47,1.37,1.37,0,0,0-.63-.88Zm17-1.32a1.4,1.4,0,0,1,.53,1.3,4,4,0,0,1-.14,1.3.55.55,0,0,1-.55.32c-.44,0-.91-.32-1.42-1a2.34,2.34,0,0,0-1.91-1,1.48,1.48,0,0,0-1,.34,1,1,0,0,0-.39.76,1.39,1.39,0,0,0,.68,1.17,16.66,16.66,0,0,0,2.11,1,7.76,7.76,0,0,1,2.55,1.54,3,3,0,0,1,.77,2.16A3.06,3.06,0,0,1,447.94,80a4.43,4.43,0,0,1-3,1h-.62a8.33,8.33,0,0,1-3.42-.54c-.53-.25-.8-.84-.8-1.78s.18-1.41.53-1.41,1,.36,1.66,1.09a2.89,2.89,0,0,0,2.16,1.09,2.24,2.24,0,0,0,1.19-.3,1,1,0,0,0,.49-.94,1.42,1.42,0,0,0-.68-1.14,13.63,13.63,0,0,0-2-1,8,8,0,0,1-2.29-1.34,3.12,3.12,0,0,1-1-2.36,2.82,2.82,0,0,1,1.2-2.33,4.43,4.43,0,0,1,2.8-.93h.31a7.57,7.57,0,0,1,3.42.52ZM457.28,71,457,70.8a.57.57,0,0,1-.26-.51q0-.33.63-.66a2.71,2.71,0,0,0,.77-.53,4.82,4.82,0,0,0,.49-1.11,5.73,5.73,0,0,1,.71-1.39,1.18,1.18,0,0,1,1-.49.93.93,0,0,1,.88.5,5.68,5.68,0,0,1,.31,1,2.09,2.09,0,0,0,.47,1.07,3.48,3.48,0,0,0,1,.53l.79.3a.92.92,0,0,1,.4.75c0,.25-.37.47-1.11.67a2.08,2.08,0,0,0-1.42.89,8.34,8.34,0,0,0-.32,3,8.06,8.06,0,0,0,.37,3.11,1.27,1.27,0,0,0,1.22.72l.42,0a6,6,0,0,1,.62,0c.47,0,.71.18.71.54a1.24,1.24,0,0,1-.87,1.11,6.09,6.09,0,0,1-2.63.59,2.63,2.63,0,0,1-1.29-.36,2.78,2.78,0,0,1-1-.85,5,5,0,0,1-.67-2.83V76.6c0-.17,0-.37,0-.58v-.69a15.65,15.65,0,0,0-.33-3.47,1.42,1.42,0,0,0-.64-.88Zm22.43,9c0,.37-.26.62-.79.73a11.48,11.48,0,0,1-2.24.17,5.79,5.79,0,0,1-1.9-.19.65.65,0,0,1-.43-.64,2.23,2.23,0,0,1,.31-.76,6.29,6.29,0,0,0,.42-1,17.12,17.12,0,0,0,.12-2.85,8.67,8.67,0,0,0-.42-3.32,1.55,1.55,0,0,0-1.55-.87,2.09,2.09,0,0,0-1.75.77,4.68,4.68,0,0,0-.61,2.81,19.82,19.82,0,0,0,.17,2.07,7.93,7.93,0,0,0,.47,2.12,6.1,6.1,0,0,1,.3.8c0,.35-.21.58-.63.67a14.79,14.79,0,0,1-2.81.2c-1.25,0-1.87-.19-1.87-.57A2.4,2.4,0,0,1,467,79a3.08,3.08,0,0,0,.63-1.33c.05-.37.07-2.25.07-5.64a51.5,51.5,0,0,0-.15-5.7,1.86,1.86,0,0,0-.52-.94c-.55-.5-.83-.78-.83-.85a.72.72,0,0,1,.5-.69,7.42,7.42,0,0,1,2.87-.46,1.07,1.07,0,0,1,1.11.62,15.21,15.21,0,0,1,.15,3c0,1.75,0,2.68.05,2.79a.49.49,0,0,0,.48.41,2.52,2.52,0,0,0,.67-.23,6.28,6.28,0,0,1,2.61-.66,3.12,3.12,0,0,1,3,1.68,9.72,9.72,0,0,1,.63,4.14,15.91,15.91,0,0,0,.17,3.31,3,3,0,0,0,.69.9C479.53,79.67,479.71,79.89,479.71,80ZM487,70.71h-.34a1.93,1.93,0,0,0-1.42.77,2.69,2.69,0,0,0-.67,1.84v.19c0,.29.16.43.48.43l.12,0H486l2-.11a1.12,1.12,0,0,1,.24,0,.54.54,0,0,0,.6-.62v-.39a2.12,2.12,0,0,0-.57-1.44,1.66,1.66,0,0,0-1.29-.64Zm-2.29,5.59a2.53,2.53,0,0,0,1.1,2,3.31,3.31,0,0,0,2.1.64,6.83,6.83,0,0,0,1.71-.33,9.63,9.63,0,0,1,1.31-.32c.35,0,.53.19.53.57s-.47.91-1.41,1.38a6.37,6.37,0,0,1-2.91.7h-.57a5.21,5.21,0,0,1-1.94-.39A4.8,4.8,0,0,1,481.8,78a6.24,6.24,0,0,1-.56-2.46V75a6.62,6.62,0,0,1,.41-2.29,5.17,5.17,0,0,1,2.74-3,5.81,5.81,0,0,1,2.47-.54h.27a4.67,4.67,0,0,1,3.23,1.19,4.43,4.43,0,0,1,1.06,1.53,4.62,4.62,0,0,1,.37,1.81,1.18,1.18,0,0,1-.9,1.22,18,18,0,0,1-4.7.41,2.29,2.29,0,0,0-1.23.23.91.91,0,0,0-.3.78ZM504,69.38c1.07,0,1.6.28,1.6.83,0,.21-.18.5-.54.89a5.26,5.26,0,0,0-.87,1.28c-.22.47-1,2.42-2.43,5.85s-2.29,5.45-2.67,6.08a3.3,3.3,0,0,1-2.92,1.74,2.69,2.69,0,0,1-1.33-.36,1,1,0,0,1-.63-.9,1.15,1.15,0,0,1,.4-.9,1.57,1.57,0,0,1,1.08-.36,2.37,2.37,0,0,0,1.79-.74,2.32,2.32,0,0,0,.69-1.58,4.53,4.53,0,0,0-.41-1.78c-1.92-4.37-2.94-6.69-3.07-6.94a6.5,6.5,0,0,0-.89-1.15,2.17,2.17,0,0,1-.7-1.36c0-.39,1.09-.59,3.28-.59a5.41,5.41,0,0,1,1.47.13c.27.08.4.31.4.69a1.27,1.27,0,0,1-.16.55,1.65,1.65,0,0,0-.15.66,13.74,13.74,0,0,0,.57,2.18,18.41,18.41,0,0,0,1,2.67c.28.54.46.81.53.81.25,0,.77-1.12,1.55-3.37A6.94,6.94,0,0,0,502,71.4a1.29,1.29,0,0,0-.19-.64,1.31,1.31,0,0,1-.2-.61.74.74,0,0,1,.27-.52,3.66,3.66,0,0,1,1.83-.25ZM42.29,105a2.36,2.36,0,0,0,.47,1.56,1.65,1.65,0,0,0,1.31.56h.54a2,2,0,0,0,1.62-1.1,5,5,0,0,0,.69-2.71v-.79a5.13,5.13,0,0,0-.71-2.86,2.07,2.07,0,0,0-1.75-1.07h-.2a1.7,1.7,0,0,0-1.61.8,7.84,7.84,0,0,0-.45,3.32V103l0,.12V104l0,.79a1.8,1.8,0,0,1,0,.22Zm-2.1,3.32a1.56,1.56,0,0,1-1.13-.3,1,1,0,0,1-.28-.73,15.45,15.45,0,0,1,.23-1.82,14.58,14.58,0,0,0,.22-1.94v-4c0-3,0-4.77-.11-5.21a1.59,1.59,0,0,0-.58-1c-.53-.43-.79-.71-.79-.85,0-.33.31-.57.93-.74a9.07,9.07,0,0,1,2.2-.36h.27a.94.94,0,0,1,1,.69,19,19,0,0,1,.11,2.74,25.09,25.09,0,0,0,.06,2.53.55.55,0,0,0,.61.41l.31-.11a7.35,7.35,0,0,1,2.39-.49,4.08,4.08,0,0,1,3.37,1.58,6,6,0,0,1,1.24,3.83v.29a5.9,5.9,0,0,1-.49,2.35,5.38,5.38,0,0,1-3,3.07,5.79,5.79,0,0,1-2.18.45h-.29a5.44,5.44,0,0,1-1.08-.16,7.36,7.36,0,0,0-1.48-.15l-.26,0-.53,0h-.27Zm17.68-9.94h-.34a1.91,1.91,0,0,0-1.41.77,2.7,2.7,0,0,0-.68,1.84v.19c0,.29.16.44.48.44l.12,0h.89l2-.12a1,1,0,0,1,.23,0,.54.54,0,0,0,.6-.62v-.39A2.15,2.15,0,0,0,59.17,99a1.7,1.7,0,0,0-1.3-.65ZM55.58,104a2.51,2.51,0,0,0,1.11,2,3.28,3.28,0,0,0,2.09.65,6.83,6.83,0,0,0,1.71-.33A8.86,8.86,0,0,1,61.8,106c.35,0,.53.19.53.58s-.47.91-1.41,1.38a6.37,6.37,0,0,1-2.91.7h-.57a5.28,5.28,0,0,1-1.94-.39,4.8,4.8,0,0,1-2.78-2.63,6.31,6.31,0,0,1-.56-2.46v-.54a6.58,6.58,0,0,1,.41-2.29,5.17,5.17,0,0,1,2.74-3,5.88,5.88,0,0,1,2.47-.54h.27A4.64,4.64,0,0,1,61.28,98a4.2,4.2,0,0,1,1.07,1.52,4.7,4.7,0,0,1,.37,1.82,1.19,1.19,0,0,1-.91,1.22,18,18,0,0,1-4.7.41,2.23,2.23,0,0,0-1.22.23.89.89,0,0,0-.31.78Zm8.83-11.87c0-.29.2-.49.61-.61A10.79,10.79,0,0,1,68.19,91q.9,0,1,.78,0,.18,0,6.3a69,69,0,0,0,.2,7.22,3.41,3.41,0,0,0,.56,1.51,12.33,12.33,0,0,1,.89,1.06c0,.37-1,.56-3.15.56h-.48a15.07,15.07,0,0,1-2.25-.09.43.43,0,0,1-.37-.44,2.1,2.1,0,0,1,.57-1.06,3.32,3.32,0,0,0,.73-1.51,53.08,53.08,0,0,0,.16-5.87,44.38,44.38,0,0,0-.17-5.64,1.81,1.81,0,0,0-.83-1C64.63,92.54,64.41,92.31,64.41,92.12Zm9.46,1A1.47,1.47,0,0,1,74.41,92a1.72,1.72,0,0,1,1.15-.47h.38a1.23,1.23,0,0,0,.29,0,1.3,1.3,0,0,1,1,.5,1.53,1.53,0,0,1,.44,1v.3c0,.08,0,.14,0,.18a1.3,1.3,0,0,1-.56,1,1.85,1.85,0,0,1-1.22.47h-.36a1.72,1.72,0,0,1-1.14-.41,1.27,1.27,0,0,1-.47-1l0-.12Zm2.24,15.3H75a10.59,10.59,0,0,1-1.88-.09c-.21-.06-.31-.23-.31-.51a1.63,1.63,0,0,1,.59-1,2.66,2.66,0,0,0,.74-1.18,18,18,0,0,0,.15-3.09,17.06,17.06,0,0,0-.13-2.95,1.34,1.34,0,0,0-.8-.77c-.45-.21-.68-.47-.68-.77s.21-.53.63-.67A9.9,9.9,0,0,1,76.41,97h.18a.68.68,0,0,1,.78.58c0,.22.06,1.53.06,3.94a28.22,28.22,0,0,0,.16,4.23,3.16,3.16,0,0,0,.82,1.31q.66.7.66.87V108C79.07,108.33,78.08,108.47,76.11,108.47ZM86.34,98.39H86a1.91,1.91,0,0,0-1.41.77,2.7,2.7,0,0,0-.68,1.84v.19c0,.29.16.44.48.44l.12,0h.89l2-.12a1,1,0,0,1,.23,0,.54.54,0,0,0,.6-.62v-.39A2.15,2.15,0,0,0,87.64,99a1.7,1.7,0,0,0-1.3-.65ZM84.05,104a2.51,2.51,0,0,0,1.11,2,3.28,3.28,0,0,0,2.09.65,6.83,6.83,0,0,0,1.71-.33,8.86,8.86,0,0,1,1.31-.33c.35,0,.53.19.53.58s-.47.91-1.41,1.38a6.37,6.37,0,0,1-2.91.7h-.57a5.28,5.28,0,0,1-1.94-.39,4.79,4.79,0,0,1-2.77-2.63,6.16,6.16,0,0,1-.57-2.46v-.54a6.58,6.58,0,0,1,.41-2.29,5.17,5.17,0,0,1,2.74-3,5.88,5.88,0,0,1,2.47-.54h.27A4.64,4.64,0,0,1,89.75,98a4.2,4.2,0,0,1,1.07,1.52,4.7,4.7,0,0,1,.37,1.82,1.19,1.19,0,0,1-.91,1.22,18,18,0,0,1-4.7.41,2.23,2.23,0,0,0-1.22.23.89.89,0,0,0-.31.78Zm16.79-6.35c0-.37.88-.55,2.65-.55,1.09,0,1.64.22,1.64.67,0,.3-.23.66-.7,1.07a4.55,4.55,0,0,0-1,1.34s-.51,1.24-1.52,3.69a35.06,35.06,0,0,1-1.9,4.21,1.39,1.39,0,0,1-1.2.56,1.43,1.43,0,0,1-1.24-.63,33.78,33.78,0,0,1-1.82-4.07c-.92-2.29-1.49-3.63-1.7-4A4.2,4.2,0,0,0,93,98.68c-.49-.41-.74-.72-.74-.92v-.22c0-.3,1-.45,3.13-.45h.57a4.53,4.53,0,0,1,1.53.15.5.5,0,0,1,.31.49,1.27,1.27,0,0,1-.18.64,1.57,1.57,0,0,0-.17.73,14.86,14.86,0,0,0,1.56,5c.22.49.37.73.46.73s.23-.25.44-.76a15.32,15.32,0,0,0,1.46-4.77,1.94,1.94,0,0,0-.25-.86,2,2,0,0,1-.24-.81Zm11,.75h-.34a1.91,1.91,0,0,0-1.41.77,2.7,2.7,0,0,0-.68,1.84v.19c0,.29.16.44.48.44l.12,0h.89l2-.12a1,1,0,0,1,.23,0,.54.54,0,0,0,.6-.62v-.39a2.15,2.15,0,0,0-.56-1.43,1.7,1.7,0,0,0-1.3-.65ZM109.5,104a2.51,2.51,0,0,0,1.11,2,3.28,3.28,0,0,0,2.09.65,6.83,6.83,0,0,0,1.71-.33,8.86,8.86,0,0,1,1.31-.33c.35,0,.53.19.53.58s-.47.91-1.41,1.38a6.37,6.37,0,0,1-2.91.7h-.57a5.28,5.28,0,0,1-1.94-.39,4.8,4.8,0,0,1-2.78-2.63,6.31,6.31,0,0,1-.56-2.46v-.54a6.58,6.58,0,0,1,.41-2.29,5.17,5.17,0,0,1,2.74-3,5.88,5.88,0,0,1,2.47-.54H112A4.64,4.64,0,0,1,115.2,98a4.2,4.2,0,0,1,1.07,1.52,4.7,4.7,0,0,1,.37,1.82,1.19,1.19,0,0,1-.91,1.22,18,18,0,0,1-4.7.41,2.23,2.23,0,0,0-1.22.23.89.89,0,0,0-.31.78Zm15.44-5.33-.26-.17a.59.59,0,0,1-.26-.51c0-.23.21-.45.62-.67a3,3,0,0,0,.78-.53,5.62,5.62,0,0,0,.48-1.1,5.36,5.36,0,0,1,.72-1.39,1.16,1.16,0,0,1,1-.49.92.92,0,0,1,.88.49,5.36,5.36,0,0,1,.32,1.06,2.19,2.19,0,0,0,.46,1.07,3.89,3.89,0,0,0,1,.52l.78.3a.92.92,0,0,1,.4.75c0,.25-.37.48-1.11.67a2.12,2.12,0,0,0-1.42.9,8.39,8.39,0,0,0-.31,3,8.16,8.16,0,0,0,.37,3.12,1.26,1.26,0,0,0,1.21.72l.43,0,.61,0q.72,0,.72.54a1.24,1.24,0,0,1-.87,1.1,6.14,6.14,0,0,1-2.64.59,3,3,0,0,1-2.28-1.21,5,5,0,0,1-.67-2.82v-.25c0-.17,0-.36,0-.57V103a15.61,15.61,0,0,0-.33-3.46,1.49,1.49,0,0,0-.63-.89Zm14.81-.31h-.23a1.89,1.89,0,0,0-1.65,1.14,5.44,5.44,0,0,0-.64,2.72v.66a5.8,5.8,0,0,0,.74,3,2.1,2.1,0,0,0,1.78,1.24H140a1.94,1.94,0,0,0,1.58-.93,4.06,4.06,0,0,0,.68-2.46l0-.24v-1c0-.17,0-.3,0-.38a4.73,4.73,0,0,0-.74-2.67,2.1,2.1,0,0,0-1.74-1.1Zm0-1.57h.59a5.59,5.59,0,0,1,5,3.55,6.42,6.42,0,0,1,.4,2.24v.21a6.18,6.18,0,0,1-.5,2.4,5.69,5.69,0,0,1-1.32,1.95,5.78,5.78,0,0,1-4,1.57h-.35a5.79,5.79,0,0,1-2.22-.45,4.8,4.8,0,0,1-1.78-1.21,5.91,5.91,0,0,1-1.49-4.12v-.4a6.32,6.32,0,0,1,.41-2.17,5.37,5.37,0,0,1,2.85-3,5.53,5.53,0,0,1,2.36-.54Zm18.1,8.23a2.31,2.31,0,0,0,.48,1.56,1.62,1.62,0,0,0,1.31.56h.54a1.93,1.93,0,0,0,1.61-1.1,5,5,0,0,0,.69-2.71v-.79a5.13,5.13,0,0,0-.71-2.86A2.06,2.06,0,0,0,160,98.6h-.2a1.68,1.68,0,0,0-1.61.8,7.84,7.84,0,0,0-.45,3.32V104l0,.79a1.7,1.7,0,0,1,0,.22Zm-2.09,3.32a1.59,1.59,0,0,1-1.14-.3,1,1,0,0,1-.27-.73,14.65,14.65,0,0,1,.22-1.82,14.58,14.58,0,0,0,.22-1.94l0-.28V99.5c0-3,0-4.77-.12-5.21a1.59,1.59,0,0,0-.58-1c-.52-.43-.78-.71-.78-.85,0-.33.31-.57.93-.74a9.07,9.07,0,0,1,2.19-.36h.27a.94.94,0,0,1,1,.69,16.94,16.94,0,0,1,.12,2.74,25.09,25.09,0,0,0,.06,2.53c.06.27.26.41.61.41l.3-.11a7.35,7.35,0,0,1,2.39-.49,4.07,4.07,0,0,1,3.37,1.58,6,6,0,0,1,1.25,3.83v.29a5.9,5.9,0,0,1-.49,2.35,5.41,5.41,0,0,1-3,3.07,5.88,5.88,0,0,1-2.19.45h-.28a5.44,5.44,0,0,1-1.08-.16,7.36,7.36,0,0,0-1.48-.15l-.26,0-.53,0h-.27ZM173.4,98.16a4.33,4.33,0,0,1,2.33-.94,1.68,1.68,0,0,1,1.31.41,1.48,1.48,0,0,1,.35,1,1.79,1.79,0,0,1-.32,1,.87.87,0,0,1-.7.45,2.9,2.9,0,0,1-1.09-.31,3,3,0,0,0-1.07-.3,1.34,1.34,0,0,0-.84.4,2.22,2.22,0,0,0-.66,1.14,10.76,10.76,0,0,0-.18,2.32,5.77,5.77,0,0,0,.22,2,5.71,5.71,0,0,0,.92,1.22,2.09,2.09,0,0,1,.69,1.23c0,.38-.91.57-2.72.57h-1.77l-.24,0h-.52c-.82,0-1.23-.18-1.23-.53a1.48,1.48,0,0,1,.61-1.07,2.41,2.41,0,0,0,.76-1,17.34,17.34,0,0,0,.13-3,15.25,15.25,0,0,0-.16-3,1.61,1.61,0,0,0-.76-.87c-.41-.24-.61-.49-.61-.75s.27-.61.81-.76a8.64,8.64,0,0,1,2.21-.33,2.68,2.68,0,0,1,1.33.22,1.51,1.51,0,0,1,.32.6c.13.34.27.51.43.51a1.27,1.27,0,0,0,.45-.21Zm6.76-5a1.49,1.49,0,0,1,.53-1.15,1.76,1.76,0,0,1,1.16-.47h.38a1.11,1.11,0,0,0,.29,0,1.3,1.3,0,0,1,1,.5,1.53,1.53,0,0,1,.44,1v.3a.82.82,0,0,0,0,.18,1.28,1.28,0,0,1-.55,1,1.85,1.85,0,0,1-1.22.47h-.37a1.71,1.71,0,0,1-1.13-.41,1.25,1.25,0,0,1-.48-1l0-.12Zm2.23,15.3h-1.11a10.51,10.51,0,0,1-1.88-.09c-.21-.06-.31-.23-.31-.51a1.63,1.63,0,0,1,.59-1,2.66,2.66,0,0,0,.74-1.18,18,18,0,0,0,.15-3.09,17.06,17.06,0,0,0-.13-2.95,1.34,1.34,0,0,0-.8-.77c-.45-.21-.68-.47-.68-.77s.21-.53.62-.67A9.92,9.92,0,0,1,182.7,97h.18a.68.68,0,0,1,.78.58c0,.22.06,1.53.06,3.94a28.22,28.22,0,0,0,.16,4.23,3.16,3.16,0,0,0,.82,1.31q.66.7.66.87V108c0,.29-1,.43-3,.43Zm18.19-.87c0,.29-.24.5-.71.64a10.06,10.06,0,0,1-2.39.2,4.88,4.88,0,0,1-2-.23.69.69,0,0,1-.33-.56,2.73,2.73,0,0,1,.3-1,4.83,4.83,0,0,0,.37-1.06,25.85,25.85,0,0,0,.07-2.7,8.25,8.25,0,0,0-.4-3.15,1.53,1.53,0,0,0-1.54-.84,2.2,2.2,0,0,0-1.87,1,4.5,4.5,0,0,0-.48,2.46,12.64,12.64,0,0,0,.54,4.32,3.74,3.74,0,0,1,.33,1c0,.3-.18.49-.54.56a15.62,15.62,0,0,1-2.35.11,5.54,5.54,0,0,1-2.18-.24.75.75,0,0,1-.38-.65c0-.28.21-.56.63-.83s.65-.52.7-.74a23.92,23.92,0,0,0,.09-3,13.78,13.78,0,0,0-.18-3.1,3.82,3.82,0,0,0-.71-1.06c-.35-.39-.53-.6-.53-.61V98c0-.13.1-.26.3-.37a6.24,6.24,0,0,1,3-.59,1.12,1.12,0,0,1,.95.56c.25.37.44.55.56.55a2.77,2.77,0,0,0,.83-.38l.71-.41a4.19,4.19,0,0,1,1.75-.43h.38a3.07,3.07,0,0,1,2.93,1.64c.38.71.57,2.43.57,5.14a11.13,11.13,0,0,0,.14,2.48,1.91,1.91,0,0,0,.77.7c.42.26.63.51.63.76Zm8.16-7.21,0-.4a2.4,2.4,0,0,0-.49-1.53,1.4,1.4,0,0,0-1.14-.63h-.14a1.3,1.3,0,0,0-1.06.69,2.78,2.78,0,0,0-.46,1.62v.6a3.23,3.23,0,0,0,.54,1.9,1.45,1.45,0,0,0,1.17.76h.08a1.3,1.3,0,0,0,1-.58,2.15,2.15,0,0,0,.45-1.35v-.07l0-.08v-.93Zm.64,8.14a5.33,5.33,0,0,0-1-.1h-.18l-.53,0h-.16l-.39,0h-.59l-.32,0a1.38,1.38,0,0,0-1,.49,1.68,1.68,0,0,0-.46,1.2v.24a1.31,1.31,0,0,0,.58,1.16,2.54,2.54,0,0,0,1.48.41h.52a4.33,4.33,0,0,0,2.63-.82,1.71,1.71,0,0,0,.7-1.46v-.08a1,1,0,0,0-.32-.69,1.28,1.28,0,0,0-1-.31Zm4-11.24.1.12a1,1,0,0,1,.11.6.72.72,0,0,1-.47.69,2.68,2.68,0,0,0-.84.45,1.88,1.88,0,0,0-.15.87l0,.3c0,.32,0,.56,0,.71a3.13,3.13,0,0,1-.39,1.49,4.66,4.66,0,0,1-3.9,2.36l-1.3.17c-.49.16-.74.41-.74.74a.6.6,0,0,0,.47.59,14,14,0,0,0,2.6.3,7.92,7.92,0,0,1,2.88.54,2.79,2.79,0,0,1,1.08.92,2.67,2.67,0,0,1,.34,1.47,2.9,2.9,0,0,1-.54,1.71,6,6,0,0,1-3.48,2.25,9.05,9.05,0,0,1-2.45.33h-.36a5.67,5.67,0,0,1-3.31-.81,2.33,2.33,0,0,1-1.15-2,2.5,2.5,0,0,1,.51-1.48,6.78,6.78,0,0,1,.5-.57,1.27,1.27,0,0,0,.4-.68,6,6,0,0,0-.42-.62,2.08,2.08,0,0,1-.42-1.2,2.53,2.53,0,0,1,.63-1.42,4.26,4.26,0,0,0,.64-.93,3.17,3.17,0,0,0-.63-.78,4.4,4.4,0,0,1-.89-1.72,2.39,2.39,0,0,1-.1-.71v-.08a3.78,3.78,0,0,1,1.72-3.09,6,6,0,0,1,3.2-.86h.35l1.39.1.63.07.61.06,2.56-.14a1.06,1.06,0,0,1,.77.22Zm8.31,1.37-.26-.17a.59.59,0,0,1-.26-.51c0-.23.21-.45.63-.67a2.71,2.71,0,0,0,.77-.53,4.88,4.88,0,0,0,.49-1.1,5.37,5.37,0,0,1,.71-1.39,1.18,1.18,0,0,1,1-.49.92.92,0,0,1,.88.49,5.61,5.61,0,0,1,.31,1.06,2.18,2.18,0,0,0,.47,1.07,3.79,3.79,0,0,0,1,.52l.79.3a.92.92,0,0,1,.4.75c0,.25-.37.48-1.11.67a2.12,2.12,0,0,0-1.42.9,8.31,8.31,0,0,0-.32,3,8.16,8.16,0,0,0,.37,3.12,1.27,1.27,0,0,0,1.22.72l.42,0,.62,0c.47,0,.71.18.71.54a1.24,1.24,0,0,1-.87,1.1,6.09,6.09,0,0,1-2.63.59,3,3,0,0,1-2.28-1.21,5,5,0,0,1-.67-2.82v-.25c0-.17,0-.36,0-.57V103a15.61,15.61,0,0,0-.33-3.46,1.46,1.46,0,0,0-.64-.89Zm22.43,9c0,.37-.26.61-.79.72a11.55,11.55,0,0,1-2.24.17,5.79,5.79,0,0,1-1.9-.19.63.63,0,0,1-.43-.63,2.18,2.18,0,0,1,.31-.77,5.56,5.56,0,0,0,.42-1,17.12,17.12,0,0,0,.12-2.85,8.74,8.74,0,0,0-.42-3.32,1.56,1.56,0,0,0-1.55-.86,2.09,2.09,0,0,0-1.75.77,4.67,4.67,0,0,0-.61,2.8,19.17,19.17,0,0,0,.16,2.07,8.06,8.06,0,0,0,.48,2.13,6.1,6.1,0,0,1,.3.8c0,.35-.21.58-.63.67a14.79,14.79,0,0,1-2.81.2c-1.25,0-1.87-.19-1.87-.58a2.38,2.38,0,0,1,.54-1.17,3.14,3.14,0,0,0,.63-1.33c0-.38.07-2.26.07-5.64A47.46,47.46,0,0,0,232,94a1.77,1.77,0,0,0-.51-.95,4.57,4.57,0,0,1-.83-.84.72.72,0,0,1,.5-.69,7.42,7.42,0,0,1,2.87-.46,1.07,1.07,0,0,1,1.11.62,15.07,15.07,0,0,1,.15,3c0,1.75,0,2.69.05,2.8a.47.47,0,0,0,.48.41,2.32,2.32,0,0,0,.67-.24A6.28,6.28,0,0,1,239.1,97a3.11,3.11,0,0,1,3,1.69,9.67,9.67,0,0,1,.63,4.13,16.11,16.11,0,0,0,.17,3.32,2.86,2.86,0,0,0,.69.89c.35.34.53.56.53.65Zm7.24-9.28H251a1.93,1.93,0,0,0-1.42.77,2.69,2.69,0,0,0-.67,1.84v.19c0,.29.16.44.48.44l.12,0h.89l2-.12a1.12,1.12,0,0,1,.24,0,.54.54,0,0,0,.6-.62v-.39a2.12,2.12,0,0,0-.57-1.43,1.67,1.67,0,0,0-1.29-.65Zm-2.29,5.6a2.53,2.53,0,0,0,1.1,2,3.31,3.31,0,0,0,2.1.65,6.83,6.83,0,0,0,1.71-.33,8.86,8.86,0,0,1,1.31-.33c.35,0,.53.19.53.58s-.47.91-1.41,1.38a6.37,6.37,0,0,1-2.91.7h-.57a5.21,5.21,0,0,1-1.94-.39,4.8,4.8,0,0,1-2.78-2.63,6.31,6.31,0,0,1-.56-2.46v-.54a6.58,6.58,0,0,1,.41-2.29,5.17,5.17,0,0,1,2.74-3,5.81,5.81,0,0,1,2.47-.54h.27A4.67,4.67,0,0,1,254.78,98a4.3,4.3,0,0,1,1.06,1.52,4.7,4.7,0,0,1,.37,1.82,1.19,1.19,0,0,1-.9,1.22,18,18,0,0,1-4.7.41,2.29,2.29,0,0,0-1.23.23.91.91,0,0,0-.3.78Zm10.28-10.82A1.47,1.47,0,0,1,259.9,92a1.72,1.72,0,0,1,1.16-.47h.37a1.24,1.24,0,0,0,.3,0,1.32,1.32,0,0,1,1,.5,1.52,1.52,0,0,1,.43,1v.3c0,.08,0,.14,0,.18a1.28,1.28,0,0,1-.55,1,1.88,1.88,0,0,1-1.23.47H261a1.72,1.72,0,0,1-1.14-.41,1.27,1.27,0,0,1-.47-1l0-.12Zm2.24,15.3h-1.12a10.44,10.44,0,0,1-1.87-.09.46.46,0,0,1-.32-.51,1.63,1.63,0,0,1,.59-1,2.66,2.66,0,0,0,.74-1.18,16.59,16.59,0,0,0,.16-3.09,17.06,17.06,0,0,0-.13-2.95,1.37,1.37,0,0,0-.81-.77c-.45-.21-.67-.47-.67-.77s.21-.53.62-.67A9.9,9.9,0,0,1,261.9,97h.18a.69.69,0,0,1,.79.58c0,.22.06,1.53.06,3.94a30.63,30.63,0,0,0,.15,4.23,3.16,3.16,0,0,0,.82,1.31q.66.7.66.87V108C264.56,108.33,263.57,108.47,261.6,108.47Zm10.19-10.31a4.33,4.33,0,0,1,2.33-.94,1.68,1.68,0,0,1,1.31.41,1.47,1.47,0,0,1,.34,1,1.78,1.78,0,0,1-.31,1,.87.87,0,0,1-.7.45,2.81,2.81,0,0,1-1.09-.31,3,3,0,0,0-1.07-.3,1.36,1.36,0,0,0-.85.4,2.14,2.14,0,0,0-.65,1.14,10.76,10.76,0,0,0-.18,2.32,5.77,5.77,0,0,0,.22,2,5.71,5.71,0,0,0,.92,1.22,2.09,2.09,0,0,1,.69,1.23c0,.38-.91.57-2.72.57h-1.77l-.24,0h-.52c-.83,0-1.24-.18-1.24-.53a1.5,1.5,0,0,1,.62-1.07,2.37,2.37,0,0,0,.75-1,16.83,16.83,0,0,0,.14-3,15.25,15.25,0,0,0-.16-3,1.61,1.61,0,0,0-.76-.87c-.41-.24-.61-.49-.61-.75s.27-.61.81-.76a8.52,8.52,0,0,1,2.21-.33,2.68,2.68,0,0,1,1.33.22,1.51,1.51,0,0,1,.32.6c.13.34.27.51.43.51a1.27,1.27,0,0,0,.45-.21Zm11.45-6c0-.29.2-.49.61-.61A10.79,10.79,0,0,1,287,91q.9,0,1,.78,0,.18,0,6.3a64.76,64.76,0,0,0,.21,7.22,3.41,3.41,0,0,0,.56,1.51,12.33,12.33,0,0,1,.89,1.06c0,.37-1.05.56-3.15.56h-.48a15.07,15.07,0,0,1-2.25-.09.43.43,0,0,1-.37-.44,2.1,2.1,0,0,1,.57-1.06,3.32,3.32,0,0,0,.73-1.51,53.08,53.08,0,0,0,.16-5.87,44.38,44.38,0,0,0-.17-5.64,1.81,1.81,0,0,0-.83-1C283.46,92.54,283.24,92.31,283.24,92.12Zm9.46,1a1.47,1.47,0,0,1,.54-1.15,1.72,1.72,0,0,1,1.15-.47h.38a1.23,1.23,0,0,0,.29,0,1.3,1.3,0,0,1,1,.5,1.53,1.53,0,0,1,.44,1v.3a.82.82,0,0,0,0,.18,1.28,1.28,0,0,1-.55,1,1.85,1.85,0,0,1-1.22.47h-.36a1.72,1.72,0,0,1-1.14-.41,1.25,1.25,0,0,1-.48-1l0-.12Zm2.23,15.3h-1.11a10.51,10.51,0,0,1-1.88-.09c-.21-.06-.31-.23-.31-.51a1.63,1.63,0,0,1,.59-1,2.66,2.66,0,0,0,.74-1.18,18,18,0,0,0,.15-3.09,17.06,17.06,0,0,0-.13-2.95,1.34,1.34,0,0,0-.8-.77c-.45-.21-.68-.47-.68-.77s.21-.53.63-.67a9.9,9.9,0,0,1,3.11-.47h.18a.68.68,0,0,1,.78.58c0,.22.06,1.53.06,3.94a28.22,28.22,0,0,0,.16,4.23,3.16,3.16,0,0,0,.82,1.31q.66.7.66.87V108C297.9,108.33,296.91,108.47,294.93,108.47ZM306.11,91h.33a4.32,4.32,0,0,1,1.86.37.91.91,0,0,1,.56.89,1.7,1.7,0,0,1-.31,1,1,1,0,0,1-.83.41,4.11,4.11,0,0,1-1.23-.22,7.31,7.31,0,0,0-.78-.23,1,1,0,0,0-.88.52,2.36,2.36,0,0,0-.36,1.37,2.48,2.48,0,0,0,.27,1.29,10.44,10.44,0,0,0,1.19.75c.53.31.79.66.79,1s-.32.54-1,.79-1,.49-1.1.68a9.62,9.62,0,0,0-.29,3c0,.43,0,.74,0,.94v.92a4,4,0,0,0,.27,1.69,5.22,5.22,0,0,0,.75.77,1.73,1.73,0,0,1,.69,1.09c0,.31-.21.5-.64.59a9.37,9.37,0,0,1-1.82.13H303a19.5,19.5,0,0,1-2.69-.15.53.53,0,0,1-.52-.57c0-.15.18-.42.53-.8a3.13,3.13,0,0,0,.71-1.46,18.24,18.24,0,0,0,.19-3.28,13.2,13.2,0,0,0-.17-2.87,1.64,1.64,0,0,0-.68-.82.94.94,0,0,1-.52-.74,3.72,3.72,0,0,1,.55-1,4.33,4.33,0,0,0,.69-1.47,5.74,5.74,0,0,1,3.16-4.35,4.65,4.65,0,0,1,1.9-.39Zm8.31,7.4h-.34a1.91,1.91,0,0,0-1.41.77A2.7,2.7,0,0,0,312,101v.19c0,.29.16.44.48.44l.12,0h.89l2-.12a1,1,0,0,1,.23,0,.54.54,0,0,0,.6-.62v-.39a2.15,2.15,0,0,0-.56-1.43,1.7,1.7,0,0,0-1.3-.65Zm-2.29,5.6a2.51,2.51,0,0,0,1.11,2,3.28,3.28,0,0,0,2.09.65,6.67,6.67,0,0,0,1.71-.33,8.86,8.86,0,0,1,1.31-.33c.35,0,.53.19.53.58s-.47.91-1.41,1.38a6.36,6.36,0,0,1-2.9.7H314a5.28,5.28,0,0,1-1.94-.39,4.79,4.79,0,0,1-2.77-2.63,6.16,6.16,0,0,1-.57-2.46v-.54a6.58,6.58,0,0,1,.41-2.29,5.17,5.17,0,0,1,2.74-3,5.88,5.88,0,0,1,2.47-.54h.27A4.64,4.64,0,0,1,317.83,98a4.2,4.2,0,0,1,1.07,1.52,4.7,4.7,0,0,1,.37,1.82,1.19,1.19,0,0,1-.91,1.22,18,18,0,0,1-4.7.41,2.23,2.23,0,0,0-1.22.23.89.89,0,0,0-.31.78Zm16.39-10.82a1.49,1.49,0,0,1,.53-1.15,1.76,1.76,0,0,1,1.16-.47h.38a1.11,1.11,0,0,0,.29,0,1.3,1.3,0,0,1,1,.5,1.53,1.53,0,0,1,.44,1v.3a.82.82,0,0,0,0,.18,1.28,1.28,0,0,1-.55,1,1.85,1.85,0,0,1-1.22.47h-.37a1.67,1.67,0,0,1-1.13-.41,1.25,1.25,0,0,1-.48-1l0-.12Zm2.23,15.3h-1.11a10.51,10.51,0,0,1-1.88-.09c-.21-.06-.31-.23-.31-.51a1.63,1.63,0,0,1,.59-1,2.75,2.75,0,0,0,.74-1.18,18,18,0,0,0,.15-3.09,17.06,17.06,0,0,0-.13-2.95,1.34,1.34,0,0,0-.8-.77c-.45-.21-.68-.47-.68-.77s.21-.53.62-.67a9.92,9.92,0,0,1,3.12-.47h.17c.46,0,.72.19.79.58,0,.22.06,1.53.06,3.94a28.22,28.22,0,0,0,.16,4.23,3.16,3.16,0,0,0,.82,1.31c.43.47.65.76.65.87V108c0,.29-1,.43-3,.43Zm18.19-.87c0,.29-.24.5-.71.64a10.17,10.17,0,0,1-2.39.2,4.82,4.82,0,0,1-2-.23.69.69,0,0,1-.33-.56,2.73,2.73,0,0,1,.3-1,4.83,4.83,0,0,0,.37-1.06,25.85,25.85,0,0,0,.07-2.7,8.25,8.25,0,0,0-.4-3.15,1.53,1.53,0,0,0-1.54-.84,2.2,2.2,0,0,0-1.87,1,4.5,4.5,0,0,0-.48,2.46,12.64,12.64,0,0,0,.54,4.32,3.74,3.74,0,0,1,.33,1c0,.3-.18.49-.54.56a15.81,15.81,0,0,1-2.35.11,5.54,5.54,0,0,1-2.18-.24.75.75,0,0,1-.38-.65c0-.28.21-.56.63-.83s.65-.52.7-.74a27.87,27.87,0,0,0,.08-3,14.82,14.82,0,0,0-.17-3.1,3.82,3.82,0,0,0-.71-1.06c-.35-.39-.53-.6-.53-.61V98c0-.13.1-.26.3-.37a6.24,6.24,0,0,1,3-.59,1.12,1.12,0,0,1,.95.56c.25.37.44.55.56.55a2.77,2.77,0,0,0,.83-.38l.71-.41a4.19,4.19,0,0,1,1.75-.43h.37a3.08,3.08,0,0,1,2.94,1.64c.38.71.57,2.43.57,5.14a11.13,11.13,0,0,0,.14,2.48,1.91,1.91,0,0,0,.77.7c.42.26.63.51.63.76Zm1.77-8.94-.26-.17a.59.59,0,0,1-.26-.51c0-.23.21-.45.63-.67a2.71,2.71,0,0,0,.77-.53,4.88,4.88,0,0,0,.49-1.1,5.37,5.37,0,0,1,.71-1.39,1.18,1.18,0,0,1,1-.49.92.92,0,0,1,.88.49,5.61,5.61,0,0,1,.31,1.06,2.18,2.18,0,0,0,.47,1.07,3.79,3.79,0,0,0,1,.52l.79.3a.92.92,0,0,1,.4.75c0,.25-.37.48-1.11.67a2.12,2.12,0,0,0-1.42.9,8.31,8.31,0,0,0-.32,3,8.16,8.16,0,0,0,.37,3.12,1.27,1.27,0,0,0,1.22.72l.42,0,.62,0c.47,0,.71.18.71.54a1.24,1.24,0,0,1-.87,1.1,6.09,6.09,0,0,1-2.63.59,3,3,0,0,1-2.28-1.21,5,5,0,0,1-.67-2.82v-.25c0-.17,0-.36,0-.57V103a15.61,15.61,0,0,0-.33-3.46,1.46,1.46,0,0,0-.64-.89Zm14.81-.31h-.22a1.89,1.89,0,0,0-1.65,1.14,5.44,5.44,0,0,0-.64,2.72v.66a5.8,5.8,0,0,0,.74,3,2.09,2.09,0,0,0,1.77,1.24h.23a1.94,1.94,0,0,0,1.58-.93,4.05,4.05,0,0,0,.67-2.46l0-.24v-1a3.65,3.65,0,0,1,0-.38,4.73,4.73,0,0,0-.74-2.67,2.1,2.1,0,0,0-1.74-1.1Zm0-1.57h.59a5.61,5.61,0,0,1,5.05,3.55,6.42,6.42,0,0,1,.4,2.24v.21a6.18,6.18,0,0,1-.5,2.4,5.58,5.58,0,0,1-1.33,1.95,5.77,5.77,0,0,1-4,1.57h-.36a5.75,5.75,0,0,1-2.21-.45A4.8,4.8,0,0,1,361.4,107a5.87,5.87,0,0,1-1.5-4.12v-.2l0-.2a6.32,6.32,0,0,1,.41-2.17,5.32,5.32,0,0,1,2.84-3,5.6,5.6,0,0,1,2.36-.54Zm21.88.57a1.37,1.37,0,0,1,.53,1.29,4,4,0,0,1-.14,1.31.54.54,0,0,1-.55.31c-.44,0-.91-.32-1.42-1a2.36,2.36,0,0,0-1.91-1,1.53,1.53,0,0,0-1.05.34,1,1,0,0,0-.38.75,1.4,1.4,0,0,0,.68,1.18,18.37,18.37,0,0,0,2.11,1,7.59,7.59,0,0,1,2.55,1.54,3,3,0,0,1,.77,2.15,3.06,3.06,0,0,1-1.17,2.38,4.39,4.39,0,0,1-3,1h-.62a8.35,8.35,0,0,1-3.43-.54c-.53-.25-.79-.85-.79-1.79s.17-1.41.52-1.41,1,.36,1.67,1.09a2.9,2.9,0,0,0,2.15,1.1,2.27,2.27,0,0,0,1.2-.3,1,1,0,0,0,.49-.94,1.43,1.43,0,0,0-.69-1.15,13.07,13.07,0,0,0-2-1,7.74,7.74,0,0,1-2.28-1.33,3.16,3.16,0,0,1-1-2.37,2.86,2.86,0,0,1,1.19-2.33,4.49,4.49,0,0,1,2.8-.92H384a7.57,7.57,0,0,1,3.42.52Zm8.57,1h-.34a1.93,1.93,0,0,0-1.42.77,2.69,2.69,0,0,0-.67,1.84v.19c0,.29.16.44.48.44l.12,0H395l2-.12a1.12,1.12,0,0,1,.24,0,.54.54,0,0,0,.6-.62v-.39a2.12,2.12,0,0,0-.57-1.43,1.67,1.67,0,0,0-1.29-.65Zm-2.29,5.6a2.53,2.53,0,0,0,1.1,2,3.31,3.31,0,0,0,2.1.65,6.83,6.83,0,0,0,1.71-.33,8.86,8.86,0,0,1,1.31-.33c.35,0,.53.19.53.58S400,107.5,399,108a6.37,6.37,0,0,1-2.91.7h-.57a5.21,5.21,0,0,1-1.94-.39,4.77,4.77,0,0,1-2.78-2.63,6.31,6.31,0,0,1-.56-2.46v-.54a6.58,6.58,0,0,1,.41-2.29,5.14,5.14,0,0,1,2.74-3,5.81,5.81,0,0,1,2.47-.54h.27A4.67,4.67,0,0,1,399.39,98a4.3,4.3,0,0,1,1.06,1.52,4.7,4.7,0,0,1,.37,1.82,1.19,1.19,0,0,1-.9,1.22,18,18,0,0,1-4.7.41,2.29,2.29,0,0,0-1.23.23.91.91,0,0,0-.3.78Zm14.54-5.83a4.33,4.33,0,0,1,2.33-.94,1.68,1.68,0,0,1,1.31.41,1.47,1.47,0,0,1,.34,1,1.78,1.78,0,0,1-.31,1,.87.87,0,0,1-.7.45,2.81,2.81,0,0,1-1.09-.31,3,3,0,0,0-1.07-.3,1.36,1.36,0,0,0-.85.4,2.14,2.14,0,0,0-.65,1.14,10.76,10.76,0,0,0-.18,2.32,5.77,5.77,0,0,0,.22,2,5.71,5.71,0,0,0,.92,1.22,2.09,2.09,0,0,1,.69,1.23c0,.38-.91.57-2.72.57H404.7l-.24,0h-.52c-.83,0-1.24-.18-1.24-.53a1.5,1.5,0,0,1,.62-1.07,2.37,2.37,0,0,0,.75-1,16.83,16.83,0,0,0,.14-3,15.25,15.25,0,0,0-.16-3,1.61,1.61,0,0,0-.76-.87c-.41-.24-.61-.49-.61-.75s.27-.61.81-.76A8.52,8.52,0,0,1,405.7,97a2.68,2.68,0,0,1,1.33.22,1.51,1.51,0,0,1,.32.6c.13.34.27.51.43.51a1.27,1.27,0,0,0,.45-.21Zm11,.23h-.34a1.91,1.91,0,0,0-1.41.77,2.7,2.7,0,0,0-.68,1.84v.19c0,.29.16.44.48.44l.12,0h.89l2-.12a1,1,0,0,1,.23,0,.54.54,0,0,0,.6-.62v-.39a2.15,2.15,0,0,0-.56-1.43,1.7,1.7,0,0,0-1.3-.65ZM417,104a2.51,2.51,0,0,0,1.11,2,3.28,3.28,0,0,0,2.09.65,6.83,6.83,0,0,0,1.71-.33,8.86,8.86,0,0,1,1.31-.33c.35,0,.53.19.53.58s-.47.91-1.41,1.38a6.37,6.37,0,0,1-2.91.7h-.57a5.28,5.28,0,0,1-1.94-.39,4.8,4.8,0,0,1-2.78-2.63,6.31,6.31,0,0,1-.56-2.46v-.54a6.58,6.58,0,0,1,.41-2.29,5.17,5.17,0,0,1,2.74-3,5.88,5.88,0,0,1,2.47-.54h.27A4.64,4.64,0,0,1,422.65,98a4.2,4.2,0,0,1,1.07,1.52,4.7,4.7,0,0,1,.37,1.82,1.19,1.19,0,0,1-.91,1.22,18,18,0,0,1-4.7.41,2.23,2.23,0,0,0-1.22.23.89.89,0,0,0-.31.78Zm22.53,3.61c0,.29-.24.5-.71.64a10,10,0,0,1-2.38.2,4.91,4.91,0,0,1-2-.23.69.69,0,0,1-.33-.56,2.73,2.73,0,0,1,.3-1,4.83,4.83,0,0,0,.37-1.06,25.85,25.85,0,0,0,.07-2.7,8.51,8.51,0,0,0-.39-3.15,1.53,1.53,0,0,0-1.54-.84,2.18,2.18,0,0,0-1.87,1,4.4,4.4,0,0,0-.49,2.46,12.64,12.64,0,0,0,.54,4.32,3.74,3.74,0,0,1,.33,1c0,.3-.18.49-.54.56a15.55,15.55,0,0,1-2.34.11,5.51,5.51,0,0,1-2.18-.24.75.75,0,0,1-.38-.65c0-.28.21-.56.62-.83s.66-.52.71-.74a27.87,27.87,0,0,0,.08-3,14.82,14.82,0,0,0-.17-3.1,3.82,3.82,0,0,0-.71-1.06c-.35-.39-.53-.6-.53-.61V98c0-.13.1-.26.3-.37a6.24,6.24,0,0,1,3-.59,1.15,1.15,0,0,1,1,.56c.25.37.44.55.55.55a2.57,2.57,0,0,0,.83-.38l.71-.41a4.2,4.2,0,0,1,1.76-.43h.37a3.08,3.08,0,0,1,2.94,1.64c.38.71.57,2.43.57,5.14a11.13,11.13,0,0,0,.14,2.48,1.91,1.91,0,0,0,.77.7c.41.26.62.51.62.76Zm2.78-14.43a1.49,1.49,0,0,1,.53-1.15,1.76,1.76,0,0,1,1.16-.47h.38a1.11,1.11,0,0,0,.29,0,1.3,1.3,0,0,1,1,.5,1.53,1.53,0,0,1,.44,1v.3a.82.82,0,0,0,0,.18,1.28,1.28,0,0,1-.55,1,1.85,1.85,0,0,1-1.22.47h-.37a1.67,1.67,0,0,1-1.13-.41,1.25,1.25,0,0,1-.48-1l0-.12Zm2.23,15.3h-1.11a10.51,10.51,0,0,1-1.88-.09c-.21-.06-.31-.23-.31-.51a1.63,1.63,0,0,1,.59-1,2.75,2.75,0,0,0,.74-1.18,18,18,0,0,0,.15-3.09,17.06,17.06,0,0,0-.13-2.95,1.34,1.34,0,0,0-.8-.77c-.45-.21-.68-.47-.68-.77s.21-.53.62-.67A9.92,9.92,0,0,1,444.8,97H445c.46,0,.72.19.79.58,0,.22.06,1.53.06,3.94a28.22,28.22,0,0,0,.16,4.23,3.16,3.16,0,0,0,.82,1.31c.43.47.65.76.65.87V108c0,.29-1,.43-3,.43Zm4.94-9.81-.26-.17a.59.59,0,0,1-.26-.51c0-.23.21-.45.63-.67a2.71,2.71,0,0,0,.77-.53,6.08,6.08,0,0,0,.49-1.1,5.08,5.08,0,0,1,.71-1.39,1.18,1.18,0,0,1,1-.49.92.92,0,0,1,.88.49,5.61,5.61,0,0,1,.31,1.06,2.1,2.1,0,0,0,.47,1.07,3.79,3.79,0,0,0,1,.52l.79.3a.92.92,0,0,1,.4.75c0,.25-.37.48-1.11.67a2.15,2.15,0,0,0-1.43.9,8.39,8.39,0,0,0-.31,3,8.16,8.16,0,0,0,.37,3.12,1.27,1.27,0,0,0,1.22.72l.42,0,.61,0q.72,0,.72.54A1.24,1.24,0,0,1,456,108a6.13,6.13,0,0,1-2.63.59,2.76,2.76,0,0,1-1.3-.35,2.68,2.68,0,0,1-1-.86,5,5,0,0,1-.67-2.82v-.25c0-.17,0-.36,0-.57V103a15.61,15.61,0,0,0-.33-3.46,1.41,1.41,0,0,0-.63-.89Zm19.63-1.59c1.07,0,1.6.28,1.6.83,0,.21-.18.5-.54.89a5.56,5.56,0,0,0-.87,1.28c-.22.47-1,2.41-2.43,5.84s-2.29,5.45-2.67,6.08a3.3,3.3,0,0,1-2.92,1.74,2.78,2.78,0,0,1-1.33-.35,1,1,0,0,1-.63-.9,1.15,1.15,0,0,1,.4-.9,1.57,1.57,0,0,1,1.08-.36,2.34,2.34,0,0,0,1.79-.75,2.28,2.28,0,0,0,.69-1.58,4.52,4.52,0,0,0-.41-1.77c-1.92-4.37-2.94-6.69-3.07-6.94a6.15,6.15,0,0,0-.89-1.15,2.21,2.21,0,0,1-.7-1.37c0-.39,1.09-.58,3.28-.58a6,6,0,0,1,1.47.12c.27.08.4.31.4.7a1.34,1.34,0,0,1-.16.55,1.45,1.45,0,0,0-.16.65,12.89,12.89,0,0,0,.58,2.19,18.65,18.65,0,0,0,1,2.66c.28.54.46.81.53.81.25,0,.77-1.12,1.55-3.37a6.88,6.88,0,0,0,.34-2.3,1.3,1.3,0,0,0-.19-.65,1.28,1.28,0,0,1-.2-.6.72.72,0,0,1,.27-.52,3.61,3.61,0,0,1,1.83-.25Zm4.63,7.93h.19a1.91,1.91,0,0,1,1.28.51,1.63,1.63,0,0,1,.58,1.29v.12a1.74,1.74,0,0,1-.56,1.26,1.86,1.86,0,0,1-1.36.56h-.2a1.76,1.76,0,0,1-1.32-.54,1.68,1.68,0,0,1-.54-1.24v-.13a1.75,1.75,0,0,1,.57-1.26,1.86,1.86,0,0,1,1.36-.56Z"/></g></g></g></g></svg>