<svg xmlns="http://www.w3.org/2000/svg" viewBox="0 0 148.47 148.54"><defs><style>.cls-1{fill-rule:evenodd;}</style></defs><title>Asset 120mdpi</title><g id="Layer_2" data-name="Layer 2"><g id="Layer_1-2" data-name="Layer 1"><path class="cls-1" d="M70.92,0c1.47-.24,1.31,1.85.15,1.85A.93.93,0,0,1,70.92,0Z"/><path class="cls-1" d="M77.28,0c1.48-.24,1.31,1.85.15,1.85A.94.94,0,0,1,77.28,0Z"/><path class="cls-1" d="M58.19.07c1.28-.17,1.23,1.71.15,1.75S57,.23,58.19.07Z"/><path class="cls-1" d="M64.45.07c1.61-.41,1.39,2.05,0,1.75C63.86,1.7,63.4.34,64.45.07Z"/><path class="cls-1" d="M83.6.07c1.6-.41,1.39,2.05,0,1.75C83,1.7,82.54.34,83.6.07Z"/><path class="cls-1" d="M90.11.07c1.28-.17,1.23,1.71.16,1.75S88.93.23,90.11.07Z"/><path class="cls-1" d="M52.73,1.17c0,.51-1,.87-1.31.35C51.89,1.44,52.26,1.26,52.73,1.17Z"/><path class="cls-1" d="M70.87,6c1.92-.28,1.83,2.51.25,2.56A1.29,1.29,0,0,1,70.87,6Z"/><path class="cls-1" d="M77.23,6c1.92-.28,1.84,2.51.26,2.56A1.29,1.29,0,0,1,77.23,6Z"/><path class="cls-1" d="M64.4,6.08A1.24,1.24,0,0,1,66,7.59C65.71,8.93,63.08,9,63.45,7A1.23,1.23,0,0,1,64.4,6.08Z"/><path class="cls-1" d="M83.6,6.08a1.22,1.22,0,0,1,1.45,1.66c-.42,1.3-3,1-2.4-.9A1.23,1.23,0,0,1,83.6,6.08Z"/><path class="cls-1" d="M58.09,6.13a1.19,1.19,0,1,1,.25,2.36A1.19,1.19,0,0,1,58.09,6.13Z"/><path class="cls-1" d="M89.86,6.18c.14-.11.49,0,.71,0,1.22.31,1,2.72-.71,2.31a1.3,1.3,0,0,1-.8-1.5C89.26,6.61,89.43,6.27,89.86,6.18Z"/><path class="cls-1" d="M51.78,6.24a1,1,0,0,1,1.25,1,1.11,1.11,0,0,1-2.21,0A1,1,0,0,1,51.78,6.24Z"/><path class="cls-1" d="M96.28,6.28a1.07,1.07,0,0,1,.6,0c1.11.25.9,2.44-.6,2.1C95.55,8.17,95.1,6.6,96.28,6.28Z"/><path class="cls-1" d="M45.31,6.38c1.6-.36,1.54,2.15,0,1.86C44.64,8.11,44.14,6.65,45.31,6.38Z"/><path class="cls-1" d="M102.69,6.38c1.6-.36,1.54,2.15,0,1.86C102,8.11,101.52,6.65,102.69,6.38Z"/><path class="cls-1" d="M38.34,7a8.29,8.29,0,0,1,1.16-.56c.3.21.58.42.6.81A.9.9,0,1,1,38.34,7Z"/><path class="cls-1" d="M110.16,7.54c-.3,1.24-2.35.25-1.45-.8A6.75,6.75,0,0,1,110.16,7.54Z"/><path class="cls-1" d="M70.77,12.15a1.6,1.6,0,0,1,.55,3.15,1.64,1.64,0,0,1-1.85-1.8c.06-.65.11-.55.3-.8A1.51,1.51,0,0,1,70.77,12.15Z"/><path class="cls-1" d="M77.13,12.15a1.6,1.6,0,0,1,.56,3.15,1.64,1.64,0,0,1-1.86-1.8c.06-.65.11-.55.3-.8A1.51,1.51,0,0,1,77.13,12.15Z"/><path class="cls-1" d="M64.3,12.2a1.57,1.57,0,0,1,2,1.9c-.35,1.69-2.83,1.34-3.11,0A1.52,1.52,0,0,1,64.3,12.2Z"/><path class="cls-1" d="M83.45,12.2a1.56,1.56,0,0,1,2,1.9c-.35,1.69-2.83,1.34-3.1,0A1.51,1.51,0,0,1,83.45,12.2Z"/><path class="cls-1" d="M57.89,12.25a1.51,1.51,0,0,1,1.9,1.85c-.36,1.77-3.65,1.31-2.95-.85A1.33,1.33,0,0,1,57.89,12.25Z"/><path class="cls-1" d="M89.92,12.25a1.5,1.5,0,0,1,.54,3A1.5,1.5,0,0,1,89.92,12.25Z"/><path class="cls-1" d="M51.83,12.3c1.91-.16,1.93,2.81.15,2.85A1.43,1.43,0,0,1,51.83,12.3Z"/><path class="cls-1" d="M96.28,12.35a1.4,1.4,0,0,1,1.65,1.85c-.48,1.51-3.37,1.06-2.7-1A1.36,1.36,0,0,1,96.28,12.35Z"/><path class="cls-1" d="M45.31,12.45a1.3,1.3,0,0,1,.9,2.4C44.54,15.77,43.3,12.82,45.31,12.45Z"/><path class="cls-1" d="M102.84,12.45A1.28,1.28,0,0,1,103,15,1.28,1.28,0,0,1,102.84,12.45Z"/><path class="cls-1" d="M39.1,12.6a1.13,1.13,0,0,1,1.15,1.6c-.54,1.19-2.8.53-2.11-1A1.16,1.16,0,0,1,39.1,12.6Z"/><path class="cls-1" d="M109.11,12.65a1,1,0,0,1,1.35.85c.23,1.6-2.4,1.86-2.2.05A1,1,0,0,1,109.11,12.65Z"/><path class="cls-1" d="M32.63,12.8c1.47-.24,1.31,1.85.15,1.85A.93.93,0,0,1,32.63,12.8Z"/><path class="cls-1" d="M115.68,12.8a.94.94,0,0,1,.69,1.6C115.17,15.48,113.91,12.93,115.68,12.8Z"/><path class="cls-1" d="M64.45,18.26a1.84,1.84,0,0,1,2.11,1.81c0,2.51-3.65,2.28-3.71.05A1.77,1.77,0,0,1,64.45,18.26Z"/><path class="cls-1" d="M70.67,18.26a1.89,1.89,0,0,1,1.25,3.51,2,2,0,0,1-2.55-.85,2.21,2.21,0,0,1,0-1.71A2,2,0,0,1,70.67,18.26Z"/><path class="cls-1" d="M77,18.26a1.89,1.89,0,0,1,1.25,3.51,2,2,0,0,1-2.56-.85,2.21,2.21,0,0,1,0-1.71A2,2,0,0,1,77,18.26Z"/><path class="cls-1" d="M83.6,18.26a1.83,1.83,0,0,1,2.1,1.81c0,2.51-3.65,2.28-3.7.05A1.75,1.75,0,0,1,83.6,18.26Z"/><path class="cls-1" d="M58.09,18.31a1.76,1.76,0,0,1,2,1.71c.06,2.49-3.55,2.28-3.6.1A1.66,1.66,0,0,1,58.09,18.31Z"/><path class="cls-1" d="M90.11,18.31a1.79,1.79,0,0,1,1.41,3c-1.7,1.78-4.27-1.05-2.51-2.61A1.59,1.59,0,0,1,90.11,18.31Z"/><path class="cls-1" d="M51.63,18.41c2.3-.39,2.68,3.11.54,3.36a1.77,1.77,0,0,1-2-1.45A1.65,1.65,0,0,1,51.63,18.41Z"/><path class="cls-1" d="M96.43,18.41A1.68,1.68,0,0,1,98.28,20c.06,2.69-4.19,1.92-3.3-.56A1.61,1.61,0,0,1,96.43,18.41Z"/><path class="cls-1" d="M45.36,18.51c2.26-.29,2.31,3.11.25,3.16A1.59,1.59,0,0,1,45.36,18.51Z"/><path class="cls-1" d="M102.64,18.56c2.37-.41,2.5,3.44,0,3.06A1.57,1.57,0,0,1,102.64,18.56Z"/><path class="cls-1" d="M39.1,18.66c1.91-.15,1.93,2.81.15,2.86A1.43,1.43,0,0,1,39.1,18.66Z"/><path class="cls-1" d="M109.06,18.71a1.4,1.4,0,0,1,1.6,2c-.59,1.38-3.45.78-2.6-1.21A1.42,1.42,0,0,1,109.06,18.71Z"/><path class="cls-1" d="M32.63,18.86A1.19,1.19,0,0,1,34,20.07a1.26,1.26,0,0,1-2.51,0A1.14,1.14,0,0,1,32.63,18.86Z"/><path class="cls-1" d="M115.52,18.92a1.18,1.18,0,1,1,.25,2.35A1.18,1.18,0,0,1,115.52,18.92Z"/><path class="cls-1" d="M26.27,19.11c1.4-.22,1.49,1.91.2,2A1,1,0,0,1,26.27,19.11Z"/><path class="cls-1" d="M121.84,19.16c1.6-.36,1.54,2.15,0,1.86C121.17,20.89,120.67,19.43,121.84,19.16Z"/><path class="cls-1" d="M20.8,19.82c.29.58-.23,1.19-.95,1.1C20,20.52,20.55,20.21,20.8,19.82Z"/><path class="cls-1" d="M70.72,24.38a2.06,2.06,0,0,1,2.45,1.75c.35,2.94-3.9,3.15-4.2.6A2,2,0,0,1,70.72,24.38Z"/><path class="cls-1" d="M77.13,24.38a2.09,2.09,0,1,1,.45,4.15,2.12,2.12,0,0,1-2.25-2.2A2,2,0,0,1,77.13,24.38Z"/><path class="cls-1" d="M64.25,24.43a2.07,2.07,0,0,1,1.91.5,2.34,2.34,0,0,1,.45,2.4,2.16,2.16,0,0,1-3.81,0,2.84,2.84,0,0,1,.25-2.2A1.88,1.88,0,0,1,64.25,24.43Z"/><path class="cls-1" d="M83.45,24.43A2,2,0,0,1,85.9,26c.53,3.21-4.63,3.19-4.11,0A1.9,1.9,0,0,1,83.45,24.43Z"/><path class="cls-1" d="M57.89,24.48A2,2,0,0,1,60.3,26c.47,2.89-3.63,3.14-4,.8A2,2,0,0,1,57.89,24.48Z"/><path class="cls-1" d="M89.86,24.48A2,2,0,0,1,92,27.38a2.08,2.08,0,0,1-3.61,0,2.51,2.51,0,0,1,0-1.9A1.9,1.9,0,0,1,89.86,24.48Z"/><path class="cls-1" d="M51.73,24.53a1.93,1.93,0,0,1,2.15,1.85c.06,2.71-3.85,2.42-3.91.1A1.8,1.8,0,0,1,51.73,24.53Z"/><path class="cls-1" d="M96.18,24.58a1.91,1.91,0,0,1,2.2,2.6c-.77,2-4.61,1.14-3.6-1.5A1.85,1.85,0,0,1,96.18,24.58Z"/><path class="cls-1" d="M45.21,24.68a1.8,1.8,0,0,1,2.16,2.1c-.31,2-3.33,1.82-3.61,0A1.73,1.73,0,0,1,45.21,24.68Z"/><path class="cls-1" d="M102.64,24.68a1.78,1.78,0,0,1,2.11,1.95c-.21,2.2-3.38,1.93-3.61.05A1.71,1.71,0,0,1,102.64,24.68Z"/><path class="cls-1" d="M38.84,24.83a1.66,1.66,0,0,1,2,2,1.69,1.69,0,0,1-3.31-.7A1.55,1.55,0,0,1,38.84,24.83Z"/><path class="cls-1" d="M109.06,24.83A1.66,1.66,0,0,1,110,28C107.81,28.85,106.71,25.22,109.06,24.83Z"/><path class="cls-1" d="M32.58,25c2.16-.29,2.17,2.95.2,2.95A1.48,1.48,0,0,1,32.58,25Z"/><path class="cls-1" d="M115.37,25a1.46,1.46,0,0,1,1.81,1.75c-.33,1.67-3.33,1.42-2.91-.7A1.37,1.37,0,0,1,115.37,25Z"/><path class="cls-1" d="M26.12,25.23a1.23,1.23,0,0,1,1.55,1.5c-.25,1.34-2.88,1.36-2.51-.6A1.22,1.22,0,0,1,26.12,25.23Z"/><path class="cls-1" d="M121.94,25.23a1.17,1.17,0,0,1,1.4,1.2,1.25,1.25,0,0,1-2.5,0A1.14,1.14,0,0,1,121.94,25.23Z"/><path class="cls-1" d="M19.9,25.48a1,1,0,1,1,.2,1.95A1,1,0,0,1,19.9,25.48Z"/><path class="cls-1" d="M128.25,25.53c1.6-.37,1.54,2.14,0,1.85C127.58,27.26,127.08,25.8,128.25,25.53Z"/><path class="cls-1" d="M64.56,30.54c3.1-.24,3.13,4.51.2,4.56a2.3,2.3,0,0,1-2.36-2.25A2.18,2.18,0,0,1,64.56,30.54Z"/><path class="cls-1" d="M70.67,30.54a2.3,2.3,0,0,1,2.71,1.9c.44,3.46-5,3.56-4.62.06A2.2,2.2,0,0,1,70.67,30.54Z"/><path class="cls-1" d="M77,30.54a2.3,2.3,0,0,1,2.7,2.56c-.31,2.81-5,2.54-4.61-.6A2.17,2.17,0,0,1,77,30.54Z"/><path class="cls-1" d="M83.75,30.54a2.18,2.18,0,0,1,2.2,1.3,2.33,2.33,0,0,1-3,3.06,2.36,2.36,0,0,1-1.16-1.15A2.26,2.26,0,0,1,83.75,30.54Z"/><path class="cls-1" d="M57.84,30.64a2.23,2.23,0,1,1,0,4.36C55.48,34.61,55.56,31.06,57.84,30.64Z"/><path class="cls-1" d="M89.81,30.64a2.18,2.18,0,0,1,2.61,2.46,2.22,2.22,0,0,1-2.5,1.9A2.19,2.19,0,0,1,88,32.5,2.1,2.1,0,0,1,89.81,30.64Z"/><path class="cls-1" d="M51.73,30.69a2.1,2.1,0,0,1,2.35,2.11c0,2.91-4.31,2.65-4.31,0A2.06,2.06,0,0,1,51.73,30.69Z"/><path class="cls-1" d="M96.18,30.74a3,3,0,0,1,1.3.1,2.23,2.23,0,0,1,1,2.86,2.18,2.18,0,0,1-3.9,0,2,2,0,0,1,0-1.81A2.17,2.17,0,0,1,96.18,30.74Z"/><path class="cls-1" d="M45.16,30.84a2,2,0,0,1,2.41,1.55c.47,2.9-3.63,3.14-4,.81A2,2,0,0,1,45.16,30.84Z"/><path class="cls-1" d="M102.64,30.84A2,2,0,0,1,105,33c-.15,2.4-3.81,2.38-4,0A1.9,1.9,0,0,1,102.64,30.84Z"/><path class="cls-1" d="M39.1,30.94a1.87,1.87,0,0,1,2,1.86c0,2.52-3.76,2.38-3.81.05A1.79,1.79,0,0,1,39.1,30.94Z"/><path class="cls-1" d="M109,31a1.87,1.87,0,0,1,1,3.56,1.93,1.93,0,0,1-2.56-1.4A1.82,1.82,0,0,1,109,31Z"/><path class="cls-1" d="M32.48,31.14A1.7,1.7,0,0,1,33,34.5a1.78,1.78,0,0,1-2-1.45A1.65,1.65,0,0,1,32.48,31.14Z"/><path class="cls-1" d="M115.57,31.14a1.69,1.69,0,0,1,1.86,1.61c.06,2.69-4.19,1.93-3.31-.56A1.61,1.61,0,0,1,115.57,31.14Z"/><path class="cls-1" d="M26.22,31.34c2.15-.29,2.17,3,.2,3A1.49,1.49,0,0,1,26.22,31.34Z"/><path class="cls-1" d="M121.79,31.39a1.72,1.72,0,0,1,1.3.3c1.4,1.28-.66,3.55-2,2.16A1.48,1.48,0,0,1,121.79,31.39Z"/><path class="cls-1" d="M19.9,31.59a1.19,1.19,0,0,1,1.4,1.21,1.25,1.25,0,0,1-2.5,0A1.14,1.14,0,0,1,19.9,31.59Z"/><path class="cls-1" d="M128.3,31.64a1.19,1.19,0,1,1,.25,2.36A1.19,1.19,0,0,1,128.3,31.64Z"/><path class="cls-1" d="M13.54,31.89c1.47-.24,1.3,1.86.15,1.86A.94.94,0,0,1,13.54,31.89Z"/><path class="cls-1" d="M134.62,31.94c1.6-.4,1.39,2.06,0,1.76C134,33.57,133.56,32.21,134.62,31.94Z"/><path class="cls-1" d="M70.72,36.76A2.44,2.44,0,0,1,73.58,39c.28,3.46-4.75,3.7-5,.5A2.44,2.44,0,0,1,70.72,36.76Z"/><path class="cls-1" d="M77.08,36.76a2.5,2.5,0,0,1,2.61,3.6,2.62,2.62,0,0,1-4.51,0,2.35,2.35,0,0,1,0-2.3A2.59,2.59,0,0,1,77.08,36.76Z"/><path class="cls-1" d="M64.25,36.81a2.44,2.44,0,0,1,2.86,3.1c-.54,2.1-4.15,2.56-4.81,0A2.48,2.48,0,0,1,64.25,36.81Z"/><path class="cls-1" d="M83.45,36.81a2.43,2.43,0,0,1,2.7,3.35,2.49,2.49,0,1,1-4.61-1.9A2.47,2.47,0,0,1,83.45,36.81Z"/><path class="cls-1" d="M57.89,36.85a2.39,2.39,0,0,1,2.76,3,2.46,2.46,0,0,1-4.71,0A2.4,2.4,0,0,1,57.89,36.85Z"/><path class="cls-1" d="M89.92,36.85a2.61,2.61,0,0,1,1.6.31,2.55,2.55,0,0,1,0,4.11,2.45,2.45,0,0,1-3.36-3.36A2.37,2.37,0,0,1,89.92,36.85Z"/><path class="cls-1" d="M51.52,37a2.32,2.32,0,0,1,2.66,2.91,2.35,2.35,0,1,1-4.51-1.3A2.3,2.3,0,0,1,51.52,37Z"/><path class="cls-1" d="M96.23,37a2.31,2.31,0,1,1,.65,4.57A2.34,2.34,0,0,1,94.27,39a2,2,0,0,1,1.11-1.75A2.1,2.1,0,0,1,96.23,37Z"/><path class="cls-1" d="M45.26,37.06a2.12,2.12,0,0,1,2.51,2.25,2.22,2.22,0,0,1-2.06,2.11A2.19,2.19,0,0,1,45.26,37.06Z"/><path class="cls-1" d="M102.84,37.06a2.12,2.12,0,0,1,2.31,2.15c0,2.84-4.35,2.95-4.41,0A2.13,2.13,0,0,1,102.84,37.06Z"/><path class="cls-1" d="M38.89,37.21c3-.43,3.13,4.23.16,4.06a2.09,2.09,0,0,1-1.91-2.21A2,2,0,0,1,38.89,37.21Z"/><path class="cls-1" d="M108.91,37.26a2.18,2.18,0,0,1,1.9.5,2.56,2.56,0,0,1,.55,1.9c-.43,2.36-4.51,1.88-4-.9A1.92,1.92,0,0,1,108.91,37.26Z"/><path class="cls-1" d="M32.68,37.36a1.86,1.86,0,0,1,2,1.85c0,2.53-3.76,2.38-3.81,0A1.78,1.78,0,0,1,32.68,37.36Z"/><path class="cls-1" d="M115.37,37.41a1.87,1.87,0,0,1,1,3.56,1.93,1.93,0,0,1-2.55-1.41A1.8,1.8,0,0,1,115.37,37.41Z"/><path class="cls-1" d="M26.07,37.61a1.65,1.65,0,0,1,2,2,1.69,1.69,0,0,1-3.31-.7A1.55,1.55,0,0,1,26.07,37.61Z"/><path class="cls-1" d="M121.89,37.61a1.64,1.64,0,0,1,1.35,2.8c-1.57,1.51-3.7-.8-2.4-2.3A1.5,1.5,0,0,1,121.89,37.61Z"/><path class="cls-1" d="M20,37.81c1.91-.16,1.94,2.81.15,2.86A1.43,1.43,0,0,1,20,37.81Z"/><path class="cls-1" d="M128.35,37.86a1.38,1.38,0,1,1,.2,2.75A1.38,1.38,0,0,1,128.35,37.86Z"/><path class="cls-1" d="M13.59,38.11a1.12,1.12,0,0,1,1.15,1.6c-.54,1.19-2.8.53-2.11-1A1.16,1.16,0,0,1,13.59,38.11Z"/><path class="cls-1" d="M134.72,38.16A1,1,0,0,1,136,39.21a1.1,1.1,0,0,1-2.2,0A1,1,0,0,1,134.72,38.16Z"/><path class="cls-1" d="M6.42,39.46a4.31,4.31,0,0,1,.6-1.1c1.41-.29,1.41,1.7.3,1.75A1,1,0,0,1,6.42,39.46Z"/><path class="cls-1" d="M140.68,38.56a6,6,0,0,1,.75,1.5A.87.87,0,0,1,140.68,38.56Z"/><path class="cls-1" d="M64.4,43a2.55,2.55,0,0,1,3,2.55,2.69,2.69,0,0,1-4.11,2.31,2.87,2.87,0,0,1-1.2-2.2A2.55,2.55,0,0,1,64.4,43Z"/><path class="cls-1" d="M70.57,43a2.57,2.57,0,0,1,3,1.45A2.85,2.85,0,0,1,72.22,48,2.69,2.69,0,1,1,70.57,43Z"/><path class="cls-1" d="M76.93,43a2.57,2.57,0,0,1,3,1.45A2.83,2.83,0,0,1,78.59,48,2.74,2.74,0,0,1,75,44.42,2.78,2.78,0,0,1,76.93,43Z"/><path class="cls-1" d="M83.65,43a2.59,2.59,0,0,1,2.86,2.55c0,3.5-5.27,3.57-5.32.11A2.54,2.54,0,0,1,83.65,43Z"/><path class="cls-1" d="M57.79,43.07a2.48,2.48,0,0,1,2.91,1.5c1.33,3.25-3.6,5-4.82,2a2.49,2.49,0,0,1,0-2A2.57,2.57,0,0,1,57.79,43.07Z"/><path class="cls-1" d="M89.81,43.07a2.52,2.52,0,0,1,3,2.81c-.27,2.79-4.75,3.11-5.11,0A2.44,2.44,0,0,1,89.81,43.07Z"/><path class="cls-1" d="M51.48,43.17a2.44,2.44,0,0,1,2.85,3.11c-.55,2.1-4.15,2.55-4.81,0A2.49,2.49,0,0,1,51.48,43.17Z"/><path class="cls-1" d="M96.18,43.17A2.41,2.41,0,0,1,99,45.88c-.35,3.3-5.24,2.46-4.91-.61A2.37,2.37,0,0,1,96.18,43.17Z"/><path class="cls-1" d="M45.26,43.27a2.27,2.27,0,0,1,2.66,2.31c0,3.09-4.67,3-4.71.05A2.22,2.22,0,0,1,45.26,43.27Z"/><path class="cls-1" d="M102.49,43.32a2.32,2.32,0,0,1,2.61,3.21,2.45,2.45,0,0,1-3.11,1.2,2.35,2.35,0,0,1-1.2-3.11A2.26,2.26,0,0,1,102.49,43.32Z"/><path class="cls-1" d="M38.89,43.42a2.13,2.13,0,0,1,2.51,2.26,2.19,2.19,0,1,1-2.51-2.26Z"/><path class="cls-1" d="M108.91,43.47a2.14,2.14,0,0,1,2.61,1.66,2.24,2.24,0,0,1-2.61,2.6,2.18,2.18,0,0,1-1.71-2.6A2,2,0,0,1,108.91,43.47Z"/><path class="cls-1" d="M32.38,43.62a2,2,0,0,1,2.41,1.56c.47,2.89-3.63,3.13-4,.8A2,2,0,0,1,32.38,43.62Z"/><path class="cls-1" d="M115.42,43.62a2,2,0,0,1,2.31,2.06c-.11,2.68-4.11,2.3-4-.2A1.89,1.89,0,0,1,115.42,43.62Z"/><path class="cls-1" d="M26.07,43.82a1.8,1.8,0,0,1,2.15,2.11c-.3,2-3.33,1.82-3.61,0A1.75,1.75,0,0,1,26.07,43.82Z"/><path class="cls-1" d="M121.89,43.82a1.76,1.76,0,0,1,2,1.7c.06,2.5-3.55,2.28-3.61.11A1.67,1.67,0,0,1,121.89,43.82Z"/><path class="cls-1" d="M19.85,44c2.26-.29,2.31,3.11.25,3.16A1.59,1.59,0,0,1,19.85,44Z"/><path class="cls-1" d="M128.3,44.07a1.46,1.46,0,0,1,1.76,1.51,1.56,1.56,0,0,1-3.11.05A1.41,1.41,0,0,1,128.3,44.07Z"/><path class="cls-1" d="M13.44,44.32a1.31,1.31,0,0,1,.9,2.41C12.66,47.64,11.43,44.69,13.44,44.32Z"/><path class="cls-1" d="M134.62,44.37A1.22,1.22,0,0,1,136.07,46c-.42,1.29-3,1-2.4-.9A1.19,1.19,0,0,1,134.62,44.37Z"/><path class="cls-1" d="M7,44.68c1.6-.37,1.54,2.14,0,1.85C6.35,46.4,5.85,44.94,7,44.68Z"/><path class="cls-1" d="M141.08,44.68c1.47-.25,1.31,1.85.15,1.85A.93.93,0,0,1,141.08,44.68Z"/><path class="cls-1" d="M70.72,49.13A2.82,2.82,0,0,1,73.93,52a2.86,2.86,0,0,1-5.72-.2A2.73,2.73,0,0,1,70.72,49.13Z"/><path class="cls-1" d="M77.19,49.13a2.8,2.8,0,0,1,3.1,2.76c.06,3.67-5.71,3.88-5.71,0A2.74,2.74,0,0,1,77.19,49.13Z"/><path class="cls-1" d="M64.35,49.18a2.75,2.75,0,0,1,3.16,2.91,2.82,2.82,0,1,1-5.56-.8A2.71,2.71,0,0,1,64.35,49.18Z"/><path class="cls-1" d="M83.55,49.18a2.79,2.79,0,0,1,1.6,5.26A2.84,2.84,0,0,1,81,52,2.69,2.69,0,0,1,83.55,49.18Z"/><path class="cls-1" d="M57.79,49.28A2.68,2.68,0,0,1,61,51.44c.63,4.2-6.06,4.25-5.42,0a3.1,3.1,0,0,1,.21-.65A2.75,2.75,0,0,1,57.79,49.28Z"/><path class="cls-1" d="M89.81,49.28a2.67,2.67,0,0,1,3.11,3,2.74,2.74,0,1,1-3.11-3Z"/><path class="cls-1" d="M51.52,49.38a2.61,2.61,0,1,1,.76,5.17,2.63,2.63,0,0,1-3-2.91,2.09,2.09,0,0,1,.4-1.15A2.59,2.59,0,0,1,51.52,49.38Z"/><path class="cls-1" d="M96.33,49.38a2.54,2.54,0,0,1,2.85,2.51c0,3.43-5.16,3.5-5.21.1A2.5,2.5,0,0,1,96.33,49.38Z"/><path class="cls-1" d="M45.11,49.53A2.45,2.45,0,0,1,48,52.64c-.55,2.1-4.15,2.55-4.82,0A2.5,2.5,0,0,1,45.11,49.53Z"/><path class="cls-1" d="M102.59,49.53a2.5,2.5,0,0,1,2.06.61,4.31,4.31,0,0,1,.75,1.55c.3,3.4-5.18,3.66-4.91.05A2.39,2.39,0,0,1,102.59,49.53Z"/><path class="cls-1" d="M38.8,49.68a2.31,2.31,0,0,1,2.65,2.91,2.35,2.35,0,1,1-4.51-1.3A2.3,2.3,0,0,1,38.8,49.68Z"/><path class="cls-1" d="M109.11,49.68a2.27,2.27,0,0,1,2.55,2.21c.06,2.88-4,3-4.56.55A2.2,2.2,0,0,1,109.11,49.68Z"/><path class="cls-1" d="M32.58,49.84a2.1,2.1,0,0,1,2.36,2.1c0,2.92-4.32,2.66-4.32,0A2.06,2.06,0,0,1,32.58,49.84Z"/><path class="cls-1" d="M115.37,49.89a2.09,2.09,0,0,1,2.36,2.8c-.87,2.44-5,1.28-4-1.5A2.07,2.07,0,0,1,115.37,49.89Z"/><path class="cls-1" d="M26.22,50a1.94,1.94,0,0,1,2.15,1.86c.07,2.71-3.85,2.42-3.91.1A1.82,1.82,0,0,1,26.22,50Z"/><path class="cls-1" d="M121.79,50.09a1.89,1.89,0,0,1,2.1,2.55c-.74,2-4.56,1.25-3.61-1.4A1.73,1.73,0,0,1,121.79,50.09Z"/><path class="cls-1" d="M19.75,50.29a1.7,1.7,0,0,1,.55,3.35,1.77,1.77,0,0,1-1.95-1.45A1.64,1.64,0,0,1,19.75,50.29Z"/><path class="cls-1" d="M128.15,50.34a1.65,1.65,0,0,1,2,1.95,1.69,1.69,0,0,1-3.31-.7A1.54,1.54,0,0,1,128.15,50.34Z"/><path class="cls-1" d="M13.59,50.54c1.91-.16,1.93,2.81.15,2.85A1.43,1.43,0,0,1,13.59,50.54Z"/><path class="cls-1" d="M134.72,50.59a1.38,1.38,0,1,1,.2,2.75A1.38,1.38,0,0,1,134.72,50.59Z"/><path class="cls-1" d="M7.12,50.89a1,1,0,0,1,1.25,1,1.1,1.1,0,0,1-2.2,0A1,1,0,0,1,7.12,50.89Z"/><path class="cls-1" d="M141.08,50.94a1,1,0,0,1,.9,1.75C140.72,54,139.19,51.21,141.08,50.94Z"/><path class="cls-1" d="M1.51,51.44c.52.31.15,1.26-.35,1.3C1.24,52.27,1.43,51.91,1.51,51.44Z"/><path class="cls-1" d="M70.72,55.35a3,3,0,0,1,3,4.41,3,3,0,0,1-5.67-1.51,2.22,2.22,0,0,1,.35-1.4A3.3,3.3,0,0,1,70.72,55.35Z"/><path class="cls-1" d="M77.13,55.35a3,3,0,0,1,3.31,2.95c0,3.94-6,4-6,0A2.87,2.87,0,0,1,77.13,55.35Z"/><path class="cls-1" d="M64.4,55.4a2.89,2.89,0,0,1,3.26,2.9c0,3.89-5.85,3.81-5.91.05A2.87,2.87,0,0,1,64.4,55.4Z"/><path class="cls-1" d="M83.65,55.4a2.91,2.91,0,0,1,3.16,2.9c0,3.84-5.92,3.88-5.92,0A2.83,2.83,0,0,1,83.65,55.4Z"/><path class="cls-1" d="M57.94,55.5a2.82,2.82,0,0,1,3.21,2.91,2.86,2.86,0,0,1-5.72-.21A2.71,2.71,0,0,1,57.94,55.5Z"/><path class="cls-1" d="M90.06,55.5a2.79,2.79,0,0,1,3,2.8c0,3.68-5.67,3.75-5.71.05A2.74,2.74,0,0,1,90.06,55.5Z"/><path class="cls-1" d="M51.42,55.65a2.67,2.67,0,0,1,3.21,2.15c.64,4.2-6.05,4.26-5.41,0a2.64,2.64,0,0,1,.2-.65A2.79,2.79,0,0,1,51.42,55.65Z"/><path class="cls-1" d="M96.23,55.65a2.6,2.6,0,0,1,3.06,2.4c.3,3.8-5.67,4-5.42.05A2.6,2.6,0,0,1,96.23,55.65Z"/><path class="cls-1" d="M45.06,55.8A2.48,2.48,0,0,1,48,57.3c1.33,3.25-3.6,5-4.82,2a2.49,2.49,0,0,1,0-2A2.59,2.59,0,0,1,45.06,55.8Z"/><path class="cls-1" d="M102.59,55.8a2.46,2.46,0,0,1,2.91,2.25c.27,3.28-4.79,3.92-5.11.5A2.49,2.49,0,0,1,102.59,55.8Z"/><path class="cls-1" d="M38.8,56a2.38,2.38,0,0,1,2.75,3,2.46,2.46,0,0,1-4.71,0A2.4,2.4,0,0,1,38.8,56Z"/><path class="cls-1" d="M109.16,56a2.37,2.37,0,0,1,2.6,2.35,2.44,2.44,0,0,1-2.35,2.41C106.36,60.77,106.18,56.24,109.16,56Z"/><path class="cls-1" d="M32.33,56.15A2.23,2.23,0,0,1,35,57.85a2.25,2.25,0,0,1-2.66,2.66C30,60.12,30.05,56.57,32.33,56.15Z"/><path class="cls-1" d="M115.42,56.15a2.13,2.13,0,0,1,2.51,2.26,2.2,2.2,0,0,1-2.06,2.1C113,60.67,112.79,56.5,115.42,56.15Z"/><path class="cls-1" d="M26,56.35a2,2,0,0,1,2.4,1.55c.47,2.9-3.63,3.14-4,.81A2,2,0,0,1,26,56.35Z"/><path class="cls-1" d="M121.89,56.35a2,2,0,0,1,2.2,1.9c.07,2.77-4,2.54-4,.1A1.86,1.86,0,0,1,121.89,56.35Z"/><path class="cls-1" d="M19.85,56.55a1.77,1.77,0,0,1,2,1.7c.05,2.5-3.56,2.28-3.61.1A1.66,1.66,0,0,1,19.85,56.55Z"/><path class="cls-1" d="M128.2,56.6c2.61-.44,2.67,3.71.1,3.46A1.76,1.76,0,0,1,128.2,56.6Z"/><path class="cls-1" d="M13.29,56.85a1.52,1.52,0,0,1,1.9,1.86c-.37,1.77-3.65,1.3-3-.86A1.36,1.36,0,0,1,13.29,56.85Z"/><path class="cls-1" d="M134.47,56.9a1.45,1.45,0,0,1,1.8,1.86,1.47,1.47,0,0,1-2.8-.91A1.34,1.34,0,0,1,134.47,56.9Z"/><path class="cls-1" d="M7.07,57.15c1.73-.29,1.82,2.3.25,2.36A1.19,1.19,0,0,1,7.07,57.15Z"/><path class="cls-1" d="M141.13,57.2a1.13,1.13,0,0,1,1.15,1.61c-.53,1.19-2.79.53-2.1-1A1.16,1.16,0,0,1,141.13,57.2Z"/><path class="cls-1" d="M.81,57.45C2.08,57.28,2,59.16,1,59.21S-.38,57.61.81,57.45Z"/><path class="cls-1" d="M147.55,57.45a4.27,4.27,0,0,1,.4,1.66C146.64,59.58,146.32,57.49,147.55,57.45Z"/><path class="cls-1" d="M71.67,67.83a3.25,3.25,0,0,1,2.56,2.45A3.26,3.26,0,0,1,77,67.88c-1.54-.47-2.7-1.36-2.7-3.16,0-4,6.26-4.18,6.31,0a3.09,3.09,0,0,1-2.7,3.16,3.24,3.24,0,0,1,2.8,3.2c.26-2,1.5-3.29,3.61-3a3.14,3.14,0,1,1-.9,6.21,3,3,0,0,1-2.66-3.06,3.28,3.28,0,0,1-2.55,3.11,3.36,3.36,0,0,1,2.5,3,3.28,3.28,0,0,1-3,3.51,3.19,3.19,0,0,1-3.36-2.51,3.29,3.29,0,0,1-3.16,2.51,3.16,3.16,0,0,1,3.06,2.65,3.15,3.15,0,1,1-6.22,0A3,3,0,0,1,71,80.76a3.27,3.27,0,0,1-3.16-2.86,3.23,3.23,0,0,1-3.1,2.71,3.17,3.17,0,0,1-3.21-3.11,3.15,3.15,0,0,1,6.26-.5,3.29,3.29,0,0,1,2.46-2.71,3.26,3.26,0,0,1-2.41-2.6,3.29,3.29,0,0,1-3.1,2.55,3.15,3.15,0,0,1-3.21-3.16,3.09,3.09,0,0,1,3-3.15,3.13,3.13,0,0,1,3.21,2.55,3.27,3.27,0,0,1,2.66-2.6c-1.38-.53-2.56-1.36-2.56-3.16a3.11,3.11,0,0,1,2.91-3.16,3.19,3.19,0,0,1,3.41,3.16C74.23,66.46,73.15,67.35,71.67,67.83Zm.2,6.46a3.33,3.33,0,0,1,2.41,2.41,3.36,3.36,0,0,1,2.4-2.46,3.29,3.29,0,0,1-2.45-2.35A3.24,3.24,0,0,1,71.87,74.29Z"/><path class="cls-1" d="M64.21,61.71a3,3,0,0,1,3.55,3.51,3.07,3.07,0,0,1-2.55,2.56,3.11,3.11,0,0,1-3.51-3.71A2.91,2.91,0,0,1,64.21,61.71Z"/><path class="cls-1" d="M83.45,61.71a3,3,0,0,1,3.46,2.71,3.12,3.12,0,0,1-3.31,3.36,3.06,3.06,0,0,1-2.81-3.31A2.94,2.94,0,0,1,83.45,61.71Z"/><path class="cls-1" d="M58,61.81a2.9,2.9,0,0,1,3.26,2.91c0,3.88-5.86,3.81-5.92,0A2.89,2.89,0,0,1,58,61.81Z"/><path class="cls-1" d="M89.66,61.86a2.92,2.92,0,0,1,3.46,2.31c.62,4.1-5.29,4.56-5.81,1.1A2.9,2.9,0,0,1,89.66,61.86Z"/><path class="cls-1" d="M51.57,62a2.75,2.75,0,0,1,3.16,2.91,2.8,2.8,0,0,1-2.6,2.66,2.83,2.83,0,0,1-3-3.46A2.72,2.72,0,0,1,51.57,62Z"/><path class="cls-1" d="M96.38,62a2.75,2.75,0,0,1,3,2.71A2.86,2.86,0,0,1,95,67.08a2.73,2.73,0,0,1-1.26-2.31A2.68,2.68,0,0,1,96.38,62Z"/><path class="cls-1" d="M45.26,62.11a2.56,2.56,0,0,1,3,2.56A2.69,2.69,0,0,1,44.11,67a2.81,2.81,0,0,1-1.2-2.2A2.54,2.54,0,0,1,45.26,62.11Z"/><path class="cls-1" d="M102.49,62.16a2.59,2.59,0,0,1,3.06,2.11,2.64,2.64,0,1,1-5.21,0A2.54,2.54,0,0,1,102.49,62.16Z"/><path class="cls-1" d="M38.75,62.31a2.44,2.44,0,0,1,2.85,3.11c-.54,2.1-4.15,2.55-4.81,0A2.49,2.49,0,0,1,38.75,62.31Z"/><path class="cls-1" d="M109.06,62.31a2.73,2.73,0,0,1,2,.65,2.62,2.62,0,0,1,0,3.51,2.52,2.52,0,0,1-3.5,0,2.72,2.72,0,0,1,0-3.51A2.21,2.21,0,0,1,109.06,62.31Z"/><path class="cls-1" d="M32.63,62.46c3.11-.23,3.14,4.51.2,4.57a2.31,2.31,0,0,1-2.35-2.26A2.18,2.18,0,0,1,32.63,62.46Z"/><path class="cls-1" d="M115.37,62.52c2.79-.41,3.43,3.4,1.26,4.3a2.3,2.3,0,0,1-3-3A2.1,2.1,0,0,1,115.37,62.52Z"/><path class="cls-1" d="M26,62.72a2.09,2.09,0,0,1,1.9.5,2.34,2.34,0,0,1,.45,2.4,2.16,2.16,0,0,1-3.81,0,2.88,2.88,0,0,1,.25-2.2A1.88,1.88,0,0,1,26,62.72Z"/><path class="cls-1" d="M121.79,62.72a2,2,0,0,1,2.35,1.8,2,2,0,1,1-2.35-1.8Z"/><path class="cls-1" d="M19.8,62.92a1.82,1.82,0,0,1,2.11,1.8c0,2.52-3.66,2.28-3.71,0A1.75,1.75,0,0,1,19.8,62.92Z"/><path class="cls-1" d="M128.15,63a1.81,1.81,0,0,1,2.16,2.11c-.31,2-3.33,1.82-3.61,0A1.76,1.76,0,0,1,128.15,63Z"/><path class="cls-1" d="M13.29,63.22a1.56,1.56,0,0,1,2,1.9c-.35,1.69-2.83,1.34-3.11,0A1.53,1.53,0,0,1,13.29,63.22Z"/><path class="cls-1" d="M134.67,63.22a1.45,1.45,0,0,1,1.75,1.5,1.56,1.56,0,0,1-3.11,0A1.41,1.41,0,0,1,134.67,63.22Z"/><path class="cls-1" d="M7,63.52A1.24,1.24,0,0,1,8.53,65c-.26,1.34-2.88,1.36-2.51-.6A1.22,1.22,0,0,1,7,63.52Z"/><path class="cls-1" d="M140.93,63.57c2-.45,1.95,2.73,0,2.35A1.22,1.22,0,0,1,140.93,63.57Z"/><path class="cls-1" d="M.66,63.87c1.6-.41,1.39,2.05,0,1.75C.06,65.49-.4,64.14.66,63.87Z"/><path class="cls-1" d="M147.5,63.87c1.27-.17,1.22,1.7.15,1.75S146.31,64,147.5,63.87Z"/><path class="cls-1" d="M57.94,68.13a3,3,0,0,1,3,4.41A3,3,0,0,1,55.28,71a2.13,2.13,0,0,1,.36-1.4A3.26,3.26,0,0,1,57.94,68.13Z"/><path class="cls-1" d="M89.66,68.18a3,3,0,1,1-2.4,2.35A2.84,2.84,0,0,1,89.66,68.18Z"/><path class="cls-1" d="M51.57,68.28a2.81,2.81,0,0,1,3.21,2.9,2.86,2.86,0,1,1-5.71-.2A2.72,2.72,0,0,1,51.57,68.28Z"/><path class="cls-1" d="M96.08,68.33A2.72,2.72,0,0,1,99.24,70a2.92,2.92,0,0,1-1.66,3.71,2.84,2.84,0,0,1-3.66-3.61A2.68,2.68,0,0,1,96.08,68.33Z"/><path class="cls-1" d="M45.06,68.48a2.57,2.57,0,0,1,3,1.45,2.85,2.85,0,0,1-1.31,3.61,2.74,2.74,0,0,1-3.6-3.61A2.76,2.76,0,0,1,45.06,68.48Z"/><path class="cls-1" d="M102.54,68.48a2.62,2.62,0,0,1,3.06,2.91,2.68,2.68,0,0,1-3,2.35,2.72,2.72,0,0,1-2.1-3.86A2.78,2.78,0,0,1,102.54,68.48Z"/><path class="cls-1" d="M38.84,68.63a2.44,2.44,0,0,1,2.86,2.2c.29,3.46-4.74,3.71-5,.5A2.43,2.43,0,0,1,38.84,68.63Z"/><path class="cls-1" d="M109.26,68.63a2.93,2.93,0,0,1,2.15,1,2.56,2.56,0,0,1-2,4,2.53,2.53,0,0,1-2.56-2.51A2.37,2.37,0,0,1,109.26,68.63Z"/><path class="cls-1" d="M32.38,68.83a2.3,2.3,0,0,1,2.71,1.91c.44,3.44-5,3.55-4.61,0A2.18,2.18,0,0,1,32.38,68.83Z"/><path class="cls-1" d="M115.57,68.83c3.11-.23,3.14,4.51.2,4.56a2.3,2.3,0,0,1-2.35-2.26A2.17,2.17,0,0,1,115.57,68.83Z"/><path class="cls-1" d="M26.07,69a2.07,2.07,0,0,1,2.45,1.75c.35,3-3.91,3.15-4.21.61A2,2,0,0,1,26.07,69Z"/><path class="cls-1" d="M121.64,69.08a2.05,2.05,0,0,1,2.5,2.46c-.41,2.32-3.78,1.85-4.11,0a2,2,0,0,1,1.61-2.46Z"/><path class="cls-1" d="M19.65,69.28a1.88,1.88,0,0,1,1.25,3.51,2,2,0,0,1-2.55-.85,2.21,2.21,0,0,1,0-1.71A2,2,0,0,1,19.65,69.28Z"/><path class="cls-1" d="M128.3,69.28a1.79,1.79,0,0,1,2.06,1.8c0,2.85-4.75,2-3.56-.75A1.67,1.67,0,0,1,128.3,69.28Z"/><path class="cls-1" d="M13.39,69.53a1.6,1.6,0,0,1,.55,3.16,1.65,1.65,0,0,1-1.86-1.81c.07-.64.11-.54.3-.8A1.56,1.56,0,0,1,13.39,69.53Z"/><path class="cls-1" d="M134.52,69.58a1.57,1.57,0,0,1,1.9,1.16c.43,2.49-3.55,2.51-3.11,0A1.51,1.51,0,0,1,134.52,69.58Z"/><path class="cls-1" d="M7.07,69.83c1.92-.28,1.83,2.51.25,2.56A1.29,1.29,0,0,1,7.07,69.83Z"/><path class="cls-1" d="M141,69.88a1.16,1.16,0,0,1,1.46,1.2,1.26,1.26,0,0,1-2.51,0A1.13,1.13,0,0,1,141,69.88Z"/><path class="cls-1" d="M.76,70.18C2.23,69.94,2.06,72,.91,72A.94.94,0,0,1,.76,70.18Z"/><path class="cls-1" d="M147.35,70.23c1.6-.4,1.39,2,0,1.76C146.75,71.86,146.29,70.5,147.35,70.23Z"/><path class="cls-1" d="M83.35,74.39A3.09,3.09,0,0,1,87,78c-.51,3.7-6.68,3.41-6.22-.9a3,3,0,0,1,.45-1.3A3.1,3.1,0,0,1,83.35,74.39Z"/><path class="cls-1" d="M58,74.49a3,3,0,0,1,3.31,3c0,3.93-6,4-6,0A2.89,2.89,0,0,1,58,74.49Z"/><path class="cls-1" d="M89.66,74.54a3,3,0,1,1-2.4,2.36A2.84,2.84,0,0,1,89.66,74.54Z"/><path class="cls-1" d="M51.68,74.64a2.8,2.8,0,0,1,3.1,2.76c0,3.67-5.71,3.88-5.71,0A2.73,2.73,0,0,1,51.68,74.64Z"/><path class="cls-1" d="M96.08,74.69A2.81,2.81,0,0,1,99.39,77a2.85,2.85,0,1,1-5.62,0A2.75,2.75,0,0,1,96.08,74.69Z"/><path class="cls-1" d="M45.06,74.84a2.57,2.57,0,0,1,3,1.46,2.86,2.86,0,0,1-1.31,3.61,2.74,2.74,0,0,1-3.6-3.61A2.77,2.77,0,0,1,45.06,74.84Z"/><path class="cls-1" d="M102.54,74.84a2.62,2.62,0,0,1,3.06,2.91,2.68,2.68,0,0,1-3,2.36,2.72,2.72,0,0,1-2.1-3.86A2.82,2.82,0,0,1,102.54,74.84Z"/><path class="cls-1" d="M38.84,75a2.51,2.51,0,0,1,2.61,3.61,2.62,2.62,0,0,1-4.51,0,2.38,2.38,0,0,1,0-2.3A2.59,2.59,0,0,1,38.84,75Z"/><path class="cls-1" d="M108.91,75a2.44,2.44,0,0,1,2.85,3.11c-.54,2.1-4.14,2.55-4.81,0A2.5,2.5,0,0,1,108.91,75Z"/><path class="cls-1" d="M32.38,75.19a2.31,2.31,0,0,1,2.71,2.56c-.32,2.81-5,2.55-4.61-.6A2.16,2.16,0,0,1,32.38,75.19Z"/><path class="cls-1" d="M115.57,75.19c3.11-.23,3.14,4.51.2,4.57a2.31,2.31,0,0,1-2.35-2.26A2.18,2.18,0,0,1,115.57,75.19Z"/><path class="cls-1" d="M26.12,75.4a2.09,2.09,0,1,1,.45,4.15,2.14,2.14,0,0,1-2.26-2.2A2,2,0,0,1,26.12,75.4Z"/><path class="cls-1" d="M121.64,75.44a2.05,2.05,0,0,1,2.5,2.46c-.41,2.33-3.78,1.85-4.11,0a2.15,2.15,0,0,1,.71-2.05A2,2,0,0,1,121.64,75.44Z"/><path class="cls-1" d="M19.65,75.65a1.88,1.88,0,0,1,1.25,3.5,2,2,0,0,1-2.55-.85,2.18,2.18,0,0,1,0-1.7A2,2,0,0,1,19.65,75.65Z"/><path class="cls-1" d="M128.3,75.65a1.78,1.78,0,0,1,2.06,1.8c0,2.84-4.75,2-3.56-.75A1.66,1.66,0,0,1,128.3,75.65Z"/><path class="cls-1" d="M13.39,75.9c2.2-.38,2.5,2.92.55,3.15a1.65,1.65,0,0,1-1.86-1.8c.07-.65.11-.55.3-.8A1.52,1.52,0,0,1,13.39,75.9Z"/><path class="cls-1" d="M134.57,76a1.55,1.55,0,1,1,0,3A1.55,1.55,0,0,1,134.57,76Z"/><path class="cls-1" d="M7.07,76.2c1.92-.29,1.83,2.51.25,2.55A1.28,1.28,0,0,1,7.07,76.2Z"/><path class="cls-1" d="M141,76.25a1.16,1.16,0,0,1,1.46,1.2,1.26,1.26,0,0,1-2.51,0A1.12,1.12,0,0,1,141,76.25Z"/><path class="cls-1" d="M.76,76.55c1.47-.24,1.3,1.85.15,1.85A.93.93,0,0,1,.76,76.55Z"/><path class="cls-1" d="M147.35,76.6c1.6-.41,1.39,2.05,0,1.75C146.75,78.22,146.29,76.87,147.35,76.6Z"/><path class="cls-1" d="M76.93,80.81a3.07,3.07,0,0,1,3.61,3.55c-.51,3.71-6.68,3.42-6.21-.9a3,3,0,0,1,.45-1.3A3,3,0,0,1,76.93,80.81Z"/><path class="cls-1" d="M64.3,80.86a3,3,0,0,1,3.46,2.7,3.11,3.11,0,0,1-3.31,3.36,3,3,0,0,1-2.8-3.31A2.92,2.92,0,0,1,64.3,80.86Z"/><path class="cls-1" d="M83.65,80.86a3,3,0,0,1,3.26,3c0,4-6.12,4-6.12,0A2.92,2.92,0,0,1,83.65,80.86Z"/><path class="cls-1" d="M58.09,81a2.9,2.9,0,0,1,3.16,2.9c0,3.84-5.92,3.88-5.92,0A2.83,2.83,0,0,1,58.09,81Z"/><path class="cls-1" d="M89.71,81a2.89,2.89,0,0,1,3.41,3.35,2.95,2.95,0,1,1-5.81-1A2.82,2.82,0,0,1,89.71,81Z"/><path class="cls-1" d="M51.63,81.11a2.79,2.79,0,0,1,1.6,5.26,2.84,2.84,0,0,1-4.11-2.45A2.67,2.67,0,0,1,51.63,81.11Z"/><path class="cls-1" d="M96.08,81.16a2.63,2.63,0,0,1,3.1,1.65,2.82,2.82,0,0,1-3.65,3.66,2.86,2.86,0,0,1-1.71-2.11A2.74,2.74,0,0,1,96.08,81.16Z"/><path class="cls-1" d="M45.36,81.26a2.58,2.58,0,0,1,2.86,2.55c0,3.49-5.27,3.57-5.31.11A2.54,2.54,0,0,1,45.36,81.26Z"/><path class="cls-1" d="M102.49,81.31a2.55,2.55,0,0,1,2.31.7,2.83,2.83,0,0,1,.6,2.86A3.13,3.13,0,0,1,104,86.32a2.76,2.76,0,0,1-3.46-1.45A2.64,2.64,0,0,1,102.49,81.31Z"/><path class="cls-1" d="M38.8,81.46a2.44,2.44,0,0,1,2.7,3.36,2.5,2.5,0,0,1-4.61-1.91A2.47,2.47,0,0,1,38.8,81.46Z"/><path class="cls-1" d="M109.16,81.46a2.45,2.45,0,0,1,1.3,4.61,2.48,2.48,0,0,1-3.56-2.15A2.33,2.33,0,0,1,109.16,81.46Z"/><path class="cls-1" d="M32.68,81.61a2.2,2.2,0,0,1,2.21,1.3A2.34,2.34,0,0,1,31.83,86a2.38,2.38,0,0,1-1.15-1.15A2.25,2.25,0,0,1,32.68,81.61Z"/><path class="cls-1" d="M115.42,81.66a2.21,2.21,0,0,1,2.56,2.2c0,2.77-4.51,3.08-4.51,0A2.08,2.08,0,0,1,115.42,81.66Z"/><path class="cls-1" d="M26,81.86a2.06,2.06,0,0,1,2.45,1.6c.53,3.22-4.63,3.2-4.11,0A1.89,1.89,0,0,1,26,81.86Z"/><path class="cls-1" d="M121.89,81.86c2.76-.3,3,4.06.2,4.06a2.08,2.08,0,0,1-2.06-2A1.91,1.91,0,0,1,121.89,81.86Z"/><path class="cls-1" d="M19.8,82.06a1.83,1.83,0,0,1,2.11,1.8c0,2.52-3.66,2.29-3.71.06A1.76,1.76,0,0,1,19.8,82.06Z"/><path class="cls-1" d="M128.2,82.11a1.78,1.78,0,0,1,2.11,2c-.21,2.21-3.39,1.93-3.61.06A1.71,1.71,0,0,1,128.2,82.11Z"/><path class="cls-1" d="M13.29,82.36a1.57,1.57,0,0,1,2,1.91c-.35,1.68-2.83,1.33-3.11,0A1.54,1.54,0,0,1,13.29,82.36Z"/><path class="cls-1" d="M134.47,82.41a1.51,1.51,0,0,1,1.9,1.86c-.36,1.77-3.65,1.3-3-.86A1.36,1.36,0,0,1,134.47,82.41Z"/><path class="cls-1" d="M7,82.66a1.23,1.23,0,0,1,1.46,1.66c-.42,1.29-3,1-2.41-.91A1.2,1.2,0,0,1,7,82.66Z"/><path class="cls-1" d="M141,82.71a1.19,1.19,0,1,1,.25,2.36A1.19,1.19,0,0,1,141,82.71Z"/><path class="cls-1" d="M.66,83c1.6-.4,1.39,2.06,0,1.76C.06,84.64-.4,83.28.66,83Z"/><path class="cls-1" d="M147.5,83c1.27-.17,1.22,1.71.15,1.76S146.31,83.17,147.5,83Z"/><path class="cls-1" d="M70.52,87.32a3,3,0,1,1-2.41,2.36A2.87,2.87,0,0,1,70.52,87.32Z"/><path class="cls-1" d="M76.88,87.32a3,3,0,1,1-2.4,2.36A2.84,2.84,0,0,1,76.88,87.32Z"/><path class="cls-1" d="M64.16,87.37a2.92,2.92,0,0,1,3.45,2.31c.62,4.1-5.29,4.57-5.81,1.1A2.89,2.89,0,0,1,64.16,87.37Z"/><path class="cls-1" d="M83.35,87.37a2.89,2.89,0,0,1,3.41,3.36,3,3,0,0,1-2.41,2.41,3,3,0,0,1-3.41-3.41A2.85,2.85,0,0,1,83.35,87.37Z"/><path class="cls-1" d="M58.14,87.42a2.81,2.81,0,0,1,3,2.81c0,3.68-5.67,3.74-5.72,0A2.76,2.76,0,0,1,58.14,87.42Z"/><path class="cls-1" d="M89.76,87.47a3.44,3.44,0,0,1,1.61.15,2.84,2.84,0,0,1,1.65,3A2.81,2.81,0,0,1,89.86,93a2.85,2.85,0,0,1-2.45-3.16A2.71,2.71,0,0,1,89.76,87.47Z"/><path class="cls-1" d="M51.52,87.57a2.67,2.67,0,0,1,3.11,3,2.73,2.73,0,0,1-2.35,2.41,2.71,2.71,0,1,1-.76-5.37Z"/><path class="cls-1" d="M96.38,87.57a2.64,2.64,0,0,1,2.91,2.61A2.71,2.71,0,1,1,94.17,89,2.7,2.7,0,0,1,96.38,87.57Z"/><path class="cls-1" d="M45.16,87.72a2.52,2.52,0,0,1,3,2.81c-.28,2.79-4.75,3.11-5.12,0A2.45,2.45,0,0,1,45.16,87.72Z"/><path class="cls-1" d="M102.69,87.72a2.52,2.52,0,0,1,2.81,2.46c0,3.42-5.11,3.35-5.11,0A2.4,2.4,0,0,1,102.69,87.72Z"/><path class="cls-1" d="M38.89,87.87a2.57,2.57,0,0,1,1.61.31,2.54,2.54,0,0,1,0,4.1,2.44,2.44,0,0,1-3.36-3.35A2.37,2.37,0,0,1,38.89,87.87Z"/><path class="cls-1" d="M108.91,87.92a2.33,2.33,0,0,1,2.8,2.76,2.4,2.4,0,0,1-4.71-.9A2.32,2.32,0,0,1,108.91,87.92Z"/><path class="cls-1" d="M32.38,88.07A2.19,2.19,0,0,1,35,90.53a2.22,2.22,0,0,1-2.51,1.9,2.19,2.19,0,0,1-1.9-2.5A2.09,2.09,0,0,1,32.38,88.07Z"/><path class="cls-1" d="M115.47,88.07a2.16,2.16,0,0,1,2.46,2.11c.06,3-4.36,2.8-4.41.1A2.1,2.1,0,0,1,115.47,88.07Z"/><path class="cls-1" d="M26.07,88.27a2,2,0,0,1,2.15,2.91,2.08,2.08,0,0,1-3.61,0,2.51,2.51,0,0,1,0-1.9A1.93,1.93,0,0,1,26.07,88.27Z"/><path class="cls-1" d="M121.94,88.27a2,2,0,0,1,2.15,2c0,2.7-4,2.46-4,0A1.9,1.9,0,0,1,121.94,88.27Z"/><path class="cls-1" d="M20,88.48a1.78,1.78,0,0,1,1.4,3c-1.69,1.78-4.27-1-2.5-2.61A1.59,1.59,0,0,1,20,88.48Z"/><path class="cls-1" d="M128.25,88.52a1.72,1.72,0,0,1,2,1.66c.06,2.43-3.42,2.22-3.51.15A1.66,1.66,0,0,1,128.25,88.52Z"/><path class="cls-1" d="M13.39,88.77a1.51,1.51,0,0,1,.55,3A1.51,1.51,0,0,1,13.39,88.77Z"/><path class="cls-1" d="M134.52,88.83a1.46,1.46,0,0,1,1.8,1.75,1.5,1.5,0,0,1-2.91-.7A1.39,1.39,0,0,1,134.52,88.83Z"/><path class="cls-1" d="M6.92,89.13c.14-.12.48,0,.7,0,1.23.31,1,2.71-.7,2.3a1.28,1.28,0,0,1-.8-1.5C6.31,89.55,6.49,89.21,6.92,89.13Z"/><path class="cls-1" d="M140.88,89.18c1.69-.51,1.88,1.87.7,2.15A1.13,1.13,0,0,1,140.88,89.18Z"/><path class="cls-1" d="M.81,89.38c1.27-.17,1.22,1.7.15,1.75S-.38,89.53.81,89.38Z"/><path class="cls-1" d="M147.8,89.38c-.09.6-.26,1.11-.35,1.7A.87.87,0,0,1,147.8,89.38Z"/><path class="cls-1" d="M64.51,93.84a2.74,2.74,0,0,1,3,2.7A2.86,2.86,0,0,1,63.15,99a2.73,2.73,0,0,1-1.25-2.31A2.67,2.67,0,0,1,64.51,93.84Z"/><path class="cls-1" d="M70.57,93.84a2.72,2.72,0,0,1,3.16,1.7,2.92,2.92,0,0,1-1.66,3.71,2.84,2.84,0,0,1-3.66-3.61A2.68,2.68,0,0,1,70.57,93.84Z"/><path class="cls-1" d="M76.93,93.84a2.8,2.8,0,0,1,3.31,2.25,2.85,2.85,0,1,1-5.61,0A2.73,2.73,0,0,1,76.93,93.84Z"/><path class="cls-1" d="M83.35,93.89a3.35,3.35,0,0,1,1.45.1,2.79,2.79,0,0,1,1.66,3.66A2.93,2.93,0,0,1,82.8,99.2a2.88,2.88,0,0,1-1.71-2.1A2.74,2.74,0,0,1,83.35,93.89Z"/><path class="cls-1" d="M57.94,93.94A2.6,2.6,0,0,1,61,96.34c.3,3.79-5.67,4-5.42,0A2.6,2.6,0,0,1,57.94,93.94Z"/><path class="cls-1" d="M90,93.94a2.63,2.63,0,0,1,2.91,2.6,2.71,2.71,0,1,1-5.11-1.2A2.66,2.66,0,0,1,90,93.94Z"/><path class="cls-1" d="M51.68,94a2.53,2.53,0,0,1,2.85,2.5c0,3.43-5.16,3.51-5.21.1A2.48,2.48,0,0,1,51.68,94Z"/><path class="cls-1" d="M96.48,94a2.9,2.9,0,0,1,1.5.35A2.77,2.77,0,0,1,98.79,98,2.65,2.65,0,0,1,94,96.64,2.53,2.53,0,0,1,96.48,94Z"/><path class="cls-1" d="M45.16,94.19A2.42,2.42,0,0,1,48,96.9c-.36,3.3-5.24,2.46-4.91-.61A2.35,2.35,0,0,1,45.16,94.19Z"/><path class="cls-1" d="M102.74,94.19a2.45,2.45,0,0,1,1.31,4.61,2.48,2.48,0,0,1-3.56-2.16A2.32,2.32,0,0,1,102.74,94.19Z"/><path class="cls-1" d="M38.84,94.34a2.3,2.3,0,1,1,.66,4.56,2.33,2.33,0,0,1-2.61-2.56,2.11,2.11,0,0,1,2-2Z"/><path class="cls-1" d="M109.26,94.34a2.19,2.19,0,0,1,2.2,1.3,2.33,2.33,0,0,1-3,3.06,2.44,2.44,0,0,1-1.16-1.15A2.26,2.26,0,0,1,109.26,94.34Z"/><path class="cls-1" d="M32.38,94.54a3,3,0,0,1,1.3.1,2.22,2.22,0,0,1,1.06,2.86,2.19,2.19,0,0,1-3.91,0,2.06,2.06,0,0,1,0-1.81A2.17,2.17,0,0,1,32.38,94.54Z"/><path class="cls-1" d="M115.42,94.54a2,2,0,0,1,2.41,2.2c-.16,2.63-4,2.47-4.21.06A2,2,0,0,1,115.42,94.54Z"/><path class="cls-1" d="M26,94.74a1.91,1.91,0,0,1,2.2,2.61c-.77,2-4.62,1.14-3.61-1.51A1.89,1.89,0,0,1,26,94.74Z"/><path class="cls-1" d="M121.84,94.74A1.85,1.85,0,0,1,124,96.59c0,2.54-3.75,2.39-3.8,0A1.75,1.75,0,0,1,121.84,94.74Z"/><path class="cls-1" d="M19.9,94.94a1.68,1.68,0,0,1,1.86,1.6c.06,2.7-4.2,1.93-3.31-.55A1.61,1.61,0,0,1,19.9,94.94Z"/><path class="cls-1" d="M128.2,95a1.67,1.67,0,0,1,1,3.16C127,99,125.86,95.38,128.2,95Z"/><path class="cls-1" d="M13.39,95.24A1.4,1.4,0,0,1,15,97.1c-.49,1.5-3.37,1.05-2.71-1A1.41,1.41,0,0,1,13.39,95.24Z"/><path class="cls-1" d="M134.52,95.29c2.24-.51,2.17,3.08,0,2.66C133.48,97.74,133,95.64,134.52,95.29Z"/><path class="cls-1" d="M7,95.59a1.18,1.18,0,0,1,.6,0c1.11.26.91,2.45-.6,2.11C6.25,97.48,5.79,95.91,7,95.59Z"/><path class="cls-1" d="M141,95.64c1.62-.36,1.58,2.24,0,2A1,1,0,0,1,141,95.64Z"/><path class="cls-1" d="M1.51,96c.22.12.27.4.25.76A2.43,2.43,0,0,1,1.51,96Z"/><path class="cls-1" d="M70.67,100.35a2.63,2.63,0,0,1,3.06,2.91,2.67,2.67,0,0,1-3,2.35,2.72,2.72,0,0,1-2.11-3.85A2.84,2.84,0,0,1,70.67,100.35Z"/><path class="cls-1" d="M77,100.35a2.62,2.62,0,0,1,3,2.91,2.67,2.67,0,0,1-3,2.35,2.71,2.71,0,0,1-2.1-3.85A2.82,2.82,0,0,1,77,100.35Z"/><path class="cls-1" d="M64.25,100.4a2.59,2.59,0,0,1,3.06,2.11,2.64,2.64,0,1,1-5.21,0A2.55,2.55,0,0,1,64.25,100.4Z"/><path class="cls-1" d="M83.4,100.4a2.56,2.56,0,0,1,2.3.7,2.82,2.82,0,0,1,.6,2.86,3.15,3.15,0,0,1-1.45,1.46A2.77,2.77,0,0,1,81.39,104,2.64,2.64,0,0,1,83.4,100.4Z"/><path class="cls-1" d="M57.94,100.45a2.46,2.46,0,0,1,2.91,2.26c.27,3.28-4.8,3.91-5.12.5A2.51,2.51,0,0,1,57.94,100.45Z"/><path class="cls-1" d="M90,100.45a2.52,2.52,0,0,1,2.81,2.46c0,3.42-5.11,3.35-5.11,0A2.4,2.4,0,0,1,90,100.45Z"/><path class="cls-1" d="M51.57,100.55a2.5,2.5,0,0,1,2.06.61,4.31,4.31,0,0,1,.75,1.55c.3,3.4-5.18,3.65-4.91.05A2.39,2.39,0,0,1,51.57,100.55Z"/><path class="cls-1" d="M96.38,100.55a2.45,2.45,0,0,1,1.3,4.61A2.48,2.48,0,0,1,94.12,103,2.34,2.34,0,0,1,96.38,100.55Z"/><path class="cls-1" d="M45.11,100.7a2.32,2.32,0,0,1,2.61,3.21,2.45,2.45,0,0,1-3.11,1.2,2.33,2.33,0,0,1-1.2-3.1A2.26,2.26,0,0,1,45.11,100.7Z"/><path class="cls-1" d="M102.54,100.7a2.32,2.32,0,0,1,2.71,1.91c.44,3.45-5,3.55-4.61,0A2.18,2.18,0,0,1,102.54,100.7Z"/><path class="cls-1" d="M39.1,100.8A2.12,2.12,0,0,1,41.4,103,2.21,2.21,0,0,1,37,103,2.14,2.14,0,0,1,39.1,100.8Z"/><path class="cls-1" d="M109,100.85a2.11,2.11,0,0,1,2.51,2.36,2.24,2.24,0,0,1-1.81,1.9c-2.86.39-3.36-3.86-.8-4.26A.34.34,0,0,0,109,100.85Z"/><path class="cls-1" d="M32.48,101a2,2,0,0,1,2.31,2.1c-.15,2.4-3.81,2.38-4,0A1.88,1.88,0,0,1,32.48,101Z"/><path class="cls-1" d="M115.27,101.05a2.78,2.78,0,0,1,1.1,0,2,2,0,0,1,1.21,2.61c-.62,1.65-3.47,1.61-3.81-.3A2,2,0,0,1,115.27,101.05Z"/><path class="cls-1" d="M26.12,101.2a1.78,1.78,0,0,1,2.1,2c-.21,2.2-3.38,1.93-3.61,0A1.72,1.72,0,0,1,26.12,101.2Z"/><path class="cls-1" d="M121.69,101.26a1.75,1.75,0,0,1,2.15,2.1c-.35,1.94-3.22,1.59-3.51,0A1.71,1.71,0,0,1,121.69,101.26Z"/><path class="cls-1" d="M19.75,101.45c2.37-.41,2.5,3.44,0,3.06A1.56,1.56,0,0,1,19.75,101.45Z"/><path class="cls-1" d="M128.1,101.51a1.51,1.51,0,0,1,1.91,1.85c-.37,1.77-3.65,1.3-3-.85A1.33,1.33,0,0,1,128.1,101.51Z"/><path class="cls-1" d="M13.59,101.71a1.28,1.28,0,0,1,.15,2.55A1.28,1.28,0,0,1,13.59,101.71Z"/><path class="cls-1" d="M134.72,101.76a1.17,1.17,0,0,1,1.4,1.2,1.25,1.25,0,0,1-2.5,0A1.13,1.13,0,0,1,134.72,101.76Z"/><path class="cls-1" d="M7,102.06c1.6-.37,1.54,2.14,0,1.85C6.35,103.78,5.85,102.33,7,102.06Z"/><path class="cls-1" d="M141,102.11c1.6-.41,1.39,2,0,1.75C140.38,103.73,139.93,102.37,141,102.11Z"/><path class="cls-1" d="M71,106.92a2.86,2.86,0,0,1,2.15,1,2.56,2.56,0,0,1-2,4,2.53,2.53,0,0,1-2.56-2.51A2.37,2.37,0,0,1,71,106.92Z"/><path class="cls-1" d="M64.4,107a2.66,2.66,0,0,1,2.06.65,2.62,2.62,0,0,1,0,3.51,2.56,2.56,0,0,1-3.51,0,2.75,2.75,0,0,1,0-3.51A2.19,2.19,0,0,1,64.4,107Z"/><path class="cls-1" d="M77,107a2.44,2.44,0,0,1,2.86,3.11c-.55,2.1-4.15,2.55-4.81,0A2.49,2.49,0,0,1,77,107Z"/><path class="cls-1" d="M83.65,107a2.45,2.45,0,0,1,1.3,4.61,2.49,2.49,0,0,1-3.56-2.16A2.33,2.33,0,0,1,83.65,107Z"/><path class="cls-1" d="M58.09,107a2.37,2.37,0,0,1,2.61,2.35,2.45,2.45,0,0,1-2.36,2.41C55.29,111.84,55.11,107.3,58.09,107Z"/><path class="cls-1" d="M89.76,107.07a2.33,2.33,0,0,1,2.81,2.76,2.4,2.4,0,0,1-4.71-.91A2.32,2.32,0,0,1,89.76,107.07Z"/><path class="cls-1" d="M51.68,107.12a2.27,2.27,0,0,1,2.55,2.2c.06,2.89-4,3-4.56.55A2.19,2.19,0,0,1,51.68,107.12Z"/><path class="cls-1" d="M96.48,107.12a2.18,2.18,0,0,1,2.2,1.3,2.33,2.33,0,0,1-3.05,3.06,2.4,2.4,0,0,1-1.16-1.15A2.25,2.25,0,0,1,96.48,107.12Z"/><path class="cls-1" d="M45.11,107.27a2.14,2.14,0,0,1,2.61,1.65,2.24,2.24,0,0,1-2.61,2.61,2.17,2.17,0,0,1-1.7-2.61A2,2,0,0,1,45.11,107.27Z"/><path class="cls-1" d="M102.59,107.27a2.1,2.1,0,0,1,2.51,2.35,2.24,2.24,0,0,1-1.8,1.91c-2.87.38-3.36-3.86-.81-4.26Z"/><path class="cls-1" d="M38.75,107.42a2.19,2.19,0,0,1,1.9.5,2.57,2.57,0,0,1,.55,1.91c-.43,2.35-4.52,1.88-4-.91A1.92,1.92,0,0,1,38.75,107.42Z"/><path class="cls-1" d="M109,107.42a2,2,0,0,1,2.35,2.2c-.24,2.38-4.33,2.39-4-.5A2,2,0,0,1,109,107.42Z"/><path class="cls-1" d="M32.43,107.57a1.87,1.87,0,0,1,1,3.56,1.93,1.93,0,0,1-2.55-1.41A1.8,1.8,0,0,1,32.43,107.57Z"/><path class="cls-1" d="M115.62,107.57a2,2,0,0,1,1.76,1c1.17,2.4-2.39,3.58-3.31,1.71A1.85,1.85,0,0,1,115.62,107.57Z"/><path class="cls-1" d="M26.12,107.77a1.67,1.67,0,0,1,.95,3.16C24.87,111.79,23.77,108.16,26.12,107.77Z"/><path class="cls-1" d="M121.69,107.82a1.62,1.62,0,0,1,2,2c-.36,1.83-3.66,1.51-3.2-.8A1.56,1.56,0,0,1,121.69,107.82Z"/><path class="cls-1" d="M19.75,108a1.4,1.4,0,0,1,1.6,2c-.59,1.38-3.45.78-2.6-1.21A1.42,1.42,0,0,1,19.75,108Z"/><path class="cls-1" d="M128.15,108.07c2.25-.51,2.18,3.09,0,2.66C127.11,110.52,126.62,108.42,128.15,108.07Z"/><path class="cls-1" d="M13.44,108.32a1,1,0,0,1,1.35.85c.22,1.6-2.4,1.86-2.2,0A1,1,0,0,1,13.44,108.32Z"/><path class="cls-1" d="M134.62,108.37c1.81-.4,1.55,2.59-.15,2A1.07,1.07,0,0,1,134.62,108.37Z"/><path class="cls-1" d="M7.57,110.18a4.67,4.67,0,0,1-.85-1.46C7.76,107.85,8.74,109.8,7.57,110.18Z"/><path class="cls-1" d="M140.88,108.57c.07.18-.28.78-.5,1A1,1,0,0,1,140.88,108.57Z"/><path class="cls-1" d="M70.92,113.48c3.11-.23,3.14,4.51.2,4.56a2.31,2.31,0,0,1-2.36-2.25A2.18,2.18,0,0,1,70.92,113.48Z"/><path class="cls-1" d="M77.28,113.48c3.11-.23,3.14,4.51.21,4.56a2.3,2.3,0,0,1-2.36-2.25A2.18,2.18,0,0,1,77.28,113.48Z"/><path class="cls-1" d="M64.35,113.53c2.79-.4,3.43,3.41,1.26,4.31a2.3,2.3,0,0,1-3-3A2.09,2.09,0,0,1,64.35,113.53Z"/><path class="cls-1" d="M83.55,113.53a2.22,2.22,0,0,1,2.55,2.21c0,2.77-4.5,3.08-4.5,0A2.08,2.08,0,0,1,83.55,113.53Z"/><path class="cls-1" d="M58,113.58a2.13,2.13,0,0,1,2.51,2.26,2.2,2.2,0,0,1-2.06,2.1C55.5,118.1,55.38,113.93,58,113.58Z"/><path class="cls-1" d="M90,113.58a2.16,2.16,0,0,1,2.46,2.11c.06,3-4.36,2.8-4.41.1A2.1,2.1,0,0,1,90,113.58Z"/><path class="cls-1" d="M51.57,113.68a2.1,2.1,0,0,1,2.36,2.81c-.86,2.44-5,1.28-4-1.5A2.1,2.1,0,0,1,51.57,113.68Z"/><path class="cls-1" d="M96.28,113.68a2,2,0,0,1,2.4,2.21c-.15,2.63-4,2.46-4.21,0A2,2,0,0,1,96.28,113.68Z"/><path class="cls-1" d="M45.26,113.78a2,2,0,0,1,2.31,2.06c-.11,2.69-4.11,2.31-4-.2A1.89,1.89,0,0,1,45.26,113.78Z"/><path class="cls-1" d="M102.49,113.84a2.68,2.68,0,0,1,1.11,0,2,2,0,0,1,1.2,2.61c-.62,1.65-3.47,1.61-3.81-.3A1.93,1.93,0,0,1,102.49,113.84Z"/><path class="cls-1" d="M38.84,113.93a1.87,1.87,0,0,1,1.06,3.56,1.94,1.94,0,0,1-2.56-1.4A1.81,1.81,0,0,1,38.84,113.93Z"/><path class="cls-1" d="M109.26,113.93a2,2,0,0,1,1.75,1c1.18,2.39-2.38,3.58-3.3,1.7A1.84,1.84,0,0,1,109.26,113.93Z"/><path class="cls-1" d="M32.63,114.09a1.68,1.68,0,0,1,1.86,1.6c.06,2.69-4.2,1.93-3.31-.55A1.58,1.58,0,0,1,32.63,114.09Z"/><path class="cls-1" d="M115.42,114.13a1.67,1.67,0,0,1,1,3.16C114.18,118.15,113.08,114.53,115.42,114.13Z"/><path class="cls-1" d="M26.07,114.34a1.46,1.46,0,0,1,1.8,1.75,1.5,1.5,0,0,1-2.91-.7A1.37,1.37,0,0,1,26.07,114.34Z"/><path class="cls-1" d="M122,114.34c1.91-.16,1.94,2.8.15,2.85A1.43,1.43,0,0,1,122,114.34Z"/><path class="cls-1" d="M19.85,114.59a1.18,1.18,0,1,1,.25,2.35A1.18,1.18,0,0,1,19.85,114.59Z"/><path class="cls-1" d="M128.25,114.64a1.09,1.09,0,0,1,1.41,1,1.16,1.16,0,0,1-2.31.1A1,1,0,0,1,128.25,114.64Z"/><path class="cls-1" d="M13.64,114.84a1,1,0,0,1,.7,1.6C13.14,117.52,11.87,115,13.64,114.84Z"/><path class="cls-1" d="M134.62,114.89c1.6-.41,1.39,2,0,1.75C134,116.51,133.56,115.16,134.62,114.89Z"/><path class="cls-1" d="M64.4,120.1a2,2,0,0,1,2.36,1.8,2,2,0,1,1-2.36-1.8Z"/><path class="cls-1" d="M70.62,120.1a2,2,0,0,1,2.5,2.45c-.4,2.33-3.78,1.86-4.1,0a2,2,0,0,1,1.6-2.45Z"/><path class="cls-1" d="M77,120.1a2.05,2.05,0,0,1,2.51,2.45c-.41,2.33-3.78,1.86-4.11,0a2.19,2.19,0,0,1,.7-2A2.16,2.16,0,0,1,77,120.1Z"/><path class="cls-1" d="M83.65,120.1c2.76-.3,2.95,4.06.2,4.06a2.08,2.08,0,0,1-2.06-2A1.91,1.91,0,0,1,83.65,120.1Z"/><path class="cls-1" d="M58.09,120.15a2,2,0,0,1,2.21,1.9c.06,2.76-4,2.54-4,.1A1.85,1.85,0,0,1,58.09,120.15Z"/><path class="cls-1" d="M90.06,120.15a2,2,0,0,1,2.16,1.95c0,2.7-4,2.47-4,.05A1.89,1.89,0,0,1,90.06,120.15Z"/><path class="cls-1" d="M51.63,120.25a1.89,1.89,0,0,1,2.1,2.55c-.74,2.06-4.56,1.25-3.61-1.4A1.72,1.72,0,0,1,51.63,120.25Z"/><path class="cls-1" d="M96.33,120.25a1.86,1.86,0,0,1,2.16,1.85c0,2.54-3.76,2.4-3.82.05A1.76,1.76,0,0,1,96.33,120.25Z"/><path class="cls-1" d="M45.36,120.35a1.77,1.77,0,0,1,2,1.7c.05,2.5-3.56,2.28-3.61.1A1.66,1.66,0,0,1,45.36,120.35Z"/><path class="cls-1" d="M102.54,120.4a1.75,1.75,0,0,1,2.16,2.1c-.36,2-3.22,1.59-3.51,0A1.71,1.71,0,0,1,102.54,120.4Z"/><path class="cls-1" d="M39,120.5a1.65,1.65,0,0,1,1.35,2.81c-1.57,1.5-3.71-.81-2.41-2.31A1.54,1.54,0,0,1,39,120.5Z"/><path class="cls-1" d="M109,120.55a1.62,1.62,0,0,1,2,2c-.36,1.83-3.66,1.51-3.2-.8A1.56,1.56,0,0,1,109,120.55Z"/><path class="cls-1" d="M32.48,120.7a1.66,1.66,0,0,1,1.3.3c1.41,1.28-.66,3.54-2.05,2.15A1.47,1.47,0,0,1,32.48,120.7Z"/><path class="cls-1" d="M115.62,120.7c1.91-.16,1.94,2.81.15,2.86A1.43,1.43,0,0,1,115.62,120.7Z"/><path class="cls-1" d="M26.27,120.9a1.17,1.17,0,0,1,1.4,1.2,1.26,1.26,0,0,1-2.51,0A1.14,1.14,0,0,1,26.27,120.9Z"/><path class="cls-1" d="M121.89,121c1.73-.29,1.82,2.3.25,2.36A1.19,1.19,0,0,1,121.89,121Z"/><path class="cls-1" d="M19.8,121.2c1.6-.37,1.54,2.15,0,1.86C19.13,122.93,18.63,121.47,19.8,121.2Z"/><path class="cls-1" d="M128.35,121.2c1.47-.24,1.31,1.86.15,1.86A.94.94,0,0,1,128.35,121.2Z"/><path class="cls-1" d="M70.87,126.71a1.78,1.78,0,0,1,2,1.81c0,2.84-4.74,2-3.55-.75A1.66,1.66,0,0,1,70.87,126.71Z"/><path class="cls-1" d="M77.23,126.71a1.79,1.79,0,0,1,2.06,1.81c0,2.84-4.75,2-3.56-.75A1.66,1.66,0,0,1,77.23,126.71Z"/><path class="cls-1" d="M64.35,126.77a1.79,1.79,0,0,1,2.16,2.1c-.3,2-3.33,1.82-3.61,0A1.74,1.74,0,0,1,64.35,126.77Z"/><path class="cls-1" d="M83.55,126.77a1.77,1.77,0,0,1,2.1,2c-.21,2.2-3.38,1.92-3.6.05A1.7,1.7,0,0,1,83.55,126.77Z"/><path class="cls-1" d="M58,126.81c2.61-.44,2.67,3.71.1,3.46A1.76,1.76,0,0,1,58,126.81Z"/><path class="cls-1" d="M90,126.81a1.72,1.72,0,0,1,2,1.66c.06,2.43-3.42,2.22-3.51.15A1.66,1.66,0,0,1,90,126.81Z"/><path class="cls-1" d="M51.57,126.92a1.65,1.65,0,0,1,2,2,1.69,1.69,0,0,1-3.31-.7A1.55,1.55,0,0,1,51.57,126.92Z"/><path class="cls-1" d="M96.28,126.92a1.66,1.66,0,0,1,1,3.15C95,130.93,93.93,127.31,96.28,126.92Z"/><path class="cls-1" d="M45.36,127a1.46,1.46,0,0,1,1.76,1.51,1.56,1.56,0,0,1-3.11,0A1.41,1.41,0,0,1,45.36,127Z"/><path class="cls-1" d="M102.54,127.07a1.51,1.51,0,0,1,1.91,1.85c-.37,1.77-3.65,1.3-3-.85A1.32,1.32,0,0,1,102.54,127.07Z"/><path class="cls-1" d="M39.05,127.16a1.38,1.38,0,1,1,.2,2.76A1.38,1.38,0,0,1,39.05,127.16Z"/><path class="cls-1" d="M109,127.22c2.24-.51,2.17,3.08,0,2.65C108,129.67,107.48,127.56,109,127.22Z"/><path class="cls-1" d="M32.58,127.37a1.18,1.18,0,1,1,.25,2.35A1.18,1.18,0,0,1,32.58,127.37Z"/><path class="cls-1" d="M115.47,127.42a1.09,1.09,0,0,1,1.41,1,1.16,1.16,0,0,1-2.31.1A1,1,0,0,1,115.47,127.42Z"/><path class="cls-1" d="M26.17,127.62c1.6-.37,1.53,2.14,0,1.85C25.5,129.35,25,127.88,26.17,127.62Z"/><path class="cls-1" d="M121.94,127.62c1.47-.24,1.3,1.85.15,1.85A.93.93,0,0,1,121.94,127.62Z"/><path class="cls-1" d="M64.51,133.38a1.45,1.45,0,0,1,1.75,1.5,1.56,1.56,0,0,1-3.11.05A1.41,1.41,0,0,1,64.51,133.38Z"/><path class="cls-1" d="M70.72,133.38a1.57,1.57,0,0,1,1.9,1.15c.44,2.5-3.55,2.51-3.1,0A1.5,1.5,0,0,1,70.72,133.38Z"/><path class="cls-1" d="M77.13,133.38a1.55,1.55,0,1,1,0,3.06A1.55,1.55,0,0,1,77.13,133.38Z"/><path class="cls-1" d="M83.45,133.43a1.51,1.51,0,0,1,1.9,1.85c-.36,1.77-3.65,1.31-2.95-.85A1.33,1.33,0,0,1,83.45,133.43Z"/><path class="cls-1" d="M57.89,133.48a1.44,1.44,0,0,1,1.8,1.85,1.47,1.47,0,0,1-2.8-.9A1.34,1.34,0,0,1,57.89,133.48Z"/><path class="cls-1" d="M89.86,133.48a1.46,1.46,0,0,1,1.81,1.75c-.33,1.67-3.33,1.42-2.91-.7A1.37,1.37,0,0,1,89.86,133.48Z"/><path class="cls-1" d="M51.78,133.53a1.38,1.38,0,1,1,.2,2.76A1.38,1.38,0,0,1,51.78,133.53Z"/><path class="cls-1" d="M96.23,133.58c2.25-.51,2.17,3.08,0,2.66C95.19,136,94.7,133.92,96.23,133.58Z"/><path class="cls-1" d="M45.31,133.68a1.22,1.22,0,0,1,1.46,1.65c-.43,1.3-3,1-2.41-.9A1.2,1.2,0,0,1,45.31,133.68Z"/><path class="cls-1" d="M102.79,133.68a1.18,1.18,0,0,1,1.41,1.2,1.26,1.26,0,0,1-2.51,0A1.14,1.14,0,0,1,102.79,133.68Z"/><path class="cls-1" d="M39.05,133.83a1,1,0,0,1,1.25,1,1.11,1.11,0,0,1-2.21,0A1,1,0,0,1,39.05,133.83Z"/><path class="cls-1" d="M109.11,133.88c1.81-.41,1.55,2.59-.15,2A1.06,1.06,0,0,1,109.11,133.88Z"/><path class="cls-1" d="M32.53,134c1.6-.41,1.39,2.05,0,1.75C31.93,135.66,31.47,134.3,32.53,134Z"/><path class="cls-1" d="M115.47,134c1.61-.41,1.39,2.05,0,1.75C114.87,135.66,114.42,134.3,115.47,134Z"/><path class="cls-1" d="M70.87,140a1.16,1.16,0,0,1,1.45,1.21,1.25,1.25,0,0,1-2.5,0A1.13,1.13,0,0,1,70.87,140Z"/><path class="cls-1" d="M77.23,140a1.17,1.17,0,0,1,1.46,1.21,1.26,1.26,0,0,1-2.51,0A1.14,1.14,0,0,1,77.23,140Z"/><path class="cls-1" d="M64.4,140.1c2-.45,1.95,2.73,0,2.35A1.22,1.22,0,0,1,64.4,140.1Z"/><path class="cls-1" d="M83.65,140.1a1.18,1.18,0,1,1,.25,2.35A1.18,1.18,0,0,1,83.65,140.1Z"/><path class="cls-1" d="M58.19,140.15a1.12,1.12,0,0,1,1.15,1.6c-.53,1.19-2.79.53-2.1-1A1.13,1.13,0,0,1,58.19,140.15Z"/><path class="cls-1" d="M89.86,140.2c1.69-.52,1.88,1.87.71,2.15A1.13,1.13,0,0,1,89.86,140.2Z"/><path class="cls-1" d="M51.78,140.25a1,1,0,0,1,.9,1.75C51.42,143.26,49.89,140.52,51.78,140.25Z"/><path class="cls-1" d="M96.33,140.3c1.61-.37,1.57,2.24,0,1.95A1,1,0,0,1,96.33,140.3Z"/><path class="cls-1" d="M45.41,140.35c1.47-.24,1.3,1.85.15,1.85A.93.93,0,0,1,45.41,140.35Z"/><path class="cls-1" d="M102.69,140.39c1.6-.4,1.39,2.06,0,1.76C102.09,142,101.64,140.66,102.69,140.39Z"/><path class="cls-1" d="M40.05,141.45a13.92,13.92,0,0,1-1.51-.7A.85.85,0,0,1,40.05,141.45Z"/><path class="cls-1" d="M109.56,140.39c-.21.31-.71.33-1,.61C108.6,140.67,109,140.33,109.56,140.39Z"/><path class="cls-1" d="M64.6,146.76c1.28-.17,1.23,1.71.16,1.76S63.42,146.92,64.6,146.76Z"/><path class="cls-1" d="M70.82,146.76c1.6-.41,1.39,2.05,0,1.76C70.22,148.39,69.76,147,70.82,146.76Z"/><path class="cls-1" d="M77.19,146.76c1.6-.41,1.38,2.05,0,1.76C76.59,148.39,76.13,147,77.19,146.76Z"/><path class="cls-1" d="M83.75,146.76c1.28-.17,1.23,1.71.15,1.76S82.56,146.92,83.75,146.76Z"/><path class="cls-1" d="M59.09,148a13.8,13.8,0,0,1-1.65-.3C57.36,146.33,59.58,146.62,59.09,148Z"/><path class="cls-1" d="M91.07,147.41a10.71,10.71,0,0,1-1.71.4A.88.88,0,0,1,91.07,147.41Z"/><path class="cls-1" d="M96,1.52c.19-.05.51.2.8.21A.74.74,0,0,1,96,1.52Z"/></g></g></svg>