<svg xmlns="http://www.w3.org/2000/svg" viewBox="0 0 610.8 30.75"><defs><style>.cls-1{fill:#1d1714;}</style></defs><title>57b9d184-60b4-4bf0-a4a2-c39e5a8a3e8f</title><g id="Layer_2" data-name="Layer 2"><g id="Layer_1-2" data-name="Layer 1"><g id="_57b9d184-60b4-4bf0-a4a2-c39e5a8a3e8f" data-name="57b9d184-60b4-4bf0-a4a2-c39e5a8a3e8f"><g id="a891f71d-4062-414b-a85f-24387852c209"><path class="cls-1" d="M18.89,17.58q0,6.68-2.28,9.92T9.48,30.75c-3.19,0-5.56-1.06-7.09-3.17S.05,22.3,0,18.09V13q0-6.59,2.28-9.8C3.81,1.07,6.19,0,9.44,0S15,1,16.55,3.1s2.3,5.24,2.34,9.54Zm-3.8-5.2q0-4.83-1.36-7A4.66,4.66,0,0,0,9.44,3.13a4.6,4.6,0,0,0-4.26,2.2Q3.85,7.54,3.8,12.09v6.08q0,4.84,1.41,7.17a4.67,4.67,0,0,0,4.27,2.31,4.6,4.6,0,0,0,4.18-2.18Q15,23.3,15.09,18.6ZM84,8.23a6.91,6.91,0,0,1-1.18,4A8,8,0,0,1,79.62,15a8.5,8.5,0,0,1,3.71,2.94,7.39,7.39,0,0,1,1.37,4.37,7.81,7.81,0,0,1-2.62,6.19,10.11,10.11,0,0,1-6.9,2.3,10,10,0,0,1-6.91-2.31,7.87,7.87,0,0,1-2.6-6.18A7.63,7.63,0,0,1,67,17.89a8.23,8.23,0,0,1,3.67-3,7.83,7.83,0,0,1-3.14-2.74,7,7,0,0,1-1.15-4,7.76,7.76,0,0,1,2.42-6A9.1,9.1,0,0,1,75.18,0a9.14,9.14,0,0,1,6.39,2.22A7.73,7.73,0,0,1,84,8.23Zm-3.1,14a5.48,5.48,0,0,0-1.6-4.09,5.66,5.66,0,0,0-4.16-1.58,5.35,5.35,0,0,0-5.67,5.67,5.3,5.3,0,0,0,1.51,4,6.75,6.75,0,0,0,8.4,0,5.31,5.31,0,0,0,1.52-4Zm-5.72-19a4.87,4.87,0,0,0-3.62,1.39,5.07,5.07,0,0,0-1.39,3.77A5.08,5.08,0,0,0,71.54,12a5.45,5.45,0,0,0,7.29,0A5.08,5.08,0,0,0,80.2,8.29a5.06,5.06,0,0,0-1.42-3.72,4.85,4.85,0,0,0-3.6-1.44Zm61.93,10.4H140a6.29,6.29,0,0,0,4.23-1.42,4.73,4.73,0,0,0,1.54-3.72q0-5.26-5.24-5.26a5.45,5.45,0,0,0-3.94,1.41,4.91,4.91,0,0,0-1.47,3.73h-3.8a7.65,7.65,0,0,1,2.6-5.91,10.69,10.69,0,0,1,13.25-.12,8.1,8.1,0,0,1,2.4,6.23,6.58,6.58,0,0,1-1.26,3.78A7.73,7.73,0,0,1,144.84,15a7.35,7.35,0,0,1,3.81,2.59A7.25,7.25,0,0,1,150,22a8.19,8.19,0,0,1-2.63,6.39,9.86,9.86,0,0,1-6.84,2.36,10.1,10.1,0,0,1-6.85-2.28,7.55,7.55,0,0,1-2.65-6h3.83a4.89,4.89,0,0,0,1.54,3.78,5.84,5.84,0,0,0,4.13,1.42,5.75,5.75,0,0,0,4.21-1.44,5.56,5.56,0,0,0,1.46-4.13,5,5,0,0,0-1.6-4A7,7,0,0,0,140,16.63h-2.86Zm78.34-5.3a6.91,6.91,0,0,1-1.18,4A8,8,0,0,1,211.08,15a8.56,8.56,0,0,1,3.71,2.94,7.38,7.38,0,0,1,1.36,4.37,7.81,7.81,0,0,1-2.62,6.19,11.5,11.5,0,0,1-13.81,0,7.87,7.87,0,0,1-2.6-6.18,7.56,7.56,0,0,1,1.33-4.37,8.13,8.13,0,0,1,3.67-3A7.86,7.86,0,0,1,199,12.19a7,7,0,0,1-1.15-4,7.73,7.73,0,0,1,2.43-6,10.29,10.29,0,0,1,12.77,0A7.73,7.73,0,0,1,215.45,8.23Zm-3.1,14a5.52,5.52,0,0,0-1.59-4.09,5.66,5.66,0,0,0-4.16-1.58,5.36,5.36,0,0,0-5.68,5.67,5.3,5.3,0,0,0,1.51,4,6.75,6.75,0,0,0,8.4,0,5.31,5.31,0,0,0,1.52-4Zm-5.71-19A4.91,4.91,0,0,0,203,4.52a5.07,5.07,0,0,0-1.39,3.77A5.08,5.08,0,0,0,203,12a5.46,5.46,0,0,0,7.3,0,5.08,5.08,0,0,0,1.36-3.69,5.06,5.06,0,0,0-1.42-3.72A4.81,4.81,0,0,0,206.64,3.13Zm58.14,12.21L266.3.42h15.33V3.93h-12.1l-.91,8.16a9.61,9.61,0,0,1,5-1.3,8.22,8.22,0,0,1,6.49,2.71,10.54,10.54,0,0,1,2.41,7.3,10.19,10.19,0,0,1-2.5,7.29,9.13,9.13,0,0,1-7,2.66,9.43,9.43,0,0,1-6.47-2.2,8.77,8.77,0,0,1-2.86-6.08h3.6a6,6,0,0,0,1.83,3.87,5.69,5.69,0,0,0,3.9,1.31,5.12,5.12,0,0,0,4.16-1.81,7.56,7.56,0,0,0,1.51-5A6.91,6.91,0,0,0,277.08,16a5.57,5.57,0,0,0-4.35-1.82,6.25,6.25,0,0,0-3.9,1.09l-1,.82Zm82.74,2.24q0,6.68-2.28,9.92t-7.13,3.25c-3.19,0-5.56-1.06-7.09-3.17s-2.33-5.28-2.38-9.49V13q0-6.59,2.28-9.8T338.07,0q4.83,0,7.11,3.1t2.34,9.54Zm-3.8-5.2q0-4.83-1.35-7a4.69,4.69,0,0,0-4.3-2.21,4.59,4.59,0,0,0-4.25,2.2q-1.33,2.21-1.38,6.76v6.08q0,4.84,1.41,7.17a5.09,5.09,0,0,0,8.44.13q1.36-2.17,1.43-6.87Zm52.51,3L397.75.42h15.34V3.93H401l-.9,8.16a9.6,9.6,0,0,1,5-1.3,8.25,8.25,0,0,1,6.5,2.71,10.58,10.58,0,0,1,2.4,7.3,10.19,10.19,0,0,1-2.5,7.29,9.09,9.09,0,0,1-7,2.66,9.44,9.44,0,0,1-6.48-2.2,8.77,8.77,0,0,1-2.85-6.08h3.59a6,6,0,0,0,1.83,3.87,5.7,5.7,0,0,0,3.91,1.31,5.12,5.12,0,0,0,4.16-1.81,7.56,7.56,0,0,0,1.51-5A6.91,6.91,0,0,0,408.53,16a5.55,5.55,0,0,0-4.34-1.82,6.26,6.26,0,0,0-3.91,1.09l-1,.82Zm76.48,15h-3.82V5l-7.67,2.81V4.36L472.11.27h.6ZM545.26,2.55,532.87,30.34h-4l12.35-26.8H525V.42h20.22ZM606.59.4V3.62h-.7a10,10,0,0,0-7.07,2.63,11,11,0,0,0-3,7.18,8.1,8.1,0,0,1,6.45-2.72,7.74,7.74,0,0,1,6.24,2.76,10.62,10.62,0,0,1,2.33,7.11,10.59,10.59,0,0,1-2.52,7.4,8.64,8.64,0,0,1-6.75,2.77,8.53,8.53,0,0,1-7-3.3,13,13,0,0,1-2.68-8.5V17.49q0-8.26,3.53-12.62T605.91.4Zm-5,13.48A6.38,6.38,0,0,0,595.72,18v1.4a9.83,9.83,0,0,0,1.66,6,5,5,0,0,0,4.15,2.26,4.84,4.84,0,0,0,4-1.89,7.89,7.89,0,0,0,1.47-5,7.87,7.87,0,0,0-1.49-5,4.76,4.76,0,0,0-4-1.9Z"/></g></g></g></g></svg>