<svg xmlns="http://www.w3.org/2000/svg" viewBox="0 0 392.94 301.19"><defs><style>.cls-1{fill:#0d1c27;}</style></defs><title>256597a8-48cb-4ef7-8b4f-b51e7cea668cmdpi</title><g id="Layer_2" data-name="Layer 2"><g id="Layer_1-2" data-name="Layer 1"><g id="_256597a8-48cb-4ef7-8b4f-b51e7cea668c" data-name="256597a8-48cb-4ef7-8b4f-b51e7cea668c"><g id="_256597a8-48cb-4ef7-8b4f-b51e7cea668c-child-0" data-name="256597a8-48cb-4ef7-8b4f-b51e7cea668c-child-0"><path class="cls-1" d="M378.29,300.15V0h14.65V300.15Z"/></g><g id="_256597a8-48cb-4ef7-8b4f-b51e7cea668c-child-1" data-name="256597a8-48cb-4ef7-8b4f-b51e7cea668c-child-1"><path class="cls-1" d="M364.2,300.15V0h4.85V300.15Z"/></g><g id="_256597a8-48cb-4ef7-8b4f-b51e7cea668c-child-2" data-name="256597a8-48cb-4ef7-8b4f-b51e7cea668c-child-2"><path class="cls-1" d="M341.12,300.15V0h13V300.15Z"/></g><g id="_256597a8-48cb-4ef7-8b4f-b51e7cea668c-child-3" data-name="256597a8-48cb-4ef7-8b4f-b51e7cea668c-child-3"><path class="cls-1" d="M322.14,254.7V0h13V254.7Z"/></g><g id="_256597a8-48cb-4ef7-8b4f-b51e7cea668c-child-4" data-name="256597a8-48cb-4ef7-8b4f-b51e7cea668c-child-4"><path class="cls-1" d="M307.21,254.7V0h4.85V254.7Z"/></g><g id="_256597a8-48cb-4ef7-8b4f-b51e7cea668c-child-5" data-name="256597a8-48cb-4ef7-8b4f-b51e7cea668c-child-5"><path class="cls-1" d="M285.76,254.7V0h9.75V254.7Z"/></g><g id="_256597a8-48cb-4ef7-8b4f-b51e7cea668c-child-6" data-name="256597a8-48cb-4ef7-8b4f-b51e7cea668c-child-6"><path class="cls-1" d="M262.7,254.7V0h17.9V254.7Z"/></g><g id="_256597a8-48cb-4ef7-8b4f-b51e7cea668c-child-7" data-name="256597a8-48cb-4ef7-8b4f-b51e7cea668c-child-7"><path class="cls-1" d="M249.4,254.7V0h6.5V254.7Z"/></g><g id="_256597a8-48cb-4ef7-8b4f-b51e7cea668c-child-8" data-name="256597a8-48cb-4ef7-8b4f-b51e7cea668c-child-8"><path class="cls-1" d="M228,254.7V0h11.4V254.7Z"/></g><g id="_256597a8-48cb-4ef7-8b4f-b51e7cea668c-child-9" data-name="256597a8-48cb-4ef7-8b4f-b51e7cea668c-child-9"><path class="cls-1" d="M204.09,255V0h21.14V255Z"/></g><g id="_256597a8-48cb-4ef7-8b4f-b51e7cea668c-child-10" data-name="256597a8-48cb-4ef7-8b4f-b51e7cea668c-child-10"><path class="cls-1" d="M192.41,255V0h6.5V255Z"/></g><g id="_256597a8-48cb-4ef7-8b4f-b51e7cea668c-child-11" data-name="256597a8-48cb-4ef7-8b4f-b51e7cea668c-child-11"><path class="cls-1" d="M170.17,254.7V0h13V254.7Z"/></g><g id="_256597a8-48cb-4ef7-8b4f-b51e7cea668c-child-12" data-name="256597a8-48cb-4ef7-8b4f-b51e7cea668c-child-12"><path class="cls-1" d="M155.24,254.7V0h4.85V254.7Z"/></g><g id="_256597a8-48cb-4ef7-8b4f-b51e7cea668c-child-13" data-name="256597a8-48cb-4ef7-8b4f-b51e7cea668c-child-13"><path class="cls-1" d="M133.79,254.7V0h9.75V254.7Z"/></g><g id="_256597a8-48cb-4ef7-8b4f-b51e7cea668c-child-14" data-name="256597a8-48cb-4ef7-8b4f-b51e7cea668c-child-14"><path class="cls-1" d="M110.74,254.7V0h17.9V254.7Z"/></g><g id="_256597a8-48cb-4ef7-8b4f-b51e7cea668c-child-15" data-name="256597a8-48cb-4ef7-8b4f-b51e7cea668c-child-15"><path class="cls-1" d="M97.43,254.7V0h6.5V254.7Z"/></g><g id="_256597a8-48cb-4ef7-8b4f-b51e7cea668c-child-16" data-name="256597a8-48cb-4ef7-8b4f-b51e7cea668c-child-16"><path class="cls-1" d="M76,254.7V0h11.4V254.7Z"/></g><g id="_256597a8-48cb-4ef7-8b4f-b51e7cea668c-child-17" data-name="256597a8-48cb-4ef7-8b4f-b51e7cea668c-child-17"><path class="cls-1" d="M57.81,254.7V0h9.75V254.7Z"/></g><g id="_256597a8-48cb-4ef7-8b4f-b51e7cea668c-child-18" data-name="256597a8-48cb-4ef7-8b4f-b51e7cea668c-child-18"><path class="cls-1" d="M34.75,254.7V0h17.9V254.7Z"/></g><g id="_256597a8-48cb-4ef7-8b4f-b51e7cea668c-child-19" data-name="256597a8-48cb-4ef7-8b4f-b51e7cea668c-child-19"><path class="cls-1" d="M21.45,300.31V0H28v300.3Z"/></g><g id="_256597a8-48cb-4ef7-8b4f-b51e7cea668c-child-20" data-name="256597a8-48cb-4ef7-8b4f-b51e7cea668c-child-20"><path class="cls-1" d="M0,300.31V0H11.4v300.3Z"/></g><g id="_256597a8-48cb-4ef7-8b4f-b51e7cea668c-child-21" data-name="256597a8-48cb-4ef7-8b4f-b51e7cea668c-child-21"><path class="cls-1" d="M74.83,286.18c0,9.46-3.49,14.55-9.7,14.55-5.43,0-9.12-5.09-9.19-14.28s4-14.55,9.7-14.55S74.83,277.43,74.83,286.18Zm-15.08.44c0,7.27,2.23,11.32,5.65,11.32,3.83,0,5.67-4.48,5.67-11.59S69.33,275,65.42,275c-3.27.1-5.67,4.13-5.67,11.69Z"/></g><g id="_256597a8-48cb-4ef7-8b4f-b51e7cea668c-child-22" data-name="256597a8-48cb-4ef7-8b4f-b51e7cea668c-child-22"><path class="cls-1" d="M94.16,275.34a13.15,13.15,0,0,0-2.81.17,11.3,11.3,0,0,0-9.7,9.87h0A8.48,8.48,0,0,1,97,291.15a9.26,9.26,0,0,1-9.24,9.7c-5.94,0-9.7-4.6-9.7-11.83a17.54,17.54,0,0,1,4.39-12.54,15.19,15.19,0,0,1,8.9-4.1,17.87,17.87,0,0,1,2.74-.22Zm-1.07,16a5.57,5.57,0,0,0-1.4-4.51A5.66,5.66,0,0,0,87.32,285a6.19,6.19,0,0,0-5.38,3.42,3.4,3.4,0,0,0-.44,1.68c0,4.58,2.18,8,6.11,8C90.91,298,93.09,295.35,93.09,291.37Z"/></g><g id="_256597a8-48cb-4ef7-8b4f-b51e7cea668c-child-23" data-name="256597a8-48cb-4ef7-8b4f-b51e7cea668c-child-23"><path class="cls-1" d="M116.09,275.34a13.24,13.24,0,0,0-2.82.17,11.29,11.29,0,0,0-9.7,9.87h.12a8.47,8.47,0,0,1,15.16,5.77,9.28,9.28,0,0,1-9.24,9.7c-5.94,0-9.7-4.6-9.7-11.83a17.45,17.45,0,0,1,4.56-12.54,15.16,15.16,0,0,1,8.87-4.1,17.9,17.9,0,0,1,2.75-.22Zm-1.07,16a5.61,5.61,0,0,0-1.41-4.51,5.72,5.72,0,0,0-4.32-1.87,6.28,6.28,0,0,0-5.38,3.42,3.4,3.4,0,0,0-.44,1.68c0,4.58,2.19,8,6.12,8C112.84,298,115,295.35,115,291.37Z"/></g><g id="_256597a8-48cb-4ef7-8b4f-b51e7cea668c-child-24" data-name="256597a8-48cb-4ef7-8b4f-b51e7cea668c-child-24"><path class="cls-1" d="M140.22,272.7v2.42l-12.13,25.32h-3.88l12.13-24.59H122.75v-3.11Z"/></g><g id="_256597a8-48cb-4ef7-8b4f-b51e7cea668c-child-25" data-name="256597a8-48cb-4ef7-8b4f-b51e7cea668c-child-25"><path class="cls-1" d="M143.76,293.46a7.93,7.93,0,0,1,5.5-7.45h0a6.92,6.92,0,0,1-4.39-6.26c0-4.39,3.71-7.39,8.59-7.39,5.38,0,8.07,3.39,8.07,6.84a7,7,0,0,1-4.55,6.5v.14a7.68,7.68,0,0,1,5.6,7.28c0,4.85-4.15,8.07-9.46,8.07C147.25,301,143.76,297.48,143.76,293.46Zm15-.17c0-3.4-2.42-5-6.11-6.09a6,6,0,0,0-5,5.72,5.14,5.14,0,0,0,1.6,3.91,6.48,6.48,0,0,0,7.86.14,4.94,4.94,0,0,0,1.67-3.71Zm-10.35-13.9c0,2.76,2.11,4.27,5.31,5.12a5.45,5.45,0,0,0,4.22-5.05,4.34,4.34,0,0,0-1.31-3.34,4.27,4.27,0,0,0-3.4-1.19,4.46,4.46,0,0,0-3.39,1.16,4.39,4.39,0,0,0-1.43,3.28Z"/></g><g id="_256597a8-48cb-4ef7-8b4f-b51e7cea668c-child-26" data-name="256597a8-48cb-4ef7-8b4f-b51e7cea668c-child-26"><path class="cls-1" d="M184.07,272.7v2.42l-12.13,25.32h-3.86l12.13-24.59H166.53v-3.11Z"/></g><g id="_256597a8-48cb-4ef7-8b4f-b51e7cea668c-child-27" data-name="256597a8-48cb-4ef7-8b4f-b51e7cea668c-child-27"><path class="cls-1" d="M206,272.7v2.42l-12,25.37h-4l12.12-24.59H188.55v-3.11Z"/></g><g id="_256597a8-48cb-4ef7-8b4f-b51e7cea668c-child-28" data-name="256597a8-48cb-4ef7-8b4f-b51e7cea668c-child-28"><path class="cls-1" d="M210.79,296.15a12.4,12.4,0,0,0,6.16,1.77c4.85,0,6.33-3.08,6.28-5.39,0-3.9-3.54-5.57-7.27-5.57h-2.11v-2.82H216c2.74,0,6.18-1.4,6.18-4.7,0-2.21-1.4-4.2-4.85-4.2a10.37,10.37,0,0,0-5.55,1.85l-1-2.74a13.15,13.15,0,0,1,7.27-2.14c5.48,0,8,3.25,8,6.65a6.85,6.85,0,0,1-5.12,6.52h0a7.28,7.28,0,0,1,6.19,7.13c0,4.44-3.45,8.34-10.12,8.34a13.86,13.86,0,0,1-7.27-1.89Z"/></g><g id="_256597a8-48cb-4ef7-8b4f-b51e7cea668c-child-29" data-name="256597a8-48cb-4ef7-8b4f-b51e7cea668c-child-29"><path class="cls-1" d="M231.82,300.49v-2.43l3-2.86c7.1-6.74,10.3-10.33,10.35-14.55a5,5,0,0,0-1.45-4,5.07,5.07,0,0,0-4.08-1.38,9.55,9.55,0,0,0-5.89,2.42L232.5,275a12.27,12.27,0,0,1,7.88-2.84,7.8,7.8,0,0,1,8.51,8.08c0,5.14-3.73,9.29-9.7,14.94l-2.23,2h12.49v3.12Z"/></g><g id="_256597a8-48cb-4ef7-8b4f-b51e7cea668c-child-30" data-name="256597a8-48cb-4ef7-8b4f-b51e7cea668c-child-30"><path class="cls-1" d="M256,297.82a15.34,15.34,0,0,0,3,0,10.47,10.47,0,0,0,5.8-2.69,12.08,12.08,0,0,0,3.68-7.28h0a8.21,8.21,0,0,1-6.54,3,8.06,8.06,0,0,1-8.2-8.52,9.53,9.53,0,0,1,9.48-9.87c5.68,0,9.19,4.64,9.19,11.72a17.57,17.57,0,0,1-4.85,13.05,13.78,13.78,0,0,1-8,3.51,15.89,15.89,0,0,1-3.45.22Zm1.36-16a5.33,5.33,0,0,0,5.33,5.89,6.23,6.23,0,0,0,5.48-2.91,2.31,2.31,0,0,0,.34-1.36c0-4.85-1.74-8.39-5.67-8.39C259.52,275.07,257.31,277.91,257.31,281.84Z"/></g><g id="_256597a8-48cb-4ef7-8b4f-b51e7cea668c-child-31" data-name="256597a8-48cb-4ef7-8b4f-b51e7cea668c-child-31"><path class="cls-1" d="M275.35,293.46a7.94,7.94,0,0,1,5.51-7.45h0a6.89,6.89,0,0,1-4.39-6.26c0-4.39,3.71-7.39,8.58-7.39,5.39,0,8.08,3.39,8.08,6.84a7,7,0,0,1-4.56,6.5v.14a7.68,7.68,0,0,1,5.6,7.28c0,4.85-4.15,8.07-9.46,8.07C278.92,301,275.35,297.48,275.35,293.46Zm15-.17c0-3.4-2.43-5-6.12-6.09a6,6,0,0,0-5,5.72,5.21,5.21,0,0,0,1.6,3.91,5.09,5.09,0,0,0,4,1.4,5,5,0,0,0,3.88-1.26,4.92,4.92,0,0,0,1.68-3.71ZM280,279.39c0,2.76,2.11,4.27,5.31,5.12a5.43,5.43,0,0,0,4.22-5.05,4.3,4.3,0,0,0-1.31-3.34,4.25,4.25,0,0,0-3.39-1.19,4.48,4.48,0,0,0-3.4,1.16,4.43,4.43,0,0,0-1.43,3.28Z"/></g><g id="_256597a8-48cb-4ef7-8b4f-b51e7cea668c-child-32" data-name="256597a8-48cb-4ef7-8b4f-b51e7cea668c-child-32"><path class="cls-1" d="M298.51,296.15a12.61,12.61,0,0,0,6.16,1.77c4.85,0,6.33-3.08,6.28-5.39,0-3.9-3.54-5.57-7.27-5.57h-2.09v-2.82h2.09c2.74,0,6.21-1.4,6.21-4.7,0-2.21-1.41-4.2-4.85-4.2a10.19,10.19,0,0,0-5.56,1.85l-1-2.74a13.15,13.15,0,0,1,7.27-2.14c5.46,0,8,3.25,8,6.65a6.89,6.89,0,0,1-5.14,6.52h0a7.27,7.27,0,0,1,6.21,7.13c0,4.44-3.47,8.34-10.14,8.34a13.9,13.9,0,0,1-7.28-1.89Z"/></g></g></g></g></svg>