<svg xmlns="http://www.w3.org/2000/svg" viewBox="0 0 125.12 144.48"><title>Asset 124mdpi</title><g id="Layer_2" data-name="Layer 2"><g id="Layer_1-2" data-name="Layer 1"><path d="M65,66.81l.28.28.32.29c.23.19.45.37.68.54a11.31,11.31,0,0,0,1.46.85,9.1,9.1,0,0,0,6.27.56,7.68,7.68,0,0,0,4.43-3.19,9.58,9.58,0,0,1-5.61,2.67,8.37,8.37,0,0,1-6.09-1.66c-.11.13-.26.17-.68-.58a8.75,8.75,0,0,0,.68.58c.11-.13.22-.34.59-.2a8.23,8.23,0,0,1-1.74-1.33,5.76,5.76,0,0,1-1.19-1.8,6.14,6.14,0,0,1-.06-4.56,9,9,0,0,1-.23-1.54,7.56,7.56,0,0,0-.77,6.36A7.2,7.2,0,0,0,65,66.81Z"/><path d="M63.09,56.07a10,10,0,0,1,.74-.85C62.93,55.78,63,56,63.09,56.07Z"/><path d="M102,51a38.18,38.18,0,0,1-1.08,15.37,35,35,0,0,0,2.22-15.64,24.41,24.41,0,0,0-2.78-8.58,27.86,27.86,0,0,0-5-6.56,30.13,30.13,0,0,1,4.38,7.27A32.81,32.81,0,0,1,102,51Z"/><path d="M71.79,24.16A92.14,92.14,0,0,1,81,27.86a65.12,65.12,0,0,1,7.86,4.32,39.29,39.29,0,0,0-15.35-8C72.91,24.16,72.33,24.14,71.79,24.16Z"/><path d="M90.33,31.47l.93.67.86.64a34.51,34.51,0,0,1,3.24,2.81,29.33,29.33,0,0,0-3.28-3.4c-.57-.5-1.24-1-1.88-1.54s-1.31-1-2-1.41A31.32,31.32,0,0,0,80,25.32a82,82,0,0,1,8.4,4.83C89.07,30.58,89.71,31,90.33,31.47Z"/><path d="M56.11,26.57a27.1,27.1,0,0,0,3.53-1.18A26.59,26.59,0,0,0,63.15,24c.19-.14.05-.24-.55-.24a17.13,17.13,0,0,0-3.36.52A16,16,0,0,0,56.37,26C55.92,26.42,55.88,26.57,56.11,26.57Z"/><path d="M47,68.68c0,.27.1.54.16.8.23.75.5,1.51.8,2.23A22.69,22.69,0,0,1,47,68.68Z"/><path d="M109.92,78a26.8,26.8,0,0,1-3.44,5.54q-1.37,1.74-2.85,3.37A44.17,44.17,0,0,1,100.38,90a41,41,0,0,1-7.46,5.22A38.42,38.42,0,0,0,100.61,90a39.37,39.37,0,0,0,3.25-3.2q1.48-1.64,2.77-3.37a41.26,41.26,0,0,0,7-14.5c-.48,1.38-1.3,2.64-1.9,4A26.92,26.92,0,0,1,109.92,78Z"/><path d="M122.72,60.58a51.9,51.9,0,0,0-.63-15.87c-.15.88-.42.07-.72-.93a7.17,7.17,0,0,0-.79-2.15,78,78,0,0,0-6.65-14.22,57.63,57.63,0,0,0-4.82-6.77c-.9-1.08-1.84-2.13-2.82-3.13s-1.94-1.92-3-2.83c-1.17-1-1-1.24-2.08-2.45C97.92,10.43,94.34,8.61,90.48,7A81,81,0,0,0,78.16,2.86,68.44,68.44,0,0,0,64.63.9a61.46,61.46,0,0,0-13.93,1A70.31,70.31,0,0,0,37,6.25,55.24,55.24,0,0,1,50.7,1.86a66.48,66.48,0,0,1,31.87.93,62.67,62.67,0,0,0-37.86.28,61.37,61.37,0,0,0-23.9,14.48c-1.13,1.1-2.17,2.19-3.2,3.33s-2,2.31-3,3.52A67.87,67.87,0,0,0,1,55.28,69.82,69.82,0,0,0,3.09,87.35,86.83,86.83,0,0,0,14,110.72l-1.68-1.45a64.18,64.18,0,0,0,10.16,12.34,76,76,0,0,0,12.64,9.72c.83.51,1.67,1,2.53,1.49a91.33,91.33,0,0,0,29.87,10.45,90.2,90.2,0,0,0,31.69-.4,85.12,85.12,0,0,0,15.72-4.93c1.85-.91,1-1.13.51-1.46s-.68-.78,2.3-2.28a6.8,6.8,0,0,1-1,.15c-4.46,2.42-8.64,4.26-10.19,4.06-1.06-.33.7-1.28,3.28-2.66a60.28,60.28,0,0,0,8.33-5.17,3,3,0,0,1,.35-.92s.75-.37,1.63-.84l.41-.48c-.4-.25-.35-.74-.18-1.3q-2.9,1.59-5.9,2.91a37.28,37.28,0,0,1,5.74-5.11l0,0,.21-.12,1.71-1.33h0c-3.31,1.32-5.14,1.64-5.92,1.51s-.54-.77.18-1.69,1.91-2.16,3-3.53a16.25,16.25,0,0,0,2.66-4.21c-1,.56-2.12,1.31-3.37,2.18l-.45-.74a47,47,0,0,1-12.09,4.41,55.83,55.83,0,0,1-11.83,1.2,5.5,5.5,0,0,1-2.31-.49,6.44,6.44,0,0,0-3-.27,60.66,60.66,0,0,1-12.2-.14,82.61,82.61,0,0,1-12-2.24,60.76,60.76,0,0,1-23-11.11c-.85-.66-1.67-1.34-2.49-2-.4-.35-.81-.71-1.2-1.07l-1.15-1.07a48.54,48.54,0,0,1-4.08-4.41,47.74,47.74,0,0,1-6.3-10.21q0,.18-.12.21a47.86,47.86,0,0,1-3.46-11.29c-.32-2-.71-3.65-1-5.39a23.72,23.72,0,0,1-.42-5.51,51.43,51.43,0,0,1,5-19.43,50.9,50.9,0,0,1,5.2-8.53q1.5-2,3.21-3.86l.86-.91c.27-.29.54-.56.82-.84.55-.54,1.12-1.07,1.7-1.58s1.42-1.19,2.16-1.75c-.34.31-.67.61-1,.93l-.51.49-.25.25-.22.23c-.3.31-.6.62-.89.94a43.75,43.75,0,0,0-9.86,17.39A45,45,0,0,0,26.48,69.5,43.83,43.83,0,0,0,38.33,93.64c.52.53,1,1,1.58,1.55s1,.92,1.51,1.36c1,.88,2.09,1.73,3.19,2.52a49.66,49.66,0,0,0,14.31,7.21,49,49,0,0,0,30.61-.4,47.4,47.4,0,0,0,19-12.16l.64-.67.58-.65c.39-.44.77-.89,1.15-1.33.75-.9,1.47-1.83,2.17-2.77a99.09,99.09,0,0,0,5.8-12.16A61.51,61.51,0,0,0,122.72,60.58ZM94.79,132.71l-.59-.11c1.24-.34,2.46-.7,3.64-1.07A8,8,0,0,1,94.79,132.71Zm-9.6-.67a112.3,112.3,0,0,0,14-1.94.36.36,0,0,1,0,.24,70.37,70.37,0,0,1-15.24,2.45,50.12,50.12,0,0,1-13.77-1.17A74.77,74.77,0,0,0,85.19,132ZM43.88,114.3l-.06.12-.1-.18ZM12.47,39.1c-1.39.78-1.69-.38-1.09-2.79A35.43,35.43,0,0,1,16,26.57,56.18,56.18,0,0,1,20.12,21a51.42,51.42,0,0,1,5-5.21A48.57,48.57,0,0,1,35,8.87a66.68,66.68,0,0,1,46.66-5c1,1.22.56,1.74-.83,1.77a61.05,61.05,0,0,1-7-.81,77.28,77.28,0,0,0-11.65-.78A60.5,60.5,0,0,0,47.75,6a55,55,0,0,0-14.42,6.1,50.5,50.5,0,0,0-11.48,9.48,47.07,47.07,0,0,0-7,9.94A19.72,19.72,0,0,0,12.47,39.1ZM33.61,27.58a54.88,54.88,0,0,0-6.12,8.11,56.86,56.86,0,0,0-8.08,45,46,46,0,0,0,3.47,9.45,46.92,46.92,0,0,0,5.33,8.37c1.31,1.64,2.57,3.28,3.89,4.86,0,.12,0,.25,0,.39a57.74,57.74,0,0,1-4.71-6c-1.35-1.6-3.11-3.06-3.58-4a32.07,32.07,0,0,1-3.2-6.34,58.78,58.78,0,0,1-2.28-7.62,26.53,26.53,0,0,1-1-7.13c-.08-2.6.07-5.31.21-8,.11-1.08-.3-2.24-.59-2.29.86-3.78,1.35-6.76,2-9.78a30.18,30.18,0,0,1,3.57-9.4c-.71.89-1.41,1.8-2.07,2.74.85-2.11,1.63-4,2.59-5.89a39.66,39.66,0,0,1,3.83-6.3c1.47-1.78,2.66-3.48,3.8-5a20.14,20.14,0,0,1,3.6-3.9,45.23,45.23,0,0,1,14.82-8.29,68.51,68.51,0,0,1,15.35-3.17c-1.23.51-3.6.52-4.76.89-3.47,1.19-8.23,2.33-13.05,4.46a44.57,44.57,0,0,0-7,3.83A34.75,34.75,0,0,0,33.61,27.58Zm23,76.49a38.38,38.38,0,0,1-9.44-4.27,42.08,42.08,0,0,1-4.51-3.25c-.73-.6-1.44-1.24-2.15-1.89S39,93.21,38.32,92.42a40.51,40.51,0,0,1-7-11A42,42,0,0,1,28,68.37,43.91,43.91,0,0,1,33.38,41a45.63,45.63,0,0,1,4-5.9c.37-.47.75-.92,1.14-1.37s.77-.87,1.23-1.36c.9-.94,1.85-1.84,2.84-2.69s1.94-1.59,3-2.32a38.22,38.22,0,0,1,9.11-3.39c1.05-.25,2.13-.45,3.21-.61a38.18,38.18,0,0,0-16,9.37c-.48.47-1,1-1.4,1.45s-.82.93-1.22,1.41c-.79,1-1.55,1.94-2.26,3a34.8,34.8,0,0,0-4.42,10.17A42.51,42.51,0,0,1,36.83,41a43.18,43.18,0,0,1,2.7-3.45c.48-.54,1-1.08,1.47-1.6l.77-.78c.28-.27.56-.55.85-.81a34.21,34.21,0,0,1,9.66-7.44,31.62,31.62,0,0,1,7-2.61,27.93,27.93,0,0,1,3.2-1.36,38.81,38.81,0,0,1,11,1.26A25.78,25.78,0,0,1,80,25.32q-2.13-1.08-4.51-2.11A28.88,28.88,0,0,1,89.29,28a34.6,34.6,0,0,1,3.43,2.52,29.2,29.2,0,0,1,3,2.87,30.77,30.77,0,0,1,4.86,7.08,32.8,32.8,0,0,1,2.82,8.28,35,35,0,0,1,.65,8.55,41.31,41.31,0,0,1-3.62,14.91A33,33,0,0,1,96.32,79l-.64.8c-.22.24-.43.5-.66.75-.44.5-.91,1-1.39,1.44a26.36,26.36,0,0,1-3.14,2.59,28.14,28.14,0,0,1-16,5.09,29.29,29.29,0,0,1-17-5.32,31.52,31.52,0,0,1-3.59-3,23.6,23.6,0,0,1-6.69-11.91,24.22,24.22,0,0,1-1-9.33A24.64,24.64,0,0,1,49,50.78a24.37,24.37,0,0,1,2.82-4.21,20.65,20.65,0,0,1,13.4-7.47,21.43,21.43,0,0,0-8.95,3.64A21,21,0,0,0,52.69,46a26.13,26.13,0,0,0-2.86,3.91A25.26,25.26,0,0,0,46.55,59,24.58,24.58,0,0,0,47,68.68a23.85,23.85,0,0,1,4.49-18.89,22.56,22.56,0,0,1,3.42-3.61A18.49,18.49,0,0,1,68.55,42a18.25,18.25,0,0,1,12.26,5.45,14.58,14.58,0,0,1,3.78,7,15.12,15.12,0,0,1-4.92,14.81,12,12,0,0,1-4.89,2.42,11.72,11.72,0,0,1-5,.27,22,22,0,0,1-4.21-1.17,13,13,0,0,1-5.45-2.26,11.17,11.17,0,0,0,1.37,1.71,13.52,13.52,0,0,0,1.61,1.42,14.11,14.11,0,0,0,11.39,2.51c-.6.19-.51.41-.5.58a14,14,0,0,0,9-4.8,19,19,0,0,0,4.41-9.22A15.84,15.84,0,0,1,84.63,69a15.63,15.63,0,0,1-3.29,3.58A14.76,14.76,0,0,1,76.8,75a15.44,15.44,0,0,1-10.58-.4,16.06,16.06,0,0,1-4.68-3,13.3,13.3,0,0,1-3.33-4.68c-.63-.61-1.19-1.23-1.69-1.82A14.26,14.26,0,0,0,59.32,71a16,16,0,0,0,2.25,2.26,17,17,0,0,0,20.54.85c.43-.3.85-.62,1.25-1,.2-.16.39-.33.59-.52l.31-.29.22-.23.29-.3L85,71.5l.5-.57c.32-.38.64-.77.93-1.18a20.28,20.28,0,0,0,3.86-11.21,20,20,0,0,0-3-11.31,19.32,19.32,0,0,0-1.75-2.37c-.32-.37-.63-.71-1-1.09l-.5-.49-.53-.47A22.55,22.55,0,0,0,51.56,44a28,28,0,0,0-4.35,6.2,25.46,25.46,0,0,1,4.92-5.59,27.17,27.17,0,0,0-5,6.25,28.79,28.79,0,0,0-1.68,3.44,27.14,27.14,0,0,0-1,12.41,26.08,26.08,0,0,0,4.81,11.66,25.4,25.4,0,0,1-4.58-9.44,26.64,26.64,0,0,1-.4-11,27.75,27.75,0,0,0-.46,11.38A26.5,26.5,0,0,0,48.17,80a29.37,29.37,0,0,0,8.33,7.89A29.7,29.7,0,0,0,66.86,92a37.45,37.45,0,0,0,12.82-.16A29.61,29.61,0,0,0,92,86.52,3.35,3.35,0,0,0,92.2,86c.56-.32,1.1-.67,1.63-1a19.39,19.39,0,0,0,1.89-2.35,36.06,36.06,0,0,0,4.14-5.12A38.75,38.75,0,0,0,103,71.73,41.07,41.07,0,0,0,106.41,59c0-.76,0-1.53,0-2.31,0-1.17,0-2.62,0-4.07,0-1.25-.05-2.5-.16-3.56a44.15,44.15,0,0,1,.14,9.94,37.38,37.38,0,0,1-3,13.95,29.64,29.64,0,0,1-3.75,6.35,26,26,0,0,1-5.85,5.62,8.93,8.93,0,0,1-1.48,1.27l-.4.31c-.82,1.51-3.18,3.31-6.39,4.55a26.31,26.31,0,0,1-5.26,1.4,31.35,31.35,0,0,1-5.62.37c.65.3,0,.37-.84.4s-1.83,0-1.86.3a34.27,34.27,0,0,1-12.13-1.69,35.08,35.08,0,0,1-10.37-5.47,26.39,26.39,0,0,1-6-6.78,30.66,30.66,0,0,1-3.55-8.34,41.14,41.14,0,0,1-.44-17.44,19.46,19.46,0,0,1,2.41-6.28,40.49,40.49,0,0,1,4.67-6.48c.3-.41.65-.85,1-1.29s.77-.87,1.19-1.3A27,27,0,0,1,51.51,36a29.67,29.67,0,0,0-3.27,2.2,33.7,33.7,0,0,0-2.93,2.55c-.16.13.13-.29.83-1.09a27,27,0,0,1,3.6-3.39A29.39,29.39,0,0,1,56,32.53a30.68,30.68,0,0,1,8.29-2.33,31.4,31.4,0,0,1,8.72.05,32.8,32.8,0,0,1,7.4,2,42.89,42.89,0,0,1,4.8,2.27c1.08.58,1.64.85,1.54.58a8.77,8.77,0,0,0-1.51-1.15,29.92,29.92,0,0,0-4.61-2.56,31.48,31.48,0,0,0-7.59-2.3,31.87,31.87,0,0,0-20.56,3.36,31.43,31.43,0,0,0-4.94,3.29c-.77.63-1.52,1.3-2.23,2s-1.33,1.37-2,2.1a37.36,37.36,0,0,0-8.81,19.85c-.38,1.3-.77,1.66-1.2,1.38a4.7,4.7,0,0,1-1.18-2.51,18.68,18.68,0,0,1-.48-4.45,16.26,16.26,0,0,1,.51-4c.08-.45.21-1,.32-1.44a41.36,41.36,0,0,0-3.2,13.48,41.31,41.31,0,0,0,5.39,21,40.46,40.46,0,0,0,5.14,7.09c.49.54,1,1.06,1.5,1.57s1.06,1,1.54,1.45c1,.91,2.06,1.77,3.14,2.58a46.5,46.5,0,0,0,14.41,7.32,48.94,48.94,0,0,1-8.25-2.88,36.23,36.23,0,0,1-3.89-2,37.18,37.18,0,0,1-3.8-2.51c-.62-.47-1.23-.95-1.83-1.46-.3-.25-.6-.52-.9-.78s-.62-.58-.92-.87a37.13,37.13,0,0,1-6.55-8.48,39.68,39.68,0,0,1-5-22.09A42.11,42.11,0,0,1,37,38.49l.35-.54a43.55,43.55,0,0,0-7.55,14.34A42.82,42.82,0,0,0,28,68.37a43.1,43.1,0,0,0,4.44,14.08,42,42,0,0,0,8.9,11.64,48.55,48.55,0,0,0,11.19,7.7A47.45,47.45,0,0,0,65.4,106,50.29,50.29,0,0,1,56.6,104.07Zm57-35.15a40.85,40.85,0,0,1-4.88,12,43.28,43.28,0,0,1-4,5.57c-.37.44-.75.87-1.14,1.31s-.82.88-1.25,1.3a35.07,35.07,0,0,1-2.7,2.45,38.79,38.79,0,0,1-13,7,40.83,40.83,0,0,1-14.9,1.78,46.57,46.57,0,0,1-5.29-.42,28.73,28.73,0,0,1-9.71-3.45c-.45-.2-.88-.42-1.31-.64l.78.34A37.73,37.73,0,0,1,50.42,92c-.91-.82-1.8-1.68-2.69-2.61s-1.82-2-2.73-3.08c-.44-.36-.86-.73-1.28-1.11l.69-.53c.67.65,1.35,1.28,2.05,1.9l1.07.91c.36.29.71.58,1.07.85a53.51,53.51,0,0,0,4.53,3.23,45.3,45.3,0,0,0,10.38,4.95,38.48,38.48,0,0,0,11.58,1.9,32.77,32.77,0,0,0,11.4-1.91A39.15,39.15,0,0,0,99.19,89c.93-.82,1.82-1.69,2.66-2.59s1.61-1.82,2.37-2.77a44.84,44.84,0,0,0,4-6A42.16,42.16,0,0,0,113,64.12a38.81,38.81,0,0,0-.12-13.69c-.24-1.35-.44-3-.72-4.72a36.18,36.18,0,0,0-1-4.65,49.89,49.89,0,0,1,3.45,13.49A40.49,40.49,0,0,1,113.59,68.92Z"/><path d="M72,36.72a23.34,23.34,0,0,1,8.67,3.11,23.68,23.68,0,0,1,3.84,2.89,19.77,19.77,0,0,1,3.28,3.87A20.52,20.52,0,0,1,91,56.41a21,21,0,0,1-4.93,15,18.79,18.79,0,0,1-4.19,3.71A17.93,17.93,0,0,1,71,77.85a18.16,18.16,0,0,1-10.46-4.23,15.93,15.93,0,0,1-3.78-4.57,15.61,15.61,0,0,1-1.82-5.74c-.92-.86-1.81-1.07-2.61.36a17.87,17.87,0,0,0,4.42,10.49l.38.42.21.23.37.38.32.31c.43.4.88.79,1.35,1.16a21,21,0,0,0,26.46-.32l.67-.58.37-.34.29-.29c.39-.38.77-.78,1.13-1.2a23.4,23.4,0,0,0,2-2.62,24.41,24.41,0,0,0-.53-27.81c-.32-.45-.65-.87-1-1.29-.17-.21-.35-.42-.53-.62L88,41.28,87.68,41a29.23,29.23,0,0,0-10.07-6.84,29.69,29.69,0,0,0-12-2.12c-.25,0-.51.08-.76.14a33.64,33.64,0,0,0-10.91,4.12,28.82,28.82,0,0,0-5.17,4c-.4.38-.8.79-1.17,1.19s-.72.79-1.06,1.21c-.7.82-1.36,1.69-2,2.59a31.3,31.3,0,0,0-5,12.06A28,28,0,0,0,40,69.49a33,33,0,0,0,4.89,10.17,30.65,30.65,0,0,0,3.59,4.18,35.66,35.66,0,0,0,4.14,3.41A33.35,33.35,0,0,0,72,93.54a34.76,34.76,0,0,1-19.43-8.43,28.24,28.24,0,0,1-4.76-5.3,27,27,0,0,1-4.72-13.36,26.6,26.6,0,0,1,2.78-14,27.72,27.72,0,0,1,4.6-7.57,22.79,22.79,0,0,1,7.22-5.64A24.28,24.28,0,0,1,72,36.72Z"/><path d="M100.7,47.6a22.53,22.53,0,0,0-4.63-9.2A26.34,26.34,0,0,0,92.7,35a42,42,0,0,0-3.89-2.83c.37.32.74.64,1.1,1l1,.93q1,.95,1.83,2a29.56,29.56,0,0,1,3.1,4.46,31.48,31.48,0,0,1,4.24,14.15,32.47,32.47,0,0,1-2.54,14.48A32.86,32.86,0,0,0,100.7,47.6Z"/><path d="M93.87,77.54c-.61.64-1.19,1.21-1.82,1.77a25.64,25.64,0,0,1-4.07,3,26.25,26.25,0,0,1-9.49,3.34,26.62,26.62,0,0,1-10.17-.47,25.86,25.86,0,0,0,14-.93A24,24,0,0,0,88.43,81,24.61,24.61,0,0,0,91,78.85c.4-.39.8-.8,1.17-1.22.19-.2.37-.42.56-.63l.57-.69a33.23,33.23,0,0,0,4.19-7.16,33,33,0,0,1-4.71,6.71c-.48.52-.91,1-1.37,1.42s-.94.86-1.44,1.26a23.28,23.28,0,0,1-3.13,2.17A24.51,24.51,0,0,1,72,83.88a24.76,24.76,0,0,1-12.19-4.29,26.39,26.39,0,0,1-2.62-2.06,19.06,19.06,0,0,1-5.26-7.74,20.27,20.27,0,0,1-.32-12.91,20.72,20.72,0,0,1,3-6.07c.34-.47.69-.93,1.07-1.37s.72-.82,1.11-1.21a16.92,16.92,0,0,1,2.56-2A15.49,15.49,0,0,1,65,44a16.62,16.62,0,0,0-8.64,3.58c-.41.33-.8.69-1.18,1.06s-.79.8-1.16,1.22a21.91,21.91,0,0,0-2.8,24.85,21.55,21.55,0,0,0,3.94,5.2A27.71,27.71,0,0,0,60.49,84,27.34,27.34,0,0,0,73,87.79a26.9,26.9,0,0,0,12.35-2.28,25.85,25.85,0,0,0,9.44-7.23,31.35,31.35,0,0,0,5.65-10.23c.16-.53.35-1.12.5-1.68a34.67,34.67,0,0,1-5.31,9.16C95.06,76.22,94.48,76.89,93.87,77.54Z"/><path d="M44.3,57.9a28.85,28.85,0,0,1,1.2-3.65,27.9,27.9,0,0,1,1.71-4.1c-.49.76-1,1.55-1.36,2.35A27.63,27.63,0,0,0,44.3,57.9Z"/><path d="M92.92,95.24a41.42,41.42,0,0,1-19.19,4.59,46.76,46.76,0,0,1-17.54-3.58l.53.3a41.83,41.83,0,0,0,15,3.87A42.6,42.6,0,0,0,92.92,95.24Z"/><path d="M109,93.69c-.63.61-1.28,1.2-2,1.78A47.67,47.67,0,0,1,103,99.41c.78-.54,1.94-1.38,3-2.28s2.15-1.85,2.84-2.51c.73-1,1.33-1.8,1.93-2.71C110.22,92.52,109.66,93.08,109,93.69Z"/><path d="M119.26,80.05a51.65,51.65,0,0,0,4.83-13.55,49.44,49.44,0,0,0-1.94-27,43.85,43.85,0,0,0-2.51-5.44c-1-1.88-2.1-3.69-2.88-5.16A48.74,48.74,0,0,0,110,19.38c-.65-.71-1.31-1.4-2-2.07l-1-1-1-.91q-2.06-1.8-4.25-3.39A60.64,60.64,0,0,0,82.57,2.79a63,63,0,0,1,18.22,9.1l.46.34a60.4,60.4,0,0,1,7.91,6.94A53.17,53.17,0,0,1,123,47.72,54.78,54.78,0,0,1,113,88.3c-.71,1.22-1.46,2.43-2.25,3.61A52.76,52.76,0,0,0,119.26,80.05Z"/></g></g></svg>