<svg xmlns="http://www.w3.org/2000/svg" viewBox="0 0 351.76 39.35"><title>Asset 84</title><g id="Layer_2" data-name="Layer 2"><g id="Layer_1-2" data-name="Layer 1"><g id="_87deeed3-a41f-4370-85f1-59099025c4db" data-name="87deeed3-a41f-4370-85f1-59099025c4db"><g id="_87deeed3-a41f-4370-85f1-59099025c4db-child-0" data-name="87deeed3-a41f-4370-85f1-59099025c4db-child-0"><path d="M175.84,0c-4,10.26-28.07,18.39-58.61,19.68C86.69,18.39,62.65,10.26,58.61,0c-4,10.26-28,18.39-58.61,19.68H0C30.56,21,54.61,29.09,58.61,39.35c4-10.26,28.07-18.33,58.62-19.67,30.56,1.34,54.61,9.41,58.61,19.67,4-10.26,28.07-18.33,58.61-19.67h0C203.94,18.39,179.9,10.26,175.84,0Z"/></g><g id="_87deeed3-a41f-4370-85f1-59099025c4db-child-1" data-name="87deeed3-a41f-4370-85f1-59099025c4db-child-1"><path d="M351.76,19.68C321.2,18.39,297.15,10.26,293.14,0h0c-4,10.26-28.07,18.39-58.62,19.68h0c30.56,1.34,54.6,9.41,58.62,19.67h0c4-10.26,28.06-18.33,58.61-19.67Z"/></g></g></g></g></svg>