<svg xmlns="http://www.w3.org/2000/svg" viewBox="0 0 520.23 520.64"><defs><style>.cls-1{fill-rule:evenodd;}</style></defs><title>Asset 85</title><g id="Layer_2" data-name="Layer 2"><g id="Layer_1-2" data-name="Layer 1"><g id="_5cc91b2f-10cb-46fa-a026-3a68339d16ef" data-name="5cc91b2f-10cb-46fa-a026-3a68339d16ef"><g id="_5cc91b2f-10cb-46fa-a026-3a68339d16ef-child-0" data-name="5cc91b2f-10cb-46fa-a026-3a68339d16ef-child-0"><path class="cls-1" d="M382.24,269.76c29-29.65,73-56.6,137.27-90.64a1.42,1.42,0,0,0,.66-1.66,1.44,1.44,0,0,0-1.5-1c-72,9.51-123.57,12.91-164.41,5.36a1.42,1.42,0,0,1-1.18-1.37c-.45-41.49,11.64-91.69,33.08-161.12a1.4,1.4,0,0,0-2.48-1.27c-44.28,57.62-78.27,96.46-112.37,120.07a1.37,1.37,0,0,1-1.81-.14C239.85,109,212.89,64.93,178.86.72a1.43,1.43,0,0,0-2.66.84c9.5,72,12.91,123.55,5.36,164.42a1.43,1.43,0,0,1-1.38,1.15c-41.22.59-91.41-11.48-160.85-32.92a1.4,1.4,0,0,0-1.27,2.46C75.68,181,114.52,214.94,138.14,249.06a1.41,1.41,0,0,1-.15,1.79C109,280.52,64.93,307.46.72,341.49a1.43,1.43,0,0,0,.84,2.66c72-9.5,123.56-12.89,164.42-5.36a1.41,1.41,0,0,1,1.16,1.4c.45,41.47-11.62,91.66-33.07,161.09a1.41,1.41,0,0,0,2.47,1.3c44.28-57.62,78.27-96.46,112.38-120.1a1.42,1.42,0,0,1,1.8.16c29.67,29,56.6,73,90.64,137.28a1.43,1.43,0,0,0,2.66-.85c-9.51-72-12.89-123.57-5.36-164.41a1.43,1.43,0,0,1,1.39-1.18c41.47-.45,91.67,11.64,161.1,33.09a1.43,1.43,0,0,0,1.29-2.49C444.82,339.8,406,305.81,382.35,271.71A1.42,1.42,0,0,1,382.24,269.76Z"/></g></g></g></g></svg>