<svg xmlns="http://www.w3.org/2000/svg" viewBox="0 0 367.29 320.99"><title>Asset 71</title><g id="Layer_2" data-name="Layer 2"><g id="Layer_1-2" data-name="Layer 1"><g id="d77451d5-d271-4ae8-bc28-4ab9ebf98359"><g id="d77451d5-d271-4ae8-bc28-4ab9ebf98359-child-0"><path d="M183.65,321,0,124.22,59.27,34l64-34H244l64,34,59.27,90.27ZM22.53,111.74,92.75,82.87,63.9,48.6Zm95.38,53.7L97.69,93.06,23.15,123.61Zm50.57,121L122.07,179.81l-93.37-42Zm15.17-187.5,77.87-18.67,33.39-40L240.59,11.33H126.7l-54.17,29,33.17,40Zm-54.49,64.66,43.9-55.71L109.34,92.75ZM183.65,294l48-112.76h-96ZM139.51,169.76H228l-44.3-55.87Zm98.62-6.18L258,92.79l-63.71,15.12ZM198.77,286.42,338.58,137.76l-93.36,42.05Zm50.61-121,94.76-41.83L269.6,93.06Zm95.53-53.7L303.55,48.6,274.67,82.87Z"/></g></g></g></g></svg>