<svg xmlns="http://www.w3.org/2000/svg" viewBox="0 0 2249.99 1080.7"><defs><style>.cls-1{fill:#9f1111;}</style></defs><title>32402d9c-b466-4b6e-b712-21f347427e46roster</title><g id="Layer_2" data-name="Layer 2"><g id="Layer_1-2" data-name="Layer 1"><g id="_32402d9c-b466-4b6e-b712-21f347427e46" data-name="32402d9c-b466-4b6e-b712-21f347427e46"><g id="_32402d9c-b466-4b6e-b712-21f347427e46-child-0" data-name="32402d9c-b466-4b6e-b712-21f347427e46-child-0"><path class="cls-1" d="M466.22,255.6a17.39,17.39,0,0,0,5.71-2.1,7.52,7.52,0,0,0,3-9.68,21.19,21.19,0,0,0-6.74-6.78,15,15,0,0,0-10.48,2.3,19.5,19.5,0,0,0-2.38,2.34c-2.77,2.93-.43,6.78,1.31,9.32A16.71,16.71,0,0,0,466.22,255.6Z"/></g><g id="_32402d9c-b466-4b6e-b712-21f347427e46-child-1" data-name="32402d9c-b466-4b6e-b712-21f347427e46-child-1"><path class="cls-1" d="M483.79,503.43a36.57,36.57,0,0,0-7.93-3.73,80.11,80.11,0,0,0-9.8,0c-1.42,2.7-2.73,6.9-6,6.58-1.7,0-3-2.22-4-4s-2.3-1.35-3.45-1.07a17.93,17.93,0,0,0-9.72,7.93l-2.26,10.91a144.77,144.77,0,0,1,2.5,21.06,5.2,5.2,0,0,0,4,4.16l23.41,2.34a43.44,43.44,0,0,0,16.5-2.77,30.31,30.31,0,0,0,7.41-6.74A36.3,36.3,0,0,0,498,530.2a29.9,29.9,0,0,0,0-8.45A63.15,63.15,0,0,0,483.79,503.43Z"/></g><g id="_32402d9c-b466-4b6e-b712-21f347427e46-child-2" data-name="32402d9c-b466-4b6e-b712-21f347427e46-child-2"><path class="cls-1" d="M512,588a18.41,18.41,0,0,0,6.94,0,14.13,14.13,0,0,0,7.65-4.32,10.05,10.05,0,0,0,.32-6.23,21.86,21.86,0,0,0-10.83-6.14,11.21,11.21,0,0,0-4.32,0,15.31,15.31,0,0,0-4.8,4.68A11.14,11.14,0,0,0,512,588Z"/></g><g id="_32402d9c-b466-4b6e-b712-21f347427e46-child-3" data-name="32402d9c-b466-4b6e-b712-21f347427e46-child-3"><path class="cls-1" d="M355.87,564.63a13.58,13.58,0,0,0-5.51,1.91,8.36,8.36,0,0,0-3.65,4.91c-1.74,7.18,4,10.55,9.05,11.55a11.63,11.63,0,0,0,11.1-4.45,7.93,7.93,0,0,0-1.39-9.36A16.62,16.62,0,0,0,355.87,564.63Z"/></g><g id="_32402d9c-b466-4b6e-b712-21f347427e46-child-4" data-name="32402d9c-b466-4b6e-b712-21f347427e46-child-4"><path class="cls-1" d="M477,615.24c-.63,4.37,2.1,7.94,3.69,11.31.44.87,4,4.6,4.84,4.6h16.78a17.32,17.32,0,0,0,8.33-4,36.73,36.73,0,0,0,4.68-11.38l-13.84-13.53H488.91C483.48,605.84,477.88,608.78,477,615.24Z"/></g><g id="_32402d9c-b466-4b6e-b712-21f347427e46-child-5" data-name="32402d9c-b466-4b6e-b712-21f347427e46-child-5"><path class="cls-1" d="M460,484.19a11.92,11.92,0,0,0,4.76,0,7.69,7.69,0,0,0,2.41-2.82,21.82,21.82,0,0,0,0-4c-2.34-1.15-4.48-4-7.1-3a8.15,8.15,0,0,0-2.34,2.94,9.83,9.83,0,0,0,0,4A8.38,8.38,0,0,0,460,484.19Z"/></g><g id="_32402d9c-b466-4b6e-b712-21f347427e46-child-6" data-name="32402d9c-b466-4b6e-b712-21f347427e46-child-6"><path class="cls-1" d="M419.42,336a15.06,15.06,0,0,0,4.24,0,5.47,5.47,0,0,0,2.9-3.81,5.61,5.61,0,0,0-1.07-4.64,5.76,5.76,0,0,0-8.41-1.07,12,12,0,0,0-2.3,2.78,8.33,8.33,0,0,0,0,4A15.22,15.22,0,0,0,419.42,336Z"/></g><g id="_32402d9c-b466-4b6e-b712-21f347427e46-child-7" data-name="32402d9c-b466-4b6e-b712-21f347427e46-child-7"><path class="cls-1" d="M679.94,437.58a7.16,7.16,0,0,0,1.11,4.76,2.49,2.49,0,0,0,1.59,1.19,2.7,2.7,0,0,0,2-.31,5.14,5.14,0,0,0,2.38-5.64Z"/></g><g id="_32402d9c-b466-4b6e-b712-21f347427e46-child-8" data-name="32402d9c-b466-4b6e-b712-21f347427e46-child-8"><path class="cls-1" d="M346.12,275.12a6.84,6.84,0,0,0,2.81-2.38,10.8,10.8,0,0,0,0-4.8,21.94,21.94,0,0,0-5.19-4.8,8.33,8.33,0,0,0-4,0,18.73,18.73,0,0,0-5,5c-1.23,2.53,1.59,4.64,2.74,7A77.28,77.28,0,0,0,346.12,275.12Z"/></g><g id="_32402d9c-b466-4b6e-b712-21f347427e46-child-9" data-name="32402d9c-b466-4b6e-b712-21f347427e46-child-9"><path class="cls-1" d="M421,267.94a31.8,31.8,0,0,0,5.52,0,5.68,5.68,0,0,0-1.19-4.68,5.24,5.24,0,0,0-7.1-.36c-.4.44,0,2.22,0,2.58A8.72,8.72,0,0,0,421,267.94Z"/></g><g id="_32402d9c-b466-4b6e-b712-21f347427e46-child-10" data-name="32402d9c-b466-4b6e-b712-21f347427e46-child-10"><path class="cls-1" d="M467.93,415.85c1.7,0,2.81-2.3,4-4a7.21,7.21,0,0,0,0-3.69,11.61,11.61,0,0,0-12.41-5,47,47,0,0,0-9,4.64,21.75,21.75,0,0,0-4.88,5.07,23.37,23.37,0,0,0,0,5.79C453.77,418.47,460.35,416.48,467.93,415.85Z"/></g><g id="_32402d9c-b466-4b6e-b712-21f347427e46-child-11" data-name="32402d9c-b466-4b6e-b712-21f347427e46-child-11"><path class="cls-1" d="M637.46,464.36a7.34,7.34,0,0,0-2.86,3.53,20.08,20.08,0,0,0,0,6.19,7.91,7.91,0,0,0,7.74,5,11.07,11.07,0,0,0,8.84-5.07,11.39,11.39,0,0,0,0-5.91C647.77,465.27,642.14,462.41,637.46,464.36Z"/></g><g id="_32402d9c-b466-4b6e-b712-21f347427e46-child-12" data-name="32402d9c-b466-4b6e-b712-21f347427e46-child-12"><path class="cls-1" d="M646.42,438.46c4.4-.88,6.39-6.19,6.74-11.39,0-2.18-3.57-4.48-6.14-5.87a18.25,18.25,0,0,0-8.53-.35,26,26,0,0,0-6.19,6.5,9.36,9.36,0,0,0-.2,3.17C635.12,435.28,639,439.89,646.42,438.46Z"/></g><g id="_32402d9c-b466-4b6e-b712-21f347427e46-child-13" data-name="32402d9c-b466-4b6e-b712-21f347427e46-child-13"><path class="cls-1" d="M596.05,58.74c1-.39,4-2.77,4-3.61a12,12,0,0,0-5.39-9.4,21.85,21.85,0,0,0-5.48,0v10.2C591.37,57.12,593.47,59.85,596.05,58.74Z"/></g><g id="_32402d9c-b466-4b6e-b712-21f347427e46-child-14" data-name="32402d9c-b466-4b6e-b712-21f347427e46-child-14"><path class="cls-1" d="M535.91,456.43a12.94,12.94,0,0,0,6.15.27,19.19,19.19,0,0,0,5.2-4.8,9.83,9.83,0,0,0,0-4.76,15.59,15.59,0,0,0-5.08-4.68c-3.69-.55-7.93-1.11-9.76.28a12.42,12.42,0,0,0-3,3.65,8.33,8.33,0,0,0,0,4A18.24,18.24,0,0,0,535.91,456.43Z"/></g><g id="_32402d9c-b466-4b6e-b712-21f347427e46-child-15" data-name="32402d9c-b466-4b6e-b712-21f347427e46-child-15"><path class="cls-1" d="M683.83,425.65a17.54,17.54,0,0,0,6.38,0,7.52,7.52,0,0,0,4-4,12.88,12.88,0,0,0,0-6.23,24,24,0,0,0-10.2-4c-1,0-4.48,4-5.11,5a9.13,9.13,0,0,0-.2,4.64A19.17,19.17,0,0,0,683.83,425.65Z"/></g><g id="_32402d9c-b466-4b6e-b712-21f347427e46-child-16" data-name="32402d9c-b466-4b6e-b712-21f347427e46-child-16"><path class="cls-1" d="M656.77,418.47a7.72,7.72,0,0,0,2.78-2.38,10.9,10.9,0,0,0,0-5.08c-.87-1.94-4-1-6.07-.79a7.55,7.55,0,0,0-2.3,2.69,43,43,0,0,0,0,5.56A34.78,34.78,0,0,0,656.77,418.47Z"/></g><g id="_32402d9c-b466-4b6e-b712-21f347427e46-child-17" data-name="32402d9c-b466-4b6e-b712-21f347427e46-child-17"><path class="cls-1" d="M573.91,449.52c-1.5.72-6.74,5.48-6.5,6.55L570,467.33c2.49,2.94,5.87,5.48,8.84,8.37.44.48,3.65,0,4.6,0a11.87,11.87,0,0,0,10-10.59c-1.55-7.22-5-14-12.38-15.47A22.19,22.19,0,0,0,573.91,449.52Z"/></g><g id="_32402d9c-b466-4b6e-b712-21f347427e46-child-18" data-name="32402d9c-b466-4b6e-b712-21f347427e46-child-18"><path class="cls-1" d="M372.93,526.35a12.37,12.37,0,0,0-9.28-7.37,17.88,17.88,0,0,0-7.14,0,28.28,28.28,0,0,0-6.23,6.46,8.33,8.33,0,0,0,0,4c1.39,2.5,4.21,6.23,6.43,6.23h10.87A11.84,11.84,0,0,0,372.93,526.35Z"/></g><g id="_32402d9c-b466-4b6e-b712-21f347427e46-child-19" data-name="32402d9c-b466-4b6e-b712-21f347427e46-child-19"><path class="cls-1" d="M331.16,311.65c2.58,1.51,5.28-1.15,7-3.1a5.9,5.9,0,0,0-1.5-8.6,23.07,23.07,0,0,0-15.08-.4,19.72,19.72,0,0,0,.84,9.08C324.5,312.28,328.51,310.06,331.16,311.65Z"/></g><g id="_32402d9c-b466-4b6e-b712-21f347427e46-child-20" data-name="32402d9c-b466-4b6e-b712-21f347427e46-child-20"><path class="cls-1" d="M567.92,173.53c2.66.64,6.39-3,5.4-5.67a16.1,16.1,0,0,0-5-5.23,26.12,26.12,0,0,0-5.59,0,37.54,37.54,0,0,0,0,7.93A12.36,12.36,0,0,0,567.92,173.53Z"/></g><g id="_32402d9c-b466-4b6e-b712-21f347427e46-child-21" data-name="32402d9c-b466-4b6e-b712-21f347427e46-child-21"><path class="cls-1" d="M569.15,442.34a13.28,13.28,0,0,0,6.39,0,15.11,15.11,0,0,0,5-4.64,8.45,8.45,0,0,0-1-7.26,13.47,13.47,0,0,0-12.9-4.68,16.24,16.24,0,0,0-4.83,4.76,9.28,9.28,0,0,0,0,4.68A34,34,0,0,0,569.15,442.34Z"/></g><g id="_32402d9c-b466-4b6e-b712-21f347427e46-child-22" data-name="32402d9c-b466-4b6e-b712-21f347427e46-child-22"><path class="cls-1" d="M284.2,523.3a8.51,8.51,0,0,0,0-4.48,16.55,16.55,0,0,0-5-4.68,9.32,9.32,0,0,0-7.93,1,13,13,0,0,0-2.18,2.93,14.36,14.36,0,0,0,0,6.39c1.78,2.46,5.47,3,9.24,4C280.19,528.85,282.34,525.52,284.2,523.3Z"/></g><g id="_32402d9c-b466-4b6e-b712-21f347427e46-child-23" data-name="32402d9c-b466-4b6e-b712-21f347427e46-child-23"><path class="cls-1" d="M270.4,997.18c-6.31-1.47-11.55.75-17.26,2.26l-9.36,9.24a20.29,20.29,0,0,0-3.73,8.29,24.44,24.44,0,0,0,4,10.75l8.25,8.41a12.42,12.42,0,0,1,7,9.2c.52,1.79-.55,7.93,0,9.52,1.39,2.78,4.72,6.31,7.3,6.23,4,0,8.65-2.22,8.69-4a41.07,41.07,0,0,0,0-12.81,8.76,8.76,0,0,1,5.67-11.11c2.58-.67,4.72-5.63,4.72-8.84v-12.5a26.87,26.87,0,0,0-3.57-7.93A19.39,19.39,0,0,0,270.4,997.18Z"/></g><g id="_32402d9c-b466-4b6e-b712-21f347427e46-child-24" data-name="32402d9c-b466-4b6e-b712-21f347427e46-child-24"><path class="cls-1" d="M168.52,83.93V79.17h7.22v4.76Z"/></g><g id="_32402d9c-b466-4b6e-b712-21f347427e46-child-25" data-name="32402d9c-b466-4b6e-b712-21f347427e46-child-25"><path class="cls-1" d="M220,339.61a28.09,28.09,0,0,0,11.19-6.42,64.14,64.14,0,0,0,19.59,1.19,15.08,15.08,0,0,0,5-4.41,9.59,9.59,0,0,0,0-4.76,14.75,14.75,0,0,0-3.57-3.61c-1.55-.91-7-4-8.45-3.61a138.5,138.5,0,0,1-18.28,4.8c-1.31,0-4.64-4.36-5.91-4.76a35.59,35.59,0,0,0-9.56,0,29.36,29.36,0,0,0-5.6,2.38c-3.17,1.67-3.64,5.44-4.4,8.65a19.14,19.14,0,0,0,2.22,5.79c1.63,3,5.16,3.61,8.37,4.52A28.76,28.76,0,0,0,220,339.61Z"/></g><g id="_32402d9c-b466-4b6e-b712-21f347427e46-child-26" data-name="32402d9c-b466-4b6e-b712-21f347427e46-child-26"><path class="cls-1" d="M257,598.94a28.08,28.08,0,0,0,4.76-5.16,29.35,29.35,0,0,0,1.15-5.59,11.21,11.21,0,0,0-2.38-9.52L249.77,567.8c-.75-.71-4-1.7-4.76-2.42-1.51-1.66-5.51-3.53-3.41-5.91,3.05-3.45,8.29-7,10-11.42a51.78,51.78,0,0,0-5.76-5.31,6.68,6.68,0,0,0-4,0l-10.51,9.67A21,21,0,0,0,221.25,556c-1.7,1.15-7.14,5.72-7.34,7.46a80.51,80.51,0,0,1-2.34,12.69,74,74,0,0,1,2.34,12.89l9.64,9.88a20.37,20.37,0,0,0,7.94,3.57H249A26.59,26.59,0,0,0,257,598.94Z"/></g><g id="_32402d9c-b466-4b6e-b712-21f347427e46-child-27" data-name="32402d9c-b466-4b6e-b712-21f347427e46-child-27"><path class="cls-1" d="M255.72,932.13a12.48,12.48,0,0,0,0,4.56c.48,1.67,2.26,1.55,3.57,1.11a7.75,7.75,0,0,0,2.3-2.54,31.69,31.69,0,0,0,0-5.51A5.52,5.52,0,0,0,255.72,932.13Z"/></g><g id="_32402d9c-b466-4b6e-b712-21f347427e46-child-28" data-name="32402d9c-b466-4b6e-b712-21f347427e46-child-28"><path class="cls-1" d="M345.32,943a43.05,43.05,0,0,0-7.93-3.61,18.71,18.71,0,0,0-5.59,0,41.66,41.66,0,0,0-7.94,3.72c-1.15.8-4.87,4-4.87,5V960a22.87,22.87,0,0,0,3.72,8.33,16,16,0,0,0,9.52,4,10.29,10.29,0,0,0,8.37-3.14l9.44-9.83V948C350.12,947.08,346.47,943.71,345.32,943Z"/></g><g id="_32402d9c-b466-4b6e-b712-21f347427e46-child-29" data-name="32402d9c-b466-4b6e-b712-21f347427e46-child-29"><path class="cls-1" d="M341.67,681.41a23.13,23.13,0,0,0-9.08,0,25.86,25.86,0,0,0-6.19,6.46c-.35.56-.67,3.57,0,4a81,81,0,0,0,11.9,11.06,20.07,20.07,0,0,0,14.44-9.36,12,12,0,0,0,0-6.07C350.28,684.22,346,683.11,341.67,681.41Z"/></g><g id="_32402d9c-b466-4b6e-b712-21f347427e46-child-30" data-name="32402d9c-b466-4b6e-b712-21f347427e46-child-30"><path class="cls-1" d="M307.92,657.41a32.61,32.61,0,0,0-5.59,0,32.61,32.61,0,0,0,0,5.59,8.1,8.1,0,0,0,2.46,2.62,10.53,10.53,0,0,0,5,0c2-.87.88-4,.6-6.07A6.77,6.77,0,0,0,307.92,657.41Z"/></g><g id="_32402d9c-b466-4b6e-b712-21f347427e46-child-31" data-name="32402d9c-b466-4b6e-b712-21f347427e46-child-31"><path class="cls-1" d="M273.57,457c-5.51-1.07-10.43,1.11-15.59,2.34-2.74,2.3-5.23,5.67-7.93,8.65a9.12,9.12,0,0,0,0,4.64,46,46,0,0,0,3.61,7.93,23.27,23.27,0,0,0,12,7.3h13.68c1.51,0,6.35-5.51,7.58-7.18a37.41,37.41,0,0,0,3.57-7.93,23.37,23.37,0,0,0,0-9.64A45.69,45.69,0,0,0,273.57,457Z"/></g><g id="_32402d9c-b466-4b6e-b712-21f347427e46-child-32" data-name="32402d9c-b466-4b6e-b712-21f347427e46-child-32"><path class="cls-1" d="M87.66,852a18.93,18.93,0,0,0,4-9.55,11.52,11.52,0,0,0-2.23-6.27,101,101,0,0,1-8.56-6.74H69.77c-1,0-4.28,3.76-5.08,4.87A29.82,29.82,0,0,0,61,842.05a12.45,12.45,0,0,0,10.24,13.52,32.85,32.85,0,0,0,7.93.2A31.4,31.4,0,0,0,87.66,852Z"/></g><g id="_32402d9c-b466-4b6e-b712-21f347427e46-child-33" data-name="32402d9c-b466-4b6e-b712-21f347427e46-child-33"><path class="cls-1" d="M8.41,950.1a13.59,13.59,0,0,0-4.76,0,12.49,12.49,0,0,0-3.41,3.69,11.53,11.53,0,0,0,0,4.68,12.52,12.52,0,0,0,3.57,3.61,14.09,14.09,0,0,0,4.76,0,13.47,13.47,0,0,0,4.8-2.82,13.37,13.37,0,0,0,0-6.35A14,14,0,0,0,8.41,950.1Z"/></g><g id="_32402d9c-b466-4b6e-b712-21f347427e46-child-34" data-name="32402d9c-b466-4b6e-b712-21f347427e46-child-34"><path class="cls-1" d="M81.71,640.67a24.85,24.85,0,0,0,8.77,0,31.52,31.52,0,0,0,7.57-7.14,8.89,8.89,0,0,0,0-4.8A19.32,19.32,0,0,0,92.86,624a13.59,13.59,0,0,0-5.68,0c-4.76,3-9,6.9-7.93,14.4A7,7,0,0,0,81.71,640.67Z"/></g><g id="_32402d9c-b466-4b6e-b712-21f347427e46-child-35" data-name="32402d9c-b466-4b6e-b712-21f347427e46-child-35"><path class="cls-1" d="M134.27,619.17a7.39,7.39,0,0,0,4,0,20.33,20.33,0,0,0,5.16-4.8,9.59,9.59,0,0,0,0-4.76A9.94,9.94,0,0,0,140,606.2a8.41,8.41,0,0,0-7.38,1c-2,1.79-4.4,4.4-3.25,7.06A17.32,17.32,0,0,0,134.27,619.17Z"/></g><g id="_32402d9c-b466-4b6e-b712-21f347427e46-child-36" data-name="32402d9c-b466-4b6e-b712-21f347427e46-child-36"><path class="cls-1" d="M157.55,848.55H144.62A31,31,0,0,0,134.07,851a87.5,87.5,0,0,0-8.57,6.15c-4,3.41-5.35,8.73-9.32,12.57a23.58,23.58,0,0,0-.24,9.13,27.5,27.5,0,0,0,3.61,7.93l8.33,8.37a21.79,21.79,0,0,0,7.93,3.57h19.84a27.4,27.4,0,0,0,7.93-3.57,39.19,39.19,0,0,0,6-5.95,27.94,27.94,0,0,0,3.57-7.93V863.74a24.67,24.67,0,0,0-3.61-7.93A23.63,23.63,0,0,0,157.55,848.55Z"/></g><g id="_32402d9c-b466-4b6e-b712-21f347427e46-child-37" data-name="32402d9c-b466-4b6e-b712-21f347427e46-child-37"><path class="cls-1" d="M277.54,385a28.22,28.22,0,0,0,5.51-2.5c1.47-1,3.21-2.54,2.34-4.68a88,88,0,0,0-10.27,0c-.6,0-2.22,1.9-2.7,2.46a5.5,5.5,0,0,0-1.19,4.72A55.35,55.35,0,0,0,277.54,385Z"/></g><g id="_32402d9c-b466-4b6e-b712-21f347427e46-child-38" data-name="32402d9c-b466-4b6e-b712-21f347427e46-child-38"><path class="cls-1" d="M248.94,179.4a9.75,9.75,0,0,0,4.8,0,45.39,45.39,0,0,0,8.21-3.68,10.23,10.23,0,0,0,3.05-5.95c1.79-7.18-3.65-10.51-8.84-11.9-3.34-.84-6,1.31-8.65,2.46a7.91,7.91,0,0,0-4.28,7.93A17.53,17.53,0,0,0,248.94,179.4Z"/></g><g id="_32402d9c-b466-4b6e-b712-21f347427e46-child-39" data-name="32402d9c-b466-4b6e-b712-21f347427e46-child-39"><path class="cls-1" d="M88.22,965.88a10.69,10.69,0,0,0-3.3,1c-2.69,1.27-7.22,2.31-7.22,5.24v11.07c0,1.94,5.24,3.33,7.94,3.61a11.51,11.51,0,0,0,13.4-11,40.34,40.34,0,0,0-2-5.16C95.08,967.23,91.39,966.91,88.22,965.88Z"/></g><g id="_32402d9c-b466-4b6e-b712-21f347427e46-child-40" data-name="32402d9c-b466-4b6e-b712-21f347427e46-child-40"><path class="cls-1" d="M102.42,862.91a11,11,0,0,0-4,0,8.29,8.29,0,0,0-2.82,2.38,11.53,11.53,0,0,0,.24,5c.87,1.94,4,1.19,5.43.48s5.28-2.54,4-5.28A9.25,9.25,0,0,0,102.42,862.91Z"/></g><g id="_32402d9c-b466-4b6e-b712-21f347427e46-child-41" data-name="32402d9c-b466-4b6e-b712-21f347427e46-child-41"><path class="cls-1" d="M65,592.91a19.5,19.5,0,0,0,8.33,0,9.61,9.61,0,0,0,2-11.9,8.65,8.65,0,0,0-11.9-2.34,7.92,7.92,0,0,0-3.05,9.76A16.1,16.1,0,0,0,65,592.91Z"/></g><g id="_32402d9c-b466-4b6e-b712-21f347427e46-child-42" data-name="32402d9c-b466-4b6e-b712-21f347427e46-child-42"><path class="cls-1" d="M313.67,344.17a16.12,16.12,0,0,0,6.19.24,7.85,7.85,0,0,0,2.66-2.3c.27-2.06,1-4.76-1.07-6a11.67,11.67,0,0,0-9.76-2.22,8.2,8.2,0,0,0-2.06,2.62,11,11,0,0,0,0,4A7.57,7.57,0,0,0,313.67,344.17Z"/></g><g id="_32402d9c-b466-4b6e-b712-21f347427e46-child-43" data-name="32402d9c-b466-4b6e-b712-21f347427e46-child-43"><path class="cls-1" d="M1413.34,535.48c-.39,1.19-2.06,4.52-2.14,5.43a12,12,0,0,0,2.7,9.24,11.87,11.87,0,0,0,8.69,4.21,16.94,16.94,0,0,0,9.71-6.11,15.05,15.05,0,0,0,.24-8.89c-2.26-3.25-6.58-4.2-10.55-5.67C1419.61,532.78,1414.57,531.51,1413.34,535.48Z"/></g><g id="_32402d9c-b466-4b6e-b712-21f347427e46-child-44" data-name="32402d9c-b466-4b6e-b712-21f347427e46-child-44"><path class="cls-1" d="M1356.11,500.81c6.66,2.14,13.21,4.36,16.78,9.44a17.33,17.33,0,0,0,7.93,4h18.36c5.52-4,11.9-6.67,15.16-12.18a46.13,46.13,0,0,0,6.62-15.19c-2.78-6.63-6.15-11.9-9.2-18.29A11.28,11.28,0,0,0,1403,464h-20.15a56.82,56.82,0,0,1-22.77,7.06,87.39,87.39,0,0,0-5.07,9.56l-8.45,8.85a8,8,0,0,0,0,3.64A19.15,19.15,0,0,0,1356.11,500.81Z"/></g><g id="_32402d9c-b466-4b6e-b712-21f347427e46-child-45" data-name="32402d9c-b466-4b6e-b712-21f347427e46-child-45"><path class="cls-1" d="M1327.43,498.35a5.41,5.41,0,0,0,6.58-3.69c.44-1.74-1.62-3.57-3.57-4.52a30.77,30.77,0,0,0-5.43,0,32.61,32.61,0,0,0,0,5.59A8,8,0,0,0,1327.43,498.35Z"/></g><g id="_32402d9c-b466-4b6e-b712-21f347427e46-child-46" data-name="32402d9c-b466-4b6e-b712-21f347427e46-child-46"><path class="cls-1" d="M1345.79,590.49h11a11.57,11.57,0,0,0,5-12.29c0-.64-1.79-4.25-2.5-4.41l-11-2.53c-1-.24-5.55,5.11-6.18,6.62a23.31,23.31,0,0,0-.32,8.65C1342.22,588.35,1344.53,590.49,1345.79,590.49Z"/></g><g id="_32402d9c-b466-4b6e-b712-21f347427e46-child-47" data-name="32402d9c-b466-4b6e-b712-21f347427e46-child-47"><path class="cls-1" d="M1222.56,371.42c1.82-.47,1.15-3.73.31-5.71s-5.39-1.9-6.58,0a9.28,9.28,0,0,0,.24,5.32C1217.6,372.85,1220.37,372,1222.56,371.42Z"/></g><g id="_32402d9c-b466-4b6e-b712-21f347427e46-child-48" data-name="32402d9c-b466-4b6e-b712-21f347427e46-child-48"><path class="cls-1" d="M1347.7,619.29a17.1,17.1,0,0,0,0,4.52c.47,1.67,2.26,1.63,4,1s.76-3.61.48-5.71S1348.49,617.31,1347.7,619.29Z"/></g><g id="_32402d9c-b466-4b6e-b712-21f347427e46-child-49" data-name="32402d9c-b466-4b6e-b712-21f347427e46-child-49"><path class="cls-1" d="M1263.49,582.4a19.37,19.37,0,0,0,5.63,17.81,68.4,68.4,0,0,0,14.12-2.7A22.63,22.63,0,0,0,1289,587a36.44,36.44,0,0,0,0-5.91c2.11,0,9.25,1.11,10.56,0,3-2.62,5.55-6,8.44-8.92.48-.48,0-3.77,0-4.64.44-1.67,3.1-6.31,3.57-7.94a15.82,15.82,0,0,0,0-4.76,41.37,41.37,0,0,0-2.89-4.92,112.74,112.74,0,0,0-18.57,2.66c-2.89,2.46-5,6.19-7.69,8.93-1.79,1.82-.71,7.93-2.54,9.6a20.38,20.38,0,0,1-10.87,5.51A8.2,8.2,0,0,0,1263.49,582.4Z"/></g><g id="_32402d9c-b466-4b6e-b712-21f347427e46-child-50" data-name="32402d9c-b466-4b6e-b712-21f347427e46-child-50"><path class="cls-1" d="M1119.51,372.85a6.37,6.37,0,0,0,4.76-7.1h-7.14v7.14A15.79,15.79,0,0,0,1119.51,372.85Z"/></g><g id="_32402d9c-b466-4b6e-b712-21f347427e46-child-51" data-name="32402d9c-b466-4b6e-b712-21f347427e46-child-51"><path class="cls-1" d="M1224.78,565.27a22.72,22.72,0,0,0,7.93,3.72h19.83a25.37,25.37,0,0,0,7.94-3.57,28.71,28.71,0,0,0,7.13-7.53c1.75-7.62,3.54-15.15,4.76-22.81.2-1.39-6.18-5.12-6.74-7.57a19.46,19.46,0,0,0-15.55-15.63l-17.45-.24a21,21,0,0,0-7.93,3.61l-8.41,8.33a20.39,20.39,0,0,0-3.57,7.93v11.15l3.61,11.9A25.43,25.43,0,0,0,1224.78,565.27Z"/></g><g id="_32402d9c-b466-4b6e-b712-21f347427e46-child-52" data-name="32402d9c-b466-4b6e-b712-21f347427e46-child-52"><path class="cls-1" d="M1176.7,316.88a8,8,0,0,0,2.58-2.73,19.06,19.06,0,0,0,0-6c-.91-1.91-2.54-4.33-5-3a13.52,13.52,0,0,0-3.25,3.49,9.47,9.47,0,0,0,0,4.49C1172.38,314.9,1174,318.31,1176.7,316.88Z"/></g><g id="_32402d9c-b466-4b6e-b712-21f347427e46-child-53" data-name="32402d9c-b466-4b6e-b712-21f347427e46-child-53"><path class="cls-1" d="M1195.35,657.25a7.39,7.39,0,0,0,4,0,21.35,21.35,0,0,0,6.07-6.55,6.68,6.68,0,0,0,0-4,20.53,20.53,0,0,0-6.54-6.07,7.43,7.43,0,0,0-4,0,33.17,33.17,0,0,0-6.19,6.5,6.72,6.72,0,0,0,0,4A20.53,20.53,0,0,0,1195.35,657.25Z"/></g><g id="_32402d9c-b466-4b6e-b712-21f347427e46-child-54" data-name="32402d9c-b466-4b6e-b712-21f347427e46-child-54"><path class="cls-1" d="M1173.49,509.38a10.86,10.86,0,0,0-.2,4.68,12.36,12.36,0,0,0,2.78,4.76,20.54,20.54,0,0,0,8.76,0,12.36,12.36,0,0,0,2.78-4.76,10.8,10.8,0,0,0,0-4.8,21.64,21.64,0,0,0-5.16-4.76,7.4,7.4,0,0,0-4,0A20.7,20.7,0,0,0,1173.49,509.38Z"/></g><g id="_32402d9c-b466-4b6e-b712-21f347427e46-child-55" data-name="32402d9c-b466-4b6e-b712-21f347427e46-child-55"><path class="cls-1" d="M1427,566.61a27.4,27.4,0,0,0-6.11,6.51,15.94,15.94,0,0,0-.28,6.23,6.74,6.74,0,0,0,4.21,3.69,18,18,0,0,0,8.61.31,24.54,24.54,0,0,0,3.56-10.35c.24-2.3-3.72-4.48-6.18-6.23A7.46,7.46,0,0,0,1427,566.61Z"/></g><g id="_32402d9c-b466-4b6e-b712-21f347427e46-child-56" data-name="32402d9c-b466-4b6e-b712-21f347427e46-child-56"><path class="cls-1" d="M1606.91,534.21a8.47,8.47,0,0,0,5.59-11s-1.78-2.06-2.34-2.06H1599c-.6,0-2.42,3.77-2.82,4.8a7.91,7.91,0,0,0,0,2.38A8.83,8.83,0,0,0,1606.91,534.21Z"/></g><g id="_32402d9c-b466-4b6e-b712-21f347427e46-child-57" data-name="32402d9c-b466-4b6e-b712-21f347427e46-child-57"><path class="cls-1" d="M1735.19,490.14a9.44,9.44,0,0,0,4,0c1.91-1,4.44-3.09,3.73-4.4a7.58,7.58,0,0,0-10.35-3.06c-.56.36,0,4,0,5A7.65,7.65,0,0,0,1735.19,490.14Z"/></g><g id="_32402d9c-b466-4b6e-b712-21f347427e46-child-58" data-name="32402d9c-b466-4b6e-b712-21f347427e46-child-58"><path class="cls-1" d="M1757.52,401.73l-2.42-2.38-2.38,2.38,2.38,2.42Z"/></g><g id="_32402d9c-b466-4b6e-b712-21f347427e46-child-59" data-name="32402d9c-b466-4b6e-b712-21f347427e46-child-59"><path class="cls-1" d="M2012.44,485.42a20.52,20.52,0,0,0,8.14,1.71c7.14-.84,12.85-4,12.65-11.9,4-4,5.79-13.77,1.27-18.49a28.82,28.82,0,0,0-15.07-7.57c-2-.4-7.14,3-8.57,4s-4.6,4-4.84,5l-2.5,11.58c-.36,4,2.42,7.46,4,10.87A16.42,16.42,0,0,0,2012.44,485.42Z"/></g><g id="_32402d9c-b466-4b6e-b712-21f347427e46-child-60" data-name="32402d9c-b466-4b6e-b712-21f347427e46-child-60"><path class="cls-1" d="M1773.58,420.73a10.38,10.38,0,0,0,4.64,0,50.46,50.46,0,0,0,7.94-3.57c1.15-.8,4.8-4,4.8-5.2V400.7a9,9,0,0,0-6.43-6.23H1771a15.65,15.65,0,0,0-6.38,6.34v11.35A114.64,114.64,0,0,0,1773.58,420.73Z"/></g><g id="_32402d9c-b466-4b6e-b712-21f347427e46-child-61" data-name="32402d9c-b466-4b6e-b712-21f347427e46-child-61"><path class="cls-1" d="M1446.11,492.56h11a17.49,17.49,0,0,0,4-13.13c-2.22-3.13-6.62-4.24-10.95-5.83a9.64,9.64,0,0,0-3.25,1.07c-2.7,1.27-5.87,2.22-7,5.32a14,14,0,0,0,0,6.3C1441,488.87,1443.93,492.56,1446.11,492.56Z"/></g><g id="_32402d9c-b466-4b6e-b712-21f347427e46-child-62" data-name="32402d9c-b466-4b6e-b712-21f347427e46-child-62"><path class="cls-1" d="M342,545.28a13,13,0,0,0-4.56,4.36c-1.78,7.46,3.49,11.1,10.23,11.9a35.18,35.18,0,0,0,4.8-2c2.26-1.46,4.72-4.44,3.53-7.06A12.72,12.72,0,0,0,342,545.28Z"/></g><g id="_32402d9c-b466-4b6e-b712-21f347427e46-child-63" data-name="32402d9c-b466-4b6e-b712-21f347427e46-child-63"><path class="cls-1" d="M1079.09,406c2,.32,4.16-2.1,4.8-4.24h-7.3a3,3,0,0,0,.28,2.69A3.09,3.09,0,0,0,1079.09,406Z"/></g><g id="_32402d9c-b466-4b6e-b712-21f347427e46-child-64" data-name="32402d9c-b466-4b6e-b712-21f347427e46-child-64"><path class="cls-1" d="M1455.9,552.3c-2.42,1.94-6.38,4-5.43,6.74a10.72,10.72,0,0,0,3.57,4,12.5,12.5,0,0,0,4.8,0,12.72,12.72,0,0,0,3.69-3.69c1.07-2.58-1.87-4.76-3.06-7.06A15.23,15.23,0,0,0,1455.9,552.3Z"/></g><g id="_32402d9c-b466-4b6e-b712-21f347427e46-child-65" data-name="32402d9c-b466-4b6e-b712-21f347427e46-child-65"><path class="cls-1" d="M1518.26,174.72c2.06.48,4.2-2.81,6.07-5.07a10.15,10.15,0,0,0,.2-4.45,39.12,39.12,0,0,0-2.74-4.72c-3.53,0-7.74-1.07-9.8.4a10.24,10.24,0,0,0-2.82,3.53,14.66,14.66,0,0,0,0,6.39C1510.76,173.3,1514.49,173.81,1518.26,174.72Z"/></g><g id="_32402d9c-b466-4b6e-b712-21f347427e46-child-66" data-name="32402d9c-b466-4b6e-b712-21f347427e46-child-66"><path class="cls-1" d="M1411,610.84a12.12,12.12,0,0,0-4.8,0,8.2,8.2,0,0,0-2.38,2.82,46.71,46.71,0,0,0,0,5.55h9.56a42.83,42.83,0,0,0,0-5.55A8.09,8.09,0,0,0,1411,610.84Z"/></g><g id="_32402d9c-b466-4b6e-b712-21f347427e46-child-67" data-name="32402d9c-b466-4b6e-b712-21f347427e46-child-67"><path class="cls-1" d="M855.22,681.52a11.62,11.62,0,0,0-3.29,1,29.33,29.33,0,0,0-5,2.61,12.72,12.72,0,0,0-3.25,5.79,6.5,6.5,0,0,0,2.81,7.22,34.45,34.45,0,0,0,10.87,4.92c3.33-2.85,5.67-6.38,8.69-9.52,1.34-1.35-1.19-4.88-2.34-7.37C862.2,682.91,858.39,682.6,855.22,681.52Z"/></g><g id="_32402d9c-b466-4b6e-b712-21f347427e46-child-68" data-name="32402d9c-b466-4b6e-b712-21f347427e46-child-68"><path class="cls-1" d="M828.44,672.52c1.67-.67.76-3.57.44-5.67s-4-1.75-4.44.24a14,14,0,0,0,0,4.48C824.91,673.23,826.82,673.19,828.44,672.52Z"/></g><g id="_32402d9c-b466-4b6e-b712-21f347427e46-child-69" data-name="32402d9c-b466-4b6e-b712-21f347427e46-child-69"><path class="cls-1" d="M868.55,9.88V4.28L861.48,0a33.79,33.79,0,0,0,0,5.51A6.66,6.66,0,0,0,868.55,9.88Z"/></g><g id="_32402d9c-b466-4b6e-b712-21f347427e46-child-70" data-name="32402d9c-b466-4b6e-b712-21f347427e46-child-70"><path class="cls-1" d="M834.47,490.14a20.94,20.94,0,0,0,5.48,0,32.15,32.15,0,0,0,0-5.55,8,8,0,0,0-4-4,25.38,25.38,0,0,0-5.51,0,32.61,32.61,0,0,0,0,5.59A7.57,7.57,0,0,0,834.47,490.14Z"/></g><g id="_32402d9c-b466-4b6e-b712-21f347427e46-child-71" data-name="32402d9c-b466-4b6e-b712-21f347427e46-child-71"><path class="cls-1" d="M835.78,565.23a25.44,25.44,0,0,0,10.39,15.51,33.48,33.48,0,0,1-4,10.86,21,21,0,0,0,6.3,13.25h11.43c2.42,0,6.82-5,6.26-7.22a25,25,0,0,0-6.94-13.52,6.27,6.27,0,0,1,0-4,26.7,26.7,0,0,0,7.1-12.45,13.93,13.93,0,0,0,0-6.79c-2.57-3-6.07-5.43-9-8.33a21.67,21.67,0,0,0-9.28,0,28.17,28.17,0,0,0-8.13,4A11.45,11.45,0,0,0,835.78,565.23Z"/></g><g id="_32402d9c-b466-4b6e-b712-21f347427e46-child-72" data-name="32402d9c-b466-4b6e-b712-21f347427e46-child-72"><path class="cls-1" d="M772.24,690.85a8.19,8.19,0,0,0-2.78,2.41,10.24,10.24,0,0,0,.24,4.92c.87,2,3.77,1,5.83.76a7.34,7.34,0,0,0,2.3-2.5,32.61,32.61,0,0,0,0-5.59A32.61,32.61,0,0,0,772.24,690.85Z"/></g><g id="_32402d9c-b466-4b6e-b712-21f347427e46-child-73" data-name="32402d9c-b466-4b6e-b712-21f347427e46-child-73"><path class="cls-1" d="M785.25,594.42c-7.93,4-15.55,10.43-26.7,10.75-2.5,0-7.93,4.8-6,6.54L764.78,624c1.43,1.43,3.57,7.93,4.76,9.56.79,1.11,4,5,5.36,4.92a133,133,0,0,1,31.33,1.39c1.31-1.39,5.16-4.49,5.16-5.52V623.18c0-1.59,6.38-6.11,7.14-7.94a32.59,32.59,0,0,0,0-9.56,15.58,15.58,0,0,0-2.42-5.63,41.15,41.15,0,0,0-15.87-9.6A36.53,36.53,0,0,0,785.25,594.42Z"/></g><g id="_32402d9c-b466-4b6e-b712-21f347427e46-child-74" data-name="32402d9c-b466-4b6e-b712-21f347427e46-child-74"><path class="cls-1" d="M731.34,33.2a10,10,0,0,0,7.94-3.77,11.54,11.54,0,0,0,.27-6,16.66,16.66,0,0,0-4.68-5.07,44.82,44.82,0,0,0-10.23-4c-1.11,0-4.56,4-4.92,4.88a10.47,10.47,0,0,0,3.1,10.63A16.37,16.37,0,0,0,731.34,33.2Z"/></g><g id="_32402d9c-b466-4b6e-b712-21f347427e46-child-75" data-name="32402d9c-b466-4b6e-b712-21f347427e46-child-75"><path class="cls-1" d="M730.31,528.85c3.65.36,1.71-5.19,2-7.53A8,8,0,0,0,730.31,528.85Z"/></g><g id="_32402d9c-b466-4b6e-b712-21f347427e46-child-76" data-name="32402d9c-b466-4b6e-b712-21f347427e46-child-76"><path class="cls-1" d="M694,493.31,705.4,504.5c.4.4,3.33-.32,4,0,1.27.63,4.36,4.64,5.59,4.76l22.33,2.38c.68,2.74-1.54,4.88-2.46,7.14a26.21,26.21,0,0,1,5.6,0,19.6,19.6,0,0,1,5.15,4.8,9.59,9.59,0,0,1,0,4.76,18.55,18.55,0,0,1-5.19,4.76,22.42,22.42,0,0,1-5.67,0c-.32,3,3,6.26,2.18,8.37a31.36,31.36,0,0,0-1.51,16.78,8.2,8.2,0,0,0,6.07,5.59,22.49,22.49,0,0,1,16.26,9.52c1.23,1.62,8.49,2.77,10.55,2.77h22.49c2.26,0,5.59-4,7.93-5.75,5.76-4,8.61-10.15,12.74-15.86V543.93c0-2.26-3.65-6.31-5.79-8.37l-12.46-12a119.88,119.88,0,0,1-19.83-6.27,140.33,140.33,0,0,0-23.8-8.45c0-.83-.6-4.88,0-5.35a26.88,26.88,0,0,0,7.18-12.46V477.17l-12.14-12.3a84,84,0,0,0-16.74-5.75l-11,2.22c-7.94,3-13.65,8.37-20.91,11.51,0,3.25,1.11,6.3.8,8.72C695.8,485.3,694.3,489.27,694,493.31Z"/></g><g id="_32402d9c-b466-4b6e-b712-21f347427e46-child-77" data-name="32402d9c-b466-4b6e-b712-21f347427e46-child-77"><path class="cls-1" d="M716.83,276.78c2.26-.39,5.91-4,5.83-5.15-.95-9.52-6.94-13.89-15-12.5-2.26.4-6.22,4-6.1,5C702.55,273.69,708.54,278.21,716.83,276.78Z"/></g><g id="_32402d9c-b466-4b6e-b712-21f347427e46-child-78" data-name="32402d9c-b466-4b6e-b712-21f347427e46-child-78"><path class="cls-1" d="M725.28,410.1a12.12,12.12,0,0,0-4.8,0,18.54,18.54,0,0,0-4.33,4.84,6,6,0,0,0,5.52,8.25,14,14,0,0,0,7.93-4.29,11.09,11.09,0,0,0,.28-6A14.08,14.08,0,0,0,725.28,410.1Z"/></g><g id="_32402d9c-b466-4b6e-b712-21f347427e46-child-79" data-name="32402d9c-b466-4b6e-b712-21f347427e46-child-79"><path class="cls-1" d="M911.66,591.76c-.95.52-4.8,2.18-4.8,2.74v11.18c0,2,5.24,2.78,7.93,4s6-1.07,8.57-2.46a8.12,8.12,0,0,0,2.34-11.62A11.35,11.35,0,0,0,911.66,591.76Z"/></g><g id="_32402d9c-b466-4b6e-b712-21f347427e46-child-80" data-name="32402d9c-b466-4b6e-b712-21f347427e46-child-80"><path class="cls-1" d="M906.9,510.29a9.43,9.43,0,0,0,4.48,0c1.83-1.47,5.24-3.05,4-5.79a9,9,0,0,0-2.74-2.58,65.57,65.57,0,0,0-7.93,0,32.61,32.61,0,0,0,0,5.59A7.31,7.31,0,0,0,906.9,510.29Z"/></g><g id="_32402d9c-b466-4b6e-b712-21f347427e46-child-81" data-name="32402d9c-b466-4b6e-b712-21f347427e46-child-81"><path class="cls-1" d="M920.11,31a17.07,17.07,0,0,0,5.83-2c3.17-1.63,3.53-5.48,4.56-8.61a16.06,16.06,0,0,0-1-3.33,10.74,10.74,0,0,0-13-7.94,17,17,0,0,0-9.76,7.74,25.48,25.48,0,0,0,4.41,10.35C912.37,29.31,916.7,30.15,920.11,31Z"/></g><g id="_32402d9c-b466-4b6e-b712-21f347427e46-child-82" data-name="32402d9c-b466-4b6e-b712-21f347427e46-child-82"><path class="cls-1" d="M1010,446.51c-1.86.87-5.31,2.5-4,5.23a9.22,9.22,0,0,0,2.7,2.58,11,11,0,0,0,4,0,7.77,7.77,0,0,0,2.81-2.42,10.69,10.69,0,0,0,0-5C1014.75,444.92,1011.34,445.8,1010,446.51Z"/></g><g id="_32402d9c-b466-4b6e-b712-21f347427e46-child-83" data-name="32402d9c-b466-4b6e-b712-21f347427e46-child-83"><path class="cls-1" d="M997.1,434.85a15.53,15.53,0,0,0,8.73.35c3-2.61,5.47-6.06,8.33-9a14.72,14.72,0,0,0,.23-8.69,116.15,116.15,0,0,0-13.24-6.06c-.48-.24-2.78.75-3.5,1.07-2.65,1.31-7.14,2.34-7.14,5.27V429C990.51,431.24,994.52,433.46,997.1,434.85Z"/></g><g id="_32402d9c-b466-4b6e-b712-21f347427e46-child-84" data-name="32402d9c-b466-4b6e-b712-21f347427e46-child-84"><path class="cls-1" d="M978.52,449.46l-2.35-2.35,2.35-2.36,2.36,2.36Z"/></g><g id="_32402d9c-b466-4b6e-b712-21f347427e46-child-85" data-name="32402d9c-b466-4b6e-b712-21f347427e46-child-85"><path class="cls-1" d="M873.62,537.94h-7.3a3.25,3.25,0,0,0,.24,2.69,3,3,0,0,0,2.26,1.51C870.85,542.5,873,540.08,873.62,537.94Z"/></g><g id="_32402d9c-b466-4b6e-b712-21f347427e46-child-86" data-name="32402d9c-b466-4b6e-b712-21f347427e46-child-86"><path class="cls-1" d="M878.18,601.68a51.14,51.14,0,0,0,0,10.35h12.74c1.74,0,2.89-2.54,4-4.16a7.43,7.43,0,0,0,0-4A17.84,17.84,0,0,0,888.3,598c-1.63-1-3.61.28-5.36,1C882,599.34,878.46,600.85,878.18,601.68Z"/></g><g id="_32402d9c-b466-4b6e-b712-21f347427e46-child-87" data-name="32402d9c-b466-4b6e-b712-21f347427e46-child-87"><path class="cls-1" d="M874.65,516.56a22.15,22.15,0,0,0,8.13-4.41,5.79,5.79,0,0,0,0-3.68,14.56,14.56,0,0,0-4.75-2.78,11.92,11.92,0,0,0-4.76,0,11.6,11.6,0,0,0-3.42,3.65,10.11,10.11,0,0,0-.19,4.48C870.89,515.21,872.51,517.23,874.65,516.56Z"/></g><g id="_32402d9c-b466-4b6e-b712-21f347427e46-child-88" data-name="32402d9c-b466-4b6e-b712-21f347427e46-child-88"><path class="cls-1" d="M892.34,632.7a58.42,58.42,0,0,0-15.39-4c-4-.4-7.41,2.26-10.82,4A26.1,26.1,0,0,0,859,640a15.9,15.9,0,0,0-1.87,8.84,28.28,28.28,0,0,0,3.69,9.28,69.34,69.34,0,0,0,25.11,9.2c3.41-2.89,6.07-6.14,9-9.12V646.94c0-2.3,4-4.37,6.55-6.07.47-.36,3.21,0,3.73,0a11.72,11.72,0,0,0,5.07-9.44c0-1-4-4.33-5-4.88-1.82-.83-4,.63-5.51,1.35A14.13,14.13,0,0,0,892.34,632.7Z"/></g><g id="_32402d9c-b466-4b6e-b712-21f347427e46-child-89" data-name="32402d9c-b466-4b6e-b712-21f347427e46-child-89"><path class="cls-1" d="M710.12,578.55a20.53,20.53,0,0,0-6.11,6.67c-.83,2.42,1.12,5.11,2.31,7.61a9.4,9.4,0,0,0,7.93,4.45,10.9,10.9,0,0,0,11.9-6.83c1.86-7.26-3.69-10.35-8.93-11.9A19.7,19.7,0,0,0,710.12,578.55Z"/></g><g id="_32402d9c-b466-4b6e-b712-21f347427e46-child-90" data-name="32402d9c-b466-4b6e-b712-21f347427e46-child-90"><path class="cls-1" d="M828.88,1032.6c-5.51-.91-10.87-2.18-16.74-2.62a39.17,39.17,0,0,1-13.45,5.24c-1.74.2-6.46,5.27-7.69,6.9a21.34,21.34,0,0,0-3.73,8.29,24.09,24.09,0,0,1-1.31,12.77,31.6,31.6,0,0,0,11.31,13.17c11.34,8.37,32.84,3.65,39.19-5.51l6.1-13.13a79.37,79.37,0,0,0-6.14-17.73A22.73,22.73,0,0,0,828.88,1032.6Z"/></g><g id="_32402d9c-b466-4b6e-b712-21f347427e46-child-91" data-name="32402d9c-b466-4b6e-b712-21f347427e46-child-91"><path class="cls-1" d="M1260.67,797.27c-1.19.71-2.93,1.66-2.69,3.25,2.53,0,6.58.67,7.45-.64C1264.05,798.26,1262.58,796.24,1260.67,797.27Z"/></g><g id="_32402d9c-b466-4b6e-b712-21f347427e46-child-92" data-name="32402d9c-b466-4b6e-b712-21f347427e46-child-92"><path class="cls-1" d="M1247,674.54a13.73,13.73,0,0,0-3.33,7.94l2.62,12.41a11.9,11.9,0,0,0,11.06,9.72,8.32,8.32,0,0,0,7.93-4c3.73-8.8-1-20.35-5.71-26.1C1254.29,674.31,1248.5,673,1247,674.54Z"/></g><g id="_32402d9c-b466-4b6e-b712-21f347427e46-child-93" data-name="32402d9c-b466-4b6e-b712-21f347427e46-child-93"><path class="cls-1" d="M1218.67,712.38a25,25,0,0,0,3.61-7.93v-23.8c0-.79-3.22-3-3.61-4a10.8,10.8,0,0,1,0-4.8c.79-1.47,6-5.08,6-6.35V654.39c0-.55,2-3.13,2.62-3a121.77,121.77,0,0,1,18.08,4,90.54,90.54,0,0,0,12.89-6l8.21-8.25a26.41,26.41,0,0,0,3.61-7.94,33.34,33.34,0,0,0,0-10.55c-1.66-4.28-4-8.41-6.34-13.17-4-2.26-8.93-4.24-13.65-6.54h-13.64c-3.25,0-8.65,4-10.08,2.06a46.69,46.69,0,0,0-10.59-11.62h-13.4c-1.27,0-5.36,5-6.15,6.47s-1,5.91-.24,6.46l21.82,17a72.15,72.15,0,0,0,2.69,27.76c-4.16,3.65-5.67,8.33-9.12,12.46-.2,3,1,7.45-.83,10.35-5,0-9.68-2.06-15.39-1.39a6.72,6.72,0,0,0-3,2.5c-.75,2.5,2.5,4.68,1.39,7.66a8.08,8.08,0,0,1-2.34,2.85,11.92,11.92,0,0,1-4.76,0,7.69,7.69,0,0,1-2.38-2.77,90.21,90.21,0,0,1,0-10.4,56.76,56.76,0,0,0-6.39,0,30.88,30.88,0,0,0-8.29,4,23.23,23.23,0,0,0-4.32,9.16c-.28.76-.71,4,0,4.84l10.75,10.87c1.43,1.51,3.57,7.93,4.8,9.6a39.19,39.19,0,0,0,6,6,26.87,26.87,0,0,0,7.93,3.57h16.7C1212.64,719.52,1217.6,714,1218.67,712.38Z"/></g><g id="_32402d9c-b466-4b6e-b712-21f347427e46-child-94" data-name="32402d9c-b466-4b6e-b712-21f347427e46-child-94"><path class="cls-1" d="M1156,473.2a97.31,97.31,0,0,0-10-5.79c-1.58-.83-5-5.11-6.5-5.91a9.09,9.09,0,0,0-4.8,0l-11,5a48.33,48.33,0,0,0-6.43,12.77,18.21,18.21,0,0,0,0,9.44l9.6,9.8a27.24,27.24,0,0,0,7.94,3.53,44.78,44.78,0,0,0,10.35,0,36.22,36.22,0,0,0,7.93-3.57c1.11-.79,4.68-4,4.84-5.28a47.76,47.76,0,0,1,1.91-11.62A8.84,8.84,0,0,0,1156,473.2Z"/></g><g id="_32402d9c-b466-4b6e-b712-21f347427e46-child-95" data-name="32402d9c-b466-4b6e-b712-21f347427e46-child-95"><path class="cls-1" d="M1187.21,757.6a30.06,30.06,0,0,0-9.56,0,27,27,0,0,0-7.93,4,19.47,19.47,0,0,0-4.4,8.92,20.6,20.6,0,0,0-.24,9.56,111.36,111.36,0,0,0,8.81,8.57h15.86c1,0,4.37-3.61,5.16-4.76a26.14,26.14,0,0,0,3.77-8.33,26.65,26.65,0,0,0-4.17-10.95A26.1,26.1,0,0,0,1187.21,757.6Z"/></g><g id="_32402d9c-b466-4b6e-b712-21f347427e46-child-96" data-name="32402d9c-b466-4b6e-b712-21f347427e46-child-96"><path class="cls-1" d="M1393,775c-5.52-3.33-9.76-7.93-16.31-10-1.19-.36-5.71.32-7,0a7.34,7.34,0,0,1-3.76-4c-.48-1.15.39-5.87-.24-7.14a102.67,102.67,0,0,1-6.07-14.95,16.26,16.26,0,0,0-6-8.25,63.45,63.45,0,0,0-17.69-6.31,173.51,173.51,0,0,0-18.37,9c-2.26,1.11-4.84,6.06-6.34,5a12.48,12.48,0,0,1-5.71-9.79,14.1,14.1,0,0,0-5.88-8.73,31.57,31.57,0,0,1-9.59-7.34,46,46,0,0,1-11.55-2.3,48.56,48.56,0,0,1-12.13,2.26,23.16,23.16,0,0,0-8.17,3.69l-8.45,8.33c-3,4-2.58,9.48-5.76,13.65a58.3,58.3,0,0,0-18.2-1.43l-13,12.89a22.47,22.47,0,0,0,0,9.52c.32,1.66,2.26,7.93,4,8.57l16.5,6.78c4.76-.28,9.75-2.14,13.6-2.7a32.89,32.89,0,0,1,13.49,7.5,13.48,13.48,0,0,0,4-5c.64-1.55,2.34-1.43,3.69-1s1.59,2,2.26,3.53c-1.78,2-5.51,3.61-5,6.94a52.06,52.06,0,0,1,10.59,0c1.86.71,6.1,6.23,7.93,7.14a15.63,15.63,0,0,0,6.39,0c1.78-.52,4-2.58,4-4V774.93a37.43,37.43,0,0,0,4.88-13.08c.24-2,2.3-3.22,4-4.17a16.4,16.4,0,0,1,4,0c.8,1.47,2.58,6.66,4.37,7.93a52.15,52.15,0,0,1,11.46,9.8,22.68,22.68,0,0,0,7.93,4c1.87.39,7.94-.44,9.6,0a5.38,5.38,0,0,1,3.73,4.2c0,4.76-1.51,9.28-2,13.77a19.39,19.39,0,0,0,3.61,10.63,22,22,0,0,0,5.79,6.06l12.73,6h15.15a26.41,26.41,0,0,0,7.94-3.61,31.27,31.27,0,0,0,6.1-6.06A75.17,75.17,0,0,0,1399,793.7a26,26,0,0,0,.19-10.51A24.72,24.72,0,0,0,1393,775Z"/></g><g id="_32402d9c-b466-4b6e-b712-21f347427e46-child-97" data-name="32402d9c-b466-4b6e-b712-21f347427e46-child-97"><path class="cls-1" d="M1329.81,870.13v7a6.74,6.74,0,0,0,4.76-1.11,2.61,2.61,0,0,0,.83-3.57A5,5,0,0,0,1329.81,870.13Z"/></g><g id="_32402d9c-b466-4b6e-b712-21f347427e46-child-98" data-name="32402d9c-b466-4b6e-b712-21f347427e46-child-98"><path class="cls-1" d="M1457.09,590.61c-.67-.67-4.44-.75-5.83-1.39a7.32,7.32,0,0,0-6.78,0L1432,596.84c-2.19,1.31-2.94,5.55-4,8.88a16.53,16.53,0,0,0,0,7.14,11.28,11.28,0,0,0,6.47,6.27l15.43,2.5c2.85.48,3.56-6.35,5.94-7.34a22.81,22.81,0,0,0,10.32-9.16,10.91,10.91,0,0,0,0-6.15C1463.52,596.05,1460,593.51,1457.09,590.61Z"/></g><g id="_32402d9c-b466-4b6e-b712-21f347427e46-child-99" data-name="32402d9c-b466-4b6e-b712-21f347427e46-child-99"><path class="cls-1" d="M1459.83,647.85a27.23,27.23,0,0,0-5.83-5.91,53.16,53.16,0,0,0-18.36-5.75,78,78,0,0,0-20.75,8.8L1404,661.61c-8.72-3.09-21.93-1.31-30.26-.39a163.56,163.56,0,0,0-21.78-23,98.85,98.85,0,0,1-15.59-2.58,30.65,30.65,0,0,1-7.61-6.9c-.72-.79-1.67-4-2.34-4.88-3.45-4-9.09-5.19-13-9.28a13,13,0,0,0-8.49-1.9,42.64,42.64,0,0,0-10,1.7,40,40,0,0,0-7.93,4,39,39,0,0,0-7.26,7.42,37.49,37.49,0,0,0-2.42,10.35V648.6c4,4,5,9.72,9.48,12.66l19.52,9.63c1.74.88,1.62,4.53,3.61,6A19.92,19.92,0,0,1,1318,691.6c0,1.59,5.35,5.12,5.87,6.62a11.61,11.61,0,0,0,9.2,6.91c4.33,1,7.93-2.07,11.07-3.38L1355.35,691a14.66,14.66,0,0,1,6.39,0,8.1,8.1,0,0,1,2.7,2.3,45.51,45.51,0,0,1,3.33,10c.36,3-4.32,4-6.66,5.63a10.6,10.6,0,0,0-3.61,6.35,8.35,8.35,0,0,0,3.61,7.93,9.87,9.87,0,0,0,11.66,1.23,13.15,13.15,0,0,0,5.15-12.49c-.27-1.67,2.34-4,4-4h11.9a21.55,21.55,0,0,0,7.93-3.57L1418,688.62c5.79,1.27,11.5,3.3,17.17,4.92a24.1,24.1,0,0,0,9,0c4.53-1.9,8.93-4,13.25-6.34a31.52,31.52,0,0,1,6.27-9.32,44.64,44.64,0,0,0,2.54-17.38A126.33,126.33,0,0,0,1459.83,647.85Z"/></g><g id="_32402d9c-b466-4b6e-b712-21f347427e46-child-100" data-name="32402d9c-b466-4b6e-b712-21f347427e46-child-100"><path class="cls-1" d="M1490.89,485.38a22.07,22.07,0,0,0,6.11-10.83,13.05,13.05,0,0,0,0-4.32,7.8,7.8,0,0,0-2.38-2.78,13.82,13.82,0,0,0-4.8,0,25,25,0,0,0-4,2.26c-2.62,5.6-1.27,10.43-.32,15.87C1486.21,485.38,1490,486,1490.89,485.38Z"/></g><g id="_32402d9c-b466-4b6e-b712-21f347427e46-child-101" data-name="32402d9c-b466-4b6e-b712-21f347427e46-child-101"><path class="cls-1" d="M1153.58,655.31A20,20,0,0,0,1145,655a25.86,25.86,0,0,0-6.19,6.46,7.25,7.25,0,0,0-.2,4,18.41,18.41,0,0,0,6.59,6,12.28,12.28,0,0,0,6.31.24,15.86,15.86,0,0,0,6-6.55,14.21,14.21,0,0,0,.27-6.19A6.77,6.77,0,0,0,1153.58,655.31Z"/></g><g id="_32402d9c-b466-4b6e-b712-21f347427e46-child-102" data-name="32402d9c-b466-4b6e-b712-21f347427e46-child-102"><path class="cls-1" d="M1410.45,707.54c-3,3.3-7.93,6.47-9.16,9.6a19.4,19.4,0,0,0,6.54,11.9,10.62,10.62,0,0,0,4.76,0,12.22,12.22,0,0,0,10-11.42,17.36,17.36,0,0,0-2.11-5.32A15,15,0,0,0,1410.45,707.54Z"/></g><g id="_32402d9c-b466-4b6e-b712-21f347427e46-child-103" data-name="32402d9c-b466-4b6e-b712-21f347427e46-child-103"><path class="cls-1" d="M1078.13,710h11.27c2.3,0,4.48-4,5.87-6.58a15.76,15.76,0,0,0,.36-8.77c-2.34-3.29-6.75-4.36-11-6a14,14,0,0,0-3.33,1c-1,.43-4.33,1.58-5,2.69a36.61,36.61,0,0,0-4.16,11.19C1071.67,705.68,1076,710,1078.13,710Z"/></g><g id="_32402d9c-b466-4b6e-b712-21f347427e46-child-104" data-name="32402d9c-b466-4b6e-b712-21f347427e46-child-104"><path class="cls-1" d="M1082.1,846.17a8.55,8.55,0,0,0-4,0,21.47,21.47,0,0,0-5,4.88,11.74,11.74,0,0,0-.24,4.72,12.92,12.92,0,0,0,2.82,4.72,20.22,20.22,0,0,0,8.76,0,9.81,9.81,0,0,0,2.78-9.56A22.23,22.23,0,0,0,1082.1,846.17Z"/></g><g id="_32402d9c-b466-4b6e-b712-21f347427e46-child-105" data-name="32402d9c-b466-4b6e-b712-21f347427e46-child-105"><path class="cls-1" d="M1040.69,546.58a17.18,17.18,0,0,0-6.58-6,14.86,14.86,0,0,0-6.19-.27,8.93,8.93,0,0,0-2.78,2.42,4.8,4.8,0,0,0,0,2.38,12.45,12.45,0,0,0,9.13,7.06,34,34,0,0,0,6.38,0A23.84,23.84,0,0,0,1040.69,546.58Z"/></g><g id="_32402d9c-b466-4b6e-b712-21f347427e46-child-106" data-name="32402d9c-b466-4b6e-b712-21f347427e46-child-106"><path class="cls-1" d="M1146.8,827.29c-4.8,0-10.6-1.38-12.18.32a14.38,14.38,0,0,0-2.94,7.93,23.12,23.12,0,0,0,2.18,6,8.34,8.34,0,0,0,7.94,4c4.48-.83,8.76-2.62,9.68-6.55A11,11,0,0,0,1146.8,827.29Z"/></g><g id="_32402d9c-b466-4b6e-b712-21f347427e46-child-107" data-name="32402d9c-b466-4b6e-b712-21f347427e46-child-107"><path class="cls-1" d="M1006.42,557.06a22.62,22.62,0,0,0-10.35,0L978,565.7c-2.34,4-4.28,9-6.58,13.73v15.23a131.06,131.06,0,0,0,6.14,12.61c.68,1.39,5.8,5,5.8,6.35v18.32c0,.52,1.9,2.22,2.45,2.66a10.9,10.9,0,0,0,14.17,0,44.44,44.44,0,0,0,7.37-7.58c1.15-2.26,0-6.54,3.45-8.84a76.81,76.81,0,0,0,19-15.87,22.56,22.56,0,0,0,3.73-7.93V581.65a19.7,19.7,0,0,0-3.61-7.94l-10.63-10.47Z"/></g><g id="_32402d9c-b466-4b6e-b712-21f347427e46-child-108" data-name="32402d9c-b466-4b6e-b712-21f347427e46-child-108"><path class="cls-1" d="M1051,695.64l-10.43-2.14c-2.89-.59-9.24-1.58-7.26,1.75a15.18,15.18,0,0,1,3,10.83c-.36,2.06,3.61,4.52,6.15,6,1,.63,6.22-.72,7.69.31,3.25,2.22,9,5.36,14.12,2.74a15.55,15.55,0,0,0,5.08-12.3l-12.77-2.38C1055.33,700.17,1052.31,695.92,1051,695.64Z"/></g><g id="_32402d9c-b466-4b6e-b712-21f347427e46-child-109" data-name="32402d9c-b466-4b6e-b712-21f347427e46-child-109"><path class="cls-1" d="M1127.48,683.71a32.15,32.15,0,0,0-5.55,0,32.15,32.15,0,0,0,0,5.55,7.8,7.8,0,0,0,2.41,2.66,10.83,10.83,0,0,0,5,0c2-.84.88-4,.64-6A6,6,0,0,0,1127.48,683.71Z"/></g><g id="_32402d9c-b466-4b6e-b712-21f347427e46-child-110" data-name="32402d9c-b466-4b6e-b712-21f347427e46-child-110"><path class="cls-1" d="M1126.69,649.59c-2.31-1.19-4.37-4-7.1-2.77s-6,2.14-7,5.31c-1.15,3.29-2.14,6.67-3,10.08,2.1,0,7.38.23,9.08,0a12.87,12.87,0,0,0,7.94-4C1127.52,657.13,1126.69,651.18,1126.69,649.59Z"/></g><g id="_32402d9c-b466-4b6e-b712-21f347427e46-child-111" data-name="32402d9c-b466-4b6e-b712-21f347427e46-child-111"><path class="cls-1" d="M1114.47,519.61a12.11,12.11,0,0,0-11.9-9.91,11.37,11.37,0,0,0-7.22,3.17l-10.91,10.43a18.61,18.61,0,0,1-12.61.71,38.29,38.29,0,0,1-9.76-15.86,177.92,177.92,0,0,0,4.8-28.2c0-1.23-3.57-4.88-4.72-5.44l-13.09-6.15c-9.8,0-18.92,2.19-28.44,2.38-14.28.28-30.38-4.6-42.24,1.15a49.46,49.46,0,0,0-13.29,10.83c-.52.56-4-.31-4.24,0a20.63,20.63,0,0,1-14.09,7.42c-2.65.24-4.76,4-6.14,6.35a17.72,17.72,0,0,0-.36,7.93,18.33,18.33,0,0,0,14.87,9.24c1.11,0,3.22,3.37,4.88,4,6.94,3.37,17,4.88,26,7.93h11.59a166.64,166.64,0,0,0,22.72-7.22c2.66-.87,4.53,2.14,5.83,4.33.24.39-.23,3.05,0,3.65a29.61,29.61,0,0,0,7.06,7.45c2.5.91,5.87-1.19,8.33-.83,5.72.87,11.9,1.59,18,2.1v10.51c2.62,1.43,5.79,2.58,7,5.64a16.06,16.06,0,0,1,0,6.18,7.27,7.27,0,0,1-4,3.73,13.63,13.63,0,0,1-6.47.24c-1.94-.75-3.41-5.08-6-3.17a16.84,16.84,0,0,0-4.84,8.88,52.05,52.05,0,0,0,0,8.65c1.11,0,5.08.67,5.79,0,2.34-2.1,4.64-5.79,8.13-6.35,4.53,3.57,6.19,8.81,9,13.33a16.67,16.67,0,0,0,23,4.4c3.53-5.39,9.41-9.48,13-16.14a58,58,0,0,1-1.3-17.73c0-1,4.44-4.29,4.44-5.4V536.43a26.86,26.86,0,0,1,7.06-12.57C1115.1,523.9,1114.79,520.56,1114.47,519.61Z"/></g><g id="_32402d9c-b466-4b6e-b712-21f347427e46-child-112" data-name="32402d9c-b466-4b6e-b712-21f347427e46-child-112"><path class="cls-1" d="M1097.17,719.68c-3.17-1.19-6,1.11-8.52,2.5a6.84,6.84,0,0,0-3.61,4.56,11.14,11.14,0,0,0,5.27,11.9,17.59,17.59,0,0,0,8.65,0,14,14,0,0,0,5.87-6.58,16.61,16.61,0,0,0,.36-8.57C1103.68,721,1099.91,720.71,1097.17,719.68Z"/></g><g id="_32402d9c-b466-4b6e-b712-21f347427e46-child-113" data-name="32402d9c-b466-4b6e-b712-21f347427e46-child-113"><path class="cls-1" d="M1093.23,815.12v-4.76h7.22v4.76Z"/></g><g id="_32402d9c-b466-4b6e-b712-21f347427e46-child-114" data-name="32402d9c-b466-4b6e-b712-21f347427e46-child-114"><path class="cls-1" d="M1881.83,367.22a42.63,42.63,0,0,0-10.24-4c-1.27,0-5.51,5.2-6.3,6.71a12.78,12.78,0,0,0-.28,6.38,15.93,15.93,0,0,0,6.58,6,11.76,11.76,0,0,0,6.31.28A15.6,15.6,0,0,0,1884,376a14.62,14.62,0,0,0,.28-6.14A7,7,0,0,0,1881.83,367.22Z"/></g><g id="_32402d9c-b466-4b6e-b712-21f347427e46-child-115" data-name="32402d9c-b466-4b6e-b712-21f347427e46-child-115"><path class="cls-1" d="M2027.4,608.54a57.92,57.92,0,0,0-16.66-5.91,18,18,0,0,0-7.93,0c-4.8,3.29-7.14,9.24-11.27,14.32l-2.22,10.75,2.42,11.54c.32,1.75,5.47,6.39,7.14,7.58a25,25,0,0,0,7.93,3.57h12.77a26.82,26.82,0,0,0,7.94-3.57,35.87,35.87,0,0,0,6-6,22.58,22.58,0,0,0,3.73-8.21l-2.62-12.46A19.89,19.89,0,0,0,2027.4,608.54Z"/></g><g id="_32402d9c-b466-4b6e-b712-21f347427e46-child-116" data-name="32402d9c-b466-4b6e-b712-21f347427e46-child-116"><path class="cls-1" d="M1838.75,528.38c-2.06,1.74-4.36,4.36-3.41,7.14a8.09,8.09,0,0,0,2.62,2.42,9.78,9.78,0,0,0,4,0,17.53,17.53,0,0,0,6.59-7.1l-2.5-2.42A5.53,5.53,0,0,0,1838.75,528.38Z"/></g><g id="_32402d9c-b466-4b6e-b712-21f347427e46-child-117" data-name="32402d9c-b466-4b6e-b712-21f347427e46-child-117"><path class="cls-1" d="M1836.37,570.18a11.3,11.3,0,0,0-4.56,0c-1.82,1.51-5.24,3.1-4,5.8a13,13,0,0,0,3.53,3.76,10.8,10.8,0,0,0,4.8,0,7.5,7.5,0,0,0,2.38-2.77,11,11,0,0,0,0-4A8.46,8.46,0,0,0,1836.37,570.18Z"/></g><g id="_32402d9c-b466-4b6e-b712-21f347427e46-child-118" data-name="32402d9c-b466-4b6e-b712-21f347427e46-child-118"><path class="cls-1" d="M2044.3,544.16a10.48,10.48,0,0,0-7.94,13.13,23.46,23.46,0,0,0,7,6.94,12.82,12.82,0,0,0,6.51,0,14.44,14.44,0,0,0,5.91-6.62,16.72,16.72,0,0,0,.36-8.37A11.18,11.18,0,0,0,2044.3,544.16Z"/></g><g id="_32402d9c-b466-4b6e-b712-21f347427e46-child-119" data-name="32402d9c-b466-4b6e-b712-21f347427e46-child-119"><path class="cls-1" d="M2164.92,456.78a17.1,17.1,0,0,0,0,4.52c.47,1.67,2.26,1.63,4,1s.76-3.61.44-5.68S2165.59,454.8,2164.92,456.78Z"/></g><g id="_32402d9c-b466-4b6e-b712-21f347427e46-child-120" data-name="32402d9c-b466-4b6e-b712-21f347427e46-child-120"><path class="cls-1" d="M1780,478.2h-14.48a25.29,25.29,0,0,0-7.93,3.73,38.51,38.51,0,0,0-6.07,5.83,26.37,26.37,0,0,0-3.57,7.93v14.64l13.6,13.29a14.09,14.09,0,0,0,9,1.66,52.5,52.5,0,0,0,10-1.82,11.93,11.93,0,0,0,10.36-12.22c0-1.5,4.84-4.88,4.84-6v-11.9a27,27,0,0,0-3.61-7.93A23.51,23.51,0,0,0,1780,478.2Z"/></g><g id="_32402d9c-b466-4b6e-b712-21f347427e46-child-121" data-name="32402d9c-b466-4b6e-b712-21f347427e46-child-121"><path class="cls-1" d="M1534.68,675a54.25,54.25,0,0,1-17.14,1.35,20.79,20.79,0,0,0-11.9-6.43,33,33,0,0,0-15.86.52,45,45,0,0,0-4.92,3c.28,3.45,1.86,6.78,2.38,10.12.36,2.18-.4,8.6.2,10.51a19.44,19.44,0,0,0,4.76,5.15,22.36,22.36,0,0,0,8.25,3.73l11.9-2.58c4-2.93,6.15-8.21,10.83-11.22,7.06,1.74,14,0,16.66-4.6a11.9,11.9,0,0,0,0-6.43A9.29,9.29,0,0,0,1534.68,675Z"/></g><g id="_32402d9c-b466-4b6e-b712-21f347427e46-child-122" data-name="32402d9c-b466-4b6e-b712-21f347427e46-child-122"><path class="cls-1" d="M2143.22,449.21a13.74,13.74,0,0,0-9.08-4.45h-21.58c-5.12,1.75-9.8,3.34-12.14,7.18l-6,12.62a45.73,45.73,0,0,0,2.66,17.41l9.28,9.4a17.72,17.72,0,0,0,8.53,4,60.89,60.89,0,0,1,19.28-2.9,15.59,15.59,0,0,0,8.56-3.65,31.56,31.56,0,0,1,6.79-9.76L2147,457.62A23.48,23.48,0,0,0,2143.22,449.21Z"/></g><g id="_32402d9c-b466-4b6e-b712-21f347427e46-child-123" data-name="32402d9c-b466-4b6e-b712-21f347427e46-child-123"><path class="cls-1" d="M2130.17,529.73a49.08,49.08,0,0,0-18.4-5.83,50,50,0,0,1-11.59,2,31.5,31.5,0,0,0-7.93,4,35.08,35.08,0,0,0-6,5.63,74.33,74.33,0,0,0-8.33,20.39c1.83,5.87,3.29,12.25,4.8,18.52a16.26,16.26,0,0,0,4.21,4.8,61.77,61.77,0,0,0,22,8.49,30.74,30.74,0,0,0,15-2.34c4.84-4,11.43-6.31,14.84-11.7l6-12.54a39.94,39.94,0,0,0-2.62-16.78C2137.83,539.44,2135.49,533.26,2130.17,529.73Z"/></g><g id="_32402d9c-b466-4b6e-b712-21f347427e46-child-124" data-name="32402d9c-b466-4b6e-b712-21f347427e46-child-124"><path class="cls-1" d="M2247.42,270.44a15.64,15.64,0,0,0-13.92-1.87,6.8,6.8,0,0,0-2.66,3.17,16.43,16.43,0,0,0,2.14,10.48c2.1,4.68,11,4.32,14.36,1.31S2251,273,2247.42,270.44Z"/></g><g id="_32402d9c-b466-4b6e-b712-21f347427e46-child-125" data-name="32402d9c-b466-4b6e-b712-21f347427e46-child-125"><path class="cls-1" d="M1560,321c-6.7-1.39-11.89-4.17-18.52-5.32l-11.9,2.46-9.76,9.56a21.28,21.28,0,0,0-3.57,7.94v15.11a27,27,0,0,0,3.61,7.93,33.84,33.84,0,0,0,6,5.91,53.58,53.58,0,0,0,18.65,5.47,11.23,11.23,0,0,0,7.93-2c4-4,9.76-5.08,12.81-9.48a47.71,47.71,0,0,0,6-19,44,44,0,0,1-5-12.93A8.6,8.6,0,0,0,1560,321Z"/></g><g id="_32402d9c-b466-4b6e-b712-21f347427e46-child-126" data-name="32402d9c-b466-4b6e-b712-21f347427e46-child-126"><path class="cls-1" d="M1601.4,647.85h-12.22a31.66,31.66,0,0,1-11.9,8.92,81,81,0,0,0-6.43,18.33,79.77,79.77,0,0,0,6.51,14,48.26,48.26,0,0,0,13.72,5.91c11.11,2.3,21.82.28,26.34-6.58a56.83,56.83,0,0,0,6.31-17.77,46.23,46.23,0,0,0-9.21-16.54Z"/></g><g id="_32402d9c-b466-4b6e-b712-21f347427e46-child-127" data-name="32402d9c-b466-4b6e-b712-21f347427e46-child-127"><path class="cls-1" d="M1661.92,757.76l2.38,2.42,2.42-2.42-2.42-2.38Z"/></g><g id="_32402d9c-b466-4b6e-b712-21f347427e46-child-128" data-name="32402d9c-b466-4b6e-b712-21f347427e46-child-128"><path class="cls-1" d="M1560,456.7a8.59,8.59,0,0,0-4,0,20.9,20.9,0,0,0-5,4.88,10.43,10.43,0,0,0-.2,4.68,7.34,7.34,0,0,0,2.78,2.38,77.28,77.28,0,0,0,8.61,0c1.19-2.3,4-4.44,2.77-6.94A19.6,19.6,0,0,0,1560,456.7Z"/></g><g id="_32402d9c-b466-4b6e-b712-21f347427e46-child-129" data-name="32402d9c-b466-4b6e-b712-21f347427e46-child-129"><path class="cls-1" d="M1540,510.45l-13-6.11a105.71,105.71,0,0,0-17.21,2.62,34.71,34.71,0,0,0-7.93,3.65,28.93,28.93,0,0,0-6.15,5.95,57.46,57.46,0,0,0-5.55,16.66,36.54,36.54,0,0,0,2.53,17.73,23.76,23.76,0,0,0,6.71,7.3l17.49,8.36H1528a48.2,48.2,0,0,0,16.69-6c4.41-3,5.64-8.61,9.6-12.46V531.51c-1.62-4.28-4-8.41-6-12.65Z"/></g><g id="_32402d9c-b466-4b6e-b712-21f347427e46-child-130" data-name="32402d9c-b466-4b6e-b712-21f347427e46-child-130"><path class="cls-1" d="M1746.21,579.82c-3.53,1.87-4.4,6.75-6.94,8.17a24.58,24.58,0,0,0-9.2,7.38,6.55,6.55,0,0,0-1.19,4.68,43.76,43.76,0,0,0,7.93,0c3.06-1.07,4-6.54,5.67-6.66a18.18,18.18,0,0,0,10.36-4.68,22.55,22.55,0,0,0,0-6C1750.42,581.49,1748.24,578.71,1746.21,579.82Z"/></g><g id="_32402d9c-b466-4b6e-b712-21f347427e46-child-131" data-name="32402d9c-b466-4b6e-b712-21f347427e46-child-131"><path class="cls-1" d="M1703.14,610.09c-2.18.24-4,2.54-1.87,4C1701.87,613.26,1708.13,609.61,1703.14,610.09Z"/></g><g id="_32402d9c-b466-4b6e-b712-21f347427e46-child-132" data-name="32402d9c-b466-4b6e-b712-21f347427e46-child-132"><path class="cls-1" d="M1786.35,577.48a5.45,5.45,0,0,0-4.87,1.15c-2.19,1.63-4.49,4.29-3.46,7a11,11,0,0,0,3.38,3.65,11.92,11.92,0,0,0,4.76,0,13.08,13.08,0,0,0,4.79-2.77,13.28,13.28,0,0,0,0-6.39A13,13,0,0,0,1786.35,577.48Z"/></g><g id="_32402d9c-b466-4b6e-b712-21f347427e46-child-133" data-name="32402d9c-b466-4b6e-b712-21f347427e46-child-133"><path class="cls-1" d="M1677.43,602.47l-10.07-9.72a24.3,24.3,0,0,1-11.66-4.52,74.47,74.47,0,0,0-14-25.74l-11.9-5.43a21.2,21.2,0,0,0-8.69,0l-11.9,3.57a58.38,58.38,0,0,1-7.93,3.6h-13.65a34,34,0,0,0,4.72,14.84c1,2-.51,8.84.24,10.83,1.63,4.28,4,8.41,6,12.61l8.33,8.29,12.73,6c.79.36,4-.4,4.76,0a43,43,0,0,1,7.58,7.18c1.27,1.67,3,8.93,5.07,10.12,4,2.3,9,4.28,13.61,6.54a45,45,0,0,0,17.33-2.66l9.4-9.28a27.88,27.88,0,0,0,3.57-7.93,49.44,49.44,0,0,0,0-10.32A25.32,25.32,0,0,0,1677.43,602.47Z"/></g><g id="_32402d9c-b466-4b6e-b712-21f347427e46-child-134" data-name="32402d9c-b466-4b6e-b712-21f347427e46-child-134"><path class="cls-1" d="M1702.58,503.51l-11.9-12.18-13-6a16.5,16.5,0,0,0-7.93-1.43c-2.26.32-6.9,3.33-8.57,3.69s-7.93-.4-9.52,0-4.32,4-5.55,4.8-4-.55-4.29,0a58.24,58.24,0,0,1-15.31,12.5,92.46,92.46,0,0,0-2.73,22.84c2.46,5.79,5.67,11.35,8.56,17.18a30.86,30.86,0,0,0,7.38,7.22,24.74,24.74,0,0,0,10.75,2.46,48.9,48.9,0,0,1,20-2.62,22.18,22.18,0,0,0,8.45-3.53c1.79-1.27,2.3-4,4-5.67.43-.44,4.2.51,4.64,0a49,49,0,0,1,11.38-14l6.11-13.48A46.37,46.37,0,0,1,1702.58,503.51Z"/></g><g id="_32402d9c-b466-4b6e-b712-21f347427e46-child-135" data-name="32402d9c-b466-4b6e-b712-21f347427e46-child-135"><path class="cls-1" d="M849.39,911.07c.59,0-1.59.51-2.26.87-2.66,1.27-7.18,2.3-7.18,5.23v13.45c0,1.71,2.5,2.94,4.16,3.73a13.23,13.23,0,0,0,6.19.24,44.1,44.1,0,0,0,7.58-7.18,18,18,0,0,0,2.26-4.8C861.76,915.51,856.33,911.7,849.39,911.07Z"/></g><g id="_32402d9c-b466-4b6e-b712-21f347427e46-child-136" data-name="32402d9c-b466-4b6e-b712-21f347427e46-child-136"><path class="cls-1" d="M533.85,856.33a14.53,14.53,0,0,0,.24-6.15,6.53,6.53,0,0,0-4.17-3.69,26.17,26.17,0,0,0-8.56-.32,8.62,8.62,0,0,0-2.74,2.46c-1.15,2.18-3.41,4.45-2.42,7.1a12.57,12.57,0,0,0,11.9,6.71C530,862.59,532.3,858.87,533.85,856.33Z"/></g><g id="_32402d9c-b466-4b6e-b712-21f347427e46-child-137" data-name="32402d9c-b466-4b6e-b712-21f347427e46-child-137"><path class="cls-1" d="M481.53,833.44a7.34,7.34,0,0,0-2.38-2.78,11.1,11.1,0,0,0-4.8,0,7.8,7.8,0,0,0-2.38,2.78,46.71,46.71,0,0,0,0,5.55h9.56A32.15,32.15,0,0,0,481.53,833.44Z"/></g><g id="_32402d9c-b466-4b6e-b712-21f347427e46-child-138" data-name="32402d9c-b466-4b6e-b712-21f347427e46-child-138"><path class="cls-1" d="M533.65,712.34c-1.39,0-4.6-4.36-5.91-4.76a32.59,32.59,0,0,0-9.56,0c-1.66.36-6.3,3.14-7.93,3.61a12.52,12.52,0,0,1-4.88,0,122.7,122.7,0,0,0-14.67-6.34L481.57,714c-.39.4.4,3.53,0,4L471.34,729A77.71,77.71,0,0,1,479,753.83l11.9,11.63,25-.32,13.45-13.77v-25.5c0-2.26,4-4.48,6.62-5.87a75.76,75.76,0,0,1,8.53-.36,7,7,0,0,0,4-4,23.13,23.13,0,0,0,0-5.76C543.29,710,538.37,712.07,533.65,712.34Z"/></g><g id="_32402d9c-b466-4b6e-b712-21f347427e46-child-139" data-name="32402d9c-b466-4b6e-b712-21f347427e46-child-139"><path class="cls-1" d="M496.69,855.77a11.67,11.67,0,0,0-4.33,0,21.92,21.92,0,0,0-10.83,6.15c-.59.91,0,4.64,0,5.75h12.78c1,0,4.52-3.61,5.15-4.76a10.8,10.8,0,0,0,0-4.8A7.58,7.58,0,0,0,496.69,855.77Z"/></g><g id="_32402d9c-b466-4b6e-b712-21f347427e46-child-140" data-name="32402d9c-b466-4b6e-b712-21f347427e46-child-140"><path class="cls-1" d="M632.9,839.83c-4.65,0-10.44-2-12.82.55-2.18,6.15-3,13.21-5.67,17.26a11.44,11.44,0,0,0,5.16,12.25,17.55,17.55,0,0,0,8.64,0c2.62-1.07,6.07-4.48,5.8-6.46a30.13,30.13,0,0,1,2.42-15.87C637.58,844.86,634.52,839.83,632.9,839.83Z"/></g><g id="_32402d9c-b466-4b6e-b712-21f347427e46-child-141" data-name="32402d9c-b466-4b6e-b712-21f347427e46-child-141"><path class="cls-1" d="M538.89,974a9.86,9.86,0,0,0-4.52,0c-1.83,1.51-5.28,3.06-4,5.8a14.53,14.53,0,0,0,3.53,3.76,10.8,10.8,0,0,0,4.8,0,7.69,7.69,0,0,0,2.38-2.77,11,11,0,0,0,0-4A7.85,7.85,0,0,0,538.89,974Z"/></g><g id="_32402d9c-b466-4b6e-b712-21f347427e46-child-142" data-name="32402d9c-b466-4b6e-b712-21f347427e46-child-142"><path class="cls-1" d="M601,851.41c.92,1.86,2.46,4.24,4.8,3s1.31-4,.68-5.79a4.49,4.49,0,0,0-5.48-2.38A29.64,29.64,0,0,0,601,851.41Z"/></g><g id="_32402d9c-b466-4b6e-b712-21f347427e46-child-143" data-name="32402d9c-b466-4b6e-b712-21f347427e46-child-143"><path class="cls-1" d="M594.86,774.5a7.41,7.41,0,0,0-1.11,4.76h7.06a7.8,7.8,0,0,0-1.11-4.76,2.89,2.89,0,0,0-4.84,0Z"/></g><g id="_32402d9c-b466-4b6e-b712-21f347427e46-child-144" data-name="32402d9c-b466-4b6e-b712-21f347427e46-child-144"><path class="cls-1" d="M585.1,588.11c1.11,0,4.28-4.28,5.55-4.76s6,.52,7.18,0l11.15-4.8a15,15,0,0,1,7,0c5.31,5.44,13.17,7.94,23,9.48,5.83-1,11.27-3.41,18.41-4.91l19.36-18.89c.47-.47,4,.24,4.76,0a41.4,41.4,0,0,0,7.93-3.6c1.66-1.19,7.34-6.11,7.3-7.66a25,25,0,0,0-4.37-10.67,11.83,11.83,0,0,0-8.88-4,24.4,24.4,0,0,1-11.9-1.58,16.35,16.35,0,0,0-11.27,8.53,36.44,36.44,0,0,1,5.91,0c1.83.59,2.86,2.49,4,4a8.33,8.33,0,0,1,0,4,6.39,6.39,0,0,1-4.36,3.69c-2.66.75-5.71-1.51-8.73-1.79-1.7,0-6.74,2.1-8.41,2.1H632.78a25.84,25.84,0,0,0-7.94,3.57c-1.62,1.15-5.55,6-7.18,7.18a26.5,26.5,0,0,1-7.93,3.49,12.27,12.27,0,0,1-13.64-10.63c-.44-2.85,2.18-4.6,4.32-5.87.36-.23,3,0,3.61,0a52.7,52.7,0,0,0,5.59-5.19,28.8,28.8,0,0,1-2.89-16.07,8.66,8.66,0,0,0-2.78-5.91c-5.83-3.25-14.12-5.39-21.18-8.64l-10.59,3.53a25.29,25.29,0,0,0-4.72,2.49,44.79,44.79,0,0,0-7.26,7.5,25,25,0,0,0,0,6.47,22.64,22.64,0,0,0-9.56,7.93,85.51,85.51,0,0,0,1.23,14.56c0,1.11-4,4-4,4.6a79,79,0,0,1,2.62,13.56l11.38,8.45Z"/></g><g id="_32402d9c-b466-4b6e-b712-21f347427e46-child-145" data-name="32402d9c-b466-4b6e-b712-21f347427e46-child-145"><path class="cls-1" d="M640.27,624.05a115.68,115.68,0,0,0-14.2-2.66,24.53,24.53,0,0,0-8.25,4,23.56,23.56,0,0,0-4.88,5,12.6,12.6,0,0,0,0,6.62l11.19,10.91a22.8,22.8,0,0,0,9.52,0,27.63,27.63,0,0,0,8.37-4,11.29,11.29,0,0,0,4-9.12A18.08,18.08,0,0,0,640.27,624.05Z"/></g><g id="_32402d9c-b466-4b6e-b712-21f347427e46-child-146" data-name="32402d9c-b466-4b6e-b712-21f347427e46-child-146"><path class="cls-1" d="M609,1013.44c-1.23-.47-5.79.32-7.18,0s-6.31-3.33-7.94-3.53a24.64,24.64,0,0,0-11.89,2.38,26,26,0,0,0-10.71,8.37l-6.07,12.69a12.8,12.8,0,0,0,0,6.27,70.79,70.79,0,0,1,7.53,18c.24,1.39,2.46,3.77,3.69,3.57l30-4.56c1.9-.28,6.54-5.72,7.93-7.34a24.64,24.64,0,0,0,3.61-7.93v-15.12a26.47,26.47,0,0,0-3.61-7.93A21.23,21.23,0,0,0,609,1013.44Z"/></g><g id="_32402d9c-b466-4b6e-b712-21f347427e46-child-147" data-name="32402d9c-b466-4b6e-b712-21f347427e46-child-147"><path class="cls-1" d="M515.53,975.36a7.64,7.64,0,0,0-4,0,21.06,21.06,0,0,0-5,4.92,9.35,9.35,0,0,0,0,4.64,22,22,0,0,0,5.16,4.8,9.44,9.44,0,0,0,4,0,7.58,7.58,0,0,0,3.73-4.2,14.51,14.51,0,0,0,.24-6.15C519.22,977.35,517.23,976.31,515.53,975.36Z"/></g><g id="_32402d9c-b466-4b6e-b712-21f347427e46-child-148" data-name="32402d9c-b466-4b6e-b712-21f347427e46-child-148"><path class="cls-1" d="M423.11,576c.47,1.66,2.26,1.5,3.57,1.07a8.32,8.32,0,0,0,2.3-2.5,31.8,31.8,0,0,0,0-5.52,5.46,5.46,0,0,0-6,2.38A12.55,12.55,0,0,0,423.11,576Z"/></g><g id="_32402d9c-b466-4b6e-b712-21f347427e46-child-149" data-name="32402d9c-b466-4b6e-b712-21f347427e46-child-149"><path class="cls-1" d="M412.4,493.87a12.12,12.12,0,0,0-4.56,2.78,14.83,14.83,0,0,0-.24,6.22,6.94,6.94,0,0,0,4,4,12.74,12.74,0,0,0,5.95.24c2.46-1.75,6.39-4,5.36-7.06A8.88,8.88,0,0,0,412.4,493.87Z"/></g><g id="_32402d9c-b466-4b6e-b712-21f347427e46-child-150" data-name="32402d9c-b466-4b6e-b712-21f347427e46-child-150"><path class="cls-1" d="M457.66,456.78h17.53c1.11,0,4.24,4.37,5.55,4.8a24.85,24.85,0,0,0,8.77,0,19.3,19.3,0,0,0,5.19-4.8,12.12,12.12,0,0,0,0-4.8,14.79,14.79,0,0,0-2.81-4.76c-.84-.59-4.68-.59-5.6-1.19-8.33-5.75-27.17-4.88-34.27,2.38a14.55,14.55,0,0,1-3.73,0,25.6,25.6,0,0,1-10.78-8.49,27.59,27.59,0,0,1-3.65-7.57A58.45,58.45,0,0,1,435,416.8c0-2.14-3.26-6.94-3.61-8.61s-1-8.8,0-9.64a26.7,26.7,0,0,0,7.1-12.45,15.39,15.39,0,0,0,0-6.55,36.22,36.22,0,0,1-8.21-13.2,23.07,23.07,0,0,0-14.12-9.92H405a59.7,59.7,0,0,0-8.69,2.46,46.05,46.05,0,0,0-13.84-9c-.28-3.46,1.23-7,.56-8.69a46.48,46.48,0,0,1-1.95-11.9,6.47,6.47,0,0,0-2.26-2.78c-2-.28-5-1.07-6.07,1a76.55,76.55,0,0,1-9.52,16.62c-.63.72-4,.52-4.4,0-1.47-.87-4.92-5-6.39-6a37.29,37.29,0,0,0-9-4c-2.3-.4-4.72,3.05-5.91,5.39a6.2,6.2,0,0,0,.63,6.9A29.4,29.4,0,0,1,327.59,353c-4.68,5.19-7.37,13.8-11.9,19.83-.63.87-4,0-4.36,0-1.82,1.07-4.88,4.25-2.3,5.32a73.33,73.33,0,0,1,17.06,7.93L338,398a19.43,19.43,0,0,0,10.11,3.73c1,0,3.33,2.89,4.24,3.41a59.17,59.17,0,0,0,36.22,9c2.1,0,7.53,4.64,5.87,6.35l-14.68,14.68a21.23,21.23,0,0,0-3.57,7.93v14.36a7.32,7.32,0,0,0,2.38,2.77l22.73,10.95c10.08-1.63,21.34-2.78,32.88-5.27A71.55,71.55,0,0,1,457.66,456.78Z"/></g><g id="_32402d9c-b466-4b6e-b712-21f347427e46-child-151" data-name="32402d9c-b466-4b6e-b712-21f347427e46-child-151"><path class="cls-1" d="M471.89,644.44c-4.6-4.84-9.44-9.72-14.51-14.32a9.24,9.24,0,0,0-9.36-2.5l-14.24,7c-1.75.83-5.56,6-7.18,7.14a40.65,40.65,0,0,1-7.94,3.61c-.87.24-4-.36-4.52,0-2.42,1.86-6.62,4-5.67,5.87,3.25,6.46,4.56,13.17,7.66,18.09a81.87,81.87,0,0,0,18.56-2.5l13.45,2.54a52,52,0,0,0,12.73-2.82,27.25,27.25,0,0,0,7.57-6.86,38.44,38.44,0,0,0,3.57-7.93C472.29,650.51,472.81,645.31,471.89,644.44Z"/></g><g id="_32402d9c-b466-4b6e-b712-21f347427e46-child-152" data-name="32402d9c-b466-4b6e-b712-21f347427e46-child-152"><path class="cls-1" d="M394.47,938.12a16.82,16.82,0,0,1-7.1-10.2c-.44-1.66-4-4.64-5.4-5.27a8.29,8.29,0,0,0-4,0,20.7,20.7,0,0,0-5,4.88,9,9,0,0,0-.28,4.6A28.42,28.42,0,0,1,378.64,943c.36,1-.51,5.63,0,6.94a10.68,10.68,0,0,0,6.31,5.71,16.89,16.89,0,0,0,10.39-1.87C400.1,951.68,400.1,942.4,394.47,938.12Z"/></g><g id="_32402d9c-b466-4b6e-b712-21f347427e46-child-153" data-name="32402d9c-b466-4b6e-b712-21f347427e46-child-153"><path class="cls-1" d="M1028.79,665.86c-.91,1.07-2.81,1.82-2.62,3.17,2.58,0,8.41,1.78,7.7,0C1032.64,665.34,1030.54,663.79,1028.79,665.86Z"/></g><g id="_32402d9c-b466-4b6e-b712-21f347427e46-child-154" data-name="32402d9c-b466-4b6e-b712-21f347427e46-child-154"><path class="cls-1" d="M444.13,702.82H430.6a7,7,0,0,0-2.77,2.38,9.63,9.63,0,0,0,.2,4.65c1.11,1.7,5.87,7.29,7.37,7.29h11.15c.55,0,2.46-3.72,2.78-4.76a12.5,12.5,0,0,0,0-4.8C448.65,706.43,445.12,702.82,444.13,702.82Z"/></g><g id="_32402d9c-b466-4b6e-b712-21f347427e46-child-155" data-name="32402d9c-b466-4b6e-b712-21f347427e46-child-155"><path class="cls-1" d="M430.17,867.79a14,14,0,0,0,0,4.48c.47,1.71,2.3,1.67,4,1s.72-3.6.4-5.71S430.76,865.81,430.17,867.79Z"/></g><g id="_32402d9c-b466-4b6e-b712-21f347427e46-child-156" data-name="32402d9c-b466-4b6e-b712-21f347427e46-child-156"><path class="cls-1" d="M412.4,610.84a36.22,36.22,0,0,0,7.93,3.57,22.26,22.26,0,0,0,9.68,0,42.63,42.63,0,0,0,8.73-9.36,20.57,20.57,0,0,0-9.56-14.64,43.2,43.2,0,0,1-5.24-1.15,7.82,7.82,0,0,0-6.78,0,26.78,26.78,0,0,0-5,2.7,25.52,25.52,0,0,0-4.44,9,10,10,0,0,0,0,4.61A22.79,22.79,0,0,0,412.4,610.84Z"/></g><g id="_32402d9c-b466-4b6e-b712-21f347427e46-child-157" data-name="32402d9c-b466-4b6e-b712-21f347427e46-child-157"><path class="cls-1" d="M427.19,752.68a13.1,13.1,0,0,0-9.08-3.76,15,15,0,0,0-9,1.94,21.44,21.44,0,0,0-6.35,10.55,9.59,9.59,0,0,0,0,4.52c2.58,3,6,5.51,9,8.37a15.81,15.81,0,0,0,7,0,30.53,30.53,0,0,0,8.33-3.77,15.46,15.46,0,0,0,4-9.52A12.26,12.26,0,0,0,427.19,752.68Z"/></g><g id="_32402d9c-b466-4b6e-b712-21f347427e46-child-158" data-name="32402d9c-b466-4b6e-b712-21f347427e46-child-158"><path class="cls-1" d="M385.94,591.68a12.12,12.12,0,0,0,4.8,0,13.91,13.91,0,0,0,4.76-2.77,6.72,6.72,0,0,0,0-4,14.1,14.1,0,0,0-4.76-2.78,11.1,11.1,0,0,0-4.52,0c-1.83,1.47-5.24,3.06-4,5.79A13.65,13.65,0,0,0,385.94,591.68Z"/></g><g id="_32402d9c-b466-4b6e-b712-21f347427e46-child-159" data-name="32402d9c-b466-4b6e-b712-21f347427e46-child-159"><path class="cls-1" d="M917,793.94c-1.35-.68-7,.19-8.53-.32s-4.29-4.29-5.59-4.8a18.8,18.8,0,0,0-6.35,0,10.12,10.12,0,0,0-2.78,2.38,29.51,29.51,0,0,0-3.57,7.93v12.73a12.39,12.39,0,0,0,10.28,10.24c1.38.24,6.94,1.23,7.93,0,5-5.6,8.84-13.33,15.07-18.33a6.68,6.68,0,0,0,0-4A16.73,16.73,0,0,0,917,793.94Z"/></g><g id="_32402d9c-b466-4b6e-b712-21f347427e46-child-160" data-name="32402d9c-b466-4b6e-b712-21f347427e46-child-160"><path class="cls-1" d="M966.68,889.29c-.52.44-1.83,2-2.34,2.42-3.73,3.57-5.68,12.53-1.15,16.5a69.59,69.59,0,0,1,9.75,7.3,19.07,19.07,0,0,0,14.44-5.32c1.75-9,.68-17.17-4-21A15.57,15.57,0,0,0,966.68,889.29Z"/></g><g id="_32402d9c-b466-4b6e-b712-21f347427e46-child-161" data-name="32402d9c-b466-4b6e-b712-21f347427e46-child-161"><path class="cls-1" d="M1013.36,938c-4,1.31-7.57,2.42-8.53,5.51a64.83,64.83,0,0,0,0,10.24c2.07,0,9.8.95,10.4,0a23.41,23.41,0,0,0,3.41-10C1018.88,941.65,1015.31,937.32,1013.36,938Z"/></g><g id="_32402d9c-b466-4b6e-b712-21f347427e46-child-162" data-name="32402d9c-b466-4b6e-b712-21f347427e46-child-162"><path class="cls-1" d="M382.41,623.93a28.7,28.7,0,0,0,4-9c.39-2.26-2.78-5.24-5.12-6.43l-12.69-6a19.31,19.31,0,0,0-7.94,0c-6.62,2.5-13.92,5-15,13a19.06,19.06,0,0,0,7.1,11.9l12.69,6a13.6,13.6,0,0,0,7.38,0Z"/></g><g id="_32402d9c-b466-4b6e-b712-21f347427e46-child-163" data-name="32402d9c-b466-4b6e-b712-21f347427e46-child-163"><path class="cls-1" d="M902.66,918.21a17.6,17.6,0,0,0-8.53-.32,27.84,27.84,0,0,0-11.27,15.35,39.86,39.86,0,0,0-.67,9.2,11,11,0,0,0,5,8.93,19.07,19.07,0,0,0,14.79-6.27c.56-.56-.27-4,0-4.21a27.4,27.4,0,0,0,7.18-12.45,11.42,11.42,0,0,0,0-4.36A15.57,15.57,0,0,0,902.66,918.21Z"/></g><g id="_32402d9c-b466-4b6e-b712-21f347427e46-child-164" data-name="32402d9c-b466-4b6e-b712-21f347427e46-child-164"><path class="cls-1" d="M917.06,827.21a7.64,7.64,0,0,0-4,0,35,35,0,0,0-6.23,6.51,6.72,6.72,0,0,0,0,4,21,21,0,0,0,6.55,6.1,7.39,7.39,0,0,0,4,0,20.32,20.32,0,0,0,6.07-6.54,6.72,6.72,0,0,0,0-4A20.77,20.77,0,0,0,917.06,827.21Z"/></g><g id="_32402d9c-b466-4b6e-b712-21f347427e46-child-165" data-name="32402d9c-b466-4b6e-b712-21f347427e46-child-165"><path class="cls-1" d="M1038.35,636.86a8.35,8.35,0,0,0,2.34-2.54,32.61,32.61,0,0,0,0-5.59h-7.18a28.66,28.66,0,0,0,0,5.24C1034.42,635.83,1036,638.21,1038.35,636.86Z"/></g><g id="_32402d9c-b466-4b6e-b712-21f347427e46-child-166" data-name="32402d9c-b466-4b6e-b712-21f347427e46-child-166"><path class="cls-1" d="M971.12,632.46c-.87-.68-4.56-6.94-4.52-1.31,0,.48,1.94,1.9,2.38,2.38Z"/></g><g id="_32402d9c-b466-4b6e-b712-21f347427e46-child-167" data-name="32402d9c-b466-4b6e-b712-21f347427e46-child-167"><path class="cls-1" d="M1028.71,760.93l-2.38-25.46L1012,720.32a13.72,13.72,0,0,1,0-7.14l5-11.9a61.35,61.35,0,0,1-2.86-19.24,24.26,24.26,0,0,0-3.49-7.93A13.29,13.29,0,0,0,994.08,669c-2.34,1.23-6.86-2.58-9-1.63-4.88,2.19-10.31-1.78-16.06.48a41.62,41.62,0,0,0-4.88,3.09,14.11,14.11,0,0,1-4.64,12.7,28.73,28.73,0,0,0-5.6-2.38H942a27.31,27.31,0,0,1-12.49,7.06,18.65,18.65,0,0,1-6.58,0c-1.19-.44-5.68-4-5.48-5.08A9.88,9.88,0,0,0,914,672c-1.35-.8-4.28,1.86-4.56,4.24a40.69,40.69,0,0,1-6.47,19.36l-12.81-1.39c-1.74-.2-4.64,6.19-4.64,9.36v11.9a6.78,6.78,0,0,1-2.3,2.66,43.18,43.18,0,0,1-8.17-.8,90.12,90.12,0,0,0-16.9,2.42,70.86,70.86,0,0,0-22.45-6.9,20.51,20.51,0,0,0-7.93,1.94c-3.21,1.23-4,6.27-5.87,6.47a81,81,0,0,0-13.41,3.17c-4-1.11-7.93-3.37-11.9-5H777.36c-1,0-5.48,4-5.36,5a16.7,16.7,0,0,0,6.15,10.79c.67.56,0,4.68,0,5.55a24.32,24.32,0,0,1-14.28.6c-3.61-5.36-8.25-8.89-10.87-14.68l-10.67-11.18a102.38,102.38,0,0,1-2.7-15.87c0-1.7-5.23-6.46-6.9-7.69s-6.62-4-8.37-3.77a111,111,0,0,1-13.92,2.54c-7.93,5.79-13.53,13.8-20.35,20.15a44.39,44.39,0,0,1-10.91,4,39,39,0,0,0-9-12.69,6.11,6.11,0,0,0-7.18.71c-.52-.47-1.67-2.14-2.14-2.69a58.85,58.85,0,0,0-25-16.34l-12.73-2.46H607.31c-.79,0-3.17,2.85-4,3.65a20.79,20.79,0,0,1,9.84,6.54c1.87,2.38,6.86-.87,9.4-.36s4.21,2,3.53,4.49a19,19,0,0,1-7.14,9.32,91.61,91.61,0,0,0-6.86,19.43,33.49,33.49,0,0,1-7.54,16.46c-.63.68-3.64.48-4.32.2s-3.09-3.33-4-3.49a29.89,29.89,0,0,0-8.44.48,24.41,24.41,0,0,1-9.05-2,15,15,0,0,1-5.63-4.84c-.87-2.37,2.42-4.6,1.55-7.57,2.26-1.15,4.48-4,7-2.78a46.87,46.87,0,0,1,12.41,6.94,10.25,10.25,0,0,0,4.41,0,8.91,8.91,0,0,0,2.38-2.77c.23-.72-.32-3.37,0-4,.63-1.31,4-4.32,4.79-5.59a9.49,9.49,0,0,0,0-4,8.43,8.43,0,0,0-4-4c-.56-.31-3.1,0-4,0-1.82-.67-4-2.57-4-4.32,0-2.7,1-9.76-1.79-10.55a37.7,37.7,0,0,0-9,7.34,43.44,43.44,0,0,1-19.32,3.13,10.86,10.86,0,0,0-9,4.48c-1.63,2.38,1.46,4.68,1.94,6.83a74.48,74.48,0,0,1,0,10.35,29.44,29.44,0,0,1,11.9,9.16c1.31,1.63,3.49,7.93,5.12,9.8a12.76,12.76,0,0,0,9,4,21.75,21.75,0,0,1,16.94,7.1l49.26.39a105.56,105.56,0,0,0,2.54,17.57,22.91,22.91,0,0,0,14.79,11.15,43.7,43.7,0,0,0,17.06-2.74c1.19-.31,4.72-4.64,6.15-5.55a33.87,33.87,0,0,1,9-4c2.38-.39,4.29,4.6,6.71,5l14.16,2.42,21.73-4.8a50.76,50.76,0,0,0,15.59,2.46c0-5.28-2.14-10.15-2.42-15,0-2.54,4-4.68,6.27-6.43a8.21,8.21,0,0,1,3.69,0c3,1.27,3.69,4.76,5.55,7.06a11.86,11.86,0,0,0,9.4,4.56,20.1,20.1,0,0,0,13.05-5.75V747.37c0-1.71,2.54-2.86,4-4,.55-.32,3.17,0,4,0,1.27-.63,4.29-4.32,5.6-4.8a47.82,47.82,0,0,1,8.29,0,65.49,65.49,0,0,1-4.88,13.85c-.88,2.14,3.33,4.36,4.6,7.06.75,1.54-.36,4,.87,5.67,2.54,3.65,7.93,1,9.12,3.17-1.23.72-4.6,2.14-5,3a12.32,12.32,0,0,0,0,6.38c3.29,4.84,9.32,7.06,14.43,11.19a23.1,23.1,0,0,0,10.12,2.5A44.92,44.92,0,0,0,854.27,787c1.11-.59,2.26,1.95.87,4.92a15.39,15.39,0,0,1-12.1,8.61c-.75,0-5-2.06-7.34-2.38s-4.24,3.13-6.15,5.39a7.84,7.84,0,0,0,0,4.65l7.62,12.33c1.35,2.14,5.55,2.94,8.88,4a27,27,0,0,0,9.41.28c1.5-.56,4.91-5,6.38-6a49,49,0,0,1,7.93-3.57c.92-.24,4,.27,4.8,0a7.49,7.49,0,0,0,4-4,40.91,40.91,0,0,0,0-8.85c-2.62-1.38-5.71-2.57-7-5.59-.28-.55-.87-4,0-4.6a63.34,63.34,0,0,0,13.21-10.07,43.58,43.58,0,0,1,17-2.86,23.72,23.72,0,0,0,7.94-3.41,20,20,0,0,0,4.8-5.2,21.1,21.1,0,0,0,0-8.88c-1.11-2.58-4.6-6.71-6.63-6.43L888,758.12a33,33,0,0,0,0-7.94c-3.69-4.6-6.27-10.78-9.12-14.55-1.71-2.22,1.78-6.47,4-8.81.32-.32,3.57-.59,4,0,2.82,4.48,4.64,9.76,7.62,14.2a13.63,13.63,0,0,0,10.63,5.91c.87,0,3.25-6.3,4.52-7,2.62-1.47,5,1.79,7.34,2.94,0,.67-.52,3.53,0,4l11.18,10.91h20.67c1.15,0,4.28,4.17,5.59,4.8a9.13,9.13,0,0,0,6.31,0c7.93-4.2,21.93-3.17,27.29,4.52a22.72,22.72,0,0,0,10.19,2.66h12.73c2.42,0,7,5,6.27,7.5a83.27,83.27,0,0,1-4.88,12.73,111.31,111.31,0,0,1,2.66,13.92c0,.68,1.94,3.29,2.66,3.21,5.27-.51,9.48-2.73,15.47-2a9.92,9.92,0,0,0,8.64-4,27.48,27.48,0,0,0,4.41-11.9,75.28,75.28,0,0,1-7.54-18.16ZM696.6,714.76l-2.42-2.38L696.6,710l2.38,2.42Z"/></g><g id="_32402d9c-b466-4b6e-b712-21f347427e46-child-168" data-name="32402d9c-b466-4b6e-b712-21f347427e46-child-168"><path class="cls-1" d="M1028.87,871.08a7.79,7.79,0,0,0-2.54,3,32.61,32.61,0,0,0,0,5.59,32.73,32.73,0,0,0,5.6,0,7,7,0,0,0,2.93-2.58C1035.61,874.3,1031.65,870.33,1028.87,871.08Z"/></g><g id="_32402d9c-b466-4b6e-b712-21f347427e46-child-169" data-name="32402d9c-b466-4b6e-b712-21f347427e46-child-169"><path class="cls-1" d="M801.87,940.7a8.41,8.41,0,0,0-7.34,1.07c-2,1.78-4.44,4.36-3.29,7.06a18.57,18.57,0,0,0,4.92,4.88,8.55,8.55,0,0,0,4,0,20.68,20.68,0,0,0,5.2-4.8,9.59,9.59,0,0,0,0-4.76A10.93,10.93,0,0,0,801.87,940.7Z"/></g><g id="_32402d9c-b466-4b6e-b712-21f347427e46-child-170" data-name="32402d9c-b466-4b6e-b712-21f347427e46-child-170"><path class="cls-1" d="M708.54,929.87v7.06a7,7,0,0,0,4.76-1.15,2.58,2.58,0,0,0,1.19-1.59,2.69,2.69,0,0,0-.32-2A5.08,5.08,0,0,0,708.54,929.87Z"/></g><g id="_32402d9c-b466-4b6e-b712-21f347427e46-child-171" data-name="32402d9c-b466-4b6e-b712-21f347427e46-child-171"><path class="cls-1" d="M709.13,1023.36a13.34,13.34,0,0,0-6.15-.24,17.07,17.07,0,0,0-5,4.88,10.28,10.28,0,0,0-.2,4.68,7.69,7.69,0,0,0,2.77,2.38,19.27,19.27,0,0,0,4.8,0,17.41,17.41,0,0,0,7.94-4.25,5.41,5.41,0,0,0-4-7.45Z"/></g><g id="_32402d9c-b466-4b6e-b712-21f347427e46-child-172" data-name="32402d9c-b466-4b6e-b712-21f347427e46-child-172"><path class="cls-1" d="M707.11,887a10.3,10.3,0,0,0-3.25-10.59,21.56,21.56,0,0,0-8.25-4,15,15,0,0,0-7,0l-8.88,8.89c-1.39,1.39,1.51,5.27,2.66,7.93,1.46,3.09,5,3.73,8.21,4.64a23.93,23.93,0,0,0,9.16.24A25.86,25.86,0,0,0,707.11,887Z"/></g><g id="_32402d9c-b466-4b6e-b712-21f347427e46-child-173" data-name="32402d9c-b466-4b6e-b712-21f347427e46-child-173"><path class="cls-1" d="M690.05,948.91a8.29,8.29,0,0,0-4,0,32.88,32.88,0,0,0-6.19,6.5,6.72,6.72,0,0,0,0,4,20.45,20.45,0,0,0,4.8,5.19,11.92,11.92,0,0,0,4.76,0,8.57,8.57,0,0,0,5.47-11A19.92,19.92,0,0,0,690.05,948.91Z"/></g><g id="_32402d9c-b466-4b6e-b712-21f347427e46-child-174" data-name="32402d9c-b466-4b6e-b712-21f347427e46-child-174"><path class="cls-1" d="M682.67,988.53c-1.86,1.43-5.39,2.9-4,5.63a8.14,8.14,0,0,0,2.74,2.54,32.61,32.61,0,0,0,5.59,0,28.12,28.12,0,0,0,0-5.19C686.09,989.6,684.46,987.14,682.67,988.53Z"/></g><g id="_32402d9c-b466-4b6e-b712-21f347427e46-child-175" data-name="32402d9c-b466-4b6e-b712-21f347427e46-child-175"><path class="cls-1" d="M828,837.41a30.87,30.87,0,0,0-3.57-7.94L812,817.58A110.37,110.37,0,0,1,798.14,815a18.39,18.39,0,0,0-8.37,4l-19.36,19.36a20.78,20.78,0,0,1-7.1,4.2,8.87,8.87,0,0,0-5.91,8.25A83.7,83.7,0,0,0,766.84,868h21.34c1.11,0,4.49-4.76,5.6-4.76h11.9a22.66,22.66,0,0,0,8.56-4c5.08-4.56,8.17-11.9,13.65-17.25A11.15,11.15,0,0,0,828,837.41Zm-45.42,19.12c-.4,1.23-4,5.07-4.88,5a11.5,11.5,0,0,1-9.44-5.07,22.67,22.67,0,0,1,.2-8.61,11.7,11.7,0,0,1,2.14-3c2-2,5.48-1.22,7.94-.59a5.68,5.68,0,0,1,4,3.49A25.83,25.83,0,0,1,782.59,856.53Z"/></g><g id="_32402d9c-b466-4b6e-b712-21f347427e46-child-176" data-name="32402d9c-b466-4b6e-b712-21f347427e46-child-176"><path class="cls-1" d="M698.78,842.76l7.38-7.93V818.29a16.74,16.74,0,0,0-4-8.49c-4-2.34-9-4.32-13.64-6.58a45.25,45.25,0,0,0-17.34,2.65l-9.4,9.29a17.47,17.47,0,0,0-3.57,8.33l3.61,10.74a16.22,16.22,0,0,0,7.93,9.13A36.63,36.63,0,0,0,698.78,842.76Z"/></g><g id="_32402d9c-b466-4b6e-b712-21f347427e46-child-177" data-name="32402d9c-b466-4b6e-b712-21f347427e46-child-177"><path class="cls-1" d="M823.21,951.33l2.42-2.42-2.42-2.38-2.38,2.38Z"/></g><g id="_32402d9c-b466-4b6e-b712-21f347427e46-child-178" data-name="32402d9c-b466-4b6e-b712-21f347427e46-child-178"><path class="cls-1" d="M721.31,843.91a6.88,6.88,0,0,0-4,0c-1.19.64-5.11,4-5.08,4.92A17.06,17.06,0,0,0,718.57,860a11.05,11.05,0,0,0,11.27,12.13,31.51,31.51,0,0,0,4.95-2.06,8.69,8.69,0,0,0,3.61-5.79,8.8,8.8,0,0,0-1.54-6.66A98,98,0,0,1,721.31,843.91Z"/></g><g id="_32402d9c-b466-4b6e-b712-21f347427e46-child-179" data-name="32402d9c-b466-4b6e-b712-21f347427e46-child-179"><path class="cls-1" d="M764.27,1051.68H753.52a17.71,17.71,0,0,0-8.61,15.86c.44,7.1,7.1,11.47,15.43,10.2a26.28,26.28,0,0,0,8.37-3.53,22.62,22.62,0,0,0,4.28-9.16c.28-.76.72-4,0-4.8C770.45,1057.23,767.2,1054.57,764.27,1051.68Z"/></g></g></g></g></svg>