<svg xmlns="http://www.w3.org/2000/svg" viewBox="0 0 3106 717.71"><defs><style>.cls-1{fill:#fff;}</style></defs><title>3266093e-46ab-460b-bfac-71f75f446dffmdpi</title><g id="Layer_2" data-name="Layer 2"><g id="Layer_1-2" data-name="Layer 1"><g id="_3266093e-46ab-460b-bfac-71f75f446dff" data-name="3266093e-46ab-460b-bfac-71f75f446dff"><g id="ea92eed4-c013-4239-b000-5cf281fa0d85"><path class="cls-1" d="M663.89,0V717.71H85.94A85.64,85.64,0,0,1,0,631.77V0H171.88V546.78h74.6V204H418.35v342.8H493V0ZM995.36,717.71V171.87H866.93V407h96.32V578.89H866.93V717.71H696V85.93C696,38.72,734.71,0,781.93,0h385.3V717.71Zm567.56,0-192.65-357v357H1199.34V85.93c0-47.21,37.77-85,85-85.93h85.94l192.65,357V0h171.87V717.71Zm578.89,0H1970.88V171.87h-204V.94h578.89V171.87h-204Zm460.85-512.79V376.8H2345.79V547.73h256.87v170H2173.92V87.82a85.64,85.64,0,0,1,85.93-85.93h342.81V172.82H2345.79v32.1ZM3106,87.82V633.66c0,47.22-38.72,84.05-85.94,84.05H2838.75v-170h96.32V172.82H2806.64V717.71H2634.76V1.89h385.3A85.64,85.64,0,0,1,3106,87.82Z"/></g></g></g></g></svg>