<svg xmlns="http://www.w3.org/2000/svg" viewBox="0 0 293.14 367.29"><title>Asset 72</title><g id="Layer_2" data-name="Layer 2"><g id="Layer_1-2" data-name="Layer 1"><g id="_3ed768b9-0ffe-45c2-803b-416a24e65d59" data-name="3ed768b9-0ffe-45c2-803b-416a24e65d59"><g id="_3ed768b9-0ffe-45c2-803b-416a24e65d59-child-0" data-name="3ed768b9-0ffe-45c2-803b-416a24e65d59-child-0"><path d="M52.27,367.29a11.7,11.7,0,0,1-8.46-3.44,11.45,11.45,0,0,1-3.55-8.55,17.82,17.82,0,0,1,1.67-6.66,98.34,98.34,0,0,1,6.52-11.91l71.16-116.44H13.43A13.63,13.63,0,0,1,4,216.66a11.78,11.78,0,0,1-4-9A13.58,13.58,0,0,1,5.48,196.3L241.93,5.3a37.32,37.32,0,0,1,5.55-3.88,10.21,10.21,0,0,1,5-1.41,12.26,12.26,0,0,1,11,6q3.8,6-.61,13.3L185.24,146.05h94.47a13.63,13.63,0,0,1,9.53,3.52,11.89,11.89,0,0,1,3.89,9.19,14,14,0,0,1-5.29,11.29L67.65,358.82a53.66,53.66,0,0,1-8.94,6.66A13.71,13.71,0,0,1,52.27,367.29Zm6-17.83L277.59,161.37a.77.77,0,0,0,.44-.8c-.07-.3-.32-.43-.79-.43h-116L247,19.79c.25-.47.25-.8,0-1s-.59-.1-1,.25L15.54,205.2c-.34.23-.49.47-.43.7s.27.35.62.35H143.57l-86.7,142c-.47.81-.54,1.38-.19,1.66S57.58,350,58.23,349.46Z"/></g></g></g></g></svg>