<?xml version="1.0" encoding="utf-8"?>
<!-- Generator: Adobe Illustrator 24.0.0, SVG Export Plug-In . SVG Version: 6.00 Build 0)  -->
<svg version="1.1" id="Layer_1" xmlns="http://www.w3.org/2000/svg" xmlns:xlink="http://www.w3.org/1999/xlink" x="0px" y="0px"
	 viewBox="0 0 440.7 440.7" style="enable-background:new 0 0 440.7 440.7;" xml:space="preserve">
<style type="text/css">
	.st0{fill:#231F20;}
</style>
<title>Asset 1</title>
<g id="Layer_2_1_">
	<g id="Layer_1-2">
		<g id="_22b67e09-c073-4b73-b6b7-92aaeca275a0">
			<g id="_22b67e09-c073-4b73-b6b7-92aaeca275a0-child-0">
				<path class="st0" d="M33.9,132.5c0.1-0.3,0.2-0.5,0.3-0.8C34.1,132,34,132.3,33.9,132.5z"/>
			</g>
			<g id="_22b67e09-c073-4b73-b6b7-92aaeca275a0-child-2">
				<path class="st0" d="M216.6,221.9L9.2,283.4c4,13.5,9.3,26.5,15.9,39L216.6,221.9z M224.1,221.9l192.2,99.3
					c6.5-12.5,11.7-25.6,15.6-39L224.1,221.9z M24.5,119.5c-6.4,12.5-11.7,25.6-15.6,39l207.8,60.3L24.5,119.5z M415.7,118.3
					L224.1,218.8l207.4-61.5C427.5,143.8,422.2,130.8,415.7,118.3z"/>
			</g>
			<g id="_22b67e09-c073-4b73-b6b7-92aaeca275a0-child-3">
				<path class="st0" d="M217.7,223.1l-166.9,138c9.6,11.5,20.3,22,32.1,31.4L217.7,223.1z M223.1,223.1l138,166.9
					c11.5-9.6,22.1-20.4,31.4-32.1L223.1,223.1z M79.6,50.8c-11.5,9.6-22.1,20.4-31.4,32.1l169.4,134.8L79.6,50.8z M357.9,48.2
					L223.1,217.6l166.9-138C380.3,68.1,369.6,57.6,357.9,48.2z"/>
			</g>
			<g id="_22b67e09-c073-4b73-b6b7-92aaeca275a0-child-4">
				<path class="st0" d="M218.8,224.1l-99.3,192.1c12.5,6.4,25.6,11.7,39,15.6L218.8,224.1z M221.8,224.1l61.5,207.4
					c13.5-4,26.5-9.3,39-15.9L221.8,224.1z M157.3,9.2c-13.5,4-26.5,9.3-39,15.9l100.5,191.5L157.3,9.2z M282.2,8.8l-60.3,207.8
					l99.3-192.1C308.7,18,295.6,12.7,282.2,8.8z"/>
			</g>
			<g id="_22b67e09-c073-4b73-b6b7-92aaeca275a0-child-5">
				<path class="st0" d="M220.3,224.6l-21.1,215.1c6.7,0.6,13.5,1,20.4,1s13.5-0.3,20.2-0.9L220.3,224.6z M439.8,200.9l-215.2,19.5
					l215.1,21.1c0.6-6.7,1-13.5,1-20.4C440.8,214.3,440.4,207.6,439.8,200.9L439.8,200.9z M1,199.2c-0.6,6.8-1,13.5-1,20.4
					s0.3,13.5,0.9,20.2l215.2-19.4L1,199.2z M221.1,0c-6.8,0-13.5,0.3-20.2,0.9l19.5,215.2L241.5,1C234.8,0.4,228,0,221.1,0z"/>
			</g>
		</g>
	</g>
</g>
</svg>
