<svg xmlns="http://www.w3.org/2000/svg" viewBox="0 0 49.52 29.66"><defs><style>.cls-1{fill:#2b2d2c;}</style></defs><title>33138e84-653e-4e42-8625-0289c67efa0fskateboard1</title><g id="Layer_2" data-name="Layer 2"><g id="Layer_1-2" data-name="Layer 1"><g id="_33138e84-653e-4e42-8625-0289c67efa0f" data-name="33138e84-653e-4e42-8625-0289c67efa0f"><g id="_383262b3-88aa-4833-b37b-e61bc1a88fe6" data-name="383262b3-88aa-4833-b37b-e61bc1a88fe6"><path class="cls-1" d="M7.05,11.45a1.62,1.62,0,0,1-.84,1.67,10.23,10.23,0,0,1-2.27,1,4,4,0,0,1-1.23.16A3.53,3.53,0,0,1,1.15,14L.8,13.84a1.07,1.07,0,0,1-.32-.18.61.61,0,0,1-.16-.38,5.45,5.45,0,0,1-.2-1.59l0-1.23a9.51,9.51,0,0,0-.08-1A7.24,7.24,0,0,1,0,8.62,6.22,6.22,0,0,1,.4,6.51a8.41,8.41,0,0,1,2-3.42A5.33,5.33,0,0,1,4.82,1.57c.29-.11.73-.29,1.31-.56A8.62,8.62,0,0,1,8.64.22c.21,0,.52,0,.92-.08s.75,0,1,0A7.28,7.28,0,0,1,13,.46a2.56,2.56,0,0,0,.55.15l.4.08A4.27,4.27,0,0,1,15.06,1a3.51,3.51,0,0,1,1.11.88,5.73,5.73,0,0,0,.76.68,11.8,11.8,0,0,1,1.32.93,4.45,4.45,0,0,1,.83,1,9.43,9.43,0,0,1,1.44,3.86c.05.59.08,1,.08,1.32a8.11,8.11,0,0,1-.44,2.63,9.44,9.44,0,0,1-1.44,2.79,12.92,12.92,0,0,1-1.79,1.67c-.64.53-1.1.94-1.39,1.23A10.76,10.76,0,0,1,11,21.13a4.69,4.69,0,0,0-.73.26,4,4,0,0,0-.66.34.81.81,0,0,0-.36.64.44.44,0,0,0,.12.32.71.71,0,0,0,.38.16,2.64,2.64,0,0,1,.38.08,5.65,5.65,0,0,0,1,.11,9.44,9.44,0,0,0,1.36-.11c.59-.05,1-.08,1.31-.08a14.33,14.33,0,0,0,1.84-.16l.39-.08.6-.08a5.94,5.94,0,0,0,2.39-.88l.46-.26a2.54,2.54,0,0,1,.7-.3.69.69,0,0,1,.52,0,1.32,1.32,0,0,1,.59,1.16,7,7,0,0,1-.4,1.83,3.7,3.7,0,0,0-.11.56,3.42,3.42,0,0,0,0,.44,3.9,3.9,0,0,1-.32,1.39,6.21,6.21,0,0,1-1.24,1.71,2.64,2.64,0,0,1-1.17.7,8.92,8.92,0,0,1-1.66.26c-.24,0-.6,0-1.07.08a7.61,7.61,0,0,1-1.4.12,4.62,4.62,0,0,1-1-.08,9.84,9.84,0,0,0-1.88-.16c-.37,0-.9,0-1.59.08l-1.59,0-3,0q-1.52,0-3-.12a1.81,1.81,0,0,1-.54-.2l-.37-.2a1,1,0,0,1-.58-.58,4,4,0,0,1-.18-1.05,5.52,5.52,0,0,1,0-.8,6,6,0,0,1,.36-2.19,4.5,4.5,0,0,0,.2-1.51,3.64,3.64,0,0,1,.16-1.28A8.8,8.8,0,0,1,2.17,18.9a7.46,7.46,0,0,1,2.05-1.83,11.27,11.27,0,0,1,1.6-.72L6.61,16q.36-.16,1.68-.63a8.58,8.58,0,0,0,.83-.28,3.28,3.28,0,0,0,1.1-.7,9.72,9.72,0,0,0,.95-1c.28-.33.47-.54.58-.65a3.48,3.48,0,0,0,.62-.94,7.58,7.58,0,0,0,.38-1.08c.11-.38.2-.69.28-.93a1,1,0,0,0,0-.32,1.34,1.34,0,0,0-.2-.72,7.59,7.59,0,0,0-.64-.83,3.75,3.75,0,0,0-1-.78,2.38,2.38,0,0,0-1.15-.3,4.23,4.23,0,0,0-1.95.6.76.76,0,0,0-.34.32,1.85,1.85,0,0,0-.16.47,3,3,0,0,1-.18.56,5.3,5.3,0,0,0-.44,2,4.35,4.35,0,0,0,0,.72ZM35.18,29.62a7.56,7.56,0,0,1-2.07-.44q-1-.36-2.67-1.08a10.18,10.18,0,0,1-1.7-.79,9.17,9.17,0,0,1-1.37-1.08,13.38,13.38,0,0,1-3.19-4.9,12.83,12.83,0,0,1-.48-1.83q0-.24-.12-.6c0-.24-.13-.52-.23-.84A7.26,7.26,0,0,1,23,16.25c0-.65-.08-1-.08-1.17l0-.88a14.22,14.22,0,0,1,.87-4.9A14.56,14.56,0,0,1,26.21,5a6.64,6.64,0,0,1,1.06-1.06,11.91,11.91,0,0,1,1-.76l.55-.37,1.24-.88A11,11,0,0,1,35.62,0a17.92,17.92,0,0,1,3.7.2,9.23,9.23,0,0,1,3.11,1.15c.11.08.32.21.64.4a8.39,8.39,0,0,1,.85.58,3.38,3.38,0,0,1,.66.7,18.49,18.49,0,0,1,1.35,2.27,20.19,20.19,0,0,0,1.76,2.86,7.59,7.59,0,0,1,1.45,3.09,18.27,18.27,0,0,1,.38,3.85,13.79,13.79,0,0,1-1.31,5.79,19.48,19.48,0,0,1-3.59,5.24,14.47,14.47,0,0,1-4.94,3,8.39,8.39,0,0,1-3.23.52c-.58,0-1,0-1.27,0Zm1-6.77q1.92,0,3.91-2.51a9.82,9.82,0,0,0,1-1.56,8.48,8.48,0,0,0,.5-1.71c0-.24.09-.6.2-1.08a6.22,6.22,0,0,0,.28-1.67,5.44,5.44,0,0,0-.08-.68,12,12,0,0,0-1.51-4.26,8.22,8.22,0,0,0-1.42-1.69,4.69,4.69,0,0,0-1.73-1,4.28,4.28,0,0,0-1.12-.2,4.9,4.9,0,0,0-2.27.76,5.53,5.53,0,0,0-2.19,1.91,2.59,2.59,0,0,0-.28.78c0,.28-.08.45-.08.5-.13.55-.24,1-.32,1.23a11.14,11.14,0,0,0-.71,3.59,7.48,7.48,0,0,0,.87,3.42q.16.29.48.9a6.61,6.61,0,0,0,.64,1,3.16,3.16,0,0,0,.8.74,10.65,10.65,0,0,0,1.55,1.1,3,3,0,0,0,1.47.38Z"/></g></g></g></g></svg>