<svg xmlns="http://www.w3.org/2000/svg" viewBox="0 0 188.1 282.14"><defs><style>.cls-1{fill:#fff;}</style></defs><title>332ec830-5448-4b4b-ae53-2129a037d10bmdpi</title><g id="Layer_2" data-name="Layer 2"><g id="Layer_1-2" data-name="Layer 1"><g id="_332ec830-5448-4b4b-ae53-2129a037d10b" data-name="332ec830-5448-4b4b-ae53-2129a037d10b"><g id="_332ec830-5448-4b4b-ae53-2129a037d10b-child-0" data-name="332ec830-5448-4b4b-ae53-2129a037d10b-child-0"><path class="cls-1" d="M94.05,235.12a54.56,54.56,0,0,1,47,47,54.64,54.64,0,0,1,47-47,54.55,54.55,0,0,1-47-47A54.64,54.64,0,0,1,94.05,235.12Z"/></g><g id="_332ec830-5448-4b4b-ae53-2129a037d10b-child-1" data-name="332ec830-5448-4b4b-ae53-2129a037d10b-child-1"><path class="cls-1" d="M141.08,94.05a54.62,54.62,0,0,1-47,47,54.62,54.62,0,0,1,47,47,54.62,54.62,0,0,1,47-47A54.62,54.62,0,0,1,141.08,94.05Z"/></g><g id="_332ec830-5448-4b4b-ae53-2129a037d10b-child-2" data-name="332ec830-5448-4b4b-ae53-2129a037d10b-child-2"><path class="cls-1" d="M141.07,0a54.58,54.58,0,0,1-47,47,54.64,54.64,0,0,1,47,47,54.57,54.57,0,0,1,47-47A54.64,54.64,0,0,1,141.07,0Z"/></g><g id="_332ec830-5448-4b4b-ae53-2129a037d10b-child-3" data-name="332ec830-5448-4b4b-ae53-2129a037d10b-child-3"><path class="cls-1" d="M47,188.1a54.62,54.62,0,0,1-47,47,54.61,54.61,0,0,1,47,47,54.61,54.61,0,0,1,47-47A54.62,54.62,0,0,1,47,188.1Z"/></g><g id="_332ec830-5448-4b4b-ae53-2129a037d10b-child-4" data-name="332ec830-5448-4b4b-ae53-2129a037d10b-child-4"><path class="cls-1" d="M47,94a54.6,54.6,0,0,1-47,47,54.59,54.59,0,0,1,47,47,54.59,54.59,0,0,1,47-47A54.6,54.6,0,0,1,47,94Z"/></g><g id="_332ec830-5448-4b4b-ae53-2129a037d10b-child-5" data-name="332ec830-5448-4b4b-ae53-2129a037d10b-child-5"><path class="cls-1" d="M94.05,47A54.62,54.62,0,0,1,47,0,54.62,54.62,0,0,1,0,47,54.62,54.62,0,0,1,47,94,54.62,54.62,0,0,1,94.05,47Z"/></g></g></g></g></svg>