<svg xmlns="http://www.w3.org/2000/svg" viewBox="0 0 2232.72 826.37"><defs><style>.cls-1{fill:#fff;stroke:#000;stroke-opacity:0;stroke-width:26.12px;}</style></defs><title>3595e60f-6682-475b-9294-d41eb9b0c649mdpi</title><g id="Layer_2" data-name="Layer 2"><g id="Layer_1-2" data-name="Layer 1"><g id="_3595e60f-6682-475b-9294-d41eb9b0c649" data-name="3595e60f-6682-475b-9294-d41eb9b0c649"><g id="_0c959632-793a-4f35-9e0c-8038117cd53d" data-name="0c959632-793a-4f35-9e0c-8038117cd53d"><path class="cls-1" d="M400.89,259.7,404,723.16,219,808.5,44.58,728.14V308.91l127.7-53.58L18.41,137,97.53,36.06ZM267,694.5V328.22l-41.73-32.39-46.72,20.55V657.13ZM617.05,170,485.61,117l33.64-99.67,132.06,54.2Zm5.61,636L496.2,753.68V338.18l-42.36-17.44,57.31-115.86,116.49,45.47V673.94L680,697Zm289.66,4.36-178.16-119V335.07l-32.39-14.95,61.05-103.41,106.52,41.12v375l89.08,58.56V336.32l-42.36-18.07,56.68-109,118.36,49.21V675.81ZM1305.39,170,1174,117l33.64-99.67,132.06,54.2ZM1311,806l-126.46-52.33V338.18l-42.36-17.44,57.31-115.86L1316,250.35V673.94l52.33,23Zm478.41-123.34,39.86,21.8-56.06,103.4-119-54.81V355L1600,330.71,1567,360V678.93l41.11,19.93-56.06,108.39-120.23-54.19V333.2l-48-15.57,57.31-108.39L1567,246.61v49.22l85.34-86.59,137.05,59.18Zm421.72-181.9-205.57,94.69V644l205,63.54L2128.9,809.12l-261-77.24V292.09l181.27-84.72,162,70.39ZM2076.58,351.89l-71-30.52V540l71-34.26Z"/></g></g></g></g></svg>