<svg xmlns="http://www.w3.org/2000/svg" viewBox="0 0 337.51 321.47"><defs><style>.cls-1{fill:#fff;}</style></defs><title>3bcc66f6-4348-4e51-913c-8da40e976c94mdpi</title><g id="Layer_2" data-name="Layer 2"><g id="Layer_1-2" data-name="Layer 1"><g id="_3bcc66f6-4348-4e51-913c-8da40e976c94" data-name="3bcc66f6-4348-4e51-913c-8da40e976c94"><g id="_3bcc66f6-4348-4e51-913c-8da40e976c94-child-0" data-name="3bcc66f6-4348-4e51-913c-8da40e976c94-child-0"><path class="cls-1" d="M102.93,178.63a8.13,8.13,0,1,1-8.12-7.72A7.93,7.93,0,0,1,102.93,178.63ZM76.32,172a7,7,0,0,0-6.43,4.09,6.39,6.39,0,0,0,1.51,7.22A7.21,7.21,0,0,0,79,184.76a6.64,6.64,0,0,0,4.29-6.13A6.79,6.79,0,0,0,76.32,172Zm-18.46,1.1a5.53,5.53,0,1,0,5.81,5.52,5.41,5.41,0,0,0-1.7-3.91A6,6,0,0,0,57.86,173.11ZM39.3,174.22A4.65,4.65,0,0,0,35,177a4.28,4.28,0,0,0,1,4.83,4.85,4.85,0,0,0,5.07,1,4.45,4.45,0,0,0,2.87-4.1A4.54,4.54,0,0,0,39.3,174.22Zm-18.48,1.09a3.51,3.51,0,0,0-3.24,2.06,3.22,3.22,0,0,0,.76,3.63,3.64,3.64,0,0,0,3.82.72,3.33,3.33,0,0,0,2.15-3.08,3.22,3.22,0,0,0-1-2.36,3.58,3.58,0,0,0-2.47-1ZM2.38,176.4a2.23,2.23,0,1,0,0,4.46,2.3,2.3,0,0,0,2.35-2.23A2.19,2.19,0,0,0,4,177.05,2.41,2.41,0,0,0,2.38,176.4Zm111,11.8a7.74,7.74,0,1,0,8.12,7.73,7.93,7.93,0,0,0-8.12-7.73Zm-18.54,1.1a7,7,0,0,0-6.43,4.09,6.4,6.4,0,0,0,1.51,7.22,7.21,7.21,0,0,0,7.58,1.44,6.63,6.63,0,0,0,4.29-6.12,6.79,6.79,0,0,0-7-6.62Zm-18.5,1.1A5.83,5.83,0,0,0,71,193.81a5.36,5.36,0,0,0,1.26,6,6,6,0,0,0,6.33,1.2,5.56,5.56,0,0,0,3.58-5.11,5.67,5.67,0,0,0-5.8-5.52Zm-18.46,1.1a4.44,4.44,0,1,0,4.65,4.43,4.54,4.54,0,0,0-4.65-4.43ZM39.3,192.6a3.51,3.51,0,0,0-3.23,2.05,3.22,3.22,0,0,0,.76,3.63,3.62,3.62,0,0,0,3.81.72,3.33,3.33,0,0,0,2.15-3.07,3.4,3.4,0,0,0-3.49-3.32Zm-18.48,1.1a2.23,2.23,0,1,0,2.34,2.23,2.29,2.29,0,0,0-2.34-2.23ZM2.38,194.79a1.14,1.14,0,1,0,0,2.27,1.13,1.13,0,1,0,0-2.26ZM76.32,208A5.83,5.83,0,0,0,71,211.41a5.36,5.36,0,0,0,1.26,6,6,6,0,0,0,6.33,1.2,5.55,5.55,0,0,0,3.58-5.11,5.67,5.67,0,0,0-5.8-5.52Zm-18.46,1.1a4.66,4.66,0,0,0-4.3,2.74,4.27,4.27,0,0,0,1,4.82,4.81,4.81,0,0,0,5.07,1,4.44,4.44,0,0,0,2.87-4.09,4.55,4.55,0,0,0-4.65-4.42ZM39.3,210.2a3.49,3.49,0,0,0-3.23,2.06,3.2,3.2,0,0,0,.75,3.63,3.64,3.64,0,0,0,3.81.72,3.34,3.34,0,0,0,2.16-3.08,3.41,3.41,0,0,0-3.49-3.32Zm-18.48,1.1a2.23,2.23,0,1,0,2.34,2.23,2.29,2.29,0,0,0-2.34-2.23ZM2.38,212.4a1.14,1.14,0,1,0,0,2.27,1.13,1.13,0,1,0,0-2.26Zm55.48,15.46a3.33,3.33,0,1,0,3.49,3.33,3.22,3.22,0,0,0-1-2.36,3.6,3.6,0,0,0-2.47-1ZM39.3,229a2.36,2.36,0,0,0-2.17,1.37,2.15,2.15,0,0,0,.51,2.43,2.45,2.45,0,0,0,2.56.49,2.24,2.24,0,0,0,1.44-2.06,2.16,2.16,0,0,0-.68-1.58A2.41,2.41,0,0,0,39.3,229Zm-18.48,1.09a1.16,1.16,0,1,0,.84.33,1.23,1.23,0,0,0-.84-.33Zm37,15.45a3.33,3.33,0,1,0,3.5,3.33,3.3,3.3,0,0,0-1-2.36,3.62,3.62,0,0,0-2.47-1ZM39.3,246.6A2.34,2.34,0,0,0,37.13,248a2.16,2.16,0,0,0,.51,2.43,2.41,2.41,0,0,0,2.55.48,2.18,2.18,0,0,0,.77-3.64,2.41,2.41,0,0,0-1.66-.65Zm-18.48,1.1A1.13,1.13,0,1,0,22,248.83a1.11,1.11,0,0,0-.35-.8,1.24,1.24,0,0,0-.84-.34Zm37,16.46a2.33,2.33,0,0,0-2.16,1.38,2.14,2.14,0,0,0,.5,2.43,2.45,2.45,0,0,0,2.56.49,2.24,2.24,0,0,0,1.45-2.07,2.29,2.29,0,0,0-2.34-2.23Zm-18.56,1.1a1.14,1.14,0,1,0,1.19,1.13,1.15,1.15,0,0,0-1.18-1.13Zm18.56,17.68A1.13,1.13,0,1,0,59,284.07a1.16,1.16,0,0,0-1.19-1.13ZM150,223.46a7.74,7.74,0,1,0,8.11,7.73A7.93,7.93,0,0,0,150,223.46Zm0,18.74a6.63,6.63,0,1,0,7,6.63,6.44,6.44,0,0,0-2-4.69A7.15,7.15,0,0,0,150,242.2Zm0,18.66a5.54,5.54,0,1,0,5.8,5.53,5.39,5.39,0,0,0-1.7-3.91A6,6,0,0,0,150,260.86Zm0,18.78a4.67,4.67,0,0,0-4.3,2.73,4.28,4.28,0,0,0,1,4.83,4.81,4.81,0,0,0,5.07,1,4.43,4.43,0,0,0,2.87-4.09,4.36,4.36,0,0,0-1.36-3.14A4.79,4.79,0,0,0,150,279.64Zm0,18.71a3.49,3.49,0,0,0-3.23,2.06,3.22,3.22,0,0,0,.76,3.63,3.64,3.64,0,0,0,3.81.72,3.34,3.34,0,0,0,2.16-3.08,3.23,3.23,0,0,0-1-2.35A3.55,3.55,0,0,0,150,298.35ZM150,317a2.23,2.23,0,1,0,2.34,2.23,2.18,2.18,0,0,0-.68-1.58A2.41,2.41,0,0,0,150,317ZM131.85,205.82a7.74,7.74,0,1,0,8.11,7.73,7.56,7.56,0,0,0-2.37-5.47,8.32,8.32,0,0,0-5.74-2.26Zm0,18.75a6.63,6.63,0,1,0,7,6.62,6.44,6.44,0,0,0-2-4.69,7.17,7.17,0,0,0-4.92-1.94Zm0,18.74a5.53,5.53,0,1,0,5.8,5.52,5.41,5.41,0,0,0-1.7-3.91,5.93,5.93,0,0,0-4.1-1.62Zm0,18.66a4.67,4.67,0,0,0-4.3,2.73,4.28,4.28,0,0,0,1,4.83,4.81,4.81,0,0,0,5.07,1,4.45,4.45,0,0,0,2.87-4.1,4.33,4.33,0,0,0-1.36-3.13,4.8,4.8,0,0,0-3.29-1.3Zm0,18.77a3.49,3.49,0,0,0-3.23,2.06,3.22,3.22,0,0,0,.75,3.63,3.64,3.64,0,0,0,3.82.72,3.34,3.34,0,0,0,2.16-3.08,3.27,3.27,0,0,0-1-2.36,3.58,3.58,0,0,0-2.47-1Zm0,18.71a2.37,2.37,0,0,0-2.17,1.38,2.15,2.15,0,0,0,.51,2.43,2.43,2.43,0,0,0,2.55.49,2.24,2.24,0,0,0,1.45-2.06,2.19,2.19,0,0,0-.68-1.59,2.41,2.41,0,0,0-1.66-.65Zm0,18.66a1.16,1.16,0,1,0,.84.33,1.23,1.23,0,0,0-.84-.33ZM113.36,205.82a7.74,7.74,0,1,0,8.12,7.73,7.57,7.57,0,0,0-2.38-5.47,8.32,8.32,0,0,0-5.74-2.26Zm0,18.75a6.63,6.63,0,1,0,7,6.62,6.45,6.45,0,0,0-2-4.69,7.09,7.09,0,0,0-4.92-1.94Zm0,18.74a5.53,5.53,0,1,0,5.8,5.52,5.4,5.4,0,0,0-1.69-3.91,6,6,0,0,0-4.11-1.62Zm0,18.66a4.67,4.67,0,0,0-4.3,2.73,4.28,4.28,0,0,0,1,4.83,4.81,4.81,0,0,0,5.07,1A4.43,4.43,0,0,0,118,266.4a4.34,4.34,0,0,0-1.36-3.14,4.78,4.78,0,0,0-3.29-1.3Zm0,18.77a3.5,3.5,0,0,0-3.23,2.06,3.22,3.22,0,0,0,.76,3.63,3.62,3.62,0,0,0,3.81.72,3.34,3.34,0,0,0,2.16-3.08,3.3,3.3,0,0,0-1-2.36,3.62,3.62,0,0,0-2.48-1Zm0,18.71a2.24,2.24,0,1,0,2.35,2.24,2.2,2.2,0,0,0-.69-1.59,2.41,2.41,0,0,0-1.66-.65Zm0,18.66a1.14,1.14,0,1,0,1.19,1.14,1.14,1.14,0,0,0-.34-.81,1.26,1.26,0,0,0-.85-.33ZM94.82,206.92a6.63,6.63,0,1,0,7,6.62,6.48,6.48,0,0,0-2-4.68A7.17,7.17,0,0,0,94.82,206.92Zm0,18.74a5.54,5.54,0,1,0,5.8,5.53,5.39,5.39,0,0,0-1.7-3.91,5.91,5.91,0,0,0-4.1-1.62Zm0,18.74a4.66,4.66,0,0,0-4.3,2.74,4.27,4.27,0,0,0,1,4.82,4.83,4.83,0,0,0,5.07,1,4.45,4.45,0,0,0,2.87-4.1,4.33,4.33,0,0,0-1.36-3.13,4.78,4.78,0,0,0-3.29-1.3Zm0,18.66a3.49,3.49,0,0,0-3.23,2.06,3.2,3.2,0,0,0,.75,3.63,3.62,3.62,0,0,0,3.81.72,3.33,3.33,0,0,0,2.16-3.08,3.4,3.4,0,0,0-3.49-3.33Zm0,18.78a2.24,2.24,0,1,0,2.35,2.23,2.19,2.19,0,0,0-.69-1.58,2.36,2.36,0,0,0-1.66-.65Zm0,18.71A1.14,1.14,0,1,0,96,301.68a1.08,1.08,0,0,0-.35-.8,1.21,1.21,0,0,0-.84-.33Zm-18.5-74.89A5.83,5.83,0,0,0,71,229.07a5.36,5.36,0,0,0,1.26,6,6,6,0,0,0,6.33,1.2,5.56,5.56,0,0,0,3.58-5.11,5.39,5.39,0,0,0-1.7-3.91,5.93,5.93,0,0,0-4.1-1.62Zm0,18.74a4.66,4.66,0,0,0-4.3,2.74A4.27,4.27,0,0,0,73,252a4.81,4.81,0,0,0,5.06,1,4.45,4.45,0,0,0,2.88-4.1,4.31,4.31,0,0,0-1.37-3.13,4.76,4.76,0,0,0-3.28-1.3Zm0,18.66a3.51,3.51,0,0,0-3.24,2.06,3.22,3.22,0,0,0,.76,3.63,3.62,3.62,0,0,0,3.81.72,3.33,3.33,0,0,0,2.16-3.08,3.41,3.41,0,0,0-3.49-3.33Zm0,18.78a2.36,2.36,0,0,0-2.18,1.37,2.17,2.17,0,0,0,.51,2.44,2.45,2.45,0,0,0,2.56.49,2.25,2.25,0,0,0,1.44-2.07,2.28,2.28,0,0,0-2.33-2.23Zm0,18.71a1.2,1.2,0,0,0-1.1.7,1.07,1.07,0,0,0,.25,1.23,1.22,1.22,0,0,0,1.3.25,1.13,1.13,0,0,0,.74-1.05,1.11,1.11,0,0,0-.35-.8,1.23,1.23,0,0,0-.84-.33ZM94.82,153h0a7.73,7.73,0,1,0,0,15.45h0a8.22,8.22,0,0,0,7.29-3.78,7.41,7.41,0,0,0,0-7.9A8.21,8.21,0,0,0,94.82,153Zm-18.5,1.1h0a6.63,6.63,0,1,0,0,13.25h0a6.63,6.63,0,1,0,0-13.25ZM57.83,166.26h0a5.54,5.54,0,1,0,0-11.06h0a5.88,5.88,0,0,0-5,2.77,5.29,5.29,0,0,0,0,5.53A5.87,5.87,0,0,0,57.83,166.26Zm-18.53-10h0a4.44,4.44,0,1,0,0,8.86h0a4.44,4.44,0,1,0,0-8.86Zm-18.48,1.1h0a3.33,3.33,0,1,0,0,6.66h0a3.33,3.33,0,1,0,0-6.66ZM2.38,158.5h0a2.37,2.37,0,0,0-2,1.11,2.18,2.18,0,0,0,0,2.23,2.38,2.38,0,0,0,2,1.12h0a2.37,2.37,0,0,0,2-1.12,2.13,2.13,0,0,0,0-2.23A2.36,2.36,0,0,0,2.38,158.5ZM150,98a7.74,7.74,0,1,0-8.12-7.73A7.93,7.93,0,0,0,150,98Zm0-18.72a7,7,0,0,0,6.42-4.09A6.39,6.39,0,0,0,154.87,68a7.21,7.21,0,0,0-7.58-1.44A6.64,6.64,0,0,0,143,72.67,6.8,6.8,0,0,0,150,79.3Zm0-18.68a5.83,5.83,0,0,0,5.36-3.41,5.36,5.36,0,0,0-1.26-6A6,6,0,0,0,147.73,50a5.53,5.53,0,0,0-3.58,5.11A5.68,5.68,0,0,0,150,60.62Zm0-18.78a4.65,4.65,0,0,0,4.29-2.73,4.28,4.28,0,0,0-1-4.83,4.82,4.82,0,0,0-5.06-1,4.43,4.43,0,0,0-2.87,4.1,4.33,4.33,0,0,0,1.36,3.13A4.76,4.76,0,0,0,150,41.84Zm0-18.7a3.5,3.5,0,0,0,3.23-2.06,3.22,3.22,0,0,0-.76-3.63,3.66,3.66,0,0,0-3.82-.72,3.32,3.32,0,0,0-2.15,3.09A3.41,3.41,0,0,0,150,23.14Zm0-18.66a2.29,2.29,0,0,0,2.34-2.23,2.35,2.35,0,0,0-4.69,0,2.19,2.19,0,0,0,.69,1.58A2.39,2.39,0,0,0,150,4.48ZM131.79,115.69a7.74,7.74,0,1,0-8.11-7.73A7.93,7.93,0,0,0,131.79,115.69Zm0-18.76a7,7,0,0,0,6.43-4.09,6.38,6.38,0,0,0-1.5-7.22,7.19,7.19,0,0,0-7.58-1.44,6.63,6.63,0,0,0-4.3,6.12,6.81,6.81,0,0,0,6.95,6.62Zm0-18.73a5.83,5.83,0,0,0,5.37-3.41,5.34,5.34,0,0,0-1.26-6,6,6,0,0,0-6.33-1.2,5.53,5.53,0,0,0-3.58,5.1A5.67,5.67,0,0,0,131.79,78.2Zm0-18.68a4.67,4.67,0,0,0,4.3-2.73,4.28,4.28,0,0,0-1-4.83A4.81,4.81,0,0,0,130,51a4.45,4.45,0,0,0-2.87,4.1A4.55,4.55,0,0,0,131.79,59.52Zm0-18.77A3.53,3.53,0,0,0,135,38.69a3.22,3.22,0,0,0-.76-3.63,3.6,3.6,0,0,0-3.81-.72,3.33,3.33,0,0,0-2.16,3.08A3.42,3.42,0,0,0,131.79,40.75Zm0-18.71A2.34,2.34,0,0,0,134,20.66a2.16,2.16,0,0,0-.51-2.43,2.42,2.42,0,0,0-2.56-.48,2.25,2.25,0,0,0-1.44,2.07A2.28,2.28,0,0,0,131.79,22Zm0-18.66A1.16,1.16,0,0,0,133,2.25a1.19,1.19,0,0,0-2.38,0A1.16,1.16,0,0,0,131.79,3.38ZM113.31,78.2a5.81,5.81,0,0,0,5.36-3.41,5.32,5.32,0,0,0-1.25-6,6,6,0,0,0-6.33-1.2,5.52,5.52,0,0,0-3.58,5.1,5.38,5.38,0,0,0,1.7,3.91A5.93,5.93,0,0,0,113.31,78.2Zm0-18.68a4.67,4.67,0,0,0,4.3-2.73,4.28,4.28,0,0,0-1-4.83,4.81,4.81,0,0,0-5.07-1,4.45,4.45,0,0,0-2.87,4.1A4.55,4.55,0,0,0,113.31,59.52Zm0-18.77a3.53,3.53,0,0,0,3.24-2.06,3.22,3.22,0,0,0-.76-3.63,3.62,3.62,0,0,0-3.82-.72,3.33,3.33,0,0,0-2.15,3.08A3.42,3.42,0,0,0,113.31,40.75Zm0-18.71a2.34,2.34,0,0,0,2.17-1.38,2.16,2.16,0,0,0-.51-2.43,2.43,2.43,0,0,0-2.56-.48A2.25,2.25,0,0,0,111,19.82,2.28,2.28,0,0,0,113.31,22Zm0-18.66a1.16,1.16,0,0,0,1.19-1.13,1.19,1.19,0,0,0-2.38,0,1.11,1.11,0,0,0,.35.8A1.23,1.23,0,0,0,113.31,3.38Zm-18.52,55A3.49,3.49,0,0,0,98,56.36a3.22,3.22,0,0,0-.76-3.63A3.62,3.62,0,0,0,93.45,52a3.33,3.33,0,0,0-2.16,3.08,3.42,3.42,0,0,0,3.5,3.32Zm0-18.77A2.36,2.36,0,0,0,97,38.27a2.16,2.16,0,0,0-.51-2.44,2.43,2.43,0,0,0-2.55-.48,2.24,2.24,0,0,0-1.45,2.07,2.29,2.29,0,0,0,2.34,2.22Zm0-18.7a1.14,1.14,0,1,0-1.19-1.14A1.16,1.16,0,0,0,94.79,21ZM76.28,58.42a3.33,3.33,0,1,0-3.51-3.32,3.4,3.4,0,0,0,3.51,3.32Zm0-18.77a2.35,2.35,0,0,0,2.16-1.38,2.15,2.15,0,0,0-.5-2.44,2.45,2.45,0,0,0-2.56-.48,2.24,2.24,0,0,0-1.45,2.07,2.3,2.3,0,0,0,2.34,2.22Zm0-18.7a1.14,1.14,0,1,0-1.19-1.14A1.17,1.17,0,0,0,76.28,21ZM57.83,57.32A2.33,2.33,0,0,0,60,56a2.15,2.15,0,0,0-.51-2.44A2.41,2.41,0,0,0,56.93,53a2.24,2.24,0,0,0-1.45,2.07A2.3,2.3,0,0,0,57.83,57.32Zm0-18.77a1.14,1.14,0,1,0-1.19-1.13,1.09,1.09,0,0,0,.35.8A1.21,1.21,0,0,0,57.83,38.55ZM39.27,56.23a1.19,1.19,0,0,0,1.1-.71,1.09,1.09,0,0,0-.26-1.23,1.24,1.24,0,0,0-1.3-.24,1.12,1.12,0,0,0-.73,1.05A1.16,1.16,0,0,0,39.27,56.23Zm55.52,94.34a7.74,7.74,0,1,0-8.12-7.73A7.93,7.93,0,0,0,94.79,150.57Zm-18.52-1.1a7,7,0,0,0,6.43-4.09,6.4,6.4,0,0,0-1.51-7.22,7.21,7.21,0,0,0-7.58-1.44,6.64,6.64,0,0,0-4.3,6.12,6.8,6.8,0,0,0,7,6.63Zm-18.44-1.1A5.54,5.54,0,1,0,52,142.84a5.38,5.38,0,0,0,1.7,3.91,6,6,0,0,0,4.11,1.62Zm-18.56-1.1a4.67,4.67,0,0,0,4.3-2.73,4.28,4.28,0,0,0-1-4.83,4.81,4.81,0,0,0-5.07-1,4.43,4.43,0,0,0-2.87,4.09,4.53,4.53,0,0,0,4.64,4.43Zm-18.49-1.1a3.52,3.52,0,0,0,3.24-2,3.22,3.22,0,0,0-.76-3.63,3.63,3.63,0,0,0-3.81-.73,3.34,3.34,0,0,0-2.16,3.08,3.41,3.41,0,0,0,3.49,3.33ZM2.34,145.08a2.23,2.23,0,1,0,0-4.46A2.28,2.28,0,0,0,0,142.84a2.2,2.2,0,0,0,.68,1.58A2.41,2.41,0,0,0,2.34,145.08Zm111-11.78a7.74,7.74,0,1,0-8.11-7.73,7.93,7.93,0,0,0,8.11,7.73Zm-18.52-1.1a7,7,0,0,0,6.43-4.09,6.39,6.39,0,0,0-1.51-7.22,7.21,7.21,0,0,0-7.58-1.43,6.62,6.62,0,0,0-4.29,6.12,6.8,6.8,0,0,0,7,6.62Zm-18.51-1.09a5.82,5.82,0,0,0,5.36-3.42,5.35,5.35,0,0,0-1.26-6,6,6,0,0,0-6.32-1.2,5.54,5.54,0,0,0-3.59,5.11,5.69,5.69,0,0,0,5.8,5.52ZM57.84,130a4.67,4.67,0,0,0,4.3-2.74,4.27,4.27,0,0,0-1-4.82,4.83,4.83,0,0,0-5.07-1,4.45,4.45,0,0,0-2.87,4.1A4.54,4.54,0,0,0,57.83,130Zm-18.56-1.1a3.5,3.5,0,0,0,3.23-2.06,3.22,3.22,0,0,0-.76-3.63,3.64,3.64,0,0,0-3.81-.72,3.35,3.35,0,0,0-2.16,3.08,3.42,3.42,0,0,0,3.49,3.32Zm-18.49-1.1a2.23,2.23,0,1,0-2.34-2.23,2.29,2.29,0,0,0,2.34,2.23Zm-18.44-1.1a1.14,1.14,0,1,0,0-2.27,1.14,1.14,0,1,0,0,2.27Zm111-11A7.74,7.74,0,1,0,105.2,108,7.93,7.93,0,0,0,113.31,115.69Zm-18.52-1.1a7,7,0,0,0,6.43-4.09,6.39,6.39,0,0,0-1.51-7.22,7.19,7.19,0,0,0-7.58-1.44A6.63,6.63,0,0,0,87.84,108a6.8,6.8,0,0,0,7,6.63Zm-18.51-1.1a5.83,5.83,0,0,0,5.36-3.41,5.36,5.36,0,0,0-1.26-6,6,6,0,0,0-6.32-1.2A5.55,5.55,0,0,0,70.47,108a5.67,5.67,0,0,0,5.8,5.53Zm-18.44-1.1a4.68,4.68,0,0,0,4.3-2.73,4.28,4.28,0,0,0-1-4.83,4.81,4.81,0,0,0-5.07-1A4.42,4.42,0,0,0,53.19,108a4.54,4.54,0,0,0,4.64,4.43Zm-18.56-1.1a3.51,3.51,0,0,0,3.23-2.05,3.21,3.21,0,0,0-.75-3.63,3.64,3.64,0,0,0-3.82-.73A3.35,3.35,0,0,0,35.78,108a3.41,3.41,0,0,0,3.49,3.33Zm-18.5-1.09A2.24,2.24,0,1,0,18.44,108,2.29,2.29,0,0,0,20.78,110.2ZM2.34,109.1a1.14,1.14,0,1,0,0-2.27,1.14,1.14,0,1,0,0,2.27Zm111-12.18a6.63,6.63,0,1,0-7-6.63A6.8,6.8,0,0,0,113.31,96.92ZM94.79,84.76a5.82,5.82,0,0,0-5.36,3.42,5.35,5.35,0,0,0,1.26,6A6,6,0,0,0,97,95.4a5.54,5.54,0,0,0,3.59-5.11,5.68,5.68,0,0,0-5.81-5.52Zm-18.51,10A4.65,4.65,0,0,0,80.57,92a4.28,4.28,0,0,0-1-4.83,4.81,4.81,0,0,0-5.07-1,4.45,4.45,0,0,0-2.87,4.09A4.34,4.34,0,0,0,73,93.43a4.73,4.73,0,0,0,3.29,1.31Zm-18.44-1.1a3.51,3.51,0,0,0,3.23-2.05,3.24,3.24,0,0,0-.76-3.64,3.64,3.64,0,0,0-3.81-.72,3.34,3.34,0,0,0-2.16,3.08,3.43,3.43,0,0,0,3.49,3.34Zm-18.56-1.1a2.33,2.33,0,0,0,2.16-1.37,2.15,2.15,0,0,0-.5-2.44,2.44,2.44,0,0,0-2.56-.48,2.24,2.24,0,0,0-1.44,2.06,2.28,2.28,0,0,0,2.33,2.24ZM20.79,91.43a1.14,1.14,0,1,0-1.19-1.14,1.16,1.16,0,0,0,1.19,1.14Zm74-13.24a5.8,5.8,0,0,0,5.36-3.41,5.33,5.33,0,0,0-1.26-6,6,6,0,0,0-6.32-1.2A5.54,5.54,0,0,0,89,72.67a5.67,5.67,0,0,0,5.8,5.53ZM76.28,77.1a4.44,4.44,0,1,0-4.65-4.43,4.55,4.55,0,0,0,4.65,4.43ZM57.84,76a3.51,3.51,0,0,0,3.24-2.06,3.22,3.22,0,0,0-.76-3.63,3.62,3.62,0,0,0-3.81-.72,3.33,3.33,0,0,0-2.16,3.08A3.42,3.42,0,0,0,57.83,76ZM39.27,74.92a2.35,2.35,0,0,0,2.17-1.38,2.16,2.16,0,0,0-.51-2.43,2.43,2.43,0,0,0-2.56-.49,2.24,2.24,0,0,0-1.44,2.06A2.29,2.29,0,0,0,39.27,74.92ZM20.78,73.81a1.14,1.14,0,1,0-1.19-1.14,1.1,1.1,0,0,0,.35.81A1.21,1.21,0,0,0,20.78,73.81Zm148-69.33a2.41,2.41,0,0,0,1.66-.65,2.19,2.19,0,0,0,.69-1.58v0A2.22,2.22,0,0,0,169.93.3a2.45,2.45,0,0,0-2.35,0,2.22,2.22,0,0,0-1.17,1.93v0A2.29,2.29,0,0,0,168.75,4.48Zm73.93,146.08a7.74,7.74,0,1,0-8.11-7.73A7.53,7.53,0,0,0,237,148.3a8.32,8.32,0,0,0,5.74,2.26Zm18.51-1.1a6.63,6.63,0,1,0-7-6.62,6.51,6.51,0,0,0,2,4.69,7.12,7.12,0,0,0,4.93,1.93Zm18.46-1.09a5.54,5.54,0,1,0-5.81-5.53,5.39,5.39,0,0,0,1.7,3.91,6,6,0,0,0,4.11,1.62Zm18.55-1.1a4.66,4.66,0,0,0,4.3-2.74,4.25,4.25,0,0,0-1-4.82,4.83,4.83,0,0,0-5.07-1,4.45,4.45,0,0,0-2.86,4.1,4.54,4.54,0,0,0,4.65,4.42Zm18.49-1.1a3.5,3.5,0,0,0,3.23-2.06,3.22,3.22,0,0,0-.76-3.63,3.62,3.62,0,0,0-3.81-.72,3.34,3.34,0,0,0-2.16,3.08,3.42,3.42,0,0,0,3.5,3.33Zm18.43-1.1a2.34,2.34,0,0,0,2.17-1.38,2.16,2.16,0,0,0-.51-2.43,2.45,2.45,0,0,0-2.56-.49,2.24,2.24,0,0,0-1.44,2.07,2.2,2.2,0,0,0,.68,1.59,2.45,2.45,0,0,0,1.67.65Zm-111-11.81a7.74,7.74,0,1,0-8.11-7.73,7.53,7.53,0,0,0,2.38,5.47,8.32,8.32,0,0,0,5.74,2.26Zm18.54-1.1a7,7,0,0,0,6.44-4.07,6.4,6.4,0,0,0-1.49-7.23,7.19,7.19,0,0,0-7.58-1.44,6.61,6.61,0,0,0-4.3,6.12,6.79,6.79,0,0,0,6.94,6.62Zm18.51-1.09a5.54,5.54,0,1,0-5.81-5.53,5.42,5.42,0,0,0,1.71,3.91,6,6,0,0,0,4.11,1.62Zm18.46-1.1a4.65,4.65,0,0,0,4.29-2.74,4.25,4.25,0,0,0-1-4.82,4.8,4.8,0,0,0-5.06-1,4.42,4.42,0,0,0-2.87,4.09,4.33,4.33,0,0,0,1.36,3.13,4.78,4.78,0,0,0,3.29,1.3Zm18.55-1.1a3.49,3.49,0,0,0,3.23-2.06,3.24,3.24,0,0,0-.75-3.63,3.64,3.64,0,0,0-3.81-.72,3.34,3.34,0,0,0-2.16,3.08,3.23,3.23,0,0,0,1,2.35,3.55,3.55,0,0,0,2.47,1Zm18.49-1.1a2.34,2.34,0,0,0,2.16-1.38,2.16,2.16,0,0,0-.51-2.43,2.41,2.41,0,0,0-2.55-.48,2.23,2.23,0,0,0-1.45,2.06,2.19,2.19,0,0,0,.69,1.58,2.39,2.39,0,0,0,1.66.65Zm18.43-1.1a1.14,1.14,0,1,0-1.19-1.13,1.11,1.11,0,0,0,.35.8,1.26,1.26,0,0,0,.85.33Zm-73.93-13.21a5.53,5.53,0,1,0-5.81-5.53,5.43,5.43,0,0,0,1.71,3.92,6,6,0,0,0,4.11,1.61Zm18.46-1.1a4.65,4.65,0,0,0,4.29-2.73,4.26,4.26,0,0,0-1-4.83,4.82,4.82,0,0,0-5.06-1,4.43,4.43,0,0,0-2.87,4.09,4.34,4.34,0,0,0,1.36,3.14,4.73,4.73,0,0,0,3.29,1.29Zm18.55-1.09a3.51,3.51,0,0,0,3.24-2.06,3.22,3.22,0,0,0-.76-3.63,3.62,3.62,0,0,0-3.81-.72,3.32,3.32,0,0,0-2.16,3.07,3.23,3.23,0,0,0,1,2.36,3.55,3.55,0,0,0,2.47,1Zm18.49-1.1a2.35,2.35,0,0,0,2.16-1.38,2.15,2.15,0,0,0-.51-2.43,2.43,2.43,0,0,0-2.55-.49,2.24,2.24,0,0,0-1.45,2.06,2.17,2.17,0,0,0,.69,1.58,2.4,2.4,0,0,0,1.66.66Zm18.43-1.1a1.14,1.14,0,1,0-1.19-1.14,1.14,1.14,0,0,0,.35.81,1.26,1.26,0,0,0,.85.33ZM279.65,93.62a3.49,3.49,0,0,0,3.23-2.06,3.22,3.22,0,0,0-.76-3.63,3.62,3.62,0,0,0-3.81-.72,3.34,3.34,0,0,0-2.16,3.08,3.23,3.23,0,0,0,1,2.35A3.55,3.55,0,0,0,279.65,93.62Zm18.56-1.1a2.32,2.32,0,0,0,2.17-1.37,2.17,2.17,0,0,0-.49-2.44,2.42,2.42,0,0,0-2.56-.48,2.22,2.22,0,0,0-1.45,2.06,2.29,2.29,0,0,0,2.33,2.23Zm18.48-1.1a1.14,1.14,0,1,0-1.19-1.13,1.16,1.16,0,0,0,1.19,1.13ZM279.65,76a3.5,3.5,0,0,0,3.23-2,3.22,3.22,0,0,0-.76-3.63,3.6,3.6,0,0,0-3.81-.72,3.34,3.34,0,0,0-2.16,3.08,3.42,3.42,0,0,0,3.5,3.32Zm18.56-1.09a2.35,2.35,0,0,0,2.17-1.37,2.15,2.15,0,0,0-.5-2.44,2.43,2.43,0,0,0-2.55-.49,2.24,2.24,0,0,0-1.45,2.07,2.29,2.29,0,0,0,2.33,2.23Zm18.48-1.1a1.14,1.14,0,1,0-1.19-1.13,1.16,1.16,0,0,0,1.19,1.13Zm-37-16.47a2.35,2.35,0,0,0,2.17-1.37,2.15,2.15,0,0,0-.51-2.43,2.41,2.41,0,0,0-2.55-.49,2.24,2.24,0,0,0-1.45,2.06,2.29,2.29,0,0,0,2.34,2.23Zm18.56-1.09A1.14,1.14,0,1,0,297,55.08a1.11,1.11,0,0,0,.35.8A1.2,1.2,0,0,0,298.21,56.22ZM279.65,38.54a1.14,1.14,0,1,0-1.19-1.13,1.09,1.09,0,0,0,.35.8A1.21,1.21,0,0,0,279.65,38.54ZM187.53,98a7.74,7.74,0,1,0-8.11-7.73A7.93,7.93,0,0,0,187.53,98Zm0-18.74A7,7,0,0,0,194,75.18,6.39,6.39,0,0,0,192.45,68a7.23,7.23,0,0,0-7.58-1.44,6.64,6.64,0,0,0-4.29,6.13,6.44,6.44,0,0,0,2,4.68,7.13,7.13,0,0,0,4.92,2Zm0-18.66a5.81,5.81,0,0,0,5.36-3.41,5.34,5.34,0,0,0-1.25-6A6,6,0,0,0,185.31,50a5.52,5.52,0,0,0-3.58,5.1,5.39,5.39,0,0,0,1.7,3.91A5.93,5.93,0,0,0,187.53,60.61Zm0-18.77a4.44,4.44,0,1,0-4.65-4.43,4.33,4.33,0,0,0,1.36,3.13A4.8,4.8,0,0,0,187.53,41.84Zm0-18.72a3.5,3.5,0,0,0,3.23-2.05,3.22,3.22,0,0,0-.76-3.63,3.62,3.62,0,0,0-3.81-.73A3.36,3.36,0,0,0,184,19.79a3.25,3.25,0,0,0,1,2.36A3.6,3.6,0,0,0,187.53,23.12Zm0-18.66a2.28,2.28,0,0,0,2.34-2.23,2.35,2.35,0,0,0-4.69,0,2.19,2.19,0,0,0,.69,1.58A2.36,2.36,0,0,0,187.53,4.46Zm18.13,111.19a7.74,7.74,0,1,0-8.11-7.73,7.56,7.56,0,0,0,2.37,5.47,8.35,8.35,0,0,0,5.74,2.27Zm0-18.74a7,7,0,0,0,6.43-4.09,6.39,6.39,0,0,0-1.51-7.22A7.21,7.21,0,0,0,203,84.16a6.64,6.64,0,0,0-4.29,6.13,6.5,6.5,0,0,0,2,4.69,7.17,7.17,0,0,0,4.92,1.94Zm0-18.74A5.82,5.82,0,0,0,211,74.75a5.35,5.35,0,0,0-1.26-6,6,6,0,0,0-6.33-1.2,5.55,5.55,0,0,0-3.58,5.11,5.39,5.39,0,0,0,1.7,3.91,5.93,5.93,0,0,0,4.1,1.62Zm0-18.66A4.44,4.44,0,1,0,201,55.08a4.33,4.33,0,0,0,1.36,3.13,4.8,4.8,0,0,0,3.29,1.3Zm0-18.78a3.52,3.52,0,0,0,3.24-2,3.22,3.22,0,0,0-.76-3.63,3.63,3.63,0,0,0-3.81-.73,3.34,3.34,0,0,0-2.16,3.08,3.26,3.26,0,0,0,1,2.36,3.61,3.61,0,0,0,2.47,1Zm0-18.71a2.34,2.34,0,0,0,2.17-1.38,2.16,2.16,0,0,0-.51-2.43,2.41,2.41,0,0,0-2.55-.48,2.23,2.23,0,0,0-1.45,2.06,2.15,2.15,0,0,0,.69,1.58,2.37,2.37,0,0,0,1.65.66Zm0-18.66a1.16,1.16,0,0,0,1.19-1.13,1.19,1.19,0,0,0-2.38,0,1.08,1.08,0,0,0,.35.8,1.2,1.2,0,0,0,.84.34Zm18.49,112.29a7.74,7.74,0,1,0-8.11-7.73,7.52,7.52,0,0,0,2.37,5.47,8.33,8.33,0,0,0,5.74,2.27Zm0-18.74a6.63,6.63,0,1,0-7-6.63,6.45,6.45,0,0,0,2,4.69,7.11,7.11,0,0,0,4.92,2Zm0-18.74a5.54,5.54,0,1,0-5.8-5.53,5.39,5.39,0,0,0,1.7,3.91,5.91,5.91,0,0,0,4.1,1.62Zm0-18.66a4.66,4.66,0,0,0,4.3-2.74,4.27,4.27,0,0,0-1-4.82,4.83,4.83,0,0,0-5.07-1,4.45,4.45,0,0,0-2.87,4.1,4.33,4.33,0,0,0,1.36,3.13,4.78,4.78,0,0,0,3.29,1.3Zm0-18.78a3.49,3.49,0,0,0,3.23-2.06,3.22,3.22,0,0,0-.76-3.63,3.64,3.64,0,0,0-3.81-.72,3.35,3.35,0,0,0-2.16,3.08,3.3,3.3,0,0,0,1,2.36,3.63,3.63,0,0,0,2.48,1Zm0-18.71a2.34,2.34,0,0,0,2.16-1.38,2.14,2.14,0,0,0-.51-2.43,2.41,2.41,0,0,0-2.55-.48,2.21,2.21,0,0,0-1.44,2.06,2.16,2.16,0,0,0,.68,1.58,2.41,2.41,0,0,0,1.66.66Zm0-18.66a1.16,1.16,0,0,0,1.19-1.13,1.19,1.19,0,0,0-2.38,0,1.08,1.08,0,0,0,.35.8,1.18,1.18,0,0,0,.84.34Zm18.54,111.19a7,7,0,0,0,6.44-4.09,6.39,6.39,0,0,0-1.51-7.22A7.22,7.22,0,0,0,240,101.8a6.61,6.61,0,0,0-4.29,6.13,6.8,6.8,0,0,0,6.94,6.63Zm0-18.75a5.53,5.53,0,1,0-5.8-5.52,5.38,5.38,0,0,0,1.69,3.91,6,6,0,0,0,4.11,1.63Zm0-18.74A4.64,4.64,0,0,0,247,74.32a4.28,4.28,0,0,0-1-4.83,4.85,4.85,0,0,0-5.08-.95A4.43,4.43,0,0,0,238,72.65a4.33,4.33,0,0,0,1.36,3.13,4.77,4.77,0,0,0,3.29,1.29Zm0-18.66a3.52,3.52,0,0,0,3.24-2,3.22,3.22,0,0,0-.76-3.63,3.63,3.63,0,0,0-3.81-.73,3.34,3.34,0,0,0-2.16,3.08,3.19,3.19,0,0,0,1,2.36,3.55,3.55,0,0,0,2.47,1Zm0-18.77a2.36,2.36,0,0,0,2.17-1.38,2.17,2.17,0,0,0-.51-2.44,2.43,2.43,0,0,0-2.55-.48,2.24,2.24,0,0,0-1.45,2.06A2.19,2.19,0,0,0,241,39a2.41,2.41,0,0,0,1.66.66Zm0-18.71a1.14,1.14,0,1,0-1.19-1.14,1.08,1.08,0,0,0,.35.81,1.18,1.18,0,0,0,.84.34ZM261.2,95.8a5.53,5.53,0,1,0-5.81-5.52,5.39,5.39,0,0,0,1.7,3.91,6,6,0,0,0,4.11,1.63Zm0-18.74a4.67,4.67,0,0,0,4.3-2.73,4.28,4.28,0,0,0-1-4.83,4.81,4.81,0,0,0-5.07-1,4.45,4.45,0,0,0-2.87,4.11,4.54,4.54,0,0,0,4.65,4.42Zm0-18.66a3.51,3.51,0,0,0,3.23-2,3.24,3.24,0,0,0-.76-3.64,3.64,3.64,0,0,0-3.81-.72,3.34,3.34,0,0,0-2.16,3.08,3.22,3.22,0,0,0,1,2.37,3.62,3.62,0,0,0,2.48,1Zm0-18.77a2.36,2.36,0,0,0,2.16-1.39,2.16,2.16,0,0,0-.52-2.43,2.43,2.43,0,0,0-2.56-.48,2.24,2.24,0,0,0-1.44,2.08,2.19,2.19,0,0,0,.69,1.58,2.41,2.41,0,0,0,1.67.65Zm0-18.71A1.14,1.14,0,1,0,260,19.78a1.07,1.07,0,0,0,.34.81,1.2,1.2,0,0,0,.85.34ZM242.72,153h0a7.73,7.73,0,1,0,0,15.45h0a8.24,8.24,0,0,0,7.3-3.77,7.43,7.43,0,0,0,0-7.91A8.24,8.24,0,0,0,242.72,153Zm18.52,1.1h-.05a6.63,6.63,0,1,0,0,13.25h.05a6.63,6.63,0,1,0,0-13.25Zm18.44,1.1h0a5.85,5.85,0,0,0-5,2.76,5.29,5.29,0,0,0,0,5.53,5.85,5.85,0,0,0,5,2.76h0a5.53,5.53,0,1,0,0-11Zm18.56,1.09h0a4.44,4.44,0,1,0,0,8.86h0a4.44,4.44,0,1,0,0-8.86Zm18.49,1.1h0a3.33,3.33,0,1,0,0,6.66h0a3.33,3.33,0,1,0,0-6.66Zm18.4,5.57h0a2.24,2.24,0,1,0,0-4.47h0a2.37,2.37,0,0,0-2,1.12,2.13,2.13,0,0,0,0,2.23A2.37,2.37,0,0,0,335.13,163ZM168.75,98a7.93,7.93,0,0,0,8.11-7.73h0a7.62,7.62,0,0,0-4-6.94,8.46,8.46,0,0,0-8.3,0,7.66,7.66,0,0,0-4,6.94h0A7.93,7.93,0,0,0,168.75,98Zm0-18.72a6.8,6.8,0,0,0,6.95-6.63v0a7,7,0,0,0-13.91,0v0a6.45,6.45,0,0,0,2,4.69A7.13,7.13,0,0,0,168.75,79.3Zm0-18.68a6,6,0,0,0,4.1-1.61,5.4,5.4,0,0,0,1.71-3.91h0a5.5,5.5,0,0,0-2.9-4.79,6.05,6.05,0,0,0-5.81,0,5.5,5.5,0,0,0-2.9,4.79h0A5.67,5.67,0,0,0,168.75,60.62Zm0-18.78a4.55,4.55,0,0,0,4.65-4.42h0a4.66,4.66,0,0,0-9.3,0h0a4.26,4.26,0,0,0,1.36,3.13A4.72,4.72,0,0,0,168.75,41.84Zm0-18.7a3.4,3.4,0,0,0,3.5-3.32h0a3.3,3.3,0,0,0-1.72-2.95,3.62,3.62,0,0,0-3.55,0,3.3,3.3,0,0,0-1.72,2.95h0A3.41,3.41,0,0,0,168.75,23.14ZM211.4,170.33a10,10,0,0,1,4.16,5.11A9.36,9.36,0,0,1,225.9,170a8.75,8.75,0,0,1,0,17.34,9.36,9.36,0,0,1-10.34-5.48,10.17,10.17,0,0,1-6.05,6,8.74,8.74,0,0,1,5.37,9.29,9,9,0,0,1-7.89,7.49,9.36,9.36,0,0,1-9.74-5.15,10.19,10.19,0,0,1-6.36,5.8,8.77,8.77,0,0,1,5.77,9.85,9.36,9.36,0,0,1-18.22,0,8.78,8.78,0,0,1,5.76-9.85,10.41,10.41,0,0,1-5.37-4,11.36,11.36,0,0,1-5.3,4.63,8.74,8.74,0,0,1,4.48,7.55v0h0a9.29,9.29,0,0,1-18.52,0v0A8.75,8.75,0,0,1,164,206a11.37,11.37,0,0,1-5.29-4.6,10.37,10.37,0,0,1-5.36,4,8.74,8.74,0,0,1,5.75,9.85,9.35,9.35,0,0,1-18.2,0,8.74,8.74,0,0,1,5.75-9.85,10.27,10.27,0,0,1-6.34-5.77,9.36,9.36,0,0,1-9.76,5.11,9,9,0,0,1-7.86-7.51,8.77,8.77,0,0,1,5.41-9.28,10.15,10.15,0,0,1-6.09-6,9.34,9.34,0,0,1-10.34,5.48,8.75,8.75,0,0,1,0-17.34A9.34,9.34,0,0,1,122,175.45a10.07,10.07,0,0,1,4.16-5.11,11.24,11.24,0,0,1-4.87-5,9.38,9.38,0,0,1-7.91,4.25h-.05a8.82,8.82,0,1,1,0-17.64h.05a9.39,9.39,0,0,1,7.91,4.26,11.24,11.24,0,0,1,4.81-5,10,10,0,0,1-4.16-5.1,9.35,9.35,0,0,1-10.34,5.48,8.76,8.76,0,0,1,0-17.35,9.35,9.35,0,0,1,10.34,5.48,10.19,10.19,0,0,1,6.06-6,8.73,8.73,0,0,1-5.37-9.29,9,9,0,0,1,7.89-7.49,9.34,9.34,0,0,1,9.73,5.16,10.25,10.25,0,0,1,6.36-5.81,8.76,8.76,0,0,1-5.76-9.85,9.36,9.36,0,0,1,18.21,0,8.76,8.76,0,0,1-5.76,9.85,10.35,10.35,0,0,1,5.37,4,11.4,11.4,0,0,1,5.31-4.64,8.73,8.73,0,0,1-4.48-7.55v0a9.28,9.28,0,0,1,18.51,0v0h0a8.73,8.73,0,0,1-4.47,7.55,11.37,11.37,0,0,1,5.29,4.6,10.37,10.37,0,0,1,5.36-4,8.74,8.74,0,0,1-5.75-9.85,9.36,9.36,0,0,1,18.21,0,8.76,8.76,0,0,1-5.76,9.85,10.27,10.27,0,0,1,6.34,5.77A9.36,9.36,0,0,1,207,116.8a9,9,0,0,1,7.86,7.51,8.76,8.76,0,0,1-5.41,9.28,10.15,10.15,0,0,1,6.09,6,9.35,9.35,0,0,1,10.34-5.48,8.75,8.75,0,0,1,0,17.34A9.35,9.35,0,0,1,215.52,146a10.06,10.06,0,0,1-4.16,5.11,11.19,11.19,0,0,1,4.88,5.05,9.36,9.36,0,0,1,7.9-4.26h.05a8.82,8.82,0,1,1,0,17.64h-.05a9.33,9.33,0,0,1-7.9-4.25,11.37,11.37,0,0,1-4.83,5Zm-75.81-36.72a10.48,10.48,0,0,1,4.62,3.33,11.27,11.27,0,0,1,3.57-3.4,10,10,0,0,1-3.52-4.38A9.06,9.06,0,0,1,135.59,133.61Zm1.93,36.71a10.07,10.07,0,0,1,2.69,2.42,11.44,11.44,0,0,1,2.11-2.34,12.9,12.9,0,0,1-2.19-2A11.2,11.2,0,0,1,137.52,170.32Zm2.6-17.28a13,13,0,0,1,2.16-2,11.27,11.27,0,0,1-2.1-2.37,10.25,10.25,0,0,1-2.66,2.42A11.4,11.4,0,0,1,140.12,153Zm3.7,34.91a11.5,11.5,0,0,1-3.61-3.43,10.33,10.33,0,0,1-4.6,3.35,9.14,9.14,0,0,1,4.68,4.44A10,10,0,0,1,143.82,188Zm16.87.06a12.67,12.67,0,0,1-2.07-2.07,11.21,11.21,0,0,1-2.48,2,10.22,10.22,0,0,1,2.54,2.54A11.39,11.39,0,0,1,160.69,188Zm0-54.54a11.38,11.38,0,0,1-2-2.49,10.13,10.13,0,0,1-2.54,2.56,11.44,11.44,0,0,1,2.47,2A12.4,12.4,0,0,1,160.69,133.47Zm16.13,0a12.67,12.67,0,0,1,2.08,2.06,11.5,11.5,0,0,1,2.48-2,9.89,9.89,0,0,1-2.54-2.54A11.49,11.49,0,0,1,176.82,133.47Zm4.55,54.46a11.15,11.15,0,0,1-2.47-2,12.1,12.1,0,0,1-2.08,2.09,10.93,10.93,0,0,1,2,2.49A10.17,10.17,0,0,1,181.37,187.93Zm12.32-54.41A11.39,11.39,0,0,1,197.3,137a10.33,10.33,0,0,1,4.6-3.35,9.06,9.06,0,0,1-4.68-4.44A9.87,9.87,0,0,1,193.69,133.52Zm1.54,36.87a11.21,11.21,0,0,1,2.1,2.36,10.38,10.38,0,0,1,2.66-2.41,11.7,11.7,0,0,1-2.6-1.91,13.07,13.07,0,0,1-2.16,2Zm2.16-17.34a11.18,11.18,0,0,1,2.6-1.91,10.38,10.38,0,0,1-2.69-2.42,11.11,11.11,0,0,1-2.1,2.34,12.6,12.6,0,0,1,2.19,2Zm4.53,34.8a10.39,10.39,0,0,1-4.58-3.37,11.11,11.11,0,0,1-3.59,3.43,10,10,0,0,1,3.5,4.41,9.08,9.08,0,0,1,4.67-4.46Zm-14.36,35.59a7.74,7.74,0,1,0,8.12,7.73,7.93,7.93,0,0,0-8.12-7.73Zm0,18.72a7,7,0,0,0-6.43,4.09,6.41,6.41,0,0,0,1.51,7.23,7.21,7.21,0,0,0,7.58,1.43,6.64,6.64,0,0,0,4.3-6.12,6.81,6.81,0,0,0-7-6.62Zm0,18.68a5.54,5.54,0,1,0,5.8,5.54,5.68,5.68,0,0,0-5.8-5.54Zm0,18.78a4.66,4.66,0,0,0-4.3,2.74,4.27,4.27,0,0,0,1,4.82,4.81,4.81,0,0,0,5.07,1,4.42,4.42,0,0,0,2.87-4.09,4.54,4.54,0,0,0-4.66-4.42Zm0,18.7a3.33,3.33,0,1,0,3.49,3.34,3.42,3.42,0,0,0-3.49-3.34Zm0,18.66a2.34,2.34,0,0,0-2.16,1.38,2.14,2.14,0,0,0,.5,2.43,2.45,2.45,0,0,0,2.56.49,2.25,2.25,0,0,0,1.45-2.07,2.3,2.3,0,0,0-2.36-2.22Zm18.16-111.2a7.74,7.74,0,1,0,8.12,7.73,7.93,7.93,0,0,0-8.12-7.73Zm0,18.76a6.63,6.63,0,1,0,7,6.62,6.79,6.79,0,0,0-7-6.62Zm0,18.72a5.83,5.83,0,0,0-5.36,3.41,5.36,5.36,0,0,0,1.26,6,6,6,0,0,0,6.33,1.19,5.53,5.53,0,0,0,3.58-5.1,5.68,5.68,0,0,0-5.81-5.52Zm0,18.68a4.65,4.65,0,0,0-4.3,2.73,4.26,4.26,0,0,0,1,4.83,4.81,4.81,0,0,0,5.06,1,4.44,4.44,0,0,0,2.88-4.09,4.54,4.54,0,0,0-4.64-4.43Zm0,18.78a3.51,3.51,0,0,0-3.23,2,3.24,3.24,0,0,0,.76,3.64,3.64,3.64,0,0,0,3.81.72,3.34,3.34,0,0,0,2.16-3.08,3.41,3.41,0,0,0-3.5-3.32Zm0,18.7a2.35,2.35,0,0,0-2.16,1.37,2.15,2.15,0,0,0,.5,2.44,2.43,2.43,0,0,0,2.55.49,2.24,2.24,0,0,0,1.45-2.06,2.29,2.29,0,0,0-2.34-2.23Zm0,18.66a1.14,1.14,0,1,0,1.19,1.13,1.17,1.17,0,0,0-1.19-1.13Zm18.48-74.82a5.83,5.83,0,0,0-5.36,3.41,5.36,5.36,0,0,0,1.26,6,6,6,0,0,0,6.33,1.19,5.52,5.52,0,0,0,3.58-5.1,5.68,5.68,0,0,0-5.81-5.52Zm0,18.68a4.65,4.65,0,0,0-4.29,2.73,4.27,4.27,0,0,0,1,4.83,4.81,4.81,0,0,0,5.07,1,4.42,4.42,0,0,0,2.87-4.09A4.55,4.55,0,0,0,224.2,262Zm0,18.78a3.51,3.51,0,0,0-3.23,2,3.24,3.24,0,0,0,.76,3.64,3.64,3.64,0,0,0,3.81.72,3.34,3.34,0,0,0,2.16-3.08,3.42,3.42,0,0,0-3.5-3.32Zm0,18.7A2.34,2.34,0,0,0,222,300.8a2.16,2.16,0,0,0,.51,2.43,2.41,2.41,0,0,0,2.55.48,2.23,2.23,0,0,0,1.45-2.06,2.3,2.3,0,0,0-2.35-2.22Zm0,18.66a1.14,1.14,0,1,0,1.2,1.13,1.17,1.17,0,0,0-1.2-1.13Zm18.52-55a3.5,3.5,0,0,0-3.23,2.06,3.22,3.22,0,0,0,.76,3.63,3.64,3.64,0,0,0,3.81.72,3.34,3.34,0,0,0,2.16-3.08,3.42,3.42,0,0,0-3.5-3.32Zm0,18.78a2.35,2.35,0,0,0-2.16,1.37,2.17,2.17,0,0,0,.51,2.44,2.43,2.43,0,0,0,2.55.48,2.24,2.24,0,0,0,1.45-2.06,2.29,2.29,0,0,0-2.35-2.21Zm0,18.7a1.14,1.14,0,1,0,1.19,1.13,1.15,1.15,0,0,0-1.19-1.12ZM261.24,263A3.5,3.5,0,0,0,258,265.1a3.22,3.22,0,0,0,.76,3.63,3.64,3.64,0,0,0,3.81.72,3.34,3.34,0,0,0,2.16-3.08,3.42,3.42,0,0,0-3.49-3.32Zm0,18.78a2.35,2.35,0,0,0-2.16,1.37,2.15,2.15,0,0,0,.51,2.44,2.43,2.43,0,0,0,2.55.48,2.24,2.24,0,0,0,1.44-2.06,2.28,2.28,0,0,0-2.33-2.21Zm0,18.7a1.14,1.14,0,1,0,1.19,1.13,1.16,1.16,0,0,0-1.19-1.13Zm18.44-36.38a2.33,2.33,0,0,0-2.16,1.38A2.14,2.14,0,0,0,278,268a2.42,2.42,0,0,0,2.56.48,2.23,2.23,0,0,0,1.44-2.06,2.28,2.28,0,0,0-2.34-2.22Zm0,18.77a1.14,1.14,0,1,0,1.19,1.14,1.18,1.18,0,0,0-1.19-1.13Zm18.56-17.67a1.13,1.13,0,1,0,1.19,1.13,1.16,1.16,0,0,0-1.19-1.13ZM242.72,170.9a7.73,7.73,0,1,0,8.11,7.73,7.93,7.93,0,0,0-8.11-7.73Zm18.52,1.1a6.63,6.63,0,1,0,7,6.63,6.51,6.51,0,0,0-2-4.69,7.11,7.11,0,0,0-4.92-1.93Zm18.44,1.09a5.54,5.54,0,1,0,5.8,5.53,5.68,5.68,0,0,0-5.8-5.53Zm18.55,1.1a4.68,4.68,0,0,0-4.3,2.73,4.28,4.28,0,0,0,1,4.83,4.81,4.81,0,0,0,5.07,1,4.42,4.42,0,0,0,2.87-4.09,4.54,4.54,0,0,0-4.64-4.42Zm18.49,1.1a3.33,3.33,0,1,0,3.5,3.34,3.41,3.41,0,0,0-3.5-3.34Zm18.44,1.1a2.36,2.36,0,0,0-2.17,1.37,2.17,2.17,0,0,0,.51,2.44,2.41,2.41,0,0,0,2.55.48,2.23,2.23,0,0,0,1.45-2.06,2.27,2.27,0,0,0-2.33-2.22Zm-111,11.79a7.74,7.74,0,1,0,8.11,7.73A7.93,7.93,0,0,0,224.2,188.18Zm18.52,1.1a6.63,6.63,0,1,0,7,6.62,6.51,6.51,0,0,0-2-4.69,7.17,7.17,0,0,0-4.93-1.93Zm18.52,1.09a5.54,5.54,0,1,0,5.8,5.53,5.68,5.68,0,0,0-5.8-5.53Zm18.43,1.1a4.65,4.65,0,0,0-4.29,2.74,4.25,4.25,0,0,0,1,4.82,4.79,4.79,0,0,0,5.06,1,4.42,4.42,0,0,0,2.87-4.09,4.54,4.54,0,0,0-4.64-4.43Zm18.56,1.1a3.5,3.5,0,0,0-3.23,2.06,3.22,3.22,0,0,0,.76,3.63,3.64,3.64,0,0,0,3.81.72,3.34,3.34,0,0,0,2.16-3.08,3.43,3.43,0,0,0-3.49-3.33Zm18.49,1.1a2.33,2.33,0,0,0-2.16,1.38,2.14,2.14,0,0,0,.5,2.43,2.42,2.42,0,0,0,2.56.48,2.23,2.23,0,0,0,1.44-2.06,2.29,2.29,0,0,0-2.33-2.23Zm18.44,1.1a1.14,1.14,0,1,0,1.19,1.13,1.16,1.16,0,0,0-1.19-1.13Zm-111,11a7.74,7.74,0,1,0,8.11,7.73,7.93,7.93,0,0,0-8.11-7.73Zm18.52,1.09a7,7,0,0,0-6.43,4.09,6.4,6.4,0,0,0,1.5,7.23,7.25,7.25,0,0,0,7.59,1.44,6.64,6.64,0,0,0,4.29-6.13,6.8,6.8,0,0,0-6.94-6.63Zm18.52,1.1a5.54,5.54,0,1,0,5.8,5.53,5.68,5.68,0,0,0-5.8-5.53Zm18.43,1.1a4.65,4.65,0,0,0-4.29,2.74,4.25,4.25,0,0,0,1,4.82,4.79,4.79,0,0,0,5.06,1,4.42,4.42,0,0,0,2.87-4.09,4.54,4.54,0,0,0-4.63-4.43Zm18.56,1.1a3.5,3.5,0,0,0-3.23,2.06,3.22,3.22,0,0,0,.75,3.63,3.64,3.64,0,0,0,3.82.72,3.35,3.35,0,0,0,2.16-3.08,3.43,3.43,0,0,0-3.48-3.33Zm18.49,1.1a2.35,2.35,0,0,0-2.17,1.38,2.16,2.16,0,0,0,.51,2.43,2.41,2.41,0,0,0,2.55.48,2.22,2.22,0,0,0,1.45-2.06,2.28,2.28,0,0,0-2.32-2.23Zm18.44,1.1a1.14,1.14,0,1,0,1.19,1.13,1.16,1.16,0,0,0-1.19-1.13ZM224.2,224.56a6.63,6.63,0,1,0,7,6.62,6.46,6.46,0,0,0-2-4.68A7.12,7.12,0,0,0,224.2,224.56Zm18.52,1.1a5.53,5.53,0,1,0,5.8,5.52,5.44,5.44,0,0,0-1.69-3.91,6,6,0,0,0-4.11-1.62Zm18.52,1.09a4.65,4.65,0,0,0-4.3,2.74,4.27,4.27,0,0,0,1,4.82,4.82,4.82,0,0,0,5.06,1,4.45,4.45,0,0,0,2.88-4.1,4.37,4.37,0,0,0-1.36-3.14,4.76,4.76,0,0,0-3.28-1.3Zm18.43,1.1a3.5,3.5,0,0,0-3.23,2.06,3.22,3.22,0,0,0,.76,3.63,3.62,3.62,0,0,0,3.81.72,3.33,3.33,0,0,0,2.16-3.08,3.22,3.22,0,0,0-1-2.35,3.6,3.6,0,0,0-2.47-1Zm18.56,1.1a2.33,2.33,0,0,0-2.16,1.38,2.14,2.14,0,0,0,.5,2.43,2.42,2.42,0,0,0,2.56.48,2.23,2.23,0,0,0,1.44-2.06,2.17,2.17,0,0,0-.67-1.58,2.41,2.41,0,0,0-1.66-.66Zm18.49,1.1a1.14,1.14,0,1,0,1.19,1.13,1.1,1.1,0,0,0-.34-.8,1.18,1.18,0,0,0-.84-.34Zm-74,13.23a5.83,5.83,0,0,0-5.36,3.41,5.34,5.34,0,0,0,1.26,6,6,6,0,0,0,6.33,1.19,5.53,5.53,0,0,0,3.58-5.1,5.68,5.68,0,0,0-5.8-5.54Zm18.52,1.1a4.67,4.67,0,0,0-4.3,2.73,4.28,4.28,0,0,0,1,4.83,4.81,4.81,0,0,0,5.07,1,4.43,4.43,0,0,0,2.87-4.09,4.53,4.53,0,0,0-4.63-4.43Zm18.44,1.1a3.5,3.5,0,0,0-3.23,2.05,3.22,3.22,0,0,0,.75,3.64,3.66,3.66,0,0,0,3.82.72,3.35,3.35,0,0,0,2.15-3.08,3.4,3.4,0,0,0-3.48-3.34Zm18.56,1.09a2.36,2.36,0,0,0-2.17,1.38,2.15,2.15,0,0,0,.51,2.44,2.41,2.41,0,0,0,2.55.48,2.2,2.2,0,0,0,.78-3.65,2.41,2.41,0,0,0-1.66-.66Zm18.49,1.1a1.2,1.2,0,0,0-1.1.7,1.07,1.07,0,0,0,.26,1.24,1.24,1.24,0,0,0,1.29.25,1.15,1.15,0,0,0,.74-1.05,1.17,1.17,0,0,0-1.18-1.15Zm-148-24.22a7.93,7.93,0,0,0-8.12,7.73h0a8.14,8.14,0,0,0,16.22,0h0A7.93,7.93,0,0,0,168.75,223.45Zm0,18.72a6.8,6.8,0,0,0-7,6.63v0a7,7,0,0,0,13.91,0v0A6.8,6.8,0,0,0,168.75,242.17Zm0,18.68a5.68,5.68,0,0,0-5.8,5.53h0a5.81,5.81,0,0,0,11.61,0h0a5.39,5.39,0,0,0-1.71-3.91A5.93,5.93,0,0,0,168.75,260.85Zm0,18.78a4.54,4.54,0,0,0-4.65,4.43h0a4.66,4.66,0,0,0,9.3,0h0A4.55,4.55,0,0,0,168.75,279.63Zm0,18.7a3.42,3.42,0,0,0-3.5,3.33v0a3.3,3.3,0,0,0,1.72,2.95,3.62,3.62,0,0,0,3.55,0,3.26,3.26,0,0,0,1.72-2.95h0a3.25,3.25,0,0,0-1-2.37A3.59,3.59,0,0,0,168.75,298.33Zm0,18.66a2.29,2.29,0,0,0-2.35,2.23v0a2.35,2.35,0,0,0,4.69,0v0A2.29,2.29,0,0,0,168.75,317Z"/></g></g></g></g></svg>