<svg xmlns="http://www.w3.org/2000/svg" viewBox="0 0 754.94 754.9"><defs><style>.cls-1{fill:#9aefff;}</style></defs><title>3d215a2b-d7ab-463c-8168-73c264d578c6uni</title><g id="Layer_2" data-name="Layer 2"><g id="Layer_1-2" data-name="Layer 1"><g id="_3d215a2b-d7ab-463c-8168-73c264d578c6" data-name="3d215a2b-d7ab-463c-8168-73c264d578c6"><g id="_3d215a2b-d7ab-463c-8168-73c264d578c6-child-0" data-name="3d215a2b-d7ab-463c-8168-73c264d578c6-child-0"><path class="cls-1" d="M230.23,419.48a18.15,18.15,0,1,1-18.15-18.15A18.15,18.15,0,0,1,230.23,419.48Zm-59.52-15.56a15.56,15.56,0,1,0,15.55,15.56A15.56,15.56,0,0,0,170.71,403.92Zm-41.3,2.58a13,13,0,1,0,9.2,3.79A13,13,0,0,0,129.41,406.5ZM87.9,409.1a10.41,10.41,0,1,0,10.4,10.4A10.4,10.4,0,0,0,87.9,409.1Zm-41.33,2.58A7.78,7.78,0,1,0,52.1,414a7.83,7.83,0,0,0-5.53-2.28ZM5.33,414.22A5.24,5.24,0,1,0,9,415.76,5.24,5.24,0,0,0,5.33,414.22ZM253.56,442a18.15,18.15,0,1,0,18.16,18.15A18.16,18.16,0,0,0,253.56,442Zm-41.47,2.58a15.56,15.56,0,1,0,15.56,15.56,15.58,15.58,0,0,0-15.56-15.56Zm-41.38,2.58a13,13,0,1,0,13,13,13,13,0,0,0-13-13Zm-41.3,2.58a10.4,10.4,0,1,0,10.41,10.4,10.4,10.4,0,0,0-10.41-10.4ZM87.9,452.27a7.82,7.82,0,1,0,7.82,7.82,7.81,7.81,0,0,0-7.82-7.82Zm-41.33,2.58a5.24,5.24,0,1,0,5.24,5.24,5.24,5.24,0,0,0-5.24-5.24ZM5.33,457.43A2.66,2.66,0,1,0,8,460.09a2.66,2.66,0,0,0-2.66-2.66Zm165.38,31a13,13,0,1,0,13,13,13,13,0,0,0-13-13ZM129.41,491a10.4,10.4,0,1,0,10.41,10.4A10.4,10.4,0,0,0,129.41,491ZM87.9,493.6a7.83,7.83,0,1,0,7.82,7.83,7.85,7.85,0,0,0-7.82-7.83Zm-41.33,2.59a5.24,5.24,0,1,0,5.24,5.24,5.24,5.24,0,0,0-5.24-5.24ZM5.33,498.77A2.66,2.66,0,1,0,8,501.43a2.66,2.66,0,0,0-2.66-2.66Zm124.08,36.3a7.8,7.8,0,1,0,5.54,2.28,7.82,7.82,0,0,0-5.54-2.28ZM87.9,537.65a5.22,5.22,0,1,0,3.71,1.53,5.24,5.24,0,0,0-3.71-1.53Zm-41.33,2.57a2.66,2.66,0,1,0,1.88.78,2.67,2.67,0,0,0-1.88-.78Zm82.84,36.28a7.8,7.8,0,1,0,5.53,2.28,7.81,7.81,0,0,0-5.53-2.28ZM87.9,579.08a5.22,5.22,0,1,0,3.71,1.53,5.23,5.23,0,0,0-3.71-1.53Zm-41.34,2.58a2.66,2.66,0,1,0,2.66,2.66,2.65,2.65,0,0,0-2.65-2.67Zm82.84,38.65a5.24,5.24,0,1,0,5.25,5.25,5.24,5.24,0,0,0-5.25-5.25ZM87.89,622.9a2.66,2.66,0,1,0,2.67,2.66,2.66,2.66,0,0,0-2.67-2.66Zm41.51,41.51a2.66,2.66,0,1,0,2.67,2.66,2.66,2.66,0,0,0-2.67-2.66ZM335.47,524.74a18.16,18.16,0,1,0,18.15,18.16A18.16,18.16,0,0,0,335.47,524.74Zm0,44a15.53,15.53,0,1,0,11,4.55,15.56,15.56,0,0,0-11-4.55Zm0,43.82a13,13,0,1,0,9.18,3.81A13,13,0,0,0,335.47,612.57Zm0,44.09a10.41,10.41,0,1,0,7.36,3.05A10.41,10.41,0,0,0,335.47,656.66Zm0,43.94a7.82,7.82,0,1,0,5.54,2.29A7.82,7.82,0,0,0,335.47,700.6Zm0,43.82a5.24,5.24,0,1,0,3.71,1.53A5.25,5.25,0,0,0,335.47,744.42Zm-40.55-261.1a18.13,18.13,0,1,0,12.84,5.31,18.15,18.15,0,0,0-12.84-5.31Zm0,44a15.53,15.53,0,1,0,11,4.54,15.56,15.56,0,0,0-11-4.54Zm0,44a13,13,0,1,0,9.18,3.79,13,13,0,0,0-9.18-3.79Zm0,43.82a10.36,10.36,0,1,0,7.35,3,10.41,10.41,0,0,0-7.35-3Zm0,44.09a7.78,7.78,0,1,0,5.54,2.28,7.81,7.81,0,0,0-5.54-2.28Zm0,43.94a5.21,5.21,0,1,0,3.71,1.52,5.23,5.23,0,0,0-3.71-1.52Zm0,43.81a2.67,2.67,0,1,0,2.66,2.67,2.75,2.75,0,0,0-.77-1.9,2.71,2.71,0,0,0-1.89-.78ZM253.56,483.32a18.13,18.13,0,1,0,12.85,5.31,18.16,18.16,0,0,0-12.85-5.31Zm0,44a15.52,15.52,0,1,0,11,4.54,15.56,15.56,0,0,0-11-4.54Zm0,44a12.94,12.94,0,1,0,9.19,3.79,13,13,0,0,0-9.19-3.79Zm0,43.82a10.36,10.36,0,1,0,7.37,3,10.4,10.4,0,0,0-7.37-3Zm0,44.09a7.8,7.8,0,1,0,5.54,2.28,7.81,7.81,0,0,0-5.54-2.28Zm0,43.94a5.21,5.21,0,1,0,3.72,1.52,5.24,5.24,0,0,0-3.72-1.52Zm0,43.81a2.67,2.67,0,1,0,2.67,2.67,2.71,2.71,0,0,0-.78-1.9,2.67,2.67,0,0,0-1.89-.78ZM212.09,485.9a15.55,15.55,0,1,0,11,4.55A15.56,15.56,0,0,0,212.09,485.9Zm0,44a13,13,0,1,0,9.18,3.8,13,13,0,0,0-9.18-3.8Zm0,44a10.38,10.38,0,1,0,7.36,3,10.41,10.41,0,0,0-7.36-3Zm0,43.82a7.82,7.82,0,1,0,7.82,7.82,7.82,7.82,0,0,0-7.82-7.82Zm0,44.09a5.24,5.24,0,1,0,3.72,1.53,5.25,5.25,0,0,0-3.72-1.53Zm0,43.94a2.66,2.66,0,1,0,2.66,2.66,2.62,2.62,0,0,0-.77-1.89,2.67,2.67,0,0,0-1.89-.78ZM170.71,529.91a13,13,0,1,0,9.17,3.8,13,13,0,0,0-9.17-3.8Zm0,44a10.38,10.38,0,1,0,7.35,3,10.42,10.42,0,0,0-7.35-3Zm0,43.82a7.82,7.82,0,1,0,7.82,7.82,7.83,7.83,0,0,0-7.82-7.82Zm0,44.09a5.24,5.24,0,1,0,5.22,5.24,5.25,5.25,0,0,0-5.22-5.24Zm0,43.94a2.66,2.66,0,1,0,1,5.12,2.65,2.65,0,0,0,1.64-2.46,2.58,2.58,0,0,0-.77-1.88,2.63,2.63,0,0,0-1.88-.79ZM212.09,359.3H212a18.15,18.15,0,0,0,0,36.28h.07a18.15,18.15,0,1,0,0-36.28Zm-41.38,2.58h-.12a15.56,15.56,0,0,0,0,31.12h.12a15.56,15.56,0,0,0,0-31.12Zm-41.36,28.54h.06a13,13,0,0,0,0-26h-.06a13,13,0,0,0,0,26ZM87.9,367h-.06a10.4,10.4,0,1,0,0,20.8h.06a10.4,10.4,0,1,0,0-20.8Zm-41.33,2.58h-.09a7.82,7.82,0,0,0,0,15.64h.09a7.82,7.82,0,0,0,0-15.64ZM5.33,372.19H5.24a5.24,5.24,0,1,0,0,10.48h.09a5.24,5.24,0,1,0,0-10.48Zm330.09-142A18.16,18.16,0,1,0,317.27,212,18.15,18.15,0,0,0,335.42,230.19Zm0-44a15.56,15.56,0,1,0-15.56-15.56A15.57,15.57,0,0,0,335.42,186.22Zm0-43.87a13,13,0,1,0-13-13A13,13,0,0,0,335.42,142.35Zm0-44.09a10.4,10.4,0,1,0-7.35-3A10.41,10.41,0,0,0,335.42,98.26Zm0-43.92a7.82,7.82,0,1,0-7.82-7.8A7.83,7.83,0,0,0,335.42,54.34Zm0-43.82A5.22,5.22,0,1,0,331.71,9,5.24,5.24,0,0,0,335.42,10.52ZM294.8,271.66a18.15,18.15,0,1,0-18.16-18.15A18.15,18.15,0,0,0,294.8,271.66Zm0-44.05a15.56,15.56,0,1,0-15.55-15.56,15.57,15.57,0,0,0,15.55,15.56Zm0-44a13,13,0,1,0-13-13A13,13,0,0,0,294.8,183.64Zm0-43.87a10.4,10.4,0,1,0-10.41-10.38A10.4,10.4,0,0,0,294.8,139.77Zm0-44.09A7.83,7.83,0,1,0,287,87.86,7.83,7.83,0,0,0,294.8,95.68Zm0-43.92a5.24,5.24,0,1,0-5.24-5.22A5.24,5.24,0,0,0,294.8,51.76Zm0-43.82a2.66,2.66,0,1,0-2.67-2.66A2.66,2.66,0,0,0,294.8,7.94Zm-41.34,175.7a13,13,0,1,0-9.18-3.8A13,13,0,0,0,253.46,183.64Zm0-43.87a10.4,10.4,0,1,0-10.4-10.38A10.4,10.4,0,0,0,253.46,139.77Zm0-44.09a7.83,7.83,0,1,0-7.82-7.82A7.82,7.82,0,0,0,253.46,95.68Zm0-43.92a5.24,5.24,0,1,0-5.24-5.22A5.24,5.24,0,0,0,253.46,51.76Zm0-43.82a2.66,2.66,0,1,0-2.66-2.66,2.66,2.66,0,0,0,2.66,2.66ZM212,137.2a7.83,7.83,0,1,0-7.84-7.81A7.85,7.85,0,0,0,212,137.2Zm0-44.1a5.24,5.24,0,1,0-5.25-5.24A5.23,5.23,0,0,0,212,93.1Zm0-43.91a2.67,2.67,0,1,0-2.67-2.67A2.67,2.67,0,0,0,212,49.19Zm-41.43,88a7.83,7.83,0,1,0-7.84-7.81,7.83,7.83,0,0,0,7.84,7.81Zm0-44.1a5.24,5.24,0,1,0-5.24-5.24,5.23,5.23,0,0,0,5.24,5.24Zm0-43.91A2.67,2.67,0,1,0,168,46.52a2.68,2.68,0,0,0,2.66,2.67Zm-41.26,85.42a5.24,5.24,0,1,0-5.24-5.22A5.24,5.24,0,0,0,129.35,134.61Zm0-44.09a2.66,2.66,0,1,0-1.88-.78A2.66,2.66,0,0,0,129.35,90.52ZM87.84,132a2.66,2.66,0,1,0-2.67-2.64A2.66,2.66,0,0,0,87.84,132ZM212,353.57a18.15,18.15,0,1,0-18.15-18.15A18.14,18.14,0,0,0,212,353.57ZM170.6,351A15.56,15.56,0,1,0,155,335.43,15.58,15.58,0,0,0,170.6,351Zm-41.24-2.58a13,13,0,1,0-9.2-3.8,13,13,0,0,0,9.2,3.8Zm-41.51-2.58a10.4,10.4,0,1,0-10.4-10.4,10.4,10.4,0,0,0,10.4,10.4Zm-41.36-2.57a7.83,7.83,0,1,0-7.82-7.83,7.82,7.82,0,0,0,7.82,7.83ZM5.24,340.69A5.25,5.25,0,1,0,0,335.43a5.24,5.24,0,0,0,5.24,5.26ZM253.46,313a18.16,18.16,0,1,0-18.15-18.16A18.16,18.16,0,0,0,253.46,313ZM212,310.45a15.56,15.56,0,1,0-15.56-15.56A15.55,15.55,0,0,0,212,310.45Zm-41.43-2.58a13,13,0,1,0-13-13,13,13,0,0,0,13,13Zm-41.24-2.58a10.4,10.4,0,1,0-10.4-10.4,10.42,10.42,0,0,0,10.4,10.4Zm-41.51-2.58A7.82,7.82,0,1,0,80,294.89a7.82,7.82,0,0,0,7.82,7.82ZM46.5,300.13a5.24,5.24,0,1,0-5.24-5.24,5.25,5.25,0,0,0,5.24,5.24ZM5.26,297.55a2.66,2.66,0,1,0-2.66-2.66,2.67,2.67,0,0,0,2.66,2.66Zm248.2-25.89a18.15,18.15,0,1,0-18.15-18.15A18.15,18.15,0,0,0,253.46,271.66ZM212,269.08a15.56,15.56,0,1,0-15.56-15.56A15.56,15.56,0,0,0,212,269.08Zm-41.43-2.58a13,13,0,1,0-13-13,13,13,0,0,0,13,13Zm-41.24-2.58a10.4,10.4,0,1,0-10.4-10.4,10.42,10.42,0,0,0,10.4,10.4Zm-41.51-2.57A7.83,7.83,0,1,0,80,253.52a7.83,7.83,0,0,0,7.82,7.83Zm-41.38-2.58a5.24,5.24,0,1,0-5.24-5.24A5.23,5.23,0,0,0,46.48,258.77ZM5.24,256.19a2.66,2.66,0,1,0-2.66-2.66,2.66,2.66,0,0,0,2.66,2.66Zm248.22-28.6A15.56,15.56,0,1,0,237.9,212,15.56,15.56,0,0,0,253.46,227.59ZM212,199.05a13,13,0,1,0,13,13,13,13,0,0,0-13-13Zm-41.43,23.38a10.35,10.35,0,1,0-7.37-3,10.41,10.41,0,0,0,7.37,3Zm-41.24-2.58a7.82,7.82,0,1,0-7.82-7.82,7.81,7.81,0,0,0,7.82,7.82Zm-41.51-2.58A5.24,5.24,0,1,0,82.62,212a5.23,5.23,0,0,0,5.24,5.24ZM46.5,214.69A2.66,2.66,0,1,0,43.84,212a2.66,2.66,0,0,0,2.66,2.66ZM212,183.62a13,13,0,1,0-13-13,13,13,0,0,0,13,13ZM170.62,181a10.4,10.4,0,1,0-10.4-10.4,10.4,10.4,0,0,0,10.4,10.4Zm-41.24-2.58a7.82,7.82,0,1,0-7.82-7.82,7.82,7.82,0,0,0,7.82,7.82Zm-41.54-2.53a5.24,5.24,0,1,0-5.24-5.25A5.26,5.26,0,0,0,87.84,175.93Zm-41.36-2.61a2.66,2.66,0,1,0-1.88-.78A2.66,2.66,0,0,0,46.48,173.32Zm331-162.8A5.21,5.21,0,0,0,381.17,9a5.26,5.26,0,0,0,1.54-3.72v0a5.24,5.24,0,1,0-10.48,0v0A5.24,5.24,0,0,0,377.45,10.52Zm165.39,343A18.16,18.16,0,1,0,530,348.25a18.16,18.16,0,0,0,12.83,5.31ZM584.23,351a15.55,15.55,0,1,0-11-4.55,15.56,15.56,0,0,0,11,4.55Zm41.28-2.58a13,13,0,1,0-9.17-3.8,13,13,0,0,0,9.17,3.8ZM667,345.82a10.4,10.4,0,1,0-10.39-10.4A10.42,10.42,0,0,0,667,345.82Zm41.34-2.58a7.82,7.82,0,1,0-7.82-7.82,7.81,7.81,0,0,0,7.82,7.82Zm41.24-2.58a5.19,5.19,0,1,0-3.71-1.51,5.25,5.25,0,0,0,3.71,1.51ZM501.36,312.93a18.16,18.16,0,1,0-12.82-5.31,18.14,18.14,0,0,0,12.82,5.31Zm41.48-2.58a15.56,15.56,0,1,0-15.52-15.55,15.55,15.55,0,0,0,15.52,15.55Zm41.39-2.57a13,13,0,1,0-9.18-3.8,13,13,0,0,0,9.18,3.8Zm41.28-2.58a10.41,10.41,0,1,0-7.35-3.05,10.41,10.41,0,0,0,7.35,3.05ZM667,302.61a7.82,7.82,0,1,0-5.52-2.28,7.83,7.83,0,0,0,5.52,2.28ZM708.36,300a5.24,5.24,0,1,0-3.7-1.53,5.24,5.24,0,0,0,3.7,1.53Zm41.24-2.58a2.66,2.66,0,1,0-1.87-.77,2.7,2.7,0,0,0,1.89.77Zm-165.37-31a13,13,0,1,0-9.18-3.8,13,13,0,0,0,9.18,3.8Zm41.28-2.58a10.4,10.4,0,1,0-7.35-3,10.41,10.41,0,0,0,7.35,3ZM667,261.28A7.84,7.84,0,1,0,661.5,259a7.83,7.83,0,0,0,5.52,2.29Zm41.34-2.58a5.24,5.24,0,1,0-3.7-1.53,5.24,5.24,0,0,0,3.7,1.53Zm41.24-2.58a2.66,2.66,0,1,0-1.87-.77,2.7,2.7,0,0,0,1.89.77ZM625.52,219.84a7.82,7.82,0,1,0-5.53-2.29A7.83,7.83,0,0,0,625.52,219.84ZM667,217.26a5.24,5.24,0,1,0-5.21-5.24,5.23,5.23,0,0,0,5.21,5.24Zm41.34-2.58a2.66,2.66,0,1,0-2.66-2.66,2.66,2.66,0,0,0,2.66,2.66Zm-82.84-36.27a7.82,7.82,0,1,0-7.83-7.82,7.82,7.82,0,0,0,7.83,7.82ZM667,175.83a5.24,5.24,0,1,0-5.22-5.24,5.24,5.24,0,0,0,5.22,5.24Zm41.34-2.58a2.66,2.66,0,1,0-2.67-2.66,2.66,2.66,0,0,0,2.67,2.66Zm-82.85-38.66a5.24,5.24,0,1,0-5.24-5.24,5.24,5.24,0,0,0,5.24,5.24ZM667,132a2.66,2.66,0,1,0-1.88-.78A2.66,2.66,0,0,0,667,132ZM625.52,90.5a2.66,2.66,0,1,0-1.88-.78A2.66,2.66,0,0,0,625.52,90.5Zm-206,139.66A18.15,18.15,0,1,0,401.32,212,18.15,18.15,0,0,0,419.47,230.16Zm0-44a15.53,15.53,0,1,0-11-4.55,15.57,15.57,0,0,0,11,4.55Zm0-43.82a13,13,0,1,0-9.18-3.8A13,13,0,0,0,419.47,142.33Zm0-44.09a10.38,10.38,0,1,0-7.36-3A10.4,10.4,0,0,0,419.47,98.24Zm0-43.94A7.82,7.82,0,1,0,413.94,52,7.83,7.83,0,0,0,419.47,54.3Zm0-43.82A5.24,5.24,0,1,0,415.76,9,5.22,5.22,0,0,0,419.47,10.48ZM460,271.58a18.13,18.13,0,1,0-12.84-5.31A18.16,18.16,0,0,0,460,271.58Zm0-44A15.53,15.53,0,1,0,449,223a15.57,15.57,0,0,0,11,4.54Zm0-44a13,13,0,1,0-9.18-3.8,13,13,0,0,0,9.18,3.8Zm0-43.82a10.38,10.38,0,1,0-7.36-3,10.4,10.4,0,0,0,7.36,3Zm0-44.09a7.8,7.8,0,1,0-5.54-2.29A7.84,7.84,0,0,0,460,95.65Zm0-43.94a5.22,5.22,0,1,0-3.71-1.53A5.24,5.24,0,0,0,460,51.71Zm0-43.82a2.61,2.61,0,1,0-1.89-.76,2.66,2.66,0,0,0,1.89.76Zm41.35,263.69a18.13,18.13,0,1,0-12.84-5.31,18.15,18.15,0,0,0,12.84,5.31Zm0-44a15.53,15.53,0,1,0-11-4.55,15.56,15.56,0,0,0,11,4.55Zm0-44a13,13,0,1,0-9.18-3.8,13,13,0,0,0,9.18,3.8Zm0-43.82a10.38,10.38,0,1,0-7.36-3,10.4,10.4,0,0,0,7.36,3Zm0-44.09a7.78,7.78,0,1,0-5.54-2.28,7.83,7.83,0,0,0,5.54,2.28Zm0-43.94a5.21,5.21,0,1,0-3.71-1.52,5.24,5.24,0,0,0,3.71,1.52Zm0-43.82a2.61,2.61,0,1,0-1.89-.76,2.66,2.66,0,0,0,1.89.76ZM542.85,269a15.56,15.56,0,1,0-15.53-15.53A15.57,15.57,0,0,0,542.85,269Zm0-44a12.94,12.94,0,1,0-9.18-3.78,13,13,0,0,0,9.18,3.78Zm0-44a10.35,10.35,0,1,0-7.36-3,10.43,10.43,0,0,0,7.36,3Zm0-43.82a7.77,7.77,0,1,0-5.53-2.27,7.84,7.84,0,0,0,5.53,2.27Zm0-44.08a5.24,5.24,0,1,0-5.24-5.25,5.26,5.26,0,0,0,5.24,5.27Zm0-43.94a2.67,2.67,0,1,0-2.66-2.67,2.66,2.66,0,0,0,2.66,2.69ZM584.24,225a12.94,12.94,0,1,0-9.18-3.78,13,13,0,0,0,9.18,3.78Zm0-44a10.4,10.4,0,1,0-10.38-10.37A10.39,10.39,0,0,0,584.24,181Zm0-43.82a7.77,7.77,0,1,0-5.54-2.27,7.81,7.81,0,0,0,5.54,2.27Zm0-44.08A5.25,5.25,0,1,0,579,87.84a5.26,5.26,0,0,0,5.26,5.24Zm0-43.94a2.67,2.67,0,1,0-2.66-2.67,2.66,2.66,0,0,0,2.66,2.69ZM542.92,359.31h-.07a18.15,18.15,0,0,0,0,36.27h.07a18.15,18.15,0,1,0,0-36.27Zm41.43,2.58h-.12a15.56,15.56,0,0,0,0,31.11h.12a15.56,15.56,0,1,0,0-31.11Zm41.24,2.57h-.07a13,13,0,0,0,0,26h.07a13,13,0,0,0,0-26ZM667.1,367H667a10.41,10.41,0,0,0,0,20.81h.07a10.41,10.41,0,0,0,0-20.81Zm41.35,2.59h-.08a7.82,7.82,0,1,0,0,15.63h.08a7.82,7.82,0,1,0,0-15.63Zm41.16,13.06h.09a5.25,5.25,0,0,0,0-10.49h-.09a5.25,5.25,0,0,0,0,10.49ZM377.45,230.19A18.16,18.16,0,0,0,395.61,212v0a18.15,18.15,0,1,0-36.28,0v0A18.16,18.16,0,0,0,377.45,230.19Zm0-44A15.56,15.56,0,0,0,393,170.66v-.07a15.56,15.56,0,1,0-31.11,0v.07a15.55,15.55,0,0,0,15.55,15.56Zm0-43.87a13,13,0,0,0,13-13v0a13,13,0,0,0-26,0v0A13,13,0,0,0,377.45,142.35Zm0-44.09a10.41,10.41,0,0,0,10.41-10.4v0a10.41,10.41,0,0,0-20.81,0h0a10.4,10.4,0,0,0,10.4,10.42Zm0-43.92a7.83,7.83,0,0,0,7.85-7.8h0a7.83,7.83,0,1,0-15.65,0h0A7.82,7.82,0,0,0,377.45,54.34ZM472.86,400a23.32,23.32,0,0,1,9.31,12,20.72,20.72,0,1,1,0,15,23.33,23.33,0,0,1-13.54,14.18,20.71,20.71,0,1,1-27.41,27.3A23.35,23.35,0,0,1,427,482.08a20.72,20.72,0,1,1-15,0,23.38,23.38,0,0,1-12-9.31,26,26,0,0,1-11.87,10.88,20.73,20.73,0,0,1,10,17.73v.07a20.72,20.72,0,0,1-41.42,0v-.07a20.68,20.68,0,0,1,10-17.73A25.89,25.89,0,0,1,355,472.85a23.37,23.37,0,0,1-12,9.31,20.72,20.72,0,1,1-15,0,23.36,23.36,0,0,1-14.18-13.54,20.71,20.71,0,1,1-27.3-27.42A23.35,23.35,0,0,1,272.87,427a20.72,20.72,0,1,1,0-15,23.3,23.3,0,0,1,9.31-12,25.89,25.89,0,0,1-10.91-11.85,20.7,20.7,0,0,1-17.69,10h-.1a20.72,20.72,0,0,1,0-41.42h.1a20.7,20.7,0,0,1,17.69,10A25.94,25.94,0,0,1,282,354.92a23.42,23.42,0,0,1-9.31-12,20.72,20.72,0,1,1,0-15,23.36,23.36,0,0,1,13.55-14.17,20.71,20.71,0,1,1,27.42-27.3,23.34,23.34,0,0,1,14.22-13.63,20.72,20.72,0,1,1,15,0,23.3,23.3,0,0,1,12,9.31,25.94,25.94,0,0,1,11.87-10.89,20.69,20.69,0,0,1-10-17.73v-.06a20.72,20.72,0,0,1,41.42,0v.06a20.71,20.71,0,0,1-10,17.73A25.92,25.92,0,0,1,400,282a23.42,23.42,0,0,1,12-9.31,20.72,20.72,0,1,1,15,0,23.38,23.38,0,0,1,14.18,13.55,20.71,20.71,0,1,1,27.3,27.42,23.34,23.34,0,0,1,13.63,14.22,20.72,20.72,0,1,1,0,15,23.42,23.42,0,0,1-9.31,12,25.91,25.91,0,0,1,10.91,11.86,20.68,20.68,0,0,1,17.69-10h.1a20.72,20.72,0,0,1,0,41.42h-.1a20.68,20.68,0,0,1-17.69-10A26,26,0,0,1,472.89,400ZM303.29,313.76a23.37,23.37,0,0,1,10.33,7.82,25.47,25.47,0,0,1,8-8,23.36,23.36,0,0,1-7.87-10.3A20.77,20.77,0,0,1,303.29,313.76ZM307.61,400a22.92,22.92,0,0,1,6,5.68,26.18,26.18,0,0,1,4.72-5.51,28.45,28.45,0,0,1-4.9-4.66A25.75,25.75,0,0,1,307.61,400Zm5.82-40.6a29.69,29.69,0,0,1,4.83-4.61,25.76,25.76,0,0,1-4.71-5.54,23.76,23.76,0,0,1-5.95,5.67A25.94,25.94,0,0,1,313.43,359.37Zm8.26,82a26.05,26.05,0,0,1-8.06-8.06,23.31,23.31,0,0,1-10.29,7.87A20.84,20.84,0,0,1,313.8,451.6,23.3,23.3,0,0,1,321.69,441.36Zm37.75.13a28.73,28.73,0,0,1-4.63-4.85,26.1,26.1,0,0,1-5.55,4.72,23,23,0,0,1,5.68,6A26.08,26.08,0,0,1,359.44,441.49Zm0-128.08a25.79,25.79,0,0,1-4.5-5.84,23.28,23.28,0,0,1-5.69,6,25.71,25.71,0,0,1,5.53,4.71A28.76,28.76,0,0,1,359.44,313.41Zm36.07,0a28.85,28.85,0,0,1,4.65,4.85,26.06,26.06,0,0,1,5.55-4.71,23.37,23.37,0,0,1-5.68-6A25.82,25.82,0,0,1,395.51,313.41Zm10.18,127.9a25.89,25.89,0,0,1-5.52-4.71,28.78,28.78,0,0,1-4.66,4.89,25.79,25.79,0,0,1,4.5,5.84A23.4,23.4,0,0,1,405.69,441.31Zm27.56-127.76a25.91,25.91,0,0,1,8.06,8.05,23.36,23.36,0,0,1,10.3-7.87,20.71,20.71,0,0,1-10.46-10.42A23.4,23.4,0,0,1,433.25,313.55Zm3.43,86.57a25.81,25.81,0,0,1,4.72,5.54,23.59,23.59,0,0,1,6-5.67,26.23,26.23,0,0,1-5.84-4.48,28.62,28.62,0,0,1-4.83,4.63Zm4.83-40.73a26.11,26.11,0,0,1,5.82-4.48,23.4,23.4,0,0,1-6-5.68,26,26,0,0,1-4.69,5.51,28.84,28.84,0,0,1,4.89,4.67Zm10.14,81.73a23.35,23.35,0,0,1-10.24-7.91,25.88,25.88,0,0,1-8,8.06,23.41,23.41,0,0,1,7.85,10.34,20.77,20.77,0,0,1,10.43-10.46Zm-32.11,83.57a18.16,18.16,0,1,0,18.15,18.15,18.15,18.15,0,0,0-18.15-18.15Zm0,44a15.56,15.56,0,1,0,15.56,15.56,15.56,15.56,0,0,0-15.56-15.56Zm0,43.87a13,13,0,1,0,13,13,13,13,0,0,0-13-13Zm0,44.09a10.4,10.4,0,1,0,10.4,10.4,10.41,10.41,0,0,0-10.4-10.4Zm0,43.92a7.82,7.82,0,1,0,7.81,7.83,7.81,7.81,0,0,0-7.81-7.83Zm0,43.81a5.24,5.24,0,1,0,5.24,5.25,5.24,5.24,0,0,0-5.24-5.25Zm40.62-261.13a18.15,18.15,0,1,0,18.15,18.15,18.15,18.15,0,0,0-18.15-18.15Zm0,44a13.21,13.21,0,1,1,0,.05Zm0,44a13,13,0,1,0,13,13,13,13,0,0,0-13-13Zm0,43.87a10.4,10.4,0,1,0,10.38,10.41,10.41,10.41,0,0,0-10.38-10.41Zm0,44.09A7.83,7.83,0,1,0,468,667a7.83,7.83,0,0,0-7.82-7.82Zm0,43.92a5.24,5.24,0,1,0,5.23,5.25,5.23,5.23,0,0,0-5.23-5.25Zm0,43.82a2.66,2.66,0,1,0,2.67,2.66,2.66,2.66,0,0,0-2.67-2.66Zm41.34-175.7a13,13,0,1,0,13,13,13,13,0,0,0-13-13Zm0,43.87a10.4,10.4,0,1,0,10.4,10.4,10.4,10.4,0,0,0-10.4-10.4Zm0,44.09a7.82,7.82,0,1,0,7.82,7.82,7.82,7.82,0,0,0-7.82-7.82Zm0,43.92a5.24,5.24,0,1,0,5.24,5.24,5.23,5.23,0,0,0-5.24-5.24Zm0,43.82a2.66,2.66,0,1,0,2.66,2.66,2.66,2.66,0,0,0-2.66-2.66Zm41.42-129.26a7.83,7.83,0,1,0,7.83,7.83,7.82,7.82,0,0,0-7.83-7.83Zm0,44.1a5.24,5.24,0,1,0,5.24,5.24,5.24,5.24,0,0,0-5.24-5.24Zm0,43.91a2.67,2.67,0,1,0,2.67,2.67,2.67,2.67,0,0,0-2.67-2.67Zm41.43-88a7.83,7.83,0,1,0,7.82,7.83,7.82,7.82,0,0,0-7.82-7.83Zm0,44.1a5.24,5.24,0,1,0,5.24,5.24,5.23,5.23,0,0,0-5.24-5.24Zm0,43.91a2.67,2.67,0,1,0,2.66,2.67,2.68,2.68,0,0,0-2.66-2.67Zm41.24-85.42a5.24,5.24,0,1,0,5.24,5.24,5.23,5.23,0,0,0-5.24-5.24Zm0,44.09a2.66,2.66,0,1,0,2.66,2.66,2.67,2.67,0,0,0-2.66-2.66Zm41.51-41.51a2.66,2.66,0,1,0,2.66,2.66,2.66,2.66,0,0,0-2.66-2.66ZM542.91,401.31a18.15,18.15,0,1,0,18.16,18.15,18.15,18.15,0,0,0-18.16-18.15Zm41.43,2.58a15.59,15.59,0,1,0,11,4.57,15.55,15.55,0,0,0-11-4.57Zm41.24,2.58a13,13,0,1,0,13,13,13,13,0,0,0-13-13Zm41.51,2.58a10.4,10.4,0,1,0,10.4,10.4,10.42,10.42,0,0,0-10.4-10.4Zm41.36,2.57a7.83,7.83,0,1,0,7.83,7.85,7.83,7.83,0,0,0-7.83-7.85Zm41.24,2.58a5.24,5.24,0,1,0,5.24,5.25,5.24,5.24,0,0,0-5.24-5.25Zm-248.2,27.69A18.15,18.15,0,1,0,519.64,460,18.15,18.15,0,0,0,501.49,441.89Zm41.42,2.58a15.55,15.55,0,1,0,11,4.55,15.56,15.56,0,0,0-11-4.55Zm41.42,2.58a13,13,0,1,0,13,13,13,13,0,0,0-13-13Zm41.24,2.58A10.4,10.4,0,1,0,636,460a10.4,10.4,0,0,0-10.41-10.4Zm41.51,2.58A7.82,7.82,0,1,0,674.9,460a7.81,7.81,0,0,0-7.82-7.82Zm41.36,2.58a5.24,5.24,0,1,0,5.24,5.24,5.23,5.23,0,0,0-5.24-5.24Zm41.24,2.58a2.66,2.66,0,1,0,2.66,2.66,2.66,2.66,0,0,0-2.66-2.66ZM501.46,483.24a18.15,18.15,0,1,0,18.16,18.15,18.16,18.16,0,0,0-18.16-18.15Zm41.43,2.58a15.56,15.56,0,1,0,15.56,15.56,15.56,15.56,0,0,0-15.56-15.56Zm41.42,2.58a13,13,0,1,0,.05,0ZM625.55,491a10.38,10.38,0,1,0,.05,0Zm41.51,2.58a7.8,7.8,0,1,0,.05,0Zm41.36,2.58a5.24,5.24,0,1,0,5.24,5.24,5.24,5.24,0,0,0-5.24-5.24Zm41.24,2.58a2.66,2.66,0,1,0,2.66,2.66,2.66,2.66,0,0,0-2.66-2.66Zm-248.17,28.6a15.57,15.57,0,1,0,11,4.56A15.56,15.56,0,0,0,501.49,527.32Zm41.42,2.58a12.94,12.94,0,1,0,9.19,3.79,13,13,0,0,0-9.19-3.79Zm41.42,2.58a10.33,10.33,0,1,0,7.38,3,10.39,10.39,0,0,0-7.38-3Zm41.24,2.58a7.77,7.77,0,1,0,5.55,2.28,7.84,7.84,0,0,0-5.55-2.28Zm41.51,2.58a5.17,5.17,0,1,0,3.73,1.52,5.24,5.24,0,0,0-3.73-1.52Zm41.36,2.58a2.61,2.61,0,1,0,1.9.77,2.69,2.69,0,0,0-1.88-.8ZM542.9,571.29a13,13,0,1,0,13,13,13,13,0,0,0-13-13Zm41.42,2.58a10.4,10.4,0,1,0,10.41,10.39,10.4,10.4,0,0,0-10.41-10.39Zm41.24,2.57a7.83,7.83,0,1,0,7.82,7.82,7.85,7.85,0,0,0-7.82-7.82ZM667.07,579a5.16,5.16,0,1,0,3.74,1.52,5.26,5.26,0,0,0-3.74-1.52Zm41.36,2.58a2.66,2.66,0,1,0,2.66,2.66,2.67,2.67,0,0,0-2.66-2.66Zm-331-56.88a18.15,18.15,0,0,0-18.15,18.15v0a18.15,18.15,0,0,0,36.28,0v0A18.14,18.14,0,0,0,377.45,524.72Zm0,44a15.56,15.56,0,0,0-15.55,15.56v.07a15.56,15.56,0,1,0,31.11,0v-.07A15.56,15.56,0,0,0,377.45,568.68Zm0,43.87a13,13,0,0,0-13,13h0a13,13,0,1,0,26,0h0a13,13,0,0,0-13-13Zm0,44.09a10.41,10.41,0,0,0-10.4,10.4h0a10.41,10.41,0,0,0,20.81,0h0A10.41,10.41,0,0,0,377.45,656.64Zm0,43.92a7.81,7.81,0,0,0-7.81,7.82v0a7.82,7.82,0,1,0,15.64,0h0a7.82,7.82,0,0,0-7.83-7.86Zm0,43.82a5.25,5.25,0,0,0-5.24,5.24v0a5.24,5.24,0,0,0,10.48,0v0A5.24,5.24,0,0,0,377.45,744.38Z"/></g></g></g></g></svg>