<svg xmlns="http://www.w3.org/2000/svg" viewBox="0 0 61.17 57.94"><defs><style>.cls-1{fill:#c09654;}</style></defs><title>3e2e8c4c-eea2-4440-88d8-b3211d8aacdbskateboard1</title><g id="Layer_2" data-name="Layer 2"><g id="Layer_1-2" data-name="Layer 1"><g id="_3e2e8c4c-eea2-4440-88d8-b3211d8aacdb" data-name="3e2e8c4c-eea2-4440-88d8-b3211d8aacdb"><g id="_955f8517-89d4-4bc5-b266-3fe956874aa2" data-name="955f8517-89d4-4bc5-b266-3fe956874aa2"><path class="cls-1" d="M8,56.65a7.91,7.91,0,0,1-1.8-1.31c-.75-.68-1.52-1.43-2.29-2.26A25.18,25.18,0,0,1,1.88,50.6a7.48,7.48,0,0,1-1.13-2A9.36,9.36,0,0,1,.3,46.69C.2,46,.1,45.35,0,44.85V41.24a4.25,4.25,0,0,0,.23-1.35c0-.45,0-.91,0-1.36a5,5,0,0,1,.07-1.24,1.75,1.75,0,0,1,.72-1,4.44,4.44,0,0,1,2.25-.87,15.87,15.87,0,0,1,2.94-.11,28.8,28.8,0,0,1,3,.3c1,.15,1.8.3,2.45.45A7.42,7.42,0,0,1,12,38.49c.05,1,.08,2.07.11,3.12a19.64,19.64,0,0,0,.3,3,2.9,2.9,0,0,0,1,1.92,2.1,2.1,0,0,0,1.28.45A3.21,3.21,0,0,0,16,46.69,3.24,3.24,0,0,0,17.07,46a3.71,3.71,0,0,0,.67-.91,4.77,4.77,0,0,0,.34-2.44c-.07-1-.11-1.94-.11-2.74V28a5.81,5.81,0,0,1-1-.9,5.43,5.43,0,0,0-.83-.83,3.41,3.41,0,0,0-1.12-.6,5.9,5.9,0,0,0-1.81-.23,9.51,9.51,0,0,0-.71,1.2,5.84,5.84,0,0,1-.83,1.24,7,7,0,0,1-1.09,1,2.65,2.65,0,0,1-1.35.53,3.54,3.54,0,0,1-1.62.45,12.39,12.39,0,0,1-2.1,0c-.73-.07-1.43-.17-2.11-.3s-1.19-.24-1.54-.34l-.23-.68a3.06,3.06,0,0,1-.48-1.46,15.51,15.51,0,0,1-.12-2c0-.67,0-1.36.08-2.06s.07-1.33.07-1.88c0-1.55,0-3.21-.11-5S1,12.69.9,10.94.85,7.46.9,5.75a26.09,26.09,0,0,1,.53-4.66A8.51,8.51,0,0,1,4,.3,20.85,20.85,0,0,1,7.33,0c1.18,0,2.35,0,3.5.15a19.17,19.17,0,0,1,2.93.45A7.82,7.82,0,0,0,15,.72,12.78,12.78,0,0,0,16.69.6L18.42.39a5.26,5.26,0,0,0,1.2-.26A3.37,3.37,0,0,1,20.79,0,12,12,0,0,1,22,.16c.4.08.76.17,1.09.27l.79.22A3.53,3.53,0,0,0,25.67.46a6,6,0,0,1,2-.33,2.92,2.92,0,0,0,.75,1c0,1.75,0,3.37.11,4.85a17.76,17.76,0,0,1-.41,4.63,22.55,22.55,0,0,1-4.93.75q-2.82.15-5.9.15c-.9,0-1.81,0-2.74,0a2.2,2.2,0,0,0-2,.79,2.33,2.33,0,0,0-.34,2,18.2,18.2,0,0,0,.56,2.17,2.89,2.89,0,0,1,.68.54,8.44,8.44,0,0,0,1.61-.64,5.59,5.59,0,0,1,1.47-.57,7.08,7.08,0,0,1,2.71-.22,10.19,10.19,0,0,1,2.36.56,8.64,8.64,0,0,1,1.92,1l1.51,1a14.82,14.82,0,0,1,3.68,3.46,9.32,9.32,0,0,1,1.47,3.72,24.58,24.58,0,0,1,.22,4.78q-.11,2.7-.11,6.54c0,1.15,0,2.36.11,3.61s.1,2.46.08,3.64a21.63,21.63,0,0,1-.34,3.39,8,8,0,0,1-1,2.81,18.14,18.14,0,0,1-3.58,4,16.5,16.5,0,0,1-4.85,2.82,18.12,18.12,0,0,1-5.93,1.09A17.29,17.29,0,0,1,8,56.66ZM5,25.68v-.23a3.64,3.64,0,0,0,.45-.53c0-.2-.07-.3-.07-.3l-.15-.15c-.1.2-.21.4-.34.61a6.08,6.08,0,0,0-.34.6ZM9.7,23.57c-.1-.15-.14-.21-.11-.19a1.4,1.4,0,0,0-.12-.33,3.63,3.63,0,0,1-.64-.53A1.47,1.47,0,0,0,8,22.14v.91a4.51,4.51,0,0,1,.79.67,2.2,2.2,0,0,0,.87.53Zm-5-4.06v-.22a5.56,5.56,0,0,0,.75-.91,3.35,3.35,0,0,0,.45-1.2H5.41a3.63,3.63,0,0,1-.67.45,4.83,4.83,0,0,1-.23,1,.71.71,0,0,0,0,.64v.22Zm6.39,1c0-.35,0-.52.07-.49s0-.06-.07-.26c-.15.2-.24.31-.27.34a2.91,2.91,0,0,0-.18.41ZM9.25,17.41v-.75a4.38,4.38,0,0,1-.83-1.13,2.24,2.24,0,0,0-1-1c.2.55.39,1.08.56,1.58A1.7,1.7,0,0,0,9,17.18v.23Zm6.39,4.73v-.52h-.23a1.69,1.69,0,0,0-.3-.42l-.45-.26c.1.25.18.45.23.6s.12.35.22.6ZM4.74,12.67a6.85,6.85,0,0,1,.79-1.05,3.13,3.13,0,0,0,.64-1.28,2,2,0,0,0-.46-.3A12.09,12.09,0,0,1,5,11.2a3.55,3.55,0,0,0-.49,1.47Zm15.33,12c-.1-.2-.14-.3-.11-.3s0,0-.11-.15v.22h-.23c-.1.1-.14.16-.11.19s.09,0,.19,0ZM8.8,10.79c.2-.1.3-.14.3-.11s.05,0,.15-.11.14-.22.11-.19,0-.09.11-.34H9.25a1.78,1.78,0,0,0-.6-.94,3.12,3.12,0,0,0-1.06-.41c.2.35.39.68.57,1s.39.69.64,1.09Zm9.62,9.7a4.56,4.56,0,0,1,1.2-1.2v-.23h-.9c-.15.25-.29.47-.41.64a2.47,2.47,0,0,0-.34.79ZM4.74,6.05V5.83H5a11.49,11.49,0,0,0,.64-1A1.07,1.07,0,0,0,5.71,4a4,4,0,0,1-.71.9,2,2,0,0,0-.49,1.2ZM9.92,4.18c-.25-.21-.45-.38-.6-.53A2.37,2.37,0,0,0,8.5,3.2V4a3.49,3.49,0,0,1,.63.38,2.38,2.38,0,0,0,.79.3Zm1.43,3.08a9.85,9.85,0,0,1,1.21-1.51,3.8,3.8,0,0,0,.9-1.8h-.68a11.93,11.93,0,0,1-1.16,1.54,4.42,4.42,0,0,0-.94,1.77Zm6.17-2.41V4.18L17,3.87a3.26,3.26,0,0,0-.72-.22v.53a1.63,1.63,0,0,1,.42.26,4.22,4.22,0,0,1,.34.41Zm.9,2.63A7.3,7.3,0,0,1,19,6.84a7.2,7.2,0,0,0,.64-.71A2.25,2.25,0,0,0,20,5.3a1.12,1.12,0,0,0-.19-.9,3.91,3.91,0,0,1-1.09,1.39A2.39,2.39,0,0,0,18,7.48Zm20.3,49.17a7.92,7.92,0,0,1-1.81-1.31c-.75-.68-1.51-1.43-2.29-2.26a28.33,28.33,0,0,1-2.07-2.48,7.38,7.38,0,0,1-1.12-2A8.73,8.73,0,0,1,31,46.69c-.1-.73-.2-1.34-.3-1.84V41.24a4.25,4.25,0,0,0,.23-1.35c0-.45,0-.91,0-1.36a4.52,4.52,0,0,1,.08-1.24,1.69,1.69,0,0,1,.71-1,4.48,4.48,0,0,1,2.26-.87,15.77,15.77,0,0,1,2.93-.11,29.28,29.28,0,0,1,3,.3c1,.15,1.79.3,2.44.45a7.42,7.42,0,0,1,.45,2.44q.07,1.55.12,3.12a17.37,17.37,0,0,0,.3,3,2.86,2.86,0,0,0,1,1.92,2.1,2.1,0,0,0,1.28.45,3.25,3.25,0,0,0,1.28-.26A3.3,3.3,0,0,0,47.74,46a3.77,3.77,0,0,0,.68-.91,4.68,4.68,0,0,0,.33-2.44c-.07-1-.11-1.94-.11-2.74V28a5.81,5.81,0,0,1-1-.9,5.85,5.85,0,0,0-.82-.83,3.46,3.46,0,0,0-1.13-.6,5.83,5.83,0,0,0-1.8-.23,9.51,9.51,0,0,0-.72,1.2,5.84,5.84,0,0,1-.83,1.24,6.22,6.22,0,0,1-1.09,1,2.65,2.65,0,0,1-1.35.53,3.54,3.54,0,0,1-1.62.45,12.39,12.39,0,0,1-2.1,0c-.73-.07-1.43-.17-2.11-.3s-1.19-.24-1.54-.34l-.22-.68a3.06,3.06,0,0,1-.49-1.46,17.68,17.68,0,0,1-.11-2c0-.67,0-1.36.07-2.06s.08-1.33.08-1.88c0-1.55,0-3.21-.12-5s-.13-3.51-.18-5.26,0-3.48,0-5.19a26.12,26.12,0,0,1,.52-4.66A8.51,8.51,0,0,1,34.66.3,20.94,20.94,0,0,1,38,0c1.18,0,2.35,0,3.5.15a19.17,19.17,0,0,1,2.93.45,7.82,7.82,0,0,0,1.24.08A12.78,12.78,0,0,0,47.36.6L49.09.39A5.38,5.38,0,0,0,50.3.13,3.32,3.32,0,0,1,51.46,0,12,12,0,0,1,52.7.16c.4.08.76.17,1.09.27l.79.22A3.57,3.57,0,0,0,56.35.46a6,6,0,0,1,2-.33,2.92,2.92,0,0,0,.75,1c0,1.75,0,3.37.11,4.85a17.34,17.34,0,0,1-.41,4.63,22.36,22.36,0,0,1-4.92.75q-2.82.15-5.9.15c-.91,0-1.82,0-2.75,0a2.2,2.2,0,0,0-2,.79,2.39,2.39,0,0,0-.34,2,18.2,18.2,0,0,0,.56,2.17,2.7,2.7,0,0,1,.68.54,8.52,8.52,0,0,0,1.62-.64,5.54,5.54,0,0,1,1.46-.57,7.08,7.08,0,0,1,2.71-.22,10.27,10.27,0,0,1,2.37.56,8.64,8.64,0,0,1,1.92,1l1.5,1a14.82,14.82,0,0,1,3.68,3.46,9.32,9.32,0,0,1,1.47,3.72,23.09,23.09,0,0,1,.22,4.78Q61,32.75,61,36.59c0,1.15,0,2.36.11,3.61s.11,2.46.08,3.64a21.63,21.63,0,0,1-.34,3.39,8,8,0,0,1-1,2.81,18.09,18.09,0,0,1-3.57,4,16.63,16.63,0,0,1-4.85,2.82,18.23,18.23,0,0,1-5.94,1.09,17.27,17.27,0,0,1-6.69-1.28Zm-3.08-31v-.23a3.64,3.64,0,0,0,.45-.53c-.05-.2-.08-.3-.08-.3l-.15-.15c-.1.2-.21.4-.34.61a6.08,6.08,0,0,0-.34.6Zm4.73-2.11c-.1-.15-.14-.21-.11-.19s0-.08-.11-.33a3.63,3.63,0,0,1-.64-.53,1.56,1.56,0,0,0-.79-.38v.91a4.93,4.93,0,0,1,.79.67,2.08,2.08,0,0,0,.86.53Zm-5-4.06v-.22a5.56,5.56,0,0,0,.75-.91,3.35,3.35,0,0,0,.45-1.2h-.52a3.83,3.83,0,0,1-.68.45,4.83,4.83,0,0,1-.23,1,.71.71,0,0,0,0,.64v.22Zm6.39,1c0-.35,0-.52.08-.49s0-.06-.08-.26l-.26.34a1.74,1.74,0,0,0-.19.41Zm-1.88-3.08v-.75a4.38,4.38,0,0,1-.83-1.13,2.24,2.24,0,0,0-1.05-1l.57,1.58a1.68,1.68,0,0,0,1.09,1.05v.23Zm6.39,4.73v-.52h-.22a1.61,1.61,0,0,0-.31-.42l-.45-.26c.1.25.18.45.23.6s.12.35.22.6Zm-10.9-9.47a7.57,7.57,0,0,1,.79-1.05,3.13,3.13,0,0,0,.64-1.28,1.74,1.74,0,0,0-.45-.3,12,12,0,0,1-.72,1.16,3.55,3.55,0,0,0-.49,1.47Zm15.34,12q-.15-.3-.12-.3s0,0-.11-.15v.22H50.3c-.1.1-.14.16-.12.19s.09,0,.19,0ZM39.47,10.79c.2-.1.3-.14.3-.11s0,0,.15-.11.14-.22.11-.19,0-.09.12-.34h-.23a1.78,1.78,0,0,0-.6-.94,3.06,3.06,0,0,0-1-.41c.2.35.39.68.56,1s.39.69.64,1.09Zm9.62,9.7a4.59,4.59,0,0,1,1.21-1.2v-.23h-.91a7.28,7.28,0,0,1-.41.64,2.47,2.47,0,0,0-.34.79ZM35.41,6.05V5.83h.23a11.21,11.21,0,0,0,.63-1,1,1,0,0,0,.12-.9,4,4,0,0,1-.72.9,2,2,0,0,0-.49,1.2ZM40.6,4.18c-.25-.21-.45-.38-.6-.53a2.44,2.44,0,0,0-.83-.45V4a4.1,4.1,0,0,1,.64.38,2.38,2.38,0,0,0,.79.3ZM42,7.26a10.48,10.48,0,0,1,1.2-1.51,3.8,3.8,0,0,0,.9-1.8h-.68a11.08,11.08,0,0,1-1.16,1.54,4.42,4.42,0,0,0-.94,1.77Zm6.16-2.41V4.18l-.49-.31A3.29,3.29,0,0,0,47,3.65v.53a1.72,1.72,0,0,1,.41.26,4.22,4.22,0,0,1,.34.41Zm.9,2.63a6.13,6.13,0,0,1,.57-.64c.22-.22.43-.46.64-.71a2.09,2.09,0,0,0,.41-.83,1.12,1.12,0,0,0-.19-.9,3.91,3.91,0,0,1-1.09,1.39,2.39,2.39,0,0,0-.79,1.69Z"/></g></g></g></g></svg>