<svg xmlns="http://www.w3.org/2000/svg" viewBox="0 0 864.03 78.02"><title>Asset 50</title><g id="Layer_2" data-name="Layer 2"><g id="Layer_1-2" data-name="Layer 1"><g id="a3bd54d5-fc11-44d2-aa3c-9a45be78580a"><g id="a3bd54d5-fc11-44d2-aa3c-9a45be78580a-child-0"><path d="M129.71,26.33V0H103.38V25.85H78V0H51.69V25.85H26.33V0H0V26.33H25.85V51.69H0V78H26.33V52.17H51.69V78H78V52.17h25.36V78h26.33V51.69H103.86V26.33ZM77.54,51.69H52.17V26.33H77.54Z"/></g></g><g id="b8d68227-e6c9-44c2-91a0-827030228cdd"><g id="b8d68227-e6c9-44c2-91a0-827030228cdd-child-0"><path d="M234.61,26.33V0H208.29V25.85H182.92V0H156.59V25.85H131.23V0H104.9V26.33h25.85V51.69H104.9V78h26.33V52.17h25.36V78h26.33V52.17h25.37V78h26.32V51.69H208.77V26.33ZM182.44,51.69H157.07V26.33h25.37Z"/></g></g><g id="_55cb435d-8204-4c8f-a28c-6c26675a7b95" data-name="55cb435d-8204-4c8f-a28c-6c26675a7b95"><g id="_55cb435d-8204-4c8f-a28c-6c26675a7b95-child-0" data-name="55cb435d-8204-4c8f-a28c-6c26675a7b95-child-0"><path d="M339.51,26.33V0H313.19V25.85H287.82V0H261.5V25.85H236.13V0H209.81V26.33h25.84V51.69H209.81V78h26.32V52.17H261.5V78h26.32V52.17h25.37V78h26.32V51.69H313.67V26.33ZM287.34,51.69H262V26.33h25.36Z"/></g></g><g id="e94ff19d-3df9-419b-95df-1696994e1aa8"><g id="e94ff19d-3df9-419b-95df-1696994e1aa8-child-0"><path d="M444.42,26.33V0H418.09V25.85H392.73V0H366.4V25.85H341V0H314.71V26.33h25.85V51.69H314.71V78H341V52.17H366.4V78h26.33V52.17h25.36V78h26.33V51.69H418.57V26.33ZM392.25,51.69H366.88V26.33h25.37Z"/></g></g><g id="c8393b27-5b0c-44ee-81d0-1ca0d26bb861"><g id="c8393b27-5b0c-44ee-81d0-1ca0d26bb861-child-0"><path d="M549.32,26.33V0H523V25.85H497.63V0H471.31V25.85H445.94V0H419.62V26.33h25.84V51.69H419.62V78h26.32V52.17h25.37V78h26.32V52.17H523V78h26.32V51.69H523.48V26.33ZM497.15,51.69H471.79V26.33h25.36Z"/></g></g><g id="_8156dd75-154f-4661-96c1-a411e18c9acc" data-name="8156dd75-154f-4661-96c1-a411e18c9acc"><g id="_8156dd75-154f-4661-96c1-a411e18c9acc-child-0" data-name="8156dd75-154f-4661-96c1-a411e18c9acc-child-0"><path d="M654.23,26.33V0H627.9V25.85H602.54V0H576.21V25.85H550.85V0H524.52V26.33h25.85V51.69H524.52V78h26.33V52.17h25.36V78h26.33V52.17H627.9V78h26.33V51.69H628.38V26.33ZM602.06,51.69H576.69V26.33h25.37Z"/></g></g><g id="_5ff2cff8-1589-4faa-85b6-f67675a184cd" data-name="5ff2cff8-1589-4faa-85b6-f67675a184cd"><g id="_5ff2cff8-1589-4faa-85b6-f67675a184cd-child-0" data-name="5ff2cff8-1589-4faa-85b6-f67675a184cd-child-0"><path d="M759.13,26.33V0H732.81V25.85H707.44V0H681.11V25.85H655.75V0H629.42V26.33h25.85V51.69H629.42V78h26.33V52.17h25.36V78h26.33V52.17h25.37V78h26.32V51.69H733.29V26.33ZM707,51.69H681.59V26.33H707Z"/></g></g><g id="f811f495-771d-459b-9e40-2bf926d9786d"><g id="f811f495-771d-459b-9e40-2bf926d9786d-child-0"><path d="M864,26.33V0H837.71V25.85H812.34V0H786V25.85H760.65V0H734.33V26.33h25.84V51.69H734.33V78h26.32V52.17H786V78h26.32V52.17h25.37V78H864V51.69H838.19V26.33ZM811.86,51.69H786.5V26.33h25.36Z"/></g></g></g></g></svg>