<svg xmlns="http://www.w3.org/2000/svg" viewBox="0 0 95.2 95.2"><defs><style>.cls-1{fill:#2b2d2c;}</style></defs><title>46326717-eabe-4fcc-9115-176636e3c4c82skateboard1</title><g id="Layer_2" data-name="Layer 2"><g id="Layer_1-2" data-name="Layer 1"><g id="_46326717-eabe-4fcc-9115-176636e3c4c8" data-name="46326717-eabe-4fcc-9115-176636e3c4c8"><g id="_46326717-eabe-4fcc-9115-176636e3c4c8-child-0" data-name="46326717-eabe-4fcc-9115-176636e3c4c8-child-0"><path class="cls-1" d="M88.82,6.66l-.28-.27A21.8,21.8,0,0,0,62.92,2.53a6.22,6.22,0,0,0-8.78,0l-9.08,9.09a6.22,6.22,0,0,0-.64,8L19.66,44.42a6.22,6.22,0,0,0-8,.64L2.53,54.14a6.22,6.22,0,0,0,0,8.78A21.8,21.8,0,0,0,6.39,88.54l.27.27a21.8,21.8,0,0,0,25.63,3.86,6.2,6.2,0,0,0,8.77,0l9.09-9.08a6.21,6.21,0,0,0,.63-8L75.55,50.78a6.21,6.21,0,0,0,8-.63l9.08-9.09a6.2,6.2,0,0,0,0-8.77A21.81,21.81,0,0,0,88.82,6.66Zm-41.58,74-9.09,9.09a2.09,2.09,0,0,1-2.95,0l-6.65-6.65a2.08,2.08,0,0,1,0-3L31,77.7,17.51,64.19l-2.46,2.46a2.09,2.09,0,0,1-3,0L5.45,60a2.08,2.08,0,0,1,0-3L14.53,48a2.08,2.08,0,0,1,3,0l6.65,6.64a2.09,2.09,0,0,1,0,3l-2.48,2.48,2.23,2.23a6.45,6.45,0,0,1,9,9l2.23,2.23,2.49-2.49a2.09,2.09,0,0,1,3,0l6.65,6.65A2.09,2.09,0,0,1,47.24,80.67ZM89.76,38.15l-9.09,9.09a2.09,2.09,0,0,1-3,0l-6.65-6.65a2.11,2.11,0,0,1,0-3l2.49-2.48-2.23-2.23a6.45,6.45,0,0,1-9-9l-2.23-2.23-2.48,2.48a2.09,2.09,0,0,1-3,0L48,17.48a2.08,2.08,0,0,1,0-3l9.08-9.08a2.08,2.08,0,0,1,3,0l6.65,6.64a2.09,2.09,0,0,1,0,3l-2.46,2.46L77.7,31l2.46-2.46a2.08,2.08,0,0,1,3,0l6.65,6.65A2.09,2.09,0,0,1,89.76,38.15Z"/></g><g id="_46326717-eabe-4fcc-9115-176636e3c4c8-child-1" data-name="46326717-eabe-4fcc-9115-176636e3c4c8-child-1"><path class="cls-1" d="M68.94,24.28A1.11,1.11,0,0,0,67.85,24l-2.72.72a1.15,1.15,0,0,0-.8.8l-.72,2.72a1.11,1.11,0,0,0,.29,1.09l2,2A1.13,1.13,0,0,0,67,31.6l2.72-.73a1.15,1.15,0,0,0,.8-.8l.73-2.72a1.13,1.13,0,0,0-.29-1.08Zm-.46,4.58-1.46.4L66,28.18l.39-1.46,1.47-.39,1.07,1.07Z"/></g><g id="_46326717-eabe-4fcc-9115-176636e3c4c8-child-2" data-name="46326717-eabe-4fcc-9115-176636e3c4c8-child-2"><path class="cls-1" d="M29.32,63.9a1.11,1.11,0,0,0-1.09-.29l-2.72.72a1.15,1.15,0,0,0-.8.8L24,67.85a1.11,1.11,0,0,0,.29,1.09l2,2a1.13,1.13,0,0,0,1.08.29l2.72-.73a1.15,1.15,0,0,0,.8-.8L31.6,67a1.15,1.15,0,0,0-.29-1.09Zm-.46,4.58-1.46.4L26.33,67.8l.39-1.46L28.18,66,29.26,67Z"/></g></g></g></g></svg>