<svg xmlns="http://www.w3.org/2000/svg" viewBox="0 0 371.07 371.47"><title>4a2a8672-c08a-48bd-a059-b5e24e68dbebmdpi</title><g id="Layer_2" data-name="Layer 2"><g id="Layer_1-2" data-name="Layer 1"><g id="_4a2a8672-c08a-48bd-a059-b5e24e68dbeb" data-name="4a2a8672-c08a-48bd-a059-b5e24e68dbeb"><g id="_4a2a8672-c08a-48bd-a059-b5e24e68dbeb-child-0" data-name="4a2a8672-c08a-48bd-a059-b5e24e68dbeb-child-0"><path d="M221.11,93.11a.51.51,0,0,1-.54-.54.53.53,0,0,1,.54-.51c10.48,0,42.16-1.54,48.88-8.4s8.4-38.27,8.4-48.87a.51.51,0,1,1,1,0c0,10.51,1.57,42.15,8.4,48.87s38.37,8.4,48.87,8.4a.5.5,0,0,1,.37.15.54.54,0,0,1,0,.75.5.5,0,0,1-.37.15c-10.5,0-42.15,1.54-48.87,8.41s-8.4,38.36-8.4,48.84a.51.51,0,1,1-1,0c0-10.48-1.57-42.16-8.4-48.84S231.68,93.11,221.11,93.11ZM369.6,184.26c-33.46,0-133.82-4.9-155.65-26.74S187.21,35.33,187.21,1.9a1.69,1.69,0,0,0-.76-1.65,1.82,1.82,0,0,0-1.83,0,1.68,1.68,0,0,0-.75,1.65c0,33.43-4.91,133.79-26.74,155.62S34.93,184.26,1.48,184.26a1.69,1.69,0,0,0,0,3.35c33.45,0,133.81,4.9,155.65,26.74S183.87,336.54,183.87,370a1.68,1.68,0,0,0,1.65,1.47,1.7,1.7,0,0,0,1.69-1.47c0-33.46,4.91-133.82,26.74-155.65s122.19-26.74,155.65-26.74a1.69,1.69,0,0,0,0-3.35Z"/></g></g></g></g></svg>