<svg xmlns="http://www.w3.org/2000/svg" viewBox="0 0 55.51 56.01"><defs><style>.cls-1{fill:#b8a980;}</style></defs><title>4c21980c-60bd-43c3-bfdd-87537dc4b9b3skateboard1</title><g id="Layer_2" data-name="Layer 2"><g id="Layer_1-2" data-name="Layer 1"><g id="_4c21980c-60bd-43c3-bfdd-87537dc4b9b3" data-name="4c21980c-60bd-43c3-bfdd-87537dc4b9b3"><g id="_4c21980c-60bd-43c3-bfdd-87537dc4b9b3-child-0" data-name="4c21980c-60bd-43c3-bfdd-87537dc4b9b3-child-0"><path class="cls-1" d="M0,1.62a1.65,1.65,0,0,1,.43-1,1.64,1.64,0,0,1,2-.48l0,0,.07,0,40.82,20A1.64,1.64,0,0,1,43.57,23L32.23,31.15,55,53.19A1.64,1.64,0,0,1,53.87,56a1.6,1.6,0,0,1-.79-.2l-43-23.49A1.65,1.65,0,0,1,9.2,31a1.66,1.66,0,0,1,.68-1.44L20.39,22,.51,2.93A1.65,1.65,0,0,1,0,1.62Z"/></g></g></g></g></svg>