<svg xmlns="http://www.w3.org/2000/svg" viewBox="0 0 2800.99 2964.81"><defs><style>.cls-1{fill:#9f1111;fill-rule:evenodd;}</style></defs><title>4e20852b-3b46-4935-9a55-bd5c2440ecabroster</title><g id="Layer_2" data-name="Layer 2"><g id="Layer_1-2" data-name="Layer 1"><g id="_4e20852b-3b46-4935-9a55-bd5c2440ecab" data-name="4e20852b-3b46-4935-9a55-bd5c2440ecab"><g id="_4e20852b-3b46-4935-9a55-bd5c2440ecab-child-0" data-name="4e20852b-3b46-4935-9a55-bd5c2440ecab-child-0"><path class="cls-1" d="M724.29,133.28c-10.21,2.39,1.13,14.26,2.7,16.65C737.28,148,726,135.66,724.29,133.28ZM726.13,197c-8.82,2-18.78-16.6-21.29-26.42-1.52-6-6.27-17.81.73-21.41C713.28,164,724,174.45,726.13,197Zm370.48-51.62c-1.32-4.81-8.83-8.26-2-12.47C1096,137.66,1103.6,141.08,1096.61,145.33ZM2023.8,58.82c-10-11.16-25.41-50.71-5.25-58.82,6.65,13.36,17.47,48.52,5,58.77ZM861,239c-12.37,4.85-21.13-21-13.09-27.75C852.4,220,859.05,226,860.7,239Zm962.76,5.41,18.18,112c.7,4.36-4.83,4.07-4.78-3.52l-10.76-66.33c-6.07-23.87-4.38-45-10.77-66.33-3.35-11.07-11.45-21-13.67-31.87-6.8-32.89-2-68.4-13.42-108.58-.7-4.36.26-10.82,3.52-4.77C1798.42,140.26,1826.15,176.52,1823.74,244.44Zm-732.92-30.09-8.28,1.34-1.35-8.28,8.29-1.35ZM780.29,320.12c-10.75,3-12.13-7.17-15.17-14.63C777.89,299.67,773.11,318.09,780.29,320.12ZM1104.9,327c-28,5.19-31-43.32-22.58-60.3C1089.56,289.94,1107.68,304.18,1104.9,327Zm943.2-195.66-8.28,1.35-1.35-8.28,8.28-1.35ZM908.18,376.12c-3.45-2.64-13.64-18.71,1.48-17.33C910.21,365,913.82,373.75,908.18,376.12Zm-80.21,30c-2.68-7-16.71-23.61-8.89-28.35,5.45,3.23,19.5,19.95,9.14,28.21ZM617,444.58c-4.11-7.83-17.14-15.5-3.36-20.66-1,7.58,15.24,15.07,3.61,20.53Zm193.59-14.33c-.49,11.59-15.73-24.86-8.23-24.25,5.77,4,7.31,13.52,8.49,24.12Zm221.7,2.31c-2-5.53,0-16.63,2.84-9,2.24,5.3.3,16.49-2.58,8.83Zm-763.64,226c-23.29,7.35-28.5-23.61-18.52-35.28C258.53,632.24,268.68,638.45,268.65,658.56ZM985.62,538c1,1.4,7.92.91,9,2.74,6.44,11.56,5.58,26.51,10.82,40.83,6.45,17.77,23.1,33.62,16.36,48.42-11.13-40.41-51.79-66.89-47.81-111,9.59,4.47,7.16,12,11.77,19ZM355.68,670c-21.27,5.74-24-14.38-26.8-33.93.36-3.44,2.68-5.47,7.6-5.53,12.43,7.3,25.63,21.06,19.38,39.44ZM878.8,640.51c.6-11.52-16.51-24-5.39-33.22-2.45,14.2,17,23.37,5.57,33.19Zm-552.7,85.4c-8.5,3.94-9.9-4.7-13.81-6.26-2.34-.9-15.23.19-17.24-1.5-4.11-3.35-.63-15.7-6.88-15.88,17.85,1.31,35.6,2,38.46,23.55Zm15.15,14.54c-8.3-5.51-13.13-15.6-13.75-31.77,19.2-2.75,23.45,21.15,14.28,31.68Zm-84.33,5.18L248.64,747l-1.34-8.28,8.28-1.35Zm682.2-72.42c-2.81-2.1-12.9-18.1-3.35-20.66-.78,7.62,15.43,15.13,3.88,20.57Zm299.31-44.28c-2.6-9.27-1.46-15.76,5.68-17.92,8,5,8.17,17.68-5.15,17.83Zm-941.52,255c13.09,41.83,30.57,88.16,45.79,124.52,10.2,24.58,19.14,49.81,29.36,76.2,6.31,16.34,13.77,31.31,20.55,47.75,10.75,26.31,18.9,56.79,28.68,72,11.48,17.78,26.08,32.32,33.58,49.83,8.38,6.59,20.24,4.76,27,8.42a110.06,110.06,0,0,1,37.1,45.06c9.56,30.16,6,72.14-16.9,79.41-29.57,9.28-80.81-50.85-84.66-75.72-2.35-14.42,10.94-32.21,9.25-48.29a138.94,138.94,0,0,0-7.55-20.06c-9.45-22.14-12-48.32-19.73-69.18-3.42-5.29-7.07-10.36-11-15.3a151.4,151.4,0,0,1-7.54-20c-11.44-28.3-18.86-56-30-80.3-6.8-11.5-12.92-23.3-18.53-35.37-4.17-12.2-2.91-24.66-6.05-37.3C318,953,296.61,915.83,288.63,885.24c-3.68-14.21-2.52-28.47-6.74-41.5-8.18-25.08-26.88-43.43-28-67.82.37-3.35,2.6-5.36,7.61-5.44C280.67,803.55,284.73,844.93,296.91,883.89Zm87.89-35.55c-30.91-4.13-52-44.11-47.34-81.69C379.38,756.92,405.89,817.23,384.8,848.34ZM1129,842.15c-38.87,1.47-39-50.14-48.59-90-2.51-10.38-13.71-12.4-3.37-20.75,12.49,43.76,44.69,59.73,51.9,111.47ZM666.85,827.78c-10.18-9.77-6.39-15.13-12.33-23.58,13.42-3.46,26.66,19,12.21,24Zm404.47-52.84c2.66-8.39-14.72-11.87-2.7-16.65,1.45,2.78,12.79,14.64,2.58,17ZM873.87,896.72c-30.72,5-39-20.44-49.57-43,16.36-11.79-9.68-33.16,9.83-44.18C854.32,827,887.53,863.79,873.87,896.72Zm230.07.95c-7-18.6-9.45-40.78-17.7-56.71-7-13.39-28.83-25.57-15.77-44.23,5,38.67,44.17,57.62,33.38,100.95ZM787.76,863.9l-8.37,1.36L778,856.89l8.37-1.36ZM521.44,928.42c-16.55,6.7-30.47-26.68-8.91-28.44,7.15,5.24,16.28,18.1,8.73,28.47Zm495.07-46.35c2.73-11.32-15.85-17.72-4-24.85,3.31,2.39,12.65,21.62,3.68,24.9Zm-636,94.71-8.37,1.36-1.35-8.28,8.37-1.36Zm238.55,3.69c-10.93,10.91-24.73-8.23-36.49-15.37-7.69-4.6-21.21-.67-19.24-13.88C587.53,953.33,609.75,958.5,619.07,980.47Zm-357.36,53.7-8.28,1.34-1.34-8.28,8.28-1.34Zm709.06-64,1.35,8.28c-9.1,8.15-14.39-12.1-6.11-11.71.76,3,1.45,5,4.79,3.61Zm-322.92,82.29c-10.75,3-14.57-3.58-15.17-14.63,10.78-2.85,14.59,3.76,15.19,14.81Zm-317.46,64.22c8.3,19,31.74,17,33,45.72-24.55-1.49-39.63-16.14-45.38-43.71Zm555.39-68.84c-3.11-3.43-12.17-13.65,2.17-13.15,0,5.21,2.39,12-2.4,13.37ZM1279,1005.32c-12,6.14-25.35-27.23-8.81-28.36,6.33,4.63,6.79,17.63,8.57,28.58Zm40.23-10.55c-18.46,10.12-26.68-20.25-7.46-20.08A27,27,0,0,1,1319.27,994.77Zm-483.33,91.14a11.54,11.54,0,0,1,6.28-13.72c7.3,5,9.1,15-5.92,13.66Zm154.86-16.54c-11.13,8-15.13-16.65-2-12.47Zm-370.64,77.14a20,20,0,0,0-6.21-11.78l8.37-1.36c5.95,5.16,6.46,9.37-1.8,13.09ZM1028.72,1093c-12.56,3.69-20.17-17.29-7.55-20.06a27.23,27.23,0,0,1,7.91,20ZM635,1211.72c-31.86-.31-59.78-44.58-41.14-69.9,19.34,13.86,46.35,40.64,41.56,70.29ZM919.86,1157c5.13,15.34.53,34.27,3.3,46.25,1-7.75-9.48-11.07-15.82-18.63-11.39-13.87-37-62.35-15.63-69.84,8,13.6,22.7,25,28.57,42.61Zm-144.4,2.14c-12.1,8.27-23.82-20.62-7.45-20a27.2,27.2,0,0,1,7.87,20.38Zm-291,43-8.28,1.34-1.25-7.74,8.63-1.41Zm320.72-43.55-8.28,1.34-1.34-8.28,8.28-1.34Zm-156.25,33.85c-3.2-3.41-12.1-13.75,2.07-13.13.6,5.39,3.15,12.1-1.64,13.52Zm683-93.85-8.28,1.35c-.85-5.25-6.26-4.83-6.19-11.7l8.28-1.34c1.55,5.59,6.7,5.22,6.62,12.08Zm-114.23,56.83c-6.53-9.81-15.06-43.24-12.25-49,7,14.31,26.91,36.85,12.68,49.39Zm-48.89-38.85,1.34,8.28c-9.18,8.16-14.48-12.09-6.19-11.7,1.37,2.8,1.76,5.2,5.28,3.81Zm196-1.29-8.28,1.35-1.45-8.91,8.28-1.34ZM1282,1158.54l-2.71-16.65,12.38-2c3.34,10.42,5.21,20.26-9.26,18.4Zm158.93-17.29c16.83-38.19,53.18,3.89,62.77,19.6s14.52,12.91,21.36,26.33a19.54,19.54,0,0,1,2.68,16.56c-23.06-1.92-17.15,17-40.13,15.1-1.3-25.47-19.35-27.47-35.09-32.68,3,18.34-23.21,17.47-7.08,35.23-22.51,4.29-17.27-36.58-11.58-44.91-10.31-2.71-12-17.7-13.67-31.86a15.55,15.55,0,0,1,21.16-3.62Zm-135.59,30.5c-6.46-4.34-9.62-19.27.82-21.42,6.88,4.09,10.12,19-.4,21.17Zm-364.23,37.82c20.23,12.07,22,26.77,34.35,54a329.62,329.62,0,0,1,19.24,39.73c6.47,26.37-.13,63.35,10,87.85,4.55,11.14,13.46,11.43,16.5,22.82-17.45-3.93,1.38,18-9.78,18.58a476.1,476.1,0,0,0-33.39-101c-9.33-18-18.36-30.92-24.71-47-10.13-25.77-20.81-39.21-26.68-59.64,8.07-3.23,1.07-17.08,14.93-15.58ZM1374.58,1152l-8.37,1.36-1.34-8.28,8.37-1.36Zm-19.4,11.65c-3.43-2.55-13.71-18.61,1.41-17.22.7,6,4.47,15.17-.82,16.94Zm227.43-41.2,1.35,8.28c-2.5.4-4.79,1.5-3.42,4.85l-8.37,1.35c-.4-2.49-1.33-4.81-4.78-3.52l-1.34-8.28c2.49-.4,4.8-1.41,3.43-4.76l8.37-1.36c1,2.22,1.75,4.56,5.18,3.19Zm17.61,26.84c-1.52-3.14-1.35-8.28-5.54-7.69-2.3-10.23,4.3-14,9.77-18.59C1617.2,1124.43,1621.83,1151.82,1600.22,1149.3ZM10.78,1403C.28,1411.51-3.6,1387,3.89,1387,6.13,1392.37,11.05,1394,10.78,1403Zm1350.93-227.74c6.21,11.79-7.71,8.75-15.21,11l-2.07-12.73A23.27,23.27,0,0,1,1361.71,1175.21ZM707.66,1289.85l-8.28,1.35-1.34-8.28,8.28-1.35ZM112.19,1424.78c-10.68,2.92-18.06,1.38-18.59-9.77C104.28,1412.08,111.66,1413.63,112.19,1424.78Zm46.35-3.23-8.37,1.36-1.34-8.28,8.37-1.36Zm1422.6-179.79c-1.41-3.06-4.25-4.24-9-2.84-1.78-11-5.45-23.42-.53-29.7C1594.11,1209.05,1594.22,1230.05,1581.14,1241.76Zm-229.47,28.66c-1.05-6.5-2.86-14.25,6.27-13.72A11.55,11.55,0,0,1,1351.67,1270.42Zm299.92-14.59c-15.9-3.36-31.48-7-37.92-23.64C1635.33,1227.67,1639.72,1246.88,1651.59,1255.83ZM151.93,1512c-13.82,12.84-41.29,8.53-40.76-14.68A32.39,32.39,0,0,1,151.93,1512Zm1226.42-182c-5.45-9.35-18.45-8.34-17.19-27.09C1379.72,1294,1394.1,1322.38,1378.35,1330.05Zm257.22-41.74c-1.34-8.28-12.17-3.51-11.07-15.29,5.39-2.25,7.06-7.18,16-6.8C1642.77,1276.36,1644.55,1286.21,1635.57,1288.31Zm-160.43,34.53c-16.23,7.57-21.34-26.14-8.9-28.34C1473.5,1299.26,1482.6,1312.49,1475.14,1322.84Zm-429.4,56.9-12.47,2-2-12.47,8.28-1.34c1.22,5.28,6.37,4.91,6.3,11.77Zm-573.85,84.63,1.35,8.28c-9.2,8.07-14.48-12.09-6.12-11.8.68,2.54,1.42,4.79,4.86,3.5Zm2072-323.48-8.28,1.35-1.36-8.37,8.28-1.35ZM1298.49,1389.8c-1.61-9.88-24.4-16.33-13-27.68,5.3,8.46,30.27,18.75,13.08,27.67Zm239-47.29-8.28,1.34-1.34-8.28,8.28-1.34Zm-392,76.41-8.28,1.35c-.68-4.19-4.19-4.44-5.54-7.69,5.34-.87,4.93-6.19,11.8-6.12Zm882.1-126.15-12.47,2c-13.74-1.33,6.51-6.63,11.79-6.21,8.83-5.82,12.6-15.29,27-17.08,4.41,9.15,15.59,8.8,20,18-19.88,2-21.44.19-46,3.26Zm-103.73,16.83a57.14,57.14,0,0,1-40.82,10.83c-9.51,10.68-41.91,23.34-56.7,17.79,24-5.9,29.56-25.08,59.63-26.76,6.69-4.93,10.49-11.94,18.73-15.75,6,5.16,13.85,8.17,19.52,13.83Zm-220.51,31.49a15.13,15.13,0,0,1-22.9,16.51,15.86,15.86,0,0,1,23.26-16.57Zm244.76-39.72,12.47-2c4.92-.07,11.65-2.53,13.05,2.17-7.24-1.29-23.14,8.88-25.16-.21Zm-500,119.53c-14.24,9.07-24.54-28.46-8.91-28.44,6.94,4.45,7.39,17.35,9.27,28.38Zm730.1-118.49c-11.21,5.29-11.73-4.13-21.43-.82a38.74,38.74,0,0,1,13.2-23.43,16.1,16.1,0,0,1,8.58,24.19Zm-531,86.18-7.93,1.28-1.33-8.19,8.28-1.34Zm-576.6,93.57-8.28,1.35-1.33-8.19,8.28-1.35ZM1525.52,1421a23.35,23.35,0,0,1-17.31-1.39c-3-10.75,3.57-14.56,14.62-15.17ZM765.65,1540.15c5.34-.87,4.92-6.28,11.78-6.21,7.72,9.26-12.44,14.54-12.14,6.27Zm2.68,16.56-8.28,1.35-1.34-8.29,8.28-1.34Zm214.6,12c-5.66-4.47-13.67-31.32-6.07-37.39C985.4,1538.94,995.25,1559.64,982.93,1568.76ZM2455.5,1303.83c5.34-.87,4.93-6.19,11.78-6.21C2475.68,1307.13,2455.25,1313,2455.5,1303.83Zm-336.76,75.94-8.37,1.36c-.67-4.18-4.08-4.36-5.43-7.62,5.25-.85,4.83-6.26,11.78-6.2ZM976.51,1582.14c-9.33,2.7-15.82,1.56-18-5.58,5.15-7.14,17.84-7.19,18.05,5.94Zm1723.6-266.56-8.28,1.34-1.34-8.28,8.28-1.34ZM907.94,1632c8.19-1.33,3.42-12.16,15.22-11C927.76,1629.71,910.71,1640.61,907.94,1632Zm-219.17,39.77-8.72,1.41-1.29-7.92,8.91-1.45Zm1915.71-289.52c-6.61-13.09-15.18-15.81.14-25.61C2611.14,1360.81,2615.49,1380.3,2604.48,1382.27ZM894.3,1655.52l-8.37,1.36-1.34-8.28,8.37-1.36Zm1143.21-146.78,1.34,8.28c-9.18,8.16-14.48-12.09-6.19-11.7C2033,1507.37,2034,1509.31,2037.51,1508.74Zm-724.66,126.1c-3.11-3.43-12.1-13.76,2.18-13.06,0,4.2,2.55,11.2-2.25,12.61Zm-491,71.19,1.34,8.28c-9.09,8.15-14.48-12.09-6.1-11.71.69,2,1.46,4,4.94,3.4Zm22.77,9.1c-9.25,2.69-15.74,1.55-17.91-5.59,10.27-4.32,15.07-10.22,18,5.12ZM2649,1447.87l-8.29,1.35-1.35-8.37,8.28-1.35Zm30.89,33.28c-18.28,5.07-17.15-19.52-3.37-20.75a15.53,15.53,0,0,1,3.48,20.27ZM1103.3,1732.72a31.61,31.61,0,0,1-27.68,13c-1.5-3-1.32-8.1-5.53-7.6-2.44-15,9.31-19.79,26.34-21.27.13,7.56,5.9,7.63,6.62,15.47Zm822.7-125,1.35,8.28c-9.19,8.17-14.48-12.08-6.2-11.69,0,2.1,1.17,4.38,4.6,3Zm-783.57,211.88c-2.1-31-25.43-59.84-18.22-86.41C1126.36,1764.44,1150.83,1791.35,1142.43,1819.58Zm1584.62-338c3,10.75-3.58,14.56-14.54,15.15-3-10.66-1.38-18,9.67-18.65C2723.14,1480.53,2723.53,1482.94,2727.05,1481.54ZM900.17,1820.61a9,9,0,0,1-1.27,10.8,8.68,8.68,0,0,1-10.68,1.74,9,9,0,0,1-4.61-9.85C895,1822.08,890.85,1815,900.17,1820.61Zm1861.09-259.45-8.28,1.34-1.36-8.37,8.28-1.34ZM1150.93,1843.79c-1.1-2.84-2.49-24.36,2.07-13.13C1159.3,1845.81,1154.15,1851.76,1150.93,1843.79Zm50.56,128c-11.34,6.14-16.94,18.38-29,4.71,4.52-9.87,10.92,3.62,11.8-6.12-3.83-37.12-25.39-76.48-21.68-107.14C1177.62,1894.47,1178.22,1965.74,1201.49,1971.74Zm764.39-221.92c-3.13-3.51-12.1-13.75,2.16-13.15C1968.12,1741.69,1970.62,1748,1965.88,1749.82ZM2801,1622.42c-4.64,6.33-14.51,8-17.22-1.41C2788.51,1615.31,2798.39,1613.71,2801,1622.42ZM1770,1828.13c-7.6-5.17-9.9-22.7,4.89-22.18a12.07,12.07,0,0,1-4.84,22.53Zm228.52,43.78c-2.83-6.76-19.84-35-5.39-33.21-2.56,14.67,16.85,23.86,5.45,33.57ZM1114,2062.24c5.1-21.48-25.48-30.31-17.7-56.71,37.17-10.23,43.19,47.09,17.76,57.07Zm92.67-32c-11.42,8.44-14.34-19.69-7.46-20.08,0,10.61,9,7.86,7.52,20.44Zm889.18-135.44-8.28,1.35-1.34-8.28,8.28-1.35Zm-867.08,166.31a11.56,11.56,0,0,1,6.26-13.81C1242,2052.35,1243.78,2062.29,1228.78,2061.07Zm656.53-47c-1.79-11-6.27-24,4.25-26.18C1899.85,1992.73,1908.37,2014.84,1885.31,2014.1Zm-596.66,101.13-8.28,1.34-1.36-8.37,8.28-1.34Zm244.43-14.17c-14.58,6.47-19.78-17.72-7.46-20.09.1,10.22,9.2,7.74,7.64,20.06Zm-308.34,41.54-8.28,1.34-1.35-8.28,8.28-1.34Zm844.13-124.2c5.79-2,5.92-8,11.1-10.39,5.22,7.92-7.56,20.41-10.93,10.36Zm-829.71,160.15c-.49,11.59-15.64-24.88-8.21-24.17,5.78,4.09,7.31,14.08,8.39,24.14Zm1231.51-204.07c-18.42,8.11-22.63-13.32-6.8-16C2466,1963.9,2471,1965.47,2470.67,1974.48ZM1538,2130.05c-2-5.43,0-16.62,2.84-9C1542.8,2126.62,1540.84,2137.63,1538,2130.05Zm952-141.7c-11.4-1.53-1-23.77,7-9.63C2498.34,1981.14,2492.07,1988.65,2489.92,1988.35Zm-316.69,68.4c-8.13,15.21-31.93-6.43-19.92-18.06C2153.61,2053.53,2166,2051.52,2173.23,2056.75Zm-995.6,161.57a11.56,11.56,0,0,1,6.27-13.72C1190.85,2209.69,1192.65,2219.63,1177.63,2218.32Zm-75.28,8-8.37,1.36-1.33-8.19,8.37-1.36ZM2274.8,2053.06c-3-10.75,7.17-12.13,14.54-15.16C2294.81,2050.81,2276.7,2045.62,2274.8,2053.06ZM1246.75,2224.19l-8.37,1.36c-.68-4.18-4.1-4.45-5.44-7.62,5.35-.86,4.83-6.26,11.79-6.2Zm250-36.36-8.28,1.34-1.35-8.28,8.28-1.34Zm-28.35,8.89-8.63,1.41c-.87-5.35-6.29-4.92-6.21-11.79l12.46-2Zm692.79-112.43c-7.79-1.29-15.3,14.91-20.74,3.37,2.49-.41,4.79-1.42,3.41-4.85-3.35-.37-8.19,1.33-8.94-2.75,16,2.24,17.33-6.93,25.83,4.3ZM2154.8,2098c-14.55,10.58-14.21,7.6-29,4.71-9.43-1.76-17.61,4.13-17.91-5.6,13.61-9.61,29.87-.64,46.49,1Zm-725.91,117.8c-3.2-3.41-12.09-13.66,2.09-13-.29,5,2.17,11.71-2.54,13.12Zm866.9-115.1c5.62,13.8-1.74,18.56-4.24,26.28a36.71,36.71,0,0,1-38.6-27.82c18.65-7.87,23-.08,42.39,1.61Zm119.11,2c-6.8,4.85-8.72,13.3-23.59,12.33C2366.31,2088.19,2412.52,2062.14,2414.9,2102.69ZM1508.54,2237l-8.37,1.36c-.86-5.25-6.18-4.84-6.11-11.71l12.47-2Zm25.63,25.63c-2.25-5.39-7.24-6.86-6.87-15.88l16.56-2.69C1546.69,2254.74,1545.07,2262.22,1534.17,2262.62Zm915.06-161.2a35.34,35.34,0,0,1,10.24,36.62c-34.77,18.26-47.68-39.32-10.77-36.54ZM1600.86,2251.8l-8.28,1.34c-5.59-5.12-6.09-9.33,2.17-13,.59,5.3,5.65,4.93,5.57,11.8Zm-178.74,24.8-8.28,1.35-1.34-8.28,8.28-1.35Zm1103.83-145c-3.13-3.51-12.1-13.75,2.16-13.14C2528.31,2123.58,2530.73,2130,2526,2131.55ZM1439,2333.44l-8.28,1.35-1.34-8.28,8.28-1.35Zm568.12-41.11-2-12.38,12.37-2C2019.76,2286.8,2016.26,2291.67,2007.14,2292.33Zm-9.77,18.67c-3-10.75,3.49-14.55,14.54-15.15C2017.71,2310.17,2006.45,2317.93,1997.37,2311Zm-115.78,99.66c-11.17-16.46-31.48-21.67-35.85-36.77a50.81,50.81,0,0,1,9.92-44.19c-.69.84,5.59-10,2.75-8.94,23.89-9.91,34.47,9.11,42,48.56-3.52,12.09-18,16.27-20.81,28.88,14.11,9.22,36.42,7.06,46.2,22.29,1.11,19.19-14.69,26.05-38.12,27.48C1891,2428.05,1887.59,2419.46,1881.59,2410.66Zm-464.34-1.31-8.28,1.34-1.34-8.28,8.28-1.34ZM1933,2334.24l-12.2,2-2-12.46,12.38-2Zm-112.89,65.11c-5.41,2.16-7,7.16-15.89,6.87a15.27,15.27,0,0,1-1.32-13.76,15,15,0,0,1,10.42-9C1813.59,2391.45,1819.41,2391.78,1820.09,2399.35Zm609.8-99c-4.18.68-4.34,4.18-7.6,5.53-.68-4.18-4.19-4.43-5.44-7.61,4.1-.67,4.35-4.18,7.61-5.53C2425.05,2297,2428.54,2297.13,2429.89,2300.38Zm-468.73,284.7c-9,8.13-15.29,18.38-35.37,18.53C1882.66,2566.47,1962.61,2507.81,1961.16,2585.08ZM1926.93,2663c-.47-13.63-7.72-21.69-5.39-33.21-.29,1.6,3.81-5.28,3.52-4.78,2.44-3.59.53-4.65,2.75-8.94,9.76-19.86,47.35-9.51,56.65,7.8,2.63,5,.88,20,1.19,33.8.8,32-5.89,55-24.37,59.33-9.85,2.33-19-4.14-35.89-11.17-7.92-13.88,1.9-28.82,1.36-42.8Zm135.2,101.06c-12.68,4.06-19.1-.56-19.34-13.86a12.15,12.15,0,1,1,19.68,14.26Zm12.17,49.1c3,10.75-3.49,14.55-14.54,15.16l-2.6-16a23.46,23.46,0,0,1,17.48,1.27Zm-20.53,135.29c3.15,19.41-17.51,22.76-20.84,3.38a16,16,0,0,1,21.17-3ZM1062.2,380.37c-.46,3.36,1.32,8.1-2.84,9,.38,2.31-2.62,5.27-4.18.68,6.39-13.56,1.83-12.36,9.1-22.77-3.56,5.14,16-1.86,6.92-9.71,13.71-2.23,17.86,9.25,20.69,22.22-7.1,10.84-22.39,6.74-29.35,1Zm-22.58,97.33c6.52,24.44-1.87,37.49,3.3,46.25,2.28,3.93-2.91,8-2.84,9,2.91,31.42-2.56,50.68-1,72.54.68,9.85,7.39,19.09,8.91,28.44,4.1,25.28-3.73,51.32,3.83,76-.25,6.9-6,1-5.53-7.6-1.45-8.9-2.32-17.08-4-24.93-3-13.77-12.85-28-15-40.06a60.69,60.69,0,0,0,7.61-5.53c.52-4.1-5.12-4.47-5.44-7.61a54.71,54.71,0,0,1,3.57-30.37,116.08,116.08,0,0,0,3-60.16c-3.08-13.39-20.32-26.68-24-42.89s-7.57-33.13,9.23-48.38A191.4,191.4,0,0,1,1040,478.1ZM878.29,529.83c-2.33-8.76-15.16-29.24-9.57-32.53C871.74,505.22,888.12,520.56,878.29,529.83ZM1977.41,1637.29c.59-2.57,6-5.55,7-9.73,2.57-11.75-3.2-29.82-3.3-46.25-.15-37.54,4.2-81.1-.94-110.51-4.81,1.32-8.15,8.9-12.38,2,.57-12.24,5.94-23.07,7-35.21a129.57,129.57,0,0,1,2.16-13.15c-.79-4.9-7.24-5.22-6.21-11.78.81-4.61,6.61-4.91,6.36-13.74-.41-11-5.7-22.19-5.39-33.21s5.64-21.57,7-35.22c2.12-30.86-3.26-70.2-3-97.38.13-12.72,5-25.48,2.89-34.55-3.68-22.71-18.69-33.52-24-43-12.92-23.31-11.42-70.34-14.13-87.08-1.36-8.37-7.73-13.27-7.56-20.07a95.86,95.86,0,0,1,4.34-26.2c22.2-32.11,1.55-75.45-5.13-109.92-1.8-11,.76-22.87-1.21-33.89-2.3-14.15-12.53-25.38-15-40.14s1.78-35.2.2-51.12c-.82-5.07-5.14-5.19-6.21-11.78s4.23-8.27,1.5-17.24S1901,743,1899.09,734.63c-.9-5.52,3.53-8.62,1.39-17.32-13-54-11.44-120.59-28.9-178.07-3.6-12-11.36-20.45-13.67-31.86a184.21,184.21,0,0,1,.15-25.52c-1.32-23.91-11.22-46.62-15.62-69.84-2.58-15.85,1.88-34-7.42-45.68,10.69-2.83,12.18,10.82,15.83,18.72,4.5,9.69,3.37,25.23,13,27.69a155.62,155.62,0,0,0-3.62,30.1c1.5,19.95,12.48,26.76,14.35,36,1.17,7.21-.67,18.39-.06,25.51,2.11,25.42,5,50.27,5.93,63,3.68,52,22.17,93.27,28.51,123.31,8.84,41.51,10.57,83.72,19.52,120.29.87,5.34,4.75,5.07,6.19,11.69,9.9,47.47,16.56,102,30.51,135.6.2,1.24,8.69,5.16,9.62,6.93,4.47,8.42,3.9,24,9.57,32.53,2,3.34,11.72,5.78,14.49,10.45,1.93,3.43.44,19.57,4,24.84.64,1.08,7.16-2.08,8.28-1.35,5.3,3.9.21,25.47.53,29.71,1.76,22.65,10.72,48.06,10.78,66.42a106.06,106.06,0,0,1-13.33,49c-1.36,2.87-1.83,6.79-2.84,9a225.79,225.79,0,0,0-17.63,75,423.07,423.07,0,0,0,4.51,80.14c2.19-2.82,18.1-12.9,20.74-3.36-21.74,5.08-26.67,22.6-22.29,46.2a31.67,31.67,0,0,1,30.37,3.57c6.65,20.67-23.65,14.71-25,29.55-12.58,27.81-5.67,77.68-2.56,115.46,1.69,21.11-2.92,42.79-1,72.45,1,14.73,1.86,43,3.32,46.34,6.51,15.39,26.2,16.77,33.73,24.32,3.94,4-.08,16.37,10.31,11.12,6.84-36.66-16.2-94.69,25.33-106.28,26,6.48,18.3,37.88,30.17,54.69,5.36,7.72,12.95,9.41,19.25,13.87,10.34,7.46,8.64,7.1,18.67,9.77,7.55,2.06,15,15.84,19.93,18-31.87.7-58.78-47.39-82.85-12.14-8.72-3.06-8.88-18.11-16.49-22.82-8.66,3-8.39,15.89-9.1,22.77a108.15,108.15,0,0,0,.61,29.69c5.42,13.65,62.51,47.34,71.75,47.94,17.43,1.56,33.78-13.16,49-12.16,13.1.8,22.71,11.57,28.29,16.7,22.52,20.47,44.78,43.91,42.5,78.27-37.38-.6-60.89-20.46-79.95-46.7-15.49,4.8-15.84-4.1-22.76-9-9.64-7-16.84-12.53-24.13-17.47-5.23-3.54-14.17-2.91-17.9-5.6-7.63-5.34-12.26-15.83-20.59-22.15a51.55,51.55,0,0,0-27.63-12.6c-2.59,33.59,4,68.7,3.7,101.65a426.38,426.38,0,0,1-19.81,113.88c6.08,21.68,37.83,30.41,26.68,59.64-31.56.37-9.6-42.22-30.17-54.69-20.41,26.8-31.84,60-63.85,78.44-2.77,20.1-14.39,23.91-28.5,34.42-6.33,4.86-5.84,14.65-19.38,11.73-24.63-28.44,8.27-21.08,16.7-28.29-.88.78,3.27-9.67,2.84-9,1.39-3.24.81-6.26,2.75-9,28.48-2.43,29.91-10,42.88-24,3.21-3.36,8-6.79,11.12-10.31,9.28-9.27,10.4-18.13,16.7-28.3,10-15.86,24.28-35.64,21-54.49-34.31-3.11-66.42-9.51-107.09-3.91-11,28.75-23,59.75-36.31,91.06-20.32,47.61-36.43,101.49-86.89,120.56-3.29,40.56,34.71,32,43.32,56.93,13.17,38.35-27.75,54.22-26.68,98,1.94-11.19-6.34-8.11-10.3-11.12-1.74-1.18.09-6.78-1.34-8.28a56.84,56.84,0,0,0-41.44-18.86c7.89,37.92,27.33,55.78,34.89,83.8a15.7,15.7,0,0,1,19.34,13.85c-4.92,6.29.59,20-4.33,26.29,9.84-14.84,28.62,7.42,20,18.05-11.62,4.44-13.09-11.4-15.17-14.63-.82-1.15-7.73-1.49-8.94-2.75s-.14-6.47-1.36-8.37-7.75-1.58-9-2.74c-12.62-11.93-9-16.81-8.8-28.36.4-24.56-10.16-27.69-19.2-39.47-6.34-8.11-10.08-15.91-16.51-22.91-16.33-17.82-42.37-30.22-50.23-47.13-14-30.16-9.9-72.78-21.61-107.25-1.89-5.45-8.29-7.15-10.31-11.12-6.69-12.53-6.19-33.08-11.58-44.91-2.85-6.3-12.46-9.76-15.15-14.53a125.46,125.46,0,0,1-8.14-24.27c-8.59-31.5-12.21-44.81-27.33-63.64-1.73,31-17.75,52.77-12.14,82.84,1.86,11.49,12.74,26.72,19.2,39.47s8.85,21.86,13.65,31.78c.26,1.6,8.66,4.9,9.64,7,8,17,8.37,34.65,16.36,48.43,3.18,5.51,11.57,6,11,15.22,14.48-3.09,15.89,11.76,27.61,12.51l6.74,41.49c-3.89,7-14.62,9-18.72,15.83,13.77,25.18,21.66,51.32,32.86,71.34a69,69,0,0,0,6.11,11.71c2.58,3,8.32,3.95,9.64,7-.16-1-3.69,5.45-2.75,8.95,3.05,11.48,13.78,24.72,18.51,35.28,7.61,17,11.88,36,21.23,51.94,3.93,6.76,10.43,8,15.06,14.55a103.69,103.69,0,0,1,11.74,19.39s-4.79,1.5-3.51,4.86c5,13.44,15.41,31.31,19.2,39.47,42,3.51,51,60.35,19.72,69.17-19.85,5.51-39.81-13.37-44-35.44-3.15-16,17.66-30.28,5-47.68-58,18.56-43.49-32.6-52.92-63.69-2.84-9.6-11.33-13.52-16.43-22.93-5.55-11.16-4.71-25.09-10.25-36.71-4.7-9.84-15.89-16.25-21.27-26.34-3.91-7.22-4.78-16.5-8.22-24.16-19.06-42.6-37.5-76.8-56.84-114.33-13.14-24.64-25.12-45-36.36-66.38-3-5.81-7.74-10-11-15.3s1.86-21.78-11-15.22c-1.81,27.71-1.14,71.83-5.93,94.63-1.7,8.13,2.39,22.09-9.1,22.77-5.39-10.09,3.13-20.71,3.57-30.37s-5.21-19.17-4.71-29c.94-18.43,13.23-36.69,12-57.32a59.33,59.33,0,0,0-10.15-36.64c-6.59,1.07-1.59,11-11.12,10.3-11.35-6.29-12.11-27.28-26.14-29.84-33.72,17.44-48.38-4.21-51.07-25.8-1.43-12.2,16.25-25.48,18.2-45.54,2.5-25.17-4.44-35.83-12.93-53.19-12.57,35.13-33.47,66.85-37.94,104-1.32,9.35,3.89,24,1.2,33.89-.31,1.42-5.79,7.07-6.93,9.63-10.08,22.92-14.11,36.37-30.58,47.54-4.12,2.77-7.76,8.48-11.12,10.3-37.42,20.52-70-8.18-79.26-42.42a108.75,108.75,0,0,1,5.79-69.11,30,30,0,0,1,14.62-15.16c1.16-.74,1.41-7.63,2.75-9,12.18-11.66,38.49-8.9,52.62-17,19.37-11.27,64.49-81.19,61.82-90.9a61.91,61.91,0,0,1-9.64-7c-6.61-8.06-9.65-16.71-23.43-13.19.1,13.6-12.24,24.83-18.77,41.43-4.87,12.21-4.15,18.94-8.44,26.86-7,12.84-31.35,43.83-43,49.57-9.32,4.53-28.45,15.58-38,1.87,15.37,5.73,19.62-4.1,28.36-8.81,21-11.36,23.86-9.54,29.85-26.13a505.37,505.37,0,0,0,21-80.08c7.17-8.2,17.52-14.27,16.72-28.21-9.56-8.77-8-33-12.19-49.19,4-6.78,15.66-8.21,13.87-19.25-14-6.87-11.95-23-18.52-35.29-9.76-18.51-20.87-35.17-30.18-54.77-6.63-13.82-12.3-30.17-19.86-43.56A109.1,109.1,0,0,0,1313.5,1609c-7.37-15-7.9-33.44-16.36-48.42-13.67-.34-11.57,9.82-20.75,3.36-4.83-18,5.21-19.12,9-22.75-12-13.22-14.09-30.52-20.47-47.85-2.15-5.41-8.13-9-11-15.2-7.51-16.42-15-39.6-20.46-47.77a259.91,259.91,0,0,1-30.86-59c-11.85-30.24-26.67-56.25-39.06-83-10.86-23.55-18.38-49.65-28.68-72-4.38-9.53-25.19-25.7-15-40.15,29.54,69.41,62,134.23,92.4,202.22,11.77-8,18.31-4.89,29.69-.62,9.64,11.51,0,22.2-.14,25.61-.2,7.17,18.06,7.67,6.2,11.7,1.85-7.15-20.67-3.5-16.56,2.69a27.1,27.1,0,0,1,7.46,20.08c11.51-4,2.45-22.6,22.24-20.61,8.83,9.35-3.71,17.14,11,15.22,8.71-2.6-8-10.22,6.26-13.81,4.84,15.75-7.82,18.82-7.74,31.14-13.44,9.58-23.64-10.51-25.52-.15a371.09,371.09,0,0,1,39,83c29.27.19,35.41,32.36,61.37,36.92-5.62-13.8,3.55-16.93-.53-29.7,12.64-2.06,20.48-7.26,22.82-16.5a112.75,112.75,0,0,1-21.22-51.93l-12.38,2c-1-6.32,5.63-11.51,5.6-17.9-.06-22.29-10.08-29.43-15.7-44.33-14.31-37.52-27.4-84.38-47.28-107.2l-16.56,2.69c-6.77,7.22,3.8,26.8-2.9,34.47-17,3.94-17.09-2.8-29,4.71-8-14.51,3.58-15.11,5.59-17.91.83-1.14-8.78-19.77,4.25-26.18s13.36,5.14,25.6.05c13.66-42.52-27.09-75.11-36.17-117.59l-4-24.93c8.8-2.07,4.36,14.46,7.55,20.07,12,24.09,24.48,49.48,32.19,67.15,4.06,9.21,4.72,21.16,8.82,28.45s12,10.93,15.84,18.72c3.24,6.51,4.34,13.83,7.53,20,7.27,14.35,19,45,26,55.45a460.4,460.4,0,0,1,35.69,62.29c4.59,9.67,4.22,23.16,8.81,28.36,2.77,3,7.06-2.7,9,2.84,1.47,4-1.82,16.38-.73,21.41a236.32,236.32,0,0,0,15.68,44.24c19.94,1.24,34.39-13.35,45.67-7.41a22.81,22.81,0,0,1-8.89-28.35c-9-6-15.8-15.71-24.79-21.56,1.62-17.63,12.94-29.51,4.39-51.79-5-13-35.9-22.42-44.8-39.52-7.22-14.09-2.73-33.74-7.4-45.59-7.87-20.38-19.76-20.46-30.91-33.36-.58-20.47-10.27-28.4-6.73-41.49-22.9-2-11.39-24.56-15-40.15-2.92-12.32-18.12-18.17-13.66-31.78-7.3-9.51-35.87-7.61-29-20.88a63.31,63.31,0,0,1,38.6,27.82c5.92,12.84,4.94,30.45,11.49,44.92,2.66,6.24,12.66,12.11,15.83,18.72s.44,15.65,4.05,24.93c6.38,16.24,25.36,38,30.16,54.69,3.72,12.74,1.79,29,6.06,37.3,12.37,23.86,46.82,33.44,51.6,55.6,2.52,11.56-6.11,24.29-2.89,34.55,12.62,5.08,15.32,20.08,28.89,20.9,4.33.21,18.68-12.17,32.53-9.58-7-5.08-5.34-12.65,6.26-13.8,8.47,16.17,12.24,5.59,27,8.41,7.84,1.57,9,9.24,17.91,5.6,13.29-16,35.16-26,48.56-42-7.14-21,12.91-22.38,15.37-36.49,10.64,9.24,14.49,17.76,28.88,20.81,24.68,5.13,54-14.24,74.7-12.12,15.12-19.45,40.53-31.8,74.76-37.63,10.33-8.44,16.41-19.93,29.85-26.14,4.18,7.73,23-4.82,26.27,4.24-11.91-5.29-13,8-19.4,11.65-4.61,2.57-12,.12-16.65,2.7s-3,8.26-6.94,9.62c0,0-7.21-5-13.13-2.07s-11.24,11.79-18.73,15.74c-4.7,2.59-11.82.37-16.57,2.69-1.51.79-4.9,8.65-6.92,9.71-12.48,6.42-27.19,9.81-40.14,15-1.43.23-9.12,9.7-11.13,10.3-5.74,1.76-17.22-4.24-20.74,3.37,10,5,11.06,22,21.36,26.32l16.56-2.69c11,15.12,26.43,24.32,53.82,16.86,9.46,7.6-7.35,14.44-4.92,22.09.25,1.51,12.11,4.79,13.81,6.25,6.24,5.75,6.53,12.65,11,15.22a53.84,53.84,0,0,0,35.15,7.09,23.62,23.62,0,0,1,1.49-17.24c-11.73-9.79-25.41,12.35-38,1.87-12.21-30.73,22.95-27.48,26.38-46.87,3.6-11.64,6.89-13.91.16-25.52,20-6.35,6.53-36.88,41.63-32.34a64.41,64.41,0,0,1,9.42,58c-7.52,17.85-29.08,17.88-37.45,31.67a175.39,175.39,0,0,1,3.9,50.45,112.53,112.53,0,0,1,31,33.26c8.65,12.76,26.07,21,27.48,38.12,10,5.5,12.15,9.54,18.58,9.78-11.62,10,9.39,16.75,8.81,28.36,5-1.27,3.56,5.63,0,0a30.29,30.29,0,0,0-33.22-16.08c18.78-3-3.82-12.27.15-25.52-5.34.86-4.85,6.17-11.8,6.11,4.19-15.84-16.31-32.9-23.29-38.8s-14.4-25.08-24.78-21.47c5.89,18.87-2.25,27.78-1.56,42.74,6.34,1.35,20.68-8.29,21.42.82a20.66,20.66,0,0,0-5,22.1c8.13,6.18,13.3-5.9,29.11-4.72-3.35,18.18,8.53,39.56,4.58,54.63-.34,1.34-6.86,4-7.62,5.44-2.36,4.59.82,9-2.16,13.15-1.21,1.56-6.63.25-8.28,1.34-9,6.21-1.57,10-15.88,6.87-12.14-2.69-8.91,1.45-16.65,2.71a68.92,68.92,0,0,0-13.06-2.18c-17.08-1.07-34.33-22.94-53.23-12.65-2.21,25.76-5.43,8.19,4,24.93a156.5,156.5,0,0,0-13.19,23.43c-3.71,10.93-7.23,18.53.61,29.69a91.7,91.7,0,0,1,23.5-12.31c19,31.09,67.44,21.4,102.84,30.09a121.23,121.23,0,0,1,64.31-23.23c10.77,10,11.3,34.72,30.91,33.37a59.73,59.73,0,0,1,28.5-34.42,254.88,254.88,0,0,0,6.54-65c-11.07-11.91-27-16.92-49-13.34,1.19,11.87,8.17,27.83-3.57,30.37-8-7.83-13-19.27-28.3-16.7-16.17,9-11.72,33.07-17.44,49.62-11.62,1.06-40.33,21.81-46.34,3.32-.13-18.26,13-11.25,22.22-20.7,16.79-17.07,25.82-49.24,45.88-58.53,14-6.39,29.55,1.88,44.92-11.49-2.45-15.14-26.6-16.42-17.85-31.19,16.28-5.56,24.42.15,38.07-1.88a27.08,27.08,0,0,0,7.47,20.08c0,9.77-15.67,8.21-18.74,15.74C1979.07,1658.76,1974.57,1650.17,1977.41,1637.29Zm61.21,62.43c-14.54-.1-21.48-10.76-39.33-6.41-6.3,24.79,1.47,59.71-3.09,85.67,17.46,2.84,25.22,19.12,45.52,18.11C2036.31,1761.51,2043.31,1734.79,2038.62,1699.72Zm-494.39-213.55c9.58-11.88,21.41,4.11,34.46,2.9-16.37,6.13-46.79-6.75-63,5.93-2.13,8.3-2.7,17.71-9.09,22.86-14.33-2.15-18.14-18.89-26.13-29.84-23.58.54-36-3.3-39.48,19.11l29.2-4.74a42.35,42.35,0,0,1,16.51,22.91c19.08-1.82,39.16,22.79,53.66,42.37,19.81-9.7,25.55-36.31,33.42-56.51,2.07-5.27,8.68-9,10.44-14.48,3.83-11.87,8.4-36.09.2-51.12A51.28,51.28,0,0,0,1544.23,1486.17Zm164.32,15.91c-1,11.6,10.21,6.57,14.49,10.45,4.1,16.24,13.24,25.26,19.2,39.46,11.49-9.72,19.2.63,28.35-8.89,3.6,4.72,5.53,34.1,22.61,34.62a38.14,38.14,0,0,1,3.57-30.37c-15.54-14.66-15.53-23.07-39.17-31.93-6.11-1.57-12.07-3.44-18-5.58C1732.07,1505.67,1728.4,1493.2,1708.55,1502.08Zm-401,73.58c29.51,54,58.4,108.68,86.33,164.83,12.13-17,2-28.38-7.41-45.68s-17.61-35.89-24.64-47.08a11.32,11.32,0,0,1,6.27-13.72c-3.91-6.68-10-1.13-7.61,5.44-15.07-6.7-22.71-22.82-24.73-47.07,7.24,9.15,8.7,1.23,13.81,6.25,15.2-7.12-18.26-13.94-13.81-6.25C1326.42,1586.67,1320.61,1576.19,1307.54,1575.66Zm51,25.81a19.82,19.82,0,0,1-11.8,6.12c3.07,7.64,13.16,5.64,11.73,19.39C1367.6,1617.45,1352.27,1613.09,1358.52,1601.47Zm391,179.18c-10.86,9.71,6.73,14.44,6.88,16,.72,8.38-9.4,6.27-5.59,17.9-5.32,7.17-26.71,4.34-32.53,9.58-3.79,8.74,8.9,5.31,9.62,6.93-.24-1.51,4.63,28.49,4.71,29a28.19,28.19,0,0,1-4.91,22.09,110.17,110.17,0,0,1,41.13,69.9c19.48-5,35.62-5.78,48.43-16.36,8-6.79,12.93-33,23.06-42,5.26-4.78,20-4.16,24.18-8.13.86-.87-2.36-7.75-1.36-8.37,8.41-4.47,12.15,3.33,17.33,1.49,3.62-1.32,2.38-9,11-10.29,11.49-1.87,30.5,4.92,47.7,5.05a194.75,194.75,0,0,0,24.84-4c21.55,2.17,35.33,17.2,69.11,5.78,2.54-18.69,7-36.5,3-60.06-7.11,17.6-23.77,2.76-33.13,5.37-10.92,3.06-15.14,19.28-27.68,13-12.77,4.08-12.86-9.43-22.86-9.09l-4.71-29c-23.15-3-44.11,5.24-67.67,2.48-10.53-1.22-16.46-7.93-26.87-8.43-20.52-.88-32.94,4.79-51.11-.21-2.19-.55-8.14-6.81-9.71-6.92-10.85-1.53-23.23,3.31-31-7.75A19.91,19.91,0,0,1,1749.47,1780.65Zm-166.63,99.41c-16.38.47-19,10.76-36.63,10.24-3.78,20.63,7.1,28.55,12.17,49.11,19.45-11.38,17.65-38.23,24.19-59.31Zm63-5.93c-30.58,7.52-32.29,33.57-9.15,48.36,5.52,18.21,3.22,38.41,13.52,57.39,3.37,6.13,12.5,7.75,15.15,14.54,9.52,24.86,10.15,48.43,20.41,73.36a202.23,202.23,0,0,0,29.5,50.59,209.86,209.86,0,0,0,26.8,33.94c2.72,2.66,7.14,15.29,14.47,10.35a352.5,352.5,0,0,1,12.08-56.79c-16.5-5.91-23.2-6.65-37.92-23.64a73.39,73.39,0,0,1-16.36-48.42c-.41-11-1.18-25.86,7.75-31-32.8-18-49-59.94-51.4-106.71-1.82-13.5-25.9,5.39-25.25-22.13Zm-51.93,21.22c-9.48,24.93-23.32,46.65-16.24,83.51,15-.25,11.19-18.35,16-32.39,4.23-12.2,14.15-25.42,11.26-35.91.5,3.11-17.18-2.79-11.59-15.12Zm-54.69,30.17c-22.7,13.28,3.91,35.92,8.75,53.87,15.57-9.93-9.07-33.9-9.1-53.81Zm-7.09,35.14c-17.54,10.16,5.32,26.56,10.26,36.72,14.89-6.8-8.06-23.18-10.61-36.66Zm33.74,24.32a18.72,18.72,0,0,0-5.58,18l12.47-2c-9.12-7.2,1.44-8.55-7.24-15.91Zm-6.31,39.4c-4.65-11.21-3.35,10.32-2.16,13.15,3,8.11,7.93,2.09,2.07-13.13Zm30.37,3.57c-14,8.13-4,18.92.53,29.71,2.83,6.76,13.75,17.14,16.51,22.91,4.57,9.58,4.66,23.09,9.57,32.53,1,2,8.83,5.42,9.63,6.93,4.12,8.47,5.44,20.59,13,27.69.74,15.23,8.49,4.47,3.51-4.87-22.3-43.35-38.32-67.16-53.09-114.84Zm-9.09,22.77c-11.37,22.32,11.82,51.45,25.25,76.78s28.93,49.31,41.83,74.17,23.79,53.16,38.29,78.86c7,12.39,16.5,22.27,22.72,34.7s8.61,27.75,15,40.14c3.77,7.43,12.06,14.59,16.41,22.84,5.43,9.81,8.67,18,13.09,27.75,4.59-17.37-13.31-31.37-20.55-47.84-8-18.08-9.77-38.8-17.7-56.7-1-2.13-8.94-5.5-9.63-6.94-3.7-7.62-9-19.2-13-27.68-14.49-30.18-19-52.39-44.65-65.13a151.1,151.1,0,0,0-11.6-45c1.18,2.19-7.69-12.46-6.12-11.8,0,0-7,6.72-7.6,5.53s3.1-11.28,1.41-17.22c0,0-4.74-8.37-6.12-11.8-3.76-8.53-11.32-13.43-16.51-22.91a375.79,375.79,0,0,1-20.9-47.69ZM899.25,581.81c.32-12.66-16.51-27.39-9.49-32.55C893,557.15,909.33,572.41,899.25,581.81Zm-31.1,17.84c-7.85.63-4.87-13.65-11-15.31C868.9,576.68,873.78,614.64,868.15,599.65Zm78.28,115.23c-2.37,6.78-1.09,1.18-4.85-3.42-5.16-6.47-19.27-23-8.81-28.36,1.22,14.79,10.86,18.44,13.62,31.51Zm70,116.57c-45.72-.16-35.5-68.44-50-98.33-9.1,5.31-7-27.84-2-12.38,9.12,47.77,50.24,51.7,52,110.27ZM955,820.13c-.62-7.76-15.31-32.42-4-24.84-2.89,10.88,15.78,17.27,4,24.39Zm45.76,98.39c-4.12-8.47-20.1-25.89-10.24-36.62C989.41,897.52,1007.52,912.22,1000.77,918.52Zm28.35-8.89c.17-8-14.52-28.63-3.35-20.66-1.28,7.88,15,15.38,3.38,20.84Zm102.26,55.78c-2.24,2.55,5,4.57,4.86,3.5a117.92,117.92,0,0,0,4,24.84c2.59,5.8,11,5.8,14.4,10.46,8,10.75,6.94,25.28,17.86,31.19,6.59-1.07,1.57-11.13,11.12-10.31,7.15,8.62,18.87,11,17.84,31.1-9.44,8.84-15.28-2.36-20.07,7.55,3.78,12,21.31,31.09,15,40.15-10.54-12.55-12.51-29.77-19.88-43.65-.16-1-7.93-1.55-9-2.75-8.61-10.3-3.58-22.09-9.57-32.54-3.32-6.4-11.31-8.3-15.06-14.55-8.12-13.39-9-30.9-15.79-44.32-3.79-7.6-8.74-7.17-11-15.21a75.2,75.2,0,0,1-2.55-42.17c-3.56,14.65,29.57,44.27,18.08,56.83Zm-65.13,44.65c22.47,12.89,32.49,43.07,41.83,74.18,23.68,8.49,45.25,44.56,38.38,78.84-27.69,7.88-24.26-27.31-46.88-26.47,3.42,9.22,19.36,26.92,10.15,36.64-19.91-46.67-36.59-98.24-64.36-134.21-.42-2.59-1.43-4.89-4.78-3.52,1.53-32.24-20-63.93-32.14-92.75,11.89-6.68,9,11.06,11.07,15.29,2.94,6.29,8.77,12.93,11.65,19.4,12.87,28.62,16.1,54.14,35.61,62.3a18.73,18.73,0,0,0-5.58,18c12.34-6.76,10.63-3.74,21.41.73,1.51,4.78,1.19,11.87,6.21,11.78,6.87,14.79-14.51,9.12-9.1,22.77,11.77,7.23,5,40.4,26.8,33.94-10.34-31-1.63-66.35-23.76-94a27.13,27.13,0,0,1-21.42-.82c-1.81-10-3.59-19.89,5.39-22Zm-4-24.84c-2.7-9.34-21.51-40.74-10.25-36.72,1.09,12.35,22,40.39,10.72,36.82ZM518.68,1098.93c8.31,9,28.93,27.37,23.29,38.8-10.68-2.75-11.43-18.07-16.4-22.83-12.09-11.39-32.54-13-42.79-27.15A40.59,40.59,0,0,1,494,1051.86c11.86,15.07,31,22,25.2,47.17Zm57,88.71c6.79,14.25,9.27,30.66,19.86,43.56,8.09,9.84,26,14.07,33.74,24.32,9.11,11.68,8.61,26,15,40.14,1,2.22,8.48,7.77,10.31,11.13,3,5.63,5.18,12.22,6.87,15.88,14,29.72,25.46,68.51,36.23,92.08,17.33,38,29.81,100.89,50.57,128,5.2,12.32-13.51,7.4-4.91,22.09,14.72,29.32,67.86,44.82,39.65,87.23-74,10.64-37.24-91.55-74.83-119.9-4.6-14.79,15.23-21.57,3.66-30.39-14.68-83.69-72.25-125.34-98.73-188.3-4.5-10.79-11.55-26.09-14.34-36-4.35-15.56-2.55-33.77-8.08-49.77-1.42-4.25-7.85-9.51-11-15.31-12.76-22.33-21.53-43.11-22.58-60.3,6.06,11.44,13.38,23.87,19,35.56Zm295.88-39.52c-8,2.58-9.2-4.27-13.81-6.26.4,2.5.17,5-3.52,4.78l-1.35-8.28c-.4-2.5-.08-5,3.52-4.78,1,11.17,17.11.7,15.63,14.65ZM1207.86,1332c5.57,11.8,22.24,19.33,13.76,31.85-13-29.5-38.52-68.4-41.08-95.49,14,15.82,18.39,43.52,27.8,63.75Zm-136.11,260.41c6.59-1.07,14.34-2.87,13.81,6.26,2.57,8-4.18,9.18-6.26,13.81,11.64,5.88,4.27,38.14,22.7,34.6-3.42,24.5,22,47.43,13.47,83-9.78-18.61-10.91-49.22-30.25-54.67-4.09-12.78,11.28-11.52,4.32-26.29-2.61-11.55-20.59-1.87-20-18,4.78-1.5,12-1.21,11.78-6.21-18.84-64.29-59.16-127.47-60-186.09C1034.83,1494.36,1056.94,1538.84,1071.75,1592.36Zm1334.33-280.51c-3.56-13.5-10.19,18.28-16.56,2.69,9.23-5.07-13.13-8.29-8.22-24.17,8.2-1.33,3.42-12.16,15.21-11,1.65,4.57,5.68,5.75,9.64,7,3.39,9.69-6,10.12-.75,21.32,2,0,5,3.48.32,4.25ZM1219.47,1555.5c-3-.42.07-9.14-5.53-7.6-22.32,4.91-31.1,15-55.35,26.07,7.73,16.11-5.59,10-10.46,14.4-2,1.79.48,10.8-2.07,13.13s-9.1.2-12.46,2-3.36,12-6.26,13.81c-5.07,3.1-10.16-2.92-13.14-2.17-8.78,2.25-10.46,18.33-19.39,11.74-5.47-10.63,7.5-6.15,11.11-10.39,5.69-6.59,3.07-17.68,9-22.76,4.44-3.64,16.91.55,16-6.79-10.67,4.65-9.46-7.61-14.49-10.45,8.71-12.19,14.46,5.79,22.77,9.1,5.29-16.94,38.94-13.45,41.63-32.34,11.72-4.92,29-5.9,31.1-17.84-7.84-2.66-11-11.47-12.31-23.5,11.51-15.76,30.75-19.43,42.15-2.64,9.7,14.7-8.08,27.91.53,29.71,7.69-8.93,12.8-14,13.82,6.34-14.34-2.24-33.86,11-36.94,10.57ZM992.39,1732.9c-15.21-11-24.78-30-37.1-45.06-6.21,2.84-1.36,13.56-15.22,11a27.13,27.13,0,0,1-7.55-20.07c6.12-1.72,15.56-1,16-6.88-10.35-17.06-21.73-48.29-6-63,9.48,12.26,24.1,17.29,37.92,23.63a83.41,83.41,0,0,0-3.23-46.35,28.46,28.46,0,0,0,11-10.29c14.71,0,23.06,8.68,32.48,16,3.45-9.7,25.68-2.25,23.43,13.19-16.27,8.4-20.74-3.39-26.27-4.23-11.32-1.64-22.05,6-30.37-3.57-10.94,44.63,36.54,107.47,5,135.9Zm909.11-117.38c-9,5.12-13-19.56-5.44-7.62C1899,1611.18,1911.46,1624,1901.5,1615.52Zm347.27,67.1c-37.61,9.3-63.77,1.21-96.13,11.3-1.94-7.45,3.54-9.71,6.27-13.72,5-7.2,15.5,3.7,24.25-8.23.83,17.5,21.2,7.89,31.72,11.85a19.68,19.68,0,0,1,2.17-13c36.42-10.39,61.25-29.13,100.36-37.58,3.07,7.63,13.06,5.56,11.65,19.4-25.08,3.16-37.41,20.05-72.69,24.5-3.28,6.29-1.41,16.13-9.77,18.67A19.94,19.94,0,0,1,2248.77,1682.62Zm-111,47.81c-2.65-2.22-18.85-9.74-6.78-15.9-.18,5.7,15.94,13.22,6.28,15.61Zm119.44,82.78c.61-14.26-10-5.23-13.13-2.07-.36-12.92-14.29-19.34.15-25.52C2248.7,1791.46,2265.83,1805.77,2257.17,1813.21Zm44.53,167.4c2.85-2.66,5.41-3.25,7.6-5.53s.76-4.32,7.6-5.52c-4.1.66,21.72,4.88,22.1,5,7,3.07,40,36.63,39.95,36.1,5,24.59-13.91,37.62-47.91,46.06-16.86-3.66-20.6-25.62-38.6-27.82-7.18-16.65,4.34-29.58-6.05-37.31C2299,1993.66,2294.88,1986.47,2301.7,1980.61Zm-15.46,36.5c-6.25.38-15,4-17.23-1.4,3-1.5,8.19-1.33,7.6-5.53-2.31.37-5.16-2.54-.66-4.1,1.23,6.47,10.82,1.35,10,11.08Zm-87.95,61.16s1.37,5.07,4.85,3.41c2-1,9.53-15.07,11.71-6.1-9.68,9.06,8.43,16.45,9,2.75a20.57,20.57,0,0,1,4,24.93c-17.5,4.76-19.13-5.3-22.68-9.11-7.46,10.35-29.88-2.28-46.35,3.23-.66-11.41,13.66-12.09,13.3-23.36,1.41,17.13,5.58-1.64,17.22,1.41,6.64,26.24,7.76,3.31,8.69,2.88Zm-88.9,31.05c-11.6,1.16-13.2,8.73-6.26,13.81-29-9.46-44.45,27.87-64.39,23.25,15.37-13.92,37.45-18.69,49.91-33.69,0,0-5.69-.72-.68-4.18-1.39,1,10.19,6.48,8.28-1.35-2.32.38-5.26-2.53-.67-4.09C2096.84,2110.26,2107.5,2103.87,2109.39,2109.32Zm-119.81,74.83c10.54-6.56,37.77-42.05,47.75-20.55-19.78-8.67-32.4,27.83-47.69,20.9Zm-1174-1750.6c17.69-.22,12.45,20.46,18.52,35.28s27,31.54,15.69,44.33A30.84,30.84,0,0,0,839.51,502c1.16,29.06,24.48,54,17,78.21-10-45.44-42.35-87-38.87-134.24,4.56,10.68,6,25.62,13.67,31.87C831.23,456.05,818.15,452.05,815.61,433.55Zm406.73,1509a174.13,174.13,0,0,1,20.59,22.15c6.37,6,50.78-4.13,40,10.6-21.19-12.92-68.73,11.15-79.32-16.92C1206.43,1950.93,1215.19,1947.49,1222.34,1942.59ZM1070,30a113.91,113.91,0,0,1,29.55,25c13.13,16.7,29.58,40.9,38.47,53.43,3.89,5.4,3,10.66,6.87,15.89,9.74,13.31,25.28,24,35.76,36.78,3.08,3.79,3.58,8.55,6.21,11.78,8.89,10.89,16.27,19.75,26.12,29.76,5.8,5.91,13.46,8,19.26,14s10.37,16.59,16.5,22.82c2.55,2.78,6.67,3.39,9.62,6.93a171.89,171.89,0,0,0,15.85,18.82,629.87,629.87,0,0,1,46,47.81c11,11.46,31.17,23.09,28.16,42.31-37.67-36.75-83.65-90.88-126.61-124.2-3.67-2.88-2.78-8.69-6.12-11.8-1.74-1.73-7.12-1-9-2.84-3.24-3-3.57-9-6.21-11.79-10-10.08-20.71-18.94-30.3-29.08-4.86-5.15-9.41-9-15.08-14.64A375.46,375.46,0,0,1,1128.28,127c-1.73-2.19-7.5-4.54-9.54-7s-3-8.65-6.2-11.79c-15.14-13.9-38.69-17.11-48.23-34.76a83.5,83.5,0,0,1-6-37.3C1063.05,35.36,1063.12,30.14,1070,30Zm376.08,428.77c-24.93,7.43-30.53-11.86-35.08-32.6C1426,413.89,1445.12,435.19,1446.12,458.79Zm39.27,31.92c-10.75,3-14.55-3.49-15.16-14.54C1481.34,473.09,1484.78,479.66,1485.39,490.71Zm26.82,34.11-8.28,1.35-1.35-8.37,8.28-1.35Zm204.42,26.41c1.09,11.79-4.42,19-18.06,19.93.07-10.25-9-7.68-7.55-20.07,15.27-7.23,17.15,12.21,25.59,0ZM1732.37,570c2.29-2.75,9.82-18.87,16-6.89-5.64.18-9.82,18.87-16,6.8Zm37.72,74.75a15.81,15.81,0,0,1-19.25-13.87c-2.9-9.4,11.18-6.57,10.35-14.48-13.73-1.24-10.24-26.48-28.89-20.9-13.4.17-8.62,16.12-20.06,7.56a23.65,23.65,0,0,0-6.87-15.89c46.4-17.58,79,22.64,64.7,57.49Zm-19-90.58c1.21-11.71-19.11,6.11-17.9-5.6,11.21,3.76,15.2-15,20.74-3.36-7.6,2.14,3.41,6.39-2.85,8.87ZM1531.66,670.53c18.95-4.27,24.65,10,33.07,20.22,0,9.77-17.16,6.9-13.87,19.25,8,35.25,53.57,43.48,50.86,76.91,32.16,5,40.52,68.36,76.45,51.56.73,9,5.52,12.63,14.48,10.44a31.62,31.62,0,0,0,20.8-29,105.4,105.4,0,0,0-42.17,2.55c1.42-13.76-8.57-11.68-11.63-19.31,7.68-15.69,34.08-15.22,38.65,2.22a60,60,0,0,1,17.37-24.11c8,11,23.76,11.22,29.65,25,6.32,1.26,20.67-8.29,21.41.73-4.58,1.66-5.75,5.68-6.93,9.71,17.32-5.91,18.8,11.12,21.27,26.34-6.84,2.85-11.68-4.41-12.46,2,19.25,6-1.65,24.76,7.41,45.68-6.87,7.24-20.56,9.55-22.15,20.59,34.76,34,55.46,157-17.88,126.36a211.78,211.78,0,0,1-44-35.44,184.47,184.47,0,0,1-37.77-49.15c-3-6.65-1.16-16.17-4-24.93-3.67-10.83-11.53-19.24-13-27.69-1.91-11.75,1.85-24.06-1.29-33.87-3.95-12.52-16.32-24-22.63-34.71s-9.15-22.55-13.66-31.78c-.79-1.51-8.48-4.93-9.73-7-2.45-4.44-.7-11.67-2.68-16.56-9.07-22.65-33-44-47.43-56.27a210.81,210.81,0,0,1-24.12-17.47c-2.81-3.2-3.16-13.83-7.45-20-2.51-3.61-12.57-7.1-14.49-10.44-2.81-4.39-.05-12.15-2.69-16.56-8.3-14-23.83-23.55-19.19-39.47C1508.55,591.76,1520.42,642.93,1531.66,670.53Z"/></g></g></g></g></svg>