<svg xmlns="http://www.w3.org/2000/svg" viewBox="0 0 136.85 136.85"><title>4e942573-bf0a-45a1-b2de-29d011c1890dmdpi</title><g id="Layer_2" data-name="Layer 2"><g id="Layer_1-2" data-name="Layer 1"><g id="_4e942573-bf0a-45a1-b2de-29d011c1890d" data-name="4e942573-bf0a-45a1-b2de-29d011c1890d"><g id="_4e942573-bf0a-45a1-b2de-29d011c1890d-child-0" data-name="4e942573-bf0a-45a1-b2de-29d011c1890d-child-0"><path d="M68.42,0a68.43,68.43,0,1,0,68.43,68.42A68.38,68.38,0,0,0,68.42,0ZM60.37,44.27a24.15,24.15,0,0,0,0,48.3v8.05a32.2,32.2,0,0,1,0-64.4Zm40.25,0A24.19,24.19,0,0,0,76.81,64.4h23.81v8H76.81a24.18,24.18,0,0,0,23.81,20.12v8.05a32.2,32.2,0,0,1,0-64.4Z"/></g></g></g></g></svg>