<svg xmlns="http://www.w3.org/2000/svg" viewBox="0 0 1346.05 295.15"><defs><style>.cls-1,.cls-2{fill:none;}.cls-1{stroke:#000;stroke-linecap:round;stroke-miterlimit:10;stroke-width:6.56px;}</style></defs><title>Asset 43</title><g id="Layer_2" data-name="Layer 2"><g id="Layer_1-2" data-name="Layer 1"><g id="_562c8455-486f-4f84-bb12-010ad642b51e" data-name="562c8455-486f-4f84-bb12-010ad642b51e"><g id="_562c8455-486f-4f84-bb12-010ad642b51e-child-0" data-name="562c8455-486f-4f84-bb12-010ad642b51e-child-0"><path class="cls-1" d="M3.28,291.87V3.28H1342.77V291.87Z"/></g></g><g id="ac1e7ebd-47c4-4ae5-afbd-1ab0220baeb1"><g id="ac1e7ebd-47c4-4ae5-afbd-1ab0220baeb1-child-0"><path d="M34.83,264.61V32.75H291.39V264.61ZM70.17,241.5h96V201.76h-16V162q10.9,0,16.84,1.7a14,14,0,0,1,8.72,6.55q2.79,4.84,2.79,14.3V241.5h76.83V201.76H243.94V183.09q0-25-23.27-28.59l-.24-2.43a35,35,0,0,0,18.66-16.48q6.54-11.88,6.55-28.11,0-28.85-16.49-41.69T181.41,53H70.17V92.7H82.28V201.76H70.17Zm80-109.06V92.7h13.08q7,0,10.54,3.75t3.52,11.75v8.73q0,8-3.52,11.76t-10.54,3.75Z"/></g></g><g id="_9ca37f3f-a6b5-41d8-b2e4-d4c114db5d25" data-name="9ca37f3f-a6b5-41d8-b2e4-d4c114db5d25"><g id="_9ca37f3f-a6b5-41d8-b2e4-d4c114db5d25-child-0" data-name="9ca37f3f-a6b5-41d8-b2e4-d4c114db5d25-child-0"><path d="M315.88,6.88h6.93V292.56h-6.93Z"/></g></g><g id="_7196d1e0-8ad7-40a6-9516-4c0400a76024" data-name="7196d1e0-8ad7-40a6-9516-4c0400a76024"><g id="_7196d1e0-8ad7-40a6-9516-4c0400a76024-child-0" data-name="7196d1e0-8ad7-40a6-9516-4c0400a76024-child-0"><path d="M319.34,119.1v-5.4H1339.85v5.4Z"/></g></g><g id="_315552ea-d0aa-4402-af1f-18ad60ac1755" data-name="315552ea-d0aa-4402-af1f-18ad60ac1755"><g id="_038fd730-aab0-43a6-af8e-46b07c96dafb" data-name="038fd730-aab0-43a6-af8e-46b07c96dafb"><path d="M500.48,64.27h-9.32V85.05H479.47V28.28h21.09q10.06,0,15.52,4.48t5.46,12.68A17.46,17.46,0,0,1,519,55.13a17.16,17.16,0,0,1-7.62,6.18L523.68,84.5v.55H511.13Zm-9.32-9.48h9.44a9.68,9.68,0,0,0,6.82-2.24,8,8,0,0,0,2.42-6.18,8.57,8.57,0,0,0-2.28-6.31q-2.28-2.3-7-2.3h-9.4Zm78.21,5.66H546.91v15.2h26.36v9.4h-38V28.28h38v9.48H546.91V51.28h22.46Zm45,9.71A6,6,0,0,0,612,65.07q-2.34-1.78-8.42-3.75A60.25,60.25,0,0,1,594,57.45q-9.68-5.23-9.67-14.08a13.71,13.71,0,0,1,2.59-8.21,17,17,0,0,1,7.45-5.63,28,28,0,0,1,10.9-2,25.51,25.51,0,0,1,10.84,2.2,17.36,17.36,0,0,1,7.39,6.22,16.32,16.32,0,0,1,2.63,9.13H614.4A7.67,7.67,0,0,0,611.94,39q-2.45-2.16-6.9-2.16a10.74,10.74,0,0,0-6.66,1.81A5.72,5.72,0,0,0,596,43.41a5.48,5.48,0,0,0,2.78,4.64A31.45,31.45,0,0,0,607,51.56q10,3,14.55,7.44a14.86,14.86,0,0,1,4.56,11.08,13.66,13.66,0,0,1-5.58,11.56q-5.57,4.19-15,4.19a29,29,0,0,1-11.93-2.4,18.92,18.92,0,0,1-8.21-6.57,16.84,16.84,0,0,1-2.82-9.67h11.73q0,9.41,11.23,9.4a10.93,10.93,0,0,0,6.51-1.7,5.5,5.5,0,0,0,2.34-4.73Zm67.18-32.4H664.15V85.05h-11.7V37.76H635.29V28.28h46.25ZM714,64.27h-9.32V85.05H693V28.28h21.1q10.06,0,15.51,4.48t5.45,12.68a17.54,17.54,0,0,1-2.51,9.69,17.28,17.28,0,0,1-7.62,6.18L737.2,84.5v.55H724.64Zm-9.32-9.48h9.44A9.68,9.68,0,0,0,721,52.55a8,8,0,0,0,2.42-6.18,8.57,8.57,0,0,0-2.28-6.31q-2.28-2.3-7-2.3h-9.4Zm56.48,30.26H749.48V28.28h11.69Zm60.2-18.91q-.68,9.17-6.77,14.43t-16.08,5.26q-10.92,0-17.18-7.35T775.09,58.3V54.83A34.08,34.08,0,0,1,778,40.41a21.75,21.75,0,0,1,8.25-9.58,23.12,23.12,0,0,1,12.46-3.33q9.83,0,15.83,5.26t6.94,14.78h-11.7c-.29-3.67-1.31-6.32-3.06-8s-4.42-2.48-8-2.48q-5.85,0-8.76,4.19t-3,13v4.29q0,9.19,2.79,13.45t8.79,4.25q5.41,0,8.09-2.48t3.06-7.66Zm54.07-28.38H858.05V85.05H846.36V37.76H829.2V28.28h46.24Zm45.61,22.69H898.6v15.2H925v9.4H886.9V28.28h38v9.48H898.6V51.28h22.45Zm15.56,24.6V28.28h17.46a26.54,26.54,0,0,1,13.4,3.37,23.58,23.58,0,0,1,9.22,9.6A29.53,29.53,0,0,1,980,55.38V58a29.69,29.69,0,0,1-3.25,14.08,23.3,23.3,0,0,1-9.19,9.55,26.75,26.75,0,0,1-13.37,3.43ZM948.3,37.76V75.65H954q6.85,0,10.49-4.48t3.7-12.83v-3q0-8.66-3.59-13.12t-10.49-4.46Z"/></g></g><g id="_8a185572-8d64-49d7-ae34-2cd2d4f4c180" data-name="8a185572-8d64-49d7-ae34-2cd2d4f4c180"><g id="_1445b78c-9c29-4ac6-903b-05752f1d8c12" data-name="1445b78c-9c29-4ac6-903b-05752f1d8c12"><path d="M412.62,148.1v24.57q0,6.12-3.84,9.68t-10.46,3.56q-6.54,0-10.38-3.46A12.36,12.36,0,0,1,384,173V148.1h7.69v24.62q0,3.66,1.75,5.34a6.74,6.74,0,0,0,4.86,1.68q6.48,0,6.58-6.82V148.1Zm36.63,37.3h-7.68l-15-24.55V185.4h-7.68V148.1h7.68l15,24.59V148.1h7.66Zm6.72,0V148.1h11.48a17.53,17.53,0,0,1,8.8,2.21,15.46,15.46,0,0,1,6.06,6.3,19.48,19.48,0,0,1,2.17,9.29v1.72a19.45,19.45,0,0,1-2.14,9.25,15.4,15.4,0,0,1-6,6.28,17.62,17.62,0,0,1-8.79,2.25Zm7.68-31.08v24.91h3.72a8.33,8.33,0,0,0,6.89-2.95q2.39-3,2.43-8.43v-2q0-5.69-2.35-8.63a8.33,8.33,0,0,0-6.89-2.93Zm48.86,14.91H497.76v10h17.32v6.17h-25V148.1H515v6.22H497.76v8.89h14.75Zm20.88,2.51h-6.12V185.4h-7.69V148.1h13.87q6.62,0,10.19,2.94a10.18,10.18,0,0,1,3.59,8.33,11.49,11.49,0,0,1-1.65,6.37,11.33,11.33,0,0,1-5,4.06L548.64,185v.36h-8.25Zm-6.12-6.22h6.2A6.33,6.33,0,0,0,538,164a5.28,5.28,0,0,0,1.58-4.06,5.67,5.67,0,0,0-1.49-4.15,6.22,6.22,0,0,0-4.6-1.51h-6.18Zm56.06,19.88h-7.4V156.86l-8.84,2.74v-6L582.54,148h.79Zm37.49-33.15L606.39,185.4h-7.81L613,154.09H594.48v-6h26.34Zm32.41,19.49H647.1V185.4h-7.68V148.1h13.86q6.62,0,10.2,2.94a10.18,10.18,0,0,1,3.58,8.33,11.49,11.49,0,0,1-1.65,6.37,11.33,11.33,0,0,1-5,4.06L668.47,185v.36h-8.25Zm-6.13-6.22h6.2a6.33,6.33,0,0,0,4.49-1.48,5.25,5.25,0,0,0,1.59-4.06,5.63,5.63,0,0,0-1.5-4.15,6.22,6.22,0,0,0-4.6-1.51H647.1Zm48.25,3.71H680.59v10h17.32v6.17h-25V148.1h25v6.22H680.59v8.89h14.76ZM733,167.59a22.45,22.45,0,0,1-1.69,9.09,15.55,15.55,0,0,1-4.69,6.18l6.2,4.87-4.89,4.33L720,185.68a17.31,17.31,0,0,1-2.82.23,15.52,15.52,0,0,1-8.28-2.23,14.8,14.8,0,0,1-5.63-6.36,22,22,0,0,1-2-9.52V166a22.28,22.28,0,0,1,2-9.69,14.81,14.81,0,0,1,5.61-6.44,16.44,16.44,0,0,1,16.57,0,14.89,14.89,0,0,1,5.62,6.44,22.36,22.36,0,0,1,2,9.67Zm-7.79-1.69q0-5.86-2.1-8.91a7.42,7.42,0,0,0-12,0q-2.1,3-2.13,8.82v1.82q0,5.72,2.1,8.87a6.84,6.84,0,0,0,6,3.15,6.75,6.75,0,0,0,5.94-3q2.08-3,2.1-8.85Zm41.66-17.8v24.57q0,6.12-3.83,9.68t-10.46,3.56q-6.54,0-10.38-3.46a12.36,12.36,0,0,1-3.92-9.5V148.1H746v24.62q0,3.66,1.75,5.34a6.74,6.74,0,0,0,4.86,1.68q6.48,0,6.58-6.82V148.1Zm14.47,37.3h-7.68V148.1h7.68Zm20.93-13.66h-6.12V185.4h-7.69V148.1h13.86q6.61,0,10.2,2.94a10.18,10.18,0,0,1,3.59,8.33,10.41,10.41,0,0,1-6.66,10.43L817.53,185v.36h-8.25Zm-6.12-6.22h6.2a6.31,6.31,0,0,0,4.48-1.48,5.25,5.25,0,0,0,1.59-4.06,5.63,5.63,0,0,0-1.5-4.15,6.22,6.22,0,0,0-4.6-1.51h-6.17Zm48.24,3.71H829.65v10H847v6.17H822V148.1h24.95v6.22H829.65v8.89H844.4Zm26.42,6.38a3.92,3.92,0,0,0-1.54-3.34,19.81,19.81,0,0,0-5.53-2.46,38.38,38.38,0,0,1-6.33-2.55q-6.34-3.44-6.35-9.25a9,9,0,0,1,1.7-5.39,11.06,11.06,0,0,1,4.89-3.7,18.38,18.38,0,0,1,7.16-1.34A16.73,16.73,0,0,1,872,149a11.37,11.37,0,0,1,4.85,4.09,10.72,10.72,0,0,1,1.73,6h-7.68a5,5,0,0,0-1.62-4,6.6,6.6,0,0,0-4.53-1.42,7.16,7.16,0,0,0-4.39,1.19,3.75,3.75,0,0,0-1.56,3.14,3.6,3.6,0,0,0,1.83,3.05,20.72,20.72,0,0,0,5.4,2.3q6.56,2,9.55,4.89a9.76,9.76,0,0,1,3,7.28,9,9,0,0,1-3.66,7.6q-3.68,2.75-9.87,2.75a19.06,19.06,0,0,1-7.84-1.57,12.43,12.43,0,0,1-5.39-4.32,11,11,0,0,1-1.86-6.35h7.71q0,6.17,7.38,6.17a7.19,7.19,0,0,0,4.28-1.11,3.64,3.64,0,0,0,1.54-3.12Zm47,2.1H904.38l-2.56,7.69h-8.17l13.89-37.3h7.12l14,37.3h-8.17Zm-11.4-6.22h9.33l-4.69-14ZM960.85,173a13.22,13.22,0,0,1-4.44,9.48q-4,3.47-10.57,3.46-7.17,0-11.29-4.83t-4.11-13.26v-2.28a22.25,22.25,0,0,1,1.9-9.48,14.19,14.19,0,0,1,5.42-6.29,15.16,15.16,0,0,1,8.18-2.19q6.46,0,10.4,3.46a14.19,14.19,0,0,1,4.56,9.71h-7.68c-.19-2.41-.86-4.15-2-5.24s-2.91-1.62-5.27-1.62a6.54,6.54,0,0,0-5.75,2.75c-1.27,1.83-1.93,4.68-2,8.54V168q0,6,1.83,8.84a6.4,6.4,0,0,0,5.78,2.8c2.37,0,4.15-.54,5.32-1.63a7.37,7.37,0,0,0,2-5Zm34.34,0a13.23,13.23,0,0,1-4.45,9.48q-4,3.47-10.57,3.46-7.17,0-11.28-4.83t-4.12-13.26v-2.28a22.25,22.25,0,0,1,1.9-9.48,14.25,14.25,0,0,1,5.42-6.29,15.16,15.16,0,0,1,8.18-2.19q6.47,0,10.41,3.46a14.19,14.19,0,0,1,4.56,9.71h-7.69c-.19-2.41-.86-4.15-2-5.24s-2.91-1.62-5.27-1.62a6.54,6.54,0,0,0-5.75,2.75c-1.27,1.83-1.93,4.68-2,8.54V168q0,6,1.83,8.84a6.41,6.41,0,0,0,5.78,2.8c2.37,0,4.15-.54,5.32-1.63a7.37,7.37,0,0,0,2-5Zm35.69-5.38a22.51,22.51,0,0,1-2,9.66,14.75,14.75,0,0,1-5.57,6.41,16.48,16.48,0,0,1-16.59,0,14.82,14.82,0,0,1-5.64-6.36,21.81,21.81,0,0,1-2-9.52V166a22.42,22.42,0,0,1,2-9.69,14.94,14.94,0,0,1,5.61-6.44,16.46,16.46,0,0,1,16.58,0,14.81,14.81,0,0,1,5.61,6.44,22.22,22.22,0,0,1,2,9.67Zm-7.79-1.69q0-5.86-2.1-8.91a7.43,7.43,0,0,0-12,0q-2.1,3-2.12,8.82v1.82q0,5.72,2.1,8.87a7.35,7.35,0,0,0,12,.11q2.07-3,2.1-8.85Zm23.42-17.8,9.58,27.05,9.53-27.05h10.09v37.3H1068V175.2l.77-17.6-10.07,27.8h-5.28l-10-27.77.77,17.57v10.2h-7.69V148.1Zm43.6,24.16V185.4h-7.68V148.1H1097a16.91,16.91,0,0,1,7.39,1.53,11.37,11.37,0,0,1,4.91,4.37,12.12,12.12,0,0,1,1.72,6.44,10.69,10.69,0,0,1-3.76,8.65q-3.75,3.16-10.39,3.17Zm0-6.23H1097a6.79,6.79,0,0,0,4.65-1.43,5.22,5.22,0,0,0,1.6-4.1,6.2,6.2,0,0,0-1.61-4.44,6,6,0,0,0-4.46-1.74h-7.05Zm42.66,11.68H1119.3l-2.57,7.69h-8.17l13.89-37.3h7.12l14,37.3h-8.17Zm-11.4-6.22h9.33l-4.69-14ZM1156,164.9l7.76-16.8h8.41L1160,171.87V185.4h-7.82V171.87L1139.9,148.1h8.43Zm27.75,20.5h-7.69V148.1h7.69Zm37.45,0h-7.68l-15-24.55V185.4h-7.69V148.1h7.69l15,24.59V148.1h7.66Zm36.23-4.71a13.3,13.3,0,0,1-5.86,3.85,24.73,24.73,0,0,1-8.41,1.37,16.61,16.61,0,0,1-8.49-2.11,14.19,14.19,0,0,1-5.64-6.14,21.57,21.57,0,0,1-2-9.45v-2.54a23,23,0,0,1,1.88-9.67,13.82,13.82,0,0,1,5.43-6.25,15.6,15.6,0,0,1,8.31-2.17q6.64,0,10.38,3.17t4.43,9.21H1250a7.45,7.45,0,0,0-2.27-4.69,7.25,7.25,0,0,0-4.83-1.49,6.78,6.78,0,0,0-6,2.95q-2.06,3-2.08,8.76v2.38q0,5.87,2.23,8.87a7.63,7.63,0,0,0,6.53,3q4.34,0,6.18-1.85v-6.43h-7V165.8h14.67Zm-787,65v13.14h-7.69V221.56h14.56a16.91,16.91,0,0,1,7.39,1.53,11.41,11.41,0,0,1,4.91,4.36,12.24,12.24,0,0,1,1.71,6.45,10.71,10.71,0,0,1-3.75,8.64q-3.75,3.17-10.39,3.17Zm0-6.23h6.87a6.79,6.79,0,0,0,4.65-1.43,5.22,5.22,0,0,0,1.6-4.1,6.17,6.17,0,0,0-1.61-4.43,6,6,0,0,0-4.46-1.75h-7Zm42.66,11.69H499.66l-2.56,7.68h-8.17l13.89-37.29h7.12l14,37.29h-8.17Zm-11.4-6.23h9.33l-4.69-14Zm39.46.26h-6.13v13.65h-7.68V221.56h13.86q6.62,0,10.2,2.94a10.14,10.14,0,0,1,3.58,8.32,11.49,11.49,0,0,1-1.65,6.37,11.26,11.26,0,0,1-5,4.06l8.07,15.24v.36h-8.25ZM535.07,239h6.2a6.38,6.38,0,0,0,4.49-1.47,5.28,5.28,0,0,0,1.59-4.06,5.66,5.66,0,0,0-1.5-4.16,6.22,6.22,0,0,0-4.6-1.51h-6.18Zm48.25,3.71H568.56v10h17.32v6.17h-25V221.56h25v6.21H568.56v8.89h14.76Zm37.41,16.17H613l-15-24.54v24.54h-7.69V221.56h7.69l15,24.58V221.56h7.67Zm34-31.08H643.35v31.08h-7.69V227.77H624.39v-6.21h30.39ZM701.33,241a22.51,22.51,0,0,1-2,9.66,14.62,14.62,0,0,1-5.57,6.41,15.4,15.4,0,0,1-8.31,2.25,15.6,15.6,0,0,1-8.28-2.22,14.79,14.79,0,0,1-5.64-6.37,22,22,0,0,1-2-9.52v-1.84a22.32,22.32,0,0,1,2-9.7,14.64,14.64,0,0,1,5.61-6.42,16.38,16.38,0,0,1,16.57,0,14.73,14.73,0,0,1,5.62,6.42,22.39,22.39,0,0,1,2,9.67Zm-7.79-1.69q0-5.86-2.1-8.91a7.42,7.42,0,0,0-12,0q-2.12,3-2.13,8.83V241q0,5.72,2.1,8.87a6.84,6.84,0,0,0,6,3.15,6.76,6.76,0,0,0,5.94-3q2.09-3,2.1-8.86Zm27.19,5.85H714.6v13.65h-7.68V221.56h13.86q6.62,0,10.19,2.94a10.15,10.15,0,0,1,3.59,8.32,11.49,11.49,0,0,1-1.65,6.37,11.26,11.26,0,0,1-5,4.06L736,258.49v.36h-8.25ZM714.6,239h6.2a6.38,6.38,0,0,0,4.49-1.47,5.28,5.28,0,0,0,1.59-4.06,5.66,5.66,0,0,0-1.5-4.16,6.22,6.22,0,0,0-4.6-1.51H714.6Zm59.92,12.2H761.05l-2.56,7.68h-8.17l13.89-37.29h7.12l13.95,37.29h-8.17Zm-11.39-6.23h9.33l-4.69-14Zm25.64,13.91V221.56h11.48a17.53,17.53,0,0,1,8.8,2.21,15.34,15.34,0,0,1,6.06,6.3,19.41,19.41,0,0,1,2.17,9.28v1.72a19.45,19.45,0,0,1-2.14,9.25,15.4,15.4,0,0,1-6,6.28,17.42,17.42,0,0,1-8.79,2.25Zm7.68-31.08v24.91h3.72a8.33,8.33,0,0,0,6.89-3q2.38-3,2.43-8.43v-2c0-3.79-.78-6.67-2.35-8.62a8.31,8.31,0,0,0-6.89-2.94Zm54.65-6.21v24.56q0,6.12-3.83,9.68t-10.46,3.56q-6.54,0-10.38-3.45a12.39,12.39,0,0,1-3.92-9.51V221.56h7.69v24.61q0,3.66,1.75,5.34a6.74,6.74,0,0,0,4.86,1.68q6.48,0,6.58-6.82V221.55Zm14,31.12h16.32v6.17h-24V221.56h7.68Zm43.56-24.91H897.22v31.08h-7.68V227.77H878.26v-6.21h30.39Zm45.43,26.37a13.39,13.39,0,0,1-5.87,3.85,24.67,24.67,0,0,1-8.4,1.37,16.65,16.65,0,0,1-8.5-2.11,14.05,14.05,0,0,1-5.63-6.14,21.43,21.43,0,0,1-2-9.45v-2.54a23,23,0,0,1,1.88-9.67A13.82,13.82,0,0,1,931,223.2a15.7,15.7,0,0,1,8.32-2.16q6.63,0,10.37,3.16t4.44,9.21H946.6a7.5,7.5,0,0,0-2.27-4.69,7.25,7.25,0,0,0-4.83-1.49,6.81,6.81,0,0,0-6,3q-2.06,3-2.08,8.76v2.39q0,5.86,2.23,8.86a7.65,7.65,0,0,0,6.54,3c2.89,0,4.94-.62,6.17-1.85v-6.43h-7v-5.66h14.68Zm34.46-32.58v24.56q0,6.12-3.83,9.68t-10.47,3.56q-6.53,0-10.38-3.45a12.39,12.39,0,0,1-3.92-9.51V221.56h7.69v24.61q0,3.66,1.76,5.34a6.71,6.71,0,0,0,4.85,1.68q6.48,0,6.59-6.82V221.55Zm26.8,29.61h-13.48l-2.56,7.68h-8.17L1005,221.56h7.12l14,37.29h-8.17Zm-11.4-6.23h9.32l-4.69-14Zm39.45.26h-6.12v13.65h-7.69V221.56h13.86q6.61,0,10.2,2.94a10.15,10.15,0,0,1,3.59,8.32,11.49,11.49,0,0,1-1.65,6.37,11.37,11.37,0,0,1-5,4.06l8.07,15.24v.36h-8.25Zm-6.12-6.23h6.2a6.33,6.33,0,0,0,4.48-1.47,5.28,5.28,0,0,0,1.59-4.06,5.66,5.66,0,0,0-1.5-4.16,6.22,6.22,0,0,0-4.6-1.51h-6.17Zm25.8,19.88V221.56h11.48a17.51,17.51,0,0,1,8.8,2.21,15.34,15.34,0,0,1,6.06,6.3,19.41,19.41,0,0,1,2.18,9.28v1.72a19.45,19.45,0,0,1-2.14,9.25,15.36,15.36,0,0,1-6,6.28,17.41,17.41,0,0,1-8.78,2.25Zm7.69-31.08v24.91h3.71a8.33,8.33,0,0,0,6.89-3c1.59-2,2.41-4.78,2.44-8.43v-2c0-3.79-.79-6.67-2.36-8.62a8.31,8.31,0,0,0-6.89-2.94Zm34.59,31.08h-7.69V221.56h7.69Zm28.64-7.68h-13.48l-2.56,7.68h-8.17l13.89-37.29h7.12l14,37.29h-8.17Zm-11.4-6.23h9.33l-4.69-14Zm56,13.91h-7.68l-15-24.54v24.54h-7.68V221.56h7.68l15,24.58V221.56h7.66Z"/></g></g><g id="_0a75bccb-8760-454f-8b0e-17c466077583" data-name="0a75bccb-8760-454f-8b0e-17c466077583"><g id="_0a75bccb-8760-454f-8b0e-17c466077583-child-0" data-name="0a75bccb-8760-454f-8b0e-17c466077583-child-0"><path class="cls-2" d="M1178.89,28.56c-13.49-6.88-31.34-10.66-50.27-10.66s-36.77,3.78-50.26,10.66c-14.36,7.32-22.28,17.36-22.28,28.29s7.92,21,22.28,28.29c13.49,6.87,31.35,10.66,50.26,10.66s36.77-3.78,50.27-10.66c14.36-7.32,22.27-17.37,22.27-28.29S1193.26,35.88,1178.89,28.56Z"/></g><g id="_0a75bccb-8760-454f-8b0e-17c466077583-child-1" data-name="0a75bccb-8760-454f-8b0e-17c466077583-child-1"><path d="M1128.62,21.28c-38.13,0-69.15,15.95-69.15,35.57s31,35.56,69.15,35.56,69.16-16,69.16-35.56S1166.76,21.28,1128.62,21.28ZM1196,52.9c-4.72-5-18.29-8.68-35-10.75a35.76,35.76,0,0,0-21.15-19C1169.39,25.6,1192.51,37.76,1196,52.9Zm-68-12.66A269.52,269.52,0,0,0,1097.83,42,34.26,34.26,0,0,1,1128,22.66Zm0,1.36V71.8a267.26,267.26,0,0,1-30.87-1.75,34.13,34.13,0,0,1,.12-26.68A262.48,262.48,0,0,1,1128,41.6Zm0,31.55V91a34.26,34.26,0,0,1-30.25-19.59A274.28,274.28,0,0,0,1128,73.15Zm1.35,0a274.28,274.28,0,0,0,30.25-1.7A34.24,34.24,0,0,1,1129.3,91Zm0-1.35V41.6a262.79,262.79,0,0,1,30.76,1.77,34.15,34.15,0,0,1,.12,26.67A269.19,269.19,0,0,1,1129.3,71.8Zm0-31.56V22.66A34.26,34.26,0,0,1,1159.42,42,269.52,269.52,0,0,0,1129.3,40.24Zm-11.9-17.13a35.76,35.76,0,0,0-21.15,19c-16.68,2.07-30.24,5.76-35,10.75C1064.74,37.76,1087.86,25.6,1117.4,23.11Zm-37,23.13c4.6-1.07,9.75-2,15.29-2.68a35.42,35.42,0,0,0-.11,26.3c-21.59-2.74-34.72-8-34.72-13C1060.82,53,1067.94,49.13,1080.36,46.24Zm-19.1,14.46c4.7,4.9,18.21,8.52,34.87,10.56a35.76,35.76,0,0,0,21.27,19.32C1087.8,88.09,1064.64,75.88,1061.26,60.7Zm78.59,29.89a35.69,35.69,0,0,0,21.27-19.33c16.65-2,30.18-5.67,34.87-10.56-3.38,15.18-26.54,27.39-56.14,29.88Zm37.05-23.35c-4.57,1.05-9.69,1.92-15.18,2.62a35.45,35.45,0,0,0-.12-26.29,152,152,0,0,1,15.29,2.67c12.42,2.89,19.54,6.76,19.54,10.61s-7.12,7.56-19.53,10.39Z"/></g></g></g></g></svg>