<svg xmlns="http://www.w3.org/2000/svg" viewBox="0 0 2020.41 157.55"><title>Asset 18</title><g id="Layer_2" data-name="Layer 2"><g id="Layer_1-2" data-name="Layer 1"><g id="c2d46a06-05f9-40df-a2e1-32e4362bbde9"><g id="c2d46a06-05f9-40df-a2e1-32e4362bbde9-child-0"><path d="M281,94.23a42.38,42.38,0,0,1,.7,6,4.34,4.34,0,0,1-4.07,4.42,4.44,4.44,0,0,1-4.65-3.84l-.58-5.35a17.34,17.34,0,0,0-.47-2.32,4.41,4.41,0,0,0-.23-1.17l.46,7.45a4.3,4.3,0,0,1-3.49,4.53,4.21,4.21,0,0,1-4.88-2.9,19.25,19.25,0,0,1-1.17-6.75,10.3,10.3,0,0,0-.58-3.72,23.51,23.51,0,0,1-.81-7.45v4.19L261,98.19v1.16a.74.74,0,0,1-.11.47h0a4.46,4.46,0,0,1-2.56,2.44,4.6,4.6,0,0,1-4.54-1.05h0s-.23-.23-.23-.35v-.11l-.12-.12a1.56,1.56,0,0,0-.23-.35.36.36,0,0,0-.12-.23v-.23l-.23-.47-.81-1-.47-1-.46-1.05-.47-1L250.15,94l-.47-1.16-.35-1.17-.46-1.28-.35-1.28-.35-1.28-.47-1.28-.35-1.39L247,83.88V83.3c-.11,0-.23.23-.23.23l-.46,1.16-.47,1.17-.46,1.28-.47,1.16-.46,1.16L244,90.63l-.47,1.16L243.05,93l-.47,1-.46,1-.47,1-.46,1-.47.93-.46.93-.93.82-.47.81-.46.7h0l-.7,1-.7.93-.7.93-.58.81-.58.82-.58.69-.58.7-.47.7-.47.58-.46.58-.47.58-.46.59-.47.46-.46.47-.47.46-.46.47-.47.46-.46.47-.47.46-.46.47-.47.46-.47.47-.46.47-.58.46-.58.47-1.52.46-.69.58-.7.58-.7.7-.7.7-.7.81-11.75,7.57,4.89-12.8.81-.81.82-.82.81-.7.7-.69.7-.7.7-.58.58-.59.58-.58.58-.46.58-.47.47-.46.46-.47.47-.46.47-.35.46-.35.47-.35.34-.35.47-.35.47-.35.34-.46.47-.47.47-.46.46-.47.47-.47,1-.46.47-.58.46-.7.59-.7.58-.7.58-.81.7-.93.69-.93h0l.24-.47.35-.58.35-.58.34-.7.35-.81.47-.82.46-.93.47-.93.46-1,.47-1,.47-1,.46-1.16.47-1.17.46-1.16.47-1.16.46-1.17L239,81l.46-1.16.47-1.17.46-1.16.47-1.16.35-1.17.35-1,.35-1,.34-1,.35-.93.24-.93.23-.81.23-.7.23-.7h0c0-.12-.23-1.16-.23-1.16l-.23-1.28-.23-1.17-.24-1.16V62c-.11,0-.35-1-.35-1h0l-.11-1.28V58.4c-.12,0-.35-1.28-.35-1.28V55.84c-.12,0-.23-1.28-.23-1.28V53.28c-.12,0-.24-1.16-.24-1.16V50.84l-.11-1.16V32.11L241.3,31V29.78l.12-1.16V27.34l.23-1.16V24.9l.24-1.28V22.34L244,6.05l6.51,18.15v1.28l-.23,1.16V27.8L250,29v1.16l-.12,1.16v2.33l-1.16,1.05v12.8l.12,1.16v1.16L249,51v1.16l.24,1.16v1.17c.11,0,.23,1.16.23,1.16v1.16c.11,0,.23,1.17.23,1.17l.23,1.16.24,1.16h0l.11,1.05.23,1,.24,1,.23,1.17.23,1.16.24,1.16.23,1.17.23,1.28v0a55.22,55.22,0,0,1,1.28-9.54,4.45,4.45,0,0,1,4.77-3.26,2.27,2.27,0,0,1,.93.23,4.31,4.31,0,0,1,2.79,4.07v.24A4.31,4.31,0,0,1,266,58.4a3.62,3.62,0,0,1,1.16.23,4.4,4.4,0,0,1,2.68,3,4.43,4.43,0,0,1,5-1.51,4.34,4.34,0,0,1,2.79,3.6l3.61,30.83Zm26.88,38-.23-.81-.24-.81-.23-.82-.23-.93-.23-.81v-.93c-.12,0-.35-.82-.35-.82l-.24-.93-.23-.81-.23-.93-.23-.82-.24-.93V121c-.11,0-.35-.82-.35-.82v-.93c-.11,0-.35-.81-.35-.81v-.93c-.11,0-.34-.82-.34-.82v-.93c-.12,0-.35-.81-.35-.81V114c-.12,0-.35-.82-.35-.82v-.93c-.12,0-.35-.81-.35-.81v-.81c-.12,0-.35-.82-.35-.82V109c-.12,0-.23-.82-.23-.82v-.81c-.12,0-.24-.82-.24-.82h0l-.23-1.28-.23-1.16-.35-1.16-.35-1.28-.7-1.17-.35-1.16-.46-1.28-.47-1.16-.46-1.17-.47-1.16-.46-1.28-.47-1.16L296.68,91l-.58-1.16-.58-1.16-.58-1.17-.59-1.16-.58-1.16L293.19,84l-.58-1.16-.47-1.16-.46-1.17-.47-1.16-.46-1.16-.47-1.05-.46-1V75c-.12,0-.47-1.05-.47-1.05l-.35-1-.35-1-.23-.94h0V70.5l-.35-3.37a4,4,0,0,0-2.79-3.61,3,3,0,0,0-1.75-.23,4.27,4.27,0,0,0-4.07,4.42,34,34,0,0,0,.12,3.49,1.71,1.71,0,0,0,.23,1l.23.82.35,1.28.35,1.16.35,1.17.47,1.16L282,79l.47,1.17.46,1.16.35.93a4.23,4.23,0,0,0-2.56,4.42c.23,2,.58,4.19.93,6.17.24,1.51.47,2.9.7,4.18l.23,3.15a4.32,4.32,0,0,0,8.61,0l.35.93.35,1,.35,1,.35,1,.23.93.23.93V107c.12,0,.35.93.35.93h0v1.74l.24.94v.93l.23.93v.93c.11,0,.23.93.23.93v.93c.12,0,.23.93.23.93v.93c.12,0,.24.93.24.93V119c.11,0,.35.93.35.93v.93c.11,0,.34.93.34.93v.93c.12,0,.35.94.35.94v.93c.12,0,.35.93.35.93v.93c.12,0,.35.93.35.93v.93c.12,0,.35.81.35.81v.93c.12,0,.35.82.35.82v.93c.12,0,.35.81.35.81v.93c.11,0,.35.82.35.82v.93c.11,0,.35.81.35.81l6.05,21.41L308,135.18h0l-.23-.81-.23-.82ZM581.7,71.08l.7-1,.7-1.16.7-1.05.7-1.16.81-1.16.7-1.17.7-1,.69-1.17.7-1.16.7-1.16.58-1.17.58-1.16.58-1.16.59-1.17.46-1.16.47-1.16.46-1.17.35-1.16h0l.23-.81.24-.82.23-.81.23-.82.23-.81.24-.82.23-.81.23-.82.24-.81.23-.81.23-.82.23-.81.24-.82.23-.81.23-.82.23-.81.24-.81.23-.82.35-.81.23-.82.35-.81.23-.82.35-.81.23-.81.24-.82.23-.81.35-.82.35-.81.23-.82.23-.81.24-.82.23-.81.7-17.8-9.19,15.82-.24.82-.35.81-.23.82-.35.81-.23.81-.35.82-.23.81-.35.93-.23.82-.35.81-.35.82-.35.81-.35.82-.23.81-.35.81-1.16.82-.24.81-.23.82L586,38l-.24.82-.23.93-.23.81-.23.82-.24.81-.23.81-.23.93-.23.82-.24.81-.23.82-.23.81-.23.82h0l-.24.81-.23.82-.35.93-.35.93-.46.93-.47.93-.46.93v.23a4.46,4.46,0,0,0-8.73-.46l-.46,2.09c-.35,1.4-.94,3-1.4,4.65A53,53,0,0,0,568.21,67a4.28,4.28,0,0,0,1,4.07,1.81,1.81,0,0,0,.93.7l-.59,1L569,74l-.58,1.16-.58,1.17-.58,1.16-.47,1.16-.46,1.17L565.88,81l-.46,1.16h0a1.58,1.58,0,0,1-.24.7C565,84,564.83,85,564.6,86.2a4.05,4.05,0,0,0,1.17,3.61,3.58,3.58,0,0,0,2.32,1.28,4.25,4.25,0,0,0,5-3.26l.7-3.14a3.73,3.73,0,0,0,0-1.63l.35-.81.47-.93.46-.93.47-1,.58-1,.58-1,.58-1,.7-1,.7-1,.7-1,.69-1,.7-1.05ZM571.12,54a4.31,4.31,0,0,0-3.49-4.89,4.18,4.18,0,0,0-5,3.26l-1.39,5.59c-.23.69-.47,1.39-.7,2.09s-.47,1.51-.7,2.33l1.86-8.85a4.3,4.3,0,0,0-2.91-5,4.24,4.24,0,0,0-5.23,2.33,21.08,21.08,0,0,0-2,6.51,10.19,10.19,0,0,1-1,3.61,19.84,19.84,0,0,0-1.63,7.1,8.82,8.82,0,0,1-.24,1.86l.7-6.05,1.17-10.59h0V52.7A4.21,4.21,0,0,0,548,48.86,4.52,4.52,0,0,0,543,50s-.11.24-.23.24h0a.36.36,0,0,1-.12.23l-.46.7-.58.93-.58.93-.59,1.05-.58,1-.58,1-.58,1.05-.82,1.16-.58,1.16-.58,1.17L536.1,62l-.58,1.28-.58,1.28-.59,1.28v.46a.43.43,0,0,1-.23-.11l-.35-1.28-.23-1.28-.35-1.28-.35-1.28-.35-1.28-.35-1.28-.35-1.28-.34-1.17-.35-1.16-.35-1.16-.35-1-.35-1.05-.35-.93-.35-.93-.35-.93-.35-.81-.35-.82h0l-.58-1-.46-1-.47-.93-.46-.82-.47-.81-1.05-.7-.46-.7-.47-.7-.46-.69-.47-.58-.35-.59-.34-.58-.35-.58-.35-.58-.35-.58-.35-.47-.35-.46-.35-.47-.35-.46-.46-.47-.47-.47-.35-.46-.46-.58-.47-.58-.46-.59-.47-.69-.58-.7-.58-.7-.58-.7-.59-.81-.58-.82L512,25.94,496.89,14.77,506,32.23l.7.93.69.81.59.81.58.7.58.7.58.7.47.58.46.58.47.58.46.59.47.46.46.47.35.46.35.47,1.05.46.35.47.35.46.35.47.34.46.35.47.35.46.35.59.35.58.35.58.35.58.46.7.47.81.46.82.47.93.58.93.58,1h0l.24.46.23.58.23.7.35.7.35.81.35.93.35.93.35,1,.35,1.05.34,1.16.35,1.17.35,1.16.35,1.16.35,1.17.35,1.16.35,1.28.35,1.16.23,1.17.35,1.16.23,1.16.23,1.17.24,1.16.23,1,.23,1,.23,1,.24.93v.93c.11,0,.35.82.35.82V81c.11,0,.35.7.35.7h0l-.35,1.16L528.54,84l-.35,1.17-.35,1.16-.35,1.05v1h.23l-.35,1.16L527,90.86,526.68,92l-.24,1.17-.23,1.16L526,95.51l-.23,1.17-.24,1.16L525.28,99l-.23,1.17-.24,1.16-.23,1.16v1.17c-.11,0-.35,1.16-.35,1.16V106c-.11,0-.23,1.17-.23,1.17v1.16c-.12,0-.23,1.16-.23,1.16v1.17c-.12,0-.23,1.16-.23,1.16V113l-.24,1.17v1.16l-.11,1.16v1.17l-.12,1.16v1.16l-.12,1.28v1.17l-.11,1.28v1.27l1.63,18.27,5.46-16.52v-1.28l.24-1.28V123l.23-1.17v-1.16l.23-1.16v-1.17l.23-1.16V116c.12,0,.24-1.17.24-1.17v-1.16l.23-1.16v-1.17l.23-1.16V109c.12,0,.23-1.17.23-1.17l.24-1.16.23-1.16.23-1.17v-1.16c.12,0,.35-1.16.35-1.16l.23-1,.24-1.16.23-1.17.23-1,.24-1.17.23-1.16.23-1.16L534.7,93l.35-1.16.35-1.16.35-1.17h0l.23-.93.35-1,.35-1,.35-1,.35-1.16.35-1.17.46-1.16.35-1.16v-.47c.12,0,.12.47.12.47a64.63,64.63,0,0,0,0,9.54,4.83,4.83,0,0,0,1.16,2.44,4.65,4.65,0,0,0,3.14,1.4A4.36,4.36,0,0,0,547.15,91a2.14,2.14,0,0,0,.58.82,4.38,4.38,0,0,0,2.91,1.4,4.5,4.5,0,0,0,4.54-3.5,4.68,4.68,0,0,0,.93,1.52,3.61,3.61,0,0,0,2.33,1.28,4.38,4.38,0,0,0,5-3.26l7.21-29.67a41.67,41.67,0,0,0,1.51-6.28Zm-49.8,32.57a136.2,136.2,0,0,1-16.63.93c-18.38,0-34.79-3.49-50.72-6.86-15,2.44-29.32,4.77-43.4,4.77h-3.95c-12.92-.46-25.83-2.44-39.44-4.65a1.9,1.9,0,0,1-.81-.12c-18.5,3.84-39.33,7.91-63.18,6.52a4.08,4.08,0,0,1,.47-8.15,178.52,178.52,0,0,0,37.69-2A187.54,187.54,0,0,0,297,76.67a4,4,0,0,1-1-8c25.48-3.14,48.28.23,70.15,3.72a1,1,0,0,0,.58-.12c16.29-3.37,31.76-6.63,47.59-5.93,13.49.58,26.29,3.26,39.78,6.17,19.66-3.26,42-6.87,66.55-5.59a4.07,4.07,0,0,1,3.84,4.31A4,4,0,0,1,520.16,75a229.59,229.59,0,0,0-42.58,2.09,151.69,151.69,0,0,0,42.7,1.51,4.1,4.1,0,0,1,.93,8.15ZM430,76A147.9,147.9,0,0,0,414,74.34,112.38,112.38,0,0,0,390.68,76a154.64,154.64,0,0,0,16.05,1.28A160,160,0,0,0,430,76ZM872.78,57.7a4.5,4.5,0,0,0-2.8-3.6,3,3,0,0,0-1.74-.24A4.59,4.59,0,0,0,865,55.61a4.14,4.14,0,0,0-3.84-3.26,4.3,4.3,0,0,0-4.3,2.68v-.24a4.32,4.32,0,0,0-2.79-4.07,2.94,2.94,0,0,0-.94-.23,4.45,4.45,0,0,0-4.77,3.26,55.19,55.19,0,0,0-1.27,9.54v0L846.83,62l-.23-1.17-.23-1.16-.24-1.16-.23-1.17-.23-1-.23-1.05v-1h-.24L845,53.05l-.23-1.16V50.72c-.12,0-.23-1.16-.23-1.16V48.4c-.12,0-.24-1.17-.24-1.17V46.07L844,44.91V43.74l-.12-1.16V41.42l-.11-1.17V28.62L845,27.57V24.08l.12-1.16V21.75l.23-1.16V19.43l.23-1.28L839,0l-2,16.29v1.28l-.12,1.28v1.28l-.23,1.16v1.28l-.11,1.16V24.9l-.12,1.16v1.16l-.12,1.17V43.63l.12,1.16v1.28l.12,1.16v1.28a5.23,5.23,0,0,1,.23,1.28v1.28a5.23,5.23,0,0,1,.23,1.28v1.28c.12,0,.35,1.28.35,1.28h0l.12,1.05v1.16c.11,0,.34,1.16.34,1.16l.24,1.17.23,1.28.23,1h0a7.39,7.39,0,0,1-.23.82l-.23.7-.24.81-.23.93-.35.93L836.94,67l-.34,1-.35,1-.35,1.17-.47,1.16L835,72.59l-.47,1.17L834,74.92l-.47,1.16-.47,1.17-.46,1.16-.47,1.16-.46,1.17-.47,1.16-.46,1-.47,1L829.85,85l-.47.93-.46.93-.47.82-.35.81-.35.7-.35.58-.34.58-.24.47h0l-.7.93-.69.93-.58.81-.59.7-.58.7-.46.7-.47.58-1,.47-.46.46-.47.47-.46.46-.47.47-.35.46-.46.35-.47.35-.35.35-.46.35-.47.35-.46.35-.47.46-.46.47-.47.46-.58.47-.58.46-.58.58-.58.59-.7.58-.7.7-.7.69-.81.7-.82.82-.81.81-4.89,12.8,11.75-7.56.7-.82.7-.7.7-.69.69-.59.7-.58,1.51-.46.59-.47.58-.46.46-.47.47-.46L823,108l.47-.47.46-.46.47-.47.47-.46.46-.47.47-.46.46-.47.47-.46.46-.58.47-.59.46-.58.47-.58.46-.7.58-.7.59-.69.58-.82.58-.81.7-.93.7-.93.69-1h0l.47-.7.46-.81.94-.82.46-.93.47-.93.46-1,.47-1,.46-1,.47-1,.46-1.16.47-1.16.46-1.17.47-1.16.46-1.16.47-1.28.46-1.17.47-1.16v-.23l.23.58.35,1.28.35,1.39.47,1.28.35,1.28.34,1.28.47,1.28.35,1.17L845.2,88l.47,1.16.46,1,.47,1,.47,1,.81,1,.23.47V94a.34.34,0,0,0,.12.23c0,.12.11.23.23.35l.12.12v.11a1.36,1.36,0,0,0,.23.35h0a4.34,4.34,0,0,0,4.54,1,4.12,4.12,0,0,0,2.56-2.44h0c0-.12.11-.35.11-.47v-12c.12,0,.24-7.45.24-7.45a16.14,16.14,0,0,1,0,3.26,23.51,23.51,0,0,0,.81,7.45,13.56,13.56,0,0,1,.58,3.72,19.25,19.25,0,0,0,1.17,6.75A4.23,4.23,0,0,0,863.7,98a4.12,4.12,0,0,0,3.49-4.53L866.73,86a4,4,0,0,0,.23,1.17c.12.81.35,1.51.46,2.32l.59,5.35a4.38,4.38,0,0,0,8.72-.58,31.9,31.9,0,0,0-.7-6l-3.6-30.83Zm30.48,68.87-.24-.81-.23-.82-.23-.81-.24-.93-.23-.81v-.94c-.11,0-.35-.81-.35-.81l-.23-.93-.23-.81-.23-.94-.24-.81-.23-.93v-.93c-.12,0-.35-.82-.35-.82v-.93c-.12,0-.35-.81-.35-.81v-.93c-.11,0-.35-.82-.35-.82v-.93c-.11,0-.35-.81-.35-.81v-.93c-.11,0-.35-.82-.35-.82v-.93c-.11,0-.34-.81-.34-.81v-.82c-.12,0-.35-.81-.35-.81v-.81c-.12,0-.24-.82-.24-.82v-.81c-.11,0-.23-.82-.23-.82h0l-.23-1.28-.23-1.16-.35-1.16L896.51,96l-.7-1.17-.35-1.16L895,92.37l-.47-1.16L894.06,90l-.46-1.16-.47-1.28-.46-1.16-.58-1.17-.58-1.16L890.92,83l-.58-1.17-.58-1.16-.58-1.16-.58-1.17L888,77.13,887.55,76l-.47-1.17-.46-1.16-.47-1.16-.46-1-.47-1.05v-1c-.11,0-.46-1-.46-1l-.35-1.05-.35-1-.23-.94h0V64.8l-.35-3.37a4,4,0,0,0-2.79-3.61,3.07,3.07,0,0,0-1.75-.23A4.26,4.26,0,0,0,874.87,62,34,34,0,0,0,875,65.5a1.71,1.71,0,0,0,.23,1l.23.82.35,1.28.35,1.16L876.5,71l.46,1.17.47,1.16.46,1.16.47,1.17.35.93A4.22,4.22,0,0,0,876.15,81c.23,2,.58,4.19.93,6.17.23,1.51.47,2.9.7,4.18l.23,3.14a4.32,4.32,0,0,0,8.61,0l.35.94.35,1,.35,1,.35,1.05.23.93.23.93v.93c.12,0,.35.93.35.93h0V104l.23.93v.94l.24.93v.93c.11,0,.23.93.23.93v.93c.11,0,.23.93.23.93v.93c.12,0,.23.93.23.93v.93c.12,0,.35.93.35.93v.93c.12,0,.35.93.35.93V117c.12,0,.35.93.35.93v.94c.12,0,.35.93.35.93v.93c.12,0,.35.93.35.93v.93c.11,0,.35.81.35.81v.93c.11,0,.35.82.35.82v.93c.11,0,.35.81.35.81v.93c.11,0,.34.82.34.82v.93c.12,0,.35.81.35.81l6,21.41,3.84-22.34h0l-.23-.81-.23-.82ZM1128.6,65.38a4.06,4.06,0,0,1-4.31,3.84c-16.4-.81-32.57.47-48.51,2.56a151,151,0,0,0,39.9,1,4.06,4.06,0,0,1,4.54,3.6,4,4,0,0,1-3.6,4.54,136.36,136.36,0,0,1-16.64.93c-17.8,0-33.74-3.26-49.21-6.51-15.94,2.32-31.18,4.42-44.91,4.42h-4c-12.91-.47-25.83-2.45-39.44-4.66a2.06,2.06,0,0,1-.81-.11c-18.5,3.84-39.33,7.91-63.17,6.51a4.08,4.08,0,0,1,.46-8.14,179.19,179.19,0,0,0,37.69-2,187.52,187.52,0,0,0-44.32-.35,4,4,0,1,1-1.05-8c25.48-3.14,48.28.24,70.15,3.73a1,1,0,0,0,.59-.12c16.28-3.37,31.75-6.63,47.58-5.93,13.61.58,26.64,3.37,40.37,6.28a3.61,3.61,0,0,1,1,.23,7.62,7.62,0,0,0,1.63-.23c22.1-3.26,47.23-7,72-5.7a4.06,4.06,0,0,1,3.84,4.3Zm-102.73,5a155.89,155.89,0,0,0-16.52-1.74,112.33,112.33,0,0,0-23.26,1.63,157.22,157.22,0,0,0,16,1.28A169.92,169.92,0,0,0,1025.87,70.38ZM163,75.27c-15.94,2.33-31.18,4.42-44.91,4.42h-3.95c-12.91-.47-25.83-2.44-39.44-4.65a1.9,1.9,0,0,1-.81-.12c-18.5,3.84-39.32,7.91-63.17,6.52a4.08,4.08,0,0,1,.46-8.15,178.52,178.52,0,0,0,37.69-2A188.05,188.05,0,0,0,4.56,71a4,4,0,1,1-1-8c25.48-3.14,48.28.23,70.15,3.72a1,1,0,0,0,.59-.12c16.28-3.37,31.76-6.63,47.58-5.93,13.61.58,26.64,3.37,40.37,6.28a3.33,3.33,0,0,1,1,.24,7.64,7.64,0,0,0,1.63-.24c22.11-3.25,47.23-7,72-5.7a4.08,4.08,0,0,1-.46,8.15c-16.41-.82-32.58.46-48.51,2.56a150.61,150.61,0,0,0,39.9,1,4.1,4.1,0,1,1,.93,8.15A138.28,138.28,0,0,1,212.1,82c-17.8,0-33.73-3.26-49.21-6.52Zm-24.9-4.89a155.89,155.89,0,0,0-16.52-1.74,112.33,112.33,0,0,0-23.26,1.63,157.44,157.44,0,0,0,16,1.28A169.92,169.92,0,0,0,138.11,70.38Zm615.19,7.1C735.62,80.27,718.86,83,704.67,83h-4.19c-13.61-.58-26.64-3.38-40.37-6.28a3.27,3.27,0,0,1-1-.24c-.59,0-1.28.24-1.86.24-19.2,2.79-40.61,5.93-62,5.93s-7,0-10.36-.23a4.08,4.08,0,0,1,.47-8.15c16.52.82,32.92-.58,49-2.56a149.94,149.94,0,0,0-39.79-1,4.1,4.1,0,1,1-.93-8.15c24.66-2.91,45.6,1.28,65.85,5.59,17.68-2.56,34.31-4.89,49-4.42,12.92.46,25.83,2.44,39.44,4.65,1.86.35,3.72.58,5.7.93a2.48,2.48,0,0,0,.93-.12c23.85-3.84,51-8.14,75.74-6.74a4.08,4.08,0,1,1-.47,8.14c-15-.93-30.71.46-46.42,2.44a174.74,174.74,0,0,0,34.79-.58,4,4,0,0,1,1,8c-23.73,3-45,.23-65.49-3Zm-27.69-4.19c-5.93-.7-11.87-1.28-17.68-1.51a169.84,169.84,0,0,0-23.73,1.16,159.41,159.41,0,0,0,16.51,1.75C708.16,75,716.54,74.34,725.61,73.29Z"/></g></g><g id="_7a6202ae-6a84-4ec1-b14f-37e021ea2d95" data-name="7a6202ae-6a84-4ec1-b14f-37e021ea2d95"><g id="_7a6202ae-6a84-4ec1-b14f-37e021ea2d95-child-0" data-name="7a6202ae-6a84-4ec1-b14f-37e021ea2d95-child-0"><path d="M1172.79,94.26a43.88,43.88,0,0,1,.7,6,4.36,4.36,0,0,1-4.07,4.42,4.45,4.45,0,0,1-4.66-3.84l-.58-5.35a16.26,16.26,0,0,0-.46-2.33,4,4,0,0,0-.24-1.16l.47,7.45a4.32,4.32,0,0,1-3.49,4.53,4.22,4.22,0,0,1-4.89-2.91,19.34,19.34,0,0,1-1.16-6.74,10.37,10.37,0,0,0-.58-3.73,23.49,23.49,0,0,1-.82-7.44V87.4l-.23,10.82v1.16a.7.7,0,0,1-.12.47h0a4.41,4.41,0,0,1-2.55,2.44,4.59,4.59,0,0,1-4.54-1.05h0s-.23-.23-.23-.35v-.11l-.12-.12a2.07,2.07,0,0,0-.23-.35.34.34,0,0,0-.12-.23v-.23l-.23-.47-.82-1-.46-1-.47-1.05-.46-1L1142,94l-.46-1.17-.35-1.16-.47-1.28-.35-1.28-.35-1.28-.46-1.28-.35-1.39-.35-1.28v-.58c-.12,0-.23.23-.23.23l-.47,1.16-.46,1.16-.47,1.28-.46,1.17-.47,1.16-.46,1.16-.47,1.17-.46,1.16-.47,1-.47,1-.46,1-.47,1-.46.93-.47.93-.93.82-.46.81-.47.7h0l-.7,1-.69.94-.7.93-.58.81-.59.81-.58.7-.58.7-.46.7-.47.58-.47.58-.46.58-.47.59-.46.46-.47.47-.46.46-.47.47-.46.46-.47.47-.46.46-.47.47-.46.46-.47.47-.46.46-.59.47-.58.46-1.51.47-.7.58-.7.58-.69.7-.7.7-.7.81-11.75,7.57,4.89-12.8.81-.82.81-.81.82-.7.7-.7.69-.69.7-.59.58-.58.59-.58.58-.46.58-.47.46-.47.47-.46.47-.47.46-.34.47-.35.46-.35.35-.35.47-.35.46-.35.35-.47.47-.46.46-.47.47-.46.46-.47,1-.46.46-.58.47-.7.58-.7.58-.7.58-.81.7-.93.7-.93h0l.23-.47.35-.58.35-.58.35-.7.35-.81.46-.82.47-.93.47-.93.46-1.05.47-1,.46-1,.47-1.16.46-1.17.47-1.16.46-1.16.47-1.17.46-1.16.47-1.16.46-1.17.47-1.16.46-1.16.35-1.17.35-1.05.35-1,.35-1,.35-.93.23-.93.24-.81.23-.7.23-.7h0c0-.12-.23-1.16-.23-1.16l-.23-1.28-.24-1.17-.23-1.16V62c-.12,0-.35-1-.35-1h0l-.12-1.28V58.43a5.52,5.52,0,0,1-.34-1.28V55.87c-.12,0-.24-1.28-.24-1.28V53.31c-.11,0-.23-1.16-.23-1.16V50.87L1133,49.7V32.14l.12-1.17V29.81l.12-1.16V27.37l.23-1.17V24.92l.23-1.28V22.37l2.1-16.29,6.51,18.15v1.28l-.23,1.16v1.16l-.23,1.17v1.16l-.12,1.16v2.33l-1.16,1.05V47.49l.11,1.17v1.16l.12,1.16v1.17l.23,1.16v1.16c.12,0,.23,1.17.23,1.17V56.8c.12,0,.24,1.16.24,1.16l.23,1.17.23,1.16h0l.12,1.05.23,1,.23,1,.24,1.17.23,1.16.23,1.16.23,1.17.24,1.28v0a54.26,54.26,0,0,1,1.28-9.54,4.45,4.45,0,0,1,4.77-3.26,2.16,2.16,0,0,1,.93.23,4.31,4.31,0,0,1,2.79,4.07v.24a4.3,4.3,0,0,1,4.3-2.68,3.63,3.63,0,0,1,1.17.23,4.39,4.39,0,0,1,2.67,3,4.18,4.18,0,0,1,3.26-1.75,4.25,4.25,0,0,1,1.74.23,4.37,4.37,0,0,1,2.8,3.61l3.6,30.83Zm26.87,38-.23-.81-.23-.82-.23-.81-.24-.93-.23-.82v-.93c-.12,0-.35-.81-.35-.81l-.23-.93-.23-.82-.24-.93-.23-.81L1197,122V121c-.12,0-.35-.82-.35-.82v-.93c-.12,0-.35-.81-.35-.81v-.93c-.12,0-.35-.82-.35-.82v-.93c-.11,0-.35-.81-.35-.81V114c-.11,0-.35-.82-.35-.82v-.93c-.11,0-.35-.81-.35-.81v-.82c-.11,0-.34-.81-.34-.81V109c-.12,0-.24-.82-.24-.82v-.81c-.11,0-.23-.82-.23-.82h0l-.23-1.28-.24-1.16-.34-1.16-.35-1.28-.7-1.17-.35-1.16-.47-1.28-.46-1.16-.47-1.17-.46-1.16-.47-1.28-.46-1.16L1188.5,91l-.59-1.16-.58-1.16-.58-1.17-.58-1.16-.58-1.16L1185,84l-.59-1.16L1184,81.7l-.47-1.17-.46-1.16-.47-1.16-.46-1-.47-1v-1c-.11,0-.46-1-.46-1l-.35-1-.35-1-.23-.93h0v-.46l-.35-3.38a4,4,0,0,0-2.79-3.6,3.07,3.07,0,0,0-1.75-.23,4.26,4.26,0,0,0-4.07,4.42c0,1.16,0,2.32.11,3.49a1.67,1.67,0,0,0,.24,1l.23.82.35,1.28.35,1.16.35,1.16.46,1.17.47,1.16.46,1.16.47,1.17.35.93a4.22,4.22,0,0,0-2.56,4.42c.23,2,.58,4.19.93,6.16.23,1.52.46,2.91.7,4.19l.23,3.14a4.32,4.32,0,0,0,8.61,0l.35.93.35,1,.35,1,.34,1,.24.93.23.93v.93c.12,0,.35.93.35.93h0v1.74l.23.93v.93l.23.94v.93c.12,0,.24.93.24.93v.93c.11,0,.23.93.23.93v.93c.12,0,.23.93.23.93V119c.12,0,.35.93.35.93v.93c.12,0,.35.93.35.93v.93c.12,0,.35.93.35.93v.93c.12,0,.35.94.35.94v.93c.11,0,.35.93.35.93v.93c.11,0,.35.81.35.81v.93c.11,0,.34.82.34.82v.93c.12,0,.35.81.35.81v.93c.12,0,.35.82.35.82v.93c.12,0,.35.81.35.81l6,21.41,3.84-22.34h0l-.23-.81-.23-.82Zm273.86-61.19.7-1,.69-1.16.7-1.05.7-1.16.82-1.16.69-1.17.7-1,.7-1.17.7-1.16.7-1.16.58-1.17.58-1.16.58-1.16.58-1.17.47-1.16.46-1.16.47-1.17.35-1.16h0l.23-.82.23-.81.24-.81.23-.82.23-.81.23-.82.24-.81.23-.82.23-.81.23-.81.24-.82.23-.81.23-.82.23-.81.24-.82.23-.81.23-.82.24-.81.34-.81.24-.82.35-.81.23-.82.35-.81.23-.82.23-.81.24-.81.34-.82.35-.81.24-.82.23-.81.23-.82.23-.81.7-17.8-9.19,15.82-.23.82-.35.81-.23.81-.35.82-.23.81-.35.82-.24.81-.34.93-.24.82-.35.81-.35.82-.34.81-.35.81L1480,34l-.35.81-1.16.82-.23.81-.23.82-.24.81-.23.81-.23.94-.23.81-.24.81-.23.82-.23.81-.24.93-.23.82-.23.81-.23.82-.24.81-.23.82h0l-.23.81-.23.81-.35.93-.35.94-.47.93-.46.93-.47.93v.23a4.46,4.46,0,0,0-8.72-.46l-.47,2.09c-.35,1.4-.93,3-1.39,4.65A54.4,54.4,0,0,0,1460,67a4.28,4.28,0,0,0,1,4.07,1.81,1.81,0,0,0,.93.7l-.58,1-.58,1.16-.58,1.16-.59,1.17-.58,1.16-.46,1.16-.47,1.17L1457.7,81l-.47,1.16h0a1.61,1.61,0,0,1-.23.7c-.23,1.16-.35,2.21-.58,3.37a4,4,0,0,0,1.16,3.61,3.61,3.61,0,0,0,2.33,1.28,4.26,4.26,0,0,0,5-3.26l.7-3.14a4.06,4.06,0,0,0,0-1.63l.35-.81.46-.93.47-.93.46-1,.58-1.05.59-1,.58-1,.7-1,.69-1.05.7-1,.7-1,.7-1.05ZM1462.93,54a4.3,4.3,0,0,0-3.49-4.89,4.18,4.18,0,0,0-5,3.26L1453,58l-.69,2.1c-.24.81-.47,1.51-.7,2.32l1.86-8.84a4.32,4.32,0,0,0-2.91-5,4.24,4.24,0,0,0-5.23,2.33,21.08,21.08,0,0,0-2,6.51,10.26,10.26,0,0,1-1.05,3.61,20,20,0,0,0-1.63,7.1,8.84,8.84,0,0,1-.23,1.86l.7-6.05,1.16-10.59h0v-.58a4.21,4.21,0,0,0-2.56-3.84,4.51,4.51,0,0,0-5,1.16s-.12.24-.23.24h0a.36.36,0,0,1-.12.23l-.47.7-.58.93-.58.93-.58,1.05-.58,1-.58,1-.59,1.05-.81,1.16-.58,1.16-.58,1.17-.58,1.28-.59,1.28-.58,1.28-.58,1.27v.47a.38.38,0,0,1-.23-.12l-.35-1.28-.23-1.28-.35-1.28-.35-1.27-.35-1.28-.35-1.28-.35-1.28-.35-1.17-.35-1.16-.35-1.16-.35-1.05-.34-1-.35-.93-.35-.93-.35-.93-.35-.81-.35-.82h0l-.58-1-.47-1-.46-.93-.47-.82-.46-.81-1-.7-.46-.7-.47-.7-.47-.69-.46-.59-.35-.58-.35-.58-.35-.58-.35-.58-.35-.58-.34-.47-.35-.47-.35-.46-.35-.47-.47-.46-.46-.47-.35-.46-.47-.58-.46-.59-.47-.58-.46-.69-.58-.7-.59-.7-.58-.7-.58-.81-.58-.82-1.75-.93L1388.71,14.8l9.07,17.45.7.93.7.82.58.81.58.7.59.7.58.7.46.58.47.58.46.58.47.58.46.47.47.46.35.47.35.47,1,.46.35.47.35.46.35.47.35.46.35.47.35.46.35.58.35.59.35.58.34.58.47.7.46.81.47.82.47.93.58.93.58,1h0l.23.47.23.58.24.7.35.7.34.81.35.93.35.93.35,1,.35,1.05.35,1.16.35,1.16.35,1.17.35,1.16.35,1.16.34,1.17.35,1.28.35,1.16.24,1.16.34,1.17L1419,72l.23,1.16.23,1.17.24,1,.23,1,.23,1.05.23.93v.93c.12,0,.35.81.35.81V81c.12,0,.35.7.35.7h0l-.35,1.16-.35,1.16-.35,1.17-.34,1.16-.35,1.05v1h.23l-.35,1.17-.35,1.28-.35,1.16-.23,1.16-.23,1.17-.24,1.16-.23,1.16-.23,1.17L1417.1,99l-.24,1.16-.23,1.17-.23,1.16v1.16c-.12,0-.35,1.17-.35,1.17V106c-.12,0-.23,1.16-.23,1.16v1.17c-.12,0-.24,1.16-.24,1.16v1.16c-.11,0-.23,1.17-.23,1.17V113l-.23,1.16v1.17l-.12,1.16v1.16l-.11,1.17V120l-.12,1.28v1.16l-.12,1.28V125l1.63,18.27,5.47-16.52v-1.28l.23-1.28V123l.23-1.17v-1.16l.24-1.16v-1.17l.23-1.16V116c.12,0,.23-1.17.23-1.17v-1.16l.24-1.16v-1.17l.23-1.16V109c.11,0,.23-1.17.23-1.17l.23-1.16.24-1.16.23-1.17v-1.16c.12,0,.35-1.16.35-1.16l.23-1,.23-1.16.24-1.17.23-1.05.23-1.16.23-1.16.24-1.17.23-1.16.35-1.16.35-1.17.35-1.16h0l.23-.93.35-1,.35-1,.35-1,.34-1.16.35-1.17.47-1.16.35-1.16V80.3c.11,0,.11.47.11.47a67.49,67.49,0,0,0,0,9.54,4.84,4.84,0,0,0,1.17,2.44,4.62,4.62,0,0,0,3.14,1.39A4.36,4.36,0,0,0,1439,91a2,2,0,0,0,.58.82,4.31,4.31,0,0,0,2.91,1.39,4.47,4.47,0,0,0,4.53-3.49,5,5,0,0,0,.93,1.52,3.68,3.68,0,0,0,2.33,1.28,4.38,4.38,0,0,0,5-3.26l7.22-29.67a41.67,41.67,0,0,0,1.51-6.28Zm-49.79,32.57a136.25,136.25,0,0,1-16.64.93c-18.38,0-34.78-3.49-50.72-6.86-15,2.44-29.31,4.77-43.39,4.77h-4C1285.52,85,1272.61,83,1259,80.77a1.93,1.93,0,0,1-.82-.12c-18.5,3.84-39.32,7.91-63.17,6.51a4.08,4.08,0,1,1,.47-8.14,178.52,178.52,0,0,0,37.69-2,187.61,187.61,0,0,0-44.33-.35,4,4,0,0,1-1-8c25.48-3.14,48.28.23,70.15,3.72a1,1,0,0,0,.58-.12c16.29-3.37,31.76-6.63,47.58-5.93,13.5.58,26.29,3.26,39.79,6.17,19.66-3.26,42-6.87,66.54-5.59a4.06,4.06,0,0,1,3.84,4.31,4,4,0,0,1-4.3,3.84,228.69,228.69,0,0,0-42.58,2.09,151.63,151.63,0,0,0,42.69,1.51,4.1,4.1,0,1,1,.93,8.15ZM1321.82,76a148.09,148.09,0,0,0-16.06-1.63A112.28,112.28,0,0,0,1282.5,76a157,157,0,0,0,16,1.28A160,160,0,0,0,1321.82,76Zm442.77-18.27a4.49,4.49,0,0,0-2.79-3.6,3.05,3.05,0,0,0-1.75-.24,4.56,4.56,0,0,0-3.25,1.75,4.4,4.4,0,0,0-2.68-3,4.39,4.39,0,0,0-5.47,2.45v-.24a4.31,4.31,0,0,0-2.79-4.07,2.65,2.65,0,0,0-.93-.23,4.45,4.45,0,0,0-4.77,3.26,55.22,55.22,0,0,0-1.28,9.54v0l-.23-1.28-.23-1.17-.24-1.16-.23-1.16-.23-1.17-.23-1-.24-1.05v-1H1737l-.23-1.16-.24-1.17V50.75c-.11,0-.23-1.16-.23-1.16V48.42c-.11,0-.23-1.16-.23-1.16V46.1l-.23-1.17V43.77l-.12-1.16V41.44l-.12-1.16V28.65l1.17-1V24.11l.11-1.16V21.78l.24-1.16V19.46l.23-1.28L1730.85,0l-2,16.29V17.6l-.12,1.28v1.27l-.23,1.17V22.6l-.12,1.16v1.16l-.12,1.17v1.16l-.11,1.16V43.65l.11,1.17V46.1l.12,1.16v1.28c.12,0,.23,1.28.23,1.28V51.1c.12,0,.24,1.28.24,1.28v1.28a5.55,5.55,0,0,1,.35,1.28h0l.11,1.05v1.16c.12,0,.35,1.16.35,1.16l.23,1.17.24,1.28.23,1h0a7.39,7.39,0,0,1-.23.82l-.24.7-.23.81-.23.93-.35.93-.35,1.05-.35,1-.35,1-.35,1.17-.46,1.16-.47,1.16-.46,1.17-.47,1.16-.46,1.16-.47,1.17-.46,1.16L1724,79.6l-.47,1.17-.46,1.16-.47,1-.46,1-.47,1-.46.93-.47.93-.46.82-.35.81-.35.7-.35.58-.35.58-.23.47h0l-.7.93-.7.93-.58.81-.58.7-.58.7-.47.7-.46.58-1,.46-.47.47-.46.46-.47.47-.46.47-.35.46-.47.35-.46.35-.35.35-.47.35-.46.35-.47.34-.46.47-.47.47-.46.46-.58.47-.59.46-.58.58-.58.58-.7.59-.7.69-.69.7-.82.7-.81.81-.82.82-4.88,12.8,11.75-7.57.7-.81.69-.7.7-.7.7-.58.7-.58,1.51-.46.58-.47.58-.47.47-.46.46-.47.47-.46.46-.47.47-.46.47-.47.46-.46.47-.47.46-.46.47-.47.46-.46.47-.59.46-.58.47-.58.46-.58.47-.7.58-.7.58-.69.58-.82.59-.81.69-.93.7-.94.7-1h0l.47-.7.46-.81.93-.82.47-.93.46-.93.47-1.05.46-1,.47-1,.46-1,.47-1.16.46-1.16.47-1.17.46-1.16.47-1.17.47-1.27.46-1.17.47-1.16v-.23l.23.58.35,1.28.35,1.39.46,1.28.35,1.28.35,1.28.47,1.28.34,1.17L1737,88l.47,1.16.46,1,.47,1,.46,1,.82,1,.23.47V94a.37.37,0,0,0,.11.23c0,.12.12.23.24.35l.11.12v.11a1.51,1.51,0,0,0,.24.35h0a4.34,4.34,0,0,0,4.53,1,4.08,4.08,0,0,0,2.56-2.44h0c0-.12.12-.35.12-.47v-12c.12,0,.23-7.45.23-7.45a14.81,14.81,0,0,1,0,3.26,23.57,23.57,0,0,0,.82,7.45,14,14,0,0,1,.58,3.72,19.19,19.19,0,0,0,1.16,6.75,4.24,4.24,0,0,0,4.89,2.9,4.13,4.13,0,0,0,3.49-4.53l-.47-7.45a4.26,4.26,0,0,0,.23,1.16c.12.82.35,1.52.47,2.33l.58,5.35a4.38,4.38,0,0,0,8.73-.58,31.9,31.9,0,0,0-.7-6.05l-3.61-30.83Zm30.48,68.87-.23-.81-.23-.82-.24-.81-.23-.93-.23-.82v-.93c-.12,0-.35-.81-.35-.81l-.23-.93-.24-.82-.23-.93-.23-.81-.23-.93v-.93c-.12,0-.35-.82-.35-.82v-.93c-.12,0-.35-.81-.35-.81v-.93c-.12,0-.35-.82-.35-.82v-.93c-.12,0-.35-.81-.35-.81v-.93c-.12,0-.35-.82-.35-.82v-.93c-.12,0-.35-.81-.35-.81V105c-.11,0-.35-.81-.35-.81v-.81c-.11,0-.23-.82-.23-.82v-.81c-.12,0-.23-.82-.23-.82h0l-.24-1.28-.23-1.16-.35-1.16-.35-1.28-.69-1.17-.35-1.16-.47-1.28-.46-1.16-.47-1.17-.46-1.16-.47-1.28-.47-1.16-.58-1.17-.58-1.16-.58-1.16-.58-1.17-.58-1.16-.59-1.16-.58-1.17-.58-1.16-.46-1.16-.47-1.17-.46-1.16-.47-1.16-.47-1.05-.46-1v-1c-.12,0-.47-1.05-.47-1.05l-.35-1-.34-1-.24-.93h0v-.46l-.35-3.38a4,4,0,0,0-2.79-3.6,3,3,0,0,0-1.74-.23,4.26,4.26,0,0,0-4.07,4.42c0,1.16,0,2.32.11,3.49a1.74,1.74,0,0,0,.23,1l.24.82.35,1.28.35,1.16.34,1.16.47,1.17.46,1.16.47,1.16.47,1.17.34.93A4.21,4.21,0,0,0,1768,81c.23,2,.58,4.19.93,6.16.23,1.52.46,2.91.69,4.19l.24,3.14a4.32,4.32,0,0,0,8.61,0l.34.93.35,1,.35,1,.35,1,.23.93.24.93v.93c.11,0,.35.93.35.93h0V104l.23.93v.93l.23.94v.93c.12,0,.23.93.23.93v.93c.12,0,.24.93.24.93v.93c.11,0,.23.93.23.93v.93c.12,0,.35.93.35.93v.93c.11,0,.35.93.35.93v.93c.11,0,.35.93.35.93v.93c.11,0,.35.93.35.93v.94c.11,0,.34.93.34.93v.93c.12,0,.35.81.35.81v.93c.12,0,.35.82.35.82v.93c.12,0,.35.81.35.81v.93c.12,0,.35.82.35.82v.93c.12,0,.35.81.35.81l6,21.41,3.84-22.34h0l-.24-.81-.23-.82Zm225.34-61.19a4,4,0,0,1-4.3,3.84c-16.4-.82-32.57.46-48.51,2.56a151,151,0,0,0,39.9,1,4.06,4.06,0,0,1,4.54,3.6,4,4,0,0,1-3.61,4.54,136.2,136.2,0,0,1-16.63.93c-17.8,0-33.74-3.26-49.21-6.52-15.94,2.33-31.18,4.43-44.91,4.43h-4c-12.91-.47-25.82-2.45-39.43-4.66a2.09,2.09,0,0,1-.82-.11c-18.5,3.83-39.32,7.91-63.17,6.51a4.08,4.08,0,1,1,.47-8.14,179.87,179.87,0,0,0,37.69-2,187.53,187.53,0,0,0-44.32-.35,4,4,0,1,1-1.05-8c25.48-3.14,48.28.24,70.15,3.73a1,1,0,0,0,.58-.12c16.29-3.37,31.76-6.63,47.58-5.93,13.61.58,26.64,3.37,40.37,6.28a3.31,3.31,0,0,1,1,.23,8.42,8.42,0,0,0,1.63-.23c22.1-3.26,47.23-7,72-5.7a4.06,4.06,0,0,1,3.84,4.3Zm-102.72,5a156.45,156.45,0,0,0-16.52-1.74,112.43,112.43,0,0,0-23.27,1.63A157.41,157.41,0,0,0,1894,71.58,170,170,0,0,0,1917.69,70.41ZM1054.83,75.3c-15.94,2.32-31.18,4.42-44.91,4.42h-4c-12.91-.47-25.82-2.44-39.43-4.65a2,2,0,0,1-.82-.12c-18.49,3.84-39.32,7.91-63.17,6.51a4.08,4.08,0,1,1,.47-8.14,179.19,179.19,0,0,0,37.69-2A187.53,187.53,0,0,0,896.38,71a4,4,0,1,1-1-8c25.48-3.14,48.28.23,70.15,3.72a1,1,0,0,0,.58-.12c16.29-3.37,31.76-6.63,47.58-5.93,13.61.58,26.64,3.37,40.37,6.28a3.6,3.6,0,0,1,1,.23,7.62,7.62,0,0,0,1.63-.23c22.1-3.26,47.23-7,72-5.7a4.08,4.08,0,1,1-.47,8.15c-16.4-.82-32.57.46-48.51,2.55a150.26,150.26,0,0,0,39.91,1,4.1,4.1,0,0,1,.93,8.14,136.42,136.42,0,0,1-16.64.94c-17.8,0-33.74-3.26-49.21-6.52Zm-24.9-4.89a156.45,156.45,0,0,0-16.52-1.74,112.43,112.43,0,0,0-23.27,1.63,157.41,157.41,0,0,0,16.06,1.28A170,170,0,0,0,1029.93,70.41Zm615.18,7.1c-17.68,2.79-34.43,5.47-48.62,5.47h-4.19c-13.61-.59-26.64-3.38-40.37-6.29a3.31,3.31,0,0,1-1-.23c-.58,0-1.28.23-1.86.23-19.19,2.8-40.6,5.94-62,5.94s-7,0-10.35-.24a4.08,4.08,0,1,1,.47-8.14c16.52.82,32.92-.58,49-2.56a150.28,150.28,0,0,0-39.78-1,4.1,4.1,0,1,1-.93-8.14c24.66-2.91,45.6,1.28,65.84,5.59,17.68-2.56,34.32-4.89,49-4.43,12.91.47,25.83,2.45,39.44,4.66,1.86.35,3.72.58,5.7.93a2.48,2.48,0,0,0,.93-.12c23.85-3.84,51-8.14,75.73-6.75a4.08,4.08,0,0,1-.46,8.15c-15-.93-30.72.46-46.42,2.44a174.64,174.64,0,0,0,34.78-.58,4,4,0,0,1,1,8c-23.73,3-45,.23-65.5-3Zm-27.68-4.19c-5.94-.7-11.87-1.28-17.69-1.51A169.91,169.91,0,0,0,1576,73a159.6,159.6,0,0,0,16.52,1.75C1600,75.07,1608.35,74.37,1617.43,73.32Z"/></g></g></g></g></svg>