<svg xmlns="http://www.w3.org/2000/svg" viewBox="0 0 1745.1 277.32"><defs><style>.cls-1{fill:#15b0be;}</style></defs><title>52be9ffd-1ed4-46f8-888d-08a05c974835-child-0american</title><g id="Layer_2" data-name="Layer 2"><g id="Layer_1-2" data-name="Layer 1"><g id="_52be9ffd-1ed4-46f8-888d-08a05c974835-child-0" data-name="52be9ffd-1ed4-46f8-888d-08a05c974835-child-0"><path class="cls-1" d="M72.92,71.88c175.46,93.71,400.2,103.78,644.23,64,337.19-55,450.06-129.59,528-106.62,69.63,20.53-93.21,85-95.4,124-2.51,44.45,323.2,12.64,595.36-64.76-50.1,43.84-479.41,178.89-740.93,178.89-147.22,0,95.4-123.21-51.26-97.27-122.58,21.67-330.61,71.34-559,42.38-156.55-19.85-259.06-55-321-140.57Zm1130.27,47.38c-141.73,102.4,428-.68,539.12-45.6C1648.68,104.66,1223.21,185.6,1203.19,119.26Zm539.12-14.84c-223.26,120.16-552,167-638.64,171.73C1310.92,287.74,1586.94,212,1742.31,104.42ZM0,0C317.46,232.19,781.29,130.31,1088.88,29.22,429.31,204.54,151.34,83.71,0,0Z"/></g></g></g></svg>