<svg xmlns="http://www.w3.org/2000/svg" viewBox="0 0 2231.35 232.07"><defs><style>.cls-1{fill:#fff;}</style></defs><title>55a9c5df-e398-4ce8-be56-6e7f4aa92e4emdpi</title><g id="Layer_2" data-name="Layer 2"><g id="Layer_1-2" data-name="Layer 1"><g id="_55a9c5df-e398-4ce8-be56-6e7f4aa92e4e" data-name="55a9c5df-e398-4ce8-be56-6e7f4aa92e4e"><g id="_9de00285-efc9-4228-8bb2-1f344f12b5fa" data-name="9de00285-efc9-4228-8bb2-1f344f12b5fa"><path class="cls-1" d="M0,88.54,12.48,1h17.6l13.27,87.5H30.92L28.83,72.93H14.71L12.82,88.54Zm16-26.3H27.44L21.57,18.29h-.19Zm59.9,26.3L65.22,1H77.15l6.42,62.34L91.72,1h10.74l8.2,62.34L116.33,1h12l-10,87.5H105L97.24,30.37,89.18,88.54Zm55,0L143.42,1H161l13.27,87.5H161.87l-2.09-15.61H145.66l-1.89,15.61Zm16-26.3h11.44l-5.87-43.95h-.2Zm35.25,26.3V1h10.44l18.54,52.5-.94-23.86V1h12v87.5h-9.45l-19-54.34.75,23V88.54Zm57.72,0v-76H229.68V1H263V12.58h-9.84v76Zm30.57,0V1h29.33V12.53h-16V38H299V49.22H283.81V77.06h16.61V88.54Zm39.77,0V1H329.9q6.66,0,10.69,2.66a15,15,0,0,1,5.84,7.68,35.84,35.84,0,0,1,1.81,12.13L348.29,63a46.66,46.66,0,0,1-1.86,14.29,15.76,15.76,0,0,1-6,8.48q-4.12,2.77-11,2.78ZM323.59,78.2H328a7.41,7.41,0,0,0,3.9-1,5.69,5.69,0,0,0,2.34-3.35,23.71,23.71,0,0,0,.77-6.84l-.05-43.2c0-4.47-.55-7.69-1.64-9.64s-3-2.94-5.77-2.94h-3.92Zm59.6,10.34v-76H373V1h33.36V12.58h-9.84v76Zm30.58,0V1H443.1V12.53h-16V38H442.3V49.22H427.09V77.06h16.6V88.54Zm39.77,0V1h19.63q6.68,0,10.69,2.66a14.93,14.93,0,0,1,5.84,7.68,35.82,35.82,0,0,1,1.82,12.13L491.57,63a46.32,46.32,0,0,1-1.87,14.29,15.71,15.71,0,0,1-6,8.48q-4.12,2.77-11,2.78ZM466.86,78.2h4.38a7.46,7.46,0,0,0,3.9-1,5.72,5.72,0,0,0,2.33-3.35,23.31,23.31,0,0,0,.78-6.84l-.05-43.2c0-4.47-.55-7.69-1.65-9.64s-3-2.94-5.76-2.94h-3.93Zm36.79,10.34V1h19.64Q530,1,534,3.7a14.94,14.94,0,0,1,5.85,7.68,35.84,35.84,0,0,1,1.81,12.13l0,39.48a46.66,46.66,0,0,1-1.86,14.29,15.76,15.76,0,0,1-6,8.48q-4.12,2.77-11,2.78ZM517,78.2h4.38a7.46,7.46,0,0,0,3.9-1,5.69,5.69,0,0,0,2.34-3.35,23.71,23.71,0,0,0,.77-6.84l-.05-43.2c0-4.47-.55-7.69-1.64-9.64s-3-2.94-5.77-2.94H517Zm45.74,10.34V53.59L548,1h12.73l8.65,32.71h.2L577.32,1H590L576,53.59v35Zm52.94,0V1h19q6.61,0,10.53,2a11.9,11.9,0,0,1,5.7,6.36,31,31,0,0,1,1.76,11.41v2.68a30.54,30.54,0,0,1-1.76,11.21,10.67,10.67,0,0,1-5.89,6.14A10.65,10.65,0,0,1,650.43,45a19.59,19.59,0,0,1,3,7.2,45.76,45.76,0,0,1,.89,9.33v2.23a43.22,43.22,0,0,1-2,14.25A14.85,14.85,0,0,1,646,86q-4.23,2.53-11,2.54ZM629,78.2h4.72A6.84,6.84,0,0,0,637.9,77a6.69,6.69,0,0,0,2.26-3.9,31.25,31.25,0,0,0,.7-7.46V58.61q0-6.36-1.22-9.27t-5-2.91H629Zm0-41.76h4.92a6.9,6.9,0,0,0,2.83-.5,3.43,3.43,0,0,0,1.69-1.71,10.3,10.3,0,0,0,.82-3.41c.15-1.46.23-3.32.23-5.57V20a17,17,0,0,0-.65-5.36,4.11,4.11,0,0,0-2-2.49,7.79,7.79,0,0,0-3.41-.65H629Zm35.59,52.1V1H693.9V12.53h-16V38h15.21V49.22H677.9V77.06h16.6V88.54Zm34.6,0L711.65,1h17.6l13.27,87.5H730.1L728,72.93H713.89L712,88.54Zm16-26.3h11.44l-5.87-43.95h-.2Zm35.25,26.3V1h22q6.85,0,10.24,2.69a12.94,12.94,0,0,1,4.45,7.85,63.76,63.76,0,0,1,1.07,12.63q0,7.71-1.57,12.11a9.23,9.23,0,0,1-6.38,5.89,7.14,7.14,0,0,1,3.82,1.86,10.38,10.38,0,0,1,2.49,4.28,33.41,33.41,0,0,1,1.37,7.2q.42,4.39.42,10.77V69.1c0,1.53,0,3.33,0,5.4s0,4.13.08,6.18.08,3.82.15,5.27a13.87,13.87,0,0,0,.25,2.59H775.53a11.13,11.13,0,0,1-.22-2.56q-.07-2.31-.15-5.89t-.1-7.71q0-4.12,0-8.13V57.17a22.71,22.71,0,0,0-.58-5.94,4.29,4.29,0,0,0-2.08-2.81,10.66,10.66,0,0,0-4.35-.94l-4.28-.25V88.54ZM763.8,36.89h5.32a5.49,5.49,0,0,0,3.7-1.1,6.56,6.56,0,0,0,1.74-4,56.19,56.19,0,0,0,.48-8.46v-.54a42.45,42.45,0,0,0-.45-7.11,4.92,4.92,0,0,0-1.87-3.43,8,8,0,0,0-4.39-1H763.8Zm54.14,51.65V1h18.94q6.61,0,10.54,2a11.84,11.84,0,0,1,5.69,6.36,30.73,30.73,0,0,1,1.77,11.41v2.68a30.31,30.31,0,0,1-1.77,11.21,10.64,10.64,0,0,1-5.89,6.14A10.65,10.65,0,0,1,852.71,45a19.25,19.25,0,0,1,3,7.2,45,45,0,0,1,.9,9.33v2.23a43.22,43.22,0,0,1-2,14.25,14.82,14.82,0,0,1-6.22,8q-4.21,2.53-11,2.54ZM831.26,78.2H836a6.88,6.88,0,0,0,4.2-1.17,6.8,6.8,0,0,0,2.26-3.9,31.87,31.87,0,0,0,.69-7.46V58.61q0-6.36-1.21-9.27c-.81-1.94-2.5-2.91-5-2.91h-5.62Zm0-41.76h4.92a7,7,0,0,0,2.84-.5,3.47,3.47,0,0,0,1.69-1.71,10.3,10.3,0,0,0,.82-3.41c.15-1.46.22-3.32.22-5.57V20a17,17,0,0,0-.64-5.36,4.09,4.09,0,0,0-2-2.49,7.71,7.71,0,0,0-3.4-.65h-4.48Zm30.43,52.1L874.17,1h17.59L905,88.54H892.61l-2.09-15.61H876.4l-1.89,15.61Zm16-26.3h11.43l-5.87-43.95h-.2Zm35.24,26.3V1h10.44l18.55,52.5L941,29.68V1h12v87.5h-9.44l-19-54.34.74,23V88.54Zm53.15,0V1h19.63q6.67,0,10.69,2.66a14.93,14.93,0,0,1,5.84,7.68,35.82,35.82,0,0,1,1.82,12.13l0,39.48a46.32,46.32,0,0,1-1.87,14.29,15.71,15.71,0,0,1-6,8.48q-4.12,2.77-11,2.78ZM979.41,78.2h4.37a7.47,7.47,0,0,0,3.91-1A5.72,5.72,0,0,0,990,73.9a23.71,23.71,0,0,0,.77-6.84l0-43.2c0-4.47-.55-7.69-1.64-9.64s-3-2.94-5.76-2.94h-3.93Zm37.09,10.34V1h13.32v87.5Zm31.27,0v-76h-10.24V1h33.35V12.58H1061v76Zm30.07,16.8,3.48-16.8h-6.21V75.22h14.32V88.09l-5.07,17.25Zm35.35-16.8L1125.67,1h17.6l13.27,87.5h-12.43L1142,72.93h-14.11L1126,88.54Zm16-26.3h11.43l-5.86-43.95h-.2Zm71.44,27.29a18.15,18.15,0,0,1-10.59-2.93,17.51,17.51,0,0,1-6.34-8.58,39,39,0,0,1-2.11-13.64V26.25a54.1,54.1,0,0,1,1-10.84,23.77,23.77,0,0,1,3.23-8.25,14.79,14.79,0,0,1,6-5.27A20.62,20.62,0,0,1,1201,.05a20.24,20.24,0,0,1,8.48,1.61,14.41,14.41,0,0,1,5.72,4.65,20.36,20.36,0,0,1,3.23,7.34,42,42,0,0,1,1,9.66v12h-12.88V24.16q0-6.46-1.09-9.52a4.26,4.26,0,0,0-4.38-3.06,4.71,4.71,0,0,0-4.84,3.31,27.64,27.64,0,0,0-1.22,9.22V65a43.54,43.54,0,0,0,.52,7.48,8.53,8.53,0,0,0,1.77,4.27,5,5,0,0,0,8-1.81q1.19-3.18,1.19-10.09V52.3h13.08V64.68a42.43,42.43,0,0,1-1.94,13.84,15.59,15.59,0,0,1-6.14,8.28Q1207.35,89.53,1200.64,89.53Zm48.92,0q-6.82,0-11.09-2.56a14.93,14.93,0,0,1-6.27-7.75,37.35,37.35,0,0,1-2-13.15V1h13.32V65.82a58,58,0,0,0,.32,6.46,8.35,8.35,0,0,0,1.57,4.33,4.94,4.94,0,0,0,4.08,1.54,5.07,5.07,0,0,0,4.1-1.52,7.92,7.92,0,0,0,1.56-4.3,61.47,61.47,0,0,0,.3-6.51V1h13.32v65a37.62,37.62,0,0,1-2,13.15,14.83,14.83,0,0,1-6.21,7.75q-4.24,2.57-11.06,2.56Zm31.66-1V1h19.64q6.66,0,10.69,2.66a15,15,0,0,1,5.84,7.68,35.84,35.84,0,0,1,1.81,12.13l0,39.48a46.66,46.66,0,0,1-1.86,14.29,15.71,15.71,0,0,1-6,8.48q-4.12,2.77-11,2.78Zm13.33-10.34h4.37a7.41,7.41,0,0,0,3.9-1,5.69,5.69,0,0,0,2.34-3.35,23.71,23.71,0,0,0,.77-6.84l0-43.2c0-4.47-.55-7.69-1.64-9.64s-3-2.94-5.77-2.94h-3.92Zm36.78,10.34V1H1351q6.66,0,10.69,2.66a14.93,14.93,0,0,1,5.84,7.68,35.82,35.82,0,0,1,1.82,12.13l0,39.48a46.32,46.32,0,0,1-1.87,14.29,15.71,15.71,0,0,1-6,8.48q-4.12,2.77-11,2.78Zm13.33-10.34H1349a7.41,7.41,0,0,0,3.9-1,5.69,5.69,0,0,0,2.34-3.35,23.71,23.71,0,0,0,.77-6.84l0-43.2c0-4.47-.55-7.69-1.64-9.64s-3-2.94-5.77-2.94h-3.92Zm36.79,10.34V1h13.32V77.2h16.85V88.54Zm41.85,0V53.59L1408.64,1h12.73L1430,33.75h.2L1437.92,1h12.68l-14,52.55v35Zm53,0V1h30V12.63h-16.71V35.89h15.51V47.53h-15.51v41Zm58,1q-6.81,0-11.09-2.56a14.86,14.86,0,0,1-6.26-7.75,37.11,37.11,0,0,1-2-13.15V1h13.32V65.82a58,58,0,0,0,.32,6.46,8.35,8.35,0,0,0,1.57,4.33,4.94,4.94,0,0,0,4.08,1.54,5.07,5.07,0,0,0,4.1-1.52,7.77,7.77,0,0,0,1.56-4.3,61.47,61.47,0,0,0,.3-6.51V1h13.33v65a37.6,37.6,0,0,1-2,13.15,14.83,14.83,0,0,1-6.21,7.75q-4.24,2.57-11.06,2.56Zm48.12-.1a15.32,15.32,0,0,1-12.73-6.23q-4.82-6.24-4.82-20.26v-38A44.52,44.52,0,0,1,1566,14.42a21.65,21.65,0,0,1,3.48-7.83,14.93,14.93,0,0,1,6.14-4.88,22.48,22.48,0,0,1,9.1-1.66,22.14,22.14,0,0,1,9.39,1.71,12.73,12.73,0,0,1,5.59,5,21.77,21.77,0,0,1,2.71,8,68.73,68.73,0,0,1,.75,10.69v6.22h-12.43V22.47q0-5.92-1.22-8.4t-4.6-2.49a5.27,5.27,0,0,0-5.17,2.91q-1.44,2.91-1.44,10.32V62.74q0,8.25,1.22,11.81a4.9,4.9,0,0,0,5.1,3.55,5.46,5.46,0,0,0,5.34-3.65q1.57-3.66,1.57-12.21V50.46h-6.71v-9.7h18.34V88.54h-6l-2-8.6a11.56,11.56,0,0,1-4.65,7,13.82,13.82,0,0,1-8.08,2.48Zm33.56-.89V1h13.32v87.5Zm31.27,0v-76H1637V1h33.36V12.58h-9.84v76Zm30.87,0V1h13.32v87.5Zm35.59,0L1700.11,1h12.68l5.72,39.53L1722,68.41h.34l3-27.84L1730.19,1h12.43l-12.48,87.5Zm37.34,0V1h29.33V12.53h-16V38h15.21V49.22h-15.21V77.06H1781V88.54Zm41.76,16.8,3.48-16.8H1790V75.22h14.32V88.09l-5.07,17.25Zm40.51-16.8V1h10.44l18.55,52.5-1-23.86V1h12v87.5h-9.44l-19-54.34.74,23V88.54Zm71.54,1q-6.81,0-11.11-2.88a16.68,16.68,0,0,1-6.34-8.55,41.74,41.74,0,0,1-2-14v-40a37.13,37.13,0,0,1,2-12.92,16.5,16.5,0,0,1,6.32-8.26Q1898,0,1905,0a21.63,21.63,0,0,1,8.9,1.64,14.36,14.36,0,0,1,5.87,4.75,20.64,20.64,0,0,1,3.25,7.55,45.51,45.51,0,0,1,1,10.12v40a43.22,43.22,0,0,1-2,14,16.51,16.51,0,0,1-6.19,8.55q-4.23,2.88-11,2.88Zm0-11.53a4.59,4.59,0,0,0,3.73-1.49,9,9,0,0,0,1.67-4.55,58.61,58.61,0,0,0,.42-7.73V23.46a28.4,28.4,0,0,0-1.07-8.82,4.39,4.39,0,0,0-4.6-3.11,4.85,4.85,0,0,0-4.92,3c-.86,2-1.29,5-1.29,8.87V64.23a59.53,59.53,0,0,0,.42,7.83,8.23,8.23,0,0,0,1.74,4.5,5,5,0,0,0,3.9,1.44Zm35.85,10.54v-76h-10.24V1h33.35V12.58H1954v76Zm49,1q-6.81,0-11.11-2.88a16.61,16.61,0,0,1-6.33-8.55,41.74,41.74,0,0,1-2-14v-40a37.13,37.13,0,0,1,2-12.92,16.42,16.42,0,0,1,6.31-8.26Q1982.78,0,1989.79,0a21.63,21.63,0,0,1,8.9,1.64,14.36,14.36,0,0,1,5.87,4.75,20.47,20.47,0,0,1,3.25,7.55,45.51,45.51,0,0,1,1,10.12v40a43.22,43.22,0,0,1-2,14,16.46,16.46,0,0,1-6.19,8.55q-4.22,2.88-11,2.88Zm0-11.53a4.59,4.59,0,0,0,3.73-1.49A9,9,0,0,0,1995,72a58.61,58.61,0,0,0,.42-7.73V23.46a28.4,28.4,0,0,0-1.07-8.82,4.39,4.39,0,0,0-4.6-3.11,4.85,4.85,0,0,0-4.92,3c-.86,2-1.29,5-1.29,8.87V64.23a59.53,59.53,0,0,0,.42,7.83,8.23,8.23,0,0,0,1.74,4.5,5,5,0,0,0,3.9,1.44Zm31.27,10.54V1h22q6.86,0,10.24,2.69a12.94,12.94,0,0,1,4.45,7.85,63.76,63.76,0,0,1,1.07,12.63q0,7.71-1.57,12.11a9.23,9.23,0,0,1-6.39,5.89,7.14,7.14,0,0,1,3.83,1.86,10.38,10.38,0,0,1,2.49,4.28,32.87,32.87,0,0,1,1.36,7.2q.43,4.39.43,10.77V69.1c0,1.53,0,3.33,0,5.4s.05,4.13.08,6.18.08,3.82.14,5.27a13.87,13.87,0,0,0,.25,2.59H2046a11.13,11.13,0,0,1-.22-2.56q-.08-2.31-.15-5.89c-.05-2.39-.09-5-.1-7.71s0-5.46,0-8.13V57.17a23.24,23.24,0,0,0-.57-5.94,4.31,4.31,0,0,0-2.09-2.81,10.66,10.66,0,0,0-4.35-.94l-4.27-.25V88.54Zm13.38-51.65h5.32a5.52,5.52,0,0,0,3.7-1.1,6.56,6.56,0,0,0,1.74-4,57.84,57.84,0,0,0,.47-8.46v-.54a43.78,43.78,0,0,0-.44-7.11,4.92,4.92,0,0,0-1.87-3.43,8.07,8.07,0,0,0-4.4-1h-4.52Zm36.19,51.65V1h13.32v87.5Zm45.09,1q-6.81,0-11.11-2.88a16.68,16.68,0,0,1-6.34-8.55,41.74,41.74,0,0,1-2-14v-40a37.13,37.13,0,0,1,2-12.92,16.53,16.53,0,0,1,6.31-8.26Q2108.72,0,2115.72,0a21.63,21.63,0,0,1,8.9,1.64,14.33,14.33,0,0,1,5.86,4.75,20.65,20.65,0,0,1,3.26,7.55,45.51,45.51,0,0,1,1,10.12v40a43.22,43.22,0,0,1-2,14,16.51,16.51,0,0,1-6.19,8.55q-4.23,2.88-11,2.88Zm0-11.53a4.59,4.59,0,0,0,3.73-1.49A9,9,0,0,0,2121,72a56.72,56.72,0,0,0,.43-7.73V23.46a28.4,28.4,0,0,0-1.07-8.82,4.39,4.39,0,0,0-4.6-3.11,4.85,4.85,0,0,0-4.92,3c-.87,2-1.3,5-1.3,8.87V64.23a57.62,57.62,0,0,0,.43,7.83,8.23,8.23,0,0,0,1.74,4.5,5,5,0,0,0,3.9,1.44Zm50,11.53q-6.81,0-11.08-2.56a14.93,14.93,0,0,1-6.27-7.75,37.11,37.11,0,0,1-2-13.15V1h13.33V65.82a58,58,0,0,0,.32,6.46,8.26,8.26,0,0,0,1.57,4.33,4.92,4.92,0,0,0,4.07,1.54,5.05,5.05,0,0,0,4.1-1.52,7.85,7.85,0,0,0,1.57-4.3,61.47,61.47,0,0,0,.3-6.51V1h13.32v65a37.62,37.62,0,0,1-2,13.15,14.85,14.85,0,0,1-6.22,7.75q-4.24,2.57-11.06,2.56Zm47.63,0a21.45,21.45,0,0,1-9.12-1.71,13.55,13.55,0,0,1-5.77-5,22.68,22.68,0,0,1-3-8.06,59.25,59.25,0,0,1-.89-10.81v-7.8H2207v8.8q0,7,1.2,10.14a4.6,4.6,0,0,0,4.72,3.08,5.13,5.13,0,0,0,3.6-1.12,6.15,6.15,0,0,0,1.64-3.58,38.49,38.49,0,0,0,.43-6.44,19.53,19.53,0,0,0-2.07-9,36,36,0,0,0-6.24-8.46l-6.46-6.66A47,47,0,0,1,2199,37a26.63,26.63,0,0,1-4.69-15.61A35.22,35.22,0,0,1,2196,9.69a13.43,13.43,0,0,1,5.71-7.23q4-2.46,11-2.46a20.41,20.41,0,0,1,8.68,1.61,12.26,12.26,0,0,1,5.31,4.73,21.36,21.36,0,0,1,2.71,7.55,58.29,58.29,0,0,1,.8,10.17v5.42h-12.28V23.22a43.32,43.32,0,0,0-.42-6.62,7.81,7.81,0,0,0-1.57-4,4.16,4.16,0,0,0-3.33-1.32,5.73,5.73,0,0,0-3.38.92,5.12,5.12,0,0,0-1.86,2.84,17.27,17.27,0,0,0-.58,4.94,14.2,14.2,0,0,0,.7,4.73,13.36,13.36,0,0,0,2.14,3.82c1,1.23,2.15,2.6,3.58,4.13l7.21,7.81a46.66,46.66,0,0,1,8,11.58,30.67,30.67,0,0,1,2.88,13.42,44.17,44.17,0,0,1-1.69,13.2A14.82,14.82,0,0,1,2224,86.8q-4,2.73-10.84,2.73ZM265.37,231.08v-87.5h30v11.59H278.69v23.26H294.2v11.64H278.69v41Zm57.72,1q-6.81,0-11.11-2.88a16.68,16.68,0,0,1-6.34-8.55,41.74,41.74,0,0,1-2-14v-40a37.23,37.23,0,0,1,2-12.93,16.55,16.55,0,0,1,6.31-8.25q4.34-2.88,11.34-2.88a21.63,21.63,0,0,1,8.9,1.64,14.33,14.33,0,0,1,5.86,4.75,20.65,20.65,0,0,1,3.26,7.55,45.51,45.51,0,0,1,1,10.12v40a43.2,43.2,0,0,1-2,14,16.46,16.46,0,0,1-6.19,8.55q-4.22,2.88-11,2.88Zm0-11.53a4.6,4.6,0,0,0,3.73-1.49,9,9,0,0,0,1.66-4.55,58.61,58.61,0,0,0,.42-7.73V166a28.45,28.45,0,0,0-1.06-8.82,4.39,4.39,0,0,0-4.6-3.11,4.85,4.85,0,0,0-4.92,3c-.87,2-1.3,5-1.3,8.87v40.82a57.62,57.62,0,0,0,.43,7.83,8.23,8.23,0,0,0,1.74,4.5A5,5,0,0,0,323.09,220.54Zm31.27,10.54v-87.5h22q6.86,0,10.24,2.69a12.94,12.94,0,0,1,4.45,7.85,63.76,63.76,0,0,1,1.07,12.63q0,7.69-1.57,12.1a9.25,9.25,0,0,1-6.38,5.9,7.14,7.14,0,0,1,3.82,1.86,10.38,10.38,0,0,1,2.49,4.28,33.41,33.41,0,0,1,1.37,7.2q.42,4.4.42,10.77v2.78c0,1.53,0,3.32,0,5.39s.05,4.14.08,6.19.08,3.82.15,5.27a13.87,13.87,0,0,0,.25,2.59H379.46a11.13,11.13,0,0,1-.22-2.56q-.08-2.31-.15-5.89t-.1-7.71q0-4.12,0-8.13v-7.08a22.71,22.71,0,0,0-.58-5.94,4.29,4.29,0,0,0-2.08-2.81A10.66,10.66,0,0,0,372,190l-4.28-.25v41.31Zm13.37-51.65h5.32a5.49,5.49,0,0,0,3.7-1.1,6.56,6.56,0,0,0,1.74-4,56.19,56.19,0,0,0,.48-8.46v-.54a42.45,42.45,0,0,0-.45-7.11,4.92,4.92,0,0,0-1.87-3.43,8,8,0,0,0-4.39-1h-4.53Zm54.14,51.65v-87.5h13.32V179h11.93v-35.4h13.33v87.5H447.12V190.41H435.19v40.67Zm52,0v-87.5h13.32v87.5ZM517,232a15.28,15.28,0,0,1-12.72-6.24q-4.83-6.22-4.83-20.25v-38A44.52,44.52,0,0,1,500.59,157a21.65,21.65,0,0,1,3.48-7.83,14.93,14.93,0,0,1,6.14-4.88,22.48,22.48,0,0,1,9.1-1.66,22.07,22.07,0,0,1,9.39,1.71,12.74,12.74,0,0,1,5.6,5,22,22,0,0,1,2.71,8,70.06,70.06,0,0,1,.74,10.69v6.22H525.32V165q0-5.92-1.21-8.4c-.81-1.66-2.35-2.49-4.6-2.49q-3.74,0-5.17,2.91t-1.44,10.32v37.93q0,8.25,1.21,11.8a4.91,4.91,0,0,0,5.1,3.56,5.44,5.44,0,0,0,5.34-3.65q1.58-3.66,1.57-12.21V193h-6.71v-9.7h18.34v47.78h-6l-2-8.6a11.56,11.56,0,0,1-4.65,7A13.8,13.8,0,0,1,517,232Zm33.26-.89v-87.5H563.6V179h11.94v-35.4h13.32v87.5H575.54V190.41H563.6v40.67Zm49.57-32.86v-8.7h23.76v8.7Zm36.73,32.86v-87.5h20.09a20.73,20.73,0,0,1,8.67,1.59,12.49,12.49,0,0,1,5.45,4.73,21.43,21.43,0,0,1,2.83,7.73,58.6,58.6,0,0,1,.85,10.61v1.84A60.75,60.75,0,0,1,673,184.47a16.28,16.28,0,0,1-5.25,9q-3.76,3.08-10.63,3.08h-7.21v34.5Zm13.33-45.49h4.57a5.88,5.88,0,0,0,4.38-1.49,8.71,8.71,0,0,0,1.91-4.95,72.07,72.07,0,0,0,.47-9.22v-1.69A37.66,37.66,0,0,0,660,157.48q-1.18-3.66-5.42-3.66h-4.67Zm33.55,45.49v-87.5h22q6.85,0,10.24,2.69a12.94,12.94,0,0,1,4.45,7.85,63.76,63.76,0,0,1,1.07,12.63q0,7.69-1.57,12.1a9.28,9.28,0,0,1-6.39,5.9,7.14,7.14,0,0,1,3.83,1.86,10.38,10.38,0,0,1,2.49,4.28,32.87,32.87,0,0,1,1.36,7.2q.43,4.4.43,10.77v2.78c0,1.53,0,3.32,0,5.39s0,4.14.07,6.19.08,3.82.15,5.27a13.87,13.87,0,0,0,.25,2.59H708.57a11.13,11.13,0,0,1-.22-2.56q-.08-2.31-.15-5.89c-.05-2.39-.09-5-.1-7.71s0-5.46,0-8.13v-7.08a23.24,23.24,0,0,0-.57-5.94,4.31,4.31,0,0,0-2.09-2.81,10.66,10.66,0,0,0-4.35-.94l-4.27-.25v41.31Zm13.38-51.65h5.32a5.52,5.52,0,0,0,3.7-1.1,6.56,6.56,0,0,0,1.74-4,57.84,57.84,0,0,0,.47-8.46v-.54a42.45,42.45,0,0,0-.45-7.11,4.88,4.88,0,0,0-1.86-3.43,8.07,8.07,0,0,0-4.4-1h-4.52Zm54.28,52.64q-6.81,0-11.11-2.88a16.68,16.68,0,0,1-6.34-8.55,42,42,0,0,1-2-14v-40a37.23,37.23,0,0,1,2-12.93,16.44,16.44,0,0,1,6.31-8.25q4.32-2.88,11.33-2.88a21.63,21.63,0,0,1,8.9,1.64,14.36,14.36,0,0,1,5.87,4.75,20.47,20.47,0,0,1,3.25,7.55,45.51,45.51,0,0,1,1,10.12v40a43.22,43.22,0,0,1-2,14,16.46,16.46,0,0,1-6.19,8.55q-4.21,2.88-11,2.88Zm0-11.53a4.59,4.59,0,0,0,3.73-1.49,9,9,0,0,0,1.67-4.55,58.61,58.61,0,0,0,.42-7.73V166a28.4,28.4,0,0,0-1.07-8.82,4.39,4.39,0,0,0-4.6-3.11,4.85,4.85,0,0,0-4.92,3c-.86,2-1.29,5-1.29,8.87v40.82a59.53,59.53,0,0,0,.42,7.83,8.23,8.23,0,0,0,1.74,4.5,5,5,0,0,0,3.9,1.44Zm31.27,10.54v-87.5h30v11.59h-16.7v23.26h15.51v11.64H795.72v41Zm39.63,0v-87.5h13.32v87.5Zm26.69,0v-87.5H862v76.16h16.85v11.34Zm37.39,0v-87.5h29.33v11.49h-16v25.45h15.21v11.24H899.42V219.6H916v11.48Zm58,0v-87.5h13.33V179h11.93v-35.4h13.32v87.5H969.37V190.41H957.44v40.67Zm51.71,0v-87.5h29.33v11.49h-16v25.45h15.21v11.24h-15.21V219.6h16.6v11.48Zm40.07,0v-87.5h13.32v87.5Zm42.65,1a21.45,21.45,0,0,1-9.12-1.71,13.55,13.55,0,0,1-5.77-5,22.68,22.68,0,0,1-3-8.06,59.25,59.25,0,0,1-.89-10.81v-7.8h12.62v8.79q0,7.06,1.2,10.15a4.6,4.6,0,0,0,4.72,3.08,5.15,5.15,0,0,0,3.61-1.12,6.21,6.21,0,0,0,1.64-3.58,39.76,39.76,0,0,0,.42-6.44,19.72,19.72,0,0,0-2.06-9,36.73,36.73,0,0,0-6.24-8.45l-6.47-6.66a46.08,46.08,0,0,1-4.84-5.91,26.76,26.76,0,0,1-3.43-7,27.34,27.34,0,0,1-1.27-8.62,35.22,35.22,0,0,1,1.69-11.69,13.41,13.41,0,0,1,5.72-7.23q4-2.46,11-2.46a20.41,20.41,0,0,1,8.68,1.61,12.35,12.35,0,0,1,5.32,4.73,21.56,21.56,0,0,1,2.71,7.55,58.36,58.36,0,0,1,.79,10.17V172h-12.28v-6.27a43.18,43.18,0,0,0-.42-6.61,7.81,7.81,0,0,0-1.57-3.95,4.16,4.16,0,0,0-3.33-1.32,5.73,5.73,0,0,0-3.38.92,5.12,5.12,0,0,0-1.86,2.84,17.68,17.68,0,0,0-.57,4.94,14.48,14.48,0,0,0,.69,4.73,13.63,13.63,0,0,0,2.14,3.82c1,1.23,2.15,2.6,3.58,4.13l7.21,7.81a46.66,46.66,0,0,1,8,11.58,30.67,30.67,0,0,1,2.88,13.42,44.17,44.17,0,0,1-1.69,13.2,14.89,14.89,0,0,1-5.66,8.08q-4,2.73-10.84,2.73Zm32.11-1v-76h-10.24V143.58h33.36v11.54h-9.84v76Zm46.54,1a21.53,21.53,0,0,1-9.13-1.71,13.59,13.59,0,0,1-5.76-5,22.49,22.49,0,0,1-3-8.06,58.32,58.32,0,0,1-.9-10.81v-7.8H1151v8.79q0,7.06,1.2,10.15a4.6,4.6,0,0,0,4.72,3.08,5.13,5.13,0,0,0,3.6-1.12,6.15,6.15,0,0,0,1.64-3.58,38.49,38.49,0,0,0,.43-6.44,19.6,19.6,0,0,0-2.07-9,36.15,36.15,0,0,0-6.24-8.45l-6.46-6.66a47,47,0,0,1-4.85-5.91,26.63,26.63,0,0,1-4.69-15.61,35.22,35.22,0,0,1,1.69-11.69,13.43,13.43,0,0,1,5.71-7.23q4-2.46,11-2.46a20.37,20.37,0,0,1,8.67,1.61,12.29,12.29,0,0,1,5.32,4.73,21.36,21.36,0,0,1,2.71,7.55,58.29,58.29,0,0,1,.8,10.17V172H1162v-6.27a43.18,43.18,0,0,0-.42-6.61,8,8,0,0,0-1.57-3.95,4.16,4.16,0,0,0-3.33-1.32,5.73,5.73,0,0,0-3.38.92,5.12,5.12,0,0,0-1.86,2.84,17.27,17.27,0,0,0-.58,4.94,14.2,14.2,0,0,0,.7,4.73,13.63,13.63,0,0,0,2.14,3.82c1,1.23,2.15,2.6,3.58,4.13l7.2,7.81a46.71,46.71,0,0,1,8.06,11.58,30.67,30.67,0,0,1,2.88,13.42,44.17,44.17,0,0,1-1.69,13.2,14.91,14.91,0,0,1-5.67,8.08q-4,2.73-10.83,2.73Zm40.61-1,12.48-87.5h17.6l13.27,87.5h-12.43l-2.08-15.61h-14.12l-1.89,15.61Zm16-26.3h11.43l-5.86-43.95h-.2Zm35.25,26.3v-87.5h10.44l18.54,52.5-.94-23.86V143.58h12v87.5h-9.45l-19-54.34.75,23v31.37Zm53.14,0v-87.5h19.64q6.66,0,10.69,2.66a15,15,0,0,1,5.84,7.68,35.84,35.84,0,0,1,1.81,12.13l0,39.48a46.66,46.66,0,0,1-1.86,14.29,15.7,15.7,0,0,1-6,8.47q-4.12,2.79-11,2.79Zm13.33-10.34h4.37a7.41,7.41,0,0,0,3.9-1,5.69,5.69,0,0,0,2.34-3.35,23.71,23.71,0,0,0,.77-6.84l-.05-43.2c0-4.47-.55-7.69-1.64-9.64s-3-2.94-5.77-2.94h-3.92Zm55,10.34v-87.5h29.33v11.49h-16v25.45h15.21v11.24h-15.21V219.6h16.61v11.48Zm39.77,0v-87.5h13.32v76.16h16.86v11.34Zm56.08,1q-6.81,0-11.09-2.56a14.91,14.91,0,0,1-6.26-7.75,37.11,37.11,0,0,1-2-13.15v-65h13.32v64.78a58,58,0,0,0,.32,6.46,8.35,8.35,0,0,0,1.57,4.33,4.94,4.94,0,0,0,4.08,1.54,5.07,5.07,0,0,0,4.1-1.52,7.77,7.77,0,0,0,1.56-4.3,61.47,61.47,0,0,0,.3-6.51V143.58h13.33v65a37.6,37.6,0,0,1-2,13.15,14.83,14.83,0,0,1-6.21,7.75q-4.24,2.56-11.06,2.56Zm47.62,0a21.45,21.45,0,0,1-9.12-1.71,13.61,13.61,0,0,1-5.77-5,22.49,22.49,0,0,1-3-8.06,58.32,58.32,0,0,1-.9-10.81v-7.8h12.63v8.79q0,7.06,1.19,10.15a4.6,4.6,0,0,0,4.72,3.08,5.15,5.15,0,0,0,3.61-1.12A6.15,6.15,0,0,0,1519,216a39.76,39.76,0,0,0,.42-6.44,19.72,19.72,0,0,0-2.06-9,36.15,36.15,0,0,0-6.24-8.45l-6.46-6.66a46.16,46.16,0,0,1-4.85-5.91,26.73,26.73,0,0,1-4.7-15.61,35.22,35.22,0,0,1,1.69-11.69,13.41,13.41,0,0,1,5.72-7.23q4-2.46,11-2.46a20.37,20.37,0,0,1,8.67,1.61,12.29,12.29,0,0,1,5.32,4.73,21.56,21.56,0,0,1,2.71,7.55,58.36,58.36,0,0,1,.79,10.17V172h-12.27v-6.27a41.79,41.79,0,0,0-.43-6.61,7.9,7.9,0,0,0-1.56-3.95,4.19,4.19,0,0,0-3.33-1.32,5.73,5.73,0,0,0-3.38.92,5.08,5.08,0,0,0-1.87,2.84,17.68,17.68,0,0,0-.57,4.94,14.2,14.2,0,0,0,.7,4.73,13.35,13.35,0,0,0,2.13,3.82c1,1.23,2.15,2.6,3.58,4.13l7.21,7.81a46.66,46.66,0,0,1,8,11.58,30.53,30.53,0,0,1,2.89,13.42,44.17,44.17,0,0,1-1.69,13.2,14.91,14.91,0,0,1-5.67,8.08q-4,2.73-10.84,2.73Zm27.84-1v-87.5h13.33v87.5Zm35.6,0-13.57-87.5h12.67l5.72,39.53,3.53,27.83h.35l3-27.83,4.77-39.53h12.43l-12.48,87.5Zm37.33,0v-87.5h29.33v11.49h-16v25.45h15.21v11.24h-15.21V219.6h16.6v11.48Zm58,0v-87.5h29.33v11.49h-16v25.45h15.21v11.24h-15.21V219.6h16.61v11.48Zm55.73,1a21.45,21.45,0,0,1-9.12-1.71,13.55,13.55,0,0,1-5.77-5,22.68,22.68,0,0,1-3-8.06,59.25,59.25,0,0,1-.89-10.81v-7.8h12.62v8.79q0,7.06,1.2,10.15a4.6,4.6,0,0,0,4.72,3.08,5.13,5.13,0,0,0,3.6-1.12,6.15,6.15,0,0,0,1.64-3.58,38.49,38.49,0,0,0,.43-6.44,19.6,19.6,0,0,0-2.07-9,36.15,36.15,0,0,0-6.24-8.45l-6.46-6.66a47,47,0,0,1-4.85-5.91,26.63,26.63,0,0,1-4.69-15.61,35.22,35.22,0,0,1,1.69-11.69,13.43,13.43,0,0,1,5.71-7.23q4-2.46,11-2.46a20.41,20.41,0,0,1,8.68,1.61,12.26,12.26,0,0,1,5.31,4.73,21.36,21.36,0,0,1,2.71,7.55,58.29,58.29,0,0,1,.8,10.17V172h-12.28v-6.27a43.18,43.18,0,0,0-.42-6.61,7.81,7.81,0,0,0-1.57-3.95,4.16,4.16,0,0,0-3.33-1.32,5.73,5.73,0,0,0-3.38.92,5.12,5.12,0,0,0-1.86,2.84,17.27,17.27,0,0,0-.58,4.94,14.2,14.2,0,0,0,.7,4.73,13.63,13.63,0,0,0,2.14,3.82c1,1.23,2.15,2.6,3.58,4.13l7.21,7.81a46.66,46.66,0,0,1,8,11.58,30.67,30.67,0,0,1,2.88,13.42,44.17,44.17,0,0,1-1.69,13.2,14.89,14.89,0,0,1-5.66,8.08q-4,2.73-10.84,2.73Zm45.49,0a18.15,18.15,0,0,1-10.59-2.93,17.51,17.51,0,0,1-6.34-8.58,39,39,0,0,1-2.11-13.64V168.79a54.1,54.1,0,0,1,1-10.84,23.77,23.77,0,0,1,3.23-8.25,14.79,14.79,0,0,1,6-5.27,20.62,20.62,0,0,1,9.19-1.84,20.24,20.24,0,0,1,8.48,1.61,14.55,14.55,0,0,1,5.72,4.65,20.28,20.28,0,0,1,3.23,7.34,42,42,0,0,1,1,9.66v12H1780V166.7q0-6.47-1.09-9.52a4.26,4.26,0,0,0-4.38-3.06,4.71,4.71,0,0,0-4.84,3.31,27.64,27.64,0,0,0-1.22,9.22v40.86a43.67,43.67,0,0,0,.52,7.49,8.57,8.57,0,0,0,1.76,4.27,5,5,0,0,0,8.06-1.81q1.18-3.18,1.19-10.09V194.84H1793v12.38a42.43,42.43,0,0,1-1.94,13.84,15.67,15.67,0,0,1-6.14,8.28Q1780.75,232.07,1774,232.07Zm25-1,12.48-87.5h17.6l13.27,87.5H1830l-2.08-15.61h-14.12l-1.89,15.61Zm16-26.3h11.43l-5.86-43.95h-.2Zm35.25,26.3v-87.5h20.08a20.81,20.81,0,0,1,8.68,1.59,12.52,12.52,0,0,1,5.44,4.73,21.43,21.43,0,0,1,2.83,7.73,58.6,58.6,0,0,1,.85,10.61v1.84a60.75,60.75,0,0,1-1.47,14.39,16.21,16.21,0,0,1-5.24,9q-3.78,3.08-10.64,3.08h-7.21v34.5Zm13.32-45.49h4.57a5.85,5.85,0,0,0,4.38-1.49,8.71,8.71,0,0,0,1.91-4.95,72.07,72.07,0,0,0,.47-9.22v-1.69a37.66,37.66,0,0,0-1.24-10.76q-1.18-3.66-5.42-3.66h-4.67Zm33.56,45.49v-87.5h29.33v11.49h-16v25.45h15.21v11.24h-15.21V219.6h16.6v11.48Zm55.73,1a21.53,21.53,0,0,1-9.13-1.71,13.59,13.59,0,0,1-5.76-5,22.49,22.49,0,0,1-3-8.06,58.32,58.32,0,0,1-.9-10.81v-7.8h12.63v8.79q0,7.06,1.19,10.15a4.62,4.62,0,0,0,4.73,3.08,5.13,5.13,0,0,0,3.6-1.12A6.15,6.15,0,0,0,1958,216a39.76,39.76,0,0,0,.42-6.44,19.72,19.72,0,0,0-2.06-9,36.15,36.15,0,0,0-6.24-8.45l-6.46-6.66a47,47,0,0,1-4.85-5.91,26.73,26.73,0,0,1-4.7-15.61,35.22,35.22,0,0,1,1.69-11.69,13.45,13.45,0,0,1,5.72-7.23q4-2.46,11-2.46a20.37,20.37,0,0,1,8.67,1.61,12.29,12.29,0,0,1,5.32,4.73,21.36,21.36,0,0,1,2.71,7.55,58.29,58.29,0,0,1,.8,10.17V172h-12.28v-6.27a43.18,43.18,0,0,0-.42-6.61,8,8,0,0,0-1.57-3.95,4.16,4.16,0,0,0-3.33-1.32,5.73,5.73,0,0,0-3.38.92,5.19,5.19,0,0,0-1.87,2.84,17.68,17.68,0,0,0-.57,4.94,14.2,14.2,0,0,0,.7,4.73,13.15,13.15,0,0,0,2.14,3.82c1,1.23,2.15,2.6,3.58,4.13l7.2,7.81a47,47,0,0,1,8.06,11.58,30.67,30.67,0,0,1,2.88,13.42,44.17,44.17,0,0,1-1.69,13.2,14.91,14.91,0,0,1-5.67,8.08q-4,2.73-10.83,2.73Z"/></g></g></g></g></svg>