<svg xmlns="http://www.w3.org/2000/svg" viewBox="0 0 194.03 136.7"><defs><style>.cls-1{fill:#fff;}</style></defs><title>58c25f78-9ca4-446a-83f4-4a4fd4fedba3mdpi</title><g id="Layer_2" data-name="Layer 2"><g id="Layer_1-2" data-name="Layer 1"><g id="_58c25f78-9ca4-446a-83f4-4a4fd4fedba3" data-name="58c25f78-9ca4-446a-83f4-4a4fd4fedba3"><g id="_9d0c3d8b-466e-40c3-9627-bca23c43bac8" data-name="9d0c3d8b-466e-40c3-9627-bca23c43bac8"><path class="cls-1" d="M3.73,136.7,0,37.87l38.69-8.44.72,19.1-19,4.15.73,19.21,18.22-4,.71,18.64-18.23,4,.86,22.66,20.24-4.42L43.66,128ZM73.5,122.4q-13.15,2.88-19.26-2.53T47.58,99.64L47.21,90l19-4.14.47,12.31q.27,7.36,4.89,6.36a5,5,0,0,0,3.54-2.34,11.16,11.16,0,0,0,.81-5.45A22.25,22.25,0,0,0,74.51,89a14,14,0,0,0-3.07-4.66A79.58,79.58,0,0,0,65,79l-8.65-6.7q-10-7.55-10.48-19.28-.48-12.66,5-20.51T67.12,22.3q13-2.84,19,3t6.57,20.9L73.05,50.47l-.36-6.76a3.73,3.73,0,0,0-1.19-2.88,3.43,3.43,0,0,0-3-.49,5.26,5.26,0,0,0-3.33,2,5.79,5.79,0,0,0-1,3.7q.18,4.83,5.77,8.83L81.6,63.45a50.49,50.49,0,0,1,6.8,6,23.67,23.67,0,0,1,4.47,7.38,33.52,33.52,0,0,1,2,11q.54,14.63-4.4,23.29T73.5,122.4Zm37.64-9.14-3-79.84-11.47,2.5-.71-19,42.29-9.22.72,19-11.48,2.5,3,79.84ZM143.64,6.54,170.3.73Q180.64-1.53,186,3.21T192,19.43l2,46.2q.66,14.58-4.12,23.05t-16.48,11l-26,5.66Zm25.9,76.35c3.52-.77,5.22-2.91,5.09-6.44l-1.93-51a17.2,17.2,0,0,0-.69-4.9,2.62,2.62,0,0,0-1.94-1.84,11.27,11.27,0,0,0-4.19.34l-2.13.47,2.41,64.07Z"/></g></g></g></g></svg>