<svg xmlns="http://www.w3.org/2000/svg" viewBox="0 0 909.76 1314.32"><defs><style>.cls-1{fill:#0d1c27;}</style></defs><title>59975416-9d3c-4be7-9227-807b9c4640d8mdpi</title><g id="Layer_2" data-name="Layer 2"><g id="Layer_1-2" data-name="Layer 1"><g id="_59975416-9d3c-4be7-9227-807b9c4640d8" data-name="59975416-9d3c-4be7-9227-807b9c4640d8"><g id="_42495bdf-6904-40fa-ad6a-1760d7c7be07" data-name="42495bdf-6904-40fa-ad6a-1760d7c7be07"><path class="cls-1" d="M13.74,1H29L40.7,72.79H29.42L27.37,58.54v.2H14.56L12.51,72.79H2.05ZM26,49,21,13.53h-.21L15.89,49ZM48.86,1H63L74,44h.2V1h10V72.79H72.64L59.11,20.4h-.2V72.79h-10Zm46.5,0h11.28V72.79H95.36Zm22.41,0h16.1L141,52.39h.21L148.43,1h16.09V72.79H153.86V18.45h-.21l-8.2,54.34H136l-8.2-54.34h-.21V72.79h-9.84Zm57.88,0h30.76V11.28H186.93v19h15.48V40.5H186.93v22h19.48V72.79H175.65Zm59.07,0H246V72.79H234.72Zm37.07,72.79q-8.21,0-12.4-4.67t-4.21-13.38v-4.1h10.67v4.92q0,7,5.84,7a5.49,5.49,0,0,0,4.36-1.69c1-1.13,1.48-2.95,1.48-5.48a15.18,15.18,0,0,0-2-8,37.87,37.87,0,0,0-7.58-8.25q-7-6.15-9.74-11.13a22.6,22.6,0,0,1-2.77-11.22q0-8.5,4.31-13.18T272.2,0q8.1,0,12.25,4.66T288.61,18v3H277.94V17.33q0-3.69-1.43-5.39a5.2,5.2,0,0,0-4.2-1.69q-5.64,0-5.64,6.87a13.54,13.54,0,0,0,2.1,7.28,40.27,40.27,0,0,0,7.64,8.2q7.06,6.15,9.74,11.18a24.89,24.89,0,0,1,2.66,11.79q0,8.81-4.36,13.53t-12.66,4.72ZM317.13,1H328.4V30.24h12.1V1h11.28V72.79H340.5V40.5H328.4V72.79H317.13Zm54.49,0H386.9l11.69,71.76H387.31l-2.05-14.25v.2H372.44l-2.05,14.05H359.94Zm12.31,48-5-35.48h-.2L373.78,49ZM406.75,1h14.14l11,42.95h.21V1h10.05V72.79H430.53L417,20.4h-.21V72.79h-10Zm46.5,0h17.22q8.41,0,12.61,4.51t4.21,13.22V55.05q0,8.72-4.21,13.23t-12.61,4.51H453.25Zm17,61.51a5.46,5.46,0,0,0,4.25-1.64Q476,59.27,476,55.57V18.25q0-3.69-1.49-5.33a5.46,5.46,0,0,0-4.25-1.64h-5.74V62.54ZM496,31.78h22.55V42H496ZM528,1h17.23q8.4,0,12.61,4.51T562,18.76V55.05q0,8.72-4.2,13.23t-12.61,4.51H528Zm17,61.51a5.46,5.46,0,0,0,4.26-1.64q1.49-1.63,1.48-5.33V18.25q0-3.69-1.48-5.33A5.46,5.46,0,0,0,545,11.28h-5.74V62.54ZM572.35,1h16.71q8.72,0,12.72,4t4,12.46v4.41q0,11.18-7.38,14.15v.2a8.83,8.83,0,0,1,5.8,5,25.26,25.26,0,0,1,1.69,10.15V64.08c0,2,.07,3.7.2,5a12.51,12.51,0,0,0,1,3.74H595.63a16.61,16.61,0,0,1-.83-3.28,51.57,51.57,0,0,1-.2-5.54V50.85q0-4.92-1.59-6.87T587.53,42h-3.9V72.79H572.35Zm15.38,30.75A6.8,6.8,0,0,0,592.81,30q1.7-1.74,1.69-5.85V18.66q0-3.9-1.39-5.64a5.22,5.22,0,0,0-4.35-1.74h-5.13v20.5ZM625.11,1h15.27l11.69,71.76H640.79l-2-14.25v.2H625.93l-2,14.05H613.42Zm12.3,48-5-35.48h-.21L627.26,49ZM656.13,1H667l5,55.15h.21L677.56,1h12.3l5.33,55.15h.21l5-55.15h9.74l-7.28,71.76h-14L683.71,24.4h-.21l-5.12,48.39h-15Zm62.5,0h14.14l11,42.95H744V1h10V72.79H742.41L728.88,20.4h-.21V72.79h-10ZM793,1h15.28l11.68,71.76H808.66l-2-14.25v.2H793.79l-2,14.05H781.28Zm12.3,48-5-35.48H800L795.12,49ZM828.09,1h14.15l11,42.95h.21V1h10V72.79H851.88L838.35,20.4h-.21V72.79h-10ZM874.6,1h17.22q8.41,0,12.61,4.51t4.2,13.22V55.05q0,8.72-4.2,13.23t-12.61,4.51H874.6Zm17,61.51a5.46,5.46,0,0,0,4.26-1.64q1.49-1.63,1.48-5.33V18.25q0-3.69-1.48-5.33a5.46,5.46,0,0,0-4.26-1.64h-5.74V62.54ZM18.86,186.59q-8.1,0-12.35-4.61T2.26,169V130.41q0-8.41,4.25-13t12.35-4.62q8.1,0,12.36,4.62t4.25,13V138H24.81v-8.3q0-6.66-5.64-6.66t-5.64,6.66v40.09q0,6.56,5.64,6.56t5.64-6.56v-11H35.47V169q0,8.4-4.25,13T18.86,186.59Zm51.72,0q-8.31,0-12.72-4.72t-4.41-13.33V130.82q0-8.61,4.41-13.33t12.72-4.72q8.3,0,12.71,4.72t4.41,13.33v37.72q0,8.63-4.41,13.33T70.58,186.59Zm0-10.25q5.83,0,5.84-7.08V130.1q0-7.06-5.84-7.07t-5.85,7.07v39.16Q64.73,176.34,70.58,176.34Zm36.53-62.54h16.1l7.18,51.36h.2l7.18-51.36h16.09v71.76H143.2V131.23H143l-8.2,54.33h-9.44l-8.2-54.33H117v54.33h-9.85Zm67,0h16.61q8.41,0,12.61,4.51t4.2,13.22v7.08q0,8.71-4.2,13.22t-12.61,4.51h-5.33v29.22H174.1Zm16.61,32.29a5.27,5.27,0,0,0,4.15-1.54q1.39-1.53,1.39-5.22v-8.51q0-3.69-1.39-5.23a5.27,5.27,0,0,0-4.15-1.54h-5.33v22Zm51.2,40.5q-8.21,0-12.51-4.67t-4.3-13.38V113.8h11.27v55.57q0,3.69,1.49,5.33a6.34,6.34,0,0,0,8.51,0q1.49-1.63,1.49-5.33V113.8h10.86v54.74q0,8.72-4.3,13.38T241.91,186.59Zm45.46-62.54H275.58V113.8h34.86v10.25H298.65v61.51H287.37ZM327.7,113.8h30.76v10.25H339v19h15.48v10.25H339v22h19.48v10.25H327.7Zm49.05,0h16.71q8.71,0,12.71,4t4,12.45v4.41q0,11.17-7.38,14.15v.21a8.8,8.8,0,0,1,5.79,5,25.26,25.26,0,0,1,1.69,10.15v12.61a47.12,47.12,0,0,0,.21,5,12.13,12.13,0,0,0,1,3.74H400a16.55,16.55,0,0,1-.82-3.28,48.19,48.19,0,0,1-.21-5.53V163.62q0-4.92-1.58-6.87t-5.49-1.94H388v30.75H376.75Zm15.38,30.75a6.78,6.78,0,0,0,5.07-1.74q1.69-1.74,1.69-5.84v-5.54q0-3.89-1.38-5.64a5.25,5.25,0,0,0-4.36-1.74H388v20.5Zm36.12,0h22.56v10.26H428.25Zm57.15,42q-8.2,0-12.51-4.67t-4.3-13.38V130.82q0-8.71,4.3-13.38t12.51-4.67q8.21,0,12.51,4.67t4.3,13.38V137H491.55V130.1q0-7.06-5.84-7.07t-5.85,7.07v39.27q0,7,5.85,7t5.84-7V155.32h-5.64V145.07h16.3v23.47q0,8.72-4.3,13.38t-12.51,4.67Zm35.92-72.79h30.76v10.25H532.6v19h15.48v10.25H532.6v22h19.48v10.25H521.32Zm49,0h14.15l11,43h.2V113.8h10v71.76H594.16l-13.54-52.38h-.2v52.38h-10Zm55.61,0h30.76v10.25H637.26v19h15.48v10.25H637.26v22h19.48v10.25H626Zm49,0h16.71q8.71,0,12.71,4t4,12.45v4.41q0,11.17-7.38,14.15v.21a8.8,8.8,0,0,1,5.79,5,25.26,25.26,0,0,1,1.69,10.15v12.61a47.12,47.12,0,0,0,.21,5,12.13,12.13,0,0,0,1,3.74H698.3a15.88,15.88,0,0,1-.82-3.28,48.19,48.19,0,0,1-.21-5.53V163.62q0-4.92-1.59-6.87t-5.48-1.94h-3.9v30.75H675Zm15.37,30.75a6.78,6.78,0,0,0,5.08-1.74q1.69-1.74,1.69-5.84v-5.54q0-3.89-1.38-5.64a5.25,5.25,0,0,0-4.36-1.74H686.3v20.5Zm46.49-30.75h15.27l11.69,71.76H752.57l-2.05-14.25v.21H737.71l-2.05,14H725.2Zm12.3,48-5-35.47H744L739,161.78Zm36-37.73H773.43V113.8h34.85v10.25H796.49v61.51H785.22Zm40.33-10.25H856.3v10.25H836.83v19h15.48v10.25H836.83v22H856.3v10.25H825.55Zm49.05,0h17.22q8.41,0,12.61,4.51t4.2,13.22v36.3q0,8.71-4.2,13.22t-12.61,4.51H874.6Zm17,61.51a5.46,5.46,0,0,0,4.26-1.64q1.49-1.63,1.48-5.33V131q0-3.69-1.48-5.33a5.46,5.46,0,0,0-4.26-1.64h-5.74v51.26ZM11.69,226.57H27l11.69,71.77H27.37l-2.05-14.25v.2H12.51l-2,14H0Zm12.3,48-5-35.47h-.21l-4.92,35.47Zm19.57-48H57.71l11,43h.21v-43h10v71.77H67.35L53.81,246h-.2v52.39h-10Zm43.26,0H98.1v71.77H86.82Zm19.16,0h16.1l7.17,51.37h.21l7.17-51.37h16.1v71.77H142.07V244h-.21l-8.2,54.34h-9.43L116,244h-.21v54.34H106Zm63.35,0h15.28l11.68,71.77H185L183,284.09v.2H170.15l-2.05,14H157.64Zm12.3,48-5-35.47h-.21l-4.92,35.47Zm23.68-37.73H193.52V226.57h34.85v10.25H216.58v61.52H205.31Zm28-10.25h11.27v71.77H233.29Zm35.46,72.79q-8.29,0-12.71-4.71t-4.41-13.33V243.59q0-8.61,4.41-13.33t12.71-4.71q8.29,0,12.71,4.71t4.41,13.33v37.73q0,8.61-4.41,13.33T268.75,299.36Zm0-10.25q5.83,0,5.84-7.07V242.87q0-7.06-5.84-7.07t-5.84,7.07V282Q262.91,289.11,268.75,289.11Zm24.19-62.54h14.14l11,43h.21v-43h10.05v71.77H316.72L303.19,246H303v52.39h-10Zm75.43,72.79q-8.3,0-12.71-4.71t-4.41-13.33V243.59q0-8.61,4.41-13.33t12.71-4.71q8.31,0,12.72,4.71t4.4,13.33v37.73q0,8.61-4.4,13.33T368.37,299.36Zm0-10.25q5.85,0,5.85-7.07V242.87q0-7.06-5.85-7.07t-5.84,7.07V282Q362.53,289.11,368.37,289.11Zm24.19-62.54h16.71q8.72,0,12.71,4.05t4,12.46v4.41q0,11.17-7.38,14.14v.21a8.8,8.8,0,0,1,5.79,5A25.29,25.29,0,0,1,426.08,277v12.61a47,47,0,0,0,.21,5,12.18,12.18,0,0,0,1,3.75H415.83a16.9,16.9,0,0,1-.82-3.28,51.57,51.57,0,0,1-.2-5.54V276.4q0-4.92-1.59-6.87t-5.49-1.95h-3.89v30.76H392.56Zm15.38,30.76a6.78,6.78,0,0,0,5.07-1.74q1.69-1.76,1.69-5.85v-5.53q0-3.9-1.38-5.64a5.2,5.2,0,0,0-4.36-1.75h-5.12v20.51Zm25.41-30.76h11.28v71.77H433.35Zm35.16,72.79q-8.2,0-12.51-4.66t-4.3-13.38V243.59q0-8.72,4.3-13.38t12.51-4.66q8.21,0,12.51,4.66t4.3,13.38v6.15H474.66v-6.87q0-7.06-5.84-7.07T463,242.87v39.27q0,7,5.85,7t5.84-7V268.09H469V257.84h16.3v23.48q0,8.71-4.3,13.38t-12.51,4.66Zm23.57-72.79h11.28v71.77H492.08Zm19.16,0h14.15l11,43h.21v-43h10v71.77H535L521.5,246h-.21v52.39h-10Zm52,0h15.28l11.69,71.77H578.9l-2-14.25v.2H564l-2,14H551.53Zm12.31,48-5-35.47h-.2l-4.92,35.47Zm23.67-37.73H587.4V226.57h34.86v10.25H610.47v61.52H599.19Zm28-10.25h11.28v71.77H627.17Zm19.16,0h14.15l11,43h.21v-43h10v71.77H670.12L656.58,246h-.2v52.39h-10Zm59.25,72.79q-8.21,0-12.51-4.66t-4.3-13.38V243.59q0-8.72,4.3-13.38t12.51-4.66q8.2,0,12.51,4.66t4.3,13.38v6.15H711.73v-6.87q0-7.06-5.84-7.07t-5.84,7.07v39.27q0,7,5.84,7t5.84-7V268.09h-5.64V257.84h16.3v23.48q0,8.71-4.3,13.38t-12.51,4.66ZM745,226.57h29.84v10.25H756.31v20h14.56v10.25H756.31v31.27H745Zm34.75,0h16.71q8.71,0,12.71,4.05t4,12.46v4.41q0,11.17-7.38,14.14v.21a8.8,8.8,0,0,1,5.79,5A25.29,25.29,0,0,1,813.3,277v12.61a47,47,0,0,0,.21,5,12.21,12.21,0,0,0,1,3.75H803.05a16.9,16.9,0,0,1-.82-3.28,51.57,51.57,0,0,1-.2-5.54V276.4q0-4.92-1.59-6.87T795,267.58h-3.89v30.76H779.78Zm15.38,30.76a6.78,6.78,0,0,0,5.07-1.74q1.69-1.76,1.69-5.85v-5.53q0-3.9-1.38-5.64a5.2,5.2,0,0,0-4.36-1.75h-5.12v20.51Zm41.72,42q-8.31,0-12.72-4.71t-4.41-13.33V243.59q0-8.61,4.41-13.33t12.72-4.71q8.29,0,12.71,4.71T854,243.59v37.73q0,8.61-4.41,13.33T836.88,299.36Zm0-10.25q5.83,0,5.84-7.07V242.87q0-7.06-5.84-7.07T831,242.87V282Q831,289.11,836.88,289.11Zm24.18-62.54h16.1l7.17,51.37h.21l7.18-51.37h16.09v71.77H897.15V244h-.21l-8.2,54.34h-9.43L871.11,244h-.21v54.34h-9.84ZM5.64,411.52a28.73,28.73,0,0,1-5.23-.41V400.86a15.37,15.37,0,0,0,3.69.41,6.69,6.69,0,0,0,5-1.69,7.2,7.2,0,0,0,1.64-5.18v-55H22v54.74q0,8.82-4.05,13.12T5.64,411.52Zm33.18-72.17H54.09l11.69,71.76H54.5l-2-14.25v.21H39.64l-2,14H27.13Zm12.3,48-5-35.48h-.2L41,387.33Zm20.26-48H88q8.4,0,12.61,4.51t4.2,13.22v7.08q0,8.71-4.2,13.22T88,381.89H82.65v29.22H71.38ZM88,371.64a5.3,5.3,0,0,0,4.15-1.54q1.38-1.55,1.38-5.23v-8.51q0-3.69-1.38-5.22A5.3,5.3,0,0,0,88,349.6H82.65v22Zm28.25-32.29h15.28l11.68,71.76H131.93l-2.05-14.25v.21H117.06l-2,14H104.55Zm12.3,48-5-35.48h-.2l-4.93,35.48Zm20.26-48H163l11,42.95h.21V339.35h10v71.76H172.59l-13.53-52.39h-.21v52.39h-10Zm43.95,60.89h10.86v10.87H192.75Zm52.3,11.9q-8.3,0-12.71-4.72t-4.41-13.33V356.36q0-8.61,4.41-13.32t12.71-4.72q8.31,0,12.72,4.72t4.4,13.32v37.73q0,8.61-4.4,13.33T245.05,412.14Zm0-10.26q5.85,0,5.85-7.07V355.65q0-7.08-5.85-7.08t-5.84,7.08v39.16Q239.21,401.88,245.05,401.88Zm41.28,10.26q-8.2,0-12.51-4.67t-4.3-13.38V339.35h11.27v55.56q0,3.69,1.49,5.33a6.34,6.34,0,0,0,8.51,0q1.48-1.64,1.49-5.33V339.35h10.86v54.74q0,8.71-4.3,13.38T286.33,412.14Zm33.79-62.54H308.33V339.35h34.86V349.6H331.4v61.51H320.12Zm43.33,62.54q-8.2,0-12.41-4.67t-4.2-13.38V390H357.5v4.92q0,7,5.85,7a5.47,5.47,0,0,0,4.35-1.69c1-1.13,1.49-2.95,1.49-5.48a15.18,15.18,0,0,0-2.05-7.95q-2.06-3.43-7.59-8.25-7-6.15-9.74-11.12A22.66,22.66,0,0,1,347,356.16q0-8.51,4.31-13.17t12.51-4.67q8.1,0,12.25,4.67t4.15,13.37v3H369.6v-3.69q0-3.69-1.44-5.39a5.17,5.17,0,0,0-4.2-1.69q-5.64,0-5.64,6.87a13.54,13.54,0,0,0,2.1,7.28,40.56,40.56,0,0,0,7.64,8.2q7.08,6.15,9.74,11.18a24.77,24.77,0,0,1,2.67,11.79q0,8.81-4.36,13.53t-12.66,4.72Zm23.64-72.79h11.28v71.76H387.09Zm19.85,0h17.22q8.41,0,12.61,4.51T441,357.08v36.29q0,8.72-4.21,13.23t-12.61,4.51H406.94Zm17,61.51a5.44,5.44,0,0,0,4.25-1.64q1.49-1.64,1.49-5.33V356.57q0-3.69-1.49-5.33A5.44,5.44,0,0,0,424,349.6h-5.74v51.26Zm24.77-61.51h30.75V349.6H460v19h15.48v10.26H460v22h19.47v10.25H448.73Zm56.61,72.17a28.81,28.81,0,0,1-5.23-.41V400.86a15.46,15.46,0,0,0,3.7.41,6.69,6.69,0,0,0,5-1.69,7.2,7.2,0,0,0,1.64-5.18v-55h11.28v54.74q0,8.82-4,13.12t-12.36,4.31Zm33.18-72.17H553.8l11.68,71.76H554.21l-2.05-14.25v.21H539.34l-2.05,14H526.83Zm12.3,48-5-35.48h-.21l-4.92,35.48Zm20.26-48h16.61q8.41,0,12.61,4.51t4.2,13.22v7.08q0,8.71-4.2,13.22t-12.61,4.51h-5.33v29.22H571.08Zm16.61,32.29a5.27,5.27,0,0,0,4.15-1.54q1.39-1.55,1.39-5.23v-8.51q0-3.69-1.39-5.22a5.27,5.27,0,0,0-4.15-1.54h-5.33v22ZM616,339.35h15.27l11.69,71.76H631.63l-2-14.25v.21H616.77l-2,14H604.26Zm12.3,48-5-35.48H623l-4.92,35.48Zm20.26-48h14.15l11,42.95h.2V339.35h10v71.76H672.29l-13.53-52.39h-.21v52.39h-10Zm69.22,0H733l11.69,71.76H733.42l-2-14.25v.21H718.55l-2,14H706Zm12.3,48-5-35.48h-.2l-4.92,35.48Zm20.26-48h14.15l11,42.95h.21V339.35h10v71.76H774.08l-13.53-52.39h-.21v52.39H750.29Zm44,0h17.22q8.41,0,12.61,4.51t4.2,13.22v36.29q0,8.72-4.2,13.23t-12.61,4.51H794.24Zm17,61.51a5.46,5.46,0,0,0,4.26-1.64q1.49-1.64,1.49-5.33V356.57q0-3.69-1.49-5.33a5.46,5.46,0,0,0-4.26-1.64h-5.74v51.26Zm41.34-61.51h11.28v71.76H852.59Zm19.85,0h14.15l11,42.95h.2V339.35h10v71.76H896.23l-13.54-52.39h-.2v52.39h-10ZM3,452.12H33.73v10.25H14.25v19H29.73v10.25H14.25v22H33.73v10.25H3Zm46,0H63.16l11,43h.21v-43h10v71.76H72.8L59.27,471.5h-.21v52.38H49Zm68.6,72.79q-8.2,0-12.51-4.67t-4.3-13.37V469.14q0-8.72,4.3-13.38t12.51-4.67q8.2,0,12.51,4.67t4.3,13.38v6.15H123.76v-6.87q0-7.07-5.84-7.07t-5.85,7.07v39.27q0,7,5.85,7t5.84-7V493.64h-5.64V483.39h16.3v23.48q0,8.71-4.3,13.37t-12.51,4.67Zm32.92-72.79h11.28v61.51h18.55v10.25H150.53Zm44.09,0H205.9v71.76H194.62Zm43.17,72.79q-8.21,0-12.4-4.67t-4.2-13.37v-4.11h10.66v4.93q0,7,5.84,7a5.49,5.49,0,0,0,4.36-1.69q1.48-1.7,1.49-5.49a15.15,15.15,0,0,0-2-7.94,38,38,0,0,0-7.59-8.26q-7-6.15-9.74-11.12a22.64,22.64,0,0,1-2.77-11.23q0-8.51,4.31-13.17t12.5-4.67q8.1,0,12.26,4.67t4.15,13.38v3H244v-3.69q0-3.69-1.44-5.38a5.17,5.17,0,0,0-4.2-1.69q-5.64,0-5.64,6.86a13.54,13.54,0,0,0,2.1,7.28,40,40,0,0,0,7.64,8.21q7.07,6.15,9.74,11.17a24.89,24.89,0,0,1,2.66,11.79q0,8.82-4.35,13.53t-12.67,4.72Zm32.31-72.79h11.28v29.22h12.09V452.12h11.28v71.76H293.47V491.59H281.38v32.29H270.1Zm55.57,71.76H322V513h10.87v9.74l-5.64,13.43H322ZM384,452.12H399.3L411,523.88H399.71l-2-14.25v.21H384.85l-2.05,14H372.34Zm12.3,48-5-35.47h-.21l-4.92,35.47Zm28.92-48H439.4l11,43h.2v-43h10.05v71.76H449L435.5,471.5h-.2v52.38H425.25Zm52.6,0h11.28v71.76H477.85Zm28.51,0h16.1l7.18,51.36h.2L537,452.12h16.09v71.76H542.45V469.55h-.2l-8.2,54.33h-9.44l-8.2-54.33h-.2v54.33h-9.85Zm64,0H601.1v10.25H581.62v19h15.49v10.25H581.62v22H601.1v10.25H570.35Zm71.27,0h16.71q8.71,0,12.71,4.05t4,12.45V473q0,11.18-7.38,14.15v.21a8.8,8.8,0,0,1,5.79,5,25.26,25.26,0,0,1,1.69,10.15v12.61a47,47,0,0,0,.21,5,12.13,12.13,0,0,0,1,3.74H664.89a16.55,16.55,0,0,1-.82-3.28,51.21,51.21,0,0,1-.2-5.53V501.94q0-4.92-1.59-6.86t-5.49-1.95H652.9v30.75H641.62ZM657,482.88a6.74,6.74,0,0,0,5.07-1.75q1.7-1.74,1.69-5.84v-5.54q0-3.88-1.38-5.64a5.22,5.22,0,0,0-4.36-1.74H652.9v20.51Zm34.76-30.76h30.76v10.25H703v19h15.48v10.25H703v22h19.48v10.25H691.76Zm46,0h29.84v10.25H749.08v20h14.56v10.25H749.08v31.27H737.8Zm44.1,0h30.75v10.25H793.17v19h15.48v10.25H793.17v22h19.48v10.25H781.9Zm46,0h16.71q8.72,0,12.71,4.05t4,12.45V473q0,11.18-7.38,14.15v.21a8.8,8.8,0,0,1,5.79,5,25.26,25.26,0,0,1,1.69,10.15v12.61a47,47,0,0,0,.21,5,12.13,12.13,0,0,0,1,3.74H851.21a16.55,16.55,0,0,1-.82-3.28,51.21,51.21,0,0,1-.2-5.53V501.94q0-4.92-1.59-6.86t-5.49-1.95h-3.89v30.75H827.94Zm15.38,30.76a6.74,6.74,0,0,0,5.07-1.75q1.7-1.74,1.69-5.84v-5.54q0-3.88-1.38-5.64a5.25,5.25,0,0,0-4.36-1.74h-5.12v20.51Zm49.42,42q-8.21,0-12.4-4.67t-4.21-13.37v-4.11H886.8v4.93q0,7,5.84,7A5.49,5.49,0,0,0,897,513q1.49-1.7,1.48-5.49a15.15,15.15,0,0,0-2.05-7.94,37.87,37.87,0,0,0-7.58-8.26q-7-6.15-9.74-11.12a22.64,22.64,0,0,1-2.77-11.23q0-8.51,4.3-13.17t12.51-4.67q8.1,0,12.25,4.67t4.15,13.38v3H898.89v-3.69q0-3.69-1.43-5.38a5.21,5.21,0,0,0-4.21-1.69q-5.62,0-5.63,6.86a13.54,13.54,0,0,0,2.1,7.28,39.9,39.9,0,0,0,7.63,8.21q7.08,6.15,9.74,11.17a24.77,24.77,0,0,1,2.67,11.79q0,8.82-4.36,13.53t-12.66,4.72ZM17.63,637.68q-8.2,0-12.4-4.66T1,619.64v-4.1H11.69v4.92q0,7,5.84,7a5.49,5.49,0,0,0,4.36-1.69q1.48-1.69,1.48-5.49a15.15,15.15,0,0,0-2.05-7.94,37.87,37.87,0,0,0-7.58-8.25q-7-6.16-9.74-11.13a22.6,22.6,0,0,1-2.77-11.22q0-8.51,4.31-13.18T18,563.87q8.1,0,12.25,4.66t4.16,13.38v3H23.78v-3.69q0-3.69-1.43-5.38a5.2,5.2,0,0,0-4.2-1.69q-5.64,0-5.64,6.87a13.59,13.59,0,0,0,2.1,7.28,40.27,40.27,0,0,0,7.64,8.2q7.07,6.15,9.74,11.17a24.89,24.89,0,0,1,2.66,11.79q0,8.82-4.36,13.54t-12.66,4.71Zm25.71-72.79H60q8.42,0,12.61,4.51t4.2,13.23v7.07q0,8.71-4.2,13.23T60,607.44H54.62v29.22H43.34ZM60,597.19a5.27,5.27,0,0,0,4.15-1.54q1.38-1.54,1.38-5.23v-8.51q0-3.69-1.38-5.23A5.27,5.27,0,0,0,60,575.14H54.62v22.05Zm25.19-32.3H115.9v10.25H96.42v19H111.9v10.25H96.42v22H115.9v10.25H85.14Zm55.34,72.79q-8.1,0-12.36-4.61t-4.25-13V581.5q0-8.41,4.25-13t12.36-4.61q8.1,0,12.35,4.61t4.26,13v7.59H146.42v-8.31q0-6.66-5.63-6.66t-5.64,6.66v40.09q0,6.55,5.64,6.56t5.63-6.56v-11h10.67v10.15q0,8.41-4.26,13T140.48,637.68Zm25.6-72.79h11.28v71.77H166.08Zm21.92,0h29.83v10.25H199.27v20h14.56v10.25H199.27v31.27H188Zm37.49,0h11.28v71.77H225.49Zm37.81,72.79q-8.1,0-12.36-4.61t-4.25-13V581.5q0-8.41,4.25-13t12.36-4.61q8.1,0,12.35,4.61t4.25,13v7.59H269.24v-8.31q0-6.66-5.64-6.66T258,580.78v40.09q0,6.55,5.64,6.56t5.64-6.56v-11H279.9v10.15q0,8.41-4.25,13T263.3,637.68Zm34.31-72.79h15.28l11.69,71.77H313.3l-2.05-14.25v.2H298.43l-2.05,14H285.93Zm12.31,48-5-35.47h-.2l-4.92,35.47Zm22.32-48h11.28v61.52h18.55v10.25H332.24Zm37.5,0H381v61.52h18.56v10.25H369.74Zm38.83,41.22-13.64-41.22h12l7.69,26.35h.2l7.69-26.35h11l-13.64,41.22v30.55H408.57Zm59.71-31H456.49V564.89h34.86v10.25H479.56v61.52H468.28Zm46.62,62.54q-8.29,0-12.71-4.71t-4.41-13.33V581.91q0-8.61,4.41-13.33t12.71-4.71q8.31,0,12.72,4.71T532,581.91v37.73q0,8.61-4.41,13.33T514.9,637.68Zm0-10.25q5.85,0,5.85-7.07V581.19q0-7.07-5.85-7.07t-5.84,7.07v39.17Q509.06,627.43,514.9,627.43Zm54.29-62.54h15.27l11.69,71.77H584.87l-2-14.25v.2H570l-2,14H557.5Zm12.3,48-5-35.47h-.21l-4.92,35.47Zm22.32-48H618l11,43h.21v-43h10v71.77H627.6l-13.53-52.39h-.21v52.39H603.81Zm46,0H661.1v71.77H649.82Zm21.91,0h16.1L695,616.26h.2l7.18-51.37h16.09v71.77H707.82V582.32h-.2l-8.21,54.34H690l-8.2-54.34h-.2v54.34h-9.85Zm66.1,0h15.28l11.69,71.77H753.52l-2-14.25v.2H738.65l-2,14H726.15Zm12.31,48-5-35.47h-.2L740,612.87Zm26.42-37.73H764.77V564.89h34.86v10.25H787.84v61.52H776.56Zm30.73-10.25h11.28v71.77H807.29Zm38.22,72.79q-8.31,0-12.72-4.71t-4.41-13.33V581.91q0-8.61,4.41-13.33t12.72-4.71q8.29,0,12.71,4.71t4.41,13.33v37.73q0,8.61-4.41,13.33T845.51,637.68Zm0-10.25q5.84,0,5.84-7.07V581.19q0-7.07-5.84-7.07t-5.85,7.07v39.17Q839.66,627.43,845.51,627.43Zm26.93-62.54h14.15l11,43h.2v-43h10v71.77H896.23l-13.54-52.39h-.2v52.39h-10ZM3,677.67H19.58q8.42,0,12.61,4.51t4.2,13.22v7.08q0,8.71-4.2,13.22t-12.61,4.51H14.25v29.22H3ZM19.58,710a5.27,5.27,0,0,0,4.15-1.54q1.39-1.54,1.39-5.23v-8.51q0-3.69-1.39-5.22a5.27,5.27,0,0,0-4.15-1.54H14.25v22Zm39.78-32.29H76.08q8.72,0,12.71,4.05t4,12.45v4.41q0,11.17-7.38,14.15v.2a8.82,8.82,0,0,1,5.79,5,25.26,25.26,0,0,1,1.69,10.15v12.61c0,2,.07,3.7.2,5a12.43,12.43,0,0,0,1,3.74H82.64a15.88,15.88,0,0,1-.82-3.28,48.28,48.28,0,0,1-.21-5.54V727.49q0-4.92-1.59-6.87t-5.48-2h-3.9v30.76H59.36Zm15.38,30.75a6.78,6.78,0,0,0,5.08-1.74q1.7-1.74,1.69-5.84V695.3q0-3.9-1.38-5.64a5.25,5.25,0,0,0-4.36-1.74H70.64v20.5Zm59.06,42q-8.3,0-12.71-4.72t-4.41-13.33V694.68q0-8.61,4.41-13.32t12.71-4.72q8.3,0,12.71,4.72t4.41,13.32v37.73q0,8.61-4.41,13.33T133.8,750.46Zm0-10.26q5.83,0,5.84-7.07V694q0-7.08-5.84-7.08T128,694v39.16Q128,740.2,133.8,740.2Zm41.53-62.53h17.22q8.41,0,12.61,4.51t4.2,13.22v36.29q0,8.71-4.2,13.23t-12.61,4.51H175.33Zm17,61.51a5.46,5.46,0,0,0,4.25-1.64q1.49-1.63,1.49-5.33V694.89q0-3.69-1.49-5.33a5.46,5.46,0,0,0-4.25-1.64H186.6v51.26Zm57.82,11.28q-8.21,0-12.5-4.67t-4.31-13.38V677.67h11.28v55.56q0,3.69,1.48,5.33a6.34,6.34,0,0,0,8.51,0q1.49-1.63,1.49-5.33V677.67H267v54.74q0,8.72-4.31,13.38T250.17,750.46Zm57.52,0q-8.1,0-12.35-4.62t-4.26-13V694.27q0-8.4,4.26-13t12.35-4.61q8.1,0,12.36,4.61t4.25,13v7.59H313.64v-8.3q0-6.67-5.64-6.67t-5.64,6.67v40.08q0,6.55,5.64,6.56t5.64-6.56v-11H324.3v10.15q0,8.41-4.25,13T307.69,750.46Zm40.2-72.79h30.75v10.25H359.16v19h15.48v10.26H359.16v22h19.48v10.25H347.89Zm54,0h17.22q8.42,0,12.61,4.51T436,695.4v36.29q0,8.71-4.21,13.23t-12.61,4.51H401.92Zm17,61.51a5.44,5.44,0,0,0,4.25-1.64q1.49-1.63,1.49-5.33V694.89q0-3.69-1.49-5.33a5.44,5.44,0,0,0-4.25-1.64H413.2v51.26Zm74.64-61.51h11.28v71.76H493.58Zm36.51,0h14.14l11,43h.21v-43h10.05v71.76H553.87L540.34,697h-.21v52.39h-10Zm96.48,72.17a28.73,28.73,0,0,1-5.23-.41V739.18a15.37,15.37,0,0,0,3.69.41,6.7,6.7,0,0,0,5-1.69,7.2,7.2,0,0,0,1.64-5.18V677.67H643v54.74q0,8.82-4.05,13.13t-12.35,4.3Zm49.83-72.17h15.28l11.68,71.76H692.09L690,735.18v.21H677.22l-2.05,14H664.71Zm12.3,48-5-35.48h-.21l-4.92,35.48Zm36.92-48h16.6q8.41,0,12.61,4.51T759,695.4v7.08q0,8.71-4.21,13.22t-12.61,4.51h-5.33v29.22H725.62ZM742.22,710a5.31,5.31,0,0,0,4.16-1.54q1.38-1.54,1.38-5.23v-8.51q0-3.69-1.38-5.22a5.31,5.31,0,0,0-4.16-1.54h-5.33v22Zm44.91-32.29h15.28l11.69,71.76H802.82l-2.05-14.25v.21H788l-2.05,14H775.45Zm12.31,48-5-35.48h-.2l-4.92,35.48Zm36.91-48H850.5l11,43h.2v-43h10.05v71.76H860.13L846.6,697h-.2v52.39h-10Zm60.59,60.89h10.87v10.87H896.94ZM3,790.44H14.25v29.22h12.1V790.44H37.63V862.2H26.35V829.91H14.25V862.2H3ZM70.8,863.23q-8.31,0-12.72-4.72t-4.41-13.32V807.46q0-8.61,4.41-13.33t12.72-4.72q8.3,0,12.71,4.72t4.41,13.33v37.73q0,8.61-4.41,13.32T70.8,863.23Zm0-10.25q5.83,0,5.84-7.08V806.74q0-7.07-5.84-7.07T65,806.74V845.9Q65,853,70.8,853Zm30.5-62.54h10.87l5,55.16h.21l5.33-55.16H135l5.33,55.16h.21l5-55.16h9.74l-7.28,71.76H134l-5.12-48.39h-.21l-5.12,48.39h-15Zm68.23,0h30.76v10.25H180.81v19h15.48v10.25H180.81v22h19.48V862.2H169.53Zm42.71,0h11.38L231,846.11h.2l7.38-55.67h10.36L238.07,862.2h-15Zm50.6,0h30.75v10.25H274.11v19h15.48v10.25H274.11v22h19.48V862.2H262.84Zm45.67,0h16.71q8.71,0,12.72,4t4,12.46v4.4q0,11.17-7.38,14.15v.21a8.82,8.82,0,0,1,5.8,5A25.26,25.26,0,0,1,342,840.88v12.61c0,2,.07,3.71.2,5a12.43,12.43,0,0,0,1,3.74H331.79a15.88,15.88,0,0,1-.82-3.28,48,48,0,0,1-.21-5.53V840.26q0-4.92-1.59-6.86t-5.48-1.95h-3.9V862.2H308.51Zm15.38,30.76a6.76,6.76,0,0,0,5.08-1.75q1.69-1.74,1.69-5.84v-5.54q0-3.89-1.39-5.64a5.22,5.22,0,0,0-4.35-1.74h-5.13V821.2Zm38.6,41H358.8V851.34h10.87v9.74L364,874.51H358.8Zm48.92-71.76h11.27V862.2H411.41Zm28.14,0H453.7l11,43h.21v-43h10V862.2H463.34l-13.53-52.38h-.21V862.2H439.55Zm79.77,72.17a28.81,28.81,0,0,1-5.23-.41V852a15.52,15.52,0,0,0,3.7.41,6.69,6.69,0,0,0,5-1.69,7.2,7.2,0,0,0,1.64-5.18v-55h11.28v54.75q0,8.8-4.05,13.12t-12.36,4.3Zm41.48-72.17h15.27l11.69,71.76H576.48L574.43,848v.21H561.62l-2,14H549.11Zm12.3,48-5-35.47h-.21L563,838.42Zm28.56-48h16.61q8.4,0,12.61,4.51t4.2,13.23v7.07q0,8.71-4.2,13.22T618.27,833h-5.34V862.2H601.66Zm16.61,32.29a5.33,5.33,0,0,0,4.15-1.53q1.38-1.55,1.38-5.23v-8.51q0-3.69-1.38-5.23a5.3,5.3,0,0,0-4.15-1.54h-5.34v22Zm36.55-32.29h15.27l11.69,71.76H670.5l-2-14.25v.21H655.64l-2,14H643.13Zm12.3,48-5-35.47h-.21L657,838.42Zm28.56-48h14.15l11,43h.2v-43h10V862.2H719.46l-13.53-52.38h-.21V862.2h-10Zm85.82,0h15.27l11.69,71.76H797.18l-2-14.25v.21H782.32l-2.05,14H769.81Zm12.3,48-5-35.47h-.21l-4.92,35.47Zm28.56-48H836.5l11,43h.21v-43h10.05V862.2H846.14l-13.53-52.38h-.21V862.2h-10Zm52.24,0h17.22q8.41,0,12.61,4.51t4.2,13.23v36.29q0,8.71-4.2,13.22t-12.61,4.51H874.6Zm17,61.51a5.46,5.46,0,0,0,4.26-1.64q1.49-1.63,1.48-5.33V807.66q0-3.69-1.48-5.33a5.46,5.46,0,0,0-4.26-1.64h-5.74V852ZM5.64,975.39A28.73,28.73,0,0,1,.41,975V964.73a15.37,15.37,0,0,0,3.69.41,6.7,6.7,0,0,0,5-1.7,7.19,7.19,0,0,0,1.64-5.17V903.21H22V958q0,8.82-4.05,13.12T5.64,975.39ZM39.8,903.21H55.07L66.76,975H55.48l-2-14.25v.2H40.62l-2,14.05H28.11Zm12.3,48-5-35.47h-.21L42,951.19Zm21.24-48H90q8.42,0,12.61,4.51T106.77,921V928q0,8.72-4.21,13.23T90,945.76H84.62V975H73.34ZM90,935.51A5.27,5.27,0,0,0,94.1,934q1.4-1.54,1.39-5.23v-8.51q0-3.69-1.39-5.23A5.3,5.3,0,0,0,90,913.47H84.62v22Zm29.24-32.3h15.28L146.16,975H134.88l-2-14.25v.2H120L118,975H107.5Zm12.3,48-5-35.47h-.2l-4.93,35.47Zm21.25-48h14.15l11,43h.21v-43h10.05V975H176.52L163,922.59h-.21V975h-10Zm44.92,0h30.76v10.26H208.94v19h15.48v10.25H208.94v22.05h19.48V975H197.66ZM250.89,976q-8.2,0-12.4-4.66T234.28,958v-4.1H245v4.92q0,7,5.84,7a5.49,5.49,0,0,0,4.36-1.69q1.48-1.69,1.48-5.49a15.15,15.15,0,0,0-2-7.94,37.87,37.87,0,0,0-7.58-8.25q-7-6.17-9.74-11.13A22.6,22.6,0,0,1,234.49,920q0-8.5,4.3-13.18t12.51-4.66q8.1,0,12.25,4.66t4.16,13.38v3H257v-3.69q0-3.69-1.43-5.38a5.21,5.21,0,0,0-4.21-1.69q-5.62,0-5.63,6.87a13.59,13.59,0,0,0,2.1,7.28,40.27,40.27,0,0,0,7.64,8.2q7.07,6.15,9.73,11.17a24.77,24.77,0,0,1,2.67,11.79q0,8.82-4.36,13.54T250.89,976Zm24.63-72.79h30.75v10.26H286.79v19h15.49v10.25H286.79v22.05h19.48V975H275.52ZM318.08,975h-3.69V964.11h10.87v9.74l-5.64,13.43h-5.23Zm43-71.77h15.28L388.05,975H376.77l-2-14.25v.2H361.9l-2,14.05H349.4Zm12.31,48-5-35.47h-.2l-4.92,35.47Zm21.24-48h14.15l11,43h.2v-43H430V975H418.41l-13.53-52.39h-.21V975h-10Zm44.92,0h11.28V975H439.55Zm20.84,0h16.09l7.18,51.37h.2L491,903.21h16.1V975H496.47V920.64h-.2L488.07,975h-9.44l-8.2-54.34h-.2V975h-9.84Zm56.3,0h30.76v10.26H528v19h15.48v10.25H528v22.05h19.48V975H516.69Zm55.92,0h17.22q8.42,0,12.61,4.51t4.2,13.23v36.29q0,8.71-4.2,13.23T589.83,975H572.61Zm17,61.52a5.46,5.46,0,0,0,4.26-1.64q1.49-1.64,1.49-5.34V920.44q0-3.69-1.49-5.33a5.46,5.46,0,0,0-4.26-1.64h-5.74v51.26Zm25.76-61.52h30.75v10.26H626.66v19h15.48v10.25H626.66v22.05h19.47V975H615.38ZM668.61,976q-8.21,0-12.41-4.66T652,958v-4.1h10.66v4.92q0,7,5.85,7a5.47,5.47,0,0,0,4.35-1.69q1.49-1.69,1.49-5.49a15.15,15.15,0,0,0-2.05-7.94q-2.06-3.43-7.59-8.25-7-6.17-9.74-11.13A22.6,22.6,0,0,1,652.2,920q0-8.5,4.31-13.18T669,902.19q8.1,0,12.25,4.66t4.15,13.38v3H674.76v-3.69q0-3.69-1.44-5.38a5.17,5.17,0,0,0-4.2-1.69q-5.64,0-5.64,6.87a13.59,13.59,0,0,0,2.1,7.28,40.27,40.27,0,0,0,7.64,8.2Q680.3,940.94,683,946a24.77,24.77,0,0,1,2.67,11.79q0,8.82-4.36,13.54T668.61,976Zm40.51,0q-8.08,0-12.35-4.61t-4.25-13V919.82q0-8.42,4.25-13t12.35-4.61q8.1,0,12.36,4.61t4.25,13v7.59H715.07V919.1q0-6.66-5.64-6.66t-5.64,6.66v40.09q0,6.55,5.64,6.56t5.64-6.56v-11h10.66v10.15q0,8.42-4.25,13T709.12,976Zm24.53-72.79h16.71q8.71,0,12.71,4t4,12.46v4.41q0,11.18-7.38,14.15v.2a8.8,8.8,0,0,1,5.79,5,25.29,25.29,0,0,1,1.69,10.15v12.61a47.33,47.33,0,0,0,.21,5,12.2,12.2,0,0,0,1,3.74H756.92a15.88,15.88,0,0,1-.82-3.28,48.28,48.28,0,0,1-.21-5.54V953q0-4.92-1.58-6.87t-5.49-1.95h-3.89V975H733.65ZM749,934a6.78,6.78,0,0,0,5.07-1.74q1.7-1.76,1.69-5.85v-5.53q0-3.9-1.38-5.64a5.25,5.25,0,0,0-4.36-1.74h-5.12V934Zm27.08-30.76h11.28V975H776.11Zm20.83,0h17q8.71,0,12.72,4t4,12.46v2.87a19.77,19.77,0,0,1-1.79,9,10.44,10.44,0,0,1-5.48,5v.21q8.4,2.86,8.4,15V958q0,8.29-4.36,12.66T814.68,975H796.94Zm15.69,29.22a6.8,6.8,0,0,0,5.08-1.74q1.69-1.74,1.69-5.85v-4q0-3.9-1.39-5.64a5.22,5.22,0,0,0-4.35-1.74h-5.44v19Zm2,32.3a5.66,5.66,0,0,0,4.41-1.59q1.42-1.59,1.43-5.49V951.4q0-4.92-1.69-6.82t-5.58-1.9h-5v22.05Zm24.83-61.52h30.76v10.26H850.79v19h15.48v10.25H850.79v22.05h19.48V975H839.51ZM892.74,976q-8.21,0-12.4-4.66T876.13,958v-4.1H886.8v4.92q0,7,5.84,7a5.49,5.49,0,0,0,4.36-1.69q1.49-1.69,1.48-5.49a15.15,15.15,0,0,0-2.05-7.94,37.87,37.87,0,0,0-7.58-8.25q-7-6.17-9.74-11.13A22.6,22.6,0,0,1,876.34,920q0-8.5,4.3-13.18t12.51-4.66q8.1,0,12.25,4.66t4.15,13.38v3H898.89v-3.69q0-3.69-1.43-5.38a5.21,5.21,0,0,0-4.21-1.69q-5.62,0-5.63,6.87a13.59,13.59,0,0,0,2.1,7.28,40.16,40.16,0,0,0,7.63,8.2q7.08,6.15,9.74,11.17a24.77,24.77,0,0,1,2.67,11.79q0,8.82-4.36,13.54T892.74,976Zm-881,40H27l11.69,71.76H27.37l-2.05-14.25v.21H12.51l-2,14H0ZM24,1064l-5-35.48h-.21L13.84,1064Zm32.2-48H67.47v61.51H86v10.25H56.19Zm47.38,0h11.27v61.51H133.4v10.25H103.57Zm84.6,0h15.27l11.69,71.76H203.85l-2-14.25v.21H189l-2.05,14H176.48Zm12.3,48-5-35.48h-.21L190.32,1064Zm32.2-48h14.15l11,43H258v-43h10v71.76H256.46l-13.53-52.39h-.21v52.39H232.67Zm55.89,0h11.28v71.76H288.56Zm31.79,0h16.1l7.17,51.36h.21L351,1016h16.1v71.76H356.44v-54.33h-.21l-8.2,54.33H338.6l-8.2-54.33h-.21v54.33h-9.84Zm76,0h15.28l11.68,71.76H412L410,1073.5v.21H397.15l-2,14H384.64Zm12.3,48-5-35.48h-.21L398.48,1064Zm36.31-37.73H433.15V1016H468v10.25H456.21v61.51H444.94Zm40.6-10.25H516.3v10.25H496.82v19H512.3v10.25H496.82v22H516.3v10.25H485.54Zm49.33,0h17.22q8.42,0,12.61,4.51t4.2,13.22V1070q0,8.71-4.2,13.22t-12.61,4.51H534.87Zm17,61.51a5.46,5.46,0,0,0,4.25-1.64q1.49-1.63,1.49-5.33v-37.32q0-3.69-1.49-5.33a5.46,5.46,0,0,0-4.25-1.64h-5.74v51.26ZM614.45,1016h10.86l5,55.15h.2l5.33-55.15h12.3l5.34,55.15h.2l5-55.15h9.74l-7.27,71.76H647.15L642,1039.36h-.2l-5.13,48.39h-15Zm88.17,72.79q-8.29,0-12.71-4.72t-4.41-13.33V1033q0-8.61,4.41-13.32t12.71-4.72q8.31,0,12.72,4.72t4.41,13.32v37.73q0,8.61-4.41,13.33T702.62,1088.78Zm0-10.26q5.85,0,5.85-7.07v-39.16q0-7.08-5.85-7.08t-5.84,7.08v39.16Q696.78,1078.52,702.62,1078.52ZM739.44,1016h16.71q8.72,0,12.71,4t4,12.45v4.41q0,11.17-7.38,14.15v.2a8.82,8.82,0,0,1,5.79,5,25.26,25.26,0,0,1,1.69,10.15V1079a47.12,47.12,0,0,0,.21,5,12.13,12.13,0,0,0,1,3.74H762.71a16.55,16.55,0,0,1-.82-3.28,51.57,51.57,0,0,1-.2-5.54v-13.12q0-4.92-1.59-6.87t-5.49-2h-3.89v30.76H739.44Zm15.38,30.75a6.78,6.78,0,0,0,5.07-1.74q1.7-1.74,1.69-5.84v-5.54q0-3.9-1.38-5.64a5.22,5.22,0,0,0-4.36-1.74h-5.12v20.5Zm38-30.75h11.28v30.24L818.49,1016h11.28l-13.43,26.34L830,1087.75H818.19l-9.54-32-4.51,9.13v22.86H792.86Zm68.5,72.79q-8.21,0-12.41-4.67t-4.2-13.38v-4.1h10.66v4.92q0,7,5.85,7a5.47,5.47,0,0,0,4.35-1.69c1-1.13,1.49-2.95,1.49-5.48a15.18,15.18,0,0,0-2.05-7.95q-2.06-3.44-7.59-8.25-7-6.15-9.74-11.12A22.76,22.76,0,0,1,845,1032.8q0-8.5,4.3-13.17t12.51-4.67q8.1,0,12.25,4.67t4.15,13.37v3H867.51v-3.69q0-3.69-1.43-5.39a5.21,5.21,0,0,0-4.21-1.69q-5.64,0-5.64,6.87a13.54,13.54,0,0,0,2.1,7.28,40.56,40.56,0,0,0,7.64,8.2q7.08,6.15,9.74,11.18a24.77,24.77,0,0,1,2.67,11.79q0,8.81-4.36,13.53t-12.66,4.72Zm39.28-1h-3.7v-10.87h10.87v9.74l-5.64,13.43h-5.23ZM3,1128.76H19.68q8.71,0,12.72,4t4,12.46v4.4q0,11.17-7.38,14.15v.21a8.82,8.82,0,0,1,5.8,5,25.26,25.26,0,0,1,1.69,10.15v12.61c0,2,.07,3.71.2,5a12.43,12.43,0,0,0,1,3.74H26.25a15.88,15.88,0,0,1-.82-3.28,48,48,0,0,1-.21-5.53v-13.12q0-4.93-1.59-6.87t-5.48-2h-3.9v30.75H3Zm15.38,30.76a6.76,6.76,0,0,0,5.08-1.75q1.7-1.74,1.69-5.84v-5.54q0-3.89-1.39-5.64a5.22,5.22,0,0,0-4.35-1.74H14.25v20.51Zm31.89-30.76H81V1139H61.52v19H77v10.25H61.52v22H81v10.25H50.24Zm59.17,72.79q-8.2,0-12.51-4.66t-4.31-13.38v-37.73q0-8.71,4.31-13.38t12.51-4.67q8.2,0,12.51,4.67t4.3,13.38v6.15H115.56v-6.87q0-7.07-5.84-7.07t-5.85,7.07v39.27q0,7,5.85,7t5.84-7v-14h-5.64V1160h16.3v23.48q0,8.71-4.3,13.38t-12.51,4.66Zm38.76-72.79h15.28l11.68,71.76H163.86l-2.05-14.25v.21H149l-2.05,14H136.48Zm12.3,48-5-35.47h-.21l-4.92,35.47Zm26.05-48h16.71q8.72,0,12.72,4t4,12.46v4.4q0,11.17-7.38,14.15v.21a8.82,8.82,0,0,1,5.8,5,25.26,25.26,0,0,1,1.69,10.15v12.61c0,2,.07,3.71.2,5a12.43,12.43,0,0,0,1,3.74H209.79a16.55,16.55,0,0,1-.82-3.28,51.21,51.21,0,0,1-.2-5.53v-13.12q0-4.93-1.59-6.87t-5.48-2h-3.9v30.75H186.52Zm15.38,30.76a6.76,6.76,0,0,0,5.08-1.75q1.7-1.74,1.69-5.84v-5.54q0-3.89-1.39-5.64a5.22,5.22,0,0,0-4.35-1.74H197.8v20.51Zm31.89-30.76H251q8.4,0,12.61,4.51t4.2,13.23v36.29q0,8.71-4.2,13.22T251,1200.52H233.79Zm17,61.51a5.46,5.46,0,0,0,4.26-1.64q1.49-1.64,1.48-5.33V1146q0-3.69-1.48-5.33a5.46,5.46,0,0,0-4.26-1.64h-5.74v51.26Zm30.56-61.51h11.28v61.51h18.56v10.25H281.37Zm41.23,0h30.75V1139H333.87v19h15.48v10.25H333.87v22h19.48v10.25H322.6Zm58,72.79q-8.2,0-12.4-4.66T364,1183.51v-4.1h10.67v4.92q0,7,5.84,7a5.49,5.49,0,0,0,4.36-1.69q1.49-1.69,1.48-5.49a15.15,15.15,0,0,0-2.05-7.94,37.87,37.87,0,0,0-7.58-8.26q-7-6.15-9.74-11.12a22.64,22.64,0,0,1-2.77-11.23q0-8.5,4.3-13.17t12.51-4.67q8.1,0,12.25,4.67t4.16,13.38v3H386.78v-3.69q0-3.69-1.43-5.38a5.21,5.21,0,0,0-4.21-1.69q-5.62,0-5.63,6.87a13.53,13.53,0,0,0,2.1,7.27,40,40,0,0,0,7.64,8.21q7.06,6.15,9.73,11.17a24.77,24.77,0,0,1,2.67,11.79q0,8.82-4.36,13.53t-12.66,4.72Zm44.09,0q-8.21,0-12.4-4.66t-4.2-13.38v-4.1h10.66v4.92q0,7,5.84,7a5.49,5.49,0,0,0,4.36-1.69q1.49-1.69,1.49-5.49a15.15,15.15,0,0,0-2.05-7.94,38,38,0,0,0-7.59-8.26q-7-6.15-9.74-11.12a22.64,22.64,0,0,1-2.77-11.23q0-8.5,4.31-13.17t12.51-4.67q8.08,0,12.25,4.67t4.15,13.38v3H430.88v-3.69q0-3.69-1.44-5.38a5.17,5.17,0,0,0-4.2-1.69q-5.64,0-5.64,6.87a13.53,13.53,0,0,0,2.1,7.27,40,40,0,0,0,7.64,8.21q7.07,6.15,9.74,11.17a24.89,24.89,0,0,1,2.66,11.79q0,8.82-4.35,13.53t-12.67,4.72Zm68.1,0q-8.31,0-12.72-4.72t-4.4-13.32v-37.73q0-8.61,4.4-13.33t12.72-4.72q8.3,0,12.71,4.72t4.41,13.33v37.73q0,8.61-4.41,13.32T492.82,1201.55Zm0-10.25q5.83,0,5.84-7.08v-39.16q0-7.07-5.84-7.07t-5.85,7.07v39.16Q487,1191.3,492.82,1191.3Zm30.66-62.54h29.83V1139H534.76v20h14.56v10.26H534.76v31.26H523.48Zm78.24,72.79q-8.21,0-12.4-4.66t-4.21-13.38v-4.1h10.67v4.92q0,7,5.84,7a5.49,5.49,0,0,0,4.36-1.69q1.49-1.69,1.48-5.49a15.15,15.15,0,0,0-2.05-7.94,37.87,37.87,0,0,0-7.58-8.26q-7-6.15-9.74-11.12a22.64,22.64,0,0,1-2.77-11.23q0-8.5,4.3-13.17t12.51-4.67q8.1,0,12.25,4.67t4.16,13.38v3H607.87v-3.69q0-3.69-1.43-5.38a5.21,5.21,0,0,0-4.21-1.69q-5.62,0-5.63,6.87a13.53,13.53,0,0,0,2.1,7.27,40,40,0,0,0,7.64,8.21q7.06,6.15,9.74,11.17a24.89,24.89,0,0,1,2.66,11.79q0,8.82-4.36,13.53t-12.66,4.72ZM640,1139H628.18v-10.25H663V1139H651.25v61.51H640Zm45.22,31-13.63-41.21h12l7.69,26.35h.21l7.69-26.35h11L696.47,1170v30.55H685.19Zm36-41.21h11.27v61.51H751v10.25H721.19Zm41.22,0h30.76V1139H773.69v19h15.48v10.25H773.69v22h19.48v10.25H762.41Zm81.83,72.79q-8.29,0-12.71-4.72t-4.41-13.32v-37.73q0-8.61,4.41-13.33t12.71-4.72q8.29,0,12.71,4.72t4.41,13.33v37.73q0,8.61-4.41,13.32T844.24,1201.55Zm0-10.25q5.84,0,5.84-7.08v-39.16q0-7.07-5.84-7.07t-5.84,7.07v39.16Q838.4,1191.3,844.24,1191.3Zm30.66-62.54h16.71q8.71,0,12.72,4t4,12.46v4.4q0,11.17-7.38,14.15v.21a8.82,8.82,0,0,1,5.8,5,25.26,25.26,0,0,1,1.69,10.15v12.61c0,2,.07,3.71.2,5a12.43,12.43,0,0,0,1,3.74H898.17a16.55,16.55,0,0,1-.82-3.28,51.21,51.21,0,0,1-.2-5.53v-13.12q0-4.93-1.59-6.87t-5.48-2h-3.9v30.75H874.9Zm15.38,30.76a6.76,6.76,0,0,0,5.08-1.75q1.7-1.74,1.69-5.84v-5.54q0-3.89-1.39-5.64a5.22,5.22,0,0,0-4.35-1.74h-5.13v20.51Zm-871,154.8q-8.29,0-12.71-4.71t-4.41-13.33v-37.73q0-8.61,4.41-13.33t12.71-4.71q8.31,0,12.72,4.71t4.4,13.33v37.73q0,8.61-4.4,13.33T19.27,1314.32Zm0-10.25q5.85,0,5.85-7.07v-39.17q0-7.07-5.85-7.07t-5.84,7.07V1297Q13.43,1304.07,19.27,1304.07Zm139.11-62.54h16.71q8.72,0,12.71,4t4,12.46v4.41q0,11.17-7.38,14.15v.2a8.8,8.8,0,0,1,5.79,5A25.29,25.29,0,0,1,191.9,1292v12.61a47.33,47.33,0,0,0,.21,5,12.2,12.2,0,0,0,1,3.74H181.65a15.88,15.88,0,0,1-.82-3.28,48.28,48.28,0,0,1-.21-5.54v-13.12q0-4.92-1.59-6.87t-5.48-2h-3.9v30.76H158.38Zm15.37,30.76a6.78,6.78,0,0,0,5.08-1.74q1.69-1.75,1.69-5.85v-5.53q0-3.9-1.38-5.64a5.25,5.25,0,0,0-4.36-1.74h-5.13v20.5Zm140.34-30.76h11.27v71.77H314.09Zm150.07,72.79q-8.21,0-12.51-4.66t-4.31-13.38v-37.73q0-8.71,4.31-13.38t12.51-4.66q8.2,0,12.51,4.66t4.3,13.38v6.15H470.31v-6.87q0-7.07-5.84-7.07t-5.85,7.07v39.27q0,7,5.85,7t5.84-7v-14h-5.64V1272.8H481v23.48q0,8.71-4.3,13.38t-12.51,4.66Zm138.48-72.79h11.28v71.77H602.64Zm134.08,0h14.15l11,43h.21v-43h10v71.77H760.51L747,1260.91h-.21v52.39h-10Zm158.17,60.9h10.87v10.87H894.89Z"/></g></g></g></g></svg>