<svg xmlns="http://www.w3.org/2000/svg" viewBox="0 0 55.51 56.01"><defs><style>.cls-1{fill:#b8a980;}</style></defs><title>5b4cd030-98f3-4980-9236-439be24270dfskateboard1</title><g id="Layer_2" data-name="Layer 2"><g id="Layer_1-2" data-name="Layer 1"><g id="_5b4cd030-98f3-4980-9236-439be24270df" data-name="5b4cd030-98f3-4980-9236-439be24270df"><g id="_5b4cd030-98f3-4980-9236-439be24270df-child-0" data-name="5b4cd030-98f3-4980-9236-439be24270df-child-0"><path class="cls-1" d="M55.51,1.62a1.65,1.65,0,0,0-.43-1,1.64,1.64,0,0,0-2-.48l0,0L53,.21l-40.82,20A1.64,1.64,0,0,0,11.94,23l11.34,8.13L.5,53.19A1.64,1.64,0,0,0,1.64,56a1.6,1.6,0,0,0,.79-.2l43-23.49a1.65,1.65,0,0,0,.17-2.78L35.12,22,55,2.93A1.68,1.68,0,0,0,55.51,1.62Z"/></g></g></g></g></svg>