<svg xmlns="http://www.w3.org/2000/svg" viewBox="0 0 177.6 87.24"><defs><style>.cls-1{fill:#eee;}</style></defs><title>5bf03127-9a06-49ee-929b-f80010a6862cmdpi</title><g id="Layer_2" data-name="Layer 2"><g id="Layer_1-2" data-name="Layer 1"><g id="_5bf03127-9a06-49ee-929b-f80010a6862c" data-name="5bf03127-9a06-49ee-929b-f80010a6862c"><g id="bd39e9ed-0d2c-4b3a-ac84-d4bb3b105935"><path class="cls-1" d="M46.14,44.21a77.6,77.6,0,0,0-9.72-6.05,45.34,45.34,0,0,1-10.14,8.53,68.52,68.52,0,0,1-15.36,7,29.3,29.3,0,0,0-3.3-6A29,29,0,0,0,3,42.29a62.18,62.18,0,0,0,12.25-4.77,34.45,34.45,0,0,0,8-5.78,111.63,111.63,0,0,0-11.56-4.5l7.43-9.72q5.05,1.56,10.74,3.76a36.14,36.14,0,0,0,1.46-5.14H7.71V3.85h72s0,.32,0,1S79.61,6.18,79.58,7s-.08,1.47-.14,2q-.56,11.57-1.19,18.94a85.07,85.07,0,0,1-1.61,11.51,15.61,15.61,0,0,1-2.33,5.87,10.78,10.78,0,0,1-3.44,3,15.9,15.9,0,0,1-4,1.38,33.51,33.51,0,0,1-4.77.46q-2.85.09-6.15,0A27.42,27.42,0,0,0,54.9,43.8a23.7,23.7,0,0,0-2.52-6.1,46.7,46.7,0,0,0,7.34.28,3.59,3.59,0,0,0,3-1.29c.67-.79,1.24-2.75,1.69-5.87s.9-8,1.33-14.68H46.33A58.22,58.22,0,0,1,43.21,27q3.21,1.56,6.1,3.12a42,42,0,0,1,5,3.12ZM40,43.48c1.89,1,3.9,2.16,6,3.53s4.09,2.79,6,4.22a34.78,34.78,0,0,1,4.54,4.08l-9.63,8.81a29.12,29.12,0,0,0-4.13-4.22Q40.1,57.61,37,55.36a60.86,60.86,0,0,0-6-3.9ZM76,82.74a41.92,41.92,0,0,0-2.71-6.14,70.56,70.56,0,0,0-4.08-6.79,33.38,33.38,0,0,1-2.34,9.81,9.28,9.28,0,0,1-4.68,4.86A20,20,0,0,1,54,85.86H40.64q-6.62,0-10.14-1.38a8.18,8.18,0,0,1-4.86-4.63,23.58,23.58,0,0,1-1.33-8.76V56.41H37.52v14.5c0,1.41.28,2.29.83,2.66s1.86.55,3.94.55H52.84a4.37,4.37,0,0,0,2.61-.64,4.22,4.22,0,0,0,1.29-2.62,50.08,50.08,0,0,0,.69-6,20.91,20.91,0,0,0,5.41,2.76A44.64,44.64,0,0,0,69,69.44c-1.23-1.83-2.53-3.64-3.9-5.41S62.32,60.57,60.91,59l10.92-6q3.21,3.39,6.42,7.43A94,94,0,0,1,84,68.52,44.68,44.68,0,0,1,88,76ZM0,76a30.62,30.62,0,0,0,7.25-8.89,46.09,46.09,0,0,0,4.4-11.38l12,3.95a79.13,79.13,0,0,1-4.63,13,31.9,31.9,0,0,1-7.85,10.74ZM145.31,38.53c-1.35,1-2.75,2.06-4.22,3.07s-2.94,2-4.41,3h30.83V86.87H153.56v-2.2H125.13v2.57H111.82V58.07c-2.07.91-4.17,1.78-6.28,2.61s-4.23,1.64-6.37,2.43A30,30,0,0,0,97,59.58q-1.42-2.07-3-4.13T91.28,52.1A152.89,152.89,0,0,0,123,38.53H94.58V26.88H123V20.45H102.47V9H123V0h13.21V9h18.34v4.77q2.48-2.65,4.68-5.55c1.47-1.93,2.87-3.87,4.22-5.83l11.47,5.87a126.52,126.52,0,0,1-16,18.63H177.6V38.53Zm-9.08-11.65h4.21q2-1.56,3.9-3.17c1.25-1.07,2.46-2.15,3.63-3.26H136.23Zm17.33,28.53H125.13v4.12h28.43Zm0,18.16V69.44H125.13v4.13Z"/></g></g></g></g></svg>