<svg xmlns="http://www.w3.org/2000/svg" viewBox="0 0 254.77 234.42"><defs><style>.cls-1{fill:#2b2d2c;}</style></defs><title>5f56b86a-8e6e-49bd-8a7b-a5aa0fa484012skateboard1</title><g id="Layer_2" data-name="Layer 2"><g id="Layer_1-2" data-name="Layer 1"><g id="_5f56b86a-8e6e-49bd-8a7b-a5aa0fa48401" data-name="5f56b86a-8e6e-49bd-8a7b-a5aa0fa48401"><g id="d3fe9931-c20a-465c-95cb-6aa62e6dc523"><path class="cls-1" d="M18.27,233.5c-3.45,0-7.06-.05-10.81-.15s-6.24-1.27-7.46-3.5V219.2a17,17,0,0,0,2-10,29.91,29.91,0,0,1,1.07-11q2.43-7.91,5.32-17.2a72.65,72.65,0,0,1,7.16-16.28,150.58,150.58,0,0,1,18.57-23.9,261.35,261.35,0,0,0,21.15-25.72A109.38,109.38,0,0,0,70.47,85.4q5.32-16,.46-35.76a84.89,84.89,0,0,0-9.28-4.27q-4.73-1.82-11.72-.3a12.66,12.66,0,0,0-.77,3.8C49.06,50.4,49,52,49,53.59q1.52,2.44,1.68,7.77a102.66,102.66,0,0,1-.31,11.11A106.6,106.6,0,0,1,49,83.27c-.61,3.35-1,5.54-1.22,6.55a20,20,0,0,1-7.3,2.28c-3.25.51-6.75.86-10.5,1.07s-7.57.35-11.42.45-7.1.16-9.74.16a23.85,23.85,0,0,0-3-3.5q-1.21-1.07-1.83-5,.92-1.81.46-6.54c-.31-3.15-.71-6.65-1.22-10.5s-.86-7.77-1.07-11.73a26.73,26.73,0,0,1,.92-9.58q4.56-15.53,12-25.73T36.53,4.89a26.88,26.88,0,0,1,9-2.13A15.13,15.13,0,0,0,53.58,0Q72.77-.29,88,5.8a60.34,60.34,0,0,1,24.66,17.5q9.44,11.42,12.17,27.86t-3,36.83v6.7a77.57,77.57,0,0,1-8.22,18.87q-5.47,9.14-11,16.75A85,85,0,0,0,95,137a41.84,41.84,0,0,0-4.87,7.92,51.15,51.15,0,0,1-4.87,8.22,46.92,46.92,0,0,1-6.24,7q-4.43,4.26-9,9.13t-8.22,9.29q-3.64,4.41-4.26,7.15c1.21.61,2.23,1.06,3,1.37a14.9,14.9,0,0,0,4.57.46q4.26,2.43,12.48,1.21t16.89-2.43a87.27,87.27,0,0,1,15.83-.91q7.16.3,9.29,6.08,2.13,2.74,2.59,8.22a90.42,90.42,0,0,1,.15,11.72,108.38,108.38,0,0,1-1.22,11.88c-.61,3.75-1.11,6.54-1.52,8.37Q116,233.49,109,234t-14.91.46q-7.92,0-15.83-.46t-13.09-.46q-2.75-1.81-8.68-2t-12.78.3q-6.86.46-13.7,1.07t-11.72.6ZM28.92,61.2a11.66,11.66,0,0,1,2.28-2.28c.51-.31,1-1.47,1.37-3.5H30.75c-.61,1-1.17,1.93-1.68,2.74a6.73,6.73,0,0,1-2.28,2.13v.91ZM62.41,30.46v-.92q.62-.6.45-.6c-.1,0,0-.41.46-1.22H61.19l-.91,2.74Zm42.92,41.4V69.73a9.72,9.72,0,0,1-1.83-2.44,6.1,6.1,0,0,0-1.82-2.13,7.82,7.82,0,0,0,1.06,3.5,17.72,17.72,0,0,1,1.68,3.2ZM90.11,60.29a37.56,37.56,0,0,1,4.11-5q2-2,2.59-6.55A14.5,14.5,0,0,1,95,49a3.11,3.11,0,0,0-1.22.61,27.56,27.56,0,0,0-3.35,5A38.28,38.28,0,0,0,88,60.29ZM79.45,20.11,75.8,18.28V21c.81.41,1.37.71,1.68.91a12.41,12.41,0,0,0,2,.92ZM88,36.24a28.92,28.92,0,0,1,4.11-4.41q2-1.68,2.89-5.94H93.76V25a23.73,23.73,0,0,0-5.17,4.72,14,14,0,0,0-3.35,6.54ZM109.29,46a10.93,10.93,0,0,1-3.66-3.5,8.44,8.44,0,0,0-3.95-3.19,42.32,42.32,0,0,0,3,6.08,13.24,13.24,0,0,0,4.57,4.27ZM147.34,233.5c-3.45,0-7.06-.05-10.81-.15s-6.24-1.27-7.46-3.5V219.2a17,17,0,0,0,2-10,30.35,30.35,0,0,1,1.07-11q2.43-7.91,5.33-17.2a73.1,73.1,0,0,1,7.15-16.28,150.58,150.58,0,0,1,18.57-23.9,262.87,262.87,0,0,0,21.16-25.72A109.67,109.67,0,0,0,199.55,85.4q5.32-16,.45-35.76a83.2,83.2,0,0,0-9.28-4.27Q186,43.55,179,45.07a12.38,12.38,0,0,0-.76,3.8c-.1,1.53-.15,3.1-.15,4.72q1.51,2.44,1.67,7.77a105.2,105.2,0,0,1-.3,11.11q-.47,5.77-1.37,10.8c-.61,3.35-1,5.54-1.22,6.55a20.17,20.17,0,0,1-7.31,2.28c-3.25.51-6.75.86-10.5,1.07s-7.56.35-11.42.45-7.1.16-9.74.16a23.27,23.27,0,0,0-3-3.5q-1.22-1.07-1.83-5c.61-1.21.77-3.39.46-6.54s-.71-6.65-1.22-10.5-.86-7.77-1.06-11.73a26.53,26.53,0,0,1,.91-9.58q4.57-15.53,12-25.73T165.6,4.89a27,27,0,0,1,9-2.13A15.13,15.13,0,0,0,182.65,0q19.18-.31,34.4,5.78a60.34,60.34,0,0,1,24.66,17.5q9.43,11.42,12.18,27.86t-3,36.83v6.7a77.57,77.57,0,0,1-8.22,18.87q-5.48,9.14-11,16.75a85,85,0,0,0-7.61,6.69,41.84,41.84,0,0,0-4.87,7.92,50.42,50.42,0,0,1-4.87,8.22,45.8,45.8,0,0,1-6.24,7q-4.41,4.26-9,9.13t-8.22,9.29q-3.65,4.41-4.26,7.15c1.22.61,2.23,1.06,3,1.37a14.9,14.9,0,0,0,4.57.46q4.26,2.43,12.48,1.21t16.9-2.43a87.22,87.22,0,0,1,15.83-.91q7.15.3,9.28,6.08,2.13,2.74,2.59,8.22a87,87,0,0,1,.15,11.72,106,106,0,0,1-1.22,11.88c-.61,3.75-1.11,6.54-1.52,8.37q-3.65,1.81-10.65,2.28t-14.92.46q-7.92,0-15.83-.46t-13.09-.46q-2.75-1.81-8.68-2t-12.78.3q-6.85.46-13.7,1.07t-11.72.6ZM158,61.2a11.91,11.91,0,0,1,2.29-2.28c.51-.31,1-1.47,1.37-3.5h-1.83c-.61,1-1.16,1.93-1.67,2.74a6.67,6.67,0,0,1-2.29,2.13v.91Zm33.49-30.74v-.92c.41-.4.56-.6.46-.6s0-.41.45-1.22h-2.13l-.91,2.74Zm42.92,41.4V69.73a9.66,9.66,0,0,1-1.82-2.44,6.14,6.14,0,0,0-1.83-2.13,7.8,7.8,0,0,0,1.07,3.5,17.8,17.8,0,0,1,1.67,3.2ZM219.18,60.29a37.56,37.56,0,0,1,4.11-5q2-2,2.59-6.55a13.92,13.92,0,0,1-1.83.31,3.1,3.1,0,0,0-1.21.61,26.57,26.57,0,0,0-3.35,5,37.33,37.33,0,0,0-2.44,5.63ZM208.53,20.11l-3.66-1.83V21c.81.41,1.37.71,1.68.91a13.16,13.16,0,0,0,2,.92Zm8.52,16.13a28.92,28.92,0,0,1,4.11-4.41q2-1.68,2.89-5.94h-1.21V25a23.53,23.53,0,0,0-5.18,4.72,14,14,0,0,0-3.35,6.54ZM238.36,46a11,11,0,0,1-3.65-3.5,8.47,8.47,0,0,0-4-3.19,42.32,42.32,0,0,0,3,6.08,13.33,13.33,0,0,0,4.57,4.27Z"/></g></g></g></g></svg>