<?xml version="1.0" encoding="utf-8"?>
<!-- Generator: Adobe Illustrator 24.0.0, SVG Export Plug-In . SVG Version: 6.00 Build 0)  -->
<svg version="1.1" id="Layer_1" xmlns="http://www.w3.org/2000/svg" xmlns:xlink="http://www.w3.org/1999/xlink" x="0px" y="0px"
	 viewBox="0 0 52.9 43.3" style="enable-background:new 0 0 52.9 43.3;" xml:space="preserve">
<style type="text/css">
	.st0{fill:#231F20;}
</style>
<title>Asset 8</title>
<g id="Layer_2_1_">
	<g id="Layer_1-2">
		<g id="fecace4d-48f8-490e-a61c-6bbb1d3dd33f">
			<g id="fecace4d-48f8-490e-a61c-6bbb1d3dd33f-child-0">
				<path class="st0" d="M27,43.3c-2.6,0.1-5.2,0-7.8-0.2c-1.9-0.2-3.7-0.6-5.5-1.2c-1-0.3-1.8-1-2.3-1.9c-0.1-0.6-0.2-1.1-0.3-1.7
					c-0.7-4.2-1.8-8.3-3.5-12.3c-1-2.6-2.2-5.5-2.8-7c-0.6-1.4-0.7-1.7-0.4-2.2c0.1-0.3,0.3-0.5,0.5-0.6c0.3-0.2,0.7-0.2,1.1-0.1
					c0.1,0,1.1,1,2.3,2.1s2.6,2.5,3.2,3.1c1,0.9,2,1.7,3.1,2.5c0.1,0-0.2-2.9-0.5-4.5c-0.1-0.7-0.3-1.9-0.4-2.7s-0.2-1.4-0.2-1.5
					c-0.2-0.1-0.4-0.2-0.6-0.3c-0.7-0.3-1.3-0.8-1.6-1.4c-0.2-0.3-0.3-0.7-0.3-1.1c-0.1-0.4-0.1-0.8,0.1-1.1
					c0.1-0.6,0.4-1.1,0.8-1.5c0.3-0.4,0.7-0.6,1.2-0.8c1.1-0.4,2.2-0.1,3.1,0.6c0.5,0.4,0.8,0.9,1,1.5c0.4,1.2,0,2.4-0.9,3.3
					l-0.3,0.3l0.3,0.5c1.1,2.1,2.3,4,3.8,5.8c0.9,1.1,1.9,2,1.9,1.9s0.2-1.3,0.9-4.4l0.6-3.2c0.1-0.6,0.3-1.7,0.5-2.4
					s0.4-2.2,0.6-3.2c0.3-1.8,0.4-2,0.2-2c-0.8-0.3-1.4-0.9-1.9-1.5c-1-1.5-0.9-3.4,0.3-4.8c0.5-0.6,1.1-1,1.8-1.2
					c1.3-0.5,2.8-0.1,3.8,0.8c1.3,1.1,1.7,2.9,1.1,4.5c-0.3,0.7-0.8,1.3-1.5,1.7c-0.2,0.1-0.4,0.3-0.4,0.3s0.3,0.9,0.6,1.8
					s0.8,2.5,1.2,3.5s0.7,2.2,0.9,2.7s0.5,1.6,0.8,2.4s0.7,1.9,0.8,2.4s0.4,1,0.5,1.3c0,0.2,0.1,0.3,0.2,0.5c0.5-0.6,1-1.3,1.5-2
					c1.3-2.1,2.3-4.2,3.1-6.5l0.1-0.3l-0.5-0.4c-1.2-0.9-1.6-2.4-1-3.8c0.4-1,1.3-1.7,2.3-1.9c1-0.2,2,0.1,2.8,0.8
					c0.5,0.4,0.8,1,0.9,1.6c0.3,1.3-0.3,2.7-1.5,3.4c-0.2,0.1-0.3,0.2-0.5,0.2c-0.1,0-0.1,0.4,0,3.6c0,1.4,0,3.1,0.1,3.9
					c0,0.5,0,0.9,0.1,1.4c0,0,0.3-0.2,1.4-1.4s2.3-2.6,4.3-5.3c0.6-0.8,1.2-1.6,1.9-2.3c0.4-0.1,0.8-0.1,1.2,0.1
					c0.3,0.3,0.6,0.7,0.6,1.1c-0.1,0.8-0.3,1.5-0.6,2.2c-0.8,2.8-1.8,6.9-2.2,9.2c-0.7,3.2-1.1,6.5-1.2,9.8c0,0.7,0,1.5,0,1.8
					c-0.1,1.2-0.9,2-2.7,2.9c-2.8,1.2-5.8,2-8.9,2.4C31.7,43,29.3,43.2,27,43.3 M32.6,40.4c1.2-0.2,4.1-0.7,5.1-1
					c2.8-0.7,5-1.7,5.4-2.3S43,36.4,41.4,36c-3.4-0.8-6.9-1.1-10.4-1c-5.3,0.1-10.6,1-15.6,2.8c-1.3,0.5-1.7,0.8-1.7,1
					s0.8,0.8,2.2,1.1c3.6,0.8,7.4,1.1,11.1,1C28.1,40.9,31.5,40.5,32.6,40.4 M13.9,35.8c2.8-1,5.6-1.8,8.6-2.3
					c3.8-0.6,7.6-0.9,11.4-0.8c3.1,0.1,6.2,0.5,9.2,1.3c0.1,0,0.2,0,0.3,0c0,0,0.1-0.7,0.2-1.5c0.1-1.3,0.4-3.6,0.8-5.5
					c0.3-1.6,1.2-5.4,1.8-7.5c0-0.1,0-0.1-1.1,1.3c-1.3,1.6-2.7,3-4.3,4.4c-0.6,0.5-1.5,0.5-2.1,0c-0.5-0.4-0.5-0.5-0.6-3.2
					c0-1.2-0.1-2.4,0-2.5s-0.1-0.3-0.1-0.1s-1.3,2.3-1.8,3c-0.6,1-1.4,1.9-2.3,2.7c-0.4,0.3-0.9,0.3-1.4,0.1
					c-0.4-0.2-0.7-0.5-0.9-0.8c-0.1-0.2-1.3-3.6-2.1-6c-1.5-4.4-2.4-7-2.4-7s-0.2,1-0.5,2.2c-1.8,9.1-2.2,11.3-2.4,11.6
					c-0.4,0.8-1.4,1.1-2.2,0.6c-0.1,0-0.1-0.1-0.2-0.1c-1.5-1.3-2.9-2.7-4.1-4.4c-0.2-0.2-0.4-0.5-0.6-0.7c0,0,0.1,1.1,0.3,2.4
					s0.3,2.5,0.2,2.6c-0.1,0.9-0.9,1.5-1.8,1.4c-0.2,0-0.3-0.1-0.4-0.1c-0.9-0.5-1.7-1-2.5-1.6c-0.9-0.7-3.4-2.8-3.6-3.2
					s-0.3-0.2-0.1,0s1.1,2.6,1.6,4.1c1,2.7,1.6,4.7,2.3,6.9c0.3,1.1,0.7,2.8,0.7,3s0.1,0,0.1,0L13.9,35.8 M14.8,12.7
					c0.2-0.2,0.4-0.4,0.4-0.7c0-0.3-0.2-0.5-0.4-0.6c-0.1-0.1-0.3-0.1-0.4-0.1c-0.3,0-0.6,0.2-0.7,0.5c-0.2,0.4,0,0.8,0.4,1
					C14.3,12.9,14.5,12.9,14.8,12.7 M39.3,11c0.3-0.1,0.4-0.4,0.4-0.7c0-0.2-0.1-0.4-0.3-0.5c-0.3-0.3-0.7-0.3-1.1-0.1
					s-0.3,0.7-0.1,1.1l0,0c0.2,0.2,0.4,0.3,0.7,0.4C39.1,11.1,39.2,11.1,39.3,11 M26.8,5.4c0.4-0.2,0.7-0.5,0.9-0.9
					c0.3-0.8-0.1-1.7-0.9-2c-0.8-0.4-1.8,0-2.2,0.9c-0.1,0.2-0.1,0.3-0.1,0.5c0,0.7,0.4,1.3,1.1,1.5C25.9,5.6,26.4,5.6,26.8,5.4
					 M2.8,14.2c-0.3-0.1-0.6-0.2-0.8-0.3c-1.1-0.6-1.8-1.8-1.9-3c-0.1-1.3,0.5-2.6,1.6-3.4c1.1-0.7,2.5-0.8,3.7-0.2
					c1.3,0.7,2.1,2.1,1.9,3.6c-0.1,1.4-1.1,2.6-2.4,3.1C4.2,14.2,3.5,14.2,2.8,14.2 M4.3,11.7c0.6-0.3,0.9-1,0.6-1.6
					c0,0,0-0.1-0.1-0.1c-0.2-0.4-0.6-0.6-1-0.7c-0.7,0-1.3,0.5-1.4,1.2c0,0.7,0.5,1.3,1.2,1.4C3.9,11.8,4.1,11.8,4.3,11.7 M48.5,11
					c-0.6-0.1-1.2-0.4-1.6-0.8c-0.5-0.4-0.9-0.9-1.1-1.6c-0.3-0.8-0.3-1.8,0.1-2.6c0.8-1.9,2.9-2.7,4.8-1.9c0.9,0.4,1.6,1.1,2,2
					c0.2,0.7,0.3,1.4,0.2,2.1c-0.3,1.3-1.2,2.3-2.4,2.7C49.8,11.1,49.2,11.1,48.5,11 M50.1,8.4c0.2-0.1,0.3-0.3,0.4-0.5
					c0.3-0.7-0.1-1.4-0.7-1.7c-0.3-0.1-0.7-0.1-1,0c-0.7,0.3-1,1-0.7,1.6c0.2,0.4,0.5,0.7,0.9,0.8C49.4,8.7,49.8,8.6,50.1,8.4
					 M27.3,30.4c-0.4-0.2-0.7-0.6-0.8-1.1c0-0.6,0.3-1.1,0.8-1.3c0.4-0.1,0.8-0.1,1.2,0.1c0.4,0.2,0.6,0.6,0.7,1.1
					c0,0.4-0.2,0.8-0.5,1.1c-0.2,0.2-0.4,0.3-0.7,0.3C27.8,30.6,27.6,30.5,27.3,30.4L27.3,30.4z"/>
			</g>
		</g>
	</g>
</g>
</svg>
