<svg xmlns="http://www.w3.org/2000/svg" viewBox="0 0 3064.8 170.87"><defs><style>.cls-1{fill:#040404;}</style></defs><title>Asset 44</title><g id="Layer_2" data-name="Layer 2"><g id="Layer_1-2" data-name="Layer 1"><g id="_320190c8-526b-4141-a6a4-e41d1eaf444d" data-name="320190c8-526b-4141-a6a4-e41d1eaf444d"><g id="a6a5b4c1-6b7b-450c-90b8-a1a16d48f581"><path class="cls-1" d="M2826.84,1.63h5V33.77h-5ZM2851.18,6V33.77h-5V6H2836V1.63h25.27V6ZM2864,11l.66-.05a2.12,2.12,0,0,0,1.7-.77,3.11,3.11,0,0,0,.46-1.79v-2h-2.11V1.63h4.67v7a4.9,4.9,0,0,1-1.12,3.64,4.53,4.53,0,0,1-3.07,1.16H2864Zm15.34,21.89a9.59,9.59,0,0,1-4.23-3.71,10.31,10.31,0,0,1-1.41-5.4h5.11a6.07,6.07,0,0,0,2.19,4.9,9,9,0,0,0,5.53,1.54,8.47,8.47,0,0,0,5.34-1.41,4.67,4.67,0,0,0,1.76-3.84,3.87,3.87,0,0,0-1.17-3.06,7.65,7.65,0,0,0-3.11-1.57c-1.29-.35-2.73-.69-4.32-1a29.61,29.61,0,0,1-5.33-1.61A9.05,9.05,0,0,1,2876,15a7.29,7.29,0,0,1-1.37-4.61,8.23,8.23,0,0,1,1.48-5,9.26,9.26,0,0,1,4.14-3.13,16.46,16.46,0,0,1,6.2-1.08c3.85,0,6.79.85,8.84,2.55a8.74,8.74,0,0,1,3.11,7h-5.12a5.36,5.36,0,0,0-1.81-4.08,9.45,9.45,0,0,0-9.76-.22,4,4,0,0,0-1.7,3.42,3.47,3.47,0,0,0,1.06,2.75,7.2,7.2,0,0,0,2.89,1.46c1.22.34,2.59.66,4.12,1a34.69,34.69,0,0,1,4.19,1,12.48,12.48,0,0,1,3.5,1.68,7.74,7.74,0,0,1,2.41,2.73,8.82,8.82,0,0,1,.88,4.15,8.9,8.9,0,0,1-1.59,5.42,9.27,9.27,0,0,1-4.41,3.19,19.15,19.15,0,0,1-6.61,1,16.53,16.53,0,0,1-7.06-1.34Zm43-31.24h6.92l11.38,32.14h-5L2933,26.23h-14.51l-2.69,7.54h-4.89Zm9.43,20.72-3.79-10.63-2.11-6h-.27l-2.16,6.09-3.75,10.58ZM2944,1.63h15.21c3.15,0,5.51.71,7.1,2.14a7.59,7.59,0,0,1,2.38,6,7.91,7.91,0,0,1-1.39,4.7,6.6,6.6,0,0,1-4.12,2.58v.3a7.15,7.15,0,0,1,4.59,2.39,7.67,7.67,0,0,1,1.71,5.2q0,4.55-2.93,6.7a13,13,0,0,1-7.87,2.16H2944Zm4.85,3.75V15.52h9.08a6.21,6.21,0,0,0,4.1-1.22,4,4,0,0,0,1.46-3.19V9.65a3.62,3.62,0,0,0-1.54-3.24,7.09,7.09,0,0,0-4-1Zm0,13.8V30h9.35a6.86,6.86,0,0,0,4.38-1.28,4.3,4.3,0,0,0,1.61-3.57V23.76a4,4,0,0,0-1.58-3.39,7.18,7.18,0,0,0-4.37-1.19ZM2977.52,30q-4-4.26-4-12.15v-.18a19.48,19.48,0,0,1,1.88-9,12.74,12.74,0,0,1,5.31-5.51,18.54,18.54,0,0,1,16.27,0,12.74,12.74,0,0,1,5.31,5.51,19.49,19.49,0,0,1,1.87,9v.18q0,7.89-4,12.15t-11.33,4.25Q2981.51,34.21,2977.52,30Zm18.74-2.78a9.81,9.81,0,0,0,2.58-7.12V15.38a11,11,0,0,0-1.13-5.07,8.2,8.2,0,0,0-3.32-3.46,12.92,12.92,0,0,0-11.09,0,8.15,8.15,0,0,0-3.35,3.46,11,11,0,0,0-1.13,5.07v4.68a9.78,9.78,0,0,0,2.6,7.12q2.6,2.67,7.41,2.67T2996.26,27.18Zm19.42,5.47a10.57,10.57,0,0,1-4.47-4.41,13.93,13.93,0,0,1-1.52-6.64v-20h5V21.29a8.45,8.45,0,0,0,2.25,6.18,8.14,8.14,0,0,0,6.12,2.29,8.27,8.27,0,0,0,6.07-2.23,8.37,8.37,0,0,0,2.27-6.24V1.63h5v20a13.14,13.14,0,0,1-1.65,6.75,11.14,11.14,0,0,1-4.65,4.34,17.55,17.55,0,0,1-14.38,0ZM3054.7,6V33.77h-5V6h-10.15V1.63h25.27V6ZM2645.46,63.35h23v4.33h-18v9.39h15.78v4.05h-15.78V91.18h18V95.5h-23Zm29.28,0h7.54l8.91,25.75h.22l8.81-25.75H2708V95.5h-4.85V68.87h-.26l-.57,1.89-8.56,24.74h-4.85l-8.51-24.69-.57-1.94h-.31v1.94l.05,24.69h-4.81Zm41.53,0h15.2c3.15,0,5.51.71,7.1,2.14a7.62,7.62,0,0,1,2.38,6,7.88,7.88,0,0,1-1.39,4.69,6.54,6.54,0,0,1-4.12,2.58v.31a7.19,7.19,0,0,1,4.59,2.38,7.66,7.66,0,0,1,1.72,5.2q0,4.55-2.93,6.71A13,13,0,0,1,2731,95.5h-14.68Zm4.85,3.75V77.24h9.09a6.25,6.25,0,0,0,4.1-1.21,4,4,0,0,0,1.45-3.2V71.38a3.62,3.62,0,0,0-1.54-3.24,7.08,7.08,0,0,0-4-1Zm0,13.8V91.75h9.35a6.84,6.84,0,0,0,4.38-1.28,4.28,4.28,0,0,0,1.62-3.57V85.49a4,4,0,0,0-1.59-3.4,7.21,7.21,0,0,0-4.38-1.19Zm26.27-17.55h14.29c3.61,0,6.35.88,8.2,2.65a9.65,9.65,0,0,1,2.77,7.32,9.56,9.56,0,0,1-2.07,6.3,9.05,9.05,0,0,1-5.95,3.09L2773,95.5h-5.87l-7.84-12.08h-6.93V95.5h-5Zm5,4.37V79.49h8.38a8.18,8.18,0,0,0,4.83-1.25,4.27,4.27,0,0,0,1.74-3.69V72.66a4.24,4.24,0,0,0-1.74-3.68,8.11,8.11,0,0,0-4.83-1.26Zm33.86-4.37h6.93l11.37,32.15h-5L2796.9,88h-14.5l-2.69,7.54h-4.89Zm9.44,20.73-3.79-10.63-2.12-6h-.26l-2.16,6.09-3.75,10.58Zm13.16,7.6q-4-4.25-4-12.14v-.18a19.56,19.56,0,0,1,1.87-9,12.82,12.82,0,0,1,5.32-5.51,18.37,18.37,0,0,1,15-.51,12.45,12.45,0,0,1,4.89,3.84,11.79,11.79,0,0,1,2.28,5.82h-5.16a7.26,7.26,0,0,0-3.13-5,10.25,10.25,0,0,0-5.78-1.66,11.06,11.06,0,0,0-5.53,1.26,8.15,8.15,0,0,0-3.35,3.46,11,11,0,0,0-1.13,5.07v4.67a9.8,9.8,0,0,0,2.6,7.13q2.59,2.66,7.41,2.66a10,10,0,0,0,5.82-1.72,7.34,7.34,0,0,0,3.09-5h5.16a11.29,11.29,0,0,1-2.28,5.8,12.91,12.91,0,0,1-4.93,3.88,16.17,16.17,0,0,1-6.86,1.39q-7.32,0-11.31-4.26ZM2840,63.35h5V95.5h-5Zm13.27,0h6.4l14.46,23.5.7,1.37h.22V63.35h4.81V95.5h-6.09L2858.9,71.78l-.62-1.15h-.22V95.5h-4.81Zm36,28.33q-3.61-4.25-3.62-12v-.22a19.75,19.75,0,0,1,1.9-9.15,12.67,12.67,0,0,1,5.38-5.53,17.18,17.18,0,0,1,8.16-1.85,17.52,17.52,0,0,1,7,1.3,12.39,12.39,0,0,1,4.92,3.66,10.65,10.65,0,0,1,2.23,5.58H2910a7.06,7.06,0,0,0-3.11-4.59,10.63,10.63,0,0,0-5.93-1.59,11.34,11.34,0,0,0-5.6,1.26,8.13,8.13,0,0,0-3.37,3.48,11.19,11.19,0,0,0-1.12,5.1v4.67q0,4.8,2.66,7.32a9.93,9.93,0,0,0,7.08,2.51c3,0,5.4-.82,7-2.45a9,9,0,0,0,2.45-6.68v-.08h-9V78.74h14.25V95.5h-3.75l-.4-6.31H2911a8.73,8.73,0,0,1-4,4.92,13.38,13.38,0,0,1-7.08,1.83q-7.09,0-10.71-4.26Zm43.83-28.33h5V91h16.4V95.5h-21.38Zm27.42,0h5V95.5h-5Zm13.27,0h22.4v4.33h-17.42V78h15.66v4.1h-15.66V95.5h-5Zm27.65,0h23v4.33h-18v9.39h15.78v4.05h-15.78V91.18h18V95.5h-23Zm26.49,9.35.67,0a2.11,2.11,0,0,0,1.69-.77,3.15,3.15,0,0,0,.47-1.79v-2h-2.12V63.35h4.67v7a4.88,4.88,0,0,1-1.12,3.63,4.56,4.56,0,0,1-3.06,1.17h-1.2Zm15.35,21.89a9.51,9.51,0,0,1-4.23-3.7,10.22,10.22,0,0,1-1.42-5.4h5.12a6,6,0,0,0,2.18,4.89,9,9,0,0,0,5.54,1.55,8.36,8.36,0,0,0,5.33-1.42,4.66,4.66,0,0,0,1.76-3.83,3.92,3.92,0,0,0-1.16-3.07,7.65,7.65,0,0,0-3.11-1.56c-1.29-.35-2.73-.69-4.32-1a29.73,29.73,0,0,1-5.34-1.61,9.16,9.16,0,0,1-3.75-2.74,7.27,7.27,0,0,1-1.36-4.61,8.29,8.29,0,0,1,1.47-5A9.23,9.23,0,0,1,3044.1,64a16.41,16.41,0,0,1,6.19-1.08q5.77,0,8.84,2.56a8.71,8.71,0,0,1,3.11,7h-5.11a5.36,5.36,0,0,0-1.81-4.08,9.41,9.41,0,0,0-9.77-.22,4,4,0,0,0-1.69,3.42,3.51,3.51,0,0,0,1,2.75,7.2,7.2,0,0,0,2.89,1.46c1.22.33,2.59.65,4.12.94a36.16,36.16,0,0,1,4.19,1,12.67,12.67,0,0,1,3.51,1.67,7.66,7.66,0,0,1,2.4,2.74,8.75,8.75,0,0,1,.88,4.14,9,9,0,0,1-1.58,5.42,9.22,9.22,0,0,1-4.41,3.2,19.25,19.25,0,0,1-6.62,1,16.29,16.29,0,0,1-7.05-1.35Zm-357.3,30.48h5v32.14h-5Zm13.27,0h7.54l8.91,25.75h.22l8.81-25.75h7.76v32.14h-4.85V130.58h-.26l-.57,1.9-8.56,24.73h-4.85l-8.51-24.69-.57-1.94H2704v1.94l.05,24.69h-4.81Zm41.52,0h14.07q5.55,0,8.38,2.78t2.82,7.76a10.54,10.54,0,0,1-2.82,7.69c-1.89,1.93-4.75,2.89-8.6,2.89h-8.86v11h-5Zm5,4.37v12.65h8.37a7.53,7.53,0,0,0,4.83-1.39,4.82,4.82,0,0,0,1.74-4v-1.89a4.79,4.79,0,0,0-1.74-4,7.53,7.53,0,0,0-4.83-1.39Zm26.1-4.37h23v4.32h-18v9.39h15.78v4.06H2776.8v10h18v4.32h-23Zm29.27,0h14.29c3.61,0,6.35.88,8.2,2.65a9.62,9.62,0,0,1,2.78,7.32,9.51,9.51,0,0,1-2.08,6.3,9.14,9.14,0,0,1-6,3.09l8.38,12.78h-5.86L2813,145.13h-6.92v12.08h-5Zm5,4.37v11.77h8.37a8.11,8.11,0,0,0,4.83-1.26,4.24,4.24,0,0,0,1.74-3.68v-1.9a4.26,4.26,0,0,0-1.74-3.68,8.18,8.18,0,0,0-4.83-1.25Zm26.8-4.37h22.4v4.32h-17.42v10.28h15.66v4.1h-15.66v13.44h-5Zm27.65,0h23v4.32h-18v9.39h15.78v4.06h-15.78v10h18v4.32h-23Zm30.22,28.33q-4-4.26-4-12.15v-.17a19.56,19.56,0,0,1,1.87-9,12.76,12.76,0,0,1,5.32-5.51,18.26,18.26,0,0,1,15-.51,12.45,12.45,0,0,1,4.89,3.84,11.79,11.79,0,0,1,2.28,5.82H2911a7.3,7.3,0,0,0-3.13-5,10.32,10.32,0,0,0-5.78-1.65,11.06,11.06,0,0,0-5.53,1.26,8.1,8.1,0,0,0-3.35,3.46,11,11,0,0,0-1.13,5.07v4.67a9.78,9.78,0,0,0,2.6,7.12q2.59,2.67,7.41,2.67a10,10,0,0,0,5.82-1.72,7.34,7.34,0,0,0,3.09-5h5.16a11.36,11.36,0,0,1-2.28,5.8,12.91,12.91,0,0,1-4.93,3.88,16.32,16.32,0,0,1-6.86,1.38q-7.32,0-11.31-4.25Zm41.69-24v27.77h-5V129.44h-10.14v-4.37h25.27v4.37Zm14.28-4.37h5v32.14h-5Zm14.8,28.33q-4-4.26-4-12.15v-.17a19.56,19.56,0,0,1,1.87-9,12.74,12.74,0,0,1,5.31-5.51,18.54,18.54,0,0,1,16.27,0,12.76,12.76,0,0,1,5.32,5.51,19.56,19.56,0,0,1,1.87,9v.17q0,7.89-4,12.15t-11.33,4.25q-7.32,0-11.31-4.25Zm18.73-2.78a9.81,9.81,0,0,0,2.58-7.12v-4.67a11,11,0,0,0-1.12-5.07,8.17,8.17,0,0,0-3.33-3.46,12.83,12.83,0,0,0-11.09,0,8.15,8.15,0,0,0-3.35,3.46,11,11,0,0,0-1.12,5.07v4.67a9.78,9.78,0,0,0,2.6,7.12q2.6,2.67,7.41,2.67c3.23,0,5.71-.89,7.42-2.67ZM2994,125.07h6.39l14.46,23.5.71,1.37h.22V125.07h4.81v32.14h-6.09l-14.86-23.72-.61-1.14h-.22v24.86H2994Zm38.18,31.24a9.57,9.57,0,0,1-4.23-3.7,10.34,10.34,0,0,1-1.41-5.41h5.11a6,6,0,0,0,2.18,4.9,9,9,0,0,0,5.54,1.54,8.42,8.42,0,0,0,5.33-1.41,4.64,4.64,0,0,0,1.77-3.83,3.89,3.89,0,0,0-1.17-3.07,7.65,7.65,0,0,0-3.11-1.56q-1.93-.53-4.32-1a29.73,29.73,0,0,1-5.34-1.61,9,9,0,0,1-3.74-2.73,7.27,7.27,0,0,1-1.37-4.61,8.23,8.23,0,0,1,1.48-5,9.15,9.15,0,0,1,4.14-3.13,16.46,16.46,0,0,1,6.2-1.08c3.85,0,6.79.85,8.84,2.56a8.73,8.73,0,0,1,3.1,7h-5.11a5.32,5.32,0,0,0-1.81-4.07,9.39,9.39,0,0,0-9.76-.22,4,4,0,0,0-1.7,3.41,3.49,3.49,0,0,0,1.06,2.76,7.09,7.09,0,0,0,2.88,1.45c1.22.34,2.6.66,4.13,1a36.68,36.68,0,0,1,4.19,1,12.48,12.48,0,0,1,3.5,1.68,7.71,7.71,0,0,1,2.4,2.73,10.07,10.07,0,0,1-.7,9.57,9.29,9.29,0,0,1-4.41,3.2,19.16,19.16,0,0,1-6.61,1,16.46,16.46,0,0,1-7.06-1.34Z"/></g></g><g id="_8d6773ca-3478-4a14-84a6-2b7894681897" data-name="8d6773ca-3478-4a14-84a6-2b7894681897"><g id="_2b500df4-ca42-4ea4-949f-35b19c6d5e41" data-name="2b500df4-ca42-4ea4-949f-35b19c6d5e41"><path class="cls-1" d="M372.22,17.23h34v9H382.8V37.6h20.89v8.51H382.8V64.23H372.22ZM419.58,62a18.33,18.33,0,0,1-7.7-8.28,29.38,29.38,0,0,1-2.58-12.8V40.7a28,28,0,0,1,2.83-13.22,19,19,0,0,1,8-8.09,28.24,28.24,0,0,1,24.27,0,19,19,0,0,1,8,8.09A28,28,0,0,1,455.2,40.7v.19a29.52,29.52,0,0,1-2.57,12.8A18.45,18.45,0,0,1,445,62a29.19,29.19,0,0,1-25.37,0ZM441,52.79q3.17-2.94,3.16-8.35V37.08A11.48,11.48,0,0,0,441.18,29q-2.93-3.16-8.93-3.16T423.32,29a11.48,11.48,0,0,0-2.93,8.12v7.36q0,5.41,3.16,8.35t8.7,2.93q5.55,0,8.7-2.93Zm20.9-35.56h22.3q8.44,0,12.61,4.06t4.16,11a14,14,0,0,1-2.84,8.9,13.5,13.5,0,0,1-7.93,4.77L501.5,64.23H489.18l-9.93-16.7h-6.83v16.7H461.85Zm10.57,9V39.6h9.86a9,9,0,0,0,5.58-1.52,5,5,0,0,0,2-4.15v-2a4.89,4.89,0,0,0-2-4.23,9.29,9.29,0,0,0-5.52-1.45Zm35.78-9H544v9H518.78v10H540.7v8.38H518.78V55.27H544v9H508.2Zm38.69,0h11.74L569,51.33l.9,3h.45l.84-3,10.51-34.1h11.67l-16.12,47H563.08Zm51.39,0h35.79v9H608.85v10h21.93v8.38H608.85V55.27h25.22v9H598.28Zm43.2,0h22.31q8.44,0,12.6,4.06t4.16,11a14,14,0,0,1-2.83,8.9,13.5,13.5,0,0,1-7.93,4.77l11.34,18.31H668.82l-9.93-16.7h-6.84v16.7H641.48Zm10.57,9V39.6h9.87a9,9,0,0,0,5.58-1.52,5,5,0,0,0,2-4.15v-2a4.89,4.89,0,0,0-2-4.23,9.28,9.28,0,0,0-5.51-1.45ZM370.93,94.6H405v9H381.51V115H402.4v8.51H381.51v18.11H370.93Zm48.46,45.29a15.37,15.37,0,0,1-6.68-6.57,21,21,0,0,1-2.19-9.77V94.6H421v28.3a10.33,10.33,0,0,0,2.54,7.39q2.55,2.67,7.26,2.67a9.7,9.7,0,0,0,7.09-2.58q2.64-2.58,2.64-7.48V94.6H451v29a19.16,19.16,0,0,1-2.52,10.06,16.44,16.44,0,0,1-7.06,6.41,23.9,23.9,0,0,1-10.67,2.23,24.18,24.18,0,0,1-11.31-2.36ZM460,94.6h35.79v9H470.61v10h21.93v8.38H470.61v10.7h25.22v9H460Zm43.2,0h10.57v37.72h22.06v9.27H503.24Zm39.27,0h35.78v9H553.08v10H575v8.38H553.08v10.7h25.21v9H542.51Zm43.2-.07H605q11.34,0,17.08,6.19t5.74,17.16v.45q0,7.94-2.87,13.08a18.2,18.2,0,0,1-8,7.67,27,27,0,0,1-12,2.51H585.71ZM605,132.64q5.73,0,8.7-2.93a10.79,10.79,0,0,0,3-8v-7.22a11,11,0,0,0-2.87-8c-1.91-2-4.85-3-8.8-3h-8.71v29.14Z"/></g></g><g id="_0d51bd5c-12c1-42eb-974f-c516c74e6975" data-name="0d51bd5c-12c1-42eb-974f-c516c74e6975"><g id="_0d51bd5c-12c1-42eb-974f-c516c74e6975-child-0" data-name="0d51bd5c-12c1-42eb-974f-c516c74e6975-child-0"><path class="cls-1" d="M2376.11,79.44c0,43.8,37.63,79.44,83.87,79.44V141.69c-36.77,0-66.67-27.93-66.67-62.25S2423.21,17.2,2460,17.2V0C2413.74,0,2376.11,35.64,2376.11,79.44Z"/></g><g id="_0d51bd5c-12c1-42eb-974f-c516c74e6975-child-1" data-name="0d51bd5c-12c1-42eb-974f-c516c74e6975-child-1"><path class="cls-1" d="M2553.35,17.2V0c-46.25,0-83.87,35.64-83.87,79.44s37.62,79.44,83.87,79.44V141.69c-33.64,0-61.54-23.38-66-53.65h65V70.84h-65C2491.81,40.58,2519.71,17.2,2553.35,17.2Z"/></g></g><g id="_36f2aa21-c41f-4573-bf53-ced306678fff" data-name="36f2aa21-c41f-4573-bf53-ced306678fff"><g id="_36f2aa21-c41f-4573-bf53-ced306678fff-child-0" data-name="36f2aa21-c41f-4573-bf53-ced306678fff-child-0"><path class="cls-1" d="M79.44,0A79.44,79.44,0,1,1,0,79.44,79.47,79.47,0,0,1,79.44,0Zm0,15.89A63.55,63.55,0,1,0,143,79.44,63.53,63.53,0,0,0,79.44,15.89Zm0,23.83A39.72,39.72,0,0,1,113.52,59L99.86,67.21A24,24,0,0,0,91,58.63a22.93,22.93,0,0,0-11.92-3,24.22,24.22,0,0,0-11.83,3.33,23.23,23.23,0,0,0-8.58,8.74,24,24,0,0,0-3.1,11.92,23.07,23.07,0,0,0,3.26,11.84,23.38,23.38,0,0,0,8.73,8.65,23.79,23.79,0,0,0,11.84,3.18,23.42,23.42,0,0,0,11.76-3.1,22.8,22.8,0,0,0,8.66-8.5l13.66,8.19A39.53,39.53,0,0,1,68.8,117.73a39.73,39.73,0,0,1,10.64-78Z"/></g></g><g id="e09c86b6-2b88-4423-b0de-bb09b41a0ce3"><g id="e09c86b6-2b88-4423-b0de-bb09b41a0ce3-child-0"><path class="cls-1" d="M261.72,66.2a26.47,26.47,0,0,0-26.48-26.48H212.07a16.55,16.55,0,0,0-16.55,16.55v62.89h13.24V92.68h18.53l15.89,26.48h15.23L242.12,91.75A26.43,26.43,0,0,0,261.72,66.2ZM235.24,79.44H208.76V56.27A3.28,3.28,0,0,1,212.07,53h23.17a13.24,13.24,0,0,1,0,26.48ZM225.31,0a79.44,79.44,0,1,0,79.44,79.44A79.5,79.5,0,0,0,225.31,0Zm0,145.64a66.2,66.2,0,1,1,66.2-66.2A66.3,66.3,0,0,1,225.31,145.64Z"/></g></g><g id="ca765773-3936-4797-a844-0a7490679ab4"><g id="d5630765-fed3-4d86-9842-f44e84a9791f"><path class="cls-1" d="M809.06,21.54l-.58-5.42V11.64h2.42v4.48l-.58,5.42Zm5.71,0-.58-5.42V11.64h2.41v4.48L816,21.54Zm8.78,12.94a6.82,6.82,0,0,1-3-2.71,7.68,7.68,0,0,1-1-3.95h2.93a5.09,5.09,0,0,0,1.76,4,7.07,7.07,0,0,0,4.43,1.26A6.67,6.67,0,0,0,833,31.93a3.89,3.89,0,0,0,1.42-3.17,3.25,3.25,0,0,0-.92-2.5,5.86,5.86,0,0,0-2.4-1.29c-1-.29-2.07-.56-3.25-.79a22.85,22.85,0,0,1-3.79-1.1,6.69,6.69,0,0,1-2.77-1.92,5,5,0,0,1-1-3.36,5.8,5.8,0,0,1,1-3.49,6.46,6.46,0,0,1,2.91-2.22,11.56,11.56,0,0,1,4.39-.77,9.26,9.26,0,0,1,6.25,1.88,6.59,6.59,0,0,1,2.23,5.05h-3a4.68,4.68,0,0,0-1.45-3.39,6,6,0,0,0-4.13-1.22,6.26,6.26,0,0,0-3.79,1,3.39,3.39,0,0,0-1.4,2.86,2.89,2.89,0,0,0,.84,2.25A5.23,5.23,0,0,0,826.42,21c.93.26,2,.51,3.11.75a25,25,0,0,1,3,.74,10.3,10.3,0,0,1,2.57,1.19,5.38,5.38,0,0,1,1.79,1.94,6.1,6.1,0,0,1,.66,3,6.43,6.43,0,0,1-1.11,3.86,6.65,6.65,0,0,1-3.13,2.28,13.22,13.22,0,0,1-4.69.76,11.6,11.6,0,0,1-5.05-1Zm24.94-20.33v21h-2.87v-21H838V11.64h18v2.51Zm14-2.51h4l8.51,23.5h-2.86l-2.13-5.93H858.87l-2.16,5.93H853.9ZM869.19,27l-3-8.15L864.48,14h-.19l-1.78,4.87L859.58,27Zm12.15-1.67-8.25-13.67h3.25L882,21.15l.74,1.32h.17l.74-1.32,5.61-9.51h3.25l-8.25,13.67v9.83h-2.87Zm23.41-13.67h10.09a8.27,8.27,0,0,1,5.86,1.88,7,7,0,0,1,2,5.31,7.08,7.08,0,0,1-1.54,4.69,6.71,6.71,0,0,1-4.55,2.21L923,35.14h-3.38l-6.13-9.09h-5.87v9.09h-2.83Zm2.83,2.51v9.61h6.74a6.59,6.59,0,0,0,3.9-1,3.41,3.41,0,0,0,1.42-3V18.15a3.44,3.44,0,0,0-1.42-3,6.52,6.52,0,0,0-3.9-1Zm25.54-2.51h4l8.51,23.5h-2.87l-2.12-5.93H929.54l-2.16,5.93h-2.81ZM939.85,27l-3-8.15L935.15,14H935l-1.77,4.87L930.25,27Zm8.93-15.34h8.77q5.1,0,8,2.88c1.93,1.93,2.9,4.83,2.9,8.72v.26a14.21,14.21,0,0,1-1.35,6.63,8.59,8.59,0,0,1-3.81,3.78,12.64,12.64,0,0,1-5.74,1.23h-8.77Zm8.74,21a8.11,8.11,0,0,0,5.79-2A7.35,7.35,0,0,0,965.39,25V21.76a7.76,7.76,0,0,0-1.95-5.53q-2-2.09-5.92-2.08h-5.9V32.63Zm13.51,6,.42,0a1.24,1.24,0,0,0,1.06-.55,2.51,2.51,0,0,0,.29-1.29V35.14h-1.26v-3h2.78V37a3.44,3.44,0,0,1-.68,2.37,2.77,2.77,0,0,1-1.93.79H971Zm18.71-4.17a6.82,6.82,0,0,1-3-2.71,7.68,7.68,0,0,1-1-3.95h2.93a5.09,5.09,0,0,0,1.76,4,7.07,7.07,0,0,0,4.43,1.26,6.72,6.72,0,0,0,4.36-1.18,3.91,3.91,0,0,0,1.41-3.17,3.25,3.25,0,0,0-.92-2.5A5.86,5.86,0,0,0,997.3,25c-1-.29-2.07-.56-3.25-.79a22.85,22.85,0,0,1-3.79-1.1,6.69,6.69,0,0,1-2.77-1.92,5,5,0,0,1-1-3.36,5.8,5.8,0,0,1,1-3.49,6.46,6.46,0,0,1,2.91-2.22,11.56,11.56,0,0,1,4.39-.77A9.26,9.26,0,0,1,1001,13.2a6.59,6.59,0,0,1,2.23,5.05h-3a4.68,4.68,0,0,0-1.45-3.39,6,6,0,0,0-4.13-1.22,6.21,6.21,0,0,0-3.78,1,3.37,3.37,0,0,0-1.41,2.86,2.89,2.89,0,0,0,.84,2.25A5.23,5.23,0,0,0,992.61,21c.93.26,2,.51,3.11.75a25.61,25.61,0,0,1,3,.74,10.39,10.39,0,0,1,2.56,1.19,5.38,5.38,0,0,1,1.79,1.94,6.1,6.1,0,0,1,.66,3,6.43,6.43,0,0,1-1.11,3.86,6.65,6.65,0,0,1-3.13,2.28,13.22,13.22,0,0,1-4.69.76,11.6,11.6,0,0,1-5-1Zm24.94-20.33v21h-2.87v-21h-7.61V11.64h18.06v2.51Zm14-2.51h4l8.52,23.5h-2.87l-2.13-5.93h-11.06l-2.16,5.93h-2.8ZM1035.38,27l-3-8.15L1030.67,14h-.19l-1.78,4.87L1025.77,27Zm12.15-1.67-8.25-13.67h3.25l5.61,9.51.75,1.32h.16l.74-1.32,5.61-9.51h3.25l-8.25,13.67v9.83h-2.87Zm23.41-13.67h10.85a7.32,7.32,0,0,1,5,1.53,5.54,5.54,0,0,1,1.73,4.37,5.77,5.77,0,0,1-1,3.45,5.05,5.05,0,0,1-3,1.93v.23a5.34,5.34,0,0,1,3.34,1.75,5.58,5.58,0,0,1,1.24,3.79,5.73,5.73,0,0,1-2.07,4.85,8.77,8.77,0,0,1-5.54,1.6h-10.54Zm2.76,2.19v8.22h7.41a4.92,4.92,0,0,0,3.26-1,3.23,3.23,0,0,0,1.16-2.57V17.28a3,3,0,0,0-1.22-2.6,5.56,5.56,0,0,0-3.23-.85Zm0,10.38V33h7.54a5.46,5.46,0,0,0,3.52-1,3.52,3.52,0,0,0,1.29-2.91V27.89a3.18,3.18,0,0,0-1.29-2.73,5.77,5.77,0,0,0-3.48-.95Zm21.65,8.21c-2-2-2.95-5-2.95-9v-.13a14.46,14.46,0,0,1,1.35-6.59,9.36,9.36,0,0,1,3.84-4,13.32,13.32,0,0,1,11.77,0,9.28,9.28,0,0,1,3.83,4,14.33,14.33,0,0,1,1.36,6.59v.13c0,3.93-1,6.92-3,9a12.38,12.38,0,0,1-16.25,0Zm12.51-.47a6.61,6.61,0,0,0,2.7-2.77,8.91,8.91,0,0,0,.92-4.13V21.76a8.89,8.89,0,0,0-.9-4.09,6.5,6.5,0,0,0-2.68-2.79,10.17,10.17,0,0,0-8.88,0,6.52,6.52,0,0,0-2.69,2.79,8.89,8.89,0,0,0-.9,4.09v3.29a8.91,8.91,0,0,0,.92,4.13,6.6,6.6,0,0,0,2.72,2.77,10.16,10.16,0,0,0,8.79,0Zm11.39-20.31h2.84V32.56h12.48v2.58h-15.32Zm20.25,0h8.77a10.84,10.84,0,0,1,8,2.88c1.93,1.93,2.9,4.83,2.9,8.72v.26a14.21,14.21,0,0,1-1.35,6.63,8.52,8.52,0,0,1-3.8,3.78,12.64,12.64,0,0,1-5.74,1.23h-8.77Zm8.74,21a8.08,8.08,0,0,0,5.78-2A7.35,7.35,0,0,0,1156.1,25V21.76a7.76,7.76,0,0,0-1.95-5.53q-2-2.09-5.91-2.08h-5.9V32.63Zm13.5,6,.42,0a1.25,1.25,0,0,0,1.07-.55,2.51,2.51,0,0,0,.29-1.29V35.14h-1.26v-3H1165V37a3.44,3.44,0,0,1-.68,2.37,2.75,2.75,0,0,1-1.93.79h-.68Zm21.54-27h4l8.52,23.5h-2.87l-2.13-5.93H1179.7l-2.16,5.93h-2.8ZM1190,27l-3-8.15L1185.31,14h-.19l-1.78,4.87L1180.41,27ZM1199,11.64h3.64l11.93,18.44.55,1h.16V11.64H1218v23.5h-3.55l-12.12-18.57-.45-.84h-.16V35.14H1199Zm25.72,0h8.77q5.1,0,8,2.88c1.93,1.93,2.9,4.83,2.9,8.72v.26a14.08,14.08,0,0,1-1.36,6.63,8.52,8.52,0,0,1-3.8,3.78,12.64,12.64,0,0,1-5.74,1.23h-8.77Zm8.74,21a8.11,8.11,0,0,0,5.79-2,7.35,7.35,0,0,0,2.08-5.65V21.76a7.76,7.76,0,0,0-2-5.53q-1.95-2.09-5.92-2.08h-5.9V32.63Zm23.53-21h3.65l11.93,18.44.54,1h.16V11.64H1276v23.5h-3.55l-12.12-18.57-.45-.84h-.16V35.14h-2.78Zm25.73,0h16.25v2.51h-13.41v7.77h11.83v2.36h-11.83v8.35h13.41v2.51h-16.25Zm18.57,0h3.13l6.83,19.47.42,1.39h.23l.45-1.39,6.87-19.47h3.12l-8.57,23.5h-3.94Zm25,0h16.25v2.51h-13.42v7.77h11.84v2.36h-11.84v8.35h13.42v2.51h-16.25Zm21.31,0h10.09a8.28,8.28,0,0,1,5.87,1.88,7,7,0,0,1,2,5.31,7.08,7.08,0,0,1-1.54,4.69,6.71,6.71,0,0,1-4.55,2.21l6.35,9.41h-3.38l-6.13-9.09h-5.87v9.09h-2.83Zm2.83,2.51v9.61h6.74a6.59,6.59,0,0,0,3.9-1,3.41,3.41,0,0,0,1.42-3V18.15a3.44,3.44,0,0,0-1.42-3,6.52,6.52,0,0,0-3.9-1Zm28.34-2.51h2.84V32.56h12.48v2.58h-15.32Zm20.25,0h16.25v2.51h-13.41v7.77h11.83v2.36h-11.83v8.35h13.41v2.51H1399Zm28.5,2.51v21h-2.87v-21H1417V11.64h18v2.51Zm26,0v21h-2.87v-21h-7.61V11.64h18v2.51Zm11-2.51h2.84V22h13.54V11.64h2.87v23.5h-2.87V24.5h-13.54V35.14h-2.84Zm26,0h16.25v2.51h-13.41v7.77h11.83v2.36h-11.83v8.35h13.41v2.51h-16.25Zm27.28,0h3l3.87,18.41.45,2.29h.2l5.22-20.7h3.38L1539,32.37h.2l.38-2.16,3.61-18.57h3l-4.93,23.5h-4.06L1532.65,17l-.42-1.8h-.16l-.42,1.8L1527,35.14h-4Zm34,20.78c-2-2-3-5-3-9v-.13a14.33,14.33,0,0,1,1.36-6.59,9.28,9.28,0,0,1,3.83-4,13.32,13.32,0,0,1,11.77,0,9.36,9.36,0,0,1,3.84,4,14.46,14.46,0,0,1,1.35,6.59v.13c0,3.93-1,6.92-3,9a12.38,12.38,0,0,1-16.25,0Zm12.51-.47a6.63,6.63,0,0,0,2.71-2.77,8.91,8.91,0,0,0,.91-4.13V21.76a8.89,8.89,0,0,0-.9-4.09,6.53,6.53,0,0,0-2.67-2.79,10.17,10.17,0,0,0-8.88,0,6.52,6.52,0,0,0-2.69,2.79,8.77,8.77,0,0,0-.91,4.09v3.29a8.91,8.91,0,0,0,.92,4.13,6.57,6.57,0,0,0,2.73,2.77,10.14,10.14,0,0,0,8.78,0Zm11.4-20.31h10.08a8.26,8.26,0,0,1,5.87,1.88,6.92,6.92,0,0,1,2,5.31,7.08,7.08,0,0,1-1.54,4.69,6.71,6.71,0,0,1-4.55,2.21l6.35,9.41h-3.37l-6.13-9.09h-5.87v9.09h-2.83Zm2.82,2.51v9.61h6.74a6.59,6.59,0,0,0,3.9-1,3.41,3.41,0,0,0,1.42-3V18.15a3.44,3.44,0,0,0-1.42-3,6.52,6.52,0,0,0-3.9-1Zm20.44-2.51h2.84V32.56h12.48v2.58h-15.32Zm20.25,0h8.77a10.84,10.84,0,0,1,8,2.88c1.94,1.93,2.91,4.83,2.91,8.72v.26a14.08,14.08,0,0,1-1.36,6.63,8.52,8.52,0,0,1-3.8,3.78,12.64,12.64,0,0,1-5.74,1.23h-8.77Zm8.74,21a8.08,8.08,0,0,0,5.78-2,7.35,7.35,0,0,0,2.08-5.65V21.76a7.76,7.76,0,0,0-2-5.53q-2-2.09-5.91-2.08H1622V32.63Zm23.53-21h8.77a10.84,10.84,0,0,1,8,2.88c1.94,1.93,2.91,4.83,2.91,8.72v.26a14.08,14.08,0,0,1-1.36,6.63,8.52,8.52,0,0,1-3.8,3.78,12.64,12.64,0,0,1-5.74,1.23h-8.77Zm8.74,21a8.08,8.08,0,0,0,5.78-2A7.35,7.35,0,0,0,1668,25V21.76a7.76,7.76,0,0,0-2-5.53q-2-2.09-5.91-2.08h-5.9V32.63ZM1680,34.32a7.72,7.72,0,0,1-3.24-3.21,10.06,10.06,0,0,1-1.1-4.8V11.64h2.84V26.15a6.27,6.27,0,0,0,6.73,6.73,6.67,6.67,0,0,0,4.89-1.79,6.62,6.62,0,0,0,1.82-4.94V11.64h2.84V26.31a9.59,9.59,0,0,1-1.18,4.88,8,8,0,0,1-3.32,3.16,12.3,12.3,0,0,1-10.28,0Zm21.26-22.68h2.83V32.56h12.48v2.58h-15.31Zm20.24,0h2.84V32.56h12.48v2.58h-15.32Zm34.08,13.67-8.25-13.67h3.25l5.61,9.51.74,1.32h.16l.75-1.32,5.61-9.51h3.25l-8.25,13.67v9.83h-2.87Zm14.78,7.11c-2-2-3-5-3-9v-.13a14.33,14.33,0,0,1,1.36-6.59,9.28,9.28,0,0,1,3.83-4,13.32,13.32,0,0,1,11.77,0,9.36,9.36,0,0,1,3.84,4,14.46,14.46,0,0,1,1.35,6.59v.13c0,3.93-1,6.92-3,9a12.38,12.38,0,0,1-16.25,0Zm12.51-.47a6.63,6.63,0,0,0,2.71-2.77,8.91,8.91,0,0,0,.92-4.13V21.76a8.77,8.77,0,0,0-.91-4.09,6.53,6.53,0,0,0-2.67-2.79,10.17,10.17,0,0,0-8.88,0,6.6,6.6,0,0,0-2.7,2.79,8.89,8.89,0,0,0-.9,4.09v3.29a8.91,8.91,0,0,0,.92,4.13A6.6,6.6,0,0,0,1774,32a10.16,10.16,0,0,0,8.79,0Zm15.51,2.37a7.72,7.72,0,0,1-3.24-3.21,10.06,10.06,0,0,1-1.1-4.8V11.64h2.84V26.15a6.73,6.73,0,1,0,13.44,0V11.64h2.84V26.31a9.59,9.59,0,0,1-1.18,4.88,8,8,0,0,1-3.32,3.16,12.3,12.3,0,0,1-10.28,0Zm21.26-22.68h10.09a8.28,8.28,0,0,1,5.87,1.88,7,7,0,0,1,2,5.31,7.09,7.09,0,0,1-1.55,4.69,6.71,6.71,0,0,1-4.55,2.21l6.35,9.41h-3.38l-6.13-9.09h-5.86v9.09h-2.84Zm2.84,2.51v9.61h6.73a6.55,6.55,0,0,0,3.9-1,3.41,3.41,0,0,0,1.42-3V18.15a3.44,3.44,0,0,0-1.42-3,6.48,6.48,0,0,0-3.9-1ZM1853,34.48a6.82,6.82,0,0,1-3-2.71,7.68,7.68,0,0,1-1-3.95h2.93a5.09,5.09,0,0,0,1.76,4,7.07,7.07,0,0,0,4.43,1.26,6.72,6.72,0,0,0,4.36-1.18,3.91,3.91,0,0,0,1.41-3.17,3.25,3.25,0,0,0-.91-2.5,5.91,5.91,0,0,0-2.41-1.29c-1-.29-2.07-.56-3.25-.79a22.85,22.85,0,0,1-3.79-1.1,6.69,6.69,0,0,1-2.77-1.92,5,5,0,0,1-1-3.36,5.8,5.8,0,0,1,1-3.49,6.46,6.46,0,0,1,2.91-2.22,11.56,11.56,0,0,1,4.39-.77,9.26,9.26,0,0,1,6.25,1.88,6.59,6.59,0,0,1,2.23,5.05h-3a4.6,4.6,0,0,0-1.45-3.39,6,6,0,0,0-4.13-1.22,6.21,6.21,0,0,0-3.78,1,3.37,3.37,0,0,0-1.41,2.86,2.89,2.89,0,0,0,.84,2.25,5.23,5.23,0,0,0,2.24,1.16c.94.26,2,.51,3.11.75a25.61,25.61,0,0,1,3,.74,10.39,10.39,0,0,1,2.56,1.19,5.38,5.38,0,0,1,1.79,1.94,6.1,6.1,0,0,1,.66,3,6.43,6.43,0,0,1-1.11,3.86,6.65,6.65,0,0,1-3.13,2.28,13.22,13.22,0,0,1-4.69.76,11.6,11.6,0,0,1-5-1ZM1872,11.64h2.84V22h13.54V11.64h2.87v23.5h-2.87V24.5h-13.54V35.14H1872Zm26,0h2.83v23.5h-2.83Zm9.54,0h3.64L1923,30.08l.55,1h.16V11.64h2.77v23.5H1923l-12.13-18.57-.45-.84h-.16V35.14h-2.77Zm25.73,0h16.24v2.51H1936v7.77h11.83v2.36H1936v8.35h13.41v2.51h-16.24Zm19.92,20.53h2.77v3h-2.77Zm16-20.53h16.25v2.51h-13.42v7.77h11.84v2.36h-11.84v8.35h13.42v2.51h-16.25Zm21.31,0h4.38l7.29,20h.16l7.25-20h4.48v23.5h-2.77V14.83H2011l-.39,1.22-7,19.09h-2.91l-7-19-.42-1.26h-.19v1.26l0,19.05h-2.77Zm30.27,0h10.86a7.35,7.35,0,0,1,5,1.53,5.54,5.54,0,0,1,1.72,4.37,5.83,5.83,0,0,1-1,3.45,5.11,5.11,0,0,1-3,1.93v.23a5.32,5.32,0,0,1,3.34,1.75,5.58,5.58,0,0,1,1.24,3.79,5.76,5.76,0,0,1-2.06,4.85,8.82,8.82,0,0,1-5.55,1.6h-10.54Zm2.77,2.19v8.22h7.42a4.91,4.91,0,0,0,3.25-1,3.23,3.23,0,0,0,1.16-2.57V17.28a3,3,0,0,0-1.22-2.6,5.56,5.56,0,0,0-3.23-.85Zm0,10.38V33H2031a5.45,5.45,0,0,0,3.51-1,3.52,3.52,0,0,0,1.29-2.91V27.89a3.18,3.18,0,0,0-1.29-2.73,5.77,5.77,0,0,0-3.48-.95Zm20-12.57h10.1a8.27,8.27,0,0,1,5.86,1.88,7,7,0,0,1,2,5.31,7.09,7.09,0,0,1-1.55,4.69,6.69,6.69,0,0,1-4.54,2.21l6.35,9.41h-3.39l-6.12-9.09h-5.87v9.09h-2.84Zm2.84,2.51v9.61H2053a6.59,6.59,0,0,0,3.9-1,3.41,3.41,0,0,0,1.42-3V18.15a3.44,3.44,0,0,0-1.42-3,6.52,6.52,0,0,0-3.9-1Zm25.53-2.51h4l8.5,23.5h-2.87l-2.12-5.93h-11l-2.16,5.93h-2.81ZM2078.57,27l-3-8.15L2073.87,14h-.2l-1.77,4.87L2069,27Zm9.13,5.44c-2-2-2.94-5-2.94-9v-.13a14.33,14.33,0,0,1,1.36-6.59,9.28,9.28,0,0,1,3.83-4,12,12,0,0,1,5.87-1.37,11.85,11.85,0,0,1,4.93,1,9,9,0,0,1,3.51,2.76,8.37,8.37,0,0,1,1.64,4.16H2103a6,6,0,0,0-1.37-3,6.67,6.67,0,0,0-2.55-1.79,8.64,8.64,0,0,0-3.24-.6,8.79,8.79,0,0,0-4.42,1,6.52,6.52,0,0,0-2.69,2.79,8.77,8.77,0,0,0-.91,4.09v3.29a8.91,8.91,0,0,0,.92,4.13,6.57,6.57,0,0,0,2.73,2.77,8.82,8.82,0,0,0,4.37,1,8.67,8.67,0,0,0,3.29-.61,6.51,6.51,0,0,0,2.55-1.83,5.94,5.94,0,0,0,1.32-3h2.93a8.19,8.19,0,0,1-1.63,4.18,9,9,0,0,1-3.53,2.77,11.94,11.94,0,0,1-4.92,1,10.77,10.77,0,0,1-8.11-3Zm22.88-20.78h16.24v2.51h-13.41v7.77h11.83v2.36h-11.83v8.35h13.41v2.51h-16.24Zm35.14,13.67-8.26-13.67h3.26l5.61,9.51.74,1.32h.16l.74-1.32,5.61-9.51h3.26l-8.25,13.67v9.83h-2.87Zm14.78,7.11c-2-2-2.95-5-2.95-9v-.13a14.46,14.46,0,0,1,1.35-6.59,9.36,9.36,0,0,1,3.84-4,13.32,13.32,0,0,1,11.77,0,9.28,9.28,0,0,1,3.83,4,14.33,14.33,0,0,1,1.36,6.59v.13c0,3.93-1,6.92-2.95,9a12.38,12.38,0,0,1-16.25,0ZM2173,32a6.61,6.61,0,0,0,2.7-2.77,8.91,8.91,0,0,0,.92-4.13V21.76a8.89,8.89,0,0,0-.9-4.09,6.5,6.5,0,0,0-2.68-2.79,10.17,10.17,0,0,0-8.88,0,6.52,6.52,0,0,0-2.69,2.79,8.89,8.89,0,0,0-.9,4.09v3.29a8.91,8.91,0,0,0,.92,4.13,6.6,6.6,0,0,0,2.72,2.77,10.16,10.16,0,0,0,8.79,0Zm15.5,2.37a7.72,7.72,0,0,1-3.24-3.21,10.06,10.06,0,0,1-1.09-4.8V11.64H2187V26.15a6.29,6.29,0,0,0,6.74,6.73,6.71,6.71,0,0,0,4.89-1.79,6.62,6.62,0,0,0,1.82-4.94V11.64h2.83V26.31a9.69,9.69,0,0,1-1.17,4.88,8,8,0,0,1-3.32,3.16,12.33,12.33,0,0,1-10.29,0Zm21.26-22.68h10.1a8.27,8.27,0,0,1,5.86,1.88,7,7,0,0,1,2,5.31,7.09,7.09,0,0,1-1.55,4.69,6.69,6.69,0,0,1-4.54,2.21l6.35,9.41h-3.39l-6.12-9.09h-5.87v9.09h-2.84Zm2.84,2.51v9.61h6.74a6.59,6.59,0,0,0,3.9-1,3.41,3.41,0,0,0,1.42-3V18.15a3.44,3.44,0,0,0-1.42-3,6.52,6.52,0,0,0-3.9-1ZM831.43,79.45a7.61,7.61,0,0,1-3.24-3.21,10.06,10.06,0,0,1-1.09-4.8V56.77h2.84V71.28a6.73,6.73,0,1,0,13.44,0V56.77h2.84V71.44A9.62,9.62,0,0,1,845,76.33a8,8,0,0,1-3.32,3.15,12.23,12.23,0,0,1-10.29,0ZM852.7,56.77h3.64l11.93,18.44.55,1H869V56.77h2.77v23.5H868.2L856.08,61.7l-.45-.83h-.16v19.4H852.7Zm25.72,0h2.84v23.5h-2.84Zm17.94,28.32a2.14,2.14,0,0,1-.53-1.53V80.27a10.36,10.36,0,0,1-7.2-3.27Q886,74.07,886,68.57v-.13a14.46,14.46,0,0,1,1.35-6.59,9.14,9.14,0,0,1,3.84-4,13.39,13.39,0,0,1,11.76,0,9.14,9.14,0,0,1,3.84,4,14.46,14.46,0,0,1,1.35,6.59v.13q0,5.48-2.64,8.4a10.23,10.23,0,0,1-7.12,3.27v3.23h6.86v2.19h-7.12a2.3,2.3,0,0,1-1.73-.57Zm5.06-8.2a6.63,6.63,0,0,0,2.71-2.77,8.85,8.85,0,0,0,.92-4.1V66.9a8.94,8.94,0,0,0-.9-4.1A6.61,6.61,0,0,0,901.47,60a10.26,10.26,0,0,0-8.88,0,6.63,6.63,0,0,0-2.69,2.79,8.94,8.94,0,0,0-.9,4.1V70a8.85,8.85,0,0,0,.92,4.1,6.54,6.54,0,0,0,2.72,2.77,10.14,10.14,0,0,0,8.78,0Zm15.51,2.56a7.61,7.61,0,0,1-3.24-3.21,10.06,10.06,0,0,1-1.09-4.8V56.77h2.83V71.28a7,7,0,0,0,11.62,5,6.6,6.6,0,0,0,1.83-5V56.77h2.83V71.44a9.72,9.72,0,0,1-1.17,4.89,8,8,0,0,1-3.32,3.15,12.23,12.23,0,0,1-10.29,0Zm21.26-22.68h16.25v2.52H941v7.77h11.83v2.35H941v8.35h13.41v2.51H938.19Zm26.44,0h3.13l6.83,19.47.42,1.39h.23l.45-1.39,6.86-19.47h3.13l-8.57,23.5h-3.94Zm25,0h2.83v23.5h-2.83Zm9.54,0h10.86a7.35,7.35,0,0,1,5,1.53,5.54,5.54,0,0,1,1.72,4.37,5.83,5.83,0,0,1-1,3.45,5.17,5.17,0,0,1-3,1.94v.22A5.28,5.28,0,0,1,1016.1,70a5.56,5.56,0,0,1,1.24,3.79,5.77,5.77,0,0,1-2.06,4.85,8.88,8.88,0,0,1-5.55,1.59H999.19ZM1002,59v8.23h7.42a4.86,4.86,0,0,0,3.25-1,3.2,3.2,0,0,0,1.16-2.56V62.41a3,3,0,0,0-1.22-2.59,5.56,5.56,0,0,0-3.23-.86Zm0,10.39v8.73h7.55a5.45,5.45,0,0,0,3.51-1,3.5,3.5,0,0,0,1.29-2.9V73A3.17,3.17,0,0,0,1013,70.3a5.77,5.77,0,0,0-3.48-1Zm20-12.58h16.25v2.52h-13.41v7.77h11.83v2.35h-11.83v8.35h13.41v2.51H1022Zm19.15,27,.42,0a1.29,1.29,0,0,0,1.07-.55,2.57,2.57,0,0,0,.29-1.29V80.27h-1.26v-3h2.77v4.8a3.41,3.41,0,0,1-.67,2.37,2.69,2.69,0,0,1-1.94.79h-.68Zm16.48-27h2.84V67.12H1074V56.77h2.85v23.5H1074V69.64h-13.54V80.27h-2.84Zm26.89,20.78c-2-2-3-5-3-9v-.13a14.33,14.33,0,0,1,1.36-6.59,9.28,9.28,0,0,1,3.83-4,13.32,13.32,0,0,1,11.77,0,9.36,9.36,0,0,1,3.84,4,14.46,14.46,0,0,1,1.35,6.59v.13c0,3.93-1,6.92-3,9a12.35,12.35,0,0,1-16.25,0Zm12.51-.47a6.63,6.63,0,0,0,2.71-2.77,8.88,8.88,0,0,0,.92-4.13V66.9a8.81,8.81,0,0,0-.91-4.1,6.64,6.64,0,0,0-2.67-2.79,10.26,10.26,0,0,0-8.88,0,6.72,6.72,0,0,0-2.7,2.79,8.94,8.94,0,0,0-.9,4.1v3.28a8.88,8.88,0,0,0,.92,4.13,6.6,6.6,0,0,0,2.72,2.77,10.16,10.16,0,0,0,8.79,0Zm11.4-20.31h2.83V77.7h12.48v2.57h-15.31Zm20.24,0h8.77a10.85,10.85,0,0,1,8,2.89q2.9,2.88,2.9,8.72v.26a14,14,0,0,1-1.36,6.62,8.59,8.59,0,0,1-3.8,3.79,12.77,12.77,0,0,1-5.74,1.22h-8.77Zm8.74,21a8.15,8.15,0,0,0,5.79-2,7.38,7.38,0,0,0,2.08-5.66V66.9a7.73,7.73,0,0,0-2-5.53q-1.95-2.09-5.91-2.08h-5.9V77.76Zm24.48-.21c-2-2-3-5-3-9v-.13a14.33,14.33,0,0,1,1.36-6.59,9.28,9.28,0,0,1,3.83-4,13.32,13.32,0,0,1,11.77,0,9.36,9.36,0,0,1,3.84,4,14.46,14.46,0,0,1,1.35,6.59v.13c0,3.93-1,6.92-2.95,9a12.35,12.35,0,0,1-16.25,0Zm12.51-.47a6.63,6.63,0,0,0,2.71-2.77,8.88,8.88,0,0,0,.92-4.13V66.9a8.94,8.94,0,0,0-.9-4.1,6.73,6.73,0,0,0-2.68-2.79,10.26,10.26,0,0,0-8.88,0,6.63,6.63,0,0,0-2.69,2.79,8.81,8.81,0,0,0-.91,4.1v3.28a8.88,8.88,0,0,0,.92,4.13,6.57,6.57,0,0,0,2.73,2.77,10.14,10.14,0,0,0,8.78,0Zm11.4-20.31h3.64l11.93,18.44.55,1h.16V56.77h2.77v23.5h-3.54L1189.19,61.7l-.45-.83h-.16v19.4h-2.77Zm32.92,2.52v21h-2.87v-21h-7.61V56.77h18v2.52Zm10.81,18.26c-2-2-3-5-3-9v-.13a14.33,14.33,0,0,1,1.36-6.59,9.28,9.28,0,0,1,3.83-4,13.32,13.32,0,0,1,11.77,0,9.36,9.36,0,0,1,3.84,4,14.46,14.46,0,0,1,1.35,6.59v.13c0,3.93-1,6.92-3,9a12.35,12.35,0,0,1-16.25,0Zm12.51-.47a6.63,6.63,0,0,0,2.71-2.77,8.88,8.88,0,0,0,.92-4.13V66.9a8.81,8.81,0,0,0-.91-4.1A6.64,6.64,0,0,0,1242.1,60a10.26,10.26,0,0,0-8.88,0,6.72,6.72,0,0,0-2.7,2.79,8.94,8.94,0,0,0-.9,4.1v3.28a8.88,8.88,0,0,0,.92,4.13,6.6,6.6,0,0,0,2.72,2.77,10.16,10.16,0,0,0,8.79,0Zm25.23-6.64L1259,56.77h3.26l5.61,9.51.74,1.32h.16l.74-1.32,5.61-9.51h3.26l-8.25,13.67v9.83h-2.87Zm14.78,7.11c-2-2-3-5-3-9v-.13a14.46,14.46,0,0,1,1.35-6.59,9.36,9.36,0,0,1,3.84-4,13.32,13.32,0,0,1,11.77,0,9.28,9.28,0,0,1,3.83,4,14.33,14.33,0,0,1,1.36,6.59v.13c0,3.93-1,6.92-3,9a12.35,12.35,0,0,1-16.25,0Zm12.51-.47a6.63,6.63,0,0,0,2.71-2.77,8.88,8.88,0,0,0,.91-4.13V66.9a8.94,8.94,0,0,0-.9-4.1,6.64,6.64,0,0,0-2.67-2.79,10.29,10.29,0,0,0-8.89,0A6.63,6.63,0,0,0,1283,62.8a8.94,8.94,0,0,0-.9,4.1v3.28a8.88,8.88,0,0,0,.92,4.13,6.6,6.6,0,0,0,2.72,2.77,10.16,10.16,0,0,0,8.79,0Zm15.5,2.37a7.61,7.61,0,0,1-3.24-3.21,10.06,10.06,0,0,1-1.09-4.8V56.77h2.83V71.28a6.73,6.73,0,1,0,13.45,0V56.77h2.84V71.44a9.62,9.62,0,0,1-1.18,4.89,8,8,0,0,1-3.32,3.15,12.23,12.23,0,0,1-10.29,0Zm21.27-22.68h10.09a8.23,8.23,0,0,1,5.86,1.89,6.93,6.93,0,0,1,2,5.3,7.07,7.07,0,0,1-1.55,4.69,6.6,6.6,0,0,1-4.54,2.21l6.35,9.41h-3.38L1340,71.18h-5.87v9.09h-2.83Zm2.83,2.52v9.6h6.74a6.66,6.66,0,0,0,3.9-1,3.43,3.43,0,0,0,1.42-3V63.28a3.43,3.43,0,0,0-1.42-3,6.52,6.52,0,0,0-3.9-1Zm30.58,20.32a6.8,6.8,0,0,1-3-2.7,7.71,7.71,0,0,1-1-4h2.93a5.09,5.09,0,0,0,1.76,4,7.13,7.13,0,0,0,4.43,1.25,6.77,6.77,0,0,0,4.35-1.17,3.92,3.92,0,0,0,1.42-3.18,3.27,3.27,0,0,0-.92-2.5,5.86,5.86,0,0,0-2.4-1.29c-1-.29-2.07-.55-3.26-.79a23,23,0,0,1-3.78-1.09,6.79,6.79,0,0,1-2.78-1.92,5.1,5.1,0,0,1-1-3.37,5.85,5.85,0,0,1,1-3.48,6.63,6.63,0,0,1,2.92-2.23,11.56,11.56,0,0,1,4.39-.77q4.1,0,6.25,1.89a6.55,6.55,0,0,1,2.23,5h-3a4.64,4.64,0,0,0-1.45-3.38,6,6,0,0,0-4.13-1.23,6.2,6.2,0,0,0-3.79,1,3.38,3.38,0,0,0-1.4,2.85,2.93,2.93,0,0,0,.84,2.26,5.46,5.46,0,0,0,2.24,1.16c.93.26,2,.51,3.11.74a25,25,0,0,1,3,.74,10,10,0,0,1,2.57,1.2,5.53,5.53,0,0,1,1.79,1.93,6.11,6.11,0,0,1,.66,3,6.32,6.32,0,0,1-1.12,3.85,6.65,6.65,0,0,1-3.12,2.29,13.22,13.22,0,0,1-4.69.76A11.45,11.45,0,0,1,1364.75,79.61Zm24.94-20.32v21h-2.87v-21h-7.61V56.77h18v2.52Zm11-2.52h10.09a8.24,8.24,0,0,1,5.87,1.89,6.93,6.93,0,0,1,2,5.3,7.07,7.07,0,0,1-1.55,4.69,6.63,6.63,0,0,1-4.55,2.21l6.36,9.41h-3.39l-6.12-9.09h-5.87v9.09h-2.84Zm2.84,2.52v9.6h6.74a6.66,6.66,0,0,0,3.9-1,3.43,3.43,0,0,0,1.42-3V63.28a3.43,3.43,0,0,0-1.42-3,6.52,6.52,0,0,0-3.9-1ZM1424,56.77h16.25v2.52h-13.42v7.77h11.84v2.35h-11.84v8.35h13.42v2.51H1424Zm21.31,0h3.64l11.93,18.44.55,1h.16V56.77h2.77v23.5h-3.55L1448.65,61.7l-.45-.83H1448v19.4h-2.77Zm26.34,20.65Q1469,74.26,1469,68.7v-.16a14.56,14.56,0,0,1,1.37-6.67,9.18,9.18,0,0,1,3.86-4,12.12,12.12,0,0,1,5.89-1.36,12.31,12.31,0,0,1,5,.94A8.94,8.94,0,0,1,1488.6,60a7.62,7.62,0,0,1,1.61,4h-2.94a5.61,5.61,0,0,0-2.45-3.73,8.34,8.34,0,0,0-4.73-1.3,9,9,0,0,0-4.45,1,6.55,6.55,0,0,0-2.71,2.81,8.94,8.94,0,0,0-.9,4.08v3.32a7.68,7.68,0,0,0,2.14,5.86,7.9,7.9,0,0,0,5.66,2,6.81,6.81,0,0,0,7.48-7.38v-.32h-6.93V68.22h10v12h-2.16l-.23-4.93h-.16a6.48,6.48,0,0,1-1.68,2.76,8.52,8.52,0,0,1-2.9,1.84,10.32,10.32,0,0,1-3.74.66q-5.25,0-7.86-3.18Zm30.82-18.13v21h-2.87v-21H1492V56.77h18v2.52Zm11-2.52h2.84V67.12h13.54V56.77h2.87v23.5h-2.87V69.64h-13.54V80.27h-2.84Zm23.79,27,.42,0a1.29,1.29,0,0,0,1.07-.55,2.57,2.57,0,0,0,.29-1.29V80.27h-1.26v-3h2.77v4.8a3.41,3.41,0,0,1-.68,2.37,2.66,2.66,0,0,1-1.93.79h-.68Zm21.54-27h4l8.5,23.5h-2.86l-2.12-5.93h-11.06L1553,80.27h-2.81Zm6.74,15.35-3-8.16-1.74-4.8h-.19L1558.81,64l-2.93,8.09Zm8.93-15.35h3.63L1590,75.21l.55,1h.16V56.77h2.77v23.5h-3.55L1577.79,61.7l-.45-.83h-.16v19.4h-2.77Zm25.71,0h8.77q5.1,0,8,2.89t2.9,8.72v.26a14,14,0,0,1-1.36,6.62,8.59,8.59,0,0,1-3.8,3.79,12.77,12.77,0,0,1-5.74,1.22h-8.77Zm8.74,21a8.15,8.15,0,0,0,5.79-2,7.38,7.38,0,0,0,2.08-5.66V66.9a7.76,7.76,0,0,0-2-5.53q-2-2.09-5.92-2.08H1603V77.76Zm23.53-21h8.77q5.1,0,8,2.89t2.9,8.72v.26a14.16,14.16,0,0,1-1.35,6.62,8.67,8.67,0,0,1-3.81,3.79,12.77,12.77,0,0,1-5.74,1.22h-8.77Zm8.74,21a8.15,8.15,0,0,0,5.79-2,7.38,7.38,0,0,0,2.08-5.66V66.9a7.76,7.76,0,0,0-2-5.53q-1.95-2.09-5.92-2.08h-5.9V77.76Zm16.62-.21c-2-2-3-5-3-9v-.13a14.46,14.46,0,0,1,1.35-6.59,9.36,9.36,0,0,1,3.84-4,13.32,13.32,0,0,1,11.77,0,9.28,9.28,0,0,1,3.83,4,14.33,14.33,0,0,1,1.36,6.59v.13c0,3.93-1,6.92-3,9a12.35,12.35,0,0,1-16.25,0Zm12.51-.47a6.63,6.63,0,0,0,2.71-2.77,8.88,8.88,0,0,0,.91-4.13V66.9a8.94,8.94,0,0,0-.9-4.1,6.64,6.64,0,0,0-2.67-2.79,10.29,10.29,0,0,0-8.89,0,6.69,6.69,0,0,0-2.69,2.79,8.94,8.94,0,0,0-.9,4.1v3.28a8.88,8.88,0,0,0,.92,4.13,6.6,6.6,0,0,0,2.72,2.77,10.16,10.16,0,0,0,8.79,0Zm11.39-20.31h3.65l11.93,18.44.54,1h.17V56.77h2.77v23.5h-3.55L1685.05,61.7l-.45-.83h-.16v19.4h-2.78Zm24.28,9.9-.58-5.42V56.77h2.42v4.48l-.58,5.42Zm13.7-7.38v21h-2.87v-21h-7.61V56.77h18.06v2.52Zm18.86-2.52h2.84V77.7h12.47v2.57H1738.5Zm20.25,0H1775v2.52h-13.42v7.77h11.84v2.35h-11.84v8.35H1775v2.51h-16.25Zm28.5,2.52v21h-2.87v-21h-7.61V56.77h18v2.52Zm26,0v21h-2.87v-21h-7.61V56.77h18v2.52Zm11-2.52h2.84V67.12h13.54V56.77h2.87v23.5h-2.87V69.64h-13.54V80.27h-2.84Zm26,0h16.25v2.52h-13.41v7.77h11.83v2.35h-11.83v8.35h13.41v2.51h-16.25Zm33.29,22.68a7.61,7.61,0,0,1-3.24-3.21,10.06,10.06,0,0,1-1.1-4.8V56.77H1882V71.28a6.73,6.73,0,1,0,13.44,0V56.77h2.84V71.44a9.62,9.62,0,0,1-1.18,4.89,8,8,0,0,1-3.32,3.15,12.21,12.21,0,0,1-10.28,0Zm21.26-22.68h10q3.95,0,6,2a7.49,7.49,0,0,1,2,5.6,7.62,7.62,0,0,1-2,5.5c-1.33,1.38-3.37,2.07-6.1,2.07h-7v8.35h-2.84Zm2.84,2.52V69.54h6.73a6.2,6.2,0,0,0,3.91-1.11,3.87,3.87,0,0,0,1.41-3.21V63.61a3.84,3.84,0,0,0-1.41-3.21,6.2,6.2,0,0,0-3.91-1.11Zm22.1,20.32a6.77,6.77,0,0,1-3-2.7,7.71,7.71,0,0,1-1-4h2.94a5.06,5.06,0,0,0,1.75,4,7.16,7.16,0,0,0,4.44,1.25,6.77,6.77,0,0,0,4.35-1.17,3.92,3.92,0,0,0,1.42-3.18,3.27,3.27,0,0,0-.92-2.5,5.86,5.86,0,0,0-2.4-1.29c-1-.29-2.08-.55-3.26-.79a23.14,23.14,0,0,1-3.79-1.09,6.76,6.76,0,0,1-2.77-1.92,5.05,5.05,0,0,1-1-3.37,5.79,5.79,0,0,1,1-3.48,6.63,6.63,0,0,1,2.92-2.23,11.54,11.54,0,0,1,4.38-.77q4.1,0,6.26,1.89a6.51,6.51,0,0,1,2.22,5h-3a4.56,4.56,0,0,0-1.45-3.38,6,6,0,0,0-4.12-1.23,6.18,6.18,0,0,0-3.79,1,3.38,3.38,0,0,0-1.4,2.85,3,3,0,0,0,.83,2.26,5.44,5.44,0,0,0,2.25,1.16c.93.26,2,.51,3.11.74a25.44,25.44,0,0,1,3,.74,10.06,10.06,0,0,1,2.56,1.2A5.44,5.44,0,0,1,1943,70.7a6.11,6.11,0,0,1,.66,3,6.38,6.38,0,0,1-1.11,3.85,6.63,6.63,0,0,1-3.13,2.29,13.14,13.14,0,0,1-4.69.76A11.37,11.37,0,0,1,1929.73,79.61Zm31.86-22.84h4l8.51,23.5h-2.87l-2.13-5.93h-11l-2.16,5.93h-2.81Zm6.74,15.35-3-8.16-1.74-4.8h-.2L1961.66,64l-2.94,8.09Zm8.93-15.35h3.65l11.92,18.44.55,1h.16V56.77h2.78v23.5h-3.55L1980.65,61.7l-.45-.83H1980v19.4h-2.77Zm25.73,0h8.77c3.39,0,6.06,1,8,2.89s2.9,4.83,2.9,8.72v.26a14.16,14.16,0,0,1-1.35,6.62,8.59,8.59,0,0,1-3.8,3.79,12.77,12.77,0,0,1-5.74,1.22H2003Zm8.74,21a8.12,8.12,0,0,0,5.78-2,7.38,7.38,0,0,0,2.08-5.66V66.9a7.76,7.76,0,0,0-1.95-5.53q-2-2.09-5.91-2.08h-5.9V77.76Zm23.53-21H2044c3.39,0,6.06,1,8,2.89s2.91,4.83,2.91,8.72v.26a14,14,0,0,1-1.36,6.62,8.59,8.59,0,0,1-3.8,3.79,12.77,12.77,0,0,1-5.74,1.22h-8.77Zm8.74,21a8.12,8.12,0,0,0,5.78-2,7.38,7.38,0,0,0,2.08-5.66V66.9a7.76,7.76,0,0,0-2-5.53q-1.95-2.09-5.91-2.08h-5.9V77.76Zm16.62-.21c-2-2-2.95-5-2.95-9v-.13a14.46,14.46,0,0,1,1.35-6.59,9.25,9.25,0,0,1,3.84-4,13.3,13.3,0,0,1,11.76,0,9.25,9.25,0,0,1,3.84,4,14.46,14.46,0,0,1,1.35,6.59v.13c0,3.93-1,6.92-2.95,9a12.33,12.33,0,0,1-16.24,0Zm12.5-.47a6.63,6.63,0,0,0,2.71-2.77,8.88,8.88,0,0,0,.91-4.13V66.9a9.06,9.06,0,0,0-.89-4.1,6.61,6.61,0,0,0-2.68-2.79,10.26,10.26,0,0,0-8.88,0,6.63,6.63,0,0,0-2.69,2.79,8.94,8.94,0,0,0-.9,4.1v3.28a8.88,8.88,0,0,0,.91,4.13,6.57,6.57,0,0,0,2.73,2.77,10.14,10.14,0,0,0,8.78,0Zm9.27-20.31h3l3.87,18.41.45,2.29h.19l5.22-20.7h3.39l5.19,20.73h.19l.39-2.16,3.61-18.57h3l-4.93,23.5h-4.06l-4.58-18.11-.42-1.81h-.16l-.42,1.81-4.64,18.11h-4Zm33.26,0h3.65l11.92,18.44.55,1h.16V56.77h2.78v23.5h-3.55L2119,61.7l-.45-.83h-.16v19.4h-2.78Zm28,22.84a6.8,6.8,0,0,1-3-2.7,7.71,7.71,0,0,1-1-4h2.93a5.09,5.09,0,0,0,1.76,4,7.13,7.13,0,0,0,4.43,1.25,6.77,6.77,0,0,0,4.35-1.17,3.92,3.92,0,0,0,1.42-3.18,3.27,3.27,0,0,0-.92-2.5,5.86,5.86,0,0,0-2.4-1.29c-1-.29-2.07-.55-3.26-.79a23,23,0,0,1-3.78-1.09,6.79,6.79,0,0,1-2.78-1.92,5.1,5.1,0,0,1-1-3.37,5.85,5.85,0,0,1,1-3.48,6.63,6.63,0,0,1,2.92-2.23,11.56,11.56,0,0,1,4.39-.77q4.1,0,6.25,1.89a6.51,6.51,0,0,1,2.22,5h-3a4.64,4.64,0,0,0-1.45-3.38,6,6,0,0,0-4.13-1.23,6.2,6.2,0,0,0-3.79,1,3.38,3.38,0,0,0-1.4,2.85,2.93,2.93,0,0,0,.84,2.26,5.46,5.46,0,0,0,2.24,1.16c.93.26,2,.51,3.11.74a25,25,0,0,1,3,.74,10,10,0,0,1,2.57,1.2,5.53,5.53,0,0,1,1.79,1.93,6.11,6.11,0,0,1,.66,3,6.32,6.32,0,0,1-1.12,3.85,6.65,6.65,0,0,1-3.12,2.29,13.22,13.22,0,0,1-4.69.76A11.45,11.45,0,0,1,2143.62,79.61Zm27.76-2.06c-2-2-3-5-3-9v-.13a14.46,14.46,0,0,1,1.35-6.59,9.36,9.36,0,0,1,3.84-4,13.32,13.32,0,0,1,11.77,0,9.28,9.28,0,0,1,3.83,4,14.33,14.33,0,0,1,1.36,6.59v.13c0,3.93-1,6.92-2.95,9a12.35,12.35,0,0,1-16.25,0Zm12.51-.47a6.61,6.61,0,0,0,2.7-2.77,8.88,8.88,0,0,0,.92-4.13V66.9a8.94,8.94,0,0,0-.9-4.1,6.64,6.64,0,0,0-2.67-2.79,10.29,10.29,0,0,0-8.89,0,6.63,6.63,0,0,0-2.69,2.79,8.94,8.94,0,0,0-.9,4.1v3.28a8.88,8.88,0,0,0,.92,4.13,6.6,6.6,0,0,0,2.72,2.77,10.16,10.16,0,0,0,8.79,0Zm11.39-20.31h16.09v2.52h-13.25v8.38h12v2.38h-12V80.27h-2.84ZM807.93,101.91h2.84v20.92h12.48v2.58H807.93Zm20.25,0H831v23.5h-2.84Zm9.54,0h16.09v2.51H840.56v8.38h12v2.39h-12v10.22h-2.84Zm20.34,0h16.25v2.51H860.9v7.77h11.83v2.35H860.9v8.35h13.41v2.52H858.06Zm31.42,22.84a6.88,6.88,0,0,1-3-2.71,7.71,7.71,0,0,1-1-4h2.93a5.09,5.09,0,0,0,1.76,4,7.07,7.07,0,0,0,4.43,1.26,6.7,6.7,0,0,0,4.35-1.18,3.9,3.9,0,0,0,1.42-3.17,3.25,3.25,0,0,0-.92-2.5,5.86,5.86,0,0,0-2.4-1.29c-1-.29-2.07-.56-3.26-.79a23,23,0,0,1-3.78-1.1,6.79,6.79,0,0,1-2.78-1.92,5.1,5.1,0,0,1-1-3.37,5.85,5.85,0,0,1,1-3.48,6.54,6.54,0,0,1,2.92-2.22,11.36,11.36,0,0,1,4.39-.78q4.1,0,6.25,1.89a6.55,6.55,0,0,1,2.22,5h-3a4.68,4.68,0,0,0-1.45-3.39,6,6,0,0,0-4.13-1.22,6.26,6.26,0,0,0-3.79,1,3.39,3.39,0,0,0-1.4,2.86,2.89,2.89,0,0,0,.84,2.25,5.23,5.23,0,0,0,2.24,1.16c.93.26,2,.51,3.11.75a25,25,0,0,1,3,.74A10.3,10.3,0,0,1,901,113.9a5.53,5.53,0,0,1,1.79,1.93,6.17,6.17,0,0,1,.66,3,6.32,6.32,0,0,1-1.12,3.85,6.52,6.52,0,0,1-3.12,2.29,13.22,13.22,0,0,1-4.69.76,11.6,11.6,0,0,1-5-1Zm24.94-20.33v21h-2.87v-21h-7.61v-2.51h18v2.51Zm11-2.51h16.25v2.51H928.25v7.77h11.83v2.35H928.25v8.35h13.41v2.52H925.41Zm26.37,0h4l8.51,23.5h-2.87l-2.13-5.93H948.2L946,125.41h-2.8Zm6.74,15.34-3-8.15-1.74-4.81h-.19l-1.77,4.87-2.94,8.09Zm8.93-15.34h2.84v20.92h12.47v2.58H967.45Zm34.08,13.67-8.26-13.67h3.26l5.61,9.51.74,1.32h.16l.74-1.32,5.61-9.51h3.26l-8.25,13.67v9.83h-2.87Zm14.78,7.1q-3-3-2.95-8.94v-.13a14.46,14.46,0,0,1,1.35-6.59,9.36,9.36,0,0,1,3.84-4,13.32,13.32,0,0,1,11.77,0,9.28,9.28,0,0,1,3.83,4,14.33,14.33,0,0,1,1.36,6.59v.13q0,5.9-3,8.94a12.35,12.35,0,0,1-16.25,0Zm12.51-.46a6.58,6.58,0,0,0,2.7-2.78,8.84,8.84,0,0,0,.92-4.12V112a8.89,8.89,0,0,0-.9-4.09,6.5,6.5,0,0,0-2.68-2.79,10.17,10.17,0,0,0-8.88,0,6.52,6.52,0,0,0-2.69,2.79,8.89,8.89,0,0,0-.9,4.09v3.29a8.84,8.84,0,0,0,.92,4.12,6.57,6.57,0,0,0,2.72,2.78,10.16,10.16,0,0,0,8.79,0Zm15.5,2.37a7.72,7.72,0,0,1-3.24-3.21,10.06,10.06,0,0,1-1.09-4.8V101.91h2.83v14.5a6.29,6.29,0,0,0,6.74,6.74,6.71,6.71,0,0,0,4.89-1.79,6.63,6.63,0,0,0,1.82-5v-14.5h2.83v14.67a9.69,9.69,0,0,1-1.17,4.88,8,8,0,0,1-3.32,3.16,12.33,12.33,0,0,1-10.29,0Zm21.26-22.68h10.09a8.27,8.27,0,0,1,5.86,1.88,7,7,0,0,1,2,5.31,7.09,7.09,0,0,1-1.55,4.69,6.64,6.64,0,0,1-4.54,2.2l6.35,9.42h-3.39l-6.12-9.09h-5.87v9.09h-2.83Zm2.84,2.51V114h6.74a6.56,6.56,0,0,0,3.89-1,3.41,3.41,0,0,0,1.42-3v-1.61a3.42,3.42,0,0,0-1.42-3,6.46,6.46,0,0,0-3.89-1Zm26.27,18.47h6.48v-21H1104v20.73a2.63,2.63,0,0,1-.79,2.08,3,3,0,0,1-2,.69h-6.51Zm17-.21q-3-3-3-8.94v-.13a14.46,14.46,0,0,1,1.35-6.59,9.36,9.36,0,0,1,3.84-4,13.32,13.32,0,0,1,11.77,0,9.28,9.28,0,0,1,3.83,4,14.33,14.33,0,0,1,1.36,6.59v.13q0,5.9-2.95,8.94a12.35,12.35,0,0,1-16.25,0Zm12.51-.46a6.6,6.6,0,0,0,2.71-2.78,8.84,8.84,0,0,0,.92-4.12V112a8.77,8.77,0,0,0-.91-4.09,6.53,6.53,0,0,0-2.67-2.79,10.17,10.17,0,0,0-8.88,0,6.6,6.6,0,0,0-2.7,2.79,8.89,8.89,0,0,0-.9,4.09v3.29a8.84,8.84,0,0,0,.92,4.12,6.57,6.57,0,0,0,2.72,2.78,10.16,10.16,0,0,0,8.79,0Zm15.75-6.64-8.26-13.67h3.26l5.61,9.51.74,1.32h.16l.74-1.32,5.61-9.51H1151l-8.25,13.67v9.83h-2.87Zm14.15,6.86h2.77v3h-2.77Zm18.2,2.31a6.85,6.85,0,0,1-3-2.71,7.8,7.8,0,0,1-1-4h2.93a5.09,5.09,0,0,0,1.76,4,7,7,0,0,0,4.43,1.26,6.7,6.7,0,0,0,4.35-1.18,3.9,3.9,0,0,0,1.42-3.17,3.25,3.25,0,0,0-.92-2.5,5.86,5.86,0,0,0-2.4-1.29c-1-.29-2.07-.56-3.26-.79a23.14,23.14,0,0,1-3.79-1.1,6.76,6.76,0,0,1-2.77-1.92,5.05,5.05,0,0,1-1-3.37,5.79,5.79,0,0,1,1-3.48,6.54,6.54,0,0,1,2.92-2.22,11.34,11.34,0,0,1,4.38-.78q4.1,0,6.26,1.89a6.55,6.55,0,0,1,2.22,5h-3a4.68,4.68,0,0,0-1.45-3.39,6,6,0,0,0-4.13-1.22,6.24,6.24,0,0,0-3.79,1,3.39,3.39,0,0,0-1.4,2.86,2.89,2.89,0,0,0,.84,2.25,5.23,5.23,0,0,0,2.24,1.16c.93.26,2,.51,3.11.75a25,25,0,0,1,3,.74,10.23,10.23,0,0,1,2.56,1.19,5.44,5.44,0,0,1,1.79,1.93,6.17,6.17,0,0,1,.66,3,6.38,6.38,0,0,1-1.11,3.85A6.52,6.52,0,0,1,1182,125a13.24,13.24,0,0,1-4.7.76,11.52,11.52,0,0,1-5-1Zm24.94-20.33v21h-2.87v-21h-7.61v-2.51h18v2.51Zm14-2.51h4l8.51,23.5h-2.87l-2.13-5.93h-11.05l-2.16,5.93h-2.81Zm6.73,15.34-3-8.15-1.74-4.81h-.2l-1.77,4.87-2.93,8.09Zm8.93-15.34h3.65l11.92,18.44.55,1h.16v-19.4h2.78v23.5h-3.55l-12.12-18.57-.45-.84h-.16v19.41h-2.78Zm25.73,0h8.77a10.84,10.84,0,0,1,8,2.88c1.94,1.93,2.91,4.83,2.91,8.72v.26a14.08,14.08,0,0,1-1.36,6.63,8.52,8.52,0,0,1-3.8,3.78,12.64,12.64,0,0,1-5.74,1.23h-8.77Zm8.74,21a8.12,8.12,0,0,0,5.78-2,7.35,7.35,0,0,0,2.08-5.65V112a7.76,7.76,0,0,0-2-5.53q-1.95-2.09-5.91-2.08h-5.9v18.47ZM1292,104.42v21h-2.87v-21h-7.61v-2.51h18.06v2.51Zm14-2.51h4l8.52,23.5h-2.87l-2.13-5.93H1302.4l-2.16,5.93h-2.8Zm6.74,15.34-3-8.15-1.74-4.81h-.19l-1.78,4.87-2.93,8.09Zm8.93-15.34h2.83v20.92H1337v2.58h-15.31Zm20.24,0h2.84v20.92h12.48v2.58h-15.32Zm18.09,27,.42,0a1.24,1.24,0,0,0,1.06-.55,2.51,2.51,0,0,0,.29-1.29v-1.64h-1.25v-3h2.77v4.81a3.44,3.44,0,0,1-.68,2.37,2.77,2.77,0,0,1-1.93.79H1360Zm18.71-4.17a6.88,6.88,0,0,1-3-2.71,7.71,7.71,0,0,1-1-4h2.93a5.09,5.09,0,0,0,1.76,4,7.07,7.07,0,0,0,4.43,1.26,6.72,6.72,0,0,0,4.36-1.18,3.92,3.92,0,0,0,1.41-3.17,3.25,3.25,0,0,0-.91-2.5,5.91,5.91,0,0,0-2.41-1.29c-1-.29-2.07-.56-3.25-.79a22.85,22.85,0,0,1-3.79-1.1,6.76,6.76,0,0,1-2.77-1.92,5.05,5.05,0,0,1-1-3.37,5.79,5.79,0,0,1,1-3.48,6.54,6.54,0,0,1,2.92-2.22,11.27,11.27,0,0,1,4.38-.78q4.1,0,6.25,1.89a6.59,6.59,0,0,1,2.23,5h-3a4.6,4.6,0,0,0-1.45-3.39,6,6,0,0,0-4.12-1.22,6.24,6.24,0,0,0-3.79,1,3.37,3.37,0,0,0-1.41,2.86,2.89,2.89,0,0,0,.84,2.25,5.23,5.23,0,0,0,2.24,1.16c.94.26,2,.51,3.11.75a25.61,25.61,0,0,1,3,.74,10.39,10.39,0,0,1,2.56,1.19,5.44,5.44,0,0,1,1.79,1.93,6.17,6.17,0,0,1,.66,3,6.38,6.38,0,0,1-1.11,3.85,6.5,6.5,0,0,1-3.13,2.29,13.14,13.14,0,0,1-4.69.76,11.6,11.6,0,0,1-5-1Zm24.94-20.33v21h-2.87v-21h-7.61v-2.51h18.06v2.51Zm14-2.51h4l8.51,23.5h-2.87l-2.13-5.93H1414l-2.16,5.93h-2.8Zm6.74,15.34-3-8.15-1.74-4.81h-.19l-1.78,4.87-2.93,8.09Zm12.15-1.67-8.25-13.67h3.26l5.6,9.51.75,1.32h.16l.74-1.32,5.61-9.51h3.25l-8.25,13.67v9.83h-2.87Zm23.41-13.67H1476v2.51h-13.25v8.38h12v2.39h-12v10.22h-2.83Zm20.34,0h2.84v23.5h-2.84Zm9.54,0H1506v2.51h-13.41v7.77h11.83v2.35h-11.83v8.35H1506v2.52h-16.25Zm21.31,0h10.09a8.28,8.28,0,0,1,5.87,1.88,7,7,0,0,1,2,5.31,7.09,7.09,0,0,1-1.55,4.69A6.66,6.66,0,0,1,1523,116l6.35,9.42h-3.39l-6.12-9.09h-5.87v9.09h-2.84Zm2.84,2.51V114h6.74a6.59,6.59,0,0,0,3.9-1,3.41,3.41,0,0,0,1.42-3v-1.61a3.44,3.44,0,0,0-1.42-3,6.52,6.52,0,0,0-3.9-1Zm21.29,18.26q-3-3-3-8.94v-.13a14.33,14.33,0,0,1,1.36-6.59,9.28,9.28,0,0,1,3.83-4,12,12,0,0,1,5.87-1.37,11.85,11.85,0,0,1,4.93,1,9,9,0,0,1,3.52,2.76,8.33,8.33,0,0,1,1.64,4.15h-2.93a6,6,0,0,0-1.37-3,6.47,6.47,0,0,0-2.55-1.79,8.64,8.64,0,0,0-3.24-.6,8.82,8.82,0,0,0-4.43,1,6.52,6.52,0,0,0-2.69,2.79,8.77,8.77,0,0,0-.91,4.09v3.29a8.84,8.84,0,0,0,.92,4.12,6.53,6.53,0,0,0,2.73,2.78,8.86,8.86,0,0,0,4.38,1,8.68,8.68,0,0,0,3.29-.62,6.49,6.49,0,0,0,2.55-1.82,5.94,5.94,0,0,0,1.32-3h2.93a8.19,8.19,0,0,1-1.63,4.18,9.12,9.12,0,0,1-3.54,2.77,11.9,11.9,0,0,1-4.92,1,10.77,10.77,0,0,1-8.11-3Zm22.88-20.77h16.25v2.51h-13.42v7.77h11.84v2.35h-11.84v8.35h13.42v2.52h-16.25Zm19.14,27,.42,0a1.24,1.24,0,0,0,1.06-.55,2.51,2.51,0,0,0,.29-1.29v-1.64h-1.26v-3h2.78v4.81a3.44,3.44,0,0,1-.68,2.37,2.75,2.75,0,0,1-1.93.79h-.67Zm21.53-27h4l8.51,23.5h-2.87l-2.13-5.93h-11.06l-2.16,5.93h-2.8Zm6.74,15.34-3-8.15-1.74-4.81h-.19l-1.77,4.87-2.94,8.09Zm8.93-15.34h3.64L1630,120.35l.55,1h.16v-19.4h2.77v23.5h-3.54l-12.12-18.57-.46-.84h-.16v19.41h-2.77Zm25.73,0h8.77a10.84,10.84,0,0,1,8,2.88c1.93,1.93,2.9,4.83,2.9,8.72v.26a14.21,14.21,0,0,1-1.35,6.63,8.59,8.59,0,0,1-3.81,3.78,12.6,12.6,0,0,1-5.73,1.23h-8.77Zm8.73,21a8.15,8.15,0,0,0,5.79-2,7.35,7.35,0,0,0,2.08-5.65V112a7.76,7.76,0,0,0-2-5.53q-1.95-2.09-5.92-2.08H1643v18.47Zm23.54-21h2.84v13.34l12-13.34h3.51l-9,10,9.31,13.51h-3.48l-7.86-11.35-4.48,4.74v6.61h-2.84Zm22.79,0h16.25v2.51h-13.41v7.77h11.83v2.35h-11.83v8.35h13.41v2.52h-16.25Zm21.31,0h16.25v2.51h-13.41v7.77h11.83v2.35h-11.83v8.35h13.41v2.52h-16.25Zm21.31,0h10q3.95,0,6,2a7.45,7.45,0,0,1,2,5.59,7.62,7.62,0,0,1-2,5.5q-2,2.08-6.09,2.08h-7v8.35h-2.84Zm2.84,2.51v10.25h6.74a6.19,6.19,0,0,0,3.9-1.11,3.84,3.84,0,0,0,1.41-3.21v-1.61a3.87,3.87,0,0,0-1.41-3.21,6.19,6.19,0,0,0-3.9-1.11Zm33.69,11.16-8.26-13.67h3.26l5.61,9.51.74,1.32h.16l.74-1.32,5.61-9.51h3.26l-8.25,13.67v9.83h-2.87Zm14.78,7.1q-3-3-3-8.94v-.13a14.46,14.46,0,0,1,1.35-6.59,9.36,9.36,0,0,1,3.84-4,13.32,13.32,0,0,1,11.77,0,9.28,9.28,0,0,1,3.83,4,14.33,14.33,0,0,1,1.36,6.59v.13q0,5.9-2.95,8.94a12.35,12.35,0,0,1-16.25,0Zm12.51-.46a6.6,6.6,0,0,0,2.71-2.78,8.84,8.84,0,0,0,.91-4.12V112a8.89,8.89,0,0,0-.9-4.09,6.53,6.53,0,0,0-2.67-2.79,10.2,10.2,0,0,0-8.89,0,6.52,6.52,0,0,0-2.69,2.79,8.89,8.89,0,0,0-.9,4.09v3.29a8.84,8.84,0,0,0,.92,4.12,6.57,6.57,0,0,0,2.72,2.78,10.16,10.16,0,0,0,8.79,0Zm15.5,2.37a7.72,7.72,0,0,1-3.24-3.21,10.06,10.06,0,0,1-1.09-4.8V101.91h2.84v14.5a6.73,6.73,0,1,0,13.44,0v-14.5H1832v14.67a9.59,9.59,0,0,1-1.18,4.88,8,8,0,0,1-3.32,3.16,12.33,12.33,0,0,1-10.29,0Zm21.27-22.68h10.09a8.25,8.25,0,0,1,5.86,1.88,7,7,0,0,1,2,5.31,7.08,7.08,0,0,1-1.54,4.69,6.66,6.66,0,0,1-4.55,2.2l6.35,9.42h-3.38l-6.13-9.09h-5.87v9.09h-2.83Zm2.83,2.51V114H1848a6.59,6.59,0,0,0,3.9-1,3.41,3.41,0,0,0,1.42-3v-1.61a3.44,3.44,0,0,0-1.42-3,6.52,6.52,0,0,0-3.9-1Zm30.58,20.33a6.88,6.88,0,0,1-3-2.71,7.71,7.71,0,0,1-1-4h2.93a5.09,5.09,0,0,0,1.76,4,7.07,7.07,0,0,0,4.43,1.26,6.7,6.7,0,0,0,4.35-1.18,3.9,3.9,0,0,0,1.42-3.17,3.25,3.25,0,0,0-.92-2.5,5.86,5.86,0,0,0-2.4-1.29c-1-.29-2.07-.56-3.25-.79a22.85,22.85,0,0,1-3.79-1.1,6.79,6.79,0,0,1-2.78-1.92,5.1,5.1,0,0,1-1-3.37,5.85,5.85,0,0,1,1-3.48,6.54,6.54,0,0,1,2.92-2.22,11.36,11.36,0,0,1,4.39-.78q4.09,0,6.25,1.89a6.59,6.59,0,0,1,2.23,5h-3a4.68,4.68,0,0,0-1.45-3.39,6,6,0,0,0-4.13-1.22,6.26,6.26,0,0,0-3.79,1,3.39,3.39,0,0,0-1.4,2.86,2.89,2.89,0,0,0,.84,2.25,5.23,5.23,0,0,0,2.24,1.16c.93.26,2,.51,3.11.75a25,25,0,0,1,3,.74,10.3,10.3,0,0,1,2.57,1.19,5.53,5.53,0,0,1,1.79,1.93,6.17,6.17,0,0,1,.66,3,6.32,6.32,0,0,1-1.12,3.85,6.52,6.52,0,0,1-3.12,2.29,13.22,13.22,0,0,1-4.69.76,11.6,11.6,0,0,1-5.05-1Zm18.94-22.84h10q3.93,0,5.94,2a7.45,7.45,0,0,1,2,5.59,7.62,7.62,0,0,1-2,5.5q-2,2.08-6.09,2.08h-7v8.35h-2.84Zm2.84,2.51v10.25h6.74a6.19,6.19,0,0,0,3.9-1.11,3.82,3.82,0,0,0,1.42-3.21v-1.61a3.85,3.85,0,0,0-1.42-3.21,6.19,6.19,0,0,0-3.9-1.11Zm19.86-2.51h2.83v23.5h-2.83Zm9.54,0h10.09a8.28,8.28,0,0,1,5.87,1.88,7,7,0,0,1,2,5.31,7.09,7.09,0,0,1-1.55,4.69,6.66,6.66,0,0,1-4.55,2.2l6.36,9.42h-3.39l-6.13-9.09h-5.86v9.09H1923Zm2.84,2.51V114h6.74a6.59,6.59,0,0,0,3.9-1,3.43,3.43,0,0,0,1.41-3v-1.61a3.46,3.46,0,0,0-1.41-3,6.52,6.52,0,0,0-3.9-1Zm20.44-2.51h2.83v23.5h-2.83Zm16.73,2.51v21h-2.87v-21h-7.61v-2.51h18v2.51Zm23,20.17a7.72,7.72,0,0,1-3.24-3.21,10.06,10.06,0,0,1-1.1-4.8V101.91h2.84v14.5a6.73,6.73,0,1,0,13.44,0v-14.5h2.84v14.67a9.59,9.59,0,0,1-1.18,4.88,7.91,7.91,0,0,1-3.32,3.16,12.3,12.3,0,0,1-10.28,0Zm21.26-22.68h3.64l11.93,18.44.55,1h.16v-19.4h2.77v23.5h-3.54l-12.12-18.57-.46-.84H2010v19.41h-2.77Zm25.73,0h10.86a7.32,7.32,0,0,1,5,1.53,5.54,5.54,0,0,1,1.73,4.37,5.77,5.77,0,0,1-1,3.45,5.14,5.14,0,0,1-3,1.93v.23a5.34,5.34,0,0,1,3.34,1.75,5.58,5.58,0,0,1,1.24,3.79,5.73,5.73,0,0,1-2.07,4.85,8.77,8.77,0,0,1-5.54,1.6H2033Zm2.77,2.19v8.22h7.41a4.92,4.92,0,0,0,3.26-1,3.23,3.23,0,0,0,1.16-2.57v-1.22a3,3,0,0,0-1.22-2.6,5.56,5.56,0,0,0-3.23-.85Zm0,10.38v8.74h7.54a5.47,5.47,0,0,0,3.52-1,3.5,3.5,0,0,0,1.29-2.9v-1.13a3.17,3.17,0,0,0-1.29-2.72,5.77,5.77,0,0,0-3.48-1Zm20-12.57h10.09a8.28,8.28,0,0,1,5.87,1.88,7,7,0,0,1,2,5.31,7.09,7.09,0,0,1-1.55,4.69,6.66,6.66,0,0,1-4.54,2.2l6.35,9.42h-3.39l-6.12-9.09h-5.87v9.09h-2.84Zm2.84,2.51V114h6.74a6.59,6.59,0,0,0,3.9-1,3.41,3.41,0,0,0,1.42-3v-1.61a3.44,3.44,0,0,0-1.42-3,6.52,6.52,0,0,0-3.9-1Zm20.44-2.51h16.24v2.51h-13.4v7.77h11.82v2.35h-11.82v8.35h13.4v2.52h-16.24Zm26.36,0h4l8.51,23.5h-2.87l-2.13-5.93h-11.06l-2.16,5.93h-2.8Zm6.74,15.34-3-8.15-1.74-4.81h-.19l-1.78,4.87-2.93,8.09Zm8.93-15.34H2124v13.34l12-13.34h3.51l-9,10,9.31,13.51h-3.48l-7.86-11.35L2124,118.8v6.61h-2.83Zm27.85,0h4l8.51,23.5h-2.87l-2.13-5.93h-11.06l-2.16,5.93h-2.8Zm6.74,15.34-3-8.15-1.74-4.81h-.19l-1.77,4.87-2.94,8.09Zm8.48-15.34h10.86a7.35,7.35,0,0,1,5,1.53,5.54,5.54,0,0,1,1.72,4.37,5.83,5.83,0,0,1-1,3.45,5.2,5.2,0,0,1-3,1.93v.23a5.32,5.32,0,0,1,3.34,1.75,5.58,5.58,0,0,1,1.24,3.79,5.76,5.76,0,0,1-2.06,4.85,8.82,8.82,0,0,1-5.55,1.6h-10.54Zm2.77,2.19v8.22h7.42a4.91,4.91,0,0,0,3.25-1,3.23,3.23,0,0,0,1.16-2.57v-1.22a3,3,0,0,0-1.22-2.6,5.56,5.56,0,0,0-3.23-.85Zm0,10.38v8.74h7.55a5.46,5.46,0,0,0,3.51-1,3.5,3.5,0,0,0,1.29-2.9v-1.13a3.17,3.17,0,0,0-1.29-2.72,5.77,5.77,0,0,0-3.48-1ZM2187,101.91h2.84v20.92h12.48v2.58H2187Zm20.25,0h16.25v2.51H2210.1v7.77h11.83v2.35H2210.1v8.35h13.41v2.52h-16.25Zm19.15,27,.42,0a1.24,1.24,0,0,0,1.06-.55,2.51,2.51,0,0,0,.29-1.29v-1.64h-1.25v-3h2.77v4.81a3.44,3.44,0,0,1-.68,2.37,2.77,2.77,0,0,1-1.93.79h-.68ZM1105.47,147h3.64L1121,165.48l.55,1h.16V147h2.77v23.5H1121L1108.86,152l-.46-.83h-.16v19.4h-2.77Zm26.68,20.78c-2-2-3-5-3-8.95v-.13a14.46,14.46,0,0,1,1.35-6.59,9.36,9.36,0,0,1,3.84-4,13.32,13.32,0,0,1,11.77,0,9.28,9.28,0,0,1,3.83,4,14.33,14.33,0,0,1,1.36,6.59v.13c0,3.93-1,6.92-2.95,8.95a12.35,12.35,0,0,1-16.25,0Zm12.51-.47a6.61,6.61,0,0,0,2.7-2.77,8.88,8.88,0,0,0,.92-4.13v-3.29a8.89,8.89,0,0,0-.9-4.09,6.61,6.61,0,0,0-2.68-2.79,10.26,10.26,0,0,0-8.88,0,6.63,6.63,0,0,0-2.69,2.79,8.89,8.89,0,0,0-.9,4.09v3.29a8.88,8.88,0,0,0,.92,4.13,6.6,6.6,0,0,0,2.72,2.77,10.16,10.16,0,0,0,8.79,0ZM1163.92,147h4.38l7.29,20h.16l7.25-20h4.49v23.5h-2.78V150.23h-.19l-.39,1.23-7,19.08h-2.9l-7-19-.42-1.26h-.19v1.26l0,19h-2.77Zm35.33,0h4l8.51,23.5h-2.87l-2.13-5.93h-11.06l-2.16,5.93h-2.8Zm6.74,15.35-3-8.16-1.74-4.8h-.19l-1.77,4.86-2.94,8.1Zm14-12.83v21h-2.86v-21h-7.61V147h18v2.52Zm19.15,0v21h-2.86v-21h-7.61V147h18v2.52Zm11-2.52h16.25v2.52H1253v7.77h11.83v2.35H1253V168h13.41v2.51h-16.25Zm21.31,0h10.09a8.24,8.24,0,0,1,5.87,1.89,6.92,6.92,0,0,1,2,5.3,7.07,7.07,0,0,1-1.54,4.69,6.71,6.71,0,0,1-4.55,2.21l6.35,9.41h-3.38l-6.13-9.09h-5.87v9.09h-2.83Zm2.83,2.52v9.6H1281a6.62,6.62,0,0,0,3.9-1,3.43,3.43,0,0,0,1.42-3v-1.62a3.43,3.43,0,0,0-1.42-3,6.48,6.48,0,0,0-3.9-1Zm26.44-2.52h3l3.87,18.41.45,2.29h.19l5.22-20.7h3.39l5.19,20.73h.19l.39-2.16,3.61-18.57h3l-4.93,23.5h-4.07l-4.57-18.12-.42-1.8h-.17l-.41,1.8L1310,170.54h-4Zm33.27,0h2.84v10.35h13.54V147h2.87v23.5h-2.87V159.9h-13.54v10.64H1334Zm31,0h4l8.51,23.5h-2.87l-2.13-5.93h-11l-2.16,5.93h-2.81Zm6.74,15.35-3-8.16-1.74-4.8h-.2l-1.77,4.86-2.93,8.1Zm14-12.83v21h-2.87v-21h-7.61V147h18v2.52Zm19.81,18.26c-2-2-2.95-5-2.95-8.95v-.13a14.46,14.46,0,0,1,1.35-6.59,9.36,9.36,0,0,1,3.84-4,12,12,0,0,1,5.87-1.37,11.85,11.85,0,0,1,4.93,1,9.09,9.09,0,0,1,3.51,2.76,8.29,8.29,0,0,1,1.65,4.16h-2.94a6,6,0,0,0-1.37-3,6.72,6.72,0,0,0-2.54-1.79,8.84,8.84,0,0,0-3.24-.59,8.94,8.94,0,0,0-4.44,1,6.63,6.63,0,0,0-2.69,2.79,8.89,8.89,0,0,0-.9,4.09v3.29a8.88,8.88,0,0,0,.92,4.13,6.6,6.6,0,0,0,2.72,2.77,8.93,8.93,0,0,0,4.39,1,8.62,8.62,0,0,0,3.28-.61,6.49,6.49,0,0,0,2.55-1.82,5.94,5.94,0,0,0,1.32-3h2.94a8.19,8.19,0,0,1-1.63,4.18,9.06,9.06,0,0,1-3.55,2.77,11.7,11.7,0,0,1-4.91,1,10.77,10.77,0,0,1-8.11-3.05ZM1428.47,147h2.84v10.35h13.54V147h2.87v23.5h-2.87V159.9h-13.54v10.64h-2.84Zm31,0h4l8.51,23.5h-2.87l-2.13-5.93h-11l-2.16,5.93h-2.81Zm6.74,15.35-3-8.16-1.74-4.8h-.2l-1.77,4.86-2.93,8.1Zm8.93-15.35H1478V168h12.48v2.58h-15.32Zm20.25,0h2.84V168h12.47v2.58H1495.4Zm20.24,0h16.25v2.52h-13.41v7.77h11.83v2.35h-11.83V168h13.41v2.51h-16.25Zm21.31,0h3.65l11.93,18.44.54,1h.17V147H1556v23.5h-3.55L1540.34,152l-.45-.83h-.16v19.4H1537Zm26.34,20.65q-2.61-3.18-2.61-8.72v-.16a14.63,14.63,0,0,1,1.37-6.68,9.26,9.26,0,0,1,3.87-4,13.47,13.47,0,0,1,10.82-.41,8.87,8.87,0,0,1,3.53,2.62,7.55,7.55,0,0,1,1.62,4H1579a5.59,5.59,0,0,0-2.45-3.72,8.37,8.37,0,0,0-4.74-1.3,9.06,9.06,0,0,0-4.45,1,6.59,6.59,0,0,0-2.7,2.81,8.77,8.77,0,0,0-.91,4.07v3.32a7.7,7.7,0,0,0,2.15,5.87,7.89,7.89,0,0,0,5.65,2A6.81,6.81,0,0,0,1579,161v-.32h-6.93v-2.19h10v12h-2.16l-.22-4.93h-.16a6.69,6.69,0,0,1-1.68,2.76,8.35,8.35,0,0,1-2.9,1.83,10.11,10.11,0,0,1-3.74.67q-5.27,0-7.87-3.18ZM1588.14,147h16.25v2.52H1591v7.77h11.83v2.35H1591V168h13.41v2.51h-16.25Zm23.55,22.84a6.82,6.82,0,0,1-3-2.71,7.68,7.68,0,0,1-1-3.95h2.93a5.08,5.08,0,0,0,1.76,4,7.07,7.07,0,0,0,4.43,1.26,6.77,6.77,0,0,0,4.35-1.17,3.92,3.92,0,0,0,1.42-3.18,3.27,3.27,0,0,0-.92-2.5,5.86,5.86,0,0,0-2.4-1.29c-1-.29-2.07-.55-3.26-.79a23,23,0,0,1-3.78-1.09,6.79,6.79,0,0,1-2.78-1.92,5.1,5.1,0,0,1-1-3.37,5.85,5.85,0,0,1,1-3.48,6.63,6.63,0,0,1,2.92-2.23,11.56,11.56,0,0,1,4.39-.77,9.26,9.26,0,0,1,6.25,1.88,6.55,6.55,0,0,1,2.22,5.05h-3a4.68,4.68,0,0,0-1.45-3.39,6,6,0,0,0-4.13-1.22,6.2,6.2,0,0,0-3.79,1.05,3.38,3.38,0,0,0-1.4,2.85,2.93,2.93,0,0,0,.84,2.26,5.46,5.46,0,0,0,2.24,1.16c.93.25,2,.5,3.11.74a25,25,0,0,1,3,.74,10.3,10.3,0,0,1,2.57,1.19A5.52,5.52,0,0,1,1625,161a6,6,0,0,1,.67,3,6.32,6.32,0,0,1-1.12,3.85,6.65,6.65,0,0,1-3.12,2.29,13.22,13.22,0,0,1-4.69.76A11.45,11.45,0,0,1,1611.69,169.88Zm27.76-2.06c-2-2-3-5-3-8.95v-.13a14.46,14.46,0,0,1,1.35-6.59,9.36,9.36,0,0,1,3.84-4,12,12,0,0,1,5.87-1.37,11.85,11.85,0,0,1,4.93,1,9.09,9.09,0,0,1,3.51,2.76,8.29,8.29,0,0,1,1.65,4.16h-2.94a6,6,0,0,0-1.37-3,6.72,6.72,0,0,0-2.54-1.79,8.84,8.84,0,0,0-3.24-.59,8.94,8.94,0,0,0-4.44,1,6.63,6.63,0,0,0-2.69,2.79,8.89,8.89,0,0,0-.9,4.09v3.29a8.88,8.88,0,0,0,.92,4.13,6.6,6.6,0,0,0,2.72,2.77,8.93,8.93,0,0,0,4.39,1,8.62,8.62,0,0,0,3.28-.61,6.49,6.49,0,0,0,2.55-1.82,5.94,5.94,0,0,0,1.32-3h2.94a8.19,8.19,0,0,1-1.63,4.18,9.06,9.06,0,0,1-3.55,2.77,11.7,11.7,0,0,1-4.91,1,10.77,10.77,0,0,1-8.11-3.05Zm24.47,0c-2-2-3-5-3-8.95v-.13a14.46,14.46,0,0,1,1.35-6.59,9.36,9.36,0,0,1,3.84-4,13.3,13.3,0,0,1,11.76,0,9.25,9.25,0,0,1,3.84,4,14.33,14.33,0,0,1,1.36,6.59v.13c0,3.93-1,6.92-2.95,8.95a12.35,12.35,0,0,1-16.25,0Zm12.51-.47a6.61,6.61,0,0,0,2.7-2.77,8.88,8.88,0,0,0,.92-4.13v-3.29a8.89,8.89,0,0,0-.9-4.09,6.61,6.61,0,0,0-2.68-2.79,10.26,10.26,0,0,0-8.88,0,6.63,6.63,0,0,0-2.69,2.79,8.89,8.89,0,0,0-.9,4.09v3.29a8.88,8.88,0,0,0,.92,4.13,6.6,6.6,0,0,0,2.72,2.77,10.16,10.16,0,0,0,8.79,0ZM1687.82,147h4.39l7.28,20h.16l7.26-20h4.48v23.5h-2.77V150.23h-.2l-.38,1.23-7,19.08h-2.9l-7-19-.41-1.26h-.2v1.26l0,19h-2.77Zm30.27,0h16.25v2.52h-13.41v7.77h11.83v2.35h-11.83V168h13.41v2.51h-16.25Zm35.14,13.67L1745,147h3.26l5.61,9.51.74,1.32h.16l.74-1.32,5.61-9.51h3.26l-8.26,13.67v9.83h-2.87Zm14.79,7.11c-2-2-3-5-3-8.95v-.13a14.46,14.46,0,0,1,1.35-6.59,9.25,9.25,0,0,1,3.84-4,13.3,13.3,0,0,1,11.76,0,9.25,9.25,0,0,1,3.84,4,14.46,14.46,0,0,1,1.35,6.59v.13c0,3.93-1,6.92-3,8.95a12.33,12.33,0,0,1-16.24,0Zm12.5-.47a6.63,6.63,0,0,0,2.71-2.77,8.88,8.88,0,0,0,.92-4.13v-3.29a8.89,8.89,0,0,0-.9-4.09,6.61,6.61,0,0,0-2.68-2.79,10.26,10.26,0,0,0-8.88,0,6.63,6.63,0,0,0-2.69,2.79,8.89,8.89,0,0,0-.9,4.09v3.29a8.88,8.88,0,0,0,.92,4.13,6.54,6.54,0,0,0,2.72,2.77,10.14,10.14,0,0,0,8.78,0Zm15.51,2.37a7.61,7.61,0,0,1-3.24-3.21,10.06,10.06,0,0,1-1.09-4.8V147h2.83v14.51a6.73,6.73,0,1,0,13.45,0V147h2.83v14.67a9.66,9.66,0,0,1-1.17,4.88,8,8,0,0,1-3.32,3.16,12.23,12.23,0,0,1-10.29,0ZM1817.29,147h10.09a8.24,8.24,0,0,1,5.87,1.89,6.93,6.93,0,0,1,2,5.3,7.07,7.07,0,0,1-1.55,4.69,6.69,6.69,0,0,1-4.54,2.21l6.35,9.41h-3.39l-6.12-9.09h-5.87v9.09h-2.84Zm2.84,2.52v9.6h6.74a6.66,6.66,0,0,0,3.9-1,3.43,3.43,0,0,0,1.42-3v-1.62a3.43,3.43,0,0,0-1.42-3,6.52,6.52,0,0,0-3.9-1Zm26.44-2.52h3l3.87,18.41.45,2.29h.2l5.22-20.7h3.38l5.19,20.73h.2l.38-2.16L1872,147h3l-4.93,23.5H1866l-4.58-18.12-.42-1.8h-.16l-.42,1.8-4.64,18.12h-4Zm38.33,0h4l8.51,23.5h-2.86l-2.13-5.93h-11.06l-2.16,5.93h-2.81Zm6.74,15.35-3-8.16-1.74-4.8h-.19l-1.78,4.86-2.93,8.1Zm12.15-1.68L1895.54,147h3.25l5.61,9.51.74,1.32h.17l.74-1.32,5.61-9.51h3.25l-8.25,13.67v9.83h-2.87Zm14.15,6.87h2.78v3h-2.78Zm6.64-10.64-.58-5.42V147h2.42v4.48l-.58,5.42Zm5.71,0-.58-5.42V147h2.42v4.48l-.58,5.42Z"/></g></g></g></g></svg>