<svg xmlns="http://www.w3.org/2000/svg" viewBox="0 0 41.86 78.82"><defs><style>.cls-1{fill:#b8a980;}</style></defs><title>6244ebb9-b907-4800-83b7-6ba543a07b40skateboard1</title><g id="Layer_2" data-name="Layer 2"><g id="Layer_1-2" data-name="Layer 1"><g id="_6244ebb9-b907-4800-83b7-6ba543a07b40" data-name="6244ebb9-b907-4800-83b7-6ba543a07b40"><g id="_6244ebb9-b907-4800-83b7-6ba543a07b40-child-0" data-name="6244ebb9-b907-4800-83b7-6ba543a07b40-child-0"><path class="cls-1" d="M20.94,0A20.93,20.93,0,0,0,0,20.94V57.82a20.93,20.93,0,1,0,41.86,0V20.92A20.95,20.95,0,0,0,20.94,0ZM36.18,20.92V57.84a15.26,15.26,0,1,1-30.51,0V20.92a15.26,15.26,0,1,1,30.51,0ZM26.09,19.36h5.68v12H26.09l0-3.18H15.74l0,3.18H10.07v-12h5.69l0,3.18H26.11Zm0,28h5.68v12H26.09l0-3.18H15.74l0,3.18H10.07v-12h5.69l0,3.18H26.11Z"/></g></g></g></g></svg>