<svg xmlns="http://www.w3.org/2000/svg" viewBox="0 0 68.94 28.15"><defs><style>.cls-1{fill:#252525;}</style></defs><title>6590cc83-201c-4464-baea-4503016aa928surfing</title><g id="Layer_2" data-name="Layer 2"><g id="Layer_1-2" data-name="Layer 1"><g id="_6590cc83-201c-4464-baea-4503016aa928" data-name="6590cc83-201c-4464-baea-4503016aa928"><g id="_58f2e221-f839-475f-9959-f54ded4efad1" data-name="58f2e221-f839-475f-9959-f54ded4efad1"><path class="cls-1" d="M9.3,27.87l-.59.1a2.64,2.64,0,0,1-.55.07,1.57,1.57,0,0,1-.72-.2A1.27,1.27,0,0,1,7,27.37a1.45,1.45,0,0,1-.14-.67A11.57,11.57,0,0,1,7,25.22a9.9,9.9,0,0,0,.17-1.72A7.51,7.51,0,0,0,7,22.32,7.23,7.23,0,0,1,7,21.08v-1.2c0-.6,0-1.07,0-1.41a3.5,3.5,0,0,0-.27-1.14c-.16-.39-.26-.63-.31-.72-.23-.63-.57-.94-1-.94a1.35,1.35,0,0,0-.69.25,3.11,3.11,0,0,0-.59.46,2.63,2.63,0,0,0-.38.64,2.73,2.73,0,0,0-.1.93c0,.16,0,.6,0,1.31s-.11,1.71-.25,3A8,8,0,0,0,3.41,24a17.45,17.45,0,0,1,.14,1.9A2.1,2.1,0,0,1,3,27.44,1.79,1.79,0,0,1,1.65,28,3.63,3.63,0,0,1,1,27.89a.84.84,0,0,1-.42-.4A3.38,3.38,0,0,1,.2,26.25l0-.93C.08,23.49,0,22,0,20.91s.05-2.33.14-3.27c.07-.73.1-1.35.1-1.86s0-.76,0-1a7.64,7.64,0,0,1,0-1c0-.57,0-1,0-1.31L.27,11a16,16,0,0,0-.1-1.79C.06,8.15,0,7.21,0,6.41S.05,4.77.14,3.62c0-.23,0-.51,0-.83A2.9,2.9,0,0,1,.27,2,2.12,2.12,0,0,1,1.15.62,2.23,2.23,0,0,1,2.65.31a5.1,5.1,0,0,0,.65,0q.74,0,1.11,0l1.2,0A8.09,8.09,0,0,1,7.2.4,2.23,2.23,0,0,1,8.3.93a8.26,8.26,0,0,1,1.31,1.5A5.08,5.08,0,0,1,10.3,4.1a17,17,0,0,1,.24,3.2,11.71,11.71,0,0,1-.17,2.41l-.17.76c-.19.85-.34,1.45-.45,1.78a3,3,0,0,1-.62,1,1.46,1.46,0,0,0-.42.9,1.2,1.2,0,0,0,.12.55,5.7,5.7,0,0,0,.31.5c.13.17.24.33.33.46A5.83,5.83,0,0,1,10.2,19c-.07,1.24-.11,2.22-.11,2.93s0,1.32.07,2.1a19.27,19.27,0,0,1,0,1.93A4,4,0,0,1,10,27.22c-.14.41-.37.63-.69.65ZM4.82,12.64A1.62,1.62,0,0,0,6,12.2a4.2,4.2,0,0,0,.92-1.4A5.34,5.34,0,0,0,7.2,9a9,9,0,0,0-.11-1.42c0-.16,0-.39,0-.69A8.17,8.17,0,0,1,7,6c0-.19,0-.51.07-1a1.82,1.82,0,0,0-.28-1.37,1.21,1.21,0,0,0-.72-.33,2.65,2.65,0,0,0-.93,0,3.57,3.57,0,0,1-.62,0,2.65,2.65,0,0,0-.62.06.77.77,0,0,0-.41.31,1.19,1.19,0,0,0-.18.87c.05.78.07,1.35.07,1.72l0,1.82c0,.35,0,.86,0,1.55a7.94,7.94,0,0,0,.21,2.14,1.76,1.76,0,0,0,.24.53.67.67,0,0,0,.49.23ZM18.29.31A6.11,6.11,0,0,0,19.5.38a13.12,13.12,0,0,1,1.82.07A1,1,0,0,1,22,1a5.29,5.29,0,0,1,.4,1.34,1.57,1.57,0,0,1,0,.38,1.48,1.48,0,0,1-.12.59.91.91,0,0,1-.33.41.76.76,0,0,1-.41.07,2,2,0,0,1-.52,0,9.1,9.1,0,0,0-1.51.07,9.15,9.15,0,0,1-1.9.07A1,1,0,0,0,17,4a.45.45,0,0,0-.16.39c0,.39,0,.74,0,1-.05.83-.07,1.53-.07,2.1a10,10,0,0,0,.17,2.14c0,.09.05.25.09.5a.9.9,0,0,0,.22.53,1.26,1.26,0,0,0,.52.22,4.48,4.48,0,0,0,.72,0,3.23,3.23,0,0,0,.48,0l.38,0a1.53,1.53,0,0,1,.62.13,1.42,1.42,0,0,1,.36.21,1.16,1.16,0,0,1,.26.38,2,2,0,0,1,.16.9c0,.37,0,.59,0,.68,0,.67-.54,1-1.62,1l-.45,0a2.59,2.59,0,0,0-.48,0,1.33,1.33,0,0,0-.45.07,2.28,2.28,0,0,0-.64.33.88.88,0,0,0-.12.57,5.17,5.17,0,0,0,0,.76L17,17c0,.21,0,.56-.07,1.07,0,.18,0,.48,0,.89l0,1.79a14.91,14.91,0,0,1-.27,3,.49.49,0,0,0,.12.5.77.77,0,0,0,.57.19,1.44,1.44,0,0,0,.41,0,4.92,4.92,0,0,1,1-.1,5.56,5.56,0,0,1,1.1.1,8.1,8.1,0,0,0,.93.07,1.68,1.68,0,0,1,.79.17,2,2,0,0,1,.66.62,2.15,2.15,0,0,1,.1,1.11,2.43,2.43,0,0,1-.21.7,1.69,1.69,0,0,1-.45.6,1.53,1.53,0,0,1-1.34.28,7.59,7.59,0,0,0-1.27-.1c-.37,0-.93,0-1.66.07a13.92,13.92,0,0,1-1.69.1,7.08,7.08,0,0,1-1.24-.1,2.07,2.07,0,0,1-.93-.33.9.9,0,0,1-.24-.78c.16-1.61.24-3.19.24-4.75,0-.69,0-1.2,0-1.55q-.13-2.79-.14-8.79c0-.27,0-.6,0-1s0-.66.06-.84.05-.61.07-1,0-.81,0-1.32,0-.77,0-1.22,0-.79-.07-1a20.49,20.49,0,0,1-.1-2.07c0-.27,0-.71.07-1.31A1.81,1.81,0,0,1,13.88.83,1.49,1.49,0,0,1,15,.41c.49,0,1.07,0,1.76-.07s.91-.07,1.07-.07a1.79,1.79,0,0,1,.48,0ZM31.11,5.06a6.11,6.11,0,0,0,0-.86.6.6,0,0,0-.2-.46,1.62,1.62,0,0,0-.42-.19l-.34-.11a1.67,1.67,0,0,0-.52-.06A1.35,1.35,0,0,0,28.46,4a2.19,2.19,0,0,0-.35,1.17c-.05.46-.07,1.2-.07,2.21,0,.23,0,.69,0,1.39s-.07,1.36-.14,2a33.72,33.72,0,0,0-.21,3.79A38.78,38.78,0,0,0,28,19.57c.07.59.13,1.48.18,2.65,0,.57,0,1,0,1.28a1.72,1.72,0,0,0,.21.87.57.57,0,0,0,.51.26A5.91,5.91,0,0,0,30,24.36a2.69,2.69,0,0,1,.44-.09A.58.58,0,0,0,30.9,24a1.3,1.3,0,0,0,.17-.66c0-.21.1-.66.21-1.37a8.89,8.89,0,0,0,.1-2c-.09-1.15-.2-2.19-.34-3.13a1.57,1.57,0,0,0-.17-.62.67.67,0,0,0-.33-.21,2.26,2.26,0,0,1-.36-.14,1.18,1.18,0,0,1-.57-.51,1.6,1.6,0,0,1-.19-.8,3.1,3.1,0,0,1,.07-.63l.1-.5a1,1,0,0,1,.35-.71,1.39,1.39,0,0,1,.79-.26c.92-.05,1.55-.07,1.89-.07.79,0,1.27.1,1.45.31a1,1,0,0,1,.21.69l0,.62q0,.38,0,1.35l0,3.48a16.92,16.92,0,0,1-.07,2c0,.19,0,.45,0,.79s0,.69,0,.9l0,.93a11.11,11.11,0,0,1-.14,1.79c-.07.62-.1,1.06-.1,1.31a3.94,3.94,0,0,1-.11,1.05.55.55,0,0,1-.37.43,3.81,3.81,0,0,1-.56.07,3.25,3.25,0,0,1-1-.21l-.37-.19a1,1,0,0,0-.46-.12.75.75,0,0,0-.28,0,7.33,7.33,0,0,1-2.51.51,5,5,0,0,1-1.55-.27,2.76,2.76,0,0,1-1.33-1,3.8,3.8,0,0,1-.67-1.7c-.11-.85-.19-1.71-.22-2.57s-.06-1.75-.06-2.67c0-.32,0-.8-.07-1.45,0-1-.06-1.71-.06-2.24a16,16,0,0,1,.1-1.79A59.53,59.53,0,0,0,24.73,8c0-1.38,0-2.69.11-3.93a3.57,3.57,0,0,1,1-2.59,2.66,2.66,0,0,0,.41-.44,4.64,4.64,0,0,1,.5-.54.9.9,0,0,1,.5-.22A16.93,16.93,0,0,1,29.87,0a6.87,6.87,0,0,1,2.55.55C33.06.82,33.58,1.63,34,3a7.79,7.79,0,0,1,.45,2.34l0,.93a5.83,5.83,0,0,0-.07.87.74.74,0,0,1-.12.5,1.4,1.4,0,0,1-.36.24L33.45,8a1,1,0,0,1-.52.13,3.15,3.15,0,0,1-.53-.06L31.83,8a1.17,1.17,0,0,1-.53-.2c-.11-.09-.16-.3-.16-.62a4.48,4.48,0,0,1,0-.59,4,4,0,0,0,0-.69ZM41.27,25.84a1.78,1.78,0,0,1-.2.89,2.53,2.53,0,0,0-.14.35.89.89,0,0,1-.21.34A2.34,2.34,0,0,1,40,28a2.58,2.58,0,0,1-1.1.16,1.26,1.26,0,0,1-.79-.21,1.65,1.65,0,0,1-.73-.83q-.07-.2-.24-.57a1.31,1.31,0,0,1-.14-.67,2.31,2.31,0,0,1,.06-.39,2.39,2.39,0,0,1,.13-.5.92.92,0,0,1,.26-.35,3.63,3.63,0,0,0,.38-.36,1.1,1.1,0,0,1,.52-.33,2.43,2.43,0,0,1,.76-.13,1.22,1.22,0,0,1,.53.1,2.17,2.17,0,0,1,.46.29c.17.13.31.22.42.29a1.69,1.69,0,0,1,.72,1.14ZM47.44.34c1.19.09,2.1.14,2.72.14A17.72,17.72,0,0,0,52.5.34l.42,0a.89.89,0,0,1,.65.21,1.52,1.52,0,0,1,.4.56,2,2,0,0,1,.15.74,1.59,1.59,0,0,1-.17.69,3.48,3.48,0,0,1-.62,1,1.16,1.16,0,0,1-.86.28c-.55,0-1,0-1.31,0a.94.94,0,0,0-.72.4,1.33,1.33,0,0,0-.18.74v.5c0,.16,0,.43,0,.81s0,.92,0,1.63a23.55,23.55,0,0,1-.13,2.62,21.48,21.48,0,0,0-.14,2.52c0,1,0,2,.14,3q.06,2.28.06,3.93c0,1.52,0,3.4-.06,5.65l0,1.45c0,.35,0,.56-.14.64a1.59,1.59,0,0,1-.62.22l-.46.09a3.59,3.59,0,0,1-.47,0,1,1,0,0,1-.51-.14,2.83,2.83,0,0,1-.78-.6,1.85,1.85,0,0,1-.26-.85,21.29,21.29,0,0,1-.1-2.2c0-1.24.06-2.57.17-4,0-.37,0-.77.07-1.2s0-.91,0-1.42V16.16c0-1.22,0-2.16,0-2.83V12.2l0-1.9c0-.39,0-1,0-1.72a20.85,20.85,0,0,0-.45-4.38,1.22,1.22,0,0,0,0-.22c0-.11-.07-.18-.14-.21a.7.7,0,0,0-.28,0,7.68,7.68,0,0,0-.79,0h-.71a3.52,3.52,0,0,1-1-.14,1.07,1.07,0,0,1-.35-.23,1,1,0,0,1-.13-.43,3.1,3.1,0,0,1-.11-.76A1.79,1.79,0,0,1,43.51,1,3.6,3.6,0,0,1,44,.45a1,1,0,0,1,.55-.11c.25,0,.6,0,1,0h1.07ZM57.6.52a1.91,1.91,0,0,1,.76-.14,2.61,2.61,0,0,1,1.38.41A.63.63,0,0,1,60,1.2a2.89,2.89,0,0,1,.09.62c0,.23,0,.43,0,.59.32,1.63.57,2.89.76,3.76l.14.68a33.52,33.52,0,0,1,.79,4.35,8,8,0,0,0,.26,1.43c.13.45.26.67.39.67s.17-.13.23-.4.1-.56.15-.91c0-.09.07-.39.14-.9a6.07,6.07,0,0,1,.35-1.41,14.08,14.08,0,0,0,.53-2.08C64,6.87,64.14,6,64.25,5a9.67,9.67,0,0,1,.59-2.76c.07-.13.17-.36.31-.69a2.66,2.66,0,0,1,.46-.77,1.34,1.34,0,0,1,.64-.4,1.67,1.67,0,0,1,.65-.1,1.5,1.5,0,0,1,1.21.52,1.55,1.55,0,0,1,.38,1.24,15,15,0,0,0-.07,1.65,20.49,20.49,0,0,0,.1,2.07c.12,1.54.18,2.84.18,3.89V11c0,.25,0,.75.07,1.48s.06,1.61.06,2.21c0,.37,0,.87-.06,1.51a22,22,0,0,0-.07,2.28c0,1.35,0,2.65.13,3.89a16,16,0,0,1,.11,1.72,13.7,13.7,0,0,1-.31,2.69,2.65,2.65,0,0,1-.28.83.81.81,0,0,1-.58.34,4.8,4.8,0,0,1-.8.1c-.46,0-.75-.07-.88-.22a1.16,1.16,0,0,1-.22-.6,3.59,3.59,0,0,0-.07-.55,29.63,29.63,0,0,1-.24-3.48c0-.67,0-1.36.1-2.07a32.53,32.53,0,0,0,.18-3.62l0-3.93a6.49,6.49,0,0,1,0-.86l0-.93a3.19,3.19,0,0,0-.05-.65c0-.14-.11-.21-.22-.21s-.2.07-.25.22-.09.42-.15.81-.11.7-.16.93c-.09.62-.23,1.71-.44,3.28s-.38,2.73-.52,3.51L63.8,21c-.18.73-.32,1.33-.41,1.79a1.09,1.09,0,0,1-.31.62.89.89,0,0,1-.38.16.47.47,0,0,1-.38-.05,1.36,1.36,0,0,1-.51-.66,15.45,15.45,0,0,1-.42-2.34c0-.41-.11-.84-.2-1.28a14.91,14.91,0,0,1-.35-1.79c0-.13-.11-.63-.26-1.48s-.38-1.86-.7-3a2.74,2.74,0,0,1-.09-.55,2.61,2.61,0,0,0-.07-.47c0-.13-.1-.19-.19-.19s-.2.12-.2.35,0,.86.1,1.75a7.44,7.44,0,0,1,.1,1.35c0,.51-.05,1.29-.14,2.34s-.13,1.86-.13,2.41c0,.28,0,.67.07,1.17a49.72,49.72,0,0,1,.24,5.28,1.86,1.86,0,0,1-.3,1.08,1.07,1.07,0,0,1-.74.5,2.07,2.07,0,0,1-.41,0,1.79,1.79,0,0,1-1.52-.82,1.17,1.17,0,0,1-.19-.62c0-.25,0-.56,0-.93,0-.53.07-1.05.07-1.55a5.4,5.4,0,0,0-.07-.8,21.48,21.48,0,0,1-.21-2.75c0-1.15,0-2.11,0-2.9.05-1.56.07-2.93.07-4.1,0-1.63,0-3.18-.14-4.65q0-.4,0-1.17c0-.71,0-1.71.13-3,.09-1,.14-1.69.14-2.2a2.71,2.71,0,0,1,.21-1.24,2,2,0,0,1,1-.72Z"/></g></g></g></g></svg>