<svg xmlns="http://www.w3.org/2000/svg" viewBox="0 0 2133.63 907.49"><defs><style>.cls-1{fill:#9f1111;}</style></defs><title>66d8b6d6-8e65-4456-a965-cc0a674492b7roster</title><g id="Layer_2" data-name="Layer 2"><g id="Layer_1-2" data-name="Layer 1"><g id="_66d8b6d6-8e65-4456-a965-cc0a674492b7" data-name="66d8b6d6-8e65-4456-a965-cc0a674492b7"><g id="_66d8b6d6-8e65-4456-a965-cc0a674492b7-child-0" data-name="66d8b6d6-8e65-4456-a965-cc0a674492b7-child-0"><path class="cls-1" d="M542,328.71l-2.36-2.35a31.21,31.21,0,0,0-2.44,2.44c-.63.95-2,3.94-2.44,4.89l2.44,2.44A16.16,16.16,0,0,0,542,328.71Z"/></g><g id="_66d8b6d6-8e65-4456-a965-cc0a674492b7-child-1" data-name="66d8b6d6-8e65-4456-a965-cc0a674492b7-child-1"><path class="cls-1" d="M459.07,214.13v-4.88h7.33v4.88Z"/></g><g id="_66d8b6d6-8e65-4456-a965-cc0a674492b7-child-2" data-name="66d8b6d6-8e65-4456-a965-cc0a674492b7-child-2"><path class="cls-1" d="M503.17,200.87c2.76.86,6.65-3.21,5.83-6.06a7.65,7.65,0,0,0-2.76-2.63,5.71,5.71,0,0,0-6.92,2.4,5.4,5.4,0,0,0,0,2.4C500,197.84,502.31,200.56,503.17,200.87Z"/></g><g id="_66d8b6d6-8e65-4456-a965-cc0a674492b7-child-3" data-name="66d8b6d6-8e65-4456-a965-cc0a674492b7-child-3"><path class="cls-1" d="M546.34,160.15a17.59,17.59,0,0,0,9,.31c3.08-2.67,5.7-6.06,8.64-9.05a7.29,7.29,0,0,0,0-3.93,43.69,43.69,0,0,0-7.37-7.7c-2.09-1.31-4.94-3.8-6.93-2.4a23.74,23.74,0,0,0-7.65,12.18,23.89,23.89,0,0,0,0,6.65A7,7,0,0,0,546.34,160.15Z"/></g><g id="_66d8b6d6-8e65-4456-a965-cc0a674492b7-child-4" data-name="66d8b6d6-8e65-4456-a965-cc0a674492b7-child-4"><path class="cls-1" d="M546.93,192.14c0,.5,1.9,2,2.44,2.44l2.17-1.08C550.64,192.86,546.84,186.44,546.93,192.14Z"/></g><g id="_66d8b6d6-8e65-4456-a965-cc0a674492b7-child-5" data-name="66d8b6d6-8e65-4456-a965-cc0a674492b7-child-5"><path class="cls-1" d="M562.67,219.11c-1.22,1.86-1.63,4.53-3.71,5.75-5.56,3.12-8.41,10.13-8.05,18.6,0,.95,3.71,4.52,4.93,4.79,2.67.95,5.48-1.22,9-1.26a26.06,26.06,0,0,0,18.55-7.43,11.58,11.58,0,0,0,0-6.6c-1.17-3.12-5.65-3.35-7.24-5.61a110.29,110.29,0,0,1-6.56-10.77,20.26,20.26,0,0,0-4.12,0A9,9,0,0,0,562.67,219.11Z"/></g><g id="_66d8b6d6-8e65-4456-a965-cc0a674492b7-child-6" data-name="66d8b6d6-8e65-4456-a965-cc0a674492b7-child-6"><path class="cls-1" d="M551.5,304.41c1.44,0,5.34.59,6.06,0,1.72-1.49,2.22-4.52,3.89-6.06-.9,0-4.07-.45-4.52,0A14,14,0,0,0,551.5,304.41Z"/></g><g id="_66d8b6d6-8e65-4456-a965-cc0a674492b7-child-7" data-name="66d8b6d6-8e65-4456-a965-cc0a674492b7-child-7"><path class="cls-1" d="M515.16,163.86a11,11,0,0,0,8.23-13.58,11.36,11.36,0,0,0-3.34-3.39,14.62,14.62,0,0,0-4.85,0,10.23,10.23,0,0,0-8.37,11A7.36,7.36,0,0,0,515.16,163.86Z"/></g><g id="_66d8b6d6-8e65-4456-a965-cc0a674492b7-child-8" data-name="66d8b6d6-8e65-4456-a965-cc0a674492b7-child-8"><path class="cls-1" d="M260.79,184.58a20.7,20.7,0,0,0,7.11,0A12.49,12.49,0,0,0,278,172.41a10.74,10.74,0,0,0-4-6.88,14.27,14.27,0,0,0-6.47-.36,21.87,21.87,0,0,0-10.82,6.47,19.1,19.1,0,0,0-.22,9.05C257,182.64,259,183.81,260.79,184.58Z"/></g><g id="_66d8b6d6-8e65-4456-a965-cc0a674492b7-child-9" data-name="66d8b6d6-8e65-4456-a965-cc0a674492b7-child-9"><path class="cls-1" d="M275.59,160.19c2.4.82,5.11-1.18,7.69-2.35,3.31-1.54,4-5.39,4.53-8.65a10.11,10.11,0,0,0-3.85-8,11.39,11.39,0,0,0-6.15-.32,25.08,25.08,0,0,0-6.29,6.66,26.12,26.12,0,0,0-.27,8.82A6.57,6.57,0,0,0,275.59,160.19Z"/></g><g id="_66d8b6d6-8e65-4456-a965-cc0a674492b7-child-10" data-name="66d8b6d6-8e65-4456-a965-cc0a674492b7-child-10"><path class="cls-1" d="M598.69,304.32a11.4,11.4,0,0,1-.45,9.05c-.9,2.49,2.13,4.93,4.08,5,3.57,0,6.74,4.3,8.73,1.31s-2.31-4.52-3.08-6.65a24.52,24.52,0,0,1,0-6.29,16.91,16.91,0,0,0,14.39-6.2c.91-1.31-.41-7.38.23-9s5.29-5,6.06-6.52a12.71,12.71,0,0,0,0-4.52c-.5-1.68-2.35-1.5-3.57-1.13a28.17,28.17,0,0,0-9.05,5.61c-.73.54-4,0-4.85.27l-11.35,4.66a10.22,10.22,0,0,1-5.21,0c-1.94-.81-3.26-4.93-6.06-3.57a8.64,8.64,0,0,0-2.17,2.3,16.07,16.07,0,0,0,4.52,16C593.31,302.51,597.79,302.51,598.69,304.32Z"/></g><g id="_66d8b6d6-8e65-4456-a965-cc0a674492b7-child-11" data-name="66d8b6d6-8e65-4456-a965-cc0a674492b7-child-11"><path class="cls-1" d="M303.69,155.58a28.57,28.57,0,0,0-5.7,0v7.28a26.47,26.47,0,0,0,5.34,0c1.9-1,4.52-2.49,3-4.93A8.68,8.68,0,0,0,303.69,155.58Z"/></g><g id="_66d8b6d6-8e65-4456-a965-cc0a674492b7-child-12" data-name="66d8b6d6-8e65-4456-a965-cc0a674492b7-child-12"><path class="cls-1" d="M425.38,191.87c2,.59,6.15-3.85,6.38-6.47a21.26,21.26,0,0,1,7.42-14.48,17.16,17.16,0,0,0,0-9c-1.13-2.63-4.3-6.34-6.52-6.34H420.85l-13,6.06a20.25,20.25,0,0,0-3.58,3.76,10.89,10.89,0,0,0,0,14.39A46.07,46.07,0,0,0,425.38,191.87Z"/></g><g id="_66d8b6d6-8e65-4456-a965-cc0a674492b7-child-13" data-name="66d8b6d6-8e65-4456-a965-cc0a674492b7-child-13"><path class="cls-1" d="M377.41,148.2a19.68,19.68,0,0,0,5.2,0,13.22,13.22,0,0,0,7.7-4.53,19.62,19.62,0,0,0,.45-8.55c-.5-1.85-2.58-3-4.26-3.8a16,16,0,0,0-7.15-.27l-12.8,6.61c0,.81-.45,3.57,0,4.25A22.22,22.22,0,0,0,377.41,148.2Z"/></g><g id="_66d8b6d6-8e65-4456-a965-cc0a674492b7-child-14" data-name="66d8b6d6-8e65-4456-a965-cc0a674492b7-child-14"><path class="cls-1" d="M346.77,154.08a8.62,8.62,0,0,0,5.61-11.18,18.75,18.75,0,0,0-4.75-4.52,19.76,19.76,0,0,0-6.51,0,9.7,9.7,0,0,0-2.81,2.49c-1.18,2.22-3.21,4.52-2.44,7.24A9,9,0,0,0,346.77,154.08Z"/></g><g id="_66d8b6d6-8e65-4456-a965-cc0a674492b7-child-15" data-name="66d8b6d6-8e65-4456-a965-cc0a674492b7-child-15"><path class="cls-1" d="M299.62,143.36a10.33,10.33,0,0,0,4.07,0,7.85,7.85,0,0,0,2.85-2.45,11,11,0,0,0,0-5.16c-.86-2-4.25-1.08-5.79-.36s-5.38,2.58-3.94,5.39A10.16,10.16,0,0,0,299.62,143.36Z"/></g><g id="_66d8b6d6-8e65-4456-a965-cc0a674492b7-child-16" data-name="66d8b6d6-8e65-4456-a965-cc0a674492b7-child-16"><path class="cls-1" d="M349.67,301.56a21.34,21.34,0,0,0-18.1-4A21.33,21.33,0,0,0,349.67,301.56Z"/></g><g id="_66d8b6d6-8e65-4456-a965-cc0a674492b7-child-17" data-name="66d8b6d6-8e65-4456-a965-cc0a674492b7-child-17"><path class="cls-1" d="M976.56,61.31c1.22-.45,1.63-2.08,2.26-3.39l-2.35-2.35c-1.36.59-3,1-3.72,2.4a4.59,4.59,0,0,0,0,2.21C973.43,61.9,975.15,61.81,976.56,61.31Z"/></g><g id="_66d8b6d6-8e65-4456-a965-cc0a674492b7-child-18" data-name="66d8b6d6-8e65-4456-a965-cc0a674492b7-child-18"><path class="cls-1" d="M774.19,17.46a8.46,8.46,0,0,0,4.52,0,20.74,20.74,0,0,0,4.89-5.29,15.91,15.91,0,0,0,0-6.52A17.05,17.05,0,0,0,779.07.49c-2-.54-5.11-1.08-6.29,1a46.11,46.11,0,0,0-3.62,9.37C768.57,13.39,771.92,15.56,774.19,17.46Z"/></g><g id="_66d8b6d6-8e65-4456-a965-cc0a674492b7-child-19" data-name="66d8b6d6-8e65-4456-a965-cc0a674492b7-child-19"><path class="cls-1" d="M244.37,271.47a8.19,8.19,0,0,0-2.49,2.85,38.73,38.73,0,0,0,0,5.7h12.31c.54-3.66-2.45-6.52-5.44-8.42A10.28,10.28,0,0,0,244.37,271.47Z"/></g><g id="_66d8b6d6-8e65-4456-a965-cc0a674492b7-child-20" data-name="66d8b6d6-8e65-4456-a965-cc0a674492b7-child-20"><path class="cls-1" d="M1217.93,241.92a73.69,73.69,0,0,0,24.35-12.13,5.38,5.38,0,0,0,2.53-5.84,22.82,22.82,0,0,0-9.68,1.18L1220.47,230a15.47,15.47,0,0,0-8.37,6.38,9.68,9.68,0,0,0,0,4.84C1212.78,243.23,1216,242.28,1217.93,241.92Z"/></g><g id="_66d8b6d6-8e65-4456-a965-cc0a674492b7-child-21" data-name="66d8b6d6-8e65-4456-a965-cc0a674492b7-child-21"><path class="cls-1" d="M880.53,336.13a65.51,65.51,0,0,0,14.3-7.46,52.29,52.29,0,0,0-18.42,4c-1.9.54-4.52,1.44-5.29,3.43A40,40,0,0,0,880.53,336.13Z"/></g><g id="_66d8b6d6-8e65-4456-a965-cc0a674492b7-child-22" data-name="66d8b6d6-8e65-4456-a965-cc0a674492b7-child-22"><path class="cls-1" d="M943.07,331.25c.95-.32,2.94-3.89,5-4.53a74,74,0,0,0,23.35-11.54,5.63,5.63,0,0,0,2.53-5.93c-1.22,0-5.66-.9-7.19,0a367.58,367.58,0,0,1-34.35,18.11,25.61,25.61,0,0,0,4.21,3.71A17.39,17.39,0,0,0,943.07,331.25Z"/></g><g id="_66d8b6d6-8e65-4456-a965-cc0a674492b7-child-23" data-name="66d8b6d6-8e65-4456-a965-cc0a674492b7-child-23"><path class="cls-1" d="M2058.55,250.7c3.08-2.58,5.66-6,8.6-9,.41-.41,0-3.26,0-3.94s3.17-3.12,3.66-4.07a127.58,127.58,0,0,0,10.82-29.33c.41-1.67,0-7.19,0-9.05s3.21-6.47,3.67-8.14a17.18,17.18,0,0,0,0-4.75c-.46-1.72-2.49-1.63-3.49-1.05-3.12,1.72-4,5.93-6,8l-9.91,10.09a80,80,0,0,0-12.94,27.74,70.41,70.41,0,0,0-3,23.4C2051.81,250.7,2057.47,251.65,2058.55,250.7Z"/></g><g id="_66d8b6d6-8e65-4456-a965-cc0a674492b7-child-24" data-name="66d8b6d6-8e65-4456-a965-cc0a674492b7-child-24"><path class="cls-1" d="M1784.14,104.3a17.34,17.34,0,0,0,5.75,0,7.58,7.58,0,0,0,2.8-2.44,9.59,9.59,0,0,0,0-4.52c-1.85-3.26-5.88-4.53-7.92-6.79s-8.42-2.4-8.55-.91A13.87,13.87,0,0,0,1784.14,104.3Z"/></g><g id="_66d8b6d6-8e65-4456-a965-cc0a674492b7-child-25" data-name="66d8b6d6-8e65-4456-a965-cc0a674492b7-child-25"><path class="cls-1" d="M1374.51,134.62a8.46,8.46,0,0,0,4.52,0c1.41-1,3.67-2.62,2.58-4.88s-1.58-6.75-4.79-8.56a31.46,31.46,0,0,0-2.45,2.45c-.63,1.17-1.94,4.88-2.44,6.11C1370.8,132.18,1373.11,133.54,1374.51,134.62Z"/></g><g id="_66d8b6d6-8e65-4456-a965-cc0a674492b7-child-26" data-name="66d8b6d6-8e65-4456-a965-cc0a674492b7-child-26"><path class="cls-1" d="M670.87,329.39c0-2.17-2.58-3.84-4.07-1.9C667.66,328.12,671.37,334.51,670.87,329.39Z"/></g><g id="_66d8b6d6-8e65-4456-a965-cc0a674492b7-child-27" data-name="66d8b6d6-8e65-4456-a965-cc0a674492b7-child-27"><path class="cls-1" d="M729.16,199.33h11.49c2.36,0,4.53-4.11,6.11-6.74a12.71,12.71,0,0,0,.27-6.42,16.68,16.68,0,0,0-6.74-6,18.66,18.66,0,0,0-7.1-.32,19.62,19.62,0,0,0-5.84,2.49,15.59,15.59,0,0,0-4.3,10.59A8.48,8.48,0,0,0,729.16,199.33Z"/></g><g id="_66d8b6d6-8e65-4456-a965-cc0a674492b7-child-28" data-name="66d8b6d6-8e65-4456-a965-cc0a674492b7-child-28"><path class="cls-1" d="M642.86,43.3a13.12,13.12,0,0,0,2.9-4.88,14.62,14.62,0,0,0,0-4.85,6.7,6.7,0,0,0-2.58-2.21c-2.85,0-7.6-2.18-8.55,2.21-.73,3.17-3.22,6.16-2.27,9.73A57.54,57.54,0,0,0,642.86,43.3Z"/></g><g id="_66d8b6d6-8e65-4456-a965-cc0a674492b7-child-29" data-name="66d8b6d6-8e65-4456-a965-cc0a674492b7-child-29"><path class="cls-1" d="M650.24,343.47c1,0,4.52-3.72,5.29-4.89a48.14,48.14,0,0,0,3.62-8.1,12.57,12.57,0,0,0,0-4.89,7.65,7.65,0,0,0-4.21-3.85,12.77,12.77,0,0,0-6.38,0L632.36,338c-.63.59,0,4.52,0,5.7Z"/></g><g id="_66d8b6d6-8e65-4456-a965-cc0a674492b7-child-30" data-name="66d8b6d6-8e65-4456-a965-cc0a674492b7-child-30"><path class="cls-1" d="M601.41,241a7.8,7.8,0,0,0,4.07-4.17,21.77,21.77,0,0,0,0-5.47c-2.44,0-5.52-1-7.37,1a15.89,15.89,0,0,0-2.4,2.9,38.73,38.73,0,0,0,0,5.7A30.15,30.15,0,0,0,601.41,241Z"/></g><g id="_66d8b6d6-8e65-4456-a965-cc0a674492b7-child-31" data-name="66d8b6d6-8e65-4456-a965-cc0a674492b7-child-31"><path class="cls-1" d="M690.92,311.52a50.25,50.25,0,0,0,0,8.32,7.16,7.16,0,0,0,4.16,4.12,38.43,38.43,0,0,0,7.88,0c0-2.44,1.45-6.52-1.18-7.69Z"/></g><g id="_66d8b6d6-8e65-4456-a965-cc0a674492b7-child-32" data-name="66d8b6d6-8e65-4456-a965-cc0a674492b7-child-32"><path class="cls-1" d="M732.24,254.59a5.75,5.75,0,0,0-2,2.71c0,1.81-2.21,7,2.13,5.93s4-4.52,3.44-7.51C735.45,254.05,733.5,254.14,732.24,254.59Z"/></g><g id="_66d8b6d6-8e65-4456-a965-cc0a674492b7-child-33" data-name="66d8b6d6-8e65-4456-a965-cc0a674492b7-child-33"><path class="cls-1" d="M692.59,277.58H704c1,0,4.53-3.67,5.25-4.89a11.21,11.21,0,0,0,0-4.89c-.4-.86-2.8-3.75-4-3.93-2.58-.5-5.29,1.85-8.51,1.9a13.25,13.25,0,0,0-8.1,3.93,7.88,7.88,0,0,0,0,3.8C689.16,275.36,691.1,277.58,692.59,277.58Z"/></g><g id="_66d8b6d6-8e65-4456-a965-cc0a674492b7-child-34" data-name="66d8b6d6-8e65-4456-a965-cc0a674492b7-child-34"><path class="cls-1" d="M1035.11,852.92c-.45-1,.46-4.52,0-5.38l-11.4-11.14c-.36-.36-3.44.41-4.16,0-2.27-1.26-3.62-4.11-6.38-4.88l-2.49,2.44a55.25,55.25,0,0,1,2.49,5.7,54.55,54.55,0,0,1,0,6.52,30.26,30.26,0,0,0-5.71,0,5.79,5.79,0,0,0-3.89,4.52c0,13.22,2.08,24.85,2.63,38,0,1.59,5.43,6.25,7,7.65,4.07,3.48,10.45,3.57,16.52-2.13,6.24-2.31,15.61-6.83,17.47-17a19,19,0,0,0,0-4.52A96.43,96.43,0,0,1,1035.11,852.92Z"/></g><g id="_66d8b6d6-8e65-4456-a965-cc0a674492b7-child-35" data-name="66d8b6d6-8e65-4456-a965-cc0a674492b7-child-35"><path class="cls-1" d="M1139.92,526.51V531c2.85,0,8.46.9,10-.86a28,28,0,0,0-4.52-3.89A24.79,24.79,0,0,0,1139.92,526.51Z"/></g><g id="_66d8b6d6-8e65-4456-a965-cc0a674492b7-child-36" data-name="66d8b6d6-8e65-4456-a965-cc0a674492b7-child-36"><path class="cls-1" d="M1152.14,768.07v11.86l11.31,19.86c.86,0,3.62.41,4.16,0a17.34,17.34,0,0,0,4.08-8.28,37.17,37.17,0,0,0,0-6.33,50.9,50.9,0,0,1-8.19,0c-1.86-.5-4-2.67-4-4.17V768.07Z"/></g><g id="_66d8b6d6-8e65-4456-a965-cc0a674492b7-child-37" data-name="66d8b6d6-8e65-4456-a965-cc0a674492b7-child-37"><path class="cls-1" d="M1297.31,826.67a7.63,7.63,0,0,0-1.13,4.85h7.1a7.63,7.63,0,0,0-1.13-4.85,3,3,0,0,0-4.84,0Z"/></g><g id="_66d8b6d6-8e65-4456-a965-cc0a674492b7-child-38" data-name="66d8b6d6-8e65-4456-a965-cc0a674492b7-child-38"><path class="cls-1" d="M1296.13,767.26c-.68-1.27-4.52-4.53-4.52-5.16-.68-4.53-1.81-8.46-2.18-13.58a6,6,0,0,0-9-5.38,47.91,47.91,0,0,1-6.51,9.91c-1,.9-3.62-2-4.53-4a14.64,14.64,0,0,1,0-6.25c.54-1.31,4.53-4.52,4.89-5.7a41.1,41.1,0,0,0,0-8.15,24.35,24.35,0,0,0-5.66,0c-1.4.59-4.52,4.53-5.7,4.89a24.8,24.8,0,0,1-5.84,0c-.31,3.12,2.18,5.75,2.18,8.51s-2,6.15-2.27,9.64a50.65,50.65,0,0,1,14.39,8.51c.77.81,7.11-.5,8.69,0,2.72,1.13,4.53,4.2,6.25,6.69.36.55,0,3.17,0,3.89a7.28,7.28,0,0,0,2.39,2.86,11.21,11.21,0,0,0,4.89,0,8.34,8.34,0,0,0,2.49-2.86A9.93,9.93,0,0,0,1296.13,767.26Z"/></g><g id="_66d8b6d6-8e65-4456-a965-cc0a674492b7-child-39" data-name="66d8b6d6-8e65-4456-a965-cc0a674492b7-child-39"><path class="cls-1" d="M1205.85,854.46l-2.49-13.17c-1.63,0-7.28.91-8.32,0-3.08-2.62-5.48-6.29-8.56-9.46-1.35-1.4,1.32-4.93,2.27-7.55l-2.45-2.54a44.68,44.68,0,0,1-5.7,2.45c-1.45.31-5.88,0-7.28,0l-14.49,2.44c-2,.32-3.66,2.71-4.52,5.57,4.84,3.25,11.22,5.47,14.8,10.31l9.73,5.3c0,1.31,1,6.33,0,7.28-5.75,5.16-13.58,9-18.74,15.39-.36.45-3.48-.32-4.21,0a11.66,11.66,0,0,0-5.74,6.38,19.87,19.87,0,0,0,5.61,18.1h11.76c1.72,0,3.35,2.45,4.12,4.16a40.2,40.2,0,0,1,0,8.06,26.82,26.82,0,0,0,8.1,0,110.14,110.14,0,0,0,19.69-21.77c.63-.81,4,0,4.75,0A9.77,9.77,0,0,0,1207,883l6.11-13a24.69,24.69,0,0,0,0-9.69C1212.1,857,1206.21,856.32,1205.85,854.46Z"/></g><g id="_66d8b6d6-8e65-4456-a965-cc0a674492b7-child-40" data-name="66d8b6d6-8e65-4456-a965-cc0a674492b7-child-40"><path class="cls-1" d="M1144.9,762a11.21,11.21,0,0,0-4.89,0,20.72,20.72,0,0,0-5.66,6.06c-.54,1.95-1.4,5.34,0,5.66a11.93,11.93,0,0,0,12.81-5,9.49,9.49,0,0,0,0-3.9A8.5,8.5,0,0,0,1144.9,762Z"/></g><g id="_66d8b6d6-8e65-4456-a965-cc0a674492b7-child-41" data-name="66d8b6d6-8e65-4456-a965-cc0a674492b7-child-41"><path class="cls-1" d="M1102.81,785.54c-.27-2-2.49-3.57-4.52-1.54s-4.53,3.62-5.16,6.07a31.11,31.11,0,0,0,5.79,0C1101.09,789.07,1103.08,787.3,1102.81,785.54Z"/></g><g id="_66d8b6d6-8e65-4456-a965-cc0a674492b7-child-42" data-name="66d8b6d6-8e65-4456-a965-cc0a674492b7-child-42"><path class="cls-1" d="M1137.48,698.07a13.79,13.79,0,0,0,0-3.85c-2.36-1.22-4.53-4.16-6.7-2.85-3,1.94-7,4.52-6.7,8,0,.9,2.17,2.62,2.85,2.8a19,19,0,0,0,6.47,0A7.88,7.88,0,0,0,1137.48,698.07Z"/></g><g id="_66d8b6d6-8e65-4456-a965-cc0a674492b7-child-43" data-name="66d8b6d6-8e65-4456-a965-cc0a674492b7-child-43"><path class="cls-1" d="M1104.17,887.68a21.85,21.85,0,0,0-5.48,0v9.91a13.69,13.69,0,0,0,9.37-5.34C1108.69,891.25,1106,888.63,1104.17,887.68Z"/></g><g id="_66d8b6d6-8e65-4456-a965-cc0a674492b7-child-44" data-name="66d8b6d6-8e65-4456-a965-cc0a674492b7-child-44"><path class="cls-1" d="M1412.88,632.86a8.09,8.09,0,0,0-4.52-.23,17.67,17.67,0,0,0-4.53,5.39,16.16,16.16,0,0,0-.22,6.42,7.2,7.2,0,0,0,2.4,2.85,9.78,9.78,0,0,0,5.15,0c2.58-2.08,3-6.47,4.53-9.77C1416.64,635.3,1414.33,633.76,1412.88,632.86Z"/></g><g id="_66d8b6d6-8e65-4456-a965-cc0a674492b7-child-45" data-name="66d8b6d6-8e65-4456-a965-cc0a674492b7-child-45"><path class="cls-1" d="M1884,297.94c1.63,1.9,3.17,3.8,4.89,3.49a3.16,3.16,0,0,0,2.26-1.5,3.21,3.21,0,0,0,.36-2.71C1889,297.26,1885,296.54,1884,297.94Z"/></g><g id="_66d8b6d6-8e65-4456-a965-cc0a674492b7-child-46" data-name="66d8b6d6-8e65-4456-a965-cc0a674492b7-child-46"><path class="cls-1" d="M2125,297.08h-25.25l-12.13-5.16L1933,302.1V288.85c0-2,4.3-3.9,5.21-6.39H1915.1L1892.47,287l-57,7.6a129.72,129.72,0,0,1-25.61-4.75c-13.57,2.35-22.62,10.27-35.34,12.31h-31l-11.86-4.89a13.41,13.41,0,0,1-11.76,0,723.8,723.8,0,0,0-76,5c-12.21-1.22-23.66-3.71-35.43-4.53-16.92-1-32.4,1.18-48.78,1.91a238.74,238.74,0,0,1-35-2.58,26.61,26.61,0,0,1,18.1-4.85,46.17,46.17,0,0,0-11.17-5c-32.27,3-61.28,9.91-91.19,14.89-2,.32-5.07-2.63-3.17-5a16.11,16.11,0,0,1,8.83-4.53L1497.87,280l22-2.44a22.12,22.12,0,0,0,5.66-2.54c1.49-1,3.26-2.58,2.35-4.88a33.42,33.42,0,0,0-11.72,2.53H1499.5l-20.32,3.8a159.26,159.26,0,0,0-54.58,13.35c-34,8.64-70.86,14.57-105.71,22h-11.4a161,161,0,0,0-21.09,4.53c-1.85.45-8.41-3.26-10.68-2.44a153.21,153.21,0,0,1-17.19,7c-17,4.12-32.54,9.05-49.46,12.81-13.08.27-24.53,2.08-37.34,2.67a6.39,6.39,0,0,1,5.21-7.7,94.65,94.65,0,0,0,34-9.46c21.27-2.53,38.65-8.23,57.56-12.39,1.36-.32,6.2.63,7.42,0a94.93,94.93,0,0,1,33.08-9.33l12.4-5.29c10.18-1.27,19.69-3.17,29.6-5a36.79,36.79,0,0,1,11.13-8.78v-5.93l-124.54,20.82c-23.44,4.53-45.25,11.31-71.59,13.58-16.56,4.66-34.66,7.06-52.76,11.17a114.68,114.68,0,0,0-26.84,12.09C1052.54,340.57,1013,345,977.23,352.83c-6.33,1.41-11-1.08-16.65-2.49-2.17-.54-4.21-3.57-5.75-6.2-.54-.9.32-5.92-.31-6.33a24.27,24.27,0,0,0-10.5-3.62c-2.35,0-4.8,3.71-6.2,6.38-.72,1.31.54,7.51-.36,9.05a17,17,0,0,1-10.73,5.84A380,380,0,0,1,873.15,366c-1.13,0-4.52,4.25-5.52,4.52-2.71.59-7.28.68-8.55-.86a60.34,60.34,0,0,1,6.24-5.84c9.06-2.26,15.16-6.83,23.76-9.36a23.55,23.55,0,0,0,17-5.84,47,47,0,0,0-13.57-7.29,61.41,61.41,0,0,0-23.63,7.06h-14.3v-8c-7.91,2.89-16.33,5.47-23.89,7.78-20.54-3.8-43.8-4.52-64.89-7.51-2.49-.36-4.53-3.8-6.2-6.29a7.47,7.47,0,0,1,0-4,27.1,27.1,0,0,0,7.24-12.63c1-2.62-2-5.07-4.12-5.43-11.13-2-21.63,0-26.88,6.56a10.67,10.67,0,0,1-6.33,0,11.1,11.1,0,0,1-3.81-8.41,75.2,75.2,0,0,0-.81-14.3c-1.86,2-7.33,6.42-7,7.55a75.23,75.23,0,0,1,2.62,14.12l4.53,11a71.33,71.33,0,0,1-3,27.42,79.48,79.48,0,0,0,19.1,11.63,24.89,24.89,0,0,0,14.57-7.24,72.23,72.23,0,0,1,13.94-2.17,8.5,8.5,0,0,1,6.56,6.15v11.18c0,1.77-2.58,3.58-4.12,3.76-17.78,2-34.48,5.52-52,7.33a57.56,57.56,0,0,1-15.29,0l10.41-10.86a12.43,12.43,0,0,0,0-6.52,15.67,15.67,0,0,0-4.71-5.2c-2.67-.77-6.06,1.17-8.28.72a72.9,72.9,0,0,1-23.4-8,10.6,10.6,0,0,0-5.07,0,74.86,74.86,0,0,0-9.77,4.89c-1.4,1-5.07,5.2-5.75,5.43-8.55,2.71-15.43,6-24.39,8a7.78,7.78,0,0,1-6.24-2.72c-5.16-6.6-11.72-11.94-15.75-19.23h-9.05v-6a23,23,0,0,1-9.87-8.46,18.71,18.71,0,0,0-10.18-19.46,8.65,8.65,0,0,0-9.05,4.53,64.45,64.45,0,0,0-4.53,20.18,17.3,17.3,0,0,1-12.94,6.74c-1.63,0-5.29,5-6.74,6a66,66,0,0,1-9.77,4.88,12.57,12.57,0,0,1-4.89,0,7.34,7.34,0,0,1-2.45-2.8V342.47c-2.62-3.12-6-5.79-9.27-9.05a100.17,100.17,0,0,1-13.58,2.94,136.84,136.84,0,0,0-12.94-21,16.42,16.42,0,0,0-12-9.95,52.88,52.88,0,0,1-14.62,1.4l-11.54,4.93a29.85,29.85,0,0,1-9.05,0c-1.72,0-6.83-2.4-9.5-2.71s-4.53,5.16-6.61,5.16H421.94c-3.94-4.08-9.05-5.93-12.81-10.37-1-1.17,1.68-5.7.95-9.05h-5.66c-1.44,2.63-2.62,6.66-5.7,7-12.49,1.18-26.83,2.08-40.72,2.85,6.83,4.53,12.48,8,18.1,12.09a72.59,72.59,0,0,1,18.1,7.51A45.57,45.57,0,0,1,414.52,327l10.77,11.18c-.5,3.62-2.36,7.42-2.58,11.53a24,24,0,0,0,3.93,11.14,18.84,18.84,0,0,0,4.94,4.52,9.84,9.84,0,0,0,5.11,0,11.43,11.43,0,0,1,12.63,1.41c4,6.29,9.41,10.9,12.44,18.1L459,387.59a79.68,79.68,0,0,1-11-10c-.68-.63-4.52,0-5.79,0v16.29a112.63,112.63,0,0,1,4.53,13.58c.4,2.12-3.85,4.52-6.34,6.47a7.14,7.14,0,0,1-3.12,0l-24.57-7.38c-14.71-.31-28.47-1.9-42.41-2.62l-16.92,8a59.55,59.55,0,0,1-20.32-2.76,106.26,106.26,0,0,1-18.1-8.41c-1-.5-3.62-4.17-4.8-4.53l-12.94-6.47a9.17,9.17,0,0,0-4.93,0c-.82.5-3.44,4-3.21,5.57.54,4.11,4.52,8.59,4.52,14.25a161.2,161.2,0,0,1-43.71-10.09H233.78c-1.68,0-6.57,7.33-8.15,7.33H199.11a189.52,189.52,0,0,0-28.24-9.73H145c-12.72-1.27-24.26-5.25-36.61-7a258.91,258.91,0,0,0-27.65-3.08,24.8,24.8,0,0,0,0,5.84,18.2,18.2,0,0,0,13.57,4.53,21.54,21.54,0,0,1,8.28,3.57c1.13.77,2.85,1.9,2.58,3.71-2.58,0-6.69-.68-7.78.86a22,22,0,0,0,11.18,5.79,322.35,322.35,0,0,0,37.65,6.75c8.37-3.94,19.5-4,28.51-6.25,2.39-.54,3.66,1.22,4.52,2.67a9.64,9.64,0,0,1,0,4.53c0,.59-2.26,1.85-2.44,2.44a9.87,9.87,0,0,0,0,4.89l10,9.64,19,5.11c.81,0,2.89,3.4,4.52,4l80,31.36c1.86.73,4.53,1.59,5.43,4L274,476.06c-1.95-.41-2.72,3.66-1.5,4.52A63.16,63.16,0,0,1,289,494.75a57,57,0,0,1,5.16,9.77,10.91,10.91,0,0,1,0,4.89,7.83,7.83,0,0,1-2.85,2.44c-1.22.32-5.25-.32-6.47,0a8.3,8.3,0,0,0-2.89,2.44,10.81,10.81,0,0,0,0,5.12,22.17,22.17,0,0,0,9.54,4.52,16.28,16.28,0,0,0,5.57,0,45,45,0,0,0,8.1-3.66A22,22,0,0,0,310,515c.54-1.58-.46-7.28,0-9.05s2.67-2.76,5-4.84c8.78,3.26,15.8,9.59,25.17,12.9.86.31,4.07-.36,4.84,0,1.85,1,6.33,7.24,8.28,7.46a20.34,20.34,0,0,1,11.13,4.85c2.4,2.08-.68,6.38-1.09,9.64h14.21l11.63,5.2a19.38,19.38,0,0,1,16.11,6.38,7.36,7.36,0,0,1,0,4.21,8.48,8.48,0,0,1-4.25,3.89c-.54.32-3.17,0-3.85,0a8.29,8.29,0,0,0-4.11,4.12,26.7,26.7,0,0,0,0,6.06c9.68-.63,18.1-3,28.1-2.85A27,27,0,0,1,430,566.7a7.63,7.63,0,0,1,3.3,6.74c-.5,2.85-3.62,6.7-2.22,11.45,2.45,8.42,7.11,15.7,8.78,25.25.32,1.72,6.07,6.2,7,8.1.59,1.18-.54,6.06,0,7.38a62,62,0,0,0,8.6,16.33c1.22,1.41-.95,4.53-2.58,6.34l-13.58,14,2.58,11.22a18.42,18.42,0,0,0,5.07,5.47,99.09,99.09,0,0,1,9.78,4.89l17.06,17.52c.4.4-.46,3.62,0,4.16a86.59,86.59,0,0,1,6.38,8.69c.72,1.13,1.72,2.94,3.35,2.67V700.56a54.79,54.79,0,0,0-3.76-8,24.37,24.37,0,0,1,0-4.52c.54-1.77,2.44-1.5,3.62-1.23a18.53,18.53,0,0,1,10,8.06,91,91,0,0,0,2.58,15.7c.45,1.86,6,6.34,7.05,8.19.37.59-.4,3.62,0,4.07l8.56,9.06a21.72,21.72,0,0,1,3.66,8.14v12.22c0,2,5.34,2.94,8.33,3.89,1.18.36,5.88-.36,7.1,0s5,5.21,6.52,6.11l24.53,14.39c11.9,6.06,24.71,10.86,37,15.79a25.61,25.61,0,0,1,15.75,7.61h14.07l11-10.82c1-1.09,5.25-1.09,5.89.91s0,8.1.36,9.91a7,7,0,0,0,2.8,2.44,112.49,112.49,0,0,1,17.47,4.93c2.13.77,4.53-3.3,6.92-4.52a7.9,7.9,0,0,1,4.12-.23c1.27.68,4.53,4.25,5.7,4.89s3.4-.32,4,0c1.36.63,4.53,4.21,5.7,4.89a9.24,9.24,0,0,0,4.12,0c1.27-.68,4.53-5.39,6.07-5.25A154.6,154.6,0,0,0,723,809.93c2.13,0,3.71-2.35,4.52-4.07a33.54,33.54,0,0,0,0-8h7.34V784.68c4.52-2.81,9.77-4.93,14.7-7.47,2.58-1.35,4.89,1.63,7.24,2.85a32.91,32.91,0,0,1,0,7.29,86.59,86.59,0,0,1-5.11,10.91l-9.5,6.2c.63,2.44,2.53,5,4.52,4.88a116.66,116.66,0,0,1,30.41,2.08l-9.05-9c-.54-.49,0-3.89,0-5.43a22.77,22.77,0,0,0,10.82-9.05,59.86,59.86,0,0,0,0-6.83,14.33,14.33,0,0,1,2.62-6.24,36,36,0,0,0,9.5-8.65c.28-.41,0-3.12,0-3.8a8.7,8.7,0,0,1,2.4-2.85,11.21,11.21,0,0,1,4.89,0,7.38,7.38,0,0,1,2.44,2.85c.32,1.18-.22,5.3,0,5.57,4.12,6.29,9,12,17.65,12.49,1.95,0,6.52,6,8.37,7.15.59.31,3.85-.46,4.17,0a28,28,0,0,0,12.71,7.28c.37,0,3.71-.54,4.53,0a32.79,32.79,0,0,0,9,6c2.8,1,4.89-1.67,7.24-2.9v-12.3c0-2.4-2.94-4.89-2.49-8.1a35.47,35.47,0,0,1,15.48,5.29c4.25-.54,8.28-1.81,12.58-2.71a22.09,22.09,0,0,0,6.06-11,14.14,14.14,0,0,0,0-7,54,54,0,0,1-11.49-13.57H868.18c-3.13-2.67-5.8-6-8.78-9.05-1-1,0-8.42,0-10.73-10,0-18.1,2.31-27.16,2.72-1.17,0-3.48-3.53-4.75-4a16,16,0,0,1-9.55-8.24l2.54-2.44,15.88,7.51a21.69,21.69,0,0,0,13.58-6.38c1-1.17,0-7.46,0-9.27l7.33-4.53v20.14h20.36c2.08,0,3.08-5.61,3.62-8.74a35.89,35.89,0,0,0-2.08-7.15,5.53,5.53,0,0,1,4.53-6.11H907c.55,0,2-4.16,3.31-5.65s6.6-2,8-5.66c.27-.81-.23-3.48,0-4.12.63-1.31,4.21-4.52,4.84-5.7a25.52,25.52,0,0,0,0-3.71c1.09-1.85,3.22-4.93,5.07-3.08l9.59,9.64A27,27,0,0,0,948,689.06c4.52.32,8-4.52,9-8.78l-11.9,3.94A42.13,42.13,0,0,1,940,678.7a15.57,15.57,0,0,1,0-6.52,22.56,22.56,0,0,1,4.88-5.29,43.6,43.6,0,0,1,8.15-3.67,54.55,54.55,0,0,1,6.52,0c0,1.81.22,7.2,0,9-.73,2.76-1.59,5.43-2.58,8.1l10.72-4.84c1.18-.54,5.93.41,7.29,0a6.3,6.3,0,0,0,3.84-4.16,238.46,238.46,0,0,0,5.07-26.7c-2.85-5.88-3.62-17.2,1.36-22.63a43,43,0,0,0,4.53-4.93,11.21,11.21,0,0,0,0-4.89c-.46-1.67-3.26-6.42-3.67-8.14s.27-7.2,0-9.05a65.11,65.11,0,0,1-2.35-8.29c.68-3.3,1.44-7.42,4.84-9,12.53-5.2,28.51-7.1,41.31-11.49a68.27,68.27,0,0,0,8.6-15,29.55,29.55,0,0,1,6.2-6.38,23.21,23.21,0,0,1,8.28-3.72,59.17,59.17,0,0,0,15.53-1.49,46.72,46.72,0,0,0,13.57,7.83,17.12,17.12,0,0,0,10.73-6.15c.45-.55,3.39,0,4.11,0a7.92,7.92,0,0,0,2.67-2.54c.37-1.36-.72-6.29,0-7.24a23.45,23.45,0,0,1,12.4-7.38h13.58l28.87-9.77h13.58a23.26,23.26,0,0,1,8.46-9.87,39.5,39.5,0,0,0,13.08-4.52,465.79,465.79,0,0,0,59.14-14.48c1.63-.5,7.06,2.71,9.41,2.44a103.16,103.16,0,0,0,52.23-18.42c24.84-7.78,50.63-13.57,73.94-22,21-5,41.09-10.68,63.35-15.29,64.58-13.31,128.25-30.1,199.52-36.79a261.55,261.55,0,0,1,52.54,2.44,27,27,0,0,1,12.49-7.65l16.29-1.31c23.08-4.93,47.25-9.32,71.55-13.58,41.58-3.48,80.32-10,123.13-12.44a19.44,19.44,0,0,0,5.34-2.35c1.54-1,3.3-2.58,2.26-5.07-54.71,6-111.59,10.22-168.11,15.16a123.59,123.59,0,0,0-29,4.52c-1.72.59-4.53-2.71-5.34-4.93l14-2.53c3-.59,6.93-1.72,7.61-4.94.4-1.81-1.86-3.26-2.85-4.84a8.63,8.63,0,0,1-.28-4.8,7.78,7.78,0,0,1,2.81-2.44c1.4-.32,6.11.5,7.38,0l11.35-4.89c57.84-10.22,119.11-16.33,179.75-23.21,62.63-4.16,122.18-10.5,181.46-18.1.91,0,3.22-2.94,4.08-3.67A42.24,42.24,0,0,0,2125,297.08ZM295.41,429.54c-1,1.63-2.13,4.2-3.94,4.2H270.34c-1.13,0-4.52-4.52-5.84-4.52a54.6,54.6,0,0,0-12.67,2.31c-1.9.49-8-2.49-10-2.49s-7.83,2.35-9.59,2c-3.17-.58-5.7-3.48-8.65-4.52-1.4-.5-6.78,2.26-8.55,2.44a39.18,39.18,0,0,1-10.32-.27,7,7,0,0,1-4.52-5,62.59,62.59,0,0,0,11.49-9.54,114.18,114.18,0,0,0,32-2.4c12.9,2,25.25,4.16,38.65,5a28.2,28.2,0,0,1,8.14,3.67,25.58,25.58,0,0,1,5.07,5.11A8.88,8.88,0,0,1,295.41,429.54ZM314,435.87a21.54,21.54,0,0,1-9-4.07,6,6,0,0,1-1.81-5.34c1.09,0,5.07-.59,5.66,0l9.05,8.78C318.76,436.14,315.05,436.14,314,435.87Zm56.34-19a5.06,5.06,0,0,1,5.8-2.58L388.22,418l25.48,12.76c2.63,1.36,4.53,6.79,5.57,10a28,28,0,0,1-3.31,2.85,14.8,14.8,0,0,1-4.88,0,34.12,34.12,0,0,1-8.33-3.67l-13.58-13.57a49.3,49.3,0,0,1-18.1-6.16A2.66,2.66,0,0,1,370.3,416.87ZM363.74,498c-1,1.63-2.22,4.12-4.12,4.08a51.48,51.48,0,0,1-13.57-2.54c-2.76-2.12-6.88-4.79-6.83-9.46l13.57-2.58a22.94,22.94,0,0,1,11.27,6.39A7.06,7.06,0,0,1,363.74,498Zm45.71-15.43a30.89,30.89,0,0,1-8.15,0,44.13,44.13,0,0,1-8.14-3.66c-1.45-1-4.94-5.52-6.47-6.11s-8.2.77-9.78,0l-13-6.11-10.05-10c-1.76-1.77-5.84-2-7-5.16a29.73,29.73,0,0,1,0-5.66,123.35,123.35,0,0,1,16.24,2.58h34.21l13.58,6.43a175.47,175.47,0,0,1,10.45,15.38c0,7.38-6,10.46-11.85,12.18Zm39.87-51.13h-9.78a38.19,38.19,0,0,1,0-5.66,7.38,7.38,0,0,1,2.44-2.85,12.57,12.57,0,0,1,4.89,0,7.49,7.49,0,0,1,2.45,2.85,39.11,39.11,0,0,1,0,5.52Zm43.89-40.73a28.76,28.76,0,0,1-7.42,7.42c-2.63,1.27-5.88-1-7.15-3.35l-6.16-12.22-9.68-9.77-12.35-19.6L442,344.14a7.13,7.13,0,0,1,0-4.52c2.4-4.21,8.74-4.84,14.53-6.11,1.9-.45,7.87-.77,9.73-1.31l13.17-3.58a22.63,22.63,0,0,1,11.45,6.47,74.93,74.93,0,0,1-5.21,22.63,58.81,58.81,0,0,1-1.49,16.88c1.95,4.52,6.29,6.06,9,9a11.52,11.52,0,0,1,.05,7Zm66,367.54c-1.35-1.17-3.39-2.53-2.44-4.52a57,57,0,0,1,10.45,0,52.32,52.32,0,0,1,7.15,6.65,18.48,18.48,0,0,1-15.16-2.22Zm94-375.6a15.82,15.82,0,0,1,4.93-4.84,14.54,14.54,0,0,1,13.17,4.53,14,14,0,0,1-14.71,8.55,10.51,10.51,0,0,1-3.57-3.57,9.77,9.77,0,0,1,.18-4.71ZM633.54,780.29c-.77.77-4.89,0-6.06,0a50.66,50.66,0,0,1,0-6.52,51.45,51.45,0,0,1,2.35-5.83c1.36-3.31,5.75-2.4,10-2A21.33,21.33,0,0,1,633.54,780.29Zm23.26-2.44a30.15,30.15,0,0,1-5.7,0,13.57,13.57,0,0,1-2.81-2.49,5.81,5.81,0,0,1-1.17-4.84,32.24,32.24,0,0,1,5.2,0,7,7,0,0,1,4.43,7.33Zm24.75,19.73a47.29,47.29,0,0,1-10.27-4,33.66,33.66,0,0,1-4-4c1-3.08,4.21-5.89,5.43-9.05a2.78,2.78,0,0,1,1.49-1.27,2.65,2.65,0,0,1,1.95.23,60.23,60.23,0,0,1,10.9,5.43,12.1,12.1,0,0,1-5.56,12.67ZM835,697.75c0,2.81-4.3,5.07-7.33,4.52V686.84c0-.58,1.9-2.3,2.49-2.76a5.66,5.66,0,0,1,4.84-1.22Zm53.85-37.24a13.12,13.12,0,0,1-9.77-9.78,30.07,30.07,0,0,1,2.39-2.4,32.46,32.46,0,0,1,9.78,9.78,29.75,29.75,0,0,1-2.44,2.4Zm49.28,2.62a7.32,7.32,0,0,1-3.94,0,42.13,42.13,0,0,1-4.84-4.52,68.34,68.34,0,0,1,13.26-.5,9.27,9.27,0,0,1-4.52,5Zm4.53-34.62a27.27,27.27,0,0,1-5.39,5.34,6.85,6.85,0,0,1,.54,7.56c-.63,1.72-5.38,1.9-6.65,0a11.15,11.15,0,0,1,0-5.2c0-.59,2.31-2,2.31-2.4a40.82,40.82,0,0,0-1.18-12.22,67.51,67.51,0,0,1-10.45,0c-.95-.27-3.26-2.94-4.07-3.67,1-.49,3.89-2.08,4.88-2.39A77.46,77.46,0,0,1,937.68,612c1.63,0,3.62,2.08,4.26,4a18.14,18.14,0,0,1,.81,12.53Zm2-165.49a151.35,151.35,0,0,1-22.09,7.15,136.31,136.31,0,0,1-27.78,2.58,55.77,55.77,0,0,0-8.73,3.76L827.45,491c-15,3-30.05,4.53-46.39,6.2L764,502c-53.58,10.68-112.73,15.07-164.77,26.43a7.16,7.16,0,0,1-7.92-4.53,4.54,4.54,0,0,1,3.67-4.79h27.47a571.36,571.36,0,0,1,94.17-14.53l11.58-5,28.47-2.44,17.1-4.84,17.11-1.09c44.71-9.64,90-20.82,137.43-28.19h16.34a18.69,18.69,0,0,1,12.76-2.13c-.68,3.49-9.1,1.63-12.63,2.08Zm73.17,87.88v-7.24c2.22-.9,3.71,1,4.53,2.49s2.67,2.94,3,4.53Zm70.82-33a2.1,2.1,0,0,1-1.36-1.45,2.25,2.25,0,0,1,.32-2,33.33,33.33,0,0,1,8.24-7.51v8c-2.17,1.17-4.26,3.89-7.06,2.94Zm14.62-160.15a55.4,55.4,0,0,1-10.45,5.07h-13a164.52,164.52,0,0,1-30.23,9.59,115.9,115.9,0,0,0-39,9.05c-32.81,5.12-64.66,11.27-96,19.05a11,11,0,0,1,10.5-6.56,59.09,59.09,0,0,1,23.49-9.05l11.54-4.52L1069.19,357a3.53,3.53,0,0,0,3.62,1.22,58.41,58.41,0,0,1,8.55-2.31c9.46.5,16-2.26,24.12-2.94C1106.57,355.41,1104.76,357,1103.22,357.72ZM1137.88,499a51.47,51.47,0,0,0-9.82,2l-2.8-2.76a64.69,64.69,0,0,1,8.14-3.67,75.9,75.9,0,0,1,9,0,7,7,0,0,1-4.57,4.57Zm15-158.16c-1.72.72-8.51-.54-10.45,0l-17.15,4.89h-15.39l-14.75-2.26c-.95,0-3.4-2.81-4.12-3.67a6.22,6.22,0,0,1,0-1.22l12.22-2.45,11.67,2.49a130.24,130.24,0,0,1,24.08-2.26c6,2.63,11.18-.54,18.37-.63a8.57,8.57,0,0,1-4.48,5.29Zm20.59,146.21a16.69,16.69,0,0,1-16.61,4.53,18.29,18.29,0,0,1,10-7.79c2.86-.49,8.42,1.27,6.61,3.44ZM1277.26,465a148.84,148.84,0,0,1-41,9.95L1224.41,480a173.22,173.22,0,0,0-38.38,7.74c-.77,0-3.17-2.35-3.44-3.26-.9-3,3.08-5.56,5.52-6.42a39.29,39.29,0,0,1,17.38-2.9l17.42-5c1.63-.45,7.42.68,9,0l11.36-4.88,16.25-3.67a133.83,133.83,0,0,1,21.9-3.89,6.45,6.45,0,0,1-4.21,7.42Zm26.11-8.28a35.78,35.78,0,0,1-8.1,3.71,62.13,62.13,0,0,1-9,0c-.86-2.17,1-3.76,2.44-4.53a17.49,17.49,0,0,1,5.66-2.53h11.5c.4,1.63-1.32,2.71-2.54,3.53Zm34.89-8.46a54.74,54.74,0,0,1-10.86,0,18,18,0,0,1,8.78-4.53,40.52,40.52,0,0,1,6.61,0A8,8,0,0,1,1338.26,448.23ZM1474,362.61c-11.49,1.58-23.71,1.94-33.67,4.25-1.4-1.54-3.3-2.35-3-4,11.81-2.71,24.44-4.16,36.7-6.2,2.72-.45,5.48-2,8.19-1.13a37.17,37.17,0,0,1,4.53,4.26,56.65,56.65,0,0,1-12.49,3Zm248.21-60.82a36.61,36.61,0,0,1,8.37,0,8.42,8.42,0,0,1-4.52,4.88,36.26,36.26,0,0,1-8.33,0,8.58,8.58,0,0,1,4.71-4.7ZM1666.8,336a99.41,99.41,0,0,0-12.72,2.67c-.86,0-3.66-3.08-4.52-3.94v-1.08a71.73,71.73,0,0,1,17.06-2.67Zm34.89-4.93a34.61,34.61,0,0,1-8,0v-4.71h12.44a8.35,8.35,0,0,1-4.21,4.89Zm11.72-23.13a28.52,28.52,0,0,1-4.89,0c.5-.5,1.86-2.26,2.44-2.44a28.52,28.52,0,0,1,4.89,0C1715.35,306.13,1714,307.94,1713.41,307.94Zm93.81,8.65a5.86,5.86,0,0,1-2.76,2.26c-32.22.5-60.42,5.65-88.34,10.41a5.71,5.71,0,0,1,2.18-6.61c1.81-1.22,7.82-3.94,9.77-4.93l-2.81-2.81,16.52,2.63a39.16,39.16,0,0,1,13.8-1,6.79,6.79,0,0,0,3-2.54c.32-.86-.23-4,0-4.52,1.13-1.45,2.58-3.85,4.53-2.76s5.83,4.07,7.46,4.52,4.53.68,3.8-.81-4.21-2.09-5.11-2.58c.81-.73,3.26-3.67,4.07-3.67h16.25a6.59,6.59,0,0,1,2.94,2.54,35.68,35.68,0,0,1-1.49,7.55c5.47,0,10.09-3.26,14.57-3.89,2.4-.14,1.9,4.21,1.63,6.29Zm10.63-2.86c-.36-3.71,5.34-1.72,8.33-1.81.36,3.85-5.34,1.86-8.33,1.95Zm-7.15-7.06a8.25,8.25,0,0,1,4.53-4.84,24.21,24.21,0,0,1,8.82,0,37,37,0,0,1,5.16,4.53c-5.52.72-13,.41-18.51.45Zm102.68-10.54a12,12,0,0,1-10.5,10.14c-21,1.9-39.82,5.79-65.62,5.43,6.11-3.8,14.76-3.94,20.1-4.84a29.73,29.73,0,0,1,0-5.66c1-2,2.89-4.25,4.84-3.62s4.16,4.75,7.15,5.47a10.91,10.91,0,0,0,4.89,0c1.22-.76,3.07-1.76,2.76-3.48h-7.7a8,8,0,0,1,4.53-4.53,72.75,72.75,0,0,1,10.32-1.53,118.26,118.26,0,0,1,29.32-3.67,60,60,0,0,1-.09,6.43Z"/></g><g id="_66d8b6d6-8e65-4456-a965-cc0a674492b7-child-47" data-name="66d8b6d6-8e65-4456-a965-cc0a674492b7-child-47"><path class="cls-1" d="M1413.56,615.3a112.44,112.44,0,0,0-7.74-35.07,3.77,3.77,0,0,0-4.79-2.4c0,1.18,0,2.35,0,3.53l4.79,24C1408.86,607.47,1410.49,612.31,1413.56,615.3Z"/></g><g id="_66d8b6d6-8e65-4456-a965-cc0a674492b7-child-48" data-name="66d8b6d6-8e65-4456-a965-cc0a674492b7-child-48"><path class="cls-1" d="M1321,746.26c-1.59-.81-3.53.5-5.34,1.18-6,2.21-11.86,5.74-12.49,13.3a25.91,25.91,0,0,0,6,0c1.31-.54,4.52-5,6-5.11a12.45,12.45,0,0,0,9.91-4.84C1325.91,749.52,1323.06,747.3,1321,746.26Z"/></g><g id="_66d8b6d6-8e65-4456-a965-cc0a674492b7-child-49" data-name="66d8b6d6-8e65-4456-a965-cc0a674492b7-child-49"><path class="cls-1" d="M1323.74,653.36l-11.41-4.85c-1.81-.76-8.6.55-10.45,0-3.4-1-8.33-2.35-8.78-4.52a11.39,11.39,0,0,1,4.84-12.31c1.18-.77,7.06.32,8.69-.23a17.49,17.49,0,0,0,5.29-4.88,10.73,10.73,0,0,0,0-4.85c-.27-.63-2.35-2.8-3.16-2.71a116.87,116.87,0,0,0-17.56,4c-10.09,2.58-17.88,8.32-26.88,12l-12.17,3.72h-15.48c-.59,0-2.53,3.84-2.81,4.88a11.21,11.21,0,0,0,0,4.89c1.09,1.72,6.16,7.51,7.92,7.51,11.86,0,22.18-2.58,33.26-2.94l12.09,5.2,17.06,2.4h26.47c2.81,0,5.07-4.25,4.52-7.33Z"/></g><g id="_66d8b6d6-8e65-4456-a965-cc0a674492b7-child-50" data-name="66d8b6d6-8e65-4456-a965-cc0a674492b7-child-50"><path class="cls-1" d="M1301.06,520.09a8,8,0,0,0,2.36-2.54,41,41,0,0,0,0-5.65,5.55,5.55,0,0,0-6.07,2.44,12.77,12.77,0,0,0,0,4.53C1297.9,520.63,1299.71,520.63,1301.06,520.09Z"/></g><g id="_66d8b6d6-8e65-4456-a965-cc0a674492b7-child-51" data-name="66d8b6d6-8e65-4456-a965-cc0a674492b7-child-51"><path class="cls-1" d="M55.16,309.53c-2-.41-5.74-.82-6.38.72a26.77,26.77,0,0,0,2.76,2.67,33,33,0,0,0,16.7,4.84c1.9,0,2.31-3,1.18-4C66,310.93,60.59,310.66,55.16,309.53Z"/></g><g id="_66d8b6d6-8e65-4456-a965-cc0a674492b7-child-52" data-name="66d8b6d6-8e65-4456-a965-cc0a674492b7-child-52"><path class="cls-1" d="M140.28,746.12a37.36,37.36,0,0,0-9.45,0,76.65,76.65,0,0,0-15.66,8.65l-10,10.23c-.59.58,0,4.52,0,5.7a20.82,20.82,0,0,0,3.35,0c8.19-2.9,16.93-4.53,23.31-9.05,4.52-3.26,11-5.34,11.26-12.76C143.13,748.12,140.83,746.22,140.28,746.12Z"/></g><g id="_66d8b6d6-8e65-4456-a965-cc0a674492b7-child-53" data-name="66d8b6d6-8e65-4456-a965-cc0a674492b7-child-53"><path class="cls-1" d="M0,341l13.58,2.44c2,.36,5.7.63,6.42-1a125.9,125.9,0,0,0-15.47-6.06C3.39,336,.5,338.94,0,341Z"/></g><g id="_66d8b6d6-8e65-4456-a965-cc0a674492b7-child-54" data-name="66d8b6d6-8e65-4456-a965-cc0a674492b7-child-54"><path class="cls-1" d="M58.83,287.35a29.21,29.21,0,0,0,0-5.61c-1.18-3.12-4.53-4.16-7.38-5.25a135.9,135.9,0,0,0-30.91-8.33,43.45,43.45,0,0,0-14.3.37l15.21,10,27.65,9.05A58.46,58.46,0,0,0,58.83,287.35Z"/></g><g id="_66d8b6d6-8e65-4456-a965-cc0a674492b7-child-55" data-name="66d8b6d6-8e65-4456-a965-cc0a674492b7-child-55"><path class="cls-1" d="M240.61,194.81a13.74,13.74,0,0,0,8.28-4.53,16,16,0,0,0,.41-8.5c-.32-.86-3.8-2.54-4.84-2.85a14.34,14.34,0,0,0-4.89,0,11.7,11.7,0,0,0-4.53,3,19.24,19.24,0,0,0-.49,8.37A6.19,6.19,0,0,0,240.61,194.81Z"/></g><g id="_66d8b6d6-8e65-4456-a965-cc0a674492b7-child-56" data-name="66d8b6d6-8e65-4456-a965-cc0a674492b7-child-56"><path class="cls-1" d="M88.11,312.92a222,222,0,0,0,34.07,12.49,55.51,55.51,0,0,0,19.6,3.39,24.27,24.27,0,0,0,0-5.65,44,44,0,0,0-7.33-7.74,32.5,32.5,0,0,0-8.29-3.76l-30.09-4.52c-2.89-.5-6.74-1.68-9-.41C87.16,308.89,86,312,88.11,312.92Z"/></g><g id="_66d8b6d6-8e65-4456-a965-cc0a674492b7-child-57" data-name="66d8b6d6-8e65-4456-a965-cc0a674492b7-child-57"><path class="cls-1" d="M190.51,231a37.18,37.18,0,0,0,7.43-3.26c1.72-1.26,7.33-6.2,7.33-7.78V207.8a11.87,11.87,0,0,0-13.58-10.14c-6.33,1-10.23,5.57-15.39,8.28a7.66,7.66,0,0,0-3.52,6.16,23.22,23.22,0,0,0,3.62,14.25A13.85,13.85,0,0,0,190.51,231Z"/></g><g id="_66d8b6d6-8e65-4456-a965-cc0a674492b7-child-58" data-name="66d8b6d6-8e65-4456-a965-cc0a674492b7-child-58"><path class="cls-1" d="M216.9,216.21a18.62,18.62,0,0,0,9,.37c2.67-1.14,6.38-4.53,6.38-6.57V197.34c-6.47,0-11.18-2.85-16.11-1.17a15,15,0,0,0-5.39,14.16C211,212.91,214.23,214.81,216.9,216.21Z"/></g><g id="_66d8b6d6-8e65-4456-a965-cc0a674492b7-child-59" data-name="66d8b6d6-8e65-4456-a965-cc0a674492b7-child-59"><path class="cls-1" d="M184.9,270.47a3.06,3.06,0,0,0-5.25,0,4.43,4.43,0,0,0,0,2.17c9,9.33,19.82,17.52,38.11,17.43a62.24,62.24,0,0,0-3.67-6.84C206.13,276.85,197.62,270.79,184.9,270.47Z"/></g><g id="_66d8b6d6-8e65-4456-a965-cc0a674492b7-child-60" data-name="66d8b6d6-8e65-4456-a965-cc0a674492b7-child-60"><path class="cls-1" d="M796.68,824.19a38.87,38.87,0,0,0-5.71,0v7.33a26.47,26.47,0,0,0,5.34,0c1.9-.95,4.3-2.49,3-4.94A10.1,10.1,0,0,0,796.68,824.19Z"/></g><g id="_66d8b6d6-8e65-4456-a965-cc0a674492b7-child-61" data-name="66d8b6d6-8e65-4456-a965-cc0a674492b7-child-61"><path class="cls-1" d="M969.72,841.52a12.35,12.35,0,0,0-6.33,0l-9,9.05c-.55.54,0,4.52,0,5.7a48.69,48.69,0,0,0,8.19,0c1.26-.5,4.52-4.53,5.65-4.89a30.26,30.26,0,0,1,5.71,0,30.15,30.15,0,0,0,0-5.7A7.54,7.54,0,0,0,969.72,841.52Z"/></g><g id="_66d8b6d6-8e65-4456-a965-cc0a674492b7-child-62" data-name="66d8b6d6-8e65-4456-a965-cc0a674492b7-child-62"><path class="cls-1" d="M891,714.45v7.19a7.3,7.3,0,0,0,4.94-1.13,2.52,2.52,0,0,0,1.17-1.67,2.54,2.54,0,0,0-.36-2A5.08,5.08,0,0,0,891,714.45Z"/></g><g id="_66d8b6d6-8e65-4456-a965-cc0a674492b7-child-63" data-name="66d8b6d6-8e65-4456-a965-cc0a674492b7-child-63"><path class="cls-1" d="M936.73,701.64c2.22,0,3.9-2.58,1.9-4.07C938.05,698.47,931.71,702.23,936.73,701.64Z"/></g><g id="_66d8b6d6-8e65-4456-a965-cc0a674492b7-child-64" data-name="66d8b6d6-8e65-4456-a965-cc0a674492b7-child-64"><path class="cls-1" d="M363.88,676.57a20.34,20.34,0,0,0-9.78,8.06,33.84,33.84,0,0,0,0,7.92A19.83,19.83,0,0,0,371.21,683a30.6,30.6,0,0,0,0-7.65A16.27,16.27,0,0,0,363.88,676.57Z"/></g><g id="_66d8b6d6-8e65-4456-a965-cc0a674492b7-child-65" data-name="66d8b6d6-8e65-4456-a965-cc0a674492b7-child-65"><path class="cls-1" d="M325.46,685.31a10.81,10.81,0,0,0-4.53,0A63.35,63.35,0,0,0,297,702.46a5.55,5.55,0,0,0-1.18,4.84,66,66,0,0,0,18.78-2.76,36.2,36.2,0,0,0,10.32.9c2.13-.27,4.8-3.12,7.56-4.52l-2.63-11.36C329.3,687.3,327.18,686.26,325.46,685.31Z"/></g><g id="_66d8b6d6-8e65-4456-a965-cc0a674492b7-child-66" data-name="66d8b6d6-8e65-4456-a965-cc0a674492b7-child-66"><path class="cls-1" d="M721,858.4H710.2c-5-4-10.91-6.56-14.26-11.45-.63-1,.27-5.34,0-6.47s-4.11-5.61-5.07-5.48l-19.23,2.85a10.89,10.89,0,0,0-8.23-4.52c-2.09-.27-7.24,2.89-9.42,0a29.29,29.29,0,0,0-13.26-6.47,13.62,13.62,0,0,0-3.3,1,18.54,18.54,0,0,0-4.52,3,12.54,12.54,0,0,0,0,6.38,20.21,20.21,0,0,0,4.88,5.3,37.18,37.18,0,0,0,8.1,3.66c1.86.37,9.46-1.31,10.5,0A45,45,0,0,0,667,858.31c2.13,1.26,6.11-2.49,9.82-2.58v11.63a11.76,11.76,0,0,0,4.53,7.83c.95.86,7,.36,8.37,1.63a5.73,5.73,0,0,0,5,.85,5.65,5.65,0,0,0,3.71-3.39,22.17,22.17,0,0,1,5.52,0c1.9,1.13,1.9,4.53,3.35,6l11.13,11.14a8.26,8.26,0,0,0,5.11,0,14.06,14.06,0,0,0,4.53-9.46V864.55A9.09,9.09,0,0,0,721,858.4Z"/></g><g id="_66d8b6d6-8e65-4456-a965-cc0a674492b7-child-67" data-name="66d8b6d6-8e65-4456-a965-cc0a674492b7-child-67"><path class="cls-1" d="M371.48,549.59c.91.59,4.53,7,4.12,1.9C375.6,549.28,373,547.78,371.48,549.59Z"/></g></g></g></g></svg>