<svg xmlns="http://www.w3.org/2000/svg" viewBox="0 0 781.73 611.52"><title>69310078-28a1-4f5c-800e-a3678ddf8223bouncer</title><g id="Layer_2" data-name="Layer 2"><g id="Layer_1-2" data-name="Layer 1"><g id="_69310078-28a1-4f5c-800e-a3678ddf8223" data-name="69310078-28a1-4f5c-800e-a3678ddf8223"><g id="_69310078-28a1-4f5c-800e-a3678ddf8223-child-0" data-name="69310078-28a1-4f5c-800e-a3678ddf8223-child-0"><path d="M530.69,336a1.57,1.57,0,0,1,2.1.64,1.55,1.55,0,0,1-.64,2.1,1.55,1.55,0,1,1-1.46-2.74Zm8.4,22.57a1.54,1.54,0,1,0,.93-2A1.54,1.54,0,0,0,539.09,358.56ZM545,380.18a1.54,1.54,0,1,0,1.21-1.81A1.51,1.51,0,0,0,545,380.18Zm2.86,22.24a1.28,1.28,0,0,0,1.32,1.21,1.27,1.27,0,0,0-.1-2.53A1.27,1.27,0,0,0,547.83,402.42Zm-.75,22.42a1.26,1.26,0,1,0,1.38-1.12A1.26,1.26,0,0,0,547.08,424.84ZM543,446.89a1.26,1.26,0,1,0,1.55-.89A1.26,1.26,0,0,0,543,446.89Zm-7.33,21.2a1.26,1.26,0,0,0,2.32,1,1.26,1.26,0,0,0-2.32-1Zm-10.1,20.08a.91.91,0,0,0,.28,1.24.89.89,0,1,0-.28-1.24Zm-13.29,18.16a.89.89,0,0,0,.09,1.26.88.88,0,0,0,1.26-.1.87.87,0,0,0-.09-1.26A.88.88,0,0,0,512.27,506.33Zm-15.85,15.95a.89.89,0,0,0-.09,1.25.9.9,0,0,0,1.25.09.89.89,0,1,0-1.16-1.34Zm-18,13.43a.89.89,0,0,0,1,1.51.89.89,0,1,0-1-1.51Zm-19.84,10.58a.89.89,0,1,0,1.18.46A.9.9,0,0,0,458.54,546.29ZM392.76,559a.89.89,0,1,0,.87.91A.88.88,0,0,0,392.76,559Zm-22.36-2.44a.9.9,0,1,0,.72,1.05A.9.9,0,0,0,370.4,556.56Zm-21.74-5.74a.89.89,0,0,0-.57,1.68.89.89,0,1,0,.57-1.68ZM328,541.91a.89.89,0,0,0-1.21.37.88.88,0,0,0,.38,1.2.89.89,0,1,0,.83-1.57ZM308.92,530a.89.89,0,0,0-1.25.2.9.9,0,1,0,1.45,1A.9.9,0,0,0,308.92,530Zm-17.1-14.61a.9.9,0,0,0-1.26,0,.89.89,0,0,0,0,1.26.9.9,0,0,0,1.27,0A.91.91,0,0,0,291.82,515.4Zm-14.74-17a.9.9,0,1,0-1.43,1.08.9.9,0,0,0,1.43-1.08Zm-12.05-19a.87.87,0,0,0-1.19-.37.88.88,0,1,0,1.19.37Zm-8.72-20.7a1.26,1.26,0,0,0-2.38.84,1.26,1.26,0,1,0,2.38-.84Zm-6.24-21.59a.9.9,0,0,0-1-.71.9.9,0,1,0,1,.71Zm-2.24-22.35a1.26,1.26,0,1,0-2.52.1,1.26,1.26,0,1,0,2.52-.1Zm.76-22.42a1.26,1.26,0,0,0-2.5-.27,1.26,1.26,0,1,0,2.5.27Zm4.37-22a1.54,1.54,0,1,0-1.89,1.09A1.53,1.53,0,0,0,253,370.37Zm7.32-21.18a1.52,1.52,0,0,0-.81-2,1.54,1.54,0,1,0,.81,2Zm10.39-19.83a1.55,1.55,0,0,0-.48-2.13,1.58,1.58,0,0,0-2.13.49,1.54,1.54,0,0,0,2.61,1.64Zm13.41-17.93a1.78,1.78,0,1,0-2.51.21A1.77,1.77,0,0,0,284.08,311.43ZM300,295.72a2,2,0,1,0-2.81-.19A2,2,0,0,0,300,295.72Zm17.53-13.93a1.25,1.25,0,0,0,.38-1.74,1.26,1.26,0,1,0-.38,1.74Zm19.65-10.9a.9.9,0,1,0-1.18-.46A.9.9,0,0,0,337.15,270.89Zm21.53-6.25a2.19,2.19,0,1,0-2.68-1.53A2.19,2.19,0,0,0,358.68,264.64Zm21.93-4.06A2.37,2.37,0,1,0,378,258.5,2.38,2.38,0,0,0,380.61,260.58Zm22.25-1.1a2.19,2.19,0,1,0-2.11-2.25A2.19,2.19,0,0,0,402.86,259.48Zm22.2,2.23a2,2,0,1,0-1.6-2.33A2,2,0,0,0,425.06,261.71Zm21.6,5.69a2,2,0,1,0-1.23-2.53A2,2,0,0,0,446.66,267.4Zm20.49,8.86a2,2,0,1,0-.84-2.69A2,2,0,0,0,467.15,276.26Zm19,11.79a2,2,0,1,0-.44-2.77A2,2,0,0,0,486.11,288.05Zm17.11,14.36a1.78,1.78,0,1,0,0-2.52A1.8,1.8,0,0,0,503.22,302.41Zm14.85,16.74a1.54,1.54,0,1,0,.32-2.15A1.56,1.56,0,0,0,518.07,319.15Zm29.42,9.62a7,7,0,1,0,2.89-9.49A7,7,0,0,0,547.49,328.77Zm9.3,19.68a6.66,6.66,0,1,0,3.87-8.59A6.66,6.66,0,0,0,556.79,348.45Zm6.75,20.73a6.31,6.31,0,1,0,4.68-7.59A6.31,6.31,0,0,0,563.54,369.18Zm4.06,21.47a5.91,5.91,0,1,0,5.26-6.5A5.92,5.92,0,0,0,567.6,390.65Zm1.25,21.86a5.57,5.57,0,1,0,5.69-5.44A5.54,5.54,0,0,0,568.85,412.51Zm-1.63,21.88a5.28,5.28,0,1,0,6-4.43A5.28,5.28,0,0,0,567.22,434.39Zm-4.31,21.55a4.89,4.89,0,1,0,6.05-3.35A4.88,4.88,0,0,0,562.91,455.94Zm-7.1,20.87a4.54,4.54,0,1,0,6-2.37A4.53,4.53,0,0,0,555.81,476.81Zm-9.71,19.82a4.18,4.18,0,1,0,5.72-1.45A4.17,4.17,0,0,0,546.1,496.63ZM533.86,515a3.89,3.89,0,1,0,5.45-.66A3.88,3.88,0,0,0,533.86,515ZM519.35,531.8a3.57,3.57,0,1,0,5,0A3.56,3.56,0,0,0,519.35,531.8Zm-16.63,14.7a3.34,3.34,0,1,0,4.69.64A3.33,3.33,0,0,0,502.72,546.5ZM484.35,559a3.09,3.09,0,1,0,4.21,1.14A3.07,3.07,0,0,0,484.35,559ZM464.46,569a3,3,0,1,0,3.85,1.6A3,3,0,0,0,464.46,569Zm-21,7.34a2.82,2.82,0,1,0,3.46,2A2.82,2.82,0,0,0,443.44,576.29Zm-21.83,4.45a2.82,2.82,0,1,0,3.17,2.4A2.82,2.82,0,0,0,421.61,580.74Zm-22.2,1.78a2.68,2.68,0,1,0,2.7,2.65A2.67,2.67,0,0,0,399.41,582.52Zm-22.24-1.37a2.82,2.82,0,1,0,2.48,3.14A2.83,2.83,0,0,0,377.17,581.15ZM355.31,577a3,3,0,1,0,2.14,3.6A3,3,0,0,0,355.31,577Zm-21.14-7a3.1,3.1,0,1,0,1.74,4A3.12,3.12,0,0,0,334.17,570Zm-20-9.68a3.34,3.34,0,1,0,1.3,4.53A3.34,3.34,0,0,0,314.18,560.33Zm-18.6-12.12a3.56,3.56,0,1,0,.76,5A3.59,3.59,0,0,0,295.58,548.21ZM278.8,533.77a3.88,3.88,0,1,0,.14,5.49A3.86,3.86,0,0,0,278.8,533.77Zm-14.88-16.38a4.08,4.08,0,1,0-.59,5.75A4.07,4.07,0,0,0,263.92,517.39Zm-12.41-18.26a4.55,4.55,0,1,0-1.47,6.26A4.53,4.53,0,0,0,251.51,499.13Zm-10.08-19.6A4.88,4.88,0,1,0,239,486,4.88,4.88,0,0,0,241.43,479.53ZM234,458.86a5.19,5.19,0,1,0-3.44,6.48A5.2,5.2,0,0,0,234,458.86Zm-4.73-21.43a5.57,5.57,0,1,0-4.54,6.43A5.55,5.55,0,0,0,229.22,437.43Zm-1.94-21.8a5.92,5.92,0,1,0-5.67,6.16A5.92,5.92,0,0,0,227.28,415.63Zm.81-21.85a6.24,6.24,0,1,0-6.76,5.68A6.25,6.25,0,0,0,228.09,393.78Zm3.73-21.49a6.67,6.67,0,1,0-7.95,5.09A6.69,6.69,0,0,0,231.82,372.29Zm6.33-20.8a7,7,0,1,0-9,4.25A7,7,0,0,0,238.15,351.49Zm8.92-19.81a7.35,7.35,0,1,0-9.89,3.21A7.35,7.35,0,0,0,247.07,331.68Zm11.38-18.44a7.72,7.72,0,1,0-10.73,2A7.73,7.73,0,0,0,258.45,313.24Zm13.61-16.81a8.08,8.08,0,1,0-11.41.65A8.08,8.08,0,0,0,272.06,296.43Zm15.59-14.92a8.41,8.41,0,1,0-11.87-.84A8.41,8.41,0,0,0,287.65,281.51ZM305,268.77a8.78,8.78,0,1,0-12.17-2.45A8.77,8.77,0,0,0,305,268.77Zm18.89-10.2c4-1.95,6.2-8.58,4.25-12.53s-8.58-6.2-12.53-4.25-6.2,8.58-4.25,12.53S320,260.52,323.9,258.57ZM344,251.08c3.14-1.08,7.39-9.73,6.31-12.87s-9.72-7.39-12.87-6.32-7.39,9.73-6.31,12.88S340.81,252.15,344,251.08Zm20.77-4.67c2-.4,9-11.07,8.64-13.06s-11.07-9-13.06-8.64-9,11.07-8.64,13.07S362.73,246.81,364.72,246.41Zm21.07-2.28c1.2-.09,10.91-11.35,10.81-12.54s-11.34-10.91-12.53-10.81-10.92,11.34-10.81,12.53S384.6,244.23,385.79,244.13Zm21.15-.83c2.05.12,11.57-8.41,11.66-10.44s-8.41-11.56-10.44-11.66-11.57,8.41-11.66,10.45S404.91,243.21,406.94,243.3ZM428.17,245c3.09.58,11.38-5.12,11.95-8.22s-5.11-11.39-8.22-12-11.39,5.12-12,8.23S425.06,244.46,428.17,245Zm20.93,4.35c4.19,1.35,10.42-1.84,11.76-6s-1.83-10.42-6-11.76-10.42,1.83-11.77,6S444.91,248,449.1,249.38Zm20.19,7.35A8.79,8.79,0,1,0,465.08,245,8.78,8.78,0,0,0,469.29,256.73Zm19,10.1a8.45,8.45,0,1,0-2.57-11.67A8.45,8.45,0,0,0,488.3,266.83Zm17.6,12.47a8.12,8.12,0,1,0-1-11.43A8.11,8.11,0,0,0,505.9,279.3ZM521.8,294a7.77,7.77,0,1,0,.42-11A7.75,7.75,0,0,0,521.8,294Zm14,16.55a7.35,7.35,0,1,0,1.73-10.25A7.34,7.34,0,0,0,535.79,310.5Zm34.11,6.32a6.86,6.86,0,1,0,2.82-9.28A6.86,6.86,0,0,0,569.9,316.82Zm9.53,19.71a6.49,6.49,0,1,0,3.64-8.42A6.49,6.49,0,0,0,579.43,336.53Zm7.3,20.68a6.11,6.11,0,1,0,4.3-7.5A6.13,6.13,0,0,0,586.73,357.21Zm5,21.42a5.7,5.7,0,1,0,4.77-6.51A5.71,5.71,0,0,0,591.69,378.63Zm2.4,21.87a5.43,5.43,0,1,0,5.21-5.65A5.45,5.45,0,0,0,594.09,400.5Zm0,22.05a5,5,0,1,0,5.39-4.68A5.07,5.07,0,0,0,594.14,422.55Zm-2.39,22a4.63,4.63,0,1,0,5.4-3.7A4.64,4.64,0,0,0,591.75,444.53Zm-4.9,21.57a4.28,4.28,0,1,0,5.34-2.84A4.28,4.28,0,0,0,586.85,466.1Zm-7.28,21a3.89,3.89,0,1,0,5.11-2A3.9,3.9,0,0,0,579.57,487.06Zm-9.65,20a3.56,3.56,0,1,0,4.86-1.32A3.56,3.56,0,0,0,569.92,507.07ZM558.1,525.93a3.21,3.21,0,1,0,4.48-.69A3.19,3.19,0,0,0,558.1,525.93Zm-13.86,17.48a2.82,2.82,0,1,0,4-.17A2.81,2.81,0,0,0,544.24,543.41Zm-15.83,15.76a2.53,2.53,0,1,0,3.56.26A2.55,2.55,0,0,0,528.41,559.17Zm-17.49,14a2.18,2.18,0,1,0,3,.56A2.19,2.19,0,0,0,510.92,573.13Zm-19.05,11.79a2,2,0,0,0-.82,2.68,2,2,0,1,0,3.5-1.87A2,2,0,0,0,491.87,584.92Zm-20.25,9.61a1.78,1.78,0,1,0,2.31,1A1.76,1.76,0,0,0,471.62,594.53Zm-21.22,7.34a1.54,1.54,0,1,0,1.89,1.08A1.55,1.55,0,0,0,450.4,601.87Zm-22,4.66a1.54,1.54,0,1,0,1.76,1.29A1.54,1.54,0,0,0,428.42,606.53ZM406.07,609a1.28,1.28,0,0,0-1.21,1.32,1.26,1.26,0,1,0,1.21-1.32Zm-22.46-.62A1.54,1.54,0,0,0,382,609.8a1.54,1.54,0,1,0,1.64-1.43Zm-22.29-2.85a1.54,1.54,0,1,0,1.23,1.8A1.57,1.57,0,0,0,361.32,605.52ZM339.58,600a1.78,1.78,0,1,0,1.18,2.22A1.79,1.79,0,0,0,339.58,600Zm-21-7.92a2,2,0,1,0,1,2.62A2,2,0,0,0,318.59,592.06Zm-19.85-10.34a2.37,2.37,0,1,0,.87,3.23A2.37,2.37,0,0,0,298.74,581.72Zm-18.59-12.44a2.68,2.68,0,1,0,.57,3.75A2.69,2.69,0,0,0,280.15,569.28Zm-17-14.48a3.08,3.08,0,1,0,.18,4.35A3.08,3.08,0,0,0,263.19,554.8Zm-15.35-16.17a3.33,3.33,0,1,0-.34,4.7A3.35,3.35,0,0,0,247.84,538.63Zm-13.23-17.85a3.79,3.79,0,1,0-1,5.27A3.79,3.79,0,0,0,234.61,520.78Zm-11.28-19.13a4.08,4.08,0,1,0-1.68,5.52A4.08,4.08,0,0,0,223.33,501.65Zm-9-20.26a4.46,4.46,0,1,0-2.51,5.79A4.47,4.47,0,0,0,214.36,481.39Zm-6.67-21.09a4.8,4.8,0,1,0-3.37,5.9A4.79,4.79,0,0,0,207.69,460.3Zm-4.2-21.66a5.2,5.2,0,1,0-4.35,5.92A5.19,5.19,0,0,0,203.49,438.64Zm-1.77-22a5.56,5.56,0,1,0-5.33,5.78A5.54,5.54,0,0,0,201.72,416.68Zm.68-22a5.91,5.91,0,1,0-6.32,5.49A5.92,5.92,0,0,0,202.4,394.68ZM205.5,373a6.24,6.24,0,1,0-7.27,5A6.25,6.25,0,0,0,205.5,373Zm5.62-21.18a6.67,6.67,0,1,0-8.32,4.44A6.64,6.64,0,0,0,211.12,351.77ZM219,331.35a7,7,0,1,0-9.23,3.65A7,7,0,0,0,219,331.35ZM229,312a7.35,7.35,0,1,0-10,2.73A7.35,7.35,0,0,0,229,312Zm12.14-18.09a7.66,7.66,0,1,0-10.71,1.66A7.66,7.66,0,0,0,241.18,293.89Zm14.08-16.59a8,8,0,1,0-11.33.45A8,8,0,0,0,255.26,277.3Zm15.83-14.87a8.36,8.36,0,1,0-11.8-.83A8.37,8.37,0,0,0,271.09,262.43Zm17.32-13.05a8.65,8.65,0,1,0-12-2.22A8.66,8.66,0,0,0,288.41,249.38Zm18.71-10.89a9.05,9.05,0,1,0-12.25-3.73A9.32,9.32,0,0,0,307.12,238.49Zm19.89-8.4c3.53-1.4,6.89-9.17,5.49-12.7s-9.17-6.89-12.7-5.5-6.88,9.17-5.49,12.71S323.48,231.48,327,230.09Zm20.65-6c2.53-.68,8.18-10.55,7.48-13.07s-10.55-8.17-13.07-7.47-8.18,10.55-7.48,13.07S345.14,224.8,347.66,224.1Zm21.13-3.41c1.19-.19,10-12.17,9.79-13.37s-12.16-10-13.36-9.78-10,12.16-9.79,13.36S367.59,220.86,368.79,220.69ZM390.05,219c.74,0,11.58-11.81,11.56-12.55s-11.81-11.58-12.55-11.56-11.58,11.81-11.56,12.55S389.3,219,390.05,219Zm21.32-.51c1.83.14,11.86-8.57,12-10.4s-8.58-11.86-10.41-12-11.85,8.57-12,10.4S409.54,218.33,411.37,218.46Zm21.39,1.75c3.09.58,11.39-5.12,12-8.22s-5.12-11.39-8.23-12-11.38,5.12-11.95,8.23S429.65,219.64,432.76,220.21Zm21.1,4.33c4.07,1.24,10.56-2.23,11.8-6.3s-2.23-10.56-6.29-11.8-10.57,2.23-11.8,6.3S449.79,223.3,453.86,224.54Zm20.5,6.85a8.82,8.82,0,1,0-4.6-11.59A8.82,8.82,0,0,0,474.36,231.39Zm19.53,9.39a8.5,8.5,0,1,0-3.16-11.6A8.5,8.5,0,0,0,493.89,240.78Zm18.35,11.59a8.23,8.23,0,1,0-1.78-11.49A8.21,8.21,0,0,0,512.24,252.37Zm17,13.54a7.88,7.88,0,1,0-.46-11.13A7.89,7.89,0,0,0,529.26,265.91Zm15.41,15.37a7.51,7.51,0,1,0,.76-10.6A7.51,7.51,0,0,0,544.67,281.28Zm13.6,17.06a7.19,7.19,0,1,0,1.85-10A7.2,7.2,0,0,0,558.27,298.34Zm34.16,6.46a6.56,6.56,0,1,0,2.7-8.88A6.56,6.56,0,0,0,592.43,304.8Zm9.71,19.75a6.18,6.18,0,1,0,3.36-8.06A6.18,6.18,0,0,0,602.14,324.55Zm7.66,20.67a5.85,5.85,0,1,0,3.93-7.28A5.87,5.87,0,0,0,609.8,345.22Zm5.61,21.36a5.5,5.5,0,1,0,4.35-6.44A5.49,5.49,0,0,0,615.41,366.58Zm3.47,21.83a5.13,5.13,0,1,0,4.64-5.57A5.13,5.13,0,0,0,618.88,388.41Zm1.31,22.12a4.72,4.72,0,1,0,4.76-4.68A4.75,4.75,0,0,0,620.19,410.53Zm-.94,22.16a4.37,4.37,0,1,0,4.82-3.86A4.39,4.39,0,0,0,619.25,432.69Zm-3.14,22a4,4,0,1,0,4.73-3.07A4,4,0,0,0,616.11,454.68Zm-5.26,21.64a3.57,3.57,0,1,0,4.48-2.32A3.56,3.56,0,0,0,610.85,476.32Zm-7.5,21a3.21,3.21,0,1,0,4.22-1.68A3.21,3.21,0,0,0,603.35,497.33Zm-9.51,20.2a2.82,2.82,0,1,0,3.83-1.08A2.8,2.8,0,0,0,593.84,517.53ZM582.4,536.77a2.36,2.36,0,1,0,3.29-.6A2.37,2.37,0,0,0,582.4,536.77Zm-13.24,18.12a1.78,1.78,0,1,0,2.51-.2A1.77,1.77,0,0,0,569.16,554.89Zm-15.07,16.72a1.26,1.26,0,1,0,1.78,0A1.25,1.25,0,0,0,554.09,571.61Zm-16.78,15a.9.9,0,1,0,1.11,1.41.9.9,0,0,0,.15-1.26A.89.89,0,0,0,537.31,586.64ZM283,603.47a.89.89,0,1,0,.31,1.22A.91.91,0,0,0,283,603.47Zm-18.62-12.68a1.25,1.25,0,0,0-1.76.27,1.26,1.26,0,1,0,2,1.49A1.26,1.26,0,0,0,264.41,590.79Zm-17-14.74a2,2,0,1,0,.14,2.82A2,2,0,0,0,247.43,576.05Zm-15.66-16a2.36,2.36,0,1,0-.16,3.34A2.37,2.37,0,0,0,231.77,560Zm-13.89-17.56a2.82,2.82,0,1,0-.59,3.94A2.83,2.83,0,0,0,217.88,542.44ZM205.8,523.66a3.22,3.22,0,1,0-1.1,4.42A3.22,3.22,0,0,0,205.8,523.66Zm-10.19-19.85a3.56,3.56,0,1,0-1.7,4.74A3.56,3.56,0,0,0,195.61,503.81Zm-8.07-20.74a4,4,0,1,0-2.44,5.09A4,4,0,0,0,187.54,483.07Zm-6-21.39a4.37,4.37,0,1,0-3.2,5.28A4.37,4.37,0,0,0,181.54,461.68Zm-3.86-21.85a4.72,4.72,0,1,0-4,5.34A4.75,4.75,0,0,0,177.68,439.83Zm-1.62-22.11a5.12,5.12,0,1,0-4.91,5.33A5.13,5.13,0,0,0,176.06,417.72Zm.57-22.09a5.5,5.5,0,1,0-5.81,5.17A5.5,5.5,0,0,0,176.63,395.63Zm2.75-21.9a5.85,5.85,0,1,0-6.7,4.86A5.85,5.85,0,0,0,179.38,373.73Zm4.87-21.5a6.17,6.17,0,1,0-7.54,4.4A6.16,6.16,0,0,0,184.25,352.23Zm7-20.86a6.55,6.55,0,1,0-8.43,3.85A6.56,6.56,0,0,0,191.27,331.37Zm9-20a6.91,6.91,0,1,0-9.25,3.16A6.87,6.87,0,0,0,200.31,311.34Zm10.91-19a7.19,7.19,0,1,0-9.9,2.3A7.2,7.2,0,0,0,211.22,292.31ZM224,274.5a7.52,7.52,0,1,0-10.54,1.37A7.5,7.5,0,0,0,224,274.5Zm14.43-16.42a7.82,7.82,0,1,0-11,.31A7.84,7.84,0,0,0,238.42,258.08Zm16-14.86a8.17,8.17,0,1,0-11.52-.82A8.16,8.16,0,0,0,254.43,243.22ZM271.77,230A8.46,8.46,0,1,0,260,228,8.49,8.49,0,0,0,271.77,230Zm18.56-11.41a8.74,8.74,0,1,0-11.91-3.29A8.72,8.72,0,0,0,290.33,218.58Zm19.61-9.4a9.14,9.14,0,1,0-7.39-16.73c-4.28,1.9-6.58,7.78-4.67,12.06S305.66,211.09,309.94,209.18Zm20.5-7.14c3.62-1.18,7.44-8.71,6.27-12.34s-8.71-7.44-12.34-6.26-7.44,8.71-6.27,12.33S326.82,203.21,330.44,202Zm21-5.1c2.91-.64,8.56-9.46,7.92-12.37S349.93,176,347,176.65s-8.55,9.46-7.91,12.37S348.57,197.58,351.47,196.94Zm21.38-3c2.23-.25,9.86-9.91,9.59-12.13s-9.91-9.85-12.12-9.58-9.86,9.91-9.59,12.12S370.64,194.18,372.85,193.91Zm21.5-1.43c2.23,0,10.79-8.87,10.76-11.1s-8.87-10.78-11.1-10.75-10.79,8.87-10.76,11.1S392.12,192.51,394.35,192.48Zm21.58.18c3,.25,11-6.52,11.22-9.48s-6.52-11-9.48-11.22-11,6.52-11.22,9.48S413,192.41,415.93,192.66Zm21.52,2.28c3.74.7,10.7-4.11,11.4-7.84s-4.1-10.7-7.84-11.4-10.7,4.1-11.4,7.84S433.71,194.24,437.45,194.94Zm21.25,4.4A9.15,9.15,0,1,0,452.47,188,9.7,9.7,0,0,0,458.7,199.34Zm20.69,6.71a8.73,8.73,0,1,0-4.83-11.36A8.73,8.73,0,0,0,479.39,206.05Zm19.9,8.88a8.45,8.45,0,1,0-3.57-11.41A8.45,8.45,0,0,0,499.29,214.93Zm18.92,10.81a8.17,8.17,0,1,0-2.33-11.31A8.15,8.15,0,0,0,518.21,225.74ZM536,238.38a7.82,7.82,0,1,0-1.15-11A7.81,7.81,0,0,0,536,238.38Zm16.49,14.38a7.51,7.51,0,1,0,0-10.62A7.51,7.51,0,0,0,552.53,252.76Zm15,16a7.19,7.19,0,1,0,1-10.11A7.19,7.19,0,0,0,567.51,268.72Zm13.38,17.4a6.85,6.85,0,1,0,1.87-9.51A6.83,6.83,0,0,0,580.89,286.12ZM615,292.76a6.17,6.17,0,1,0,2.54-8.35A6.17,6.17,0,0,0,615,292.76Zm9.82,19.8a5.85,5.85,0,1,0,3.1-7.67A5.84,5.84,0,0,0,624.84,312.56Zm8,20.63a5.49,5.49,0,1,0,3.55-6.91A5.47,5.47,0,0,0,632.86,333.19Zm6.18,21.3a5.12,5.12,0,1,0,3.88-6.12A5.13,5.13,0,0,0,639,354.49Zm4.2,21.78a4.8,4.8,0,1,0,4.13-5.39A4.83,4.83,0,0,0,643.24,376.27Zm2.33,22.11a4.37,4.37,0,1,0,4.18-4.55A4.35,4.35,0,0,0,645.57,398.38Zm.3,22.27a4,4,0,1,0,4.17-3.78A4,4,0,0,0,645.87,420.65Zm-1.66,22.23a3.57,3.57,0,1,0,4-3A3.57,3.57,0,0,0,644.21,442.88Zm-3.73,22a3.22,3.22,0,1,0,3.86-2.41A3.23,3.23,0,0,0,640.48,464.9ZM635,486.61a2.68,2.68,0,1,0,3.39-1.72A2.7,2.7,0,0,0,635,486.61Zm-7.49,21.14a2.18,2.18,0,1,0,2.87-1.13A2.19,2.19,0,0,0,627.47,507.75Zm-9.27,20.48a1.54,1.54,0,1,0,2.09-.63A1.55,1.55,0,0,0,618.2,528.23Zm-11.06,19.63a.87.87,0,0,0,.25,1.22.89.89,0,1,0-.25-1.22Zm-391.69,33.8a.92.92,0,0,0-1.27,0,.89.89,0,0,0,1.23,1.3A.91.91,0,0,0,215.45,581.66ZM201,564.39a1.27,1.27,0,0,0-2,1.57,1.27,1.27,0,1,0,2-1.57ZM188.4,545.72a2,2,0,1,0-.58,2.75A2,2,0,0,0,188.4,545.72Zm-11-19.59a2.52,2.52,0,1,0-1,3.4A2.5,2.5,0,0,0,177.42,526.13Zm-9.24-20.38a3,3,0,1,0-1.57,3.87A3,3,0,0,0,168.18,505.75Zm-7.32-21.14a3.45,3.45,0,1,0-2.22,4.35A3.43,3.43,0,0,0,160.86,484.61ZM155.32,463a3.78,3.78,0,1,0-2.87,4.52A3.79,3.79,0,0,0,155.32,463Zm-3.49-22a4.18,4.18,0,1,0-3.6,4.69A4.18,4.18,0,0,0,151.83,441Zm-1.47-22.21a4.63,4.63,0,1,0-4.45,4.81A4.65,4.65,0,0,0,150.36,418.79Zm.42-22.2a5,5,0,1,0-5.21,4.71A5,5,0,0,0,150.78,396.59Zm2.45-22a5.34,5.34,0,1,0-6,4.55A5.35,5.35,0,0,0,153.23,374.54Zm4.39-21.7a5.71,5.71,0,1,0-6.85,4.27A5.71,5.71,0,0,0,157.62,352.84Zm6.24-21.23a6,6,0,1,0-7.55,3.8A6,6,0,0,0,163.86,331.61Zm8.19-20.51a6.36,6.36,0,1,0-8.36,3.33A6.35,6.35,0,0,0,172.05,311.1Zm10-19.67a6.73,6.73,0,1,0-9.13,2.71A6.74,6.74,0,0,0,182,291.43Zm11.61-18.72a7,7,0,1,0-9.73,2A7,7,0,0,0,193.62,272.71Zm13.24-17.59a7.3,7.3,0,1,0-10.27,1.12A7.32,7.32,0,0,0,206.86,255.12Zm14.76-16.28a7.62,7.62,0,1,0-10.78.2A7.63,7.63,0,0,0,221.62,238.84ZM237.75,224a7.93,7.93,0,1,0-11.18-.81A7.94,7.94,0,0,0,237.75,224Zm17.36-13.36a8.22,8.22,0,1,0-11.47-1.85A8.21,8.21,0,0,0,255.11,210.6Zm18.44-11.79a8.45,8.45,0,1,0-11.58-3A8.47,8.47,0,0,0,273.55,198.81ZM293,188.72a8.69,8.69,0,1,0-11.58-4.11A8.7,8.7,0,0,0,293,188.72Zm20.22-8.27a9,9,0,1,0-11.52-5.27A8.94,8.94,0,0,0,313.19,180.45Zm20.9-6.29c4.24-1.15,7.72-7.24,6.57-11.48s-7.23-7.71-11.47-6.56-7.72,7.23-6.57,11.47S329.85,175.31,334.09,174.16Zm21.32-4.45c3.9-.7,8.51-7.32,7.84-11.21S355.93,150,352,150.65s-8.51,7.33-7.84,11.22S351.52,170.39,355.41,169.71ZM377,167.09c3.63-.32,9.33-7.09,9-10.71s-7.09-9.33-10.7-9-9.33,7.09-9,10.7S373.41,167.41,377,167.09Zm21.72-1c3.8,0,9.81-5.94,9.82-9.75s-5.94-9.81-9.76-9.82-9.8,5.94-9.82,9.75S394.93,166.06,398.75,166.07Zm21.77.84c4.09.37,10-4.55,10.42-8.63s-4.54-10-8.63-10.43-10,4.55-10.42,8.63S416.43,166.5,420.52,166.91Zm21.66,2.51a9.06,9.06,0,1,0-7.25-10.56A9.29,9.29,0,0,0,442.18,169.42Zm21.33,4.67a8.78,8.78,0,1,0-6.08-10.82A8.76,8.76,0,0,0,463.51,174.09Zm20.84,6.61a8.55,8.55,0,1,0-5-11A8.54,8.54,0,0,0,484.35,180.7Zm20.19,8.46a8.31,8.31,0,1,0-3.83-11.11A8.32,8.32,0,0,0,504.54,189.16Zm19.4,10.2a8,8,0,1,0-2.74-11A8,8,0,0,0,523.94,199.36Zm18.41,11.91a7.73,7.73,0,1,0-1.66-10.8A7.72,7.72,0,0,0,542.35,211.27Zm17.28,13.53a7.46,7.46,0,1,0-.67-10.53A7.47,7.47,0,0,0,559.63,224.8Zm16.07,15a7.13,7.13,0,1,0,.25-10.08A7.12,7.12,0,0,0,575.7,239.82Zm14.62,16.45a6.85,6.85,0,1,0,1.13-9.62A6.86,6.86,0,0,0,590.32,256.27ZM603.46,274a6.55,6.55,0,1,0,1.89-9.07A6.56,6.56,0,0,0,603.46,274Zm34.17,6.72a5.78,5.78,0,1,0,2.38-7.81A5.79,5.79,0,0,0,637.63,280.69Zm9.88,19.87a5.5,5.5,0,1,0,2.87-7.23A5.51,5.51,0,0,0,647.51,300.56Zm8.34,20.59a5.13,5.13,0,1,0,3.21-6.5A5.14,5.14,0,0,0,655.85,321.15Zm6.66,21.22a4.72,4.72,0,1,0,3.43-5.72A4.72,4.72,0,0,0,662.51,342.37Zm4.87,21.73a4.37,4.37,0,1,0,3.6-5A4.39,4.39,0,0,0,667.38,364.1Zm3.09,22.08a4,4,0,1,0,3.65-4.3A4,4,0,0,0,670.47,386.18Zm1.34,22.3a3.58,3.58,0,1,0,3.58-3.57A3.58,3.58,0,0,0,671.81,408.48Zm-.42,22.38a3.09,3.09,0,1,0,3.33-2.82A3.07,3.07,0,0,0,671.39,430.86Zm-2.31,22.29a2.67,2.67,0,1,0,3.08-2.2A2.69,2.69,0,0,0,669.08,453.15ZM665,475.22a2.19,2.19,0,1,0,2.65-1.59A2.17,2.17,0,0,0,665,475.22ZM659.29,497a1.54,1.54,0,1,0,2-1A1.53,1.53,0,0,0,659.29,497Zm-7.48,21.26a.9.9,0,0,0,1.65.7.9.9,0,0,0-1.65-.7ZM159.23,548.63a.88.88,0,1,0-.31,1.21A.87.87,0,0,0,159.23,548.63Zm-10-20.2a1.54,1.54,0,1,0-.73,2.06A1.55,1.55,0,0,0,149.19,528.43Zm-8.33-20.89a2.19,2.19,0,0,0-4.08,1.58,2.19,2.19,0,1,0,4.08-1.58Zm-6.74-21.4a2.68,2.68,0,1,0-1.81,3.33A2.67,2.67,0,0,0,134.12,486.14Zm-4.91-21.86a3.22,3.22,0,1,0-2.5,3.8A3.22,3.22,0,0,0,129.21,464.28Zm-3.3-22.13a3.57,3.57,0,1,0-3.11,4A3.59,3.59,0,0,0,125.91,442.15Zm-1.4-22.29a4,4,0,1,0-3.82,4.15A4,4,0,0,0,124.51,419.86Zm.37-22.3a4.36,4.36,0,1,0-4.54,4.18A4.37,4.37,0,0,0,124.88,397.56Zm2.25-22.17a4.79,4.79,0,1,0-5.34,4.19A4.78,4.78,0,0,0,127.13,375.39Zm4-21.87a5.2,5.2,0,1,0-6.15,4A5.22,5.22,0,0,0,131.11,353.52Zm5.67-21.47a5.5,5.5,0,1,0-6.83,3.73A5.52,5.52,0,0,0,136.78,332.05Zm7.45-20.89a5.85,5.85,0,1,0-7.56,3.36A5.85,5.85,0,0,0,144.23,311.16Zm9-20.23a6.11,6.11,0,1,0-8.16,2.85A6.1,6.1,0,0,0,153.25,290.93ZM164,271.58a6.48,6.48,0,1,0-8.88,2.3A6.51,6.51,0,0,0,164,271.58Zm12.19-18.44a6.79,6.79,0,1,0-9.47,1.67A6.8,6.8,0,0,0,176.18,253.14Zm13.63-17.37a7.08,7.08,0,1,0-10,.93A7.07,7.07,0,0,0,189.81,235.77Zm15-16.18a7.35,7.35,0,1,0-10.41.12A7.36,7.36,0,0,0,204.79,219.59ZM221,204.68a7.61,7.61,0,1,0-10.74-.77A7.63,7.63,0,0,0,221,204.68Zm17.36-13.53a7.88,7.88,0,1,0-11-1.7A7.9,7.9,0,0,0,238.37,191.15Zm18.39-12.06a8.11,8.11,0,1,0-11.17-2.65A8.11,8.11,0,0,0,256.76,179.09Zm19.3-10.53a8.36,8.36,0,1,0-11.24-3.67A8.35,8.35,0,0,0,276.06,168.56Zm20-8.95A8.55,8.55,0,1,0,285,154.93,8.55,8.55,0,0,0,296.1,159.61Zm20.69-7.3a8.73,8.73,0,1,0-11-5.68A8.74,8.74,0,0,0,316.79,152.31ZM338,146.69A8.86,8.86,0,1,0,327.35,140,8.87,8.87,0,0,0,338,146.69Zm21.57-3.91a9,9,0,1,0-10.14-7.59A9,9,0,0,0,359.54,142.78Zm21.8-2.26a9,9,0,1,0-9.48-8.38A8.94,8.94,0,0,0,381.34,140.52Zm21.91-.49a8.92,8.92,0,1,0-8.75-9.09A8.92,8.92,0,0,0,403.25,140Zm21.88,1.25a8.82,8.82,0,1,0-7.88-9.67A8.83,8.83,0,0,0,425.13,141.28Zm21.71,3a8.7,8.7,0,1,0-7-10.14A8.71,8.71,0,0,0,446.84,144.26ZM468.26,149a8.55,8.55,0,1,0-6-10.48A8.55,8.55,0,0,0,468.26,149Zm21,6.38a8.32,8.32,0,1,0-5-10.65A8.33,8.33,0,0,0,489.28,155.37Zm20.4,8.12a8.13,8.13,0,1,0-4-10.76A8.13,8.13,0,0,0,509.68,163.49Zm19.76,9.68a7.82,7.82,0,1,0-3-10.64A7.83,7.83,0,0,0,529.44,173.17Zm18.89,11.29a7.57,7.57,0,1,0-2.06-10.5A7.56,7.56,0,0,0,548.33,184.46Zm17.93,12.79A7.29,7.29,0,1,0,565.11,187,7.3,7.3,0,0,0,566.26,197.25Zm16.87,14.22a7,7,0,1,0-.31-9.92A7,7,0,0,0,583.13,211.47ZM598.8,227a6.73,6.73,0,1,0,.48-9.5A6.72,6.72,0,0,0,598.8,227Zm14.37,16.8a6.43,6.43,0,1,0,1.2-9A6.44,6.44,0,0,0,613.17,243.84Zm13,17.92a6.11,6.11,0,1,0,1.84-8.44A6.11,6.11,0,0,0,626.14,261.76Zm34.15,6.85a5.34,5.34,0,1,0,2.2-7.23A5.35,5.35,0,0,0,660.29,268.61Zm10,19.89a5,5,0,1,0,2.58-6.65A5,5,0,0,0,670.29,288.5Zm8.59,20.57a4.63,4.63,0,1,0,2.81-5.91A4.62,4.62,0,0,0,678.88,309.07Zm7,21.17a4.28,4.28,0,1,0,3-5.25A4.28,4.28,0,0,0,685.88,330.24Zm5.43,21.68a3.89,3.89,0,1,0,3.07-4.55A3.89,3.89,0,0,0,691.31,351.92Zm3.85,22a3.45,3.45,0,1,0,3-3.82A3.48,3.48,0,0,0,695.16,374Zm2.25,22.29a3,3,0,1,0,2.83-3.07A3,3,0,0,0,697.41,396.24Zm.51,22.45a2.52,2.52,0,1,0,2.6-2.43A2.52,2.52,0,0,0,697.92,418.69Zm-1.07,22.45a2,2,0,1,0,2.19-1.77A2,2,0,0,0,696.85,441.14Zm-2.55,22.37a1.26,1.26,0,1,0,1.47-1A1.26,1.26,0,0,0,694.3,463.51Zm-581,45.86a.9.9,0,1,0-.55,1.14A.89.89,0,0,0,113.27,509.37Zm-5.87-21.78a1.79,1.79,0,1,0-1.26,2.19A1.78,1.78,0,0,0,107.4,487.59Zm-4.54-22a2.36,2.36,0,1,0-1.87,2.76A2.36,2.36,0,0,0,102.86,465.55Zm-3-22.26a2.81,2.81,0,1,0-2.47,3.13A2.81,2.81,0,0,0,99.89,443.29Zm-1.24-22.37a3.34,3.34,0,1,0-3.21,3.47A3.35,3.35,0,0,0,98.65,420.92ZM99,398.54a3.78,3.78,0,1,0-3.91,3.65A3.78,3.78,0,0,0,99,398.54Zm1.9-22.27a4.08,4.08,0,1,0-4.5,3.62A4.07,4.07,0,0,0,100.9,376.27Zm3.7-22a4.55,4.55,0,1,0-5.3,3.64A4.53,4.53,0,0,0,104.6,354.27Zm5.22-21.69a4.88,4.88,0,1,0-6,3.47A4.89,4.89,0,0,0,109.82,332.58Zm6.85-21.17a5.27,5.27,0,1,0-6.7,3.26A5.25,5.25,0,0,0,116.67,311.41ZM125,290.77a5.56,5.56,0,1,0-7.31,2.9A5.58,5.58,0,0,0,125,290.77Zm9.82-19.92a5.85,5.85,0,1,0-7.9,2.48A5.86,5.86,0,0,0,134.8,270.85Zm11.31-19.1a6.18,6.18,0,1,0-8.51,2A6.18,6.18,0,0,0,146.11,251.75Zm12.68-18.18a6.49,6.49,0,1,0-9.07,1.41A6.48,6.48,0,0,0,158.79,233.57Zm14-17.19a6.79,6.79,0,1,0-9.57.76A6.78,6.78,0,0,0,172.78,216.38Zm15.15-16.12a7,7,0,1,0-9.92.05A7,7,0,0,0,187.93,200.26Zm16.35-14.88a7.3,7.3,0,1,0-10.3-.74A7.32,7.32,0,0,0,204.28,185.38Zm17.35-13.68a7.51,7.51,0,1,0-10.51-1.54A7.49,7.49,0,0,0,221.63,171.7Zm18.31-12.33a7.72,7.72,0,1,0-10.65-2.4A7.72,7.72,0,0,0,239.94,159.37Zm19.18-10.87a8,8,0,1,0-10.79-3.29A8,8,0,0,0,259.12,148.5ZM279,139a8.17,8.17,0,1,0-10.78-4.18A8.17,8.17,0,0,0,279,139Zm20.54-8A8.31,8.31,0,1,0,289,126,8.32,8.32,0,0,0,299.57,131.05Zm21-6.44a8.46,8.46,0,1,0-10.38-5.94A8.44,8.44,0,0,0,320.6,124.61Zm21.47-4.88a8.55,8.55,0,1,0-10-6.76A8.53,8.53,0,0,0,342.07,119.73Zm21.75-3.32a8.59,8.59,0,1,0-9.53-7.53A8.61,8.61,0,0,0,363.82,116.41Zm21.93-1.72a8.59,8.59,0,1,0-8.94-8.24A8.59,8.59,0,0,0,385.75,114.69Zm22-.14a8.55,8.55,0,1,0-8.26-8.84A8.57,8.57,0,0,0,407.76,114.55ZM429.71,116a8.46,8.46,0,1,0-7.49-9.32A8.46,8.46,0,0,0,429.71,116Zm21.8,3.11a8.36,8.36,0,1,0-6.68-9.75A8.37,8.37,0,0,0,451.51,119.13ZM473,123.8a8.22,8.22,0,1,0-5.85-10A8.23,8.23,0,0,0,473,123.8ZM494.16,130a8,8,0,1,0-5-10.2A8,8,0,0,0,494.16,130Zm20.62,7.79a7.83,7.83,0,1,0-4.08-10.29A7.84,7.84,0,0,0,514.78,137.83Zm20,9.26a7.56,7.56,0,1,0-3.19-10.21A7.56,7.56,0,0,0,534.81,147.09Zm19.28,10.77a7.35,7.35,0,1,0-2.34-10.12A7.36,7.36,0,0,0,554.09,157.86Zm18.43,12.21a7.14,7.14,0,1,0-1.54-10A7.12,7.12,0,0,0,572.52,170.07ZM590,183.56a6.84,6.84,0,1,0-.76-9.65A6.86,6.86,0,0,0,590,183.56Zm16.44,14.83a6.61,6.61,0,1,0-.05-9.35A6.58,6.58,0,0,0,606.48,198.39Zm15.41,15.93a6.24,6.24,0,1,0,.63-8.79A6.24,6.24,0,0,0,621.89,214.32ZM636,231.44a6,6,0,1,0,1.24-8.36A6,6,0,0,0,636,231.44Zm12.85,18.13a5.64,5.64,0,1,0,1.74-7.79A5.66,5.66,0,0,0,648.84,249.57ZM683,256.52a4.89,4.89,0,1,0,2-6.61A4.88,4.88,0,0,0,683,256.52Zm10.19,19.87a4.46,4.46,0,1,0,2.25-5.89A4.47,4.47,0,0,0,693.15,276.39ZM701.92,297a4.09,4.09,0,1,0,2.44-5.24A4.11,4.11,0,0,0,701.92,297Zm7.36,21.11a3.69,3.69,0,1,0,2.51-4.56A3.7,3.7,0,0,0,709.28,318.07Zm5.84,21.64a3.34,3.34,0,1,0,2.56-4A3.35,3.35,0,0,0,715.12,339.71Zm4.51,22a2.82,2.82,0,1,0,2.39-3.19A2.83,2.83,0,0,0,719.63,361.68ZM722.56,384a2.36,2.36,0,1,0,2.16-2.54A2.34,2.34,0,0,0,722.56,384Zm1.49,22.46a1.79,1.79,0,0,0,3.58,0,1.79,1.79,0,0,0-3.58,0Zm.26,22.57a.87.87,0,0,0,.84.93.86.86,0,0,0,.93-.83.89.89,0,1,0-1.77-.1ZM76,466.92a.89.89,0,1,0-.72,1A.88.88,0,0,0,76,466.92Zm-2.37-22.44a1.79,1.79,0,1,0-1.57,2A1.78,1.78,0,0,0,73.59,444.48Zm-1-22.48a2.52,2.52,0,1,0-2.41,2.62A2.5,2.5,0,0,0,72.62,422Zm.29-22.45a3,3,0,1,0-3,2.86A3,3,0,0,0,72.91,399.55Zm1.9-22.36a3.46,3.46,0,1,0-3.78,3.1A3.45,3.45,0,0,0,74.81,377.19ZM78.07,355a3.78,3.78,0,1,0-4.36,3.1A3.79,3.79,0,0,0,78.07,355Zm4.85-21.84a4.18,4.18,0,1,0-5,3.08A4.18,4.18,0,0,0,82.92,333.2Zm6.31-21.44a4.54,4.54,0,1,0-5.7,3A4.57,4.57,0,0,0,89.23,311.76Zm7.8-20.9a5,5,0,1,0-6.43,2.81A5,5,0,0,0,97,290.86Zm9.12-20.34a5.28,5.28,0,1,0-7,2.51A5.29,5.29,0,0,0,106.15,270.52Zm10.48-19.66a5.57,5.57,0,1,0-7.58,2.14A5.56,5.56,0,0,0,116.63,250.86ZM128.41,232a5.84,5.84,0,1,0-8.1,1.69A5.85,5.85,0,0,0,128.41,232Zm13.06-18a6.11,6.11,0,1,0-8.57,1.19A6.12,6.12,0,0,0,141.47,214Zm14.27-17a6.43,6.43,0,1,0-9.07.6A6.43,6.43,0,0,0,155.74,197Zm15.34-16a6.66,6.66,0,1,0-9.43,0A6.67,6.67,0,0,0,171.08,180.94ZM187.48,166a6.91,6.91,0,1,0-9.74-.71A6.93,6.93,0,0,0,187.48,166Zm17.39-13.77a7.14,7.14,0,1,0-10-1.42A7.15,7.15,0,0,0,204.87,152.26Zm18.26-12.52A7.36,7.36,0,1,0,213,137.57,7.38,7.38,0,0,0,223.13,139.74Zm19.08-11.23a7.56,7.56,0,1,0-10.29-2.92A7.55,7.55,0,0,0,242.21,128.51ZM262,118.58a7.72,7.72,0,1,0-10.27-3.72A7.72,7.72,0,0,0,262,118.58Zm20.4-8.54a7.87,7.87,0,1,0-10.19-4.49A7.85,7.85,0,0,0,282.36,110Zm20.89-7.16a8,8,0,1,0-10-5.25A8,8,0,0,0,303.25,102.88Zm21.36-5.65a8.13,8.13,0,1,0-9.77-6A8.13,8.13,0,0,0,324.61,97.23ZM346.27,93a8.17,8.17,0,1,0-9.39-6.74A8.17,8.17,0,0,0,346.27,93Zm21.9-2.75a8.23,8.23,0,1,0-8.95-7.43A8.24,8.24,0,0,0,368.17,90.21Zm22-1.3a8.22,8.22,0,1,0-8.42-8A8.21,8.21,0,0,0,390.21,88.91Zm22.09.18a8.17,8.17,0,1,0-7.8-8.53A8.17,8.17,0,0,0,412.3,89.09Zm22,1.68a8.08,8.08,0,1,0-7.11-9A8.08,8.08,0,0,0,434.32,90.77Zm21.86,3.16a8,8,0,1,0-6.38-9.28A8,8,0,0,0,456.18,93.93Zm21.6,4.62A7.83,7.83,0,1,0,472.16,89,7.84,7.84,0,0,0,477.78,98.55ZM499,104.67a7.67,7.67,0,1,0-4.86-9.7A7.68,7.68,0,0,0,499,104.67Zm20.79,7.54a7.5,7.5,0,1,0-4.09-9.79A7.49,7.49,0,0,0,519.82,112.21Zm20.26,8.94a7.29,7.29,0,1,0-3.3-9.77A7.29,7.29,0,0,0,540.08,121.15Zm19.59,10.3a7.08,7.08,0,1,0-2.54-9.69A7.09,7.09,0,0,0,559.67,131.45Zm18.87,11.64a6.86,6.86,0,1,0-1.81-9.52A6.87,6.87,0,0,0,578.54,143.09Zm18,12.9a6.62,6.62,0,1,0-1.11-9.29A6.63,6.63,0,0,0,596.58,156Zm17.11,14.14a6.37,6.37,0,1,0-.46-9A6.36,6.36,0,0,0,613.69,170.13Zm16.16,15.24a6,6,0,1,0,.16-8.54A6,6,0,0,0,629.85,185.37Zm15.07,16.36a5.77,5.77,0,1,0,.72-8.13A5.75,5.75,0,0,0,644.92,201.73Zm13.89,17.36a5.5,5.5,0,1,0,1.22-7.68A5.52,5.52,0,0,0,658.81,219.09Zm12.72,18.31a5.2,5.2,0,1,0,1.66-7.16A5.19,5.19,0,0,0,671.53,237.4Zm34.22,7a4.28,4.28,0,1,0,1.76-5.8A4.28,4.28,0,0,0,705.75,244.37ZM716,264.27a3.89,3.89,0,1,0,1.93-5.15A3.88,3.88,0,0,0,716,264.27Zm9,20.54a3.46,3.46,0,1,0,2-4.46A3.49,3.49,0,0,0,725,284.81Zm7.6,21.09a3.08,3.08,0,1,0,2-3.84A3.07,3.07,0,0,0,732.6,305.9Zm6.45,21.54a2.53,2.53,0,1,0,1.88-3.05A2.53,2.53,0,0,0,739.05,327.44Zm5,21.93a2,2,0,1,0,1.63-2.29A2,2,0,0,0,744.05,349.37Zm3.82,22.23a1.29,1.29,0,0,0,1.38,1.13,1.27,1.27,0,1,0-1.38-1.13ZM46.15,423.08a1.29,1.29,0,0,0-1.32-1.22,1.27,1.27,0,1,0,1.32,1.22Zm.33-22.55a1.79,1.79,0,1,0-1.83,1.75A1.78,1.78,0,0,0,46.48,400.53Zm2-22.42a2.53,2.53,0,1,0-5-.43,2.53,2.53,0,0,0,5,.43Zm3.08-22.26a3,3,0,1,0-3.37,2.49A3,3,0,0,0,51.54,355.85Zm4.59-22A3.46,3.46,0,1,0,52,336.52,3.47,3.47,0,0,0,56.13,333.89Zm5.81-21.67a3.78,3.78,0,1,0-4.68,2.59A3.78,3.78,0,0,0,61.94,312.22ZM69.18,291a4.18,4.18,0,1,0-5.34,2.54A4.18,4.18,0,0,0,69.18,291Zm8.55-20.67a4.54,4.54,0,1,0-6,2.36A4.56,4.56,0,0,0,77.73,270.37Zm9.82-20.07A4.88,4.88,0,1,0,81,252.43,4.87,4.87,0,0,0,87.55,250.3Zm11-19.4a5.19,5.19,0,1,0-7.12,1.82A5.19,5.19,0,0,0,98.6,230.9Zm12.23-18.63a5.49,5.49,0,1,0-7.63,1.42A5.48,5.48,0,0,0,110.83,212.27Zm13.41-17.81a5.78,5.78,0,1,0-8.11,1A5.76,5.76,0,0,0,124.24,194.46Zm14.42-17a6,6,0,1,0-8.45.48A6,6,0,0,0,138.66,177.5Zm15.54-15.94a6.24,6.24,0,1,0-8.82-.06A6.24,6.24,0,0,0,154.2,161.56Zm16.49-14.91a6.5,6.5,0,1,0-9.16-.66A6.51,6.51,0,0,0,170.69,146.65Zm17.41-13.83a6.73,6.73,0,1,0-9.44-1.29A6.74,6.74,0,0,0,188.1,132.82Zm18.19-12.73a6.91,6.91,0,1,0-9.58-1.92A6.89,6.89,0,0,0,206.29,120.09Zm19-11.48a7.13,7.13,0,1,0-9.74-2.62A7.12,7.12,0,0,0,225.27,108.61ZM244.93,98.3A7.29,7.29,0,1,0,235.17,95,7.27,7.27,0,0,0,244.93,98.3Zm20.24-9a7.4,7.4,0,1,0-9.68-4A7.41,7.41,0,0,0,265.17,89.25Zm20.76-7.74a7.51,7.51,0,1,0-9.53-4.68A7.52,7.52,0,0,0,285.93,81.51Zm21.23-6.4a7.61,7.61,0,1,0-9.35-5.34A7.59,7.59,0,0,0,307.16,75.11Zm21.56-5a7.73,7.73,0,1,0-9.11-6A7.73,7.73,0,0,0,328.72,70.09Zm21.83-3.74a7.72,7.72,0,1,0-8.7-6.6A7.72,7.72,0,0,0,350.55,66.35Zm22.05-2.28a7.77,7.77,0,1,0-8.33-7.18A7.77,7.77,0,0,0,372.6,64.07Zm22.11-.9a7.78,7.78,0,1,0-7.85-7.71A7.77,7.77,0,0,0,394.71,63.17Zm22.15.45a7.72,7.72,0,1,0-7.28-8.14A7.73,7.73,0,0,0,416.86,63.62Zm22.08,1.87A7.67,7.67,0,1,0,432.23,57,7.69,7.69,0,0,0,438.94,65.49Zm21.91,3.23a7.56,7.56,0,1,0-6.06-8.82A7.55,7.55,0,0,0,460.85,68.72Zm21.67,4.64a7.45,7.45,0,1,0-5.41-9A7.44,7.44,0,0,0,482.52,73.36Zm21.36,6a7.29,7.29,0,1,0-4.72-9.17A7.28,7.28,0,0,0,503.88,79.31Zm20.93,7.32a7.14,7.14,0,1,0-4-9.26A7.13,7.13,0,0,0,524.81,86.63Zm20.45,8.63A7,7,0,1,0,541.93,86,7,7,0,0,0,545.26,95.26Zm19.84,9.94A6.78,6.78,0,1,0,562.43,96,6.78,6.78,0,0,0,565.1,105.2Zm19.23,11.14a6.55,6.55,0,1,0-2-9A6.56,6.56,0,0,0,584.33,116.34Zm18.5,12.35a6.3,6.3,0,1,0-1.36-8.81A6.28,6.28,0,0,0,602.83,128.69Zm17.66,13.5a6,6,0,1,0-.76-8.52A6,6,0,0,0,620.49,142.19ZM637.3,156.8a5.78,5.78,0,1,0-.21-8.16A5.77,5.77,0,0,0,637.3,156.8Zm15.8,15.73a5.57,5.57,0,1,0,.3-7.87A5.57,5.57,0,0,0,653.1,172.53Zm14.82,16.64a5.27,5.27,0,1,0,.76-7.41A5.26,5.26,0,0,0,667.92,189.17Zm13.76,17.57a5,5,0,1,0,1.16-6.91A5,5,0,0,0,681.68,206.74Zm12.62,18.42a4.62,4.62,0,1,0,1.51-6.36A4.61,4.61,0,0,0,694.3,225.16Zm34.34,7a3.58,3.58,0,1,0,1.48-4.84A3.59,3.59,0,0,0,728.64,232.16Zm10.29,20a3.21,3.21,0,1,0,5.84-2.69,3.21,3.21,0,0,0-5.84,2.69Zm9.24,20.5a2.67,2.67,0,1,0,1.52-3.46A2.66,2.66,0,0,0,748.17,272.61Zm8,21a2.18,2.18,0,1,0,1.4-2.75A2.16,2.16,0,0,0,756.14,293.64ZM763,315.11a1.54,1.54,0,1,0,1.11-1.88A1.55,1.55,0,0,0,763,315.11ZM768.58,337a.89.89,0,0,0,1,.71.89.89,0,1,0-1-.71ZM21.43,379a.9.9,0,1,0-1,.82A.9.9,0,0,0,21.43,379Zm3.32-22.34a1.79,1.79,0,1,0-2,1.52A1.8,1.8,0,0,0,24.75,356.65Zm4.35-22.11a2.36,2.36,0,1,0-4.62-.94,2.36,2.36,0,1,0,4.62.94Zm5.53-21.8a2.82,2.82,0,1,0-3.44,2A2.8,2.8,0,0,0,34.63,312.74Zm6.87-21.38a3.33,3.33,0,1,0-4.2,2.13A3.32,3.32,0,0,0,41.5,291.36Zm8-21a3.68,3.68,0,1,0-4.78,2.06A3.68,3.68,0,0,0,49.47,270.39ZM58.73,250a4.08,4.08,0,1,0-5.43,2A4.08,4.08,0,0,0,58.73,250Zm10.42-19.82a4.45,4.45,0,1,0-6,1.79A4.46,4.46,0,0,0,69.15,230.16ZM80.64,211a4.71,4.71,0,1,0-6.5,1.51A4.71,4.71,0,0,0,80.64,211Zm12.65-18.43a5,5,0,1,0-7,1.19A5,5,0,0,0,93.29,192.53ZM107,174.89a5.34,5.34,0,1,0-7.51.83A5.34,5.34,0,0,0,107,174.89Zm14.66-16.83a5.56,5.56,0,1,0-7.86.38A5.56,5.56,0,0,0,121.66,158.06Zm15.63-15.9a5.78,5.78,0,1,0-8.18-.1A5.8,5.8,0,0,0,137.29,142.16Zm16.53-15a6,6,0,1,0-8.44-.6A6,6,0,0,0,153.82,127.2Zm17.44-13.89a6.23,6.23,0,1,0-8.74-1.15A6.23,6.23,0,0,0,171.26,113.31Zm18.16-12.87a6.43,6.43,0,1,0-8.93-1.71A6.41,6.41,0,0,0,189.42,100.44Zm18.93-11.7a6.67,6.67,0,1,0-9.14-2.33A6.68,6.68,0,0,0,208.35,88.74Zm19.52-10.65a6.79,6.79,0,1,0-9.13-2.94A6.79,6.79,0,0,0,227.87,78.09ZM248,68.67a7,7,0,1,0-9.18-3.56A7,7,0,0,0,248,68.67Zm20.63-8.24a7.08,7.08,0,1,0-9.1-4.16A7.05,7.05,0,0,0,268.66,60.43Zm21.08-7a7.19,7.19,0,1,0-9-4.79A7.2,7.2,0,0,0,289.74,53.42Zm21.45-5.77a7.24,7.24,0,1,0-8.73-5.36A7.26,7.26,0,0,0,311.19,47.65ZM333,43.17a7.3,7.3,0,1,0-8.47-5.9A7.29,7.29,0,0,0,333,43.17Zm22-3.17a7.35,7.35,0,1,0-8.16-6.45A7.34,7.34,0,0,0,354.93,40ZM377,38.09a7.35,7.35,0,1,0-7.75-6.93A7.36,7.36,0,0,0,377,38.09Zm22.19-.6a7.35,7.35,0,1,0-7.32-7.38A7.34,7.34,0,0,0,399.23,37.49Zm22.21.69a7.29,7.29,0,1,0-6.82-7.73A7.28,7.28,0,0,0,421.44,38.18Zm22.12,2a7.25,7.25,0,1,0-6.3-8.08A7.25,7.25,0,0,0,443.56,40.21Zm22,3.29a7.13,7.13,0,1,0-5.7-8.31A7.13,7.13,0,0,0,465.52,43.5Zm21.75,4.58a7,7,0,1,0-5.12-8.51A7,7,0,0,0,487.27,48.08ZM508.7,54a6.91,6.91,0,1,0-4.52-8.65A6.92,6.92,0,0,0,508.7,54Zm21.09,7.1a6.72,6.72,0,1,0-3.89-8.68A6.72,6.72,0,0,0,529.79,61.07Zm20.61,8.34a6.55,6.55,0,1,0-3.28-8.66A6.56,6.56,0,0,0,550.4,69.41ZM570.5,79a6.36,6.36,0,1,0-2.68-8.58A6.36,6.36,0,0,0,570.5,79ZM590,89.66a6.11,6.11,0,1,0-2.08-8.4A6.12,6.12,0,0,0,590,89.66Zm18.83,11.9a5.92,5.92,0,1,0-1.51-8.23A5.92,5.92,0,0,0,608.86,101.56Zm18.12,13a5.71,5.71,0,1,0-1-8A5.7,5.7,0,0,0,627,114.58Zm17.31,14a5.49,5.49,0,1,0-.48-7.75A5.5,5.5,0,0,0,644.29,128.63Zm16.52,15a5.2,5.2,0,1,0,0-7.35A5.2,5.2,0,0,0,660.81,143.66Zm15.55,16a5,5,0,1,0,.4-7A5,5,0,0,0,676.36,159.7ZM691,176.6a4.63,4.63,0,1,0,.76-6.51A4.65,4.65,0,0,0,691,176.6Zm13.65,17.74a4.27,4.27,0,1,0,1.05-6A4.27,4.27,0,0,0,704.65,194.34Zm12.59,18.52a3.89,3.89,0,1,0,1.29-5.34A3.89,3.89,0,0,0,717.24,212.86Zm35.06,6.68a2,2,0,1,0,3.5-1.87,2,2,0,0,0-3.5,1.87Zm10.23,20.1a1.79,1.79,0,1,0,.87-2.38A1.79,1.79,0,0,0,762.53,239.64Zm9.38,20.51a1.27,1.27,0,1,0,.7-1.65A1.26,1.26,0,0,0,771.91,260.15Zm8.09,21.1a.88.88,0,0,0,1.13.56.89.89,0,0,0-.57-1.68A.88.88,0,0,0,780,281.25ZM1.78,335.2a.9.9,0,0,0-.72-1,.9.9,0,0,0-1,.71.91.91,0,0,0,.71,1.05A.91.91,0,0,0,1.78,335.2Zm5.09-22a1.26,1.26,0,0,0-2.45-.61,1.26,1.26,0,1,0,2.45.61Zm6.47-21.61a1.78,1.78,0,1,0-2.22,1.18A1.8,1.8,0,0,0,13.34,291.6Zm7.36-21.31a2,2,0,1,0-2.56,1.18A2,2,0,0,0,20.7,270.29Zm8.7-20.78a2.36,2.36,0,1,0-3.1,1.23A2.37,2.37,0,0,0,29.4,249.51Zm9.78-20.28a2.68,2.68,0,1,0-3.59,1.2A2.68,2.68,0,0,0,39.18,229.23Zm10.74-19.76a2.82,2.82,0,1,0-3.84,1.05A2.82,2.82,0,0,0,49.92,209.47Zm11.94-19a3.1,3.1,0,1,0-4.28.9A3.1,3.1,0,0,0,61.86,190.44ZM74.73,172a3.21,3.21,0,1,0-4.48.7A3.18,3.18,0,0,0,74.73,172Zm14-17.5a3.56,3.56,0,1,0-5,.49A3.55,3.55,0,0,0,88.77,154.5Zm14.83-16.86a3.67,3.67,0,1,0-5.19.21A3.66,3.66,0,0,0,103.6,137.64Zm15.8-15.92a3.89,3.89,0,1,0-5.5-.08A3.88,3.88,0,0,0,119.4,121.72ZM136,106.63a4,4,0,1,0-5.62-.4A4,4,0,0,0,136,106.63Zm17.4-14.13a4.08,4.08,0,1,0-5.73-.73A4.1,4.1,0,0,0,153.39,92.5Zm18.22-13a4.28,4.28,0,1,0-6-1.1A4.29,4.29,0,0,0,171.61,79.45Zm18.82-12.18a4.28,4.28,0,1,0-5.88-1.42A4.27,4.27,0,0,0,190.43,67.27Zm19.46-11.09a4.28,4.28,0,1,0-5.79-1.76A4.27,4.27,0,0,0,209.89,56.18ZM230,46.37a4.46,4.46,0,1,0-5.92-2.16A4.46,4.46,0,0,0,230,46.37Zm20.66-8.59a4.72,4.72,0,1,0-6.13-2.65A4.73,4.73,0,0,0,250.7,37.78Zm21.05-7.6a4.8,4.8,0,1,0-6.07-3A4.8,4.8,0,0,0,271.75,30.18Zm21.44-6.4a4.89,4.89,0,1,0-6-3.44A4.88,4.88,0,0,0,293.19,23.78Zm21.75-5.26a4.89,4.89,0,1,0-5.8-3.76A4.87,4.87,0,0,0,314.94,18.52Zm22-3.95a5,5,0,1,0-5.66-4.15A5,5,0,0,0,337,14.57Zm22.19-2.8a5,5,0,1,0-5.42-4.45A5,5,0,0,0,359.15,11.77Zm22.31-1.55a5,5,0,1,0-5.16-4.75A4.94,4.94,0,0,0,381.46,10.22Zm22.36-.3a5,5,0,1,0-4.88-5A4.95,4.95,0,0,0,403.82,9.92Zm22.35.87a4.88,4.88,0,1,0-4.52-5.22A4.88,4.88,0,0,0,426.17,10.79ZM448.44,13a4.89,4.89,0,1,0-4.23-5.47A4.91,4.91,0,0,0,448.44,13Zm22.11,3.39a4.79,4.79,0,1,0-3.85-5.58A4.77,4.77,0,0,0,470.55,16.4ZM492.44,21A4.71,4.71,0,1,0,489,15.3,4.73,4.73,0,0,0,492.44,21Zm21.61,5.83A4.64,4.64,0,1,0,511,21.05,4.65,4.65,0,0,0,514.05,26.83Zm21.26,7A4.55,4.55,0,1,0,532.6,28,4.55,4.55,0,0,0,535.31,33.86Zm20.83,8.21a4.46,4.46,0,1,0-2.32-5.86A4.46,4.46,0,0,0,556.14,42.07Zm20.39,9.29a4.27,4.27,0,1,0-1.9-5.73A4.27,4.27,0,0,0,576.53,51.36Zm19.8,10.5a4.17,4.17,0,1,0-1.55-5.7A4.16,4.16,0,0,0,596.33,61.86Zm19.16,11.59a4.09,4.09,0,1,0-1.21-5.65A4.06,4.06,0,0,0,615.49,73.45ZM634.06,86a3.88,3.88,0,1,0-.84-5.42A3.88,3.88,0,0,0,634.06,86Zm17.86,13.58a3.67,3.67,0,1,0-.5-5.16A3.68,3.68,0,0,0,651.92,99.61Zm17,14.65a3.56,3.56,0,1,0-.21-5A3.54,3.54,0,0,0,668.91,114.26Zm16.26,15.5a3.33,3.33,0,1,0,.07-4.71A3.33,3.33,0,0,0,685.17,129.76Zm15.35,16.39a3.08,3.08,0,1,0,.3-4.35A3.07,3.07,0,0,0,700.52,146.15ZM715,163.37a2.82,2.82,0,1,0,.49-4A2.79,2.79,0,0,0,715,163.37Zm13.36,18.09a2.68,2.68,0,1,0,.69-3.73A2.69,2.69,0,0,0,728.34,181.46Zm12.5,18.71a2.36,2.36,0,1,0,.78-3.25A2.35,2.35,0,0,0,740.84,200.17Z"/></g></g></g></g></svg>