<svg xmlns="http://www.w3.org/2000/svg" viewBox="0 0 136.85 136.85"><title>6c44a82a-eda4-4894-8949-ef0d1cb73ffamdpi</title><g id="Layer_2" data-name="Layer 2"><g id="Layer_1-2" data-name="Layer 1"><g id="_6c44a82a-eda4-4894-8949-ef0d1cb73ffa" data-name="6c44a82a-eda4-4894-8949-ef0d1cb73ffa"><g id="_6c44a82a-eda4-4894-8949-ef0d1cb73ffa-child-0" data-name="6c44a82a-eda4-4894-8949-ef0d1cb73ffa-child-0"><path d="M43.29,91.73V54.58H34.7V45.05H55.14V91.73Z"/></g><g id="_6c44a82a-eda4-4894-8949-ef0d1cb73ffa-child-1" data-name="6c44a82a-eda4-4894-8949-ef0d1cb73ffa-child-1"><path d="M99.68,57.11a10.9,10.9,0,0,1-5.85,9.65c5.12,2.13,8.32,6.59,8.32,11.78,0,8.39-7.46,13.72-19.11,13.72S63.93,87,63.93,78.74c0-5.32,3.46-9.85,8.86-12-3.93-2.2-6.46-5.93-6.46-10,0-7.45,6.52-12.18,16.64-12.18S99.68,49.45,99.68,57.11ZM75.12,77.55c0,3.92,2.79,6.12,7.92,6.12s8-2.13,8-6.12-2.86-6.06-8-6.06S75.12,73.68,75.12,77.55Zm1.19-19.78C76.31,61.1,78.71,63,83,63s6.72-1.86,6.72-5.19S87.37,52.38,83,52.38,76.31,54.31,76.31,57.77Z"/></g><g id="_6c44a82a-eda4-4894-8949-ef0d1cb73ffa-child-2" data-name="6c44a82a-eda4-4894-8949-ef0d1cb73ffa-child-2"><path d="M121.87,50.32A56.37,56.37,0,1,1,86.53,15V2.43a68.39,68.39,0,1,0,47.89,47.89Z"/></g><g id="_6c44a82a-eda4-4894-8949-ef0d1cb73ffa-child-3" data-name="6c44a82a-eda4-4894-8949-ef0d1cb73ffa-child-3"><path d="M118.46,18.36V5.23H109V18.36H96v9.43h13V40.91h9.44V27.79h13.12V18.36Z"/></g></g></g></g></svg>