<svg xmlns="http://www.w3.org/2000/svg" viewBox="0 0 364.39 367.89"><defs><style>.cls-1{fill:#fff;}</style></defs><title>6d73b410-bedf-4d87-a860-fd41ed73a28cmdpi</title><g id="Layer_2" data-name="Layer 2"><g id="Layer_1-2" data-name="Layer 1"><g id="_6d73b410-bedf-4d87-a860-fd41ed73a28c" data-name="6d73b410-bedf-4d87-a860-fd41ed73a28c"><g id="_6d73b410-bedf-4d87-a860-fd41ed73a28c-child-0" data-name="6d73b410-bedf-4d87-a860-fd41ed73a28c-child-0"><path class="cls-1" d="M202,364.6c14.7.15,71.67-.59,86.76.86-9.92,2.77-206,3.42-217.07.67,12.76-1.82,79-1.44,91.88-1.49-50.25-7-92.5-28.64-124.23-68.7S-4.88,209.86,1.7,159.39c12.83-98.51,99.36-165,192-159a182.67,182.67,0,0,1,169.84,164c9.42,95.45-57,186-161.47,200.18Zm-19.85-27.32c84.42.56,154.36-68.48,155.31-152.56a155.66,155.66,0,0,0-154-157.57c-85.57-1-156.15,68.73-156.71,154.1a154.19,154.19,0,0,0,155.4,156Zm0-3.43c-84.86-.42-152-67.85-151.64-152.27.37-81.3,67.59-151.9,152.77-150.75,84,1.14,152.24,70.44,150.36,155.09-1.77,79.78-66.95,147.92-151.49,147.93ZM49.46,182c-.13,73.1,59.28,132.77,132.29,132.9A132.67,132.67,0,0,0,314.56,183c.35-72.48-57.23-132.8-132.51-133.45C109.12,48.87,49.58,108.76,49.46,182Zm10.27-.07c0-67.19,55-122.17,122.19-122.12s122.31,55.1,122.15,121.73c-.16,68.85-53.92,122.44-122.25,122.9-64.19.43-121.7-52.14-122.09-122.51Zm172.15-28.39a2.68,2.68,0,0,0,4.15-.72c3.34-6.19,6.51-12.32,10.16-18.16,2.1-3.36,1.31-4.85-1.5-7-14.11-10.59-29.94-17.26-47.08-20.86-2.9-.61-3.32-1.76-3.28-4.28.13-8.29,0-16.58.09-24.87,0-2.21-.47-3.18-2.94-3.13-8.13,0-15.54,0-24.11,0-2.46,0-2.65,1.09-2.63,3,.07,6.64-.09,13.27.12,19.9.1,3.22-.55,4.53-4.24,4.79-11.29.78-22.16,3.41-31.84,9.62-10,6.45-15.7,15.5-15.63,27.63.08,14.4,7.74,24.08,19.78,30.86a91.31,91.31,0,0,0,27.95,9.88c1.91.36,3.91.32,3.89,3.44-.13,16.46-.05,32.92,0,49.37,0,2.17-.52,2.73-2.65,1.74a118.31,118.31,0,0,1-13.73-7.48,170.73,170.73,0,0,1-31.66-26.39c-2.33-2.42-3.29-2.22-5.18,1.91A95.55,95.55,0,0,1,103,217.91c-2.61,3.7-3.28,5.19-.37,7.75,16.82,14.77,36.47,23.55,58.22,27.86,3.26.65,4.05,1.93,4,5-.15,9.18,0,18.37-.05,27.56,0,2.32.65,3.06,3,3,7.61,0,14.44,0,23.34,0,2.8.07,3.38-.95,3.33-3.52-.15-7.9-.12-15.82,0-23.72.08-6.16-1.39-5.41,5.62-5.91,15.64-1.12,30.43-4.92,43.24-14.44,17.25-12.82,21-35.4,8.58-52.09-5.21-7-12.36-11.68-20.05-15.58-11-5.55-22.64-9.08-34.52-12-2.38-.58-2.85-1.26-2.85-4.95,0-8.64.09-16.75.09-26.75,0-5.44.14-5.72,2.61-4.27a124.8,124.8,0,0,1,18.95,13.54c5.31,4.59,10.51,9.31,15.81,14.07Zm-37.42,59.23c0,7.63,0,15.27,0,22.91,0,1.76.15,3,2.46,2.53,6.5-1.41,12.81-3.35,18.19-7.41,12.13-9.16,11.94-26.19-.29-35.24-5.32-3.93-11.4-6-17.7-7.68-2.17-.56-2.83.09-2.79,2.36.13,7.51.05,15,.05,22.53Zm-29.73-88.07c.06-2.59-.9-3-3.22-2.31a25.64,25.64,0,0,0-11,5.89c-6.51,6.25-6,15.38,1.1,20.9,3,2.37,6.63,3.68,10.22,5,2.18.81,2.95.44,2.89-2-.11-4.58,0-9.18,0-13.77s-.08-9.18,0-13.77Z"/></g></g></g></g></svg>