<svg xmlns="http://www.w3.org/2000/svg" viewBox="0 0 310.38 260.94"><defs><style>.cls-1{fill:none;}.cls-2{fill:#2d2d2d;}</style></defs><title>6dac2797-a070-4b1f-b44e-d9bd9d314f8fmdpi</title><g id="Layer_2" data-name="Layer 2"><g id="Layer_1-2" data-name="Layer 1"><g id="_6dac2797-a070-4b1f-b44e-d9bd9d314f8f" data-name="6dac2797-a070-4b1f-b44e-d9bd9d314f8f"><g id="_6dac2797-a070-4b1f-b44e-d9bd9d314f8f-child-0" data-name="6dac2797-a070-4b1f-b44e-d9bd9d314f8f-child-0"><path class="cls-1" d="M133.18,188.33C108.24,203,85,213.83,66,219.5l-.55.27a4.22,4.22,0,0,1-1.91.48h-.36C42.36,226,28.73,225,22.48,217.79c-2.91-3.34-4.09-7.88-3.47-13.48a31,31,0,0,1,.76-4.16l-3.08-1.23C10,210.51,6,220.73,5,229.29c-.94,7.64.48,13.79,4.18,18.3,4.93,5.95,13.5,8.82,24.89,8.82,28,0,73.19-17.34,123-48.69l2.06-1.33-25-18.67Z"/></g><g id="_6dac2797-a070-4b1f-b44e-d9bd9d314f8f-child-1" data-name="6dac2797-a070-4b1f-b44e-d9bd9d314f8f-child-1"><path class="cls-1" d="M276.58,21.92c-2.64,0-5.29.18-7.92.46l-.37,3.25a16.56,16.56,0,0,1,7.32,4.63c2.91,3.35,4.08,7.88,3.47,13.48-2.59,23.71-36.7,64.57-86.89,104l-.57.46L189,182.62v3.44l3.24-2.34C254.88,137,301.56,81.64,305.47,49c.94-7.64-.48-13.81-4.19-18.3C296.4,24.87,288.11,21.92,276.58,21.92Z"/></g><g id="_6dac2797-a070-4b1f-b44e-d9bd9d314f8f-child-2" data-name="6dac2797-a070-4b1f-b44e-d9bd9d314f8f-child-2"><path class="cls-2" d="M304.83,27.7C290,9.73,248.17,16,197.13,40.62c-3.31,1.58-6.67,3.24-10,5L180.52,5.05a6,6,0,0,0-11-2.33L126.82,68a6.05,6.05,0,0,1-4.21,2.66L55.34,80a6,6,0,0,0-4.15,9.34L74.94,124C32.11,162.71,3.55,202.08.31,228.79c-1.08,9,.68,16.31,5.24,21.84,5.78,7,15.63,10.31,28.53,10.31,30.28,0,77.36-18.34,127.58-50.45l16.51,12.39a6,6,0,0,0,9.63-4.35l2.14-27.4c1.65-1.2,3.31-2.36,5-3.59,64.7-48.11,111-103.53,115.16-138C311.15,40.58,309.45,33.23,304.83,27.7Zm-47.17,1c6.76,0,11.69,1.54,14.4,4.65,2,2.32,2.81,5.66,2.35,9.88-1.06,9.67-8,22.68-19.45,37.35a5.91,5.91,0,0,0-2.77-1.21l-56.72-8.42a6,6,0,0,1-5.07-5l-2.2-13.53a368,368,0,0,1,35.15-16.12C237.26,31.27,249,28.69,257.66,28.69Zm-234,176.19c1.9-17.46,23-45.69,55-75.3l6.73,9.81A6,6,0,0,1,86,145.1L57.73,213.65a5.9,5.9,0,0,0-.32,3.45c-15.67,3.71-26.73,3-31.39-2.37C24,212.43,23.21,209.11,23.68,204.88Zm-13.22,41.7c-3.4-4.14-4.7-9.86-3.82-17,1-8.53,5.05-18.68,11.49-29.74a41,41,0,0,0-.79,4.38c-.67,6.07.64,11,3.88,14.75,4,4.66,10.67,6.76,19.12,6.76a89.74,89.74,0,0,0,23.23-3.78,5.91,5.91,0,0,0,2.67-.68l.23-.12c19.74-5.89,43.44-17.09,67.61-31.35l22.11,16.59C89.51,248.3,27,266.65,10.46,246.58ZM303.74,48.79C299.82,81.08,253.51,136,191.1,182.42a6.13,6.13,0,0,1-.51.38l2.67-33.66c50.28-39.58,84.84-80.81,87.51-105.22.67-6.07-.64-11.05-3.88-14.75a17.94,17.94,0,0,0-8-5.13,77.29,77.29,0,0,1,7.76-.44c10.67,0,18.75,2.67,23.33,8.15C303.32,35.89,304.61,41.61,303.74,48.79Z"/></g></g></g></g></svg>