<svg xmlns="http://www.w3.org/2000/svg" viewBox="0 0 531.14 531.14"><defs><style>.cls-1{fill:#fff;}</style></defs><title>6e6cbdbe-ec85-4962-8687-65a55b49c2e9mdpi</title><g id="Layer_2" data-name="Layer 2"><g id="Layer_1-2" data-name="Layer 1"><g id="_6e6cbdbe-ec85-4962-8687-65a55b49c2e9" data-name="6e6cbdbe-ec85-4962-8687-65a55b49c2e9"><g id="_6e6cbdbe-ec85-4962-8687-65a55b49c2e9-child-0" data-name="6e6cbdbe-ec85-4962-8687-65a55b49c2e9-child-0"><path d="M525.59,265.56c0,143.61-116.42,260-260,260s-260-116.42-260-260,116.41-260,260-260S525.59,122,525.59,265.56Z"/></g><g id="_6e6cbdbe-ec85-4962-8687-65a55b49c2e9-child-1" data-name="6e6cbdbe-ec85-4962-8687-65a55b49c2e9-child-1"><path class="cls-1" d="M265.56,0C119.13,0,0,119.14,0,265.56S119.13,531.14,265.56,531.14,531.14,412,531.14,265.56,412,0,265.56,0Zm0,516.33c-138.26,0-250.75-112.49-250.75-250.77S127.3,14.81,265.56,14.81,516.33,127.3,516.33,265.56,403.84,516.33,265.56,516.33Zm0-483.54C137.22,32.79,32.8,137.22,32.8,265.56S137.22,498.34,265.56,498.34,498.34,393.92,498.34,265.56,393.92,32.79,265.56,32.79ZM370.38,265.56c0,12.37-.44,24.26-1.23,35.65-31-5.61-66.52-8.72-104.37-8.72-37.21,0-72.22,3-102.81,8.43-.78-11.29-1.22-23.06-1.22-35.36a483.08,483.08,0,0,1,3.63-60.34,652.11,652.11,0,0,1,101.22-7.67,652.24,652.24,0,0,1,101.23,7.67A483,483,0,0,1,370.38,265.56Zm-2.57,51.17c-3.72,35.69-11.28,65.89-21.34,90.4-23.53-4.87-51.23-7.61-80.91-7.61s-57.37,2.74-80.89,7.61c-10.08-24.53-17.67-54.81-21.38-90.64,28.87-5.28,63.08-8.5,101.49-8.5C303.87,307.92,338.63,311.28,367.81,316.73ZM265.56,182.11a676.11,676.11,0,0,0-98.79,7c5.68-33.92,15.06-62,26.72-83.88a558.29,558.29,0,0,1,72.07-4.48,558.6,558.6,0,0,1,72.09,4.48c11.65,21.89,21,50,26.72,83.88A676.29,676.29,0,0,0,265.56,182.11ZM89.48,138.4c15.11-12,44.7-23.27,85.15-30.37-10.64,22.82-19,50.78-24,83.67-42.66,7.73-77.27,19.76-98.83,34.77A216.26,216.26,0,0,1,89.48,138.4Zm267-30.37c40.49,7.07,70.09,18.41,85.2,30.38a216.42,216.42,0,0,1,37.66,88.09c-21.55-15.05-56.19-27.05-98.85-34.78C375.45,158.81,367.11,130.85,356.47,108Zm61.11,2.41c-18.78-7.33-42.19-13.14-68.69-17.1-9.06-16-19.36-28.87-30.39-38.56A217.17,217.17,0,0,1,417.58,110.44ZM329.17,90.8A608.35,608.35,0,0,0,202,90.8c18.59-28.06,41.36-42.57,63.52-42.57S310.51,62.74,329.17,90.8ZM182.28,93.34c-26.49,3.94-49.89,9.77-68.68,17.09a217.24,217.24,0,0,1,99.07-55.64c-11.06,9.68-21.36,22.54-30.43,38.55ZM48.88,249.54C63.56,232,100.37,217.25,148.48,208a509.79,509.79,0,0,0-3.16,57.55c0,13.36.5,26.11,1.38,38.35-38.83,8.36-69,20.87-85.29,36.21a216.24,216.24,0,0,1-13.14-74.56C48.23,260.17,48.5,254.84,48.88,249.54ZM67.77,355.45l.24.18c10.56-13.41,38.69-26.92,80-36.12,3.76,35.64,11.26,66.05,21.31,91.18-19.25,5.2-34.72,12-44.81,20A218.7,218.7,0,0,1,67.77,355.45Zm69.29,85.23c8.4-5.78,21.47-11.28,38.51-15.7,10.54,22.06,23.23,39.2,37.09,51.36a216.69,216.69,0,0,1-75.6-35.64Zm54.14-19.19c20.81-4.05,45.88-6.6,74.36-6.6s53.57,2.55,74.38,6.6c-20.15,40.39-47.7,61.45-74.38,61.45s-54.21-21.06-74.36-61.43ZM355.56,425c17.05,4.42,30.14,9.91,38.53,15.69a216.33,216.33,0,0,1-75.59,35.66C332.33,464.2,345,447.06,355.56,425Zm51,5.76c-10-8-25.5-14.83-44.82-20,10.05-25.07,17.5-55.37,21.27-90.86,40.51,9.19,68.08,22.53,78.51,35.78l2.69-2.12a218.39,218.39,0,0,1-57.64,77.24Zm62.72-89.51c-15.7-15.62-45.84-28.42-84.87-37,.9-12.36,1.4-25.21,1.4-38.69A509.79,509.79,0,0,0,382.65,208c48.12,9.27,84.94,24,99.61,41.54.38,5.3.65,10.62.65,16a216.35,216.35,0,0,1-13.62,75.69Z"/></g></g></g></g></svg>