<svg xmlns="http://www.w3.org/2000/svg" viewBox="0 0 36.24 35.58"><defs><style>.cls-1{fill:#010101;}</style></defs><title>Asset 153mdpi</title><g id="Layer_2" data-name="Layer 2"><g id="Layer_1-2" data-name="Layer 1"><path class="cls-1" d="M24.87,35.58A1.27,1.27,0,0,1,24,35.2a1.3,1.3,0,0,1,0-1.84L34,23.29a1.31,1.31,0,1,1,1.85,1.85L25.79,35.2A1.27,1.27,0,0,1,24.87,35.58Z"/><path class="cls-1" d="M34.94,35.58A1.29,1.29,0,0,1,34,35.2L24,25.14a1.3,1.3,0,1,1,1.84-1.85L35.86,33.36a1.32,1.32,0,0,1,0,1.84A1.29,1.29,0,0,1,34.94,35.58Z"/><path class="cls-1" d="M1.81,17.59A1.81,1.81,0,0,1,.53,14.51l14-14a1.79,1.79,0,0,1,2.55,0,1.8,1.8,0,0,1,0,2.56l-14,14A1.79,1.79,0,0,1,1.81,17.59Z"/><path class="cls-1" d="M15.78,17.59a1.75,1.75,0,0,1-1.27-.53l-14-14A1.81,1.81,0,0,1,3.09.53l14,14a1.79,1.79,0,0,1,0,2.55A1.76,1.76,0,0,1,15.78,17.59Z"/></g></g></svg>