<svg xmlns="http://www.w3.org/2000/svg" viewBox="0 0 2385.96 1993.45"><defs><style>.cls-1{fill:#9f1111;}</style></defs><title>719cca10-9a86-48bd-b2df-e1e23c51d1acroster</title><g id="Layer_2" data-name="Layer 2"><g id="Layer_1-2" data-name="Layer 1"><g id="_719cca10-9a86-48bd-b2df-e1e23c51d1ac" data-name="719cca10-9a86-48bd-b2df-e1e23c51d1ac"><g id="_719cca10-9a86-48bd-b2df-e1e23c51d1ac-child-0" data-name="719cca10-9a86-48bd-b2df-e1e23c51d1ac-child-0"><path class="cls-1" d="M1803.78,1993.4c-11.08.88-11.21-10.19-11.94-21C1799.8,1975.16,1805,1980.63,1803.78,1993.4Zm-66-21.81c.78,6.71,3,11.85,7.91,14C1747.07,1976.36,1751.18,1971.34,1737.82,1971.59Zm-40-5.15c8.23-1.48,4.64,10.27,11.34,10.24,4.54-10.43-7.44-21.25-11.25-10.24Zm145-191.07.74,14.35,7.18-.37L1850,1775Zm-853.21-67.83c-16.56-1-13.91,12.85-9.68,22.08C993,1731.07,990.38,1718.45,989.65,1707.54ZM788.86,1725c.12,2.25-.21,4.43-3.38,3.8l.37,7.17C795,1741.24,795.84,1723.36,788.86,1725Zm377.54-12.19c4.82,1,7.13,4.76,14.53,2.83l-.74-14.44C1170.72,1700.8,1165,1703.48,1166.4,1712.85Zm-107.78,5.54c0-8.83-.26-17.25-4.71-21.39l-10.75.55C1037.66,1704.77,1041.8,1724.37,1058.62,1718.39Zm-676.14,16.7.36,7.09,7.18-.37-.37-7.17Zm1206.93-58.35c2.26.15,4.43.35,3.8,3.39,4.38-.49,8.48-1.46,6.8-7.55C1596,1673.41,1589.81,1672.53,1589.41,1676.74Zm-302,8.27c2-11.18,2.2-7-.92-17.91C1271.75,1664.41,1273,1689.37,1287.38,1685ZM744,1691.33l.37,7.18,7.17-.37-.36-7.18ZM1311,1655l.37,7.17,7.18-.36-.37-7.18Zm790.32-37-.37-7.17-7.18.37.37,7.17Zm-1843,83.82c-3.61.18-4.55-2.59-7.36-3.2.56,5.67.16,12.44,7.73,10.42Zm1284.09-94.71c-6.66,7.84-1.46,24.08,1.65,32.31,27,1.48,24.11-34.39-1.43-32.32Zm-391.3,23.66c-11.31-1-11.18,8.43-9.86,18.56,15,3.25,17.49-11.84,10.08-18.57Zm284.63,3.44,7.17-.37-.36-7.17-7.18.37Zm258-24.06c10.34,5.34,9.07-15.92,2.88-14.54-.76,5-4.54,7.12-2.66,14.53Zm-449.06,23.06c4.15-5,4.12-13.46-4.35-14.17,1.2,5.32-.29,13.34,4.79,14.14Zm498.1-47.16c-5.5-4.84-14.18-4.53-10.42,7.73a10,10,0,0,0,10.77-7.75Zm208.47-7.13-.37-7.18-7,.36.37,7.18Zm-252.86-15.8c6.71,5.17,3.9,20.94,15.46,20.79,2-12.28-7.69-31.12-15.11-20.81ZM1634,1570c.79,6.72,3,11.86,7.87,14a20.07,20.07,0,0,1,2.88-14.54Zm-1002.81,37.1c-13.74-2-6.55,23.73,4.53,17.78a23.31,23.31,0,0,0-4.18-17.8Zm370.74-1c10.2.05,9.85-9.34,9.82-18.52-10.83-1.12-10.62,8.1-9.33,18.49Zm322.69-27.39c-3.12-10.78,3.06-13.4,2.5-21.71-6.69,1.23-8.13-3.64-14.58-2.87,1.56,11.48-1.67,27.67,12.56,24.56Zm606.61-38.34c-.18-3.61,2.77-4.55,3.2-7.36-3.56.19-4.55-2.63-7.36-3.24.19,3.61-2.59,4.55-3.24,7.36,4.09-.21,5.17,2.74,7.89,3.22Zm-402.45,17.05-.92-18c-14.8-2.06-10.81,19.94,1.41,17.94Zm268.25-35.36.74,14.35c11.69,2.53,10.94-6.12,13.84-11.52-4.37-.8-6.69-4.74-14.1-2.86ZM737.2,1569.23l-14.39.74c-.22,10.38.57,19.65,11.71,17.4-3-10,5.11-9.53,3.17-18.17Zm1548.69-65.09c-.32-12.43-19.41-23.9-29.48-12.92,10.23,4.16,14,15.35,30,12.9Zm-632.49,25.28c-6.51-1.34,1.44-3.82,3.24-7.4-2.24.11-4.42-.22-3.79-3.38-18.83-2.17-2.23,20.2,1,10.76Zm-327,13.17-10.78.56c-4.22,10.72,17,9.63,11.27-.58Zm-139.9,10.81-.37-7.22-7.18.36.37,7.22Zm104.16-5.35-.37-7.22-7.22.37.37,7.22ZM270.08,1589.64l.37,7.17,7.22-.37-.37-7.18Zm940.83-51.93c-6.2-1.18.51-4.66-.55-10.74-14.63-5.43-3.22,26.87,1,10.71Zm527.59-34.24-10.79.55c-4.22,10.68,17,9.59,11.27-.58Zm21.71,2.46c16.41,4.1,16.87-15.26,9.68-22.13l-10.79.56c-6.88,7.85,2.84,10.45,1.6,21.55Zm115-5.9c.17-8.84-6.12-10.94-11.52-13.8-.09,9.45,2.64,15.27,12,13.77Zm445.18-26.48c5,4.38,13.46,4.12,14.17-4.3-4.55-4.45-13.05-4-13.68,4.28Zm-1301.09,48.79c-4.18,4.63-.8,13.73,4.53,17.83,5.18-4.82,5.09-17.83-4-17.85Zm223-4.25-.37-7.18-7.18.37.37,7.18Zm-119.44-11.84.55,10.75,7.66-.4-.55-10.74ZM1594,1485.77l-.37-7.18-7.17.37.36,7.18Zm-988.61,32.62a24,24,0,0,0-17.77,4.53c1.09,12.7,4.73,22.53,15.64,24.4C609.31,1542.2,613.33,1525.93,605.43,1518.39Zm-169.34-2.08c.78,6.71,3,11.81,7.87,14a20.11,20.11,0,0,1,2.87-14.54Zm1796-88.64,14.36-.73a7.67,7.67,0,1,0-14.36.73ZM492.8,1499l-14.35.74.74,14.4Q496.08,1515.66,492.8,1499Zm1002.77-37,7.18-.37C1514.44,1454.54,1491.06,1444.58,1495.57,1461.91Zm125.14-17.24c7.87.17,1-12.81,2.69-18.15a16.71,16.71,0,0,1-10.93-3C1607.75,1428.7,1610.1,1445.22,1620.71,1444.67Zm28.75-1.47-.37-7.18-7.17.37.36,7.17Zm-1305,41.8a20.14,20.14,0,0,0-14.17,4.34c.2,9.88,6.32,7,.74,14.36C350.17,1503.15,340.32,1496.16,344.43,1485ZM1588,1439.16c-2-6.66,3.82-21.83-8.1-17.6C1580,1430.57,1580.26,1439.11,1588,1439.16ZM1555,1426.42c-4.17,4.63-.79,13.72,4.54,17.78C1561.06,1436.61,1565.07,1430.4,1555,1426.42ZM1239.65,1457c11.08-9.39-9.49-21.58-11.16-6.66C1233.65,1451,1235,1456.05,1239.65,1457Zm505.19-47.57c-.57,9.48,2.11,15.35,11.48,13.81-.23-4.41,4.41-5.18,3.06-10.93-4.68-.82-7-4.76-14.41-2.88Zm-1353.65,76.7a9.91,9.91,0,0,0,7.73,10.42c-.46-5.54-.06-12.44-7.6-10.42Zm56.72-17.3c-9.48-.57-15.34,2.16-13.8,11.52,5.34,5.11,17.27,1.06,13.93-11.53Zm1019.39-66.73c-5.39,12-.09,18.9,8.51,24.77C1496.46,1426.86,1492.32,1392.6,1467.3,1402.14Zm784.06-18.67c9.48.57,15.34-2.11,13.8-11.53C2255.21,1364.69,2242.64,1371.91,2251.36,1383.47Zm-962.35,53c4.42-5,4.12-13.46-4.31-14.21C1285.6,1427.67,1284.15,1435.69,1289,1436.5Zm240.09-23.14c10.51.07,10.17-15.09,6.25-18.33C1523,1392.3,1530.38,1406.54,1529.1,1413.36Zm134.44-46.63c-15.44.08-14,12.77-28.56,5.08,0,17.66,4.73,30.22,19.62,31.39-3.58-17.25,25.05-18.59,9-36.39ZM1109.23,1442c9.16-3.16,14.74-20,5.75-29.07l-14.4.73c-4.54,11.27-2.21,24.79,8.66,28.43Zm-436.56-17.18c-.71,5.11-7.75,4.59-10.42,7.73-.44,6.91,4.42,7.72,4.31,14.17,10.13,2.26,14.36-18.48,6.12-21.81Zm255.88,4.87-.36-6.87-7.17.37.37,7.18Zm1421.9-79.89c2.7-3.32-2.72-10.1-4.12-10.6C2332.59,1334.58,2344.69,1357.09,2350.45,1349.82ZM1158.05,1411c10.34,5.3,9.12-15.91,2.87-14.58C1160,1401.23,1156.16,1403.42,1158.05,1411Zm-402.22,20.65-.92-18C739.43,1411.44,743.61,1433.43,755.83,1431.69Zm681.67-49.43c-.81,5-4.76,7.17-2.88,14.58,10.35.31,13.06-14.84,2.86-14.8Zm-380.2,30.12-.73-14.36-10.79.56C1047.63,1405.37,1047.93,1413.92,1057.3,1412.38Zm455.93-27-.74-14.36-7,.37.74,14.35Zm186.8-9.59-.92-18c-15-2.36-10,18.53.79,18Zm-854.81,43.89c1.14-7,10-7,6.25-18.34-4.8-.76-7.12-4.71-14.53-2.82C837.43,1408.08,836.05,1419.85,845.22,1419.65Zm-759.29,10.2-10.79.55c.2,9.88,6.36,6.87.74,14.36C88,1447.75,87.56,1439.21,85.93,1429.85Zm995.72-36.73c7.83.21,1-12.81,2.69-18.15-14.77-7.32-14.85,23-2.82,18.15Zm599.77-30.8-.37-7.18-7.13.37.36,7.18Zm168.84-8.67-.37-7.17-7.18.36.37,7.18Zm-1106.2,56.8c-2.38-11.14,7.79-15.1-4.53-17.78-5.54,5.67-2.07,14.81,4.27,17.79Zm883.33-49c-6.2-1.19.51-4.67-.55-10.75-15.25-5.39-3.83,26.91.41,10.75Zm7.17-.37c10.55,0,10.18-15.09,6.25-18.38-12.42-2.89-5,11.56-6.38,18.43Zm-352.49,7.28.36,7.18,6.92-.36L1289,1368Zm880.27-38-.37-7.18-7.18.37.37,7.18ZM603.23,1403.25l-10.74.55c-4.83,10.79,16.39,9.71,10.61-.5Zm175.36-23.44L779,1387l7.14-.36-.37-7.18ZM1180.45,1352l.74,14.4,7.22-.38-.74-14.39Zm298.88-1c10.46.08,10.17-15,6.21-18.28-12.47-2.94-5.14,11.56-6.43,18.34Zm420.18-21.57-.37-7.18-7.17.37.36,7.18Zm215-21.81-.37-7.17-7.53.38.37,7.18Zm-973.7,42.8-14.35.74c-2.36,14.11,17.71,13.08,14.13-.68Zm481.48-21.15c10.51.08,10.13-15,6.21-18.32-12.47-2.9-5.15,11.56-6.43,18.38Zm-467.12,20.41c11.63-7.22-11.65-17.06-7.14.37Zm68.24-3.5-.56-10.79L1212,1336l.55,10.78Zm322.09-34.5c.49,14.67,14,14.86,29.49,12.87C1591.18,1295.84,1547.91,1282.75,1545.46,1311.7Zm-275.79,28.55c8.83,0,17.38-.28,21.39-4.68.19-12.76-6.06-18.45-18.93-17C1268.17,1323.06,1268.78,1331.46,1269.67,1340.25Zm-197.54,10.14-.55-10.74-7.18.37.55,10.74Zm92.46-22.76.36,7.18,7.18-.37-.37-7.18Zm266.15-6.47-.37-7.17-7.31.37.37,7.18Zm-959.85,31.32c-2.7-2.73-20.48-6.94-21.57,1.11,6.77,3.84,3.53,19,18.7,13.43C469,1362.16,472.73,1359.89,470.89,1352.48Zm847.4-47.13c-5.28,5.52-2.47,18.89,8.14,17.59C1326.55,1314.11,1326.25,1305.52,1318.29,1305.35ZM1060.42,1333c7.95-.85.76-15.36,2.51-21.71C1050.35,1306.22,1047.12,1336.22,1060.42,1333Zm634.87-47c-15.16-5.4-3.74,26.9.55,10.79C1689.72,1295.46,1696.48,1292.07,1695.29,1286Zm-600,27.19q-1.61,17,15.14,13.66l-.74-14.4Zm-262.17,13.46-14.14.73.74,14.39q16.81,1.62,13.53-15.13Zm930.41-44.15.36,7.18,7.14-.37-.37-7.18ZM600,1345.85l10.78-.55c.65-8.16-1.57-13.43-7.91-14-.8,5-4.59,7-2.74,14.57Zm1253.22-71.59.37,7.18,7.18-.37-.37-7.17Zm254.45-23.83-14.35.74a19.46,19.46,0,0,0,4.34,14.16C2107.12,1265.91,2109.23,1259.8,2107.69,1250.43Zm-872.54,48.37-10.79.56C1219.79,1310.1,1240.92,1309,1235.15,1298.8Zm-463.7,16.62.37,7.17,7.17-.36-.37-7.18Zm410-10.24c-.6-5.66-.19-12.44-7.73-10.42A9.91,9.91,0,0,0,1181.44,1305.18Zm215.14-18.24c4.37-.84,10.2,0,10.6-4.16-4.8.24-3.62-6.13-7.59-6.81C1399.7,1280.6,1395.22,1281.14,1396.58,1286.94Zm-338.19,6.55c6-.31,2.5,9.94,7.73,10.42a20.3,20.3,0,0,1,2.87-14.58C1064.84,1290.16,1058.79,1289.28,1058.39,1293.49Zm32.69,5.52c9.52.57,15.38-2.16,13.84-11.53-6.45-6.11-14.2,2-13.71,11.52Zm136.48-7c.28-5.71,11.15-19.2,2.46-21.76-5.22,6.72-20.94,4.08-20.84,15.51,2.9.6,4.56,2.76,4,7Zm1041.52-53.48-.37-7.17-7.18.36.37,7.18Zm-1127.87,54.2a9.75,9.75,0,0,0,10.37-7.77C1146.09,1280.29,1137.41,1280.6,1141.21,1292.72Zm-524.77,19.71-10.74.55c-4.74,10.88,16.53,9.79,10.75-.42Zm334-17.15c1.14-7,10-7,6.25-18.33-7-13.73-22.14-1.38-36.1-1.72,3,14.5,10.25,24.37,29.86,20.18Zm1015.93-59.23.37,7.18,7.13-.37-.37-7.17Zm-1634.34,80.3.37,7.22,7.14-.37-.38-7.22Zm1961.33-93.47-.37-7.22-7.17.37.37,7.22Zm-281.2-7.19c8.27,6.33,22.41,25.56,33.19,16.31-6.19-1.18.52-4.66-.55-10.79-12.2,2.17-25.45-14.27-32.51-5.52Zm-606.25,45.52a10,10,0,0,0,7.73,10.42c-.46-5.5-.06-12.45-7.59-10.43Zm-387.72,23.53c-2.7-11.25,6.16-11.44-.93-18-13.07-2.77-6.45,20.46,1.06,18Zm139.31-21.55.56,11,7.31-.37-.57-11ZM1733.07,1248c-.6-5.48-.2-12.43-7.74-10.41A10,10,0,0,0,1733.07,1248Zm-679.17,27.68c-1.09-6.7,3.65-8.13,2.83-14.54-4.15.79-10.2-.09-10.56,4.12C1052.17,1265.16,1048.64,1275.41,1053.9,1275.71Zm-708.46,18.37c-13.6-6.94-15.22,19.1-2.87,14.53C348,1307.76,345.25,1299.78,345.44,1294.08ZM2317.69,1200l-10.74.55C2302.07,1211.31,2323.38,1210.22,2317.69,1200Zm-21.71-2.46.36,7.17c9.1,5.23,10-12.65,3.06-11-.19,2.26-.53,4.22-3.56,3.8Zm-712,22.12c-8.91-1.62-16.4,24.59-2.5,21.76C1589.4,1240.58,1582.2,1225.94,1584,1219.67Zm-264.86,31.61c-6.25-1.18.46-4.66-.56-10.79C1303.43,1235.13,1314.71,1267.4,1319.14,1251.28Zm-25.14,1.29c-6.24-1.18.51-4.66-.56-10.79C1278.29,1236.42,1289.7,1268.68,1294,1252.57Zm-463.33,23.79c2.47-10.33-5.59-9-4.53-17.78-10,8.33-20.94-5.37-24.78,8.47C813.86,1264.46,810.14,1279.84,830.67,1276.36Zm702.82-57.67c-5.26,5.83-5.16,25,8.28,21.16C1541.29,1230.42,1542.67,1218.66,1533.49,1218.69Zm-24,22.81c7-9.8,8.17-25.62-8.47-24.77C1495.34,1223.51,1497.12,1243.55,1509.46,1241.5Zm89.22-15.35.55,10.75,10.78-.56-.55-10.74Zm104.2-5.39c-2.38-11.14,7-14.44-1.1-21.53l-10.92.56C1691.42,1210.71,1690.09,1223.53,1702.88,1220.76Zm186.58-13.16-7.18.37c.19,3.57-2.63,4.55-3.24,7.36C1884.71,1214.82,1891.48,1215.14,1889.46,1207.6Zm-650.82,19c-13.27-.51-17.23-11.3-32.92-9.13l.92,18c14.69-3.63,11.65,12.64,25.74,9.45.61-2.73,2.77-4.56,7-3.94Zm-380.33,26.72c6-.31,2.58,9.89,7.69,10.38C868.79,1256.26,861.73,1241.61,858.31,1253.35ZM1770.48,1203l-10.78.55.36,7.18c3.61-.19,4.56,2.77,7.37,3.24C1767.28,1209.37,1771.7,1208.71,1770.48,1203Zm-1127.77,57.9c-6.24-1.18.51-4.66-.55-10.78l-10.79.55c-.64,6.44,7.69,20.8,11.26,10.24Zm1411.66-68.86c-.23-4.4,4.41-5.17,3.06-11l-10.79.56.37,7.17c3.48-.18,4.42,2.64,7.27,3.12Zm-772.17,39.65c-.6-5.66-.2-12.44-7.73-10.42a9.73,9.73,0,0,0,7.5,10.3ZM886,1230.43c-15-.86-8.59,13.2-2.64,18.15,4.1-8.73-.92-6.66,2.55-18.27Zm40.18,8.76c-2.7-11.25,6.12-11.44-.92-18-13.39-2.89-6.77,20.35.74,17.84Zm25.69,9.49c5.55-11.54,6.78-19.42-1.47-28.75-6.78-.4-7.72,4.46-14.21,4.35.36,13.18,2.75,24.45,15.59,24.27Zm451.44-44.81c1.33.24-11.06,7.37-10.42,7.73,5.65,5.14,20.14-6.68,10.24-7.85ZM1191,1207.58c.2,9.92,6.41,7,.74,14.35,10.88,4.87,9.58-20.58-.92-14.47ZM1676.64,1197c7.11-7.56-.78-15.23-8.15-17.59-5.58,5.59-4.32,20.66,8,17.47Zm-567.87,22,.37,7.17,7-.36-.37-7.17Zm-881,27.09,1.11,21.57C272.24,1282.69,261.11,1208.53,227.72,1246.09Zm432.08-.56c-2-6.65,3.87-21.82-8-17.59C651.77,1236.94,652,1245.49,659.8,1245.53Zm240.14-23.14.37,7.18,7.13-.37-.37-7.18Zm575-22.33c-1.36-15.38,7.67-14,5.34-36.25C1463.27,1166.45,1472.63,1190.43,1474.93,1200.06Zm-858.69,40.47-.92-17.92c-17.4-5.24-11.72,23.56,1,17.92Zm477.13-35.27a7.67,7.67,0,1,0-14.35.74c7.7,5.65,4.74-.55,14.48-.74Zm-355.55,18.26c-1.14-6.7,3.6-8.13,2.83-14.54l-10.79.56c1,6.7,3.17,11.84,8.09,14Zm305.09-19.29c-2.25.12-4.43-.21-3.8-3.38l-7.17.37c-5,9.09,13,10,11.1,3Zm1080.45-69.86c-.94,5-4.75,7.17-2.87,14.54C2132.91,1151,2133.88,1134.58,2123.36,1134.37ZM1171,1172.45c7.53,11.62,5.71,11.45,8.47,24.77l14.39-.74c4.7-4.87,2.81-15.72,2.32-25.32C1191.14,1166.56,1175.56,1167.36,1171,1172.45Zm29.86,20.1c4.79-.25,3.62,6.13,7.54,6.81,6.37-7.39,12.28-6.77,21.39-4.72,4.29-16.11-21.58,1.11-22.13-9.64,13.61,2,17.41-5,17.23-15.31C1212.49,1161.94,1206.72,1183.68,1200.87,1192.55Zm635.32-39.82.37,7.18,7.22-.37-.37-7.18Zm180-2-.56-10.79c-9.46-.39-18-.27-13.79,11.53Zm-661-41.68c-11.94,21,1.32,34.28,2.58,50.15-1.19.06-17.28,28,1.11,21.66,7.24-2.62,1.56-16.85,9.87-18.47,4.92,4.82,17,1.33,21.94,6.07C1403.36,1135.32,1390.94,1098.92,1355.13,1109ZM963.78,1201.1c8.28.64,13.42-1.57,14-7.91-4.85-.81-7.13-4.75-14.54-2.87ZM.13,1229c0,8.83.28,17.38,4.67,21.35,16.65-.68,17.69-27.75-4.8-21.34Zm877.22-23.45c4.7-4.88,2.82-15.73,2.32-25.32-23.9-4.65-19.37,26.81-2.23,25.32Zm165.05-12c16.37,3.35,2.84-20.27,20.79-15.46,1.1-13.87-5.91-18.76-15.46-20.83,5.06,17.75-20.14,20.36-5.24,36.29ZM1304.57,1180l-.36-7.18-7.18.37.37,7.18Zm1034.07-60.29-10.74.55C2323,1131.05,2344.46,1130,2338.64,1119.74Zm-474.81,9.94c-14-4.35-1.63,18.1,4.16,10.61C1870.52,1137,1865.22,1130.19,1863.83,1129.68Zm61.62,7.66,14.35-.74q1.65-16.95-15.09-13.62Zm-851-93.15c5.75-1.35,6.29,3.12,11,3.06,4.64-23.19,20.19-36.62,40.89-45.32,2.75-13.38-16.31-2.16-15.14-13.65-7.37,19.75-46.37,10.63-44.82,38.32-5.77,1.93-12.65-12.6-4.35-14.17-3.26-5.09-9.2-7.21-18.33-6.25-9.82-2.06,3.42,16.77-6.44,14.72-12.39,1.07-6.2-18.44-15.46-20.79-9.12,9.73-20.38.25-18.7-13.48-13-4.85-1.48,12.39-10.23,11.34-18.91,5.78-10.58-18.66-29.44-12.92,5.74-10.18,26-9.41,35.92-1.85-3.53-15.4-17.36-21.75-12.82-39.07,7.55,1.74,7.91,5.29,4.12,10.61,14-11.84,37.93-27.33,29.92-48.33-6-9.93-9.93-.73-15-13.66,15.51-3.93,29.32-4.07,27.23-30.22-7.67-9.19-18.42-14.95-19.62-31.4l-18,.93c13,30.54-18.94,45.55-40.34,56.1,21.13,36.74,31.7,88.68-20.9,83.88-14.14-1.22-17.86-23.85-33.42-19.87-4.53-17.78,10.34-17.92,12.88-29.49-37.89-27.89-9.35-91.77,36.12-70.27,9.5-4.9-1-18.71-1.29-25.14,14.46.45,19.61-7.45,35.74-5.41-43.9-51.2,65.63-92.23,53.33-13.55,8.14,6.2,18.18,10.14,26.06,16.67-.67,24.75,29.74,15.11,30.79,38.15-15.95-3.6-23.29-9.14-40-5.15,9.38,10.91,28.48,11.43,40.73,19.54,1.09-8,4.21-8.2,14.35-.73-1.41-9.42-8-11.47,6.62-11.16-2.5-7.37-9.33-9.72-8.28-21.2,11.46-2.09,19.11-7.87,31.94-8.84-7.57-33.2-29.12-51.47-33.31-88.29,21.57,20.34,26.44,59.25,47.3,80.38,2.52-4.19,21-20.15,21.39-4.72,11.24-8.79-2-18.48,5.7-29.07,6.34.55,8.55,5.69,7.91,14,6.17-14.88-3.46-44.23,26.91-37.4a130.2,130.2,0,0,0,20.1-29.81c11.14-2.25,13.32,8.45,7.86,14,9.46,2.83,13.3,1.13,25.19-1.29a9.84,9.84,0,0,1-10.42,7.73c2.29,3.33,10.32,5,4,7,2.44,3.8,21.49.84,32.13-5.22q8.3,4.24,8,17.55c1,6.7,12.27,1.66,14.77,6.48,7.19-8.62-2.28-12.64,2.32-25.32-1-6.58-12.27-1.63-14.77-6.49-.86-16.73,2.91-29.37,20.1-29.81,7.89,17-7.2,31.71,12.78,39.07-16.25,19.77,18.72,33.74-4.78,47.08,11.65,18.87,43.71,14.84,55.73,33.12,8.51-6.27,17.14-10,28.56-5l.93,18c-35.48,8-38.65,45-50.2,74.57,8.37,4.87,17.09,8.88,25.87,13.11,2.62,13.11-12.21,33.78,12.26,28.15.5,9.6,3,21.16-6.06,21.94-21.58,1.11-10-34.45-34-30.7-5.24,1.2-.68,10.85-6.67,11.16-.21,7.82,12.81,1,18.15,2.68l.74,14.36c-11-2-12.8,4.41-21.35,4.71,5.53-20.54-22.38-14.78-36.66-12.51,7,11.17,16.5,8.3,29.08,5.71,9.69,7.31-1.93,20.18,4.9,25-5.2,1.15-.64,10.8-6.63,11.11,7.28,6.87,25.68,21.2,8.84,32-1.56,19.46,18.42,14.86,19.62,31.43-7.6-5.3-23.19-2.11-25.87-13.06-22.19,21-53.87-.28-51.94-29.73-11.89-3.8-2.09,11.76-14,7.87-2.24-11.1,4.34-14.31,6.07-21.9-21.68,19.57-9,41.12-7.09,72.41-6.8,1.8-5.9,10.63-17.6,8.09,1.28,25-10.27,21.81-5.33,36.25-17.21-4.94-17-12.15-36.11-1.72-1.64-6,2.52-6.88,6.81-7.54-5.14-9.8-32.1-2.77-31.77,12.4a9.9,9.9,0,0,1-11.15-6.62c-7.87,10-12,23.44-31.21,23.23-5.84-20.1,12.29-18.51,16.49-29.67-14.8-1.94-11.82,12.3-28.38,8.65l-1.48-28.71-25.13,1.3c-4.41-4.19-4.66-12.52-4.68-21.39,17-5.29,26.46-.44,39.07-12.78,1.62-9.71-11.76-21.91-1.47-28.75-.85-4.37-6.72-2.66-11-3,4.62-13.17,6.81-22.86,1.76-36.11-21,.59-23.55,17.54-27.09,33.79-9.55.49-21,3.15-21.89-6.07-3.12,1.17-15.22,10.53-6.63,11.15C1084,1065.77,1069.89,1055.81,1074.42,1044.19Zm165.31,63.55c-.81,13.51,3.9,21,15.5,20.79C1254.75,1116.55,1254,1104.58,1239.73,1107.74Zm-57.64-.66c8.28.64,13.42-1.61,14-7.91C1187.78,1098.54,1182.56,1100.79,1182.09,1107.08Zm55.62-319.75a17.66,17.66,0,0,0-1.11-21.53,10.89,10.89,0,0,0,1.11,21.53ZM1309.3,920.5c4.11-11.16,3.06-31.5-12.4-31.77C1292.3,898,1293.79,915.91,1309.3,920.5Zm-221.53,33c11.8-.61,13.26-10.88,13.25-22.27C1090.06,932.68,1090.44,944.49,1087.77,953.46ZM1339,937c-9.16-6.59-16.64-14.59-21.52,1.11C1326.53,933.69,1335.09,948.13,1339,937Zm-6.68,79.58c-.23-4.4,4.15-5.16,3-11C1326.22,1000.72,1325.32,1018.42,1332.29,1016.56Zm-28.94-2.13c-1.93.1-3.85,3.2.19,3.61,3.1-7.53,6.62-14.6,9.63-22.13a20.23,20.23,0,0,0-14.12,4.35C1298.61,1007.17,1303.47,1008,1303.35,1014.43ZM711.11,1192.49l-.37-7.18-7.18.37.37,7.18Zm861.61-51.43.37,7.17,7.18-.37-.37-7.17Zm-123-11.7a16.56,16.56,0,0,1-11-3c-6.69,7.09-.37,13.26,1.11,21.57C1451.11,1148.8,1451,1139.63,1449.72,1129.36Zm-1030.6,56.49.74,14.4C431.7,1200.39,433.22,1182.75,419.12,1185.85Zm926.61-47.57c-15-.86-8.63,13.2-2.68,18.14A23.22,23.22,0,0,0,1345.73,1138.28Zm-201,13.93c-4.4.23-5.15-4.15-10.92-3l.36,7.08C1139.65,1160.11,1143.21,1159.8,1144.76,1152.21Zm333.3-31.28c-11.42-3.34-9.5-1.14-17.73,4.49-.44,6.95,4.41,7.72,4.3,14.21C1478.05,1141.24,1480,1132.89,1478.06,1120.93Zm-185.18-30.22c-15.15,26.47-.7,62.9,24.51,56.13C1343.89,1140.18,1342.42,1077.27,1292.88,1090.71Zm-260,56.57a20.23,20.23,0,0,0-14.13,4.34c1.58,8.31,4.5,15.35,11.67,17.41,4-4.53,3.34-13.06,2.45-21.89Zm510.22-22.58.37,7.18,7-.37-.36-7.17Zm-456,27c13.55.8,17.74-17.29,9.5-25.7-15.48,2.92-12.23,12.81-9.5,25.56Zm980-61,.37,7.17,7.17-.36-.37-7.18Zm212.08-7.31c-.23-4.41,4.37-5.17,3-11l-10.78.56.37,7.22c3.61-.19,4.54,2.5,7.35,3ZM744.86,1147.54l.55,10.74,7.14-.36-.55-10.74Zm859.06-33.29c-1.09-6.7,3.69-8.14,2.87-14.58-10.5-5.16-9.23,16.1-3,14.81Zm-1247.16,46c-13.55-.8-10.54,11.32-2.87,14.54-1.28-6.69,3.46-8.12,2.69-14.53Zm1034.16-56.71c-1.52,14.33,16.87,18.2,22.31,13.24l-.55-10.74c-4.56-3.61-13.1-3.17-21.94-2.5Zm-610.19,38.52.37,7.18,7.18-.37-.37-7.18Zm193.39-20.7c-16.54-.52-7.45,15.66.92,17.92Zm76.15,10.48q32.09,1.71,27.27-30.22a96.76,96.76,0,0,1-35.92,1.84c-5,11.38,1.89,19.72,8.47,28.39Zm940.83-51.92-.37-7.18c-3.61.18-4.55-2.64-7.36-3.24.38,5.72,0,12.49,7.55,10.42Zm-456.34,19.85c18.06-13.55,12.71-62.76-24.11-49.22l-7.18.37c.19,3.61-2.63,4.55-3.19,7.41l2.42-.13c-11.93,17.92-.32,51.44,31.88,41.58Zm161.66-8.3,14.36-.74c6.16-20.13-3.69-36.58-30.41-30.84,5.3,10.37,13.49,17.72,15.88,31.59Zm-704.34,29-10.74.55c-4.88,10.71,16.34,9.62,10.56-.54Zm-406.38,10c5.91,10.33-3.38,13.42,8.09,17.59,3.92-9.64,2.56-11.25,14-7.91.16-8.84-.15-17.43-8.1-17.64-.74,6.35-5.88,8.47-14.16,8ZM1479,994.6c-5.72-21.16-40-16.23-15.83-28-16.56-3.57-34.78,18.12-52.78,24.29-2.57,23.09,11.37,27.94,16.61,42.37-21.81,5-19.18,44.2-14.83,62,13.58-7.14,24.8,6.67,46.9,1.21,17.56-8,15.73-46.89,4-61.43,16.63-14.8,21.11-20.37,15.71-40.44Zm-476.39,125.32-.37-7.22-7.18.37.37,7.22Zm21.53-1.1a20,20,0,0,1,2.87-14.59c-13.42-.81-10.41,11.35-2.74,14.58ZM226.22,1149l.37,7.17,7.18-.37-.37-7.17Zm1354.35-62.35-.37-7.17-7.14.36.37,7.18ZM1099,1104.15a19.66,19.66,0,0,0,14.17-4.34,19.67,19.67,0,0,0-4.35-14.17c-12.33,2.27-14.88,8.4-9.68,18.51Zm452.55-23.23,14.35-.74-.56-10.78c-9.21-.59-15.2,2.14-13.66,11.51Zm334-17.15,7.17-.37c11.77-7.22-11.51-17-7,.36Zm-255,9.61-.55-10.74-10.79.55.56,10.74Zm-869,48.24a23.29,23.29,0,0,0,2.69-18.15l-10.79.55c2.26,6.2,2.57,14.75,8.09,17.46Zm-137-3.78-.37-7.18-7.17.37.37,7.17Zm951.06-63.23c-13.78-4.41-1.63,18.05,4.12,10.61,2.61-3.45-2.77-10.23-4.12-10.74ZM421.83,1099.42c-21.26,2.77-8,15.59-12.65,33,10.68-5.32,14.15-16.89,12.65-33.19Zm579.07-11.86a23.13,23.13,0,0,0,18.1,2.69l-.74-14.39C1008.06,1075.67,998.82,1076.41,1000.9,1087.56Zm1131.65-54.48,7.17-.37C2151.36,1025.49,2128,1015.74,2132.55,1033.08Zm93.33-4.8-.36-7.17-7.18.37.37,7.17Zm-118.7,2.48c12.42,2.1,13.35-14.33,2.87-14.54-1.56,7.45-10.38,7.6-2.83,14.54Zm143.47-10.94-7.17.37c.18,3.56-2.64,4.55-3.2,7.36,5.71-.61,12.48-.2,10.42-7.73ZM41.28,1122.44c-12.17-3-11.54,5.67-10,14.91,9.57.74,9-7.92,10.09-14.91ZM2021,1035.19l-.37-7.18-7.18.37.37,7.17Zm-984.81,36.17c19.11-4.42,4.15,11.18,25.88,13.06l-.92-18c-7.34,2.49-23.82-3.1-24.91,4.9Zm1049.16-46.67-.56-10.79a13.25,13.25,0,0,0-18,.92C2065.71,1026.14,2074.8,1026,2085.33,1024.69ZM978.76,1074.31l.37,7.17,7.13-.36-.36-7.18Zm136.85.17,25.14-1.29c.33-11.72-5.07-17-15.27-17.19,7.53,16-14,5.62-9.91,18.48Zm692.64-46.38-7.18.37.37,7.17,7.18-.37Zm179.76-5.61-.36-7.18-7.18.37.37,7.18Zm-596.93,16.26c-8.36-2-7.07,14.44.55,10.74,2.71-1.33,3.78-9.77-.6-10.74Zm-744.25,23.78c-16.35-5.48-11.88,19.68-2.64,18.19C640.62,1070.66,648.77,1071.12,646.83,1062.53Zm927.21-36.8-7.18.37c.19,3.61-2.63,4.55-3.24,7.41C1569.29,1032.91,1576.06,1033.31,1574,1025.73Zm-558,3.45c-13.66,8.21-29.68,14.28-38.33,27.17,10.45,5,16.2-8.46,32.31-1.66C1005,1039.81,1015.17,1038.76,1016,1029.18Zm-121.16,24.23c.18,3.61-2.64,4.55-3.2,7.36,3.56-.18,4.55,2.77,7.32,3.25-.19-3.62,2.81-4.56,3.24-7.37C898.59,1056.84,897.65,1054,894.84,1053.41ZM1135,1033.89c-4.4.22-5.17-4.42-10.93-3.06-3.42,11.56.16,8.24,1.11,21.57C1141.19,1049.94,1130.24,1044.64,1135,1033.89Zm-207.73,21.48c7.91-12.72,8-32.55-12.41-31.81-10.61,8.23-8.55,37.21,12.5,31.8ZM1394,1027.78c-2.29.12-4.42-.21-3.79-3.42,4.37-.8,10.2.09,10.6-4.12-12.78,2.91-11.17-10.38-22.13-9.68-2.57,11.83,21.31,26.36,15.41,17.22Zm-374.85-6c.43,13.49-1.19,29.15,15.69,24.4,3.38-15,1-23.31-15.6-24.4Zm1114.71-32c13.76,2.43,11.85-16.67,6.07-21.89-14.46,3-6.58,10.22-6,21.89Zm-766,17.62c-11.44-3.48-8.52,6.09-14,7.91,5,1.95,1.33,13.88,7.91,14C1360.59,1019.3,1373.52,1021.77,1367.84,1007.41ZM947.61,1029c0,8.83.29,17.65,8.1,17.55C953.7,1040.06,959.54,1024.88,947.61,1029Zm-53.52,10c-9.55.49-21.19-.9-21.16,8.28,10.35.35,18.19-1.73,21.17-8.15Zm844-43.34-.37-7.17-7.17.36.37,7.18Zm-665,23.33.37,7.18,7.17-.37-.36-7.18Zm1009.44-48.21c1.11,16.59,39.47,12.19,39.62-2C2112.51,961.8,2086.45,952.85,2082.56,970.71ZM710,1030.37c-3.44-5.08-6-11.13-14.95-10-.6,2.9-2.77,4.56-7,4l.92,18c2.91.74,7-.36,7.36,3.2a13.59,13.59,0,0,0,10.19-4.41A13.75,13.75,0,0,0,710,1030.5Zm21.16-8.33c-13.38-2.75-6.59,20.47.92,18,0-8.83,6.18-11.31-.91-17.88Zm-269.35,13.83c-12.34-3-5,11.51-6.25,18.33,10.51.21,10.18-14.91,6.27-17.93Zm506.85-15.25.37,7.26,7.18-.37-.37-7.17ZM1525,984.86l.74,14.44c10.92-.56,18.1-4.24,21-11.89-10.73,3.37-10.74-5.5-21.66-2.38Zm118.33-13.23c8.73-1.81,11.76,21.91,18.51,9.87-2.24.11-4.42-.22-3.79-3.43,11.69,2.58,10.94-6.12,13.8-11.48-5.57-4.39-28.86-5.76-28.6,5.18Zm617.59-35.28c2.86.73,4.33,2.73,3.93,7a10.17,10.17,0,0,0-10.42,7.73c16.68,7.53,16.33-28.47,6.4-14.59Zm-1314.23,75c-4.67.24-5.17-4.41-11-3l.36,7.17C941.54,1019.05,945.1,1018.74,946.71,1011.37Zm643.88-83.73c-9.4-1.59-12.78,2.2-10.23,11.34,14.6-1.81,13.6-12.71,21.75,2.5-30.93-.66-31.73,31-19,51.39,28.25-5.21,30.52-34.15,59.22-39.06,2-13.62-14.18-7.09-15.27-17.23C1678.59,905.73,1574.67,857.52,1590.59,927.64ZM917.4,1001.93l.37,7.18,7.17-.37-.37-7.27Zm-596,34.18c10.56,7,31.69.8,39.44-5.6-11.39,0-35.7-9.29-39.44,5.51ZM378.51,1026l.37,7.22,7.13-.37-.37-7.22Zm-69.39-18c-6.65,1.22-8.13-3.65-14.54-2.88-15,25.5,21.53,40.17,14.54,2.79Zm1398.23-50.21c-2.21-5.14,3.45-18.76-4.49-17.78-4.74,4.84-4.65,17.9,4.48,17.69Zm366-26-10.79.55c-4.66,10.66,16.56,9.57,10.78-.64ZM718.93,994.11c-9.37,1.54-14.14-9.78-25.32-2.32-1.07-6.21,2.68-18.15-7.92-14-7.32,12.07,3,37.23,16.43,38.88,9.83-3.86,4.29-21.41,16.81-22.67Zm779.81-29.22,7.18-.37c11.76-7.31-11.56-17.06-7.05.27Zm35.93-1.85-.37-7.22-7.22.37.37,7.22ZM430.75,994.52c-4,4.62-3.35,12.93-2.51,21.71a16.91,16.91,0,0,1,11,3.06c5.78-11.2,9.49-24.9-8.38-24.87Zm421.33,0c9.1-.78,6.57-12.3,6.07-21.9-6.69,1.23-8.13-3.64-14.54-2.87-4.81,5.9-5.75,28.86,8.6,24.68Zm576.39-65.61c-2.54,8.95-12,12-17,18.88,10.21.23,5.28,16.86,18.7,13.43-3.7-22.32,18.31-.14,20.84-15.46,5.91-27.63,109-9.39,49.78-81.79-30.32,2.62-43.79,6.66-65-3.86-8.37,9,4.42,7.9,7.91,14-11.18,16.16,17.84,13.92,12.63,35.37-9.14,6.74-15,18.43-13.11,25.84-.78-6.76-12.09-1.77-14.59-6.54Zm234.45,9.59c5.94-.31,2.41,9.94,7.68,10.37-1-6.65,3.69-8.13,2.88-14.53-3.9.73-9.94-.16-10.3,4.06ZM6.27,1005.5c2.27,6.33,2.53,14.88,8.1,17.59,5.66-5.81,4.44-20.88-7.84-17.69ZM767.88,970c.12,2.29.8,4.37,3.75,3.43,13.16-18.82,25.17-12.69,49.91-9.76.78-14.17,10.33-35.36,17.23-15.28-1.1-6.74,3.59-8.17,2.87-14.58-14.32-3.68-1-24-16.06-31.57-25.41-4.08-28.66,20.36-46.11,13.18,3.07,16-4.88,46-15.38,51.2,2.52.09,4.47.3,4,3.28ZM2290.59,884.5c5.51,13.67,27.53,10.9,36.06,1.77l-.74-14.35C2311.85,869.59,2291.78,867.27,2290.59,884.5Zm-398.2,27.64c-.19-3.56,2.65-4.28,3.24-7.36C1889.14,895.4,1883.79,910.69,1892.39,912.14Zm265-28c5.45,3.79,9,3.47,10.61-4.12-4.4.23-5.17-4.41-11-3Zm-585.54,30.07,14.35-.74-.55-10.74C1576.21,902.16,1570.35,904.84,1571.89,914.21ZM697.5,926.7c18.4-12.33,4-41.3-13.18-46.15,1.16,11.37-14.17,7.79-17.22,15.31l1.47,28.75c19.88,4.63,24.74,29.63,20.18,42.14C699.63,959.44,703.82,939.71,697.5,926.7Zm1344.71-40.22c18.64,6.24,16-16,9.68-22.12C2038.88,863,2041.48,875.71,2042.21,886.48Zm-599.81,30.8c4.86-5.06,4.06-20.64-1.29-25.14-10.54,5.31-21.56,9.94-24,22.82C1428.64,912.25,1434,916.65,1442.4,917.28Zm293.94-25.9c5,.93,7.17,4.7,14.58,2.87C1753,881.69,1736.29,881,1736.34,891.38Zm68.28-3.51a17.66,17.66,0,0,0,21.53-1.11c.23-12.77-6-18.45-18.88-17A23.2,23.2,0,0,0,1804.62,887.87Zm-403.32,2.7c-5.92,7.67,3,6.9-2.87,14.54C1408.9,910.44,1407.63,889.18,1401.3,890.57ZM977.65,915.94l.37,7.18,7.35-.38-.37-7.18Zm-529,5.53c-13-1.4-10.42,11.22-9.68,22.13,16.7,1.08,14-12.82,9.81-22.13Zm1099.53-45.64.55,10.79,10.79-.56-.37-7.17c-4.5.05-5-4.42-10.84-3.06Zm46.71-2.4.55,10.75,7.18-.37-.56-10.74ZM1415.1,879l.37,7.18,7.22-.37-.37-7.18ZM149.61,918.82c1.51,14.79,1.13,31.59,16,31.62-.13-16.24.25-32.9-15.88-31.63Zm1750.53-61.06c-6.19-1.18.51-4.71-.55-10.79-15-5.36-3.56,26.89.69,10.78Zm-133.48-7.67c-1.56,7.41-10.42,7.55-2.87,14.54C1776.22,866.81,1777.14,850.43,1766.66,850.09Zm-1175,49.52c-4.71,7.12,2.37,25.52,15.69,24.4-.67-13-.27-27.62-15.68-24.27Zm65.23,7.46c-4.86-.81-7.13-4.75-14.54-2.87l.74,14.35C652.36,919.27,658.4,916.57,656.86,907.07ZM980.1,890.48c7.4.63,4.12,13.25,11.52,13.79a23.22,23.22,0,0,0,2.69-18.14C985.57,891.34,983,885,980.1,890.48ZM474,920l-.92-18c-17.66-5.1-11.93,23.87.79,18.1ZM630,872.3c-13.07-1-17.82-8.27-28.94-2.13l.74,14.35c2.61,6.18,17.07-1.14,18.33,6.3-7.9.84-.71,15.31-2.5,21.71a17.44,17.44,0,0,1,11,3.06c20.43-17.3-14.56-29.94,1.28-43Zm1593.09-42.07c10.32-1,23.61.73,28.56-5l-.55-10.79c-14,1.3-33.46-2.52-28.14,16Zm-306.2-2.29c-16.35-5.43-11.88,19.68-2.69,18.15-3.64-9.88,4.51-9.41,2.56-18Zm-337.64,17.34c-15-1-21.78,5.53-24.35,15.68a16,16,0,0,0,24.23-15.54Zm-751,31.36c-7,9.19-4.72,7.88-2.51,21.76l18-.92c4.23-8.65-.78-6.58,2.68-18.15-8.72,2-8.25-6.07-18.27-2.55ZM2061.1,831.35c3-6.46,14.3-5.15,9.86-18.51-18-3.32-20.86,14.09-10,18.65ZM554.83,883.62c-14.31-3.68-10.17,9-9.86,18.52C556.29,903.41,556.11,893.88,554.83,883.62Zm884.25-31c12.42,2,13.39-14.33,2.87-14.54C1441.15,843.06,1437.2,845.2,1439.08,852.61Zm316.06-16.23,14.14-.73a19.88,19.88,0,0,0-4.31-14.17C1755.72,820.9,1753.65,827,1755.14,836.38Zm107.23-16.32c-4.42,5-4.16,13.72,4.3,14.21C1871.05,829.24,1870.78,820.69,1862.37,820.06ZM1471,843.77a13.25,13.25,0,0,0-17.92.92C1454.1,861.46,1471.89,860.55,1471,843.77Zm779.26-40-.56-10.78a13.19,13.19,0,0,0-18,.92c-1,11.3,8.25,11.14,18.65,9.85ZM852.43,861.14c5.92,10.34-3.37,13.42,8.1,17.6,1.48-12.39,8.89-19.4,9.12-32.92C851,839.15,867.42,864.26,852.43,861.14Zm155,2.82a23.08,23.08,0,0,0,2.69-18.11c-10.89-4.91-8.34,19-2.56,18.1Zm789.81-47.75.37,7.22,7.18-.37-.37-7.22Zm-312.4,19.66-.55-10.79-10.79.56.56,10.78Zm646.19-44,.37,7.17c3.61-.18,4.55,2.77,7.36,3.25-.23-4.41,4.37-5.22,3-11ZM1696.4,814.19c.11,2.25-.39,4.44-3.43,3.8l-.92-18-14.35.74,1.11,21.53C1686.36,823.31,1710,821.31,1696.4,814.19ZM226.32,868.09c-7.63,3.52-7.68,13.63-5.88,25.5C240,898.11,236.11,871.29,226.32,868.09ZM363,864.64a17.43,17.43,0,0,0-10.6,4.17c4.63,11.15-.57,9.61,4.53,17.78,13.76,2.42,11.9-16.68,6.07-21.81Zm1161.19-38-.92-18C1508,806.6,1512,828.6,1524.18,826.65ZM1987,792.08l-10.78.55.37,7.18c3.61-.19,4.55,2.76,7.36,3.24C1983.67,798.56,1988,797.85,1987,792.08Zm-435.12,11.66-10.79.55c36,60.92,31.2,12.66,54.81,15.2-.68-27.12,5.72-22.81,1-50.46-10-9.11-13.37,5.36-21.21,8.28C1560.39,766,1544.61,783.45,1551.83,803.74Zm615-13.7c-1-6.22,2.69-18.15-7.87-14C2159.78,782.76,2162,787.9,2166.86,790ZM819.33,844.83c-15.16-5.4-3.74,26.9.55,10.79C813.68,854.39,820.34,850.92,819.33,844.83Zm1091.84-56.06c-3.57.19-4.55-2.63-7.32-3.24.56,5.71.15,12.44,7.69,10.42Zm198-3,14.3-.73c5-22.9-20.24-20.28-14.35.74Zm-1027.4,49.14c10.89,1.56,19.56-16.15,9.68-22.09-.52,4.44-3.94,2.46-7.18.37-4,4.54-3.44,12.94-2.55,21.72ZM86,871.67l-10.78.55c5.91,10.34-3.37,13.42,8.1,17.6a23.26,23.26,0,0,0,2.77-18.15Zm1397.63-60.95-.37-7.17-7,.36.37,7.17Zm764.76-46.5c10-3.47,9.51,4.63,18.15,2.69,5.86-7.81,7.55-11,2.46-21.71C2255.05,745.12,2244.24,748,2248.39,764.22ZM855,839.51a9.89,9.89,0,0,0,10.42-7.73c-3.57.19-4.55-2.63-7.36-3.24C858.19,833.08,853.71,833.62,855,839.51ZM1950.3,779.7c-6.2-1.18.52-4.44-.55-10.78-15.16-5.49-3.75,26.76.54,10.65ZM807.9,762.48c7.84,24.49-21.16,26.29-15,58.38-5.67.55-12.4.19-10.38,7.72,10.89,7.39,37.92,19.82,57.82,4.23a10.06,10.06,0,0,0,7.78,10.42c8.33-9.75-.43-22.05-8.51-24.77,10.12,1.11-3.83-19.49,6.3-18.34,0,8.83.28,17.65,8,17.6-3-17.5,10.53-20.23,20.28-26.25a99,99,0,0,0-2.21-43.1C845.89,751.7,836.22,770.73,807.9,762.48ZM578.44,849.87l-.37-7.22-7.14.37.38,7.22ZM523.3,827.5c-2.73,25.92,15.87,28,37.4,26.86,5.61-27.44-20.8-36.32-37.57-26.72Zm1312.07-45.78c5.17,14.74,44.19,13.93,39.25-9.21-9.72-8.07-37.93-8-39.42,9.35ZM649.92,839c6.58-.82,1.66-12.27,6.48-14.77-4.92-4.69-17.9-4.64-17.78,4.53,8.44-1.66-1.26,16.71,11.13,10.38Zm290.23-29.34c-4.37.85-10.25,0-10.6,4.17,6-.31,2.4,9.89,7.73,10.41-1.27-6.55,3.47-8,2.7-14.44Zm823-31.44c7.89,7.54,10.21-2.33,21.53-1.1l-.74-14.36c-13.67-.53-21.11,4-21,15.6ZM616.7,826.41l.55,10.79,7.18-.37L623.87,826Zm1056.1-50.6c6.53,12.9,16,22.88,33.65,23.47,6.58-20.46,11.11-37.2,4.24-57.6C1695.2,750.34,1676.15,756,1672.8,775.81ZM1349.74,796c-1.09-6.7,3.65-8.13,2.88-14.54C1342.46,776.26,1343.56,797.52,1349.74,796Zm746.71-45.53.37,7.17,7.13-.36-.37-7.18Zm223-4.26c-1-6.22,2.69-18.15-7.87-14C2312.33,738.91,2314.58,744.05,2319.46,746.18ZM914.11,800.33c-10.33-5.17-9.06,16.09-2.83,14.58,1.08-4.83,4.89-7.18,3-14.59Zm851.11-43.7c-6.41-2.81-5.37-14.25-18.47-9.82-.63,8.41-6.29,15.15,1.1,21.52C1759.39,769.55,1762.46,763.08,1765.22,756.63ZM1435,777.2l.37,7.18,7.17-.37-.36-7.18Zm-825.87,46-.37-7.18-7.18.37.37,7.17ZM1524.48,769a24,24,0,0,0-18.14-2.65c-4.42,20.49,22.45,22.11,18.5,2.63Zm560.46-25.16c13.77,2.43,11.9-16.68,6.07-21.9-13.4-2.31-11.54,16.8-5.71,21.88Zm-1013.73,34c-4.18,4.63-.8,13.73,4.48,17.78-2.07-11.15,8.14-15.12-4.13-17.8Zm505.37-44c-13.08,3.1-11,22-5.52,32.69,16.56,3.56,13.59-10.59,28.34-8.65-4.87-10.57-6.91-24.55-22.38-24.06Zm-171.44,26.82-10.48.53.56,10.79c8,.34,11.34-3.45,10.36-11.35ZM657.7,791.91c-14.71-2.69-13.43,22.27.92,18Zm782.81-43.82c-5.15-.61-4.44-7.54-7.77-10.37-20.89-.16-24.59,24-19.68,37,6.74-11.43,27.38-9.93,27.89-26.64ZM927.07,767.26a17.43,17.43,0,0,0-10.6,4.17c10.21,14.92-4.3,10-6.08,21.89,10.28,2.48,9-5.54,17.78-4.49C924.59,776.57,934,773.39,927.07,767.26Zm740.19-27.19.73,14.35c9.48.58,15.34-2.11,13.8-11.47C1677.07,742.13,1674.8,738.18,1667.26,740.07Zm478.41-10.17a9.73,9.73,0,0,0,10.64-7.74c-5.58-4.79-14.27-4.52-10.5,7.73ZM503.56,799.82l-10.78.55c.83,6.72,3,11.86,8,14-1-6.71,3.74-8.14,3-14.55ZM1782.72,745c-2.76-13.37-10.66-21.08-19.44-27.83,5.33,10.1-5.39,32.68,19.57,27.82Zm-590.87-5.68c-16.18-3.06-11.14,30.72-5.33,36.29-1.49-17.05,17.46-19.35,5.46-36.3ZM1832.3,728c-8.33-.59-13.47,1.62-14,7.91,5.79,5.31,16.37,3.22,14.16-7.92Zm291.25-7.72-.74-14.39c-16.89-4.83-11.33,19.21.87,14.39ZM557.64,800.66l-.93-18c-14.53-2.7-13.24,22.27,1.06,18Zm132.91-6.82a23.56,23.56,0,0,0,2.64-18.15c-16.21-5.48-11.87,19.77-2.51,18.14ZM665,787.91c9.82,2.06,6.49-7.66,10.19-11.29-9.22-1.65-12.65,2.15-10.06,11.28Zm1008.84-59c-5.5-4.8-14.18-4.53-10.42,7.73a9.89,9.89,0,0,0,10.55-7.74Zm-517.64,15.67-14.31.74.92,18C1153,762.41,1157.77,756.34,1156.24,744.59Zm-133,3.35c.78,6.71,3,11.85,7.91,14C1030.06,755.48,1033.79,743.77,1023.19,747.94ZM272.36,782.87c-4.69,4.92-5.14,21.89,4.72,21.38C281.77,799.33,282.27,782.53,272.36,782.87Zm1037.95-53.3c0-11.25-9.74-11.77-18.65-13.43,3.45,20.84-26.33-1.34-20.28,26.25C1299.67,752.63,1287.49,729.42,1310.31,729.57ZM2258,670.37c-47,15.65-17.09,35.09,15.5,20.79-6.79-18,2.26-22.19-1.66-32.32C2257.41,653.67,2264.79,668.43,2258,670.37Zm-1653,66.86c13,8.92-6.63,42.81,23.61,38.52C625.41,765,634.11,765,631,754a24.49,24.49,0,0,1-11.16-6.67c4.16-.79,3.63-5.88,3.06-10.93,6.39-1.08,18.15,2.65,14-7.91-9-2.85-10.34-13.91-25.74-9.5,2.06,13.36,5.82,13.52-6.27,18Zm629.3-17.92c-10,1.27-15,7.08-13.48,18.7,4.69.07,5.16,4.15,11,3.06,4.14-9.75,7.36-11.41,2.5-22ZM592.55,773.89c.64-8.16-1.62-13.43-8-14-.94,5-4.71,7.17-2.83,14.58Zm218.7-18.47c2.1-17.5-5.65-24-19.26-24.22-4.17,4.63-3.39,12.93-2.5,21.76,9.39,3.93,11,7.16,21.61,2.25ZM434.34,781.66a23.28,23.28,0,0,0,2.58-17.79l-10.75.55C428.43,770.53,428.87,779.07,434.34,781.66Zm-306.52-9.51c3.77,7.17,14.13,7.08,25.46,5.93,11.44-20.59-8.85-34.86-30.36-30.89,1,11.69-20.77,34-1.58,39.81,9.86,2.06-3.42-16.73,6.48-14.72Zm1541.09-75.51c-15.12,5.59-14.42-6.63-18.65-13.43l-14.4.74c-2.41,8.2-6.76,14.42-5.89,25.5,18.66-8,22.5-6.4,36.11,1.73.78-4.68,4.54-7,2.66-14.4Zm-570.14,47.28c-5.18-10.68-.71-31.92-12.58-35.37-4.33,6.84,4.18,17.93-2.14,28.93,9.61-2.92,7.42,6.95,14.55,6.58Zm-457,5.46c-4.15,5-4.06,13.72,4.3,14.17,4.26-4.85,4-13.4-4.47-14Zm480.51-39.06c.37,12.25.24,25.19,8.7,28.33,6.12-7.95-.15-25.2-8.87-28.19ZM1898,677.81c-14.84-.12-14.26,5.15-10,14.91C1897.7,693.28,1899.77,687.17,1898,677.81ZM253.81,776.62l-.74-14.35-7.18.37.74,14.35ZM1108.06,722l-7.17.37.38,7.4,7.17-.37Zm714.72-36.69.38,7.39,7.18-.37-.37-7.17ZM310.89,766.5c-6.15-1.19.57-4.44-.55-10.79-14.84-5.37-3.48,26.89.77,10.78Zm668.05-34.3c26.1-17.85,7.46-71.5-27.9-52.6-17.06,20.26-9.39,61.4,28.12,52.59Zm-326.86,9.59.37,7.17,7-.36-.37-7.18Zm104.53,1.82-.37-7.17-7.3.37.36,7.18Zm617.27-38.89-7.17.37.37,7.18,7.17-.37Zm625.54-24.92,14.13-.72-.73-14.36c-12.56-2-17.11,3-13.62,15.09Zm383.67-26.89a20.11,20.11,0,0,1,2.87-14.54C2375.64,633.43,2376.9,654.42,2383.09,652.91ZM1307.74,679.43c-1.76-2.47-1.42-22.44-15-13.62-3.55,7.25-1.57,19.28-17.27,15.28l.74,14.39c11.7,2.54,10.8-6.29,17.64-8.14,1.45,8.49,12.76,6.1,11.66,17.41C1336.33,692.84,1308.4,680.32,1307.74,679.43Zm-103.57,16.13c.79,6.71,3,11.85,7.92,14-1.08-6.35,2.41-18.27-7.92-14.12Zm395.6-9.5,10.79-.55-.56-10.79c-7.91-.3-11.21,3.45-10.24,11.21Zm-248.52-1.67-10.78.55.55,10.79c7.78.22,11.21-3.53,10.23-11.47Zm-243.7,23.33L1107,696.8l-7.17.37.55,10.78Zm-97.22-2.21a16.85,16.85,0,0,1-11-3l.56,10.78c5.57-.64,12.34-.32,10.28-7.85Zm890.91-42.12c8.84.12,11-6.12,13.8-11.52-8.76-4.81-7.12-7.14-18.14-2.69a19.78,19.78,0,0,0,4.21,14.08Zm-658.13,19.36c.15,11.42,9.93,11.94,18.7,13.47l-.55-10.79C1252.65,687.24,1253.12,679.1,1243.11,682.75Zm-897.58,56.9-.36-7.18-7,.36.37,7.17ZM1441.17,687c-.24-4.8,6.13-3.62,6.81-7.59-6.24-1.18.52-4.44-.55-10.74-12.64.52-17.11,13.28-6,18.19Zm-291.11,11.33c10.48-3.1,14.53-12,13.07-25.88-13.88-4.54-6.37,10.22-17.6,8.1-.84,8.61,7,7.32,4.75,17.64Zm919.29-54.53c2.26.19,4.43.35,3.79,3.38,4.38-.66,8.45-1.45,6.81-7.54C2075.8,640.48,2069.75,639.6,2069.35,643.81ZM905,689.21c1.85,6.79,2.16,15.47,11.48,13.8l-.74-14.36Zm-107.22,16.4-.36-7.17a16.55,16.55,0,0,1-11-3l.73,14.35A16.83,16.83,0,0,0,797.74,705.61Zm140.09-7.19a19.87,19.87,0,0,1,2.83-14.53c-4.85-.81-7.12-4.71-14.53-2.88C925.9,691.26,926.69,700.54,937.83,698.42Zm95.39-33.68c-10.75.55-9.55,29.89,4.9,25,8.39-3.3,11.24-28.61-4.82-25.09Zm215.69-7.5c.44,8.55-5.58,10.93-2.46,21.76,10.34.22,19.61-.57,17.41-11.71-7.33-.81-9.89-6.82-14.87-10.18Zm151.8,10.22c-6.24-1.18.51-4.66-.56-10.79-15.07-5.49-3.64,27,.64,10.65ZM369.15,706c-14.85-3.65-13.07,25.75-2.28,25.33,8.33-2.81,9.16-19.37,2.36-25.46Zm1080.5-66.29c-14.65-2.56-11.42,20.1-5.84,25.51,14.87,2.54,11.45-20.23,5.92-25.64Zm-1156.29,63c-13.38-2.76-6.59,20.42.92,18-2.57-11.43,6.25-11.62-.84-18.1ZM840,689.05c-.23-4.4,4.15-5.15,3-11-9.09-5.22-9.85,12.69-2.88,10.83Zm78.8-7.66c-1.1-6.7,3.64-8.13,2.87-14.54-10.2-5.3-9,15.95-2.75,14.4Zm1210.54-58.54c9.2-7.53,7-21.68-8.28-21.2-1.53,5.51-4.77,9.42-6.44,14.76,5.42,1.53,9.52,4.77,14.85,6.3ZM757,686.12c2.7-3.32-2.76-10-4.12-10.6-13.91-4.54-1.5,18,4.25,10.46ZM171.1,709l.37,7.17,7.4-.38-.37-7.17Zm1322-60.69-.74-14.39-7.13.36.74,14.4ZM875,672.87c-6.19-1.19.51-4.71-.55-10.79-22.7-3.65-5,27,.81,10.64Zm491.3-39.66.74,14.39,7.17-.37-.74-14.39ZM950.45,669c-.23-4.4,4.41-5.21,3-11l-10.74.55.37,7.18c3.82-.33,4.73,2.63,7.58,3.1ZM716,659.4c.78,9.89-5.61,7.66.74,14.35a7.63,7.63,0,0,0,8.58-3,7.75,7.75,0,0,0-.37-9.08,7.66,7.66,0,0,0-8.78-2.37Zm-92.64,19.15,14.35-.74a19.83,19.83,0,0,0-4.3-14.17c-9.35-.71-11.55,5.41-9.88,14.77Zm704.3-28.92c13.09-3.1,5.34-25-1.47-28.75,6.31.86,5.4-20.37-4.35-14.17,5.51,18.74-17.36,37.57,6,42.77ZM479.15,675.18A23.9,23.9,0,0,0,461,672.5c-4.94,17.24,21.88,18.69,18.36,2.54Zm179.22-16.4.55,10.75,7.09-.37-.56-10.74Zm883.51-45.36c-4.42,5-4.11,13.72,4.3,14.17,4.68-5.18,4.25-13.59-4.13-14.31ZM173.65,687.25c-10.73-4.4-18.06-7.9-25.14,1.29-.1,27.33,28,26.9,25.31-1.43Zm226.43-8c10.55,0,10.22-15.09,6.3-18.33-12.17-3.13-4.8,11.37-6.13,18.19Zm1263.7-75.7.55,10.79,10.79-.55-.56-10.79ZM813.13,658c-3.11-10.78,5.59-10.79,2.51-21.75-10,3.51-9.55-4.59-18.15-2.65-2.16,16.31,5.37,22.11,15.81,24.26ZM266.47,671.67l.37,7.22,7.22-.37-.37-7.36Zm1623.6-79.75-.92-18c-19.14-4.84-17.63,24.65,1.09,17.82ZM1441,615a23.65,23.65,0,0,0-4.54-17.78c-13.44-2.13-6.29,23.59,4.84,17.63ZM596.62,651.14l.37,7.18,7.13-.37-.37-7.18Zm83,2.94,10.78-.56-.36-7.17c-4.67.24-5.17-4.42-11-3.06Zm-478.67-.76c-21.34-3.85-14.9,25.35-2.32,25.32C202.48,668.55,205.61,663.27,200.91,653.32Zm1217.17-69.69c-11.23-2-7-2.21-18,.92-.45,17,10,22.13,16,31.58C1416.43,598.81,1418.5,603.11,1418.08,583.63Zm848.36-29.17c-4.85-.81-7.17-4.71-14.58-2.83C2249.72,564,2266.37,565,2266.44,554.46ZM222.61,655.69a20.26,20.26,0,0,1,2.88-14.58c-8.42-3.15-12.17-11.65-25.7-9.5C190.46,645.91,202.86,662.09,222.61,655.69Zm990.55-65.3c.24,4.67-4.41,5.18-3.05,11a9.82,9.82,0,0,0,10.41-7.73c-3.55.31-4.49-2.51-7.35-3.11Zm129.14-9.85c7.54.63,4.13,13.25,11.48,13.8a17.59,17.59,0,0,0-1.11-21.57A10.08,10.08,0,0,0,1342.3,580.54Zm-7.4-3.24c-16.77-16.18-33.83,13.57-6.26,18.33,1.14-7.16,10-7.18,6.25-18.55Zm844.43-36.16c-8.07-5-9.33-17.53-22.49-16.85-4,15.91,13.54,27.46,22.48,16.63Zm-327,13.22-10.79.55C1836.8,565.44,1858.06,564.35,1852.3,554.36ZM304.12,630.23c4.75-4.66,4.68-17.9-4.49-17.78,2.19,4.92-3.24,18.57,4.48,17.56Zm944.62-48.5c4.37-5,4.12-13.46-4.35-14.17-4.38,5-4.12,13.5,4.2,14Zm43.42,5c15.13-4.66,12.57-32.91-5.18-32.13-10,7.27-7.39,28.8,5.17,31.91ZM415.31,617.32,414.57,603c-16.66-5.68-8.85,15.82.55,14.14Zm782.77-43.81c-2.24.12-4.2-.22-3.79-3.38l-7.18.37c-5.28,8.88,12.64,9.77,10.79,2.8ZM565.27,598.59l-10.79.55C549.91,609.88,571.18,608.79,565.27,598.59ZM1991.09,521.8c6.94,1.15,7,10,18.28,6.26a17.6,17.6,0,0,0-1.1-21.57C1996.55,506.21,1991.33,511.9,1991.09,521.8ZM1165.4,571.39l-.74-14.35-7.18.37.74,14.35Zm265.78-13.64c-2.44-6.32,9.67-15.37-.92-18C1426.31,545.33,1418.44,555.53,1431.18,557.75Zm261.08-34.9q-17.61,1.15-17,18.88C1688.57,542.28,1689.72,532,1692.26,522.85Zm-304.77,26.46-10.74.55c-4.76,10.62,16.38,9.53,10.73-.68Zm-327,13.17-10.79.55c-4.57,10.7,16.52,9.62,10.78-.68Zm-556.89,25c-8.47-.63-8.67-10.68-15.09-13.66-.6,2.9-2.77,4.55-7,4-1.27,10.44,17.44,18.17,22.12,9.54Zm686.46-28.19a17.59,17.59,0,0,0-1.11-21.57c-9.52-.53-8.9,8-10,15C1183.94,553.36,1185.25,558.37,1190.07,559.31ZM1328.83,527l-10.79.56.55,10.78c7.75.36,11.17-3.44,10.15-11.33Zm718.88-26.09-.37-7.18-7.22.37.37,7.18ZM625.55,577.62c.58-8.42,6.83-15.81-4.53-17.74C616.51,564.84,616.37,577.69,625.55,577.62ZM375.88,554.41c3.73,17.47,15,26.43,37.22,23.3,4.16-24.71-22.69-31.81-37.22-23.43Zm1150.37-33.86c-.22-4.4,4.37-5.16,3-10.92l-10.66.55.37,7.17c3.74-.32,4.55,2.64,7.49,3.06Zm-1031,49.36-.37-7.17-7.18.37.37,7.17Zm28.7-1.47-.36-7.18-7.18.37.37,7.18Zm355.6-18.26c-2.38-11.13,7-14.44-1.1-21.53a16.55,16.55,0,0,0-10.61,4.12c1.13,9,1.92,18.4,11.93,17.27Zm103-26.87c-14.35.73-16.7,24.69-5.66,29.07.67-10.94,10.6-13.57,5.87-29.22ZM556,559.6l-.56-10.78-7.17.36.55,10.79Zm-403.66-8.23.92,18a44.48,44.48,0,0,0,32.68,5.52C194.52,555.6,170.9,539.16,152.33,551.37Zm1713.86-77.18-14.35.73a19.44,19.44,0,0,0,4.3,14.17C1865.62,489.67,1867.73,483.55,1866.19,474.19Zm-908,61-.73-14.36-7.14.37.74,14.35Zm-467.81,6c6-.31,2.63,9.93,7.73,10.41C501,544.28,493.88,529.51,490.42,541.21Zm180-2c1-4.87,4.75-7.18,2.87-14.59l-10.79.56C661.82,533.46,664,538.6,670.37,539.21Zm476.57-46.1c-16.89-4.83-11.46,19.17.74,14.35ZM438.85,518.65c-14.7-2.56-11.42,20.1-5.89,25.51C447.85,547,444.38,524.06,438.85,518.65Zm1415.82-58.26c.24,4.62-4.15,5.16-3,10.92a9.82,9.82,0,0,0,10.38-7.72C1858.42,463.77,1857.57,461,1854.67,460.39ZM597.6,524.93l.37,7.18,7.22-.37-.37-7.18Zm1192.86-50.47c-.6-5.67-.2-12.44-7.73-10.38A9.84,9.84,0,0,0,1790.46,474.46ZM1930,456.52c-6.19-1.18.56-4.7-.55-10.78-15-5.37-3.56,26.89.69,10.78ZM543.44,524.09c.62-8.42,6.82-15.8-4.54-17.77,2.38,5-3.09,18.78,4.67,17.77Zm140.09-7.19-.74-14.35-7.18.37.74,14.35Zm642.77-33a19.69,19.69,0,0,1,2.88-14.54c-10.11-5.18-8.89,16-2.66,14.53Zm183.2-9.41-.74-14.35-7.22.37.74,14.35Zm82.59-4.24-.55-10.79-7.18.37.55,10.79Zm-208.89-.09c-14.59-1.32-10.59,15.42-2.64,18.15a23.24,23.24,0,0,0,2.86-18.16ZM711.63,504.64c2.8-3.14-3.07-10-4.16-10.6-6.46-2.93,2,13.28,4.38,10.59ZM409,502.17c-12.33-2.94-5,11.51-6.3,18.33,10.92.19,12.21-13.38,6.52-18.34Zm441.76-22.68c-11.07-4.95-8.51,19.06-2.69,18.15A23.3,23.3,0,0,0,851,479.48Zm254.9-16.66a23.86,23.86,0,0,0-17.74,4.48l.74,14.4c9.8,3.38,20.61,1.63,21-11.89C1106.86,469,1105.39,467,1105.66,462.83Zm521.2-19.57.55,10.79,10.79-.56-.56-10.78ZM1152.55,464c-.58,8.29,1.62,13.43,7.92,14,5.54-5.54,3.31-16.32-7.83-14ZM606.08,481.28c-2.43,10.32,5.58,9,4.53,17.73,13.77,2.48,11.9-16.63,6.07-21.89a17.53,17.53,0,0,0-10.5,4.38Zm187-6,.73,14.26c11.93.23,13.41-17.37-.64-14.27Zm1203.69-51,7.4-.38-.37-7.18-7.18.37Zm276.57-14.2-.55-10.79-10.79.56.56,10.78ZM379.65,489.29c5.91,10.33-3.38,13.41,8.1,17.59-1.09-11.64,7.56-17.65-8-17.6Zm628.8-28.45c-1.1,19.08,4.73,30.22,19.62,31.4C1054.13,479.69,1036.67,435.29,1008.45,460.84Zm636.59-15c16-2.32,5-7.71,9.87-18.47C1642.49,429.7,1640.07,435.83,1645,445.81Zm-43.43-5c2.66-3.27-2.76-10.06-4.16-10.56-14-4.31-1.63,18,4.17,10.65ZM1145.1,457.18l-.37-7.17-7.18.36.37,7.18ZM847,472.49c-.6-5.67-.2-12.44-7.73-10.42A9.94,9.94,0,0,0,847,472.49Zm973-57.15c4.15-5,4.07-13.46-4.31-14.17C1811.24,406.38,1811.49,414.71,1820,415.34ZM659.14,460.55l.36,7.17,7.18-.36-.37-7.18Zm1246.65-56.82-.37-7.17-14.4.74.37,7.17ZM608.67,459.52l.37,7.18,7.18-.37-.37-7.18ZM159.24,475.4l.37,7.18,7.26-.38L166.5,475ZM306.83,475c1.6-7.59,5.6-13.8-4.49-17.78C298.22,462,301.68,471,307,475Zm246.35-41.43a17.2,17.2,0,0,0-10.56,4.12c-.39,7,4.41,7.71,4.35,14.16,10.78.2,12.15-13.38,6.34-18.29Zm581.66-33.49c-1,12.5-4,26.69,12.26,28.2,13.77-7.77,12.38-34.85-12.13-28.2ZM686.51,437.51c11.07,5,9.77-20.45-.73-14.35.47,10.08,6.62,7,1,14.47Zm-413.79,6.86c2.26,8.71,7.55,14.49,11.9,21,3.52-9.62,4.74-23.64-11.63-21Zm686.57-24.44,7.31-.37c11.77-7.23-11.56-17-7.05.36Zm301.11-26.27.37,7.17,7.22-.37-.37-7.17Zm96.49-12.15c-2.86-.61-4.34-2.78-4-7-11.31-1.1-15.82,3.94-13.61,15.09,9.41.13,18-.18,18-8.12Zm341.38-14c5.45,3.79,9,3.47,10.56-4.11-4.4.22-5.17-4.42-10.92-3.06Zm-353.43-17.82c-10.33-5.21-9.06,16-2.87,14.53C1343.13,359.39,1346.72,357.13,1344.84,349.73Zm194.53.78a14.38,14.38,0,0,0,2.46-21.71C1529.26,323.75,1526,353.76,1539.37,350.51ZM447.53,406.57l-.92-17.92c-15.29-2.08-11.3,19.91.87,17.92Zm688.84-49.76.74,14.35,7.17-.37-.73-14.35Zm1067.17-44c2.52-3.31-2.77-10.05-4.16-10.6-13.65-4.42-1.55,18.09,4.25,10.6Zm-754.72,27.94-10.79.55.56,10.79C1446.42,352.46,1449.8,348.66,1448.82,340.77Zm-927,40.4c.2,9.87,6.36,7,.74,14.35C533.6,400.52,532.29,374.94,521.84,381.17Zm818.88-42.05c6.76.1,3.17,11.85,11.34,10.23,5.74-5.1.19-20.44,5.88-25.55-11.75-.28-9.76,11.76-17.26,15.32ZM281.43,400.71c-6.2-1.19.52-4.45-.55-10.79C265.9,384.55,277.31,416.81,281.43,400.71Zm1149.24-62.63c-.8-9.67,5.62-7.48-.73-14.35a7.67,7.67,0,1,0,.73,14.35ZM622.39,376c-.23-4.62,4.37-5.16,3-11C616.32,359.94,615.43,377.86,622.39,376ZM1139,338.66l-10.78.56.37,7.17c3.61-.18,4.55,2.77,7.36,3.25C1135.9,345,1140.37,344.46,1139,338.66ZM485.17,368.53l.37,7.17,7.17-.37-.36-7.17Zm962.72-45.86a23.25,23.25,0,0,1,2.69-18.15c-11.16-.61-13.8,18.28-2.68,18.28Zm495.28-32.49c14.44,15.46,33-3.5,31.21-23.19C1959.07,258.46,1943.51,274.4,1943.17,290.18Zm-443.6-13.24c-11.31-1.06-11.14,8.25-9.86,18.51C1501,296.55,1500.85,287.24,1499.57,276.94ZM842.31,310.68c-5.34.89-13.27-.51-14.21,4.35,5.81,1.34,3.75,11.2,14.76,6.44Zm230.41-1-.55-10.79-7.18.37.56,10.79Zm657.22-33.75-.37-7.17-7,.36.37,7.17ZM723.79,316.77l.37,7.17,7.13-.36-.36-7.18ZM777.64,314l.37,7.18,7-.36-.37-7.17Zm765-39.28c4.84-4.57,7.27-13.83,2.65-18l-10.75.55C1536.56,264,1530.72,279.09,1542.68,274.72ZM249.49,337.55l-.73-14.27C234.41,321.5,237.73,338.9,249.49,337.55Zm646.85-26c4.18-4.63,3.44-12.94,2.5-21.76C883.47,291.31,888.15,309.39,896.34,311.53Zm-381.61,1.58c7.37-2.5,3.21-23.43-4.68-21.39C503.71,297.17,501.45,311.54,514.73,313.11Zm879.39-56c-.25-4.8,6.12-3.63,6.81-7.55C1393.37,245.93,1384.18,256.15,1394.12,257.15Zm781.48-68.91c-4.8,8.77-7.27,7.13-2.69,18.1C2196,211,2192.9,186.42,2175.6,188.24ZM749.18,250.66l.37,7.18,7.17-.37-.36-7.17ZM303.49,266.35c-4.39,11.75-2.25-14.63-11.34-10.23.2,9.88,6.35,6.87.74,14.35,7.36.68,10,6.69,14.9,10C306.9,275.18,308.48,267.24,303.49,266.35Zm222.27-18.6c-15.11-5.41-3.71,26.67.55,10.74C520.11,257.3,526.82,253.83,525.76,247.75Zm424.11-18.2c0-8.83,6.29-11.58-4.35-14.17-4.47,5-1.77,11,4.26,14.17Zm1022.78-66.91-.38-7.31-7.22.37.37,7.18Zm-582.59,15.48c-4.85-.77-7.13-4.71-14.54-2.83-.57,9.48,2.12,15.34,11.53,13.8C1387.13,184.58,1391.51,183.92,1390.06,178.12Zm-225.19,33.19c11.79-7.67,14.22-39.44-9-35.56C1150,186.25,1147.07,209.22,1164.87,211.31Zm-119.44-11.88-.72-14.13-17.92.92C1024.91,199.56,1033.23,201.56,1045.43,199.43ZM233.59,237.5a13.51,13.51,0,0,0,15.09,13.66,13.56,13.56,0,0,0-15.09-13.66Zm1289.94-55.42c9-.77,6.56-12.34,6.07-21.9l-18,.93C1508.34,170.85,1510,181.72,1523.53,182.08Zm-1179,42.53c-.11-2.07-.79-4.16-3.75-3.39-2.58,10.77-3.42-10.64-14.54-2.87,0,11.43,14.89,6.3,18.65,13.43Zm-46.84-1-10.79.55C282.18,234.74,303.44,233.65,297.68,223.66Zm602.16-56.35-14.35.74c-1,8.88,7,7.41,4.48,17.78,10,.06,9.81-9.38,9.78-18.51Zm-86.16,4.43c0,8.83.29,17.64,8.05,17.59,5.36-5.7,4-20.77-8.14-17.59Zm276.67-7c12.59,1.91,12.26-13.26,6.3-18.34C1084.19,144.47,1084.53,159.6,1090.35,164.73Zm-65.87-21.83c-11.07-5-8.52,19-2.69,18.15a23.25,23.25,0,0,0,2.78-18.15Zm-50.51-1,.74,14.39,7.18-.36-.74-14.4Zm697.62-21.43-.55-10.74-7.22.37.55,10.74ZM1933.77,107l-.36-7-7.22.37.37,7.22ZM1768,104.68c12.72,2,15.67-10.25,10-15-9.47-.48-11.46,5.54-10,15Zm352-18.07-.36-7.13-7.22.37.36,7.18ZM1138.55,119c.79,6.71,3,11.85,7.91,14C1145.39,126.76,1149.11,114.88,1138.55,119Zm313-8.88c8.29.64,13.43-1.57,14-7.91-5.79-5.4-16.58-3.21-14.16,7.92ZM785.27,112c-10.33-5.16-9.06,16.05-2.83,14.54C781.35,119.81,786.09,118.37,785.27,112ZM423.1,141.38,422,119.81C402.08,118.14,405,143.1,423.1,141.38ZM307.59,136.5l.37,7.17,7.18-.37-.37-7.17ZM2024.38,48.35c5,.93,7.13,4.71,14.54,2.83l-.55-10.74C2030.08,39.8,2024.94,42,2024.38,48.35Zm-1458,78.44-.37-7.18-7.13.37.37,7.17Zm-238.28-13c-12.42.63-11.1,15.13-2.69,18.14A23.22,23.22,0,0,0,328.06,113.82Zm121-27.8c-3.57,3.62-2.35,18.7,8.05,17.59C457.3,94.73,457,86.18,449.08,86ZM441,0c.4,17.24,7.11,27.53,19.63,31.39C460.64,13.69,454.68,2.61,441,0ZM395.25,20.36,394.52,6C380.26,4.31,383.49,21.72,395.25,20.36Z"/></g></g></g></g></svg>