<svg xmlns="http://www.w3.org/2000/svg" viewBox="0 0 1126.73 219.06"><title>736448d9-991a-439b-b143-4b542e12ec00mdpi</title><g id="Layer_2" data-name="Layer 2"><g id="Layer_1-2" data-name="Layer 1"><g id="_736448d9-991a-439b-b143-4b542e12ec00" data-name="736448d9-991a-439b-b143-4b542e12ec00"><g id="b43a0784-8a2d-4eee-b4df-3e7af80f6e00"><path d="M4.84,218.33a4.93,4.93,0,0,1-3.63-1.21A4.93,4.93,0,0,1,0,213.49V5.56A4.93,4.93,0,0,1,1.21,1.93,4.93,4.93,0,0,1,4.84.72H111.47a4.93,4.93,0,0,1,3.63,1.21,5,5,0,0,1,1.2,3.63V41.83a4.94,4.94,0,0,1-1.2,3.62,4.93,4.93,0,0,1-3.63,1.21H50.78a3.35,3.35,0,0,0-3.63,3.63V82a3.35,3.35,0,0,0,3.63,3.63h51a4.27,4.27,0,0,1,4.83,4.83v35.79A4.26,4.26,0,0,1,101.8,131h-51a3.35,3.35,0,0,0-3.63,3.63v34.09a3.35,3.35,0,0,0,3.63,3.63h60.69a4.27,4.27,0,0,1,4.83,4.84v36.26a4.27,4.27,0,0,1-4.83,4.84Zm158.13.73a8.41,8.41,0,0,1-3.14-.49,8.3,8.3,0,0,1-2.66-1.93L139,198.5a7.91,7.91,0,0,1-2.42-5.8V156.92a4.28,4.28,0,0,1,4.84-4.84h37.48a4.28,4.28,0,0,1,4.83,4.84v9.91c.16.48.32.92.49,1.33a3.34,3.34,0,0,0,.72,1.09l2.66,2.66a4.8,4.8,0,0,0,1.21.84,3.66,3.66,0,0,0,1.69.37h16a3.6,3.6,0,0,0,1.69-.37,4.47,4.47,0,0,0,1.21-.84h0l2.66-2.66a3.94,3.94,0,0,0,1.21-2.9V139a3.27,3.27,0,0,0-.36-1.45,4.58,4.58,0,0,0-.85-1.21l-2.66-2.66a4.47,4.47,0,0,0-1.21-.84,3.73,3.73,0,0,0-1.69-.36H163a7.74,7.74,0,0,1-3.26-.61,6.15,6.15,0,0,1-2.3-1.81h-.24L139,111.94a8.12,8.12,0,0,1-1.81-2.66,8,8,0,0,1-.61-3.14V26.35h0a8.41,8.41,0,0,1,.49-3.14A8.3,8.3,0,0,1,139,20.55L157.17,2.41A8.31,8.31,0,0,1,159.46.72,10.73,10.73,0,0,1,162.24,0h71.81a8.69,8.69,0,0,1,3.15.48,8.3,8.3,0,0,1,2.66,1.93L258,20.55a8.31,8.31,0,0,1,1.82,2.66,8.13,8.13,0,0,1,.6,3.14V61.17A4.27,4.27,0,0,1,255.57,66H218.1a4.27,4.27,0,0,1-4.84-4.83V52.46A3.27,3.27,0,0,0,212.9,51a4.58,4.58,0,0,0-.85-1.21l-2.66-2.66a4.47,4.47,0,0,0-1.21-.84,3.73,3.73,0,0,0-1.69-.36h-16a6.92,6.92,0,0,0-1.33.12,2.09,2.09,0,0,0-1.08.6l-.49.48L185,49.8l-.48.49a3.87,3.87,0,0,0-.73,2.42V79.3a3.09,3.09,0,0,0,.37,1.45A4.47,4.47,0,0,0,185,82l2.66,2.66a4.58,4.58,0,0,0,1.21.85,3.79,3.79,0,0,0,1.69.36h43.52a8.69,8.69,0,0,1,3.15.48,8.51,8.51,0,0,1,2.66,1.94L258,106.38a7.93,7.93,0,0,1,2.42,5.81v81.24A8.84,8.84,0,0,1,258,198.5l-18.13,18.14a7.81,7.81,0,0,1-2.3,1.69,11.12,11.12,0,0,1-2.78.73H163Zm152.33-.73q-4.85,0-4.84-4.84V51.25a3.35,3.35,0,0,0-3.63-3.62H282.41a4.28,4.28,0,0,1-4.83-4.84V5.56a4.93,4.93,0,0,1,1.21-3.63A4.89,4.89,0,0,1,282.41.72H385.9a4.89,4.89,0,0,1,3.62,1.21,4.93,4.93,0,0,1,1.21,3.63V42.79a4.28,4.28,0,0,1-4.83,4.84H361.23a3.35,3.35,0,0,0-3.62,3.62V213.49a4.28,4.28,0,0,1-4.84,4.84Zm100.34,0a4.28,4.28,0,0,1-4.84-4.84V5.56A4.93,4.93,0,0,1,412,1.93,4.93,4.93,0,0,1,415.64.72h100.1a8.41,8.41,0,0,1,3.14.49A7.27,7.27,0,0,1,521.3,2.9l.24.24,18.13,18.13a8.31,8.31,0,0,1,1.82,2.66,8.18,8.18,0,0,1,.6,3.15V192.7a8.87,8.87,0,0,1-2.42,5.08l-18.13,18.13a7.81,7.81,0,0,1-2.3,1.69,10.32,10.32,0,0,1-2.78.73H415.64ZM458,168.76a3.35,3.35,0,0,0,3.63,3.63h26.59a3.93,3.93,0,0,0,2.9-1.21l2.66-2.66a3.94,3.94,0,0,0,1.21-2.9V53.43a3.94,3.94,0,0,0-1.21-2.9l-2.66-2.66a4.84,4.84,0,0,0-1.2-.85,3.8,3.8,0,0,0-1.7-.36H461.58A3.35,3.35,0,0,0,458,50.29Zm175.78,49.57q-4.85,0-4.84-4.84V50.29a3.34,3.34,0,0,0-3.62-3.63h-8.22a4.93,4.93,0,0,1-3.63-1.21,4.9,4.9,0,0,1-1.21-3.62V5.56a4.93,4.93,0,0,1,1.21-3.63A4.93,4.93,0,0,1,617.05.72h54.16a4.9,4.9,0,0,1,3.62,1.21A4.93,4.93,0,0,1,676,5.56V213.49a4.28,4.28,0,0,1-4.83,4.84Zm93.09.73a6.9,6.9,0,0,1-5.81-2.42L702.88,198.5a8.12,8.12,0,0,1-1.81-2.66,8,8,0,0,1-.61-3.14V154a4.28,4.28,0,0,1,4.84-4.83h37.48a4.27,4.27,0,0,1,4.83,4.83v12.58A3.27,3.27,0,0,0,748,168a5.1,5.1,0,0,0,.85,1.21l2.66,2.66a4.47,4.47,0,0,0,1.21.84,3.6,3.6,0,0,0,1.69.37h16a3.6,3.6,0,0,0,1.69-.37,4.47,4.47,0,0,0,1.21-.84h0l2.66-2.66a5.1,5.1,0,0,0,.85-1.21,3.79,3.79,0,0,0,.36-1.69h0v-42.8c0-1-.2-1.53-.61-1.69s-1,.08-1.81.72l-8.46,8.22a8.31,8.31,0,0,1-2.66,1.82,8.13,8.13,0,0,1-3.14.6H726.82a8.18,8.18,0,0,1-3.15-.6A8.31,8.31,0,0,1,721,130.8l-18.13-18.13a8.12,8.12,0,0,1-1.81-2.66,8,8,0,0,1-.61-3.14V26.35h0a8.41,8.41,0,0,1,.49-3.14,8.3,8.3,0,0,1,1.93-2.66L721,2.41a8.19,8.19,0,0,1,2.3-1.69A10.73,10.73,0,0,1,726.09,0H797.9a8.69,8.69,0,0,1,3.15.48,8.41,8.41,0,0,1,2.66,1.93l18.13,18.14a8.12,8.12,0,0,1,1.81,2.66,8,8,0,0,1,.61,3.14V193.18a6.38,6.38,0,0,1-.61,2.91,9.43,9.43,0,0,1-1.81,2.41l-18.13,18.14a7.81,7.81,0,0,1-2.3,1.69,11.12,11.12,0,0,1-2.78.73H726.82Zm43.52-132.5a3.6,3.6,0,0,0,1.69-.37,4.47,4.47,0,0,0,1.21-.84l2.66-2.66a5.1,5.1,0,0,0,.85-1.21,3.79,3.79,0,0,0,.36-1.69V52.46a3.27,3.27,0,0,0-.36-1.45,5.1,5.1,0,0,0-.85-1.21l-2.66-2.66A4.47,4.47,0,0,0,772,46.3a3.73,3.73,0,0,0-1.69-.36h-16a3.73,3.73,0,0,0-1.69.36,4.47,4.47,0,0,0-1.21.84h0l-2.66,2.66A5.1,5.1,0,0,0,748,51a3.27,3.27,0,0,0-.36,1.45V80a3.27,3.27,0,0,0,.36,1.45,5.1,5.1,0,0,0,.85,1.21l2.66,2.66a4.47,4.47,0,0,0,1.21.84,3.6,3.6,0,0,0,1.69.37Zm103.48,132.5a8.41,8.41,0,0,1-3.14-.49,8.3,8.3,0,0,1-2.66-1.93L849.89,198.5a8.31,8.31,0,0,1-1.82-2.66,8.13,8.13,0,0,1-.6-3.14v-66a9.67,9.67,0,0,1,.48-3.26,8,8,0,0,1,1.94-2.78L861.73,109a2.16,2.16,0,0,0,.73-1.57,3,3,0,0,0-.73-1.81L851.1,94.05a12.66,12.66,0,0,1-1.82-2.78,7.27,7.27,0,0,1-.6-3V25.14a8.68,8.68,0,0,1,.72-2.42,9.2,9.2,0,0,1,1.7-2.17L869.23,2.41a8.19,8.19,0,0,1,2.3-1.69A10.73,10.73,0,0,1,874.31,0h71.81a8.64,8.64,0,0,1,3.14.48,8.3,8.3,0,0,1,2.66,1.93l18.14,18.14a8.44,8.44,0,0,1,1.81,2.66,8.13,8.13,0,0,1,.6,3.14v61.9a7.27,7.27,0,0,1-.6,3,13,13,0,0,1-1.81,2.78l-10.64,11.61-.25.24a3.94,3.94,0,0,0-.48,1.69,2.05,2.05,0,0,0,.73,1.45l11.84,11.61a7.88,7.88,0,0,1,1.94,2.78,9.67,9.67,0,0,1,.48,3.26v66a7.91,7.91,0,0,1-2.42,5.8l-18.13,18.14a7.81,7.81,0,0,1-2.3,1.69,11,11,0,0,1-2.78.73H873.82Zm45.94-45.94a3.67,3.67,0,0,0,1.7-.37,4.8,4.8,0,0,0,1.21-.84h0l2.65-2.66a3.94,3.94,0,0,0,1.21-2.9V137.81a3.27,3.27,0,0,0-.36-1.45,4.37,4.37,0,0,0-.85-1.2l-2.65-2.66a4.58,4.58,0,0,0-1.21-.85,3.8,3.8,0,0,0-1.7-.36H901.39a4.93,4.93,0,0,0-2.66,1l-.24.25-2.66,2.66a4.37,4.37,0,0,0-.85,1.2,3.8,3.8,0,0,0-.36,1.7v28.53A3.27,3.27,0,0,0,895,168a4.58,4.58,0,0,0,.85,1.21l2.66,2.66a4.47,4.47,0,0,0,1.21.84,3.6,3.6,0,0,0,1.69.37Zm-1.21-87.29a4.65,4.65,0,0,0,1.46-.24,2.92,2.92,0,0,0,1.2-.73l.25-.24L924.12,82a4.47,4.47,0,0,0,.84-1.21,3.73,3.73,0,0,0,.36-1.69V52.46A3.27,3.27,0,0,0,925,51a4.8,4.8,0,0,0-.84-1.21l-2.66-2.66a4.8,4.8,0,0,0-1.21-.84,3.8,3.8,0,0,0-1.7-.36H902.6a3.8,3.8,0,0,0-1.7.36,4.57,4.57,0,0,0-1.2.84h0L897,49.8a4.58,4.58,0,0,0-.85,1.21,3.8,3.8,0,0,0-.36,1.7V79.3a3.2,3.2,0,0,0,.36,1.45A4.28,4.28,0,0,0,897,82l2.66,2.66a4.37,4.37,0,0,0,1.2.85,3.8,3.8,0,0,0,1.7.36Zm104.7,133.23a7.91,7.91,0,0,1-5.8-2.42L999.31,198.5a8.12,8.12,0,0,1-1.81-2.66,8,8,0,0,1-.61-3.14V25.14a9,9,0,0,1,.73-2.42,8.87,8.87,0,0,1,1.69-2.17l18.14-18.14a8,8,0,0,1,2.29-1.69,10.73,10.73,0,0,1,2.78-.72h77.86a8.64,8.64,0,0,1,3.14.48,8.3,8.3,0,0,1,2.66,1.93l18.14,18.14a7.92,7.92,0,0,1,2.41,5.8V193.43a8.83,8.83,0,0,1-2.41,5.07l-18.14,18.14a7.81,7.81,0,0,1-2.3,1.69,11,11,0,0,1-2.78.73h-77.85Zm49.56-45.94a4,4,0,0,0,2.91-1.21l2.66-2.66a4,4,0,0,0,1.2-2.9V52.71a4,4,0,0,0-1.2-2.91l-2.66-2.66a4.8,4.8,0,0,0-1.21-.84,3.8,3.8,0,0,0-1.7-.36h-22a4,4,0,0,0-2.9,1.2l-2.66,2.66a4,4,0,0,0-1.21,2.91V166.35a3.94,3.94,0,0,0,1.21,2.9l2.66,2.66a4.47,4.47,0,0,0,1.21.84,3.66,3.66,0,0,0,1.69.37Z"/></g></g></g></g></svg>