<svg xmlns="http://www.w3.org/2000/svg" viewBox="0 0 1530.71 709.04"><defs><style>.cls-1{fill:#9f1111;}</style></defs><title>791e5ee4-02d1-41a4-850d-eed6d4f30960roster</title><g id="Layer_2" data-name="Layer 2"><g id="Layer_1-2" data-name="Layer 1"><g id="_791e5ee4-02d1-41a4-850d-eed6d4f30960" data-name="791e5ee4-02d1-41a4-850d-eed6d4f30960"><g id="_791e5ee4-02d1-41a4-850d-eed6d4f30960-child-0" data-name="791e5ee4-02d1-41a4-850d-eed6d4f30960-child-0"><path class="cls-1" d="M820.43,357.36l-2.64-12.87a3.45,3.45,0,0,0-3.32-1.68A3.83,3.83,0,0,0,813,344a9.46,9.46,0,0,0-1.35,2.86l.87,10.32,4.5,16.4a115.22,115.22,0,0,0-.5,13.9,11.59,11.59,0,0,1-2,4.31c-.73.92-2.72,1.28-3.49,2.28s.14,2.49-.58,2.78c-.71-.45-2.63-1.51-2.7-1.93l-5.12-23.1a51,51,0,0,0-4.85-11.23,5,5,0,0,0-3.06-2.26,7.79,7.79,0,0,0-4.51.07c-.43,0-2.73,1.95-2.74,2.56a50,50,0,0,1-.7,9.28,146,146,0,0,1,4.67,19.46,553,553,0,0,1,17.93,62.85l3.25,77a491.23,491.23,0,0,0,5.66,49.39,33.63,33.63,0,0,1-.46,13.47l2.2,6.93,4.84,39.07,2.08,5.66a19.71,19.71,0,0,0-.58,10.62,27.59,27.59,0,0,0,3.52-.2,4.32,4.32,0,0,0,2.32-2.24,17.75,17.75,0,0,0,1.28-5.16c-1.52-20.87-4.83-40.62-6.7-60.87l-5.21-82.23c-1.05-18.53-3.4-36.07-6.05-53.5l-5.67-30.27-1.37-16.61c0-.38,1.71-1.72,2.22-2.2.91,1.32,1.73,2.86,3.77,3.31a6.62,6.62,0,0,0,7.28-2.84,12.34,12.34,0,0,0,2.07-4.17c0-4.91.42-9.87.36-14.49l-3-12.32Z"/></g><g id="_791e5ee4-02d1-41a4-850d-eed6d4f30960-child-1" data-name="791e5ee4-02d1-41a4-850d-eed6d4f30960-child-1"><path class="cls-1" d="M789.38,292.14c0,.39,1.4,1.3,1.79,1.38a9.45,9.45,0,0,0,3.18-.18,4.4,4.4,0,0,0,1.43-1.49A47.89,47.89,0,0,0,797,286.6l-1.17-33,4-8.23-1.66-22.56c0-.88-1.91-1.73-3.32-1.68a4.27,4.27,0,0,0-1.46,1.14A9.61,9.61,0,0,0,792,225.2l.39,7c0,.56-2.95,2.42-2.92,3l.34,5.94-2,14.22Z"/></g><g id="_791e5ee4-02d1-41a4-850d-eed6d4f30960-child-2" data-name="791e5ee4-02d1-41a4-850d-eed6d4f30960-child-2"><path class="cls-1" d="M1527.08,32.91c-.89-.16-1.88.46-2.41.53a135.58,135.58,0,0,1-25.39.61,44.54,44.54,0,0,1-9-2.35c-2.62.33-5.18-.66-6.21-2.4a6.17,6.17,0,0,1,1.87-1.62c5.78-1.74,11.67-3.23,17.63-4.52,1.1-.31,4.06-1.71,5.12-2.09s.81-1.24.48-1.86a2.48,2.48,0,0,0-1.77-1l-22.54,1.58c-1.07.06-4.36,1.66-5.45,1.58-2.06-.1-4.37-1.06-6.49-.55a65.61,65.61,0,0,1-10.39,1.68c-.83,0-3.36-2.25-4.14-2.14a44,44,0,0,1-14.31-.14l-7.54,1.8-32,2.22-.14-2.43,8.47-1.92a68.13,68.13,0,0,0,29.06-5.76,25.49,25.49,0,0,0,5.62-4.55c-.87-1.5.73-2.76,1.49-4a32.11,32.11,0,0,1-4.49.26L1437.29,4c-1.09-.29-5.58.84-6.29.36L1423.85.12a12.73,12.73,0,0,0-4.88.27l-7,2.94-9.77.55L1391.13,1c-1.34-.31-1.77.67-2.17,1.32-1.79,3.07-2.8,6.86-7.85,7.68l-12.06.68A1241.38,1241.38,0,0,0,1235.87,14l-7.2,1.71-7.44-.71c-17.33,1-32.79,3.89-50.82,4.73a127,127,0,0,1-39.65,3.85c-10.6-.43-21.14-1.32-31.55-2.71-1.88-.39-4.21-.79-5-2.5s.9-3.12.07-4.88a5,5,0,0,0-1.77-1.06c-1.32.07-5.5.59-6.84.38a57.87,57.87,0,0,1-11.29-2.22c-1.35-.45-2-2.54-2.83-2.49A72.05,72.05,0,0,0,1059.27,10a70,70,0,0,0-12.21-.3,20.39,20.39,0,0,1-8,4.23c-2,.11-4.54-.52-7-.74-1.13-.11-2.15,1-3.38.93l-10.71-.6c-.78,0-3.15,3.18-4,3.37a227.39,227.39,0,0,1-23.43,4L961.26,23c-5.4.8-10.53,2.64-15.62,3.67a76.88,76.88,0,0,0-10.16-2.11c-1.21,3.66-4.91,6.69-9.83,8l-13.53,1.64c-10.36,1.18-17.67,4.52-27.23,6-2.14.33-4.38-.43-7.1,0-.54,0-1.95,1.84-2.49,1.87L850.66,44l-7.2,1.71L836,45l-13.09.73c-1.12.07-4.55,1.81-5.64,1.63-3.41-.59-6.43-2.08-9.93-2.51a20.6,20.6,0,0,1-7.4,3.55c-.71.29-4.3-.75-5.22-.66l-77.05,7.86-21.82,4-12.58.88c-1.13.07-4.28,1.48-5.4,1.58s-4.51-.88-5.58-.82l-33.1,1.86a693.92,693.92,0,0,0-71.36,4.4l-39.33,2.71a102.93,102.93,0,0,1-18.54-2.24l-7.79,1.81-14.7-.23a24.49,24.49,0,0,1-8.8-6.67,13.79,13.79,0,0,0-2.93.17l-8.28,6.88a124.24,124.24,0,0,0-26.57.44c-2.07-.17-4.1-.44-6.07-.79-1.13.07-4.28,1.41-5.4,1.58a24.37,24.37,0,0,1-5.91.33,53,53,0,0,0-13.28-2.78l-9.77.55c-.83,0-3.07,2.74-4,3.29a20.46,20.46,0,0,1-5.32,2.24c-5.46.31-10.69-.35-16.12-.12L338.25,77.2A56.19,56.19,0,0,0,322.05,74l-13.14.74c-18.19-1.27-36.16-3.79-55.19-5.19-6.25-.49-12-2.15-18.23-2.71a56.92,56.92,0,0,1-10.38,1.81c-7.37.42-14.22-.22-21.92.46l-7.89,2.38A16.66,16.66,0,0,0,192.1,73a3.6,3.6,0,0,0-1.83,3.21,12.58,12.58,0,0,0,2.37,4.7,7.47,7.47,0,0,1,.12,2.11,39.38,39.38,0,0,0,8.53,7.1c.9.38,3.93,1.12,5,1.49,1.8.57,2.81,2,2.54,3.38,0,.32-1.19,1.34-1.63,1.37a137.89,137.89,0,0,0-13.7,2.07c-16.59-.69-34-.77-49.55-2.36a9.54,9.54,0,0,0-8.31,1.13l-5.92,5.38c-.28.23.09,1.58.11,2a24,24,0,0,0-7.34,5.35,13.52,13.52,0,0,1-5.45,2.39c-3.61.2-7.13-.55-10.84-.31-29.9,2.18-58,3.47-86.62,4.87-1.56.09-3,2-3.92,3.33a7.89,7.89,0,0,0,.17,3.06A35.61,35.61,0,0,0,7,130.44c0,.17.39,1.6.11,1.86L0,139.16l.78,8.67a24.75,24.75,0,0,0,5.09,8.64c6.23,1.06,11.3,4.12,13.74,8.36l3.74,44.74,2.78,5.73c.83,1.72,3.14,2.76,5.67,2.54.39,0,1.6-1.18,1.58-1.53-.22-4-2.07-7.29-2.57-10.9l-3.32-40a11.88,11.88,0,0,1,2-4.14c.5-.59,2.55-2.54,3.23-2.62l9.08-.51,9.3,5.9a55.18,55.18,0,0,1,14.75,6.23,72.29,72.29,0,0,1,4.67,18.61l2.53,30.24c.05.84,1.89,3.21,1.94,4.05s-1.28,3.43-1.23,4.27L78.3,281.7c-1,12.33-1.92,25.12-1.54,37.94l4.44,53.8,0,39,1.49,17.81a4.13,4.13,0,0,0,1.74,1.27,9.35,9.35,0,0,0,3.12-.17c.77-.4,3.06-2.29,3-2.89-.19-3.27-1.91-6-2.17-8.94-.48-8.51.92-16.78.84-25.14l-3.25-77c-.23-24.09,1-48.29-1.42-74L82,231l.52-12.56c-1.27-14.85-2-29-1.87-42.86-.66-4,2.45-7.87,7.6-9.53a8.27,8.27,0,0,1,5.95,2.24l2.2,6.93,5.13,81.67c.13,2.32-1,4.75-.92,7.11.06,1,1.75,1.49,2.85,1.88a6.22,6.22,0,0,0,2.54-.14,5.47,5.47,0,0,0,2.15-4.39c.44-23.59-.73-48.75.42-71.82l-1.4-17a12.33,12.33,0,0,1,1.17-5.36c1.1-1.44,2.1-3.65,3.77-4.48a22.19,22.19,0,0,0,6-4.08,68.54,68.54,0,0,0,13.09-3.17c1.73-.59,4.2.61,6.15,1.35a10,10,0,0,1,5.2,5.32l2.16,6.19,1.1,13.45-.33,33.46,1,17.59c.1,1.76-1.07,3.59-.66,5.61,2,9.49,4.62,18.65,6.52,29,2.53,12.74,6,27.89,2.25,39.89-.41,1.43,1.54,2.17,3,2.72a9.1,9.1,0,0,0,2.39-.13,4.12,4.12,0,0,0,2.28-2.25c.3-.69-.18-3.16-.22-3.9l2.45-8.64a375.1,375.1,0,0,0-8.79-51.76l-1.34-35.21a133.48,133.48,0,0,0,1.74-37.91c.66-10,5-17.92,16.34-22.09l12.78-.9a21.77,21.77,0,0,1,5.37,1.43,24.05,24.05,0,0,1,4.17,2.69,18,18,0,0,1,2.71,3.77l2.22,8.2,3.72,44.35L202.15,230l3.08,54.72-.6,9.46c-.44,2.63.81,4.82,3.67,5.05a22.63,22.63,0,0,0,3.93-6.75c-.54-39.2-.13-78.07-.21-116.91L210.44,157a14.67,14.67,0,0,1,1.17-5.29,22.52,22.52,0,0,1,4.38-4.06,18.09,18.09,0,0,1,5.31-2.27,18.31,18.31,0,0,1,7.18,1.46,9.26,9.26,0,0,1,5.2,5.32l2.48,10.16c1.65,16.25,1.8,32,1.85,47.67.12,21.34,3,45.94,3,67.86,2,13.11,3.46,26.72,4.95,40.22l2.88,5.8a5.73,5.73,0,0,0,3.81,3.31,6.22,6.22,0,0,0,2.54-.14,4.58,4.58,0,0,0,2.2-4.39l-3.75-7.45-2.16-26.12-2.69-12.2.52-12.59-1.38-16.61c.08-30.88-1.73-63,.15-93.15l1.91-6.11a7.92,7.92,0,0,1,3.63-4.36,40.85,40.85,0,0,1,12.08-3.68c1.26-.28,3.31.48,5,1.48a7.9,7.9,0,0,1,3.36,4.08l2.34,5.9c.93,7.78-.19,14.94.58,22.45a140.82,140.82,0,0,0,5.14,27.93L280.39,220,284.26,266a10.53,10.53,0,0,0,4.54,5,6,6,0,0,0,2.73-.15,4.76,4.76,0,0,0,2.21-4.4L290,259l1.1-5.71L289,246.39c.33-15-.11-30.76,1-45.67A266.07,266.07,0,0,1,288.53,146a12.24,12.24,0,0,1,2-4.24,14.48,14.48,0,0,1,10.93-4.15,22,22,0,0,1,5.82,1.51,13.75,13.75,0,0,1,3.33,6.24l2.52,68.33c.05.78,1.74,1.25,2.84,1.64a6.22,6.22,0,0,0,2.54-.14,5,5,0,0,0,2-4.1c-1.23-21.84,1.32-41.88-.33-64.16l1.87-6a11.51,11.51,0,0,1,5.23-5.37l17.53-1c11.47,1.9,13.29,14.28,14.21,25.35s.58,21.73,1.34,32.63l10.5,126.63c.05.84-1.26,3.6-1.18,4.26s2,2.79,1.86,3.43c-.25,1.6-1.76,3.62-.93,5.17a16.54,16.54,0,0,1,.79,14.06c0,.29,1.05,1.39,1,2-1,12.26.67,27.66.91,41.51.05.84-1.46,3.61-1.13,4.19a21.57,21.57,0,0,1,2.25,6.93,8.54,8.54,0,0,0,3.26,2.39,7.68,7.68,0,0,0,3.13-.17,3.91,3.91,0,0,0,1.58-1.57,35.56,35.56,0,0,0-2.42-7.21c1.4-34.4-.21-71-2.78-107.8-1.17-16.52-1.82-32.5-2.14-47.83l-3.52-24.14a483.52,483.52,0,0,1,.45-71.4,9.59,9.59,0,0,1,2.05-4.42L379.3,134a10.42,10.42,0,0,1,6.3-2.15,9.67,9.67,0,0,1,6.22,1.87,16.63,16.63,0,0,1,4,8.84l2.51,50-.59,11.18,2.48,11c.05.91,1.78,1.31,2.88,1.71a6.22,6.22,0,0,0,2.54-.15,14.24,14.24,0,0,0,3.19-2.61,5,5,0,0,0-.14-2.39c-.39-.79-2.76-3-2.82-4-.23-4.15.67-8.08.64-12.21l-1.05-13.45c-.08-12.77.34-25.32-.07-38.6l1-6.54a11.84,11.84,0,0,1,2.06-4.32,19.12,19.12,0,0,1,5.83-2.55,7.17,7.17,0,0,1,6.13,1.07,22.12,22.12,0,0,1,4.88,5.76l2.32,8.16,2.16,26.12L438,230l1.39,57.75,2.43,29.29-2.72,5.76a6.68,6.68,0,0,0,.16,2.78,8.4,8.4,0,0,0,3.14,3.67,5.33,5.33,0,0,0,2.54-.14,29.53,29.53,0,0,0,3.5-6.62l1.11-6.45-2.61-31.61.18-55.15c-2.33-12.71-3.82-26.11-4.95-40l-2.4-9.57.82-9.82a106.8,106.8,0,0,1,.51-34.63,8.27,8.27,0,0,1,3.36-5.45l12.2-.86,7.43.67,7.2-1.71,12.25-.86,8.65,6.57a11.92,11.92,0,0,0,6.1-.35l7.64-7.83c10.54.14,21.05-.13,31.6-.76a16.27,16.27,0,0,1,5.56,1.35,8.4,8.4,0,0,1,3.28,4.29l2.11,6.2,2.68,32.06,2.16,6.94-1,7.11,1.53,18.58.52,41.49,1.35,16.23,2.48,11a29.79,29.79,0,0,1-.88,7.78l2.15,6.93c2,18.9,1.74,37,3.12,55.5l9,108c0,.85,1.85,3.22,1.9,4.06s-1.37,3.6-1.23,4.3a76.68,76.68,0,0,1-.21,18c0,.5,1.45,1.4,1.85,1.52a9.35,9.35,0,0,0,3.12-.17,8.72,8.72,0,0,0,3-2.78L579.87,452c-2.2-33-6.37-67.1-7.74-99.38.59-24.37-1.67-50.5-3.72-76.59-1.64-7.36-4-15.55-2-22.76l-2.2-6.93c-.67-11.89.47-23,.31-34.66l-1.12-13.84.37-33.47L561.69,139,564,128.09a10,10,0,0,1,2.93-2.78,20.75,20.75,0,0,1,5.07-2.15l13-.91a8.46,8.46,0,0,1,6.18,2,33,33,0,0,1,6.74,13.45l2.7,33.26,4.66,170,2,23.35.14,20.88,3.27,20.66,6.7,80c-1.53,25-.14,51.55.17,77.05.07,1.3,2,3.66,2.05,5.21l.59,27.8L623.05,611l-.32,15.36L625.88,664c0,.81,2.34,3.4,2,4.19a12.11,12.11,0,0,0-.91,8.24c2.08,10,4.79,21.57,1.69,30-.26.61,1.55,2.38,2.1,2.56a14.11,14.11,0,0,0,4.2-.24,3.3,3.3,0,0,0,2.28-2.17c.39-14.84,0-30.31-.43-45.84a1125.46,1125.46,0,0,1-10-175.77l-5.46-65.71-4.54-72.92L612.2,212.52l.31-33.71c-2.72-13.57.22-24.92,7.52-32.7L630.19,137l10.52-14.17a9,9,0,0,1,5.45-2.39l14.64-1,9-1.84c2.08-.4,4.38.42,6.49.55,1-.06,4.29-1.3,5.41-1.4L706.3,115a22,22,0,0,1,5.37,1.39,12.84,12.84,0,0,1,3.36,2.35,15.41,15.41,0,0,1,2,5L721.11,173a74,74,0,0,1-1.4,17.72c-.24.93,2.63,3.21,4.65,2.49,2.49-1,4-2.87,4-4.88.57-22.19-1.59-45.78-.43-67a10.66,10.66,0,0,1,2-4.42,10,10,0,0,1,5.83-2.62l13-.94c5.07,1.23,8.95,4.15,10.44,7.88,2.85,30.74,2.58,59.83,6.15,91.1l2.27,8.2-.9,8.45c.15,44.41,2,89.67,3.31,134.69,3.41,24.89,7,49.74,9.58,75.35a10.3,10.3,0,0,0,2.56,3.81c1.07.71,2.24,2.34,4,1.47.8-.43,3.44-2.42,3.21-2.93-1.09-2.8-2.71-5.53-4-8.28l-6.47-77.61c0-28.22-.8-56.86-1.67-85.46-.31-10.81-1.22-21.66-.17-31.74a72.57,72.57,0,0,1-2.67-13.54l.44-32.27-3.08-54.73A79.32,79.32,0,0,1,773.22,117a16.06,16.06,0,0,1,4.37-4.23c.89-.62,4.47-2.33,5.36-2.17l7.22,1.29a15.34,15.34,0,0,1,7.27,3.75,22.84,22.84,0,0,1,4.82,8.16c2.19,22.56,2.14,44.34,3.73,66.37l8.13,57.58,1.63,19.38c0,.81,1.81,3.43,1.77,3.68-.79,5.05-1.9,9.67-2.79,13.88,0,.77,1.6,2.41,2.2,2.66a8,8,0,0,0,2.59-.14A3.86,3.86,0,0,0,822,285l2.34-10.72-8.1-78.72.95-8.45-2.28-8.19-.42-43.24a65.9,65.9,0,0,1,2-16.87,21.63,21.63,0,0,1,3.33-4.42,16,16,0,0,1,4-3.76c7.5-1.62,15.05-1.51,18.41.87a54.44,54.44,0,0,1,4.44,17.08c1.85,17.15,3.42,33.82,6.18,49.72a11.19,11.19,0,0,0,5.2,5.38,8.55,8.55,0,0,0,3-.16c1.36-1,3.49-2.39,3-3.35a43.17,43.17,0,0,0-3.71-5.93l-5.27-63.21a16.39,16.39,0,0,1,6.85-3.56l9.77-.55a16.72,16.72,0,0,1,9.63,4.15,18.08,18.08,0,0,1,4.13,8.06c2,10.47.78,20.91,1.47,31.32l5.85,70.05c.74,13.19-.67,25.55.08,39a16.6,16.6,0,0,0,2,5,11.18,11.18,0,0,0,3.31,2.36,8.11,8.11,0,0,0,3.18-.18c.39,0,1.59-1.25,1.52-1.6A31.81,31.81,0,0,0,900.6,258c-.08-32-1.74-65.07-3.38-98.6l.62-30.69-.58-10.3c.6-4.27,1.8-8.93,7.9-10.26,7.84,0,15.7.5,23.47,1a9.93,9.93,0,0,1,3.54,2l4.45,6.07,2.12,6.23,3.63,24.49L947.85,214l.61,83.16L952,344.53l-.77,85.64,1.44,17.8-.82,28,3.67,25.33a88.63,88.63,0,0,1,5.62,12.85,4.34,4.34,0,0,0,2.86,1.95,19.88,19.88,0,0,0,3.61-.2l-.95-10.71a28.19,28.19,0,0,0-5.43-9.5l-1.65-19.84.37-33.47-1.1-13.45c2.55-26.07,1.82-54.68,2.63-82.21l-4.59-55.38,1-7.11-2-5.25,1.1-5.64c-.76-23.06.48-44.55-.88-68l1-7.12-2.16-6.93-3.54-45.6L951.17,125l2.27-10.93a10.52,10.52,0,0,1,2.93-2.81,20.67,20.67,0,0,1,5.12-2.12l8.35-.47a20.1,20.1,0,0,1,5.42,1.42,11.9,11.9,0,0,1,5.22,5.74c2,20.32,2.74,40,3.36,59.79L983.51,209c.69,26.21,3,52.76,5.09,80l-1.15,5.68,2,5.21-1,7.11,2.4,9.57L992,330.64a11.17,11.17,0,0,0,4.55,5.1,27.47,27.47,0,0,0,4.25-.24c-7.44-35.6-5.07-78-7.94-117.67l-.83-64.45c.21-5.8-.2-13.08-.38-19.84-.46-8.09-.08-16.22,3.18-21.77.81-1.32,4-4.21,5-4.3l15.71-1.06a165.83,165.83,0,0,1,17.46,1.2,29.5,29.5,0,0,1,5.41,1.32,12.84,12.84,0,0,1,3.36,2.35,15.36,15.36,0,0,1,2,5l1.79,21.39,5.21,24.72a258.61,258.61,0,0,1,1,41.75c-.18,10.77-2.06,20.93-2.46,31.22-.49,12.13,0,24.17-.48,35.87a11.65,11.65,0,0,0,1.81,7c-1.21,20.28.36,41.22-.14,61.11s-.53,40.25,1.14,61.26a11.5,11.5,0,0,0,5.22,5.74,9.12,9.12,0,0,0,3.08-.18,4.4,4.4,0,0,0,1.43-1.49,5.34,5.34,0,0,0-.12-2.18l-4-10.36,1-7.11-.85-9.9c1.38-46.86,2.15-94.22-.88-143.65a131.76,131.76,0,0,0,5-35.56l-.37-24.08c-1.76-16.41-6.67-31.38-7.25-48.67l.9-8.41a11.74,11.74,0,0,1,2-4.1c.73-.89,3.65-3.73,4.68-3.79l11.18-.63C1113.77,148.3,1088,239.68,1098.75,302l4.66,35.87c0,.84,1.85,3.21,1.95,4.05s-1.27,3.6-1.23,4.27l1.94,23.32-2,14.22a18.67,18.67,0,0,0,.29,5.17,7.86,7.86,0,0,0,3.15,3.67,4.71,4.71,0,0,0,2.44-.14,5.17,5.17,0,0,0,2.06-4.21c-.51-9.11,1.21-17.71,1.22-26.24L1110,324l-2.73-13.74.43-14.14c-1.4-19.72-3.28-39.12-2.41-57.55.54-12.24-.35-26.3-1.28-39.34-1.75-24.28-.55-45.51-2.31-69.9l1.59-10a19.45,19.45,0,0,1,2.74-6.19c.59-.84,3.54-4.08,4.91-4.15l16.45-.93a7.19,7.19,0,0,1,5.95,2.07,51.4,51.4,0,0,1,3.76,6.84c2.48,26.71,3.2,52.57,5,78.79l5,60.57c.55,9.78,0,19.2.92,29.38a17.78,17.78,0,0,0,2,5,11.28,11.28,0,0,0,3.36,2.35,8.06,8.06,0,0,0,3.17-.18,3.65,3.65,0,0,0,1.53-1.6c-.18-3.24-1.8-5.86-2.21-8.91-1.62-12.15-.9-23.8-1.62-35.68l-3.2-38.63-2.21-8a213.14,213.14,0,0,0,1.12-21.8c.08-18.67-.52-37.23-1.35-56.37l1.06-6.45a15.35,15.35,0,0,1,2-4.13c.73-.89,3.7-3.74,4.68-3.8l12.59-.88a19.81,19.81,0,0,1,5.37,1.39,11.85,11.85,0,0,1,5.22,5.74l1.81,21.84c-.11,18.89-.54,38.28.31,57.71.85,15.09,3.65,29.32,4.63,44.05,1.27,22.54,1.19,44.71,1.17,67,1.35,9.2,3.17,18,3.86,27.69,0,1-1.27,3.6-1.18,4.37s1.85,3.21,1.94,4.05l.5,8.76a5.29,5.29,0,0,1-4.23,3.31c-4.29.24-7.09,2.76-7.5,6.81l5.55,11.57c-1.8,18.49-1.49,38.9-1.61,58.41l2.29,26.93c0,5.37-2.11,10.39-2.18,16.07,1.32-.07,5.34,0,5.62-.31a64.09,64.09,0,0,0,3.59-6.66l-1.3-34.5c.34-15.72.41-31.78,1.06-48.22.34-7.78,2.32-15.3,2.48-23.74a13,13,0,0,0,4.19-6.48l-4.59-54.71c-.5-20.26.45-40.78-.36-61.3l-3.22-20.67-2.58-86a74.12,74.12,0,0,1,1.63-18.86c1.62-1.68,3.65-3.14,5.52-4.72l12.45-.7a148.41,148.41,0,0,1,17.78-6,18.73,18.73,0,0,1,4-.22,20.67,20.67,0,0,1,5.76,1.51,8.12,8.12,0,0,1,2.85,6.26c3.21,36.09,1.74,70.92,3,106.45l1.49,17.84c-.44,30.37-1.14,61.52-.17,92.76l2.94,16.49,1.07,32.19c2.28,22.27,5.87,44.33,7.18,67.55l.19,20.91,3.07,17.89a7.08,7.08,0,0,0,3.14,3.67,5.75,5.75,0,0,0,2.44-.14,3.14,3.14,0,0,0,2.28-2.24c-.23-3.94-2-7.27-2.38-10.88l-2-43.63,1-6.8a209.87,209.87,0,0,1-6.24-56.94c-2.44-26.89-4.1-53.72-3.14-78.61,0-.63.75-2.23-.6-2.72-.14-2.53.9-4.92.88-7.1,0-10.2-.07-20.32,0-30.24a90.82,90.82,0,0,1,.92-18.54l-1.38-8,.4-106.93a43.92,43.92,0,0,1,10.68-19.09l9.55-4.41,7.7-2.38a33,33,0,0,1,10.24.84,13.51,13.51,0,0,1,5.86,2.39,41.55,41.55,0,0,1,8.66,8.54c3.09,36.7,1.63,70.82,2.81,105.69.8,25.64,1.62,50.64,2.79,75.83l2.1,27.69c-.13,30-.73,60.23-.21,90.4l2.85,34L1316.31,537c.25,15,1.3,30.23,2.08,44.83l4.36,33.13,2.9,35.12a7.91,7.91,0,0,0,1.86,2.64c1,1,3,2,4.73,1.32.77-.29,3.06-2.14,3-2.63-1.45-13.47-1.58-28.14-4.15-40.73-2.73-12-3-28.06-4.27-41.89l.25-13.95-2.22-28.1,2-14.22c.51-22.33-.88-45.22.77-66.55l-3.24-38.38,0-67.67-5.5-228.53,1.21-21.94,1.86-6.1a10.7,10.7,0,0,1,4.61-5.16l14.33-2.15,34.56-3,85.62-10.25c6.55-1.14,13-2.53,19.36-4.16a90.67,90.67,0,0,0,30.9-11.47,34.39,34.39,0,0,0,12.09-3.68L1528.6,39a17.54,17.54,0,0,0,2.11-5.27C1529.51,33.41,1528.32,33.13,1527.08,32.91ZM1395.3,25.43c-12.28,2.78-23.21,6.14-34.93,9.45-4.36,1.62-8.89,3-13.47,4.28-.78.05-2.7,2.52-3.58,2.57-14.65.82-28.28.46-42.58.66l-8.37-2.6c-1-.25-3.47-2.45-4.46-2.67s-5.2.68-6.45.36a54.93,54.93,0,0,0-12.59-2.82c-1.08.06-3.28-1.69-5.52-.5-3.23,2.72-3.7,6.56-1.18,9.48a17.28,17.28,0,0,1-2.07,1.57l-32.49,2.25-14.77-1.33-7.5-1.87-11.63-.4c-3-.92-6.58-1.18-8.65-3a2.18,2.18,0,0,1-1-2.31,5.34,5.34,0,0,1,1.7-1.22c17.19-2.66,35.94-4.53,54.37-6.06,16.23-1.34,31.17-3.09,46.51-4.66q44-1.74,86.26-2.45l16.3-1.16c1.07-.06,4.41-1.63,5.26-1.43A60.27,60.27,0,0,0,1404,22,22.45,22.45,0,0,1,1395.3,25.43Z"/></g></g></g></g></svg>