<svg xmlns="http://www.w3.org/2000/svg" viewBox="0 0 44.58 44.59"><defs><style>.cls-1{fill:#ff7676;fill-rule:evenodd;}</style></defs><title>7942756c-c077-432b-b525-aca2940081a3mdpi</title><g id="Layer_2" data-name="Layer 2"><g id="Layer_1-2" data-name="Layer 1"><g id="_7942756c-c077-432b-b525-aca2940081a3" data-name="7942756c-c077-432b-b525-aca2940081a3"><g id="_7942756c-c077-432b-b525-aca2940081a3-child-0" data-name="7942756c-c077-432b-b525-aca2940081a3-child-0"><path class="cls-1" d="M44.51,22.37c-16.64,3-19.17,5.5-22.14,22.14a.08.08,0,0,1-.08.08.07.07,0,0,1-.07-.08c-3-16.64-5.5-19.17-22.14-22.14A.08.08,0,0,1,0,22.29a.07.07,0,0,1,.08-.07c16.64-3,19.17-5.5,22.14-22.14A.08.08,0,0,1,22.3,0a.07.07,0,0,1,.07.08c3,16.64,5.51,19.17,22.15,22.14a.09.09,0,0,1,.06.08A.1.1,0,0,1,44.51,22.37Z"/></g></g></g></g></svg>