<svg xmlns="http://www.w3.org/2000/svg" viewBox="0 0 49.41 30.66"><defs><style>.cls-1{fill:#c09654;}</style></defs><title>7944d37e-e123-4aad-8588-2dbca1226534skateboard1</title><g id="Layer_2" data-name="Layer 2"><g id="Layer_1-2" data-name="Layer 1"><g id="_7944d37e-e123-4aad-8588-2dbca1226534" data-name="7944d37e-e123-4aad-8588-2dbca1226534"><g id="_1d197cba-632a-4920-836c-8ef2a6401322" data-name="1d197cba-632a-4920-836c-8ef2a6401322"><path class="cls-1" d="M.59,30.25a9.69,9.69,0,0,0,.79-4.2V16.26L0,14.82l1.38-1.45V4.62A9.84,9.84,0,0,0,.59.38v0H13.75V5.62h-.07a9.59,9.59,0,0,0-4.2-.8H6.2v7.86H7.51a9.84,9.84,0,0,0,4.24-.79h0v5.85h-.06A9.73,9.73,0,0,0,7.51,17H6.2v8.89H9.48a9.65,9.65,0,0,0,4.23-.79h0v5.27H.59Zm15.33-6.48v-3.1h5.79v0a4.6,4.6,0,0,0-1,3V23.6c0,1.55.79,2.41,2.17,2.41s2.14-.86,2.14-2.41v-.41c0-2.69-2.65-5.24-4.89-7.48l-2.31-.55.58-1.45A10.83,10.83,0,0,1,16.06,7.2V7.06C16.06,2.72,18.47,0,22.81,0H23c4.34,0,6.75,2.55,6.75,6.89V9.23H24.22v0a4.6,4.6,0,0,0,.69-2.41c0-1.59-.79-2.31-2-2.31s-2,.76-2,2.41v.42c0,2.51,2,4.41,4,6.54l2.21.48-.56,1.35c1.83,2.31,3.31,5,3.31,7.78v.14c0,4.48-2.41,7.06-6.89,7.06h-.17C18.33,30.66,15.92,28.25,15.92,23.77Zm19.26,6.48a9.69,9.69,0,0,0,.79-4.2V16.26l-1.38-1.44L36,13.37V5a9.6,9.6,0,0,0-4.07.79h0V.35h13V5.79h-.07a9.4,9.4,0,0,0-4-.79v8.37l1.38,1.45-1.38,1.44v9.79a9.74,9.74,0,0,0,.8,4.24v0H35.18Zm9.47-4.68h4.76v4.75H44.65Z"/></g></g></g></g></svg>