<svg xmlns="http://www.w3.org/2000/svg" viewBox="0 0 1080.13 366.8"><defs><style>.cls-1{fill:#df0610;}</style></defs><title>7be671fa-b7f5-44e1-8855-77f87e4deb8amdpi</title><g id="Layer_2" data-name="Layer 2"><g id="Layer_1-2" data-name="Layer 1"><g id="_7be671fa-b7f5-44e1-8855-77f87e4deb8a" data-name="7be671fa-b7f5-44e1-8855-77f87e4deb8a"><g id="_7be671fa-b7f5-44e1-8855-77f87e4deb8a-child-0" data-name="7be671fa-b7f5-44e1-8855-77f87e4deb8a-child-0"><path class="cls-1" d="M1061.34,98.4C1012.5,48.51,878.28,18.24,701,16.76,700,7.24,687-.14,671.32,0S643,7.77,642.51,17.3C585.63,18.86,529,23.09,473.19,30c-2.45-3.79-9-6-15.53-5.21s-11.3,4.25-11.3,8.32a2.2,2.2,0,0,0,.07.37C249.68,60.54,79.66,117.7,21.12,183.68c-27.35,30.82-28.15,61-2.33,87.43,42,42.81,146.74,71.18,287.77,79.3,1.08,3.8,6.26,6.67,12.57,7s12.16-2,14.19-5.7c1.95.08,3.88.16,5.82.22,2.31,8.43,14.1,14.67,28.12,14.89s26.32-5.64,29.34-14c284.46-.64,581.07-75.3,662.45-167C1086.35,155,1087.16,124.77,1061.34,98.4Zm-8.81,85.28C972.38,274,679.07,347.57,397.24,348.32c-.49-9.43-13-17-28.46-17.25s-28.61,6.89-29.94,16.29l-5-.2c-1.28-3.65-6.34-6.36-12.46-6.66s-11.83,1.87-14.06,5.35c-137.38-8.16-242.13-36.13-282.18-77-24.43-24.94-23.57-53.64,2.46-83C85.37,120.75,253.65,64.38,448.63,37.67c3.13,2.94,8.91,4.4,14.53,3.67s9.92-3.5,10.81-7c55.8-6.86,112.37-11.08,169.23-12.62,3.07,8.22,15.16,14,29,13.87s25.62-6.13,28.28-14.39C873,22.71,1008.18,52.86,1055,100.69,1079.45,125.63,1078.57,154.33,1052.53,183.68Z"/></g></g></g></g></svg>