<?xml version="1.0" encoding="utf-8"?>
<!-- Generator: Adobe Illustrator 24.0.0, SVG Export Plug-In . SVG Version: 6.00 Build 0)  -->
<svg version="1.1" id="Layer_1" xmlns="http://www.w3.org/2000/svg" xmlns:xlink="http://www.w3.org/1999/xlink" x="0px" y="0px"
	 viewBox="0 0 91.3 106.9" style="enable-background:new 0 0 91.3 106.9;" xml:space="preserve">
<style type="text/css">
	.st0{fill:#231F20;}
</style>
<title>Asset 33</title>
<g id="Layer_2_1_">
	<g id="Layer_1-2">
		<g id="_30afcb22-a27c-4ebe-b1c5-35b063b3955e">
			<g id="_30afcb22-a27c-4ebe-b1c5-35b063b3955e-child-0">
				<path class="st0" d="M36,106.5l-0.9-0.1l-1.6-0.2l-0.8-0.1l-1.2-0.2l-0.6-0.1l-1-0.2l-0.5-0.1l-0.7-0.3l-0.6-0.3l-0.7-0.6
					l-0.3-1.2v-0.2l0.3-0.3l0.2-0.1l0.7-0.2l0.4-0.1H30l2.3,0.3l0.7,0.1l1.8,0.1h0.9h2l1-0.1l2-0.2l2.8-0.4l0.8-0.2l1.4-0.2l0.7-0.1
					l1.2-0.1h0.6h0.9h0.4l0.6,0.2l0.3,0.1L51,102l0.1,0.2l0.1,0.4v0.2l-0.3,0.5l-0.8,0.9l-0.6,0.6l-1.7,0.9l-0.9,0.4l-2.3,0.5
					l-1.2,0.2l-2.8,0.1h-1.5 M0.1,96.1L0.1,96.1l0.2-0.4l0.1-0.2L1,95.1l0.5-0.5L3,93.2l0.9-0.8L6,90.6l3.6-2.9l2-1.6l4.1-3.5
					l2.1-1.8l4.2-3.9l2.1-2l4.4-4.3l2.2-2.2l4.7-4.9l2.4-2.5l5-5.5l2.6-2.9l5.4-6.2l2.8-3.2l5.9-7l9.6-11.6l1.4-1.7l2.7-3.2l1.3-1.6
					l2.5-3l1.2-1.5l2.3-2.7l1.1-1.3l2-2.3l1-1.1l1.6-1.9l0.8-0.9l1.3-1.4l0.6-0.6l0.8-0.8L90.2,0h0.3l0.4,0.2l0.2,0.1l0.2,0.4
					l0.1,0.2v0.6v0.3l-0.2,0.8L91,2.9l-0.4,1l-0.2,0.5l-0.6,1.2l-0.3,0.6l-0.8,1.5l-1.4,2.5l-1.3,2.1l-2,4.2l-0.4,1l-0.6,1.9
					L82.4,22l-0.1,0.7L81.9,24l-0.2,0.7L81,26.2l-0.7,1.5l-2.1,2.9L77.1,32l-2.8,2.6L69.6,38L69,38.3l-0.9,0.5l-0.4,0.3L67,39.5
					l-0.6,0.3l-0.7,0.3l-0.3,0.1L65.2,40l-0.1-0.8v-0.1l0.3-0.5l0.2-0.3l0.6-0.6l2.4-2.1l0.9-0.7l1.3-1.2l0.5-0.6l0.5-0.9l0.2-0.4
					l-0.3-0.6l-1.5-0.3H70L69.6,31l-0.2,0.1l-0.6,0.5l-0.7,0.6L66.3,34l-0.9,1l-2.2,2.5l-3.5,4.3l-2.1,2.7l-4.4,5.2l-2.2,2.6l-4.7,5
					l-2.4,2.5l-5.1,5l-8.4,7.8l-0.8,0.8L28,74.8l-0.7,0.7l-1.1,1.2l-0.5,0.5L25.1,78l-0.2,0.6l0.3,0.2l0.9,0.3l0.5,0.2l1.2,0.3
					l1.3,0.3l3.3,0.3l1.7,0.1l3.7-0.1l5.3-0.6l1-0.2l2.3-0.6l1.2-0.3l2.5-0.9l2.5-0.9l4.8-2.3l1.1-0.6l2-1.1l0.9-0.5l1.5-1l0.6-0.5
					l0.8-0.8l0.1-0.9l-0.1-0.1l-1-0.3l-0.6-0.1L61,68l-1-0.2l-2.4-0.2l-3.9-0.3l-1.2-0.1l-2.1-0.2l-1-0.1l-1.8-0.2l-0.8-0.1
					l-1.4-0.3l-0.7-0.1L43.7,66l-0.5-0.2l-0.7-0.4l-0.3-0.2l-0.3-0.4l-0.1-0.2V64l0.4-0.8v-0.1l0.3-0.1l0.2,0l0.7-0.1l0.7-0.1
					l2.2-0.2l1.2-0.1l2.9-0.1h4.8h1.5l2.7,0.1l1.3,0.1l2.3,0.2l1.1,0.1l2,0.2l0.9,0.1l1.6,0.3l0.7,0.2l1.2,0.4l0.5,0.2l0.8,0.5
					l0.4,0.3l0.5,0.5l0.3,0.9v0.2l-0.6,0.8L72,67.8L70.8,69l-0.7,0.6L68.5,71l-0.9,0.7l-1.9,1.6l-2,1.6l-4.1,3l-1,0.7l-1.8,1.2
					l-2.4,1.4l-0.9,0.5l-1.9,0.7l-1,0.3l-2.5,0.4l-0.7,0.1l-1.6,0.1L45,83.3l-2,0.1h-1h-2.4h-4.2H20.8l-9.1,7l-1.1,0.8l-1.9,1.4
					l-0.9,0.7l-1.6,1.1l-0.8,0.5L4,95.7l-0.6,0.4l-1,0.5l-0.5,0.2l-0.7,0.3l-0.3,0.1H0.4H0.2L0,96.8v-0.2 M76.3,25.6l0.8-0.8
					l1.1-1.5l0.2-0.3l0.2-0.5v-0.5l-0.1-0.1h-0.4h-0.2l-0.6,0.3l-0.7,0.3L75,23.6l-0.8,0.6l-1.3,1.4L72.6,26l-0.4,0.6L72,27.3v0.5
					l0.2,0.5l0.2,0.1l0.6-0.1l0.3-0.1l1-0.7l0.6-0.5 M12.6,69.3L12.6,69.3l0.2-0.7l0.1-0.4l0.4-1.1l0.2-0.6l0.6-1.4l1-2.5l0.4-0.8
					l0.8-2.2l0.4-1.1l0.9-2.5l0.4-1.3l0.9-2.5l1.1-3.5l0.4-1.2l0.9-2.6l0.5-1.4l1.1-2.9l1.1-2.9l2.5-5.9l0.6-1.4l1.2-2.6l0.5-1.3
					l1.1-2.2l0.5-1l0.9-1.6l1-1.5l0.4-0.4l0.7-0.5l0.3-0.2l0.5-0.1h0.2l0.3,0.3l0.2,0.2l0.2,0.7l0.1,0.4l0.1,1.1v0.6l-0.1,1.5
					l-0.1,0.8L35,26.9l-0.5,3.4l-0.4,2.5l-0.7,5.5l-0.1,1.3l-0.2,2.3L33,44.6V46l-0.3,2.2l-0.1,0.5l-0.2,0.6l-0.3,0.4h-0.4l-0.6-0.8
					l-0.3-0.5l-0.3-1.8l-0.1-1l0-2.5l0.3-4.4l0.1-1.1l0.1-1.6v-0.7l-0.1-0.9l-0.1-0.4l-0.3-0.2h-0.1l-0.5,0.6l-0.3,0.4L29,36.1
					l-0.4,0.8l-0.9,2.2l-0.5,1.2l-1.1,3l-1.9,5.4l-1.1,3.1l-2.1,5.5l-0.5,1.3l-1,2.3L19,62.1l-1,2L17.5,65l-0.9,1.6l-0.4,0.7
					l-0.8,1.1L15,68.9l-0.7,0.7L13.5,70h-0.3l-0.4-0.2l-0.2-0.1 M57.1,52.5l-0.4-0.1l-0.6-0.3L55.8,52l-0.3-0.3l-0.1-0.1v-0.3v-0.1
					l0.3-0.3l0.2-0.1l0.6-0.3l0.3-0.1l0.8-0.3l3.5-0.7l0.8-0.1l1.9-0.4l1-0.2l2.2-0.6l1.1-0.3l2.2-0.6l3-0.9l1.1-0.4l1.8-0.5
					l0.8-0.2l1.3-0.2l0.6-0.1l0.8,0.1l0.7,0.4l0.1,0.3l0.1,0.5v0.3L80.3,47L80,47.6l-1.3,1.1l-0.7,0.5l-2,1l-1,0.5l-2.5,0.8
					l-1.3,0.4l-2.7,0.6l-1.4,0.3l-2.8,0.3l-1.4,0.1l-2.6-0.1L59.3,53 M36.5,40.6l0.3-0.9l0.9-2.2l0.5-1.1l1-2.4l0.5-1.2l1-2.3l1.4-3
					l0.5-0.9l1.2-2.1l0.7-1.1l1.5-2.3l1.5-2.4l3.5-4.7l0.8-1.1l1.6-2l0.8-1l1.4-1.6l0.7-0.7l1.1-1l1.2-0.6h0.3l0.6,0.9l0.3,0.6
					l0.5,1.8l0.3,0.9l0.4,2.4l0.2,3.6v0.2L61,17.1l-0.2,0.5L60.2,19l-0.6,1.4l-1.8,3.4l-0.4,0.8l-0.9,1.6L56,26.9l-0.8,1.3l-0.4,0.5
					l-0.6,0.8l-0.5,0.4l-0.1-0.1l-0.6,0.4l-0.4,0.3l-1.1,1L51,31.9l-1.5,1.4L47,35.7l-1,1l-1.8,1.8l-0.9,0.9L41.9,41l-0.8,0.7
					L39.8,43l-0.6,0.6l-1.1,1l-0.5,0.5l-0.8,0.8l-0.4,0.3l-0.6,0.5L35.4,47L35,47.3l-0.4,0.2h-0.1l0.1-0.5l0.1-0.4l0.3-1.1l0.2-0.6
					l0.5-1.5l0.3-0.8 M52.3,25.6l0.9-1.2l1.4-2.3l0.6-1.1l0.8-1.8l0.3-0.8v-1.1v-0.2l-0.2-0.3l-0.6-0.2h-0.2l-0.7,0.6l-0.4,0.4
					l-1,1.2l-0.5,0.7L51.6,21L51,21.8l-1.3,1.8L49,24.5l-1.2,1.8l-0.6,0.9l-1,1.6l-0.5,0.8l-0.7,1.2L44.7,32v0.3l0.2,0.3l0.1,0.1
					h0.3h0.2l0.5-0.3l0.3-0.1l0.6-0.5l0.7-0.6l1.7-1.9l0.9-1 M65.2,14.3L64.8,14l-0.4-0.5l-0.2-0.3v-0.7v-0.4l0.3-1L65.5,9l0.4-0.9
					l0.8-1.4l0.4-0.6l0.8-1l0.4-0.4l0.8-0.5L69.6,4l0.8-0.1h0.4l0.6,0.3l0.3,0.2l0.5,0.8l0.2,0.4l0.3,1.2L72.9,9v0.5l-0.2,1L72.5,11
					l-0.5,0.9l-0.5,0.9L70.1,14l-0.8,0.5l-1.8,0.4h-0.4l-0.8-0.1l-0.4-0.1L65.2,14.3z"/>
			</g>
		</g>
	</g>
</g>
</svg>
