<svg xmlns="http://www.w3.org/2000/svg" viewBox="0 0 2975.65 1440.13"><defs><style>.cls-1{fill:#703290;}</style></defs><title>866f6200-d7ad-4e8b-885a-f182e3508443mdpi</title><g id="Layer_2" data-name="Layer 2"><g id="Layer_1-2" data-name="Layer 1"><g id="_866f6200-d7ad-4e8b-885a-f182e3508443" data-name="866f6200-d7ad-4e8b-885a-f182e3508443"><g id="_2b44a568-dfae-44b6-a3ec-ffda514803e0" data-name="2b44a568-dfae-44b6-a3ec-ffda514803e0"><path class="cls-1" d="M349.26,283.1h-300V118.47h300V1.54H530.81V118.47h380V1.54h183.09V118.47H1397V283.1h-303.1V420H910.85V283.1h-380V420H349.26ZM620.05,850.84c3.08-18.46,3.08-36.92,3.08-55.39V657H358.49V850.84ZM815.45,657V798.53c0,16.92,0,35.39-1.54,52.31h276.95V657Zm63.09,364.65c115.39,140,306.18,221.55,575.43,249.25-40,41.54-90.78,118.47-113.85,169.25-286.18-46.16-475.43-152.33-604.67-337-90.78,143.09-273.87,261.56-621.6,337-20-40-72.31-113.86-113.85-155.4,329.26-60,490.81-153.86,563.12-263.1H33.84V850.84H181.55V498.5H623.13V344.64H815.45V498.5H1277V850.84H1414v170.79ZM2464.83,1207.8h144.63V1055.48H2464.83Zm144.63-749.3H2464.83V603.13h144.63Zm0,298.49H2464.83V901.62h144.63ZM2127.88,550.82c35.39-43.09,69.24-93.86,101.55-147.71H1910.94C1900.17,657,1866.32,944.7,1757.08,1214l87.7-20C1894,1004.7,1946.32,724.68,1969.4,517ZM2975.65,1374H2464.83v63.08H2295.59V630.82q-34.62,50.77-69.24,92.32c-21.54-30.77-69.24-89.24-106.16-126.17C2084.8,781.6,2038.64,995.47,1994,1160.1l121.55-29.23C2101.72,1057,2083.26,983.16,2064.8,917L2194,863.15c44.62,144.63,83.08,326.18,95.39,449.27L2151,1369.35c-1.54-27.7-6.16-60-10.77-93.85-118.48,36.92-240,70.77-341.57,98.47l-49.24-140c-21.54,50.78-46.16,103.09-73.85,152.32-36.93-26.15-107.7-63.08-158.48-78.46,166.17-290.8,215.41-620.06,229.26-904.7H1567.83V233.86h184.63V0h163.09V233.86h340V355.41c58.47-109.24,106.17-232.33,140-355.41l170.79,41.54a2147.41,2147.41,0,0,1-90.78,252.33h129.24c40-87.7,78.47-195.4,101.55-278.49l172.32,47.7c-33.84,76.93-69.23,158.47-104.62,230.79H2961.8V458.5H2777.17V603.13h169.24V757H2777.17V901.62h169.24v153.86H2777.17V1207.8h198.48Z"/></g></g></g></g></svg>