<svg xmlns="http://www.w3.org/2000/svg" viewBox="0 0 105.48 42.29"><defs><style>.cls-1{fill:#0d122f;}</style></defs><title>916bca3a-ac12-44a6-bd6b-4c03244acdaamdpi</title><g id="Layer_2" data-name="Layer 2"><g id="Layer_1-2" data-name="Layer 1"><g id="_916bca3a-ac12-44a6-bd6b-4c03244acdaa" data-name="916bca3a-ac12-44a6-bd6b-4c03244acdaa"><g id="_916bca3a-ac12-44a6-bd6b-4c03244acdaa-child-0" data-name="916bca3a-ac12-44a6-bd6b-4c03244acdaa-child-0"><path class="cls-1" d="M33.67,8.58H33V7.14h-.73V5.7h-.68c0-.25,0-.47,0-.72h-.7V4.27h-.72v-.7h-.73l-.71,0v-.7H26.51V2.12H24.34V1.39H22.22c0-.25,0-.47,0-.72H17.89V0H13.58V.69H10.71v.72H9.29v.73H7.85v.73h-.7c0,.24,0,.47,0,.72h-.7v.7H5.68V5L5,5V6.44H4.25v.73H3.52V8.61h-.7v2.77a.09.09,0,0,1,0,0,.23.23,0,0,1-.07.06H2.09v2.86H1.36v1.41l-.7,0v1.4h.72v-.71H2.82V15.8h.72v.69H5.59l0,0,.07.07v.63h.7v.73h.68v2.87H6.4v.71H5.67V23H4.23v.71H1.46l-.05,0-.06-.07V23H.68V21.54H0v2.15H.69v2.17c0,.7,0,1.41,0,2.14h.7v.7H3.58v5H5V33h.71v1.41h.73V33H7.87v.73a2.82,2.82,0,0,0,0,.66h.7V33H10v1.37h.72V33h1.42v1.41h.72v-.72h.71V33h.73v1.38h.73V33c1,0,1.91,0,2.87,0V31.54h.71v-.73h.72v-.72h.69c0-.25,0-.48,0-.72h.7V28h2.85v1.41H22.2v.71h-.7v.73h-.73v.72h-.71v.71h-.72V33h-.73v.69l-.72,0v.69h-.71v.73h-.72v1.41H15v-.67h-.73V38h-.73v-.68l-.72,0v-.69h-.71V38H10.71V36.6H10V38H8.57v-2.1H7.84v1.39l-.72,0V38H6.41V35.87H5.68v.72H5v.68H4.25V35.89H3.56v2.82l.72,0v2.13H5v.73H7.15v.68h6.42c0-.25,0-.47,0-.72h2.13v-.71h1.44v-.69l.72,0v-.7h1.42v-.73h1.44V38h.7v-.72a2.42,2.42,0,0,1,0-.71h.69V34.41h.73V31.56l.72,0V30.11h.7V28.67h.73V27.23h.68c0-.25,0-.48,0-.72h.7V25.8H28v-.68h.67v1.41h-.7v.73h-.68V28h1.39c0-.25,0-.48,0-.72h.7v-.71h.73v-.69l.72,0v-.7h.71V23.65h.73V20.78H33V17.93h.73v-3.6h.69V10.05l-.72,0V8.58ZM10.73,28.67H7.17c0,.27,0,.49,0,.72H6.46c0-.23,0-.45,0-.7H5.75v-5h.68V23H7.87v.7h.7v.69l.72,0v1.41H10v1.44h.72Zm10.74-4.32h-.68v.73h-.7v.65c-.51.1-4.74.13-6.47.05v-.69H12.9v-.72h-.73v-.71h-.71c0-.25,0-.48,0-.71v-.73h-.71V20.06H10V18.64l-.72,0V17.2H10v-.73h1.44v-.73H15v.71h1.42v.73h1.41v.71h1.45v.71H20v.73h.73V20h.69v4.31ZM.68,18.61H0V17.2H.68Zm68.57-10h-.71V7.14h-.73V5.7h-.68c0-.25,0-.47,0-.72h-.7V4.27h-.73v-.7h-.73l-.71,0v-.7H62.08V2.12H59.92V1.39H57.79c0-.25,0-.47,0-.72H53.46V0H49.15V.69H46.28v.72H44.86v.73H43.42v.73h-.69c0,.24,0,.47,0,.72H42v.7h-.73V5l-.73,0V6.44h-.71v.73H39.1V8.61h-.71v2.77l0,0-.07.06h-.64v2.86h-.73v1.41l-.7,0v1.4H37v-.71h1.44V15.8h.73v.69h2l.05,0,.07.07v.63H42v.73h.67v2.87H42v.71h-.73V23H39.8v.71H37l0,0-.07-.07V23h-.71V21.54h-.67v2.15h.69v2.17c0,.7,0,1.41,0,2.14H37v.7h2.16v5h1.44V33h.71v1.41H42V33h1.42v.73a2.84,2.84,0,0,0,0,.66h.7V33h1.44v1.37h.72V33h1.42v1.41h.73v-.72h.71V33h.72v1.38h.73V33c1,0,1.92,0,2.88,0V31.54h.7v-.73h.73v-.72h.69c0-.25,0-.48,0-.72h.7V28h2.84v1.41H57.74v.71H57v.73h-.73v.72H55.6v.71h-.73V33h-.72v.69l-.72,0v.69h-.71v.73H52v1.41H50.57v-.67h-.72V38h-.73v-.68l-.72,0v-.69h-.71V38H46.25V36.6h-.71V38H44.1v-2.1h-.72v1.39l-.72,0V38H42V35.87h-.73v.72h-.7v.68h-.73V35.89H39.1v2.82l.72,0v2.13h.7v.73h2.16v.68h6.43c0-.25,0-.47,0-.72h2.14v-.71h1.44v-.69l.72,0v-.7h1.42v-.73h1.44V38H57v-.72a2.82,2.82,0,0,1,0-.71h.69V34.41h.73V31.56l.72,0V30.11h.71V28.67h.73V27.23h.68c0-.25,0-.48,0-.72H62V25.8h1.44v-.68h.68v1.41h-.7v.73h-.68V28h1.39c0-.25,0-.48,0-.72h.7v-.71h.73v-.69l.72,0v-.7h.7V23.65h.73V20.78h.71V17.93h.73v-3.6h.69V10.05l-.72,0V8.6Zm-23,20.09H42.74c0,.27,0,.49,0,.72H42c0-.23,0-.45,0-.7h-.67v-5H42V23h1.44v.7h.71v.69l.72,0v1.41h.72v1.44h.71ZM57,24.35h-.68v.73h-.71v.65c-.51.1-4.73.13-6.46.05v-.69h-.73v-.72h-.72v-.71H47c0-.25,0-.48,0-.71v-.73h-.7V20.06H45.6V18.64l-.72,0V17.2h.69v-.73H47v-.73H50.6v.71H52v.73h1.42v.71h1.44v.71h.73v.73h.73V20H57v4.31Zm-20.8-5.74h-.67V17.2h.67ZM104.81,10V8.57h-.7V7.13h-.73V5.69h-.68c0-.25,0-.47,0-.72H102V4.26h-.72v-.7h-.73l-.71,0v-.7H97.65V2.11H95.48V1.38H93.36c0-.24,0-.47,0-.72H89V0H84.72V.69H81.85v.72H80.43v.73H79v.73h-.7c0,.24,0,.47,0,.72h-.7v.7h-.73V5L76.1,5V6.44h-.71v.73h-.73V8.61H74v2.77l0,0-.08.06h-.63v2.86H72.5v1.41l-.7,0v1.4h.72v-.71H74V15.8h.72v.69h2l0,0,.07.07v.63h.7v.73h.68v2.87h-.69v.71h-.73V23H75.37v.71H72.6l0,0-.06-.07V23h-.71V21.54H71.1v2.15h.7v2.17c0,.7,0,1.41,0,2.14h.7v.7h2.16v5h1.45V33h.7v1.41h.73V33H79v.73a2.84,2.84,0,0,0,0,.66h.7V33h1.44v1.37h.72V33h1.42v1.41H84v-.72h.7V33h.73v1.38h.73V33c1,0,1.91,0,2.87,0V31.54h.71v-.73h.73v-.72h.68c0-.25,0-.48,0-.72h.69V28h2.85v1.41H93.31v.71H92.6v.73h-.73v.72h-.7v.71h-.73V33h-.73v.69l-.72,0v.69h-.7v.73h-.73v1.41H86.14v-.67h-.73V38h-.73v-.68l-.72,0v-.69h-.7V38H81.82V36.6h-.71V38H79.67v-2.1h-.73v1.39l-.72,0V38h-.7V35.87h-.73v.72h-.71v.68h-.73V35.89h-.69v2.82l.72,0v2.13h.71v.73h2.16v.68h6.43c0-.25,0-.47,0-.72h2.13v-.71h1.44v-.69l.72,0v-.7h1.42v-.73h1.44V38h.7v-.72a2.42,2.42,0,0,1,0-.71h.69V34.41H94V31.56l.72,0V30.11h.71V28.67h.72V27.23h.69c0-.25,0-.48,0-.72h.7V25.8h1.44v-.68h.68v1.41H99v.73h-.68V28h1.39c0-.25,0-.48,0-.72h.7v-.71h.73v-.69l.72,0v-.7h.7V23.65h.73V20.78h.71V17.93h.72v-3.6h.69V10.05l-.72,0Zm-23,18.67H78.3c0,.27,0,.49,0,.72h-.68c0-.23,0-.45,0-.7h-.68v-5h.68v-.72H79v.7h.71v.7l.72,0v1.41h.72v1.44h.71ZM92.6,24.34h-.67v.73h-.71v.66c-.51.09-4.74.12-6.46,0v-.68H84v-.73H83.3v-.71h-.7c0-.24,0-.48,0-.71v-.73h-.7V20.05h-.71V18.63l-.72,0v-1.4h.68v-.73h1.44v-.73h3.6v.71h1.42v.73H89v.71l.71,0h.73v.7h.73v.73h.72V20h.7v4.3ZM71.81,18.6h-.68V17.2h.68Z"/></g></g></g></g></svg>