<svg xmlns="http://www.w3.org/2000/svg" viewBox="0 0 2391.81 2896.41"><defs><style>.cls-1{fill:#9f1111;fill-rule:evenodd;}</style></defs><title>92cfbb10-bb90-4c8f-bd07-63d5e0c3a493roster</title><g id="Layer_2" data-name="Layer 2"><g id="Layer_1-2" data-name="Layer 1"><g id="_92cfbb10-bb90-4c8f-bd07-63d5e0c3a493" data-name="92cfbb10-bb90-4c8f-bd07-63d5e0c3a493"><g id="_92cfbb10-bb90-4c8f-bd07-63d5e0c3a493-child-0" data-name="92cfbb10-bb90-4c8f-bd07-63d5e0c3a493-child-0"><path class="cls-1" d="M1437.32,32.71c-8.54-6.09-10,10.26-10.72,13C1434.85,52.17,1436.63,35.53,1437.32,32.71Zm-46.61,43.41c-7.31-5.32.07-25.07,5.8-33.44,3.48-5.08,9.23-16.46,16.56-13.58C1407,44.68,1406.22,59.68,1390.71,76.12Zm283.34,244.21c2.74-4.17.37-12.08,8-9.75C1679.42,314.81,1681.85,322.78,1674.05,320.33Zm677,639.36c1.76-14.91,21.32-52.56,40.72-42.77-5.65,13.81-24.91,45.15-40.87,42.53Zm-903-754.5c-11.81-6.1,1.8-29.71,12.2-28.16-3.54,9.13-3.69,18.11-12.35,27.92Zm631.47,726.75-72.13,87.6c-2.81,3.41-6.24-.94-.51-5.91l42.72-51.88c13.93-20.31,30.9-33,42.72-51.87,6.1-9.82,8.21-22.45,14.91-31.3,20.22-26.82,50.09-46.63,72.7-81.76,2.81-3.41,8.3-7,5.91-.5C2141.14,844.16,2132.2,888.92,2079.59,931.94Zm-461.21-570.4-6.47-5.33,5.33-6.48,6.48,5.33ZM1334,198.11c-9.37-6.08-2.63-13.85,1-21.05C1347.72,182.81,1330.73,191.37,1334,198.11Zm209.1,248.38c-22.41-17.63,12.09-51.85,30.39-56.76C1560.77,410.5,1562,433.51,1543.05,446.49Zm769.59,579.33-6.48-5.33,5.34-6.47,6.47,5.33ZM1376.3,331.14c-.29-4.33,5-22.6,14-10.33C1386,325.33,1381.81,333.81,1376.3,331.14Zm-75.49-40.43c3.46-6.62,6.69-28.14,15.42-25.4,1.18,6.23-2.12,27.82-15.16,25.5Zm-168.15-133.1c3.17-8.26.33-23.1,13.3-16.16-6.38,4.21-1.26,21.4-13,16.26Zm138.56,136c-9,7.28,8.29-28.23,12.79-22.19.8,7-5.34,14.42-12.52,22.29Zm144.62,168.05c2.83-5.14,12.45-11,8.6-3.78-2.51,5.18-12.19,11.12-8.34,3.89ZM742,37.2C721.08,24.55,740.89.2,756.25,0,755.07,12.23,757.1,24,742,37.2Zm563.84,459c-.41,1.64,4.55,6.55,3.91,8.6-4.43,12.47-16.23,21.69-23.52,35.08-9.09,16.58-10,39.55-25.58,44.26,23-35,16.06-83.07,51.85-109.22,3,10.16-4.29,13.3-6.52,21.4Zm-515-386c-18.35-12.19-5-27.51,7.81-42.53,2.82-2,5.87-1.6,9.17,2.06,2.71,14.15,1.09,33.15-16.84,40.59Zm367.5,373.46c9-7.16,7.14-28.25,21.39-26-12.28,7.53-6.3,28.23-21.25,26.08Zm-429-358.79c-8.57-3.79-3-10.54-4.42-14.51C724,108,714.7,99,714.64,96.37c-.2-5.3,11.38-10.85,7.39-15.65,10.8,14.27,22,28.05,7.7,44.43Zm-.92,21c-1.34-9.87,3.05-20.16,14.79-31.3,14.74,12.61-.41,31.57-14.37,31.64ZM668.83,85.87l-6.48-5.33,5.34-6.48,6.47,5.33ZM1173.57,550.5c-.28-3.5,5.08-21.64,13.3-16.16-6.24,4.45-1.18,21.58-12.89,16.5Zm230.84,195.59c5.24-8.07,10.87-11.5,17.21-7.56,1.54,9.34-7.89,17.81-16.8,7.91Zm-813-538.92c-22.78,37.45-46,81.16-63.31,116.6-11.72,23.88-24.77,47.25-37.85,72.36-8.11,15.52-14.43,31-22.31,46.95-12.66,25.45-30.17,51.68-35.15,69.08-5.79,20.36-7.07,40.93-15.27,58.13.58,10.64,9.78,18.34,11.47,25.8a110.08,110.08,0,0,1-9.36,57.62c-16.34,27.08-50.26,52.09-70.81,39.72-26.48-16.08-15.14-94.27,1-113.58,9.29-11.28,31.42-13,42.38-24.93A136.77,136.77,0,0,0,402.24,536c10.4-21.7,28.41-40.87,38.94-60.48,1.72-6.06,3.12-12.15,4.25-18.35a151.81,151.81,0,0,1,10-18.85c13.7-27.28,29.59-51.11,40.49-75.56,4.16-12.7,9-25.09,14.34-37.27,6.41-11.19,16.6-18.46,24-29.17,19.05-27.67,32.87-68.29,50.58-94.48,8.25-12.14,19.72-20.69,26.72-32.45,13.44-22.7,14.88-48.86,32.47-65.81,2.76-1.93,5.74-1.58,9.11,2.13C641,141.94,612.6,172.31,591.37,207.17Zm84.73,42.55c-17.31-25.94-1.22-68.19,30.11-89.48C741.19,185.3,713.39,245,676.1,249.72ZM1172,804.66c-26.77-28.23,11.9-62.41,35.51-95.91,6.14-8.73.26-18.48,13.36-16.22-24.62,38.27-15.37,73-49.47,112.57ZM877.72,448c.63-14.1,7.16-14.79,9.58-24.83,11.46,7.8,3.35,32.55-9.94,25ZM1184.42,717c8-3.54-.8-18.89,10.72-13-1.12,2.93-2.55,19.28-11.09,13.18ZM962.6,649c-24-19.78-10.42-42.82-.39-65.64,19.66,4.51,18.52-29.15,39.67-21.78C1002.09,588.3,996.35,637.56,962.6,649Zm151.16,173.45c9.32-17.56,24.39-34,30.91-50.73,5.43-14.11.18-38.53,22.82-41-25.75,29.28-14.13,71.21-53.8,91.71ZM930.41,562.68l-6.55-5.39,5.39-6.54,6.55,5.39ZM706.14,405.22c-16-8-.07-40.49,15.48-25.46.79,8.83-2.85,24.17-15.62,25.35ZM1067.77,746.5c10.3-5.42,2.84-23.6,16-19.43.39,4.07-7.89,23.77-16.28,19.2Zm-491-415.21-6.55-5.39,5.33-6.47,6.55,5.39Zm154.7,181.63c-15.41-1-10.14-24-12.54-37.55-1.62-8.82-13.5-16.38-2.28-23.62C731.06,471.31,741.84,491.41,731.49,512.92Zm-276.23-233-6.48-5.34,5.33-6.47,6.48,5.33ZM971.39,770.31l-5.33,6.48c-12.13-1.46-.41-18.8,4.77-12.32-1.74,2.54-2.79,4.37.45,6Zm-275-188.25c-9.37-6.08-6.93-13.3,1-21,9.25,6.22,6.81,13.44-1.09,21.19ZM438.61,386c-8.82,18.79,8.13,35.1-12.56,55-15.08-19.43-14-40.43,2.88-63ZM857,757.74c.51-4.6,2.21-18.16,11.3-7-3.9,3.45-7.4,9.68-11.63,7Zm291.54,267.32c-12.52-4.94,3.72-37,15.49-25.33.69,7.81-8.76,16.73-15.81,25.3Zm34.48,23.26c-19.79-7.19-2.4-33.41,10.16-18.86A27.09,27.09,0,0,1,1183,1048.32ZM795.45,745.43a11.55,11.55,0,0,1,14.45-4.35c1.05,8.81-5.24,16.72-14.17,4.58Zm114.66,105.4c-13.37-3.06,2.51-22.35,8-9.75ZM607.49,623.35a20,20,0,0,0,4.75-12.45l6.55,5.39c.05,7.88-2.78,11-11,7.29ZM917.38,894.92c-11.06-7-.32-26.56,10.09-18.92a27.23,27.23,0,0,1-9.81,19.15Zm-349-217.35c-20.8-24.13-6-74.33,25.35-77,2.35,23.67.07,61.63-25.36,77.62ZM797.45,855.39c-8.13,14-25.39,23-32.57,33,6.5-4.35,2.07-14.42,3.56-24.18,2.9-17.71,22.42-68.94,42.14-57.84-5,15-3.8,33.56-13.14,49.59Zm-96.94-107c-14.19-3.63-.23-31.51,10.1-18.8a27.17,27.17,0,0,1-10.1,19.37ZM476.09,558.14l-6.47-5.33,5-6.06,6.76,5.56ZM720.52,770.3,714,765l5.33-6.48,6.48,5.34Zm-128.58-95c.45-4.65,2.34-18.17,11.23-7.11-3.65,4-7,10.36-11.24,7.69Zm521.37,451.1-6.47-5.33c3.38-4.11-.51-7.9,4.69-12.38L1118,1114c-3.18,4.85.5,8.47-4.71,13Zm-118.09-48.29c3.06-11.39,22.54-39.86,28.72-41.55-6.14,14.69-9.92,44.53-28.73,42.12Zm-3.09-62.37-5.33,6.47c-12.2-1.51-.48-18.86,4.69-12.37-1.19,2.87-2.74,4.75.63,6.47Zm130.34,146.36-6.48-5.33,5.74-7,6.47,5.33Zm-87.14-33.66,10.72-13,9.68,8c-5.63,9.38-11.78,17.28-19.94,5.19Zm117.91,108c39.8-12.57,32.18,42.51,26.71,60.08s-.11,19.43-5.68,33.42a19.49,19.49,0,0,1-10.66,12.95c-13.78-18.59-24.13-1.63-37.84-20.17,18.27-17.79,7.86-32.67,1.38-47.94-11.81,14.34-28.44-5.9-31.13,17.94-18.09-14.07,16.08-37.12,26.08-38.34-4.76-9.54,5.37-20.7,14.92-31.3a15.55,15.55,0,0,1,16.68,13.5Zm-112.42-81.72c-1-7.72,8.13-20,16.63-13.53,1.47,7.87-7.6,20.15-16.17,13.68ZM772,906c4.3,23.17-5.6,34.18-17.89,61.46a330,330,0,0,1-17.14,40.68c-15.53,22.26-47.68,41.71-59.41,65.47-5.37,10.77.3,17.66-6.25,27.45-8.57-15.7-12.65,13-20.42,4.93a476.62,476.62,0,0,0,53.86-91.79c7.39-18.91,11.1-34.2,19-49.57,12.68-24.62,15.72-41.51,27.19-59.41,7.75,3.93,13.53-10.47,21.56.93Zm329.4,287.63-6.55-5.39,5.34-6.48,6.54,5.39Zm-21.56-6.89c-.35-4.26,4.93-22.58,13.87-10.31-4,4.49-8.45,13.38-13.27,10.57Zm181.09,143.64-5.34,6.47c-2-1.6-4.29-2.59-5.9.64l-6.54-5.39c1.61-2,2.74-4.18-.51-5.91l5.33-6.48c2,1.61,4.24,2.67,5.85-.56l6.54,5.39c-1,2.21-2.27,4.32,1,6Zm-8.54,30.94c1.35-3.21,5.33-6.47,2.11-9.24,6.17-8.48,13.39-6,20.42-4.92C1282.25,1357.7,1264.73,1379.26,1252.36,1361.36ZM12.59,334.89c-13.35-2.24,2.49-21.33,7.45-15.72C17.47,324.42,19.53,329.15,12.59,334.89Zm1062.86,864.42c-4.76,12.45-11.67,0-18.28-4.19l8.2-9.95A23.3,23.3,0,0,1,1075.45,1199.31ZM557.58,783.7l-6.48-5.33,5.33-6.48,6.48,5.33ZM63.14,425.47c-9.24-6.09-13-12.65-4.92-20.41C67.46,411.15,71.17,417.71,63.14,425.47Zm33,32.69-6.54-5.39L95,446.3l6.55,5.39ZM1170.3,1408.07c1.37-3.08.39-6-3.78-8.6,7.06-8.57,14-19.56,22-20C1203.44,1396.21,1187.74,1410.16,1170.3,1408.07Zm-173-153.45c4.19-5.09,8.82-11.56,14.45-4.35A11.55,11.55,0,0,1,997.3,1254.62Zm209,215.65c-8-14.16-15.49-28.29-7.28-44.08C1216.66,1439.47,1205.14,1455.45,1206.25,1470.27ZM23.86,512.9C5.09,511-9.8,487.51,8,472.59A32.39,32.39,0,0,1,23.86,512.9ZM970.12,1314c3.43-10.26-5.91-19.35,9-30.79C998.1,1291.26,986.28,1320.79,970.12,1314Zm201.15,165.66c5.34-6.47-5.4-11.46,4.18-18.41,5.25,2.57,10,.57,15.66,7.52C1185,1477.2,1178.78,1485,1171.27,1479.68ZM1039.43,1382c-16.4-7.19,5.55-33.28,15.42-25.4C1056.06,1365.17,1052.12,1380.74,1039.43,1382ZM713.24,1097l-9.75-8,8-9.75,6.48,5.34c-3.16,4.4.52,8-4.69,12.5ZM270.85,721.8l-5.33,6.47c-12.14-1.58-.48-18.85,4.83-12.38-1.46,2.19-2.67,4.23.57,6ZM1881.63,2064.68l-6.48-5.33,5.39-6.55,6.48,5.34ZM872.52,1293.48c6.37-7.73-3.84-29.11,12.22-28-2.86,9.56,5.9,35.12-12.15,28.08Zm193.33,148.34-6.47-5.33,5.33-6.47,6.48,5.33Zm-316.2-244-6.48-5.33c2.7-3.28.57-6.08,2.12-9.24,4.18,3.44,7.91-.39,12.38,4.82Zm677.06,579.31-9.75-8c-8.07-11.2,9.28.52,12.44,4.76,10.2,2.79,19.81-.63,30.67,9-4,9.36,3.68,17.53-.28,26.88-14.59-13.65-14.3-16-32.8-32.39Zm-81.12-66.8a57.2,57.2,0,0,1-35.09-23.52c-14.29-.09-45.19-16.07-50.78-30.84,20.27,14.12,38.35,5.64,59.46,27.12,8.12,1.78,15.89,0,24.19,3.68.06,7.88,3,15.79,2.5,23.79Zm-169.22-144.85a15.13,15.13,0,0,1-27.52-6.31,15.86,15.86,0,0,1,27.8,6.54Zm191.41,157.63,9.75,8c3.3,3.65,9.59,7.08,7,11.24-3.81-6.29-21.94-11.52-16.45-19ZM947.93,1426.39c-16.22-4.71,5.17-37.22,15.47-25.47,1.24,8.15-8.16,17-15.2,25.7Zm571,470.2c-11.37-4.93-4.64-11.54-13.53-16.64a38.77,38.77,0,0,1,26.32-5.55,16.11,16.11,0,0,1-12.51,22.42Zm-415.26-342-6.2-5.1,5.27-6.41,6.48,5.34ZM652.7,1183.26l-6.48-5.33,5.28-6.41,6.47,5.33Zm346.23,301.37a23.33,23.33,0,0,1-10.38-13.92c6.08-9.37,13.3-6.93,21.05,1ZM407.84,992.48c4.18,3.44,8-.45,12.45,4.75-1.86,11.91-19.14.25-12.73-5Zm-10.66,12.95-6.48-5.33,5.33-6.48,6.48,5.33Zm132.61,169.15c-.38-7.2,14.5-30.94,24.08-29.24C553.82,1156.75,544.77,1177.81,529.79,1174.58Zm1171.08,931.24c4.18,3.44,7.91-.38,12.44,4.75C1711.71,2123.16,1693.81,2111.69,1700.87,2105.82ZM1421.53,1903l-6.55-5.39c2.7-3.27.58-5.95,2.13-9.12,4.11,3.39,7.9-.5,12.44,4.76Zm-906-724.41c-8.19-5.23-11.62-10.85-7.69-17.19,8.76-.85,17.18,8.65,7.46,17.47Zm1338,1118.73L1847,2292l5.34-6.48,6.47,5.33ZM432.77,1160c6.41,5.27,11.39-5.46,18.28,4.19C447.58,1173.38,428.14,1167.76,432.77,1160ZM258.22,1021.63l-6.83-5.62,5.11-6.19,7,5.73ZM1740.29,2269.51c5.48-13.6,1.86-21.84,19.33-16.8C1760.81,2260.35,1749,2276.48,1740.29,2269.51ZM406.11,1165.28l-6.55-5.39,5.34-6.48,6.54,5.39ZM1271,1927.11l-5.33,6.48c-12.2-1.52-.48-18.86,4.69-12.38C1269.07,1922.81,1268.24,1924.82,1271,1927.11ZM697.94,1466c.52-4.6,2.34-18.17,11.24-7-3.12,2.8-6.72,9.3-10.95,6.63ZM320.31,1144.17l-5.33,6.47c-12.12-1.45-.48-18.85,4.77-12.31-1,1.83-2,3.72.7,6Zm8.2,23.11c-8.13-5.18-11.55-10.8-7.62-17.14,10,4.86,17.62,4.57,8.05,16.9Zm1391.91,1179-6.47-5.34,5.39-6.54,6.47,5.33Zm-4.6,45.17c-15.87-10.38,3.34-25.76,13.36-16.22a15.54,15.54,0,0,1-12.93,16ZM486.08,1373.23a31.62,31.62,0,0,1-28-12.22c1.3-3.13,5.22-6.33,2.06-9.17,9.69-11.76,21-6.07,33.37,5.75-5.6,5.09-1.84,9.46-7.25,15.18Zm637,535.45-5.33,6.48c-12.2-1.51-.48-18.86,4.69-12.38-1.59,1.38-2.51,3.77.79,5.44ZM446.67,1460c21.9-22,28.17-58.6,52.88-70.73C477.48,1411.49,473.42,1447.64,446.67,1460Zm1300,967.15c-6.08,9.37-13.3,6.92-21-.92,6-9.3,12.65-13,20.4-5.05C1744.81,2423.5,1743.26,2425.38,1746.64,2427.11ZM286,1278.66a9,9,0,0,1-9,6.19,8.68,8.68,0,0,1-8.36-6.88,9,9,0,0,1,4.35-10C281.47,1275.77,284,1268,286,1278.66Zm1423.44,1226.7-6.48-5.33,5.39-6.55,6.48,5.34ZM434.1,1482.33c1.41-2.7,16.65-17.95,11.23-7.11C438.11,1490,430.23,1490,434.1,1482.33Zm-62.74,122.44c-12.09-4.47-25-.6-22.7-18.7,10.4-3.12,4.49,10.59,12.39,4.83,25.35-27.38,40.69-69.56,66.17-87C413.65,1535.83,360.51,1583.33,371.36,1604.77Zm671.29,427.68c.58-4.67,2.35-18.17,11.3-7C1050.24,2028.77,1047.11,2034.84,1042.65,2032.45Zm647,543.2c-7.82.69-15.61-5.6-10.32-13.87C1686.73,2561.58,1694.45,2567.94,1689.63,2575.65ZM854.5,1937c-1.14-9.12,10.52-22.42,19.9-11a12.08,12.08,0,0,1-20.13,11.24Zm118,200.56c3.2-6.59,13.17-38,21.39-26-12.71,7.77-6.8,28.4-21.62,26.25ZM245.64,1598.8c19.5-10.35,6-39.15,30.91-50.73,32.23,21.17-6.86,63.53-31.14,51Zm85.23,48.46c-13.87-3,5.33-23.77,10.16-18.86-8,7,.07,12-10.39,19.14Zm688.71,578.51-6.47-5.33,5.33-6.48,6.47,5.33Zm-697.3-541.53a11.55,11.55,0,0,1,14.5-4.42C337.55,1688.4,331.26,1696.31,322.28,1684.24ZM791,2146.39c7.11-8.63,13.9-20.57,22.48-14.09C816.6,2143.21,805.62,2164.2,791,2146.39ZM321.12,1765l-6.48-5.33,5.39-6.55,6.48,5.33Zm172,174.25c-14.49-6.67.25-26.55,10.15-18.86-7.6,6.82.27,12-10,19ZM258.37,1735l-6.48-5.33,5.34-6.48,6.47,5.33ZM908.89,2287.1c5.36,3,9.92-.83,15.14,1.49-2.51,9.15-20.33,7.8-15-1.37Zm-668-517.52c-9,7.29,8.36-28.17,12.72-22.12.75,7-5.74,14.78-12.58,22.24Zm966.23,790.35c-18.25-8.49-4.93-25.79,7.52-15.66C1212,2549.46,1214.13,2554.25,1207.12,2559.93ZM474.56,1962c2.78-5.07,12.46-11,8.61-3.78C480.33,1963.39,470.77,1969.18,474.56,1962Zm734.85,621.53c-6.38-9.57,17.18-16.47,11.87-1.09C1220.39,2585.11,1210.61,2585.35,1209.41,2583.55ZM949,2390.81c-16.79,3.94-16.25-28.22.41-26.88C938.44,2374,948.12,2381.93,949,2390.81ZM170.39,1749.62a11.54,11.54,0,0,1,14.45-4.34C185.6,1753.85,179.32,1761.76,170.39,1749.62Zm-55.71-51.25-6.55-5.39,5.28-6.41L120,1692Zm904.12,766.3c6.08-9.37,13.84-2.62,21,.92C1033.7,2478.22,1025.64,2461.19,1018.8,2464.67ZM211.61,1805.42l-6.54-5.39c2.69-3.27.63-6,2.13-9.11,4.17,3.44,7.89-.51,12.44,4.75Zm192.32,163.76-6.47-5.34,5.33-6.47,6.48,5.33Zm-25.39-15.42-6.75-5.57c3.44-4.17-.45-8,4.75-12.44l9.75,8Zm541.78,446.17c-4.17-6.71-21.3-1.65-16.22-13.36,1.95,1.61,4.23,2.67,5.9-.63-1.94-2.76-6.41-5.28-3.84-8.54,8.87,13.5,16.65,8.45,13.82,22.24Zm-14.51,4.29c-17.56-3.94-15.1-5.65-22.7-18.69-4.9-8.24-14.73-10.5-7.62-17.14,16.2,3.87,20.2,22,30,35.54ZM338.12,1936.71c.45-4.65,2.29-18.1,11.18-7-3.94,3.08-7.36,9.37-11.53,6.76Zm658.72,575.2c-6.65,13.33-15.09,10.94-22.53,14.16a36.7,36.7,0,0,1-4.58-47.36c18.22,8.81,15.25,17.24,26.76,32.91Zm77.16,90.77c-8.13-1.91-15.74,2.22-24.83-9.59C1052.81,2556.6,1102.89,2574.12,1074,2602.68ZM374.8,2010.51l-6.54-5.39c3.38-4.11-.44-7.84,4.77-12.32l9.75,8Zm-2.33,36.17c2.57-5.24.39-10,7.4-15.64l12.95,10.66C386.66,2050.89,380,2054.61,372.47,2046.68Zm725.15,580.94a35.36,35.36,0,0,1-20.75,31.87c-36.67-14.07-1.94-61.77,20.34-32.21Zm-673-538-6.48-5.33c.16-7.58,3-10.74,11.24-7-3.59,3.93,0,7.49-5.18,12ZM288,1971.75l-6.48-5.34,5.33-6.47,6.48,5.33Zm837.62,733.39c.57-4.67,2.34-18.17,11.3-7C1133.17,2701.65,1129.92,2707.74,1125.63,2705.14ZM256.47,2022l-6.48-5.33,5.34-6.48,6.47,5.33Zm405.91,399.6,8-9.68,9.68,8C674.86,2427.4,668.9,2428,662.38,2421.56Zm-20.47,5c6.08-9.36,13.23-7,21,.92C656,2441.28,642.69,2438,641.91,2426.55Zm-151.29-21.18c5-19.25-4.51-37.94,3.95-51.19a50.81,50.81,0,0,1,39.74-21.73c-1.08,0,11.24-2.43,8.54-3.84,23.21,11.41,15.9,31.92-8.78,63.59-11.4,5.33-24.11-2.79-35.42,3.43,2.38,16.68,18.73,32,13.75,49.42-13.69,13.5-29.27,6.16-45.81-10.5C483.76,2423.92,488,2415.69,490.62,2405.37ZM185.08,2055.72l-6.47-5.33,5.33-6.48,6.47,5.33Zm396.86,337.81-9.54-7.86,8-9.75,9.68,8Zm-123.43-41.82c-5.19-2.64-10-.51-15.65-7.4a15.28,15.28,0,0,1,9.47-10.08,15,15,0,0,1,13.64,1.89C460.16,2341.62,463.75,2346.2,458.51,2351.71ZM935.4,2744.44c-3.27-2.7-6-.51-9.17-2.06,2.69-3.27.56-6.08,2.13-9.11,3.2,2.63,6,.5,9.17,2.06C934.76,2738.54,937,2741.28,935.4,2744.44ZM412.13,2580.28c-12.05-1.39-23.9.65-37.27-14.33C374.28,2509,471.12,2530.36,412.13,2580.28ZM331,2606c9.92-9.35,11.19-20.11,21.38-26-1.39.84,6.48-.63,5.91-.51,4.31-.54,3.85-2.68,8.54-3.83,21.36-5.79,38.4,29.28,31.53,47.7-2,5.25-14.48,13.89-24.6,23.2-23.47,21.69-45.17,31.86-60.66,20.87-8.25-5.87-9.39-17-15.3-34.34,5.2-15.12,22.9-17.6,33.06-27.23Zm13.33,168.27Q327.18,2764,342,2750.6a12.15,12.15,0,1,1,2.27,24.2Zm-28.85,41.56c-6.08,9.36-13.23,7-21-.92l10.32-12.53a23.44,23.44,0,0,1,10.58,14ZM200.3,2889.72c-12.5,15.18-28.65,1.87-16.29-13.42a16,16,0,0,1,16.21,13.94ZM1474.78,449.64c-2.83,1.88-5.21,6.34-8.6,3.78-1.49,1.81-5.69,1.51-3.27-2.69,14.4-4.15,10.49-6.79,23.11-8.2-6.21.73,11.93,10.76,11.86-1.21,10.72,8.83,4.84,19.52-3,30.22-12.84,1.81-19.85-12.37-20.14-21.38Zm-88,47.29c-14,21-29.4,23.35-32.57,33-1.44,4.3-7.9,3.07-8.6,3.78-21.69,22.92-39.76,31.53-55.16,47.12-7,7-9.46,18.15-15.48,25.46-16.29,19.78-41,31.08-54.53,53-5.35,4.36-4.67-3.84,2.06-9.17,5.73-7,11.3-13,16.06-19.5,8.38-11.32,12.52-28.13,20.18-37.71a61.5,61.5,0,0,0,9.17,2.06c3.43-2.32,0-6.79,2.13-9.11a54.9,54.9,0,0,1,25.17-17.37,116.13,116.13,0,0,0,47.2-37.44c8-11.16,6.62-32.87,16.33-46.37s19.89-27.56,42.44-25a191.48,191.48,0,0,1-14.48,37.74Zm-145.66-86.77c5-7.54,12-30.7,18.12-28.67C1255.27,389,1254.56,411.42,1241.11,410.16ZM1134.79,1966.82c2.32-1.25,8.16.88,11.94-1.15,10.52-5.83,20.29-22.09,32.56-33,28.09-24.89,63.69-50.38,82.39-73.66-4.17-2.74-12.07-.24-9.68-8,9.58-7.66,21.26-10.77,31.07-18a128.93,128.93,0,0,1,11.3-7c3.15-3.83-.86-8.89,4.76-12.45,4-2.43,8,1.72,14.51-4.29,8-7.56,12.91-18.93,21.39-26s19.92-10,31.07-18c24.58-18.78,50.58-48.79,71.16-66.54,9.64-8.31,22.44-13.07,27.86-20.64,14.62-17.76,12.84-36.17,16.47-46.39,9-25.09,45.3-55,56.08-68.09,5.39-6.55,4.87-14.57,10.08-18.92a95.57,95.57,0,0,1,22.55-14c38.78-4.52,57.7-48.65,79.17-76.42,7.12-8.63,17.69-14.53,24.67-23.28,9.11-11.07,10.79-26.16,20.24-37.78s27.62-21.89,38.53-33.59c3.27-4,.51-7.29,4.76-12.44s9-2.28,13.93-10.25,4.5-17.8,9.53-24.76c3.55-4.32,8.8-3,13.92-10.39,32-45.39,83-88.2,114.69-139.25,6.66-10.65,7.86-22,14.91-31.31a182.64,182.64,0,0,1,19.27-16.73c17.09-16.78,27.61-39.2,42.14-57.84,10.21-12.4,26.8-21,29.42-35.72,9.18,6.16-.09,16.28-3.61,24.25-4.31,9.77-16.73,19.18-12.22,28a156,156,0,0,0-25,17.16c-14,14.3-11.86,27-17.61,34.58-4.64,5.64-14.25,11.63-19.2,16.79-17.7,18.37-34.49,36.91-43.41,46-36.59,37.06-55.42,78.22-73.8,102.81-25.35,34-55.92,63.21-77.47,94.07-3.44,4.18-.68,6.92-4.7,12.38-29.12,38.76-65.71,79.79-81.72,112.42-.8,1,1.86,9.94,1.15,11.81-3.37,8.91-15.48,18.8-18.12,28.66-1.18,3.71,3.4,12.62,1.72,17.78-1.3,3.71-14.42,13.25-16,19.43-.39,1.19,6.29,4,6.48,5.33.57,6.54-19,17-22,20-15.85,16.27-29,39.78-42.77,52a106,106,0,0,1-45.64,22.35c-3.06.88-6.3,3.11-8.61,3.78a226.09,226.09,0,0,0-67.94,36.25,423.92,423.92,0,0,0-57.22,56.29c3.56-.22,21.64,5.08,16.22,13.36-18.17-13-34.58-5.11-49.42,13.75a31.71,31.71,0,0,1,17.37,25.17c-11.14,18.64-26.67-8.06-38.7.73-29.19,8.92-62.09,47-88.42,74.31-14.74,15.2-34.07,26-55.1,47-10.39,10.49-31.08,29.8-32.62,33.09-7.26,15,4.7,30.75,4,41.39-.41,5.61-12.35,10.74-1.55,15.08,32.06-19.06,60.44-74.67,96.56-51.12,12.3,23.8-16.37,38.75-21.17,58.75-2.25,9.13,1.48,16,2.29,23.62,1.23,12.7.38,11.18,5,20.47,3.44,7-2,21.73-.41,26.89-21.56-23.48-3.2-75.43-45.56-70.24-3.46-8.57,7.74-18.63,6.25-27.46-7.94-4.55-17.48,4.19-23.11,8.2a108.16,108.16,0,0,0-21.9,20.06c-6.68,13.08,5.71,78.2,11.35,85.54,10.34,14.12,32.19,16.68,41.5,28.79,8,10.37,6.29,24.7,6.13,32.28-.51,30.42-3.42,62.62-30.74,83.59-24.22-28.48-24.83-59.24-17.7-90.88-13.83-8.47-7.38-14.61-8.26-23-1.08-11.88-1.7-20.92-2.8-29.66-.8-6.26-7.18-12.57-7.62-17.14-1-9.25,3.8-19.65,3-30.09a51.51,51.51,0,0,0-8.78-29.08c-26.94,20.23-49,48.38-73.91,69.89a426.38,426.38,0,0,1-98.62,60.3c-12.27,18.87,2.13,48.49-27.18,59.4-21.11-23.46,25.37-35.07,21.16-58.76-33.61,2.36-66.09,15.69-101.07,3.82-16.92,11.19-27.46,5-44.66,1.31-7.84-1.54-14.87,5.29-21.62-6.81,5.11-37.28,21.3-7.7,32.28-6.14-1.17-.14,9.43-3.92,8.61-3.78,3.35-1.09,5.23-3.52,8.53-3.83,20.63,19.79,27.24,15.88,46.38,16.33,4.63.2,10.4,1.56,15.08,1.56,13.09.84,20.48-4.17,32.28-6.14,18.48-3,42.8-5.3,54.82-20.17-20.32-27.83-36.71-56.17-67.76-83-28.89,10.68-60.08,22.16-92.36,32.84-49.19,16.17-100.3,39.63-147.92,14.32-32.64,24.3-1.14,47.21-14.17,70.13-20.11,35.2-59,14.94-91.22,44.64,9.67-5.93,1.9-10.11,1.55-15.08-.27-2.09,5.15-4.4,5.33-6.47A56.87,56.87,0,0,0,556,2187.2c-23.27,31-23.86,57.35-39.91,81.53a15.7,15.7,0,0,1,2.35,23.67c-8,.45-14.63,13.66-22.6,14.11,17.65-2.42,13.32,26.39-.34,26.94-11-5.79-.08-17.36,1-21,.31-1.37-4-6.79-3.84-8.53s4.77-4.37,5.39-6.55-3.93-6.86-3.91-8.59c.63-17.36,6.67-17.88,15.49-25.34,18.71-15.91,14.09-25.9,17-40.47,1.9-10.12,5.3-18.07,6.3-27.53,2.61-24-5.26-51.78,2.25-68.84,13.39-30.45,48.14-55.48,66.29-87,2.85-5-.1-11,1.56-15.08,5-13.3,20.76-26.49,26.08-38.35,2.85-6.3-.89-15.8.92-21A126.21,126.21,0,0,1,642.85,1943c18-27.24,25.6-38.75,29.77-62.54-24.42,19.15-51.36,21.5-70.24,45.57-7.4,9-11.66,27.21-17,40.47s-10.58,21.08-14.85,31.24c-1,1.25,2,9.73,1.08,11.88-7.5,17.19-20.5,29.15-25.57,44.25-2,6,3.14,12.64-4.19,18.28,11.87,8.85,1.65,19.71,8.83,29L524,2133.59c-7.84,1.72-16.44-5-24.25-3.61-9.82,27-24.24,50.14-31.88,71.77a68.26,68.26,0,0,0-4.77,12.32c-.52,3.9,2.52,8.86,1.08,11.88.64-.77-6.52.82-8.53,3.84-6.61,9.86-9.47,26.67-14.28,37.2-7.78,17-19.2,32.68-25,50.22-2.49,7.42.89,13.12-1,20.92a103.25,103.25,0,0,1-6.81,21.62s-4.29-2.6-6,.57c-6.79,12.64-13.35,32.25-17,40.48,25.06,33.84-11.66,78.15-38.94,60.48-17.24-11.28-16.25-38.74-2.46-56.47,10-12.95,34.41-6.73,39.1-27.75-52.25-31.35-4.22-54.19,12.91-81.8,5.33-8.46,2.67-17.43,6.38-27.47,4.71-11.54,15.74-20.1,20.81-31.94,4.28-10,1.71-22.66,5.74-33.36,2.84-7.71,9.24-14.48,12.73-22.12,19.41-42.44,32.93-78.87,48.35-118.17,9.84-26.13,17.21-48.57,25.86-71.13,2.35-6.12,2.39-12.41,4.25-18.35s17.58-13,4.19-18.29c-22,16.93-54.71,46.56-75,58-7.23,4.1-15,16.39-23.11,8.2,4-10.71,17.61-11.32,25.17-17.37s10.95-16.57,18.69-22.7c14.46-11.46,36.3-14.28,51-28.83a59.33,59.33,0,0,0,20.83-31.81c-5.16-4.25-9.35,6.09-15.08-1.56-2.77-12.67,12.5-27.09,5.16-39.33-35.36-13.81-28.78-39.12-14.33-55.39,8.22-9.12,29.86-4.62,46.22-16.39,20.55-14.74,24-27,31.42-44.82-34.69,13.74-72.31,19-103.2,40.17-7.89,5.18-15.42,18.73-24.66,23.28-1.27.7-9.13.3-11.8,1.14-23.88,7.56-36.64,13.41-55.9,8.42-4.8-1.27-11.49-.23-15.08-1.55-40.12-14.58-40.09-58-20.46-87.54a108.76,108.76,0,0,1,55.73-41.28,30.06,30.06,0,0,1,21.05,1c1.32.39,6.66-4,8.54-3.83,16.8,1.45,32.09,23,47.52,28.27,21.26,7.11,103.57-5.15,109.1-13.57a62.22,62.22,0,0,1-1.08-11.88c1.69-10.29,6.17-18.28-5.56-26.31-10.15,9.06-26.73,7.2-43.51,13.25-12.39,4.4-17,9.39-25.75,11.4-14.3,3.17-53.63,5.38-65.64.39-9.55-4-30.49-11.09-26.48-27.3,5.84,15.33,16,12,25.33,15.49,22.4,8.28,22.92,11.62,39.34,5.16A506,506,0,0,0,577,1660c10.89,0,22.28,3.74,32.22-6.07.28-13,19.48-27.77,28.91-41.63,7.74-1.45,16.5,6.35,23.62-2.28-4.09-15,9.38-24.17,14.27-37.21,7.47-19.56,12.64-38.9,21.22-58.82,6-14.11,14.55-29.16,19.61-43.68a108.45,108.45,0,0,0,1-20.92c6.39-15.42,19.91-28,25.58-44.26-8.77-10.49-15-2.2-16.22-13.36,10.29-15.48,17.8-8.71,23-8.25,2-17.75,13.62-30.73,22.43-47,2.64-5.19,1.4-12,4.12-18.34,7.38-16.47,19.83-37.42,22.37-46.89a260,260,0,0,1,23.92-62.1c14.89-28.87,24.65-57.17,36.58-84.15,10.53-23.71,25.16-46.59,35.16-69.09,4.27-9.57,2.68-35.89,20.25-37.78-32.64,68-59.91,135.18-90.9,202.9,13.79,3.53,15.75,10.52,20.06,21.89-2.28,14.83-16.65,14.69-19.33,16.8-5.52,4.58,6.16,18.63-4.7,12.38,6.6-3.33-11-17.84-12.95-10.67a27.07,27.07,0,0,1-10.16,18.86c10.58,6,18.6-13.07,30.16,3.11-1.19,12.8-15.32,8.53-4.19,18.28,7.71,4.83,2.42-12.73,14.51-4.41-8.64,14-19.3,6.54-28.5,14.74-16.07-3.77-7.71-24.7-16.73-19.27a370.56,370.56,0,0,1-36.66,84.09c19.19,22.11-.93,48,12.78,70.47,6.66-13.33,15.07-8.51,22-20,9.89,8.14,19,10.59,27.45,6.25a112.87,112.87,0,0,1,25-50.23l-9.68-8c4.08-4.94,12.37-3.37,17.15-7.61,16.7-14.76,15.45-27,22.94-41.06,18.73-35.52,45.29-76.28,49.31-106.27l-12.95-10.67c-9.9-.32-17.63,20.55-27.81,20.57-14.19-10.16-9.18-14.68-22.7-18.69,5.6-15.6,13.71-7.29,17.14-7.62,1.4-.13,9.06-19.65,22.47-14.09s5,13.42,16.86,19.26c41-17.81,38.54-69.93,64.45-104.8L996.08,1085c7.36,5.24-8,12.82-10.09,18.92-10.15,24.94-21,51-29.19,68.5-4.25,9.13-12.79,17.52-15.55,25.41s-.29,16.24-3.61,24.25c-2.75,6.74-7.52,12.39-10,18.85-6,14.93-21.25,44-24.5,56.13A460.23,460.23,0,0,1,879.89,1365c-4.24,9.83-14.62,18.46-15.49,25.34-.44,4.08,6.68,3.52,3.78,8.6-2,3.72-13.5,9.45-16.56,13.59a236.58,236.58,0,0,0-22.89,41c12.23,15.8,32.73,17,35.72,29.42a22.8,22.8,0,0,1,15.42-25.39c-1.42-10.76,1.38-22.24-.16-32.86,14.3-10.42,30.71-9.77,41.8-30.9,6.43-12.35-6.86-41.75.11-59.73,5.82-14.72,23.54-24.32,29.36-35.65,10.11-19.37,2.32-28.35,4.66-45.24,15-14,14.55-26.47,26.72-32.45-13.59-18.55,10.93-24.77,20.25-37.78,7.33-10.32,1.68-25.6,14.85-31.23,2.32-11.76-18-32-3.44-35.56a63.3,63.3,0,0,1,4.58,47.36c-5.73,12.93-19.61,23.82-26.15,38.29-2.94,6.12-.74,17.5-3.62,24.25s-11.46,10.66-16.05,19.5c-8,15.51-11.81,44.14-21.16,58.76-7.12,11.2-20.64,20.51-24,29.17-9.75,25,5.8,57.24-7.69,75.46-7,9.53-22.28,11.45-27.87,20.64,4.51,12.83-5,24.77,3.37,35.5,2.7,3.39,21.48,6,28.67,18.11-.76-8.57,6-12.37,14.5-4.41-6.55,17,3.88,12.89,11.47,25.8,4,6.92-1,12.85,7.62,17.14,20.83-.6,42.74,9.26,63.58,8.78,11-19.2,25.34-5.08,37.56-12.54.08,14.09-3.77,22.6,3.43,35.42,12.44,21.93,46.33,31.15,58.42,48.11,24.59-1.48,50.64,9.46,77.62,31.32,13.15,2.19,25.8-.83,39.33,5.17-3,8.24,18.79,14.07,14.16,22.53-3.89-12.44-14.59-4.42-21.55-6.89-5-1.76-8-9-13-10.72s-8.21,3.17-11.8,1.14c0,0-1-8.74-7.11-11.23s-16.28-.66-24.2-3.68c-5-1.82-8.07-8.64-13-10.66-1.6-.62-9.73,2-11.86,1.21-13.06-5.15-25.32-14-37.78-20.25-1.12-.91-13.31-.44-15.09-1.55-5.11-3.16-8.18-15.74-16.22-13.36,2.78,10.82-9.2,22.81-5.67,33.42l13,10.67c-4.06,18.27-.82,35.9,22.87,51.55.53,12.12-15.7,4-19.84,10.89-1,1.18,4.39,12.26,4.42,14.5-.21,8.48-5.19,13.26-4.19,18.29a53.75,53.75,0,0,0,17.87,31.07,23.64,23.64,0,0,1,13.94-10.25c-.39-15.28-26-10.94-26.48-27.3,15-29.46,35.8-.9,52.62-11.12,11.12-5,15-4,19.27-16.73,18,10.82,32-19.44,51.78,9.92a64.41,64.41,0,0,1-37.39,45.4c-18.37,6.14-32.63-10-48.5-7.22a175.32,175.32,0,0,1-35.33,36.22A112.57,112.57,0,0,1,1094,1819c-3.87,14.92,1.44,33.44-10.5,45.81,2.49,11.17.86,15.43,4.93,20.41-15.2-2.11-6.39,18.12-15.49,25.34,4.25,2.92-1.88,6.4,0,0a30.31,30.31,0,0,0-9.85-35.57c14.69,12.1,6.69-11,19.27-16.73-4.18-3.44-7.84.44-12.39-4.83,14.67-7.31,14-34,13.77-43.11s9.34-27.37-.22-32.79c-10.29,16.89-22.36,16.65-33.14,27,3.17,5.65,19.87,10.06,13.53,16.63a20.67,20.67,0,0,0-19.91,10.83c.73,10.19,13.21,6.1,22.77,18.76-15.87,9.48-24.09,32.51-38,39.5-1.22.63-7.49-2.55-9.12-2.13-5,1.25-6.22,6.56-11.3,7-2,.13-4.56-4.81-6.47-5.33-10.57-2.63-8.57,5.44-15.65-7.4-6-10.89-7-5.73-13-10.72a68.21,68.21,0,0,0-7-11.24c-10.47-13.54-5.44-40.94-25.63-48.34-20.82,15.34-9.74,1.33-16.06,19.5a156.51,156.51,0,0,0-26.31,5.56c-10.66,4.42-18.69,6.8-21.9,20.06a91.74,91.74,0,0,1,24.76,9.52c-10.79,34.81,28.44,64.79,45.29,97.12a121.18,121.18,0,0,1,59.9,33c-.44,14.72-18.62,31.41-4.66,45.24a59.66,59.66,0,0,1,44.66-1.31,255.12,255.12,0,0,0,53.16-38c1.64-16.18-5.09-31.42-22.35-45.64-8.13,8.73-15.51,24.5-25.17,17.36.58-11.2,5.89-22.48-6.14-32.28-17.45-6.19-32.57,13-48.78,19.66-8.47-8-43-15.9-33.09-32.62,13.63-12.15,17,2.32,30.22,3,23.91,1.34,54-13.11,74.25-4.17,14.07,6.33,18.1,23.43,38.29,26.15,9.75-11.83-5.23-30.83,11.64-34,14.93,8.56,16,18.45,26.55,27.36a27.09,27.09,0,0,0-10.16,18.86c-7.32,6.48-16.5-6.35-24.19-3.68C1119.75,1982.25,1123.23,1973.2,1134.79,1966.82Zm-6.49,87.2c-9.52-11-6.09-23.24-21.15-33.77-22.77,11.62-43.88,40.51-66.39,54.23,9.4,15,2.29,31.56,16.45,46.15C1080.37,2093.07,1105.06,2080.69,1128.3,2054ZM962.35,1541.68c15.25-.64,11,18.8,20.57,27.81-15.41-8.25-25.81-39.61-46-43.41-7.64,3.87-15.09,9.66-23.17,8.26-7.84-12.18,2.21-26.1,5.16-39.33-16-17.36-21.28-29.21-40.41-17l22.83,18.8a42.35,42.35,0,0,1-6.3,27.53c14,13.13,8.72,44.46,3.59,68.28,20.37,8.47,44.14-4.78,64.5-12.2,5.33-1.93,12.49.58,17.78-1.72,11.44-5,32.65-17.52,38.53-33.59A51.29,51.29,0,0,0,962.35,1541.68Zm96.52,133.94c-9.39,6.87,1.81,12,1.72,17.78-9.49,13.8-10.24,26.62-17,40.47,14.89,2.21,12.2,14.84,25.39,15.42-1.16,5.82-22,26.67-11.07,39.84a38.09,38.09,0,0,1,25.17-17.36c.75-21.35,7.07-26.9-1.88-50.51-2.85-5.62-5.39-11.33-7.69-17.2C1071.71,1695.65,1078.65,1684.67,1058.87,1675.62ZM738.89,1423c-21.07,57.79-43.09,115.61-66.82,173.65,20.81-2.14,22.61-17.25,29.41-35.72s15.33-36.92,19.11-49.59A11.31,11.31,0,0,1,735,1507c2.43-7.35-5.73-8.23-9.11-2.13-4.92-15.74,2.15-32.12,19-49.65-2.09,11.48,4.82,7.35,4.42,14.51,15.39,6.71-1.58-22.92-4.42-14.51C743.08,1444.42,747.11,1433.13,738.89,1423Zm14.26,55.33a19.89,19.89,0,0,1-12.39-4.82c-3.71,7.34,4.46,13.6-6.81,21.61C747.14,1495.67,740.3,1481.28,753.15,1478.3Zm123.49,411.94c-14.46-1.74-6.41,14.59-7.45,15.71-5.82,6.08-10.92-2.91-17.14,7.62-8.9.74-20.89-17.2-28.67-18.11-9.07,2.93,1.88,10.2,1.14,11.81L805.83,1930a28.25,28.25,0,0,1-19.84,10.9,110.21,110.21,0,0,1-25.35,77c16.6,11.33,27.85,22.93,44.25,25.58,10.41,1.55,33.31-12.07,46.8-10.43,7.06.79,16.31,12.27,22.06,12.8,1.23.07,4.27-6.89,5.39-6.55,8.92,3.37,5.52,11.32,10.33,14,3.38,1.85,8.31-4.14,15,1.49,9,7.4,16.44,26.16,27.69,39.17a195.85,195.85,0,0,0,19.43,16c12.6,17.62,10.39,37.89,41.28,55.72,15.71-10.42,32-18.86,47.06-37.42-17.91,6.28-17.76-16-25.9-21.34-9.51-6.19-24.48,1.35-28-12.21-11.5-6.9-1.41-15.89-8.27-23.17l18.7-22.7c-13-19.37-33.06-29.67-46.54-49.19-6-8.71-4.91-17.6-11.4-25.75-12.89-16-25.35-21.58-33.59-38.53-1-2-.26-10.61-1.22-11.86-6-9.16-17.81-15.26-14.67-28.45A19.84,19.84,0,0,1,876.64,1890.24ZM692,1830.7c-11.15-12-20.62-7.17-31.86-20.75-18,10.77-16.76,24.18-28.86,41.56,21.39,7.09,40.37-12,60.52-21Zm46,43.41c-25.84-18-46.53-2.09-42.37,25.06-10,16.16-26.72,27.77-34.18,48-2.38,6.58,2.43,14.51-.92,21-12.39,23.57-29.68,39.59-41.63,63.75a202.39,202.39,0,0,0-18.53,55.56,209.74,209.74,0,0,0-7.8,42.53c-.21,3.81-6.77,15.46,1.78,17.71A352.14,352.14,0,0,1,645,2119.31c-6.45-16.29-10.32-21.81-7.28-44.08A73.38,73.38,0,0,1,663.29,2031c8-7.56,18.64-18,28.44-14.67-8.15-36.51,12.66-76.39,46.22-109,8.94-10.29-21.15-15.9-.05-33.57Zm-50.22-25c-25,9.34-50.43,13.28-73.45,42.93,10.11,11.13,21.17-3.71,34.92-9.34,12-4.87,28.43-6.15,34.41-15.25-2,2.44-9.25-14.74,3.7-18.68ZM629,1828c-25-8.29-24.4,26.65-34.69,42.13,17.73,5.14,19.47-29.19,34.41-42.36ZM598,1845.82c-19.21-6.47-16.44,21.52-20.81,31.94,14.94,6.7,12.09-21.35,20.53-32.17Zm4,41.4a18.74,18.74,0,0,0-17.2,7.68l9.74,8c-.61-11.6,7.38-4.56,7.18-15.94Zm-33.77,21.27c5.36-10.9-10,4.3-11.3,7-4.13,7.58,3.66,7.34,11.23-7.11Zm17.37,25.17c-15.37-5.18-16.83,9.51-22,20-3.2,6.59-3.8,21.65-6.3,27.53-4.19,9.76-14.27,18.74-18.12,28.66-.89,2.08,1.76,10.21,1.14,11.81-3.64,8.68-11.87,17.68-12.21,28-11,10.61,2.24,9.33,6-.57,17.85-45.37,25.16-73.12,51.22-115.69Zm-23.11,8.19c-24.26,6.2-30.84,42.85-41,69.65s-17.94,54.29-28.1,80.39-24.23,53-34,80.82c-4.66,13.46-5.84,27.1-11.07,40s-15.15,24.79-20.24,37.78c-3.1,7.73-3,18.68-6.32,27.4-3.79,10.55-7.77,18.37-12.21,28.15,16.08-8,14.78-30.71,22.37-47,8.32-17.91,22.7-32.95,30.91-50.73.94-2.14-1.77-10.33-1.14-11.81,3.28-7.81,8.5-19.4,12.21-28,13.11-30.81,26.8-48.86,19.45-76.53a151,151,0,0,0,26.14-38.42c-.86,2.33,4.28-14,4.82-12.38,0,0-9.69-.86-9.17-2.06s10.53-5.12,13.87-10.32c0,0,3.16-9.08,4.83-12.38,3.92-8.45,2.61-17.36,6.31-27.53a375.29,375.29,0,0,1,22-47.17ZM1215.9,460.21c9.72-8.12,9.67-30.48,18.19-28.61C1230.27,439.21,1229.62,461.58,1215.9,460.21ZM1182,448.63c-5.66-5.48,7-12.67,4.25-18.36C1199.72,434,1174.43,462.75,1182,448.63ZM1147.09,583.5c-6.66,2.69-1.61,0-.64-5.9,1.46-8.15,4.57-29.66,15.5-25.34-10.31,10.67-6.69,20.32-14.69,31ZM1105.73,713c-30-34.45,28-71.85,40.84-102.51-10-3.32,16.29-23.62,8-9.67-29.87,38.39-5.67,71.86-48.52,111.83Zm-32-53.61c5.42-5.59,14.24-32.91,16-19.43-10.08,5-2.55,23.26-15.71,19.08ZM1030,758.74c3.65-8.68,6.18-32.19,20.76-31.87C1038.27,736.35,1039.18,759.65,1030,758.74Zm25.4,15.42c6.1-5.14,11.92-29.79,13.3-16.15-6.76,4.24-1.64,21.43-13.42,16.29ZM1081,887.8c-3.4,0-.12,6.8.57,6a117.32,117.32,0,0,0-16,19.42c-2.64,5.77,2.9,12.09,1.66,17.72-2.77,13.15-14.42,21.9-11.65,34,5.16,4.24,9.4-6.16,15.09,1.55-1.75,11.07,4.19,21.45-11.59,33.93-12.87-1.25-8.31-13-18.92-10.09-6.52,10.76-9.28,36.53-20.24,37.78,2.47-16.19,14.1-29,19.67-43.74.63-.77-4.07-7-3.84-8.54,2-13.27,14.22-17.27,18.11-28.67,2.62-6.72-1.22-14,1-20.92,4.71-14.93,17.31-27.11,22.87-41.11,3.21-7.87-.39-11.3,4.19-18.28a75.26,75.26,0,0,1,30-29.75c-13.36,7-13.74,51.44-30.75,51.1Zm-76.54-19.44c5.15,25.39-10.91,52.83-28.1,80.38,9.24,23.39-3.61,63.4-33.89,80.88-24.2-15.6,4.5-36.26-11.06-52.69-4.68,8.65-7.45,32.31-20.83,31.81C932.49,963,960.22,916.4,968.91,871.8c1.66-2,2.72-4.3-.51-5.91,25.22-20.13,34.84-57.2,48.45-85.37,12.87,4.52-2.35,14.07-4.18,18.41-2.78,6.36-3.92,15.12-6.88,21.56-13,28.55-30,47.82-23.3,67.87a18.72,18.72,0,0,0-17.19,7.69c13.21,4.81,9.82,5.52,13.58,16.56-2.59,4.29-8.12,8.73-4.75,12.44-6.57,14.93-16.43-4.88-23.11,8.2,2.34,13.61-27,30.43-7.8,42.54,16.49-28.26,48.76-45,54.93-79.91a27.13,27.13,0,0,1-13.53-16.63c6.34-8,12.57-15.83,20.07-10.47Zm16-19.43c5.23-8.2,16.4-43,20.81-31.94-8.55,9-15.81,43.18-20.58,32.37ZM576.24,515.7c-1.25,12.17-1.46,39.81-13.77,43.12-5-9.84,6-20.51,6.32-27.4.58-16.59-11.72-33-7.85-50a40.58,40.58,0,0,1,34.34-15.31c-3.5,18.86,3.91,37.81-18.8,50.07Zm-29,101.37c-6.22,14.51-16.91,27.2-19.61,43.68-2.05,12.56,6.56,28.77,4,41.39-2.75,14.56-13.86,23.64-20.24,37.78-1,2.21-.23,11.49-1.55,15.08-2.24,6-5.77,12-7.4,15.65-13.1,30.1-34.65,64.35-45.24,88-17.14,38.12-56.11,89-62.8,122.51-5.82,12-14.48-5.26-19.84,10.89-12.3,30.41,11.13,80.56-39.35,87.37-56.86-48.58,44.19-88.42,40.67-135.37,8.08-13.21,26.26-2.79,25.24-17.3,53.18-66.28,46.46-137,76.27-198.47,5.14-10.5,12-25.9,17.55-34.51,8.81-13.54,23.67-24.21,32.05-38.92,2.26-3.87,2-12.17,4.25-18.36,8.35-24.32,18.17-44.62,30.39-56.76-4.59,12.1-9.1,25.8-14.16,37.76Zm225,196.16c-7.21-4.3-2.86-9.72-4.42-14.5-1.6,1.95-3.64,3.42-5.91.5l5.34-6.47c1.6-2,3.71-3.37,5.91-.51-7.74,8.12,10.77,13.31-.69,21.41Zm83.93,374c-5.18,12,.16,29.46-14.84,31.36,13.57-29.26,26-74.09,44.61-93.9-2.65,21-20.55,42.55-29.54,63Zm-285.46,69.66c5.15,4.24,11.62,8.87,4.41,14.5-4.3,7.21-9.65,2.92-14.5,4.42,3.27,12.62-25.83,28.38-11,39.89-20.66,13.6-21.13,47.8-53.44,64.9,7.52-19.63,29.77-40.69,21.1-58.82,6.89-11.5,16.1.88,22.6-14.1,6.95-9.58-12.19-16.7.28-26.88,4.29,2.6,8.8,8.18,12.44,4.75,35.86-56.59,56.7-128.58,100.19-167.9C619.93,1164.45,601.12,1210.42,570.69,1256.88ZM1662.22,2074c7.79-11.58-20.46,4.42-13-10.66,9.9,3.59-2.44-15.34,12.73-22.12,6.41,5.27,11.39-5.46,18.34,4.12-2.34,4.26-.56,8.06,1.09,11.88-5,8.94-11.59,2.14-16.51,13.51,1.3,1.54.72,6.08-3,3.05ZM695.89,1343.51c-1.66-2.53,6.92-6,2.06-9.17-18.42-13.54-31.8-13.46-56.12-24.37-7,16.44-11.24,2.43-17.72,1.65-2.66-.32-7.8,7.48-11.23,7.11s-6.16-6.71-9.75-8-11.21,5.38-14.5,4.42c-5.68-1.76-4.52-9.56-7.06-11.3-7.47-5.11-20.67,4.24-21.61-6.82,4.37-11.12,9.57,1.58,15.14,1.49,8.71-.08,15.31-9.37,23-8.26,5.66.93,10.75,13.06,15.66,7.52-10.54-4.94-.54-12.12-1.72-17.77,14.91-1.51,5.2,14.68,8.19,23.11,16.22-7.21,35.81,20.37,51.78,9.92,11.43,5.55,23.58,17.9,33.93,11.58-3.18-7.64,1.35-15.83,9.52-24.76,19.44-1.75,34.89,10.27,29.81,29.92-4.64,17-26.3,12.35-22,20,11.78-.12,19,.34,4.36,14.57-7.78-12.25-30.59-18.18-32.32-20.77ZM412.74,1290c-1.81-18.66,6.15-38.4,9.35-57.62-6.23-2.79-11.09,7.93-18.28-4.19a27.08,27.08,0,0,1,10.09-18.91c5.33,3.45,11,11,15.71,7.45,6-19,21.93-48.2,43.34-46.11-2.95,15.22,2.92,29.52,7.28,44.09a83.53,83.53,0,0,0,32.69-33,28.38,28.38,0,0,0,15,1.49c9.72,11,8.71,23.06,9.41,35,9.56-3.81,18.64,17.8,5.56,26.31-17-6.68-11.15-17.83-14.17-22.53-6.24-9.59-19.09-12.57-17.36-25.17-40.75,21.24-56.61,98.39-98.81,93.44Zm688.3,605.4c-9.82-3.41,6.14-22.64,2.13-9.12C1102.62,1890.67,1101.27,1908.49,1101,1895.44Zm178.83,305.14c-31.81-22.11-43-47.1-71.95-64.74,4.32-6.38,9.64-3.75,14.45-4.35,8.68-1,7.45,14.08,22.19,12.78-12.6,12.18,8.07,21.14,12,31.65a19.66,19.66,0,0,1,11.25-7c31.84,20.5,62.31,26.77,94.48,50.58-3.71,7.34,4.44,13.47-6.89,21.55-18.92-16.75-39.76-14.86-66.39-38.43-6.88,1.69-13,9.59-20.47,5A20,20,0,0,1,1279.87,2200.58Zm-109.21-51.85c-.08-3.45-5.13-20.58,7.46-15.58-4.39,3.63.6,20.7-7.58,15Zm16.66,144.37c11.12-9-2.66-11-7.11-11.23,9.47-8.8,5.1-23.5,19.27-16.74C1198.07,2272.38,1198.63,2294.69,1187.32,2293.1Zm-96.35,144c3.88.4,6,1.92,9.17,2.06s3.75-2.28,9.17,2.06c-3.2-2.64,10.67,19.54,10.84,19.91,2.3,7.27-1.1,54.25-.75,53.83-15.18,20-37.44,14.39-66.22-5.57-8.38-15.08,5.64-32.39-4.59-47.36,7.77-16.39,25.08-16.27,24-29.18C1079.37,2443.62,1082.07,2435.8,1091,2437.05Zm-37.62,12.49c-4.41-4.45-12.88-8.63-10.32-13.87,3.14,1.3,6.41,5.27,9.17,2.06-1.81-1.49-1.49-5.56,2.64-3.2-4,5.19,6.13,9-1.7,14.83Zm-104-25.7s-2.91,4.39.63,5.9c2.08.89,17.61-2.79,12.32,4.77-13.2-1.29-6.8,17.19,3.84,8.53a20.59,20.59,0,0,1-16.06,19.5c-15.13-10-8.65-17.87-8.12-23.05-12.7,1.23-18-23.95-33-32.69,8.13-8,18.1,2.29,26.32-5.43-11.93,12.37,4.92,3.11,10.32,13.87-15.34,22.31,2.63,8,3.57,8.43Zm-82-46.27c-8.52-8-15.27-4.16-14.5,4.41-12-28-50.28-15-60-33,20.61,2.37,38.76,15.8,58.25,15.26,0,0-3.22-4.75,2.7-3.27-1.7-.35,1.85,11.93,6.47,5.33-1.81-1.49-1.57-5.62,2.64-3.2C858.35,2368.76,870.19,2372.55,867.34,2377.57ZM732.05,2337c11.88,3.59,56.51.62,47,22.31-6.54-20.58-42.29-6-47.18-22Zm540-2037.45c11.85,13.14-7.14,22.86-14.27,37.2s-5.9,41.07-23,41.06a30.79,30.79,0,0,0,1.56-15.08c-21.07,20-24.38,54-47.54,64.38,27.52-37.52,37.38-89.23,75.18-117.81-5,10.48-15.3,21.41-14.92,31.3C1265.46,326.1,1259.84,313.64,1272.05,299.51ZM407,1601.19a174.93,174.93,0,0,1-3,30.09c-.31,8.74,36.62,35.42,18.45,37-4.29-24.45-53.75-44.27-39.65-70.75C390.25,1594.74,398.62,1599.05,407,1601.19ZM1743.13,224.26a114,114,0,0,1,.73,38.69c-3.88,20.88-11.19,49.21-14.75,64.16-1.48,6.49-6,9.3-7.39,15.65-3.57,16.11-1.37,34.86-4,51.14-.82,4.82-4.06,8.34-4.76,12.44-2.31,13.88-4.09,25.26-5.1,39.27-.61,8.26,2.84,15.42,2.22,23.68s-5.61,18.74-6.25,27.46c-.4,3.75,1.86,7.25,1.15,11.8a171.56,171.56,0,0,0-3.67,24.33,632.31,632.31,0,0,1-5.52,66.15c-1.35,15.83,3.23,38.65-13.19,49.08,2.73-52.56,13-122.82,9.71-177.1-.26-4.65,4.69-7.82,4.82-12.38.15-2.45-3.91-6-3.78-8.61.15-4.43,4.42-8.63,4.76-12.44,1-14.13.55-28.06,1.83-42,.67-7.05.54-13,1-21A377.55,377.55,0,0,1,1708.7,332c.5-2.74-1.54-8.63-1.07-11.75s4.48-8,4.75-12.45c.45-20.55-12.68-40.36-5.72-59.17a83.49,83.49,0,0,1,24-29.17C1734.5,222.53,1738.47,219.13,1743.13,224.26Zm-73.82,565.53c-22-13.82-11.24-30.76,1.33-47.87C1689.78,745.07,1686.38,773.46,1669.31,789.79Zm2,50.56c-9.37-6.08-7-13.23.91-21C1681.82,825.68,1679.16,832.6,1671.26,840.35ZM1663.34,883l-6.48-5.34,5.39-6.54,6.48,5.33Zm115.1,171c-8.14,8.61-17.18,9.23-26.89-.41,7.75-6.7-.18-11.83,10.09-18.91,15.51,6.7,2.15,20.93,16.86,19.25Zm-3.68,24.2c3.58-.09,20.65-5.08,15.71,7.45-3.85-4.11-20.65,5.07-15.65-7.52Zm-31.25,77.67a15.8,15.8,0,0,1-2.29-23.61c5.15-8.38,12.31,4.06,17.71-1.78-8.13-11.13,13.13-25.17-3.37-35.49-9-10-17.8,4.15-18.92-10.09a23.64,23.64,0,0,0,7.39-15.65c43.84,23.25,35.13,74.27-.47,86.56Zm55.5-74.06c9.59-6.82-17.21-10.32-7.62-17.14,4.58,10.9,21.3,1.53,16.22,13.36-6.63-4.29-2.54,6.78-8.54,3.71Zm-232.28-88c15.71,11.42,8.77,25.1,6.64,38.18-7.32,6.48-16.51-8.33-23.62,2.29-21.19,29.29,2.7,69-24.19,89,17.46,27.46-24.6,75.56,11.73,91.46-6.29,6.5-5.84,12.48,1.72,17.77a31.63,31.63,0,0,0,35.48-3.49,105.22,105.22,0,0,0-29.75-30c11.27-8,3.12-14.14,6.83-21.48,16.86-4.58,33.93,15.55,23.84,30.5a60.13,60.13,0,0,1,29.58-2.87c-2.94,13.23,7.25,25.25.81,38.76,3.23,5.58,19.87,10.06,13.58,16.56-4.26-2.34-8.06-.56-11.86,1.21,15.87,9.11,4.06,21.46-5.75,33.37-6.65-3.27-4.39-11.69-9.74-8,8.19,18.43-19.69,15.11-29.42,35.72-10-.38-20.75-9.14-30.09-3-2.61,48.57-81.35,145.33-106.71,70a211.74,211.74,0,0,1-2.46-56.47,184.64,184.64,0,0,1,12-60.82c3-6.64,11.37-11.55,16.05-19.5,5.71-9.91,6.84-21.36,12.22-28,7.57-9.19,19.29-14.49,24.59-23.34,6.79-11.23,7.22-28.06,11.13-39.9s10.91-21.76,14.86-31.24c.61-1.6-1.89-9.62-1.16-11.93,1.72-4.78,8.31-8.24,10.67-13,11-21.76,11.26-53.82,11-72.76a210.54,210.54,0,0,1-2.8-29.66c.55-4.21,8.3-11.5,10.1-18.79,1.06-4.27-3-14.13-1.72-17.77,1.44-5,9.09-8.06,10.66-12.95,5-15.49,2-33.45,17-40.48C1610.64,924.46,1580,967.15,1566.73,993.82Z"/></g></g></g></g></svg>