<svg xmlns="http://www.w3.org/2000/svg" viewBox="0 0 2349.91 1167.1"><defs><style>.cls-1{fill:#fff;}</style></defs><title>95b4384e-1fdb-4b64-b97c-07fb4abe5153mdpi</title><g id="Layer_2" data-name="Layer 2"><g id="Layer_1-2" data-name="Layer 1"><g id="_95b4384e-1fdb-4b64-b97c-07fb4abe5153" data-name="95b4384e-1fdb-4b64-b97c-07fb4abe5153"><g id="b9479949-d739-432f-a8a2-a20fbae8523b"><path class="cls-1" d="M0,483.46l181.3-39.54q73.14-16,107.59,13.44t37.58,112.17l1.14,30.24q3.69,97.89-64.07,131.92,42.45,2,61.09,38.83T345.8,874.23q4.11,109-25.67,172.1t-113,81.22L25.78,1167.1ZM167.65,706.07q17.11-3.74,22.85-18.22t4.83-38.37L192.75,581q-1.26-33.43-30.05-27.15l-28,6.11,5.74,152Zm-2.45,309.45q52.13-11.37,50.21-62.3l-3.21-85.16q-1.17-31-10.72-45t-32.11-9l-24.9,5.44,7.47,198.17Zm388.38,42.88q-82.47,18-124.35-21T383.82,904.45L364.94,403.86l129.94-28.34,18.67,495q1.23,32.63,8.14,49.58t27.15,12.53q20.24-4.41,25.78-23.68t4.29-52.68l-18.66-495,129.94-28.34,18.88,500.59q3.54,93.91-34.73,150.4T553.58,1058.4Zm213.75-53.05L741.55,321.72l137.73-30,73.8,313.69-12.33-327.1,129.17-28.17,25.78,683.63L965,962.25,885.15,634.62l12.91,342.22Zm387.5-84.51L1129.05,237.2l137.73-30,73.81,313.69-12.34-327.1,129.17-28.18,25.78,683.64-130.73,28.52-79.82-327.62,12.91,342.21Zm381.28-83.17L1510.33,154l129.17-28.17,25.78,683.64ZM1719,797.79l-25.78-683.64,267.68-58.38,5,132.11-131.5,28.68,5,132.91L1965.42,322l4.86,128.94L1844.22,478.4l5.92,156.78,140-30.55,5,132.91Zm482.68-98.86q-91,19.86-133.25-17.48t-46.06-140l-2.53-66.85,131.51-28.68,3.21,85.15q1.92,50.94,33.82,44,17.9-3.9,24.49-16.17t5.64-37.74q-1.26-33.42-9.87-53.61t-21.22-32.28q-12.61-12.11-44.91-36.35l-59.8-46.33q-69.43-52.26-72.5-133.44-3.3-87.54,34.27-141.87t113-70.8q90.26-19.68,131.79,20.61t45.46,144.54l-136.17,29.7L2196,154.53q-.51-13.53-8.21-19.88t-20.92-3.46q-15.55,3.39-23,13.85T2137,170.61q1.26,33.42,40,61.09l80.69,59.43q28.26,21.12,47.07,41.49t30.95,51q12.14,30.64,13.85,76,3.81,101.08-30.4,161.1t-117.48,78.18Z"/></g></g></g></g></svg>