<svg xmlns="http://www.w3.org/2000/svg" viewBox="0 0 78.69 24.12"><defs><style>.cls-1{fill:#bb133e;}</style></defs><title>9744aaa3-46db-4f9a-a1fb-34c0fdc0df622skateboard1</title><g id="Layer_2" data-name="Layer 2"><g id="Layer_1-2" data-name="Layer 1"><g id="_9744aaa3-46db-4f9a-a1fb-34c0fdc0df62" data-name="9744aaa3-46db-4f9a-a1fb-34c0fdc0df62"><g id="f2991648-dbb9-45d9-9b5d-6f918df4c7d5"><path class="cls-1" d="M4,3.45H0V0H11.71V3.45h-4V24.12H4ZM13.54,0h5.61a5.78,5.78,0,0,1,4.27,1.36,5.73,5.73,0,0,1,1.35,4.19V7c0,2.51-.83,4.09-2.48,4.76v.06a3,3,0,0,1,1.94,1.69A8.49,8.49,0,0,1,24.8,17v4.24a15,15,0,0,0,.07,1.67,4.37,4.37,0,0,0,.34,1.26H21.36a5.74,5.74,0,0,1-.28-1.1A15.68,15.68,0,0,1,21,21.16V16.75a3.77,3.77,0,0,0-.53-2.31,2.27,2.27,0,0,0-1.85-.66H17.32V24.12H13.54ZM18.7,10.34a2.29,2.29,0,0,0,1.71-.59,2.75,2.75,0,0,0,.57-2V5.93A3.08,3.08,0,0,0,20.51,4a1.74,1.74,0,0,0-1.46-.58H17.32v6.89ZM27.42,0h5.79a5.55,5.55,0,0,1,4.24,1.52A6.29,6.29,0,0,1,38.86,6v12.2a6.29,6.29,0,0,1-1.41,4.44,5.55,5.55,0,0,1-4.24,1.52H27.42Zm5.72,20.67a1.82,1.82,0,0,0,1.43-.55,2.64,2.64,0,0,0,.5-1.79V5.79A2.64,2.64,0,0,0,34.57,4a1.82,1.82,0,0,0-1.43-.55H31.21V20.67Zm8.06-.2h3.65v3.65H41.2ZM47.68,0h5.41L55.5,17.26h.07L58,0h5.41V24.12H59.81V5.86h-.07L57,24.12H53.81L51.05,5.86H51V24.12H47.68ZM66.21,0H70V10.17L74.83,0h3.79L74.1,8.86l4.59,15.26h-4l-3.2-10.75L70,16.44v7.68H66.21Z"/></g></g></g></g></svg>