<svg xmlns="http://www.w3.org/2000/svg" viewBox="0 0 827.94 827.81"><defs><style>.cls-1{fill:#2d2d2d;}</style></defs><title>99f2eb0e-7699-4f75-8ca4-ffc8efa52081mdpi</title><g id="Layer_2" data-name="Layer 2"><g id="Layer_1-2" data-name="Layer 1"><g id="_99f2eb0e-7699-4f75-8ca4-ffc8efa52081" data-name="99f2eb0e-7699-4f75-8ca4-ffc8efa52081"><g id="_99f2eb0e-7699-4f75-8ca4-ffc8efa52081-child-0" data-name="99f2eb0e-7699-4f75-8ca4-ffc8efa52081-child-0"><path class="cls-1" d="M827.94,408.84H677c67.49-89.14,91.81-175.69,54.7-226.69-46.38-63.54-174.44-52.76-312.62,17.36V0H408.84V204.79A828.19,828.19,0,0,0,307.62,268.2C247.57,312,197.07,360.63,158.78,408.89H0v10.23H150.92C83.44,508.21,59,594.76,96.25,645.69c46.35,63.54,174.41,52.76,312.59-17.39V827.81h10.23V623.08a828.62,828.62,0,0,0,101.25-63.42c60-43.81,110.55-92.43,148.81-140.69H827.94ZM641.82,247.7c29,39.8,21.2,99.84-14.55,161.14H419.07V233.35C514.47,193.05,604,196,641.82,247.7ZM322.44,288.53a489.65,489.65,0,0,1,86.4-50.68v171h-202C233.48,366.81,272.9,324.65,322.44,288.53ZM186.09,580.22c-29-39.8-21.18-99.85,14.58-161.15H408.84V594.56C313.45,634.86,223.91,632.05,186.09,580.22ZM505.5,539.41a491.71,491.71,0,0,1-86.43,50.65v-171h202C594.46,461.13,555,503.26,505.5,539.41Z"/></g></g></g></g></svg>