<svg xmlns="http://www.w3.org/2000/svg" viewBox="0 0 641.31 637.03"><defs><style>.cls-1{fill:#df0610;}</style></defs><title>9bc38b34-3003-4e2b-94d4-07985b7e1250mdpi</title><g id="Layer_2" data-name="Layer 2"><g id="Layer_1-2" data-name="Layer 1"><g id="_9bc38b34-3003-4e2b-94d4-07985b7e1250" data-name="9bc38b34-3003-4e2b-94d4-07985b7e1250"><g id="_9bc38b34-3003-4e2b-94d4-07985b7e1250-child-0" data-name="9bc38b34-3003-4e2b-94d4-07985b7e1250-child-0"><path class="cls-1" d="M44.89,191.62a22.45,22.45,0,1,1-22.44-22.44A22.44,22.44,0,0,1,44.89,191.62ZM22.45,338.37a22.45,22.45,0,1,0,22.44,22.44A22.45,22.45,0,0,0,22.45,338.37Zm0,169.18A22.45,22.45,0,1,0,44.89,530,22.45,22.45,0,0,0,22.45,507.55ZM192.86,169.18a22.45,22.45,0,1,0,22.44,22.44A22.44,22.44,0,0,0,192.86,169.18Zm0,169.19a22.45,22.45,0,1,0,22.44,22.44A22.43,22.43,0,0,0,192.86,338.37ZM363.25,169.18a22.45,22.45,0,1,0,22.46,22.44A22.44,22.44,0,0,0,363.25,169.18Zm0,169.19a22.45,22.45,0,1,0,22.46,22.44A22.44,22.44,0,0,0,363.25,338.37ZM22.45,0A22.45,22.45,0,1,0,44.89,22.45,22.45,22.45,0,0,0,22.45,0ZM192.86,0A22.45,22.45,0,1,0,215.3,22.45,22.44,22.44,0,0,0,192.86,0ZM363.25,0a22.45,22.45,0,1,0,22.46,22.45A22.44,22.44,0,0,0,363.25,0ZM533.66,0a22.45,22.45,0,1,0,22.45,22.45A22.44,22.44,0,0,0,533.66,0ZM192.86,507.55A22.45,22.45,0,1,0,215.3,530,22.44,22.44,0,0,0,192.86,507.55Zm170.39,2.14a22.45,22.45,0,1,0,22.46,22.45A22.45,22.45,0,0,0,363.25,509.69ZM533.66,171.32a22.45,22.45,0,1,0,22.45,22.45A22.44,22.44,0,0,0,533.66,171.32Zm0,169.19A22.45,22.45,0,1,0,556.11,363,22.44,22.44,0,0,0,533.66,340.51Zm0,169.18a22.45,22.45,0,1,0,22.45,22.45A22.45,22.45,0,0,0,533.66,509.69ZM44.89,107A22.45,22.45,0,1,1,22.45,84.59,22.44,22.44,0,0,1,44.89,107ZM22.45,253.78a22.45,22.45,0,1,0,22.44,22.43A22.44,22.44,0,0,0,22.45,253.78Zm0,169.18A22.45,22.45,0,1,0,44.89,445.4,22.45,22.45,0,0,0,22.45,423Zm0,169.19a22.44,22.44,0,1,0,22.44,22.44A22.45,22.45,0,0,0,22.45,592.15ZM107.65,0A22.45,22.45,0,1,0,130.1,22.45,22.44,22.44,0,0,0,107.65,0Zm0,592.15a22.44,22.44,0,1,0,22.45,22.44A22.44,22.44,0,0,0,107.65,592.15Zm85.21-338.37a22.45,22.45,0,1,0,22.44,22.43A22.43,22.43,0,0,0,192.86,253.78Zm0,169.18A22.45,22.45,0,1,0,215.3,445.4,22.43,22.43,0,0,0,192.86,423Zm0,169.19a22.44,22.44,0,1,0,22.44,22.44A22.43,22.43,0,0,0,192.86,592.15ZM278.06,0a22.45,22.45,0,1,0,22.45,22.45A22.44,22.44,0,0,0,278.06,0Zm0,169.18a22.45,22.45,0,1,0,22.45,22.44A22.45,22.45,0,0,0,278.06,169.18Zm0,84.6a22.45,22.45,0,1,0,22.45,22.43A22.44,22.44,0,0,0,278.06,253.78Zm0,84.59a22.45,22.45,0,1,0,22.45,22.44A22.44,22.44,0,0,0,278.06,338.37Zm0,84.59a22.45,22.45,0,1,0,22.45,22.44A22.44,22.44,0,0,0,278.06,423Zm0,169.19a22.44,22.44,0,1,0,22.45,22.44A22.44,22.44,0,0,0,278.06,592.15Zm85.19-338.37a22.45,22.45,0,1,0,22.46,22.43A22.44,22.44,0,0,0,363.25,253.78Zm0,169.18a22.45,22.45,0,1,0,22.46,22.44A22.44,22.44,0,0,0,363.25,423Zm0,169.19a22.44,22.44,0,1,0,22.46,22.44A22.44,22.44,0,0,0,363.25,592.15ZM448.46,0A22.45,22.45,0,1,0,470.9,22.45,22.44,22.44,0,0,0,448.46,0Zm0,169.18a22.45,22.45,0,1,0,22.44,22.44A22.44,22.44,0,0,0,448.46,169.18Zm0,84.6a22.45,22.45,0,1,0,22.44,22.43A22.44,22.44,0,0,0,448.46,253.78Zm0,84.59a22.45,22.45,0,1,0,22.44,22.44A22.44,22.44,0,0,0,448.46,338.37Zm0,84.59A22.45,22.45,0,1,0,470.9,445.4,22.44,22.44,0,0,0,448.46,423Zm0,169.19a22.44,22.44,0,1,0,22.44,22.44A22.44,22.44,0,0,0,448.46,592.15ZM107.65,86.73a22.45,22.45,0,1,0,22.45,22.45A22.44,22.44,0,0,0,107.65,86.73Zm0,82.45a22.45,22.45,0,1,0,22.45,22.44A22.45,22.45,0,0,0,107.65,169.18Zm0,84.6a22.45,22.45,0,1,0,22.45,22.43A22.44,22.44,0,0,0,107.65,253.78Zm0,84.59a22.45,22.45,0,1,0,22.45,22.44A22.44,22.44,0,0,0,107.65,338.37Zm0,84.59A22.45,22.45,0,1,0,130.1,445.4,22.44,22.44,0,0,0,107.65,423Zm0,84.59A22.45,22.45,0,1,0,130.1,530,22.45,22.45,0,0,0,107.65,507.55ZM192.86,86.73a22.45,22.45,0,1,0,22.44,22.45A22.44,22.44,0,0,0,192.86,86.73Zm85.2,0a22.45,22.45,0,1,0,22.45,22.45A22.44,22.44,0,0,0,278.06,86.73Zm0,423a22.45,22.45,0,1,0,22.45,22.45A22.45,22.45,0,0,0,278.06,509.69Zm85.19-423a22.45,22.45,0,1,0,22.46,22.45A22.44,22.44,0,0,0,363.25,86.73Zm85.21,0a22.45,22.45,0,1,0,22.44,22.45A22.44,22.44,0,0,0,448.46,86.73Zm0,423a22.45,22.45,0,1,0,22.44,22.45A22.45,22.45,0,0,0,448.46,509.69Zm85.2-423a22.45,22.45,0,1,0,22.45,22.45A22.44,22.44,0,0,0,533.66,86.73Zm0,169.18a22.45,22.45,0,1,0,22.45,22.45A22.45,22.45,0,0,0,533.66,255.91Zm0,169.19a22.45,22.45,0,1,0,22.45,22.45A22.44,22.44,0,0,0,533.66,425.1Zm0,167a22.44,22.44,0,1,0,22.45,22.44A22.44,22.44,0,0,0,533.66,592.15ZM618.87,0a22.45,22.45,0,1,0,22.44,22.45A22.45,22.45,0,0,0,618.87,0Zm0,84.59A22.45,22.45,0,1,0,641.31,107,22.45,22.45,0,0,0,618.87,84.59Zm0,84.59a22.45,22.45,0,1,0,22.44,22.44A22.45,22.45,0,0,0,618.87,169.18Zm0,84.6a22.45,22.45,0,1,0,22.44,22.43A22.44,22.44,0,0,0,618.87,253.78Zm0,84.59a22.45,22.45,0,1,0,22.44,22.44A22.45,22.45,0,0,0,618.87,338.37Zm0,84.59a22.45,22.45,0,1,0,22.44,22.44A22.45,22.45,0,0,0,618.87,423Zm0,84.59A22.45,22.45,0,1,0,641.31,530,22.45,22.45,0,0,0,618.87,507.55Zm0,84.6a22.44,22.44,0,1,0,22.44,22.44A22.45,22.45,0,0,0,618.87,592.15Z"/></g></g></g></g></svg>