<svg xmlns="http://www.w3.org/2000/svg" viewBox="0 0 242.25 233.11"><defs><style>.cls-1{fill:#252525;}</style></defs><title>a02fdbcf-cf3a-4fbc-b57b-34e2f28fb186surfing</title><g id="Layer_2" data-name="Layer 2"><g id="Layer_1-2" data-name="Layer 1"><g id="a02fdbcf-cf3a-4fbc-b57b-34e2f28fb186"><g id="fd91151c-3aab-4c5a-a46d-501382db674e"><path class="cls-1" d="M27.74,228.05A47.49,47.49,0,0,1,7.59,208.13Q.29,194.84,0,174.49a36,36,0,0,1,3.58-2.32,16.07,16.07,0,0,1,5.29-1,14.67,14.67,0,0,1,5.86-2.09q4.14-.78,8.87-1.2t9.29-.66c3-.17,5.53-.33,7.43-.5a41.69,41.69,0,0,1,4,8.11,57.08,57.08,0,0,0,4,8.56,19.07,19.07,0,0,0,5.57,6.25q3.29,2.31,9,1.23a75.8,75.8,0,0,0,7.43-23.45q1.72-12.06-6.57-22a20,20,0,0,0-5.57,3.35c-1.82,1.5-3.72,2.95-5.72,4.37a28.39,28.39,0,0,1-6.58,3.44,14.1,14.1,0,0,1-8.15.27,48.27,48.27,0,0,1-19-9Q9.44,141,6.3,131.46a19.93,19.93,0,0,1-1-8.52,23.38,23.38,0,0,0-1-9.09A37.92,37.92,0,0,1,3,106.79q-.42-4.28-.42-8.72T3,89.42A48.88,48.88,0,0,1,4.3,82a11.12,11.12,0,0,0,0-7q-1.16-3.49-1.71-5.44A16.49,16.49,0,0,1,2,63.25a38.42,38.42,0,0,1,1.14-6.7c.57-2.16,1.24-4.27,2-6.35s1.43-3.8,2-5.19a39.32,39.32,0,0,1,4.28-8.12,77.25,77.25,0,0,1,6.44-8.31,68.33,68.33,0,0,1,7.43-7.25,34.49,34.49,0,0,1,7.87-5A25.38,25.38,0,0,1,39,14.83q3-.39,6-.95a58.23,58.23,0,0,0,5.71-1.35,17.16,17.16,0,0,0,5-2.45,16.82,16.82,0,0,1,6.43.44,25.54,25.54,0,0,0,5.28,1.12l10.58-.91a34.76,34.76,0,0,1,10,4.3,69.62,69.62,0,0,1,10.3,7.56,68.67,68.67,0,0,1,8.71,9.3A32.31,32.31,0,0,1,112.37,41l-.85,15.57a19.51,19.51,0,0,0,3,7.49,29.52,29.52,0,0,1,3.29,5.46,17.89,17.89,0,0,1,.57,7c-.19,3.17-.1,5.32.29,6.43a16.12,16.12,0,0,1-.43,7.07c-.67,2.26-1.43,4.52-2.29,6.8a42.93,42.93,0,0,0-2,7.06,18.43,18.43,0,0,0,.15,7.6,146.6,146.6,0,0,1,3.71,23.07,172.4,172.4,0,0,1,.28,26.23,152,152,0,0,1-3.71,25.3q-2.86,12-8.29,19.93a50.38,50.38,0,0,1-14.16,13.58,79.75,79.75,0,0,1-20.44,9.81,78.1,78.1,0,0,1-22.73,3.69,41.64,41.64,0,0,1-21-5.06ZM26,203.8a6.86,6.86,0,0,1,4.14-2.23,10.64,10.64,0,0,0,4.72-2,9.81,9.81,0,0,0-2.72-.48,35.39,35.39,0,0,0-3.57.17,10,10,0,0,1-3.43,1c-1.53.23-3.05.41-4.57.54v.86q1.71,1,2.28,1.38a9.63,9.63,0,0,0,3.15.73Zm15.15-3c1-.47,1.38-.65,1.29-.54s.14-.07.71-.5a16.12,16.12,0,0,1-2-1.54l-2.57.22a18.25,18.25,0,0,0,.14,2.42Q38.9,201.82,41.18,200.77Zm16.3,8.62a21,21,0,0,1-2.86-.89,8.39,8.39,0,0,0,.57,1.52,7.53,7.53,0,0,1,2.29.23Zm-26-24.14v-2.58l-2.86.25-.86,1.79-.86.94Zm34.89,22.23-1.72.15c.19,1.32.23,1.89.14,1.71s.43-.14,1.58.14Zm30.59-12.41v-1.72l-2.58.22v1.72Zm-9.72-14.66a42,42,0,0,0,6.86-.59,12.28,12.28,0,0,0,5.72-2.22,76.85,76.85,0,0,0-12.58.23Zm2.57-12.85a7,7,0,0,1-2.86-.47,8.21,8.21,0,0,0-2.57-.78c.57,1.29.85,1.94.85,1.94l2,.68c.38.35.66.47.85.36s.77,0,1.72.28Zm.85-.08a8.49,8.49,0,0,1,2.57-.36,8.5,8.5,0,0,0,1.15-1.68l-3.72.32Zm11.73.14a7.41,7.41,0,0,1,1.71-1.3v-.86l-3.42.3a2.62,2.62,0,0,0-1.44-.45,18.1,18.1,0,0,1-2.28-.09v1.72a9.33,9.33,0,0,1,3.57.7c.85.4,1.47.39,1.86,0ZM51.19,111.5q7.14,4.26,10.86,2.22c2.48-1.37,4.15-3.85,5-7.47a55.63,55.63,0,0,0,1.3-12.88V59.5a8.64,8.64,0,0,0-3.15-4.18,26.71,26.71,0,0,1-4-3.52l-7.43.64a40,40,0,0,0-4.14,12.7,106.06,106.06,0,0,0-1.44,15.91,132.48,132.48,0,0,0,.72,16.3,121.21,121.21,0,0,0,2.29,14.15ZM172.71,222.64q-4-.51-9.3-1.06a82.78,82.78,0,0,1-9.86-1.57,23.78,23.78,0,0,1-6.87-4,87,87,0,0,1-7.86-6.92,83.21,83.21,0,0,1-7-7.86,27.88,27.88,0,0,1-4.29-7.09,20.75,20.75,0,0,1-1.29-6.34q-.13-3.3-.14-6.73t-.14-6.88a33.64,33.64,0,0,0-1-6.8l-1.72-1.57a13.88,13.88,0,0,1-.14-8.6q1.29-4.71,1.86-7.05V127.49a66.49,66.49,0,0,1,2.57-7.55,41.17,41.17,0,0,1,3.72-7.35,14.37,14.37,0,0,1,2.57-3.09c1-.85,1.9-1.65,2.86-2.4a12.68,12.68,0,0,0,2.57-2.81A12.1,12.1,0,0,0,141,100a67,67,0,0,1-7.58-5.08,16.5,16.5,0,0,1-5.86-7.25V68.71a18,18,0,0,0-1.29-2.61A19.31,19.31,0,0,1,125,63.49c-.58-1.87-.48-4.79.28-8.79a112.18,112.18,0,0,1,3.15-12.32q2-6.35,4.15-11.55a53.67,53.67,0,0,1,3.28-7A41.51,41.51,0,0,1,139.68,19q2.43-2.66,5.29-5.34a56.21,56.21,0,0,1,5.87-4.81,29.47,29.47,0,0,1,5.57-3.21,8.69,8.69,0,0,1,4-.92,4.15,4.15,0,0,0,3.15-1.42q5.15-.45,11.15-1.4t12-1.47A107.75,107.75,0,0,1,198.15,0a38.91,38.91,0,0,1,9.44,1.19A47.65,47.65,0,0,1,217.17,6a59.52,59.52,0,0,1,9.29,7.23,53.94,53.94,0,0,1,7.58,9,42.67,42.67,0,0,1,5,9.9,19.8,19.8,0,0,1,1.14,9.37A27.94,27.94,0,0,0,241,51.69a41.82,41.82,0,0,1,.87,13.13,34.15,34.15,0,0,1-3.73,13.23,26.21,26.21,0,0,1-6.43,8.45q-4.14,3.68-7.87,7.14v1.15l.87-.07a16.84,16.84,0,0,0,3.14,5.33q2,2.27,4.14,4.66t4.15,5a15.75,15.75,0,0,1,2.86,6.21v11.76a89.1,89.1,0,0,1,3,29.16,80.52,80.52,0,0,1-6,25.78A65.65,65.65,0,0,1,222.6,203,52.58,52.58,0,0,1,203,215.71c-1.9.74-4,1.59-6.28,2.55s-4.72,1.85-7.3,2.64a55.82,55.82,0,0,1-8.15,1.86,25.69,25.69,0,0,1-8.57-.12Zm11.43-43.18a11.25,11.25,0,0,1,3.15-2.56q1.43-.71,2.28-3.36.87-1.23,1.44-8.16t.85-15.15q.3-8.19-.14-15.34t-1.28-8.49a9.45,9.45,0,0,0-3.3-4.6,19.12,19.12,0,0,1-3.85-3.68l-6.29.54a10.78,10.78,0,0,1-2.29,2.36,6.89,6.89,0,0,0-2,2.32,9.94,9.94,0,0,0-1.86,4.61,22.84,22.84,0,0,0-.15,5.61,53.44,53.44,0,0,0,.86,5.52,40.65,40.65,0,0,0,1.15,4.35,9.46,9.46,0,0,1-.29,6.06q-1.14,3-1.72,4.74a23.8,23.8,0,0,0-.71,8.52,29,29,0,0,0,1.72,7.46,16.72,16.72,0,0,0,3.43,5.58,9.59,9.59,0,0,0,4.72,2.89,3.85,3.85,0,0,0,1.71.57l2.57.21Zm-39.45-124V53.73l-1.72.15V55.6ZM161,64.09c-.19-1.52-.33-2.46-.43-2.83s-.61-.91-1.56-1.59c-.2.78-.34,1.32-.44,1.61s-.24,1-.43,2.2c.58.33.77.41.58.23s-.1,0,.29.55Zm-8.29-11.91-1.71.15a7.94,7.94,0,0,1,.43,2c-.1-.18.33,0,1.28.46ZM151,49.46c.38-.41.52-.52.43-.33s.05,0,.42-.61l-.85.08c-.39-.35-.58-.47-.58-.38s-.38,0-1.14-.33c.19,1.51.24,2.17.14,2s.44,0,1.58.43Zm-5.43-13a10.82,10.82,0,0,1,1-.81c-.09.11-.42-.19-1-.91Zm12.57,7v-.86l.87-.08a10.44,10.44,0,0,1-.72-1.08l-.15-.28v-2a7,7,0,0,0,2.29-2.49,24.55,24.55,0,0,0,.57-4.07l-2,.17c-1,1.61-1.87,3.18-2.72,4.69s-1.77,3.07-2.72,4.69c-.77.64-1.29.87-1.58.7a6.27,6.27,0,0,0-.7-.37,1,1,0,0,0-.72.07c-.29.11-.71.68-1.29,1.69Zm26,33.9c1.34-1.83,2.82-3.83,4.44-6s3.19-4.06,4.72-5.72q.27-7.48-.15-14.62t-5.29-9a7.68,7.68,0,0,0-3.58-2,18.57,18.57,0,0,0-5.28-.11,27.87,27.87,0,0,1-2.58,2.51,7.74,7.74,0,0,0-2,3.34,11.59,11.59,0,0,0-2.14,6.06,46.28,46.28,0,0,0-.14,8.19,54.82,54.82,0,0,0,1.14,8.22,16.24,16.24,0,0,0,2,5.57,6.72,6.72,0,0,0,3.86,2.4,46.3,46.3,0,0,0,5,1.14ZM172.71,28.63a18.49,18.49,0,0,1-3.29-3.16A8.39,8.39,0,0,0,165.27,23q1.42,3,2.29,4.83t5.15,1.7ZM179.86,20a14.84,14.84,0,0,1,2.43-3.08c1-1,2-2,3-2.84v-.86l-3.72.32c-.57,1-1.14,2.11-1.71,3.31a19.73,19.73,0,0,1-2,3.33Zm48.32,35.42c-.2-.75-.29-1.12-.29-1.12l-.57-.53v1.72ZM203,29.73a11.61,11.61,0,0,1-4.86-5.31,13.36,13.36,0,0,0-4.85-5.61c-.19,1-.34,1.9-.44,2.76s-.24,1.8-.43,2.77a14.79,14.79,0,0,1,4.3,4.5c1,1.64,3,2.52,6.28,2.61Zm6.3,12.09A9.16,9.16,0,0,1,212,39.28q1.29-.68,3.57-1.74v-.86a12.9,12.9,0,0,0-1.71-.14c-.19,0-.48-.15-.86-.5a9.15,9.15,0,0,0,1.43-2.42,2.79,2.79,0,0,0-.57-2.25,10.08,10.08,0,0,1-2.29,3.36,10.58,10.58,0,0,1-2.28,1.49A22,22,0,0,0,207,37.43a6.3,6.3,0,0,0-2,1.89c1.15.28,1.77.51,1.87.7a1.25,1.25,0,0,1,.14.56,1.22,1.22,0,0,0,.29.69c.19.27.86.45,2,.55Z"/></g></g></g></g></svg>