<svg xmlns="http://www.w3.org/2000/svg" viewBox="0 0 2060.67 2413.2"><defs><style>.cls-1{fill:#9f1111;}</style></defs><title>a11ae399-d22e-4b39-83ba-726ff6cb2516roster</title><g id="Layer_2" data-name="Layer 2"><g id="Layer_1-2" data-name="Layer 1"><g id="a11ae399-d22e-4b39-83ba-726ff6cb2516"><g id="a11ae399-d22e-4b39-83ba-726ff6cb2516-child-0"><path class="cls-1" d="M0,650.9C-.3,662,10.76,661.57,21.56,661.74,18.43,653.94,12.7,649,0,650.9Zm25.17,64.76c-6.75-.44-12-2.38-14.37-7.19C19.93,706.67,24.74,702.3,25.18,715.66Zm7.18,39.67c1.06-8.28-10.49-4.1-10.8-10.8,10.19-5.07,21.6,6.35,10.8,10.72ZM215.75,600.69H201.38V593.5h14.37ZM327.24,1449.3c1.81,16.49-12.12,14.55-21.56,10.8C303.57,1447.19,316.31,1449.13,327.24,1449.3Zm-7.18,201.42c-2.25,0-4.41.44-3.62,3.57h-7.19C303.57,1645.48,321.38,1643.67,320.06,1650.72Zm-7.19-377.66c-1.19-4.77-5.11-6.88-3.57-14.38h14.46C324.68,1268.12,322.3,1274,312.87,1273.06Zm0,107.91c8.82-.44,17.24-.61,21.6,3.62v10.75C327.55,1401.21,307.76,1398.08,312.87,1381Zm18,676.12h-7.1v-7.19h7.18ZM327.24,848.75c-.26-2.25-.57-4.41-3.57-3.62.26-4.41,1-8.55,7.19-7.18C330.24,842,331.43,848.13,327.24,848.75Zm7.23,302.06c11.07-2.56,6.88-2.56,17.94,0C355.85,1165.36,330.86,1165.36,334.47,1150.81Zm21.56,543h-7.19v-7.19H356Zm7.18-568.2H356v-7.19h7.18Zm-3.57-791.18h7.19v7.19h-7.19Zm10.8,1844.87c0,3.62,2.82,4.41,3.57,7.19-5.68-.27-12.43.48-10.8-7.19ZM399.19,892.08c-7.5,7.06-24,2.69-32.36,0-2.87-26.89,33.11-25.83,32.36-.22Zm-3.57,392c1.63,11.24-7.85,11.59-18,10.8-4-14.77,10.93-18.08,18-11Zm-18-284.08v-7.19h7.18V1000Zm10.8-259c-5.87-10,15.43-9.87,14.37-3.61-4.94,1-6.88,4.89-14.37,3.39Zm0,449.66c4.8-4.41,13.22-4.81,14.37,3.61-5.38-.92-13.32,1-14.37-4Zm21.55-499.87c5.12,5.25,5.25,13.93-7.18,10.8a9.93,9.93,0,0,1,7.18-11.15Zm-3.57-208.56h7.19v7.05h-7.19ZM435.11,734c-5.51-6.44-21.11-2.82-21.55-14.37,12.16-2.61,31.47,6.08,21.55,14Zm-3.57,64.71c-6.74-.44-12-2.38-14.37-7.14A20.13,20.13,0,0,0,431.54,788Zm14.38,1003.4c2.73,13.62-23.37,7.76-18-3.62a23.36,23.36,0,0,1,18,3.26Zm-18-370.31c-.57-10.18,8.82-10.31,18-10.75,1.67,10.75-7.54,11-18,10.27Zm10.8-323.66c10.93,2.55,13.22-3.75,21.56-3.62-.89,6.75,4,7.94,3.61,14.42-11.55-1-27.55,3.08-25.17-11.29Zm7.19-607.79c3.61,0,4.4-3,7.18-3.57,0,3.57,2.87,4.41,3.62,7.19-3.62,0-4.41,2.82-7.19,3.61,0-4.1-3-5-3.61-7.71Zm3.61,402.8h18c2.82,14.68-19.36,11.81-18-.49Zm21.56-269.71H456.72c-3.13-11.55,5.55-11.24,10.8-14.41,1,4.32,5.07,6.43,3.57,13.93Zm7.23,1060.88v14.42c-10.36.75-19.66.44-18-10.8,10.18,2.51,9.26-5.6,18-4.1Zm-14.42-1550c12.43-.31,24.86,18.16,14.42,28.79-4.68-10-16.05-13.23-14.42-29.27Zm7.19,633c1.67,6.43,3.74-1.63,7.23-3.62,0,2.25.44,4.41,3.57,3.62,3.13,18.69-20.06,3.26-10.8-.49Zm3.61,327.23v10.8c-10.49,4.76-10.49-16.48,0-11.28Zm-3.61,140.28h7.23V1252h-7.23Zm0-104.3h7.23v7.22h-7.23Zm10.8,1021.38H474.7v-7.23h7.19Zm3.61-942.25c1.5,6.12,4.63-.75,10.76,0,6.17,14.32-26.67,4.58-10.76-.49ZM492.64,691v10.8c-10.44,4.76-10.44-16.53,0-11.28Zm-3.57-21.56c-4.93-16.17,14.37-17.63,21.6-10.8v10.8c-7.49,7.28-10.58-2.29-21.6-.48Zm0-115.1c8.82-.62,11.24,5.56,14.37,10.8-9.43.57-15.38-1.85-14.37-11.28Zm3.62-445.95c-4.63-4.81-4.81-13.23,3.57-14.37,4.67,4.32,4.67,12.83-3.57,13.88Zm18,1301.88c-4.4,4.41-13.66,1.5-18-3.61,4.54-5.42,17.55-6,18,3.13Zm-7.18-223h7.18v7.18h-7.18Zm17.94,118.67H510.67v-7.67h10.76Zm-3.7-471.61h7.18v7.19h-7.18Zm18.12,989a24.05,24.05,0,0,1-3.62,18c-12.74-.44-22.75-3.57-25.17-14.37C511.86,1820.67,527.91,1815.82,535.85,1823.31Zm10.75,169c-6.74-.44-11.94-2.38-14.37-7.14a20.09,20.09,0,0,0,14.37-3.62ZM543,194.19V179.82a7.67,7.67,0,1,1,0,14.37ZM561,1934.8v14.37H546.6Q544.18,1932.37,561,1934.8ZM546.6,931.45v-7.19C553,912.23,564.15,935.06,546.6,931.45Zm10.8-125.86c-.57-7.85,12.74-1.68,18-3.62A16.72,16.72,0,0,0,579,812.73C574,817.71,557.4,816.21,557.4,805.59Zm0-28.79h7.19V784H557.4Zm25.18,1305.46a20.09,20.09,0,0,1-3.62,14.37c-9.87.31-7.32-6-14.37,0C564.15,2077.45,571.64,2086.93,582.58,2082.26ZM564.59,838c6.74,1.63,21.6-4.94,18,7.18C573.58,845.57,565,845.71,564.59,838ZM579,870.3c-4.4,4.41-13.66,1.5-18-3.61C568.51,864.75,574.51,860.43,579,870.3Zm-14.41,316.48c8.82-11.55,22,8.38,7.23,10.8C570.89,1192.47,565.82,1191.41,564.59,1186.78Zm21.6-507c-9.43,1.06-15.43-1.32-14.37-10.76,4.41,0,4.94-4.67,10.76-3.61,1,4.63,5.11,6.74,3.61,14.24ZM579,2035.62a9.91,9.91,0,0,1-10.8-7.19c5.56.18,12.44-.57,10.8,7.06Zm14.38-57.53c1,9.43-1.37,15.43-10.8,14.37-5.38-5.07-1.94-17.19,10.8-14.5ZM607.75,956.62c-11.69,6-18.87,1.06-25.17-7.23C581.56,928.76,616,931.14,607.75,956.62Zm-21.56-784c-1.06-9.43,1.32-15.43,10.8-14.37C604.75,167.83,598.18,180.74,586.19,172.63Zm-3.61,963.81c4.8-4.67,13.22-4.81,14.41,3.57C591.57,1139.39,583.63,1141.24,582.58,1136.44Zm10.8-241c-.62-10.5,14.54-10.94,18-7.19C614.71,900.46,600.12,893.85,593.38,895.48Zm39.67-136.66c.71,15.43-12,14.68-3.61,28.78-17.64.88-30.42-3.17-32.36-18,17.41,2.69,17.28-26,35.88-10.8Zm-46.77,557.44c2.69-9.3,19.17-15.74,28.74-7.23v14.41c-11,5.12-24.64,3.49-28.83-7.18Zm39.54,435.11c-5.07,1-4.19,8-7.18,10.8-6.88.79-7.94-4-14.38-3.57-2.77-10,17.73-15.3,21.47-7.23Zm-18-255.29h6.87v7.18h-7.18ZM614.71,71.94c3.18-2.86,10.23,2.21,10.8,3.58C630.85,89,607.75,78.07,614.71,71.94Zm0,1194c-5.82-10.05,15.43-9.92,14.42-3.61C624.41,1263.49,622.43,1267.41,614.71,1265.91Zm0,402.75h18C635.78,1684,613.61,1681,614.71,1668.66Zm14.42-683.3c-4.94,1.06-6.92,5.12-14.42,3.62-.84-10.32,14.15-13.8,14.64-3.62ZM618.55,1366.6h14.37v10.8C626,1375.9,617.49,1376,618.55,1366.6Zm3.61-456.71h14.37V917H622.16Zm0-187h18c3.13,14.86-18,11-18,.14Zm0,855.94c6.88-1.5,6.44-10.36,18-7.19,1,4.76,5.07,6.88,3.57,14.37C634.11,1586,622.43,1588,622.16,1578.78Zm28.75,758.81v10.8c-9.88.31-7.19-6-14.38,0C632.92,2336.45,641.47,2336.45,650.91,2337.59ZM636.53,1341.3c-.61-7.81,12.74-1.68,18-3.62,8.07,14.37-22.17,16-18,3.75Zm0-600.56h7.19v7.14h-7.19Zm0-169.06h7.19v7.19h-7.19Zm0,1107.65c11.25,1.81,14.68-8.55,18,3.62-5.38,5.82-14.68,2.82-18-3.35Zm3.62-884.67c1.5,6.12,4.63-.75,10.76,0,6.17,14.94-26.68,5.2-10.76.13Zm0-7.19c-.57-10.53,14.55-10.93,18-7.18,3.53,12.25-11.29,5.64-18.08,7.31ZM651,1139.88h-7.19V1133H651Zm-7.19-881.06H651V266h-7.19ZM651,1819.61v10.75c-10.54,5.38-10.54-15.87,0-10.62Zm14.41-176.34h-7.18v-7.14h7.18Zm7.19-402.75H658.14v-7.23h14.41ZM658.18,942c-.62-10.45,14.5-10.94,17.94-7.15,3.57,12.3-11.28,5.73-18,7.37Zm0-420.74h7.18v7.18h-7.18Zm10.76-215.79h7.18V313h-7.18Zm7.18,974.6v14.38c-14,3.08-14-17,0-14.15Zm-3.57-481.92c-.62-10.49,14.5-10.89,18-7.14,3.52,12.3-11.29,5.73-18,7.36Zm3.57,467.55c6.61-12,17.63,10.76,0,7.15Zm0-68.33h10.8v10.8h-10.8Zm17.94-323.44c-14.68.26-15.56-13.23-14.37-28.79C707.55,827.46,722.85,870,694.06,873.92Zm-14.37,276.89c-.44-8.82-.61-17.37,3.57-21.6,12.74-.84,18.74,5.11,18,18C696.93,1151.43,688.51,1151.25,679.69,1150.81Zm0,197.81h10.76v7.18H679.69Zm18-93.51h-7.19v-7.18h7.19ZM690.49,989h7.19v7.32h-7.19Zm17.94,960.19c2.87,2.56,8,20.1,0,21.6-4.18-6.57-19.13-2.56-14.37-18C698.87,1951.6,700.94,1947.72,708.43,1949.17Zm3.62-848.7c-5.25,5.55-18.74,3.44-18-7.23C702.88,1092.66,711.48,1092.53,712.05,1100.47Zm-14.37,259c.44-8,15.3-1.55,21.56-3.62C724.92,1368.1,695.12,1372.86,697.68,1359.42ZM712.05,723c6.17,14.85-26.67,5.11-10.8,0C702.88,729,705.92,722.09,712.05,723Zm3.61,600.6q-16.83,2.46-14.41-14.42h14.41Zm0,262.52v14.15H701.25q-2.47-16.71,14.41-14.29Zm-3.61-931.45h-7.19V647.5h7.19Zm-3.62,1165.22v-10.8c8.12-1.06,13.49.88,14.42,7.19-4.94,1.06-6.74,4.93-14.42,3.48Zm7.23-1255.24h-7.18v-7.19h7.18Zm10.76-255.34v14.37a19.48,19.48,0,0,1-14.37-3.61C711,310.66,717,308.23,726.42,309.29Zm-3.57,873.88V1194C712.36,1199.08,712.36,1177.92,722.85,1183.17ZM730,1647.11h-7.19v-7.19H730Zm-10.8-410c5.68.31,12.43-.44,10.8,7.18A9.89,9.89,0,0,1,719.24,1237.13Zm7.18-215.79c.62-4.41-.57-10.19,3.62-10.8,0,4.8,6.3,3.3,7.18,7.23C732.59,1017.9,732.28,1022.39,726.42,1021.34Zm10.8,338.08c0-6-10.05-2-10.8-7.19a20.32,20.32,0,0,0,14.42-3.61C740.22,1352.8,741.41,1358.8,737.22,1359.42ZM730,1327.06c-1.06-9.48,1.36-15.48,10.8-14.42,6.43,6.13-1.24,14.29-10.8,14.29Zm0-136.66c5.68-.58,18.6-12.13,21.6-3.57-6.44,5.55-3,21.11-14.42,21.6-.75-2.87-3-4.41-7.18-3.62Zm0-1042.9h7.18v7.19H730Zm3.7,1129.17a9.75,9.75,0,0,1,7.23-10.76C745.91,1271.16,746,1279.84,733.74,1276.67ZM741,1801.75v10.76c-10.63,5.29-10.63-16-.13-10.76Zm0-334.46c6.88-1.5,6.44-10.32,18-7.19,14.06,6.26,2.51,22.05,3.57,36-14.64-2.25-24.87-9-21.69-28.79Zm7-1017.63h-7.18v-7.15H748ZM751.64,2086h-7.23v-7.14h7.23ZM744.41,122.42h7.23v7.19h-7.23ZM766,402.88c-6.75-7.93-26.67-21.07-18-32.31,1.5,6.13,4.63-.75,10.8,0-1.54,12.3,15.56,24.69,7.19,32.18Zm-14.37,607.79a9.93,9.93,0,0,1-10.8-7.19c5.51.18,12.43-.57,10.8,7.06ZM748,1399.09c11.38,2.12,11.11-6.74,18,0,3.44,12.92-20.1,7.5-18-.13Zm14.37-140.23h-11v-7.32h11ZM748,683.3c5.51.31,12.43-.44,10.8,7.19A10,10,0,0,1,748,683.3ZM755.21,1363c6.74.75,7.93-4.06,14.37-3.57-.57,4.18.62,10.18-3.57,10.75C765.83,1364.18,755.78,1368.23,755.21,1363Zm18,708.47c7.63,13.22-18.29,16.18-14.37,3.61C759.4,2069.65,767.51,2071.94,773.19,2071.46ZM766,97v10.76C755.52,113.16,755.52,91.83,766,97Zm3.57,21.56h-7.19c-5.68-8.82,12.13-10.67,10.8-3.61-2.24.31-4.18.75-3.61,3.74ZM784,830.72c2.08,8.81-23.71,17.63-21.6,3.61C762.83,826.4,777.82,832.83,784,830.72Zm-18,266.13c1.5,6.17,4.63-.7,10.8,0C782.94,1111.71,750.14,1102.1,766,1096.85Zm0,25.17c1.5,6.18,4.63-.75,10.8,0C782.94,1136.88,750.14,1127.14,766,1122ZM766,1586c10.18-3,9.3,5.12,18,3.62-7.8,10.45,6.44,20.63-7.18,25.17C778.75,1602.14,763.58,1606.64,766,1586Zm21.56-704.85c-5.56,5.55-24.69,6.43-21.56-7.19C775.44,873.92,787.12,871.94,787.57,881.11ZM766,906.28c9.43-7.5,25.17-9.48,25.17,7.18C784.7,919.46,764.6,918.71,766,906.28Zm10.76-89.89H766v-10.8h10.76Zm0-104.35c11.24,1.81,14.06-7.76,21.56,0V723C787.43,723,774.69,725,776.81,712Zm3.57-187v7.19c-3.57,0-4.41,2.86-7.19,3.61C773.41,530.15,772.75,523.41,780.38,525ZM794.75,1176c1.19,13.23,12.17,16.62,10.8,32.4h-18c2.86-14.85-13.23-11-10.76-25.21,2.69-.75,4.41-3,3.57-7.19Zm-7.18,381.2c0-6-10-2.08-10.76-7.15C784.13,1546.86,799.12,1553.16,787.57,1557.18Zm3.48-913.55v10.8h-7.19c0-3.62-3-4.41-3.61-7.19C784.88,647.15,785.32,642.7,791.05,643.63Zm0,1129.25c1.5,6.17,4.63-.75,10.8,0v10.8c-6.39,1-21.16-6.61-10.8-10.71ZM787.43,359.55c4.41,0,4.94-4.67,10.8-3.62v10.8h-7.18c0-3.48-2.87-4.27-3.48-7.09Zm0,773.19c5.69.3,12.43-.44,10.8,7.18a9.72,9.72,0,0,1-10.66-7ZM809,1528.35c1.64,15-12.74,9.25-18,3.57,8.51-4.54,6.7.57,18.12-3.49Zm-10.8-39.68c11.38,2.12,11.11-6.7,18,0,3.57,13.23-20,7.8-17.85.18Zm-10.8-25.17c11.24-6.13,19.05-7.76,28.79,0,.75,6.74-4.06,7.93-3.61,14.41-13.19.31-24.56-1.5-25-14.32ZM809,1010.36c-.3-1.32-6.78,11.42-7.18,10.8-5.42-5.38,5.64-20.46,7.32-10.62Zm7.19,212.22c-9.92.31-7.36-6-14.37,0-5.42-10.62,20.06-10.62,14.5.18ZM801.85,737c7.18-7.5,15.25,0,18,7.23-5.29,5.86-20.41,5.38-17.85-7ZM809,1305.28h-7.18v-7H809Zm18.12,881.28h-21.6C788.31,2144,863,2151.3,827.15,2186.56ZM805.55,1755c6.75,1.64,21.6-5,18,7.15C814.54,1762.61,806,1762.78,805.55,1755Zm10.8-241h-7.18v-7.14h7.18Zm-7.18-575.39c15.43.58,13.62-8.37,35.93-7.18C843.33,948.55,818.91,940.44,809.17,938.63Zm3.61,859.64h17.94c6.13,17.11-22.92,12.92-17.94-.13ZM823.54,1320a7.66,7.66,0,1,1,0,14.37c-6-7.4.31-4.76,0-14.5Zm0,356c6.74.8,7.93-4,14.37-3.57v10.8c-6.75-.61-12-2.55-14.37-7.36Zm3.61-305.68c0,2.25.44,4.41,3.57,3.62v7.19c-8.81,5.42-10.62-12.44-3.57-10.94ZM841.52,287.69c-4.93,1.19-6.92,5.12-14.37,3.62C824.42,279,840.77,277.2,841.52,287.69Zm10.8,953.05c-12-6.92-11.72-5.11-25.17-7.18v-14.42c4.63-4.94,15.56-3.61,25.17-3.61C857.17,1220.33,857.17,1235.94,852.32,1240.74ZM830.72,1212c0-4.81-6.3-3.31-7.18-7.19,7.05-6.75,6.13-12.61,3.61-21.6,15.87-5.12,0,21.6,10.76,21.6-2.69-13.49,4.06-17.63,14.41-18C860.7,1198.77,839.28,1205.65,830.72,1212Zm7.19-636.53h-7.19V568.2h7.19Zm-7.19-179.82h10.8c.89,9.43,1.19,17.94-10.8,14.37Zm75.52,658c-20.37,13-34.3.44-50.21,0,0,1.19-27.11,18.69-21.69,0,2.25-7.37,16.75-2.43,17.94-10.8-5.07-4.68-2.2-16.93-7.18-21.61C877.5,1006.79,914.48,1017.32,906.24,1053.61Zm-71.9,395.56c-1.06-8.24.88-13.49,7.18-14.37,1.06,4.8,5.12,6.88,3.62,14.37ZM855.9,2413c-8.82.44-17.37.61-21.56-3.57-.18-16.67,26.8-19.09,21.56,3.7Zm-21.56-877.27c4.63-4.94,15.56-3.62,25.17-3.62,5.86,23.63-25.79,20.72-25.17,3.53Zm3.57-165.45c-4.19-16.18,20.1-3.88,14.37-21.56,13.8-1.8,19,4.94,21.6,14.37-18-4.14-19.31,21.17-36,7.1Zm0-262.52h7.19v7.19h-7.19ZM845.1,71.94V82.7C834.6,88.17,834.6,66.65,845.1,71.94Zm14.41,474.7c5.07,13.8-18,2.56-10.8-3.61C851.84,540.34,858.94,545.27,859.51,546.64Zm-10.8-61.14V471.12q16.85-2.5,14.37,14.38Zm136.66,845.13c1.06-5.82-3.44-6.13-3.61-10.8,22.92-5.82,35.53-22,43.15-43.16,13.23-3.44,3,16.18,14.42,14.42-19.35,8.37-8.24,46.86-36,46.72-1.63,5.87,13.22,12,14.37,3.62,5.24,3,7.67,8.82,7.18,18,2.56,9.69-16.92-2.56-14.37,7.18-.44,12.43,18.74,5.25,21.56,14.37-9.26,9.61.79,20.37,14.41,18,5.51,12.74-12.29,2.12-10.8,10.8-4.8,19.18,19.18,9.61,14.42,28.74,9.87-6.26,8.07-26.45,0-36,15.56,2.73,22.61,16.22,39.67,10.8-2.11-7.45-5.68-7.63-10.8-3.57,11.11-14.55,25.35-39.28,46.73-32.36,10.23,5.51,1.24,9.88,14.42,14.33,3.13-15.69,2.56-29.49,28.79-28.74,9.56,7.18,15.87,17.63,32.35,18v18c-31.16-11.42-44.52,21.25-54,43.16-37.78-19.22-90.19-27.11-82.7,25.17,1.94,14.06,24.73,16.62,21.56,32.36,18,3.61,17.37-11.24,28.79-14.37,29.8,36.41,92.13,4.62,68.33-39.68,4.41-9.74,18.73,0,25.17,0-1.19-14.42,6.44-20,3.57-36,53.39,41.22,88.74-70.27,10.8-54-6.61-7.8-11.06-17.63-18-25.17-24.68,1.94-16.62-28.92-39.67-28.79,4.41,15.74,10.31,22.79,7.18,39.68-11.37-8.82-12.87-27.87-21.6-39.68,8-1.5,8-4.63,0-14.37,9.48.92,11.86,7.36,10.8-7.19,7.5,2.12,10.19,8.82,21.6,7.19,1.5-11.55,6.88-19.49,7.19-32.36,33.55,5.86,52.9,26.45,89.89,28.74-21.43-20.5-60.53-23.36-82.7-43.11,4-2.73,19-22,3.61-21.6,8.2-11.68,18.56,1.06,28.74-7.19-.88-6.3-6.12-8.24-14.37-7.18,14.55-6.92,44.35,1.19,36-28.79a129.68,129.68,0,0,1,28.75-21.6c1.67-11.24-9.13-12.87-14.37-7.14-3.31-9.3-1.81-13.23,0-25.22a9.84,9.84,0,0,0-7.19,10.8c-3.44-2.11-5.55-10-7.19-3.61-3.92-2.25-1.94-21.43,3.58-32.36q-4.68-8.07-17.95-7.14c-6.74-.62-2.29-12.17-7.23-14.42,8.25-7.62,12.74,1.63,25.18-3.61,6.61.62,2.24,12.17,7.23,14.41,16.75,0,29.18-4.41,28.74-21.6-17.37-7-31.3,8.82-39.68-10.75-18.91,17.23-34.65-17-46.77,7.18-19.44-10.67-17.06-42.89-35.93-54,5.82-8.81,9.13-17.63,3.57-28.78h-18c-6.13,35.84-43,40.91-71.91,54-5.29-8.11-9.74-16.62-14.41-25.17-13.23-1.94-33.11,13.93-28.74-10.8-9.61,0-21.3-1.94-21.6,7.19,0,21.6,34.91,8.24,32.4,32.36-.93,5.29-10.8,1.23-10.8,7.23-7.81.61-1.63-12.75-3.62-18h-14.37c2.56,10.93-3.75,13-3.61,21.56,20.23-6.57,15.91,21.6,14.37,36-11.51-6.44-9.13-16-7.19-28.74-7.8-9.31-20.06,3-25.17-3.62-.88,5.25-10.76,1.19-10.76,7.19-7.23-6.92-22.48-24.56-32.35-7.19-19.36,2.56-15.79-17.63-32.41-18,5.69,7.32,3.31,23.06,14.37,25.18-19.88,23.23,3,53.78,32.36,50.34,4.41,11.68-11.64,2.69-7.14,14.37,11.2,1.68,14.06-5.07,21.56-7.18-18.43,22.66-40.6,11.11-72,10.8-1.45,6.87-10.31,6.43-7.18,18-25,0-21.25,11.38-35.93,7.19,5.82,16.93,13,16.35,3.57,36,6.13,1.32,6.74-2.86,7.19-7.18,10,4.62,4.4,31.91-10.76,32.35a9.89,9.89,0,0,0,7.18,10.8c-9.61,8.38-22.79,13.23-21.6,32.36,20.37,4.81,17.86-13.22,28.79-18,2.69,14.68-11.68,12.44-7.19,28.79h28.75V1291c4.41,4.19,12.74,4,21.6,3.57,4.41-17.23-.93-26.45,10.75-39.67,9.62-2.12,22.49,10.62,28.79,0,4.41.62,3,6.57,3.57,10.8,12.92-5.29,22.49-8,36-3.62.49,21-16.31,24.43-32.35,28.79,0,9.57-2.07,21.12,7.18,21.56-1,3.17-9.74,15.74-10.8,7.18C963.33,1322.12,974,1335.74,985.37,1330.63ZM913.43,1168.8c-13.45,1.5-21.12-2.82-21.56-14.42C903.86,1154.25,915.85,1154.38,913.43,1168.8Zm3.61,57.53c-1.06-8.25.93-13.49,7.19-14.37C925.28,1220.2,923.3,1225.53,917,1226.33Zm316.48-71.95a17.68,17.68,0,0,1,21.56,0,10.89,10.89,0,0,1-21.56,0Zm-136.66-64.67c10.93-4.67,31.3-4.67,32.36,10.76C1120.22,1105.54,1102.24,1105,1096.86,1089.71Zm-21.56,222.93c0-11.81,10.18-13.8,21.56-14.37C1095.93,1309.29,1084.12,1309.51,1075.3,1312.64Zm3.57-251.72c7.06,8.82,15.43,15.87,0,21.56C1082.8,1073.18,1067.94,1065.38,1078.87,1060.92Zm-79.13,10.76c4.41,0,4.94-4.41,10.8-3.57C1015.88,1076.93,998.24,1078.73,999.74,1071.68Zm3.62,28.79c0,1.94-3,4-3.62,0,7.36-3.49,14.24-7.37,21.6-10.76a20.24,20.24,0,0,1-3.61,14.33C1010.85,1104.83,1009.79,1100,1003.36,1100.47ZM855.9,1701.07h7.18v7.18H855.9ZM863.08,838H855.9v-7.19h7.18Zm18,122.24a16.51,16.51,0,0,0,3.61,10.8c-6.74,7.06-13.22,1.06-21.6,0C861.58,959.8,870.75,959.44,881.07,960.19ZM877.5,1992.33H863.08C862.33,1980.51,879.88,1978.09,877.5,1992.33Zm0-927.84c1.63,15-12.74,9.31-18,3.62A23.24,23.24,0,0,1,877.5,1064.49Zm-3.62,201.42c0,4.41,4.41,4.94,3.62,10.76h-7.1C866.26,1271.42,866.39,1267.85,873.88,1265.91ZM888,931.45c3.93,11.24,1.63,9.43-3.57,17.94-6.92.79-7.93-4-14.41-3.57C867.75,932.51,876,930.17,888,931.45Zm39.68,183.39c-25.66,16.49-62.78,3.92-57.31-21.6C875.69,1066.43,938.6,1064.67,927.71,1114.84ZM884.55,1377.4a20.23,20.23,0,0,1-3.61,14.33c-8.38-1.15-15.57-3.7-18-10.76,4.32-4.19,12.87-4,21.73-3.57Zm-3.61-510.71h-7.19v-7.05h7.19Zm-3.58,456.75c-1.49-13.49,16.36-18.6,25.18-10.8-2.12,15.61-12.17,12.88-25,10.8ZM888,341.65h-7.18v-7.19H888Zm-3.57-212.18c4.41,0,4.94-4.62,10.8-3.61v10.8H888c0-3.61-2.73-4.41-3.35-7.19Zm14.59,1535.58H888.3v-7.14h10.75Zm-10.8-859.64c6.75.75,7.94-4.1,14.42-3.61,5.69,10.23-15.61,10.05-14.64,3.79Zm18,1247.89c1.5,13.49-10.76,11.11-14.37,3.61,6.74.93,7.93-3.88,14.37-3.44Zm3.61-1035.71c-14.23,2.25-19-15.92-14.37-21.6h10.76c3.83,4.36,3.83,12.91,3.61,21.78Zm-7.18,611.35h-7.19v-7.18h7.19Zm10.76-194.18c1.36,16.48-15.26,8.24-17.95,0Zm-14.38-75.52q-3.34-32,28.79-28.79a96.74,96.74,0,0,0,0,36c-11.11,5.55-19.79-.89-28.79-7ZM902.67,417h7.18c0,3.61,2.87,4.41,3.62,7.19-5.73-.09-12.48.61-10.8-7Zm3.57,456.75c12.61-18.73,62-15.91,50.39,21.56v7.19c-3.62,0-4.41,2.86-7.23,3.57v-2.43c-17.28,12.83-51.36,3-43.16-29.71Zm0-161.87V697.5c19.79-7.19,36.72,1.8,32.36,28.78C928,721.52,920.21,713.72,906.24,712Zm7.19,704.9v10.76C903,1433,903,1411.7,913.43,1417Zm10.8,406.36c-10.63-5.37-13.23,4.06-18-7.18,9.43-4.41,11.11-3.13,7.19-14.37,8.81-.62,17.41-.75,18,7.18-6.31,1.06-8.16,6.31-7.23,14.55Zm89.93-899c21.42,4.63,18.25,39.1,28.74,14.37,4.41,16.35-16.31,35.66-21.56,54-22.92,3.74-28.48-9.92-43.16-14.42-3.87,22-43.15,21.43-61.14,18,6.44-13.93-7.94-24.42-3.61-46.78,7.05-17.94,46-18.11,61.14-7.18,13.93-17.37,19.26-22.13,39.59-17.77ZM913.43,1406.28h7.22v7.18h-7.22Zm0-21.56a20,20,0,0,0,14.41-3.61c1.5,13.35-10.8,11-14.41,3.48Zm10.8,798.36H917v-7.19h7.19ZM917,827.32h7.19v7.14H917Zm7.19,481.84a19.66,19.66,0,0,1,3.61-14.37,19.66,19.66,0,0,1,14.37,3.61c-1.63,12.44-7.62,15.3-18,10.63Zm0-453.14V841.65H935c1.05,9.17-1.37,15.3-10.8,14.24Zm0-334.42v-7.18c6.61-12.13,17.54,10.62,0,7.05Zm3.48,255.2h10.75v10.8H927.71Zm-3.62,870.31a23.24,23.24,0,0,1,18-3.62v10.8c-6.3-1.94-14.86-1.8-17.85-7.18Zm10.8,136.66h7.19V1791h-7.19Zm14.38-953c5.11,13.53-17.95,2.55-10.81-3.57,3.31-2.78,10.36,2.24,10.94,3.57Zm14.41,1154.47c-1.67,21.38-15.16,8.81-32.36,14.32,4.76-10.93,16.14-15,32.49-14.32Zm-17.85-578.91a23.15,23.15,0,0,1-3.62-18h14.42C957.33,1398.52,957.07,1407.78,945.83,1406.28Zm-3.62-1133v-7.19C948.82,254.14,959.76,276.94,942.21,273.32Zm0-93.46h7.19v7.19h-7.19Zm3.62,118.68c-2.74-12.3,13.62-14.07,14.37-3.62-7.36,1.94-7.06,10.76-14.37,3.57Zm3.57-143.85v7.19c-3.57,0-4.41,2.86-7.19,3.57.31-5.73-.44-12.48,7.19-10.8Zm10.8,2211.73c3.61,12-5.07,11.82-14.37,10.81-1.24-9.53,7.45-9.39,14.37-10.85ZM945.83,384.85H953V392h-7.18Zm14.37,985.37c3.44-19.31-11.38-3.57-14.37-25.18h18c-2.11,7.45,4.32,23.63-3.61,25.13ZM953,320.05h10.8a13.25,13.25,0,0,1,0,18C952.57,339.71,952.26,330.63,953,320.05ZM960.2,1427.7H953v-7.14h7.19ZM953,1291v-25.17c11.68-.93,17.24,4.19,17.94,14.37-16.31-6.7-4.89,14.28-17.94,10.85Zm10.8-694.1v7.19h-7.18v-7.19ZM960.2,417.12h7.18v7.19H960.2Zm14.37,597c2.42,8.24-14.06,7.8-10.76,0,1.19-2.78,9.57-4.28,10.76,0ZM989,1758.6c6.31,16-19,12.87-18,3.57C981.18,1765.21,980.3,1757.1,989,1758.6Zm-10.8-927.88v7.18c-3.61,0-4.4,2.87-7.23,3.62C971.26,835.83,970.51,829.09,978.18,830.72Zm25.18,557.48c-7.5,14.07-12.74,30.38-25.18,39.68-5.55-10.19,7.63-16.62,0-32.36C993.31,1399.71,993.83,1389.53,1003.36,1388.2Zm-18,122.25c-3.61,0-4.41,2.86-7.19,3.57,0-3.57-3-4.41-3.61-7.14,3.61,0,4.41-3.05,7.19-3.62C981.76,1506.88,984.62,1507.67,985.37,1510.45Zm7.19-240.83c0,4.41,4.67,4.93,3.61,10.75-11.37,4-8.24.27-21.6,0C976.2,1264.24,982.06,1274.91,992.56,1269.62Zm-10.8,208.56c12.29-8.55,32.09-9.61,32.4,10.75-7.67,11-36.73,10.45-32.4-10.84Zm3.61-467.56c0,2.3.44,4.41,3.61,3.62.58-4.41-.61-10.18,3.58-10.8-2.25,12.91,10.93,10.62,10.8,21.6-11.69,3.17-27.42-19.93-18-14.5Zm25.17,374.06c-13.49.26-29,2.68-25.17-14.42,14.86-4.14,23.23-2.16,25.17,14.33ZM985.37,269.79c-3.13-13.62,16-12.69,21.56-7.18-2.21,14.59-9.88,7.1-21.56,7.1Zm21.69,765.92c4.06,11.24-5.64,8.81-7.19,14.41-2.2-4.93-13.93-.61-14.37-7.18C995.55,1043.55,992.42,1030.77,1007.06,1035.71Zm0,420.78c-8.82.48-17.63.62-17.94-7.19C995.69,1451,1010.54,1444.37,1007.06,1456.49Zm-7.19,54c0,9.56,2,21.11-7.18,21.55-.88-10.31.79-18.25,7-21.55Zm0-845.14h7.19v7.19h-7.19Zm10.8,665.32h-7.18v-7.19h7.18Zm-3.61-1010.58c-16.62-.27-14.2-38.79,0-39.68C1014.42,289.68,1024.69,315.24,1007.06,320.05Zm10.8,1373.79c5.25,3.17,11.42,5.42,10.8,14.41-2.86.75-4.41,3-3.61,7.19h-18c-.88-2.87,0-7.06-3.57-7.19a13.55,13.55,0,0,1,14.24-14.41Zm7.23-21.56c3.44,13.22-20.1,7.63-18,0,8.82-.44,11-6.75,17.9,0Zm0,269.7c3.61,12.17-11.24,5.56-18,7.19-.75-10.49,14.37-10.93,17.59-7.19Zm-10.76-507h-7.27v-7.19h7.19Zm7.19-557.44h-14.46c0-10.93,3.31-18.3,10.8-21.6-2.82,10.89,6,10.45,3.48,21.51Zm7.14-118.85c1.37-8.82-22.48-10.63-10.8-18,0,2.25.44,4.41,3.61,3.62-3.17-11.55,5.56-11.24,10.76-14.37,4.67,5.33,7.23,28.52-3.7,28.83Zm3.57-618.59c-.88-2.82-3-4.19-7.18-3.57a10.18,10.18,0,0,1-7.19,10.8c-8.38-16.26,27.6-17.76,14.24-7.14Zm-7.54,1316.35c0,4.67,4.68,4.94,3.62,10.8h-7.19C1017.29,1462,1017.42,1458.47,1024.69,1456.49Zm50.61-647.33c2.07,9.3-1.54,12.87-10.8,10.8,1.06-14.68,12-14.24-3.61-21.6,2.24,30.86-29.36,33.28-50.35,21.6,3.75-28.48,32.54-32.22,36-61.14,13.49-2.74,7.81,13.79,18,14.37C1092.67,720.15,1146.14,821.46,1075.3,809.16Zm-39.67,676.12h-7.19v-7.19h7.27Zm-3.58,597c-7.49-10.18-2.42-31.61,3.58-39.68.57,11.38,11.1,35.18-3.49,39.68Zm7.19-57.57H1032v-7.15h7.23Zm21.56,68.37c-.88,6.7,4,7.94,3.61,14.37-24.68,16.31-41.22-19.44-3.52-14.37Zm-21.56-1399c5.25,1.94,18.56-4.41,18,3.57-4.59,5-17.64,5.56-17.9-3.57Zm7.19-366.82v10.8c-10.41,5.2-10.41-16.05.08-10.8Zm7.18,1355.8c-1.06,9.43,10.49,13.62,3.62,25.17,6.26.75,18-3.61,14.37,7.19-11.68,7.93-37.34-1.06-39.68-14.42,3.35-10,21.16-5.38,21.78-17.94Zm-10.8-780.29v-7.18c6.7-12.12,17.64,10.67.09,7Zm0-36H1050v7.23h-7.23ZM1068,1970.9c-4.41,4.19-12.74,4-21.55,3.62a17,17,0,0,0-3.62-10.85c10.89-6.34,24.38-10.75,25.26,7.1Zm-21.55-420.78c.3-9.12,11.94-7.18,21.55-7.18-.88,6.74,4.06,7.93,3.62,14.37-5.64,5.11-28.52,7.23-25.09-7.32Zm36-579c-8.82,3-11.42,12.61-18,18-.75-10.18-17.1-4.41-14.37-18,22.48,2.56-.79-18.29,14.37-21.6,27.29-7.31,3.79-109.37,79.13-53.91-1,30.42-4.41,44.08,7.19,64.71-8.55,8.82-8.11-4-14.42-7.18-15.56,12-14.81-17.11-36-10.8-6.26,9.48-17.63,15.91-25.13,14.41,6.79.44,2.38,12,7.28,14.24Zm-21.6-233.64c0-6-10-1.9-10.76-7.14,6.7.7,7.94-4.1,14.37-3.62-.53,3.93.66,9.92-3.52,10.5Zm18,1657.91c-6.43-1.94-15-1.77-18-7.19,5.51-5.95,20.63-5.51,18.07,6.92ZM1075.21,1633c-2.29,0-4.41-.58-3.61-3.57,18.12-14.11,11.37-25.79,7.18-50.35,14.11-1.5,34.79-12.12,14.38-18,6.78.75,8-4,14.41-3.62,4.41,14.11,24-.26,32.36,14.42,5.38,25.17-18.87,29.66-10.8,46.73-16.18-2.25-45.72,7.22-50.35,18-.22-2.51-.53-4.45-3.48-3.88Zm7.28-1525.09c-13.93-4.8-12.3-26.93-3.62-35.93h14.37C1096.29,85.88,1099.64,105.8,1082.49,107.87ZM1075.3,507c3.57,0,4.15-2.87,7.19-3.62C1092.19,509.35,1077.2,515.47,1075.3,507Zm14.37-266.14c-4.05-5.25-3.92-8.82,3.57-10.8,0,4.41,4.68,4.94,3.62,10.8Zm0,586.32V812.78h10.76C1101.49,822.21,1099.11,828.2,1089.67,827.15ZM1122,1701c11.37-19,41-6.13,46.77,10.8-11.41-.57-7,14.55-14.41,18H1125.6c-5.64-19.62-30.86-23.19-43.11-18C1089.23,1700.58,1108.72,1695.38,1122,1701ZM1093.24,356c-7.18-18.29,15.12-16.75,21.6-10.8C1116.92,358.14,1104,356.2,1093.24,356Zm0,600.6c4.81-5.11,20.41-5.11,25.18,0-4.77,10.8-8.82,22-21.56,25.17C1099,970.11,1094.3,965,1093.24,956.62ZM1104,661.74c-1.19-5-5.07-6.92-3.61-14.41C1112.86,644.64,1114.4,661.26,1104,661.74Zm0-68.37a17.68,17.68,0,0,1,0-21.56c12.74-.88,18.74,5.07,18,18A23.26,23.26,0,0,1,1104,593.37Zm18,402.93c-7.36,6.3-7-2.69-14.37,3.61C1101.8,989.73,1123.09,989.9,1122,996.3Zm-3.61,424.39h-7.19v-7.36h7.19ZM1140,1949.3c2.07,12.92-10.67,11-21.6,10.8-1.94-16.62,12.07-14.63,21.6-10.93Zm-10.8-1100.42h-10.8v-10.8h7.18c.18,4.5,4.67,4.8,3.62,10.67Zm0-46.77h-10.76v-7.19h10.76Zm3.61,179.82h-7.18V974.7h7.18ZM1158,2247.8c-14.85-.75-31.61.48-32.4-14.38,16.22-.7,32.84-1.94,32.4,14.24ZM1129.22,496.43c1.49,6.13,4.67-.75,10.8,0,6.12,14.68-26.67,4.94-10.8-.13Zm14.5,132.91c-7.32,1.94-7,10.8-14.37,3.62C1126.53,620.66,1142.84,618.89,1143.72,629.34Zm10.8,1176c-6.88,5.07-25.61-1.06-25.17-14.42,13.05,0,27.59-1.14,25,14.42Zm-10.8-64.76c1.06,4.8,5.11,6.88,3.61,14.37H1133C1131.77,1745.72,1134.15,1739.55,1143.72,1740.61Zm0-323.66c-1-7.37-13.45-3.44-14.37-10.81a23.25,23.25,0,0,1,18-3.61C1142.57,1411.52,1149,1413.77,1143.72,1417Zm-3.57,507h18c6,17.37-23.23,13.14-18.11.13Zm39.67-158.26c1.68,13,9.17,17.37,3.62,28.79h-14.37c-6.31-2.3.26-17.11-7.23-18-.44,7.93-15.26,1.5-21.56,3.61a17.42,17.42,0,0,0-3.61-10.8c16.22-21.29,30.63,13,42.89-3.48ZM1140.15,172.5c.44-10.36-1.94-23.54,3.57-28.79h10.8c-.57,14.07,4.23,33.29-14.5,28.92Zm18,305.68c6.26,16-19,12.87-18,3.61,10,3.13,9.17-5,17.85-3.48Zm0,338.08c1.81,14.94-4.4,22-14.41,25.13a16,16,0,0,1,14.28-25Zm7.19,751.58c-8.82,7.5-7.63,5.12-21.6,3.62v-18c8.42-4.67,6.61.44,18-3.61-1.59,8.82,6.48,7.93,3.48,18.12Zm-18-1233.51c6.31-3.3,4.41-14.55,18-10.8,4.23,17.81-13,21.56-18.12,10.93Zm25,1507c4.41,14.1-8.5,10.62-18,10.8C1152.54,1840.86,1162.06,1840.55,1172.37,1841.3ZM1158,956.62c-2.69-12.3,13.62-14.11,14.37-3.61C1167.44,954.06,1165.5,958.12,1158,956.62Zm0-316.48V626a19.87,19.87,0,0,1,14.37,3.57C1173.43,638.78,1167.44,641.16,1158,640.14Zm10.8-107.91c-4.8,4.67-13.49,4.84-14.41-3.58C1159.19,524,1167.75,523.85,1168.8,532.23Zm-3.61,392a13.25,13.25,0,0,1,0,18C1148.39,942.07,1148.39,924.26,1165.19,924.26Zm0-780.28H1176a13.19,13.19,0,0,1,0,18c-11.24,1.55-11.55-7.67-10.8-18.11Zm14.37,1399c-10.62-5.38-13.23,4-18-7.19,12.3-2.11,18.92-9.87,32.41-10.8C1201.6,1543.25,1175.68,1528.13,1179.56,1542.94Zm-10.76-154.61a23.15,23.15,0,0,1,18-3.61c5.46,10.62-18.56,9.3-18,3.48ZM1176,597.12h-7.23v-7.19H1176Zm-3.62,313h10.8v10.8h-10.8Zm10.8-647.59H1176c0-3.62-3-4.41-3.62-7.19,4.41,0,5-4.62,10.8-3.57Zm0,435.15c-2.24,0-4.4.62-3.61,3.62h18v14.37H1176C1174.58,708.16,1175.37,684.49,1183.17,697.67Zm21.56,1470.91c-3.13,7.8-13.22,8.37-25.17,7.18C1174.05,2156.45,1201,2159,1204.73,2168.58Zm-3.57-136.66a17.46,17.46,0,0,1-3.61,10.8c-11.38-4.06-9.57,1-18-3.62-3.13-13.62,16-12.74,21.47-7.18ZM1179.56,870.3h18C1200.41,885.43,1178.24,882.6,1179.56,870.3Zm10.8-463.93v10.8h-7.19c0-3.62-3-4.41-3.61-7.19C1184.06,410,1184.54,405.57,1190.36,406.37ZM1201,841.52v10.8c-62.69-32.8-14.24-30.51-18-54,27.11-.71,22.49-6.88,50.35-3.57,9.61,9.57-4.68,13.62-7.19,21.6C1238.32,831,1221.66,847.69,1201,841.52Zm-17.86-614.93c6.26.71,18-3.61,14.38,7.14C1190.8,233.29,1185.56,231.35,1183.17,226.59Zm14.38,1348.57c6.17,14.86-26.67,5.12-10.8,0C1188.29,1581.29,1191.42,1574.46,1197.55,1575.16Zm0-1093.28c0,3.57,2.86,4.41,3.61,7.14-5.73-.26-12.43.49-10.8-7.14ZM1190.36,284V269.71c22.62-6.13,21.29,19.17,0,14.37ZM1194,1312.6c-2.12-10.8,15.12-20.37,21.55-10.8-4.41.75-2.25,4,0,7.18-4.32,4.28-12.74,4.1-21.55,3.66Zm14.37,996.3v10.8c-10.63-5.38-13.23,4.05-18-7.19a23.25,23.25,0,0,1,18-3.7ZM1197.55,910h7.18v7h-7.18Zm7.23-766.13c3-10.19-5.12-9.26-3.62-18,7.5-6.26,10.63-8.11,21.56-3.57C1223.51,136.22,1221.22,147.15,1204.78,143.85ZM1201,1539.23a9.9,9.9,0,0,1,7.18-10.8c0,3.57,2.87,4.41,3.62,7.19C1207.29,1535.75,1207,1540.25,1201,1539.23Zm3.57-1096.89c1.5,6.13,4.41-.75,10.8,0,6.26,14.85-26.54,5.11-10.67,0Zm75.78,1140c-24.86-6.57-25.17,22.48-57.53,18-.26,5.69.44,12.39-7.19,10.76-7.93-10.5-21.73-36.86-7.18-57.53a10.06,10.06,0,0,1-10.8-7.23c9.3-8.82,22-.71,25.17,7.23-1.63-10.06,19.66,2.82,18-7.23-8.82.48-17.64.61-18-7.15,17.63,2.08,19.66-11.55,25.17-21.6a99.13,99.13,0,0,1,43.16,0C1289.2,1543.86,1270.68,1554.49,1280.38,1582.35ZM1204.86,1816h7.23v7.14h-7.23Zm25.18,53.92c-25.75,4-28.75-14.42-28.75-36,27.11-7,37.34,18.91,28.61,36.14ZM1208.48,557.22c-15-4.41-16.18-43.42,7.18-39.67,8.56,9.3,9.92,37.47-7.31,39.85Zm3.57,1186.83c.48-6.61,12.17-2.29,14.42-7.23,4.93,4.67,5.55,17.63-3.62,18,1.23-8.5-16.62,2.12-10.93-10.58Zm14.42-291.35c-.62,4.41.57,10.22-3.62,10.8,0-6-10-1.9-10.8-7.19,6.61.93,7.85-3.88,14.28-3.44Zm-10.81-823.53c-7.93-7.5,1.81-10.32,0-21.56H1230c1.23,13.62-3,21.29-14.51,21.73Zm10.67,1147.41h-10.8v-7.18h10.8Zm-3.61-1057.31c-13.23-5.86-23.68-14.85-25.17-32.4,20.1-7.62,36.59-13,57.31-7.18C1247,695.6,1242.38,714.91,1222.72,719.27Zm-3.57,323.67c6.74.75,7.93-4.06,14.37-3.62C1239.21,1049.2,1217.91,1049.2,1219.15,1042.94Zm7.18-748.06h-7.18v-7.14h7.18Zm-7.18-222.94c6.26.71,18-3.61,14.37,7.15C1226.77,78.69,1221.53,76.71,1219.15,71.94Zm18,1406.28c5.69,10-15.6,9.88-14.41,3.57,4.76-1.32,6.92-5.24,14.41-3.7Zm0-852.23c3.13,6.26,14.51,4.63,10.76,17.94-8.38,1.06-14.81,7.06-21.56,0C1224.53,632.47,1230.83,629.08,1237.13,626Zm-3.61,330.85h-7.19v-7.18h7.19ZM1229.9,1784h7.19v7.18h-7.19ZM1237.13,867a24,24,0,0,1,3.57,18c-20.23,5.47-23.23-21.29-3.57-18.34Zm-3.61-561c-3.13-13.62,16-12.74,21.56-7.19,3,13.27-16.18,12.39-21.56,6.84Zm18,1014.15c-4.4,4.41-13.66,1.5-18-3.57,11.24,1.5,14.68-8.9,18,3.22Zm18-507c-2.42,13.22-21.42,12.12-32.36,7.18-4.41-16.35,9.88-14.11,7.19-28.74,10.8,4.32,24.86,5.64,25.17,21.12Zm-18,172.58v10.5h-10.8c-.75-7.94,2.87-11.51,10.8-10.94Zm7.19,748.06c3.44,14.55-21.56,14.55-18,0Zm3.62-784c.88,5.12,7.75,4.06,10.75,7.23,1.24,20.85-22.75,25.79-35.93,21.56,11.07-7.32,8.51-27.86,25.18-29.23Zm7.18,513.76a17.4,17.4,0,0,1-3.61,10.8c-15.43-9.44-9.75,4.8-21.56,7.18-3-10.14,5.07-9.3,3.57-18C1260.32,1466.54,1263,1457,1269.49,1463.59ZM1258.69,723h-14.37c-1.06-9.44,1.32-15.43,10.76-14.38C1256.13,713.28,1260.19,715.35,1258.69,723Zm-14.37-478.31a9.74,9.74,0,0,1,7.18-11c5.07,5.34,5.25,14-7.18,10.89Zm14.37,1643.53V1899c-6.74-.48-12-2.42-14.37-7.23,6.74.62,7.93-4.14,14.37-3.7Zm-10.8-1280.28c13.49,2.07,21.6,9.56,28.79,18-10.36-4.8-32.36,7.06-28.79-18.12Zm36,589.8c3.88,16-30.11,12.69-36,7.18,17.1.62,18.43-18.43,36-7.32Zm-21.55-640.19c1,8.29-.93,13.53-7.19,14.41-5.6-5.51-4.06-16.17,7.19-14.54Zm-7.23-291.26h14.41c5.69,16.62-18.6,12.3-14.41-.14Zm0,1568h18c3.44,14.38-21.56,14.38-18-.13Zm0-133.09a23.62,23.62,0,0,1,18-3.57c6.31,15.92-19.13,12.88-18,3.44Zm7.23,25.18c-2.56-9.7,7.31-6.88,10.75-10.76,2.12,9.13-1.5,12.74-10.75,10.62Zm7.18-1010.54c5.07,5.25,5.25,13.93-7.18,10.8a9.88,9.88,0,0,1,7.18-10.93Zm10.89,517.77v14.32h-18C1262.75,1237.7,1268.57,1232.63,1280.38,1233.56Zm3.48,133c-6.74-.44-12-2.42-14.37-7.18C1276,1360.12,1287.48,1355.8,1283.86,1366.6Zm3.62,751.63c-4.68,4.94-21.6,6.26-21.6-3.61C1270.55,2109.68,1287.3,2108.31,1287.48,2118.23Zm0-1039.32c11.24-.62,12.25,9.13,14.37,17.94-21-2.38,2.69,26.23-25.17,21.6C1265,1090.72,1288.8,1101.7,1287.48,1078.91ZM1298,129.47c-13.22,47.75-34.16,18.87-21.55-14.41,18.29,5.86,22-3.4,32.35,0C1314.72,129.17,1299.6,122.55,1298,129.47Zm18,1654.3c-9.57-12.48-42.41,8.81-39.68-21.6,10.94,2.55,10.5-6.13,21.56-3.57a24.49,24.49,0,0,0,7.23,10.8c.57-4.19,5.69-3.93,10.76-3.62.75-6.43-3.57-18,7.18-14.41,3.31,8.81,14.42,9.61,10.8,25.21-13.44-1.36-13.79-5.11-17.63,7.19Zm-14.37-629.39c-.75,10-6.31,15.34-18,14.42-.31-4.68-4.41-4.94-3.61-10.8,9.52-4.63,11-7.94,21.82-3.62ZM1280,1798c8.11-1.06,13.49.92,14.41,7.23-4.93,1.19-6.92,5.07-14.41,3.57Zm7.23-219.36c17.37-3,24.24,4.4,25.17,18-4.41,4.41-12.74,4.06-21.6,3.62-4.41-9.17-7.72-10.67-3.35-21.47Zm-6.88,377.75a23.25,23.25,0,0,1,17.63-3.48v10.75C1291.8,1961.73,1283.25,1961.73,1280.38,1956.4ZM1305.6,2262c-7.37-3.39-7.81-13.75-7.23-25.12,20-12.48,35.26,7.05,32.4,28.74-11.73-.44-32.84,22.48-39.68,3.61-2.55-9.74,16.89,2.56,14.37-7.23ZM1302,719.1c-4.8,15.38,7.36,14.06,14.37,17.94v14.41c-8.07,2.83-14.06,7.5-25.17,7.19,7-19,5.25-22.79-3.57-36,4.63-1,6.74-4.9,14.24-3.4Zm-18,571.81c10.94,4.63,31.92-.93,36,10.76-6.62,4.67-18.12-3.27-28.79,3.61,2.42-9.74-7.32-7-7.32-14.19Zm18,456.71c-4.8,4.41-13.49,4.76-14.37-3.57,4.63-4.5,13.18-4.63,14.24,3.75Zm14.37-481.88c-12.25.26-25.17,1.06-28.74-7.23,7.63-6.53,25.17-1.15,28.61,7.4ZM1309,489.33c.89,14.81-4.4,14.51-14.37,10.76C1293.6,490.43,1299.6,488.05,1309,489.33Zm-14.37,1647.11H1309v7.18h-14.37Zm10.76-855.93v7.18H1298v-7.18Zm0-715.66H1298v-7.19h7.19Zm-3.57,1514.06c1.5,6.08,4.41-.79,10.8,0,6.13,14.55-26.67,4.85-10.8-.22Zm0-668.93c16.49-27,71-11.11,54,25.17-19.36,18.08-60.84,12.52-54-25.39Zm7.18,326.93h-7.18v-7.06H1309Zm-7.18-104.31H1309v7.32h-7.18Zm7.18-618.45v7.19h-7.18v-7.19Zm-7.18-626V374h14.37c2.69,12.43-2.07,17.23-14.37,14.37ZM1309,3.61A20.08,20.08,0,0,0,1323.41,0C1328.87,10.05,1307.84,9.87,1309,3.61Zm28.66,1075.3c2.56,1.63,22.48.26,14.37,14.33-7,3.92-19.18,2.55-14.37,18h-14.42c-3.13-11.55,5.73-11.11,7.23-18-8.55-1-6.74-12.43-18-10.76C1322.83,1051.05,1336.76,1078.29,1337.69,1078.91Zm-10.8,104.26c-6.75-.44-12-2.38-14.37-7.19,6.39.75,18.12-3.35,14.5,7.19Zm-10.8-395.57V776.8h10.8c.7,7.89-2.87,11.38-10.67,10.8Zm14.41,248.11v10.8h-10.8c-.61-7.76,3-11.38,10.94-10.8Zm-10.8,244.58h10.94v7.18h-10.81Zm7.19,97a16.85,16.85,0,0,0,3.61,10.8h-10.8c.36-5.6-.31-12.34,7.32-10.67Zm-3.62-891.91c-.57-8.81,5.56-11.24,10.8-14.37,5.25,8.51,7.5,6.75,3.62,18a19.87,19.87,0,0,1-14.28-3.48Zm14.42,658.27c-11.42.44-12.43-9.31-14.42-18h10.8C1332.71,1134.32,1340.82,1133.44,1337.69,1143.63Zm-10.8,899.31h7.18v7h-7.18ZM1323.27,946c4.81,0,3.31-6.3,7.23-7.18,1.5,6.17,4.41-.75,10.76,0,.13,12.65-12.39,17.76-17.85,7Zm3.62,291.31c2.56-10.63,11.24-15.12,25.17-14.37,5.25,13.62-9.87,6.87-7.19,18-8.55,1.28-7.67-6.61-17.85-3.83Zm7.32-920.87c-.31-2.25-.58-4.41-3.57-3.62.44-4.4,1-8.5,7.18-7.18C1337.2,309.87,1338.39,315.86,1334.21,316.48Zm14.37,1165.18c-6.88-1.5-15.56-1.37-14.37-10.76h14.37Zm-10.89,107.92h7.18a16.54,16.54,0,0,0,3.58,10.8h-14.38A16.84,16.84,0,0,1,1337.69,1589.58Zm0-140.28a19.82,19.82,0,0,0,14.37-3.57c1.06,4.81,5.07,6.88,3.62,14.37C1345.45,1460.85,1336.15,1460.54,1337.69,1449.3Zm28.74-97c0,10.75-29.36,11.06-25.17-3.62,2.87-8.55,28-12.69,25.3,3.53Zm-3.57-215.79c-8.55,0-10.62,6.13-21.6,3.57-.75-10.32-.44-19.62,10.8-18,1.19,7.28,7.32,9.52,10.93,14.33Zm-18-151.08c1.5,6.17,4.63-.75,10.81,0,6.25,14.77-26.81,5-10.67-.09Zm14.38,1032.18c4.4,14.64-25,14.37-25.18,3.57,2.38-8.46,18.87-10.14,25.31-3.66Zm10.8-1082.48c3.3,14.51-19.49,12.43-25.18,7.14-3.3-14.72,19.62-12.47,25.31-7.23Zm-3.62,1158c3.44,13.22-20.06,7.63-18,0,11.55,2,11.28-6.83,18.11-.09Zm-14.37-546.64c4.41,0,4.94-4.41,10.8-3.57,5.69,8.81-12.17,10.49-10.67,3.44Zm3.62-79.09c6.74.75,7.93-4.05,14.37-3.61,5.82,9.92-15.48,9.78-14.24,3.48Zm-3.62-1211.95c7-9.57,21.29-8.07,21.6,7.18-5.42,1.81-9.17,5.25-14.41,7.19-1.81-5.34-5.25-9.26-7.06-14.51Zm7.19,1373.78c3.17-2.86,10.18,2.25,10.8,3.57,5.24,13.67-17.86,2.43-10.67-3.7Zm7.18,586.32h-7.18v-7.41h7.18Zm-7.18-1323.4h14.41v7.14h-14.41Zm7.18,618.54c1.5,6.13,4.67-.75,10.8,0,4.81,22.48-26.71,6.35-10.67-.26ZM1380.85,1018h-14.42v-7.19h14.42Zm-14.42,417.17c4.41,0,5-4.68,10.8-3.62v10.76h-7.18c.13-3.84-2.87-4.59-3.49-7.41Zm21.6,233.64c-9.92-.26-7.36,6-14.37,0a7.67,7.67,0,1,1,14.5-.18Zm-14.37,93.5V1748a19.87,19.87,0,0,1,14.37,3.57c1.19,9.3-4.8,11.82-14.24,10.63Zm-7.23-704.85c2.43-13.23,24.73-6.62,28.79,0-1.19-6.26,20.06-6.44,14.37,3.61-19-4.54-36.63,19.26-43-3.79Zm18,848.7a23.89,23.89,0,0,1,3.61,18c-17,5.82-19.79-20.9-3.48-18.21Zm7.18-179.82h-10.75v-7.1h10.75Zm0-884.68c-4.76,4.68-13.49,4.81-14.37-3.57,4.94-4.93,13.36-4.93,14.51,3.4ZM1388,2211.91c4.94,10.49,8.82,17.63,0,25.17-27.29,1.5-28.3-26.58.13-25.35Zm-3.61-226.55c-.58-10.53,14.55-11,18-7.23,3.75,12-11.11,5.38-17.85,7.06Zm10.8-1265.91h-10.8v-10.8h10.8Zm-10.8,852.32c10.93,2.55,10.49-6.13,21.6-3.62-3,10.19,5.07,9.3,3.57,18-16.18,3-22.35-4.23-25-14.55Zm14.41,546.64h-7.23v-7.23H1399Zm-3.61-1625.55h18c5.82,18.87-23.71,18.87-17.85-.18Zm0,449.65a23.64,23.64,0,0,1,18,3.62c2.83,13.31-23.23,7.49-17.85-3.92Zm7.18,845.14h-7.18v-7.14h7.18Zm-7.18-82.7v-10.81h7.18c0,4.68,4.68,4.94,3.62,10.81Zm25.3,478c4.94,21.11-24.55,16.18-25.17,3.61C1405.23,2182.15,1410.34,2178.76,1420.52,2183Zm7.19-1219.14c2.56,11.11,2.56,6.87,0,18-16.93,1.33-22.62-8.81-32.36-14.37C1412.63,966.23,1408.22,964.38,1427.71,963.81Zm-14.37-848.75c1.05,4.8,5.07,6.92,3.57,14.41C1404.65,132.25,1402.84,115.68,1413.34,115.06Zm3.7,2046.33a20.32,20.32,0,0,0,14.42-3.61c3.57,8.24,12.25,11.55,10.8,25.17C1428.46,2193,1411.66,2181.45,1417,2161.39Zm14.42-992.59c-4.68,0-4.94,4.67-10.81,3.61a9.84,9.84,0,0,1,7.19-10.8c-.13,3.57,2.73,4.37,3.48,7.19Zm3.21-129.48c-1-7.49-13.44-3.44-14.37-10.75a17.59,17.59,0,0,1,21.6,0A10.06,10.06,0,0,1,1434.67,1039.32Zm3.62,7.23c17,15.92-11.82,34.48-18,7.19,7.1-1.5,6.66-10.36,18.21-7.19Zm-7.19-845.17c5.38,7.8,18,8.42,18,21.6-15.7,4.76-28.13-12.13-17.77-21.6Zm3.57,327.27v10.8C1424.4,544.7,1424.4,523.41,1434.67,528.65Zm3.62,1550c4.41-5,17.63-5.6,18,3.57-5-1.94-18.38,4.19-17.76-3.57Zm0-945.87c4.8-4.62,13.22-4.8,14.37,3.62-4.76,4.63-13.27,4.8-14.15-3.48Zm-7.19-43.11c3.88-15.34,32.23-14.24,32.36,3.53-6.74,10.4-28.39,8.86-32.14-3.53ZM1445.47,1967h14.38c6.52,16.36-15.35,9.65-14.16.18Zm3.62-784c0,2.25.44,4.19,3.57,3.62v7.18c-8.6,5.73-10.4-12.12-3.35-10.62Zm7.4,633.27v10.8C1446,1832.17,1446,1810.88,1456.49,1816.26Zm3.58-1427.88c-1.5-6.88-10.32-6.44-7.19-17.94a17.59,17.59,0,0,1,21.6,0C1475.36,382.12,1469.94,387.63,1460.07,388.38Zm-7.19,827.15h14.37v7.18h-14.37Zm0-266.14c6.44,2.12,14.86-10.45,18,0C1465.53,953.62,1455.75,962,1452.88,949.39Zm21.47-262.52q-.27,17.64-18,18C1455.13,691.54,1465.31,689.87,1474.35,686.87Zm-10.8,305.72v10.76c-10.36,5.29-10.36-15.87.13-10.76Zm3.61,327.24v10.8c-10.44,5.11-10.44-16,.14-10.8Zm3.57,557.44c1.06,8.42,11.11,8.11,14.42,14.37-2.87.75-4.41,3-3.62,7.23-10.36,1.81-19-16.49-10.66-21.6Zm-7-687a17.59,17.59,0,0,1,21.6,0c1,9.47-7.49,9.3-14.41,10.8C1469.94,1196.08,1464.87,1195,1463.68,1190.27ZM1488.85,1050v10.81h-10.8c-.75-7.72,2.87-11.33,10.8-10.72Zm-10.8-719.27h7.19V338h-7.19ZM1474.35,1755c8.37-1,15.43-7.63,17.94,3.62C1487.57,1763.36,1474.75,1764.15,1474.35,1755Zm36,248.15c-17.63-2.82-27.15-13.62-25.17-36,24.47-5.43,32.93,21,25.3,36ZM1485.15,852.54c4.41,0,4.94-4.63,10.76-3.57v10.67h-7.19c.13-3.75-2.87-4.41-3.44-7.32Zm3.57,1032.14h7.19v7.18h-7.19Zm0-28.75h7.19v7.19h-7.19Zm0-356.06c11.24,1.8,14.06-7.76,21.56,0a16.59,16.59,0,0,1-3.57,10.8c-9-.66-18.47-1-17.86-11Zm21.56-104.26c0,14.37-23.81,17.94-28.75,7.14,10.89-1.23,13-11.29,28.88-7.36Zm-14.37,427.92h10.8v7.19h-10.8Zm28.91,402.71h-18a44.53,44.53,0,0,1-7.19-32.36C1518.43,2184.31,1536.07,2207.06,1524.82,2226.24ZM1514,510.67V525a19.47,19.47,0,0,1-14.37-3.57C1498.6,512,1504.59,509.61,1514,510.67Zm-14.37,909.89H1514v7.14h-14.37Zm18,467.51c0-6-10.05-2.12-10.8-7.19C1514,1877.71,1529.15,1884,1517.64,1888.07Zm-7.23-179.82c4.8-1.23,6.92-5.11,14.41-3.61v10.8C1516.58,1716.5,1511.34,1714.56,1510.41,1708.25Zm21.6-478.31c5.69,16.62-18.56,12.43-14.37,0Zm10.8,708.47c3.31,14.55-19.48,12.44-25.17,7.19C1514,1930.88,1537.12,1933.17,1542.81,1938.41ZM1528.4,521.47c-4.63,0-4.94,4.41-10.76,3.57a9.82,9.82,0,0,1,7.18-10.76C1524.82,517.9,1527.65,518.6,1528.4,521.47Zm0,1258.73h-7.19V1773h7.19ZM1517.64,586.32c5.69.3,12.43-.44,10.76,7.18A9.82,9.82,0,0,1,1517.64,586.32Zm10.76-140.23c1.49,6.12,4.67-.8,10.8,0,6.12,14.68-26.67,4.93-10.8-.14ZM1532,1834.24c8.38-1,15.43-7.62,18,3.62-5.12-2.12-18.61,4.05-18-3.75Zm0-140.27h14.37v7.18H1532Zm0-643.63a19.66,19.66,0,0,0,14.37-3.61c5.69,9.83-15.56,9.7-14.37,3.39Zm0-183.43h14.37v7.23H1532Zm0-82.7h10.8v7.18H1532Zm10.8,208.6c2.07,14.51-14.86,11.38-18,3.57a23.34,23.34,0,0,1,18-3.79Zm0,672.46c3-3,10.18,2.56,10.8,3.61,3.26,6.31-13.36-1.27-10.8-3.83Zm18,302.11c3.57,12.16-11.24,5.55-18,7.23-.75-10.89,12.74-12.88,18-7.45Zm0-442.34c5.51,10.8-18.61,9.48-18,3.61a23.27,23.27,0,0,1,18-3.83Zm3.57-255.42a23.92,23.92,0,0,1-3.57,17.94h-14.42c-3.88-9.61-2.69-20.5,10.8-21.56C1558.11,1268.74,1560.18,1270.1,1564.37,1269.62Zm-7.19-521.52h-10.8V737.3h10.8Zm3.62,474.74c-8.25,1-13.49-.92-14.42-7.18,5.25-5.82,16.14-4.15,14.42,7.1Zm10.75,546.64c-10.18,3-9.25-5.11-17.94-3.61-3.17-13.62,16-12.74,21.56-7.19a17.62,17.62,0,0,1-3.84,10.72Zm-3.57-187H1553.7c-.84-11.91,16.66-14.29,14.28-.09Zm-10.8-1204.73V370.3h7.19v7.19Zm0-276.93H1568v10.8h-10.8Zm18,1895.25c-10.63-5.38-13.23,4.06-18-7.18,11.68.48,17.24-8.47,18,7.09Zm-3.84-629.43c-19,2.07-30.41-3.17-32.35-18C1550.17,1321.94,1595.4,1337.11,1571.33,1366.6ZM1553.7,730.07c1.5-16,7.45-5.42,17.94-10.8C1569.92,731.79,1563.93,734.53,1553.7,730.07Zm7.19,43.12c3.13-2.82,10.18,2.25,10.75,3.61,5,13.8-17.94,2.56-10.84-3.61Zm7.09,456.75h7.19v7.19H1568Zm0,298.49c5.69.31,12.43-.44,10.8,7.19A10,10,0,0,1,1568,1528.43Zm7.19-974.6c4.8-4.41,13.22-4.76,14.37,3.57C1584.56,562.07,1576.23,562.25,1575.17,553.83Zm14.37,1161.61h-7.19v-7.19h7.19Zm-7.19-1247.93h7.19v14.42h-7.19Zm10.81,1298.27H1586v-7.18h7.19Zm7.18,449.66h-7.18v-7.28h7.18ZM1593.16,2068c7.49-2,13.48-6.3,18,3.57-4.54,4.37-13.66,1.37-18-3.7Zm28.74-248.15a17.31,17.31,0,0,1-3.57,10.76c-6.92.75-7.94-4-14.37-3.62-.75-10.75,12.74-12.82,17.94-7.27Zm3.61-582.61c-12.43,1.63-26.45,5.38-28.78-10.8,7-14.15,34.16-14.15,28.78,10.67Zm-14.37,449.66c-5.55-10.81,19.93-10.81,14.37,0-10.09,0-7.36-6.26-14.5-.27Zm14.37,413.59c-8.81-1.81-14.85-6.79-21.55-10.8,9.43-4,23.36-5.95,21.55,10.54Zm-10.8-686.92v-7.31c6.61-12.13,17.55,10.67,0,7Zm10.8-302.06h-7.18v-7.23h7.18Zm7.19-97c.75,2.82,3,4.19,7.18,3.61,1.68,11.24-3.13,16-14.37,14.37-.61-9.39-.75-17.94,7.19-18.38Zm-3.57-341.65c-4.06-5.25-3.93-8.82,3.57-10.76,0,4.41,4.67,4.94,3.61,10.76ZM1665.06,1025c5.73,10-15.57,9.88-14.38,3.62C1655.49,1027.16,1657.56,1023.45,1665.06,1025ZM1654.3,830.72a14.38,14.38,0,0,1,21.56-3.57C1681.54,839.45,1651.74,844.25,1654.3,830.72Zm0,1093.28h17.94c2.87,15.16-19.31,12.3-17.94,0Zm14.37-690.49H1654.3v-7.18h14.37Zm-10.8-1068c3.17-2.69,10.18,2.25,10.8,3.62,5.11,13.4-18,2.46-10.8-3.71Zm10.8,755.16v10.8h-10.8C1657.12,923.65,1660.74,920.08,1668.67,920.65Zm7.19,927.83c-9.88.31-7.37-6-14.37,0C1655.93,1837.73,1681.54,1837.73,1675.86,1848.48Zm0-820c-.44-6.74-12-2.55-10.8-10.8,4.8-6,20.41-1.23,25.21-7.18.88,11.72-11.24,10.36-14.41,18Zm-7.19,1061.06c1.5,6.13,4.41-.75,10.8,0C1685.6,2104.26,1652.8,2094.52,1668.67,2089.58Zm3.62-1150.95c9.69.31,7.18-6,14.37,0a7.67,7.67,0,1,1-14.37,0Zm3.57,809.17c4.63,0,4.93-4.63,10.8-3.58C1692.21,1753,1674.36,1754.85,1675.86,1747.8Zm10.8-517.86v10.8h-7.19c0-3.61-3-4.41-3.61-7.18C1680.49,1233.38,1680.79,1228.88,1686.66,1229.94Zm3.7,654.52h-7.19v-7.19h7.19Zm-3.57-963.81a23.24,23.24,0,0,0,18-3.62c1.19,11.11-17.55,14.73-18.12,3.62Zm7-496.3c-16.18-13.62,1.81-33.11,21.56-32.36C1724.7,406.85,1709.58,423.21,1693.84,424.35Zm36,442.34c1.63,11.24-7.68,11.55-18,10.8C1710.15,866.25,1719.46,865.94,1729.82,866.69Zm0,658.13c-.62,5.38,1.19,13.22-3.62,14.41-1.63-5.73-11.37-3.17-7.19-14.41ZM1719,1294.66h10.81v7.18H1719Zm0-658.09h7.19v7.06H1719Zm10.81,1006.92h-7.19v-7.14h7.19Zm0-53.91h-7.19v-7h7.19Zm0-766c4.32-5.07,13.44-8,17.85-3.57v10.76C1740.88,829.09,1726.07,835.7,1729.82,823.53Zm3.57,1294.7h14.28C1750.18,2132.47,1732.64,2130.05,1733.39,2118.23Zm-7.19-647.33c4.41-4.4,12.74-4.1,21.6-3.61C1747.05,1482.72,1728.76,1479,1726.2,1470.9Zm18,381.2c2.11-7.5,23.23-4.41,21.6,3.57C1760.67,1862.28,1746.43,1865.28,1744.19,1852.1ZM1755,971c4.8,0,3.3-6.3,7.18-7.18C1766.23,971.17,1756.49,980.87,1755,971Zm28.74-784c-8.51,5.25-6.74,7.63-17.94,3.62C1759.92,167.83,1784.66,169.63,1783.73,187Zm10.8,1427.75h-7.19v-7.19h7.19Zm7.19,445.91c-11.51,5,14.72,1.5,10.8,10.8-9.88.31-7.19-6-14.37,0-1.06-7.32-7.19-9.61-10.81-14.37C1792.72,2057.71,1800.57,2055.72,1801.72,2060.66Zm7.18-222.93c6.17,14.81-26.45,5.07-10.75,0C1799.64,1843.85,1802.77,1837,1808.9,1837.73Zm-3.57-424.49c8.82-.44,11.24-6.87,14.37,3.62-4.76,4.71-10.93,2.33-14.37-3.53ZM1819.7,388.38H1827v7.23h-7.19ZM1834.12,971c1,4.81,5.07,6.88,3.57,14.37-9.44,1.06-15.43-1.32-14.37-10.8C1827.81,974.25,1828.25,969.85,1834.12,971Zm-21.6,226.59c7-12.16,38.66-16.22,36,7.19C1838.31,1211.21,1815.51,1215.26,1812.52,1197.58Zm18,118.68h14.15v17.94C1831.43,1336.76,1829,1328.56,1830.5,1316.26Zm3.62,812.73a13.51,13.51,0,0,1-14.42-14.37,13.56,13.56,0,0,1,14.42,14.37ZM1823.32,837.9c.31-9.08,12-7.18,21.55-7.18v18C1835.31,852.49,1824.38,851.44,1823.32,837.9Zm18,1179.64c2.08,0,4.19.58,3.57,3.58-10.62,3.13,10.8,2.86,3.62,14.37-11.42.61-7-14.55-14.37-18Zm3.35,46.73v10.8C1834.38,2080.32,1834.38,2059,1844.65,2064.27Zm25.4-604.25v14.37c-8.82,1.5-7.76-6.62-18-3.57-.57-10,8.86-10.28,18-10.72Zm0,86.27c-8.82.48-17.64.61-18-7.14,5.42-5.65,20.54-5,18,7.23Zm-7.19-276.67c-2.56-12.48,12.61-12.92,18-7.23C1883.4,1274.73,1868.28,1275.17,1862.86,1269.62Zm25.17,64.67c5.56,10.8-18.56,9.48-18,3.61a23.21,23.21,0,0,1,18-3.7Zm3.62,50.39h-14.42v-7.19h14.42Zm-14.37-697.81H1888v7.23h-10.75Zm0-262.52h7v7.23h-7.23Zm10.8,165.45c-2.69-12.61,9.43-16.18,14.41-10.8,1,9.43-4.94,11.72-14.46,10.8Zm0-352.45h7.14v7.23H1888ZM1906,1219.14c-6.75-.44-12-2.42-14.37-7.18C1898,1212.7,1909.63,1208.38,1906,1219.14Zm-7.19-313c-1.06-8.24.88-13.48,7.19-14.41,5.69,5.51,4,16.4-7.19,14.55Zm32.36,665.45c5.69,10.05-15.56,9.88-14.37,3.57C1923.56,1575.91,1924.75,1571.11,1931.19,1571.59Zm-10.8,363.21H1942C1944.68,1954.59,1919.6,1952.92,1920.39,1934.8Zm10.8,115.1H1924v-7.18h7.19Zm0-1719c-1.19-4.94-5.07-6.88-3.57-14.37h10.76C1939.43,324.72,1937.49,330,1931.19,330.85ZM1927.62,1791h7.19v7.14h-7.19Zm25.17,237.3c0,12.43-14.55,11.86-18,3.62A23.22,23.22,0,0,1,1952.79,2028.3ZM1974.35,1906c-3.44,3.75-18.56,3.31-18-7.14C1965.22,1898.25,1973.78,1898.08,1974.35,1906Zm86.32,3.62c-17.24.48-27.87-5.69-32.36-18C2046,1890.76,2057.36,1896.14,2060.67,1909.63Zm-18,46.77h14.37C2059.47,1970.55,2041.93,1968.21,2042.68,1956.4Z"/></g></g></g></g></svg>