<svg xmlns="http://www.w3.org/2000/svg" viewBox="0 0 132.04 175.67"><defs><style>.cls-1{fill:#fdc904;}</style></defs><title>a125909a-5e91-4277-a7ca-cd4119f43215-child-0triang</title><g id="Layer_2" data-name="Layer 2"><g id="Layer_1-2" data-name="Layer 1"><g id="a125909a-5e91-4277-a7ca-cd4119f43215-child-0"><path class="cls-1" d="M103.07,175.67c3.33-13.68,6.63-27.33,5.3-41.27-1-10.2-10.21-7.75-16.87-9.57-4.94-9.56-14-16.48-22.45-23.83,11.57-1.74,22-.45,31.9,2.1q-14.22-12.84-34-9.82C63.22,84.83,54.83,80,47,74.7c8.69-3.75,23.78-4.34,38.91-4.91-1.86-1.21-3.24-2.75-7-3.15-11.1-1.18-23,.9-34.71,2.45a122.48,122.48,0,0,1,34-7.36c-.84-1.5-1.71-2.93-3.85-3.15-18-1.93-33.26,1.56-45.93,10.16C11.91,61.35,5,51.76,0,41.75a216.48,216.48,0,0,0,25.59-8.42C17.77,33.75,9.75,35.64,0,36.84c.33-6.08,1.27-12.15,4.55-18.23a110.46,110.46,0,0,0,18.59,3.51L10.52,13a44.25,44.25,0,0,1,20-10.52C41.12,8.06,49.26,15.05,57.84,21.76,54.68,14.22,46.94,7.28,38.91.38c7.36-.42,14.72-.82,21.74.7A122.48,122.48,0,0,1,72.58,18.26c-.18-5.33-1.69-9.66-3.16-14,7.73,2.88,13.07,14,17.18,29.44C90.06,27.74,87.85,21,87,14.4c17.35,12.19,22.61,28.36,16.13,48.39,7.3-7.61,7.43-22.11,7.71-36.46,6.76,24.78,15.7,20.58,8.07,54.69,3.79-3.77,7-9,10.16-14.37,1.69,18.4,3.69,38.81,2.81,40.65-6.21,11.39-12.15,25.35-19.28,27.68-1,14.44-3,27.8-6.67,39.27Zm8.06-55.39,2.81-2.81c-.35-58.31-51.29-79.24-74.33-86.24-4.1-1.25-3.91,1.05-.7,2.1C79.65,46.69,108.48,74.16,111.13,120.28Z"/></g></g></g></svg>