<svg xmlns="http://www.w3.org/2000/svg" viewBox="0 0 74.01 79.1"><defs><style>.cls-1{fill:#bb133e;}</style></defs><title>afa6d37f-36eb-42f7-b99d-0c831c6b9e552skateboard1</title><g id="Layer_2" data-name="Layer 2"><g id="Layer_1-2" data-name="Layer 1"><g id="afa6d37f-36eb-42f7-b99d-0c831c6b9e55"><g id="d2dc5c4f-29de-48bb-b5ef-333e9cea9145"><path class="cls-1" d="M6.16,78.79c-1.17,0-2.38,0-3.65-.05A2.7,2.7,0,0,1,0,77.55V74a5.78,5.78,0,0,0,.67-3.39A9.88,9.88,0,0,1,1,66.86c.55-1.78,1.14-3.71,1.79-5.8a24.36,24.36,0,0,1,2.42-5.49A51.73,51.73,0,0,1,11.5,47.5a89,89,0,0,0,7.14-8.67,36.69,36.69,0,0,0,5.13-10,21.48,21.48,0,0,0,.16-12.07,28.26,28.26,0,0,0-3.13-1.43,7,7,0,0,0-4-.11,4.89,4.89,0,0,0-.26,1.29c0,.51,0,1,0,1.59a5.27,5.27,0,0,1,.57,2.62,36.71,36.71,0,0,1-.1,3.75c-.11,1.3-.26,2.51-.47,3.65s-.34,1.86-.41,2.21a6.78,6.78,0,0,1-2.46.77c-1.1.17-2.28.29-3.55.36s-2.55.12-3.85.16-2.39,0-3.28,0a8.13,8.13,0,0,0-1-1.18,3,3,0,0,1-.62-1.7,4.45,4.45,0,0,0,.16-2.21c-.11-1.06-.24-2.24-.41-3.54s-.29-2.62-.36-4A8.84,8.84,0,0,1,1,15.82,28.21,28.21,0,0,1,5.08,7.14a17.22,17.22,0,0,1,7.24-5.48,9,9,0,0,1,3-.72A5.07,5.07,0,0,0,18.07,0,29.75,29.75,0,0,1,29.68,2,20.41,20.41,0,0,1,38,7.87a19.53,19.53,0,0,1,4.11,9.4,28.58,28.58,0,0,1-1,12.43V32a25.87,25.87,0,0,1-2.77,6.37c-1.23,2-2.47,3.94-3.7,5.65A28.15,28.15,0,0,0,32,46.23,13.75,13.75,0,0,0,30.4,48.9a17.12,17.12,0,0,1-1.64,2.77A15.88,15.88,0,0,1,26.65,54q-1.48,1.43-3,3.08c-1,1.09-1.95,2.14-2.77,3.13a6.34,6.34,0,0,0-1.44,2.41,9.66,9.66,0,0,0,1,.46,4.8,4.8,0,0,0,1.54.16,6.64,6.64,0,0,0,4.21.41c1.85-.27,3.75-.55,5.7-.82a29.81,29.81,0,0,1,5.34-.31,3.13,3.13,0,0,1,3.13,2,5.22,5.22,0,0,1,.87,2.78,28.56,28.56,0,0,1,.05,4,35.29,35.29,0,0,1-.41,4q-.3,1.91-.51,2.82a9.67,9.67,0,0,1-3.59.77c-1.58.11-3.26.16-5,.16s-3.56,0-5.34-.16-3.25-.15-4.41-.15a5.67,5.67,0,0,0-2.93-.67c-1.33,0-2.77,0-4.31.1l-4.63.36c-1.54.14-2.86.21-3.95.21ZM9.75,20.66a4.54,4.54,0,0,1,.78-.78c.17-.11.32-.5.46-1.18h-.62c-.21.35-.39.66-.56.92a2.34,2.34,0,0,1-.77.72v.31Zm11.3-10.39V10c.14-.15.19-.22.16-.22s0-.14.15-.4h-.72l-.31.91Zm14.48,14v-.72a3,3,0,0,1-.61-.82A2.08,2.08,0,0,0,34.3,22a2.69,2.69,0,0,0,.36,1.18,6,6,0,0,1,.57,1.08ZM30.4,20.35a14.16,14.16,0,0,1,1.38-1.71,3.69,3.69,0,0,0,.88-2.2,4.73,4.73,0,0,1-.62.1,1.15,1.15,0,0,0-.41.2,9.13,9.13,0,0,0-1.13,1.7,13.9,13.9,0,0,0-.82,1.91ZM26.8,6.79l-1.23-.61V7.1a5.69,5.69,0,0,1,.57.31,4.61,4.61,0,0,0,.66.3Zm2.88,5.44a9.29,9.29,0,0,1,1.39-1.49,3.63,3.63,0,0,0,1-2h-.41v-.3A7.93,7.93,0,0,0,29.88,10a4.73,4.73,0,0,0-1.12,2.22Zm7.19,3.28a3.5,3.5,0,0,1-1.23-1.18,2.8,2.8,0,0,0-1.34-1.08,13.12,13.12,0,0,0,1,2.06,4.37,4.37,0,0,0,1.54,1.43ZM57.41,78.17a7.22,7.22,0,0,1-.26-1.65c0-.61,0-1.27,0-2a3.81,3.81,0,0,1-.62-2.41A14.76,14.76,0,0,1,57,69.54q.36-1.35.72-2.67a5,5,0,0,0,0-2.56c-.21-1.1-.46-2.18-.77-3.24s-.57-2-.77-2.93a8.18,8.18,0,0,1-.11-3.9,31.46,31.46,0,0,1,.72-3.18V30.31c.27-1.1.57-2.14.88-3.13a7.67,7.67,0,0,0,0-3.66A4.08,4.08,0,0,1,56.9,23a3.73,3.73,0,0,1-.72-.71,13.54,13.54,0,0,0-2.16.15c-.61.11-1.2.23-1.75.36s-1.11.28-1.69.4a12.78,12.78,0,0,1-1.9.31,4.58,4.58,0,0,0-.82-.51A2.74,2.74,0,0,1,47,22.3a7.43,7.43,0,0,1-.77-1.6,23.26,23.26,0,0,1-.83-2.52c-.24-.89-.46-1.76-.66-2.62a8.88,8.88,0,0,1-.31-2,31.11,31.11,0,0,0,2.26-2.31,7.32,7.32,0,0,1,2.57-1.9,20.53,20.53,0,0,1,3.08-1,9.12,9.12,0,0,0,2.77-1.23A13.88,13.88,0,0,0,57.56,5,13.25,13.25,0,0,1,60,2.88,5.78,5.78,0,0,1,62.49,2a3.88,3.88,0,0,0,2.31-1c1.31.07,2.57.12,3.8.15s2.47.1,3.7.16l.77,1,.77,1V53.31c0,2,0,4.23.1,6.52s.09,4.55.06,6.78a62.05,62.05,0,0,1-.42,6.31,19.72,19.72,0,0,1-1.28,5.24,19.72,19.72,0,0,1-4.26,0,15.06,15.06,0,0,0-4.16,0c-1.17.14-2.25.24-3.24.31a11,11,0,0,1-3.23-.31ZM50.94,16.74a4.38,4.38,0,0,1,.31-.56,4.09,4.09,0,0,0,.31-.67h-.62l-.31,1.23Zm4.83,0a4.87,4.87,0,0,1-1.34-1.84,3.23,3.23,0,0,0-1.54-1.65,2.06,2.06,0,0,1-.36.52,2.54,2.54,0,0,0-.26.72,3.47,3.47,0,0,1,.72.92,5.32,5.32,0,0,0,.52.82,2.38,2.38,0,0,0,.77.67,3.23,3.23,0,0,0,1.49.26Zm8.42,7.5c.13-.21.08-.36-.16-.46a1.54,1.54,0,0,1-.46-.26c-.07.27,0,.43.16.47a.91.91,0,0,1,.46.25ZM60,18.08c-.07-.14-.09-.19,0-.15s0,0-.26-.16a4.73,4.73,0,0,1,.1.62c0,.07.07.17.21.31ZM58,11.92a4.89,4.89,0,0,1,1-.82,3.31,3.31,0,0,0,.93-.83c-.14-.27-.19-.41-.16-.41s.09-.17.16-.51h-.62c-.27.34-.55.67-.82,1s-.55.63-.82,1v.62Zm8.42,6.16v-.31a1.91,1.91,0,0,0,.36-.51.43.43,0,0,0,0-.52,3.32,3.32,0,0,0-1.19-1.33,7.27,7.27,0,0,0-1.69-.92v1.64c.34.28.73.58,1.18.92a6.34,6.34,0,0,1,1.08,1ZM68.09,21a3.94,3.94,0,0,1,.57-.52,1.63,1.63,0,0,0,.35-.71,1.26,1.26,0,0,0,0-1.65,8.45,8.45,0,0,1-.66,1.44A5.69,5.69,0,0,0,67.78,21Zm0-8.73a2.68,2.68,0,0,1,.72-.57,1.12,1.12,0,0,0,.51-.67,1.26,1.26,0,0,1,0-.66,1.52,1.52,0,0,0-.26-1,7.58,7.58,0,0,1-1.54,2.26v.62Zm-2-4.52-.87-.88a3.34,3.34,0,0,0-1.08-.65,2.68,2.68,0,0,1-.11.46s0,.22.11.77a6.6,6.6,0,0,1,.92.67,4.57,4.57,0,0,0,1,.66Z"/></g></g></g></g></svg>