<svg xmlns="http://www.w3.org/2000/svg" viewBox="0 0 42.67 100.97"><defs><style>.cls-1{fill:none;stroke-miterlimit:10;stroke-width:1.98px;}.cls-1,.cls-2{stroke:#e55998;stroke-linecap:round;}.cls-2{fill:#fff;fill-opacity:0;stroke-linejoin:round;stroke-width:1.57px;}.cls-3{fill:#e55998;}</style></defs><title>Asset 10mdpi</title><g id="Layer_2" data-name="Layer 2"><g id="Layer_1-2" data-name="Layer 1"><g id="_314efde2-18ba-4a8c-a59f-ab842ec81663" data-name="314efde2-18ba-4a8c-a59f-ab842ec81663"><g id="_314efde2-18ba-4a8c-a59f-ab842ec81663-child-0" data-name="314efde2-18ba-4a8c-a59f-ab842ec81663-child-0"><path class="cls-1" d="M21.34,100C10.1,100,1,77.82,1,50.49S10.1,1,21.34,1s20.34,22.16,20.34,49.5S32.57,100,21.34,100Z"/></g></g><g id="_688bf430-502a-4c34-a479-c829880f7417" data-name="688bf430-502a-4c34-a479-c829880f7417"><g id="_688bf430-502a-4c34-a479-c829880f7417-child-0" data-name="688bf430-502a-4c34-a479-c829880f7417-child-0"><path class="cls-1" d="M21.34,87C10.1,87,1,70.67,1,50.49S10.1,14,21.34,14,41.68,30.31,41.68,50.49,32.57,87,21.34,87Z"/></g></g><g id="_25676433-8246-4bd6-a9bd-1933334a0315" data-name="25676433-8246-4bd6-a9bd-1933334a0315"><g id="_25676433-8246-4bd6-a9bd-1933334a0315-child-0" data-name="25676433-8246-4bd6-a9bd-1933334a0315-child-0"><path class="cls-1" d="M21.34,71.33a20.85,20.85,0,0,1,0-41.68,20.85,20.85,0,0,1,0,41.68Z"/></g></g><g id="f2b2803b-497f-4fcf-b439-3d1c4bd00153"><g id="_02140478-482b-4cc0-89f2-6cbed4f08059" data-name="02140478-482b-4cc0-89f2-6cbed4f08059"><path class="cls-2" d="M11.62,50.22h.49l.32,0h.16l.32,0,.15,0,.31,0,.16,0,.3-.07.15,0,.31-.08.14-.05.3-.09.14-.06.29-.11.14-.06.28-.12.14-.07.27-.13.14-.08.27-.14.12-.08.26-.16.13-.09.25-.17.12-.09.24-.19.12-.1.23-.19.11-.1.22-.21a1.14,1.14,0,0,0,.11-.11l.21-.21.1-.11.2-.23.1-.12.19-.23.09-.13.18-.24.09-.13.16-.25.08-.13.16-.26s.05-.09.07-.14l.14-.27.07-.13c0-.1.09-.19.13-.28l.06-.14.12-.29.05-.14c0-.1.07-.2.1-.29l.05-.15.09-.3,0-.15c0-.1,0-.2.08-.3l0-.16.06-.31a.77.77,0,0,0,0-.15c0-.11,0-.21.05-.32v-.16l0-.32a.81.81,0,0,0,0-.16c0-.1,0-.21,0-.32v-.16h0V30.2h.52V40.76c0,.17,0,.33,0,.49l0,.32,0,.16,0,.32,0,.15c0,.11,0,.21.05.32l0,.15.07.31,0,.15c0,.1.05.2.08.3l0,.15a2.47,2.47,0,0,1,.1.29,1.21,1.21,0,0,1,.05.14c0,.1.08.2.11.29l.06.14c0,.1.08.19.13.29l.06.13.14.28.07.13.15.27.08.13.16.26.09.12.17.25.09.12.18.24.1.12L24,47a.52.52,0,0,0,.1.11l.2.22.11.11.22.21.11.11.23.2.11.09.24.19.12.09.25.18.12.09.26.16a.57.57,0,0,0,.13.08,2.26,2.26,0,0,0,.26.16l.13.07.27.14.14.07.28.13.14.06.28.12.15,0,.29.1.15,0,.3.09.15,0L29,50l.15,0,.31.06.16,0,.31,0,.16,0,.32,0h.16l.33,0H41.62v.52h-11l-.32,0-.16,0-.31,0-.16,0-.31,0-.16,0-.3.07-.15,0-.3.08-.15,0-.3.1-.14,0-.29.11-.14.06-.28.13-.14.06-.27.14-.14.07-.26.15-.13.08-.26.16-.13.09-.25.17-.12.09-.24.18-.12.1-.23.2-.11.1-.22.2-.11.11-.21.22-.1.11c-.07.08-.14.15-.2.23l-.1.11-.19.24-.09.12-.18.25-.08.12c-.06.09-.12.17-.17.26l-.08.13-.16.26a.83.83,0,0,1-.07.13L22.6,56l-.07.14c0,.09-.08.19-.13.28l-.06.14c0,.09-.07.19-.11.28l-.06.15c0,.1-.07.19-.1.29L22,57.4c0,.1-.06.2-.08.3l0,.15c0,.1,0,.2-.08.3l0,.15-.06.31a1,1,0,0,0,0,.16c0,.1,0,.21-.05.31v.16l0,.32c0,.06,0,.11,0,.16s0,.22,0,.33V70.77h-.52V60.2c0-.16,0-.32,0-.49l0-.32v-.16c0-.1,0-.21,0-.31a.88.88,0,0,1,0-.16l-.06-.31,0-.15L20.82,58l0-.15c0-.1-.06-.2-.08-.3l-.05-.15a2.47,2.47,0,0,0-.1-.29A.88.88,0,0,0,20.5,57l-.11-.29-.06-.14-.12-.28c0-.05-.05-.09-.07-.14s-.09-.18-.14-.27l-.07-.14-.15-.26a.57.57,0,0,0-.08-.13L19.54,55l-.08-.13-.18-.25-.09-.12L19,54.3l-.1-.11L18.72,54a.52.52,0,0,1-.1-.11l-.21-.22a1.14,1.14,0,0,1-.11-.11l-.21-.21L18,53.2l-.22-.2-.12-.1-.24-.19-.12-.09L17,52.44l-.13-.08-.25-.17-.13-.08L16.26,52l-.14-.08-.27-.14-.14-.07-.27-.13-.15-.06L15,51.37l-.15,0-.29-.11-.14,0-.3-.09L14,51,13.67,51l-.15,0-.31-.06-.16,0-.31,0-.16,0-.32,0H1.06v-.52Z"/></g><g id="f2b2803b-497f-4fcf-b439-3d1c4bd00153-child-0"><path class="cls-3" d="M21.08,40.76a9.47,9.47,0,0,1-9.46,9.46H1.06v.52H11.61a9.47,9.47,0,0,1,9.47,9.46V70.77h.52V60.21a9.47,9.47,0,0,1,9.46-9.46H41.62v-.52H31.06a9.47,9.47,0,0,1-9.46-9.47V30.2h-.52V40.76Z"/></g></g></g></g></svg>