<svg xmlns="http://www.w3.org/2000/svg" viewBox="0 0 184.86 103.25"><defs><style>.cls-1{fill:#fff;}</style></defs><title>Asset 14mdpi</title><g id="Layer_2" data-name="Layer 2"><g id="Layer_1-2" data-name="Layer 1"><g id="_66985de8-dcca-4a99-bdef-b659577416cc" data-name="66985de8-dcca-4a99-bdef-b659577416cc"><g id="_66985de8-dcca-4a99-bdef-b659577416cc-child-0" data-name="66985de8-dcca-4a99-bdef-b659577416cc-child-0"><path d="M0,103.25V0H184.86V103.25Z"/></g></g><g id="c31e1188-4e9c-45b6-a886-d63c88fc0783"><g id="c31e1188-4e9c-45b6-a886-d63c88fc0783-child-0"><path class="cls-1" d="M2.16,101.16V2.09H182.7v99.07Z"/></g></g><g id="_448d33a4-48ca-4e6e-9a6e-dd080f7c7065" data-name="448d33a4-48ca-4e6e-9a6e-dd080f7c7065"><g id="_448d33a4-48ca-4e6e-9a6e-dd080f7c7065-child-0" data-name="448d33a4-48ca-4e6e-9a6e-dd080f7c7065-child-0"><path d="M3.81,75.3V99.16H181.05V75.3Z"/></g></g><g id="_527ec9f1-76a9-4889-b2b0-d8a28faa96f0" data-name="527ec9f1-76a9-4889-b2b0-d8a28faa96f0"><g id="_527ec9f1-76a9-4889-b2b0-d8a28faa96f0-child-0" data-name="527ec9f1-76a9-4889-b2b0-d8a28faa96f0-child-0"><path d="M3.81,4.09V28H181.05V4.09Z"/></g></g><g id="e3c8fd0c-7a64-4218-89f6-7431b6911cd4"><g id="_77530393-e86e-4906-b52a-8757060502b0" data-name="77530393-e86e-4906-b52a-8757060502b0"><path class="cls-1" d="M12.74,94.53V80h4.89v1.91H15V86.1H17.5V88H15v4.64h2.77v1.91Zm9.49,0,2.25-7.82L22.24,80h1.87l1.45,4.33L26.73,80h2.08l-2.2,7.46L29,94.53H27.06l-1.48-4.48-1.2,4.48Zm11.8,0V80h3.35a3.62,3.62,0,0,1,1.45.26,2.18,2.18,0,0,1,.91.79,3.57,3.57,0,0,1,.47,1.29,10.25,10.25,0,0,1,.14,1.77v.3a9.77,9.77,0,0,1-.25,2.4,2.39,2.39,0,0,1-2.64,2h-1.2v5.75ZM36.26,87H37a1,1,0,0,0,.73-.25,1.46,1.46,0,0,0,.32-.83,12.14,12.14,0,0,0,.08-1.53v-.28a6.59,6.59,0,0,0-.21-1.8.85.85,0,0,0-.91-.61h-.77Zm9.2,7.58V80h2.23V92.64h2.8v1.89Zm9.9,0V80h2.22V94.53Zm11.06.17a3,3,0,0,1-1.77-.49,2.89,2.89,0,0,1-1.05-1.43,6.42,6.42,0,0,1-.36-2.28V84.15a9,9,0,0,1,.17-1.81A4.06,4.06,0,0,1,64,81a2.45,2.45,0,0,1,1-.87,3.34,3.34,0,0,1,1.53-.31,3.39,3.39,0,0,1,1.42.27,2.47,2.47,0,0,1,1,.77,3.29,3.29,0,0,1,.54,1.23,7.1,7.1,0,0,1,.17,1.61v2H67.4V83.8a5.15,5.15,0,0,0-.18-1.59.71.71,0,0,0-.73-.51.79.79,0,0,0-.81.55,4.78,4.78,0,0,0-.2,1.54V90.6a7.13,7.13,0,0,0,.09,1.25,1.34,1.34,0,0,0,.29.71.82.82,0,0,0,1.34-.3,5.2,5.2,0,0,0,.2-1.68V88.49h2.18v2.06a7.18,7.18,0,0,1-.32,2.31,2.6,2.6,0,0,1-1,1.38,3.23,3.23,0,0,1-1.82.46Zm8.7-.17V80h2.22V94.53Zm8.83,0V81.87H82.24V80H87.8v1.92H86.16V94.53Zm18.36.17a3,3,0,0,1-1.77-.49,3,3,0,0,1-1.06-1.43,6.66,6.66,0,0,1-.35-2.28V84.15a9,9,0,0,1,.17-1.81A4.06,4.06,0,0,1,99.84,81a2.45,2.45,0,0,1,1-.87,3.34,3.34,0,0,1,1.53-.31,3.39,3.39,0,0,1,1.42.27,2.47,2.47,0,0,1,1,.77,3.29,3.29,0,0,1,.54,1.23,7.1,7.1,0,0,1,.17,1.61v2h-2.15V83.8a5.15,5.15,0,0,0-.18-1.59.71.71,0,0,0-.73-.51.79.79,0,0,0-.81.55,4.78,4.78,0,0,0-.2,1.54V90.6a7.13,7.13,0,0,0,.09,1.25,1.34,1.34,0,0,0,.29.71.82.82,0,0,0,1.34-.3,5.2,5.2,0,0,0,.2-1.68V88.49h2.18v2.06a7.18,7.18,0,0,1-.32,2.31,2.6,2.6,0,0,1-1,1.38,3.23,3.23,0,0,1-1.82.46Zm11.72,0a3.29,3.29,0,0,1-1.86-.48,2.89,2.89,0,0,1-1-1.43,6.89,6.89,0,0,1-.34-2.34V83.78a6.19,6.19,0,0,1,.33-2.15,2.73,2.73,0,0,1,1-1.38,3.35,3.35,0,0,1,1.89-.48,3.59,3.59,0,0,1,1.48.27,2.41,2.41,0,0,1,1,.8,3.3,3.3,0,0,1,.54,1.26,7.69,7.69,0,0,1,.17,1.68v6.67a7.47,7.47,0,0,1-.32,2.34,2.8,2.8,0,0,1-1,1.43,3.22,3.22,0,0,1-1.84.48Zm0-1.93a.76.76,0,0,0,.62-.25,1.55,1.55,0,0,0,.27-.75,9,9,0,0,0,.08-1.29v-6.8a4.72,4.72,0,0,0-.18-1.47.73.73,0,0,0-.77-.52.82.82,0,0,0-.82.51,3.72,3.72,0,0,0-.22,1.47v6.81a9.09,9.09,0,0,0,.08,1.3,1.37,1.37,0,0,0,.29.75.82.82,0,0,0,.65.24Zm8.82,1.76V80h1.74l3.09,8.75-.15-4V80h2V94.53H128l-3.17-9.06.12,3.83v5.23Zm13.24,0V81.87h-1.71V80h5.56v1.92H138.3V94.53Zm8.71,0V80h4.89v1.91H147V86.1h2.54V88H147v4.64h2.77v1.91Zm10.24,0V80h1.74l3.1,8.75-.16-4V80h2V94.53h-1.58L157,85.47l.12,3.83v5.23Zm13.24,0V81.87h-1.71V80h5.56v1.92h-1.64V94.53Z"/></g></g><g id="a0e02e1f-276f-4def-83df-4e1eb15bb65b"><g id="a305bed9-e77b-4857-b53f-a8a9d9fce4cc"><path d="M10.55,70.23l5.27-37h7.44l5.61,37H23.62l-.88-6.6h-6l-.8,6.6Zm6.76-11.12h4.84L19.67,40.54h-.09ZM34.24,70.23v-37h8.3a8.06,8.06,0,0,1,4.51,1.12,6.29,6.29,0,0,1,2.47,3.25,15.12,15.12,0,0,1,.77,5.12l0,16.69a19.57,19.57,0,0,1-.79,6A6.52,6.52,0,0,1,47,69.05a8.12,8.12,0,0,1-4.64,1.18Zm5.63-4.37h1.85a3.15,3.15,0,0,0,1.65-.4,2.41,2.41,0,0,0,1-1.42,9.82,9.82,0,0,0,.33-2.89l0-18.26A8.9,8.9,0,0,0,44,38.81a2.56,2.56,0,0,0-2.44-1.24H39.87ZM61.2,70.23l-5.73-37h5.35L63.24,50l1.49,11.77h.15L66.16,50l2-16.7h5.25l-5.27,37Zm17.93,0v-37h5.63v37Zm20.06.42a9.11,9.11,0,0,1-3.86-.72,5.75,5.75,0,0,1-2.44-2.13,9.56,9.56,0,0,1-1.27-3.4,25,25,0,0,1-.38-4.57v-3.3h5.34v3.72a13.21,13.21,0,0,0,.5,4.29,2,2,0,0,0,2,1.3,2.2,2.2,0,0,0,1.52-.47,2.61,2.61,0,0,0,.7-1.52,16.53,16.53,0,0,0,.18-2.72,8.18,8.18,0,0,0-.88-3.8A15.37,15.37,0,0,0,98,53.75l-2.74-2.81a21,21,0,0,1-2-2.5,11.41,11.41,0,0,1-1.45-2.95,11.57,11.57,0,0,1-.54-3.65,15.09,15.09,0,0,1,.71-4.94,5.69,5.69,0,0,1,2.42-3.06,9,9,0,0,1,4.67-1,8.47,8.47,0,0,1,3.66.69,5.18,5.18,0,0,1,2.25,2,9.3,9.3,0,0,1,1.15,3.2,25,25,0,0,1,.33,4.29v2.3H101.2V42.62a18.14,18.14,0,0,0-.18-2.8,3.18,3.18,0,0,0-.66-1.67A1.76,1.76,0,0,0,99,37.6a2.43,2.43,0,0,0-1.42.38,2.14,2.14,0,0,0-.79,1.2,7.55,7.55,0,0,0-.24,2.09,6.25,6.25,0,0,0,.29,2,5.44,5.44,0,0,0,.9,1.62c.41.51.91,1.09,1.52,1.74l3,3.3a19.64,19.64,0,0,1,3.41,4.9,13,13,0,0,1,1.22,5.67,18.63,18.63,0,0,1-.72,5.58,6.21,6.21,0,0,1-2.39,3.41,8,8,0,0,1-4.58,1.16Zm21.44,0a8.3,8.3,0,0,1-4.7-1.22,7.06,7.06,0,0,1-2.68-3.61,17.82,17.82,0,0,1-.86-5.93V43a15.75,15.75,0,0,1,.84-5.46A7,7,0,0,1,115.9,34a8.53,8.53,0,0,1,4.79-1.22,9,9,0,0,1,3.76.7,6.1,6.1,0,0,1,2.48,2,8.89,8.89,0,0,1,1.38,3.2,19,19,0,0,1,.43,4.27V59.89a18.42,18.42,0,0,1-.83,5.93,7,7,0,0,1-2.62,3.61,8.14,8.14,0,0,1-4.66,1.22Zm0-4.87a1.9,1.9,0,0,0,1.57-.64,3.81,3.81,0,0,0,.71-1.92,26.46,26.46,0,0,0,.17-3.27V42.72a12.06,12.06,0,0,0-.45-3.73,1.86,1.86,0,0,0-1.94-1.31A2,2,0,0,0,118.61,39a9.81,9.81,0,0,0-.55,3.75V60a24.74,24.74,0,0,0,.18,3.31,3.53,3.53,0,0,0,.74,1.91A2.11,2.11,0,0,0,120.63,65.78Zm15.24,4.45v-37h9.31a6.9,6.9,0,0,1,4.32,1.13,5.46,5.46,0,0,1,1.88,3.32,26.2,26.2,0,0,1,.46,5.34,15.48,15.48,0,0,1-.67,5.11,3.89,3.89,0,0,1-2.7,2.49,3,3,0,0,1,1.62.79,4.46,4.46,0,0,1,1,1.81,13.79,13.79,0,0,1,.58,3c.12,1.24.18,2.76.18,4.55V62c0,.65,0,1.41,0,2.28l0,2.62c0,.87,0,1.61.06,2.23a5.9,5.9,0,0,0,.11,1.09h-5.63a4,4,0,0,1-.1-1.08q0-1-.06-2.49c0-1,0-2.1,0-3.26s0-2.31,0-3.44V57a9.86,9.86,0,0,0-.24-2.51,1.86,1.86,0,0,0-.89-1.19,4.8,4.8,0,0,0-1.84-.4l-1.8-.1V70.23Zm5.65-21.83h2.25a2.29,2.29,0,0,0,1.56-.47,2.75,2.75,0,0,0,.74-1.7,24.53,24.53,0,0,0,.2-3.57v-.23a17.66,17.66,0,0,0-.19-3,2.11,2.11,0,0,0-.79-1.45,3.38,3.38,0,0,0-1.86-.4h-1.91Zm21,21.83V55.46l-6.2-22.21h5.38l3.65,13.82h.09l3.25-13.82H174l-5.9,22.21V70.23Z"/></g></g><g id="_569f83f7-1416-4815-a099-55a7c2b3ec9d" data-name="569f83f7-1416-4815-a099-55a7c2b3ec9d"><g id="ac83f964-6a36-4d19-997c-0aea79308f33"><path class="cls-1" d="M17.25,8.39h4A2.89,2.89,0,0,1,23.9,9.58,6.29,6.29,0,0,1,24.68,13,6.8,6.8,0,0,1,24,16.46a2.68,2.68,0,0,1-2.49,1.16H20.25v6h-3Zm3.18,6.47a1.34,1.34,0,0,0,.81-.2,1,1,0,0,0,.34-.59A5.92,5.92,0,0,0,21.66,13a3.39,3.39,0,0,0-.21-1.39.88.88,0,0,0-.86-.42h-.34v3.69Zm16.71,8.8L38.61,8.39h5.18l1.45,15.27H42.35l-.22-2.47H40.28l-.17,2.47Zm4.76-4.91L41.23,11h-.15l-.56,7.76ZM58.7,8.39h4.69a2.63,2.63,0,0,1,1.73.51A2.56,2.56,0,0,1,66,10.32a10.75,10.75,0,0,1,.21,2.34,4.78,4.78,0,0,1-.34,2,1.87,1.87,0,0,1-1.17,1,1.39,1.39,0,0,1,1,.69A3,3,0,0,1,66,17.88l0,5.78h-3v-6c0-.43-.08-.7-.24-.82a1.66,1.66,0,0,0-.91-.18v7H58.7Zm3.84,5.66c.43,0,.64-.46.64-1.39a5,5,0,0,0-.06-.91.69.69,0,0,0-.19-.42.71.71,0,0,0-.41-.11h-.71v2.83Zm17.27,9.61V8.39h6.11v2.95h-3v3H85.8v2.88H82.92v3.5h3.2v3Zm20,0V8.39h3.14l1.41,7.31V8.39h3V23.66h-3L102.76,16v7.64Zm22.8,0V11.33h-1.81V8.39h6.68v2.94h-1.81V23.66Zm17.29,0,1.48-15.27h5.17L148,23.66h-2.9l-.21-2.47H143l-.18,2.47Zm4.77-4.91L144,11h-.14l-.57,7.76Zm16.79,4.91V8.39h3.06V21.07h3.14v2.59Z"/></g></g></g></g></svg>