<svg xmlns="http://www.w3.org/2000/svg" viewBox="0 0 128.42 41.86"><defs><style>.cls-1{fill:#e55998;}</style></defs><title>Asset 16mdpi</title><g id="Layer_2" data-name="Layer 2"><g id="Layer_1-2" data-name="Layer 1"><g id="_5c97b19b-688c-47fd-a9f1-10595d5ce78b" data-name="5c97b19b-688c-47fd-a9f1-10595d5ce78b"><g id="_5c97b19b-688c-47fd-a9f1-10595d5ce78b-child-0" data-name="5c97b19b-688c-47fd-a9f1-10595d5ce78b-child-0"><path class="cls-1" d="M102.85,20.93c0,3.74-10.68,10.47-10.68,10.47s11.17-5.89,14.41-4,3.71,14.48,3.71,14.48.49-12.61,3.73-14.48,14.4,4,14.4,4-10.68-6.73-10.68-10.47,10.68-10.46,10.68-10.46-11.16,5.88-14.4,4S110.29,0,110.29,0s-.48,12.61-3.72,14.48-14.4-4-14.4-4,10.68,6.72,10.68,10.46Z"/></g></g><g id="_391f93b8-3472-4c03-a23c-61a361909f0c" data-name="391f93b8-3472-4c03-a23c-61a361909f0c"><g id="_391f93b8-3472-4c03-a23c-61a361909f0c-child-0" data-name="391f93b8-3472-4c03-a23c-61a361909f0c-child-0"><path class="cls-1" d="M56.77,20.93c0,3.74-10.68,10.47-10.68,10.47s11.16-5.89,14.4-4,3.72,14.48,3.72,14.48.49-12.61,3.73-14.48,14.4,4,14.4,4S71.66,24.67,71.66,20.93,82.34,10.47,82.34,10.47s-11.17,5.88-14.4,4S64.21,0,64.21,0s-.48,12.61-3.72,14.48-14.41-4-14.41-4,10.68,6.72,10.68,10.46Z"/></g></g><g id="_11dfc95d-7c22-4e24-bb06-4b39d55077b2" data-name="11dfc95d-7c22-4e24-bb06-4b39d55077b2"><g id="_11dfc95d-7c22-4e24-bb06-4b39d55077b2-child-0" data-name="11dfc95d-7c22-4e24-bb06-4b39d55077b2-child-0"><path class="cls-1" d="M10.69,20.93C10.69,24.67,0,31.4,0,31.4s11.16-5.89,14.4-4,3.72,14.48,3.72,14.48.48-12.61,3.72-14.48,14.41,4,14.41,4S25.58,24.67,25.58,20.93,36.26,10.47,36.26,10.47s-11.17,5.88-14.41,4S18.13,0,18.13,0s-.49,12.61-3.73,14.48-14.4-4-14.4-4,10.68,6.72,10.68,10.46Z"/></g></g></g></g></svg>