<svg xmlns="http://www.w3.org/2000/svg" viewBox="0 0 583.12 159.77"><defs><style>.cls-1{fill:none;stroke:#2d2d2d;stroke-linecap:round;stroke-miterlimit:10;stroke-width:5.86px;}.cls-2{fill:#2d2d2d;}</style></defs><title>Asset 8mdpi</title><g id="Layer_2" data-name="Layer 2"><g id="Layer_1-2" data-name="Layer 1"><g id="a84e5cc1-9fcc-4401-add8-baa662a3ffaa"><g id="a84e5cc1-9fcc-4401-add8-baa662a3ffaa-child-0"><path class="cls-1" d="M2.93,79.89a77,77,0,1,1,77,77,77,77,0,0,1-77-76.95Z"/></g></g><g id="c906b51b-de0f-44e1-bd66-bd2b58f3ddb8"><g id="c906b51b-de0f-44e1-bd66-bd2b58f3ddb8-child-0"><path class="cls-2" d="M125.81,79.89a45.77,45.77,0,0,1-9,27.31c-.27-5-2.8-9.68-6.92-13.51-10.55-9.77-26,5.64-16.19,16.18,3.83,4.13,8.48,6.66,13.51,6.93a45.9,45.9,0,0,1-54.62,0c5-.27,9.68-2.8,13.5-6.93,9.78-10.54-5.63-25.95-16.17-16.17-4.13,3.82-6.66,8.47-6.93,13.51a45.9,45.9,0,0,1,0-54.64c.26,5,2.79,9.68,6.92,13.51,10.54,9.77,25.95-5.63,16.18-16.18C62.25,45.77,57.6,43.25,52.57,43a45.89,45.89,0,0,1,54.63,0c-5,.26-9.68,2.79-13.51,6.92-9.78,10.55,5.64,25.95,16.18,16.18,4.13-3.83,6.66-8.48,6.93-13.51A45.78,45.78,0,0,1,125.81,79.89Z"/></g></g><g id="fb594e47-0730-469c-9aac-f7a0ff3cbd9e"><g id="fb594e47-0730-469c-9aac-f7a0ff3cbd9e-child-0"><path class="cls-1" d="M214.61,79.89a77,77,0,1,1,76.95,77A76.95,76.95,0,0,1,214.61,79.89Z"/></g></g><g id="_6e1dae62-b364-47b5-8cbb-e84b3d22a098" data-name="6e1dae62-b364-47b5-8cbb-e84b3d22a098"><g id="_6e1dae62-b364-47b5-8cbb-e84b3d22a098-child-0" data-name="6e1dae62-b364-47b5-8cbb-e84b3d22a098-child-0"><path class="cls-2" d="M337.48,79.89a45.7,45.7,0,0,1-9,27.31c-.27-5-2.8-9.68-6.93-13.51-10.55-9.77-26,5.64-16.18,16.18,3.83,4.13,8.47,6.66,13.51,6.93a45.92,45.92,0,0,1-54.63,0c5-.27,9.68-2.8,13.51-6.93,9.77-10.54-5.63-25.95-16.18-16.17-4.13,3.82-6.65,8.47-6.92,13.51a45.92,45.92,0,0,1,0-54.64c.27,5,2.79,9.68,6.92,13.51,10.55,9.77,26-5.63,16.18-16.18-3.82-4.13-8.47-6.65-13.5-6.92a45.89,45.89,0,0,1,54.63,0c-5,.26-9.68,2.79-13.51,6.92-9.78,10.55,5.63,25.95,16.18,16.18,4.13-3.83,6.65-8.48,6.92-13.51A45.78,45.78,0,0,1,337.48,79.89Z"/></g></g><g id="c4a88bb5-bede-48cb-9959-c5607aaaaf6f"><g id="c4a88bb5-bede-48cb-9959-c5607aaaaf6f-child-0"><path class="cls-1" d="M426.28,79.89a77,77,0,1,1,77,77A77,77,0,0,1,426.28,79.89Z"/></g></g><g id="_73519ca6-5771-41bb-a43f-b6811d525d99" data-name="73519ca6-5771-41bb-a43f-b6811d525d99"><g id="_73519ca6-5771-41bb-a43f-b6811d525d99-child-0" data-name="73519ca6-5771-41bb-a43f-b6811d525d99-child-0"><path class="cls-2" d="M549.16,79.89a45.71,45.71,0,0,1-9,27.31c-.27-5-2.79-9.68-6.92-13.51-10.55-9.77-26,5.64-16.18,16.18,3.82,4.13,8.47,6.66,13.51,6.93a45.92,45.92,0,0,1-54.63,0c5-.27,9.68-2.8,13.51-6.93,9.77-10.54-5.64-25.95-16.18-16.17-4.13,3.82-6.66,8.47-6.92,13.51a45.9,45.9,0,0,1,0-54.64c.26,5,2.79,9.68,6.92,13.51,10.55,9.77,25.95-5.63,16.18-16.18-3.82-4.13-8.48-6.65-13.51-6.92a45.89,45.89,0,0,1,54.63,0c-5,.26-9.68,2.79-13.51,6.92-9.77,10.55,5.64,25.95,16.19,16.18,4.12-3.83,6.65-8.48,6.92-13.51A45.78,45.78,0,0,1,549.16,79.89Z"/></g></g></g></g></svg>