<svg xmlns="http://www.w3.org/2000/svg" viewBox="0 0 589.58 589.58"><defs><style>.cls-1,.cls-2{fill:none;}.cls-1{stroke:#2d2d2d;stroke-linecap:round;stroke-miterlimit:10;stroke-width:3.07px;}.cls-3{fill:#2d2d2d;}</style></defs><title>Asset 18mdpi</title><g id="Layer_2" data-name="Layer 2"><g id="Layer_1-2" data-name="Layer 1"><g id="a4ca871f-5b89-417c-a561-9c739e426657"><g id="a4ca871f-5b89-417c-a561-9c739e426657-child-0"><path class="cls-1" d="M1.54,588.05V1.54H588.05V588.05Z"/></g></g><g id="ab64f0af-a096-4bac-b182-4a4baa00cd33"><g id="ab64f0af-a096-4bac-b182-4a4baa00cd33-child-0"><path class="cls-2" d="M439.48,504.05c33.37-28.43,61.51-86.51,65.41-112.94h0C540,243.92,425.1,95.71,277.62,85.94,212.4,80.9,143.06,104.61,98,153.78c-41,48.72-34.77,120-12.72,175.9h0C128.61,437.86,238.06,535.86,355.58,535.9h0c30.29-.58,62.66-11.3,83.9-31.91Z"/></g><g id="ab64f0af-a096-4bac-b182-4a4baa00cd33-child-1"><path class="cls-3" d="M444.22,166.43l0,0q-6.63-7.14-12.61-12.7a261.19,261.19,0,0,0-20.64-17.52,253.26,253.26,0,0,0-23.25-15.85c-5.36-3.1-10.69-6.16-17-9.36l-.12-.12c-3.26-1.64-6.36-3.13-9.41-4.5a240.91,240.91,0,0,0-30.69-11.53c-8.11-2.17-21.29-5.39-31.73-7.36a163.41,163.41,0,0,0-21-2.46l-2.6-.07c-2.35-.13-4.47-.2-6.49-.23-4.28-.14-8-.21-11.32-.2L255,84.43h-.55l-.69,0-.63,0-.52,0c-4,.07-8.91.48-12.83.82l-4.32.32a220.36,220.36,0,0,0-27.43,4.55,245.92,245.92,0,0,0-34.67,10.89c-7.71,3-17.26,8.06-25,12.11l-2.57,1.35a143.21,143.21,0,0,0-15.61,9.9c-5.06,3.76-11.36,8.68-17.2,13.52a4.31,4.31,0,0,0-.46.39l-.36.37c-2.06,1.68-3.91,3.27-5.57,4.74l.21.4h0l-.39-.28-.12.13a111.66,111.66,0,0,0-8.28,8.57c-.18.24-.36.42-.54.66l-.22.21c-1.18,1.36-2.3,2.77-3.45,4.22l-.31.42-.66.84c-1.37,1.84-2.61,3.55-3.71,5.24l-.21.21c0,.09-.12.18-.18.3a2.7,2.7,0,0,0-.15.27c-1.37,2.08-2.7,4.31-4,6.57l-.3.54-.46.81c-1.16,2.11-2.28,4.37-3.5,6.91-.33.75-.7,1.47-1,2.2-1.07,2.38-2,4.64-2.86,6.87l-.74,2-.18.6c-.73,2.05-1.4,4-2,6-.34,1.06-.65,2.14-.92,3.2-.58,2-1.1,4-1.59,6.15l-.13.54c-.18.79-.37,1.57-.52,2.39-.49,2.35-1,4.88-1.42,7.48l-.4,2.93-.12.78-.19,1.15c-.22,1.84-.43,3.74-.62,5.85l-.13,1.51-.06.85c-.19,2.29-.32,4.7-.42,7.15l0,.75L66.94,240c0,2.74,0,5.55,0,8.39l.08,2.69,0,.45c.08,2.57.22,5.07.42,7.46.06,1.15.17,2.29.29,3.44.23,2.36.5,4.86.82,7.37l.09.51.35,2.84c.41,2.9.91,5.83,1.45,8.73l.5,2.57.12.67c.56,2.87,1.16,5.52,1.75,8.18l.12.49.48,1.93c.68,2.81,1.48,5.8,2.41,9l.18.66.53,1.94c1,3.26,2,6.58,3.14,9.88l.5,1.48.21.63c1.32,3.75,2.54,7.11,3.74,10.25l.06.06.36,1,.06.06A309.66,309.66,0,0,0,98,360a354.35,354.35,0,0,0,63,85.67c29.12,29.33,63,53.55,98.53,69.68,32.12,14.61,64.82,22,94.62,21.45l.21,0,1.45-.05s0,0,.06,0c2.18-.06,4.53-.17,7.16-.37l1.48-.15.54,0c1.9-.15,3.81-.35,5.59-.56l.51-.09,1.24-.14A145.39,145.39,0,0,0,387,532.66c20.49-5,38.16-14.23,52.54-27.49l.19-.18c.63-.57,1.27-1.2,1.84-1.83l2.31-2.29c1.12-1.11,2.18-2.29,3.21-3.43,7.39-7.64,13.21-14.2,17.37-19.41a240.78,240.78,0,0,0,17.58-26.29c16.86-29,23.43-59.24,23.71-60.47,1.56-7.33,3.71-17.35,4.53-25.44l.09-.93.38-3.93,0-.39c.38-4.16.85-8.9,1-12.7l.14-5.2v-2.17c.11-6.85,0-12.23-.3-16.36l-.15-2.27c-.37-4.68-.74-10-1.3-14.16-1-7.76-2.3-15.47-3.46-20.63-.35-1.82-2.46-11.27-4.61-18.41-1.76-5.89-4.6-14.26-7.23-21.34l-.15-.27,0-.15-.15-.15-.09-.21-.42-1c-3.11-7.32-7.72-17.84-11.8-25.53a257.64,257.64,0,0,0-38-53.54ZM314,429.39l.36.18c2.56,1.25,5.22,2.59,7.84,3.77,27.73,12.6,56,19,81.65,18.51a243,243,0,0,1-12.4,32l-.18.42c-1,2.14-2.16,4.37-3.68,7.27-.09.21-.22.39-.28.57a4.71,4.71,0,0,1-.33.63c-1.16,2.17-2.37,4.28-3.47,6.15l-.51.87a10.5,10.5,0,0,1-.61,1.09c-1,1.62-2,3.25-3,4.79l-.39.57c-.22.33-.42.67-.61,1s-.58.88-.85,1.33c-.88,1.29-1.82,2.59-2.73,3.85l-.64.87c-.24.37-.48.67-.73,1s-.72,1-1.09,1.56c-.79,1-1.61,2-2.42,3l-.79,1a12.61,12.61,0,0,0-.85,1.08l-1.4,1.75c-.72.84-1.48,1.65-2.21,2.43l-.94,1.06c-.3.36-.64.69-.94,1.05s-1.12,1.3-1.7,1.87-1.36,1.41-2.09,2.07L355.23,535l-3.11,0-1.6,0c-.52,0-1,0-1.57,0s-2.12,0-3.17,0l-5.47-.29-1.05-.1-1.33-.06-1.93-.13c-2.54-.19-5.32-.5-8.63-.94l-.61-.06-.6-.06c-24.38-3.29-49.59-11.36-74.94-24C272.19,489.83,293.87,462.16,314,429.39ZM478.2,424a5.11,5.11,0,0,1,.55-.48c-.18.18-.4.33-.58.51Zm-.4,3c12-11.13,20.83-23.5,26.34-37l-.21.94c-.28,1.23-6.82,31.25-23.5,59.9A246.51,246.51,0,0,1,463,476.94c-1.18,1.47-2.51,3-3.94,4.76C468.93,466,475.19,447.61,477.8,427Zm-115,103.13c.76-.75,1.46-1.57,2.15-2.38l1.55-1.71c.73-.79,1.42-1.6,2.12-2.41s1.34-1.63,2-2.47l1.49-1.9c.67-.84,1.33-1.68,2-2.58s1.21-1.69,1.82-2.53l1.46-2c.64-.94,1.3-1.84,1.91-2.8s1.12-1.72,1.67-2.62l1.37-2.14c.63-1,1.27-2,1.88-3s1-1.78,1.52-2.65l1.27-2.29c.61-1.09,1.25-2.14,1.8-3.23s.94-1.78,1.37-2.68l1.21-2.41c.61-1.15,1.16-2.29,1.71-3.44l1.24-2.68,1.13-2.5c.55-1.21,1.13-2.44,1.64-3.68l1-2.65,1.07-2.56,1.55-4c.31-.85.64-1.72.95-2.62l.91-2.54c.52-1.47,1-2.89,1.53-4.34l.79-2.53.52-1.6.37-1.27c27.68-.89,51.87-9.8,70.16-25.73-2.74,21.84-9.6,41.17-20.44,57.46a105.42,105.42,0,0,1-8.22,10.93l-.66.66-1.49,1.66-.7.69c-1.51,1.57-3,3-4.39,4.48-14.36,13.78-32,23.43-52.58,28.61l-.36.12c-4.65,1.13-9.49,2.08-14.44,2.79l-.6,0-.49.06c-1.87.3-3.8.47-5.89.68l-2.08.2-5.53.31-.06.06c.23-.27.48-.53.73-.78l1.79-1.78C361.31,531.6,362.06,530.85,362.76,530.1ZM87.94,326c-.34.33-.7.64-1.06.94s-.85.72-1.25,1.11l0,0c-1.16-3.12-2.36-6.32-3.55-9.83h0l-.27-.81-.39-1.12c-1-3.11-2-6.29-3-9.73l-.81-2.75c-1-3.48-1.79-6.59-2.47-9.4l-.33-1.42-.2-1c-.57-2.39-1.07-4.83-1.61-7.43l-.14-.88-.48-2.41c-.53-2.72-.94-5.5-1.39-8.43l-.47-3.63c-.29-2.47-.58-4.89-.79-7.15l-.31-3.9c-.18-2.3-.29-4.53-.4-6.7V251l-.08-2.87c-.05-2.71-.07-5.46,0-8.09l.1-2.56,0-.52c.07-2.35.2-4.64.39-6.82l.25-3,.44-3.81.12-.78c21-19.22,51-33.51,86.74-41.34-3.31,27.94,1.44,59.44,13.7,91.19l-2.36,1.14c-1,.54-2.08,1.05-3.08,1.56s-2.27,1.16-3.36,1.76l-3,1.56c-1,.54-2,1.05-3,1.59l-3.24,1.77-2.9,1.62c-1,.54-2,1.08-3,1.62s-2.17,1.26-3.23,1.89l-2.79,1.62c-1,.54-1.87,1.08-2.81,1.65l-3.21,1.92-2.57,1.59-2.81,1.71c-1,.66-2,1.32-3,2L123.69,299,121,300.8c-1,.63-1.94,1.32-2.88,1.95l-2.45,1.65c-.88.63-1.76,1.2-2.6,1.8s-1.91,1.35-2.85,2l-2.3,1.69c-.82.57-1.63,1.2-2.48,1.8s-1.79,1.35-2.7,2.07l-2.18,1.68c-.78.6-1.57,1.21-2.33,1.84s-1.78,1.41-2.63,2.13l-2,1.65L91.33,323c-.79.72-1.61,1.41-2.39,2.13ZM389.26,210c-34.74-16.76-74-28.44-113.75-33.93a65.54,65.54,0,0,1,10.07-27.73,54.63,54.63,0,0,1,8.09-9.54l.06.06,4.19,2.1C330.65,157.59,362.17,181.46,389.26,210Zm-53.72-86.84c1.48,1.43,3,2.88,4.45,4.42l2.71,2.85c1.29,1.43,2.74,3,4.45,5l.81.82,1.66,1.91c1.5,1.81,3.09,3.84,5,6.35l.7.88.87,1.12c2.19,2.88,4.32,5.88,6.43,8.9l.75,1.12.57.94c1.86,2.72,3.36,5.08,4.77,7.35l1.41,2.33.69,1.12,3.78,6.48,2.07,3.84.12.12,3.45,6.5,2.09,4.24,3.27,6.86.42,1,1.5,3.27c1.19,2.72,2.33,5.5,3.29,7.8l.18.48a346.5,346.5,0,0,0-75.86-60.72l-.42-.24-6.36-3.68c-2.56-1.42-5.15-2.82-7.71-4.13l-.72-.36-1.54-.77-.18-.18A185,185,0,0,1,312.52,127a70.21,70.21,0,0,1,22.6-4.44ZM392.2,207l-.66-1.51-.8-2-1.35-3.3c-.81-1.84-1.68-3.63-2.49-5.35l-.84-1.76-.83-1.87-1.41-3-2.58-5-.9-1.7-.93-1.78-1.5-2.91-2.67-4.69-1-1.63-1-1.66L371.61,166l-2.67-4.2-1-1.58-1.05-1.66c-.6-1-1.2-1.94-1.86-2.85s-1.74-2.54-2.67-3.78l-1.12-1.54-1.11-1.61-2-2.78-2.7-3.39-1.15-1.46-1.17-1.48L351,136.89c-.81-1-1.68-1.93-2.53-2.84l-1.2-1.4L346,131.29l-2.53-2.85-5.77-5.81c16,0,33.46,4.44,50.64,13,6.73,17.51,8.38,43,4.86,73.8Zm-95.84-69-.57-.27-.63-.34a55.88,55.88,0,0,1,9.8-6.84C302,132.88,299.15,135.38,296.36,138Zm-22.94,39.68c-1.87,16.17.84,34.42,7.87,52.77l-.91.24c-.6.17-1.21.35-1.84.5s-2.54.72-3.78,1.11l-3.5,1-3.45,1c-1.18.33-2.39.69-3.56,1.08l-3.45,1.07c-1.27.36-2.51.75-3.75,1.13l-3,1-3.36,1.1c-1.42.45-2.87.93-4.29,1.44l-2.54.83-1.63.6c-4.08,1.41-8.25,2.9-12.33,4.42l-1.7.6-2.9,1.08-3.84,1.46-3.38,1.32-3.21,1.26c-1.21.47-2.42,1-3.63,1.49l-3.35,1.35-3.3,1.34c-1.27.54-2.51,1.05-3.75,1.62l-3.26,1.38c-1,.48-2.06.9-3.12,1.34l-3.72,1.71-3.23,1.47c-1,.45-2,.87-3,1.35s-2.42,1.14-3.6,1.7l-3.08,1.44-3.15,1.5-1.6.81-.82.39c-12.17-31.65-16.82-63-13.43-90.74C193.86,173.42,233.44,172.33,273.42,177.64ZM390,212.39l-.7,0-2.65.11c-1,.06-2.06.05-3.05.14s-2.54.17-3.78.26l-3.11.2-3.14.23-3.83.37-3.14.3-3.17.32-3.93.46-3.23.39-3.14.41-3.81.53-3.32.47-3.33.47-3.8.65-3.26.53-3.45.59-4,.74-3.35.62-3.32.65-4,.8-3.38.72-3.33.71-4,.89-3.41.8-3.32.78-3.81.95-3.48.86c-1.17.27-2.32.57-3.5.89s-2.39.63-3.57,1l-2.66.71c-7-18.17-9.68-36.11-7.81-52C315.43,183.41,355.05,195.33,390,212.39Zm-91,15.37.73-.18.81-.21c2.9-.72,5.8-1.37,8.67-2l.94-.21,1.12-.27,7.46-1.57,1.6-.33,1.6-.32c1.85-.39,3.69-.71,5.56-1.07l2.84-.53,2.21-.39c1.54-.26,3.11-.56,4.68-.79l3.2-.54,2.63-.44,4-.56,3.29-.5,3.08-.41c1.21-.18,2.39-.32,3.6-.44l3.32-.41,3.38-.41,3.14-.29,3.32-.35,3.66-.32,2.9-.23,3.11-.2c1.33-.12,2.62-.2,3.95-.26l2.75-.14,2.66-.11c.66-.06,1.33-.06,2-.08l-74.73,69a172.93,172.93,0,0,1-32.75-51.48C289.17,230.23,294.16,229,299,227.76Zm91.72-90.93a171,171,0,0,1,41.1,30.37c1.77,1.79,3.31,3.39,4.75,5l-6.21,5.68q-11.91,11-35.38,32.6C398.55,180.12,397.1,154.72,390.71,136.83Zm-.93-2.57a48,48,0,0,0-2.12-4.75c6.86,4.8,13.64,10,20.2,15.44A162.56,162.56,0,0,0,389.78,134.26Zm-57-13.8.4.4a72.56,72.56,0,0,0-15.5,2.51,105.82,105.82,0,0,1,11-6.57Zm-139.24-6.7a2.68,2.68,0,0,1,.49,0h.48c29.22-.08,61.41,7.56,93,22.08l4.31,2a58.1,58.1,0,0,0-7.82,9.39,68.33,68.33,0,0,0-10.37,28.53c-39.92-5.25-79.5-4.22-114.55,3.08,2.48-18.17,8.34-34.33,17.38-47.94A95.16,95.16,0,0,1,191,113.85l1,0Zm142.29,7-.06-.06c-.63-.64-1.32-1.22-1.95-1.79l-1.27-1.09-.36-.37-1.71-1.54c8.43-4.17,16.35-6.37,23.51-6.62a270.59,270.59,0,0,1,30.27,17.89,46.44,46.44,0,0,1,3,5.84C369.71,124.58,352,120.29,335.82,120.75ZM483.55,292c-.4.63-.82,1.24-1.25,1.84s-.7,1-1.06,1.47l-1.12,1.48c-.43.6-.85,1.2-1.34,1.81s-.85,1-1.24,1.53l-1.18,1.42-1.55,1.89L473.42,305l-.76.75a68.8,68.8,0,0,0,7.93-23.4c1.72,2.21,3.37,4.42,4.9,6.63l-.12.12c-.3.48-.64.93-.94,1.42l-.49.72h0ZM414,282.19l-.18-1.15-1.34-6.62-.23-1.15-.3-1.57-.44-2.2-1.25-5.5-.39-1.54-.35-1.69-.63-2.75-1.25-4.72-.48-1.75-.44-1.78-.84-3.15-1.22-4.2-1-3.53-1.08-3.57-1.28-3.84-1.16-3.54-1.29-3.77-1.28-3.6-1.08-2.9c27.51,30.68,49.39,65.63,63.39,101.24-10.36,9.33-24.24,14.56-40.12,15.16a397.16,397.16,0,0,0-5.58-50.89h0Zm-19.57-64.5,1.13,3,1.44,3.93L398.1,228l.6,1.81.6,1.82,1.37,4.17,1,3.29,1,3.54L404,247l.75,2.93.47,1.81.48,1.7c.42,1.63.89,3.26,1.28,4.92l.59,2.54.39,1.72.36,1.45c.44,1.91.89,3.81,1.27,5.71l.48,2.36a15,15,0,0,1,.29,1.63l.3,1.27,1.22,6.25.32,2,.27,1.48.14.87,1.19,7.19.23,1.69.21,1.42,1.14,8.49.12,1.27.15,1.12c.29,2.78.67,6,1,9.15l.06.9.05.73c.35,4,.58,7.07.78,9.93l0,.58.22,5.13,0,.88c-16.12.24-33.86-4.17-51.28-12.81,13.69-36.57,23.25-72.58,27.62-104.36Zm68.14,98.52c-.4.39-.85.78-1.24,1.17-13.94-35.37-35.85-70.23-63.43-101C431.59,234,459.59,256,479,280.31a66.47,66.47,0,0,1-10.12,28.1,57.34,57.34,0,0,1-5.77,7.23ZM397.46,214.05l3.62-.05,2.93,0,2.39,0,2.83.07,4.17.08,2.05.13,1.78.09,5.13.32,1.72.16,1.33.13c1.83.14,3.64.33,5.43.56l1.57.19,1,.12c1.72.22,3.65.47,5.49.81l1.39.24.87.16c1.75.3,3.56.61,5.28,1l1.3.28.81.21c1.6.34,3.29.77,4.92,1.2l1.24.33.78.25c1.39.43,3,.89,4.53,1.4l1.2.43.69.28c1.3.45,2.75,1,4.1,1.58a10.45,10.45,0,0,1,1.24.52l.63.27,3.38,1.58c6.91,17.87,9.68,35.57,8,51.33C459.51,253.46,431.24,231.47,397.46,214.05Zm-32.6,106.42a173.49,173.49,0,0,1-47.06-36c27.27-25.14,53.07-48.95,74.64-68.92C388.16,247.46,378.64,283.69,364.86,320.47Zm41.52,129.45.21-.57.58-1.9.67-2.47.4-1.48.34-1.18c.43-1.62.92-3.25,1.31-4.91l.59-2.39.33-1.47.28-1.18c.4-1.72.83-3.47,1.2-5.22l.52-2.32a10.72,10.72,0,0,1,.28-1.48l.21-1.12q.58-2.75,1.11-5.61l.37-2.11.22-1.42.12-.78,1.08-6.37.25-1.93c.06-.42.09-.87.18-1.33l.07-.54c.35-2.31.66-4.67.93-7.06l.18-1.75.13-1.33,0-.21c.25-2.53.56-5.13.78-7.76a10.27,10.27,0,0,0,.1-1.47l.1-1.18c.25-3.14.44-5.8.57-8.51l.07-1.21.06-1c.13-2.89.26-6,.33-9.11l0-.76v-.66c.18-7.82.09-16-.24-24.18,16.06-.67,30.12-5.9,40.75-15.19a265.23,265.23,0,0,1,12.76,43.94l.53,3,.15,1c.47,2.54.83,4.59,1.06,6.46s.47,3.27.68,4.93l.64,5.8.38,4.5c.17,2.29.31,4.49.39,6.64l.14,3.23c.05,3.14.07,6,0,8.72l0,.94c-.11,4.08-.39,8.33-.93,13.31C458.28,439.67,434.16,448.88,406.38,449.92ZM477.2,227.65c-1-.6-2-1.18-3.25-1.88l-.54-.3-.67-.37a167,167,0,0,0-10-20.71Q471,216,477.89,228.11Zm-8.13-4.31-1.3-.58-.87-.4c-1.81-.73-3.68-1.46-5.58-2.1l-.3-.12c-2.08-.7-4.28-1.41-6.58-2L454,218l-.33-.09-6.09-1.47-1.3-.28-.81-.15-5.13-1-.49-.06-.6-.12-.36-.07-.7-.09-.57-.09-5-.71-.69-.1-.88-.09-.48-.06-1.06-.1-5.07-.5-.87-.09-1.18-.1-.69,0-.58,0-5.31-.32-1.08-.07-1.42-.1h-1l-5.83-.11-1.11,0-1.6,0h-.61c-2.05,0-4.31,0-7.06.09q23.57-21.76,35.56-32.9l6.15-5.68.3.3,2.74,3a167.87,167.87,0,0,1,29.26,46.93Zm-152.6,62.44a175.85,175.85,0,0,0,47.72,36.44A635.82,635.82,0,0,1,313.27,427c-29.51-15-57.87-36.59-82-62.55C259.16,338.65,288.54,311.52,316.47,285.78Zm176.81-13.45-.21.7-.22.63c-.21.63-.36,1.27-.61,1.93l-.49,1.15c-.12.24-.18.48-.3.72l-.24.6c-.25.67-.52,1.3-.83,2s-.39.82-.6,1.21l-.67,1.38-1,1.93-.79,1.33-.48.84-.34.51c-1.83-2.63-3.66-5.08-5.55-7.47,2-15.88-.54-33.82-7.24-52l2.65,1.52,1.27.85.45.34,1.83,1.3a260,260,0,0,1,15.13,32l-.06.36-.12,1c-.07.67-.13,1.27-.25,1.94l-.25,1-.15.63-.12.61c-.16.63-.28,1.29-.46,2Zm-178.1,12.09c-27.9,25.77-57.29,52.83-85.19,78.6-24.83-27-44.52-58-57-89.72a623.61,623.61,0,0,1,109-41.14A174.42,174.42,0,0,0,315.18,284.42Zm50.91,38.74c1.38.67,2.74,1.37,4.12,2,16.19,7.39,32.69,11.11,47.72,10.86,1.61,40.28-3.07,79.69-13.49,114-28.1.65-59.05-7-89.49-22.16a641,641,0,0,0,50.92-104.75Zm73.65-153.91L438,170.87c-1.77-1.9-3.4-3.54-4.9-5.06a308.1,308.1,0,0,0-47.4-39.93,44.8,44.8,0,0,0-5.86-7.9l6.9,4h0a233.43,233.43,0,0,1,23.1,15.69,264.62,264.62,0,0,1,20.52,17.47c3.7,3.42,7.7,7.45,11.85,11.94C441.65,167.48,440.86,168.2,439.74,169.25Zm-57.92-46c-7.74-5.07-15.63-9.75-23.52-13.88a31.93,31.93,0,0,1,11.55,3.21,32.53,32.53,0,0,1,8,5.92A37.81,37.81,0,0,1,381.82,123.27Zm-52.89-8.74-1-1-1.75-1.33-1.14-.91-1-.82-4.25-3.31-1.29-.88-1-.63-.24-.25c-1.9-1.3-3.79-2.67-5.72-3.88l-1-.58-.82-.46c-2.11-1.27-4.37-2.64-6.69-3.82l-.63-.34-.54-.24a112.39,112.39,0,0,0-16.16-6.82c-2.8-1-5.7-1.75-8.59-2.42,23.84,1.6,48.57,8.57,73.58,20.74A67.18,67.18,0,0,0,328.93,114.53ZM276.41,88.71c2.41.55,5,1.25,7.87,2.17l.48.18.69.22c2.39.76,4.86,1.74,7.39,2.77l1.39.61c1.77.76,3.55,1.58,5.63,2.65l1,.49,1.68.85c2.23,1.15,4.49,2.46,6.84,3.92l.45.27.49.24c2.44,1.55,5,3.28,7.65,5.16l1.29,1,.9.67c1.45,1.09,3.38,2.55,5.3,4.13l1.42,1.24.24.24a117.66,117.66,0,0,0-15.62,9.91,58.22,58.22,0,0,0-18.12,11.07l-6.78-3.19-3.68-1.59-2-.82-.6-.24c-30.15-12.85-59.47-19.18-87.15-18.83,18-15.69,41.9-24.39,69.17-25.23l.39,0a4.54,4.54,0,0,0,.9.06l1.45.13,3.17.4.57.09.79.13,1.11.15C272.64,87.88,274.54,88.28,276.41,88.71ZM229,88.63l-.82.26-.84.3a14.66,14.66,0,0,0-1.46.48c-.75.27-1.48.57-2.2.87l-.82.33-.88.33-1.51.59c-.72.3-1.45.66-2.14,1l-.82.39-.85.42c-.51.21-1,.45-1.48.69s-1.42.75-2.15,1.17l-.78.42-.82.45c-.51.27-1,.51-1.48.81s-1.42.87-2.12,1.32l-.82.51a6.87,6.87,0,0,0-.81.51l-1.4.84c-.72.48-1.42,1-2.08,1.47l-.79.54a6.66,6.66,0,0,1-.82.57l-1.36,1c-.73.54-1.42,1.11-2.15,1.65l-.73.6-.78.6c-.43.36-.88.69-1.31,1.05s-1.57,1.32-2.33,2l-.6.6a9.06,9.06,0,0,1-.76.63c-.3.3-.64.57-1,.84a149.68,149.68,0,0,0-31.6,4.29c-.51.15-1,.3-1.57.42l-1,.3-.22,0c-1.54.44-3.11.86-4.62,1.34s-2.66.89-4,1.34L146,120c-.69.21-1.42.45-2.11.72-1.42.57-2.94,1.16-4.84,2l-2.15.93c-1.69.78-3.36,1.59-4.93,2.37-.42.24-.88.45-1.3.69l-.42.24-.4.21,1.52-1.14a138,138,0,0,1,15.34-9.76l2.57-1.35c7.62-4.08,17.15-9.08,24.77-12.08,9.28-3.61,23.16-8.36,34.37-10.77,9-2,16.61-3.32,22.59-4.08C230.37,88.21,229.73,88.42,229,88.63ZM125.36,131.81l.36-.24.49-.3c1.48-.87,3.11-1.77,5.11-2.85l.51-.27c.34-.15.64-.33,1-.48,1.6-.81,3.27-1.62,5.11-2.43.61-.3,1.21-.53,1.79-.8,1.81-.78,3.47-1.47,5.11-2.07.54-.18,1.11-.39,1.63-.6l.6-.18c1.54-.56,3.21-1.13,4.9-1.67.94-.27,1.9-.56,2.87-.8l1.78-.51c.88-.27,1.79-.51,2.69-.74A144.67,144.67,0,0,1,188.19,114a94,94,0,0,0-13.25,15.92c-9.35,14-15.33,30.68-17.78,49.41-35.47,7.66-65.38,21.65-86.65,40.47l.41-2.62c.37-2.48.83-4.92,1.32-7.27l.61-2.6.1-.45c.49-2,1-4,1.5-5.88l1-3.41c.58-1.9,1.22-3.8,1.89-5.67l.24-.66c.22-.63.43-1.33.7-2,.83-2.2,1.77-4.46,2.78-6.72l1-2.23c1.19-2.57,2.31-4.76,3.41-6.75l.45-.82.34-.57c1.3-2.32,2.61-4.4,3.91-6.42l.25-.36.27-.45c1.09-1.69,2.31-3.37,3.67-5.15L95,159l.36-.48c1.19-1.54,2.28-2.92,3.4-4.22l.7-.81A113,113,0,0,1,108.8,144a9.9,9.9,0,0,1,.85-.73c.18-.18.42-.36.6-.54A113.6,113.6,0,0,1,125.36,131.81ZM229.92,365.62c24.3,26.11,52.75,47.86,82.37,62.92-20.13,32.86-41.85,60.49-62.84,79.95C215.06,491.13,182.07,466,154,435.68,175.82,415.54,202.09,391.27,229.92,365.62Zm263,41.06a108.8,108.8,0,0,0,13-27.55,92.28,92.28,0,0,1-16.51,32.58C490.6,410.05,491.79,408.39,492.91,406.68Zm-13.78,3.39v-.67c0-3,.08-6.09,0-9.08L479,398l0-.75-.37-6.86-.41-4.47c-.14-1.9-.38-3.83-.64-5.92l-.65-4.89-.14-1-.15-1.24-.47-2.65-.3-1.63-.18-1-.53-3c-.62-3.17-1.3-6.47-2.11-9.82l-.15-.58a273.19,273.19,0,0,0-10.8-34.81c.82-.82,1.64-1.63,2.43-2.47l5.69-5.66c.52-.57,1-1.08,1.55-1.65l1.67-1.84,1.36-1.53a18.13,18.13,0,0,0,1.43-1.6c.51-.57,1-1.17,1.51-1.8l1.24-1.54c.46-.51.88-1.05,1.28-1.56s.88-1.12,1.27-1.69l1.16-1.56c.39-.52.81-1.06,1.18-1.6l1.12-1.66,1-1.56c.21-.33.43-.66.67-1,11.68,17.17,18.86,34.64,21.34,52a100.06,100.06,0,0,1,.88,13.62c-2.39,18.74-8.31,35.32-17.57,49.32a94.38,94.38,0,0,1-12.82,15.45C478.83,417.77,479,414.14,479.13,410.07Zm30.74-67.64c-2.53-17.94-10-35.93-22.11-53.54.09-.21.24-.42.36-.67l.73-1.26c.36-.54.67-1.08,1-1.63a12.08,12.08,0,0,0,.73-1.5l.76-1.48c.28-.57.58-1.12.85-1.69l.58-1.48.58-1.41c.27-.57.52-1.12.73-1.69l.46-1.42.46-1.47.52-1.6.3-1.39.34-1.42.31-1.33c9.45,25.28,14,49.84,13.62,72.93h0l0,2.27,0,.81ZM497,263.5l0-.21.06-.36,0-1.36v-1.33l0-.81c1.29,3.71,2.39,7.13,3.2,9.88,1.34,4.5,3,11.18,4.52,17.95A244.8,244.8,0,0,0,497,263.5ZM483.79,235l.81.7,1.5,1.52,1.75,2a12.42,12.42,0,0,1,1.11,1.48l.24.24,1.41,2,.93,1.72.27.52,1.11,2.27.12.3a28.84,28.84,0,0,1,1.19,3.5l.12.55.09.51,0,.15A24.91,24.91,0,0,1,495,255l.06.73.06.6.06.42.17,2.12a1,1,0,0,0,0,.42A266.35,266.35,0,0,0,483.79,235Zm3,.29L485.6,234l-2.47-2.18-1.08-1.09-.3-.18-.18-.18a302.76,302.76,0,0,0-39.2-54.58c-1-1.18-2-2.33-3.09-3.48l1.78-1.66c1.09-1,1.85-1.71,2.4-2.25a252.5,252.5,0,0,1,22.08,27.7,256.92,256.92,0,0,1,15.07,24.81c2.16,4.06,4.67,9.26,7.61,15.85ZM88.69,335.52,88,333.85l-1.65-4c.7-.63,1.4-1.26,2.12-1.86l2-1.81c.64-.57,1.27-1.14,1.94-1.68l2.39-2L97,320.72c.76-.63,1.49-1.23,2.27-1.83s1.55-1.23,2.36-1.86l2.31-1.75,2.54-2c.76-.57,1.57-1.14,2.33-1.71l2.42-1.74c.94-.69,1.85-1.35,2.85-2.05l2.15-1.47,2.39-1.65c1.12-.75,2.21-1.53,3.36-2.31.63-.39,1.3-.81,1.9-1.23l2.39-1.53c1.3-.87,2.64-1.71,4-2.55.57-.39,1.24-.75,1.87-1.14l2.33-1.47c1.43-.88,2.85-1.75,4.33-2.62.48-.3,1-.6,1.51-.9l1.73-1c1.84-1.11,3.69-2.16,5.56-3.24.37-.18.7-.39,1.06-.57l.85-.48c2.39-1.35,4.78-2.63,7.2-3.95l1-.54c4.2-2.25,8.65-4.56,13.61-7,12.56,31.81,32.37,62.92,57.33,90.12-27.78,25.65-54.1,49.91-76,70.06a364.67,364.67,0,0,1-26.9-32.85l-.45-.7c-2.34-3.21-4.39-6.17-6.31-9l-.6-1-.54-.84c-1.74-2.55-3.51-5.3-5.28-8.12l-.81-1.36-.66-1.09-4.59-7.65-1.08-1.94-.75-1.42-.51-.88c-1.11-2-2.25-4-3.33-6.08L99.62,359l-.81-1.6-.66-1.33c-.88-1.69-1.75-3.42-2.61-5.17l-1.31-2.84-.75-1.67-.78-1.63-2.07-4.51-1.23-3ZM330.06,96.21h0l-.1.45a236.06,236.06,0,0,1,29.25,10.92,34.1,34.1,0,0,0-4.95-.2A238.8,238.8,0,0,0,328.64,96.3l1.32.36Z"/></g></g><g id="a4439bb4-5ef9-4e0f-afbf-6da782d74e66"><g id="a4439bb4-5ef9-4e0f-afbf-6da782d74e66-child-0"><path class="cls-3" d="M42,67.62V42H67.62V67.62Z"/></g></g><g id="c68625a5-1317-49dc-bdc7-8018d5b5ffa7"><g id="_458aa07f-9d2b-4334-b7bd-a37d831eaa06" data-name="458aa07f-9d2b-4334-b7bd-a37d831eaa06"><path class="cls-3" d="M458.72,60,454,42.15h3.8l3.14,13.29,3.18-13.29h3.78l3.21,13.34,3.11-13.34h3.83L473.33,60h-4.51L466,48.65,463.23,60Zm21.36-8.94a9.4,9.4,0,0,1,1.18-4.79,8.33,8.33,0,0,1,3.3-3.2A9.91,9.91,0,0,1,489.39,42a9.76,9.76,0,0,1,4.82,1.15,8.41,8.41,0,0,1,3.28,3.2,10.31,10.31,0,0,1,0,9.58,8.41,8.41,0,0,1-3.28,3.2,9.76,9.76,0,0,1-4.82,1.15,9.91,9.91,0,0,1-4.83-1.15,8.33,8.33,0,0,1-3.3-3.2A9.4,9.4,0,0,1,480.08,51.09Zm3.77,0a6.36,6.36,0,0,0,.66,3,4.65,4.65,0,0,0,1.9,2,5.87,5.87,0,0,0,3,.72,5.47,5.47,0,0,0,4-1.49,5.67,5.67,0,0,0,1.5-4.19A5.77,5.77,0,0,0,493.44,47a5.27,5.27,0,0,0-4.05-1.56,5.5,5.5,0,0,0-4,1.49,5.57,5.57,0,0,0-1.54,4.19ZM502.3,60V42.15h8.25a6,6,0,0,1,4.33,1.43,5,5,0,0,1,1.5,3.78,4.81,4.81,0,0,1-1.15,3.36,5.2,5.2,0,0,1-3,1.63L516.92,60h-4.27l-4.37-7.38h-2.35V60Zm3.63-14.45v4h4.47A2.29,2.29,0,0,0,512,49a1.88,1.88,0,0,0,.58-1.48A1.93,1.93,0,0,0,512,46.1a2.25,2.25,0,0,0-1.63-.52ZM520.06,60V42.15h3.63V56.57h7.95V60Zm14.81,0V42.15h6a10.08,10.08,0,0,1,4.84,1.12A8.37,8.37,0,0,1,549,46.4a9.82,9.82,0,0,1,0,9.37,8.33,8.33,0,0,1-3.28,3.14A10.08,10.08,0,0,1,540.83,60Zm3.63-3.46h2.33a5.59,5.59,0,0,0,4-1.44,5.33,5.33,0,0,0,1.52-4,5.52,5.52,0,0,0-1.46-4,5.38,5.38,0,0,0-4.07-1.52H538.5Zm-50.87,38-4.71-17.88h3.8L489.86,90,493,76.72h3.78L500,90.06l3.11-13.34H507L502.25,94.6h-4.52l-2.79-11.38L492.15,94.6Zm22.45-17.88h3.63V94.6h-3.63ZM518,94.6V76.72h6a10.08,10.08,0,0,1,4.84,1.13A8.28,8.28,0,0,1,532.08,81a9.82,9.82,0,0,1,0,9.37,8.2,8.2,0,0,1-3.28,3.14A10.08,10.08,0,0,1,524,94.6Zm3.63-3.45H524a5.55,5.55,0,0,0,4-1.45,5.31,5.31,0,0,0,1.52-4,5.52,5.52,0,0,0-1.46-4A5.36,5.36,0,0,0,524,80.16h-2.32Zm27.9,0V94.6H536.9V76.72h12.4v3.44h-8.77v3.77H548v3.24h-7.48v4Z"/></g></g></g></g></svg>