<svg xmlns="http://www.w3.org/2000/svg" viewBox="0 0 854.18 609.18"><defs><style>.cls-1,.cls-2{stroke:#fff;stroke-linecap:round;stroke-miterlimit:10;stroke-width:13.18px;}.cls-2,.cls-3{fill:#fff;}</style></defs><title>Asset 20mdpi</title><g id="Layer_2" data-name="Layer 2"><g id="Layer_1-2" data-name="Layer 1"><g id="dda2a27a-1f77-442e-b036-6c3e198e1354"><g id="dda2a27a-1f77-442e-b036-6c3e198e1354-child-0"><path class="cls-1" d="M6.59,172.59V6.59h841v166Z"/></g></g><g id="eec2ff7b-059e-409e-95c7-b7c8022014fd"><g id="eec2ff7b-059e-409e-95c7-b7c8022014fd-child-0"><path class="cls-2" d="M6.59,436.59v-264h841v264Z"/></g></g><g id="_485ece4b-7b03-422a-8fad-ff54f16aeb4a" data-name="485ece4b-7b03-422a-8fad-ff54f16aeb4a"><g id="_485ece4b-7b03-422a-8fad-ff54f16aeb4a-child-0" data-name="485ece4b-7b03-422a-8fad-ff54f16aeb4a-child-0"><path class="cls-1" d="M6.59,602.59v-166h841v166Z"/></g></g><g id="b9532e51-4828-4316-bd5e-5fe0d4fbc8bf"><g id="_9653852d-8a4f-4578-a10c-0abf8d2b1748" data-name="9653852d-8a4f-4578-a10c-0abf8d2b1748"><path class="cls-3" d="M72.09,135.09v-91H93.3a22.22,22.22,0,0,1,9.15,1.65,13.14,13.14,0,0,1,5.76,4.9,22.1,22.1,0,0,1,3,8,60.08,60.08,0,0,1,.89,11v1.91a62.44,62.44,0,0,1-1.54,14.94A16.9,16.9,0,0,1,105,95.89q-4,3.19-11.24,3.2H86.09v36Zm14-48h4.85a6.21,6.21,0,0,0,4.62-1.55,9,9,0,0,0,2-5.14,71.51,71.51,0,0,0,.5-9.58V69.07a38.63,38.63,0,0,0-1.31-11.18c-.84-2.53-2.76-3.8-5.74-3.8h-5Zm78,48,13.12-92h18.51l14,92H196.4l-2.14-16H179.79l-1.93,16Zm16.86-27h12l-6.15-46h-.2Zm87.1,27v-92h23.22q7.24,0,10.81,2.82a13.73,13.73,0,0,1,4.68,8.26,66,66,0,0,1,1.13,13.28c0,5.39-.56,9.64-1.65,12.73a9.74,9.74,0,0,1-6.73,6.19,7.59,7.59,0,0,1,4,2,11.11,11.11,0,0,1,2.62,4.5,35,35,0,0,1,1.44,7.57q.45,4.63.45,11.33v2.92c0,1.6,0,3.49,0,5.67s.05,4.35.08,6.51.09,4,.16,5.54a13.9,13.9,0,0,0,.26,2.72h-14a11.77,11.77,0,0,1-.23-2.68c-.06-1.61-.12-3.67-.17-6.16s-.08-5.19-.1-8.07,0-5.71,0-8.5v-7.42a24.13,24.13,0,0,0-.6-6.21,4.51,4.51,0,0,0-2.22-2.94,11.57,11.57,0,0,0-4.63-1l-4.55-.26v43.23Zm14-54h5.68a5.92,5.92,0,0,0,4-1.16c.91-.76,1.52-2.17,1.86-4.24a59,59,0,0,0,.5-8.92V66.2a44.65,44.65,0,0,0-.47-7.5,5.19,5.19,0,0,0-2-3.61,8.64,8.64,0,0,0-4.7-1h-4.83Zm88,54v-91h31v11h-17v27h16v12h-16v29h17v12Zm92,0v-92H472l20.13,55.19-1-25.09V43.09h13v92h-9.64L474.3,78l.79,24.14v33Zm111,0v-79h-11v-12h35v12h-10v79Zm74.14,0,13.12-92h18.5l13.95,92H679.5l-2.15-16H662.89l-1.94,16Zm16.85-27h12l-6.15-46h-.21Zm87,27v-92h14v80h18v12Z"/></g></g><g id="d179bccf-e93f-4499-9c61-2acab06d570e"><g id="e0575028-21a5-4534-a3e2-b7583d009513"><path d="M57.36,393.09l25.24-177h35.61l26.85,177H119.58l-4.15-31h-28l-3.76,31Zm32.37-53h23.15l-11.87-89h-.41Zm74.36,53v-177H203.9q13.5,0,21.67,5.39A30.23,30.23,0,0,1,237.41,237q3.68,10.16,3.68,24.53l.1,79.86q0,17.4-3.78,28.91t-12.14,17.15q-8.37,5.64-22.28,5.63Zm28-21h8.84a15,15,0,0,0,7.88-1.91c2.11-1.27,3.69-3.52,4.73-6.77s1.55-7.84,1.55-13.79l-.1-87.15q0-13.55-3.32-19.46T200,237.09h-7.93Zm95.53,21-27.46-177h25.69l11.54,79.8,7.12,56.2h.7l6.13-56.2,9.63-79.8h25.18l-25.24,177Zm79.47,0v-177h27v177Zm90.29,2.7q-11.14,0-18.59-3.47a27.39,27.39,0,0,1-11.74-10.18,45.34,45.34,0,0,1-6.13-16.32,118.12,118.12,0,0,1-1.83-21.92V328.09h26v17.83q0,14.29,2.42,20.55t9.55,6.25c3.22,0,5.66-.75,7.31-2.27s2.75-3.93,3.32-7.25a80.35,80.35,0,0,0,.85-13.05,39.84,39.84,0,0,0-4.17-18.23,73.58,73.58,0,0,0-12.64-17.13l-13.08-13.5a96.18,96.18,0,0,1-9.81-12,55.07,55.07,0,0,1-6.95-14.16,55.72,55.72,0,0,1-2.57-17.47q0-14,3.42-23.68a27.16,27.16,0,0,1,11.58-14.65q8.15-5,22.34-5,10.66,0,17.56,3.27A24.88,24.88,0,0,1,485,227.19a43.61,43.61,0,0,1,5.47,15.32,117.38,117.38,0,0,1,1.62,20.6v11h-25v-12.7a85.88,85.88,0,0,0-.86-13.4q-.86-5.33-3.19-8t-6.78-2.67a11.7,11.7,0,0,0-6.89,1.86,10.4,10.4,0,0,0-3.8,5.74,36,36,0,0,0-1.16,10,29,29,0,0,0,1.42,9.58,27.31,27.31,0,0,0,4.35,7.75c2,2.49,4.39,5.29,7.3,8.37l14.68,15.82a95.17,95.17,0,0,1,16.41,23.46,62.11,62.11,0,0,1,5.86,27.21q0,15.92-3.44,26.74t-11.54,16.38q-8.1,5.53-22.07,5.54Zm97-.92q-13.73,0-22.4-5.81T519.2,371.81q-4.11-11.43-4.11-28.27V262.83q0-15.24,4-26.07a33.22,33.22,0,0,1,12.73-16.64q8.71-5.81,22.85-5.81,10.64,0,18,3.31a28.9,28.9,0,0,1,11.82,9.57A41.64,41.64,0,0,1,591,242.43a91.74,91.74,0,0,1,2.06,20.4v80.71q0,16.84-4,28.27t-12.47,17.25q-8.53,5.81-22.26,5.81Zm0-23.15c3.35,0,5.85-1,7.52-3s2.8-5.08,3.37-9.19a117.32,117.32,0,0,0,.86-15.61V261.55q0-11.55-2.16-17.82t-9.29-6.28q-7.33,0-9.95,6.08c-1.73,4.06-2.6,10-2.6,17.92v82.46a119.38,119.38,0,0,0,.85,15.81c.57,4.11,1.74,7.15,3.52,9.09s4.4,2.91,7.88,2.91Zm66.75,21.37v-177h44.7q13.94,0,20.79,5.44t9,15.88A128.56,128.56,0,0,1,697.79,263q0,15.59-3.18,24.48t-13,11.93a14.6,14.6,0,0,1,7.77,3.77,21,21,0,0,1,5.05,8.64,67.07,67.07,0,0,1,2.77,14.58q.85,8.91.86,21.78v5.62q0,4.64,0,10.92t.15,12.52q.11,6.24.3,10.66a26.74,26.74,0,0,0,.51,5.23h-27c-.2-.33-.35-2.06-.45-5.17s-.21-7.07-.31-11.88-.17-10-.2-15.55,0-11,0-16.39V329.8a46.14,46.14,0,0,0-1.17-12,8.69,8.69,0,0,0-4.25-5.67,22.19,22.19,0,0,0-8.86-1.9l-8.72-.5v83.34Zm27-104H659c3.32,0,5.85-.73,7.58-2.21s2.92-4.21,3.57-8.19a115.37,115.37,0,0,0,1-17.16v-1.11a86.42,86.42,0,0,0-.91-14.44c-.62-3.37-1.89-5.69-3.83-7s-4.93-1.92-9-1.92h-9.26Zm94,104v-71l-29.59-106h25.68l17.45,66h.4l15.55-66H797.4l-28.31,106.3v70.7Z"/></g></g><g id="_9a4c0966-817a-476d-99e8-3cd2fdffa3d7" data-name="9a4c0966-817a-476d-99e8-3cd2fdffa3d7"><g id="e36edd0e-770c-415f-9c6e-2e48ba9b01db"><path class="cls-3" d="M72.09,566.09v-92h27v9h-16v31h16v10h-16v33h17v9Zm40.14,0,13.17-48.72-12.76-43.28h9.46l9,30.63L139,474.09h9.73L136,521.3l13.17,44.79h-9.41l-9.36-31.78-8.26,31.78Zm52.86,0v-92h18.6a19,19,0,0,1,9,1.83,12.45,12.45,0,0,1,5.29,5.29,24.74,24.74,0,0,1,2.49,8.33,82.17,82.17,0,0,1,.66,10.95v1.41a71,71,0,0,1-1.44,15.56q-1.44,6.3-5.21,9.46t-10.75,3.17h-7.6v36Zm11-45h6.49a6.07,6.07,0,0,0,4.73-1.78q1.59-1.8,2.19-5.94a84.52,84.52,0,0,0,.59-11.25v-1.77q0-8.81-1.34-13a5.63,5.63,0,0,0-5.92-4.23h-6.74Zm41,45v-92h11v83h17v9Zm42,0v-92h11v92Zm49.13,1q-6.71,0-10.7-3.25a18.21,18.21,0,0,1-5.71-9.55A58.53,58.53,0,0,1,290.09,539V501.09a71,71,0,0,1,.79-11.06,26.2,26.2,0,0,1,2.81-8.69,14,14,0,0,1,5.65-5.67,19.13,19.13,0,0,1,9.3-2,18,18,0,0,1,8.83,1.9,13.33,13.33,0,0,1,5.32,5.41,25.11,25.11,0,0,1,2.59,8.32,72.26,72.26,0,0,1,.71,10.64v10.15h-11V500q0-8.44-1.19-12.64c-.8-2.81-2.59-4.2-5.37-4.2a5.8,5.8,0,0,0-5.93,4.3q-1.52,4.29-1.51,12.49v39.25a80.29,80.29,0,0,0,.57,10.68q.55,4.11,2.11,6a5.47,5.47,0,0,0,4.45,1.87c2.82,0,4.67-1.45,5.55-4.33s1.32-7.63,1.32-14.22v-10h11v10a62.87,62.87,0,0,1-1.6,15.4q-1.61,6.26-5.48,9.42t-10.79,3.17Zm36.87-1v-92h11v92Zm36,0v-83h-10v-9h30v9h-9v83Zm83.13,1q-6.71,0-10.69-3.25a18.08,18.08,0,0,1-5.71-9.55A58.07,58.07,0,0,1,446.09,539V501.09a71,71,0,0,1,.79-11.06,26.2,26.2,0,0,1,2.81-8.69,14.14,14.14,0,0,1,5.65-5.67,19.16,19.16,0,0,1,9.3-2,18,18,0,0,1,8.82,1.9,13.26,13.26,0,0,1,5.32,5.41,25.11,25.11,0,0,1,2.59,8.32,72.18,72.18,0,0,1,.72,10.64v10.15h-11V500q0-8.44-1.19-12.64c-.8-2.81-2.59-4.2-5.38-4.2a5.81,5.81,0,0,0-5.93,4.3q-1.5,4.29-1.5,12.49v39.25a82.3,82.3,0,0,0,.56,10.68,11.77,11.77,0,0,0,2.11,6,5.51,5.51,0,0,0,4.46,1.87c2.82,0,4.67-1.45,5.55-4.33s1.32-7.63,1.32-14.22v-10h11v10a62.87,62.87,0,0,1-1.6,15.4Q478.9,560.79,475,564t-10.8,3.17Zm54-.43c-4.54,0-8.14-1-10.77-3a16.39,16.39,0,0,1-5.64-9,57.72,57.72,0,0,1-1.69-15.16V499.34a52.91,52.91,0,0,1,1.56-13.65,16.67,16.67,0,0,1,5.53-9q4-3.21,11.27-3.21a19.1,19.1,0,0,1,8.95,1.84,12.85,12.85,0,0,1,5.36,5.22,24,24,0,0,1,2.61,8.15,71.55,71.55,0,0,1,.72,10.65v40.14a59.75,59.75,0,0,1-1.63,15.16q-1.62,6-5.53,9t-10.74,3Zm.51-8.15a6,6,0,0,0,4.63-1.73q1.59-1.72,2.18-5.77a79.93,79.93,0,0,0,.58-10.9v-42q0-8.4-1.33-12.44a5.53,5.53,0,0,0-5.8-4.05,6.14,6.14,0,0,0-6.24,4q-1.64,4-1.63,12.42v42.08a78.07,78.07,0,0,0,.59,10.93c.39,2.68,1.14,4.59,2.23,5.74a6.28,6.28,0,0,0,4.79,1.73Zm37.39,7.55v-92H563l22.29,62.62-1.15-26.61v-36h10v92h-8l-20.67-63.15.62,23.21v39.94Zm63,0v-83h-10v-9h30v9h-9v83Zm35,0v-92h27v9h-16v31h16v10h-16v33h17v9Zm45,0v-92H706l22.29,62.62-1.15-26.61v-36h10v92h-8l-20.67-63.15.63,23.21v39.94Zm63,0v-83h-10v-9h30v9h-9v83Z"/></g></g></g></g></svg>