<svg xmlns="http://www.w3.org/2000/svg" viewBox="0 0 822.39 459.35"><defs><style>.cls-1{fill:#fff;}</style></defs><title>Asset 35mdpi</title><g id="Layer_2" data-name="Layer 2"><g id="Layer_1-2" data-name="Layer 1"><g id="_9e094d4b-805e-475f-8bd8-eae37ff06521" data-name="9e094d4b-805e-475f-8bd8-eae37ff06521"><g id="_9e094d4b-805e-475f-8bd8-eae37ff06521-child-0" data-name="9e094d4b-805e-475f-8bd8-eae37ff06521-child-0"><path d="M0,459.35V0H822.39V459.35Z"/></g></g><g id="c1544c79-e56c-48b2-912c-04df9fa3e1ce"><g id="c1544c79-e56c-48b2-912c-04df9fa3e1ce-child-0"><path class="cls-1" d="M9.63,450V9.32H812.76V450Z"/></g></g><g id="ee7fa9b4-50e2-4cac-9965-412d82672e58"><g id="ee7fa9b4-50e2-4cac-9965-412d82672e58-child-0"><path d="M17,335V441.14h788.5V335Z"/></g></g><g id="_58f79c7e-d1e5-4816-b1ec-4cd5ef35f65b" data-name="58f79c7e-d1e5-4816-b1ec-4cd5ef35f65b"><g id="_58f79c7e-d1e5-4816-b1ec-4cd5ef35f65b-child-0" data-name="58f79c7e-d1e5-4816-b1ec-4cd5ef35f65b-child-0"><path d="M17,18.21V124.36h788.5V18.21Z"/></g></g><g id="ef3b2315-46f3-4905-ab8e-d5dc6a105d06"><g id="f3f0f7bc-da0e-4a74-b6a2-b569837bb34d"><path class="cls-1" d="M56.65,420.53V355.65H78.4v8.51H66.53V383H77.81v8.33H66.53V412H78.84v8.52Zm42.22,0,10-34.8-10-30.08h8.33l6.45,19.28,5.2-19.28h9.25l-9.81,33.21,10.58,31.67h-8.55l-6.6-19.94-5.34,19.94Zm52.5,0V355.65h14.9a15.33,15.33,0,0,1,6.43,1.18,9.3,9.3,0,0,1,4,3.5,16.14,16.14,0,0,1,2.1,5.73,43.7,43.7,0,0,1,.63,7.87v1.37A44.92,44.92,0,0,1,178.38,386a12.09,12.09,0,0,1-3.89,6.69Q171.69,395,166.6,395h-5.35v25.58Zm9.88-33.73h3.4a4.3,4.3,0,0,0,3.24-1.11,6.47,6.47,0,0,0,1.42-3.67,53.36,53.36,0,0,0,.35-6.83v-1.26a28.13,28.13,0,0,0-.92-8,3.78,3.78,0,0,0-4-2.71h-3.47Zm41,33.73V355.65h9.88v56.47h12.5v8.41Zm44,0V355.65h9.88v64.88Zm49.18.74a13.44,13.44,0,0,1-7.85-2.18,13.05,13.05,0,0,1-4.7-6.36,28.81,28.81,0,0,1-1.57-10.12V374.34a40.16,40.16,0,0,1,.74-8,17.41,17.41,0,0,1,2.4-6.12,11.07,11.07,0,0,1,4.42-3.91,15.35,15.35,0,0,1,6.82-1.36,14.92,14.92,0,0,1,6.29,1.2,10.76,10.76,0,0,1,4.24,3.44,15,15,0,0,1,2.39,5.44,30.87,30.87,0,0,1,.76,7.17v8.92h-9.55v-8.29a22.6,22.6,0,0,0-.81-7.06,3.16,3.16,0,0,0-3.25-2.27,3.5,3.5,0,0,0-3.59,2.45,20.62,20.62,0,0,0-.9,6.84v30.31a33.22,33.22,0,0,0,.38,5.54,6.37,6.37,0,0,0,1.31,3.17,3.29,3.29,0,0,0,2.58,1,3.35,3.35,0,0,0,3.4-2.36,23,23,0,0,0,.88-7.48v-9.3h9.7v9.18a31.39,31.39,0,0,1-1.44,10.27,11.59,11.59,0,0,1-4.56,6.14,14.59,14.59,0,0,1-8.09,2Zm38.72-.74V355.65H344v64.88Zm39.27,0V364.2h-7.59v-8.55h24.73v8.55h-7.3v56.33Zm81.67.74a13.46,13.46,0,0,1-7.85-2.18,13.05,13.05,0,0,1-4.7-6.36A28.81,28.81,0,0,1,441,402.61V374.34a40.16,40.16,0,0,1,.74-8,17.41,17.41,0,0,1,2.4-6.12,11.07,11.07,0,0,1,4.42-3.91,15.35,15.35,0,0,1,6.82-1.36,14.92,14.92,0,0,1,6.29,1.2,10.76,10.76,0,0,1,4.24,3.44,15,15,0,0,1,2.39,5.44,30.87,30.87,0,0,1,.76,7.17v8.92h-9.55v-8.29a22.6,22.6,0,0,0-.81-7.06,3.16,3.16,0,0,0-3.24-2.27,3.5,3.5,0,0,0-3.6,2.45,20.62,20.62,0,0,0-.9,6.84v30.31a32,32,0,0,0,.39,5.54,6.28,6.28,0,0,0,1.3,3.17,3.32,3.32,0,0,0,2.58,1,3.35,3.35,0,0,0,3.4-2.36,23,23,0,0,0,.88-7.48v-9.3h9.7v9.18a31.39,31.39,0,0,1-1.44,10.27,11.62,11.62,0,0,1-4.55,6.14,14.65,14.65,0,0,1-8.1,2Zm52.14,0a14.49,14.49,0,0,1-8.24-2.14,12.4,12.4,0,0,1-4.7-6.34,30.93,30.93,0,0,1-1.51-10.4V372.72a27.74,27.74,0,0,1,1.47-9.59,12.28,12.28,0,0,1,4.69-6.12,14.82,14.82,0,0,1,8.4-2.14,16,16,0,0,1,6.6,1.22,10.75,10.75,0,0,1,4.35,3.52,15.14,15.14,0,0,1,2.41,5.6,33.39,33.39,0,0,1,.76,7.51v29.67a32.08,32.08,0,0,1-1.46,10.4,12.24,12.24,0,0,1-4.59,6.34,14.2,14.2,0,0,1-8.18,2.14Zm0-8.56a3.43,3.43,0,0,0,2.77-1.1,6.73,6.73,0,0,0,1.23-3.37,43.15,43.15,0,0,0,.31-5.74V372.27a20.93,20.93,0,0,0-.79-6.54,3.25,3.25,0,0,0-3.41-2.3,3.61,3.61,0,0,0-3.65,2.23,17.4,17.4,0,0,0-1,6.58V402.5a43.55,43.55,0,0,0,.32,5.81,6.16,6.16,0,0,0,1.29,3.34A3.72,3.72,0,0,0,507.23,412.71Zm39.27,7.82V355.65h7.74L568,394.58l-.7-17.7V355.65h8.89v64.88h-7l-14.12-40.29.56,17v23.26Zm58.88,0V364.2h-7.59v-8.55h24.74v8.55h-7.3v56.33Zm38.76,0V355.65h21.75v8.51H654V383H665.3v8.33H654V412h12.31v8.52Zm45.57,0V355.65h7.74l13.75,38.93-.7-17.7V355.65h8.89v64.88h-7l-14.12-40.29.56,17v23.26Zm58.88,0V364.2H741v-8.55h24.74v8.55h-7.3v56.33Z"/></g></g><g id="_9ca73d90-3466-4ba9-99aa-6654a5904ef3" data-name="9ca73d90-3466-4ba9-99aa-6654a5904ef3"><g id="_717385de-cf4c-4f4c-9c9e-2bf70028b7f1" data-name="717385de-cf4c-4f4c-9c9e-2bf70028b7f1"><path d="M49.66,310.39,73.12,145.86h33.1l25,164.53H107.81L103.88,281H77.33l-3.55,29.35Zm30.1-49.45h21.5l-11-82.64h-.37ZM155,310.39V145.86H192q12.53,0,20.1,5a28.12,28.12,0,0,1,11,14.44q3.4,9.44,3.41,22.81l.1,74.23q0,16.17-3.51,26.88t-11.27,15.93q-7.75,5.24-20.66,5.24ZM180.09,291h8.23a14,14,0,0,0,7.34-1.78q2.94-1.79,4.39-6.31T201.5,270l-.09-81.23q0-12.63-3.09-18.14t-10.84-5.52h-7.39ZM275,310.39,249.48,145.86h23.84l10.75,74.32,6.64,52.35h.66l5.7-52.35,9-74.32h23.37L306,310.39Zm79.76,0V145.86h25.06V310.39ZM444,312.26q-10.28,0-17.15-3.23A25.36,25.36,0,0,1,416,299.59a42.4,42.4,0,0,1-5.65-15.14,109.77,109.77,0,0,1-1.69-20.34V249.44h23.75V266q0,13.27,2.24,19.08t8.88,5.79q4.49,0,6.78-2.1t3.09-6.73a74.36,74.36,0,0,0,.79-12.11A36.88,36.88,0,0,0,450.29,253a68.3,68.3,0,0,0-11.73-15.89l-12.15-12.53a87.49,87.49,0,0,1-9.12-11.12,50.15,50.15,0,0,1-8.83-29.36q0-13,3.18-22a25.2,25.2,0,0,1,10.75-13.6q7.58-4.64,20.75-4.63,9.92,0,16.31,3a23.17,23.17,0,0,1,10,8.88A40.26,40.26,0,0,1,474.55,170a109.18,109.18,0,0,1,1.5,19.12v10.19H453V187.55a80.45,80.45,0,0,0-.8-12.43q-.8-5-2.94-7.44a7.84,7.84,0,0,0-6.27-2.47,10.74,10.74,0,0,0-6.35,1.73,9.67,9.67,0,0,0-3.51,5.33,33.45,33.45,0,0,0-1.07,9.3,27,27,0,0,0,1.3,8.88,25.1,25.1,0,0,0,4,7.2q2.71,3.47,6.73,7.76l13.56,14.67a87.9,87.9,0,0,1,15.14,21.79,57.56,57.56,0,0,1,5.43,25.24q0,14.77-3.18,24.82t-10.66,15.19q-7.49,5.14-20.38,5.14Zm95.38,0q-12.81,0-20.89-5.42t-11.92-16.08q-3.84-10.67-3.84-26.36V189.14q0-14.2,3.74-24.31a30.91,30.91,0,0,1,11.88-15.52q8.13-5.42,21.31-5.42,9.92,0,16.73,3.09a27,27,0,0,1,11,8.93,39,39,0,0,1,6.12,14.21,85.3,85.3,0,0,1,1.92,19V264.4q0,15.71-3.7,26.36t-11.64,16.08q-7.93,5.42-20.75,5.42Zm0-21.69q4.67,0,7-2.8c1.56-1.87,2.6-4.73,3.13-8.56a109.21,109.21,0,0,0,.8-14.53V188q0-10.76-2-16.6t-8.65-5.84q-6.82,0-9.25,5.66T528,187.92v76.76a111.21,111.21,0,0,0,.79,14.72q.79,5.75,3.27,8.46t7.34,2.71Zm67.8,19.82V145.86h41.42q12.9,0,19.25,5t8.37,14.77a119.53,119.53,0,0,1,2,23.75q0,14.49-2.94,22.76t-12,11.08a13.53,13.53,0,0,1,7.2,3.51,19.57,19.57,0,0,1,4.68,8,62.38,62.38,0,0,1,2.57,13.55q.79,8.28.79,20.24v5.24q0,4.31,0,10.14c0,3.89.07,7.77.14,11.64s.15,7.17.28,9.91a25.56,25.56,0,0,0,.47,4.86H654.37a20.27,20.27,0,0,1-.42-4.81c-.09-2.9-.19-6.59-.28-11.08s-.16-9.32-.19-14.49,0-10.27,0-15.29V251.4a43.47,43.47,0,0,0-1.08-11.17,8,8,0,0,0-3.92-5.28,20.37,20.37,0,0,0-8.18-1.78l-8-.47v77.69Zm25.15-97.13h10c3.05,0,5.38-.69,7-2.06s2.68-3.89,3.27-7.57a107.36,107.36,0,0,0,.89-15.89v-1a80.55,80.55,0,0,0-.84-13.37q-.86-4.67-3.51-6.45t-8.27-1.78h-8.51Zm93.32,97.13V244.67l-27.58-98.81H722l16.26,61.51h.38l14.49-61.51H777l-26.26,98.81v65.72Z"/></g></g><g id="_255ee75e-522c-4976-a0e5-af9bed66b618" data-name="255ee75e-522c-4976-a0e5-af9bed66b618"><g id="_3261a317-cefc-4391-a758-f32630871ae4" data-name="3261a317-cefc-4391-a758-f32630871ae4"><path class="cls-1" d="M72.29,37.33H90.23q8.14,0,11.63,5.26T105.34,58q0,10.13-3.09,15.26T91.18,78.37H85.65v26.88H72.29ZM86.44,66.11A5.78,5.78,0,0,0,90,65.2a4.38,4.38,0,0,0,1.5-2.61,24.9,24.9,0,0,0,.36-4.86,14.76,14.76,0,0,0-1-6.17c-.63-1.26-1.9-1.89-3.8-1.89h-1.5V66.11Zm74.32,39.14,6.56-67.92h23l6.48,67.92H183.93l-1-11h-8.22l-.8,11ZM182,83.43l-3-34.55h-.64l-2.53,34.55Zm74.72-46.1h20.87q5,0,7.71,2.26a11.16,11.16,0,0,1,3.67,6.32,47.17,47.17,0,0,1,.95,10.4,21.91,21.91,0,0,1-1.5,9,8.46,8.46,0,0,1-5.22,4.51,6.28,6.28,0,0,1,4.47,3.08A13.56,13.56,0,0,1,289,79.55l-.15,25.7H275.56V78.68c0-1.89-.37-3.1-1.1-3.63a7.37,7.37,0,0,0-4-.79v31H256.67Zm17.07,25.15q2.85,0,2.85-6.17a24.83,24.83,0,0,0-.24-4,2.9,2.9,0,0,0-.87-1.86,2.75,2.75,0,0,0-1.81-.52H270.5V62.48Zm76.86,42.77V37.33h27.19V50.46H364.43v13.2h12.81V76.47H364.43V92.05h14.23v13.2Zm88.79,0V37.33h14l6.25,32.5V37.33h13.12v67.92H459.47l-6.8-34v34Zm101.44,0V50.38h-8.07V37.33h29.73V50.38h-8.07v54.87Zm76.93,0,6.56-67.92h23l6.48,67.92H640.92l-.95-11h-8.22l-.79,11ZM639,83.43l-3-34.55h-.63l-2.53,34.55Zm74.71,21.82V37.33h13.6V93.71h14v11.54Z"/></g></g></g></g></svg>