<svg xmlns="http://www.w3.org/2000/svg" viewBox="0 0 968.46 209.79"><defs><style>.cls-1{fill:#fff;stroke:#100000;stroke-linecap:round;stroke-miterlimit:10;stroke-width:9px;}.cls-2{fill:#100000;}</style></defs><title>Asset 1roster</title><g id="Layer_2" data-name="Layer 2"><g id="Layer_1-2" data-name="Layer 1"><g id="_475118ff-fa63-4b12-8a97-d0fe120a2f34" data-name="475118ff-fa63-4b12-8a97-d0fe120a2f34"><g id="_475118ff-fa63-4b12-8a97-d0fe120a2f34-child-0" data-name="475118ff-fa63-4b12-8a97-d0fe120a2f34-child-0"><path class="cls-1" d="M4.51,205.29V4.54L964,4.5V205.25Z"/></g></g><g id="b7009a5e-625c-479d-8e9e-0d91d6c9aad1"><g id="b7009a5e-625c-479d-8e9e-0d91d6c9aad1-child-0"><path class="cls-2" d="M619,170.26H606.11V39.82H619ZM722.42,39.82H703V170.26h19.43Zm-37.44,0H669.14V170.26H685Zm77.31,0H746.45V170.26h15.84Zm23.67,0H770.12V170.26H786Zm-153.66,0h-7.84V170.26h7.84Zm63.15,0h-7.83V170.26h7.83Zm47,0h-7.84V170.26h7.84Zm-95.32,0h-9.89V170.26h9.89Zm19.37,0H653.77V170.26h12.71ZM888.23,170.26h11.16V39.82H888.23Zm-61.08,0h13.72V39.82H827.15Zm49.59,0h6.78V39.82h-6.78Zm-12.81,0h8.54V39.82h-8.54Zm-16.77,0h11V39.82h-11Zm-31.45,0h5.22V39.82h-5.22Zm-12.79,0h6.57V39.82h-6.57Zm-13.69,0h8.44V39.82h-8.44Z"/></g></g><g id="_11222315-5704-4b91-a761-3781968edbde" data-name="11222315-5704-4b91-a761-3781968edbde"><g id="_11222315-5704-4b91-a761-3781968edbde-child-0" data-name="11222315-5704-4b91-a761-3781968edbde-child-0"><path class="cls-2" d="M567.22,105.19a67,67,0,0,1-13.2,40c-1-18.15-22-32.9-48.73-34.66,1.76,26.74,16.51,47.75,34.66,48.73a67.3,67.3,0,0,1-80.08,0c18.16-1,32.91-22,34.67-48.73-26.74,1.76-47.76,16.51-48.73,34.66a67.31,67.31,0,0,1,0-80.08c1,18.16,22,32.91,48.73,34.67-1.75-26.74-16.5-47.76-34.66-48.73a67.28,67.28,0,0,1,80.07,0c-18.15,1-32.9,22-34.66,48.73C532,98.06,553,83.31,554,65.15A67.06,67.06,0,0,1,567.22,105.19Z"/></g></g><g id="_14e4c2e2-2631-4da9-a2fc-6fb95cf38392" data-name="14e4c2e2-2631-4da9-a2fc-6fb95cf38392"><g id="_14e4c2e2-2631-4da9-a2fc-6fb95cf38392-child-0" data-name="14e4c2e2-2631-4da9-a2fc-6fb95cf38392-child-0"><path class="cls-2" d="M304.76,37,280.39,79.22l29.78,17.17,19-32.83,6.6,11.68-7.88,4.56,30.3-.34,10.07-17,5.32-9.05-8,4.57-12.1-21Zm73.1,42.22L347.81,96.56l18.27,32.15-12.42.09V120l-4.92,8.8-10,17.59v.08l9.73,17.18,5.19,9.14v-9.14h24.18l24.36-42.22ZM260.17,95.8l8,4.65-12.19,21,24.37,42.22h48.74V129l-37.91.24,6.69-11.58,7.95,4.57-15.4-26.06Z"/></g></g><g id="c88205ef-cfc9-48dd-923f-d190f6dddc16"><g id="c88205ef-cfc9-48dd-923f-d190f6dddc16-child-0"><path class="cls-2" d="M214.91,67.21a4.41,4.41,0,0,0,4.41-4.42V43.88a4.41,4.41,0,0,0-4.41-4.41,65.88,65.88,0,0,0,0,131.75,4.41,4.41,0,0,0,4.41-4.42V147.89a4.4,4.4,0,0,0-4.41-4.41,38.1,38.1,0,0,1-35.53-24.27h35.53a4.4,4.4,0,0,0,4.41-4.41V95.89a4.41,4.41,0,0,0-4.41-4.42H179.38A38.1,38.1,0,0,1,214.91,67.21Z"/></g><g id="c88205ef-cfc9-48dd-923f-d190f6dddc16-child-1"><path class="cls-2" d="M134.54,39.47c-87.34,3.21-87.23,128.58,0,131.75A4.41,4.41,0,0,0,139,166.8V147.89a4.4,4.4,0,0,0-4.41-4.41,38.14,38.14,0,1,1,0-76.27A4.41,4.41,0,0,0,139,62.79V43.88A4.41,4.41,0,0,0,134.54,39.47Z"/></g></g></g></g></svg>