<svg xmlns="http://www.w3.org/2000/svg" viewBox="0 0 1452.54 404.39"><defs><style>.cls-1{fill:none;stroke:#fff;stroke-linecap:round;stroke-miterlimit:10;stroke-width:8.12px;}.cls-2{fill:#fff;}.cls-3{fill:#af3c00;}</style></defs><title>Asset 41mdpi</title><g id="Layer_2" data-name="Layer 2"><g id="Layer_1-2" data-name="Layer 1"><g id="_85c86a51-0a08-48bd-b397-1260156428c3" data-name="85c86a51-0a08-48bd-b397-1260156428c3"><g id="_85c86a51-0a08-48bd-b397-1260156428c3-child-0" data-name="85c86a51-0a08-48bd-b397-1260156428c3-child-0"><path class="cls-1" d="M4.06,400.33V4.06H1448.47V400.33Z"/></g></g><g id="a9fca009-22ed-4730-a165-8df0acdc0398"><g id="a9fca009-22ed-4730-a165-8df0acdc0398-child-0"><path class="cls-2" d="M5.12,208.51v-9.7H1447v9.7Z"/></g></g><g id="_8982fa8e-2da5-4212-8c4f-b21b8d9118c0" data-name="8982fa8e-2da5-4212-8c4f-b21b8d9118c0"><g id="_8982fa8e-2da5-4212-8c4f-b21b8d9118c0-child-0" data-name="8982fa8e-2da5-4212-8c4f-b21b8d9118c0-child-0"><path class="cls-3" d="M1371.31,307.09c-27,25.18-64.23,42-101.37,41.88-36.24-2.1-71.42-20.61-96.35-46.75,24.44,22.56,59.38,40.09,93.15,39.89,35.33-.2,70.92-19.43,94.88-44.77Zm-192.87,0c24-25.33,59.55-44.57,94.88-44.77,33.78-.2,68.71,17.33,93.14,39.89-24.92-26.15-60.1-44.65-96.34-46.75-37.14-.18-74.34,16.7-101.37,41.88ZM1270,271.28a31.87,31.87,0,0,0-24.27,11.15,15,15,0,1,1-7.37,16.21A32,32,0,1,0,1270,271.28Z"/></g></g><g id="_68913426-8831-4894-bcff-986293bee69a" data-name="68913426-8831-4894-bcff-986293bee69a"><g id="fc8df309-72b3-44a4-81b6-a5b4117fb5c4"><path class="cls-2" d="M172.54,114.37h-30v30.76H123.92V67.92h51.65V82.29h-33v17.77h30ZM224,130.71H198.53l-4.45,14.42H174.19l28.32-77.21H220l28.53,77.21h-20Zm-21-14.37h16.6l-8.33-26.78ZM301,124.61a7.63,7.63,0,0,0-2.89-6.36Q295.26,116,288,113.53a97.28,97.28,0,0,1-11.88-4.72q-15-7.36-15-20.26a18.17,18.17,0,0,1,3.74-11.32,24.25,24.25,0,0,1,10.58-7.64,41.2,41.2,0,0,1,15.38-2.73,36,36,0,0,1,14.92,3A23.64,23.64,0,0,1,316,78.29a22.09,22.09,0,0,1,3.66,12.54H301.09a9.32,9.32,0,0,0-2.89-7.32,11.27,11.27,0,0,0-7.82-2.58,12.68,12.68,0,0,0-7.87,2.2,6.74,6.74,0,0,0-2.89,5.59q0,3,3.18,5.37t11.19,5a68.47,68.47,0,0,1,13.15,5.54q12.51,7.22,12.51,19.88,0,10.12-7.63,15.91t-20.95,5.78a41.46,41.46,0,0,1-17-3.38,25.63,25.63,0,0,1-11.46-9.22,24.09,24.09,0,0,1-3.84-13.5h18.66q0,6.21,3.21,9.15t10.42,2.94a12,12,0,0,0,7.29-2,6.56,6.56,0,0,0,2.68-5.59Zm99.75,20.52H382.28V112.89H354.87v32.24H336.26V67.92h18.61V98.57h27.41V67.92h18.51Zm38.66,0H420.89V67.92h18.56Zm85.38-37a45.57,45.57,0,0,1-4.19,20,31,31,0,0,1-11.9,13.39,33.17,33.17,0,0,1-17.58,4.69,33.63,33.63,0,0,1-17.5-4.53,31,31,0,0,1-11.91-13,44.4,44.4,0,0,1-4.48-19.35V105a45.66,45.66,0,0,1,4.17-20,30.87,30.87,0,0,1,11.93-13.39,35.3,35.3,0,0,1,35.18,0,31.46,31.46,0,0,1,12,13.28,44.3,44.3,0,0,1,4.32,19.75Zm-18.93-3.24q0-11.5-3.85-17.47a12.34,12.34,0,0,0-11-6q-14,0-14.79,21l-.06,5.68q0,11.35,3.77,17.44a12.31,12.31,0,0,0,11.19,6.1,12.18,12.18,0,0,0,10.87-6q3.83-6,3.87-17.23ZM606,145.13H587.46l-27.36-48v48H541.49V67.92H560.1L587.41,116v-48H606Zm101.55-30.76h-30v30.76H658.9V67.92h51.65V82.29h-33v17.77h30Zm83.21-6.25a45.57,45.57,0,0,1-4.19,20,31,31,0,0,1-11.91,13.39,33.11,33.11,0,0,1-17.57,4.69,33.63,33.63,0,0,1-17.5-4.53,31,31,0,0,1-11.91-13,44.12,44.12,0,0,1-4.48-19.35V105a45.66,45.66,0,0,1,4.17-20,30.87,30.87,0,0,1,11.93-13.39,35.3,35.3,0,0,1,35.18,0,31.46,31.46,0,0,1,12,13.28,44.58,44.58,0,0,1,4.32,19.75Zm-18.93-3.24q0-11.5-3.85-17.47a12.34,12.34,0,0,0-11-6q-14,0-14.79,21l-.06,5.68q0,11.35,3.77,17.44a12.31,12.31,0,0,0,11.19,6.1,12.18,12.18,0,0,0,10.87-6q3.81-6,3.87-17.23Zm64.27,13H826v27.26H807.38V67.92h30.39q13.72,0,21.47,6.1T867,91.26q0,8.05-3.27,13.36a23.13,23.13,0,0,1-10.2,8.59l16.12,31.12v.8H849.7ZM826,103.5h11.77q5.29,0,8-2.78T848.43,93c0-3.31-.9-5.93-2.71-7.81s-4.45-2.84-8-2.84H826Zm122.08,14.37H938v27.26H919.39V67.92h30.38q13.74,0,21.48,6.1T979,91.26q0,8.05-3.26,13.36a23.16,23.16,0,0,1-10.21,8.59l16.12,31.12v.8H961.7ZM938,103.5h11.77q5.31,0,8-2.78T960.43,93c0-3.31-.9-5.93-2.7-7.81s-4.46-2.84-8-2.84H938Zm107.17,8.91H1015.9v18.4h34.58v14.32H997.29V67.92h53.29V82.29H1015.9V98.57h29.27Zm19.95,32.72V67.92h27.73q14.89,0,22.67,5.47t7.77,15.85a18.34,18.34,0,0,1-2.76,10.23,16,16,0,0,1-8.11,6.26,16.28,16.28,0,0,1,9.28,5.94,17.33,17.33,0,0,1,3.23,10.61q0,11.34-7.18,17t-21.29,5.81Zm18.61-32.82v18.5h12.2q5,0,7.74-2.3a8.09,8.09,0,0,0,2.7-6.5q0-9.65-9.6-9.7Zm0-12.2h9.7c4.07,0,7-.78,8.7-2.23a7.88,7.88,0,0,0,2.6-6.41c0-3.25-.94-5.6-2.81-7s-4.9-2.15-9.07-2.15h-9.12Zm106.38,12.3h-29.27v18.4h34.57v14.32h-53.19V67.92h53.29V82.29h-34.67V98.57h29.27Zm38.55,18.4h32.4v14.32h-51V67.92h18.61Zm87.13-6.2a7.63,7.63,0,0,0-2.89-6.36q-2.89-2.28-10.15-4.72a97.28,97.28,0,0,1-11.88-4.72q-15-7.36-15-20.26a18.17,18.17,0,0,1,3.74-11.32,24.25,24.25,0,0,1,10.58-7.64,41.2,41.2,0,0,1,15.38-2.73,36,36,0,0,1,14.92,3,23.53,23.53,0,0,1,10.26,8.46,22.09,22.09,0,0,1,3.66,12.54h-18.56a9.32,9.32,0,0,0-2.89-7.32,11.27,11.27,0,0,0-7.82-2.58,12.68,12.68,0,0,0-7.87,2.2,6.74,6.74,0,0,0-2.89,5.59q0,3,3.18,5.37t11.19,5a68.2,68.2,0,0,1,13.15,5.54q12.51,7.22,12.51,19.88,0,10.12-7.63,15.91t-21,5.78a41.46,41.46,0,0,1-17-3.38,25.63,25.63,0,0,1-11.46-9.22,24.09,24.09,0,0,1-3.84-13.5h18.66q0,6.21,3.21,9.15t10.42,2.94a11.93,11.93,0,0,0,7.29-2,6.56,6.56,0,0,0,2.68-5.59Z"/></g></g><g id="_063b532d-7a61-4b1c-aff3-5a54fcf098db" data-name="063b532d-7a61-4b1c-aff3-5a54fcf098db"><g id="_148c060c-63b3-4748-8811-0ed3f776988f" data-name="148c060c-63b3-4748-8811-0ed3f776988f"><path class="cls-2" d="M120.93,336.85V259.64H145.8a36.59,36.59,0,0,1,18.4,4.64A32.58,32.58,0,0,1,177,277.38a39.58,39.58,0,0,1,4.63,19v3.55a39.73,39.73,0,0,1-4.48,19,32.68,32.68,0,0,1-12.62,13.15,35.67,35.67,0,0,1-18.16,4.8ZM139.55,274v48.52H146q8,0,12.31-5.7t4.29-16.94v-3.34q0-11.19-4.29-16.86T145.8,274Zm106.53,30.12H216.81v18.4h34.57v14.32H198.2V259.64h53.29V274H216.81v16.28h29.27Zm59.77,12.2A7.63,7.63,0,0,0,303,310q-2.9-2.28-10.16-4.72a97.71,97.71,0,0,1-11.87-4.72q-15-7.36-15-20.26A18.17,18.17,0,0,1,269.66,269a24.25,24.25,0,0,1,10.58-7.64,41.14,41.14,0,0,1,15.37-2.73,36,36,0,0,1,14.93,3A23.64,23.64,0,0,1,320.8,270a22.09,22.09,0,0,1,3.66,12.54H305.9a9.32,9.32,0,0,0-2.89-7.32,11.27,11.27,0,0,0-7.82-2.59,12.68,12.68,0,0,0-7.87,2.2,6.74,6.74,0,0,0-2.89,5.59q0,3,3.18,5.38t11.19,5A68.47,68.47,0,0,1,312,296.34q12.51,7.21,12.51,19.88,0,10.13-7.64,15.91t-20.94,5.78a41.48,41.48,0,0,1-17-3.37,25.54,25.54,0,0,1-11.45-9.22,24.09,24.09,0,0,1-3.84-13.5h18.66q0,6.21,3.21,9.15t10.42,2.94a12,12,0,0,0,7.29-2,6.56,6.56,0,0,0,2.68-5.59Zm55,20.52H342.34V259.64H360.9Zm83.2-9.54q-4.31,4.77-12.57,7.68a54,54,0,0,1-18.13,2.92q-15.16,0-24.24-9.28t-9.7-25.82l0-6.68a46.09,46.09,0,0,1,4-19.92A29.91,29.91,0,0,1,395,263.12a32.6,32.6,0,0,1,17.37-4.59q14.42,0,22.4,6.6t9.31,19.7H426.12q-.94-6.46-4.13-9.23t-9-2.75a12.12,12.12,0,0,0-10.81,5.94q-3.82,5.94-3.87,17v4.67q0,11.56,3.95,17.37t12.43,5.8q7.26,0,10.82-3.23v-12H412.55V295.6H444.1Zm82.36,9.54H508l-27.36-48v48H462V259.64h18.61l27.31,48.05V259.64h18.56Zm52.93,0V259.64h27.73q14.89,0,22.67,5.47T637.56,281a18.36,18.36,0,0,1-2.76,10.23,16,16,0,0,1-8.11,6.26,16.28,16.28,0,0,1,9.28,5.94A17.33,17.33,0,0,1,639.2,314q0,11.34-7.18,17t-21.29,5.81ZM598,304v18.5h12.2q5,0,7.74-2.3a8.09,8.09,0,0,0,2.7-6.5q0-9.64-9.59-9.7Zm0-12.2h9.7c4.07,0,7-.78,8.7-2.23a7.88,7.88,0,0,0,2.6-6.41c0-3.25-.94-5.6-2.81-7s-4.9-2.15-9.07-2.15H598Zm83.84,1.33,14.21-33.52h20.1l-24.87,49.48v27.73H672.4V309.12l-24.81-49.48h20Zm91.38,26.35a10.15,10.15,0,0,1,7,2.52,8.78,8.78,0,0,1,0,12.88,11.13,11.13,0,0,1-14.13,0,8.79,8.79,0,0,1,0-12.83A10.06,10.06,0,0,1,773.22,319.51Zm0-42.31a10.19,10.19,0,0,1,7,2.51,8.8,8.8,0,0,1,0,12.89,11.11,11.11,0,0,1-14.13,0,8.79,8.79,0,0,1,0-12.83A10.09,10.09,0,0,1,773.22,277.2Zm87.93-17.56,17.23,53.72,17.18-53.72h24.5v77.21H901.4v-18l1.8-36.91-18.67,54.94h-12.3l-18.72-55,1.81,37v18H836.7V259.64Zm106.48,49.95H957.56v27.26H938.94V259.64h30.39q13.73,0,21.47,6.1T998.55,283q0,8.06-3.27,13.36a23.13,23.13,0,0,1-10.2,8.59l16.12,31.12v.8H981.26Zm-10.07-14.37h11.77q5.29,0,8-2.78t2.68-7.77q0-5-2.71-7.82T969.33,274H957.56Zm99.11,21.11a7.63,7.63,0,0,0-2.89-6.36q-2.9-2.28-10.16-4.72a97.71,97.71,0,0,1-11.87-4.72q-15-7.36-15-20.26a18.17,18.17,0,0,1,3.74-11.32,24.25,24.25,0,0,1,10.58-7.64,41.14,41.14,0,0,1,15.37-2.73,36,36,0,0,1,14.93,3,23.64,23.64,0,0,1,10.26,8.46,22.09,22.09,0,0,1,3.66,12.54h-18.56a9.32,9.32,0,0,0-2.89-7.32,11.27,11.27,0,0,0-7.82-2.59,12.68,12.68,0,0,0-7.87,2.2,6.74,6.74,0,0,0-2.89,5.59q0,3,3.18,5.38t11.19,5a68.47,68.47,0,0,1,13.15,5.54q12.51,7.21,12.51,19.88,0,10.13-7.63,15.91t-21,5.78a41.48,41.48,0,0,1-17-3.37,25.6,25.6,0,0,1-11.45-9.22,24.09,24.09,0,0,1-3.84-13.5h18.66q0,6.21,3.21,9.15t10.42,2.94a12,12,0,0,0,7.29-2,6.56,6.56,0,0,0,2.68-5.59Z"/></g></g></g></g></svg>