<svg xmlns="http://www.w3.org/2000/svg" viewBox="0 0 57.53 57.53"><defs><style>.cls-1{fill:#f9c30c;}</style></defs><title>Asset 25galore</title><g id="Layer_2" data-name="Layer 2"><g id="Layer_1-2" data-name="Layer 1"><path class="cls-1" d="M32.71,24.82C38.55,17.92,48,7.74,40,1.31,36.15-1.78,28.77.62,28.77,8.23c0-7.61-7.4-10-11.23-6.92-8,6.43,1.45,16.62,7.29,23.52C17.93,19,7.74,9.54,1.31,17.54-1.78,21.38.62,28.77,8.23,28.77,2.76,28.77,0,32.58,0,36.15A6.11,6.11,0,0,0,1.31,40c6.43,8,16.61-1.44,23.51-7.28C19,39.61,9.55,49.79,17.54,56.22c3.84,3.08,11.23.68,11.23-6.92,0,7.6,7.38,10,11.22,6.92,8-6.43-1.43-16.6-7.27-23.5C39.62,38.56,49.79,48,56.22,40c3.08-3.84.69-11.22-6.92-11.22,7.61,0,10-7.39,6.92-11.23C49.79,9.55,39.61,19,32.71,24.82Z"/></g></g></svg>