<svg xmlns="http://www.w3.org/2000/svg" viewBox="0 0 941.51 282.06"><defs><style>.cls-1{fill:#ff2020;}</style></defs><title>Asset 9mdpi</title><g id="Layer_2" data-name="Layer 2"><g id="Layer_1-2" data-name="Layer 1"><g id="_840f887f-4d38-47e8-9cc3-72ba4d391a95" data-name="840f887f-4d38-47e8-9cc3-72ba4d391a95"><g id="_840f887f-4d38-47e8-9cc3-72ba4d391a95-child-0" data-name="840f887f-4d38-47e8-9cc3-72ba4d391a95-child-0"><path class="cls-1" d="M34.07,0H5.49C2.46,0,0,2,0,4.37V277.69c0,2.41,2.46,4.37,5.49,4.37H34.07c3,0,5.49-2,5.49-4.37V4.37C39.56,2,37.1,0,34.07,0Z"/></g><g id="_840f887f-4d38-47e8-9cc3-72ba4d391a95-child-1" data-name="840f887f-4d38-47e8-9cc3-72ba4d391a95-child-1"><path class="cls-1" d="M84.62,0H60.44C57.41,0,55,2,55,4.37V277.69c0,2.41,2.46,4.37,5.49,4.37H84.62c3,0,5.49-2,5.49-4.37V4.37C90.11,2,87.65,0,84.62,0Z"/></g><g id="_840f887f-4d38-47e8-9cc3-72ba4d391a95-child-2" data-name="840f887f-4d38-47e8-9cc3-72ba4d391a95-child-2"><path class="cls-1" d="M125.28,0H113.19c-3,0-5.49,2-5.49,4.37V277.69c0,2.41,2.46,4.37,5.49,4.37h12.09c3,0,5.49-2,5.49-4.37V4.37C130.77,2,128.31,0,125.28,0Z"/></g><g id="_840f887f-4d38-47e8-9cc3-72ba4d391a95-child-3" data-name="840f887f-4d38-47e8-9cc3-72ba4d391a95-child-3"><path class="cls-1" d="M162.43,0H148.56c-3,0-5.49,2-5.49,4.37V277.69c0,2.41,2.46,4.37,5.49,4.37h13.87c3,0,5.5-2,5.5-4.37V4.37C167.93,2,165.47,0,162.43,0Z"/></g><g id="_840f887f-4d38-47e8-9cc3-72ba4d391a95-child-4" data-name="840f887f-4d38-47e8-9cc3-72ba4d391a95-child-4"><path class="cls-1" d="M219.58,0H196.92c-3,0-5.5,2-5.5,4.37V277.69c0,2.41,2.46,4.37,5.5,4.37h22.66c3,0,5.49-2,5.49-4.37V4.37C225.07,2,222.61,0,219.58,0Z"/></g><g id="_840f887f-4d38-47e8-9cc3-72ba4d391a95-child-5" data-name="840f887f-4d38-47e8-9cc3-72ba4d391a95-child-5"><path class="cls-1" d="M256.6,0H245.27c-3,0-5.49,2-5.49,4.37V277.69c0,2.41,2.45,4.37,5.49,4.37H256.6c3,0,5.5-2,5.5-4.37V4.37C262.1,2,259.63,0,256.6,0Z"/></g><g id="_840f887f-4d38-47e8-9cc3-72ba4d391a95-child-6" data-name="840f887f-4d38-47e8-9cc3-72ba4d391a95-child-6"><path class="cls-1" d="M296,0H281.89c-3,0-5.5,2-5.5,4.37V277.69c0,2.41,2.46,4.37,5.5,4.37H296c3,0,5.5-2,5.5-4.37V4.37C301.46,2,299,0,296,0Z"/></g><g id="_840f887f-4d38-47e8-9cc3-72ba4d391a95-child-7" data-name="840f887f-4d38-47e8-9cc3-72ba4d391a95-child-7"><path class="cls-1" d="M353.31,0H342c-3.05,0-5.5,2-5.5,4.37V277.69c0,2.41,2.45,4.37,5.5,4.37h11.33c3,0,5.49-2,5.49-4.37V4.37C358.8,2,356.34,0,353.31,0Z"/></g><g id="_840f887f-4d38-47e8-9cc3-72ba4d391a95-child-8" data-name="840f887f-4d38-47e8-9cc3-72ba4d391a95-child-8"><path class="cls-1" d="M414.3,0H390.71c-3,0-5.49,2-5.49,4.37V277.69c0,2.41,2.45,4.37,5.49,4.37H414.3c3,0,5.49-2,5.49-4.37V4.37C419.79,2,417.33,0,414.3,0Z"/></g><g id="_840f887f-4d38-47e8-9cc3-72ba4d391a95-child-9" data-name="840f887f-4d38-47e8-9cc3-72ba4d391a95-child-9"><path class="cls-1" d="M477.24,0H443.46c-3,0-5.49,2-5.49,4.37V277.69c0,2.41,2.46,4.37,5.49,4.37h33.78c3.05,0,5.5-2,5.5-4.37V4.37C482.74,2,480.28,0,477.24,0Z"/></g></g><g id="d19c00bb-dc2d-4c4d-bd24-5fdd9ebd5026"><g id="d19c00bb-dc2d-4c4d-bd24-5fdd9ebd5026-child-0"><path class="cls-1" d="M492.84,0H464.27c-3,0-5.5,2-5.5,4.37V277.69c0,2.41,2.46,4.37,5.5,4.37h28.57c3,0,5.49-2,5.49-4.37V4.37C498.33,2,495.87,0,492.84,0Z"/></g><g id="d19c00bb-dc2d-4c4d-bd24-5fdd9ebd5026-child-1"><path class="cls-1" d="M543.39,0H519.21c-3,0-5.49,2-5.49,4.37V277.69c0,2.41,2.46,4.37,5.49,4.37h24.18c3,0,5.49-2,5.49-4.37V4.37C548.88,2,546.42,0,543.39,0Z"/></g><g id="d19c00bb-dc2d-4c4d-bd24-5fdd9ebd5026-child-2"><path class="cls-1" d="M584.05,0H572c-3,0-5.49,2-5.49,4.37V277.69c0,2.41,2.46,4.37,5.49,4.37h12.09c3,0,5.5-2,5.5-4.37V4.37C589.55,2,587.08,0,584.05,0Z"/></g><g id="d19c00bb-dc2d-4c4d-bd24-5fdd9ebd5026-child-3"><path class="cls-1" d="M621.21,0H607.34c-3,0-5.5,2-5.5,4.37V277.69c0,2.41,2.46,4.37,5.5,4.37h13.87c3,0,5.49-2,5.49-4.37V4.37C626.7,2,624.24,0,621.21,0Z"/></g><g id="d19c00bb-dc2d-4c4d-bd24-5fdd9ebd5026-child-4"><path class="cls-1" d="M678.35,0H655.69c-3,0-5.49,2-5.49,4.37V277.69c0,2.41,2.46,4.37,5.49,4.37h22.66c3,0,5.49-2,5.49-4.37V4.37C683.84,2,681.38,0,678.35,0Z"/></g><g id="d19c00bb-dc2d-4c4d-bd24-5fdd9ebd5026-child-5"><path class="cls-1" d="M715.37,0H704c-3,0-5.49,2-5.49,4.37V277.69c0,2.41,2.45,4.37,5.49,4.37h11.33c3,0,5.5-2,5.5-4.37V4.37C720.87,2,718.41,0,715.37,0Z"/></g><g id="d19c00bb-dc2d-4c4d-bd24-5fdd9ebd5026-child-6"><path class="cls-1" d="M754.74,0H740.66c-3,0-5.5,2-5.5,4.37V277.69c0,2.41,2.47,4.37,5.5,4.37h14.08c3,0,5.49-2,5.49-4.37V4.37C760.23,2,757.77,0,754.74,0Z"/></g><g id="d19c00bb-dc2d-4c4d-bd24-5fdd9ebd5026-child-7"><path class="cls-1" d="M812.08,0H800.75c-3,0-5.5,2-5.5,4.37V277.69c0,2.41,2.45,4.37,5.5,4.37h11.33c3,0,5.49-2,5.49-4.37V4.37C817.57,2,815.11,0,812.08,0Z"/></g><g id="d19c00bb-dc2d-4c4d-bd24-5fdd9ebd5026-child-8"><path class="cls-1" d="M873.07,0H849.49c-3,0-5.5,2-5.5,4.37V277.69c0,2.41,2.45,4.37,5.5,4.37h23.58c3,0,5.49-2,5.49-4.37V4.37C878.56,2,876.1,0,873.07,0Z"/></g><g id="d19c00bb-dc2d-4c4d-bd24-5fdd9ebd5026-child-9"><path class="cls-1" d="M936,0H902.23c-3,0-5.49,2-5.49,4.37V277.69c0,2.41,2.46,4.37,5.49,4.37H936c3,0,5.49-2,5.49-4.37V4.37C941.51,2,939.05,0,936,0Z"/></g></g></g></g></svg>