<svg xmlns="http://www.w3.org/2000/svg" viewBox="0 0 1017.61 527.23"><defs><style>.cls-1{fill:#fff;stroke:#100000;stroke-linecap:round;stroke-miterlimit:10;stroke-width:9px;}.cls-2{fill:#100000;}</style></defs><title>Asset 13roster</title><g id="Layer_2" data-name="Layer 2"><g id="Layer_1-2" data-name="Layer 1"><g id="_7c3231f7-dfb0-47c1-8e76-1329e3a18345" data-name="7c3231f7-dfb0-47c1-8e76-1329e3a18345"><g id="_7c3231f7-dfb0-47c1-8e76-1329e3a18345-child-0" data-name="7c3231f7-dfb0-47c1-8e76-1329e3a18345-child-0"><path class="cls-1" d="M49.54,522.28,5,108.79,968.07,5l44.58,413.48Z"/></g></g><g id="eb356740-81d7-43fa-8d76-8875e2d1dd09"><g id="dd9c692a-882e-443d-bb57-cb8ada661886"><path class="cls-2" d="M154.59,425.7q1.2,11.15-3.15,17.72T138,451q-9.17,1-14.85-4.54t-6.87-16.61l-1.08-10q-1.2-11.15,3.15-17.72t13.48-7.57q9.15-1,14.82,4.56t6.87,16.64Zm-14-10.29c-.42-4-1.26-6.86-2.5-8.69a5.22,5.22,0,0,0-5.23-2.4,5.08,5.08,0,0,0-4.48,3.23q-1.2,2.9-.72,8.41L129.19,430c.44,4.1,1.29,7.05,2.52,8.84a5.26,5.26,0,0,0,5.22,2.32,5.16,5.16,0,0,0,4.5-3.3c.83-2,1-4.92.65-8.87Zm58.95,28.17L186.8,445l-4.38-40.64-12.15,5-1-9.66,23.23-10.95,1.18-.13Zm62.68-6.76L223.87,441l-.89-8.31,15.66-20.48q5.73-8.15,5.26-12.53a8.38,8.38,0,0,0-2.12-5.23,6.07,6.07,0,0,0-9.15,1.62,10.28,10.28,0,0,0-1.15,6.37l-12.76,1.38a18.08,18.08,0,0,1,1.52-9.62,17.84,17.84,0,0,1,6.3-7.46,21,21,0,0,1,9.78-3.5q8.91-1,14.18,2.64t6.08,11.29a17,17,0,0,1-.53,6.45,27.51,27.51,0,0,1-3.06,6.87,94.92,94.92,0,0,1-7.24,9.93l-6.21,9L261.18,427Zm20.9-14.74a7.26,7.26,0,0,1,5.21,1.25,6.28,6.28,0,0,1,1,9.17,7.95,7.95,0,0,1-10.06,1.07,6.29,6.29,0,0,1-1-9.14A7.25,7.25,0,0,1,283.14,422.08Zm32.44-24.2,6-.65q7.14-.76,6.38-7.76a6,6,0,0,0-2.18-4.25,6.48,6.48,0,0,0-5-1.2,6.93,6.93,0,0,0-4.25,2,4.5,4.5,0,0,0-1.47,3.87l-12.72,1.37a13.18,13.18,0,0,1,1.58-8,16.08,16.08,0,0,1,6.13-6,23,23,0,0,1,9.21-2.91q9.18-1,14.88,2.63a14,14,0,0,1,6.49,10.94,11.76,11.76,0,0,1-1.44,6.95,15.62,15.62,0,0,1-5.78,5.79,14.94,14.94,0,0,1,7.39,4.07,12.76,12.76,0,0,1,3.35,7.73,14.3,14.3,0,0,1-4.39,12.39q-5.19,5-14.4,6a24.49,24.49,0,0,1-10.25-1,15.82,15.82,0,0,1-7.62-4.95,14.85,14.85,0,0,1-3.27-8l12.8-1.38a5.78,5.78,0,0,0,2.51,4.16,7.27,7.27,0,0,0,5.22,1.32,7.62,7.62,0,0,0,5.16-2.45,6.33,6.33,0,0,0,1.49-5q-.45-4.16-2.71-5.66a8.63,8.63,0,0,0-5.93-1.12l-6.2.67Zm75.72,3.29,5.59-.6,1.06,9.81-5.59.61,1.26,11.67L380.89,424l-1.26-11.67-21.25,2.29-1.6-7.69L375,369.17l0-.12,12.73-1.37Zm-22.62,2.44,9.9-1.07-1.83-16.91L376.1,387Zm41.71-10,.33-28.46,32.13-3.46,1.07,9.89L422.12,374l-.06,11a15.36,15.36,0,0,1,3.42-1.78,16.64,16.64,0,0,1,4.26-1.07q8.19-.87,13.11,3.5c3.28,2.91,5.24,7.3,5.87,13.13a19.57,19.57,0,0,1-1.33,9.83,16.31,16.31,0,0,1-5.92,7.3,20.81,20.81,0,0,1-9.83,3.39,22.43,22.43,0,0,1-9.93-1.09,17.4,17.4,0,0,1-7.73-5.08,14.2,14.2,0,0,1-3.43-8.13l12.75-1.37a7.29,7.29,0,0,0,2.45,4.58,6.14,6.14,0,0,0,4.75,1.29c4.29-.46,6.08-3.86,5.4-10.22-.63-5.85-3.56-8.51-8.8-7.94-3,.32-5.08,1.51-6.34,3.58Zm79.37-37.77,1.08,10-.56.06c-4.76.51-8.54,2.08-11.36,4.68a14.59,14.59,0,0,0-4.62,10.11,15,15,0,0,1,10.42-5.41,14,14,0,0,1,11.93,4q4.78,4.76,5.7,13.21a19.39,19.39,0,0,1-1.43,9.9,17.93,17.93,0,0,1-6.17,7.6,20.07,20.07,0,0,1-9.57,3.53A20.6,20.6,0,0,1,474.43,412a18.44,18.44,0,0,1-8-6.83,25.22,25.22,0,0,1-3.87-11.12L462,389a31.83,31.83,0,0,1,2-15.66,26.48,26.48,0,0,1,9.26-11.75,30,30,0,0,1,14.58-5.47Zm-8.41,29.66a7.15,7.15,0,0,0-4.09,1.63,7.49,7.49,0,0,0-2.23,3.15l.41,3.8q1.13,10.42,8.33,9.66a5.87,5.87,0,0,0,4.57-3.14,10.63,10.63,0,0,0,1.25-6.74,10.4,10.4,0,0,0-2.69-6.37,6.38,6.38,0,0,0-5.55-2ZM550.57,357l-15.34,50.39-13.44,1.45,15.71-47.38-26.2,2.83-1.06-9.83,39.6-4.27Zm52.25,2.35a12.84,12.84,0,0,1-1.23,7.27,14.54,14.54,0,0,1-4.93,5.5,16,16,0,0,1,6.8,4.59,13.69,13.69,0,0,1,3.16,7.67q.79,7.37-3.82,12.18t-13.53,5.77q-9,1-14.59-2.76a14.38,14.38,0,0,1-6.43-11.06,13.88,13.88,0,0,1,1.43-8.06,15.44,15.44,0,0,1,5.84-6.05,14.49,14.49,0,0,1-6-4.32,12.53,12.53,0,0,1-2.76-6.84q-.78-7.17,3.65-11.86t12.68-5.56q8.36-.9,13.67,2.72t6.1,10.81Zm-9.07,25.39a7.28,7.28,0,0,0-2.33-5,6.09,6.09,0,0,0-4.82-1.34,6.18,6.18,0,0,0-4.44,2.34,8.54,8.54,0,0,0,1.14,10.41,6.2,6.2,0,0,0,4.91,1.41,5.94,5.94,0,0,0,4.36-2.39,7.39,7.39,0,0,0,1.18-5.39Zm-9.64-29.11a4.75,4.75,0,0,0-3.73,2.1,7.39,7.39,0,0,0-.82,4.81,7.86,7.86,0,0,0,1.86,4.62,4.78,4.78,0,0,0,4.2,1.38,4.55,4.55,0,0,0,3.72-2.24,8,8,0,0,0,.78-4.9,7.33,7.33,0,0,0-1.84-4.5,4.83,4.83,0,0,0-4.17-1.27Zm45.23,29.12a7.28,7.28,0,0,1,5.22,1.25,6.32,6.32,0,0,1,1,9.18,7.3,7.3,0,0,1-4.83,2.34,7.23,7.23,0,0,1-5.24-1.28,6.3,6.3,0,0,1-1-9.14,7.25,7.25,0,0,1,4.84-2.35Zm47.14-14.09a13.51,13.51,0,0,1-8.81,4.69c-5,.54-9.12-.73-12.41-3.78s-5.23-7.41-5.83-13.05a20.41,20.41,0,0,1,1.39-10.08,18.85,18.85,0,0,1,15.63-11.61,18.2,18.2,0,0,1,17.82,8.67,26.73,26.73,0,0,1,3.78,11.27l.53,4.87a33.36,33.36,0,0,1-1.87,16.16,24.83,24.83,0,0,1-9.08,11.37,31.87,31.87,0,0,1-15,5.25l-.79.09-1.1-10.19,2.41-.31q13.07-2.06,13.34-13.35Zm-6.36-4.86a6.24,6.24,0,0,0,5.58-4.23l-.57-5.28q-.57-5.3-2.63-7.63a5.59,5.59,0,0,0-5.06-2q-2.69.28-4.19,3.36a12.92,12.92,0,0,0-1.06,7.13,11.52,11.52,0,0,0,2.59,6.66,6,6,0,0,0,5.34,2Zm64.3,20.12-12.76,1.37-4.38-40.63-12.15,5-1-9.67,23.23-10.95,1.18-.13Zm60.07-29.21q1.2,11.15-3.16,17.72T777.88,382q-9.17,1-14.85-4.54t-6.87-16.61l-1.08-10q-1.2-11.15,3.15-17.72t13.48-7.57q9.15-1,14.83,4.56t6.87,16.64Zm-14-10.29c-.42-4-1.26-6.86-2.5-8.69a5.22,5.22,0,0,0-5.23-2.4,5.08,5.08,0,0,0-4.48,3.23q-1.2,2.9-.71,8.41l1.51,14q.67,6.15,2.52,8.84a5.24,5.24,0,0,0,5.22,2.32,5.14,5.14,0,0,0,4.49-3.3q1.24-2.94.65-8.87Zm37.5,18a7.26,7.26,0,0,1,5.21,1.25,6.29,6.29,0,0,1,1,9.18,7.93,7.93,0,0,1-10.06,1.06,6.28,6.28,0,0,1-1-9.13A7.26,7.26,0,0,1,818,364.41Zm52.56,6.83-12.76,1.37L853.42,332l-12.14,5-1-9.66,23.23-11,1.18-.12Zm62.68-6.76-38.37,4.14L894,360.3l15.66-20.47q5.73-8.15,5.26-12.53a8.38,8.38,0,0,0-2.12-5.23,6.05,6.05,0,0,0-9.15,1.62,10.27,10.27,0,0,0-1.15,6.37l-12.76,1.38a18.07,18.07,0,0,1,1.52-9.62,17.84,17.84,0,0,1,6.3-7.46,21,21,0,0,1,9.78-3.5q8.91-1,14.18,2.64t6.08,11.29a17,17,0,0,1-.53,6.45,27.51,27.51,0,0,1-3.06,6.87,94,94,0,0,1-7.24,9.92l-6.21,9,21.64-2.33Z"/></g></g><g id="a668ed43-e3e0-4be7-ad95-fa6674a5ddd8"><g id="a668ed43-e3e0-4be7-ad95-fa6674a5ddd8-child-0"><path class="cls-2" d="M507.05,312.77l-25.1,2.7-22-204,25.1-2.71ZM444.63,113.15l-13.95,1.5,22,204,13.94-1.5Zm-24,2.59-14.22,1.53,22,204,14.22-1.54ZM388,119.25l-30.95,3.34,22,204L410,323.23Zm-55.49,6-15.33,1.65,22,204,15.33-1.66Zm-39.31,4.23-63.86,6.89,22,204,63.86-6.89ZM127,147.39l-20.92,2.26,22,204L149,351.37ZM109.7,355.61l-22-204L59.27,154.7l22,204ZM204,139.09l-14,1.51,22,204,13.94-1.5Zm-33.46,3.61-13.67,1.48,22,204,13.67-1.47Z"/></g></g><g id="a10dd813-e14e-4904-b63e-d9def6ccaaad"><g id="a10dd813-e14e-4904-b63e-d9def6ccaaad-child-0"><path class="cls-2" d="M521.53,311.21l25.1-2.71-22-204-25.1,2.71ZM540,102.87l13.95-1.5,22,204L562,306.85Zm24-2.58,14.22-1.54,22,204L586,304.26Zm32.63-3.52,30.95-3.34,22,204-30.95,3.33Zm55.49-6,15.33-1.66,22,204-15.34,1.65Zm39.31-4.24,63.86-6.89,22,204-63.85,6.88ZM857.57,68.63l20.92-2.26,22,204-20.92,2.26Zm61.31,199.74-22-204,28.44-3.07,22,204ZM780.61,76.93l13.94-1.51,22,204-13.95,1.5Zm33.46-3.61,13.67-1.47,22,204-13.66,1.48Z"/></g></g></g></g></svg>