<svg xmlns="http://www.w3.org/2000/svg" viewBox="0 0 861.82 507.55"><defs><style>.cls-1{fill:#fff;}.cls-2,.cls-3{fill:none;stroke:#fff;stroke-linecap:round;stroke-miterlimit:10;}.cls-2{stroke-width:10.28px;}.cls-3{stroke-width:10.91px;}</style></defs><title>Asset 19mdpi</title><g id="Layer_2" data-name="Layer 2"><g id="Layer_1-2" data-name="Layer 1"><g id="_34631ae6-3e14-4b5d-a9f4-63d5452044a4" data-name="34631ae6-3e14-4b5d-a9f4-63d5452044a4"><g id="_34631ae6-3e14-4b5d-a9f4-63d5452044a4-child-0" data-name="34631ae6-3e14-4b5d-a9f4-63d5452044a4-child-0"><path class="cls-1" d="M5.45,379.13V126.07H856.37V379.13Z"/></g></g><g id="_16666b99-e6b5-4a27-9d89-aaf1fc142ca7" data-name="16666b99-e6b5-4a27-9d89-aaf1fc142ca7"><g id="_16666b99-e6b5-4a27-9d89-aaf1fc142ca7-child-0" data-name="16666b99-e6b5-4a27-9d89-aaf1fc142ca7-child-0"><path class="cls-2" d="M5.45,309.5V5.14H856.37V309.5Z"/></g></g><g id="d898cc2f-d426-4c8b-9311-d7a7dc96cc14"><g id="d898cc2f-d426-4c8b-9311-d7a7dc96cc14-child-0"><path class="cls-3" d="M5.45,502.1V222.3H856.37V502.1Z"/></g></g><g id="_193fd5f0-2623-41b8-9f6c-9629e6025e6f" data-name="193fd5f0-2623-41b8-9f6c-9629e6025e6f"><g id="_5106f727-2223-4a52-8d58-71dce692c4da" data-name="5106f727-2223-4a52-8d58-71dce692c4da"><path d="M31.79,341.38,49.85,154.54h63.29L131,341.38H95.53l-2.61-30.23H70.29l-2.17,30.23Zm58.3-60-8.27-95.06H80.08l-7,95.06Zm57.42-126.81h51.55q20,0,30,11.09t10.22,32.84l.44,87.44q.22,27.63-9.57,41.55t-32.41,13.92H147.51Zm44.16,153.78q10.22,0,10.22-10V202a34.27,34.27,0,0,0-1-9.46,6.3,6.3,0,0,0-3.59-4.24q-2.61-1.09-8-1.09h-4.13V308.32Zm84.61,33.06L253.22,154.32H288.9l13.7,127.24,12.18-127.24h35.67L327.4,341.38Zm87.22,0V154.54h36.11V341.38Zm101.8,1.74q-25.46,0-36.76-12.62t-11.31-40.67V271.56H454v23.27q0,13.92,8.92,13.92,5,0,7-2.93t2-9.9a44.79,44.79,0,0,0-2.18-15.12,32.83,32.83,0,0,0-5.55-10q-3.37-4-12.07-12.51l-16.09-16.1q-18.7-18.27-18.71-40.45,0-23.93,11-36.44t32.09-12.51q25.23,0,36.32,13.38T507.72,208H469.65l-.22-12.83a8.19,8.19,0,0,0-2.06-5.87,7.58,7.58,0,0,0-5.77-2.18q-4.35,0-6.52,2.39a9.37,9.37,0,0,0-2.18,6.53q0,9.13,10.44,18.92l21.75,20.89a122.51,122.51,0,0,1,12.62,14,55,55,0,0,1,8.05,15.66,67.17,67.17,0,0,1,3,21.42q0,27.63-10.11,41.87T465.3,343.12Zm107.89,0q-22.62,0-34.37-13.81t-11.75-38.83v-89q0-24.15,11.75-36.44t34.37-12.29q22.62,0,34.36,12.29t11.75,36.44v89q0,25.23-11.75,38.94t-34.36,13.7Zm0-34.37q5,0,6.74-4.35t1.74-12.18V200.87A25.38,25.38,0,0,0,580,191q-1.63-3.81-6.63-3.81-9.36,0-9.36,14.14v91.14q0,8.06,2,12.18T573.19,308.75Zm67.64-154.21h57.43q13.69,0,21.21,6.19t10.11,17.41q2.61,11.21,2.61,28.6,0,15.88-4.13,24.8T713.7,243.93q8.47,1.74,12.29,8.49t3.81,18.27l-.44,70.69H692.82V268.3q0-7.85-3-10t-11.1-2.18v85.27H640.83Zm47,69.16q7.83,0,7.83-17a69.86,69.86,0,0,0-.65-11.09c-.44-2.47-1.24-4.17-2.4-5.12a7.78,7.78,0,0,0-5-1.41h-8.7V223.7Zm84.39,117.68V279.82l-29.8-125.28h37l10.44,63.29,10.44-63.29h37l-29.8,125.28v61.56Z"/></g></g><g id="_0d62b79d-ce93-46a8-ac98-8e7ac5673d19" data-name="0d62b79d-ce93-46a8-ac98-8e7ac5673d19"><g id="_5cdbc7fa-4bbe-4f91-ad6e-b821cccb7895" data-name="5cdbc7fa-4bbe-4f91-ad6e-b821cccb7895"><path class="cls-1" d="M119.54,78.25v23.89h-14V34.34H132a30.64,30.64,0,0,1,13.43,2.79,20.62,20.62,0,0,1,8.92,7.94,22.15,22.15,0,0,1,3.12,11.71q0,10-6.82,15.72t-18.89,5.75Zm0-11.31H132q5.53,0,8.45-2.61t2.91-7.45a11.22,11.22,0,0,0-2.93-8.06,11,11,0,0,0-8.11-3.16h-12.8Zm104.9,21.23H200l-4.66,14H180.44l25.23-67.8h13L244,102.14H229.14ZM203.72,76.85h16.95l-8.52-25.37Zm99.08.47H291.67v24.82h-14V34.34h25.19q12,0,18.54,5.35T328,54.83a20.78,20.78,0,0,1-3,11.57,20.42,20.42,0,0,1-9.1,7.38l14.67,27.71v.65h-15ZM291.67,66h11.27c3.51,0,6.22-.89,8.15-2.67A9.57,9.57,0,0,0,314,56a10.24,10.24,0,0,0-2.73-7.55q-2.72-2.74-8.36-2.74H291.67Zm115.06,6.76H379.9V90.92h31.48v11.22H365.93V34.34h45.36V45.66H379.9V61.81h26.83Zm95.35,29.38h-14L460.92,57.53v44.61H447V34.34h14L488.16,79V34.34h13.92Zm89.26-56.48H570.57v56.48h-14V45.66H536.11V34.34h55.23Zm68,42.51H634.87l-4.66,14H615.36l25.24-67.8h12.94l25.38,67.8H664.06ZM638.64,76.85h17l-8.52-25.37Zm88,14.07h29.66v11.22H712.62V34.34h14Z"/></g></g><g id="b4fe3e91-f6aa-4541-a261-9cfeaa1521bd"><g id="_6c40ea80-895a-4e4e-875e-f924ca031d14" data-name="6c40ea80-895a-4e4e-875e-f924ca031d14"><path class="cls-1" d="M66.52,440.88H40.84v17.39H71V469H27.46V404.09H70.89v10.84h-30V430.4H66.52Zm34.62-14.4,12.17-22.39h15.38l-18.9,32.19L129.18,469H113.62l-12.48-22.74L88.66,469H73.1l19.39-32.73-18.9-32.19H89Zm47.24,19.66V469H135V404.09h25.33a29.21,29.21,0,0,1,12.86,2.68,19.65,19.65,0,0,1,8.54,7.6,21.22,21.22,0,0,1,3,11.21q0,9.56-6.54,15.05t-18.08,5.51Zm0-10.84h12q5.29,0,8.09-2.49a9.1,9.1,0,0,0,2.79-7.14A10.71,10.71,0,0,0,168.4,418a10.5,10.5,0,0,0-7.76-3H148.38Zm58,23h28.4V469H193V404.09h13.37ZM255.74,469H242.37V404.09h13.37Zm62.44-21.62q-.76,10.47-7.73,16.49t-18.39,6q-12.49,0-19.64-8.4t-7.16-23.08v-4a38.88,38.88,0,0,1,3.3-16.5A24.8,24.8,0,0,1,278,407a26.42,26.42,0,0,1,14.24-3.81q11.24,0,18.11,6t7.93,16.9H304.9q-.5-6.28-3.5-9.12t-9.17-2.83q-6.68,0-10,4.79t-3.42,14.87v4.91q0,10.51,3.19,15.38T292.06,459q6.19,0,9.25-2.83t3.5-8.76ZM340.28,469H326.9V404.09h13.38Zm59.05-54.08H379.44V469H366.07V414.93H346.45V404.09h52.88Zm76.82,32.46q-.76,10.47-7.73,16.49t-18.4,6q-12.48,0-19.64-8.4t-7.15-23.08v-4a38.88,38.88,0,0,1,3.3-16.5A24.8,24.8,0,0,1,436,407a26.42,26.42,0,0,1,14.24-3.81q11.24,0,18.1,6t7.94,16.9H462.86q-.5-6.28-3.5-9.12t-9.16-2.83q-6.69,0-10,4.79t-3.41,14.87v4.91q0,10.51,3.19,15.38T450,459q6.19,0,9.26-2.83t3.5-8.76ZM537.34,438A39.31,39.31,0,0,1,534,454.83a25.57,25.57,0,0,1-9.7,11.15,28.66,28.66,0,0,1-28.87,0,25.81,25.81,0,0,1-9.81-11.08,38,38,0,0,1-3.52-16.56v-3.21a39.06,39.06,0,0,1,3.45-16.88,25.86,25.86,0,0,1,9.77-11.19,28.61,28.61,0,0,1,28.84,0,25.86,25.86,0,0,1,9.77,11.19,38.94,38.94,0,0,1,3.45,16.84Zm-13.55-2.94q0-10.21-3.66-15.51a12.91,12.91,0,0,0-20.82-.07q-3.65,5.24-3.7,15.36V438q0,9.94,3.66,15.43a12.8,12.8,0,0,0,20.86.2q3.61-5.28,3.66-15.4ZM598.94,469H585.56l-26-42.71V469H546.15V404.09h13.38l26.08,42.81V404.09h13.33Zm58.34-54.08H637.39V469H624V414.93H604.4V404.09h52.88Zm45.77,25.95H677.37v17.39h30.14V469H664V404.09h43.43v10.84h-30V430.4h25.68ZM767.23,469H753.85l-26-42.71V469H714.44V404.09h13.37L753.9,446.9V404.09h13.33Zm58.34-54.08H805.68V469H792.31V414.93H772.69V404.09h52.88Z"/></g></g></g></g></svg>