<svg xmlns="http://www.w3.org/2000/svg" viewBox="0 0 57.68 9.55"><defs><style>.cls-1{fill:#0d122f;}</style></defs><title>Asset 23mdpi</title><g id="Layer_2" data-name="Layer 2"><g id="Layer_1-2" data-name="Layer 1"><path class="cls-1" d="M24.12,5.16a4.66,4.66,0,0,0,4.93,4.38,5,5,0,0,0,4.56-4.85A5,5,0,0,0,28.78.06,4.88,4.88,0,0,0,24.12,5.16Z"/><path class="cls-1" d="M4.77,9.55A4.85,4.85,0,0,0,9.51,4.86,5.16,5.16,0,0,0,4.48,0,4.88,4.88,0,0,0,0,5,4.65,4.65,0,0,0,4.77,9.55Z"/><path class="cls-1" d="M52.74.14C50,.36,48.64,2.09,48.3,4.7A4.19,4.19,0,0,0,52.54,9c2.05.17,5.07-2.39,5.14-4.28C57.75,2.5,55.11,0,52.76.14Z"/></g></g></svg>