<svg xmlns="http://www.w3.org/2000/svg" viewBox="0 0 450.52 126.19"><defs><style>.cls-1{fill:#fff;}</style></defs><title>Asset 58mdpi</title><g id="Layer_2" data-name="Layer 2"><g id="Layer_1-2" data-name="Layer 1"><g id="a3bbd76c-1b3c-45fe-ab1f-6285c2bb92f5"><g id="a3bbd76c-1b3c-45fe-ab1f-6285c2bb92f5-child-0"><path class="cls-1" d="M269.88,18.48a63.1,63.1,0,1,0-89.24,89.23,63.1,63.1,0,1,0,89.24-89.23Zm-5.22,5.22a56.37,56.37,0,0,1,8.61,11.09H248.75a96.74,96.74,0,0,0-4.18-15,51,51,0,0,0-5.35-10.65A55.37,55.37,0,0,1,264.66,23.7ZM244,63.1a145.59,145.59,0,0,1-1.41,20.58H207.94a145.59,145.59,0,0,1-1.41-20.58A145.71,145.71,0,0,1,208,42.17h34.54A145.71,145.71,0,0,1,244,63.1ZM225.26,7.38c4.22,0,8.85,5.61,12.4,15a86.77,86.77,0,0,1,3.56,12.4H209.3a86.77,86.77,0,0,1,3.56-12.4C216.41,13,221,7.38,225.26,7.38ZM185.86,23.7A55.37,55.37,0,0,1,211.3,9.14,51,51,0,0,0,206,19.79a96.74,96.74,0,0,0-4.18,15H177.25A56,56,0,0,1,185.86,23.7ZM169.55,63.1a55.78,55.78,0,0,1,4-20.93h26.95a153.15,153.15,0,0,0-1.39,20.93,154.92,154.92,0,0,0,1.34,20.58h-27A55.58,55.58,0,0,1,169.55,63.1Zm16.31,39.39a56.1,56.1,0,0,1-8.81-11.43h24.66A96,96,0,0,0,206,106.41a51.53,51.53,0,0,0,5.35,10.65A55.47,55.47,0,0,1,185.86,102.49Zm39.4,16.32c-4.22,0-8.85-5.61-12.4-15a86.28,86.28,0,0,1-3.63-12.74h32.06a86.28,86.28,0,0,1-3.63,12.74C234.11,113.2,229.48,118.81,225.26,118.81Zm39.4-16.32a55.47,55.47,0,0,1-25.44,14.57,51.53,51.53,0,0,0,5.35-10.65,96,96,0,0,0,4.24-15.35h24.66A55.83,55.83,0,0,1,264.66,102.49ZM250,83.68a154.92,154.92,0,0,0,1.34-20.58A153.15,153.15,0,0,0,250,42.17h26.94a56.11,56.11,0,0,1,.14,41.51Z"/></g></g><g id="_23a1b623-0103-471b-9b11-2c72d8f36e9a" data-name="23a1b623-0103-471b-9b11-2c72d8f36e9a"><g id="_23a1b623-0103-471b-9b11-2c72d8f36e9a-child-0" data-name="23a1b623-0103-471b-9b11-2c72d8f36e9a-child-0"><path class="cls-1" d="M63.1,0a63.1,63.1,0,1,0,63.09,63.1A63.06,63.06,0,0,0,63.1,0ZM55.67,40.83a22.27,22.27,0,0,0,0,44.54v7.42a29.7,29.7,0,0,1,0-59.39Zm37.12,0a22.3,22.3,0,0,0-22,18.55h22v7.43h-22a22.31,22.31,0,0,0,22,18.56v7.42a29.7,29.7,0,0,1,0-59.39Z"/></g></g><g id="_7f6c7b0c-83ca-47d1-ada6-b04fcbd3bb47" data-name="7f6c7b0c-83ca-47d1-ada6-b04fcbd3bb47"><g id="_7f6c7b0c-83ca-47d1-ada6-b04fcbd3bb47-child-0" data-name="7f6c7b0c-83ca-47d1-ada6-b04fcbd3bb47-child-0"><path class="cls-1" d="M364.25,84.59V50.33h-7.92V41.55h18.85v43Z"/></g><g id="_7f6c7b0c-83ca-47d1-ada6-b04fcbd3bb47-child-1" data-name="7f6c7b0c-83ca-47d1-ada6-b04fcbd3bb47-child-1"><path class="cls-1" d="M416.25,52.66a10.07,10.07,0,0,1-5.4,8.9c4.73,2,7.67,6.08,7.67,10.87,0,7.74-6.87,12.65-17.62,12.65s-17.62-4.85-17.62-12.47c0-4.91,3.19-9.08,8.17-11-3.63-2-6-5.46-6-9.21,0-6.87,6-11.23,15.35-11.23S416.25,45.6,416.25,52.66ZM393.59,71.51c0,3.62,2.58,5.65,7.31,5.65s7.37-2,7.37-5.65-2.64-5.59-7.37-5.59S393.59,68,393.59,71.51Zm1.11-18.24c0,3.07,2.21,4.79,6.2,4.79s6.2-1.72,6.2-4.79-2.21-5-6.2-5S394.7,50.08,394.7,53.27Z"/></g><g id="_7f6c7b0c-83ca-47d1-ada6-b04fcbd3bb47-child-2" data-name="7f6c7b0c-83ca-47d1-ada6-b04fcbd3bb47-child-2"><path class="cls-1" d="M436.71,46.4a52,52,0,1,1-32.59-32.59V2.24A63.06,63.06,0,1,0,448.28,46.4Z"/></g><g id="_7f6c7b0c-83ca-47d1-ada6-b04fcbd3bb47-child-3" data-name="7f6c7b0c-83ca-47d1-ada6-b04fcbd3bb47-child-3"><path class="cls-1" d="M433.56,16.93V4.83h-8.7v12.1h-12v8.7h12V37.72h8.7V25.63h12.1v-8.7Z"/></g></g></g></g></svg>