<svg xmlns="http://www.w3.org/2000/svg" viewBox="0 0 168.28 391.3"><defs><style>.cls-1{fill:#e55998;}</style></defs><title>Asset 11mdpi</title><g id="Layer_2" data-name="Layer 2"><g id="Layer_1-2" data-name="Layer 1"><g id="_1e297e8b-4594-4ba4-a9e8-147133b133bd" data-name="1e297e8b-4594-4ba4-a9e8-147133b133bd"><g id="_1e297e8b-4594-4ba4-a9e8-147133b133bd-child-0" data-name="1e297e8b-4594-4ba4-a9e8-147133b133bd-child-0"><path class="cls-1" d="M56.77,151.3V127.64a16,16,0,0,0-16-16H16a16,16,0,0,0-16,16v24.7a16,16,0,0,0,16,16H39.69a16,16,0,0,1,16,16V207a16,16,0,0,1-16,16H16A16,16,0,0,0,0,239.11V263.8a16,16,0,0,0,16,16H39.69a16,16,0,0,1,16,16v22.64a16,16,0,0,1-16,16H16a16,16,0,0,0-16,16v24.69a16,16,0,0,0,16,16H40.73a16,16,0,0,0,16-16V351.6a16,16,0,0,1,16-16H95.44a16,16,0,0,1,16,16v23.66a16,16,0,0,0,16,16h24.69a16,16,0,0,0,16-16V350.57a16,16,0,0,0-16-16H128.48a16,16,0,0,1-16-16V295.86a16,16,0,0,1,16-16h23.71a16,16,0,0,0,16-16V239.1a16,16,0,0,0-16-16H128.48a16,16,0,0,1-16-16.06V184.37a16,16,0,0,1,16-16h23.72a16,16,0,0,0,16-16V127.6a16,16,0,0,0-16-16H127.5a16,16,0,0,0-16,16v23.7a16,16,0,0,1-16,16H72.79A16,16,0,0,1,56.77,151.3Zm38.66,72.8a16,16,0,0,1,16,16v22.64a16,16,0,0,1-16,16H72.79a16,16,0,0,1-16-16V240.14a16,16,0,0,1,16-16Z"/></g></g><g id="_477f9436-cd71-4b1a-aae8-93f49de91091" data-name="477f9436-cd71-4b1a-aae8-93f49de91091"><g id="_477f9436-cd71-4b1a-aae8-93f49de91091-child-0" data-name="477f9436-cd71-4b1a-aae8-93f49de91091-child-0"><path class="cls-1" d="M56.77,39.74V16.08a16,16,0,0,0-16-16H16a16,16,0,0,0-16,16V40.77a16,16,0,0,0,16,16H39.69a16,16,0,0,1,16,16V95.44a16,16,0,0,1-16,16H16A16,16,0,0,0,0,127.54v24.69a16,16,0,0,0,16,16H39.69a16,16,0,0,1,16,16v22.63a16,16,0,0,1-16,16H16A16,16,0,0,0,0,239V263.7a16,16,0,0,0,16,16H40.73a16,16,0,0,0,16-16V240a16,16,0,0,1,16-16H95.44a16,16,0,0,1,16,16V263.7a16.06,16.06,0,0,0,16,16h24.69a16,16,0,0,0,16-16V239a16,16,0,0,0-16-16H128.48a16,16,0,0,1-16-16V184.3a16,16,0,0,1,16-16h23.71a16,16,0,0,0,16-16V127.53a16,16,0,0,0-16-16H128.48a16,16,0,0,1-16-16.06V72.8a16,16,0,0,1,16-16h23.72a16,16,0,0,0,16-16V16a16,16,0,0,0-16-16H127.5a16,16,0,0,0-16,16v23.7a16,16,0,0,1-16,16H72.79A16,16,0,0,1,56.77,39.74Zm38.66,72.8a16,16,0,0,1,16,16v22.63a16,16,0,0,1-16,16H72.79a16,16,0,0,1-16-16V128.58a16,16,0,0,1,16-16Z"/></g></g></g></g></svg>