<svg xmlns="http://www.w3.org/2000/svg" viewBox="0 0 93.29 84.93"><defs><style>.cls-1{fill:#0d122f;}</style></defs><title>Asset 15mdpi</title><g id="Layer_2" data-name="Layer 2"><g id="Layer_1-2" data-name="Layer 1"><path class="cls-1" d="M51.39,50.62A2.25,2.25,0,0,0,49,53.34c.12,1.65,1.19,2.1,2.66,2a2.07,2.07,0,0,0,2.27-2.26C53.78,51.36,52.93,50.59,51.39,50.62Z"/><path class="cls-1" d="M32.21,19.64a2.9,2.9,0,0,0-3.06,2.79A2.72,2.72,0,0,0,32,25.65c1.86,0,3-1,3.38-3A3.11,3.11,0,0,0,32.21,19.64Z"/><path class="cls-1" d="M31.92,6c2.19-.09,3-1.42,3.38-3.14A2.59,2.59,0,0,0,32.37,0a2.84,2.84,0,0,0-3.06,3.11C29.36,4.71,29.8,6.13,31.92,6Z"/><path class="cls-1" d="M41.79,40.05a2.59,2.59,0,0,0-2.92,2.78c0,1.83,1,2.81,3.11,2.79,1.64,0,2.58-1,2.48-2.89A2.56,2.56,0,0,0,41.79,40.05Z"/><path class="cls-1" d="M32.19,30c-1.91,0-3.14.94-3.09,2.94,0,1.83,1.3,2.63,3,2.65s2.71-1.08,3-2.75A2.85,2.85,0,0,0,32.19,30Z"/><path class="cls-1" d="M31.72,40.1a2.54,2.54,0,0,0-2.53,2.79A2.49,2.49,0,0,0,32,45.62c2,0,2.65-1.15,2.7-3.21A2.53,2.53,0,0,0,31.72,40.1Z"/><path class="cls-1" d="M22.51,50.57c-1.69-.1-2.71.65-2.78,2.36-.07,1.43.46,2.47,2.17,2.53s3-.65,3-2.55A2.14,2.14,0,0,0,22.51,50.57Z"/><path class="cls-1" d="M22.58,71.2c-1.26-.19-1.9.57-2.15,1.71-.07,1.26.77,1.52,1.77,1.55s1.9.06,1.92-1.29A1.76,1.76,0,0,0,22.58,71.2Z"/><path class="cls-1" d="M22.24,61A2.07,2.07,0,0,0,20,63.45c.15,1.52,1.23,1.86,2.54,1.76A2.09,2.09,0,0,0,24.66,63,2,2,0,0,0,22.24,61Z"/><path class="cls-1" d="M42,19.74a2.89,2.89,0,0,0-3.33,2.82,3,3,0,0,0,3,3.25,2.84,2.84,0,0,0,3.07-3A2.77,2.77,0,0,0,42,19.74Z"/><path class="cls-1" d="M42,9.72a2.76,2.76,0,0,0-3.12,3,2.85,2.85,0,0,0,2.92,3.21c2.06.14,2.78-1.31,3.33-3.11C44.76,11.14,43.82,9.82,42,9.72Z"/><path class="cls-1" d="M22.13,40.05a2.79,2.79,0,0,0-2.74,3c0,1.86,1.22,2.65,3,2.56s2.57-1.31,2.83-2.92C24.94,41,24,39.91,22.13,40.05Z"/><path class="cls-1" d="M41.81,29.94c-1.81-.07-3.06.85-3.13,2.6a2.7,2.7,0,0,0,3,3.05,2.59,2.59,0,0,0,2.94-2.75A2.68,2.68,0,0,0,41.81,29.94Z"/><path class="cls-1" d="M42,.12c-1.88.22-3.23,1-3.06,3.09A2.76,2.76,0,0,0,42,6c2.21,0,3.18-1.38,3.2-3.38S43.55.29,42,.12Z"/><path class="cls-1" d="M32.13,71.42A1.57,1.57,0,0,0,30.23,73a1.73,1.73,0,0,0,1.88,2,1.69,1.69,0,0,0,1.72-1.76C34,71.92,33.07,71.54,32.13,71.42Z"/><path class="cls-1" d="M32,61.14c-1.23,0-2.08.36-2.17,1.71s.41,2.29,1.93,2.36a2.17,2.17,0,0,0,2.46-2A1.94,1.94,0,0,0,32,61.14Z"/><path class="cls-1" d="M32.21,50.62c-1.69-.13-2.7.69-2.66,2.39,0,1.39.56,2.48,2.27,2.43a2.54,2.54,0,0,0,2.8-2.38C34.6,51.39,33.65,50.74,32.21,50.62Z"/><path class="cls-1" d="M32.21,9.65a2.84,2.84,0,0,0-3.07,3.09,2.74,2.74,0,0,0,2.75,3,3.15,3.15,0,0,0,3.5-3,2.85,2.85,0,0,0-3.18-3.07Z"/><path class="cls-1" d="M12.47,20c-1.57.42-3.25,1.19-3.21,3a3.14,3.14,0,0,0,3.09,2.89c2,.15,3.06-1.22,3.19-3C15.71,20.92,14.11,20.43,12.47,20Z"/><path class="cls-1" d="M12.67,30c-1.91-.05-3.17,1-3.16,2.9,0,1.67,1.05,2.77,3.21,2.87a2.89,2.89,0,0,0,2.81-3C15.54,30.9,14.43,30,12.67,30Z"/><path class="cls-1" d="M22.53,19.68A3.06,3.06,0,0,0,19.27,23c.06,1.77,1.33,2.71,3.09,2.69,2,0,2.87-1.28,3.12-3A2.92,2.92,0,0,0,22.53,19.68Z"/><path class="cls-1" d="M21.83,9.8c-2.07-.41-2.14,1.85-2.48,3.13-.44,1.69.87,2.61,2.39,2.82,2,.25,3.42-.57,3.76-2.36C25.88,10.2,23.4,10.11,21.83,9.8Z"/><path class="cls-1" d="M12.26,50.55a2.26,2.26,0,0,0-2.34,2.51c0,1.78,1,2.5,2.77,2.5a2.49,2.49,0,0,0,2.53-2.72C15.13,51.17,13.92,50.47,12.26,50.55Z"/><path class="cls-1" d="M22.29,30a2.77,2.77,0,0,0-3,3.07c0,1.85,1.23,2.61,3.42,2.56a2.73,2.73,0,0,0,2.66-3C25.29,30.73,24,29.91,22.29,30Z"/><path class="cls-1" d="M2.8,40C1,40,0,41,0,42.85a2.67,2.67,0,0,0,2.68,3c1.78.08,2.58-1.27,2.92-2.89C5.45,41.23,4.56,40.1,2.8,40Z"/><path class="cls-1" d="M.15,53c0,1.72,1,2.52,2.72,2.57a2.5,2.5,0,0,0,2.6-2.61c-.06-1.62-1.22-2.44-2.87-2.36A2.27,2.27,0,0,0,.15,53Z"/><path class="cls-1" d="M12.47,60.82c-1.28.08-2.26.61-2.38,2-.12,1.59.72,2.37,2.29,2.41a2.14,2.14,0,0,0,2.43-2.32C14.86,61.37,13.63,61.13,12.47,60.82Z"/><path class="cls-1" d="M3.21,30.18c-2.1-.14-2.83,1.4-3,3.19-.12,1.61.87,2.31,3.11,2.31A2.45,2.45,0,0,0,5.72,33,2.54,2.54,0,0,0,3.21,30.18Z"/><path class="cls-1" d="M12.74,40a2.8,2.8,0,0,0-3.16,2.62,2.57,2.57,0,0,0,2.72,3c1.77,0,3-.8,3.11-2.58A2.56,2.56,0,0,0,12.74,40Z"/><path class="cls-1" d="M71.34,61.19C70,61.09,69,61.55,68.81,63a1.84,1.84,0,0,0,1.93,2.29c1.42.09,2.1-.7,2.46-2C73.06,62.15,72.64,61.31,71.34,61.19Z"/><path class="cls-1" d="M71,71.54a1.75,1.75,0,0,0-2,1.95A1.61,1.61,0,0,0,71,75.08c1.07-.09,1.72-.62,1.77-1.32C72.79,72.12,72,71.61,71,71.54Z"/><path class="cls-1" d="M80.78,50.74a2.27,2.27,0,0,0-2.46,2.38,2,2,0,0,0,2.31,2.37c1.57,0,2.31-.84,2.6-2.34A2.47,2.47,0,0,0,80.78,50.74Z"/><path class="cls-1" d="M80.48,40.51a2.33,2.33,0,0,0-2.43,2.41,2.64,2.64,0,0,0,5.28.29C83.53,41.43,82.61,40.61,80.48,40.51Z"/><path class="cls-1" d="M70.83,50.86a2.05,2.05,0,0,0-2.21,2.44,2,2,0,0,0,2.48,2.16c1.52-.09,2.22-1,2.36-2.62C73.34,51.34,72.12,50.86,70.83,50.86Z"/><path class="cls-1" d="M61,71.34a1.86,1.86,0,0,0-1.72,2.22,1.6,1.6,0,0,0,1.9,1.55A1.89,1.89,0,1,0,61,71.34Z"/><path class="cls-1" d="M70.89,30.23a2.75,2.75,0,0,0-2.61,2.84A2.54,2.54,0,0,0,71,35.7a3,3,0,0,0,3.07-2.12C73.42,31.9,73,30.08,70.89,30.23Z"/><path class="cls-1" d="M71.22,40.49c-1.64,0-2.73.64-2.75,2.43,0,1.62.6,2.73,2.42,2.75s2.75-.58,2.63-2.46C73.66,41.54,73.12,40.48,71.22,40.49Z"/><path class="cls-1" d="M90.47,71.8c-1,0-1.85.26-1.92,1.45A1.5,1.5,0,0,0,90.18,75a1.54,1.54,0,0,0,1.7-1.72C91.9,72.33,91.49,71.75,90.47,71.8Z"/><path class="cls-1" d="M90.6,61.19c-1.48-.08-2.11.64-2.15,2.09,0,1.26.31,2,1.76,2s2.24-.53,2.29-2.09A1.85,1.85,0,0,0,90.6,61.19Z"/><path class="cls-1" d="M80.61,71.63c-1.06,0-1.81.46-1.88,1.59a1.53,1.53,0,0,0,1.56,1.84,1.79,1.79,0,0,0,2.1-1.77C82.46,72.23,81.69,71.68,80.61,71.63Z"/><path class="cls-1" d="M60.84,81.86a1.42,1.42,0,0,0-1.3,1.72c.07,1.06.68,1.41,1.81,1.34a1.46,1.46,0,0,0,1.4-1.54C62.73,82.22,61.88,81.76,60.84,81.86Z"/><path class="cls-1" d="M90.38,50.9A2.37,2.37,0,0,0,88,53.44a2.19,2.19,0,0,0,2.51,2.26c1.49-.11,2.72-.71,2.74-2.62C93.11,51.41,91.8,50.83,90.38,50.9Z"/><path class="cls-1" d="M80.56,61.21c-1.54,0-2,.94-2,2.29s.82,1.84,2.07,1.78c1.48,0,2.06-.91,2-2.28S81.77,61.21,80.56,61.21Z"/><path class="cls-1" d="M93.13,43.16c0-2-2.13-1.69-3.28-2.43C88.21,40.94,88,42.25,88,43.3c0,1.65.87,3,2.8,2.81A2.57,2.57,0,0,0,93.13,43.16Z"/><path class="cls-1" d="M41.55,71.24c-.92.25-1.79.59-1.79,1.77a1.72,1.72,0,0,0,1.93,1.93,1.61,1.61,0,0,0,1.61-1.89A1.78,1.78,0,0,0,41.55,71.24Z"/><path class="cls-1" d="M51.73,19.8a2.81,2.81,0,0,0-3.28,2.9,2.88,2.88,0,0,0,2.82,3.06,2.84,2.84,0,0,0,3.2-2.58C54.62,20.84,53.3,20,51.73,19.8Z"/><path class="cls-1" d="M51.63,29.92a2.79,2.79,0,0,0-3.16,3c0,1.67,1.09,2.8,3.71,2.7a2.58,2.58,0,0,0,2.2-2.75A2.58,2.58,0,0,0,51.63,29.92Z"/><path class="cls-1" d="M51.44,9.74a3,3,0,0,0-2.92,3.34c.14,1.85,1.37,2.89,3.38,2.74s2.67-1.25,2.7-3a2.9,2.9,0,0,0-3.16-3Z"/><path class="cls-1" d="M51.49,6c2.1-.08,3.2-1.09,3-2.87a2.92,2.92,0,0,0-3-2.73c-1.81,0-2.7,1.16-2.63,3S49.89,6.06,51.49,6Z"/><path class="cls-1" d="M61,61.13A1.9,1.9,0,0,0,59,63.36c.07,1.49,1,2,2.4,1.83A2.11,2.11,0,0,0,63.52,63C63.35,61.38,62.34,61.09,61,61.13Z"/><path class="cls-1" d="M41.49,61.14c-1.3,0-2,.64-2,1.86s.54,2.22,2,2.22a2,2,0,0,0,2.19-2C43.71,61.62,42.83,61.14,41.49,61.14Z"/><path class="cls-1" d="M51.54,40.12a2.66,2.66,0,0,0-2.78,3,2.35,2.35,0,0,0,2.72,2.53c1.87,0,2.69-1.11,2.87-3C54,41.23,53.25,40,51.54,40.12Z"/><path class="cls-1" d="M41.26,50.61a2.13,2.13,0,0,0-2.17,2.22,2.23,2.23,0,0,0,2.22,2.59A2.3,2.3,0,0,0,44.12,53c.05-1.47-.86-2.36-2.86-2.44Z"/><path class="cls-1" d="M61.47,40.22A2.52,2.52,0,0,0,58.62,43c-.06,1.71.71,2.56,2.47,2.63,1.93.07,2.72-1,2.94-2.73A2.44,2.44,0,0,0,61.47,40.22Z"/><path class="cls-1" d="M61.59,50.67c-1.56,0-2.74.55-2.79,2.34,0,1.54.6,2.43,2.26,2.38a2.23,2.23,0,0,0,2.59-2.5A1.94,1.94,0,0,0,61.59,50.67Z"/><path class="cls-1" d="M51.53,71.41a1.67,1.67,0,0,0-2,1.82c0,1.06.41,1.76,1.56,1.85,1.31.1,1.91-.56,2-2.22C53.2,72.11,52.57,71.46,51.53,71.41Z"/><path class="cls-1" d="M61.45,30a2.85,2.85,0,0,0-3.16,3c0,1.71,1.3,2.65,3.13,2.58a2.64,2.64,0,0,0,2.85-2.83C64.34,30.83,63.19,30.11,61.45,30Z"/><path class="cls-1" d="M51.37,61.13a1.84,1.84,0,0,0-2.18,2,1.94,1.94,0,0,0,2.24,2.06,2,2,0,0,0,2.22-2C53.61,61.62,52.71,61.16,51.37,61.13Z"/><path class="cls-1" d="M61.47,9.91c-2-.11-3,1.4-3.08,3.12a2.46,2.46,0,0,0,2.84,2.8,3,3,0,0,0,3.26-3.26C64.56,10.49,63,10,61.47,9.91Z"/><path class="cls-1" d="M61.43,19.74c-1.81.29-3.12,1.25-3,3.16.08,1.58.89,2.91,2.82,2.89,2.13,0,3.15-1.21,3.15-3.3C64.4,20.55,63,20,61.43,19.74Z"/></g></g></svg>