<svg xmlns="http://www.w3.org/2000/svg" viewBox="0 0 249.91 255.03"><defs><style>.cls-1{fill:#fff;fill-opacity:0;stroke:#000;stroke-linecap:round;stroke-linejoin:round;stroke-width:15px;}</style></defs><title>Asset 13mdpi</title><g id="Layer_2" data-name="Layer 2"><g id="Layer_1-2" data-name="Layer 1"><path class="cls-1" d="M242.27,121.5c0-.66-.07-1.33-.11-2-.1-1.32-.21-2.63-.33-4-.06-.64-.13-1.3-.19-2-.17-1.3-.35-2.6-.52-3.88-.09-.65-.19-1.31-.28-2l-.69-3.82c-.13-.65-.26-1.28-.38-1.91-.29-1.26-.59-2.51-.87-3.77-.16-.61-.31-1.24-.47-1.86-.34-1.24-.69-2.47-1.05-3.71-.18-.6-.36-1.22-.54-1.84-.4-1.19-.81-2.4-1.21-3.61-.22-.6-.42-1.19-.63-1.8-.46-1.18-.92-2.36-1.37-3.53-.25-.59-.48-1.18-.71-1.76l-1.54-3.46L230.59,75c-.56-1.11-1.12-2.24-1.68-3.36L228.05,70c-.62-1.09-1.23-2.18-1.84-3.27-.31-.55-.63-1.09-.94-1.63-.66-1.06-1.33-2.11-2-3.18-.34-.51-.67-1-1-1.56l-2.13-3.08-1.08-1.52c-.75-1-1.5-2-2.26-3l-1.14-1.48c-.8-.94-1.6-1.9-2.39-2.85L212.08,47c-.84-.91-1.67-1.83-2.51-2.73l-1.27-1.36c-.89-.86-1.76-1.73-2.64-2.6l-1.34-1.29-2.75-2.48c-.46-.41-.92-.83-1.4-1.23-.95-.78-1.9-1.57-2.87-2.34-.47-.4-1-.78-1.44-1.17l-3-2.21-1.49-1.09-3.09-2.07-1.55-1-3.18-1.93c-.54-.31-1.07-.63-1.61-.93l-3.26-1.79L177,19.93l-3.36-1.62L172,17.52l-3.46-1.45-1.74-.71c-1.17-.44-2.35-.86-3.52-1.29l-1.79-.63-3.61-1.12-1.81-.54c-1.23-.31-2.46-.63-3.68-1l-1.85-.44-3.76-.77-1.87-.36c-1.28-.2-2.55-.4-3.82-.58l-1.92-.28L135.28,8l-1.94-.17c-1.31-.07-2.63-.13-3.94-.21V7.5h-8.91v.12l-2,.08-3.9.3-2,.17-3.84.5-1.92.26-3.78.69-1.89.35c-1.23.29-2.46.58-3.71.85l-1.85.46-3.64,1c-.62.17-1.22.36-1.83.54l-3.57,1.21-1.78.62-3.48,1.38-1.74.7-3.42,1.54-1.68.79-3.33,1.69-1.65.88-3.22,1.84-1.61.95c-1,.67-2.08,1.34-3.13,2l-1.55,1-3,2.14-1.51,1.09L52.6,33l-1.45,1.15-2.81,2.42L47,37.79c-.9.84-1.8,1.7-2.7,2.55l-1.33,1.29q-1.29,1.32-2.58,2.67c-.43.44-.85.89-1.27,1.35-.81.93-1.64,1.85-2.45,2.78l-1.21,1.42c-.78,1-1.55,1.93-2.32,2.91-.39.48-.77,1-1.15,1.45-.73,1-1.46,2-2.2,3-.34.51-.7,1-1.06,1.52-.7,1-1.38,2.07-2.06,3.11l-1,1.58c-.65,1.08-1.28,2.15-1.92,3.23-.31.54-.62,1.08-.94,1.62-.58,1.1-1.17,2.22-1.76,3.32l-.86,1.67c-.54,1.14-1.08,2.27-1.61,3.41-.27.57-.53,1.15-.8,1.71-.47,1.17-1,2.34-1.45,3.51-.23.58-.46,1.17-.71,1.76-.42,1.18-.86,2.38-1.29,3.57-.21.61-.42,1.2-.62,1.8-.39,1.22-.76,2.45-1.13,3.65-.2.62-.38,1.24-.56,1.84-.32,1.25-.64,2.5-1,3.73-.14.63-.3,1.25-.45,1.88-.27,1.26-.53,2.52-.8,3.8-.11.63-.24,1.26-.37,1.9-.19,1.29-.4,2.58-.6,3.87-.09.64-.2,1.28-.29,1.93l-.42,3.91c-.07.66-.13,1.31-.19,2-.08,1.33-.16,2.66-.25,4,0,2-.09,4-.14,6v2c0,1.34.1,2.66.14,4,0,.66.07,1.33.1,2,.11,1.31.22,2.62.34,3.95.06.64.13,1.3.19,2,.17,1.3.35,2.6.52,3.89.09.64.19,1.3.28,1.94l.69,3.82c.13.65.26,1.28.38,1.91.29,1.26.59,2.51.87,3.77l.46,1.86c.35,1.24.7,2.47,1.06,3.71.18.6.36,1.22.54,1.84.4,1.19.81,2.4,1.21,3.61.21.6.42,1.19.63,1.8.46,1.18.92,2.36,1.37,3.53.25.59.48,1.18.71,1.76.51,1.16,1,2.31,1.54,3.46.26.58.52,1.14.79,1.72.56,1.12,1.11,2.24,1.68,3.36.28.57.58,1.12.86,1.67.62,1.09,1.22,2.18,1.84,3.27.31.55.63,1.09.94,1.63.65,1.06,1.32,2.11,2,3.18l1,1.56,2.12,3.08,1.08,1.52,2.27,3,1.14,1.47c.8.94,1.6,1.9,2.39,2.85l1.21,1.4,2.51,2.74,1.27,1.35,2.64,2.6L45.58,216l2.76,2.48c.46.41.92.83,1.4,1.23.95.78,1.9,1.57,2.86,2.34.48.4,1,.78,1.44,1.17l3,2.21,1.49,1.09c1,.68,2.06,1.38,3.08,2.07l1.56,1,3.18,1.93c.54.31,1.06.63,1.6.93l3.27,1.79,1.66.86,3.35,1.62,1.7.79L81.38,239l1.74.71L86.64,241l1.79.63L92,242.71l1.81.54c1.22.31,2.46.63,3.68,1l1.85.44,3.75.77,1.88.36c1.27.2,2.55.4,3.82.58l1.92.28,3.88.39,5.88.38v.12h8.91v-.12l2-.08,3.9-.3,1.95-.17,3.85-.5,1.91-.26,3.78-.68,1.89-.36c1.24-.29,2.47-.58,3.72-.85l1.85-.46,3.64-1c.62-.17,1.22-.36,1.83-.54l3.57-1.21c.59-.21,1.18-.4,1.77-.62l3.49-1.37,1.73-.71,3.42-1.54,1.69-.79,3.33-1.69,1.64-.88,3.23-1.84,1.61-1,3.12-2,1.56-1,3-2.14,1.5-1.09L197.3,222c.49-.38,1-.76,1.46-1.15l2.81-2.42,1.39-1.22c.9-.84,1.8-1.7,2.7-2.55.44-.42.89-.85,1.33-1.29l2.58-2.66c.42-.45.85-.9,1.27-1.36.81-.93,1.64-1.85,2.45-2.78l1.2-1.42c.79-1,1.56-1.93,2.33-2.9l1.15-1.46,2.19-3c.35-.52.71-1,1.07-1.53.7-1,1.38-2.07,2.06-3.11l1-1.58c.64-1.08,1.27-2.15,1.92-3.23.31-.54.61-1.08.94-1.62.57-1.1,1.17-2.22,1.76-3.32l.86-1.67c.54-1.14,1.08-2.27,1.61-3.41.27-.57.52-1.15.79-1.71.48-1.17,1-2.34,1.46-3.51.23-.58.46-1.17.7-1.76.43-1.18.86-2.38,1.3-3.57l.62-1.8c.38-1.22.76-2.44,1.13-3.65.19-.62.37-1.24.55-1.84.32-1.25.65-2.5,1-3.73.14-.63.29-1.25.45-1.88.27-1.26.53-2.52.8-3.8.11-.63.24-1.26.37-1.9.19-1.29.4-2.58.6-3.86.09-.65.2-1.29.29-1.94l.42-3.91c.06-.66.13-1.31.19-2,.08-1.33.16-2.65.25-4,0-2,.09-4,.14-6v-2C242.36,124.17,242.31,122.84,242.27,121.5ZM129.34,245.61v.11h-8.78v-.11c-61.66-3.05-110.12-55-110.12-118.1S58.9,12.47,120.56,9.42V9.31h8.78v.11c61.67,3.05,110.13,55,110.13,118.1S191,242.56,129.34,245.61Z"/><g id="def46448-77bd-466d-9030-aa2259b5f138-child-1"><path d="M129.24,14.6v-.11h-8.57v.11a113,113,0,0,0,0,225.83v.11h8.57v-.11a113,113,0,0,0,0-225.83Zm-8.57,4.28h4.27c.71,0,1.41.09,2.12.11a17,17,0,0,1,2.14.11,54.32,54.32,0,0,1,0,108.31l-2.14.11c-.71,0-1.42.1-2.15.1h0c-.72,0-1.42.09-2.14.11a19.05,19.05,0,0,0-2.14.11,54.32,54.32,0,0,0,0,108.31c.71.06,1.42.09,2.14.11s1.42.11,2.14.11c-.72,0-1.42,0-2.14-.06h-2.14a108.72,108.72,0,0,1,0-217.27Zm8.57,147.23a16.29,16.29,0,0,1,0,31.48,19.27,19.27,0,0,1-2.14.42,17.38,17.38,0,0,1-2.15.21h0a16.86,16.86,0,0,1-2.14-.21,19.27,19.27,0,0,1-2.14-.42,16.29,16.29,0,0,1,0-31.48,19.27,19.27,0,0,1,2.14-.42,15.21,15.21,0,0,1,2.14-.22h0a15.67,15.67,0,0,1,2.15.22,17.34,17.34,0,0,1,2.14.46Z"/></g><g id="def46448-77bd-466d-9030-aa2259b5f138-child-2"><path d="M120.59,88.53a21.88,21.88,0,0,0,4.28.63h0a22.32,22.32,0,0,0,4.29-.63,16.29,16.29,0,0,0,0-31.47,13.27,13.27,0,0,0-2.14-.42,15.86,15.86,0,0,0-2.15-.23h0a15.22,15.22,0,0,0-2.14.23,13.06,13.06,0,0,0-2.14.42,16.29,16.29,0,0,0,0,31.47Z"/></g></g></g></svg>