<svg xmlns="http://www.w3.org/2000/svg" viewBox="0 0 115.71 147.29"><defs><style>.cls-1{fill:#0d122f;}</style></defs><title>Asset 19mdpi</title><g id="Layer_2" data-name="Layer 2"><g id="Layer_1-2" data-name="Layer 1"><path class="cls-1" d="M113.58,111.48c0,.74.43,1.32,1.25,1.25a.94.94,0,0,0,.88-1c0-.87-.47-1.24-1.07-1.26A.93.93,0,0,0,113.58,111.48Z"/><path class="cls-1" d="M105.31,133.93c0-.77-.34-1.32-1.23-1.3a1.21,1.21,0,0,0-1.23,1,1.23,1.23,0,0,0,1,1.54C104.71,135.33,105.18,134.8,105.31,133.93Z"/><path class="cls-1" d="M104.07,124.09a1.06,1.06,0,0,0,1.14-1,1.11,1.11,0,0,0-1.16-1.37,1,1,0,0,0-1.18,1A1.25,1.25,0,0,0,104.07,124.09Z"/><path class="cls-1" d="M102.84,100.26c0,1,.51,1.46,1.46,1.49a1.24,1.24,0,0,0,1.29-1.3,1.38,1.38,0,1,0-2.75-.19Z"/><path class="cls-1" d="M102.68,111.54a1.43,1.43,0,0,0,1.49,1.57c.9,0,1.62-.36,1.67-1.37a1.56,1.56,0,0,0-1.67-1.78A1.43,1.43,0,0,0,102.68,111.54Z"/><path class="cls-1" d="M55.43,144.53A2.22,2.22,0,0,0,53,142.14c-1.52,0-2.49.62-2.52,2.24s.63,2.87,2.35,2.88A2.53,2.53,0,0,0,55.43,144.53Z"/><path class="cls-1" d="M55.75,133.45c.07-1.86-1.06-2.7-2.7-2.85-1.74,0-2.83.73-2.85,2.47s.58,3.25,2.75,3.25A2.62,2.62,0,0,0,55.75,133.45Z"/><path class="cls-1" d="M65.69,144.33a2.27,2.27,0,0,0-2.39-2.55c-2,.17-2.44,1.33-2.43,2.91s.69,2.78,2.46,2.57A2.64,2.64,0,0,0,65.69,144.33Z"/><path class="cls-1" d="M63.38,130.25A2.73,2.73,0,0,0,60.33,133c0,2,.44,3.23,2.47,3.31s3.15-.85,3.28-2.78S65.52,130.29,63.38,130.25Z"/><path class="cls-1" d="M66.9,122.23a3.64,3.64,0,0,0-3.57-4,3.84,3.84,0,0,0-3.7,4.2c0,2.18,1.11,3.67,3.29,3.76A3.64,3.64,0,0,0,66.9,122.23Z"/><path class="cls-1" d="M73.68,142.11a2.07,2.07,0,0,0-2.46,2.25c0,1.33.34,2.58,2,2.7a2.3,2.3,0,0,0,2.53-2.34C75.87,143.23,75.34,142.23,73.68,142.11Z"/><path class="cls-1" d="M76.28,133.14a2.5,2.5,0,0,0-2.82-2.42c-2,.08-2.54,1.38-2.53,3.09s.84,2.68,2.62,2.47S76.09,134.87,76.28,133.14Z"/><path class="cls-1" d="M85.71,144.67c0-1.21-.57-2.24-2-2.26-1.28,0-1.83,1-1.8,2.14s.23,2.22,1.58,2.36S85.54,146.09,85.71,144.67Z"/><path class="cls-1" d="M86.17,133.65a2.43,2.43,0,0,0-2.53-2.42c-1.38,0-2.07,1-2.1,2.32s.58,2.61,2.18,2.6S86,135.05,86.17,133.65Z"/><path class="cls-1" d="M94.11,142.88c-1.08-.12-1.86.23-2,1.43a2,2,0,0,0,1.52,2.37,1.71,1.71,0,0,0,1.81-1.77C95.54,143.92,95.36,143,94.11,142.88Z"/><path class="cls-1" d="M94.14,46.24c.62,0,1-.39,1.11-1.29a1.09,1.09,0,0,0-1-1,1,1,0,0,0-1.25.88A1.13,1.13,0,0,0,94.14,46.24Z"/><path class="cls-1" d="M92.91,55.94a1,1,0,0,0,.93,1.23c.64-.05,1.14-.3,1.14-1a1.09,1.09,0,0,0-1.14-1.08A.9.9,0,0,0,92.91,55.94Z"/><path class="cls-1" d="M93.92,102.26c1.16,0,1.59-.82,1.78-1.83A1.79,1.79,0,0,0,94,98.5a1.56,1.56,0,0,0-1.88,1.61A1.78,1.78,0,0,0,93.92,102.26Z"/><path class="cls-1" d="M92,111.57c.08,1.37.81,2.2,2.23,2,1.23-.16,1.66-1.12,1.74-2.21a1.93,1.93,0,0,0-2.16-1.79C92.49,109.57,92,110.34,92,111.57Z"/><path class="cls-1" d="M93.77,121c-1.39,0-1.8.87-1.69,2.07a1.74,1.74,0,0,0,1.76,1.79c1.34,0,1.65-1,1.7-2.25A1.59,1.59,0,0,0,93.78,121Z"/><path class="cls-1" d="M92,133.74c0,1.07.39,1.84,1.55,2a1.79,1.79,0,0,0,2.13-1.81,1.88,1.88,0,0,0-1.77-2.18C92.59,131.74,92,132.49,92,133.74Z"/><path class="cls-1" d="M82.56,45.34a1.19,1.19,0,0,0,1.51,1.06,1.36,1.36,0,0,0,1.16-1.51c-.17-.73-.57-1.35-1.39-1.28A1.4,1.4,0,0,0,82.56,45.34Z"/><path class="cls-1" d="M82.43,56.3a1.23,1.23,0,0,0,1.31,1.3c.82,0,1.18-.56,1.33-1.33,0-.75-.37-1.38-1.16-1.45C82.92,54.71,82.43,55.36,82.43,56.3Z"/><path class="cls-1" d="M82.29,67.51c0,.94.51,1.57,1.52,1.45a1.55,1.55,0,0,0,1.45-1.68c0-.93-.65-1.41-1.62-1.41A1.36,1.36,0,0,0,82.29,67.51Z"/><path class="cls-1" d="M82.12,78.28c0,.94.41,1.69,1.42,1.69a1.74,1.74,0,0,0,1.81-1.79,1.61,1.61,0,0,0-1.51-1.62C82.63,76.46,82.15,77.21,82.12,78.28Z"/><path class="cls-1" d="M81.79,89.56a1.66,1.66,0,0,0,1.73,1.77,1.8,1.8,0,0,0,1.91-2,1.92,1.92,0,0,0-1.89-2A2.07,2.07,0,0,0,81.79,89.56Z"/><path class="cls-1" d="M81.52,100.25c0,1.43.46,2.64,2.1,2.63,1.47,0,2.24-1.06,2.53-2.58A2.36,2.36,0,0,0,83.67,98,2.07,2.07,0,0,0,81.52,100.25Z"/><path class="cls-1" d="M81.42,111.57c0,1.59.63,2.82,2.42,2.65a2.62,2.62,0,0,0,2.53-2.8c0-1.71-.94-2.53-2.59-2.6S81.37,110,81.42,111.57Z"/><path class="cls-1" d="M81.42,122.57c0,1.59.48,2.94,2.27,2.88a2.7,2.7,0,0,0,2.72-2.71c.13-1.73-.89-2.56-2.5-2.9A2.43,2.43,0,0,0,81.42,122.57Z"/><path class="cls-1" d="M76.86,121.9c-.34-1.79-1.32-3-3.26-3-2.36.08-3.25,1.72-3.23,3.79,0,1.86,1,3.11,3.07,3C75.8,125.59,76.48,123.9,76.86,121.9Z"/><path class="cls-1" d="M72.32,45.1a1.15,1.15,0,0,0,1,1.26,1.07,1.07,0,0,0,1.23-1A1.11,1.11,0,0,0,73.38,44,1,1,0,0,0,72.32,45.1Z"/><path class="cls-1" d="M71.75,56.32a1.48,1.48,0,0,0,1.59,1.49c1.18,0,1.64-.69,1.67-1.76s-.56-1.8-1.72-1.68A1.65,1.65,0,0,0,71.75,56.32Z"/><path class="cls-1" d="M71.63,67.34a1.57,1.57,0,0,0,1.75,1.72c1.24,0,1.82-.84,2-2-.1-1-.51-1.81-1.64-1.87C72.25,65.08,71.63,66,71.63,67.34Z"/><path class="cls-1" d="M71.55,78.33c0,1.27.65,2.07,1.94,1.92a2.13,2.13,0,0,0,2-2.41,2,2,0,0,0-2.07-2A2.19,2.19,0,0,0,71.55,78.33Z"/><path class="cls-1" d="M71.14,89.71a1.93,1.93,0,0,0,2.35,2A2.36,2.36,0,0,0,75.65,89a2,2,0,0,0-2.17-2.19C71.74,86.87,71.09,88.17,71.14,89.71Z"/><path class="cls-1" d="M70.74,100.31c-.08,1.82.52,3.1,2.5,3a3,3,0,0,0,3.07-3.13,2.63,2.63,0,0,0-2.7-3C71.6,97.09,70.8,98.49,70.74,100.31Z"/><path class="cls-1" d="M70.16,111.66c.12,1.86,1,3.34,3.16,3.27s3.35-1.72,3.49-3.75a3,3,0,0,0-3.23-3.38C71.31,107.76,70.39,109.38,70.16,111.66Z"/><path class="cls-1" d="M62.77,13.06A1.15,1.15,0,0,0,64.07,12c0-.84-.46-1.18-1.08-1.18a1.07,1.07,0,0,0-1.09,1.07C61.86,12.5,62.07,13,62.77,13.06Z"/><path class="cls-1" d="M61.69,34.24c.12.85.67,1.11,1.47,1,1-.12,1.33-.77,1.2-1.69a1.25,1.25,0,0,0-1.49-1.06C61.81,32.61,61.57,33.31,61.69,34.24Z"/><path class="cls-1" d="M61.52,44.91A1.38,1.38,0,0,0,63,46.5c1,0,1.47-.51,1.45-1.5A1.47,1.47,0,0,0,63,43.36,1.39,1.39,0,0,0,61.52,44.91Z"/><path class="cls-1" d="M61.37,56.1a1.55,1.55,0,0,0,1.77,1.69c1.17-.09,1.49-.92,1.59-1.91-.22-1-.7-1.83-1.82-1.75A1.7,1.7,0,0,0,61.37,56.1Z"/><path class="cls-1" d="M62.84,69c1.28.12,1.86-.7,2.08-1.86,0-1.24-.6-2.05-1.89-2.06A2,2,0,0,0,62.84,69Z"/><path class="cls-1" d="M61.06,78.27a1.9,1.9,0,0,0,1.9,2A2.09,2.09,0,0,0,65,78.06c0-1.16-.42-2.1-1.7-2.17C61.71,75.79,61.08,76.8,61.06,78.27Z"/><path class="cls-1" d="M60.67,89.32c-.07,1.4.46,2.49,2.15,2.52a2.4,2.4,0,0,0,2.73-2.46,2.44,2.44,0,0,0-2.3-2.83A2.57,2.57,0,0,0,60.67,89.32Z"/><path class="cls-1" d="M60,100.57c0,1.56.61,3.06,2.71,3.14a3.19,3.19,0,0,0,3.66-3.36c.08-1.95-.77-3.47-3-3.6C60.89,96.59,60.16,98.21,60,100.57Z"/><path class="cls-1" d="M59.46,111.28c-.07,2.37.87,3.84,3.5,4a3.71,3.71,0,0,0,4-3.93c0-2.27-1-4.28-3.71-4.23S59.52,108.8,59.46,111.28Z"/><path class="cls-1" d="M56.5,122.48c.15-2.46-1.47-3.63-3.65-3.79s-3.15,1.16-3.28,3.31c.12,2.12.89,4,3.34,4C55.07,126.05,56.36,124.6,56.5,122.48Z"/><path class="cls-1" d="M52.68,13.2c.82,0,1.23-.48,1.43-1.44-.2-.49-.46-1.14-1.28-1.23s-1.21.57-1.3,1.28A1.13,1.13,0,0,0,52.68,13.2Z"/><path class="cls-1" d="M51.38,23A1.2,1.2,0,0,0,53,24a1,1,0,0,0,1-1.21,1.31,1.31,0,0,0-1.44-1.23A1.23,1.23,0,0,0,51.38,23Z"/><path class="cls-1" d="M52.64,35.21c.75,0,1.42-.26,1.52-1.08.12-1-.49-1.46-1.42-1.55s-1.38.26-1.48,1.08C51.14,34.65,51.65,35.16,52.64,35.21Z"/><path class="cls-1" d="M52.64,43.75A1.15,1.15,0,0,0,51.33,45a1.31,1.31,0,0,0,1.57,1.4c.77-.09,1.19-.61,1.21-1.52A1.47,1.47,0,0,0,52.64,43.75Z"/><path class="cls-1" d="M51.17,55.91c0,.94.36,1.66,1.3,1.78a1.51,1.51,0,0,0,1.85-1.59,1.49,1.49,0,0,0-1.54-1.56C51.82,54.51,51.21,54.87,51.17,55.91Z"/><path class="cls-1" d="M52.62,68.94c1.05.07,1.71-.53,1.88-1.81a1.84,1.84,0,0,0-1.88-1.84,1.35,1.35,0,0,0-1.55,1.43C51,67.88,51.29,68.86,52.62,68.94Z"/><path class="cls-1" d="M50.78,78c0,1.3.61,2.36,2.12,2.22a2.08,2.08,0,0,0,2-2.07,2.31,2.31,0,0,0-2.45-2A1.7,1.7,0,0,0,50.78,78Z"/><path class="cls-1" d="M50.61,89.33c.12,1.42.8,2.58,2.48,2.33a2.28,2.28,0,0,0,2-2.55,2.2,2.2,0,0,0-2.39-2A1.88,1.88,0,0,0,50.61,89.33Z"/><path class="cls-1" d="M50,100c0,1.75.63,3.45,2.6,3.61s3.26-1.08,3.36-3.21-1.28-2.82-3.09-3.23A2.68,2.68,0,0,0,50,100Z"/><path class="cls-1" d="M49.45,111.25c.32,1.72.73,3.75,3.11,3.86a3.54,3.54,0,0,0,3.87-3.71c.11-2.36-1.4-3.74-3.72-3.78C50.57,107.59,49.64,109,49.45,111.25Z"/><path class="cls-1" d="M23.32,122.35c-.05-.82-.43-1.34-1.32-1.23a1.26,1.26,0,0,0-1.14,1.48c.05.77.42,1.39,1.3,1.27S23.28,123.13,23.32,122.35Z"/><path class="cls-1" d="M32.49,142.38a2.08,2.08,0,0,0-2.05,2,1.93,1.93,0,0,0,1.93,2.34,1.89,1.89,0,0,0,2.08-1.86A2.27,2.27,0,0,0,32.49,142.38Z"/><path class="cls-1" d="M34.5,133.57c0-1.11-.75-1.64-1.76-1.83a1.82,1.82,0,0,0-1.87,1.74,1.62,1.62,0,0,0,1.58,1.93A1.72,1.72,0,0,0,34.5,133.57Z"/><path class="cls-1" d="M34.62,122.72a2.11,2.11,0,0,0-2-2.34,1.92,1.92,0,0,0-2.39,1.88,2.14,2.14,0,0,0,2.15,2.58A2.19,2.19,0,0,0,34.62,122.72Z"/><path class="cls-1" d="M45.08,144.75a2.35,2.35,0,0,0-2.22-2.52c-1.82-.07-2.53.85-2.55,2.37s.62,2.63,2.22,2.61A2.47,2.47,0,0,0,45.08,144.75Z"/><path class="cls-1" d="M45.28,133.57c.07-1.76-1.06-2.53-2.63-2.58a2.21,2.21,0,0,0-2.46,2.37,2.56,2.56,0,1,0,5.09.21Z"/><path class="cls-1" d="M41.22,11.88c0,.8.42,1.32,1.28,1.2a1.21,1.21,0,0,0,1.14-1.4,1.25,1.25,0,0,0-1.3-1.25A1.21,1.21,0,0,0,41.22,11.88Z"/><path class="cls-1" d="M42.39,21.56a1,1,0,0,0-1.14,1,1,1,0,0,0,.8,1.24,1.1,1.1,0,0,0,1.4-1.09,1.17,1.17,0,0,0-1.07-1.13Z"/><path class="cls-1" d="M41,33.91a1.31,1.31,0,0,0,2.61-.13c0-.88-.65-1.11-1.38-1.15S40.87,33.08,41,33.91Z"/><path class="cls-1" d="M40.91,45a1.37,1.37,0,0,0,1.69,1.35,1.31,1.31,0,0,0,1.19-1.47,1.45,1.45,0,0,0-1.7-1.35A1.27,1.27,0,0,0,40.91,45Z"/><path class="cls-1" d="M40.82,56.11a1.58,1.58,0,0,0,1.52,1.56c.91-.09,1.63-.51,1.69-1.42.09-1.13-.65-1.67-1.72-1.66A1.37,1.37,0,0,0,40.82,56.11Z"/><path class="cls-1" d="M40.64,67.08a1.66,1.66,0,0,0,1.74,1.78c1.12,0,2-.6,1.93-1.92-.09-1.09-.94-1.48-1.93-1.62C41.28,65.41,40.62,66,40.64,67.08Z"/><path class="cls-1" d="M40.55,78.08a1.81,1.81,0,0,0,1.9,2,1.84,1.84,0,0,0,2-1.88c0-1.34-.82-1.86-1.95-1.92S40.53,76.75,40.55,78.08Z"/><path class="cls-1" d="M40.4,89.18c0,1.37.64,2.34,2.05,2.37a2.2,2.2,0,0,0,2.32-2.23,2.13,2.13,0,0,0-2.17-2.21C41.13,87,40.4,87.71,40.4,89.18Z"/><path class="cls-1" d="M40,100.38c.1,1.57,1,2.74,2.7,2.63a2.56,2.56,0,0,0,2.58-2.8c0-1.81-1.2-2.37-2.82-2.54A2.33,2.33,0,0,0,40,100.38Z"/><path class="cls-1" d="M39.83,111.19a3,3,0,0,0,2.6,3.25,3.14,3.14,0,0,0,3.12-2.84c.28-1.93-1.12-2.78-2.75-3A2.37,2.37,0,0,0,39.83,111.19Z"/><path class="cls-1" d="M39.82,122.41c.06,1.75,1,3.08,2.68,3.15a3,3,0,0,0,3.12-3.16c.09-1.81-1.28-2.6-3.16-2.85C40.91,119.73,39.75,120.48,39.82,122.41Z"/><path class="cls-1" d="M30.68,56.2a1.38,1.38,0,0,0,1.6,1.38c.87-.2,1.51-.66,1.42-1.62S33,54.58,32,54.63A1.28,1.28,0,0,0,30.68,56.2Z"/><path class="cls-1" d="M32.13,46.35c.85-.12,1.52-.57,1.45-1.52a1.39,1.39,0,0,0-1.6-1.4,1.29,1.29,0,0,0-1.3,1.33A1.37,1.37,0,0,0,32.13,46.35Z"/><path class="cls-1" d="M30.76,11.81a1.16,1.16,0,0,0,1.18,1.33c.84.06,1.23-.42,1.4-1.41a1.2,1.2,0,0,0-1.23-1.11A1.18,1.18,0,0,0,30.76,11.81Z"/><path class="cls-1" d="M30.75,23.08a1.21,1.21,0,0,0,1.52,1,1.32,1.32,0,0,0,1.21-1.52,1.44,1.44,0,0,0-1.4-1.11A1.27,1.27,0,0,0,30.75,23.08Z"/><path class="cls-1" d="M30.68,34.05a1.23,1.23,0,0,0,1.45,1.13c.92,0,1.5-.46,1.52-1.46A1.53,1.53,0,0,0,32,32.32,1.44,1.44,0,0,0,30.68,34.05Z"/><path class="cls-1" d="M30.49,67.06a1.49,1.49,0,0,0,1.81,1.62,1.47,1.47,0,0,0,1.52-1.57c0-1.16-.8-1.58-1.88-1.67A1.57,1.57,0,0,0,30.49,67.06Z"/><path class="cls-1" d="M30.32,78.18a1.72,1.72,0,0,0,2.12,1.71A1.61,1.61,0,0,0,34,78c-.06-1.37-.93-1.8-2.11-1.71A1.61,1.61,0,0,0,30.32,78.18Z"/><path class="cls-1" d="M30.15,89.18a1.82,1.82,0,0,0,1.89,2,2.11,2.11,0,0,0,2.38-2,2,2,0,0,0-2-2A1.89,1.89,0,0,0,30.15,89.18Z"/><path class="cls-1" d="M32.11,102.48a2.19,2.19,0,0,0,2.48-2.35c0-1.47-1-2-2.24-2.29A2.18,2.18,0,0,0,30,99.9,2.06,2.06,0,0,0,32.11,102.48Z"/><path class="cls-1" d="M29.91,111.48a2.11,2.11,0,0,0,2.48,2.22,2.19,2.19,0,0,0,2.3-2.44c0-1.59-1.09-2.22-2.51-2.23C30.59,109,29.94,110,29.91,111.48Z"/><path class="cls-1" d="M23.18,44.6A1.37,1.37,0,0,0,22,43.41a1.27,1.27,0,0,0-1.47,1.14c-.15.89.19,1.63,1.25,1.59C22.53,46.12,23,45.65,23.18,44.6Z"/><path class="cls-1" d="M22,54.65a1.28,1.28,0,0,0-1.42,1.21,1.24,1.24,0,0,0,1,1.57,1.32,1.32,0,0,0,1.6-1.4A1.18,1.18,0,0,0,22,54.65Z"/><path class="cls-1" d="M20.48,78a1.28,1.28,0,0,0,1.25,1.66,1.39,1.39,0,0,0,1.6-1.37c.09-.9-.25-1.55-1.16-1.69A1.47,1.47,0,0,0,20.48,78Z"/><path class="cls-1" d="M20.77,1c0,.51.22.92.81,1a.92.92,0,0,0,1.11-1,.92.92,0,0,0-.82-1C21.17-.07,20.79.34,20.77,1Z"/><path class="cls-1" d="M21.76,13.14c.84,0,1.27-.44,1.4-1.52a1.41,1.41,0,0,0-1.23-1.21c-.9-.08-1.24.55-1.31,1.32S20.86,13.13,21.76,13.14Z"/><path class="cls-1" d="M20.52,22.76a1.15,1.15,0,0,0,1.17,1.37,1.33,1.33,0,0,0,1.47-1.52c0-.82-.56-1.18-1.36-1.2A1.28,1.28,0,0,0,20.52,22.76Z"/><path class="cls-1" d="M20.43,33.91a1.21,1.21,0,0,0,1.32,1.27c1,0,1.46-.52,1.46-1.66a1.29,1.29,0,0,0-1.31-1.16A1.41,1.41,0,0,0,20.43,33.91Z"/><path class="cls-1" d="M20.21,89.13A1.59,1.59,0,0,0,21.83,91a1.67,1.67,0,0,0,1.78-1.73c.05-1-.6-1.67-1.71-1.9A1.88,1.88,0,0,0,20.21,89.13Z"/><path class="cls-1" d="M20.16,100.52a1.72,1.72,0,0,0,1.89,1.69c1.11-.31,1.93-1,1.81-2.2a1.69,1.69,0,0,0-1.93-1.64A1.78,1.78,0,0,0,20.16,100.52Z"/><path class="cls-1" d="M20.06,111.36a1.76,1.76,0,0,0,1.92,2,2,2,0,0,0-.05-4A1.77,1.77,0,0,0,20.06,111.36Z"/><path class="cls-1" d="M13,144.86a1.1,1.1,0,0,0-.92-1.25,1,1,0,0,0-1.26.82c-.1.75.14,1.38,1,1.47C12.51,146,12.76,145.4,13,144.86Z"/><path class="cls-1" d="M13.14,133.55a1.28,1.28,0,0,0-1.3-1.3c-.77-.07-1.42.22-1.49,1a1.29,1.29,0,0,0,1.44,1.52A1.27,1.27,0,0,0,13.14,133.55Z"/><path class="cls-1" d="M13.26,122a1.55,1.55,0,0,0-1.64-1.26,1.4,1.4,0,0,0-1.45,1.6c0,1.11.56,1.86,1.72,1.67C12.78,123.9,13.26,123.2,13.26,122Z"/><path class="cls-1" d="M13.27,111.19c0-1.16-.8-1.62-1.87-1.57-1.23.07-1.51,1-1.44,2s.6,1.48,1.83,1.41A1.65,1.65,0,0,0,13.27,111.19Z"/><path class="cls-1" d="M10.3,11.83a1.08,1.08,0,0,0,.82,1.2,1.13,1.13,0,0,0,1.34-.88,1,1,0,0,0-1.08-1.36A1,1,0,0,0,10.3,11.83Z"/><path class="cls-1" d="M10.2,34.07a1.16,1.16,0,0,0,1.47,1c.85-.1,1.06-.72,1-1.68-.15-.53-.48-1.16-1.3-1.07C10.42,32.44,10.08,33.16,10.2,34.07Z"/><path class="cls-1" d="M12.52,55.74a1,1,0,0,0-1.28-.91,1.13,1.13,0,0,0-.85,1.22c0,.85.61,1.16,1.4,1A1,1,0,0,0,12.52,55.74Z"/><path class="cls-1" d="M11.45,65.94a1.17,1.17,0,1,0,.25,2.32A1.11,1.11,0,0,0,12.54,67,1,1,0,0,0,11.45,65.94Z"/><path class="cls-1" d="M12.61,44.74c-.09-.51-.26-1.11-1-1.18-.85-.1-1.3.43-1.36,1.23a1.06,1.06,0,0,0,1,1.25C12.11,46.16,12.52,45.66,12.61,44.74Z"/><path class="cls-1" d="M10.06,78.15c0,.95.45,1.57,1.46,1.53s1.33-.75,1.43-1.6c-.1-.94-.53-1.57-1.52-1.56S10.06,77.24,10.06,78.15Z"/><path class="cls-1" d="M10.05,89.49a1.3,1.3,0,0,0,1.33,1.35c1.14,0,1.57-.82,1.69-2a1.66,1.66,0,0,0-1.64-1.44C10.27,87.54,9.93,88.45,10.05,89.49Z"/><path class="cls-1" d="M9.93,100.23a1.38,1.38,0,0,0,1.45,1.62,1.77,1.77,0,0,0,1.83-1.79,1.64,1.64,0,0,0-1.56-1.59C10.39,98.35,10,99.2,9.93,100.23Z"/><path class="cls-1" d="M1.05,79.36c.82.17,1.17-.44,1.4-1.16a1.33,1.33,0,0,0-1.18-1.4c-.68-.11-1,.39-1.13,1A1.24,1.24,0,0,0,1.05,79.36Z"/><path class="cls-1" d="M.07,89.06a1.08,1.08,0,0,0,1,1.2,1.11,1.11,0,0,0,1.21-1.35,1.06,1.06,0,0,0-1-1C.38,87.93.07,88.46.07,89.06Z"/><path class="cls-1" d="M1.11,101.48a1.28,1.28,0,0,0,1.34-1.27c.07-.82-.48-1.26-1.27-1.3A1.08,1.08,0,0,0,0,100,1.27,1.27,0,0,0,1.11,101.48Z"/><path class="cls-1" d="M1.13,112.54a1.31,1.31,0,1,0,.09-2.61A1.13,1.13,0,0,0,0,111,1.29,1.29,0,0,0,1.13,112.54Z"/></g></g></svg>