<svg xmlns="http://www.w3.org/2000/svg" viewBox="0 0 1288.9 380.76"><defs><style>.cls-1{fill:none;stroke-linecap:round;stroke-width:8.56px;}.cls-1,.cls-2{stroke:#fff;stroke-miterlimit:10;}.cls-2{fill:#fff;}</style></defs><title>Asset 31mdpi</title><g id="Layer_2" data-name="Layer 2"><g id="Layer_1-2" data-name="Layer 1"><g id="_1d46ed9d-32e2-48fd-a75b-9fbf2785989b" data-name="1d46ed9d-32e2-48fd-a75b-9fbf2785989b"><g id="_1d46ed9d-32e2-48fd-a75b-9fbf2785989b-child-0" data-name="1d46ed9d-32e2-48fd-a75b-9fbf2785989b-child-0"><path class="cls-1" d="M4.28,376.48V4.28H1284.62v372.2Z"/></g></g><g id="_5de8c4a7-a608-4f63-8886-95dc9ca393e0" data-name="5de8c4a7-a608-4f63-8886-95dc9ca393e0"><g id="_5de8c4a7-a608-4f63-8886-95dc9ca393e0-child-0" data-name="5de8c4a7-a608-4f63-8886-95dc9ca393e0-child-0"><path class="cls-2" d="M258.5,185.85H1280.92V191H258.5Z"/></g></g><g id="_8ea227aa-cc0b-4527-b2e4-80eb71020a31" data-name="8ea227aa-cc0b-4527-b2e4-80eb71020a31"><g id="_8ea227aa-cc0b-4527-b2e4-80eb71020a31-child-0" data-name="8ea227aa-cc0b-4527-b2e4-80eb71020a31-child-0"><path class="cls-2" d="M1118.88,372.09V5.94H1124V372.09Z"/></g></g><g id="_4baa695b-1fba-4ced-beaa-b08745dcecea" data-name="4baa695b-1fba-4ced-beaa-b08745dcecea"><g id="_4baa695b-1fba-4ced-beaa-b08745dcecea-child-0" data-name="4baa695b-1fba-4ced-beaa-b08745dcecea-child-0"><path class="cls-2" d="M255.62,372.57V4.28h5.15V372.57Z"/></g></g><g id="d7a4b04e-4a35-49de-8dfa-cec19f62ee58"><g id="d7a4b04e-4a35-49de-8dfa-cec19f62ee58-child-0"><path class="cls-2" d="M1251.37,92.22h-31.09l26.93-15.54-4.65-8-26.92,15.54,15.54-26.91-8-4.65-15.54,26.93V48.46h-9.29V79.55l-15.54-26.93-8,4.65,15.54,26.91-26.91-15.54-4.65,8,26.93,15.54h-31.09v9.29h31.09l-26.93,15.54,4.65,8,26.91-15.54-15.54,26.92,8,4.65,15.54-26.93v31.09h9.29V114.18l15.54,26.93,8-4.65-15.54-26.92,26.92,15.54,4.65-8-26.93-15.54h31.09Z"/></g></g><g id="_7b3b033c-a056-4ca9-9167-3219fdf3d231" data-name="7b3b033c-a056-4ca9-9167-3219fdf3d231"><g id="_30370b94-46f0-4767-9cbf-25b885b443fc" data-name="30370b94-46f0-4767-9cbf-25b885b443fc"><path class="cls-2" d="M219.85,151.2c0,30.82-11.47,45.39-37.51,49,24.85,2.63,37.51,13.62,37.51,37.51v45.86H167.3v-43c0-20.54-2.63-22.69-28.67-22.69H101.37v65.69H51.2V97.22H157.74c49.69,0,62.11,10.75,62.11,54Zm-75,28.43c22.46,0,24.84-2.15,24.84-21.26,0-18.39-2.38-20.54-24.84-20.54H101.37v41.8Z"/></g></g><g id="_63521953-a3a6-48dc-8103-2ff6cfda4fc1" data-name="63521953-a3a6-48dc-8103-2ff6cfda4fc1"><g id="_02fb646c-d933-4e8a-8204-0b38686e182c" data-name="02fb646c-d933-4e8a-8204-0b38686e182c"><path class="cls-2" d="M337.45,263.41c-9.52,0-11.88-2.26-11.88-11.4V236.22h7.21V252c0,5,.48,5.57,4.67,5.57s4.66-.55,4.66-5.57V236.22h7.22V252c0,9.14-2.37,11.4-11.88,11.4Zm15-27.19h6.83l11.84,14.63h.21V236.22h7.21V263h-6.8l-11.88-14.59h-.2V263h-7.21Zm36.7,13.39,0,7.21H395c4.88,0,5.43-.72,5.43-7.21s-.55-7.21-5.43-7.21h-5.87Zm-7.18-13.39h13.84c9.79,0,12.22,2.68,12.22,13.39S405.57,263,395.78,263H381.94Zm50.78,0v6.18H418v4.12h13.39v5.84H418v4.46h14.83V263h-22V236.22Zm27.4,7.76c0,4.43-1.65,6.52-5.39,7,3.57.37,5.39,1.95,5.39,5.39V263h-7.55v-6.18c0-2.95-.38-3.26-4.12-3.26h-5.36V263h-7.21V236.22H451.2C458.34,236.22,460.12,237.76,460.12,244Zm-10.78,4.08c3.23,0,3.57-.3,3.57-3.05s-.34-2.95-3.57-2.95h-6.25v6Zm30-2.88h-6.52v-4.81H476c3,0,3.74-.65,3.74-4.15h6.18V263h-6.52Zm31-9V241l-10.2,22h-7.93l9.68-20.94-8.27,0v4.5h-5.84v-10.3ZM546.75,244c0,4.43-1.65,6.52-5.39,7,3.57.37,5.39,1.95,5.39,5.39V263H539.2v-6.18c0-2.95-.38-3.26-4.12-3.26h-5.36V263h-7.21V236.22h15.31C545,236.22,546.75,237.76,546.75,244ZM536,248.06c3.23,0,3.57-.3,3.57-3.05s-.34-2.95-3.57-2.95h-6.25v6Zm35.84-11.84v6.18H557.05v4.12h13.39v5.84H557.05v4.46h14.83V263h-22V236.22Zm22.8,13.39c0-7.18-.65-8-6.39-8s-6.38.79-6.38,8c0,6.8.62,7.55,6.11,7.55h1.3c4.81,0,5.36-.75,5.36-7.55Zm-6.39-13.8c11.16,0,13.94,2.74,13.94,13.8,0,4.5-1.61,6.87-5.28,7.55h6.31V263h-15c-11.15,0-13.93-2.68-13.93-13.39,0-11.06,2.78-13.8,13.93-13.8Zm29.26,27.6c-9.51,0-11.88-2.26-11.88-11.4V236.22h7.21V252c0,5,.48,5.57,4.67,5.57s4.67-.55,4.67-5.57V236.22h7.21V252C629.36,261.15,627,263.41,617.48,263.41Zm15-27.19h7.21V263h-7.21ZM667.33,244c0,4.43-1.65,6.52-5.39,7,3.57.37,5.39,1.95,5.39,5.39V263h-7.55v-6.18c0-2.95-.38-3.26-4.12-3.26H650.3V263h-7.21V236.22H658.4C665.55,236.22,667.33,237.76,667.33,244Zm-10.78,4.08c3.23,0,3.57-.3,3.57-3.05s-.34-2.95-3.57-2.95H650.3v6Zm35.85-11.84v6.18H677.63v4.12H691v5.84H677.63v4.46h14.83V263h-22V236.22Zm20.05,19.19c0-1.54-1.34-2.2-6.39-3.19-8.75-1.75-10.95-3.4-10.95-8.38,0-6.42,2.54-8,12.32-8s12.4,1.95,12.4,9.78h-7.55c0-3.57-.52-4-4.85-4s-4.77.24-4.77,2.27c0,1.41,1,1.92,4.64,2.68,10,2,12.7,3.81,12.7,9.2,0,6.11-2.57,7.62-12.57,7.62-10.26,0-12.91-1.89-12.91-9.41h7.56c0,3.23.55,3.58,5.16,3.58s5.21-.21,5.21-2.17ZM760.86,263h-8.24l-1.44-5.22h-10.3L739.26,263H731.5l8.83-26.78h11.95Zm-11.47-11.06-3.19-9.88H746l-3.26,9.88Zm26.37,11.47c-11,0-13.7-2.74-13.7-13.8s2.75-13.8,13.7-13.8,13.67,2.33,13.6,11.71H781.8c.07-5.29-.55-5.88-6-5.88s-6.15.79-6.15,8,.62,8,6.15,8,6.11-.59,6-5.94h7.56c.07,9.4-2.65,11.77-13.6,11.77Zm29.36,0c-11,0-13.7-2.74-13.7-13.8s2.74-13.8,13.7-13.8,13.66,2.33,13.59,11.71h-7.55c.07-5.29-.55-5.88-6-5.88s-6.15.79-6.15,8,.62,8,6.15,8,6.11-.59,6-5.94h7.55c.07,9.4-2.64,11.77-13.59,11.77Zm23.21-13.8c0,7.18.61,8,6.35,8s6.35-.79,6.35-8-.62-8-6.35-8S828.33,242.43,828.33,249.61Zm6.35-13.8c11.12,0,13.9,2.74,13.9,13.8s-2.78,13.8-13.9,13.8-13.91-2.74-13.91-13.8S823.55,235.81,834.68,235.81ZM851.33,263V236.22h13l4,19.91h.28l4.06-19.91H885.4V263h-7.21V243.09H878L873.93,263H862.77l-4-19.91h-.21V263Zm52.81-26.78c7.14,0,8.92,1.78,8.92,8.93,0,6.93-1.64,8.75-8.3,9.09H896V263h-7.21V236.22Zm-1.86,11.84c3.23,0,3.57-.27,3.57-2.88,0-2.82-.34-3.12-3.57-3.12H896v6ZM941.56,263h-8.24l-1.43-5.22H921.58L920,263h-7.77L921,236.22h12Zm-11.47-11.06-3.19-9.88h-.2l-3.27,9.88Zm13-15.72h6.83l11.84,14.63H962V236.22h7.21V263h-6.8l-11.88-14.59h-.2V263h-7.21Zm45.8,16.48h-1V263h-7.21V252.7H979.4l-8.31-16.48h8.1l5,11h.2l4.88-11h7.65Zm9.92-16.48H1006V263h-7.21Zm10.65,0h6.83l11.84,14.63h.21V236.22h7.21V263h-6.8l-11.88-14.59h-.2V263h-7.21Zm55.82,12.43V263h-6.52v-4.29c-.86,3.26-3.06,4.7-6.94,4.7-10.81,0-13.52-2.74-13.52-13.8s2.71-13.8,13.52-13.8,13.54,2,13.46,9.95h-7.55c.07-3.7-.51-4.12-5.91-4.12s-6,.79-6,8,.58,8,6,8c4.12,0,6-1,6.12-3.44h-5.5v-5.49ZM417.38,284.29c7.14,0,8.92,1.78,8.92,8.92,0,6.94-1.64,8.76-8.31,9.1h-8.72v8.76h-7.21V284.29Zm-1.86,11.84c3.23,0,3.57-.27,3.57-2.88,0-2.82-.34-3.13-3.57-3.13h-6.25v6Zm39.28,14.94h-8.24l-1.44-5.22h-10.3l-1.62,5.22h-7.76l8.83-26.78h12ZM443.33,300l-3.19-9.89h-.21L436.67,300Zm37.6-8c0,4.43-1.65,6.52-5.39,7,3.57.37,5.39,2,5.39,5.39v6.59h-7.55v-6.18c0-2.95-.38-3.26-4.12-3.26H463.9v9.44h-7.21V284.29H472C479.14,284.29,480.93,285.83,480.93,292.05Zm-10.78,4.08c3.23,0,3.57-.31,3.57-3.05s-.34-3-3.57-3H463.9v6ZM506,284.29v6.18H491.23v4.12h13.39v5.83H491.23v4.47h14.83v6.18H484V284.29Zm3.16,0H516l11.84,14.62h.22V284.29h7.21v26.78h-6.8l-11.88-14.59h-.21v14.59h-7.22Zm36.19,6.18h-8.2v-6.18h23.69v6.18h-8.28v20.6h-7.21Zm34.54,7.21c0,7.17.62,8,6.35,8s6.36-.79,6.36-8-.62-8-6.36-8S579.88,290.5,579.88,297.68Zm6.35-13.8c11.13,0,13.91,2.74,13.91,13.8s-2.78,13.8-13.91,13.8-13.9-2.75-13.9-13.8S575.11,283.88,586.23,283.88Zm40.9,8.17c0,4.43-1.65,6.52-5.39,7,3.57.37,5.39,2,5.39,5.39v6.59h-7.56v-6.18c0-2.95-.38-3.26-4.12-3.26H610.1v9.44h-7.21V284.29H618.2C625.34,284.29,627.13,285.83,627.13,292.05Zm-10.79,4.08c3.23,0,3.58-.31,3.58-3.05s-.35-3-3.58-3H610.1v6Zm52,14.94h-8.24l-1.44-5.22H648.34l-1.61,5.22H639l8.83-26.78h11.94ZM656.86,300l-3.19-9.89h-.21L650.2,300Zm20.53-2.33,0,7.21h5.87c4.87,0,5.42-.72,5.42-7.21s-.55-7.21-5.42-7.21h-5.87Zm-7.17-13.39h13.83c9.79,0,12.23,2.68,12.23,13.39s-2.44,13.39-12.23,13.39H670.22Zm40.34,27.19c-9.51,0-11.88-2.27-11.88-11.4V284.29h7.21v15.79c0,5,.48,5.56,4.67,5.56s4.67-.55,4.67-5.56V284.29h7.21v15.79C722.44,309.21,720.07,311.48,710.56,311.48Zm22.18-27.19v20.6h13v6.18H725.53V284.29Zm21.6,6.18h-8.21v-6.18h23.69v6.18h-8.27v20.6h-7.21Zm54,6.25v14.35h-6.52v-4.29c-.86,3.26-3.06,4.7-6.93,4.7-10.82,0-13.54-2.75-13.54-13.8s2.72-13.8,13.54-13.8,13.53,2,13.45,9.95h-7.55c.06-3.71-.52-4.12-5.91-4.12s-6,.79-6,8,.58,8,6,8c4.12,0,6-1,6.11-3.43h-5.49v-5.49Zm14.63,14.76c-9.51,0-11.88-2.27-11.88-11.4V284.29h7.21v15.79c0,5,.48,5.56,4.67,5.56s4.68-.55,4.68-5.56V284.29h7.2v15.79C834.82,309.21,832.45,311.48,822.94,311.48Zm42.09-.41h-8.24l-1.43-5.22H845.05l-1.62,5.22h-7.76l8.83-26.78h12ZM853.56,300l-3.18-9.89h-.21L846.91,300Zm37.6-8c0,4.43-1.65,6.52-5.39,7,3.57.37,5.39,2,5.39,5.39v6.59h-7.55v-6.18c0-2.95-.38-3.26-4.12-3.26h-5.36v9.44h-7.21V284.29h15.32c7.14,0,8.93,1.54,8.93,7.76Zm-10.78,4.08c3.23,0,3.57-.31,3.57-3.05s-.34-3-3.57-3h-6.25v6Zm21,1.55,0,7.21h5.87c4.88,0,5.44-.72,5.44-7.21s-.56-7.21-5.44-7.21h-5.87Zm-7.17-13.39h13.84c9.78,0,12.22,2.68,12.22,13.39s-2.44,13.39-12.22,13.39H894.25Zm28.81,0h7.21v26.78h-7.21Zm38.11,26.78h-8.24l-1.44-5.22H941.18l-1.61,5.22h-7.76l8.82-26.78h12ZM949.7,300l-3.19-9.89h-.21L943,300Zm13-15.72h6.83l11.85,14.62h.21V284.29h7.21v26.78H982l-11.88-14.59h-.21v14.59h-7.21Z"/></g></g><g id="_11dc2b62-205e-4ac3-85de-5bd97f1d0e74" data-name="11dc2b62-205e-4ac3-85de-5bd97f1d0e74"><g id="_53440035-8ab2-429e-9a0c-43888b91d304" data-name="53440035-8ab2-429e-9a0c-43888b91d304"><path d="M392.77,81.42c0,13.56-5,20-16.5,21.54,10.93,1.16,16.5,6,16.5,16.5v20.18H369.65V120.72c0-9-1.16-10-12.61-10h-16.4v28.9H318.57v-82h46.87C387.3,57.67,392.77,62.4,392.77,81.42Zm-33,12.5c9.88,0,10.93-.94,10.93-9.35,0-8.09-1.05-9-10.93-9H340.64V93.92ZM469.49,57.67V76.58H424.3V89.19h41v17.87h-41v13.66h45.4v18.92H402.23v-82Zm61.37,58.74c0-4.73-4.1-6.72-19.55-9.77-26.79-5.36-33.52-10.4-33.52-25.64,0-19.66,7.78-24.59,37.73-24.59,30.16,0,37.94,6,37.94,30H530.34c0-10.93-1.58-12.09-14.82-12.09-13,0-14.61.74-14.61,6.94,0,4.31,3,5.88,14.19,8.2,30.68,6,38.88,11.66,38.88,28.16,0,18.71-7.88,23.33-38.46,23.33-31.43,0-39.52-5.77-39.52-28.79h23.12c0,9.88,1.68,10.94,15.77,10.94,14.29,0,16-.65,16-6.63Zm51.92-39.83H557.66V57.67h72.52V76.58H604.85v63.06H582.78Zm127.37,4.84c0,13.56-5,20-16.5,21.54,10.93,1.16,16.5,6,16.5,16.5v20.18H687V120.72c0-9-1.15-10-12.61-10H658v28.9H636v-82h46.87C704.69,57.67,710.15,62.4,710.15,81.42Zm-33,12.5c9.88,0,10.93-.94,10.93-9.35,0-8.09-1.05-9-10.93-9H658V93.92Zm42.46-36.25h22.07v82H719.61ZM792,140.9c-33.52,0-41.93-8.41-41.93-42.25S758.5,56.41,792,56.41s41.83,7.14,41.62,35.83H810.52c.21-16.18-1.68-18-18.5-18s-18.81,2.42-18.81,24.38S775.1,123,792,123s18.71-1.79,18.5-18.19h23.12c.21,28.8-8.09,36.05-41.62,36.05Zm70.41-64.32H837.32V57.67h72.51V76.58H884.5v63.06H862.43ZM982.87,57.67V76.58H937.68V89.19h41v17.87h-41v13.66h45.4v18.92H915.61v-82Zm31.63,41,.11,22.07h18c14.92,0,16.61-2.2,16.61-22.07s-1.69-22.07-16.61-22.07h-18Zm-22-41h42.35c29.95,0,37.42,8.19,37.42,41s-7.47,41-37.42,41H992.54Z"/></g></g><g id="_120d815c-4279-495e-9dc1-3015cc8e5dae" data-name="120d815c-4279-495e-9dc1-3015cc8e5dae"><g id="_5f4e6a15-57b9-4cc9-a001-a722603cda7f" data-name="5f4e6a15-57b9-4cc9-a001-a722603cda7f"><path d="M1167.36,276.14h-9.24v-6.81h4.42c4.24,0,5.31-.93,5.31-5.89h8.75v37.94h-9.24Zm35.9-1.95c0-3.21-.64-3.55-5.55-3.55s-5.54.34-5.54,3.55.63,3.55,5.54,3.55S1203.26,277.4,1203.26,274.19Zm-14.94,7.44c-3.74-.73-5.4-3.31-5.4-8.22,0-8.46,3.17-10.55,14.79-10.55s14.79,2.09,14.79,10.55c0,4.91-1.66,7.49-5.35,8.22,5.35.63,7.73,3.65,7.73,9.78,0,8.46-3.65,10.55-17.17,10.55s-17.22-2.09-17.22-10.55C1180.49,285.28,1182.88,282.26,1188.32,281.63Zm9.39,12.55c5.79,0,6.52-.44,6.52-4.33s-.73-4.33-6.52-4.33-6.52.44-6.52,4.33S1191.92,294.18,1197.71,294.18ZM1229.43,282V271.86h8.26V282h10.12v8.27h-10.12v10.12h-8.26V290.29h-10.17V282Z"/></g></g></g></g></svg>