<svg xmlns="http://www.w3.org/2000/svg" viewBox="0 0 100.82 241.9"><defs><style>.cls-1{fill:#fff;}</style></defs><title>Asset 59mdpi</title><g id="Layer_2" data-name="Layer 2"><g id="Layer_1-2" data-name="Layer 1"><g id="_3544b41e-419b-4186-95ea-8b2b935e9149" data-name="3544b41e-419b-4186-95ea-8b2b935e9149"><g id="_3544b41e-419b-4186-95ea-8b2b935e9149-child-0" data-name="3544b41e-419b-4186-95ea-8b2b935e9149-child-0"><path class="cls-1" d="M33.61,0,16.8,29.12,37.34,41,50.41,18.32,55,26.37l-5.44,3.15,20.9-.23,6.94-11.73L81,11.32l-5.48,3.15L67.22,0ZM84,29.12l-20.72,12L75.9,63.25l-8.57.06V57.24l-3.39,6.07L57.06,75.44v.06l6.71,11.84,3.58,6.31V87.34H84l16.8-29.11ZM2.86,40.55,8.4,43.76,0,58.23,16.8,87.34H50.41V63.43l-26.14.16,4.62-8,5.48,3.16-10.62-18Z"/></g></g><g id="_10b055f4-71d4-423b-aa7a-4f9b485f7999" data-name="10b055f4-71d4-423b-aa7a-4f9b485f7999"><g id="_10b055f4-71d4-423b-aa7a-4f9b485f7999-child-0" data-name="10b055f4-71d4-423b-aa7a-4f9b485f7999-child-0"><path class="cls-1" d="M78.21,180.19a4.51,4.51,0,0,0,.07-.73V166.62c0-14.12-12.55-25.58-27.95-25.54s-27.77,11.67-27.77,25.79v12.59a3.61,3.61,0,0,0,.07.73,14.74,14.74,0,0,0-7.28,12.52v34.1c0,8.33,7.37,15.09,16.46,15.09H69c9.1,0,16.47-6.76,16.47-15.09v-34.1A14.8,14.8,0,0,0,78.21,180.19Zm-24.1,27.27,1.61,17.59a1.47,1.47,0,0,1-1.53,1.53H46.37a1.47,1.47,0,0,1-1.53-1.53l1.7-17.72a2.18,2.18,0,0,0-.91-2,6.78,6.78,0,0,1-2.85-5.46,7.08,7.08,0,0,1,5.09-6.6,8.29,8.29,0,0,1,4.93,0A7.07,7.07,0,0,1,58,199.92a6.82,6.82,0,0,1-3,5.55A2.18,2.18,0,0,0,54.11,207.46Zm-22.3-29.84h-.23V166.8c0-9.53,8.34-17.4,18.73-17.45s18.94,7.71,18.94,17.26v11Z"/></g></g></g></g></svg>