<svg xmlns="http://www.w3.org/2000/svg" viewBox="0 0 34.38 42.29"><defs><style>.cls-1{fill:#0d122f;}</style></defs><title>Asset 1mdpi</title><g id="Layer_2" data-name="Layer 2"><g id="Layer_1-2" data-name="Layer 1"><path class="cls-1" d="M33.66,10l.05,0V8.57H33V7.13h-.72V5.69h-.69c0-.25,0-.47,0-.72h-.7V4.26h-.73v-.7H29.4l-.72,0v-.7H26.54V2.11H24.38V1.38H22.26c0-.24,0-.47-.05-.72H17.93V0H13.62V.69H10.74v.72H9.32v.73H7.88v.73H7.19c0,.24,0,.47,0,.72h-.7v.7H5.72V5L5,5V6.44h-.7v.73H3.56V8.61H2.85v2.77a.06.06,0,0,1,0,0l-.07.06H2.13v2.86H1.4v1.41l-.71,0v1.4h.72v-.71H2.85V15.8h.73v.69H5.63l0,0,.06.07v.63h.71v.73h.68v2.87h-.7v.71H5.71V23H4.26v.71H1.5l-.05,0-.07-.07V23H.68V21.53H0v2.16H.69v2.17c0,.7,0,1.41,0,2.14h.7v.7H3.58v5H5V33h.71v1.41h.73V33H7.87v.73a2.82,2.82,0,0,0,0,.66h.7V33H10v1.37h.72V33h1.42v1.41h.72v-.72h.71V33h.73v1.38h.73V33c1,0,1.91,0,2.87,0V31.54h.71v-.73h.72v-.72h.69c0-.25,0-.48,0-.72h.7V28h2.85v1.41H22.2v.71h-.7v.73h-.73v.72h-.71v.71h-.72V33h-.73v.69l-.72,0v.69h-.71v.73h-.72v1.41H15v-.67h-.73V38h-.73v-.68l-.72,0v-.69h-.71V38H10.71V36.6H10V38H8.57v-2.1H7.84v1.39l-.72,0V38H6.41V35.87H5.68v.72H5v.68H4.25V35.89H3.56v2.82l.72,0v2.13H5v.73H7.15v.68h6.42c0-.25,0-.47,0-.72h2.13v-.71h1.44v-.69l.72,0v-.7h1.42v-.73h1.44V38h.7v-.72a2.42,2.42,0,0,1,0-.71h.69V34.41h.73V31.56l.72,0V30.11h.7V28.67h.73V27.23h.68c0-.25,0-.48,0-.72h.7V25.8H28v-.68h.67v1.41h-.7v.73h-.68V28h1.39c0-.25,0-.48,0-.72h.7v-.71h.73v-.69l.72,0v-.7h.71V23.65h.73V20.78H33V17.93h.73v-3.6h.69V10.05ZM10.76,28.66H7.2c0,.27,0,.49,0,.72H6.48c0-.23,0-.45,0-.7H5.78v-5h.68v-.72H7.9v.7h.7v.7l.72,0v1.41H10v1.44h.72Zm10.06-4.32v.73h-.7v.66c-.51.09-4.74.12-6.47,0v-.68h-.72v-.73H12.2v-.71h-.71c0-.24,0-.48,0-.71v-.73h-.71V20.05h-.7V18.63l-.73,0v-1.4H10v-.73h1.44v-.73h3.6v.71h1.41v.73H17.9v.71l.72,0h.72v.7h.73v.73h.73V20h.69v4.3Z"/></g></g></svg>