<svg xmlns="http://www.w3.org/2000/svg" viewBox="0 0 611.24 104.05"><defs><style>.cls-1{fill:#2d2d2d;}</style></defs><title>Asset 13mdpi</title><g id="Layer_2" data-name="Layer 2"><g id="Layer_1-2" data-name="Layer 1"><g id="_48b9fd60-80b3-4d2d-8707-aae4cc0f4a7d" data-name="48b9fd60-80b3-4d2d-8707-aae4cc0f4a7d"><g id="_48b9fd60-80b3-4d2d-8707-aae4cc0f4a7d-child-0" data-name="48b9fd60-80b3-4d2d-8707-aae4cc0f4a7d-child-0"><path class="cls-1" d="M159.64,70.08v-28h-6.46V34.94h15.38V70.08Z"/></g><g id="_48b9fd60-80b3-4d2d-8707-aae4cc0f4a7d-child-1" data-name="48b9fd60-80b3-4d2d-8707-aae4cc0f4a7d-child-1"><path class="cls-1" d="M202.09,44a8.2,8.2,0,0,1-4.41,7.26A9.62,9.62,0,0,1,204,60.15c0,6.32-5.61,10.33-14.39,10.33s-14.38-4-14.38-10.18c0-4,2.61-7.41,6.67-9A8.83,8.83,0,0,1,177,43.76c0-5.61,4.92-9.17,12.53-9.17S202.09,38.25,202.09,44ZM183.6,59.4c0,3,2.1,4.61,6,4.61s6-1.6,6-4.61-2.16-4.56-6-4.56S183.6,56.5,183.6,59.4Zm.9-14.88c0,2.5,1.81,3.91,5.06,3.91s5.07-1.41,5.07-3.91-1.81-4.06-5.07-4.06S184.5,41.91,184.5,44.52Z"/></g><g id="_48b9fd60-80b3-4d2d-8707-aae4cc0f4a7d-child-2" data-name="48b9fd60-80b3-4d2d-8707-aae4cc0f4a7d-child-2"><path class="cls-1" d="M218.79,38.91a42.45,42.45,0,1,1-26.6-26.6V2.85a51.5,51.5,0,1,0,36.05,36.06Z"/></g><g id="_48b9fd60-80b3-4d2d-8707-aae4cc0f4a7d-child-3" data-name="48b9fd60-80b3-4d2d-8707-aae4cc0f4a7d-child-3"><path class="cls-1" d="M216.22,14.85V5h-7.1v9.88h-9.81V22h9.81v9.87h7.1V22h9.88v-7.1Z"/></g></g><g id="_335c1dd3-cec2-4343-a3d8-6864d6f432ed" data-name="335c1dd3-cec2-4343-a3d8-6864d6f432ed"><g id="_335c1dd3-cec2-4343-a3d8-6864d6f432ed-child-0" data-name="335c1dd3-cec2-4343-a3d8-6864d6f432ed-child-0"><path class="cls-1" d="M51.51,104.05A51.51,51.51,0,1,0,0,52.54,51.62,51.62,0,0,0,51.51,104.05Zm15.28-8.68a48.18,48.18,0,0,0,6.83-12.65H85.49A45.71,45.71,0,0,1,66.79,95.37ZM90,76.68H75.58a90.39,90.39,0,0,0,3-21.12H96.88A45.18,45.18,0,0,1,90,76.68Zm0-48.29a45.19,45.19,0,0,1,6.86,21.13H78.62a90.4,90.4,0,0,0-3-21.13Zm-4.53-6H73.62A48,48,0,0,0,66.79,9.71,45.61,45.61,0,0,1,85.49,22.36Zm-31-14.78c5.92,2,10.17,9,12.6,14.78H54.53Zm0,20.81H69.3a82.83,82.83,0,0,1,3.29,21.13H54.53Zm0,27.16H72.59A82.76,82.76,0,0,1,69.3,76.68H54.53Zm0,27.17h12.6c-2.44,5.73-6.69,12.77-12.6,14.77Zm-37,0H29.39a48.37,48.37,0,0,0,6.84,12.65A45.64,45.64,0,0,1,17.53,82.72Zm31,14.77c-5.92-2-10.17-9-12.6-14.77h12.6Zm0-20.81H33.72a82.75,82.75,0,0,1-3.29-21.12H48.49Zm0-27.16H30.43a82.83,82.83,0,0,1,3.29-21.13H48.49Zm0-41.94V22.36H35.89C38.32,16.62,42.57,9.59,48.49,7.58ZM36.23,9.71a48.05,48.05,0,0,0-6.84,12.65H17.53A45.54,45.54,0,0,1,36.23,9.71ZM13,28.39H27.44a90.92,90.92,0,0,0-3.05,21.13H6.14A45.18,45.18,0,0,1,13,28.39ZM6.14,55.56H24.39a90.92,90.92,0,0,0,3.05,21.12H13A45.17,45.17,0,0,1,6.14,55.56Z"/></g></g><g id="ab1277d2-e94d-4d4f-82d9-cb113e233517"><g id="ab1277d2-e94d-4d4f-82d9-cb113e233517-child-0"><path class="cls-1" d="M288.45,5.72,271.28,35.48l21,12.09,13.35-23.13,4.65,8.23-5.55,3.22,21.35-.24,7.1-12,3.75-6.38-5.6,3.22L322.79,5.72ZM340,35.48,318.79,47.69l12.87,22.66-8.75.06v-6.2l-3.47,6.2-7,12.4v0L319.26,95l3.66,6.44V95h17l17.17-29.75ZM257,47.16l5.67,3.27-8.59,14.79L271.28,95h34.34V70.53l-26.71.17,4.72-8.16,5.6,3.22L278.38,47.4Z"/></g></g><g id="c1aa26ca-17ec-4b1d-aa0e-8187a62cdd42"><g id="c1aa26ca-17ec-4b1d-aa0e-8187a62cdd42-child-0"><path class="cls-1" d="M540.81,69.05v-28h-6.47V33.92h15.39V69.05Z"/></g><g id="c1aa26ca-17ec-4b1d-aa0e-8187a62cdd42-child-1"><path class="cls-1" d="M583.26,43a8.2,8.2,0,0,1-4.41,7.26,9.62,9.62,0,0,1,6.26,8.88c0,6.31-5.61,10.32-14.38,10.32s-14.38-4-14.38-10.17c0-4,2.6-7.42,6.66-9a8.84,8.84,0,0,1-4.86-7.51c0-5.62,4.91-9.18,12.53-9.18S583.26,37.22,583.26,43ZM564.77,58.37c0,3,2.1,4.61,6,4.61s6-1.6,6-4.61-2.15-4.56-6-4.56S564.77,55.47,564.77,58.37Zm.9-14.88c0,2.5,1.8,3.91,5.06,3.91s5.06-1.41,5.06-3.91-1.8-4.06-5.06-4.06S565.67,40.88,565.67,43.49Z"/></g><g id="c1aa26ca-17ec-4b1d-aa0e-8187a62cdd42-child-2"><path class="cls-1" d="M600,37.88a42.45,42.45,0,1,1-26.6-26.6V1.83a51.48,51.48,0,1,0,36,36.05Z"/></g><g id="c1aa26ca-17ec-4b1d-aa0e-8187a62cdd42-child-3"><path class="cls-1" d="M597.39,13.82V3.94h-7.1v9.88h-9.82v7.1h9.82V30.8h7.1V20.92h9.88v-7.1Z"/></g></g><g id="cd7a9e0d-9172-4ba1-b1ce-f5de1521dd54"><g id="cd7a9e0d-9172-4ba1-b1ce-f5de1521dd54-child-0"><path class="cls-1" d="M432.67,103a51.51,51.51,0,1,0-51.5-51.51A51.62,51.62,0,0,0,432.67,103ZM448,94.34a48.31,48.31,0,0,0,6.83-12.65h11.87A45.71,45.71,0,0,1,448,94.34Zm23.23-18.69H456.74a90.31,90.31,0,0,0,3.05-21.12H478A45.06,45.06,0,0,1,471.19,75.65Zm0-48.29A45.1,45.1,0,0,1,478,48.49H459.79a90.39,90.39,0,0,0-3.05-21.13Zm-4.53-6H454.79A48,48,0,0,0,448,8.68,45.61,45.61,0,0,1,466.66,21.33Zm-31-14.78c5.93,2,10.17,9.05,12.6,14.78h-12.6Zm0,20.81h14.78a82.4,82.4,0,0,1,3.28,21.13H435.69Zm0,27.16h18.06a82.33,82.33,0,0,1-3.28,21.13H435.69Zm0,27.17h12.6c-2.43,5.73-6.68,12.77-12.6,14.77Zm-37,0h11.87a48.31,48.31,0,0,0,6.83,12.65A45.71,45.71,0,0,1,398.69,81.69Zm31,14.77c-5.92-2-10.17-9-12.6-14.77h12.6Zm0-20.81H414.88a82.32,82.32,0,0,1-3.28-21.12h18.06Zm0-27.16H411.6a82.4,82.4,0,0,1,3.28-21.13h14.78Zm0-41.94V21.33h-12.6C419.49,15.59,423.74,8.56,429.66,6.55ZM417.39,8.68a48.31,48.31,0,0,0-6.83,12.65H398.69A45.61,45.61,0,0,1,417.39,8.68ZM394.16,27.36h14.45a90.39,90.39,0,0,0-3.05,21.13H387.31A45.1,45.1,0,0,1,394.16,27.36Zm-6.85,27.17h18.25a90.31,90.31,0,0,0,3.05,21.12H394.16A45.06,45.06,0,0,1,387.31,54.53Z"/></g></g></g></g></svg>