<svg xmlns="http://www.w3.org/2000/svg" viewBox="0 0 375.84 199.54"><defs><style>.cls-1{fill:none;stroke:#f9f1f1;stroke-linecap:round;stroke-miterlimit:10;stroke-width:15.43px;}.cls-2{fill:#f9f1f1;}</style></defs><title>Asset 4mdpi</title><g id="Layer_2" data-name="Layer 2"><g id="Layer_1-2" data-name="Layer 1"><g id="b56f68d0-bc51-4ece-8446-50c8bfa8c7c9"><g id="b56f68d0-bc51-4ece-8446-50c8bfa8c7c9-child-0"><path class="cls-1" d="M276.07,7.72H99.77a92.05,92.05,0,0,0,0,184.1h176.3a92.05,92.05,0,1,0,0-184.1Z"/></g></g><g id="_78b0f5a5-498b-47ff-aab1-2ca3cfca683b" data-name="78b0f5a5-498b-47ff-aab1-2ca3cfca683b"><g id="_8d06ca25-501c-4c98-9c1f-61235b9ca407" data-name="8d06ca25-501c-4c98-9c1f-61235b9ca407"><path class="cls-2" d="M56.25,151.43a47.57,47.57,0,0,0,3.09-10.91,84.35,84.35,0,0,0,1.22-14.92q0-15.93-4.31-77.49h48.51l.57,16.36-29-12.06L74.05,96l16.64-7.75h1.44v20.09H90.69L76.34,101.2a89.35,89.35,0,0,1,3.09,12.2,67.78,67.78,0,0,1,1.22,12.2,54.71,54.71,0,0,1-1.22,11.34,56,56,0,0,1-3.09,10.18l29-12.34-.57,16.65Zm78.93,1.44a46.84,46.84,0,0,1-11.7-1.58,34.57,34.57,0,0,1-10.11-4.17l4.3-33q2,1.42,16.65,8l-5.17,26.41h.43a28.78,28.78,0,0,0,8-1.51A31.46,31.46,0,0,0,148.1,141q6-5,6-12,0-12.91-20.37-29.13a128.59,128.59,0,0,1-11-9.4,27.94,27.94,0,0,1-5.53-7.54,21,21,0,0,1-1.86-9.18q0-12.77,7.46-19.8a26.31,26.31,0,0,1,18.8-7.18q12,0,18.51,2a51.16,51.16,0,0,1,11.62,5.17,21.22,21.22,0,0,0,3.09,1.65,7.17,7.17,0,0,0,2.8.64A11.46,11.46,0,0,0,183,54.35a64.08,64.08,0,0,0,8.46-6.24h48.8l1.43,28.7h-1.43Q229,60.45,219.85,51h-2.58l1.43,96.14,7.18,2.87v1.44H195.74l4.3-8.32L201.34,51a72.82,72.82,0,0,1-6.75,8.89,55.91,55.91,0,0,1-8.61,8q-5.88,4.45-10.47,4.45a9.68,9.68,0,0,1-7-2.8A53.32,53.32,0,0,1,162,61.45a57.53,57.53,0,0,0-6.17-7.68,8.36,8.36,0,0,0-6-2.36h-1a9.76,9.76,0,0,0-6.67,3,22.18,22.18,0,0,0-5.24,7.89,26.49,26.49,0,0,0-2,10.19,10.71,10.71,0,0,0,3,7.54,60.89,60.89,0,0,0,9.76,7.82q8.18,5.44,13.63,9.9a46.38,46.38,0,0,1,9.25,10.12,21.1,21.1,0,0,1,3.81,12,28.28,28.28,0,0,1-5.74,17.79A36.27,36.27,0,0,1,153.84,149a46.82,46.82,0,0,1-18.66,3.88ZM251.71,48.11h28.55q12.63,0,21.53,6.88a41.54,41.54,0,0,1,13.35,18.66,73.7,73.7,0,0,1,4.45,26.26q0,24.41-11,37.89t-28,13.63H251.71Zm18.65,99h.43a16.85,16.85,0,0,0,3.09-.35,11.69,11.69,0,0,0,2.94-.94,30.94,30.94,0,0,0,13.92-13.63,60.35,60.35,0,0,0,6.39-17.87,87.63,87.63,0,0,0,1.5-14.42q0-13.92-3.37-24t-12.7-18.15a29.62,29.62,0,0,0-5.74-4,8,8,0,0,0-3.59-1.29l-2.87,47.36-.14,24Z"/></g></g></g></g></svg>