<svg xmlns="http://www.w3.org/2000/svg" viewBox="0 0 158.36 26.32"><defs><style>.cls-1{fill:none;}.cls-1,.cls-3{stroke:#e55998;stroke-linecap:round;stroke-miterlimit:10;stroke-width:0.93px;}.cls-2,.cls-3{fill:#e55998;}</style></defs><title>Asset 15mdpi</title><g id="Layer_2" data-name="Layer 2"><g id="Layer_1-2" data-name="Layer 1"><g id="_975ce009-6cb0-4946-a8c1-71488a35c61b" data-name="975ce009-6cb0-4946-a8c1-71488a35c61b"><g id="_975ce009-6cb0-4946-a8c1-71488a35c61b-child-0" data-name="975ce009-6cb0-4946-a8c1-71488a35c61b-child-0"><path class="cls-1" d="M132.51,13.16A12.69,12.69,0,1,1,145.2,25.85,12.69,12.69,0,0,1,132.51,13.16Z"/></g></g><g id="_0a4620ea-d193-46e5-9e21-21327eec9ca5" data-name="0a4620ea-d193-46e5-9e21-21327eec9ca5"><g id="_0a4620ea-d193-46e5-9e21-21327eec9ca5-child-0" data-name="0a4620ea-d193-46e5-9e21-21327eec9ca5-child-0"><path class="cls-2" d="M117.33,24.24a11.19,11.19,0,0,1-.41-22.37c.38,0,.77,0,1.16,0a12.69,12.69,0,1,0-5.65,23.92h0a12.65,12.65,0,0,0,6.06-1.67C118.11,24.2,117.72,24.23,117.33,24.24Z"/></g></g><g id="_86f5606b-8311-4afc-8f95-dda42e380851" data-name="86f5606b-8311-4afc-8f95-dda42e380851"><g id="_86f5606b-8311-4afc-8f95-dda42e380851-child-0" data-name="86f5606b-8311-4afc-8f95-dda42e380851-child-0"><path class="cls-1" d="M99.54,13.16a12.7,12.7,0,1,1,12.69,12.69A12.69,12.69,0,0,1,99.54,13.16Z"/></g></g><g id="_446806c4-a02e-4e55-ad1e-8aa1455e5fa6" data-name="446806c4-a02e-4e55-ad1e-8aa1455e5fa6"><g id="_446806c4-a02e-4e55-ad1e-8aa1455e5fa6-child-0" data-name="446806c4-a02e-4e55-ad1e-8aa1455e5fa6-child-0"><path class="cls-2" d="M80,21.34a9.1,9.1,0,0,1,6.38-17,9,9,0,0,1,4.22,3.23,12.68,12.68,0,1,0,.52,10.08c.11-.29.2-.58.29-.87A9.11,9.11,0,0,1,80,21.34Z"/></g></g><g id="c774e4a8-247c-4491-b46c-4fd5728d1d60"><g id="c774e4a8-247c-4491-b46c-4fd5728d1d60-child-0"><path class="cls-1" d="M66.52,13.16A12.69,12.69,0,1,1,79.21,25.85,12.69,12.69,0,0,1,66.52,13.16Z"/></g></g><g id="b8636612-4edd-4128-a325-d87a9c48fb89"><g id="b8636612-4edd-4128-a325-d87a9c48fb89-child-0"><path class="cls-2" d="M58.43,16.44A7.82,7.82,0,1,1,58.16,9a12.79,12.79,0,1,0,.27,7.46Z"/></g></g><g id="_7b8a4e70-e527-4473-943b-5c5c62975d1f" data-name="7b8a4e70-e527-4473-943b-5c5c62975d1f"><g id="_7b8a4e70-e527-4473-943b-5c5c62975d1f-child-0" data-name="7b8a4e70-e527-4473-943b-5c5c62975d1f-child-0"><path class="cls-1" d="M33.49,13.16A12.7,12.7,0,1,1,46.18,25.85,12.69,12.69,0,0,1,33.49,13.16Z"/></g></g><g id="_23bf28b3-2f5f-4ee8-bdde-193e87c64415" data-name="23bf28b3-2f5f-4ee8-bdde-193e87c64415"><g id="_23bf28b3-2f5f-4ee8-bdde-193e87c64415-child-0" data-name="23bf28b3-2f5f-4ee8-bdde-193e87c64415-child-0"><path class="cls-3" d="M.47,13.16A12.69,12.69,0,1,1,13.16,25.85,12.69,12.69,0,0,1,.47,13.16Z"/></g></g></g></g></svg>