<svg xmlns="http://www.w3.org/2000/svg" viewBox="0 0 103.16 30.49"><defs><style>.cls-1{fill:#b8a980;}</style></defs><title>Asset 18skateboard1</title><g id="Layer_2" data-name="Layer 2"><g id="Layer_1-2" data-name="Layer 1"><g id="b7d948b8-4226-4e4e-840e-8ca481c185e2"><g id="b7d948b8-4226-4e4e-840e-8ca481c185e2-child-0"><path class="cls-1" d="M51.58,0l5,10,11.08,1.61-8,7.81,1.9,11-9.91-5.21-9.91,5.21,1.89-11-8-7.81L46.62,10Z"/></g></g><g id="_2d082c83-ccdc-4ba7-bae3-eba071d260c8" data-name="2d082c83-ccdc-4ba7-bae3-eba071d260c8"><g id="_2d082c83-ccdc-4ba7-bae3-eba071d260c8-child-0" data-name="2d082c83-ccdc-4ba7-bae3-eba071d260c8-child-0"><path class="cls-1" d="M87.13,0l5,10,11.08,1.61-8,7.81,1.89,11-9.9-5.21-9.91,5.21,1.89-11-8-7.81L82.17,10Z"/></g></g><g id="b0c1ba95-f99c-4436-975e-39ce6974b94c"><g id="b0c1ba95-f99c-4436-975e-39ce6974b94c-child-0"><path class="cls-1" d="M16,0,21,10l11.08,1.61-8,7.81,1.89,11L16,25.28,6.12,30.49,8,19.46,0,11.65,11.08,10Z"/></g></g></g></g></svg>