<svg xmlns="http://www.w3.org/2000/svg" viewBox="0 0 665.25 214.01"><defs><style>.cls-1{fill:none;stroke:#2d2d2d;stroke-linecap:round;stroke-miterlimit:10;stroke-width:4.3px;}.cls-2{fill:#2d2d2d;}</style></defs><title>Asset 64mdpi</title><g id="Layer_2" data-name="Layer 2"><g id="Layer_1-2" data-name="Layer 1"><g id="f05abd68-3d24-4980-bbd6-e9b8ea919c9f"><g id="f05abd68-3d24-4980-bbd6-e9b8ea919c9f-child-0"><path class="cls-1" d="M26.14,211.86c-13.25,0-24-46.86-24-104.65S12.89,2.55,26.14,2.55s24,46.86,24,104.66S39.39,211.86,26.14,211.86Z"/></g></g><g id="a609051c-ece0-48ab-8418-997eb61d10f9"><g id="a609051c-ece0-48ab-8418-997eb61d10f9-child-0"><path class="cls-1" d="M51,211.45c-13.25,0-24-46.85-24-104.65S37.73,2.15,51,2.15,75,49,75,106.8,64.23,211.45,51,211.45Z"/></g></g><g id="dcab3bb9-47ad-481c-bc84-6a61fd53643b"><g id="dcab3bb9-47ad-481c-bc84-6a61fd53643b-child-0"><path class="cls-1" d="M75.82,211.45c-13.25,0-24-46.85-24-104.65S62.57,2.15,75.82,2.15s24,46.85,24,104.65S89.07,211.45,75.82,211.45Z"/></g></g><g id="c8a6aa90-eb58-466b-842f-74611203d36b"><g id="c8a6aa90-eb58-466b-842f-74611203d36b-child-0"><path class="cls-1" d="M100.66,211.45c-13.25,0-24-46.85-24-104.65S87.41,2.15,100.66,2.15s24,46.85,24,104.65S113.92,211.45,100.66,211.45Z"/></g></g><g id="_93abf823-c186-4977-838d-e8c88136fc2d" data-name="93abf823-c186-4977-838d-e8c88136fc2d"><g id="_93abf823-c186-4977-838d-e8c88136fc2d-child-0" data-name="93abf823-c186-4977-838d-e8c88136fc2d-child-0"><path class="cls-2" d="M547.28,210V4h30V210Z"/></g></g><g id="_5b7c2840-be33-46ab-90b8-c109b6f6b702" data-name="5b7c2840-be33-46ab-90b8-c109b6f6b702"><g id="_5b7c2840-be33-46ab-90b8-c109b6f6b702-child-0" data-name="5b7c2840-be33-46ab-90b8-c109b6f6b702-child-0"><path class="cls-2" d="M459.32,92H665.25v30H459.32Z"/></g></g><g id="_73971409-177c-44a1-b534-d6c8b6ed9068" data-name="73971409-177c-44a1-b534-d6c8b6ed9068"><g id="_73971409-177c-44a1-b534-d6c8b6ed9068-child-0" data-name="73971409-177c-44a1-b534-d6c8b6ed9068-child-0"><path class="cls-2" d="M478.86,169.2,624.48,23.58,645.7,44.8,500.09,190.42Z"/></g></g><g id="_1a553898-0539-471e-a55c-9df5d389d6d0" data-name="1a553898-0539-471e-a55c-9df5d389d6d0"><g id="_1a553898-0539-471e-a55c-9df5d389d6d0-child-0" data-name="1a553898-0539-471e-a55c-9df5d389d6d0-child-0"><path class="cls-2" d="M271.9,157.82l2.45,4.25,2.45,4.25,2.45,4.24,2.45,4.25-2.45,4.24-2.45,4.25-2.45,4.25-2.45,4.24H252.27l-2.45-4.24-2.45-4.25-2.45-4.25-2.45-4.24,2.45-4.25,2.45-4.24,2.45-4.25,2.45-4.25Zm-61-23.71-2.45,4.25L206,142.6l-2.45,4.25-2.45,4.25,2.45,4.24,2.45,4.25,2.45,4.24,2.45,4.25h19.63l2.45-4.25,2.45-4.24,2.45-4.25,2.45-4.24-2.45-4.25-2.45-4.25-2.45-4.24-2.45-4.25Zm43.44,8.95h15.55l2-3.36,2-3.37,2-3.36,2-3.37-2-3.36-2-3.36-2-3.37-2-3.36H254.29l-2,3.36-2,3.37-2,3.36-2,3.36,2,3.37,2,3.36,2,3.37ZM210.85,45.5l-2.45,4.25L206,54l-2.45,4.25-2.45,4.24,2.45,4.25L206,71l2.45,4.24,2.45,4.25h19.63l2.45-4.25L235.38,71l2.45-4.25,2.45-4.25-2.45-4.24L235.38,54l-2.45-4.24-2.45-4.25Zm0,44.52-2.45,4.24L206,98.51l-2.45,4.25L201.05,107l2.45,4.25,2.45,4.24,2.45,4.25,2.45,4.25h19.63l2.45-4.25,2.45-4.25,2.45-4.24,2.45-4.25-2.45-4.24-2.45-4.25-2.45-4.25L230.48,90Zm134.7-2.88.56-.94.55-1,.56-1,.55-.94-.55-1-.56-1-.55-.95-.56-.94h-4.31l-.56.94-.55.95-.56,1-.55,1,.55.94.56,1,.55,1,.56.94Zm3.3-39.52,1.37-2.35,1.37-2.35L353,40.57l1.38-2.35L353,35.86l-1.37-2.35-1.37-2.35-1.37-2.35H337.94l-1.37,2.35-1.37,2.35-1.37,2.35-1.38,2.36,1.38,2.35,1.37,2.35,1.37,2.35,1.37,2.35ZM387.1,65.88l.58-1,.59-1,.59-1,.59-1-.59-1-.59-1-.59-1-.58-1h-4.61l-.59,1-.58,1-.59,1-.59,1,.59,1,.59,1,.58,1,.59,1Zm-47.69,69.41h8l1-1.73,1-1.73,1-1.74,1-1.73-1-1.73-1-1.73-1-1.73-1-1.73h-8l-1,1.73-1,1.73-1,1.73-1,1.73,1,1.73,1,1.74,1,1.73ZM294.63,1.11l-2.09,3.66-2.09,3.66-2.09,3.66-2.09,3.66,2.09,3.65,2.09,3.66,2.09,3.66,2.09,3.66h16.82l2.09-3.66,2.09-3.66,2.09-3.66,2.09-3.65-2.09-3.66-2.09-3.66-2.09-3.66-2.09-3.66Zm42.95,163.64-1.47,2.51-1.47,2.52-1.47,2.51-1.47,2.52,1.47,2.51,1.47,2.52,1.47,2.51,1.47,2.52h11.63l1.47-2.52,1.47-2.51,1.47-2.52,1.47-2.51-1.47-2.52-1.47-2.51-1.47-2.52-1.47-2.51Zm-39-24.07-1.5,2.61-1.5,2.61-1.5,2.62-1.51,2.61,1.51,2.61,1.5,2.61,1.5,2.62,1.5,2.61h12.06l1.5-2.61,1.5-2.62,1.5-2.61,1.5-2.61-1.5-2.61-1.5-2.62-1.5-2.61-1.5-2.61ZM309.75,71.4,311,69.18,312.3,67l1.27-2.22,1.28-2.22-1.28-2.22-1.27-2.22L311,55.85l-1.28-2.22H299.46l-1.27,2.22-1.27,2.23-1.28,2.22-1.27,2.22,1.27,2.22L296.92,67l1.27,2.22,1.27,2.22ZM269.22,97.07,271,94l1.79-3.1,1.8-3.11,1.8-3.1-1.8-3.1-1.8-3.1L271,75.35l-1.8-3.1H254.88l-1.8,3.1-1.79,3.11-1.8,3.1-1.79,3.1,1.79,3.1,1.8,3.11,1.79,3.1,1.8,3.1Zm120.39,45.11H380l-1.21,2.09-1.21,2.09-1.21,2.09-1.2,2.09,1.2,2.09,1.21,2.09,1.21,2.09L380,158.9h9.6l1.21-2.09,1.21-2.09,1.21-2.09,1.21-2.09-1.21-2.09L392,146.36l-1.21-2.09Zm-137.34-121-2.45,4.24-2.45,4.25-2.45,4.25-2.45,4.24,2.45,4.25,2.45,4.24,2.45,4.25,2.45,4.25H271.9l2.45-4.25,2.45-4.25,2.45-4.24,2.45-4.25-2.45-4.24-2.45-4.25-2.45-4.25-2.45-4.24Zm45.86,97.1h13l1.63-2.81,1.63-2.81,1.63-2.81,1.64-2.8L316,104.23l-1.63-2.81-1.63-2.81-1.63-2.81h-13l-1.64,2.81-1.63,2.81-1.63,2.81L291.59,107l1.64,2.8,1.63,2.81,1.63,2.81Zm-3.37,65.88-2.09,3.59-2.09,3.6-2.09,3.59-2.09,3.59,2.09,3.59,2.09,3.6,2.09,3.59,2.09,3.59h16.63l2.09-3.59,2.09-3.59,2.09-3.6,2.09-3.59-2.09-3.59-2.09-3.59-2.09-3.6-2.09-3.59Z"/></g></g></g></g></svg>