<svg xmlns="http://www.w3.org/2000/svg" viewBox="0 0 1672.18 220.25"><defs><style>.cls-1{fill:#ec5348;}</style></defs><title>Asset 1american</title><g id="Layer_2" data-name="Layer 2"><g id="Layer_1-2" data-name="Layer 1"><path class="cls-1" d="M0,46.93l.09,0a.18.18,0,0,0-.07,0Z"/><path class="cls-1" d="M1076.82,128.27c2.19-39,165-103.46,95.4-124-77.93-23-190.8,51.6-528,106.62C400.24,150.71,175.54,140.65.09,47,349.9,292.12,866.3,104.78,980.33,96.42,1114.73,86.55,821,224.67,1016,220.14c157.52-3.65,547.72-87.92,656.22-156.64C1400,140.9,1074.31,172.71,1076.82,128.27ZM689.68,114C790,96.72,894.93,72.18,1020.71,37c149.76-41.9,150.64-14.71,119.27,4.68,0,0,19.27-23-40-12.61C998.23,47,805.45,101,689.68,114Zm278.44,75.47c22.77,13.89,128.25,21,312.89-14.09C1184.17,199.32,960,231.37,968.12,189.51Z"/></g></g></svg>