<svg xmlns="http://www.w3.org/2000/svg" viewBox="0 0 381.53 121.99"><defs><style>.cls-1{fill:#2d2d2d;}</style></defs><title>Asset 12mdpi</title><g id="Layer_2" data-name="Layer 2"><g id="Layer_1-2" data-name="Layer 1"><g id="_6d919df3-5f93-4731-9567-b736033f7130" data-name="6d919df3-5f93-4731-9567-b736033f7130"><g id="_6d919df3-5f93-4731-9567-b736033f7130-child-0" data-name="6d919df3-5f93-4731-9567-b736033f7130-child-0"><path class="cls-1" d="M0,122V0H21.06V122Z"/></g><g id="_6d919df3-5f93-4731-9567-b736033f7130-child-1" data-name="6d919df3-5f93-4731-9567-b736033f7130-child-1"><path class="cls-1" d="M137.54,122V0H158.6V122Z"/></g><g id="_6d919df3-5f93-4731-9567-b736033f7130-child-2" data-name="6d919df3-5f93-4731-9567-b736033f7130-child-2"><path class="cls-1" d="M34.26,122V0H44.8V122Z"/></g><g id="_6d919df3-5f93-4731-9567-b736033f7130-child-3" data-name="6d919df3-5f93-4731-9567-b736033f7130-child-3"><path class="cls-1" d="M100,122V0h10.53V122Z"/></g><g id="_6d919df3-5f93-4731-9567-b736033f7130-child-4" data-name="6d919df3-5f93-4731-9567-b736033f7130-child-4"><path class="cls-1" d="M118.41,122V0h10.53V122Z"/></g><g id="_6d919df3-5f93-4731-9567-b736033f7130-child-5" data-name="6d919df3-5f93-4731-9567-b736033f7130-child-5"><path class="cls-1" d="M163.23,122V0h10.53V122Z"/></g><g id="_6d919df3-5f93-4731-9567-b736033f7130-child-6" data-name="6d919df3-5f93-4731-9567-b736033f7130-child-6"><path class="cls-1" d="M181.65,122V0H187V122Z"/></g><g id="_6d919df3-5f93-4731-9567-b736033f7130-child-7" data-name="6d919df3-5f93-4731-9567-b736033f7130-child-7"><path class="cls-1" d="M58.44,122V0H90V122Z"/></g></g><g id="_7777a42d-6d1a-4522-b835-9241cccd60f6" data-name="7777a42d-6d1a-4522-b835-9241cccd60f6"><g id="_7777a42d-6d1a-4522-b835-9241cccd60f6-child-0" data-name="7777a42d-6d1a-4522-b835-9241cccd60f6-child-0"><path class="cls-1" d="M194.55,122V0h21.07V122Z"/></g><g id="_7777a42d-6d1a-4522-b835-9241cccd60f6-child-1" data-name="7777a42d-6d1a-4522-b835-9241cccd60f6-child-1"><path class="cls-1" d="M332.09,122V0h21.07V122Z"/></g><g id="_7777a42d-6d1a-4522-b835-9241cccd60f6-child-2" data-name="7777a42d-6d1a-4522-b835-9241cccd60f6-child-2"><path class="cls-1" d="M228.82,122V0h10.53V122Z"/></g><g id="_7777a42d-6d1a-4522-b835-9241cccd60f6-child-3" data-name="7777a42d-6d1a-4522-b835-9241cccd60f6-child-3"><path class="cls-1" d="M294.51,122V0H305V122Z"/></g><g id="_7777a42d-6d1a-4522-b835-9241cccd60f6-child-4" data-name="7777a42d-6d1a-4522-b835-9241cccd60f6-child-4"><path class="cls-1" d="M313,122V0H323.5V122Z"/></g><g id="_7777a42d-6d1a-4522-b835-9241cccd60f6-child-5" data-name="7777a42d-6d1a-4522-b835-9241cccd60f6-child-5"><path class="cls-1" d="M357.79,122V0h10.53V122Z"/></g><g id="_7777a42d-6d1a-4522-b835-9241cccd60f6-child-6" data-name="7777a42d-6d1a-4522-b835-9241cccd60f6-child-6"><path class="cls-1" d="M376.2,122V0h5.33V122Z"/></g><g id="_7777a42d-6d1a-4522-b835-9241cccd60f6-child-7" data-name="7777a42d-6d1a-4522-b835-9241cccd60f6-child-7"><path class="cls-1" d="M253,122V0h31.59V122Z"/></g></g></g></g></svg>