<svg xmlns="http://www.w3.org/2000/svg" viewBox="0 0 52.52 139.03"><defs><style>.cls-1{fill:#bb133e;}</style></defs><title>Asset 132skateboard1</title><g id="Layer_2" data-name="Layer 2"><g id="Layer_1-2" data-name="Layer 1"><g id="_1714ecd1-46d8-4967-9ff7-3803c56eb836" data-name="1714ecd1-46d8-4967-9ff7-3803c56eb836"><g id="_1714ecd1-46d8-4967-9ff7-3803c56eb836-child-0" data-name="1714ecd1-46d8-4967-9ff7-3803c56eb836-child-0"><path class="cls-1" d="M26.26,102.45l5.94,12,13.29,1.93-9.62,9.38L38.14,139l-11.88-6.25L14.37,139l2.27-13.23L7,116.42l13.29-1.93Z"/></g></g><g id="_36985fc8-fa02-46bc-9861-b15cc327ef2e" data-name="36985fc8-fa02-46bc-9861-b15cc327ef2e"><g id="_36985fc8-fa02-46bc-9861-b15cc327ef2e-child-0" data-name="36985fc8-fa02-46bc-9861-b15cc327ef2e-child-0"><path class="cls-1" d="M26.26,44.54,34.37,61l18.15,2.64L39.39,76.42l3.1,18.07L26.26,86,10,94.49l3.1-18.07L0,63.62,18.14,61Z"/></g></g><g id="_76c34b71-99c7-440d-b305-d0f4fbb9b73e" data-name="76c34b71-99c7-440d-b305-d0f4fbb9b73e"><g id="_76c34b71-99c7-440d-b305-d0f4fbb9b73e-child-0" data-name="76c34b71-99c7-440d-b305-d0f4fbb9b73e-child-0"><path class="cls-1" d="M26.21,0l5.95,12L45.44,14l-9.61,9.37L38.1,36.58,26.21,30.33,14.33,36.58,16.6,23.34,7,14,20.27,12Z"/></g></g></g></g></svg>