<svg xmlns="http://www.w3.org/2000/svg" viewBox="0 0 827.62 828.91"><defs><style>.cls-1{fill:#ff2020;}.cls-2{fill:#fff;}</style></defs><title>Asset 6mdpi</title><g id="Layer_2" data-name="Layer 2"><g id="Layer_1-2" data-name="Layer 1"><g id="_8882eb36-6d30-4d9f-b67f-da07ea935973" data-name="8882eb36-6d30-4d9f-b67f-da07ea935973"><g id="_8882eb36-6d30-4d9f-b67f-da07ea935973-child-0" data-name="8882eb36-6d30-4d9f-b67f-da07ea935973-child-0"><path class="cls-1" d="M591.85,239.46c-47.74-46.42-111.16-72-178.6-72s-130.87,25.58-178.6,72S160.42,348,160.42,413.91s26.36,127.88,74.23,174.44,111.16,72,178.6,72,130.86-25.57,178.6-72,74.23-108.53,74.23-174.44S639.72,286,591.85,239.46ZM197,430h78.49c0,.9.08,1.78.13,2.69a339.45,339.45,0,0,0,13.21,77.55H220.4A204.22,204.22,0,0,1,197,430ZM498,312.62a263.79,263.79,0,0,1,19.17,83.83H426V312.62Zm-72-33.53V221.22a194.22,194.22,0,0,1,54.85,57.9Zm-33.53-57.63v57.66H341.23C354.73,255.42,372,236,392.42,221.46Zm0,91.16v83.83H309c1.57-29.54,7.3-58.22,16.7-83.83Zm-117,83.83H197.08a204.61,204.61,0,0,1,26.09-83.83h67.08A321.57,321.57,0,0,0,275.4,396.45Zm33.66,34.37V430h83.4v80.24H324A304.65,304.65,0,0,1,309.06,430.82Zm83.36,112.94v62.7C372.47,593.94,355,574.62,341,549.37c-1-1.83-2-3.71-3-5.61ZM426,605V543.76h58.19C469,569.23,449.21,589.94,426,605Zm0-94.72V430h91.37a260.55,260.55,0,0,1-16.87,80.24ZM550.89,430h78.65a204.37,204.37,0,0,1-23.44,80.24h-70A297.87,297.87,0,0,0,550.89,430Zm-.17-33.54a300.53,300.53,0,0,0-16.84-83.83h69.47a204.61,204.61,0,0,1,26.09,83.83Zm29-117.33H519.33l-.28-.55a236.7,236.7,0,0,0-53.52-69A218.33,218.33,0,0,1,579.72,279.12ZM351.11,212.18c-19.2,18.29-35.28,40.85-47.65,66.94H246.78A218.13,218.13,0,0,1,351.11,212.18ZM242.57,543.76H300.9q4.92,11.31,10.73,21.82c10.7,19.4,23.33,36,37.57,49.51a217.93,217.93,0,0,1-106.59-71.33Zm221.31,74.88a223.91,223.91,0,0,0,52.89-64.41q2.85-5.16,5.47-10.44h61.57a218.09,218.09,0,0,1-119.88,74.85Z"/></g></g><g id="_12b2c0eb-12c8-43a9-8fbb-5820ccd50c4c" data-name="12b2c0eb-12c8-43a9-8fbb-5820ccd50c4c"><g id="_62c3f681-957a-470f-a16b-82794b0f415d" data-name="62c3f681-957a-470f-a16b-82794b0f415d"><path class="cls-2" d="M364.58,790.57l-14.51-1.49,4.49-11.17,9,1-2.73-30.29,19.36-15.94,20.42,16-9.25,10.59-16.23-13.66L378,780.5,391.9,782l-5.8,10.83-7.06-.76,1.7,20.72-6.24,1.7c7,1,13.85,1.69,19,2.18L387,828.91a313.37,313.37,0,0,1-41.23-5.67l2.63-13c5.15,1.2,11.66,2.29,18.25,3.25Zm-67.83-60.52,10.08,8.49-2.52,32.37,10.06-1.26,5.52-18.46L316,748l8.85-9.51,11.69,9L319.69,804l5.23,5.3-10.72,9.29L302.12,806l-17.49,3.53-7.37-34.13,13.23-2.47,1.9-28.95-4.78-4.36Zm15.88,45.43-19.74,3,4.9,22.72,7.54-1.3ZM253,710.09l22.53,22.14-26.09,51.5-22.07,2.44-13.54-12.25,8.57-8.94,13.77,13.08,8.37-16.36-18-9,7.86-9.23,15.33,8,8.85-17.32-17.28-16.64Zm-42.46-27.56,18.94,25.28-33.55,47-22.19-.91L162.2,739.73l9.83-7.54,11.65,15,10.72-14.91L178,720.65l9.16-7.93,14,10.2,11.36-15.79L197.9,688.07Zm-75.77,39.88-18.92-34.72,38.81-39.92,23,5.87,15.13,23.27-7.44,2L150.77,714.3l-6.83-3.7,5.57,10.61Zm30.93-64.8-32.33,32.91,7.25,13.84,32.16-32.73,2.74,1.5ZM139.84,609,146,632.62,96.64,667.87l-21-11.94L68.7,631.19,118,596.45Zm-13.65-.45L84.27,638.13l4.57,17.3,42.31-29.73ZM91,512.75l1.09,13.9-55,22.63-.88,7.85,6.31,4.31,57.65-23.88,5.57,13.34L47.65,575.18l-1.22,7,6.89,5,57.58-24,5.62,13.46-57.38,24-1.33,6.94-13.9-1.89,2-16.51L33.15,580,35,563.74l-12.26-8.61,1.82-16.23,53-22,0-4.88ZM78.13,430.54l-2.07,40.19-12.44-5.2-51.24,4.82L1.09,457.46l.25-13.64L14,447.64l-1.57,7.92,46.73-4.13,4.6,8.62,1-34.35Zm1.05-25.1L76,417.3,63,412.25l3.37-10.76-49.89-1.83-2.72-9.07c-.9,8.29-.87,10.92-.76,21L0,409a221.28,221.28,0,0,1,1.12-25.13l12.12,1.18L63.06,387Zm7.2-64.14L71.27,369.05,14.59,358.1,6.18,337.55l8.06-16.39,11,5.8L16.4,343.78l18,3.55,3.75-19.73,11,5-3.46,16.93,19.09,3.74,11.25-21.18Zm13.25-42.94-17.89,22L75,307.7l16.14-20-23.49-8.77-4,4.54,6.08,9.65L56.86,306.54l-30-11L24.4,272.28l14.28-19.37,8.26,10.44-14.08,19,21.28,7.76,4-4.17-6.45-10.53,11.6-12.94,35,12.77Zm10.06-108,8.38-11.94,7.56,9.37-5.25,7.41,27.77,12.39,4.47,24.68-23.91,10L124,229l19.84-7.51L111.92,207l-8.07,11.38L97.22,208l4.11-5.8-18.92-8.63L84,187.3c-4.27,5.67-8.23,11.26-11.18,15.53L65.3,191.16a312.26,312.26,0,0,1,25.06-33.23l10.1,8.66c-3.56,3.91-7.69,9.06-11.74,14.34Zm85.9-29.78-12.32,4.68-27.06-18-3.79,9.41,13.45,13.79,4.64-1.84,4,12.36L161,186.83l-41.15-42.21-7.17,2-2.91-13.88,16.86-4.45,5.42-17,33.4,10.16-4.28,12.76L185.55,150l6.13-2.06Zm-47.41-8.22,6.94-18.73-22.23-6.77L130.36,134Zm86.13-20.4-30.29,9L171.62,93.1l8.56-20.48,17.28-5.91,3.67,11.83L183,84.25l10.25,15.24,16.6-11.33,4.26,11.34L199.71,109l10.86,16.13,22.93-7ZM279,108.12l-31.3,4.31L222.86,60.31l11.56-19,18-3.24,1.84,12.26-18.77,2.91,7.84,16.61,18.11-8.7L263.91,73,248.23,80.3l8.31,17.58,23.73-3.51Zm1.93-85.61,39.54.36,16,53.32L320.14,93.46l-27.69,1.91,1.9-7.47L280.23,40.43l6.56-4.17-12-.29ZM322.5,81.06l-13-44.26-15.62-.4,13,44-2.65,1.66Zm55,1.13L353.91,76,347.2,15.74,367.87,3.22l25,6,6.28,60ZM384.6,70.5l-5.41-51L361.86,15l5.31,51.44ZM485.47,86.31l-12.69-5.79,6.91-59.06-6.44-4.58-6.83,3.42-7.1,62L445,80.69l7-62.59-5.56-4.48-7.74,3.58-6.92,62-14.5-1.62,6.84-61.83-5.43-4.53L427,0,440.5,9.74l14.26-6.65,13.3,9.54,13.47-6.55,13.31,9.47-6.48,57,4.24,2.4Zm78.12,28.61L529.47,93.59l10.58-8.35,20.67-47.13,16.75-3.62,11.8,6.85-9.48,9.2-6.16-5.23L554.56,88.17,544.78,88l29.55,17.56ZM584.94,128l-8.82-8.53,10.78-8.94,7.75,8.18,25.92-42.66,9.24,2.05c-6.8-4.83-9.11-6.09-17.95-10.9l8.55-10.07a220.27,220.27,0,0,1,21.4,13.21l-6.93,10-26,42.55Zm52.48,37.57-16.86-26.72,37.2-44.15,22,2.67,10.38,15-10.39,6.74-10.41-15.87-11.89,14,15.41,12.89-9.76,7.18L650,126.07l-12.57,14.84,13,20.16Zm31.13,32.51L658,171.79l14.33.21L682,195.83l19.08-16.28-2-5.68-11.39.63-5.49-17.76,24.17-20.87L727.88,145l10,21.9L724.75,169,715,147.52l-17.12,14.83,1.68,5.57,12.33-.52,5.68,16.42-28.15,24.39Zm89.65,61.2,6.38,13.12-11.86,2.07-3.93-8.18-24.3,18.27-23.75-8.05,2.82-25.77L717.43,253l-3,21,28.18-20.85-6-12.57,12.26-.79,3.08,6.41,16.71-12.37,4.74,4.41c-2.9-6.49-5.86-12.66-8.18-17.31l13.85-.9a315.09,315.09,0,0,1,16.92,38l-12.47,4.64c-1.7-5-4.2-11.12-6.86-17.22Zm-15.72,89.54,1.91-13,28.85-14.91L766.86,313l-18.6,5-.64,4.95-12.75-2.52,1.47-14.65,56.9-15.4,1.75-7.24,13.54,4.22-4.32,16.88,12.22,13L791.3,341.53l-9.07-9.95-25.62,13.63-1.19,6.36Zm30.25-37.43,13,15.19,16.73-16.13-5.07-5.73Zm-24.17,85.14,6.94-30.82,57.52-5,13.71,17.47-3.27,18-12.12-2.56,3.85-18.6-18.31,1.51,1.8,20-12-1.82-1.29-17.23L766,379.12l-5,23.45Zm-1,50.69,11.45-29.45,57.61,3.63,11,19.31L821.72,458l-11.6-4.35,6.57-17.82-18.33-1.21-1.19,20.05-11.58-3.57,1.28-17.23-19.41-1.29L759,455Zm73.92,43.24L802,524.88,747.64,513l-7.18-22.66,11.76-25.14,5.6,5.28,48.37,10.67.47,7.76,6.06-10.34Zm-71.36,8,45,10.07,7.92-13.47-44.79-10-.17-3.12ZM722.47,546l16.91-17.65,55.93,23.38.9,24.15-17.38,18.91L723.35,571.2Zm6.81,11.85,47.25,20,12.3-13L741.28,544.6Zm-62.93,80.3,11.25-8.25,48.18,34.85,7.14-3.39.34-7.63-50.65-36.44L691,605.54l51.23,36.64,6.63-2.67.65-8.51-50.76-36.29,8.49-11.87L757.9,619l6.59-2.52,5.72,12.82-15.08,7L754,652l-14.8,6.95-.87,15-14.75,7L677,647.42,672.8,650Zm-63,54.47,35.19-19.5,2.18,13.31,31.19,40.93-5,16.4-11.71,7L651.76,738l7.56-2.85-28.23-37.47,4.88-8.47-29.69,17.32ZM581.5,705l11.73-3.58,2.6,13.76L584.92,718l24.77,43.35-6.28,7.09c7.52-3.6,9.74-5,18.23-10.43l4.67,12.37a224.09,224.09,0,0,1-21.93,12.32L599,771.75,574.35,728.4Zm-58.27,27.67,31.55-1.78,20.53,54-13,18-18.17,1.78-.85-12.36,18.93-1.39-6.47-17.2L537,780.85l-1.54-12,16.22-6-6.87-18.2-23.94,1.59ZM479.75,744l28.09,3.64L500.67,760l-25.5-3.19,4.92,24.59,6,1,5-10.25L509.23,776l6.44,31.28L497.2,821.68l-24-1.94,4.53-12.51,23.55,2L496.67,787,491,785.78l-5.56,11-17.1-3-7.58-36.47Z"/></g></g></g></g></svg>