<svg xmlns="http://www.w3.org/2000/svg" viewBox="0 0 30.66 59.93"><defs><style>.cls-1{fill:#ffeb9a;}</style></defs><title>Asset 18galore</title><g id="Layer_2" data-name="Layer 2"><g id="Layer_1-2" data-name="Layer 1"><path class="cls-1" d="M30.66,38.11c-.53-.71-.84-1.16-1.19-1.56-1.27-1.43-2.61-2.78-3.83-4.26a13.85,13.85,0,0,1-2.94-7.57A54.08,54.08,0,0,1,23.89,7.46c.44-2,1.08-4,1.63-6.07.14-.47.42-1-.36-1.39-.29.71-.62,1.38-.84,2.09C21.64,10.59,17.42,18,10.7,23.43a45.22,45.22,0,0,1-5.89,3.91,17.52,17.52,0,0,1-3.67,1.34c-.72.23-.73.17-1.14,1.11,4.76,2.76,6.92,7.4,7.25,13.32a45,45,0,0,1-.57,9.25c-.3,2-.69,4-1,6-.08.46-.06.92-.11,1.54,1.05-.38,1.09-1.21,1.28-1.86a58.41,58.41,0,0,1,3.91-9.77,17.52,17.52,0,0,1,3.94-5.36,11.27,11.27,0,0,1,5.16-2.71c2.92-.59,5.85-1.09,8.77-1.64.57-.1,1.14-.28,2-.5Z"/></g></g></svg>