<svg xmlns="http://www.w3.org/2000/svg" viewBox="0 0 1757.18 424.18"><defs><style>.cls-1{stroke:#fff;stroke-linecap:round;stroke-miterlimit:10;stroke-width:13.18px;}.cls-2{fill:#fff;}</style></defs><title>Asset 19mdpi</title><g id="Layer_2" data-name="Layer 2"><g id="Layer_1-2" data-name="Layer 1"><g id="a7e72e79-6161-45f2-8b14-e44516e7167f"><g id="a7e72e79-6161-45f2-8b14-e44516e7167f-child-0"><path class="cls-1" d="M6.59,417.59V6.59h409v411Z"/></g></g><g id="d61c0451-ce72-44eb-b084-7e08599442ac"><g id="d61c0451-ce72-44eb-b084-7e08599442ac-child-0"><path class="cls-1" d="M415.59,416.59V6.59h1335v410Z"/></g></g><g id="_14782dd6-27ed-4fe7-b26d-de41c21f0548" data-name="14782dd6-27ed-4fe7-b26d-de41c21f0548"><g id="_14782dd6-27ed-4fe7-b26d-de41c21f0548-child-0" data-name="14782dd6-27ed-4fe7-b26d-de41c21f0548-child-0"><path class="cls-1" d="M415.59,416.59v-204h1335v204Z"/></g></g><g id="_2edf6248-6b22-404d-bf21-862e13ed5809" data-name="2edf6248-6b22-404d-bf21-862e13ed5809"><g id="_18ea11a6-ff49-408e-a885-8dc7cf02dce0" data-name="18ea11a6-ff49-408e-a885-8dc7cf02dce0"><path class="cls-2" d="M563.09,97.12c0,12.56-4.63,18.5-15.12,20,10,1.07,15.12,5.55,15.12,15.3v18.7h-21V133.42c0-8.45-1.08-9.33-11.74-9.33H515.09v27h-20v-76h43C558.09,75.09,563.09,79.48,563.09,97.12Zm-29.32,12c9.14,0,10.11-.87,10.11-8.65,0-7.48-1-8.35-10.11-8.35H516.09v17Zm152.32-34v18h-42v12h38v16h-38v13h42v17h-62v-76Zm108.79,55c0-4.41-3.83-6.28-18.22-9.11-25-5-31.26-9.7-31.26-23.91,0-18.32,7.26-22.92,35.17-22.92,28.12,0,35.37,5.58,35.37,27.92H794.38c0-10.19-1.46-11.27-13.81-11.27-12.15,0-13.62.69-13.62,6.46,0,4,2.85,5.5,13.23,7.65,28.61,5.59,36.25,10.87,36.25,26.26,0,17.43-7.35,21.74-35.86,21.74-29.29,0-36.84-5.38-36.84-26.84h21.56c0,9.21,1.57,10.19,14.69,10.19,13.33,0,14.9-.59,14.9-6.17Zm99.21-37h-23v-17h67v17h-24v58h-20Zm169,4c0,12.56-4.63,18.5-15.12,20,10,1.07,15.12,5.55,15.12,15.3v18.7h-21V133.42c0-8.45-1.08-9.33-11.74-9.33h-15.26v27h-20v-76h43C1058.09,75.09,1063.09,79.48,1063.09,97.12Zm-29.31,12c9.14,0,10.11-.87,10.11-8.65,0-7.48-1-8.35-10.11-8.35h-17.69v17Zm90.31-34h20v76h-20Zm118.72,78.3c-31.89,0-39.9-8-39.9-40.2s8-40.2,39.9-40.2,39.8,6.81,39.6,34.1h-22c.2-15.4-1.6-17.1-17.6-17.1s-17.9,2.3-17.9,23.2,1.8,23.2,17.9,23.2,17.8-1.7,17.6-17.3h22C1282.61,146.49,1274.71,153.39,1242.81,153.39Zm117.28-60.3h-24v-17h67v17h-23v58h-20Zm162-18v18h-42l1,12h37v16h-37v13h42v17h-63v-76Zm82,38.17-1,20.83h17c13.75-.5,15.3-2.53,15.3-20.83s-1.55-20.34-15.3-20.17h-16Zm-21-38.17h39.26c27.78,0,34.69,7.61,34.69,38s-6.91,38-34.69,38h-39.26Z"/></g></g><g id="b9ce2d17-9455-4e5d-b52d-8d356a33db1b"><g id="d8a4d035-5cca-46c4-b26f-1db505cf1d00"><path class="cls-2" d="M520.09,300.09c-13.62,0-17-3.25-17-16.35V261.09h10v22.65c0,7.19.67,8,6.5,8s6.5-.79,6.5-8V261.09h11v22.65c0,13.1-3.39,16.35-17,16.35Zm24-39h10.29l16.43,21h.28v-21h10v38h-9.72l-17-21h-.3v21h-10Zm56,19.15-1,10.85h9.2c7-.51,7.78-1.55,7.78-10.85s-.79-10.34-7.78-10.15h-8.2Zm-11-19.15h19.63c13.89,0,17.34,3.81,17.34,19s-3.45,19-17.34,19H589.09Zm76,0v9h-21v6h19v8h-19v6h21v9h-32v-38Zm43,11.3c0,6.45-2.38,9.5-7.78,10.26,5.15.54,7.78,2.84,7.78,7.85v9.59h-11v-9.16c0-4.38-.56-4.84-6.09-4.84h-7.91v14h-10v-39H695.2C705.51,261.09,708.09,263.34,708.09,272.39Zm-15.63,5.7c4.84,0,5.35-.46,5.35-4.58,0-4-.51-4.42-5.35-4.42h-9.37v9Zm48.63-4h-10v-7h4.55c4.35,0,5.45-.94,5.45-6h9v39h-9Zm47-13v7.57L774,299.09H763l13.42-29-12.31,0v6h-8v-15Zm59,11.3c0,6.45-2.38,9.5-7.78,10.26,5.15.54,7.78,2.84,7.78,7.85v9.59h-11v-9.16c0-4.38-.56-4.84-6.09-4.84h-7.91v14h-10v-39H834.2C844.51,261.09,847.09,263.34,847.09,272.39Zm-15.63,5.7c4.84,0,5.35-.46,5.35-4.58,0-4-.51-4.42-5.35-4.42h-9.37v9Zm54.63-17v9h-22v6h19v8h-19v6h21v9h-31v-38Zm35,19.17c0-10.29-.94-11.43-9.16-11.43s-9.16,1.14-9.16,11.43c0,9.75.89,10.83,8.76,10.83h1.87c6.9,0,7.69-1.08,7.69-10.83Zm-8.51-18.44c15.29,0,19.11,3.76,19.11,18.92,0,6.16-2.22,9.4-7.26,10.35h8.66v8H912.58c-15.3,0-19.11-3.67-19.11-18.35,0-15.16,3.81-18.92,19.11-18.92Zm44.51,38.27c-13.62,0-17-3.25-17-16.35V261.09h10v22.65c0,7.19.66,8,6.5,8s6.5-.79,6.5-8V261.09h11v22.65c0,13.1-3.39,16.35-17,16.35Zm24-39h10v38h-10Zm53,11.3c0,6.45-2.38,9.5-7.78,10.26,5.15.54,7.78,2.84,7.78,7.85v9.59h-10v-9.16c0-4.38-.56-4.84-6.09-4.84h-7.91v14h-11v-39h22.11C1031.51,261.09,1034.09,263.34,1034.09,272.39Zm-14.63,5.7c4.84,0,5.35-.46,5.35-4.58,0-4-.51-4.42-5.35-4.42h-9.37v9Zm53.63-17v9h-21v6h19v8h-19v6h21v9h-32v-38Zm31.72,27c0-2.21-1.91-3.13-9.12-4.56-12.49-2.49-15.63-4.84-15.63-12,0-9.16,3.63-11.47,17.59-11.47s17.69,2.8,17.69,14h-10.78c0-5.09-.74-5.64-6.91-5.64s-6.8.35-6.8,3.23c0,2,1.41,2.75,6.6,3.82,14.31,2.8,18.13,5.45,18.13,13.14,0,8.71-3.67,10.87-17.93,10.87-14.64,0-18.41-2.69-18.41-13.42H1090c0,4.61.79,5.1,7.35,5.1s7.45-.29,7.45-3.09Zm75.14,11h-12.21l-1.93-7H1152l-2.17,7H1138.3l12.52-38h17Zm-16.28-16-4.52-14h-.29l-4.62,14Zm40.83,17.15c-15.94,0-19.94-4-19.94-20.09s4-20.1,19.94-20.1,19.89,3.4,19.79,17h-11c.1-7.69-.81-8.55-8.8-8.55s-9,1.16-9,11.61.9,11.59,9,11.59,8.9-.85,8.8-8.65h11c.1,13.7-3.85,17.15-19.79,17.15Zm45.06,0c-16,0-20-4-20-20.09s4-20.1,20-20.1,19.88,3.4,19.78,17h-11c.1-7.69-.8-8.55-8.79-8.55s-9,1.16-9,11.61.9,11.59,9,11.59,8.89-.85,8.79-8.65h11c.1,13.7-3.85,17.15-19.78,17.15Zm36.23-20c0,10.29.88,11.42,9.1,11.42s9.11-1.13,9.11-11.42-.88-11.43-9.11-11.43S1285.79,270,1285.79,280.24Zm9.1-19.8c16,0,19.95,3.94,19.95,19.8s-4,19.79-19.95,19.79S1275,296.09,1275,280.24,1278.94,260.44,1294.89,260.44Zm27.2,39.65v-39h18.77l5.78,29h.39l5.83-29h18.23v39h-11v-29h-1l-5.61,29h-15.49l-5.57-29h-.28v29Zm79.14-39a12.8,12.8,0,0,1,12.82,12.7c0,10.15-2.31,12.8-12,13.3h-13v13h-10v-39Zm-2.77,17c4.84,0,5.35-.41,5.35-4.32,0-4.22-.51-4.68-5.35-4.68h-9.37v9Zm58.35,21h-12.2l-1.94-7h-13.82l-2.17,7h-11.52l12.52-38h17Zm-16.28-16-4.52-14h-.29l-4.62,14Zm21.56-22h10.29l16.43,21h.28v-21h10v38h-9.72l-17-21h-.3v21h-10Zm68.91,23h-1.91v15h-10v-14h-1.85l-12.1-24h11.68l7.27,16h.31l7.07-16h10.74Zm17.09-23h10v38h-10Zm18,0h10.29l16.43,21h.28v-21h10v38h-9.72l-17-21h-.3v21h-10Zm83,18v20h-9v-5.46c-1.23,4.66-4.37,6.73-9.93,6.73-15.49,0-19.37-3.93-19.37-19.76s3.88-19.77,19.37-19.77,19.36,2.86,19.27,14.26h-10.82c.1-5.3-.74-5.9-8.45-5.9s-8.55,1.14-8.55,11.41.83,11.4,8.55,11.4c5.9,0,8.55-1.48,8.75-4.91h-7.82v-8Zm-1005.86,51a12.79,12.79,0,0,1,12.82,12.69c0,10.15-2.31,12.8-12,13.31h-13v13h-10v-39Zm-1.77,17c4.84,0,5.35-.41,5.35-4.32,0-4.22-.51-4.68-5.35-4.68h-9.37v9Zm58.24,21H687.48l-1.93-7H671.73l-2.17,7H658l12.53-38h17Zm-16.29-16-4.52-14h-.29l-4.62,14Zm56.68-10.71c0,6.46-2.39,9.51-7.78,10.26,5.15.55,7.78,2.85,7.78,7.85v9.6h-10v-9.16c0-4.38-.56-4.84-6.09-4.84h-7.91v14h-11v-39H727.2c10.31,0,12.89,2.24,12.89,11.29Zm-14.63,5.71c4.84,0,5.36-.46,5.36-4.58,0-4-.52-4.42-5.36-4.42h-9.37v9Zm53.63-17v9h-21v6h19v8h-19v6h21v9h-32v-38Zm8,0h10.29l16.42,21h.29v-21h10v38h-9.72l-17-21h-.29v21h-10Zm55,9h-12v-9h34v9h-12v30h-10ZM897,349.17c0,10.29.88,11.42,9.11,11.42s9.11-1.13,9.11-11.42-.89-11.42-9.11-11.42S897,338.88,897,349.17Zm9.11-19.79c16,0,19.94,3.94,19.94,19.79s-4,19.79-19.94,19.79-19.94-3.94-19.94-19.79S890.16,329.38,906.12,329.38Zm62,12c0,6.46-2.38,9.51-7.78,10.26,5.15.55,7.78,2.85,7.78,7.85v9.6h-11v-9.16c0-4.38-.56-4.84-6.09-4.84h-7.91v14h-10v-39H955.2c10.31,0,12.89,2.24,12.89,11.29Zm-15.63,5.71c4.84,0,5.35-.46,5.35-4.58,0-4-.51-4.42-5.35-4.42h-9.37v9Zm80,21h-12.22l-1.94-7h-13.82l-2.16,7H990.83l12.52-38h17Zm-16.3-16-4.52-14h-.28l-4.62,14Zm32.89-2.92-1,10.92h9.05c7-.58,7.78-1.61,7.78-10.92s-.79-10.34-7.78-10.08h-8.05Zm-11-19.08h19.63c13.89,0,17.35,3.8,17.35,19s-3.46,19-17.35,19h-19.63Zm61,39c-13.62,0-17-3.25-17-16.34V330.09h11v22.65c0,7.18.67,8,6.51,8s6.49-.79,6.49-8V330.09h10v22.65c0,13.09-3.39,16.34-17,16.34Zm35-39v29h19v9h-29v-38Zm34,9h-12v-9h34v9h-12v30h-10Zm83,9v20h-9v-5.45c-1.23,4.66-4.39,6.73-9.94,6.73-15.5,0-19.39-3.94-19.39-19.77s3.89-19.78,19.39-19.78,19.38,2.85,19.28,14.27h-10.82c.1-5.32-.74-5.9-8.46-5.9s-8.56,1.12-8.56,11.41.84,11.41,8.56,11.41c5.9,0,8.56-1.47,8.75-4.92h-7.81v-8Zm24,21c-13.61,0-17-3.25-17-16.34V330.09h11v22.65c0,7.18.67,8,6.5,8s6.5-.79,6.5-8V330.09h10v22.65c0,13.09-3.39,16.34-17,16.34Zm63.12-1H1326l-1.94-7h-13.82l-2.16,7h-11.53l12.53-38h17Zm-16.3-16-4.51-14h-.29l-4.62,14Zm57.18-10.71c0,6.46-2.38,9.51-7.78,10.26,5.15.55,7.78,2.85,7.78,7.85v9.6h-11v-9.16c0-4.38-.56-4.84-6.09-4.84h-7.91v14h-10v-39h22.11c10.31,0,12.89,2.24,12.89,11.29Zm-15.63,5.71c4.84,0,5.35-.46,5.35-4.58,0-4-.51-4.42-5.35-4.42h-9.37v9Zm33.63,2.08-1,10.92H1405c7-.58,7.78-1.61,7.78-10.92s-.79-10.34-7.78-10.08h-7.91Zm-11-19.08h19.63c13.89,0,17.35,3.8,17.35,19s-3.46,19-17.35,19h-19.63Zm45,0h10v38h-10Zm56.8,38h-12.22l-1.93-7h-13.83l-2.16,7h-11.53l12.53-38h17Zm-16.29-16-4.52-14h-.29l-4.62,14Zm21.49-22h10.29l16.43,21h.28v-21h10v38h-9.72l-17-21h-.3v21h-10Z"/></g></g><g id="_08e46045-be12-45bb-84e0-53d4f569e97f" data-name="08e46045-be12-45bb-84e0-53d4f569e97f"><g id="_08e46045-be12-45bb-84e0-53d4f569e97f-child-0" data-name="08e46045-be12-45bb-84e0-53d4f569e97f-child-0"><path class="cls-2" d="M327.11,99.93C296.17,70.1,255.06,53.67,211.36,53.67S126.53,70.1,95.6,99.93,47.49,169.64,47.49,212,64.58,294.13,95.6,324.05s72.05,46.25,115.76,46.25,84.81-16.42,115.75-46.25S375.22,254.33,375.22,212,358.13,129.84,327.11,99.93ZM70.9,222.09h51.32c0,.58.06,1.16.09,1.75A218.3,218.3,0,0,0,131,274.09H86.24A131.43,131.43,0,0,1,70.9,222.09Zm196-75a168.41,168.41,0,0,1,12.46,54H220.09v-54Zm-47.79-22V87.9a125.18,125.18,0,0,1,35.55,37.19Zm-21-37v37H164.91A114.77,114.77,0,0,1,198.09,88.05Zm0,59v54h-54.2a185.53,185.53,0,0,1,10.86-54Zm-76,54H71.17a130.9,130.9,0,0,1,17-54h43.59A205.93,205.93,0,0,0,122.07,201.09Zm22,21h54v52H153.78a197.85,197.85,0,0,1-9.72-52Zm54,73v40.28c-12.93-8.05-24.27-20.46-33.31-36.67-.68-1.18-1.3-2.39-1.93-3.61Zm22,39.3v-39.3H257.8A118.7,118.7,0,0,1,220.09,334.39Zm0-60.3v-52h59.74a167.53,167.53,0,0,1-11,52Zm80.29-52h51.43a131.58,131.58,0,0,1-15.33,52H290.72A191.61,191.61,0,0,0,300.38,222.09Zm0-21a191.82,191.82,0,0,0-10.95-54H334.6a130.9,130.9,0,0,1,17,54Zm18.85-76H280.11c-.07-.12-.12-.24-.18-.35a152.4,152.4,0,0,0-34.69-44.31A141.74,141.74,0,0,1,319.25,125.09Zm-148.17-43a144.6,144.6,0,0,0-30.88,43H103.46A141.54,141.54,0,0,1,171.08,82.09Zm-70.34,213h37.8q3.18,7.26,7,14a130.62,130.62,0,0,0,24.35,31.8,141.37,141.37,0,0,1-69.08-45.82Zm143.5,48a143.92,143.92,0,0,0,34.22-41.31q1.85-3.3,3.54-6.69h39.84a141.31,141.31,0,0,1-77.58,48Z"/></g></g></g></g></svg>