<svg xmlns="http://www.w3.org/2000/svg" viewBox="0 0 234.69 633.78"><defs><style>.cls-1{fill:#fff;}</style></defs><title>Asset 16mdpi</title><g id="Layer_2" data-name="Layer 2"><g id="Layer_1-2" data-name="Layer 1"><g id="_07c1afd6-5564-4560-9971-d545d6103175" data-name="07c1afd6-5564-4560-9971-d545d6103175"><g id="_07c1afd6-5564-4560-9971-d545d6103175-child-0" data-name="07c1afd6-5564-4560-9971-d545d6103175-child-0"><path class="cls-1" d="M102,0C77.24,0,54.1,16.35,34.34,44.71,49.47,28.56,66.21,19.57,83.83,19.55c67.92-.1,123.17,133,123.4,297.19S152.58,614.19,84.66,614.28c-17.62,0-34.39-8.91-49.56-25,19.84,28.3,43,44.55,67.77,44.52,73-.1,132.06-142.06,131.82-317.07S175-.1,102,0Z"/></g></g><g id="_7f56c239-5257-4bdf-9921-ae9dd3be8d85" data-name="7f56c239-5257-4bdf-9921-ae9dd3be8d85"><g id="_83dffe55-5845-46b9-bac4-a37042b255ee" data-name="83dffe55-5845-46b9-bac4-a37042b255ee"><path class="cls-1" d="M130.21,547.68H106.76L59.1,490.9C50.1,480,46,477.41,39,477.41c-9.83,0-11.14,1.81-11.14,18.59,0,14.81,1.8,16.46,16.38,16.46v36.2C8.84,548.66,0,536.81,0,495.84c0-42.62,6.55-53,32.75-52,18.33.49,25.54-1.65,37,11.68l30.46,35.71V441.68h30ZM66.2,394c35.88,0,39.82-2,39.82-20.41s-3.94-20.4-39.82-20.4-39.82,2-39.82,20.4S30.33,394,66.2,394ZM.05,373.63C.05,328.38,13.21,317,66.2,317s66.15,11.35,66.15,56.6-13.16,56.61-66.15,56.61S.05,418.89.05,373.63ZM.12,251.42c0-44.43,13.33-55.62,67-55.95,51.68,0,64.68,11.19,64.68,56.12,0,41.47-6.92,51.84-34.56,51.84V267.22c9.54,0,10.53-1.81,10.53-17.77s-1.32-17.77-13.16-17.77H71c10.7,3,15.47,11.68,15.47,27.64,0,38.35-8.23,47.89-41.14,47.89C9.17,307.21.12,296,.12,251.42Zm58.35-.33c0-13.82-4.45-19.74-14.65-19.74-15.63,0-17.44,2-17.44,19.74,0,17.61,1.81,19.59,17.93,19.59h.17c12.67,0,14-2,14-19.59ZM.12,129.42c0-44.43,13.33-55.62,67-55.95,51.68,0,64.68,11.19,64.68,56.12,0,41.47-6.92,51.83-34.56,51.83v-36.2c9.54,0,10.53-1.81,10.53-17.77s-1.32-17.77-13.16-17.77H71c10.7,3,15.47,11.68,15.47,27.64,0,38.35-8.23,47.89-41.14,47.89C9.17,185.21.12,174,.12,129.42Zm58.35.67c0-13.82-4.45-19.74-14.65-19.74-15.63,0-17.44,2-17.44,19.74,0,17.61,1.81,19.59,17.93,19.59h.17c12.67,0,14-2,14-19.59Z"/></g></g></g></g></svg>