<svg xmlns="http://www.w3.org/2000/svg" viewBox="0 0 733.05 724.83"><defs><style>.cls-1{fill:#fff;}</style></defs><title>Asset 20mdpi</title><g id="Layer_2" data-name="Layer 2"><g id="Layer_1-2" data-name="Layer 1"><g id="_6e6cbdbe-ec85-4962-8687-65a55b49c2e9" data-name="6e6cbdbe-ec85-4962-8687-65a55b49c2e9"><g id="_6e6cbdbe-ec85-4962-8687-65a55b49c2e9-child-0" data-name="6e6cbdbe-ec85-4962-8687-65a55b49c2e9-child-0"><path d="M624.63,370c0,143.61-116.41,260-260,260s-260-116.41-260-260S221,110,364.61,110,624.63,226.41,624.63,370Z"/></g><g id="_6e6cbdbe-ec85-4962-8687-65a55b49c2e9-child-1" data-name="6e6cbdbe-ec85-4962-8687-65a55b49c2e9-child-1"><path class="cls-1" d="M364.61,104.45C218.17,104.45,99,223.58,99,370S218.17,635.58,364.61,635.58,630.18,516.45,630.18,370,511.05,104.45,364.61,104.45Zm0,516.33c-138.27,0-250.76-112.49-250.76-250.77S226.34,119.25,364.61,119.25,615.38,231.74,615.38,370,502.89,620.78,364.61,620.78Zm0-483.54c-128.35,0-232.76,104.42-232.76,232.77S236.26,602.78,364.61,602.78,597.39,498.36,597.39,370,493,137.24,364.61,137.24ZM469.43,370c0,12.36-.44,24.26-1.24,35.65-30.95-5.61-66.51-8.72-104.36-8.72-37.22,0-72.23,3-102.82,8.43-.77-11.3-1.21-23.07-1.21-35.36a483,483,0,0,1,3.62-60.34,671.79,671.79,0,0,1,202.45,0A484.81,484.81,0,0,1,469.43,370Zm-2.58,51.16c-3.71,35.7-11.28,65.9-21.34,90.41C422,506.71,394.28,504,364.61,504s-57.37,2.74-80.9,7.61C273.63,487,266,456.76,262.33,420.94c28.87-5.29,63.09-8.5,101.5-8.5C402.91,412.37,437.68,415.72,466.85,421.17ZM364.61,286.56a676.24,676.24,0,0,0-98.8,6.95c5.69-33.91,15.07-62,26.72-83.88a582.18,582.18,0,0,1,144.17,0c11.64,21.9,21,50,26.72,83.88A676.47,676.47,0,0,0,364.61,286.56ZM188.52,242.85c15.11-12,44.71-23.27,85.16-30.37-10.64,22.82-19,50.77-24,83.67-42.66,7.72-77.27,19.76-98.84,34.77A216.2,216.2,0,0,1,188.52,242.85Zm267-30.37c40.48,7.06,70.08,18.4,85.19,30.37a216.34,216.34,0,0,1,37.66,88.09c-21.55-15-56.18-27-98.84-34.77C474.5,263.25,466.16,235.3,455.52,212.48Zm61.1,2.4c-18.78-7.32-42.19-13.13-68.68-17.1-9.07-16-19.37-28.86-30.39-38.56A217.37,217.37,0,0,1,516.62,214.88Zm-88.4-19.63a607.08,607.08,0,0,0-127.14,0c18.6-28.07,41.37-42.57,63.53-42.57S409.55,167.18,428.22,195.25Zm-146.89,2.53c-26.49,3.95-49.9,9.78-68.68,17.09a217.26,217.26,0,0,1,99.07-55.63c-11.07,9.68-21.37,22.54-30.43,38.54ZM147.93,354c14.68-17.56,51.48-32.28,99.6-41.53A510.1,510.1,0,0,0,244.37,370c0,13.35.49,26.11,1.37,38.35-38.83,8.35-69,20.86-85.29,36.2A216.14,216.14,0,0,1,147.32,370C147.28,364.62,147.54,359.28,147.93,354Zm18.89,105.91.23.19c10.56-13.42,38.7-26.92,80-36.13,3.76,35.65,11.25,66.05,21.31,91.18-19.26,5.2-34.73,12-44.82,20A218.46,218.46,0,0,1,166.82,459.89Zm69.28,85.23c8.41-5.78,21.47-11.27,38.52-15.69,10.54,22.05,23.23,39.2,37.09,51.35a216.38,216.38,0,0,1-75.61-35.64Zm54.14-19.18c20.81-4.05,45.89-6.6,74.37-6.6s53.56,2.55,74.37,6.6c-20.15,40.38-47.7,61.45-74.37,61.45S310.4,566.32,290.24,526Zm164.37,3.5c17,4.42,30.13,9.91,38.52,15.69a216.43,216.43,0,0,1-75.59,35.66C431.38,568.65,444.07,551.5,454.61,529.44Zm51,5.75c-10.05-8-25.5-14.83-44.82-20,10-25.06,17.49-55.36,21.26-90.86,40.52,9.2,68.09,22.53,78.52,35.78l2.69-2.11a218.5,218.5,0,0,1-57.65,77.24Zm62.72-89.51c-15.71-15.61-45.84-28.42-84.87-37,.9-12.36,1.39-25.21,1.39-38.69a510.09,510.09,0,0,0-3.15-57.56c48.11,9.27,84.93,24,99.6,41.54.39,5.3.66,10.63.66,16a216.36,216.36,0,0,1-13.63,75.69Z"/></g></g><g id="ed3ccc96-0bca-4084-8574-71f23794c4e0"><g id="_5960df91-5f70-41ea-a155-e0bd967c4636" data-name="5960df91-5f70-41ea-a155-e0bd967c4636"><path class="cls-1" d="M254.93,676l10-5,7.19-19,13.7,5.18-25.18,66.49L247,718.46l11.41-30.13-9.15,6L224,709.76l-16.85-6.38L242,682.78l-10.3-46.14,16.3,6.17Zm-58.38-61.39,12.3,8L170.22,682.2l-12.3-8Zm-106-15.22,15.34,15.46,42-41.72,10.32,10.4-42,41.71,15.13,15.26-8.42,8.35L82.12,607.7ZM38.41,517.06l10.62,19,51.72-28.87L107.89,520,56.17,548.87l10.47,18.76-10.35,5.78L28.06,522.84Zm27.51-66-7.45-30.19,11.43-2.82,11,44.41-69,17L8.33,465.29ZM59,302l-4.43,25.3,13.58,7.34-2.68,15.34L0,311.59l2.35-13.37L77,284.28l-2.69,15.34ZM43.56,321.31l3.07-17.51L18.87,308Zm26.22-84.92L92.2,247.57l-6.54,13.11L22,229l12.38-24.82a32.14,32.14,0,0,1,8.91-11.3A21.66,21.66,0,0,1,55,188.18a23.28,23.28,0,0,1,12.45,2.56q9.34,4.65,11.55,13.75T75.51,224.9ZM59.17,231.1,65,219.39q2.59-5.2,1.5-9.15c-.72-2.64-2.59-4.71-5.62-6.23A11.75,11.75,0,0,0,52,203a11.5,11.5,0,0,0-6.76,6.12l-6,12Zm58.5-70.55,18.48,16.91-9.89,10.81-52.44-48,18.72-20.45a32.09,32.09,0,0,1,11.67-8.42,21.59,21.59,0,0,1,12.45-1.28A23.18,23.18,0,0,1,127.93,116q7.71,7.05,7.33,16.4t-8.92,18.67Zm-8.75-8,8.83-9.65q3.93-4.29,4-8.39T118,127a11.74,11.74,0,0,0-8.31-3.43,11.49,11.49,0,0,0-8.19,4l-9.06,9.91Zm95.51-52.11-21.51,14,3.92,14.93-13,8.52-16.71-74,11.37-7.42,61.15,45-13,8.52Zm-24.68,1.95,14.88-9.71-22-17.4Zm90.81-43.16-11.19,3.32,7.41,24.95-14,4.17L232.52,23.5,257.84,16q12.07-3.59,20.23-.15t11.06,13.27a21.8,21.8,0,0,1,.43,12.53,21.44,21.44,0,0,1-6.94,10.13l23,23.48.19.66-15.08,4.47Zm-14.56-8,11.33-3.36q5.3-1.58,7.4-5.13a10,10,0,0,0,.69-8.28,10.74,10.74,0,0,0-5-6.77q-3.56-1.95-9.23-.27l-11.28,3.35ZM375.08,40.38,347,41l.45,19,33-.78.28,11.77L333,72.19,331.37,1.12,378.92,0l.27,11.86-32.9.77.4,16.94,28.12-.66Zm50.35,25.39,30.32,7L453.11,84.2,408.51,74,424.42,4.67,438.7,8Zm136,56.06a7.51,7.51,0,0,0,1.42-6.87q-1-3.52-5.7-10a75.3,75.3,0,0,1-6.82-11.07q-5.87-12.45.71-21.37a17.22,17.22,0,0,1,8.71-6.35,21.22,21.22,0,0,1,11.7-.14,35.15,35.15,0,0,1,12.49,6,31.89,31.89,0,0,1,9.28,10.28A21.6,21.6,0,0,1,596,94.09a20.44,20.44,0,0,1-4.12,11.15l-11.8-8.7a9.53,9.53,0,0,0,2-7.93q-.87-4-5.35-7.31-4.32-3.19-8.06-3.13a7.16,7.16,0,0,0-6,3Q560.7,84,562.13,88a39.31,39.31,0,0,0,5.65,9.63q7.83,10.45,9.14,18.32a18.6,18.6,0,0,1-3.64,14.55q-5.47,7.42-14.21,7.51t-18.25-6.93a36.27,36.27,0,0,1-10.24-11.29,23.55,23.55,0,0,1-3.39-12.71,21,21,0,0,1,4.34-11.85l11.83,8.72q-7,9.47,4.33,17.81c2.81,2.07,5.41,3.11,7.82,3.13a6.92,6.92,0,0,0,5.88-3ZM593,179.18l-9.62-11.05L637,121.44l9.62,11.05Zm47.76,77.24-6.8-13,28.16-47-41.42,21.75-6.81-13,62.94-33.05,6.81,13-28.22,47.08L697,210.45l6.78,12.93Zm43.81,79.82q-11.42,1.35-19.33-4.91T655,312.79q-2.58-13.43,5-22.85t23.34-12.47l4.26-.82a42.69,42.69,0,0,1,18.43.13,27.18,27.18,0,0,1,13.72,7.88,28.91,28.91,0,0,1,7,14.53q2.32,12.07-2.73,20.71t-16.53,12l-2.77-14.39c4.45-1.22,7.47-3.1,9.09-5.65s2-6,1.15-10.44q-1.38-7.18-7.23-9.77t-16.69-.6l-5.28,1q-11.32,2.17-15.88,6.6c-3,3-4.09,6.9-3.15,11.82q1.29,6.68,5,9.37t10.14,2Zm4.87,78.09,2.25-28-19-1.53-2.64,32.9-11.73-.95,3.81-47.49,70.86,5.69-3.81,47.41-11.82-.95,2.64-32.81-16.89-1.35-2.25,28ZM615.14,529.86,638,486.8l8.54,4.52,10.9,31.79a57.44,57.44,0,0,0,4.7,10.42,14.54,14.54,0,0,0,5.42,5.44,10.9,10.9,0,0,0,7.69,1.37,8.66,8.66,0,0,0,5.6-4.78,9.31,9.31,0,0,0,.62-8.2,13.08,13.08,0,0,0-6.37-6.5l6.63-12.51a23.32,23.32,0,0,1,9,8.29,21.85,21.85,0,0,1,3.35,11.69,26.78,26.78,0,0,1-3.32,12.78q-5.15,9.71-12.64,12.61t-16-1.6a24,24,0,0,1-8.21-7.44q-3.55-5-6.87-14.25l-7.49-22.26-14.31,27Zm-27,77.75q-10.85-10-12.47-19.76T582,569.41q7.88-8.56,17.68-7.89t20.44,10.24l9.63,8.86q11,10.08,12.45,19.86t-6.38,18.32q-7.86,8.55-17.65,7.9t-20.42-10.23Zm20.12-.66q6.5,6,11.11,6.94a8.16,8.16,0,0,0,8.06-2.83,8,8,0,0,0,2.16-8q-1.22-4.34-7.12-10l-12.71-11.7q-6.4-5.88-11.12-7a8.08,8.08,0,0,0-8.25,2.73q-3.49,3.81-2.07,8.24t7.51,10.16ZM503.51,632.56l41-26.37,5.23,8.13-6.08,33.06a56.65,56.65,0,0,0-1,11.39,14.53,14.53,0,0,0,2,7.39,10.83,10.83,0,0,0,6.05,5,8.62,8.62,0,0,0,7.21-1.42,9.33,9.33,0,0,0,4.57-6.85,13.1,13.1,0,0,0-2.38-8.78L572,646.41a23.35,23.35,0,0,1,3.81,11.66A21.86,21.86,0,0,1,573,669.89a26.59,26.59,0,0,1-9.15,9.51q-9.24,6-17.2,4.81T533.51,675A23.94,23.94,0,0,1,530,664.45q-.66-6.08,1-15.78l4.37-23.08-25.7,16.54Zm-56.67,50.09-7.67,2.48-3.5-10.82,7.66-2.49-4.73-14.63L452,652.85l4.74,14.63,27.73-9,3.34,8.26-13.78,53.68-13.56,4.39Zm28.38-9.19-15,4.84L468,702.18l.39-1.82Z"/></g></g></g></g></svg>