<svg xmlns="http://www.w3.org/2000/svg" viewBox="0 0 36.15 70.66"><defs><style>.cls-1{fill:#ffeb9a;}</style></defs><title>Asset 15galore</title><g id="Layer_2" data-name="Layer 2"><g id="Layer_1-2" data-name="Layer 1"><path class="cls-1" d="M0,44.93c.63-.83,1-1.36,1.4-1.84,1.5-1.68,3.08-3.27,4.51-5a16.26,16.26,0,0,0,3.47-8.92A63.83,63.83,0,0,0,8,8.8C7.45,6.39,6.7,4,6.05,1.64,5.89,1.08,5.56.47,6.49,0c.33.83.72,1.63,1,2.46,3.16,10,8.13,18.73,16.07,25.16a53.63,53.63,0,0,0,6.94,4.62,21.67,21.67,0,0,0,4.32,1.58c.85.27.86.2,1.35,1.3-5.62,3.26-8.16,8.73-8.56,15.71a53.44,53.44,0,0,0,.68,10.91c.36,2.38.81,4.74,1.19,7.11.1.53.07,1.08.13,1.81-1.23-.45-1.28-1.42-1.51-2.19A68.55,68.55,0,0,0,23.47,57a20.69,20.69,0,0,0-4.64-6.32,13.42,13.42,0,0,0-6.09-3.2c-3.45-.7-6.9-1.28-10.34-1.93-.67-.12-1.34-.33-2.39-.59Z"/></g></g></svg>