<svg xmlns="http://www.w3.org/2000/svg" viewBox="0 0 643.18 502.73"><defs><style>.cls-1{stroke:#000;stroke-linecap:round;stroke-miterlimit:10;stroke-width:19.94px;}.cls-2{fill:#fff;}</style></defs><title>Asset 14mdpi</title><g id="Layer_2" data-name="Layer 2"><g id="Layer_1-2" data-name="Layer 1"><g id="c32dc030-1aa4-4eb6-a140-8df15df16ce7"><g id="c32dc030-1aa4-4eb6-a140-8df15df16ce7-child-0"><path class="cls-1" d="M10,492.76V10H633.21V492.76Z"/></g></g><g id="_65449750-8b32-47bb-a99b-17df852cee08" data-name="65449750-8b32-47bb-a99b-17df852cee08"><g id="_65449750-8b32-47bb-a99b-17df852cee08-child-0" data-name="65449750-8b32-47bb-a99b-17df852cee08-child-0"><path class="cls-2" d="M16.67,366.94V135.79H626.51V366.94Z"/></g></g><g id="b0138f26-c893-4d8b-ad7a-90d6bdb78d4c"><g id="_9004bc1b-7d4c-46af-887c-0bc94d64ec15" data-name="9004bc1b-7d4c-46af-887c-0bc94d64ec15"><path class="cls-2" d="M78.84,384.13a19,19,0,0,0,3.51.2,41.58,41.58,0,0,1,5.32.2,2.8,2.8,0,0,1,1.85,1.6A15.57,15.57,0,0,1,90.68,390a4,4,0,0,1,.1,1.11,4.24,4.24,0,0,1-.35,1.7,2.68,2.68,0,0,1-1,1.21,2.45,2.45,0,0,1-1.2.2,7.14,7.14,0,0,1-1.5-.1,25.85,25.85,0,0,0-4.42.2,27,27,0,0,1-5.51.2,3,3,0,0,0-1.86.25,1.37,1.37,0,0,0-.45,1.15c0,1.14,0,2.14-.1,3q-.2,3.61-.2,6.12a28.27,28.27,0,0,0,.5,6.22c.07.27.15.75.25,1.45a2.69,2.69,0,0,0,.65,1.55,3.76,3.76,0,0,0,1.51.66,11.78,11.78,0,0,0,2.1.15,8.33,8.33,0,0,0,1.41-.1,6.41,6.41,0,0,1,1.1-.1,4.43,4.43,0,0,1,1.81.4,4,4,0,0,1,1,.6,3.79,3.79,0,0,1,.75,1.1,5.56,5.56,0,0,1,.45,2.61c0,1.07,0,1.74,0,2q0,2.89-4.71,2.9a8.79,8.79,0,0,1-1.3-.1,9.55,9.55,0,0,0-1.41-.1,4.17,4.17,0,0,0-1.3.2,6.86,6.86,0,0,0-1.86,1,2.55,2.55,0,0,0-.35,1.65,18.11,18.11,0,0,0,.1,2.21l.1,3.21c0,.6-.07,1.64-.2,3.11a22.73,22.73,0,0,0-.1,2.6l.1,5.22a42.54,42.54,0,0,1-.8,8.82,1.48,1.48,0,0,0,.35,1.46,2.24,2.24,0,0,0,1.65.55,5.22,5.22,0,0,0,1.21-.1,14.4,14.4,0,0,1,2.81-.3,16.51,16.51,0,0,1,3.21.3c1.2.13,2.1.2,2.7.2a4.76,4.76,0,0,1,2.31.5,5.59,5.59,0,0,1,1.91,1.81,7.06,7.06,0,0,1-.31,5.26,5.31,5.31,0,0,1-1.3,1.76,4.52,4.52,0,0,1-3.91.8,22.65,22.65,0,0,0-3.71-.3c-1.07,0-2.68.07-4.82.2a41.19,41.19,0,0,1-4.91.3,20.85,20.85,0,0,1-3.61-.3,5.89,5.89,0,0,1-2.71-.95,2.55,2.55,0,0,1-.7-2.26,138.38,138.38,0,0,0,.7-13.84c0-2,0-3.51-.1-4.51q-.4-8.13-.4-25.58c0-.8,0-1.75.1-2.86s.13-1.92.2-2.45c.07-.81.13-1.76.2-2.86s.1-2.39.1-3.86c0-1.07,0-2.26-.1-3.56s-.13-2.29-.2-3c-.2-2-.3-4-.3-6,0-.8.07-2.07.2-3.81A5.13,5.13,0,0,1,66,385.63a4.33,4.33,0,0,1,3.2-1.2c1.41,0,3.11-.07,5.12-.2,1.61-.13,2.64-.2,3.11-.2A6.4,6.4,0,0,1,78.84,384.13Zm27.38,9.52c.07.47.15,1.18.25,2.11a10.66,10.66,0,0,0,.55,2.51,14.2,14.2,0,0,0,1.21,2.4,19.8,19.8,0,0,1,1,2.51c.13.27.37.85.7,1.76s.64,1.42.91,1.55c.53.33,1,.07,1.4-.8a7.81,7.81,0,0,0,.7-2.71,15.06,15.06,0,0,1,1-3.71,17.11,17.11,0,0,0,.81-2.11,21.73,21.73,0,0,1,1-2.8c.33-1,.65-2,1-3.06a14.68,14.68,0,0,0,.55-3,3.27,3.27,0,0,1,1.21-2.81,6,6,0,0,1,4.31-1.5,7.59,7.59,0,0,1,3,.6c.87.4,1.3.9,1.3,1.5a3.9,3.9,0,0,1-.3,1.21,20.36,20.36,0,0,1-.8,2.7,23.73,23.73,0,0,1-2.41,6.32,15.92,15.92,0,0,0-1.7,6.12,15.92,15.92,0,0,1-.5,2.71l-.91,3.51c-.07.27-.25,1.12-.55,2.56a14.09,14.09,0,0,1-1.45,4c-.81,1.8-1.38,3.15-1.71,4.06a8.85,8.85,0,0,0-.5,3.06,19.9,19.9,0,0,0,.8,4.71,13.76,13.76,0,0,1,.81,3.51q.6,5.52,4.61,15.55a16.92,16.92,0,0,1,1.2,4c.2,1.27.37,2.77.5,4.51a22.84,22.84,0,0,0,.61,4.31,11.5,11.5,0,0,1,.5,2.71,2.84,2.84,0,0,1-1.91,2.61,4.79,4.79,0,0,1-1.9.5,5,5,0,0,1-4.82-2.71,7.53,7.53,0,0,1-1-2.76q-.3-1.65-.6-4.26c-.07-.4-.23-1.49-.5-3.26a25,25,0,0,0-1.21-4.86,18.11,18.11,0,0,1-.9-3.81c-.27-2.07-.7-3.28-1.3-3.61h-.2c-.34,0-.64.77-.91,2.3a20.25,20.25,0,0,1-.7,3.61,37.17,37.17,0,0,1-1.7,4.42,40.15,40.15,0,0,0-2.46,7.67c-.5,2.44-.78,3.83-.85,4.16s0,.57,0,1.1a1.57,1.57,0,0,1-.56,1.21,5.46,5.46,0,0,1-1.45.45,10.87,10.87,0,0,1-2.36.25,4.36,4.36,0,0,1-3.31-1,4.26,4.26,0,0,1-1-2.81,13.34,13.34,0,0,1,.3-2.51,39.62,39.62,0,0,1,1.31-4.56c.47-1.31.77-2.09.9-2.36a39,39,0,0,0,1.4-4l3.21-12.54a13.25,13.25,0,0,0,.4-2.2,12.49,12.49,0,0,1,.6-3.31c.14-.4.38-1.05.71-2a19.68,19.68,0,0,0,.75-2.51,10.41,10.41,0,0,0,.25-2.25,9,9,0,0,0-.5-3c-.33-.93-.84-2.17-1.51-3.71a25.37,25.37,0,0,1-1.7-4.82,42.38,42.38,0,0,0-2-6.31c-.13-.33-.52-1.4-1.15-3.21a22.35,22.35,0,0,1-1.15-4.32A18.39,18.39,0,0,0,96,392.65a18.68,18.68,0,0,1-1.4-5.72c0-1.13.32-1.85,1-2.15a5.75,5.75,0,0,1,2.46-.45,14,14,0,0,1,4.31,1,3.72,3.72,0,0,1,1.15.85,5.88,5.88,0,0,1,1,1.16,15.18,15.18,0,0,1,1.3,3.81c.27,1.33.43,2.17.5,2.5ZM139,464.46a5.69,5.69,0,0,1-1.21.2,6.28,6.28,0,0,1-2.6-.8,2.84,2.84,0,0,1-1.41-1.41,3.61,3.61,0,0,1-.4-2c.13-1.74.2-3.08.2-4l-.1-4.82c-.13-2.14-.2-3.78-.2-4.91a39.88,39.88,0,0,1,.3-4.92,34.85,34.85,0,0,0,.3-4.51l-.1-4.61c-.13-2-.2-3.55-.2-4.62s.05-2.57.15-4.11.15-2.67.15-3.41c.07-1,.13-2.45.2-4.36s.1-3.66.1-5.27q0-5.72-.5-10.93a56.67,56.67,0,0,1-.3-5.81c0-1,.07-2.45.2-4.32a4.9,4.9,0,0,1,1.66-3.51,10.13,10.13,0,0,1,4.46-1.8,18.81,18.81,0,0,1,3.91-.3l5.12.1c1.2-.13,2.1-.2,2.7-.2a6.18,6.18,0,0,1,2.71.5,11.57,11.57,0,0,1,5.07,3.81,17.73,17.73,0,0,1,2.75,5.62,78.25,78.25,0,0,1,1.81,8.22,42.36,42.36,0,0,1,.7,7.52,36.26,36.26,0,0,1-1.1,8.73l-1,4.21a26.92,26.92,0,0,1-1.11,4.21q-2.81,6.23-8.92,6.22a11.86,11.86,0,0,0-3.71.7,16.72,16.72,0,0,1-3.31.7,2,2,0,0,0-1.41.5,2.33,2.33,0,0,0-.4.91,3.87,3.87,0,0,0-.1.7,45.14,45.14,0,0,0-.7,8q0,3.1.3,6.12c.13,2.54.2,4.41.2,5.62,0,.73-.07,1.9-.2,3.51a6.39,6.39,0,0,1-1.1,3.21,7,7,0,0,1-2.91,1.3Zm7.52-40.12a8.89,8.89,0,0,0,2.71-.45c.93-.3,1.53-.48,1.8-.55a2.44,2.44,0,0,0,1.66-2,23.37,23.37,0,0,0,.65-3.61c.13-1.27.23-2.2.3-2.8a41.52,41.52,0,0,0,.4-5.92,64.33,64.33,0,0,0-.4-6.72,24.18,24.18,0,0,1-.3-3.51q0-4-3.41-4.71a3.37,3.37,0,0,0-1-.1,9.16,9.16,0,0,0-2.06.3,20.06,20.06,0,0,1-2.06.4,1.31,1.31,0,0,0-1.25.9,10.46,10.46,0,0,0-.35,2.31,23.67,23.67,0,0,0-.2,2.8l.1,4.92q.19,4,.2,6c0,1.13-.1,4.21-.3,9.22a4,4,0,0,0,.75,2.66,3.57,3.57,0,0,0,2.76.85Zm34.8-23.67q-.41,4.92-.4,12.74,0,1.41-.1,6.67c-.07,3.51-.23,6.74-.5,9.68a25.79,25.79,0,0,0-.1,2.71c0,1.27.07,2.65.2,4.16s.23,2.53.3,3.06a39.89,39.89,0,0,1,.4,7.22q-.4,5.41,2.61,6.82a9.26,9.26,0,0,0,4.11.8,10.63,10.63,0,0,0,1.7-.1c.34-.07.76-.13,1.26-.2a13.8,13.8,0,0,1,1.85-.1,4.8,4.8,0,0,1,2.46.4,7.05,7.05,0,0,1,2.16,4.81,10,10,0,0,1-1,4.12,1.78,1.78,0,0,1-1.25,1.1,10.47,10.47,0,0,1-2.26.2,21.52,21.52,0,0,1-2.5-.1l-7.22-.1c-2.41,0-4.39.07-5.92.2a4.59,4.59,0,0,1-4-2,5.5,5.5,0,0,1-.91-1.9,8.41,8.41,0,0,1-.4-2.51l.1-4.61c.07-1,.1-2.51.1-4.51s-.1-3.91-.3-6.12a66.14,66.14,0,0,1-.4-8,28.43,28.43,0,0,1,.3-4.81,27.7,27.7,0,0,0,.2-4.21l-.1-6c-.07-.93-.1-2.07-.1-3.41-.07-2,0-5.05.1-9.13.13-3.21.2-5.61.2-7.22a71.94,71.94,0,0,0-.6-10.13,16.88,16.88,0,0,1-.2-2,3.88,3.88,0,0,1,1.1-3,3.94,3.94,0,0,1,1.86-.7,13.57,13.57,0,0,1,2-.2,5.22,5.22,0,0,1,2.26.35,4.26,4.26,0,0,1,1.2,1c.37.43.66.75.86.95a5.07,5.07,0,0,1,1.1,3.51l.1,6.12c0,1-.07,2.51-.2,4.51Zm32.09,2.21c-.13,1.87-.2,3.38-.2,4.51l.1,6.72c.13,3.35.2,6,.2,8,0,2.27,0,4-.1,5.21l-.1,5.32q0,3.21.3,6.42c.13,1.33.2,3.27.2,5.81v5.22l.1,5a29.81,29.81,0,0,1-.4,5.12c-.07.4-.13.9-.2,1.5a6.43,6.43,0,0,1-.35,1.56,2.13,2.13,0,0,1-2.35,1.45l-1.81-.1c-.67-.07-1.7-.1-3.11-.1a1.58,1.58,0,0,1-1.55-1.15,9.71,9.71,0,0,1-.35-3.66q.19-2.72.2-9.13t-.41-15.34a38.83,38.83,0,0,1,.31-5.22l.2-3.61a54.06,54.06,0,0,0-.3-5.92c-.21-4.41-.31-7.39-.31-8.92l.1-8.43q0-4.21-.3-7.62a33.1,33.1,0,0,1,0-5.42,11.05,11.05,0,0,1,.86-4.21,3.68,3.68,0,0,1,1.5-1.45,4.47,4.47,0,0,1,2.21-.55,6.5,6.5,0,0,1,2,.4,6.59,6.59,0,0,1,2.31,1.1,3.8,3.8,0,0,1,.7,2.11,67.24,67.24,0,0,1,.7,10.13c0,1.2-.07,2.94-.2,5.21Zm19.06,62.68a13.45,13.45,0,0,1-6.12-3.41,14.42,14.42,0,0,1-2.91-6.52,68.47,68.47,0,0,1-1-13.43c0-2,.07-4.21.2-6.62.2-3.41.3-7.13.3-11.14l-.1-12.23q0-3.31.2-7.12c.07-1.07.1-2.68.1-4.82a42.44,42.44,0,0,1,.4-6.92q.8-4.91,6-8.52,2.41-1.71,7.42-1.71a23.46,23.46,0,0,1,9.33,2.31,6.45,6.45,0,0,1,3.11,3.06,12.51,12.51,0,0,1,1.3,4.76c.07.81.23,2.08.5,3.81.33,2.68.5,4.35.5,5a13.19,13.19,0,0,1-.4,3.41,4.44,4.44,0,0,1-.8,1.7,12.35,12.35,0,0,1-1.9,1.31,4.23,4.23,0,0,1-2.21.5,5.26,5.26,0,0,1-2.46-.6,2,2,0,0,1-1.25-1.51c-.13-1.07-.2-1.8-.2-2.2l.1-3.51a10.76,10.76,0,0,0-.3-2.91,17.71,17.71,0,0,1-.4-2,5.88,5.88,0,0,0-.66-2.05,2.92,2.92,0,0,0-1.25-1.21,7,7,0,0,0-2.51-.5,4.52,4.52,0,0,0-3.61,1.51,5.62,5.62,0,0,0-1,2,20.08,20.08,0,0,0-.5,2.46c-.13.9-.27,1.65-.4,2.25a13.06,13.06,0,0,0-.3,3.21c0,1.27,0,2.38.1,3.31s.13,1.74.2,2.41l.1,3.11q.19,5.42.2,8.52c0,2,0,3.51-.1,4.52l-.1,2.3c0,1.07.07,2.68.2,4.82l.1,2.41c0,1.07.07,2.6.2,4.61.13,2.54.2,4.34.2,5.41,0,.81,0,1.56-.1,2.26s-.1,1.32-.1,1.86a6.91,6.91,0,0,0,.75,3.11,8.1,8.1,0,0,0,2.06,2.6,2.54,2.54,0,0,0,1.5.6,3.11,3.11,0,0,0,2-.85,8.77,8.77,0,0,0,1.7-2,10.29,10.29,0,0,0,1.31-5.32c0-1.33,0-2.34-.1-3a29.92,29.92,0,0,1,0-5q.5-3.81,3.81-3.81a5.66,5.66,0,0,1,2.1.5,19.1,19.1,0,0,0,1.91.7,2.07,2.07,0,0,1,1.3.75,3.36,3.36,0,0,1,.5,1.66q.41,5,.4,7.52a35.57,35.57,0,0,1-.3,4.61l-.9,5.12a9.65,9.65,0,0,1-2.41,4.91,9.3,9.3,0,0,1-4.31,2.61,31.68,31.68,0,0,1-8.82,1.6,10.75,10.75,0,0,1-2.61-.3Zm36.81-62.68c-.14,1.87-.21,3.38-.21,4.51l.11,6.72c.13,3.35.2,6,.2,8,0,2.27,0,4-.1,5.21l-.1,5.32q0,3.21.3,6.42.19,2,.2,5.81v5.22l.1,5a29.81,29.81,0,0,1-.4,5.12c-.07.4-.13.9-.2,1.5a6.4,6.4,0,0,1-.36,1.56,2.13,2.13,0,0,1-2.35,1.45l-1.81-.1c-.67-.07-1.7-.1-3.11-.1a1.58,1.58,0,0,1-1.55-1.15,9.71,9.71,0,0,1-.35-3.66q.19-2.72.2-9.13t-.4-15.34a38.09,38.09,0,0,1,.3-5.22l.2-3.61a54.06,54.06,0,0,0-.3-5.92c-.2-4.41-.3-7.39-.3-8.92l.1-8.43q0-4.21-.3-7.62a33.1,33.1,0,0,1,.05-5.42,11.31,11.31,0,0,1,.85-4.21,3.68,3.68,0,0,1,1.5-1.45,4.5,4.5,0,0,1,2.21-.55,9.23,9.23,0,0,1,4.31,1.5,3.8,3.8,0,0,1,.7,2.11,67.18,67.18,0,0,1,.71,10.13c0,1.2-.07,2.94-.2,5.21Zm19.05-18.65q5.22.4,7.92.4a50.19,50.19,0,0,0,6.82-.4l1.21-.1a2.59,2.59,0,0,1,1.9.6,4.51,4.51,0,0,1,1.16,1.65,5.5,5.5,0,0,1,.45,2.16,4.52,4.52,0,0,1-.5,2,11.1,11.1,0,0,1-1.81,2.9,3.4,3.4,0,0,1-2.51.81,37.88,37.88,0,0,0-3.81.15,2.78,2.78,0,0,0-2.1,1.15,4,4,0,0,0-.51,2.16v1.45c0,.47,0,1.25.1,2.36s.11,2.69.11,4.76a66.64,66.64,0,0,1-.41,7.62,60.72,60.72,0,0,0-.4,7.32q0,4.32.4,8.73.19,6.62.2,11.43,0,6.62-.2,16.45l-.1,4.21c0,1-.13,1.63-.4,1.86a4.61,4.61,0,0,1-1.8.65l-1.36.25a8.29,8.29,0,0,1-1.35.15,3,3,0,0,1-1.51-.4,7.75,7.75,0,0,1-2.25-1.76,5.24,5.24,0,0,1-.75-2.45,62.94,62.94,0,0,1-.3-6.42q0-5.42.5-11.63c.07-1.07.13-2.24.2-3.51s.1-2.65.1-4.12v-4.41q0-5.31-.1-8.22v-3.31l.1-5.52c.07-1.13.1-2.8.1-5a61,61,0,0,0-1.31-12.74,3.2,3.2,0,0,0-.1-.65.83.83,0,0,0-.4-.6,1.81,1.81,0,0,0-.8-.15,19.2,19.2,0,0,0-2.31-.1h-2a9.94,9.94,0,0,1-3-.41,3.35,3.35,0,0,1-1-.65,3.52,3.52,0,0,1-.4-1.25,8.75,8.75,0,0,1-.31-2.21,5.19,5.19,0,0,1,1.11-3.31,10,10,0,0,1,1.4-1.6,2.93,2.93,0,0,1,1.61-.3c.73-.07,1.73-.1,3-.1H286Zm49,81.33a13.41,13.41,0,0,1-6.11-3.41,14.42,14.42,0,0,1-2.91-6.52,68.33,68.33,0,0,1-1-13.43c0-2,.07-4.21.2-6.62.21-3.41.31-7.13.31-11.14l-.11-12.23q0-3.31.21-7.12c.07-1.07.1-2.68.1-4.82a42.44,42.44,0,0,1,.4-6.92q.79-4.91,6-8.52c1.61-1.14,4.08-1.71,7.43-1.71a23.38,23.38,0,0,1,9.32,2.31,6.37,6.37,0,0,1,3.11,3.06,12.34,12.34,0,0,1,1.31,4.76c.07.81.23,2.08.5,3.81.33,2.68.5,4.35.5,5a13.19,13.19,0,0,1-.4,3.41,4.44,4.44,0,0,1-.8,1.7,12.63,12.63,0,0,1-1.91,1.31,4.18,4.18,0,0,1-2.21.5,5.22,5.22,0,0,1-2.45-.6,2,2,0,0,1-1.26-1.51c-.13-1.07-.2-1.8-.2-2.2l.1-3.51a10.76,10.76,0,0,0-.3-2.91,17.71,17.71,0,0,1-.4-2,6.11,6.11,0,0,0-.65-2.05,2.89,2.89,0,0,0-1.26-1.21,7,7,0,0,0-2.5-.5,4.5,4.5,0,0,0-3.61,1.51,5.64,5.64,0,0,0-1,2,20.08,20.08,0,0,0-.5,2.46c-.13.9-.27,1.65-.4,2.25a13.06,13.06,0,0,0-.3,3.21c0,1.27,0,2.38.1,3.31s.13,1.74.2,2.41l.1,3.11q.19,5.42.2,8.52c0,2,0,3.51-.1,4.52l-.1,2.3c0,1.07.07,2.68.2,4.82l.1,2.41c0,1.07.07,2.6.2,4.61.13,2.54.2,4.34.2,5.41,0,.81,0,1.56-.1,2.26s-.1,1.32-.1,1.86a6.8,6.8,0,0,0,.76,3.11,8.07,8.07,0,0,0,2.05,2.6,2.56,2.56,0,0,0,1.51.6,3.08,3.08,0,0,0,2-.85,8.81,8.81,0,0,0,1.71-2,10.28,10.28,0,0,0,1.3-5.32c0-1.33,0-2.34-.1-3a32.21,32.21,0,0,1,0-5q.5-3.81,3.81-3.81a5.75,5.75,0,0,1,2.11.5,18.22,18.22,0,0,0,1.9.7,2.07,2.07,0,0,1,1.31.75,3.36,3.36,0,0,1,.5,1.66q.4,5,.4,7.52a35.57,35.57,0,0,1-.3,4.61l-.9,5.12a9.81,9.81,0,0,1-2.41,4.91,9.35,9.35,0,0,1-4.31,2.61,31.8,31.8,0,0,1-8.83,1.6,10.86,10.86,0,0,1-2.61-.3Zm37.11,0a43.07,43.07,0,0,1-5-1.75,8.06,8.06,0,0,1-2.86-2.16,7,7,0,0,1-1.51-3.81l-.6-3.81q-.6-3.21-.85-5.37a20.24,20.24,0,0,1-.05-4.26l.2-2.31q.7-7.21.7-11a68.47,68.47,0,0,0-.5-7.72,45.4,45.4,0,0,1-.4-6.42q0-3.81.3-7.12c.13-2.54.2-4.24.2-5.11,0-1.41,0-2.48-.1-3.21l-.1-3.31a22.42,22.42,0,0,1,.55-5.22,11.59,11.59,0,0,1,2-4.21,10.34,10.34,0,0,1,3.61-3.26,22.59,22.59,0,0,1,5.21-1.65l2.21-.51a9.52,9.52,0,0,1,2.31-.3,22.78,22.78,0,0,1,5.71,1,5.91,5.91,0,0,1,2.66,1.35,9.52,9.52,0,0,1,1.45,1.86c.41.67.68,1.13.81,1.4a20.43,20.43,0,0,1,2.5,12.13q-.49,8-.5,13.14,0,5.93.5,11.74c.13,1.27.2,3.07.2,5.41q0,3.92-.3,7.12c-.13,3.08-.17,5.22-.1,6.42q.19,4.41.2,5.82a20.87,20.87,0,0,1-1.1,7.72,14.26,14.26,0,0,1-4,5.12,12.17,12.17,0,0,1-4.11,2.15,16.5,16.5,0,0,1-4.92.75,15,15,0,0,1-4.31-.6Zm3.91-8.72a7.74,7.74,0,0,0,3.11-1,5.25,5.25,0,0,0,1.4-2.7q.91-4.62.91-15.05,0-4.41-.2-9.22c-.07-1.87-.23-5.45-.5-10.73q-.61-10.42-.61-15.55c0-2.27,0-3.94.1-5,.07-2.61-.1-4.22-.5-4.82a2.79,2.79,0,0,0-2.3-1.6,3.91,3.91,0,0,0-1.31.3,6.23,6.23,0,0,0-3.11,2.1,10.6,10.6,0,0,0-1.4,4,46.46,46.46,0,0,0-.7,8.42l.1,6.22q.3,8.93.2,11.73c-.07,1.47-.08,3.05-.05,4.72s.05,2.9.05,3.71.1,2.24.1,3.91a36,36,0,0,1-.2,4.61,45.75,45.75,0,0,0-.3,4.72,23.33,23.33,0,0,0,1,6.61,17.64,17.64,0,0,1,.5,2.11,3.54,3.54,0,0,0,.8,2,2.49,2.49,0,0,0,1.81.6,4.57,4.57,0,0,0,1.1-.1Zm23.37-7.42c0-2.47,0-4.75.1-6.82s.13-3.88.2-5.42q.41-9,.4-14.14,0-2.51-.2-7.52c-.07-1.21-.1-3-.1-5.32q0-5.11.3-9.93.3-6.21.2-10.43a9.67,9.67,0,0,1,.4-3.76,3,3,0,0,1,2-1.75,3.37,3.37,0,0,1,1-.1,21.24,21.24,0,0,1,2.46.2,11.67,11.67,0,0,0,2.56.1c1.07-.13,1.83.6,2.3,2.2q2.11,6.22,3.56,11.59a99.72,99.72,0,0,1,2.36,11.38l1,7.12q1.11,8.24,1.81,12.44c.47,2.81,1,4.64,1.6,5.51q.4.62,0-3.81a60.25,60.25,0,0,1-.4-8.92,76.36,76.36,0,0,0,.4-8.23c0-1.53-.05-3.27-.15-5.21s-.15-3.38-.15-4.31q-.3-4.52-.3-8.73a53.91,53.91,0,0,1,.4-6.92,9.68,9.68,0,0,1,.7-3c.27-.47,1-.8,2.31-1,.2-.07.77-.18,1.71-.35a5.5,5.5,0,0,1,2.2,0,4,4,0,0,1,2.41,1.45,4.31,4.31,0,0,1,.4,2.76q-.79,8.42-.8,16.25,0,3.21.2,8.82l.1,8.43q0,4.31-.3,9.42c0,.2-.1,1.05-.3,2.56a32.53,32.53,0,0,0-.3,4.26c0,4.21.07,7.66.2,10.33.07,1.34.08,2.48.05,3.41s-.05,1.61-.05,2q-.1,1.9,0,5.31c.13,3.95-1,5.75-3.31,5.42a4.05,4.05,0,0,0-1.31,0,10.27,10.27,0,0,1-1.3.1,3.7,3.7,0,0,1-1.7-.4,2.58,2.58,0,0,1-1.21-1.25,10.75,10.75,0,0,1-.7-2.16c-.73-3.07-1.54-6.12-2.41-9.13-.93-3.34-1.67-6.15-2.2-8.42a61,61,0,0,1-1.21-6.72,78,78,0,0,0-1.5-9.13q-1.41-8.12-1.81-13.74c-.13-1.81-.37-3.73-.7-5.76s-.63-2.93-.9-2.66a3.14,3.14,0,0,0-.4,2c0,1,.07,2.51.2,4.52q.11,2.59-.3,8.82-.4,5.41-.4,8.33t.4,8.72c.07.94.13,2.11.2,3.51s.1,3,.1,4.82q.19,9.61.2,13.13a6.07,6.07,0,0,1-2.11,4.22,4.87,4.87,0,0,1-3.61,1.3,12.5,12.5,0,0,1-1.8-.2,2.78,2.78,0,0,1-1.86-.9,4.72,4.72,0,0,1-.75-2.31,7.94,7.94,0,0,1-.1-1.5l.1-2.41c.13-1.21.2-2.11.2-2.71Zm49.64-65.19q5.22.4,7.93.4a50.19,50.19,0,0,0,6.82-.4l1.2-.1a2.64,2.64,0,0,1,1.91.6,4.38,4.38,0,0,1,1.15,1.65,5.5,5.5,0,0,1,.45,2.16,4.52,4.52,0,0,1-.5,2,10.84,10.84,0,0,1-1.81,2.9,3.39,3.39,0,0,1-2.5.81,37.61,37.61,0,0,0-3.81.15,2.78,2.78,0,0,0-2.11,1.15,4.06,4.06,0,0,0-.5,2.16v1.45c0,.47,0,1.25.1,2.36s.1,2.69.1,4.76a66.75,66.75,0,0,1-.4,7.62,60.72,60.72,0,0,0-.4,7.32q0,4.32.4,8.73.19,6.62.2,11.43,0,6.62-.2,16.45l-.1,4.21c0,1-.13,1.63-.4,1.86a4.68,4.68,0,0,1-1.81.65l-1.35.25a8.39,8.39,0,0,1-1.36.15,3,3,0,0,1-1.5-.4,7.69,7.69,0,0,1-2.26-1.76,5.24,5.24,0,0,1-.75-2.45,62.94,62.94,0,0,1-.3-6.42q0-5.42.5-11.63c.07-1.07.13-2.24.2-3.51s.1-2.65.1-4.12v-4.41q0-5.31-.1-8.22v-3.31l.1-5.52c.07-1.13.1-2.8.1-5a61,61,0,0,0-1.3-12.74,3.2,3.2,0,0,0-.1-.65.83.83,0,0,0-.4-.6,1.89,1.89,0,0,0-.81-.15,19.12,19.12,0,0,0-2.3-.1h-2.06a10,10,0,0,1-3-.41,3.35,3.35,0,0,1-1-.65,3.52,3.52,0,0,1-.4-1.25,9.18,9.18,0,0,1-.3-2.21,5.24,5.24,0,0,1,1.1-3.31,10,10,0,0,1,1.4-1.6,3,3,0,0,1,1.61-.3c.73-.07,1.74-.1,3-.1h3.11Zm40.12-.1a18.89,18.89,0,0,0,3.51.2,41.69,41.69,0,0,1,5.32.2,2.8,2.8,0,0,1,1.85,1.6,16.07,16.07,0,0,1,1.15,3.91,4,4,0,0,1,.1,1.11,4.24,4.24,0,0,1-.35,1.7,2.73,2.73,0,0,1-.95,1.21,2.45,2.45,0,0,1-1.2.2,7.19,7.19,0,0,1-1.51-.1,25.74,25.74,0,0,0-4.41.2,27.06,27.06,0,0,1-5.52.2,3,3,0,0,0-1.85.25,1.37,1.37,0,0,0-.45,1.15c0,1.14,0,2.14-.1,3q-.19,3.61-.2,6.12a28.27,28.27,0,0,0,.5,6.22c.07.27.15.75.25,1.45a2.69,2.69,0,0,0,.65,1.55,3.7,3.7,0,0,0,1.51.66,11.78,11.78,0,0,0,2.1.15,8.49,8.49,0,0,0,1.41-.1,6.41,6.41,0,0,1,1.1-.1,4.35,4.35,0,0,1,1.8.4,4.14,4.14,0,0,1,1.06.6,3.79,3.79,0,0,1,.75,1.1,5.56,5.56,0,0,1,.45,2.61c0,1.07-.05,1.74-.05,2q0,2.89-4.71,2.9a8.82,8.82,0,0,1-1.31-.1,9.42,9.42,0,0,0-1.4-.1,4.28,4.28,0,0,0-1.31.2,6.91,6.91,0,0,0-1.85,1,2.55,2.55,0,0,0-.35,1.65,18.11,18.11,0,0,0,.1,2.21l.1,3.21c0,.6-.07,1.64-.2,3.11a22.73,22.73,0,0,0-.1,2.6l.1,5.22a42.54,42.54,0,0,1-.8,8.82,1.48,1.48,0,0,0,.35,1.46,2.24,2.24,0,0,0,1.65.55,5.28,5.28,0,0,0,1.21-.1,14.3,14.3,0,0,1,2.8-.3,16.36,16.36,0,0,1,3.21.3c1.21.13,2.11.2,2.71.2a4.82,4.82,0,0,1,2.31.5,5.45,5.45,0,0,1,1.9,1.81,6.19,6.19,0,0,1,.3,3.21,6.35,6.35,0,0,1-.6,2.05,5.31,5.31,0,0,1-1.3,1.76,4.52,4.52,0,0,1-3.91.8,22.65,22.65,0,0,0-3.71-.3c-1.07,0-2.68.07-4.82.2a41.32,41.32,0,0,1-4.91.3,20.77,20.77,0,0,1-3.61-.3,5.89,5.89,0,0,1-2.71-.95,2.55,2.55,0,0,1-.7-2.26,138.38,138.38,0,0,0,.7-13.84c0-2,0-3.51-.1-4.51q-.4-8.13-.4-25.58c0-.8,0-1.75.1-2.86s.13-1.92.2-2.45c.07-.81.13-1.76.2-2.86s.1-2.39.1-3.86c0-1.07,0-2.26-.1-3.56s-.13-2.29-.2-3c-.2-2-.3-4-.3-6,0-.8.07-2.07.2-3.81a5.18,5.18,0,0,1,1.4-3.31,4.37,4.37,0,0,1,3.21-1.2c1.41,0,3.11-.07,5.12-.2,1.6-.13,2.64-.2,3.11-.2A6.4,6.4,0,0,1,491.54,384.13Zm18.35,65.29c0-2.47,0-4.75.1-6.82s.13-3.88.2-5.42q.4-9,.41-14.14,0-2.51-.21-7.52c-.07-1.21-.1-3-.1-5.32q0-5.11.31-9.93.3-6.21.2-10.43a9.67,9.67,0,0,1,.4-3.76,3,3,0,0,1,2-1.75,3.45,3.45,0,0,1,1-.1,20.93,20.93,0,0,1,2.45.2,11.69,11.69,0,0,0,2.56.1c1.07-.13,1.84.6,2.31,2.2q2.1,6.22,3.56,11.59a99.76,99.76,0,0,1,2.35,11.38l1,7.12q1.09,8.24,1.8,12.44c.47,2.81,1,4.64,1.61,5.51q.4.62,0-3.81a60.25,60.25,0,0,1-.4-8.92,76.36,76.36,0,0,0,.4-8.23c0-1.53-.05-3.27-.15-5.21s-.15-3.38-.15-4.31q-.3-4.52-.3-8.73a53.91,53.91,0,0,1,.4-6.92,9.68,9.68,0,0,1,.7-3c.27-.47,1-.8,2.31-1,.2-.07.77-.18,1.7-.35a5.55,5.55,0,0,1,2.21,0,4,4,0,0,1,2.4,1.45,4.18,4.18,0,0,1,.4,2.76q-.79,8.42-.8,16.25,0,3.21.2,8.82l.1,8.43q0,4.31-.3,9.42c0,.2-.1,1.05-.3,2.56a32.53,32.53,0,0,0-.3,4.26c0,4.21.07,7.66.2,10.33.07,1.34.08,2.48.05,3.41s-.05,1.61-.05,2q-.1,1.9,0,5.31c.13,3.95-1,5.75-3.31,5.42a4,4,0,0,0-1.3,0,10.28,10.28,0,0,1-1.31.1,3.7,3.7,0,0,1-1.7-.4,2.61,2.61,0,0,1-1.2-1.25,10.71,10.71,0,0,1-.71-2.16c-.73-3.07-1.53-6.12-2.4-9.13q-1.41-5-2.21-8.42a63.33,63.33,0,0,1-1.2-6.72,78,78,0,0,0-1.51-9.13q-1.4-8.12-1.8-13.74-.19-2.71-.71-5.76c-.33-2-.63-2.93-.9-2.66a3.14,3.14,0,0,0-.4,2c0,1,.07,2.51.2,4.52q.1,2.59-.3,8.82-.4,5.41-.4,8.33t.4,8.72c.07.94.13,2.11.2,3.51s.1,3,.1,4.82q.19,9.61.2,13.13a6.09,6.09,0,0,1-2.1,4.22,4.89,4.89,0,0,1-3.61,1.3,12.46,12.46,0,0,1-1.81-.2,2.76,2.76,0,0,1-1.85-.9,4.72,4.72,0,0,1-.76-2.31,7.94,7.94,0,0,1-.1-1.5l.1-2.41c.13-1.21.2-2.11.2-2.71Zm49.65-65.19q5.21.4,7.92.4a50.19,50.19,0,0,0,6.82-.4l1.2-.1a2.62,2.62,0,0,1,1.91.6,4.38,4.38,0,0,1,1.15,1.65,5.5,5.5,0,0,1,.45,2.16,4.52,4.52,0,0,1-.5,2,11.13,11.13,0,0,1-1.8,2.9,3.43,3.43,0,0,1-2.51.81,37.61,37.61,0,0,0-3.81.15,2.78,2.78,0,0,0-2.11,1.15,4.06,4.06,0,0,0-.5,2.16v1.45c0,.47,0,1.25.1,2.36s.1,2.69.1,4.76a66.75,66.75,0,0,1-.4,7.62,60.72,60.72,0,0,0-.4,7.32q0,4.32.4,8.73.2,6.62.2,11.43,0,6.62-.2,16.45l-.1,4.21c0,1-.13,1.63-.4,1.86a4.61,4.61,0,0,1-1.81.65l-1.35.25a8.29,8.29,0,0,1-1.35.15,3,3,0,0,1-1.51-.4,7.75,7.75,0,0,1-2.25-1.76,5.23,5.23,0,0,1-.76-2.45,62.94,62.94,0,0,1-.3-6.42q0-5.42.5-11.63c.07-1.07.13-2.24.2-3.51s.1-2.65.1-4.12v-4.41q0-5.31-.1-8.22v-3.31l.1-5.52c.07-1.13.1-2.8.1-5a61,61,0,0,0-1.3-12.74,3.2,3.2,0,0,0-.1-.65.83.83,0,0,0-.4-.6,1.81,1.81,0,0,0-.8-.15,19.42,19.42,0,0,0-2.31-.1h-2.06a9.92,9.92,0,0,1-2.95-.41,3.3,3.3,0,0,1-1-.65,3.52,3.52,0,0,1-.4-1.25,9.18,9.18,0,0,1-.3-2.21,5.24,5.24,0,0,1,1.1-3.31,9.87,9.87,0,0,1,1.41-1.6,2.91,2.91,0,0,1,1.6-.3c.74-.07,1.74-.1,3-.1h3.11Z"/></g></g><g id="ef2e7049-d0e8-462c-b107-9fd718afc56a"><g id="_4b6df494-09b9-430b-bf4f-a744dab90580" data-name="4b6df494-09b9-430b-bf4f-a744dab90580"><path d="M62.06,332.6a9.53,9.53,0,0,1-3.26.41,35.54,35.54,0,0,1-4-.2c-1.15-.14-2.14-.28-3-.41a4.17,4.17,0,0,1-1.83-.51,2.08,2.08,0,0,1-1.22-1.32,7.91,7.91,0,0,1-.61-4.68l1-5.69.81-5.09q1.63-11,2.54-18.5t1.12-15.86a151.85,151.85,0,0,1,1.83-15.66,108.44,108.44,0,0,0,1.83-13.43q.4-8.13,2.85-24,1.64-11.8,2.24-17.49.81-10.17,1-13.83.41-9.15,1-13.83a47.7,47.7,0,0,1,.91-5.9A7.84,7.84,0,0,1,67.55,173q3.26-3.26,10-3.25a27,27,0,0,1,6.92.81,6.75,6.75,0,0,1,1.32.21,4.45,4.45,0,0,1,1.53.61,6.2,6.2,0,0,1,2.23,3.25q1.21,3.47,1.63,11l.41,4.88q1.22,9.15,3,17.29c.13,1.09.47,3,1,5.9l1.22,6.5q4.07,22.37,4.68,33.56l.41,12q0,4.28.4,12,.21,2,1,7.52c.13,1.49.34,3.26.61,5.29s.54,4.54.81,7.52l.82,9.15a141.37,141.37,0,0,1,1.22,15.26q0,4.06-.2,6.1a4.17,4.17,0,0,1-2,3.35,6.89,6.89,0,0,1-4.68.71l-3-.2a21,21,0,0,1-5.18-.51,2.8,2.8,0,0,1-2.14-2.74c-.13-1.09-.27-2.34-.4-3.77s-.34-3.08-.61-5q-.41-4.06-.41-5.69l.2-5.09a9.32,9.32,0,0,0-.61-3.66c-.27-.67-1.35-1-3.25-1-2.71-.27-4.82-.41-6.31-.41s-3.39.14-6.1.41a4.07,4.07,0,0,0-2.44,1,5.41,5.41,0,0,0-1.22,2.65,29.76,29.76,0,0,0-.61,4.88,22.36,22.36,0,0,1-1,5.69,7.26,7.26,0,0,0-.41,2.65l.2,3.05q0,4.06-.81,5.38t-3.66,2.34Zm20.33-45.75a2.19,2.19,0,0,0,1.63-.61,4.25,4.25,0,0,0,.41-2.44,110.2,110.2,0,0,1-.81-13.22,67.24,67.24,0,0,0-.41-8.95l-.82-9.15a47.13,47.13,0,0,0-.2-5.09,108.1,108.1,0,0,0-1.42-10.77A89.79,89.79,0,0,1,79.55,225c0-2.3-.14-3.59-.41-3.86a1.3,1.3,0,0,0-1.22-.81c-.41,0-.78.37-1.12,1.12a9.18,9.18,0,0,0-.71,2.74l-.61,5.49q-1.22,9-1.42,14.24a38.75,38.75,0,0,1-.21,4.17c-.13,1.29-.27,2.47-.4,3.55q-.83,6.91-1,13,0,4.06-.2,6.51c0,4.75-.07,8.47-.21,11.18,0,.14,0,.58-.1,1.32a2.65,2.65,0,0,0,.31,1.73,3.41,3.41,0,0,0,3,1.22h3.25a17.76,17.76,0,0,1,3.25.21Zm51.86,45.55q-8.75.81-11.59-4.47-1-2-1-7.53,0-4.47.41-13,.61-7.12.61-14.65a103,103,0,0,0-.41-10.57q-.41-4.87-.4-15.05V252.89q0-12.21-.61-18.1-.61-8.55-.61-16.88,0-6.91.4-19.12.41-10.57.41-15.25c0-.81,0-1.8-.1-2.95a30.58,30.58,0,0,1,.1-4.17c.27-3.25,1.36-5.42,3.25-6.51a6.4,6.4,0,0,1,2.65-.4,20.83,20.83,0,0,1,3.46.2c3.25.27,5.69.42,7.32.42l10.77-.21q12.41,0,18.71,4.37t11,15.55q3.85,9.56,3.86,23,0,4.06-.41,11.8l-.2,5.9q-.19,3.66-.2,11.18,0,7.94.4,22.57l.21,19.32q0,14.66-1.22,22a110.28,110.28,0,0,1-2.75,12.81,20.42,20.42,0,0,1-4.58,8.54,14.29,14.29,0,0,1-6.1,4.27q-3.45,1.21-11.38,1.22a47.91,47.91,0,0,1-5.09-.2L143.2,332a76.48,76.48,0,0,0-8.95.41Zm8.95-16.88c1,.13,2.1.3,3.46.51a24.12,24.12,0,0,0,3.45.3,8.63,8.63,0,0,0,3.87-.81c.81-.41,1.86-.91,3.15-1.52a7.08,7.08,0,0,0,2.75-2,10.8,10.8,0,0,0,1.42-3.56,38.94,38.94,0,0,0,1.22-8.23c.13-2.92.2-4.72.2-5.39a65.65,65.65,0,0,1,.41-8.54,112.13,112.13,0,0,0,.81-13.83q0-8.34-.61-15.66-.62-9.76-.4-16.27.81-17.89.81-23,0-10.17-1.63-15.05a11,11,0,0,1-.61-2.44,17.42,17.42,0,0,1-.2-2,13.36,13.36,0,0,0-1.42-5.29q-3.66-5.49-11.8-5.49-4.68,0-6.3,1.52a5.7,5.7,0,0,0-1.63,4.38,28.32,28.32,0,0,0,.2,3.15,27.76,27.76,0,0,1,.21,3.35,50,50,0,0,0,.2,7.53q.41,4.47.41,8.34,0,4.07-1,16.27-.61,6.7-.61,13.62l.2,11.39q.21,3.86.21,11.39l.2,24.4-.2,12a41.69,41.69,0,0,0,1,8.74c.41,1.36,1.15,2.11,2.24,2.24Zm72.4-125.27c.13.95.47,3.18,1,6.71q.21.81,1,6.61a68.07,68.07,0,0,1,.61,11.69,123.41,123.41,0,0,0,.61,15.66q.81,7.94,2.85,20.34l1.22,7.73a42.16,42.16,0,0,1,.61,7.72q.19,3.66.71,7c.34,2.24.85,3.56,1.53,4a.84.84,0,0,0,.61.2q1.22,0,1.83-5.7a141.69,141.69,0,0,1,2.64-16.67q1.83-11.19,2.75-17.8a103.06,103.06,0,0,0,.91-14.13,108.45,108.45,0,0,1,2-17.69l1.22-7.93q.21-2.23,1-6.71.19-1,.81-4.68a26.81,26.81,0,0,0,.41-6.31,10.58,10.58,0,0,1,.71-4.67,9.36,9.36,0,0,1,2.55-3.87,8.43,8.43,0,0,1,5.89-2,29.19,29.19,0,0,1,6.1.81,4.69,4.69,0,0,1,2.75,1.73,5.25,5.25,0,0,1,.3,3.56l-.4,5.29a108.32,108.32,0,0,1-2.24,17.08q-1.64,6.51-2.85,20.13-.81,9.56-1.62,13.83-2.44,10.79-3.05,16.07l-2.24,23q-1.43,16.88-2.75,27.55T239.39,322a12.06,12.06,0,0,1-2.64,5.29,9.16,9.16,0,0,1-2.65,2.44,29.65,29.65,0,0,1-3.45,1.83,11.9,11.9,0,0,1-5.29,1.42q-4.06,0-6.92-4.27a37.6,37.6,0,0,1-3.55-8.24,75.13,75.13,0,0,1-2.75-10.27,74.26,74.26,0,0,0-2.24-7.52,24.62,24.62,0,0,1-1.42-4.68,134.94,134.94,0,0,1-1.42-17.49q-.41-10.79-1.33-19.11a129.87,129.87,0,0,0-4-19.53,17.78,17.78,0,0,1-.41-4.47l.21-7.52a19.42,19.42,0,0,0-.21-3.46c-.27-1.49-.81-4.14-1.62-7.93a90.93,90.93,0,0,1-2-13.43q-.19-4.67-1.63-15.45a70.62,70.62,0,0,1-1.42-12.81,21.11,21.11,0,0,1,.31-4.48,2.76,2.76,0,0,1,1.93-1.83,12.25,12.25,0,0,1,5.49-1.42,11.55,11.55,0,0,1,5.08,1.42,15.69,15.69,0,0,1,1.83.82,4.23,4.23,0,0,1,1.73,1.42,9.43,9.43,0,0,1,.92,2,71.58,71.58,0,0,1,3.66,15.46Zm76.67,17.08q-.4,5.7-.41,9.15l.2,13.63q.4,10.17.41,16.27,0,6.92-.2,10.57l-.21,10.78q0,6.51.61,13,.4,4.06.41,11.79v10.58l.2,10.16a61.1,61.1,0,0,1-.81,10.38c-.13.81-.27,1.83-.41,3a12.43,12.43,0,0,1-.71,3.15,5,5,0,0,1-1.52,2.13,5.19,5.19,0,0,1-3.26.82l-3.66-.21q-2-.19-6.3-.2a3.23,3.23,0,0,1-3.16-2.34c-.61-1.56-.84-4-.71-7.42q.4-5.49.41-18.51,0-13.22-.81-31.11a77.14,77.14,0,0,1,.61-10.58l.4-7.32a108.29,108.29,0,0,0-.61-12q-.62-13.43-.61-18.1l.21-17.08q0-8.53-.61-15.45a66.9,66.9,0,0,1,.1-11q.51-6.5,1.73-8.54a7.49,7.49,0,0,1,3.05-3,9.15,9.15,0,0,1,4.47-1.11,18.73,18.73,0,0,1,8.75,3c.67.67,1.15,2.1,1.42,4.27a136.79,136.79,0,0,1,1.42,20.54q0,3.66-.4,10.57Zm54.9-10.78q.61-5.9-4.27-8.74a11,11,0,0,0-5.89-1.63,8.64,8.64,0,0,0-5.09,1.43q-3.26,2.23-3.25,7.11a24.59,24.59,0,0,0,1.12,7q1.11,3.76,1.52,5,2.85,9.15,12.41,27.66,6.3,12.19,7.93,15.86,1.43,3.66,3.66,10a109.6,109.6,0,0,0,6.51,16.88,50.88,50.88,0,0,1,4.47,12.2,52.1,52.1,0,0,1,1.42,11.39q0,8.13-4.37,17.89T353.68,331a30,30,0,0,1-7.63,2.84,39.51,39.51,0,0,1-8.43.82q-4.06,0-6.51-.21A19.75,19.75,0,0,1,318.7,329a28.37,28.37,0,0,1-7.93-12.5,71.09,71.09,0,0,1-1.93-7.43,34.1,34.1,0,0,1-.71-6.6q0-1.83.81-8.75a8.42,8.42,0,0,1,2-4.78,26.64,26.64,0,0,1,5.29-4,10.67,10.67,0,0,1,5.7-1.63,8,8,0,0,1,5.59,2.13,9.61,9.61,0,0,1,2.95,5.6,34,34,0,0,1,.4,3.66,33.18,33.18,0,0,1-.3,4.17,31.55,31.55,0,0,0-.31,4.17,30.16,30.16,0,0,0,1,8.74,6.35,6.35,0,0,0,4.88,4.27,5.51,5.51,0,0,0,1.63.2q3.46,0,6-3.45a14.57,14.57,0,0,0,2.95-6.51,20.83,20.83,0,0,0,.2-3.46,40.05,40.05,0,0,0-1.32-9.86,36.34,36.34,0,0,0-4-9.66,87,87,0,0,1-3.66-8.54c-.41-1.09-.95-2.44-1.62-4.07s-1.56-3.66-2.65-6.1c-.27-.54-1.19-2.68-2.74-6.41a58.33,58.33,0,0,0-6.21-11.08,58,58,0,0,1-6.5-10.78,164.77,164.77,0,0,1-5.49-16.06,12.15,12.15,0,0,0-.61-2,24.63,24.63,0,0,1-.82-2.44,51.82,51.82,0,0,1-2.64-15.05q0-3.66.51-9.15a28.68,28.68,0,0,1,1.72-8.33q4.68-10.38,12.21-13.63A41.44,41.44,0,0,1,338,167.07a31.85,31.85,0,0,1,6.31.61q14.64,2.83,19.52,16.47a45.49,45.49,0,0,1,2,7.73,48.09,48.09,0,0,1,.82,8.75,27.82,27.82,0,0,1-.61,5.89q-1.21,5.68-4.88,7.32a23.93,23.93,0,0,1-6.31,1.22,10.08,10.08,0,0,1-5.9-1.83q-2.24-2-2.23-10a48.48,48.48,0,0,1,.4-6.71ZM403.3,334.43a85,85,0,0,1-10.06-3.56,16.51,16.51,0,0,1-5.8-4.37,14.29,14.29,0,0,1-3.05-7.73l-1.22-7.72q-1.21-6.51-1.73-10.88a41.06,41.06,0,0,1-.1-8.65l.41-4.67q1.42-14.66,1.42-22.37a136.6,136.6,0,0,0-1-15.66,93.38,93.38,0,0,1-.81-13q0-7.73.61-14.44c.27-5.15.41-8.6.41-10.37q0-4.28-.21-6.51l-.2-6.71a45.35,45.35,0,0,1,1.12-10.57,23.58,23.58,0,0,1,4-8.54,21.32,21.32,0,0,1,7.32-6.61,45.41,45.41,0,0,1,10.58-3.36c.68-.13,2.17-.47,4.47-1a19.17,19.17,0,0,1,4.68-.61,46.35,46.35,0,0,1,11.59,2,12.17,12.17,0,0,1,5.39,2.74,19.31,19.31,0,0,1,2.95,3.77c.81,1.35,1.36,2.3,1.63,2.84q6.11,10.38,5.08,24.61-1,16.27-1,26.64,0,12,1,23.8.4,3.86.41,11,0,7.93-.61,14.44-.4,9.34-.21,13,.4,9,.41,11.8,0,10.36-2.24,15.65a29.07,29.07,0,0,1-8.13,10.38,24.68,24.68,0,0,1-8.34,4.37,33.38,33.38,0,0,1-10,1.52,30.43,30.43,0,0,1-8.75-1.22Zm7.93-17.69q4.68-.81,6.31-2t2.84-5.49q1.83-9.36,1.83-30.51,0-9-.4-18.71-.21-5.69-1-21.76-1.21-21.15-1.22-31.52,0-6.91.2-10.17.21-7.94-1-9.76-2-3.25-4.68-3.25a7.83,7.83,0,0,0-2.64.61q-4.49,1.64-6.31,4.27a21.53,21.53,0,0,0-2.85,8.13,94.54,94.54,0,0,0-1.42,17.09l.2,12.6q.62,18.1.41,23.8c-.13,3-.17,6.17-.1,9.56s.1,5.89.1,7.52q.19,2.85.2,7.93a72.55,72.55,0,0,1-.4,9.36,91.3,91.3,0,0,0-.61,9.55,47.72,47.72,0,0,0,2,13.43,36.57,36.57,0,0,1,1,4.27,7.1,7.1,0,0,0,1.63,4.06,5,5,0,0,0,3.66,1.22,9.91,9.91,0,0,0,2.23-.2ZM513.32,332c-1,.14-2.1.34-3.46.61a17.59,17.59,0,0,1-3.25.41,9,9,0,0,1-4.27-1.22,7.48,7.48,0,0,1-2.85-2.75,8.39,8.39,0,0,1-.81-4,67.15,67.15,0,0,1,.81-8.75,55.91,55.91,0,0,0,1-10.16,44.56,44.56,0,0,0-.61-6.92,46,46,0,0,1-.41-7.32v-7.12q0-5.28-.2-8.33a21,21,0,0,0-1.63-6.72q-1.43-3.45-1.83-4.27-2-5.49-5.9-5.49a8.61,8.61,0,0,0-4.06,1.43,17.58,17.58,0,0,0-3.46,2.74,12.85,12.85,0,0,0-2.24,3.76,16.12,16.12,0,0,0-.61,5.49q0,1.43-.2,7.73t-1.42,17.7a43.13,43.13,0,0,0,.61,10.37,100.42,100.42,0,0,1,.81,11.18q0,5.7-3.25,9.05a10.64,10.64,0,0,1-7.94,3.36,15.82,15.82,0,0,1-3.86-.72,4.69,4.69,0,0,1-2.44-2.33,20,20,0,0,1-2.24-7.32l-.2-5.5q-.81-16.26-.81-26,0-11,.81-19.32.61-6.49.61-11,0-3.66-.2-6.1a55.22,55.22,0,0,1-.21-5.69q0-5.08.21-7.73l.2-8.54a95.1,95.1,0,0,0-.61-10.58,159.58,159.58,0,0,1-1-16.67q0-6.31.82-16.47c.13-1.36.2-3,.2-4.88a17.09,17.09,0,0,1,.61-4.89q1.43-5.49,5.19-7.93a12.88,12.88,0,0,1,8.84-1.83,25.26,25.26,0,0,0,3.87.21c2.85,0,5-.07,6.5-.21l7.12-.2a53.1,53.1,0,0,1,9.36.71,12.7,12.7,0,0,1,6.5,3.15,47.74,47.74,0,0,1,7.73,8.85,29.55,29.55,0,0,1,4.07,9.86,100.38,100.38,0,0,1,1.42,18.92q0,10.16-1,14.23l-1,4.48A106.66,106.66,0,0,1,516,239.77a18.23,18.23,0,0,1-3.66,6q-2.44,2.83-2.44,5.28a7.11,7.11,0,0,0,.72,3.26,20,20,0,0,0,1.83,2.95c.74,1,1.38,1.93,1.93,2.74a34.19,34.19,0,0,1,4.27,19.32q-.61,11-.61,17.29,0,5.49.41,12.4.4,7.13.2,11.39a24.39,24.39,0,0,1-1.22,7.73q-1.21,3.66-4.07,3.86Zm-26.44-89.88a9.35,9.35,0,0,0,6.92-2.65,23.09,23.09,0,0,0,5.39-8.23,30.85,30.85,0,0,0,1.73-10.88,53,53,0,0,0-.61-8.34,36.89,36.89,0,0,0-.31-4.07,43.48,43.48,0,0,1-.3-4.88c0-1.09.13-3,.4-5.69.27-3.93-.27-6.65-1.62-8.14a7.87,7.87,0,0,0-4.28-1.93,16.65,16.65,0,0,0-5.49-.1,27.82,27.82,0,0,1-3.66.2,13.68,13.68,0,0,0-3.66.41,4.52,4.52,0,0,0-2.44,1.83,6.67,6.67,0,0,0-1,5.08q.4,6.92.4,10.17l-.2,10.78q-.19,3-.2,9.15,0,8.53,1.22,12.61a10.85,10.85,0,0,0,1.42,3.15,3.75,3.75,0,0,0,2.85,1.32Zm64.67-57.76a100.87,100.87,0,0,0,1.63,14.14q1.22,6.19,5.9,17.18.61,1.83,1.83,4.88t2,4.68c.54,1.08,1,1.62,1.43,1.62.81,0,1.56-2.3,2.23-6.91q.21-1.22,1-4.68a31,31,0,0,1,1.83-5.69,43.71,43.71,0,0,0,3.46-10,108.72,108.72,0,0,0,1.62-11,35.17,35.17,0,0,1,2.85-11.39,14.34,14.34,0,0,1,8.54-7.52,10,10,0,0,1,3.05-.61,5,5,0,0,1,4.07,1.73,8.62,8.62,0,0,1,1.83,4.17l.2,1.83a6.22,6.22,0,0,1-.61,2.84,45.83,45.83,0,0,0-1.62,6.31,26.59,26.59,0,0,1-1.63,7.32,28.76,28.76,0,0,0-2.14,6.81c-.47,2.51-.78,4.1-.91,4.78-.54,3.25-1,5.63-1.43,7.12l-1.42,6.1q-.62,2.64-1,4.68-1.42,7.72-2.94,12.91a58.62,58.62,0,0,1-3.77,9.66,30.78,30.78,0,0,0-2.13,6.1q-.71,3-1.32,7.53a26.63,26.63,0,0,0-.21,4.27q0,4.67.21,7.52l.2,10a68.14,68.14,0,0,1-.61,10,93.18,93.18,0,0,0-.81,13l.2,9.76a86.31,86.31,0,0,1,.2,9.76c-.13,1.22-.34,2.47-.61,3.76a8.78,8.78,0,0,1-1.42,3.36,8.45,8.45,0,0,1-6.51,2.64,17.59,17.59,0,0,1-3.25-.41,14.72,14.72,0,0,1-5-2.23c-1.29-.95-2.35-2.72-3.16-5.29a28,28,0,0,1-.81-7.73,100,100,0,0,1,1-13.22q.81-8.53.81-12a22.63,22.63,0,0,0-.2-3.66,68.38,68.38,0,0,1-.41-7.52c0-2.57.07-4.61.2-6.1l.21-10.37a19.76,19.76,0,0,0-1-6.31q-1-3-3.25-8.13-2.65-5.49-4.48-15.46l-2.23-9-5.5-19.52q-1.43-5.49-2.23-9.35a85.11,85.11,0,0,0-3.66-13.22,10.81,10.81,0,0,1-1-4.88,12.31,12.31,0,0,1,2.24-7.12,4.56,4.56,0,0,1,2.64-1.93,9.28,9.28,0,0,1,2.75-.21c.88.07,1.45.11,1.72.11a17,17,0,0,1,5.5,1.32,8,8,0,0,1,3.25,4,23.46,23.46,0,0,1,2.64,9.56Z"/></g></g><g id="_88e8f4ff-8aad-424b-acb6-46860977f6ce" data-name="88e8f4ff-8aad-424b-acb6-46860977f6ce"><g id="de3ab6b2-f3d0-4e71-a148-18388abd754b"><path class="cls-2" d="M90.77,116.23a5.39,5.39,0,0,1-1.18.2,6.05,6.05,0,0,1-2.56-.79,2.89,2.89,0,0,1-1.38-1.38,3.52,3.52,0,0,1-.4-2c.13-1.71.2-3,.2-4l-.1-4.73c-.13-2.11-.2-3.72-.2-4.84a38.43,38.43,0,0,1,.3-4.83,35.57,35.57,0,0,0,.29-4.44L85.65,85c-.13-2-.2-3.48-.2-4.53s0-2.54.15-4.05.14-2.63.14-3.35c.07-1,.13-2.42.2-4.29s.1-3.6.1-5.18q0-5.62-.49-10.75a54.79,54.79,0,0,1-.3-5.72c0-1,.07-2.4.2-4.25a4.81,4.81,0,0,1,1.63-3.45,9.87,9.87,0,0,1,4.38-1.77,18.29,18.29,0,0,1,3.85-.3l5,.1c1.19-.13,2.08-.2,2.67-.2a6,6,0,0,1,2.66.5,11.24,11.24,0,0,1,5,3.74A17.49,17.49,0,0,1,113.36,47a80.22,80.22,0,0,1,1.78,8.09,41.76,41.76,0,0,1,.69,7.39,35,35,0,0,1-1.09,8.59l-1,4.14a25.87,25.87,0,0,1-1.09,4.14q-2.76,6.12-8.78,6.12a11.82,11.82,0,0,0-3.65.69,16.73,16.73,0,0,1-3.25.69,2,2,0,0,0-1.38.49,2.18,2.18,0,0,0-.4.89,3.8,3.8,0,0,0-.1.69,44.7,44.7,0,0,0-.69,7.89,59.62,59.62,0,0,0,.3,6c.13,2.49.2,4.33.2,5.52,0,.73-.07,1.88-.2,3.45A6.12,6.12,0,0,1,93.63,115a6.78,6.78,0,0,1-2.86,1.28Zm7.4-39.45a8.69,8.69,0,0,0,2.67-.45l1.77-.54a2.43,2.43,0,0,0,1.63-2,24,24,0,0,0,.64-3.55c.13-1.25.23-2.18.3-2.77a41.6,41.6,0,0,0,.39-5.82,64.41,64.41,0,0,0-.39-6.6,23.45,23.45,0,0,1-.3-3.46q0-3.94-3.35-4.63a3.34,3.34,0,0,0-1-.1,9.35,9.35,0,0,0-2,.29c-.83.2-1.5.33-2,.4a1.3,1.3,0,0,0-1.24.89,11,11,0,0,0-.34,2.27,22.92,22.92,0,0,0-.2,2.76l.1,4.83c.13,2.63.2,4.61.2,5.92q0,1.68-.3,9.07a3.9,3.9,0,0,0,.74,2.62,3.51,3.51,0,0,0,2.71.84Zm55.24,39.65a4.6,4.6,0,0,1-1.58.2,15.71,15.71,0,0,1-1.92-.1c-.56-.07-1-.13-1.43-.2a2,2,0,0,1-.89-.25,1,1,0,0,1-.59-.64,3.84,3.84,0,0,1-.3-2.27l.5-2.76.39-2.46c.53-3.55.94-6.55,1.23-9s.48-5,.55-7.69a71.82,71.82,0,0,1,.88-7.6,53.66,53.66,0,0,0,.89-6.51q.2-3.94,1.38-11.64.79-5.72,1.09-8.48c.26-3.29.42-5.52.49-6.71.13-3,.3-5.2.49-6.71a20.84,20.84,0,0,1,.45-2.86,3.75,3.75,0,0,1,1-1.77,6.6,6.6,0,0,1,4.84-1.58,13.17,13.17,0,0,1,3.35.39,3,3,0,0,1,.64.1,2.39,2.39,0,0,1,.74.3,3,3,0,0,1,1.09,1.58,20.89,20.89,0,0,1,.78,5.32l.2,2.37c.39,3,.89,5.75,1.48,8.38.07.53.23,1.48.49,2.87l.6,3.15a145.68,145.68,0,0,1,2.27,16.28l.19,5.82q0,2.07.2,5.82c.07.65.23,1.87.49,3.65.07.72.17,1.57.3,2.56s.26,2.2.39,3.65l.4,4.44a69.12,69.12,0,0,1,.59,7.4c0,1.31,0,2.3-.1,3a2,2,0,0,1-1,1.62,3.28,3.28,0,0,1-2.26.35l-1.48-.1a10,10,0,0,1-2.52-.25,1.33,1.33,0,0,1-1-1.33c-.07-.53-.13-1.13-.2-1.82s-.17-1.5-.3-2.42c-.13-1.31-.19-2.23-.19-2.76l.09-2.47a4.67,4.67,0,0,0-.29-1.77c-.13-.33-.66-.5-1.58-.5-1.31-.13-2.33-.19-3.06-.19s-1.64.06-3,.19a1.93,1.93,0,0,0-1.18.5,2.51,2.51,0,0,0-.59,1.28,14.88,14.88,0,0,0-.3,2.37,11.27,11.27,0,0,1-.49,2.76,3.51,3.51,0,0,0-.2,1.28l.1,1.48a5.74,5.74,0,0,1-.39,2.61,3.41,3.41,0,0,1-1.78,1.14Zm9.86-22.19a1,1,0,0,0,.79-.3,2.06,2.06,0,0,0,.2-1.18,53.93,53.93,0,0,1-.39-6.42,32.9,32.9,0,0,0-.2-4.34l-.4-4.43a21,21,0,0,0-.1-2.47,47.71,47.71,0,0,0-.69-5.23,44.78,44.78,0,0,1-.59-5.62,4.42,4.42,0,0,0-.19-1.87.63.63,0,0,0-.6-.4q-.28,0-.54.54a4.38,4.38,0,0,0-.34,1.33l-.3,2.67q-.58,4.33-.69,6.9a18.08,18.08,0,0,1-.1,2c-.07.63-.13,1.2-.2,1.73-.26,2.23-.42,4.34-.49,6.31,0,1.32,0,2.37-.1,3.16,0,2.3,0,4.11-.1,5.43,0,.06,0,.27-.05.64a1.28,1.28,0,0,0,.15.83,1.65,1.65,0,0,0,1.48.6h1.58a8.57,8.57,0,0,1,1.58.1ZM238,116.13q-.69.11-1.68.3a8.56,8.56,0,0,1-1.57.2,4.33,4.33,0,0,1-2.08-.6,3.69,3.69,0,0,1-1.38-1.33,4.09,4.09,0,0,1-.39-1.92,32.63,32.63,0,0,1,.39-4.24,27.19,27.19,0,0,0,.5-4.93,21.49,21.49,0,0,0-.3-3.36,22.3,22.3,0,0,1-.2-3.55V93.25c0-1.71,0-3.06-.1-4a10.05,10.05,0,0,0-.78-3.25c-.46-1.12-.76-1.81-.89-2.07-.66-1.78-1.61-2.67-2.86-2.67a4.11,4.11,0,0,0-2,.7,8.3,8.3,0,0,0-1.67,1.33A6.33,6.33,0,0,0,222,85.06a8.1,8.1,0,0,0-.29,2.66c0,.47,0,1.72-.1,3.75s-.3,4.9-.69,8.58a21,21,0,0,0,.29,5,47,47,0,0,1,.4,5.42A6.06,6.06,0,0,1,220,114.9a5.15,5.15,0,0,1-3.85,1.63,7.51,7.51,0,0,1-1.87-.35,2.28,2.28,0,0,1-1.18-1.13A9.71,9.71,0,0,1,212,111.5l-.1-2.67q-.39-7.89-.39-12.62c0-3.55.13-6.68.39-9.37.2-2.11.3-3.88.3-5.33,0-1.18,0-2.17-.1-3a26.25,26.25,0,0,1-.1-2.76c0-1.65,0-2.9.1-3.75l.1-4.14a45.71,45.71,0,0,0-.3-5.13,77.36,77.36,0,0,1-.49-8.09q0-3.06.39-8a22.79,22.79,0,0,0,.1-2.37,8.11,8.11,0,0,1,.3-2.36,6.22,6.22,0,0,1,2.51-3.85,6.31,6.31,0,0,1,4.29-.89,12.22,12.22,0,0,0,1.88.1c1.38,0,2.43,0,3.15-.1l3.46-.1a25.42,25.42,0,0,1,4.53.35A6.18,6.18,0,0,1,235.18,39a23,23,0,0,1,3.75,4.29,14.32,14.32,0,0,1,2,4.78,48.72,48.72,0,0,1,.69,9.18,32.55,32.55,0,0,1-.49,6.9l-.49,2.17a51.34,51.34,0,0,1-1.29,5.08,9.17,9.17,0,0,1-1.77,2.91,4.09,4.09,0,0,0-1.19,2.56,3.5,3.5,0,0,0,.35,1.58,9.18,9.18,0,0,0,.89,1.43c.36.49.67.94.93,1.33a16.68,16.68,0,0,1,2.08,9.38q-.3,5.32-.3,8.38,0,2.66.2,6c.13,2.3.16,4.14.1,5.52a11.69,11.69,0,0,1-.6,3.75c-.39,1.18-1,1.8-2,1.87Zm-12.82-43.6a4.54,4.54,0,0,0,3.35-1.28,11.11,11.11,0,0,0,2.62-4A15.16,15.16,0,0,0,232,62a26.84,26.84,0,0,0-.29-4,18.48,18.48,0,0,0-.15-2,20.34,20.34,0,0,1-.15-2.36c0-.53.07-1.45.2-2.77.13-1.91-.13-3.22-.79-3.94a3.84,3.84,0,0,0-2.07-.94,8.22,8.22,0,0,0-2.66-.05,12.32,12.32,0,0,1-1.78.1,6.77,6.77,0,0,0-1.78.2,2.19,2.19,0,0,0-1.18.89,3.23,3.23,0,0,0-.49,2.46c.13,2.24.2,3.88.2,4.93l-.1,5.23c-.07,1-.1,2.47-.1,4.44a23.35,23.35,0,0,0,.59,6.12,5.29,5.29,0,0,0,.69,1.52,1.82,1.82,0,0,0,1.38.65Zm68.16-35.31a18.39,18.39,0,0,0,3.45.2,40.36,40.36,0,0,1,5.23.2,2.74,2.74,0,0,1,1.82,1.58A15.42,15.42,0,0,1,305,43a4.38,4.38,0,0,1,.09,1.09,4.12,4.12,0,0,1-.34,1.67,2.72,2.72,0,0,1-.94,1.19,2.38,2.38,0,0,1-1.18.19,7.85,7.85,0,0,1-1.48-.09,25.88,25.88,0,0,0-4.34.19,26.17,26.17,0,0,1-5.43.2,2.85,2.85,0,0,0-1.82.25,1.35,1.35,0,0,0-.44,1.13c0,1.12,0,2.11-.1,3-.13,2.37-.2,4.37-.2,6a27.39,27.39,0,0,0,.49,6.11c.07.27.15.74.25,1.43a2.65,2.65,0,0,0,.64,1.53,3.54,3.54,0,0,0,1.48.64,11.56,11.56,0,0,0,2.07.15,8,8,0,0,0,1.38-.1,6.22,6.22,0,0,1,1.09-.1,4.21,4.21,0,0,1,1.77.4,3.87,3.87,0,0,1,1,.59,3.72,3.72,0,0,1,.74,1.09,5.35,5.35,0,0,1,.44,2.56c0,1-.05,1.71-.05,2q0,2.86-4.63,2.86a8.56,8.56,0,0,1-1.29-.1,10.66,10.66,0,0,0-1.38-.09,4,4,0,0,0-1.28.19,6.58,6.58,0,0,0-1.82.94,2.52,2.52,0,0,0-.35,1.63,17.6,17.6,0,0,0,.1,2.17l.1,3.15c0,.59-.07,1.61-.2,3.06a22.24,22.24,0,0,0-.1,2.57l.1,5.13a41.31,41.31,0,0,1-.79,8.68,1.44,1.44,0,0,0,.35,1.43,2.2,2.2,0,0,0,1.62.54,5.08,5.08,0,0,0,1.19-.1,14,14,0,0,1,2.76-.3,15.92,15.92,0,0,1,3.16.3c1.18.13,2.07.2,2.66.2a4.63,4.63,0,0,1,2.27.49,5.46,5.46,0,0,1,1.87,1.78,6,6,0,0,1,.3,3.15,6.16,6.16,0,0,1-.59,2,5.27,5.27,0,0,1-1.29,1.73,4.43,4.43,0,0,1-3.84.79,21.93,21.93,0,0,0-3.65-.3c-1.05,0-2.63.07-4.74.2a39.88,39.88,0,0,1-4.83.3,20.15,20.15,0,0,1-3.55-.3,5.64,5.64,0,0,1-2.66-.94,2.48,2.48,0,0,1-.69-2.22q.69-6.9.69-13.61c0-2,0-3.45-.1-4.44q-.4-8-.4-25.15c0-.79,0-1.72.1-2.81s.13-1.89.2-2.42c.07-.79.13-1.72.2-2.81s.09-2.35.09-3.8c0-1.05,0-2.21-.09-3.5s-.13-2.25-.2-2.91a58.48,58.48,0,0,1-.3-5.91c0-.79.07-2,.2-3.75a5.13,5.13,0,0,1,1.38-3.26,4.26,4.26,0,0,1,3.16-1.18c1.38,0,3.06-.07,5-.2,1.58-.13,2.6-.2,3.06-.2a6.31,6.31,0,0,1,1.38.1ZM341,101.44q0-3.64.1-6.71c.07-2,.13-3.82.19-5.33q.4-8.88.4-13.91,0-2.46-.2-7.39c-.07-1.19-.1-2.93-.1-5.23q0-5,.3-9.77.3-6.1.2-10.26a9.35,9.35,0,0,1,.39-3.69,3,3,0,0,1,2-1.73,3.34,3.34,0,0,1,1-.1,20.51,20.51,0,0,1,2.42.2,11.25,11.25,0,0,0,2.51.1c1.05-.13,1.81.59,2.27,2.17q2.07,6.1,3.5,11.39a99.2,99.2,0,0,1,2.32,11.2l1,7q1.08,8.09,1.77,12.23T362.62,87c.27.4.27-.85,0-3.74a59.39,59.39,0,0,1-.39-8.78,76.54,76.54,0,0,0,.39-8.09q0-2.27-.15-5.13c-.1-1.91-.15-3.32-.15-4.24q-.29-4.44-.29-8.58a54.18,54.18,0,0,1,.39-6.81,9.79,9.79,0,0,1,.69-3c.27-.46,1-.79,2.27-1,.2-.07.76-.18,1.68-.35a5.35,5.35,0,0,1,2.17,0,3.92,3.92,0,0,1,2.37,1.43,4.26,4.26,0,0,1,.39,2.71q-.8,8.3-.79,16,0,3.16.2,8.68l.1,8.29q0,4.25-.3,9.27c0,.2-.1,1-.29,2.52a31.4,31.4,0,0,0-.3,4.19q0,6.21.2,10.16c.07,1.31.08,2.43.05,3.35s-.05,1.58-.05,2c-.07,1.25-.07,3,0,5.23q.19,5.82-3.26,5.33a3.87,3.87,0,0,0-1.28,0,10,10,0,0,1-1.28.1,3.65,3.65,0,0,1-1.68-.4,2.48,2.48,0,0,1-1.18-1.23,10,10,0,0,1-.69-2.12q-1.1-4.55-2.37-9-1.38-4.93-2.17-8.28a59.32,59.32,0,0,1-1.18-6.61,79.33,79.33,0,0,0-1.48-9q-1.38-8-1.78-13.51-.19-2.65-.69-5.67c-.33-2-.62-2.88-.89-2.62a3.2,3.2,0,0,0-.39,2c0,1,.07,2.47.2,4.44q.09,2.57-.3,8.68c-.27,3.55-.4,6.27-.4,8.18s.13,4.77.4,8.58c.07.92.13,2.07.2,3.46s.1,3,.1,4.73q.19,9.46.19,12.92a6,6,0,0,1-2.07,4.14,4.78,4.78,0,0,1-3.55,1.29,12.29,12.29,0,0,1-1.78-.2,2.74,2.74,0,0,1-1.82-.89,4.7,4.7,0,0,1-.74-2.27,7.77,7.77,0,0,1-.1-1.48l.1-2.36c.13-1.19.2-2.08.2-2.67Zm78.42-64.12q5.13.41,7.79.4a48.58,48.58,0,0,0,6.71-.4l1.18-.1a2.57,2.57,0,0,1,1.87.59,4.48,4.48,0,0,1,1.14,1.63,5.44,5.44,0,0,1,.44,2.12,4.39,4.39,0,0,1-.49,2,10.89,10.89,0,0,1-1.78,2.86,3.39,3.39,0,0,1-2.46.78,36.56,36.56,0,0,0-3.75.15A2.74,2.74,0,0,0,428,48.47a4,4,0,0,0-.5,2.12V52c0,.46,0,1.23.1,2.32s.1,2.64.1,4.68a67,67,0,0,1-.39,7.5,58.67,58.67,0,0,0-.4,7.2q0,4.25.4,8.58.19,6.51.19,11.24,0,6.51-.19,16.18l-.1,4.14c0,1-.13,1.6-.4,1.83a4.45,4.45,0,0,1-1.77.64l-1.33.25a9,9,0,0,1-1.33.14,3,3,0,0,1-1.48-.39,7.72,7.72,0,0,1-2.22-1.73,5.11,5.11,0,0,1-.74-2.41,60.92,60.92,0,0,1-.3-6.32q0-5.33.49-11.44c.07-1.05.13-2.2.2-3.45s.1-2.59.1-4V82.6c0-3.49,0-6.18-.1-8.09V71.25l.1-5.42c.07-1.12.1-2.76.1-4.93a60.3,60.3,0,0,0-1.28-12.53,3,3,0,0,0-.1-.64.79.79,0,0,0-.4-.59A1.74,1.74,0,0,0,416,47a18.59,18.59,0,0,0-2.26-.1h-2a9.7,9.7,0,0,1-2.91-.4,3,3,0,0,1-1-.64,3.37,3.37,0,0,1-.4-1.23,9.34,9.34,0,0,1-.29-2.17,5.11,5.11,0,0,1,1.08-3.25,9.76,9.76,0,0,1,1.38-1.58,2.85,2.85,0,0,1,1.58-.3c.73-.07,1.71-.1,3-.1h3.06Zm54.94,79.11a4.64,4.64,0,0,1-1.58.2,15.49,15.49,0,0,1-1.92-.1c-.56-.07-1-.13-1.43-.2a2,2,0,0,1-.89-.25,1,1,0,0,1-.59-.64,3.84,3.84,0,0,1-.3-2.27l.49-2.76.4-2.46c.53-3.55.94-6.55,1.23-9s.47-5,.54-7.69a75.35,75.35,0,0,1,.89-7.6,53.66,53.66,0,0,0,.89-6.51q.19-3.94,1.38-11.64.79-5.72,1.08-8.48c.27-3.29.43-5.52.5-6.71.13-3,.3-5.2.49-6.71a22.88,22.88,0,0,1,.44-2.86A3.85,3.85,0,0,1,477,39a6.58,6.58,0,0,1,4.83-1.58,13.25,13.25,0,0,1,3.36.39,3.13,3.13,0,0,1,.64.1,2.39,2.39,0,0,1,.74.3,2.9,2.9,0,0,1,1.08,1.58,20.36,20.36,0,0,1,.79,5.32l.2,2.37c.39,3,.89,5.75,1.48,8.38.07.53.23,1.48.49,2.87l.59,3.15a141,141,0,0,1,2.27,16.28l.2,5.82q0,2.07.2,5.82c.07.65.23,1.87.49,3.65.07.72.17,1.57.3,2.56s.26,2.2.39,3.65l.4,4.44a69.12,69.12,0,0,1,.59,7.4c0,1.31,0,2.3-.1,3a2,2,0,0,1-1,1.62,3.31,3.31,0,0,1-2.27.35l-1.48-.1a10,10,0,0,1-2.51-.25,1.35,1.35,0,0,1-1-1.33c-.07-.53-.13-1.13-.19-1.82s-.17-1.5-.3-2.42c-.13-1.31-.2-2.23-.2-2.76l.1-2.47a4.67,4.67,0,0,0-.29-1.77c-.13-.33-.66-.5-1.58-.5-1.32-.13-2.34-.19-3.06-.19s-1.65.06-3,.19a1.93,1.93,0,0,0-1.18.5,2.51,2.51,0,0,0-.59,1.28,14.88,14.88,0,0,0-.3,2.37,11.27,11.27,0,0,1-.49,2.76,3.51,3.51,0,0,0-.2,1.28l.1,1.48a5.57,5.57,0,0,1-.4,2.61,3.33,3.33,0,0,1-1.77,1.14Zm9.86-22.19a1.06,1.06,0,0,0,.79-.3,2.06,2.06,0,0,0,.2-1.18,52,52,0,0,1-.4-6.42,33.38,33.38,0,0,0-.19-4.34l-.4-4.43a21,21,0,0,0-.1-2.47,47.71,47.71,0,0,0-.69-5.23,44.78,44.78,0,0,1-.59-5.62,4.33,4.33,0,0,0-.2-1.87.62.62,0,0,0-.59-.4q-.29,0-.54.54a4.68,4.68,0,0,0-.35,1.33l-.29,2.67q-.58,4.33-.69,6.9a18.08,18.08,0,0,1-.1,2c-.07.63-.13,1.2-.2,1.73-.26,2.23-.42,4.34-.49,6.31,0,1.32,0,2.37-.1,3.16,0,2.3,0,4.11-.1,5.43,0,.06,0,.27,0,.64a1.28,1.28,0,0,0,.15.83,1.63,1.63,0,0,0,1.48.6h1.58a8.57,8.57,0,0,1,1.58.1Zm58.1-40.74q-.4,4.83-.4,12.52c0,.93,0,3.11-.09,6.56s-.23,6.63-.5,9.52a25,25,0,0,0-.1,2.67c0,1.25.07,2.61.2,4.09s.23,2.48.3,3a39.26,39.26,0,0,1,.39,7.1q-.39,5.32,2.57,6.71a8.94,8.94,0,0,0,4,.79,10.26,10.26,0,0,0,1.68-.1c.33-.07.74-.13,1.23-.2a13.38,13.38,0,0,1,1.83-.1,4.6,4.6,0,0,1,2.41.4,5.22,5.22,0,0,1,1.23,1.57,5.45,5.45,0,0,1,.89,3.16,9.93,9.93,0,0,1-1,4,1.79,1.79,0,0,1-1.24,1.09,10.13,10.13,0,0,1-2.22.2,21,21,0,0,1-2.46-.1l-7.1-.1q-3.56,0-5.82.2a4.52,4.52,0,0,1-4-2,5.61,5.61,0,0,1-.89-1.87,8.46,8.46,0,0,1-.39-2.47l.1-4.53c.07-1,.1-2.47.1-4.44s-.1-3.85-.3-6a66.07,66.07,0,0,1-.39-7.89,28.66,28.66,0,0,1,.29-4.73,26.91,26.91,0,0,0,.2-4.15l-.1-5.92c-.07-.92-.1-2-.1-3.35-.07-2,0-5,.1-9q.2-4.74.2-7.11a71,71,0,0,0-.59-10,16.53,16.53,0,0,1-.2-2,3.82,3.82,0,0,1,1.08-3,3.73,3.73,0,0,1,1.83-.69,13.24,13.24,0,0,1,1.92-.2,5.07,5.07,0,0,1,2.22.35,4,4,0,0,1,1.18,1c.37.43.65.74.84.94A4.91,4.91,0,0,1,542.44,43l.1,6c0,1-.07,2.47-.2,4.44Z"/></g></g></g></g></svg>