<svg xmlns="http://www.w3.org/2000/svg" viewBox="0 0 983.29 632.98"><defs><style>.cls-1{fill:#2d2d2d;}</style></defs><title>Asset 5mdpi</title><g id="Layer_2" data-name="Layer 2"><g id="Layer_1-2" data-name="Layer 1"><g id="_29d69221-fb9d-49b1-9a12-6ec1caa035ec" data-name="29d69221-fb9d-49b1-9a12-6ec1caa035ec"><g id="_53306970-9130-4e03-a1c6-68f0e4ede48e" data-name="53306970-9130-4e03-a1c6-68f0e4ede48e"><path class="cls-1" d="M98.33,453.31c0,97.43,5.36,108.16,55.42,108.16s55.42-10.73,55.42-108.16-5.36-108.16-55.42-108.16S98.33,355.87,98.33,453.31Zm55.42-179.67c122.91,0,153.75,35.75,153.75,179.67S276.66,633,153.75,633,0,597.23,0,453.31,30.84,273.64,153.75,273.64ZM555.11,523c0-31.73-10.73-37.54-68.83-37.54H432.2V414H489c50.51,0,59.89-5.37,59.89-34.86,0-28.61-9.38-34-59.89-34-49.61,0-59,3.13-59,29.05H345c0-80.45,28.61-100.56,143.92-100.56,115.76,0,144.81,18.77,144.81,93.86,0,50.5-15.64,76-51.4,82.23,42.91,5.81,62.13,33.08,62.13,87.61C644.5,613.76,613.21,633,489,633c-120.23,0-150.17-21.45-150.17-107.26h89.39c0,32.18,5.81,35.75,58.1,35.75C544.38,561.47,555.11,555.21,555.11,523ZM859,566.39h-190V511l2.24-1.34L875.57,274.08H889v-.44h55V490.41h39.33v76H944v61.23H859Zm0-76V384.93L767.86,490.41Z"/></g></g><g id="_5af327bd-2d63-42f0-83c9-28f183470752" data-name="5af327bd-2d63-42f0-83c9-28f183470752"><g id="_520fc52c-21d0-4613-b081-3ee253e50732" data-name="520fc52c-21d0-4613-b081-3ee253e50732"><path class="cls-1" d="M127.84,106.73Q126,132,109.15,146.57T64.73,161.11q-30.17,0-47.44-20.3T0,85.08V75.49q0-22.6,8-39.85T30.75,9.2Q45.55,0,65.16,0,92.3,0,108.89,14.54t19.17,40.81H95.75q-1.19-15.18-8.46-22T65.16,26.49Q49,26.49,41,38.07T32.74,74V85.83q0,25.42,7.7,37.16t24.29,11.74q15,0,22.35-6.84t8.45-21.16Zm150-22.62q0,23.15-8.18,40.6t-23.42,26.93q-15.24,9.47-34.95,9.47-19.5,0-34.79-9.37T152.83,125q-8.4-17.39-8.51-40V77.22q0-23.16,8.35-40.77t23.58-27Q191.49,0,211.09,0t34.84,9.42q15.24,9.42,23.59,27t8.34,40.66ZM245.12,77q0-24.66-8.83-37.48t-25.2-12.81q-16.26,0-25.09,12.65t-8.94,37.1v7.65q0,24,8.83,37.26t25.42,13.25q16.26,0,25-12.76t8.83-37.21Zm56.22,82V2.15h48.25q20.69,0,37,9.32A65.05,65.05,0,0,1,412.06,38q9.15,17.17,9.15,39v7.22q0,21.86-9,38.88a64.42,64.42,0,0,1-25.36,26.38q-16.37,9.38-36.94,9.48ZM333.65,28.32V133h15.62q18.94,0,29-12.38t10.23-35.43v-8.3q0-23.91-9.91-36.24t-29-12.33ZM539,91H477v42h72.8v26H444.69V2.15h104.9V28.32H477V65.69h62Zm29.19,52.67a15.69,15.69,0,0,1,5-12.07,19.46,19.46,0,0,1,25.2,0,15.69,15.69,0,0,1,5,12.07,15.43,15.43,0,0,1-5,11.9q-5,4.58-12.7,4.57a17.88,17.88,0,0,1-12.61-4.57A15.46,15.46,0,0,1,568.22,143.67Zm0-88.21a15.67,15.67,0,0,1,5-12.06,19.46,19.46,0,0,1,25.2,0,15.67,15.67,0,0,1,5,12.06,15.43,15.43,0,0,1-5,11.9q-5,4.58-12.7,4.58a17.88,17.88,0,0,1-12.61-4.58A15.46,15.46,0,0,1,568.22,55.46Z"/></g></g></g></g></svg>