<svg xmlns="http://www.w3.org/2000/svg" viewBox="0 0 1676.87 404.58"><defs><style>.cls-1,.cls-2,.cls-4{fill:none;}.cls-2,.cls-3{stroke:#fff;}.cls-2,.cls-3,.cls-4,.cls-5{stroke-linecap:round;}.cls-2,.cls-3,.cls-4{stroke-miterlimit:10;}.cls-2{stroke-width:8.11px;}.cls-3,.cls-5,.cls-7{fill:#fff;}.cls-3{stroke-width:2.35px;}.cls-4,.cls-5{stroke:#af3c00;}.cls-4{stroke-width:8.07px;}.cls-5{fill-opacity:0;stroke-linejoin:round;stroke-width:8.32px;}.cls-6{fill:#af3c00;}</style></defs><title>Asset 40mdpi</title><g id="Layer_2" data-name="Layer 2"><g id="Layer_1-2" data-name="Layer 1"><g id="f6784be0-6363-4f06-b137-8084f0f0a36b"><g id="f6784be0-6363-4f06-b137-8084f0f0a36b-child-0"><path class="cls-1" d="M4,399.89V4H405.41v395.9Z"/></g></g><g id="_3c1f659b-21df-4567-bd35-b5a204edc5a0" data-name="3c1f659b-21df-4567-bd35-b5a204edc5a0"><g id="_3c1f659b-21df-4567-bd35-b5a204edc5a0-child-0" data-name="3c1f659b-21df-4567-bd35-b5a204edc5a0-child-0"><path class="cls-2" d="M4.06,400.52V4.06H1672.81V400.52Z"/></g></g><g id="_094d76e2-cdf6-4a90-be4d-19d18b69e003" data-name="094d76e2-cdf6-4a90-be4d-19d18b69e003"><g id="_094d76e2-cdf6-4a90-be4d-19d18b69e003-child-0" data-name="094d76e2-cdf6-4a90-be4d-19d18b69e003-child-0"><path class="cls-3" d="M405.26,205.43V198.9H1673.71v6.53Z"/></g></g><g id="f83c7bb6-8d7d-43fa-87c8-e312894694fa"><g id="f83c7bb6-8d7d-43fa-87c8-e312894694fa-child-0"><path class="cls-3" d="M408.72,399.35h-6.53V5h6.53Z"/></g></g><g id="f01829b6-1bc9-4fd1-822e-e71b4ffa71e4"><g id="f01829b6-1bc9-4fd1-822e-e71b4ffa71e4-child-0"><path class="cls-4" d="M1312,103.33c0-27.91,55-50.54,122.93-50.54s122.93,22.63,122.93,50.54-55,50.54-122.93,50.54S1312,131.24,1312,103.33Z"/></g></g><g id="_934f2d1f-5cae-4e7e-8cbc-5d3fdf40f252" data-name="934f2d1f-5cae-4e7e-8cbc-5d3fdf40f252"><g id="_934f2d1f-5cae-4e7e-8cbc-5d3fdf40f252-child-0" data-name="934f2d1f-5cae-4e7e-8cbc-5d3fdf40f252-child-0"><path class="cls-4" d="M1344.17,103.33c0-27.91,40.63-50.54,90.75-50.54s90.75,22.63,90.75,50.54-40.63,50.54-90.75,50.54S1344.17,131.24,1344.17,103.33Z"/></g></g><g id="_59dc41c0-edb0-42a0-9da2-db4347bae3b5" data-name="59dc41c0-edb0-42a0-9da2-db4347bae3b5"><g id="_59dc41c0-edb0-42a0-9da2-db4347bae3b5-child-0" data-name="59dc41c0-edb0-42a0-9da2-db4347bae3b5-child-0"><path class="cls-4" d="M1383.16,103.33c0-27.91,23.18-50.54,51.76-50.54s51.76,22.63,51.76,50.54-23.17,50.54-51.76,50.54S1383.16,131.24,1383.16,103.33Z"/></g></g><g id="_7ff9e63b-46d8-4906-827e-3d3224c12778" data-name="7ff9e63b-46d8-4906-827e-3d3224c12778"><g id="_63fefe75-a8c9-4964-87e3-7ecf28981482" data-name="63fefe75-a8c9-4964-87e3-7ecf28981482"><path class="cls-5" d="M1435.59,79.2l0,1.21c0,.27,0,.53.05.8s0,.26,0,.39l.09.79.06.39c.05.26.09.51.13.77s0,.26.08.38.11.51.17.76l.09.38.21.75c0,.12.07.24.11.36l.24.74.13.36.27.71.15.35c.1.24.2.47.31.7s.11.23.16.34.23.46.34.68l.18.34.37.66.2.32.4.64.21.31.43.62.23.31.45.59.24.29.49.58c.08.09.17.18.25.28l.51.55.27.26.54.53.28.25.56.5.29.24.59.47.3.23.61.44.31.21.63.42.32.2.65.38.34.18.67.36.34.16.69.32.35.15.71.29.36.13.72.26.37.11.74.22.37.1.76.19.38.07.77.15.38.06.79.11.39,0,.79.07.4,0,.81,0h.4l0,0h26.23V104h-26.23l-1.21,0-.79,0-.4,0-.79.09-.38.06-.78.13-.38.08-.76.16-.38.1-.74.2-.37.12-.73.24-.36.13-.72.27-.35.15-.7.31-.34.16-.68.34-.33.18-.66.37-.33.2-.64.4-.31.21-.62.43-.3.22-.6.46-.29.24-.57.49-.28.25-.55.51-.27.27-.52.54-.26.27-.5.57-.24.29-.47.58-.22.31-.45.6-.21.32c-.14.21-.28.42-.41.63s-.14.21-.2.32l-.39.65-.18.33c-.11.23-.23.45-.35.68s-.11.22-.17.34-.21.46-.32.69l-.15.35c-.09.23-.19.47-.29.7s-.08.25-.13.37l-.25.72-.12.37c-.07.24-.15.49-.22.74s-.06.25-.1.37l-.18.75-.08.39-.15.77-.06.38c0,.26-.07.52-.1.78s0,.27,0,.4,0,.53-.08.79,0,.27,0,.4l0,.8V153.7h-1.29V127.48c0-.41,0-.81,0-1.21s0-.53,0-.8,0-.26,0-.39l-.09-.79-.06-.39-.12-.77c0-.13-.06-.26-.08-.38s-.11-.51-.17-.76l-.09-.38-.21-.75c0-.12-.07-.24-.11-.36l-.24-.74c0-.11-.09-.23-.13-.35s-.18-.48-.28-.72a3.65,3.65,0,0,0-.14-.35c-.11-.23-.21-.47-.31-.7s-.11-.23-.16-.34-.23-.46-.34-.68l-.18-.34c-.13-.22-.25-.44-.37-.66l-.2-.32-.4-.64-.21-.31-.43-.62-.23-.31-.46-.59-.24-.29-.48-.58a3.33,3.33,0,0,1-.25-.28c-.17-.18-.35-.36-.52-.55s-.17-.17-.26-.26l-.54-.53-.28-.25-.56-.5-.29-.24-.59-.47-.3-.23-.61-.44-.31-.21-.63-.42-.33-.2-.65-.38-.33-.18-.67-.36-.34-.16-.69-.32-.35-.15-.71-.29-.36-.13-.72-.26-.37-.11-.74-.22-.37-.1-.76-.18-.38-.08-.77-.15-.39-.06-.78-.11-.39,0-.79-.07-.4,0-.81,0h-26.63v-1.3h26.25l1.21,0,.79-.05.4,0,.78-.09.39-.06.78-.13.38-.08.76-.16.37-.1.75-.2.37-.12c.24-.08.49-.15.73-.24l.36-.13.72-.27.35-.15.7-.3a3.59,3.59,0,0,1,.34-.17l.68-.34.33-.18.66-.37.32-.19.64-.41.32-.21.62-.43.3-.22.6-.46.29-.24.57-.49.28-.25.55-.51.27-.27.52-.54.25-.27.5-.57.24-.29.48-.58.22-.3.45-.61.21-.32.41-.63c.07-.1.13-.21.2-.32s.26-.43.38-.65l.19-.33c.11-.23.23-.45.35-.68s.11-.22.17-.34.21-.46.32-.69l.15-.35c.09-.23.19-.47.29-.7s.08-.24.13-.36l.25-.73.12-.37c.07-.24.14-.49.22-.73l.09-.38c.06-.25.13-.5.19-.75s0-.26.08-.39.09-.51.14-.76l.06-.39c0-.26.08-.52.11-.78s0-.27,0-.4,0-.52.07-.79,0-.26,0-.4,0-.53,0-.8V53h1.3Z"/></g><g id="_7ff9e63b-46d8-4906-827e-3d3224c12778-child-0" data-name="7ff9e63b-46d8-4906-827e-3d3224c12778-child-0"><path class="cls-6" d="M1459.09,102.7a23.52,23.52,0,0,1-23.5-23.5V53h-1.3V79.18a23.52,23.52,0,0,1-23.49,23.5h-26.25V104h26.23a23.52,23.52,0,0,1,23.5,23.5V153.7h1.29V127.48a23.52,23.52,0,0,1,23.5-23.5h26.23v-1.3h-26.23Z"/></g></g><g id="_19640f06-fc3a-4322-b95b-43126359ec72" data-name="19640f06-fc3a-4322-b95b-43126359ec72"><g id="_20ffff3d-a926-49f4-9800-85d823fad3ab" data-name="20ffff3d-a926-49f4-9800-85d823fad3ab"><path class="cls-7" d="M569.37,242.13V268.9q0,6.68-4.18,10.56t-11.4,3.88q-7.12,0-11.31-3.77t-4.27-10.36V242.13h8.38V269q0,4,1.91,5.82a7.33,7.33,0,0,0,5.29,1.83q7.07,0,7.17-7.43V242.13Zm39.92,40.65h-8.38L584.61,256v26.75h-8.38V242.13h8.38l16.33,26.8v-26.8h8.35Zm7.31,0V242.13h12.51a19,19,0,0,1,9.59,2.42,16.79,16.79,0,0,1,6.6,6.86,21.12,21.12,0,0,1,2.38,10.12v1.87a21.18,21.18,0,0,1-2.34,10.08,16.66,16.66,0,0,1-6.57,6.84,19.15,19.15,0,0,1-9.58,2.46ZM625,248.92v27.13h4a9.1,9.1,0,0,0,7.51-3.21q2.6-3.21,2.65-9.18v-2.15c0-4.13-.86-7.27-2.57-9.4s-4.22-3.19-7.51-3.19Zm53.24,16.24H662.14v10.89H681v6.73H653.76V242.13H681v6.79H662.14v9.68h16.08ZM701,267.9H694.3v14.88h-8.38V242.13H701q7.2,0,11.11,3.21t3.91,9.08a12.49,12.49,0,0,1-1.8,6.93,12.31,12.31,0,0,1-5.46,4.43l8.79,16.61v.39h-9Zm-6.67-6.78h6.75a6.91,6.91,0,0,0,4.89-1.61,5.74,5.74,0,0,0,1.73-4.42,6.15,6.15,0,0,0-1.63-4.53,6.82,6.82,0,0,0-5-1.64H694.3Zm61.08,21.66h-8.07v-31.1l-9.63,3v-6.56l16.84-6h.86Zm40.85-36.13-15.72,36.13H772l15.75-34.12H767.53v-6.53h28.7Zm35.31,21.25h-6.67v14.88H816.5V242.13h15.1q7.2,0,11.11,3.21t3.91,9.08a12.49,12.49,0,0,1-1.8,6.93,12.31,12.31,0,0,1-5.46,4.43l8.79,16.61v.39h-9Zm-6.67-6.78h6.76a6.9,6.9,0,0,0,4.88-1.61,5.74,5.74,0,0,0,1.73-4.42,6.15,6.15,0,0,0-1.63-4.53,6.82,6.82,0,0,0-5-1.64h-6.73Zm52.57,4H861.36v10.89h18.87v6.73H853V242.13h27.2v6.79H861.36v9.68h16.08Zm41-1.78a24.45,24.45,0,0,1-1.84,9.89,17,17,0,0,1-5.11,6.75l6.75,5.3L913,290l-8.65-7a18.09,18.09,0,0,1-3.07.25,16.9,16.9,0,0,1-9-2.43,16.06,16.06,0,0,1-6.14-6.94,23.88,23.88,0,0,1-2.21-10.37v-2A24.49,24.49,0,0,1,886,251a16.2,16.2,0,0,1,6.12-7,17.87,17.87,0,0,1,18.06,0,16.2,16.2,0,0,1,6.12,7,24.41,24.41,0,0,1,2.16,10.54ZM910,261.53q0-6.39-2.29-9.71a8.08,8.08,0,0,0-13,0q-2.29,3.28-2.32,9.61v2q0,6.22,2.29,9.66a7.44,7.44,0,0,0,6.59,3.43,7.36,7.36,0,0,0,6.47-3.31q2.26-3.32,2.29-9.64Zm45.4-19.4V268.9q0,6.68-4.18,10.56t-11.4,3.88q-7.12,0-11.31-3.77t-4.27-10.36V242.13h8.38V269q0,4,1.91,5.82a7.33,7.33,0,0,0,5.29,1.83q7.07,0,7.17-7.43V242.13Zm15.77,40.65h-8.38V242.13h8.38ZM994,267.9H987.3v14.88h-8.38V242.13H994q7.22,0,11.12,3.21t3.9,9.08a12.49,12.49,0,0,1-1.8,6.93,12.33,12.33,0,0,1-5.45,4.43l8.79,16.61v.39h-9Zm-6.67-6.78h6.75a6.91,6.91,0,0,0,4.89-1.61,5.74,5.74,0,0,0,1.73-4.42,6.15,6.15,0,0,0-1.63-4.53,6.85,6.85,0,0,0-5-1.64H987.3Zm52.57,4h-16.08v10.89h18.87v6.73h-27.25V242.13h27.19v6.79h-18.81v9.68h16.08Zm28.78,7a4.3,4.3,0,0,0-1.68-3.65,21.68,21.68,0,0,0-6-2.68,42.82,42.82,0,0,1-6.89-2.78q-6.93-3.74-6.93-10.07a9.8,9.8,0,0,1,1.86-5.88,12.2,12.2,0,0,1,5.33-4,20.06,20.06,0,0,1,7.81-1.45,18.3,18.3,0,0,1,7.76,1.58,12.41,12.41,0,0,1,5.29,4.45,11.72,11.72,0,0,1,1.88,6.54h-8.37a5.47,5.47,0,0,0-1.76-4.34,7.24,7.24,0,0,0-4.94-1.55,7.78,7.78,0,0,0-4.78,1.29,4.12,4.12,0,0,0-1.7,3.42,3.93,3.93,0,0,0,2,3.33,22.5,22.5,0,0,0,5.87,2.51q7.16,2.15,10.42,5.33a10.63,10.63,0,0,1,3.26,7.93,9.78,9.78,0,0,1-4,8.28q-4,3-10.75,3a20.65,20.65,0,0,1-8.54-1.72,13.56,13.56,0,0,1-5.88-4.7,12,12,0,0,1-2-6.93h8.4q0,6.74,8,6.73a7.8,7.8,0,0,0,4.66-1.21,4,4,0,0,0,1.68-3.39Zm51.26,2.28h-14.69l-2.79,8.38h-8.91l15.14-40.65h7.76l15.21,40.65h-8.9Zm-12.43-6.78h10.17l-5.11-15.21Zm59.27,1.62a14.37,14.37,0,0,1-4.84,10.33q-4.37,3.76-11.52,3.77-7.82,0-12.29-5.26t-4.49-14.45v-2.49a24.33,24.33,0,0,1,2.07-10.33,15.57,15.57,0,0,1,5.9-6.85,16.55,16.55,0,0,1,8.92-2.39q7,0,11.34,3.77t5,10.58h-8.38q-.3-3.93-2.19-5.71c-1.25-1.18-3.17-1.77-5.74-1.77a7.11,7.11,0,0,0-6.26,3q-2.09,3-2.14,9.31v3.07c0,4.39.67,7.61,2,9.64s3.42,3,6.29,3q3.88,0,5.8-1.77a8.09,8.09,0,0,0,2.19-5.49Zm37.41,0a14.37,14.37,0,0,1-4.84,10.33q-4.36,3.76-11.52,3.77-7.82,0-12.29-5.26T1171,263.63v-2.49a24.33,24.33,0,0,1,2.07-10.33A15.57,15.57,0,0,1,1179,244a16.55,16.55,0,0,1,8.92-2.39q7,0,11.34,3.77t5,10.58h-8.38q-.3-3.93-2.19-5.71c-1.25-1.18-3.17-1.77-5.74-1.77a7.11,7.11,0,0,0-6.26,3q-2.09,3-2.14,9.31v3.07c0,4.39.67,7.61,2,9.64s3.42,3,6.29,3q3.89,0,5.8-1.77a8.09,8.09,0,0,0,2.19-5.49Zm38.89-5.86a24.57,24.57,0,0,1-2.12,10.52,16,16,0,0,1-6.07,7,17.93,17.93,0,0,1-18.08,0,16.13,16.13,0,0,1-6.14-6.94,23.88,23.88,0,0,1-2.21-10.37v-2A24.34,24.34,0,0,1,1210.6,251a16.11,16.11,0,0,1,6.11-7,17.87,17.87,0,0,1,18.06,0,16.07,16.07,0,0,1,6.12,7,24.41,24.41,0,0,1,2.16,10.54Zm-8.48-1.85q0-6.39-2.29-9.71a8.09,8.09,0,0,0-13,0q-2.29,3.28-2.32,9.61v2q0,6.22,2.29,9.66a8,8,0,0,0,13.07.12q2.27-3.32,2.29-9.64Zm25.51-19.4,10.44,29.48,10.39-29.48h11v40.65h-8.4V271.67l.83-19.18-11,30.29h-5.75l-10.94-30.26.83,19.15v11.11h-8.37V242.13Zm47.52,26.33v14.32h-8.38V242.13h15.86a18.27,18.27,0,0,1,8.05,1.68,12.29,12.29,0,0,1,5.35,4.76,13.21,13.21,0,0,1,1.87,7,11.66,11.66,0,0,1-4.09,9.42q-4.1,3.45-11.32,3.45Zm0-6.79h7.48a7.4,7.4,0,0,0,5.07-1.56,5.69,5.69,0,0,0,1.74-4.47,6.72,6.72,0,0,0-1.76-4.83,6.52,6.52,0,0,0-4.85-1.89h-7.68Zm46.48,12.73H1339.4l-2.79,8.38h-8.91l15.13-40.65h7.76l15.22,40.65h-8.91Zm-12.42-6.78h10.16l-5.11-15.21Zm61,15.16h-8.38L1378,256v26.75h-8.38V242.13H1378l16.33,26.8v-26.8h8.35Zm20.55-22.33,8.46-18.32h9.15L1427.48,268v14.74H1419V268l-13.34-25.91h9.18Zm30.23,22.33h-8.37V242.13h8.37Zm40.82,0h-8.38L1469.58,256v26.75h-8.38V242.13h8.38l16.33,26.8v-26.8h8.35Zm39.47-5.14a14.48,14.48,0,0,1-6.39,4.2,26.67,26.67,0,0,1-9.16,1.5,18.19,18.19,0,0,1-9.25-2.3,15.4,15.4,0,0,1-6.14-6.69,23.3,23.3,0,0,1-2.22-10.3v-2.77a25,25,0,0,1,2-10.54,15.15,15.15,0,0,1,5.92-6.81,17,17,0,0,1,9.06-2.36q7.23,0,11.3,3.45t4.83,10h-8.15a8.11,8.11,0,0,0-2.47-5.11,7.88,7.88,0,0,0-5.26-1.62,7.43,7.43,0,0,0-6.51,3.21q-2.23,3.21-2.26,9.55v2.59q0,6.4,2.43,9.66a8.31,8.31,0,0,0,7.12,3.27q4.72,0,6.73-2v-7h-7.62v-6.17h16ZM654.31,348.5v14.33h-8.38V322.18h15.86a18.41,18.41,0,0,1,8.05,1.67,12.42,12.42,0,0,1,5.35,4.76,13.26,13.26,0,0,1,1.87,7,11.67,11.67,0,0,1-4.09,9.43q-4.1,3.44-11.32,3.44Zm0-6.78h7.48a7.4,7.4,0,0,0,5.07-1.56,5.72,5.72,0,0,0,1.74-4.47,6.72,6.72,0,0,0-1.76-4.83A6.57,6.57,0,0,0,662,329h-7.67Zm46.48,12.73H686.1l-2.79,8.38h-8.9l15.13-40.65h7.76l15.21,40.65h-8.9Zm-12.42-6.78h10.16l-5.11-15.22Zm43,.28h-6.67v14.88h-8.38V322.18h15.11q7.2,0,11.11,3.21t3.91,9.07a12.44,12.44,0,0,1-1.81,6.94,12.25,12.25,0,0,1-5.45,4.42L748,362.44v.39h-9Zm-6.67-6.79h6.75a6.91,6.91,0,0,0,4.89-1.6,5.76,5.76,0,0,0,1.73-4.43,6.14,6.14,0,0,0-1.63-4.52,6.78,6.78,0,0,0-5-1.65h-6.73Zm52.57,4H761.18V356.1h18.87v6.73H752.8V322.18H780V329H761.18v9.69h16.08ZM818,362.83h-8.38l-16.3-26.75v26.75H785V322.18h8.38L809.67,349v-26.8H818ZM855.12,329H842.67v33.87h-8.38V329H822v-6.78h33.11Zm50.73,14.46A24.44,24.44,0,0,1,903.72,354a16,16,0,0,1-6.07,7,18,18,0,0,1-18.07,0,16.08,16.08,0,0,1-6.15-6.94,23.88,23.88,0,0,1-2.2-10.37v-2a24.42,24.42,0,0,1,2.16-10.57,16.17,16.17,0,0,1,6.12-7,17.93,17.93,0,0,1,18.06,0,16.09,16.09,0,0,1,6.11,7,24.2,24.2,0,0,1,2.17,10.54Zm-8.49-1.84q0-6.39-2.29-9.71a8.08,8.08,0,0,0-13-.05c-1.53,2.19-2.3,5.39-2.31,9.62v2q0,6.22,2.28,9.66a8,8,0,0,0,13.07.13c1.51-2.21,2.27-5.42,2.29-9.65ZM927,348h-6.67v14.88h-8.38V322.18H927q7.2,0,11.11,3.21t3.91,9.07a12.52,12.52,0,0,1-1.8,6.94,12.34,12.34,0,0,1-5.46,4.42l8.79,16.62v.39h-9Zm-6.67-6.79h6.75a6.91,6.91,0,0,0,4.89-1.6,5.76,5.76,0,0,0,1.73-4.43,6.14,6.14,0,0,0-1.63-4.52,6.78,6.78,0,0,0-5-1.65h-6.73Zm65.3,13.29H970.92l-2.79,8.38h-8.9l15.13-40.65h7.76l15.21,40.65h-8.9Zm-12.43-6.78h10.17l-5.11-15.22Zm28,15.16V322.18h12.51a19,19,0,0,1,9.59,2.41,16.82,16.82,0,0,1,6.6,6.87,21.2,21.2,0,0,1,2.37,10.12v1.87a21.29,21.29,0,0,1-2.33,10.08,16.66,16.66,0,0,1-6.57,6.84,19.18,19.18,0,0,1-9.58,2.46Zm8.38-33.87V356.1h4q4.92,0,7.51-3.21t2.66-9.19v-2.15q0-6.19-2.57-9.39c-1.71-2.13-4.22-3.2-7.51-3.2Zm59.54-6.78V349q0,6.68-4.17,10.55t-11.4,3.88q-7.12,0-11.31-3.76t-4.27-10.36V322.18h8.37V349q0,4,1.92,5.82a7.33,7.33,0,0,0,5.29,1.83q7.07,0,7.17-7.43V322.18Zm15.25,33.92h17.78v6.73h-26.16V322.18h8.38ZM1131.76,329h-12.45v33.87h-8.38V329h-12.28v-6.78h33.11Zm49.5,28.73a14.51,14.51,0,0,1-6.4,4.2,26.85,26.85,0,0,1-9.15,1.49,18.2,18.2,0,0,1-9.26-2.3,15.29,15.29,0,0,1-6.14-6.69,23.58,23.58,0,0,1-2.22-10.3v-2.76a25,25,0,0,1,2.05-10.54,15.15,15.15,0,0,1,5.92-6.81,17.09,17.09,0,0,1,9.06-2.36q7.23,0,11.31,3.45t4.83,10h-8.16a8.06,8.06,0,0,0-2.47-5.11,7.93,7.93,0,0,0-5.26-1.61,7.42,7.42,0,0,0-6.5,3.21q-2.23,3.21-2.27,9.54v2.6q0,6.39,2.43,9.66a8.31,8.31,0,0,0,7.12,3.27q4.72,0,6.73-2v-7h-7.62v-6.17h16Zm37.55-35.51V349q0,6.68-4.18,10.55t-11.4,3.88q-7.12,0-11.31-3.76t-4.27-10.36V322.18H1196V349q0,4,1.92,5.82a7.33,7.33,0,0,0,5.29,1.83q7.07,0,7.17-7.43V322.18Zm29.2,32.27h-14.69l-2.79,8.38h-8.9l15.13-40.65h7.76l15.21,40.65h-8.9Zm-12.43-6.78h10.17l-5.11-15.22Zm43,.28h-6.67v14.88h-8.38V322.18h15.1q7.21,0,11.11,3.21t3.91,9.07a12.52,12.52,0,0,1-1.8,6.94,12.22,12.22,0,0,1-5.46,4.42l8.8,16.62v.39h-9Zm-6.67-6.79h6.75a6.91,6.91,0,0,0,4.89-1.6,5.76,5.76,0,0,0,1.73-4.43,6.15,6.15,0,0,0-1.64-4.52,6.78,6.78,0,0,0-5-1.65h-6.72ZM1300,362.83V322.18h12.51a19,19,0,0,1,9.59,2.41,16.82,16.82,0,0,1,6.6,6.87,21.2,21.2,0,0,1,2.37,10.12v1.87a21.29,21.29,0,0,1-2.33,10.08,16.66,16.66,0,0,1-6.57,6.84,19.18,19.18,0,0,1-9.58,2.46Zm8.37-33.87V356.1h4q4.92,0,7.51-3.21c1.73-2.14,2.62-5.2,2.65-9.19v-2.15q0-6.19-2.56-9.39c-1.71-2.13-4.22-3.2-7.51-3.2Zm37.69,33.87h-8.37V322.18h8.37Zm31.22-8.38h-14.69l-2.79,8.38h-8.91L1366,322.18h7.77L1389,362.83h-8.9Zm-12.43-6.78H1375l-5.1-15.22Zm61,15.16h-8.37l-16.31-26.75v26.75h-8.37V322.18h8.37l16.34,26.8v-26.8h8.34Z"/></g></g><g id="_8017036d-b154-468e-9c1a-f0ae78647ffe" data-name="8017036d-b154-468e-9c1a-f0ae78647ffe"><g id="_4edd5f87-e8d8-41f4-8b64-608b6b82315a" data-name="4edd5f87-e8d8-41f4-8b64-608b6b82315a"><path class="cls-7" d="M549.91,114.71H539.83V142H521.21V64.74H551.6q13.75,0,21.49,6.1t7.75,17.24q0,8.06-3.27,13.37A23.16,23.16,0,0,1,567.36,110l16.13,31.14v.8h-20Zm-10.08-14.38H551.6q5.31,0,8-2.78t2.68-7.77q0-5-2.71-7.83t-8-2.84H539.83Zm107.22,8.92H617.77v18.41h34.59V142H599.15V64.74h53.31V79.11H617.77V95.4h29.28Zm59.8,12.2a7.64,7.64,0,0,0-2.89-6.37q-2.9-2.28-10.16-4.72a98.17,98.17,0,0,1-11.89-4.72q-15-7.38-15-20.27a18.17,18.17,0,0,1,3.74-11.32,24.15,24.15,0,0,1,10.59-7.64,41,41,0,0,1,15.38-2.74,35.86,35.86,0,0,1,14.93,3,23.61,23.61,0,0,1,10.27,8.46,22.09,22.09,0,0,1,3.66,12.54H706.9A9.32,9.32,0,0,0,704,80.33a11.27,11.27,0,0,0-7.82-2.6,12.69,12.69,0,0,0-7.88,2.2,6.76,6.76,0,0,0-2.89,5.6q0,3,3.18,5.39t11.19,5A68.92,68.92,0,0,1,713,101.45q12.52,7.22,12.52,19.89,0,10.14-7.64,15.92t-21,5.78a41.56,41.56,0,0,1-17-3.37,25.71,25.71,0,0,1-11.46-9.23,24.09,24.09,0,0,1-3.84-13.5h18.67q0,6.21,3.21,9.15T696.88,129a12,12,0,0,0,7.29-2,6.56,6.56,0,0,0,2.68-5.6Zm95.87-42.34H779.54V142H760.92V79.11H738.16V64.74h64.56Zm43.62,35.6H836.26V142H817.64V64.74H848q13.74,0,21.48,6.1t7.75,17.24q0,8.06-3.27,13.37A23.16,23.16,0,0,1,863.79,110l16.13,31.14v.8H860Zm-10.08-14.38H848q5.3,0,8-2.78t2.68-7.77q0-5-2.71-7.83t-8-2.84H836.26ZM915.42,142H896.85V64.74h18.57Zm82.5-26.15a28.26,28.26,0,0,1-4.35,14.24,26.32,26.32,0,0,1-11.17,9.58A38,38,0,0,1,966,143q-15.22,0-24-9.92t-8.75-28v-3.82a46.85,46.85,0,0,1,4-19.87,30.06,30.06,0,0,1,11.38-13.16,31.78,31.78,0,0,1,17.19-4.64q14.06,0,22.6,7.4t9.71,20.4H979.51q-.21-7.07-3.55-10.13t-10.19-3.08q-6.94,0-10.18,5.2T952.19,100v5.46q0,12.36,3.1,17.67t10.69,5.3q6.42,0,9.82-3t3.61-9.6Zm75-36.72h-23.18V142h-18.62V79.11h-22.76V64.74h64.56Zm62.82,30.14h-29.28v18.41H1141V142h-53.21V64.74h53.31V79.11h-34.69V95.4h29.28Zm20,32.73V64.74h24.88A36.65,36.65,0,0,1,1199,69.38a32.58,32.58,0,0,1,12.76,13.1,39.48,39.48,0,0,1,4.64,19V105a39.8,39.8,0,0,1-4.48,19,32.79,32.79,0,0,1-12.63,13.16,35.68,35.68,0,0,1-18.17,4.8Zm18.62-62.87v48.55h6.47q8,0,12.31-5.71t4.3-17v-3.34q0-11.19-4.3-16.87t-12.52-5.68Z"/></g></g><g id="aa0da3e0-c975-4182-8107-7769b7c238aa"><g id="fdcb73b1-5b01-4752-994f-f3683ea78424"><path class="cls-6" d="M75.92,322a8.71,8.71,0,0,1-8.84-8.85,9.67,9.67,0,0,1,2.38-6.29,11.74,11.74,0,0,1,5.78-3.92,29.58,29.58,0,0,0,16.85-16Q97,275.71,97,250.53V155.25q0-25.18-4.93-36.41a29.58,29.58,0,0,0-16.85-16,11.74,11.74,0,0,1-5.78-3.92,9.67,9.67,0,0,1-2.38-6.29,8.71,8.71,0,0,1,8.84-8.85H211.36q35.38,0,60.23,8.34t37.6,23.31A51.88,51.88,0,0,1,322,150.15a55.63,55.63,0,0,1-14.29,37.77q-14.3,16.34-40.84,24.84-4.76,1.69-4.76,5.1a6.34,6.34,0,0,0,1.36,4.09l14.29,23.14q16,25.18,27.05,35T325,290a30.62,30.62,0,0,0,5.79-.68,8.76,8.76,0,0,1,2.72-.34,9.29,9.29,0,0,1,6.29,2.21,7.88,7.88,0,0,1,2.56,6.3q0,7.15-7.32,13.95t-19.57,11.23a78.27,78.27,0,0,1-65.16-6.12Q232.11,306,219.18,282.18l-27.56-51.05a13.72,13.72,0,0,0-4.42-4.42,11.38,11.38,0,0,0-6.13-1.7h-4.42q-4.43,0-6.81,2.38t-2.38,6.81v16.33q0,25.18,4.76,36.41a27.85,27.85,0,0,0,16,15.65,13,13,0,0,1,5.61,4.26,10.16,10.16,0,0,1,2.21,6.29A8.71,8.71,0,0,1,187.2,322Zm91.54-137.48a10.08,10.08,0,0,0,7.83,10.21,115.67,115.67,0,0,0,24.5,3.07q21.78,0,32.15-9.87t10.38-27.23q0-21.43-14.63-34.19t-39.13-13.1h-8.17a10.46,10.46,0,0,0-6.46,2,10.35,10.35,0,0,0-3.75,5.78q-2.72,12.25-2.72,29.61Z"/></g></g></g></g></svg>