<svg xmlns="http://www.w3.org/2000/svg" viewBox="0 0 44.38 23.12"><defs><style>.cls-1{fill:#0d122f;}</style></defs><title>Asset 24mdpi</title><g id="Layer_2" data-name="Layer 2"><g id="Layer_1-2" data-name="Layer 1"><path class="cls-1" d="M20.45,20.77A1.79,1.79,0,0,0,22.07,23c1.29.19,1.9-.63,2.28-1.78a2.14,2.14,0,0,0-2-2.1A1.72,1.72,0,0,0,20.45,20.77Z"/><path class="cls-1" d="M44.38,4.13c0-2.76-1.76-3.86-4.32-4.13-2.43.48-4.17,1.71-4,4.44s1.85,4,4.49,3.86S44.36,6.58,44.38,4.13Z"/><path class="cls-1" d="M38.18,21a1.74,1.74,0,0,0,1.88,2,1.92,1.92,0,0,0,2.12-1.88,1.87,1.87,0,0,0-1.92-2A1.84,1.84,0,0,0,38.18,21Z"/><path class="cls-1" d="M26.5,3.86A3.71,3.71,0,0,0,22.31.09c-2.39.1-4,1.41-4,4,0,2.74,1.56,4,4.43,4.26C25,7.89,26.65,6.49,26.5,3.86Z"/><path class="cls-1" d="M8.12,4.22C8.19,1.5,6.45.34,3.94,0,1.39.41-.13,1.78,0,4.44A3.6,3.6,0,0,0,4.12,8.18,3.75,3.75,0,0,0,8.12,4.22Z"/><path class="cls-1" d="M3.82,19.32a1.78,1.78,0,0,0-1.69,1.89c0,1.28.76,1.85,2,1.91,1.22-.15,2-.78,1.87-2A1.85,1.85,0,0,0,3.82,19.32Z"/></g></g></svg>