<svg xmlns="http://www.w3.org/2000/svg" viewBox="0 0 181.11 50.73"><defs><style>.cls-1{fill:#eee;}.cls-2{fill:#e55998;}</style></defs><title>Asset 12mdpi</title><g id="Layer_2" data-name="Layer 2"><g id="Layer_1-2" data-name="Layer 1"><g id="cd5262bf-9dde-470d-b747-dedb2c6f6b00"><g id="cd5262bf-9dde-470d-b747-dedb2c6f6b00-child-0"><path class="cls-1" d="M146.43,34V20.23h-3.19V16.7h7.58V34Z"/></g><g id="cd5262bf-9dde-470d-b747-dedb2c6f6b00-child-1"><path class="cls-1" d="M167.33,21.17a4,4,0,0,1-2.17,3.58,4.73,4.73,0,0,1,3.09,4.37c0,3.11-2.77,5.08-7.09,5.08s-7.08-2-7.08-5a4.83,4.83,0,0,1,3.28-4.44,4.37,4.37,0,0,1-2.39-3.7c0-2.77,2.42-4.52,6.17-4.52S167.33,18.33,167.33,21.17Zm-9.1,7.58c0,1.45,1,2.27,2.93,2.27s3-.79,3-2.27-1.06-2.25-3-2.25S158.23,27.32,158.23,28.75Zm.44-7.33c0,1.23.89,1.92,2.49,1.92s2.5-.69,2.5-1.92-.89-2-2.5-2S158.67,20.13,158.67,21.42Z"/></g><g id="cd5262bf-9dde-470d-b747-dedb2c6f6b00-child-2"><path class="cls-1" d="M175.56,18.65a20.89,20.89,0,1,1-13.1-13.1V.9a25.34,25.34,0,1,0,17.75,17.75Z"/></g><g id="cd5262bf-9dde-470d-b747-dedb2c6f6b00-child-3"><path class="cls-1" d="M174.29,6.8V1.94H170.8V6.8H166v3.5h4.84v4.87h3.49V10.3h4.87V6.8Z"/></g></g><g id="a7455e32-6b90-4870-b663-27e0d1621fe4"><g id="a7455e32-6b90-4870-b663-27e0d1621fe4-child-0"><path class="cls-1" d="M108.49,7.43A25.36,25.36,0,1,0,72.62,43.3,25.36,25.36,0,1,0,108.49,7.43Zm-2.1,2.1A22.12,22.12,0,0,1,109.86,14H100a39,39,0,0,0-1.68-6,21.06,21.06,0,0,0-2.15-4.28A22.25,22.25,0,0,1,106.39,9.53Zm-8.3,15.83a59.17,59.17,0,0,1-.57,8.28H83.59A59.2,59.2,0,0,1,83,25.36,59.51,59.51,0,0,1,83.61,17H97.5A59.47,59.47,0,0,1,98.09,25.36ZM90.56,3c1.69,0,3.55,2.25,5,6A33.52,33.52,0,0,1,97,14H84.14a33.52,33.52,0,0,1,1.43-5C87,5.22,88.86,3,90.56,3ZM74.72,9.53A22.25,22.25,0,0,1,84.94,3.67,21.06,21.06,0,0,0,82.79,8a39,39,0,0,0-1.68,6H71.25A22.48,22.48,0,0,1,74.72,9.53ZM68.16,25.36A22.33,22.33,0,0,1,69.79,17H80.62a61.54,61.54,0,0,0-.56,8.41,61.27,61.27,0,0,0,.54,8.28H69.73A22.45,22.45,0,0,1,68.16,25.36ZM74.72,41.2a22.58,22.58,0,0,1-3.55-4.59h9.92a39.63,39.63,0,0,0,1.7,6.17,21.06,21.06,0,0,0,2.15,4.28A22.25,22.25,0,0,1,74.72,41.2Zm15.84,6.56c-1.7,0-3.56-2.25-5-6a34.94,34.94,0,0,1-1.46-5.12H97a34.94,34.94,0,0,1-1.46,5.12C94.11,45.51,92.25,47.76,90.56,47.76Zm15.83-6.56a22.25,22.25,0,0,1-10.22,5.86,21.06,21.06,0,0,0,2.15-4.28,38.56,38.56,0,0,0,1.7-6.17h9.92A22.3,22.3,0,0,1,106.39,41.2Zm-5.88-7.56a61.27,61.27,0,0,0,.54-8.28,61.54,61.54,0,0,0-.56-8.41h10.83a22.56,22.56,0,0,1,.06,16.69Z"/></g></g><g id="_83437e75-9e45-4545-9498-a347b6fc0653" data-name="83437e75-9e45-4545-9498-a347b6fc0653"><g id="_83437e75-9e45-4545-9498-a347b6fc0653-child-0" data-name="83437e75-9e45-4545-9498-a347b6fc0653-child-0"><path class="cls-2" d="M25.37,0A25.37,25.37,0,1,0,50.73,25.37,25.35,25.35,0,0,0,25.37,0Zm-3,16.41a9,9,0,0,0,0,17.91v3a11.94,11.94,0,1,1,0-23.87Zm14.92,0a9,9,0,0,0-8.83,7.46H37.3v3H28.47a9,9,0,0,0,8.83,7.46v3a11.94,11.94,0,0,1,0-23.87Z"/></g></g></g></g></svg>