<svg xmlns="http://www.w3.org/2000/svg" viewBox="0 0 635.19 636.18"><defs><style>.cls-1{fill:#f0cb97;}.cls-2{fill:#a72d46;}</style></defs><title>Asset 6fire</title><g id="Layer_2" data-name="Layer 2"><g id="Layer_1-2" data-name="Layer 1"><g id="c97ceacd-f3c1-466f-8c68-7f80f8ffc2ca"><g id="c97ceacd-f3c1-466f-8c68-7f80f8ffc2ca-child-0"><path class="cls-1" d="M454.23,183.78c-36.63-35.63-85.32-55.26-137.07-55.26s-100.45,19.63-137.08,55.26-57,83.3-57,133.89,20.23,98.15,57,133.88,85.32,55.27,137.08,55.27S417.6,487.2,454.23,451.55s57-83.29,57-133.88S491,219.53,454.23,183.78ZM151.15,330h60.23c0,.69.07,1.37.11,2.07a260.32,260.32,0,0,0,10.14,59.52H169.14A156.86,156.86,0,0,1,151.15,330Zm231-90.08a202.08,202.08,0,0,1,14.71,64.34h-70V239.93ZM326.9,214.19V169.78A148.87,148.87,0,0,1,369,214.22ZM301.17,170v44.25H261.88C272.24,196,285.53,181.09,301.17,170Zm0,70v64.34h-64A222.64,222.64,0,0,1,250,239.93Zm-89.81,64.34H151.25a157,157,0,0,1,20-64.34h51.49A246.94,246.94,0,0,0,211.36,304.27Zm25.83,26.38V330h64V391.6H248.68A234,234,0,0,1,237.19,330.65Zm64,86.68v48.12c-15.31-9.61-28.75-24.44-39.45-43.81-.8-1.41-1.53-2.85-2.29-4.31Zm25.74,47v-47h44.66A141.26,141.26,0,0,1,326.91,464.29Zm0-72.69V330H397a200.07,200.07,0,0,1-13,61.59ZM422.79,330h60.37a157,157,0,0,1-18,61.59H411.45A228.32,228.32,0,0,0,422.79,330Zm-.12-25.74a230.72,230.72,0,0,0-12.93-64.34h53.32a157,157,0,0,1,20,64.34Zm22.25-90H398.57c-.08-.15-.14-.29-.21-.43a181.78,181.78,0,0,0-41.08-52.93A167.58,167.58,0,0,1,444.92,214.22ZM269.46,162.85a172.6,172.6,0,0,0-36.57,51.37h-43.5A167.28,167.28,0,0,1,269.46,162.85Zm-83.3,254.48h44.77q3.76,8.67,8.23,16.75a155.61,155.61,0,0,0,28.84,38,167.21,167.21,0,0,1-81.81-54.74ZM356,474.8a172,172,0,0,0,40.59-49.44q2.19-3.94,4.2-8h47.25a167.34,167.34,0,0,1-92,57.45Z"/></g></g><g id="_3759bb11-b581-4994-ae0b-27cc91ccf120" data-name="3759bb11-b581-4994-ae0b-27cc91ccf120"><g id="_69d96a1c-3cd9-408d-8239-39577d713801" data-name="69d96a1c-3cd9-408d-8239-39577d713801"><path class="cls-2" d="M279.8,606.76l-11.14-1.15,3.45-8.57,6.93.75L277,574.54l14.86-12.24,15.67,12.27-7.1,8.12-12.45-10.48L290.12,599l10.65,1.15-4.45,8.31-5.43-.59,1.31,15.9-4.79,1.32c5.42.72,10.64,1.29,14.6,1.66l-5,9.4a239.51,239.51,0,0,1-31.64-4.35l2-10c3.94.91,8.94,1.74,14,2.49Zm-52.06-46.45,7.74,6.51-1.93,24.86,7.72-1,4.23-14.17-3-2.43,6.8-7.3,9,6.89L245.35,617l4,4.07-8.22,7.14-9.27-9.64-13.43,2.7-5.66-26.19,10.15-1.89L224.39,571l-3.66-3.36Zm12.2,34.86-15.16,2.34,3.76,17.43,5.79-1ZM194.17,545l17.3,17-20,39.51-16.95,1.88L164.11,594l6.58-6.86,10.57,10,6.41-12.56-13.77-6.93,6-7.08,11.76,6.13,6.79-13.29-13.26-12.77Zm-32.59-21.15,14.54,19.4-25.75,36-17-.69-8.86-10.87L132,562,141,573.46,149.19,562l-12.58-8.92,7-6.1,10.7,7.83,8.71-12.12-11.19-14.62Zm-58.15,30.6L88.91,527.8l29.78-30.65,17.68,4.51L148,519.53l-5.7,1.49-26.57,27.2-5.25-2.84,4.28,8.13Zm23.74-49.73L102.35,530l5.58,10.62,24.68-25.11,2.09,1.14Zm-19.85-37.35L112,485.54l-37.85,27L58,503.42l-5.31-19,37.81-26.67ZM96.84,467,64.67,489.75,68.17,503l32.48-22.82Zm-27-73.49.84,10.67-42.2,17.36-.67,6,4.83,3.3,44.25-18.32,4.28,10.24-44.6,18.63-.94,5.4,5.29,3.86L85.1,432.24l4.32,10.34L45.38,461l-1,5.32-10.67-1.45,1.53-12.66-9.79-7.1,1.45-12.47-9.41-6.6,1.39-12.46,40.65-16.88,0-3.74ZM60,330.43l-1.59,30.85-9.54-4L9.49,361,.82,351.09,1,340.62l9.69,2.93-1.19,6.09,35.86-3.18,3.53,6.63.78-26.37Zm.81-19.26-2.42,9.11-10-3.89,2.58-8.25-38.28-1.4-2.09-7a104.24,104.24,0,0,0-.58,16.1l-9.95-2a165.42,165.42,0,0,1,.85-19.29l9.3.92L48.38,297Zm5.52-49.23-11.59,21.3-43.5-8.4L4.73,259.06l6.19-12.57,8.4,4.44-6.75,12.92,13.84,2.72,2.87-15.15,8.47,3.86-2.67,13,14.65,2.88,8.63-16.26ZM76.45,229,62.73,245.84l-5.21-9.68,12.4-15.35-18-6.75-3.05,3.5,4.68,7.4-9.89,10.31-23-8.45L18.71,209l11-14.88,6.33,8-10.8,14.57,16.33,6,3.1-3.21-4.94-8.09,8.9-9.91,26.85,9.79Zm7.72-82.93,6.44-9.17,5.8,7.19-4,5.69,21.31,9.52,3.45,18.93-18.36,7.7-3.63-10.16L110.37,170,85.88,158.83l-6.19,8.74-5.09-7.94,3.16-4.45-14.52-6.62,1.19-4.82c-3.27,4.36-6.31,8.65-8.57,11.93l-5.76-9a238.9,238.9,0,0,1,19.24-25.5l7.74,6.64c-2.72,3-5.88,7-9,11ZM150.1,123.2l-9.45,3.6L119.87,113l-2.9,7.22,10.32,10.59,3.57-1.42,3.07,9.49-10.37,4.49L92,111l-5.51,1.53-2.23-10.66,12.93-3.41,4.16-13L127,93.2l-3.3,9.79,18.71,12.08,4.71-1.57Zm-36.39-6.3L119,102.52,102,97.33l-2,5.53Zm66.11-15.67-23.25,6.89L131.71,71.45l6.57-15.73,13.26-4.52,2.8,9.07-13.9,4.38,7.88,11.7,12.73-8.7,3.28,8.72-11.07,7.31,8.34,12.38,17.59-5.41ZM214.11,83l-24,3.31L171,46.28l8.86-14.56,13.8-2.48,1.41,9.4-14.4,2.24,6,12.75L200.62,47l1.92,9.11-12,5.56,6.38,13.5,18.21-2.7Zm1.49-65.7,30.34.28,12.29,40.92L245.69,71.73l-21.26,1.45,1.47-5.71L215.06,31l5-3.21-9.19-.21ZM247.5,62.2l-10-34-12-.29,9.94,33.78-2,1.27Zm42.26.88L271.6,58.3l-5.14-46.23,15.87-9.61,19.16,4.63,4.84,46Zm5.41-9L291,14.93l-13.31-3.42L281.79,51Zm77.41,12.14-9.73-4.45,5.3-45.32L363.2,13,358,15.58l-5.46,47.57-11-1.23,5.36-48-4.27-3.44-5.94,2.75-5.31,47.59L320.2,59.55l5.24-47.45-4.16-3.48L327.73,0l10.33,7.48,11-5.11,10.2,7.32,10.35-5,10.21,7.27-5,43.73,3.26,1.84Zm60,22-26.2-16.36,8.13-6.41,15.86-36.18,12.86-2.78,9.06,5.26L445,38.78l-4.74-4L425.61,67.67l-7.51-.13L440.78,81Zm16.37,10.06-6.77-6.55,8.28-6.86,5.95,6.28,19.88-32.75,7.1,1.58a104.81,104.81,0,0,0-13.77-8.36l6.56-7.73A167,167,0,0,1,492.58,54l-5.32,7.68L467.32,94.34Zm40.29,28.83-12.94-20.5,28.54-33.89,16.93,2,8,11.53-8,5.17-8-12.19L504.61,90l11.82,9.89-7.49,5.52-10-8.66-9.66,11.38,10,15.46Zm23.88,25L505,131.86l11,.14,7.4,18.3,14.66-12.5-1.57-4.36-8.75.49-4.2-13.64,18.55-16,16.53,7,7.67,16.81-10.08,1.64-7.48-16.51L535.61,124.6l1.29,4.27,9.47-.4,4.34,12.6-21.6,18.72Zm68.82,47,4.9,10.07-9.1,1.59-3-6.29-18.66,14-18.23-6.17L540,192.45l10.65,1.75-2.35,16.12,21.63-16-4.63-9.65,9.41-.6L577,189l12.82-9.49,3.64,3.37c-2.23-5-4.51-9.71-6.28-13.28l10.63-.69a238.71,238.71,0,0,1,13,29.19l-9.56,3.55c-1.3-3.83-3.23-8.52-5.26-13.21Zm-12.06,68.72,1.45-10,22.15-11.44-4.9-6.06-14.27,3.86-.5,3.81L564,246l1.13-11.25,43.67-11.82,1.35-5.56,10.4,3.24-3.31,13,9.36,10L607.3,262.12l-6.95-7.64L580.7,264.94l-.93,4.88ZM593.06,239l10,11.66,12.83-12.38-3.88-4.4Zm-18.55,65.35,5.33-23.66L624,276.88l10.53,13.41L632,304.08l-9.3-2,3-14.27-14,1.16L613,304.35l-9.2-1.39-1-13.23L587.91,291l-3.86,18Zm-.74,38.91,8.79-22.61,44.21,2.79,8.42,14.81-4.54,13.27-8.89-3.34,5-13.67-14.07-.94L611.81,349l-8.89-2.74,1-13.23L589,332l-6.49,17.23Zm56.73,33.18-15,26.4-41.75-9.1-5.51-17.39,9-19.3,4.29,4.06,37.12,8.19.36,6,4.65-7.94Zm-54.76,6.11,34.55,7.73,6.08-10.34L582,372.26l-.13-2.39Zm-21.26,36.52,13-13.56,42.92,17.95.69,18.54-13.34,14.5-42.58-18.11Zm5.22,9.09L596,443.55l9.46-10L568.92,418Zm-48.29,61.63,8.63-6.33,37,26.74,5.48-2.6.26-5.85-38.86-28,6.45-9,39.32,28.11,5.08-2,.5-6.53-39-27.85,6.51-9.11,38.87,27.73,5.07-1.94,4.38,9.83-11.58,5.38-.88,12.05-11.37,5.34-.66,11.48-11.32,5.37-35.75-25.68-3.19,1.94ZM463,531.6l27-15,1.66,10.21,23.94,31.42-3.8,12.59-9,5.37-2.64-9.78,5.79-2.2-21.67-28.75L488.1,529l-22.79,13.29Zm-16.74,9.46,9-2.74,2,10.56L448.91,551l19,33.26-4.81,5.45a105.65,105.65,0,0,0,14-8l3.59,9.48a166,166,0,0,1-16.84,9.46l-4.14-8.38L440.8,559ZM401.57,562.3l24.2-1.36,15.77,41.4-10,13.8-13.95,1.36-.65-9.48L431.47,607l-5-13.19-14.39,5.53-1.18-9.23,12.44-4.57-5.26-14-18.37,1.22ZM368.2,571l21.55,2.8-5.5,9.53-19.57-2.46,3.77,18.88,4.57.76,3.84-7.88,13.95,3,4.95,24-14.17,11-18.42-1.5,3.48-9.6,18.06,1.51-3.53-17-4.36-.95-4.26,8.47-13.14-2.35-5.81-28Z"/></g></g></g></g></svg>