<svg xmlns="http://www.w3.org/2000/svg" viewBox="0 0 414.66 620.66"><defs><style>.cls-1{fill:#e6c347;}</style></defs><title>b2f7d99f-40f1-4091-8d0b-6f4c1a978b14roster</title><g id="Layer_2" data-name="Layer 2"><g id="Layer_1-2" data-name="Layer 1"><g id="b2f7d99f-40f1-4091-8d0b-6f4c1a978b14"><g id="b2f7d99f-40f1-4091-8d0b-6f4c1a978b14-child-0"><path class="cls-1" d="M274.2,288.67l12.54-4.08c23-7.14,45.91-14.48,69-21.22a83.35,83.35,0,0,1,21.49-3.05c10.51-.1,15.93,8.62,11.55,18.14a40.45,40.45,0,0,1-7.94,11.1c-8.2,8.56-16.39,17.13-25.14,25.11Q199.48,456.58,43.2,598.19C36.69,604,29.85,609.64,23,615.14c-2.62,2.15-5.59,4.61-8.76,5.21-3.38.66-7.78.26-10.59-1.44-3.92-2.31-4.57-7.21-2.61-11.3A87.51,87.51,0,0,1,10,593q35.34-44.44,71-88.54Q135,437.55,189,370.76c6.35-7.89,11.87-16.42,17.81-24.68-.52-.77-1-1.45-1.56-2.22-3.71,1.36-7.49,2.61-11.14,4.17-21.07,9.05-42.09,18.3-63.23,27.24-8.13,3.43-16.29,6.57-24.65,9.29-6.33,2.07-13,3.23-17.79-3.08-3.51-4.42-2.35-10.67,3.7-17.57a239.88,239.88,0,0,1,17.62-18c37.57-34.84,75.36-69.35,112.84-104.21,12.87-11.93,25.29-24.42,37.78-36.81a33.82,33.82,0,0,0,8-12.33c-5.49.72-11,1.44-16.38,2.27-11.68,1.67-23.37,3.82-35.12,4.9-8.84.81-18.11.39-23.13-8.81-4.83-8.79-.43-16.49,4.74-23.28,6.21-8.2,12.72-16.44,20.2-23.34C249.6,115.71,280.79,87.51,312,59.4c19.87-17.87,41.48-33.87,58.53-54.78,1.39-1.73,3.26-3.93,5.15-4.32,2.68-.51,6.49-.51,8.36,1.1s3.34,6.2,2.34,7.91c-3.19,5.46-3.5,11.32-4.49,17.22-.59,3.41-3.94,6.37-6.27,9.43-19.66,24.4-39.39,48.69-58.88,73.22A177.42,177.42,0,0,0,296.93,140c3.85-.66,7.78-1.22,11.67-2.06,21.18-4.83,42.35-10,63.68-14.66a115.74,115.74,0,0,1,23.8-2.68c16.9-.06,23.48,11.36,14.67,25.91a120.23,120.23,0,0,1-16.82,21.63c-23,23.45-46.31,46.64-69.71,69.72-14.14,14-28.83,27.34-43.2,41.06-2.7,2.52-5.06,5.29-7.59,7.93.25.62.62,1.17.88,1.8Z"/></g></g></g></g></svg>