<svg xmlns="http://www.w3.org/2000/svg" viewBox="0 0 75.85 91.36"><defs><style>.cls-1{fill:#ff7676;}</style></defs><title>b5937e73-a15f-4771-b883-26f3d99d92a1mdpi</title><g id="Layer_2" data-name="Layer 2"><g id="Layer_1-2" data-name="Layer 1"><g id="b5937e73-a15f-4771-b883-26f3d99d92a1"><g id="b5937e73-a15f-4771-b883-26f3d99d92a1-child-0"><path class="cls-1" d="M36.29,31.58c.53.61,1.13,1.17,1.68,1.76a52.36,52.36,0,0,1,6.38,8.23,19.46,19.46,0,0,1,2.95,7.72c-.58.33-1.17.64-1.75,1l1.6.92a15.91,15.91,0,0,1,.12,4.08,25.14,25.14,0,0,1-2.79,9.29,23.8,23.8,0,0,0-1.34-8,35.49,35.49,0,0,0-5-9.48c.41-.43.85-.84,1.27-1.26l-2.36-.89c-.72-2.89-1.5-5.77-2.4-8.62a3.08,3.08,0,0,1-.85-.09c-.39,1.56-.86,3.11-1.3,4.65A273.29,273.29,0,0,1,18.05,78.75c-2,4.26-4.08,8.47-6.32,12.61a9.32,9.32,0,0,1-4.3-1.44,14.14,14.14,0,0,1-3.46-3,110.22,110.22,0,0,0,8.27-11.1A147.9,147.9,0,0,0,27.37,44.93c1-2.89,2-5.8,2.84-8.74A2.73,2.73,0,0,1,28,35a2.85,2.85,0,0,1-.41-1.8,49.35,49.35,0,0,0-7.26,2.58q-1.05-.7-2.13-1.38l.33,2.72a46.46,46.46,0,0,0-8.06,4.44,28.16,28.16,0,0,0-3.81,3.16,14.68,14.68,0,0,0-3,4.24,12.91,12.91,0,0,1,.6-4.45,28.66,28.66,0,0,1,4.86-9.12,51.31,51.31,0,0,1,6.13-6.63l2.43.92c.12-.74.2-1.49.33-2.23A15.73,15.73,0,0,1,24.79,27a21.81,21.81,0,0,1,6.3,2,33.12,33.12,0,0,0-6-4.57,24.61,24.61,0,0,0-11.3-3.65c-.38-.87-.77-1.72-1.14-2.58-.5.84-.95,1.7-1.47,2.51a19.32,19.32,0,0,0-10,8.7C.78,30,.48,30.6.19,31.23a12.4,12.4,0,0,1-.17-3,19.88,19.88,0,0,1,2.8-8.89l2.2.18c-.16-.67-.44-1.31-.58-2a16.27,16.27,0,0,1,6.37-3.11,17.53,17.53,0,0,1,8.78.12,22.83,22.83,0,0,1,5.32,2.18c.14.6.26,1.21.39,1.81.53-.09,1.06-.22,1.59-.32.2-.05.36.1.53.17a18.66,18.66,0,0,1,5.32,4.19c.32.36.58.75.88,1.12a8.73,8.73,0,0,0-.22-1.84,19.84,19.84,0,0,0-3.46-7.36,34,34,0,0,0-8.23-7.77c.26-.61.5-1.24.76-1.85-.75,0-1.5.15-2.25.22-.29.06-.47-.23-.69-.37A24.7,24.7,0,0,0,11.4.88a8.26,8.26,0,0,1,1.82-.6A17,17,0,0,1,21.79,1a32.16,32.16,0,0,1,9.85,5.46c-.21.83-.42,1.66-.64,2.49.69,0,1.37,0,2,0,.18,0,.28.17.4.27a18.44,18.44,0,0,1,4.17,7.05,16.61,16.61,0,0,1,.69,6.64,18.77,18.77,0,0,1,5.44-2.49,22.8,22.8,0,0,1,8-.75,28.43,28.43,0,0,1,8.92,2.26c-.06.84-.14,1.68-.18,2.52l2.45-1.21A19.16,19.16,0,0,1,67,25.71a36.28,36.28,0,0,1,7.43,8.11c.51.75,1,1.5,1.45,2.28a42.91,42.91,0,0,0-9.49-2.72,26.14,26.14,0,0,0-5.45-.31c-.14,0-.34.06-.43-.1-.8-1.06-1.59-2.13-2.4-3.18-.33.87-.64,1.75-1,2.62a26.69,26.69,0,0,0-4.82-2.16,35.86,35.86,0,0,0-10.11-1.89,34.68,34.68,0,0,0-4.56.1A31.68,31.68,0,0,1,47,31.84,54,54,0,0,1,58.16,40l-1,2.54h2.88a31.27,31.27,0,0,1,3.65,8.25A30.84,30.84,0,0,1,64.82,57a51.67,51.67,0,0,0-5.6-6.23A50.88,50.88,0,0,0,47.3,42.19c0-.81,0-1.6,0-2.4-.59.26-1.16.56-1.75.83a21.61,21.61,0,0,0-9.23-9Z"/></g></g></g></g></svg>