<svg xmlns="http://www.w3.org/2000/svg" viewBox="0 0 293.28 130.43"><defs><style>.cls-1{fill:#100000;}</style></defs><title>b7009a5e-625c-479d-8e9e-0d91d6c9aad1roster</title><g id="Layer_2" data-name="Layer 2"><g id="Layer_1-2" data-name="Layer 1"><g id="b7009a5e-625c-479d-8e9e-0d91d6c9aad1"><g id="b7009a5e-625c-479d-8e9e-0d91d6c9aad1-child-0"><path class="cls-1" d="M12.88,130.43H0V0H12.88ZM116.31,0H96.88V130.43h19.43ZM78.87,0H63V130.43H78.87Zm77.31,0H140.34V130.43h15.84Zm23.67,0H164V130.43h15.84ZM26.18,0H18.35V130.43h7.83ZM89.34,0H81.51V130.43h7.83Zm47,0h-7.84V130.43h7.84ZM41,0H31.11V130.43H41ZM60.37,0H47.66V130.43H60.37ZM282.12,130.43h11.16V0H282.12Zm-61.08,0h13.72V0H221Zm49.59,0h6.78V0h-6.78Zm-12.81,0h8.54V0h-8.54Zm-16.77,0h11V0h-11Zm-31.45,0h5.22V0H209.6Zm-12.79,0h6.57V0h-6.57Zm-13.69,0h8.44V0h-8.44Z"/></g></g></g></g></svg>