<svg xmlns="http://www.w3.org/2000/svg" viewBox="0 0 244.35 244.5"><defs><style>.cls-1{fill:#f9f1f1;}</style></defs><title>b7bd5b7c-6fc1-4a28-98a2-d32d4f67e31amdpi</title><g id="Layer_2" data-name="Layer 2"><g id="Layer_1-2" data-name="Layer 1"><g id="b7bd5b7c-6fc1-4a28-98a2-d32d4f67e31a"><g id="b7bd5b7c-6fc1-4a28-98a2-d32d4f67e31a-child-0"><path class="cls-1" d="M244.35,122.39a1.1,1.1,0,0,1-1.09,1.09c-22,0-88.07,3.23-102.44,17.6s-17.6,80.43-17.6,102.45a1.12,1.12,0,0,1-1.11,1,1.11,1.11,0,0,1-1.09-1c0-22-3.23-88.08-17.6-102.45S23,123.48,1,123.48a1.12,1.12,0,0,1-1-1.11,1.11,1.11,0,0,1,1-1.09c22,0,88.08-3.23,102.45-17.6S121,23.25,121,1.25a1.14,1.14,0,0,1,.49-1.09,1.24,1.24,0,0,1,1.21,0,1.13,1.13,0,0,1,.5,1.09c0,22,3.23,88.06,17.6,102.43s80.42,17.6,102.44,17.6A1.1,1.1,0,0,1,244.35,122.39Z"/></g></g></g></g></svg>