<svg xmlns="http://www.w3.org/2000/svg" viewBox="0 0 286.01 278.8"><defs><style>.cls-1{fill:#0d1c27;}</style></defs><title>bc0a7910-a125-41b9-9a69-09a868e8414dmdpi</title><g id="Layer_2" data-name="Layer 2"><g id="Layer_1-2" data-name="Layer 1"><g id="bc0a7910-a125-41b9-9a69-09a868e8414d"><g id="bc0a7910-a125-41b9-9a69-09a868e8414d-child-0"><path class="cls-1" d="M244,40.73a145.64,145.64,0,0,0-202,0A136.92,136.92,0,0,0,0,139.4c0,37.28,14.91,72.33,42,98.67A143.76,143.76,0,0,0,143,278.8a144,144,0,0,0,101-40.73,136.92,136.92,0,0,0,42-98.67C286,102.12,271.1,67.07,244,40.73ZM20.66,148.5H65.05c0,.5,0,1,.08,1.52a192.5,192.5,0,0,0,7.47,43.86H33.92A115.68,115.68,0,0,1,20.66,148.5ZM190.92,82.11a148.8,148.8,0,0,1,10.84,47.41H150.2V82.11Zm-40.73-19V30.41a109.8,109.8,0,0,1,31,32.75Zm-19-32.59V63.16H102.27A100.68,100.68,0,0,1,131.22,30.55Zm0,51.56v47.41H84.06A164.11,164.11,0,0,1,93.5,82.11ZM65,129.52H20.74A115.6,115.6,0,0,1,35.49,82.11H73.44A181.58,181.58,0,0,0,65,129.52Zm19,19.45v-.47h47.18v45.38H92.54A172.17,172.17,0,0,1,84.07,149Zm47.15,63.88v35.46c-11.28-7.08-21.18-18-29.07-32.29-.59-1-1.13-2.1-1.68-3.17Zm19,34.61V212.85h32.91A104.12,104.12,0,0,1,150.2,247.46Zm0-53.58V148.5h51.67a147.39,147.39,0,0,1-9.53,45.38Zm70.66-45.38h44.49a115.68,115.68,0,0,1-13.26,45.38H212.5A168.56,168.56,0,0,0,220.86,148.5Zm-.1-19a169.56,169.56,0,0,0-9.52-47.41h39.29a115.76,115.76,0,0,1,14.76,47.41Zm16.41-66.36H203l-.16-.31a133.92,133.92,0,0,0-30.27-39A123.49,123.49,0,0,1,237.17,63.16ZM107.86,25.3a127.16,127.16,0,0,0-27,37.86H48.85A123.32,123.32,0,0,1,107.86,25.3ZM46.47,212.85h33q2.78,6.39,6.07,12.34a114.33,114.33,0,0,0,21.25,28,123.24,123.24,0,0,1-60.29-40.34ZM171.65,255.2a126.55,126.55,0,0,0,29.91-36.43c1.08-2,2.11-3.91,3.09-5.9h34.83a123.4,123.4,0,0,1-67.81,42.33Z"/></g></g></g></g></svg>