<svg xmlns="http://www.w3.org/2000/svg" viewBox="0 0 398.15 321.87"><defs><style>.cls-1{fill:#f9f1f1;}</style></defs><title>bec3d307-99f3-45a8-aff0-ccdeb4c1c887mdpi</title><g id="Layer_2" data-name="Layer 2"><g id="Layer_1-2" data-name="Layer 1"><g id="bec3d307-99f3-45a8-aff0-ccdeb4c1c887"><g id="bec3d307-99f3-45a8-aff0-ccdeb4c1c887-child-0"><path class="cls-1" d="M380.28,160.92a1.72,1.72,0,0,1-1.7,1.73c-34.33,0-140.18,4.28-175.13,23.35S106.81,292.1,88,321.09a1.73,1.73,0,0,1-1.45.78,1.69,1.69,0,0,1-.93-.28,1.75,1.75,0,0,1-.77-1.45,1.62,1.62,0,0,1,.28-.93c23.6-36.3,69.37-116.77,60.24-133.92S44.51,162.65,1.51,162.65a1.73,1.73,0,0,1,0-3.43c34.33,0,140.19-4.28,175.14-23.35S273.28,29.77,292.13.78A1.75,1.75,0,0,1,293.21,0a1.7,1.7,0,0,1,2.06,1.69,1.68,1.68,0,0,1-.27.93C271.4,39,225.63,119.43,234.79,136.58s100.8,22.64,143.79,22.64A1.71,1.71,0,0,1,380.28,160.92Zm17.28-81.47c-13.48,0-42.29-1.76-45.12-7.12s11.47-30.63,18.9-42V30a.53.53,0,0,0-.24-.46.55.55,0,0,0-.74,0C364.44,38.8,345.1,66,334.11,72S290,79.45,279.18,79.45a.49.49,0,0,0-.37.16.5.5,0,0,0-.15.37.53.53,0,0,0,.15.4.52.52,0,0,0,.37.15c13.48,0,42.29,1.73,45.16,7.1s-11.51,30.66-19,42a.54.54,0,0,0,0,.31.5.5,0,0,0,.24.43h.28a.52.52,0,0,0,.46-.25c5.93-9.1,25.33-36.43,36.28-42.41s44.2-7.31,55-7.31a.53.53,0,0,0,.56-.56A.55.55,0,0,0,397.56,79.45Z"/></g></g></g></g></svg>