<svg xmlns="http://www.w3.org/2000/svg" viewBox="0 0 398.16 321.87"><defs><style>.cls-1{fill:#f9f1f1;}</style></defs><title>c1634454-56f6-454f-807c-47e613d4018cmdpi</title><g id="Layer_2" data-name="Layer 2"><g id="Layer_1-2" data-name="Layer 1"><g id="c1634454-56f6-454f-807c-47e613d4018c"><g id="c1634454-56f6-454f-807c-47e613d4018c-child-0"><path class="cls-1" d="M17.88,160.92a1.72,1.72,0,0,0,1.7,1.73c34.33,0,140.18,4.28,175.13,23.35s96.64,106.1,115.48,135.09a1.73,1.73,0,0,0,1.45.78,1.69,1.69,0,0,0,.93-.28,1.75,1.75,0,0,0,.77-1.45,1.62,1.62,0,0,0-.28-.93c-23.6-36.3-69.37-116.77-60.24-133.92s100.83-22.64,143.83-22.64a1.73,1.73,0,0,0,0-3.43c-34.33,0-140.19-4.28-175.14-23.35S124.88,29.77,106,.78A1.75,1.75,0,0,0,105,0a1.7,1.7,0,0,0-2.06,1.69,1.68,1.68,0,0,0,.27.93c23.6,36.3,69.37,116.77,60.21,133.92S62.57,159.22,19.58,159.22A1.71,1.71,0,0,0,17.88,160.92ZM.59,79.45c13.48,0,42.28-1.76,45.12-7.12S34.24,41.7,26.8,30.29V30a.54.54,0,0,1,.25-.46.55.55,0,0,1,.74,0C33.71,38.8,53.05,66,64,72S108.2,79.45,119,79.45a.53.53,0,0,1,.52.53.53.53,0,0,1-.15.4.54.54,0,0,1-.37.15c-13.48,0-42.29,1.73-45.16,7.1s11.51,30.66,19,42a.54.54,0,0,1,0,.31.48.48,0,0,1-.25.43h-.27a.55.55,0,0,1-.47-.25c-5.92-9.1-25.32-36.43-36.27-42.41s-44.2-7.31-55-7.31a.69.69,0,0,1-.41-.15A.69.69,0,0,1,0,79.88.55.55,0,0,1,.59,79.45Z"/></g></g></g></g></svg>