<svg xmlns="http://www.w3.org/2000/svg" viewBox="0 0 1248.58 1405.12"><defs><style>.cls-1{fill:#9f1111;}</style></defs><title>c4c8c92a-19df-48df-be28-1e65f5715b30roster</title><g id="Layer_2" data-name="Layer 2"><g id="Layer_1-2" data-name="Layer 1"><g id="c4c8c92a-19df-48df-be28-1e65f5715b30"><g id="c4c8c92a-19df-48df-be28-1e65f5715b30-child-0"><path class="cls-1" d="M1245.23,82.15l-6,1.23h-7.47c-2.77-1.37-5.58-2.55-8.44-3.64a105.22,105.22,0,0,1-16.73,2.32l-7.52-1.18a59.27,59.27,0,0,1-16,1.18c-1.11,0-3.88,1.28-4.85,1.13a16.25,16.25,0,0,0-5.19-1l-7.37,1.23h-10.23a17.47,17.47,0,0,0-12.42-4.3l-10.23-.62a13.48,13.48,0,0,1,0-2.84,17.4,17.4,0,0,1,3.93-3.78,89.18,89.18,0,0,1,11-6.77,167,167,0,0,0-18-8.28c-.88-3.36-4-4.26-5.72-6.63a72.45,72.45,0,0,0,3.83-8.8L1121,34.5c-.73-.71,1.35-3.46.48-5s-1.94-2.93-3-2.79-4.08,1.37-4.85,1.37h-9.7a13,13,0,0,1-6.5-3.69,18.08,18.08,0,0,1-1.94-4.07c0-.71.29-3.27,0-3.6a44.26,44.26,0,0,1-3.49-4.49,8.84,8.84,0,0,0-3.25-1.33,30.43,30.43,0,0,1-4.27,0l-5.92-2.41c-19.73-.62-39.18-1.28-59.79-1.23l-11.93-1.23c-.63,0-2.28-2.23-3-2.46a22,22,0,0,0-4,0,29.44,29.44,0,0,0-7.22-2.51l-6.45,2.7A104.25,104.25,0,0,0,973.32,5a91.51,91.51,0,0,1-16.59-5,10.74,10.74,0,0,0-5.82,2.13V9a2.86,2.86,0,0,1-2.23,2,60.82,60.82,0,0,0-8.78,1.32,94.59,94.59,0,0,0-13.63-2.41A66,66,0,0,0,912,11.26c-1.36.29-4.32-1.46-4.85-1.23a14.27,14.27,0,0,0-6.79,3.46c-11.79,0-21.39,2.69-33.12,2.6l-11.26-5h-7.8c-.63,1.19-2.48,2.8-1.36,3.79a49.48,49.48,0,0,1,7.37,6L828,22.1H796.89l-6.4,1.56a11.41,11.41,0,0,1-4.42-1.94c-.92-.57-3-3.12-3.88-3.55-3.1-1.51-6.11-3.12-9.16-4.4H762.36c-.44,0-1.7,1.7-2.18,1.75a22.54,22.54,0,0,1-5.63-.42,6.13,6.13,0,0,0-4.85,2.27,57.41,57.41,0,0,1-3.2,5.49A9.69,9.69,0,0,1,742,24.7c-17.95.95-35.65,2.56-54.22,2.56L680.06,26a41.63,41.63,0,0,1-13,1.18L651.69,31.9c-1,.33-4-.34-4.85,0l-8.54,3.69a49,49,0,0,1-5.14,0l-12,2.27-13.87,1.23c-6.79,0-13.24-1.37-20.61-1.28a14.34,14.34,0,0,0-4.37,1.89c-.58.38-1.94,2.09-2.52,2.46a18,18,0,0,1-4.07,1.66,121.42,121.42,0,0,1-22,1.37l-5.48-1.13c-11.45,1.8-23.86,2.27-34.43,3.69a145.87,145.87,0,0,0-19.16-3.69A70.23,70.23,0,0,1,483,45.29c-9.12-.33-16.92-2.42-26.23-2.23-7.23,0-14.12,1.09-21.73,1.09a48.81,48.81,0,0,1-10.62-3.64h-8.88c-.58,0-2.71-2.08-2.61-2.46a110.38,110.38,0,0,0,1.69-26.22,3.35,3.35,0,0,0-1.21-1.37,7.92,7.92,0,0,0-2.57,0,6.76,6.76,0,0,0-1.89,1.84l-5.14,9.8-1.94,6.29c0,.76.48,3.7,0,4.26a88.18,88.18,0,0,0-8.59,7.1L377.3,48.32a31.73,31.73,0,0,0-11.25,0l-10.67,1.84-6.84,6.11c-8.83.42-17,1.46-25.22,2.51A3.86,3.86,0,0,0,321.87,60a5.12,5.12,0,0,0,0,2.46,5.22,5.22,0,0,0,1.31,1,47.15,47.15,0,0,0,14.55,1.28v3.78l-8.54,1.23H310.37a57.09,57.09,0,0,1-3.15-34.31,22.73,22.73,0,0,0,0-3.69,21.45,21.45,0,0,0-5.43,0l-7.08,4.74a6.8,6.8,0,0,1-2.38,0c-1.74-.67-3.83-1.09-4.85-2.46-2.18-2.89-3.73-6.25-6-9.09-.87-1.09-1.89,0-2.33.61a8.19,8.19,0,0,0-1.45,4.74c.34,2.55,1.31,5.06,1.4,7.66,0,.67-2.66,2.42-2.66,3v8a26.13,26.13,0,0,0-6.36,17.27v10.6a29.63,29.63,0,0,1-2.57,7.34,4.89,4.89,0,0,1-4.27,2.22c-12.6.48-24.49,1.8-36.66,2.75-7.08-.52-13.72-1.33-21.19-1.28a8.59,8.59,0,0,1-8.49-1.37c-10.57.33-19.83,2-30.89,1.37l-12.37-1.23c-3.44-.62-6.69-2-9.7-2.51l-9.69,1.33H113a55.29,55.29,0,0,0-6.31-2.18L97.43,85.8a31,31,0,0,1-7.81-.62,532,532,0,0,1-59.46-2.74,22.49,22.49,0,0,1-10.13,1c-5.48-1.23-12-3.5-17.9-1.33C1.41,82.53.68,83,0,83.38v6.11A107.61,107.61,0,0,0,14.11,95l8.49,1.89h9.7c.58,0,2.28-2.32,3-2.46l5.57-1.23H59.17A93.08,93.08,0,0,1,77.4,97.91a3.54,3.54,0,0,0,2.23,0,14.8,14.8,0,0,1,6.84-3.26,10.46,10.46,0,0,1,4.85,0L97.38,100a68.25,68.25,0,0,0,21.05,9.47c.39,0,2.57,1.84,2.52,2.41a8.19,8.19,0,0,1-5.77,6.39,60.64,60.64,0,0,1-13.24,3.07,12.16,12.16,0,0,1-8.49,3.79,27,27,0,0,0-9,7v1.85l-5.14,5.06a10.62,10.62,0,0,1-5.43,1.8c-.78,0-2.48,2.17-2.81,2.27a109.56,109.56,0,0,0-19.89,7.52l-7.27,1.33H27.3a70.16,70.16,0,0,0-17.6,3.83,4.72,4.72,0,0,0-2.91,4.21A7.9,7.9,0,0,0,17.26,163h9.61a36.11,36.11,0,0,1,10.62,3.64,218,218,0,0,1,26,1.47,374.56,374.56,0,0,1,48,9l15.37,4.73a41.14,41.14,0,0,1,4.85.76,57.84,57.84,0,0,0,19.11,6.06l6.69,3,5.77,5.54a14.06,14.06,0,0,1,1.85,4.06,86.06,86.06,0,0,1,2.57,13.49l.19,31.33a55.41,55.41,0,0,0,1,7.38v11.45l-2.57,8.57-2.57,48.32,3.93,61.52-1.36,7.1a83.65,83.65,0,0,1,1.94,15.19l.68,13.48,2.52,8.57,1.31,15.9-1.36,13.53,2.62,11.41a6.2,6.2,0,0,0,4.85,2.6c1.7,0,3.88-1.09,3.88-2.41a74.46,74.46,0,0,0-.53-17.65c-.58-14.2-2.43-28-4.32-41.27l-1.36-108.32c1.12-6.44,1.9-13,2.62-20L181.71,270V236.62c0-.86,1.31-3.46,1.31-4.31s-1.31-3.41-1.31-4.26,1.51-4,1.31-4.73l-1.31-5.73V207.51a52.42,52.42,0,0,1,3.21-13.86l5.38-10.23c2.57-1.23,4.85-2.41,7.08-3.26a10.76,10.76,0,0,1,3.49,0L215,184.42l6.36,3.74a11.7,11.7,0,0,1,3.29,3.21,18.8,18.8,0,0,0,4.47,6.82,138.54,138.54,0,0,0,4.46,20,25.14,25.14,0,0,1,1.89,4.07v27l-1.31,18.55,1.21,18.6,1.46,120.2c0,1.14-1.36,3.69-1.36,4.73s1.31,3.46,1.26,4.74c-3.25,55.22-4.85,112-6.4,169.22l-2.52,28.4A80,80,0,0,0,229.14,636a124.92,124.92,0,0,0-1.45,13.35c0,1.09,1.5,3.79,1.26,4.73a14.42,14.42,0,0,0-1.16,6.06l1.26,10v23.67l1.26,8.56-1.26,8.57v41.26c1.55,58.64,3.39,117.41,6.45,174.48l-1.31,5.63,1.31,5.68v9c0,.9-1.31,3.46-1.31,4.31s1.45,3.5,1.31,4.26l-1.31,5.73-1.41,112.1c-.82,42.59-3.59,85.19-4.85,127l-1.41,110.5c0,4.73-1.16,9.08-1.35,13.58,0,1.14,1.35,3.74,1.35,4.73s-1.26,3.41-1.26,4.31v9c-1.84,14.2-3.78,28.11-5.09,43l1.26,5.82a19.63,19.63,0,0,0-1.11,9.13,5.79,5.79,0,0,0,3.93,4.74c3.54,0,5.33-3,5.82-6.06,2.08-13,1.89-27.73,4-40.23,0-.8,2.72-2.5,2.67-3.21a171.38,171.38,0,0,1-1.26-22.86l3.83-96.21-1.26-22c.68-22,2.08-43.82,3.83-65.35l1.26-5.73c0-.76-1.26-3.41-1.26-4.26s1.21-3.41,1.26-4.31l1.26-18v-68.43l1.31-5.67c0-.81-1.31-3.46-1.31-4.31s1.31-3.45,1.31-4.73c-.39-286.83-13.39-582.41,15.47-847.09,7.08-4,12.32-7.47,17.85-10.36h11.49A24.3,24.3,0,0,1,296,177.6c8.49,3.36,12.22,11.55,14.07,20.73a187.8,187.8,0,0,1,2,37.29c-.43,27.5-1.74,55.32-1,83.95l2.53,17.13v13.49l2.57,25.7v51.77c-2.14,35.25-6.31,70.65-10.19,104.11v19.59l-2.57,51.44V622L302,629.4l1.26,7.14v29.82L301.94,679l1.35,6.1L302,690.92c-.53,28.39.34,55.55,1.31,82.86l1.26,5.73c0,.8-1.31,3.45-1.31,4.3s1.31,3.41,1.31,4.31v27.35l1.26,5.73-1.26,5.68v15.47l1.26,11-1.26,5.72,1.26,5.54-1.26,6.1a54.86,54.86,0,0,1,1.22,8.33,8.31,8.31,0,0,0,2.61,2.7,5.5,5.5,0,0,0,2.14,0,7.57,7.57,0,0,0,3.68-4.64,7.39,7.39,0,0,0-.77-5.82,113.91,113.91,0,0,0,2.62-18.93l-1.26-15.71c12.8-227.81-19.74-493.77,42.92-666.73,2.27,1,4.84,1.94,5.72,2.46a15.35,15.35,0,0,1,3.1,3,32.81,32.81,0,0,1,3.3,6.53l1.26,10.64c.34,17.89-1.07,34.83-1.26,52.3v126l1.26,15.71-2.47,33.13,1.06,6.67-3.68,34.74-1.31,22.05v31.89l-1,5.49c0,.81,1.26,3.46,1.26,4.31s-1.21,3.45-1.21,4.26c.29,62.94,0,126.11,4,185.84a32.6,32.6,0,0,0,2.13,11.21,7.93,7.93,0,0,0,7.08,2.42c1.21,0,3.39-1.76,3.39-2.94v-7.81l-2.57-8.61a251.65,251.65,0,0,1-1.31-25.6c0-1,1.31-3.55,1.31-4.4s-1.31-3.41-1.31-4.26l-1.3-124.18,1.35-5.72c0-.76-1.31-3.41-1.31-4.26s1.31-3.46,1.31-4.31V516.91c0-.85,1.22-3.45,1.07-4.26a25.41,25.41,0,0,1-.87-4.73c0-1.66,1.21-3.6.82-4.73a16.29,16.29,0,0,1-1-6.11c1.75-18.93,2.82-38.57,4.85-56.79.49-13.81,1.41-27.3,1.31-41.59,0-.95-1.31-3.51-1.31-4.36s1.31-3.45,1.31-4.3V379.86c0-.85-1.31-3.41-1.31-4.26s1.26-3.45,1.26-4.73c0-19.26-1.69-37.24-1.26-57.35l1.31-91.91,2.52-25.69v-11A24,24,0,0,1,390.05,174a68.49,68.49,0,0,1,7.42-7.43,7.67,7.67,0,0,1,8.88,6c4.12,13.59,3.3,31.43,3.49,48.61,0,13.72,1.41,27.06,1.16,41.21l-1.31,10,1.27,10v47.32l1.26,23.52,2.57,11.46c2.08,17.51,2.71,36.1,3.78,54.32v14.2c-.29,5.16-1.16,9.94-1.12,15.38a2.82,2.82,0,0,0,2,2.18c.63,0,3.11.33,3.59,0a15.36,15.36,0,0,0,3.88-9.47l1.94-10.22V416.44c0-.85-1.5-3.59-1.21-4.4a15.34,15.34,0,0,0,1.16-7.24c-1.74-18.93-2.57-38.14-5.09-56.17V269.74l-1.31-8.9a53.09,53.09,0,0,0,1.26-15.38c0-1,1.55-3.83,1.21-4.73a16.93,16.93,0,0,1-1.16-7.85l1.31-14.2V196.49l1.31-13.07a46.83,46.83,0,0,1,4.22-14.19l5.43-5.16a11.73,11.73,0,0,1,5.14,0c1.79.52,4,1,4.85,2.18a21.66,21.66,0,0,1,2.81,6.29l2,10.22c0,17.8-2.18,34.78-2.57,52.06l1.26,27c0,13-1.45,25.6-1.31,39.14,0,.9,1.46,3.59,1.21,4.4a14.54,14.54,0,0,0-1.16,6.06,131.26,131.26,0,0,1,1.31,13.86c0,1.09-1.31,3.69-1.31,4.73s1.26,3.41,1.26,4.26v39.61l1.26,5.73-1.26,5.53,1.07,7.67c0,27.26-2.62,53.57-3.88,79.65v56.78L448,540.67l-1.31,9.79c1.5,16.47,2.42,34,2.57,52.06l1.31,20.77a16.21,16.21,0,0,0,4.85,7.76,7.4,7.4,0,0,0,2.81,1A6.36,6.36,0,0,0,464.3,627a10.26,10.26,0,0,0,0-3,87.6,87.6,0,0,0-5.09-14.19L457.85,588l1.36-6L458,576.3c-.49-56.79,0-113,2.52-167.43l1.31-5.72c0-.76-1.31-3.41-1.31-4.26s1.45-3.55,1.31-4.31l-1.07-5.73V342.29l-1.26-11.41,1.26-11.45c.73-24.8,1.75-49.26,1.31-74.72l-1.31-5.54a195.4,195.4,0,0,0,2.67-32.84,88.84,88.84,0,0,1,2.33-19.64l2.62-13.49,3.2-6.53,4.46-4.26a11.34,11.34,0,0,1,4.27-1.84h12.8l6.79,6.29a75.31,75.31,0,0,1,4.31,12v87.93c.39,16.61.44,35.16,2.33,50.21l.24,20L508,352.08c1.45,8.24,4,16.05,5.14,24.52v8.75a11,11,0,0,0,3.34,5.54,8.52,8.52,0,0,0,4.85,0c1.41-.71,3.54-1.8,3.54-3v-7.1a19.57,19.57,0,0,1-4.31-14.2l-2.23-16.42c1.5-59.63-10.92-141.26,9.69-191.14a27.22,27.22,0,0,1,9.7,3.65c2.91,1.61,4.27,4.73,6.55,7.9l2.47,15.85c1.17,13.68,1.36,27.69,1.51,42.59,0,4.74,1,9.09,1.16,13.59,0,1.13-1.36,3.73-1.36,4.73s1.26,3.4,1.26,4.3v6.91l2.48,12.78c0,.66-1.21,3.31-1.21,4.16s1.16,3.46,1.21,4.31c1.21,25.79,3.49,50.68,3.88,77.19,0,.85,1.31,3.45,1.31,4.3s-1.31,2.94-1.31,3.65,1.21,3.45,1.31,4.3l1.26,15.95v23.66l1.26,5.73-1.26,5.72a428.34,428.34,0,0,1-5.14,61.52V584.35l2.57,38.37,2.57,8.62v22.85a5.5,5.5,0,0,0,3.83,4.74,3.73,3.73,0,0,0,3.78-1.8,10.19,10.19,0,0,0,1.31-2.84V643.64c0-.85,1.36-3.5,1.12-4.16a56,56,0,0,1-2.23-14.2c-1.12-15.52-1.75-31.23-1.46-47.7,0-1-1.41-3.69-1.11-4.26,2.08-4.17.38-9.47,0-14.2a38.55,38.55,0,0,1,.67-11.78c0-.71-.82-1.94-.77-2.32s1.21-3.41,1.21-4.45c0-8.28-1-15.85-1.21-23.9V486.43L565.85,475,571,423.54V390.42c-2.33-33.13-5.24-66.26-6.45-100.9l-2.52-25.69V183.38a61.9,61.9,0,0,1,3.25-13.87,13.69,13.69,0,0,1,4.46-6.67,38.61,38.61,0,0,1,6.69-3.17c11.59,0,22.46-.95,33.56-1.33a10.55,10.55,0,0,1,4.46,1.94l7.67,7.39c.67,3.36,2.18,6.15,2.66,9.13l4.85,52.29c.24,22.53,0,44.63-.53,66.58C614.59,538.35,632.82,785.37,634,1013c3.39,1.94,6.16,1.09,7.37-.66a21,21,0,0,0,2-8.56c.77-5.4,2.18-10.46,3.15-15.53V981c.73-7.24,2.09-14.2,2.72-21.16,0-1.27-1.46-3.92-1.46-4.73s1.31-3.41,1.31-4.26V913.71l-1.31-33.12-2.52-20v-8.19l-6.45-45.34c-.87-8.56-.87-17.55-1.21-26.54,0-.86-1.26-3.41-1.26-4.26s1.26-3.46,1.21-4.5c0-7.57-1.31-14.57-1.31-21.86l2.57-216-1.21-10,1.31-9.8a217.5,217.5,0,0,1-1.31-25.13l2.52-59.39-1.26-25.13c.63-24.56,2.71-48.41,2.76-73.92a54.36,54.36,0,0,0,.78-7.38l.39-18.08c0-.71,1.21-3.31,1.21-4.16s-1.26-3.41-1.26-4.26,1.45-4,1.26-4.73l-1.26-5.68c.73-4.73.82-10.13,1.31-15.14,0-.86,1.4-3.65,1.11-4.26a19.7,19.7,0,0,1,0-13.54l-1.36-9.18V179.35a79.93,79.93,0,0,1,3.16-13.72,19.35,19.35,0,0,1,5.82-6.67,16.36,16.36,0,0,1,4.22-1.89,5.64,5.64,0,0,1,2.52,0l7.17,6.72a185.27,185.27,0,0,1,4,18.21,102.4,102.4,0,0,0,1.41,21.06c0,1.33-1.41,4-1.41,4.74s1.26,3.4,1.26,4.25V340.73c-.39,18.36-3,35.87-2.62,55.13L673,515.92c0,.85,1.45,3.4,1.45,4.3s-1.31,2.89-1.31,3.65,1.22,3.4,1.22,4.3c1.11,26,3.54,50.83,6.49,75.15.34,13,1.51,25.22,2.53,37.58-.93,8.56-1,18.55-2.33,26.54l-.24,14.63a8,8,0,0,0,2.61,4.73c1.65,1.8,6.6,1.75,7.62-.62a25.53,25.53,0,0,0,1.31-2.84,10,10,0,0,0,0-3.36,59.74,59.74,0,0,1-2.52-9.08,66.09,66.09,0,0,1,2.57-9.09V619.65L686,526.94c0-.85-1.26-3.45-1.26-4.3S686,519.7,686,519s-1.22-3.45-1.26-4.16l-1.27-94.65a79.89,79.89,0,0,1-1.11-12.63,55.15,55.15,0,0,0,1.11-10.65l-1.3-5.73,1.26-5.72c.72-16.61,2.13-32.75,2.57-49V253.65c.48-26.69.72-54,2.62-79.6a63.58,63.58,0,0,1,5.72-14.71,16.11,16.11,0,0,1,3.2-3.08,14,14,0,0,1,4.27-1.84h18.33a13.39,13.39,0,0,1,4.22,1.89,34,34,0,0,1,6.54,8l2.43,10.51c1,15.09,1.31,30.1,1.31,46.14l1.26,10c0,3.79-1.21,7.48-1.36,11.36,0,1.09,1.36,3.69,1.36,4.73s-1.26,3.46-1.26,4.73c0,15,2.08,28.78,2.57,43.3l-1.31,15.9,1.31,13.49-1.31,12.87v43.68c.82,17.09,3.49,33.51,5.14,49.83v18.93c0,4.74,1.16,9.09,1.36,13.58,0,1.14-1.36,3.74-1.36,4.74s1.21,3.45,1.21,4.3c0,31.66-.87,62.19-1.21,93.09l.63,33.12.63,74.73c0,.85,1.31,3.4,1.31,4.3s-1.31,3.41-1.31,4.26v20l1.31,5.73-1.31,5.67v20.07L741,746.28l1.26,12.88v40.46l1.31,8.75a44.56,44.56,0,0,0-1.31,12.45l2.57,11.45v11.41l-1.31,8.94a53.65,53.65,0,0,1,1.26,14.72c0,.52,2,2.36,2.62,2.69a5.86,5.86,0,0,0,2.57,0,8.27,8.27,0,0,0,2.47-2.69c1.6-10.46,2-22.1,2.67-33.13,0-1-1.31-3.6-1.31-4.45s1.36-3.55,1.17-4.3a57.24,57.24,0,0,1-2.48-10.6V783.81c0-.85-1.26-3.45-1.26-4.3s1.26-3.41,1.26-4.26V736.82c0-13.2,2.43-28.39,1.31-38.76V450.56l-6.3-90.67A445.21,445.21,0,0,0,750,306.61l-1.31-65.55,1.31-56.5,1.31-11.83a25.57,25.57,0,0,1,4.85-10.89,14.4,14.4,0,0,1,8.73-6.24,12,12,0,0,1,4.51,1.8c.87.56,3,3.07,3.83,3.69a22.83,22.83,0,0,0,4.27,1.84,4.86,4.86,0,0,0,2.62,0,39.83,39.83,0,0,0,6.69-8.37c.78-1.19,2.08-2.94,3.35-2.7a12.31,12.31,0,0,1,4.85,2.08,34.39,34.39,0,0,0,10,7.24c.49,0,1.7,1.75,2.28,1.8a10.6,10.6,0,0,1,6.65,3,24,24,0,0,1,7.71,6.44,205,205,0,0,1,2.76,27.78v79l1.26,22.05c0,.9,1.31,3.45,1.31,4.3s-1.31,2.94-1.31,3.7,1.31,3.4,1.31,4.26v60.62l-1.31,5.72c0,.9,1.41,4,1.22,4.73a29.6,29.6,0,0,0-1,6.91V436c0,.85,1.21,3.45,1.06,4.26a16.08,16.08,0,0,0-1.06,5l1.21,7.05a186.58,186.58,0,0,1-1.31,32c1.16,16.14,3.93,30.67,5.82,46l1.94,14.2c0,7.43-1.41,14.67-1.26,22.43l1.26,36.34-3.06,54.47,1.41,10.6c1,3.83,3.54,7.76,8.87,7,2-.28,3.25-2.46,3.88-5.3a81.05,81.05,0,0,1-3.83-14.19V645.3l2.57-28.4V586.24l-1.26-7.15,1.26-7.14V544.22c-.72-8.43-2.62-16.57-3.2-25.7l-1.94-20.44V437.45L837,428.89l1.31-8.61V397l1.16-8.61V376.17c0-.85,1.27-3.41,1.27-4.26s-1.27-3.45-1.27-4.21L838.21,257l1.3-5.72c0-.81-1.3-3.46-1.3-4.31s1.26-3,1.11-3.64a16.39,16.39,0,0,1-1.07-5l1.26-7.05v-40c.54-16.05-.33-34.93,12.37-40,.63-.24,1.94-1.66,2.38-1.66h11c2,2,4.85,2.75,6.69,4.73a14.27,14.27,0,0,0,4.46,5.78L879,171.21c1.46,13.11,3.78,25.13,4.85,37.86,1.45,16.71,2.23,33.51,2.72,51.06l1.31,5.73L886.56,272l1.31,8.56c.48,21.49-.68,41.88-1.31,62.47,0,.9-1.27,3.45-1.27,4.3s1.46,3.51,1.27,4.31l-1.27,5.73-2.57,51.44v22.43l-1.26,12.87L882.72,457v24.51c0,.86-1.26,3.41-1.26,4.31s1.26,2.94,1.26,3.64-1.26,3-1.26,3.7,1.17,3.4,1.22,4.3c1.84,20.64,2.08,42.83,2.81,64.41a6.33,6.33,0,0,0,1.94,4.21,5.55,5.55,0,0,0,5.67,1.7c.78-.33,3.59-3,3.59-3.83,0-4.07-.87-7.57-1.11-11.4V540.29a59.22,59.22,0,0,0-2.53-14.2c-.24-.66,1.27-3.41,1.27-4.26V430.92L897.18,375l2.52-34.31V328L901,318l-1.26-9.79a67.6,67.6,0,0,1,2.47-17.33c0-.61-1.21-3.26-1.21-4.11V234.06l-2.57-34.31V172.4L901,161.56c2.13-2,2.91-4.73,4.85-6.48a14.91,14.91,0,0,0,6.11-4.31h27.84c.53,0,2.42,1.85,2.66,2.46,1.56,3,3.3,5.82,4.56,8.71l1.31,10.88c.49,32.14,2.57,62.75,3.83,93.51V322.7l1.31,5.72-1.31,5.73.29,22.05-2.71,87.36-1.46,8.9A47.06,47.06,0,0,1,949.5,466l-1.31,6.39a12.06,12.06,0,0,0,2,4.26c.39.56,2.18,2.41,2.77,2.41h6a4.85,4.85,0,0,0,3.4-3.17V469.3l-4-12.82a141.8,141.8,0,0,0,1.45-20.26l2.58-17.13c.67-24.37,1.89-48,2.57-71.5V257l-1.27-5.72,1.27-5.54-1.27-7.14V181L964.93,162a18.82,18.82,0,0,0,2.52-6.76c0-.85,3-3.27,3.88-3.88a22.13,22.13,0,0,1,4.26-1.85,10.84,10.84,0,0,1,3,0,22.49,22.49,0,0,1,4.27,1.85,19.16,19.16,0,0,1,3.1,3.07,30.26,30.26,0,0,1,4.51,11l1.31,13.91v18l1.31,8.56-1.31,6.72,1.31,7.15v35.77l1.26,23.67L997,296.34l4.46,87,.58,28.4,1.31,8.56-1.31,8.62c-3,86.88-2.71,173.81-1,258.47v55.18c0,.86,1.26,3.41,1.26,4.26s-1.26,3.46-1.26,4.31v29.39l-2.57,75.71,2.61,78.84,1.22,5.73c0,.76-1.26,3.41-1.26,4.26s1.21,3.45,1.26,4.31l1.31,18c.34,61.52-.88,124.17,1.31,183.75l1.26,7.15-1.31,7.14v12.26l1.31,5.92a31.64,31.64,0,0,0-2.48,11.17c0,.66-2.52,2.36-2.57,3-.29,6.34-.77,12.63-1.35,18.93,1,14.19,1.69,28.39,3.83,41.64l2.57,8.61v5.68a5,5,0,0,0,2,3.88,5.24,5.24,0,0,0,4.42.85,5.7,5.7,0,0,0,2.42-2.55V1265l-2.57-5.68-1.26-16.75V1216l2.57-14.19c0-1,3.83-3.27,3.83-4.12v-8.94l-2.57-8.62c-.58-9.08,1.07-17.32,1.31-25.69l-1.31-17.18v-22.43l-1.26-5.73,1.26-5.73v-22.47c0-.86-1.26-3.41-1.26-4.26s1.26-3.46,1.26-4.31V983.09l1.31-15.76c-.48-9-2.18-17.84-2.33-27.16-.43-24.56-.63-48.84-2.81-71.46,0-.85-1.26-3.41-1.26-4.26s1.16-3.45,1.21-4.31L1015,764.6V685.76l-1.31-5.92a13.62,13.62,0,0,0,1-7.47,33.82,33.82,0,0,1,0-8.29c-1.55-29.34-.73-60.81-.73-91.05l1.31-27.16c-.43-15.33-1.84-30.81-1.31-47.32l1.31-8.66a53.67,53.67,0,0,1-1.16-10.32c.68-9.79,1.21-20,1.12-30.81l1.31-7.19-1.27-6.67a297.45,297.45,0,0,0,2.53-30L1011.43,307l-2.66-20,1.35-104.11,1.26-9.46a10.23,10.23,0,0,0,2.72-3.55,107.31,107.31,0,0,1,30.55-18.69l6.4-1.8,30.85-1.33a13,13,0,0,1,5.62,8.66l1.94,10.23V194a127.41,127.41,0,0,1,3.79,40.66l3.88,30.66c.72,29.72,3.78,58.07,3.88,88.21L1099.7,365l1.26,11.41v23.66l-1.26,7.14,1.26,7.15v28.39l3.25,6.49c.63,1.23,2.23,2.74,3.39,2.46,2.18-.62,4.85-1,5.19-2.23a17.05,17.05,0,0,0,2.38-5.34c-1.41-5.73-2.87-11-4-16.47V338.6l-1.31-53.9c-1.94-30.34-4.12-61.29-4.85-92.9,1.12-17.84-1.16-39.23,9-48.41a11.68,11.68,0,0,0,8.39-3.74c12.37-1.61,25.17-2.79,37.15-4.73,9.7-3.74,19.88-6.91,29.34-9.94,1.41-.47,3.15-3.27,3.83-3.45l9.7-2.51a30.68,30.68,0,0,1,14.55-6.15c8.53-3.51,17.85-6.58,25.9-10.27a3.64,3.64,0,0,0,1.4-1.57V95.36a15.23,15.23,0,0,0,4.27-11.79C1248.24,82.48,1246.59,81.92,1245.23,82.15Z"/></g></g></g></g></svg>