<svg xmlns="http://www.w3.org/2000/svg" xmlns:xlink="http://www.w3.org/1999/xlink" viewBox="0 0 1995.68 1995.62"><defs><style>.cls-1{fill:url(#linear-gradient);}</style><linearGradient id="linear-gradient" x1="6225.03" y1="877" x2="6226.03" y2="877" gradientTransform="matrix(0, -1995.62, -1995.68, 0, 1751207.28, 12424779.55)" gradientUnits="userSpaceOnUse"><stop offset="0" stop-color="#ee1212"/><stop offset="0.39" stop-color="#f47906"/><stop offset="0.4" stop-color="#f47906"/><stop offset="1" stop-color="#ee1212"/></linearGradient></defs><title>c8ea87ee-61c5-45a3-9b49-81847f6163fcmdpi</title><g id="Layer_2" data-name="Layer 2"><g id="Layer_1-2" data-name="Layer 1"><g id="c8ea87ee-61c5-45a3-9b49-81847f6163fc"><g id="c8ea87ee-61c5-45a3-9b49-81847f6163fc-child-0"><path class="cls-1" d="M20.48,10.85A10.85,10.85,0,1,1,31.33,21.7,10.88,10.88,0,0,1,20.48,10.85Zm95.78,10.59a10.59,10.59,0,1,0-10.59-10.59A10.6,10.6,0,0,0,116.26,21.44ZM201.19,21a10.14,10.14,0,1,0-10.14-10.14A10.17,10.17,0,0,0,201.19,21Zm84.93-.51a9.63,9.63,0,1,0-9.62-9.63A9.62,9.62,0,0,0,286.12,20.48ZM371.06,20a9.18,9.18,0,1,0-9.18-9.18A9.18,9.18,0,0,0,371.06,20ZM456,19.77a8.92,8.92,0,1,0-8.92-8.92A8.9,8.9,0,0,0,456,19.77Zm84.93-.45a8.47,8.47,0,1,0-8.47-8.47A8.46,8.46,0,0,0,540.92,19.32Zm84.93-.51a8,8,0,1,0-8-8A8,8,0,0,0,625.85,18.81Zm84.94-.45a7.51,7.51,0,1,0-7.52-7.51A7.52,7.52,0,0,0,710.79,18.36Zm84.93-.26a7.32,7.32,0,1,0-7.32-7.31A7.31,7.31,0,0,0,795.72,18.1Zm84.93-.45a6.81,6.81,0,1,0-6.8-6.8A6.81,6.81,0,0,0,880.65,17.65Zm84.93-.45a6.36,6.36,0,1,0-6.35-6.35A6.33,6.33,0,0,0,965.58,17.2Zm84.93-.25a6.1,6.1,0,1,0-6.09-6.1A6.09,6.09,0,0,0,1050.51,17Zm84.94-.45a5.65,5.65,0,1,0-5.65-5.65A5.63,5.63,0,0,0,1135.45,16.5Zm84.93-.52a5.2,5.2,0,1,0-5.2-5.19A5.17,5.17,0,0,0,1220.38,16Zm84.93-.19a4.94,4.94,0,1,0-4.94-4.94A4.9,4.9,0,0,0,1305.31,15.79Zm84.93-.51a4.5,4.5,0,1,0-4.49-4.49A4.47,4.47,0,0,0,1390.24,15.28Zm84.94-.45a4,4,0,1,0-4-4A4,4,0,0,0,1475.18,14.83Zm84.93-.45a3.53,3.53,0,1,0-3.53-3.53A3.56,3.56,0,0,0,1560.11,14.38Zm84.93-.26a3.27,3.27,0,1,0-3.27-3.27A3.28,3.28,0,0,0,1645,14.12Zm85-.45a2.83,2.83,0,1,0-2.83-2.82A2.84,2.84,0,0,0,1730,13.67Zm84.93-.51a2.37,2.37,0,0,0,2.37-2.37,2.38,2.38,0,1,0-2.37,2.37ZM1899.9,13a2.12,2.12,0,1,0-2.12-2.12A2.14,2.14,0,0,0,1899.9,13Zm84.93-1.22a1,1,0,1,0-1-1A1,1,0,0,0,1984.83,11.75ZM31.33,113.69A17.91,17.91,0,1,0,13.42,95.78,17.92,17.92,0,0,0,31.33,113.69Zm84.93-.7a17.21,17.21,0,1,0-17.2-17.21A17.21,17.21,0,0,0,116.26,113Zm84.93-.52A16.69,16.69,0,1,0,184.5,95.78,16.69,16.69,0,0,0,201.19,112.47Zm84.93-.7a16,16,0,1,0-16-16A16,16,0,0,0,286.12,111.77Zm84.94-.71a15.28,15.28,0,1,0-15.28-15.28A15.28,15.28,0,0,0,371.06,111.06Zm84.93-.71a14.57,14.57,0,1,0-14.57-14.57A14.55,14.55,0,0,0,456,110.35Zm84.93-.45A14.12,14.12,0,1,0,526.8,95.78,14.12,14.12,0,0,0,540.92,109.9Zm84.93-.7a13.42,13.42,0,1,0-13.41-13.42A13.45,13.45,0,0,0,625.85,109.2Zm84.94-.71a12.71,12.71,0,1,0-12.71-12.71A12.74,12.74,0,0,0,710.79,108.49Zm84.93-.7a12,12,0,1,0-12-12A12,12,0,0,0,795.72,107.79Zm84.93-.45A11.56,11.56,0,1,0,869.1,95.78,11.55,11.55,0,0,0,880.65,107.34Zm84.93-.71a10.85,10.85,0,1,0-10.85-10.85A10.88,10.88,0,0,0,965.58,106.63Zm84.93-.71a10.14,10.14,0,1,0-10.14-10.14A10.16,10.16,0,0,0,1050.51,105.92Zm84.94-.51a9.63,9.63,0,1,0-9.63-9.63A9.62,9.62,0,0,0,1135.45,105.41Zm84.93-.71a8.92,8.92,0,1,0-8.92-8.92A8.9,8.9,0,0,0,1220.38,104.7Zm84.93-.7a8.22,8.22,0,1,0-8.22-8.22A8.19,8.19,0,0,0,1305.31,104Zm84.93-.45a7.77,7.77,0,1,0-7.76-7.77A7.75,7.75,0,0,0,1390.24,103.55Zm84.94-.71a7.06,7.06,0,1,0-7.07-7.06A7,7,0,0,0,1475.18,102.84Zm84.93-.7a6.36,6.36,0,1,0-6.36-6.36A6.33,6.33,0,0,0,1560.11,102.14Zm84.93-.71a5.65,5.65,0,1,0-5.65-5.65A5.61,5.61,0,0,0,1645,101.43Zm85-.71a4.94,4.94,0,1,0-5-4.94A4.9,4.9,0,0,0,1730,100.72ZM1815,100a4.24,4.24,0,1,0-4.24-4.24A4.28,4.28,0,0,0,1815,100Zm84.93-.52a3.79,3.79,0,1,0-3.79-3.78A3.79,3.79,0,0,0,1899.9,99.5Zm84.93-1.6a2.12,2.12,0,1,0-2.11-2.12A2.13,2.13,0,0,0,1984.83,97.9ZM31.33,199.33a18.62,18.62,0,1,0-18.62-18.62A18.63,18.63,0,0,0,31.33,199.33Zm84.93-.71a17.91,17.91,0,1,0-17.91-17.91A17.91,17.91,0,0,0,116.26,198.62Zm84.93-.7A17.21,17.21,0,1,0,184,180.71,17.22,17.22,0,0,0,201.19,197.92Zm84.93-.52a16.69,16.69,0,1,0-16.69-16.69A16.7,16.7,0,0,0,286.12,197.4Zm84.94-.7a16,16,0,1,0-16-16A16,16,0,0,0,371.06,196.7ZM456,196a15.28,15.28,0,1,0-15.28-15.28A15.28,15.28,0,0,0,456,196Zm84.93-.7a14.58,14.58,0,1,0-14.57-14.58A14.56,14.56,0,0,0,540.92,195.29Zm84.93-.45a14.13,14.13,0,1,0-14.12-14.13A14.13,14.13,0,0,0,625.85,194.84Zm84.94-.71a13.42,13.42,0,1,0-13.42-13.42A13.41,13.41,0,0,0,710.79,194.13Zm84.93-.71A12.71,12.71,0,1,0,783,180.71,12.74,12.74,0,0,0,795.72,193.42Zm84.93-.7a12,12,0,1,0-12-12A12,12,0,0,0,880.65,192.72Zm84.93-.45A11.56,11.56,0,1,0,954,180.71,11.55,11.55,0,0,0,965.58,192.27Zm84.93-.71a10.85,10.85,0,1,0-10.84-10.85A10.87,10.87,0,0,0,1050.51,191.56Zm84.94-.7a10.15,10.15,0,1,0-10.15-10.15A10.17,10.17,0,0,0,1135.45,190.86Zm84.93-.52a9.63,9.63,0,1,0-9.63-9.63A9.62,9.62,0,0,0,1220.38,190.34Zm84.93-.7a8.93,8.93,0,1,0-8.92-8.93A8.91,8.91,0,0,0,1305.31,189.64Zm84.93-.71a8.22,8.22,0,1,0-8.21-8.22A8.19,8.19,0,0,0,1390.24,188.93Zm84.94-.45a7.77,7.77,0,1,0-7.77-7.77A7.75,7.75,0,0,0,1475.18,188.48Zm84.93-.7a7.07,7.07,0,1,0-7.06-7.07A7,7,0,0,0,1560.11,187.78Zm84.93-.71a6.36,6.36,0,1,0-6.35-6.36A6.34,6.34,0,0,0,1645,187.07Zm85-.71a5.65,5.65,0,1,0-5.65-5.65A5.62,5.62,0,0,0,1730,186.36Zm84.93-.7a4.95,4.95,0,1,0-4.94-4.95A4.91,4.91,0,0,0,1815,185.66Zm84.93-.71a4.24,4.24,0,1,0-4.24-4.24A4.28,4.28,0,0,0,1899.9,185Zm84.93-1.86a2.37,2.37,0,0,0,2.38-2.38,2.38,2.38,0,1,0-2.38,2.38ZM31.33,284.71a19.07,19.07,0,1,0-19.07-19.06A19.06,19.06,0,0,0,31.33,284.71Zm84.93-.45a18.62,18.62,0,1,0-18.62-18.61A18.63,18.63,0,0,0,116.26,284.26Zm84.93-.7a17.91,17.91,0,1,0-17.91-17.91A17.92,17.92,0,0,0,201.19,283.56Zm84.93-.71a17.21,17.21,0,1,0-17.2-17.2A17.2,17.2,0,0,0,286.12,282.85Zm84.94-.51a16.7,16.7,0,1,0-16.69-16.69A16.7,16.7,0,0,0,371.06,282.34Zm84.93-.71a16,16,0,1,0-16-16A16,16,0,0,0,456,281.63Zm84.93-.71a15.28,15.28,0,1,0-15.28-15.27A15.26,15.26,0,0,0,540.92,280.92Zm84.93-.7a14.58,14.58,0,1,0-14.57-14.57A14.57,14.57,0,0,0,625.85,280.22Zm84.94-.45a14.13,14.13,0,1,0-14.13-14.12A14.12,14.12,0,0,0,710.79,279.77Zm84.93-.71a13.42,13.42,0,1,0-13.42-13.41A13.45,13.45,0,0,0,795.72,279.06Zm84.93-.7a12.71,12.71,0,1,0-12.71-12.71A12.74,12.74,0,0,0,880.65,278.36Zm84.93-.71a12,12,0,1,0-12-12A12,12,0,0,0,965.58,277.65Zm84.93-.45A11.56,11.56,0,1,0,1039,265.65,11.54,11.54,0,0,0,1050.51,277.2Zm84.94-.7a10.85,10.85,0,1,0-10.85-10.85A10.88,10.88,0,0,0,1135.45,276.5Zm84.93-.71a10.15,10.15,0,1,0-10.14-10.14A10.17,10.17,0,0,0,1220.38,275.79Zm84.93-.51a9.63,9.63,0,1,0-9.63-9.63A9.62,9.62,0,0,0,1305.31,275.28Zm84.93-.71a8.93,8.93,0,1,0-8.92-8.92A8.9,8.9,0,0,0,1390.24,274.57Zm84.94-.71a8.22,8.22,0,1,0-8.22-8.21A8.19,8.19,0,0,0,1475.18,273.86Zm84.93-.45a7.77,7.77,0,1,0-7.77-7.76A7.75,7.75,0,0,0,1560.11,273.41Zm84.93-.7a7.07,7.07,0,1,0-7.06-7.06A7,7,0,0,0,1645,272.71Zm85-.71a6.36,6.36,0,1,0-6.36-6.35A6.32,6.32,0,0,0,1730,272Zm84.93-.7a5.65,5.65,0,1,0-5.65-5.65A5.63,5.63,0,0,0,1815,271.3Zm84.93-.71a4.95,4.95,0,1,0-4.94-4.94A4.9,4.9,0,0,0,1899.9,270.59Zm84.93-2.12a2.83,2.83,0,1,0-2.82-2.82A2.85,2.85,0,0,0,1984.83,268.47ZM31.33,370.35a19.77,19.77,0,1,0-19.77-19.77A19.78,19.78,0,0,0,31.33,370.35Zm84.93-.71a19.07,19.07,0,1,0-19.07-19.06A19.06,19.06,0,0,0,116.26,369.64Zm84.93-.44a18.62,18.62,0,1,0-18.61-18.62A18.64,18.64,0,0,0,201.19,369.2Zm84.93-.71a17.91,17.91,0,1,0-17.91-17.91A17.93,17.93,0,0,0,286.12,368.49Zm84.94-.71a17.21,17.21,0,1,0-17.21-17.2A17.2,17.2,0,0,0,371.06,367.78Zm84.93-.51a16.69,16.69,0,1,0-16.69-16.69A16.7,16.7,0,0,0,456,367.27Zm84.93-.71a16,16,0,1,0-16-16A16,16,0,0,0,540.92,366.56Zm84.93-.7a15.28,15.28,0,1,0-15.28-15.28A15.27,15.27,0,0,0,625.85,365.86Zm84.94-.71a14.57,14.57,0,1,0-14.58-14.57A14.57,14.57,0,0,0,710.79,365.15Zm84.93-.45a14.13,14.13,0,1,0-14.13-14.12A14.12,14.12,0,0,0,795.72,364.7Zm84.93-.7a13.42,13.42,0,1,0-13.42-13.42A13.46,13.46,0,0,0,880.65,364Zm84.93-.71a12.71,12.71,0,1,0-12.71-12.71A12.74,12.74,0,0,0,965.58,363.29Zm84.93-.71a12,12,0,1,0-12-12A12,12,0,0,0,1050.51,362.58Zm84.94-.45a11.56,11.56,0,1,0-11.56-11.55A11.54,11.54,0,0,0,1135.45,362.13Zm84.93-.7a10.85,10.85,0,1,0-10.85-10.85A10.88,10.88,0,0,0,1220.38,361.43Zm84.93-.71a10.14,10.14,0,1,0-10.14-10.14A10.16,10.16,0,0,0,1305.31,360.72Zm84.93-.51a9.63,9.63,0,1,0-9.63-9.63A9.62,9.62,0,0,0,1390.24,360.21Zm84.94-.71a8.93,8.93,0,1,0-8.93-8.92A8.9,8.9,0,0,0,1475.18,359.5Zm84.93-.7a8.22,8.22,0,1,0-8.22-8.22A8.19,8.19,0,0,0,1560.11,358.8Zm84.93-.45a7.77,7.77,0,1,0-7.77-7.77A7.76,7.76,0,0,0,1645,358.35Zm85-.71a7.06,7.06,0,1,0-7.06-7.06A7,7,0,0,0,1730,357.64Zm84.93-.71a6.36,6.36,0,1,0-6.36-6.35A6.32,6.32,0,0,0,1815,356.93Zm84.93-.7a5.65,5.65,0,1,0-5.65-5.65A5.62,5.62,0,0,0,1899.9,356.23Zm84.93-2.38a3.28,3.28,0,1,0-3.27-3.27A3.29,3.29,0,0,0,1984.83,353.85ZM31.33,456a20.48,20.48,0,1,0-20.48-20.48A20.49,20.49,0,0,0,31.33,456Zm84.93-.71a19.77,19.77,0,1,0-19.77-19.77A19.78,19.78,0,0,0,116.26,455.28Zm84.93-.7a19.07,19.07,0,1,0-19.06-19.07A19.07,19.07,0,0,0,201.19,454.58Zm84.93-.45a18.62,18.62,0,1,0-18.61-18.62A18.63,18.63,0,0,0,286.12,454.13Zm84.94-.71a17.91,17.91,0,1,0-17.91-17.91A17.92,17.92,0,0,0,371.06,453.42Zm84.93-.7a17.21,17.21,0,1,0-17.21-17.21A17.21,17.21,0,0,0,456,452.72Zm84.93-.52a16.69,16.69,0,1,0-16.69-16.69A16.69,16.69,0,0,0,540.92,452.2Zm84.93-.7a16,16,0,1,0-16-16A16,16,0,0,0,625.85,451.5Zm84.94-.71a15.28,15.28,0,1,0-15.28-15.28A15.27,15.27,0,0,0,710.79,450.79Zm84.93-.71a14.57,14.57,0,1,0-14.57-14.57A14.55,14.55,0,0,0,795.72,450.08Zm84.93-.45a14.12,14.12,0,1,0-14.12-14.12A14.12,14.12,0,0,0,880.65,449.63Zm84.93-.7a13.42,13.42,0,1,0-13.41-13.42A13.45,13.45,0,0,0,965.58,448.93Zm84.93-.71a12.71,12.71,0,1,0-12.71-12.71A12.74,12.74,0,0,0,1050.51,448.22Zm84.94-.7a12,12,0,1,0-12-12A12,12,0,0,0,1135.45,447.52Zm84.93-.45a11.56,11.56,0,1,0-11.56-11.56A11.55,11.55,0,0,0,1220.38,447.07Zm84.93-.71a10.85,10.85,0,1,0-10.85-10.85A10.88,10.88,0,0,0,1305.31,446.36Zm84.93-.71a10.14,10.14,0,1,0-10.14-10.14A10.16,10.16,0,0,0,1390.24,445.65Zm84.94-.51a9.63,9.63,0,1,0-9.63-9.63A9.62,9.62,0,0,0,1475.18,445.14Zm84.93-.71a8.92,8.92,0,1,0-8.92-8.92A8.9,8.9,0,0,0,1560.11,444.43Zm84.93-.7a8.22,8.22,0,1,0-8.22-8.22A8.19,8.19,0,0,0,1645,443.73Zm85-.45a7.77,7.77,0,1,0-7.77-7.77A7.76,7.76,0,0,0,1730,443.28Zm84.93-.71a7.06,7.06,0,1,0-7.06-7.06A7,7,0,0,0,1815,442.57Zm84.93-.7a6.36,6.36,0,1,0-6.35-6.36A6.34,6.34,0,0,0,1899.9,441.87Zm84.93-2.83a3.53,3.53,0,1,0-3.53-3.53A3.56,3.56,0,0,0,1984.83,439ZM31.33,541.37a21,21,0,1,0-21-21A21,21,0,0,0,31.33,541.37Zm84.93-.45a20.48,20.48,0,1,0-20.48-20.48A20.49,20.49,0,0,0,116.26,540.92Zm84.93-.7a19.78,19.78,0,1,0-19.77-19.78A19.79,19.79,0,0,0,201.19,540.22Zm84.93-.71a19.07,19.07,0,1,0-19.06-19.07A19.07,19.07,0,0,0,286.12,539.51Zm84.94-.45a18.62,18.62,0,1,0-18.62-18.62A18.63,18.63,0,0,0,371.06,539.06Zm84.93-.71a17.91,17.91,0,1,0-17.91-17.91A17.91,17.91,0,0,0,456,538.35Zm84.93-.7a17.21,17.21,0,1,0-17.2-17.21A17.22,17.22,0,0,0,540.92,537.65Zm84.93-.52a16.69,16.69,0,1,0-16.69-16.69A16.69,16.69,0,0,0,625.85,537.13Zm84.94-.7a16,16,0,1,0-16-16A16,16,0,0,0,710.79,536.43Zm84.93-.71a15.28,15.28,0,1,0-15.28-15.28A15.28,15.28,0,0,0,795.72,535.72Zm84.93-.7a14.58,14.58,0,1,0-14.57-14.58A14.56,14.56,0,0,0,880.65,535Zm84.93-.45a14.13,14.13,0,1,0-14.12-14.13A14.13,14.13,0,0,0,965.58,534.57Zm84.93-.71a13.42,13.42,0,1,0-13.41-13.42A13.41,13.41,0,0,0,1050.51,533.86Zm84.94-.71a12.71,12.71,0,1,0-12.71-12.71A12.74,12.74,0,0,0,1135.45,533.15Zm84.93-.7a12,12,0,1,0-12-12A12,12,0,0,0,1220.38,532.45Zm84.93-.45a11.56,11.56,0,1,0-11.55-11.56A11.55,11.55,0,0,0,1305.31,532Zm84.93-.71a10.85,10.85,0,1,0-10.85-10.85A10.88,10.88,0,0,0,1390.24,531.29Zm84.94-.7A10.15,10.15,0,1,0,1465,520.44,10.17,10.17,0,0,0,1475.18,530.59Zm84.93-.52a9.63,9.63,0,1,0-9.63-9.63A9.62,9.62,0,0,0,1560.11,530.07Zm84.93-.7a8.93,8.93,0,1,0-8.92-8.93A8.9,8.9,0,0,0,1645,529.37Zm85-.71a8.22,8.22,0,1,0-8.22-8.22A8.19,8.19,0,0,0,1730,528.66Zm84.93-.45a7.77,7.77,0,1,0-7.77-7.77A7.76,7.76,0,0,0,1815,528.21Zm84.93-.71a7.06,7.06,0,1,0-7.06-7.06A7,7,0,0,0,1899.9,527.5Zm84.93-3.08a4,4,0,1,0-4-4A4,4,0,0,0,1984.83,524.42ZM31.33,627a21.7,21.7,0,1,0-21.7-21.7A21.71,21.71,0,0,0,31.33,627Zm84.93-.71a21,21,0,1,0-21-21A21,21,0,0,0,116.26,626.3Zm84.93-.45a20.48,20.48,0,1,0-20.48-20.47A20.49,20.49,0,0,0,201.19,625.85Zm84.93-.7a19.78,19.78,0,1,0-19.77-19.77A19.78,19.78,0,0,0,286.12,625.15Zm84.94-.71A19.07,19.07,0,1,0,352,605.38,19.06,19.06,0,0,0,371.06,624.44ZM456,624a18.62,18.62,0,1,0-18.62-18.61A18.63,18.63,0,0,0,456,624Zm84.93-.7A17.92,17.92,0,1,0,523,605.38,17.92,17.92,0,0,0,540.92,623.29Zm84.93-.71a17.21,17.21,0,1,0-17.2-17.2A17.21,17.21,0,0,0,625.85,622.58Zm84.94-.51a16.7,16.7,0,1,0-16.7-16.69A16.7,16.7,0,0,0,710.79,622.07Zm84.93-.71a16,16,0,1,0-16-16A16,16,0,0,0,795.72,621.36Zm84.93-.71a15.28,15.28,0,1,0-15.28-15.27A15.28,15.28,0,0,0,880.65,620.65Zm84.93-.7A14.58,14.58,0,1,0,951,605.38,14.57,14.57,0,0,0,965.58,620Zm84.93-.45a14.13,14.13,0,1,0-14.12-14.12A14.13,14.13,0,0,0,1050.51,619.5Zm84.94-.71A13.42,13.42,0,1,0,1122,605.38,13.44,13.44,0,0,0,1135.45,618.79Zm84.93-.7a12.72,12.72,0,1,0-12.71-12.71A12.74,12.74,0,0,0,1220.38,618.09Zm84.93-.71a12,12,0,1,0-12-12A12,12,0,0,0,1305.31,617.38Zm84.93-.45a11.56,11.56,0,1,0-11.55-11.55A11.55,11.55,0,0,0,1390.24,616.93Zm84.94-.71a10.85,10.85,0,1,0-10.85-10.84A10.87,10.87,0,0,0,1475.18,616.22Zm84.93-.7A10.15,10.15,0,1,0,1550,605.38,10.17,10.17,0,0,0,1560.11,615.52ZM1645,615a9.63,9.63,0,1,0-9.63-9.62A9.61,9.61,0,0,0,1645,615Zm85-.7a8.93,8.93,0,1,0-8.93-8.92A8.9,8.9,0,0,0,1730,614.3Zm84.93-.71a8.22,8.22,0,1,0-8.22-8.21A8.19,8.19,0,0,0,1815,613.59Zm84.93-.45a7.77,7.77,0,1,0-7.77-7.76A7.75,7.75,0,0,0,1899.9,613.14Zm84.93-3.27a4.5,4.5,0,1,0-4.49-4.49A4.47,4.47,0,0,0,1984.83,609.87ZM31.33,712.71a22.41,22.41,0,1,0-22.41-22.4A22.42,22.42,0,0,0,31.33,712.71Zm84.93-.7a21.7,21.7,0,1,0-21.7-21.7A21.72,21.72,0,0,0,116.26,712Zm84.93-.71a21,21,0,1,0-21-21A21,21,0,0,0,201.19,711.3Zm84.93-.51a20.48,20.48,0,1,0-20.47-20.48A20.49,20.49,0,0,0,286.12,710.79Zm84.94-.71a19.78,19.78,0,1,0-19.78-19.77A19.78,19.78,0,0,0,371.06,710.08Zm84.93-.71a19.07,19.07,0,1,0-19.07-19.06A19.06,19.06,0,0,0,456,709.37Zm84.93-.45a18.62,18.62,0,1,0-18.62-18.61A18.63,18.63,0,0,0,540.92,708.92Zm84.93-.7a17.91,17.91,0,1,0-17.91-17.91A17.92,17.92,0,0,0,625.85,708.22Zm84.94-.71a17.21,17.21,0,1,0-17.21-17.2A17.2,17.2,0,0,0,710.79,707.51Zm84.93-.51A16.69,16.69,0,1,0,779,690.31,16.7,16.7,0,0,0,795.72,707Zm84.93-.71a16,16,0,1,0-16-16A16,16,0,0,0,880.65,706.29Zm84.93-.7a15.28,15.28,0,1,0-15.28-15.28A15.27,15.27,0,0,0,965.58,705.59Zm84.93-.71a14.58,14.58,0,1,0-14.57-14.57A14.57,14.57,0,0,0,1050.51,704.88Zm84.94-.45a14.13,14.13,0,1,0-14.13-14.12A14.12,14.12,0,0,0,1135.45,704.43Zm84.93-.71A13.42,13.42,0,1,0,1207,690.31,13.45,13.45,0,0,0,1220.38,703.72Zm84.93-.7a12.71,12.71,0,1,0-12.71-12.71A12.74,12.74,0,0,0,1305.31,703Zm84.93-.71a12,12,0,1,0-12-12A12,12,0,0,0,1390.24,702.31Zm84.94-.45a11.56,11.56,0,1,0-11.56-11.55A11.54,11.54,0,0,0,1475.18,701.86Zm84.93-.7a10.85,10.85,0,1,0-10.85-10.85A10.88,10.88,0,0,0,1560.11,701.16Zm84.93-.71a10.15,10.15,0,1,0-10.14-10.14A10.16,10.16,0,0,0,1645,700.45Zm85-.51a9.63,9.63,0,1,0-9.63-9.63A9.62,9.62,0,0,0,1730,699.94Zm84.93-.71a8.93,8.93,0,1,0-8.92-8.92A8.9,8.9,0,0,0,1815,699.23Zm84.93-.71a8.22,8.22,0,1,0-8.22-8.21A8.19,8.19,0,0,0,1899.9,698.52Zm84.93-3.27a4.95,4.95,0,1,0-4.94-4.94A4.91,4.91,0,0,0,1984.83,695.25ZM31.33,798.09A22.85,22.85,0,1,0,8.47,775.24,22.82,22.82,0,0,0,31.33,798.09Zm84.93-.45a22.41,22.41,0,1,0-22.4-22.4A22.41,22.41,0,0,0,116.26,797.64Zm84.93-.7a21.7,21.7,0,1,0-21.7-21.7A21.72,21.72,0,0,0,201.19,796.94Zm84.93-.71a21,21,0,1,0-21-21A21,21,0,0,0,286.12,796.23Zm84.94-.51a20.48,20.48,0,1,0-20.48-20.48A20.49,20.49,0,0,0,371.06,795.72ZM456,795a19.77,19.77,0,1,0-19.77-19.77A19.78,19.78,0,0,0,456,795Zm84.93-.7a19.07,19.07,0,1,0-19.06-19.07A19.07,19.07,0,0,0,540.92,794.31Zm84.93-.45a18.62,18.62,0,1,0-18.61-18.62A18.63,18.63,0,0,0,625.85,793.86Zm84.94-.71a17.91,17.91,0,1,0-17.91-17.91A17.92,17.92,0,0,0,710.79,793.15Zm84.93-.71a17.21,17.21,0,1,0-17.21-17.2A17.2,17.2,0,0,0,795.72,792.44Zm84.93-.51A16.69,16.69,0,1,0,864,775.24,16.7,16.7,0,0,0,880.65,791.93Zm84.93-.71a16,16,0,1,0-16-16A16,16,0,0,0,965.58,791.22Zm84.93-.7a15.28,15.28,0,1,0-15.27-15.28A15.27,15.27,0,0,0,1050.51,790.52Zm84.94-.71a14.57,14.57,0,1,0-14.58-14.57A14.56,14.56,0,0,0,1135.45,789.81Zm84.93-.45a14.12,14.12,0,1,0-14.12-14.12A14.12,14.12,0,0,0,1220.38,789.36Zm84.93-.7a13.42,13.42,0,1,0-13.42-13.42A13.46,13.46,0,0,0,1305.31,788.66Zm84.93-.71a12.71,12.71,0,1,0-12.71-12.71A12.74,12.74,0,0,0,1390.24,788Zm84.94-.71a12,12,0,1,0-12-12A12,12,0,0,0,1475.18,787.24Zm84.93-.45a11.56,11.56,0,1,0-11.56-11.55A11.54,11.54,0,0,0,1560.11,786.79Zm84.93-.7a10.85,10.85,0,1,0-10.85-10.85A10.88,10.88,0,0,0,1645,786.09Zm85-.71a10.14,10.14,0,1,0-10.15-10.14A10.17,10.17,0,0,0,1730,785.38Zm84.93-.51a9.63,9.63,0,1,0-9.63-9.63A9.62,9.62,0,0,0,1815,784.87Zm84.93-.71a8.92,8.92,0,1,0-8.92-8.92A8.9,8.9,0,0,0,1899.9,784.16Zm84.93-3.72a5.2,5.2,0,1,0-5.2-5.2A5.18,5.18,0,0,0,1984.83,780.44ZM31.33,883.73A23.56,23.56,0,1,0,7.77,860.17,23.54,23.54,0,0,0,31.33,883.73Zm84.93-.7a22.86,22.86,0,1,0-22.85-22.86A22.82,22.82,0,0,0,116.26,883Zm84.93-.45a22.41,22.41,0,1,0-22.4-22.41A22.43,22.43,0,0,0,201.19,882.58Zm84.93-.71a21.7,21.7,0,1,0-21.69-21.7A21.71,21.71,0,0,0,286.12,881.87Zm84.94-.71a21,21,0,1,0-21-21A21,21,0,0,0,371.06,881.16Zm84.93-.51a20.48,20.48,0,1,0-20.48-20.48A20.49,20.49,0,0,0,456,880.65Zm84.93-.71a19.77,19.77,0,1,0-19.77-19.77A19.77,19.77,0,0,0,540.92,879.94Zm84.93-.7a19.07,19.07,0,1,0-19.06-19.07A19.07,19.07,0,0,0,625.85,879.24Zm84.94-.45a18.62,18.62,0,1,0-18.62-18.62A18.63,18.63,0,0,0,710.79,878.79Zm84.93-.71a17.91,17.91,0,1,0-17.91-17.91A17.92,17.92,0,0,0,795.72,878.08Zm84.93-.7a17.21,17.21,0,1,0-17.2-17.21A17.22,17.22,0,0,0,880.65,877.38Zm84.93-.45a16.7,16.7,0,1,0-16.69-16.69A16.69,16.69,0,0,0,965.58,876.93Zm84.93-.71a16,16,0,1,0-16-16A16,16,0,0,0,1050.51,876.22Zm84.94-.71a15.28,15.28,0,1,0-15.28-15.27A15.27,15.27,0,0,0,1135.45,875.51Zm84.93-.7a14.58,14.58,0,1,0-14.57-14.57A14.56,14.56,0,0,0,1220.38,874.81Zm84.93-.51a14.13,14.13,0,1,0-14.12-14.13A14.13,14.13,0,0,0,1305.31,874.3Zm84.93-.71a13.42,13.42,0,1,0-13.41-13.42A13.42,13.42,0,0,0,1390.24,873.59Zm84.94-.71a12.71,12.71,0,1,0-12.71-12.71A12.74,12.74,0,0,0,1475.18,872.88Zm84.93-.7a12,12,0,1,0-12-12A12,12,0,0,0,1560.11,872.18Zm84.93-.45a11.56,11.56,0,1,0-11.55-11.56A11.55,11.55,0,0,0,1645,871.73Zm85-.71a10.85,10.85,0,1,0-10.85-10.85A10.88,10.88,0,0,0,1730,871Zm84.93-.71a10.14,10.14,0,1,0-10.14-10.14A10.16,10.16,0,0,0,1815,870.31Zm84.93-.51a9.63,9.63,0,1,0-9.63-9.63A9.62,9.62,0,0,0,1899.9,869.8Zm84.93-4a5.65,5.65,0,1,0-5.65-5.65A5.61,5.61,0,0,0,1984.83,865.82ZM31.33,969.11a24,24,0,1,0-24-24A24,24,0,0,0,31.33,969.11Zm84.93-.45A23.56,23.56,0,1,0,92.7,945.1,23.53,23.53,0,0,0,116.26,968.66Zm84.93-.7a22.86,22.86,0,1,0-22.85-22.86A22.83,22.83,0,0,0,201.19,968Zm84.93-.45a22.41,22.41,0,1,0-22.4-22.41A22.43,22.43,0,0,0,286.12,967.51Zm84.94-.71a21.7,21.7,0,1,0-21.7-21.7A21.71,21.71,0,0,0,371.06,966.8Zm84.93-.7a21,21,0,1,0-21-21A21,21,0,0,0,456,966.1Zm84.93-.52a20.48,20.48,0,1,0-20.48-20.48A20.49,20.49,0,0,0,540.92,965.58Zm84.93-.7a19.78,19.78,0,1,0-19.77-19.78A19.79,19.79,0,0,0,625.85,964.88Zm84.94-.71a19.07,19.07,0,1,0-19.07-19.07A19.07,19.07,0,0,0,710.79,964.17Zm84.93-.45A18.62,18.62,0,1,0,777.1,945.1,18.63,18.63,0,0,0,795.72,963.72Zm84.93-.71a17.91,17.91,0,1,0-17.91-17.91A17.91,17.91,0,0,0,880.65,963Zm84.93-.7a17.21,17.21,0,1,0-17.2-17.21A17.21,17.21,0,0,0,965.58,962.31Zm84.93-.45a16.69,16.69,0,1,0-16.69-16.69A16.7,16.7,0,0,0,1050.51,961.86Zm84.94-.71a16,16,0,1,0-16-16A16,16,0,0,0,1135.45,961.15Zm84.93-.7a15.28,15.28,0,1,0-15.28-15.28A15.28,15.28,0,0,0,1220.38,960.45Zm84.93-.71a14.57,14.57,0,1,0-14.57-14.57A14.56,14.56,0,0,0,1305.31,959.74Zm84.93-.51a14.13,14.13,0,1,0-14.12-14.13A14.13,14.13,0,0,0,1390.24,959.23Zm84.94-.71a13.42,13.42,0,1,0-13.42-13.42A13.45,13.45,0,0,0,1475.18,958.52Zm84.93-.71a12.71,12.71,0,1,0-12.71-12.71A12.74,12.74,0,0,0,1560.11,957.81Zm84.93-.7a12,12,0,1,0-12-12A12,12,0,0,0,1645,957.11Zm85-.45a11.56,11.56,0,1,0-11.56-11.56A11.55,11.55,0,0,0,1730,956.66ZM1815,956a10.85,10.85,0,1,0-10.85-10.85A10.88,10.88,0,0,0,1815,956Zm84.93-.7a10.15,10.15,0,1,0-10.14-10.15A10.16,10.16,0,0,0,1899.9,955.25Zm84.93-4a6.1,6.1,0,1,0-6.09-6.1A6.09,6.09,0,0,0,1984.83,951.2ZM31.33,1054.75A24.72,24.72,0,1,0,6.61,1030,24.68,24.68,0,0,0,31.33,1054.75Zm84.93-.7a24,24,0,1,0-24-24A24,24,0,0,0,116.26,1054.05Zm84.93-.45A23.56,23.56,0,1,0,177.63,1030,23.54,23.54,0,0,0,201.19,1053.6Zm84.93-.71A22.86,22.86,0,1,0,263.27,1030,22.83,22.83,0,0,0,286.12,1052.89Zm84.94-.45a22.41,22.41,0,1,0-22.41-22.4A22.42,22.42,0,0,0,371.06,1052.44Zm84.93-.71a21.7,21.7,0,1,0-21.7-21.69A21.71,21.71,0,0,0,456,1051.73Zm84.93-.7a21,21,0,1,0-21-21A21,21,0,0,0,540.92,1051Zm84.93-.52A20.48,20.48,0,1,0,605.38,1030,20.49,20.49,0,0,0,625.85,1050.51Zm84.94-.7A19.78,19.78,0,1,0,691,1030,19.78,19.78,0,0,0,710.79,1049.81Zm84.93-.71A19.07,19.07,0,1,0,776.65,1030,19.06,19.06,0,0,0,795.72,1049.1Zm84.93-.45A18.62,18.62,0,1,0,862,1030,18.63,18.63,0,0,0,880.65,1048.65Zm84.93-.7A17.91,17.91,0,1,0,947.67,1030,17.92,17.92,0,0,0,965.58,1048Zm84.93-.71a17.21,17.21,0,1,0-17.2-17.2A17.2,17.2,0,0,0,1050.51,1047.24Zm84.94-.45a16.69,16.69,0,1,0-16.69-16.69A16.7,16.7,0,0,0,1135.45,1046.79Zm84.93-.7a16,16,0,1,0-16-16A16,16,0,0,0,1220.38,1046.09Zm84.93-.71A15.28,15.28,0,1,0,1290,1030.1,15.27,15.27,0,0,0,1305.31,1045.38Zm84.93-.71a14.57,14.57,0,1,0-14.57-14.57A14.56,14.56,0,0,0,1390.24,1044.67Zm84.94-.51a14.13,14.13,0,1,0-14.13-14.12A14.12,14.12,0,0,0,1475.18,1044.16Zm84.93-.71a13.42,13.42,0,1,0-13.42-13.41A13.45,13.45,0,0,0,1560.11,1043.45Zm84.93-.7a12.71,12.71,0,1,0-12.71-12.71A12.74,12.74,0,0,0,1645,1042.75Zm85-.71a12,12,0,1,0-12-12A12,12,0,0,0,1730,1042Zm84.93-.45a11.56,11.56,0,1,0-11.56-11.55A11.54,11.54,0,0,0,1815,1041.59Zm84.93-.7a10.85,10.85,0,1,0-10.85-10.85A10.88,10.88,0,0,0,1899.9,1040.89Zm84.93-4.5a6.36,6.36,0,1,0-6.35-6.35A6.33,6.33,0,0,0,1984.83,1036.39Zm-1953.5,104A25.42,25.42,0,1,0,5.91,1115,25.39,25.39,0,0,0,31.33,1140.39Zm84.93-.71A24.72,24.72,0,1,0,91.54,1115,24.69,24.69,0,0,0,116.26,1139.68Zm84.93-.7a24,24,0,1,0-24-24A24,24,0,0,0,201.19,1139Zm84.93-.45A23.56,23.56,0,1,0,262.56,1115,23.53,23.53,0,0,0,286.12,1138.53Zm84.94-.71A22.86,22.86,0,1,0,348.2,1115,22.82,22.82,0,0,0,371.06,1137.82Zm84.93-.45a22.41,22.41,0,1,0-22.41-22.4A22.42,22.42,0,0,0,456,1137.37Zm84.93-.7a21.7,21.7,0,1,0-21.7-21.7A21.72,21.72,0,0,0,540.92,1136.67Zm84.93-.71a21,21,0,1,0-21-21A21,21,0,0,0,625.85,1136Zm84.94-.51A20.48,20.48,0,1,0,690.31,1115,20.49,20.49,0,0,0,710.79,1135.45Zm84.93-.71A19.77,19.77,0,1,0,776,1115,19.78,19.78,0,0,0,795.72,1134.74Zm84.93-.71A19.07,19.07,0,1,0,861.58,1115,19.06,19.06,0,0,0,880.65,1134Zm84.93-.44A18.62,18.62,0,1,0,947,1115,18.64,18.64,0,0,0,965.58,1133.59Zm84.93-.71A17.91,17.91,0,1,0,1032.6,1115,17.93,17.93,0,0,0,1050.51,1132.88Zm84.94-.71a17.21,17.21,0,1,0-17.21-17.2A17.2,17.2,0,0,0,1135.45,1132.17Zm84.93-.45a16.69,16.69,0,1,0-16.69-16.69A16.7,16.7,0,0,0,1220.38,1131.72Zm84.93-.7a16,16,0,1,0-16-16A16,16,0,0,0,1305.31,1131Zm84.93-.71A15.28,15.28,0,1,0,1375,1115,15.27,15.27,0,0,0,1390.24,1130.31Zm84.94-.7A14.58,14.58,0,1,0,1460.6,1115,14.56,14.56,0,0,0,1475.18,1129.61Zm84.93-.52A14.12,14.12,0,1,0,1546,1115,14.12,14.12,0,0,0,1560.11,1129.09Zm84.93-.7a13.42,13.42,0,1,0-13.42-13.42A13.46,13.46,0,0,0,1645,1128.39Zm85-.71a12.71,12.71,0,1,0-12.71-12.71A12.74,12.74,0,0,0,1730,1127.68ZM1815,1127a12,12,0,1,0-12-12A12,12,0,0,0,1815,1127Zm84.93-.45a11.56,11.56,0,1,0-11.55-11.55A11.54,11.54,0,0,0,1899.9,1126.52Zm84.93-4.68a6.81,6.81,0,1,0-6.8-6.81A6.81,6.81,0,0,0,1984.83,1121.84Zm-1953.5,104A25.94,25.94,0,1,0,5.39,1199.9,25.95,25.95,0,0,0,31.33,1225.84Zm84.93-.52a25.42,25.42,0,1,0-25.42-25.42A25.39,25.39,0,0,0,116.26,1225.32Zm84.93-.7a24.72,24.72,0,1,0-24.71-24.72A24.69,24.69,0,0,0,201.19,1224.62Zm84.93-.71a24,24,0,1,0-24-24A24,24,0,0,0,286.12,1223.91Zm84.94-.45a23.56,23.56,0,1,0-23.56-23.56A23.54,23.54,0,0,0,371.06,1223.46Zm84.93-.71a22.85,22.85,0,1,0-22.85-22.85A22.81,22.81,0,0,0,456,1222.75Zm84.93-.44a22.41,22.41,0,1,0-22.4-22.41A22.43,22.43,0,0,0,540.92,1222.31Zm84.93-.71a21.7,21.7,0,1,0-21.69-21.7A21.71,21.71,0,0,0,625.85,1221.6Zm84.94-.71a21,21,0,1,0-21-21A21,21,0,0,0,710.79,1220.89Zm84.93-.51a20.48,20.48,0,1,0-20.48-20.48A20.49,20.49,0,0,0,795.72,1220.38Zm84.93-.71a19.77,19.77,0,1,0-19.77-19.77A19.78,19.78,0,0,0,880.65,1219.67Zm84.93-.7a19.07,19.07,0,1,0-19.06-19.07A19.07,19.07,0,0,0,965.58,1219Zm84.93-.45a18.62,18.62,0,1,0-18.61-18.62A18.63,18.63,0,0,0,1050.51,1218.52Zm84.94-.71a17.91,17.91,0,1,0-17.91-17.91A17.92,17.92,0,0,0,1135.45,1217.81Zm84.93-.7a17.21,17.21,0,1,0-17.21-17.21A17.21,17.21,0,0,0,1220.38,1217.11Zm84.93-.45a16.7,16.7,0,1,0-16.69-16.7A16.7,16.7,0,0,0,1305.31,1216.66Zm84.93-.71a16,16,0,1,0-16-16A16,16,0,0,0,1390.24,1216Zm84.94-.71A15.28,15.28,0,1,0,1459.9,1200,15.28,15.28,0,0,0,1475.18,1215.24Zm84.93-.7a14.58,14.58,0,1,0-14.57-14.58A14.56,14.56,0,0,0,1560.11,1214.54ZM1645,1214a14.12,14.12,0,1,0-14.12-14.12A14.12,14.12,0,0,0,1645,1214Zm85-.7a13.42,13.42,0,1,0-13.42-13.42A13.41,13.41,0,0,0,1730,1213.32Zm84.93-.71a12.71,12.71,0,1,0-12.71-12.71A12.74,12.74,0,0,0,1815,1212.61Zm84.93-.7a12,12,0,1,0-12-12A12,12,0,0,0,1899.9,1211.91Zm84.93-4.69a7.32,7.32,0,1,0-7.31-7.32A7.31,7.31,0,0,0,1984.83,1207.22ZM31.33,1311.47a26.64,26.64,0,1,0-26.64-26.64A26.66,26.66,0,0,0,31.33,1311.47Zm84.93-.7a25.94,25.94,0,1,0-25.94-25.94A25.95,25.95,0,0,0,116.26,1310.77Zm84.93-.52a25.42,25.42,0,1,0-25.42-25.42A25.39,25.39,0,0,0,201.19,1310.25Zm84.93-.7a24.72,24.72,0,1,0-24.71-24.72A24.68,24.68,0,0,0,286.12,1309.55Zm84.94-.71a24,24,0,1,0-24-24A24,24,0,0,0,371.06,1308.84Zm84.93-.45a23.56,23.56,0,1,0-23.56-23.56A23.54,23.54,0,0,0,456,1308.39Zm84.93-.7a22.86,22.86,0,1,0-22.85-22.86A22.83,22.83,0,0,0,540.92,1307.69Zm84.93-.45a22.41,22.41,0,1,0-22.4-22.41A22.43,22.43,0,0,0,625.85,1307.24Zm84.94-.71a21.7,21.7,0,1,0-21.7-21.7A21.7,21.7,0,0,0,710.79,1306.53Zm84.93-.7a21,21,0,1,0-21-21A21,21,0,0,0,795.72,1305.83Zm84.93-.52a20.48,20.48,0,1,0-20.48-20.48A20.49,20.49,0,0,0,880.65,1305.31Zm84.93-.7a19.78,19.78,0,1,0-19.77-19.78A19.79,19.79,0,0,0,965.58,1304.61Zm84.93-.71a19.07,19.07,0,1,0-19.06-19.07A19.07,19.07,0,0,0,1050.51,1303.9Zm84.94-.45a18.62,18.62,0,1,0-18.62-18.62A18.63,18.63,0,0,0,1135.45,1303.45Zm84.93-.71a17.91,17.91,0,1,0-17.91-17.91A17.91,17.91,0,0,0,1220.38,1302.74Zm84.93-.7a17.21,17.21,0,1,0-17.2-17.21A17.22,17.22,0,0,0,1305.31,1302Zm84.93-.45a16.69,16.69,0,1,0-16.69-16.69A16.7,16.7,0,0,0,1390.24,1301.59Zm84.94-.71a16,16,0,1,0-16-16A16,16,0,0,0,1475.18,1300.88Zm84.93-.7a15.28,15.28,0,1,0-15.28-15.28A15.28,15.28,0,0,0,1560.11,1300.18Zm84.93-.71a14.58,14.58,0,1,0-14.57-14.57A14.56,14.56,0,0,0,1645,1299.47Zm85-.51a14.13,14.13,0,1,0-14.13-14.13A14.13,14.13,0,0,0,1730,1299Zm84.93-.71a13.42,13.42,0,1,0-13.42-13.42A13.45,13.45,0,0,0,1815,1298.25Zm84.93-.71a12.71,12.71,0,1,0-12.71-12.71A12.74,12.74,0,0,0,1899.9,1297.54Zm84.93-5.13a7.51,7.51,0,1,0-7.51-7.51A7.51,7.51,0,0,0,1984.83,1292.41ZM31.33,1396.86a27.1,27.1,0,1,0-27.09-27.09A27.1,27.1,0,0,0,31.33,1396.86Zm84.93-.45a26.65,26.65,0,1,0-26.64-26.64A26.66,26.66,0,0,0,116.26,1396.41Zm84.93-.71a25.94,25.94,0,1,0-25.93-25.93A25.95,25.95,0,0,0,201.19,1395.7Zm84.93-.51a25.43,25.43,0,1,0-25.42-25.42A25.41,25.41,0,0,0,286.12,1395.19Zm84.94-.71a24.72,24.72,0,1,0-24.72-24.71A24.68,24.68,0,0,0,371.06,1394.48Zm84.93-.71a24,24,0,1,0-24-24A24,24,0,0,0,456,1393.77Zm84.93-.44a23.56,23.56,0,1,0-23.56-23.56A23.54,23.54,0,0,0,540.92,1393.33Zm84.93-.71A22.86,22.86,0,1,0,603,1369.77,22.83,22.83,0,0,0,625.85,1392.62Zm84.94-.45a22.41,22.41,0,1,0-22.41-22.4A22.42,22.42,0,0,0,710.79,1392.17Zm84.93-.71a21.7,21.7,0,1,0-21.7-21.69A21.71,21.71,0,0,0,795.72,1391.46Zm84.93-.7a21,21,0,1,0-21-21A21,21,0,0,0,880.65,1390.76Zm84.93-.52a20.48,20.48,0,1,0-20.48-20.47A20.49,20.49,0,0,0,965.58,1390.24Zm84.93-.7a19.78,19.78,0,1,0-19.77-19.77A19.78,19.78,0,0,0,1050.51,1389.54Zm84.94-.71a19.07,19.07,0,1,0-19.07-19.06A19.06,19.06,0,0,0,1135.45,1388.83Zm84.93-.45a18.62,18.62,0,1,0-18.62-18.61A18.63,18.63,0,0,0,1220.38,1388.38Zm84.93-.7a17.92,17.92,0,1,0-17.91-17.91A17.92,17.92,0,0,0,1305.31,1387.68Zm84.93-.71a17.21,17.21,0,1,0-17.2-17.2A17.2,17.2,0,0,0,1390.24,1387Zm84.94-.45a16.69,16.69,0,1,0-16.69-16.69A16.7,16.7,0,0,0,1475.18,1386.52Zm84.93-.71a16,16,0,1,0-16-16A16,16,0,0,0,1560.11,1385.81Zm84.93-.7a15.28,15.28,0,1,0-15.28-15.28A15.28,15.28,0,0,0,1645,1385.11Zm85-.71a14.57,14.57,0,1,0-14.58-14.57A14.56,14.56,0,0,0,1730,1384.4Zm84.93-.51a14.13,14.13,0,1,0-14.12-14.12A14.12,14.12,0,0,0,1815,1383.89Zm84.93-.71a13.42,13.42,0,1,0-13.42-13.41A13.45,13.45,0,0,0,1899.9,1383.18Zm84.93-5.39a8,8,0,1,0-8-8A8,8,0,0,0,1984.83,1377.79ZM31.33,1482.49a27.8,27.8,0,1,0-27.8-27.79A27.81,27.81,0,0,0,31.33,1482.49Zm84.93-.7a27.09,27.09,0,1,0-27.09-27.09A27.09,27.09,0,0,0,116.26,1481.79Zm84.93-.45a26.64,26.64,0,1,0-26.64-26.64A26.66,26.66,0,0,0,201.19,1481.34Zm84.93-.71a25.94,25.94,0,1,0-25.93-25.93A25.95,25.95,0,0,0,286.12,1480.63Zm84.94-.51a25.42,25.42,0,1,0-25.42-25.42A25.39,25.39,0,0,0,371.06,1480.12Zm84.93-.71a24.72,24.72,0,1,0-24.72-24.71A24.68,24.68,0,0,0,456,1479.41Zm84.93-.7a24,24,0,1,0-24-24A24,24,0,0,0,540.92,1478.71Zm84.93-.45a23.56,23.56,0,1,0-23.56-23.56A23.53,23.53,0,0,0,625.85,1478.26Zm84.94-.71a22.86,22.86,0,1,0-22.86-22.85A22.82,22.82,0,0,0,710.79,1477.55Zm84.93-.45a22.41,22.41,0,1,0-22.41-22.4A22.42,22.42,0,0,0,795.72,1477.1Zm84.93-.7a21.7,21.7,0,1,0-21.7-21.7A21.72,21.72,0,0,0,880.65,1476.4Zm84.93-.71a21,21,0,1,0-21-21A21,21,0,0,0,965.58,1475.69Zm84.93-.51A20.48,20.48,0,1,0,1030,1454.7,20.49,20.49,0,0,0,1050.51,1475.18Zm84.94-.71a19.78,19.78,0,1,0-19.78-19.77A19.78,19.78,0,0,0,1135.45,1474.47Zm84.93-.71a19.07,19.07,0,1,0-19.07-19.06A19.06,19.06,0,0,0,1220.38,1473.76Zm84.93-.45a18.62,18.62,0,1,0-18.62-18.61A18.63,18.63,0,0,0,1305.31,1473.31Zm84.93-.7a17.91,17.91,0,1,0-17.91-17.91A17.92,17.92,0,0,0,1390.24,1472.61Zm84.94-.71a17.21,17.21,0,1,0-17.21-17.2A17.2,17.2,0,0,0,1475.18,1471.9Zm84.93-.45a16.69,16.69,0,1,0-16.69-16.69A16.7,16.7,0,0,0,1560.11,1471.45Zm84.93-.7a16,16,0,1,0-16-16A16,16,0,0,0,1645,1470.75Zm85-.71a15.28,15.28,0,1,0-15.28-15.28A15.28,15.28,0,0,0,1730,1470Zm84.93-.71a14.57,14.57,0,1,0-14.57-14.57A14.55,14.55,0,0,0,1815,1469.33Zm84.93-.51a14.13,14.13,0,1,0-14.12-14.12A14.12,14.12,0,0,0,1899.9,1468.82Zm84.93-5.65a8.48,8.48,0,1,0-8.47-8.47A8.47,8.47,0,0,0,1984.83,1463.17Zm-1953.5,105a28.5,28.5,0,1,0-28.51-28.5A28.51,28.51,0,0,0,31.33,1568.13Zm84.93-.7a27.8,27.8,0,1,0-27.8-27.8A27.82,27.82,0,0,0,116.26,1567.43Zm84.93-.71a27.09,27.09,0,1,0-27.09-27.09A27.09,27.09,0,0,0,201.19,1566.72Zm84.93-.45a26.64,26.64,0,1,0-26.64-26.64A26.66,26.66,0,0,0,286.12,1566.27Zm84.94-.7a25.94,25.94,0,1,0-25.94-25.94A25.95,25.95,0,0,0,371.06,1565.57Zm84.93-.52a25.42,25.42,0,1,0-25.42-25.42A25.39,25.39,0,0,0,456,1565.05Zm84.93-.7a24.72,24.72,0,1,0-24.71-24.72A24.69,24.69,0,0,0,540.92,1564.35Zm84.93-.71a24,24,0,1,0-24-24A24,24,0,0,0,625.85,1563.64Zm84.94-.45a23.56,23.56,0,1,0-23.56-23.56A23.54,23.54,0,0,0,710.79,1563.19Zm84.93-.71a22.85,22.85,0,1,0-22.86-22.85A22.82,22.82,0,0,0,795.72,1562.48Zm84.93-.45a22.4,22.4,0,1,0-22.4-22.4A22.42,22.42,0,0,0,880.65,1562Zm84.93-.7a21.7,21.7,0,1,0-21.7-21.7A21.72,21.72,0,0,0,965.58,1561.33Zm84.93-.71a21,21,0,1,0-21-21A21,21,0,0,0,1050.51,1560.62Zm84.94-.51a20.48,20.48,0,1,0-20.48-20.48A20.49,20.49,0,0,0,1135.45,1560.11Zm84.93-.71a19.77,19.77,0,1,0-19.77-19.77A19.78,19.78,0,0,0,1220.38,1559.4Zm84.93-.7a19.07,19.07,0,1,0-19.06-19.07A19.07,19.07,0,0,0,1305.31,1558.7Zm84.93-.45a18.62,18.62,0,1,0-18.61-18.62A18.63,18.63,0,0,0,1390.24,1558.25Zm84.94-.71a17.91,17.91,0,1,0-17.91-17.91A17.92,17.92,0,0,0,1475.18,1557.54Zm84.93-.71a17.21,17.21,0,1,0-17.21-17.2A17.2,17.2,0,0,0,1560.11,1556.83Zm84.93-.44a16.7,16.7,0,1,0-16.69-16.7A16.7,16.7,0,0,0,1645,1556.39Zm85-.71a16,16,0,1,0-16-16A16,16,0,0,0,1730,1555.68ZM1815,1555a15.28,15.28,0,1,0-15.28-15.28A15.28,15.28,0,0,0,1815,1555Zm84.93-.7a14.58,14.58,0,1,0-14.57-14.58A14.56,14.56,0,0,0,1899.9,1554.27Zm84.93-5.65a8.93,8.93,0,1,0-8.92-8.93A8.91,8.91,0,0,0,1984.83,1548.62Zm-1953.5,105a29,29,0,1,0-28.95-28.95A29,29,0,0,0,31.33,1653.58Zm84.93-.51a28.51,28.51,0,1,0-28.5-28.51A28.52,28.52,0,0,0,116.26,1653.07Zm84.93-.71a27.8,27.8,0,1,0-27.79-27.8A27.81,27.81,0,0,0,201.19,1652.36Zm84.93-.71A27.09,27.09,0,1,0,259,1624.56,27.1,27.1,0,0,0,286.12,1651.65Zm84.94-.45a26.64,26.64,0,1,0-26.64-26.64A26.66,26.66,0,0,0,371.06,1651.2Zm84.93-.7a25.94,25.94,0,1,0-25.94-25.94A25.94,25.94,0,0,0,456,1650.5Zm84.93-.45a25.43,25.43,0,1,0-25.42-25.42A25.39,25.39,0,0,0,540.92,1650.05Zm84.93-.71a24.72,24.72,0,1,0-24.71-24.71A24.68,24.68,0,0,0,625.85,1649.34Zm84.94-.7a24,24,0,1,0-24-24A24,24,0,0,0,710.79,1648.64Zm84.93-.52a23.56,23.56,0,1,0-23.56-23.56A23.54,23.54,0,0,0,795.72,1648.12Zm84.93-.7a22.86,22.86,0,1,0-22.85-22.86A22.82,22.82,0,0,0,880.65,1647.42Zm84.93-.45a22.41,22.41,0,1,0-22.4-22.41A22.43,22.43,0,0,0,965.58,1647Zm84.93-.71a21.7,21.7,0,1,0-21.69-21.7A21.71,21.71,0,0,0,1050.51,1646.26Zm84.94-.71a21,21,0,1,0-21-21A21,21,0,0,0,1135.45,1645.55Zm84.93-.51a20.48,20.48,0,1,0-20.48-20.48A20.49,20.49,0,0,0,1220.38,1645Zm84.93-.71a19.77,19.77,0,1,0-19.77-19.77A19.77,19.77,0,0,0,1305.31,1644.33Zm84.93-.7a19.07,19.07,0,1,0-19.06-19.07A19.07,19.07,0,0,0,1390.24,1643.63Zm84.94-.45a18.62,18.62,0,1,0-18.62-18.62A18.63,18.63,0,0,0,1475.18,1643.18Zm84.93-.71a17.91,17.91,0,1,0-17.91-17.91A17.92,17.92,0,0,0,1560.11,1642.47Zm84.93-.7a17.21,17.21,0,1,0-17.2-17.21A17.22,17.22,0,0,0,1645,1641.77Zm85-.45a16.69,16.69,0,1,0-16.69-16.69A16.7,16.7,0,0,0,1730,1641.32Zm84.93-.71a16,16,0,1,0-16-16A16,16,0,0,0,1815,1640.61Zm84.93-.71a15.28,15.28,0,1,0-15.28-15.27A15.26,15.26,0,0,0,1899.9,1639.9Zm84.93-6.16a9.18,9.18,0,1,0-9.18-9.18A9.17,9.17,0,0,0,1984.83,1633.74ZM31.33,1739.22a29.66,29.66,0,1,0-29.66-29.66A29.67,29.67,0,0,0,31.33,1739.22Zm84.93-.71a29,29,0,1,0-28.95-29A29,29,0,0,0,116.26,1738.51Zm84.93-.51a28.51,28.51,0,1,0-28.5-28.51A28.53,28.53,0,0,0,201.19,1738Zm84.93-.71a27.8,27.8,0,1,0-27.79-27.8A27.8,27.8,0,0,0,286.12,1737.29Zm84.94-.7a27.1,27.1,0,1,0-27.09-27.1A27.11,27.11,0,0,0,371.06,1736.59Zm84.93-.45a26.65,26.65,0,1,0-26.64-26.65A26.66,26.66,0,0,0,456,1736.14Zm84.93-.71A25.94,25.94,0,1,0,515,1709.49,25.95,25.95,0,0,0,540.92,1735.43Zm84.93-.45a25.42,25.42,0,1,0-25.42-25.42A25.4,25.4,0,0,0,625.85,1735Zm84.94-.71a24.72,24.72,0,1,0-24.72-24.71A24.68,24.68,0,0,0,710.79,1734.27Zm84.93-.7a24,24,0,1,0-24-24A24,24,0,0,0,795.72,1733.57Zm84.93-.52a23.56,23.56,0,1,0-23.56-23.56A23.53,23.53,0,0,0,880.65,1733.05Zm84.93-.7a22.86,22.86,0,1,0-22.85-22.86A22.83,22.83,0,0,0,965.58,1732.35Zm84.93-.45a22.41,22.41,0,1,0-22.4-22.41A22.43,22.43,0,0,0,1050.51,1731.9Zm84.94-.71a21.7,21.7,0,1,0-21.7-21.7A21.71,21.71,0,0,0,1135.45,1731.19Zm84.93-.7a21,21,0,1,0-21-21A21,21,0,0,0,1220.38,1730.49Zm84.93-.45a20.48,20.48,0,1,0-20.48-20.48A20.49,20.49,0,0,0,1305.31,1730Zm84.93-.71a19.77,19.77,0,1,0-19.77-19.77A19.78,19.78,0,0,0,1390.24,1729.33Zm84.94-.71a19.07,19.07,0,1,0-19.07-19.06A19.06,19.06,0,0,0,1475.18,1728.62Zm84.93-.51a18.62,18.62,0,1,0-18.62-18.62A18.63,18.63,0,0,0,1560.11,1728.11Zm84.93-.7a17.92,17.92,0,1,0-17.91-17.92A17.92,17.92,0,0,0,1645,1727.41Zm85-.71a17.21,17.21,0,1,0-17.21-17.21A17.2,17.2,0,0,0,1730,1726.7Zm84.93-.45a16.69,16.69,0,1,0-16.69-16.69A16.7,16.7,0,0,0,1815,1726.25Zm84.93-.71a16,16,0,1,0-16-16A16,16,0,0,0,1899.9,1725.54Zm84.93-6.35a9.63,9.63,0,1,0-9.63-9.63A9.62,9.62,0,0,0,1984.83,1719.19ZM31.33,1824.6a30.18,30.18,0,1,0-30.17-30.17A30.18,30.18,0,0,0,31.33,1824.6Zm84.93-.45a29.66,29.66,0,1,0-29.66-29.66A29.67,29.67,0,0,0,116.26,1824.15Zm84.93-.71a29,29,0,1,0-28.95-29A29,29,0,0,0,201.19,1823.44Zm84.93-.51a28.51,28.51,0,1,0-28.5-28.5A28.53,28.53,0,0,0,286.12,1822.93Zm84.94-.71a27.8,27.8,0,1,0-27.8-27.79A27.8,27.8,0,0,0,371.06,1822.22Zm84.93-.7a27.09,27.09,0,1,0-27.09-27.09A27.1,27.1,0,0,0,456,1821.52Zm84.93-.45a26.65,26.65,0,1,0-26.64-26.64A26.66,26.66,0,0,0,540.92,1821.07Zm84.93-.71a25.94,25.94,0,1,0-25.93-25.93A25.95,25.95,0,0,0,625.85,1820.36Zm84.94-.45a25.42,25.42,0,1,0-25.43-25.42A25.39,25.39,0,0,0,710.79,1819.91Zm84.93-.7A24.72,24.72,0,1,0,771,1794.49,24.69,24.69,0,0,0,795.72,1819.21Zm84.93-.71a24,24,0,1,0-24-24A24,24,0,0,0,880.65,1818.5Zm84.93-.51A23.56,23.56,0,1,0,942,1794.43,23.54,23.54,0,0,0,965.58,1818Zm84.93-.71a22.86,22.86,0,1,0-22.85-22.85A22.83,22.83,0,0,0,1050.51,1817.28Zm84.94-.45a22.41,22.41,0,1,0-22.41-22.4A22.42,22.42,0,0,0,1135.45,1816.83Zm84.93-.71a21.7,21.7,0,1,0-21.7-21.69A21.71,21.71,0,0,0,1220.38,1816.12Zm84.93-.7a21,21,0,1,0-21-21A21,21,0,0,0,1305.31,1815.42Zm84.93-.45a20.48,20.48,0,1,0-20.47-20.48A20.49,20.49,0,0,0,1390.24,1815Zm84.94-.71a19.77,19.77,0,1,0-19.78-19.77A19.78,19.78,0,0,0,1475.18,1814.26Zm84.93-.7a19.07,19.07,0,1,0-19.07-19.07A19.06,19.06,0,0,0,1560.11,1813.56ZM1645,1813a18.62,18.62,0,1,0-18.62-18.61A18.63,18.63,0,0,0,1645,1813Zm85-.7a17.91,17.91,0,1,0-17.91-17.91A17.92,17.92,0,0,0,1730,1812.34Zm84.93-.71a17.21,17.21,0,1,0-17.21-17.2A17.2,17.2,0,0,0,1815,1811.63Zm84.93-.45a16.69,16.69,0,1,0-16.69-16.69A16.69,16.69,0,0,0,1899.9,1811.18Zm84.93-6.61a10.15,10.15,0,1,0-10.14-10.14A10.17,10.17,0,0,0,1984.83,1804.57ZM31.33,1910A30.62,30.62,0,1,0,.71,1879.36,30.66,30.66,0,0,0,31.33,1910Zm84.93-.45a30.17,30.17,0,1,0-30.17-30.17A30.17,30.17,0,0,0,116.26,1909.53Zm84.93-.45a29.66,29.66,0,1,0-29.66-29.66A29.67,29.67,0,0,0,201.19,1909.08Zm84.93-.7a29,29,0,1,0-28.95-29A29,29,0,0,0,286.12,1908.38Zm84.94-.52a28.5,28.5,0,1,0-28.51-28.5A28.51,28.51,0,0,0,371.06,1907.86Zm84.93-.7a27.8,27.8,0,1,0-27.8-27.8A27.82,27.82,0,0,0,456,1907.16Zm84.93-.71a27.09,27.09,0,1,0-27.09-27.09A27.09,27.09,0,0,0,540.92,1906.45Zm84.93-.45a26.64,26.64,0,1,0-26.64-26.64A26.67,26.67,0,0,0,625.85,1906Zm84.94-.71a25.94,25.94,0,1,0-25.94-25.93A25.94,25.94,0,0,0,710.79,1905.29Zm84.93-.45a25.42,25.42,0,1,0-25.42-25.42A25.39,25.39,0,0,0,795.72,1904.84Zm84.93-.7a24.72,24.72,0,1,0-24.72-24.72A24.69,24.69,0,0,0,880.65,1904.14Zm84.93-.71a24,24,0,1,0-24-24A24,24,0,0,0,965.58,1903.43Zm84.93-.51a23.56,23.56,0,1,0-23.56-23.56A23.54,23.54,0,0,0,1050.51,1902.92Zm84.94-.71a22.86,22.86,0,1,0-22.86-22.85A22.82,22.82,0,0,0,1135.45,1902.21Zm84.93-.45a22.41,22.41,0,1,0-22.41-22.4A22.41,22.41,0,0,0,1220.38,1901.76Zm84.93-.7a21.7,21.7,0,1,0-21.7-21.7A21.72,21.72,0,0,0,1305.31,1901.06Zm84.93-.71a21,21,0,1,0-21-21A21,21,0,0,0,1390.24,1900.35Zm84.94-.45a20.48,20.48,0,1,0-20.48-20.48A20.49,20.49,0,0,0,1475.18,1899.9Zm84.93-.7a19.78,19.78,0,1,0-19.77-19.78A19.78,19.78,0,0,0,1560.11,1899.2Zm84.93-.71a19.07,19.07,0,1,0-19.07-19.07A19.07,19.07,0,0,0,1645,1898.49Zm85-.51a18.62,18.62,0,1,0-18.62-18.62A18.63,18.63,0,0,0,1730,1898Zm84.93-.71a17.91,17.91,0,1,0-17.91-17.91A17.91,17.91,0,0,0,1815,1897.27Zm84.93-.71a17.21,17.21,0,1,0-17.2-17.2A17.21,17.21,0,0,0,1899.9,1896.56Zm84.93-6.61a10.59,10.59,0,1,0-10.59-10.59A10.6,10.6,0,0,0,1984.83,1890ZM31.33,1933a31.33,31.33,0,1,0,31.33,31.33A31.33,31.33,0,0,0,31.33,1933Zm84.93.71a30.62,30.62,0,1,0,30.62,30.62A30.66,30.66,0,0,0,116.26,1933.67Zm84.93.51a30.18,30.18,0,1,0,30.17,30.18A30.18,30.18,0,0,0,201.19,1934.18Zm84.93.45a29.66,29.66,0,1,0,29.66,29.66A29.67,29.67,0,0,0,286.12,1934.63Zm84.94.71a29,29,0,1,0,28.95,29A29,29,0,0,0,371.06,1935.34Zm84.93.51a28.51,28.51,0,1,0,28.5,28.51A28.52,28.52,0,0,0,456,1935.85Zm84.93.71a27.8,27.8,0,1,0,27.8,27.8A27.81,27.81,0,0,0,540.92,1936.56Zm84.93.7a27.1,27.1,0,1,0,27.09,27.1A27.11,27.11,0,0,0,625.85,1937.26Zm84.94.45a26.65,26.65,0,1,0,26.64,26.65A26.66,26.66,0,0,0,710.79,1937.71Zm84.93.71a25.94,25.94,0,1,0,25.93,25.94A25.95,25.95,0,0,0,795.72,1938.42Zm84.93.45a25.42,25.42,0,1,0,25.42,25.42A25.39,25.39,0,0,0,880.65,1938.87Zm84.93.71a24.72,24.72,0,1,0,24.72,24.71A24.68,24.68,0,0,0,965.58,1939.58Zm84.93.7a24,24,0,1,0,24,24A24,24,0,0,0,1050.51,1940.28Zm84.94.52a23.56,23.56,0,1,0,23.56,23.56A23.53,23.53,0,0,0,1135.45,1940.8Zm84.93.7a22.86,22.86,0,1,0,22.85,22.86A22.82,22.82,0,0,0,1220.38,1941.5Zm84.93.45a22.41,22.41,0,1,0,22.41,22.41A22.43,22.43,0,0,0,1305.31,1942Zm84.93.71a21.7,21.7,0,1,0,21.7,21.7A21.7,21.7,0,0,0,1390.24,1942.66Zm84.94.7a21,21,0,1,0,21,21A21,21,0,0,0,1475.18,1943.36Zm84.93.45a20.48,20.48,0,1,0,20.48,20.48A20.49,20.49,0,0,0,1560.11,1943.81Zm84.93.71a19.77,19.77,0,1,0,19.77,19.77A19.78,19.78,0,0,0,1645,1944.52Zm85,.7a19.07,19.07,0,1,0,19.06,19.07A19.07,19.07,0,0,0,1730,1945.22Zm84.93.52a18.62,18.62,0,1,0,18.62,18.62A18.63,18.63,0,0,0,1815,1945.74Zm84.93.7a17.92,17.92,0,1,0,17.91,17.92A17.93,17.93,0,0,0,1899.9,1946.44Zm84.93,7.07a10.85,10.85,0,1,0,10.85,10.85A10.87,10.87,0,0,0,1984.83,1953.51Z"/></g></g></g></g></svg>