<svg xmlns="http://www.w3.org/2000/svg" viewBox="0 0 304.2 282.54"><defs><style>.cls-1{fill:#0d1c27;}</style></defs><title>ca56d279-92fb-4d66-a3c7-4a71117bcfcbmdpi</title><g id="Layer_2" data-name="Layer 2"><g id="Layer_1-2" data-name="Layer 1"><g id="ca56d279-92fb-4d66-a3c7-4a71117bcfcb"><g id="ca56d279-92fb-4d66-a3c7-4a71117bcfcb-child-0"><path class="cls-1" d="M101.4,0,50.7,87.85l62,35.72L152.1,55.26l13.74,24.32-16.39,9.49,63-.71,21-35.38,11.07-18.84L228,43.66,202.8,0ZM253.5,87.85,191,123.93l38,66.9-25.86.17V172.69L192.92,191l-20.76,36.61v.17l20.23,35.75,10.81,19v-19h50.3l50.7-87.85ZM8.62,122.35,25.35,132,0,175.68l50.7,87.85H152.1V191.36l-78.86.51,13.92-24.11,16.53,9.52-32-54.22Z"/></g></g></g></g></svg>