<svg xmlns="http://www.w3.org/2000/svg" viewBox="0 0 45.98 29.52"><defs><style>.cls-1{fill:#2b2d2c;}</style></defs><title>cefbc5f4-d62e-4eb9-85c9-bd7a4713c452skateboard1</title><g id="Layer_2" data-name="Layer 2"><g id="Layer_1-2" data-name="Layer 1"><g id="cefbc5f4-d62e-4eb9-85c9-bd7a4713c452"><g id="ddb9eef1-cd25-4ea3-a92d-78e6f0f32949"><path class="cls-1" d="M7.05,11.59a1.63,1.63,0,0,1-.83,1.67A10.45,10.45,0,0,1,4,14.3a4.15,4.15,0,0,1-1.24.16,3.48,3.48,0,0,1-1.55-.32L.8,14a1.07,1.07,0,0,1-.32-.18.61.61,0,0,1-.16-.38,5.45,5.45,0,0,1-.2-1.59l0-1.23a9.51,9.51,0,0,0-.08-1A7.24,7.24,0,0,1,0,8.76,6.22,6.22,0,0,1,.4,6.65a8.41,8.41,0,0,1,2-3.42A5.33,5.33,0,0,1,4.82,1.71c.29-.11.73-.29,1.32-.56A8.53,8.53,0,0,1,8.65.36c.21,0,.52,0,.91-.08s.75,0,1,0A7.28,7.28,0,0,1,13,.6a2.48,2.48,0,0,0,.56.15l.4.08a4.29,4.29,0,0,1,1.11.28A3.64,3.64,0,0,1,16.18,2a5.9,5.9,0,0,0,.75.68,11.8,11.8,0,0,1,1.32.93,4.24,4.24,0,0,1,.84,1,9.56,9.56,0,0,1,1.43,3.86c.05.59.08,1,.08,1.32a8.11,8.11,0,0,1-.44,2.63,9.42,9.42,0,0,1-1.43,2.79,13.77,13.77,0,0,1-1.8,1.67c-.63.53-1.1.94-1.39,1.23A10.79,10.79,0,0,1,11,21.27a4.76,4.76,0,0,0-.74.26,4,4,0,0,0-.66.34.81.81,0,0,0-.36.64.44.44,0,0,0,.12.32.71.71,0,0,0,.38.16,2.64,2.64,0,0,1,.38.08,5.67,5.67,0,0,0,1,.11,9.42,9.42,0,0,0,1.35-.11c.59-.05,1-.08,1.32-.08a14.35,14.35,0,0,0,1.83-.16l.4-.08.6-.08a6,6,0,0,0,2.39-.88l.45-.26a2.54,2.54,0,0,1,.7-.3.69.69,0,0,1,.52,0,1.31,1.31,0,0,1,.6,1.16,7,7,0,0,1-.4,1.83,3.63,3.63,0,0,0-.12.56,3.42,3.42,0,0,0,0,.44,3.9,3.9,0,0,1-.32,1.39,6.21,6.21,0,0,1-1.24,1.71,2.54,2.54,0,0,1-1.17.7,8.94,8.94,0,0,1-1.65.26c-.24,0-.6,0-1.08.08a7.58,7.58,0,0,1-1.39.12,4.73,4.73,0,0,1-1-.08,9.73,9.73,0,0,0-1.87-.16c-.37,0-.91,0-1.6.08l-1.59,0-3,0q-1.52,0-3-.12a1.86,1.86,0,0,1-.53-.2l-.38-.2a1,1,0,0,1-.58-.58,4,4,0,0,1-.18-1.05,5.52,5.52,0,0,1,0-.8A6,6,0,0,1,.48,24.3a4.5,4.5,0,0,0,.2-1.51,3.64,3.64,0,0,1,.16-1.28A9.06,9.06,0,0,1,2.17,19a7.36,7.36,0,0,1,2.06-1.83,11.16,11.16,0,0,1,1.59-.72l.8-.36c.23-.11.79-.32,1.67-.63.37-.11.65-.2.84-.28a3.24,3.24,0,0,0,1.09-.7,11.1,11.1,0,0,0,1-1c.28-.33.47-.54.57-.65a3.48,3.48,0,0,0,.62-.94,7.58,7.58,0,0,0,.38-1.08c.11-.38.2-.69.28-.93a1,1,0,0,0,0-.32,1.34,1.34,0,0,0-.2-.72,7.59,7.59,0,0,0-.64-.83,3.71,3.71,0,0,0-1-.78A2.42,2.42,0,0,0,10.08,7a4.3,4.3,0,0,0-1.95.6.76.76,0,0,0-.34.32,1.85,1.85,0,0,0-.16.47,3,3,0,0,1-.18.56A5.3,5.3,0,0,0,7,10.87a4.35,4.35,0,0,0,0,.72ZM42.71,29.4a7.07,7.07,0,0,1-.84-.08,3.46,3.46,0,0,0-1.23-.08,4.68,4.68,0,0,1-.76,0l-1.27,0c-.19,0-.49,0-.92.08s-.92.08-1.15.08l-1.64,0c-.69-.05-1.23-.08-1.63-.08a1.88,1.88,0,0,1-.8-.14.53.53,0,0,1-.28-.54,1.67,1.67,0,0,1,.44-.91,5.93,5.93,0,0,1,.92-.88,1.65,1.65,0,0,0,.59-1.2,3.61,3.61,0,0,0-.07-.51,5.58,5.58,0,0,1-.06-.78,2.89,2.89,0,0,0-.12-.84.77.77,0,0,0-.42-.45,1.1,1.1,0,0,0-.64-.16h-.6A11.22,11.22,0,0,1,31,22.71a16.14,16.14,0,0,0-1.91-.16,5.94,5.94,0,0,0-1.16.12,10.76,10.76,0,0,1-1.87.2,6.55,6.55,0,0,1-1.28-.12l-.71-.1a1.42,1.42,0,0,1-.8-.34,2.31,2.31,0,0,1-.56-1.87,5.77,5.77,0,0,0,0-1.12l0-.88a3.38,3.38,0,0,1,.24-1.27,6.76,6.76,0,0,1,1-1.63q.87-1.2,1.35-1.8l.76-1A9,9,0,0,1,27.45,11l.8-.67a3.25,3.25,0,0,0,.32-.3,3.4,3.4,0,0,0,.3-.42l.53-.84A14.36,14.36,0,0,1,31,7.05l.67-.68c.43-.43,1-1.09,1.76-2s1.26-1.5,1.71-1.95A9,9,0,0,1,37.41.66,5.23,5.23,0,0,1,39.88,0a4.55,4.55,0,0,1,1.24.2A1.29,1.29,0,0,1,42,1.59c0,.48,0,.9,0,1.26s0,.65-.08.89c-.11,1.12-.16,2-.16,2.55a11.47,11.47,0,0,0,0,1.16q.12,1.23.12,2.43a12,12,0,0,1-.24,2.63,3.53,3.53,0,0,0-.07.6,4.61,4.61,0,0,0,.19,1.27,7.74,7.74,0,0,1,.16,1.31c0,.85.27,1.28.8,1.28a1,1,0,0,0,.68-.3,1.29,1.29,0,0,0,.4-.66,1.63,1.63,0,0,1,.47-.87.7.7,0,0,1,.8-.24.83.83,0,0,1,.42.36,2.11,2.11,0,0,1,.22.55,4.15,4.15,0,0,0,.16.52A3.31,3.31,0,0,1,46,17.41l0,1.15a8.88,8.88,0,0,1-.2,2.19,1.73,1.73,0,0,0,0,.44,2.53,2.53,0,0,0,0,.5c0,.15,0,.27.08.38a2.86,2.86,0,0,1,.12,1,.93.93,0,0,0,0,.41,2.43,2.43,0,0,1,0,.42,1.14,1.14,0,0,1-.12.52,1.62,1.62,0,0,1-.42.48.88.88,0,0,1-.54.2,1,1,0,0,1-.72-.34,7.87,7.87,0,0,1-.67-.86.94.94,0,0,0-.76-.4c-.35,0-.53.19-.56.56,0,.19,0,.44,0,.76s0,.58-.08.79a.9.9,0,0,0,.16.62,5.06,5.06,0,0,0,.64.74c.16.13.37.29.62.46a3.3,3.3,0,0,1,.61.52.72.72,0,0,1-.23,1.21,2.58,2.58,0,0,1-1.16.24ZM30.64,17.17a3.67,3.67,0,0,0,.64,0,3.53,3.53,0,0,0,1-.12,2,2,0,0,1,.6-.08h.64a2.75,2.75,0,0,0,.77-.06c.09,0,.14-.14.14-.3a2.85,2.85,0,0,1,.1-.66,1.73,1.73,0,0,0,.06-.69A6.93,6.93,0,0,1,34.46,14c0-.16,0-.39,0-.7a4.65,4.65,0,0,1,0-.77v-.16c0-.13,0-.2-.12-.2a.61.61,0,0,0-.39.24,9.1,9.1,0,0,0-1.76,2.19,10.57,10.57,0,0,1-.77,1.07,3.75,3.75,0,0,1-.94.76,1,1,0,0,0-.34.34c-.09.15-.09.25,0,.3a.49.49,0,0,0,.24,0,.49.49,0,0,1,.24,0Z"/></g></g></g></g></svg>