<svg xmlns="http://www.w3.org/2000/svg" viewBox="0 0 587.54 576.43"><defs><style>.cls-1{fill:#e6c347;}</style></defs><title>d05fc3ea-8155-4f59-ba8b-fca14921d54droster</title><g id="Layer_2" data-name="Layer 2"><g id="Layer_1-2" data-name="Layer 1"><g id="d05fc3ea-8155-4f59-ba8b-fca14921d54d"><g id="d05fc3ea-8155-4f59-ba8b-fca14921d54d-child-0"><path class="cls-1" d="M516.93,48a40.82,40.82,0,0,1,2.6-3.52c-1.48-2.2-3.14-4.1-4.11-6.26-.87-1.83-.75-4.13-1.55-6-1.87-4.53-4.05-8.91-6.06-13.38a11.68,11.68,0,0,0-7.9-6.87,31.64,31.64,0,0,1-6.65-3c-2.89-1.58-5.52-3.68-8.45-5A43.22,43.22,0,0,0,474.36.29c-7-1.19-13.28,1.52-19.66,4s-10.44,7.3-13.59,13a12.42,12.42,0,0,0-1.18,4.22c-.88,6.92-1.23,14-2.66,20.84-1.11,5.28.09,9,4,12.47,6.83,6,13.44,12.34,20.09,18.55,2.34,2.17,4.64,4.37,6.85,6.6a3.07,3.07,0,0,1,1,1.82c-.12,4.37-.54,8.68-3.82,12.14a11,11,0,0,0-2,4.25c-1,3.14-1.51,6.4-2.69,9.47-1.73,4.54-4,8.87-5.79,13.41-1.45,3.53-2.55,7.22-3.87,10.79-2.82,7.9-5.89,15.75-8.45,23.75-1.09,3.47-.89,7.36-1.79,10.9-1.27,4.82-3.08,9.44-4.73,14.16-.49,1.39-1,2.79-1.53,4.17a50.86,50.86,0,0,1-2.29,5.79c-1.54,2.75-3.76,5.22-4.93,8.07-1.4,3.51-2.68,7.29-2.78,11-.15,5.81-4.26,10.77-3.24,16.74a9.8,9.8,0,0,1-.07,2.16l-1.07.18c-7.11-3.25-14.27-6.37-21.28-9.84-3.85-1.9-3.73-2.12-4.84-6.08-1,.95-1.78,1.78-2.51,2.45-12.32-4-20.43-14.18-31.73-20.15,2.82-1.56,1.4-2.69.32-3.49-2.42-1.76-5-3.27-7.46-4.9-2.27-1.55-4.32-3.47-6.73-4.63-2.85-1.39-6.64-.85-8.6-4.19-.07-.14-.42-.08-.62-.15a34.9,34.9,0,0,1-5.92-2.34,84.35,84.35,0,0,1-8-5.83c-3.3-2.6-6.52-5.34-9.68-8.11-2.76-2.36-5.27-5-8.16-7.19-4.75-3.55-9.78-6.8-14.59-10.26-3.47-2.47-6.86-5-10.16-7.72-3-2.5-5.82-5.13-6.23-9.58-1-11.39-.13-22.47,4.83-33a2.57,2.57,0,0,0,.29-1.23c-.11-4-.4-8-2.86-11.5-1.33-1.88-2.39-4-3.65-6-1.72-2.69-3-5.51-4.49-8.33-2.29-4.49-5.5-8.5-8.39-12.65a6,6,0,0,0-2.3-2.09A35.47,35.47,0,0,0,252,50.16c-7.69-2-15.38-4.21-23.15-6.06-3.89-1-7.95-1.54-11.57,1.21-1.33,1-2.74,1.95-4.11,2.87-3.88,2.55-7.85,5-11.69,7.66-5.05,3.54-8.62,7.91-7.33,14.68.22,1.16-.09,2.35,0,3.5.61,7.53,1.15,15,1.87,22.57a101.62,101.62,0,0,0,1.71,11,14.63,14.63,0,0,0,2.16,5.48c3.23,4.65,8.53,6,13.39,8.21,2.57,1.14,5.84,2.27,7.16,4.38a12.75,12.75,0,0,0,7.57,5.72,15.59,15.59,0,0,0,3.45.34c-.82-2.08-1.45-3.64-2.31-5.8,11,2.71,17.8,10.34,25,16.35,1.16,4.87,2.91,8.91,6.35,12.15-1,1.79-2.31,3.33-2.76,5.13-1.14,4.31-2,8.7-2.72,13.1-.87,5.11-1.73,10.12-.4,15.45a39.87,39.87,0,0,1,.6,13.66c-.82,7.61-2.91,15.11-3.52,22.72a263.46,263.46,0,0,0-.35,28.39c.26,7.26,1.1,14.35-.8,21.54a83,83,0,0,0-2,13.87c-.25,2.47.73,5.23-3.17,5.54-.27,0-.48.39-.7.61-2,2.23-4.24,2.6-6.93,1.42a14.09,14.09,0,0,0-3-1c-10.89-1.74-20.86-6.05-30.68-10.75a120.78,120.78,0,0,0-13.43-5.95c-6.58-2.25-12.38-5.25-17.06-10.63-1.79-2.05-5-3.12-7.71-4.17-3-1.2-6.27-1.69-9.3-2.77-2.7-1-5.16-2.48-7.89-3.38-5.07-1.59-10.35-2.59-15.33-4.45-14.72-5.56-30-9.67-44.37-16.09a6,6,0,0,0-1.29-.31c-.28.34-.51.67-.8,1s-.68.65-1.38,1.26a29.79,29.79,0,0,1-6.3-19c3.21-.49,4.46-2.12,3.46-4.59a64.61,64.61,0,0,0-3.87-7.25,49.43,49.43,0,0,1-2.82-4.58c-2-4.55-3.82-9.23-5.82-13.81-1.46-3.31-3.87-5.5-7.73-5.81-1.26-.11-2.5-1-3.7-1.58a10.65,10.65,0,0,0-2.52-1.27c-9.08-2.21-18.22-4.18-27.23-6.7a8.28,8.28,0,0,0-8,1.49C15.38,179.74,10,184,4.49,188.28c-4.34,3.43-5.36,6.81-3.8,12.19a9,9,0,0,1,.14,1.58c.22,3.23.39,6.48.72,9.72.22,2.19,1,4.36,1,6.55-.13,5.85.08,11.5,2.16,16.8,1.55,3.86,2.8,4.42,7,4.51a12,12,0,0,1,5.12,1.46c.59.33.38,2,.84,2.83a5.42,5.42,0,0,0,2.08,2.3c4.3,2.5,8.6,4.9,13,7.25,5.4,2.86,10.95,3.84,16.9,1.74.93-.34,2.1,0,3.14,0,2.8,0,5.71.64,8.38,0a9.42,9.42,0,0,1,6.65.9,61.61,61.61,0,0,0,9.71,4c2,.58,3.58,1.43,4.42,3.22,1.91,4,4.27,8,5.31,12.25,1.44,5.94,5.12,10.71,7.37,16.15a2.87,2.87,0,0,0,1.69,1.39c3.54,1.11,6.76,2.49,8.63,6,.33.71,1.59.94,2.42,1.42a10.38,10.38,0,0,1,2.42,1.54c7.73,7.55,15.32,15.28,23.17,22.72,2.58,2.45,3.44,5.54,4.54,8.57a4.74,4.74,0,0,1-.26,2.81c-.89,2.28-2.11,4.44-2.82,6.74-.43,1.3-1.95,3.28.26,4.15,2,.75,2.69-1.27,3.2-2.72,1-2.66,1.8-5.34,2.89-8.7,3.39,3.59,6.25,6.62,9.06,9.67a61.87,61.87,0,0,1,4.26,5.31,5.86,5.86,0,0,1,.35,2.24c-.82.11-1.78.51-2.42.21-3.21-1.59-3.77-1.27-3.76,2.33,0,2.68-.72,3.46-3.41,3.2-2.41-.23-4.79-.64-7.94-1.06-1.48,2.18-4,4.54-4.8,7.42-.82,3.12-.4,6.8,2.51,9.25-2.3,2.4-2.77,7.44-.84,9.31a38.08,38.08,0,0,0,5.86,5.11,22.89,22.89,0,0,0,18,3.42c4-.87,8.14-6.26,8.18-9.89A95.42,95.42,0,0,1,167,370.48c.11-.82.88-1.51,1.41-2.47,2.76,4.1,5.08,8.09,7.86,11.65s2.89,7.16,1.77,11.14c-.29,1-.78,2.17-.47,3.06,1.74,5.63,4.11,11.34,8.48,15.13,4.81,4.18,5.45,8.63,4.44,14.25-.7,3.61-.87,7.3-1.21,11-.05.35.27.8.48,1.13,2.61,4,5.27,7.9,9.27,10.82,4.6,3.35,8.49,7.31,10,13.2,2.11,8,6.09,15.17,10.6,22.06a5.92,5.92,0,0,0,2.46,1.73c2.56,1.14,4.27,5.09,3.14,7.43-1.23,2.5-.58,4,2,5.31a5.7,5.7,0,0,1,2.66,2.51,84.46,84.46,0,0,1,3.3,10.91c.51,2.22.48,4.36,3.25,5.24.73.26,1.27,1.64,1.51,2.62a38.72,38.72,0,0,1,.58,4.11c1.36,8.76,5,16.29,12,21.88,3.63,2.94,9.48,2.69,12.41-.83,1.74-2.09,2.6-5,3.63-7.68.24-.55-.36-1.69-.85-2.28-4.85-5.74-9.21-11.72-10.13-19.55-.14-1.46-.87-2.54-2.8-2a2.73,2.73,0,0,1-2.22-1c-.45-3.39-3.06-5.44-4.75-8.09-1.46-2.26-2.78-4.59-4.12-6.85.32-.26.7-.5,1-.75,2,2.23,3.91,4.44,5.85,6.58-.28-5.23-4.55-7.31-8.33-9.4s-8.67-2.85-11.48-8c3.54,1.93,6.47,3.5,9.55,5.16,1.9-.95,3.61-.45,5.45,1.8,3.4,4.3,6.91,8.6,10.24,13a7.52,7.52,0,0,1,1.59,4.17c-.05,2.32.82,4.16,3.2,4.34a56.85,56.85,0,0,0,9.57.34c5.34-.5,10.69-1.45,16.21-2.26,1.85,2.52,4.07,5.13,5.86,8,2.1,3.39,5.57,6.23,5.41,10.63-.29,8.28,4,15.08,6.77,22.39,1.67,4.35,3,8.82,6,12.47.28.36.17,1.06.38,1.51a82.12,82.12,0,0,0,3.67,8.44,5.52,5.52,0,0,0,6.21,3c3.14-.67,6.21-1.68,7.8-4.9a2.72,2.72,0,0,0,.11-1.85,80.67,80.67,0,0,0-6.43-19.38c-2.82-5.83-6.3-11.35-9.43-17a13.25,13.25,0,0,1-1.81-4.06c-.93-6.23-3.5-11.8-6.64-17.15-1.87-3.27-3.54-6.69-5.25-9.82,5-4.76,11.19-6,17-7.88,4.12-1.35,8.43-2.18,12.66-3.2,1.22-.3,2.5-.36,3.18,1.29.94,2.45,2.12,4.84,3.11,7.28,2,5.06,5.41,9.25,8.89,13.35,2.35,2.77,4.83,5.48,2.66,9.67-.44.81.53,2.87,1.44,3.75,2.13,2.06,4.74,1.81,7.46.85,4-1.42,5.39-4.9,6.55-8.35.4-1.23-.36-3-.9-4.33-1.4-3.66-2.51-7.51-4.59-10.74a42.67,42.67,0,0,1-6.81-18c-.21-1.71.08-2.83,1.82-3.54,2.48-1,10.63.38,12.4,2.39a6.72,6.72,0,0,1,1.2,2.55c.9,3.4,1.65,6.82,2.54,10.22a83.91,83.91,0,0,0,2.78,9.46,6.37,6.37,0,0,0,7.76,3.33c4.62-1.8,5.85-3.47,4.59-7.53-1.67-5.61-3.86-11-5.66-16.57a87.19,87.19,0,0,1-2.09-8.58,2.84,2.84,0,0,1,.74-2.27,58.88,58.88,0,0,1,5.86-4.14c.42-.25,1.26,0,1.85.22,5.68,2.29,9.88,6.32,13.51,11.11-.67.54-1.12.86-1.66,1.22.65.57,1,1,1.48,1.16,3.12.93,3.91,3.3,4.11,6.15.13,2,.33,4.06.55,6,.6,5.08,1.91,9.93,6.15,13.22,5.55,4.33,12,5.42,15.93-1.13a12.69,12.69,0,0,0,1.74-9.85,59.46,59.46,0,0,0-11.22-23.13,86.52,86.52,0,0,1-5-7.25,2.34,2.34,0,0,1-.27-1.84c1.38-3.22.8-6-1.92-8.23,1.65-1.6,2.82-3.3,4.43-4.17,5.37-2.87,10.8-5.49,16.27-8.13.85-.41,2.06-1,2.74-.7,3.13,1.42,5.11-1.1,7.58-1.89,1.09-.35,2-1.17,3.06-1.61,10.13-4.14,20.29-8.34,30.52-12.25,6.36-2.41,12.61-5.15,19.6-5.39,1.68,0,3.41-1.12,5-2,2-1.08,3.92-2.57,6-3.65a8,8,0,0,1,7.32-.24,6.9,6.9,0,0,0,4.78.15c6.45-2.67,8.56-2.14,12.68,3.46a28.34,28.34,0,0,0,5.64,6,17.11,17.11,0,0,1,5.42,6.14c2.29,4.49,3.77,9.48,7.61,13.08a8.84,8.84,0,0,1,2.61,7.84,5,5,0,0,0,.36,2.73,75,75,0,0,0,5.75,8.32c.67.84,2.55,1.59,3.42,1.23a49,49,0,0,0,6.65-3.75,3.09,3.09,0,0,0,1.53-4.06c-.67-1.87-1.18-3.87-1.8-5.76-.44-1.38-1-2.72-1.52-4.26,1.34-.74,1.58-1.73-.18-3a10.86,10.86,0,0,1-3-3.23c-1.64-3-3-6.17-4.53-9.23a10.62,10.62,0,0,0-.69-1.1c-3-4.49-5.72-9.21-9.17-13.38a7.12,7.12,0,0,1-1.35-7.35c1.43-4.39,2.43-9,7.59-11.13,2.59-1.12,4.65-3.46,7.24-5.51l3.94.82c1,.2,2.62-.7,2.29,1.49.58-.17,1.46-.15,1.67-.52,2.07-3.49,3.29-3.8,7.28-1.26a64.86,64.86,0,0,1,4.72-6.44c1.36-1.52,1.45-2.71.35-4.22-.62-.85-1.31-1.62-1.93-2.36a16.36,16.36,0,0,0,1.21-2.87c.32-1.63.25-3.29.57-4.92.48-2.91,1.14-5.68-.65-8.55-1.29-2-1.83-4.55-2.49-6.86-.3-1.12.28-2.54-.21-3.57-2.6-5.5-5.46-10.86-8-16.32-1.84-3.88-5-5.9-8.91-7.16a85.75,85.75,0,0,1-9-3.24,3.27,3.27,0,0,1-1.82-2.59,30.8,30.8,0,0,1,1.39-8.15,34.62,34.62,0,0,0,.57-23.18c-2.27-7.35-5-14.55-6.93-21.93-2.64-9.86-4.27-20-7.18-29.75a199.42,199.42,0,0,1-5.66-24.56c-1.36-8.21-3.42-16.26-5.08-24.39-.92-4.6-1.28-9.29-2.44-13.83-3.92-15.92-8-31.75-12.1-47.65-1.3-5.07-2.28-10.24-3.89-15.17-4.19-12.67-6.94-25.64-9.66-38.68-.65-3.09.39-5.06,2.8-6.8a61,61,0,0,0,7.11-5.88c5.54-5.63,8.07-13.23,12.26-19.75ZM69.47,255c-1.4-.54-2.78-1.14-4.19-1.68,2.22-1.44,3.23,0,4.45,1.07C69.66,254.58,69.54,254.8,69.47,255ZM231.22,447.22a22.72,22.72,0,0,1,3.93.43c0,.34,0,.6,0,.93a20.42,20.42,0,0,1-3.76,1.07c-.62.08-1.29-.76-1.92-1.17.56-.43,1.11-1.23,1.71-1.24Zm-3.45-2.09a3.56,3.56,0,0,1,.19.73l-1.68,1-1-1.15ZM242.67,461c-1.33,1.94-2.68,3.83-4.15,5.68-2.09,2.63-5,4.93-3.1,9.17-1.35,0-2.23,0-3.25.07,0,.28-.22.7-.09.86.73,1.19,1.26,2.41,3.25,2.12s2.56,1.48,3.15,3.66c-3.72-2-7-3.76-10.25-5.49,0-.29,0-.51.06-.8,1.09-.46,2.21-.88,3.39-1.38.33-1.85-.67-2.8-2.22-3.65-3.71-2.08-7.11-4.63-8.87-8.71-2.19-5.09-4.2-10.26-6.62-15.25-2.26-4.78-5-9.33-7.54-14-.64-1.12-1.37-2.2-1.9-3.32-.65-1.38-1.73-2.84.05-4.29s2.63.24,3.69,1.1c.35.27.58.77.94.82,6.51,1.51,7.38,7.17,9,12.25.27.8.4,1.66.63,2.49,1.19,5.29,2.08,5.79,7.4,4.43,1,2.14,2,3.84,5,4.22,2.2.27,4.22,2.1,6.32,3.19,1.44.73,2.86,1.43,4.26,2.19,2.19,1.15,2,2.76.83,4.53ZM103.31,213.94c-2.16-1.11-3.66-3.46-5.5-5.27l.52-.52c-2.19-4.87-2.17-4.82,1.5-8.86a12,12,0,0,0,1.76-2.63c1.91-3.37,4.77-4.72,8.25-3.25a94.29,94.29,0,0,1,11.68,5.74c4.17,2.45,4.94,7.07,1.91,11a23.85,23.85,0,0,1-5.45,5.7c-1.37.92-3.72.94-5.5.63a31.31,31.31,0,0,1-9.21-2.48ZM548.59,99.87c-.86,3-5.64,5.29-8.35,3.95a4,4,0,0,0-3.83,0,29,29,0,0,1-4.83,1.57,2.94,2.94,0,0,1-1.55.08c-5.86-2.1-8-9.6-3.83-14.1,2.58-2.76,5.73-5,8.61-7.47,4.6-1.84,6.83-.93,8,3.82a3.17,3.17,0,0,0,2.68,2.67c4.75,1.26,4.31,5.4,3.16,9.45Zm32.9,89.65a13.16,13.16,0,0,1,6,10.06c.3,3.42-1.61,5.74-6.27,7.67-2.33,1.43-4.75,1.65-6.75-1.67-.71-1.14-2.62-1.49-3.37-2.62-2.43-3.5-1.49-8.92,1.74-11.81.31-.26.65-.58,1-.84,2.75-2.51,4.63-2.8,7.73-.76ZM72.92,281.37c.82.92.2,3.08.21,4.71a30.62,30.62,0,0,0-4.22.79,6,6,0,0,1-6.52-1.07A53.58,53.58,0,0,1,56,279.27a4.24,4.24,0,0,1-.24-4c.75-1.07,2.7-2.15,3.84-1.93a24.16,24.16,0,0,1,13.32,8Zm462.2-108.25c3.48.76,6.89,1.61,10.35,2.44.46,5.25-4.89,10.13-10,9a5.25,5.25,0,0,1-4.3-4.59c-.44-2.3.76-5.55,2.37-6.53a2.4,2.4,0,0,1,1.47-.37ZM564,186.42l-5.39-3.3c-.44-5,1.3-7.89,6.11-8.36,1.57-.14,3-.26,3.55,1.61C565.31,179.66,563.89,183,564,186.42ZM279,83.89c-.63-.85-1.23-1.66-1.81-2.54L278,81c.45.93,1,1.79,1.45,2.7l-.36.17Zm-7.48-11.28c-.38-.7-.81-1.37-1.19-2.06a.94.94,0,0,0,.29-.2c.54.68,1.06,1.31,1.6,2l-.67.32ZM226.24,456.68c2,2.46,2.19,5.2.66,8.44-1.83-2.47-3.5-4.74-5.46-7.37C223.57,457.29,224.8,457,226.24,456.68Z"/></g></g></g></g></svg>