<svg xmlns="http://www.w3.org/2000/svg" viewBox="0 0 4015.87 260.77"><defs><style>.cls-1{fill:#df0610;}</style></defs><title>d546b3fb-ae82-4fbd-a85e-4969f3a2d4f6mdpi</title><g id="Layer_2" data-name="Layer 2"><g id="Layer_1-2" data-name="Layer 1"><g id="d546b3fb-ae82-4fbd-a85e-4969f3a2d4f6"><g id="d546b3fb-ae82-4fbd-a85e-4969f3a2d4f6-child-0"><path class="cls-1" d="M2027.46,0l260.77,260.77h-84L1943.45,0ZM1722.65,0l260.77,260.77h84L1806.66,0Zm441.59,0L2425,260.77h84L2248.25,0ZM2385,0l260.77,260.77h84L2469.05,0Zm220.8,0,260.77,260.77h84L2689.85,0Zm220.79,0L3087.4,260.77h84L2910.64,0ZM1281.06,0l260.77,260.77h84L1365.07,0Zm220.79,0,260.78,260.77h84L1585.86,0ZM618.67,0,879.44,260.77h84L702.68,0Zm441.59,0L1321,260.77h84L1144.27,0ZM839.46,0l260.78,260.77h84L923.47,0ZM177.07,0,437.85,260.77h84L261.08,0Zm220.8,0L658.64,260.77h84L481.88,0ZM0,0V43.72L217.05,260.77h84L40,0ZM4014.94,0h-84l84.94,85V.94ZM3710.13,0,3970.9,260.77h45v-39L3794.14,0ZM0,260.77H80L0,180.82ZM3489.34,0l260.77,260.77h84L3573.34,0Zm-220.8,0,260.77,260.77h84L3352.55,0Zm-220.8,0,260.77,260.77h84L3131.44,0h-83.7Z"/></g></g></g></g></svg>