<svg xmlns="http://www.w3.org/2000/svg" viewBox="0 0 97.81 97.81"><defs><style>.cls-1{fill:#fff;stroke:#fff;stroke-miterlimit:10;}</style></defs><title>d7a4b04e-4a35-49de-8dfa-cec19f62ee58 (2)mdpi</title><g id="Layer_2" data-name="Layer 2"><g id="Layer_1-2" data-name="Layer 1"><g id="d7a4b04e-4a35-49de-8dfa-cec19f62ee58"><g id="d7a4b04e-4a35-49de-8dfa-cec19f62ee58-child-0"><path class="cls-1" d="M97.31,44.26H66.22L93.15,28.72l-4.65-8L61.59,36.23,77.13,9.31l-8-4.65L53.55,31.59V.5H44.26V31.59L28.72,4.66l-8,4.65L36.23,36.23,9.31,20.69l-4.65,8L31.59,44.26H.5v9.29H31.59L4.66,69.09l4.65,8L36.23,61.59,20.69,88.5l8,4.65L44.26,66.22V97.31h9.29V66.22L69.09,93.15l8-4.65L61.59,61.59,88.5,77.13l4.65-8L66.22,53.55H97.31Z"/></g></g></g></g></svg>