<svg xmlns="http://www.w3.org/2000/svg" viewBox="0 0 371.07 371.47"><title>d871e3db-98c4-4347-80d0-ed5645fa5e30mdpi</title><g id="Layer_2" data-name="Layer 2"><g id="Layer_1-2" data-name="Layer 1"><g id="d871e3db-98c4-4347-80d0-ed5645fa5e30"><g id="d871e3db-98c4-4347-80d0-ed5645fa5e30-child-0"><path d="M150,93.11a.51.51,0,0,0,.54-.54.53.53,0,0,0-.54-.51c-10.48,0-42.16-1.54-48.87-8.4s-8.4-38.27-8.4-48.87a.53.53,0,0,0-.52-.51.53.53,0,0,0-.51.51c0,10.51-1.56,42.15-8.4,48.87s-38.36,8.4-48.87,8.4a.53.53,0,0,0,0,1c10.51,0,42.16,1.54,48.87,8.41s8.4,38.36,8.4,48.84a.53.53,0,0,0,.51.51.53.53,0,0,0,.52-.51c0-10.48,1.56-42.16,8.4-48.84S139.39,93.11,150,93.11ZM1.48,184.26c33.45,0,133.81-4.9,155.65-26.74S183.87,35.33,183.87,1.9a1.68,1.68,0,0,1,.75-1.65,1.82,1.82,0,0,1,1.83,0,1.69,1.69,0,0,1,.76,1.65c0,33.43,4.91,133.79,26.74,155.62s122.19,26.74,155.65,26.74a1.69,1.69,0,0,1,0,3.35c-33.46,0-133.82,4.9-155.65,26.74S187.21,336.54,187.21,370a1.68,1.68,0,0,1-3.34,0c0-33.46-4.91-133.82-26.74-155.65S34.93,187.61,1.48,187.61a1.69,1.69,0,0,1,0-3.35Z"/></g></g></g></g></svg>