<svg xmlns="http://www.w3.org/2000/svg" viewBox="0 0 186.01 65.53"><defs><style>.cls-1{fill:#252525;}</style></defs><title>dd87054f-0231-4fa1-a10a-62265baf7f5bsurfing</title><g id="Layer_2" data-name="Layer 2"><g id="Layer_1-2" data-name="Layer 1"><g id="dd87054f-0231-4fa1-a10a-62265baf7f5b"><g id="ed308591-181f-43a7-b5af-d6ca0a61936a"><path class="cls-1" d="M3,65.19a2.59,2.59,0,0,1-.69.21,8.31,8.31,0,0,1-.85.1l-.63,0a.92.92,0,0,1-.39,0,.36.36,0,0,1-.26-.25,1.56,1.56,0,0,1-.13-1L.25,63l.17-1.13c.23-1.63.41-3,.55-4.1s.2-2.26.23-3.48c0-.73.16-1.88.39-3.44a26.83,26.83,0,0,0,.39-3c.06-1.18.26-3,.61-5.29q.34-2.61.48-3.87c.11-1.48.19-2.49.21-3,.06-1.33.13-2.34.22-3a9.53,9.53,0,0,1,.2-1.3,2.11,2.11,0,0,1,.45-.88,3.38,3.38,0,0,1,2.13-1.06,5,5,0,0,1,1.47-.07,1.13,1.13,0,0,1,.28,0,.81.81,0,0,1,.33.07,1,1,0,0,1,.47.63,8.33,8.33,0,0,1,.35,2.31l.09,1c.17,1.29.39,2.5.65,3.62,0,.23.1.64.21,1.24l.27,1.36a58.63,58.63,0,0,1,1,7.09l.09,2.59c0,.61,0,1.47.08,2.57,0,.29.11.82.22,1.6,0,.32.08.69.14,1.12s.11,1,.16,1.59l.18,2a30.7,30.7,0,0,1,.26,3.26c0,.59,0,1,0,1.33a1.12,1.12,0,0,1-.43.8,1.64,1.64,0,0,1-1,.32l-.65.07A4.26,4.26,0,0,1,9.29,64a.49.49,0,0,1-.46-.51c0-.24-.05-.5-.09-.8s-.07-.66-.13-1.06c0-.58-.08-1-.08-1.22l.05-1.11a2,2,0,0,0-.13-.76c-.06-.14-.3-.17-.7-.1a12.86,12.86,0,0,0-1.34.13c-.29,0-.73.16-1.3.32a1,1,0,0,0-.53.31,1.39,1.39,0,0,0-.25.61,6.37,6.37,0,0,0-.14,1.08A5.24,5.24,0,0,1,4,62.12a1.93,1.93,0,0,0-.08.58l0,.66a3,3,0,0,1-.17,1.2,2.06,2.06,0,0,1-.78.63ZM7.31,54.55a.6.6,0,0,0,.35-.19,1,1,0,0,0,.09-.54A24.73,24.73,0,0,1,7.58,51a13.76,13.76,0,0,0-.09-1.91l-.18-2a9.5,9.5,0,0,0,0-1.09A18.9,18.9,0,0,0,7,43.75a18.37,18.37,0,0,1-.26-2.47c0-.5,0-.77-.09-.82a.22.22,0,0,0-.26-.13c-.09,0-.17.11-.24.28a2.56,2.56,0,0,0-.15.62l-.12,1.21c-.18,1.32-.28,2.37-.31,3.13a8.61,8.61,0,0,1,0,.91c0,.29,0,.55-.08.78-.12,1-.19,2-.22,2.86,0,.59,0,1.06,0,1.42,0,1,0,1.84,0,2.43,0,0,0,.12,0,.28a.52.52,0,0,0,.06.37c.11.15.33.2.65.15l.7-.12a5,5,0,0,1,.69-.08ZM17.9,27.36c1.51-.14,2.65-.28,3.42-.41a24.83,24.83,0,0,0,3-.68l.51-.14a1,1,0,0,1,.83.13,1.51,1.51,0,0,1,.5.64,2.17,2.17,0,0,1,.19.92,2.13,2.13,0,0,1-.22.91,6.42,6.42,0,0,1-.78,1.41,1.74,1.74,0,0,1-1.08.54c-.69.12-1.24.23-1.65.34a1.48,1.48,0,0,0-.9.67,1.88,1.88,0,0,0-.22,1v.64c0,.21,0,.55,0,1s0,1.17,0,2.08a32.31,32.31,0,0,1-.17,3.37A27,27,0,0,0,21.19,43c0,1.26.06,2.53.18,3.8.06,1.92.09,3.59.09,5q0,2.91-.09,7.23l-.05,1.86a1.3,1.3,0,0,1-.17.84,2.33,2.33,0,0,1-.78.42l-.59.21a3.72,3.72,0,0,1-.58.17,1.1,1.1,0,0,1-.65-.07,2.61,2.61,0,0,1-1-.6,2.1,2.1,0,0,1-.33-1,26.16,26.16,0,0,1-.13-2.79c0-1.58.07-3.3.22-5.14,0-.47.05-1,.08-1.56s0-1.16,0-1.8V47.63c0-1.56,0-2.76,0-3.61V42.57l0-2.42c0-.51,0-1.24,0-2.21a25.63,25.63,0,0,0-.57-5.5,1.31,1.31,0,0,0,0-.27.31.31,0,0,0-.17-.24,1,1,0,0,0-.35,0,9.12,9.12,0,0,0-1,.12l-.9.15a4.28,4.28,0,0,1-1.27,0,1.07,1.07,0,0,1-.44-.22,1.48,1.48,0,0,1-.17-.51,3.73,3.73,0,0,1-.13-.95A2.68,2.68,0,0,1,13,29a6.54,6.54,0,0,1,.61-.81,1.56,1.56,0,0,1,.69-.25c.33-.08.76-.17,1.3-.27l1.35-.23Zm15.27,1a9.93,9.93,0,0,1,0,1.1c0,.68-.06,1.76-.18,3.25s-.17,2.61-.17,3.37A17.87,17.87,0,0,0,33,38.15c.06.32.16.52.31.59a.94.94,0,0,0,.6,0,6.44,6.44,0,0,1,1.73-.12,2.28,2.28,0,0,0,.53,0,1.43,1.43,0,0,0,.56-.22,1.75,1.75,0,0,0,.87-1.56,4.71,4.71,0,0,0,0-.65c0-.33,0-.84,0-1.54s0-1.61.08-3,.08-2.26.08-2.88l0-1.71c0-.29,0-.69,0-1.22A2.26,2.26,0,0,1,38,24.41a3.55,3.55,0,0,1,1.91-1,2.17,2.17,0,0,1,1.38.33.75.75,0,0,1,.44.55,3.82,3.82,0,0,1,.08.75v.46l0,1.59v2.25a27.41,27.41,0,0,1-.13,3,66.34,66.34,0,0,0-.4,7.37,50.14,50.14,0,0,0,.31,5.84,46.54,46.54,0,0,1,.22,4.81c0,1.26,0,2.2,0,2.82,0,.44,0,1,0,1.59s0,1.3,0,2.06l0,.83a1.1,1.1,0,0,1-.27.83,1.89,1.89,0,0,1-1,.27,3.13,3.13,0,0,0-.82.07l-.69.15q-1,.16-1.14-1.35a37.33,37.33,0,0,1-.17-3.85c0-1.41,0-2.82.13-4.24q.09-2.74.09-4a6.47,6.47,0,0,0-.26-2,1.58,1.58,0,0,0-1-1,2.32,2.32,0,0,0-1.13,0,10.63,10.63,0,0,0-1.17.29,1.33,1.33,0,0,0-.91.52,2.31,2.31,0,0,0-.22,1.16l0,3.18c0,.77,0,1.34,0,1.71s.05.74.05,1.35,0,1.4-.09,2.53S33,54.94,33,55.4s0,.82.09,1.4l0,1.13a2.32,2.32,0,0,1-.13.86,1.7,1.7,0,0,1-.47.65c-.18.18-.38.36-.61.55a1.48,1.48,0,0,1-.65.33l-1,.2a1.17,1.17,0,0,1-1.12-.24,1.67,1.67,0,0,1-.27-1v-6.1q0-.8.18-2.58c0-.24.07-.72.13-1.45a17.48,17.48,0,0,0,.05-2q-.18-6.7-.18-14.84v-4a8.69,8.69,0,0,1,.18-2.05,1.44,1.44,0,0,1,.73-.87,1.34,1.34,0,0,1,.57-.19,5.72,5.72,0,0,1,.9-.07,3.1,3.1,0,0,0,.91,0,.55.55,0,0,1,.5.13.73.73,0,0,1,.2.54c0,.59,0,1.46.09,2.62ZM50,29.08c-.12,1.46-.17,3.33-.17,5.62,0,.41,0,1.39,0,2.94s-.1,3-.22,4.28c0,.27,0,.67,0,1.19s0,1.17.09,1.82.1,1.09.13,1.32A17.16,17.16,0,0,1,50,49.39c-.12,1.6.26,2.53,1.13,2.79a3.65,3.65,0,0,0,1.77,0,4.13,4.13,0,0,0,.74-.17l.55-.18a5.21,5.21,0,0,1,.79-.18,1.93,1.93,0,0,1,1.07,0,2,2,0,0,1,.54.61,2.16,2.16,0,0,1,.4,1.34,5,5,0,0,1-.44,1.89,1,1,0,0,1-.54.57,5,5,0,0,1-1,.26,7.89,7.89,0,0,1-1.08.13l-3.13.5c-1,.17-1.89.35-2.56.52a1.66,1.66,0,0,1-1.73-.58,1.89,1.89,0,0,1-.39-.77,3.38,3.38,0,0,1-.18-1.07l.05-2c0-.45,0-1.11,0-2s0-1.71-.12-2.67a27.56,27.56,0,0,1-.18-3.49,12.73,12.73,0,0,1,.13-2.13,12.36,12.36,0,0,0,.08-1.86l0-2.64c0-.4-.05-.89-.05-1.48,0-.87,0-2.21.05-4,0-1.41.08-2.47.08-3.17a30.18,30.18,0,0,0-.26-4.41,6.37,6.37,0,0,1-.09-.86,2,2,0,0,1,.48-1.4,1.93,1.93,0,0,1,.8-.45,6.67,6.67,0,0,1,.85-.23,2.21,2.21,0,0,1,1,0,1.36,1.36,0,0,1,.53.35c.15.17.28.28.36.36a1.9,1.9,0,0,1,.48,1.45l0,2.68c0,.44,0,1.1-.08,2Zm15.83-10A8.13,8.13,0,0,0,67.38,19a16.26,16.26,0,0,1,2.3-.3,1,1,0,0,1,.81.56A6.28,6.28,0,0,1,71,20.84a1.63,1.63,0,0,1,0,.48,1.9,1.9,0,0,1-.16.77,1.54,1.54,0,0,1-.4.6,1.1,1.1,0,0,1-.52.18,2.24,2.24,0,0,1-.65.06,12.77,12.77,0,0,0-1.92.42,12.11,12.11,0,0,1-2.38.5,1.32,1.32,0,0,0-.8.24.72.72,0,0,0-.2.54c0,.5,0,.94,0,1.32-.06,1.07-.09,2-.09,2.71a12.13,12.13,0,0,0,.22,2.69c0,.11.06.31.11.61a1,1,0,0,0,.28.65,1.46,1.46,0,0,0,.65.17,6,6,0,0,0,.91-.09,3.75,3.75,0,0,0,.6-.15,4,4,0,0,1,.49-.13,1.9,1.9,0,0,1,.78.05,1.39,1.39,0,0,1,.45.18,1.15,1.15,0,0,1,.32.43,2.1,2.1,0,0,1,.2,1.11c0,.47,0,.77,0,.89q0,1.26-2,1.62l-.56.05a4.22,4.22,0,0,0-.61.07,2,2,0,0,0-.56.17,3.68,3.68,0,0,0-.8.56,1.22,1.22,0,0,0-.16.76,7.93,7.93,0,0,0,.05,1l0,1.39c0,.27,0,.73-.09,1.39a10.42,10.42,0,0,0,0,1.14l0,2.29a19.73,19.73,0,0,1-.34,3.92.6.6,0,0,0,.14.62.91.91,0,0,0,.72.12,3.71,3.71,0,0,0,.53-.13,6.37,6.37,0,0,1,1.21-.34,7.56,7.56,0,0,1,1.39-.11A10.13,10.13,0,0,0,69,49.44a1.91,1.91,0,0,1,1,.05,1.79,1.79,0,0,1,.81.65,2.48,2.48,0,0,1,.14,1.39,3.25,3.25,0,0,1-.26.94,3.12,3.12,0,0,1-.57.87,2.17,2.17,0,0,1-1.69.64,9.89,9.89,0,0,0-1.6.14c-.46.08-1.16.23-2.09.45a19.51,19.51,0,0,1-2.12.49A8.69,8.69,0,0,1,61,55.2,2.36,2.36,0,0,1,59.84,55a1,1,0,0,1-.3-.94q.3-3.13.3-6.12c0-.88,0-1.54-.05-2q-.16-3.56-.16-11.2c0-.35,0-.77,0-1.26s0-.85.08-1.1.06-.77.09-1.26,0-1.06,0-1.7c0-.47,0-1,0-1.56s-.06-1-.09-1.28c-.08-.86-.12-1.74-.12-2.62,0-.35,0-.91.08-1.69a2.66,2.66,0,0,1,.61-1.55A2.2,2.2,0,0,1,61.71,20c.6-.1,1.34-.26,2.2-.46.7-.18,1.15-.28,1.35-.32a2.78,2.78,0,0,1,.61-.06Zm12-2c1.51-.14,2.65-.28,3.43-.42a23,23,0,0,0,3-.67l.52-.14a1,1,0,0,1,.83.13,1.5,1.5,0,0,1,.49.64,2.16,2.16,0,0,1,.2.91,2.13,2.13,0,0,1-.22.92,6.07,6.07,0,0,1-.78,1.4,1.75,1.75,0,0,1-1.08.55c-.7.12-1.25.23-1.65.34a1.52,1.52,0,0,0-.91.66,2,2,0,0,0-.22,1v.64c0,.21,0,.55,0,1s0,1.17,0,2.09a29.69,29.69,0,0,1-.18,3.37,29.12,29.12,0,0,0-.17,3.24c0,1.26.06,2.52.17,3.8.06,1.92.09,3.59.09,5,0,1.94,0,4.34-.09,7.23l0,1.85a1.29,1.29,0,0,1-.18.84,2.16,2.16,0,0,1-.77.43l-.59.21a4.12,4.12,0,0,1-.59.17,1.2,1.2,0,0,1-.65-.07,2.8,2.8,0,0,1-1-.6,2.1,2.1,0,0,1-.33-1c-.08-.83-.13-1.76-.13-2.79,0-1.58.07-3.3.22-5.14q0-.72.09-1.56c0-.56,0-1.16,0-1.81V37.37c0-1.55,0-2.75,0-3.6V32.32l0-2.43c0-.5.05-1.24.05-2.2a26.22,26.22,0,0,0-.56-5.5,1.6,1.6,0,0,0,0-.27.31.31,0,0,0-.17-.24.72.72,0,0,0-.36,0,5.85,5.85,0,0,0-1,.12l-.89.15a4.36,4.36,0,0,1-1.28.05,1,1,0,0,1-.43-.22,1.14,1.14,0,0,1-.17-.52,3.69,3.69,0,0,1-.14-.94A2.67,2.67,0,0,1,73,18.78a6.44,6.44,0,0,1,.6-.8,1.49,1.49,0,0,1,.7-.25,12.1,12.1,0,0,1,1.31-.27l1.34-.23Zm15.4,5.55c0,.83-.08,1.49-.08,2l0,3c.06,1.45.09,2.62.09,3.5s0,1.76-.05,2.3l0,2.34c0,.94,0,1.87.13,2.78q.09.87.09,2.55v2.28l0,2.19a14.5,14.5,0,0,1-.17,2.28c0,.18-.06.41-.09.68a3.31,3.31,0,0,1-.15.7,1.31,1.31,0,0,1-.32.52,1.38,1.38,0,0,1-.7.3l-.78.08c-.29,0-.74.09-1.34.19a.57.57,0,0,1-.68-.39,4.11,4.11,0,0,1-.15-1.58q.09-1.2.09-4t-.18-6.7a19,19,0,0,1,.13-2.32l.09-1.59a25.26,25.26,0,0,0-.13-2.58c-.09-1.92-.13-3.21-.13-3.89l0-3.7c0-1.24,0-2.34-.13-3.32a14.83,14.83,0,0,1,0-2.39,5.24,5.24,0,0,1,.38-1.91,2.06,2.06,0,0,1,.65-.74,2.13,2.13,0,0,1,.94-.41,2.62,2.62,0,0,1,.87,0,2.36,2.36,0,0,1,1,.31,1.42,1.42,0,0,1,.29.88,27.84,27.84,0,0,1,.31,4.38q0,.79-.09,2.31Zm8.24,26.09a4.69,4.69,0,0,1-2.64-1,5.16,5.16,0,0,1-1.26-2.64,29,29,0,0,1-.44-5.82c0-.88,0-1.85.09-2.92.09-1.51.13-3.14.13-4.9l0-5.37c0-1,0-2,.09-3.13,0-.48,0-1.19,0-2.12a20.55,20.55,0,0,1,.17-3.07,7.06,7.06,0,0,1,2.61-4.18,6.39,6.39,0,0,1,3.2-1.3,9.29,9.29,0,0,1,4,.32,2.17,2.17,0,0,1,1.34,1.12,4.67,4.67,0,0,1,.56,2c0,.34.11.89.22,1.64.15,1.15.22,1.87.22,2.16a6.55,6.55,0,0,1-.17,1.52,2.44,2.44,0,0,1-.35.81,7.11,7.11,0,0,1-.82.71,2.12,2.12,0,0,1-1,.38,2,2,0,0,1-1.06-.08.71.71,0,0,1-.55-.56c0-.46-.08-.78-.08-1l0-1.55a4.66,4.66,0,0,0-.13-1.24,7.44,7.44,0,0,1-.18-.83,2.28,2.28,0,0,0-.29-.86.9.9,0,0,0-.54-.43,2.64,2.64,0,0,0-1.08,0,2.34,2.34,0,0,0-1.56.93,2.81,2.81,0,0,0-.43.95,10.11,10.11,0,0,0-.22,1.12q-.09.6-.18,1a6.33,6.33,0,0,0-.13,1.42c0,.56,0,1.05.05,1.45s.06.75.08,1l0,1.36c.06,1.57.09,2.81.09,3.73s0,1.54,0,2l0,1q0,.71.09,2.1l0,1.05c0,.47,0,1.13.09,2q.09,1.66.09,2.37c0,.35,0,.68,0,1s0,.58,0,.81a2.79,2.79,0,0,0,.32,1.31,3,3,0,0,0,.89,1,1,1,0,0,0,.65.15,1.69,1.69,0,0,0,.87-.52,5.43,5.43,0,0,0,.74-1,5.17,5.17,0,0,0,.56-2.42c0-.59,0-1,0-1.32a13.46,13.46,0,0,1,0-2.2,2,2,0,0,1,1.65-2,2.22,2.22,0,0,1,.9.07A5.51,5.51,0,0,0,109,35a.75.75,0,0,1,.56.24,1.31,1.31,0,0,1,.22.69q.18,2.18.18,3.27a15.66,15.66,0,0,1-.14,2l-.38,2.32a5.25,5.25,0,0,1-1,2.33,5.06,5.06,0,0,1-1.86,1.47,15.25,15.25,0,0,1-3.82,1.35,4.4,4.4,0,0,1-1.13.06ZM122,44.82c-1.24.33-2.06.15-2.47-.55a3.74,3.74,0,0,1-.22-1.59c0-.64,0-1.59.09-2.83.09-1,.13-2.11.13-3.19s0-1.76-.08-2.28c-.06-.69-.09-1.77-.09-3.23V28.07c0-1.76,0-3.06-.13-3.9-.09-1.22-.14-2.43-.14-3.63,0-1,0-2.38.09-4.15.06-1.54.09-2.64.09-3.32,0-.17,0-.38,0-.63s0-.55,0-.91A2.05,2.05,0,0,1,120,10a1.69,1.69,0,0,1,.57-.17,5.08,5.08,0,0,1,.73-.09c.7-.06,1.22-.12,1.57-.18l2.3-.44a6.39,6.39,0,0,1,4,.27,6,6,0,0,1,2.34,3,12.29,12.29,0,0,1,.82,4.83c0,.59,0,1.44-.09,2.56l0,1.29c0,.53-.05,1.34-.05,2.43s0,2.76.08,4.86l.05,4.18A31.78,31.78,0,0,1,132,37.3a27.7,27.7,0,0,1-.58,2.87,5.6,5.6,0,0,1-1,2,3.92,3.92,0,0,1-1.3,1.15,9.07,9.07,0,0,1-2.44.68c-.46.07-.82.12-1.08.14l-1.69.24a17.73,17.73,0,0,0-1.91.42Zm1.91-4,.74,0a6.3,6.3,0,0,0,.73-.06,2.21,2.21,0,0,0,.83-.31l.67-.45a2,2,0,0,0,.59-.54,3,3,0,0,0,.3-.82,10.64,10.64,0,0,0,.27-1.82c0-.64,0-1,0-1.18a14.51,14.51,0,0,1,.09-1.87,24.28,24.28,0,0,0,.18-3c0-1.2-.05-2.32-.14-3.36-.08-1.4-.11-2.56-.08-3.51.12-2.6.17-4.27.17-5a10.73,10.73,0,0,0-.34-3.2,1.66,1.66,0,0,1-.13-.5,3.52,3.52,0,0,1,0-.43,2.39,2.39,0,0,0-.3-1.1,3,3,0,0,0-3.86-.2,1.48,1.48,0,0,0-.35,1c0,.21,0,.43,0,.67a4.51,4.51,0,0,1,0,.72,10.55,10.55,0,0,0,0,1.63c.06.63.09,1.22.09,1.78s-.07,1.78-.22,3.56q-.12,1.47-.12,3l0,2.46q0,.83,0,2.46l.05,5.27-.05,2.6a8.79,8.79,0,0,0,.22,1.85c.09.28.25.41.48.41ZM142.29,6.07a8.21,8.21,0,0,0,1.52-.17,18.58,18.58,0,0,1,2.29-.31,1,1,0,0,1,.81.57,6.09,6.09,0,0,1,.5,1.63,1.65,1.65,0,0,1,0,.47,2.08,2.08,0,0,1-.15.78,1.48,1.48,0,0,1-.42.6,1,1,0,0,1-.51.18,3.31,3.31,0,0,1-.65.06,12.67,12.67,0,0,0-1.91.42,11.5,11.5,0,0,1-2.39.49,1.35,1.35,0,0,0-.8.25.69.69,0,0,0-.19.53c0,.5,0,.95-.05,1.33-.06,1.07-.08,2-.08,2.71a12.27,12.27,0,0,0,.21,2.69,5.09,5.09,0,0,1,.11.61.94.94,0,0,0,.28.64,1.24,1.24,0,0,0,.65.17,4.94,4.94,0,0,0,.92-.08,2.89,2.89,0,0,0,.6-.16,4.19,4.19,0,0,1,.48-.12,1.72,1.72,0,0,1,.78.05,1.39,1.39,0,0,1,.45.18,1.32,1.32,0,0,1,.33.42,2.37,2.37,0,0,1,.2,1.12c0,.47,0,.76,0,.88q0,1.27-2,1.62a5,5,0,0,1-.57.06l-.61.06a2.45,2.45,0,0,0-.56.18,4,4,0,0,0-.81.56,1.27,1.27,0,0,0-.15.75c0,.41,0,.73,0,1l0,1.39c0,.26,0,.73-.09,1.38,0,.24,0,.62,0,1.15l0,2.28a19.76,19.76,0,0,1-.34,3.93.59.59,0,0,0,.15.62.85.85,0,0,0,.72.11,2.58,2.58,0,0,0,.52-.13,6.5,6.5,0,0,1,1.21-.33,6.83,6.83,0,0,1,1.39-.11c.52,0,.91-.07,1.16-.11a1.94,1.94,0,0,1,1,0,1.89,1.89,0,0,1,.82.65,2.59,2.59,0,0,1,.13,1.39,3.25,3.25,0,0,1-.26.94,3,3,0,0,1-.56.87,2.24,2.24,0,0,1-1.7.64,9.89,9.89,0,0,0-1.6.14c-.46.08-1.16.23-2.08.45A20.06,20.06,0,0,1,139,42a9.93,9.93,0,0,1-1.57.14,2.36,2.36,0,0,1-1.17-.22A1,1,0,0,1,136,41q.3-3.14.3-6.12c0-.88,0-1.54,0-2Q136,29.35,136,21.7c0-.35,0-.77.05-1.27s0-.84.09-1.09,0-.77.08-1.26.05-1.06.05-1.7c0-.48,0-1-.05-1.56s-.06-1-.08-1.28a25.25,25.25,0,0,1-.14-2.62c0-.35,0-.92.09-1.69a2.76,2.76,0,0,1,.61-1.56,2.26,2.26,0,0,1,1.39-.76c.6-.11,1.34-.26,2.21-.46.69-.18,1.14-.29,1.34-.32a2.78,2.78,0,0,1,.61-.06Zm10.37,33.47a2.69,2.69,0,0,1-.52.17,2.51,2.51,0,0,1-1.14-.15,1,1,0,0,1-.6-.51,1.58,1.58,0,0,1-.18-.85q.09-1.17.09-1.77l0-2.12q-.09-1.38-.09-2.13a19.63,19.63,0,0,1,.13-2.18,15.51,15.51,0,0,0,.13-2l0-2q-.09-1.31-.09-2c0-.53,0-1.14.07-1.82s.06-1.18.06-1.51.06-1.08.09-1.92,0-1.61,0-2.32c0-1.67-.07-3.26-.22-4.76-.08-.83-.13-1.68-.13-2.53,0-.44,0-1.07.09-1.9A2.62,2.62,0,0,1,151,5.54,5.49,5.49,0,0,1,153,4.42a9.47,9.47,0,0,1,1.7-.42l2.21-.33A10.63,10.63,0,0,1,158,3.38a2.35,2.35,0,0,1,1.17,0,3.91,3.91,0,0,1,2.19,1.29A6.25,6.25,0,0,1,162.59,7a30,30,0,0,1,.77,3.48,16.71,16.71,0,0,1-.16,7.14l-.44,1.93a13.08,13.08,0,0,1-.48,1.93,5,5,0,0,1-3.85,3.39,5.65,5.65,0,0,0-1.61.58,7.57,7.57,0,0,1-1.43.55,1.06,1.06,0,0,0-.61.32,1.21,1.21,0,0,0-.17.43,2.12,2.12,0,0,0-.05.32,21.24,21.24,0,0,0-.3,3.57,25.76,25.76,0,0,0,.13,2.66c.06,1.1.08,1.92.08,2.45,0,.32,0,.84-.08,1.56a3.16,3.16,0,0,1-.48,1.48,3.62,3.62,0,0,1-1.25.79Zm3.25-18.15a4.17,4.17,0,0,0,1.17-.4c.4-.2.67-.33.78-.37a1.37,1.37,0,0,0,.71-1,11.77,11.77,0,0,0,.29-1.63c.06-.57.1-1,.13-1.26a18.55,18.55,0,0,0,.17-2.63,27,27,0,0,0-.17-2.91,9.72,9.72,0,0,1-.13-1.51c0-1.18-.49-1.78-1.48-1.82a1.34,1.34,0,0,0-.43,0,4.48,4.48,0,0,0-.89.29c-.36.15-.66.26-.89.33a.7.7,0,0,0-.54.49,5.9,5.9,0,0,0-.16,1,12.5,12.5,0,0,0-.08,1.25l0,2.15c.06,1.16.09,2,.09,2.63s0,1.85-.13,4.07a1.48,1.48,0,0,0,.33,1.1,1.33,1.33,0,0,0,1.19.18ZM170.74,1.26c1.5-.15,2.65-.29,3.43-.42a24.12,24.12,0,0,0,2.94-.67l.53-.14a1,1,0,0,1,.83.13,1.61,1.61,0,0,1,.49.63,2.21,2.21,0,0,1,.2.92,2.33,2.33,0,0,1-.22.92,6.07,6.07,0,0,1-.78,1.4,1.69,1.69,0,0,1-1.08.54c-.7.12-1.25.24-1.65.35a1.5,1.5,0,0,0-.92.66,2.06,2.06,0,0,0-.21,1V7.2c0,.21,0,.55,0,1s0,1.17,0,2.08a29.66,29.66,0,0,1-.17,3.37,29.39,29.39,0,0,0-.17,3.24c0,1.26.06,2.53.17,3.8q.09,2.89.09,5,0,2.89-.09,7.22l0,1.86a1.29,1.29,0,0,1-.18.84,2,2,0,0,1-.78.42l-.58.21a3.34,3.34,0,0,1-.59.17,1.18,1.18,0,0,1-.65-.06,2.85,2.85,0,0,1-1-.61,2,2,0,0,1-.32-1A26.16,26.16,0,0,1,170,32c0-1.59.07-3.3.22-5.15,0-.47.06-1,.08-1.55s0-1.16,0-1.81V21.52c0-1.55,0-2.75,0-3.6V16.47l0-2.43c0-.5,0-1.24,0-2.21a25.55,25.55,0,0,0-.56-5.49,1.44,1.44,0,0,0,0-.27.27.27,0,0,0-.17-.24.68.68,0,0,0-.35,0,6.06,6.06,0,0,0-1,.12l-.88.15a4.36,4.36,0,0,1-1.28.05,1.32,1.32,0,0,1-.44-.22,1.35,1.35,0,0,1-.17-.52,3.67,3.67,0,0,1-.13-1,2.66,2.66,0,0,1,.48-1.53,5.7,5.7,0,0,1,.6-.8,1.45,1.45,0,0,1,.7-.25,12.37,12.37,0,0,1,1.3-.27l1.34-.23Zm15.27,30a2.48,2.48,0,0,1-.26,1.18,4.7,4.7,0,0,0-.18.47,1.51,1.51,0,0,1-.25.49,4.8,4.8,0,0,1-.87.88,4,4,0,0,1-1.39.42,1.44,1.44,0,0,1-1-.09,1.61,1.61,0,0,1-.91-.9,4.74,4.74,0,0,0-.3-.67,1.59,1.59,0,0,1-.18-.83,5.08,5.08,0,0,1,.07-.52,3.32,3.32,0,0,1,.17-.66,1.29,1.29,0,0,1,.33-.5c.11-.11.27-.29.48-.55a1.56,1.56,0,0,1,.65-.52,3.22,3.22,0,0,1,.95-.34,1.54,1.54,0,0,1,.68,0,2.76,2.76,0,0,1,.58.28,3,3,0,0,0,.52.28,1.75,1.75,0,0,1,.91,1.3Z"/></g></g></g></g></svg>