<svg xmlns="http://www.w3.org/2000/svg" viewBox="0 0 85.88 767.66"><defs><style>.cls-1{fill:#fff;}</style></defs><title>e1f33647-5e67-4aa3-a0ee-aa0bbea32e01mdpi</title><g id="Layer_2" data-name="Layer 2"><g id="Layer_1-2" data-name="Layer 1"><g id="e1f33647-5e67-4aa3-a0ee-aa0bbea32e01"><g id="e1f33647-5e67-4aa3-a0ee-aa0bbea32e01-child-0"><path class="cls-1" d="M0,383.92c22.4,8.75,40.13,61.25,42.94,127.91C40.13,578.48,22.4,631,0,639.75,22.4,648.48,40.13,701,42.94,767.66h0C45.87,701,63.48,648.48,85.88,639.75c-22.4-8.78-40-61.25-42.94-127.92,2.93-66.69,20.54-119.18,42.94-127.91-22.4-8.78-40-61.25-42.94-127.92h0C40.13,322.6,22.4,375.07,0,383.92Z"/></g><g id="e1f33647-5e67-4aa3-a0ee-aa0bbea32e01-child-1"><path class="cls-1" d="M42.94,0C40.13,66.69,22.4,119.19,0,127.94H0c22.4,8.78,40.13,61.25,42.94,127.91h0c2.93-66.69,20.54-119.16,42.94-127.91h0C63.48,119.19,45.87,66.69,42.94,0Z"/></g></g></g></g></svg>