<svg xmlns="http://www.w3.org/2000/svg" viewBox="0 0 216.14 319.89"><defs><style>.cls-1{fill:#fff;}</style></defs><title>ed2bec6b-cab2-4e32-be48-33518922ab58mdpi</title><g id="Layer_2" data-name="Layer 2"><g id="Layer_1-2" data-name="Layer 1"><g id="ed2bec6b-cab2-4e32-be48-33518922ab58"><g id="ed2bec6b-cab2-4e32-be48-33518922ab58-child-0"><path class="cls-1" d="M216.14,297.32v18.93a3.5,3.5,0,0,1-3.35,3.64H3.35A3.5,3.5,0,0,1,0,316.25V297.32a3.5,3.5,0,0,1,3.35-3.64H212.79A3.5,3.5,0,0,1,216.14,297.32Z"/></g><g id="ed2bec6b-cab2-4e32-be48-33518922ab58-child-1"><path class="cls-1" d="M216.14,263.82v16a3.5,3.5,0,0,1-3.35,3.64H3.35A3.5,3.5,0,0,1,0,279.84v-16a3.5,3.5,0,0,1,3.35-3.64H212.79A3.5,3.5,0,0,1,216.14,263.82Z"/></g><g id="ed2bec6b-cab2-4e32-be48-33518922ab58-child-2"><path class="cls-1" d="M216.14,236.87v8a3.51,3.51,0,0,1-3.35,3.65H3.35A3.51,3.51,0,0,1,0,244.88v-8a3.5,3.5,0,0,1,3.35-3.64H212.79A3.5,3.5,0,0,1,216.14,236.87Z"/></g><g id="ed2bec6b-cab2-4e32-be48-33518922ab58-child-3"><path class="cls-1" d="M216.14,212.25v9.19a3.5,3.5,0,0,1-3.35,3.64H3.35A3.5,3.5,0,0,1,0,221.44v-9.19a3.5,3.5,0,0,1,3.35-3.64H212.79A3.5,3.5,0,0,1,216.14,212.25Z"/></g><g id="ed2bec6b-cab2-4e32-be48-33518922ab58-child-4"><path class="cls-1" d="M216.14,174.39v15a3.5,3.5,0,0,1-3.35,3.64H3.35A3.5,3.5,0,0,1,0,189.4v-15a3.5,3.5,0,0,1,3.35-3.64H212.79A3.5,3.5,0,0,1,216.14,174.39Z"/></g><g id="ed2bec6b-cab2-4e32-be48-33518922ab58-child-5"><path class="cls-1" d="M216.14,149.85v7.51a3.5,3.5,0,0,1-3.35,3.64H3.35A3.5,3.5,0,0,1,0,157.36v-7.51a3.5,3.5,0,0,1,3.35-3.64H212.79A3.5,3.5,0,0,1,216.14,149.85Z"/></g><g id="ed2bec6b-cab2-4e32-be48-33518922ab58-child-6"><path class="cls-1" d="M216.14,123.77v9.33a3.5,3.5,0,0,1-3.35,3.64H3.35A3.5,3.5,0,0,1,0,133.1v-9.33a3.5,3.5,0,0,1,3.35-3.64H212.79A3.5,3.5,0,0,1,216.14,123.77Z"/></g><g id="ed2bec6b-cab2-4e32-be48-33518922ab58-child-7"><path class="cls-1" d="M216.14,85.77v7.51a3.5,3.5,0,0,1-3.35,3.64H3.35A3.5,3.5,0,0,1,0,93.28V85.77a3.5,3.5,0,0,1,3.35-3.64H212.79A3.5,3.5,0,0,1,216.14,85.77Z"/></g><g id="ed2bec6b-cab2-4e32-be48-33518922ab58-child-8"><path class="cls-1" d="M216.14,45.35V61a3.5,3.5,0,0,1-3.35,3.64H3.35A3.5,3.5,0,0,1,0,61V45.35a3.5,3.5,0,0,1,3.35-3.64H212.79A3.5,3.5,0,0,1,216.14,45.35Z"/></g><g id="ed2bec6b-cab2-4e32-be48-33518922ab58-child-9"><path class="cls-1" d="M216.14,3.64V26a3.5,3.5,0,0,1-3.35,3.64H3.35A3.5,3.5,0,0,1,0,26V3.64A3.5,3.5,0,0,1,3.35,0H212.79A3.5,3.5,0,0,1,216.14,3.64Z"/></g></g></g></g></svg>