<svg xmlns="http://www.w3.org/2000/svg" viewBox="0 0 163.6 72.77"><defs><style>.cls-1{fill:#eee;}</style></defs><title>f065f125-c373-425a-8d68-df151d506e13mdpi</title><g id="Layer_2" data-name="Layer 2"><g id="Layer_1-2" data-name="Layer 1"><g id="f065f125-c373-425a-8d68-df151d506e13"><g id="f065f125-c373-425a-8d68-df151d506e13-child-0"><path class="cls-1" d="M121,35.33c-13.11,0-22.44-2.88-24.36-7.5-1.18-2.82.87-5.76,2.82-7.72h0s0-.06,0-.06h0L118,1.49,116.52,0,98.05,18.56h0C88.85,27.8,64,35.33,42.58,35.33H0v2.11H42.58c13.11,0,22.44,2.88,24.36,7.5,1.18,2.85-.9,5.82-2.88,7.77h0L45.59,71.28l1.48,1.49L65.54,54.2C74.75,45,99.63,37.44,121,37.44H163.6V35.33Z"/></g></g></g></g></svg>