<svg xmlns="http://www.w3.org/2000/svg" viewBox="0 0 3790.1 2312.63"><defs><style>.cls-1{fill:#f0cb97;fill-rule:evenodd;}</style></defs><title>f6ad206d-2f95-418f-a3a0-9783554e3f3fmore fire</title><g id="Layer_2" data-name="Layer 2"><g id="Layer_1-2" data-name="Layer 1"><g id="f6ad206d-2f95-418f-a3a0-9783554e3f3f"><g id="f6ad206d-2f95-418f-a3a0-9783554e3f3f-child-0"><path class="cls-1" d="M2516.17,35.35c14.54.55,1.63,10.8,0,12.78C2501.64,47.92,2514.42,37.33,2516.17,35.35Zm11.66,47.83c12.53.41,22.05-14.69,23.3-22.35.75-4.64,4.64-14.07-5.76-15.91C2538.1,56.94,2525.7,66.1,2527.83,83.18Zm-519.5,6.35c.75-3.76,10.27-7.24,0-9.57C2007.45,83.72,1997.8,87.21,2008.33,89.53ZM717.72,137.36c11.28-9.57,23.56-41-5.88-44.62-6.14,10.8-13.16,38.4,6.26,44.55ZM2352.28,131c18,2.12,24.31-18.24,11.78-22.34-4.26,7-12,12.37-11.41,22.27ZM1033.36,251.86v85.95c0,3.35,7.52,2.46,5.76-3.21V283.7c3-18.58-4-34.16,0-50.9,2.13-8.68,11-17.08,11.66-25.48,2-25.42-12.53-51.38-5.77-82.81,0-3.35-2.76-8.06-5.89-3.14C1044.89,170.9,1014.94,201.37,1033.36,251.86Zm998.27-111.43h11.66v-6.35h-11.66ZM2481,181.83c15.41,1,15-6.83,17.54-12.77C2479.71,166.26,2490.36,179.44,2481,181.83ZM2037.4,226.38c39.59.48,32.83-36.14,17.54-47.83C2050.18,196.8,2028.5,209.64,2037.4,226.38ZM700.56,194.54h11.65v-6.35H700.56Zm1617.51,44.68c4.14-2.39,14.54-15.64-5.89-12.77C2312.81,231.16,2309.8,238.13,2318.07,239.22Zm116.66,12.71c2.13-5.53,17.66-19.68,5.89-22.27-6.77,3.07-22.31,17.28-6.27,22.2Zm297.84,3.14c3.88-6.35,20-13.66,0-15.85,3.13,5.54-17.55,13.12-.38,15.79Zm-268.65,12.78c3.26,8.61,16-20.5,5.89-19.13-7,3.69-7,11-6.26,19.06Zm-303.48,28.63c1.51-4.37-3.63-12.44-5.89-6.36-1.88,4.24,3.26,12.37,5.52,6.29Zm1097.39,76.31c33.58,2.67,33.83-21.11,17.54-28.62C3265.85,351.89,3253.32,357.76,3257.83,372.79ZM2247.9,369.65c-1,1.16-10.65,1.64-11.78,3.14-6.26,9.43-1.75,20.5-5.76,31.84-4.89,14.08-24.18,27.95-11.65,38.19,6.26-31.56,56.13-56.29,40.85-88.81-12.16,4.5-7.15,9.83-11.91,15.64Zm893.15,22.27c30.45,1.71,29.7-13.66,29.19-28.62-1.25-2.53-4.88-3.76-11.65-3.21-15.41,7-30.45,18.85-17.79,31.83Zm-723.87,41.41c-3.38-8.54,17.3-19.95,0-25.49,6.52,10.32-18.16,19.54-.25,25.49Zm776.87-3.21c12.53,1.91,12.53-4.72,17.54-6.36,3-.95,20.93-1.71,23.31-3.21,4.89-3-2.63-11.82,5.89-12.71-24.18,3.15-48.37,5.81-47.49,22.28Zm-17.54,12.7c10.15-5.12,14.53-13.25,11.78-25.41-26.94.27-27.44,18.65-12.53,25.41Zm116.78-6.35h11.65v-6.35h-11.65ZM2341.75,465.1c3.39-1.92,13.66-15.1,0-15.85,2.76,5.6-17.79,13.18-.75,15.85Zm-420.26,3.21c1.51-7.24-1.5-12-11.78-12.71-9.89,4.71-7.26,14.21,11,12.71Zm1347.74,76.38c-8.64,32.87-22.3,69.62-35.08,98.66-8.52,19.61-15.16,39.56-23.31,60.53-5,13-11.9,25.08-17.54,38.2-8.9,21-13.28,44.75-23.31,57.32-11.77,14.69-28.57,27.33-35,41.33-10,5.95-26.68,6-35.08,9.57-19.67,10.52-33.83,23.71-40.85,38.19-6.39,23.71,7.9,54.66,40.85,57.32,42.6,3.35,99.49-47.82,99.24-66.89,0-11.06-22.18-22.75-23.43-35a65.07,65.07,0,0,1,5.89-15.92c8-17.69,5.63-37.57,11.65-54.11A143.28,143.28,0,0,1,3205,761.14a71.42,71.42,0,0,0,5.89-15.85c9.4-22.55,13.41-44.14,23.31-63.68a230.31,230.31,0,0,0,17.54-28.7c3-9.63-1.5-18.78,0-28.62,4-25.35,25.06-55.75,29.19-79.6,1.88-11.07-2.88-21.59,0-31.84,5.64-19.74,27.2-35.73,23.31-54.11-1.25-2.46-4.76-3.69-11.65-3.14C3273.62,482.66,3277.25,514.08,3269.23,544.69ZM3140.8,528.77c41.47-6.83,61.52-39.28,46.74-66.82C3127.89,459.77,3105,508.07,3140.8,528.77ZM2119,614.45c53.63-3.62,42.35-42.22,46.61-73.17,1.13-8.07,16-10.94,0-15.92-7.39,34.23-48,50.08-46.36,89.64Zm630.51-66.82c11.78-8.54,5.39-12.09,11.66-19.13-19.18-1-32.33,17.42-11.41,19.4Zm-566.36,9.57c-5.51-6,17.54-10.66,0-12.78-1.38,2.25-14.28,12.5.25,13.05ZM2481,624.29c43.23,0,49-20,58.39-38.19-25.06-6.84,5.89-26-23.3-31.84C2492.24,569.77,2454.9,601.33,2481,624.29ZM2165.7,652.91c5.52-14.75,3.89-31.63,11.66-44.54,6.64-10.86,33.83-22.62,11.78-35,1.75,29.51-47.74,48.44-23.31,79.52Zm426-63.6h11.78v-6.43h-11.78Zm379.54,15.92c24.18,3,35.83-23.64,5.88-22.35-8.64,4.79-18.29,15.51-5.63,22.35Zm-689.16,25.41c-6.27-8.13,17.79-15.17,0-19.06-4,2.19-12.53,17.7.5,19.06Zm893.15-6.35H3187v-6.36h-11.77ZM2849,656c17.42,6.83,32.08-9.16,46.61-15.92,9.53-4.37,29-3.07,23.31-12.71C2886.19,631.87,2856.87,638.43,2849,656Zm502-3.21h11.65v-6.36h-11.65ZM2364.43,691v6.35c14.29,5,17-10.79,5.77-9.49-.38,2.32-.88,3.89-5.77,3.28Zm461.11,22.34c15.41,1,19.17-4.44,17.54-12.77-15.41-.82-19.17,4.57-17.54,12.91Zm449.58,9.5C3268,738,3235.4,739.41,3240,761c33.33-4.1,50.74-16.88,52.5-38.19Zm-776.87,15.92c3.51-2.94,13.66-11.69-5.89-9.57,1.13,3.9-.62,9.23,6.27,9.7Zm-548.69,15.92c17.79,3.14,28.69-23.44,5.76-22.28-7.64,4.24-5.38,14-5.38,22.41Zm-57.51-3c27.56,5.33,32.07-18.38,5.76-15.92C1891.92,740.37,1889.92,746.11,1892.05,751.64Zm683,9.5c1-4.31-4-8.34-11.65-9.5-8.9,4.65-9.15,12.3,11.15,9.5Zm-216,6.42c17.05,4.65,17.05-14.28,0-9.57Zm525.39,12.71c-.12-3.49,2-6.84,5.89-9.57h-11.78c-7,4.58-6.76,7.79,5.39,9.57Zm-572.12,9.56c18,1.23,23.8-15.37,5.89-15.92-6,4.58-8.4,10.39-6.39,15.92Zm566.23,41c43.61-4.1,72.05-40.59,40.85-57.26-23.43,12.71-54.5,36-41.35,57.6Zm-402.71-6.36c-3.64,12.09,6.89,25.69,5.76,35-3.13-5.67,10.52-9.43,17.54-15.85,12.53-11.75,36.84-51.1,5.89-54.11-7.89,11.14-25.56,21.45-29.7,35.32Zm198.47-15.92c18.42,4.72,28.07-18.31,5.77-15.85-6.14,4.65-8.4,10.52-6.27,16.19Zm408.61-3.14h11.65v-5.94h-12.15Zm-449.46,6.35h11.66v-6.35h-11.66Zm221.79,6.36c3.63-2.94,13.53-11.75-5.77-9.57.38,4.1-1.63,9.43,5.27,9.91Zm-957.43,12.71h11.65c0-4,7.52-4.38,5.89-9.5H1903.7c-.88,4.37-8,4.71-6.39,9.84Zm169.28,28.62c6.77-8.13,11-34.16,5.89-38.12-6.39,11.55-28.69,30.81-6.39,38.46Zm58.39-35v6.36c14.41,5,17.17-10.8,5.89-9.5-1.25,2.25-1.25,4.1-6.39,3.48Zm-269,22.82h11.65v-6.83h-11.65Zm123.17,22.27V856.79h-17.41c-2.26,8.2-2.64,15.78,16.79,12.64Zm-221.78,6.36c-31.58-26.51-72,9.36-81.7,22.27s-17,11.41-23.43,22.27c-3.51,4-3.51,8.68,0,12.71,31.2-4.23,27.32,10.66,58.39,6.42-3.88-19.19,20.43-22.88,40.85-28.69,0,14.07,35.71,10.25,17.54,25.48,31.83.48,15.54-29.44,5.89-35,13.53-3.28,12.53-14.69,11.65-25.48-8.27-4.37-21.42-4.44-29.82-.14Zm192.71,6.35c7.9-4,8.9-15.58-5.89-15.92-8.52,3.9-9.64,15.44,5.27,15.79Zm507.85-15.92c-25.06,11.48-24.18,22.69-35.09,44.55a178,178,0,0,0-17.54,32c-3,20.5,14.29,47.35,5.89,66.89-3.76,8.88-15.91,10.18-17.54,19.06,23-5.05,2.13,13.67,17.54,12.71,2.26-26.92,10.15-53.63,23.31-79.6,8.77-14.62,18.29-25.34,23.43-38.12,8.14-20.5,19.8-31.84,23.3-47.83-11.77-1.43-5.26-12.63-23.93-9.83Zm-607.21,9.57H1863v-6.36H1851.2Zm29.19,6.35c4.14-2.32,14.66-15.58-5.76-12.71.38,4.58-2.76,11.89,4.89,12.58Zm-321-3.21v6.35c3.51,0,6.89.55,5.77,3.22h11.77c0-1.92.76-3.76,5.77-3.22v-6.35c-3.51,0-6.89-.48-5.77-3.14h-11.77c-.88,1.77-1.38,3.62-6.39,3Zm-18.17,22.21c1.38-2.53,0-6.36,5.89-6.43.88-7.92-9-10-17.54-12.7C1512.38,884.73,1512.13,905.77,1541.2,901.27Zm2235.88-3.22c16.29,5.13,16.16-13.66,5.89-12.77C3781.09,889.58,3774.7,891.36,3777.08,898.05ZM1874,891.7c-5.89,9.57,12.53,5.6,23.31,6.35v-9.77A53.87,53.87,0,0,0,1874,891.7Zm922.35,6.35H2808V891.7h-11.65Zm846.53,28.63c15.29.89,25.06-1.16,23.31-9.56C3650.9,916.23,3641.13,918.28,3642.88,926.68Zm-64.28,3.21h11.78v-6.35H3578.6ZM1587.94,968.08c1.25-2.45,4.89-3.68,11.65-3.21,0-8.4,2.26-18.17-5.88-22.27C1562.88,945.2,1567.39,960.91,1587.94,968.08Zm321-6.42c0-5,.75-11-11.65-9.49C1896.31,956.47,1901.32,960.5,1909,961.66Zm-414.49,25.49c21-4.44,41.6-9.09,46.73-22.28C1510.51,964.12,1508.75,979,1494.47,987.15Zm2113.33,9.56c21.8,7.93,58.51,1.37,52.62-15.92C3638,978,3615.31,984.82,3607.8,996.71Zm-1722.14,12.78c5.38-7.65,23.43-8.47,17.54-22.34C1875.76,982.71,1862.35,1005.66,1885.66,1009.49Zm-362,0c0-6.36,15.92-4.1,11.78-12.78-7.89-1-11.28-4.51-23.43-3.14C1511.13,1001.43,1510.88,1009,1523.66,1009.49Zm227.67,6.35c23.94,3.69,23.44-22.13,5.89-22.27C1748.33,998,1738.8,1009,1751.33,1015.84Zm601.45-9.56h17.54v-9.57h-11.65c-.5,4.1-7.64,4.44-6,9.57Zm805.69-6.36v6.36c14.41,4.92,17.16-10.8,5.76-9.57-.38,2-.88,3.76-5.89,3.21Zm-2913.13,9.57H257v-6.42H245.34Zm1763.11,35c0-7.58,29.82-15.17,11.65-22.27-5.38,7-37.33,17.69-11.77,22.27Zm-338.31-6.36h11.65v-6.35h-11.65Zm554.58,9.57h11.65c0-3.21,4.77-3.83,5.89-6.42-7.51,0-8.14-4-17.54-3.15Zm-1237.6,12.71h17.54c18.55-2.67-10.4-4.17-17.54-3.21-13.4-3.28-20.67-9.91-40.85-9.5-4,7.38-19.42,8.47-23.43,15.85,27.69-1,29.45-2.46,63.78-3.14Zm146,0a140.52,140.52,0,0,0,58.39,3.14c15.41,6.83,62.65,12.37,81.69,6.42-34.2-1.5-46.11-15.16-87.71-12.77-10.27-2.87-17-7.66-29.19-9.5-7,4.58-17.17,7.79-23.68,12.71Zm309.37-3.21c-.76,4.71,3.76,9.22,11.52,11.34s17.17,1.36,23.56-1.78c0-4.58-4.76-8.81-12.28-10.86a38,38,0,0,0-23.3,1.3Zm-344.46,0h-17.54c-6.76.54-16.54-.48-17.42,3.21,9.65-1.85,33.71,3.82,34.46-3.21Zm712.22,28.69c21.55,5.06,27.31-24.25,5.88-22.34-8.52,4.17-6.26,13.87-6.39,22.34Zm-1027.47,0c16.54,2.6,15.16-4.51,29.19-3.21-4-6.63-12.28-12.3-23.3-15.92-6.27,1.71-10.66,4.92-11.91,8.68s.75,7.65,5.51,10.45Zm747.29,0h11.15v-6.28h-11.65Zm811.45,0h11.66v-6.28H2341.5Zm-637.4,9.5a54.73,54.73,0,0,0,23.43-3.14c1.75-8.41-8.15-10.46-23.43-9.57Zm1068.44-3.14c-7.52,0-8.15-4.1-17.54-3.21-8.52,7.85,20.29,9.36,18,3.21Zm0,12.7h11.65v-6.35h-11.65ZM2481,1140c6.77-4,11.78-25.07,0-28.69C2470.94,1118,2462,1134.65,2481,1140Zm-2078.12-19.4c-7.51,0-8.14-4-17.54-3.21C375.9,1125.5,405.22,1127.41,402.84,1120.58Zm478.65,15.92h11.78c0-3.21,4.64-3.76,5.77-6.36-7.4,0-8-4.09-17.55-3.21Zm1611.25,12.71c13.41.89,22.05-.75,23.43-6.36-8.64-4.71-26.06-3.21-23.43,6.63ZM70,1159.05H81.7v-6.36H70Zm2527.83,19.13c-11.53,0-7.39-8.68-23.31-6.36C2570.18,1178.86,2596,1184.94,2597.87,1178.18Zm309.37,3.14h12.28v-6.08H2907ZM216,1197.31c6.14-10.59,17.29-13.67-5.89-19.13C202.11,1182.07,200.48,1197.17,216,1197.31Zm2405.78-3.22h11.78v-6.35H2621.8Zm-1600.22,29v6.36c14.41,5,17.17-10.8,5.89-9.5C1027.47,1221.49,1026.59,1223.06,1021.58,1223.06Zm1021.71,6.36c3.5-2.94,13.53-11.75-5.89-9.5.87,3.14-1,8.68,5.89,9.16Zm689.15-6.36v6.36c14.29,5,17.17-10.8,5.77-9.5-.51,1.57-1.13,3.14-6,3.14Zm-29.19,9.57c13.28.89,21.92-.75,23.3-6.36-15-2-22.93-5.8-23.55,6ZM169.53,1251.76h11.66v-6.42H169.53Zm-35,28.63c26.19,1.57,19.17-16.68,0-15.92-7.26,4.44-7.39,11.06-.25,15.57Zm2217.83-3.22c10.65,5.81,26.19,8.2,40.85,6.36,1.38-2.46,0-6.22,5.89-6.36,0-11.54-17.17-13.66-40.85-12.7,1.51,5.67-6.39,6.42-5.64,12.36Zm-1155.9,6.36v6.35c14.41,5,17.17-10.79,5.89-9.49.5,1.57-.63,3.41-5.64,2.8Zm1121.57,63.33c-4-23.43,21.55-47.82,5.76-66.82C2327.84,1303.68,2300.28,1326.78,2318.07,1346.86ZM70,1286.4c-1.75,8.4,8.15,10.45,23.31,9.56,1.75-8.33-2.13-13.66-17.42-12.77C75.18,1285.17,75.18,1287,70,1286.4Zm2580.45,31.84c-2,2.87-.37,6.08,4.14,7.92a20.45,20.45,0,0,0,15,0c4.51-1.84,6.14-5.05,4.13-7.92C2657.89,1318.71,2662,1312.91,2650.49,1318.24ZM40.85,1350.07H52.5v-6.42H40.85Zm2271,15.92c.87-2.25-2-18.51-5.77-9.56C2300.78,1368.52,2309.17,1372.35,2311.81,1366ZM2271,1467.79c16.91,3.21,27.31,11.69,40.85,0-8.4-6.83-14.16,4-17.55-3.14-3-28.22,17.8-60.26,5.89-82.74C2286.5,1407.12,2301.53,1460.48,2271,1467.79Zm-1097.51-73.17c3.5-3,13.53-11.75-5.89-9.56C1168.56,1388.81,1166.55,1393.87,1173.45,1394.62ZM0,1400.7c7.77,4.17,21.68,4.24,23.31-3.14C15.54,1393.87,1.63,1393.87,0,1400.7Zm1459.51,28.7c9.27-4.79,8.52-18.18-11.66-16-5.63,2.53-7.76,6.76-5.13,10.45s9.52,6.08,16.79,5.81Zm-303.61,60.46c2.38-5.4,19.42-28.56,0-25.48,6.77,10.66-17.79,19.88,0,25.75Zm1255.14,35c-11.77-15.44,28.2-25.76,11.66-44.54-53.26-3.15-48.74,40.44-11.66,44.82Zm-134.19-12.71c17.54,4.92,15.28-16.46,5.76-15.91,2.38,7.92-10.65,7-5.76,16.19Zm-1249.38,6.63h11.65v-6.35h-11.65Zm1226,19.13c1-4.3-3.89-8.4-11.66-9.56C2233.37,1533,2233.12,1540.62,2253.42,1537.89Zm-910.69,44.55c0-8.47,3.25-18.72-11.66-19.06C1318,1568.23,1311.28,1585.79,1342.73,1582.44Zm840.64,3.21H2195v-6.42h-11.66Zm-338.31,19.06c21.43,3.08,23.18-15.64,5.76-15.92,2.13,7.65-10.9,6.9-6,15.92Zm432-6.35h11.65V1592H2277.1ZM1092,1607.92c-8.4-.82-9.9-5.26-17.54-6.42-5.39,6.56,14.91,14.35,17.29,6.42ZM2265.32,1627c3.26,8.61,15.91-20.49,5.89-19.06-7,3.76-6.89,11.41-6.14,19.06Zm-1734-3.14c27.06,3.83,28.06-12.71,5.76-12.78C535.29,1615.37,528.77,1617.15,531.28,1623.84ZM1844.81,1627c1.5-4.3-3.64-12.43-5.89-6.35C1837.42,1625,1842.55,1633,1844.81,1627ZM508,1636.55c15.29-2.53-3.88-17.9-11.78-6.36C494.81,1632.18,505.09,1637,508,1636.55Zm449.46,12.71c14.53,10.38,42.35-8.68,23.3-15.92C983.61,1644.47,966.2,1644.47,957.43,1649.26Zm1401.11,0c1-4.31-4-8.34-11.65-9.5C2338.5,1644.41,2338.24,1652.06,2358.54,1649.26Zm105-3.15h11.77v-6.28h-11.77ZM817.34,1658.82c1.75-8.4-12.53-8.2-23.31-9.56C789.4,1659.57,813.08,1653.49,817.34,1658.82ZM2265.07,1662h11.78c0-3.21,4.63-3.82,5.76-6.35-7.52,0-8-4.1-17.54-3.21Zm-350.84,3.15h11.65v-6.36h-11.65Zm40.84,3.21h12.16c0-4.1,7.52-4.44,5.89-9.57h-17.55Zm-975,0c10.4-1.92,24.3,9.29,29.19,0-3.51,0-6.89-.48-5.76-3.21,4.51-.69,11.52,0,11.65-3.15-21.43,3.62-25.31-3.07-34.46,6.36Zm11.77,9.49c22.31,6.15,21.18,4,40.85,0,12.53-2.46,25.06,1,23.31-6.35-20.8-5.53-41.1,3.14-63.53,6.35Zm1021.58,0c3.64-2.93,13.54-11.68-5.76-9.49,1.5,3.69-.38,9,6.39,9.49ZM799.17,1697c-4.64,11,6.52,13.67,11.65,19.13,24.94-1.09,44.74-11.88,46.74-25.48-27.31-3.62-31.57,2.73-57.76,6.35Zm-162.89,15.92c10.4,2.8,14.91,8.88,35.08,6.36C699.68,1696.19,630.52,1682.32,636.28,1712.93ZM1909,1703.37h11.78c0-4,7.39-4.37,5.76-9.5H1909Zm-29.44,22.27c1.88-4.3,8.39-6,5.89-12.71H1862.1C1860.6,1721.27,1864.48,1726.67,1879.52,1725.64Zm-1290.6-9.5c-12,8.13-14.29,19.27-5.89,28.63,51.75,9.43,56.63-35.18,6.64-28.63Zm1196.75,9.5h11.65c6.52-4.51,6.26-7.72-5.89-9.5.38,4-6.64,4.38-5,9.5Zm250.6-3.14h11.65v-6.36h-11.65ZM490.43,1748c3.51-3,13.53-11.75-5.89-9.56C485.42,1742.31,483.54,1747.44,490.43,1748ZM2025.74,1767h11.66v-6.35h-11.66Zm-788.14,38.2v-9.5h-17.42C1219.05,1802.64,1224.94,1805.85,1237.6,1805.24Zm17.54,12.77c1.76-8.4-8-10.45-23.3-9.56C1227.07,1819.86,1244.24,1824.3,1255.14,1818Zm180.94,60.47c11.65-13.67,38.34-20,41-31.84,1.75-12-6.89-23.84-23.43-31.84,1.13.55-9.9-6.83-5.77-6.35-34.95-4.51-45.23,11-46.73,41.4,7.52,8.61,28.32,10,35,19.06-17.3,8.61-48.37,9.7-58.39,22.28,2.75,14.48,25.93,17.69,58.39,15.91C1427.05,1892.62,1429.81,1885.79,1436.08,1878.48Zm636.4-57.32h11.65v-6.36h-11.65Zm-723.86,6.42h17.16V1818h-17.41Zm169.28,35c7.89,1,11.15,4.51,23.3,3.21,2.64-3.35,2.26-7.24-1.25-10.45s-9.52-5.2-16.29-5.47C1525,1855.86,1517.15,1856.82,1517.9,1862.56Zm-858.19,0c5.89,0,6.89,2.59,11.65,3.21,0-3.21,4.76-3.83,5.77-6.35-5.77,0-6.89-2.6-11.66-3.22C665.6,1859.42,660.84,1860,659.71,1862.56Zm706.07,156c14.16,5,25.06,11.89,52.63,9.56C1469.28,1995.1,1346.61,1960.94,1365.78,2018.54Zm64.28,54.11c-2.38-10.25,5.77-17.15,0-25.48.75,1.16-6.39-3.49-5.89-3.15-4.13-2.39-1.75-3.41-5.76-6.35-17.79-13.67-67-1.37-75.93,12.71-2.51,4,3.25,15.1,5.89,25.41,6,24,20.29,40.38,46.61,41.41,14,.54,25.06-5.4,46.73-12.71,7.77-11.34-9-21.32-11.4-31.84Zm-162.89,92c18.29,1.5,26.06-2.73,23.43-12.71-6.64-3.55-17.29-3.55-23.93,0s-6.52,9.5.12,13Zm-5.76,38.19c-1.76,8.41,8,10.46,23.3,9.57v-12.3a55.07,55.07,0,0,0-23.68,3.07Zm58.26,98.66c0,14.89,29.07,14.89,29.32,0-8.64-4-21.42-3.89-29.69.34ZM2107.82,261.09c1.37,2.46,0,6.21,5.88,6.35,0,1.78,4.77,3.62,5.89,0-11.77-9.36-5.26-9-17.54-15.92,6,3.42-22.3.55-11.65-6.42-19.3,0-22.43,9.09-23.43,19.13,12.15,7.24,32.2,2.32,40.47-2.8Zm52.62,70c-3.51,19.06,10.9,27.8,5.77,35-2.26,3.21,5.76,5.6,5.89,6.35,3,23.85,14.78,37.58,17.54,54.11,1.25,7.45-5.89,15.17-5.89,22.34,0,19.41,16.54,37.92,11.65,57.26,1.88,5.12,8.4,0,5.89-6.36,0-6.83-.63-13,0-19.13,1-10.65,11.4-22.47,11.65-31.77a120.6,120.6,0,0,1-11.65-3.21c-1.63-3,6-4,5.76-6.35.13-7.86-4-15.58-11.65-22.27-12.9-13.8-19-29.18-17.54-44.62,1.25-10.38,21.93-22.41,23.43-35s3-25.69-23.43-35.05a109,109,0,0,0-17.79,29Zm232.81,19.4c1.25-6.83,14.29-23.71,5.89-25.48C2396.76,331.32,2377.71,344.78,2393.25,350.52ZM1132.6,1311.88c-1.38-1.84-9.53-3.41-11.78-6.42-6.14-8.47-2.26-22.68-5.77-35-8.14-28.08-23.8-60.12-23.3-82.74,6.89.41,13.16,5.67,17.42,0-3.51-9.09-13.29-16.53-17.42-25.48a74.62,74.62,0,0,0-5.89-9.57c0-3.76,8.77-4.78,5.89-9.56-2.13-3.35-10.15-2.87-11.78-9.5-1.88-8.27,2.88-17.29,0-25.48s-12.53-15.45-17.42-25.49c-9.77-22.82-11.15-52.88-17.54-73.17-3-9.5-12.53-18.45-11.65-25.49,0-17.42,18.17-27.33,23.3-35,12.53-19,0-54,0-66.81,0-6.43,7.65-10.87,5.89-15.92a54.59,54.59,0,0,0-11.77-19.07c-37.6-21.31-18.93-56.22-17.42-82.8,0-8.47-6.14-17-5.89-25.49,0-10.86,11.53-20.49,11.65-31.83s-10.27-26.1-11.65-38.2c0-3.89,5.89-4.51,5.89-9.56s-7.64-5.67-5.89-12.71,10.9-12.57,11.65-19.06c0-4.24-6.76-6-5.76-12.78,5.76-42-11.15-91.55,0-136.64,2.25-9.43,11-16.67,11.65-25.49a83.42,83.42,0,0,0-5.89-19.06c-3.51-18,5-36.21,5.89-54.11,0-12.16-10.15-25.21,0-35.05-15.29-.82-14.28,9.57-17.54,15.92-4,7.79,1,19.27-11.65,22.27a83.33,83.33,0,0,1,11.65,22.07c2.38,15.1-11.15,21.52-11.65,28.7,0,5.53,5,13.66,5.76,19.06,2.76,19.27,4.39,38.19,5.89,47.82,6.51,39.29-9.65,72.43-11.65,95.66-2.89,32.11,4.13,63.88,0,92.3,0,4.1-5.39,4.37-5.89,9.5-3,36.68,0,78.29-11.66,105.08,0,1-10.77,4.91-11.65,6.35-4.26,6.83,0,18.45-5.89,25.48-2,2.74-14.78,5.74-17.54,9.57-1.88,2.8,3.76,14.69,0,19.06-.63.89-10.27-.68-11.65,0-6.39,3.55,5.38,19.06,5.89,22.27,2.63,17.15-4,37.24,0,51,4.38,12.78,14.41,24.87,29.19,35,2.51,2,4,4.85,5.89,6.35,19.17,16.54,33,34.78,40.85,53.91a182.58,182.58,0,0,1,11.65,60.47c-3.63-1.85-27.69-7.45-29.19,0,30.95,1.16,41.6,13.66,40.84,31.83-14.66-1.84-30.07.55-40.84,6.36-4.51,16.26,35.71,8.13,40.84,19.06,23.44,19.27,25.06,57.39,29.2,86,2.38,16,13.53,31.63,17.54,54,1.88,11.14,7,32.39,5.77,35-5.52,12.3-32.21,15.71-40.85,22.27-4.51,3.49,3.76,12.23-11.66,9.57-17.54-26.58,1.13-72.77-58.39-76.39-34.2,8-16.66,30.54-29.19,44.55-5.64,6.42-15.66,8.61-23.31,12.71-12.53,6.83-10.27,6.35-23.43,9.56-9.9,2.46-17,13.67-23.3,15.92,43.85-3.35,70-42.56,110.89-19.13,11.27-3.35,8.14-14.62,17.54-19.06,12.53,1.16,15,10.86,17.54,15.92a48.26,48.26,0,0,1,5.77,22.27c-4.39,10.87-75.19,43-87.72,44.55-23.55,3.28-49.24-5.74-69.91-3.14-17.8,2.18-28.57,11.4-35.09,15.91-26.31,18-51.62,38.26-40.85,63.68,51.13-5,78.94-22.68,99.24-44.61,22.31,1.7,20.8-5,29.2-9.5,11.65-6.42,20.3-11.41,29.19-16,6.39-3.28,18.8-3.89,23.31-6.35,9.27-4.92,13.28-13.32,23.3-19.06,9-6.08,21.31-10.53,35.09-12.78,11,24.8,9.77,51.86,17.54,76.45,10.53,28.77,28.19,56.57,52.5,82.74-3.51,16.94-45.11,27.33-23.3,47.83,43.35-3.56,3.76-32.73,29.19-44.55,34,17.56,57,41,105,50.9,8.27,14.69,25.06,16.12,46.74,22.27,9.77,2.87,11.28,10.25,29.2,6.43,27.44-24.26-16-14.76-29.2-19.13,1.38.47-6.64-6.84-5.89-6.36-2.63-2.25-2.5-4.58-5.76-6.35-39.6,1.64-43.23-3.83-64.16-12.78-5.13-2.12-12.53-4.1-17.54-6.35-14.78-5.81-18.29-12.3-29.19-19.13-17.17-10.66-41.23-23.71-41-38.2,46.36-6.49,89-15.16,146-15.91,21.55,20.15,44.86,41.88,70,63.67,38.47,33.14,72.55,71.47,146,79.6,13.53,29.92-40.47,28.15-46.74,47.82-9.52,30.27,50.12,37.17,58.39,70-5.14-8.13,6.89-6.83,11.65-9.56,2.13-1.1-1.62-5.06,0-6.36,11.91-10.11,31-17,52.63-19.13-2.38,29.31-25.06,45-29.19,66.89a34.61,34.61,0,0,0-17,3.42c-4.51,2.46-6.76,5.87-6.39,9.29,8.15,4.1,3.64,15,11.78,19.13-16.79-9.91-37.59,9-23.43,15.92,16.92,1.91,15.41-10.11,17.54-12.78.88-1,10.28-2,11.66-3.14s-1.26-4.85,0-6.42,10.27-2.12,11.77-3.15c14.66-10.45,8.65-13.66,5.77-22.27-6-18.31,7.77-21.93,17.54-31.84,6.89-6.83,10.28-13.11,17.54-19.13,18.42-15.3,51.38-27.74,58.39-41.33,12.53-24.26-2.63-55.62,5.77-82.81,1.38-4.3,9.77-6.35,11.65-9.56,6.39-10.18,1.13-25.49,5.89-35,2.51-5.06,14.91-8.82,17.54-12.71a57.61,57.61,0,0,0,5.77-19.13c4.76-24.6,6.76-35,23.3-50.9,9.27,22.95,36.09,37.3,35.09,60.46,0,8.82-11.53,21.52-17.55,31.84s-7.26,17.42-11.65,25.42c0,1.23-10.78,4.71-11.65,6.42-7.14,13.66-3.76,26.92-11.66,38.19-3.13,4.51-14.53,5.88-11.65,12.71-20.55-.55-19.17,10.73-35.08,12.71v31.83c6.89,4.79,22,5,29.19,9.57-13.28,20.5-18.29,41-29.19,57.32a38.67,38.67,0,0,1-5.77,9.5c-2.88,2.53-10.52,4-11.65,6.42,0-.75,6.27,3.62,5.76,6.36-1.62,8.95-13.4,20.15-17.54,28.62-6.64,13.67-8.27,28.36-17.54,41.41-3.88,5.53-12.53,7.24-17.42,12.7a66.2,66.2,0,0,0-11.78,15.92s6.9.55,5.89,3.21c-3.88,10.66-14.16,25.28-17.54,31.84-56.76,7.72-56.51,51.31-11.65,54.11,28.44,1.71,51.62-14.82,52.5-31.84.75-12.36-30.95-20.49-17.42-35,83.7,6.83,52.38-29.66,58.39-54,1.76-7.51,12.53-11.48,17.42-19.13,5.14-9,.88-19.33,5.89-28.69,4.26-7.93,18.17-14.08,23.31-22.28,3.75-5.87,2.88-12.91,5.88-19.06,16.67-34.16,34.34-62,52.51-92.37,12.53-20,24.43-36.69,35.08-54,2.88-4.72,8.4-8.41,11.65-12.78s-7.39-16,11.66-12.71c8.64,20.5,17.54,53.57,29.19,70,4.14,5.88,1.63,16.81,17.54,15.92,5.14-8.2-8.89-15.1-11.65-22.27s2.88-15,0-22.27c-5.39-13.67-26.31-25.83-29.19-41.41-3.89-9.63-1.88-19.67,5.76-28.62,9.27,0,4.64,8.06,17.54,6.35,14.16-6.08,10.53-21.86,29.2-25.48,50.12,9,65.4-9,64.28-25.49-.76-9.29-27.95-17.08-35.09-31.84-9-18.51-1.88-27.32,5.89-41.33,25.06,24.73,60.77,45.91,75.18,73.17,3.89,6.83,0,18.38,5.89,25.49.75,1,9.52,4.57,11.65,6.35,18.92,15.92,27.44,25.48,52.5,31.84,6.27,1.57,12.53,5.4,17.55,6.35,55.88,10.8,94.22-14.62,99.24-41.33,2.63-17.9-5.52-35.8-23.31-51-5.39-4.65-13.78-8-23.43-9.57-1.76-.41-3.64-5.53-5.77-6.35-19.29-7.24-54.75-2-75.93-6.35-29.07-6.08-106.5-52.89-105-60.47a81.88,81.88,0,0,0,11.65-6.42c7.27-6.83,9.53-13.67,29.2-12.71,2.88,10.18,22.3,17.08,35,28.7,9.39,8.54,9.9,13.66,17.54,19.06,12.53,8.74,52.75,29,70,31.84,13.78,2.25,42.48,8.19,52.5-3.22-19.79,6.15-27.81-.68-40.85-3.14-31.32-5.94-34.83-4.23-46.73-15.92a341.4,341.4,0,0,1-46.61-57.32c-11.66-5.26-27.19-8.54-29.2-19.06,11.15-7.72,3.63-25.62,5.76-38.26-7-4.58-23.3-4.24-23.3-12.71,17.67-6.83,11.28-18.65,17.54-28.63,9.27-15,20.8-28.83,29.2-44.61,6-11.14,10.14-24,17.54-35a112,112,0,0,1,17.41-12.71c6.77-12.09,3.39-26,11.66-38.19,18.67-1.91,18,5.94,29.19,0,2.63-14-11.4-13.67-17.41-15.92,13.53-11.34,12.53-24.53,17.41-38.26,1.76-4.31,9.15-7.72,11.78-12.71,6.64-13.19,11.78-31.43,17.42-38.19,13.41-15.17,23.3-31.29,29.19-47.83,9.53-24,24.06-45.29,35.09-66.82,9.65-18.92,14.16-39.35,23.3-57.32,3.89-7.65,28.82-22.27,11.66-31.84-25.06,55.48-55.14,107.88-81.7,162.41-17.92-4.58-26.19-1.44-40.85,3.14-10.65,9.77,4.89,16.6,5.89,19.13,1.88,5.33-23.05,7.92-5.89,9.5-4.13-5.13,27.57-5.13,23.31,0-5.89,4.64-7.9,10.38-5.77,15.91-16.66-1.57-8.39-16.6-35.08-12.7-10,8.06,8.9,12.36-11.65,12.7-12.53-.88,8.64-8.6-11.66-9.56-3.13,12.37,14.91,13.12,17.55,22.34,20.55,5.53,30.07-10.73,35-3.21-16.66,21.38-28.44,43.86-35,66.82-40.1,3.69-41.35,28.49-75.94,35,4.64-11-8.64-12.23-5.89-22.28-17.79,0-29.69-2.93-35-9.56,12.15-12.78,18.16-27,17.54-41.4h17.41c0-4.85-10.27-7.93-11.65-12.71-4.89-16.67,7.27-23.23,11.65-35.05,11.28-29.79,18.8-66.41,41-85.88h23.3c10.91,4.58.76,20.49,11.66,25.41,24.18.89,22.8-4.16,40.84,0,7.77-11.82-8.27-10.86-11.65-12.7-1.38-.76,7.65-15.85-11.65-19.07s-17.17,5.47-35.09,3.15c-28.19-30.13,20.43-59.44,23.44-92.31V863.07c-12.53-.47-2.76,11.35-5.89,15.92-11.16,19.47-22.56,40-29.2,54.11-3.51,7.38-1.75,16.4-5.76,22.35s-14,9.63-17.54,15.91c-3,5.27-2.89,10.87-5.89,15.85-6.77,11.62-16,35.94-23.31,44.62a279.7,279.7,0,0,0-35.08,50.9c-4.14,7.79-.63,17.83-5.77,22.27-3.13,2.6-10.27-1.16-11.65,3.21-1.13,3.15,6.14,12,5.76,15.92a109.37,109.37,0,0,1-11.65,35c-27.06,3.35-50.12-5.8-64.28,0,11.78-5.6,14.28-15.1,5.89-22.27,11-5.6,18.17-13.66,29.19-19.13-6.13-13-24.3-20.5-17.54-38.19,4-10.32,44.23-21.11,52.63-35,6.77-11.41-3.76-25.56,0-35,6.26-16.2,22.55-17.7,35-28.7-3.76-15.37,7.77-22.48,0-31.84,31-4.3,10.15-19.74,11.65-31.84,1.25-9.56,20.8-15.78,11.65-25.41,7.9-8,47.49-10,35.09-19.13-21,4.85-37.84,14-46.74,25.48-5.26,10.32,0,23.37-5.76,35-2.26,5-14.66,10.59-17.54,15.92s2.88,11.75,0,19.13c-5.14,12.92-26.32,31.5-29.2,44.55-2.26,10,4,21.93,0,28.63-11.65,19.33-56.76,30.67-58.39,47.82-.88,8.95,13.78,17.42,11.65,25.49-16.16,5.32-16.54,16.87-35,19.13-5.89.68-28.31-6.84-46.73-3.22,8.39-4.64,4.51-10.11-11.66-9.56-8,13.12-15.53,5.67-35.08,9.56-10.4,2.12-10.28,8-23.31,6.36-21.8-10.39-54-15.17-75.93-25.49,5.14-16.53-22.68-15.16-29.19-25.41-12.53,8.2-15.92,15-35,19.06-32.71,6.83-77.19-4.1-105.13,0-25.06-12.71-62.65-18.86-110.89-19.06-16-5.06-26.94-12.91-46.74-15.92-4,6.29-32.58-.82-35.08,6.35,15.16-5.39,19.54,4.44,29.19,6.36,6.89,1.36,16.54-1.37,23.43,0s6,5.81,11.66,6.35c0,0,8.77-4.64,17.54-3.14s18,7.45,29.19,9.5c7,1.36,16.29-1.17,23.31,0,2.25.41,8.64,5.87,11.65,6.42,18.55,3.28,39.47,4,58.39,6.35,2,0,14.66,6.15,17.54,6.36,8.27.61,22.68-5.26,29.2,0-12.53,5-10.28,17.76-23.43,22.27h-23.31c-11.78,12.64-30.82,21.38-70,19.13-11.28,6.83,13.28,9.91,11.65,15.92,0,1.16-15.54,5-17.54,6.35-7.27,5.06-6.14,10.25-11.65,12.71-13,6-29.57,9.36-46.62,9.57,1-4.51-1-9-5.88-12.71,13.9-8.75,37.59,6.15,52.5-3.21,9.9-24.46-37.59-17.77-46.62-31.84-7.51-8.27-12.53-9.57-5.88-19.06-28.82-2.33-17.17-26.79-64.28-19.13-13.16,14-13.16,30.54,0,44.54,14.28,12.44,43.85,9.84,58.39,19.13a75.05,75.05,0,0,0,5.89,38.19c-15.17,8.13-27.07,17.9-35.09,28.63-9,10.59-31.07,18.86-29.19,31.84-12.53,5.33-14.54,8.61-23.31,9.56,18.17,6.09-9.15,13.67-5.76,22.28-7.15-.34-3.64,4.64,0,0,5.76-9.91,22.93-16.54,42-16.06-26.44,0,2.51-9.63-5.89-19.06,7.52,0,8,4,17.54,3.14-9.27-11.34,15-26.57,23.31-31.84s14.16-20.49,29.2-19.06c-3.89,14.83,9.27,20.5,11.65,31.77-8.4,1.78-30.2-3.69-29.2,3.21,9.4,3.56,14,9.84,11.78,15.92-9.77,5.61-19.55-2.8-41,0,8.64,13.19-2.88,30.61,5.89,41.41.75,1,10.27,2.11,11.65,3.14,4.26,3.14.88,6.83,5.89,9.56,2,1,9.15-.61,11.65,0,13.66,3.56,4.39,7.31,23.31,3.21,16-3.48,12.53,0,23.43,0a158.83,158.83,0,0,1,17.42-3.21c23.18-2.87,42-21.31,70.17-15.92,8.77,19,9.27,5.47,0,19.13a172.68,172.68,0,0,1,23.3,15.92c7.52,7.72,14,13,5.77,22.28a208.62,208.62,0,0,0-35-6.36c-19.17,25.56-87.71,24.19-134.33,35-28.82-8-61.14-11.34-93.35-9.56-12.53,8.81-7.76,27.33-34.95,28.69-9.78-10.45-26.44-18.44-46.74-22.27-11.53-15.3-19.42-31.43-23.43-47.82,12.53-10.25,33.2-15.92,64.28-15.92,1,9-5,21.79,11.65,22.27,9.27-6.83,13.53-16,35.08-15.92,24.19,4.78,23.43,23.3,35,35,16.17-.61,60.15,11.41,64.28-3.14-3.88-13.67-20.3-6.83-35.08-12.78-26.82-10.72-46.36-33.68-75.93-38.19-20.68-3.07-40.1,5-64.16-3.14,0-11.62,32.83-15.51,17.54-25.49-23.55-2.18-33.45,3.08-52.62,3.21,2.13,5.54.12,11.28-5.77,15.92,2.13,7.31,23.31,4.24,29.2,9.5C1135.1,1328.14,1139.36,1321.17,1132.6,1311.88Zm-70,54.11c19.93-1.84,27.07-10.66,52.5-9.56,14.16,17.76,11.28,44.82,23.31,63.67-23.31,4.24-30.32,17.36-58.39,19.07C1079.47,1411.91,1063.93,1392.78,1062.55,1366Zm630.39-219.65c-15.78-7.72-28.44,5.67-46.61,6.35,23.81,2.6,62.65-10.73,87.71-3.21,4.76,5.94,7.65,12.91,17.54,16,19.18-3.35,20.68-16.33,29.2-25.49,32.45-2.46,48.62-6.83,58.39,9.5h-41.1c-9.65,5.12-15.91,11.82-17.54,19.13-26.56,1-48.62,21.8-64.16,38.19-29.32-4.85-43.1-24-58.39-38.19-4-3.69-13.9-5.67-17.54-9.56-7.89-8.41-19.54-26-11.65-38.2C1657.61,1121.47,1683,1131.51,1692.94,1146.34Zm-221.78,31.84c4,8.54-12.53,6.14-17.54,9.56-2,12.64-12.53,20.5-17.54,31.84-17.92-5.88-26.19,2.8-40.85-3.21-3.89,4,0,26.16-23.31,28.62,2-8-2.25-16-11.65-22.27,18-12.84,16.16-19.13,46.61-28.63,8-1.91,15.79-4,23.43-6.35C1439.71,1183.71,1442,1173.94,1471.16,1178.18Zm566.24,6.35c-28.45,43.93-55.89,88.34-81.7,133.71-20.42-11.28-9-21,0-35s16.16-29,23.31-38.2c1.12-4.3-3.89-8.4-11.66-9.49,3.89-5.47,13.41-2,11.66,3.14,19.17-6.83,26.06-19.81,23.43-38.19-7.9,7.72-11.66,2-17.54,6.35-22.43-3.48,21.92-12.64,17.54-6.35C2014,1195.05,2019.6,1186.51,2037.4,1184.53ZM1973.24,1210a44.67,44.67,0,0,0,17.54,3.15c-2.5,6.08-16.79,5.8-11.77,15.92C1964.35,1223.06,1984.39,1217.94,1973.24,1210Zm-496.19,181.4c17,5.94-6,11.61-5.89,12.78.88,6.35,14.28,3.55,11.65,12.7,8.9,4.72,37.59,0,46.74,3.21,7.14,6.08-11,5.06-11.65,6.36v22.27c-.38,6,3.88,11.75,11.65,15.92-26.44,15.58-41.1,36-40.85,57.25-27.81-1.36-50.12,0-70-6.35-12.53-4.1-25.06-23.09-41-28.63-8.27-2.93-28.32-.68-35-3.14-1.38-.55,1.5-6.08,0-6.42-12.53-2.32-15.92,4-23.43,3.21-5.27-.55-5.27-6.42-17.42-6.35-16.17,0-40.72,7.37-64.28,9.56q-17.47.62-35,0c-29.07,4.24-44.61,17.15-93.47,12.71-7.65-13.67-17.67-26.44-17.42-44.55,13.66,12.3,33.2-.82,46.61,0,15.66,1,25.06,12.57,40.85,6.36,18.42,1.5,15.54-8.61,29.32-9.57v-22.27c31.07-5.06,61.65-1.44,93.35-6.36,14.16-2.18,20.8-7.92,35-9.56,27.94-3.14,46.23-.41,70-6.35,2.88-.69,9.65-6.09,11.78-6.36,14.53-2.46,32.58-.34,40.85-9.56A44.68,44.68,0,0,0,1477.05,1391.41Zm250.6,54.11c22.56-1.64,28.45,5.74,52.5,3.21,9.78,15-3.38,22.21-5.76,38.19-29.2-6.15-32.7-26.44-46.36-41.4Zm-87.71,3.21c43.61,1.91,51.75,21.18,23.31,35-3.51,14.28,4.13,29.11-5.77,44.55-3.25,5-15.41,7.31-17.54,12.7-7.52,19.75-3.13,37.45-11.65,57.33-6,14.48-15.79,28.42-29.2,41.4a167.93,167.93,0,0,1-29.19,28.63c-3.13,2.32-6.39,12.3-17.54,9.49a218.5,218.5,0,0,0-29.2-41c21.3-6.42,30.32-7.79,46.74-22.27,12.15-11.55,16.29-25.15,11.65-38.19-1.88-8.27-4.13-19.48-17.54-22.28,41-17.42,53.88-50.76,46.74-86-.51-10.31,36.71.89,29.69-19.6Zm75.93,9.57c18.55,17.49,42.36,32,40.85,60.46-20.67,1.64-19.42-12.36-29.19-22.27-8.52-8.61-25.06-17.29-23.43-25.49,0,2.4,22.93-4.16,12.53-12.7Zm81.7,15.92c34.08,7.17,2.63,27.32,0,41.33-23.56-5.53,4.89-26.44.5-41.33Zm17.54,25.41c26.32,5.47-1.38,20.5-5.89,28.7-21.92-3.28,5.89-18.31,6.39-28.7Zm-40.85,22.27c7.77,2.81,12.28,7.66,11.66,12.78h-17.55c10.91-6.49-3.88-6.22,6.4-12.78Zm17.42,28.7c3.89-8.95,6.89,7.31,5.89,9.56-2.26,6.43-10.4,2.53-5.76-9.56Zm-40.85,6.35c21.05,4.38,9.65,13.67,5.89,22.28-2.38,5.39-15,14.48-17.54,19.13-4.14,7.72-1.25,17.83-5.89,25.48-.88,1.64-10.9,5.13-11.65,6.35-3.76,6.84-2.88,16.06-11.66,22.28,2.39,11.48-10.65,4.37-5.88-3.21,20.92-35.12,37.59-54.87,47.23-92.31Zm17.54,15.92c20.55,15.31-4.76,39.9-17.54,60.47s-28.69,40.38-40.85,60.53-20.8,42.63-35,63.61c-6.9,10.11-17.67,18.65-23.44,28.69S1646,1808,1639.94,1818c-3.51,6-13.28,12.37-17.42,19.06-5.26,8-7.89,14.49-11.77,22.35-10.15-12.44,11.27-25.08,17.54-38.26,6.89-14.49,4.76-30.2,11.65-44.55.88-1.71,11-5.19,11.65-6.35,3.39-6.15,8-15.45,11.66-22.28,13.15-24.32,14.41-41.47,46.73-54.11a65.07,65.07,0,0,1,5.89-35c-1.12,1.78,7.77-10.25,5.77-9.56,0,0,11.15,4.16,11.65,3.21s-6.77-8.06-5.76-12.71c0,0,4.63-6.83,5.76-9.57,3.26-6.83,12.53-11.4,17.54-19.13a190.74,190.74,0,0,0,18.05-38.19ZM2376.09,391.92c-3.26-9.42,16.54-22.47,5.76-25.48C2379.22,372.73,2360.17,386.12,2376.09,391.92Zm46.61,9.57c10.9-.48,3.63-10.8,11.65-12.78C2416.56,384.41,2418.31,413.38,2422.7,401.49ZM2341,497.14c4.76,4.78,1.76.75,5.89-3.14,5.64-5.47,21.3-19.54,5.76-22.28,1.63,11.21-10.77,15.1-11.65,25.22Zm-70,95.65c62.65-5.67,33.45-55.48,46.74-79.59,13.65,2.87,3.38-21.66,0-9.5-1.88,36.82-57.39,44.75-46.74,88.75Zm81.69-15.92c-.87-5.87,13.79-26.1,0-19.06,6.39,7.79-17.79,14.83,0,18.72ZM2311.81,656c3.75-6.83,21.8-21.8,5.89-28.63C2322.71,638.91,2301.16,652.09,2311.81,656ZM2271,652.78c-2-5.95,13.53-23.16,0-15.85,3.51,5.74-17.17,13.32,0,16Zm-127.81,54.11c3.63,1.64-5.89,4-5.89,3.21a48.91,48.91,0,0,1,0,19.06c-2.25,4.65-13.78,5.67-17.42,9.57-8.64,9-3.88,19.74-17.54,25.48-9.27,0-4.63-8.13-17.54-6.35-7.89,7.31-23.43,10.52-17.54,25.41,14.91,5.47,20.42-3.62,29.19,3.21-2.5,9.43-22.3,25.83-11.65,31.84,11.65-10.66,10.53-23.77,17.54-35.05,0-.75,10.53-2.11,11.66-3.14,9.52-8.74,0-16.94,5.88-25.48,3.14-5.2,13.66-7.59,17.42-12.71,8.15-11,5.39-24.19,11.78-35.05,3.51-6.15,10.4-6.42,11.65-12.71,3.64-10.73,1.63-21.73-5.89-31.84,8.15,10.52-30.7,36.69-12.15,44.69Zm99.24,25.48c-27.94,12.37-35,36.15-40.85,60.54-30.57,9.22-52.12,38.8-35.08,63.6,39.72,2.53,27.19-23.36,58.39-25.48-2.63,7.31-20.55,22.48-5.77,28.63,16.92-37.31,28.32-77.89,58.39-108.16,0-2,.88-3.82,5.77-3.21-9.28-23.91,13.15-50.21,23.43-73.24-17.79-3.55-9.9,9.36-11.78,12.78-2.63,5-9.15,10.72-11.65,15.92-11.28,23-10,42.42-35,50.9,7.77,2.8,12.28,7.65,11.65,12.77-18.42-3.55-15.41-1.5-29.19,3.15-1,3.75,1,9-5.89,9.56-6.14,11.89,21.92,5.06,17.54,15.92-14.54,6.83,2.13,30.81-29.2,28.63,7.27-24.46-12.53-49.81,11.66-73.18a64.36,64.36,0,0,0,29.19-3.21c.25-7.72.5-15.3-12.28-15.78Zm0-19.06c1.63-7.31,20.42-33.07,5.89-28.69,1.25,9.36-21.18,32.86-6.52,28.83ZM3013,732.37c-9.4,7.72-33.58,24-23.3,31.84,14-3.35,11.65-14.89,17.41-19.06,14-10,41.73-13.66,52.63-25.48.37-10-8.4-19.61-23.31-25.49-12.9,12.71-37.59,20.22-24.06,38.33Zm-58.39,73.24c-6.14,11.48-5.89,24-17.54,35-8.9,8.33-32.45,13.66-40.85,22.27-9.9,9.84-6,20.5-11.65,31.84-.88,1.77-9.9,6.83-11.66,9.56-2.88,4.58-4.38,9.77-5.88,12.71-12.53,23.91-19.68,54.32-29.2,73.24-15.29,30.54-18.42,79-40.85,101.87-4.38,9.84,20.18,3.89,11.65,15.92-13.65,23.71-83.07,41.74-34.95,70,103.87-1,30.69-73,75.93-98.73,3-11.61-25.69-14.28-11.78-22.27,1.5-64.36,71.17-102.48,93.47-152.77,3.76-8.61,10-20.9,11.66-28.63,2.5-12.16-4-25.55,0-38.19,1-3.34,8.64-8.06,11.65-12.77,12.53-18.25,19.92-34.85,17.54-47.83-5.76,9.29-13,19.47-18.17,28.9ZM2540.1,812c11.53,1,11.66-4.31,17.55-6.36,0,1.92.87,3.76,5.89,3.15V802.4c0-1.91-1-3.75-5.89-3.14,1.12,8.47-23.31,2.6-18.17,12.85ZM2119.84,990.22c-5,9.5-26.18,17.15-11.77,25.49,11.27-23.64,37.59-55.82,35.08-76.39-15.66,13.53-15.54,34.78-23.93,51Zm244.59,178.19c-9.27,0-20.3-.41-17.54,6.35-1.75,6.29,7.77,6.35,11.65,9.56-14.66,5.81,2.63,29-23.43,28.63,10.15,17.9-19.55,38.13,0,63.68,9.27-15.1,4-38.13,29.32-44.55,2.76-10-18-7.24-11.78-19.13,1-9,27.82-3.89,23.44-15.85-6.9-.55-16.67.55-17.55-3.21,11.53-50.35,52.76-102.48,40.85-146.41C2393.25,1090.65,2372.83,1126.59,2364.43,1168.41Zm-1892-47.83c1.87-10.52,18,12.43,23.3,0-13.78-2.66,16.17-7.79,5.89-19.06-11.53,0-7.39-8.68-23.31-6.42-1.25,3.62-6.51,5-11.65,6.42-2.5,7.65,10.53,6.83,5.77,15.85-2.76.27-6.14,3.21.5,3.21Zm1681.29,38.19c4-.68-2.13-6.83,5.89-6.35,31.7.95,46,7.45,81.69,12.77-7,13,9.9,6.84,17.54,9.5,3.14,1.09,1.76,8.13,5.77,9.57s12.53-1,17.54,0,7.27,8.54,11.65,9.56c7.65,1.71,13.28-3.41,17.54-3.21,12.53.61,18.42,12.43,29.2,6.42,5.14-8.61-11.65-3.69-17.54-6.42-9.27-4.24-8.15-12.84-17.42-15.92-6.89-2.19-23.05,2.46-23.43-3.14,15.66,2.18,11.28-6.83,17.54-9.57-14.66-8.06-18.54,6.08-29.19,9.57-11-12-56.39-5.33-64.28-19.13-17.17-2.26-41.1-.89-46.61-9.57,10.14-2.93,12.53-9.9,11.65-19.06-19.3-10.38-46.49-10.79-58.39,3.14-10,12.17,17.29,19.89,5.89,22.28-12.53-5.74-20.68-9-17.55,6.42,19.18-3.42,48.87,4.1,53,3.42Zm350.84,105.08c18.42-10,27.31-25.41,40.85-38.19,9.14,1.37,4.88,10,23.3,6.35,5.89-4.64,8-10.38,5.89-15.92-8.77-.54-21.55,1.17-23.43-3.21,10.4-14,19-38.74-5.76-47.82-10.28,10.31-29.2,15.85-46.74,22.27-8-11.14-10-23.3-5.89-35a49.33,49.33,0,0,1-17.42-6.35c-20.17,1.77-29.69,9.29-41,15.92-6.89-6.84-35.71,1.43-29.19,12.7,24.18,4.31,27.69-5,35.08-6.35,15.16-2.6,31.58,1.85,40.85-6.35,24.93,32-26.19,84.78,23.43,102.21ZM1231.84,1286.4c13.53,2.73,13.4-16.19,5.76-6.36C1234.34,1282.85,1220.06,1293.91,1231.84,1286.4ZM770.6,1378.7c53.63,2.39,87.71-6.83,134.32-3.21,1-5.81-7-6.83-11.65-9.5-8.39-4.78-20.42,4.65-35.08-3.21,2.75,13.19-27.32,8.47-40.85,12.71.12-3.42-2-6.83-5.89-9.5-52.25-3.34-90.47-14.34-146-15.92-2.5,6.08-16.66,5.74-11.65,15.92,35.09-.68,55.76,10.46,105.13,9.5,5.89,4.3,5.51,11.89,17.54,12.78C776.62,1384.78,774.49,1381.43,770.6,1378.7ZM933.49,1401c3.14-2,23.69-9.56,5.77-12.7,1.5,4.23-18.92,11.82-5.14,12.43Zm-145.35,76.39c-4-10.59,12.53-5.13,17.55-3.14-2.38-9.71,15.28-16.2-5.89-19.07C794.91,1460.07,774.61,1472.85,788.14,1477.36Zm-23.8,130.56c-4.51-1.64-8.15-1.77-11.66-3.21s-2-3.14-11.65-3.21c5.76,0-28.69,6.29-29.19,6.42-8.9,3.14-46.74,32.25-46.74,31.84-1.38,19,27.44,26.44,75.93,28.63,22.3-4.79,22.56-21.66,46.74-25.49,6.14-13.32-12.53-21.59,0-28.62C771,1617.35,775,1611.47,764.34,1607.92Zm29.32,25.42c8.64-.48,21.42,1.16,23.3-3.15-4.51-.75-11.52,0-11.65-3.21,3.26,0,6.52-2.52,0-3.14-.25,5-14.53,2.32-11.28,9.5Zm134.19,35.05s-.75,4-5.88,3.14c-3-.48-16.42-10.11-17.42-3.14,15.29,5.6-7.9,13.32-11.65,3.14-8,5.6-8,13.53,0,19.13,25.06,1.43,25.06-6.29,29.07-9.57,12.53,6.84,40.47-5.32,64.28-3.21-1.63-8.6-21.43-7.37-23.44-15.85,1.88,13-8-.54-23.3,3.15-3.26,20.42-9.9,3.41-11.28,3.21Zm128.81,12.43c16.17-.54,20,4.92,11.66,9.57,37.59-10.59,67.16,15.44,93.47,9.56-24.18-8.54-55.51-9.43-75.93-19.13,0,0,7.64-1.23,0-3.21,2.13.62-12.53,6.08-11.65,0,3.25,0,6.64-2.53,0-3.14C1074.08,1680,1058,1676.52,1056.66,1680.82Zm180.94,41.4c-15.91-3.62-61.15-26.85-70-9.56,25.18-8.88,50.62,16.88,70,9.84ZM2457.78,270.93c-24.31,2-12.53,16.8-17.54,28.62s-29.95,26.85-11.65,35.05c2.38-3.69,6.39-7,11.65-9.56,4.89,21.86-21.55,43.31-5.89,60.53,3.63-35.19,38.72-70.17,23.43-105.08-3.88,8.54-2.5,19.88-11.65,25.48C2441.37,289.65,2458.41,285.07,2457.78,270.93Zm-221.91,1177.6a162.55,162.55,0,0,0-23.3,19.06c-7.4,5.26-70.55,3.07-52.5,12.77,26.18-12.23,96.73,0,105-22.27C2259.56,1452.83,2246.77,1451.33,2235.87,1448.53ZM2019.1.1c-13.91,6.28-25.68,13.8-35,22.27-14.28,14.07-31.45,34.16-40.84,44.61-4.14,4.51-1.76,8.34-5.89,12.71-10.4,11.14-29.32,21-40.85,31.84-3.39,3.21-3,6.83-5.89,9.56a355.45,355.45,0,0,1-29.2,25.42c-6.64,5.12-16.66,7.65-23.3,12.78s-10.53,13.66-17.54,19.06c-2.89,2.39-8.4,3.35-11.66,6.35a145.6,145.6,0,0,1-17.54,16,611.23,611.23,0,0,0-52.5,41.34c-12.53,9.9-37.59,21-29.2,35,43.48-32,94.48-78.09,146-108.22,4.39-2.59,1.88-6.83,5.76-9.56,2-1.51,9.53-1.64,11.66-3.21,3.76-2.67,2.88-7.18,5.89-9.57,11.4-8.74,24.18-16.67,35.08-25.42,5.51-4.44,10.9-7.85,17.42-12.77a304.33,304.33,0,0,0,29.32-28.63c1.88-1.84,9.27-4.3,11.53-6.35s2.25-6.83,5.88-9.57c17.67-12.23,49.25-17.49,58.39-31.84a35.55,35.55,0,0,0,0-28.62C2029.88,3.24,2028.63-.66,2019.1.1ZM1598.84,366.3c35.84,2.53,39.22-12.57,40.85-28.62C1616.38,330.3,1595,348.54,1598.84,366.3Zm-46.73,28.63c15.41,1,19.17-4.37,17.54-12.71C1553.73,381.27,1550.48,386.59,1552.11,394.93Zm-29.2,28.76h11.65v-6.42h-11.65ZM1248.5,468.24c1.13,8.95,10.28,13.66,29.2,12.71-2.39-7.65,10.65-6.83,5.88-15.92-22.55-3.55-20.8,11.2-35.08,3.14Zm-17.42,15.92c-3.76-1.78-17.66-12.91-23.43-3.21,7.77-.55,17.67,12.91,23.43,3.14ZM1196,544.62c6.26.28,12.53-1,16.91-3.48s6.9-5.81,6.4-9.22c1.87-7.38-16.8-3.56-17.42-9.57,18.54-2.6,8.14-21,35-19.13,18.42-1.5,15.41,11,29.19,3.21-1-4.51,1-9,5.89-12.71-67.54-7.51-103.25,26.51-75.93,50.84Zm5.89-70c-4.26-8.6,27.56,2.26,23.3-6.35-14.53,4.17-24.18-9.36-29.19,0,10.9.68-3.26,5.19,5.89,6.29ZM1528.67,535c-26.94-.89-31.57,10.45-40.84,19.13,2.13,7.31,25.06,3.08,23.3,12.71-3.13,27.33-63.78,39-52.62,63.67-43,7.66-40.35,56-93.35,47.83,1,6.83-4.77,10.11-17.55,9.57-17.79-1.85-31.57-9.43-35-19.13a263.2,263.2,0,0,1,58.39-3.22c-5-10.11,9.15-9.77,11.66-15.85-14-10.79-50.12-7.24-52.5,6.36-7.15-6.56-17.17-12-29.2-15.92-8.52,9.15-30.07,11.27-35.08,22.27-8.4,1.71-30.2-3.69-29.2,3.14,6.64.69,9.15,3.56,11.66,6.43-25.07-2.33-23.31,10.59-23.31,22.27,10,1.3,15-4.71,17.54,0-25.06,6.83,7.77,18.31,0,35,11,4.58,30.32,4.64,35,12.71-40.1,29.65-41.1,124.14,52.63,92.3,20-9.29,37.71-20,52.5-31.84,17.79-12.43,31.57-26.37,40.85-41.33,2.63-5.33-2-12.23,0-19.13,2.63-8.54,11.52-15.79,11.65-22.28,0-9-7.89-17.76-5.76-25.48,2.63-9.84,17-19.88,23.3-28.7s7.52-18,11.65-25.41c.76-1.23,10.53-4.72,11.78-6.42,2.38-3.63-1.63-8.82,0-12.71,7.4-18,35.46-36.9,52.5-47.83a279.85,279.85,0,0,0,29.2-16c3.13-2.74,1.25-10.73,5.76-15.86,2.63-3,15.67-6.83,17.55-9.56,2.88-3.62-2.64-9.09,0-12.71,8.26-11.48,27.44-20.5,17.54-31.84C1542.83,473.3,1538,513,1528.67,535Z"/></g></g></g></g></svg>