<svg xmlns="http://www.w3.org/2000/svg" viewBox="0 0 565.43 64.42"><defs><style>.cls-1{fill:#fff;}</style></defs><title>fb438645-e770-49ec-8583-2f0025956d8dmdpi</title><g id="Layer_2" data-name="Layer 2"><g id="Layer_1-2" data-name="Layer 1"><g id="fb438645-e770-49ec-8583-2f0025956d8d"><g id="fa43ff29-2099-4da3-b752-7099f7a68bd4"><path class="cls-1" d="M49.88.69V7.74H28.64v56h-7.4v-56H0v-7Zm26.47,63V.69h7.4V50.23L109.69.69h7.92V50.23L144,.69h7.75v63h-7.4V14.19L118.05,63.72h-7.84V14.19L84.27,63.72Zm156.44.7A23.74,23.74,0,0,1,222,62.07a17.74,17.74,0,0,1-7.23-6.45,17.33,17.33,0,0,1-2.57-9.4,17.1,17.1,0,0,1,2.92-9.92,14.75,14.75,0,0,1,7.53-5.84,14.14,14.14,0,0,1-5.27-5.31,14.63,14.63,0,0,1-2-7.48,16.67,16.67,0,0,1,2.57-9.27A17.34,17.34,0,0,1,225,2.22,23.44,23.44,0,0,1,235.48,0a21.18,21.18,0,0,1,12.8,3.74A17.16,17.16,0,0,1,255,13.84l-6.88,2.61a11.58,11.58,0,0,0-4.27-7.23,13,13,0,0,0-8.36-2.78,14.29,14.29,0,0,0-9,2.91q-3.74,2.93-3.74,8.49a10.94,10.94,0,0,0,1.91,6.4,8.91,8.91,0,0,0,5.05,3.61L268,27.77v6H248.89l20,29.95h-8.18L253.68,53.1a19.77,19.77,0,0,1-8.36,8.31,25.88,25.88,0,0,1-12.53,3Zm.52-6.53A19,19,0,0,0,244,55a13.58,13.58,0,0,0,5.83-7.7l-9-13.5H229.13a10.13,10.13,0,0,0-6.66,3.83,12.34,12.34,0,0,0-2.57,7.93,11.79,11.79,0,0,0,3.57,9q3.57,3.4,9.84,3.4Zm96.19,5.83V.69h25.86q10.27,0,15.24,4.79t5,12.54a17.71,17.71,0,0,1-2.18,9.05,15.49,15.49,0,0,1-5.92,5.83,21.26,21.26,0,0,1-8.53,2.53l16.71,28.29h-8.53L350.75,36H336.9V63.72Zm7.4-56V28.9h18.37a15.25,15.25,0,0,0,9.1-2.48c2.29-1.65,3.44-4.37,3.44-8.14a10.24,10.24,0,0,0-2.92-7.66Q362,7.74,355.27,7.74ZM447.73,56.58v7.14H405.24V.69h41.62V7.74H412.73V28.38h29.6v7h-29.6V56.58Zm54.06,7.66a33.12,33.12,0,0,1-16.63-4A28.41,28.41,0,0,1,474.06,49a34,34,0,0,1-4-16.67,33.31,33.31,0,0,1,4.13-16.8A29.14,29.14,0,0,1,485.81,4.22a35.83,35.83,0,0,1,17.37-4A35.11,35.11,0,0,1,521.77,5,26.62,26.62,0,0,1,533,18.71l-7,2.88a20.38,20.38,0,0,0-8.84-10.84,29.74,29.74,0,0,0-27.42-.53A21.78,21.78,0,0,0,480.89,19a27,27,0,0,0-3.13,13.32,27.38,27.38,0,0,0,3,13.1,21.51,21.51,0,0,0,8.58,8.75,26.34,26.34,0,0,0,13.14,3.14,30.12,30.12,0,0,0,13.45-2.92,17.69,17.69,0,0,0,8.41-7.7V38.39H506.66V31.94h25.16V63.72h-6.61v-9.4a23.31,23.31,0,0,1-10.49,7.62,37.59,37.59,0,0,1-12.93,2.3Zm56.15-9.66h7.49v9.14h-7.49Z"/></g></g></g></g></svg>