<svg xmlns="http://www.w3.org/2000/svg" xmlns:xlink="http://www.w3.org/1999/xlink" viewBox="0 0 1995.68 1995.62"><defs><style>.cls-1{fill:url(#linear-gradient);}</style><linearGradient id="linear-gradient" x1="5096.42" y1="870.07" x2="5097.42" y2="870.07" gradientTransform="translate(-1735387.38 10172499.45) rotate(-90) scale(1995.62 1995.68)" gradientUnits="userSpaceOnUse"><stop offset="0" stop-color="#ee1212"/><stop offset="0.39" stop-color="#f47906"/><stop offset="0.4" stop-color="#f47906"/><stop offset="1" stop-color="#ee1212"/></linearGradient></defs><title>fbfbf398-e092-4e10-bedc-0adc8b19fd63mdpi</title><g id="Layer_2" data-name="Layer 2"><g id="Layer_1-2" data-name="Layer 1"><g id="fbfbf398-e092-4e10-bedc-0adc8b19fd63"><g id="fbfbf398-e092-4e10-bedc-0adc8b19fd63-child-0"><path class="cls-1" d="M1975.2,10.85a10.85,10.85,0,1,0-10.85,10.85A10.87,10.87,0,0,0,1975.2,10.85Zm-95.78,10.59A10.59,10.59,0,1,1,1890,10.85,10.6,10.6,0,0,1,1879.42,21.44ZM1794.49,21a10.14,10.14,0,1,1,10.14-10.14A10.17,10.17,0,0,1,1794.49,21Zm-84.93-.51a9.63,9.63,0,1,1,9.63-9.63A9.62,9.62,0,0,1,1709.56,20.48ZM1624.63,20a9.18,9.18,0,1,1,9.18-9.18A9.17,9.17,0,0,1,1624.63,20Zm-84.94-.26a8.92,8.92,0,1,1,8.93-8.92A8.9,8.9,0,0,1,1539.69,19.77Zm-84.93-.45a8.47,8.47,0,1,1,8.48-8.47A8.46,8.46,0,0,1,1454.76,19.32Zm-84.93-.51a8,8,0,1,1,8-8A8,8,0,0,1,1369.83,18.81Zm-84.93-.45a7.51,7.51,0,1,1,7.51-7.51A7.51,7.51,0,0,1,1284.9,18.36ZM1200,18.1a7.32,7.32,0,1,1,7.32-7.31A7.31,7.31,0,0,1,1200,18.1ZM1115,17.65a6.81,6.81,0,1,1,6.81-6.8A6.8,6.8,0,0,1,1115,17.65Zm-84.93-.45a6.36,6.36,0,1,1,6.36-6.35A6.33,6.33,0,0,1,1030.1,17.2ZM945.17,17a6.1,6.1,0,1,1,6.1-6.1A6.1,6.1,0,0,1,945.17,17Zm-84.93-.45a5.65,5.65,0,1,1,5.65-5.65A5.62,5.62,0,0,1,860.24,16.5ZM775.3,16a5.2,5.2,0,1,1,5.2-5.19A5.17,5.17,0,0,1,775.3,16Zm-84.93-.19a4.94,4.94,0,1,1,4.94-4.94A4.9,4.9,0,0,1,690.37,15.79Zm-84.93-.51a4.5,4.5,0,1,1,4.49-4.49A4.46,4.46,0,0,1,605.44,15.28Zm-84.93-.45a4,4,0,1,1,4-4A4,4,0,0,1,520.51,14.83Zm-84.94-.45a3.53,3.53,0,1,1,3.54-3.53A3.56,3.56,0,0,1,435.57,14.38Zm-84.93-.26a3.27,3.27,0,1,1,3.28-3.27A3.28,3.28,0,0,1,350.64,14.12Zm-85-.45a2.83,2.83,0,1,1,2.82-2.82A2.85,2.85,0,0,1,265.65,13.67Zm-84.94-.51a2.37,2.37,0,0,1-2.37-2.37,2.38,2.38,0,1,1,2.37,2.37ZM95.78,13a2.12,2.12,0,1,1,2.12-2.12A2.15,2.15,0,0,1,95.78,13ZM10.85,11.75a1,1,0,1,1,1-1A1,1,0,0,1,10.85,11.75Zm1953.5,101.94a17.91,17.91,0,1,1,17.92-17.91A17.92,17.92,0,0,1,1964.35,113.69Zm-84.93-.7a17.21,17.21,0,1,1,17.21-17.21A17.21,17.21,0,0,1,1879.42,113Zm-84.93-.52a16.69,16.69,0,1,1,16.69-16.69A16.7,16.7,0,0,1,1794.49,112.47Zm-84.93-.7a16,16,0,1,1,16-16A16,16,0,0,1,1709.56,111.77Zm-84.93-.71a15.28,15.28,0,1,1,15.27-15.28A15.27,15.27,0,0,1,1624.63,111.06Zm-84.94-.71a14.57,14.57,0,1,1,14.58-14.57A14.55,14.55,0,0,1,1539.69,110.35Zm-84.93-.45a14.12,14.12,0,1,1,14.12-14.12A14.12,14.12,0,0,1,1454.76,109.9Zm-84.93-.7a13.42,13.42,0,1,1,13.42-13.42A13.46,13.46,0,0,1,1369.83,109.2Zm-84.93-.71a12.71,12.71,0,1,1,12.71-12.71A12.74,12.74,0,0,1,1284.9,108.49Zm-84.94-.7a12,12,0,1,1,12-12A12,12,0,0,1,1200,107.79Zm-84.93-.45a11.56,11.56,0,1,1,11.56-11.56A11.55,11.55,0,0,1,1115,107.34Zm-84.93-.71A10.85,10.85,0,1,1,1041,95.78,10.88,10.88,0,0,1,1030.1,106.63Zm-84.93-.71a10.14,10.14,0,1,1,10.14-10.14A10.16,10.16,0,0,1,945.17,105.92Zm-84.93-.51a9.63,9.63,0,1,1,9.63-9.63A9.62,9.62,0,0,1,860.24,105.41Zm-84.94-.71a8.92,8.92,0,1,1,8.93-8.92A8.9,8.9,0,0,1,775.3,104.7Zm-84.93-.7a8.22,8.22,0,1,1,8.22-8.22A8.19,8.19,0,0,1,690.37,104Zm-84.93-.45a7.77,7.77,0,1,1,7.77-7.77A7.76,7.76,0,0,1,605.44,103.55Zm-84.93-.71a7.06,7.06,0,1,1,7.06-7.06A7,7,0,0,1,520.51,102.84Zm-84.94-.7a6.36,6.36,0,1,1,6.36-6.36A6.33,6.33,0,0,1,435.57,102.14Zm-84.93-.71a5.65,5.65,0,1,1,5.65-5.65A5.62,5.62,0,0,1,350.64,101.43Zm-85-.71a4.94,4.94,0,1,1,4.94-4.94A4.91,4.91,0,0,1,265.65,100.72Zm-84.94-.7A4.24,4.24,0,1,1,185,95.78,4.27,4.27,0,0,1,180.71,100ZM95.78,99.5a3.79,3.79,0,1,1,3.79-3.78A3.75,3.75,0,0,1,95.78,99.5ZM10.85,97.9A2.12,2.12,0,1,1,13,95.78,2.13,2.13,0,0,1,10.85,97.9Zm1953.5,101.43A18.62,18.62,0,1,1,1983,180.71,18.62,18.62,0,0,1,1964.35,199.33Zm-84.93-.71a17.91,17.91,0,1,1,17.91-17.91A17.92,17.92,0,0,1,1879.42,198.62Zm-84.93-.7a17.21,17.21,0,1,1,17.21-17.21A17.21,17.21,0,0,1,1794.49,197.92Zm-84.93-.52a16.69,16.69,0,1,1,16.69-16.69A16.69,16.69,0,0,1,1709.56,197.4Zm-84.93-.7a16,16,0,1,1,16-16A16,16,0,0,1,1624.63,196.7Zm-84.94-.71A15.28,15.28,0,1,1,1555,180.71,15.28,15.28,0,0,1,1539.69,196Zm-84.93-.7a14.58,14.58,0,1,1,14.57-14.58A14.56,14.56,0,0,1,1454.76,195.29Zm-84.93-.45A14.13,14.13,0,1,1,1384,180.71,14.13,14.13,0,0,1,1369.83,194.84Zm-84.93-.71a13.42,13.42,0,1,1,13.41-13.42A13.41,13.41,0,0,1,1284.9,194.13Zm-84.94-.71a12.71,12.71,0,1,1,12.72-12.71A12.74,12.74,0,0,1,1200,193.42Zm-84.93-.7a12,12,0,1,1,12-12A12,12,0,0,1,1115,192.72Zm-84.93-.45a11.56,11.56,0,1,1,11.56-11.56A11.55,11.55,0,0,1,1030.1,192.27Zm-84.93-.71A10.85,10.85,0,1,1,956,180.71,10.88,10.88,0,0,1,945.17,191.56Zm-84.93-.7a10.15,10.15,0,1,1,10.14-10.15A10.17,10.17,0,0,1,860.24,190.86Zm-84.94-.52a9.63,9.63,0,1,1,9.63-9.63A9.62,9.62,0,0,1,775.3,190.34Zm-84.93-.7a8.93,8.93,0,1,1,8.92-8.93A8.9,8.9,0,0,1,690.37,189.64Zm-84.93-.71a8.22,8.22,0,1,1,8.22-8.22A8.19,8.19,0,0,1,605.44,188.93Zm-84.93-.45a7.77,7.77,0,1,1,7.76-7.77A7.76,7.76,0,0,1,520.51,188.48Zm-84.94-.7a7.07,7.07,0,1,1,7.07-7.07A7,7,0,0,1,435.57,187.78Zm-84.93-.71a6.36,6.36,0,1,1,6.36-6.36A6.33,6.33,0,0,1,350.64,187.07Zm-85-.71a5.65,5.65,0,1,1,5.65-5.65A5.61,5.61,0,0,1,265.65,186.36Zm-84.94-.7a4.95,4.95,0,1,1,4.95-4.95A4.91,4.91,0,0,1,180.71,185.66ZM95.78,185a4.24,4.24,0,1,1,4.24-4.24A4.28,4.28,0,0,1,95.78,185Zm-84.93-1.86a2.38,2.38,0,0,1-2.38-2.38,2.38,2.38,0,1,1,2.38,2.38Zm1953.5,101.62a19.07,19.07,0,1,1,19.07-19.06A19.07,19.07,0,0,1,1964.35,284.71Zm-84.93-.45A18.62,18.62,0,1,1,1898,265.65,18.62,18.62,0,0,1,1879.42,284.26Zm-84.93-.7a17.91,17.91,0,1,1,17.91-17.91A17.92,17.92,0,0,1,1794.49,283.56Zm-84.93-.71a17.21,17.21,0,1,1,17.2-17.2A17.21,17.21,0,0,1,1709.56,282.85Zm-84.93-.51a16.7,16.7,0,1,1,16.69-16.69A16.7,16.7,0,0,1,1624.63,282.34Zm-84.94-.71a16,16,0,1,1,16-16A16,16,0,0,1,1539.69,281.63Zm-84.93-.71A15.28,15.28,0,1,1,1470,265.65,15.27,15.27,0,0,1,1454.76,280.92Zm-84.93-.7a14.58,14.58,0,1,1,14.57-14.57A14.56,14.56,0,0,1,1369.83,280.22Zm-84.93-.45A14.13,14.13,0,1,1,1299,265.65,14.13,14.13,0,0,1,1284.9,279.77Zm-84.94-.71a13.42,13.42,0,1,1,13.42-13.41A13.44,13.44,0,0,1,1200,279.06Zm-84.93-.7a12.71,12.71,0,1,1,12.71-12.71A12.75,12.75,0,0,1,1115,278.36Zm-84.93-.71a12,12,0,1,1,12-12A12,12,0,0,1,1030.1,277.65Zm-84.93-.45a11.56,11.56,0,1,1,11.55-11.55A11.54,11.54,0,0,1,945.17,277.2Zm-84.93-.7a10.85,10.85,0,1,1,10.85-10.85A10.88,10.88,0,0,1,860.24,276.5Zm-84.94-.71a10.15,10.15,0,1,1,10.15-10.14A10.17,10.17,0,0,1,775.3,275.79Zm-84.93-.51a9.63,9.63,0,1,1,9.63-9.63A9.62,9.62,0,0,1,690.37,275.28Zm-84.93-.71a8.93,8.93,0,1,1,8.92-8.92A8.9,8.9,0,0,1,605.44,274.57Zm-84.93-.71a8.22,8.22,0,1,1,8.21-8.21A8.19,8.19,0,0,1,520.51,273.86Zm-84.94-.45a7.77,7.77,0,1,1,7.77-7.76A7.74,7.74,0,0,1,435.57,273.41Zm-84.93-.7a7.07,7.07,0,1,1,7.06-7.06A7,7,0,0,1,350.64,272.71Zm-85-.71a6.36,6.36,0,1,1,6.35-6.35A6.33,6.33,0,0,1,265.65,272Zm-84.94-.7a5.65,5.65,0,1,1,5.65-5.65A5.63,5.63,0,0,1,180.71,271.3Zm-84.93-.71a4.95,4.95,0,1,1,4.94-4.94A4.9,4.9,0,0,1,95.78,270.59Zm-84.93-2.12a2.83,2.83,0,1,1,2.82-2.82A2.85,2.85,0,0,1,10.85,268.47Zm1953.5,101.88a19.77,19.77,0,1,1,19.78-19.77A19.78,19.78,0,0,1,1964.35,370.35Zm-84.93-.71a19.07,19.07,0,1,1,19.07-19.06A19.06,19.06,0,0,1,1879.42,369.64Zm-84.93-.44a18.62,18.62,0,1,1,18.62-18.62A18.64,18.64,0,0,1,1794.49,369.2Zm-84.93-.71a17.91,17.91,0,1,1,17.91-17.91A17.92,17.92,0,0,1,1709.56,368.49Zm-84.93-.71a17.21,17.21,0,1,1,17.2-17.2A17.2,17.2,0,0,1,1624.63,367.78Zm-84.94-.51a16.69,16.69,0,1,1,16.69-16.69A16.7,16.7,0,0,1,1539.69,367.27Zm-84.93-.71a16,16,0,1,1,16-16A16,16,0,0,1,1454.76,366.56Zm-84.93-.7a15.28,15.28,0,1,1,15.28-15.28A15.28,15.28,0,0,1,1369.83,365.86Zm-84.93-.71a14.57,14.57,0,1,1,14.57-14.57A14.57,14.57,0,0,1,1284.9,365.15ZM1200,364.7a14.13,14.13,0,1,1,14.13-14.12A14.12,14.12,0,0,1,1200,364.7ZM1115,364a13.42,13.42,0,1,1,13.42-13.42A13.45,13.45,0,0,1,1115,364Zm-84.93-.71a12.71,12.71,0,1,1,12.71-12.71A12.74,12.74,0,0,1,1030.1,363.29Zm-84.93-.71a12,12,0,1,1,12-12A12,12,0,0,1,945.17,362.58Zm-84.93-.45a11.56,11.56,0,1,1,11.55-11.55A11.54,11.54,0,0,1,860.24,362.13Zm-84.94-.7a10.85,10.85,0,1,1,10.85-10.85A10.88,10.88,0,0,1,775.3,361.43Zm-84.93-.71a10.14,10.14,0,1,1,10.14-10.14A10.17,10.17,0,0,1,690.37,360.72Zm-84.93-.51a9.63,9.63,0,1,1,9.63-9.63A9.62,9.62,0,0,1,605.44,360.21Zm-84.93-.71a8.93,8.93,0,1,1,8.92-8.92A8.9,8.9,0,0,1,520.51,359.5Zm-84.94-.7a8.22,8.22,0,1,1,8.22-8.22A8.19,8.19,0,0,1,435.57,358.8Zm-84.93-.45a7.77,7.77,0,1,1,7.77-7.77A7.76,7.76,0,0,1,350.64,358.35Zm-85-.71a7.06,7.06,0,1,1,7.06-7.06A7,7,0,0,1,265.65,357.64Zm-84.94-.71a6.36,6.36,0,1,1,6.36-6.35A6.32,6.32,0,0,1,180.71,356.93Zm-84.93-.7a5.65,5.65,0,1,1,5.65-5.65A5.63,5.63,0,0,1,95.78,356.23Zm-84.93-2.38a3.28,3.28,0,1,1,3.27-3.27A3.28,3.28,0,0,1,10.85,353.85ZM1964.35,456a20.48,20.48,0,1,1,20.48-20.48A20.49,20.49,0,0,1,1964.35,456Zm-84.93-.71a19.77,19.77,0,1,1,19.78-19.77A19.78,19.78,0,0,1,1879.42,455.28Zm-84.93-.7a19.07,19.07,0,1,1,19.07-19.07A19.07,19.07,0,0,1,1794.49,454.58Zm-84.93-.45a18.62,18.62,0,1,1,18.62-18.62A18.64,18.64,0,0,1,1709.56,454.13Zm-84.93-.71a17.91,17.91,0,1,1,17.91-17.91A17.91,17.91,0,0,1,1624.63,453.42Zm-84.94-.7a17.21,17.21,0,1,1,17.21-17.21A17.21,17.21,0,0,1,1539.69,452.72Zm-84.93-.52a16.69,16.69,0,1,1,16.69-16.69A16.7,16.7,0,0,1,1454.76,452.2Zm-84.93-.7a16,16,0,1,1,16-16A16,16,0,0,1,1369.83,451.5Zm-84.93-.71a15.28,15.28,0,1,1,15.28-15.28A15.27,15.27,0,0,1,1284.9,450.79Zm-84.94-.71a14.57,14.57,0,1,1,14.58-14.57A14.57,14.57,0,0,1,1200,450.08Zm-84.93-.45a14.12,14.12,0,1,1,14.13-14.12A14.12,14.12,0,0,1,1115,449.63Zm-84.93-.7a13.42,13.42,0,1,1,13.42-13.42A13.46,13.46,0,0,1,1030.1,448.93Zm-84.93-.71a12.71,12.71,0,1,1,12.71-12.71A12.74,12.74,0,0,1,945.17,448.22Zm-84.93-.7a12,12,0,1,1,12-12A12,12,0,0,1,860.24,447.52Zm-84.94-.45a11.56,11.56,0,1,1,11.56-11.56A11.55,11.55,0,0,1,775.3,447.07Zm-84.93-.71a10.85,10.85,0,1,1,10.85-10.85A10.88,10.88,0,0,1,690.37,446.36Zm-84.93-.71a10.14,10.14,0,1,1,10.14-10.14A10.15,10.15,0,0,1,605.44,445.65Zm-84.93-.51a9.63,9.63,0,1,1,9.63-9.63A9.62,9.62,0,0,1,520.51,445.14Zm-84.94-.71a8.92,8.92,0,1,1,8.93-8.92A8.9,8.9,0,0,1,435.57,444.43Zm-84.93-.7a8.22,8.22,0,1,1,8.22-8.22A8.19,8.19,0,0,1,350.64,443.73Zm-85-.45a7.77,7.77,0,1,1,7.76-7.77A7.75,7.75,0,0,1,265.65,443.28Zm-84.94-.71a7.06,7.06,0,1,1,7.07-7.06A7,7,0,0,1,180.71,442.57Zm-84.93-.7a6.36,6.36,0,1,1,6.36-6.36A6.33,6.33,0,0,1,95.78,441.87ZM10.85,439a3.53,3.53,0,1,1,3.53-3.53A3.56,3.56,0,0,1,10.85,439Zm1953.5,102.33a21,21,0,1,1,21-21A21,21,0,0,1,1964.35,541.37Zm-84.93-.45a20.48,20.48,0,1,1,20.48-20.48A20.49,20.49,0,0,1,1879.42,540.92Zm-84.93-.7a19.78,19.78,0,1,1,19.77-19.78A19.78,19.78,0,0,1,1794.49,540.22Zm-84.93-.71a19.07,19.07,0,1,1,19.06-19.07A19.07,19.07,0,0,1,1709.56,539.51Zm-84.93-.45a18.62,18.62,0,1,1,18.61-18.62A18.63,18.63,0,0,1,1624.63,539.06Zm-84.94-.71a17.91,17.91,0,1,1,17.91-17.91A17.92,17.92,0,0,1,1539.69,538.35Zm-84.93-.7A17.21,17.21,0,1,1,1472,520.44,17.21,17.21,0,0,1,1454.76,537.65Zm-84.93-.52a16.69,16.69,0,1,1,16.69-16.69A16.69,16.69,0,0,1,1369.83,537.13Zm-84.93-.7a16,16,0,1,1,16-16A16,16,0,0,1,1284.9,536.43Zm-84.94-.71a15.28,15.28,0,1,1,15.28-15.28A15.27,15.27,0,0,1,1200,535.72ZM1115,535a14.58,14.58,0,1,1,14.58-14.58A14.56,14.56,0,0,1,1115,535Zm-84.93-.45a14.13,14.13,0,1,1,14.12-14.13A14.13,14.13,0,0,1,1030.1,534.57Zm-84.93-.71a13.42,13.42,0,1,1,13.42-13.42A13.41,13.41,0,0,1,945.17,533.86Zm-84.93-.71A12.71,12.71,0,1,1,873,520.44,12.74,12.74,0,0,1,860.24,533.15Zm-84.94-.7a12,12,0,1,1,12-12A12,12,0,0,1,775.3,532.45ZM690.37,532a11.56,11.56,0,1,1,11.56-11.56A11.55,11.55,0,0,1,690.37,532Zm-84.93-.71a10.85,10.85,0,1,1,10.85-10.85A10.88,10.88,0,0,1,605.44,531.29Zm-84.93-.7a10.15,10.15,0,1,1,10.14-10.15A10.17,10.17,0,0,1,520.51,530.59Zm-84.94-.52a9.63,9.63,0,1,1,9.63-9.63A9.61,9.61,0,0,1,435.57,530.07Zm-84.93-.7a8.93,8.93,0,1,1,8.93-8.93A8.9,8.9,0,0,1,350.64,529.37Zm-85-.71a8.22,8.22,0,1,1,8.21-8.22A8.19,8.19,0,0,1,265.65,528.66Zm-84.94-.45a7.77,7.77,0,1,1,7.77-7.77A7.75,7.75,0,0,1,180.71,528.21Zm-84.93-.71a7.06,7.06,0,1,1,7.06-7.06A7,7,0,0,1,95.78,527.5Zm-84.93-3.08a4,4,0,1,1,4-4A4,4,0,0,1,10.85,524.42ZM1964.35,627a21.7,21.7,0,1,1,21.7-21.7A21.7,21.7,0,0,1,1964.35,627Zm-84.93-.71a21,21,0,1,1,21-21A21,21,0,0,1,1879.42,626.3Zm-84.93-.45A20.48,20.48,0,1,1,1815,605.37,20.49,20.49,0,0,1,1794.49,625.85Zm-84.93-.7a19.78,19.78,0,1,1,19.77-19.78A19.78,19.78,0,0,1,1709.56,625.15Zm-84.93-.71a19.07,19.07,0,1,1,19.06-19.07A19.07,19.07,0,0,1,1624.63,624.44Zm-84.94-.45a18.62,18.62,0,1,1,18.62-18.62A18.62,18.62,0,0,1,1539.69,624Zm-84.93-.7a17.92,17.92,0,1,1,17.91-17.92A17.93,17.93,0,0,1,1454.76,623.29Zm-84.93-.71a17.21,17.21,0,1,1,17.2-17.21A17.21,17.21,0,0,1,1369.83,622.58Zm-84.93-.51a16.7,16.7,0,1,1,16.69-16.7A16.7,16.7,0,0,1,1284.9,622.07Zm-84.94-.71a16,16,0,1,1,16-16A16,16,0,0,1,1200,621.36Zm-84.93-.71a15.28,15.28,0,1,1,15.28-15.28A15.28,15.28,0,0,1,1115,620.65Zm-84.93-.7a14.58,14.58,0,1,1,14.57-14.58A14.56,14.56,0,0,1,1030.1,620Zm-84.93-.45a14.13,14.13,0,1,1,14.12-14.13A14.13,14.13,0,0,1,945.17,619.5Zm-84.93-.71a13.42,13.42,0,1,1,13.41-13.42A13.45,13.45,0,0,1,860.24,618.79Zm-84.94-.7A12.72,12.72,0,1,1,788,605.37,12.75,12.75,0,0,1,775.3,618.09Zm-84.93-.71a12,12,0,1,1,12-12A12,12,0,0,1,690.37,617.38Zm-84.93-.45A11.56,11.56,0,1,1,617,605.37,11.55,11.55,0,0,1,605.44,616.93Zm-84.93-.71a10.85,10.85,0,1,1,10.85-10.85A10.87,10.87,0,0,1,520.51,616.22Zm-84.94-.7a10.15,10.15,0,1,1,10.15-10.15A10.17,10.17,0,0,1,435.57,615.52ZM350.64,615a9.63,9.63,0,1,1,9.63-9.63A9.62,9.62,0,0,1,350.64,615Zm-85-.7a8.93,8.93,0,1,1,8.92-8.93A8.91,8.91,0,0,1,265.65,614.3Zm-84.94-.71a8.22,8.22,0,1,1,8.22-8.22A8.19,8.19,0,0,1,180.71,613.59Zm-84.93-.45a7.77,7.77,0,1,1,7.77-7.77A7.75,7.75,0,0,1,95.78,613.14Zm-84.93-3.27a4.5,4.5,0,1,1,4.49-4.5A4.47,4.47,0,0,1,10.85,609.87Zm1953.5,102.84a22.41,22.41,0,1,1,22.41-22.4A22.42,22.42,0,0,1,1964.35,712.71Zm-84.93-.7a21.7,21.7,0,1,1,21.7-21.7A21.72,21.72,0,0,1,1879.42,712Zm-84.93-.71a21,21,0,1,1,21-21A21,21,0,0,1,1794.49,711.3Zm-84.93-.51A20.48,20.48,0,1,1,1730,690.31,20.49,20.49,0,0,1,1709.56,710.79Zm-84.93-.71a19.78,19.78,0,1,1,19.77-19.77A19.78,19.78,0,0,1,1624.63,710.08Zm-84.94-.71a19.07,19.07,0,1,1,19.07-19.06A19.06,19.06,0,0,1,1539.69,709.37Zm-84.93-.45a18.62,18.62,0,1,1,18.62-18.61A18.63,18.63,0,0,1,1454.76,708.92Zm-84.93-.7a17.91,17.91,0,1,1,17.91-17.91A17.92,17.92,0,0,1,1369.83,708.22Zm-84.93-.71a17.21,17.21,0,1,1,17.2-17.2A17.21,17.21,0,0,1,1284.9,707.51ZM1200,707a16.69,16.69,0,1,1,16.7-16.69A16.7,16.7,0,0,1,1200,707Zm-84.93-.71a16,16,0,1,1,16-16A16,16,0,0,1,1115,706.29Zm-84.93-.7a15.28,15.28,0,1,1,15.28-15.28A15.28,15.28,0,0,1,1030.1,705.59Zm-84.93-.71a14.58,14.58,0,1,1,14.57-14.57A14.56,14.56,0,0,1,945.17,704.88Zm-84.93-.45a14.13,14.13,0,1,1,14.12-14.12A14.13,14.13,0,0,1,860.24,704.43Zm-84.94-.71a13.42,13.42,0,1,1,13.42-13.41A13.44,13.44,0,0,1,775.3,703.72Zm-84.93-.7a12.71,12.71,0,1,1,12.71-12.71A12.74,12.74,0,0,1,690.37,703Zm-84.93-.71a12,12,0,1,1,12-12A12,12,0,0,1,605.44,702.31Zm-84.93-.45a11.56,11.56,0,1,1,11.55-11.55A11.54,11.54,0,0,1,520.51,701.86Zm-84.94-.7a10.85,10.85,0,1,1,10.85-10.85A10.87,10.87,0,0,1,435.57,701.16Zm-84.93-.71a10.15,10.15,0,1,1,10.15-10.14A10.17,10.17,0,0,1,350.64,700.45Zm-85-.51a9.63,9.63,0,1,1,9.63-9.63A9.62,9.62,0,0,1,265.65,699.94Zm-84.94-.71a8.93,8.93,0,1,1,8.93-8.92A8.9,8.9,0,0,1,180.71,699.23Zm-84.93-.71a8.22,8.22,0,1,1,8.22-8.21A8.19,8.19,0,0,1,95.78,698.52Zm-84.93-3.27a4.95,4.95,0,1,1,4.94-4.94A4.9,4.9,0,0,1,10.85,695.25Zm1953.5,102.84a22.85,22.85,0,1,1,22.86-22.85A22.82,22.82,0,0,1,1964.35,798.09Zm-84.93-.45a22.41,22.41,0,1,1,22.41-22.4A22.42,22.42,0,0,1,1879.42,797.64Zm-84.93-.7a21.7,21.7,0,1,1,21.7-21.7A21.72,21.72,0,0,1,1794.49,796.94Zm-84.93-.71a21,21,0,1,1,21-21A21,21,0,0,1,1709.56,796.23Zm-84.93-.51a20.48,20.48,0,1,1,20.47-20.48A20.49,20.49,0,0,1,1624.63,795.72Zm-84.94-.71a19.77,19.77,0,1,1,19.78-19.77A19.78,19.78,0,0,1,1539.69,795Zm-84.93-.7a19.07,19.07,0,1,1,19.07-19.07A19.07,19.07,0,0,1,1454.76,794.31Zm-84.93-.45a18.62,18.62,0,1,1,18.62-18.62A18.64,18.64,0,0,1,1369.83,793.86Zm-84.93-.71a17.91,17.91,0,1,1,17.91-17.91A17.91,17.91,0,0,1,1284.9,793.15Zm-84.94-.71a17.21,17.21,0,1,1,17.21-17.2A17.2,17.2,0,0,1,1200,792.44Zm-84.93-.51a16.69,16.69,0,1,1,16.69-16.69A16.7,16.7,0,0,1,1115,791.93Zm-84.93-.71a16,16,0,1,1,16-16A16,16,0,0,1,1030.1,791.22Zm-84.93-.7a15.28,15.28,0,1,1,15.28-15.28A15.27,15.27,0,0,1,945.17,790.52Zm-84.93-.71a14.57,14.57,0,1,1,14.57-14.57A14.57,14.57,0,0,1,860.24,789.81Zm-84.94-.45a14.12,14.12,0,1,1,14.13-14.12A14.12,14.12,0,0,1,775.3,789.36Zm-84.93-.7a13.42,13.42,0,1,1,13.42-13.42A13.46,13.46,0,0,1,690.37,788.66ZM605.44,788a12.71,12.71,0,1,1,12.71-12.71A12.74,12.74,0,0,1,605.44,788Zm-84.93-.71a12,12,0,1,1,12-12A12,12,0,0,1,520.51,787.24Zm-84.94-.45a11.56,11.56,0,1,1,11.56-11.55A11.54,11.54,0,0,1,435.57,786.79Zm-84.93-.7a10.85,10.85,0,1,1,10.85-10.85A10.88,10.88,0,0,1,350.64,786.09Zm-85-.71a10.14,10.14,0,1,1,10.14-10.14A10.17,10.17,0,0,1,265.65,785.38Zm-84.94-.51a9.63,9.63,0,1,1,9.63-9.63A9.62,9.62,0,0,1,180.71,784.87Zm-84.93-.71a8.92,8.92,0,1,1,8.92-8.92A8.9,8.9,0,0,1,95.78,784.16Zm-84.93-3.72a5.2,5.2,0,1,1,5.2-5.2A5.18,5.18,0,0,1,10.85,780.44Zm1953.5,103.29a23.56,23.56,0,1,1,23.57-23.56A23.54,23.54,0,0,1,1964.35,883.73Zm-84.93-.7a22.86,22.86,0,1,1,22.86-22.86A22.83,22.83,0,0,1,1879.42,883Zm-84.93-.45a22.41,22.41,0,1,1,22.4-22.41A22.42,22.42,0,0,1,1794.49,882.58Zm-84.93-.71a21.7,21.7,0,1,1,21.7-21.7A21.71,21.71,0,0,1,1709.56,881.87Zm-84.93-.71a21,21,0,1,1,21-21A21,21,0,0,1,1624.63,881.16Zm-84.94-.51a20.48,20.48,0,1,1,20.48-20.48A20.5,20.5,0,0,1,1539.69,880.65Zm-84.93-.71a19.77,19.77,0,1,1,19.77-19.77A19.77,19.77,0,0,1,1454.76,879.94Zm-84.93-.7a19.07,19.07,0,1,1,19.07-19.07A19.07,19.07,0,0,1,1369.83,879.24Zm-84.93-.45a18.62,18.62,0,1,1,18.61-18.62A18.64,18.64,0,0,1,1284.9,878.79Zm-84.94-.71a17.91,17.91,0,1,1,17.92-17.91A17.92,17.92,0,0,1,1200,878.08Zm-84.93-.7a17.21,17.21,0,1,1,17.21-17.21A17.21,17.21,0,0,1,1115,877.38Zm-84.93-.45a16.7,16.7,0,1,1,16.69-16.69A16.7,16.7,0,0,1,1030.1,876.93Zm-84.93-.71a16,16,0,1,1,16-16A16,16,0,0,1,945.17,876.22Zm-84.93-.71a15.28,15.28,0,1,1,15.27-15.27A15.26,15.26,0,0,1,860.24,875.51Zm-84.94-.7a14.58,14.58,0,1,1,14.58-14.57A14.56,14.56,0,0,1,775.3,874.81Zm-84.93-.52a14.12,14.12,0,1,1,14.12-14.12A14.12,14.12,0,0,1,690.37,874.29Zm-84.93-.7a13.42,13.42,0,1,1,13.42-13.42A13.42,13.42,0,0,1,605.44,873.59Zm-84.93-.71a12.71,12.71,0,1,1,12.71-12.71A12.74,12.74,0,0,1,520.51,872.88Zm-84.94-.7a12,12,0,1,1,12-12A12,12,0,0,1,435.57,872.18Zm-84.93-.45a11.56,11.56,0,1,1,11.56-11.56A11.55,11.55,0,0,1,350.64,871.73Zm-85-.71a10.85,10.85,0,1,1,10.85-10.85A10.88,10.88,0,0,1,265.65,871Zm-84.94-.71a10.14,10.14,0,1,1,10.15-10.14A10.16,10.16,0,0,1,180.71,870.31Zm-84.93-.51a9.63,9.63,0,1,1,9.63-9.63A9.62,9.62,0,0,1,95.78,869.8Zm-84.93-4a5.65,5.65,0,1,1,5.65-5.65A5.61,5.61,0,0,1,10.85,865.82Zm1953.5,103.29a24,24,0,1,1,24-24A24,24,0,0,1,1964.35,969.11Zm-84.93-.45A23.56,23.56,0,1,1,1903,945.1,23.53,23.53,0,0,1,1879.42,968.66Zm-84.93-.7a22.86,22.86,0,1,1,22.85-22.86A22.82,22.82,0,0,1,1794.49,968Zm-84.93-.45A22.41,22.41,0,1,1,1732,945.1,22.43,22.43,0,0,1,1709.56,967.51Zm-84.93-.71a21.7,21.7,0,1,1,21.69-21.7A21.71,21.71,0,0,1,1624.63,966.8Zm-84.94-.7a21,21,0,1,1,21-21A21,21,0,0,1,1539.69,966.1Zm-84.93-.52a20.48,20.48,0,1,1,20.48-20.48A20.49,20.49,0,0,1,1454.76,965.58Zm-84.93-.7a19.78,19.78,0,1,1,19.77-19.78A19.78,19.78,0,0,1,1369.83,964.88Zm-84.93-.71A19.07,19.07,0,1,1,1304,945.1,19.07,19.07,0,0,1,1284.9,964.17Zm-84.94-.45a18.62,18.62,0,1,1,18.62-18.62A18.62,18.62,0,0,1,1200,963.72ZM1115,963a17.91,17.91,0,1,1,17.91-17.91A17.92,17.92,0,0,1,1115,963Zm-84.93-.7a17.21,17.21,0,1,1,17.2-17.21A17.21,17.21,0,0,1,1030.1,962.31Zm-84.93-.45a16.69,16.69,0,1,1,16.69-16.69A16.69,16.69,0,0,1,945.17,961.86Zm-84.93-.71a16,16,0,1,1,16-16A16,16,0,0,1,860.24,961.15Zm-84.94-.7a15.28,15.28,0,1,1,15.28-15.28A15.28,15.28,0,0,1,775.3,960.45Zm-84.93-.71a14.57,14.57,0,1,1,14.57-14.57A14.56,14.56,0,0,1,690.37,959.74Zm-84.93-.51a14.13,14.13,0,1,1,14.12-14.13A14.13,14.13,0,0,1,605.44,959.23Zm-84.93-.71a13.42,13.42,0,1,1,13.41-13.42A13.45,13.45,0,0,1,520.51,958.52Zm-84.94-.71a12.71,12.71,0,1,1,12.72-12.71A12.74,12.74,0,0,1,435.57,957.81Zm-84.93-.7a12,12,0,1,1,12-12A12,12,0,0,1,350.64,957.11Zm-85-.45A11.56,11.56,0,1,1,277.2,945.1,11.55,11.55,0,0,1,265.65,956.66ZM180.71,956a10.85,10.85,0,1,1,10.85-10.85A10.88,10.88,0,0,1,180.71,956Zm-84.93-.7a10.15,10.15,0,1,1,10.14-10.15A10.17,10.17,0,0,1,95.78,955.25Zm-84.93-4a6.1,6.1,0,1,1,6.1-6.1A6.1,6.1,0,0,1,10.85,951.2Zm1953.5,103.55a24.72,24.72,0,1,1,24.72-24.71A24.68,24.68,0,0,1,1964.35,1054.75Zm-84.93-.7a24,24,0,1,1,24-24A24,24,0,0,1,1879.42,1054.05Zm-84.93-.45a23.56,23.56,0,1,1,23.56-23.56A23.54,23.54,0,0,1,1794.49,1053.6Zm-84.93-.71a22.86,22.86,0,1,1,22.85-22.85A22.83,22.83,0,0,1,1709.56,1052.89Zm-84.93-.45A22.41,22.41,0,1,1,1647,1030,22.42,22.42,0,0,1,1624.63,1052.44Zm-84.94-.71a21.7,21.7,0,1,1,21.7-21.69A21.7,21.7,0,0,1,1539.69,1051.73Zm-84.93-.7a21,21,0,1,1,21-21A21,21,0,0,1,1454.76,1051Zm-84.93-.52a20.48,20.48,0,1,1,20.48-20.47A20.49,20.49,0,0,1,1369.83,1050.51Zm-84.93-.7a19.78,19.78,0,1,1,19.77-19.77A19.78,19.78,0,0,1,1284.9,1049.81Zm-84.94-.71A19.07,19.07,0,1,1,1219,1030,19.07,19.07,0,0,1,1200,1049.1Zm-84.93-.45a18.62,18.62,0,1,1,18.62-18.61A18.62,18.62,0,0,1,1115,1048.65Zm-84.93-.7A17.91,17.91,0,1,1,1048,1030,17.92,17.92,0,0,1,1030.1,1048Zm-84.93-.71a17.21,17.21,0,1,1,17.2-17.2A17.21,17.21,0,0,1,945.17,1047.24Zm-84.93-.45a16.69,16.69,0,1,1,16.69-16.69A16.7,16.7,0,0,1,860.24,1046.79Zm-84.94-.7a16,16,0,1,1,16-16A16,16,0,0,1,775.3,1046.09Zm-84.93-.71a15.28,15.28,0,1,1,15.28-15.28A15.28,15.28,0,0,1,690.37,1045.38Zm-84.93-.71A14.57,14.57,0,1,1,620,1030.1,14.56,14.56,0,0,1,605.44,1044.67Zm-84.93-.51A14.13,14.13,0,1,1,534.63,1030,14.13,14.13,0,0,1,520.51,1044.16Zm-84.94-.71A13.42,13.42,0,1,1,449,1030,13.44,13.44,0,0,1,435.57,1043.45Zm-84.93-.7A12.71,12.71,0,1,1,363.35,1030,12.74,12.74,0,0,1,350.64,1042.75Zm-85-.71a12,12,0,1,1,12-12A12,12,0,0,1,265.65,1042Zm-84.94-.45A11.56,11.56,0,1,1,192.27,1030,11.54,11.54,0,0,1,180.71,1041.59Zm-84.93-.7A10.85,10.85,0,1,1,106.63,1030,10.88,10.88,0,0,1,95.78,1040.89Zm-84.93-4.5A6.36,6.36,0,1,1,17.2,1030,6.33,6.33,0,0,1,10.85,1036.39Zm1953.5,104a25.42,25.42,0,1,1,25.43-25.42A25.4,25.4,0,0,1,1964.35,1140.39Zm-84.93-.71a24.72,24.72,0,1,1,24.72-24.71A24.68,24.68,0,0,1,1879.42,1139.68Zm-84.93-.7a24,24,0,1,1,24-24A24,24,0,0,1,1794.49,1139Zm-84.93-.45a23.56,23.56,0,1,1,23.56-23.56A23.54,23.54,0,0,1,1709.56,1138.53Zm-84.93-.71a22.86,22.86,0,1,1,22.85-22.85A22.82,22.82,0,0,1,1624.63,1137.82Zm-84.94-.45a22.41,22.41,0,1,1,22.41-22.4A22.42,22.42,0,0,1,1539.69,1137.37Zm-84.93-.7a21.7,21.7,0,1,1,21.7-21.7A21.72,21.72,0,0,1,1454.76,1136.67Zm-84.93-.71a21,21,0,1,1,21-21A21,21,0,0,1,1369.83,1136Zm-84.93-.51a20.48,20.48,0,1,1,20.48-20.48A20.49,20.49,0,0,1,1284.9,1135.45Zm-84.94-.71a19.77,19.77,0,1,1,19.78-19.77A19.78,19.78,0,0,1,1200,1134.74ZM1115,1134A19.07,19.07,0,1,1,1134.1,1115,19.06,19.06,0,0,1,1115,1134Zm-84.93-.44a18.62,18.62,0,1,1,18.62-18.62A18.64,18.64,0,0,1,1030.1,1133.59Zm-84.93-.71A17.91,17.91,0,1,1,963.08,1115,17.92,17.92,0,0,1,945.17,1132.88Zm-84.93-.71a17.21,17.21,0,1,1,17.2-17.2A17.2,17.2,0,0,1,860.24,1132.17Zm-84.94-.45A16.69,16.69,0,1,1,792,1115,16.7,16.7,0,0,1,775.3,1131.72Zm-84.93-.7a16,16,0,1,1,16-16A16,16,0,0,1,690.37,1131Zm-84.93-.71A15.28,15.28,0,1,1,620.72,1115,15.28,15.28,0,0,1,605.44,1130.31Zm-84.93-.7A14.58,14.58,0,1,1,535.08,1115,14.57,14.57,0,0,1,520.51,1129.61Zm-84.94-.52A14.12,14.12,0,1,1,449.7,1115,14.12,14.12,0,0,1,435.57,1129.09Zm-84.93-.7A13.42,13.42,0,1,1,364.06,1115,13.45,13.45,0,0,1,350.64,1128.39Zm-85-.71A12.71,12.71,0,1,1,278.36,1115,12.74,12.74,0,0,1,265.65,1127.68Zm-84.94-.71a12,12,0,1,1,12-12A12,12,0,0,1,180.71,1127Zm-84.93-.45A11.56,11.56,0,1,1,107.34,1115,11.54,11.54,0,0,1,95.78,1126.52Zm-84.93-4.68a6.81,6.81,0,1,1,6.8-6.81A6.81,6.81,0,0,1,10.85,1121.84Zm1953.5,104a25.94,25.94,0,1,1,25.94-25.94A25.95,25.95,0,0,1,1964.35,1225.84Zm-84.93-.52a25.42,25.42,0,1,1,25.42-25.42A25.39,25.39,0,0,1,1879.42,1225.32Zm-84.93-.7a24.72,24.72,0,1,1,24.72-24.72A24.7,24.7,0,0,1,1794.49,1224.62Zm-84.93-.71a24,24,0,1,1,24-24A24,24,0,0,1,1709.56,1223.91Zm-84.93-.45a23.56,23.56,0,1,1,23.56-23.56A23.53,23.53,0,0,1,1624.63,1223.46Zm-84.94-.71a22.85,22.85,0,1,1,22.86-22.85A22.82,22.82,0,0,1,1539.69,1222.75Zm-84.93-.44a22.41,22.41,0,1,1,22.41-22.41A22.43,22.43,0,0,1,1454.76,1222.31Zm-84.93-.71a21.7,21.7,0,1,1,21.7-21.7A21.71,21.71,0,0,1,1369.83,1221.6Zm-84.93-.71a21,21,0,1,1,21-21A21,21,0,0,1,1284.9,1220.89Zm-84.94-.51a20.48,20.48,0,1,1,20.48-20.48A20.49,20.49,0,0,1,1200,1220.38Zm-84.93-.71a19.77,19.77,0,1,1,19.78-19.77A19.78,19.78,0,0,1,1115,1219.67Zm-84.93-.7a19.07,19.07,0,1,1,19.07-19.07A19.07,19.07,0,0,1,1030.1,1219Zm-84.93-.45a18.62,18.62,0,1,1,18.62-18.62A18.64,18.64,0,0,1,945.17,1218.52Zm-84.93-.71a17.91,17.91,0,1,1,17.91-17.91A17.92,17.92,0,0,1,860.24,1217.81Zm-84.94-.7a17.21,17.21,0,1,1,17.21-17.21A17.21,17.21,0,0,1,775.3,1217.11Zm-84.93-.45a16.7,16.7,0,1,1,16.69-16.7A16.71,16.71,0,0,1,690.37,1216.66Zm-84.93-.71a16,16,0,1,1,16-16A16,16,0,0,1,605.44,1216Zm-84.93-.71A15.28,15.28,0,1,1,535.79,1200,15.27,15.27,0,0,1,520.51,1215.24Zm-84.94-.7A14.58,14.58,0,1,1,450.15,1200,14.57,14.57,0,0,1,435.57,1214.54Zm-84.93-.52a14.12,14.12,0,1,1,14.13-14.12A14.12,14.12,0,0,1,350.64,1214Zm-85-.7a13.42,13.42,0,1,1,13.41-13.42A13.42,13.42,0,0,1,265.65,1213.32Zm-84.94-.71a12.71,12.71,0,1,1,12.71-12.71A12.74,12.74,0,0,1,180.71,1212.61Zm-84.93-.7a12,12,0,1,1,12-12A12,12,0,0,1,95.78,1211.91Zm-84.93-4.69a7.32,7.32,0,1,1,7.32-7.32A7.32,7.32,0,0,1,10.85,1207.22Zm1953.5,104.25a26.64,26.64,0,1,1,26.65-26.64A26.66,26.66,0,0,1,1964.35,1311.47Zm-84.93-.7a25.94,25.94,0,1,1,25.94-25.94A25.95,25.95,0,0,1,1879.42,1310.77Zm-84.93-.52a25.42,25.42,0,1,1,25.42-25.42A25.39,25.39,0,0,1,1794.49,1310.25Zm-84.93-.7a24.72,24.72,0,1,1,24.71-24.72A24.68,24.68,0,0,1,1709.56,1309.55Zm-84.93-.71a24,24,0,1,1,24-24A24,24,0,0,1,1624.63,1308.84Zm-84.94-.45a23.56,23.56,0,1,1,23.56-23.56A23.54,23.54,0,0,1,1539.69,1308.39Zm-84.93-.7a22.86,22.86,0,1,1,22.86-22.86A22.82,22.82,0,0,1,1454.76,1307.69Zm-84.93-.45a22.41,22.41,0,1,1,22.4-22.41A22.43,22.43,0,0,1,1369.83,1307.24Zm-84.93-.71a21.7,21.7,0,1,1,21.7-21.7A21.71,21.71,0,0,1,1284.9,1306.53Zm-84.94-.7a21,21,0,1,1,21-21A21,21,0,0,1,1200,1305.83Zm-84.93-.52a20.48,20.48,0,1,1,20.48-20.48A20.49,20.49,0,0,1,1115,1305.31Zm-84.93-.7a19.78,19.78,0,1,1,19.77-19.78A19.78,19.78,0,0,1,1030.1,1304.61Zm-84.93-.71a19.07,19.07,0,1,1,19.06-19.07A19.07,19.07,0,0,1,945.17,1303.9Zm-84.93-.45a18.62,18.62,0,1,1,18.61-18.62A18.63,18.63,0,0,1,860.24,1303.45Zm-84.94-.71a17.91,17.91,0,1,1,17.91-17.91A17.92,17.92,0,0,1,775.3,1302.74Zm-84.93-.7a17.21,17.21,0,1,1,17.21-17.21A17.21,17.21,0,0,1,690.37,1302Zm-84.93-.45a16.69,16.69,0,1,1,16.69-16.69A16.69,16.69,0,0,1,605.44,1301.59Zm-84.93-.71a16,16,0,1,1,16-16A16,16,0,0,1,520.51,1300.88Zm-84.94-.7a15.28,15.28,0,1,1,15.28-15.28A15.27,15.27,0,0,1,435.57,1300.18Zm-84.93-.71a14.58,14.58,0,1,1,14.58-14.57A14.56,14.56,0,0,1,350.64,1299.47Zm-85-.51a14.13,14.13,0,1,1,14.12-14.13A14.13,14.13,0,0,1,265.65,1299Zm-84.94-.71a13.42,13.42,0,1,1,13.42-13.42A13.45,13.45,0,0,1,180.71,1298.25Zm-84.93-.71a12.71,12.71,0,1,1,12.71-12.71A12.74,12.74,0,0,1,95.78,1297.54Zm-84.93-5.13a7.51,7.51,0,1,1,7.51-7.51A7.52,7.52,0,0,1,10.85,1292.41Zm1953.5,104.45a27.1,27.1,0,1,1,27.1-27.1A27.11,27.11,0,0,1,1964.35,1396.86Zm-84.93-.45a26.65,26.65,0,1,1,26.64-26.65A26.66,26.66,0,0,1,1879.42,1396.41Zm-84.93-.71a25.94,25.94,0,1,1,25.94-25.94A25.95,25.95,0,0,1,1794.49,1395.7Zm-84.93-.51a25.43,25.43,0,1,1,25.42-25.43A25.4,25.4,0,0,1,1709.56,1395.19Zm-84.93-.71a24.72,24.72,0,1,1,24.71-24.72A24.68,24.68,0,0,1,1624.63,1394.48Zm-84.94-.71a24,24,0,1,1,24-24A24,24,0,0,1,1539.69,1393.77Zm-84.93-.44a23.57,23.57,0,1,1,23.56-23.57A23.54,23.54,0,0,1,1454.76,1393.33Zm-84.93-.71a22.86,22.86,0,1,1,22.85-22.86A22.82,22.82,0,0,1,1369.83,1392.62Zm-84.93-.45a22.41,22.41,0,1,1,22.4-22.41A22.43,22.43,0,0,1,1284.9,1392.17Zm-84.94-.71a21.7,21.7,0,1,1,21.7-21.7A21.7,21.7,0,0,1,1200,1391.46Zm-84.93-.7a21,21,0,1,1,21-21A21,21,0,0,1,1115,1390.76Zm-84.93-.52a20.48,20.48,0,1,1,20.48-20.48A20.49,20.49,0,0,1,1030.1,1390.24Zm-84.93-.7a19.78,19.78,0,1,1,19.77-19.78A19.78,19.78,0,0,1,945.17,1389.54Zm-84.93-.71a19.07,19.07,0,1,1,19.06-19.07A19.07,19.07,0,0,1,860.24,1388.83Zm-84.94-.45a18.62,18.62,0,1,1,18.62-18.62A18.62,18.62,0,0,1,775.3,1388.38Zm-84.93-.7a17.92,17.92,0,1,1,17.91-17.92A17.93,17.93,0,0,1,690.37,1387.68Zm-84.93-.71a17.21,17.21,0,1,1,17.2-17.21A17.21,17.21,0,0,1,605.44,1387Zm-84.93-.45a16.69,16.69,0,1,1,16.69-16.69A16.69,16.69,0,0,1,520.51,1386.52Zm-84.94-.71a16,16,0,1,1,16-16A16,16,0,0,1,435.57,1385.81Zm-84.93-.7a15.28,15.28,0,1,1,15.28-15.28A15.28,15.28,0,0,1,350.64,1385.11Zm-85-.71a14.57,14.57,0,1,1,14.57-14.57A14.57,14.57,0,0,1,265.65,1384.4Zm-84.94-.51a14.13,14.13,0,1,1,14.13-14.13A14.13,14.13,0,0,1,180.71,1383.89Zm-84.93-.71a13.42,13.42,0,1,1,13.42-13.42A13.45,13.45,0,0,1,95.78,1383.18Zm-84.93-5.39a8,8,0,1,1,8-8A8,8,0,0,1,10.85,1377.79Zm1953.5,104.7a27.8,27.8,0,1,1,27.8-27.79A27.8,27.8,0,0,1,1964.35,1482.49Zm-84.93-.7a27.09,27.09,0,1,1,27.09-27.09A27.09,27.09,0,0,1,1879.42,1481.79Zm-84.93-.45a26.64,26.64,0,1,1,26.64-26.64A26.66,26.66,0,0,1,1794.49,1481.34Zm-84.93-.71a25.94,25.94,0,1,1,25.93-25.93A25.95,25.95,0,0,1,1709.56,1480.63Zm-84.93-.51a25.42,25.42,0,1,1,25.42-25.42A25.4,25.4,0,0,1,1624.63,1480.12Zm-84.94-.71a24.72,24.72,0,1,1,24.72-24.71A24.68,24.68,0,0,1,1539.69,1479.41Zm-84.93-.7a24,24,0,1,1,24-24A24,24,0,0,1,1454.76,1478.71Zm-84.93-.45a23.56,23.56,0,1,1,23.56-23.56A23.54,23.54,0,0,1,1369.83,1478.26Zm-84.93-.71a22.86,22.86,0,1,1,22.85-22.85A22.83,22.83,0,0,1,1284.9,1477.55Zm-84.94-.45a22.41,22.41,0,1,1,22.41-22.4A22.42,22.42,0,0,1,1200,1477.1Zm-84.93-.7a21.7,21.7,0,1,1,21.7-21.7A21.72,21.72,0,0,1,1115,1476.4Zm-84.93-.71a21,21,0,1,1,21-21A21,21,0,0,1,1030.1,1475.69Zm-84.93-.51a20.48,20.48,0,1,1,20.48-20.48A20.49,20.49,0,0,1,945.17,1475.18Zm-84.93-.71A19.78,19.78,0,1,1,880,1454.7,19.78,19.78,0,0,1,860.24,1474.47Zm-84.94-.71a19.07,19.07,0,1,1,19.07-19.06A19.06,19.06,0,0,1,775.3,1473.76Zm-84.93-.45A18.62,18.62,0,1,1,709,1454.7,18.63,18.63,0,0,1,690.37,1473.31Zm-84.93-.7a17.91,17.91,0,1,1,17.91-17.91A17.92,17.92,0,0,1,605.44,1472.61Zm-84.93-.71a17.21,17.21,0,1,1,17.2-17.2A17.21,17.21,0,0,1,520.51,1471.9Zm-84.94-.45a16.69,16.69,0,1,1,16.7-16.69A16.7,16.7,0,0,1,435.57,1471.45Zm-84.93-.7a16,16,0,1,1,16-16A16,16,0,0,1,350.64,1470.75Zm-85-.71a15.28,15.28,0,1,1,15.27-15.28A15.27,15.27,0,0,1,265.65,1470Zm-84.94-.71a14.57,14.57,0,1,1,14.58-14.57A14.55,14.55,0,0,1,180.71,1469.33Zm-84.93-.51a14.13,14.13,0,1,1,14.12-14.12A14.12,14.12,0,0,1,95.78,1468.82Zm-84.93-5.65a8.48,8.48,0,1,1,8.47-8.47A8.46,8.46,0,0,1,10.85,1463.17Zm1953.5,105a28.5,28.5,0,1,1,28.51-28.5A28.52,28.52,0,0,1,1964.35,1568.13Zm-84.93-.7a27.8,27.8,0,1,1,27.8-27.8A27.81,27.81,0,0,1,1879.42,1567.43Zm-84.93-.71a27.09,27.09,0,1,1,27.09-27.09A27.09,27.09,0,0,1,1794.49,1566.72Zm-84.93-.45a26.64,26.64,0,1,1,26.64-26.64A26.66,26.66,0,0,1,1709.56,1566.27Zm-84.93-.71a25.94,25.94,0,1,1,25.93-25.93A25.94,25.94,0,0,1,1624.63,1565.56Zm-84.94-.51a25.42,25.42,0,1,1,25.43-25.42A25.39,25.39,0,0,1,1539.69,1565.05Zm-84.93-.7a24.72,24.72,0,1,1,24.72-24.72A24.69,24.69,0,0,1,1454.76,1564.35Zm-84.93-.71a24,24,0,1,1,24-24A24,24,0,0,1,1369.83,1563.64Zm-84.93-.45a23.56,23.56,0,1,1,23.56-23.56A23.54,23.54,0,0,1,1284.9,1563.19Zm-84.94-.71a22.85,22.85,0,1,1,22.86-22.85A22.82,22.82,0,0,1,1200,1562.48ZM1115,1562a22.41,22.41,0,1,1,22.41-22.4A22.42,22.42,0,0,1,1115,1562Zm-84.93-.7a21.7,21.7,0,1,1,21.7-21.7A21.72,21.72,0,0,1,1030.1,1561.33Zm-84.93-.71a21,21,0,1,1,21-21A21,21,0,0,1,945.17,1560.62Zm-84.93-.51a20.48,20.48,0,1,1,20.47-20.48A20.49,20.49,0,0,1,860.24,1560.11Zm-84.94-.71a19.77,19.77,0,1,1,19.78-19.77A19.78,19.78,0,0,1,775.3,1559.4Zm-84.93-.7a19.07,19.07,0,1,1,19.07-19.07A19.07,19.07,0,0,1,690.37,1558.7Zm-84.93-.45a18.62,18.62,0,1,1,18.62-18.62A18.64,18.64,0,0,1,605.44,1558.25Zm-84.93-.71a17.91,17.91,0,1,1,17.91-17.91A17.91,17.91,0,0,1,520.51,1557.54Zm-84.94-.71a17.21,17.21,0,1,1,17.21-17.2A17.2,17.2,0,0,1,435.57,1556.83Zm-84.93-.45a16.69,16.69,0,1,1,16.69-16.69A16.7,16.7,0,0,1,350.64,1556.38Zm-85-.7a16,16,0,1,1,16-16A16,16,0,0,1,265.65,1555.68Zm-84.94-.71A15.28,15.28,0,1,1,196,1539.69,15.28,15.28,0,0,1,180.71,1555Zm-84.93-.7a14.58,14.58,0,1,1,14.57-14.58A14.56,14.56,0,0,1,95.78,1554.27Zm-84.93-5.65a8.93,8.93,0,1,1,8.92-8.93A8.9,8.9,0,0,1,10.85,1548.62Zm1953.5,105a29,29,0,1,1,29-28.95A29,29,0,0,1,1964.35,1653.58Zm-84.93-.51a28.51,28.51,0,1,1,28.51-28.51A28.52,28.52,0,0,1,1879.42,1653.07Zm-84.93-.71a27.8,27.8,0,1,1,27.8-27.8A27.82,27.82,0,0,1,1794.49,1652.36Zm-84.93-.71a27.09,27.09,0,1,1,27.09-27.09A27.09,27.09,0,0,1,1709.56,1651.65Zm-84.93-.45a26.64,26.64,0,1,1,26.64-26.64A26.66,26.66,0,0,1,1624.63,1651.2Zm-84.94-.7a25.94,25.94,0,1,1,25.94-25.94A25.95,25.95,0,0,1,1539.69,1650.5Zm-84.93-.45a25.43,25.43,0,1,1,25.42-25.42A25.4,25.4,0,0,1,1454.76,1650.05Zm-84.93-.71a24.72,24.72,0,1,1,24.71-24.71A24.69,24.69,0,0,1,1369.83,1649.34Zm-84.93-.7a24,24,0,1,1,24-24A24,24,0,0,1,1284.9,1648.64Zm-84.94-.52a23.56,23.56,0,1,1,23.56-23.56A23.54,23.54,0,0,1,1200,1648.12Zm-84.93-.7a22.86,22.86,0,1,1,22.86-22.86A22.83,22.83,0,0,1,1115,1647.42Zm-84.93-.45a22.41,22.41,0,1,1,22.4-22.41A22.42,22.42,0,0,1,1030.1,1647Zm-84.93-.71a21.7,21.7,0,1,1,21.7-21.7A21.71,21.71,0,0,1,945.17,1646.26Zm-84.93-.71a21,21,0,1,1,21-21A21,21,0,0,1,860.24,1645.55ZM775.3,1645a20.48,20.48,0,1,1,20.48-20.48A20.49,20.49,0,0,1,775.3,1645Zm-84.93-.71a19.77,19.77,0,1,1,19.77-19.77A19.77,19.77,0,0,1,690.37,1644.33Zm-84.93-.7a19.07,19.07,0,1,1,19.07-19.07A19.07,19.07,0,0,1,605.44,1643.63Zm-84.93-.45a18.62,18.62,0,1,1,18.61-18.62A18.64,18.64,0,0,1,520.51,1643.18Zm-84.94-.71a17.91,17.91,0,1,1,17.92-17.91A17.92,17.92,0,0,1,435.57,1642.47Zm-84.93-.7a17.21,17.21,0,1,1,17.21-17.21A17.21,17.21,0,0,1,350.64,1641.77Zm-85-.45a16.7,16.7,0,1,1,16.69-16.69A16.7,16.7,0,0,1,265.65,1641.32Zm-84.94-.71a16,16,0,1,1,16-16A16,16,0,0,1,180.71,1640.61Zm-84.93-.71a15.28,15.28,0,1,1,15.28-15.27A15.27,15.27,0,0,1,95.78,1639.9Zm-84.93-6.16a9.18,9.18,0,1,1,9.18-9.18A9.18,9.18,0,0,1,10.85,1633.74Zm1953.5,105.48a29.66,29.66,0,1,1,29.66-29.66A29.67,29.67,0,0,1,1964.35,1739.22Zm-84.93-.71a29,29,0,1,1,29-29A29,29,0,0,1,1879.42,1738.51Zm-84.93-.51a28.51,28.51,0,1,1,28.5-28.51A28.52,28.52,0,0,1,1794.49,1738Zm-84.93-.71a27.8,27.8,0,1,1,27.8-27.8A27.81,27.81,0,0,1,1709.56,1737.29Zm-84.93-.7a27.1,27.1,0,1,1,27.09-27.1A27.11,27.11,0,0,1,1624.63,1736.59Zm-84.94-.45a26.65,26.65,0,1,1,26.65-26.65A26.67,26.67,0,0,1,1539.69,1736.14Zm-84.93-.71a25.94,25.94,0,1,1,25.94-25.94A25.95,25.95,0,0,1,1454.76,1735.43Zm-84.93-.45a25.42,25.42,0,1,1,25.42-25.42A25.39,25.39,0,0,1,1369.83,1735Zm-84.93-.71a24.72,24.72,0,1,1,24.71-24.71A24.68,24.68,0,0,1,1284.9,1734.27Zm-84.94-.7a24,24,0,1,1,24-24A24,24,0,0,1,1200,1733.57Zm-84.93-.52a23.56,23.56,0,1,1,23.56-23.56A23.53,23.53,0,0,1,1115,1733.05Zm-84.93-.7a22.86,22.86,0,1,1,22.85-22.86A22.82,22.82,0,0,1,1030.1,1732.35Zm-84.93-.45a22.41,22.41,0,1,1,22.4-22.41A22.43,22.43,0,0,1,945.17,1731.9Zm-84.93-.71a21.7,21.7,0,1,1,21.69-21.7A21.71,21.71,0,0,1,860.24,1731.19Zm-84.94-.7a21,21,0,1,1,21-21A21,21,0,0,1,775.3,1730.49Zm-84.93-.45a20.48,20.48,0,1,1,20.48-20.48A20.49,20.49,0,0,1,690.37,1730Zm-84.93-.71a19.77,19.77,0,1,1,19.77-19.77A19.78,19.78,0,0,1,605.44,1729.33Zm-84.93-.71a19.07,19.07,0,1,1,19.06-19.06A19.06,19.06,0,0,1,520.51,1728.62Zm-84.94-.51a18.62,18.62,0,1,1,18.62-18.62A18.62,18.62,0,0,1,435.57,1728.11Zm-84.93-.71a17.91,17.91,0,1,1,17.91-17.91A17.92,17.92,0,0,1,350.64,1727.4Zm-85-.7a17.21,17.21,0,1,1,17.2-17.21A17.21,17.21,0,0,1,265.65,1726.7Zm-84.94-.45a16.69,16.69,0,1,1,16.69-16.69A16.7,16.7,0,0,1,180.71,1726.25Zm-84.93-.71a16,16,0,1,1,16-16A16,16,0,0,1,95.78,1725.54Zm-84.93-6.35a9.63,9.63,0,1,1,9.63-9.63A9.62,9.62,0,0,1,10.85,1719.19Zm1953.5,105.41a30.18,30.18,0,1,1,30.18-30.17A30.18,30.18,0,0,1,1964.35,1824.6Zm-84.93-.45a29.66,29.66,0,1,1,29.66-29.66A29.67,29.67,0,0,1,1879.42,1824.15Zm-84.93-.71a29,29,0,1,1,29-29A29,29,0,0,1,1794.49,1823.44Zm-84.93-.51a28.51,28.51,0,1,1,28.5-28.5A28.53,28.53,0,0,1,1709.56,1822.93Zm-84.93-.71a27.8,27.8,0,1,1,27.79-27.79A27.8,27.8,0,0,1,1624.63,1822.22Zm-84.94-.7a27.09,27.09,0,1,1,27.09-27.09A27.1,27.1,0,0,1,1539.69,1821.52Zm-84.93-.45a26.65,26.65,0,1,1,26.64-26.64A26.66,26.66,0,0,1,1454.76,1821.07Zm-84.93-.71a25.94,25.94,0,1,1,25.93-25.93A25.95,25.95,0,0,1,1369.83,1820.36Zm-84.93-.45a25.42,25.42,0,1,1,25.42-25.42A25.39,25.39,0,0,1,1284.9,1819.91Zm-84.94-.7a24.72,24.72,0,1,1,24.72-24.72A24.69,24.69,0,0,1,1200,1819.21Zm-84.93-.71a24,24,0,1,1,24-24A24,24,0,0,1,1115,1818.5Zm-84.93-.51a23.56,23.56,0,1,1,23.56-23.56A23.54,23.54,0,0,1,1030.1,1818Zm-84.93-.71A22.86,22.86,0,1,1,968,1794.43,22.83,22.83,0,0,1,945.17,1817.28Zm-84.93-.45a22.41,22.41,0,1,1,22.4-22.4A22.42,22.42,0,0,1,860.24,1816.83Zm-84.94-.71a21.7,21.7,0,1,1,21.7-21.69A21.7,21.7,0,0,1,775.3,1816.12Zm-84.93-.7a21,21,0,1,1,21-21A21,21,0,0,1,690.37,1815.42Zm-84.93-.45a20.48,20.48,0,1,1,20.48-20.48A20.49,20.49,0,0,1,605.44,1815Zm-84.93-.71a19.77,19.77,0,1,1,19.77-19.77A19.78,19.78,0,0,1,520.51,1814.26Zm-84.94-.7a19.07,19.07,0,1,1,19.07-19.07A19.07,19.07,0,0,1,435.57,1813.56Zm-84.93-.52a18.62,18.62,0,1,1,18.62-18.61A18.62,18.62,0,0,1,350.64,1813Zm-85-.7a17.91,17.91,0,1,1,17.91-17.91A17.92,17.92,0,0,1,265.65,1812.34Zm-84.94-.71a17.21,17.21,0,1,1,17.21-17.2A17.2,17.2,0,0,1,180.71,1811.63Zm-84.93-.45a16.69,16.69,0,1,1,16.69-16.69A16.7,16.7,0,0,1,95.78,1811.18Zm-84.93-6.61A10.15,10.15,0,1,1,21,1794.43,10.16,10.16,0,0,1,10.85,1804.57ZM1964.35,1910a30.62,30.62,0,1,1,30.63-30.62A30.66,30.66,0,0,1,1964.35,1910Zm-84.93-.45a30.17,30.17,0,1,1,30.18-30.17A30.18,30.18,0,0,1,1879.42,1909.53Zm-84.93-.45a29.66,29.66,0,1,1,29.66-29.66A29.67,29.67,0,0,1,1794.49,1909.08Zm-84.93-.7a29,29,0,1,1,29-29A29,29,0,0,1,1709.56,1908.38Zm-84.93-.52a28.5,28.5,0,1,1,28.5-28.5A28.52,28.52,0,0,1,1624.63,1907.86Zm-84.94-.7a27.8,27.8,0,1,1,27.8-27.8A27.81,27.81,0,0,1,1539.69,1907.16Zm-84.93-.71a27.09,27.09,0,1,1,27.09-27.09A27.09,27.09,0,0,1,1454.76,1906.45Zm-84.93-.45a26.64,26.64,0,1,1,26.64-26.64A26.66,26.66,0,0,1,1369.83,1906Zm-84.93-.71a25.94,25.94,0,1,1,25.93-25.93A25.95,25.95,0,0,1,1284.9,1905.29Zm-84.94-.45a25.42,25.42,0,1,1,25.43-25.42A25.4,25.4,0,0,1,1200,1904.84Zm-84.93-.7a24.72,24.72,0,1,1,24.72-24.72A24.68,24.68,0,0,1,1115,1904.14Zm-84.93-.71a24,24,0,1,1,24-24A24,24,0,0,1,1030.1,1903.43Zm-84.93-.51a23.56,23.56,0,1,1,23.56-23.56A23.54,23.54,0,0,1,945.17,1902.92Zm-84.93-.71a22.86,22.86,0,1,1,22.85-22.85A22.82,22.82,0,0,1,860.24,1902.21Zm-84.94-.45a22.41,22.41,0,1,1,22.41-22.4A22.42,22.42,0,0,1,775.3,1901.76Zm-84.93-.7a21.7,21.7,0,1,1,21.7-21.7A21.72,21.72,0,0,1,690.37,1901.06Zm-84.93-.71a21,21,0,1,1,21-21A21,21,0,0,1,605.44,1900.35Zm-84.93-.45A20.48,20.48,0,1,1,541,1879.42,20.49,20.49,0,0,1,520.51,1899.9Zm-84.94-.7a19.78,19.78,0,1,1,19.78-19.78A19.78,19.78,0,0,1,435.57,1899.2Zm-84.93-.71a19.07,19.07,0,1,1,19.07-19.07A19.06,19.06,0,0,1,350.64,1898.49Zm-85-.51a18.62,18.62,0,1,1,18.61-18.62A18.63,18.63,0,0,1,265.65,1898Zm-84.94-.71a17.91,17.91,0,1,1,17.91-17.91A17.92,17.92,0,0,1,180.71,1897.27Zm-84.93-.71a17.21,17.21,0,1,1,17.21-17.2A17.2,17.2,0,0,1,95.78,1896.56ZM10.85,1890a10.59,10.59,0,1,1,10.59-10.59A10.6,10.6,0,0,1,10.85,1890Zm1953.5,43a31.33,31.33,0,1,1-31.32,31.33A31.33,31.33,0,0,1,1964.35,1933Zm-84.93.71a30.62,30.62,0,1,1-30.62,30.62A30.65,30.65,0,0,1,1879.42,1933.67Zm-84.93.51a30.18,30.18,0,1,1-30.17,30.17A30.17,30.17,0,0,1,1794.49,1934.18Zm-84.93.45a29.66,29.66,0,1,1-29.66,29.66A29.67,29.67,0,0,1,1709.56,1934.63Zm-84.93.71a29,29,0,1,1-29,29A29,29,0,0,1,1624.63,1935.34Zm-84.94.51a28.51,28.51,0,1,1-28.5,28.5A28.53,28.53,0,0,1,1539.69,1935.85Zm-84.93.71a27.8,27.8,0,1,1-27.8,27.79A27.81,27.81,0,0,1,1454.76,1936.56Zm-84.93.7a27.1,27.1,0,1,1-27.09,27.09A27.1,27.1,0,0,1,1369.83,1937.26Zm-84.93.45a26.65,26.65,0,1,1-26.64,26.64A26.66,26.66,0,0,1,1284.9,1937.71Zm-84.94.71a25.94,25.94,0,1,1-25.93,25.93A25.95,25.95,0,0,1,1200,1938.42Zm-84.93.45a25.42,25.42,0,1,1-25.42,25.42A25.39,25.39,0,0,1,1115,1938.87Zm-84.93.7a24.72,24.72,0,1,1-24.72,24.72A24.7,24.7,0,0,1,1030.1,1939.57Zm-84.93.71a24,24,0,1,1-24,24A24,24,0,0,1,945.17,1940.28Zm-84.93.51a23.57,23.57,0,1,1-23.56,23.56A23.54,23.54,0,0,1,860.24,1940.79Zm-84.94.71a22.86,22.86,0,1,1-22.85,22.85A22.83,22.83,0,0,1,775.3,1941.5Zm-84.93.45a22.41,22.41,0,1,1-22.4,22.4A22.42,22.42,0,0,1,690.37,1942Zm-84.93.71a21.7,21.7,0,1,1-21.7,21.69A21.71,21.71,0,0,1,605.44,1942.66Zm-84.93.7a21,21,0,1,1-21,21A21,21,0,0,1,520.51,1943.36Zm-84.94.45a20.48,20.48,0,1,1-20.47,20.48A20.49,20.49,0,0,1,435.57,1943.81Zm-84.93.71a19.77,19.77,0,1,1-19.77,19.77A19.77,19.77,0,0,1,350.64,1944.52Zm-85,.7a19.07,19.07,0,1,1-19.07,19.07A19.07,19.07,0,0,1,265.65,1945.22Zm-84.94.52a18.62,18.62,0,1,1-18.61,18.61A18.62,18.62,0,0,1,180.71,1945.74Zm-84.93.7a17.92,17.92,0,1,1-17.91,17.91A17.92,17.92,0,0,1,95.78,1946.44Zm-84.93,7.07A10.85,10.85,0,1,1,0,1964.35,10.87,10.87,0,0,1,10.85,1953.51Z"/></g></g></g></g></svg>