<svg xmlns="http://www.w3.org/2000/svg" viewBox="0 0 1456.81 1143.99"><defs><style>.cls-1{fill:#9f1111;}</style></defs><title>fd8f6be7-02fe-4e05-88d9-c5fb54a02b66roster</title><g id="Layer_2" data-name="Layer 2"><g id="Layer_1-2" data-name="Layer 1"><g id="fd8f6be7-02fe-4e05-88d9-c5fb54a02b66"><g id="fd8f6be7-02fe-4e05-88d9-c5fb54a02b66-child-0"><path class="cls-1" d="M1452.91,66.89l-7,1h-8.71c-3.23-1.12-6.51-2.08-9.85-3a174,174,0,0,1-19.52,1.89l-8.77-1a98.41,98.41,0,0,1-18.73,1c-1.3,0-4.53,1-5.66.92a25.52,25.52,0,0,0-6-.84l-8.6,1h-11.94a26.35,26.35,0,0,0-14.49-3.51l-11.94-.5a8.13,8.13,0,0,1,0-2.31,18.44,18.44,0,0,1,4.59-3.08A114.89,114.89,0,0,1,1339.06,53c-6.79-2.55-13.86-4.78-21-6.75-1-2.73-4.7-3.46-6.68-5.39a51.09,51.09,0,0,0,4.47-7.17l-7.87-5.58c-.85-.58,1.59-2.82.57-4.05s-2.26-2.39-3.57-2.27-4.75,1.12-5.65,1.12H1288a17.61,17.61,0,0,1-7.58-3,13.76,13.76,0,0,1-2.27-3.31c0-.58.34-2.66,0-2.93a42.43,42.43,0,0,1-4.07-3.66,13,13,0,0,0-3.79-1.08c-1.64.08-3.34.08-5,0l-6.9-2c-23-.51-45.72-1.05-69.77-1l-13.92-1c-.74,0-2.66-1.81-3.45-2a37.8,37.8,0,0,0-4.64,0,44.67,44.67,0,0,0-8.44-2l-7.52,2.19c-5,.12-10,.46-15,1A143.07,143.07,0,0,1,1116.29,0a16.26,16.26,0,0,0-6.79,1.73V7.32A3.15,3.15,0,0,1,1106.9,9a99.8,99.8,0,0,0-10.24,1.08,154.11,154.11,0,0,0-15.9-2,109.09,109.09,0,0,0-16.69,1.08c-1.59.23-5-1.19-5.66-1a19.93,19.93,0,0,0-7.92,2.81c-13.75,0-25,2.2-38.65,2.12L998.71,9H989.6c-.73,1-2.89,2.27-1.58,3.08a58.2,58.2,0,0,1,8.6,4.89l-30.5,1H929.79l-7.47,1.27a16.57,16.57,0,0,1-5.15-1.58c-1.07-.46-3.51-2.54-4.52-2.89-3.63-1.23-7.13-2.54-10.7-3.58H889.5c-.51,0-2,1.39-2.54,1.43a37.78,37.78,0,0,1-6.57-.35,8.73,8.73,0,0,0-5.66,1.85A45.77,45.77,0,0,1,871,18.61a14.33,14.33,0,0,1-5.21,1.5c-20.93.77-41.58,2.08-63.26,2.08l-9-1a69.14,69.14,0,0,1-15.22,1L760.38,26c-1.13.27-4.7-.27-5.66,0l-10,3c-2,.08-4,.08-6,0l-14,1.85-16.18,1c-7.92,0-15.45-1.11-24-1a20.7,20.7,0,0,0-5.09,1.55c-.68.3-2.27,1.69-2.95,2a26.6,26.6,0,0,1-4.75,1.35,202.63,202.63,0,0,1-25.63,1.11l-6.4-.92c-13.35,1.46-27.84,1.85-40.17,3-7.36-1.35-14.83-2.35-22.35-3a114,114,0,0,1-13.64,1c-10.64-.27-19.75-2-30.61-1.81-8.43,0-16.47.89-25.35.89a76.19,76.19,0,0,1-12.39-3H484.81c-.68,0-3.17-1.69-3.05-2a63.6,63.6,0,0,0,2-21.35,3.37,3.37,0,0,0-1.42-1.12,13.68,13.68,0,0,0-3,0,7.58,7.58,0,0,0-2.2,1.51l-6,8-2.26,5.13c0,.61.56,3,0,3.46a103.86,103.86,0,0,0-10,5.78l-18.62,7a53.33,53.33,0,0,0-13.12,0l-12.45,1.5-8,5c-10.3.35-19.8,1.19-29.42,2a4.49,4.49,0,0,0-1.7,1,3,3,0,0,0,0,2,6.29,6.29,0,0,0,1.53.85,78.06,78.06,0,0,0,17,1v3.08l-10,1H362.14c-5.32-8.86-6.62-18.57-3.68-27.93a13.77,13.77,0,0,0,0-3,35.33,35.33,0,0,0-6.34,0l-8.26,3.86a11.67,11.67,0,0,1-2.77,0c-2-.54-4.47-.89-5.66-2-2.55-2.35-4.36-5.08-7-7.4-1-.88-2.21,0-2.71.51a5.32,5.32,0,0,0-1.7,3.85c.39,2.08,1.53,4.12,1.64,6.24,0,.54-3.11,2-3.11,2.43v6.55c-4.87,3.93-7.47,8.94-7.42,14.06v8.63a20.07,20.07,0,0,1-3,6,6.65,6.65,0,0,1-5,1.81c-14.72.39-28.58,1.47-42.78,2.24-8.26-.43-16-1.08-24.73-1a13.62,13.62,0,0,1-9.9-1.12c-12.34.27-23.14,1.62-36,1.12l-14.42-1c-4-.51-7.81-1.62-11.32-2l-11.32,1.08H131.84c-2.38-.69-4.87-1.27-7.35-1.77l-10.81,2a50.33,50.33,0,0,1-9.11-.5c-23.15.16-46.34-.58-69.37-2.23A36.92,36.92,0,0,1,23.37,68c-6.39-1-14-2.85-20.88-1.07-.85.3-1.7.65-2.49,1v5a161.75,161.75,0,0,0,16.47,4.47l9.9,1.54H37.69c.67,0,2.65-1.89,3.45-2l6.5-1H69a146.56,146.56,0,0,1,21.28,3.86,6,6,0,0,0,2.6,0,21,21,0,0,1,8-2.66,17.34,17.34,0,0,1,5.66,0l7.07,4.39a99.4,99.4,0,0,0,24.56,7.71c.45,0,3,1.5,2.94,2-.62,2.47-3.22,4.47-6.73,5.2a98,98,0,0,1-15.45,2.51,17.52,17.52,0,0,1-9.9,3.08,32.39,32.39,0,0,0-10.47,5.74v1.5l-6,4.12a16.21,16.21,0,0,1-6.34,1.47c-.9,0-2.88,1.77-3.28,1.85a165.46,165.46,0,0,0-23.2,6.12l-8.48,1.08H31.86a113.86,113.86,0,0,0-20.54,3.12c-2,.62-3.34,1.93-3.4,3.43,2.43,2.93,7.87,4,12.22,2.39H31.35a55.27,55.27,0,0,1,12.39,3c10.13,0,20.31.38,30.39,1.19,18.89,1.58,37.62,4.05,56,7.32l17.94,3.86c1.92.11,3.79.34,5.66.61A89.39,89.39,0,0,0,176,153.61l7.81,2.43,6.74,4.51a10.45,10.45,0,0,1,2.15,3.31,51,51,0,0,1,3,11l.23,25.51a32.13,32.13,0,0,0,1.13,6v9.32l-3,7-3,39.33,4.59,50.09-1.59,5.78a49.17,49.17,0,0,1,2.27,12.37l.79,11,2.94,7,1.53,12.95-1.58,11,3.05,9.28a8.43,8.43,0,0,0,5.66,2.12c2,0,4.53-.88,4.53-2a42.34,42.34,0,0,0-.63-14.37c-.68-11.56-2.83-22.77-5-33.6L206,245.43c1.3-5.24,2.21-10.6,3.06-16.3l2.94-9.32V192.64c0-.69,1.53-2.81,1.53-3.5s-1.53-2.78-1.53-3.47,1.76-3.28,1.53-3.85L212,177.15V169a32.32,32.32,0,0,1,3.74-11.29l6.28-8.32c3-1,5.65-2,8.26-2.66a17.32,17.32,0,0,1,4.07,0l16.47,3.47,7.41,3a12.64,12.64,0,0,1,3.85,2.62,16.13,16.13,0,0,0,5.2,5.55,85.9,85.9,0,0,0,5.21,16.26,17.68,17.68,0,0,1,2.21,3.31v22L273.19,218l1.41,15.15L276.3,331c0,.92-1.58,3-1.58,3.85s1.52,2.81,1.47,3.85c-3.79,45-5.66,91.2-7.47,137.78l-2.94,23.12a46.18,46.18,0,0,0,1.58,18.19,72.1,72.1,0,0,0-1.7,10.86c0,.89,1.76,3.08,1.47,3.85a8.7,8.7,0,0,0-1.35,4.93l1.47,8.13v19.27l1.47,7-1.47,7v33.59c1.81,47.74,4,95.59,7.52,142.06L273.25,759l1.52,4.63V771c0,.73-1.52,2.81-1.52,3.5s1.69,2.85,1.52,3.47l-1.52,4.66-1.65,91.28c-1,34.67-4.18,69.35-5.65,103.41l-1.65,90c0,3.85-1.35,7.4-1.58,11.06,0,.92,1.58,3,1.58,3.85s-1.47,2.78-1.47,3.51V1093c-2.15,11.56-4.41,22.88-5.94,35l1.47,4.74a11.59,11.59,0,0,0-1.3,7.44c.34,1.77,2.1,3.27,4.59,3.85,4.13,0,6.22-2.47,6.79-4.93,2.43-10.6,2.2-22.58,4.69-32.75,0-.66,3.17-2,3.11-2.62a98.77,98.77,0,0,1-1.47-18.61l4.47-78.33-1.47-18c.79-17.88,2.43-35.68,4.47-53.21l1.47-4.66c0-.62-1.47-2.78-1.47-3.47s1.42-2.77,1.47-3.51l1.47-14.68V853.56l1.53-4.62c0-.66-1.53-2.81-1.53-3.51s1.53-2.81,1.53-3.85c-.45-233.52-15.62-474.17,18.05-689.66,8.26-3.28,14.37-6.09,20.83-8.44H339a37.75,37.75,0,0,1,6.33,1.12c9.91,2.73,14.26,9.4,16.41,16.87a107.59,107.59,0,0,1,2.32,30.36c-.51,22.39-2,45-1.19,68.35l2.95,13.95v11l3,20.92v42.15c-2.49,28.71-7.36,57.53-11.89,84.77V448.9l-3,41.88v15.64l-1.52,6,1.47,5.82v24.27l-1.59,10.33,1.59,5-1.47,4.7c-.63,23.11.39,45.23,1.52,67.46l1.48,4.66c0,.66-1.53,2.82-1.53,3.51s1.53,2.77,1.53,3.5v22.27l1.47,4.67-1.47,4.62v12.6l1.47,9-1.47,4.66,1.47,4.51-1.47,5a32.08,32.08,0,0,1,1.41,6.78,8.81,8.81,0,0,0,3.06,2.19,8.66,8.66,0,0,0,2.49,0,7.2,7.2,0,0,0,4.3-3.77,4.51,4.51,0,0,0-.91-4.74A66.71,66.71,0,0,0,368.82,694l-1.48-12.8c14.94-185.47-23-402,50.08-542.82,2.66.81,5.66,1.58,6.68,2a16.48,16.48,0,0,1,3.62,2.47,25.22,25.22,0,0,1,3.85,5.31l1.47,8.67c.39,14.57-1.25,28.36-1.47,42.58V302L433,314.74l-2.89,27,1.25,5.43-4.3,28.28-1.53,18v26l-1.19,4.47c0,.66,1.47,2.82,1.47,3.51s-1.41,2.81-1.41,3.47c.34,51.24,0,102.68,4.64,151.3a19.72,19.72,0,0,0,2.49,9.13,11.86,11.86,0,0,0,8.26,2c1.41,0,4-1.43,4-2.39v-6.36l-3-7a143,143,0,0,1-1.53-20.85c0-.77,1.53-2.89,1.53-3.58s-1.53-2.77-1.53-3.47l-1.52-101.1,1.58-4.66c0-.61-1.53-2.77-1.53-3.47s1.53-2.81,1.53-3.5V420.85c0-.7,1.41-2.82,1.24-3.47a16.09,16.09,0,0,1-1-3.85c0-1.35,1.41-2.93,1-3.86a9.71,9.71,0,0,1-1.19-5c2-15.41,3.28-31.4,5.66-46.23.56-11.25,1.64-22.23,1.53-33.87,0-.77-1.53-2.85-1.53-3.54s1.53-2.81,1.53-3.51v-8.28c0-.69-1.53-2.78-1.53-3.47s1.47-2.81,1.47-3.85c0-15.68-2-30.32-1.47-46.7l1.53-74.82,2.94-20.92v-9a17.31,17.31,0,0,1,5.66-8.86,72.63,72.63,0,0,1,8.65-6c4.87-.58,9.45,1.62,10.36,4.93,4.81,11.06,3.85,25.59,4.07,39.57,0,11.17,1.64,22,1.36,33.56L478,221.85l1.47,8.13v38.53L481,287.65l3,9.33c2.44,14.25,3.17,29.4,4.42,44.23v11.56c-.34,4.2-1.36,8.09-1.3,12.52a2.8,2.8,0,0,0,2.32,1.77c.73,0,3.62.27,4.18,0,2.72-2.16,4.36-4.85,4.53-7.7l2.26-8.33v-12c0-.69-1.75-2.93-1.41-3.58a9.29,9.29,0,0,0,1.36-5.9c-2-15.41-3-31.05-5.94-45.73V219.61l-1.53-7.24a30.47,30.47,0,0,0,1.47-12.52c0-.85,1.81-3.12,1.41-3.86a10,10,0,0,1-1.35-6.39L495.9,178V160l1.53-10.63a30.43,30.43,0,0,1,4.92-11.56l6.34-4.2a19.47,19.47,0,0,1,6,0c2.09.42,4.64.81,5.66,1.77a15.69,15.69,0,0,1,3.28,5.13L526,148.8c0,14.48-2.55,28.32-3,42.38l1.47,22c0,10.56-1.7,20.84-1.53,31.86,0,.74,1.7,2.93,1.42,3.59a8.77,8.77,0,0,0-1.36,4.93,77.33,77.33,0,0,1,1.53,11.29c0,.88-1.53,3-1.53,3.85s1.47,2.77,1.47,3.47v32.25l1.47,4.66-1.47,4.51,1.25,6.24c0,22.19-3.06,43.61-4.53,64.84v46.23l1.53,9.33-1.53,8a360.93,360.93,0,0,1,3,42.39l1.53,16.91a13.64,13.64,0,0,0,5.66,6.32,11.46,11.46,0,0,0,3.28.85c3.51-.08,6.5-1.81,7.13-4.17a6,6,0,0,0,0-2.46,58.88,58.88,0,0,0-5.94-11.56l-1.59-17.72,1.59-4.86-1.48-4.66c-.56-46.23,0-92,2.95-136.31l1.52-4.67c0-.61-1.52-2.77-1.52-3.46s1.69-2.89,1.52-3.51l-1.24-4.66V278.68l-1.47-9.29,1.47-9.32c.85-20.19,2-40.11,1.53-60.84l-1.53-4.51A112.79,112.79,0,0,0,540.66,168a51.81,51.81,0,0,1,2.72-16l3-11,3.74-5.31,5.2-3.47a16.83,16.83,0,0,1,5-1.5h14.94l7.92,5.12a50.46,50.46,0,0,1,5,9.75v71.59c.45,13.52.51,28.62,2.72,40.87l.28,16.3,1.47,12.29c1.7,6.71,4.64,13.06,6,20v7.13a9.13,9.13,0,0,0,3.9,4.51,14.19,14.19,0,0,0,5.66,0c1.64-.58,4.13-1.47,4.13-2.43V310c-3.79-3.28-5.6-7.4-5-11.56l-2.6-13.37c1.76-48.54-12.73-115,11.32-155.62a41.71,41.71,0,0,1,11.32,3c3.39,1.31,5,3.85,7.63,6.44l2.89,12.9c1.36,11.14,1.58,22.54,1.75,34.68,0,3.85,1.14,7.4,1.36,11.06,0,.92-1.58,3-1.58,3.85s1.47,2.77,1.47,3.5v5.63l2.88,10.4c0,.54-1.41,2.7-1.41,3.39s1.36,2.82,1.41,3.51c1.42,21,4.08,41.26,4.53,62.84,0,.69,1.53,2.81,1.53,3.51s-1.53,2.38-1.53,3,1.42,2.81,1.53,3.51l1.47,13v19.27l1.47,4.66-1.47,4.66a246,246,0,0,1-6,50.09v83.45l3,31.25,3,7v18.61c.23,1.77,2,3.31,4.47,3.85a5.14,5.14,0,0,0,4.41-1.46,7.61,7.61,0,0,0,1.53-2.31V524c0-.7,1.59-2.85,1.3-3.39a33.48,33.48,0,0,1-2.6-11.56,301.56,301.56,0,0,1-1.7-38.84c0-.77-1.64-3-1.3-3.47,2.43-3.39.45-7.7,0-11.56a22.19,22.19,0,0,1,.79-9.59c0-.58-1-1.58-.9-1.89s1.41-2.77,1.41-3.62c0-6.74-1.13-12.91-1.41-19.46V396l2.88-9.33,6.06-41.88v-27c-2.72-27-6.11-53.94-7.53-82.14l-2.94-20.92V149.3A38.18,38.18,0,0,1,659.6,138a11.88,11.88,0,0,1,5.21-5.43,55.82,55.82,0,0,1,7.81-2.58c13.52,0,26.19-.78,39.15-1.08A15.23,15.23,0,0,1,717,130.5l8.94,6c.79,2.73,2.54,5,3.11,7.43l5.66,42.58c.28,18.34,0,36.33-.62,54.21-17,197.57,4.3,398.69,5.65,584.05,4,1.58,7.19.89,8.61-.54a13,13,0,0,0,2.32-7c.9-4.39,2.54-8.52,3.67-12.64V798.7c.85-5.9,2.44-11.56,3.17-17.23,0-1-1.7-3.19-1.7-3.85s1.53-2.77,1.53-3.47V743.91l-1.53-27-2.94-16.26V694l-7.52-36.91c-1-7-1-14.29-1.42-21.61,0-.69-1.47-2.77-1.47-3.47s1.47-2.81,1.42-3.66c0-6.16-1.53-11.86-1.53-17.8l3-175.88-1.42-8.17,1.53-8a124.49,124.49,0,0,1-1.53-20.46l2.94-48.36-1.47-20.45c.74-20,3.17-39.42,3.23-60.19a31.08,31.08,0,0,0,.9-6l.46-14.71c0-.58,1.41-2.7,1.41-3.4s-1.47-2.77-1.47-3.46,1.7-3.28,1.47-3.86L749.91,233c.85-3.85,1-8.24,1.53-12.33,0-.69,1.64-3,1.3-3.47a11.52,11.52,0,0,1,0-11l-1.58-7.47V146a48.86,48.86,0,0,1,3.67-11.17,19.29,19.29,0,0,1,6.79-5.43,23.84,23.84,0,0,1,4.93-1.54,9.06,9.06,0,0,1,2.94,0l8.37,5.47a113.7,113.7,0,0,1,4.64,14.83,58.89,58.89,0,0,0,1.64,17.15c0,1.07-1.64,3.27-1.64,3.85S784,172,784,172.65V277.41c-.45,14.94-3.5,29.2-3.05,44.88L785.28,420c0,.69,1.69,2.77,1.69,3.5s-1.52,2.35-1.52,3,1.41,2.78,1.41,3.51a550,550,0,0,0,7.58,61.18c.4,10.56,1.76,20.54,2.94,30.59-1.07,7-1.13,15.11-2.71,21.62l-.28,11.9a6.32,6.32,0,0,0,3.05,3.85c1.92,1.47,7.7,1.43,8.88-.5a17.77,17.77,0,0,0,1.53-2.31,5.49,5.49,0,0,0,0-2.73,38.78,38.78,0,0,1-2.94-7.4,42.68,42.68,0,0,1,3-7.4V504.49L800.38,429c0-.7-1.47-2.82-1.47-3.51s1.47-2.39,1.47-3-1.41-2.81-1.47-3.39l-1.47-77a45.68,45.68,0,0,1-1.3-10.29,32.45,32.45,0,0,0,1.3-8.67l-1.53-4.66,1.47-4.66c.85-13.53,2.49-26.67,3-39.88V206.51c.57-21.73.85-43.92,3.06-64.8a44.1,44.1,0,0,1,6.68-12,17.39,17.39,0,0,1,3.73-2.51,21.18,21.18,0,0,1,5-1.5h21.39a19.92,19.92,0,0,1,4.92,1.54,32.79,32.79,0,0,1,7.64,6.55l2.83,8.55c1.19,12.29,1.53,24.51,1.53,37.57l1.47,8.17c0,3.08-1.42,6.08-1.59,9.24,0,.89,1.59,3,1.59,3.86s-1.47,2.81-1.47,3.85c0,12.17,2.43,23.42,3,35.25l-1.53,12.95,1.53,11-1.53,10.48v35.56c1,13.91,4.07,27.28,6,40.57v15.41c0,3.86,1.35,7.4,1.58,11.06,0,.92-1.58,3-1.58,3.85S866,384,866,384.67c0,25.77-1,50.63-1.41,75.78l.73,27,.74,60.84c0,.69,1.53,2.78,1.53,3.51s-1.53,2.77-1.53,3.47v16.29l1.53,4.66-1.53,4.63v16.33l-1.47,10.45,1.47,10.48V651l1.53,7.12a26,26,0,0,0-1.53,10.14l3,9.32v9.29l-1.53,7.28a31.07,31.07,0,0,1,1.47,12c0,.43,2.32,1.93,3.06,2.2a10,10,0,0,0,3,0,8.56,8.56,0,0,0,2.89-2.2c1.87-8.51,2.32-18,3.11-27,0-.81-1.53-2.93-1.53-3.62s1.59-2.89,1.36-3.51a34.77,34.77,0,0,1-2.88-8.63V638.15c0-.69-1.47-2.81-1.47-3.51s1.47-2.77,1.47-3.47V599.89c0-10.75,2.83-23.12,1.52-31.56V366.83L872.19,293a252.57,252.57,0,0,0,2.88-43.38l-1.52-53.37,1.52-46,1.53-9.63a18.49,18.49,0,0,1,5.66-8.86,11.82,11.82,0,0,1,15.45-3.62c1,.46,3.45,2.5,4.47,3a32.05,32.05,0,0,0,5,1.5,7.83,7.83,0,0,0,3.05,0,37.77,37.77,0,0,0,7.81-6.82c.91-1,2.43-2.38,3.91-2.19a18.13,18.13,0,0,1,5.65,1.69,42.94,42.94,0,0,0,11.72,5.9c.56,0,2,1.42,2.66,1.46a15.25,15.25,0,0,1,7.75,2.43,27.86,27.86,0,0,1,9,5.24A118.47,118.47,0,0,1,961.93,163v64.34l1.47,18c0,.73,1.53,2.82,1.53,3.51s-1.53,2.39-1.53,3,1.53,2.78,1.53,3.47v49.36l-1.53,4.66c0,.73,1.64,3.24,1.42,3.85a17.69,17.69,0,0,0-1.13,5.63V355c0,.7,1.41,2.82,1.24,3.47a9.84,9.84,0,0,0-1.24,4.09l1.41,5.74a105.82,105.82,0,0,1-1.53,26.08c1.36,13.14,4.59,25,6.79,37.45l2.27,11.56c0,6-1.65,11.94-1.48,18.26l1.48,29.59-3.57,44.35,1.64,8.63c1.19,3.12,4.13,6.32,10.36,5.7,2.37-.23,3.79-2,4.52-4.32A50.6,50.6,0,0,1,981.11,534v-8.63l3-23.12v-25l-1.47-5.82,1.47-5.81V443.08c-.85-6.86-3.05-13.49-3.73-20.92l-2.27-16.65V356.16l-1.47-7,1.53-7V323.25l1.36-7v-10c0-.69,1.47-2.77,1.47-3.46s-1.47-2.82-1.47-3.43L978,209.21l1.53-4.66c0-.66-1.53-2.81-1.53-3.51s1.47-2.43,1.3-3a10,10,0,0,1-1.24-4.09l1.47-5.74V155.66c.62-13.07-.4-28.44,14.43-32.56.73-.19,2.26-1.35,2.77-1.35h12.79c2.37,1.66,5.66,2.23,7.81,3.85a13.22,13.22,0,0,0,5.2,4.7l3.06,9.1c1.7,10.67,4.41,20.45,5.66,30.82,1.69,13.6,2.6,27.28,3.17,41.57l1.52,4.66-1.52,5,1.52,7c.57,17.49-.79,34.1-1.52,50.86,0,.73-1.48,2.81-1.48,3.5s1.7,2.85,1.48,3.51l-1.48,4.66-3,41.88v18.26l-1.48,10.48L1030,372v20c0,.69-1.48,2.77-1.48,3.51s1.48,2.38,1.48,3-1.48,2.43-1.48,3,1.36,2.77,1.42,3.5c2.15,16.8,2.43,34.87,3.28,52.44a4.72,4.72,0,0,0,2.26,3.43,8.39,8.39,0,0,0,6.62,1.39c.91-.27,4.19-2.43,4.19-3.12,0-3.32-1-6.17-1.3-9.29v-9.94a35.25,35.25,0,0,0-2.94-11.56c-.29-.54,1.47-2.77,1.47-3.47v-74l3.34-45.54,2.94-27.93V267l1.53-8.13-1.47-8a39.45,39.45,0,0,1,2.88-14.1c0-.51-1.41-2.66-1.41-3.36V190.56l-3-27.93V140.36l2.94-8.82c2.49-1.66,3.4-3.86,5.66-5.28a18.69,18.69,0,0,0,7.13-3.51h32.48a7.57,7.57,0,0,1,3.11,2c1.81,2.42,3.85,4.73,5.32,7.08l1.53,8.87c.56,26.16,3,51.09,4.47,76.13v45.89l1.53,4.66-1.53,4.66.34,17.95-3.17,71.13-1.7,7.24a27.46,27.46,0,0,1,1.47,11.06l-1.53,5.2a9.05,9.05,0,0,0,2.38,3.47c.45.46,2.55,2,3.23,2h7a5.26,5.26,0,0,0,4-2.58v-5.39l-4.7-10.44a81.41,81.41,0,0,0,1.7-16.49l3-14c.79-19.84,2.2-39.07,3-58.22V209.21l-1.48-4.66,1.48-4.51-1.48-5.82V147.33l1.48-15.41a12.79,12.79,0,0,0,2.94-5.51c0-.69,3.51-2.66,4.52-3.16a35.15,35.15,0,0,1,5-1.5,17.16,17.16,0,0,1,3.51,0,34.38,34.38,0,0,1,5,1.5,19.68,19.68,0,0,1,3.62,2.51,21.37,21.37,0,0,1,5.27,8.94L1157.2,146v14.64l1.53,7-1.53,5.47,1.53,5.82v29.12l1.47,19.27,3.06,14,5.2,70.85.68,23.12,1.53,7-1.53,7C1165.63,420,1166,490.74,1168,559.67v44.92c0,.69,1.48,2.77,1.48,3.47s-1.48,2.81-1.48,3.5v23.93l-3,61.65,3,64.18,1.42,4.67c0,.61-1.48,2.77-1.48,3.46s1.42,2.82,1.48,3.51L1171,787.6c.4,50.09-1,101.1,1.53,149.61L1174,943l-1.53,5.82v10l1.53,4.82a19.52,19.52,0,0,0-2.88,9.09c0,.54-3,1.93-3,2.43-.34,5.16-.91,10.28-1.59,15.41,1.13,11.56,2,23.12,4.47,33.9l3,7v4.62a3.9,3.9,0,0,0,2.38,3.16,8.32,8.32,0,0,0,5.15.69c.56,0,2.83-1.62,2.83-2.08v-8l-3-4.63-1.47-13.64V990l3-11.56c0-.77,4.47-2.66,4.47-3.35v-7.28l-3-7c-.68-7.4,1.24-14.11,1.52-20.93l-1.52-14V907.66l-1.47-4.67,1.47-4.66V880c0-.69-1.47-2.77-1.47-3.47s1.47-2.81,1.47-3.5V800.39l1.52-12.83c-.56-7.32-2.54-14.52-2.71-22.11-.51-20-.74-39.76-3.28-58.18,0-.69-1.47-2.78-1.47-3.47s1.35-2.81,1.41-3.5l4.53-77.79V558.32l-1.53-4.82a8.13,8.13,0,0,0,1.13-6.09,19.08,19.08,0,0,1,0-6.74c-1.81-23.89-.85-49.51-.85-74.13l1.53-22.11c-.51-12.49-2.15-25.09-1.53-38.53l1.53-7a30.91,30.91,0,0,1-1.36-8.4,221.32,221.32,0,0,0,1.3-25.08l1.53-5.86-1.47-5.43a170.9,170.9,0,0,0,2.94-24.47L1180.12,250,1177,233.68l1.58-84.77,1.47-7.7a9.59,9.59,0,0,0,3.17-2.89,143,143,0,0,1,35.65-15.22l7.47-1.47,36-1.07c3.5,1.61,5.88,4.2,6.56,7l2.26,8.32v22a73.93,73.93,0,0,1,4.42,33.09l4.52,25c.85,24.2,4.42,47.27,4.53,71.82l-1.53,9.32,1.47,9.29v19.26l-1.47,5.82,1.47,5.82v23.11l3.8,5.28c.73,1,2.6,2.24,4,2,2.54-.51,5.65-.85,6.05-1.82a12.24,12.24,0,0,0,2.77-4.35c-1.64-4.66-3.34-8.94-4.64-13.41V275.67L1295,231.79c-2.27-24.7-4.81-49.9-5.66-75.63,1.3-14.53-1.36-31.94,10.47-39.42a16.75,16.75,0,0,0,9.78-3c14.43-1.31,29.37-2.28,43.35-3.86,11.31-3,23.2-5.62,34.23-8.09,1.64-.38,3.68-2.65,4.47-2.81l11.32-2a45.29,45.29,0,0,1,17-5c10-2.85,20.83-5.35,30.22-8.36a3.69,3.69,0,0,0,1.64-1.27V77.64c3.57-2.59,5.38-6,5-9.6C1456.42,67.16,1454.5,66.69,1452.91,66.89Z"/></g></g></g></g></svg>