<svg xmlns="http://www.w3.org/2000/svg" xmlns:xlink="http://www.w3.org/1999/xlink" width="3524px" height="149px" viewBox="0 0 3524.0266740000006 149.10000000000036">
    <g transform="matrix(1 0 0 1 -59958.427068 2322.214249)" id="d2e0470d-699c-4ae3-8308-535ecd9edf8a">

</g>
<g id="2915952d-aad0-47fa-b7d0-fd1ba305e0a0">
<g style="">
		<g id="2a6175f5-349b-42eb-8fba-41964c9d1b0a">
<path style="stroke: rgb(193,193,193); stroke-width: 0; stroke-dasharray: none; stroke-linecap: butt; stroke-dashoffset: 0; stroke-linejoin: miter; stroke-miterlimit: 4; fill: rgb(4,3,31); fill-rule: nonzero; opacity: 1;" d="M281.32834,38.89h6.47v6.51h-6.47zM242.43834,38.89v-25.91h6.47v-6.47h6.51v-6.51h19.45v6.51h-12.98v6.47h-6.47v25.91h6.47v6.51h19.44v6.47h-25.91v-6.47h-6.51v-6.51zM274.86834,12.98v-6.47h6.46v-6.51h6.47v12.98zM291.05834,45.4h6.46v-38.89h-6.46v-6.51h25.91v6.51h-6.47v12.93h19.45v-12.93h-6.47v-6.51h25.91v6.51h-6.46v38.89h6.46v6.47h-25.91v-6.47h6.47v-19.44h-19.45v19.44h6.47v6.47h-25.91zM352.59834,45.4h6.47v-12.98h6.51v12.98h6.47v6.47h-19.45zM365.57834,32.42v-19.44h6.47v12.98h6.46v-12.98h-6.46v-12.98h12.98v12.98h6.46v19.44h6.47v12.98h6.51v6.47h-25.96v-6.47h6.52v-12.98zM440.10834,6.51h-12.98v19.45h12.98zM407.67834,51.87v-6.47h6.47v-38.89h-6.47v-6.51h38.89v6.51h6.47v19.45h-6.47v6.46h6.47v12.98h6.51v6.47h-19.44v-19.45h-12.98v12.98h6.46v6.47zM475.73834,45.4h6.47v-38.89h-12.98v6.47h-6.47v-12.98h51.87v12.98h-6.51v-6.47h-12.93v38.89h6.46v6.47h-25.91zM517.83834,45.4h6.47v-38.89h-6.47v-6.51h25.91v6.51h-6.46v38.89h6.46v6.47h-25.91zM547.00834,45.4h6.47v-38.89h-6.47v-6.51h19.45v6.51h6.46v6.47h6.52v6.46h6.46v6.52h6.47v-19.45h-6.47v-6.51h19.45v6.51h-6.47v45.36h-6.51v-6.47h-6.47v-6.51h-6.46v-6.47h-6.52v-6.46h-6.46v-6.52h-6.47v25.96h6.47v6.47h-19.45zM621.53834,45.4h-6.52v-6.51h-6.46v-25.91h6.46v-6.47h6.52v-6.51h19.44v6.51h-12.98v6.47h-6.46v25.91h6.46v6.51h12.98v-12.98h-6.51v-6.46h19.45v19.44h-6.47v6.47h-25.91zM640.97834,12.98v-6.47h6.47v-6.51h6.47v12.98zM696.05834,45.4h6.47v-38.89h-12.98v6.47h-6.47v-12.98h51.88v12.98h-6.52v-6.47h-12.93v38.89h6.47v6.47h-25.92zM738.15834,45.4h6.47v-38.89h-6.47v-6.51h25.92v6.51h-6.47v12.93h19.45v-12.93h-6.47v-6.51h25.91v6.51h-6.46v38.89h6.46v6.47h-25.91v-6.47h6.47v-19.44h-19.45v19.44h6.47v6.47h-25.92zM799.70834,45.4h6.47v-38.89h-6.47v-6.51h45.36v12.98h-6.47v-6.47h-19.44v12.93h19.44v12.98h-6.46v-6.46h-12.98v19.44h19.44v-6.51h6.47v12.98h-45.36zM887.21834,45.4h-6.52v-38.89h-6.46v-6.51h25.91v6.51h-6.47v38.89h19.45v6.47h-25.91zM906.65834,6.51v-6.51h19.45v6.51h-6.52v38.89h-6.46v-38.89zM929.31834,45.4h6.46v-38.89h-6.46v-6.51h19.44v6.51h6.47v6.47h6.51v6.46h6.47v6.52h6.47v-19.45h-6.47v-6.51h19.45v6.51h-6.47v45.36h-6.51v-6.47h-6.47v-6.51h-6.47v-6.47h-6.51v-6.46h-6.47v-6.52h-6.46v25.96h6.46v6.47h-19.44zM1029.75834,38.89h6.46v6.51h-6.46zM990.85834,38.89v-25.91h6.47v-6.47h6.51v-6.51h19.45v6.51h-12.98v6.47h-6.47v25.91h6.47v6.51h19.45v6.47h-25.92v-6.47h-6.51v-6.51zM1023.28834,12.98v-6.47h6.47v-6.51h6.46v12.98zM1039.47834,45.4h6.46v-38.89h-6.46v-6.51h25.91v6.51h-6.47v12.93h19.45v-12.93h-6.47v-6.51h25.92v6.51h-6.47v38.89h6.47v6.47h-25.92v-6.47h6.47v-19.44h-19.45v19.44h6.47v6.47h-25.91zM1101.01834,45.4h6.47v-12.98h6.51v12.98h6.47v6.47h-19.45zM1113.99834,32.42v-19.44h6.47v12.98h6.47v-12.98h-6.47v-12.98h12.98v12.98h6.47v19.44h6.46v12.98h6.52v6.47h-25.96v-6.47h6.51v-12.98zM1188.52834,6.51h-12.98v19.45h12.98zM1156.10834,51.87v-6.47h6.46v-38.89h-6.46v-6.51h38.89v6.51h6.46v19.45h-6.46v6.46h6.46v12.98h6.52v6.47h-19.45v-19.45h-12.98v12.98h6.47v6.47zM1224.16834,45.4h6.46v-38.89h-12.98v6.47h-6.46v-12.98h51.87v12.98h-6.52v-6.47h-12.93v38.89h6.47v6.47h-25.91zM1266.26834,45.4h6.46v-38.89h-6.46v-6.51h45.35v12.98h-6.46v-6.47h-19.45v12.93h19.45v12.98h-6.47v-6.46h-12.98v19.44h19.45v-6.51h6.46v12.98h-45.35zM1347.30834,38.89h6.46v-25.91h-6.46v-6.47h-12.98v38.89h12.98zM1314.87834,51.87v-6.47h6.47v-38.89h-6.47v-6.51h38.89v6.51h6.47v6.47h6.51v25.91h-6.51v6.51h-6.47v6.47zM1369.95834,58.34h6.47v6.51h-6.47zM1369.95834,51.87v-12.98h12.98v19.45h-6.51v-6.47zM1412.05834,45.4h6.47v-12.98h6.51v12.98h6.47v6.47h-19.45zM1425.03834,32.42v-19.44h6.47v12.98h6.46v-12.98h-6.46v-12.98h12.98v12.98h6.46v19.44h6.47v12.98h6.51v6.47h-25.96v-6.47h6.52v-12.98zM1506.02834,45.4h6.47v-38.89h-12.98v6.47h-6.47v-12.98h51.88v12.98h-6.52v-6.47h-12.93v38.89h6.47v6.47h-25.92zM1580.55834,6.51h-12.98v19.45h12.98zM1548.12834,51.87v-6.47h6.47v-38.89h-6.47v-6.51h38.9v6.51h6.46v19.45h-6.46v6.46h6.46v12.98h6.52v6.47h-19.45v-19.45h-12.98v12.98h6.47v6.47zM1603.20834,45.4h6.47v-12.98h6.51v12.98h6.47v6.47h-19.45zM1616.18834,32.42v-19.44h6.47v12.98h6.47v-12.98h-6.47v-12.98h12.98v12.98h6.47v19.44h6.46v12.98h6.52v6.47h-25.96v-6.47h6.51v-12.98zM1658.29834,45.4h6.46v-38.89h-6.46v-6.51h25.91v6.51h-6.47v38.89h6.47v6.47h-25.91zM1687.45834,45.4h6.47v-38.89h-6.47v-6.51h25.92v6.51h-6.47v38.89h19.45v-6.51h6.46v12.98h-45.36zM1768.49834,25.96h-12.98v19.44h12.98zM1736.07834,51.87v-6.47h6.46v-38.89h-6.46v-6.51h38.89v6.51h6.47v12.93h-6.47v6.52h6.47v19.44h-6.47v6.47zM1755.51834,19.44h12.98v-12.93h-12.98zM1784.68834,45.4h6.47v-38.89h-6.47v-6.51h25.92v6.51h-6.47v38.89h19.45v-6.51h6.46v12.98h-45.36zM1833.30834,45.4h6.46v-12.98h6.52v12.98h6.46v6.47h-19.44zM1846.28834,32.42v-19.44h6.46v12.98h6.47v-12.98h-6.47v-12.98h12.98v12.98h6.47v19.44h6.47v12.98h6.51v6.47h-25.96v-6.47h6.51v-12.98zM1888.38834,38.89h6.46v-6.47h6.52v-12.98h6.46v-6.46h6.47v-6.47h-19.45v6.47h-6.46v-12.98h38.89v12.98h-6.47v6.46h-6.51v12.98h-6.47v6.47h-6.46v6.51h19.44v-6.51h6.47v12.98h-38.89zM1930.48834,45.4h6.46v-38.89h-6.46v-6.51h45.36v12.98h-6.47v-6.47h-19.45v12.93h19.45v12.98h-6.46v-6.46h-12.99v19.44h19.45v-6.51h6.47v12.98h-45.36zM2011.52834,6.51h-12.98v19.45h12.98zM1979.09834,51.87v-6.47h6.47v-38.89h-6.47v-6.51h38.9v6.51h6.46v19.45h-6.46v6.46h6.46v12.98h6.52v6.47h-19.45v-19.45h-12.98v12.98h6.47v6.47zM2060.09834,45.4h6.46v-38.89h-6.46v-6.51h25.91v6.51h-6.47v38.89h6.47v6.47h-25.91zM2089.25834,45.4h6.47v-38.89h-6.47v-6.51h19.45v6.51h6.47v6.47h6.51v6.46h6.47v6.52h6.46v-19.45h-6.46v-6.51h19.44v6.51h-6.46v45.36h-6.52v-6.47h-6.46v-6.51h-6.47v-6.47h-6.51v-6.46h-6.47v-6.52h-6.47v25.96h6.47v6.47h-19.45zM2189.69834,45.4h6.47v-38.89h-12.98v6.47h-6.47v-12.98h51.87v12.98h-6.51v-6.47h-12.93v38.89h6.46v6.47h-25.91zM2231.79834,45.4h6.47v-38.89h-6.47v-6.51h25.91v6.51h-6.46v12.93h19.44v-12.93h-6.46v-6.51h25.91v6.51h-6.47v38.89h6.47v6.47h-25.91v-6.47h6.46v-19.44h-19.44v19.44h6.46v6.47h-25.91zM2293.34834,45.4h6.47v-38.89h-6.47v-6.51h45.36v12.98h-6.47v-6.47h-19.44v12.93h19.44v12.98h-6.46v-6.46h-12.98v19.44h19.44v-6.51h6.47v12.98h-45.36zM2406.76834,38.89h6.46v6.51h-6.46zM2367.87834,38.89v-25.91h6.46v-6.47h6.52v-6.51h19.44v6.51h-12.98v6.47h-6.46v25.91h6.46v6.51h19.45v6.47h-25.91v-6.47h-6.52v-6.51zM2400.29834,12.98v-6.47h6.47v-6.51h6.46v12.98zM2448.91834,38.89h6.46v-25.91h-6.46v-6.47h-12.98v6.47h-6.47v25.91h6.47v6.51h12.98zM2416.48834,38.89v-25.91h6.47v-6.47h6.51v-6.51h25.91v6.51h6.47v6.47h6.51v25.91h-6.51v6.51h-6.47v6.47h-25.91v-6.47h-6.51v-6.51zM2471.56834,38.89h12.98v6.51h-6.51v6.47h-6.47zM2471.56834,19.44v-12.93h6.47v-6.51h25.96v6.51h-19.45v6.47h6.47v6.46h6.46v6.52h12.98v6.46h6.47v12.98h-6.47v6.47h-25.91v-6.47h19.45v-6.51h-6.52v-6.47h-6.46v-6.46h-12.98v-6.52zM2503.99834,12.98v-6.47h6.46v-6.51h6.47v12.98zM2559.07834,12.98h6.46v6.46h-6.46zM2520.18834,51.87v-6.47h6.46v-38.89h-6.46v-6.51h19.44v6.51h6.47v6.47h6.51v6.46h6.47v6.52h-6.47v6.46h-6.51v-6.46h-6.47v-6.52h-6.46v25.96h6.46v6.47zM2565.53834,51.87v-6.47h6.52v-32.42h-6.52v-6.47h6.52v-6.51h19.44v6.51h-6.51v38.89h6.51v6.47zM2627.13834,38.89h6.46v-25.91h-6.46v-6.47h-12.98v6.47h-6.47v25.91h6.47v6.51h12.98zM2594.70834,38.89v-25.91h6.47v-6.47h6.51v-6.51h25.91v6.51h6.47v6.47h6.51v25.91h-6.51v6.51h-6.47v6.47h-25.91v-6.47h-6.51v-6.51zM2649.78834,38.89h12.98v6.51h-6.51v6.47h-6.47zM2649.78834,19.44v-12.93h6.47v-6.51h25.96v6.51h-19.45v6.47h6.47v6.46h6.46v6.52h12.98v6.46h6.47v12.98h-6.47v6.47h-25.91v-6.47h19.45v-6.51h-6.52v-6.47h-6.46v-6.46h-12.98v-6.52zM2682.21834,12.98v-6.47h6.46v-6.51h6.47v12.98zM2698.40834,58.34h6.46v6.51h-6.46zM2698.40834,51.87v-12.98h12.98v19.45h-6.52v-6.47zM2772.92834,6.51h-12.98v19.45h12.98zM2740.50834,51.87v-6.47h6.46v-38.89h-6.46v-6.51h38.89v6.51h6.46v19.45h-6.46v6.46h-19.45v12.98h6.47v6.47zM2802.09834,45.4h-6.51v-38.89h-6.47v-6.51h25.91v6.51h-6.46v38.89h19.44v6.47h-25.91zM2821.54834,6.51v-6.51h19.44v6.51h-6.51v38.89h-6.47v-38.89zM2844.19834,38.89h12.98v6.51h-6.51v6.47h-6.47zM2844.19834,19.44v-12.93h6.47v-6.51h25.96v6.51h-19.45v6.47h6.47v6.46h6.46v6.52h12.98v6.46h6.47v12.98h-6.47v6.47h-25.91v-6.47h19.45v-6.51h-6.52v-6.47h-6.46v-6.46h-12.98v-6.52zM2876.62834,12.98v-6.47h6.46v-6.51h6.47v12.98zM2892.81834,45.4h6.46v-38.89h-6.46v-6.51h25.91v6.51h-6.47v12.93h19.45v-12.93h-6.47v-6.51h25.91v6.51h-6.46v38.89h6.46v6.47h-25.91v-6.47h6.47v-19.44h-19.45v19.44h6.47v6.47h-25.91zM2954.35834,45.4h6.47v-38.89h-6.47v-6.51h25.92v6.51h-6.47v38.89h6.47v6.47h-25.92zM2983.52834,45.4h6.47v-38.89h-6.47v-6.51h19.45v6.51h6.46v6.47h6.52v6.46h6.46v6.52h6.47v-19.45h-6.47v-6.51h19.45v6.51h-6.47v45.36h-6.51v-6.47h-6.47v-6.51h-6.46v-6.47h-6.52v-6.46h-6.46v-6.52h-6.47v25.96h6.47v6.47h-19.45zM3058.05834,45.4h-6.52v-6.51h-6.46v-25.91h6.46v-6.47h6.52v-6.51h19.44v6.51h-12.98v6.47h-6.46v25.91h6.46v6.51h12.98v-12.98h-6.51v-6.46h19.45v19.44h-6.47v6.47h-25.91zM3077.49834,12.98v-6.47h6.47v-6.51h6.47v12.98zM3132.58834,45.4h6.46v-38.89h-12.98v6.47h-6.47v-12.98h51.88v12.98h-6.52v-6.47h-12.93v38.89h6.47v6.47h-25.91zM3174.68834,45.4h6.46v-38.89h-6.46v-6.51h25.91v6.51h-6.47v12.93h19.45v-12.93h-6.47v-6.51h25.91v6.51h-6.46v38.89h6.46v6.47h-25.91v-6.47h6.47v-19.44h-19.45v19.44h6.47v6.47h-25.91zM3236.22834,45.4h6.47v-38.89h-6.47v-6.51h45.36v12.98h-6.47v-6.47h-19.44v12.93h19.44v12.98h-6.46v-6.46h-12.98v19.44h19.44v-6.51h6.47v12.98h-45.36zM65.91834,123.19h-12.98v19.44h12.98zM33.48834,149.1v-6.47h6.47v-38.89h-6.47v-6.51h38.9v6.51h6.46v12.93h-6.46v6.52h6.46v19.44h-6.46v6.47zM52.93834,116.67h12.98v-12.93h-12.98zM114.52834,136.12h6.47v-25.91h-6.47v-6.47h-12.98v6.47h-6.46v25.91h6.46v6.51h12.98zM82.10834,136.12v-25.91h6.46v-6.47h6.52v-6.51h25.91v6.51h6.47v6.47h6.51v25.91h-6.51v6.51h-6.47v6.47h-25.91v-6.47h-6.52v-6.51zM150.16834,142.63h-6.51v-38.89h-6.47v-6.51h25.91v6.51h-6.46v38.89h19.44v6.47h-25.91zM169.61834,103.74v-6.51h19.44v6.51h-6.51v38.89h-6.47v-38.89zM192.26834,142.63h6.47v-38.89h-6.47v-6.51h19.45v6.51h6.46v6.47h6.52v6.46h6.46v6.52h6.47v-19.45h-6.47v-6.51h19.45v6.51h-6.47v45.36h-6.51v-6.47h-6.47v-6.51h-6.46v-6.47h-6.52v-6.46h-6.46v-6.52h-6.47v25.96h6.47v6.47h-19.45zM286.23834,136.12h6.47v-25.91h-6.47v-6.47h-12.98v38.89h12.98zM253.81834,149.1v-6.47h6.46v-38.89h-6.46v-6.51h38.89v6.51h6.46v6.47h6.52v25.91h-6.52v6.51h-6.46v6.47zM308.89834,142.63h6.46v-12.98h6.52v12.98h6.46v6.47h-19.44zM321.87834,129.65v-19.44h6.46v12.98h6.47v-12.98h-6.47v-12.98h12.98v12.98h6.47v19.44h6.46v12.98h6.52v6.47h-25.96v-6.47h6.51v-12.98zM396.39834,103.74h-12.98v19.45h12.98zM363.97834,149.1v-6.47h6.46v-38.89h-6.46v-6.51h38.89v6.51h6.46v19.45h-6.46v6.46h6.46v12.98h6.52v6.47h-19.45v-19.45h-12.98v12.98h6.47v6.47zM419.05834,142.63h6.46v-38.89h-6.46v-6.51h25.91v6.51h-6.47v38.89h6.47v6.47h-25.91zM448.22834,142.63h6.46v-38.89h-6.46v-6.51h45.35v12.98h-6.46v-6.47h-19.45v12.93h19.45v12.98h-6.47v-6.46h-12.98v19.44h19.45v-6.51h6.46v12.98h-45.35zM496.83834,136.12h12.98v6.51h-6.51v6.47h-6.47zM496.83834,116.67v-12.93h6.47v-6.51h25.96v6.51h-19.45v6.47h6.47v6.46h6.46v6.52h12.98v6.46h6.47v12.98h-6.47v6.47h-25.91v-6.47h19.45v-6.51h-6.52v-6.47h-6.46v-6.46h-12.98v-6.52zM529.26834,110.21v-6.47h6.46v-6.51h6.47v12.98zM603.78834,136.12h6.47v-25.91h-6.47v-6.47h-12.98v6.47h-6.46v25.91h6.46v6.51h12.98zM571.36834,136.12v-25.91h6.46v-6.47h6.52v-6.51h25.91v6.51h6.46v6.47h6.52v25.91h-6.52v6.51h-6.46v6.47h-25.91v-6.47h-6.52v-6.51zM626.44834,142.63h6.46v-38.89h-6.46v-6.51h45.36v12.98h-6.47v-6.47h-19.45v12.93h19.45v12.98h-6.47v-6.46h-12.98v19.44h6.47v6.47h-25.91zM696.98834,142.63h6.46v-38.89h-6.46v-6.51h45.36v12.98h-6.47v-6.47h-19.45v12.93h19.45v12.98h-6.47v-6.46h-12.98v19.44h19.45v-6.51h6.47v12.98h-45.36zM745.59834,142.63h6.47v-6.51h6.51v6.51h6.47v6.47h-19.45zM745.59834,103.74v-6.51h25.91v6.51h-6.46v6.47h6.46v6.46h6.52v12.98h6.46v6.47h6.47v6.51h6.51v6.47h-25.96v-6.47h6.52v-6.51h-6.52v-6.47h-6.46v-12.98h-6.47v-6.46h-6.51v-6.47zM758.57834,136.12v-6.47h6.47v6.47zM778.02834,116.67v-6.46h6.46v6.46zM778.02834,103.74v-6.51h19.44v6.51h-6.51v6.47h-6.47v-6.47zM833.10834,103.74h-12.98v19.45h12.98zM800.67834,149.1v-6.47h6.47v-38.89h-6.47v-6.51h38.89v6.51h6.47v19.45h-6.47v6.46h-19.44v12.98h6.46v6.47zM849.29834,142.63h6.46v-38.89h-6.46v-6.51h25.91v6.51h-6.47v38.89h19.45v-6.51h6.47v12.98h-45.36zM930.33834,136.12h6.46v-25.91h-6.46v-6.47h-12.98v6.47h-6.47v25.91h6.47v6.51h12.98zM897.90834,136.12v-25.91h6.47v-6.47h6.51v-6.51h25.91v6.51h6.47v6.47h6.51v25.91h-6.51v6.51h-6.47v6.47h-25.91v-6.47h-6.51v-6.51zM985.41834,103.74h-12.98v19.45h12.98zM952.98834,149.1v-6.47h6.47v-38.89h-6.47v-6.51h38.89v6.51h6.47v19.45h-6.47v6.46h6.47v12.98h6.51v6.47h-19.44v-19.45h-12.98v12.98h6.46v6.47zM1008.06834,142.63h6.47v-12.98h6.51v12.98h6.47v6.47h-19.45zM1021.04834,129.65v-19.44h6.47v12.98h6.47v-12.98h-6.47v-12.98h12.98v12.98h6.47v19.44h6.46v12.98h6.52v6.47h-25.96v-6.47h6.51v-12.98zM1069.66834,142.63h6.46v-38.89h-12.98v6.47h-6.46v-12.98h51.87v12.98h-6.51v-6.47h-12.94v38.89h6.47v6.47h-25.91zM1111.76834,142.63h6.46v-38.89h-6.46v-6.51h25.91v6.51h-6.47v38.89h6.47v6.47h-25.91zM1173.35834,136.12h6.47v-25.91h-6.47v-6.47h-12.98v6.47h-6.46v25.91h6.46v6.51h12.98zM1140.93834,136.12v-25.91h6.46v-6.47h6.52v-6.51h25.91v6.51h6.46v6.47h6.52v25.91h-6.52v6.51h-6.46v6.47h-25.91v-6.47h-6.52v-6.51zM1196.01834,142.63h6.46v-38.89h-6.46v-6.51h19.44v6.51h6.47v6.47h6.51v6.46h6.47v6.52h6.47v-19.45h-6.47v-6.51h19.45v6.51h-6.47v45.36h-6.51v-6.47h-6.47v-6.51h-6.47v-6.47h-6.51v-6.46h-6.47v-6.52h-6.46v25.96h6.46v6.47h-19.44zM1283.47834,142.63h6.46v-12.98h6.52v12.98h6.46v6.47h-19.44zM1296.45834,129.65v-19.44h6.46v12.98h6.47v-12.98h-6.47v-12.98h12.98v12.98h6.47v19.44h6.46v12.98h6.52v6.47h-25.96v-6.47h6.51v-12.98zM1338.55834,142.63h6.46v-38.89h-6.46v-6.51h19.44v6.51h6.47v6.47h6.51v6.46h6.47v6.52h6.46v-19.45h-6.46v-6.51h19.44v6.51h-6.46v45.36h-6.52v-6.47h-6.46v-6.51h-6.47v-6.47h-6.51v-6.46h-6.47v-6.52h-6.46v25.96h6.46v6.47h-19.44zM1432.52834,136.12h6.46v-25.91h-6.46v-6.47h-12.98v38.89h12.98zM1400.09834,149.1v-6.47h6.47v-38.89h-6.47v-6.51h38.89v6.51h6.47v6.47h6.51v25.91h-6.51v6.51h-6.47v6.47zM1513.51834,136.12h6.47v-25.91h-6.47v-6.47h-12.98v38.89h12.98zM1481.08834,149.1v-6.47h6.47v-38.89h-6.47v-6.51h38.9v6.51h6.46v6.47h6.52v25.91h-6.52v6.51h-6.46v6.47zM1536.17834,142.63h6.46v-38.89h-6.46v-6.51h25.91v6.51h-6.47v38.89h6.47v6.47h-25.91zM1565.33834,136.12h12.98v6.51h-6.51v6.47h-6.47zM1565.33834,116.67v-12.93h6.47v-6.51h25.96v6.51h-19.45v6.47h6.47v6.46h6.47v6.52h12.98v6.46h6.46v12.98h-6.46v6.47h-25.92v-6.47h19.45v-6.51h-6.51v-6.47h-6.47v-6.46h-12.98v-6.52zM1597.76834,110.21v-6.47h6.47v-6.51h6.46v12.98zM1652.84834,136.12h6.47v6.51h-6.47zM1613.95834,136.12v-25.91h6.46v-6.47h6.52v-6.51h19.44v6.51h-12.98v6.47h-6.46v25.91h6.46v6.51h19.45v6.47h-25.91v-6.47h-6.52v-6.51zM1646.37834,110.21v-6.47h6.47v-6.51h6.47v12.98zM1694.99834,136.12h6.47v-25.91h-6.47v-6.47h-12.98v6.47h-6.47v25.91h6.47v6.51h12.98zM1662.56834,136.12v-25.91h6.47v-6.47h6.51v-6.51h25.92v6.51h6.46v6.47h6.52v25.91h-6.52v6.51h-6.46v6.47h-25.92v-6.47h-6.51v-6.51zM1746.18834,116.67h6.47v19.45h-6.47zM1713.75834,103.74v-6.51h25.92v6.51h-6.47v12.93h6.47v19.45h6.51v12.98h-12.98v-12.98h-6.47v-19.45h-6.51v-12.93zM1746.18834,103.74v-6.51h19.45v6.51h-6.52v12.93h-6.46v-12.93zM1768.84834,142.63h6.46v-38.89h-6.46v-6.51h45.35v12.98h-6.46v-6.47h-19.45v12.93h19.45v12.98h-6.47v-6.46h-12.98v19.44h19.45v-6.51h6.46v12.98h-45.35zM1849.88834,103.74h-12.98v19.45h12.98zM1817.45834,149.1v-6.47h6.47v-38.89h-6.47v-6.51h38.89v6.51h6.47v19.45h-6.47v6.46h6.47v12.98h6.51v6.47h-19.44v-19.45h-12.98v12.98h6.46v6.47zM1872.53834,142.63h6.47v-38.89h-6.47v-6.51h25.91v6.51h-6.46v38.89h6.46v6.47h-25.91zM1901.70834,142.63h6.46v-38.89h-6.46v-6.51h19.45v6.51h6.46v6.47h6.52v6.46h6.46v6.52h6.47v-19.45h-6.47v-6.51h19.45v6.51h-6.47v45.36h-6.51v-6.47h-6.47v-6.51h-6.46v-6.47h-6.52v-6.46h-6.46v-6.52h-6.47v25.96h6.47v6.47h-19.45zM1976.23834,142.63h-6.52v-6.51h-6.46v-25.91h6.46v-6.47h6.52v-6.51h19.44v6.51h-12.98v6.47h-6.46v25.91h6.46v6.51h12.98v-12.98h-6.51v-6.46h19.44v19.44h-6.46v6.47h-25.91zM1995.67834,110.21v-6.47h6.47v-6.51h6.46v12.98zM2037.77834,142.63h6.47v-38.89h-6.47v-6.51h19.45v6.51h6.46v6.47h6.52v6.46h6.46v6.52h6.47v-19.45h-6.47v-6.51h19.45v6.51h-6.47v45.36h-6.51v-6.47h-6.47v-6.51h-6.46v-6.47h-6.52v-6.46h-6.46v-6.52h-6.47v25.96h6.47v6.47h-19.45zM2099.32834,142.63h6.46v-38.89h-6.46v-6.51h45.36v12.98h-6.47v-6.47h-19.45v12.93h19.45v12.98h-6.47v-6.46h-12.98v19.44h19.45v-6.51h6.47v12.98h-45.36zM2173.84834,123.19h6.52v12.93h-6.52zM2147.93834,103.74v-6.51h25.91v6.51h-6.46v32.38h6.46v12.98h-12.93v-12.98h-6.51v-32.38zM2180.36834,123.19v-19.45h6.46v6.47h6.47v12.98h6.51v12.93h6.47v12.98h-12.98v-12.98h-6.47v-12.93zM2199.80834,103.74v-6.51h19.45v6.51h-6.51v32.38h-6.47v-32.38zM2248.37834,142.63h6.47v-38.89h-6.47v-6.51h45.36v12.98h-6.47v-6.47h-19.44v12.93h19.44v12.98h-6.46v-6.46h-12.98v19.44h6.46v6.47h-25.91zM2325.42834,103.74h-12.98v19.45h12.98zM2293.00834,149.1v-6.47h6.46v-38.89h-6.46v-6.51h38.89v6.51h6.47v19.45h-6.47v6.46h6.47v12.98h6.51v6.47h-19.45v-19.45h-12.98v12.98h6.47v6.47zM2380.51834,136.12h6.46v-25.91h-6.46v-6.47h-12.98v6.47h-6.47v25.91h6.47v6.51h12.98zM2348.08834,136.12v-25.91h6.47v-6.47h6.51v-6.51h25.91v6.51h6.47v6.47h6.51v25.91h-6.51v6.51h-6.47v6.47h-25.91v-6.47h-6.51v-6.51zM2403.16834,142.63h6.47v-38.89h-6.47v-6.51h19.45v6.51h6.46v6.47h6.52v6.46h6.46v6.52h6.47v-19.45h-6.47v-6.51h19.45v6.51h-6.47v45.36h-6.51v-6.47h-6.47v-6.51h-6.46v-6.47h-6.52v-6.46h-6.46v-6.52h-6.47v25.96h6.47v6.47h-19.45zM2477.69834,142.63h6.46v-38.89h-12.98v6.47h-6.46v-12.98h51.87v12.98h-6.52v-6.47h-12.93v38.89h6.47v6.47h-25.91zM2519.79834,142.63h6.46v-38.89h-6.46v-6.51h25.91v6.51h-6.47v38.89h6.47v6.47h-25.91zM2548.96834,142.63h6.46v-38.89h-6.46v-6.51h45.35v12.98h-6.46v-6.47h-19.45v12.93h19.45v12.98h-6.47v-6.46h-12.98v19.44h19.45v-6.51h6.46v12.98h-45.35zM2630.00834,103.74h-12.98v19.45h12.98zM2597.57834,149.1v-6.47h6.47v-38.89h-6.47v-6.51h38.89v6.51h6.47v19.45h-6.47v6.46h6.47v12.98h6.51v6.47h-19.44v-19.45h-12.98v12.98h6.46v6.47zM2652.65834,136.12h12.98v6.51h-6.51v6.47h-6.47zM2652.65834,116.67v-12.93h6.47v-6.51h25.96v6.51h-19.45v6.47h6.47v6.46h6.46v6.52h12.98v6.46h6.47v12.98h-6.47v6.47h-25.91v-6.47h19.45v-6.51h-6.52v-6.47h-6.46v-6.46h-12.98v-6.52zM2685.08834,110.21v-6.47h6.46v-6.51h6.47v12.98zM2727.18834,142.63h6.46v-12.98h6.52v12.98h6.46v6.47h-19.44zM2740.16834,129.65v-19.44h6.46v12.98h6.47v-12.98h-6.47v-12.98h12.98v12.98h6.47v19.44h6.46v12.98h6.52v6.47h-25.96v-6.47h6.51v-12.98zM2821.15834,110.21h6.46v6.46h-6.46zM2782.26834,149.1v-6.47h6.46v-38.89h-6.46v-6.51h19.44v6.51h6.47v6.47h6.51v6.46h6.47v6.52h-6.47v6.46h-6.51v-6.46h-6.47v-6.52h-6.46v25.96h6.46v6.47zM2827.61834,149.1v-6.47h6.52v-32.42h-6.52v-6.47h6.52v-6.51h19.45v6.51h-6.52v38.89h6.52v6.47zM2889.21834,136.12h6.47v-25.91h-6.47v-6.47h-12.98v6.47h-6.47v25.91h6.47v6.51h12.98zM2856.78834,136.12v-25.91h6.47v-6.47h6.51v-6.51h25.92v6.51h6.46v6.47h6.52v25.91h-6.52v6.51h-6.46v6.47h-25.92v-6.47h-6.51v-6.51zM2911.86834,142.63h6.47v-38.89h-6.47v-6.51h19.45v6.51h6.47v6.47h6.51v6.46h6.47v6.52h6.46v-19.45h-6.46v-6.51h19.44v6.51h-6.46v45.36h-6.52v-6.47h-6.46v-6.51h-6.47v-6.47h-6.51v-6.46h-6.47v-6.52h-6.47v25.96h6.47v6.47h-19.45zM2986.39834,142.63h-6.51v-6.51h-6.47v-25.91h6.47v-6.47h6.51v-6.51h19.45v6.51h-12.98v6.47h-6.47v25.91h6.47v6.51h12.98v-12.98h-6.52v-6.46h19.45v19.44h-6.47v6.47h-25.91zM3005.84834,110.21v-6.47h6.46v-6.51h6.47v12.98zM3060.92834,142.63h6.46v-38.89h-12.98v6.47h-6.46v-12.98h51.87v12.98h-6.52v-6.47h-12.93v38.89h6.47v6.47h-25.91zM3103.02834,142.63h6.46v-38.89h-6.46v-6.51h25.91v6.51h-6.47v12.93h19.45v-12.93h-6.47v-6.51h25.92v6.51h-6.47v38.89h6.47v6.47h-25.92v-6.47h6.47v-19.44h-19.45v19.44h6.47v6.47h-25.91zM3164.56834,142.63h6.47v-38.89h-6.47v-6.51h45.36v12.98h-6.46v-6.47h-19.45v12.93h19.45v12.98h-6.47v-6.46h-12.98v19.44h19.45v-6.51h6.46v12.98h-45.36zM3239.09834,136.12h12.98v6.51h-6.51v6.47h-6.47zM3239.09834,116.67v-12.93h6.47v-6.51h25.96v6.51h-19.45v6.47h6.47v6.46h6.46v6.52h12.98v6.46h6.47v12.98h-6.47v6.47h-25.91v-6.47h19.45v-6.51h-6.52v-6.47h-6.46v-6.46h-12.98v-6.52zM3271.52834,110.21v-6.47h6.46v-6.51h6.47v12.98zM3300.68834,142.63h6.47v-38.89h-12.98v6.47h-6.47v-12.98h51.88v12.98h-6.52v-6.47h-12.93v38.89h6.47v6.47h-25.92zM3335.01834,142.63h6.46v-12.98h6.52v12.98h6.46v6.47h-19.44zM3347.99834,129.65v-19.44h6.46v12.98h6.47v-12.98h-6.47v-12.98h12.98v12.98h6.47v19.44h6.46v12.98h6.52v6.47h-25.96v-6.47h6.51v-12.98zM3422.51834,103.74h-12.98v19.45h12.98zM3390.09834,149.1v-6.47h6.46v-38.89h-6.46v-6.51h38.89v6.51h6.46v19.45h-6.46v6.46h6.46v12.98h6.52v6.47h-19.45v-19.45h-12.98v12.98h6.47v6.47zM3445.17834,136.12h12.98v6.51h-6.52v6.47h-6.46zM3445.17834,116.67v-12.93h6.46v-6.51h25.96v6.51h-19.44v6.47h6.46v6.46h6.47v6.52h12.98v6.46h6.47v12.98h-6.47v6.47h-25.91v-6.47h19.44v-6.51h-6.51v-6.47h-6.47v-6.46h-12.98v-6.52zM3477.59834,110.21v-6.47h6.47v-6.51h6.47v12.98z" stroke-linecap="round"/>
</g>
</g>
</g>
<g transform="matrix(1 0 0 1 -59958.427068 2322.214249)" id="0a2e9c19-3bb1-4169-8c83-812e625a30ed">

</g>
<g transform="matrix(1 0 0 1 -59958.427068 2322.214249)" id="68e92df6-81c1-47ad-961a-d3948df52699">

</g>

  </svg>