<svg xmlns="http://www.w3.org/2000/svg" viewBox="0 0 1415.88 197.62"><title>7a6202ae-6a84-4ec1-b14f-37e021ea2d95</title><g id="Layer_2" data-name="Layer 2"><g id="Layer_1-2" data-name="Layer 1"><g id="_7a6202ae-6a84-4ec1-b14f-37e021ea2d95" data-name="7a6202ae-6a84-4ec1-b14f-37e021ea2d95"><g id="_7a6202ae-6a84-4ec1-b14f-37e021ea2d95-child-0" data-name="7a6202ae-6a84-4ec1-b14f-37e021ea2d95-child-0"><path d="M352.5,118.22a54.84,54.84,0,0,1,.87,7.59,5.45,5.45,0,0,1-5.11,5.54,5.57,5.57,0,0,1-5.83-4.81l-.73-6.72a21.44,21.44,0,0,0-.59-2.91,5,5,0,0,0-.29-1.46l.58,9.34a5.42,5.42,0,0,1-4.37,5.69,5.29,5.29,0,0,1-6.13-3.65,24,24,0,0,1-1.46-8.47,12.93,12.93,0,0,0-.73-4.67,29.37,29.37,0,0,1-1-9.34v5.26l-.3,13.57v1.46a.88.88,0,0,1-.14.58h0a5.55,5.55,0,0,1-3.21,3.07,5.77,5.77,0,0,1-5.7-1.31h0s-.29-.3-.29-.44v-.15l-.14-.14a1.94,1.94,0,0,0-.3-.44.45.45,0,0,0-.14-.29v-.3l-.29-.58-1-1.31-.59-1.32L315,120.7l-.59-1.31-.58-1.46-.58-1.46L312.8,115l-.59-1.61-.43-1.6-.44-1.61-.58-1.6-.44-1.76-.44-1.6v-.73c-.15,0-.29.29-.29.29l-.59,1.46-.58,1.46-.58,1.61-.59,1.46-.58,1.45-.59,1.46-.58,1.46-.58,1.46-.59,1.32-.58,1.31-.58,1.31-.59,1.32L302,123l-.59,1.16-1.16,1-.59,1-.58.87h0l-.88,1.32-.87,1.16-.88,1.17-.73,1-.73,1-.73.88-.73.88-.58.87-.58.73-.59.73-.58.73-.59.73-.58.58-.58.59-.59.58-.58.58-.58.59-.59.58-.58.59-.59.58-.58.58-.58.59-.59.58-.73.59-.73.58-1.89.58-.88.73-.88.73-.87.88-.88.87-.87,1-14.74,9.48,6.13-16.05,1-1,1-1,1-.87.88-.88.87-.87.88-.73.73-.73.73-.73.73-.59.73-.58.58-.58.58-.59.59-.58.58-.44.59-.44.58-.43.44-.44.58-.44.59-.44.43-.58.59-.59.58-.58.58-.58.59-.59,1.31-.58.59-.73.58-.88.73-.87.73-.88.73-1,.87-1.17.88-1.16h0l.29-.59.44-.73.44-.73.44-.87.43-1,.59-1,.58-1.16.58-1.17.59-1.32.58-1.31.59-1.31.58-1.46.58-1.46.59-1.46.58-1.46.59-1.46.58-1.46.58-1.46.59-1.46.58-1.46.58-1.46.44-1.46L303,93l.44-1.31.44-1.32.43-1.17.3-1.16.29-1,.29-.88.29-.88h0c0-.14-.29-1.46-.29-1.46l-.29-1.6-.29-1.46-.3-1.46V77.79c-.14,0-.43-1.31-.43-1.31h0l-.15-1.61v-1.6c-.15,0-.44-1.61-.44-1.61v-1.6c-.14,0-.29-1.61-.29-1.61V66.84c-.15,0-.29-1.45-.29-1.45V63.78l-.15-1.46v-22l.15-1.46V37.36l.14-1.46V34.3l.3-1.46V31.23l.29-1.6V28l2.62-20.43,8.18,22.77V32L314,33.42v1.46l-.3,1.46V37.8l-.14,1.46v2.92l-1.46,1.31V59.55l.14,1.46v1.46l.15,1.46v1.46l.29,1.45V68.3c.15,0,.29,1.46.29,1.46v1.46c.15,0,.3,1.46.3,1.46l.29,1.46.29,1.46h0l.15,1.32.29,1.31.29,1.31.29,1.46.29,1.46.3,1.46.29,1.46L316,87v0a69.07,69.07,0,0,1,1.6-12,5.59,5.59,0,0,1,6-4.09,2.88,2.88,0,0,1,1.17.29,5.43,5.43,0,0,1,3.5,5.11v.29a5.39,5.39,0,0,1,5.4-3.35,4.26,4.26,0,0,1,1.46.29,5.51,5.51,0,0,1,3.36,3.79,5.57,5.57,0,0,1,6.27-1.89,5.43,5.43,0,0,1,3.5,4.52l4.53,38.68Zm33.71,47.72-.29-1-.29-1-.29-1-.3-1.17-.29-1v-1.17c-.14,0-.44-1-.44-1l-.29-1.17-.29-1-.29-1.17-.29-1-.3-1.17v-1.16c-.14,0-.43-1-.43-1V149.6c-.15,0-.44-1-.44-1v-1.17c-.15,0-.44-1-.44-1v-1.17c-.15,0-.44-1-.44-1V143c-.14,0-.44-1-.44-1v-1.17c-.14,0-.43-1-.43-1v-1c-.15,0-.44-1-.44-1v-1c-.15,0-.29-1-.29-1v-1c-.15,0-.29-1-.29-1h0l-.3-1.61-.29-1.46-.44-1.46-.43-1.6-.88-1.46-.44-1.46-.58-1.6-.59-1.46-.58-1.46-.58-1.46-.59-1.61-.58-1.46-.73-1.46-.73-1.46-.73-1.46-.73-1.46-.73-1.46-.73-1.46-.73-1.45-.73-1.46-.58-1.46-.59-1.46-.58-1.46-.58-1.46-.59-1.32-.58-1.31V94.14c-.15,0-.58-1.32-.58-1.32l-.44-1.31-.44-1.31L361.84,89h0v-.58l-.44-4.24a5.05,5.05,0,0,0-3.5-4.52,3.81,3.81,0,0,0-2.19-.29,5.35,5.35,0,0,0-5.11,5.54,42.74,42.74,0,0,0,.15,4.38,2.15,2.15,0,0,0,.29,1.31l.29,1,.44,1.6.43,1.46.44,1.46.59,1.46.58,1.46.58,1.46L355,102l.44,1.17a5.3,5.3,0,0,0-3.22,5.54c.3,2.48.73,5.26,1.17,7.74.29,1.89.59,3.65.88,5.25l.29,3.94a5.42,5.42,0,0,0,10.8,0l.44,1.17.44,1.31.43,1.32.44,1.31.29,1.17.3,1.17v1.16c.14,0,.43,1.17.43,1.17h0v2.19l.3,1.17V140l.29,1.16v1.17c.14,0,.29,1.17.29,1.17v1.17c.14,0,.29,1.16.29,1.16V147c.15,0,.29,1.17.29,1.17v1.17c.15,0,.44,1.16.44,1.16v1.17c.15,0,.44,1.17.44,1.17V154c.14,0,.44,1.16.44,1.16v1.17c.14,0,.43,1.17.43,1.17v1.17c.15,0,.44,1.16.44,1.16V161c.15,0,.44,1,.44,1v1.17c.15,0,.44,1,.44,1v1.17c.14,0,.44,1,.44,1v1.17c.14,0,.43,1,.43,1v1.17c.15,0,.44,1,.44,1l7.59,26.86,4.82-28h0l-.3-1-.29-1ZM729.78,89.17l.87-1.31.88-1.46.87-1.31.88-1.46,1-1.46.88-1.46.87-1.31.88-1.46.87-1.46.88-1.46.73-1.46.73-1.46.73-1.46.73-1.46.58-1.46.58-1.46.59-1.46.44-1.46h0l.29-1,.29-1,.29-1,.29-1,.3-1,.29-1,.29-1,.29-1,.29-1,.3-1,.29-1,.29-1,.29-1,.29-1,.29-1,.3-1,.29-1,.29-1,.44-1,.29-1,.44-1,.29-1,.44-1,.29-1,.29-1,.29-1,.44-1,.44-1,.29-1,.29-1,.29-1,.3-1,.87-22.33L743.2,28.17l-.29,1-.44,1-.29,1-.44,1-.29,1-.44,1-.29,1-.44,1.17-.29,1-.44,1-.43,1-.44,1-.44,1-.29,1-.44,1-1.46,1-.29,1-.29,1-.29,1-.3,1-.29,1.16-.29,1L734,52l-.29,1-.3,1-.29,1.17-.29,1-.29,1-.29,1-.3,1-.29,1h0l-.29,1-.29,1-.44,1.17-.44,1.17-.58,1.16L729.05,67l-.59,1.17v.29a5.59,5.59,0,0,0-10.94-.58l-.59,2.62c-.44,1.75-1.17,3.8-1.75,5.84a66,66,0,0,0-2.33,7.74,5.37,5.37,0,0,0,1.31,5.1,2.28,2.28,0,0,0,1.17.88l-.73,1.31-.73,1.46-.73,1.46-.73,1.46-.73,1.46-.59,1.46-.58,1.46-.58,1.46-.59,1.46h0a2.08,2.08,0,0,1-.29.88c-.29,1.46-.44,2.77-.73,4.23a5.08,5.08,0,0,0,1.46,4.52,4.51,4.51,0,0,0,2.92,1.61,5.34,5.34,0,0,0,6.27-4.09l.88-3.94a4.67,4.67,0,0,0,0-2l.44-1,.58-1.17.59-1.17.58-1.31.73-1.32.73-1.31.73-1.31.87-1.32L726,93l.88-1.31.87-1.32.88-1.31ZM716.49,67.72a5.39,5.39,0,0,0-4.37-6.13,5.24,5.24,0,0,0-6.28,4.09l-1.75,7c-.29.88-.59,1.75-.88,2.63s-.58,1.9-.87,2.92l2.33-11.09A5.41,5.41,0,0,0,701,60.86a5.33,5.33,0,0,0-6.56,2.92A26.68,26.68,0,0,0,692,72a12.8,12.8,0,0,1-1.31,4.53,25,25,0,0,0-2,8.9,11.78,11.78,0,0,1-.29,2.34l.87-7.59,1.46-13.29h0v-.73a5.26,5.26,0,0,0-3.21-4.81,5.65,5.65,0,0,0-6.28,1.46s-.14.29-.29.29h0a.45.45,0,0,1-.14.29l-.59.88-.73,1.17-.73,1.16L678,67.87l-.73,1.31-.73,1.31-.73,1.32-1,1.46L674,74.73l-.73,1.46-.73,1.6-.73,1.61L671.1,81l-.73,1.61v.58a.53.53,0,0,1-.29-.14l-.44-1.61-.29-1.61-.44-1.6-.43-1.61L668,75l-.44-1.61-.44-1.6-.43-1.46-.44-1.46-.44-1.46-.44-1.32L665,64.8l-.43-1.17-.44-1.16-.44-1.17-.44-1-.44-1h0l-.73-1.32-.58-1.31-.58-1.17-.59-1-.58-1-1.31-.88-.59-.87-.58-.88-.59-.88-.58-.73-.44-.72-.43-.73-.44-.73-.44-.73-.44-.73-.44-.59-.43-.58-.44-.59-.44-.58-.58-.58L651,42l-.44-.58-.58-.73-.58-.73-.59-.73-.58-.88-.73-.87-.73-.88-.73-.87-.73-1-.73-1-2.19-1.16-19-14,11.38,21.89.88,1.17.87,1,.73,1,.73.87.73.88.73.88L640,47l.58.73.58.73.59.72.58.59.59.58.43.59.44.58,1.31.58.44.59.44.58.44.59.44.58.43.58.44.59.44.73.44.73.44.73.43.73.59.87.58,1,.58,1,.59,1.17.73,1.17.73,1.31h0l.29.59.29.73.29.87.44.88.44,1,.44,1.17.43,1.17.44,1.31.44,1.31.44,1.46.44,1.46.43,1.46.44,1.46.44,1.46.44,1.46.44,1.6L660.3,86l.3,1.46.43,1.46.29,1.46.3,1.46.29,1.46.29,1.32.29,1.31.29,1.31.3,1.17v1.17c.14,0,.43,1,.43,1v1c.15,0,.44.88.44.88h0l-.44,1.46-.43,1.46-.44,1.45-.44,1.46-.44,1.32v1.31h.29l-.43,1.46-.44,1.61-.44,1.46-.29,1.46-.29,1.45-.29,1.46-.3,1.46-.29,1.46L659,124.2l-.29,1.46-.29,1.46-.3,1.46V130c-.14,0-.43,1.46-.43,1.46V133c-.15,0-.3,1.46-.3,1.46v1.46c-.14,0-.29,1.46-.29,1.46v1.46c-.14,0-.29,1.46-.29,1.46v1.46l-.29,1.46v1.46l-.15,1.46v1.45l-.14,1.46v1.46l-.15,1.61v1.46l-.15,1.6v1.61L658,179.66l6.86-20.72v-1.61l.29-1.6v-1.46l.29-1.46v-1.46l.29-1.46v-1.46L666,147v-1.46c.14,0,.29-1.46.29-1.46v-1.46l.29-1.46v-1.46l.29-1.46v-1.46c.15,0,.29-1.46.29-1.46l.29-1.45.3-1.46.29-1.46v-1.46c.14,0,.44-1.46.44-1.46l.29-1.32.29-1.46.29-1.46.29-1.31.3-1.46.29-1.46.29-1.46.29-1.46.44-1.46.44-1.46.44-1.46h0l.29-1.16.43-1.32.44-1.31.44-1.31.44-1.46.44-1.46.58-1.46.44-1.46v-.59c.14,0,.14.59.14.59a83.89,83.89,0,0,0,0,12,6,6,0,0,0,1.46,3.06,5.81,5.81,0,0,0,3.94,1.75,5.47,5.47,0,0,0,5.26-3.94,2.54,2.54,0,0,0,.73,1,5.41,5.41,0,0,0,3.65,1.76,5.66,5.66,0,0,0,5.69-4.38,5.8,5.8,0,0,0,1.17,1.89,4.51,4.51,0,0,0,2.92,1.61,5.49,5.49,0,0,0,6.27-4.09l9-37.21a52.52,52.52,0,0,0,1.9-7.89ZM654,108.59a172.61,172.61,0,0,1-20.87,1.16c-23.06,0-43.64-4.37-63.64-8.61-18.82,3.07-36.78,6-54.44,6h-5c-16.2-.59-32.4-3.07-49.48-5.84a2.44,2.44,0,0,1-1-.15c-23.2,4.82-49.33,9.93-79.25,8.18A5.12,5.12,0,0,1,381,99.1a224.9,224.9,0,0,0,47.28-2.48c-17.66-2-36.05-2.77-55.6-.44a5.08,5.08,0,0,1-1.32-10.07c32-3.94,60.57.29,88,4.67a1.29,1.29,0,0,0,.73-.15c20.43-4.23,39.85-8.31,59.69-7.44,16.93.73,33,4.09,49.92,7.74,24.66-4.09,52.69-8.61,83.48-7a5.1,5.1,0,0,1,4.82,5.4,5,5,0,0,1-5.4,4.82c-19-1-36.64.44-53.42,2.62,16.78,2.78,34.3,4.09,53.56,1.9a5.14,5.14,0,1,1,1.17,10.22ZM539.46,95.3a188.47,188.47,0,0,0-20.14-2,141.29,141.29,0,0,0-29.19,2,193.23,193.23,0,0,0,20.14,1.61A200.09,200.09,0,0,0,539.46,95.3Zm555.48-22.91a5.66,5.66,0,0,0-3.5-4.52,3.82,3.82,0,0,0-2.19-.3,5.76,5.76,0,0,0-4.09,2.19A5.49,5.49,0,0,0,1081.8,66a5,5,0,0,0-1.46-.29,5.41,5.41,0,0,0-5.4,3.35v-.29a5.41,5.41,0,0,0-3.5-5.11,3.59,3.59,0,0,0-1.17-.29,5.58,5.58,0,0,0-6,4.09,69.07,69.07,0,0,0-1.6,12v0l-.3-1.61-.29-1.46-.29-1.46-.29-1.46-.29-1.46-.3-1.31-.29-1.31V68h-.29l-.29-1.46-.29-1.46V63.63c-.15,0-.3-1.46-.3-1.46V60.71c-.14,0-.29-1.45-.29-1.45V57.8l-.29-1.46V54.88l-.15-1.46V52l-.14-1.46V35.9l1.46-1.31V30.21l.14-1.46V27.29l.3-1.46V24.37l.29-1.6L1052.61,0l-2.48,20.43V22l-.14,1.6v1.61l-.29,1.46v1.6l-.15,1.46v1.46l-.15,1.46v1.46l-.14,1.46V54.73l.14,1.46V57.8l.15,1.46v1.6c.15,0,.29,1.61.29,1.61v1.6c.15,0,.29,1.61.29,1.61v1.6c.15,0,.44,1.61.44,1.61h0l.15,1.31v1.46c.14,0,.44,1.46.44,1.46l.29,1.46.29,1.61.29,1.31h0a9.71,9.71,0,0,1-.29,1l-.29.88-.29,1-.3,1.17-.43,1.16-.44,1.32-.44,1.31-.44,1.31-.44,1.46-.58,1.46-.58,1.46-.59,1.46-.58,1.46-.59,1.46-.58,1.46-.58,1.46-.59,1.46-.58,1.46-.58,1.46-.59,1.31-.58,1.32-.59,1.31-.58,1.17-.58,1.16-.59,1-.43,1-.44.87-.44.73-.44.73-.29.59h0l-.88,1.16-.87,1.17-.73,1-.73.88-.73.87-.58.88-.59.73-1.31.58-.59.59-.58.58-.58.59-.59.58-.43.58-.59.44-.58.44-.44.44-.58.43-.59.44-.58.44-.59.58-.58.59-.58.58-.73.58-.73.59-.73.73-.73.73-.88.73-.87.87-.88.88-1,.88-1,1-1,1-6.13,16,14.74-9.48.87-1,.88-.87.87-.88.88-.73.88-.73,1.89-.58.73-.58.73-.59.59-.58.58-.59.58-.58.59-.58.58-.59.58-.58.59-.58.58-.59.59-.58.58-.59.58-.58.59-.73.58-.73.59-.73.58-.73.58-.87.73-.88.73-.88.73-1,.73-1,.88-1.17.87-1.16.88-1.32h0l.58-.87.59-1,1.16-1,.59-1.16.58-1.17.59-1.32.58-1.31.58-1.31.59-1.32.58-1.46.58-1.46.59-1.45.58-1.46.59-1.46.58-1.61.58-1.46.59-1.46v-.29l.29.73.44,1.61.43,1.75.59,1.6.44,1.61.43,1.6.59,1.61.44,1.46.58,1.46.58,1.46.59,1.31.58,1.31.59,1.32,1,1.31.29.58v.3a.47.47,0,0,0,.14.29c0,.14.15.29.3.44l.14.14V119a2.48,2.48,0,0,0,.29.44h0a5.46,5.46,0,0,0,5.7,1.31,5.16,5.16,0,0,0,3.21-3.07h0c0-.14.14-.43.14-.58V102c.15,0,.29-9.34.29-9.34a18.55,18.55,0,0,1,0,4.08,29.41,29.41,0,0,0,1,9.34,17.52,17.52,0,0,1,.73,4.68,24,24,0,0,0,1.46,8.46,5.32,5.32,0,0,0,6.13,3.65,5.17,5.17,0,0,0,4.37-5.69l-.58-9.34a5.48,5.48,0,0,0,.29,1.46c.15,1,.44,1.89.59,2.91L1089,119a5.49,5.49,0,0,0,10.94-.73,40.79,40.79,0,0,0-.87-7.59L1094.5,72Zm38.24,86.4-.29-1-.3-1-.29-1-.29-1.17-.29-1v-1.17c-.15,0-.44-1-.44-1l-.29-1.17-.29-1-.29-1.17-.3-1-.29-1.17v-1.16c-.14,0-.44-1-.44-1v-1.16c-.14,0-.43-1-.43-1v-1.16c-.15,0-.44-1-.44-1v-1.17c-.15,0-.44-1-.44-1v-1.17c-.15,0-.44-1-.44-1v-1.17c-.14,0-.44-1-.44-1v-1c-.14,0-.43-1-.43-1v-1c-.15,0-.3-1-.3-1v-1c-.14,0-.29-1-.29-1h0l-.29-1.61-.29-1.46-.44-1.46-.44-1.6-.87-1.46-.44-1.46-.58-1.61-.59-1.46-.58-1.46-.59-1.45-.58-1.61-.58-1.46-.73-1.46-.73-1.46-.73-1.46-.73-1.46-.73-1.46-.73-1.46-.73-1.46-.73-1.46-.58-1.46-.59-1.45-.58-1.46-.59-1.46-.58-1.32-.58-1.31V87c-.15,0-.59-1.32-.59-1.32l-.44-1.31-.43-1.31-.3-1.17h0v-.59l-.43-4.23a5,5,0,0,0-3.51-4.52,3.79,3.79,0,0,0-2.18-.3,5.36,5.36,0,0,0-5.11,5.55c0,1.46,0,2.92.14,4.38a2.15,2.15,0,0,0,.29,1.31l.3,1,.43,1.61.44,1.46.44,1.46.58,1.46.59,1.46.58,1.46.59,1.46.43,1.16a5.31,5.31,0,0,0-3.21,5.55c.29,2.48.73,5.25,1.17,7.74q.44,2.84.88,5.25l.29,3.94a5.42,5.42,0,0,0,10.8,0l.44,1.17.43,1.31.44,1.32.44,1.31.29,1.17.29,1.16v1.17c.15,0,.44,1.17.44,1.17h0v2.19l.29,1.17v1.16l.29,1.17v1.17c.15,0,.3,1.17.3,1.17v1.16c.14,0,.29,1.17.29,1.17v1.17c.14,0,.29,1.17.29,1.17v1.16c.15,0,.44,1.17.44,1.17v1.17c.14,0,.44,1.17.44,1.17v1.16c.14,0,.43,1.17.43,1.17v1.17c.15,0,.44,1.17.44,1.17v1.17c.15,0,.44,1.16.44,1.16v1.17c.15,0,.44,1,.44,1V156c.14,0,.44,1,.44,1v1.17c.14,0,.43,1,.43,1v1.17c.15,0,.44,1,.44,1v1.17c.15,0,.44,1,.44,1l7.59,26.85,4.81-28h0l-.29-1-.29-1ZM1415.88,82a5.08,5.08,0,0,1-5.4,4.82c-20.58-1-40.86.58-60.86,3.21a188.5,188.5,0,0,0,50.06,1.31,5.11,5.11,0,0,1,5.69,4.53,5,5,0,0,1-4.52,5.69,170.65,170.65,0,0,1-20.87,1.17c-22.33,0-42.33-4.09-61.74-8.17-20,2.91-39.11,5.54-56.33,5.54h-5c-16.2-.58-32.4-3.06-49.47-5.84a2.62,2.62,0,0,1-1-.14c-23.2,4.81-49.33,9.92-79.25,8.17a5.12,5.12,0,0,1,.59-10.22,224.37,224.37,0,0,0,47.29-2.48c-17.66-2-36-2.77-55.61-.44a5.08,5.08,0,1,1-1.31-10.07c32-3.94,60.56.3,88,4.67a1.36,1.36,0,0,0,.73-.14c20.44-4.23,39.85-8.32,59.7-7.44,17.07.73,33.42,4.23,50.64,7.88a4.06,4.06,0,0,1,1.31.29,10.33,10.33,0,0,0,2-.29c27.73-4.09,59.25-8.76,90.34-7.15a5.1,5.1,0,0,1,4.82,5.4ZM1287,88.3a195.42,195.42,0,0,0-20.73-2.19,141.34,141.34,0,0,0-29.19,2,193.41,193.41,0,0,0,20.15,1.61A212.5,212.5,0,0,0,1287,88.3ZM204.5,94.43c-20,2.92-39.11,5.55-56.33,5.55h-5c-16.2-.59-32.41-3.07-49.48-5.84a2.41,2.41,0,0,1-1-.15c-23.21,4.82-49.33,9.93-79.25,8.17A5.11,5.11,0,1,1,14,92a225,225,0,0,0,47.29-2.48c-17.66-2-36-2.78-55.61-.44A5.08,5.08,0,0,1,4.41,79c32-3.94,60.57.29,88,4.67a1.3,1.3,0,0,0,.73-.15C113.58,79.25,133,75.16,152.84,76c17.07.73,33.42,4.23,50.64,7.88a4.48,4.48,0,0,1,1.32.29,9.56,9.56,0,0,0,2-.29c27.73-4.09,59.25-8.76,90.34-7.15A5.12,5.12,0,1,1,296.6,87c-20.58-1-40.87.58-60.86,3.21a189.33,189.33,0,0,0,50.06,1.31A5.14,5.14,0,0,1,287,101.73a172.77,172.77,0,0,1-20.88,1.16c-22.33,0-42.32-4.08-61.73-8.17ZM173.27,88.3a195.51,195.51,0,0,0-20.72-2.19,141.29,141.29,0,0,0-29.19,2,193.23,193.23,0,0,0,20.14,1.61A212.5,212.5,0,0,0,173.27,88.3Zm771.78,8.9c-22.18,3.5-43.2,6.86-61,6.86h-5.25c-17.08-.73-33.42-4.23-50.65-7.88a4.48,4.48,0,0,1-1.31-.29c-.73,0-1.6.29-2.33.29-24.09,3.5-50.94,7.44-77.79,7.44s-8.76,0-13-.29a5.11,5.11,0,1,1,.58-10.21c20.72,1,41.3-.73,61.44-3.22a188.37,188.37,0,0,0-49.91-1.31,5.14,5.14,0,0,1-1.17-10.22c30.94-3.64,57.21,1.61,82.61,7,22.18-3.21,43.05-6.13,61.44-5.55,16.2.59,32.4,3.07,49.48,5.84,2.34.44,4.67.73,7.15,1.17a3.14,3.14,0,0,0,1.17-.15c29.92-4.81,63.93-10.21,95-8.46a5.12,5.12,0,1,1-.58,10.22c-18.83-1.17-38.53.58-58.24,3.06a219.39,219.39,0,0,0,43.64-.73,5.08,5.08,0,1,1,1.32,10.07c-29.78,3.8-56.49.29-82.17-3.79ZM910.31,92c-7.44-.88-14.88-1.61-22.18-1.9a212.42,212.42,0,0,0-29.77,1.46,199.46,199.46,0,0,0,20.72,2.19C888.42,94.14,898.93,93.26,910.31,92Z"/></g></g></g></g></svg>