<svg xmlns="http://www.w3.org/2000/svg" viewBox="0 0 409.38 40.39"><title>Asset 30</title><g id="Layer_2" data-name="Layer 2"><g id="Layer_1-2" data-name="Layer 1"><g id="_1d0d2d50-2c15-40f5-9b0d-f86c87df0a7c" data-name="1d0d2d50-2c15-40f5-9b0d-f86c87df0a7c"><g id="_1d0d2d50-2c15-40f5-9b0d-f86c87df0a7c-child-0" data-name="1d0d2d50-2c15-40f5-9b0d-f86c87df0a7c-child-0"><path d="M351.22,17.29v.09a7.64,7.64,0,0,0,.32.87h-.13c-.16,0-.32-.43-.45-.67a3.33,3.33,0,0,1,.32-.34ZM389.48,39c.2.48.35,1,.51,1.34h-7.7L369.52,21v-.28l1.12-1.11.12-.53c-.82.19-1.14-.14-1-.91.47-.19.82-.38,1.3-.58-.54-.57-.86-1-1.27-1.39-.13.48-.32,1.11-.54,1.87-.77-.72-1.47-1.39-2.17-2.11-.06.39-.06.82-.09,1.2L358.13,3.84c.12-.62.28-1.2.41-1.82l-.29-.24a1.59,1.59,0,0,0-.47.14c.44-1,.92-.48,1.4,0A6.16,6.16,0,0,0,359.27,3h.29c.06-.53.13-1.11.16-1.73a.57.57,0,0,0,.35-.1,1.31,1.31,0,0,0,0-.34c-.32.05-.67.15-1,.2,0-.05-.1-.29-.07-.34a6.76,6.76,0,0,0,.51-.62h.64c.09.81.19.86.83,1.34,0-1.54.57-1.25,1.11-1.06.06.68.13,1,.29,1V.53a.48.48,0,0,0,.38-.1.53.53,0,0,0-.06-.24h1.52l25,37.65a2.47,2.47,0,0,0-.25,2.45c.16-.38.35-.82.54-1.3ZM362.71,6.82l-.89-1.49c-.22.77-.35,1.25-.51,1.87.44-.14.86-.24,1.43-.38Zm4.2,6.29c-.51-.58-1-1.15-1.62-1.78-.61.53.19,1.54.13,2.4,0,.24.54.58.86.87a3.22,3.22,0,0,1,.15-.39c-.19-.28-.35-.62-.54-.91a2.39,2.39,0,0,1,.13-.24c.26.1.54.24.8.34,0-.1.06-.15.06-.24Zm1.72.77c-.13-1.11-.22-2-.35-3-.57.29-1,.53-1.72.87Zm-18.4,12,.1.15c.44.19.82.29,1.36.53-.28-.82-.47-1.3-.73-1.93-.28.48-.44.82-.73,1.3Zm1.24-8.83c.13.14.29.24.45.38-.16-.24-.29-.43-.38-.38ZM112.19,40.24h.92c-.09-.38-.22-.77-.31-1.15A1,1,0,0,0,112.19,40.24Zm-2-3.46a.53.53,0,0,0-.25.1l1.81,2.74a5.06,5.06,0,0,0,.29-.48c-.7-.77-1.34-1.44-2-2.12a1.13,1.13,0,0,1,.12-.28ZM409.29.14h-8.57l8.66,13.07V.29ZM130.91,21.66l-.51-.77-.06.1c.22.28.44.62.51.72S130.88,21.71,130.91,21.66ZM274.3,35.92a6.77,6.77,0,0,1,1,4.32h2.86V40.1l-4.33-6.53a8,8,0,0,0,.45,2.35Zm19.2-6.68,7.32,11.05h-7.07a7.21,7.21,0,0,1,1.53-4.08l-.19-.58c-.25.19-.54.48-.7.39a.23.23,0,0,1-.13-.1c-.32,1.39-.63,2.74-1,4.23a1.22,1.22,0,0,0-.39.14h-.44c0-1,.63-1.83.86-2.88a3.71,3.71,0,0,0-1.12-.34c-1.11,0-1.53-.72-1.3-2.3a12.18,12.18,0,0,0,.22-1.35c0-.62-.1-1.25-.16-1.92-1,.87-1.78,1.54-2.61,2.26-.8-1.2-1.66-2.35-1.08-4.42a6.13,6.13,0,0,0-.19-1.54h-.35c0,.53,0,1.06,0,1.54,0,.29-.23.72-.39.77s-.41-.24-.54-.53a4.4,4.4,0,0,1-.28-1.15c-.26-1.11-.51-2.16-1.53-2.11-.13,0-.29-.15-.41-.34-.07.05-.13.14-.2.19a2.29,2.29,0,0,0-.22.24l-1.69-2.54a2.5,2.5,0,0,1,.26.33c.44.58.83,1.16,1.27,1.83l.29-.43-.1-.15h.16l.48-.72a2.69,2.69,0,0,1,.19.38c.26-.52.1-1.48.38-2l1.88,1a.8.8,0,0,0,.06.28c.1.34.2.68.29,1.06.19-.14.38-.34.61-.48s.51-.53.57-.43a1.63,1.63,0,0,1,.38,1c-.19,3,1.5,3.6,2.64,4.9.23.24.8-.19,1.28-.34.25.43.54,1,.86,1.59.09,0,.16-.15.25-.2.1-.72.22-1.48.32-2.3h0Zm-8.28-4.65v-.15h-.29a.5.5,0,0,0,.1.19.53.53,0,0,0,.22-.09Zm9.58,15.46v-.53a.63.63,0,0,0-.28.1.93.93,0,0,1,0,.33C294.58,40,294.71,40.05,294.8,40.05Zm65-3.55c.1,0,.19.14.29.19.16-.24.38-.63.57-1-.09,0-.16-.15-.25-.19a2.8,2.8,0,0,0-.93-.29,7,7,0,0,0,.29,1.25Zm-4.07-9.7h0v0Zm2.51,2.68c.1-.76.23-1.58.35-2.4.32.39.7.53,1,0l-.7-1a2.28,2.28,0,0,1-1,1.39c-.57.29-.48.72-.12,1.25a7.69,7.69,0,0,0,.5.81Zm5,4.47c.06-.14.19-.48.32-.82l-.61-.91h-.38c-.09,0-.19.05-.28,0-.68-.09-1,.37-.83,1.39a2.05,2.05,0,0,1,.54.1c.13-.24.25-.48.45-.82v.92a6.13,6.13,0,0,1,.82.14Zm4.14,4.9-1-1.49a.37.37,0,0,1-.12-.19L364.84,35l-2.61.86.13,1.2s.06.1.1.15v1.15c-.16-.15-.32-.24-.51-.39a9.52,9.52,0,0,1,.41-.86c-.32-.29-.64-.53-1-.82.16.87.32,1.59.45,2.26-.86,0-1.75.14-2.67.24a1.86,1.86,0,0,0,.12-.38h0c-.44,0-.63-.48-.32-1l.07-.1h-.29V36c.07,0,.1.05.16.09.19-.52.42-1.05.57-1.63a1.25,1.25,0,0,1,.1-.29,1.59,1.59,0,0,0-.64.1c-.38.29-.73.58-1.11.86a3.63,3.63,0,0,1,0-.57c-.6-.72-1.18-1.44-1.85-2.26.1-.14.29-.53.42-.53a5.88,5.88,0,0,1,.92.15.94.94,0,0,1,.06-.29.63.63,0,0,0,.26-.19l.29.72h0c.06,0,.12.19.12.38a.27.27,0,0,0,.07.14h-.07a6.61,6.61,0,0,1,0,.77l.8.67c.16-.81.22-1.63.95-2a.89.89,0,0,0-.22-1.49,3.86,3.86,0,0,1-.35.81c-.19.24-.61.48-.7.39a2.3,2.3,0,0,1-.41-1.3h0a1,1,0,0,0-1.21-.57,11.46,11.46,0,0,0-1.25.38,1.63,1.63,0,0,0-.51,2.06,1.42,1.42,0,0,1-.44.39l.48.72c.12-.1.22-.24.35-.34.28.43.51.82.73,1.16-.06.19-.13.38-.19.52l.79,1.2h0l.86,1.3c.07-.19.16-.43.23-.67.22.19.44.43.7.62a6.7,6.7,0,0,0-.23,1.06l1,1.54c.38-.24.8-.53,1.28-.87.28.34.73.91,1.17,1.35h.77c-.35-.77-.58-1.3-.83-1.78.8,0,1.59.09,2.42.19,1,.1,1,.15,1.75,1.06.22.29.67.14,1,.48a.92.92,0,0,0-.35,0h.73a10.64,10.64,0,0,1-.13-1.25V38.9Zm-27.63-2c-.23.43-.42.91-.58,1.2h0c-.12-.91-.25-1.82-.32-2.74s0-1.63,0-2.49a2.32,2.32,0,0,0-.73.09c.13-.53.29-1,.42-1.58-.32,0-.51-.1-.77-.1-.48-.77-.95-1.58-1.88-1.34-.31.09-.73-.87-1.14-1.2a.13.13,0,0,1-.1,0c.19-.1.38-.19.54-.29-.57-.67-1.05-1.25-1.62-2,.32-.14.51-.24.51-.24.13-.72.19-1.25.35-2.06a6.24,6.24,0,0,1-.8.48,4.81,4.81,0,0,1-.79.14,2.47,2.47,0,0,1-.1,2.55c.42.19.77.33,1.08.48a3.7,3.7,0,0,0,.07.48.32.32,0,0,1-.19-.1l-.26.38c.23,1.4.42,2.84.64,4.28a5,5,0,0,1,.89.05,2.8,2.8,0,0,1,0,.48,1.43,1.43,0,0,1-.22.52c0,.1-.32,1-.57,1.88l-2.68-4a4.66,4.66,0,0,0,.83.34c0-.1.06-.19.1-.34a14.54,14.54,0,0,0-1-1.1c-.1-.1-.32.14-.48.24L318.94,12.58c.28-.29.57-.57.79-.81-.57-.73-1.08-1.35-1.72-2.12-.19.19-.38.43-.6.67l-5.92-8.93c.15-.09.28-.24.28-.29a3.16,3.16,0,0,0-.09-.91h2.54a1.45,1.45,0,0,0,.58.39,1,1,0,0,1,.38.57,1.06,1.06,0,0,1-.45.67,2.37,2.37,0,0,1-.89.15c1.18,1,1.88.82,2-1.11,0,.24.06.53.12.82a4.62,4.62,0,0,1,.42-.48l1.05.91c.54-.48,1-.86,1.4-1.25a6.09,6.09,0,0,0-.32-.62h.73l3.66,5.52a3.63,3.63,0,0,1-.5,1.16,5.44,5.44,0,0,0-.32,1.82,4.55,4.55,0,0,0-.67.34v1.77c.63-.86,1.11-1.49,1.59-2.16-.13-.38-.25-.67-.38-1,.19-.33.35-.57.54-.86.06-.1.16-.24.22-.24h0l8.28,12.48a1.88,1.88,0,0,1-.45,1.06c.32.43.55.34.74.14.16.1.38.2.57.34a.31.31,0,0,1,0-.14l.13.19c-.51.34-1,.67-1.47,1a2.94,2.94,0,0,0,.1.48h1.88a4.78,4.78,0,0,1,.09-.63l1.79,2.69a.85.85,0,0,0-.42.58,2.41,2.41,0,0,0,.51,1.49,37.67,37.67,0,0,0,3,2.59l.48.72a1.14,1.14,0,0,0,0,.43c.16.39.29.29.38.15l1.15,1.73a5.6,5.6,0,0,0-.42.81.48.48,0,0,1,.26,0c-.1.38-.19.77-.29,1.25.13.14.42.43.73.77-.09.14-.12.24-.19.33-.28.15-.6.29-.67.58s.26,1,.42,1.54l-.22-.2Zm-26-34.14c-.16-.24-.26-.43-.38-.58a4,4,0,0,0-.35.53,1.08,1.08,0,0,1,.41.38Zm13.85,17.67a11.69,11.69,0,0,0-.74-1.3c-.19.77,0,2.07.39,2.16.12,0,.31,0,.35-.14a1.27,1.27,0,0,0,0-.67Zm2.32,2c-.29-1.2-.51-2.16-.8-3.36-.28.38-.63.76-1,1.2C328.65,21.23,329,22.23,330,22.38ZM336.54,28s-.13-.48-.25-.53a1.12,1.12,0,0,0-.58,0c-.06.48-.09.86-.12,1.25a1.14,1.14,0,0,1,.15.29,10.5,10.5,0,0,0,.8-1.06Zm31.39,12.29h.45l-.29-.43C368,40,368,40.1,367.93,40.24Zm-247.75,0h.57l-.25-.38C120.4,40,120.28,40.1,120.18,40.24ZM311,.48c0-.1.09-.24.12-.34h-.44l.12.2C310.85.34,310.91.43,311,.48Zm46.86.67a1.57,1.57,0,0,1-.73.1c.09-.15.19-.24.25-.34a.76.76,0,0,1-1-.24s-.12,0-.25.15L357,2.16C357.3,1.82,357.55,1.49,357.84,1.15Zm-2.33,25.21a.68.68,0,0,0-.19-.19,1,1,0,0,1,.16.24h0Zm-14.19,9.18c-.13.28-.23.57-.39,1a2.6,2.6,0,0,0,.7.43c.2-.34.39-.63.64-1,.1.48.19.91.26,1.3a5,5,0,0,1,1.59.52c-.16.68-.35,1.4-.48,1.93a4.59,4.59,0,0,0-.76-.48c-.16,0-.35,0-.51-.1-.74-.48-1.44-1-2.14-1.44a.41.41,0,0,0-.47,0c-.1.09-.07.38-.07.62,0,.43-.09.92-.13,1.35v.24a.78.78,0,0,0,.32.38h1a2.91,2.91,0,0,1,.26-.53c.09-.14.25-.19.38-.28a2.12,2.12,0,0,1,.19.57v.29h3l.07,0v0h1l-3.21-4.85c-.41,0-.83.86-1.27.14ZM90.64,40.19h2a.33.33,0,0,1,.06-.14C91.72,39.23,91.21,39.19,90.64,40.19ZM72.2,35h0a.43.43,0,0,1,.1.1ZM280.64,21.13a2.42,2.42,0,0,0-.67-2.59c-.26-.2-.54-.34-.83-.53a5,5,0,0,0,0,1.39,4.37,4.37,0,0,1,.22.67c1.18.87,1.18.87,1.21,1.06h-.92v.14l.67,1a.63.63,0,0,1,.35-.29c-.07.15-.1.29-.16.44h-.13l.77,1.15c.06-.15.09-.24.09-.19a6.76,6.76,0,0,1-.64-2.21Zm70,1.2c-.31,0-.7-.19-.95,0a2.36,2.36,0,0,0-.8,1.58l.7,1.06a11.15,11.15,0,0,0,.89-1.44,4,4,0,0,0,.16-1.15ZM66.79,35.2l.45-.53a2.12,2.12,0,0,0-.67.34A1.44,1.44,0,0,1,66.79,35.2Zm284.3-8.07.25.39a.38.38,0,0,0-.09-.24.34.34,0,0,0-.19-.2ZM349.59,12h0l-1.08-1.64s0,0-.06,0a4.24,4.24,0,0,0,.16.53c.19.63.41,1.49,1,1ZM32.89,22.52l.19.29v-.24a.32.32,0,0,1-.19-.1Zm.28-12c0-.09.07-.24.1-.33L33,9.8c0,.24.1.48.16.76Zm9.62,20.75a13.29,13.29,0,0,1,.76-1.59,1.33,1.33,0,0,0,.19-.33l-.57-.1a2.12,2.12,0,0,0-.06-.43c.16-.24.31-.53.44-.77a4.41,4.41,0,0,1-.35-.43c-.48-.62-1-.67-1.3.34-.26-.24-.51-.48-.74-.68-.31.53-.63,1-.95,1.59-.38-.29-.7-.72-1.08-.82-.8-.24-.51.58-.45,1.15-.32.2-.64.39-1,.58l1.82,2.74c.09-.29.19-.48.35-.53,1-.53,1.91-1.3,3-.67Zm-1.18-8.55-1.24-1.87c-.67.1-.48,1.44-.86,1.92,0,.1.06.24.06.34.67-.15,1.37-.29,2-.39Zm1.75,15.56.45.67c.25.1.38-.09.57-.77a1.81,1.81,0,0,1-.26-.48c-.25.2-.5.34-.76.53Zm17.45-7.63h.06l.06-.1a.16.16,0,0,0-.12.05h0ZM59,21.08l-.06,0a6.77,6.77,0,0,0-.35.92,1,1,0,0,1-.07.28,2.56,2.56,0,0,1-.22-.38c-.13.48-.22.82-.29,1.06a1.08,1.08,0,0,1-.79-.34c-.23-.19-.42-.58-.64-.77s-.38-.14-.57-.24a9.28,9.28,0,0,0,.22.91,2.37,2.37,0,0,0,.38.48c-.06.34-.16.68-.22,1l.7,1.06c.51-.53,1.05-1.11,1.5-1.59.12-.81.22-1.53.38-2.4Zm292.23-5.33a1.25,1.25,0,0,1,.63-.43L351,14.07a5.56,5.56,0,0,0-.41.58,4.59,4.59,0,0,0-.25,1.15c.28,0,.7.14.86,0Zm2.1,12c-.23-.67-.42-1.15-.64-1.83a6,6,0,0,0,.35,3.51.44.44,0,0,0,.32.09h.41V27.56a1.12,1.12,0,0,0-.41.15Zm-64.06,8,.13.19v-.19h-.13Zm-15.5-2.31a7.21,7.21,0,0,0,.09,1.06c-.16-.09-.35-.14-.51-.24l-1.21-2.4a13.74,13.74,0,0,0-2,0c-.26,0-.48.58-.74.82l-.25.24a3.72,3.72,0,0,1,.06.62c.42.34.77.62,1.34,1.06a4.21,4.21,0,0,1-1.4.38c-.29,0-.61-.38-.89-.62,0,.38-.07,1-.13,1.49,0,.28-.13.72-.25.76a1,1,0,0,0-.32.2L264,31.45a4.23,4.23,0,0,1,.76-.91,3.84,3.84,0,0,1-.41-1.44c.38-1.92.79-3.84,1.27-6.15.67,1.3,1.15,2.31,1.65,3.32-.12.81-.25,1.63-.47,3a7.22,7.22,0,0,0,1.65-3.88l5.32,8Zm-7-2.59a7.61,7.61,0,0,1-1.33.48c0,.15.06.24.09.39.42,0,.8.14,1.18.19,0-.34,0-.67,0-1ZM198.82.14h-.7l.86,1.3A4.41,4.41,0,0,1,198.82.14Zm60.23,24,.29.44a.51.51,0,0,0-.07-.24C259.27,24.25,259.18,24.2,259.05,24.15ZM52.85,40.24h.32l-.35-.53a1,1,0,0,1,0,.53ZM44.19,26.7c0,.24.06.48.09.77.07-.15.1-.24.16-.39Zm4.17,11.67c-.61-.1-1-.19-1.5-.29-.32-.48-.73-1.2-1.21-2,.16-.28.39-.67.74-1.24a3,3,0,0,0,.44,1V36H47a4.85,4.85,0,0,1,1.43,2.4Zm-1.53-.82a1.75,1.75,0,0,0-.09-.38,2.73,2.73,0,0,1,0,.57.86.86,0,0,0,.13-.14ZM50.68,39a.47.47,0,0,1,.23,0v1.2H52c-.13-.72-.23-1.34-.35-2.06C51.35,38.37,51,38.66,50.68,39Zm-.92-1.16v0a.7.7,0,0,0,.13-.43v-.53c-.77,1.49,0,2.31.09,3.27h.23c-.07-.82-.16-1.59-.26-2.59a2.68,2.68,0,0,0-.19.38Zm-1.34-4.7h0V33c0,.09-.06.14-.09.24a3.66,3.66,0,0,0,.06,1.3h.22c0-.34,0-.68,0-1.11h0a.5.5,0,0,0-.26-.29Zm-3.88,4.7a1.43,1.43,0,0,1,.13-.38c-.07,0-.13.09-.19.14s.06.19.06.29Zm-.83-11.91-.44-.67c-.26.1-.32.58,0,1.2a4.29,4.29,0,0,1,.47-.48Zm-2.39.77a1.55,1.55,0,0,0,.23-.19c.06-.29.06-.48.16-.53.44-.33.85-.77,1.3-1.1l-.32-.48c-.51.67-1.08-.87-1.75,0C41,25,41.16,25.74,41.32,26.65Zm4.91,6a13.14,13.14,0,0,0,.86-1.72l-1.63-2.45c-.09.48-.22,1-.32,1.39.48.24.83.38,1.4.67-.47.34-.73.48-1,.72C45.78,31.79,46,32.17,46.23,32.65Zm17.19-11-.93-1.39c-.25.24-.47.48-.66.67.31.67.6,1.25,1,2A14.17,14.17,0,0,0,63.42,21.61Zm-8.25,0c-.16-.72-.19-1.54-.35-2.21a.8.8,0,0,0-.7-.53c-.16,0-.41.29-.54.53,0,.05-.06.1-.1.19l2.39,3.6c-.06-.14-.12-.33-.19-.48a6,6,0,0,1-.51-1.05Zm9.36,5.71c0-.52-.09-1.05-.16-1.63-.7.63-1,1.44-.73,1.87l.83-.28h0ZM64.4,29a1.51,1.51,0,0,0,.16-.87c-.12.34-.22.67-.31,1A1.92,1.92,0,0,1,64.4,29ZM63,23.58a6.92,6.92,0,0,1,.32,2.11,9.3,9.3,0,0,0,1.05-.09c-.09-.82-.16-1.69-.25-2.6.51.77.86,1.25,1.14,1.35L64,22.43c-.13,1.05-.51,1.2-1,1.2ZM0,28,8.15,40.24H0Zm1.27,9.94c.26.38.54.72.86,1.2.26-.72,1.28-.34,1.12-1.78C1.78,37.12,1.56,37.17,1.27,37.89ZM348.8,21.66a2.58,2.58,0,0,1-.07,1c-.22-.05-.47,0-.6-.15l-.29-.38c.1-.43.16-.82.26-1.25l-.1-.29c-.25.24-.51.48-.64.63-.09-.1-.19-.15-.28-.24-.29-.48-.61-.92-.86-1.44s-.35-.58-.54-.58l-.26-.38c.61-.82.54-1.49-.09-2.84-.07.63-.16,1.2-.19,1.64l-.19.43-.32-.48a9.12,9.12,0,0,1,.22-1c.29-1,.13-1.92-.51-2s-1-.19-1.5-.24a2.6,2.6,0,0,0-.16.34l-3.91-5.91a1.28,1.28,0,0,1,.06-.33V6.34c-.12.48-.32,1-.47,1.44L333.23.05H334a1.43,1.43,0,0,0,.42.62,7,7,0,0,1,1,2.12l.32-.24c-.12-.82-.28-1.64-.44-2.45h.44a2.93,2.93,0,0,0,.23,1.1c.06.19.31.19.5.29,0-.34.07-.67.1-1A2,2,0,0,1,336.6.1h4.21c0,.14,0,.24-.07.24-.82.38-1.14,1.39-1.4,2.54.32-.43.64-.91,1.12-1.58.06.57.16,1,.19,1.39s-.13.86,0,1,.44.09.47.09c.29-1.15.51-2.06.8-3.12l.92,1a.17.17,0,0,1,0-.09l5.29,8c0,.24,0,.62-.06.86-.1.91,0,2.21-.39,2.69-.95,1.15-1,2.69-1.37,4.08-.06.2.13.53.29.77.76,1.2,1.53,2.35,2.26,3.6ZM337.94.29c-.92,1.1-.95,1.92-.09,3.5C337.88,2.69,337.91,1.58,337.94.29Zm3.41,5.14a2.58,2.58,0,0,0,.57.52l1.18.82V3.51c-.32.09-.57.14-.86.24.22.76.38,1.34.54,1.87l-.19.14a6.66,6.66,0,0,0-.45-.62,1,1,0,0,0-.63-.19C341.44,5,341.32,5.38,341.35,5.43Zm-.7,1a1,1,0,0,0,.06.38.66.66,0,0,0,.45-.1,2.69,2.69,0,0,0-.48-.24Zm3,5.52c-.86-1.78-2.16-2.21-3.09-1C341.7,11.28,342.68,11.62,343.67,11.91Zm.45-3.22c0-.09-.07-.24-.07-.33-.35.14-.7.24-1.05.38.1.38.19.72.35,1.25C343.7,9.41,343.93,9,344.12,8.69Zm1.56,4c-.16-.39-.32-.67-.48-1h-.32c0,.53-.06,1-.13,1.82.45-.43.67-.57.93-.86Zm-2.55,2.45.22.33c0-.09.07-.19.07-.29A.73.73,0,0,1,343.13,15.13ZM28.46,36.93l1.47,2.21a5.06,5.06,0,0,1-.48,1.1h-.83c-.06-.24-.16-.48-.22-.77a8.14,8.14,0,0,1-.13-1,3.08,3.08,0,0,0-.7,1.82H22.13L2.83,11.14a5.8,5.8,0,0,0,.64-.82,2.58,2.58,0,0,0,.38-1.1A2,2,0,0,0,3,8.45c-.16,0-.41.19-.76.43,0-.76,0-1.34-.07-2.25a2.24,2.24,0,0,0-.67.43,1.56,1.56,0,0,0,.1.82,1.59,1.59,0,0,1,.13,1.58L0,6.87V2.11C.06,2.11.13,2,.16,2A1.71,1.71,0,0,1,0,1.73V.14H4.08L27.38,35.3h-.06v1.77a2.74,2.74,0,0,1,.35.34A2.46,2.46,0,0,1,28.46,36.93ZM1.78,5C1.08,4.66.35,5.38.32,6.53.7,5.76,1.78,6.48,1.78,5Zm1.47-.48C3.18,3.27,3.12,2,3.06.72c-.58-.1-1,.34-1,1.1.48,1.11.86,1.93,1.21,2.69ZM158.8,29.77l5,7.49c-.48-.14-.93-.14-1.09.05A13.43,13.43,0,0,0,161.54,40v.19h-3.73v-.43a1.11,1.11,0,0,1-.28.43h-.39l-.54-.81c.16-.19.29-.34.32-.39-.09-1.1-.19-2-.19-2.78,0-1.73-.41-3-1.43-3.75,0-.19.09-.43.09-.62-.06-.87-.35-2-.86-1.63a8,8,0,0,0-1.53,2.4c-.06.09.1.48.16.72.1.43.23.86.32,1.34L151.06,31a2.49,2.49,0,0,1,.07-.53c-.16,0-.35-.14-.51-.14l-1-1.44c.16-.39.32-.72.48-1.06.16,1.25.22,1.25,1.15,1.54.5.14,1,.62,1.46.67s1.15-.19,1.15-.38a33.64,33.64,0,0,0-.13-3.89c0-.1-.22-.15-.35-.19a9.18,9.18,0,0,1-1-.34v1c-.57-1-1.08-1.83-1.56-2.69l1.21-.62c-.25-.24-.47-.48-.73-.72a.22.22,0,0,0-.06-.15c-.45-1.15-.89-2.26-1.4-3.6l-.86,1c-.45-1.59-1-2.07-1.82-1.59a1.4,1.4,0,0,0-.6,1.78,5.12,5.12,0,0,1-.29,4.18h0l-6.65-10v0h0l-6.28-9.46a1,1,0,0,1,.39-.33,8.26,8.26,0,0,1,1.91-.24,8.6,8.6,0,0,1,.44-2.84c-.16-.24-.28-.52-.41-.76h3.5l10.06,15.17c-.06.14-.1.29-.16.43a9.38,9.38,0,0,0-1.56-.43c-.16,0-.35.38-.51.62.13.25.26.68.42.77a2.32,2.32,0,0,0,1.17.1c.19,0,.42-.48.51-.38.38.33.64.24.86,0l.51.76a1.23,1.23,0,0,0,.42,1.06c.19.14.38.34.6.48l2.45,3.7h0a2.6,2.6,0,0,0-.51,1.29c0,.72.48,1,.86.58a3,3,0,0,0,.42-.72l.57.86a1.71,1.71,0,0,0-.42,1c-.25,1.35-.09,1.68,1.34,2.64a5.33,5.33,0,0,0,.51-1.58l.57.86c-.25,1.35-.47,2.55-.73,3.89.64-.24,1-.33,1.5-.52-.07,1-.1,1.87-.16,2.68a.72.72,0,0,1,.29.1c.66-1,.57-2.35.7-3.79ZM137.88,6.53c-.12,0-.22-.1-.32,0a.71.71,0,0,0-.25.24v.1a1.54,1.54,0,0,1,.57-.29Zm2.23,2.83a1.38,1.38,0,0,0-.54-1c-.16,0-.41.44-.8.87l.13.19a1.69,1.69,0,0,0,.7.43c.13,0,.32-.19.51-.43Zm5.41,8.79c-.25-.24-.54-.48-.79-.72-.07-.05-.1-.19-.16-.19-.22,0-.48-.1-.64,0a1.17,1.17,0,0,0-.16.82,3.54,3.54,0,0,0,.54.86c.45-.34.83-.58,1.18-.82Zm13.15,16a9,9,0,0,0-1.37.53s-.06.19-.12.38c.15.34.31.72.6,1.35.13-.43.22-.72.32-1,.25.29.44.62.64.72l.28.14a.8.8,0,0,0,0-1.15,1.54,1.54,0,0,1-.38-1ZM277.9,16.42l-.57.44c-.1.14-.23.24-.32.38l-4.36-6.58c.38-.62.7-1.2,1-1.68.13,1.54.64,2.35,1.94,1.78-.25-.92-.47-1.64-.66-2.36a3.86,3.86,0,0,0,.35-.19c.95,2.35,2.38,2.5,4,2.26,1.18-.19,2.07,2,1.62,3.74l-1-1.48c-.06,0-.16.14-.22.19.13.53.26,1,.45,1.73a13.05,13.05,0,0,0,3.59-.2l2.07,3.13a.88.88,0,0,1-.31-.15c-1.21-.72-2.36.39-3.47-.43a.54.54,0,0,0-.58.14c-.73.87-1.3.68-1.84-.48-.45-1-1.12-.72-1.69-.28Zm1.37-1.77a2.8,2.8,0,0,1-1.34-1.73c-.29-.82-1.11-1.2-1.72-1.83a7.31,7.31,0,0,0-.35.68c.64,1.1,1.31,2.16,1.94,3.26a3.87,3.87,0,0,1,1.5-.38Zm8.34,5.71-.61-.91a4.58,4.58,0,0,0-.7.48,1.48,1.48,0,0,0-.22.29c0,.14-.06.28-.13.81.16.2.32.44.54.72.42-.48.8-.86,1.15-1.34Zm-6.46,0c.54,1.44.92,2.55,2.06,2.11l.1-.72c-.51-.14-1.05-.33-1.69-.57a.32.32,0,0,0-.06-.15c0-.14.06-.33.09-.48A1.21,1.21,0,0,1,281.15,20.36ZM141.83,38.18l1.4,2.11h-.48l.1-.29c-1.85-.81-2.26-.86-2.77.29h-4.94v-.48a2.17,2.17,0,0,0-.63-.34,1,1,0,0,1-.19.24l-1.53-2.3h.06c-.25-.48-.57-.91-.51-1.15.39-1.49-.51-1.83-1-2.84-.1.67-.16,1.11-.19,1.44h-.07l-.76-1.15c0-.14.09-.34.12-.48-.15,0-.28.1-.38.1l-.35-.53c.45-.48.86-1,1.31-1.39l-.26-.24c0-.44-.12-.92-.12-1.35,0-.91.15-1.82.09-2.69-.09-1.39-.16-1.39.8-1.25a1.59,1.59,0,0,0,.47-.14,5.56,5.56,0,0,0-1.27-1.39c-.38-.39-.67-1-.09-1.44a8.76,8.76,0,0,1,.73-.53L139,33.9a2.06,2.06,0,0,0-.19.34c.25.24.51.48.79.72.07.1.19.14.26.24l.09.14h0a4.59,4.59,0,0,0,1.72,3.12,1,1,0,0,0,.16-.28Zm-9.1-8.94c-.32-1.77-.74-2-1.82-.57C131.61,28.67,132,30.11,132.73,29.24Zm1.08,3.51c.12.19.44.34.51.24a.73.73,0,0,1,.73-.34l-.19-1.58V31a2,2,0,0,0-.54.39,2.76,2.76,0,0,1-.32.53,4.22,4.22,0,0,0-.22.76v.1Zm1.37,2.4c-.32-.24-.67-.48-1-.77.09.29.19.53.28.82a.43.43,0,0,1,.1.1,5.17,5.17,0,0,1,.6.67C135.14,35.68,135.18,35.44,135.18,35.15Zm2.29,3.27c-.06-.34-.13-.68-.22-1-.32.19-.64.43-1,.62.06.29.13.58.19.82.32-.15.64-.29,1-.48Zm2-2.26-.39-.14c-.31.48-1,.72-.7,1.72.1.39.61.48.93.68.06-.77.12-1.54.19-2.26ZM129.19,32a.23.23,0,0,0,.13-.1l-.61-.62Zm136.36-11-.23-.33a1.63,1.63,0,0,0,0,.38c.07,0,.13,0,.16-.05Zm-2.84,8.64a8.14,8.14,0,0,0,.13-1,4.78,4.78,0,0,0-.76.09Zm-29.86,10-.54.52s0,.1,0,.1H224.7l-9.36-14.12a3.78,3.78,0,0,0-.16-1.25,3.87,3.87,0,0,0-.41.39L210.56,19h.07a2,2,0,0,1,0-.43,1.32,1.32,0,0,0-.8-.63l-1.14-1.73c.63.2,1.11.34,1.59.53.06-.14.1-.29.16-.43l-.57-1.59c0-.09.06-.14.09-.24h-.83a2.62,2.62,0,0,1-.57,1.4c.13-.34.26-.68.35-1-.16-.05-.32-.15-.44-.19a10.31,10.31,0,0,0,.19-1.4,12.24,12.24,0,0,0-1.12-.76,1.25,1.25,0,0,1,.73-.68,10.21,10.21,0,0,0,.39-2c-.19-.29-.35-.48-.54-.53l.19-.43c.89,1.29.92-.39,1.4-.77-.29-.29-.51-.48-.7-.67.47-.73-.1-1.3-.1-2a11.76,11.76,0,0,0-.32-2.4l1.66,2.49c-.13.05-.29.15-.42.19s-.06,0-.09,0a.56.56,0,0,0-.51.14h.06V6h0l.06.1c0,.34.1.67.13,1l.77.29s.06.09.09.14V7.4h.1a.37.37,0,0,1,0-.15h-.1c.1-.38.23-.72.32-1l7.64,11.53a.57.57,0,0,0-.35.09c-.41.15-.86.24-1.24.34v1.1c.35-.52.73-.86,1.37.15.06,0,.13.09.19.14,0-.53,0-.81.06-1.25.26.2.48.39.7.58h0l.9,1.34c-.77.92-1.56,1.78-2.49,2.84a.54.54,0,0,0,0-.24,2.22,2.22,0,0,0-.19,1.05,1.88,1.88,0,0,0,.54-.67c.51-1,1-.62,1.53-.62a9.3,9.3,0,0,1,1.05.09c0-1.1-1.08-1.48-.41-2.45l5.34,8.07c-.31.1-.63.15-1,.24.73,2-.48,2.16-1.08,2.93a1.55,1.55,0,0,1,.5.43c.55,0,1.06,0,1.56.05.16,0,.42.77.39,1.15a1.65,1.65,0,0,1-.13.53s0,0,.06,0a1,1,0,0,1,1,0c.41-.48.83-1,1.24-1.53l3.37,5.09c-.15.09-.31.48-.47.67.22.24.44.58.7.62s.28-.14.44-.33L233,39.76Zm-20.6-25c-.73-.1-1.49-.15-2.23-.2.42.44.86.87,1.4,1.44.26-.38.55-.76.86-1.24Zm4.3,7c.25.19.45.38.7.58-.06-.34-.1-.58-.13-.77-.09,0-.19-.1-.28-.1Zm3.82,6.05a7.37,7.37,0,0,0-.67-.62c-.13-1.2,0-2.26-.32-2.69-.86-1.3-.7.72-1.08,1a8,8,0,0,0-.64-.58,2.86,2.86,0,0,0-.54,2.06h0c.35.48.7.92,1,1.35.29,0,.54.29.67.91a2.86,2.86,0,0,1,.26.38c.22,0,.6,0,.73-.14a6.81,6.81,0,0,0,.51-1.63Zm.48,2.06a1.54,1.54,0,0,1-.23.29.2.2,0,0,1,.16.1,1,1,0,0,1,0-.34Zm1.14.2a.13.13,0,0,1-.12-.05c-.1.19-.16.43-.26.62h.16A1.89,1.89,0,0,0,222,30ZM224.86,34c-.19-.19-.35-.39-.54-.58,0,.15.06.34.06.48s.1.19.16.29a1.34,1.34,0,0,0,.32-.24Zm.7.48c.09.86.22,1.78.35,3C226.74,35.58,226.64,35.1,225.56,34.48ZM208.11,14.93c-.51-.09-.63-1.1-1-1.68,0,.05-.07.1-.07.15s-.19-.1-.28-.1l1.34,2v-.39Zm-1.33-4.61a.34.34,0,0,0,.19,0,.56.56,0,0,0-.07-.15,2.08,2.08,0,0,1,.35-.43c-.12,0-.22-.14-.35-.19a2.12,2.12,0,0,1-.06.43c-.48-.24-1.11-.24-1.43-.77a1.92,1.92,0,0,1-.23-.57,1.51,1.51,0,0,1,1.09-.39V7.78a7.92,7.92,0,0,0-1-.24c-.06.24-.13.53-.25,1.1-.19-.52-.42-1-.35-1.15a2.39,2.39,0,0,1,.76-.91,4.08,4.08,0,0,1,1-.34c0-.09-.1-.24-.13-.33a4.88,4.88,0,0,1-.28-.87c-.16-1.29-1.05-2.16-1.82-1.53-.32.24-.44,1-.76,1.72-.19-.19-.45-.52-.7-.81-.42.81-.64,1.29-.83,1.58l.67,1a1,1,0,0,0,0-.29c.06,0,.12-.14.19-.19.51.39,1,.77,1.49,1.15v.48a5.56,5.56,0,0,0-.76.24L204.58,10c.06,0,.09,0,.16.09a.21.21,0,0,1,0,.1l.76,1.15a2.75,2.75,0,0,1,1.34-.86v0l0,0Zm-5.93-7.1c.48.57.8,1,1.21,1.53a4.14,4.14,0,0,1,2.11-3.21c1.14,1,2.32,1.68,3.69,1.15a.89.89,0,0,1,.48.1L206.68.29h-6.27c-.16.19-.35.38-.54.57a6.38,6.38,0,0,1-.42-.52c-.16.52-.28,1-.38,1.39L201,4.56c0-.38,0-.72-.06-1.25ZM358.25.58a.25.25,0,0,1,0,.14l.06-.1h0ZM233,40.24h.22l-.09-.14S233.07,40.19,233,40.24Zm29.77-16.9a16.55,16.55,0,0,0,.92,2.11q-1.53-.68-2.16,1.83c-.29-.24-.58-.44-.83-.63l-1-1.44c.19.05.42-.1.64-.43a4.91,4.91,0,0,0-.45-1.63c-.06-.2-.19-.39,0-.58v-2.4a5.85,5.85,0,0,0-.86.24c-.44.62-.85,1.15-1.33,1.78l-2.68-4c.19.1.51-.14.77-.19-.16-.38-.29-1-.51-1.15a3.83,3.83,0,0,0-1.34-.29l-.22-.34a.33.33,0,0,1,.06-.14.19.19,0,0,0-.13.05l-.22-.34c-.09-1.15-.19-2.35-.32-3.55a.42.42,0,0,0-.06-.19,2.43,2.43,0,0,0-.41-.58c-.1.24-.32.53-.29.72a13.66,13.66,0,0,0,.41,2.06,2.44,2.44,0,0,1,.1.63L243.1,0h8.37a.46.46,0,0,1,.23.1h0l5.57,8.4A1.94,1.94,0,0,0,255.8,9c-.25,1.15-.47,2.11-.7,3.12.29.34.67.77,1,1.25,1.6-1.1,1.79-1.73,1.37-4.27h.1l7,10.61c-.09.57-.15,1.15-.28,2-.51-.1-1.18-.29-2.07-.48a13.19,13.19,0,0,0,.38,1.92ZM256,15.46c0-.14-.06-.33-.09-.48l-.26.15A2.81,2.81,0,0,1,256,15.46Zm.9,4.42-.19-1c-.1.1-.2.15-.29.24C256.57,19.35,256.73,19.69,256.89,19.88Zm3.12-1V17.29c0-.24-.07-.43-.07-.67,0-1.54-.47-2.12-1.49-1.73,0,1-.07,1.92-.1,3.17a5.33,5.33,0,0,0,1.53.76H260ZM318.39,32.8l4.94,7.44h-1.21V40a3.85,3.85,0,0,0-.35.29h-2.36a2.76,2.76,0,0,0-.44-.72c.09-.09.16-.19.25-.29a2.46,2.46,0,0,0-.92-.53v1.49h-2.55a3.64,3.64,0,0,0-.44-.57c-.16-.15-.42-.48-.39-.67v-.34a1.74,1.74,0,0,1-.16-.77,4.09,4.09,0,0,0-.95-1.34c-.16.33-.32.67-.48,1,.13.38.29.72.42,1L288.18.14h8.57l15.34,23.15a.23.23,0,0,1-.13-.1c-.6,0-.76.68-.79,1.35a1.56,1.56,0,0,0,.44.72,8.88,8.88,0,0,0,1-1.06c-.16-.24-.25-.43-.38-.62l3.6,5.42a13.27,13.27,0,0,0,.47,1.93,2.18,2.18,0,0,1-.31,2.35,2.92,2.92,0,0,0-.39,2.59,1.78,1.78,0,0,0,.35.77c.07-.1.13-.14.2-.24l.66-.72a1.7,1.7,0,0,0,.23.24c-.07.43-.13.82-.19,1.25h.31a2.36,2.36,0,0,1,1,.09,3.19,3.19,0,0,0,.29-.52c.92.48,1.65.91,2.61,1.44A5.82,5.82,0,0,0,319,34.67c-.16-.09-.45.15-.67.19s-.77.29-.8.2a3.06,3.06,0,0,1-.22-1.54,13.64,13.64,0,0,1,.64-1.39l.35.52v.58c0-.14.09-.24.12-.38ZM303.27,15.27l-.19-.29-.06.1a.42.42,0,0,1,0,.19,1.53,1.53,0,0,1-.29.72c.51,0,.67-.14.54-.72Zm1.85,0c-.19-.1-.35-.14-.54-.24-.07.14-.13.24-.19.34.12.28.09.57-.29,1-.19.19-.19.81-.29,1.2h.86a1.29,1.29,0,0,0,.42-.1h0a1.89,1.89,0,0,1,0-2.11Zm2.23,11.09s-.1-.19-.16-.33a3.07,3.07,0,0,0-.54,1.34h0A11.21,11.21,0,0,0,307.35,26.36Zm5.6-1.25c.1,1.21-.45,2.5.38,3.75C313.46,27.42,314.06,26.12,313,25.11Zm73.83-25,22.6,34.1v.38a3.3,3.3,0,0,1-.41.29l.41.15v1.72l-1.75,1.88c.22.38.45.81.7,1.25.13,0,.26-.1.38,0-.16-.34-.35-.68-.47-.92a11.29,11.29,0,0,1,1.14-1.15v2.5H407.5a5,5,0,0,1,.7-.53c-.66-.29-1.17-.53-1.62-.77-.16.43-.32.87-.51,1.3H404.8L378.21.14ZM397,19.45a6.54,6.54,0,0,1,.79.38c.22-.29.16-.48-.13-1C397.44,19,397.22,19.21,397,19.45ZM271.31,8.69,265.64.14h8.57l4.13,6.25c-1.49.19-3,.48-4.52.72a1.8,1.8,0,0,0-.7.09c-.32.2-.73.39-.86.77C272,8.79,271.72,8.88,271.31,8.69Zm-.67-5.33c-.38-.91-.76-1.82-1.18-2.69a3.6,3.6,0,0,0-.35.29c.42.91.8,1.83,1.21,2.74A2.12,2.12,0,0,0,270.64,3.36Zm1,5.86.64,1c-.2-.53-.36-.91-.45-1.15-.06.09-.13.14-.19.24Zm-18.34,31h-6.11a.85.85,0,0,1,.19-.19,3.5,3.5,0,0,0,.54-.86c-.22,0-.48-.15-.7-.1a1.09,1.09,0,0,0-.6.24L234.92,21.66a.19.19,0,0,0,.13-.05.22.22,0,0,1,0-.14,8.77,8.77,0,0,0,0-1.54,1.34,1.34,0,0,0-.77.86L222.06,2.31c.16,0,.32-.1.48-.1a3.88,3.88,0,0,1,.09-.58,2.6,2.6,0,0,0-.41-1.44h7l1.4,2.12c.07.19.16.33.22.52l.07-.09,1.4,2.11h-.19s-.07.05-.13.1c-.29.19-.57.38-1.11.72-.16.48-.45,1.29-.83,2.45.89-.72,1.49-1.16,2.07-1.69a2,2,0,0,0,.41-1V5.28l9.62,14.5a3.36,3.36,0,0,0-1.37,2.5c.22,0,.47.1.67,0,1-.48,2.13.29,2.51,1.83a2.48,2.48,0,0,1-.09,2,5.53,5.53,0,0,0-.35,1.92,5,5,0,0,0,.19,1,3.13,3.13,0,0,0,.63-.57c.42-.72.8-1.49,1.31-2.45-.32-.67-.77-1.73-1.24-2.74l6.78,10.23a.62.62,0,0,1-.16-.19c.13,1.63-1.43,2.49-.7,4.7a17.28,17.28,0,0,1,.92-2.3c.42-.67.57-1,.51-1.3l.45.67h0c.06.29.06.48.12.68.26.72.8,1.48.74,2.11s-.77,1.1-1.15,1.63a4.35,4.35,0,0,0-.16.58,3,3,0,0,1,.54-.19c.45-.2.8,0,1,.48ZM225.05,1.49l1,1.58C226.26,1.3,226.16,1.15,225.05,1.49Zm15,24c-.77-1.1-1.18-1.06-1.56,0ZM247,34.86c-.44-.48-.7-1-1-1-.66-.15-1.08.53-1.11,1.44a4.42,4.42,0,0,0,.45,1.34c.47-.53,1-1.05,1.65-1.77ZM43.27,34.53a.18.18,0,0,0,0-.1c-.38-.24-.6-.86-.63-1.87-.07,0-.1-.05-.16-.1-.89-.67-1.37.19-1.88,1.06a.73.73,0,0,0,.22.24c.45.05.93.14,1.53.19-.06.67-.13,1.25-.19,1.87.32.1.64.15,1,.24.07.48.1.92.13,1.35.13-1,.83-1.87.1-2.88ZM78.64,10.71,98.21,40.24H95.7c-.29-.86-.57-1.73-.89-2.64-.32.62-.67,1.25-1,1.87A8.34,8.34,0,0,0,93,39c.06-.33.09-.53.19-1-.51.63-.86,1.11-1.18,1.54a6.85,6.85,0,0,1-.92-5c-.51.53-1.12.81-1.18,1.29a10.13,10.13,0,0,0,.19,2.55l-1.4.29c.63.43,1.37.48,1.53,1.63h-.61L85.8,34.48a4.13,4.13,0,0,1,.6-.24l-1-2-.28.29c.16.57.32,1.1.51,1.68l-3.44-5.19c.16-.29.35-.57.51-.91-.22-.19-.54-.48-.92-.77.38-.33.73-.86,1.11-1.05.67.72.6,1.82.6,3.12.51-.34,1.09-.72,1.25-1.3.38-1.54-.9-1-1.18-2,.38-1.39.13-2-.93-1.92,0,.43-.09,1.06-.09,1.44a4.41,4.41,0,0,0-.92,1,1.71,1.71,0,0,0-.26,1.2L78,22.76a3,3,0,0,1,.09-.72c0-.19.19-.29.29-.43-.19-.19-.38-.53-.54-.53a.59.59,0,0,0-.45.34,1.28,1.28,0,0,1-.06.33l-5.22-7.87c.35-.53.86-.48,1.56,0,1.33.91,2.67,1.82,4,2.69.28-1.2-.35-2.64-1.34-2.84V11.48c.76.43,1.4.77,1.91,1,.16-.57.32-1.1.51-1.63ZM91.37,35.06c.76.62,1.94-.63,1.91,1.63.35-.19.57-.39,1-.63a4.84,4.84,0,0,0-2.3-2C91.85,34.09,91.59,34.67,91.37,35.06Zm-4.55-1.64,1.33,1.11c.35-.77.42-1.54-.22-1.83-.25-.14-.64.39-1.11.77ZM65.07,27.23a2.63,2.63,0,0,0,.86,1.05c.23.15.54-.24,1-.48-.06-.38-.16-.76-.22-1.1l-.83-1.25C65.61,26,65.33,26.6,65.07,27.23Zm-3.4,2.93h0a9.51,9.51,0,0,0,.06,1c.13.05.22.09.29,0,.41-.29.82-.67,1.21-1,.09-.39.25-.87.38-1.39-.48.28-.92.57-1.31.81l-.6.58ZM62.3,32a1.23,1.23,0,0,0,.51.15,5.21,5.21,0,0,0-.32-.68c-.06.2-.15.34-.22.53ZM58.2,14.12c-.13,0-.29-.15-.58-.29a4.06,4.06,0,0,0,.26-.43L57,12.05c-.13,0-.23.1-.35.1.28.86.47,1.44.67,2-.23.67-.48,1.29-.71,1.92a1.21,1.21,0,0,0-.6.1c-.83.62-1.66,1.29-2.55,2a2.49,2.49,0,0,0,.61.63,7,7,0,0,0,1.81.67c-.09,2.07,0,2.11,1.18,2.45.13-1.2,0-2.16-.76-2.64a3,3,0,0,0,.38-.87,13.9,13.9,0,0,0,.09-2.06c.07,0,.16,0,.19,0,.8,1,1.6,1.92,2.36,2.88.29-.1.54-.29.41-1.11-.28-.14-.57-.28-.92-.43.16-.38.29-.67.35-.77A9.68,9.68,0,0,0,60.27,18c.41.33.82.57,1.21.86h0l-3.19-4.8h-.13Zm2.13,8.55c0,1,.25,1.58.73,1.58a1.07,1.07,0,0,1,.16-.34c.06-.52.16-1,.22-1.48-.35-.24-.73.09-1.11.28Zm148.39,14.5,2,3.07h-6.47a1.33,1.33,0,0,1-.19-.24c-.16-.19-.57,0-.86.1v.09h-1.05L197,32.37c.29-.15.54-.24.77.09.19-.67.38-1.29.7-2.35-.64.19-1.15.34-1.66.53.07.62-.06.91-.29,1l-4.74-7.16a.71.71,0,0,0-.06-.24,8.76,8.76,0,0,0,.95-.43c-.54-.39-1-.72-1.53-1.11a2.46,2.46,0,0,1-.25.44l-4.2-6.34c.19-.15.38-.34.57-.48l-.16-.48c-.29.09-.54.24-.83.33L186,15.7a.58.58,0,0,0,.25-.19c.13-.1.13-.48.19-.77l-.64-.14c-.19,0-.41-.1-.66-.19l-1.85-2.79v-.09a3.22,3.22,0,0,1-.26-.29l-.44-.68a2.77,2.77,0,0,1,.13-2.35c-.48.24-.9.48-1.25.67L175.58.05h8.56l.19.29a1.24,1.24,0,0,0,.35,1.34c.07-.19.1-.38.16-.58l1.34,2a1.43,1.43,0,0,0,.41,1.06,1.11,1.11,0,0,1,.1-.29l1.14,1.73a.75.75,0,0,0,0,.29s.06,0,.12-.1l.7,1.06V7s.1.15.19.2l5.29,8v.52c.19.29.38.53.76,1.11a1.27,1.27,0,0,1,.07-.38l2.48,3.74c-.32.77-.64,1.54-1,2.4.77-.72,1.44-1.25,2.1-.09a1.61,1.61,0,0,0,.16-.39l.32.48h0c.25,1.3.06,2.21-.7,2.5a.64.64,0,0,1,.25.24c-.19.1-.41.24-.63.34.25.43.51,1,.79,1.48a8.42,8.42,0,0,0,.93-1c.25,0,.57-.19,1-.39-.23-.24-.42-.43-.58-.62l.1-.58c-.16.1-.29.15-.42.24a8.23,8.23,0,0,0-.63-.67,7.15,7.15,0,0,0,.38-.67l2.51,3.79c-.25,1.68-.92.24-1.62.1.45.81.73,1.29,1.24,2.21.23-.87.38-1.49.54-2.07l2.26,3.41c-.06.19-.09.34-.16.53.26.14.51.24.77.38L206,33c-.16,0-.35.09-.51.09l-.38-1.44c-.8,1.44-.7,1.64,1.37,2.45a1.23,1.23,0,0,1,0-.33l.45.67v.43a7.69,7.69,0,0,0,.92,2.07c.29.43.57.48.79.14ZM179.3,2.4l-1.78-1.15c.13,1.44.29,2.69,1.49,3C179.11,3.6,179.21,3,179.3,2.4ZM181,.72c-.19-.19-.39-.14-.64,0s-.1.67-.16,1a2.82,2.82,0,0,1,.57.09l.2-1.1Zm3.15,7.54c.16.1.38,0,.57-.1-.06-.38-.16-.72-.22-1-.29,0-.64,0-.67-.15-.38-1.82-1.24-.67-1.94-.77a2,2,0,0,0,.38,1.06,10.51,10.51,0,0,0,1.85,1Zm.95.29a2.14,2.14,0,0,0-.16-.34.29.29,0,0,1-.19-.05c-.35.92-1.27,1.49-.73,3.27.45-1.11.77-2,1.12-2.88Zm2.87,4.08c-.73-.05-1.47-.1-2.32-.14C186.34,13.88,186.88,13.93,187.93,12.63Zm.06-4.8c-.76-.43-1.37-.77-2.07-1.2.26-.58.45-1,.64-1.4-.7-1.1-1.21-.19-1.81.2a3,3,0,0,1,.19,2.73c.28,0,.7,0,.73.2a2.75,2.75,0,0,0,1.69,2.11c-.29-.48-.61-1-1.05-1.68.38-.1.63-.24.92-.29s.57.19.67.05a1.59,1.59,0,0,0,.06-.72Zm3.22,4a3,3,0,0,0,.28-.57.54.54,0,0,0-.25.09,2.17,2.17,0,0,1,0,.44Zm.63,8.17c-.85-1.35-1.08-1.3-1.59.38C190.86,21.18,191.37,21.08,191.84,20Zm2.81,6.24a4.84,4.84,0,0,0-.74-1.2c-.19.38-.54.86-.51,1.15.07.48.42.82.8,1.49a5.56,5.56,0,0,0,.45-1.39Zm.47-5.81H196l-1.34-3a6.9,6.9,0,0,1-.82.43c0-.52,0-.86.06-1.58-.25.58-.41.86-.6,1.3-.55-.58-1.05-1.06-1.66-1.64-.1.1-.19.24-.35.44a1.79,1.79,0,0,0-.8-1.93.5.5,0,0,0-.35-.14l-.76.29a2.28,2.28,0,0,0-.1,1.1,2.41,2.41,0,0,0,.83,1.11c0,2.21.22,2.54,1.28,1.82-.35-.57-.7-1.15-1.06-1.77a3,3,0,0,0,.8-.24c-.13.14-.25.33-.41.52.67.2,1.08.34,1.46.44.22.52.42,1,.64,1.44.25-.24.44-.44.73-.77A6.15,6.15,0,0,1,194,20c0,.28-.35.62-.55,1,.07.09.13.14.2.24a5.23,5.23,0,0,0,.44-.48l.16.24c-.19.33-.38.67-.67,1.25,0,.76.54,1.2,1.15,1,.89-.33.95-.76.57-2.73Zm8.22,13.78c0-3.22-1.69-3.22-2.9-4.08C201.17,31.84,202.35,32.8,203.34,34.19Zm3,3.6c-.32-2.06-1.05-3-2.13-3.12-1.09,1.54.73,1.35.5,2.35.55.29,1.09.53,1.63.82Zm-76.06-8.45c.1-.72.1-1.68-.54-2.11-.19,1.05-.38,2.11-.57,3.22C129.76,30.83,130.15,30.11,130.24,29.34Zm96.15,2.59c.35-.09.7-.24,1.14-.38l-2.07-3.12c.07.53.1,1,.16,1.63.13-.14.26-.24.39-.38Zm-96.66-4.75v.05h0c-.35.05-.6.77-1,.09-.09-.14-.57,0-.7.15a3.08,3.08,0,0,0-.06,1.1,5.07,5.07,0,0,1-.1,1.25v.1l-2.1-3.17c.07-.34.1-.63.16-.91a2.17,2.17,0,0,0-.22-.34c-.16.14-.32.34-.48.48L108.08.14h8.57l8.94,13.5a.28.28,0,0,1-.06.14c.1,0,.16.1.25.1l.16.24c-1.17,1.58,0,2.93.16,4.37.54-.39,1-.67,1.66-1.15a.32.32,0,0,1-.19-.1c-.07,0-.16.1-.23.14a.54.54,0,0,1-.63-.19,1.91,1.91,0,0,1-.1-1.05h0a8.3,8.3,0,0,1-.54-1.88l2.39,3.6c-.51-.43-.57-.14-.67,1l.51-.76c.19.62.41,1.24.6,1.87a4.15,4.15,0,0,0,.1.48c.16-.34.29-.72.45-1.06l.7,1.06c-.26.72-.42,1.49-.64,2.3-.51-.19-1-.38-1.59-.67.54,1.25.86,2.35.06,3.41l.13.34c.57,0,1.11-.1,1.75-.15a1.13,1.13,0,0,1-.13,1.44Zm-5.15-11.72-.39-1.73c-.92.24-.86,1.16-.63,2.21C123.94,15.75,124.29,15.61,124.58,15.46Zm2.76,9c-.85-1-1.2-1.05-1.78,0C126.2,25.36,126.77,25.79,127.34,24.44Zm-59-21.51s.06-.05.09-.1V3h.29c.16-.63.29-1.3.35-1.54C69.66,1,70.14.62,70.71.19c.35.53.79,1.2,1.21,1.87l-.19.29a6,6,0,0,1,.82.15c-.06.48-.12.86-.19,1.29.42-.24.9-.38,1.31-.57L71.6.1H68.26c0,.91,0,1.87,0,2.78ZM47.82.82a2.72,2.72,0,0,1,0,1.53,3.48,3.48,0,0,0,.86.29,2.07,2.07,0,0,0,0-.62A2.1,2.1,0,0,1,48.36.14h-.92A2.83,2.83,0,0,1,47.82.82Zm25.5,7.39c.51-.29,1-.57,1.43-.81C73.22,6.24,73.13,6.34,73.32,8.21Zm-2-1.73c.22.72.42,1.25.57,1.83l.32-.15L72.81,5l-3.38-.58c.32,2.3.58,2.55,1.85,2.16ZM55.11,14a8.37,8.37,0,0,1,1.34-2.78l-.39-.58a1.13,1.13,0,0,1-1.65.24l-.22.24c.19.34.35.67.5,1-.47.48-.92.91-1.52,1.54.79.14,1.4.29,1.91.38Zm8.53,8.07a.25.25,0,0,1-.06.14c.09,0,.19.1.25.15ZM55.75,13.4l.73-1.11A1.2,1.2,0,0,0,55.75,13.4Zm61.34,21.42,3,4.51a.25.25,0,0,1,0,.14c-.25-.28-.41-.43-.6-.62-.06,0-.13.14-.19.19l.38,1.3h-1.46v-.1c-.39-.19-.86-.48-1.31-.72a2.55,2.55,0,0,0,.29.82h-.89c.06-.72.15-1.44.28-2.45-.22-.53-1.56-.48-1.14-2.35.06.24.12.48.16.67l.66-1c-.31-.34-.7-.72-1.14-1.2-.26.19-.64.43-1.08.77.44,1.53.89,3.12,1.4,4.8a8.15,8.15,0,0,0-.32.77h-1.85c.29-1.11-.22-2.31.35-3.32l-.35-.67a6.32,6.32,0,0,0-.41.72c-.16-.53-.29-.91-.48-1.49-.19.82-.29,1.4-.41,1.92a1.7,1.7,0,0,1,.44.1c-.06.24-.09.58-.22.62-.48.34-1.21-.43-1.37-1.2s-.16-1.77-.73-2.3a2.32,2.32,0,0,1-.48-2.88,2.48,2.48,0,0,0,0-.67h-.32a25.41,25.41,0,0,1-.25,3.17c-.23,1.29.19,1.48,1,1.24-.12.39-.25.68-.38,1L85.58.14h8.56l19.74,29.78c-.35.24-.64.43-1,.62-.22.48-.47,1-.73,1.49.16.62.32,1.3.54,2.21.32-.91.58-1.59.83-2.26,1,.19,1-.33,1-1.05l.45.67h0a2.12,2.12,0,0,1-.06.43l.5.14,1,1.59c.07.33.1.67.16,1H117ZM94.49,6.67c-.25-.33-.54-.67-.8-1l-.38.57L94,7.4l.54-.77Zm3.82.15c-.25-.1-.57-.19-.86-.29-.06.48-.13,1-.19,1.54-.22.09-.51.24-1.05.53A4.72,4.72,0,0,0,97,9.75c.1.05.42-.34.51-.58.29-.72.51-1.49.8-2.4ZM43.17,32.7a3.69,3.69,0,0,1,.7.1l.19-.34c.1-.19,0-.57-.06-.91-.07,0-.16-.1-.23-.14-.06.81-.28,1.2-.57,1.29ZM40.75.14c-.06,0-.1,0-.16.1L41,.91c.16-.86.41-1,.92-.33l.48.72L42.53.14ZM42.44,1.3v0h0ZM68.29,4.71a.85.85,0,0,0,.35,0c-.1-.24-.22-.48-.32-.67v.76ZM68,5.52c.32.63.51,1,.67,1.35a.61.61,0,0,0,.29,0,7.68,7.68,0,0,0,0-1.44c-.2.19-.35.38-.55.43S68,5,67.81,4.61a1.21,1.21,0,0,1,.13-1.39c-.16-.34-.35-.63-.51-1a1.76,1.76,0,0,0-.51-.48,4.64,4.64,0,0,0-.13.91c.16,1,.38,2,.58,3l-.23.14C66.57,4.27,66,2.69,65.39,1c-.19.67-.16,1.54-.28,2.26l2.45,3.7c.12-.49.25-.92.38-1.45Zm-18.53,8,1.05,1.59h0c.13,0,.23.33.35.57l.26.39c.51-1.06,1-2.16,1.56-3.27H49.38A5.83,5.83,0,0,0,49.44,13.54ZM72.36,8.69c-.54.58-1,1.35-1.49,2,.54,1,1.4.91,2.51-.58.19.53.26,1.11.48,1.25a2.08,2.08,0,0,0,1.31.19c.09,0,.28-.57.25-.86-.13-1.2-2.42-2.74-3.09-2Zm5,.05L75.55,6.05c0,.53,0,1.11,0,1.63h-.23c.32,1,.61,2,.93,2.93a5.43,5.43,0,0,1,1.08-1.92Zm-9-.72,1.82,2.74c.82-2.12-.64-2.6-1.37-3.6A2.72,2.72,0,0,0,68.32,8ZM47.91,9.41c.51.19,1,.39,1.5.53.06,0,.1-.1.16-.1-.73-.62-1.5-.76-1-2.4.13-.33-.54-1.39-1-2-.22-.33-.67-.38-.92-.52-.16.28-.32.81-.55.86-.54.19-1.08.29-1.59.43l2.84,4.28c.16-.39.28-.77.44-1.11ZM45.59,1a.62.62,0,0,0,.8-.15V.1H45.18V.43a.91.91,0,0,0,.38.58Zm-1.27.86A5,5,0,0,1,43.77.53a.74.74,0,0,1,.1-.43h0a1.75,1.75,0,0,1-1.4,1.2c.06.57.13,1.15.19,1.68.26-.24.54-.53.83-.77.06.1.09.19.16.29-.13.38-.29.77-.48,1.29h0a.21.21,0,0,1,0,.1l.13.19c.54.1,1,.15,1.43.24a2.37,2.37,0,0,1-.32-2.5ZM49.6,6c0-.09-.09-.19-.13-.28-.06.43-.12.86-.22,1.29.26-.29.45-.43.61-.43A5.78,5.78,0,0,0,49.6,6ZM50,10.18h0V7.78a1.54,1.54,0,0,0-.22.67,9.16,9.16,0,0,0,.19,1.73Zm115.38,30h.38l-.26-.38A.93.93,0,0,1,165.33,40.19Zm10.06-19.3,12.79,19.3H184c.51-.76-.28-1.63,0-2.25-.32,0-.64,0-1.18-.1.22.91.41,1.63.6,2.35h-3.85L158.77,8.74l.89-.91-.07-.19a1.12,1.12,0,0,0-.57.14c-.13,0-.28.53-.28.82L153.1.14h8.56l9.68,14.6a2.2,2.2,0,0,1-.57-.05,7.63,7.63,0,0,1-.06.77,2.83,2.83,0,0,0,.25.24,9.21,9.21,0,0,1,.45-.81l.76,1.15h0a1.15,1.15,0,0,0,0,.82,1,1,0,0,0,.7.28h.06L175,20.31c0,.19-.1.39-.13.53a4.85,4.85,0,0,0,.51.29.52.52,0,0,1,0-.19ZM162.17,10.28c-.28-.34-.57-.68-.82-1-.32.14-.58.52-.9.76A2.55,2.55,0,0,0,162.17,10.28Zm5,5-.38-1h-.09c-.42.48-.83,1-1.25,1.49,0,0,.2.53.32.82.51-.53,1-.92,1.37-1.35Zm.23,4a.43.43,0,0,0-.07-.29h-.06a.28.28,0,0,0,.06.14l.07.1Zm5.7,6.43c-.26-.38-.48-.91-.77-1.06s-.54.39-.79.63v.48c.28.29.57.72.85.72s.48-.48.74-.77Zm1-2.5c-.38-.48-.6-1-.86-1s-.38.57-.57.86a4.36,4.36,0,0,0,.76,1.1c.1.05.38-.52.7-1ZM179.37,39c.79-.34,1.33-.58,2-.82-.32-.72-.48-1.1-.67-1.48.29,1.48-.67,1.48-1.3,2.35Zm-3.25-15.51c0,.43.09.86.13,1.34.06.05.15.15.22.2.19-.39.41-.77.6-1.16-.25-.24-.51-.48-.73-.72-.06.15-.16.24-.22.39Zm77.55,16.71h2l-1-1.44A10,10,0,0,1,253.67,40.24Zm-91.21,0h.61A.4.4,0,0,0,162.46,40.24Zm-7.83-4.46h-.48l.86,1.29c.16-.29.29-.57.38-.77-.25-1.15-.51-2.21-.73-3.31C154,33.81,154.82,34.77,154.63,35.78Zm-6.15-10.62V21.85C147.53,23.29,147.5,24.35,148.48,25.16ZM133,3.94,130.56.19h3.82a7.54,7.54,0,0,0,.06.82h-.57c.06.57.13,1.1,0,1.25a1.7,1.7,0,0,1-.6.43,1.2,1.2,0,0,0-.19.29c-.07.19,0,.48,0,.62h0a.73.73,0,0,0,0,.29Zm-.6-3H132c0,.1.07.14.07.24l.35-.29Zm-93.06,26c-.57-1-1.08-1.83-1.59-2.59s-.7-.68-1,.38a5.11,5.11,0,0,1-.44,1.06l-.48-.87a6.08,6.08,0,0,0-.38.53c-.06-.62-.1-1-.1-1.2h-1a3.59,3.59,0,0,1-.07-.58,4.48,4.48,0,0,1-.22.68.43.43,0,0,1-.22-.1l1.88,2.83c.54.05,1.08.15,1.59.15s1.33.81,1.91-.24Zm18.72-.43A3.19,3.19,0,0,0,58,26c.28-.14.6-.24.92-.38a.74.74,0,0,0-.19-.2c-.26-.19-.51-.33-.76-.53a10.89,10.89,0,0,0-.26,1.06V26l.73,1.1c.19-.24.42-.48.67-.77h-.06c-.29-.09-.64.1-.93.2ZM36.58,23.15c.06,0,.16.09.22.09l.1-.14h0c-.1-.43-.19-.91-.29-1.39v1.44Zm36.9,16.18c-.26.29-.48.58-.77.91h.35c.1-.05.42-.19.74-.38C73.7,39.67,73.57,39.47,73.48,39.33Zm-40-20.41c-.31-.14-.67-.24-.92-.34a5.68,5.68,0,0,1,0,1.49,1.46,1.46,0,0,0,.1,1.16,4.53,4.53,0,0,1-.38.38l-2.87-4.32v-1h-.64L18.05.14h8.57L29.77,4.9c0,.38,0,.77.06,1.15a3.33,3.33,0,0,0-.76.1c.06.09.09.19.16.28-.51.82-1,1.64-1.56,2.55.22.43.47,1,.76,1.49l.16-.1c-.06-.43-.13-.86-.19-1.39,1.11-.24.89-2.83,2.19-2.79l2,3.08v1.92a2.71,2.71,0,0,1,.51.19,6,6,0,0,0,.57.72c.1-.09.16-.19.26-.29v-.14c.13,0,.25.1.38.14l.45.68c-.45.19-.51,1-.61,1.63a5.75,5.75,0,0,1-.67-.15c.42.63.7,1.16,1.09,1.73.28-.86.66-1,1.24-.48a3,3,0,0,1-.7-2.25l2.16,3.26a3.44,3.44,0,0,0-.73.05c-.13,0-.19.67-.25,1,.09.09.19.14.25.24.16-1,.92.14,1.18-.63l.41.63a1.55,1.55,0,0,0,.26,1.87c.16.14.22.53.35.82-.54-.15-1-.29-1.4-.39v2h.22a5.41,5.41,0,0,1-.51.77c0-.58.06-1.15.09-1.78h-.7v-.24c-.35.34-.7.48-.82.82a1.37,1.37,0,0,0,.09.77.21.21,0,0,0,0-.1c-.19.53-.32.77-.35.91a2.43,2.43,0,0,0-.89.1c.13-.43.25-.86.38-1.25-.29-.48-.48-.81-.7-1.15l-.06-.1v-.14a1.46,1.46,0,0,0-.67-1.68ZM27.35,7.35s.09-.1.12-.15-.09,0-.12-.09Zm.32,5.71h-.32v.67C27.44,13.49,27.57,13.3,27.67,13.06Zm3.15,2.55c-.61,1.49.63,1.82.6,2.88C32.09,17.05,31.87,16.09,30.82,15.61ZM32,8.4c-.16-.24-.35-.72-.48-.67a1.48,1.48,0,0,0-1,.67,20.49,20.49,0,0,0-.92,2.5c.25.19.51.58.76.58a1.21,1.21,0,0,0,.93-.53c.12-.15-.07-.82-.13-1.2a3.15,3.15,0,0,0-.29-.67c.19-.1.35-.24.54-.34L32,8.45ZM73.19,37.5c0,.2-.09.34-.13.53.58.53,1.12,1.44,1.72,1.59h.51l-1.18-1.78-.92-.29Zm-1-1.82-.67-.53a1.2,1.2,0,0,0-.44.53l.38.29a1.23,1.23,0,0,1,0,.33C71.63,36.11,71.85,35.92,72.17,35.68Zm-6-1.59h-.07v.15a.43.43,0,0,0,.1-.1Zm6.62,5c0-.77-.42-2-.83-2.21a3.63,3.63,0,0,0-1.24-.29,12.54,12.54,0,0,1-.51,2.07h0a4.9,4.9,0,0,1,0,1.15,2.9,2.9,0,0,1-.16.38h2.29c-.19-.19-.38-.43-.6-.62.06-.1.06-.19.12-.24.29-.29.9.77.9-.24Zm-8.09-5.48a4.87,4.87,0,0,0-.83,1.11v.1a2.22,2.22,0,0,1-.06.43l.67,1a2.46,2.46,0,0,1,.54,0c.16-.14.35-.33.6-.57A3.13,3.13,0,0,0,66,34.19c-.45.39-.73.63-1,.87a1.35,1.35,0,0,1-.38-1.4Zm2.9-.86c-.22,0-.35-1.06-.54-1.73a7.13,7.13,0,0,1,3.18,1L68.32,29.1a1.67,1.67,0,0,0,.06.38c-1.08-.19-2-.33-2.67-.43-.51.63-.89,1.06-1.24,1.59a2.19,2.19,0,0,0-.22.43c.09.43.19.82.28,1.25a.43.43,0,0,0,.35,0c.67-.29,1,0,1.05.72a1.71,1.71,0,0,0-.89.24l1,.67a6,6,0,0,1,.1-.62h3c-.13.48-.29,1.1-.48,1.73a1.31,1.31,0,0,0-.7-.48c.13.48.29,1,.42,1.58a3.14,3.14,0,0,0,1.36-3.7,6.58,6.58,0,0,1-2.19.19Zm.57,5.52-.25.29c.09.53.22,1.11.31,1.63h.29c.07-.28.13-.43.16-.62a6.86,6.86,0,0,1,.73.62c.07-.19.1-.38.16-.52-.48-.48-1-1-1.4-1.4Z"/></g></g></g></g></svg>