<svg xmlns="http://www.w3.org/2000/svg" viewBox="0 0 1694.67 235.92"><defs><style>.cls-1{fill:#fff;fill-opacity:0;stroke:#000;stroke-linecap:round;stroke-linejoin:round;stroke-width:5.58px;}.cls-2{fill:none;}</style></defs><title>Asset 22</title><g id="Layer_2" data-name="Layer 2"><g id="Layer_1-2" data-name="Layer 1"><g id="afd05b67-7fb3-4a6b-b7e5-aaba75332670"><g id="afd05b67-7fb3-4a6b-b7e5-aaba75332670-child-0"><path d="M243.92,145.25C238.36,131,205,119.75,162.62,118,120.26,119.75,86.9,131,81.31,145.25,75.76,131,42.39,119.75,0,118H0c42.39-1.86,75.76-13.06,81.31-27.29,5.58,14.23,38.93,25.43,81.31,27.29,42.39-1.86,75.76-13.06,81.3-27.29,5.58,14.23,38.94,25.43,81.31,27.29h0C282.9,119.75,249.55,131,243.92,145.25Z"/></g><g id="afd05b67-7fb3-4a6b-b7e5-aaba75332670-child-1"><path d="M488,118c-42.39,1.79-75.76,13.06-81.33,27.29h0c-5.58-14.23-38.93-25.5-81.3-27.29h0c42.39-1.86,75.74-13.06,81.3-27.29h0c5.57,14.23,38.94,25.43,81.31,27.29Z"/></g></g><g id="_18ab525d-a5ec-49f5-9103-cede678fb246" data-name="18ab525d-a5ec-49f5-9103-cede678fb246"><g id="_18ab525d-a5ec-49f5-9103-cede678fb246-child-0" data-name="18ab525d-a5ec-49f5-9103-cede678fb246-child-0"><path d="M1450.64,145.26c-5.57-14.24-38.94-25.51-81.31-27.3-42.36,1.79-75.71,13.06-81.31,27.3-5.55-14.24-38.92-25.51-81.31-27.3h0c42.39-1.86,75.76-13.06,81.31-27.29,5.58,14.23,38.93,25.43,81.31,27.29,42.39-1.86,75.76-13.06,81.31-27.29,5.58,14.23,38.93,25.43,81.3,27.29h0C1489.62,119.75,1456.26,131,1450.64,145.26Z"/></g><g id="_18ab525d-a5ec-49f5-9103-cede678fb246-child-1" data-name="18ab525d-a5ec-49f5-9103-cede678fb246-child-1"><path d="M1694.67,118c-42.39,1.79-75.76,13.06-81.32,27.3h0c-5.58-14.24-38.94-25.51-81.31-27.3h0c42.39-1.86,75.74-13.06,81.31-27.29h0c5.56,14.23,38.93,25.43,81.3,27.29Z"/></g></g><g id="aacc6204-6788-4962-ace6-945a0615758c"><g id="db3098d8-4404-4cb5-9f61-14e74850d164"><path class="cls-1" d="M857.78,2.92l6.93.22,3.44.17L875,3.7l3.4.26c1.13.09,2.26.17,3.39.27.57,0,1.13.1,1.69.15l3.38.31,1.68.17,3.36.35,1.67.19,3.33.39,1.66.22,3.3.43,1.65.23,3.28.48,1.63.25,3.26.52,1.62.27,3.23.56,1.6.29,3.2.6,1.59.32,3.17.63,1.58.34,3.14.68,1.55.35,3.11.71,1.54.38,3.07.75,1.53.4,3,.79,1.5.41,3,.84,1.48.43,3,.87,1.47.45,2.93.91,1.45.47,2.89.95,1.43.49,2.84,1,1.41.5,2.81,1,1.39.52L975,24.91l1.37.55,2.71,1.1,1.35.56,2.67,1.13,1.32.58c.88.4,1.75.79,2.63,1.17q.65.32,1.29.6l2.59,1.21,1.27.62,2.53,1.24,1.25.64,2.63,1.36,1.29.69,2.56,1.39,1.25.71,2.49,1.42,1.21.72,2.41,1.45,1.18.74,2.33,1.48,1.14.75,2.26,1.51,1.1.77,2.17,1.53,1.07.78,2.09,1.56c.34.27.69.53,1,.8l2,1.59,1,.8,1.94,1.62.94.81,1.86,1.64.9.83,1.79,1.67.86.84,1.7,1.69c.28.28.55.57.82.85l1.62,1.71.78.87,1.54,1.73.74.88,1.46,1.75.69.89,1.38,1.77.65.9,1.29,1.8.61.9,1.21,1.82.57.92,1.12,1.83c.18.31.36.62.53.93.35.61.7,1.23,1,1.85l.49.93,1,1.87.44,1,.87,1.88c.13.32.26.64.4,1l.78,1.91.36,1c.23.64.46,1.27.69,1.92.1.32.21.64.31,1,.2.65.4,1.29.61,1.94.08.32.17.65.26,1,.18.65.35,1.3.52,2,.07.33.15.65.23,1l.42,2,.18,1c.12.66.23,1.32.34,2,.05.34.09.67.14,1,.08.66.17,1.32.25,2l.09,1c0,.67.11,1.34.16,2,0,.33,0,.67,0,1,0,.67,0,1.34.07,2v1c0,1,0,2-.07,3,0,.67-.07,1.34-.11,2l-.09,1-.21,2-.13,1-.3,2c-.05.33-.12.66-.18,1-.13.65-.25,1.31-.38,2-.07.33-.15.65-.22,1l-.48,2-.27,1c-.18.65-.37,1.29-.56,1.94l-.31,1c-.22.64-.44,1.28-.65,1.93l-.36,1-.73,1.92c-.14.31-.27.63-.4.95l-.83,1.89c-.14.31-.29.63-.44.94-.3.63-.61,1.26-.91,1.88-.16.31-.32.63-.49.94l-1,1.86c-.18.31-.35.62-.53.92l-1.08,1.85-.57.91-1.17,1.83-.61.91-1.25,1.81c-.22.29-.44.59-.65.89l-1.34,1.79c-.23.29-.46.59-.7.88l-1.41,1.77-.74.87-1.5,1.75-.78.86c-.52.58-1.05,1.15-1.58,1.73-.27.28-.54.57-.82.85l-1.66,1.7-.86.84-1.74,1.68-.9.83-1.83,1.65-.94.82-1.9,1.62-1,.81-2,1.6c-.33.27-.68.53-1,.79l-2.06,1.58-1.06.78-2.14,1.55-1.1.76-2.21,1.53-1.14.75-2.29,1.49-1.18.74-2.37,1.46-1.22.73-2.45,1.43-1.25.71-2.52,1.41-1.29.69-2.6,1.37-1.33.68-3.78,1.88-2.55,1.23-1.3.6-2.6,1.19-1.32.58-2.65,1.15-1.35.57-2.69,1.11-1.37.55-2.74,1.08-1.39.52-2.79,1.05-1.4.5-2.83,1-1.43.49-2.87,1-1.45.48-2.91.92-1.47.45-3,.9-1.48.43-3,.85-1.5.41-3,.82-1.53.39-3.06.77-1.54.38-3.09.74-1.56.35-3.12.7-1.57.33-3.16.66-1.59.31-3.18.62-1.61.29-3.21.58-1.62.27-3.24.54-1.63.25-3.27.5-1.65.23-3.29.45-1.66.22-3.32.41-1.67.19-3.34.38-1.68.17-3.37.33-1.69.15-3.38.29-1.7.12-6.82.48-3.44.17-6.89.3-3.47.09-7,.13h-3.49L836.88,233l-6.92-.22-3.44-.17-6.86-.39-3.39-.26-3.4-.26-1.69-.15-3.38-.32-1.68-.17-3.35-.35-1.67-.19-3.33-.39-1.66-.21-3.31-.44-1.64-.23-3.28-.48-1.63-.25L783,228l-1.62-.27-3.23-.56-1.6-.29-3.2-.6-1.59-.32-3.17-.63L767,225l-3.14-.67-1.56-.36-3.11-.71-1.54-.38-3.07-.75-1.52-.4-3-.79-1.51-.41-3-.84-1.49-.43-3-.87-1.47-.45-2.92-.91-1.45-.47-2.89-1-1.43-.49-2.85-1-1.41-.51c-.93-.34-1.87-.69-2.81-1l-1.38-.53L719.68,211c-.45-.19-.91-.37-1.36-.54l-2.72-1.11-1.34-.56-2.68-1.13-1.32-.58c-.87-.4-1.75-.79-2.62-1.17l-1.3-.6-2.58-1.21-1.27-.62L700,202.25l-1.24-.64-3.93-2.05-2.56-1.39-1.25-.71L688.49,196l-1.22-.72-2.41-1.45-1.17-.74-2.34-1.48-1.13-.75L678,189.39l-1.1-.76c-.72-.52-1.45-1-2.18-1.54l-1.06-.78-2.1-1.56-1-.8c-.67-.52-1.35-1-2-1.59l-1-.8-1.94-1.62-.94-.81-1.87-1.64-.9-.83L660.07,175c-.29-.27-.57-.56-.86-.84l-1.71-1.68-.82-.86-1.62-1.71-.78-.87-1.54-1.73-.73-.87c-.49-.59-1-1.17-1.46-1.76-.24-.29-.47-.59-.7-.89L648.48,162l-.66-.89-1.29-1.8-.61-.91c-.41-.6-.81-1.21-1.21-1.81l-.57-.92L643,153.85c-.17-.31-.35-.62-.53-.93l-1-1.85-.49-.94c-.32-.62-.64-1.24-1-1.87l-.45-.94c-.28-.63-.57-1.26-.86-1.89-.14-.32-.27-.63-.4-1l-.78-1.9-.36-1-.69-1.92c-.11-.32-.21-.65-.32-1l-.6-1.94-.27-1c-.17-.65-.35-1.3-.52-1.94-.07-.33-.15-.66-.22-1-.14-.65-.29-1.31-.43-2l-.18-1c-.11-.66-.23-1.32-.34-2-.05-.33-.09-.66-.14-1-.08-.67-.16-1.33-.25-2l-.09-1c-.05-.67-.1-1.34-.16-2,0-.34,0-.67,0-1,0-.67,0-1.34-.07-2v-1c0-1,0-2,.07-3,0-.67.07-1.33.11-2l.09-1,.21-2c0-.33.09-.66.13-1l.3-2,.18-1c.13-.66.25-1.31.38-2,.08-.32.15-.65.23-1,.16-.65.31-1.3.47-2l.27-1c.18-.64.37-1.29.56-1.94.1-.32.21-.64.31-1,.22-.65.44-1.29.65-1.93l.36-1,.74-1.91c.13-.32.27-.64.4-1,.27-.64.55-1.27.82-1.9.15-.31.3-.63.44-.94.31-.63.61-1.25.91-1.88.17-.31.33-.63.49-.94.33-.62.66-1.24,1-1.86l.52-.92,1.09-1.85.57-.91,1.16-1.83.62-.91,1.24-1.8.66-.9L649.15,73l.7-.89,1.42-1.77.74-.87,1.49-1.75.78-.86,1.58-1.72.82-.86c.56-.56,1.11-1.13,1.67-1.7l.86-.84L661,60.1l.9-.83,1.82-1.66,1-.82,1.9-1.62,1-.81,2-1.6,1-.79,2.06-1.58,1.06-.77,2.14-1.56,1.1-.76,2.22-1.52,1.14-.75,2.29-1.5,1.18-.74,2.37-1.46,1.21-.72,2.45-1.44,1.25-.71,2.53-1.4,1.29-.7L697.38,35l1.33-.68,3.78-1.88,2.56-1.22,1.29-.6,2.6-1.19,1.32-.58,2.66-1.16,1.34-.56L717,26l1.37-.54,2.74-1.08,1.39-.53,2.78-1,1.41-.51,2.83-1,1.43-.49,2.86-1,1.45-.47,2.91-.93,1.47-.45,2.95-.89,1.48-.43,3-.85,1.5-.42c1-.26,2-.54,3-.81l1.53-.39,3.05-.78,1.55-.37,3.09-.74L762.3,12l3.12-.7,1.58-.33,3.15-.66,1.59-.31,3.19-.62,1.6-.29,3.21-.58,1.62-.28,3.24-.53,1.63-.26,3.27-.49,1.65-.24,3.29-.45L796.1,6l3.32-.42,1.67-.19L804.43,5l1.68-.17c1.12-.11,2.24-.23,3.37-.33l1.69-.16,3.38-.29L816.26,4l6.82-.48,3.44-.17,6.89-.3,3.47-.09,7-.13h3.5l10.45.13Zm-6.93,9.9,1.75,0,3.5.06,1.74,0,3.47.1,1.73.07,3.45.15,1.72.09,3.43.19,1.7.11,3.4.23,1.69.14,3.38.28,1.67.15,3.35.32,1.66.17,3.32.37,1.65.19,3.29.4,1.63.22,3.26.44,1.61.24,3.23.48,1.6.26,3.19.52,1.58.28,3.16.56,1.56.29c1,.2,2.08.41,3.13.6l1.54.32,3.09.63,1.52.34,3,.67,1.51.36,3,.7,1.49.37c1,.26,2,.5,3,.75l1.47.39,2.93.79,1.45.4,2.88.82,1.43.42,2.84.85,1.41.45,2.8.88,1.38.46,2.76.92,1.35.47,2.72,1,1.33.49,2.66,1,1.32.51,2.61,1,1.28.52,2.57,1.05,1.26.53,2.51,1.08,1.24.55,2.46,1.12,1.21.56,2.41,1.14,1.19.58L990.7,43l1.16.59,2.3,1.2,1.13.61,2.24,1.23,1.11.62,2.18,1.25,1.07.63,2.13,1.29,1.05.64,2.06,1.31,1,.66,2,1.34,1,.67,2,1.35.95.69,1.89,1.38c.3.24.61.47.92.7l1.82,1.41.89.71,1.76,1.43.85.72,1.69,1.45.82.73,1.63,1.48.79.74,1.56,1.5.75.75,1.49,1.52.72.77,1.42,1.53.68.78,1.35,1.56.65.78,1.28,1.58c.2.26.4.53.61.79l1.2,1.6.58.81,1.13,1.61.53.81,1.06,1.64.5.82,1,1.65.46.83.9,1.66.43.84c.27.57.54,1.13.82,1.69.12.28.25.56.38.85.25.56.49,1.13.74,1.69.11.29.23.57.34.86l.66,1.71.3.86c.2.58.39,1.16.58,1.73.09.29.18.58.26.87.17.58.33,1.16.5,1.74.07.3.15.59.22.88.14.59.27,1.17.41,1.76l.18.88c.1.59.21,1.18.32,1.77.05.29.09.59.14.89l.24,1.78.09.89.15,1.79c0,.3,0,.6,0,.9,0,.61,0,1.21.07,1.81V118c0,.9,0,1.8-.07,2.71,0,.59-.07,1.19-.1,1.8,0,.29-.06.59-.09.89-.07.59-.14,1.19-.2,1.78,0,.3-.09.6-.13.9-.1.59-.19,1.18-.29,1.77-.06.29-.12.59-.17.88-.13.59-.25,1.18-.37,1.76-.08.3-.15.59-.22.88l-.46,1.75c-.09.29-.17.58-.26.87-.18.58-.36,1.16-.53,1.73-.11.29-.21.58-.31.87-.21.57-.41,1.14-.62,1.72-.11.28-.22.57-.34.85l-.7,1.71c-.13.28-.26.56-.38.85l-.78,1.69-.42.84-.87,1.67c-.15.28-.3.56-.46.83-.31.55-.62,1.11-.94,1.66l-.49.82-1,1.64-.54.82-1.09,1.62-.57.81-1.17,1.6-.61.8-1.24,1.58-.65.79c-.44.52-.88,1-1.31,1.57l-.69.77-1.38,1.55-.72.76-1.46,1.53-.75.76-1.52,1.5-.79.75-1.59,1.48-.83.74-1.66,1.46-.85.72-1.73,1.44-.89.71-1.79,1.42-.92.7L1015,178.1l-1,.69-1.92,1.37-1,.67-2,1.34-1,.66-2,1.32-1,.65-2.1,1.29-1.07.64L999.73,188l-1.1.62-2.22,1.24-1.12.61L993,191.68l-1.16.59-2.32,1.19-1.19.58L986,195.19l-1.21.57-2.44,1.12-1.23.55-2.49,1.1-1.26.53-2.54,1.07-1.29.52-2.59,1-1.31.51-2.64,1-1.33.49-2.69,1-1.36.47-2.73.94-1.38.46-2.78.9-1.4.44-2.83.87c-.47.14-1,.29-1.43.42l-2.86.84-1.45.41-2.91.8-1.46.39-3,.76-1.48.37-3,.73-1.51.35-3,.7-1.53.33-3.07.66-1.54.31-3.11.62-1.56.3-3.14.58-1.58.27-3.18.54-1.6.26-3.21.5-1.61.24-3.24.46-1.63.22-3.28.42-1.65.2-3.3.38-1.66.18-3.33.34-1.68.15-3.36.3-1.69.13-3.39.26-1.7.11-3.42.21-1.71.09-3.44.17-1.73.07-3.46.12-1.74.05-3.49.08-1.75,0-3.51,0h-1.76l-5.27,0-3.5-.06-1.74,0-3.47-.1-1.73-.07-3.45-.15-1.72-.09-3.42-.19-1.71-.11-3.4-.24-1.69-.13-3.37-.28-1.68-.15-3.35-.32-1.66-.17-3.32-.37-1.64-.19-3.29-.4-1.64-.22-3.25-.44-1.62-.24-3.22-.48-1.6-.26-3.19-.52-1.59-.28-3.15-.56-1.57-.3c-1-.19-2.08-.4-3.12-.6l-1.55-.31-3.08-.64-1.53-.33-3-.68-1.51-.35-3-.71-1.48-.37-3-.74-1.47-.39-2.93-.79-1.45-.4-2.89-.82-1.43-.42-2.84-.86-1.4-.44-2.81-.88-1.38-.46-2.75-.92-1.36-.48-2.71-1-1.34-.49-2.66-1-1.31-.51-2.61-1-1.29-.52-2.56-1.05-1.27-.53L714.82,198l-1.24-.56-2.46-1.11-1.21-.56-2.41-1.14-1.18-.58L704,192.87l-1.16-.6-2.3-1.19c-.37-.21-.75-.41-1.13-.61l-2.24-1.23-1.1-.62-2.19-1.25-1.07-.64-2.13-1.28-1-.65-2.07-1.3-1-.67-2-1.33-1-.67-1.95-1.36-1-.68-1.89-1.38-.91-.7L676,175.3l-.89-.71-1.76-1.43-.85-.72L670.8,171l-.82-.73-1.63-1.48-.79-.74-1.56-1.5-.75-.75-1.49-1.52-.72-.77c-.47-.51-.95-1-1.42-1.54-.23-.25-.46-.51-.68-.77l-1.35-1.56-.65-.78c-.43-.53-.85-1.06-1.28-1.58l-.61-.8-1.2-1.59-.58-.81c-.37-.54-.75-1.07-1.13-1.61-.17-.27-.36-.55-.53-.81L652.55,150l-.5-.82-1-1.65-.46-.83-.91-1.67c-.13-.28-.27-.55-.42-.83-.27-.57-.54-1.13-.82-1.69-.12-.28-.25-.56-.38-.85-.25-.56-.5-1.13-.74-1.7-.12-.28-.23-.56-.34-.85-.22-.57-.44-1.14-.67-1.71-.09-.29-.2-.58-.3-.87-.19-.57-.38-1.15-.58-1.73-.08-.29-.17-.58-.26-.87-.16-.58-.33-1.16-.49-1.73-.07-.3-.15-.59-.22-.88-.14-.59-.27-1.17-.41-1.76l-.18-.88c-.11-.59-.21-1.18-.33-1.77,0-.29-.08-.59-.13-.89l-.24-1.78-.09-.89-.15-1.8c0-.3,0-.6-.05-.9l-.06-1.8V118l.06-2.71c0-.6.08-1.2.11-1.8l.09-.89c.07-.6.14-1.19.2-1.79,0-.29.09-.59.13-.89.1-.59.19-1.18.29-1.77.06-.29.12-.59.17-.89.13-.58.25-1.17.37-1.76.08-.29.15-.58.22-.87.15-.59.31-1.17.46-1.75.08-.29.17-.58.25-.87.19-.58.36-1.16.54-1.74.1-.28.21-.57.3-.86l.63-1.72c.11-.28.22-.57.34-.85l.7-1.71.38-.85.78-1.69.42-.84c.29-.56.58-1.11.86-1.67.16-.28.31-.56.47-.83.31-.56.62-1.11.94-1.66l.49-.83,1-1.64.54-.81,1.09-1.62.57-.81,1.17-1.6.61-.8,1.24-1.58.65-.79,1.31-1.57.69-.77,1.38-1.55.72-.77c.48-.51,1-1,1.46-1.52l.75-.76c.51-.5,1-1,1.52-1.51l.79-.74,1.6-1.48.82-.74,1.66-1.46.85-.72L674.22,62l.88-.71,1.8-1.42.92-.7,1.85-1.39,1-.69,1.92-1.37,1-.67,2-1.35,1-.66,2-1.32,1.05-.65,2.1-1.29,1.07-.64c.72-.41,1.44-.84,2.16-1.26l1.1-.62,2.21-1.24,1.13-.61,2.28-1.21,1.15-.6c.78-.39,1.56-.78,2.33-1.18l1.19-.58,2.38-1.15,1.21-.57L712.34,39l1.24-.56,2.49-1.09,1.26-.54,2.54-1.06,1.29-.52,2.59-1,1.31-.5,2.64-1,1.33-.49,2.69-1,1.36-.47,2.73-.94,1.39-.46,2.77-.9,1.41-.44,2.82-.87,1.42-.43,2.87-.83,1.45-.41,2.91-.8,1.47-.39,2.94-.76,1.5-.37,3-.73,1.52-.35,3-.7,1.53-.33,3.07-.66,1.55-.31,3.1-.62,1.56-.3,3.14-.58,1.59-.27,3.17-.55,1.6-.25L789.8,17l1.61-.23,3.24-.47,1.63-.21,3.28-.43,1.65-.19,3.3-.38,1.66-.18,3.33-.34,1.68-.15,3.36-.3,1.69-.14,3.39-.25,1.7-.11,3.42-.22,1.71-.08,3.44-.17,1.73-.07,3.47-.13,1.74,0,3.48-.08,1.75,0,3.51,0h5.28ZM757.46,164.26l1.08,2.06.57,1,1.15,2,.6,1,1.22,2,.63,1,1.29,1.92.66.94c.45.63.9,1.25,1.34,1.88.24.3.47.61.7.92l1.41,1.82.72.89,1.47,1.78.76.87,1.53,1.72.78.84,1.58,1.67.81.82,1.65,1.62.83.78,1.7,1.56.87.76,1.74,1.5.89.73,1.8,1.45.91.69,1.85,1.39.94.67,1.89,1.32,1,.63,1.94,1.26,1,.6,2,1.19,1,.57,2,1.13,1,.53c.69.35,1.38.71,2.07,1l1,.51,2.11,1,1.07.47,2.15.91,1.09.43,2.18.84,1.11.4,2.22.76,1.12.36,2.26.68,1.14.32,2.29.61,1.15.28,2.32.54,1.17.23,2.35.45,1.19.2,2.37.37,1.2.15,2.4.29,1.21.11,2.43.2,1.23.07,2.44.11,1.24,0V166.17l-7.65,0-3.82-.07-7.64-.14-3.82-.11-7.61-.25L811,165.4l-7.58-.35-3.75-.21-7.5-.45-3.71-.26-7.4-.55-3.66-.31-7.27-.64-7.17-.72-5.31-.57-1.75-.21c.52,1,1,2.09,1.55,3.13Zm176-2.54-3.56.38-1.79.18-7.22.69-3.65.31-7.34.59-3.72.26-7.45.5-3.76.21-7.54.4-3.79.16-7.59.3-3.82.11-7.63.2-3.82.06-7.65.1h-3.82v52.89l3.68-.14,2.44-.16,1.21-.11,2.42-.24,1.2-.15,2.39-.33,1.18-.2,2.37-.41,1.17-.24,2.33-.49,1.16-.28,2.3-.57,1.14-.31,2.28-.66,1.12-.35,2.24-.73,1.1-.39,2.21-.81,1.09-.43,2.16-.87,1.07-.47c.72-.31,1.43-.63,2.13-.95l1.06-.5,2.09-1,1-.54,2.05-1.09,1-.57,2-1.15,1-.61,2-1.22,1-.64,1.92-1.29.94-.66,1.87-1.35.92-.7,1.82-1.42.89-.72,1.77-1.48.87-.76,1.72-1.53.84-.79,1.67-1.58.81-.82c.54-.54,1.07-1.09,1.61-1.64l.79-.84c.51-.57,1-1.13,1.55-1.7l.76-.87,1.5-1.75.72-.9,1.44-1.79.7-.92c.45-.62.92-1.24,1.37-1.85l.67-.95,1.31-1.89.64-1c.42-.65.83-1.3,1.25-1.94l.6-1,1.19-2c.18-.34.37-.68.56-1l1.12-2,.53-1c.35-.69.71-1.38,1-2.07.17-.35.34-.7.5-1.05l-5.29.58Zm-285-31,.18.7.39,1.39.21.69c.15.46.29.92.44,1.38l.24.69c.17.46.33.91.49,1.37.09.23.19.46.27.69.19.45.37.91.55,1.36l.3.68.6,1.35.33.67c.21.45.43.9.65,1.35.12.22.24.44.35.67l.71,1.33.38.66.76,1.32c.14.22.27.44.4.66l.82,1.31.43.65.86,1.3.45.64.92,1.29.48.64c.32.42.64.85,1,1.27.16.22.33.43.5.64l1,1.26.53.62,1.07,1.26c.18.2.36.41.55.61l1.11,1.24.58.62,1.16,1.22.59.6,1.21,1.21.62.6,1.26,1.2.64.59,1.3,1.18.67.59c.45.39.9.77,1.35,1.17l.69.57,1.39,1.15.71.57,2.89,2.27,1.51,1.11,3.06,2.2,1.6,1.08,3.23,2.13,1.67,1.05,3.39,2.07,1.76,1,3.55,2,1.83,1,3.7,1.92,1.91.94,3.85,1.85,2,.9,4,1.77,2,.86,4.13,1.69,2.11.82,4.26,1.61,2.18.77,4.4,1.53,2.24.73,4.52,1.44,2.3.68,4.63,1.36,2.36.64,4.76,1.25,2.41.6,4.86,1.16,2.46.54,5,1.07,2.52.5,5.06,1,2.57.45,5.15.87,2.62.39,5.24.76L798,216l5.33.66,2.7.28,5.41.55,2.73.23-2.61-.92-1.72-.64-.86-.34-1.7-.68-.85-.36-1.68-.73-.83-.38-1.66-.77-.82-.4-1.64-.81-.81-.42-1.61-.86-.79-.44-1.59-.89-.78-.46-1.56-.93-.78-.48-1.53-1-.75-.5-1.51-1-.75-.52-1.47-1.05-.73-.53-1.45-1.09c-.25-.18-.48-.37-.72-.55l-1.42-1.12-.7-.58-1.4-1.15-.68-.59-1.36-1.19-.67-.61-1.33-1.22-.66-.63-1.3-1.26-.63-.64c-.43-.43-.85-.86-1.27-1.3-.21-.21-.41-.43-.62-.65-.41-.44-.82-.89-1.24-1.33l-.6-.67-1.2-1.36-.58-.69c-.4-.46-.78-.92-1.17-1.39l-.57-.71-1.13-1.41-.55-.73c-.37-.48-.74-1-1.1-1.45l-.53-.73c-.36-.49-.71-1-1.06-1.48l-.51-.75c-.35-.5-.69-1-1-1.51l-.49-.76-1-1.54-.47-.78-.95-1.56c-.15-.27-.31-.53-.46-.79l-.9-1.6c-.15-.26-.29-.53-.44-.8l-.87-1.62c-.14-.27-.28-.54-.41-.82l-.83-1.64-.39-.83c-.27-.56-.53-1.12-.79-1.67-.13-.28-.25-.56-.38-.85l-9.12-1.18-3-.42-4.43-.65-4.37-.68-4.29-.71-4.23-.73-4.14-.75-4.08-.79-4-.81-3.9-.84-3.82-.86-3.73-.89L697,151l-2.41-.61-1.19-.31-2.35-.62-1.15-.33-2.29-.64-1.12-.33-2.22-.66-1.08-.33-2.15-.68-1-.34-2.08-.69-1-.35-2-.71-1-.36-1.93-.73-.93-.37-1.84-.74-.9-.37-1.76-.76-.85-.38-1.68-.78-.81-.39-1.6-.79-.76-.4c-.51-.26-1-.53-1.51-.8l-.72-.41-1.42-.82-.68-.41-1.33-.83-.63-.43-1.24-.85-.58-.43-1.14-.86-.53-.44-1-.88-.48-.44-.95-.9-.43-.45.33,1.4Zm396.7-.06-1,.89-.53.44-1.09.87-.59.43-1.18.85-.64.43-1.28.84-.67.41-1.38.83-.72.41-1.47.81-.76.4-1.56.79-.8.4-1.64.78-.85.38-1.73.76-.89.38-1.8.75-.94.37-1.88.73-1,.36-2,.71-1,.36-2,.7-1,.34-2.11.69-1.08.33-2.19.67-1.12.33-2.25.65-1.15.32-2.32.63-1.19.32-2.38.62-3.67.9-3.76.88-3.84.85-3.94.83-4,.8-4.1.78-4.17.75-4.25.72-4.32.7-4.38.67-4.45.64-1.5.21-6,.81-3.07.37c-.39.84-.78,1.68-1.16,2.52l-.81,1.65-.42.82-.84,1.63-.44.81-.89,1.61-.45.79L937.5,172l-.48.77-1,1.56-.5.76c-.33.51-.66,1-1,1.52-.17.26-.34.5-.51.75l-1,1.5-.54.73-1.07,1.47-.56.72-1.11,1.44-.57.7L928,185.32l-.59.69-1.18,1.37c-.2.22-.4.45-.61.67l-1.21,1.35c-.21.22-.42.43-.62.65l-1.25,1.31-.64.64c-.43.43-.86.85-1.28,1.28l-.66.63-1.31,1.24-.68.61-1.34,1.2-.69.6-1.38,1.17-.69.57-1.41,1.14-.72.56-1.43,1.1-.73.54-1.47,1.06-.75.52-1.49,1-.75.5-1.53,1-.77.48-1.54.95-.79.46-1.57.91-.8.44-1.6.88-.81.41-1.62.84-.82.4-1.65.79-.84.38-1.67.75-.84.35-1.69.71-.86.34-1.72.67-.86.31-1.74.62-.83.28,8.1-.77,5.38-.6,2.65-.34,5.29-.71,2.61-.39,5.21-.82,2.57-.44,5.1-.91,2.52-.5,5-1,2.47-.55,4.91-1.11,2.41-.59,4.81-1.21,2.36-.65,4.69-1.3,2.3-.69,4.58-1.39,2.24-.73,4.46-1.49,2.18-.77,4.32-1.57,2.12-.81,4.2-1.66,2-.86,4.06-1.73,2-.89,3.92-1.82,1.9-.93,3.78-1.89,1.83-1,3.63-2,1.75-1,3.48-2,1.67-1,3.31-2.11,1.6-1.07,3.14-2.18,1.51-1.1,3-2.24,1.42-1.14,1.42-1.14c.22-.19.45-.39.69-.58l1.36-1.16.67-.58,1.32-1.18.65-.59,1.28-1.19.62-.6,1.23-1.2.6-.61,1.18-1.21c.2-.2.38-.41.58-.61.38-.42.75-.83,1.14-1.23l.55-.63,1.08-1.24c.18-.2.36-.41.53-.62l1-1.26.51-.63,1-1.27.48-.64.94-1.28.45-.65.89-1.29.43-.65.84-1.3.4-.66.79-1.32c.13-.22.25-.44.37-.66.25-.44.5-.88.74-1.33.12-.22.24-.44.35-.66l.69-1.34c.1-.23.21-.45.32-.68l.63-1.34.3-.68.57-1.36.27-.68c.18-.46.35-.92.52-1.37l.24-.69c.16-.46.32-.92.47-1.38l.21-.69.42-1.39.18-.69.36-1.4.15-.7-1.38,1.34ZM837.31,72.91l-4,.06-7.94.15-3.93.12-7.84.26-3.87.17L802,74l-3.81.22-7.59.47-7.46.55-5.54.45-5.47.49-5.41.53-5.34.56-5.27.6-1.73.21c-.64,1.58-1.27,3.17-1.9,4.75-.39,1.07-.77,2.14-1.15,3.21-.16.54-.34,1.08-.5,1.62-.33,1.08-.65,2.16-1,3.24l-.42,1.64-.81,3.28c-.12.55-.23,1.1-.34,1.65-.22,1.1-.43,2.21-.64,3.31-.09.55-.18,1.11-.26,1.66l-.48,3.33c-.06.56-.11,1.11-.17,1.67-.1,1.12-.21,2.23-.31,3.35l-.09,1.67c0,1.12-.09,2.24-.14,3.36,0,.56,0,1.12,0,1.67l0,3.36c0,.56,0,1.12.08,1.67.06,1.12.12,2.24.19,3.36,0,.55.11,1.11.16,1.67l.36,3.34c.08.56.16,1.11.25,1.66.17,1.11.35,2.22.52,3.33l.33,1.65.69,3.3.42,1.64c.28,1.09.57,2.18.86,3.27l.49,1.63c.35,1.08.69,2.15,1,3.23.19.54.39,1.07.58,1.61l1.2,3.19.66,1.58,5,.58,3.41.37,5.19.53,5.29.5,5.38.46,5.47.43,5.56.4,5.64.36,5.74.32c1.94.11,3.88.2,5.82.29l5.9.25c2,.07,4,.15,6,.21l6.06.18,6.15.13,6.22.09,6.31,0h2.12V72.86l-8,0Zm12,89.25,8.07,0,4-.06,8-.16,4-.11,7.87-.26,3.89-.17c2.59-.12,5.17-.23,7.75-.36l3.83-.21,7.61-.46,7.5-.55,5.55-.45c1.84-.15,3.67-.32,5.5-.48l5.43-.52,5.36-.56,5.29-.59,1.74-.21q.93-2.39,1.85-4.77c.37-1.07.75-2.14,1.12-3.22.16-.53.33-1.08.49-1.62.32-1.08.63-2.17.95-3.25.13-.55.27-1.09.41-1.64l.78-3.29c.1-.55.21-1.1.32-1.65.21-1.1.41-2.21.62-3.31l.24-1.67c.15-1.11.29-2.21.44-3.32.06-.56.11-1.12.16-1.68.09-1.11.19-2.23.28-3.34,0-.56.05-1.12.07-1.68l.12-3.35c0-.56,0-1.12,0-1.68l-.06-3.35-.09-1.68-.22-3.35-.18-1.67-.39-3.33c-.09-.56-.17-1.11-.26-1.66-.18-1.11-.37-2.22-.56-3.32l-.33-1.65c-.24-1.1-.49-2.2-.73-3.29l-.42-1.64c-.3-1.09-.6-2.18-.89-3.26-.18-.54-.34-1.08-.51-1.62-.36-1.08-.71-2.15-1.06-3.22-.2-.54-.39-1.07-.59-1.6L941,79.68c-.22-.53-.45-1.05-.67-1.58l-5.25-.61-3.53-.38-5.37-.56L920.72,76l-5.5-.47-5.56-.44L907.79,75l-7.51-.51-3.81-.22-7.65-.42-3.88-.17-7.78-.31-3.93-.12-7.89-.2-4-.07-8-.09h-4v89.3ZM743.74,79.5c-1.33.18-2.67.37-4,.57l-5.9.89-5.77,1-5.65,1-1.84.35-3.66.7-1.8.36-3.57.74-1.75.37-3.48.77-4,.93L699,88l-3.24.84-3.15.85-1,.29-2,.58-1,.29-2,.59-1,.3-1.9.6-.93.3-1.83.6-.89.31-1.77.62-.86.31-1.7.62-.82.31-1.63.63-.79.32L671,97l-.76.32-1.49.65-.72.32-1.43.66-.69.32-1.35.66-.65.33-1.29.67-.61.33-1.22.67-.58.34-1.14.68-.54.33-1.07.69-.51.33c-.33.24-.66.46-1,.69l-.47.34-.92.69-.43.35-.85.69c-.13.12-.27.23-.39.35l-.78.7-.35.35-.7.7-.32.35c-.2.23-.41.46-.61.7l-.28.35-.54.71-.24.35-.46.7-.21.36-.38.71c0,.12-.11.23-.16.35s-.2.48-.31.72l-.12.35c-.07.24-.15.47-.22.71s-.05.24-.08.36l-.15.71c0,.12,0,.23,0,.35l-.06.72V118l.12,1.39.18.93.15.47c.12.31.23.62.34.93.08.15.15.31.22.46l.49.93c.1.16.19.32.3.47.21.31.42.62.62.93.13.15.25.31.37.46l.77.93.44.46.92.93.51.46,1.05.92.58.46,1.2.91.64.46,1.34.91.71.45,1.47.9.78.45,1.6.9.85.44,1.73.89.91.44,1.87.87,1,.44,2,.87,1,.42,2.11.86,1.11.42,2.24.84,1.17.41,2.36.83,1.23.41,2.49.81,1.29.4,2.6.8,1.35.39,2.73.78,1.4.38,2.85.77,1.46.37,3,.74,1.53.37,3.07.72,1.57.36,3.19.7,1.63.34,3.29.68,5.09,1,5.24,1,5.41.91,5.56.88c1.9.29,3.8.56,5.71.84l5.86.8,2,.25-1.74-4.72c-.34-1-.69-2.11-1-3.17-.15-.54-.31-1.07-.46-1.6-.29-1.07-.59-2.15-.88-3.21l-.39-1.62-.72-3.24c-.11-.54-.21-1.09-.31-1.63l-.57-3.26c-.08-.55-.15-1.1-.23-1.64-.14-1.1-.27-2.19-.41-3.28l-.15-1.65c-.09-1.1-.18-2.2-.26-3.29,0-.55-.05-1.1-.07-1.65,0-1.1-.07-2.2-.11-3.3,0-.55,0-1.1,0-1.65,0-1.1,0-2.2,0-3.3l.09-1.65c.07-1.1.14-2.2.2-3.29.06-.55.11-1.1.17-1.65l.36-3.28.24-1.64c.17-1.09.35-2.18.52-3.27.11-.54.21-1.08.32-1.63.22-1.08.45-2.16.67-3.24.14-.54.27-1.08.4-1.61l.83-3.23c.16-.53.32-1.06.47-1.59.34-1.07.66-2.13,1-3.19.19-.52.37-1,.55-1.58.39-1,.77-2.1,1.15-3.15l.63-1.55-6.09.81Zm202.89,3.9,1.06,3.16.48,1.6c.3,1.07.6,2.13.91,3.2l.39,1.61.75,3.24c.11.54.22,1.08.32,1.62l.6,3.26.24,1.63c.15,1.1.3,2.19.44,3.28.06.55.11,1.09.16,1.64.1,1.1.2,2.2.29,3.29l.09,1.65c0,1.1.09,2.2.13,3.3v1.64c0,1.11,0,2.21,0,3.31,0,.54-.05,1.09-.07,1.64l-.18,3.3-.15,1.64c-.11,1.1-.22,2.19-.34,3.29-.07.55-.15,1.09-.22,1.64-.17,1.09-.33,2.18-.5,3.27l-.3,1.63c-.22,1.08-.43,2.17-.65,3.25-.13.54-.25,1.07-.38,1.61-.27,1.08-.54,2.15-.8,3.23-.16.53-.31,1.07-.47,1.6-.31,1.06-.63,2.13-1,3.19-.17.53-.35,1.06-.53,1.58-.37,1.06-.75,2.11-1.12,3.16l-.61,1.56,6-.79,4-.56,5.86-.88,5.73-.92,5.61-1,1.83-.34,3.64-.68,1.78-.36,3.55-.71,1.74-.37,3.45-.75,1.7-.38h0l3.39-.8,2.22-.53,3.23-.83,3.15-.83,3-.85,1-.29,2-.57,1-.29,1.9-.59.93-.29,1.83-.6.89-.3,1.77-.6.85-.31,1.71-.6.82-.32,1.63-.61.79-.31,1.57-.63.75-.31,1.5-.64.72-.31,1.43-.64.68-.32,1.36-.65.65-.33,1.29-.65.61-.32,1.21-.66.58-.33,1.15-.66.54-.34,1.07-.66.5-.33,1-.67.47-.34.92-.68.43-.34.85-.67.39-.35.77-.68.36-.34.69-.69c.11-.11.22-.22.32-.34l.62-.69c.09-.11.18-.23.28-.34l.54-.69.24-.35.46-.69.2-.34.39-.7c0-.11.1-.23.16-.35l.3-.69.12-.35.23-.69a3.59,3.59,0,0,1,.08-.35c0-.23.09-.47.14-.7s0-.23,0-.35l.06-.69V118l-.06-1.07c0-.24-.07-.48-.1-.71s-.06-.24-.08-.36-.13-.47-.19-.71l-.12-.35c-.08-.24-.17-.48-.26-.71s-.11-.24-.16-.36-.23-.47-.35-.71l-.2-.35-.42-.71-.24-.35c-.17-.24-.34-.47-.5-.71l-.28-.35-.58-.7-.32-.36-.66-.69c-.11-.12-.23-.24-.35-.35l-.74-.7c-.12-.12-.26-.24-.39-.35l-.81-.7-.43-.34-.88-.69-.47-.35-1-.69-.51-.34-1-.68-.54-.34-1.11-.68-.58-.34-1.18-.67-.61-.33-1.25-.67-.65-.33-1.32-.66-.69-.33-1.39-.66-.72-.32-1.46-.65-.76-.32-1.53-.64-.79-.32-1.6-.64-.82-.31-1.67-.63-.86-.31-1.73-.62-.89-.3-1.8-.61-.93-.31L1010,92l-1-.29-1.93-.6-1-.29-2-.58-3.09-.86-3.17-.85-3.27-.83-3.37-.82-1.14-.26-5.18-1.17-3.53-.75-1.79-.36L976,83.61l-1.85-.35-3.71-.68c-1.89-.34-3.79-.66-5.69-1l-5.81-.93L953,79.78,946.91,79l-2-.26,1.77,4.7ZM883.11,19.12l1.71.63.85.34,1.69.67.83.36,1.67.72.82.37,1.64.76.82.4,1.62.8.8.41,3.18,1.7,1.55.91,3.08,1.86,1.5,1,3,2,1.45,1.05,2.86,2.16,1.4,1.13,2.75,2.29,1.33,1.2,2.63,2.43,1.27,1.26c.83.86,1.67,1.71,2.5,2.56.4.45.81.89,1.21,1.33l2.37,2.69,1.14,1.39c.74.94,1.49,1.87,2.24,2.81.35.49.71,1,1.06,1.45l2.1,2.93,1,1.51,1,1.51.47.77.95,1.54c.16.26.31.52.46.78l.91,1.57.44.79.87,1.6.42.8.83,1.63c.13.27.26.54.4.81.26.55.52,1.1.79,1.65l.38.83,9.13,1.2,3,.43,4.44.66,4.37.69,4.31.71,4.23.75,4.16.77,4.08.8,4,.82,3.92.85,3.83.88,3.73.9,1.22.31,2.43.62,1.19.32,2.36.63,1.15.33,2.3.65,1.12.34,2.22.67,1.09.34,2.16.69,1,.35,2.08.7c.33.12.67.25,1,.36l2,.72,1,.37,1.93.74.94.37,1.85.76.9.38,1.77.77.85.39,1.69.79.81.4,1.61.8.77.41,1.51.82.73.41,1.42.84.68.42,1.34.85.63.43,1.24.87.59.43,1.14.88.54.45,1,.89.49.46.94.91.44.46-.33-1.4c-.06-.23-.13-.46-.19-.69l-.39-1.39c-.07-.23-.14-.46-.22-.69-.14-.46-.3-.92-.44-1.38-.08-.23-.17-.45-.25-.68-.16-.46-.33-.92-.5-1.37l-.27-.68-.55-1.36c-.11-.23-.2-.45-.3-.68-.21-.45-.41-.9-.61-1.35l-.33-.67-.66-1.34-.35-.66-.72-1.33L1040,90c-.26-.44-.52-.88-.77-1.32-.14-.22-.27-.44-.4-.66-.28-.43-.55-.87-.82-1.3l-.43-.65-.87-1.3-.46-.64c-.31-.42-.61-.85-.92-1.28l-.48-.64-1-1.27-.5-.63-1-1.26-.53-.62-1.07-1.25-.55-.61c-.37-.42-.75-.83-1.12-1.24l-.57-.61-1.17-1.22c-.2-.2-.39-.4-.6-.6-.4-.4-.8-.81-1.21-1.21l-.62-.6-1.26-1.19-.64-.59-1.3-1.18-.67-.58-1.35-1.16-.69-.58-1.39-1.15-.71-.56L1014,61.81l-1.51-1.11-3.07-2.19-1.59-1.08c-1.08-.7-2.15-1.41-3.23-2.13l-1.67-1-3.4-2.07-1.75-1-3.55-2-1.83-1-3.7-1.92-1.9-.93L983,43.54l-2-.89-4-1.77L975,40l-4.12-1.68-2.12-.82-4.26-1.6-2.17-.77-4.39-1.53-2.24-.72-4.51-1.44-2.3-.68-4.63-1.35-2.35-.63-4.75-1.26L934.71,27l-4.84-1.16-2.47-.54-4.95-1.06-2.52-.5-5-1-2.56-.45-5.15-.86L904.56,21l-5.24-.76-2.65-.34-5.32-.65L888.66,19l-5.4-.55-2.73-.23,2.58.91Zm-74.41-.43L806,19l-5.36.6-2.65.34-5.28.7-2.61.4-5.19.81-2.56.44-5.1.92-2.52.49-5,1-2.46.55-4.91,1.11-2.41.59-4.79,1.21-2.36.64-4.68,1.3-2.3.68-4.57,1.39-2.24.73-4.45,1.48-2.17.77-4.33,1.56-2.11.82-4.19,1.64-2,.86-4.05,1.73-2,.89-3.92,1.81-1.91.93-3.77,1.88-1.83,1-3.62,2-1.75,1-3.47,2-1.68,1-3.31,2.1-1.6,1.07-3.14,2.16-1.51,1.11-3,2.22-1.42,1.14-1.41,1.14-.7.58-1.37,1.15-.66.58-1.33,1.17-.64.59-1.28,1.19-.62.6c-.42.4-.83.79-1.24,1.2l-.6.6-1.19,1.21-.57.61L665,75.91l-.55.62-1.09,1.23-.53.63c-.35.42-.7.83-1,1.25l-.51.63-1,1.27-.48.63c-.32.43-.63.86-1,1.28l-.45.64-.9,1.29c-.14.22-.28.44-.43.65l-.84,1.3-.4.66-.8,1.31c-.12.22-.25.44-.38.66-.24.44-.49.88-.74,1.32l-.35.67-.69,1.33c-.11.23-.22.45-.32.67L652,95.3l-.3.68c-.19.45-.38.9-.58,1.35l-.27.68c-.18.46-.35.91-.53,1.36l-.24.69-.48,1.38-.21.68-.42,1.39c-.06.23-.12.46-.19.69l-.36,1.4c0,.23-.1.46-.16.69l1.39-1.37,1-.9.54-.45,1.1-.88.59-.45,1.19-.87.63-.43,1.29-.85.68-.43,1.38-.84.73-.41,1.47-.83.77-.41,1.55-.81.82-.4,1.64-.79.86-.39,1.73-.78.89-.38,1.81-.77.94-.37,1.89-.75,1-.37,2-.73,1-.35,2-.72,1-.35,2.12-.7,1.09-.34,2.19-.68,1.12-.33,2.26-.67,1.15-.32,2.33-.65,1.19-.32,2.39-.62,1.22-.31,2.46-.61,3.77-.9,3.86-.87,3.94-.84,4-.81,4.11-.79,4.18-.76L727.8,78l4.32-.71,4.4-.68,4.46-.65,1.5-.21,6-.82,3.09-.39c.38-.82.77-1.65,1.16-2.47l.81-1.64.43-.8.84-1.61.44-.79c.3-.53.59-1.06.89-1.58.16-.26.31-.53.46-.78l.93-1.56.48-.77L759,61l.5-.76c.68-1,1.35-2,2-3l1.07-1.45,2.17-2.87,1.13-1.39,2.31-2.75,1.2-1.33,2.45-2.63,1.26-1.26,2.57-2.5,1.33-1.2,2.7-2.36,1.39-1.13,2.81-2.22,1.44-1.06L788.3,31l1.5-1,3-1.93,1.55-.9,3.13-1.78,1.6-.83,1.61-.83.81-.39,1.64-.78.82-.38,1.66-.73.83-.36,1.68-.7.84-.33,1.7-.66.86-.31,1.72-.61.87-.29-5.45.49Zm33-1.69-2.41.16-1.21.11-2.39.24-1.19.15-2.37.32-1.18.2-2.34.4-1.16.23-2.32.49-1.14.27-2.29.57-1.13.31-2.26.64-1.11.35-2.23.71-1.09.39-2.19.79-1.08.42-2.16.87-1.06.46-2.12.93-1,.49-2.08,1-1,.53-2,1.07-1,.56-2,1.14-1,.59-2,1.21-1,.62-1.91,1.27-.93.66-1.87,1.33-.91.69-1.81,1.39-.89.72-1.77,1.45-.86.75L779.51,43l-.83.77L777,45.34l-.81.8-1.61,1.62-.78.83-1.55,1.67-.76.86L770,52.84l-.72.88-1.44,1.78c-.24.3-.47.6-.7.91l-1.38,1.82-.66.93L763.78,61l-.64.95c-.42.64-.84,1.28-1.25,1.92-.21.32-.41.65-.61,1-.4.66-.8,1.31-1.19,2l-.57,1-1.13,2-.54,1L756.8,72.9l-.51,1,5.27-.6,3.55-.37,1.78-.18,7.19-.7,3.64-.31,7.31-.6,3.7-.27,7.41-.5,3.75-.21,7.5-.41,3.77-.16,7.57-.3,3.79-.11,7.6-.2,3.8-.06,7.62-.1h3.8v-52l-3.66.14Zm7.66,51.85,7.62.05,3.8.06,7.61.15,3.8.11,7.58.25,3.77.16,7.54.35,3.74.22,7.46.45,3.7.26,7.37.55,3.64.31,7.25.65,7.14.73,5.29.58,1.75.21-1.57-3.09-1.09-2-.57-1-1.16-2-.6-1-1.23-1.94-.63-1-1.29-1.9-.67-.93c-.45-.61-.89-1.23-1.35-1.84l-.69-.91-1.41-1.8c-.25-.29-.49-.59-.73-.88L923.94,52l-.75-.86-1.53-1.69-.78-.84-1.59-1.64c-.26-.27-.54-.53-.81-.8l-1.63-1.6-.84-.77-1.69-1.54-.86-.75L911.72,40l-.89-.71L909,37.86c-.31-.22-.61-.45-.91-.69l-1.84-1.35-.94-.66-1.88-1.3-1-.63L900.58,32l-1-.59-2-1.17-1-.57c-.68-.36-1.35-.73-2-1.1l-1-.53-2.06-1-1-.49-2.1-1-1.06-.46-2.14-.9-1.08-.42-2.17-.83-1.1-.38-2.21-.76-1.11-.35-2.24-.68-1.13-.31-2.27-.6-1.15-.27-2.3-.53-1.16-.23-2.33-.45-1.18-.19-2.35-.36-1.2-.16-2.38-.27-1.2-.12-2.41-.2L853,17l-2.43-.11-1.23,0v52Z"/></g><g id="aacc6204-6788-4962-ace6-945a0615758c-child-0"><path class="cls-2" d="M996,34.31C956.07,14,903.29,2.79,847.33,2.79S738.61,14,698.71,34.31C656.25,56,632.84,85.66,632.84,118s23.41,62,65.87,83.65c39.9,20.33,92.69,31.52,148.62,31.52S956.06,222,996,201.61c42.48-21.64,65.87-51.35,65.87-83.65S1038.45,56,996,34.31Z"/></g><g id="aacc6204-6788-4962-ace6-945a0615758c-child-1"><path d="M847.33,12.81C734.57,12.81,642.84,60,642.84,118S734.57,223.1,847.33,223.1,1051.81,175.94,1051.81,118,960.1,12.81,847.33,12.81Zm199.15,93.49c-14-14.76-54.09-25.67-103.42-31.79a105.7,105.7,0,0,0-62.53-56.3C967.87,25.58,1036.25,61.53,1046.48,106.3ZM845.34,68.85a800.12,800.12,0,0,0-89.05,5.09,101.28,101.28,0,0,1,89.05-57.08Zm0,4v89.31A791.61,791.61,0,0,1,754.06,157a101,101,0,0,1,.35-78.9A783.23,783.23,0,0,1,845.34,72.86Zm0,93.31v52.89a101.22,101.22,0,0,1-89.43-57.92A811.43,811.43,0,0,0,845.34,166.17Zm4,0a811.89,811.89,0,0,0,89.44-5,101.24,101.24,0,0,1-89.44,57.92Zm0-4V72.86A786.3,786.3,0,0,1,940.3,78.1a101,101,0,0,1,.35,78.87A794.61,794.61,0,0,1,849.35,162.16Zm0-93.31v-52a101.29,101.29,0,0,1,89,57.08A800.26,800.26,0,0,0,849.35,68.85ZM814.14,18.21A105.71,105.71,0,0,0,751.61,74.5c-49.31,6.13-89.43,17-103.4,31.8C658.44,61.53,726.81,25.58,814.14,18.21ZM704.62,86.6c13.6-3.17,28.83-5.81,45.21-7.92a104.75,104.75,0,0,0-.31,77.77c-63.84-8.12-102.66-23.67-102.66-38.49C646.86,106.57,667.91,95.14,704.62,86.6Zm-56.48,42.75c13.9,14.48,53.87,25.2,103.12,31.23a105.68,105.68,0,0,0,62.88,57.14C726.63,210.33,658.15,174.24,648.14,129.35Zm232.4,88.38a105.7,105.7,0,0,0,62.9-57.15c49.23-6,89.21-16.76,103.1-31.23-10,44.89-78.49,81-166,88.37Zm109.53-69c-13.51,3.08-28.64,5.67-44.88,7.73a104.82,104.82,0,0,0-.33-77.74,457.14,457.14,0,0,1,45.2,7.92c36.71,8.54,57.76,20,57.76,31.36,0,11.14-21,22.34-57.75,30.72Z"/></g></g></g></g></svg>