<svg xmlns="http://www.w3.org/2000/svg" viewBox="0 0 881.85 14.51"><defs><style>.cls-1{fill:#241c17;}</style></defs><title>7ab0416d-87a1-404b-a08c-aa4f640d61de (2)</title><g id="Layer_2" data-name="Layer 2"><g id="Layer_1-2" data-name="Layer 1"><g id="_7ab0416d-87a1-404b-a08c-aa4f640d61de" data-name="7ab0416d-87a1-404b-a08c-aa4f640d61de"><g id="_7ab0416d-87a1-404b-a08c-aa4f640d61de-child-0" data-name="7ab0416d-87a1-404b-a08c-aa4f640d61de-child-0"><path class="cls-1" d="M876.13,3.13a5.79,5.79,0,0,1,4.06,1.69,5.88,5.88,0,0,1,1.66,4,6,6,0,0,1-1.68,4.07,6,6,0,0,1-8.1,0,5.75,5.75,0,0,1,0-8.1A5.69,5.69,0,0,1,876.13,3.13ZM28.64.05h0a5.7,5.7,0,0,0-5.71,5.68h0a5.7,5.7,0,0,0,5.68,5.76h0a5.74,5.74,0,1,0,0-11.44ZM51.55.13h0a5.72,5.72,0,0,0-5.72,5.68h0a5.71,5.71,0,0,0,1.65,4.06,5.63,5.63,0,0,0,4,1.7h0a5.74,5.74,0,1,0,0-11.44Zm22.9.09h0a5.71,5.71,0,0,0-5.71,5.67h0a5.7,5.7,0,0,0,5.68,5.77h0a5.74,5.74,0,0,0,0-11.44ZM97.36.3h0A5.71,5.71,0,0,0,91.65,6h0a5.7,5.7,0,0,0,5.67,5.76h0A5.74,5.74,0,1,0,97.36.3Zm22.91.08h0a5.74,5.74,0,0,0-5.76,5.69h0a5.74,5.74,0,0,0,5.72,5.76h0a5.74,5.74,0,0,0,0-11.44Zm22.91.09h0a5.74,5.74,0,0,0-5.77,5.68h0a5.74,5.74,0,0,0,5.72,5.77h0A5.74,5.74,0,0,0,143.18.48Zm22.9.08h0a5.74,5.74,0,0,0-5.76,5.69h0A5.74,5.74,0,0,0,166,12h0a5.74,5.74,0,0,0,0-11.44ZM189,.63h0a5.74,5.74,0,0,0-5.76,5.69h0A5.74,5.74,0,0,0,189,12.08h0A5.74,5.74,0,0,0,189,.64ZM211.9.72h0a5.73,5.73,0,0,0-5.76,5.68h0a5.74,5.74,0,0,0,5.72,5.77h0a5.74,5.74,0,0,0,0-11.44ZM234.8.8h0A5.72,5.72,0,0,0,229,6.49h0a5.72,5.72,0,0,0,5.72,5.76h0a5.74,5.74,0,0,0,0-11.44Zm22.91.08h0A5.72,5.72,0,0,0,252,6.56h0a5.72,5.72,0,0,0,5.72,5.76h0a5.74,5.74,0,0,0,0-11.44ZM280.62,1h0a5.7,5.7,0,0,0-5.76,5.68h0a5.74,5.74,0,0,0,5.72,5.77h0a5.74,5.74,0,0,0,0-11.44Zm22.9.08h0a5.72,5.72,0,0,0-5.76,5.68h0a5.72,5.72,0,0,0,5.72,5.77h0a5.74,5.74,0,0,0,0-11.44Zm22.88.08h0a5.71,5.71,0,0,0-5.71,5.68h0a5.7,5.7,0,0,0,5.68,5.76h0a5.74,5.74,0,1,0,0-11.44Zm22.91.09h0a5.7,5.7,0,0,0-5.72,5.67h0a5.72,5.72,0,0,0,5.69,5.77h0a5.74,5.74,0,1,0,0-11.44Zm22.91.08h0A5.7,5.7,0,0,0,366.5,7h0a5.7,5.7,0,0,0,5.68,5.76h0a5.74,5.74,0,1,0,0-11.44Zm22.9.08h0a5.71,5.71,0,0,0-5.71,5.68h0a5.7,5.7,0,0,0,5.68,5.76h0a5.74,5.74,0,1,0,0-11.44ZM418,1.47h0a5.69,5.69,0,0,0-5.73,5.67h0a5.72,5.72,0,0,0,5.7,5.77h0a5.74,5.74,0,1,0,0-11.44Zm22.91.08h0a5.7,5.7,0,0,0-5.72,5.68h0A5.7,5.7,0,0,0,440.9,13h0A5.74,5.74,0,1,0,441,1.55Zm22.9.08h0a5.71,5.71,0,0,0-5.71,5.68h0a5.7,5.7,0,0,0,5.68,5.76h0a5.74,5.74,0,1,0,0-11.44Zm22.91.09h0A5.69,5.69,0,0,0,481,7.39h0a5.7,5.7,0,0,0,5.68,5.77h0a5.74,5.74,0,1,0,0-11.44Zm22.91.08h0a5.7,5.7,0,0,0-5.72,5.67h0a5.7,5.7,0,0,0,5.68,5.77h0a5.74,5.74,0,1,0,.05-11.44Zm22.9.08h0a5.71,5.71,0,0,0-5.71,5.68h0a5.7,5.7,0,0,0,5.68,5.76h0a5.74,5.74,0,0,0,0-11.44ZM555.47,2h0a5.69,5.69,0,0,0-5.71,5.67h0a5.7,5.7,0,0,0,5.68,5.77h0a5.74,5.74,0,0,0,0-11.44Zm22.91.08h0a5.75,5.75,0,0,0-5.74,5.67h0a5.74,5.74,0,0,0,5.73,5.77h0a5.74,5.74,0,0,0,0-11.44Zm22.9.08h0a5.75,5.75,0,0,0-5.76,5.69h0a5.74,5.74,0,0,0,5.72,5.76h0a5.74,5.74,0,0,0,0-11.44Zm22.91.09h0a5.73,5.73,0,0,0-5.77,5.68h0a5.76,5.76,0,0,0,5.73,5.77h0a5.74,5.74,0,0,0,0-11.44Zm22.91.08h0A5.72,5.72,0,0,0,641.33,8h0a5.72,5.72,0,0,0,5.72,5.77h0a5.74,5.74,0,0,0,.05-11.44Zm22.9.08h0a5.75,5.75,0,0,0-5.76,5.69h0A5.74,5.74,0,0,0,670,13.83h0a5.74,5.74,0,0,0,0-11.44Zm22.91.09h0a5.7,5.7,0,0,0-5.77,5.68h0a5.72,5.72,0,0,0,5.73,5.77h0a5.74,5.74,0,0,0,0-11.44Zm22.91.08h0a5.72,5.72,0,0,0-5.77,5.68h0A5.72,5.72,0,0,0,715.77,14h0a5.74,5.74,0,0,0,.05-11.44Zm22.9.08h0A5.73,5.73,0,0,0,733,8.31h0a5.74,5.74,0,0,0,1.66,4.07,5.67,5.67,0,0,0,4.07,1.69h0a5.74,5.74,0,0,0,0-11.44Zm22.88.09h0a5.7,5.7,0,0,0-5.72,5.67h0a5.7,5.7,0,0,0,5.69,5.77h0a5.74,5.74,0,1,0,0-11.44Zm22.9.08h0a5.71,5.71,0,0,0-5.71,5.67h0a5.7,5.7,0,0,0,5.68,5.77h0a5.74,5.74,0,1,0,0-11.44Zm22.91.08h0a5.72,5.72,0,0,0-5.72,5.68h0a5.72,5.72,0,0,0,5.69,5.76h0a5.74,5.74,0,1,0,0-11.44ZM830.32,3h0a5.71,5.71,0,0,0-5.72,5.67h0a5.7,5.7,0,0,0,5.69,5.77h0a5.74,5.74,0,1,0,0-11.44Zm22.9.08h0a5.71,5.71,0,0,0-5.71,5.67h0a5.7,5.7,0,0,0,5.68,5.77h0a5.74,5.74,0,1,0,0-11.44ZM4.63.09a4,4,0,0,0-1.08.3,4.23,4.23,0,0,0-1,.53,4.73,4.73,0,0,0-.86.69,5.76,5.76,0,0,0,0,8.1,4.74,4.74,0,0,0,.88.73,7.06,7.06,0,0,0,1,.52,4.4,4.4,0,0,0,1.07.32A5.7,5.7,0,0,0,9.73,9.75a6.2,6.2,0,0,0,.73-.88A6,6,0,0,0,11,7.92a6.9,6.9,0,0,0,.32-1.07,7.24,7.24,0,0,0,.13-1.14,6.85,6.85,0,0,0-.12-1.1A6.28,6.28,0,0,0,11,3.54a5,5,0,0,0-.54-1,4.68,4.68,0,0,0-.72-.89A5.59,5.59,0,0,0,5.73,0,4.45,4.45,0,0,0,4.64.09Z"/></g></g></g></g></svg>