<svg xmlns="http://www.w3.org/2000/svg" viewBox="0 0 862.52 259.56"><defs><style>.cls-1{fill:#1d1714;}</style></defs><title>774a30ce-c5c5-4709-94ad-590e778ef66b</title><g id="Layer_2" data-name="Layer 2"><g id="Layer_1-2" data-name="Layer 1"><g id="_774a30ce-c5c5-4709-94ad-590e778ef66b" data-name="774a30ce-c5c5-4709-94ad-590e778ef66b"><g id="_774a30ce-c5c5-4709-94ad-590e778ef66b-child-0" data-name="774a30ce-c5c5-4709-94ad-590e778ef66b-child-0"><path class="cls-1" d="M431.16,0c-9.83,67.69-68.82,121.29-143.72,129.78C212.57,121.29,153.61,67.69,143.72,0,133.91,67.69,74.93,121.29,0,129.78H0c74.93,8.87,133.91,62.08,143.72,129.78,9.86-67.7,68.82-120.91,143.72-129.78,74.93,8.87,133.91,62.08,143.72,129.78C441,191.86,500,138.65,574.88,129.78h0C500.06,121.29,441.11,67.69,431.16,0Z"/></g><g id="_774a30ce-c5c5-4709-94ad-590e778ef66b-child-1" data-name="774a30ce-c5c5-4709-94ad-590e778ef66b-child-1"><path class="cls-1" d="M862.52,129.78C787.59,121.29,728.61,67.69,718.77,0h0C708.91,67.69,650,121.29,575.05,129.78h0c74.93,8.87,133.89,62.08,143.72,129.78h0c9.84-67.7,68.82-120.91,143.72-129.78Z"/></g></g></g></g></svg>