<svg xmlns="http://www.w3.org/2000/svg" viewBox="0 0 127.98 86.52"><defs><style>.cls-1{fill:#010101;}</style></defs><title>Asset 178mdpi</title><g id="Layer_2" data-name="Layer 2"><g id="Layer_1-2" data-name="Layer 1"><path class="cls-1" d="M126.91,8.09c.23.26.47.51.68.77s-.06.23-.15.3l-3,2.67c-1.08.95-2.16,1.91-3.22,2.87-.21.19-.31.18-.49,0-.6-.69-.61-.68.06-1.28,1.92-1.71,3.84-3.43,5.77-5.13C126.67,8.18,126.74,8,126.91,8.09Z"/><path class="cls-1" d="M102.36,26.08c-1.22-.66-2.41-1.39-3.63-2-.21-.11-.26-.22-.12-.42a1.86,1.86,0,0,0,.25-.43c.13-.32.29-.35.6-.17q3.5,2,7,4c.25.14.3.25.15.51-.45.76-.43.76-1.22.33Z"/><path class="cls-1" d="M63.52,33.34l-.18.11c-.18.09-.38.18-.56.29s-.34.11-.47-.15q-1.87-3.65-3.78-7.29c-.11-.21-.11-.33.13-.42s.56-.43.81-.35.32.49.46.75L63.4,33C63.46,33.09,63.57,33.19,63.52,33.34Z"/><path class="cls-1" d="M127.19,20.66l.09.06c.88.55.88.55.26,1.36-1.53,2-3.08,4-4.6,6-.19.25-.32.24-.55.06-.68-.54-.69-.53-.17-1.21,1.54-2,3.06-4,4.6-6C126.92,20.84,127,20.58,127.19,20.66Z"/><path class="cls-1" d="M101.34,3.58l.2-.11L109,.05c.22-.1.31,0,.41.17.38.83.39.83-.42,1.21-2.3,1.05-4.6,2.09-6.89,3.16-.27.12-.39.09-.48-.19a4.72,4.72,0,0,0-.27-.61C101.33,3.73,101.28,3.67,101.34,3.58Z"/><path class="cls-1" d="M88.12,40.57a.1.1,0,0,1-.11.09l-.13,0c-1-.12-1-.12-.83-1.11.41-2.43.83-4.87,1.23-7.3,0-.32.15-.4.47-.34.82.17.82.15.68,1l-1.26,7.44A2,2,0,0,1,88.12,40.57Z"/><path class="cls-1" d="M69.83,40.65l.22-.08,7.85-2.31c.19,0,.26,0,.32.17.3.94.3.93-.63,1.2l-7.14,2.11c-.27.08-.38,0-.43-.23s-.12-.43-.18-.65A.22.22,0,0,1,69.83,40.65Z"/><path class="cls-1" d="M90.56,17.92c-.43-.2-.43-.2-.23-.65q1.53-3.43,3-6.87c.1-.23.19-.27.41-.17.8.37.8.36.44,1.17-1,2.12-1.9,4.23-2.84,6.35-.2.46-.2.46-.64.26Z"/><path class="cls-1" d="M80.55,18.6c-.25.2-.49.41-.75.59s-.19-.08-.25-.16c-1-1.17-1.9-2.35-2.85-3.53-.65-.8-1.29-1.61-1.94-2.4-.17-.21-.2-.32,0-.5.66-.51.65-.52,1.16.12l4.47,5.56C80.49,18.37,80.64,18.44,80.55,18.6Z"/><path class="cls-1" d="M58.45,47.58a.14.14,0,0,1-.19.1l-.07,0c-.89-.23-.89-.22-.6-1.1.7-2.16,1.41-4.31,2.11-6.47.09-.29.16-.37.47-.26.73.26.73.24.49,1-.72,2.19-1.43,4.39-2.15,6.58Z"/><path class="cls-1" d="M102.85,10.81c0,.11.07.17.09.24.75,2.39,1.49,4.78,2.25,7.18.06.19,0,.26-.18.32-.82.27-.81.28-1.07-.54-.68-2.17-1.35-4.34-2-6.51-.09-.28,0-.39.25-.45A5.4,5.4,0,0,0,102.85,10.81Z"/><path class="cls-1" d="M91.26,25.07c.17.11.07.28,0,.39s0,.56-.27.69c-.08,0-.2,0-.3,0l-7-1.38c-.3-.06-.35-.16-.29-.44.16-.73.15-.73.88-.59L91,25Z"/><path class="cls-1" d="M73.33,32.33c-.07.16-.2.09-.3.06-.26-.09-.59,0-.79-.24,0,0,0-.13,0-.2.39-2.4.79-4.8,1.17-7.21,0-.24.12-.29.36-.25.79.13.79.12.67.91-.36,2.22-.73,4.43-1.09,6.65C73.37,32.14,73.35,32.23,73.33,32.33Z"/><path class="cls-1" d="M111.48,15.7c.18-.19.37-.41.57-.6s.23,0,.31.12q1.86,1.71,3.71,3.43c.55.51,1.1,1,1.66,1.53.19.16.17.27,0,.44-.54.58-.53.59-1.13,0l-5-4.61C111.54,16,111.36,15.9,111.48,15.7Z"/><path class="cls-1" d="M62.4,19.9c-.48-.31-.48-.31-.16-.81l3.56-5.47c.25-.39.25-.4.62-.14s.51.35.17.88l-3.52,5.42C62.82,20.17,62.81,20.17,62.4,19.9Z"/><path class="cls-1" d="M56.69,54.26h0c-.5.69-.5.69-1.14.14-1.64-1.38-3.27-2.77-4.91-4.14-.21-.18-.23-.28,0-.49.47-.53.46-.55,1-.07l5,4.22C56.71,54,56.88,54.06,56.69,54.26Z"/><path class="cls-1" d="M67.38,52.84a9.62,9.62,0,0,1,.68.77c.12.15-.06.22-.14.3l-3,2.66c-1.07,1-2.15,1.91-3.22,2.88-.2.19-.31.18-.49,0-.59-.69-.6-.69.07-1.28L67.05,53C67.14,52.92,67.21,52.75,67.38,52.84Z"/><path class="cls-1" d="M42.83,70.83c-1.21-.66-2.4-1.39-3.62-2-.22-.11-.27-.22-.12-.43a2.22,2.22,0,0,0,.25-.42c.13-.33.28-.36.6-.17q3.5,2,7,4c.25.14.31.24.16.5-.45.77-.44.77-1.22.34Z"/><path class="cls-1" d="M67.66,65.41l.09.06c.89.55.89.55.27,1.35-1.54,2-3.08,4-4.61,6-.19.26-.32.25-.55.07-.68-.54-.68-.53-.16-1.21l4.59-6C67.39,65.59,67.45,65.33,67.66,65.41Z"/><path class="cls-1" d="M41.82,48.32l.2-.1c2.49-1.14,5-2.27,7.46-3.42.23-.1.32,0,.41.16.39.84.4.84-.42,1.21l-6.89,3.16c-.26.12-.38.1-.47-.18a5.67,5.67,0,0,0-.28-.61C41.81,48.48,41.76,48.41,41.82,48.32Z"/><path class="cls-1" d="M28.6,85.32a.1.1,0,0,1-.11.09l-.14,0c-1-.13-1-.13-.82-1.11.41-2.44.83-4.87,1.22-7.3.06-.32.15-.4.47-.34.83.17.83.15.69,1l-1.26,7.44C28.63,85.15,28.61,85.24,28.6,85.32Z"/><path class="cls-1" d="M10.31,85.4l.22-.08L18.37,83c.19-.05.26,0,.33.17.29.94.3.93-.64,1.2l-7.14,2.11c-.26.08-.37,0-.43-.24s-.12-.42-.18-.64A.22.22,0,0,1,10.31,85.4Z"/><path class="cls-1" d="M31,62.67c-.44-.21-.43-.21-.24-.65,1-2.29,2.05-4.58,3.06-6.87.1-.23.18-.27.41-.17.79.37.79.36.43,1.17-1,2.11-1.89,4.23-2.84,6.35-.2.45-.19.46-.63.26Z"/><path class="cls-1" d="M21,63.35c-.25.2-.48.41-.74.59s-.2-.09-.26-.16Q18.6,62,17.18,60.25c-.65-.8-1.29-1.61-1.95-2.4-.17-.21-.19-.32,0-.5.65-.51.64-.52,1.16.12L20.9,63C21,63.12,21.11,63.19,21,63.35Z"/><path class="cls-1" d="M22.05,51.76l.2-.1L29.3,48.5c.19-.08.26,0,.33.14.38.82.38.81-.43,1.18L23,52.59c-.52.23-.51.23-.74-.27-.06-.13-.12-.25-.17-.38S22.07,51.83,22.05,51.76Z"/><path class="cls-1" d="M43.33,55.56l.09.23q1.11,3.6,2.24,7.18c.06.2,0,.26-.17.32-.82.28-.82.28-1.07-.54-.68-2.16-1.36-4.34-2.05-6.5-.09-.29,0-.39.25-.45S43.08,55.64,43.33,55.56Z"/><path class="cls-1" d="M31.74,69.82c.17.1.06.27,0,.39s.06.56-.26.69c-.08,0-.21,0-.31-.05-2.33-.46-4.66-.93-7-1.38-.29-.06-.34-.16-.28-.44.15-.73.14-.73.87-.59l6.66,1.32Z"/><path class="cls-1" d="M13.81,77.08c-.07.15-.21.08-.3,0-.27-.08-.59,0-.79-.23,0,0,0-.14,0-.21.39-2.4.79-4.8,1.18-7.2,0-.25.12-.3.36-.26.79.14.79.13.66.92L13.86,76.8A2.33,2.33,0,0,0,13.81,77.08Z"/><path class="cls-1" d="M52,60.45a8,8,0,0,1,.57-.6c.14-.14.22,0,.31.11l3.71,3.44c.55.51,1.09,1,1.65,1.52.19.17.18.27,0,.45-.54.58-.54.58-1.13,0l-5-4.61C52,60.71,51.84,60.65,52,60.45Z"/><path class="cls-1" d="M2.88,64.65c-.49-.32-.49-.31-.16-.82l3.56-5.47c.25-.39.25-.39.62-.14s.51.35.16.89L3.55,64.52C3.29,64.92,3.29,64.92,2.88,64.65Z"/><path class="cls-1" d="M15.32,37.45l-.19.13-7,4.28c-.22.13-.31.09-.43-.11C7.22,41,7.21,41,8,40.49c2.16-1.31,4.32-2.62,6.47-4,.25-.15.37-.14.49.13a4.85,4.85,0,0,0,.35.57C15.31,37.3,15.37,37.36,15.32,37.45Z"/><path class="cls-1" d="M24.32,21.94c.46.15.46.14.31.61q-1.11,3.59-2.21,7.19c-.07.23-.15.29-.39.21-.84-.28-.83-.27-.57-1.11.69-2.21,1.38-4.43,2.06-6.64.15-.48.15-.48.6-.33Z"/><path class="cls-1" d="M34.54,31.7l-.18.12-6.63,4c-.19.11-.25.07-.35-.09-.47-.77-.47-.77.3-1.23,1.94-1.15,3.87-2.32,5.81-3.48.48-.29.48-.29.76.18.08.12.15.24.22.36S34.51,31.64,34.54,31.7Z"/><path class="cls-1" d="M13,30.45a2.17,2.17,0,0,1-.11-.23c-1-2.28-2-4.57-3.08-6.86-.08-.18,0-.25.13-.34.78-.37.78-.37,1.13.41.93,2.07,1.86,4.15,2.8,6.22.13.27.08.38-.19.47A6,6,0,0,0,13,30.45Z"/><path class="cls-1" d="M52.05,16.63c.52.26.52.26.26.79-1,1.95-1.93,3.91-2.89,5.86-.2.42-.2.42-.6.21s-.55-.29-.27-.86l2.85-5.79C51.61,16.42,51.61,16.42,52.05,16.63Z"/><path class="cls-1" d="M36.42,43.07c-1.22-.65-2.41-1.38-3.63-2-.21-.12-.26-.23-.12-.43a1.51,1.51,0,0,0,.25-.42c.13-.33.29-.36.6-.18,2.33,1.35,4.67,2.68,7,4,.25.14.3.24.15.5-.45.77-.43.77-1.22.34Z"/><path class="cls-1" d="M41.69,30.57l.09.23c.75,2.39,1.49,4.79,2.25,7.18.06.19,0,.26-.17.32-.83.28-.82.28-1.08-.54-.68-2.17-1.35-4.34-2.05-6.5-.09-.29,0-.39.25-.45A6.59,6.59,0,0,0,41.69,30.57Z"/><path class="cls-1" d="M48.26,32.47c.18-.2.36-.41.56-.61s.23,0,.31.12l3.72,3.43c.55.51,1.09,1,1.65,1.53.19.17.17.27,0,.45-.55.57-.54.58-1.13,0l-5-4.61C48.31,32.73,48.14,32.67,48.26,32.47Z"/><path class="cls-1" d="M18.32,51.28a.11.11,0,0,1-.11.08l-.14,0c-1-.12-1-.12-.82-1.11.41-2.43.82-4.87,1.22-7.3.05-.32.15-.4.47-.33.82.16.83.14.69,1-.43,2.48-.84,5-1.26,7.44A2.56,2.56,0,0,0,18.32,51.28Z"/><path class="cls-1" d="M0,51.35l.21-.08C2.86,50.5,5.48,49.74,8.09,49c.19-.05.26,0,.32.17.3.94.31.93-.63,1.21q-3.57,1-7.14,2.1c-.27.08-.38,0-.43-.23s-.12-.43-.18-.64S0,51.43,0,51.35Z"/></g></g></svg>