<svg xmlns="http://www.w3.org/2000/svg" viewBox="0 0 270.31 281.67"><defs><style>.cls-1{fill:#1e1e1e;}</style></defs><title>Asset 145mdpi</title><g id="Layer_2" data-name="Layer 2"><g id="Layer_1-2" data-name="Layer 1"><circle class="cls-1" cx="262.77" cy="186.84" r="0.03" transform="translate(42.94 422.72) rotate(-82.43)"/><circle class="cls-1" cx="256.05" cy="195.7" r="0.06" transform="translate(28.33 423.74) rotate(-82.43)"/><circle class="cls-1" cx="249.32" cy="204.56" r="0.12" transform="translate(13.71 424.77) rotate(-82.43)"/><circle class="cls-1" cx="242.6" cy="213.42" r="0.15" transform="translate(-0.91 425.79) rotate(-82.43)"/><circle class="cls-1" cx="235.88" cy="222.28" r="0.15" transform="translate(-15.53 426.82) rotate(-82.43)"/><circle class="cls-1" cx="229.15" cy="231.13" r="0.15" transform="translate(-30.15 427.84) rotate(-82.43)"/><circle class="cls-1" cx="222.43" cy="239.99" r="0.12" transform="translate(-44.77 428.87) rotate(-82.43)"/><circle class="cls-1" cx="215.7" cy="248.85" r="0.06" transform="translate(-59.39 429.9) rotate(-82.43)"/><circle class="cls-1" cx="208.98" cy="257.71" r="0.03" transform="translate(-74.01 430.92) rotate(-82.43)"/><circle class="cls-1" cx="267.51" cy="162.34" r="0.06" transform="translate(71.35 406.14) rotate(-82.43)"/><circle class="cls-1" cx="260.79" cy="171.2" r="0.12" transform="translate(56.73 407.17) rotate(-82.43)"/><circle class="cls-1" cx="254.07" cy="180.06" r="0.22" transform="matrix(0.13, -0.99, 0.99, 0.13, 42.11, 408.19)"/><ellipse class="cls-1" cx="247.34" cy="188.91" rx="0.31" ry="0.3" transform="translate(27.49 409.22) rotate(-82.43)"/><ellipse class="cls-1" cx="240.62" cy="197.77" rx="0.4" ry="0.4" transform="translate(12.87 410.24) rotate(-82.43)"/><ellipse class="cls-1" cx="233.89" cy="206.63" rx="0.43" ry="0.43" transform="translate(-1.74 411.27) rotate(-82.43)"/><ellipse class="cls-1" cx="227.17" cy="215.49" rx="0.46" ry="0.46" transform="translate(-16.36 412.3) rotate(-82.43)"/><ellipse class="cls-1" cx="220.45" cy="224.35" rx="0.43" ry="0.43" transform="matrix(0.13, -0.99, 0.99, 0.13, -30.98, 413.32)"/><ellipse class="cls-1" cx="213.72" cy="233.2" rx="0.4" ry="0.4" transform="translate(-45.6 414.35) rotate(-82.43)"/><ellipse class="cls-1" cx="207" cy="242.06" rx="0.31" ry="0.3" transform="translate(-60.22 415.37) rotate(-82.43)"/><circle class="cls-1" cx="200.27" cy="250.92" r="0.22" transform="translate(-74.84 416.4) rotate(-82.43)"/><circle class="cls-1" cx="193.55" cy="259.78" r="0.15" transform="translate(-89.46 417.42) rotate(-82.43)"/><circle class="cls-1" cx="186.82" cy="268.64" r="0.06" transform="translate(-104.08 418.45) rotate(-82.43)"/><circle class="cls-1" cx="265.53" cy="146.7" r="0.09" transform="matrix(0.13, -0.99, 0.99, 0.13, 85.14, 390.59)"/><circle class="cls-1" cx="258.81" cy="155.55" r="0.25" transform="translate(70.52 391.62) rotate(-82.43)"/><ellipse class="cls-1" cx="252.08" cy="164.41" rx="0.37" ry="0.37" transform="translate(55.9 392.64) rotate(-82.43)"/><ellipse class="cls-1" cx="245.36" cy="173.27" rx="0.56" ry="0.55" transform="translate(41.28 393.67) rotate(-82.43)"/><ellipse class="cls-1" cx="238.64" cy="182.13" rx="0.68" ry="0.67" transform="translate(26.66 394.7) rotate(-82.43)"/><ellipse class="cls-1" cx="231.91" cy="190.99" rx="0.8" ry="0.79" transform="translate(12.04 395.72) rotate(-82.43)"/><ellipse class="cls-1" cx="225.19" cy="199.84" rx="0.87" ry="0.85" transform="translate(-2.58 396.75) rotate(-82.43)"/><ellipse class="cls-1" cx="218.46" cy="208.7" rx="0.9" ry="0.88" transform="translate(-17.2 397.77) rotate(-82.43)"/><ellipse class="cls-1" cx="211.74" cy="217.56" rx="0.87" ry="0.85" transform="translate(-31.81 398.8) rotate(-82.43)"/><ellipse class="cls-1" cx="205.01" cy="226.42" rx="0.8" ry="0.79" transform="translate(-46.43 399.82) rotate(-82.43)"/><ellipse class="cls-1" cx="198.29" cy="235.28" rx="0.68" ry="0.67" transform="translate(-61.05 400.85) rotate(-82.43)"/><ellipse class="cls-1" cx="191.57" cy="244.13" rx="0.56" ry="0.55" transform="translate(-75.67 401.87) rotate(-82.43)"/><ellipse class="cls-1" cx="184.84" cy="252.99" rx="0.4" ry="0.4" transform="translate(-90.29 402.9) rotate(-82.43)"/><circle class="cls-1" cx="178.12" cy="261.85" r="0.25" transform="translate(-104.91 403.93) rotate(-82.43)"/><circle class="cls-1" cx="171.39" cy="270.71" r="0.12" transform="translate(-119.53 404.95) rotate(-82.43)"/><circle class="cls-1" cx="164.67" cy="279.57" r="0.03" transform="translate(-134.15 405.98) rotate(-82.43)"/><circle class="cls-1" cx="270.27" cy="122.19" r="0.03" transform="translate(113.55 374.02) rotate(-82.43)"/><circle class="cls-1" cx="263.55" cy="131.05" r="0.12" transform="translate(98.93 375.04) rotate(-82.43)"/><ellipse class="cls-1" cx="256.83" cy="139.91" rx="0.31" ry="0.3" transform="translate(84.31 376.07) rotate(-82.43)"/><ellipse class="cls-1" cx="250.1" cy="148.77" rx="0.53" ry="0.52" transform="matrix(0.13, -0.99, 0.99, 0.13, 69.69, 377.1)"/><ellipse class="cls-1" cx="243.38" cy="157.63" rx="0.74" ry="0.73" transform="translate(55.07 378.12) rotate(-82.43)"/><ellipse class="cls-1" cx="236.65" cy="166.48" rx="0.96" ry="0.95" transform="translate(40.45 379.15) rotate(-82.43)"/><ellipse class="cls-1" cx="229.93" cy="175.34" rx="1.15" ry="1.13" transform="translate(25.83 380.17) rotate(-82.43)"/><ellipse class="cls-1" cx="223.21" cy="184.2" rx="1.3" ry="1.28" transform="translate(11.21 381.2) rotate(-82.43)"/><ellipse class="cls-1" cx="216.48" cy="193.06" rx="1.42" ry="1.4" transform="matrix(0.13, -0.99, 0.99, 0.13, -3.41, 382.22)"/><ellipse class="cls-1" cx="209.76" cy="201.92" rx="1.45" ry="1.43" transform="translate(-18.03 383.25) rotate(-82.43)"/><ellipse class="cls-1" cx="203.03" cy="210.77" rx="1.42" ry="1.4" transform="translate(-32.65 384.27) rotate(-82.43)"/><ellipse class="cls-1" cx="196.31" cy="219.63" rx="1.33" ry="1.31" transform="translate(-47.27 385.3) rotate(-82.43)"/><ellipse class="cls-1" cx="189.58" cy="228.49" rx="1.18" ry="1.16" transform="translate(-61.89 386.33) rotate(-82.43)"/><ellipse class="cls-1" cx="182.86" cy="237.35" rx="0.99" ry="0.98" transform="matrix(0.13, -0.99, 0.99, 0.13, -76.5, 387.35)"/><ellipse class="cls-1" cx="176.14" cy="246.2" rx="0.77" ry="0.76" transform="translate(-91.12 388.38) rotate(-82.43)"/><ellipse class="cls-1" cx="169.41" cy="255.06" rx="0.56" ry="0.55" transform="translate(-105.74 389.4) rotate(-82.43)"/><ellipse class="cls-1" cx="162.69" cy="263.92" rx="0.34" ry="0.34" transform="translate(-120.36 390.43) rotate(-82.43)"/><circle class="cls-1" cx="155.96" cy="272.78" r="0.15" transform="translate(-134.98 391.45) rotate(-82.43)"/><circle class="cls-1" cx="149.24" cy="281.64" r="0.03" transform="translate(-149.6 392.48) rotate(-82.43)"/><circle class="cls-1" cx="261.57" cy="115.41" r="0.12" transform="matrix(0.13, -0.99, 0.99, 0.13, 112.71, 359.5)"/><ellipse class="cls-1" cx="254.84" cy="124.26" rx="0.34" ry="0.34" transform="translate(98.09 360.52) rotate(-82.43)"/><ellipse class="cls-1" cx="248.12" cy="133.12" rx="0.59" ry="0.58" transform="translate(83.48 361.55) rotate(-82.43)"/><ellipse class="cls-1" cx="241.4" cy="141.98" rx="0.87" ry="0.85" transform="translate(68.86 362.57) rotate(-82.43)"/><ellipse class="cls-1" cx="234.67" cy="150.84" rx="1.18" ry="1.16" transform="translate(54.24 363.6) rotate(-82.43)"/><ellipse class="cls-1" cx="227.95" cy="159.7" rx="1.49" ry="1.46" transform="translate(39.62 364.62) rotate(-82.43)"/><ellipse class="cls-1" cx="221.22" cy="168.55" rx="1.73" ry="1.71" transform="translate(25 365.65) rotate(-82.43)"/><ellipse class="cls-1" cx="214.5" cy="177.41" rx="1.95" ry="1.92" transform="translate(10.38 366.67) rotate(-82.43)"/><ellipse class="cls-1" cx="207.78" cy="186.27" rx="2.07" ry="2.04" transform="translate(-4.24 367.7) rotate(-82.43)"/><ellipse class="cls-1" cx="201.05" cy="195.13" rx="2.14" ry="2.1" transform="translate(-18.86 368.73) rotate(-82.43)"/><ellipse class="cls-1" cx="194.33" cy="203.99" rx="2.07" ry="2.04" transform="translate(-33.48 369.75) rotate(-82.43)"/><ellipse class="cls-1" cx="187.6" cy="212.84" rx="1.95" ry="1.92" transform="matrix(0.13, -0.99, 0.99, 0.13, -48.1, 370.78)"/><ellipse class="cls-1" cx="180.88" cy="221.7" rx="1.76" ry="1.74" transform="translate(-62.72 371.8) rotate(-82.43)"/><ellipse class="cls-1" cx="174.15" cy="230.56" rx="1.52" ry="1.49" transform="translate(-77.34 372.83) rotate(-82.43)"/><ellipse class="cls-1" cx="167.43" cy="239.42" rx="1.21" ry="1.19" transform="translate(-91.96 373.85) rotate(-82.43)"/><ellipse class="cls-1" cx="160.71" cy="248.28" rx="0.9" ry="0.88" transform="translate(-106.57 374.88) rotate(-82.43)"/><ellipse class="cls-1" cx="153.98" cy="257.13" rx="0.62" ry="0.61" transform="translate(-121.19 375.9) rotate(-82.43)"/><ellipse class="cls-1" cx="147.26" cy="265.99" rx="0.37" ry="0.37" transform="matrix(0.13, -0.99, 0.99, 0.13, -135.81, 376.93)"/><circle class="cls-1" cx="140.53" cy="274.85" r="0.15" transform="matrix(0.13, -0.99, 0.99, 0.13, -150.43, 377.96)"/><circle class="cls-1" cx="259.59" cy="99.76" r="0.09" transform="translate(126.5 343.95) rotate(-82.43)"/><ellipse class="cls-1" cx="252.86" cy="108.62" rx="0.31" ry="0.3" transform="translate(111.88 344.97) rotate(-82.43)"/><ellipse class="cls-1" cx="246.14" cy="117.48" rx="0.59" ry="0.58" transform="translate(97.26 346) rotate(-82.43)"/><ellipse class="cls-1" cx="239.41" cy="126.34" rx="0.93" ry="0.91" transform="translate(82.64 347.02) rotate(-82.43)"/><ellipse class="cls-1" cx="232.69" cy="135.19" rx="1.3" ry="1.28" transform="translate(68.02 348.05) rotate(-82.43)"/><ellipse class="cls-1" cx="225.97" cy="144.05" rx="1.7" ry="1.68" transform="translate(53.41 349.07) rotate(-82.43)"/><ellipse class="cls-1" cx="219.24" cy="152.91" rx="2.07" ry="2.04" transform="translate(38.79 350.1) rotate(-82.43)"/><ellipse class="cls-1" cx="212.52" cy="161.77" rx="2.38" ry="2.35" transform="translate(24.17 351.13) rotate(-82.43)"/><ellipse class="cls-1" cx="205.79" cy="170.63" rx="2.66" ry="2.62" transform="translate(9.55 352.15) rotate(-82.43)"/><ellipse class="cls-1" cx="199.07" cy="179.48" rx="2.85" ry="2.81" transform="translate(-5.07 353.18) rotate(-82.43)"/><ellipse class="cls-1" cx="192.34" cy="188.34" rx="2.91" ry="2.87" transform="translate(-19.69 354.2) rotate(-82.43)"/><ellipse class="cls-1" cx="185.62" cy="197.2" rx="2.85" ry="2.81" transform="translate(-34.31 355.23) rotate(-82.43)"/><ellipse class="cls-1" cx="178.9" cy="206.06" rx="2.69" ry="2.65" transform="translate(-48.93 356.25) rotate(-82.43)"/><ellipse class="cls-1" cx="172.17" cy="214.92" rx="2.41" ry="2.38" transform="translate(-63.55 357.28) rotate(-82.43)"/><ellipse class="cls-1" cx="165.45" cy="223.77" rx="2.1" ry="2.07" transform="matrix(0.13, -0.99, 0.99, 0.13, -78.17, 358.3)"/><ellipse class="cls-1" cx="158.72" cy="232.63" rx="1.73" ry="1.71" transform="translate(-92.79 359.33) rotate(-82.43)"/><ellipse class="cls-1" cx="152" cy="241.49" rx="1.33" ry="1.31" transform="translate(-107.41 360.36) rotate(-82.43)"/><ellipse class="cls-1" cx="145.28" cy="250.35" rx="0.96" ry="0.95" transform="translate(-122.03 361.38) rotate(-82.43)"/><ellipse class="cls-1" cx="138.55" cy="259.2" rx="0.62" ry="0.61" transform="translate(-136.64 362.41) rotate(-82.43)"/><ellipse class="cls-1" cx="131.83" cy="268.06" rx="0.34" ry="0.34" transform="translate(-151.26 363.43) rotate(-82.43)"/><circle class="cls-1" cx="257.6" cy="84.12" r="0.03" transform="translate(140.29 328.4) rotate(-82.43)"/><circle class="cls-1" cx="250.88" cy="92.98" r="0.22" transform="translate(125.67 329.42) rotate(-82.43)"/><ellipse class="cls-1" cx="244.16" cy="101.83" rx="0.53" ry="0.52" transform="translate(111.05 330.45) rotate(-82.43)"/><ellipse class="cls-1" cx="237.43" cy="110.69" rx="0.87" ry="0.85" transform="translate(96.43 331.47) rotate(-82.43)"/><ellipse class="cls-1" cx="230.71" cy="119.55" rx="1.3" ry="1.28" transform="translate(81.81 332.5) rotate(-82.43)"/><ellipse class="cls-1" cx="223.98" cy="128.41" rx="1.76" ry="1.74" transform="matrix(0.13, -0.99, 0.99, 0.13, 67.19, 333.53)"/><ellipse class="cls-1" cx="217.26" cy="137.26" rx="2.23" ry="2.2" transform="translate(52.57 334.55) rotate(-82.43)"/><ellipse class="cls-1" cx="210.54" cy="146.12" rx="2.69" ry="2.65" transform="translate(37.95 335.58) rotate(-82.43)"/><ellipse class="cls-1" cx="203.81" cy="154.98" rx="3.13" ry="3.08" transform="translate(23.34 336.6) rotate(-82.43)"/><ellipse class="cls-1" cx="197.09" cy="163.84" rx="3.47" ry="3.42" transform="translate(8.72 337.63) rotate(-82.43)"/><ellipse class="cls-1" cx="190.36" cy="172.7" rx="3.68" ry="3.63" transform="translate(-5.9 338.65) rotate(-82.43)"/><ellipse class="cls-1" cx="183.64" cy="181.55" rx="3.78" ry="3.72" transform="translate(-20.52 339.68) rotate(-82.43)"/><ellipse class="cls-1" cx="176.91" cy="190.41" rx="3.71" ry="3.66" transform="translate(-35.14 340.7) rotate(-82.43)"/><ellipse class="cls-1" cx="170.19" cy="199.27" rx="3.5" ry="3.45" transform="translate(-49.76 341.73) rotate(-82.43)"/><ellipse class="cls-1" cx="163.47" cy="208.13" rx="3.19" ry="3.14" transform="translate(-64.38 342.76) rotate(-82.43)"/><ellipse class="cls-1" cx="156.74" cy="216.99" rx="2.75" ry="2.71" transform="translate(-79 343.78) rotate(-82.43)"/><ellipse class="cls-1" cx="150.02" cy="225.84" rx="2.29" ry="2.26" transform="translate(-93.62 344.81) rotate(-82.43)"/><ellipse class="cls-1" cx="143.29" cy="234.7" rx="1.83" ry="1.8" transform="matrix(0.13, -0.99, 0.99, 0.13, -108.24, 345.83)"/><ellipse class="cls-1" cx="136.57" cy="243.56" rx="1.36" ry="1.34" transform="translate(-122.86 346.86) rotate(-82.43)"/><ellipse class="cls-1" cx="129.85" cy="252.42" rx="0.93" ry="0.91" transform="translate(-137.48 347.88) rotate(-82.43)"/><ellipse class="cls-1" cx="123.12" cy="261.28" rx="0.56" ry="0.55" transform="translate(-152.1 348.91) rotate(-82.43)"/><circle class="cls-1" cx="248.9" cy="77.33" r="0.12" transform="translate(139.46 313.87) rotate(-82.43)"/><ellipse class="cls-1" cx="242.17" cy="86.19" rx="0.37" ry="0.37" transform="translate(124.84 314.9) rotate(-82.43)"/><ellipse class="cls-1" cx="235.45" cy="95.05" rx="0.74" ry="0.73" transform="translate(110.22 315.93) rotate(-82.43)"/><ellipse class="cls-1" cx="228.73" cy="103.9" rx="1.18" ry="1.16" transform="translate(95.6 316.95) rotate(-82.43)"/><ellipse class="cls-1" cx="222" cy="112.76" rx="1.67" ry="1.65" transform="translate(80.98 317.98) rotate(-82.43)"/><ellipse class="cls-1" cx="215.28" cy="121.62" rx="2.23" ry="2.2" transform="translate(66.36 319) rotate(-82.43)"/><ellipse class="cls-1" cx="208.55" cy="130.48" rx="2.82" ry="2.78" transform="translate(51.74 320.03) rotate(-82.43)"/><ellipse class="cls-1" cx="201.83" cy="139.34" rx="3.37" ry="3.32" transform="translate(37.12 321.05) rotate(-82.43)"/><ellipse class="cls-1" cx="195.1" cy="148.19" rx="3.93" ry="3.87" transform="translate(22.5 322.08) rotate(-82.43)"/><ellipse class="cls-1" cx="188.38" cy="157.05" rx="4.3" ry="4.24" transform="translate(7.88 323.1) rotate(-82.43)"/><ellipse class="cls-1" cx="181.66" cy="165.91" rx="4.58" ry="4.51" transform="matrix(0.13, -0.99, 0.99, 0.13, -6.74, 324.13)"/><ellipse class="cls-1" cx="174.93" cy="174.77" rx="4.67" ry="4.6" transform="translate(-21.35 325.16) rotate(-82.43)"/><ellipse class="cls-1" cx="168.21" cy="183.63" rx="4.58" ry="4.51" transform="translate(-35.97 326.18) rotate(-82.43)"/><ellipse class="cls-1" cx="161.48" cy="192.48" rx="4.33" ry="4.27" transform="matrix(0.13, -0.99, 0.99, 0.13, -50.59, 327.21)"/><ellipse class="cls-1" cx="154.76" cy="201.34" rx="3.96" ry="3.9" transform="translate(-65.21 328.23) rotate(-82.43)"/><ellipse class="cls-1" cx="148.04" cy="210.2" rx="3.44" ry="3.39" transform="translate(-79.83 329.26) rotate(-82.43)"/><ellipse class="cls-1" cx="141.31" cy="219.06" rx="2.88" ry="2.84" transform="translate(-94.45 330.28) rotate(-82.43)"/><ellipse class="cls-1" cx="134.59" cy="227.92" rx="2.29" ry="2.26" transform="translate(-109.07 331.31) rotate(-82.43)"/><ellipse class="cls-1" cx="127.86" cy="236.77" rx="1.73" ry="1.71" transform="matrix(0.13, -0.99, 0.99, 0.13, -123.69, 332.34)"/><ellipse class="cls-1" cx="121.14" cy="245.63" rx="1.21" ry="1.19" transform="translate(-138.31 333.36) rotate(-82.43)"/><ellipse class="cls-1" cx="114.41" cy="254.49" rx="0.77" ry="0.76" transform="translate(-152.93 334.39) rotate(-82.43)"/><circle class="cls-1" cx="246.92" cy="61.69" r="0.03" transform="translate(153.24 298.33) rotate(-82.43)"/><circle class="cls-1" cx="240.19" cy="70.54" r="0.22" transform="matrix(0.13, -0.99, 0.99, 0.13, 138.63, 299.35)"/><ellipse class="cls-1" cx="233.47" cy="79.4" rx="0.53" ry="0.52" transform="matrix(0.13, -0.99, 0.99, 0.13, 124.01, 300.38)"/><ellipse class="cls-1" cx="226.74" cy="88.26" rx="0.96" ry="0.95" transform="translate(109.39 301.4) rotate(-82.43)"/><ellipse class="cls-1" cx="220.02" cy="97.12" rx="1.45" ry="1.43" transform="translate(94.77 302.43) rotate(-82.43)"/><ellipse class="cls-1" cx="213.3" cy="105.98" rx="2.04" ry="2.01" transform="translate(80.15 303.45) rotate(-82.43)"/><ellipse class="cls-1" cx="206.57" cy="114.83" rx="2.69" ry="2.65" transform="translate(65.53 304.48) rotate(-82.43)"/><ellipse class="cls-1" cx="199.85" cy="123.69" rx="3.37" ry="3.32" transform="translate(50.91 305.5) rotate(-82.43)"/><ellipse class="cls-1" cx="193.12" cy="132.55" rx="4.05" ry="4" transform="translate(36.29 306.53) rotate(-82.43)"/><ellipse class="cls-1" cx="186.4" cy="141.41" rx="4.64" ry="4.57" transform="translate(21.67 307.56) rotate(-82.43)"/><ellipse class="cls-1" cx="179.67" cy="150.27" rx="5.11" ry="5.03" transform="translate(7.05 308.58) rotate(-82.43)"/><ellipse class="cls-1" cx="172.95" cy="159.12" rx="5.42" ry="5.34" transform="translate(-7.57 309.61) rotate(-82.43)"/><ellipse class="cls-1" cx="166.23" cy="167.98" rx="5.54" ry="5.46" transform="translate(-22.19 310.63) rotate(-82.43)"/><ellipse class="cls-1" cx="159.5" cy="176.84" rx="5.45" ry="5.37" transform="translate(-36.81 311.66) rotate(-82.43)"/><ellipse class="cls-1" cx="152.78" cy="185.7" rx="5.17" ry="5.09" transform="translate(-51.42 312.68) rotate(-82.43)"/><ellipse class="cls-1" cx="146.05" cy="194.55" rx="4.7" ry="4.64" transform="translate(-66.04 313.71) rotate(-82.43)"/><ellipse class="cls-1" cx="139.33" cy="203.41" rx="4.12" ry="4.06" transform="translate(-80.66 314.74) rotate(-82.43)"/><ellipse class="cls-1" cx="132.61" cy="212.27" rx="3.47" ry="3.42" transform="translate(-95.28 315.76) rotate(-82.43)"/><ellipse class="cls-1" cx="125.88" cy="221.13" rx="2.75" ry="2.71" transform="translate(-109.9 316.79) rotate(-82.43)"/><ellipse class="cls-1" cx="119.16" cy="229.99" rx="2.1" ry="2.07" transform="translate(-124.52 317.81) rotate(-82.43)"/><ellipse class="cls-1" cx="112.43" cy="238.84" rx="1.55" ry="1.52" transform="translate(-139.14 318.84) rotate(-82.43)"/><ellipse class="cls-1" cx="105.71" cy="247.7" rx="0.99" ry="0.98" transform="translate(-153.76 319.86) rotate(-82.43)"/><circle class="cls-1" cx="238.21" cy="54.9" r="0.06" transform="translate(152.41 283.8) rotate(-82.43)"/><ellipse class="cls-1" cx="231.49" cy="63.76" rx="0.31" ry="0.3" transform="translate(137.79 284.83) rotate(-82.43)"/><ellipse class="cls-1" cx="224.76" cy="72.61" rx="0.68" ry="0.67" transform="matrix(0.13, -0.99, 0.99, 0.13, 123.17, 285.85)"/><ellipse class="cls-1" cx="218.04" cy="81.47" rx="1.15" ry="1.13" transform="translate(108.56 286.88) rotate(-82.43)"/><ellipse class="cls-1" cx="211.31" cy="90.33" rx="1.73" ry="1.71" transform="translate(93.94 287.9) rotate(-82.43)"/><ellipse class="cls-1" cx="204.59" cy="99.19" rx="2.38" ry="2.35" transform="translate(79.32 288.93) rotate(-82.43)"/><ellipse class="cls-1" cx="197.86" cy="108.05" rx="3.13" ry="3.08" transform="translate(64.7 289.96) rotate(-82.43)"/><ellipse class="cls-1" cx="191.14" cy="116.9" rx="3.9" ry="3.84" transform="translate(50.08 290.98) rotate(-82.43)"/><ellipse class="cls-1" cx="184.42" cy="125.76" rx="4.64" ry="4.57" transform="translate(35.46 292.01) rotate(-82.43)"/><ellipse class="cls-1" cx="177.69" cy="134.62" rx="5.29" ry="5.21" transform="translate(20.84 293.03) rotate(-82.43)"/><ellipse class="cls-1" cx="170.97" cy="143.48" rx="5.85" ry="5.76" transform="translate(6.22 294.06) rotate(-82.43)"/><ellipse class="cls-1" cx="164.24" cy="152.34" rx="6.22" ry="6.13" transform="translate(-8.4 295.08) rotate(-82.43)"/><ellipse class="cls-1" cx="157.52" cy="161.19" rx="6.35" ry="6.25" transform="translate(-23.02 296.11) rotate(-82.43)"/><ellipse class="cls-1" cx="150.8" cy="170.05" rx="6.22" ry="6.13" transform="translate(-37.64 297.14) rotate(-82.43)"/><ellipse class="cls-1" cx="144.07" cy="178.91" rx="5.91" ry="5.82" transform="matrix(0.13, -0.99, 0.99, 0.13, -52.26, 298.16)"/><ellipse class="cls-1" cx="137.35" cy="187.77" rx="5.39" ry="5.31" transform="translate(-66.88 299.19) rotate(-82.43)"/><ellipse class="cls-1" cx="130.62" cy="196.63" rx="4.7" ry="4.64" transform="translate(-81.49 300.21) rotate(-82.43)"/><ellipse class="cls-1" cx="123.9" cy="205.48" rx="3.96" ry="3.9" transform="translate(-96.11 301.24) rotate(-82.43)"/><ellipse class="cls-1" cx="117.17" cy="214.34" rx="3.22" ry="3.17" transform="translate(-110.73 302.26) rotate(-82.43)"/><ellipse class="cls-1" cx="110.45" cy="223.2" rx="2.45" ry="2.41" transform="translate(-125.35 303.29) rotate(-82.43)"/><ellipse class="cls-1" cx="103.73" cy="232.06" rx="1.8" ry="1.77" transform="translate(-139.97 304.31) rotate(-82.43)"/><ellipse class="cls-1" cx="97" cy="240.92" rx="1.21" ry="1.19" transform="translate(-154.59 305.34) rotate(-82.43)"/><circle class="cls-1" cx="229.5" cy="48.11" r="0.12" transform="matrix(0.13, -0.99, 0.99, 0.13, 151.58, 269.28)"/><ellipse class="cls-1" cx="222.78" cy="56.97" rx="0.37" ry="0.37" transform="translate(136.96 270.3) rotate(-82.43)"/><ellipse class="cls-1" cx="216.06" cy="65.83" rx="0.77" ry="0.76" transform="translate(122.34 271.33) rotate(-82.43)"/><ellipse class="cls-1" cx="209.33" cy="74.69" rx="1.3" ry="1.28" transform="translate(107.72 272.36) rotate(-82.43)"/><ellipse class="cls-1" cx="202.61" cy="83.54" rx="1.92" ry="1.89" transform="matrix(0.13, -0.99, 0.99, 0.13, 93.1, 273.38)"/><ellipse class="cls-1" cx="195.88" cy="92.4" rx="2.63" ry="2.59" transform="translate(78.49 274.41) rotate(-82.43)"/><ellipse class="cls-1" cx="189.16" cy="101.26" rx="3.44" ry="3.39" transform="translate(63.87 275.43) rotate(-82.43)"/><ellipse class="cls-1" cx="182.43" cy="110.12" rx="4.3" ry="4.24" transform="translate(49.25 276.46) rotate(-82.43)"/><ellipse class="cls-1" cx="175.71" cy="118.98" rx="5.11" ry="5.03" transform="translate(34.63 277.48) rotate(-82.43)"/><ellipse class="cls-1" cx="168.99" cy="127.83" rx="5.85" ry="5.76" transform="translate(20.01 278.51) rotate(-82.43)"/><ellipse class="cls-1" cx="162.26" cy="136.69" rx="6.44" ry="6.34" transform="translate(5.39 279.54) rotate(-82.43)"/><ellipse class="cls-1" cx="155.54" cy="145.55" rx="6.87" ry="6.77" transform="translate(-9.23 280.56) rotate(-82.43)"/><ellipse class="cls-1" cx="148.81" cy="154.41" rx="7.03" ry="6.92" transform="translate(-23.85 281.59) rotate(-82.43)"/><ellipse class="cls-1" cx="142.09" cy="163.27" rx="6.9" ry="6.8" transform="translate(-38.47 282.61) rotate(-82.43)"/><ellipse class="cls-1" cx="135.37" cy="172.12" rx="6.5" ry="6.4" transform="translate(-53.09 283.64) rotate(-82.43)"/><ellipse class="cls-1" cx="128.64" cy="180.98" rx="5.91" ry="5.82" transform="translate(-67.71 284.66) rotate(-82.43)"/><ellipse class="cls-1" cx="121.92" cy="189.84" rx="5.2" ry="5.12" transform="translate(-82.33 285.69) rotate(-82.43)"/><ellipse class="cls-1" cx="115.19" cy="198.7" rx="4.4" ry="4.33" transform="translate(-96.95 286.71) rotate(-82.43)"/><ellipse class="cls-1" cx="108.47" cy="207.55" rx="3.56" ry="3.51" transform="translate(-111.57 287.74) rotate(-82.43)"/><ellipse class="cls-1" cx="101.74" cy="216.41" rx="2.72" ry="2.68" transform="translate(-126.18 288.77) rotate(-82.43)"/><ellipse class="cls-1" cx="95.02" cy="225.27" rx="2.01" ry="1.98" transform="translate(-140.8 289.79) rotate(-82.43)"/><circle class="cls-1" cx="220.8" cy="41.33" r="0.12" transform="translate(150.75 254.76) rotate(-82.43)"/><ellipse class="cls-1" cx="214.07" cy="50.18" rx="0.43" ry="0.43" transform="translate(136.13 255.78) rotate(-82.43)"/><ellipse class="cls-1" cx="207.35" cy="59.04" rx="0.84" ry="0.82" transform="translate(121.51 256.81) rotate(-82.43)"/><ellipse class="cls-1" cx="200.63" cy="67.9" rx="1.39" ry="1.37" transform="translate(106.89 257.83) rotate(-82.43)"/><ellipse class="cls-1" cx="193.9" cy="76.76" rx="2.04" ry="2.01" transform="translate(92.27 258.86) rotate(-82.43)"/><ellipse class="cls-1" cx="187.18" cy="85.61" rx="2.79" ry="2.74" transform="translate(77.65 259.88) rotate(-82.43)"/><ellipse class="cls-1" cx="180.45" cy="94.47" rx="3.65" ry="3.6" transform="translate(63.03 260.91) rotate(-82.43)"/><ellipse class="cls-1" cx="173.73" cy="103.33" rx="4.55" ry="4.48" transform="translate(48.41 261.94) rotate(-82.43)"/><ellipse class="cls-1" cx="167" cy="112.19" rx="5.42" ry="5.34" transform="translate(33.8 262.96) rotate(-82.43)"/><ellipse class="cls-1" cx="160.28" cy="121.05" rx="6.19" ry="6.1" transform="translate(19.18 263.99) rotate(-82.43)"/><ellipse class="cls-1" cx="153.56" cy="129.9" rx="6.87" ry="6.77" transform="translate(4.56 265.01) rotate(-82.43)"/><ellipse class="cls-1" cx="146.83" cy="138.76" rx="7.34" ry="7.23" transform="translate(-10.06 266.04) rotate(-82.43)"/><ellipse class="cls-1" cx="140.11" cy="147.62" rx="7.58" ry="7.47" transform="translate(-24.68 267.06) rotate(-82.43)"/><ellipse class="cls-1" cx="133.38" cy="156.48" rx="7.4" ry="7.29" transform="translate(-39.3 268.09) rotate(-82.43)"/><ellipse class="cls-1" cx="126.66" cy="165.34" rx="6.9" ry="6.8" transform="translate(-53.92 269.11) rotate(-82.43)"/><ellipse class="cls-1" cx="119.94" cy="174.19" rx="6.28" ry="6.19" transform="translate(-68.54 270.14) rotate(-82.43)"/><ellipse class="cls-1" cx="113.21" cy="183.05" rx="5.51" ry="5.43" transform="translate(-83.16 271.17) rotate(-82.43)"/><ellipse class="cls-1" cx="106.49" cy="191.91" rx="4.64" ry="4.57" transform="translate(-97.78 272.19) rotate(-82.43)"/><ellipse class="cls-1" cx="99.76" cy="200.77" rx="3.78" ry="3.72" transform="translate(-112.4 273.22) rotate(-82.43)"/><ellipse class="cls-1" cx="93.04" cy="209.63" rx="2.91" ry="2.87" transform="translate(-127.02 274.24) rotate(-82.43)"/><ellipse class="cls-1" cx="86.31" cy="218.48" rx="2.14" ry="2.1" transform="translate(-141.64 275.27) rotate(-82.43)"/><circle class="cls-1" cx="212.09" cy="34.54" r="0.12" transform="translate(149.92 240.23) rotate(-82.43)"/><ellipse class="cls-1" cx="205.37" cy="43.4" rx="0.43" ry="0.43" transform="translate(135.3 241.26) rotate(-82.43)"/><ellipse class="cls-1" cx="198.64" cy="52.25" rx="0.87" ry="0.85" transform="translate(120.68 242.28) rotate(-82.43)"/><ellipse class="cls-1" cx="191.92" cy="61.11" rx="1.42" ry="1.4" transform="translate(106.06 243.31) rotate(-82.43)"/><ellipse class="cls-1" cx="185.19" cy="69.97" rx="2.1" ry="2.07" transform="translate(91.44 244.34) rotate(-82.43)"/><ellipse class="cls-1" cx="178.47" cy="78.83" rx="2.88" ry="2.84" transform="translate(76.82 245.36) rotate(-82.43)"/><ellipse class="cls-1" cx="171.75" cy="87.69" rx="3.75" ry="3.69" transform="translate(62.2 246.39) rotate(-82.43)"/><ellipse class="cls-1" cx="165.02" cy="96.54" rx="4.64" ry="4.57" transform="translate(47.58 247.41) rotate(-82.43)"/><ellipse class="cls-1" cx="158.3" cy="105.4" rx="5.51" ry="5.43" transform="translate(32.96 248.44) rotate(-82.43)"/><ellipse class="cls-1" cx="151.57" cy="114.26" rx="6.31" ry="6.22" transform="translate(18.34 249.46) rotate(-82.43)"/><ellipse class="cls-1" cx="144.85" cy="123.12" rx="7" ry="6.89" transform="translate(3.73 250.49) rotate(-82.43)"/><ellipse class="cls-1" cx="138.13" cy="131.98" rx="7.55" ry="7.44" transform="translate(-10.89 251.51) rotate(-82.43)"/><ellipse class="cls-1" cx="131.4" cy="140.83" rx="7.8" ry="7.69" transform="translate(-25.51 252.54) rotate(-82.43)"/><ellipse class="cls-1" cx="124.68" cy="149.69" rx="7.58" ry="7.47" transform="translate(-40.13 253.57) rotate(-82.43)"/><ellipse class="cls-1" cx="117.95" cy="158.55" rx="7.06" ry="6.95" transform="translate(-54.75 254.59) rotate(-82.43)"/><ellipse class="cls-1" cx="111.23" cy="167.41" rx="6.41" ry="6.31" transform="translate(-69.37 255.62) rotate(-82.43)"/><ellipse class="cls-1" cx="104.5" cy="176.27" rx="5.6" ry="5.52" transform="translate(-83.99 256.64) rotate(-82.43)"/><ellipse class="cls-1" cx="97.78" cy="185.12" rx="4.74" ry="4.67" transform="translate(-98.61 257.67) rotate(-82.43)"/><ellipse class="cls-1" cx="91.06" cy="193.98" rx="3.84" ry="3.78" transform="translate(-113.23 258.69) rotate(-82.43)"/><ellipse class="cls-1" cx="84.33" cy="202.84" rx="2.97" ry="2.93" transform="translate(-127.85 259.72) rotate(-82.43)"/><ellipse class="cls-1" cx="77.61" cy="211.7" rx="2.17" ry="2.13" transform="translate(-142.47 260.74) rotate(-82.43)"/><circle class="cls-1" cx="203.39" cy="27.75" r="0.12" transform="matrix(0.13, -0.99, 0.99, 0.13, 149.09, 225.71)"/><ellipse class="cls-1" cx="196.66" cy="36.61" rx="0.43" ry="0.43" transform="matrix(0.13, -0.99, 0.99, 0.13, 134.47, 226.74)"/><ellipse class="cls-1" cx="189.94" cy="45.47" rx="0.84" ry="0.82" transform="translate(119.85 227.76) rotate(-82.43)"/><ellipse class="cls-1" cx="183.21" cy="54.33" rx="1.39" ry="1.37" transform="translate(105.23 228.79) rotate(-82.43)"/><ellipse class="cls-1" cx="176.49" cy="63.18" rx="2.04" ry="2.01" transform="translate(90.61 229.81) rotate(-82.43)"/><ellipse class="cls-1" cx="169.76" cy="72.04" rx="2.82" ry="2.78" transform="translate(75.99 230.84) rotate(-82.43)"/><ellipse class="cls-1" cx="163.04" cy="80.9" rx="3.68" ry="3.63" transform="translate(61.37 231.86) rotate(-82.43)"/><ellipse class="cls-1" cx="156.32" cy="89.76" rx="4.55" ry="4.48" transform="matrix(0.13, -0.99, 0.99, 0.13, 46.75, 232.89)"/><ellipse class="cls-1" cx="149.59" cy="98.62" rx="5.42" ry="5.34" transform="translate(32.13 233.91) rotate(-82.43)"/><ellipse class="cls-1" cx="142.87" cy="107.47" rx="6.19" ry="6.1" transform="translate(17.51 234.94) rotate(-82.43)"/><ellipse class="cls-1" cx="136.14" cy="116.33" rx="6.87" ry="6.77" transform="translate(2.89 235.97) rotate(-82.43)"/><ellipse class="cls-1" cx="129.42" cy="125.19" rx="7.37" ry="7.26" transform="translate(-11.73 236.99) rotate(-82.43)"/><ellipse class="cls-1" cx="122.7" cy="134.05" rx="7.58" ry="7.47" transform="translate(-26.34 238.02) rotate(-82.43)"/><ellipse class="cls-1" cx="115.97" cy="142.9" rx="7.4" ry="7.29" transform="translate(-40.96 239.04) rotate(-82.43)"/><ellipse class="cls-1" cx="109.25" cy="151.76" rx="6.93" ry="6.83" transform="translate(-55.58 240.07) rotate(-82.43)"/><ellipse class="cls-1" cx="102.52" cy="160.62" rx="6.28" ry="6.19" transform="translate(-70.2 241.09) rotate(-82.43)"/><ellipse class="cls-1" cx="95.8" cy="169.48" rx="5.51" ry="5.43" transform="translate(-84.82 242.12) rotate(-82.43)"/><ellipse class="cls-1" cx="89.07" cy="178.34" rx="4.64" ry="4.57" transform="translate(-99.44 243.14) rotate(-82.43)"/><ellipse class="cls-1" cx="82.35" cy="187.19" rx="3.78" ry="3.72" transform="translate(-114.06 244.17) rotate(-82.43)"/><ellipse class="cls-1" cx="75.63" cy="196.05" rx="2.91" ry="2.87" transform="translate(-128.68 245.2) rotate(-82.43)"/><ellipse class="cls-1" cx="68.9" cy="204.91" rx="2.14" ry="2.1" transform="matrix(0.13, -0.99, 0.99, 0.13, -143.3, 246.22)"/><circle class="cls-1" cx="194.68" cy="20.96" r="0.09" transform="translate(148.25 211.19) rotate(-82.43)"/><ellipse class="cls-1" cx="187.95" cy="29.82" rx="0.37" ry="0.37" transform="translate(133.64 212.21) rotate(-82.43)"/><ellipse class="cls-1" cx="181.23" cy="38.68" rx="0.77" ry="0.76" transform="translate(119.02 213.24) rotate(-82.43)"/><ellipse class="cls-1" cx="174.51" cy="47.54" rx="1.3" ry="1.28" transform="translate(104.4 214.26) rotate(-82.43)"/><ellipse class="cls-1" cx="167.78" cy="56.4" rx="1.92" ry="1.89" transform="matrix(0.13, -0.99, 0.99, 0.13, 89.78, 215.29)"/><ellipse class="cls-1" cx="161.06" cy="65.25" rx="2.63" ry="2.59" transform="translate(75.16 216.31) rotate(-82.43)"/><ellipse class="cls-1" cx="154.33" cy="74.11" rx="3.47" ry="3.42" transform="translate(60.54 217.34) rotate(-82.43)"/><ellipse class="cls-1" cx="147.61" cy="82.97" rx="4.3" ry="4.24" transform="translate(45.92 218.37) rotate(-82.43)"/><ellipse class="cls-1" cx="140.89" cy="91.83" rx="5.11" ry="5.03" transform="translate(31.3 219.39) rotate(-82.43)"/><ellipse class="cls-1" cx="134.16" cy="100.69" rx="5.85" ry="5.76" transform="translate(16.68 220.42) rotate(-82.43)"/><ellipse class="cls-1" cx="127.44" cy="109.54" rx="6.47" ry="6.37" transform="translate(2.06 221.44) rotate(-82.43)"/><ellipse class="cls-1" cx="120.71" cy="118.4" rx="6.87" ry="6.77" transform="translate(-12.56 222.47) rotate(-82.43)"/><ellipse class="cls-1" cx="113.99" cy="127.26" rx="7.06" ry="6.95" transform="translate(-27.18 223.49) rotate(-82.43)"/><ellipse class="cls-1" cx="107.26" cy="136.12" rx="6.9" ry="6.8" transform="matrix(0.13, -0.99, 0.99, 0.13, -41.8, 224.52)"/><ellipse class="cls-1" cx="100.54" cy="144.98" rx="6.53" ry="6.43" transform="translate(-56.42 225.54) rotate(-82.43)"/><ellipse class="cls-1" cx="93.82" cy="153.83" rx="5.94" ry="5.86" transform="translate(-71.03 226.57) rotate(-82.43)"/><ellipse class="cls-1" cx="87.09" cy="162.69" rx="5.2" ry="5.12" transform="translate(-85.65 227.6) rotate(-82.43)"/><ellipse class="cls-1" cx="80.37" cy="171.55" rx="4.4" ry="4.33" transform="translate(-100.27 228.62) rotate(-82.43)"/><ellipse class="cls-1" cx="73.64" cy="180.41" rx="3.56" ry="3.51" transform="translate(-114.89 229.65) rotate(-82.43)"/><ellipse class="cls-1" cx="66.92" cy="189.27" rx="2.72" ry="2.68" transform="translate(-129.51 230.67) rotate(-82.43)"/><ellipse class="cls-1" cx="60.2" cy="198.12" rx="2.01" ry="1.98" transform="matrix(0.13, -0.99, 0.99, 0.13, -144.13, 231.7)"/><circle class="cls-1" cx="185.97" cy="14.18" r="0.06" transform="translate(147.42 196.66) rotate(-82.43)"/><ellipse class="cls-1" cx="179.25" cy="23.04" rx="0.31" ry="0.3" transform="translate(132.8 197.69) rotate(-82.43)"/><ellipse class="cls-1" cx="172.52" cy="31.89" rx="0.68" ry="0.67" transform="translate(118.18 198.71) rotate(-82.43)"/><ellipse class="cls-1" cx="165.8" cy="40.75" rx="1.15" ry="1.13" transform="translate(103.56 199.74) rotate(-82.43)"/><ellipse class="cls-1" cx="159.08" cy="49.61" rx="1.73" ry="1.71" transform="translate(88.95 200.77) rotate(-82.43)"/><ellipse class="cls-1" cx="152.35" cy="58.47" rx="2.38" ry="2.35" transform="translate(74.33 201.79) rotate(-82.43)"/><ellipse class="cls-1" cx="145.63" cy="67.33" rx="3.13" ry="3.08" transform="matrix(0.13, -0.99, 0.99, 0.13, 59.71, 202.82)"/><ellipse class="cls-1" cx="138.9" cy="76.18" rx="3.93" ry="3.87" transform="translate(45.09 203.84) rotate(-82.43)"/><ellipse class="cls-1" cx="132.18" cy="85.04" rx="4.64" ry="4.57" transform="translate(30.47 204.87) rotate(-82.43)"/><ellipse class="cls-1" cx="125.46" cy="93.9" rx="5.32" ry="5.25" transform="translate(15.85 205.89) rotate(-82.43)"/><ellipse class="cls-1" cx="118.73" cy="102.76" rx="5.88" ry="5.79" transform="translate(1.23 206.92) rotate(-82.43)"/><ellipse class="cls-1" cx="112.01" cy="111.62" rx="6.22" ry="6.13" transform="translate(-13.39 207.94) rotate(-82.43)"/><ellipse class="cls-1" cx="105.28" cy="120.47" rx="6.38" ry="6.28" transform="translate(-28.01 208.97) rotate(-82.43)"/><ellipse class="cls-1" cx="98.56" cy="129.33" rx="6.25" ry="6.16" transform="translate(-42.63 210) rotate(-82.43)"/><ellipse class="cls-1" cx="91.83" cy="138.19" rx="5.91" ry="5.82" transform="translate(-57.25 211.02) rotate(-82.43)"/><ellipse class="cls-1" cx="85.11" cy="147.05" rx="5.39" ry="5.31" transform="matrix(0.13, -0.99, 0.99, 0.13, -71.87, 212.05)"/><ellipse class="cls-1" cx="78.39" cy="155.9" rx="4.74" ry="4.67" transform="translate(-86.49 213.07) rotate(-82.43)"/><ellipse class="cls-1" cx="71.66" cy="164.76" rx="3.99" ry="3.93" transform="translate(-101.1 214.1) rotate(-82.43)"/><ellipse class="cls-1" cx="64.94" cy="173.62" rx="3.22" ry="3.17" transform="matrix(0.13, -0.99, 0.99, 0.13, -115.72, 215.12)"/><ellipse class="cls-1" cx="58.21" cy="182.48" rx="2.48" ry="2.44" transform="translate(-130.34 216.15) rotate(-82.43)"/><ellipse class="cls-1" cx="51.49" cy="191.34" rx="1.8" ry="1.77" transform="translate(-144.96 217.18) rotate(-82.43)"/><circle class="cls-1" cx="177.27" cy="7.39" r="0.03" transform="translate(146.59 182.14) rotate(-82.43)"/><circle class="cls-1" cx="170.54" cy="16.25" r="0.22" transform="translate(131.97 183.17) rotate(-82.43)"/><ellipse class="cls-1" cx="163.82" cy="25.11" rx="0.53" ry="0.52" transform="translate(117.35 184.19) rotate(-82.43)"/><ellipse class="cls-1" cx="157.09" cy="33.97" rx="0.96" ry="0.95" transform="matrix(0.13, -0.99, 0.99, 0.13, 102.73, 185.22)"/><ellipse class="cls-1" cx="150.37" cy="42.82" rx="1.49" ry="1.46" transform="translate(88.11 186.24) rotate(-82.43)"/><ellipse class="cls-1" cx="143.65" cy="51.68" rx="2.07" ry="2.04" transform="translate(73.49 187.27) rotate(-82.43)"/><ellipse class="cls-1" cx="136.92" cy="60.54" rx="2.69" ry="2.65" transform="translate(58.88 188.29) rotate(-82.43)"/><ellipse class="cls-1" cx="130.2" cy="69.4" rx="3.4" ry="3.35" transform="matrix(0.13, -0.99, 0.99, 0.13, 44.26, 189.32)"/><ellipse class="cls-1" cx="123.47" cy="78.25" rx="4.09" ry="4.03" transform="translate(29.64 190.34) rotate(-82.43)"/><ellipse class="cls-1" cx="116.75" cy="87.11" rx="4.67" ry="4.6" transform="translate(15.02 191.37) rotate(-82.43)"/><ellipse class="cls-1" cx="110.03" cy="95.97" rx="5.14" ry="5.06" transform="translate(0.4 192.4) rotate(-82.43)"/><ellipse class="cls-1" cx="103.3" cy="104.83" rx="5.45" ry="5.37" transform="translate(-14.22 193.42) rotate(-82.43)"/><ellipse class="cls-1" cx="96.58" cy="113.69" rx="5.57" ry="5.49" transform="translate(-28.84 194.45) rotate(-82.43)"/><ellipse class="cls-1" cx="89.85" cy="122.54" rx="5.48" ry="5.4" transform="translate(-43.46 195.47) rotate(-82.43)"/><ellipse class="cls-1" cx="83.13" cy="131.4" rx="5.17" ry="5.09" transform="translate(-58.08 196.5) rotate(-82.43)"/><ellipse class="cls-1" cx="76.4" cy="140.26" rx="4.74" ry="4.67" transform="translate(-72.7 197.52) rotate(-82.43)"/><ellipse class="cls-1" cx="69.68" cy="149.12" rx="4.15" ry="4.09" transform="translate(-87.32 198.55) rotate(-82.43)"/><ellipse class="cls-1" cx="62.96" cy="157.98" rx="3.47" ry="3.42" transform="translate(-101.94 199.58) rotate(-82.43)"/><ellipse class="cls-1" cx="56.23" cy="166.83" rx="2.79" ry="2.74" transform="translate(-116.56 200.6) rotate(-82.43)"/><ellipse class="cls-1" cx="49.51" cy="175.69" rx="2.14" ry="2.1" transform="translate(-131.17 201.63) rotate(-82.43)"/><circle class="cls-1" cx="161.84" cy="9.46" r="0.12" transform="translate(131.14 168.64) rotate(-82.43)"/><ellipse class="cls-1" cx="155.11" cy="18.32" rx="0.37" ry="0.37" transform="translate(116.52 169.67) rotate(-82.43)"/><ellipse class="cls-1" cx="148.39" cy="27.18" rx="0.74" ry="0.73" transform="translate(101.9 170.69) rotate(-82.43)"/><ellipse class="cls-1" cx="141.66" cy="36.04" rx="1.18" ry="1.16" transform="translate(87.28 171.72) rotate(-82.43)"/><ellipse class="cls-1" cx="134.94" cy="44.89" rx="1.7" ry="1.68" transform="translate(72.66 172.74) rotate(-82.43)"/><ellipse class="cls-1" cx="128.22" cy="53.75" rx="2.26" ry="2.23" transform="translate(58.04 173.77) rotate(-82.43)"/><ellipse class="cls-1" cx="121.49" cy="62.61" rx="2.82" ry="2.78" transform="translate(43.42 174.8) rotate(-82.43)"/><ellipse class="cls-1" cx="114.77" cy="71.47" rx="3.4" ry="3.35" transform="translate(28.81 175.82) rotate(-82.43)"/><ellipse class="cls-1" cx="108.04" cy="80.33" rx="3.93" ry="3.87" transform="translate(14.19 176.85) rotate(-82.43)"/><ellipse class="cls-1" cx="101.32" cy="89.18" rx="4.33" ry="4.27" transform="translate(-0.43 177.87) rotate(-82.43)"/><ellipse class="cls-1" cx="94.59" cy="98.04" rx="4.61" ry="4.54" transform="translate(-15.05 178.9) rotate(-82.43)"/><ellipse class="cls-1" cx="87.87" cy="106.9" rx="4.7" ry="4.64" transform="matrix(0.13, -0.99, 0.99, 0.13, -29.67, 179.92)"/><ellipse class="cls-1" cx="81.15" cy="115.76" rx="4.61" ry="4.54" transform="translate(-44.29 180.95) rotate(-82.43)"/><ellipse class="cls-1" cx="74.42" cy="124.62" rx="4.36" ry="4.3" transform="translate(-58.91 181.98) rotate(-82.43)"/><ellipse class="cls-1" cx="67.7" cy="133.47" rx="3.96" ry="3.9" transform="translate(-73.53 183) rotate(-82.43)"/><ellipse class="cls-1" cx="60.97" cy="142.33" rx="3.47" ry="3.42" transform="translate(-88.15 184.03) rotate(-82.43)"/><ellipse class="cls-1" cx="54.25" cy="151.19" rx="2.91" ry="2.87" transform="translate(-102.77 185.05) rotate(-82.43)"/><ellipse class="cls-1" cx="47.53" cy="160.05" rx="2.32" ry="2.29" transform="translate(-117.39 186.08) rotate(-82.43)"/><ellipse class="cls-1" cx="40.8" cy="168.91" rx="1.76" ry="1.74" transform="translate(-132.01 187.1) rotate(-82.43)"/><circle class="cls-1" cx="153.13" cy="2.68" r="0.06" transform="translate(130.31 154.12) rotate(-82.43)"/><circle class="cls-1" cx="146.41" cy="11.53" r="0.25" transform="translate(115.69 155.14) rotate(-82.43)"/><ellipse class="cls-1" cx="139.68" cy="20.39" rx="0.53" ry="0.52" transform="translate(101.07 156.17) rotate(-82.43)"/><ellipse class="cls-1" cx="132.96" cy="29.25" rx="0.9" ry="0.88" transform="translate(86.45 157.2) rotate(-82.43)"/><ellipse class="cls-1" cx="126.23" cy="38.11" rx="1.3" ry="1.28" transform="matrix(0.13, -0.99, 0.99, 0.13, 71.83, 158.22)"/><ellipse class="cls-1" cx="119.51" cy="46.97" rx="1.76" ry="1.74" transform="translate(57.21 159.25) rotate(-82.43)"/><ellipse class="cls-1" cx="112.79" cy="55.82" rx="2.26" ry="2.23" transform="translate(42.59 160.27) rotate(-82.43)"/><ellipse class="cls-1" cx="106.06" cy="64.68" rx="2.72" ry="2.68" transform="translate(27.97 161.3) rotate(-82.43)"/><ellipse class="cls-1" cx="99.34" cy="73.54" rx="3.16" ry="3.11" transform="translate(13.35 162.32) rotate(-82.43)"/><ellipse class="cls-1" cx="92.61" cy="82.4" rx="3.5" ry="3.45" transform="translate(-1.27 163.35) rotate(-82.43)"/><ellipse class="cls-1" cx="85.89" cy="91.25" rx="3.71" ry="3.66" transform="matrix(0.13, -0.99, 0.99, 0.13, -15.88, 164.38)"/><ellipse class="cls-1" cx="79.16" cy="100.11" rx="3.81" ry="3.75" transform="translate(-30.5 165.4) rotate(-82.43)"/><ellipse class="cls-1" cx="72.44" cy="108.97" rx="3.75" ry="3.69" transform="translate(-45.12 166.43) rotate(-82.43)"/><ellipse class="cls-1" cx="65.72" cy="117.83" rx="3.53" ry="3.48" transform="translate(-59.74 167.45) rotate(-82.43)"/><ellipse class="cls-1" cx="58.99" cy="126.69" rx="3.19" ry="3.14" transform="translate(-74.36 168.48) rotate(-82.43)"/><ellipse class="cls-1" cx="52.27" cy="135.54" rx="2.79" ry="2.74" transform="translate(-88.98 169.5) rotate(-82.43)"/><ellipse class="cls-1" cx="45.54" cy="144.4" rx="2.32" ry="2.29" transform="translate(-103.6 170.53) rotate(-82.43)"/><ellipse class="cls-1" cx="38.82" cy="153.26" rx="1.83" ry="1.8" transform="translate(-118.22 171.55) rotate(-82.43)"/><ellipse class="cls-1" cx="32.1" cy="162.12" rx="1.36" ry="1.34" transform="translate(-132.84 172.58) rotate(-82.43)"/><circle class="cls-1" cx="137.7" cy="4.75" r="0.09" transform="translate(114.86 140.62) rotate(-82.43)"/><ellipse class="cls-1" cx="130.98" cy="13.6" rx="0.31" ry="0.3" transform="translate(100.24 141.65) rotate(-82.43)"/><ellipse class="cls-1" cx="124.25" cy="22.46" rx="0.59" ry="0.58" transform="translate(85.62 142.67) rotate(-82.43)"/><ellipse class="cls-1" cx="117.53" cy="31.32" rx="0.93" ry="0.91" transform="translate(71 143.7) rotate(-82.43)"/><ellipse class="cls-1" cx="110.8" cy="40.18" rx="1.3" ry="1.28" transform="translate(56.38 144.72) rotate(-82.43)"/><ellipse class="cls-1" cx="104.08" cy="49.04" rx="1.7" ry="1.68" transform="translate(41.76 145.75) rotate(-82.43)"/><ellipse class="cls-1" cx="97.35" cy="57.89" rx="2.07" ry="2.04" transform="translate(27.14 146.78) rotate(-82.43)"/><ellipse class="cls-1" cx="90.63" cy="66.75" rx="2.41" ry="2.38" transform="matrix(0.13, -0.99, 0.99, 0.13, 12.52, 147.8)"/><ellipse class="cls-1" cx="83.91" cy="75.61" rx="2.69" ry="2.65" transform="translate(-2.1 148.83) rotate(-82.43)"/><ellipse class="cls-1" cx="77.18" cy="84.47" rx="2.85" ry="2.81" transform="translate(-16.72 149.85) rotate(-82.43)"/><ellipse class="cls-1" cx="70.46" cy="93.33" rx="2.94" ry="2.9" transform="translate(-31.34 150.88) rotate(-82.43)"/><ellipse class="cls-1" cx="63.73" cy="102.18" rx="2.88" ry="2.84" transform="translate(-45.95 151.9) rotate(-82.43)"/><ellipse class="cls-1" cx="57.01" cy="111.04" rx="2.69" ry="2.65" transform="translate(-60.57 152.93) rotate(-82.43)"/><ellipse class="cls-1" cx="50.29" cy="119.9" rx="2.45" ry="2.41" transform="translate(-75.19 153.95) rotate(-82.43)"/><ellipse class="cls-1" cx="43.56" cy="128.76" rx="2.1" ry="2.07" transform="translate(-89.81 154.98) rotate(-82.43)"/><ellipse class="cls-1" cx="36.84" cy="137.62" rx="1.76" ry="1.74" transform="translate(-104.43 156.01) rotate(-82.43)"/><ellipse class="cls-1" cx="30.11" cy="146.47" rx="1.36" ry="1.34" transform="translate(-119.05 157.03) rotate(-82.43)"/><ellipse class="cls-1" cx="23.39" cy="155.33" rx="0.99" ry="0.98" transform="translate(-133.67 158.06) rotate(-82.43)"/><circle class="cls-1" cx="122.27" cy="6.82" r="0.15" transform="translate(99.41 127.12) rotate(-82.43)"/><ellipse class="cls-1" cx="115.55" cy="15.68" rx="0.34" ry="0.34" transform="translate(84.79 128.15) rotate(-82.43)"/><ellipse class="cls-1" cx="108.82" cy="24.53" rx="0.59" ry="0.58" transform="translate(70.17 129.18) rotate(-82.43)"/><ellipse class="cls-1" cx="102.1" cy="33.39" rx="0.9" ry="0.88" transform="translate(55.55 130.2) rotate(-82.43)"/><ellipse class="cls-1" cx="95.37" cy="42.25" rx="1.21" ry="1.19" transform="translate(40.93 131.23) rotate(-82.43)"/><ellipse class="cls-1" cx="88.65" cy="51.11" rx="1.49" ry="1.46" transform="translate(26.31 132.25) rotate(-82.43)"/><ellipse class="cls-1" cx="81.92" cy="59.97" rx="1.76" ry="1.74" transform="translate(11.69 133.28) rotate(-82.43)"/><ellipse class="cls-1" cx="75.2" cy="68.82" rx="1.98" ry="1.95" transform="translate(-2.93 134.3) rotate(-82.43)"/><ellipse class="cls-1" cx="68.48" cy="77.68" rx="2.1" ry="2.07" transform="translate(-17.55 135.33) rotate(-82.43)"/><ellipse class="cls-1" cx="61.75" cy="86.54" rx="2.14" ry="2.1" transform="translate(-32.17 136.35) rotate(-82.43)"/><ellipse class="cls-1" cx="55.03" cy="95.4" rx="2.1" ry="2.07" transform="translate(-46.79 137.38) rotate(-82.43)"/><ellipse class="cls-1" cx="48.3" cy="104.26" rx="1.98" ry="1.95" transform="translate(-61.41 138.41) rotate(-82.43)"/><ellipse class="cls-1" cx="41.58" cy="113.11" rx="1.76" ry="1.74" transform="matrix(0.13, -0.99, 0.99, 0.13, -76.02, 139.43)"/><ellipse class="cls-1" cx="34.86" cy="121.97" rx="1.52" ry="1.49" transform="translate(-90.64 140.46) rotate(-82.43)"/><ellipse class="cls-1" cx="28.13" cy="130.83" rx="1.24" ry="1.22" transform="translate(-105.26 141.48) rotate(-82.43)"/><ellipse class="cls-1" cx="21.41" cy="139.69" rx="0.93" ry="0.91" transform="translate(-119.88 142.51) rotate(-82.43)"/><circle class="cls-1" cx="113.56" cy="0.03" r="0.03" transform="translate(98.57 112.6) rotate(-82.43)"/><circle class="cls-1" cx="106.84" cy="8.89" r="0.12" transform="translate(83.96 113.63) rotate(-82.43)"/><ellipse class="cls-1" cx="100.11" cy="17.75" rx="0.31" ry="0.3" transform="translate(69.34 114.65) rotate(-82.43)"/><ellipse class="cls-1" cx="93.39" cy="26.6" rx="0.53" ry="0.52" transform="translate(54.72 115.68) rotate(-82.43)"/><ellipse class="cls-1" cx="86.67" cy="35.46" rx="0.74" ry="0.73" transform="translate(40.1 116.7) rotate(-82.43)"/><ellipse class="cls-1" cx="79.94" cy="44.32" rx="0.96" ry="0.95" transform="translate(25.48 117.73) rotate(-82.43)"/><ellipse class="cls-1" cx="73.22" cy="53.18" rx="1.18" ry="1.16" transform="translate(10.86 118.75) rotate(-82.43)"/><ellipse class="cls-1" cx="66.49" cy="62.04" rx="1.33" ry="1.31" transform="translate(-3.76 119.78) rotate(-82.43)"/><ellipse class="cls-1" cx="59.77" cy="70.89" rx="1.42" ry="1.4" transform="matrix(0.13, -0.99, 0.99, 0.13, -18.38, 120.81)"/><ellipse class="cls-1" cx="53.05" cy="79.75" rx="1.49" ry="1.46" transform="translate(-33 121.83) rotate(-82.43)"/><ellipse class="cls-1" cx="46.32" cy="88.61" rx="1.45" ry="1.43" transform="translate(-47.62 122.86) rotate(-82.43)"/><ellipse class="cls-1" cx="39.6" cy="97.47" rx="1.36" ry="1.34" transform="translate(-62.24 123.88) rotate(-82.43)"/><ellipse class="cls-1" cx="32.87" cy="106.33" rx="1.18" ry="1.16" transform="translate(-76.86 124.91) rotate(-82.43)"/><ellipse class="cls-1" cx="26.15" cy="115.18" rx="0.99" ry="0.98" transform="translate(-91.48 125.93) rotate(-82.43)"/><ellipse class="cls-1" cx="19.42" cy="124.04" rx="0.77" ry="0.76" transform="translate(-106.09 126.96) rotate(-82.43)"/><ellipse class="cls-1" cx="12.7" cy="132.9" rx="0.56" ry="0.55" transform="translate(-120.71 127.98) rotate(-82.43)"/><circle class="cls-1" cx="98.13" cy="2.1" r="0.03" transform="translate(83.12 99.1) rotate(-82.43)"/><circle class="cls-1" cx="91.41" cy="10.96" r="0.09" transform="translate(68.5 100.13) rotate(-82.43)"/><circle class="cls-1" cx="84.68" cy="19.82" r="0.25" transform="translate(53.88 101.15) rotate(-82.43)"/><ellipse class="cls-1" cx="77.96" cy="28.68" rx="0.4" ry="0.4" transform="translate(39.27 102.18) rotate(-82.43)"/><ellipse class="cls-1" cx="71.24" cy="37.53" rx="0.56" ry="0.55" transform="translate(24.65 103.21) rotate(-82.43)"/><ellipse class="cls-1" cx="64.51" cy="46.39" rx="0.68" ry="0.67" transform="matrix(0.13, -0.99, 0.99, 0.13, 10.03, 104.23)"/><ellipse class="cls-1" cx="57.79" cy="55.25" rx="0.8" ry="0.79" transform="translate(-4.59 105.26) rotate(-82.43)"/><ellipse class="cls-1" cx="51.06" cy="64.11" rx="0.9" ry="0.88" transform="matrix(0.13, -0.99, 0.99, 0.13, -19.21, 106.28)"/><ellipse class="cls-1" cx="44.34" cy="72.97" rx="0.9" ry="0.88" transform="translate(-33.83 107.31) rotate(-82.43)"/><ellipse class="cls-1" cx="37.62" cy="81.82" rx="0.9" ry="0.88" transform="translate(-48.45 108.33) rotate(-82.43)"/><ellipse class="cls-1" cx="30.89" cy="90.68" rx="0.8" ry="0.79" transform="translate(-63.07 109.36) rotate(-82.43)"/><ellipse class="cls-1" cx="24.17" cy="99.54" rx="0.71" ry="0.7" transform="translate(-77.69 110.38) rotate(-82.43)"/><ellipse class="cls-1" cx="17.44" cy="108.4" rx="0.56" ry="0.55" transform="translate(-92.31 111.41) rotate(-82.43)"/><ellipse class="cls-1" cx="10.72" cy="117.26" rx="0.4" ry="0.4" transform="translate(-106.93 112.44) rotate(-82.43)"/><circle class="cls-1" cx="69.25" cy="21.89" r="0.12" transform="translate(38.43 87.66) rotate(-82.43)"/><circle class="cls-1" cx="62.53" cy="30.75" r="0.22" transform="translate(23.81 88.68) rotate(-82.43)"/><ellipse class="cls-1" cx="55.81" cy="39.6" rx="0.31" ry="0.3" transform="matrix(0.13, -0.99, 0.99, 0.13, 9.2, 89.71)"/><ellipse class="cls-1" cx="49.08" cy="48.46" rx="0.4" ry="0.4" transform="matrix(0.13, -0.99, 0.99, 0.13, -5.42, 90.73)"/><ellipse class="cls-1" cx="42.36" cy="57.32" rx="0.46" ry="0.46" transform="translate(-20.04 91.76) rotate(-82.43)"/><ellipse class="cls-1" cx="35.63" cy="66.18" rx="0.46" ry="0.46" transform="translate(-34.66 92.78) rotate(-82.43)"/><ellipse class="cls-1" cx="28.91" cy="75.04" rx="0.46" ry="0.46" transform="matrix(0.13, -0.99, 0.99, 0.13, -49.28, 93.81)"/><ellipse class="cls-1" cx="22.19" cy="83.89" rx="0.4" ry="0.4" transform="translate(-63.9 94.84) rotate(-82.43)"/><ellipse class="cls-1" cx="15.46" cy="92.75" rx="0.34" ry="0.34" transform="translate(-78.52 95.86) rotate(-82.43)"/><circle class="cls-1" cx="8.74" cy="101.61" r="0.25" transform="translate(-93.14 96.89) rotate(-82.43)"/><circle class="cls-1" cx="33.65" cy="50.53" r="0.15" transform="translate(-20.87 77.24) rotate(-82.43)"/><circle class="cls-1" cx="26.93" cy="59.39" r="0.15" transform="translate(-35.49 78.26) rotate(-82.43)"/><circle class="cls-1" cx="20.2" cy="68.25" r="0.15" transform="translate(-50.11 79.29) rotate(-82.43)"/><circle class="cls-1" cx="13.48" cy="77.11" r="0.12" transform="translate(-64.73 80.31) rotate(-82.43)"/><circle class="cls-1" cx="6.75" cy="85.97" r="0.09" transform="matrix(0.13, -0.99, 0.99, 0.13, -79.35, 81.34)"/><circle class="cls-1" cx="0.03" cy="94.82" r="0.03" transform="translate(-93.97 82.36) rotate(-82.43)"/></g></g></svg>