<svg xmlns="http://www.w3.org/2000/svg" viewBox="0 0 282.5 282.85"><defs><style>.cls-1{fill:#1a1a1a;}</style></defs><title>Asset 147mdpi</title><g id="Layer_2" data-name="Layer 2"><g id="Layer_1-2" data-name="Layer 1"><path class="cls-1" d="M137.59,139.91a2.29,2.29,0,1,0-2.29-2.29A2.29,2.29,0,0,0,137.59,139.91Z"/><path class="cls-1" d="M145.68,139.91a2.29,2.29,0,1,0-2.29-2.29A2.29,2.29,0,0,0,145.68,139.91Z"/><path class="cls-1" d="M142.63,146.24a2.29,2.29,0,1,0-2.29-2.29A2.29,2.29,0,0,0,142.63,146.24Z"/><path class="cls-1" d="M135.79,147.8a2.29,2.29,0,1,0-2.29-2.29A2.3,2.3,0,0,0,135.79,147.8Z"/><path class="cls-1" d="M130.3,143.42a2.29,2.29,0,1,0-2.29-2.29A2.29,2.29,0,0,0,130.3,143.42Z"/><path class="cls-1" d="M130.3,136.4a2.29,2.29,0,1,0-2.29-2.29A2.29,2.29,0,0,0,130.3,136.4Z"/><path class="cls-1" d="M135.79,132a2.29,2.29,0,1,0-2.29-2.28A2.29,2.29,0,0,0,135.79,132Z"/><circle class="cls-1" cx="142.63" cy="131.3" r="2.29"/><path class="cls-1" d="M153.77,139.87a2.25,2.25,0,1,0-2.25-2.25A2.24,2.24,0,0,0,153.77,139.87Z"/><path class="cls-1" d="M152.16,146.89a2.25,2.25,0,1,0-2.24-2.25A2.25,2.25,0,0,0,152.16,146.89Z"/><path class="cls-1" d="M147.68,152.52a2.25,2.25,0,1,0-2.25-2.25A2.25,2.25,0,0,0,147.68,152.52Z"/><path class="cls-1" d="M141.19,155.64a2.25,2.25,0,1,0-2.25-2.24A2.24,2.24,0,0,0,141.19,155.64Z"/><path class="cls-1" d="M134,155.64a2.25,2.25,0,1,0-2.25-2.24A2.24,2.24,0,0,0,134,155.64Z"/><path class="cls-1" d="M127.5,152.52a2.25,2.25,0,1,0-2.24-2.25A2.24,2.24,0,0,0,127.5,152.52Z"/><path class="cls-1" d="M123,146.89a2.25,2.25,0,1,0-2.24-2.25A2.24,2.24,0,0,0,123,146.89Z"/><path class="cls-1" d="M121.41,139.87a2.25,2.25,0,1,0-2.24-2.25A2.24,2.24,0,0,0,121.41,139.87Z"/><path class="cls-1" d="M123,132.85a2.25,2.25,0,1,0-2.24-2.25A2.24,2.24,0,0,0,123,132.85Z"/><path class="cls-1" d="M127.5,127.22a2.25,2.25,0,1,0-2.24-2.25A2.24,2.24,0,0,0,127.5,127.22Z"/><circle class="cls-1" cx="133.99" cy="121.85" r="2.24"/><path class="cls-1" d="M141.19,124.09a2.24,2.24,0,1,0-2.25-2.24A2.24,2.24,0,0,0,141.19,124.09Z"/><path class="cls-1" d="M147.68,127.22a2.25,2.25,0,1,0-2.25-2.25A2.25,2.25,0,0,0,147.68,127.22Z"/><path class="cls-1" d="M152.16,132.85a2.25,2.25,0,1,0-2.24-2.25A2.25,2.25,0,0,0,152.16,132.85Z"/><path class="cls-1" d="M161.86,139.73a2.11,2.11,0,1,0-2.11-2.11A2.1,2.1,0,0,0,161.86,139.73Z"/><path class="cls-1" d="M160.78,146.89a2.11,2.11,0,1,0-2.11-2.11A2.12,2.12,0,0,0,160.78,146.89Z"/><path class="cls-1" d="M157.64,153.4a2.11,2.11,0,1,0-2.11-2.11A2.11,2.11,0,0,0,157.64,153.4Z"/><path class="cls-1" d="M152.72,158.71a2.11,2.11,0,1,0-2.11-2.11A2.12,2.12,0,0,0,152.72,158.71Z"/><path class="cls-1" d="M146.45,162.32a2.11,2.11,0,1,0-2.1-2.11A2.1,2.1,0,0,0,146.45,162.32Z"/><path class="cls-1" d="M139.4,163.93a2.11,2.11,0,1,0-2.11-2.11A2.1,2.1,0,0,0,139.4,163.93Z"/><path class="cls-1" d="M132.19,163.39a2.11,2.11,0,1,0-2.11-2.11A2.11,2.11,0,0,0,132.19,163.39Z"/><path class="cls-1" d="M125.45,160.75a2.11,2.11,0,1,0-2.11-2.11A2.1,2.1,0,0,0,125.45,160.75Z"/><path class="cls-1" d="M119.8,156.24a2.11,2.11,0,1,0-2.11-2.11A2.11,2.11,0,0,0,119.8,156.24Z"/><path class="cls-1" d="M115.72,150.26a2.11,2.11,0,1,0-2.11-2.11A2.1,2.1,0,0,0,115.72,150.26Z"/><path class="cls-1" d="M113.59,143.35a2.11,2.11,0,1,0-2.11-2.11A2.11,2.11,0,0,0,113.59,143.35Z"/><path class="cls-1" d="M113.59,136.12a2.11,2.11,0,1,0-2.11-2.11A2.12,2.12,0,0,0,113.59,136.12Z"/><path class="cls-1" d="M115.72,129.2a2.11,2.11,0,1,0-2.11-2.11A2.1,2.1,0,0,0,115.72,129.2Z"/><path class="cls-1" d="M119.8,123.2a2.09,2.09,0,1,0-2.09-2.08A2.08,2.08,0,0,0,119.8,123.2Z"/><path class="cls-1" d="M125.45,118.71a2.11,2.11,0,1,0-2.11-2.1A2.1,2.1,0,0,0,125.45,118.71Z"/><path class="cls-1" d="M132.19,116.07a2.11,2.11,0,1,0-2.11-2.11A2.11,2.11,0,0,0,132.19,116.07Z"/><path class="cls-1" d="M139.4,115.53a2.11,2.11,0,1,0-2.11-2.11A2.1,2.1,0,0,0,139.4,115.53Z"/><path class="cls-1" d="M146.45,117.14a2.11,2.11,0,1,0-2.1-2.11A2.1,2.1,0,0,0,146.45,117.14Z"/><path class="cls-1" d="M152.72,120.76a2.11,2.11,0,1,0-2.11-2.11A2.12,2.12,0,0,0,152.72,120.76Z"/><path class="cls-1" d="M157.64,126.06a2.11,2.11,0,1,0-2.11-2.11A2.11,2.11,0,0,0,157.64,126.06Z"/><path class="cls-1" d="M160.78,132.58a2.11,2.11,0,1,0-2.11-2.11A2.12,2.12,0,0,0,160.78,132.58Z"/><path class="cls-1" d="M170,139.6a2,2,0,1,0-2-2A2,2,0,0,0,170,139.6Z"/><path class="cls-1" d="M169.13,146.8a2,2,0,1,0-2-2A2,2,0,0,0,169.13,146.8Z"/><path class="cls-1" d="M166.74,153.64a2,2,0,1,0-2-2A2,2,0,0,0,166.74,153.64Z"/><path class="cls-1" d="M162.89,159.77a2,2,0,1,0-2-2A2,2,0,0,0,162.89,159.77Z"/><path class="cls-1" d="M157.76,164.9a2,2,0,1,0-2-2A2,2,0,0,0,157.76,164.9Z"/><path class="cls-1" d="M151.63,168.75a2,2,0,1,0-2-2A2,2,0,0,0,151.63,168.75Z"/><path class="cls-1" d="M144.79,171.14a2,2,0,1,0-2-2A2,2,0,0,0,144.79,171.14Z"/><path class="cls-1" d="M137.59,172a2,2,0,1,0-2-2A2,2,0,0,0,137.59,172Z"/><path class="cls-1" d="M130.39,171.14a2,2,0,1,0-2-2A2,2,0,0,0,130.39,171.14Z"/><path class="cls-1" d="M123.55,168.75a2,2,0,1,0-2-2A2,2,0,0,0,123.55,168.75Z"/><path class="cls-1" d="M117.41,164.9a2,2,0,1,0-2-2A2,2,0,0,0,117.41,164.9Z"/><path class="cls-1" d="M112.29,159.77a2,2,0,1,0-2-2A2,2,0,0,0,112.29,159.77Z"/><circle class="cls-1" cx="108.43" cy="151.66" r="1.95"/><circle class="cls-1" cx="106.04" cy="144.82" r="1.95"/><path class="cls-1" d="M105.23,139.58a2,2,0,1,0-2-2A2,2,0,0,0,105.23,139.58Z"/><circle class="cls-1" cx="106.04" cy="130.42" r="1.95"/><circle class="cls-1" cx="108.43" cy="123.58" r="1.95"/><circle class="cls-1" cx="112.29" cy="117.45" r="1.95"/><circle class="cls-1" cx="117.41" cy="112.32" r="1.95"/><circle class="cls-1" cx="123.55" cy="108.47" r="1.95"/><path class="cls-1" d="M130.39,108a2,2,0,1,0-1.95-2A2,2,0,0,0,130.39,108Z"/><path class="cls-1" d="M137.59,107.22a2,2,0,1,0-2-2A2,2,0,0,0,137.59,107.22Z"/><path class="cls-1" d="M144.79,108a2,2,0,1,0-1.95-2A2,2,0,0,0,144.79,108Z"/><path class="cls-1" d="M151.63,110.42a2,2,0,1,0-1.95-2A1.95,1.95,0,0,0,151.63,110.42Z"/><circle class="cls-1" cx="157.76" cy="112.32" r="1.97"/><path class="cls-1" d="M162.89,119.42a2,2,0,1,0-2-2A2,2,0,0,0,162.89,119.42Z"/><path class="cls-1" d="M166.74,125.56a2,2,0,1,0-2-2A2,2,0,0,0,166.74,125.56Z"/><path class="cls-1" d="M169.13,132.4a2,2,0,1,0-2-2A2,2,0,0,0,169.13,132.4Z"/><path class="cls-1" d="M178,139.46a1.84,1.84,0,1,0-1.84-1.84A1.83,1.83,0,0,0,178,139.46Z"/><circle class="cls-1" cx="177.39" cy="144.85" r="1.84"/><path class="cls-1" d="M175.46,153.68a1.84,1.84,0,1,0-1.84-1.84A1.85,1.85,0,0,0,175.46,153.68Z"/><path class="cls-1" d="M172.31,160.21a1.84,1.84,0,1,0-1.84-1.84A1.84,1.84,0,0,0,172.31,160.21Z"/><path class="cls-1" d="M168.05,166.08a1.84,1.84,0,1,0-1.84-1.84A1.85,1.85,0,0,0,168.05,166.08Z"/><path class="cls-1" d="M162.81,171.09a1.84,1.84,0,1,0-1.84-1.84A1.85,1.85,0,0,0,162.81,171.09Z"/><circle class="cls-1" cx="156.75" cy="173.24" r="1.84"/><path class="cls-1" d="M150.09,177.93a1.84,1.84,0,1,0-1.84-1.84A1.84,1.84,0,0,0,150.09,177.93Z"/><path class="cls-1" d="M143,179.55a1.84,1.84,0,1,0-1.84-1.84A1.85,1.85,0,0,0,143,179.55Z"/><path class="cls-1" d="M135.77,179.87a1.84,1.84,0,1,0-1.84-1.84A1.84,1.84,0,0,0,135.77,179.87Z"/><circle class="cls-1" cx="128.59" cy="177.06" r="1.84"/><circle class="cls-1" cx="121.69" cy="174.82" r="1.84"/><path class="cls-1" d="M115.3,173.2a1.82,1.82,0,1,0-1.81-1.82A1.82,1.82,0,0,0,115.3,173.2Z"/><path class="cls-1" d="M109.64,168.68a1.82,1.82,0,1,0-1.82-1.82A1.82,1.82,0,0,0,109.64,168.68Z"/><circle class="cls-1" cx="104.86" cy="161.4" r="1.82"/><circle class="cls-1" cx="101.15" cy="155.17" r="1.82"/><path class="cls-1" d="M98.6,150.2a1.82,1.82,0,1,0-1.82-1.82A1.81,1.81,0,0,0,98.6,150.2Z"/><path class="cls-1" d="M97.3,143.07a1.82,1.82,0,1,0-1.81-1.82A1.82,1.82,0,0,0,97.3,143.07Z"/><path class="cls-1" d="M97.3,135.81A1.82,1.82,0,1,0,95.49,134,1.81,1.81,0,0,0,97.3,135.81Z"/><circle class="cls-1" cx="98.6" cy="126.86" r="1.82"/><circle class="cls-1" cx="101.15" cy="120.07" r="1.82"/><path class="cls-1" d="M104.86,115.67a1.82,1.82,0,1,0-1.81-1.82A1.82,1.82,0,0,0,104.86,115.67Z"/><path class="cls-1" d="M109.64,110.2a1.82,1.82,0,1,0-1.82-1.81A1.81,1.81,0,0,0,109.64,110.2Z"/><path class="cls-1" d="M115.3,105.68a1.82,1.82,0,1,0-1.81-1.81A1.81,1.81,0,0,0,115.3,105.68Z"/><circle class="cls-1" cx="121.69" cy="100.43" r="1.82"/><circle class="cls-1" cx="128.59" cy="98.19" r="1.82"/><path class="cls-1" d="M135.77,99A1.82,1.82,0,1,0,134,97.22,1.81,1.81,0,0,0,135.77,99Z"/><path class="cls-1" d="M143,99.36a1.82,1.82,0,1,0-1.82-1.82A1.81,1.81,0,0,0,143,99.36Z"/><circle class="cls-1" cx="150.09" cy="99.16" r="1.82"/><circle class="cls-1" cx="156.75" cy="102.01" r="1.82"/><path class="cls-1" d="M162.81,107.82A1.82,1.82,0,1,0,161,106,1.82,1.82,0,0,0,162.81,107.82Z"/><circle class="cls-1" cx="168.05" cy="111.01" r="1.82"/><path class="cls-1" d="M172.31,118.69a1.82,1.82,0,1,0-1.82-1.81A1.82,1.82,0,0,0,172.31,118.69Z"/><path class="cls-1" d="M175.46,125.25a1.84,1.84,0,1,0-1.84-1.84A1.84,1.84,0,0,0,175.46,125.25Z"/><path class="cls-1" d="M177.39,132.24a1.84,1.84,0,1,0-1.84-1.84A1.84,1.84,0,0,0,177.39,132.24Z"/><path class="cls-1" d="M186.13,139.31a1.69,1.69,0,1,0-1.69-1.69A1.69,1.69,0,0,0,186.13,139.31Z"/><path class="cls-1" d="M185.58,146.54a1.68,1.68,0,1,0-1.68-1.68A1.69,1.69,0,0,0,185.58,146.54Z"/><circle class="cls-1" cx="183.97" cy="151.93" r="1.68"/><circle class="cls-1" cx="181.32" cy="158.68" r="1.68"/><path class="cls-1" d="M177.69,166.65A1.69,1.69,0,1,0,176,165,1.68,1.68,0,0,0,177.69,166.65Z"/><circle class="cls-1" cx="173.17" cy="170.64" r="1.7"/><circle class="cls-1" cx="167.85" cy="175.57" r="1.68"/><path class="cls-1" d="M161.86,181.34a1.68,1.68,0,1,0-1.69-1.68A1.68,1.68,0,0,0,161.86,181.34Z"/><circle class="cls-1" cx="155.32" cy="182.81" r="1.68"/><path class="cls-1" d="M148.39,186.63a1.69,1.69,0,1,0-1.68-1.69A1.69,1.69,0,0,0,148.39,186.63Z"/><path class="cls-1" d="M141.21,187.71a1.69,1.69,0,1,0-1.68-1.68A1.69,1.69,0,0,0,141.21,187.71Z"/><circle class="cls-1" cx="133.96" cy="186.03" r="1.68"/><circle class="cls-1" cx="126.79" cy="184.94" r="1.68"/><circle class="cls-1" cx="119.85" cy="182.81" r="1.68"/><path class="cls-1" d="M113.32,181.34a1.68,1.68,0,1,0-1.68-1.68A1.68,1.68,0,0,0,113.32,181.34Z"/><circle class="cls-1" cx="107.32" cy="175.57" r="1.68"/><circle class="cls-1" cx="102.01" cy="170.64" r="1.68"/><circle class="cls-1" cx="97.48" cy="164.97" r="1.68"/><circle class="cls-1" cx="93.86" cy="158.68" r="1.68"/><circle class="cls-1" cx="91.21" cy="151.93" r="1.68"/><circle class="cls-1" cx="89.59" cy="144.86" r="1.68"/><path class="cls-1" d="M89.05,139.31a1.69,1.69,0,1,0-1.68-1.69A1.69,1.69,0,0,0,89.05,139.31Z"/><circle class="cls-1" cx="89.59" cy="130.39" r="1.68"/><circle class="cls-1" cx="91.21" cy="123.32" r="1.68"/><circle class="cls-1" cx="93.86" cy="116.56" r="1.68"/><circle class="cls-1" cx="97.48" cy="110.28" r="1.68"/><circle class="cls-1" cx="102.01" cy="104.61" r="1.68"/><circle class="cls-1" cx="107.32" cy="99.68" r="1.68"/><path class="cls-1" d="M113.32,97.27a1.68,1.68,0,1,0-1.68-1.68A1.68,1.68,0,0,0,113.32,97.27Z"/><circle class="cls-1" cx="119.85" cy="92.44" r="1.68"/><circle class="cls-1" cx="126.79" cy="90.3" r="1.68"/><circle class="cls-1" cx="133.96" cy="89.22" r="1.68"/><path class="cls-1" d="M141.21,90.9a1.68,1.68,0,1,0-1.68-1.68A1.69,1.69,0,0,0,141.21,90.9Z"/><path class="cls-1" d="M148.39,92a1.69,1.69,0,1,0-1.68-1.69A1.69,1.69,0,0,0,148.39,92Z"/><circle class="cls-1" cx="155.32" cy="92.44" r="1.68"/><path class="cls-1" d="M161.86,97.27a1.68,1.68,0,1,0-1.69-1.68A1.68,1.68,0,0,0,161.86,97.27Z"/><circle class="cls-1" cx="167.85" cy="99.68" r="1.68"/><circle class="cls-1" cx="173.17" cy="104.61" r="1.68"/><path class="cls-1" d="M177.69,112a1.68,1.68,0,1,0-1.68-1.68A1.68,1.68,0,0,0,177.69,112Z"/><circle class="cls-1" cx="181.32" cy="116.56" r="1.68"/><circle class="cls-1" cx="183.97" cy="123.32" r="1.68"/><path class="cls-1" d="M185.58,132.07a1.68,1.68,0,1,0-1.68-1.68A1.69,1.69,0,0,0,185.58,132.07Z"/><path class="cls-1" d="M194.21,139.17a1.55,1.55,0,1,0-1.54-1.55A1.54,1.54,0,0,0,194.21,139.17Z"/><circle class="cls-1" cx="193.75" cy="144.86" r="1.55"/><circle class="cls-1" cx="192.36" cy="151.99" r="1.55"/><path class="cls-1" d="M190.08,160.42a1.55,1.55,0,1,0-1.55-1.55A1.54,1.54,0,0,0,190.08,160.42Z"/><path class="cls-1" d="M186.93,167a1.55,1.55,0,1,0-1.55-1.55A1.55,1.55,0,0,0,186.93,167Z"/><path class="cls-1" d="M183,173a1.55,1.55,0,1,0-1.55-1.55A1.55,1.55,0,0,0,183,173Z"/><path class="cls-1" d="M178.27,178.57a1.55,1.55,0,1,0-1.55-1.55A1.55,1.55,0,0,0,178.27,178.57Z"/><circle class="cls-1" cx="172.89" cy="181.9" r="1.55"/><path class="cls-1" d="M166.94,187.6a1.55,1.55,0,1,0-1.55-1.55A1.55,1.55,0,0,0,166.94,187.6Z"/><circle class="cls-1" cx="160.51" cy="189.4" r="1.55"/><path class="cls-1" d="M153.7,193.46a1.55,1.55,0,1,0-1.55-1.55A1.55,1.55,0,0,0,153.7,193.46Z"/><circle class="cls-1" cx="146.63" cy="193.53" r="1.55"/><path class="cls-1" d="M139.4,195.77a1.55,1.55,0,1,0-1.55-1.55A1.54,1.54,0,0,0,139.4,195.77Z"/><path class="cls-1" d="M132.15,195.54A1.55,1.55,0,1,0,130.6,194,1.56,1.56,0,0,0,132.15,195.54Z"/><path class="cls-1" d="M125,194.38a1.55,1.55,0,1,0-1.55-1.55A1.54,1.54,0,0,0,125,194.38Z"/><path class="cls-1" d="M118,192.31a1.55,1.55,0,1,0-1.55-1.54A1.54,1.54,0,0,0,118,192.31Z"/><circle class="cls-1" cx="111.4" cy="187.83" r="1.55"/><path class="cls-1" d="M105.19,185.62a1.55,1.55,0,1,0-1.55-1.55A1.56,1.56,0,0,0,105.19,185.62Z"/><circle class="cls-1" cx="99.52" cy="179.54" r="1.55"/><circle class="cls-1" cx="94.47" cy="174.33" r="1.55"/><circle class="cls-1" cx="90.13" cy="168.52" r="1.55"/><circle class="cls-1" cx="86.57" cy="162.19" r="1.55"/><path class="cls-1" d="M83.84,157a1.55,1.55,0,1,0-1.54-1.55A1.55,1.55,0,0,0,83.84,157Z"/><circle class="cls-1" cx="82" cy="148.45" r="1.55"/><circle class="cls-1" cx="81.08" cy="141.25" r="1.55"/><circle class="cls-1" cx="81.08" cy="134" r="1.53"/><path class="cls-1" d="M82,128.32a1.53,1.53,0,1,0-1.52-1.52A1.52,1.52,0,0,0,82,128.32Z"/><path class="cls-1" d="M83.84,121.31a1.53,1.53,0,1,0-1.52-1.53A1.53,1.53,0,0,0,83.84,121.31Z"/><path class="cls-1" d="M86.57,114.58A1.53,1.53,0,1,0,85,113.05,1.52,1.52,0,0,0,86.57,114.58Z"/><path class="cls-1" d="M90.13,108.26a1.53,1.53,0,1,0-1.53-1.53A1.53,1.53,0,0,0,90.13,108.26Z"/><path class="cls-1" d="M94.47,102.44a1.53,1.53,0,1,0-1.53-1.52A1.52,1.52,0,0,0,94.47,102.44Z"/><path class="cls-1" d="M99.52,97.23A1.53,1.53,0,1,0,98,95.7,1.52,1.52,0,0,0,99.52,97.23Z"/><path class="cls-1" d="M105.19,92.7a1.53,1.53,0,1,0-1.53-1.52A1.53,1.53,0,0,0,105.19,92.7Z"/><circle class="cls-1" cx="111.4" cy="87.42" r="1.53"/><path class="cls-1" d="M118,86a1.53,1.53,0,1,0-1.53-1.53A1.54,1.54,0,0,0,118,86Z"/><path class="cls-1" d="M125,83.94a1.53,1.53,0,1,0-1.53-1.52A1.52,1.52,0,0,0,125,83.94Z"/><path class="cls-1" d="M132.15,82.78a1.53,1.53,0,1,0-1.53-1.52A1.53,1.53,0,0,0,132.15,82.78Z"/><path class="cls-1" d="M139.4,82.55A1.53,1.53,0,1,0,137.88,81,1.52,1.52,0,0,0,139.4,82.55Z"/><path class="cls-1" d="M146.63,83.25a1.53,1.53,0,1,0-1.53-1.53A1.53,1.53,0,0,0,146.63,83.25Z"/><path class="cls-1" d="M153.7,84.88a1.55,1.55,0,1,0-1.55-1.54A1.55,1.55,0,0,0,153.7,84.88Z"/><circle class="cls-1" cx="160.51" cy="85.84" r="1.55"/><path class="cls-1" d="M166.94,90.75a1.55,1.55,0,1,0-1.55-1.55A1.55,1.55,0,0,0,166.94,90.75Z"/><circle class="cls-1" cx="172.89" cy="93.35" r="1.55"/><path class="cls-1" d="M178.27,99.78a1.55,1.55,0,1,0-1.55-1.55A1.55,1.55,0,0,0,178.27,99.78Z"/><path class="cls-1" d="M183,105.3a1.55,1.55,0,1,0-1.55-1.55A1.55,1.55,0,0,0,183,105.3Z"/><path class="cls-1" d="M186.93,111.38a1.55,1.55,0,1,0-1.55-1.54A1.55,1.55,0,0,0,186.93,111.38Z"/><path class="cls-1" d="M190.08,117.92a1.55,1.55,0,1,0-1.55-1.55A1.54,1.54,0,0,0,190.08,117.92Z"/><circle class="cls-1" cx="192.36" cy="123.26" r="1.55"/><circle class="cls-1" cx="193.75" cy="130.38" r="1.55"/><path class="cls-1" d="M202.3,139a1.42,1.42,0,1,0,0-2.83,1.42,1.42,0,0,0,0,2.83Z"/><circle class="cls-1" cx="201.9" cy="144.87" r="1.41"/><circle class="cls-1" cx="200.68" cy="152.02" r="1.41"/><circle class="cls-1" cx="198.67" cy="159" r="1.41"/><path class="cls-1" d="M195.9,167.12a1.42,1.42,0,1,0-1.42-1.42A1.42,1.42,0,0,0,195.9,167.12Z"/><circle class="cls-1" cx="192.38" cy="172.06" r="1.41"/><circle class="cls-1" cx="188.19" cy="177.97" r="1.41"/><circle class="cls-1" cx="183.35" cy="183.39" r="1.41"/><path class="cls-1" d="M177.94,189.63a1.41,1.41,0,1,0-1.42-1.41A1.41,1.41,0,0,0,177.94,189.63Z"/><path class="cls-1" d="M172,193.83a1.41,1.41,0,1,0-1.41-1.41A1.41,1.41,0,0,0,172,193.83Z"/><circle class="cls-1" cx="165.67" cy="195.93" r="1.41"/><circle class="cls-1" cx="158.96" cy="198.71" r="1.41"/><path class="cls-1" d="M152,202.13a1.42,1.42,0,1,0-1.41-1.41A1.41,1.41,0,0,0,152,202.13Z"/><path class="cls-1" d="M144.83,203.35a1.42,1.42,0,1,0,0-2.83,1.42,1.42,0,0,0,0,2.83Z"/><path class="cls-1" d="M137.59,203.75a1.41,1.41,0,1,0-1.42-1.41A1.41,1.41,0,0,0,137.59,203.75Z"/><path class="cls-1" d="M130.34,203.35a1.42,1.42,0,1,0-1.41-1.42A1.42,1.42,0,0,0,130.34,203.35Z"/><path class="cls-1" d="M123.19,202.13a1.42,1.42,0,0,0,0-2.83,1.42,1.42,0,1,0,0,2.83Z"/><circle class="cls-1" cx="116.21" cy="198.71" r="1.41"/><circle class="cls-1" cx="109.51" cy="195.93" r="1.41"/><path class="cls-1" d="M103.16,193.83a1.41,1.41,0,1,0-1.42-1.41A1.41,1.41,0,0,0,103.16,193.83Z"/><path class="cls-1" d="M97.24,189.61a1.39,1.39,0,1,0-1.39-1.39A1.39,1.39,0,0,0,97.24,189.61Z"/><path class="cls-1" d="M91.83,184.8a1.42,1.42,0,1,0-1.42-1.41A1.41,1.41,0,0,0,91.83,184.8Z"/><circle class="cls-1" cx="86.99" cy="177.97" r="1.39"/><path class="cls-1" d="M82.79,173.45a1.4,1.4,0,1,0-1.39-1.39A1.39,1.39,0,0,0,82.79,173.45Z"/><path class="cls-1" d="M79.28,167.09a1.39,1.39,0,1,0-1.39-1.39A1.39,1.39,0,0,0,79.28,167.09Z"/><circle class="cls-1" cx="76.5" cy="159" r="1.39"/><path class="cls-1" d="M74.49,153.42A1.4,1.4,0,1,0,73.1,152,1.4,1.4,0,0,0,74.49,153.42Z"/><path class="cls-1" d="M73.28,146.26a1.39,1.39,0,1,0-1.39-1.39A1.39,1.39,0,0,0,73.28,146.26Z"/><path class="cls-1" d="M72.87,139a1.39,1.39,0,1,0-1.39-1.39A1.39,1.39,0,0,0,72.87,139Z"/><path class="cls-1" d="M73.28,131.77a1.39,1.39,0,1,0-1.39-1.39A1.39,1.39,0,0,0,73.28,131.77Z"/><path class="cls-1" d="M74.49,124.61a1.39,1.39,0,1,0-1.39-1.39A1.39,1.39,0,0,0,74.49,124.61Z"/><path class="cls-1" d="M76.5,117.64a1.39,1.39,0,1,0-1.39-1.39A1.39,1.39,0,0,0,76.5,117.64Z"/><path class="cls-1" d="M79.28,110.93a1.39,1.39,0,1,0-1.39-1.39A1.39,1.39,0,0,0,79.28,110.93Z"/><path class="cls-1" d="M82.79,104.58a1.39,1.39,0,1,0-1.39-1.39A1.39,1.39,0,0,0,82.79,104.58Z"/><circle class="cls-1" cx="86.99" cy="97.27" r="1.39"/><path class="cls-1" d="M91.83,93.25a1.39,1.39,0,1,0-1.4-1.39A1.39,1.39,0,0,0,91.83,93.25Z"/><path class="cls-1" d="M97.24,88.42A1.39,1.39,0,1,0,95.85,87,1.39,1.39,0,0,0,97.24,88.42Z"/><path class="cls-1" d="M103.16,84.22a1.39,1.39,0,1,0-1.39-1.39A1.4,1.4,0,0,0,103.16,84.22Z"/><circle class="cls-1" cx="109.51" cy="79.32" r="1.39"/><path class="cls-1" d="M116.21,77.93a1.39,1.39,0,1,0-1.39-1.39A1.39,1.39,0,0,0,116.21,77.93Z"/><path class="cls-1" d="M123.19,75.92a1.39,1.39,0,1,0-1.39-1.39A1.39,1.39,0,0,0,123.19,75.92Z"/><path class="cls-1" d="M130.34,74.7A1.39,1.39,0,1,0,129,73.31,1.39,1.39,0,0,0,130.34,74.7Z"/><path class="cls-1" d="M137.59,74.3a1.39,1.39,0,1,0-1.39-1.39A1.39,1.39,0,0,0,137.59,74.3Z"/><path class="cls-1" d="M144.83,74.7a1.39,1.39,0,1,0-1.39-1.39A1.39,1.39,0,0,0,144.83,74.7Z"/><path class="cls-1" d="M152,75.92a1.39,1.39,0,1,0-1.39-1.39A1.39,1.39,0,0,0,152,75.92Z"/><path class="cls-1" d="M159,77.93a1.39,1.39,0,1,0-1.39-1.39A1.39,1.39,0,0,0,159,77.93Z"/><circle class="cls-1" cx="165.67" cy="79.32" r="1.39"/><path class="cls-1" d="M172,84.22a1.39,1.39,0,1,0-1.39-1.39A1.39,1.39,0,0,0,172,84.22Z"/><path class="cls-1" d="M177.94,88.42A1.39,1.39,0,1,0,176.55,87,1.39,1.39,0,0,0,177.94,88.42Z"/><circle class="cls-1" cx="183.35" cy="91.86" r="1.41"/><circle class="cls-1" cx="188.19" cy="97.27" r="1.39"/><circle class="cls-1" cx="192.38" cy="103.19" r="1.41"/><path class="cls-1" d="M195.9,111a1.42,1.42,0,1,0-1.42-1.42A1.42,1.42,0,0,0,195.9,111Z"/><path class="cls-1" d="M198.67,117.66a1.41,1.41,0,1,0-1.41-1.41A1.42,1.42,0,0,0,198.67,117.66Z"/><circle class="cls-1" cx="200.68" cy="123.22" r="1.41"/><circle class="cls-1" cx="201.9" cy="130.38" r="1.41"/><path class="cls-1" d="M210.39,138.88a1.26,1.26,0,1,0-1.25-1.26A1.25,1.25,0,0,0,210.39,138.88Z"/><path class="cls-1" d="M210,146.13a1.26,1.26,0,1,0-1.25-1.26A1.25,1.25,0,0,0,210,146.13Z"/><path class="cls-1" d="M209,153.31a1.26,1.26,0,1,0-1.26-1.26A1.27,1.27,0,0,0,209,153.31Z"/><path class="cls-1" d="M207.16,160.36a1.28,1.28,0,1,0-1.28-1.28A1.28,1.28,0,0,0,207.16,160.36Z"/><path class="cls-1" d="M204.68,167.16a1.26,1.26,0,1,0-1.26-1.26A1.25,1.25,0,0,0,204.68,167.16Z"/><path class="cls-1" d="M201.53,173.7a1.26,1.26,0,1,0-1.26-1.26A1.25,1.25,0,0,0,201.53,173.7Z"/><path class="cls-1" d="M197.74,179.89a1.26,1.26,0,1,0-1.25-1.25A1.25,1.25,0,0,0,197.74,179.89Z"/><circle class="cls-1" cx="193.36" cy="184.42" r="1.26"/><circle class="cls-1" cx="188.42" cy="189.74" r="1.28"/><path class="cls-1" d="M183,195.8a1.26,1.26,0,1,0-1.25-1.25A1.25,1.25,0,0,0,183,195.8Z"/><path class="cls-1" d="M177.09,200a1.26,1.26,0,1,0-1.26-1.26A1.25,1.25,0,0,0,177.09,200Z"/><path class="cls-1" d="M170.8,203.67a1.26,1.26,0,1,0-1.25-1.26A1.25,1.25,0,0,0,170.8,203.67Z"/><circle class="cls-1" cx="164.19" cy="205.4" r="1.28"/><circle class="cls-1" cx="157.31" cy="207.71" r="1.28"/><path class="cls-1" d="M150.23,210.58a1.26,1.26,0,1,0-1.26-1.26A1.26,1.26,0,0,0,150.23,210.58Z"/><circle class="cls-1" cx="143.03" cy="210.23" r="1.26"/><circle class="cls-1" cx="135.77" cy="210.41" r="1.26"/><path class="cls-1" d="M128.53,211.12a1.26,1.26,0,1,0-1.25-1.26A1.25,1.25,0,0,0,128.53,211.12Z"/><path class="cls-1" d="M121.39,209.86a1.26,1.26,0,1,0-1.26-1.26A1.25,1.25,0,0,0,121.39,209.86Z"/><path class="cls-1" d="M114.4,207.9a1.26,1.26,0,1,0-1.26-1.26A1.27,1.27,0,0,0,114.4,207.9Z"/><path class="cls-1" d="M107.64,205.24a1.26,1.26,0,1,0-1.25-1.25A1.25,1.25,0,0,0,107.64,205.24Z"/><path class="cls-1" d="M101.18,201.93a1.26,1.26,0,1,0-1.25-1.25A1.25,1.25,0,0,0,101.18,201.93Z"/><path class="cls-1" d="M95.09,198a1.26,1.26,0,1,0-1.26-1.25A1.25,1.25,0,0,0,95.09,198Z"/><path class="cls-1" d="M89.41,193.47a1.26,1.26,0,1,0-1.25-1.26A1.25,1.25,0,0,0,89.41,193.47Z"/><path class="cls-1" d="M84.22,188.4A1.26,1.26,0,1,0,83,187.14,1.25,1.25,0,0,0,84.22,188.4Z"/><path class="cls-1" d="M79.55,182.84a1.26,1.26,0,1,0-1.26-1.26A1.26,1.26,0,0,0,79.55,182.84Z"/><path class="cls-1" d="M75.46,176.84a1.26,1.26,0,1,0-1.25-1.25A1.25,1.25,0,0,0,75.46,176.84Z"/><path class="cls-1" d="M72,170.47a1.26,1.26,0,1,0-1.26-1.26A1.26,1.26,0,0,0,72,170.47Z"/><path class="cls-1" d="M69.17,163.78a1.26,1.26,0,1,0-1.25-1.26A1.25,1.25,0,0,0,69.17,163.78Z"/><path class="cls-1" d="M67,156.85a1.26,1.26,0,1,0-1.25-1.26A1.26,1.26,0,0,0,67,156.85Z"/><path class="cls-1" d="M65.59,149.73a1.26,1.26,0,1,0-1.25-1.26A1.25,1.25,0,0,0,65.59,149.73Z"/><path class="cls-1" d="M64.87,142.51a1.26,1.26,0,1,0-1.25-1.26A1.25,1.25,0,0,0,64.87,142.51Z"/><path class="cls-1" d="M64.87,135.25A1.26,1.26,0,1,0,63.62,134,1.25,1.25,0,0,0,64.87,135.25Z"/><path class="cls-1" d="M65.59,128a1.26,1.26,0,1,0-1.25-1.26A1.25,1.25,0,0,0,65.59,128Z"/><path class="cls-1" d="M67,120.91a1.26,1.26,0,1,0-1.25-1.25A1.25,1.25,0,0,0,67,120.91Z"/><path class="cls-1" d="M69.17,114a1.26,1.26,0,1,0-1.25-1.26A1.25,1.25,0,0,0,69.17,114Z"/><path class="cls-1" d="M72,107.29A1.26,1.26,0,1,0,70.73,106,1.26,1.26,0,0,0,72,107.29Z"/><path class="cls-1" d="M75.46,100.92a1.26,1.26,0,1,0-1.25-1.26A1.26,1.26,0,0,0,75.46,100.92Z"/><path class="cls-1" d="M79.55,94.92a1.26,1.26,0,1,0-1.26-1.26A1.26,1.26,0,0,0,79.55,94.92Z"/><path class="cls-1" d="M84.22,89.36A1.26,1.26,0,1,0,83,88.1,1.25,1.25,0,0,0,84.22,89.36Z"/><path class="cls-1" d="M89.41,84.29A1.26,1.26,0,1,0,88.16,83,1.25,1.25,0,0,0,89.41,84.29Z"/><path class="cls-1" d="M95.09,79.77a1.26,1.26,0,1,0-1.26-1.26A1.26,1.26,0,0,0,95.09,79.77Z"/><path class="cls-1" d="M101.18,75.83a1.26,1.26,0,1,0-1.25-1.26A1.25,1.25,0,0,0,101.18,75.83Z"/><path class="cls-1" d="M107.64,72.52a1.26,1.26,0,1,0-1.25-1.26A1.26,1.26,0,0,0,107.64,72.52Z"/><path class="cls-1" d="M114.4,69.86a1.26,1.26,0,1,0-1.26-1.25A1.26,1.26,0,0,0,114.4,69.86Z"/><path class="cls-1" d="M121.39,67.9a1.26,1.26,0,1,0-1.26-1.26A1.25,1.25,0,0,0,121.39,67.9Z"/><path class="cls-1" d="M128.53,66.64a1.26,1.26,0,1,0-1.25-1.26A1.25,1.25,0,0,0,128.53,66.64Z"/><path class="cls-1" d="M135.77,66.1a1.26,1.26,0,1,0-1.25-1.26A1.26,1.26,0,0,0,135.77,66.1Z"/><circle class="cls-1" cx="143.03" cy="65.02" r="1.26"/><path class="cls-1" d="M150.23,67.18A1.26,1.26,0,1,0,149,65.92,1.26,1.26,0,0,0,150.23,67.18Z"/><path class="cls-1" d="M157.31,68.79a1.26,1.26,0,1,0-1.26-1.25A1.25,1.25,0,0,0,157.31,68.79Z"/><path class="cls-1" d="M164.19,71.11a1.26,1.26,0,1,0-1.26-1.26A1.26,1.26,0,0,0,164.19,71.11Z"/><path class="cls-1" d="M170.8,74.09a1.26,1.26,0,1,0-1.25-1.25A1.25,1.25,0,0,0,170.8,74.09Z"/><path class="cls-1" d="M177.09,77.72a1.26,1.26,0,1,0-1.26-1.26A1.25,1.25,0,0,0,177.09,77.72Z"/><path class="cls-1" d="M183,82a1.26,1.26,0,1,0-1.25-1.26A1.26,1.26,0,0,0,183,82Z"/><path class="cls-1" d="M188.42,86.76a1.26,1.26,0,1,0-1.25-1.26A1.25,1.25,0,0,0,188.42,86.76Z"/><path class="cls-1" d="M193.36,92.08a1.26,1.26,0,1,0-1.26-1.26A1.26,1.26,0,0,0,193.36,92.08Z"/><circle class="cls-1" cx="197.74" cy="96.61" r="1.26"/><path class="cls-1" d="M201.53,104.06a1.26,1.26,0,1,0-1.26-1.26A1.25,1.25,0,0,0,201.53,104.06Z"/><path class="cls-1" d="M204.68,110.6a1.26,1.26,0,1,0-1.26-1.26A1.25,1.25,0,0,0,204.68,110.6Z"/><circle class="cls-1" cx="207.16" cy="116.16" r="1.26"/><path class="cls-1" d="M209,124.45a1.26,1.26,0,1,0-1.26-1.25A1.26,1.26,0,0,0,209,124.45Z"/><path class="cls-1" d="M210,131.63a1.26,1.26,0,1,0-1.25-1.26A1.25,1.25,0,0,0,210,131.63Z"/><path class="cls-1" d="M218.48,138.75a1.13,1.13,0,1,0,0-2.25,1.13,1.13,0,0,0,0,2.25Z"/><path class="cls-1" d="M218.16,146a1.13,1.13,0,1,0-1.12-1.12A1.12,1.12,0,0,0,218.16,146Z"/><path class="cls-1" d="M217.18,153.19a1.12,1.12,0,1,0-1.12-1.12A1.13,1.13,0,0,0,217.18,153.19Z"/><circle class="cls-1" cx="215.57" cy="159.14" r="1.12"/><path class="cls-1" d="M213.33,167.17a1.12,1.12,0,1,0-1.13-1.12A1.12,1.12,0,0,0,213.33,167.17Z"/><path class="cls-1" d="M210.47,173.84a1.12,1.12,0,1,0-1.12-1.12A1.12,1.12,0,0,0,210.47,173.84Z"/><path class="cls-1" d="M207,180.24a1.13,1.13,0,1,0-1.12-1.12A1.12,1.12,0,0,0,207,180.24Z"/><path class="cls-1" d="M203,186.29a1.12,1.12,0,1,0-1.12-1.12A1.13,1.13,0,0,0,203,186.29Z"/><path class="cls-1" d="M198.51,192a1.12,1.12,0,1,0-1.12-1.12A1.12,1.12,0,0,0,198.51,192Z"/><circle class="cls-1" cx="193.49" cy="196.09" r="1.12"/><path class="cls-1" d="M188,202a1.12,1.12,0,1,0-1.13-1.12A1.12,1.12,0,0,0,188,202Z"/><path class="cls-1" d="M182.15,206.26a1.12,1.12,0,1,0-1.12-1.12A1.12,1.12,0,0,0,182.15,206.26Z"/><path class="cls-1" d="M175.92,210a1.12,1.12,0,1,0-1.12-1.12A1.12,1.12,0,0,0,175.92,210Z"/><path class="cls-1" d="M169.38,213.13a1.12,1.12,0,1,0-1.12-1.12A1.12,1.12,0,0,0,169.38,213.13Z"/><path class="cls-1" d="M162.59,215.68a1.12,1.12,0,1,0-1.13-1.12A1.12,1.12,0,0,0,162.59,215.68Z"/><circle class="cls-1" cx="155.59" cy="216.49" r="1.12"/><path class="cls-1" d="M148.45,218.91a1.12,1.12,0,1,0-1.13-1.12A1.12,1.12,0,0,0,148.45,218.91Z"/><path class="cls-1" d="M141.22,219.56a1.12,1.12,0,1,0-1.12-1.12A1.12,1.12,0,0,0,141.22,219.56Z"/><path class="cls-1" d="M134,219.56a1.12,1.12,0,1,0-1.12-1.12A1.12,1.12,0,0,0,134,219.56Z"/><path class="cls-1" d="M126.73,218.91a1.12,1.12,0,1,0-1.12-1.12A1.12,1.12,0,0,0,126.73,218.91Z"/><circle class="cls-1" cx="119.59" cy="216.49" r="1.12"/><path class="cls-1" d="M112.59,215.68a1.12,1.12,0,1,0-1.12-1.12A1.12,1.12,0,0,0,112.59,215.68Z"/><path class="cls-1" d="M105.79,213.13a1.12,1.12,0,1,0-1.12-1.12A1.12,1.12,0,0,0,105.79,213.13Z"/><path class="cls-1" d="M99.25,210a1.12,1.12,0,1,0-1.12-1.12A1.12,1.12,0,0,0,99.25,210Z"/><path class="cls-1" d="M93,206.26a1.12,1.12,0,1,0-1.12-1.12A1.12,1.12,0,0,0,93,206.26Z"/><path class="cls-1" d="M87.15,202A1.12,1.12,0,1,0,86,200.87,1.12,1.12,0,0,0,87.15,202Z"/><circle class="cls-1" cx="81.68" cy="196.09" r="1.12"/><path class="cls-1" d="M76.67,192a1.12,1.12,0,1,0-1.12-1.12A1.12,1.12,0,0,0,76.67,192Z"/><path class="cls-1" d="M72.14,186.29A1.12,1.12,0,1,0,71,185.17,1.12,1.12,0,0,0,72.14,186.29Z"/><path class="cls-1" d="M68.14,180.24A1.13,1.13,0,1,0,67,179.12,1.12,1.12,0,0,0,68.14,180.24Z"/><path class="cls-1" d="M64.7,173.84a1.12,1.12,0,1,0-1.12-1.12A1.12,1.12,0,0,0,64.7,173.84Z"/><path class="cls-1" d="M61.85,167.17a1.12,1.12,0,1,0-1.12-1.12A1.12,1.12,0,0,0,61.85,167.17Z"/><path class="cls-1" d="M59.61,160.27a1.13,1.13,0,1,0-1.12-1.13A1.13,1.13,0,0,0,59.61,160.27Z"/><path class="cls-1" d="M58,153.19a1.12,1.12,0,1,0-1.12-1.12A1.12,1.12,0,0,0,58,153.19Z"/><path class="cls-1" d="M57,146a1.13,1.13,0,1,0-1.12-1.12A1.12,1.12,0,0,0,57,146Z"/><path class="cls-1" d="M56.69,138.75a1.13,1.13,0,1,0-1.12-1.13A1.13,1.13,0,0,0,56.69,138.75Z"/><path class="cls-1" d="M57,131.49a1.12,1.12,0,1,0-1.12-1.12A1.12,1.12,0,0,0,57,131.49Z"/><path class="cls-1" d="M58,124.3a1.12,1.12,0,1,0-1.12-1.12A1.12,1.12,0,0,0,58,124.3Z"/><path class="cls-1" d="M59.61,117.22a1.12,1.12,0,1,0-1.12-1.12A1.12,1.12,0,0,0,59.61,117.22Z"/><path class="cls-1" d="M61.85,110.3a1.1,1.1,0,1,0-1.1-1.1A1.1,1.1,0,0,0,61.85,110.3Z"/><path class="cls-1" d="M64.7,103.65a1.13,1.13,0,1,0-1.12-1.13A1.13,1.13,0,0,0,64.7,103.65Z"/><path class="cls-1" d="M68.14,97.23a1.1,1.1,0,1,0,0-2.2,1.1,1.1,0,1,0,0,2.2Z"/><path class="cls-1" d="M72.14,91.17a1.1,1.1,0,1,0-1.1-1.1A1.1,1.1,0,0,0,72.14,91.17Z"/><path class="cls-1" d="M76.67,85.52a1.12,1.12,0,1,0-1.12-1.12A1.12,1.12,0,0,0,76.67,85.52Z"/><path class="cls-1" d="M81.68,80.27a1.12,1.12,0,1,0-1.12-1.12A1.12,1.12,0,0,0,81.68,80.27Z"/><path class="cls-1" d="M87.15,75.48a1.1,1.1,0,1,0-1.1-1.1A1.1,1.1,0,0,0,87.15,75.48Z"/><path class="cls-1" d="M93,71.21a1.1,1.1,0,1,0-1.1-1.1A1.1,1.1,0,0,0,93,71.21Z"/><path class="cls-1" d="M99.25,67.51a1.12,1.12,0,1,0-1.12-1.12A1.12,1.12,0,0,0,99.25,67.51Z"/><path class="cls-1" d="M105.79,64.34a1.1,1.1,0,1,0-1.1-1.1A1.1,1.1,0,0,0,105.79,64.34Z"/><path class="cls-1" d="M112.59,61.81a1.12,1.12,0,1,0-1.12-1.12A1.12,1.12,0,0,0,112.59,61.81Z"/><path class="cls-1" d="M119.59,59.85a1.1,1.1,0,1,0-1.1-1.09A1.1,1.1,0,0,0,119.59,59.85Z"/><path class="cls-1" d="M126.73,58.58a1.12,1.12,0,1,0-1.12-1.12A1.12,1.12,0,0,0,126.73,58.58Z"/><path class="cls-1" d="M134,57.93a1.12,1.12,0,1,0-1.12-1.12A1.12,1.12,0,0,0,134,57.93Z"/><path class="cls-1" d="M141.22,57.93a1.12,1.12,0,1,0-1.12-1.12A1.12,1.12,0,0,0,141.22,57.93Z"/><path class="cls-1" d="M148.45,58.58a1.12,1.12,0,1,0-1.13-1.12A1.12,1.12,0,0,0,148.45,58.58Z"/><path class="cls-1" d="M155.59,59.88a1.13,1.13,0,1,0-1.12-1.12A1.12,1.12,0,0,0,155.59,59.88Z"/><path class="cls-1" d="M162.59,61.81a1.12,1.12,0,1,0-1.13-1.12A1.12,1.12,0,0,0,162.59,61.81Z"/><path class="cls-1" d="M169.38,64.36a1.12,1.12,0,1,0-1.12-1.12A1.12,1.12,0,0,0,169.38,64.36Z"/><path class="cls-1" d="M175.92,67.51a1.12,1.12,0,1,0-1.12-1.12A1.12,1.12,0,0,0,175.92,67.51Z"/><path class="cls-1" d="M182.15,71.23A1.12,1.12,0,1,0,181,70.11,1.12,1.12,0,0,0,182.15,71.23Z"/><path class="cls-1" d="M188,75.5a1.13,1.13,0,1,0-1.13-1.12A1.12,1.12,0,0,0,188,75.5Z"/><path class="cls-1" d="M193.49,80.27a1.12,1.12,0,1,0-1.12-1.12A1.12,1.12,0,0,0,193.49,80.27Z"/><path class="cls-1" d="M198.51,85.52a1.12,1.12,0,1,0-1.12-1.12A1.12,1.12,0,0,0,198.51,85.52Z"/><path class="cls-1" d="M203,91.2A1.13,1.13,0,1,0,203,89a1.13,1.13,0,0,0,0,2.25Z"/><circle class="cls-1" cx="207.03" cy="96.13" r="1.12"/><path class="cls-1" d="M210.47,103.65a1.13,1.13,0,1,0-1.12-1.13A1.13,1.13,0,0,0,210.47,103.65Z"/><path class="cls-1" d="M213.33,110.32a1.12,1.12,0,1,0-1.13-1.12A1.12,1.12,0,0,0,213.33,110.32Z"/><path class="cls-1" d="M215.57,117.22a1.12,1.12,0,1,0-1.12-1.12A1.12,1.12,0,0,0,215.57,117.22Z"/><path class="cls-1" d="M217.18,124.3a1.12,1.12,0,1,0-1.12-1.12A1.13,1.13,0,0,0,217.18,124.3Z"/><path class="cls-1" d="M218.16,131.49a1.12,1.12,0,1,0-1.12-1.12A1.12,1.12,0,0,0,218.16,131.49Z"/><path class="cls-1" d="M226.57,138.61a1,1,0,1,0-1-1A1,1,0,0,0,226.57,138.61Z"/><path class="cls-1" d="M226.28,145.86a1,1,0,1,0-1-1A1,1,0,0,0,226.28,145.86Z"/><path class="cls-1" d="M225.39,153.07a1,1,0,1,0,0-2,1,1,0,1,0,0,2Z"/><path class="cls-1" d="M223.92,160.18a1,1,0,1,0,0-2,1,1,0,0,0,0,2Z"/><path class="cls-1" d="M221.88,167.14a1,1,0,1,0-1-1A1,1,0,0,0,221.88,167.14Z"/><path class="cls-1" d="M219.27,173.92a1,1,0,1,0-1-1A1,1,0,0,0,219.27,173.92Z"/><path class="cls-1" d="M216.12,180.46a1,1,0,1,0-1-1A1,1,0,0,0,216.12,180.46Z"/><path class="cls-1" d="M212.45,186.72a1,1,0,1,0-1-1A1,1,0,0,0,212.45,186.72Z"/><path class="cls-1" d="M208.28,192.66a1,1,0,1,0-1-1A1,1,0,0,0,208.28,192.66Z"/><path class="cls-1" d="M203.64,198.24a1,1,0,1,0-1-1A1,1,0,0,0,203.64,198.24Z"/><path class="cls-1" d="M198.56,203.43a1,1,0,1,0-1-1A1,1,0,0,0,198.56,203.43Z"/><path class="cls-1" d="M193.07,208.18a1,1,0,1,0-1-1A1,1,0,0,0,193.07,208.18Z"/><path class="cls-1" d="M187.21,212.47a1,1,0,1,0-1-1A1,1,0,0,0,187.21,212.47Z"/><path class="cls-1" d="M181,216.27a1,1,0,1,0-1-1A1,1,0,0,0,181,216.27Z"/><path class="cls-1" d="M174.55,219.55a1,1,0,1,0-1-1A1,1,0,0,0,174.55,219.55Z"/><path class="cls-1" d="M167.83,222.3a1,1,0,1,0-1-1A1,1,0,0,0,167.83,222.3Z"/><path class="cls-1" d="M160.91,224.49a1,1,0,1,0-1-1A1,1,0,0,0,160.91,224.49Z"/><path class="cls-1" d="M153.83,226.1a1,1,0,1,0-1-1A1,1,0,0,0,153.83,226.1Z"/><path class="cls-1" d="M146.65,227.13a1,1,0,1,0-1-1A1,1,0,0,0,146.65,227.13Z"/><path class="cls-1" d="M139.4,227.58a1,1,0,1,0-1-1A1,1,0,0,0,139.4,227.58Z"/><path class="cls-1" d="M132.14,227.43a1,1,0,1,0-1-1A1,1,0,0,0,132.14,227.43Z"/><path class="cls-1" d="M124.92,226.69a1,1,0,1,0-1-1A1,1,0,0,0,124.92,226.69Z"/><path class="cls-1" d="M117.79,225.37a1,1,0,1,0-1-1A1,1,0,0,0,117.79,225.37Z"/><path class="cls-1" d="M110.78,223.46a1,1,0,1,0-1-1A1,1,0,0,0,110.78,223.46Z"/><path class="cls-1" d="M104,221a1,1,0,1,0-1-1A1,1,0,0,0,104,221Z"/><path class="cls-1" d="M97.35,218a1,1,0,1,0-1-1A1,1,0,0,0,97.35,218Z"/><path class="cls-1" d="M91,214.44a1,1,0,1,0-1-1A1,1,0,0,0,91,214.44Z"/><path class="cls-1" d="M85,210.39a1,1,0,1,0-1-1A1,1,0,0,0,85,210.39Z"/><path class="cls-1" d="M79.31,205.86a1,1,0,1,0-1-1A1,1,0,0,0,79.31,205.86Z"/><path class="cls-1" d="M74,200.89a1,1,0,1,0-1-1A1,1,0,0,0,74,200.89Z"/><path class="cls-1" d="M69.16,195.48a1,1,0,1,0,0-1.93,1,1,0,0,0,0,1.93Z"/><path class="cls-1" d="M64.75,189.71a1,1,0,1,0-1-1A1,1,0,0,0,64.75,189.71Z"/><path class="cls-1" d="M60.83,183.6a1,1,0,0,0,0-1.93,1,1,0,1,0,0,1.93Z"/><path class="cls-1" d="M57.41,177.2a1,1,0,1,0-1-1A1,1,0,0,0,57.41,177.2Z"/><path class="cls-1" d="M54.53,170.53a1,1,0,1,0-1-1A1,1,0,0,0,54.53,170.53Z"/><path class="cls-1" d="M52.21,163.66a1,1,0,1,0-1-1A1,1,0,0,0,52.21,163.66Z"/><path class="cls-1" d="M50.45,156.62a1,1,0,1,0-1-1A1,1,0,0,0,50.45,156.62Z"/><path class="cls-1" d="M49.27,149.45a1,1,0,0,0,0-1.93,1,1,0,1,0,0,1.93Z"/><path class="cls-1" d="M48.68,142.22a1,1,0,1,0-1-1A1,1,0,0,0,48.68,142.22Z"/><path class="cls-1" d="M48.68,135a1,1,0,1,0-1-1A1,1,0,0,0,48.68,135Z"/><path class="cls-1" d="M49.27,127.72a1,1,0,0,0,0-1.93,1,1,0,1,0,0,1.93Z"/><path class="cls-1" d="M50.45,120.56a1,1,0,1,0-1-1A1,1,0,0,0,50.45,120.56Z"/><path class="cls-1" d="M52.21,113.52a1,1,0,1,0-1-1A1,1,0,0,0,52.21,113.52Z"/><path class="cls-1" d="M54.53,106.64a1,1,0,1,0-1-1A1,1,0,0,0,54.53,106.64Z"/><path class="cls-1" d="M57.41,100a1,1,0,1,0-1-1A1,1,0,0,0,57.41,100Z"/><path class="cls-1" d="M60.83,93.57a1,1,0,0,0,0-1.93,1,1,0,1,0,0,1.93Z"/><path class="cls-1" d="M64.75,87.47a1,1,0,1,0,0-1.93,1,1,0,0,0,0,1.93Z"/><path class="cls-1" d="M69.16,81.7a1,1,0,1,0,0-1.93,1,1,0,0,0,0,1.93Z"/><path class="cls-1" d="M74,76.31a1,1,0,1,0-1-1A1,1,0,0,0,74,76.31Z"/><path class="cls-1" d="M79.31,71.34a1,1,0,1,0-1-1A1,1,0,0,0,79.31,71.34Z"/><path class="cls-1" d="M85,66.81a1,1,0,1,0-1-1A1,1,0,0,0,85,66.81Z"/><path class="cls-1" d="M91,62.76a1,1,0,0,0,0-1.93,1,1,0,1,0,0,1.93Z"/><path class="cls-1" d="M97.35,59.22a1,1,0,1,0,0-1.93,1,1,0,0,0,0,1.93Z"/><path class="cls-1" d="M104,56.2a1,1,0,1,0-1-1A1,1,0,0,0,104,56.2Z"/><path class="cls-1" d="M110.78,53.74a1,1,0,1,0,0-1.93,1,1,0,0,0,0,1.93Z"/><path class="cls-1" d="M117.79,51.83a1,1,0,0,0,0-1.93,1,1,0,1,0,0,1.93Z"/><path class="cls-1" d="M124.92,50.51a1,1,0,1,0-1-1A1,1,0,0,0,124.92,50.51Z"/><path class="cls-1" d="M132.14,49.77a1,1,0,1,0-1-1A1,1,0,0,0,132.14,49.77Z"/><path class="cls-1" d="M139.4,49.62a1,1,0,1,0-1-1A1,1,0,0,0,139.4,49.62Z"/><path class="cls-1" d="M146.65,50.07a1,1,0,1,0-1-1A1,1,0,0,0,146.65,50.07Z"/><path class="cls-1" d="M153.83,51.1a1,1,0,1,0-1-1A1,1,0,0,0,153.83,51.1Z"/><path class="cls-1" d="M160.91,52.71a1,1,0,1,0-1-1A1,1,0,0,0,160.91,52.71Z"/><path class="cls-1" d="M167.83,54.9a1,1,0,1,0-1-1A1,1,0,0,0,167.83,54.9Z"/><path class="cls-1" d="M174.55,57.64a1,1,0,1,0-1-1A1,1,0,0,0,174.55,57.64Z"/><path class="cls-1" d="M181,60.93a1,1,0,1,0-1-1A1,1,0,0,0,181,60.93Z"/><path class="cls-1" d="M187.21,64.73a1,1,0,1,0,0-1.93,1,1,0,0,0,0,1.93Z"/><path class="cls-1" d="M193.07,69a1,1,0,1,0-1-1A1,1,0,0,0,193.07,69Z"/><path class="cls-1" d="M198.56,73.79a1,1,0,1,0-1-1A1,1,0,0,0,198.56,73.79Z"/><path class="cls-1" d="M203.64,79a1,1,0,1,0-1-1A1,1,0,0,0,203.64,79Z"/><path class="cls-1" d="M208.28,84.56a1,1,0,1,0-1-1A1,1,0,0,0,208.28,84.56Z"/><path class="cls-1" d="M212.45,90.5a1,1,0,1,0-1-1A1,1,0,0,0,212.45,90.5Z"/><path class="cls-1" d="M216.12,96.76a1,1,0,1,0-1-1A1,1,0,0,0,216.12,96.76Z"/><path class="cls-1" d="M219.27,103.3a1,1,0,1,0-1-1A1,1,0,0,0,219.27,103.3Z"/><path class="cls-1" d="M221.88,110.08a1,1,0,1,0-1-1A1,1,0,0,0,221.88,110.08Z"/><path class="cls-1" d="M223.92,117a1,1,0,1,0-1-1A1,1,0,0,0,223.92,117Z"/><path class="cls-1" d="M225.39,124.15a1,1,0,1,0-1-1A1,1,0,0,0,225.39,124.15Z"/><path class="cls-1" d="M226.28,131.36a1,1,0,1,0-1-1A1,1,0,0,0,226.28,131.36Z"/><path class="cls-1" d="M234.66,138.48a.86.86,0,1,0,0-1.71.85.85,0,0,0-.85.85A.86.86,0,0,0,234.66,138.48Z"/><path class="cls-1" d="M234.39,145.73a.85.85,0,1,0-.85-.85A.85.85,0,0,0,234.39,145.73Z"/><path class="cls-1" d="M233.58,152.94a.85.85,0,1,0-.85-.85A.85.85,0,0,0,233.58,152.94Z"/><path class="cls-1" d="M232.23,160.08a.86.86,0,1,0-.85-.86A.85.85,0,0,0,232.23,160.08Z"/><path class="cls-1" d="M230.35,167.09a.85.85,0,0,0,.85-.85.85.85,0,1,0-1.7,0A.85.85,0,0,0,230.35,167.09Z"/><path class="cls-1" d="M228,173.94a.85.85,0,1,0-.85-.85A.85.85,0,0,0,228,173.94Z"/><path class="cls-1" d="M225.05,180.6a.86.86,0,0,0,.85-.86.85.85,0,0,0-1.7,0A.86.86,0,0,0,225.05,180.6Z"/><path class="cls-1" d="M221.66,187a.85.85,0,0,0,0-1.7.85.85,0,1,0,0,1.7Z"/><path class="cls-1" d="M217.79,193.16a.85.85,0,1,0-.85-.85A.85.85,0,0,0,217.79,193.16Z"/><path class="cls-1" d="M213.48,199a.83.83,0,1,0-.83-.83A.83.83,0,0,0,213.48,199Z"/><path class="cls-1" d="M208.75,204.5a.85.85,0,1,0-.85-.85A.85.85,0,0,0,208.75,204.5Z"/><path class="cls-1" d="M203.62,209.64a.86.86,0,1,0-.86-.86A.85.85,0,0,0,203.62,209.64Z"/><path class="cls-1" d="M198.11,214.35a.83.83,0,1,0-.83-.83A.83.83,0,0,0,198.11,214.35Z"/><path class="cls-1" d="M192.27,218.68a.85.85,0,1,0-.85-.85A.85.85,0,0,0,192.27,218.68Z"/><path class="cls-1" d="M186.13,222.55a.86.86,0,0,0,.85-.86.86.86,0,0,0-1.71,0A.86.86,0,0,0,186.13,222.55Z"/><path class="cls-1" d="M179.71,225.94a.86.86,0,0,0,0-1.71.86.86,0,1,0,0,1.71Z"/><path class="cls-1" d="M173.05,228.84a.85.85,0,1,0,0-1.7.85.85,0,1,0,0,1.7Z"/><path class="cls-1" d="M166.2,231.24a.85.85,0,0,0,.85-.85.85.85,0,1,0-1.7,0A.85.85,0,0,0,166.2,231.24Z"/><path class="cls-1" d="M159.19,233.12a.86.86,0,1,0-.85-.85A.85.85,0,0,0,159.19,233.12Z"/><path class="cls-1" d="M152.06,234.47a.86.86,0,1,0-.86-.86A.85.85,0,0,0,152.06,234.47Z"/><path class="cls-1" d="M144.84,235.28a.85.85,0,0,0,.85-.85.85.85,0,1,0-1.7,0A.85.85,0,0,0,144.84,235.28Z"/><path class="cls-1" d="M137.59,235.55a.85.85,0,1,0-.85-.85A.85.85,0,0,0,137.59,235.55Z"/><path class="cls-1" d="M130.33,235.26a.83.83,0,1,0-.83-.83A.83.83,0,0,0,130.33,235.26Z"/><path class="cls-1" d="M123.12,234.44a.83.83,0,1,0-.83-.83A.83.83,0,0,0,123.12,234.44Z"/><path class="cls-1" d="M116,233.09a.83.83,0,1,0-.83-.82A.83.83,0,0,0,116,233.09Z"/><path class="cls-1" d="M109,231.22a.83.83,0,1,0-.83-.83A.83.83,0,0,0,109,231.22Z"/><path class="cls-1" d="M102.12,228.82a.83.83,0,1,0-.83-.83A.83.83,0,0,0,102.12,228.82Z"/><path class="cls-1" d="M95.47,225.92a.83.83,0,1,0-.83-.83A.83.83,0,0,0,95.47,225.92Z"/><path class="cls-1" d="M89.05,222.52a.83.83,0,1,0-.83-.83A.83.83,0,0,0,89.05,222.52Z"/><path class="cls-1" d="M82.9,218.66a.83.83,0,1,0-.83-.83A.83.83,0,0,0,82.9,218.66Z"/><circle class="cls-1" cx="77.06" cy="213.52" r="0.83"/><path class="cls-1" d="M71.56,209.61a.83.83,0,1,0-.83-.83A.83.83,0,0,0,71.56,209.61Z"/><path class="cls-1" d="M66.43,204.48a.83.83,0,1,0-.83-.83A.83.83,0,0,0,66.43,204.48Z"/><path class="cls-1" d="M61.69,199a.83.83,0,1,0-.83-.83A.83.83,0,0,0,61.69,199Z"/><path class="cls-1" d="M57.38,193.14a.83.83,0,1,0-.83-.83A.83.83,0,0,0,57.38,193.14Z"/><path class="cls-1" d="M53.52,187a.83.83,0,1,0-.83-.83A.83.83,0,0,0,53.52,187Z"/><path class="cls-1" d="M50.13,180.57a.83.83,0,1,0-.83-.83A.83.83,0,0,0,50.13,180.57Z"/><path class="cls-1" d="M47.22,173.92a.83.83,0,1,0-.83-.83A.83.83,0,0,0,47.22,173.92Z"/><path class="cls-1" d="M44.82,167.07a.83.83,0,1,0-.83-.83A.84.84,0,0,0,44.82,167.07Z"/><path class="cls-1" d="M43,160.05a.83.83,0,1,0-.83-.83A.83.83,0,0,0,43,160.05Z"/><path class="cls-1" d="M41.6,152.92a.83.83,0,1,0-.83-.83A.83.83,0,0,0,41.6,152.92Z"/><path class="cls-1" d="M40.78,145.71a.83.83,0,1,0-.83-.83A.83.83,0,0,0,40.78,145.71Z"/><path class="cls-1" d="M40.51,138.45a.83.83,0,1,0-.83-.83A.83.83,0,0,0,40.51,138.45Z"/><path class="cls-1" d="M40.78,131.2a.83.83,0,1,0-.83-.83A.83.83,0,0,0,40.78,131.2Z"/><path class="cls-1" d="M41.6,124a.83.83,0,0,0,0-1.66.83.83,0,1,0,0,1.66Z"/><path class="cls-1" d="M43,116.85a.83.83,0,1,0-.83-.83A.83.83,0,0,0,43,116.85Z"/><path class="cls-1" d="M44.82,109.84A.83.83,0,1,0,44,109,.84.84,0,0,0,44.82,109.84Z"/><path class="cls-1" d="M47.22,103a.83.83,0,1,0-.83-.83A.83.83,0,0,0,47.22,103Z"/><circle class="cls-1" cx="50.13" cy="95.5" r="0.83"/><path class="cls-1" d="M53.52,89.92a.83.83,0,1,0-.83-.83A.83.83,0,0,0,53.52,89.92Z"/><path class="cls-1" d="M57.38,83.77a.83.83,0,1,0-.83-.83A.83.83,0,0,0,57.38,83.77Z"/><path class="cls-1" d="M61.69,77.93a.83.83,0,1,0-.83-.83A.83.83,0,0,0,61.69,77.93Z"/><path class="cls-1" d="M66.43,72.43a.83.83,0,0,0,0-1.66.83.83,0,0,0,0,1.66Z"/><path class="cls-1" d="M71.56,67.29a.83.83,0,1,0-.83-.83A.83.83,0,0,0,71.56,67.29Z"/><path class="cls-1" d="M77.06,62.56a.83.83,0,1,0-.83-.83A.83.83,0,0,0,77.06,62.56Z"/><path class="cls-1" d="M82.9,58.25a.83.83,0,1,0-.83-.83A.83.83,0,0,0,82.9,58.25Z"/><path class="cls-1" d="M89.05,54.38a.83.83,0,1,0-.83-.83A.83.83,0,0,0,89.05,54.38Z"/><path class="cls-1" d="M95.47,51a.83.83,0,1,0-.83-.83A.83.83,0,0,0,95.47,51Z"/><path class="cls-1" d="M102.12,48.09a.83.83,0,1,0-.83-.83A.83.83,0,0,0,102.12,48.09Z"/><path class="cls-1" d="M109,45.69a.83.83,0,1,0-.83-.83A.83.83,0,0,0,109,45.69Z"/><path class="cls-1" d="M116,43.81a.83.83,0,1,0-.83-.83A.83.83,0,0,0,116,43.81Z"/><path class="cls-1" d="M123.12,42.46a.83.83,0,1,0-.83-.83A.83.83,0,0,0,123.12,42.46Z"/><path class="cls-1" d="M130.33,41.65a.83.83,0,1,0-.83-.83A.83.83,0,0,0,130.33,41.65Z"/><path class="cls-1" d="M137.59,41.38a.83.83,0,1,0-.83-.83A.83.83,0,0,0,137.59,41.38Z"/><path class="cls-1" d="M144.84,41.65a.83.83,0,1,0-.83-.83A.83.83,0,0,0,144.84,41.65Z"/><path class="cls-1" d="M152.06,42.46a.83.83,0,1,0-.83-.83A.83.83,0,0,0,152.06,42.46Z"/><path class="cls-1" d="M159.19,43.81a.83.83,0,1,0-.83-.83A.83.83,0,0,0,159.19,43.81Z"/><path class="cls-1" d="M166.2,45.69a.83.83,0,1,0-.83-.83A.83.83,0,0,0,166.2,45.69Z"/><path class="cls-1" d="M173.05,48.09a.83.83,0,1,0-.83-.83A.83.83,0,0,0,173.05,48.09Z"/><path class="cls-1" d="M179.71,51a.83.83,0,1,0-.83-.83A.83.83,0,0,0,179.71,51Z"/><path class="cls-1" d="M186.13,54.38a.83.83,0,1,0-.83-.83A.83.83,0,0,0,186.13,54.38Z"/><path class="cls-1" d="M192.27,58.25a.83.83,0,1,0-.83-.83A.83.83,0,0,0,192.27,58.25Z"/><path class="cls-1" d="M198.11,62.56a.83.83,0,1,0-.83-.83A.83.83,0,0,0,198.11,62.56Z"/><path class="cls-1" d="M203.62,67.29a.83.83,0,1,0-.83-.83A.83.83,0,0,0,203.62,67.29Z"/><path class="cls-1" d="M208.75,72.43a.83.83,0,1,0-.83-.83A.83.83,0,0,0,208.75,72.43Z"/><path class="cls-1" d="M213.48,77.93a.83.83,0,1,0-.83-.83A.83.83,0,0,0,213.48,77.93Z"/><path class="cls-1" d="M217.79,83.77a.83.83,0,1,0-.83-.83A.83.83,0,0,0,217.79,83.77Z"/><path class="cls-1" d="M221.66,89.92a.83.83,0,1,0-.83-.83A.83.83,0,0,0,221.66,89.92Z"/><path class="cls-1" d="M225.05,96.33a.83.83,0,1,0-.83-.83A.83.83,0,0,0,225.05,96.33Z"/><path class="cls-1" d="M228,103a.83.83,0,1,0-.83-.83A.83.83,0,0,0,228,103Z"/><path class="cls-1" d="M230.35,109.84a.83.83,0,1,0-.83-.83A.83.83,0,0,0,230.35,109.84Z"/><path class="cls-1" d="M232.23,116.85a.83.83,0,1,0-.83-.83A.83.83,0,0,0,232.23,116.85Z"/><path class="cls-1" d="M233.58,124a.83.83,0,1,0-.83-.83A.83.83,0,0,0,233.58,124Z"/><path class="cls-1" d="M234.39,131.2a.83.83,0,1,0-.83-.83A.83.83,0,0,0,234.39,131.2Z"/><path class="cls-1" d="M242.75,138.32a.7.7,0,1,0-.69-.7A.7.7,0,0,0,242.75,138.32Z"/><path class="cls-1" d="M242.5,145.57a.69.69,0,0,0,.7-.69.7.7,0,1,0-1.39,0A.69.69,0,0,0,242.5,145.57Z"/><path class="cls-1" d="M241.75,152.8a.7.7,0,1,0-.69-.7A.7.7,0,0,0,241.75,152.8Z"/><path class="cls-1" d="M240.5,160a.7.7,0,1,0-.69-.7A.7.7,0,0,0,240.5,160Z"/><path class="cls-1" d="M238.77,167a.7.7,0,0,0,.69-.7.7.7,0,0,0-1.39,0A.7.7,0,0,0,238.77,167Z"/><path class="cls-1" d="M236.55,173.91a.7.7,0,1,0-.7-.7A.69.69,0,0,0,236.55,173.91Z"/><path class="cls-1" d="M233.86,180.65a.7.7,0,1,0-.7-.69A.69.69,0,0,0,233.86,180.65Z"/><path class="cls-1" d="M230.71,187.19a.7.7,0,1,0-.7-.69A.69.69,0,0,0,230.71,187.19Z"/><path class="cls-1" d="M227.11,193.5a.7.7,0,1,0-.69-.7A.7.7,0,0,0,227.11,193.5Z"/><path class="cls-1" d="M223.09,199.54a.7.7,0,1,0-.69-.69A.69.69,0,0,0,223.09,199.54Z"/><path class="cls-1" d="M218.66,205.3a.7.7,0,1,0-.69-.7A.7.7,0,0,0,218.66,205.3Z"/><path class="cls-1" d="M213.85,210.73a.7.7,0,1,0-.69-.69A.69.69,0,0,0,213.85,210.73Z"/><path class="cls-1" d="M208.67,215.82a.7.7,0,1,0-.69-.69A.69.69,0,0,0,208.67,215.82Z"/><path class="cls-1" d="M203.16,220.54a.7.7,0,1,0-.7-.7A.69.69,0,0,0,203.16,220.54Z"/><path class="cls-1" d="M197.33,224.87a.7.7,0,1,0-.7-.7A.69.69,0,0,0,197.33,224.87Z"/><path class="cls-1" d="M191.21,228.78a.7.7,0,1,0-.69-.69A.69.69,0,0,0,191.21,228.78Z"/><path class="cls-1" d="M184.85,232.27a.7.7,0,1,0-.7-.7A.69.69,0,0,0,184.85,232.27Z"/><path class="cls-1" d="M178.25,235.3a.7.7,0,1,0-.69-.69A.69.69,0,0,0,178.25,235.3Z"/><path class="cls-1" d="M171.46,237.88a.7.7,0,1,0-.69-.7A.7.7,0,0,0,171.46,237.88Z"/><path class="cls-1" d="M164.51,240a.7.7,0,1,0-.69-.7A.7.7,0,0,0,164.51,240Z"/><path class="cls-1" d="M157.44,241.59a.7.7,0,1,0-.7-.69A.69.69,0,0,0,157.44,241.59Z"/><path class="cls-1" d="M150.26,242.72a.7.7,0,1,0-.69-.7A.7.7,0,0,0,150.26,242.72Z"/><path class="cls-1" d="M143,243.34a.7.7,0,1,0-.69-.69A.69.69,0,0,0,143,243.34Z"/><path class="cls-1" d="M135.77,243.47a.7.7,0,1,0-.69-.7A.7.7,0,0,0,135.77,243.47Z"/><path class="cls-1" d="M128.52,243.09a.7.7,0,1,0-.69-.69A.69.69,0,0,0,128.52,243.09Z"/><path class="cls-1" d="M121.32,242.22a.7.7,0,1,0-.7-.7A.69.69,0,0,0,121.32,242.22Z"/><path class="cls-1" d="M114.19,240.85a.7.7,0,1,0-.7-.7A.69.69,0,0,0,114.19,240.85Z"/><path class="cls-1" d="M107.17,239a.7.7,0,1,0-.7-.7A.69.69,0,0,0,107.17,239Z"/><path class="cls-1" d="M100.3,236.65a.7.7,0,1,0-.7-.7A.69.69,0,0,0,100.3,236.65Z"/><path class="cls-1" d="M93.6,233.84a.7.7,0,1,0-.69-.69A.69.69,0,0,0,93.6,233.84Z"/><path class="cls-1" d="M87.11,230.58a.7.7,0,1,0-.69-.69A.69.69,0,0,0,87.11,230.58Z"/><path class="cls-1" d="M80.87,226.88a.7.7,0,1,0-.7-.7A.7.7,0,0,0,80.87,226.88Z"/><path class="cls-1" d="M74.9,222.75a.7.7,0,1,0-.7-.69A.69.69,0,0,0,74.9,222.75Z"/><path class="cls-1" d="M69.22,218.23a.7.7,0,1,0-.7-.7A.7.7,0,0,0,69.22,218.23Z"/><path class="cls-1" d="M63.87,213.32a.7.7,0,0,0,0-1.39.7.7,0,1,0,0,1.39Z"/><path class="cls-1" d="M58.87,208.06a.71.71,0,0,0,.7-.7.7.7,0,0,0-.7-.69.69.69,0,0,0-.69.69A.7.7,0,0,0,58.87,208.06Z"/><path class="cls-1" d="M54.25,202.46a.7.7,0,1,0-.7-.7A.69.69,0,0,0,54.25,202.46Z"/><path class="cls-1" d="M50,196.56a.7.7,0,1,0-.7-.7A.7.7,0,0,0,50,196.56Z"/><circle class="cls-1" cx="46.21" cy="189.68" r="0.7"/><path class="cls-1" d="M42.84,184a.7.7,0,1,0-.7-.7A.69.69,0,0,0,42.84,184Z"/><path class="cls-1" d="M39.91,177.3a.7.7,0,1,0-.69-.69A.69.69,0,0,0,39.91,177.3Z"/><path class="cls-1" d="M37.46,170.47a.7.7,0,1,0-.7-.69A.69.69,0,0,0,37.46,170.47Z"/><path class="cls-1" d="M35.48,163.49a.7.7,0,1,0-.7-.7A.69.69,0,0,0,35.48,163.49Z"/><path class="cls-1" d="M34,156.38a.7.7,0,1,0-.7-.69A.69.69,0,0,0,34,156.38Z"/><path class="cls-1" d="M33,149.19a.7.7,0,1,0-.7-.69A.69.69,0,0,0,33,149.19Z"/><path class="cls-1" d="M32.49,142a.7.7,0,1,0-.7-.7A.69.69,0,0,0,32.49,142Z"/><path class="cls-1" d="M32.49,134.69a.7.7,0,1,0-.7-.7A.69.69,0,0,0,32.49,134.69Z"/><path class="cls-1" d="M33,127.45a.7.7,0,1,0-.7-.7A.69.69,0,0,0,33,127.45Z"/><path class="cls-1" d="M34,120.26a.7.7,0,0,0,.69-.7.7.7,0,0,0-1.39,0A.7.7,0,0,0,34,120.26Z"/><path class="cls-1" d="M35.48,113.15a.7.7,0,1,0-.7-.69A.69.69,0,0,0,35.48,113.15Z"/><path class="cls-1" d="M37.46,106.17a.7.7,0,1,0-.7-.7A.69.69,0,0,0,37.46,106.17Z"/><path class="cls-1" d="M39.91,99.34a.7.7,0,1,0-.69-.7A.7.7,0,0,0,39.91,99.34Z"/><path class="cls-1" d="M42.84,92.69a.7.7,0,1,0-.7-.7A.69.69,0,0,0,42.84,92.69Z"/><path class="cls-1" d="M46.21,86.26a.7.7,0,1,0-.69-.69A.69.69,0,0,0,46.21,86.26Z"/><path class="cls-1" d="M50,80.08a.7.7,0,1,0-.7-.69A.7.7,0,0,0,50,80.08Z"/><path class="cls-1" d="M54.25,74.18a.7.7,0,1,0-.7-.7A.69.69,0,0,0,54.25,74.18Z"/><path class="cls-1" d="M58.87,68.58a.7.7,0,1,0-.69-.69A.69.69,0,0,0,58.87,68.58Z"/><circle class="cls-1" cx="63.87" cy="62.62" r="0.7"/><path class="cls-1" d="M69.22,58.41a.7.7,0,1,0-.7-.7A.7.7,0,0,0,69.22,58.41Z"/><path class="cls-1" d="M74.9,53.88a.7.7,0,1,0-.7-.69A.69.69,0,0,0,74.9,53.88Z"/><path class="cls-1" d="M80.87,49.76a.7.7,0,1,0-.7-.7A.7.7,0,0,0,80.87,49.76Z"/><path class="cls-1" d="M87.11,46.06a.7.7,0,1,0-.69-.7A.7.7,0,0,0,87.11,46.06Z"/><path class="cls-1" d="M93.6,42.8a.7.7,0,1,0,0-1.4.7.7,0,0,0,0,1.4Z"/><path class="cls-1" d="M100.3,40a.7.7,0,1,0-.7-.7A.69.69,0,0,0,100.3,40Z"/><path class="cls-1" d="M107.17,37.65a.7.7,0,1,0-.7-.7A.69.69,0,0,0,107.17,37.65Z"/><path class="cls-1" d="M114.19,35.79a.7.7,0,1,0-.7-.69A.69.69,0,0,0,114.19,35.79Z"/><path class="cls-1" d="M121.32,34.42a.7.7,0,1,0-.7-.69A.69.69,0,0,0,121.32,34.42Z"/><path class="cls-1" d="M128.52,33.55a.7.7,0,1,0-.69-.7A.7.7,0,0,0,128.52,33.55Z"/><path class="cls-1" d="M135.77,33.17a.7.7,0,1,0-.69-.7A.7.7,0,0,0,135.77,33.17Z"/><path class="cls-1" d="M143,33.3a.7.7,0,1,0-.69-.7A.7.7,0,0,0,143,33.3Z"/><path class="cls-1" d="M150.26,33.92a.7.7,0,1,0-.69-.69A.69.69,0,0,0,150.26,33.92Z"/><path class="cls-1" d="M157.44,35a.7.7,0,1,0-.7-.69A.69.69,0,0,0,157.44,35Z"/><path class="cls-1" d="M164.51,36.66a.7.7,0,1,0-.69-.7A.7.7,0,0,0,164.51,36.66Z"/><circle class="cls-1" cx="171.46" cy="38.06" r="0.7"/><path class="cls-1" d="M178.25,41.33a.7.7,0,1,0-.69-.69A.69.69,0,0,0,178.25,41.33Z"/><path class="cls-1" d="M184.85,44.37a.7.7,0,1,0-.7-.7A.69.69,0,0,0,184.85,44.37Z"/><path class="cls-1" d="M191.21,47.85a.69.69,0,0,0,.7-.69.7.7,0,1,0-1.39,0A.69.69,0,0,0,191.21,47.85Z"/><path class="cls-1" d="M197.33,51.77a.7.7,0,1,0-.7-.7A.69.69,0,0,0,197.33,51.77Z"/><path class="cls-1" d="M203.16,56.1a.7.7,0,1,0-.7-.7A.69.69,0,0,0,203.16,56.1Z"/><path class="cls-1" d="M208.67,60.82a.7.7,0,1,0-.69-.7A.7.7,0,0,0,208.67,60.82Z"/><path class="cls-1" d="M213.85,65.91a.71.71,0,0,0,.7-.7.7.7,0,0,0-.7-.69.69.69,0,0,0-.69.69A.7.7,0,0,0,213.85,65.91Z"/><path class="cls-1" d="M218.66,71.34a.7.7,0,1,0-.69-.7A.7.7,0,0,0,218.66,71.34Z"/><path class="cls-1" d="M223.09,77.09a.7.7,0,1,0-.69-.69A.69.69,0,0,0,223.09,77.09Z"/><path class="cls-1" d="M227.11,83.14a.7.7,0,1,0-.69-.7A.7.7,0,0,0,227.11,83.14Z"/><path class="cls-1" d="M230.71,89.45a.7.7,0,1,0-.7-.7A.69.69,0,0,0,230.71,89.45Z"/><path class="cls-1" d="M233.86,96a.7.7,0,1,0-.7-.7A.69.69,0,0,0,233.86,96Z"/><path class="cls-1" d="M236.55,102.73a.7.7,0,1,0-.7-.7A.69.69,0,0,0,236.55,102.73Z"/><path class="cls-1" d="M238.77,109.64a.7.7,0,1,0-.7-.69A.69.69,0,0,0,238.77,109.64Z"/><path class="cls-1" d="M240.5,116.69a.7.7,0,1,0-.69-.69A.69.69,0,0,0,240.5,116.69Z"/><path class="cls-1" d="M241.75,123.84a.7.7,0,1,0-.69-.69A.69.69,0,0,0,241.75,123.84Z"/><path class="cls-1" d="M242.5,131.06a.7.7,0,1,0-.69-.69A.69.69,0,0,0,242.5,131.06Z"/><path class="cls-1" d="M250.84,138.18a.56.56,0,1,0-.56-.56A.56.56,0,0,0,250.84,138.18Z"/><path class="cls-1" d="M250.61,145.44a.56.56,0,1,0-.56-.56A.56.56,0,0,0,250.61,145.44Z"/><path class="cls-1" d="M249.91,152.67a.56.56,0,1,0-.56-.56A.56.56,0,0,0,249.91,152.67Z"/><path class="cls-1" d="M248.75,159.83a.56.56,0,1,0-.56-.56A.56.56,0,0,0,248.75,159.83Z"/><path class="cls-1" d="M247.14,166.91a.56.56,0,1,0-.56-.56A.56.56,0,0,0,247.14,166.91Z"/><path class="cls-1" d="M245.07,173.87a.56.56,0,1,0-.56-.56A.56.56,0,0,0,245.07,173.87Z"/><path class="cls-1" d="M242.57,180.69a.57.57,0,0,0,.56-.57.57.57,0,0,0-1.13,0A.58.58,0,0,0,242.57,180.69Z"/><path class="cls-1" d="M239.63,187.32a.56.56,0,1,0-.56-.56A.56.56,0,0,0,239.63,187.32Z"/><path class="cls-1" d="M236.27,193.76a.56.56,0,1,0-.56-.56A.56.56,0,0,0,236.27,193.76Z"/><path class="cls-1" d="M232.5,200a.56.56,0,1,0-.56-.56A.57.57,0,0,0,232.5,200Z"/><path class="cls-1" d="M228.35,205.92a.56.56,0,1,0-.56-.56A.56.56,0,0,0,228.35,205.92Z"/><path class="cls-1" d="M223.82,211.6a.56.56,0,1,0-.56-.56A.57.57,0,0,0,223.82,211.6Z"/><path class="cls-1" d="M218.94,217a.56.56,0,1,0-.56-.56A.56.56,0,0,0,218.94,217Z"/><circle class="cls-1" cx="213.73" cy="221.46" r="0.56"/><path class="cls-1" d="M208.2,226.73a.56.56,0,1,0-.56-.56A.56.56,0,0,0,208.2,226.73Z"/><path class="cls-1" d="M202.38,231.07a.56.56,0,1,0-.56-.56A.56.56,0,0,0,202.38,231.07Z"/><path class="cls-1" d="M196.3,235a.56.56,0,1,0-.56-.56A.56.56,0,0,0,196.3,235Z"/><path class="cls-1" d="M190,238.6a.57.57,0,1,0-.56-.56A.57.57,0,0,0,190,238.6Z"/><path class="cls-1" d="M183.43,241.75a.57.57,0,1,0-.56-.56A.57.57,0,0,0,183.43,241.75Z"/><path class="cls-1" d="M176.7,244.47a.56.56,0,1,0-.56-.56A.56.56,0,0,0,176.7,244.47Z"/><path class="cls-1" d="M169.81,246.76a.56.56,0,1,0-.56-.56A.56.56,0,0,0,169.81,246.76Z"/><path class="cls-1" d="M162.79,248.6a.56.56,0,1,0-.56-.56A.56.56,0,0,0,162.79,248.6Z"/><path class="cls-1" d="M155.66,250a.56.56,0,1,0-.56-.56A.56.56,0,0,0,155.66,250Z"/><circle class="cls-1" cx="148.46" cy="250.35" r="0.56"/><path class="cls-1" d="M141.22,251.38a.56.56,0,1,0-.56-.56A.56.56,0,0,0,141.22,251.38Z"/><path class="cls-1" d="M134,251.38a.56.56,0,1,0-.56-.56A.56.56,0,0,0,134,251.38Z"/><path class="cls-1" d="M126.71,250.92a.57.57,0,1,0-.56-.57A.57.57,0,0,0,126.71,250.92Z"/><path class="cls-1" d="M119.51,250a.56.56,0,1,0-.56-.56A.56.56,0,0,0,119.51,250Z"/><path class="cls-1" d="M112.39,248.6a.56.56,0,1,0-.56-.56A.56.56,0,0,0,112.39,248.6Z"/><path class="cls-1" d="M105.36,246.76a.56.56,0,1,0-.56-.56A.56.56,0,0,0,105.36,246.76Z"/><path class="cls-1" d="M98.47,244.47a.56.56,0,1,0-.56-.56A.56.56,0,0,0,98.47,244.47Z"/><path class="cls-1" d="M91.74,241.75a.57.57,0,1,0-.56-.56A.57.57,0,0,0,91.74,241.75Z"/><path class="cls-1" d="M85.2,238.6a.57.57,0,1,0-.56-.56A.57.57,0,0,0,85.2,238.6Z"/><path class="cls-1" d="M78.88,235a.56.56,0,1,0-.56-.56A.56.56,0,0,0,78.88,235Z"/><path class="cls-1" d="M72.79,231.07a.56.56,0,1,0-.56-.56A.56.56,0,0,0,72.79,231.07Z"/><path class="cls-1" d="M67,226.73a.56.56,0,1,0,0-1.12.56.56,0,1,0,0,1.12Z"/><path class="cls-1" d="M61.45,222a.56.56,0,1,0-.56-.56A.56.56,0,0,0,61.45,222Z"/><path class="cls-1" d="M56.23,217a.56.56,0,1,0-.56-.56A.56.56,0,0,0,56.23,217Z"/><path class="cls-1" d="M51.35,211.6a.56.56,0,1,0-.56-.56A.56.56,0,0,0,51.35,211.6Z"/><path class="cls-1" d="M46.82,205.92a.56.56,0,1,0-.56-.56A.56.56,0,0,0,46.82,205.92Z"/><path class="cls-1" d="M42.67,200a.56.56,0,1,0-.56-.56A.56.56,0,0,0,42.67,200Z"/><path class="cls-1" d="M38.91,193.74a.54.54,0,0,0,0-1.08.54.54,0,0,0,0,1.08Z"/><circle class="cls-1" cx="35.55" cy="186.76" r="0.54"/><path class="cls-1" d="M32.61,180.66a.54.54,0,1,0-.54-.54A.54.54,0,0,0,32.61,180.66Z"/><path class="cls-1" d="M30.1,173.85a.54.54,0,1,0,0-1.08.54.54,0,1,0,0,1.08Z"/><circle class="cls-1" cx="28.04" cy="166.35" r="0.54"/><path class="cls-1" d="M26.42,159.81a.54.54,0,0,0,.54-.54.54.54,0,1,0-1.08,0A.54.54,0,0,0,26.42,159.81Z"/><circle class="cls-1" cx="25.26" cy="152.11" r="0.54"/><circle class="cls-1" cx="24.57" cy="144.88" r="0.54"/><path class="cls-1" d="M24.33,138.16a.54.54,0,1,0-.54-.54A.54.54,0,0,0,24.33,138.16Z"/><path class="cls-1" d="M24.57,130.91a.54.54,0,0,0,.53-.54.54.54,0,1,0-1.07,0A.54.54,0,0,0,24.57,130.91Z"/><circle class="cls-1" cx="25.26" cy="123.14" r="0.54"/><path class="cls-1" d="M26.42,116.51a.54.54,0,1,0-.54-.54A.54.54,0,0,0,26.42,116.51Z"/><circle class="cls-1" cx="28.04" cy="108.9" r="0.54"/><path class="cls-1" d="M30.1,102.47a.54.54,0,1,0,0-1.07.54.54,0,1,0,0,1.07Z"/><path class="cls-1" d="M32.61,95.66a.54.54,0,0,0,.54-.54.54.54,0,1,0-1.08,0A.54.54,0,0,0,32.61,95.66Z"/><path class="cls-1" d="M35.55,89a.54.54,0,1,0-.54-.54A.54.54,0,0,0,35.55,89Z"/><circle class="cls-1" cx="38.91" cy="82.05" r="0.54"/><circle class="cls-1" cx="42.67" cy="75.84" r="0.54"/><circle class="cls-1" cx="46.82" cy="69.88" r="0.54"/><circle class="cls-1" cx="51.35" cy="64.21" r="0.54"/><path class="cls-1" d="M56.23,59.37a.54.54,0,1,0-.54-.54A.54.54,0,0,0,56.23,59.37Z"/><path class="cls-1" d="M61.45,54.32a.54.54,0,1,0-.54-.54A.54.54,0,0,0,61.45,54.32Z"/><path class="cls-1" d="M67,49.62a.54.54,0,0,0,.54-.54.54.54,0,1,0-.54.54Z"/><circle class="cls-1" cx="72.79" cy="44.74" r="0.54"/><path class="cls-1" d="M78.88,41.31a.54.54,0,1,0,0-1.07.54.54,0,1,0,0,1.07Z"/><path class="cls-1" d="M85.2,37.75a.54.54,0,1,0,0-1.08.54.54,0,1,0,0,1.08Z"/><circle class="cls-1" cx="91.74" cy="34.06" r="0.54"/><path class="cls-1" d="M98.47,31.88a.54.54,0,1,0-.53-.54A.54.54,0,0,0,98.47,31.88Z"/><path class="cls-1" d="M105.36,29.59a.54.54,0,1,0-.53-.54A.54.54,0,0,0,105.36,29.59Z"/><circle class="cls-1" cx="112.39" cy="27.21" r="0.54"/><circle class="cls-1" cx="119.51" cy="25.82" r="0.54"/><path class="cls-1" d="M126.71,25.43a.54.54,0,0,0,.54-.54.54.54,0,0,0-.54-.54.55.55,0,0,0-.54.54A.54.54,0,0,0,126.71,25.43Z"/><path class="cls-1" d="M134,25a.55.55,0,0,0,.54-.54.54.54,0,0,0-.54-.54.54.54,0,0,0-.54.54A.54.54,0,0,0,134,25Z"/><path class="cls-1" d="M141.22,25a.55.55,0,0,0,.54-.54.54.54,0,0,0-.54-.54.54.54,0,0,0-.54.54A.54.54,0,0,0,141.22,25Z"/><circle class="cls-1" cx="148.46" cy="24.89" r="0.54"/><path class="cls-1" d="M155.66,26.36a.54.54,0,0,0,0-1.08.54.54,0,1,0,0,1.08Z"/><path class="cls-1" d="M162.79,27.75a.54.54,0,1,0-.54-.54A.54.54,0,0,0,162.79,27.75Z"/><path class="cls-1" d="M169.81,29.59a.54.54,0,1,0-.54-.54A.54.54,0,0,0,169.81,29.59Z"/><path class="cls-1" d="M176.7,31.88a.54.54,0,1,0-.54-.54A.54.54,0,0,0,176.7,31.88Z"/><path class="cls-1" d="M183.43,34.6a.54.54,0,1,0-.54-.54A.54.54,0,0,0,183.43,34.6Z"/><path class="cls-1" d="M190,37.77a.56.56,0,1,0-.56-.56A.56.56,0,0,0,190,37.77Z"/><path class="cls-1" d="M196.3,41.34a.57.57,0,1,0-.56-.57A.57.57,0,0,0,196.3,41.34Z"/><path class="cls-1" d="M202.38,45.3a.57.57,0,1,0-.56-.56A.57.57,0,0,0,202.38,45.3Z"/><path class="cls-1" d="M208.2,49.62a.54.54,0,0,0,.54-.54.54.54,0,1,0-1.08,0A.54.54,0,0,0,208.2,49.62Z"/><path class="cls-1" d="M213.73,54.34a.56.56,0,1,0-.56-.56A.56.56,0,0,0,213.73,54.34Z"/><path class="cls-1" d="M218.94,59.4a.57.57,0,0,0,.56-.57.56.56,0,0,0-1.12,0A.57.57,0,0,0,218.94,59.4Z"/><path class="cls-1" d="M223.82,64.77a.56.56,0,1,0-.56-.56A.57.57,0,0,0,223.82,64.77Z"/><circle class="cls-1" cx="228.35" cy="69.88" r="0.56"/><path class="cls-1" d="M232.5,76.4a.56.56,0,1,0-.56-.56A.57.57,0,0,0,232.5,76.4Z"/><path class="cls-1" d="M236.27,82.61a.56.56,0,1,0-.56-.56A.56.56,0,0,0,236.27,82.61Z"/><path class="cls-1" d="M239.63,89.05a.57.57,0,0,0,.56-.57.56.56,0,0,0-1.12,0A.57.57,0,0,0,239.63,89.05Z"/><path class="cls-1" d="M242.57,95.68a.56.56,0,1,0-.57-.56A.57.57,0,0,0,242.57,95.68Z"/><path class="cls-1" d="M245.07,102.5a.56.56,0,1,0-.56-.56A.56.56,0,0,0,245.07,102.5Z"/><circle class="cls-1" cx="247.14" cy="108.9" r="0.56"/><path class="cls-1" d="M248.75,116.53a.56.56,0,1,0-.56-.56A.56.56,0,0,0,248.75,116.53Z"/><path class="cls-1" d="M249.91,123.7a.56.56,0,1,0-.56-.56A.56.56,0,0,0,249.91,123.7Z"/><path class="cls-1" d="M250.61,130.93a.56.56,0,1,0-.56-.56A.56.56,0,0,0,250.61,130.93Z"/><path class="cls-1" d="M258.93,138.05a.43.43,0,1,0,0-.85.43.43,0,0,0,0,.85Z"/><circle class="cls-1" cx="258.71" cy="144.88" r="0.43"/><path class="cls-1" d="M258.06,152.54a.43.43,0,1,0,0-.85.43.43,0,0,0,0,.85Z"/><path class="cls-1" d="M257,159.72a.43.43,0,0,0,.43-.43.43.43,0,1,0-.85,0A.42.42,0,0,0,257,159.72Z"/><path class="cls-1" d="M255.47,166.82a.43.43,0,1,0,0-.85.43.43,0,0,0,0,.85Z"/><path class="cls-1" d="M253.54,173.82a.43.43,0,1,0,0-.86.43.43,0,1,0,0,.86Z"/><path class="cls-1" d="M251.19,180.69a.43.43,0,0,0,.43-.43.43.43,0,1,0-.85,0A.42.42,0,0,0,251.19,180.69Z"/><path class="cls-1" d="M248.44,187.4a.43.43,0,1,0,0-.85.43.43,0,1,0,0,.85Z"/><path class="cls-1" d="M245.29,194a.43.43,0,1,0,0-.86.43.43,0,1,0,0,.86Z"/><path class="cls-1" d="M241.76,200.29a.42.42,0,0,0,.42-.43.43.43,0,1,0-.85,0A.43.43,0,0,0,241.76,200.29Z"/><path class="cls-1" d="M237.85,206.41a.43.43,0,0,0,.42-.43.43.43,0,1,0-.85,0A.43.43,0,0,0,237.85,206.41Z"/><circle class="cls-1" cx="233.58" cy="211.85" r="0.43"/><path class="cls-1" d="M229,217.89a.42.42,0,0,0,.42-.43.43.43,0,1,0-.85,0A.43.43,0,0,0,229,217.89Z"/><path class="cls-1" d="M224,223.21a.43.43,0,1,0-.43-.43A.43.43,0,0,0,224,223.21Z"/><circle class="cls-1" cx="218.78" cy="227.8" r="0.43"/><path class="cls-1" d="M213.24,232.92a.43.43,0,1,0,0-.85.43.43,0,0,0,0,.85Z"/><path class="cls-1" d="M207.44,237.28a.43.43,0,0,0,.42-.43.43.43,0,1,0-.85,0A.43.43,0,0,0,207.44,237.28Z"/><path class="cls-1" d="M201.38,241.27a.43.43,0,0,0,0-.85.43.43,0,1,0,0,.85Z"/><path class="cls-1" d="M195.09,244.9a.43.43,0,0,0,0-.85.43.43,0,1,0,0,.85Z"/><path class="cls-1" d="M188.6,248.15a.43.43,0,0,0,0-.85.43.43,0,1,0,0,.85Z"/><path class="cls-1" d="M181.92,251a.43.43,0,0,0,0-.86.43.43,0,0,0,0,.86Z"/><path class="cls-1" d="M175.08,253.45a.43.43,0,1,0-.42-.42A.42.42,0,0,0,175.08,253.45Z"/><path class="cls-1" d="M168.12,255.49a.43.43,0,1,0-.43-.43A.42.42,0,0,0,168.12,255.49Z"/><path class="cls-1" d="M161,257.11a.43.43,0,1,0-.43-.43A.42.42,0,0,0,161,257.11Z"/><path class="cls-1" d="M153.88,258.3a.43.43,0,0,0,.42-.43.43.43,0,1,0-.85,0A.43.43,0,0,0,153.88,258.3Z"/><path class="cls-1" d="M146.66,259.05a.43.43,0,0,0,0-.85.43.43,0,1,0,0,.85Z"/><path class="cls-1" d="M139.4,259.38a.43.43,0,1,0,0-.85.43.43,0,0,0,0,.85Z"/><path class="cls-1" d="M132.14,259.27a.43.43,0,1,0-.42-.42A.42.42,0,0,0,132.14,259.27Z"/><path class="cls-1" d="M124.9,258.73a.43.43,0,1,0,0-.85.43.43,0,0,0,0,.85Z"/><circle class="cls-1" cx="117.71" cy="257.33" r="0.4"/><circle class="cls-1" cx="110.59" cy="255.93" r="0.43"/><path class="cls-1" d="M103.56,254.5a.4.4,0,1,0-.4-.4A.4.4,0,0,0,103.56,254.5Z"/><path class="cls-1" d="M96.65,252.26a.41.41,0,1,0-.4-.4A.4.4,0,0,0,96.65,252.26Z"/><circle class="cls-1" cx="89.9" cy="249.2" r="0.4"/><path class="cls-1" d="M83.31,246.55a.4.4,0,1,0-.4-.4A.4.4,0,0,0,83.31,246.55Z"/><path class="cls-1" d="M76.92,243.11a.4.4,0,1,0-.41-.4A.4.4,0,0,0,76.92,243.11Z"/><path class="cls-1" d="M70.74,239.3a.41.41,0,1,0-.4-.41A.4.4,0,0,0,70.74,239.3Z"/><circle class="cls-1" cx="64.8" cy="234.72" r="0.4"/><circle class="cls-1" cx="59.13" cy="230.19" r="0.4"/><circle class="cls-1" cx="53.73" cy="225.33" r="0.4"/><path class="cls-1" d="M48.64,220.56a.4.4,0,0,0,.4-.4.41.41,0,1,0-.81,0A.4.4,0,0,0,48.64,220.56Z"/><path class="cls-1" d="M43.86,215.09a.4.4,0,1,0-.4-.4A.4.4,0,0,0,43.86,215.09Z"/><circle class="cls-1" cx="39.42" cy="208.95" r="0.4"/><circle class="cls-1" cx="35.33" cy="202.95" r="0.4"/><circle class="cls-1" cx="31.6" cy="196.72" r="0.4"/><circle class="cls-1" cx="28.26" cy="190.27" r="0.4"/><path class="cls-1" d="M25.31,184a.4.4,0,1,0-.41-.4A.4.4,0,0,0,25.31,184Z"/><circle class="cls-1" cx="22.76" cy="176.84" r="0.4"/><path class="cls-1" d="M20.62,170.31a.41.41,0,0,0,0-.81.41.41,0,1,0,0,.81Z"/><circle class="cls-1" cx="18.9" cy="162.85" r="0.4"/><path class="cls-1" d="M17.6,156.11a.4.4,0,1,0,0-.8.4.4,0,1,0,0,.8Z"/><path class="cls-1" d="M16.73,148.9a.4.4,0,1,0,0-.8.4.4,0,1,0,0,.8Z"/><path class="cls-1" d="M16.3,141.66a.41.41,0,1,0-.41-.41A.4.4,0,0,0,16.3,141.66Z"/><path class="cls-1" d="M16.3,134.4a.41.41,0,1,0-.41-.41A.4.4,0,0,0,16.3,134.4Z"/><path class="cls-1" d="M16.73,127.15a.41.41,0,1,0,0-.81.41.41,0,0,0,0,.81Z"/><path class="cls-1" d="M17.6,119.94a.4.4,0,0,0,.4-.4.41.41,0,0,0-.4-.41.42.42,0,0,0-.41.41A.41.41,0,0,0,17.6,119.94Z"/><path class="cls-1" d="M18.9,112.8a.41.41,0,1,0-.41-.41A.4.4,0,0,0,18.9,112.8Z"/><path class="cls-1" d="M20.62,105.75a.41.41,0,0,0,.4-.41.41.41,0,0,0-.81,0A.41.41,0,0,0,20.62,105.75Z"/><circle class="cls-1" cx="22.76" cy="98.4" r="0.4"/><circle class="cls-1" cx="25.31" cy="91.61" r="0.4"/><circle class="cls-1" cx="28.26" cy="84.97" r="0.4"/><circle class="cls-1" cx="31.6" cy="78.53" r="0.4"/><path class="cls-1" d="M35.33,72.7a.41.41,0,0,0,0-.81.41.41,0,1,0,0,.81Z"/><circle class="cls-1" cx="39.42" cy="66.3" r="0.4"/><path class="cls-1" d="M43.86,61a.41.41,0,1,0-.4-.4A.4.4,0,0,0,43.86,61Z"/><path class="cls-1" d="M48.64,55.49a.4.4,0,0,0,.4-.4.41.41,0,1,0-.81,0A.4.4,0,0,0,48.64,55.49Z"/><circle class="cls-1" cx="53.73" cy="49.92" r="0.4"/><circle class="cls-1" cx="59.13" cy="45.06" r="0.4"/><circle class="cls-1" cx="64.8" cy="40.53" r="0.4"/><circle class="cls-1" cx="70.74" cy="36.35" r="0.4"/><path class="cls-1" d="M76.92,32.94a.41.41,0,0,0,0-.81.41.41,0,1,0,0,.81Z"/><path class="cls-1" d="M83.31,29.5a.41.41,0,1,0-.4-.4A.4.4,0,0,0,83.31,29.5Z"/><circle class="cls-1" cx="89.9" cy="26.04" r="0.4"/><path class="cls-1" d="M96.65,23.8a.41.41,0,0,0,.41-.41.41.41,0,0,0-.81,0A.41.41,0,0,0,96.65,23.8Z"/><circle class="cls-1" cx="103.56" cy="21.15" r="0.4"/><circle class="cls-1" cx="110.59" cy="19.32" r="0.4"/><circle class="cls-1" cx="117.71" cy="17.92" r="0.4"/><path class="cls-1" d="M124.9,17.35a.41.41,0,1,0,0-.81.41.41,0,0,0,0,.81Z"/><path class="cls-1" d="M132.14,16.81a.41.41,0,0,0,.41-.41.41.41,0,0,0-.81,0A.41.41,0,0,0,132.14,16.81Z"/><path class="cls-1" d="M139.4,16.7a.41.41,0,1,0,0-.81.41.41,0,0,0,0,.81Z"/><path class="cls-1" d="M146.66,17a.4.4,0,0,0,.4-.4.41.41,0,1,0-.81,0A.4.4,0,0,0,146.66,17Z"/><path class="cls-1" d="M153.88,17.78a.41.41,0,0,0,0-.81.41.41,0,1,0,0,.81Z"/><circle class="cls-1" cx="161.04" cy="18.57" r="0.4"/><circle class="cls-1" cx="168.12" cy="20.18" r="0.4"/><circle class="cls-1" cx="175.08" cy="22.22" r="0.4"/><path class="cls-1" d="M181.92,25.07a.41.41,0,1,0-.4-.4A.4.4,0,0,0,181.92,25.07Z"/><path class="cls-1" d="M188.6,27.92a.4.4,0,1,0-.41-.4A.4.4,0,0,0,188.6,27.92Z"/><path class="cls-1" d="M195.09,31.17a.4.4,0,0,0,.4-.4.41.41,0,0,0-.4-.41.42.42,0,0,0-.41.41A.41.41,0,0,0,195.09,31.17Z"/><circle class="cls-1" cx="201.38" cy="34.4" r="0.4"/><path class="cls-1" d="M207.44,38.8a.4.4,0,0,0,.4-.4.41.41,0,1,0-.81,0A.4.4,0,0,0,207.44,38.8Z"/><path class="cls-1" d="M213.24,43.16a.41.41,0,1,0,0-.81.41.41,0,0,0,0,.81Z"/><circle class="cls-1" cx="218.78" cy="47.45" r="0.4"/><path class="cls-1" d="M224,52.87a.41.41,0,1,0-.4-.41A.4.4,0,0,0,224,52.87Z"/><circle class="cls-1" cx="228.97" cy="57.79" r="0.4"/><circle class="cls-1" cx="233.58" cy="63.39" r="0.4"/><path class="cls-1" d="M237.85,69.67a.4.4,0,0,0,.4-.4.41.41,0,1,0-.81,0A.4.4,0,0,0,237.85,69.67Z"/><circle class="cls-1" cx="241.76" cy="75.39" r="0.4"/><circle class="cls-1" cx="245.29" cy="81.73" r="0.4"/><path class="cls-1" d="M248.44,88.67a.4.4,0,0,0,.4-.4.4.4,0,1,0-.8,0A.4.4,0,0,0,248.44,88.67Z"/><path class="cls-1" d="M251.19,95.39a.41.41,0,1,0-.4-.4A.4.4,0,0,0,251.19,95.39Z"/><circle class="cls-1" cx="253.54" cy="101.86" r="0.4"/><path class="cls-1" d="M255.47,109.26a.41.41,0,1,0-.4-.4A.4.4,0,0,0,255.47,109.26Z"/><path class="cls-1" d="M257,116.36a.41.41,0,1,0,0-.81.41.41,0,0,0,0,.81Z"/><path class="cls-1" d="M258.06,123.54a.41.41,0,1,0-.4-.4A.4.4,0,0,0,258.06,123.54Z"/><path class="cls-1" d="M258.71,130.79a.43.43,0,1,0-.42-.42A.42.42,0,0,0,258.71,130.79Z"/><path class="cls-1" d="M267,137.89a.27.27,0,1,0-.27-.27A.27.27,0,0,0,267,137.89Z"/><path class="cls-1" d="M266.82,145.15a.27.27,0,1,0-.27-.27A.27.27,0,0,0,266.82,145.15Z"/><circle class="cls-1" cx="266.21" cy="152.12" r="0.27"/><path class="cls-1" d="M265.19,159.57a.27.27,0,1,0-.27-.27A.27.27,0,0,0,265.19,159.57Z"/><circle class="cls-1" cx="263.78" cy="166.43" r="0.27"/><circle class="cls-1" cx="261.96" cy="173.46" r="0.27"/><path class="cls-1" d="M259.76,180.64a.27.27,0,1,0-.27-.27A.27.27,0,0,0,259.76,180.64Z"/><path class="cls-1" d="M257.17,187.42a.27.27,0,1,0-.27-.26A.27.27,0,0,0,257.17,187.42Z"/><path class="cls-1" d="M254.2,194.05a.27.27,0,1,0-.27-.27A.27.27,0,0,0,254.2,194.05Z"/><circle class="cls-1" cx="250.87" cy="200.23" r="0.27"/><circle class="cls-1" cx="247.18" cy="206.49" r="0.27"/><path class="cls-1" d="M243.15,212.79a.27.27,0,1,0-.27-.27A.27.27,0,0,0,243.15,212.79Z"/><path class="cls-1" d="M238.78,218.59a.27.27,0,1,0-.27-.27A.27.27,0,0,0,238.78,218.59Z"/><path class="cls-1" d="M234.1,224.14a.27.27,0,1,0-.27-.27A.27.27,0,0,0,234.1,224.14Z"/><circle class="cls-1" cx="229.11" cy="229.15" r="0.27"/><circle class="cls-1" cx="223.84" cy="234.13" r="0.27"/><circle class="cls-1" cx="218.29" cy="238.82" r="0.27"/><path class="cls-1" d="M212.49,243.45a.27.27,0,1,0-.27-.27A.27.27,0,0,0,212.49,243.45Z"/><circle class="cls-1" cx="206.45" cy="247.22" r="0.27"/><path class="cls-1" d="M200.2,251.18a.27.27,0,1,0-.27-.27A.27.27,0,0,0,200.2,251.18Z"/><path class="cls-1" d="M193.75,254.51a.27.27,0,1,0-.27-.27A.27.27,0,0,0,193.75,254.51Z"/><path class="cls-1" d="M187.12,257.47a.27.27,0,1,0-.27-.27A.27.27,0,0,0,187.12,257.47Z"/><circle class="cls-1" cx="180.34" cy="259.79" r="0.27"/><circle class="cls-1" cx="173.42" cy="262" r="0.27"/><path class="cls-1" d="M166.39,264.08a.27.27,0,1,0-.27-.27A.27.27,0,0,0,166.39,264.08Z"/><path class="cls-1" d="M159.27,265.5a.27.27,0,1,0-.27-.27A.27.27,0,0,0,159.27,265.5Z"/><circle class="cls-1" cx="152.08" cy="266.24" r="0.27"/><path class="cls-1" d="M144.84,267.12a.27.27,0,0,0,.27-.27.27.27,0,1,0-.53,0A.27.27,0,0,0,144.84,267.12Z"/><path class="cls-1" d="M137.59,267.33a.27.27,0,1,0-.27-.27A.27.27,0,0,0,137.59,267.33Z"/><circle class="cls-1" cx="130.33" cy="266.85" r="0.27"/><circle class="cls-1" cx="123.1" cy="266.24" r="0.27"/><path class="cls-1" d="M115.91,265.5a.27.27,0,1,0-.27-.27A.27.27,0,0,0,115.91,265.5Z"/><path class="cls-1" d="M108.79,264.08a.27.27,0,1,0-.27-.27A.27.27,0,0,0,108.79,264.08Z"/><path class="cls-1" d="M101.76,262.27a.27.27,0,1,0-.27-.27A.27.27,0,0,0,101.76,262.27Z"/><circle class="cls-1" cx="94.84" cy="259.79" r="0.27"/><path class="cls-1" d="M88.06,257.47a.27.27,0,1,0-.27-.27A.27.27,0,0,0,88.06,257.47Z"/><path class="cls-1" d="M81.43,254.51a.27.27,0,1,0-.27-.27A.27.27,0,0,0,81.43,254.51Z"/><path class="cls-1" d="M75,251.18a.27.27,0,1,0-.27-.27A.27.27,0,0,0,75,251.18Z"/><circle class="cls-1" cx="68.72" cy="247.22" r="0.27"/><circle class="cls-1" cx="62.69" cy="243.18" r="0.27"/><circle class="cls-1" cx="56.89" cy="238.82" r="0.27"/><path class="cls-1" d="M51.34,234.4a.27.27,0,1,0-.27-.27A.27.27,0,0,0,51.34,234.4Z"/><path class="cls-1" d="M46.06,229.42a.27.27,0,0,0,0-.54.27.27,0,0,0,0,.54Z"/><path class="cls-1" d="M41.08,224.14a.27.27,0,0,0,0-.54.27.27,0,1,0,0,.54Z"/><path class="cls-1" d="M36.39,218.59a.27.27,0,1,0-.27-.27A.27.27,0,0,0,36.39,218.59Z"/><path class="cls-1" d="M32,212.79a.27.27,0,1,0-.27-.27A.27.27,0,0,0,32,212.79Z"/><path class="cls-1" d="M28,206.76a.27.27,0,1,0-.27-.27A.27.27,0,0,0,28,206.76Z"/><circle class="cls-1" cx="24.3" cy="200.23" r="0.27"/><path class="cls-1" d="M21,194.05a.27.27,0,1,0-.27-.27A.27.27,0,0,0,21,194.05Z"/><path class="cls-1" d="M18,187.42a.27.27,0,1,0,0-.53.27.27,0,1,0,0,.53Z"/><circle class="cls-1" cx="15.42" cy="180.37" r="0.27"/><circle class="cls-1" cx="13.21" cy="173.46" r="0.27"/><circle class="cls-1" cx="11.4" cy="166.43" r="0.27"/><path class="cls-1" d="M10,159.57a.27.27,0,1,0-.27-.27A.27.27,0,0,0,10,159.57Z"/><circle class="cls-1" cx="8.97" cy="152.12" r="0.27"/><path class="cls-1" d="M8.36,145.15a.27.27,0,1,0-.27-.27A.27.27,0,0,0,8.36,145.15Z"/><path class="cls-1" d="M8.15,137.89a.27.27,0,1,0,0-.54.27.27,0,0,0,0,.54Z"/><path class="cls-1" d="M8.36,130.64a.28.28,0,0,0,.27-.27.27.27,0,1,0-.54,0A.28.28,0,0,0,8.36,130.64Z"/><circle class="cls-1" cx="8.97" cy="123.13" r="0.27"/><circle class="cls-1" cx="9.98" cy="115.94" r="0.27"/><circle class="cls-1" cx="11.4" cy="108.82" r="0.27"/><circle class="cls-1" cx="13.21" cy="101.79" r="0.27"/><circle class="cls-1" cx="15.42" cy="94.87" r="0.27"/><circle class="cls-1" cx="18.01" cy="88.09" r="0.27"/><path class="cls-1" d="M21,81.73a.27.27,0,1,0-.27-.27A.27.27,0,0,0,21,81.73Z"/><circle class="cls-1" cx="24.3" cy="75.01" r="0.27"/><path class="cls-1" d="M28,69a.27.27,0,1,0-.27-.27A.27.27,0,0,0,28,69Z"/><path class="cls-1" d="M32,63a.27.27,0,0,0,.27-.27.27.27,0,0,0-.54,0A.27.27,0,0,0,32,63Z"/><path class="cls-1" d="M36.39,57.19a.27.27,0,1,0-.27-.27A.27.27,0,0,0,36.39,57.19Z"/><circle class="cls-1" cx="41.08" cy="51.38" r="0.27"/><path class="cls-1" d="M46.06,46.37a.27.27,0,1,0,0-.54.27.27,0,1,0,0,.54Z"/><path class="cls-1" d="M51.34,41.38a.27.27,0,1,0-.27-.27A.27.27,0,0,0,51.34,41.38Z"/><circle class="cls-1" cx="56.89" cy="36.43" r="0.27"/><circle class="cls-1" cx="62.69" cy="32.06" r="0.27"/><circle class="cls-1" cx="68.72" cy="28.03" r="0.27"/><path class="cls-1" d="M75,24.61a.27.27,0,1,0-.27-.27A.27.27,0,0,0,75,24.61Z"/><path class="cls-1" d="M81.43,21.28a.27.27,0,1,0-.27-.27A.27.27,0,0,0,81.43,21.28Z"/><path class="cls-1" d="M88.06,18.31a.27.27,0,1,0-.27-.27A.27.27,0,0,0,88.06,18.31Z"/><circle class="cls-1" cx="94.84" cy="15.45" r="0.27"/><path class="cls-1" d="M101.76,13.52a.27.27,0,1,0-.27-.27A.27.27,0,0,0,101.76,13.52Z"/><path class="cls-1" d="M108.79,11.7a.27.27,0,1,0-.27-.27A.27.27,0,0,0,108.79,11.7Z"/><path class="cls-1" d="M115.91,10.29a.27.27,0,1,0-.27-.27A.27.27,0,0,0,115.91,10.29Z"/><circle class="cls-1" cx="123.1" cy="9" r="0.27"/><circle class="cls-1" cx="130.33" cy="8.39" r="0.27"/><path class="cls-1" d="M137.59,8.46a.27.27,0,1,0-.27-.27A.27.27,0,0,0,137.59,8.46Z"/><path class="cls-1" d="M144.84,8.66a.27.27,0,1,0-.26-.27A.27.27,0,0,0,144.84,8.66Z"/><circle class="cls-1" cx="152.08" cy="9" r="0.27"/><circle class="cls-1" cx="159.27" cy="10.02" r="0.27"/><path class="cls-1" d="M166.39,11.7a.27.27,0,1,0-.27-.27A.27.27,0,0,0,166.39,11.7Z"/><path class="cls-1" d="M173.42,13.52a.27.27,0,1,0-.27-.27A.27.27,0,0,0,173.42,13.52Z"/><circle class="cls-1" cx="180.34" cy="15.45" r="0.27"/><circle class="cls-1" cx="187.12" cy="18.04" r="0.27"/><path class="cls-1" d="M193.75,21.28a.27.27,0,1,0-.27-.27A.27.27,0,0,0,193.75,21.28Z"/><path class="cls-1" d="M200.2,24.61a.27.27,0,1,0-.27-.27A.27.27,0,0,0,200.2,24.61Z"/><circle class="cls-1" cx="206.45" cy="28.03" r="0.27"/><path class="cls-1" d="M212.49,32.33a.27.27,0,1,0-.27-.27A.27.27,0,0,0,212.49,32.33Z"/><circle class="cls-1" cx="218.29" cy="36.43" r="0.27"/><circle class="cls-1" cx="223.84" cy="41.11" r="0.27"/><circle class="cls-1" cx="229.11" cy="46.1" r="0.27"/><circle class="cls-1" cx="234.1" cy="51.38" r="0.27"/><path class="cls-1" d="M238.78,57.19a.27.27,0,1,0-.27-.27A.27.27,0,0,0,238.78,57.19Z"/><path class="cls-1" d="M243.15,63a.27.27,0,0,0,.27-.27.27.27,0,0,0-.54,0A.27.27,0,0,0,243.15,63Z"/><circle class="cls-1" cx="247.18" cy="68.76" r="0.27"/><circle class="cls-1" cx="250.87" cy="75.01" r="0.27"/><path class="cls-1" d="M254.2,81.73a.27.27,0,1,0-.27-.27A.27.27,0,0,0,254.2,81.73Z"/><path class="cls-1" d="M257.17,88.36a.27.27,0,1,0-.27-.27A.27.27,0,0,0,257.17,88.36Z"/><path class="cls-1" d="M259.76,95.14a.27.27,0,1,0-.27-.27A.27.27,0,0,0,259.76,95.14Z"/><circle class="cls-1" cx="261.96" cy="101.79" r="0.27"/><circle class="cls-1" cx="263.78" cy="108.82" r="0.27"/><circle class="cls-1" cx="265.19" cy="115.94" r="0.27"/><circle class="cls-1" cx="266.21" cy="123.13" r="0.27"/><circle class="cls-1" cx="266.82" cy="130.37" r="0.27"/><path class="cls-1" d="M275.11,137.76a.14.14,0,0,0,.14-.14.13.13,0,0,0-.14-.13.13.13,0,0,0-.13.13A.13.13,0,0,0,275.11,137.76Z"/><circle class="cls-1" cx="274.92" cy="144.88" r="0.13"/><circle class="cls-1" cx="274.34" cy="152.12" r="0.13"/><circle class="cls-1" cx="273.39" cy="159.32" r="0.13"/><circle class="cls-1" cx="272.06" cy="166.45" r="0.13"/><circle class="cls-1" cx="270.35" cy="173.51" r="0.13"/><path class="cls-1" d="M268.27,180.6a.13.13,0,0,0,.13-.13.13.13,0,0,0-.13-.14.14.14,0,0,0-.14.14A.13.13,0,0,0,268.27,180.6Z"/><path class="cls-1" d="M265.82,187.44a.14.14,0,0,0,.14-.14.13.13,0,0,0-.14-.13.13.13,0,0,0-.13.13A.13.13,0,0,0,265.82,187.44Z"/><circle class="cls-1" cx="263.02" cy="194" r="0.13"/><circle class="cls-1" cx="259.87" cy="200.54" r="0.13"/><path class="cls-1" d="M256.38,207a.13.13,0,0,0,.14-.13.14.14,0,0,0-.14-.14.13.13,0,0,0-.13.14A.13.13,0,0,0,256.38,207Z"/><circle class="cls-1" cx="252.56" cy="213.08" r="0.13"/><circle class="cls-1" cx="248.42" cy="219.04" r="0.13"/><circle class="cls-1" cx="243.97" cy="224.78" r="0.13"/><path class="cls-1" d="M239.22,230.41a.13.13,0,0,0,.13-.14.13.13,0,0,0-.13-.13.13.13,0,0,0-.14.13A.14.14,0,0,0,239.22,230.41Z"/><path class="cls-1" d="M234.19,235.64a.13.13,0,0,0,.13-.13.13.13,0,0,0-.13-.14.14.14,0,0,0-.14.14A.13.13,0,0,0,234.19,235.64Z"/><path class="cls-1" d="M228.89,240.6a.13.13,0,0,0,.13-.13.13.13,0,0,0-.13-.14.14.14,0,0,0-.14.14A.13.13,0,0,0,228.89,240.6Z"/><path class="cls-1" d="M223.33,245.28a.14.14,0,0,0,.14-.14.13.13,0,0,0-.14-.13.13.13,0,0,0-.13.13A.13.13,0,0,0,223.33,245.28Z"/><path class="cls-1" d="M217.54,249.65a.13.13,0,0,0,.13-.13.13.13,0,0,0-.13-.14.14.14,0,0,0-.14.14A.13.13,0,0,0,217.54,249.65Z"/><circle class="cls-1" cx="211.52" cy="253.58" r="0.13"/><path class="cls-1" d="M205.3,257.46a.13.13,0,0,0,.13-.14.13.13,0,0,0-.13-.13.13.13,0,0,0-.14.13A.14.14,0,0,0,205.3,257.46Z"/><circle class="cls-1" cx="198.89" cy="260.73" r="0.13"/><circle class="cls-1" cx="192.3" cy="263.79" r="0.13"/><path class="cls-1" d="M185.57,266.64a.13.13,0,0,0,.13-.14.13.13,0,0,0-.26,0A.13.13,0,0,0,185.57,266.64Z"/><circle class="cls-1" cx="178.7" cy="268.86" r="0.13"/><path class="cls-1" d="M171.72,271a.13.13,0,0,0,.13-.14.13.13,0,0,0-.13-.13.13.13,0,0,0-.14.13A.14.14,0,0,0,171.72,271Z"/><path class="cls-1" d="M164.64,272.59a.13.13,0,0,0,0-.26.13.13,0,1,0,0,.26Z"/><circle class="cls-1" cx="157.49" cy="273.7" r="0.13"/><circle class="cls-1" cx="150.28" cy="274.56" r="0.13"/><circle class="cls-1" cx="143.03" cy="275.04" r="0.13"/><circle class="cls-1" cx="135.77" cy="275.14" r="0.13"/><circle class="cls-1" cx="128.52" cy="274.85" r="0.13"/><path class="cls-1" d="M121.29,274.31a.13.13,0,0,0,.13-.13.13.13,0,0,0-.13-.14.14.14,0,0,0-.14.14A.13.13,0,0,0,121.29,274.31Z"/><path class="cls-1" d="M114.1,273.26a.13.13,0,0,0,.14-.13.14.14,0,0,0-.14-.14.13.13,0,0,0-.13.14A.13.13,0,0,0,114.1,273.26Z"/><circle class="cls-1" cx="106.99" cy="271.7" r="0.13"/><circle class="cls-1" cx="99.95" cy="269.9" r="0.13"/><circle class="cls-1" cx="93.02" cy="267.73" r="0.13"/><circle class="cls-1" cx="86.22" cy="265.19" r="0.13"/><path class="cls-1" d="M79.56,262.44a.13.13,0,0,0,.13-.14.13.13,0,0,0-.13-.13.13.13,0,0,0-.14.13A.14.14,0,0,0,79.56,262.44Z"/><circle class="cls-1" cx="73.06" cy="259.07" r="0.13"/><circle class="cls-1" cx="66.74" cy="255.49" r="0.13"/><circle class="cls-1" cx="60.62" cy="251.59" r="0.13"/><circle class="cls-1" cx="54.71" cy="247.37" r="0.13"/><circle class="cls-1" cx="49.03" cy="242.84" r="0.13"/><path class="cls-1" d="M43.61,238.16a.13.13,0,0,0,.13-.14.13.13,0,0,0-.13-.13.13.13,0,0,0-.14.13A.14.14,0,0,0,43.61,238.16Z"/><path class="cls-1" d="M38.44,233.06a.13.13,0,0,0,.13-.14.13.13,0,0,0-.13-.13.13.13,0,0,0-.14.13A.14.14,0,0,0,38.44,233.06Z"/><circle class="cls-1" cx="33.55" cy="227.56" r="0.13"/><path class="cls-1" d="M29,222.08a.13.13,0,0,0,.13-.14.13.13,0,0,0-.13-.13.13.13,0,0,0-.14.13A.14.14,0,0,0,29,222.08Z"/><path class="cls-1" d="M24.65,216.22a.13.13,0,0,0,0-.26.13.13,0,1,0,0,.26Z"/><circle class="cls-1" cx="20.66" cy="210.02" r="0.13"/><circle class="cls-1" cx="17" cy="203.75" r="0.13"/><circle class="cls-1" cx="13.68" cy="197.29" r="0.13"/><circle class="cls-1" cx="10.71" cy="190.67" r="0.13"/><path class="cls-1" d="M8.08,184a.11.11,0,1,0,0-.22.11.11,0,1,0,0,.22Z"/><path class="cls-1" d="M5.82,177.11a.11.11,0,1,0-.11-.11A.11.11,0,0,0,5.82,177.11Z"/><path class="cls-1" d="M3.93,170.1a.11.11,0,1,0-.11-.11A.11.11,0,0,0,3.93,170.1Z"/><path class="cls-1" d="M2.41,163a.11.11,0,0,0,.11-.12.11.11,0,0,0-.11-.11.11.11,0,0,0-.12.11A.12.12,0,0,0,2.41,163Z"/><path class="cls-1" d="M1.26,155.84a.11.11,0,0,0,.11-.12.11.11,0,0,0-.22,0A.11.11,0,0,0,1.26,155.84Z"/><path class="cls-1" d="M.5,148.62a.11.11,0,0,0,.11-.12.11.11,0,0,0-.11-.11.11.11,0,0,0-.12.11A.12.12,0,0,0,.5,148.62Z"/><path class="cls-1" d="M.11,141.37a.11.11,0,0,0,.11-.12.11.11,0,0,0-.11-.11.11.11,0,0,0-.11.11A.11.11,0,0,0,.11,141.37Z"/><path class="cls-1" d="M.11,134.11A.11.11,0,0,0,.22,134a.11.11,0,0,0-.11-.11A.11.11,0,0,0,0,134,.11.11,0,0,0,.11,134.11Z"/><circle class="cls-1" cx="0.5" cy="126.74" r="0.11"/><path class="cls-1" d="M1.26,119.64a.11.11,0,0,0,.11-.12.11.11,0,0,0-.22,0A.11.11,0,0,0,1.26,119.64Z"/><circle class="cls-1" cx="2.41" cy="112.35" r="0.11"/><path class="cls-1" d="M3.93,105.37a.11.11,0,0,0,.11-.12.11.11,0,0,0-.22,0A.11.11,0,0,0,3.93,105.37Z"/><path class="cls-1" d="M5.82,98.38A.13.13,0,0,0,6,98.25a.14.14,0,0,0-.14-.14.13.13,0,0,0-.13.14A.13.13,0,0,0,5.82,98.38Z"/><path class="cls-1" d="M8.08,91.46a.11.11,0,0,0,.12-.11.12.12,0,0,0-.12-.12.11.11,0,0,0-.11.12A.11.11,0,0,0,8.08,91.46Z"/><circle class="cls-1" cx="10.71" cy="84.58" r="0.11"/><path class="cls-1" d="M13.68,78.07A.12.12,0,0,0,13.8,78a.11.11,0,0,0-.12-.11.11.11,0,0,0-.11.11A.11.11,0,0,0,13.68,78.07Z"/><circle class="cls-1" cx="17" cy="71.5" r="0.11"/><path class="cls-1" d="M20.66,65.34a.11.11,0,0,0,.11-.11.11.11,0,1,0-.22,0A.11.11,0,0,0,20.66,65.34Z"/><path class="cls-1" d="M24.65,59.27a.11.11,0,0,0,.11-.11.12.12,0,0,0-.11-.12.12.12,0,0,0-.12.12A.11.11,0,0,0,24.65,59.27Z"/><path class="cls-1" d="M29,53.42a.11.11,0,0,0,.11-.11.11.11,0,0,0-.11-.12.12.12,0,0,0-.12.12A.11.11,0,0,0,29,53.42Z"/><path class="cls-1" d="M33.55,47.8a.11.11,0,0,0,0-.22.11.11,0,1,0,0,.22Z"/><circle class="cls-1" cx="38.44" cy="42.32" r="0.11"/><path class="cls-1" d="M43.61,37.34a.11.11,0,0,0,.11-.12.11.11,0,0,0-.11-.11.11.11,0,0,0-.12.11A.12.12,0,0,0,43.61,37.34Z"/><circle class="cls-1" cx="49.03" cy="32.4" r="0.11"/><circle class="cls-1" cx="54.71" cy="27.88" r="0.11"/><circle class="cls-1" cx="60.62" cy="23.66" r="0.11"/><circle class="cls-1" cx="66.74" cy="19.75" r="0.11"/><path class="cls-1" d="M73.06,16.29a.11.11,0,1,0-.11-.11A.11.11,0,0,0,73.06,16.29Z"/><path class="cls-1" d="M79.56,13.05a.11.11,0,1,0-.11-.11A.11.11,0,0,0,79.56,13.05Z"/><circle class="cls-1" cx="86.22" cy="10.05" r="0.11"/><path class="cls-1" d="M93,7.63a.11.11,0,1,0,0-.22.11.11,0,0,0,0,.22Z"/><path class="cls-1" d="M100,5.46a.11.11,0,1,0-.11-.11A.11.11,0,0,0,100,5.46Z"/><circle class="cls-1" cx="106.99" cy="3.55" r="0.11"/><path class="cls-1" d="M114.1,2.23a.11.11,0,1,0,0-.22.11.11,0,0,0,0,.22Z"/><path class="cls-1" d="M121.29,1.18a.11.11,0,1,0-.11-.11A.11.11,0,0,0,121.29,1.18Z"/><circle class="cls-1" cx="128.52" cy="0.4" r="0.11"/><circle class="cls-1" cx="135.77" cy="0.11" r="0.11"/><circle class="cls-1" cx="143.03" cy="0.21" r="0.13"/><path class="cls-1" d="M150.28.8a.11.11,0,0,0,.11-.11.11.11,0,0,0-.11-.12.12.12,0,0,0-.12.12A.11.11,0,0,0,150.28.8Z"/><circle class="cls-1" cx="157.49" cy="1.55" r="0.11"/><path class="cls-1" d="M164.64,2.92a.13.13,0,0,0,.13-.13.13.13,0,0,0-.13-.14.14.14,0,0,0-.14.14A.14.14,0,0,0,164.64,2.92Z"/><path class="cls-1" d="M171.72,4.51a.11.11,0,1,0-.11-.11A.11.11,0,0,0,171.72,4.51Z"/><circle class="cls-1" cx="178.7" cy="6.39" r="0.11"/><path class="cls-1" d="M185.57,8.85a.11.11,0,1,0-.11-.11A.11.11,0,0,0,185.57,8.85Z"/><circle class="cls-1" cx="192.3" cy="11.45" r="0.11"/><circle class="cls-1" cx="198.89" cy="14.52" r="0.13"/><path class="cls-1" d="M205.3,18.06a.13.13,0,0,0,.13-.14.13.13,0,0,0-.13-.13.13.13,0,0,0-.14.13A.14.14,0,0,0,205.3,18.06Z"/><circle class="cls-1" cx="211.52" cy="21.66" r="0.13"/><path class="cls-1" d="M217.54,25.86a.13.13,0,0,0,.13-.13.13.13,0,0,0-.13-.14.14.14,0,0,0-.14.14A.13.13,0,0,0,217.54,25.86Z"/><path class="cls-1" d="M223.33,30.24a.14.14,0,0,0,.14-.14.13.13,0,0,0-.14-.13.13.13,0,0,0-.13.13A.13.13,0,0,0,223.33,30.24Z"/><path class="cls-1" d="M228.89,34.91a.13.13,0,0,0,.13-.13.13.13,0,0,0-.13-.14.14.14,0,0,0-.14.14A.13.13,0,0,0,228.89,34.91Z"/><path class="cls-1" d="M234.19,39.87a.13.13,0,1,0,0-.26.13.13,0,1,0,0,.26Z"/><path class="cls-1" d="M239.22,45.11a.13.13,0,0,0,.13-.14.13.13,0,0,0-.13-.13.13.13,0,0,0-.14.13A.14.14,0,0,0,239.22,45.11Z"/><circle class="cls-1" cx="243.97" cy="50.47" r="0.13"/><circle class="cls-1" cx="248.42" cy="56.2" r="0.13"/><path class="cls-1" d="M252.56,62.3a.14.14,0,0,0,.14-.13.14.14,0,0,0-.14-.14.13.13,0,0,0-.13.14A.13.13,0,0,0,252.56,62.3Z"/><path class="cls-1" d="M256.38,68.47a.13.13,0,0,0,.14-.13.14.14,0,0,0-.14-.14.13.13,0,0,0-.13.14A.13.13,0,0,0,256.38,68.47Z"/><path class="cls-1" d="M259.87,74.84a.14.14,0,0,0,.14-.14.13.13,0,0,0-.14-.13.13.13,0,0,0-.13.13A.13.13,0,0,0,259.87,74.84Z"/><circle class="cls-1" cx="263.02" cy="81.25" r="0.13"/><path class="cls-1" d="M265.82,88.08a.14.14,0,0,0,.14-.14.13.13,0,0,0-.14-.13.13.13,0,0,0-.13.13A.13.13,0,0,0,265.82,88.08Z"/><path class="cls-1" d="M268.27,94.92a.13.13,0,0,0,.13-.14.13.13,0,0,0-.13-.13.13.13,0,0,0-.14.13A.14.14,0,0,0,268.27,94.92Z"/><path class="cls-1" d="M270.35,101.87a.13.13,0,0,0,.13-.13.13.13,0,0,0-.13-.14.14.14,0,0,0-.14.14A.13.13,0,0,0,270.35,101.87Z"/><path class="cls-1" d="M272.06,108.93a.13.13,0,0,0,.13-.14.13.13,0,0,0-.13-.13.13.13,0,0,0-.14.13A.14.14,0,0,0,272.06,108.93Z"/><circle class="cls-1" cx="273.39" cy="115.93" r="0.13"/><circle class="cls-1" cx="274.34" cy="123.13" r="0.13"/><circle class="cls-1" cx="274.92" cy="130.37" r="0.13"/><path class="cls-1" d="M282.48,152.14l0,0a0,0,0,0,0,0,0s0,0,0,0S282.46,152.14,282.48,152.14Z"/><circle class="cls-1" cx="281.57" cy="159.33" r="0.02"/><path class="cls-1" d="M280.31,166.5s0,0,0,0a0,0,0,0,0,0,0s0,0,0,0A0,0,0,0,0,280.31,166.5Z"/><path class="cls-1" d="M278.7,173.58s0,0,0,0a0,0,0,0,0,0,0,0,0,0,0,0,0,0S278.69,173.58,278.7,173.58Z"/><circle class="cls-1" cx="276.73" cy="180.54" r="0.02"/><circle class="cls-1" cx="274.42" cy="187.43" r="0.02"/><path class="cls-1" d="M271.77,194.21s0,0,0,0a0,0,0,0,0,0,0s0,0,0,0A0,0,0,0,0,271.77,194.21Z"/><path class="cls-1" d="M268.78,200.83s0,0,0,0a0,0,0,0,0,0,0,0,0,0,0,0,0,0S268.77,200.83,268.78,200.83Z"/><path class="cls-1" d="M265.47,207.29s0,0,0,0l0,0a0,0,0,0,0,0,0S265.46,207.29,265.47,207.29Z"/><circle class="cls-1" cx="261.84" cy="213.55" r="0.02"/><circle class="cls-1" cx="257.9" cy="219.65" r="0.02"/><path class="cls-1" d="M253.66,225.57l0,0s0,0,0,0,0,0,0,0Z"/><circle class="cls-1" cx="249.13" cy="231.22" r="0.02"/><circle class="cls-1" cx="244.33" cy="236.67" r="0.02"/><path class="cls-1" d="M239.26,241.89s0,0,0,0a0,0,0,0,0,0,0,0,0,0,0,0,0,0S239.25,241.89,239.26,241.89Z"/><circle class="cls-1" cx="233.94" cy="246.8" r="0.02"/><path class="cls-1" d="M228.38,251.49l0,0,0,0s0,0,0,0S228.36,251.49,228.38,251.49Z"/><path class="cls-1" d="M222.59,255.87a0,0,0,0,0,0,0l0,0,0,0A0,0,0,0,0,222.59,255.87Z"/><path class="cls-1" d="M216.59,260l0,0,0,0,0,0Z"/><path class="cls-1" d="M210.39,263.75s0,0,0,0,0,0,0,0a0,0,0,0,0,0,0Z"/><circle class="cls-1" cx="204.02" cy="267.2" r="0.02"/><path class="cls-1" d="M197.48,270.37l0,0a0,0,0,0,0,0,0s0,0,0,0S197.46,270.37,197.48,270.37Z"/><path class="cls-1" d="M190.79,273.19l0,0a0,0,0,0,0,0,0s0,0,0,0S190.77,273.19,190.79,273.19Z"/><circle class="cls-1" cx="183.96" cy="275.65" r="0.02"/><path class="cls-1" d="M177,277.82s0,0,0,0a0,0,0,0,0,0,0s0,0,0,0A0,0,0,0,0,177,277.82Z"/><circle class="cls-1" cx="169.99" cy="279.59" r="0.02"/><path class="cls-1" d="M162.87,281.05a0,0,0,0,0,0,0s0,0,0,0l0,0S162.86,281.05,162.87,281.05Z"/><circle class="cls-1" cx="155.69" cy="282.11" r="0.02"/><path class="cls-1" d="M148.47,282.85l0,0,0,0,0,0Z"/><path class="cls-1" d="M126.71,282.85l0,0,0,0s0,0,0,0S126.69,282.85,126.71,282.85Z"/><path class="cls-1" d="M112.3,281.05s0,0,0,0l0,0,0,0S112.29,281.05,112.3,281.05Z"/><path class="cls-1" d="M276.73,94.73s0,0,0,0a0,0,0,0,0,0,0,0,0,0,0,0,0,0S276.72,94.73,276.73,94.73Z"/><path class="cls-1" d="M282.48,123.15a0,0,0,0,0,0,0s0,0,0,0a0,0,0,0,0,0,0S282.46,123.15,282.48,123.15Z"/></g></g></svg>