<svg xmlns="http://www.w3.org/2000/svg" viewBox="0 0 291.27 291.27"><defs><style>.cls-1{fill:#1a1a1a;}</style></defs><title>Asset 148mdpi</title><g id="Layer_2" data-name="Layer 2"><g id="Layer_1-2" data-name="Layer 1"><path class="cls-1" d="M145.64,0a0,0,0,0,0,0,0,0,0,0,0,0,0,0s0,0,0,0S145.62,0,145.64,0Z"/><path class="cls-1" d="M105.19,8.13a0,0,0,0,0,0,0,0,0,0,0,0,0,0s0,0,0,0S105.17,8.13,105.19,8.13Z"/><path class="cls-1" d="M113.28,8.16a0,0,0,0,0,0-.05,0,0,0,0,0,0,0,0,0,0,0,0,0,0A0,0,0,0,0,113.28,8.16Z"/><path class="cls-1" d="M121.37,8.2a.09.09,0,1,0-.09-.09A.09.09,0,0,0,121.37,8.2Z"/><path class="cls-1" d="M129.46,8.22a.11.11,0,1,0,0-.22.11.11,0,1,0,0,.22Z"/><path class="cls-1" d="M137.55,8.22a.11.11,0,1,0,0-.22.11.11,0,1,0,0,.22Z"/><path class="cls-1" d="M145.64,8.22a.11.11,0,0,0,0-.22.11.11,0,1,0,0,.22Z"/><path class="cls-1" d="M153.73,8.22a.11.11,0,0,0,0-.22.11.11,0,1,0,0,.22Z"/><path class="cls-1" d="M161.81,8.22a.11.11,0,1,0,0-.22.11.11,0,1,0,0,.22Z"/><path class="cls-1" d="M169.9,8.2a.09.09,0,1,0-.09-.09A.09.09,0,0,0,169.9,8.2Z"/><path class="cls-1" d="M178,8.18A.07.07,0,1,0,178,8a.07.07,0,0,0,0,.14Z"/><path class="cls-1" d="M186.08,8.13s0,0,0,0,0,0,0,0a0,0,0,0,0,0,0A0,0,0,0,0,186.08,8.09Z"/><path class="cls-1" d="M80.92,16.22a0,0,0,0,0,0,0,0,0,0,0,0,0,0,0,0,0,0,0,0,0A0,0,0,0,0,80.92,16.18Z"/><path class="cls-1" d="M89,16.25a0,0,0,0,0,0-.05,0,0,0,0,0,0,0,0,0,0,0,0-.05,0A0,0,0,0,0,89,16.25Z"/><path class="cls-1" d="M97.1,16.31A.11.11,0,1,0,97,16.2.11.11,0,0,0,97.1,16.31Z"/><path class="cls-1" d="M105.19,16.36a.16.16,0,0,0,0-.32.16.16,0,0,0,0,.32Z"/><path class="cls-1" d="M113.28,16.4a.2.2,0,1,0-.2-.2A.2.2,0,0,0,113.28,16.4Z"/><path class="cls-1" d="M121.37,16.43a.22.22,0,0,0,.22-.23.22.22,0,0,0-.22-.22.23.23,0,1,0,0,.45Z"/><path class="cls-1" d="M129.46,16.45a.25.25,0,0,0,.24-.25.25.25,0,1,0-.49,0A.25.25,0,0,0,129.46,16.45Z"/><path class="cls-1" d="M137.55,16.45a.25.25,0,0,0,.24-.25.25.25,0,1,0-.49,0A.25.25,0,0,0,137.55,16.45Z"/><path class="cls-1" d="M145.64,16.47a.27.27,0,1,0-.27-.27A.27.27,0,0,0,145.64,16.47Z"/><path class="cls-1" d="M153.73,16.47a.27.27,0,1,0-.27-.27A.27.27,0,0,0,153.73,16.47Z"/><path class="cls-1" d="M161.81,16.45a.25.25,0,0,0,.25-.25.25.25,0,1,0-.49,0A.25.25,0,0,0,161.81,16.45Z"/><path class="cls-1" d="M169.9,16.43a.23.23,0,1,0,0-.45.22.22,0,0,0-.22.22A.22.22,0,0,0,169.9,16.43Z"/><path class="cls-1" d="M178,16.4a.2.2,0,1,0,0-.4.2.2,0,0,0,0,.4Z"/><path class="cls-1" d="M186.08,16.36a.16.16,0,1,0,0-.32.16.16,0,0,0,0,.32Z"/><path class="cls-1" d="M194.17,16.31a.11.11,0,1,0,0-.22.11.11,0,0,0,0,.22Z"/><path class="cls-1" d="M202.26,16.27a.07.07,0,0,0,0-.14.07.07,0,0,0,0,.14Z"/><path class="cls-1" d="M210.35,16.22a0,0,0,0,0,0,0,0,0,0,0,0,0,0l0,0A0,0,0,0,0,210.35,16.22Z"/><path class="cls-1" d="M72.83,24.34a0,0,0,0,0,0-.05,0,0,0,0,0,0,0,0,0,0,0,0,0,0A0,0,0,0,0,72.83,24.34Z"/><path class="cls-1" d="M80.92,24.4a.11.11,0,1,0-.11-.11A.11.11,0,0,0,80.92,24.4Z"/><path class="cls-1" d="M89,24.47a.18.18,0,1,0-.18-.18A.18.18,0,0,0,89,24.47Z"/><path class="cls-1" d="M97.1,24.54a.25.25,0,1,0-.25-.25A.25.25,0,0,0,97.1,24.54Z"/><path class="cls-1" d="M105.19,24.58a.29.29,0,1,0-.29-.29A.29.29,0,0,0,105.19,24.58Z"/><path class="cls-1" d="M113.28,24.63a.34.34,0,0,0,.33-.34.34.34,0,1,0-.67,0A.34.34,0,0,0,113.28,24.63Z"/><path class="cls-1" d="M121.37,24.65a.36.36,0,1,0,0-.72.36.36,0,0,0,0,.72Z"/><path class="cls-1" d="M129.46,24.67a.38.38,0,0,0,0-.76.38.38,0,1,0,0,.76Z"/><path class="cls-1" d="M137.55,24.7a.41.41,0,0,0,.4-.41.41.41,0,0,0-.81,0A.41.41,0,0,0,137.55,24.7Z"/><path class="cls-1" d="M145.64,24.7a.41.41,0,0,0,.4-.41.41.41,0,0,0-.81,0A.41.41,0,0,0,145.64,24.7Z"/><path class="cls-1" d="M153.73,24.7a.41.41,0,0,0,.4-.41.41.41,0,0,0-.81,0A.41.41,0,0,0,153.73,24.7Z"/><path class="cls-1" d="M161.81,24.67a.38.38,0,1,0-.38-.38A.38.38,0,0,0,161.81,24.67Z"/><path class="cls-1" d="M169.9,24.65a.36.36,0,1,0-.35-.36A.36.36,0,0,0,169.9,24.65Z"/><path class="cls-1" d="M178,24.63a.34.34,0,0,0,.34-.34.34.34,0,1,0-.67,0A.34.34,0,0,0,178,24.63Z"/><path class="cls-1" d="M186.08,24.58a.29.29,0,1,0-.29-.29A.29.29,0,0,0,186.08,24.58Z"/><path class="cls-1" d="M194.17,24.54a.25.25,0,1,0-.24-.25A.25.25,0,0,0,194.17,24.54Z"/><path class="cls-1" d="M202.26,24.47a.18.18,0,1,0-.18-.18A.18.18,0,0,0,202.26,24.47Z"/><path class="cls-1" d="M210.35,24.43a.14.14,0,0,0,.14-.14.13.13,0,0,0-.14-.13.13.13,0,0,0-.13.13A.13.13,0,0,0,210.35,24.43Z"/><path class="cls-1" d="M218.44,24.36a.07.07,0,1,0-.07-.07A.07.07,0,0,0,218.44,24.36Z"/><path class="cls-1" d="M56.65,32.4l0,0a0,0,0,0,0,0,0,0,0,0,0,0,0,0Z"/><path class="cls-1" d="M64.74,32.47a.09.09,0,1,0-.09-.09A.09.09,0,0,0,64.74,32.47Z"/><path class="cls-1" d="M72.83,32.56a.18.18,0,1,0-.18-.18A.18.18,0,0,0,72.83,32.56Z"/><path class="cls-1" d="M80.92,32.63a.25.25,0,0,0,0-.5.25.25,0,0,0,0,.5Z"/><path class="cls-1" d="M89,32.69a.31.31,0,1,0-.32-.31A.31.31,0,0,0,89,32.69Z"/><path class="cls-1" d="M97.1,32.74a.36.36,0,1,0-.36-.36A.36.36,0,0,0,97.1,32.74Z"/><path class="cls-1" d="M105.19,32.81a.42.42,0,0,0,.42-.43.43.43,0,1,0-.85,0A.43.43,0,0,0,105.19,32.81Z"/><path class="cls-1" d="M113.28,32.85a.47.47,0,1,0-.47-.47A.47.47,0,0,0,113.28,32.85Z"/><path class="cls-1" d="M121.37,32.87a.49.49,0,1,0-.5-.49A.49.49,0,0,0,121.37,32.87Z"/><path class="cls-1" d="M129.46,32.9a.51.51,0,0,0,.51-.52.52.52,0,1,0-.51.52Z"/><path class="cls-1" d="M137.55,32.92a.54.54,0,1,0-.54-.54A.54.54,0,0,0,137.55,32.92Z"/><path class="cls-1" d="M145.64,32.92a.54.54,0,1,0-.54-.54A.54.54,0,0,0,145.64,32.92Z"/><path class="cls-1" d="M153.73,32.92a.54.54,0,1,0-.54-.54A.54.54,0,0,0,153.73,32.92Z"/><path class="cls-1" d="M161.81,32.9a.52.52,0,0,0,.52-.52.52.52,0,1,0-1,0A.51.51,0,0,0,161.81,32.9Z"/><path class="cls-1" d="M169.9,32.87a.49.49,0,1,0-.49-.49A.49.49,0,0,0,169.9,32.87Z"/><path class="cls-1" d="M178,32.85a.47.47,0,1,0-.47-.47A.47.47,0,0,0,178,32.85Z"/><path class="cls-1" d="M186.08,32.81a.43.43,0,0,0,.43-.43.43.43,0,1,0-.85,0A.42.42,0,0,0,186.08,32.81Z"/><path class="cls-1" d="M194.17,32.76a.38.38,0,1,0-.38-.38A.38.38,0,0,0,194.17,32.76Z"/><path class="cls-1" d="M202.26,32.69a.31.31,0,1,0-.31-.31A.31.31,0,0,0,202.26,32.69Z"/><path class="cls-1" d="M210.35,32.63a.25.25,0,1,0-.24-.25A.25.25,0,0,0,210.35,32.63Z"/><path class="cls-1" d="M218.44,32.56a.18.18,0,1,0-.18-.18A.18.18,0,0,0,218.44,32.56Z"/><path class="cls-1" d="M226.53,32.47a.09.09,0,1,0-.09-.09A.09.09,0,0,0,226.53,32.47Z"/><path class="cls-1" d="M234.62,32.4l0,0a0,0,0,0,0,0,0,0,0,0,0,0,0,0Z"/><path class="cls-1" d="M48.56,40.49l0,0,0,0a0,0,0,0,0,0,0A0,0,0,0,0,48.56,40.45Z"/><path class="cls-1" d="M56.65,40.58a.11.11,0,1,0-.11-.11A.11.11,0,0,0,56.65,40.58Z"/><path class="cls-1" d="M64.74,40.67a.2.2,0,1,0-.2-.2A.2.2,0,0,0,64.74,40.67Z"/><path class="cls-1" d="M72.83,40.76a.29.29,0,1,0-.29-.29A.29.29,0,0,0,72.83,40.76Z"/><path class="cls-1" d="M80.92,40.83a.36.36,0,1,0-.36-.36A.36.36,0,0,0,80.92,40.83Z"/><path class="cls-1" d="M89,40.9a.42.42,0,0,0,.42-.43.43.43,0,1,0-.85,0A.43.43,0,0,0,89,40.9Z"/><path class="cls-1" d="M97.1,41a.49.49,0,0,0,0-1,.49.49,0,1,0,0,1Z"/><path class="cls-1" d="M105.19,41a.56.56,0,1,0-.56-.56A.56.56,0,0,0,105.19,41Z"/><path class="cls-1" d="M113.28,41.08a.61.61,0,1,0-.61-.61A.61.61,0,0,0,113.28,41.08Z"/><path class="cls-1" d="M121.37,41.1a.63.63,0,1,0-.63-.63A.63.63,0,0,0,121.37,41.1Z"/><path class="cls-1" d="M129.46,41.14a.67.67,0,1,0-.68-.67A.67.67,0,0,0,129.46,41.14Z"/><path class="cls-1" d="M137.55,41.14a.67.67,0,1,0-.68-.67A.67.67,0,0,0,137.55,41.14Z"/><path class="cls-1" d="M145.64,41.17a.7.7,0,0,0,.69-.7.7.7,0,0,0-1.39,0A.7.7,0,0,0,145.64,41.17Z"/><path class="cls-1" d="M153.73,41.14a.67.67,0,1,0-.68-.67A.67.67,0,0,0,153.73,41.14Z"/><path class="cls-1" d="M161.81,41.14a.67.67,0,1,0-.67-.67A.67.67,0,0,0,161.81,41.14Z"/><path class="cls-1" d="M169.9,41.12a.65.65,0,1,0-.65-.65A.65.65,0,0,0,169.9,41.12Z"/><path class="cls-1" d="M178,41.08a.61.61,0,1,0-.6-.61A.61.61,0,0,0,178,41.08Z"/><path class="cls-1" d="M186.08,41a.56.56,0,1,0-.56-.56A.56.56,0,0,0,186.08,41Z"/><path class="cls-1" d="M194.17,41a.49.49,0,1,0-.49-.49A.49.49,0,0,0,194.17,41Z"/><path class="cls-1" d="M202.26,40.92a.45.45,0,1,0-.45-.45A.45.45,0,0,0,202.26,40.92Z"/><path class="cls-1" d="M210.35,40.85a.38.38,0,1,0-.38-.38A.38.38,0,0,0,210.35,40.85Z"/><path class="cls-1" d="M218.44,40.76a.29.29,0,1,0-.29-.29A.29.29,0,0,0,218.44,40.76Z"/><path class="cls-1" d="M226.53,40.67a.2.2,0,1,0-.2-.2A.2.2,0,0,0,226.53,40.67Z"/><path class="cls-1" d="M234.62,40.58a.11.11,0,1,0-.11-.11A.11.11,0,0,0,234.62,40.58Z"/><path class="cls-1" d="M242.71,40.52a0,0,0,0,0,0-.05,0,0,0,0,0,0,0,0,0,0,0,0,0,0A0,0,0,0,0,242.71,40.52Z"/><path class="cls-1" d="M40.47,48.58l0,0a0,0,0,0,0,0,0,0,0,0,0,0,0,0Z"/><path class="cls-1" d="M48.56,48.67a.11.11,0,1,0-.11-.11A.11.11,0,0,0,48.56,48.67Z"/><path class="cls-1" d="M56.65,48.78a.22.22,0,1,0-.22-.22A.22.22,0,0,0,56.65,48.78Z"/><path class="cls-1" d="M64.74,48.87a.31.31,0,1,0-.31-.31A.31.31,0,0,0,64.74,48.87Z"/><path class="cls-1" d="M72.83,49a.4.4,0,1,0-.4-.4A.4.4,0,0,0,72.83,49Z"/><path class="cls-1" d="M80.92,49.05a.49.49,0,1,0,0-1,.49.49,0,1,0,0,1Z"/><path class="cls-1" d="M89,49.12a.56.56,0,1,0-.56-.56A.56.56,0,0,0,89,49.12Z"/><path class="cls-1" d="M97.1,49.19a.63.63,0,1,0,0-1.26.63.63,0,0,0,0,1.26Z"/><path class="cls-1" d="M105.19,49.26a.7.7,0,1,0-.7-.7A.7.7,0,0,0,105.19,49.26Z"/><path class="cls-1" d="M113.28,49.3a.74.74,0,1,0-.74-.74A.74.74,0,0,0,113.28,49.3Z"/><path class="cls-1" d="M121.37,49.35a.79.79,0,1,0-.79-.79A.79.79,0,0,0,121.37,49.35Z"/><path class="cls-1" d="M129.46,49.37a.81.81,0,1,0-.81-.81A.8.8,0,0,0,129.46,49.37Z"/><path class="cls-1" d="M137.55,49.39a.83.83,0,1,0-.83-.83A.83.83,0,0,0,137.55,49.39Z"/><path class="cls-1" d="M145.64,49.39a.83.83,0,1,0-.83-.83A.83.83,0,0,0,145.64,49.39Z"/><path class="cls-1" d="M153.73,49.39a.83.83,0,0,0,0-1.66.83.83,0,1,0,0,1.66Z"/><path class="cls-1" d="M161.81,49.37a.81.81,0,1,0-.8-.81A.81.81,0,0,0,161.81,49.37Z"/><path class="cls-1" d="M169.9,49.35a.79.79,0,1,0-.78-.79A.79.79,0,0,0,169.9,49.35Z"/><path class="cls-1" d="M178,49.3a.74.74,0,1,0-.74-.74A.74.74,0,0,0,178,49.3Z"/><path class="cls-1" d="M186.08,49.26a.7.7,0,1,0-.69-.7A.7.7,0,0,0,186.08,49.26Z"/><path class="cls-1" d="M194.17,49.19a.63.63,0,0,0,0-1.26.63.63,0,1,0,0,1.26Z"/><path class="cls-1" d="M202.26,49.12a.56.56,0,1,0-.56-.56A.56.56,0,0,0,202.26,49.12Z"/><path class="cls-1" d="M210.35,49.05a.49.49,0,1,0,0-1,.49.49,0,0,0,0,1Z"/><path class="cls-1" d="M218.44,49a.4.4,0,1,0,0-.8.4.4,0,0,0,0,.8Z"/><path class="cls-1" d="M226.53,48.87a.31.31,0,1,0,0-.62.31.31,0,0,0,0,.62Z"/><path class="cls-1" d="M234.62,48.78a.22.22,0,1,0,0-.44.22.22,0,0,0,0,.44Z"/><path class="cls-1" d="M242.71,48.69a.13.13,0,1,0,0-.26.13.13,0,0,0,0,.26Z"/><path class="cls-1" d="M250.8,48.61a.05.05,0,0,0,0,0,0,0,0,0,0,0,0,0,0,0,0,0,0,0S250.78,48.61,250.8,48.61Z"/><path class="cls-1" d="M32.38,56.67a0,0,0,0,0,0,0l0,0,0,0A0,0,0,0,0,32.38,56.67Z"/><path class="cls-1" d="M40.47,56.76a.11.11,0,1,0-.11-.11A.11.11,0,0,0,40.47,56.76Z"/><path class="cls-1" d="M48.56,56.87a.22.22,0,1,0-.22-.22A.22.22,0,0,0,48.56,56.87Z"/><path class="cls-1" d="M56.65,57a.31.31,0,1,0-.31-.31A.31.31,0,0,0,56.65,57Z"/><path class="cls-1" d="M64.74,57.08a.43.43,0,1,0,0-.86.43.43,0,1,0,0,.86Z"/><path class="cls-1" d="M72.83,57.17a.52.52,0,0,0,.51-.52.52.52,0,1,0-1,0A.52.52,0,0,0,72.83,57.17Z"/><path class="cls-1" d="M80.92,57.26a.61.61,0,1,0-.61-.61A.61.61,0,0,0,80.92,57.26Z"/><path class="cls-1" d="M89,57.32a.67.67,0,1,0-.67-.67A.67.67,0,0,0,89,57.32Z"/><path class="cls-1" d="M97.1,57.41a.76.76,0,1,0,0-1.52.76.76,0,1,0,0,1.52Z"/><path class="cls-1" d="M105.19,57.46a.81.81,0,1,0-.81-.81A.8.8,0,0,0,105.19,57.46Z"/><path class="cls-1" d="M113.28,57.52a.88.88,0,0,0,0-1.75.88.88,0,1,0,0,1.75Z"/><path class="cls-1" d="M121.37,57.57a.92.92,0,1,0-.92-.92A.92.92,0,0,0,121.37,57.57Z"/><path class="cls-1" d="M129.46,57.59a.94.94,0,1,0-1-.94A.94.94,0,0,0,129.46,57.59Z"/><path class="cls-1" d="M137.55,57.61a1,1,0,1,0-1-1A1,1,0,0,0,137.55,57.61Z"/><path class="cls-1" d="M145.64,57.61a1,1,0,1,0-1-1A1,1,0,0,0,145.64,57.61Z"/><path class="cls-1" d="M153.73,57.61a1,1,0,1,0-1-1A1,1,0,0,0,153.73,57.61Z"/><path class="cls-1" d="M161.81,57.59a.94.94,0,1,0-.94-.94A.95.95,0,0,0,161.81,57.59Z"/><path class="cls-1" d="M169.9,57.57a.92.92,0,1,0-.92-.92A.92.92,0,0,0,169.9,57.57Z"/><path class="cls-1" d="M178,57.52a.88.88,0,1,0-.87-.87A.87.87,0,0,0,178,57.52Z"/><path class="cls-1" d="M186.08,57.48a.83.83,0,1,0-.83-.83A.83.83,0,0,0,186.08,57.48Z"/><path class="cls-1" d="M194.17,57.41a.76.76,0,1,0,0-1.52.76.76,0,1,0,0,1.52Z"/><path class="cls-1" d="M202.26,57.35a.7.7,0,1,0-.69-.7A.7.7,0,0,0,202.26,57.35Z"/><path class="cls-1" d="M210.35,57.26a.61.61,0,1,0-.6-.61A.61.61,0,0,0,210.35,57.26Z"/><path class="cls-1" d="M218.44,57.17a.52.52,0,0,0,.52-.52.52.52,0,1,0-.52.52Z"/><path class="cls-1" d="M226.53,57.08a.43.43,0,1,0-.42-.43A.43.43,0,0,0,226.53,57.08Z"/><path class="cls-1" d="M234.62,57a.34.34,0,1,0,0-.68.34.34,0,1,0,0,.68Z"/><path class="cls-1" d="M242.71,56.87a.22.22,0,1,0,0-.44.22.22,0,0,0,0,.44Z"/><path class="cls-1" d="M250.8,56.78a.13.13,0,1,0-.13-.13A.13.13,0,0,0,250.8,56.78Z"/><path class="cls-1" d="M258.89,56.67l0,0,0,0,0,0A0,0,0,0,0,258.89,56.67Z"/><path class="cls-1" d="M32.38,64.83a.09.09,0,1,0-.09-.09A.09.09,0,0,0,32.38,64.83Z"/><path class="cls-1" d="M40.47,64.94a.2.2,0,1,0-.2-.2A.2.2,0,0,0,40.47,64.94Z"/><path class="cls-1" d="M48.56,65.05a.31.31,0,1,0-.31-.31A.31.31,0,0,0,48.56,65.05Z"/><path class="cls-1" d="M56.65,65.17a.43.43,0,0,0,.43-.43.43.43,0,0,0-.86,0A.43.43,0,0,0,56.65,65.17Z"/><path class="cls-1" d="M64.74,65.26a.53.53,0,0,0,.52-.52.52.52,0,0,0-.52-.52.52.52,0,0,0-.52.52A.52.52,0,0,0,64.74,65.26Z"/><path class="cls-1" d="M72.83,65.37a.63.63,0,1,0-.63-.63A.63.63,0,0,0,72.83,65.37Z"/><path class="cls-1" d="M80.92,65.46a.72.72,0,1,0-.72-.72A.72.72,0,0,0,80.92,65.46Z"/><path class="cls-1" d="M89,65.52a.78.78,0,0,0,.78-.78.79.79,0,1,0-.78.78Z"/><path class="cls-1" d="M97.1,65.61a.88.88,0,0,0,0-1.75.88.88,0,1,0,0,1.75Z"/><path class="cls-1" d="M105.19,65.68a.94.94,0,1,0-.94-.94A.94.94,0,0,0,105.19,65.68Z"/><path class="cls-1" d="M113.28,65.75a1,1,0,1,0-1-1A1,1,0,0,0,113.28,65.75Z"/><path class="cls-1" d="M121.37,65.79a1.05,1.05,0,1,0-1.06-1.05A1,1,0,0,0,121.37,65.79Z"/><path class="cls-1" d="M129.46,65.82a1.08,1.08,0,1,0-1.08-1.08A1.08,1.08,0,0,0,129.46,65.82Z"/><path class="cls-1" d="M137.55,65.84a1.1,1.1,0,1,0-1.1-1.1A1.09,1.09,0,0,0,137.55,65.84Z"/><path class="cls-1" d="M145.64,65.86a1.12,1.12,0,1,0-1.13-1.12A1.12,1.12,0,0,0,145.64,65.86Z"/><path class="cls-1" d="M153.73,65.84a1.1,1.1,0,1,0-1.1-1.1A1.09,1.09,0,0,0,153.73,65.84Z"/><path class="cls-1" d="M161.81,65.82a1.08,1.08,0,1,0-1.07-1.08A1.08,1.08,0,0,0,161.81,65.82Z"/><path class="cls-1" d="M169.9,65.79a1,1,0,1,0-1.05-1.05A1.05,1.05,0,0,0,169.9,65.79Z"/><path class="cls-1" d="M178,65.75a1,1,0,1,0-1-1A1,1,0,0,0,178,65.75Z"/><path class="cls-1" d="M186.08,65.68a.94.94,0,1,0-.94-.94A.95.95,0,0,0,186.08,65.68Z"/><path class="cls-1" d="M194.17,65.61a.88.88,0,1,0-.87-.87A.87.87,0,0,0,194.17,65.61Z"/><path class="cls-1" d="M202.26,65.55a.81.81,0,1,0-.8-.81A.81.81,0,0,0,202.26,65.55Z"/><path class="cls-1" d="M210.35,65.46a.72.72,0,1,0-.72-.72A.72.72,0,0,0,210.35,65.46Z"/><path class="cls-1" d="M218.44,65.37a.63.63,0,1,0,0-1.26.63.63,0,1,0,0,1.26Z"/><path class="cls-1" d="M226.53,65.28a.54.54,0,1,0-.54-.54A.54.54,0,0,0,226.53,65.28Z"/><path class="cls-1" d="M234.62,65.17a.43.43,0,0,0,.43-.43.43.43,0,0,0-.43-.43.43.43,0,0,0-.43.43A.44.44,0,0,0,234.62,65.17Z"/><path class="cls-1" d="M242.71,65.05a.31.31,0,1,0-.31-.31A.31.31,0,0,0,242.71,65.05Z"/><path class="cls-1" d="M250.8,65a.22.22,0,1,0-.22-.22A.22.22,0,0,0,250.8,65Z"/><path class="cls-1" d="M258.89,64.85a.11.11,0,1,0-.11-.11A.11.11,0,0,0,258.89,64.85Z"/><path class="cls-1" d="M267,64.76a0,0,0,0,0,0,0l0,0,0,0A0,0,0,0,0,267,64.76Z"/><path class="cls-1" d="M24.29,72.87a0,0,0,0,0,.05,0,0,0,0,0,0-.05,0,0,0,0,0,0,0,0A0,0,0,0,0,24.29,72.87Z"/><path class="cls-1" d="M32.38,73a.18.18,0,1,0-.18-.18A.18.18,0,0,0,32.38,73Z"/><path class="cls-1" d="M40.47,73.12a.29.29,0,1,0-.29-.29A.29.29,0,0,0,40.47,73.12Z"/><path class="cls-1" d="M48.56,73.23a.4.4,0,1,0-.4-.4A.4.4,0,0,0,48.56,73.23Z"/><path class="cls-1" d="M56.65,73.34a.52.52,0,1,0-.52-.51A.51.51,0,0,0,56.65,73.34Z"/><path class="cls-1" d="M64.74,73.46a.63.63,0,1,0-.63-.63A.63.63,0,0,0,64.74,73.46Z"/><path class="cls-1" d="M72.83,73.55a.72.72,0,1,0-.72-.72A.72.72,0,0,0,72.83,73.55Z"/><path class="cls-1" d="M80.92,73.64a.81.81,0,1,0-.81-.81A.81.81,0,0,0,80.92,73.64Z"/><path class="cls-1" d="M89,73.75a.92.92,0,1,0-.92-.92A.92.92,0,0,0,89,73.75Z"/><path class="cls-1" d="M97.1,73.82a1,1,0,1,0-1-1A1,1,0,0,0,97.1,73.82Z"/><path class="cls-1" d="M105.19,73.91a1.08,1.08,0,1,0-1.08-1.08A1.08,1.08,0,0,0,105.19,73.91Z"/><path class="cls-1" d="M113.28,74a1.12,1.12,0,1,0-1.12-1.12A1.12,1.12,0,0,0,113.28,74Z"/><path class="cls-1" d="M121.37,74a1.19,1.19,0,1,0-1.19-1.19A1.19,1.19,0,0,0,121.37,74Z"/><path class="cls-1" d="M129.46,74a1.21,1.21,0,1,0-1.22-1.21A1.21,1.21,0,0,0,129.46,74Z"/><path class="cls-1" d="M137.55,74.06a1.23,1.23,0,1,0-1.24-1.23A1.23,1.23,0,0,0,137.55,74.06Z"/><path class="cls-1" d="M145.64,74.09a1.26,1.26,0,1,0-1.26-1.26A1.26,1.26,0,0,0,145.64,74.09Z"/><path class="cls-1" d="M153.73,74.09a1.26,1.26,0,1,0-1.26-1.26A1.26,1.26,0,0,0,153.73,74.09Z"/><path class="cls-1" d="M161.81,74.06a1.23,1.23,0,1,0-1.23-1.23A1.23,1.23,0,0,0,161.81,74.06Z"/><path class="cls-1" d="M169.9,74a1.19,1.19,0,1,0-1.18-1.19A1.19,1.19,0,0,0,169.9,74Z"/><path class="cls-1" d="M178,74a1.15,1.15,0,1,0-1.14-1.14A1.14,1.14,0,0,0,178,74Z"/><path class="cls-1" d="M186.08,73.91A1.08,1.08,0,1,0,185,72.83,1.08,1.08,0,0,0,186.08,73.91Z"/><path class="cls-1" d="M194.17,73.84a1,1,0,1,0-1-1A1,1,0,0,0,194.17,73.84Z"/><path class="cls-1" d="M202.26,73.75a.92.92,0,1,0-.92-.92A.92.92,0,0,0,202.26,73.75Z"/><path class="cls-1" d="M210.35,73.66a.83.83,0,1,0-.83-.83A.83.83,0,0,0,210.35,73.66Z"/><path class="cls-1" d="M218.44,73.57a.74.74,0,1,0-.74-.74A.74.74,0,0,0,218.44,73.57Z"/><path class="cls-1" d="M226.53,73.46a.63.63,0,1,0-.63-.63A.63.63,0,0,0,226.53,73.46Z"/><path class="cls-1" d="M234.62,73.34a.52.52,0,1,0-.51-.51A.51.51,0,0,0,234.62,73.34Z"/><path class="cls-1" d="M242.71,73.23a.4.4,0,1,0-.4-.4A.4.4,0,0,0,242.71,73.23Z"/><path class="cls-1" d="M250.8,73.12a.29.29,0,1,0-.29-.29A.29.29,0,0,0,250.8,73.12Z"/><path class="cls-1" d="M258.89,73a.18.18,0,1,0-.18-.18A.18.18,0,0,0,258.89,73Z"/><path class="cls-1" d="M267,72.9a.07.07,0,1,0-.07-.07A.07.07,0,0,0,267,72.9Z"/><path class="cls-1" d="M16.2,80.94a0,0,0,0,0,0,0,0,0,0,0,0,0,0,0,0,0,0,0,0,0A0,0,0,0,0,16.2,80.9Z"/><path class="cls-1" d="M24.29,81a.11.11,0,1,0-.11-.11A.11.11,0,0,0,24.29,81Z"/><path class="cls-1" d="M32.38,81.17a.25.25,0,0,0,.25-.25.25.25,0,0,0-.5,0A.25.25,0,0,0,32.38,81.17Z"/><path class="cls-1" d="M40.47,81.28a.36.36,0,1,0-.36-.36A.36.36,0,0,0,40.47,81.28Z"/><path class="cls-1" d="M48.56,81.41a.49.49,0,1,0-.49-.49A.49.49,0,0,0,48.56,81.41Z"/><path class="cls-1" d="M56.65,81.52a.61.61,0,1,0-.61-.6A.61.61,0,0,0,56.65,81.52Z"/><path class="cls-1" d="M64.74,81.64a.72.72,0,1,0-.72-.72A.72.72,0,0,0,64.74,81.64Z"/><path class="cls-1" d="M72.83,81.73a.81.81,0,0,0,0-1.62.81.81,0,0,0,0,1.62Z"/><path class="cls-1" d="M80.92,81.84a.92.92,0,1,0-.92-.92A.92.92,0,0,0,80.92,81.84Z"/><path class="cls-1" d="M89,81.93a1,1,0,1,0-1-1A1,1,0,0,0,89,81.93Z"/><path class="cls-1" d="M97.1,82a1.1,1.1,0,1,0-1.1-1.1A1.1,1.1,0,0,0,97.1,82Z"/><path class="cls-1" d="M105.19,82.11A1.19,1.19,0,1,0,104,80.92,1.19,1.19,0,0,0,105.19,82.11Z"/><path class="cls-1" d="M113.28,82.17A1.26,1.26,0,1,0,112,80.92,1.25,1.25,0,0,0,113.28,82.17Z"/><path class="cls-1" d="M121.37,82.24A1.32,1.32,0,1,0,120,80.92,1.32,1.32,0,0,0,121.37,82.24Z"/><path class="cls-1" d="M129.46,82.26a1.35,1.35,0,1,0-1.35-1.34A1.34,1.34,0,0,0,129.46,82.26Z"/><path class="cls-1" d="M137.55,82.31a1.39,1.39,0,1,0-1.4-1.39A1.39,1.39,0,0,0,137.55,82.31Z"/><path class="cls-1" d="M145.64,82.31a1.39,1.39,0,1,0-1.4-1.39A1.39,1.39,0,0,0,145.64,82.31Z"/><path class="cls-1" d="M153.73,82.31a1.39,1.39,0,1,0-1.4-1.39A1.39,1.39,0,0,0,153.73,82.31Z"/><path class="cls-1" d="M161.81,82.29a1.37,1.37,0,1,0-1.36-1.37A1.37,1.37,0,0,0,161.81,82.29Z"/><path class="cls-1" d="M169.9,82.24a1.32,1.32,0,1,0-1.32-1.32A1.32,1.32,0,0,0,169.9,82.24Z"/><path class="cls-1" d="M178,82.17a1.26,1.26,0,1,0-1.25-1.25A1.25,1.25,0,0,0,178,82.17Z"/><path class="cls-1" d="M186.08,82.11a1.19,1.19,0,1,0-1.19-1.19A1.19,1.19,0,0,0,186.08,82.11Z"/><path class="cls-1" d="M194.17,82a1.12,1.12,0,1,0-1.12-1.12A1.12,1.12,0,0,0,194.17,82Z"/><path class="cls-1" d="M202.26,82a1,1,0,1,0-1-1A1,1,0,0,0,202.26,82Z"/><path class="cls-1" d="M210.35,81.86a.94.94,0,1,0-.94-.94A.94.94,0,0,0,210.35,81.86Z"/><path class="cls-1" d="M218.44,81.75a.83.83,0,1,0-.83-.83A.83.83,0,0,0,218.44,81.75Z"/><path class="cls-1" d="M226.53,81.64a.72.72,0,1,0-.72-.72A.72.72,0,0,0,226.53,81.64Z"/><path class="cls-1" d="M234.62,81.52a.61.61,0,1,0-.6-.6A.6.6,0,0,0,234.62,81.52Z"/><path class="cls-1" d="M242.71,81.41a.49.49,0,1,0-.49-.49A.49.49,0,0,0,242.71,81.41Z"/><path class="cls-1" d="M250.8,81.3a.38.38,0,1,0-.38-.38A.38.38,0,0,0,250.8,81.3Z"/><path class="cls-1" d="M258.89,81.17a.25.25,0,0,0,.25-.25.25.25,0,0,0-.5,0A.25.25,0,0,0,258.89,81.17Z"/><path class="cls-1" d="M267,81.05a.13.13,0,0,0,.13-.13.13.13,0,1,0-.26,0A.13.13,0,0,0,267,81.05Z"/><path class="cls-1" d="M275.07,80.94a0,0,0,0,0,0,0,0,0,0,0,0,0,0,0,0,0,0,0,0,0A0,0,0,0,0,275.07,80.9Z"/><path class="cls-1" d="M16.2,89.05a0,0,0,0,0,.05,0A0,0,0,0,0,16.2,89a0,0,0,0,0,0,.05A0,0,0,0,0,16.2,89.05Z"/><path class="cls-1" d="M24.29,89.19a.18.18,0,1,0-.18-.18A.18.18,0,0,0,24.29,89.19Z"/><path class="cls-1" d="M32.38,89.32a.32.32,0,1,0-.31-.31A.31.31,0,0,0,32.38,89.32Z"/><path class="cls-1" d="M40.47,89.43a.43.43,0,1,0,0-.85.43.43,0,1,0,0,.85Z"/><path class="cls-1" d="M48.56,89.57A.56.56,0,1,0,48,89,.56.56,0,0,0,48.56,89.57Z"/><path class="cls-1" d="M56.65,89.68A.67.67,0,1,0,56,89,.67.67,0,0,0,56.65,89.68Z"/><path class="cls-1" d="M64.74,89.79a.79.79,0,0,0,0-1.57.79.79,0,1,0,0,1.57Z"/><path class="cls-1" d="M72.83,89.93a.92.92,0,1,0-.92-.92A.92.92,0,0,0,72.83,89.93Z"/><path class="cls-1" d="M80.92,90a1,1,0,1,0-1-1A1,1,0,0,0,80.92,90Z"/><path class="cls-1" d="M89,90.13A1.12,1.12,0,1,0,87.89,89,1.12,1.12,0,0,0,89,90.13Z"/><path class="cls-1" d="M97.1,90.22A1.21,1.21,0,1,0,95.89,89,1.21,1.21,0,0,0,97.1,90.22Z"/><path class="cls-1" d="M105.19,90.31a1.3,1.3,0,1,0-1.3-1.3A1.3,1.3,0,0,0,105.19,90.31Z"/><path class="cls-1" d="M113.28,90.4A1.39,1.39,0,1,0,111.89,89,1.39,1.39,0,0,0,113.28,90.4Z"/><path class="cls-1" d="M121.37,90.44A1.44,1.44,0,1,0,119.93,89,1.43,1.43,0,0,0,121.37,90.44Z"/><path class="cls-1" d="M129.46,90.49A1.48,1.48,0,1,0,128,89,1.48,1.48,0,0,0,129.46,90.49Z"/><path class="cls-1" d="M137.55,90.53A1.53,1.53,0,1,0,136,89,1.52,1.52,0,0,0,137.55,90.53Z"/><path class="cls-1" d="M145.64,90.53A1.53,1.53,0,1,0,144.11,89,1.52,1.52,0,0,0,145.64,90.53Z"/><path class="cls-1" d="M153.73,90.53A1.53,1.53,0,1,0,152.2,89,1.52,1.52,0,0,0,153.73,90.53Z"/><path class="cls-1" d="M161.81,90.51a1.5,1.5,0,1,0-1.5-1.5A1.51,1.51,0,0,0,161.81,90.51Z"/><path class="cls-1" d="M169.9,90.47A1.46,1.46,0,1,0,168.45,89,1.46,1.46,0,0,0,169.9,90.47Z"/><path class="cls-1" d="M178,90.4A1.39,1.39,0,1,0,176.6,89,1.39,1.39,0,0,0,178,90.4Z"/><path class="cls-1" d="M186.08,90.33A1.33,1.33,0,1,0,184.76,89,1.33,1.33,0,0,0,186.08,90.33Z"/><path class="cls-1" d="M194.17,90.24A1.24,1.24,0,1,0,192.94,89,1.24,1.24,0,0,0,194.17,90.24Z"/><path class="cls-1" d="M202.26,90.13A1.12,1.12,0,1,0,201.14,89,1.12,1.12,0,0,0,202.26,90.13Z"/><path class="cls-1" d="M210.35,90a1,1,0,1,0-1-1A1,1,0,0,0,210.35,90Z"/><path class="cls-1" d="M218.44,89.93a.92.92,0,1,0-.92-.92A.92.92,0,0,0,218.44,89.93Z"/><path class="cls-1" d="M226.53,89.82a.81.81,0,1,0-.81-.81A.81.81,0,0,0,226.53,89.82Z"/><path class="cls-1" d="M234.62,89.7a.7.7,0,1,0-.69-.69A.69.69,0,0,0,234.62,89.7Z"/><path class="cls-1" d="M242.71,89.57a.56.56,0,1,0-.56-.56A.56.56,0,0,0,242.71,89.57Z"/><path class="cls-1" d="M250.8,89.46a.45.45,0,1,0-.45-.45A.45.45,0,0,0,250.8,89.46Z"/><path class="cls-1" d="M258.89,89.32a.32.32,0,1,0-.31-.31A.31.31,0,0,0,258.89,89.32Z"/><path class="cls-1" d="M267,89.21a.2.2,0,1,0-.2-.2A.2.2,0,0,0,267,89.21Z"/><path class="cls-1" d="M275.07,89.08A.07.07,0,1,0,275,89,.07.07,0,0,0,275.07,89.08Z"/><path class="cls-1" d="M16.2,97.21a.11.11,0,1,0-.11-.11A.11.11,0,0,0,16.2,97.21Z"/><path class="cls-1" d="M24.29,97.34A.25.25,0,1,0,24,97.1.25.25,0,0,0,24.29,97.34Z"/><path class="cls-1" d="M32.38,97.46A.36.36,0,1,0,32,97.1.36.36,0,0,0,32.38,97.46Z"/><path class="cls-1" d="M40.47,97.59A.49.49,0,0,0,41,97.1a.49.49,0,1,0-1,0A.49.49,0,0,0,40.47,97.59Z"/><path class="cls-1" d="M48.56,97.73a.63.63,0,0,0,.63-.63.63.63,0,0,0-1.26,0A.63.63,0,0,0,48.56,97.73Z"/><path class="cls-1" d="M56.65,97.86a.76.76,0,1,0-.76-.76A.76.76,0,0,0,56.65,97.86Z"/><path class="cls-1" d="M64.74,98a.88.88,0,0,0,0-1.75.88.88,0,1,0,0,1.75Z"/><path class="cls-1" d="M72.83,98.08a1,1,0,1,0-1-1A1,1,0,0,0,72.83,98.08Z"/><path class="cls-1" d="M80.92,98.2a1.1,1.1,0,1,0-1.1-1.1A1.1,1.1,0,0,0,80.92,98.2Z"/><path class="cls-1" d="M89,98.31A1.21,1.21,0,1,0,87.8,97.1,1.21,1.21,0,0,0,89,98.31Z"/><path class="cls-1" d="M97.1,98.42a1.33,1.33,0,0,0,0-2.65,1.33,1.33,0,1,0,0,2.65Z"/><path class="cls-1" d="M105.19,98.51a1.42,1.42,0,0,0,0-2.83,1.42,1.42,0,1,0,0,2.83Z"/><path class="cls-1" d="M113.28,98.6a1.51,1.51,0,0,0,0-3,1.51,1.51,0,1,0,0,3Z"/><path class="cls-1" d="M121.37,98.67a1.57,1.57,0,1,0-1.57-1.57A1.58,1.58,0,0,0,121.37,98.67Z"/><path class="cls-1" d="M129.46,98.71a1.62,1.62,0,1,0-1.62-1.61A1.61,1.61,0,0,0,129.46,98.71Z"/><path class="cls-1" d="M137.55,98.76a1.66,1.66,0,1,0-1.66-1.66A1.67,1.67,0,0,0,137.55,98.76Z"/><path class="cls-1" d="M145.64,98.78A1.68,1.68,0,1,0,144,97.1,1.68,1.68,0,0,0,145.64,98.78Z"/><path class="cls-1" d="M153.73,98.76a1.66,1.66,0,1,0-1.67-1.66A1.67,1.67,0,0,0,153.73,98.76Z"/><path class="cls-1" d="M161.81,98.74a1.64,1.64,0,1,0-1.63-1.64A1.64,1.64,0,0,0,161.81,98.74Z"/><path class="cls-1" d="M169.9,98.67a1.57,1.57,0,1,0-1.57-1.57A1.57,1.57,0,0,0,169.9,98.67Z"/><path class="cls-1" d="M178,98.6a1.51,1.51,0,1,0-1.5-1.5A1.51,1.51,0,0,0,178,98.6Z"/><path class="cls-1" d="M186.08,98.53a1.44,1.44,0,1,0-1.43-1.43A1.43,1.43,0,0,0,186.08,98.53Z"/><path class="cls-1" d="M194.17,98.42a1.33,1.33,0,1,0-1.32-1.32A1.33,1.33,0,0,0,194.17,98.42Z"/><path class="cls-1" d="M202.26,98.33A1.24,1.24,0,1,0,201,97.1,1.24,1.24,0,0,0,202.26,98.33Z"/><path class="cls-1" d="M210.35,98.22a1.12,1.12,0,1,0-1.12-1.12A1.12,1.12,0,0,0,210.35,98.22Z"/><path class="cls-1" d="M218.44,98.11a1,1,0,1,0-1-1A1,1,0,0,0,218.44,98.11Z"/><path class="cls-1" d="M226.53,98a.88.88,0,1,0-.87-.87A.88.88,0,0,0,226.53,98Z"/><path class="cls-1" d="M234.62,97.86a.76.76,0,1,0-.76-.76A.76.76,0,0,0,234.62,97.86Z"/><path class="cls-1" d="M242.71,97.73a.63.63,0,0,0,.63-.63.63.63,0,0,0-1.26,0A.63.63,0,0,0,242.71,97.73Z"/><path class="cls-1" d="M250.8,97.61a.52.52,0,1,0,0-1,.52.52,0,1,0,0,1Z"/><path class="cls-1" d="M258.89,97.48a.38.38,0,1,0-.38-.38A.38.38,0,0,0,258.89,97.48Z"/><path class="cls-1" d="M267,97.34a.25.25,0,1,0-.25-.24A.25.25,0,0,0,267,97.34Z"/><path class="cls-1" d="M275.07,97.21a.11.11,0,1,0-.11-.11A.11.11,0,0,0,275.07,97.21Z"/><path class="cls-1" d="M8.11,105.21a0,0,0,0,0,0,0s0,0,0,0,0,0,0,0A0,0,0,0,0,8.11,105.21Z"/><path class="cls-1" d="M16.2,105.34a.16.16,0,0,0,.16-.15.16.16,0,0,0-.32,0A.16.16,0,0,0,16.2,105.34Z"/><path class="cls-1" d="M24.29,105.48a.29.29,0,1,0-.29-.29A.29.29,0,0,0,24.29,105.48Z"/><path class="cls-1" d="M32.38,105.61a.43.43,0,1,0,0-.85.43.43,0,1,0,0,.85Z"/><path class="cls-1" d="M40.47,105.75a.56.56,0,1,0-.56-.56A.56.56,0,0,0,40.47,105.75Z"/><path class="cls-1" d="M48.56,105.88a.7.7,0,1,0-.7-.69A.7.7,0,0,0,48.56,105.88Z"/><path class="cls-1" d="M56.65,106a.81.81,0,1,0-.81-.81A.81.81,0,0,0,56.65,106Z"/><path class="cls-1" d="M64.74,106.13a.94.94,0,1,0-.94-.94A.94.94,0,0,0,64.74,106.13Z"/><path class="cls-1" d="M72.83,106.26a1.08,1.08,0,1,0-1.08-1.07A1.08,1.08,0,0,0,72.83,106.26Z"/><path class="cls-1" d="M80.92,106.38a1.19,1.19,0,1,0-1.19-1.19A1.19,1.19,0,0,0,80.92,106.38Z"/><path class="cls-1" d="M89,106.49a1.3,1.3,0,1,0-1.3-1.3A1.3,1.3,0,0,0,89,106.49Z"/><path class="cls-1" d="M97.1,106.6a1.42,1.42,0,0,0,0-2.83,1.42,1.42,0,1,0,0,2.83Z"/><path class="cls-1" d="M105.19,106.71a1.53,1.53,0,1,0-1.53-1.52A1.52,1.52,0,0,0,105.19,106.71Z"/><path class="cls-1" d="M113.28,106.8a1.62,1.62,0,1,0-1.62-1.61A1.61,1.61,0,0,0,113.28,106.8Z"/><path class="cls-1" d="M121.37,106.89a1.71,1.71,0,1,0-1.71-1.7A1.7,1.7,0,0,0,121.37,106.89Z"/><path class="cls-1" d="M129.46,106.94a1.75,1.75,0,1,0-1.75-1.75A1.76,1.76,0,0,0,129.46,106.94Z"/><path class="cls-1" d="M137.55,107a1.8,1.8,0,1,0-1.8-1.79A1.79,1.79,0,0,0,137.55,107Z"/><path class="cls-1" d="M145.64,107a1.82,1.82,0,1,0-1.82-1.81A1.81,1.81,0,0,0,145.64,107Z"/><path class="cls-1" d="M153.73,107a1.82,1.82,0,1,0-1.82-1.81A1.81,1.81,0,0,0,153.73,107Z"/><path class="cls-1" d="M161.81,107a1.77,1.77,0,1,0-1.77-1.77A1.78,1.78,0,0,0,161.81,107Z"/><path class="cls-1" d="M169.9,106.89a1.71,1.71,0,1,0-1.7-1.7A1.7,1.7,0,0,0,169.9,106.89Z"/><path class="cls-1" d="M178,106.8a1.62,1.62,0,1,0-1.61-1.61A1.61,1.61,0,0,0,178,106.8Z"/><path class="cls-1" d="M186.08,106.71a1.53,1.53,0,1,0-1.52-1.52A1.52,1.52,0,0,0,186.08,106.71Z"/><path class="cls-1" d="M194.17,106.62a1.44,1.44,0,1,0-1.43-1.43A1.43,1.43,0,0,0,194.17,106.62Z"/><path class="cls-1" d="M202.26,106.51a1.33,1.33,0,1,0-1.32-1.32A1.33,1.33,0,0,0,202.26,106.51Z"/><path class="cls-1" d="M210.35,106.38a1.19,1.19,0,1,0-1.19-1.19A1.19,1.19,0,0,0,210.35,106.38Z"/><path class="cls-1" d="M218.44,106.26a1.08,1.08,0,1,0-1.07-1.07A1.07,1.07,0,0,0,218.44,106.26Z"/><path class="cls-1" d="M226.53,106.13a.94.94,0,1,0-.94-.94A.94.94,0,0,0,226.53,106.13Z"/><path class="cls-1" d="M234.62,106a.83.83,0,1,0-.83-.83A.83.83,0,0,0,234.62,106Z"/><path class="cls-1" d="M242.71,105.88a.7.7,0,1,0-.69-.69A.69.69,0,0,0,242.71,105.88Z"/><path class="cls-1" d="M250.8,105.75a.56.56,0,1,0-.56-.56A.56.56,0,0,0,250.8,105.75Z"/><path class="cls-1" d="M258.89,105.61a.43.43,0,1,0-.43-.42A.42.42,0,0,0,258.89,105.61Z"/><path class="cls-1" d="M267,105.48a.29.29,0,1,0-.29-.29A.29.29,0,0,0,267,105.48Z"/><path class="cls-1" d="M275.07,105.34a.16.16,0,0,0,.16-.15.16.16,0,0,0-.32,0A.16.16,0,0,0,275.07,105.34Z"/><path class="cls-1" d="M283.16,105.23a0,0,0,0,0,0,0,0,0,0,0,0,0,0,0,0,0,0,0-.05,0A0,0,0,0,0,283.16,105.23Z"/><path class="cls-1" d="M8.11,113.32a0,0,0,0,0,.05,0,0,0,0,0,0-.05,0,0,0,0,0,0,0,0A0,0,0,0,0,8.11,113.32Z"/><path class="cls-1" d="M16.2,113.48a.2.2,0,1,0-.2-.2A.2.2,0,0,0,16.2,113.48Z"/><path class="cls-1" d="M24.29,113.61a.34.34,0,1,0,0-.67.34.34,0,1,0,0,.67Z"/><path class="cls-1" d="M32.38,113.75a.47.47,0,1,0-.47-.47A.47.47,0,0,0,32.38,113.75Z"/><path class="cls-1" d="M40.47,113.88a.61.61,0,1,0-.61-.6A.61.61,0,0,0,40.47,113.88Z"/><path class="cls-1" d="M48.56,114a.74.74,0,1,0-.74-.74A.74.74,0,0,0,48.56,114Z"/><path class="cls-1" d="M56.65,114.15a.88.88,0,0,0,0-1.75.88.88,0,1,0,0,1.75Z"/><path class="cls-1" d="M64.74,114.29a1,1,0,1,0-1-1A1,1,0,0,0,64.74,114.29Z"/><path class="cls-1" d="M72.83,114.4a1.12,1.12,0,1,0-1.12-1.12A1.12,1.12,0,0,0,72.83,114.4Z"/><path class="cls-1" d="M80.92,114.53a1.26,1.26,0,1,0-1.26-1.25A1.25,1.25,0,0,0,80.92,114.53Z"/><path class="cls-1" d="M89,114.67a1.39,1.39,0,1,0-1.39-1.39A1.39,1.39,0,0,0,89,114.67Z"/><path class="cls-1" d="M97.1,114.78a1.51,1.51,0,0,0,0-3,1.51,1.51,0,1,0,0,3Z"/><path class="cls-1" d="M105.19,114.89a1.62,1.62,0,1,0-1.62-1.61A1.61,1.61,0,0,0,105.19,114.89Z"/><path class="cls-1" d="M113.28,115a1.73,1.73,0,1,0-1.73-1.72A1.72,1.72,0,0,0,113.28,115Z"/><path class="cls-1" d="M121.37,115.09a1.82,1.82,0,1,0-1.82-1.81A1.81,1.81,0,0,0,121.37,115.09Z"/><path class="cls-1" d="M129.46,115.16a1.89,1.89,0,1,0-1.89-1.88A1.88,1.88,0,0,0,129.46,115.16Z"/><path class="cls-1" d="M137.55,115.21a1.93,1.93,0,1,0-1.93-1.93A1.93,1.93,0,0,0,137.55,115.21Z"/><path class="cls-1" d="M145.64,115.23a2,2,0,1,0-2-2A2,2,0,0,0,145.64,115.23Z"/><path class="cls-1" d="M153.73,115.23a2,2,0,1,0-2-2A2,2,0,0,0,153.73,115.23Z"/><path class="cls-1" d="M161.81,115.18a1.91,1.91,0,1,0-1.9-1.9A1.9,1.9,0,0,0,161.81,115.18Z"/><path class="cls-1" d="M169.9,115.09a1.82,1.82,0,1,0-1.81-1.81A1.81,1.81,0,0,0,169.9,115.09Z"/><path class="cls-1" d="M178,115a1.73,1.73,0,1,0-1.72-1.72A1.72,1.72,0,0,0,178,115Z"/><path class="cls-1" d="M186.08,114.91a1.64,1.64,0,1,0-1.63-1.63A1.63,1.63,0,0,0,186.08,114.91Z"/><path class="cls-1" d="M194.17,114.8a1.53,1.53,0,1,0-1.52-1.52A1.52,1.52,0,0,0,194.17,114.8Z"/><path class="cls-1" d="M202.26,114.67a1.39,1.39,0,1,0-1.39-1.39A1.39,1.39,0,0,0,202.26,114.67Z"/><path class="cls-1" d="M210.35,114.56a1.28,1.28,0,1,0-1.28-1.28A1.28,1.28,0,0,0,210.35,114.56Z"/><path class="cls-1" d="M218.44,114.42a1.15,1.15,0,1,0-1.14-1.14A1.15,1.15,0,0,0,218.44,114.42Z"/><path class="cls-1" d="M226.53,114.29a1,1,0,1,0-1-1A1,1,0,0,0,226.53,114.29Z"/><path class="cls-1" d="M234.62,114.15a.88.88,0,1,0-.87-.87A.88.88,0,0,0,234.62,114.15Z"/><path class="cls-1" d="M242.71,114a.74.74,0,1,0-.74-.74A.74.74,0,0,0,242.71,114Z"/><path class="cls-1" d="M250.8,113.88a.61.61,0,1,0-.61-.6A.61.61,0,0,0,250.8,113.88Z"/><path class="cls-1" d="M258.89,113.75a.47.47,0,1,0-.47-.47A.47.47,0,0,0,258.89,113.75Z"/><path class="cls-1" d="M267,113.61a.34.34,0,1,0-.34-.33A.34.34,0,0,0,267,113.61Z"/><path class="cls-1" d="M275.07,113.48a.2.2,0,1,0-.2-.2A.2.2,0,0,0,275.07,113.48Z"/><path class="cls-1" d="M283.16,113.34a.07.07,0,0,0,.07-.06.07.07,0,0,0-.14,0A.07.07,0,0,0,283.16,113.34Z"/><path class="cls-1" d="M8.11,121.46a.09.09,0,1,0-.09-.09A.09.09,0,0,0,8.11,121.46Z"/><path class="cls-1" d="M16.2,121.59a.23.23,0,1,0-.22-.22A.22.22,0,0,0,16.2,121.59Z"/><path class="cls-1" d="M24.29,121.73a.36.36,0,0,0,.36-.36.36.36,0,0,0-.72,0A.36.36,0,0,0,24.29,121.73Z"/><path class="cls-1" d="M32.38,121.86a.5.5,0,1,0-.49-.49A.49.49,0,0,0,32.38,121.86Z"/><path class="cls-1" d="M40.47,122a.63.63,0,1,0-.63-.62A.63.63,0,0,0,40.47,122Z"/><path class="cls-1" d="M48.56,122.15a.79.79,0,1,0-.79-.78A.79.79,0,0,0,48.56,122.15Z"/><path class="cls-1" d="M56.65,122.29a.92.92,0,1,0-.92-.92A.92.92,0,0,0,56.65,122.29Z"/><path class="cls-1" d="M64.74,122.42a1.06,1.06,0,1,0-1-1A1,1,0,0,0,64.74,122.42Z"/><path class="cls-1" d="M72.83,122.56a1.19,1.19,0,1,0-1.19-1.19A1.19,1.19,0,0,0,72.83,122.56Z"/><path class="cls-1" d="M80.92,122.69a1.33,1.33,0,1,0-1.32-1.32A1.32,1.32,0,0,0,80.92,122.69Z"/><path class="cls-1" d="M89,122.8a1.44,1.44,0,1,0-1.44-1.43A1.43,1.43,0,0,0,89,122.8Z"/><path class="cls-1" d="M97.1,122.94a1.57,1.57,0,1,0-1.57-1.57A1.58,1.58,0,0,0,97.1,122.94Z"/><path class="cls-1" d="M105.19,123.07a1.71,1.71,0,0,0,0-3.41,1.71,1.71,0,1,0,0,3.41Z"/><path class="cls-1" d="M113.28,123.18a1.82,1.82,0,1,0-1.82-1.81A1.81,1.81,0,0,0,113.28,123.18Z"/><path class="cls-1" d="M121.37,123.3a1.93,1.93,0,1,0-1.93-1.93A1.94,1.94,0,0,0,121.37,123.3Z"/><path class="cls-1" d="M129.46,123.39a2,2,0,1,0-2-2A2,2,0,0,0,129.46,123.39Z"/><path class="cls-1" d="M137.55,123.43a2.07,2.07,0,1,0-2.07-2.06A2.06,2.06,0,0,0,137.55,123.43Z"/><path class="cls-1" d="M145.64,123.48a2.11,2.11,0,1,0-2.11-2.11A2.11,2.11,0,0,0,145.64,123.48Z"/><path class="cls-1" d="M153.73,123.45a2.09,2.09,0,1,0-2.09-2.08A2.08,2.08,0,0,0,153.73,123.45Z"/><path class="cls-1" d="M161.81,123.39a2,2,0,1,0-2-2A2,2,0,0,0,161.81,123.39Z"/><path class="cls-1" d="M169.9,123.3a1.93,1.93,0,1,0-1.93-1.93A1.93,1.93,0,0,0,169.9,123.3Z"/><path class="cls-1" d="M178,123.18a1.82,1.82,0,1,0-1.81-1.81A1.81,1.81,0,0,0,178,123.18Z"/><path class="cls-1" d="M186.08,123.07a1.71,1.71,0,1,0-1.7-1.7A1.7,1.7,0,0,0,186.08,123.07Z"/><path class="cls-1" d="M194.17,123a1.6,1.6,0,1,0-1.59-1.59A1.6,1.6,0,0,0,194.17,123Z"/><path class="cls-1" d="M202.26,122.82a1.46,1.46,0,1,0-1.46-1.45A1.45,1.45,0,0,0,202.26,122.82Z"/><path class="cls-1" d="M210.35,122.69a1.33,1.33,0,1,0-1.32-1.32A1.33,1.33,0,0,0,210.35,122.69Z"/><path class="cls-1" d="M218.44,122.56a1.19,1.19,0,1,0-1.19-1.19A1.19,1.19,0,0,0,218.44,122.56Z"/><path class="cls-1" d="M226.53,122.42a1.06,1.06,0,1,0-1.05-1A1.06,1.06,0,0,0,226.53,122.42Z"/><path class="cls-1" d="M234.62,122.29a.92.92,0,1,0-.92-.92A.92.92,0,0,0,234.62,122.29Z"/><path class="cls-1" d="M242.71,122.15a.79.79,0,1,0-.78-.78A.78.78,0,0,0,242.71,122.15Z"/><path class="cls-1" d="M250.8,122a.65.65,0,1,0-.65-.65A.65.65,0,0,0,250.8,122Z"/><path class="cls-1" d="M258.89,121.88a.52.52,0,1,0-.52-.51A.51.51,0,0,0,258.89,121.88Z"/><path class="cls-1" d="M267,121.75a.38.38,0,1,0-.38-.38A.38.38,0,0,0,267,121.75Z"/><path class="cls-1" d="M275.07,121.59a.22.22,0,0,0,.22-.22.22.22,0,0,0-.22-.23.23.23,0,1,0,0,.45Z"/><path class="cls-1" d="M283.16,121.46a.09.09,0,1,0-.09-.09A.09.09,0,0,0,283.16,121.46Z"/><path class="cls-1" d="M8.11,129.57a.11.11,0,0,0,.11-.11.11.11,0,1,0-.22,0A.11.11,0,0,0,8.11,129.57Z"/><path class="cls-1" d="M16.2,129.7a.25.25,0,1,0,0-.49.25.25,0,1,0,0,.49Z"/><path class="cls-1" d="M24.29,129.84a.38.38,0,0,0,.38-.38.38.38,0,1,0-.76,0A.38.38,0,0,0,24.29,129.84Z"/><path class="cls-1" d="M32.38,130a.52.52,0,1,0,0-1,.52.52,0,1,0,0,1Z"/><path class="cls-1" d="M40.47,130.13a.68.68,0,1,0-.67-.67A.67.67,0,0,0,40.47,130.13Z"/><path class="cls-1" d="M48.56,130.26a.81.81,0,1,0-.81-.8A.8.8,0,0,0,48.56,130.26Z"/><path class="cls-1" d="M56.65,130.4a.95.95,0,1,0-.94-.94A.94.94,0,0,0,56.65,130.4Z"/><path class="cls-1" d="M64.74,130.53a1.08,1.08,0,1,0-1.08-1.07A1.08,1.08,0,0,0,64.74,130.53Z"/><path class="cls-1" d="M72.83,130.67a1.22,1.22,0,1,0-1.21-1.21A1.21,1.21,0,0,0,72.83,130.67Z"/><path class="cls-1" d="M80.92,130.8a1.35,1.35,0,1,0-1.35-1.34A1.34,1.34,0,0,0,80.92,130.8Z"/><path class="cls-1" d="M89,130.94a1.48,1.48,0,1,0-1.48-1.48A1.48,1.48,0,0,0,89,130.94Z"/><path class="cls-1" d="M97.1,131.07a1.62,1.62,0,1,0-1.62-1.61A1.61,1.61,0,0,0,97.1,131.07Z"/><path class="cls-1" d="M105.19,131.21a1.75,1.75,0,1,0-1.75-1.75A1.76,1.76,0,0,0,105.19,131.21Z"/><path class="cls-1" d="M113.28,131.34a1.89,1.89,0,1,0-1.89-1.88A1.88,1.88,0,0,0,113.28,131.34Z"/><path class="cls-1" d="M121.37,131.48a2,2,0,1,0-2-2A2,2,0,0,0,121.37,131.48Z"/><path class="cls-1" d="M129.46,131.56a2.11,2.11,0,1,0-2.11-2.1A2.1,2.1,0,0,0,129.46,131.56Z"/><path class="cls-1" d="M137.55,131.65a2.2,2.2,0,1,0-2.2-2.19A2.19,2.19,0,0,0,137.55,131.65Z"/><path class="cls-1" d="M145.64,131.7a2.25,2.25,0,1,0-2.25-2.24A2.24,2.24,0,0,0,145.64,131.7Z"/><path class="cls-1" d="M153.73,131.68a2.22,2.22,0,1,0-2.23-2.22A2.23,2.23,0,0,0,153.73,131.68Z"/><path class="cls-1" d="M161.81,131.59a2.13,2.13,0,1,0-2.13-2.13A2.14,2.14,0,0,0,161.81,131.59Z"/><path class="cls-1" d="M169.9,131.48a2,2,0,1,0-2-2A2,2,0,0,0,169.9,131.48Z"/><path class="cls-1" d="M178,131.36a1.91,1.91,0,1,0-1.9-1.9A1.9,1.9,0,0,0,178,131.36Z"/><path class="cls-1" d="M186.08,131.23a1.78,1.78,0,1,0-1.77-1.77A1.78,1.78,0,0,0,186.08,131.23Z"/><path class="cls-1" d="M194.17,131.09a1.64,1.64,0,1,0-1.63-1.63A1.63,1.63,0,0,0,194.17,131.09Z"/><path class="cls-1" d="M202.26,131a1.51,1.51,0,1,0-1.5-1.5A1.51,1.51,0,0,0,202.26,131Z"/><path class="cls-1" d="M210.35,130.82a1.37,1.37,0,1,0-1.37-1.36A1.36,1.36,0,0,0,210.35,130.82Z"/><path class="cls-1" d="M218.44,130.69a1.24,1.24,0,1,0-1.23-1.23A1.24,1.24,0,0,0,218.44,130.69Z"/><path class="cls-1" d="M226.53,130.56a1.1,1.1,0,1,0-1.1-1.1A1.1,1.1,0,0,0,226.53,130.56Z"/><path class="cls-1" d="M234.62,130.42a1,1,0,1,0-1-1A1,1,0,0,0,234.62,130.42Z"/><path class="cls-1" d="M242.71,130.26a.81.81,0,1,0-.81-.8A.8.8,0,0,0,242.71,130.26Z"/><path class="cls-1" d="M250.8,130.13a.68.68,0,1,0-.67-.67A.67.67,0,0,0,250.8,130.13Z"/><path class="cls-1" d="M258.89,130a.54.54,0,1,0-.54-.53A.54.54,0,0,0,258.89,130Z"/><path class="cls-1" d="M267,129.86a.41.41,0,1,0-.4-.4A.4.4,0,0,0,267,129.86Z"/><path class="cls-1" d="M275.07,129.7a.25.25,0,1,0-.25-.24A.25.25,0,0,0,275.07,129.7Z"/><path class="cls-1" d="M283.16,129.57a.11.11,0,0,0,.11-.11.11.11,0,1,0-.22,0A.11.11,0,0,0,283.16,129.57Z"/><path class="cls-1" d="M8.11,137.66a.11.11,0,0,0,.11-.11.11.11,0,1,0-.22,0A.11.11,0,0,0,8.11,137.66Z"/><path class="cls-1" d="M16.2,137.79a.25.25,0,1,0,0-.49.25.25,0,1,0,0,.49Z"/><path class="cls-1" d="M24.29,138a.41.41,0,1,0-.4-.4A.4.4,0,0,0,24.29,138Z"/><path class="cls-1" d="M32.38,138.08a.54.54,0,1,0-.54-.53A.54.54,0,0,0,32.38,138.08Z"/><path class="cls-1" d="M40.47,138.22a.68.68,0,1,0-.67-.67A.67.67,0,0,0,40.47,138.22Z"/><path class="cls-1" d="M48.56,138.38a.83.83,0,1,0-.83-.83A.83.83,0,0,0,48.56,138.38Z"/><path class="cls-1" d="M56.65,138.51a1,1,0,1,0-1-1A1,1,0,0,0,56.65,138.51Z"/><path class="cls-1" d="M64.74,138.64a1.1,1.1,0,1,0-1.1-1.09A1.09,1.09,0,0,0,64.74,138.64Z"/><path class="cls-1" d="M72.83,138.78a1.24,1.24,0,1,0-1.23-1.23A1.23,1.23,0,0,0,72.83,138.78Z"/><path class="cls-1" d="M80.92,138.94a1.39,1.39,0,1,0-1.39-1.39A1.39,1.39,0,0,0,80.92,138.94Z"/><path class="cls-1" d="M89,139.07a1.53,1.53,0,1,0-1.53-1.52A1.52,1.52,0,0,0,89,139.07Z"/><path class="cls-1" d="M97.1,139.21a1.66,1.66,0,1,0-1.66-1.66A1.67,1.67,0,0,0,97.1,139.21Z"/><path class="cls-1" d="M105.19,139.34a1.8,1.8,0,1,0-1.8-1.79A1.79,1.79,0,0,0,105.19,139.34Z"/><path class="cls-1" d="M113.28,139.48a1.93,1.93,0,1,0-1.93-1.93A1.94,1.94,0,0,0,113.28,139.48Z"/><path class="cls-1" d="M121.37,139.61a2.07,2.07,0,1,0-2.07-2.06A2.06,2.06,0,0,0,121.37,139.61Z"/><path class="cls-1" d="M129.46,139.74a2.2,2.2,0,1,0-2.2-2.19A2.19,2.19,0,0,0,129.46,139.74Z"/><path class="cls-1" d="M137.55,139.83a2.29,2.29,0,1,0-2.29-2.28A2.28,2.28,0,0,0,137.55,139.83Z"/><path class="cls-1" d="M145.64,139.83a2.29,2.29,0,1,0-2.29-2.28A2.28,2.28,0,0,0,145.64,139.83Z"/><path class="cls-1" d="M153.73,139.83a2.29,2.29,0,1,0-2.29-2.28A2.28,2.28,0,0,0,153.73,139.83Z"/><path class="cls-1" d="M161.81,139.77a2.22,2.22,0,1,0-2.22-2.22A2.23,2.23,0,0,0,161.81,139.77Z"/><path class="cls-1" d="M169.9,139.63a2.09,2.09,0,1,0-2.08-2.08A2.08,2.08,0,0,0,169.9,139.63Z"/><path class="cls-1" d="M178,139.5a2,2,0,1,0-2-1.95A2,2,0,0,0,178,139.5Z"/><path class="cls-1" d="M186.08,139.36a1.82,1.82,0,1,0-1.81-1.81A1.81,1.81,0,0,0,186.08,139.36Z"/><path class="cls-1" d="M194.17,139.23a1.69,1.69,0,1,0-1.68-1.68A1.69,1.69,0,0,0,194.17,139.23Z"/><path class="cls-1" d="M202.26,139.07a1.53,1.53,0,1,0-1.52-1.52A1.52,1.52,0,0,0,202.26,139.07Z"/><path class="cls-1" d="M210.35,138.94a1.39,1.39,0,1,0-1.39-1.39A1.39,1.39,0,0,0,210.35,138.94Z"/><path class="cls-1" d="M218.44,138.8a1.26,1.26,0,1,0-1.25-1.25A1.25,1.25,0,0,0,218.44,138.8Z"/><path class="cls-1" d="M226.53,138.67a1.13,1.13,0,1,0-1.12-1.12A1.12,1.12,0,0,0,226.53,138.67Z"/><path class="cls-1" d="M234.62,138.51a1,1,0,1,0-1-1A1,1,0,0,0,234.62,138.51Z"/><path class="cls-1" d="M242.71,138.38a.83.83,0,1,0-.83-.83A.83.83,0,0,0,242.71,138.38Z"/><path class="cls-1" d="M250.8,138.24a.7.7,0,1,0-.7-.69A.7.7,0,0,0,250.8,138.24Z"/><path class="cls-1" d="M258.89,138.11a.56.56,0,0,0,.56-.56.56.56,0,1,0-1.12,0A.56.56,0,0,0,258.89,138.11Z"/><path class="cls-1" d="M267,138a.41.41,0,1,0-.4-.4A.4.4,0,0,0,267,138Z"/><path class="cls-1" d="M275.07,137.82a.28.28,0,0,0,.27-.27.27.27,0,1,0-.54,0A.28.28,0,0,0,275.07,137.82Z"/><path class="cls-1" d="M283.16,137.68a.13.13,0,0,0,.13-.13.13.13,0,0,0-.13-.14.14.14,0,0,0-.14.14A.13.13,0,0,0,283.16,137.68Z"/><path class="cls-1" d="M291.25,137.57l0,0s0,0,0,0,0,0,0,0Z"/><path class="cls-1" d="M0,145.66a0,0,0,0,0,0,0s0,0,0,0,0,0,0,0A0,0,0,0,0,0,145.66Z"/><path class="cls-1" d="M8.11,145.75a.11.11,0,0,0,.11-.11.11.11,0,1,0-.22,0A.11.11,0,0,0,8.11,145.75Z"/><path class="cls-1" d="M16.2,145.9a.27.27,0,1,0-.27-.26A.27.27,0,0,0,16.2,145.9Z"/><path class="cls-1" d="M24.29,146a.41.41,0,1,0-.4-.4A.4.4,0,0,0,24.29,146Z"/><path class="cls-1" d="M32.38,146.17a.54.54,0,1,0-.54-.53A.54.54,0,0,0,32.38,146.17Z"/><path class="cls-1" d="M40.47,146.33a.7.7,0,1,0-.69-.69A.69.69,0,0,0,40.47,146.33Z"/><path class="cls-1" d="M48.56,146.47a.83.83,0,1,0-.83-.83A.83.83,0,0,0,48.56,146.47Z"/><path class="cls-1" d="M56.65,146.6a1,1,0,1,0-1-1A1,1,0,0,0,56.65,146.6Z"/><path class="cls-1" d="M64.74,146.76a1.13,1.13,0,1,0-1.12-1.12A1.12,1.12,0,0,0,64.74,146.76Z"/><path class="cls-1" d="M72.83,146.89a1.26,1.26,0,1,0-1.26-1.25A1.26,1.26,0,0,0,72.83,146.89Z"/><path class="cls-1" d="M80.92,147a1.4,1.4,0,1,0-1.39-1.39A1.39,1.39,0,0,0,80.92,147Z"/><path class="cls-1" d="M89,147.16a1.53,1.53,0,1,0-1.53-1.52A1.52,1.52,0,0,0,89,147.16Z"/><path class="cls-1" d="M97.1,147.32a1.69,1.69,0,1,0-1.68-1.68A1.68,1.68,0,0,0,97.1,147.32Z"/><path class="cls-1" d="M105.19,147.45a1.82,1.82,0,1,0-1.82-1.81A1.81,1.81,0,0,0,105.19,147.45Z"/><path class="cls-1" d="M113.28,147.59a2,2,0,1,0-2-2A2,2,0,0,0,113.28,147.59Z"/><path class="cls-1" d="M121.37,147.74a2.11,2.11,0,1,0-2.11-2.1A2.11,2.11,0,0,0,121.37,147.74Z"/><path class="cls-1" d="M129.46,147.88a2.25,2.25,0,1,0-2.25-2.24A2.24,2.24,0,0,0,129.46,147.88Z"/><path class="cls-1" d="M137.55,147.92a2.29,2.29,0,1,0-2.29-2.28A2.28,2.28,0,0,0,137.55,147.92Z"/><path class="cls-1" d="M145.64,147.92a2.29,2.29,0,1,0-2.29-2.28A2.28,2.28,0,0,0,145.64,147.92Z"/><path class="cls-1" d="M153.73,147.92a2.29,2.29,0,1,0-2.29-2.28A2.28,2.28,0,0,0,153.73,147.92Z"/><path class="cls-1" d="M161.81,147.88a2.25,2.25,0,1,0-2.24-2.24A2.25,2.25,0,0,0,161.81,147.88Z"/><path class="cls-1" d="M169.9,147.74a2.11,2.11,0,1,0-2.1-2.1A2.1,2.1,0,0,0,169.9,147.74Z"/><path class="cls-1" d="M178,147.61a2,2,0,1,0-2-2A2,2,0,0,0,178,147.61Z"/><path class="cls-1" d="M186.08,147.47a1.84,1.84,0,1,0-1.84-1.83A1.83,1.83,0,0,0,186.08,147.47Z"/><path class="cls-1" d="M194.17,147.32a1.69,1.69,0,1,0-1.68-1.68A1.69,1.69,0,0,0,194.17,147.32Z"/><path class="cls-1" d="M202.26,147.18a1.55,1.55,0,1,0-1.55-1.54A1.54,1.54,0,0,0,202.26,147.18Z"/><path class="cls-1" d="M210.35,147.05a1.42,1.42,0,1,0-1.41-1.41A1.42,1.42,0,0,0,210.35,147.05Z"/><path class="cls-1" d="M218.44,146.89a1.26,1.26,0,1,0-1.25-1.25A1.25,1.25,0,0,0,218.44,146.89Z"/><path class="cls-1" d="M226.53,146.76a1.13,1.13,0,1,0-1.12-1.12A1.12,1.12,0,0,0,226.53,146.76Z"/><path class="cls-1" d="M234.62,146.62a1,1,0,1,0-1-1A1,1,0,0,0,234.62,146.62Z"/><path class="cls-1" d="M242.71,146.49a.86.86,0,1,0-.85-.85A.85.85,0,0,0,242.71,146.49Z"/><path class="cls-1" d="M250.8,146.33a.7.7,0,1,0-.7-.69A.7.7,0,0,0,250.8,146.33Z"/><path class="cls-1" d="M258.89,146.2a.56.56,0,0,0,.56-.56.56.56,0,1,0-1.12,0A.56.56,0,0,0,258.89,146.2Z"/><path class="cls-1" d="M267,146.06a.43.43,0,1,0,0-.85.43.43,0,1,0,0,.85Z"/><path class="cls-1" d="M275.07,145.9a.27.27,0,1,0-.27-.26A.27.27,0,0,0,275.07,145.9Z"/><path class="cls-1" d="M283.16,145.77a.13.13,0,0,0,.13-.13.13.13,0,0,0-.13-.14.14.14,0,0,0-.14.14A.13.13,0,0,0,283.16,145.77Z"/><path class="cls-1" d="M291.25,145.66a0,0,0,0,0,0,0s0,0,0,0,0,0,0,0A0,0,0,0,0,291.25,145.66Z"/><path class="cls-1" d="M8.11,153.84a.11.11,0,0,0,.11-.11.11.11,0,1,0-.22,0A.11.11,0,0,0,8.11,153.84Z"/><path class="cls-1" d="M16.2,154a.27.27,0,1,0-.27-.26A.27.27,0,0,0,16.2,154Z"/><path class="cls-1" d="M24.29,154.13a.41.41,0,1,0-.4-.4A.4.4,0,0,0,24.29,154.13Z"/><path class="cls-1" d="M32.38,154.26a.54.54,0,1,0-.54-.53A.54.54,0,0,0,32.38,154.26Z"/><path class="cls-1" d="M40.47,154.4a.68.68,0,1,0-.67-.67A.67.67,0,0,0,40.47,154.4Z"/><path class="cls-1" d="M48.56,154.55a.83.83,0,0,0,.83-.82.83.83,0,1,0-1.66,0A.83.83,0,0,0,48.56,154.55Z"/><path class="cls-1" d="M56.65,154.69a1,1,0,1,0-1-1A1,1,0,0,0,56.65,154.69Z"/><path class="cls-1" d="M64.74,154.82a1.1,1.1,0,1,0-1.1-1.09A1.09,1.09,0,0,0,64.74,154.82Z"/><path class="cls-1" d="M72.83,155a1.26,1.26,0,1,0-1.26-1.25A1.26,1.26,0,0,0,72.83,155Z"/><path class="cls-1" d="M80.92,155.12a1.4,1.4,0,1,0-1.39-1.39A1.39,1.39,0,0,0,80.92,155.12Z"/><path class="cls-1" d="M89,155.25a1.53,1.53,0,1,0-1.53-1.52A1.52,1.52,0,0,0,89,155.25Z"/><path class="cls-1" d="M97.1,155.39a1.66,1.66,0,1,0-1.66-1.66A1.67,1.67,0,0,0,97.1,155.39Z"/><path class="cls-1" d="M105.19,155.54a1.82,1.82,0,1,0-1.82-1.81A1.81,1.81,0,0,0,105.19,155.54Z"/><path class="cls-1" d="M113.28,155.68a2,2,0,1,0-2-2A2,2,0,0,0,113.28,155.68Z"/><path class="cls-1" d="M121.37,155.81a2.09,2.09,0,1,0-2.09-2.08A2.08,2.08,0,0,0,121.37,155.81Z"/><path class="cls-1" d="M129.46,156a2.23,2.23,0,1,0-2.22-2.22A2.23,2.23,0,0,0,129.46,156Z"/><path class="cls-1" d="M137.55,156a2.29,2.29,0,1,0-2.29-2.28A2.28,2.28,0,0,0,137.55,156Z"/><path class="cls-1" d="M145.64,156a2.29,2.29,0,1,0-2.29-2.28A2.28,2.28,0,0,0,145.64,156Z"/><path class="cls-1" d="M153.73,156a2.29,2.29,0,1,0-2.29-2.28A2.28,2.28,0,0,0,153.73,156Z"/><path class="cls-1" d="M161.81,156a2.23,2.23,0,1,0-2.22-2.22A2.23,2.23,0,0,0,161.81,156Z"/><path class="cls-1" d="M169.9,155.81a2.09,2.09,0,1,0-2.08-2.08A2.08,2.08,0,0,0,169.9,155.81Z"/><path class="cls-1" d="M178,155.68a2,2,0,1,0-2-2A2,2,0,0,0,178,155.68Z"/><path class="cls-1" d="M186.08,155.54a1.82,1.82,0,1,0-1.81-1.81A1.81,1.81,0,0,0,186.08,155.54Z"/><path class="cls-1" d="M194.17,155.41a1.69,1.69,0,1,0-1.68-1.68A1.69,1.69,0,0,0,194.17,155.41Z"/><path class="cls-1" d="M202.26,155.27a1.55,1.55,0,1,0-1.55-1.54A1.54,1.54,0,0,0,202.26,155.27Z"/><path class="cls-1" d="M210.35,155.12a1.4,1.4,0,1,0-1.39-1.39A1.39,1.39,0,0,0,210.35,155.12Z"/><path class="cls-1" d="M218.44,155a1.26,1.26,0,1,0-1.25-1.25A1.25,1.25,0,0,0,218.44,155Z"/><path class="cls-1" d="M226.53,154.85a1.13,1.13,0,1,0-1.12-1.12A1.12,1.12,0,0,0,226.53,154.85Z"/><path class="cls-1" d="M234.62,154.71a1,1,0,1,0-1-1A1,1,0,0,0,234.62,154.71Z"/><path class="cls-1" d="M242.71,154.55a.83.83,0,0,0,.83-.82.83.83,0,1,0-1.66,0A.83.83,0,0,0,242.71,154.55Z"/><path class="cls-1" d="M250.8,154.42a.7.7,0,1,0-.7-.69A.7.7,0,0,0,250.8,154.42Z"/><path class="cls-1" d="M258.89,154.29a.57.57,0,1,0-.56-.56A.57.57,0,0,0,258.89,154.29Z"/><path class="cls-1" d="M267,154.13a.41.41,0,1,0-.4-.4A.4.4,0,0,0,267,154.13Z"/><path class="cls-1" d="M275.07,154a.27.27,0,1,0-.27-.26A.27.27,0,0,0,275.07,154Z"/><path class="cls-1" d="M283.16,153.86a.13.13,0,0,0,.13-.13.13.13,0,0,0-.13-.14.14.14,0,0,0-.14.14A.13.13,0,0,0,283.16,153.86Z"/><path class="cls-1" d="M291.25,153.75a0,0,0,0,0,0,0s0,0,0,0,0,0,0,0A0,0,0,0,0,291.25,153.75Z"/><path class="cls-1" d="M8.11,161.93a.11.11,0,0,0,.11-.12.11.11,0,1,0-.22,0A.11.11,0,0,0,8.11,161.93Z"/><path class="cls-1" d="M16.2,162.06a.25.25,0,1,0,0-.49.25.25,0,1,0,0,.49Z"/><path class="cls-1" d="M24.29,162.2a.39.39,0,1,0-.38-.39A.38.38,0,0,0,24.29,162.2Z"/><path class="cls-1" d="M32.38,162.33a.52.52,0,1,0-.52-.52A.52.52,0,0,0,32.38,162.33Z"/><path class="cls-1" d="M40.47,162.49a.68.68,0,1,0-.67-.68A.67.67,0,0,0,40.47,162.49Z"/><path class="cls-1" d="M48.56,162.62a.81.81,0,1,0-.81-.81A.81.81,0,0,0,48.56,162.62Z"/><path class="cls-1" d="M56.65,162.76a.95.95,0,1,0-.94-.95A.95.95,0,0,0,56.65,162.76Z"/><path class="cls-1" d="M64.74,162.89a1.08,1.08,0,1,0-1.08-1.08A1.08,1.08,0,0,0,64.74,162.89Z"/><path class="cls-1" d="M72.83,163.05a1.24,1.24,0,1,0-1.23-1.24A1.23,1.23,0,0,0,72.83,163.05Z"/><path class="cls-1" d="M80.92,163.18a1.37,1.37,0,1,0-1.37-1.37A1.37,1.37,0,0,0,80.92,163.18Z"/><path class="cls-1" d="M89,163.32a1.51,1.51,0,1,0-1.5-1.51A1.51,1.51,0,0,0,89,163.32Z"/><path class="cls-1" d="M97.1,163.45a1.64,1.64,0,1,0-1.64-1.64A1.64,1.64,0,0,0,97.1,163.45Z"/><path class="cls-1" d="M105.19,163.59a1.78,1.78,0,1,0-1.77-1.78A1.78,1.78,0,0,0,105.19,163.59Z"/><path class="cls-1" d="M113.28,163.72a1.91,1.91,0,1,0-1.91-1.91A1.9,1.9,0,0,0,113.28,163.72Z"/><path class="cls-1" d="M121.37,163.83a2,2,0,1,0-2-2A2,2,0,0,0,121.37,163.83Z"/><path class="cls-1" d="M129.46,164a2.14,2.14,0,1,0-2.13-2.14A2.14,2.14,0,0,0,129.46,164Z"/><path class="cls-1" d="M137.55,164a2.23,2.23,0,1,0-2.22-2.23A2.23,2.23,0,0,0,137.55,164Z"/><path class="cls-1" d="M145.64,164.06a2.25,2.25,0,1,0-2.25-2.25A2.25,2.25,0,0,0,145.64,164.06Z"/><path class="cls-1" d="M153.73,164a2.23,2.23,0,1,0-2.23-2.23A2.23,2.23,0,0,0,153.73,164Z"/><path class="cls-1" d="M161.81,164a2.14,2.14,0,1,0-2.13-2.14A2.14,2.14,0,0,0,161.81,164Z"/><path class="cls-1" d="M169.9,163.83a2,2,0,1,0-2-2A2,2,0,0,0,169.9,163.83Z"/><path class="cls-1" d="M178,163.72a1.91,1.91,0,1,0-1.9-1.91A1.9,1.9,0,0,0,178,163.72Z"/><path class="cls-1" d="M186.08,163.59a1.78,1.78,0,1,0-1.77-1.78A1.78,1.78,0,0,0,186.08,163.59Z"/><path class="cls-1" d="M194.17,163.45a1.64,1.64,0,1,0-1.63-1.64A1.63,1.63,0,0,0,194.17,163.45Z"/><path class="cls-1" d="M202.26,163.32a1.51,1.51,0,1,0,0-3,1.51,1.51,0,0,0,0,3Z"/><path class="cls-1" d="M210.35,163.18a1.37,1.37,0,1,0-1.37-1.37A1.37,1.37,0,0,0,210.35,163.18Z"/><path class="cls-1" d="M218.44,163.05a1.24,1.24,0,1,0-1.23-1.24A1.24,1.24,0,0,0,218.44,163.05Z"/><path class="cls-1" d="M226.53,162.91a1.1,1.1,0,1,0-1.1-1.1A1.1,1.1,0,0,0,226.53,162.91Z"/><path class="cls-1" d="M234.62,162.78a1,1,0,1,0,0-1.93,1,1,0,0,0,0,1.93Z"/><path class="cls-1" d="M242.71,162.64a.83.83,0,1,0-.83-.83A.83.83,0,0,0,242.71,162.64Z"/><path class="cls-1" d="M250.8,162.49a.68.68,0,1,0-.67-.68A.67.67,0,0,0,250.8,162.49Z"/><path class="cls-1" d="M258.89,162.35a.54.54,0,1,0-.54-.54A.54.54,0,0,0,258.89,162.35Z"/><path class="cls-1" d="M267,162.22a.41.41,0,1,0-.4-.41A.4.4,0,0,0,267,162.22Z"/><path class="cls-1" d="M275.07,162.08a.27.27,0,1,0-.27-.27A.27.27,0,0,0,275.07,162.08Z"/><path class="cls-1" d="M283.16,161.93a.11.11,0,0,0,.11-.12.11.11,0,1,0-.22,0A.11.11,0,0,0,283.16,161.93Z"/><path class="cls-1" d="M8.11,170A.09.09,0,1,0,8,169.9.09.09,0,0,0,8.11,170Z"/><path class="cls-1" d="M16.2,170.13a.23.23,0,1,0,0-.45.22.22,0,0,0-.22.22A.22.22,0,0,0,16.2,170.13Z"/><path class="cls-1" d="M24.29,170.26a.36.36,0,1,0-.36-.36A.36.36,0,0,0,24.29,170.26Z"/><path class="cls-1" d="M32.38,170.4a.5.5,0,1,0-.49-.5A.49.49,0,0,0,32.38,170.4Z"/><path class="cls-1" d="M40.47,170.55a.65.65,0,1,0-.65-.65A.65.65,0,0,0,40.47,170.55Z"/><path class="cls-1" d="M48.56,170.69a.79.79,0,1,0-.79-.79A.79.79,0,0,0,48.56,170.69Z"/><path class="cls-1" d="M56.65,170.82a.92.92,0,1,0-.92-.92A.92.92,0,0,0,56.65,170.82Z"/><path class="cls-1" d="M64.74,171a1.06,1.06,0,1,0-1-1.06A1.05,1.05,0,0,0,64.74,171Z"/><path class="cls-1" d="M72.83,171.09a1.19,1.19,0,1,0-1.19-1.19A1.19,1.19,0,0,0,72.83,171.09Z"/><path class="cls-1" d="M80.92,171.23a1.33,1.33,0,1,0-1.32-1.33A1.32,1.32,0,0,0,80.92,171.23Z"/><path class="cls-1" d="M89,171.36a1.46,1.46,0,1,0-1.46-1.46A1.46,1.46,0,0,0,89,171.36Z"/><path class="cls-1" d="M97.1,171.47a1.57,1.57,0,1,0-1.57-1.57A1.57,1.57,0,0,0,97.1,171.47Z"/><path class="cls-1" d="M105.19,171.61a1.71,1.71,0,1,0-1.71-1.71A1.7,1.7,0,0,0,105.19,171.61Z"/><path class="cls-1" d="M113.28,171.72a1.82,1.82,0,1,0-1.82-1.82A1.81,1.81,0,0,0,113.28,171.72Z"/><path class="cls-1" d="M121.37,171.83a1.93,1.93,0,1,0-1.93-1.93A1.93,1.93,0,0,0,121.37,171.83Z"/><path class="cls-1" d="M129.46,171.92a2,2,0,1,0-2-2A2,2,0,0,0,129.46,171.92Z"/><path class="cls-1" d="M137.55,172a2.09,2.09,0,1,0-2.09-2.09A2.08,2.08,0,0,0,137.55,172Z"/><path class="cls-1" d="M145.64,172a2.11,2.11,0,1,0-2.11-2.11A2.1,2.1,0,0,0,145.64,172Z"/><path class="cls-1" d="M153.73,172a2.09,2.09,0,1,0-2.09-2.09A2.08,2.08,0,0,0,153.73,172Z"/><path class="cls-1" d="M161.81,171.92a2,2,0,1,0-2-2A2,2,0,0,0,161.81,171.92Z"/><path class="cls-1" d="M169.9,171.86a2,2,0,1,0-2-2A2,2,0,0,0,169.9,171.86Z"/><path class="cls-1" d="M178,171.74a1.84,1.84,0,1,0-1.84-1.84A1.84,1.84,0,0,0,178,171.74Z"/><path class="cls-1" d="M186.08,171.63a1.73,1.73,0,1,0-1.72-1.73A1.72,1.72,0,0,0,186.08,171.63Z"/><path class="cls-1" d="M194.17,171.5a1.6,1.6,0,1,0,0-3.19,1.6,1.6,0,0,0,0,3.19Z"/><path class="cls-1" d="M202.26,171.36a1.46,1.46,0,1,0-1.46-1.46A1.46,1.46,0,0,0,202.26,171.36Z"/><path class="cls-1" d="M210.35,171.23A1.33,1.33,0,1,0,209,169.9,1.33,1.33,0,0,0,210.35,171.23Z"/><path class="cls-1" d="M218.44,171.12a1.22,1.22,0,1,0-1.21-1.22A1.22,1.22,0,0,0,218.44,171.12Z"/><path class="cls-1" d="M226.53,171a1.08,1.08,0,1,0-1.08-1.08A1.08,1.08,0,0,0,226.53,171Z"/><path class="cls-1" d="M234.62,170.82a.92.92,0,1,0-.92-.92A.92.92,0,0,0,234.62,170.82Z"/><path class="cls-1" d="M242.71,170.69a.79.79,0,1,0,0-1.57.79.79,0,0,0,0,1.57Z"/><path class="cls-1" d="M250.8,170.55a.65.65,0,1,0-.65-.65A.65.65,0,0,0,250.8,170.55Z"/><path class="cls-1" d="M258.89,170.42a.52.52,0,1,0,0-1,.52.52,0,1,0,0,1Z"/><path class="cls-1" d="M267,170.29a.39.39,0,0,0,.38-.39.38.38,0,1,0-.76,0A.39.39,0,0,0,267,170.29Z"/><path class="cls-1" d="M275.07,170.15a.25.25,0,1,0-.25-.25A.25.25,0,0,0,275.07,170.15Z"/><path class="cls-1" d="M283.16,170a.09.09,0,1,0-.09-.09A.09.09,0,0,0,283.16,170Z"/><path class="cls-1" d="M8.11,178.06a.07.07,0,0,0,.07-.07A.07.07,0,0,0,8,178,.07.07,0,0,0,8.11,178.06Z"/><path class="cls-1" d="M16.2,178.2a.2.2,0,0,0,.2-.21.2.2,0,1,0-.4,0A.2.2,0,0,0,16.2,178.2Z"/><path class="cls-1" d="M24.29,178.33a.34.34,0,1,0,0-.67.34.34,0,1,0,0,.67Z"/><path class="cls-1" d="M32.38,178.46a.47.47,0,1,0-.47-.47A.47.47,0,0,0,32.38,178.46Z"/><path class="cls-1" d="M40.47,178.6a.61.61,0,1,0-.61-.61A.61.61,0,0,0,40.47,178.6Z"/><path class="cls-1" d="M48.56,178.73a.74.74,0,1,0-.74-.74A.74.74,0,0,0,48.56,178.73Z"/><path class="cls-1" d="M56.65,178.87a.88.88,0,1,0-.88-.88A.87.87,0,0,0,56.65,178.87Z"/><path class="cls-1" d="M64.74,179a1,1,0,1,0-1-1A1,1,0,0,0,64.74,179Z"/><path class="cls-1" d="M72.83,179.14A1.15,1.15,0,1,0,71.68,178,1.14,1.14,0,0,0,72.83,179.14Z"/><path class="cls-1" d="M80.92,179.25A1.26,1.26,0,1,0,79.66,178,1.25,1.25,0,0,0,80.92,179.25Z"/><path class="cls-1" d="M89,179.38A1.39,1.39,0,1,0,87.62,178,1.39,1.39,0,0,0,89,179.38Z"/><path class="cls-1" d="M97.1,179.5A1.51,1.51,0,1,0,95.59,178,1.51,1.51,0,0,0,97.1,179.5Z"/><path class="cls-1" d="M105.19,179.61a1.62,1.62,0,1,0-1.62-1.62A1.61,1.61,0,0,0,105.19,179.61Z"/><path class="cls-1" d="M113.28,179.72a1.73,1.73,0,1,0-1.73-1.73A1.72,1.72,0,0,0,113.28,179.72Z"/><path class="cls-1" d="M121.37,179.81a1.82,1.82,0,1,0-1.82-1.82A1.81,1.81,0,0,0,121.37,179.81Z"/><path class="cls-1" d="M129.46,179.9a1.91,1.91,0,1,0-1.91-1.91A1.9,1.9,0,0,0,129.46,179.9Z"/><path class="cls-1" d="M137.55,180a2,2,0,1,0-2-2A2,2,0,0,0,137.55,180Z"/><path class="cls-1" d="M145.64,180a2,2,0,1,0-2-2A2,2,0,0,0,145.64,180Z"/><path class="cls-1" d="M153.73,180a2,2,0,1,0-2-2A2,2,0,0,0,153.73,180Z"/><path class="cls-1" d="M161.81,179.9a1.91,1.91,0,1,0-1.9-1.91A1.9,1.9,0,0,0,161.81,179.9Z"/><path class="cls-1" d="M169.9,179.83a1.84,1.84,0,1,0-1.84-1.84A1.84,1.84,0,0,0,169.9,179.83Z"/><path class="cls-1" d="M178,179.74a1.75,1.75,0,1,0-1.75-1.75A1.75,1.75,0,0,0,178,179.74Z"/><path class="cls-1" d="M186.08,179.63a1.64,1.64,0,1,0-1.63-1.64A1.63,1.63,0,0,0,186.08,179.63Z"/><path class="cls-1" d="M194.17,179.52a1.53,1.53,0,1,0-1.52-1.53A1.52,1.52,0,0,0,194.17,179.52Z"/><path class="cls-1" d="M202.26,179.38a1.39,1.39,0,1,0-1.39-1.39A1.39,1.39,0,0,0,202.26,179.38Z"/><path class="cls-1" d="M210.35,179.27a1.28,1.28,0,1,0-1.28-1.28A1.28,1.28,0,0,0,210.35,179.27Z"/><path class="cls-1" d="M218.44,179.14A1.15,1.15,0,1,0,217.3,178,1.15,1.15,0,0,0,218.44,179.14Z"/><path class="cls-1" d="M226.53,179a1,1,0,1,0-1-1A1,1,0,0,0,226.53,179Z"/><path class="cls-1" d="M234.62,178.89a.9.9,0,1,0-.9-.9A.9.9,0,0,0,234.62,178.89Z"/><path class="cls-1" d="M242.71,178.76A.77.77,0,1,0,242,178,.76.76,0,0,0,242.71,178.76Z"/><path class="cls-1" d="M250.8,178.62a.63.63,0,1,0-.63-.63A.63.63,0,0,0,250.8,178.62Z"/><path class="cls-1" d="M258.89,178.49a.5.5,0,1,0-.49-.5A.49.49,0,0,0,258.89,178.49Z"/><path class="cls-1" d="M267,178.33a.34.34,0,1,0-.34-.34A.34.34,0,0,0,267,178.33Z"/><path class="cls-1" d="M275.07,178.2a.2.2,0,0,0,.2-.21.2.2,0,1,0-.4,0A.2.2,0,0,0,275.07,178.2Z"/><path class="cls-1" d="M283.16,178.06a.07.07,0,0,0,.07-.07.07.07,0,0,0-.14,0A.07.07,0,0,0,283.16,178.06Z"/><path class="cls-1" d="M8.11,186.11s0,0,0,0a0,0,0,0,0,0,0,0,0,0,0,0,0,0S8.1,186.11,8.11,186.11Z"/><path class="cls-1" d="M16.2,186.24a.16.16,0,0,0,.16-.16.16.16,0,0,0-.32,0A.16.16,0,0,0,16.2,186.24Z"/><path class="cls-1" d="M24.29,186.38a.3.3,0,0,0,.29-.3.29.29,0,1,0-.58,0A.3.3,0,0,0,24.29,186.38Z"/><path class="cls-1" d="M32.38,186.51a.43.43,0,1,0,0-.85.43.43,0,1,0,0,.85Z"/><path class="cls-1" d="M40.47,186.64a.56.56,0,1,0-.56-.56A.56.56,0,0,0,40.47,186.64Z"/><path class="cls-1" d="M48.56,186.78a.7.7,0,1,0-.7-.7A.7.7,0,0,0,48.56,186.78Z"/><path class="cls-1" d="M56.65,186.91a.83.83,0,1,0-.83-.83A.83.83,0,0,0,56.65,186.91Z"/><path class="cls-1" d="M64.74,187a.95.95,0,1,0-.94-.95A.95.95,0,0,0,64.74,187Z"/><path class="cls-1" d="M72.83,187.16a1.08,1.08,0,1,0-1.08-1.08A1.08,1.08,0,0,0,72.83,187.16Z"/><path class="cls-1" d="M80.92,187.27a1.19,1.19,0,1,0-1.19-1.19A1.19,1.19,0,0,0,80.92,187.27Z"/><path class="cls-1" d="M89,187.41a1.33,1.33,0,1,0-1.33-1.33A1.33,1.33,0,0,0,89,187.41Z"/><path class="cls-1" d="M97.1,187.52a1.44,1.44,0,1,0-1.44-1.44A1.43,1.43,0,0,0,97.1,187.52Z"/><path class="cls-1" d="M105.19,187.61a1.53,1.53,0,1,0-1.53-1.53A1.52,1.52,0,0,0,105.19,187.61Z"/><path class="cls-1" d="M113.28,187.72a1.64,1.64,0,1,0-1.64-1.64A1.63,1.63,0,0,0,113.28,187.72Z"/><path class="cls-1" d="M121.37,187.79a1.71,1.71,0,1,0-1.71-1.71A1.7,1.7,0,0,0,121.37,187.79Z"/><path class="cls-1" d="M129.46,187.86a1.78,1.78,0,1,0-1.78-1.78A1.78,1.78,0,0,0,129.46,187.86Z"/><path class="cls-1" d="M137.55,187.9a1.82,1.82,0,1,0-1.82-1.82A1.81,1.81,0,0,0,137.55,187.9Z"/><path class="cls-1" d="M145.64,187.92a1.84,1.84,0,1,0-1.84-1.84A1.83,1.83,0,0,0,145.64,187.92Z"/><path class="cls-1" d="M153.73,187.9a1.82,1.82,0,1,0-1.82-1.82A1.81,1.81,0,0,0,153.73,187.9Z"/><path class="cls-1" d="M161.81,187.86a1.78,1.78,0,1,0-1.77-1.78A1.78,1.78,0,0,0,161.81,187.86Z"/><path class="cls-1" d="M169.9,187.81a1.73,1.73,0,1,0-1.72-1.73A1.72,1.72,0,0,0,169.9,187.81Z"/><path class="cls-1" d="M178,187.72a1.64,1.64,0,1,0-1.63-1.64A1.63,1.63,0,0,0,178,187.72Z"/><path class="cls-1" d="M186.08,187.63a1.55,1.55,0,1,0-1.54-1.55A1.54,1.54,0,0,0,186.08,187.63Z"/><path class="cls-1" d="M194.17,187.52a1.44,1.44,0,1,0-1.43-1.44A1.43,1.43,0,0,0,194.17,187.52Z"/><path class="cls-1" d="M202.26,187.41a1.33,1.33,0,1,0,0-2.65,1.33,1.33,0,0,0,0,2.65Z"/><path class="cls-1" d="M210.35,187.29a1.21,1.21,0,1,0-1.21-1.21A1.21,1.21,0,0,0,210.35,187.29Z"/><path class="cls-1" d="M218.44,187.16a1.08,1.08,0,1,0-1.07-1.08A1.08,1.08,0,0,0,218.44,187.16Z"/><path class="cls-1" d="M226.53,187.05a1,1,0,1,0,0-1.93,1,1,0,0,0,0,1.93Z"/><path class="cls-1" d="M234.62,186.91a.83.83,0,1,0-.83-.83A.83.83,0,0,0,234.62,186.91Z"/><path class="cls-1" d="M242.71,186.78a.7.7,0,1,0,0-1.39.7.7,0,0,0,0,1.39Z"/><path class="cls-1" d="M250.8,186.64a.56.56,0,1,0-.56-.56A.56.56,0,0,0,250.8,186.64Z"/><path class="cls-1" d="M258.89,186.53a.45.45,0,0,0,.45-.45.45.45,0,0,0-.9,0A.45.45,0,0,0,258.89,186.53Z"/><path class="cls-1" d="M267,186.4a.32.32,0,1,0-.31-.32A.31.31,0,0,0,267,186.4Z"/><path class="cls-1" d="M275.07,186.26a.18.18,0,1,0-.18-.18A.18.18,0,0,0,275.07,186.26Z"/><path class="cls-1" d="M283.16,186.13a0,0,0,0,0,0,0,0,0,0,0,0,0,0,0,0,0,0,0-.05,0A0,0,0,0,0,283.16,186.13Z"/><path class="cls-1" d="M16.2,194.29a.11.11,0,0,0,.11-.12.11.11,0,0,0-.22,0A.11.11,0,0,0,16.2,194.29Z"/><path class="cls-1" d="M24.29,194.42a.25.25,0,1,0-.25-.25A.25.25,0,0,0,24.29,194.42Z"/><path class="cls-1" d="M32.38,194.55a.38.38,0,1,0-.38-.38A.38.38,0,0,0,32.38,194.55Z"/><path class="cls-1" d="M40.47,194.67a.5.5,0,1,0-.49-.5A.49.49,0,0,0,40.47,194.67Z"/><path class="cls-1" d="M48.56,194.8a.63.63,0,1,0-.63-.63A.63.63,0,0,0,48.56,194.8Z"/><path class="cls-1" d="M56.65,194.94a.77.77,0,0,0,.76-.77.76.76,0,0,0-1.52,0A.77.77,0,0,0,56.65,194.94Z"/><path class="cls-1" d="M64.74,195.05a.88.88,0,1,0-.88-.88A.87.87,0,0,0,64.74,195.05Z"/><path class="cls-1" d="M72.83,195.18a1,1,0,1,0-1-1A1,1,0,0,0,72.83,195.18Z"/><path class="cls-1" d="M80.92,195.29a1.12,1.12,0,1,0-1.12-1.12A1.12,1.12,0,0,0,80.92,195.29Z"/><path class="cls-1" d="M89,195.41a1.24,1.24,0,1,0-1.24-1.24A1.24,1.24,0,0,0,89,195.41Z"/><path class="cls-1" d="M97.1,195.5a1.33,1.33,0,1,0-1.33-1.33A1.33,1.33,0,0,0,97.1,195.5Z"/><path class="cls-1" d="M105.19,195.61a1.44,1.44,0,1,0-1.44-1.44A1.43,1.43,0,0,0,105.19,195.61Z"/><path class="cls-1" d="M113.28,195.7a1.53,1.53,0,1,0-1.53-1.53A1.52,1.52,0,0,0,113.28,195.7Z"/><path class="cls-1" d="M121.37,195.77a1.6,1.6,0,1,0-1.6-1.6A1.6,1.6,0,0,0,121.37,195.77Z"/><path class="cls-1" d="M129.46,195.81a1.64,1.64,0,1,0-1.64-1.64A1.63,1.63,0,0,0,129.46,195.81Z"/><path class="cls-1" d="M137.55,195.86a1.69,1.69,0,1,0-1.69-1.69A1.69,1.69,0,0,0,137.55,195.86Z"/><path class="cls-1" d="M145.64,195.86a1.69,1.69,0,1,0-1.69-1.69A1.69,1.69,0,0,0,145.64,195.86Z"/><path class="cls-1" d="M153.73,195.86a1.69,1.69,0,1,0-1.69-1.69A1.69,1.69,0,0,0,153.73,195.86Z"/><path class="cls-1" d="M161.81,195.81a1.64,1.64,0,1,0-1.63-1.64A1.63,1.63,0,0,0,161.81,195.81Z"/><path class="cls-1" d="M169.9,195.77a1.6,1.6,0,1,0,0-3.19,1.6,1.6,0,0,0,0,3.19Z"/><path class="cls-1" d="M178,195.7a1.53,1.53,0,1,0-1.52-1.53A1.52,1.52,0,0,0,178,195.7Z"/><path class="cls-1" d="M186.08,195.61a1.44,1.44,0,1,0-1.43-1.44A1.43,1.43,0,0,0,186.08,195.61Z"/><path class="cls-1" d="M194.17,195.52a1.35,1.35,0,1,0-1.34-1.35A1.34,1.34,0,0,0,194.17,195.52Z"/><path class="cls-1" d="M202.26,195.41a1.24,1.24,0,1,0,0-2.47,1.24,1.24,0,0,0,0,2.47Z"/><path class="cls-1" d="M210.35,195.29a1.12,1.12,0,1,0-1.12-1.12A1.12,1.12,0,0,0,210.35,195.29Z"/><path class="cls-1" d="M218.44,195.18a1,1,0,1,0-1-1A1,1,0,0,0,218.44,195.18Z"/><path class="cls-1" d="M226.53,195.07a.9.9,0,1,0-.9-.9A.9.9,0,0,0,226.53,195.07Z"/><path class="cls-1" d="M234.62,194.94a.77.77,0,0,0,.76-.77.76.76,0,1,0-1.52,0A.77.77,0,0,0,234.62,194.94Z"/><path class="cls-1" d="M242.71,194.82a.65.65,0,1,0-.65-.65A.65.65,0,0,0,242.71,194.82Z"/><path class="cls-1" d="M250.8,194.69a.52.52,0,1,0-.52-.52A.52.52,0,0,0,250.8,194.69Z"/><path class="cls-1" d="M258.89,194.55a.38.38,0,1,0-.38-.38A.38.38,0,0,0,258.89,194.55Z"/><path class="cls-1" d="M267,194.42a.25.25,0,1,0-.25-.25A.25.25,0,0,0,267,194.42Z"/><path class="cls-1" d="M275.07,194.31a.13.13,0,0,0,.13-.14.13.13,0,0,0-.13-.13.13.13,0,0,0-.14.13A.14.14,0,0,0,275.07,194.31Z"/><path class="cls-1" d="M283.16,194.2s0,0,0,0l0,0a0,0,0,0,0,0,0S283.15,194.2,283.16,194.2Z"/><path class="cls-1" d="M16.2,202.33a.07.07,0,0,0,.07-.07.07.07,0,0,0-.14,0A.07.07,0,0,0,16.2,202.33Z"/><path class="cls-1" d="M24.29,202.44a.18.18,0,1,0-.18-.18A.18.18,0,0,0,24.29,202.44Z"/><path class="cls-1" d="M32.38,202.58a.32.32,0,1,0-.31-.32A.31.31,0,0,0,32.38,202.58Z"/><path class="cls-1" d="M40.47,202.71a.45.45,0,1,0-.45-.45A.45.45,0,0,0,40.47,202.71Z"/><path class="cls-1" d="M48.56,202.82a.56.56,0,1,0-.56-.56A.56.56,0,0,0,48.56,202.82Z"/><path class="cls-1" d="M56.65,203a.7.7,0,1,0-.7-.7A.7.7,0,0,0,56.65,203Z"/><path class="cls-1" d="M64.74,203.07a.81.81,0,1,0-.81-.81A.81.81,0,0,0,64.74,203.07Z"/><path class="cls-1" d="M72.83,203.18a.92.92,0,1,0-.92-.92A.92.92,0,0,0,72.83,203.18Z"/><path class="cls-1" d="M80.92,203.29a1,1,0,1,0-1-1A1,1,0,0,0,80.92,203.29Z"/><path class="cls-1" d="M89,203.38a1.12,1.12,0,1,0-1.12-1.12A1.12,1.12,0,0,0,89,203.38Z"/><path class="cls-1" d="M97.1,203.5a1.24,1.24,0,1,0-1.24-1.24A1.24,1.24,0,0,0,97.1,203.5Z"/><path class="cls-1" d="M105.19,203.59a1.33,1.33,0,1,0-1.33-1.33A1.33,1.33,0,0,0,105.19,203.59Z"/><path class="cls-1" d="M113.28,203.65a1.39,1.39,0,1,0-1.39-1.39A1.39,1.39,0,0,0,113.28,203.65Z"/><path class="cls-1" d="M121.37,203.72a1.46,1.46,0,1,0-1.46-1.46A1.45,1.45,0,0,0,121.37,203.72Z"/><path class="cls-1" d="M129.46,203.77a1.51,1.51,0,1,0-1.51-1.51A1.51,1.51,0,0,0,129.46,203.77Z"/><path class="cls-1" d="M137.55,203.79a1.53,1.53,0,1,0-1.53-1.53A1.52,1.52,0,0,0,137.55,203.79Z"/><path class="cls-1" d="M145.64,203.81a1.55,1.55,0,1,0-1.55-1.55A1.54,1.54,0,0,0,145.64,203.81Z"/><path class="cls-1" d="M153.73,203.81a1.55,1.55,0,1,0-1.55-1.55A1.54,1.54,0,0,0,153.73,203.81Z"/><path class="cls-1" d="M161.81,203.77a1.51,1.51,0,1,0,0-3,1.51,1.51,0,0,0,0,3Z"/><path class="cls-1" d="M169.9,203.72a1.46,1.46,0,1,0-1.45-1.46A1.46,1.46,0,0,0,169.9,203.72Z"/><path class="cls-1" d="M178,203.65a1.39,1.39,0,1,0-1.39-1.39A1.39,1.39,0,0,0,178,203.65Z"/><path class="cls-1" d="M186.08,203.59a1.33,1.33,0,1,0,0-2.65,1.33,1.33,0,0,0,0,2.65Z"/><path class="cls-1" d="M194.17,203.5a1.24,1.24,0,1,0,0-2.47,1.24,1.24,0,0,0,0,2.47Z"/><path class="cls-1" d="M202.26,203.41a1.15,1.15,0,1,0,0-2.29,1.15,1.15,0,0,0,0,2.29Z"/><path class="cls-1" d="M210.35,203.29a1,1,0,1,0-1-1A1,1,0,0,0,210.35,203.29Z"/><path class="cls-1" d="M218.44,203.18a.92.92,0,1,0-.92-.92A.92.92,0,0,0,218.44,203.18Z"/><path class="cls-1" d="M226.53,203.07a.81.81,0,1,0-.81-.81A.81.81,0,0,0,226.53,203.07Z"/><path class="cls-1" d="M234.62,203a.7.7,0,1,0-.69-.7A.7.7,0,0,0,234.62,203Z"/><path class="cls-1" d="M242.71,202.85a.59.59,0,0,0,.58-.59.58.58,0,0,0-1.16,0A.59.59,0,0,0,242.71,202.85Z"/><path class="cls-1" d="M250.8,202.71a.45.45,0,1,0-.45-.45A.45.45,0,0,0,250.8,202.71Z"/><path class="cls-1" d="M258.89,202.6a.34.34,0,1,0-.34-.34A.34.34,0,0,0,258.89,202.6Z"/><path class="cls-1" d="M267,202.46a.2.2,0,1,0-.2-.2A.2.2,0,0,0,267,202.46Z"/><path class="cls-1" d="M275.07,202.33a.07.07,0,0,0,.07-.07.07.07,0,0,0-.14,0A.07.07,0,0,0,275.07,202.33Z"/><path class="cls-1" d="M16.2,210.37a0,0,0,0,0,0,0l0,0,0,0A0,0,0,0,0,16.2,210.37Z"/><path class="cls-1" d="M24.29,210.49a.14.14,0,0,0,.14-.14.13.13,0,0,0-.14-.13.13.13,0,0,0-.13.13A.13.13,0,0,0,24.29,210.49Z"/><path class="cls-1" d="M32.38,210.6a.25.25,0,1,0-.25-.25A.25.25,0,0,0,32.38,210.6Z"/><path class="cls-1" d="M40.47,210.73a.38.38,0,1,0-.38-.38A.38.38,0,0,0,40.47,210.73Z"/><path class="cls-1" d="M48.56,210.85a.5.5,0,0,0,.49-.5.49.49,0,1,0-1,0A.5.5,0,0,0,48.56,210.85Z"/><path class="cls-1" d="M56.65,211a.61.61,0,1,0-.61-.61A.61.61,0,0,0,56.65,211Z"/><path class="cls-1" d="M64.74,211.07a.72.72,0,1,0-.72-.72A.72.72,0,0,0,64.74,211.07Z"/><path class="cls-1" d="M72.83,211.18a.83.83,0,1,0-.83-.83A.83.83,0,0,0,72.83,211.18Z"/><path class="cls-1" d="M80.92,211.29a.94.94,0,1,0-.94-.94A.94.94,0,0,0,80.92,211.29Z"/><path class="cls-1" d="M89,211.38a1,1,0,1,0-1-1A1,1,0,0,0,89,211.38Z"/><path class="cls-1" d="M97.1,211.47A1.12,1.12,0,1,0,96,210.35,1.12,1.12,0,0,0,97.1,211.47Z"/><path class="cls-1" d="M105.19,211.54a1.19,1.19,0,1,0-1.19-1.19A1.19,1.19,0,0,0,105.19,211.54Z"/><path class="cls-1" d="M113.28,211.63a1.28,1.28,0,1,0-1.28-1.28A1.28,1.28,0,0,0,113.28,211.63Z"/><path class="cls-1" d="M121.37,211.68a1.33,1.33,0,1,0-1.33-1.33A1.33,1.33,0,0,0,121.37,211.68Z"/><path class="cls-1" d="M129.46,211.72a1.37,1.37,0,1,0-1.37-1.37A1.36,1.36,0,0,0,129.46,211.72Z"/><path class="cls-1" d="M137.55,211.74a1.39,1.39,0,1,0-1.4-1.39A1.39,1.39,0,0,0,137.55,211.74Z"/><path class="cls-1" d="M145.64,211.77a1.42,1.42,0,1,0-1.42-1.42A1.42,1.42,0,0,0,145.64,211.77Z"/><path class="cls-1" d="M153.73,211.74a1.39,1.39,0,1,0-1.4-1.39A1.39,1.39,0,0,0,153.73,211.74Z"/><path class="cls-1" d="M161.81,211.72a1.37,1.37,0,1,0-1.36-1.37A1.37,1.37,0,0,0,161.81,211.72Z"/><path class="cls-1" d="M169.9,211.68a1.33,1.33,0,1,0-1.32-1.33A1.33,1.33,0,0,0,169.9,211.68Z"/><path class="cls-1" d="M178,211.63a1.28,1.28,0,1,0-1.27-1.28A1.28,1.28,0,0,0,178,211.63Z"/><path class="cls-1" d="M186.08,211.56a1.21,1.21,0,1,0-1.21-1.21A1.21,1.21,0,0,0,186.08,211.56Z"/><path class="cls-1" d="M194.17,211.47a1.12,1.12,0,1,0-1.12-1.12A1.12,1.12,0,0,0,194.17,211.47Z"/><path class="cls-1" d="M202.26,211.38a1,1,0,1,0-1-1A1,1,0,0,0,202.26,211.38Z"/><path class="cls-1" d="M210.35,211.29a.94.94,0,1,0-.94-.94A.94.94,0,0,0,210.35,211.29Z"/><path class="cls-1" d="M218.44,211.18a.83.83,0,1,0-.83-.83A.83.83,0,0,0,218.44,211.18Z"/><path class="cls-1" d="M226.53,211.09a.74.74,0,1,0-.74-.74A.74.74,0,0,0,226.53,211.09Z"/><path class="cls-1" d="M234.62,211a.63.63,0,0,0,.63-.63.63.63,0,0,0-1.26,0A.63.63,0,0,0,234.62,211Z"/><path class="cls-1" d="M242.71,210.85a.5.5,0,0,0,.49-.5.49.49,0,1,0-1,0A.5.5,0,0,0,242.71,210.85Z"/><path class="cls-1" d="M250.8,210.73a.38.38,0,1,0-.38-.38A.38.38,0,0,0,250.8,210.73Z"/><path class="cls-1" d="M258.89,210.62a.27.27,0,1,0-.27-.27A.27.27,0,0,0,258.89,210.62Z"/><path class="cls-1" d="M267,210.49a.13.13,0,0,0,.13-.14.13.13,0,0,0-.26,0A.13.13,0,0,0,267,210.49Z"/><path class="cls-1" d="M275.07,210.37a0,0,0,0,0,0,0l0,0,0,0A0,0,0,0,0,275.07,210.37Z"/><path class="cls-1" d="M24.29,218.51a.07.07,0,1,0-.07-.07A.07.07,0,0,0,24.29,218.51Z"/><path class="cls-1" d="M32.38,218.62a.18.18,0,1,0-.18-.18A.18.18,0,0,0,32.38,218.62Z"/><path class="cls-1" d="M40.47,218.73a.29.29,0,1,0-.29-.29A.29.29,0,0,0,40.47,218.73Z"/><path class="cls-1" d="M48.56,218.85a.41.41,0,0,0,.4-.41.4.4,0,1,0-.8,0A.41.41,0,0,0,48.56,218.85Z"/><path class="cls-1" d="M56.65,219a.52.52,0,1,0,0-1,.52.52,0,1,0,0,1Z"/><path class="cls-1" d="M64.74,219.07a.63.63,0,0,0,.63-.63.63.63,0,0,0-1.26,0A.63.63,0,0,0,64.74,219.07Z"/><path class="cls-1" d="M72.83,219.18a.74.74,0,1,0-.74-.74A.74.74,0,0,0,72.83,219.18Z"/><path class="cls-1" d="M80.92,219.27a.83.83,0,1,0-.83-.83A.83.83,0,0,0,80.92,219.27Z"/><path class="cls-1" d="M89,219.36a.92.92,0,1,0-.92-.92A.92.92,0,0,0,89,219.36Z"/><path class="cls-1" d="M97.1,219.45a1,1,0,1,0-1-1A1,1,0,0,0,97.1,219.45Z"/><path class="cls-1" d="M105.19,219.52a1.08,1.08,0,1,0-1.08-1.08A1.07,1.07,0,0,0,105.19,219.52Z"/><path class="cls-1" d="M113.28,219.59a1.15,1.15,0,1,0-1.15-1.15A1.15,1.15,0,0,0,113.28,219.59Z"/><path class="cls-1" d="M121.37,219.63a1.19,1.19,0,1,0-1.19-1.19A1.19,1.19,0,0,0,121.37,219.63Z"/><path class="cls-1" d="M129.46,219.68a1.24,1.24,0,1,0-1.24-1.24A1.24,1.24,0,0,0,129.46,219.68Z"/><path class="cls-1" d="M137.55,219.7a1.26,1.26,0,1,0-1.26-1.26A1.25,1.25,0,0,0,137.55,219.7Z"/><path class="cls-1" d="M145.64,219.7a1.26,1.26,0,1,0-1.26-1.26A1.25,1.25,0,0,0,145.64,219.7Z"/><path class="cls-1" d="M153.73,219.7a1.26,1.26,0,1,0-1.26-1.26A1.25,1.25,0,0,0,153.73,219.7Z"/><path class="cls-1" d="M161.81,219.68a1.24,1.24,0,1,0-1.23-1.24A1.24,1.24,0,0,0,161.81,219.68Z"/><path class="cls-1" d="M169.9,219.65a1.21,1.21,0,1,0-1.21-1.21A1.22,1.22,0,0,0,169.9,219.65Z"/><path class="cls-1" d="M178,219.59a1.15,1.15,0,1,0-1.14-1.15A1.15,1.15,0,0,0,178,219.59Z"/><path class="cls-1" d="M186.08,219.52a1.08,1.08,0,1,0-1.07-1.08A1.08,1.08,0,0,0,186.08,219.52Z"/><path class="cls-1" d="M194.17,219.45a1,1,0,1,0-1-1A1,1,0,0,0,194.17,219.45Z"/><path class="cls-1" d="M202.26,219.36a.92.92,0,1,0-.92-.92A.92.92,0,0,0,202.26,219.36Z"/><path class="cls-1" d="M210.35,219.27a.83.83,0,1,0-.83-.83A.83.83,0,0,0,210.35,219.27Z"/><path class="cls-1" d="M218.44,219.18a.74.74,0,1,0-.74-.74A.74.74,0,0,0,218.44,219.18Z"/><path class="cls-1" d="M226.53,219.09a.65.65,0,1,0-.65-.65A.65.65,0,0,0,226.53,219.09Z"/><path class="cls-1" d="M234.62,219a.54.54,0,1,0-.54-.54A.54.54,0,0,0,234.62,219Z"/><path class="cls-1" d="M242.71,218.87a.43.43,0,1,0,0-.85.43.43,0,1,0,0,.85Z"/><path class="cls-1" d="M250.8,218.76a.32.32,0,1,0-.31-.32A.31.31,0,0,0,250.8,218.76Z"/><path class="cls-1" d="M258.89,218.62a.18.18,0,1,0-.18-.18A.18.18,0,0,0,258.89,218.62Z"/><path class="cls-1" d="M267,218.51a.07.07,0,1,0-.07-.07A.07.07,0,0,0,267,218.51Z"/><path class="cls-1" d="M32.38,226.62a.09.09,0,1,0-.09-.09A.09.09,0,0,0,32.38,226.62Z"/><path class="cls-1" d="M40.47,226.73a.2.2,0,1,0-.2-.2A.2.2,0,0,0,40.47,226.73Z"/><path class="cls-1" d="M48.56,226.85a.32.32,0,1,0-.31-.32A.31.31,0,0,0,48.56,226.85Z"/><path class="cls-1" d="M56.65,227a.43.43,0,1,0-.43-.43A.43.43,0,0,0,56.65,227Z"/><path class="cls-1" d="M64.74,227.07a.54.54,0,1,0-.54-.54A.54.54,0,0,0,64.74,227.07Z"/><path class="cls-1" d="M72.83,227.16a.63.63,0,1,0-.63-.63A.63.63,0,0,0,72.83,227.16Z"/><path class="cls-1" d="M80.92,227.25a.72.72,0,1,0-.72-.72A.72.72,0,0,0,80.92,227.25Z"/><path class="cls-1" d="M89,227.34a.81.81,0,1,0-.81-.81A.81.81,0,0,0,89,227.34Z"/><path class="cls-1" d="M97.1,227.41a.88.88,0,1,0-.88-.88A.88.88,0,0,0,97.1,227.41Z"/><path class="cls-1" d="M105.19,227.47a.94.94,0,1,0-.94-.94A.94.94,0,0,0,105.19,227.47Z"/><path class="cls-1" d="M113.28,227.54a1,1,0,1,0-1-1A1,1,0,0,0,113.28,227.54Z"/><path class="cls-1" d="M121.37,227.59a1.06,1.06,0,1,0-1.06-1.06A1.06,1.06,0,0,0,121.37,227.59Z"/><path class="cls-1" d="M129.46,227.63a1.1,1.1,0,1,0-1.1-1.1A1.1,1.1,0,0,0,129.46,227.63Z"/><path class="cls-1" d="M137.55,227.65a1.12,1.12,0,1,0-1.13-1.12A1.12,1.12,0,0,0,137.55,227.65Z"/><path class="cls-1" d="M145.64,227.65a1.12,1.12,0,1,0-1.13-1.12A1.12,1.12,0,0,0,145.64,227.65Z"/><path class="cls-1" d="M153.73,227.65a1.12,1.12,0,1,0-1.13-1.12A1.12,1.12,0,0,0,153.73,227.65Z"/><path class="cls-1" d="M161.81,227.63a1.1,1.1,0,1,0-1.09-1.1A1.1,1.1,0,0,0,161.81,227.63Z"/><path class="cls-1" d="M169.9,227.61a1.08,1.08,0,1,0-1.07-1.08A1.08,1.08,0,0,0,169.9,227.61Z"/><path class="cls-1" d="M178,227.54a1,1,0,1,0-1-1A1,1,0,0,0,178,227.54Z"/><path class="cls-1" d="M186.08,227.5a1,1,0,1,0,0-1.93,1,1,0,0,0,0,1.93Z"/><path class="cls-1" d="M194.17,227.43a.9.9,0,1,0-.89-.9A.9.9,0,0,0,194.17,227.43Z"/><path class="cls-1" d="M202.26,227.34a.81.81,0,1,0-.8-.81A.81.81,0,0,0,202.26,227.34Z"/><path class="cls-1" d="M210.35,227.27a.74.74,0,1,0-.74-.74A.74.74,0,0,0,210.35,227.27Z"/><path class="cls-1" d="M218.44,227.18a.65.65,0,1,0-.65-.65A.65.65,0,0,0,218.44,227.18Z"/><path class="cls-1" d="M226.53,227.07a.54.54,0,1,0-.54-.54A.54.54,0,0,0,226.53,227.07Z"/><path class="cls-1" d="M234.62,227a.45.45,0,1,0-.45-.45A.45.45,0,0,0,234.62,227Z"/><path class="cls-1" d="M242.71,226.87a.34.34,0,0,0,.34-.34.34.34,0,0,0-.68,0A.34.34,0,0,0,242.71,226.87Z"/><path class="cls-1" d="M250.8,226.76a.22.22,0,0,0,.22-.23.22.22,0,0,0-.44,0A.22.22,0,0,0,250.8,226.76Z"/><path class="cls-1" d="M258.89,226.64a.11.11,0,1,0-.11-.11A.11.11,0,0,0,258.89,226.64Z"/><path class="cls-1" d="M267,226.55l0,0,0,0,0,0Z"/><path class="cls-1" d="M32.38,234.64l0,0a0,0,0,0,0,0,0,0,0,0,0,0,0,0Z"/><path class="cls-1" d="M40.47,234.73a.11.11,0,1,0-.11-.11A.11.11,0,0,0,40.47,234.73Z"/><path class="cls-1" d="M48.56,234.85a.22.22,0,0,0,.22-.23.22.22,0,0,0-.44,0A.22.22,0,0,0,48.56,234.85Z"/><path class="cls-1" d="M56.65,235a.34.34,0,0,0,.34-.34.34.34,0,1,0-.68,0A.34.34,0,0,0,56.65,235Z"/><path class="cls-1" d="M64.74,235.05a.43.43,0,0,0,.43-.43.44.44,0,0,0-.43-.43.43.43,0,0,0-.43.43A.43.43,0,0,0,64.74,235.05Z"/><path class="cls-1" d="M72.83,235.14a.52.52,0,1,0-.52-.52A.51.51,0,0,0,72.83,235.14Z"/><path class="cls-1" d="M80.92,235.23a.61.61,0,1,0-.61-.61A.6.6,0,0,0,80.92,235.23Z"/><path class="cls-1" d="M89,235.32a.7.7,0,1,0-.7-.7A.69.69,0,0,0,89,235.32Z"/><path class="cls-1" d="M97.1,235.38a.76.76,0,1,0,0-1.52.76.76,0,1,0,0,1.52Z"/><path class="cls-1" d="M105.19,235.45a.83.83,0,1,0-.83-.83A.83.83,0,0,0,105.19,235.45Z"/><path class="cls-1" d="M113.28,235.5a.88.88,0,1,0-.88-.88A.88.88,0,0,0,113.28,235.5Z"/><path class="cls-1" d="M121.37,235.54a.92.92,0,1,0-.92-.92A.92.92,0,0,0,121.37,235.54Z"/><path class="cls-1" d="M129.46,235.59a1,1,0,1,0-1-1A1,1,0,0,0,129.46,235.59Z"/><path class="cls-1" d="M137.55,235.59a1,1,0,1,0-1-1A1,1,0,0,0,137.55,235.59Z"/><path class="cls-1" d="M145.64,235.61a1,1,0,1,0-1-1A1,1,0,0,0,145.64,235.61Z"/><path class="cls-1" d="M153.73,235.61a1,1,0,1,0-1-1A1,1,0,0,0,153.73,235.61Z"/><path class="cls-1" d="M161.81,235.59a1,1,0,1,0,0-1.93,1,1,0,0,0,0,1.93Z"/><path class="cls-1" d="M169.9,235.54a.92.92,0,1,0-.92-.92A.92.92,0,0,0,169.9,235.54Z"/><path class="cls-1" d="M178,235.52a.9.9,0,1,0-.89-.9A.9.9,0,0,0,178,235.52Z"/><path class="cls-1" d="M186.08,235.45a.83.83,0,1,0-.83-.83A.83.83,0,0,0,186.08,235.45Z"/><path class="cls-1" d="M194.17,235.38a.76.76,0,1,0,0-1.52.76.76,0,1,0,0,1.52Z"/><path class="cls-1" d="M202.26,235.32a.7.7,0,1,0-.69-.7A.7.7,0,0,0,202.26,235.32Z"/><path class="cls-1" d="M210.35,235.25a.63.63,0,1,0,0-1.26.63.63,0,0,0,0,1.26Z"/><path class="cls-1" d="M218.44,235.16a.54.54,0,1,0-.54-.54A.54.54,0,0,0,218.44,235.16Z"/><path class="cls-1" d="M226.53,235.07a.45.45,0,1,0-.45-.45A.45.45,0,0,0,226.53,235.07Z"/><path class="cls-1" d="M234.62,235a.34.34,0,0,0,.34-.34.34.34,0,0,0-.34-.34.35.35,0,0,0-.34.34A.34.34,0,0,0,234.62,235Z"/><path class="cls-1" d="M242.71,234.87a.25.25,0,1,0-.25-.25A.25.25,0,0,0,242.71,234.87Z"/><path class="cls-1" d="M250.8,234.76a.13.13,0,0,0,.13-.14.13.13,0,0,0-.26,0A.13.13,0,0,0,250.8,234.76Z"/><path class="cls-1" d="M258.89,234.64l0,0,0,0a0,0,0,0,0,0,0Z"/><path class="cls-1" d="M40.47,242.76a0,0,0,0,0,.05,0,0,0,0,0,0-.05,0,0,0,0,0,0,0,0A0,0,0,0,0,40.47,242.76Z"/><path class="cls-1" d="M48.56,242.85a.13.13,0,0,0,.13-.14.13.13,0,0,0-.26,0A.13.13,0,0,0,48.56,242.85Z"/><path class="cls-1" d="M56.65,242.94a.23.23,0,0,0,.22-.23.22.22,0,0,0-.44,0A.23.23,0,0,0,56.65,242.94Z"/><path class="cls-1" d="M64.74,243a.31.31,0,1,0-.31-.31A.31.31,0,0,0,64.74,243Z"/><path class="cls-1" d="M72.83,243.11a.4.4,0,1,0-.4-.4A.4.4,0,0,0,72.83,243.11Z"/><path class="cls-1" d="M80.92,243.2a.49.49,0,1,0,0-1,.49.49,0,1,0,0,1Z"/><path class="cls-1" d="M89,243.27a.56.56,0,1,0-.56-.56A.56.56,0,0,0,89,243.27Z"/><path class="cls-1" d="M97.1,243.34a.63.63,0,1,0,0-1.26.63.63,0,0,0,0,1.26Z"/><path class="cls-1" d="M105.19,243.41a.7.7,0,0,0,.69-.7.7.7,0,0,0-1.39,0A.7.7,0,0,0,105.19,243.41Z"/><path class="cls-1" d="M113.28,243.45a.74.74,0,1,0-.74-.74A.74.74,0,0,0,113.28,243.45Z"/><path class="cls-1" d="M121.37,243.5a.79.79,0,0,0,.78-.79.79.79,0,0,0-1.57,0A.79.79,0,0,0,121.37,243.5Z"/><path class="cls-1" d="M129.46,243.52a.81.81,0,1,0-.81-.81A.8.8,0,0,0,129.46,243.52Z"/><path class="cls-1" d="M137.55,243.54a.83.83,0,1,0-.83-.83A.83.83,0,0,0,137.55,243.54Z"/><path class="cls-1" d="M145.64,243.56a.85.85,0,1,0-.86-.85A.85.85,0,0,0,145.64,243.56Z"/><path class="cls-1" d="M153.73,243.54a.83.83,0,0,0,0-1.66.83.83,0,1,0,0,1.66Z"/><path class="cls-1" d="M161.81,243.54a.83.83,0,1,0-.83-.83A.83.83,0,0,0,161.81,243.54Z"/><path class="cls-1" d="M169.9,243.5a.79.79,0,0,0,.79-.79.79.79,0,1,0-.79.79Z"/><path class="cls-1" d="M178,243.47a.76.76,0,1,0-.76-.76A.76.76,0,0,0,178,243.47Z"/><path class="cls-1" d="M186.08,243.41a.7.7,0,0,0,.7-.7.7.7,0,1,0-.7.7Z"/><path class="cls-1" d="M194.17,243.36a.65.65,0,1,0-.65-.65A.65.65,0,0,0,194.17,243.36Z"/><path class="cls-1" d="M202.26,243.29a.58.58,0,1,0,0-1.16.58.58,0,0,0,0,1.16Z"/><path class="cls-1" d="M210.35,243.2a.49.49,0,1,0,0-1,.49.49,0,1,0,0,1Z"/><path class="cls-1" d="M218.44,243.14a.43.43,0,0,0,.43-.43.43.43,0,1,0-.85,0A.42.42,0,0,0,218.44,243.14Z"/><path class="cls-1" d="M226.53,243.05a.34.34,0,0,0,0-.68.34.34,0,0,0,0,.68Z"/><path class="cls-1" d="M234.62,243a.25.25,0,1,0-.25-.25A.25.25,0,0,0,234.62,243Z"/><path class="cls-1" d="M242.71,242.85a.14.14,0,0,0,.14-.14.14.14,0,0,0-.14-.13.13.13,0,0,0-.13.13A.13.13,0,0,0,242.71,242.85Z"/><path class="cls-1" d="M250.8,242.76a0,0,0,0,0,0,0,0,0,0,0,0,0,0,0,0,0,0,0,0,0A0,0,0,0,0,250.8,242.76Z"/><path class="cls-1" d="M48.56,250.85a0,0,0,0,0,0,0,0,0,0,1,0-.08,0A0,0,0,0,0,48.56,250.85Z"/><path class="cls-1" d="M56.65,250.94a.14.14,0,0,0,.13-.14.13.13,0,1,0-.26,0A.14.14,0,0,0,56.65,250.94Z"/><path class="cls-1" d="M64.74,251a.22.22,0,0,0,0-.44.22.22,0,1,0,0,.44Z"/><path class="cls-1" d="M72.83,251.09a.29.29,0,1,0-.29-.29A.29.29,0,0,0,72.83,251.09Z"/><path class="cls-1" d="M80.92,251.18a.38.38,0,1,0-.38-.38A.38.38,0,0,0,80.92,251.18Z"/><path class="cls-1" d="M89,251.25a.45.45,0,1,0-.45-.45A.45.45,0,0,0,89,251.25Z"/><path class="cls-1" d="M97.1,251.32a.51.51,0,0,0,.51-.52.52.52,0,1,0-.51.52Z"/><path class="cls-1" d="M105.19,251.36a.56.56,0,1,0-.56-.56A.56.56,0,0,0,105.19,251.36Z"/><path class="cls-1" d="M113.28,251.41a.61.61,0,1,0-.61-.61A.61.61,0,0,0,113.28,251.41Z"/><path class="cls-1" d="M121.37,251.45a.65.65,0,1,0-.65-.65A.65.65,0,0,0,121.37,251.45Z"/><path class="cls-1" d="M129.46,251.47a.67.67,0,1,0-.68-.67A.67.67,0,0,0,129.46,251.47Z"/><path class="cls-1" d="M137.55,251.5a.7.7,0,1,0-.7-.7A.7.7,0,0,0,137.55,251.5Z"/><path class="cls-1" d="M145.64,251.5a.7.7,0,1,0-.7-.7A.7.7,0,0,0,145.64,251.5Z"/><path class="cls-1" d="M153.73,251.5a.7.7,0,1,0-.7-.7A.7.7,0,0,0,153.73,251.5Z"/><path class="cls-1" d="M161.81,251.47a.67.67,0,1,0-.67-.67A.67.67,0,0,0,161.81,251.47Z"/><path class="cls-1" d="M169.9,251.45a.65.65,0,1,0-.65-.65A.65.65,0,0,0,169.9,251.45Z"/><path class="cls-1" d="M178,251.43a.63.63,0,1,0-.62-.63A.63.63,0,0,0,178,251.43Z"/><path class="cls-1" d="M186.08,251.36a.56.56,0,1,0-.56-.56A.56.56,0,0,0,186.08,251.36Z"/><path class="cls-1" d="M194.17,251.32a.52.52,0,0,0,.52-.52.52.52,0,1,0-1,0A.51.51,0,0,0,194.17,251.32Z"/><path class="cls-1" d="M202.26,251.25a.45.45,0,1,0-.45-.45A.45.45,0,0,0,202.26,251.25Z"/><path class="cls-1" d="M210.35,251.18a.38.38,0,1,0-.38-.38A.38.38,0,0,0,210.35,251.18Z"/><path class="cls-1" d="M218.44,251.11a.31.31,0,1,0-.31-.31A.31.31,0,0,0,218.44,251.11Z"/><path class="cls-1" d="M226.53,251a.22.22,0,1,0,0-.44.22.22,0,0,0,0,.44Z"/><path class="cls-1" d="M234.62,250.94a.14.14,0,0,0,.14-.14.13.13,0,0,0-.14-.13.13.13,0,0,0-.13.13A.14.14,0,0,0,234.62,250.94Z"/><path class="cls-1" d="M242.71,250.85a0,0,0,0,0,0,0,0,0,0,0,0,0,0,0,0,0,0,0,0,0A0,0,0,0,0,242.71,250.85Z"/><path class="cls-1" d="M56.65,258.91l0,0,0,0,0,0A0,0,0,0,0,56.65,258.91Z"/><path class="cls-1" d="M64.74,259a.11.11,0,1,0-.11-.11A.11.11,0,0,0,64.74,259Z"/><path class="cls-1" d="M72.83,259.07a.18.18,0,1,0-.18-.18A.18.18,0,0,0,72.83,259.07Z"/><path class="cls-1" d="M80.92,259.14a.25.25,0,1,0,0-.5.25.25,0,0,0,0,.5Z"/><path class="cls-1" d="M89,259.2a.31.31,0,1,0-.32-.31A.31.31,0,0,0,89,259.2Z"/><path class="cls-1" d="M97.1,259.27a.38.38,0,1,0-.38-.38A.38.38,0,0,0,97.1,259.27Z"/><path class="cls-1" d="M105.19,259.32a.43.43,0,1,0-.43-.43A.42.42,0,0,0,105.19,259.32Z"/><path class="cls-1" d="M113.28,259.36a.47.47,0,1,0-.47-.47A.47.47,0,0,0,113.28,259.36Z"/><path class="cls-1" d="M121.37,259.41a.52.52,0,1,0-.52-.52A.52.52,0,0,0,121.37,259.41Z"/><path class="cls-1" d="M129.46,259.43a.54.54,0,1,0-.54-.54A.54.54,0,0,0,129.46,259.43Z"/><path class="cls-1" d="M137.55,259.45a.56.56,0,1,0-.56-.56A.56.56,0,0,0,137.55,259.45Z"/><path class="cls-1" d="M145.64,259.45a.56.56,0,0,0,0-1.12.56.56,0,1,0,0,1.12Z"/><path class="cls-1" d="M153.73,259.45a.56.56,0,1,0-.57-.56A.57.57,0,0,0,153.73,259.45Z"/><path class="cls-1" d="M161.81,259.43a.54.54,0,1,0-.53-.54A.54.54,0,0,0,161.81,259.43Z"/><path class="cls-1" d="M169.9,259.41a.52.52,0,1,0-.51-.52A.52.52,0,0,0,169.9,259.41Z"/><path class="cls-1" d="M178,259.38a.49.49,0,1,0-.49-.49A.49.49,0,0,0,178,259.38Z"/><path class="cls-1" d="M186.08,259.34a.45.45,0,0,0,0-.9.45.45,0,0,0,0,.9Z"/><path class="cls-1" d="M194.17,259.27a.38.38,0,1,0-.38-.38A.38.38,0,0,0,194.17,259.27Z"/><path class="cls-1" d="M202.26,259.23a.34.34,0,1,0-.33-.34A.34.34,0,0,0,202.26,259.23Z"/><path class="cls-1" d="M210.35,259.16a.27.27,0,1,0-.27-.27A.27.27,0,0,0,210.35,259.16Z"/><path class="cls-1" d="M218.44,259.07a.18.18,0,1,0-.18-.18A.18.18,0,0,0,218.44,259.07Z"/><path class="cls-1" d="M226.53,259a.11.11,0,1,0-.11-.11A.11.11,0,0,0,226.53,259Z"/><path class="cls-1" d="M234.62,258.91a0,0,0,0,0,0,0l0,0,0,0Z"/><path class="cls-1" d="M64.74,267l0,0a0,0,0,0,0,0,0l0,0Z"/><path class="cls-1" d="M72.83,267.05a.07.07,0,1,0-.07-.07A.07.07,0,0,0,72.83,267.05Z"/><path class="cls-1" d="M80.92,267.11a.13.13,0,1,0,0-.26.13.13,0,1,0,0,.26Z"/><path class="cls-1" d="M89,267.18a.2.2,0,1,0-.2-.2A.2.2,0,0,0,89,267.18Z"/><path class="cls-1" d="M97.1,267.23a.25.25,0,1,0-.25-.25A.25.25,0,0,0,97.1,267.23Z"/><path class="cls-1" d="M105.19,267.27a.29.29,0,1,0-.29-.29A.29.29,0,0,0,105.19,267.27Z"/><path class="cls-1" d="M113.28,267.32a.34.34,0,1,0-.34-.34A.34.34,0,0,0,113.28,267.32Z"/><path class="cls-1" d="M121.37,267.36A.38.38,0,1,0,121,267,.38.38,0,0,0,121.37,267.36Z"/><path class="cls-1" d="M129.46,267.38a.4.4,0,1,0-.41-.4A.4.4,0,0,0,129.46,267.38Z"/><path class="cls-1" d="M137.55,267.38a.4.4,0,1,0-.41-.4A.4.4,0,0,0,137.55,267.38Z"/><path class="cls-1" d="M145.64,267.41a.43.43,0,0,0,.42-.43.43.43,0,1,0-.85,0A.43.43,0,0,0,145.64,267.41Z"/><path class="cls-1" d="M153.73,267.38a.4.4,0,1,0-.41-.4A.4.4,0,0,0,153.73,267.38Z"/><path class="cls-1" d="M161.81,267.38a.4.4,0,1,0-.4-.4A.4.4,0,0,0,161.81,267.38Z"/><path class="cls-1" d="M169.9,267.36a.38.38,0,1,0,0-.76.38.38,0,1,0,0,.76Z"/><path class="cls-1" d="M178,267.32a.34.34,0,1,0-.33-.34A.34.34,0,0,0,178,267.32Z"/><path class="cls-1" d="M186.08,267.29a.31.31,0,1,0-.31-.31A.31.31,0,0,0,186.08,267.29Z"/><path class="cls-1" d="M194.17,267.23a.25.25,0,1,0-.24-.25A.25.25,0,0,0,194.17,267.23Z"/><path class="cls-1" d="M202.26,267.18a.2.2,0,1,0-.2-.2A.2.2,0,0,0,202.26,267.18Z"/><path class="cls-1" d="M210.35,267.11a.13.13,0,1,0,0-.26.13.13,0,0,0,0,.26Z"/><path class="cls-1" d="M218.44,267.05a.07.07,0,1,0-.07-.07A.07.07,0,0,0,218.44,267.05Z"/><path class="cls-1" d="M226.53,267l0,0,0,0,0,0Z"/><path class="cls-1" d="M80.92,275.09l0,0,0,0,0,0Z"/><path class="cls-1" d="M89,275.14a.07.07,0,1,0-.07-.07A.07.07,0,0,0,89,275.14Z"/><path class="cls-1" d="M97.1,275.18a.11.11,0,1,0-.11-.11A.11.11,0,0,0,97.1,275.18Z"/><path class="cls-1" d="M105.19,275.23a.16.16,0,0,0,0-.32.16.16,0,1,0,0,.32Z"/><path class="cls-1" d="M113.28,275.27a.2.2,0,1,0-.2-.2A.2.2,0,0,0,113.28,275.27Z"/><path class="cls-1" d="M121.37,275.29a.22.22,0,0,0,.22-.22.23.23,0,1,0-.45,0A.22.22,0,0,0,121.37,275.29Z"/><path class="cls-1" d="M129.46,275.32a.25.25,0,1,0-.25-.25A.25.25,0,0,0,129.46,275.32Z"/><path class="cls-1" d="M137.55,275.34a.27.27,0,1,0-.27-.27A.27.27,0,0,0,137.55,275.34Z"/><path class="cls-1" d="M145.64,275.34a.27.27,0,1,0-.27-.27A.27.27,0,0,0,145.64,275.34Z"/><path class="cls-1" d="M153.73,275.34a.27.27,0,1,0-.27-.27A.27.27,0,0,0,153.73,275.34Z"/><path class="cls-1" d="M161.81,275.34a.27.27,0,1,0-.26-.27A.27.27,0,0,0,161.81,275.34Z"/><path class="cls-1" d="M169.9,275.32a.25.25,0,1,0-.24-.25A.25.25,0,0,0,169.9,275.32Z"/><path class="cls-1" d="M178,275.27a.2.2,0,1,0,0-.4.2.2,0,0,0,0,.4Z"/><path class="cls-1" d="M186.08,275.25a.18.18,0,1,0-.18-.18A.18.18,0,0,0,186.08,275.25Z"/><path class="cls-1" d="M194.17,275.2a.13.13,0,0,0,.14-.13.14.14,0,0,0-.14-.14.13.13,0,0,0-.13.14A.13.13,0,0,0,194.17,275.2Z"/><path class="cls-1" d="M202.26,275.14a.07.07,0,1,0,0-.14.07.07,0,0,0,0,.14Z"/><path class="cls-1" d="M210.35,275.09l0,0,0,0,0,0Z"/><path class="cls-1" d="M105.19,283.2a0,0,0,0,0,0,0,0,0,0,0,0,0-.05,0,0,0,0,0,0,.05A0,0,0,0,0,105.19,283.2Z"/><path class="cls-1" d="M113.28,283.23a.07.07,0,0,0,0-.14.07.07,0,1,0,0,.14Z"/><path class="cls-1" d="M121.37,283.25a.09.09,0,1,0-.09-.09A.09.09,0,0,0,121.37,283.25Z"/><path class="cls-1" d="M129.46,283.27a.11.11,0,1,0,0-.22.11.11,0,1,0,0,.22Z"/><path class="cls-1" d="M137.55,283.29a.13.13,0,0,0,.13-.13.13.13,0,0,0-.13-.14.14.14,0,0,0-.14.14A.13.13,0,0,0,137.55,283.29Z"/><path class="cls-1" d="M145.64,283.29a.13.13,0,0,0,.13-.13.13.13,0,0,0-.13-.14.14.14,0,0,0-.14.14A.13.13,0,0,0,145.64,283.29Z"/><path class="cls-1" d="M153.73,283.29a.13.13,0,0,0,.13-.13.13.13,0,0,0-.13-.14.14.14,0,0,0-.14.14A.13.13,0,0,0,153.73,283.29Z"/><path class="cls-1" d="M161.81,283.27a.11.11,0,1,0,0-.22.11.11,0,0,0,0,.22Z"/><path class="cls-1" d="M169.9,283.25a.09.09,0,1,0-.09-.09A.09.09,0,0,0,169.9,283.25Z"/><path class="cls-1" d="M178,283.23a.07.07,0,0,0,0-.14.07.07,0,0,0,0,.14Z"/><path class="cls-1" d="M186.08,283.2a0,0,0,0,0,0,0,0,0,0,0,0,0-.05,0,0,0,0,0,0,.05A0,0,0,0,0,186.08,283.2Z"/><path class="cls-1" d="M194.17,283.18s0,0,0,0,0,0,0,0a0,0,0,0,0,0,0Z"/><path class="cls-1" d="M137.55,291.27l0,0,0,0s0,0,0,0S137.53,291.27,137.55,291.27Z"/><path class="cls-1" d="M145.64,291.27l0,0,0,0s0,0,0,0S145.62,291.27,145.64,291.27Z"/><path class="cls-1" d="M153.73,291.27l0,0,0,0s0,0,0,0S153.71,291.27,153.73,291.27Z"/></g></g></svg>