<svg xmlns="http://www.w3.org/2000/svg" viewBox="0 0 291.27 291.18"><defs><style>.cls-1{fill:#1a1a1a;}</style></defs><title>Asset 151mdpi</title><g id="Layer_2" data-name="Layer 2"><g id="Layer_1-2" data-name="Layer 1"><path class="cls-1" d="M145.64,151.31a5.72,5.72,0,1,0-5.72-5.72A5.73,5.73,0,0,0,145.64,151.31Z"/><path class="cls-1" d="M153.73,151.31a5.72,5.72,0,1,0-5.73-5.72A5.73,5.73,0,0,0,153.73,151.31Z"/><circle class="cls-1" cx="150.68" cy="151.92" r="5.72"/><circle class="cls-1" cx="143.84" cy="153.48" r="5.72"/><path class="cls-1" d="M138.35,154.82a5.72,5.72,0,1,0-5.72-5.72A5.72,5.72,0,0,0,138.35,154.82Z"/><path class="cls-1" d="M138.35,147.8a5.72,5.72,0,1,0-5.72-5.72A5.72,5.72,0,0,0,138.35,147.8Z"/><path class="cls-1" d="M143.84,143.42a5.72,5.72,0,1,0-5.72-5.72A5.73,5.73,0,0,0,143.84,143.42Z"/><circle class="cls-1" cx="150.68" cy="139.27" r="5.72"/><path class="cls-1" d="M161.81,151.22a5.63,5.63,0,1,0-5.63-5.63A5.64,5.64,0,0,0,161.81,151.22Z"/><path class="cls-1" d="M160.21,158.24a5.63,5.63,0,1,0-5.63-5.63A5.63,5.63,0,0,0,160.21,158.24Z"/><path class="cls-1" d="M155.72,163.87a5.63,5.63,0,1,0-5.63-5.63A5.63,5.63,0,0,0,155.72,163.87Z"/><path class="cls-1" d="M149.24,167a5.63,5.63,0,1,0-5.64-5.63A5.63,5.63,0,0,0,149.24,167Z"/><path class="cls-1" d="M142,167a5.63,5.63,0,1,0-5.64-5.63A5.64,5.64,0,0,0,142,167Z"/><path class="cls-1" d="M135.55,163.85a5.61,5.61,0,1,0-5.61-5.61A5.61,5.61,0,0,0,135.55,163.85Z"/><path class="cls-1" d="M131.06,158.22a5.61,5.61,0,1,0-5.61-5.61A5.61,5.61,0,0,0,131.06,158.22Z"/><path class="cls-1" d="M129.46,151.2a5.61,5.61,0,1,0-5.61-5.61A5.61,5.61,0,0,0,129.46,151.2Z"/><circle class="cls-1" cx="131.06" cy="138.57" r="5.59"/><circle class="cls-1" cx="135.55" cy="132.94" r="5.59"/><circle class="cls-1" cx="142.04" cy="129.82" r="5.59"/><circle class="cls-1" cx="149.24" cy="129.82" r="5.61"/><circle class="cls-1" cx="155.72" cy="132.94" r="5.61"/><path class="cls-1" d="M160.21,144.18a5.61,5.61,0,1,0-5.61-5.61A5.61,5.61,0,0,0,160.21,144.18Z"/><path class="cls-1" d="M169.9,150.86a5.27,5.27,0,1,0-5.27-5.27A5.27,5.27,0,0,0,169.9,150.86Z"/><path class="cls-1" d="M168.83,158a5.3,5.3,0,1,0-5.3-5.3A5.29,5.29,0,0,0,168.83,158Z"/><path class="cls-1" d="M165.69,164.56a5.3,5.3,0,1,0-5.3-5.3A5.29,5.29,0,0,0,165.69,164.56Z"/><path class="cls-1" d="M160.77,169.86a5.3,5.3,0,1,0-5.3-5.3A5.29,5.29,0,0,0,160.77,169.86Z"/><circle class="cls-1" cx="154.5" cy="168.18" r="5.29" transform="translate(-52.39 71.48) rotate(-22.38)"/><path class="cls-1" d="M147.45,175.06a5.27,5.27,0,1,0-5.27-5.27A5.27,5.27,0,0,0,147.45,175.06Z"/><path class="cls-1" d="M140.23,174.52a5.27,5.27,0,1,0-5.27-5.27A5.27,5.27,0,0,0,140.23,174.52Z"/><path class="cls-1" d="M133.5,171.88a5.27,5.27,0,1,0-5.27-5.27A5.27,5.27,0,0,0,133.5,171.88Z"/><path class="cls-1" d="M127.85,167.37a5.27,5.27,0,1,0-5.28-5.27A5.27,5.27,0,0,0,127.85,167.37Z"/><path class="cls-1" d="M123.77,161.37a5.25,5.25,0,1,0-5.25-5.25A5.25,5.25,0,0,0,123.77,161.37Z"/><path class="cls-1" d="M121.64,154.46a5.25,5.25,0,1,0-5.25-5.25A5.25,5.25,0,0,0,121.64,154.46Z"/><path class="cls-1" d="M121.64,147.22a5.25,5.25,0,1,0-5.25-5.25A5.25,5.25,0,0,0,121.64,147.22Z"/><path class="cls-1" d="M123.77,140.31a5.25,5.25,0,1,0-5.25-5.25A5.25,5.25,0,0,0,123.77,140.31Z"/><path class="cls-1" d="M127.85,134.33a5.25,5.25,0,1,0-5.25-5.25A5.25,5.25,0,0,0,127.85,134.33Z"/><path class="cls-1" d="M133.5,129.82a5.25,5.25,0,1,0-5.25-5.25A5.25,5.25,0,0,0,133.5,129.82Z"/><path class="cls-1" d="M140.23,127.18a5.25,5.25,0,1,0-5.24-5.25A5.25,5.25,0,0,0,140.23,127.18Z"/><path class="cls-1" d="M147.45,126.64a5.25,5.25,0,1,0-5.25-5.25A5.25,5.25,0,0,0,147.45,126.64Z"/><path class="cls-1" d="M154.5,128.25a5.25,5.25,0,1,0-5.25-5.25A5.25,5.25,0,0,0,154.5,128.25Z"/><path class="cls-1" d="M160.77,131.89a5.28,5.28,0,1,0-5.27-5.27A5.27,5.27,0,0,0,160.77,131.89Z"/><path class="cls-1" d="M165.69,137.19a5.27,5.27,0,1,0-5.27-5.27A5.27,5.27,0,0,0,165.69,137.19Z"/><path class="cls-1" d="M168.83,143.71a5.27,5.27,0,1,0-5.28-5.27A5.27,5.27,0,0,0,168.83,143.71Z"/><path class="cls-1" d="M178,150.53a4.94,4.94,0,1,0-4.93-4.94A4.94,4.94,0,0,0,178,150.53Z"/><circle class="cls-1" cx="177.18" cy="152.79" r="4.94"/><circle class="cls-1" cx="174.79" cy="159.63" r="4.94"/><circle class="cls-1" cx="170.93" cy="165.77" r="4.94"/><path class="cls-1" d="M165.81,175.82a4.94,4.94,0,1,0-4.93-4.93A4.94,4.94,0,0,0,165.81,175.82Z"/><circle class="cls-1" cx="159.68" cy="174.74" r="4.94"/><path class="cls-1" d="M152.84,182.07a4.94,4.94,0,1,0-4.94-4.93A4.93,4.93,0,0,0,152.84,182.07Z"/><path class="cls-1" d="M145.64,182.88A4.94,4.94,0,1,0,140.7,178,4.93,4.93,0,0,0,145.64,182.88Z"/><path class="cls-1" d="M138.44,182.07a4.94,4.94,0,1,0-4.94-4.93A4.93,4.93,0,0,0,138.44,182.07Z"/><circle class="cls-1" cx="131.6" cy="174.74" r="4.91"/><circle class="cls-1" cx="125.46" cy="170.89" r="4.91"/><circle class="cls-1" cx="120.34" cy="165.77" r="4.91" transform="translate(-54.06 58.31) rotate(-22.38)"/><circle class="cls-1" cx="116.48" cy="159.63" r="4.91"/><circle class="cls-1" cx="114.09" cy="152.79" r="4.89"/><path class="cls-1" d="M113.28,150.48a4.89,4.89,0,1,0-4.89-4.89A4.89,4.89,0,0,0,113.28,150.48Z"/><circle class="cls-1" cx="114.09" cy="138.39" r="4.89"/><path class="cls-1" d="M116.48,136.44a4.89,4.89,0,1,0-4.89-4.89A4.89,4.89,0,0,0,116.48,136.44Z"/><path class="cls-1" d="M120.34,130.31a4.9,4.9,0,1,0-4.89-4.89A4.89,4.89,0,0,0,120.34,130.31Z"/><circle class="cls-1" cx="125.46" cy="120.29" r="4.89"/><path class="cls-1" d="M131.6,121.33a4.89,4.89,0,1,0-4.89-4.89A4.89,4.89,0,0,0,131.6,121.33Z"/><path class="cls-1" d="M138.44,118.93a4.89,4.89,0,1,0-4.9-4.89A4.89,4.89,0,0,0,138.44,118.93Z"/><path class="cls-1" d="M145.64,118.12a4.89,4.89,0,1,0-4.89-4.89A4.89,4.89,0,0,0,145.64,118.12Z"/><path class="cls-1" d="M152.84,118.93A4.89,4.89,0,1,0,148,114,4.89,4.89,0,0,0,152.84,118.93Z"/><circle class="cls-1" cx="159.68" cy="116.44" r="4.91"/><circle class="cls-1" cx="165.81" cy="120.29" r="4.91"/><circle class="cls-1" cx="170.93" cy="125.42" r="4.91"/><circle class="cls-1" cx="174.79" cy="131.55" r="4.91"/><circle class="cls-1" cx="177.18" cy="138.39" r="4.94"/><path class="cls-1" d="M186.08,150.17a4.58,4.58,0,1,0-4.57-4.58A4.58,4.58,0,0,0,186.08,150.17Z"/><circle class="cls-1" cx="185.43" cy="152.81" r="4.58"/><path class="cls-1" d="M183.5,164.38a4.58,4.58,0,1,0-4.57-4.58A4.58,4.58,0,0,0,183.5,164.38Z"/><path class="cls-1" d="M180.36,170.91a4.58,4.58,0,1,0-4.58-4.57A4.57,4.57,0,0,0,180.36,170.91Z"/><path class="cls-1" d="M176.1,176.78a4.58,4.58,0,1,0-4.58-4.58A4.58,4.58,0,0,0,176.1,176.78Z"/><path class="cls-1" d="M170.85,181.79a4.58,4.58,0,1,0-4.57-4.58A4.58,4.58,0,0,0,170.85,181.79Z"/><circle class="cls-1" cx="164.8" cy="181.21" r="4.58" transform="translate(-56.61 76.45) rotate(-22.39)"/><path class="cls-1" d="M158.13,188.63a4.58,4.58,0,1,0-4.57-4.57A4.57,4.57,0,0,0,158.13,188.63Z"/><path class="cls-1" d="M151.06,190.25a4.58,4.58,0,1,0-4.57-4.58A4.58,4.58,0,0,0,151.06,190.25Z"/><path class="cls-1" d="M143.82,190.57a4.58,4.58,0,1,0-4.58-4.57A4.57,4.57,0,0,0,143.82,190.57Z"/><path class="cls-1" d="M136.63,189.6a4.58,4.58,0,1,0-4.57-4.58A4.58,4.58,0,0,0,136.63,189.6Z"/><circle class="cls-1" cx="129.74" cy="182.78" r="4.58"/><circle class="cls-1" cx="123.35" cy="179.35" r="4.55"/><circle class="cls-1" cx="117.68" cy="174.83" r="4.55"/><path class="cls-1" d="M112.91,173.92a4.56,4.56,0,1,0-4.55-4.56A4.56,4.56,0,0,0,112.91,173.92Z"/><circle class="cls-1" cx="109.19" cy="163.14" r="4.55"/><path class="cls-1" d="M106.64,160.9a4.55,4.55,0,1,0-4.55-4.55A4.55,4.55,0,0,0,106.64,160.9Z"/><circle class="cls-1" cx="105.35" cy="149.22" r="4.55"/><circle class="cls-1" cx="105.35" cy="141.96" r="4.55"/><circle class="cls-1" cx="106.64" cy="134.83" r="4.53" transform="translate(-43.32 50.79) rotate(-22.39)"/><circle class="cls-1" cx="109.19" cy="128.04" r="4.53"/><path class="cls-1" d="M112.91,126.35a4.54,4.54,0,1,0-4.53-4.53A4.53,4.53,0,0,0,112.91,126.35Z"/><circle class="cls-1" cx="117.68" cy="116.35" r="4.53"/><circle class="cls-1" cx="123.35" cy="111.83" r="4.53"/><circle class="cls-1" cx="129.74" cy="108.4" r="4.53"/><circle class="cls-1" cx="136.63" cy="106.16" r="4.53" transform="translate(-30.14 60.06) rotate(-22.39)"/><circle class="cls-1" cx="143.82" cy="105.18" r="4.55"/><path class="cls-1" d="M151.06,110.06a4.56,4.56,0,1,0-4.55-4.55A4.56,4.56,0,0,0,151.06,110.06Z"/><path class="cls-1" d="M158.13,111.68a4.56,4.56,0,1,0-4.55-4.56A4.56,4.56,0,0,0,158.13,111.68Z"/><circle class="cls-1" cx="164.8" cy="109.97" r="4.55" transform="translate(-29.47 71.08) rotate(-22.4)"/><circle class="cls-1" cx="170.85" cy="113.97" r="4.55"/><path class="cls-1" d="M176.1,123.53a4.56,4.56,0,1,0-4.56-4.55A4.55,4.55,0,0,0,176.1,123.53Z"/><circle class="cls-1" cx="180.36" cy="124.84" r="4.55"/><path class="cls-1" d="M183.5,136a4.58,4.58,0,1,0-4.57-4.57A4.57,4.57,0,0,0,183.5,136Z"/><path class="cls-1" d="M185.43,142.94a4.58,4.58,0,1,0-4.57-4.57A4.57,4.57,0,0,0,185.43,142.94Z"/><path class="cls-1" d="M194.17,149.81a4.22,4.22,0,1,0-4.21-4.22A4.22,4.22,0,0,0,194.17,149.81Z"/><circle class="cls-1" cx="193.63" cy="152.82" r="4.22"/><path class="cls-1" d="M192,164.11a4.22,4.22,0,1,0-4.22-4.21A4.2,4.2,0,0,0,192,164.11Z"/><path class="cls-1" d="M189.37,170.87a4.22,4.22,0,1,0-4.22-4.22A4.21,4.21,0,0,0,189.37,170.87Z"/><path class="cls-1" d="M185.74,177.15a4.22,4.22,0,1,0-4.22-4.22A4.22,4.22,0,0,0,185.74,177.15Z"/><path class="cls-1" d="M181.22,182.82A4.22,4.22,0,1,0,177,178.6,4.21,4.21,0,0,0,181.22,182.82Z"/><path class="cls-1" d="M175.9,187.76a4.22,4.22,0,1,0-4.22-4.22A4.22,4.22,0,0,0,175.9,187.76Z"/><path class="cls-1" d="M169.9,191.84a4.22,4.22,0,1,0-4.21-4.21A4.22,4.22,0,0,0,169.9,191.84Z"/><path class="cls-1" d="M163.37,195a4.22,4.22,0,1,0-4.22-4.22A4.22,4.22,0,0,0,163.37,195Z"/><path class="cls-1" d="M156.44,197.13a4.22,4.22,0,1,0-4.22-4.22A4.21,4.21,0,0,0,156.44,197.13Z"/><path class="cls-1" d="M149.26,198.21a4.22,4.22,0,1,0-4.21-4.22A4.22,4.22,0,0,0,149.26,198.21Z"/><path class="cls-1" d="M142,198.21a4.22,4.22,0,1,0-4.22-4.22A4.22,4.22,0,0,0,142,198.21Z"/><path class="cls-1" d="M134.83,197.13a4.22,4.22,0,1,0-4.21-4.22A4.22,4.22,0,0,0,134.83,197.13Z"/><path class="cls-1" d="M127.9,195a4.22,4.22,0,1,0-4.21-4.22A4.22,4.22,0,0,0,127.9,195Z"/><path class="cls-1" d="M121.37,191.84a4.22,4.22,0,1,0-4.22-4.21A4.21,4.21,0,0,0,121.37,191.84Z"/><path class="cls-1" d="M115.37,187.76a4.22,4.22,0,1,0-4.21-4.22A4.22,4.22,0,0,0,115.37,187.76Z"/><path class="cls-1" d="M110.05,182.82a4.22,4.22,0,1,0-4.21-4.22A4.22,4.22,0,0,0,110.05,182.82Z"/><circle class="cls-1" cx="105.53" cy="172.93" r="4.19"/><path class="cls-1" d="M101.9,170.84a4.19,4.19,0,1,0-4.19-4.19A4.19,4.19,0,0,0,101.9,170.84Z"/><path class="cls-1" d="M99.25,164.09a4.2,4.2,0,1,0-4.19-4.19A4.2,4.2,0,0,0,99.25,164.09Z"/><circle class="cls-1" cx="97.64" cy="152.82" r="4.19"/><path class="cls-1" d="M97.1,149.78a4.19,4.19,0,1,0-4.2-4.19A4.19,4.19,0,0,0,97.1,149.78Z"/><path class="cls-1" d="M97.64,142.55a4.2,4.2,0,1,0-4.2-4.19A4.19,4.19,0,0,0,97.64,142.55Z"/><path class="cls-1" d="M99.25,135.48a4.2,4.2,0,1,0-4.19-4.2A4.2,4.2,0,0,0,99.25,135.48Z"/><path class="cls-1" d="M101.9,128.73a4.2,4.2,0,1,0-4.19-4.2A4.2,4.2,0,0,0,101.9,128.73Z"/><path class="cls-1" d="M105.53,122.44a4.2,4.2,0,1,0-4.19-4.19A4.2,4.2,0,0,0,105.53,122.44Z"/><path class="cls-1" d="M110.05,116.77a4.2,4.2,0,1,0-4.19-4.19A4.2,4.2,0,0,0,110.05,116.77Z"/><path class="cls-1" d="M115.37,111.84a4.2,4.2,0,1,0-4.19-4.2A4.2,4.2,0,0,0,115.37,111.84Z"/><path class="cls-1" d="M121.37,107.75a4.2,4.2,0,1,0-4.2-4.19A4.2,4.2,0,0,0,121.37,107.75Z"/><path class="cls-1" d="M127.9,104.6a4.2,4.2,0,1,0-4.19-4.19A4.2,4.2,0,0,0,127.9,104.6Z"/><path class="cls-1" d="M134.83,102.46a4.2,4.2,0,1,0-4.19-4.19A4.19,4.19,0,0,0,134.83,102.46Z"/><path class="cls-1" d="M142,101.38a4.2,4.2,0,1,0-4.2-4.19A4.19,4.19,0,0,0,142,101.38Z"/><path class="cls-1" d="M149.26,101.38a4.2,4.2,0,1,0-4.19-4.19A4.19,4.19,0,0,0,149.26,101.38Z"/><path class="cls-1" d="M156.44,102.46a4.2,4.2,0,1,0-4.2-4.19A4.19,4.19,0,0,0,156.44,102.46Z"/><path class="cls-1" d="M163.37,104.6a4.2,4.2,0,1,0-4.2-4.19A4.2,4.2,0,0,0,163.37,104.6Z"/><path class="cls-1" d="M169.9,107.75a4.2,4.2,0,1,0-4.19-4.19A4.2,4.2,0,0,0,169.9,107.75Z"/><path class="cls-1" d="M175.9,111.86a4.22,4.22,0,1,0-4.22-4.22A4.22,4.22,0,0,0,175.9,111.86Z"/><path class="cls-1" d="M181.22,116.79a4.22,4.22,0,1,0-4.22-4.21A4.2,4.2,0,0,0,181.22,116.79Z"/><path class="cls-1" d="M185.74,122.47a4.22,4.22,0,1,0-4.22-4.22A4.22,4.22,0,0,0,185.74,122.47Z"/><path class="cls-1" d="M189.37,128.75a4.22,4.22,0,1,0-4.22-4.22A4.21,4.21,0,0,0,189.37,128.75Z"/><path class="cls-1" d="M192,135.5a4.22,4.22,0,1,0-4.22-4.22A4.21,4.21,0,0,0,192,135.5Z"/><path class="cls-1" d="M193.63,142.57a4.22,4.22,0,1,0-4.22-4.21A4.21,4.21,0,0,0,193.63,142.57Z"/><path class="cls-1" d="M202.26,149.47a3.88,3.88,0,1,0-3.88-3.88A3.88,3.88,0,0,0,202.26,149.47Z"/><circle class="cls-1" cx="201.8" cy="152.83" r="3.88"/><circle class="cls-1" cx="200.41" cy="159.95" r="3.88"/><circle class="cls-1" cx="198.12" cy="166.84" r="3.88"/><circle class="cls-1" cx="194.98" cy="173.38" r="3.88"/><circle class="cls-1" cx="191.02" cy="179.46" r="3.88"/><circle class="cls-1" cx="186.31" cy="184.98" r="3.88"/><circle class="cls-1" cx="180.94" cy="189.86" r="3.88"/><circle class="cls-1" cx="174.99" cy="194.01" r="3.88"/><circle class="cls-1" cx="168.56" cy="197.37" r="3.88"/><path class="cls-1" d="M161.75,203.76a3.88,3.88,0,1,0-3.88-3.88A3.88,3.88,0,0,0,161.75,203.76Z"/><circle class="cls-1" cx="154.67" cy="201.49" r="3.88"/><path class="cls-1" d="M147.45,206.07a3.88,3.88,0,1,0-3.88-3.88A3.88,3.88,0,0,0,147.45,206.07Z"/><circle class="cls-1" cx="140.2" cy="201.96" r="3.88"/><path class="cls-1" d="M133,204.66a3.86,3.86,0,1,0-3.85-3.86A3.86,3.86,0,0,0,133,204.66Z"/><path class="cls-1" d="M126.08,202.59a3.86,3.86,0,1,0-3.86-3.86A3.86,3.86,0,0,0,126.08,202.59Z"/><circle class="cls-1" cx="119.44" cy="195.8" r="3.86"/><circle class="cls-1" cx="113.24" cy="192.03" r="3.86"/><path class="cls-1" d="M107.56,191.37a3.86,3.86,0,1,0-3.85-3.86A3.86,3.86,0,0,0,107.56,191.37Z"/><path class="cls-1" d="M102.52,186.16a3.86,3.86,0,1,0-3.86-3.86A3.86,3.86,0,0,0,102.52,186.16Z"/><path class="cls-1" d="M98.18,180.34a3.86,3.86,0,1,0-3.86-3.86A3.86,3.86,0,0,0,98.18,180.34Z"/><path class="cls-1" d="M94.62,174a3.84,3.84,0,1,0-3.84-3.84A3.84,3.84,0,0,0,94.62,174Z"/><path class="cls-1" d="M91.89,167.27a3.84,3.84,0,1,0-3.83-3.84A3.84,3.84,0,0,0,91.89,167.27Z"/><path class="cls-1" d="M90.05,160.25a3.84,3.84,0,1,0-3.83-3.83A3.84,3.84,0,0,0,90.05,160.25Z"/><path class="cls-1" d="M89.12,153.05a3.84,3.84,0,1,0-3.83-3.83A3.83,3.83,0,0,0,89.12,153.05Z"/><path class="cls-1" d="M89.12,145.8A3.84,3.84,0,1,0,85.29,142,3.84,3.84,0,0,0,89.12,145.8Z"/><path class="cls-1" d="M90.05,138.6a3.84,3.84,0,1,0-3.83-3.83A3.84,3.84,0,0,0,90.05,138.6Z"/><path class="cls-1" d="M91.89,131.58a3.84,3.84,0,1,0-3.83-3.83A3.84,3.84,0,0,0,91.89,131.58Z"/><path class="cls-1" d="M94.62,124.86A3.84,3.84,0,1,0,90.78,121,3.84,3.84,0,0,0,94.62,124.86Z"/><path class="cls-1" d="M98.18,118.53a3.84,3.84,0,1,0-3.84-3.83A3.82,3.82,0,0,0,98.18,118.53Z"/><path class="cls-1" d="M102.52,112.72a3.84,3.84,0,1,0-3.84-3.84A3.83,3.83,0,0,0,102.52,112.72Z"/><path class="cls-1" d="M107.56,107.51a3.84,3.84,0,1,0-3.83-3.84A3.84,3.84,0,0,0,107.56,107.51Z"/><path class="cls-1" d="M113.24,103a3.84,3.84,0,1,0-3.84-3.83A3.83,3.83,0,0,0,113.24,103Z"/><path class="cls-1" d="M119.44,99.22a3.84,3.84,0,1,0-3.83-3.84A3.84,3.84,0,0,0,119.44,99.22Z"/><path class="cls-1" d="M126.08,96.28a3.84,3.84,0,1,0-3.84-3.83A3.82,3.82,0,0,0,126.08,96.28Z"/><path class="cls-1" d="M133,94.22a3.84,3.84,0,1,0-3.83-3.84A3.84,3.84,0,0,0,133,94.22Z"/><path class="cls-1" d="M140.2,93.06a3.84,3.84,0,1,0-3.84-3.84A3.83,3.83,0,0,0,140.2,93.06Z"/><path class="cls-1" d="M147.45,92.83A3.84,3.84,0,1,0,143.61,89,3.84,3.84,0,0,0,147.45,92.83Z"/><path class="cls-1" d="M154.67,93.52a3.84,3.84,0,1,0-3.83-3.83A3.83,3.83,0,0,0,154.67,93.52Z"/><path class="cls-1" d="M161.75,95.14a3.84,3.84,0,1,0-3.84-3.84A3.83,3.83,0,0,0,161.75,95.14Z"/><path class="cls-1" d="M168.56,97.65a3.84,3.84,0,1,0-3.84-3.84A3.83,3.83,0,0,0,168.56,97.65Z"/><path class="cls-1" d="M175,101a3.86,3.86,0,1,0-3.86-3.85A3.85,3.85,0,0,0,175,101Z"/><path class="cls-1" d="M180.94,105.18a3.86,3.86,0,1,0-3.86-3.86A3.86,3.86,0,0,0,180.94,105.18Z"/><path class="cls-1" d="M186.31,110.05a3.86,3.86,0,1,0-3.85-3.85A3.85,3.85,0,0,0,186.31,110.05Z"/><circle class="cls-1" cx="191.02" cy="111.72" r="3.86"/><circle class="cls-1" cx="194.98" cy="117.8" r="3.86"/><path class="cls-1" d="M198.12,128.2a3.86,3.86,0,1,0-3.85-3.86A3.86,3.86,0,0,0,198.12,128.2Z"/><circle class="cls-1" cx="200.41" cy="131.23" r="3.86"/><path class="cls-1" d="M201.8,142.21a3.86,3.86,0,1,0-3.86-3.86A3.86,3.86,0,0,0,201.8,142.21Z"/><path class="cls-1" d="M210.35,149.11a3.52,3.52,0,1,0-3.52-3.52A3.51,3.51,0,0,0,210.35,149.11Z"/><path class="cls-1" d="M210,156.36a3.53,3.53,0,1,0-3.53-3.52A3.53,3.53,0,0,0,210,156.36Z"/><circle class="cls-1" cx="208.73" cy="159.99" r="3.52" transform="translate(-18.6 292.23) rotate(-67.66)"/><circle class="cls-1" cx="206.72" cy="166.96" r="3.52"/><path class="cls-1" d="M203.94,177.19a3.52,3.52,0,1,0-3.52-3.52A3.53,3.53,0,0,0,203.94,177.19Z"/><path class="cls-1" d="M200.43,183.54a3.52,3.52,0,1,0-3.52-3.52A3.51,3.51,0,0,0,200.43,183.54Z"/><circle class="cls-1" cx="196.23" cy="185.94" r="3.52"/><path class="cls-1" d="M191.4,194.87a3.52,3.52,0,1,0-3.52-3.52A3.52,3.52,0,0,0,191.4,194.87Z"/><path class="cls-1" d="M186,199.71a3.52,3.52,0,1,0-3.53-3.52A3.53,3.53,0,0,0,186,199.71Z"/><path class="cls-1" d="M180.07,203.91a3.52,3.52,0,1,0-3.53-3.52A3.53,3.53,0,0,0,180.07,203.91Z"/><circle class="cls-1" cx="173.71" cy="203.9" r="3.52"/><circle class="cls-1" cx="167.01" cy="206.68" r="3.52"/><path class="cls-1" d="M160,212.21a3.53,3.53,0,1,0-3.53-3.53A3.53,3.53,0,0,0,160,212.21Z"/><circle class="cls-1" cx="152.88" cy="209.9" r="3.52"/><path class="cls-1" d="M145.64,213.83a3.52,3.52,0,1,0-3.53-3.52A3.53,3.53,0,0,0,145.64,213.83Z"/><circle class="cls-1" cx="138.39" cy="209.9" r="3.52"/><path class="cls-1" d="M131.23,212.21a3.53,3.53,0,1,0-3.52-3.53A3.53,3.53,0,0,0,131.23,212.21Z"/><circle class="cls-1" cx="124.26" cy="206.68" r="3.52" transform="translate(-114.13 243.08) rotate(-67.67)"/><circle class="cls-1" cx="117.56" cy="203.9" r="3.5"/><circle class="cls-1" cx="111.2" cy="200.39" r="3.5"/><circle class="cls-1" cx="105.28" cy="196.19" r="3.5"/><circle class="cls-1" cx="99.87" cy="191.35" r="3.5" transform="translate(-29.46 18.55) rotate(-9.25)"/><circle class="cls-1" cx="95.04" cy="185.94" r="3.5"/><circle class="cls-1" cx="90.84" cy="180.02" r="3.5" transform="translate(-27.76 16.95) rotate(-9.25)"/><path class="cls-1" d="M87.33,177.17a3.5,3.5,0,1,0-3.5-3.5A3.5,3.5,0,0,0,87.33,177.17Z"/><circle class="cls-1" cx="84.55" cy="166.96" r="3.5"/><circle class="cls-1" cx="82.54" cy="159.99" r="3.48"/><circle class="cls-1" cx="81.33" cy="152.84" r="3.5"/><path class="cls-1" d="M80.92,149.07a3.48,3.48,0,1,0-3.48-3.48A3.48,3.48,0,0,0,80.92,149.07Z"/><path class="cls-1" d="M81.33,141.82a3.48,3.48,0,1,0-3.48-3.48A3.47,3.47,0,0,0,81.33,141.82Z"/><circle class="cls-1" cx="82.54" cy="131.19" r="3.48"/><path class="cls-1" d="M84.55,127.69a3.48,3.48,0,1,0-3.48-3.47A3.47,3.47,0,0,0,84.55,127.69Z"/><path class="cls-1" d="M87.33,121a3.48,3.48,0,1,0-3.48-3.48A3.47,3.47,0,0,0,87.33,121Z"/><path class="cls-1" d="M90.84,114.64a3.48,3.48,0,1,0-3.48-3.48A3.48,3.48,0,0,0,90.84,114.64Z"/><circle class="cls-1" cx="95.04" cy="105.24" r="3.48"/><circle class="cls-1" cx="99.87" cy="99.83" r="3.48" transform="translate(-14.75 17.35) rotate(-9.25)"/><path class="cls-1" d="M105.28,98.47A3.48,3.48,0,1,0,101.81,95,3.48,3.48,0,0,0,105.28,98.47Z"/><circle class="cls-1" cx="111.2" cy="90.79" r="3.48"/><circle class="cls-1" cx="117.56" cy="87.28" r="3.48"/><path class="cls-1" d="M124.26,88a3.48,3.48,0,1,0-3.48-3.48A3.48,3.48,0,0,0,124.26,88Z"/><path class="cls-1" d="M131.23,86a3.48,3.48,0,1,0-3.47-3.47A3.47,3.47,0,0,0,131.23,86Z"/><circle class="cls-1" cx="138.39" cy="81.28" r="3.48"/><path class="cls-1" d="M145.64,84.35a3.48,3.48,0,1,0-3.48-3.48A3.47,3.47,0,0,0,145.64,84.35Z"/><circle class="cls-1" cx="152.88" cy="81.28" r="3.5"/><path class="cls-1" d="M160,86a3.48,3.48,0,1,0-3.48-3.47A3.47,3.47,0,0,0,160,86Z"/><circle class="cls-1" cx="167.01" cy="84.5" r="3.5"/><circle class="cls-1" cx="173.71" cy="87.28" r="3.5"/><circle class="cls-1" cx="180.07" cy="90.79" r="3.5"/><circle class="cls-1" cx="185.99" cy="94.99" r="3.5"/><path class="cls-1" d="M191.4,103.33a3.5,3.5,0,1,0-3.5-3.5A3.5,3.5,0,0,0,191.4,103.33Z"/><circle class="cls-1" cx="196.23" cy="105.24" r="3.5"/><path class="cls-1" d="M200.43,114.66a3.5,3.5,0,1,0-3.5-3.5A3.5,3.5,0,0,0,200.43,114.66Z"/><circle class="cls-1" cx="203.94" cy="117.51" r="3.5" transform="translate(17.72 261.47) rotate(-67.66)"/><path class="cls-1" d="M206.72,127.74a3.53,3.53,0,1,0-3.52-3.52A3.52,3.52,0,0,0,206.72,127.74Z"/><circle class="cls-1" cx="208.73" cy="131.19" r="3.52" transform="translate(8.04 274.38) rotate(-67.66)"/><path class="cls-1" d="M210,141.87a3.53,3.53,0,1,0-3.53-3.53A3.53,3.53,0,0,0,210,141.87Z"/><path class="cls-1" d="M218.44,148.75a3.16,3.16,0,1,0-3.16-3.16A3.15,3.15,0,0,0,218.44,148.75Z"/><path class="cls-1" d="M218.08,156a3.16,3.16,0,1,0-3.16-3.16A3.15,3.15,0,0,0,218.08,156Z"/><path class="cls-1" d="M217,163.18a3.17,3.17,0,1,0-3.16-3.16A3.16,3.16,0,0,0,217,163.18Z"/><path class="cls-1" d="M215.21,170.21a3.16,3.16,0,1,0-3.17-3.16A3.16,3.16,0,0,0,215.21,170.21Z"/><path class="cls-1" d="M212.72,177a3.16,3.16,0,1,0-3.16-3.16A3.16,3.16,0,0,0,212.72,177Z"/><path class="cls-1" d="M209.58,183.57a3.16,3.16,0,1,0-3.17-3.16A3.16,3.16,0,0,0,209.58,183.57Z"/><path class="cls-1" d="M205.79,189.77a3.17,3.17,0,1,0-3.16-3.17A3.16,3.16,0,0,0,205.79,189.77Z"/><circle class="cls-1" cx="201.41" cy="192.39" r="3.16"/><path class="cls-1" d="M196.47,200.87a3.16,3.16,0,1,0-3.16-3.16A3.15,3.15,0,0,0,196.47,200.87Z"/><path class="cls-1" d="M191,205.68a3.17,3.17,0,1,0-3.16-3.17A3.16,3.16,0,0,0,191,205.68Z"/><path class="cls-1" d="M185.14,209.91a3.16,3.16,0,1,0-3.17-3.16A3.16,3.16,0,0,0,185.14,209.91Z"/><path class="cls-1" d="M178.85,213.54a3.16,3.16,0,1,0-3.16-3.16A3.15,3.15,0,0,0,178.85,213.54Z"/><circle class="cls-1" cx="172.23" cy="213.36" r="3.16" transform="translate(-32.05 30.45) rotate(-9.25)"/><path class="cls-1" d="M165.35,218.84a3.17,3.17,0,1,0-3.16-3.16A3.17,3.17,0,0,0,165.35,218.84Z"/><path class="cls-1" d="M158.28,220.45a3.16,3.16,0,1,0-3.16-3.16A3.16,3.16,0,0,0,158.28,220.45Z"/><path class="cls-1" d="M151.08,221.36a3.17,3.17,0,1,0-3.17-3.17A3.17,3.17,0,0,0,151.08,221.36Z"/><path class="cls-1" d="M143.82,221.54a3.17,3.17,0,1,0-3.16-3.17A3.16,3.16,0,0,0,143.82,221.54Z"/><path class="cls-1" d="M136.58,221a3.16,3.16,0,1,0-3.16-3.16A3.16,3.16,0,0,0,136.58,221Z"/><path class="cls-1" d="M129.43,219.73a3.16,3.16,0,1,0-3.16-3.16A3.16,3.16,0,0,0,129.43,219.73Z"/><path class="cls-1" d="M122.45,217.77a3.17,3.17,0,1,0-3.17-3.16A3.17,3.17,0,0,0,122.45,217.77Z"/><path class="cls-1" d="M115.69,215.12a3.17,3.17,0,1,0-3.16-3.17A3.16,3.16,0,0,0,115.69,215.12Z"/><path class="cls-1" d="M109.23,211.81a3.17,3.17,0,1,0-3.16-3.17A3.17,3.17,0,0,0,109.23,211.81Z"/><path class="cls-1" d="M103.14,207.85A3.15,3.15,0,1,0,100,204.7,3.15,3.15,0,0,0,103.14,207.85Z"/><path class="cls-1" d="M97.46,203.32a3.14,3.14,0,1,0-3.14-3.14A3.15,3.15,0,0,0,97.46,203.32Z"/><path class="cls-1" d="M92.26,198.25a3.14,3.14,0,1,0-3.14-3.14A3.13,3.13,0,0,0,92.26,198.25Z"/><path class="cls-1" d="M87.6,192.69a3.14,3.14,0,1,0-3.14-3.14A3.14,3.14,0,0,0,87.6,192.69Z"/><path class="cls-1" d="M83.51,186.69a3.14,3.14,0,1,0-3.14-3.14A3.14,3.14,0,0,0,83.51,186.69Z"/><path class="cls-1" d="M80,180.32a3.14,3.14,0,1,0-3.14-3.14A3.15,3.15,0,0,0,80,180.32Z"/><path class="cls-1" d="M77.22,173.63a3.14,3.14,0,1,0-3.14-3.14A3.14,3.14,0,0,0,77.22,173.63Z"/><path class="cls-1" d="M75.08,166.7a3.14,3.14,0,1,0-3.14-3.14A3.15,3.15,0,0,0,75.08,166.7Z"/><path class="cls-1" d="M73.64,159.58a3.14,3.14,0,1,0-3.14-3.14A3.13,3.13,0,0,0,73.64,159.58Z"/><path class="cls-1" d="M72.92,152.36a3.14,3.14,0,1,0-3.14-3.14A3.15,3.15,0,0,0,72.92,152.36Z"/><path class="cls-1" d="M72.92,145.1A3.14,3.14,0,1,0,69.78,142,3.14,3.14,0,0,0,72.92,145.1Z"/><circle class="cls-1" cx="73.64" cy="134.74" r="3.12"/><path class="cls-1" d="M75.08,130.74A3.12,3.12,0,1,0,72,127.62,3.12,3.12,0,0,0,75.08,130.74Z"/><path class="cls-1" d="M77.22,123.83a3.14,3.14,0,1,0-3.14-3.14A3.15,3.15,0,0,0,77.22,123.83Z"/><path class="cls-1" d="M80,117.12A3.12,3.12,0,1,0,76.92,114,3.12,3.12,0,0,0,80,117.12Z"/><circle class="cls-1" cx="83.51" cy="107.63" r="3.12"/><circle class="cls-1" cx="87.6" cy="101.63" r="3.12"/><circle class="cls-1" cx="92.26" cy="96.07" r="3.12"/><circle class="cls-1" cx="97.46" cy="91" r="3.12"/><circle class="cls-1" cx="103.14" cy="86.48" r="3.12"/><path class="cls-1" d="M109.23,85.66a3.12,3.12,0,1,0-3.12-3.12A3.12,3.12,0,0,0,109.23,85.66Z"/><path class="cls-1" d="M115.69,82.37a3.14,3.14,0,1,0-3.14-3.14A3.14,3.14,0,0,0,115.69,82.37Z"/><circle class="cls-1" cx="122.45" cy="76.57" r="3.12" transform="translate(-10.71 20.67) rotate(-9.25)"/><circle class="cls-1" cx="129.43" cy="74.61" r="3.12"/><path class="cls-1" d="M136.58,76.49a3.14,3.14,0,1,0-3.14-3.14A3.14,3.14,0,0,0,136.58,76.49Z"/><path class="cls-1" d="M143.82,76a3.14,3.14,0,1,0-3.14-3.14A3.15,3.15,0,0,0,143.82,76Z"/><circle class="cls-1" cx="151.08" cy="72.99" r="3.14" transform="translate(26.12 184.95) rotate(-67.65)"/><path class="cls-1" d="M158.28,77a3.14,3.14,0,1,0-3.14-3.14A3.15,3.15,0,0,0,158.28,77Z"/><path class="cls-1" d="M165.35,78.65a3.15,3.15,0,1,0-3.14-3.14A3.14,3.14,0,0,0,165.35,78.65Z"/><circle class="cls-1" cx="172.23" cy="77.82" r="3.14" transform="translate(-10.27 28.69) rotate(-9.25)"/><path class="cls-1" d="M178.85,83.94a3.14,3.14,0,1,0-3.14-3.14A3.14,3.14,0,0,0,178.85,83.94Z"/><path class="cls-1" d="M185.14,87.57A3.14,3.14,0,1,0,182,84.43,3.14,3.14,0,0,0,185.14,87.57Z"/><path class="cls-1" d="M191,91.81a3.14,3.14,0,1,0-3.14-3.14A3.15,3.15,0,0,0,191,91.81Z"/><circle class="cls-1" cx="196.47" cy="93.47" r="3.14"/><path class="cls-1" d="M201.41,101.93a3.14,3.14,0,1,0-3.14-3.14A3.14,3.14,0,0,0,201.41,101.93Z"/><circle class="cls-1" cx="205.79" cy="104.58" r="3.14"/><path class="cls-1" d="M209.58,113.93a3.16,3.16,0,1,0-3.17-3.16A3.16,3.16,0,0,0,209.58,113.93Z"/><path class="cls-1" d="M212.72,120.47a3.16,3.16,0,1,0-3.16-3.16A3.16,3.16,0,0,0,212.72,120.47Z"/><path class="cls-1" d="M215.21,127.29a3.16,3.16,0,1,0-3.17-3.16A3.16,3.16,0,0,0,215.21,127.29Z"/><path class="cls-1" d="M217,134.33a3.17,3.17,0,1,0-3.16-3.17A3.16,3.16,0,0,0,217,134.33Z"/><path class="cls-1" d="M218.08,141.5a3.16,3.16,0,1,0-3.16-3.16A3.15,3.15,0,0,0,218.08,141.5Z"/><path class="cls-1" d="M226.53,148.39a2.8,2.8,0,1,0-2.8-2.8A2.8,2.8,0,0,0,226.53,148.39Z"/><path class="cls-1" d="M226.21,155.65a2.81,2.81,0,1,0-2.81-2.81A2.81,2.81,0,0,0,226.21,155.65Z"/><path class="cls-1" d="M225.23,162.84a2.81,2.81,0,1,0-2.8-2.81A2.81,2.81,0,0,0,225.23,162.84Z"/><path class="cls-1" d="M223.62,169.94a2.83,2.83,0,1,0-2.83-2.83A2.83,2.83,0,0,0,223.62,169.94Z"/><path class="cls-1" d="M221.37,176.82a2.81,2.81,0,1,0-2.8-2.8A2.81,2.81,0,0,0,221.37,176.82Z"/><path class="cls-1" d="M218.52,183.49a2.8,2.8,0,1,0-2.8-2.8A2.8,2.8,0,0,0,218.52,183.49Z"/><path class="cls-1" d="M215.08,189.89a2.81,2.81,0,1,0-2.8-2.81A2.8,2.8,0,0,0,215.08,189.89Z"/><path class="cls-1" d="M211.08,195.94a2.8,2.8,0,1,0-2.8-2.8A2.8,2.8,0,0,0,211.08,195.94Z"/><path class="cls-1" d="M206.56,201.62a2.81,2.81,0,1,0-2.81-2.81A2.81,2.81,0,0,0,206.56,201.62Z"/><circle class="cls-1" cx="201.54" cy="204.06" r="2.83"/><path class="cls-1" d="M196.07,211.64a2.81,2.81,0,1,0-2.8-2.8A2.8,2.8,0,0,0,196.07,211.64Z"/><path class="cls-1" d="M190.2,215.91a2.81,2.81,0,1,0-2.8-2.81A2.8,2.8,0,0,0,190.2,215.91Z"/><path class="cls-1" d="M184,219.63a2.81,2.81,0,1,0-2.8-2.8A2.8,2.8,0,0,0,184,219.63Z"/><path class="cls-1" d="M177.43,222.78a2.81,2.81,0,1,0-2.8-2.8A2.8,2.8,0,0,0,177.43,222.78Z"/><path class="cls-1" d="M170.63,225.33a2.81,2.81,0,1,0-2.8-2.8A2.8,2.8,0,0,0,170.63,225.33Z"/><circle class="cls-1" cx="163.64" cy="224.46" r="2.8"/><path class="cls-1" d="M156.49,228.56a2.81,2.81,0,1,0-2.8-2.81A2.81,2.81,0,0,0,156.49,228.56Z"/><path class="cls-1" d="M149.26,229.21a2.81,2.81,0,1,0-2.8-2.81A2.81,2.81,0,0,0,149.26,229.21Z"/><path class="cls-1" d="M142,229.21a2.81,2.81,0,1,0-2.81-2.81A2.81,2.81,0,0,0,142,229.21Z"/><path class="cls-1" d="M134.78,228.56a2.81,2.81,0,1,0-2.81-2.81A2.81,2.81,0,0,0,134.78,228.56Z"/><circle class="cls-1" cx="127.63" cy="224.46" r="2.8"/><path class="cls-1" d="M120.64,225.33a2.81,2.81,0,1,0-2.81-2.8A2.8,2.8,0,0,0,120.64,225.33Z"/><path class="cls-1" d="M113.84,222.78A2.81,2.81,0,1,0,111,220,2.8,2.8,0,0,0,113.84,222.78Z"/><path class="cls-1" d="M107.3,219.63a2.81,2.81,0,1,0-2.8-2.8A2.8,2.8,0,0,0,107.3,219.63Z"/><path class="cls-1" d="M101.07,215.91a2.81,2.81,0,1,0-2.8-2.81A2.8,2.8,0,0,0,101.07,215.91Z"/><path class="cls-1" d="M95.2,211.64a2.81,2.81,0,1,0-2.81-2.8A2.8,2.8,0,0,0,95.2,211.64Z"/><circle class="cls-1" cx="89.73" cy="204.06" r="2.8"/><path class="cls-1" d="M84.71,201.62a2.81,2.81,0,1,0-2.8-2.81A2.81,2.81,0,0,0,84.71,201.62Z"/><path class="cls-1" d="M80.19,195.92a2.78,2.78,0,1,0-2.78-2.78A2.77,2.77,0,0,0,80.19,195.92Z"/><path class="cls-1" d="M76.19,189.86a2.78,2.78,0,1,0-2.78-2.78A2.77,2.77,0,0,0,76.19,189.86Z"/><path class="cls-1" d="M72.75,183.47A2.78,2.78,0,1,0,70,180.69,2.77,2.77,0,0,0,72.75,183.47Z"/><path class="cls-1" d="M69.9,176.8A2.79,2.79,0,1,0,67.12,174,2.79,2.79,0,0,0,69.9,176.8Z"/><path class="cls-1" d="M67.65,169.89a2.78,2.78,0,1,0-2.78-2.78A2.78,2.78,0,0,0,67.65,169.89Z"/><path class="cls-1" d="M66,162.82A2.79,2.79,0,1,0,63.26,160,2.78,2.78,0,0,0,66,162.82Z"/><path class="cls-1" d="M65.06,155.62a2.78,2.78,0,1,0-2.78-2.78A2.78,2.78,0,0,0,65.06,155.62Z"/><path class="cls-1" d="M64.74,148.37A2.78,2.78,0,1,0,62,145.59,2.77,2.77,0,0,0,64.74,148.37Z"/><path class="cls-1" d="M65.06,141.12a2.78,2.78,0,1,0-2.78-2.78A2.79,2.79,0,0,0,65.06,141.12Z"/><path class="cls-1" d="M66,133.93a2.79,2.79,0,1,0-2.78-2.78A2.78,2.78,0,0,0,66,133.93Z"/><path class="cls-1" d="M67.65,126.85a2.78,2.78,0,1,0-2.78-2.78A2.78,2.78,0,0,0,67.65,126.85Z"/><path class="cls-1" d="M69.9,120a2.79,2.79,0,1,0-2.78-2.78A2.79,2.79,0,0,0,69.9,120Z"/><path class="cls-1" d="M72.75,113.27A2.78,2.78,0,1,0,70,110.49,2.77,2.77,0,0,0,72.75,113.27Z"/><path class="cls-1" d="M76.19,106.88a2.78,2.78,0,1,0-2.78-2.78A2.77,2.77,0,0,0,76.19,106.88Z"/><path class="cls-1" d="M80.19,100.82A2.78,2.78,0,1,0,77.41,98,2.77,2.77,0,0,0,80.19,100.82Z"/><path class="cls-1" d="M84.71,95.15a2.79,2.79,0,1,0-2.78-2.78A2.79,2.79,0,0,0,84.71,95.15Z"/><path class="cls-1" d="M89.73,89.9A2.78,2.78,0,1,0,87,87.12,2.77,2.77,0,0,0,89.73,89.9Z"/><path class="cls-1" d="M95.2,85.12a2.78,2.78,0,1,0-2.78-2.78A2.78,2.78,0,0,0,95.2,85.12Z"/><path class="cls-1" d="M101.07,80.86a2.79,2.79,0,1,0-2.78-2.78A2.78,2.78,0,0,0,101.07,80.86Z"/><path class="cls-1" d="M107.3,77.14a2.79,2.79,0,1,0-2.78-2.79A2.78,2.78,0,0,0,107.3,77.14Z"/><path class="cls-1" d="M113.84,74a2.79,2.79,0,1,0-2.78-2.79A2.78,2.78,0,0,0,113.84,74Z"/><path class="cls-1" d="M120.64,71.44a2.79,2.79,0,1,0-2.78-2.79A2.79,2.79,0,0,0,120.64,71.44Z"/><path class="cls-1" d="M127.63,69.5a2.78,2.78,0,1,0-2.78-2.78A2.78,2.78,0,0,0,127.63,69.5Z"/><path class="cls-1" d="M134.78,68.21A2.79,2.79,0,1,0,132,65.43,2.79,2.79,0,0,0,134.78,68.21Z"/><path class="cls-1" d="M142,67.56a2.79,2.79,0,1,0-2.79-2.78A2.79,2.79,0,0,0,142,67.56Z"/><path class="cls-1" d="M149.26,67.56a2.79,2.79,0,1,0-2.78-2.78A2.79,2.79,0,0,0,149.26,67.56Z"/><path class="cls-1" d="M156.49,68.21a2.79,2.79,0,1,0-2.78-2.78A2.79,2.79,0,0,0,156.49,68.21Z"/><path class="cls-1" d="M163.64,69.5a2.78,2.78,0,1,0-2.79-2.78A2.78,2.78,0,0,0,163.64,69.5Z"/><path class="cls-1" d="M170.63,71.44a2.79,2.79,0,1,0-2.78-2.79A2.79,2.79,0,0,0,170.63,71.44Z"/><path class="cls-1" d="M177.43,74a2.79,2.79,0,1,0-2.78-2.79A2.78,2.78,0,0,0,177.43,74Z"/><path class="cls-1" d="M184,77.14a2.79,2.79,0,1,0-2.78-2.79A2.78,2.78,0,0,0,184,77.14Z"/><path class="cls-1" d="M190.2,80.86a2.79,2.79,0,1,0-2.78-2.78A2.78,2.78,0,0,0,190.2,80.86Z"/><path class="cls-1" d="M196.07,85.12a2.78,2.78,0,1,0-2.78-2.78A2.77,2.77,0,0,0,196.07,85.12Z"/><path class="cls-1" d="M201.54,89.92a2.81,2.81,0,1,0-2.8-2.8A2.8,2.8,0,0,0,201.54,89.92Z"/><path class="cls-1" d="M206.56,95.15a2.79,2.79,0,1,0-2.79-2.78A2.79,2.79,0,0,0,206.56,95.15Z"/><path class="cls-1" d="M211.08,100.84a2.8,2.8,0,1,0-2.8-2.8A2.8,2.8,0,0,0,211.08,100.84Z"/><circle class="cls-1" cx="215.08" cy="104.1" r="2.8"/><path class="cls-1" d="M218.52,113.29a2.8,2.8,0,1,0-2.8-2.8A2.8,2.8,0,0,0,218.52,113.29Z"/><circle class="cls-1" cx="221.37" cy="117.17" r="2.8" transform="translate(28.76 277.27) rotate(-67.62)"/><path class="cls-1" d="M223.62,126.87a2.81,2.81,0,1,0-2.81-2.8A2.8,2.8,0,0,0,223.62,126.87Z"/><path class="cls-1" d="M225.23,134a2.81,2.81,0,1,0-2.8-2.8A2.81,2.81,0,0,0,225.23,134Z"/><path class="cls-1" d="M226.21,141.14a2.81,2.81,0,1,0-2.81-2.8A2.8,2.8,0,0,0,226.21,141.14Z"/><path class="cls-1" d="M234.62,148.06a2.47,2.47,0,1,0-2.47-2.47A2.48,2.48,0,0,0,234.62,148.06Z"/><path class="cls-1" d="M234.33,155.31a2.47,2.47,0,1,0-2.47-2.47A2.46,2.46,0,0,0,234.33,155.31Z"/><circle class="cls-1" cx="233.44" cy="160.05" r="2.47"/><circle class="cls-1" cx="231.97" cy="167.16" r="2.47"/><circle class="cls-1" cx="229.92" cy="174.12" r="2.47"/><path class="cls-1" d="M227.32,183.36a2.47,2.47,0,1,0-2.47-2.46A2.46,2.46,0,0,0,227.32,183.36Z"/><path class="cls-1" d="M224.17,189.91a2.47,2.47,0,1,0-2.47-2.47A2.47,2.47,0,0,0,224.17,189.91Z"/><path class="cls-1" d="M220.49,196.17A2.47,2.47,0,1,0,218,193.7,2.47,2.47,0,0,0,220.49,196.17Z"/><circle class="cls-1" cx="216.32" cy="199.64" r="2.47" transform="translate(-50.67 323.61) rotate(-67.61)"/><circle class="cls-1" cx="211.68" cy="205.22" r="2.47"/><path class="cls-1" d="M206.6,212.88a2.47,2.47,0,1,0-2.46-2.47A2.47,2.47,0,0,0,206.6,212.88Z"/><path class="cls-1" d="M201.12,217.63a2.47,2.47,0,1,0-2.47-2.47A2.47,2.47,0,0,0,201.12,217.63Z"/><circle class="cls-1" cx="195.26" cy="219.45" r="2.47"/><circle class="cls-1" cx="189.08" cy="223.25" r="2.47" transform="translate(-89.36 313.04) rotate(-67.61)"/><circle class="cls-1" cx="182.6" cy="226.53" r="2.47"/><path class="cls-1" d="M175.88,231.75a2.47,2.47,0,1,0-2.47-2.47A2.48,2.48,0,0,0,175.88,231.75Z"/><circle class="cls-1" cx="168.96" cy="231.47" r="2.47"/><circle class="cls-1" cx="161.88" cy="233.08" r="2.45" transform="translate(-115.29 293.99) rotate(-67.61)"/><circle class="cls-1" cx="154.7" cy="234.11" r="2.47"/><path class="cls-1" d="M147.45,237a2.47,2.47,0,1,0-2.47-2.46A2.47,2.47,0,0,0,147.45,237Z"/><path class="cls-1" d="M140.19,236.85a2.45,2.45,0,1,0-2.44-2.44A2.45,2.45,0,0,0,140.19,236.85Z"/><circle class="cls-1" cx="132.97" cy="233.67" r="2.45"/><circle class="cls-1" cx="125.83" cy="232.34" r="2.45"/><path class="cls-1" d="M118.83,232.89a2.45,2.45,0,1,0-2.45-2.45A2.45,2.45,0,0,0,118.83,232.89Z"/><circle class="cls-1" cx="112" cy="227.97" r="2.45" transform="translate(-35.16 20.95) rotate(-9.24)"/><path class="cls-1" d="M105.4,227.4A2.45,2.45,0,1,0,103,225,2.44,2.44,0,0,0,105.4,227.4Z"/><path class="cls-1" d="M99.06,223.86a2.45,2.45,0,1,0-2.44-2.44A2.45,2.45,0,0,0,99.06,223.86Z"/><path class="cls-1" d="M93,219.81a2.45,2.45,0,1,0-2.45-2.44A2.44,2.44,0,0,0,93,219.81Z"/><circle class="cls-1" cx="87.36" cy="212.84" r="2.45" transform="translate(-33.05 16.79) rotate(-9.24)"/><path class="cls-1" d="M82.07,210.31a2.45,2.45,0,1,0-2.44-2.44A2.45,2.45,0,0,0,82.07,210.31Z"/><circle class="cls-1" cx="77.21" cy="202.48" r="2.45" transform="translate(-31.52 15.03) rotate(-9.24)"/><path class="cls-1" d="M72.8,199.16a2.45,2.45,0,1,0-2.44-2.45A2.45,2.45,0,0,0,72.8,199.16Z"/><circle class="cls-1" cx="68.88" cy="190.61" r="2.45"/><path class="cls-1" d="M65.46,186.62A2.42,2.42,0,1,0,63,184.2,2.42,2.42,0,0,0,65.46,186.62Z"/><path class="cls-1" d="M62.58,180a2.43,2.43,0,1,0-2.42-2.42A2.42,2.42,0,0,0,62.58,180Z"/><path class="cls-1" d="M60.25,173.08a2.42,2.42,0,1,0-2.42-2.42A2.42,2.42,0,0,0,60.25,173.08Z"/><path class="cls-1" d="M58.49,166a2.43,2.43,0,1,0-2.42-2.42A2.42,2.42,0,0,0,58.49,166Z"/><path class="cls-1" d="M57.32,158.88a2.43,2.43,0,1,0-2.43-2.43A2.43,2.43,0,0,0,57.32,158.88Z"/><circle class="cls-1" cx="56.72" cy="149.22" r="2.42"/><path class="cls-1" d="M56.72,144.38A2.42,2.42,0,1,0,54.3,142,2.42,2.42,0,0,0,56.72,144.38Z"/><path class="cls-1" d="M57.32,137.15a2.43,2.43,0,1,0-2.43-2.42A2.43,2.43,0,0,0,57.32,137.15Z"/><circle class="cls-1" cx="58.49" cy="127.56" r="2.42"/><path class="cls-1" d="M60.25,122.94a2.42,2.42,0,1,0-2.42-2.42A2.42,2.42,0,0,0,60.25,122.94Z"/><path class="cls-1" d="M62.58,116.07a2.43,2.43,0,1,0-2.42-2.43A2.42,2.42,0,0,0,62.58,116.07Z"/><path class="cls-1" d="M65.46,109.4A2.42,2.42,0,1,0,63,107,2.42,2.42,0,0,0,65.46,109.4Z"/><path class="cls-1" d="M68.88,103a2.43,2.43,0,1,0-2.43-2.43A2.43,2.43,0,0,0,68.88,103Z"/><circle class="cls-1" cx="72.8" cy="94.47" r="2.42"/><path class="cls-1" d="M77.21,91.12a2.42,2.42,0,1,0-2.42-2.42A2.42,2.42,0,0,0,77.21,91.12Z"/><path class="cls-1" d="M82.07,85.74a2.43,2.43,0,1,0-2.42-2.43A2.43,2.43,0,0,0,82.07,85.74Z"/><path class="cls-1" d="M87.36,80.76a2.42,2.42,0,1,0-2.42-2.42A2.42,2.42,0,0,0,87.36,80.76Z"/><path class="cls-1" d="M93,76.24a2.43,2.43,0,1,0-2.43-2.43A2.42,2.42,0,0,0,93,76.24Z"/><path class="cls-1" d="M99.06,72.19a2.43,2.43,0,1,0-2.42-2.42A2.43,2.43,0,0,0,99.06,72.19Z"/><path class="cls-1" d="M105.4,68.64A2.42,2.42,0,1,0,103,66.22,2.42,2.42,0,0,0,105.4,68.64Z"/><path class="cls-1" d="M112,65.63a2.43,2.43,0,1,0-2.42-2.42A2.42,2.42,0,0,0,112,65.63Z"/><path class="cls-1" d="M118.83,63.16a2.42,2.42,0,1,0-2.42-2.42A2.42,2.42,0,0,0,118.83,63.16Z"/><path class="cls-1" d="M125.83,61.26a2.43,2.43,0,1,0-2.42-2.42A2.43,2.43,0,0,0,125.83,61.26Z"/><path class="cls-1" d="M133,59.93a2.42,2.42,0,1,0-2.42-2.42A2.42,2.42,0,0,0,133,59.93Z"/><path class="cls-1" d="M140.19,59.19a2.42,2.42,0,1,0-2.42-2.42A2.42,2.42,0,0,0,140.19,59.19Z"/><path class="cls-1" d="M147.45,59.05A2.43,2.43,0,1,0,145,56.62,2.42,2.42,0,0,0,147.45,59.05Z"/><path class="cls-1" d="M154.7,59.49a2.43,2.43,0,1,0-2.43-2.42A2.43,2.43,0,0,0,154.7,59.49Z"/><path class="cls-1" d="M161.88,60.52a2.42,2.42,0,1,0-2.42-2.42A2.42,2.42,0,0,0,161.88,60.52Z"/><path class="cls-1" d="M169,62.14a2.43,2.43,0,1,0-2.42-2.42A2.42,2.42,0,0,0,169,62.14Z"/><path class="cls-1" d="M175.88,64.32a2.42,2.42,0,1,0-2.42-2.42A2.42,2.42,0,0,0,175.88,64.32Z"/><path class="cls-1" d="M182.6,67.07a2.43,2.43,0,1,0-2.42-2.42A2.42,2.42,0,0,0,182.6,67.07Z"/><circle class="cls-1" cx="189.08" cy="67.93" r="2.45" transform="translate(54.25 216.88) rotate(-67.61)"/><circle class="cls-1" cx="195.26" cy="71.73" r="2.45"/><path class="cls-1" d="M201.12,78.46A2.45,2.45,0,1,0,198.67,76,2.44,2.44,0,0,0,201.12,78.46Z"/><path class="cls-1" d="M206.6,83.22a2.45,2.45,0,1,0-2.44-2.45A2.45,2.45,0,0,0,206.6,83.22Z"/><circle class="cls-1" cx="211.68" cy="85.96" r="2.45"/><circle class="cls-1" cx="216.32" cy="91.54" r="2.45" transform="translate(49.28 256.68) rotate(-67.61)"/><path class="cls-1" d="M220.49,99.93a2.45,2.45,0,1,0-2.44-2.45A2.45,2.45,0,0,0,220.49,99.93Z"/><circle class="cls-1" cx="224.17" cy="103.74" r="2.45"/><path class="cls-1" d="M227.32,112.73a2.45,2.45,0,1,0-2.45-2.45A2.45,2.45,0,0,0,227.32,112.73Z"/><path class="cls-1" d="M229.92,119.5a2.45,2.45,0,1,0-2.44-2.44A2.45,2.45,0,0,0,229.92,119.5Z"/><path class="cls-1" d="M232,126.47a2.45,2.45,0,1,0-2.45-2.45A2.45,2.45,0,0,0,232,126.47Z"/><circle class="cls-1" cx="233.44" cy="131.13" r="2.45"/><circle class="cls-1" cx="234.33" cy="138.34" r="2.45"/><path class="cls-1" d="M242.71,147.7a2.11,2.11,0,1,0-2.11-2.11A2.11,2.11,0,0,0,242.71,147.7Z"/><path class="cls-1" d="M242.44,155a2.11,2.11,0,1,0-2.11-2.11A2.11,2.11,0,0,0,242.44,155Z"/><path class="cls-1" d="M241.63,162.17a2.11,2.11,0,1,0-2.11-2.11A2.12,2.12,0,0,0,241.63,162.17Z"/><path class="cls-1" d="M240.28,169.3a2.11,2.11,0,1,0-2.11-2.11A2.11,2.11,0,0,0,240.28,169.3Z"/><circle class="cls-1" cx="238.4" cy="174.2" r="2.11"/><circle class="cls-1" cx="236" cy="181.06" r="2.11"/><path class="cls-1" d="M233.1,189.82a2.11,2.11,0,1,0-2.11-2.11A2.12,2.12,0,0,0,233.1,189.82Z"/><path class="cls-1" d="M229.71,196.24a2.11,2.11,0,1,0-2.11-2.11A2.11,2.11,0,0,0,229.71,196.24Z"/><path class="cls-1" d="M225.84,202.38a2.11,2.11,0,1,0-2.11-2.11A2.1,2.1,0,0,0,225.84,202.38Z"/><path class="cls-1" d="M221.53,208.22a2.11,2.11,0,1,0-2.11-2.1A2.1,2.1,0,0,0,221.53,208.22Z"/><path class="cls-1" d="M216.8,213.73a2.11,2.11,0,1,0-2.11-2.11A2.12,2.12,0,0,0,216.8,213.73Z"/><path class="cls-1" d="M211.66,218.86a2.11,2.11,0,1,0-2.11-2.11A2.1,2.1,0,0,0,211.66,218.86Z"/><circle class="cls-1" cx="206.16" cy="221.49" r="2.11"/><circle class="cls-1" cx="200.32" cy="225.8" r="2.11"/><path class="cls-1" d="M194.17,231.77a2.11,2.11,0,1,0-2.11-2.11A2.11,2.11,0,0,0,194.17,231.77Z"/><path class="cls-1" d="M187.75,235.16a2.11,2.11,0,1,0-2.1-2.11A2.1,2.1,0,0,0,187.75,235.16Z"/><path class="cls-1" d="M181.1,238.06A2.11,2.11,0,1,0,179,236,2.1,2.1,0,0,0,181.1,238.06Z"/><path class="cls-1" d="M174.25,240.46a2.11,2.11,0,1,0-2.11-2.11A2.11,2.11,0,0,0,174.25,240.46Z"/><path class="cls-1" d="M167.24,242.34a2.11,2.11,0,1,0-2.11-2.11A2.11,2.11,0,0,0,167.24,242.34Z"/><path class="cls-1" d="M160.1,243.69a2.11,2.11,0,1,0-2.1-2.11A2.1,2.1,0,0,0,160.1,243.69Z"/><circle class="cls-1" cx="152.89" cy="242.39" r="2.11"/><path class="cls-1" d="M145.64,244.77a2.11,2.11,0,1,0-2.11-2.1A2.1,2.1,0,0,0,145.64,244.77Z"/><path class="cls-1" d="M138.38,244.5a2.11,2.11,0,1,0-2.11-2.11A2.1,2.1,0,0,0,138.38,244.5Z"/><path class="cls-1" d="M131.17,243.69a2.11,2.11,0,1,0-2.11-2.11A2.11,2.11,0,0,0,131.17,243.69Z"/><path class="cls-1" d="M124,242.34a2.11,2.11,0,1,0-2.1-2.11A2.1,2.1,0,0,0,124,242.34Z"/><path class="cls-1" d="M117,240.46a2.11,2.11,0,1,0-2.11-2.11A2.1,2.1,0,0,0,117,240.46Z"/><path class="cls-1" d="M110.17,238a2.09,2.09,0,1,0-2.09-2.08A2.09,2.09,0,0,0,110.17,238Z"/><path class="cls-1" d="M103.52,235.14a2.09,2.09,0,1,0-2.09-2.09A2.09,2.09,0,0,0,103.52,235.14Z"/><path class="cls-1" d="M97.1,231.75A2.09,2.09,0,1,0,95,229.66,2.09,2.09,0,0,0,97.1,231.75Z"/><circle class="cls-1" cx="90.95" cy="225.8" r="2.09"/><path class="cls-1" d="M85.11,223.57A2.09,2.09,0,1,0,83,221.49,2.09,2.09,0,0,0,85.11,223.57Z"/><circle class="cls-1" cx="79.61" cy="216.75" r="2.09"/><path class="cls-1" d="M74.47,213.7a2.09,2.09,0,1,0-2.08-2.08A2.08,2.08,0,0,0,74.47,213.7Z"/><path class="cls-1" d="M69.74,208.2a2.09,2.09,0,1,0-2.09-2.08A2.08,2.08,0,0,0,69.74,208.2Z"/><circle class="cls-1" cx="65.43" cy="200.27" r="2.09"/><path class="cls-1" d="M61.57,196.21a2.09,2.09,0,1,0-2.09-2.08A2.08,2.08,0,0,0,61.57,196.21Z"/><circle class="cls-1" cx="58.17" cy="187.71" r="2.09"/><circle class="cls-1" cx="55.27" cy="181.06" r="2.09" transform="translate(-28.35 11.22) rotate(-9.24)"/><circle class="cls-1" cx="52.87" cy="174.2" r="2.09" transform="translate(-27.28 10.75) rotate(-9.24)"/><circle class="cls-1" cx="50.99" cy="167.19" r="2.09"/><circle class="cls-1" cx="49.64" cy="160.06" r="2.09"/><path class="cls-1" d="M48.83,154.91a2.07,2.07,0,1,0-2.06-2.07A2.07,2.07,0,0,0,48.83,154.91Z"/><path class="cls-1" d="M48.56,147.65a2.06,2.06,0,1,0-2.06-2.06A2.06,2.06,0,0,0,48.56,147.65Z"/><path class="cls-1" d="M48.83,140.4a2.07,2.07,0,1,0-2.06-2.06A2.07,2.07,0,0,0,48.83,140.4Z"/><circle class="cls-1" cx="49.64" cy="131.12" r="2.06"/><circle class="cls-1" cx="50.99" cy="123.99" r="2.06"/><path class="cls-1" d="M52.87,119A2.07,2.07,0,1,0,50.81,117,2.07,2.07,0,0,0,52.87,119Z"/><path class="cls-1" d="M55.27,112.19a2.07,2.07,0,1,0-2.06-2.07A2.07,2.07,0,0,0,55.27,112.19Z"/><circle class="cls-1" cx="58.17" cy="103.47" r="2.06"/><path class="cls-1" d="M61.57,99.12a2.07,2.07,0,1,0-2.07-2.07A2.07,2.07,0,0,0,61.57,99.12Z"/><circle class="cls-1" cx="65.43" cy="90.91" r="2.06"/><circle class="cls-1" cx="69.74" cy="85.06" r="2.06"/><circle class="cls-1" cx="74.47" cy="79.56" r="2.06"/><path class="cls-1" d="M79.61,76.49a2.06,2.06,0,1,0-2.07-2.06A2.06,2.06,0,0,0,79.61,76.49Z"/><path class="cls-1" d="M85.11,71.76a2.07,2.07,0,1,0-2.06-2.07A2.07,2.07,0,0,0,85.11,71.76Z"/><circle class="cls-1" cx="90.95" cy="65.38" r="2.06"/><path class="cls-1" d="M97.1,63.58A2.06,2.06,0,1,0,95,61.52,2.06,2.06,0,0,0,97.1,63.58Z"/><path class="cls-1" d="M103.52,60.19a2.07,2.07,0,1,0-2.07-2.06A2.06,2.06,0,0,0,103.52,60.19Z"/><path class="cls-1" d="M110.17,57.29a2.07,2.07,0,1,0-2.06-2.06A2.06,2.06,0,0,0,110.17,57.29Z"/><circle class="cls-1" cx="117.02" cy="52.83" r="2.06"/><path class="cls-1" d="M124,53A2.06,2.06,0,1,0,122,51,2.07,2.07,0,0,0,124,53Z"/><circle class="cls-1" cx="131.17" cy="49.6" r="2.06"/><path class="cls-1" d="M138.38,50.85a2.07,2.07,0,1,0-2.06-2.06A2.06,2.06,0,0,0,138.38,50.85Z"/><path class="cls-1" d="M145.64,50.58a2.07,2.07,0,1,0-2.07-2.07A2.07,2.07,0,0,0,145.64,50.58Z"/><circle class="cls-1" cx="152.89" cy="48.79" r="2.06"/><path class="cls-1" d="M160.1,51.69A2.09,2.09,0,1,0,158,49.6,2.09,2.09,0,0,0,160.1,51.69Z"/><path class="cls-1" d="M167.24,53A2.09,2.09,0,1,0,165.15,51,2.09,2.09,0,0,0,167.24,53Z"/><path class="cls-1" d="M174.25,54.91a2.09,2.09,0,1,0-2.09-2.08A2.09,2.09,0,0,0,174.25,54.91Z"/><path class="cls-1" d="M181.1,57.31A2.09,2.09,0,1,0,179,55.23,2.09,2.09,0,0,0,181.1,57.31Z"/><circle class="cls-1" cx="187.75" cy="58.13" r="2.09"/><path class="cls-1" d="M194.17,63.61a2.09,2.09,0,1,0-2.08-2.09A2.09,2.09,0,0,0,194.17,63.61Z"/><circle class="cls-1" cx="200.32" cy="65.38" r="2.09"/><circle class="cls-1" cx="206.16" cy="69.69" r="2.09"/><path class="cls-1" d="M211.66,76.52a2.09,2.09,0,1,0-2.08-2.09A2.09,2.09,0,0,0,211.66,76.52Z"/><circle class="cls-1" cx="216.8" cy="79.56" r="2.09"/><circle class="cls-1" cx="221.53" cy="85.06" r="2.09"/><path class="cls-1" d="M225.84,93a2.09,2.09,0,1,0-2.08-2.08A2.09,2.09,0,0,0,225.84,93Z"/><path class="cls-1" d="M229.71,99.14a2.09,2.09,0,1,0-2.09-2.09A2.09,2.09,0,0,0,229.71,99.14Z"/><circle class="cls-1" cx="233.1" cy="103.47" r="2.09"/><path class="cls-1" d="M236,112.21a2.09,2.09,0,1,0-2.09-2.09A2.09,2.09,0,0,0,236,112.21Z"/><path class="cls-1" d="M238.4,119.09a2.11,2.11,0,1,0-2.11-2.11A2.12,2.12,0,0,0,238.4,119.09Z"/><path class="cls-1" d="M240.28,126.1a2.11,2.11,0,1,0-2.11-2.11A2.12,2.12,0,0,0,240.28,126.1Z"/><path class="cls-1" d="M241.63,133.23a2.11,2.11,0,1,0-2.11-2.11A2.11,2.11,0,0,0,241.63,133.23Z"/><path class="cls-1" d="M242.44,140.44a2.11,2.11,0,1,0-2.11-2.1A2.11,2.11,0,0,0,242.44,140.44Z"/><path class="cls-1" d="M250.8,147.34a1.75,1.75,0,1,0-1.75-1.75A1.75,1.75,0,0,0,250.8,147.34Z"/><path class="cls-1" d="M250.55,154.6a1.75,1.75,0,1,0-1.75-1.75A1.75,1.75,0,0,0,250.55,154.6Z"/><path class="cls-1" d="M249.8,161.82a1.75,1.75,0,1,0-1.75-1.75A1.75,1.75,0,0,0,249.8,161.82Z"/><path class="cls-1" d="M248.55,169a1.75,1.75,0,1,0-1.75-1.75A1.75,1.75,0,0,0,248.55,169Z"/><path class="cls-1" d="M246.81,176a1.75,1.75,0,1,0-1.74-1.75A1.75,1.75,0,0,0,246.81,176Z"/><path class="cls-1" d="M244.6,182.93a1.75,1.75,0,1,0-1.75-1.75A1.75,1.75,0,0,0,244.6,182.93Z"/><path class="cls-1" d="M241.9,189.67a1.75,1.75,0,1,0-1.75-1.75A1.75,1.75,0,0,0,241.9,189.67Z"/><path class="cls-1" d="M238.75,196.21a1.75,1.75,0,1,0-1.75-1.75A1.75,1.75,0,0,0,238.75,196.21Z"/><path class="cls-1" d="M235.16,202.52a1.75,1.75,0,1,0-1.75-1.75A1.75,1.75,0,0,0,235.16,202.52Z"/><path class="cls-1" d="M231.14,208.57a1.75,1.75,0,1,0-1.75-1.75A1.75,1.75,0,0,0,231.14,208.57Z"/><path class="cls-1" d="M226.71,214.32a1.75,1.75,0,1,0-1.75-1.75A1.75,1.75,0,0,0,226.71,214.32Z"/><path class="cls-1" d="M221.9,219.75a1.75,1.75,0,1,0-1.75-1.75A1.75,1.75,0,0,0,221.9,219.75Z"/><path class="cls-1" d="M216.72,224.84a1.75,1.75,0,1,0-1.75-1.75A1.75,1.75,0,0,0,216.72,224.84Z"/><path class="cls-1" d="M211.2,229.56a1.75,1.75,0,1,0-1.75-1.75A1.75,1.75,0,0,0,211.2,229.56Z"/><path class="cls-1" d="M205.38,233.89a1.75,1.75,0,1,0-1.75-1.75A1.75,1.75,0,0,0,205.38,233.89Z"/><path class="cls-1" d="M199.26,237.8a1.75,1.75,0,1,0-1.75-1.75A1.75,1.75,0,0,0,199.26,237.8Z"/><path class="cls-1" d="M192.89,241.29a1.75,1.75,0,1,0-1.75-1.75A1.75,1.75,0,0,0,192.89,241.29Z"/><path class="cls-1" d="M186.3,244.33a1.75,1.75,0,1,0-1.75-1.75A1.75,1.75,0,0,0,186.3,244.33Z"/><path class="cls-1" d="M179.51,246.9a1.75,1.75,0,1,0-1.75-1.75A1.75,1.75,0,0,0,179.51,246.9Z"/><path class="cls-1" d="M172.56,249a1.75,1.75,0,1,0-1.75-1.75A1.75,1.75,0,0,0,172.56,249Z"/><path class="cls-1" d="M165.48,250.61a1.75,1.75,0,1,0-1.75-1.74A1.74,1.74,0,0,0,165.48,250.61Z"/><path class="cls-1" d="M158.31,251.74a1.75,1.75,0,1,0-1.75-1.75A1.75,1.75,0,0,0,158.31,251.74Z"/><path class="cls-1" d="M151.08,252.36a1.75,1.75,0,1,0-1.75-1.75A1.75,1.75,0,0,0,151.08,252.36Z"/><path class="cls-1" d="M143.82,252.49a1.75,1.75,0,1,0-1.75-1.75A1.75,1.75,0,0,0,143.82,252.49Z"/><path class="cls-1" d="M136.57,252.11a1.75,1.75,0,1,0-1.75-1.75A1.75,1.75,0,0,0,136.57,252.11Z"/><path class="cls-1" d="M129.36,251.24a1.75,1.75,0,1,0-1.75-1.75A1.75,1.75,0,0,0,129.36,251.24Z"/><path class="cls-1" d="M122.23,249.87a1.75,1.75,0,1,0-1.75-1.75A1.75,1.75,0,0,0,122.23,249.87Z"/><path class="cls-1" d="M115.22,248a1.75,1.75,0,1,0-1.75-1.75A1.75,1.75,0,0,0,115.22,248Z"/><path class="cls-1" d="M108.34,245.67a1.75,1.75,0,1,0-1.75-1.75A1.75,1.75,0,0,0,108.34,245.67Z"/><path class="cls-1" d="M101.65,242.86a1.75,1.75,0,1,0-1.75-1.75A1.75,1.75,0,0,0,101.65,242.86Z"/><path class="cls-1" d="M95.16,239.6a1.75,1.75,0,1,0-1.75-1.75A1.75,1.75,0,0,0,95.16,239.6Z"/><path class="cls-1" d="M88.92,235.88a1.73,1.73,0,1,0-1.73-1.73A1.73,1.73,0,0,0,88.92,235.88Z"/><path class="cls-1" d="M82.94,231.75A1.73,1.73,0,1,0,81.22,230,1.72,1.72,0,0,0,82.94,231.75Z"/><path class="cls-1" d="M77.27,227.23a1.73,1.73,0,1,0-1.73-1.73A1.73,1.73,0,0,0,77.27,227.23Z"/><path class="cls-1" d="M71.92,222.32a1.73,1.73,0,1,0-1.73-1.73A1.72,1.72,0,0,0,71.92,222.32Z"/><path class="cls-1" d="M66.92,217.05a1.73,1.73,0,1,0-1.73-1.72A1.73,1.73,0,0,0,66.92,217.05Z"/><path class="cls-1" d="M62.29,211.46a1.73,1.73,0,1,0-1.72-1.73A1.73,1.73,0,0,0,62.29,211.46Z"/><path class="cls-1" d="M58.07,205.56a1.73,1.73,0,1,0-1.73-1.73A1.74,1.74,0,0,0,58.07,205.56Z"/><circle class="cls-1" cx="54.26" cy="197.65" r="1.73"/><path class="cls-1" d="M50.89,193a1.73,1.73,0,1,0-1.73-1.73A1.73,1.73,0,0,0,50.89,193Z"/><path class="cls-1" d="M48,186.3a1.73,1.73,0,1,0-1.72-1.73A1.72,1.72,0,0,0,48,186.3Z"/><path class="cls-1" d="M45.51,179.47a1.73,1.73,0,1,0-1.73-1.73A1.72,1.72,0,0,0,45.51,179.47Z"/><path class="cls-1" d="M43.53,172.49a1.73,1.73,0,1,0-1.73-1.73A1.73,1.73,0,0,0,43.53,172.49Z"/><path class="cls-1" d="M42,165.38a1.73,1.73,0,1,0-1.72-1.73A1.72,1.72,0,0,0,42,165.38Z"/><path class="cls-1" d="M41,158.19a1.73,1.73,0,1,0-1.72-1.73A1.72,1.72,0,0,0,41,158.19Z"/><path class="cls-1" d="M40.53,151a1.73,1.73,0,1,0-1.72-1.73A1.73,1.73,0,0,0,40.53,151Z"/><path class="cls-1" d="M40.53,143.69A1.73,1.73,0,1,0,38.81,142,1.73,1.73,0,0,0,40.53,143.69Z"/><path class="cls-1" d="M41,136.45a1.73,1.73,0,1,0-1.72-1.73A1.73,1.73,0,0,0,41,136.45Z"/><path class="cls-1" d="M42,129.25a1.73,1.73,0,1,0-1.72-1.72A1.72,1.72,0,0,0,42,129.25Z"/><path class="cls-1" d="M43.53,122.13a1.71,1.71,0,1,0-1.71-1.71A1.71,1.71,0,0,0,43.53,122.13Z"/><path class="cls-1" d="M45.51,115.14a1.71,1.71,0,1,0-1.71-1.7A1.7,1.7,0,0,0,45.51,115.14Z"/><path class="cls-1" d="M48,108.31a1.71,1.71,0,1,0-1.7-1.7A1.71,1.71,0,0,0,48,108.31Z"/><path class="cls-1" d="M50.89,101.67A1.71,1.71,0,1,0,49.18,100,1.71,1.71,0,0,0,50.89,101.67Z"/><circle class="cls-1" cx="54.26" cy="93.53" r="1.7"/><path class="cls-1" d="M58.07,89.06a1.71,1.71,0,1,0-1.71-1.71A1.71,1.71,0,0,0,58.07,89.06Z"/><path class="cls-1" d="M62.29,83.15a1.7,1.7,0,1,0-1.7-1.7A1.7,1.7,0,0,0,62.29,83.15Z"/><path class="cls-1" d="M66.92,77.56a1.71,1.71,0,1,0-1.71-1.71A1.71,1.71,0,0,0,66.92,77.56Z"/><circle class="cls-1" cx="71.92" cy="70.59" r="1.7"/><circle class="cls-1" cx="77.27" cy="65.68" r="1.7"/><path class="cls-1" d="M82.94,62.86a1.71,1.71,0,1,0-1.7-1.71A1.71,1.71,0,0,0,82.94,62.86Z"/><path class="cls-1" d="M88.92,58.74A1.71,1.71,0,1,0,87.21,57,1.71,1.71,0,0,0,88.92,58.74Z"/><path class="cls-1" d="M95.16,55a1.71,1.71,0,1,0-1.7-1.7A1.71,1.71,0,0,0,95.16,55Z"/><path class="cls-1" d="M101.65,51.77a1.71,1.71,0,1,0-1.71-1.7A1.7,1.7,0,0,0,101.65,51.77Z"/><path class="cls-1" d="M108.34,49a1.71,1.71,0,1,0-1.7-1.7A1.7,1.7,0,0,0,108.34,49Z"/><path class="cls-1" d="M115.22,46.63a1.71,1.71,0,1,0-1.71-1.71A1.71,1.71,0,0,0,115.22,46.63Z"/><path class="cls-1" d="M122.23,44.77a1.71,1.71,0,1,0-1.7-1.71A1.71,1.71,0,0,0,122.23,44.77Z"/><path class="cls-1" d="M129.36,43.42a1.73,1.73,0,1,0-1.72-1.73A1.72,1.72,0,0,0,129.36,43.42Z"/><path class="cls-1" d="M136.57,42.54a1.73,1.73,0,1,0-1.73-1.72A1.73,1.73,0,0,0,136.57,42.54Z"/><path class="cls-1" d="M143.82,42.15a1.71,1.71,0,1,0-1.7-1.71A1.71,1.71,0,0,0,143.82,42.15Z"/><path class="cls-1" d="M151.08,42.29a1.73,1.73,0,1,0-1.73-1.72A1.73,1.73,0,0,0,151.08,42.29Z"/><path class="cls-1" d="M158.31,42.92a1.73,1.73,0,1,0-1.73-1.73A1.72,1.72,0,0,0,158.31,42.92Z"/><path class="cls-1" d="M165.48,44a1.73,1.73,0,1,0-1.72-1.72A1.72,1.72,0,0,0,165.48,44Z"/><path class="cls-1" d="M172.56,45.66a1.73,1.73,0,1,0-1.73-1.73A1.73,1.73,0,0,0,172.56,45.66Z"/><circle class="cls-1" cx="179.51" cy="46.03" r="1.73"/><path class="cls-1" d="M186.3,50.33a1.73,1.73,0,1,0-1.73-1.72A1.73,1.73,0,0,0,186.3,50.33Z"/><circle class="cls-1" cx="192.89" cy="51.64" r="1.73"/><path class="cls-1" d="M199.26,56.85a1.73,1.73,0,1,0-1.72-1.72A1.72,1.72,0,0,0,199.26,56.85Z"/><path class="cls-1" d="M205.38,60.77A1.73,1.73,0,1,0,203.65,59,1.72,1.72,0,0,0,205.38,60.77Z"/><path class="cls-1" d="M211.2,65.1a1.73,1.73,0,1,0-1.72-1.73A1.73,1.73,0,0,0,211.2,65.1Z"/><path class="cls-1" d="M216.72,69.82A1.73,1.73,0,1,0,215,68.09,1.74,1.74,0,0,0,216.72,69.82Z"/><path class="cls-1" d="M221.9,74.9a1.73,1.73,0,1,0-1.73-1.72A1.73,1.73,0,0,0,221.9,74.9Z"/><path class="cls-1" d="M226.71,80.34A1.73,1.73,0,1,0,225,78.61,1.72,1.72,0,0,0,226.71,80.34Z"/><path class="cls-1" d="M231.14,86.09a1.73,1.73,0,1,0-1.73-1.73A1.73,1.73,0,0,0,231.14,86.09Z"/><path class="cls-1" d="M235.16,92.14a1.73,1.73,0,1,0-1.73-1.73A1.74,1.74,0,0,0,235.16,92.14Z"/><path class="cls-1" d="M238.75,98.47A1.75,1.75,0,1,0,237,96.72,1.75,1.75,0,0,0,238.75,98.47Z"/><path class="cls-1" d="M241.9,105a1.75,1.75,0,1,0-1.75-1.75A1.75,1.75,0,0,0,241.9,105Z"/><path class="cls-1" d="M244.6,111.75a1.75,1.75,0,1,0-1.75-1.75A1.75,1.75,0,0,0,244.6,111.75Z"/><path class="cls-1" d="M246.81,118.66a1.75,1.75,0,1,0-1.74-1.75A1.75,1.75,0,0,0,246.81,118.66Z"/><path class="cls-1" d="M248.55,125.71A1.75,1.75,0,1,0,246.8,124,1.75,1.75,0,0,0,248.55,125.71Z"/><path class="cls-1" d="M249.8,132.86a1.75,1.75,0,1,0-1.75-1.75A1.75,1.75,0,0,0,249.8,132.86Z"/><path class="cls-1" d="M250.55,140.08a1.75,1.75,0,1,0-1.75-1.75A1.75,1.75,0,0,0,250.55,140.08Z"/><path class="cls-1" d="M258.89,147a1.39,1.39,0,1,0-1.39-1.39A1.39,1.39,0,0,0,258.89,147Z"/><path class="cls-1" d="M258.66,154.24a1.39,1.39,0,1,0-1.39-1.39A1.39,1.39,0,0,0,258.66,154.24Z"/><path class="cls-1" d="M258,161.46a1.39,1.39,0,1,0-1.39-1.39A1.39,1.39,0,0,0,258,161.46Z"/><path class="cls-1" d="M256.8,168.63a1.39,1.39,0,1,0-1.39-1.39A1.39,1.39,0,0,0,256.8,168.63Z"/><path class="cls-1" d="M255.19,175.71a1.39,1.39,0,1,0-1.39-1.39A1.39,1.39,0,0,0,255.19,175.71Z"/><path class="cls-1" d="M253.12,182.67a1.39,1.39,0,1,0-1.39-1.39A1.39,1.39,0,0,0,253.12,182.67Z"/><path class="cls-1" d="M250.61,189.48a1.39,1.39,0,1,0-1.39-1.39A1.39,1.39,0,0,0,250.61,189.48Z"/><path class="cls-1" d="M247.67,196.12a1.39,1.39,0,1,0-1.39-1.39A1.39,1.39,0,0,0,247.67,196.12Z"/><path class="cls-1" d="M244.32,202.56a1.39,1.39,0,1,0-1.39-1.39A1.4,1.4,0,0,0,244.32,202.56Z"/><path class="cls-1" d="M240.55,208.77a1.4,1.4,0,1,0-1.39-1.4A1.4,1.4,0,0,0,240.55,208.77Z"/><path class="cls-1" d="M236.4,214.72a1.39,1.39,0,1,0-1.39-1.39A1.39,1.39,0,0,0,236.4,214.72Z"/><path class="cls-1" d="M231.87,220.4a1.4,1.4,0,1,0-1.39-1.39A1.39,1.39,0,0,0,231.87,220.4Z"/><path class="cls-1" d="M227,225.77a1.39,1.39,0,1,0-1.39-1.39A1.39,1.39,0,0,0,227,225.77Z"/><circle class="cls-1" cx="221.78" cy="229.43" r="1.39"/><path class="cls-1" d="M216.25,235.53a1.39,1.39,0,1,0-1.39-1.39A1.39,1.39,0,0,0,216.25,235.53Z"/><path class="cls-1" d="M210.43,239.87a1.39,1.39,0,1,0-1.39-1.39A1.39,1.39,0,0,0,210.43,239.87Z"/><path class="cls-1" d="M204.35,243.83a1.39,1.39,0,1,0-1.4-1.39A1.39,1.39,0,0,0,204.35,243.83Z"/><circle class="cls-1" cx="198.02" cy="246" r="1.39"/><path class="cls-1" d="M191.48,250.54a1.39,1.39,0,1,0-1.39-1.39A1.39,1.39,0,0,0,191.48,250.54Z"/><path class="cls-1" d="M184.75,253.27a1.39,1.39,0,1,0-1.39-1.39A1.39,1.39,0,0,0,184.75,253.27Z"/><path class="cls-1" d="M177.86,255.55a1.39,1.39,0,1,0-1.39-1.39A1.39,1.39,0,0,0,177.86,255.55Z"/><path class="cls-1" d="M170.84,257.4a1.4,1.4,0,1,0-1.39-1.39A1.4,1.4,0,0,0,170.84,257.4Z"/><path class="cls-1" d="M163.71,258.78a1.39,1.39,0,1,0-1.39-1.39A1.39,1.39,0,0,0,163.71,258.78Z"/><path class="cls-1" d="M156.51,259.71a1.39,1.39,0,1,0-1.39-1.39A1.39,1.39,0,0,0,156.51,259.71Z"/><path class="cls-1" d="M149.27,260.18a1.39,1.39,0,1,0-1.4-1.39A1.4,1.4,0,0,0,149.27,260.18Z"/><path class="cls-1" d="M142,260.18a1.39,1.39,0,1,0-1.4-1.39A1.4,1.4,0,0,0,142,260.18Z"/><circle class="cls-1" cx="134.76" cy="258.32" r="1.39"/><path class="cls-1" d="M127.56,258.78a1.39,1.39,0,1,0-1.39-1.39A1.39,1.39,0,0,0,127.56,258.78Z"/><path class="cls-1" d="M120.43,257.4A1.4,1.4,0,1,0,119,256,1.39,1.39,0,0,0,120.43,257.4Z"/><path class="cls-1" d="M113.41,255.55a1.39,1.39,0,1,0-1.39-1.39A1.39,1.39,0,0,0,113.41,255.55Z"/><path class="cls-1" d="M106.52,253.27a1.39,1.39,0,1,0-1.39-1.39A1.39,1.39,0,0,0,106.52,253.27Z"/><path class="cls-1" d="M99.79,250.54a1.39,1.39,0,1,0-1.39-1.39A1.39,1.39,0,0,0,99.79,250.54Z"/><circle class="cls-1" cx="93.25" cy="246" r="1.39"/><path class="cls-1" d="M86.93,243.83a1.39,1.39,0,1,0-1.4-1.39A1.39,1.39,0,0,0,86.93,243.83Z"/><path class="cls-1" d="M80.84,239.87a1.39,1.39,0,1,0-1.39-1.39A1.39,1.39,0,0,0,80.84,239.87Z"/><path class="cls-1" d="M75,235.53a1.39,1.39,0,1,0-1.39-1.39A1.39,1.39,0,0,0,75,235.53Z"/><circle class="cls-1" cx="69.49" cy="229.43" r="1.39"/><path class="cls-1" d="M64.28,225.75a1.37,1.37,0,1,0-1.37-1.37A1.37,1.37,0,0,0,64.28,225.75Z"/><circle class="cls-1" cx="59.4" cy="219.01" r="1.39"/><path class="cls-1" d="M54.87,214.7a1.37,1.37,0,1,0-1.37-1.37A1.37,1.37,0,0,0,54.87,214.7Z"/><path class="cls-1" d="M50.72,208.74a1.37,1.37,0,1,0-1.37-1.37A1.37,1.37,0,0,0,50.72,208.74Z"/><path class="cls-1" d="M47,202.53a1.37,1.37,0,1,0-1.36-1.36A1.36,1.36,0,0,0,47,202.53Z"/><path class="cls-1" d="M43.6,196.1a1.37,1.37,0,1,0-1.37-1.37A1.36,1.36,0,0,0,43.6,196.1Z"/><path class="cls-1" d="M40.66,189.46a1.37,1.37,0,1,0-1.37-1.37A1.37,1.37,0,0,0,40.66,189.46Z"/><path class="cls-1" d="M38.15,182.65a1.37,1.37,0,1,0-1.37-1.37A1.37,1.37,0,0,0,38.15,182.65Z"/><path class="cls-1" d="M36.08,175.69a1.37,1.37,0,1,0-1.36-1.37A1.37,1.37,0,0,0,36.08,175.69Z"/><path class="cls-1" d="M34.47,168.61a1.37,1.37,0,1,0-1.37-1.37A1.37,1.37,0,0,0,34.47,168.61Z"/><path class="cls-1" d="M33.31,161.44a1.37,1.37,0,1,0-1.37-1.37A1.37,1.37,0,0,0,33.31,161.44Z"/><path class="cls-1" d="M32.61,154.21a1.37,1.37,0,1,0-1.36-1.36A1.36,1.36,0,0,0,32.61,154.21Z"/><path class="cls-1" d="M32.38,147A1.37,1.37,0,1,0,31,145.59,1.37,1.37,0,0,0,32.38,147Z"/><path class="cls-1" d="M32.61,139.7a1.37,1.37,0,1,0-1.36-1.37A1.37,1.37,0,0,0,32.61,139.7Z"/><path class="cls-1" d="M33.31,132.48a1.37,1.37,0,1,0-1.37-1.37A1.37,1.37,0,0,0,33.31,132.48Z"/><path class="cls-1" d="M34.47,125.31a1.37,1.37,0,1,0-1.37-1.37A1.37,1.37,0,0,0,34.47,125.31Z"/><path class="cls-1" d="M36.08,118.23a1.37,1.37,0,1,0-1.36-1.37A1.37,1.37,0,0,0,36.08,118.23Z"/><path class="cls-1" d="M38.15,111.27a1.37,1.37,0,1,0-1.37-1.37A1.37,1.37,0,0,0,38.15,111.27Z"/><path class="cls-1" d="M40.66,104.46a1.37,1.37,0,1,0-1.37-1.37A1.37,1.37,0,0,0,40.66,104.46Z"/><path class="cls-1" d="M43.6,97.82a1.37,1.37,0,1,0-1.37-1.37A1.36,1.36,0,0,0,43.6,97.82Z"/><path class="cls-1" d="M47,91.38A1.37,1.37,0,1,0,45.59,90,1.37,1.37,0,0,0,47,91.38Z"/><path class="cls-1" d="M50.72,85.17a1.37,1.37,0,1,0-1.37-1.36A1.37,1.37,0,0,0,50.72,85.17Z"/><path class="cls-1" d="M54.87,79.22a1.37,1.37,0,1,0-1.37-1.37A1.37,1.37,0,0,0,54.87,79.22Z"/><path class="cls-1" d="M59.4,73.54A1.37,1.37,0,1,0,58,72.18,1.37,1.37,0,0,0,59.4,73.54Z"/><path class="cls-1" d="M64.28,68.17a1.37,1.37,0,1,0-1.37-1.37A1.37,1.37,0,0,0,64.28,68.17Z"/><path class="cls-1" d="M69.49,63.12a1.37,1.37,0,1,0-1.36-1.37A1.37,1.37,0,0,0,69.49,63.12Z"/><path class="cls-1" d="M75,58.41A1.37,1.37,0,1,0,73.65,57,1.37,1.37,0,0,0,75,58.41Z"/><path class="cls-1" d="M80.84,54.07a1.37,1.37,0,1,0-1.37-1.37A1.37,1.37,0,0,0,80.84,54.07Z"/><path class="cls-1" d="M86.93,50.11a1.37,1.37,0,1,0-1.37-1.37A1.36,1.36,0,0,0,86.93,50.11Z"/><path class="cls-1" d="M93.25,46.55a1.37,1.37,0,1,0-1.37-1.37A1.37,1.37,0,0,0,93.25,46.55Z"/><path class="cls-1" d="M99.79,43.4A1.37,1.37,0,1,0,98.42,42,1.37,1.37,0,0,0,99.79,43.4Z"/><path class="cls-1" d="M106.52,40.67a1.37,1.37,0,1,0-1.37-1.37A1.37,1.37,0,0,0,106.52,40.67Z"/><path class="cls-1" d="M113.41,38.39A1.37,1.37,0,1,0,112,37,1.37,1.37,0,0,0,113.41,38.39Z"/><path class="cls-1" d="M120.43,36.54a1.37,1.37,0,1,0-1.36-1.36A1.36,1.36,0,0,0,120.43,36.54Z"/><path class="cls-1" d="M127.56,35.16a1.37,1.37,0,1,0-1.37-1.37A1.37,1.37,0,0,0,127.56,35.16Z"/><path class="cls-1" d="M134.76,34.23a1.37,1.37,0,1,0-1.37-1.37A1.37,1.37,0,0,0,134.76,34.23Z"/><path class="cls-1" d="M142,33.76a1.37,1.37,0,1,0-1.37-1.37A1.36,1.36,0,0,0,142,33.76Z"/><path class="cls-1" d="M149.27,33.76a1.37,1.37,0,1,0-1.37-1.37A1.36,1.36,0,0,0,149.27,33.76Z"/><path class="cls-1" d="M156.51,34.23a1.37,1.37,0,1,0-1.37-1.37A1.37,1.37,0,0,0,156.51,34.23Z"/><path class="cls-1" d="M163.71,35.16a1.37,1.37,0,1,0-1.37-1.37A1.37,1.37,0,0,0,163.71,35.16Z"/><path class="cls-1" d="M170.84,36.54a1.37,1.37,0,1,0-1.37-1.36A1.37,1.37,0,0,0,170.84,36.54Z"/><path class="cls-1" d="M177.86,38.39A1.37,1.37,0,1,0,176.49,37,1.37,1.37,0,0,0,177.86,38.39Z"/><path class="cls-1" d="M184.75,40.67a1.37,1.37,0,1,0-1.37-1.37A1.37,1.37,0,0,0,184.75,40.67Z"/><path class="cls-1" d="M191.48,43.4A1.37,1.37,0,1,0,190.11,42,1.38,1.38,0,0,0,191.48,43.4Z"/><path class="cls-1" d="M198,46.55a1.37,1.37,0,1,0-1.37-1.37A1.37,1.37,0,0,0,198,46.55Z"/><path class="cls-1" d="M204.35,50.11A1.37,1.37,0,1,0,203,48.74,1.36,1.36,0,0,0,204.35,50.11Z"/><path class="cls-1" d="M210.43,54.07a1.37,1.37,0,1,0-1.37-1.37A1.37,1.37,0,0,0,210.43,54.07Z"/><path class="cls-1" d="M216.25,58.41A1.37,1.37,0,1,0,214.88,57,1.37,1.37,0,0,0,216.25,58.41Z"/><path class="cls-1" d="M221.78,63.12a1.37,1.37,0,1,0-1.37-1.37A1.36,1.36,0,0,0,221.78,63.12Z"/><path class="cls-1" d="M227,68.19a1.39,1.39,0,1,0-1.39-1.39A1.39,1.39,0,0,0,227,68.19Z"/><path class="cls-1" d="M231.87,73.57a1.4,1.4,0,1,0-1.39-1.39A1.39,1.39,0,0,0,231.87,73.57Z"/><circle class="cls-1" cx="236.4" cy="77.85" r="1.39"/><path class="cls-1" d="M240.55,85.2a1.39,1.39,0,1,0-1.39-1.39A1.39,1.39,0,0,0,240.55,85.2Z"/><circle class="cls-1" cx="244.32" cy="90.01" r="1.39"/><path class="cls-1" d="M247.67,97.84a1.39,1.39,0,1,0-1.39-1.39A1.39,1.39,0,0,0,247.67,97.84Z"/><path class="cls-1" d="M250.61,104.48a1.39,1.39,0,1,0-1.39-1.39A1.39,1.39,0,0,0,250.61,104.48Z"/><path class="cls-1" d="M253.12,111.29a1.39,1.39,0,1,0-1.39-1.39A1.39,1.39,0,0,0,253.12,111.29Z"/><path class="cls-1" d="M255.19,118.25a1.39,1.39,0,1,0-1.39-1.39A1.39,1.39,0,0,0,255.19,118.25Z"/><path class="cls-1" d="M256.8,125.33a1.39,1.39,0,1,0-1.39-1.39A1.39,1.39,0,0,0,256.8,125.33Z"/><path class="cls-1" d="M258,132.5a1.39,1.39,0,1,0-1.39-1.39A1.39,1.39,0,0,0,258,132.5Z"/><path class="cls-1" d="M258.66,139.72a1.39,1.39,0,1,0-1.39-1.39A1.39,1.39,0,0,0,258.66,139.72Z"/><path class="cls-1" d="M267,146.64a1.05,1.05,0,1,0-1.05-1A1,1,0,0,0,267,146.64Z"/><circle class="cls-1" cx="266.76" cy="152.85" r="1.03"/><circle class="cls-1" cx="266.11" cy="160.08" r="1.05"/><path class="cls-1" d="M265,168.29a1,1,0,1,0-1-1A1,1,0,0,0,265,168.29Z"/><path class="cls-1" d="M263.52,175.41a1.06,1.06,0,1,0-1-1A1,1,0,0,0,263.52,175.41Z"/><circle class="cls-1" cx="261.59" cy="181.36" r="1.05"/><path class="cls-1" d="M259.24,189.28a1.06,1.06,0,1,0-1.05-1.05A1.06,1.06,0,0,0,259.24,189.28Z"/><path class="cls-1" d="M256.49,196a1.06,1.06,0,0,0,0-2.11,1.06,1.06,0,1,0,0,2.11Z"/><path class="cls-1" d="M253.34,202.54a1.06,1.06,0,0,0,0-2.11,1.06,1.06,0,1,0,0,2.11Z"/><path class="cls-1" d="M249.8,208.88a1.06,1.06,0,1,0-1.05-1A1.05,1.05,0,0,0,249.8,208.88Z"/><path class="cls-1" d="M245.89,215a1.06,1.06,0,1,0-1-1.05A1.05,1.05,0,0,0,245.89,215Z"/><path class="cls-1" d="M241.63,220.87a1.05,1.05,0,1,0-1.06-1.05A1,1,0,0,0,241.63,220.87Z"/><path class="cls-1" d="M237,226.48a1.06,1.06,0,0,0,0-2.11,1.06,1.06,0,1,0,0,2.11Z"/><path class="cls-1" d="M232.08,231.8a1.05,1.05,0,1,0-1.06-1.05A1,1,0,0,0,232.08,231.8Z"/><circle class="cls-1" cx="226.83" cy="235.77" r="1.05"/><path class="cls-1" d="M221.29,241.52a1.06,1.06,0,1,0,0-2.11,1.06,1.06,0,0,0,0,2.11Z"/><circle class="cls-1" cx="215.48" cy="244.82" r="1.05"/><circle class="cls-1" cx="209.42" cy="248.82" r="1.05"/><path class="cls-1" d="M203.14,253.5a1.06,1.06,0,1,0-1.06-1.05A1,1,0,0,0,203.14,253.5Z"/><path class="cls-1" d="M196.64,256.75a1.06,1.06,0,1,0-1-1.06A1.05,1.05,0,0,0,196.64,256.75Z"/><path class="cls-1" d="M190,259.6a1.06,1.06,0,1,0-1.06-1.05A1,1,0,0,0,190,259.6Z"/><path class="cls-1" d="M183.13,262.05a1.06,1.06,0,1,0-1-1.05A1.05,1.05,0,0,0,183.13,262.05Z"/><path class="cls-1" d="M176.16,264.09a1.06,1.06,0,1,0,0-2.11,1.06,1.06,0,0,0,0,2.11Z"/><path class="cls-1" d="M169.09,265.68a1,1,0,1,0-1-1A1,1,0,0,0,169.09,265.68Z"/><path class="cls-1" d="M161.92,266.87a1,1,0,1,0-1-1A1,1,0,0,0,161.92,266.87Z"/><path class="cls-1" d="M154.7,267.63a1,1,0,1,0-1-1A1,1,0,0,0,154.7,267.63Z"/><path class="cls-1" d="M147.45,268a1.06,1.06,0,1,0-1-1.06A1.06,1.06,0,0,0,147.45,268Z"/><path class="cls-1" d="M140.19,267.84a1,1,0,1,0-1-1A1,1,0,0,0,140.19,267.84Z"/><path class="cls-1" d="M133,267.3a1,1,0,1,0-1-1A1,1,0,0,0,133,267.3Z"/><path class="cls-1" d="M125.76,266.33a1,1,0,1,0-1-1A1,1,0,0,0,125.76,266.33Z"/><path class="cls-1" d="M118.63,264.92a1,1,0,1,0-1-1A1,1,0,0,0,118.63,264.92Z"/><path class="cls-1" d="M111.61,263.1a1,1,0,1,0-1-1A1,1,0,0,0,111.61,263.1Z"/><circle class="cls-1" cx="104.7" cy="259.82" r="1.03"/><path class="cls-1" d="M97.94,258.2a1,1,0,1,0-1-1A1,1,0,0,0,97.94,258.2Z"/><circle class="cls-1" cx="91.36" cy="254.12" r="1.03"/><path class="cls-1" d="M85,251.71a1,1,0,1,0-1-1A1,1,0,0,0,85,251.71Z"/><circle class="cls-1" cx="78.79" cy="246.86" r="1.03"/><path class="cls-1" d="M72.85,243.71a1,1,0,1,0-1-1A1,1,0,0,0,72.85,243.71Z"/><path class="cls-1" d="M67.17,239.19a1,1,0,1,0-1-1A1,1,0,0,0,67.17,239.19Z"/><path class="cls-1" d="M61.78,234.33a1,1,0,1,0-1-1A1,1,0,0,0,61.78,234.33Z"/><path class="cls-1" d="M56.68,229.16a1,1,0,1,0-1-1A1,1,0,0,0,56.68,229.16Z"/><path class="cls-1" d="M51.91,223.67a1,1,0,1,0-1-1A1,1,0,0,0,51.91,223.67Z"/><circle class="cls-1" cx="47.47" cy="216.91" r="1.03"/><circle class="cls-1" cx="43.38" cy="210.92" r="1.03"/><circle class="cls-1" cx="39.65" cy="204.68" r="1.03"/><path class="cls-1" d="M36.31,199.25a1,1,0,1,0-1-1A1,1,0,0,0,36.31,199.25Z"/><path class="cls-1" d="M33.36,192.62a1,1,0,1,0-1-1A1,1,0,0,0,33.36,192.62Z"/><circle class="cls-1" cx="30.8" cy="184.81" r="1.01"/><path class="cls-1" d="M28.66,178.88a1,1,0,1,0-1-1A1,1,0,0,0,28.66,178.88Z"/><circle class="cls-1" cx="26.94" cy="170.82" r="1.01"/><path class="cls-1" d="M25.65,164.69a1,1,0,1,0,0-2,1,1,0,0,0,0,2Z"/><path class="cls-1" d="M24.78,157.48a1,1,0,1,0-1-1A1,1,0,0,0,24.78,157.48Z"/><circle class="cls-1" cx="24.35" cy="149.22" r="1.01"/><path class="cls-1" d="M24.35,143a1,1,0,1,0-1-1A1,1,0,0,0,24.35,143Z"/><path class="cls-1" d="M24.78,135.72a1,1,0,1,0-1-1A1,1,0,0,0,24.78,135.72Z"/><circle class="cls-1" cx="25.65" cy="127.5" r="1.01"/><path class="cls-1" d="M26.94,121.37a1,1,0,1,0-1-1A1,1,0,0,0,26.94,121.37Z"/><path class="cls-1" d="M28.66,114.32a1,1,0,1,0-1-1A1,1,0,0,0,28.66,114.32Z"/><path class="cls-1" d="M30.8,107.38a1,1,0,1,0-1-1A1,1,0,0,0,30.8,107.38Z"/><circle class="cls-1" cx="33.36" cy="99.57" r="1.01"/><path class="cls-1" d="M36.31,94a1,1,0,1,0-1-1A1,1,0,0,0,36.31,94Z"/><circle class="cls-1" cx="39.65" cy="86.5" r="1.01"/><path class="cls-1" d="M43.38,81.27a1,1,0,1,0-1-1A1,1,0,0,0,43.38,81.27Z"/><path class="cls-1" d="M47.47,75.28a1,1,0,0,0,0-2,1,1,0,1,0,0,2Z"/><path class="cls-1" d="M51.91,69.53a1,1,0,1,0-1-1A1,1,0,0,0,51.91,69.53Z"/><path class="cls-1" d="M56.68,64.06a1,1,0,1,0-1-1A1,1,0,0,0,56.68,64.06Z"/><path class="cls-1" d="M61.78,58.89a1,1,0,1,0-1-1A1,1,0,0,0,61.78,58.89Z"/><path class="cls-1" d="M67.17,54a1,1,0,1,0-1-1A1,1,0,0,0,67.17,54Z"/><path class="cls-1" d="M72.85,49.51a1,1,0,1,0-1-1A1,1,0,0,0,72.85,49.51Z"/><path class="cls-1" d="M78.79,45.33a1,1,0,1,0-1-1A1,1,0,0,0,78.79,45.33Z"/><path class="cls-1" d="M85,41.51a1,1,0,0,0,0-2,1,1,0,1,0,0,2Z"/><path class="cls-1" d="M91.36,38.07a1,1,0,1,0-1-1A1,1,0,0,0,91.36,38.07Z"/><path class="cls-1" d="M97.94,35a1,1,0,1,0-1-1A1,1,0,0,0,97.94,35Z"/><path class="cls-1" d="M104.7,32.37a1,1,0,1,0-1-1A1,1,0,0,0,104.7,32.37Z"/><circle class="cls-1" cx="111.61" cy="29.11" r="1.01"/><path class="cls-1" d="M118.63,28.3a1,1,0,1,0-1-1A1,1,0,0,0,118.63,28.3Z"/><path class="cls-1" d="M125.76,26.89a1,1,0,1,0-1-1A1,1,0,0,0,125.76,26.89Z"/><path class="cls-1" d="M133,25.92a1,1,0,1,0-1-1A1,1,0,0,0,133,25.92Z"/><path class="cls-1" d="M140.19,25.38a1,1,0,1,0-1-1A1,1,0,0,0,140.19,25.38Z"/><path class="cls-1" d="M147.45,25.27a1,1,0,1,0-1-1A1,1,0,0,0,147.45,25.27Z"/><path class="cls-1" d="M154.7,25.59a1,1,0,1,0-1-1A1,1,0,0,0,154.7,25.59Z"/><path class="cls-1" d="M161.92,26.35a1,1,0,0,0,0-2,1,1,0,1,0,0,2Z"/><path class="cls-1" d="M169.09,27.54a1,1,0,1,0-1-1A1,1,0,0,0,169.09,27.54Z"/><path class="cls-1" d="M176.16,29.16a1,1,0,1,0-1-1A1,1,0,0,0,176.16,29.16Z"/><path class="cls-1" d="M183.13,31.19a1,1,0,1,0-1-1A1,1,0,0,0,183.13,31.19Z"/><path class="cls-1" d="M190,33.64a1,1,0,1,0-1-1A1,1,0,0,0,190,33.64Z"/><path class="cls-1" d="M196.64,36.5a1,1,0,1,0-1-1A1,1,0,0,0,196.64,36.5Z"/><circle class="cls-1" cx="203.14" cy="38.74" r="1.03"/><circle class="cls-1" cx="209.42" cy="42.37" r="1.03"/><circle class="cls-1" cx="215.48" cy="46.36" r="1.03"/><path class="cls-1" d="M221.29,51.75a1,1,0,1,0-1-1A1,1,0,0,0,221.29,51.75Z"/><circle class="cls-1" cx="226.83" cy="55.41" r="1.03"/><circle class="cls-1" cx="232.08" cy="60.43" r="1.03"/><path class="cls-1" d="M237,66.79a1,1,0,1,0-1-1A1,1,0,0,0,237,66.79Z"/><path class="cls-1" d="M241.63,72.39a1,1,0,1,0-1-1A1,1,0,0,0,241.63,72.39Z"/><path class="cls-1" d="M245.89,78.27a1,1,0,1,0,0-2.07,1,1,0,0,0,0,2.07Z"/><circle class="cls-1" cx="249.8" cy="83.35" r="1.03"/><path class="cls-1" d="M253.34,90.73a1,1,0,1,0-1-1A1,1,0,0,0,253.34,90.73Z"/><path class="cls-1" d="M256.49,97.27a1,1,0,1,0-1-1A1,1,0,0,0,256.49,97.27Z"/><path class="cls-1" d="M259.24,104a1,1,0,1,0-1-1A1,1,0,0,0,259.24,104Z"/><circle class="cls-1" cx="261.59" cy="109.82" r="1.03"/><path class="cls-1" d="M263.52,117.85a1,1,0,1,0-1-1A1,1,0,0,0,263.52,117.85Z"/><path class="cls-1" d="M265,125a1,1,0,1,0-1-1A1,1,0,0,0,265,125Z"/><circle class="cls-1" cx="266.11" cy="131.1" r="1.03"/><circle class="cls-1" cx="266.76" cy="138.33" r="1.03"/><path class="cls-1" d="M275.07,146.29a.7.7,0,1,0-.7-.7A.7.7,0,0,0,275.07,146.29Z"/><path class="cls-1" d="M274.87,153.54a.7.7,0,1,0-.7-.69A.69.69,0,0,0,274.87,153.54Z"/><path class="cls-1" d="M274.26,160.78a.7.7,0,1,0-.7-.7A.69.69,0,0,0,274.26,160.78Z"/><path class="cls-1" d="M273.24,168a.7.7,0,1,0,0-1.39.7.7,0,0,0,0,1.39Z"/><circle class="cls-1" cx="271.82" cy="174.39" r="0.7"/><circle class="cls-1" cx="270.01" cy="181.42" r="0.7"/><path class="cls-1" d="M267.81,189a.69.69,0,0,0,.69-.69.7.7,0,1,0-.69.69Z"/><path class="cls-1" d="M265.22,195.82a.7.7,0,1,0-.7-.7A.69.69,0,0,0,265.22,195.82Z"/><path class="cls-1" d="M262.25,202.44a.69.69,0,0,0,.7-.69.7.7,0,1,0-1.39,0A.69.69,0,0,0,262.25,202.44Z"/><path class="cls-1" d="M258.92,208.9a.7.7,0,1,0-.7-.7A.7.7,0,0,0,258.92,208.9Z"/><path class="cls-1" d="M255.23,215.15a.7.7,0,1,0-.7-.7A.7.7,0,0,0,255.23,215.15Z"/><path class="cls-1" d="M251.2,221.19a.7.7,0,1,0-.7-.7A.7.7,0,0,0,251.2,221.19Z"/><path class="cls-1" d="M246.83,227a.71.71,0,0,0,.7-.7.7.7,0,0,0-.7-.69.69.69,0,0,0-.69.69A.7.7,0,0,0,246.83,227Z"/><path class="cls-1" d="M242.15,232.53a.7.7,0,1,0-.7-.69A.69.69,0,0,0,242.15,232.53Z"/><path class="cls-1" d="M237.16,237.81a.7.7,0,1,0-.7-.7A.69.69,0,0,0,237.16,237.81Z"/><path class="cls-1" d="M231.88,242.8a.7.7,0,1,0-.69-.7A.7.7,0,0,0,231.88,242.8Z"/><path class="cls-1" d="M226.34,247.48a.7.7,0,1,0-.7-.69A.69.69,0,0,0,226.34,247.48Z"/><path class="cls-1" d="M220.53,251.85a.7.7,0,1,0-.69-.7A.7.7,0,0,0,220.53,251.85Z"/><circle class="cls-1" cx="214.5" cy="255.18" r="0.7"/><path class="cls-1" d="M208.25,259.57a.7.7,0,1,0-.7-.7A.69.69,0,0,0,208.25,259.57Z"/><path class="cls-1" d="M201.79,262.9a.7.7,0,1,0-.69-.69A.69.69,0,0,0,201.79,262.9Z"/><path class="cls-1" d="M195.17,265.87a.7.7,0,1,0-.7-.7A.69.69,0,0,0,195.17,265.87Z"/><path class="cls-1" d="M188.38,268.46a.7.7,0,0,0,.7-.7.7.7,0,1,0-.7.7Z"/><path class="cls-1" d="M181.47,270.66a.7.7,0,1,0-.7-.69A.69.69,0,0,0,181.47,270.66Z"/><path class="cls-1" d="M174.44,272.47a.7.7,0,1,0-.7-.69A.69.69,0,0,0,174.44,272.47Z"/><path class="cls-1" d="M167.32,273.89a.7.7,0,1,0-.7-.69A.69.69,0,0,0,167.32,273.89Z"/><path class="cls-1" d="M160.13,274.91a.7.7,0,1,0-.7-.7A.7.7,0,0,0,160.13,274.91Z"/><path class="cls-1" d="M152.89,275.52a.7.7,0,0,0,.7-.7.7.7,0,1,0-.7.7Z"/><path class="cls-1" d="M145.64,275.72a.7.7,0,1,0-.7-.7A.69.69,0,0,0,145.64,275.72Z"/><path class="cls-1" d="M138.38,275.52a.7.7,0,0,0,.69-.7.7.7,0,0,0-1.39,0A.7.7,0,0,0,138.38,275.52Z"/><circle class="cls-1" cx="131.14" cy="274.21" r="0.7"/><path class="cls-1" d="M124,273.87a.68.68,0,1,0-.67-.67A.67.67,0,0,0,124,273.87Z"/><path class="cls-1" d="M116.83,272.47a.7.7,0,1,0-.69-.69A.69.69,0,0,0,116.83,272.47Z"/><circle class="cls-1" cx="109.8" cy="269.97" r="0.67"/><path class="cls-1" d="M102.89,268.43a.67.67,0,1,0-.68-.67A.67.67,0,0,0,102.89,268.43Z"/><path class="cls-1" d="M96.1,265.84a.67.67,0,1,0,0-1.34.67.67,0,1,0,0,1.34Z"/><path class="cls-1" d="M89.48,262.88a.68.68,0,1,0-.68-.67A.67.67,0,0,0,89.48,262.88Z"/><path class="cls-1" d="M83,259.55a.68.68,0,1,0-.68-.68A.67.67,0,0,0,83,259.55Z"/><circle class="cls-1" cx="76.77" cy="255.18" r="0.67"/><circle class="cls-1" cx="70.74" cy="251.15" r="0.67"/><path class="cls-1" d="M64.93,247.46a.68.68,0,1,0-.67-.67A.67.67,0,0,0,64.93,247.46Z"/><circle class="cls-1" cx="59.39" cy="242.1" r="0.67"/><path class="cls-1" d="M54.11,237.79a.68.68,0,1,0-.67-.68A.67.67,0,0,0,54.11,237.79Z"/><path class="cls-1" d="M49.12,232.51a.67.67,0,1,0-.67-.67A.67.67,0,0,0,49.12,232.51Z"/><path class="cls-1" d="M44.44,227a.67.67,0,1,0-.67-.67A.67.67,0,0,0,44.44,227Z"/><path class="cls-1" d="M40.07,221.16a.67.67,0,1,0-.67-.67A.67.67,0,0,0,40.07,221.16Z"/><path class="cls-1" d="M36,215.13a.68.68,0,0,0,.67-.68.67.67,0,0,0-1.34,0A.68.68,0,0,0,36,215.13Z"/><path class="cls-1" d="M32.35,208.87a.67.67,0,1,0-.67-.67A.67.67,0,0,0,32.35,208.87Z"/><path class="cls-1" d="M29,202.42a.67.67,0,1,0-.67-.67A.67.67,0,0,0,29,202.42Z"/><path class="cls-1" d="M26.05,195.8a.68.68,0,0,0,.68-.68.68.68,0,1,0-.68.68Z"/><path class="cls-1" d="M23.47,189a.67.67,0,1,0-.68-.67A.67.67,0,0,0,23.47,189Z"/><path class="cls-1" d="M21.26,182.1a.68.68,0,0,0,.67-.68.67.67,0,1,0-1.34,0A.68.68,0,0,0,21.26,182.1Z"/><path class="cls-1" d="M19.45,175a.65.65,0,1,0-.65-.65A.65.65,0,0,0,19.45,175Z"/><circle class="cls-1" cx="18.03" cy="167.27" r="0.65"/><path class="cls-1" d="M17,160.73a.65.65,0,1,0-.66-.65A.66.66,0,0,0,17,160.73Z"/><path class="cls-1" d="M16.41,153.5a.65.65,0,1,0-.66-.65A.66.66,0,0,0,16.41,153.5Z"/><circle class="cls-1" cx="16.2" cy="145.59" r="0.65"/><path class="cls-1" d="M16.41,139a.65.65,0,1,0-.66-.65A.66.66,0,0,0,16.41,139Z"/><path class="cls-1" d="M17,131.75a.65.65,0,1,0-.66-.65A.66.66,0,0,0,17,131.75Z"/><circle class="cls-1" cx="18.03" cy="123.91" r="0.65"/><path class="cls-1" d="M19.45,117.44a.65.65,0,1,0-.65-.65A.65.65,0,0,0,19.45,117.44Z"/><path class="cls-1" d="M21.26,110.41a.65.65,0,1,0-.65-.65A.65.65,0,0,0,21.26,110.41Z"/><circle class="cls-1" cx="23.47" cy="102.84" r="0.65"/><circle class="cls-1" cx="26.05" cy="96.06" r="0.65"/><path class="cls-1" d="M29,90.08a.65.65,0,1,0-.65-.65A.65.65,0,0,0,29,90.08Z"/><path class="cls-1" d="M32.35,83.63A.65.65,0,1,0,31.7,83,.65.65,0,0,0,32.35,83.63Z"/><path class="cls-1" d="M36,77.38a.65.65,0,1,0-.65-.65A.65.65,0,0,0,36,77.38Z"/><path class="cls-1" d="M40.07,71.34a.65.65,0,1,0-.65-.65A.65.65,0,0,0,40.07,71.34Z"/><circle class="cls-1" cx="44.44" cy="64.89" r="0.65"/><circle class="cls-1" cx="49.12" cy="59.34" r="0.65"/><path class="cls-1" d="M54.11,54.72a.65.65,0,1,0-.65-.65A.65.65,0,0,0,54.11,54.72Z"/><circle class="cls-1" cx="59.39" cy="49.08" r="0.65"/><circle class="cls-1" cx="64.93" cy="44.39" r="0.65"/><circle class="cls-1" cx="70.74" cy="40.03" r="0.65"/><circle class="cls-1" cx="76.77" cy="36" r="0.65"/><circle class="cls-1" cx="83.03" cy="32.31" r="0.65"/><path class="cls-1" d="M89.48,29.63a.66.66,0,1,0-.65-.66A.66.66,0,0,0,89.48,29.63Z"/><circle class="cls-1" cx="96.1" cy="26.01" r="0.65"/><circle class="cls-1" cx="102.89" cy="23.42" r="0.65"/><path class="cls-1" d="M109.8,21.87a.66.66,0,1,0-.65-.65A.66.66,0,0,0,109.8,21.87Z"/><circle class="cls-1" cx="116.83" cy="19.4" r="0.65"/><path class="cls-1" d="M124,18.64a.66.66,0,0,0,0-1.31.66.66,0,0,0,0,1.31Z"/><circle class="cls-1" cx="131.14" cy="16.97" r="0.65"/><circle class="cls-1" cx="138.38" cy="16.36" r="0.65"/><circle class="cls-1" cx="145.64" cy="16.16" r="0.65"/><path class="cls-1" d="M152.89,17a.65.65,0,1,0-.65-.65A.65.65,0,0,0,152.89,17Z"/><path class="cls-1" d="M160.13,17.62a.65.65,0,1,0-.65-.65A.65.65,0,0,0,160.13,17.62Z"/><circle class="cls-1" cx="167.32" cy="17.99" r="0.65"/><circle class="cls-1" cx="174.44" cy="19.4" r="0.65"/><path class="cls-1" d="M181.47,21.89a.68.68,0,0,0,0-1.35.68.68,0,1,0,0,1.35Z"/><circle class="cls-1" cx="188.38" cy="23.42" r="0.67"/><circle class="cls-1" cx="195.17" cy="26.01" r="0.67"/><path class="cls-1" d="M201.79,29.65a.68.68,0,1,0-.67-.68A.67.67,0,0,0,201.79,29.65Z"/><path class="cls-1" d="M208.25,33a.67.67,0,0,0,.67-.67.68.68,0,1,0-.67.67Z"/><circle class="cls-1" cx="214.5" cy="36" r="0.67"/><circle class="cls-1" cx="220.53" cy="40.03" r="0.67"/><path class="cls-1" d="M226.34,45.07a.68.68,0,1,0-.68-.68A.67.67,0,0,0,226.34,45.07Z"/><circle class="cls-1" cx="231.88" cy="49.08" r="0.67"/><path class="cls-1" d="M237.16,54.74a.67.67,0,0,0,.67-.67.67.67,0,1,0-1.34,0A.67.67,0,0,0,237.16,54.74Z"/><path class="cls-1" d="M242.15,60a.68.68,0,0,0,.67-.68.68.68,0,0,0-1.35,0A.68.68,0,0,0,242.15,60Z"/><path class="cls-1" d="M246.83,65.56a.67.67,0,1,0-.67-.67A.67.67,0,0,0,246.83,65.56Z"/><path class="cls-1" d="M251.2,71.36a.67.67,0,1,0-.68-.67A.67.67,0,0,0,251.2,71.36Z"/><path class="cls-1" d="M255.23,77.4a.67.67,0,0,0,.67-.67.67.67,0,1,0-1.34,0A.67.67,0,0,0,255.23,77.4Z"/><circle class="cls-1" cx="258.92" cy="82.98" r="0.67"/><path class="cls-1" d="M262.25,90.1a.67.67,0,1,0-.67-.67A.67.67,0,0,0,262.25,90.1Z"/><circle class="cls-1" cx="265.22" cy="96.06" r="0.67"/><path class="cls-1" d="M267.81,103.51a.67.67,0,1,0-.68-.67A.67.67,0,0,0,267.81,103.51Z"/><path class="cls-1" d="M270,110.43a.67.67,0,1,0-.67-.67A.67.67,0,0,0,270,110.43Z"/><path class="cls-1" d="M271.82,117.48a.7.7,0,1,0-.69-.69A.69.69,0,0,0,271.82,117.48Z"/><path class="cls-1" d="M273.24,124.58a.67.67,0,1,0-.67-.67A.67.67,0,0,0,273.24,124.58Z"/><path class="cls-1" d="M274.26,131.79a.7.7,0,1,0-.7-.69A.69.69,0,0,0,274.26,131.79Z"/><path class="cls-1" d="M274.87,139a.7.7,0,1,0-.7-.7A.69.69,0,0,0,274.87,139Z"/><path class="cls-1" d="M283.16,145.93a.34.34,0,0,0,0-.68.34.34,0,0,0,0,.68Z"/><path class="cls-1" d="M283,153.18a.34.34,0,0,0,0-.67.34.34,0,1,0,0,.67Z"/><path class="cls-1" d="M282.39,160.42a.34.34,0,1,0-.33-.33A.34.34,0,0,0,282.39,160.42Z"/><path class="cls-1" d="M281.44,167.62a.34.34,0,1,0-.34-.34A.34.34,0,0,0,281.44,167.62Z"/><path class="cls-1" d="M280.1,174.76a.34.34,0,1,0-.33-.34A.34.34,0,0,0,280.1,174.76Z"/><path class="cls-1" d="M278.39,181.81a.34.34,0,1,0-.33-.33A.34.34,0,0,0,278.39,181.81Z"/><path class="cls-1" d="M276.32,188.77a.34.34,0,1,0-.34-.34A.34.34,0,0,0,276.32,188.77Z"/><path class="cls-1" d="M273.87,195.61a.34.34,0,1,0-.33-.34A.34.34,0,0,0,273.87,195.61Z"/><path class="cls-1" d="M271.07,202.3a.34.34,0,1,0,0-.67.34.34,0,1,0,0,.67Z"/><path class="cls-1" d="M267.92,208.85a.34.34,0,0,0,0-.68.34.34,0,0,0,0,.68Z"/><path class="cls-1" d="M264.43,215.21a.34.34,0,1,0-.34-.33A.34.34,0,0,0,264.43,215.21Z"/><path class="cls-1" d="M260.61,221.38a.34.34,0,0,0,0-.67.34.34,0,1,0,0,.67Z"/><path class="cls-1" d="M256.47,227.35a.34.34,0,0,0,.33-.34.34.34,0,1,0-.67,0A.34.34,0,0,0,256.47,227.35Z"/><path class="cls-1" d="M252,233.08a.34.34,0,1,0-.33-.33A.34.34,0,0,0,252,233.08Z"/><path class="cls-1" d="M247.27,238.58a.34.34,0,1,0-.34-.34A.34.34,0,0,0,247.27,238.58Z"/><path class="cls-1" d="M242.24,243.81a.34.34,0,1,0-.34-.34A.34.34,0,0,0,242.24,243.81Z"/><path class="cls-1" d="M236.93,248.77a.34.34,0,1,0-.33-.33A.34.34,0,0,0,236.93,248.77Z"/><path class="cls-1" d="M231.38,253.45a.34.34,0,1,0-.34-.34A.34.34,0,0,0,231.38,253.45Z"/><path class="cls-1" d="M225.59,257.82a.34.34,0,0,0,0-.67.34.34,0,1,0,0,.67Z"/><path class="cls-1" d="M219.57,261.89a.34.34,0,0,0,0-.68.34.34,0,0,0,0,.68Z"/><path class="cls-1" d="M213.35,265.63a.34.34,0,1,0-.34-.34A.34.34,0,0,0,213.35,265.63Z"/><path class="cls-1" d="M206.93,269a.34.34,0,1,0-.33-.33A.34.34,0,0,0,206.93,269Z"/><path class="cls-1" d="M200.35,272.1a.34.34,0,1,0-.33-.34A.34.34,0,0,0,200.35,272.1Z"/><path class="cls-1" d="M193.62,274.81a.34.34,0,1,0-.34-.34A.34.34,0,0,0,193.62,274.81Z"/><path class="cls-1" d="M186.75,277.16a.34.34,0,1,0,0-.67.34.34,0,1,0,0,.67Z"/><path class="cls-1" d="M179.77,279.15a.34.34,0,0,0,.33-.34.34.34,0,1,0-.67,0A.34.34,0,0,0,179.77,279.15Z"/><path class="cls-1" d="M172.69,280.76a.34.34,0,0,0,0-.67.34.34,0,1,0,0,.67Z"/><path class="cls-1" d="M165.53,282a.34.34,0,1,0-.33-.33A.34.34,0,0,0,165.53,282Z"/><path class="cls-1" d="M158.32,282.86a.34.34,0,1,0-.33-.33A.34.34,0,0,0,158.32,282.86Z"/><path class="cls-1" d="M151.08,283.34a.34.34,0,1,0-.34-.33A.34.34,0,0,0,151.08,283.34Z"/><path class="cls-1" d="M143.82,283.44a.34.34,0,1,0-.34-.34A.34.34,0,0,0,143.82,283.44Z"/><path class="cls-1" d="M136.57,283.15a.34.34,0,1,0-.34-.34A.34.34,0,0,0,136.57,283.15Z"/><path class="cls-1" d="M129.34,282.48a.34.34,0,1,0-.34-.34A.34.34,0,0,0,129.34,282.48Z"/><path class="cls-1" d="M122.15,281.43a.34.34,0,1,0,0-.67.34.34,0,0,0,0,.67Z"/><path class="cls-1" d="M115,280a.34.34,0,1,0-.33-.33A.34.34,0,0,0,115,280Z"/><path class="cls-1" d="M108,278.2a.34.34,0,1,0-.34-.34A.34.34,0,0,0,108,278.2Z"/><path class="cls-1" d="M101.07,276a.34.34,0,1,0,0-.67.34.34,0,0,0,0,.67Z"/><path class="cls-1" d="M94.27,273.5a.34.34,0,1,0-.34-.34A.34.34,0,0,0,94.27,273.5Z"/><path class="cls-1" d="M87.61,270.61a.34.34,0,0,0,.33-.34.34.34,0,1,0-.67,0A.34.34,0,0,0,87.61,270.61Z"/><path class="cls-1" d="M81.11,267.35a.32.32,0,0,0,0-.63.32.32,0,1,0,0,.63Z"/><path class="cls-1" d="M74.79,263.77a.31.31,0,1,0-.32-.31A.31.31,0,0,0,74.79,263.77Z"/><path class="cls-1" d="M68.67,259.87a.32.32,0,0,0,0-.63.32.32,0,1,0,0,.63Z"/><path class="cls-1" d="M62.76,255.65a.32.32,0,1,0-.31-.31A.31.31,0,0,0,62.76,255.65Z"/><path class="cls-1" d="M57.08,251.12a.31.31,0,1,0-.31-.31A.31.31,0,0,0,57.08,251.12Z"/><path class="cls-1" d="M51.65,246.3a.31.31,0,1,0-.31-.31A.31.31,0,0,0,51.65,246.3Z"/><path class="cls-1" d="M46.49,241.2a.31.31,0,1,0-.32-.31A.31.31,0,0,0,46.49,241.2Z"/><path class="cls-1" d="M41.59,235.84a.32.32,0,1,0,0-.63.32.32,0,0,0,0,.63Z"/><path class="cls-1" d="M37,230.22a.32.32,0,1,0-.31-.31A.31.31,0,0,0,37,230.22Z"/><path class="cls-1" d="M32.69,224.37a.32.32,0,1,0-.31-.31A.31.31,0,0,0,32.69,224.37Z"/><path class="cls-1" d="M28.71,218.3a.32.32,0,1,0-.31-.31A.31.31,0,0,0,28.71,218.3Z"/><path class="cls-1" d="M25.05,212a.32.32,0,1,0-.31-.31A.31.31,0,0,0,25.05,212Z"/><path class="cls-1" d="M21.73,205.57a.31.31,0,1,0,0-.62.31.31,0,1,0,0,.62Z"/><path class="cls-1" d="M18.75,199a.32.32,0,1,0-.31-.31A.31.31,0,0,0,18.75,199Z"/><path class="cls-1" d="M16.13,192.18a.32.32,0,1,0-.31-.31A.31.31,0,0,0,16.13,192.18Z"/><path class="cls-1" d="M13.87,185.28a.32.32,0,1,0-.31-.31A.31.31,0,0,0,13.87,185.28Z"/><path class="cls-1" d="M12,178.27a.31.31,0,1,0-.32-.31A.31.31,0,0,0,12,178.27Z"/><path class="cls-1" d="M10.45,171.17a.31.31,0,1,0-.31-.31A.31.31,0,0,0,10.45,171.17Z"/><path class="cls-1" d="M9.31,164a.29.29,0,1,0-.29-.29A.29.29,0,0,0,9.31,164Z"/><path class="cls-1" d="M8.54,156.78a.31.31,0,1,0-.31-.31A.31.31,0,0,0,8.54,156.78Z"/><path class="cls-1" d="M8.16,149.53a.31.31,0,1,0-.31-.31A.31.31,0,0,0,8.16,149.53Z"/><path class="cls-1" d="M8.16,142.27a.31.31,0,1,0-.31-.31A.31.31,0,0,0,8.16,142.27Z"/><path class="cls-1" d="M8.54,135a.31.31,0,1,0-.31-.31A.31.31,0,0,0,8.54,135Z"/><path class="cls-1" d="M9.31,127.78a.29.29,0,1,0-.29-.29A.29.29,0,0,0,9.31,127.78Z"/><circle class="cls-1" cx="10.45" cy="120.32" r="0.29"/><path class="cls-1" d="M12,113.51a.29.29,0,1,0-.3-.29A.29.29,0,0,0,12,113.51Z"/><path class="cls-1" d="M13.87,106.5a.29.29,0,1,0-.29-.29A.29.29,0,0,0,13.87,106.5Z"/><path class="cls-1" d="M16.13,99.61a.3.3,0,0,0,.29-.3.29.29,0,1,0-.58,0A.3.3,0,0,0,16.13,99.61Z"/><circle class="cls-1" cx="18.75" cy="92.54" r="0.29"/><path class="cls-1" d="M21.73,86.21a.29.29,0,1,0-.29-.29A.29.29,0,0,0,21.73,86.21Z"/><circle class="cls-1" cx="25.05" cy="79.47" r="0.29"/><path class="cls-1" d="M28.71,73.49a.3.3,0,0,0,.29-.3.29.29,0,1,0-.58,0A.3.3,0,0,0,28.71,73.49Z"/><path class="cls-1" d="M32.69,67.42a.3.3,0,0,0,.3-.3.3.3,0,0,0-.59,0A.3.3,0,0,0,32.69,67.42Z"/><path class="cls-1" d="M37,61.56a.29.29,0,1,0-.29-.29A.29.29,0,0,0,37,61.56Z"/><path class="cls-1" d="M41.59,56a.29.29,0,0,0,.3-.29.3.3,0,1,0-.59,0A.29.29,0,0,0,41.59,56Z"/><circle class="cls-1" cx="46.49" cy="50.29" r="0.29"/><path class="cls-1" d="M51.65,45.48a.29.29,0,1,0-.29-.29A.29.29,0,0,0,51.65,45.48Z"/><path class="cls-1" d="M57.08,40.66a.29.29,0,1,0-.29-.29A.29.29,0,0,0,57.08,40.66Z"/><path class="cls-1" d="M62.76,36.14a.3.3,0,1,0-.29-.3A.29.29,0,0,0,62.76,36.14Z"/><path class="cls-1" d="M68.67,31.91a.29.29,0,1,0,0-.58.29.29,0,1,0,0,.58Z"/><path class="cls-1" d="M74.79,28a.29.29,0,1,0-.29-.29A.29.29,0,0,0,74.79,28Z"/><path class="cls-1" d="M81.11,24.44a.3.3,0,1,0-.29-.29A.29.29,0,0,0,81.11,24.44Z"/><path class="cls-1" d="M87.61,21.2a.29.29,0,1,0-.29-.29A.29.29,0,0,0,87.61,21.2Z"/><path class="cls-1" d="M94.27,18.31A.29.29,0,1,0,94,18,.29.29,0,0,0,94.27,18.31Z"/><path class="cls-1" d="M101.07,15.78a.29.29,0,1,0-.29-.29A.29.29,0,0,0,101.07,15.78Z"/><path class="cls-1" d="M108,13.61a.29.29,0,1,0-.29-.29A.29.29,0,0,0,108,13.61Z"/><path class="cls-1" d="M115,11.81a.3.3,0,1,0,0-.59.3.3,0,0,0,0,.59Z"/><path class="cls-1" d="M122.15,10.38a.29.29,0,1,0-.29-.29A.29.29,0,0,0,122.15,10.38Z"/><path class="cls-1" d="M129.34,9.35a.32.32,0,0,0,0-.63.32.32,0,1,0,0,.63Z"/><path class="cls-1" d="M136.57,8.68a.32.32,0,0,0,0-.63.32.32,0,1,0,0,.63Z"/><path class="cls-1" d="M143.82,8.37a.29.29,0,1,0-.29-.29A.29.29,0,0,0,143.82,8.37Z"/><path class="cls-1" d="M151.08,8.49a.32.32,0,1,0-.31-.32A.31.31,0,0,0,151.08,8.49Z"/><path class="cls-1" d="M158.32,9a.32.32,0,1,0,0-.63.32.32,0,0,0,0,.63Z"/><path class="cls-1" d="M165.53,9.83a.32.32,0,1,0,0-.63.32.32,0,0,0,0,.63Z"/><path class="cls-1" d="M172.69,11.07a.32.32,0,1,0-.32-.32A.31.31,0,0,0,172.69,11.07Z"/><path class="cls-1" d="M179.77,12.68a.31.31,0,1,0-.32-.31A.31.31,0,0,0,179.77,12.68Z"/><path class="cls-1" d="M186.75,14.67a.32.32,0,0,0,0-.63.32.32,0,1,0,0,.63Z"/><path class="cls-1" d="M193.62,17a.31.31,0,0,0,.31-.31.32.32,0,1,0-.63,0A.31.31,0,0,0,193.62,17Z"/><path class="cls-1" d="M200.35,19.73a.31.31,0,1,0-.31-.31A.31.31,0,0,0,200.35,19.73Z"/><path class="cls-1" d="M206.93,22.8a.32.32,0,1,0,0-.63.32.32,0,0,0,0,.63Z"/><path class="cls-1" d="M213.35,26.21a.32.32,0,0,0,.31-.32.32.32,0,0,0-.63,0A.32.32,0,0,0,213.35,26.21Z"/><path class="cls-1" d="M219.57,30a.32.32,0,0,0,.31-.32.31.31,0,1,0-.62,0A.32.32,0,0,0,219.57,30Z"/><path class="cls-1" d="M225.59,34a.32.32,0,1,0-.32-.32A.31.31,0,0,0,225.59,34Z"/><path class="cls-1" d="M231.38,38.38a.31.31,0,1,0-.31-.31A.31.31,0,0,0,231.38,38.38Z"/><path class="cls-1" d="M236.93,43.06a.32.32,0,1,0-.31-.31A.31.31,0,0,0,236.93,43.06Z"/><path class="cls-1" d="M242.24,48a.32.32,0,0,0,0-.63.32.32,0,1,0,0,.63Z"/><path class="cls-1" d="M247.27,53.26a.32.32,0,0,0,.31-.32.32.32,0,0,0-.63,0A.32.32,0,0,0,247.27,53.26Z"/><path class="cls-1" d="M252,58.75a.32.32,0,1,0,0-.63.32.32,0,0,0,0,.63Z"/><path class="cls-1" d="M256.47,64.48a.31.31,0,1,0-.32-.31A.31.31,0,0,0,256.47,64.48Z"/><path class="cls-1" d="M260.61,70.45a.32.32,0,1,0-.32-.32A.31.31,0,0,0,260.61,70.45Z"/><path class="cls-1" d="M264.43,76.64a.34.34,0,1,0-.34-.33A.34.34,0,0,0,264.43,76.64Z"/><path class="cls-1" d="M267.92,83a.34.34,0,0,0,.34-.34.34.34,0,0,0-.34-.34.35.35,0,0,0-.34.34A.34.34,0,0,0,267.92,83Z"/><path class="cls-1" d="M271.07,89.55a.34.34,0,1,0,0-.67.34.34,0,1,0,0,.67Z"/><path class="cls-1" d="M273.87,96.25a.34.34,0,0,0,.34-.34.34.34,0,1,0-.67,0A.34.34,0,0,0,273.87,96.25Z"/><path class="cls-1" d="M276.32,103.08a.34.34,0,0,0,0-.67.34.34,0,1,0,0,.67Z"/><path class="cls-1" d="M278.39,110a.34.34,0,1,0,0-.67.34.34,0,0,0,0,.67Z"/><path class="cls-1" d="M280.1,117.1a.34.34,0,0,0,.34-.34.34.34,0,1,0-.67,0A.34.34,0,0,0,280.1,117.1Z"/><path class="cls-1" d="M281.44,124.23a.34.34,0,0,0,0-.67.34.34,0,1,0,0,.67Z"/><path class="cls-1" d="M282.39,131.43a.34.34,0,1,0,0-.67.34.34,0,0,0,0,.67Z"/><path class="cls-1" d="M283,138.67a.34.34,0,1,0-.34-.34A.34.34,0,0,0,283,138.67Z"/><path class="cls-1" d="M291.25,145.61l0,0,0,0,0,0Z"/><circle class="cls-1" cx="291.07" cy="152.85" r="0.02"/><path class="cls-1" d="M290.52,160.11s0,0,0,0,0,0,0,0l0,0Z"/><circle class="cls-1" cx="289.62" cy="167.29" r="0.02"/><path class="cls-1" d="M288.36,174.47s0,0,0,0a0,0,0,0,0,0,0l0,0S288.35,174.47,288.36,174.47Z"/><path class="cls-1" d="M286.75,181.54l0,0a0,0,0,0,0,0,0s0,0,0,0S286.73,181.54,286.75,181.54Z"/><circle class="cls-1" cx="284.78" cy="188.51" r="0.02"/><path class="cls-1" d="M282.47,195.42s0,0,0,0l0,0s0,0,0,0A0,0,0,0,0,282.47,195.42Z"/><path class="cls-1" d="M279.81,202.17s0,0,0,0,0,0,0,0a0,0,0,0,0,0,0Z"/><path class="cls-1" d="M276.83,208.81a0,0,0,0,0,0,0,0,0,0,0,0,0-.05,0,0,0,0,0-.05.05A0,0,0,0,0,276.83,208.81Z"/><path class="cls-1" d="M273.52,215.25a0,0,0,0,0,0,0l0,0s0,0,0,0S273.5,215.25,273.52,215.25Z"/><circle class="cls-1" cx="269.89" cy="221.52" r="0.04"/><circle class="cls-1" cx="265.95" cy="227.62" r="0.02"/><path class="cls-1" d="M261.71,233.53a0,0,0,0,0,0,0,0,0,0,0,0,0,0l0,0A0,0,0,0,0,261.71,233.53Z"/><path class="cls-1" d="M257.18,239.21a0,0,0,0,0,0,0,0,0,0,0,0,0,0,0,0,0,0,0,0,0A0,0,0,0,0,257.18,239.17Z"/><circle class="cls-1" cx="252.38" cy="244.63" r="0.02"/><path class="cls-1" d="M247.31,249.85l0,0a0,0,0,0,0,0,0,0,0,0,0,0,0,0Z"/><circle class="cls-1" cx="241.99" cy="254.77" r="0.02"/><path class="cls-1" d="M236.42,259.46s0,0,0,0a0,0,0,0,0,0,0s0,0,0,0Z"/><path class="cls-1" d="M230.64,263.86a0,0,0,0,0,0,0,0,0,0,0,0,0-.05,0,0,0,0,0,0,.05A0,0,0,0,0,230.64,263.86Z"/><path class="cls-1" d="M224.64,268a0,0,0,0,0,0,0,0,0,0,0,0,0-.05,0,0,0,0,0,0,.05A0,0,0,0,0,224.64,268Z"/><path class="cls-1" d="M218.44,271.72s0,0,0,0l0,0,0,0S218.43,271.72,218.44,271.72Z"/><path class="cls-1" d="M212.07,275.21a0,0,0,0,0,0,0,0,0,0,0,0,0-.05,0,0,0,0,0,0,.05A0,0,0,0,0,212.07,275.21Z"/><path class="cls-1" d="M205.52,278.36a0,0,0,0,0,0,0,0,0,0,0,0,0-.05,0,0,0,0,0,0,.05A0,0,0,0,0,205.52,278.36Z"/><path class="cls-1" d="M198.83,281.18a0,0,0,0,0,0,0,0,0,0,0,0,0-.05,0,0,0,0,0,0,.05A0,0,0,0,0,198.83,281.18Z"/><circle class="cls-1" cx="192.01" cy="283.62" r="0.02"/><path class="cls-1" d="M185.07,285.78s0,0,0,0,0,0,0,0l0,0Z"/><circle class="cls-1" cx="178.04" cy="287.55" r="0.02"/><path class="cls-1" d="M170.92,289l0,0,0,0,0,0Z"/><circle class="cls-1" cx="163.74" cy="290.07" r="0.02"/><path class="cls-1" d="M156.52,290.82l0,0s0,0,0,0a0,0,0,0,0,0,0S156.5,290.82,156.52,290.82Z"/><path class="cls-1" d="M149.27,291.18l0,0a0,0,0,0,0,0,0s0,0,0,0S149.25,291.18,149.27,291.18Z"/><path class="cls-1" d="M142,291.18l0,0a0,0,0,0,0,0,0s0,0,0,0S142,291.18,142,291.18Z"/><path class="cls-1" d="M134.75,290.82s0,0,0,0a0,0,0,0,0,0,0s0,0,0,0Z"/><circle class="cls-1" cx="127.53" cy="290.07" r="0.02"/><path class="cls-1" d="M120.35,289l0,0,0,0,0,0Z"/><circle class="cls-1" cx="113.23" cy="287.55" r="0.02"/><path class="cls-1" d="M106.2,285.78l0,0,0,0,0,0Z"/><circle class="cls-1" cx="99.26" cy="283.62" r="0.02"/><path class="cls-1" d="M92.44,281.16a0,0,0,0,0,0,0l0,0s0,0,0,0S92.42,281.16,92.44,281.16Z"/><path class="cls-1" d="M85.75,278.34l0,0s0,0,0,0a0,0,0,0,0,0,0S85.73,278.34,85.75,278.34Z"/><circle class="cls-1" cx="79.21" cy="275.17" r="0.02"/><path class="cls-1" d="M72.83,271.72s0,0,0,0l0,0,0,0S72.82,271.72,72.83,271.72Z"/><path class="cls-1" d="M66.63,267.93s0,0,0,0,0,0,0,0a0,0,0,0,0,0,0Z"/><path class="cls-1" d="M60.63,263.84s0,0,0,0,0,0,0,0l0,0Z"/><path class="cls-1" d="M54.85,259.46l0,0s0,0,0,0a0,0,0,0,0,0,0S54.83,259.46,54.85,259.46Z"/><circle class="cls-1" cx="49.29" cy="254.77" r="0.02"/><path class="cls-1" d="M44,249.85s0,0,0,0,0,0,0,0a0,0,0,0,0,0,0Z"/><circle class="cls-1" cx="38.89" cy="244.63" r="0.02"/><circle class="cls-1" cx="34.09" cy="239.19" r="0.02"/><path class="cls-1" d="M29.56,233.53a0,0,0,0,0,0,0l0,0,0,0A0,0,0,0,0,29.56,233.53Z"/><circle class="cls-1" cx="25.32" cy="227.62" r="0.02"/><circle class="cls-1" cx="21.39" cy="221.52" r="0.02"/><path class="cls-1" d="M17.75,215.25s0,0,0,0,0,0,0,0l0,0A0,0,0,0,0,17.75,215.25Z"/><path class="cls-1" d="M14.44,208.79s0,0,0,0,0,0,0,0a0,0,0,0,0,0,0Z"/><path class="cls-1" d="M11.46,202.17l0,0a0,0,0,0,0,0,0s0,0,0,0S11.44,202.17,11.46,202.17Z"/><circle class="cls-1" cx="8.8" cy="195.39" r="0.02"/><path class="cls-1" d="M6.49,188.53a0,0,0,0,0,0,0l0,0,0,0A0,0,0,0,0,6.49,188.53Z"/><path class="cls-1" d="M4.53,181.54l0,0a0,0,0,0,0,0,0s0,0,0,0S4.51,181.54,4.53,181.54Z"/><path class="cls-1" d="M2.91,174.47s0,0,0,0l0,0a0,0,0,0,0,0,0S2.9,174.47,2.91,174.47Z"/><circle class="cls-1" cx="1.65" cy="167.29" r="0.02"/><path class="cls-1" d="M.75,160.11l0,0,0,0s0,0,0,0S.73,160.11.75,160.11Z"/><circle class="cls-1" cx="0.2" cy="152.85" r="0.02"/><path class="cls-1" d="M0,145.61l0,0,0,0,0,0Z"/><circle class="cls-1" cx="0.2" cy="138.33" r="0.02"/><path class="cls-1" d="M.75,131.11l0,0,0,0s0,0,0,0S.73,131.11.75,131.11Z"/><path class="cls-1" d="M1.65,123.91a0,0,0,0,0,0,0,0,0,0,0,0,0,0,0,0,0,0,0,0,0A0,0,0,0,0,1.65,123.87Z"/><circle class="cls-1" cx="2.91" cy="116.74" r="0.02"/><path class="cls-1" d="M4.53,109.68a0,0,0,0,0,0,0,0,0,0,0,0,0,0s0,0,0,0S4.51,109.68,4.53,109.68Z"/><path class="cls-1" d="M6.49,102.69a0,0,0,0,0,0,0,0,0,0,0,0,0,0,0,0,0,0,0,0,0A0,0,0,0,0,6.49,102.65Z"/><circle class="cls-1" cx="8.8" cy="95.79" r="0.02"/><circle class="cls-1" cx="11.46" cy="89.03" r="0.02"/><circle class="cls-1" cx="14.44" cy="82.41" r="0.02"/><circle class="cls-1" cx="17.75" cy="75.95" r="0.02"/><circle class="cls-1" cx="21.39" cy="69.66" r="0.02"/><path class="cls-1" d="M25.32,63.59a0,0,0,0,0,0,0s0,0,0,0a0,0,0,0,0,0,0S25.31,63.59,25.32,63.59Z"/><path class="cls-1" d="M29.56,57.69l0,0a0,0,0,0,0,0,0,0,0,0,0,0,0,0Z"/><path class="cls-1" d="M34.09,52l0,0a0,0,0,0,0,0,0,0,0,0,0,0,0,0Z"/><circle class="cls-1" cx="38.89" cy="46.55" r="0.02"/><circle class="cls-1" cx="43.96" cy="41.35" r="0.02"/><path class="cls-1" d="M49.29,36.43a0,0,0,0,0,0,0l0,0s0,0,0,0S49.27,36.43,49.29,36.43Z"/><circle class="cls-1" cx="54.85" cy="31.75" r="0.02"/><path class="cls-1" d="M60.63,27.38s0,0,0,0,0,0,0,0a0,0,0,0,0,0,0A0,0,0,0,0,60.63,27.34Z"/><path class="cls-1" d="M66.63,23.29s0,0,0,0,0,0,0,0l0,0A0,0,0,0,0,66.63,23.29Z"/><path class="cls-1" d="M72.83,19.51a0,0,0,0,0,0,0s0,0,0,0,0,0,0,0A0,0,0,0,0,72.83,19.51Z"/><circle class="cls-1" cx="79.21" cy="16.01" r="0.02"/><path class="cls-1" d="M85.75,12.89s0,0,0,0a0,0,0,0,0,0,0s0,0,0,0A0,0,0,0,0,85.75,12.89Z"/><path class="cls-1" d="M92.44,10.07s0,0,0,0a0,0,0,0,0,0,0s0,0,0,0A0,0,0,0,0,92.44,10.07Z"/><circle class="cls-1" cx="99.26" cy="7.56" r="0.02"/><path class="cls-1" d="M106.2,5.44l0,0,0,0a0,0,0,0,0,0,0A0,0,0,0,0,106.2,5.4Z"/><path class="cls-1" d="M113.23,3.65s0,0,0,0,0,0,0,0a0,0,0,0,0,0,0A0,0,0,0,0,113.23,3.61Z"/><path class="cls-1" d="M120.35,2.21a0,0,0,0,0,0,0l0,0,0,0A0,0,0,0,0,120.35,2.21Z"/><circle class="cls-1" cx="127.53" cy="1.11" r="0.02"/><path class="cls-1" d="M134.75.41a0,0,0,0,0,0,0s0,0,0,0a0,0,0,0,0,0,0S134.74.41,134.75.41Z"/><path class="cls-1" d="M142,0a0,0,0,0,0,0,0,0,0,0,0,0,0,0s0,0,0,0S142,0,142,0Z"/><path class="cls-1" d="M149.27,0a0,0,0,0,0,0,0l0,0s0,0,0,0S149.25,0,149.27,0Z"/><path class="cls-1" d="M156.52.41s0,0,0,0a0,0,0,0,0,0,0s0,0,0,0A0,0,0,0,0,156.52.41Z"/><circle class="cls-1" cx="163.74" cy="1.11" r="0.02"/><path class="cls-1" d="M170.92,2.21a0,0,0,0,0,0,0,0,0,0,0,0,0,0l0,0A0,0,0,0,0,170.92,2.21Z"/><path class="cls-1" d="M178,3.65a0,0,0,0,0,0,0,0,0,0,0,0,0,0s0,0,0,0S178,3.65,178,3.65Z"/><path class="cls-1" d="M185.07,5.44s0,0,0,0,0,0,0,0l0,0A0,0,0,0,0,185.07,5.44Z"/><circle class="cls-1" cx="192.01" cy="7.56" r="0.02"/><path class="cls-1" d="M198.83,10.07a0,0,0,0,0,0,0s0,0,0,0a0,0,0,0,0,0,0S198.82,10.07,198.83,10.07Z"/><path class="cls-1" d="M205.52,12.89a0,0,0,0,0,0,0s0,0,0,0a0,0,0,0,0,0,0S205.51,12.89,205.52,12.89Z"/><circle class="cls-1" cx="212.07" cy="16.01" r="0.02"/><path class="cls-1" d="M218.44,19.51a0,0,0,0,0,0,0s0,0,0,0,0,0,0,0A0,0,0,0,0,218.44,19.51Z"/><path class="cls-1" d="M224.64,23.29a0,0,0,0,0,0,0,0,0,0,0,0,0,0s0,0,0,0S224.62,23.29,224.64,23.29Z"/><path class="cls-1" d="M230.64,27.38a0,0,0,0,0,0,0,0,0,0,0,0,0,0s0,0,0,0S230.62,27.38,230.64,27.38Z"/><circle class="cls-1" cx="236.42" cy="31.75" r="0.02"/><path class="cls-1" d="M242,36.43a0,0,0,0,0,0,0l0,0s0,0,0,0S242,36.43,242,36.43Z"/><circle class="cls-1" cx="247.31" cy="41.35" r="0.02"/><circle class="cls-1" cx="252.38" cy="46.55" r="0.02"/><path class="cls-1" d="M257.18,52l0,0a0,0,0,0,0,0,0,0,0,0,0,0,0,0Z"/><path class="cls-1" d="M261.71,57.69a0,0,0,0,0,0,0,0,0,0,0,0,0,0,0,0,0,0,0,0,0Z"/><path class="cls-1" d="M266,63.59s0,0,0,0a0,0,0,0,0,0,0s0,0,0,0A0,0,0,0,0,266,63.59Z"/><circle class="cls-1" cx="269.89" cy="69.66" r="0.02"/><circle class="cls-1" cx="273.52" cy="75.95" r="0.02"/><path class="cls-1" d="M276.83,82.43a0,0,0,0,0,0,0l0,0a0,0,0,0,0,0,0A0,0,0,0,0,276.83,82.39Z"/><circle class="cls-1" cx="279.81" cy="89.03" r="0.02"/><path class="cls-1" d="M282.47,95.81l0,0a0,0,0,0,0,0,0s0,0,0,0S282.45,95.81,282.47,95.81Z"/><path class="cls-1" d="M284.78,102.69a0,0,0,0,0,0,0,0,0,0,0,0,0,0,0,0,0,0,0,0,0A0,0,0,0,0,284.78,102.65Z"/><path class="cls-1" d="M286.75,109.68a0,0,0,0,0,0,0,0,0,0,0,0,0,0s0,0,0,0S286.73,109.68,286.75,109.68Z"/><circle class="cls-1" cx="288.36" cy="116.74" r="0.02"/><path class="cls-1" d="M289.62,123.91a0,0,0,0,0,0,0,0,0,0,0,0,0,0,0,0,0,0,0,0,0A0,0,0,0,0,289.62,123.87Z"/><path class="cls-1" d="M290.52,131.11s0,0,0,0,0,0,0,0l0,0Z"/><circle class="cls-1" cx="291.07" cy="138.33" r="0.02"/></g></g></svg>