<svg xmlns="http://www.w3.org/2000/svg" viewBox="0 0 135.26 134.32"><defs><style>.cls-1{fill:#ed1c24;fill-rule:evenodd;}</style></defs><title>Asset 135mdpi</title><g id="Layer_2" data-name="Layer 2"><g id="Layer_1-2" data-name="Layer 1"><path class="cls-1" d="M88.25,125.57a4.15,4.15,0,0,0-1.11-.17c-3.92.11-7.77.95-11.7,1a8.29,8.29,0,0,1-3,.34,8.76,8.76,0,0,0-1.84.18,10.34,10.34,0,0,1-3.23.3,6.33,6.33,0,0,0-1.44.2c-1.29.4-2.63.15-3.94.29a12.84,12.84,0,0,0-2.44.62,13.06,13.06,0,0,0-2.83,1.26c-.84.57-1.34,1.23-.44,2.16,2.61,1.44,5.53,1.81,8.37,2.44a62.74,62.74,0,0,0,27.56-4.49c.15-1.45-1.22-2-1.81-3A8.1,8.1,0,0,0,88.25,125.57Z"/><path class="cls-1" d="M118.93,35.57a2,2,0,0,0,0,.34l-.66.6c-.4,0-.58.23-.69.57a1.24,1.24,0,0,0,.21.93l.08.05a.55.55,0,0,0,0,.74s0,0,0,0a1.12,1.12,0,0,0-.26-.08c-.9,1.57-.84,3.38-1.25,5.07-.3,1.21-.35,2.46-.66,3.67a14,14,0,0,0-.26,1.7,2.51,2.51,0,0,0,.06,1.73,2.12,2.12,0,0,0,1.4.94c-.62,1,0,2,.14,3l.24.7a.74.74,0,0,1-.29.26c-.29-.63-.57-1.25-.86-1.87h0c0-.16,0-.32,0-.48a.9.9,0,0,0-1.06,0c-.84,1.22-.14,2.73-.77,4a9.91,9.91,0,0,0-.5,1.48c-.07,1.42-.48,2.8-.53,4.22,0,.75,0,1.57.83,1.95a1.36,1.36,0,0,0,1.76-.55.46.46,0,0,0,.27.08c.8-.3,1.86-.31,1.84-1.46H118l.7-.53a.86.86,0,0,0,.43.2,1.65,1.65,0,0,0,1.44-.72.29.29,0,0,0,0-.09c2.45-.42,4.24-2.17,6.41-3.15a1.21,1.21,0,0,0,.51-.85c.14-.17.27-.35.41-.53a20.13,20.13,0,0,1,1.94-5c-.22-1.35.77-2.4.9-3.67l.53-.42a1.24,1.24,0,0,1,0-.27c.91-.2.63-1,.82-1.61-.13-.31-.25-.62-.38-.92a3,3,0,0,0-.54-1.84,55.74,55.74,0,0,0-6.4-12.8c-.61-.54-1.16-.19-1.58.21A28.8,28.8,0,0,0,118.93,35.57ZM125.59,43a1.21,1.21,0,0,0,.63.81c.88.53-.16.33-.29.46l-1.59-.92c.22-.36-.17-.85-.25-1.28A4.73,4.73,0,0,0,125.59,43Z"/><path class="cls-1" d="M30.61,112.61v-.45c.18-.43.36-.86.53-1.29-.12-1.05-.78-.59-1.3-.52.19-.59.74-.73,1.22-1a.7.7,0,0,1,.17-.33,2.86,2.86,0,0,0,.25-2.59c-.49-1-1.49-1.21-2.4-1.57-1.46-.26-2.75-1.32-4.34-.92-.86.13-2.22-.41-1.85,1.34a1.67,1.67,0,0,0-.88,1l0,1.46c-.05.14-.11.29-.16.46,0,1,.05,2,1.05,2.64l.1.12a1.32,1.32,0,0,0-.29,0,2.72,2.72,0,0,0-.23,2.26c.42.51,0,1.12.2,1.66a.65.65,0,0,0,.45.3l0,.06c-.58.85-.21,1.71.12,2.57a5.14,5.14,0,0,0,1.86,1.44,1.48,1.48,0,0,0,1,.77,12.35,12.35,0,0,0,3.18,2.33c1.05.12,1-.82,1.31-1.38a4.15,4.15,0,0,0,.15-.7,12.08,12.08,0,0,1,.39-3.17,9.16,9.16,0,0,0-.06-3.65A4.68,4.68,0,0,0,30.61,112.61Zm-1-2.19c-.18.15-.37.3-.39.5a2.72,2.72,0,0,0-.9,0,1.41,1.41,0,0,0,.22-.5Z"/><path class="cls-1" d="M18.91,102.42a6.35,6.35,0,0,0-1.89-.76c-1.48-.19-3-.4-4.46-.51-.92-.07-2.2-.52-2.54,1l4.15,6c2.33.44,3.45-1.54,5-2.59C20.48,104.64,20.28,103.34,18.91,102.42Z"/><path class="cls-1" d="M134.91,60.36a11.4,11.4,0,0,0-.55-4.06c-.55-.41-.87-.16-1.11.37a1.49,1.49,0,0,1,0,.21L128,59.52c-.43-.17-.64.11-.84.42a2.68,2.68,0,0,0-.21.68c-.93,3.38-2.31,6.59-3.47,9.89-.5,1.4-.83,2.78,0,4.17,1.07,1.53,2.36,2.59,4.36,2.14a1.25,1.25,0,0,0,.42.71,1.58,1.58,0,0,0,1.36.38l0,.08a1.91,1.91,0,0,0,2.51.49c1.56-2.26,1.31-5.06,2.22-7.51.43-2.15.58-4.33.92-6.49A12.42,12.42,0,0,0,134.91,60.36Z"/><path class="cls-1" d="M109.05,113.42a1.32,1.32,0,0,0-1,.12c-2,1.91-2.05,4.61-3,7,.07.81-1,1.81.41,2.41,2.28-1.57,4.7-3,6.47-5.17A8.12,8.12,0,0,0,109.05,113.42Z"/><path class="cls-1" d="M12.84,99.24h0c.31.85,1.23.73,1.89,1a1.64,1.64,0,0,0,.94-.12,8.43,8.43,0,0,0,.64.69,2,2,0,0,0,1.3.47,1.6,1.6,0,0,0,1.25-.51c1.35.45,1.34-.69,1.29-1.45a7,7,0,0,0-.78-3.45,1.07,1.07,0,0,1-.58.13l.06-.31a6.08,6.08,0,0,0-.51-2.34h0c-.34-3-.67-5.94-1-8.9-.4-.78.09-1.7-.39-2.47a.38.38,0,0,1,0-.37c-.47-.74.06-1.64-.39-2.37,0-.27-.06-.54-.08-.81-.51-.91.16-2-.45-2.88a19.62,19.62,0,0,1-.84-5,3.52,3.52,0,0,0,.28-1.39.25.25,0,0,0,0-.08,1.73,1.73,0,0,0,.58.56c.5,3.68.69,7.43,1.55,11,1.63,6.81,2.33,13.75,3.53,20.62l.46.45a3.46,3.46,0,0,0,1.8.71,1.26,1.26,0,0,0,.63-.19,3.32,3.32,0,0,0,.74-1.18,1.67,1.67,0,0,0,1.08-.33,2.25,2.25,0,0,0,1-1.25l.06-.14c2.22-.55,3.72-2.16,5.29-3.67a1.19,1.19,0,0,0,.26-.91c.17-2.79.33-5.58.5-8.38.18-.31.34-.62.52-.93a1.86,1.86,0,0,0-.14-2.14s0-.09.07-.14a4.08,4.08,0,0,0,.47-1,5.3,5.3,0,0,0,.22-1.48c.38-3.36.56-6.73.92-10.09a20,20,0,0,0-.18-3.79,3.14,3.14,0,0,0-.5-1l-.36-.4a1.08,1.08,0,0,0,1.09-.19c1.1-3.64.73-7.46,1.33-11.16a16.38,16.38,0,0,0-.17-3.05c-.09-.21-.17-.42-.26-.64a2.52,2.52,0,0,1,.2-.66l.09-1.24a1.59,1.59,0,0,0,.4-.59,25.76,25.76,0,0,1,.46-2.79,7.65,7.65,0,0,0,.09-2.57,1.58,1.58,0,0,0-.52-1c-1.73.38-3,1.55-4.39,2.52a.58.58,0,0,0-.12-.1c-4.3,1.22-7.72,4-11.33,6.42a1.45,1.45,0,0,0,0,.68,1.81,1.81,0,0,0-.77-.18,23.56,23.56,0,0,0-5.83,3.28,2.1,2.1,0,0,0-.38.6,8.31,8.31,0,0,0-.2,2.94c0,.33.08.67.12,1a1.86,1.86,0,0,0-.85-.75c-1.88,2.18-2.2,5.06-3.36,7.56A5.23,5.23,0,0,0,9.05,69a.74.74,0,0,0-.33,0,.73.73,0,0,0-.09,1L8,71.23l-.25,0a47.26,47.26,0,0,0-2.29,4.83c.85-2.17,1.68-4.35,2.38-6.57v-.11c.51-.5.51-1.26.82-1.86a2.08,2.08,0,0,0,.11-1.28l-.06-.11q1.78-4.52,3.58-9a.24.24,0,0,0,.09-.38c-.16-1-.66-.5-1.09-.24-1.73,1-3.44,2.07-5.16,3.11a1.05,1.05,0,0,0-.37-.25,2.51,2.51,0,0,0-1.67.85.62.62,0,0,0-.1.24,1.77,1.77,0,0,0-1,.3,2.89,2.89,0,0,0-.8,1.41,28,28,0,0,0-.37,4.28,56.39,56.39,0,0,0-.59,12.38c.2,1.19.39,2.39.59,3.57C3,83,3.18,82,3.42,81.4c.62-1.64,1.27-3.26,1.91-4.89A68.38,68.38,0,0,0,2.7,84.73a10,10,0,0,0,1.36,4.6,5.61,5.61,0,0,0,1,2.73,16.25,16.25,0,0,0,2.69,5.55c1.21.94,2.72,1.16,4.1,1.67A2,2,0,0,0,12.84,99.24Z"/><path class="cls-1" d="M98.24,124.15a13.36,13.36,0,0,1-2.88.36c-1.2.17-2.59,0-3.29,1.4a5.55,5.55,0,0,0,5.64,1.52l4.48-2.42C101.21,123.19,99.59,124.29,98.24,124.15Z"/><path class="cls-1" d="M22.07,113a5.44,5.44,0,0,0-.16-1.33,13.26,13.26,0,0,1-.72-4,2.65,2.65,0,0,0-.4-1.34.48.48,0,0,0-.64-.08v.07A4.5,4.5,0,0,0,15.57,110l2.18,2.34A20,20,0,0,0,22,116.41C22.52,115.3,21.66,114.15,22.07,113Z"/><path class="cls-1" d="M1.25,61.26a1.32,1.32,0,0,0,1.06-1,10.07,10.07,0,0,0,.52-4.15h0a1.39,1.39,0,0,0,.31-.72,2,2,0,0,0-.8-1.81c-.11-.49.06-1.07-.47-1.42a5.39,5.39,0,0,0-.48,2.74,22.29,22.29,0,0,0-.92,6.39Z"/><path class="cls-1" d="M132.59,81.63a5.62,5.62,0,0,0-.4,4.5c-1.14,0-1,.63-.59,1.32-.29.49-.33.86.4.89.05-.76.85-1.4.38-2.26,1.19-1.43,1.11-3.25,1.48-4.93C133.13,80.51,132.84,81,132.59,81.63Z"/><path class="cls-1" d="M132.05,49.17a2.18,2.18,0,0,0-.81.49.8.8,0,0,0-.21.89c-.06.05-.12.07-.18.12a7.32,7.32,0,0,0-1.09,2.16,24.66,24.66,0,0,0-.72,2.36c-.19,1-.08,1.81,1.18,1.92,3.24-.91,3.82-1.46,3.76-3.61l-.54-1.8c-.17-.77-.34-1.54-.52-2.3L132.53,48c-.56.25-.5.7-.47,1.14Z"/><path class="cls-1" d="M55.14,132.35h0c-1-.95-2.79.57-3.45-1.23a.58.58,0,0,0-.83-.16l0,.16c-1.92-.65-3.79-1.82-5.9-.6l5.87,1.81c1.11,0,2.08.83,3.23.55l3.2.86,2.29,0a4.47,4.47,0,0,0-2.3-.86Z"/><path class="cls-1" d="M134.79,74.65l-.28-.08a1.58,1.58,0,0,0-.81.84,2.54,2.54,0,0,0-.19.57,2.48,2.48,0,0,0,.23,1.79s0,0,0,0a.72.72,0,0,0-.67-.07,1.19,1.19,0,0,0-.29,1.62c.45.41.88.92,1.48.2,0-.57,0-1.14,0-1.72A4.69,4.69,0,0,0,134.79,74.65Z"/><path class="cls-1" d="M93.38,128.11c.15.71.68.69,1.16.75l.34-.14A1.29,1.29,0,0,0,93.38,128.11Z"/><path class="cls-1" d="M1.29,66.39h0C1,65.15,2.45,63.53.43,62.7c0,.22,0,.44,0,.66a20,20,0,0,0,0,7.74h0c0,.35.22.42.49.46,0-.92.05-1.85.08-2.77A3.9,3.9,0,0,0,1.29,66.39Z"/><path class="cls-1" d="M129.74,89.2c.2-3.07,1.27-6,1.77-9l-2.14-1L128,78.24a1.71,1.71,0,0,1-.45,0c-.6-.31-1.2-.62-1.81-.92a2.44,2.44,0,0,0-1.93-.77,2.28,2.28,0,0,0-1.73-.65,1.43,1.43,0,0,0-.91.34c.05-.12.08-.24.13-.36a.8.8,0,0,0-.18-.83l-4.19-2.26L115.52,72q-.26-.26-.48-.12L113.7,71c-1.26-.61-1.45.48-1.55,1.18-.34,2.6-1.36,5.09-1.34,7.75a11.49,11.49,0,0,0,.19,2.62c.07.14.15.29.22.44a1,1,0,0,0-.44.45.77.77,0,0,0,.18.78,1.34,1.34,0,0,0-.39.25,4.7,4.7,0,0,0-.72,2.36,119.38,119.38,0,0,0-1.59,14l0,0a4.18,4.18,0,0,0-.18,2.68c-.16-.1-.25,0-.28.19l-.09,1.68c.08,1.19-.23,2.39.14,3.56,1.69-1.57,2.07-3.65,2.27-5.8a1.44,1.44,0,0,0,.36-.07c1.29-.43,1.28-1.72,1.76-2.69a16,16,0,0,0,1-3.78c.1-1.62,1-3,1.41-4.49a4.1,4.1,0,0,0,.35-3.71c-.08-.14-.18-.27-.28-.41l.08-.16a.9.9,0,0,0,.47.2c.2.37.51.58,1.14.29a1.61,1.61,0,0,0,.53-.54c.37-.86.71-1.74,1-2.62-.43,1.31-.86,2.62-1.3,3.93a2.43,2.43,0,0,0,0,1,3.3,3.3,0,0,0,.66,1.13,1.2,1.2,0,0,0-1.13-.24c-1.53,1.08-1.12,2.89-1.63,4.36v.11c-.91.45-1,1.47-1.22,2.39a3.08,3.08,0,0,0,.07.68,5.2,5.2,0,0,1,.17.68,6.28,6.28,0,0,0-.69,2,2.75,2.75,0,0,0-.38.2,1.11,1.11,0,0,0-.37.51.93.93,0,0,0,.16.74c-1.69.29-1.59,1.46-1.27,2.74a8.6,8.6,0,0,1-1,3.2c-.48,1.23-.84,2.43.07,3.61a6.52,6.52,0,0,0,3.59-.53h0l.49.14.41-.17a2,2,0,0,0,.32.1c-.24,0-.48.07-.71.12a12.9,12.9,0,0,0-3,1c-.5.45-.68.91,0,1.38a2.11,2.11,0,0,1,.25,0,6.14,6.14,0,0,0,1.8,2.61c.15-.16.3-.33.46-.49a25.77,25.77,0,0,0,4.17-4c0-.93-.66-.84-1.25-.87l-.32.06.16-.1,2.1-.67c.08.08.15.17.23.26A4.82,4.82,0,0,0,120.6,109a33.81,33.81,0,0,0,4.69-6.75l.75-1.07,1.89-3.64c.32-1.12,1-2.16.7-3.41a1.84,1.84,0,0,0-.44-.13l.21-.13.06,0c.73-.66.14-1.66.62-2.39.79-.3.35-1,.46-1.49,0-.1-.07-.2-.12-.3A1.21,1.21,0,0,0,129.74,89.2Zm-3.56-5s.07,0,.1-.14a.21.21,0,0,0-.06-.19.75.75,0,0,1,.44.37C126.56,84.16,126.41,84.13,126.18,84.23ZM122.8,96.68a.74.74,0,0,0,.55.16,1.88,1.88,0,0,0-.42,1.3.82.82,0,0,0-1-.1,1.1,1.1,0,0,1-.42-.93l.6-.08h0Zm4-10.08h0Z"/><path class="cls-1" d="M39.32,121.34a1.75,1.75,0,0,0,0-.4c.24-.42.37-.94,1.06-.85,2.09-1.53,4.25-3,5.15-5.6a2.65,2.65,0,0,0,1.31-2.73c-.1-.6-.38-.71-.76-.52a1.57,1.57,0,0,0-.17-.21,32.13,32.13,0,0,0-7.25-2.46,2.61,2.61,0,0,0-.75.11l-.56-.07a.92.92,0,0,0,0-.28,1.41,1.41,0,0,0-1.18-.73,3.21,3.21,0,0,0-3.2,1.35l-.39.54c0,1.52,0,3,.07,4.55l-.44.52,0,.92c-.05.73-.09,1.45-.14,2.18a.45.45,0,0,0-.36.11c0,.76,0,1.52,0,2.28,0,.47.07.94.11,1.42l-.11,0a1.91,1.91,0,0,0,1.7,2.59c1,.16,1.81.77,2.83.58A5.31,5.31,0,0,0,39.32,121.34Zm-7.59.13Z"/><path class="cls-1" d="M102.92,114.36c-2.4.37-4.7,1.3-7.17,1.3a3.65,3.65,0,0,1,1.16-.28l8-1.84a1.2,1.2,0,0,1,.15-.37,3.59,3.59,0,0,1-.14-.43,5.24,5.24,0,0,0,.64-2.32h-.2c.21-1.45.18-2.8-1.29-3.65,0-.3,0-.59,0-.89a.57.57,0,0,0-.49-.19q-3.19-4.92-6.4-9.85a18.92,18.92,0,0,0-5-7.37h0c0-.17,0-.35,0-.53l-.85-.49c-.46-.75-.93-1.5-1.39-2.26l-.87-1-.12-.78.2-.09a2,2,0,0,0,.08-.22,3.86,3.86,0,0,0,.63.77,1.3,1.3,0,0,0,.55.12s.07,0,.11,0l1.92,2.65c0,.12,0,.23,0,.35a1.37,1.37,0,0,0,.18.56A2.6,2.6,0,0,0,93,88a3.39,3.39,0,0,1,.28.2,6.62,6.62,0,0,0,1.17,1.62l1.08,1.74a2.84,2.84,0,0,1,.08.72c.28,1.13,1.13,1.94,1.63,2.94a25,25,0,0,0,5.47,6.53c.45,1.41,2,2.12,2.37,3.56.08.22.22.24.39.1l.46-.47.4-.05.06.06a19.38,19.38,0,0,0,.87-4.65l0,0a126.69,126.69,0,0,0,3-16.28,6.6,6.6,0,0,0-.19-2c0-.46,0-.93,0-1.4a.93.93,0,0,0,.39-1.06.44.44,0,0,1,.1-.37c.56-.75,0-1.69.43-2.46a30.21,30.21,0,0,1,1-6.27.4.4,0,0,1-.05-.35,2,2,0,0,0-2.22-1.31c-2.1,1-4.42,1.67-6.11,3.43a.7.7,0,0,0-.37-.14c-.49.16-1.13.15-1.3.7h0c-2.72.73-4.83,2.74-7.47,3.62a7.11,7.11,0,0,0-2.92,2.1,1.71,1.71,0,0,0-1.52.1,3.09,3.09,0,0,0-1.49,1.12.72.72,0,0,0,0,.36l-1.35,1-.71,0a6.28,6.28,0,0,0-2.15.72q-2.37,1.22-4.76,2.4c.37-.2.74-.4,1.1-.62,1.72-1,3.86-1.42,5.1-3.21l.44-.4c.56-.33.37-.81.12-1.16L85.63,78a5.57,5.57,0,0,0,2,1.24.92.92,0,0,0,.4-.15l1.43-.75c.35-.07.72-.13.83-.56l2.25-1.35h1a1.1,1.1,0,0,0,.08-.4c2.61-1.37,5.21-2.76,7.81-4.13l1.21-.1.61-.8,3.58-1.91c.54-.29,1.13-.59.45-1.31l-.48-.31c-2.8-.94-5-3.14-8.1-3.47a1.37,1.37,0,0,0-1-.91l-.82-.49c-.56-1-2.1,0-2.54-1.27-.41-.18-.82-.35-1.22-.54l-.5-.39a1.58,1.58,0,0,0-2.07.25c-2.25,2.46-5.27,4.13-7.19,6.93h0c-.72,0-.85.73-1.28,1.09,0,.14,0,.28,0,.42a1.71,1.71,0,0,0-.9,1.4,1.06,1.06,0,0,1-.45.93h0c-1.12-.63-1.6.42-2.3.88l-.6.47a51,51,0,0,1-6.18,5.56h0a1,1,0,0,0-.18-.32c1.84-1.93,4.14-3.38,5.85-5.47a1.93,1.93,0,0,0,.47-1.19l0-.12L78,71a2.13,2.13,0,0,0,1.39-1,1,1,0,0,0,.21-.93L79.48,69l.27-.3c1.22.94,1.29-.58,1.92-.9l.36-.06a.48.48,0,0,0,.47-.47c0-.13,0-.27,0-.41,2.83-1.71,4.81-4.41,7.39-6.41.59-.47.26-.94-.05-1.4a12.85,12.85,0,0,1-3.23-1.82,1.27,1.27,0,0,1-.39-.05l-1.46-.84h-.48l-3.23-1.85a17.85,17.85,0,0,1-4.63-2.29l-2.64-1-.53-.33c-.5-.82-1.45-.71-2.17-1.06a.39.39,0,0,1-.06-.33L68.33,48l-2.26-1c0-.14,0-.28,0-.43l-2.25-.47L61,44.32a2.2,2.2,0,0,1-1.84-.85c-.72-.53-1.72-.6-2.29-1.39l-2.56-.9a1.3,1.3,0,0,0-.05-.52,2.6,2.6,0,0,0-.33-.25c.16.07.32.13.47.21.78.48,1.6.89,2.4,1.32s1.85.89,2.76,1.38a3,3,0,0,0,1.55.39.91.91,0,0,0,.36-.2h0a.91.91,0,0,0,.84.4l.2.31A10.28,10.28,0,0,0,66,46.55a9.27,9.27,0,0,0,2.65.78.62.62,0,0,0,0,.4c.59.48,1.11,1.17,1.92.93a1.81,1.81,0,0,0,.4.47,23.76,23.76,0,0,1,3.52,1.51,16.82,16.82,0,0,1,2.78,1.48c1.42,1.06,3.18,1.43,4.69,2.28,1.31.5,2.45,1.57,4,1.27A.81.81,0,0,0,86,56c.26.68.89.93,1.46,1.25,1.11.24,2,1.42,3.29.9l.46-.07a1.88,1.88,0,0,0-.14-1.33,7.17,7.17,0,0,0,1.2,1.13,1.19,1.19,0,0,0,.89-.08c3.55-2.27,6.26-5.47,9.14-8.47a.18.18,0,0,0,0-.18c.9-.06,1.43-.77,2.05-1.31a8.47,8.47,0,0,0,1.85-2.52c.3,0,.48-.21.62-.54l1.4-1.27h0c1.19-1.21,2.91-1.94,3.41-3.78l-.61-.5c-.23-1,.34-2.34-1.2-2.67l0,0a1.66,1.66,0,0,0-.12-1.73.94.94,0,0,0,.7-.22c.15-.38.36-.53.68-.16l.22,0c-.66,2.07-.26,3.16,1.68,4.58,1.69-.51,3.31-1.1,3.55-3.2a.88.88,0,0,0,.32,0,1.1,1.1,0,0,0,.49-.79c0-.11,0-.22,0-.32,0-.29,0-.58,0-.86a2.85,2.85,0,0,0,.83-2.4,11.63,11.63,0,0,0,.13,1.17,1.64,1.64,0,0,0,.14.39,4.67,4.67,0,0,0,0,1.18l.75-.58h0c1.9-1,4.11-1.72,4.25-4.43l-3.34-4.46a1.11,1.11,0,0,0-.66.32,2.29,2.29,0,0,0-.2-1.28l-.45-.48-.86-.93A3.31,3.31,0,0,0,116.54,21a4.85,4.85,0,0,0-1.83-1.9,15.94,15.94,0,0,0-6.77-1c-1.89.14-2.24,1.25-1.81,2.87.31,1.17.81,2.29,1.06,3.49a5.82,5.82,0,0,0,1,2.28l.09.08a8.71,8.71,0,0,0-.91.11l-1-1.3c0-.31,0-.62,0-.94-.91-.62.65-1.71-.43-2.3-.75-1.27-.66-2.94-1.86-4l-3.15-.07H99l-1-.41-5.41-.13-1.36-.05a77.09,77.09,0,0,0-10.51-.9c-.71-.55-1.59-.24-2.36-.44a1.32,1.32,0,0,0-.74-.36,2.27,2.27,0,0,0,1.2-.59l0-.36.42-.09h0c.44.26.86.61,1.43.47l4.43.1h0c3.68.63,7.41.53,11.11.85l1.8-.05a4.64,4.64,0,0,0,.65.44,9,9,0,0,0,1.68.58,4.62,4.62,0,0,0,3.32-.38v0a1.27,1.27,0,0,0,.44.28,1.49,1.49,0,0,0,1.31-.2v-.1l.18.25a9.35,9.35,0,0,0,4.86.76c.76-.08,1.76.09,1.88-1.13a47,47,0,0,0-8.76-6.38,2.77,2.77,0,0,0-1.78-1,35.88,35.88,0,0,0-10.6-5,3.33,3.33,0,0,0-1.86-.81L85.84,2.55a8.61,8.61,0,0,0-3.77-.83A58,58,0,0,0,56,1.28c-.8.39-1.7.37-2.52.68-1,.56-3.14-.11-2.51,2.26,1.31,1.46,2.33,3.16,3.63,4.63,1.65,1.85,2.69,4.21,4.85,5.61a4.67,4.67,0,0,0,2.46,0l.38-.13a6.56,6.56,0,0,0,2.43.75,3.39,3.39,0,0,0,2.14-.36,1.12,1.12,0,0,0,.14-.26.61.61,0,0,0,.88.1h.11a2.06,2.06,0,0,0-.13.33c1.32,1.25,3,.5,4.44.73.51,0,1,0,1.53,0a13.32,13.32,0,0,1,2.06.31,3.09,3.09,0,0,0-.52.07c-.13.09-.27.17-.41.25l-.64-.14-1.83.2L71.5,16l-1.39,0-5.93-.55h-.91a3.29,3.29,0,0,0-2.71.12h.06a7.08,7.08,0,0,0,3.49,5l0,0c0,.6.45.77.94.87h.14a1.91,1.91,0,0,0,.92,1.32.78.78,0,0,0,.41.12c.06.28.12.55.17.82h.1c0,.05,0,.1,0,.15a1.88,1.88,0,0,0,.53.59c-.16.4,0,.72.39,1l.59.2,7,9.55a1.6,1.6,0,0,0,.41.37l0,.09c.14.56.31,1.1,1,1.16,2.78,3.73,5.51,7.5,8.39,11.15,1.35,1.72,2.29,3.81,4.27,5a1,1,0,0,0,.38,0c-.24.38-.58.72-.43,1.24.32.55.65,1.1,1,1.62a4.26,4.26,0,0,1-1-1.33,6.67,6.67,0,0,0-1.21-.9h-.13a4.6,4.6,0,0,0-1.12-2.11C84.35,48.3,82,45.1,79.53,42c-1.66-2-2.94-4.45-5.2-6l-.07,0h-.09c.17-.21.24-.41-.3-.52l-1-1.32c-2.64-3.17-4.83-6.71-7.72-9.68h0a1,1,0,0,0-.1-.33l-.83-.56h0c-.2-.39-.58-.42-.95-.48l-1.4.05,0-1.3h0c1.32-.37.71-1.1.26-1.68-1-1.32-2.07-2.59-3.11-3.87l-.45-.85L57.8,15l-.95.13-7.32-.46h0l-6-.6-.44.16h-.94l-1.82-.26c-.44.25-1.38.26-.52,1.11h0l-.45.89h.17a1,1,0,0,1,0,.17s-.11-.1-.16-.16H39a.09.09,0,0,1,0-.05,6,6,0,0,1,0-.61c0-.51.68-1.08-.12-1.54-2.14-.06-4.31.42-6.38-.47a20.78,20.78,0,0,0,3.26.11,7.43,7.43,0,0,0,3.24-.4,2,2,0,0,0,.25-.25h.71c.76.28,1.66-.2,2.36.42a1.53,1.53,0,0,0,1,.6c2.23.28,4.51-.25,6.72.37.95.12,1.91.32,2.74-.4h4.32L50.75,5c-.62-.35-1.1-1.29-1.94-.84C46.1,5.6,42.91,5.87,40.3,7.59a3.32,3.32,0,0,1-.44.06v.61a3,3,0,0,0-.23-.53c-.79-.69-1.54-.23-2.29.07C36,8.32,34.79,9,33.48,9.51l-3.2,1.88c-.53,1.57.86,1.51,1.63,1.75a3.71,3.71,0,0,0,.48.1H29.86l-.92-.08a.75.75,0,0,0-.06-.13,1.12,1.12,0,0,0-1,0,37.46,37.46,0,0,0-6.77,5.66l-1.39,1.32c-.69.7-1.68,1.12-2,2.18A40.37,40.37,0,0,0,10.92,31l-.41.54a.44.44,0,0,0,.08.67h0c0,.24-.06.48-.08.72s0,.59,0,.88v2.28l.37.08c0,.3,0,.6,0,.9a15.08,15.08,0,0,1,.5,3.72c.17.28.35.55.53.83h0c0,.33,0,.65,0,1l-.06,1.59c-.5-.92-.22-2-.31-2.94a3.13,3.13,0,0,0-.8-.9A3,3,0,0,0,11,38.19a10.31,10.31,0,0,1-.37-1.82c-.48-.88,0-2.33-1.51-2.61a12.51,12.51,0,0,0-1.82,3.7,22.56,22.56,0,0,0-2.79,6.38c-.23,2-1.3,3.84-1,5.92a5.7,5.7,0,0,0,.22,1.8,5.28,5.28,0,0,1,0,.56h0c0,.17,0,.34-.07.51a2,2,0,0,0-.34,2.25c1.07,1-.59,2.22.34,3.19-.52.62-.91,1.19.39,1.24H4c0,.09.08.17.11.26.89.14,1.38-.48,1.94-1a.86.86,0,0,0,0-.45c2.67-.33,4.59-2,6.41-3.74a2.13,2.13,0,0,0-.2-3.09c-.48-.31-.33-.84-.45-1.27.17-.17.35-.32.51-.5,0-.62.23-1.28.21-1.89a1.66,1.66,0,0,0,.26.41c0,.89,0,1.79.07,2.68l.33.1h0c0,.3,0,.6,0,.9-.18.53-.25,1,.55.94a1,1,0,0,1,.34-.15l1-3,.18,0c1-.4.71-1.39,1-2.1a12.08,12.08,0,0,0,.35-1.17.76.76,0,0,0-.12-.42l.13,0a4.85,4.85,0,0,0,1.17-2c1-2.31,1.76-4.74,2.75-7.06.22-1.07,1.13-2,.69-3.18l-.15-.15c.51-.37,1.07-.72.73-1.54h.05l.06,0,0,0c.43.18.49.57.55,1h0a1.61,1.61,0,0,0-.06.44c-.16.15-.32.3-.47.46-.46,1.1-.48,2.38-1.29,3.35a39.37,39.37,0,0,1-2.77,7.29c0,.27,0,.52,0,.79l-.48,1.89-.47.49L16.5,48c-.42,1.39-.83,2.78-1.34,4.48l1.75-.83c1-.67,2.4-1,2.26-2.69l0-.11,1,.12c.2.09.46.32.58.26,3.92-2,8-3.93,11.43-6.73a1.61,1.61,0,0,0,.44-.05l4.07-2.28a.73.73,0,0,0,.62-.42.59.59,0,0,0-.07-.41l.1-.08a.81.81,0,0,0-.11-.81l.12-.09a1.08,1.08,0,0,0-.09-1h0a1.22,1.22,0,0,0,.34-.82,1.19,1.19,0,0,0-.44-.94h0c.08-.12.17-.23.24-.36a1.84,1.84,0,0,0-.09-.25,2.94,2.94,0,0,0,.58-2.37l0,0a.47.47,0,0,0,.44-.25,2.29,2.29,0,0,0,.41.57l.07,0c-.87.33-.65,1.25-.55,1.86a2,2,0,0,1-.18,1.7,1.61,1.61,0,0,0-.23,1.61,1.25,1.25,0,0,0,.33.26h0c.85,1,1.29.28,1.79-.21a1.38,1.38,0,0,1,.57-.05,1.32,1.32,0,0,0,.73-.54,1.59,1.59,0,0,1,.14-.26,21.54,21.54,0,0,0,2.59-1.29c.09-.11.16-.23.12-.31s-.21-.17-.35-.14a.75.75,0,0,0-.1-.57,2.34,2.34,0,0,0-1.76-.5.76.76,0,0,0-.25.18l-.16,0h0a1.14,1.14,0,0,0-.7-.93,5.73,5.73,0,0,0,.58.07,3.37,3.37,0,0,0,1-.15l.16-.05c.67.42,1.8,0,2.12,1.06a7.29,7.29,0,0,0,.91,1.52,1.67,1.67,0,0,0,.45.39.59.59,0,0,0,.55-.21,4.76,4.76,0,0,0,1.16,1.12,2.53,2.53,0,0,1-1.77-1A4.6,4.6,0,0,0,42.2,38h0l-.88.74-.22-.15a4,4,0,0,0-3.43,1.78l-.12.78,0,1.39c-.37.78,0,1.67-.33,2.45q-.06,3.81-.1,7.62h0a1.14,1.14,0,0,0-.35.13c0,.58,0,1.15,0,1.72q-.47,6.16-.92,12.33A10.88,10.88,0,0,0,39,70.05a2.64,2.64,0,0,0,.12.4c.13.44.36.67.76.54,0,0,0,0,0,0s.07.32.11.48a2.08,2.08,0,0,0-1.09-.22c0-.34-.11-.66-.55-.73l-2.4-2.28c-.8,2.35-.55,4.55-.67,6.71-.72,1.84-.23,3.74-.31,5.62l-.45,1.87c-.14,2.21-.35,4.41-.38,6.62,0,1.53-.71,3.12.22,4.62a1.12,1.12,0,0,0,.88-.13Q42,88.88,48.53,83.78c1-.76.76-1.71.12-2.61S47.39,79.82,46.93,79a1.15,1.15,0,0,1,.36.2c2.89,2.53,2.88,2.53,6,.45a1,1,0,0,1,.22-.09,6.93,6.93,0,0,0,2.53-1.37c-.66.64-1.57,1-2,1.93-1,1.1-2.55,1.56-3.13,3.06a2.23,2.23,0,0,0,.73,1.38,3.86,3.86,0,0,0-1.3-.77c-2.24.16-3.47,2-5.11,3.13-3.88,2.65-7.31,5.92-11.4,8.26l-.5,1a27.64,27.64,0,0,1-.35,6.36c.38,1,1.3,1.15,2.21,1.27h0a10,10,0,0,0-2.21.45,1.46,1.46,0,0,0-.41,1.45c.15.38.31.74.83.59l2.73.44h0a7.39,7.39,0,0,1,1.06-.23c-.19.21-.24.54,0,1.14l2.66.49a54.05,54.05,0,0,0,8.72,2.81L50,109.51c0-.29.07-.59.11-.88a2,2,0,0,0,2-2.32,1.72,1.72,0,0,0-1.3-.6,8.15,8.15,0,0,1-2.51-.36c-2.38,0-4.7-1-7.11-.37a1.1,1.1,0,0,0-.49.44c-.71-.75-1.27-.3-1.81.32a1.18,1.18,0,0,1,0,.2l-.1,0a1.72,1.72,0,0,1-.42.13,1.59,1.59,0,0,0,.6-1.14,5,5,0,0,0-1.32-.78c.92.13,1.83.25,2.74.39a3.57,3.57,0,0,0,2-.57c.26-.71.79-.19,1.19-.27a.05.05,0,0,1,0,0c0,.63.59.74,1.22.81,1.11.12,2.21.31,3.31.48.76.41,1.65,0,2.41.35l.79.08.47,0a3.1,3.1,0,0,0,2.3,0h0c3.34-2.12,5.32-5.55,8-8.27a1.47,1.47,0,0,0,0-1c-.56-.77-.93-1.76-2.06-1.91a22.51,22.51,0,0,1-3.78,2.09,20.19,20.19,0,0,1-2.77,1.44,40,40,0,0,1-4.8,2.54,1.47,1.47,0,0,0,.1-.13,1,1,0,0,1,.09-.35l4.71-2.33a8.4,8.4,0,0,1,2.75-1.43,11.83,11.83,0,0,1,3.09-1.76l.12-.35c-.9-.68-1.26-2-2.5-2.26a1,1,0,0,0-.24-.53l-.23,0,0,0c.22-1-.4-1.58-1-2.15a39.78,39.78,0,0,1-3.39-3.84c1.81,1.53,2.85,3.86,5.06,5,0,.18,0,.37,0,.56a1.18,1.18,0,0,0,1.05,0c.17,1,1.42,1.34,1.6,2.32,1.47,1.2,2.11-.94,3.31-.82A1.42,1.42,0,0,0,64.77,92a7.59,7.59,0,0,1,1.93-.92A13.89,13.89,0,0,0,70,88.75l.34-.38.21,0c.3-.52,1.08-.31,1.38-.82a1.15,1.15,0,0,0,.59.22,2.2,2.2,0,0,0,1.19-.56l.3-.14c-.45.27-.88.59-1.34.85a8.83,8.83,0,0,1-1.39.57,7.8,7.8,0,0,0-2.8,1.84c-.3.36-.61.73-.94,1.07a1.44,1.44,0,0,0-1.66.19,4.49,4.49,0,0,1-.24.42l-.55.07a1.73,1.73,0,0,0-1.4.83c-.6.62-1.92.56-2,1.57,0,.72.68,1.27,1.58,1.2h0l-.06.15.35.28-.1.14a1.49,1.49,0,0,0,.44,1.48c1.06,1,1.71,2.42,3.33,2.69a.8.8,0,0,0-.09.31c.06.38.24.62.66.61l1,.78h0c1.55,1.94,3.59,3.44,4.89,5.6l1,.52c1.08,0,2.13.51,3.24.24l.73.11a1.3,1.3,0,0,0,.14.26,2,2,0,0,0,.36.31l-.49-.09c-1-.16-2.15-.59-2.57.91l6,6.36h1.24a.63.63,0,0,0,.27.4,1.51,1.51,0,0,0-.34.9,1.1,1.1,0,0,0,.56.75,1.3,1.3,0,0,0,.62,0,1.4,1.4,0,0,1,1-.18,3.84,3.84,0,0,0-.46.11,1.48,1.48,0,0,0-.74.7,3.49,3.49,0,0,0,.59,1.49,4.88,4.88,0,0,1-.81-.83A3,3,0,0,0,82,119c-1.52.34-3.19.18-4.47,1.32,0,1.43,1.29,1.05,2,1.47l5.25,1.47c.47,1,1.69.6,2.32,1.29l.22-.23c0-1-.38-1.5-1.29-1.58a1.77,1.77,0,0,0-.22-1.19c.61.53,1.28,1,1.85,1.56.72.4,1.22,1.07,2,1.42l.3,0,5.94-.37,5.06-.6,1.8.06a4.21,4.21,0,0,0,1-2.74c.31-1.52.63-3,.95-4.58v-.45C105.17,114.19,104.17,114.17,102.92,114.36ZM119.1,25.91c0,.12,0,.24,0,.36a1.7,1.7,0,0,1,0-.22ZM101.34,44.36h0l.06,0,0,0h0ZM103.17,43h0Zm6.26-4.4a.57.57,0,0,0-.48-.31,1.42,1.42,0,0,0,.32-1,2.47,2.47,0,0,1,.15,1.32S109.43,38.56,109.43,38.57ZM113.06,31a1.91,1.91,0,0,0-1-.12v0s0,0,0-.07a6.27,6.27,0,0,0,1-.2A.61.61,0,0,0,113.06,31Zm-3.52-1.34h0a1.4,1.4,0,0,1-.1-.16l.13,0a.5.5,0,0,0,0,.12Zm-23.16-23a.88.88,0,0,0-.32-1.06c.79.07,1.54.22,1.64,1.26A1.06,1.06,0,0,0,86.38,6.64ZM75.65,14.69a.49.49,0,0,0,0,.12l0,.06-.3,0ZM46.09,101.48l.09-.09a1.11,1.11,0,0,0,.29.07c-.44.23-.87.47-1.3.73ZM83.16,75.31a1.35,1.35,0,0,0-.53,0c0-.16-.13-.23-.31-.24a1.1,1.1,0,0,0,.38-1,.57.57,0,0,0,.25-.28,1.69,1.69,0,0,0,.92.53.86.86,0,0,0-.2.43,11.27,11.27,0,0,0,.73,1.57A5.71,5.71,0,0,0,83.16,75.31ZM97.8,64.76a1.68,1.68,0,0,0,0,.63,1.41,1.41,0,0,0-1,.06h0l.09,0A1.9,1.9,0,0,1,97.8,64.76ZM85.58,71.6a.34.34,0,0,0,0,.24l0,0a.33.33,0,0,1-.25-.27ZM24.77,24.28a1.21,1.21,0,0,0,.56-.51.49.49,0,0,0,.23.06,1.47,1.47,0,0,0-.46,1.28.59.59,0,0,0,.17.1.76.76,0,0,0,0,.15l-.16,0a.92.92,0,0,0-.34.19,2,2,0,0,0-.24-.45C25,25,25,24.68,24.77,24.28Zm10,6.7c0-.14-.06-.28-.1-.41.15.17.3.33.46.48l-.34,0S34.8,31,34.8,31Zm-2.33-1.11-.26-.29a3.48,3.48,0,0,0,.62.21A1.17,1.17,0,0,0,32.47,29.87Zm-2.06-2c.41.33.9.58,1.11,1.08l-.11-.08a15.84,15.84,0,0,0-2.92-1,1,1,0,0,0,.06-.33c.38.29.76.58,1.31.29,0,0,0-.05,0-.07A.54.54,0,0,0,30.41,27.87Zm-2.79-9.18v0l0,0Zm9,13.25a2.7,2.7,0,0,0-.18-.25,1.77,1.77,0,0,0,.4,0A.72.72,0,0,0,36.6,31.94ZM28.47,16.48l0,0h0ZM16.63,32h0Zm6.13-2.43a2.64,2.64,0,0,0,1.15-1.43,5.36,5.36,0,0,0,.35-1.46.84.84,0,0,0,.42-.12.21.21,0,0,0,0-.06h.06l-.09.86h0c-.27.5-.54,1-.82,1.51,0,.27-.05.54-.08.82l-.9,1.84-.26-.28a2.55,2.55,0,0,0,.2-.48A2,2,0,0,0,22.76,29.56Zm16.13-5.41h0Zm20,3.48a.56.56,0,0,0,.15.1l-.09.17-1.15.4a1.21,1.21,0,0,1,0-.19l.07-.06a.65.65,0,0,0,.07-.29,2.13,2.13,0,0,0,.87-.1Zm-6,.7a.9.9,0,0,0,0-.46,3.05,3.05,0,0,0,1.34-.21,6.11,6.11,0,0,0-1.06,1l0,0A1.46,1.46,0,0,0,52,29a1.55,1.55,0,0,0-.14-.29A1.1,1.1,0,0,0,52.83,28.33Zm6.3,6h0a.54.54,0,0,1,.27-.09c-.06,0-.14.1-.2.16A.46.46,0,0,1,59.13,34.3Zm-2.39-7.88a.91.91,0,0,0,0,.49A3.78,3.78,0,0,0,55,27.2a7.73,7.73,0,0,0,1.31-1.31,2,2,0,0,1,.06-.35l.26-.06,0,.05c.55.28.85,0,1-.48h0s0,.07,0,.11a1.88,1.88,0,0,0,.42.38A3.3,3.3,0,0,0,56.74,26.42Zm-.31,8.24a1.69,1.69,0,0,0-.08.24l-.11-.06Zm6.34.53h0ZM38.67,23h0Zm9.74,8.52h.19l-.06,0Zm-1,2.34a1.92,1.92,0,0,0,1.44-.2,1.12,1.12,0,0,1-.17.47l-.44,0a4.82,4.82,0,0,0-1,.3A1.54,1.54,0,0,0,47.38,33.85ZM62.92,73.11l.23-.18A1.81,1.81,0,0,1,62.92,73.11ZM64.5,72l.23-.17Zm-24.07.15a3.42,3.42,0,0,0,.45.73,3.61,3.61,0,0,0-.61-.5A1,1,0,0,0,40.43,72.1Zm35.41-7.8h0a1,1,0,0,0-.61.18l-1.79,1.38a.4.4,0,0,0-.49.12l-.39.54-.11,0a2.06,2.06,0,0,0-1.69.71,2.92,2.92,0,0,0,.89-1.3c.29.17.42-.11.55-.37v-.1h.21A3.91,3.91,0,0,0,75,63.61h.2a1,1,0,0,0,.52-.75,1.29,1.29,0,0,0,.8.09,4.79,4.79,0,0,0,.45-.25,2.88,2.88,0,0,0-.32.52,2.34,2.34,0,0,0-.09.38ZM78.17,61a.74.74,0,0,0,.66,0,.51.51,0,0,0,.07-.15l.32.37a.14.14,0,0,0,0,.06c-.38-.14-.63.11-.88.36a.58.58,0,0,0,0,.39,1.65,1.65,0,0,0-.79.21,3.62,3.62,0,0,0,.61-.91A1.53,1.53,0,0,0,78.17,61ZM4.09,52.16h0L4,52.25v0H4Zm8-5.61v0c0-.57.16-1.13.1-1.69A7.35,7.35,0,0,1,12.37,47,1.34,1.34,0,0,0,12.06,46.55ZM38.58,27h0a.7.7,0,0,1,0-.14l.09,0-.06.12ZM35.43,78l0,.07a.81.81,0,0,1,0-.15S35.42,77.94,35.43,78Zm55.2,39.28a2.08,2.08,0,0,0-.53.45,2.08,2.08,0,0,0-.6-.22A10.77,10.77,0,0,0,90.63,117.25Zm4.63-6.43a.61.61,0,0,0,.12.15,2.93,2.93,0,0,0-.58.06l-.3.13c0-.14.23-.27.4-.4l.07,0,.18,0ZM90.1,81.33a.41.41,0,0,1-.11,0,.2.2,0,0,0,0-.15A.28.28,0,0,1,90.1,81.33Zm-3.71,36.93A1,1,0,0,0,87,118q.42-.12.87-.21l-.71.3a.65.65,0,0,0-.15.58h0A1.73,1.73,0,0,0,86.39,118.26Z"/><path class="cls-1" d="M59.61,127.43l.83-.09c.36-.23.8-.18,1.19-.33a11.84,11.84,0,0,1,1.53.49,1.87,1.87,0,0,0,.91.07.85.85,0,0,0,.59-.65h0a.58.58,0,0,0,0,.16,1.56,1.56,0,0,0,1.76-.14l1.19-.06c.94-.43,2,.09,2.93-.37L84,125.18c0-.16,0-.32,0-.49l-8.36-2.9-.55-.45a1.67,1.67,0,0,0-2.26.1c-1.07.92-2.59,0-3.67.89-.27.07-.57.07-.84.14a2.21,2.21,0,0,0-.73-.22,6.44,6.44,0,0,0-1.8.18c-5.13,1-10.18,2.36-15.29,3.5-1.59.36-3.33.4-4.7,1.52,0,1,.83.7,1.33.93a4,4,0,0,0,2.67.55,11.09,11.09,0,0,0,2.3-.17,10.64,10.64,0,0,1,3.27-.46,4.45,4.45,0,0,0,1.45-.15C57.65,127.39,58.73,127.79,59.61,127.43Z"/><path class="cls-1" d="M45.85,126.54a2.31,2.31,0,0,0,2.21-.58,1.13,1.13,0,0,1,.14-.36c4.4-.76,8.74-1.87,13.19-2.45a80.14,80.14,0,0,0,8.18-1.79c.54-.12,1.21-.28,1.29-1,0-.18-.52-.43-.8-.66a1.51,1.51,0,0,0-1-.88c-6.52-2.17-12.91-4.7-19.51-6.63-.88.12-1.79.19-1.94,1.36-.09.66-.68,1-1,1.45-1.57,2.19-3.9,3.74-5.21,6.14a.81.81,0,0,0-.57.25,1.1,1.1,0,0,1,0,.18h0c-2.38,1.13-3.21,2.18-3.06,3.85l4.06,1.42a.88.88,0,0,0,1.32.06l2.29-.55Z"/><path class="cls-1" d="M11.87,100.37c.78.44,1.57.8,2.32-.06l-1-.4h0l-1.72-.44a.31.31,0,0,0,0-.1c-1.27-.05-2.32-1-3.64-.86l.89,1.34.79.08h0A4.72,4.72,0,0,0,11.87,100.37Z"/><path class="cls-1" d="M52.82,129.29l-1,.86c.54.82,1.66,0,2.2.77.24-.83,1.56-.56,1.66-1.6l-1.55-.14Z"/><path class="cls-1" d="M122.91,70.07l3.21-8.13c.21-.54.36-1-.48-1.1-1.37.63-2.54,1.69-4.12,1.84a1,1,0,0,0-1,.38c-.15-.05-.34.07-.51.13-.41.32-1,.48-1.17,1a4,4,0,0,0-2.56,1.31c-.06.11-.11.21-.16.32a4.45,4.45,0,0,0-2.58.72,1.64,1.64,0,0,0-.64.85,2.86,2.86,0,0,0,.21,2.13c.78,1.08,2,1.16,3.15,1.37.28.11.32.61.76.44a12.05,12.05,0,0,0,3.64,1.94c.85.29,1.67.54,1.46-.9,0-.46,0-.93-.08-1.4A.82.82,0,0,0,122.91,70.07Z"/><path class="cls-1" d="M52.4,109.5h-.09a5,5,0,0,0-2.16,1.32c-.73,1.35.41,1.63,1.2,1.88,6.71,2.13,13.2,4.89,20.09,6.43.28.3.59.52,1,.31.37.07.81,0,.91.54l2.18,0a5.13,5.13,0,0,1,1.56-.14,9.24,9.24,0,0,1,4.52-.75,1.24,1.24,0,0,0,.53-.34.73.73,0,0,0-.06-.61c-1.54-.61-1.28-2.89-3.07-3.25l-.27.05a5.89,5.89,0,0,0-1.58-1.68.5.5,0,0,1,0-.13,1,1,0,0,0-1-1l-.05,0c-.12-1.55-1.25-2.45-2.23-3.43a5.4,5.4,0,0,0-1.26-.6,3.31,3.31,0,0,0-.71-.14,47.5,47.5,0,0,1-7.33-.8c-1.25-.27-2.57,0-3.79-.49l-.56,0,2.56.12,3.67.48c1.8-.28,3.59,1.1,5.39,0l-4.53-5.07A.72.72,0,0,0,67,102a.89.89,0,0,0-.57-.91,1.82,1.82,0,0,0-.33,0c-.26-1.43-1.49-2.22-2.23-3.33a1.59,1.59,0,0,0-1.57-.36c-2.45,2-4.2,4.75-6.55,6.89-.43.39-.84.94-.2,1.55h3.12l.46.5.52.31a2.62,2.62,0,0,0-2.25.63,1.63,1.63,0,0,0-1-.76,1.51,1.51,0,0,0-1,.09l-.11.09a1.29,1.29,0,0,0-1.07-.31,1.56,1.56,0,0,0-1.11.67.65.65,0,0,0,0,.62c0,.16.07.31.1.47C52.63,108.41,52.54,109,52.4,109.5Zm22.27,6.08s0-.08,0-.12h.06A1.17,1.17,0,0,1,74.67,115.58Z"/><path class="cls-1" d="M31.64,97.17c-1.67,1.21-3.11,2.75-5.08,3.54l-.94,1c.91.9,2.26.26,3.24.91,1.29.27,2.82.89,3.34-.95C32.63,100.16,33.69,98.41,31.64,97.17Z"/><path class="cls-1" d="M101.47,64.07a54.65,54.65,0,0,1,6,3.25,2.75,2.75,0,0,0,1.33.51c1.41,0,2.79,0,3.48-1.55l.12-.8c.45-2.45.89-4.91,1.34-7.36,0-.65-.3-1.34.28-1.9.27-.89-.14-2,.76-2.67-.41-.58-.06-1.19-.07-1.78l.39-.54.06-2.26.45-1.85c0-.16-.06-.33-.1-.49.29-1.57.57-3.13.86-4.7v-.72c-.44-1-1.34-1-2.23-1.1-.73,0-1.07.4-1.27,1a2.51,2.51,0,0,0,0,.82.67.67,0,0,0-.73.26l-5.35,4.39a2.42,2.42,0,0,0-1.69,1.89c0,.1,0,.2,0,.3l-.16.15a1.71,1.71,0,0,0-.45,0c-.42.7-1.5.58-1.81,1.43h0c-2.09,1.88-4.24,3.71-6.26,5.67-1,1-2.62,1.64-2.89,3.35a1.64,1.64,0,0,0,2.09,1.21l.14-.07a.69.69,0,0,0,0,.25l.48,0,.89.53a4.22,4.22,0,0,0,2,.9s0,.05,0,.07C99.59,63.35,100.62,63.61,101.47,64.07Zm1.24-11.88a4.34,4.34,0,0,0,.53.26l0,0a4.84,4.84,0,0,0-1.07,1.93.8.8,0,0,1-.39-.4l0,0C101.77,53.21,102.39,52.77,102.71,52.19Z"/><path class="cls-1" d="M34,107.73c.23-.4-.17-.48-.44-.55a.6.6,0,0,0-.76.33c-.12.33.09.56.56.67C33.5,108.06,33.84,108,34,107.73Z"/><path class="cls-1" d="M31.8,104.23l-.24-.19-1.65-.13a3.56,3.56,0,0,0-3,0l1.57.52.91.5,2.21.43h0A.78.78,0,0,0,31.8,104.23Z"/></g></g></svg>