<svg xmlns="http://www.w3.org/2000/svg" viewBox="0 0 87.42 33.22"><defs><style>.cls-1{fill:#010101;}</style></defs><title>Asset 195mdpi</title><g id="Layer_2" data-name="Layer 2"><g id="Layer_1-2" data-name="Layer 1"><path class="cls-1" d="M.42,8.07A1.18,1.18,0,0,1,1.08,6c4.61-.42,7.2,1.69,9.48,3.55s4.12,3.36,7.78,3,5.26-2.2,7.12-4.37S29.54,3.43,34.15,3s7.2,1.69,9.49,3.55,4.12,3.36,7.78,3,5.26-2.2,7.12-4.36S62.62.47,67.24.05s7.2,1.7,9.48,3.55,4.12,3.36,7.78,3A1.18,1.18,0,0,1,84.71,9c-4.61.41-7.2-1.7-9.48-3.55s-4.13-3.36-7.78-3-5.26,2.2-7.12,4.37-4.09,4.77-8.7,5.18-7.2-1.69-9.48-3.55S38,5,34.37,5.37s-5.26,2.2-7.12,4.37-4.09,4.77-8.7,5.18-7.2-1.69-9.48-3.55S4.94,8,1.29,8.34A1.21,1.21,0,0,1,.42,8.07Z"/><path class="cls-1" d="M1.24,17.19a1.18,1.18,0,0,1,.65-2.08c4.62-.41,7.2,1.69,9.49,3.55s4.12,3.36,7.78,3,5.26-2.2,7.11-4.36,4.09-4.77,8.7-5.19,7.2,1.7,9.49,3.55,4.12,3.36,7.78,3,5.26-2.2,7.11-4.37,4.09-4.77,8.7-5.18,7.2,1.69,9.49,3.55,4.12,3.36,7.78,3a1.18,1.18,0,1,1,.21,2.35c-4.61.41-7.2-1.69-9.48-3.55s-4.13-3.36-7.79-3-5.26,2.2-7.11,4.36-4.09,4.77-8.7,5.19-7.2-1.7-9.49-3.55-4.12-3.36-7.78-3-5.26,2.2-7.11,4.36S24,23.63,19.37,24s-7.2-1.69-9.49-3.55-4.12-3.36-7.78-3A1.15,1.15,0,0,1,1.24,17.19Z"/><path class="cls-1" d="M2.06,26.32a1.21,1.21,0,0,1-.42-.81,1.18,1.18,0,0,1,1.07-1.28c4.62-.41,7.2,1.7,9.48,3.55s4.13,3.36,7.78,3,5.26-2.2,7.12-4.37,4.09-4.77,8.7-5.18S43,23,45.27,24.82s4.13,3.36,7.78,3,5.26-2.2,7.12-4.37,4.09-4.77,8.7-5.18,7.2,1.69,9.49,3.55,4.12,3.36,7.78,3a1.18,1.18,0,0,1,.21,2.35c-4.62.42-7.2-1.69-9.49-3.55s-4.12-3.36-7.78-3S63.82,22.85,62,25s-4.09,4.77-8.71,5.18-7.2-1.69-9.48-3.55-4.12-3.36-7.78-3-5.26,2.2-7.11,4.37-4.09,4.76-8.7,5.18-7.2-1.7-9.49-3.55-4.12-3.36-7.78-3A1.23,1.23,0,0,1,2.06,26.32Z"/></g></g></svg>