<svg xmlns="http://www.w3.org/2000/svg" viewBox="0 0 128.51 127.44"><defs><style>.cls-1{fill:#010101;fill-rule:evenodd;}</style></defs><title>Asset 139mdpi</title><g id="Layer_2" data-name="Layer 2"><g id="Layer_1-2" data-name="Layer 1"><path class="cls-1" d="M28.22,104.3c.08.6.13,1.19,1,1.23.44,0,.58.5.89.73a1.14,1.14,0,0,0,.9-.12l.06,0a3.46,3.46,0,0,1,.22.31c.21,0,.44.15.54-.16a4.64,4.64,0,0,1,.51-.11c.14,0,.25-.06.29-.21a1.73,1.73,0,0,0-.07-1.08c.09-.19.18-.38.25-.57s0-.14-.06-.22-.17,0-.2.1a3.22,3.22,0,0,0-.21.46l-.54-.11c-.12-.34.08-.88-.57-.89a.6.6,0,0,1-.51-.4c-.06-.11-.13-.24-.3-.18-.47.17-.88-.23-1.34-.12C28.34,103.55,28.28,103.64,28.22,104.3Z"/><path class="cls-1" d="M60.08,8.14a.81.81,0,0,0,.62.47c.1,0,.22-.12.34-.19.13.25.49.34.49.7,0,0,.21.06.34.09h0l0,0h0c0,.18,0,.41.21.4.57,0,1.17,0,1.5-.63.56.19.76.11.8-.35a2.91,2.91,0,0,0,0-.51.42.42,0,0,0-.19,0c-.14-.17-.33-.46-.49-.37-.72.4-.6-.28-.79-.56a1.3,1.3,0,0,0-.17-.08V7l.11,0,.11,0c0-.48,0-.48-.4-.58,0-.46-.27-.66-.61-.86-.16,0-.37,0-.43.2,0,0,.2.14.26.24s0,.32-.14.46c-.27.08-.15.19,0,.3h0l-.12,0a1.64,1.64,0,0,0-.54,0c.51-1.08.44-1.22-.42-1.45a3.15,3.15,0,0,1-.33.22c-.24.1-.51.08-.59.44s-.13.71.18,1A6.27,6.27,0,0,0,60.08,8.14Z"/><path class="cls-1" d="M22.69,82.39a.21.21,0,0,0-.23,0l-.3,0a.64.64,0,0,0-.54,0l-.49.21a.59.59,0,0,0-.53-.25.37.37,0,0,0-.3-.29h0c-.52-.58-.57-.57-.85.07l-.05,0-.29,0c0-.6,0-.61-.55-.58-.16,0-.33.06-.49.08s-.52.16-.56.49c-.37.41-.37.41-.05.66v.1c-.21.31-.35.68-.09,1s.42.7,1,.6c.25,0,.57.24.79-.14h0c.28.1.41,0,.49-.29s.33-.41.55-.21a1,1,0,0,0,1.2.24c.22-.1.36.17.53.31s.69.11.66-.06c-.09-.48.59-.62.4-1.09C23.26,82.71,23.22,82.62,22.69,82.39Zm-3.61,1.72a.43.43,0,0,1-.06-.18l.09.1,0,.06S19.09,84.11,19.08,84.11Z"/><path class="cls-1" d="M76,22a6.81,6.81,0,0,0,.63.41A3.08,3.08,0,0,0,78.33,24c0,.17.13.25.27.21.4-.1.46-.3.27-.82v0l0,0c.13,0,.31.05.38,0,.26-.24.06-.68-.36-.86-.09-.65-.66-.92-1-1.36-.6-.74-1.17-.78-1.66-.1a4,4,0,0,0-.24.46h0C75.78,21.69,75.87,21.86,76,22Zm2.82,1.3v0l0,0Z"/><path class="cls-1" d="M87.4,113.58c0-.38.08-.83-.52-.87,0,0,0-.15-.07-.22v0c.1,0,.22,0,.19-.16s-.11-.06-.18-.09h0c-.18-.37-.57-.13-.83-.27h0c-.07-.27-.27-.29-.49-.24a5.89,5.89,0,0,0-.59.21c-.41-.23-.43-.22-.58.28-.24,0-.34-.18-.48-.3s0-.45-.29-.45-.33.22-.38.42c-.24.52-.23.66,0,.92h0l.58.53c.31.5.45.5.81,0a.31.31,0,0,0,.3-.26h.23a1.21,1.21,0,0,0,.56.51l.26.34c0,.15.07.23.22.23.07.15.16.26.35.22s-.12.19,0,.12a3.21,3.21,0,0,0,.9-.86C87.59,113.48,87.44,113.76,87.4,113.58Z"/><path class="cls-1" d="M112.46,109.75a4.5,4.5,0,0,0-.43-.27,2.27,2.27,0,0,1-.57-1.45.56.56,0,0,0-.54-.51,1,1,0,0,0-1.12,1.13,5,5,0,0,0,.12.53.52.52,0,0,0,.73.45.6.6,0,0,1,.61.09c.32.37.78.3,1.19.35a.23.23,0,0,0,.15-.15C112.6,109.86,112.52,109.79,112.46,109.75Z"/><path class="cls-1" d="M51.55,65.24c-.07-.14-.21-.14-.34-.08L51,65.3c-.26-.19-.71-.23-.54-.73a.81.81,0,0,0,.63,0,.31.31,0,0,0,0-.22.54.54,0,0,0-.33-.11c-.27,0-.64-.14-.74.3l-.11,0-.1.07c-.18-.08-.44,0-.54-.25s-.36-.22-.56-.32a.17.17,0,0,0-.1.23.21.21,0,0,1,0,.25.45.45,0,0,0-.08.23h-.09s.05-.08.05-.06c.11-.27-.08-.62.21-.86.12-.08.16-.3.09-.3a4.63,4.63,0,0,1-1.75-.53,1.55,1.55,0,0,0-.53,0,2.65,2.65,0,0,0-.3,1v-.54l-.22.15c-.15.1-.33.22-.25.41s.27.12.43.1c-.42.54-.19,1,.09,1.56s.64.08.94.21a3.86,3.86,0,0,0,.91.17c0,.12.06.23.17.22s.15-.16.22-.25l.1,0,.08-.07c.09.09.24.17.26.27a.64.64,0,0,0,.83.59l.28,0c.63.09.88-.34,1.09-.82a4.23,4.23,0,0,0,.32-.42A.32.32,0,0,0,51.55,65.24Z"/><path class="cls-1" d="M38.89,53.86l.23-.59a2.23,2.23,0,0,1,0-.23.32.32,0,0,0-.25,0C38.49,53.47,38.49,53.53,38.89,53.86Z"/><path class="cls-1" d="M83.33,103.58s0-.08,0-.13c.36-.43.06-.78-.25-1-.78-.45-1.6-.82-2.41-1.19-.41-.19-.65-.1-1.36.36-.47.3-.56.43-.42.7s.34.64.53.94.47.25.64-.15.36-.23.54,0l0,.36c0,.08,0,.2.06.25a1.39,1.39,0,0,0,1.73.45A4.71,4.71,0,0,1,83,104C83.54,104,83.54,104,83.33,103.58Z"/><path class="cls-1" d="M25,96.36c.28-.21.5-.49.79-.69a0,0,0,0,1,0,0c.05.26.11.52.54.42.26-.14.26-.46.44-.66s.08-.32,0-.36c-.45-.19-.27-.75-.63-1,0-.29.08-.66-.41-.67-.59-.61-1.47-.49-2.16-.87-.21-.12-.52.07-.54.43-.13.17-.25.37-.5.39,0-.12,0-.22-.17-.2s-.08.15-.06.19a1.32,1.32,0,0,0,.22.26.85.85,0,0,0,.52.56c0,.09,0,.2,0,.26-.48.64.09,1,.36,1.48,0,0,.16,0,.22,0s.13-.24.31-.17.15.26.16.43.26.11.41.14v0c.18.3.48.28.77.28A.41.41,0,0,0,25,96.36Z"/><path class="cls-1" d="M122.18,75v0h0v0Z"/><path class="cls-1" d="M122,74.68a.27.27,0,0,0-.23.08c-.1.18.08.18.17.21a.58.58,0,0,0,.22,0C122.18,74.82,122.14,74.71,122,74.68Z"/><path class="cls-1" d="M99.63,117.77l-.09.08.31.16.08-.18C99.86,117.65,99.74,117.72,99.63,117.77Z"/><path class="cls-1" d="M103.28,61c.38-.31.37-.37,0-.55C103.26,60.61,103.27,60.79,103.28,61Z"/><path class="cls-1" d="M102.56,62.76s.06.1.08.1a2.18,2.18,0,0,0,.23-.09s-.05-.09-.09-.11A.15.15,0,0,0,102.56,62.76Z"/><path class="cls-1" d="M97.4,109.56l.13-.19-.16-.09a.67.67,0,0,0-.05.19S97.37,109.53,97.4,109.56Z"/><path class="cls-1" d="M89.11,17.15a.78.78,0,0,0-.24.09c0,.05.08.13.14.16a.14.14,0,0,0,.22-.08C89.19,17.26,89.16,17.16,89.11,17.15Z"/><path class="cls-1" d="M76.63,91.4a.36.36,0,0,0,.31.3c.14.15.32.33.5.11s.09-.38-.19-.43a.65.65,0,0,0-.21-.06c-.32-.29-.41-.28-.6.06l.07.06Z"/><path class="cls-1" d="M76.44,91.38l0,0h0v0h0Z"/><polygon class="cls-1" points="99.08 116.48 99.04 116.39 98.99 116.47 99.08 116.48"/><polygon class="cls-1" points="30.49 76.75 30.57 76.76 30.54 76.67 30.49 76.75"/><path class="cls-1" d="M42.3,98.31s0,0-.08.06.05.07.07.07.05,0,.08-.06S42.32,98.31,42.3,98.31Z"/><path class="cls-1" d="M70.73,70.71s0,.05.06.08l.08-.07-.06-.08S70.73,70.68,70.73,70.71Z"/><path class="cls-1" d="M42.7,98.81l-.4.25C42.46,99,42.62,99,42.7,98.81Z"/><path class="cls-1" d="M61.34,124.3l-.19.1a1.18,1.18,0,0,0,.19.11A.74.74,0,0,0,61.34,124.3Z"/><path class="cls-1" d="M60.56,125.06l.1,0h.11a.41.41,0,0,0,0-.22A.2.2,0,0,0,60.56,125.06Z"/><path class="cls-1" d="M29.16,62.68s-.06,0-.09.07l.12.09a.56.56,0,0,0,0-.08S29.19,62.68,29.16,62.68Z"/><path class="cls-1" d="M124.43,59.71c0,.17.11.18.23.18s0-.19,0-.28S124.44,59.67,124.43,59.71Z"/><path class="cls-1" d="M63.85,7.32l.21.2C64.07,7.37,64,7.31,63.85,7.32Z"/><path class="cls-1" d="M114.85,40.21l0,0c.19.26,0,.73.47.82,0,.16-.16.17-.28.22-.36.16-.41.34-.16.53l.33.23c.35.19.46.13.75-.4h0l.09,0,.1,0c.09.42.16.84.64,1a2.13,2.13,0,0,1,.43.31c0,.19.14.26.32.27.29.34.36.34.59,0,.29-.08.68.23.86-.23a2.19,2.19,0,0,0,.23-.58c0-.24,0-.52-.31-.59l-.15.21a.32.32,0,0,0,0-.09l.07,0,.1-.11c0-.22,0-.45,0-.67a.86.86,0,0,0-.69-1c-.54-.15-.5-1-1.12-1.06-.06,0-.12-.25-.11-.37,0-.43-.28-.52-.58-.63-.49-.16-.79.32-1.22.35,0,.57-.54.93-.53,1.49C114.59,40,114.76,40.12,114.85,40.21Z"/><path class="cls-1" d="M100.11,61.47c.06.41.59.25.59.63s.29.48.62.56.44.12.53-.35c.05-.31.12-.39.38-.13s.48-.11.74-.11a1.43,1.43,0,0,0-.63-1.69l-.1-.07,0,0a.23.23,0,0,0,0-.21c0-.1-.14-.11-.22,0a.47.47,0,0,0-.09.12,2,2,0,0,1-.4-.46c-.1-.48.29-.75.5-1.09.24,0,.4,0,.41-.4-.11-.19.08-.32.09-.49,0-.35-.31-.21-.47-.32l-.76-.55a.34.34,0,0,0-.25-.29c-.19-.19-.36-.39-.55-.56s-.38-.21-.53.06l-.33.55c0,.29-.65.27-.31.77.17.26-.13.76.35.93h0l0,0,0,0c-.14.25.21.44.15.58a2.17,2.17,0,0,0,.14,1.66A5.38,5.38,0,0,1,100.11,61.47Zm.6-4.73a.32.32,0,0,0,0,.14l0-.16Zm0,.17v0a.19.19,0,0,0,0,.08l-.07.07A.55.55,0,0,1,100.69,56.91Z"/><path class="cls-1" d="M93.66,79.27c.09,0,.11.22,0,.35l-.25.11c-.15.08-.37,0-.46.16s.25.33.52.27a1.94,1.94,0,0,0,.47-.25,1.37,1.37,0,0,1,1.7-.31c.26.08.51,0,.78.13a.49.49,0,0,0,.67-.27c.07-.31.28-.44.45-.63a.35.35,0,0,0,.07-.36,1.23,1.23,0,0,0-1.3-1c-.14,0-.33,0-.4-.06-.45-.56-1.21-.46-1.75-.85a.59.59,0,0,0-.89.18,3.24,3.24,0,0,0-.37,1.64C92.94,78.73,93,79.27,93.66,79.27Z"/><path class="cls-1" d="M32.45,8.71A1.72,1.72,0,0,0,32.86,10c-.14,0-.22.14-.06.23a.24.24,0,0,0,.37-.18c.48,0,.78.42,1.21.55.76.21,1.41.37,1.46-.8a.57.57,0,0,1,.08-.26.42.42,0,0,0,0-.49.67.67,0,0,0-.64-.42.12.12,0,0,0-.19-.06c-.22-.49-.4-1-.67-1.48a1.27,1.27,0,0,0-.82-.67c-.35-.08-.45.24-.68.34a2.44,2.44,0,0,1-.26.06c-.4.2-.58.48-.41.85A1.64,1.64,0,0,1,32.45,8.71Z"/><path class="cls-1" d="M44.82,93.52A.76.76,0,0,0,45,94.66a20.82,20.82,0,0,0,1.83,1.07,1.66,1.66,0,0,0,.57.12l.36,0a1.49,1.49,0,0,0,1.44-1.47.47.47,0,0,0-.13-.36c-.54-.45-1.05-1-1.86-.89a.5.5,0,0,1-.58-.26c-.21-.44-.6-.41-.93-.33s-.73.17-.63.69C45.08,93.3,44.9,93.41,44.82,93.52Z"/><path class="cls-1" d="M50.41,30.83h0c-.18-.13-.27-.43-.58-.3a2,2,0,0,0-.64,1.67c.06.31.43.48.38.84a1.42,1.42,0,0,0,.56.82c.51.54,1.07.94,1.85.46a.71.71,0,0,1,.26-.05c.22,0,.28.11.36.29.19.47.32.49.55.17.1-.15.18-.31.28-.45.32-.43.34-.59,0-1-.17-.21-.36-.4-.32-.7-.33-.22-.68-.42-1-.61a.25.25,0,0,0,.23-.25c-.17,0-.28.07-.27.24-.36-.05-.7-.1-.81-.53a1.74,1.74,0,0,0-.29-.25C50.76,31,50.5,31.05,50.41,30.83Z"/><polygon class="cls-1" points="50.92 31.14 50.91 31.14 50.92 31.14 50.92 31.14"/><path class="cls-1" d="M75.59,11.49c.3,0,.39.61.77.27.17-.16.25-.25.34,0,0,.09,0,.22.19.22,1,0,1,0,1.75.53a.51.51,0,0,0,.81-.19,7.33,7.33,0,0,0,.2-.93c.1-.57-.29-.94-.61-1.3s-.66-.24-.8-.65c-.2-.57-.73-.12-1.07-.29-.17-.09-.38-.42-.54-.08s-.43.08-.65.1a.29.29,0,0,0-.19.15c-.07.26-.32.48-.21.77a1.46,1.46,0,0,1-.09,1C75.44,11.31,75.41,11.48,75.59,11.49Z"/><path class="cls-1" d="M47.88,110a1.13,1.13,0,0,1,.32.43c.11.24.38-.19.51.17s1,.41,1.09.28c.34-.4.82-.74.88-1.3a1,1,0,0,0-.64-.92.39.39,0,0,1-.17-.19,1,1,0,0,0-.86-.75c-.46,0-.42-.73-.93-.68l-.13,0h-.32c-.42,0-.47.5-.83.58-.13,0-.22.22-.13.32.34.43.08.82,0,1.24a.48.48,0,0,0,.18.58l0,0c.17.27.45.26.72.27C47.64,110,47.81,109.93,47.88,110Z"/><path class="cls-1" d="M21.61,21a.53.53,0,0,0,0,.25c-.27.37,0,.65.17,1,.54-.29.76.36,1.18.41.29-.42.58-.33.85,0,.48.56.75.59,1.14.13a1.53,1.53,0,0,0,.26-.31.57.57,0,0,0-.13-.84,1.62,1.62,0,0,1-.78-1.2c-.07-.45-.7-.72-1.23-.62-.14,0-.26.08-.35-.05a5.09,5.09,0,0,0-.31-.45c-.32-.37-.6-.34-.88,0a2,2,0,0,0-.3,1.14C21.21,20.72,21.39,20.88,21.61,21Zm.61.11Z"/><path class="cls-1" d="M96,45.78c-.07.29.2.48.5.37.12,0,.28-.22.34-.19.22.11.1.31,0,.47-.13.32-.18.57.19.81a3.18,3.18,0,0,1,.62.69c.17.21.42.11.63.18.46.36.63.36,1.13,0l.49-.3c.37-.19.37-.26,0-.54,0-.29.33-.65-.22-.78-.19-.19,0-.72-.57-.56a3.05,3.05,0,0,1-.48-.47c-.56-.84-.59-.88-1.36-1.25-.16-.08-.31-.19-.46-.28s-.32,0-.48.09c-.35.27-.36.26-.12.91a.34.34,0,0,1,0,.36A1.54,1.54,0,0,0,96,45.78Z"/><path class="cls-1" d="M43.59,14.38c.22.47.67.25,1,.34a.89.89,0,0,0,1.32.45,1.22,1.22,0,0,0,.84-.81.5.5,0,0,1-.14.39c-.24.35-.12.57.24.71A1.36,1.36,0,0,0,48,14a.45.45,0,0,0-.14-.35c-.37-.21-.75-.55-1.21-.17a1.24,1.24,0,0,0-.55-1h0c0-.09,0-.21,0-.26-.45-.42-1.14-.46-1.51-1,0-.07-.37,0-.49,0a.92.92,0,0,0-.52.74,4.86,4.86,0,0,1-.22,1.32A.93.93,0,0,0,43.59,14.38Z"/><path class="cls-1" d="M18.1,110.09c.3-.06.34.19.33.45s.16.52.5.36c.51-.25.44.22.59.43.58-.36.59-.35.76-1,.06-.25.22-.2.4-.22s.47-.2.34-.45a.91.91,0,0,1,.3-1.17c-.62-.53-1.45-.34-2.15-.61-.35-.1-.58.32-.88.26-.75-.15-1,.71-1.62.76,0,0-.13.17-.11.22.14.32.17.78.64.78S17.74,110.16,18.1,110.09Z"/><path class="cls-1" d="M4.46,46.09c.4.25,0,.68.22,1s.6.55.88.85.59.37.94.07a6,6,0,0,1,1.11-.77,2.5,2.5,0,0,1,.29.27c.1.11.18.21.32.09s.14-.18.12-.22c-.12-.23-.08-.56-.41-.66-.47-1.1-.6-1.18-2.11-1.29.06-.27.12-.52.18-.81a4.32,4.32,0,0,0-.84-.46,1.14,1.14,0,0,0-1.08.36.5.5,0,0,0-.06.62C4.17,45.46,4.1,45.87,4.46,46.09Z"/><path class="cls-1" d="M62.77,59c-.4-.53-.4-.53-.86-.28-.31-.14-.43-.08-.57.31-.18.09-.46-.08-.54.2a.32.32,0,0,0,.22.4,1.26,1.26,0,0,0,.21,1.61,1.73,1.73,0,0,0,1.47.31c.52-.31.48,0,.54.32a.53.53,0,0,0,.6.44c.39,0,.52-.47.85-.62s.08-.33.06-.5c-.06-.45.34-.94.09-1.32s-.89-.32-1.32-.56A6.21,6.21,0,0,0,62.77,59Z"/><path class="cls-1" d="M88.78,34.79l.72-.18c-.3-.54-.57-1.09.33-1.47-.43,0-.48-.41-.79-.37v0l0,0h0l0-.59c.2,0,.35.33.56.09s.3-.34.2-.58a1.39,1.39,0,0,0-.23-.31c0-.22.1-.47-.18-.59s-.4-.27-.63-.09-.31.39-.58,0c-.14-.22-.53.14-.82.2s0,.42-.13.58a1.25,1.25,0,0,0,0,1.13c.14.35-.06.81,0,1.21A1.2,1.2,0,0,0,88.78,34.79Z"/><path class="cls-1" d="M24.64,31a1.54,1.54,0,0,1,0,1c-.11.28.16.63.43.79a2.27,2.27,0,0,0,1,.35c.23,0,.46-.27.68-.41.36.29.9.31,1.07.88.09.27.47.2.72.24s.31-.14.2-.55c.18-.13.34-.47.55,0-.07.24,0,.35.24.24a3.67,3.67,0,0,0,.54-1.62c.4-.43.4-.44-.21-.61l-.06-.18c-.55-.57-1.11-.27-1.67,0a0,0,0,0,1,0,0,1,1,0,0,0-.54-.58c-.64-.7-1.48-.47-2.26-.45C24.77,30.15,24.51,30.46,24.64,31Z"/><path class="cls-1" d="M78,80.21c0,.16.09.49.15.44.37-.32.64.18,1,.06.06,0,.09-.13.13-.2l0-.06.06,0c.27.25.5,0,.75-.06v.86c.52.12.86-.2,1.25-.22.57,0,.5-.54.65-.85a.78.78,0,0,0-.31-1l-.67-.52c-.3.52-.64-.09-1,0s-.42-.48-.81-.48c-.18,0-.37-.22-.55-.23s-.24.35-.39.49-.54.48-.8.73a.34.34,0,0,0,0,.48C77.51,80,77.65,80.24,78,80.21Z"/><path class="cls-1" d="M110.57,55.11c0,.08,0,.23.05.25.51.22.26.55.16.88,0,.09.1.24.16.35-.39.75-.39.75.25,1.06l.53.1c.32.31.38.3.59-.06l.61-.42c.14-.1.27-.19.2-.39l0-.28.52-.22c.2.32.55.23.83.32s.49.12.44-.24a1.86,1.86,0,0,0-.12-.38l.31-.28c.32-.43.3-.48-.31-.57,0-.56-.37-.79-.81-1,.09-.1.2-.22.07-.33s-.54-.33-.78-.53a.79.79,0,0,0-1-.13.68.68,0,0,1-.82,0c-.25-.09-.43,0-.43.34,0,.14-.08.34,0,.4.47.45.37.58-.25.56C110.52,54.62,110.49,54.86,110.57,55.11Zm3.61-.07a0,0,0,0,1,0,0l0,.06h0a.14.14,0,0,1,0-.06h0Z"/><path class="cls-1" d="M77.64,126.76c0-.43.4-.94-.21-1.29-.1-.06-.13-.23-.2-.34-.59-.15-1-.39-.43-1,.08-.09,0-.26,0-.39a2.28,2.28,0,0,0-1.88-.5c-.08,0-.21,0-.24.09-.21.43-.75.68-.7,1.24l-.28,0c-.33,0-.28.27-.39.43-.49.68-.49.69.08,1.22a1.81,1.81,0,0,0,.33.2c.75.16.75.16,1-.39a.1.1,0,0,0,0,.17c-.06.33-.25.69.07,1s.66.12,1,0a1.31,1.31,0,0,0,.33-.21c.4.21.79-.08,1.2,0C77.43,127,77.64,126.84,77.64,126.76Zm-3.48-1.55h-.11a.23.23,0,0,0,0-.14v0l0,0a1.5,1.5,0,0,0,.11.13A.13.13,0,0,0,74.16,125.21Z"/><path class="cls-1" d="M73.64,32.94a10.75,10.75,0,0,1-.23-1.58c0-.2-.27-.21-.43-.28-.42-.17-.56-.08-.54.37,0,.17.14.37-.08.47s-.33-.07-.44-.2c-.46-.52-1-.25-1.5-.13a.78.78,0,0,0-.6.92c0,.32-.3.4-.52.55a.54.54,0,0,0-.17.71c.11.23.39.17.61.15.42.36.45.36.65-.06l.24-.24a1.28,1.28,0,0,0,.71.54c.25.09.4,0,.48-.28.2-.07.3-.36.57-.27a1.15,1.15,0,0,0,.8-.06C73.45,33.45,73.72,33.19,73.64,32.94Z"/><path class="cls-1" d="M31.48,43.73c.2.16.54.24.32.61.27.34.88.25,1,.81,0,.19.25.17.43.19.5.06,1-.33,1.41-.17.55.22.68-.12.93-.36s.13-.43,0-.62-.2-.11-.29,0a3.13,3.13,0,0,1-.92-1.15c-.08-.15-.2-.42-.29-.42-.52,0-.68-.57-1.18-.6a2.53,2.53,0,0,0-1.17.29c-.5.08-.48.48-.52.85A.56.56,0,0,0,31.48,43.73Z"/><path class="cls-1" d="M61.9,100.74h0l0,0s0,0,0,0h.26c.14.39.52-.11.75.23.34.52.89.42,1.41.26s-.49-.82.38-.81c.53,0,.32-.49.27-.82-.21-.26-.39-.52-.06-.82.18,0,.44.07.44-.13s-.25-.19-.44-.14c-.2-.35-.64,0-.92-.34s-.33.34-.6.36a2.68,2.68,0,0,1-.4,0c-.09-.1-.2-.3-.25-.29-.56.15-1-.46-1.6-.15a.6.6,0,0,0-.91.25c-.2.31-.56.65-.15,1.08.06.06,0,.25,0,.36-.21.48.11.88.24,1.28s.89.55,1.3.08C61.73,101,61.9,100.93,61.9,100.74Z"/><path class="cls-1" d="M122.19,75c-.14.48-.2.51-.51.31-.14-.09-.26-.22-.39-.32,0-.31,0-.64.32-.8.18-.08.29-.21.21-.4a1.54,1.54,0,0,0-.39-.64c-.13-.1-.41,0-.62,0-.58-.26-.58-.26-.8.14a6.58,6.58,0,0,1-.42.79c-.59.71-.6.82.06,1.19a2.76,2.76,0,0,1,1.43,1.64.44.44,0,0,0,.63.3c.41-.18.8-.4,1.19-.6a5.28,5.28,0,0,0-.21-1.33C122.64,74.89,122.36,75.06,122.19,75Z"/><path class="cls-1" d="M124.84,48.73c0-.12.09-.26.12-.39.13-.59.1-.77-.41-.93-.36-.12-.5-.21-.55-.6a.66.66,0,0,0-1.08-.48,3.24,3.24,0,0,1-.71.38c-.2.06-.22.24-.27.42-.17.59.23,1,.44,1.48.65.06.77.71,1.23,1.13.31-.18.53-.4.78-.42C124.81,49.27,124.91,49.11,124.84,48.73Z"/><path class="cls-1" d="M11.18,88.43c0,.23.07.43.35.46a1.1,1.1,0,0,0,.61-.49c.32-.43.27-.63-.07-1.07a1.87,1.87,0,0,0-1.9-.94c-.36.06-.55-.28-.84-.38a.39.39,0,0,0-.55.23,1.38,1.38,0,0,0-.14,1.16c.15.32.23.67.36,1a.79.79,0,0,0,1.16.28l.26-.07a2,2,0,0,0,.24,0c0,.12.09.2.18.16a.29.29,0,0,0,.14-.35l.1,0Z"/><path class="cls-1" d="M45.14,126.59c.31.18.63.49.94.48s.68.53,1.1.32.25-.65.41-1l.06-.12c.25-.66.17-1-.38-1.35a10.64,10.64,0,0,0-1-.49c-.15-.47-.15-.47-.44-.17a1.06,1.06,0,0,0-.16.21,2.77,2.77,0,0,0-.41,0c-.33.06-.88.49-.86.74a4.73,4.73,0,0,0,.18.91C44.7,126.42,44.94,126.48,45.14,126.59Z"/><path class="cls-1" d="M14.46,40.83c.31.71.44,1.54,1.18,2,.13.08.33,0,.5.06h0c0,.53.34.47.69.46-.07-.16-.13-.31-.19-.47l.54-.21c0,.51.23.67.59.52.08,0,.22-.09.22-.13-.05-.63.47-1.3-.15-1.87,0,0,0-.09.06-.11.29-.21.33-.37.16-.51A1.27,1.27,0,0,0,17,40.4a.3.3,0,0,0-.23-.3c-.63-.4-.88-.5-1.17-.27s-.67.42-1,.65A.37.37,0,0,0,14.46,40.83Z"/><path class="cls-1" d="M107,101.87l.35.21c.06.4.33.28.57.22a.4.4,0,0,0,.49-.06c.16-.19.31,0,.47,0s.1-.4.37-.21.49.17.63-.15.17-.41.26-.61c.34-.82.31-.89-.59-1.39,0-.17-.13-.23-.29-.22l-1-.52a.42.42,0,0,0-.36.48c-.24-.18-.41-.62-.79-.26-.11.08-.29.09-.31.27s-.31.25-.23.44.27.45.06.82C106.31,101.4,106.41,101.49,107,101.87Z"/><path class="cls-1" d="M99.77,119.17c-.29-.22-.07-.69-.37-.8s-.5.07-.76.12v0h0c0-.3.16-.46.35-.66a.28.28,0,0,0-.16-.5.45.45,0,0,1-.42-.41c0-.21,0-.46-.22-.64-.4.14-.84.24-.74.87a2.55,2.55,0,0,1-.39,1.41.8.8,0,0,0,.37,1.11,1.47,1.47,0,0,1,1,1.16,7.43,7.43,0,0,0,.87-.51c.25-.19,0-.65.4-.8C99.82,119.47,99.88,119.25,99.77,119.17Z"/><path class="cls-1" d="M80.3,59a.33.33,0,0,0,.33.09h0a1.51,1.51,0,0,1,.44.22.74.74,0,0,0,.57-.89c0-.37.24-.28.44-.24a.42.42,0,0,1,.35.3h0v0c-.12,0-.26,0-.29.11s0,.4.28.43c0,.21.2.28.32.4a.64.64,0,0,0,.87.1,1,1,0,0,0,.36-1c0-.14-.09-.26-.12-.4-.07-.37-.21-.31-.4-.07s-.15.09-.23,0c-.24-.32-.51-.62-.72-1-.41-.67-.39-.68-1.23-.51A1.64,1.64,0,0,0,80,58.83,1,1,0,0,0,80.3,59Z"/><path class="cls-1" d="M99.14,28.74a1.43,1.43,0,0,0,.48.88c.15.11.41.07.62.1l.51.33s0,.09.08.11c.54.28.93-.07,1.35-.32s.23-.45.26-.71.13-.63.18-.94a.31.31,0,0,0-.16-.34l0,0a2.77,2.77,0,0,0-1.95-.36c-.06-.26-.08-.53-.45-.53a1.81,1.81,0,0,0-1,.23.13.13,0,0,0-.18.07.25.25,0,0,0-.3.25h0c-.22.28-.28.61-.1.73a.28.28,0,0,0,.42-.14c.2,0,.53-.18.55.25C99.3,28.45,99.1,28.54,99.14,28.74Z"/><path class="cls-1" d="M29.91,77.16c-.1.41-.2.8.36,1a.44.44,0,0,1,.27.26c.05.69.53,1,1.08,1.25s.47.27.94-.11c.13-.13.25-.31.42-.34a.42.42,0,0,0,.16.62l.33.29c.18-.28.36-.56.53-.85,0,0-.08-.13-.12-.19a5,5,0,0,1-.14-.52,1,1,0,0,0-.93-.85c-.17,0-.37-.17-.52-.12-.8.22-1.45-.23-2.15-.46C30.08,77.1,30,77.15,29.91,77.16Z"/><path class="cls-1" d="M37.84,98.93a.62.62,0,0,0,0,.75,1.32,1.32,0,0,0,1.34.81.78.78,0,0,1,.73.26c.2.1.39.13.53-.08h0c.41-.13.86-.21.95-.74.2.06.31-.16.45-.29a3.11,3.11,0,0,1,.23-.28h.06a.17.17,0,0,0,0-.07A.67.67,0,0,0,42.3,99a6.63,6.63,0,0,1-1-.78.21.21,0,0,0-.24,0h-.3v0h0c0-.61-.07-.61-.58-.29a2.7,2.7,0,0,1,0,.28.57.57,0,0,0,.21.13h.13l.11,0a.23.23,0,0,0,.06.16l.16.21,0,0a1.27,1.27,0,0,0-.06.18c-.25-.34-.58-.62-.83-1s-.37.12-.6.12c-.8,0-.83.14-.39.82,0,0,0,.15,0,.23a.12.12,0,0,1-.11,0,1.53,1.53,0,0,1-.37-.16C38.3,98.88,38.08,98.63,37.84,98.93Zm3,.66h0Zm-.11.09,0,0,0,0h0l0,0,0,0s0,0,0,0h0l0,0Z"/><path class="cls-1" d="M8.53,98.77c.29,0,.66.41.91-.08.39.13.53.62,1,.71,0,.21.13.24.3.18l.12,0h.12c0,.11.13.18.18.11a7.13,7.13,0,0,0,.33-.68.22.22,0,0,0,0-.21.16.16,0,0,0,0-.23l.31-.19-.28-.16c-.11-.27-.21-.54-.31-.81a1,1,0,0,0-.07-.35c-.06-.09-.16,0-.2.07a.2.2,0,0,0-.2,0,2.33,2.33,0,0,0-.08-.38c0-.1-.1-.2-.15-.3a3.5,3.5,0,0,0-.3.24c-.14.13-.1.31-.08.48s.09.08.14.07a1.91,1.91,0,0,1-.14.21h0c-.16.16-.36.13-.56.14h0a.61.61,0,0,1,0-.48,2.45,2.45,0,0,0,.31-.41c.14-.28,0-.74-.28-.77s-.68-.16-.84.09c-.34.57-1,.44-1.43.79-.28.16-.17.41-.13.64A.58.58,0,0,0,7.1,98c0,.39.18.53.55.5A3,3,0,0,0,8.53,98.77Zm-.24-1.46,0,0h0v0Zm-.53.22,0,0s0,.11,0,.16,0,0-.06,0v0l0,0a.17.17,0,0,0,0-.1Z"/><path class="cls-1" d="M114,69.26c-.07-.54-.46-.6-.87-.64a3.25,3.25,0,0,0-.54,0c0-.18,0-.36,0-.53a.21.21,0,0,0,.09-.33c-.64-.63-1-.62-1.75,0-.6.44-.61.45-.3.91.17.25.37.49.56.74a7.46,7.46,0,0,1,.27.71c.05.17.1.31.29.37,0,.16-.12.32-.16.48a.21.21,0,0,0,.18.28c.15,0,.24,0,.24-.2a.61.61,0,0,0,.6-.15c.24-.25.51-.48.77-.72a2.67,2.67,0,0,1,.46.2c.26.16.36.11.33-.2a2.77,2.77,0,0,1,0-.5C114.25,69.55,114.06,69.42,114,69.26Zm-1.79-.74a2.32,2.32,0,0,0-.78.31.49.49,0,0,0,.07-.31,1.15,1.15,0,0,0,.17.06.84.84,0,0,0,.54-.09Z"/><path class="cls-1" d="M68.86,2.29c.06,0,.27-.13.42-.21a2.35,2.35,0,0,1,0,.37c-.09.3,0,.46.33.45.12.22.34.23.54.26s.28-.1.28-.27h0v0c.31,0,.43-.19.47-.48s.29-.29.51-.23a1.6,1.6,0,0,1,.32.23A.25.25,0,0,0,72,2.6l-.33-.21h0c.15,0,.23.14.33.21l0,.07a1.44,1.44,0,0,0,.31.19c.67.13,1-.42,1.28-.8s-.08-.83-.3-1.2A1.89,1.89,0,0,0,73,.55c-.07-.06-.15,0-.21.07L72.32.41a.53.53,0,0,0,0-.22,3.27,3.27,0,0,0-2.16,0A.5.5,0,0,1,70,.42c-.47,0-.48,0-.47.53L69.32,1a4.35,4.35,0,0,0-.51,0c-.36,0-.39.25-.31.54A.67.67,0,0,0,68.86,2.29Z"/><path class="cls-1" d="M75.05,94a1.75,1.75,0,0,1,0,.4.9.9,0,0,0,.31.57c.15.17.32.33.42-.09s.55-.15.74-.47.45,0,.67,0,.37-.06.3-.33L77,93.59c0-.1,0-.19,0-.29h0l.69.32s.09-.07.1-.1a2.45,2.45,0,0,0,0-.27c0-.76,0-.77-.69-.8a1.64,1.64,0,0,0-.38,0h0c0-.4-.34-.7-.26-1.11-.53-.22-.59-.2-.57.3a1.4,1.4,0,0,1,0,.76c-.34.06-.56-.27-.87-.27-.14,0-.43,0-.31.25a1,1,0,0,1-.06.88C74.43,93.66,75,93.7,75.05,94Zm1.76-.78,0,0a.06.06,0,0,0-.06,0l0-.08Zm-.25-.45a.41.41,0,0,0,0,.16l0-.08A.31.31,0,0,1,76.56,92.77Z"/><path class="cls-1" d="M40.51,54.81h.18l.14-.08A.51.51,0,0,0,41,55a.59.59,0,0,0-.2.48l.54.34s0,.11,0,.12a1.78,1.78,0,0,0,1.71-.27c.07-.06,0-.14-.06-.2v-.24c.42-.39.43-.55,0-.91a1,1,0,0,0-.37-.7l-1-.68c-.1-.33-.57-.35-.62-.73s-.31-.26-.47-.38-.3-.24-.42,0,0,.25.08.37a4.34,4.34,0,0,1-.51,0c-.39,0-.54.14-.54.51a2.53,2.53,0,0,1,0,1.16v.49a3.43,3.43,0,0,0,1.15.44Zm.82.35h0v0Zm-.26-1.83,0,0h0l0,0Z"/><path class="cls-1" d="M1.24,57.43c.42-.13.72-.51,1.19-.55,0,.52,0,.55.45.52a1.66,1.66,0,0,0,.37-.09A.53.53,0,0,0,3.73,57h0a.2.2,0,0,1,.07-.1h0a.14.14,0,0,1,.11,0,.23.23,0,0,0-.18.12h0c-.07.24-.38.41-.19.71l.81.58c.54.37.65.32.81-.34,0-.28-.26-.7.3-.79,0,.17.1.26.26.21s.13-.19.06-.3a.3.3,0,0,0-.33-.17,1.3,1.3,0,0,1-.48-1c0-.26-.16-.39-.39-.47a1.17,1.17,0,0,0-.76-.13,1.53,1.53,0,0,1-1.22-.47c-.08-.1-.24-.12-.36-.17A.81.81,0,0,0,1,54.87l.89.09h.29c.23.28.39.67.88.55l-.33.58a.53.53,0,0,1-.53-.32c-.13-.28-.38-.17-.58-.19l-.27-.08-.55,0c-.81,0-.75,0-.79.62a2.33,2.33,0,0,0,.37,1.12c.06.14.26.22.41.32S1.08,57.49,1.24,57.43Z"/><path class="cls-1" d="M64.05,117c.09.27.18.55.28.83s.33.21.54.22a.76.76,0,0,0,.56.31v-.08h0a.25.25,0,0,1,0,.08c0,.15.18.24.29.17s.52-.17.58-.49l0,0c.18-.16.37-.33,0-.49l-.26,0-.27,0h0c0-.09,0-.18,0-.27h0l.36-.18c.13-.06.26-.14.24-.29a.41.41,0,0,0-.33-.38,3.17,3.17,0,0,0-.53,0c-.15-.64-.17-.65-.84-.56a6.45,6.45,0,0,1-1.83-.6c-.23-.08-.54-.24-.74,0a.87.87,0,0,0-.18.88,1.58,1.58,0,0,0,.78,1A1.23,1.23,0,0,0,64.05,117Z"/><path class="cls-1" d="M29.33,63.38c.1.38-.07.83.27,1.14l.24.3a.63.63,0,0,0,.12.63,1,1,0,0,0,.73.3,3.15,3.15,0,0,1,.92,0c.77.17,1.26-.28,1.25-1.08,0-.23,0-.45,0-.67s0-.51-.3-.5a1.81,1.81,0,0,1-1.31-.57c-.2-.17-.29-.46-.65-.35s-.56,0-.79.17S29.26,63.12,29.33,63.38Z"/><path class="cls-1" d="M108.15,42.66c.24.18.28-.11.42-.18s.33,0,.46.14.1.26.27.25l.26,0c.16,0,.24-.08.23-.24a2.46,2.46,0,0,1,0-.26l0-.28h0c.22-.24.3-.48-.13-.53a.52.52,0,0,1-.49-.31c-.08-.19-.3,0-.46,0a2.48,2.48,0,0,0,0-.27c.25-.48.23-.51-.26-.53l-.57-.28c0-.06,0-.17-.08-.19s-.19.05-.25.14c-.29.11-.27.33-.21.57h0a.59.59,0,0,0-.49.54.89.89,0,0,0,.26.59C107.44,42.12,107.81,42.38,108.15,42.66Z"/><path class="cls-1" d="M55.35,21.8c-.18.61-.12.69.47.62a1,1,0,0,1,.11.35c-.09.48.16.46.49.36.11.22.25.33.51.21a5.46,5.46,0,0,1,.61-.21l.12.05.13,0,.25.08a.38.38,0,0,0,.28.42c.59-.74.56.27.88.31s.45-.3.6-.55.29-.44-.07-.62c-.11-.05-.25-.17-.26-.28a.56.56,0,0,0-.6-.54,3.47,3.47,0,0,1-.76-.22c-.07-.26.26-.46.09-.76s-.42-.34-.57-.53c-.3-.4-.46.18-.63.05s-.81.37-1-.26c-.07-.2-.38-.2-.58,0s-.42.42-.19.68S55.33,21.5,55.35,21.8Z"/><path class="cls-1" d="M68.71,33c.08-.34.32-.53.46-.81A.32.32,0,0,0,69,31.7a4.33,4.33,0,0,1-1.36-.48,1.87,1.87,0,0,0-.36.24,1.59,1.59,0,0,0,0,1.73C67.6,33.58,68.59,33.44,68.71,33Z"/><path class="cls-1" d="M48.06,6.4c-.3,0-.42.19-.33.45a1,1,0,0,0,.69.73s.07,0,.11-.07c.2-.09.15-.41.41-.43a8.24,8.24,0,0,1,.61.74.55.55,0,0,0,.7.25.6.6,0,0,0,.47-.58,3.3,3.3,0,0,0-.47-2.57L49.58,5a2.67,2.67,0,0,0-.37-.38c-.64-.46-.7-.46-1.27,0a.8.8,0,0,0-.25,1.14A4.17,4.17,0,0,0,48.06,6.4Z"/><path class="cls-1" d="M2.46,77.91v0c0,.08,0,.21.06.25.43.29.86.55,1.29.83s.38.32.56-.23c.66-.71.28-1.41-.07-2.06a.57.57,0,0,0-.81-.29c-.35.21-.71,0-1.05.15L2,76.52c-.86-.23-.89-.21-1.16.55,0,.09-.08.17-.11.25a.72.72,0,0,0,.37.88c.54.38.9,0,1.3-.24Z"/><path class="cls-1" d="M2.43,78l0,0h0A0,0,0,0,1,2.43,78Z"/><path class="cls-1" d="M90.08,120.7c-.19-.15-.27.29-.51.28a1.11,1.11,0,0,0-.5,1.71c-.28.15-.56.3-.82-.14a.22.22,0,0,0-.34-.1.14.14,0,0,1,0-.15c-.36.62-.31.77.29.85l.52,0a1.14,1.14,0,0,0,.83.08c.2-.13.51,0,.62-.33a.65.65,0,0,0,.28-.59.43.43,0,0,1,.3-.39l-.06-.64C90.69,120.93,90.31,120.87,90.08,120.7Z"/><polygon class="cls-1" points="90.78 121.96 90.78 121.97 90.79 121.95 90.78 121.96"/><path class="cls-1" d="M15.32,68.65a.27.27,0,0,0,.26.34l.58.73c.09.26.42.09.54.29s.16.37.4.24a1.85,1.85,0,0,0,.39-.3l.27.1c.06,0,.14.18.17.16.82-.31.9-.46.84-1.4l-.66.09a1,1,0,0,0,0-.24c.4,0,.26-.28.22-.5-.3,0-.25.28-.24.48l-.45-.08a.11.11,0,0,0-.06-.15h0c.29-.1.31-.34.29-.59h-.55c0-.09-.07-.17-.1-.26.42-.51.41-.54-.24-.8l-.48-.07a.59.59,0,0,0-.61-.21.27.27,0,0,0-.36.26c0,.37-.19.46-.52.29a.27.27,0,0,0-.35.09c-.19.21-.19.38.13.45h0a2.45,2.45,0,0,1,0,.27c-.17-.06-.38-.07-.42.12s.16.26.33.31l.37.1C15.1,68.5,15.15,68.63,15.32,68.65Zm1.51-.43.11-.12-.11.12Zm-.41.1v.05h0s0,0,0,0A.13.13,0,0,0,16.42,68.32Z"/><path class="cls-1" d="M14.78,67.84s0,0,0,0Z"/><path class="cls-1" d="M88.23,11.66c-.09.69.64.81.9,1.27,0,0,.08,0,.1,0a3.47,3.47,0,0,0,.25-.29,2.16,2.16,0,0,0,.27.38c.1.08.28.11.34-.06s.3-.59.15-.91,0-.35,0-.5c0-.35-.5-.54-.42-1l.5.3c.13.18.31.2.39,0s-.17-.28-.34-.33,0-.19-.05-.29-.14-.36-.26-.51a.76.76,0,0,0-.49-.54,6.05,6.05,0,0,1-.55-.32c-.22-.35-.29-.36-.58-.05-.2,0-.44-.09-.59.19a2.19,2.19,0,0,0-.21,1.63A1.23,1.23,0,0,0,88.23,11.66Zm1-.26h0C89.17,11.33,89.22,11.33,89.23,11.4Z"/><path class="cls-1" d="M38,116.93c-.15-.07-.18-.37-.26-.56a3.84,3.84,0,0,0-.18-.35c-.27-.45-.27-.43-1-.33-.14,0-.31-.12-.46-.18s-.33-.67-.66-.12a.37.37,0,0,1-.45.2,1.39,1.39,0,0,0-.91.21.36.36,0,0,0-.22.44.24.24,0,0,0,.31.17c.63-.17.63.33.74.7a.13.13,0,0,0-.18,0,2.76,2.76,0,0,0-.49-.07c-.12,0-.26,0-.25.2s.17.14.29.16a.48.48,0,0,0,.12,0,1,1,0,0,0,.06.25s0,.11,0,.12c.41.18.79.33,1.09-.18.07-.12.21,0,.27.1s-.1.51.28.52h.51c.16.1.35.16.48,0a.74.74,0,0,1,.59-.21c.05.14.16.18.25.08a.27.27,0,0,0,0-.41C38,117.46,38.57,117.23,38,116.93Zm-1.71.95-.13-.13.17,0A.34.34,0,0,0,36.29,117.88Z"/><path class="cls-1" d="M8.46,74.68a3.31,3.31,0,0,0-.06.53c0,.45.15.55.59.49a1.89,1.89,0,0,0,.36-.16l.47.25.32.53,0,.27c.43.35.62.36,1.07.07.37,0,.6-.16.56-.58a3.26,3.26,0,0,1,0-.54c.25-.72.22-.88-.36-.91a.89.89,0,0,1-.75-.46,6,6,0,0,1-.39-.85c-.09-.36-.48-.1-.65-.32s-.28-.4-.52-.35-.32.28-.47.46a6.21,6.21,0,0,1-.74.64C8.17,74,8.16,74.44,8.46,74.68Zm2.26,1.69h0ZM9.21,74.59a.17.17,0,0,0-.1,0S9.17,74.55,9.21,74.59Zm-.27.1v0s0,0,0,0Zm-.19,0h0Z"/><path class="cls-1" d="M65,71.51c.21.51.6.41,1,.43a.5.5,0,0,0,.38.32l.75.21c.16.3.51.22.74.37A.16.16,0,0,0,68,73a.81.81,0,0,0,.43.46c.49.3,1.11.21,1.56.61a.18.18,0,0,0,.27-.17c0-.24.11-.41.17-.61a.48.48,0,0,0,.24-.06l.87.3c.18,0,.31,0,.21-.22s-.19-.57-.28-.86a1,1,0,0,0,.14-.23c.08-.31,0-.43-.33-.34a1.31,1.31,0,0,0-.31.23.5.5,0,0,1-.13,0c-.25-.24.19-.65-.18-.82a4,4,0,0,0-.86-.16l-.13,0c-.06-.35-.22-.56-.61-.5a.3.3,0,0,0-.23,0,1.82,1.82,0,0,0-.07-.25l-.46-.07c-.61-.39-.62-.4-1.16,0-.17.12-.34,0-.5,0,0-.17,0-.34,0-.52h0c.26-.08.22-.18,0-.29a.53.53,0,0,0,0-.25l.21-.12c-.06,0-.14-.11-.17-.1a2.07,2.07,0,0,0-.25.15l-.08.06a.27.27,0,0,0-.28.25l-.25.1h-.28c-.35.25-.16.51,0,.77a.68.68,0,0,1-.28.42C64.82,70.94,64.88,71.17,65,71.51Zm3.17-.94Zm0,0Z"/><path class="cls-1" d="M55.19,82.76c.12.14.41.12.62.17.3.39.56.86,1.15.36.1-.08.25.08.27.22.05.34.26.44.57.41l.71.14c.23.2.44.42.69.6s.4.11.52-.37q.3,0,.24-.3a.15.15,0,0,0,.07-.18c.35-.16.28-.3,0-.44a.2.2,0,0,0,0-.15c.18-.12.19-.23,0-.33a.88.88,0,0,0-.57-.8l-.48-.73c-.68.13-1.23-.47-1.91-.35a4.85,4.85,0,0,0-.43,1.09.72.72,0,0,0,.11.35l-.3.06a6.45,6.45,0,0,1,.16-.63s.07,0,.09-.14,0-.42-.24-.49v.28a1.76,1.76,0,0,1-.79-.07.52.52,0,0,0-.73.57A1.4,1.4,0,0,0,55.19,82.76Z"/><path class="cls-1" d="M79.37,58.26c0-.1,0-.19.08-.28.33-.51.3-.71-.18-.85a1.23,1.23,0,0,0-.38,0l-.28,0c-.73.81-.74.87-.13,1.63a1.92,1.92,0,0,1,.18.35.16.16,0,0,0,0,.24c0,.35.31.25.53.23l.11,0,.11-.06.49-.24-.42-.54C79.44,58.58,79.4,58.42,79.37,58.26Z"/><path class="cls-1" d="M63.78,42.27l-.47-.22c-.21-.3-.56-.2-.85-.27,0-.11-.06-.21-.2-.18s-.08.1-.12.16a.37.37,0,0,0-.34.27l-.41.09-.57-.33c-.08,0-.17,0-.21,0a2.58,2.58,0,0,0-.34.32c-.13,0-.26-.06-.39-.07s-.35,0-.4.21.09.31.22.42.36,0,.46-.2a.52.52,0,0,0,.1.11l-.09.07v0a.5.5,0,0,0-.43.29c-.16.25-.45.48-.06.77a5.33,5.33,0,0,1,.49.46c.46.43.78.45,1.32,0,.14-.1.21-.27.42-.24.05.19-.1.48.14.56a.51.51,0,0,0,.63-.3c0-.06,0-.16,0-.24s0-.23.06-.26c.23-.13.15.11.17.19s.11.34.34.33a.46.46,0,0,0,.23.06h0c.26.36.34.36.65,0,.3-.07.47-.2.3-.53a2,2,0,0,1-.09-.37C64.43,42.54,64.43,42.54,63.78,42.27ZM62.11,44l0,0h0v0Zm2,.33-.05-.06.05.06Z"/><path class="cls-1" d="M34.72,23.17c-.32.13-.29.53-.53.73s-.24.48,0,.72c0,.15,0,.3.05.44a4.18,4.18,0,0,0,1.07.85l.06.93a2,2,0,0,0,1-.32c.15.29.29.58.43.87.3-.16.33-.43.46-.65a.77.77,0,0,0,.53-.34c.48-.68.46-.79-.17-1.16L37.28,25c0-.33.07-.6-.4-.63a1,1,0,0,1-1-.69C35.38,23.08,35.18,23,34.72,23.17Z"/><path class="cls-1" d="M99.28,108.54c-.11-.49-.5-.64-.91-.77,0-.24-.13-.39-.27-.54,0-.25,0-.45-.31-.49a.84.84,0,0,0-1.11-.15,1.38,1.38,0,0,0-.56.87c0,.29-.15.72.25,1,.62.61.62.61,1.2.27a1.43,1.43,0,0,1,.74-.25,3,3,0,0,0-.22.48.33.33,0,0,0,.2.43.91.91,0,0,0,1-.18C99.46,109,99.33,108.76,99.28,108.54Z"/><path class="cls-1" d="M128,60.2a.24.24,0,0,0,.15-.39.25.25,0,0,0-.43,0,1.19,1.19,0,0,0-.16.34s-.11,0-.13,0-.25.51-.38,0c0-.09,0-.2,0-.25-.28-.31-.37-.6,0-.92.16-.13.11-.33,0-.48a2.56,2.56,0,0,0-.64-.67,3.46,3.46,0,0,1-1.23-1c-.1-.14-.25-.15-.33,0a1.33,1.33,0,0,1-.8.45c-.13,0-.11.07-.12.19,0,.35-.1.7-.12,1.06s.13.62.82.83a1.06,1.06,0,0,1,.5-.12l.07,0a.28.28,0,0,0,0,.18.23.23,0,0,0,.25-.19.85.85,0,0,0,.17.06c.11.15-.12.09-.12.17-.44.48-.53.87.27,1l.75.59c.46.63.64.67,1.2.28h.12l.09-.07c.29.05.49,0,.56-.35S128.28,60.37,128,60.2Z"/><path class="cls-1" d="M107.57,23.83l.36-.12c.29.08.26.32.28.54.34-.17.83-.16.85-.69a.91.91,0,0,0,.17-.09,1.2,1.2,0,0,0,.26-.24.88.88,0,0,0,.18-.29h0l.12-.05a2.25,2.25,0,0,0,.08.24c0,.27,0,.54,0,.81l-.3.07a2.64,2.64,0,0,0-.3.1l-.15.08a2.61,2.61,0,0,0-.28.17.72.72,0,0,0-.3.55,1,1,0,0,0,.34,1.1.78.78,0,0,0,1.23-.29.64.64,0,0,0,0-.64c-.08-.12,0-.23.17-.27.67-.2.21-.52.07-.8a1,1,0,0,0-.18-1.16c0-.19-.23-.29-.22-.55s-.21-.25-.38-.06a.47.47,0,0,0-.17,0c-.24-.19-.48-.37-.71,0a.25.25,0,0,0-.18.11l-.51-.11h0c-.15-.2-.25-.19-.29.07s0,.3.23.25l.26.27-.31.25a4.57,4.57,0,0,0-.49.38s0,.16,0,.23A.13.13,0,0,0,107.57,23.83Z"/><path class="cls-1" d="M83,41.52c0,.17,0,.3.25.29.35.11.76-.07,1.09.22.09.08.24,0,.31-.13.16,0,.62-.33.36.27,0,.1,0,.17.14.18.16.33.57.54.75.43.38-.25.53-.19.71.18a.39.39,0,0,0,.56.2c.23-.12.23-.38.19-.6s-.18-.52-.55-.34c-.14.07-.25,0-.3-.15.14-.32.06-.7.3-1s-.08-.85-.43-.94a2.13,2.13,0,0,0-.66,0c-.2.38,0,.89-.36,1.23a1.43,1.43,0,0,0,.09-.34,1.58,1.58,0,0,0,0-.31,1.27,1.27,0,0,0,0-.58h-.26c-.35-.73-1-.76-1.65-.67-.21,0-.24.23-.26.41L83,40c-.51.28-.66.56-.46,1A2.2,2.2,0,0,0,83,41.52Z"/><path class="cls-1" d="M44.37,79.3a.17.17,0,0,0,.26,0c.67,0,.67,0,.8-.47,0-.1,0-.21,0-.31s0-.29-.23-.28c.27-.43,0-.75-.3-1a1.64,1.64,0,0,0-1.32-.44c-.05-.15-.13-.26-.31-.22l0,0c-.14-.15-.27-.1-.4,0-.25-.08-.5-.18-.76-.24a.64.64,0,0,0-.68.33,1.83,1.83,0,0,0,0,1c.08.28.39.32.67.29l0,0,0,0,.29.54c.15.51.23.56.55.31a2.49,2.49,0,0,0,.23-.31h0a.62.62,0,0,0,.27.05l0,0C43.63,79.18,43.63,79.18,44.37,79.3Z"/><path class="cls-1" d="M11.19,30.33c.28,0,.55-.3.85,0,0,.34-.29.54-.47.8s-.17.41.13.53.39.2.59.3c.23-.16.55,0,.77-.21s.22-.37.47-.2a.59.59,0,0,0,.18.14.23.23,0,0,1-.19-.11.36.36,0,0,0-.41.13c-.14.15-.42.24-.22.52s.28.36.44.51a.6.6,0,0,0,.36.14,1.15,1.15,0,0,0,1-1.28,3.4,3.4,0,0,0-1.34-2.34.43.43,0,0,0-.44-.14.76.76,0,0,0-.42.25l-.09.15h0a.77.77,0,0,0-.07-.26l0-.05,0-.52a.61.61,0,0,0-.57.28c-.21,0-.43,0-.53.28h0c-.11.28-.24.55-.33.84S11,30.36,11.19,30.33Z"/><path class="cls-1" d="M67.86,50.08c.07.32.37.15.53.27s.16.66.63.5c.25.1.47.12.58-.19a.41.41,0,0,0,.24-.08c.25.08.3-.09.34-.26.3-.12.51-.47.35-.63-.52-.5-.25-1.33-.82-1.77a.57.57,0,0,1-.18-.5c0-.21.06-.42-.28-.49s-.39-.32-.72-.22a1.68,1.68,0,0,0-1.15,1c-.16.42.24.77.1,1.18a1.21,1.21,0,0,1,.67.3c0,.09,0,.18,0,.27S67.8,49.82,67.86,50.08Z"/><path class="cls-1" d="M69.57,104c-.5-.13-.61.26-.72.59s.13.48.42.55c0,.09,0,.18.07.27a1.36,1.36,0,0,0,1.55,1.43c.59,0,.78-.08.79-.69a1.5,1.5,0,0,0-.46-1.06A1.28,1.28,0,0,0,69.57,104Z"/><path class="cls-1" d="M105.15,87.3c-.16.23-.51.36-.33.77s.4.29.67.24c.08,0,.19.07.25,0,.44-.27.87-.54,1.3-.83,0,0,0-.17.06-.25a1.08,1.08,0,0,0,.2-.16,1.48,1.48,0,0,0,.32-.4c.13-.3.38,0,.52-.13a2.16,2.16,0,0,0,.17-.34h.08a.22.22,0,0,0,.4,0l.12,0,.11-.06a1.12,1.12,0,0,0,1.15-.52c-.09-.18-.21-.2-.39-.1s-.44.12-.5-.07a.19.19,0,0,1,0-.08,1,1,0,0,1,0-.19c0-.06-.09-.11-.14-.17h0a.6.6,0,0,0,.08-.08,1.1,1.1,0,0,0,0-.16c.39,0,.7.27,1.08.3-.21-.59-.57-1-1.27-.79-.41.08-.8.34-1.23,0-.15-.11-.43-.05-.65-.06-.66-.42-.72-.47-1.06,0s-.89.73-.89,1.38c-.67.8-.67.8-.1,1.6Z"/><path class="cls-1" d="M86.28,17.42v.25c-.25.28-.2.56.16.56,1,0,1.41.63,1.76,1.4.13.28.24.58.38.86a.48.48,0,0,0,.42.29c.86.38,1,.35,1.59-.37s.49-.58.18-1.1a4.36,4.36,0,0,0-.45-.67c-.2-.22-.38-.13-.47.14a.34.34,0,0,1-.27.25l0-.79c-.17-.3-.2-.3-.45,0a.28.28,0,0,0-.12.21c-.21,0-.28-.2-.38-.35a1.35,1.35,0,0,1-.25-.75c0-.42-.58-.12-.69-.47a.57.57,0,0,1,0-.26c.24,0,.3-.11.25-.3s-.17-.16-.27,0l-.27,0c0-.22,0-.47-.29-.41s-.25.28-.1.49.07.15.11.22l0,0h-.57c-.06-.07-.11-.18-.16-.18-.4,0-.6.18-.62.53S86,17.41,86.28,17.42Zm3.3,1.93h0v0Zm0,0h0Z"/><path class="cls-1" d="M121.1,92.73c-.07-.14-.25-.32-.06-.45.42-.3.27-.58,0-.89a.73.73,0,0,0-.35-.69,9.3,9.3,0,0,0-1.29-.56c-.06,0-.16.07-.24.11-.44-.3-.67.23-1,.26-.27.66-.65,1.3-.12,2,.23.32.37.7.6,1,.09.13.3.17.46.26.13-.09.26-.21.38,0l1.37.26c.14,0,.21-.1.23-.24v0c.47-.2.68-.43.63-.83S121.36,92.71,121.1,92.73Z"/><path class="cls-1" d="M94.24,64.79a4.94,4.94,0,0,1,.58,1.9s.15,0,.23,0c.36.13.56.51,1,.49s.36-.24.34-.5a.71.71,0,0,0,.55-.28,2.46,2.46,0,0,0,.45-.25c.3-.27.29-.43.08-.77a.88.88,0,0,0-.53-.34c-.06-.2.18-.74-.41-.35-.08.05-.25,0-.37,0s.1-.34.06-.37c-.52-.33-.88-.83-1.38-1.18-.16-.11-.33,0-.4.22s-.28.37-.44.39c-.41.06-.51.1-.34.3S93.9,64.68,94.24,64.79Z"/><path class="cls-1" d="M49.07,47.56,49,47.3c0-.38-.13-.6-.51-.53a4.23,4.23,0,0,0-.85.28,4.71,4.71,0,0,1-.42-.33.87.87,0,0,0-1.12-.28c-.65.25-.66.77-.68,1.31a.5.5,0,0,0-.13.69c.21.5.67.34,1,.48a4.1,4.1,0,0,0,.54.56,6.3,6.3,0,0,1,1.06.61c.23.23.48-.12.76-.12.75,0,.77-.13,1-.69s-.2-.81-.38-1.19a.65.65,0,0,0-.48-.17.76.76,0,0,0,.19-.21Z"/><path class="cls-1" d="M42.69,101.2c.32,0,.25-.3.29-.49s.33-.64.49-1,.11-.37-.09-.45-.24.1-.36.15a1,1,0,0,0-.6.36.39.39,0,0,0-.25-.22l-.27.57a.29.29,0,0,0,.27.09l.26-.06a.7.7,0,0,0,0,.25c.1.36-.16.62-.27.93a.12.12,0,0,1,0,.18C42.33,101.43,42.44,101.22,42.69,101.2Z"/><polygon class="cls-1" points="42.21 101.37 42.21 101.37 42.21 101.36 42.21 101.37"/><path class="cls-1" d="M41.09,101.23a.48.48,0,0,0,.52-.26,4.86,4.86,0,0,1,.35-.53l.06-.16-.12-.11-.82.54C41.08,100.88,41.08,101.06,41.09,101.23Z"/><path class="cls-1" d="M78.91,23.45l0,0h0Z"/><path class="cls-1" d="M118.88,41.78h0Z"/><path class="cls-1" d="M112.21,108.31c-.15.07-.06.22,0,.35s.09.33.16.48a.26.26,0,0,0,.23.06c.06,0,.11-.11.19-.19s-.11-.31-.18-.47S112.4,108.22,112.21,108.31Z"/><path class="cls-1" d="M73.61,92.32c0,.23.35.7.52.67s0-.08.07-.12a.56.56,0,0,0-.36-.62A.25.25,0,0,0,73.61,92.32Z"/><path class="cls-1" d="M44.42,127.12a.14.14,0,0,0,.1.21l.28.1a1.73,1.73,0,0,0,.33-.13c.06,0,.12-.18.09-.22A.58.58,0,0,0,44.42,127.12Z"/><path class="cls-1" d="M89,120.68l.13,0h.13c0-.18,0-.35,0-.53s0-.25-.16-.26-.31.07-.3.28a.68.68,0,0,0-.12.24c-.25-.1-.53-.24-.48.25A.74.74,0,0,0,89,120.68Z"/><path class="cls-1" d="M82.48,67.24c-.33-.06-.7.11-1-.24a.29.29,0,0,0-.46,0,5.1,5.1,0,0,0-.67.64c-.13.21.16.46.06.76s0,.61.42.85a1.19,1.19,0,0,0,.92.28c.14.45.61.52.9.81,0,0,.06.08.1.08a1.2,1.2,0,0,0,1.13-.28c.2-.2.14-.44.13-.72a2.17,2.17,0,0,0-.8-1.61C83.28,67.21,83.25,67.19,82.48,67.24Z"/><path class="cls-1" d="M94.24,92.77l.46.45c.3-.55.77-.15,1.16-.2a.3.3,0,0,0,.26-.27.2.2,0,0,0,.08-.23c0-.07.16-.15.16-.21-.11-.56,0-1.22-.72-1.51-.35-.13-.29-.72-.73-.85-.21-.6-.64-.16-1-.2-.12-.29-.43-.29-.66-.42s-.41,0-.6.14-.31.91-1,.59c0,0-.12.14-.11.19a2,2,0,0,0,.18.36c.26.52.69,1,.52,1.64,0,.2.65.78.93.82,0,0,.06-.13.11-.19s.16-.21.24-.32C93.79,93,93.79,93,94.24,92.77Zm.31-.54.06,0a.08.08,0,0,1-.07,0Z"/><path class="cls-1" d="M102.67,59a.22.22,0,0,1,0-.14.24.24,0,0,0-.19.17c-.23,0-.46,0-.55.28l.54.07a.14.14,0,0,1,0-.2l0,0h0a1,1,0,0,0,0,.17c.34.34.59.31.84-.08l-.34-.21a.16.16,0,0,0-.24-.11Z"/><path class="cls-1" d="M7,44.87a.13.13,0,0,0-.07-.21l-.12.05.11.19S7,44.89,7,44.87Z"/><path class="cls-1" d="M98.35,12.75v0h0a.92.92,0,0,0,0,.78c.55.4,1.21-.1,1.78.22.23.07.48-.1.7.06,0,0,.1,0,.13,0a1.28,1.28,0,0,0,1.27.12c.51-.18.25-.61.36-.9.27-.67.22-.74-.35-1a3.15,3.15,0,0,1-1.17-.62c-.15-.17-.33,0-.46.08s-.33.18-.48,0c-.45-.41-.82,0-1.21.11-.22.13-.19.36-.24.57a1.19,1.19,0,0,1-.09.15,1.27,1.27,0,0,0,0-.2.73.73,0,0,0,0-.54c-.42,0-.35.28-.38.53C98,12.53,98,12.63,98.35,12.75Z"/><path class="cls-1" d="M68.71,70.27v0h0Z"/><path class="cls-1" d="M90.78,122h0v0Z"/><path class="cls-1" d="M90.84,122.54a.14.14,0,0,0,0-.08c0-.16-.07-.32-.1-.48a2.39,2.39,0,0,0-.12.46C90.65,122.54,90.73,122.58,90.84,122.54Z"/><path class="cls-1" d="M19.17,84.28h0Z"/><path class="cls-1" d="M87.86,121.62s-.13-.05-.2-.08a.82.82,0,0,0,0,.27C87.76,121.8,87.89,121.79,87.86,121.62Z"/><path class="cls-1" d="M67.11,73.17a.77.77,0,0,0-.19-.08s-.06,0-.09.08l.18.1A.47.47,0,0,1,67.11,73.17Z"/><path class="cls-1" d="M77,93.32l0,0h0Z"/><path class="cls-1" d="M92,89.63l-.06-.08s-.08,0-.09.06,0,.06.06.09Z"/><path class="cls-1" d="M68.72,70.27l0,0,0,0Z"/><path class="cls-1" d="M68.88,70.19l-.1.07h0S68.86,70.21,68.88,70.19Z"/><path class="cls-1" d="M19.9,107.6a.12.12,0,0,1-.15,0C19.77,107.75,19.82,107.79,19.9,107.6Z"/><path class="cls-1" d="M19.16,54.11s0,0,0,0h0Z"/><path class="cls-1" d="M18.1,53.33l0,0c-.31,0-.64-.17-.81.24v.15l0,0a1,1,0,0,0-.29.24,1,1,0,0,0-.11.38c.06.6-.26,1.39.76,1.52.29,0,.38-.28.53-.47l.64,0,.08.07c.08.07.15.15.23.23a1.54,1.54,0,0,0,.37.35.5.5,0,0,0,.27,0,.63.63,0,0,1,0,.19c.26-.09.58.06.8-.2l.53,0c-.19,0,.21,0,.08.1s.05.11.09,0c.08-.31.72-.54.18-1h0l-.08-.26c-.15-.46-.16-.45-.5-.19l-.28.2a.32.32,0,0,0,0-.25c-.3-.67-.43-.73-1.08-.54h-.28a1.17,1.17,0,0,1,0,.11s0,0,0-.05l.06-.06a2.46,2.46,0,0,1,0-.28,2.11,2.11,0,0,1,0-.26c0-.13,0-.25-.17-.26l-.59,0C18.24,53.12,18.15,53.07,18.1,53.33Zm1.22,1.12.06-.07h0a1,1,0,0,0,.21.21l.26.15.07,0c-.11.23-.09.41.19.49a.66.66,0,0,0,0,.14h0a.3.3,0,0,0-.23,0s0-.06,0-.09a1.14,1.14,0,0,0-.28-.38l-.23-.18-.17-.21-.06-.19A.29.29,0,0,0,19.32,54.45Z"/><path class="cls-1" d="M88.36,122s.1-.13.16-.2-.07-.33-.18-.47c0,.07-.14.13-.15.2A.42.42,0,0,0,88.36,122Z"/><path class="cls-1" d="M61.07,123.8a.4.4,0,0,0,.09-.22c-.14-.44-.65-.1-.86-.41,0-.49-.34-.81-.54-1.21.31-.36,0-.58-.22-.77-.33-.34-.71-.69-1.23-.26a.77.77,0,0,0-.52,0c-.55.24-1.12.47-1.69.67s-.47.25-.27.58.52.16.61.46c-.07.38.05.62.45.67a6.93,6.93,0,0,1,1,.12c.52.15.73-.18,1-.53h0c.17,0,.35,0,.5.17l-1,1c.3.27.56.55,1,.43h0c.22.57.22.57.82.35a.71.71,0,0,0,.07-.74l.23-.08.18-.07C60.89,124,61,124,61.07,123.8Z"/><path class="cls-1" d="M41.9,100.17h0Z"/><path class="cls-1" d="M42.19,101.36h0Z"/><path class="cls-1" d="M42,101.42l.18-.06C42.12,101.32,42,101.23,42,101.42Z"/><path class="cls-1" d="M99.73,13.85c-.07-.12-.17-.2-.29-.08a.27.27,0,0,0,0,.36C99.62,14.13,99.7,14,99.73,13.85Z"/></g></g></svg>