<svg xmlns="http://www.w3.org/2000/svg" viewBox="0 0 142.01 144.04"><defs><style>.cls-1,.cls-2{fill:#010101;}.cls-1{fill-rule:evenodd;}</style></defs><title>Asset 121mdpi</title><g id="Layer_2" data-name="Layer 2"><g id="Layer_1-2" data-name="Layer 1"><path class="cls-1" d="M135.27,74.12a1.52,1.52,0,0,0-.18,1.09C135.13,74.84,135.38,74.52,135.27,74.12Z"/><path class="cls-1" d="M135.6,75.21c0,.38-.3.69-.21,1.09C135.5,76,135.77,75.63,135.6,75.21Z"/><path class="cls-1" d="M134.33,77.91c-.17.36,0,.4-.09,1a1.7,1.7,0,0,0,.25-.55C134.46,78.08,134.36,78.18,134.33,77.91Z"/><path class="cls-1" d="M127.83,87l-.32.35c.07.29-.11.45-.08.73A1.28,1.28,0,0,0,127.83,87Z"/><path class="cls-1" d="M135.24,77.28c-.1-.22-.38.55-.28.81.16,0,.1-.27.33-.54C135.22,77.5,135.17,77.44,135.24,77.28Z"/><path class="cls-1" d="M127.19,88.43c-.16.41-.31.35-.5.51.07.24.24.21.49,0Z"/><path class="cls-1" d="M132.49,84.05c-.11-.21-.41.6-.27.93C132.5,84.75,132.25,84.29,132.49,84.05Z"/><path class="cls-1" d="M125.15,92.21c-.09.14-.16.47-.19.28-.18.15-.07.48-.14.71-.22.07-.45.37-.73.73.32.19-.06.86-.25,1.46a2,2,0,0,1,.59-.83c-.21-.13,0-.25.08-.75a.32.32,0,0,0,.27-.11,1.26,1.26,0,0,1,.4-.81C125.22,92.57,125.24,92.27,125.15,92.21Z"/><path class="cls-1" d="M131.91,85.5l-.31.38a.31.31,0,0,1,0,.41C131.68,86.51,132,85.79,131.91,85.5Z"/><path class="cls-1" d="M132.64,87.42a2.28,2.28,0,0,0-.24,1.12C132.56,88.19,132.85,87.54,132.64,87.42Z"/><path class="cls-1" d="M119.63,99.77c-.29.17-.58.66-.43.78A3,3,0,0,0,119.63,99.77Z"/><path class="cls-1" d="M131.27,90.84c-.17.37-.53.63-.47,1.14A2.68,2.68,0,0,0,131.27,90.84Z"/><path class="cls-1" d="M123,100.32c-.35.37-.14.45-.41,1a1.52,1.52,0,0,1,.34-.33C122.75,100.68,123.27,100.33,123,100.32Z"/><path class="cls-1" d="M130.13,95c.06.22.45-.57.74-.7C130.85,93.86,130.36,94.73,130.13,95Z"/><path class="cls-1" d="M127.86,98.66a4,4,0,0,0-.55,1.12c.31-.39.55-.82.89-1.18C128.34,98.18,127.72,99.08,127.86,98.66Z"/><path class="cls-1" d="M116.2,106.19c-.11-.31-.48.46-.67.61C115.6,107.07,116,106.34,116.2,106.19Z"/><path class="cls-1" d="M116.32,107.5c.3-.07.29-.47.63-.5.06-.24,0-.33-.25-.27C116.65,107.14,116.16,107.34,116.32,107.5Z"/><path class="cls-1" d="M110,110a2,2,0,0,0-.93.76A4.83,4.83,0,0,0,110,110Z"/><path class="cls-1" d="M131.51,97.4c-.26.13-.28.42-.51.57-.11.48.14.26.43,0Z"/><path class="cls-1" d="M128.92,99.75c-.32.17-.45.49-.65.75C128.3,100.72,129,100.11,128.92,99.75Z"/><path class="cls-1" d="M130.12,99.69c-.08,0-.1.13-.12.22-.69.75-1,1.77-1.72,2.52-.18.57.13.36.08.72.42-.4.12-.48.38-.85s.26,0,.51-.4c-.19-.17.25-.76.34-1.19.29-.15.39-.44.63-.64C130.43,99.52,129.92,100.24,130.12,99.69Z"/><path class="cls-1" d="M112.22,111.11c.21-.11-.22.43-.34.5,0,.35.3-.32.5-.27.28-.41,0-.29.06-.5a7.68,7.68,0,0,0-.78.47C111.52,111.64,112,111.32,112.22,111.11Z"/><path class="cls-1" d="M137.63,93.62c-.25.37-.62.68-.6,1.21A3.52,3.52,0,0,0,137.63,93.62Z"/><path class="cls-1" d="M138,93.65c-.06-.27-.41.58-.41.87C137.91,94.35,137.79,93.92,138,93.65Z"/><path class="cls-1" d="M136.91,95.23c0,.38.1.3.11.54.14-.19.18-.42.32-.6C137.3,94.94,137.12,95,136.91,95.23Z"/><path class="cls-1" d="M111.25,112.1c-.14-.25-.73.53-1.08.63C110.11,113.18,111,112.39,111.25,112.1Z"/><path class="cls-1" d="M141.44,91.92a5.34,5.34,0,0,0-.36,1.88A7.55,7.55,0,0,0,141.44,91.92Z"/><path class="cls-1" d="M107.76,114.61c.08.13.64-.06.82-.4C108.5,114.09,107.91,114.23,107.76,114.61Z"/><path class="cls-1" d="M132.09,101.8c-.35.27-1,1.65-.42,1.17C131.68,102.47,132,102.21,132.09,101.8Z"/><path class="cls-1" d="M124.79,107.45c-.23-.1-.94.83-1.1,1.4.21-.16.18,0,.13.13C124.35,108.67,124.34,107.82,124.79,107.45Z"/><path class="cls-1" d="M137.24,98.16a2.82,2.82,0,0,0-.82,1.44C136.63,99.08,137.14,98.76,137.24,98.16Z"/><path class="cls-1" d="M106,115.76c-.14.09-.29.18-.23,0-.48.6-1.22.74-1.71,1.33C104.88,116.53,105.57,116.7,106,115.76Z"/><path class="cls-1" d="M128.82,106.61c-.33.12-.31.55-.44.85a1.91,1.91,0,0,1,.38-.37C128.71,107,128.74,106.86,128.82,106.61Z"/><path class="cls-1" d="M103.82,117.26c.14-.3-.32.14-.47.08.32.13-.32.22-.56.62.33.08.36-.45.69-.37A.64.64,0,0,1,103.82,117.26Z"/><path class="cls-1" d="M102.63,117.89c-.65.32-.95.07-1.36.54.67-.21,0,.38.59.2C101.73,118.33,102.4,118.23,102.63,117.89Z"/><path class="cls-1" d="M130.06,108.28c-.4.48-.83,1.3-.32,1C129.94,108.76,130.09,108.62,130.06,108.28Z"/><path class="cls-1" d="M99.3,119.79c-.48,0-.81.38-1.24.53-.24,0,0-.22.19-.45-.75.23-.54.64-1.52,1,.27.09.26,0,.7,0,.39-.38-.17,0-.38-.07A10.59,10.59,0,0,0,99.3,119.79Z"/><path class="cls-1" d="M112.32,118.87a2.12,2.12,0,0,0-1,1C111.8,119.6,112.29,119.21,112.32,118.87Z"/><path class="cls-1" d="M120.43,116c-.35.32-.15.06-.48.22-.1.24.07.23.1.35C120.24,116.49,120.32,116.24,120.43,116Z"/><path class="cls-1" d="M110.92,123.28a4.25,4.25,0,0,0-1.33,1.08C110,124,110.93,123.57,110.92,123.28Z"/><path class="cls-1" d="M120.4,122.67a5.46,5.46,0,0,0-.82.53c-.31.39.68-.34.36,0A1.67,1.67,0,0,0,120.4,122.67Z"/><path class="cls-1" d="M127.22,119.54a3.68,3.68,0,0,0-1.09,1.4C126.49,120.51,127.28,119.77,127.22,119.54Z"/><path class="cls-1" d="M98.76,128.57l-.51,0c0,.08,0,.16-.21.18C97.87,129,98.64,128.8,98.76,128.57Z"/><path class="cls-1" d="M118.34,125.71c-.55.25-1,.78-1.57.93-.15.24.19.13.27.2-.27.31-.84.53-.73.72.31-.14.47-.53.83-.56C117.17,126.56,118,126.3,118.34,125.71Z"/><path class="cls-1" d="M96.82,130.53a3.09,3.09,0,0,0-.61.19c-.36.27.08.32.44.18C97.16,130.59,96.3,130.83,96.82,130.53Z"/><path class="cls-1" d="M111.71,130.65c-.14-.18-1.75.74-1.7,1A7.33,7.33,0,0,1,111.71,130.65Z"/><path class="cls-1" d="M113.48,131.43a2.28,2.28,0,0,0-1.18.86A7.4,7.4,0,0,0,113.48,131.43Z"/><path class="cls-1" d="M105.28,133.46a3.56,3.56,0,0,0-1.26.63A3.56,3.56,0,0,0,105.28,133.46Z"/><path class="cls-1" d="M100.59,135.24c-.32,0-.59.29-.92.33-.11.14.26.07.45.07Z"/><path class="cls-1" d="M98.68,136.17c-.39,0-.7.27-1.07.31C97.47,136.65,98.46,136.5,98.68,136.17Z"/><path class="cls-1" d="M79,134.52c-.13,0-.07.07,0,.09a.89.89,0,0,1-.51,0c-.3.09-.16.34-.64.29-.44.21.69,0,.25.16C78.52,135,79.71,134.66,79,134.52Z"/><path class="cls-1" d="M77.61,135a.65.65,0,0,0-.51,0c-.19-.05-.38-.09-.24-.16a1.33,1.33,0,0,0-.65.18l.63.18C77.1,135,77.35,135.13,77.61,135Z"/><path class="cls-1" d="M74.74,134.29a2.44,2.44,0,0,0-1,.13A1.18,1.18,0,0,0,74.74,134.29Z"/><path class="cls-1" d="M91.29,138c-.59.1-.49.41-.22.44C91.75,138.26,91.21,138.17,91.29,138Z"/><path class="cls-1" d="M92.44,138.25c-.72.13-1.74.28-2,.7C91.1,138.68,91.82,138.78,92.44,138.25Z"/><path class="cls-1" d="M90.35,138.31a8.24,8.24,0,0,0-1.33.43c.45-.06.9-.22,1.36-.25C90.48,138.4,90.18,138.42,90.35,138.31Z"/><path class="cls-1" d="M88,138.09c-1.17.35-1.47.25-.64.56C87.9,138.39,87.82,138.26,88,138.09Z"/><path class="cls-1" d="M70.94,134.44a2,2,0,0,0-1.26,0A2.68,2.68,0,0,0,70.94,134.44Z"/><path class="cls-1" d="M64.86,133.68c-1.24.14-2.21-.21-3,0a16.27,16.27,0,0,0,2.8.17c.11.07-.15.1-.29.15C65.21,134.3,65.31,133.94,64.86,133.68Z"/><path class="cls-1" d="M79.87,139.93c-.72-.05-.26.38-.69.3C79.13,140.54,80.1,140,79.87,139.93Z"/><path class="cls-1" d="M79.18,140.14a2.34,2.34,0,0,0-1.24.26A2.8,2.8,0,0,0,79.18,140.14Z"/><path class="cls-1" d="M59,133.2l-.44-.27c-.26,0-.15.12-.44.14C58.46,133.09,58.71,133.26,59,133.2Z"/><path class="cls-1" d="M70.13,139.35c-.22.1.11.21-.46.31C70.31,139.73,71.11,139.4,70.13,139.35Z"/><path class="cls-1" d="M50,140.35a1.15,1.15,0,0,0-1.33-.17A5.7,5.7,0,0,0,50,140.35Z"/><path class="cls-1" d="M36.77,134.81c-.45-.42-.62-.05-1.16-.56-.16-.28.55.16.76.15a1.73,1.73,0,0,0-1.26-.43c.32.2.42.31.39.43-.68-.11-1-.7-1.7-.8a1.9,1.9,0,0,1,.79.61,3.86,3.86,0,0,1,1.76,1C36.45,135,36,134.59,36.77,134.81Z"/><path class="cls-1" d="M32,132.21l-.36-.44c-.56-.16-.53-.24-.9-.24.34.4,1.26.51.66.52A.54.54,0,0,0,32,132.21Z"/><path class="cls-1" d="M30.37,130.89c-.07.1-.56-.08-1-.19l.27.34a.7.7,0,0,1,.38.2c.13-.13,0-.17.51.06C30.4,131.09,30.57,131.11,30.37,130.89Z"/><path class="cls-1" d="M28.62,129.48c-.5-.14-.79-.52-1.28-.69.42.44,1.08.64,1.41,1.17C29.1,130,28.65,129.75,28.62,129.48Z"/><path class="cls-1" d="M26.46,128.48c.41.17.61.18.35-.14a2.16,2.16,0,0,0-.52-.28C26.25,128.13,26.31,128.28,26.46,128.48Z"/><path class="cls-1" d="M26.23,128.13c-.17-.22,0-.19-.18-.42s-.24.06-.43-.16c-.18,0,.07.25.17.42Z"/><path class="cls-1" d="M25.28,127.87c.14,0-.54-.9-1-1A4.48,4.48,0,0,0,25.28,127.87Z"/><path class="cls-1" d="M19.42,122.18c-.38-.12-.57-.39-.89-.55.09.34.5.44.6.78C19.43,122.53,19.73,122.65,19.42,122.18Z"/><path class="cls-1" d="M16.25,119.13a2,2,0,0,0-.76-.84l.22.52Z"/><path class="cls-1" d="M14.5,117.09c-.32-.46-.68-.89-1-1.35-.38-.29.38.8,0,.5.18.3.24.17.38.25S14.15,117,14.5,117.09Z"/><path class="cls-1" d="M12.89,116c-.14-.3-.53-.45-.66-.75-.11.14.11.45.42.89C12.89,116.24,12.58,115.71,12.89,116Z"/><path class="cls-1" d="M11.49,113A7,7,0,0,1,10,111c-.57-.31.31,1,.32,1.41.31,0,.2-.2.83.51.19.59,0,.6.48,1.18C11.94,114,11.78,113.74,11.49,113Z"/><path class="cls-1" d="M10.88,113.21c-.31-.53-.77-1-1-1.52A2.57,2.57,0,0,0,10.88,113.21Z"/><path class="cls-1" d="M9,110.88c-.06-.23-.23-.41-.28-.65-.34-.26-.05.43-.45.07a2.36,2.36,0,0,0,.56.67C8.57,110.4,8.47,110.45,9,110.88Z"/><path class="cls-1" d="M6.67,107.43a2.46,2.46,0,0,0-.23-.66c0,.14-.32-.13-.23.25C6.39,107,6.36,107.16,6.67,107.43Z"/><path class="cls-1" d="M1,63.22a5.11,5.11,0,0,0,.11-2c-.14.55-.34,1.09-.43,1.65C.73,63.1.84,63.08,1,63.22Z"/><path class="cls-1" d="M2.73,50.4c.25-.22.16-.6.31-.87C3,49.28,2.63,50.09,2.73,50.4Z"/><path class="cls-1" d="M4.77,34c.15.1.72-.95.8-1.46A12.07,12.07,0,0,0,4.77,34Z"/><path class="cls-1" d="M8.29,28.17a16.36,16.36,0,0,0,.93-2C8.84,26.75,8.19,27.81,8.29,28.17Z"/><path class="cls-1" d="M16.48,17.17a13.9,13.9,0,0,0,1.11-1.06C17.53,16,16.65,16.7,16.48,17.17Z"/><path class="cls-1" d="M27.75,8.27c0-.13.21-.41.2-.53a2.12,2.12,0,0,0-.64.56C27.56,8.21,27.48,8.36,27.75,8.27Z"/><path class="cls-1" d="M71.14,10.28c.85.14,1.78-.23,2.63,0C73.39,9.85,72,10.14,71.14,10.28Z"/><path class="cls-1" d="M73.9,10.11a1.36,1.36,0,0,0,1.1,0A2.91,2.91,0,0,0,73.9,10.11Z"/><path class="cls-1" d="M51.68,2.48c.1-.1.08-.17-.15-.19a19.9,19.9,0,0,0,2-.58A9.54,9.54,0,0,0,51,2.34C51.5,2.31,51.37,2.46,51.68,2.48Z"/><path class="cls-1" d="M55.84,2.16c0-.13.55-.37.1-.42C55.42,1.85,55.43,2.1,55.84,2.16Z"/><path class="cls-1" d="M54.62,1.56c-.13.1.23.1.4.14.34-.16.47-.27.51-.36C55.21,1.31,54.93,1.64,54.62,1.56Z"/><path class="cls-1" d="M86.12,1a1.41,1.41,0,0,0,1,0A2.37,2.37,0,0,0,86.3.88C86.41,1,86.21,1,86.12,1Z"/><path class="cls-1" d="M88.28,1a1.1,1.1,0,0,0,.89,0C88.61.77,88.34.81,88.28,1Z"/><path class="cls-1" d="M90.49,1.88c1.07.45,2.22.69,3.34,1.05-.15-.27.52,0,1,.07A44.13,44.13,0,0,0,90.49,1.88Z"/><path class="cls-1" d="M94.37,3.05a5.22,5.22,0,0,0,1.44.42A2.54,2.54,0,0,0,94.37,3.05Z"/><path class="cls-1" d="M96.31,3.67a9.68,9.68,0,0,0,1.48.63A2.27,2.27,0,0,0,96.31,3.67Z"/><path class="cls-1" d="M97.51,4.51a5.1,5.1,0,0,1,1.13.7c.43,0,.68.1.47-.26C98.87,5.16,98.07,4.58,97.51,4.51Z"/><path class="cls-1" d="M99.55,2.76c-.25.1.69.42,1,.46a2.39,2.39,0,0,0-.56-.4C99.72,2.76,99.79,2.93,99.55,2.76Z"/><path class="cls-1" d="M104.35,7c-.14,0-.1,0,0,.07l.18.21c.44,0,1.54.85,2.39,1.07-.12-.14-.12-.18,0-.18-.61-.24-1.14-.57-1.79-.77-.46-.51.37,0,.45-.14-.18-.27-.71-.1-.9-.36C104.39,6.83,104.94,7.45,104.35,7Z"/><path class="cls-1" d="M101.85,3.76a13.54,13.54,0,0,0,2.46,1A15.75,15.75,0,0,0,101.85,3.76Z"/><path class="cls-1" d="M107.47,8.67c.39.22.2.45.74.78-.08-.26.08-.28.68,0A4.82,4.82,0,0,0,107.47,8.67Z"/><path class="cls-1" d="M108.47,9a6.79,6.79,0,0,0,1.7.93A6.65,6.65,0,0,0,108.47,9Z"/><path class="cls-1" d="M116.23,7c.19.06-.19-.34,0-.25-.75-.6-1.84-.83-2.43-1.59C113.52,5.55,115.61,6.3,116.23,7Z"/><path class="cls-1" d="M113.74,4.86a12.46,12.46,0,0,0,2.66,1.58A10.07,10.07,0,0,0,113.74,4.86Z"/><path class="cls-1" d="M116.12,5.7c-.24.12.85.62,1.21.83C117,6.14,116.44,6.06,116.12,5.7Z"/><path class="cls-1" d="M116.38,6.25a5.59,5.59,0,0,0,2,1.44C117.62,7.32,117.19,6.6,116.38,6.25Z"/><path class="cls-1" d="M119.38,9.12c-.48-.7.44-.18.79.26.16.38-.43-.07-.79-.26.13.39.66.43.8.82.5-.11,2.27.88,3,1.38.23-.24-1.64-1.18-1.84-1.1.13-.24-.77-.77-.29-.69-1-.53-2-.89-3.46-1.52A4.31,4.31,0,0,0,119.38,9.12Z"/><path class="cls-1" d="M122.66,11.41c-.17-.06,0,.26.13.45a6.79,6.79,0,0,1,1,.69c.1,0,0-.22.29,0-.17-.23-.38-.44-.55-.67C123.12,11.65,123.13,12.05,122.66,11.41Z"/><path class="cls-1" d="M123.6,12.85c.33.29,1.13.94.77.32C123.9,12.84,123.93,13,123.6,12.85Z"/><path class="cls-1" d="M124.66,13.13c-.36-.05.44.48.45.74.23,0,.13-.14.63.26C125.52,13.69,125,13.49,124.66,13.13Z"/><path class="cls-1" d="M136.32,68.82c.12-.18.2.42.33-.08-.08-.22,0-.42-.12-.64-.05,1-.81-.53-.25.59a13.64,13.64,0,0,1-.37,3.19c.16.51.07.67-.12.85.05.12.14-.13.18,0,.05.49-.19.11-.29.57.21.15.16.4.43,1.11A3.82,3.82,0,0,0,136,73c.29-.31.15-.72.14-1.1.49-.74.33-2,.53-2.42-.17-.59-.37.58-.37.81C136.16,69.79,136.54,69.35,136.32,68.82Z"/><path class="cls-1" d="M133.43,79A6.93,6.93,0,0,0,133,80.9c.18-.4.2-.07.37-.37C133.06,80.19,133.46,79.6,133.43,79Z"/><path class="cls-1" d="M129.08,83.36c-.08.32,0,.47.17.19,0,.16-.11.28-.19.41,0,.45.11.36.14.66a9.79,9.79,0,0,0-.5,2c-.65.63-.56,1.58-.95,2.33-.3-.2.3-1.27,0-1.49-.28,1.27-.81,1.84-1,3.29a1,1,0,0,0-.51,1c-.28.19-.41-.06-.29-.54-.18.11-.12.36-.25.5.21-.14,0,.6.38.21-.5.62-.54,1.5-.93,2.2.28-1,.37-1.73.45-2-.41.16-.55,1.58-.79,2.28-.22-.07-.5.67-.66,1,0,.11.16-.07.15.09s-.1.21-.12.33-.06-.21-.23,0c-.44.83-.74,1.77-1.17,2.61-.07,0-.07-.05-.16,0,.42-.93.45-1.3.8-2.17-.53.58-.77,1.37-1.25,2,0,.32.22-.27.37-.29a1.94,1.94,0,0,1-.18.56c-.36.38-.36-.07-.62.38-.05.23.07.17,0,.42.09-.07.1-.21.14-.32.21-.16.46.09.37-.28.53-.44.22.31,0,.67.18-.57-.46.46-.4,0-.22.21-.13.65-.33.88s0-.58.17-.86-.33.09-.28-.22c-.3.29-.36.76-.68,1-.14-.13.13-.46.08-.78-.41.19-.36.75-.75.95,0,.27.33-.37.56-.4a4.68,4.68,0,0,1-.58.82c.41-.31.35,0,.44.21a2.23,2.23,0,0,0-.15.31c-.34.36,0-.34-.33,0,0,.59-1.71,2.59-1.85,2.19-.06.34-.35.59-.21.72-.45.37-.31,0-.62.17.37-.41.56-1,1-1.36a6.45,6.45,0,0,0-1.5,1.76c-.19.11,0-.25-.32,0a2.31,2.31,0,0,1-1,1.3c.12.21-.21.55.16.49-.34.11-.42.63-.93.93.44,0-.51.78-.35.92-.64.5.13-.54-.34-.21a1.57,1.57,0,0,1-.59.83c-.1-.05-.09-.21-.13-.31a18,18,0,0,0,1.94-2.43c-.28.08-.27.46-.6.49-.6,1.45-2.09,1.9-2.83,3.21-1.25.65-2.85,2.71-3.64,2.74-.35.26-.69.53-1.05.76,0,.42-.71.69-1.1,1.09-.07,0,0-.21-.2-.12.09.22-.53.69-.59.49-.82.94-2,1.28-2.91,2.08.35-.08-.12.32-.24.46s.28-.42.13-.44a17,17,0,0,0-2.54,1.65c-.12-.31-1.17.27-1.28.56-.25,0-.4.16-.64.15-.29.7-2.51,1.06-3.51,1.93-1-.07-2.39,1.34-3.23,1.13a4.38,4.38,0,0,0,.89-.39c-.29-.14-1.2.57-2,.74-.33.08-1.55.2-1.53.46-.19.17-.44,0-.65,0-.68.39-1.43.44-2.12.82-.88.07-2.71.54-4.08.77a59.4,59.4,0,0,1-26.4-1.92,57.14,57.14,0,0,1-22.58-13.26A56.41,56.41,0,0,1,18.28,87.93a55.79,55.79,0,0,1-2.67-26.06c.15-.28.2,0,.28.18-.68,2.54-.35,5.28-.61,7.88.18.21.15.34.21.75-.08.1,0-.18-.13-.32-.11.4.22.85,0,1.25.12.32.23-.06.35.23A8.39,8.39,0,0,0,16,76.18a11,11,0,0,0,.54,3.48c0,.13-.06.16-.11.11.55,1.77.85,4.33,1.52,5.4,0,.3-.15.06-.06.43.09.09.09-.12.12-.23.38,2.31,1.53,3.91,2.13,6.24.36.1.58,1.28.83,1.79.41.87,1,1.35,1,1.83a5.41,5.41,0,0,1,1.16,2.19c.31.37,0-.29.34.08.15,0,.21.62.05.43.49.38.59.94,1,1.34.06.21,0,.15-.15.08.59.51.84,1.18,1.37,1.72-.24.23,0,.06.19.6.1-.06.33.1.49.31-.06,0-.06.17,0,.36.57.22.8,1.28,1.71,1.85,0,.19,0,.23-.12.2.42.45,1.07,1.23,1.68,1.89a6.42,6.42,0,0,0,1.35,1.27c.46.42.67,1,1.35,1.28.25.55.91,1.34,1.26,1.36a55,55,0,0,0,9.13,6.94c.2.05.14-.06.28,0a8.5,8.5,0,0,0,.67.66c2,.84,4.48,2.62,7,3.15.15.14,0,.17.19.31.92.32,1.88.54,2.76.94,0-.14-.07-.55.83-.37.2.25-.06.27.45.51.1.17-.63.13-.74-.1-.44.08.55.5.56.27,1.14.7,2.58.6,3.74,1.22.38-.22,1.21.07,1.72.43.23,0,.15-.09.06-.17,1.11.38,2.31.46,3.44.77.12-.06,0-.14.16-.19,1.66.38,4,.24,5.27.68.11,0,0-.09-.08-.14,1.87.16,3.77,0,5.65.14,1.34-.28,3.55-.31,5.23-.56.39-.16-.1-.19.29-.35a1.18,1.18,0,0,1,.41-.07c-.35.55,1.31,0,1.89,0,.16-.28-.47,0-.63-.06s.45-.22.6-.29c.76.42,2.09-.24,3.13-.28.37-.21-.12-.18.26-.39.13-.07.27,0,.4-.11.12.05-.14.2-.26.3a1.13,1.13,0,0,0,.9-.3c0-.08-.37-.07-.05-.25-.22,0-.39.17-.62.08.3-.27.68-.13,1-.46.39.15.7-.07,1-.14.13.19-.67.17-.87.41.71.09-.26.19-.47.36,1,0,.88-.3,1.85-.39.15-.14-.32-.08-.25-.19s.2,0,.31,0,0-.17-.24-.11c.44-.4,1-.48,1.39-.89.33,0,.5-.08.46.11.43-.15.76-.67,1.22-.69.25,0-.26.29-.32.41.36,0,.57-.34.43-.41.25-.24.63-.06.88-.31.14,0-.17.26.28.17.34-.5,1.77-1.23,1.89-.94.4-.21.87-.27,1.19-.71.65.07,1.24-.71,1.59-.53.28-.74,1.83-.69,2.43-1.53.81-.35,1.48-1,2.29-1.3.31-.06-.44.31.08.15,1-1.14,2.41-1.48,3.4-2.57-.18,0-.3.19-.49.22s0-.19-.09-.15c.52-.35,1.14-.57,1.63-1,0-.16-.18,0-.31.09s.39-.27.39-.55c.09.08.2.05.42-.12.13-.76,1.37-1,1.8-1.83.35-.17.42-.08.21.28.31-.07.41-.39.68-.52,0-.13-.23,0-.37,0,.09-.34.33-.5.5-.73.17,0,.16.1,0,.36a13.9,13.9,0,0,1,1.54-1.62c.15,0-.05.31.32,0,0-.64,1.73-2.1,2-2.81.31,0,.81-.73.52-.08.33-.32.26-.43.18-.56.26-.37.66-.15.89-.77-.24.06-.26.34-.46.44.06-.14,0-.19,0-.17a8.06,8.06,0,0,0,1.86-2.62c.17.18.19.09.57-.07.09-.35-.26-.08-.48,0,0-.7.81-.8.89-1.47.49-.44.11.43.44.22.09-.43-.16-.35-.2-.57.09-.44.36-.25.41-.49.12,0,0,.24,0,.41.25-.28.46-.86.23-.77.63-.47.4-.61.94-.89a2.92,2.92,0,0,1,.75-1.31c0-.15-.33.13-.18-.38l-.44.34c-.2.33.1.29-.32.55-.06.23,0,.17.14.1-.33.58-1.34,2.39-1.49,1.8-.19.11-.12.44-.2.64-.34.2-.3-.14-.14-.51-.16.15-.73,1.07-.32.82-.21.43-.61.68-.68,1.22-.19.09.09-.49,0-.46-.34.19-.71,1.29-.83.81-.24.15-.12.39,0,.28a3.15,3.15,0,0,1-.78.85c0,.13.12.08.09.23s-.32.37-.42.61c-.06,0-.08-.12-.09-.23a8.58,8.58,0,0,1-1.68,2.18c-.24.1.21-.26.16-.45-.29.15-.36.53-.71.62a1.94,1.94,0,0,1,.88-.89c-.06-.5,1-1.07,1.19-1.75-.93,1-1.65,2-2.47,2.83,0,.3.26-.21.4-.19-.28.68-.71.24-1,.92.17-.12.32-.28.48-.4,0,.38-.41.37-.44.75-.24.14-.14-.08-.08-.24-.13.11-.2.29-.38.35.08.35-1.29,1.52-2,2-.27,0,.4-.25.4-.5a19.84,19.84,0,0,1-3.19,2.83c-.13,0,0-.23.11-.38-.46.11-.54.57-.43.65-.45.43-.15-.21-.68.1s.44-.09.25.19a6.94,6.94,0,0,1-2.07,1.55c-.09.45-.48.55-.88,1-.36.14-.19-.09-.47,0a6.1,6.1,0,0,1-1.58,1.21c-.21-.06.4-.39.55-.51A3.27,3.27,0,0,0,99.81,116c-.38.12,0-.23-.4-.11.18-.28.61-.41.52-.58a18.81,18.81,0,0,0-2.7,2c-.56.15.22-.41-.24-.31a10.18,10.18,0,0,1-3,1.3,1.44,1.44,0,0,1-1.11.5c-.16.17.19.11-.11.34-.81,0-2.4,1.17-2.62.82-1.17.5-2.92.79-3.76,1.29-.66-.06-1.23.37-1.91.21-.38.35-.84.23-1.24.6-.37,0-.14-.14-.43-.17a28,28,0,0,1-7,.87c-.07.12-.32.25.09.21-1.94,0-3.87,0-5.85.09-.48.1-.91-.23-1.39-.22-.09,0,.12.12,0,.17a6.53,6.53,0,0,0-2.21-.16l-.55-.31a21.19,21.19,0,0,1-6-1c-.07,0,0,.08-.14.1a58.63,58.63,0,0,1-10-3.39c-.63,0-2.7-1.22-4-2A5.89,5.89,0,0,1,44,115.15l-.44-.07c-.16-.47-1.17-.59-1.56-1.21-1.58-.68-3.29-2.4-5-3.5l-.18-.38c-2.15-1.45-3.68-3.49-5.61-5.2-.52-1-1.59-1.63-2-2.67-.62-.39-.75-1.08-1.32-1.51-.91-1.6-2-3.1-3-4.67a52.09,52.09,0,0,1-4.85-11.25l-.27-.35c-.09-.16,0-.19.1-.12a54.65,54.65,0,0,1-1.53-5.79l.12-.4c-.09-.4-.34-.13-.27-.78.07-.11.05.16.16.29,0-.27-.08-.7-.21-.68A57,57,0,0,1,20.06,53a51.9,51.9,0,0,1,12.1-20.81l.13-.31c1.66-1.47,3.1-3.31,5-4.48.28-.28.39-.73.61-.55a3.48,3.48,0,0,1,1.46-1.13l.25-.38A11.33,11.33,0,0,0,41.55,24c1.65-.9,3.26-1.9,5-2.79a22,22,0,0,1,5.25-2.09l.34-.3a3.62,3.62,0,0,0,1.94-.7c.2,0,.11.12.33.13.18-.39.57-.3.88-.28a11,11,0,0,1,3.34-1.05c.18,0,.2.11.12.2.31,0,.3-.38.89-.3.09-.06-.05-.08-.11-.11.3-.14.61,0,.9-.29.21,0,.12.1,0,.17a5.47,5.47,0,0,1,1.61-.5c.3.18-.33.17-.6.35a35.61,35.61,0,0,1,3.66-.92l.51.18c-.09.2.29-.13-.2-.16a10.47,10.47,0,0,1,1.88-.44c.13.17.87.08.39.24.35.06.35-.27,1,0,.48-.19-.26-.13-.4-.17.74-.25,1.45,0,2.21-.29.09.05-.12.11-.23.16.2.06.43-.09.61.11-.17-.25.37-.09.76-.28,1.77.38,3.91-.36,5.42.33.41-.34,1.51-.12,2.17-.08-.08.26-.9-.07-1.3,0,.15.11.33.09.48.21-.61,0-1.26.2-1.86.2.13-.44-1.54-.17-1.86-.13a12.38,12.38,0,0,0,4.29.21c.08.08-.21.11-.37.15.65,0,2,.28,2.07-.09.41,0,.22.22.44.32,1.24,0,2,.15,3.35.18a28.73,28.73,0,0,0,4.8,1.06,10,10,0,0,0,3.06.75A38.74,38.74,0,0,0,96,19.41a10.78,10.78,0,0,1,3.83,2.2c-.26-.82,1.53.6,1.69.13.46.34,1.28.29,1.54.86a13.54,13.54,0,0,1,5.44,4.2c.32.1.66.22.65,0a1.74,1.74,0,0,1,.66.87c.4.1.55.39.8.61.28-.06.47.18.8.2-.06-.23-.37-.27-.46-.47a11.61,11.61,0,0,1,3.71,4.21c.39,0,.86.41,1.25,1a13.94,13.94,0,0,1,4,3.38l.13.69c.14-.3.72.73,1.12,1.08,0,.07-.06.14-.16.07a33.6,33.6,0,0,0,2.71,3.63,34.18,34.18,0,0,0,3,4.68,38,38,0,0,0,2.12,3.88c.83,1.45,1.47,2.8,2.22,3.91-.11-.44,0-.47.09-.72.22.29.19.61.4.9-.06-.58-.28-.8-.19-1.17-.44-.5-.3-1.57-.67-1.7-.16-.25,0-.56,0-.83-.29-.72-.55-1.43-.8-2.15.43.6.55.9,1.17,1.72a35.07,35.07,0,0,0-4.45-9,2.19,2.19,0,0,1-.33-.88c-.08,0-.13.08-.16.18a7.52,7.52,0,0,0-.6-.91c.11-.63-1.13-1.55-1.72-2,0-.36.35,0,.64.24-.21-.26-.36-.76-.21-.81.47.42.37.6.81.81,0-.29-.53-.37-.45-.71-.3-.34-.23,0-.48-.31a1.06,1.06,0,0,1-.24-.41c.13-.06.52.31.64.24.09.09.12.21.22.29-.38-.12.32.67.59,1,0,.23-.09.15,0,.4.62.85,1.12.84,1.64,1.66-.1.15-.65-.6-.94-.79.2.38.7,1.15.78.85a14.52,14.52,0,0,0,1.93,3,6.31,6.31,0,0,0-1.23-1.87A3.56,3.56,0,0,1,128.84,44a6.39,6.39,0,0,1,1.31,2.51c1.61,2.57,2.29,5.38,3.43,8.16.07-.66-.25-1.28-.1-2a5,5,0,0,1-.42-2.05c-.12-.22-.14-.08-.24-.21.14-.56-.3-1-.34-1.56,0-.27.22,0,.41.29a8.54,8.54,0,0,0-.62-1.89c-.06-.51.28.18.27-.18a11.26,11.26,0,0,0-1.21-2.4c.11-.37.76.77,1,1.16a1.89,1.89,0,0,1-.09-.63c-.09-.1-.06.08-.08.15-.29-.43-.22-.76-.53-.89,0-.25.1-.14.07-.41a12.52,12.52,0,0,1-1.06-2.3c-.24-.24-.35-.21-.34.1a2.2,2.2,0,0,1-.48-.63,1.45,1.45,0,0,1,.29-.61A7,7,0,0,0,132,43a20.87,20.87,0,0,1,1.78,4.38c.21-.47.49.68.65,1.3-.13.22-.19-.64-.4-.83,0,.68.61,1.26.86,1.91,0,.49-.29-.24-.11.4.34.08.83,1.78,1,2.69a11.93,11.93,0,0,1,.88,2.6c.31.05-.13-.92-.18-1.27a12.18,12.18,0,0,1,1.1,4.55,13.35,13.35,0,0,1,.62,2.81c.18,1.09.36,2.09.76,2.23,0,1,.38,1.32.29,2.1-.15,0-.13-.51-.33-.42.43,2.09.87,4.18,1.46,4.36.14-.49.27-1.37.49-1.13.19-1.13.05-2.94.58-3.27-.27-.54-.25-1.53-.53-1.65a1.06,1.06,0,0,0,.12.54c-.15.27-.12-.05-.25-.41a1.83,1.83,0,0,0,.1-1.06c.07-.39.18-.24.32.15,0-.34-.07-.67-.19-.68.24-.84-.28-2.73-.65-4,.17-1.52-.69-3-1.33-4.46l0-.27c.61.53.94,2,1.39,2.72.07-.27-.09-.53,0-.81-.94-2.2-1.1-3.62-2-5.72,0-.08.08,0,.09-.15a10,10,0,0,0,1.14,2.3c0-.37-.2-.7-.18-1.07-.14.2-.27-.15-.3-.64-.08.14-.2.15-.35.05-.1-.78-.78-2.43-1-2-.24-.28.22-.2-.07-.66.06-.1.25.49.34.21-.14-.53-.62-.9-.68-.7-.17-.32.13-.34.1-.69-.36-.65-.34-.18-.6-.56s0-.47.08-.29c-.11-.55-.33-.35-.43-.45s-.13-.71,0-.82c.27.26.32.57.53.85-.12-.8-.55-1-.7-.94A5.38,5.38,0,0,0,135.07,42c-.15-.68.26,0,.24-.34.28.48.52,1,.77,1.45q0-.79.51-.12c0-.35-.26-.62-.37-.6.17-.13-.23-.6-.05-.82A9.6,9.6,0,0,1,135,39.42c0-.22.51.58.43.85.08.12.08,0,.08,0l.19.22a3.68,3.68,0,0,0-.74-1.46c.05-.3.34-.09.39-.4-.29-.2-.22-.24-.59-.66-.13-.5,0-.39,0-.71-.22-.28-.25-.19-.39-.3-.08-.37.15-.1,0-.57-.47-.7-.83-1.43-1.23-2.15,0-.39.27.24.62.49-.09-.4-.54-.66-.55-1.09-.07,0-.28-.21-.27,0-.84-1.82-2.3-3.35-3.31-5-.13-.09,0,.16,0,.3a3.44,3.44,0,0,1-.73-.69c.3-.79-1.71-2.07-2.31-3,.74-.07,1.49,1.19,2.35,1.95-.22-.56-.9-.95-.76-1.29l-.73-.53c-.14-.31,0-.29,0-.44.21.3.61.49.73.84.05-.26.3.22.52.19-.08-.69-1.16-.82-1.24-1.5-.58-.36-1.19-.73-1.75-1-.25-.49,0-.34.3-.18-.1-.48-.53-.74-.8-1.11,0,.14-.22.11-.65-.23.13.24.44.37.46.68a3,3,0,0,1-.89-1l-1.14-.7c.05-.31.33.07-.28-.63-.35-.55.39.09.1-.4-.46.13-.88-.51-1.75-.9-.52-.62-1.1-1.19-1.6-1.83a9.14,9.14,0,0,1-2.27-1.09c-.37-.49.51.14.47-.05a7.1,7.1,0,0,0-3-1.3c.9.87,1.59.71,2.29,1.17.12.2.07.26-.06.23.19.29.79.45.59.19.6,1,3,1.79,3.7,3.23a12.84,12.84,0,0,1-3.5-2.7c-1.06-.15-2.45-1.43-3.84-2.45a1.68,1.68,0,0,0,1.2,0c-.41-.1-.63-.38-1-.5-.63-1.09-1.48-.83-2.14-1.82-1.16-.58-.79-.39-1.85-1,.25.27-.15.07,0,.24a4.59,4.59,0,0,0-1-.47c-.4-.47.29-.14.62.1,0-.23-1.42-.88-1.5-.7-.44-.3-1-.45-1.3-.93-.63-.42-1.56-.44-2.13-.93-.29-.45.54-.25,1-.25a25,25,0,0,1-2.55-1c-.33-.36-.08-.27-.6-.52-.48-.07.7.44.23.37a5.45,5.45,0,0,0,1.08.54c0,.28,0,.21.59.54.09.11-.18,0-.34,0-.36-.11-.48-.53-.82-.66,0,.06-.34,0-.25.12-.43-.16-.77-.44-1.18-.63-.11-.19,0-.17.34,0s.06.12.28.29c.13-.07.37-.09.11-.38-2-.26-3.58-1-5.38-1.43C97,5,96.84,4.86,97,4.86a9.71,9.71,0,0,1-2.43-.53c0-.25,1.38.18,1.35,0,.25.31.61.34.14,0-1.48-.37-2.79-.74-3.89-1.11-.3-.41,1.4.28,1.49,0-.49-.16-.61-.3-.93-.2a12.12,12.12,0,0,0-3.23-.86C88.26,2,87,1.85,86.12,1.69c-.34-.21,1.08,0,.39-.26a3.3,3.3,0,0,1-1.56,0,4.8,4.8,0,0,0,1.14.31c.06.06,0,.08.08.16-.82,0-1.49-.52-2.37-.38-.22-.12-.06-.16-.31-.28a14.09,14.09,0,0,1-1.87-.19c-.21-.11-.2-.18-.06-.23-.29-.12-.65,0-.9-.2-.29,0-.18.09,0,.17A38.14,38.14,0,0,0,74.15.28c-.18-.11,0-.18.32-.24-.39,0-.81,0-1.2,0-.65.08.25.25-.32.33a3.15,3.15,0,0,0-1.85,0c-.36-.1,0-.17-.49-.27-.24.09.07.2-.17.3-.71-.25-.61,0-1.59.08-.35-.09,0-.18-.49-.26-.11.07-.12.14.11.21C67.63.54,65.86.33,65.88,0c-1.24.23,1,.2.22.51-.45,0-.31-.1-.9-.17-.61.2-1.34.1-1.59.45C63,.88,62.39,1,62.18.74L61.52,1c.49.18.17-.2.65,0-.33.35-2.26.35-3.37.77.17-.21,0-.33.64-.49-.92-.1-1,.49-1.93.7a2.81,2.81,0,0,0-1.78.41,4.87,4.87,0,0,0-2.17.43c-.22-.15.65-.23.86-.42-.27-.08.32-.34.1-.42-.66.41-1.67.7-2.23,1.14-.22,0-.52.13-1,.18-.32-.18,1.51-.46.47-.48.35-.28.77-.15,1.13-.42-.42-.11-1.42.52-1.42.22-.39.27-.85.33-1.49.68-.05-.36-.73.21-1.42.2a23.36,23.36,0,0,1-2.19,1.08c0,.18.7.09,1-.16,0,.31-1.12.53-1.58.69-.15-.09.14-.35.31-.44-.13-.1-.49,0-.57-.16.07.39-.7.37-1.27.89.34.11.56-.26.89-.2a2.91,2.91,0,0,1-1.23.47c-.14,0,.2-.12.34-.27-.21,0-.54.16-.4,0-.49.06-.08.34-.6.29.17.09.46.13.11.42-.58.25-.08-.12-.55,0-.3.23-.14.27,0,.34a1.74,1.74,0,0,0-.59.3c-.69.09.24-.52-.28-.5-.09.17-.27.37-.14.44-.35.37-.86.17-1.18.62-.47.1-.37-.06-.68,0A5.15,5.15,0,0,1,38.38,8c-.17.42-1.06.79-1.67,1.11-.35.09.53-.48-.09-.25a6.32,6.32,0,0,1-1.78,1.18c-.42.37.3.07,0,.35-.64.43-.24-.16-.82.07-.29.19-.39.3-.38.43-1.32.24-2.11,1.63-3.31,2.12-.22.51-.48.63-1.08,1.29-.19.14-.41.09-.8.42-.24-.1.56-.56.72-.84a3.92,3.92,0,0,0-1.48,1.35c-.56.33-.37.06-.8.17-.38.37-.68.46-.73.8l-.5.18c.31,0-.71,1-1.29,1.13-.13.52-.48.66-1,1.06-.3.48.07,0,.3,0-.17.3-.46.41-.66.64-.51.18-.25,0-.2-.29a3.82,3.82,0,0,1-1.44.92.69.69,0,0,1,.27-.31c-.17-.07-1,.85-1.39,1.22,1.07-.89,1.08-.5,2.1-1.35-.66,1.14-1.19.77-1.82,1.5.14.11,1-.43,1-.19-.36.12-1,.77-1.33.82-.14.4,0,.55-.11.92-.11-.34-.55.14-1,.41-.26.1.23-.57-.22-.27-.06.27-.15.36,0,.46-.23.26-.67.51-.3.45a5,5,0,0,1-.94.71c-.11-.09.79-.91.42-.92-.39.62-2.15,3.31-2.15,2.52-.26.29-.36.75-.72.94,0,.72-1.15,1.61-1.4,2.67-.36,0-.69.78-.72.39-.32.32,0,.42-.31,1a9.56,9.56,0,0,0-1.58,2.59c-.26,0-.66.73-.56.89-.39.19-.47.62-.79.87.18,0,.29-.19.55-.23a2.84,2.84,0,0,1-.88,1c-.37.58,0,.45-.65,1.14,0,.09.2-.06.12.25a4.66,4.66,0,0,1,.94-1.4c-.48.82-1,1.65-1.4,2.51-.07.05-.07,0-.17,0,.14-.44.68-1.07.48-1.26-.44.54-.43,1.25-1.08,2a1,1,0,0,1-.17.52c0,.13.08.17.25,0-.13.6-.51,1-.64,1.61-.28.38-.22,0-.45.33-.11.52.31-.15,0,.48-.3.39-.06-.39-.35.24-.08.37.16,0,.14.23-1.3,1.63-1.71,4.17-2.46,5.63-.15.18,0-.42-.15-.36-.33.67-.19,1.55-.75,2.11,0,.13.1.16.24,0,.07.32-.11.53-.07.83-.17.3-.16,0-.16-.22a8.33,8.33,0,0,0-.38,1.13c0,.15.14-.08.23-.19.07.31-.14.51-.13.8-.08,0-.09-.22-.24,0l0,.57c-.17.33-.17,0-.37.41C2.09,54.5,1.87,55.77,1.6,57l.2-.34c-.07.34.05.75-.12,1.06s-.15,0-.18-.19a8.28,8.28,0,0,0-.22,2.53c-.21.16-.3.46-.24,1,.26-.63.17,0,.22.34.07-1.22.39-1.66.51-3-.06-.16-.06.11-.13.23-.14-.32.2-.49.06-.81A4.66,4.66,0,0,0,2.23,57c-.48,1.45-.44,3.59-.86,4.62,0,.09.08,0,.1.16,0,.52-.14-.15-.26.33A5,5,0,0,1,1,64.45c.22.26.15.8.07,1.34-.16-.22-.3-.71-.5-.37,0-.4.1-1-.08-1.09,0,.51-.06.52-.24.75.17.25.11.59.25.72,0,.46-.16.86,0,1.34a4.77,4.77,0,0,0-.09,2.63c-.26,0-.25.47,0,1.18-.08.09-.15.08-.22-.16-.12.86.19,1.78.13,2.65.1.24.16-.33.26,0s-.2.5,0,.79c-.06.22-.14.23-.22.11,0,.42.24,0,.17.67-.07.33-.14.45-.25.25.17.67,0,1.87.34,2.12-.05.37-.17,0-.21.52.27,0,.12.69.11.66.15.93.53,1.21.42,2.24.28.16.32,1.25.46,1.83-.07,0-.17-.16-.2.14.36.38.2,1,.62,1.68.22.18.1-.69,0-.92s.31.57.32.77c.26.22-.07-.59-.06-.78s.18.2.29.37-.13.77.26,1.29c0,.34-.06.66-.22.41-.06.48.28.93.19,1.43.14.1.25-.06.38.48a5.41,5.41,0,0,1-1.24-2.12c.06.43.06.87.11,1.31.13.18.32.21.28.64.11.11.14,0,.25.1.26.56,0,.35,0,.93.33-.16,1,2.08.72,2.43.21,0,.16.54.49.86,0-.45-.33-.84-.3-1.29.16,0,.33,1.09.46,1.52.1,0,.23.15.42.46s0,.33-.17,0c.08.46.37.42.34.07s-.14-.59-.41-.85c0-.14.13-.16.18-.3.31.56.24,1.2.57,1.75-.12.18-.77-.75-.52.1.18-.2.18.15.43.59-.22.14-.26-.39-.08.55.18,0,.25,0,.52.56-.24.3.46.89.4,1.52a20.3,20.3,0,0,1-1.68-4.34c-.09.7-.5-1.13-.75-.81,0,.23.09.43.06.66.36.18.5,1.29.41,1.55.12-.43.43.53.52,0,.1.34.36.64.35,1s-.35-1-.26-.08c-.28-.21-.07-.52-.35-.74,0,.26-.1.14-.08.43.54.66.4.93.28,1.16.35-.07.72,1.59,1.13,2.33.26.21.09-.07.06-.43.61.74.94,2.18,1.39,2.5.13.52-.22,0-.23.21a15.35,15.35,0,0,1-.86-2q-.3-.3-.33.09a.71.71,0,0,1,.2.49c.08,0,.16.08.17,0A6.29,6.29,0,0,0,7,101.29c-.56-.15.22.94.09,1.37a1.33,1.33,0,0,1,.34.58c.34.14-.23-.55-.2-.78s.53.38,1.09.89c.06.63-.5-.41-.66-.33.16.66.26.46.68,1,0-.24.15-.15.23-.23.21.26.17.6.48.81-.11-.57-.72-1-.69-1.57a6.3,6.3,0,0,1-1.18-1.69c0-.25.33.52.43.69.26.17-.16-.67-.23-.47.36-.24.8.6,1.34,1.69a19,19,0,0,0,1.84,3.29c0-.19-.09-.38,0-.3,0-.31-.44-.48-.42-.81.07-.12.74.71.75,1.1,0-.32.86.51.92,1,0,.15-.58-.58-.63-.86-.13.27-.37-.13-.65-.15.21.54.07.42.32,1a15,15,0,0,0-1.6-2.19c.09.58-.22.05.07.83.13-.08,0-.57.54.06a21.35,21.35,0,0,0,1.39,2.28c-.1-.33-.09-.47.1-.34-.18-.35-.39-.69-.59-1,.12,0,.46.37.66.57s0,.17-.16.07c.3.7.32.06.72.82-.09.11-.38-.11-.43.06.8.63,1.53,2.28,2.41,2.91,0,.21-.26,0,0,.47.38.35.57.8,1.07,1.07-.14-.33-.14-.48-.1-.56A16.73,16.73,0,0,0,16.25,114c0,.33-.7-.07-.88-.7.07.31-.34,0-.26.3.59.27.87.81,1.74,1.56,0-.33-.46-.43-.54-.74.19-.1.51.59.93.81.1.23,0,.16.07.42.58-.05,1,1.19,1.66,1.58,0,.47-.87-.62-1.07-.55a.87.87,0,0,0,.3.27c.32.5-.36-.14,0,.35.42.27.79.89.8.57.46.21.53.7.9,1,0,.15-.31.08-.5-.28-.17.26,1.37,1.09,1.14,1.45l.77.41c-.18-.28-.06-.27-.1-.42.44.3.32.41.42.67.85.35,1.17,1.12,2.12,2.19.76.36,1.82,1.75,2.9,2.38.16-.14-.4-.39-.62-.68.31,0,1.29.82,1.78,1.21,0,.3-.66-.52-.68-.26.26.33.47.58.44.68.31.14,1,.3,1.43.44.53.31.22.45.53.78s1.23.59,1,.73a13.09,13.09,0,0,1,2.62,1.62c.44.43-.57-.06-.14.37.74.31,0-.32.6-.08s.41.52.68.83a9.32,9.32,0,0,1,.92.55c-.16,0-.12.2.25.56a.37.37,0,0,1,.43.09c.35.06-.35-.22-.36-.41.4.06.63.35.93.54s-.35-.38-.5-.44c0-.11.2-.11.3-.18.45.25.37.39.75.33.39.44-.21.06-.3.18.42.37.49.16.71.15.59.24,1.08.62,1.66.88,0,.12-.5,0-.59.13.5.33.81.88,1.53,1.07a2.8,2.8,0,0,0,1.48,1.18c-.28-.23-.7-.43-.6-.56a3.55,3.55,0,0,1,1.13.47c.29,0-.09-.23.38-.12-.48-.19-1.26-.81-1.46-.67,0-.12-.1-.27.29-.2s.16.35.87.36c.5.32-.4,0,.1.33,0-.27.7,0,1.18.37.39,0-.06-.25-.4-.36.25,0,.43.15.68.15.09.15.77.55.46.53.21.11,1.18.22.85.39.38.24.81-.09,1.38.26.1.11-.28,0-.48,0,.61.26,1.67.9,2,.74.2,0,1.07.41.43.33,1.13.35,2.72.55,3.29.18a4.73,4.73,0,0,0,.92.21c.45.28-.56.15.08.48a1.69,1.69,0,0,1-1-.29c-.65,0-.84.05-.43.32.14,0,0-.09-.08-.16a2.43,2.43,0,0,1,1.18.3c.26.2-.41-.1-.59,0,.28.27.75.09,1,.37.39-.33,1.71.33,2.59.74.48-.05.93-.25,0-.48.14.27-.38.07-.82-.1-.11-.11.25,0,.41.05-.15-.23-1.54-.43-2.16-.68,2.18.29,5.32,1.21,8,1.41.12.08-.16.09-.32.13a1.67,1.67,0,0,0,1.09.07c.14.3.53.11,1,.31s-.93.09-.22.28c.56-.21.79,0,1.76.17a1.81,1.81,0,0,1,1.63.06c.49-.17.9,0,1.39-.17,1.33.69,4,.33,6.39.55,0-.19.58-.37.82-.11.55-.13.41-.23.43-.33a2,2,0,0,1,.54,0c-.07.13.08.26-.44.41.77.13.22-.37,1.09-.14.23-.33.46-.23,1.23-.31.26.08-.06.21-.42.34,1.29-.32,3.26-.33,4.17-1a2.55,2.55,0,0,1,1.07-.06c.37.08-.33.32.14.38.48-.19.38-.29.26-.39.66-.06.48-.17,1.06-.35.41.16-.43.61-1.05.7.28,0,.15.11,0,.09a5.76,5.76,0,0,0,3.61-.6c.5,0-.6.36,0,.35.45-.34,1.8-.35,2.67-.6.25-.14.1-.18.37-.32.06.06-.15.19.16.19.48-.14.15-.1.51-.32.12,0-.16.17,0,.18.6,0,1.15-.28,1-.46a.68.68,0,0,0,.4-.06c.14,0-.11.15-.23.24,1.22-.32,3.2-.62,3.92-1.22,1.22-.17.84-.37,1.56-.46a9.8,9.8,0,0,1,1.81-1.2,5.61,5.61,0,0,0-.92.22c.34-.3.78-.23,1.13-.5.14,0-.09.17-.21.28.8-.31,1.65-.47,2.45-.8.14,0-.09.17-.21.28a3.65,3.65,0,0,0,1.12-.55c.24-.62,2.93-1.19,4-2.13-1.43.68-2.87,1.36-4.36,1.91a8,8,0,0,1,1.49-.69c.12-.29-.66.26-.9.28l.66-.6c.25-.05.15.08.43,0,1-.61.79-1,2.06-1.44.16.09-.73.59-1,.85.07.08.4,0,.22.23a3.81,3.81,0,0,1,1.67-1.33c.22,0,.13.13-.14.38.56-.13.79-.86,1.56-1.18.54-.18-.24.41.37.19.12-.1,0-.09,0-.08s.62-.39.37-.52c.22-.09,1-.51.76-.61.28-.13.51-.4.83-.46.09.13-.65.77-.39.8.27-.23.65-.55,1-.85.36-.13.12.13.58-.06.66-.51,1.36-.91,2-1.38.28-.07-.41.35-.47.59.94-.49.83-1.15,1.84-1.47.21-.2.31-.57.58-.64.19-.3-.35.24-.52.17l.26-.36c.74-.34,1.3-1,2-1.35.14.17-.73.89-1.16,1a3.64,3.64,0,0,1-.79.82c.35-.28,1.37-.65,1.74-1.34.51-.23,0,.32.52.08a13.45,13.45,0,0,1,2.47-2.47c.33-.07-.29.33-.32.51.44-.39.33-.09.77-.32.48-.6,1.08-1,1.52-1.64.9-.48.7-.73,1.57-2a10.12,10.12,0,0,1-1.24,1.29c-.18.24,0,.2.1.14a3.19,3.19,0,0,1-.8.76c-.28.15.24-.39.35-.45a3.53,3.53,0,0,0-1.77,1.27,7.69,7.69,0,0,0-2.24,1.76c-.32.1-.25-.1-.56.39a17.41,17.41,0,0,0-3.46,2.37c-.18-.23-1.24.8-1,.31a6.16,6.16,0,0,1-1,.81c.22-.05.39-.22.62-.26-.21.19-.43.34-.64.53-.12,0-.15-.07,0-.27-.37.07-.62.37-1,.44-.19.19,0,.16-.16.3a1,1,0,0,0-.81.47,1.28,1.28,0,0,0-.63.24c-.36.11.51-.52-.11-.25a6.15,6.15,0,0,1-2.92,1.66c-.47.13-.09.2-.41.42-.11.09-.24.12-.34.23-.49.14-.22-.12-.7,0a11.82,11.82,0,0,1-3.51,1.66c-.24.3-.54.37-.8.6.68-.09.44-.37,1.09-.54-.25.27-.18.19.21.24a2.14,2.14,0,0,1-1.75.68c.29-.29.72-.09,1-.43-.55.24-.88.11-.48-.22-.77.35-1.59.55-2.38.86.17-.33.08-.19-.56-.06a2.74,2.74,0,0,1,1.28-.33c.2-.17-.36,0-.06-.25-.44.25-.93.3-1.37.5-.28.23.22.16.58.15a14.88,14.88,0,0,0-2.1.92c-.07.15.21.17.07.35-.74.33-.06-.22-.69-.08-.15,0,.2-.11.35-.26-.8,0-2.44.71-3.37.64a10.18,10.18,0,0,1-3.06.93c-.38-.13.68-.37.71-.63-.8,0-.92.54-1.16.16-.22.2-.2.35,0,.44a9.84,9.84,0,0,1-2.71.56c-.25.4-1.16.44-1.82.52-.13,0,.13-.13.26-.22a1.63,1.63,0,0,1,.66,0c.17-.07.19-.12.12-.15l.25-.14c-.48,0-.94.33-1.43.13a3.67,3.67,0,0,1,.9-.21c.15-.26-.77,0-1,0,.82-.51-1,.11-1.69.06,0,.13-.1.4-.64.48.34-.27-.35-.17-.4-.43a.71.71,0,0,1-.39.1c.25.21-.63.29-.79.53a6.32,6.32,0,0,0-2.22.17c-.47-.08,0-.23,0-.35a12.93,12.93,0,0,1-1.81-.13l-.53.2.51.15c.49-.28.95,0,1.43-.05-.62.23-1.21,0-1.84.2.05-.53-1.4-.16-2.43-.4a9.11,9.11,0,0,1,1.17,0c0-.23-1-.11-1.42-.1-.13.12-.09.23-.3.35-.71.06-.33-.23-.61-.31a.67.67,0,0,1-.52,0c0,.27-.67.27-1.3,0,.36.29-.2.09-.83.32-.71-.27,1-.18.07-.44-.27.32-.75.21-1.12.39-.6-.24.78-.17.59-.32a2.08,2.08,0,0,0-1.21.15c-.56-.22.45-.08.31-.24-1.08-.37-1.49,0-2.63,0-.28-.13-.11-.22-.57-.37a9.71,9.71,0,0,1-1.71-.07c-.14-.13.16-.21.09-.34.19-.06.35,0,.53,0,.42.14-.06.17-.06.26a12.25,12.25,0,0,1,2,.08,6.09,6.09,0,0,0-1.64-.3c-.41-.18.7.06.3-.15.57.15,1.18.17,1.77.27.12-.05-.14-.13,0-.17.51-.05.13.18.6.27a1.3,1.3,0,0,1,.65,0c.14-.53,1.23.2,2-.11.45.13-.14.26.48.28.39-.16-.07-.35.34-.51-.32-.14-.69,0-1-.12-.14,0,.1.12.23.18a2.75,2.75,0,0,1-1.28-.07c0-.16.42,0,.56-.23a7.23,7.23,0,0,0,1.54,0c.44.13-.15.26.47.27.89-.6,3.61-.16,5.26-.3.08.11-.52.26-.28.36-1.54,0-3.05-.11-4.59-.09-.26.15.55.16.76,0,.38.16.91.11.35.31.43,0,.86-.08,1.29-.1.1.12-.38.24.22.35.43-.27.56-.19,1.17-.17s-.12.21.36.29a7.3,7.3,0,0,0,2.6-.43c0,.08.27.13.12.21-.37.15,0-.22-.52,0,.77.12,1.55-.11,2.32,0l.91-.41a2,2,0,0,0,.77.25c.51-.37-.34-.24-.52-.37.47-.22,1,.17,1.41-.15.61.08-.5.43.27.48.12-.06-.06-.07-.13-.1a16.62,16.62,0,0,1,3-.47c.5-.29-.34-.32-.79-.21.47-.17.9-.67,1.38-.57.24.11-.52.16-.36.29s.49-.21.76-.07c.27-.23-.07-.21.61-.44.3,0,.32.11,0,.26.72,0,.58-.49,1.25-.47.21.09-.66.43-.09.43.47-.22.31-.29.6-.46a1.54,1.54,0,0,1,.5-.13c.05.13-.65.31-.46.47.64-.18.51,0,1.18,0a16,16,0,0,0,3.24-1.05c-.64.55,2-.47,2.91-.68,0,.25-1.15.39-1.56.78,1.06-.13,1.83-.9,2.61-.9.11-.1-.15-.07-.29-.07.28-.33.65-.27.94-.56,1,.05,2.11-.86,2.76-.79a18.6,18.6,0,0,0,2.53-1.49c-.43.2-.15,0-.52.06,1.19-.91,1.73-.65,2-.36.23-.31-.08-.35,0-.61.52-.22,1-.52,1.55-.7.21,0-.56.43-.73.65-.16,0,1.81-.83,2.1-1.09s.38.09.07.16c.1.18.46-.27.68-.41s-.16,0-.29,0c.92-.57,2.57-1,3.67-2.06l.65-.18c.18-.23.47-.25.61-.54,1.17-.27,1.86-1.37,3-1.71a9.84,9.84,0,0,1,2.9-2.13c-.47.6-.45.7-.83,1.17,1-.88,1.86-2,2.51-2.28-.25-.27.34-1.07-.17-1.15.51-.42,1.06-.79,1.57-1.22-.28-.25-1.84,1.6-2.09,1.17.13-.26.46-.25.68-.4-.09-.29.77-.77,1-1.32,0,.17.07.33.64,0-.17-.13.1-.47.4-1,.4-.17,1.06-.56.91-.77.4-.27.33,0,.71-.39.29-.07,0,.12-.13.47a6,6,0,0,0,1.13-1.33c.4-.24-.12.58.29.33.11-.23,0-.63.47-.88,0-.14.13-.47-.29-.13.42-.65.37-.53.39-.94s.51-.23.57-.55c.27-.6-.33.13-.52.22.2-.3.51-.49.67-.83.25-.12-.18.6.24.26,0-.26.53-.8.45-.5a6.36,6.36,0,0,1,2.1-2.58c-.06-.1.06-.44,0-.54-.39.4-.25.19-.65.47-.15.33.07.15.24,0a16.16,16.16,0,0,1-2.22,2.45c.47-.84,1.27-1.34,1.71-2.19a9.73,9.73,0,0,1-1,1c.24-.49.72-.76.81-1.39.25-.14,0,.33.41,0,.07-.23.23-.39.29-.63.25-.23.14,0,.09.26.21-.16.26-.48.51-.6-.1-.27.49-.89.34-1.11.51-.5.21.21.63-.15a3.54,3.54,0,0,1,1.14-1.47c.31-.8.52-.63.83-1.37.28-.17-.17.39-.14.57a22.23,22.23,0,0,0,1.25-1.9c0-.33,0-.41-.12-.58.25-.37.58-1.17.41-1.33.35-.48,0,.39.34-.09.23-.33.28-.77.59-1,.13-.51-.11-.27.11-.72s0,.72.13.73c0,.35-.52.39-.46.81.23,0,.69-1,.81-1.54.29-.39.22,0,.45-.34.17-.7.58-2,.84-2.15s0-.27-.06-.2a2.94,2.94,0,0,1,.69-1.29c0-.38.19-.62.16-1-.09.62-.69.93-.7,1.6-.34.25-.2-.31-.69.51a1.3,1.3,0,0,1,.51-1.08c0-.59-.34.41-.51.31a.79.79,0,0,1-.32.73c0,.41-.22.64-.08.73.27-.35.31-.75.46-.5-.06.33-.41.48-.42.83-.24.13,0-.45-.42.2.37-.09-.26.54-.45,1-.08,0-.24-.22,0-.48a10,10,0,0,0-1,1.57c-.54.24-.71,1.1-1.18,1.25-.25.63-.06.67-.42,1.3-.12.08,0-.28,0-.47-.5.33-.64.93-1,1.35,0,.24.09.16.27-.12,0,.45-.47.8-.29.93a.4.4,0,0,0-.41.34c-.27.12-.07-.11,0-.47-.48.49-.68,1.23-1.3,1.61.23.49-.69.67-.72,1.42-.14-.29-.39.38-.6.34a2.94,2.94,0,0,1,.89-1.11c0-.58.84-1.43,1.42-2-.08-.12-.15-.24,0-.8-.3,1.35-2.43,2.77-2.53,4.27a14.89,14.89,0,0,1-1.53,1.91c0,.23.08.17.28-.09l-.27.81a2.06,2.06,0,0,1-.54.56c.13-.41.49-.61.55-1.09-.32.23-.54.55-.86.78l-.2.53a2.76,2.76,0,0,1-.43.47c-.24.14-.11-.18,0-.52-.66.7,0,.71-.8,1.4,0,.13,0,.18.23.06a2,2,0,0,1-.44.66c.07-.67-1.3.78-1.88,1.16.44-.63,1.85-1.88,1.57-2.07a22.67,22.67,0,0,0,1.51-1.74c-.13-.23-.63.69-.92.88.3-.56.37-.49.46-1,.46,0,.49-.56.93-.5.28-.63,0-.5-.26-.44.23-.44.44-.27.64-.43a4.08,4.08,0,0,0,.37-.88c.34-.32.22,0,.49-.24.17-.6.19-.27.56-.7.23-.59.65-1,.86-1.61.37-.38.12.19.31.09-.29.58-1.1,1.4-.77,1.54a5.13,5.13,0,0,0,.44-1c.07,0,.14,0,.28-.09.16-.6.21-.71.6-1,.26-.72-.3-.13,0-.85,0-.13.13-.22.17-.36.32-.32.2.11.27.22.34-.16.37-.58.67-.78.09-.26,0-.19-.14-.1.31-.73,1-1.16,1.07-2.07.8-1.15,1.12-2.21,1.87-3.07,0-.51.32-.81.47-1.23-.12-.24-.23-.1-.17-.55-.42.45-.37.48-.73.74.07.37.12.13.08.66a6.61,6.61,0,0,0-.63,1.57c-.28.21,0-.67-.11-.84-.23.22-.54,1.15-.7.9-.44.72-.59,1.66-1.28,2.2.14-.53.45-.93.59-1.44a2.27,2.27,0,0,1-.63.79c.09.22,0,.32-.24.43-.23,1-1.1,1.59-1.52,2.48-.33.38-.1-.16-.07-.38-.3.19-.35.58-.6.8a1.29,1.29,0,0,0,.84-.44c.07,0,.1.12.11.24a6.58,6.58,0,0,1-.51.72c-.15.07,0-.35-.34,0-.12.32,0,.3,0,.46s-.23.25-.28.43c-.31.13.07-.3-.06-.39.12-.39.53-.53.58-1a56.49,56.49,0,0,1-7.42,8.93c.07.47-.91,1.24-1.25,1.21-.06.33.34.19.27.53-.45.59-.62.27-1,.89-.13,0,0-.18.07-.32-.47.4-.8,1-1.32,1.34.26-.89-1.24.82-2.2,1.18-.32.4.15.11.34.06a7.39,7.39,0,0,1-1.23.83c-.07.15.33-.09.22.1a1.86,1.86,0,0,1-.62.41c0,.09,0,.25-.25.53-.35.47-.42,0-.77.63-.2,0-.15-.11.06-.38a13.77,13.77,0,0,0-2.54,1.77c-.12,0-.15-.07,0-.27a28.21,28.21,0,0,1-2.77,2.12c-.07,0-.15,0-.07-.16a4.07,4.07,0,0,0-1,1c-.38.13-.41,0-.11-.24-1.23.88-2.69,1.16-3.82,2.3-.46.12,0-.24-.44-.12.19-.2.46-.17.62-.43a15.27,15.27,0,0,1-3.58,1.93c-.11.27.92-.28.33.24a4.6,4.6,0,0,0-1.66.45c-.25.41.49-.19.83-.22a4.24,4.24,0,0,1-1.21.67.72.72,0,0,1,.11-.52,14.21,14.21,0,0,1-3.26,1.52c-.11,0,.13-.17,0-.17s-.39.1-.6.08c-.39.31-.17.24-.64.5-.06-.08-.2-.12-.52-.1a11.15,11.15,0,0,1-1.74.59c-.3,0,.33-.26.45-.22-.5-.13-1.43.47-1.72.82-.63.05-.1-.21.19-.42a13.1,13.1,0,0,1-2.46.87c-.28,0,.34-.35.47-.21-.17-.15-.64-.1-1.22,0,.18-.06.71-.23.22-.24.23-.1.49,0,.7-.25-.41-.06-.79.19-1.19.19.17.08-.13.37-.57.35-.12.11.2,0,.37.05a5.75,5.75,0,0,0-1.41.65c-.58,0,.25-.28-.26-.31-.34.22-1,.32-.94.53-1,.13-2.21.18-2.9.36,0,.1.13.18-.36.35-.4-.21.29-.42-.73-.35.32-.22.64-.13,1-.21,0-.22-1.12.18-1.57.14,0,.08.15.13-.13.23s-.65,0-1-.17c-.46.14-.15.22-.62.35s-.69-.33-1.33.05c-.34-.07,0-.17-.47-.24a1.79,1.79,0,0,1,.85-.09c-1.78-.31-4.68.16-6.87-.07,0-.12.22-.23.53-.33a7.16,7.16,0,0,1-1.31-.1c-.34.08-.23.19-.17.29-1.07,0-2.94-.63-4.12-.2-.31-.24.44-.1.43-.25-.77-.11-.94-.12-1.54-.25-.13.06,0,.15-.18.19-.81,0-2-.73-2.48-.45-.25-.15-.08-.22-.5-.4-.36,0-.78.1-1.07-.18-.68.33-2-.54-3-.49.12,0-.36-.27-.13-.3a2.66,2.66,0,0,1-1.71-.53,1.91,1.91,0,0,1-.76-.05c0-.06,0-.12-.15-.23-.16.1-.78-.1-.46-.14a3.94,3.94,0,0,1-1.58-.54c.06.22-.25.14-.66,0-.09-.09.16-.06.3-.07-.53-.26-1.13-.39-1.65-.67.52,0,.55.26.88.11a3.89,3.89,0,0,0-1-.43c-.08-.11.25-.05.43-.06.4.16.68.57,1.2.5-.52-.13-.15-.37-.68-.48,0-.24.38-.09.79,0,.14.17-.17.16-.25.24a1,1,0,0,0,.87.09,2.87,2.87,0,0,1,1.08.46c-.81-.32-.73,0-1.32-.23-.28.07.68.32-.12.24-.49,0,.21-.22-.28-.24-.66-.05-.11.06.11.31a1.15,1.15,0,0,1-.45-.16c.41.33,2,.61,2.8,1-.14-.3.45.09.56-.1a9.57,9.57,0,0,0-1.66-.35c0-.61,1.74.15,2.38.16.76.44-.12.42.32.77.14-.26.73.29,1.22.15-.38,0-1.35-.43-.92-.56.53.44.65,0,1.47.44.42.24-.22.21.2.45l.66-.06c-.15-.1-.31-.19-.17-.22,1.15.06,2.2.37,3.32.45-.28-.26-.68-.18-1-.33.69,0,1.88.09,2.06.48a1.63,1.63,0,0,0-1,0c-.18.13.55.15.29.27.74.09,1.46-.15,1.87.31a1.26,1.26,0,0,1,.84.07c0-.07.29-.1.17-.19.83.26,2.38.11,2.79.48.52,0,1,0,1.56,0,0,.07-.06.14-.15.21.43.11.34-.15.63-.18.45.16.15.3-.08.43.54.11,1.22,0,1.4.32.18-.17-.25-.36.31-.51-.73-.16-.33.37-1.22.13-.12-.18.08-.27.54-.33.92,0,1.77.4,2.7.27.32.24-.41.15-.75.26A2.51,2.51,0,0,0,72,133a.34.34,0,0,0-.22-.17c.32-.05.43.1.49-.09.65.17,1.37-.31,2,.08.09-.21,1.09-.29,1.19-.07a3.47,3.47,0,0,1,2.27-.4c.22-.09.09-.13.24-.2.61.08,1.3-.14,1.3.16l.82-.42c.81,0-.23.33.24.41a3,3,0,0,1,1.54-.28c.07-.16.55-.39.68-.56.34.11-.54.45,0,.52,0-.42,1.48-.68,2.22-.66.59-.21.48-.46,1.13-.52,0,.16-.42.44.26.2.14.11-.16.31-.53.53a.28.28,0,0,0,.23,0l.25,0c.35-.21.06-.26.42-.46.58-.28.55.09,1.21.05.4-.29.86-.16,1.27-.4a2.15,2.15,0,0,0-1.41.3c0-.1-.3-.13-.62-.15.51-.09.42-.27,1-.23.51-.23-.31-.1.19-.33a9.31,9.31,0,0,0,2.45-.5c.11-.16-.71.07-.93.2-.22-.29.9-.59,1.43-.69.39.1-.79.28-.42.32.63,0,.42-.29,1-.38-.56.64,1.72-.66,2.56-.56.21-.28,1-.7,1.54-1.14.06.4,1.74-.71,1.94-1,.18,0,.36,0,.27.07.13-.21.63-.28,1-.68.46.13.75-.37,1.46-.84.19,0,0,.24.43.11,1.22-.92,2-1.13,3.25-2.06.2,0,0,.27.4,0-.13-.33.64-.57,1-.56-.33-.1.24-.7.85-1,.27.08-.63.42-.4.53s.35-.18.56-.21c.09-.21-.2-.13.19-.4.16,0-.19.31,0,.26.68-.33.82-.59.71-.7.45-.41.13.24.59-.16-.17-.13.22-.5.61-.87.3.1.3-.21.78-.31-.1-.16.39-.51.71-.66.1.06-.16.2,0,.26,0-.34,1.62-1.27,1.19-1.47.41-.17.52-.78.93-1s-.22.37-.35.76c.38-.23.66-.6,1-.83-.17-.58,1.19-1.46,1.45-1.86.08.16-.31.61-.43.82s-.17,0-.1-.14c-.45.27-.2.36-.61.79a3.09,3.09,0,0,1,1.45-.86c.3-.42-.17-.12-.1-.33a6,6,0,0,0,1.63-1.42c.63-.67,1.25-1.42,1.64-1.77.09-.14.56-.87.21-.68.28-.6.91-.75.67-1,.32-.18.14.2.24.26-.1.19-.31.25-.49.36-.13.41.38,0-.08.62a5.91,5.91,0,0,0,.78-1.28.32.32,0,0,0,.27-.06c.16-.41-.24.12-.28-.13.17-.34.52-.5.6-.93-1.32,1.27-2.55,2.62-3.85,3.9-.43.31.09-.35-.33,0s-.16.3-.29.59c-.45.2,0-.48.18-.92a11,11,0,0,0,2.42-2.41c.23-.28.58-.41.79-.72-.35.12-.27.06.25-.42.2-.38-.12-.13,0-.37.8-.45.75-.8,1.25-1.41.26-.21.15.09.48-.2-.18-.09,0-.47.34-.81s-.24.61.19.18a.57.57,0,0,1,.29-.38c-.05-.06,0-.21,0-.44a18.37,18.37,0,0,1,1.62-1.72c-.17-.41.51-.6.62-1.18.27-.1-.2.42-.15.64a5.74,5.74,0,0,1,.74-1.08c.1-.23,0-.58.24-.72-.26,0-.16-.11,0-.75-.43.81-.85,1-1.1,1.69-.39.25,0-.34-.3-.09-.16.48-.07.59.11.54a6.91,6.91,0,0,0-.36.78c-.23-.16-.55.56-.73.92-.32.13.16-.52,0-.74a.92.92,0,0,0-.28.7,2.54,2.54,0,0,0-.88.78c.09.07-.06.48-.16.81-.2,0-.2-.22-.61.07-.09.34-.39.5-.57.75,0-.17-.25,0-.29-.12a18.28,18.28,0,0,1-2.46,2.8c-.28.74-1,1-1.36,1.62-1.13.55-1.94,2.34-2.92,2.46-.08.29-.31.36-.41.61a4.77,4.77,0,0,0-.85.41c.29-.4.68-.52.65-.87,0,.32.28-.11.61-.33.1-.35-.19,0-.44.17a4.51,4.51,0,0,1,1.12-1.18c.21-.08-.29.48-.44.55.28.05,1-1,1.43-1.34-.3.06-.36.41-.66.47a12.85,12.85,0,0,0,1.55-1.91c.3-.17-.38.71.12.32l.2-.47a7,7,0,0,0,1.82-2.26c-.25.68.41-.21.82-.64,0-.13.07-.43-.23-.07.27-.85.71-.59.94-1.32.3-.17.29.05.36.18a1.08,1.08,0,0,0,.26-.86c.21-.45,1-.92.86-1.23.12-.17.65-.73.63-.52a6.94,6.94,0,0,1,1.46-2.37,2.56,2.56,0,0,0-.33,1.07c.29-.26.55-.55.83-.82s-.43.11-.11-.23c-.07-.32-.27.45-.37.59-.27-.09.29-1.36.84-1.69.42-.66.33-1.66.94-2.17l.08-.5c.25-.3.13.11.21.15.28-.38.21-1,.57-1.29.25-.12-.11.46-.08.64a9.17,9.17,0,0,1,1.51-3,2.73,2.73,0,0,0,.31-1.16c-.17.22-.26.24-.23,0,.37-.32.59-1.61,1.11-2.27a1.27,1.27,0,0,1-.18.81,7.87,7.87,0,0,0,.9-1.88c0-.6-.14.38-.4.46,0-.44.26-.74.23-1.17-.09,0-.16,0-.16-.21-.21.24-.15.4-.31.36a1.78,1.78,0,0,0,.08-.47c.49-.42.46-.62.83-1.26.07.45-.36.68-.29,1.14.24-.19.23-.49.46-.69-.23.16,0-.91.1-1.34.09-.09.07.16.09.29.29-.21.2-.58.43-.82,0-.22-.25.24-.31.12.08-.83.5-1.53.6-2.36-.22-.08-.11.58-.32.86-.06.06-.08,0-.15.07a3.66,3.66,0,0,0,.18-1.4c-.24-.06-.3.51-.15.79-.25.48-.13-.58-.31.13C129.27,83.66,129.41,82.88,129.08,83.36ZM104,116.24c-.24.39-.65.45-1,.63A2,2,0,0,1,104,116.24Zm-30.8,8.67c.33-.2,1-.07.54-.32a5,5,0,0,1,1.76-.06c-.29.2-.35.09-.63.39a1,1,0,0,0-.52-.1c-.14.07.08.11,0,.17C74,124.94,73.57,125.18,73.2,124.91Zm56.14-84.66c.32.34.44.18.5.75C129.72,41.05,129.36,40.6,129.34,40.25Zm4-2.44a5.65,5.65,0,0,0,1.11,1.33c-.05.34.18.59.43.84a1.71,1.71,0,0,1-.1.86c.44.59.42.09.51-.14.34,1-.1,1.09-.56.57-.06-1-1-1.64-1.27-2.52,0-.49.31.43.36.17C133.59,38.57,133.23,37.88,133.38,37.81ZM65.32.59c-.49.18-1,0-1.45.14A2.51,2.51,0,0,1,65.32.59Zm-37.74,15c-.26,0-.93.59-.88.3C27.09,15.82,27.75,15.11,27.58,15.58ZM7.88,39.34c.19-.29.22-.69.55-.88C8.42,38.78,8,39.59,7.88,39.34Zm104,89.4a7.26,7.26,0,0,1,1.51-.9C112.94,128.12,112,128.91,111.84,128.74Zm-10.91,3c0-.19,2.07-1.18,1.81-.74C102.08,131.11,101.6,131.71,100.93,131.76Zm32.9-31.48c0,.17.1.14,0,.48-.17.15-.24.37-.41.52A1.43,1.43,0,0,1,133.83,100.28ZM86.11,130.63c1-.27,1.52-.39,2.42-.58A6.23,6.23,0,0,1,86.11,130.63ZM107,121.26c.32-.18,1.08-.81,1.14-.64C107.84,120.84,107.07,121.47,107,121.26Zm9.28-7.35s0-.58.39-.65S116.46,113.87,116.27,113.91Zm12.39-26.54c.12-.21,0-.14,0-.38.36-.22.07-.72.42-.94C129.17,86.52,128.8,87.43,128.66,87.37Zm-7.81,13.9c.16-.26.21-.6.49-.76A1,1,0,0,1,120.85,101.27ZM110,111.91c-.08-.16.43-.63.8-.74A1.64,1.64,0,0,1,110,111.91Zm-2.44,2c.23-.32,1-.86,1.11-.69C108.26,113.44,108,113.86,107.55,113.94Zm21.8-12.09a20,20,0,0,1-1.29,2.19A5.94,5.94,0,0,1,129.35,101.85ZM98.42,116.64c0-.2.58-.55,1-.61A1.25,1.25,0,0,1,98.42,116.64Zm14.78-3.8c.28-.26.47-.64.82-.81C113.88,112.36,113.29,113.06,113.2,112.84ZM130,102.32c.21-.09.44-.91.52-.57C130.3,102,130,102.8,130,102.32Zm-.34.86c-.32,0-.25.32-.56.69,0-.22-.26.16-.24,0,.34-.52.38-.28.52-.88l.3-.26C129.65,102.88,129.75,102.86,129.64,103.18Zm-1.71,1.72c.21-.37.3-.83.67-1.08A1.49,1.49,0,0,1,127.93,104.9ZM115,114a1.61,1.61,0,0,1-.46.56c.3-.47-.22-.56.41-1C115.22,113.59,114.6,114.2,115,114Zm10.82-5.74.17-.53.32-.23C126.26,107.88,126,108.05,125.81,108.27Zm6.33-5c.35,0,.24-.49.58-.88C133,102.5,131.91,104.2,132.14,103.29Zm-19,12.58c-.68.36-1.15,1.31-1.72,1.26.11.26-.53.78-.93.94.85-.77.52-.9,1.23-1.77.55,0,.3-.31.68-.24.42-.45,1.19-1.43,1.47-1.39-.1,0-.54.52-.3.39a3,3,0,0,1,.92-.74,1.06,1.06,0,0,1-.75.58C113.55,115.26,113,115.66,113.13,115.87Zm-12.7,2.88c-.08-.21.48-.48.78-.63C101.28,118.29,100.76,118.66,100.43,118.75Zm15-4.19-.46.2a1.08,1.08,0,0,1,.47-.57C115.1,114.63,115.74,114.12,115.42,114.56Zm14-7.55c.07-.46.58-.54.61-1,.32-.29.22.23.59-.37C130.38,106.58,129.88,106.37,129.42,107Zm-6.33,4.45c.15-.4.26-.82.63-1C123.49,110.78,123.45,111.28,123.09,111.46Zm4.31-2.94c.45-.22-.07,1.06-.55,1.44-.13-.11,0-.49.16-.74C127.19,109.35,127.37,108.85,127.4,108.52ZM107,119.85c.13.19.43-.2.53-.49.26-.17.38-.2.47-.12.55-.68,1.37-.91,1.89-1.62.35-.14.18.35.53-.25.38-.16.59.13,0,.44.07-.13.13-.26-.09-.15.2.47-1,1.21-1.53,1.8l-.59.16c-.36.3-.62.8-1.11.9.05-.36.9-1,1.41-1.34-.13,0,0-.1.14-.21-.32.22-.73.3-1,.55a2.38,2.38,0,0,1-1.34,1.21C107.09,120.19,106.79,120.16,107,119.85Zm15.59-7.61c-.09.24.33-.13.17.19-.29,0-.25.48-.55.52.15-.4,0-.42.2-.9l.33-.2Zm-33.74,8.4c-.18-.08.43-.47.64-.36C89.32,120.42,89.15,120.75,88.88,120.64Zm5.48.94c.14-.38,1.32-.51.9-.37S94.71,121.6,94.36,121.58Zm30.27-9.25.2-.53c.13-.07.33-.23.29-.09C124.91,111.88,125.09,112.09,124.63,112.33Zm-3.87,3c.12-.24,0-.24-.22-.08l.29-.63c.28-.26.61-.45.91-.69C121.39,114.35,121.1,114.87,120.76,115.32Zm3.77-2.73c-.08.29.08.31.18.39-.22.14-.29.46-.56.54.47-1-.71.62-.69.21.43-.3,1-1.44,1.29-1.28Zm-5.75,3.91c.35.1.6-.59,1.06-.9C119.87,116.14,118.73,117,118.78,116.5Zm-.78.64c-.36.3-.27-.11-.47.22s.19.1.09.33l-.47.21c.09-.19.24-.43,0-.26a1.53,1.53,0,0,1,.56-.72c-.06.14-.11.28.11.14.28-.4,0-.24.2-.56C118.49,116.21,118,116.93,118,117.14Zm-3.25,1.48a2.29,2.29,0,0,1,1.23-1.05A3.44,3.44,0,0,1,114.75,118.62Zm8.54-4.49c-.35.57-1,.85-1.32,1.43a4.64,4.64,0,0,1,1-1.37C123,114.33,123.13,114.23,123.29,114.13Zm-18.48,7.79.32-.41a.89.89,0,0,0,.79-.52l.35-.08A5.54,5.54,0,0,1,104.81,121.92ZM121.15,116c.33-.21.53-.57.88-.76C121.92,115.58,121.19,116.22,121.15,116Zm-31.87,7.27c.51-.3,1.1-.29,1.62-.56C90.79,123,89.81,123.19,89.28,123.26Zm34.6-8.48c.12,0,0,.33-.06.53a4.13,4.13,0,0,1-.71.79c-.18,0-.13-.24-.17-.39a4.51,4.51,0,0,1-1.09,1.56,6,6,0,0,0-1.63,1.1c.15-.46,1.24-1.33,1.84-1.89-.21.11-.26.06-.23-.07.53-.58.73-.69.59-.32.38-.48,1.51-2,2.14-2.11C124.06,114.38,124.29,114.37,123.88,114.78Zm-6.07,3.39c0-.32.11-.57.7-1C117.89,117.79,118.46,117.6,117.81,118.17Zm4.5-2.41a4.79,4.79,0,0,1-.71.57C121.75,115.94,122.44,115.32,122.31,115.76Zm-18.91,7a1,1,0,0,0-.49.34l-.59.09c-.61.59-.86.52-1.59,1.08.18-.19-.21-.08.11-.35a2.74,2.74,0,0,0,1.24-.69c-.22,0-.32-.15,0-.52a5.23,5.23,0,0,1,1-.33c-.24.31-.59.39-.82.73C102.53,123.22,103.26,122.67,103.4,122.8Zm-.39,0a1.54,1.54,0,0,1,1-.54A2.8,2.8,0,0,1,103,122.78Zm16.72-4.84c-.46.34.13-.36-.34,0a1.74,1.74,0,0,1,.73-.74C120.2,117.27,120,117.7,119.73,117.94Zm-35,5.44a1.07,1.07,0,0,1,.79-.3A1.3,1.3,0,0,1,84.69,123.38Zm35.81-5.71c-.24.13-.19,0-.41.1a1.16,1.16,0,0,1,.67-.62Zm-10.42,4.7c-.22.07-.36.08-.41,0a3.74,3.74,0,0,1,1.32-.93C110.76,121.9,110.31,121.94,110.08,122.37Zm8.6-3.46c-.6.34-1,1-1.58,1.34.54-.43.86-1.16,1.47-1.48C118.49,118.93,118.72,118.79,118.68,118.91Zm-2.85,1.3-.29.49c-.17,0-.47.13-.46,0C115.4,120.64,115.51,120.27,115.83,120.21Zm3.61-1.37c-.06.22.76-.41.4.1s-.12-.14-.66.21l.34-.63c.18,0,.69-.61.6-.29A6.46,6.46,0,0,1,119.44,118.84ZM99.5,124.71c.5-.14.34-.37.93-.53C100.25,124.48,99.5,125,99.5,124.71Zm13.6-2.39a7.13,7.13,0,0,1,1.07-.92A2.7,2.7,0,0,1,113.1,122.32Zm-32.84,1.73a1.05,1.05,0,0,1,.72-.16C81,124.06,80.56,124.2,80.26,124.05Zm29.35-.21a6.75,6.75,0,0,1,1.19-.7C110.57,123.52,109.65,124,109.61,123.84Zm-12.43,2a9.8,9.8,0,0,1-1.53.58C96.05,126.05,97.3,125.43,97.18,125.84Zm19-2.65c.32-.47-.08,0-.3,0,.14-.35.52-.33.69-.64-.47.09-.76.45-1.16.63-.13,0-.67.07-.06-.34-.13.31.41-.28.62-.24.26-.56.83-.65,1.16-1.11a2.12,2.12,0,0,0,1.13-.66c.11-.21-.3.08-.22-.09,1-.6.62,0,.45.65-.27.14-.15-.07-.23-.09-.12.2-.38.21-.52.4.22-.1.37-.13.42-.08-.28.44-.63.55-.37.62a1.69,1.69,0,0,1-.78.51c.08-.2.38-.4.23-.38A7.88,7.88,0,0,1,116.23,123.19Zm-3.87,1.17c.09.14-.3.36-.54.62-.32-.09-.83.5-1.36.75.37-.57-.46.32-.76.21.42-.4,1-.55,1.4-.93.69-.81.22-1.08,1.16-1.61C111.75,124,111.29,125,112.36,124.36Zm-35.62.41c-.08-.09.54-.25.11-.31-.56.18-.29.29-.52.44-.17-.08-.35,0-.52-.09.32-.36.73-.46,1-.79a4.27,4.27,0,0,0,1.66.25A4.43,4.43,0,0,1,76.74,124.77ZM94.59,127a1.28,1.28,0,0,1,.94-.53A8,8,0,0,1,94.59,127Zm24.22-5.38c.13-.23-.36.09-.15-.22C119.1,120.89,119.32,121.21,118.81,121.58Zm-8.72,3.72.68-.9c.16-.05.28-.2.46-.23S110.65,125.06,110.09,125.3Zm-16.4,1.92c-.31,0-.56.16-.38-.09.24,0,.42-.23.68-.17Zm8.66-.12c-.67.13.3-.54.68-.62C102.84,126.77,102.55,126.8,102.35,127.1Zm12.87-3.53c-.2.17-.72.35-.47,0C115.07,123.43,115.38,123.31,115.22,123.57ZM93.1,127.72c.05,0,.1-.09,0-.08a1.05,1.05,0,0,1-.54.24,2.21,2.21,0,0,1,1.08-.49C93.45,127.52,93.3,127.7,93.1,127.72Zm.53.68c.42,0,.71-.44,1.12-.43C94.48,128.24,93.63,128.65,93.63,128.4Zm26.42-5.48c.08-.33-.46.31-.28.31-.33.16-.27,0-.27-.16.49-.38.32-.39,1-.93A1.55,1.55,0,0,1,120.05,122.92Zm-50.38,1.82c.29-.15.55,0,.83,0A.8.8,0,0,1,69.67,124.74Zm25.69,5.52a1,1,0,0,1,.81-.29A1,1,0,0,1,95.36,130.26Zm-10.89-.63c-.54,0,.07-.4.44-.28C84.6,129.54,84.89,129.52,84.47,129.63Zm8.87,1.16c-.46.36-1.6.68-1.77.47.55.07,1-.38,1.5-.56C92.9,130.89,93.39,130.6,93.34,130.79Zm-28.91-6.68a2.86,2.86,0,0,1,1.33.2C65.31,124.38,64.48,124.36,64.43,124.11Zm45.62,5.56c.27-.09,1.08-.6,1-.36S110,129.9,110.05,129.67Zm-10.73,3c-.46,0-.83.23-1.27.26.39-.34.9-.29,1.25-.78.28,0,.48-.2.76-.15A4.18,4.18,0,0,0,99.32,132.7ZM81,131.82c-.45-.06-.64-.17-.13-.38.36,0,.5.19,1.07.05C81.62,131.76,81.3,131.62,81,131.82Zm20.39,2.23a4.14,4.14,0,0,1,1.28-.85C102.26,133.56,101.88,134,101.38,134.05Zm-11.46,0a1.09,1.09,0,0,1,.86-.21A1,1,0,0,1,89.92,134.08Zm4,.47a2.4,2.4,0,0,1,1.34-.53A4.36,4.36,0,0,1,93.91,134.55Zm-3.36.25a17.66,17.66,0,0,0-2,.55c.36-.42,1.15-.5,2.07-.8.12-.1,0-.17.36-.15C91,134.49,90.86,134.62,90.55,134.8Zm-10.83-.91a5.94,5.94,0,0,1,1.82-.39A4.92,4.92,0,0,1,79.72,133.89Zm18.92,1.79a4.54,4.54,0,0,1,1-.5c-.2.24.14.25-.14.53C98.92,135.82,99.13,135.61,98.64,135.68Zm2-1c.26.11.53-.11,1.06-.21-.83.44-1.36,1.19-1.94,1.06C100.41,135.13,100.3,135,100.59,134.66Zm-2.17.69c.3.07,1.12-.54,1-.25a3.59,3.59,0,0,1-1.41.45c.22-.17.13-.21-.18-.17a4.16,4.16,0,0,1,1.22-.59C98.94,135,98.15,135.28,98.42,135.35Zm-9.27.48c.35,0,.66-.25,1-.19C89.92,135.86,89,136,89.15,135.83Zm1.5-.42c-.35.21.42.09-.08.34C90,135.83,90.16,135.48,90.65,135.41Zm-3,0a4.09,4.09,0,0,1-1,.41,2.68,2.68,0,0,0-1,0c.52-.2.29-.16.72-.43.24.12.42.15.88-.16C87.5,135.25,87.64,135.29,87.67,135.36Zm-19.22-4.44c.35-.18.84-.08.85-.28l.22.1a.26.26,0,0,1,.23,0A1.59,1.59,0,0,1,68.45,130.92Zm-12.39-8.27c-.23-.13-.51-.1-.45-.27C55.94,122.3,56.38,122.6,56.06,122.65ZM97.34,136a3.92,3.92,0,0,1,1.17-.33C98.26,136.05,97.25,136.14,97.34,136Zm-26.52-3.56a3.4,3.4,0,0,1,1.42,0A3.1,3.1,0,0,1,70.82,132.46Zm21.49,5c.28,0,.13-.1.36-.25.55-.13.64.11,1.3-.32,0-.17-.78.14-.44-.18a1.49,1.49,0,0,1,1.07-.09C94,137.1,92.62,137.64,92.31,137.45Zm-18-3.48c-.51,0-1.07.23-1.57,0,.46-.18.9-.12,1.35-.26C74.35,133.79,74.46,133.87,74.26,134Zm9.81,2.75a2,2,0,0,1-.77,0C83.63,136.42,84.43,136.52,84.07,136.72Zm6.3,1.26a.48.48,0,0,0,.23-.25,2.15,2.15,0,0,1,.8,0A1.81,1.81,0,0,1,90.37,138Zm-8.85-.91c.38-.08.75-.42,1.14-.32A2.59,2.59,0,0,1,81.52,137.07Zm-3.69-.3c.5-.26.66,0,.89-.31.23,0,.37.1.38.18A1.72,1.72,0,0,1,77.83,136.77Zm2.79-.24c-.51-.11-1,.31-1.52.11C79.53,136.34,80.6,136.31,80.62,136.53Zm7.86,1.4c.32-.31.69-.2,1-.18C89.2,138,88.84,137.88,88.48,137.93Zm-8.75-.8c.34-.22.68-.14,1-.22C80.75,137.11,80.1,137.24,79.73,137.13Zm-1.54.52c.67-.25,1-.29,1-.55.46,0,.32.11.51.21a4.29,4.29,0,0,1-1,.29c.17,0,.52,0,.39.09a3.25,3.25,0,0,1-1.67-.05c.14-.09.07-.16.39-.26C78.33,137.44,78,137.57,78.19,137.65Zm-1.91-.31a10.81,10.81,0,0,1,2.56-.32C78.72,137.45,77.15,137.42,76.28,137.34ZM89,139.19a17.34,17.34,0,0,1,2-.49A4.67,4.67,0,0,1,89,139.19ZM85,138.76c0-.13.07-.35.64-.35A.74.74,0,0,1,85,138.76Zm1,.82c-.74,0,.51-.31.11-.33s-.69.33-1.06.21a7.78,7.78,0,0,1,2.11-.53C87,139.16,86.24,139.24,86,139.58Zm-10.66-2.7c-.85.32-1.71-.06-1.37-.33A2.55,2.55,0,0,0,75.3,136.88Zm-.17.57.65-.25c.13,0,.38.09.25.15C75.74,137.24,75.41,137.68,75.13,137.45Zm5.11,1.63c-.39-.05-.06-.19.13-.32.18,0,.35,0,.53,0Zm2.25.69c-.3-.11-.29-.27.12-.5C83.24,139.32,83,139.68,82.49,139.77Zm-6.75-1.88c-.39.23-1,0-1-.11C75.37,137.54,75.18,137.8,75.74,137.89Zm4.49,2.25a1.64,1.64,0,0,0-.66,0c.64-.19.78,0,1.19-.37.22.24.66,0,1.2.05C81.39,140,80.81,139.88,80.23,140.14Zm-3.71-.07c.83.24,2.39-.31,2.78,0C78.53,140.11,76.39,140.55,76.52,140.07Zm.8-.07c.26-.11-.19-.16.27-.28a2.12,2.12,0,0,1,.66.07C77.66,139.9,77.9,140,77.32,140Zm-4.68.37c-.29-.16-.62,0-.92-.12a2.87,2.87,0,0,1,1.08-.1C72.64,140.22,72.78,140.3,72.64,140.37Zm-11.15-3.58c.44.05,1.78,0,1.36.32C62.51,136.88,61.4,137,61.49,136.79Zm-10.62-7.21c-.47-.28.27-.31.56-.08C51.08,129.47,51.32,129.64,50.87,129.58Zm10.94,7.48a1.4,1.4,0,0,1,.88.16c-.36,0-.39.32-.72.21C62.11,137.33,61.82,137.18,61.81,137.06Zm-.49.32c-.62-.22,0-.43.47-.24C61.75,137.24,61.86,137.36,61.32,137.38ZM66.17,140c-.35-.27-.81,0-1.17-.22a10.35,10.35,0,0,1,2,0Zm-4.94-2.25.56-.09.35.17A1.34,1.34,0,0,1,61.23,137.72Zm-2-1.22c-.71.09-.52-.24-1.2-.4C58.43,136.12,59.21,136.33,59.19,136.5ZM57.63,136l-.44-.27c.31-.09,1.21,0,1,.2A.49.49,0,0,0,57.63,136Zm-10.35-7.67a2.81,2.81,0,0,1,.7.43,21.16,21.16,0,0,1-4.52-2.11c.6-.06.78.55,1.34.55-.23-.22-.52-.3-.21-.34.48.22.18.29.59.61.58,0,.89.52,1.48.51a2,2,0,0,1-.78-.53c.28,0,.44.18.74.13.36.23-.26.26.3.42.37,0-.24-.32.26-.22a1.6,1.6,0,0,1,.62.35C47.71,128.21,47.2,128.14,47.28,128.31ZM59,137.09c-.52-.34-1.17-.26-1.72-.52.39-.1,0-.33.76-.24.56.23.07.25.14.38a5.7,5.7,0,0,0,1.18.09C59.79,137,59.43,137.05,59,137.09Zm4.15,2.46a2.26,2.26,0,0,1,1.36,0C64.06,139.55,63.57,139.74,63.16,139.55Zm-8.43-5.14.55,0,.32.22A1,1,0,0,1,54.73,134.41Zm-4.06-.09a1.18,1.18,0,0,1-.59-.23c1,.08,1.21.72,1.66.93l.7,0a7.29,7.29,0,0,0,2.8.88,1.44,1.44,0,0,1,.9-.23c0,.33.5,0,1,.31a10.78,10.78,0,0,0-2.1.18c-.67-.56-2.24-.53-3.26-.8.15-.05.85.07.6-.1-.5,0-.94-.19-1.45-.2.15.09.49.17.32.23-.4-.27-1.61-.37-1.54-.63.55.31,1.61.29,1.16-.08-.19.27-1.72-.41-1.69-.56C49.58,134.16,50.84,134.71,50.67,134.32Zm-.68.24c0,.09-.61,0-1-.09.29-.05-.53-.22-.65-.41A5.64,5.64,0,0,1,50,134.56Zm13.19,4.91a8.6,8.6,0,0,1-2-.3C61.86,139.18,63,139.21,63.18,139.47Zm-4.87-2.29c.23.09.53,0,.73.22C58.78,137.59,58,137.24,58.31,137.18ZM56,136.55c.34-.05,1.3.09,1.11.29C56.71,136.69,56.3,136.7,56,136.55ZM60,139c0-.13.73-.11,1.07.08A2,2,0,0,1,60,139ZM42.37,125.94c.19-.13.65.29.7,0C43.53,126.32,42.62,126.21,42.37,125.94Zm-1.17-.58c.11-.16.6.18,1,.16l.24.27A2.17,2.17,0,0,1,41.2,125.36Zm11.39,10.27c.31.06,1.3.16,1.1.35A4.56,4.56,0,0,1,52.59,135.63Zm1.87,1.9a1.17,1.17,0,0,1,.91.18A1.22,1.22,0,0,1,54.46,137.53Zm-6.67-4c-.31-.14-.65-.22-.95-.36.45,0,.54-.13,1.08.13C47.66,133.33,48.15,133.6,47.79,133.56Zm-2.3-1.33a2,2,0,0,0-.52-.36l.28,0s-.1-.09,0-.07c.55.45.26-.1.59,0s.57.18.76.44A8.72,8.72,0,0,0,45.49,132.23Zm1,1.27c-.13-.13-.42-.32-.26-.34.52.3,1.2.28,1.64.72C47.23,133.78,47,133.47,46.53,133.5ZM27.85,103.82c-.12-.36.13-.21.42,0a1.59,1.59,0,0,0,.18.37C28.36,104.24,28,104,27.85,103.82Zm8.7,18.89a1.92,1.92,0,0,1-.92-.74c.4.09.63-.15,1.07.37C36.3,122.28,36,122.26,36.55,122.71Zm6.34,8.23c.44.2.46.38.32.44a5.39,5.39,0,0,1,2.58,1.35,9.56,9.56,0,0,0-2.86-1.14c.21,0,.12-.2,0-.41-.14.14-.19.14-.7-.09-.22-.18,0-.15,0-.23-.36.08-.29-.06-.74-.27.23.32-.5,0-.73-.27.07-.12.54.16,1,.15C42.46,130.89,42.45,131,42.89,130.94Zm7.44,6.88c-.6-.37-1.26-.15-1.65-.26-.45-.38.33-.09.7-.22.18.24.52.14.8.16C50.47,137.68,50.56,137.8,50.33,137.82Zm-7.63-6.1c-.46-.3-1-.55-1.43-.83a5.22,5.22,0,0,1,1.11.39C42.12,131.24,43.3,131.74,42.7,131.72Zm3.41,3.9c0-.11.68-.1,1,.13C46.77,135.69,46.35,135.81,46.11,135.62Zm.33,1.06c.37,0,.61.16,1,.12-.28-.21-.61-.27-.27-.33.35.2,1.43.47,1.28.69A4.47,4.47,0,0,1,46.44,136.68ZM40.19,130c-.08-.28-1-.41-.71-.53C39.82,129.6,40.67,130,40.19,130Zm1.52,2.55c.51.17,1,.41,1.47.58C43.08,133.22,41.63,132.76,41.71,132.55Zm3.65,3.34a.43.43,0,0,0,.33-.06c.26.2,1.22.5,1,.62C46.31,136.17,45.72,136.23,45.36,135.89Zm-9.86-8.48c.75.32,1.83,1,2.73,1.42-.1-.17-.31-.41.07-.3-.08.37.42.33,1,.82-.52-.08-.84-.27-.85.09C38,128.64,36.42,128.21,35.5,127.41ZM24.07,98.32c.11.32.53.5.53.87C24.39,99,23.85,98.35,24.07,98.32Zm5.77,19.31a.66.66,0,0,0-.54-.47c-.14-.49,1,.11,1.4.64C30,117.47,30.06,117.5,29.84,117.63Zm13.09,17.16c.79.23,1.47.63,2.22.92l-.44,0C44.15,135.33,43.49,135.15,42.93,134.79Zm-8.3-9.65c.41.29,1.43.85,1.35,1.09C35.63,125.88,34.51,125.43,34.63,125.14Zm.48,1.35c-.44-.5-1.1-.75-1.56-1.24a5.9,5.9,0,0,1,2,1.35A.37.37,0,0,0,35.11,126.49Zm6.81,7.93c.23,0-.19-.24,0-.24.28.23.69.23.93.51A1.52,1.52,0,0,1,41.92,134.42Zm-2.22-1.2a2.59,2.59,0,0,1,1.25.51A4,4,0,0,1,39.7,133.22Zm-5.06-6.35c-.74-.24-.72-.49-1-1,.24.08.4.1.46,0l.15.21C33.9,126.21,34.15,126.47,34.64,126.87Zm5.92,7.45a8.49,8.49,0,0,1-1.87-1c.65.28.61-.06,1.15.19.6.4-.23.33.29.53.23,0,0-.23.53-.08C40.93,134.2,40.69,134.23,40.56,134.32Zm-2.51-2c.09-.05.26-.06.62,0,.19.34.62.34.85.64l-.29-.05C39,132.65,38.61,132.7,38.05,132.36Zm-6.89-8c.47.38,2.09,1,1.64,1.19C32.38,125,31.56,124.89,31.16,124.33Zm-2.48-2.83a2.52,2.52,0,0,1,.84.58C29.42,122.17,28.86,121.84,28.68,121.5Zm-.45.25c.52.58,2.27,1.52,1.91,1.82C29.66,122.92,28.33,122.18,28.23,121.75Zm-2.44-3.64a1.89,1.89,0,0,1,.79.62C26.47,118.82,26,118.42,25.79,118.11Zm.13,1c-.24-.72-1-1-1.37-1.61.5.12,1.33,1.22,1.93,1.78C26.16,119.12,26.32,119.38,25.92,119.13Zm-.32-.06c-.36-.66-.84-.34-1.28-1,.6.38.33.18.69.25C25.28,118.52,26.06,119.17,25.6,119.07Zm-3-3.07a2,2,0,0,1,.88.74C23.39,116.83,22.74,116.42,22.65,116Zm3.72,8c.51.13.75.5,1.08.78A3.69,3.69,0,0,1,26.37,124Zm.08.29c.3.09,1,.71.75.73C27,124.72,26.55,124.66,26.45,124.28Zm-1.15-1.6c.23.09-.14-.36,0-.35a1.22,1.22,0,0,1,.73.57C25.65,122.68,25.78,123.18,25.3,122.68Zm-.59.69c.09,0,.59.23.6,0a1.33,1.33,0,0,1-.6-.7,5.58,5.58,0,0,1,1.66,1.15C25.45,123.32,25.51,124.33,24.71,123.37Zm-4.49-11.26c.31.07.78.75.52.69C20.61,112.55,20.26,112.43,20.22,112.11Zm3.52,9.5a1.22,1.22,0,0,1,.71.6A1.16,1.16,0,0,1,23.74,121.61Zm-3.36-7.82c-.43-.43-1.18-1.25-1.1-1.53-.41-.27-.73-1.07-1-1l-.16-.49c.35.17.43.47.57.38.35.63.58.92.93.89.26.46-.08.18-.07.33l.59.37C20.28,113.4,19.77,113,20.38,113.79Zm-2.6-3.67c-.19-.69.89.43,1,.86-.16-.08-.13.07-.27,0C18,110.36,18.42,110.38,17.78,110.12Zm-1.07-1c-.22-.58.29-.14.64.08.06.2.31.3.33.52C17.16,109.53,17.16,109.24,16.71,109.15Zm-.86-3a1.91,1.91,0,0,1,.65.91A1.59,1.59,0,0,1,15.85,106.11Zm0-32.82c-.1-.25-.21-1,0-.92-.1.26.08.63.2.63C16,73.18,15.91,73.28,15.84,73.29Zm-4,27.28c-.08-.73,1.09.84.72.92C12.45,101,12.2,101.14,11.87,100.57Zm3.84-28.94c-.1-.56-.24-1.68.09-1.85-.14.74.22.34.34.66-.16.37-.32.21-.48.26C15.87,71,16,71.64,15.71,71.63Zm0-3.21c-.05.28.06.57,0,.83C15.41,69.29,15.52,68,15.72,68.42Zm-7,33.69a2.89,2.89,0,0,1,.61,1.16A1.92,1.92,0,0,1,8.7,102.11Zm-1.28-2c-.47-.21-.27-.57-.44-1-.08.38-.5-.17-.72-.34-.07-.65.68.61.61,0-.13-.1-.17,0-.37-.3s-.26-1-.06-.8c.13.75,2.06,3,1.17,2.65.22.49,1,1.51.73,1.69A3.68,3.68,0,0,1,7.42,100.06Zm-.75-.6a9.53,9.53,0,0,1,1,1.77A4.73,4.73,0,0,1,6.67,99.46Zm9.09-38c.19-.42,0-1.51.33-1.52C16,60.43,16.11,61.41,15.76,61.48ZM5.56,97.31c0-.18-.06-.53.06-.42.12.65.27.89.59,1.07C6.13,98.41,5.82,97.74,5.56,97.31Zm-.44-2.46c.06-.32-.31-.56-.18-.9C5.15,94.28,5.43,95.18,5.12,94.85Zm-.57,1.21c0-.34,0-.48.16-.31a1,1,0,0,0,.11.52.93.93,0,0,1,.19.37ZM16.8,56.37c0,.13.12.1.12.38-.22.17-.18.44-.3.66A1.41,1.41,0,0,1,16.8,56.37Zm-13.25,34c.11.07-.06-.57,0-.65s-.15,0-.25-.1c-.22-.66,0-.92.28-.43.15.68.4,1.35.5,2C3.79,90.73,3.62,90.58,3.55,90.35Zm14.1-35.64-.29.33C17.26,54.65,17.67,54.2,17.65,54.71ZM2.85,87a2.07,2.07,0,0,1-.22-1.16A2.31,2.31,0,0,1,2.94,87C2.89,86.94,2.85,86.88,2.85,87ZM18.54,50.1c.15-.19.2-.44.39-.61,0,.17.32,0,.08.39,0-.25-.21-.07-.24.23.12,0,.19,0,.24.12-.16.15-.1.41-.31.54C18.77,50.23,18.46,50.65,18.54,50.1ZM1.61,83.18c0-.58-.39-1.82-.19-2a6.55,6.55,0,0,0,.23,1.17c.05-.21,0-.43,0-.65.14.36.29.92.46.9A1.12,1.12,0,0,1,1.61,83.18Zm17.75-35c0,.2.16.14.14.44C19.3,48.79,19,48.58,19.36,48.18Zm-18,32.25c.11-.64.31-.58.52-.39a1.75,1.75,0,0,0,0,.51C1.69,80.27,1.65,81.08,1.39,80.43Zm18.55-33a.73.73,0,0,1-.27.68A.79.79,0,0,1,19.94,47.44ZM1.05,78.73a10.06,10.06,0,0,1,.27,2.09c-.16-.74-.25-.89-.32-1.44.05.08.09.05.11-.13A.68.68,0,0,1,1.05,78.73Zm.07-1c.08.15.13-.14.2-.13a6.33,6.33,0,0,1,.3,2.22c-.17-.41-.25-.11-.42-.53C1.21,78.73,1.08,78.21,1.12,77.69ZM20.85,45c-.08.41-.09.72.08.68-.24.21-.26.56-.46.8,0-.67-.27.19-.29-.18C20.54,45.9,20.55,45.34,20.85,45ZM.55,76.75c0-.28.14-.14.19-.39s-.09,0-.14-.14c.06-.56.18-.23.32.15a.94.94,0,0,0-.05.52c.05-.12.12.07.2.27l-.1.39C.72,76.84.78,77,.55,76.75ZM1,74.94A5.24,5.24,0,0,1,1,73.63C1.2,74.09,1.29,74.92,1,74.94ZM.58,72a3.42,3.42,0,0,1,0-1.19c.21.38,0,.71.09,1.07.05-.07.09-.25.13-.12S.64,72,.58,72Zm.32-3c-.1.42,0,.88-.11,1.29C.67,70,.69,68.94.9,69.05Zm.08.27a.7.7,0,0,0,0-.4c.09-.32.18-.43.26-.22s0,.44-.06.65C1.1,69.17,1,69.44,1,69.32Zm.17-3a5.12,5.12,0,0,1,0,2.1A12.26,12.26,0,0,1,1.15,66.33Zm-.44-.49C1,66.15.9,67,.82,67.59A3.31,3.31,0,0,1,.71,65.84Zm.86-3.13c.09-.12.15,0,.26-.34a2.83,2.83,0,0,1-.14,1.69C1.73,63.39,1.69,62.75,1.57,62.71Zm.71-7.81c.05.34.11-.39.29-.45.07.27-.26,1.09-.33.85C2.37,55.05,2.18,55.13,2.28,54.9ZM32.53,11.62a3.87,3.87,0,0,1,1-.39,6.37,6.37,0,0,1-1.22,1.07l-.39.09C32.47,11.9,32.39,12,32.53,11.62Zm3.81-2c-.58.08-1.09.79-1.11.37C35.55,10,36.36,9.37,36.34,9.64Zm45.37,5.57c-1,.08,1,.31-.17.5-.29-.26-.19-.25-.65-.37A.65.65,0,0,1,81.71,15.21Zm-1.19.28c-.12-.08-.23-.19-.38-.17s0,.4-.51.25c0-.11.23-.16,0-.31.56.06.6-.3,1.16-.21C80.84,15.23,81,15.42,80.52,15.49ZM48,4.18a3.19,3.19,0,0,1,1.12-.39c0,.14-.51.27-.82.57C47.84,4.41,48.25,4.19,48,4.18ZM83.26,15.55c.24.21,0,.3,0,.46-.24-.16-.6,0-.81-.21C82.85,15.66,82.9,15.7,83.26,15.55Zm-32.62-12c-.63.1-.42.34-1,.38C49.51,3.83,50.75,3.19,50.64,3.52ZM83.55,15.66a.7.7,0,0,1,.6.17.51.51,0,0,1-.46.05C83.81,15.86,83.68,15.76,83.55,15.66Zm5.23-13.2c-.4-.26-1-.14-1.41-.36C87.85,2,88.91,2.26,88.78,2.46ZM90.84,3A11.74,11.74,0,0,1,89,2.37,3.14,3.14,0,0,1,90.84,3Zm1,.09h-.58l-.32-.24A1.51,1.51,0,0,1,91.82,3.09Zm28,28.25c.11.38-.18.24-.52,0-.43-.38-.93-1-1.64-1.59,0-.13-.12-.34,0-.28A14.66,14.66,0,0,1,119.79,31.34Zm1.89,2.59c0,.21,0,.34-.1.32-.48-.64-1.07-1.21-1.5-1.86C120.65,32.88,121.13,33.42,121.68,33.93Zm-8.18-20a2.91,2.91,0,0,1-1.45-.8A5.1,5.1,0,0,1,113.5,13.92ZM124,36.75A7.2,7.2,0,0,0,122.1,35l-.1-.47C122.47,35.1,123.43,35.52,124,36.75Zm-2.47-17.36a2.22,2.22,0,0,1,.57.42c.31.63-.63-.09-.13.75-.37-.35-.87-.59-1-1.06C121.5,20.14,121.91,20.14,121.51,19.39Zm6.33,25.26c0,.36-.24,0-.34.1,0-.28-.26-.5-.2-.8C127.51,44.17,127.57,44.44,127.84,44.65ZM129.13,39c.11.34.5.44.66.56.15.52-.12.16-.14.31a.57.57,0,0,1,.12.35c-.31-.54-.52-1-.67-.68C129,39.27,129,39,129.13,39Zm1.32-6.17c0-.32-.44-.48-.44-.82C130.32,32.14,130.71,33,130.45,32.84Zm1.83,3.26a5.41,5.41,0,0,1-1.08-1.71A7.93,7.93,0,0,1,132.28,36.1Zm1.1,2.41a1.53,1.53,0,0,1-.46-1A1.79,1.79,0,0,1,133.38,38.51Zm.72-.51c0,.37.08.49.23.49.13.59-.55-.43-.51-.68A.53.53,0,0,0,134.1,38Zm5,23c-.16,0-.34-.67-.38-1.05A1.28,1.28,0,0,1,139.11,61Z"/><path class="cls-1" d="M60.08,142.1c.19-.06-.36-.1-.1-.15-1.68.18-3.12-.44-4.72-.57a18.87,18.87,0,0,0,3.89.85c.16,0-.1-.14-.22-.22A8.77,8.77,0,0,1,60.08,142.1Z"/><path class="cls-1" d="M125.79,91.28c-.26.28-.24.73-.4,1.07A2,2,0,0,0,125.79,91.28Z"/><path class="cls-1" d="M115.13,108.91c.15-.26.05-.28.08-.42-.16.1-.21.34-.3.52a.28.28,0,0,0-.28,0C114.55,109.37,114.85,109.06,115.13,108.91Z"/><path class="cls-1" d="M130.89,98.67c.2-.49-.41.7-.59.52,0,.25.13.2.2.3C130.89,99.07,130.5,99.09,130.89,98.67Z"/><path class="cls-1" d="M124.36,104q.15-.45-.21-.18c.09.08,0,.35-.25.59S124.23,104.07,124.36,104Z"/><path class="cls-1" d="M126,103.5c.09,0,0,.24.25,0s.11-.5.06-.59c-.2.15-.18.49-.41.62C125.92,103.71,126,103.58,126,103.5Z"/><path class="cls-1" d="M110.33,111.57c-.43.1-.15.28-.24.45s-.11-.09-.45.14a2.8,2.8,0,0,1-1.34,1.21c0,.15,0,.23,0,.37a7.14,7.14,0,0,1,1.8-1.53C110.15,111.87,110.41,111.71,110.33,111.57Z"/><path class="cls-1" d="M127.59,103.17a39.63,39.63,0,0,0-2.11,3.53c.17-.1.35-.42.32-.22.4-.4.14-.31.42-.82.13.24,1.13-1.54,1-1C127.52,104.51,127.63,103.52,127.59,103.17Z"/><path class="cls-1" d="M104.9,113.92a6.62,6.62,0,0,0-1.92,1.25C103.62,114.76,104.27,114.36,104.9,113.92Z"/><path class="cls-1" d="M142,91.09c-.16-.06.08-.49,0-.93a2.67,2.67,0,0,0-.29,1.27C141.74,91.61,141.83,91.22,142,91.09Z"/><path class="cls-1" d="M125.72,105.89a4.94,4.94,0,0,0-.73,1.22C125.43,106.88,125.48,106.3,125.72,105.89Z"/><path class="cls-1" d="M107.31,115.18c.21-.26-.13-.1,0-.27-.25.09-.41.34-.62.51S107.05,115.07,107.31,115.18Z"/><path class="cls-1" d="M133.93,102.86c0,.13.1,0,.17,0,0,.32-.26.48-.26.82a2.91,2.91,0,0,0,.75-1.48C134.24,102.56,134.25,102.8,133.93,102.86Z"/><path class="cls-1" d="M123.15,113.18c-.37.59-.46.36-1,.9a3,3,0,0,1-.12.66C122.41,114.23,123.16,113.43,123.15,113.18Z"/><path class="cls-1" d="M96.06,121c.24.07-.51.31-.32.44s.43-.35.73-.28c-.16-.13.36-.48-.18-.52a2,2,0,0,1-.78.46C95.33,121.33,95.92,121,96.06,121Z"/><path class="cls-1" d="M94.16,121.64c-.52.06-.91.58-1.47.49-.29.29.32,0,.16.18A9.51,9.51,0,0,0,94.16,121.64Z"/><path class="cls-1" d="M92,122.71c.22,0,.13.12.37.11a5.44,5.44,0,0,1,1.79-.65c-.21-.33-1.13.38-1.67.21a1,1,0,0,1-1.07.3,7.35,7.35,0,0,0-1.09.72c.22,0,.44-.1.66-.13s-.09-.13,0-.26.21-.08.31-.16-.2.27.27.2C91.94,122.93,92,122.84,92,122.71Z"/><path class="cls-1" d="M129.42,117.67c.05-.15-.09,0-.12.08-.19.12-.37.23-.32.07a1.91,1.91,0,0,0-.39.65A10.39,10.39,0,0,0,129.42,117.67Z"/><path class="cls-1" d="M118.54,126.31c.13-.24-1.65.85-2.09,1.49.19-.09.83-.78.73-.43C117.69,127.12,118,126.46,118.54,126.31Z"/><path class="cls-1" d="M112.31,129.94c-.53.24-.91.08-1.51.74.29.25,1.35-.78,1.39-.33C112.69,129.92,111.82,130.37,112.31,129.94Z"/><path class="cls-1" d="M86.09,133.56c.25-.24-.48,0-.64,0-.24.12-.09.22-.36.21s-.07.08,0,.1l.27,0c-.15,0,.57-.46.36-.21C86,133.7,85.82,133.55,86.09,133.56Z"/><path class="cls-1" d="M98,136.75c0-.16-1.16.3-1.63.39.09-.32-1-.13-1.43-.09.09.25.51.38.81.55,0-.49.87-.22,1.74-.57C97.47,136.9,97.59,136.81,98,136.75Z"/><path class="cls-1" d="M93.42,137.38a12.42,12.42,0,0,0-2.16.45c-.38.28.95-.19.57.12A4.45,4.45,0,0,1,93.42,137.38Z"/><path class="cls-1" d="M94.88,137.69c.52-.29-.09-.14-.28,0s-.28-.07-.18-.18c-.23,0-.44.15-.67.16.26,0,.5.25-.38.27-.13.12.25.08.44.1A2,2,0,0,1,94.88,137.69Z"/><path class="cls-1" d="M88,139.36c.23,0,.45-.11.68-.11.51-.23-.13-.19.38-.42A7.88,7.88,0,0,0,88,139.36Z"/><path class="cls-1" d="M81.93,142.5c0-.18.2-.08.57-.27-.54,0,.31-.26-.42-.26l-.43.19c.27.09.52.19-.29.23C81,142.56,81.8,142.35,81.93,142.5Z"/><path class="cls-1" d="M71.82,140c.34.06.07-.12-.14,0-.07-.09.07-.19.31-.28-.44,0-1,.27-.59.37A.77.77,0,0,1,71.82,140Z"/><path class="cls-1" d="M58,132.84c-.15-.07-.19,0-.13,0-.42.07-.67-.38-1.12-.2.33.31.8.24,1.19.36C58,133,57.79,132.87,58,132.84Z"/><path class="cls-1" d="M66.62,143.34a3.49,3.49,0,0,0,1.7.18c-.62-.28-1.3-.24-1.93-.48-.36.3-1.31.05-2,.11C64.48,143.15,66.41,143.59,66.62,143.34Z"/><path class="cls-1" d="M64.84,142.87a9.51,9.51,0,0,1-2.27-.24c-.27.5-2.2-.4-3.29-.33,0,.07.26.2.07.25.63,0,1.31-.08,1.83.32a16.18,16.18,0,0,1,2.72.28c.16-.06-.21-.17-.38-.27C64,142.84,64.36,143.05,64.84,142.87Z"/><path class="cls-1" d="M66.18,144c-.11-.47-3.38-.74-4.11-.64C63.4,143.61,65.39,143.57,66.18,144Z"/><path class="cls-1" d="M55.63,142c-.54-.18-1.09-.33-1.64-.47C53.92,141.74,55.14,142,55.63,142Z"/><path class="cls-1" d="M48.23,139.84a38.57,38.57,0,0,0-4.1-1.62c.43.45,1.13.4,1.2.76.25-.27,1.07.44,1.7.41.45.29-.53.16.26.43C47.15,139.52,47.56,139.6,48.23,139.84Z"/><path class="cls-1" d="M48.3,140.35c.11-.23-1.16-.42-1.59-.64-.37.06.49.24.58.44C47.84,140.14,47.73,140.05,48.3,140.35Z"/><path class="cls-1" d="M43.86,138.12a19.52,19.52,0,0,0-2.69-1.28C41.3,137.52,43,137.86,43.86,138.12Z"/><path class="cls-1" d="M30.49,130.75a13.63,13.63,0,0,0-1.32-.83l.26.34C29.89,130.3,30.06,130.67,30.49,130.75Z"/><path class="cls-1" d="M23.51,126.45l.86.35c-.51-.51-.79-.25-1.31-.9C22.74,125.79,23.42,126.3,23.51,126.45Z"/><path class="cls-1" d="M17.59,120.75c.18-.44-.77-.46-.88-1.27a.45.45,0,0,1-.35-.1C16.61,120,17.19,120.29,17.59,120.75Z"/><path class="cls-1" d="M9,110.39c.15.33.14,0,0-.14s.25,0,.37,0c-.24-.4-.7-.69-.78-1.17-.72-.29-.87-1.06-1.33-1.7s0,.37-.4-.13a18.85,18.85,0,0,0,1.4,2c.08.26-.07.17,0,.45C8.37,109.58,8.78,110.06,9,110.39Z"/><path class="cls-1" d="M2.94,90.58c0-.71-.63-1.34-.57-2-.11-.13-.09.23-.11.41C2.67,89.46,2.51,90.06,2.94,90.58Z"/><path class="cls-1" d="M.08,76.86A3.52,3.52,0,0,0,0,75.13,12.6,12.6,0,0,1,.08,76.86Z"/><path class="cls-1" d="M1.06,63.78c-.09-.22-.22-.2-.31-.34a2.56,2.56,0,0,0,0,1.07c.17-.23,0-.53.08-.79S.82,64.58,1.06,63.78Z"/><path class="cls-1" d="M20,13.73c.08.26.79-.63,1.14-.78.09-.12,0-.1-.05-.07l-.26.1C20.59,13.34,20.23,13.46,20,13.73Z"/><path class="cls-1" d="M64.29,10.88a16,16,0,0,1,1.83-.08c.26-.29,1.06-.2,1.63-.21.07,0,0-.09.11-.14-.11,0,0-.06,0-.09C66.67,10.59,65.48,10.56,64.29,10.88Z"/><path class="cls-1" d="M94.79,2.83c.72.16,0-.27.68-.11-.11-.07-.26-.1-.36-.18l-.3,0C95.43,2.86,94.18,2.49,94.79,2.83Z"/><path class="cls-1" d="M100.23,5.43c.55.55.11-.32.72.12.31,0-.45-.41-.72-.36C100.48,5.39,100.5,5.48,100.23,5.43Z"/><path class="cls-2" d="M129.58,84c.19-.93-.29.33-.78,1.29s-.94,1.65-.56-.32a39.51,39.51,0,0,0-1.77,5.48,34.45,34.45,0,0,1-2.16,5.94c-.55,0-.7-.85-1.14-1s-1.09.42-2.86,2.89a15.28,15.28,0,0,0-1.79,3.19.92.92,0,0,0,.22,1.05,1.06,1.06,0,0,1,.39,1,7.2,7.2,0,0,1-1.53,3q1.65-2,3.13-4.06c-.64,2.63-3.07,6.38-6.45,9.89a56.66,56.66,0,0,1-5.53,5c-1.94,1.56-3.93,3-5.76,4.27a50.14,50.14,0,0,1-9.7,2.59c-3.34.63-6.78,1.26-10.77,2.36.42-.24,2.31-1.06,1.78-1.49a21.64,21.64,0,0,0-5.58,1c-2,.85-1.71,1.2-1,1.5s1.71.48,1,1A37.62,37.62,0,0,1,73.07,130a20.51,20.51,0,0,1-6.84-.19,54.47,54.47,0,0,1-6.06-3.05c-2.34,1-5.15.34-8.22-1s-6.43-3.26-10.39-5.07c-.36-1-2.68-2.3-4.89-3.78s-4.31-3.16-4.42-4.26c-1.48-1.37-.9-2.22-.17-3.06s1.61-1.74,1-3.2c-.72-1.11-.86-1.53-.76-1.6s.45.21.81.48.72.54.81.47-.08-.48-.74-1.58a4.49,4.49,0,0,1,1.57,2.23,4.25,4.25,0,0,1-.09,1.74,3.18,3.18,0,0,0,.22,2,7.83,7.83,0,0,0,2.76,2.89l0-.66a33.35,33.35,0,0,1,4.76,3.33c1.64,1.22,3.34,2.19,4.64,2a12.84,12.84,0,0,1,3,1.93c.32.38.07.59-.32.77-.76.35-2.13.56-.41,2,1.39-.06,4.39.65,7.18.89s5.3.11,5.6-.75a52.38,52.38,0,0,1-6.19-1.43c1,.25.34-.34.79-.37a6.9,6.9,0,0,0,4.13,1,26.92,26.92,0,0,0,5-.6,11.82,11.82,0,0,1,3.38-.44c.66.12.78.67-.06,2-.85.31-3,0-3.77.47.09.63,1.27.91,2.83,1s3.51,0,5.17,0c1.69-.71,3.4-1.72,5.28-2.6a22,22,0,0,1,6.46-2c1.79-.2,1,.82,2.82.56,2.41-1.19,4.15-2.07,5.65-2.71s2.72-1.09,4-1.56a25.36,25.36,0,0,0,4-1.85,24.1,24.1,0,0,0,5.23-4.19,29.83,29.83,0,0,0,8.31-8.17c2.4-3.28,4.37-6.8,6.45-10-.72.31-.36-.86.18-2.3l1.52-3.88a11.79,11.79,0,0,0,1.55-3.07,15.54,15.54,0,0,0,1-4.71c-.2,1.75.44.75.54,2,.23-3.41.58-5.39,1.11-6.6a3,3,0,0,1,1.71-1.83c.32,2.74.79,4.31,1.08,6A14,14,0,0,1,129.58,84Z"/><path class="cls-2" d="M18.52,95.69c1.3.15.2-2.57-.39-4.81a6.57,6.57,0,0,1-.39-2.51c.14-.4.58-.17,1.65,1a38.76,38.76,0,0,0-1.31-4.57,30.13,30.13,0,0,0-1.44-3.2c.09,2.39,0,2.13-.26,1.6s-.54-1.33-.75,0a50.49,50.49,0,0,1-1.26-22.72,53,53,0,0,1,8.25-20.49C26.25,36,29.55,32.23,33,28.59A81.82,81.82,0,0,1,44.62,18.35a7.82,7.82,0,0,1,3.07-.72c.56,0,.71.3.64.68a23.27,23.27,0,0,1-1.48,2.8,54.54,54.54,0,0,1,7.22-2.82,53.58,53.58,0,0,0-6.65,4.17c.08.44.88.3,1.92.06a18.11,18.11,0,0,1,3.29-.59c.61-.31,1.24-.61,1.88-.89-.56,2.28-3.85,3.38-7.68,5A44.9,44.9,0,0,0,41,28.89a17.1,17.1,0,0,0-4.56,3.76,17.66,17.66,0,0,0,2.36-2.42c.17-.32-.19-.27-.68-.13-1,.27-2.48.95-1.34-.53-.72.54-1.44,1.09-2.14,1.67.88-.83,2-2.23,3.71-3.86A33.11,33.11,0,0,1,45,22.29a45.62,45.62,0,0,0-10.89,7.59A46.62,46.62,0,0,0,19.39,62c-.17-.44-.29-1.58-.8-.38a12.4,12.4,0,0,0,.34,6.2c.52,1.66,1.21,2.91,1.55,4-.23-.7-.43-1.41-.63-2.13a11.36,11.36,0,0,0,0,5.56c.41,2,1.09,4.09,1.54,5.82a27.25,27.25,0,0,0,.05,5.78A18.16,18.16,0,0,0,24.3,94l-.87.17a52.19,52.19,0,0,0,2.32,5.12c-.85-1.11-.86-.44-.86-.1-.42-.22-.43-.56-.84-1.48-.64.15-1,1.1-1,2.43a12.88,12.88,0,0,0,.9,4.72,24.75,24.75,0,0,0-1.53-2.48c.5,1.33,2,4.1,3.05,6.08a6.13,6.13,0,0,1,.87,2.21c0,.39-.45.37-1.52-.37a17.24,17.24,0,0,1-2.67-4.21,17,17,0,0,1-1-3.25c-.23-1-.43-2-.8-3.12A27.65,27.65,0,0,0,18.52,95.69Z"/><path class="cls-2" d="M44.73,116.13c-1-.83-1.43-1.26-1.47-1.44s.29-.1.73,0c.87.25,2.19.69,1.93,0q2,1.11,4.08,2c-.14.46-1.26.24-2.44-.1S45.15,115.88,44.73,116.13Z"/><path class="cls-2" d="M80.51,12.79c.2.43,1.25.7,2.51,1a30.6,30.6,0,0,1,3.75,1c2.15.29,3.55.37,5.14.69A18.61,18.61,0,0,1,98,18c-1.36,0-1.81.27-1.69.77a5.67,5.67,0,0,0,1.69,2c.9.82,2,1.79,3.06,2.79a20.49,20.49,0,0,1,2.63,2.95c-1.26-.74-3.18-1.56-5.23-2.49a30.41,30.41,0,0,1-6.07-3.42c.38-.2-.32-.81-1.38-1.45a29.05,29.05,0,0,0-3.46-1.71c-1.7.09-1.33,1.12-2.09,1.71a3.64,3.64,0,0,1-2.33.51c-1.3,0-3.24-.2-6.26-.43a25.84,25.84,0,0,0-4.62-.53c-1.61-.1-2.91-.22-2.75-.87a3.89,3.89,0,0,0-2.31.38,3,3,0,0,1-2.45,0l-.93-.42a54,54,0,0,1,7.75-1.27,2.72,2.72,0,0,0,1.58.5c-.72-.47,1.42-.89,3.19-1.27a4.18,4.18,0,0,0,1.91-.71c.24-.29,0-.7-1.35-1.23a58.27,58.27,0,0,0-11.36,0c-1.4-.14-1.16-.51,0-.92a20.54,20.54,0,0,1,5.26-.88c3.05.45,4.45.77,5.63.83S78.46,12.87,80.51,12.79Z"/><path class="cls-2" d="M52.69,18,52,17.86a56.74,56.74,0,0,1,9.45-2.8A57,57,0,0,0,52.69,18Z"/><path class="cls-2" d="M114.08,30c-1.69-1.18-2.64-2.72-4.43-3.74l.88-1.41A58.27,58.27,0,0,1,114.08,30Z"/><path class="cls-2" d="M28.58,43.84c0,1.37-.88,3.18-1.64,5s-1.4,3.62-1.15,4.72c.6-1.41.08-1.06,0-1.5-.54.85-1.05,1.73-1.54,2.62a16,16,0,0,1,1.5-5.5C26.54,47.4,27.54,45.68,28.58,43.84Z"/><path class="cls-2" d="M125.29,47c1.49,3.11,2.61,4.9,3.61,6.94a19,19,0,0,1,1.3,3.45,22.76,22.76,0,0,1,.7,5c-.2,1.82-1.13-2-1.14.56s.64,3.06,1.06,4.28l.46-1c-.44,1-.82,3.1-1.39,4.47A2.29,2.29,0,0,1,129,72c-.34.14-.73,0-1.17-.79a20.35,20.35,0,0,0-.65-6.33,30.38,30.38,0,0,0-1.81-4.9c-1.35-3-2.63-5.47-3.13-9.15.39-.6.76-1.21,1.13-1.84-.72-1.32-1.48-2.6-2.3-3.84,0-.35.46-.45-.39-1.69-1.09-1.17-1-.57-.71.34s.63,2.14.19,2.22a55.76,55.76,0,0,0-5.25-6.53c-.51-.88.9.38.87,0a9.27,9.27,0,0,0-3.41-3.81,7.84,7.84,0,0,1-3.08-3.54c1.45,1,2.85,2,4.22,3.16-2-2.47-3.77-4.59-5.5-6.5a68.38,68.38,0,0,0-5.11-5.11l7.2,5.15c2.21,1.59,4.28,3.12,6.21,4.79a33,33,0,0,1,5.29,5.64A24.93,24.93,0,0,1,125.29,47Z"/></g></g></svg>