<svg xmlns="http://www.w3.org/2000/svg" viewBox="0 0 147.25 146.45"><defs><style>.cls-1,.cls-2{fill:#010101;}.cls-1{fill-rule:evenodd;}</style></defs><title>Asset 122mdpi</title><g id="Layer_2" data-name="Layer 2"><g id="Layer_1-2" data-name="Layer 1"><path class="cls-1" d="M29,53.94c.44.19.14.45.79.62l-.15.35c-.36-.07-.35-.69-.63-.39C28.76,54.35,29,54.14,29,53.94Zm-.83-2.27c.23.15,0,.32.33.45.12.36-.47,0-.56.05-.27.12,0,.88-.74.41A1.18,1.18,0,0,1,28.21,51.67Zm1.28,2.46.27-.59C30.44,53.84,30.37,54.62,29.49,54.13Zm.38-8.3c.12.46.3.48-.17.71-.11.24.67.5.69.74-.24.38-.48.77-.71,1.17-.4.27-.15-.37,0-.48-.52-.25-.64.19-1.28-.24-.1.24.68.48.72.72-.23.78-1.19.39-1.92.4a.68.68,0,0,1-.75.9c-.17-.82,1.18-1.25,1.74-1.66-.26,0-.38.16-.78-.1.33-.42.59-1,1.42-.51.89-.38,0-1.51.42-2,0,0,.72.33.57,0-.57-.39-.67.15-1.4-.54.69-.11.15-.66.36-1s.66-.1.69-.58c.2.14.06.26,0,.38.27.75,1.75,1.57,1.42,2.26-.06-.44-1-.93-1.13-1.39-.25-.14-.32.1-.44.22A15.06,15.06,0,0,0,30.64,46C30.58,46.29,30.2,46,29.87,45.83Zm.53,5.85c.8.3.58.79.14.79C30.07,52.23,30.22,52,30.4,51.68Zm1.4-2.5-.13.22c0,.46-.54.17-.76.33-.73.93,0-.21-.23-.58C31.08,49.2,31.21,48.82,31.8,49.18Zm-.54,1.92c0,.29-.31.22-.46.35-.33-.34.18-.69-.84-1C30.2,50.22,31.16,50.94,31.26,51.1Zm-2.92.33c-.27.29-.7-.32-.32-.46-.6-.15-.36.89-.93.79-.34-.5.31-.4.2-1,.54.21.63-.23,1.29.16C28.68,51.27,27.71,51,28.34,51.43Zm-.75,2.78c-1.05-.24-.52-1.43.38-.87A.67.67,0,0,0,27.59,54.21Zm35.47,72c-.31.77.41.47.68.63-.2.42-.86.58-.77-.15-.29,0-.24.79-.49.9-.28-.51-.88-.17-1.19-.52,0-.05.19-.62.16-.71s-1.11-.08-.5-.62c.66-.1.59.53.75.93a1,1,0,0,0,1-.28c0-1.06-.49-.11-.91-.2-.13-.64-.81-.8-1.56-.94a3.38,3.38,0,0,1-2-.75c2.19.33,4.93,1.08,7,1.61C64.79,126.74,63.54,125.55,63.06,126.18Zm5.19-2.4c.27-1,.81-.24,1.21-.62.25-.22.15-.16.58,0C70.21,125,68.37,123.78,68.25,123.78ZM67,122.89c-.12.18-.3.63-.09.73s.4-.42.2-.47c.35-.71.65.37,1.15.14l0,.49c-1.12.06-2.28.73-3.18.53-.49-.1-.44-.83-1.13-.45-.12-.35,0-.39.13-.72,0-.68-.62-.7-1-1,0-1,1.1.52.92-.3.41-.7.29.79.4,1.07.42-.31.29.5.35.56s.46-.06.58.11-.09.72.22.53c.16,0,.1-.27.07-.49-.1-.62-.3-.08-.65-.6,0,0,.27-.4.22-.46-.21-.26-.89.26-.62-.61A21.58,21.58,0,0,1,67,122.89Zm-.38.69c-.26-.15-.17-.74-.65-.6C65.73,123.67,66.47,124.12,66.65,123.58ZM27,52c-.22.53-1.14.12-1.2.86-.57-.66-.36-1,.47-1-.44-.5-.6-1.29.33-1.25.65-.06-.35.25-.31.64S26.73,51.75,27,52Zm44.25,70.55c.55-.14,1.26,1.18.39,1.24C72.13,123,71.11,123.4,71.22,122.56ZM70,124.19l.74,0A.4.4,0,1,1,70,124.19ZM28.79,55.11l.15-.36.91.37-.15.35C29.33,55.1,29.41,55.37,28.79,55.11Zm34,66.26c.22-.6.72-.37.91-1.05.93.3,2.15.19,2.83.77-.92.5-1.8-.39-2.64-.23C63.45,121,63.22,121.43,62.8,121.37ZM33.24,92.06c1.31-.24,1.17.59,1.53,1.41-.76.31-.41-.46-.67-.75S33.34,92.4,33.24,92.06ZM31.75,45.23c-.31.49,1,.39.58.87.26.07.39-.11.77.19,0,.31-.37.26-.58.41s-.17.8-.78.29a.59.59,0,0,1,.57-.43c.18-.22-.68-.46-.61-.39-.36-.34.32-.52-.6-.87.86-.2,0-.92.72-1a1.69,1.69,0,0,0,.52.52C32.12,44.9,32.17,45.54,31.75,45.23Zm28.69,74.53c.38-.6.68-.27.8.22.14,0,.18-.26.25-.44.2.57.68-.06,1,0,.15,0,.65-.14.43.6-.5-.45-1,.47-1.38.42S61,119.81,60.44,119.76Zm61.7-19.56c1,.3.63,2.09-.48,1.21.18-.27.68.18.77-.29s-.66-.19-.8-.11c-.44.55.93,1,.42,1.6-.64-.55-1.09-1.49-.75-2C121.51,100.31,121.92,100.56,122.14,100.2Zm-8.68,9.89c-.18.34-.27,1.13-1,.31.29-.13.7.3.91-.2-.52-.66-.68.23-1.21-.53.38-.19,1.74-.4.87-.87-.33-.6.65-.54,1.07-.06-.06.2-.4.24-.43.45s.26.42.25.45C113.83,109.84,113.55,109.91,113.46,110.09Zm4,.39c.09.75-1.1,1.32-1.54,2a2.37,2.37,0,0,0-1-1.42c.2-.56.73.34,1.11.6.48-.16-.22-.47-.3-.73s.06-.46.22-.24a1.18,1.18,0,0,0-.83-.54c-.17,0,0,.29.07.28-.21,0-1.25-.29-1.2.18-.3-.53.1-1,.66-.68.63-.58,0-1.07.9-1.33.46.43,0,.72-.28,1l.54.5c.41-.5-.18-1,.69-1.12.1-.17-.24-.39-.44-.6.15-.44.58.08.79-.16s-.43-.76.25-1a.84.84,0,0,1,.12,1.35c0,.77.38,1,.87,1.61-.15.71-.85-.69-1,0C117,110.35,117.35,110.61,117.46,110.48Zm1.29-10c-.22-.39.34-.13.55-.37s0-.54.12-.65c.34-.27,1-.19,1.19-.54.94,1-1.09.62-.69,1.57A2.21,2.21,0,0,0,118.75,100.5Zm-.61,2.17c-.43-.21-.24-1,.25-.76,0-.48-.43-1,.07-1.41-.11.84.74.79,1.2.4.73,1.27-1.09.86-1,1.93C118.42,102.64,118.26,102.61,118.14,102.67Zm-8.49,10.92.36-.3c.33.5.73,1,.32,1.32C109.78,114.17,110.09,114,109.65,113.59Zm2.21,2.29c.3-.12.69.34,1-.17,0-.23-.24-.53,0-.69.22.26.45.53.62.43C113.36,115.93,112.74,116.81,111.86,115.88Zm1.58-.73c-.54-.84.64-.46.94-1.18-1-.55.93-.66.84-1.5.85.65-.16,1-.43,1.44C114.4,114.48,114.1,115.28,113.44,115.15Zm-1.07-.68c-.16-.17,0-.27.08-.39-.28-.31-.52-.39-.74-.33-.25-.23.47-.85-.26-.75-.55-.69.56-.22.64-.25s.26-.39.47-.43.38.25.46.24c.3,0,.3-.49.69,0,.25-.16.41-.74.82-.11-.55.06-.88.54-1.41.67-.33.08-1.45-.71-1.05.29.53.15.91-.58,1.56.23C113.15,114.36,112.45,113.58,112.37,114.47Zm7.87-15.39c-.24,0-.47-.06-.42-.25.15-.64,1.21-1.74,1.59-2.78.1-.56.64-.3.22.12A5.7,5.7,0,0,1,120.24,99.08Zm-9.32,12.43c0-.46-.79-1.1-.29-1.4-.08.56,1.19.63.63,1.08.41.3.62-.48,1.13.28-.93-.11-1,.92-2,1.12-.13-.74-.32,0-.77-.62C110,111.29,110.57,112.07,110.92,111.51Zm-1.46-2c-.76-.09.86-.62.41-1,.57,0,.25-.63.91-.55-.26.5-.25,1.59-.66,1.65C110.14,108.88,109.84,109.12,109.46,109.53Zm10.1-5.48c.31-.19-.18-.56-.12-.66.19-.36.64.2,1-.11.44.75,1.09.67.83,1.36-.68-.33-.42-.64-1.11-1-.33.27.17,1.24.72,1.09.21.19,0,.21-.09.14l-.2.26c-.68-.34-.11-.63-.8-1-.23.71,0,1.09-.67,1.3a1.55,1.55,0,0,1-.6-1.23C118.79,103.84,119.22,104.26,119.56,104.05Zm6.13-17.67c-.54.15.21-1.22.23-1.69C126.92,85.22,125.66,85.71,125.69,86.38Zm2.46,7.5a1.2,1.2,0,0,0,1-1.07c.7.34.28,1.38-.23,1.19.5.27,0,.75.34,1.06.93-.19.52-1.59.51-1.82l.45.17c0-.4-.38-.7-.66-1,.1-.28.33-.35.65-.31,0-.44,0-1,.18-1.2-.12-.73,1,.32.92-.41,0-.26-.4-.15-.51,0-.48-.29.22-.93.2-1.37.27.31.15.74.43,1,.2,0,.28-.09.52,0,0-.41-.32-.69-.43-1,.74.4,1-1.09,1.21-1.44a2.8,2.8,0,0,1,.4,1.21c.34,0,.33-.37.44-.61.55.73.19,2.8-.24,3.85-.1.28-.22.27-.58.17,0,.21.35.26.34.5,0,.39-.57.1-.59.17s.29.42.26.67-.79.68-1,1.14A17.32,17.32,0,0,1,131,97c-.37.61-1.14,1-1.59,1.6-.18.25,0,.52,0,.58-.51,1.08-1.84,1.66-1.61,2.95a1.37,1.37,0,0,0-.7.21c-.39-.39.59-.91-.41-1.23a6.31,6.31,0,0,0,.35,1.8c-1.14.28-1.34,1.93-2.31,2.68-.34.27-.62,0-1,.16-.53.16-.67.8-1.3.55-.85-.76.37-.93.59-1.24a11.36,11.36,0,0,1,.86-1.26c.13-.13,0-.41,0-.41s.66-.13.69-.17.1-.65.24-.85c.36-.48.65-.53.5-1.28.64.32.43,1,1.06.61,0-.27-.31-.1-.64-.37,0-.45.23-.94-.35-1.35,1-1,1.17-1.85,2.17-2.49a1.87,1.87,0,0,0-.74-1.83,2.51,2.51,0,0,0,.85-1.27l.89.39C128.8,94.4,128.76,94.07,128.15,93.88Zm-2,5.74a.68.68,0,0,0,.6-.06c-1-.53-.64.2-.93.66.46.07,1.1.53,1.46.4C127,100,126.22,100.3,126.14,99.62Zm1-.81c-.35.41.38.7.25,1.09-.22-.11-.42.12-.17.3.08-.68.94.19,1.06-.41C127.39,99.53,127.87,99.09,127.14,98.81Zm1-.85c-.66-.23-.92.27-1.34.48.55.43.67.07,1.17.4C128.24,98.51,127.73,98.31,128.13,98Zm4.31-6.32c.1-.12.27-.13.52,0,0-.45.1-.93-.63-1.15C132.12,90.94,132.09,91.34,132.44,91.64Zm-2.67,4.6c0,.62-1.27,1.3-.59,1.26C129.47,97.41,130.38,96.06,129.77,96.24Zm-1.35-1.15c-1.36-.47-.8,1.51-.13,2C129,96.31,127.62,95.89,128.42,95.09Zm-56.21,28c.49.21.19-1,.72-.71-.05.73-.59.61-.45,1.7C72.23,124,72.16,123.65,72.21,123.09Zm58.3-51.31c1,.22,0,.81.19,1.47C130.23,73.63,130.59,72.17,130.51,71.78Zm-8,28.27c0-.7.74.07.84-.45.55.58-.7.52-.29,1C122.55,100.9,123.23,100.13,122.51,100.05Zm2.5.1c.52.19.14.45.47.65a1,1,0,0,0-.61,1C124,101,124.9,101,125,100.15Zm-2.9-5.45.27-.55a1.8,1.8,0,0,0,.6.45l.13-.28c0-.2-.37-.35-.44-.21-.59-.47.41-.45.55-.59-.39-.2-.55,0-1-.26.93,0,.92-.48,1.08-1.2.51.27-.16.73.65,1,0,.1-.64.23-.64.23s.39.34.39.34c-.13.31-.5.51-.61,1.26C122.69,94.64,122.66,95.09,122.11,94.7Zm-88.32-51c.6.41.41.88,0,.82C33.36,44.18,33.56,43.93,33.79,43.69Zm89.8,53c.3-.58,1.44-.61.43-1.38,0-.64.74-.15.85-.66.44-.49-.48-1.11.31-1.26.38.32.32.86.14,1.46C125.1,95.58,124.69,97,123.59,96.64Zm.07.39c1.67,1-.52,1.28-.15,2.29-.86-.69-.22-.23-.8-.08C121.92,98.17,124.07,98.2,123.66,97Zm2.57-.18c.14-.26-.1-.44.07-.7,1,.17-.24.68.37.91a7.85,7.85,0,0,0-1.6,2C124.34,99,126,97.27,126.23,96.85ZM83,122.37c-.4-.22-1.09.3-1.26-.53.58-.27.87.28,1.45,0C83.19,122.11,82.92,122.06,83,122.37Zm-.6-.89c-.56-.44.43-1.15.74-.62C83.07,121.41,82.37,120.59,82.38,121.48ZM86.82,120c.1.52-.74,2-1.52.88a2.25,2.25,0,0,1-.72.65c-.07-.19,0-.23.08-.26,0-.21-.1-.22-.19-.21.16-1.14,2.1.63,1.61-1.12C86.41,119.69,86.52,120.22,86.82,120Zm-5.48,2.1c-.72-.11-.63.79-1.36.66-.13-1,.81-.68,1-1.35.25.18,1,.83.66,1.39.14.75.43-.83.57-.08.15.94-.53.8-.93.63C81,122.63,81.35,122.61,81.34,122.14Zm4.14.74c-1,0-1.32.29-2.35.21a1.37,1.37,0,0,1,1.12-1.7c.43.9-.59.21-.41.83C84.46,123,85,121.7,85.48,122.88ZM112.37,107c-.33-.26-.3-.61-.54-.49-.4-.66.58-.37,1,0ZM79,123.39c.37-.22.77.35,1.45-.15,0,.57-.67.22-.45,1C79.65,124.07,79.08,124.29,79,123.39Zm-5.68-2.47c.11-.54,1.39-.79,1.79,0,.17.92-.25,0-.41,0C74.34,120.87,73.7,121.23,73.35,120.92ZM87,122.27c.88-.29-.32-1.53.58-1.67.11.67-.2.94,0,1.76-.58.14-1.09.94-1.55-.12C86.56,122.32,87.07,121.22,87,122.27Zm-11.19-1.85c.29-.57,1.21-.14,1.75-.34A1.41,1.41,0,0,1,75.81,120.42Zm1.69,2.11c.41.42.42-.13.88.19,0,.5-.51.26-.51.77A1.41,1.41,0,0,1,77.5,122.53Zm-3.7.84c0-.64-.21-.8-.58-.73.32-1.11,1.14.14,1.69-.49.16.32.17.91.47,1,.42-.18-.16-.52,0-1a.57.57,0,0,0,.58.23c.16.45-.39.83,0,1,0,.36-.71.86-.86.27-.29,0-.16.67-.57.5-.08-.52.2-.47.42-.5,0-.39-.15-.42-.17-.73-.51.41-.65,1.45-1.42,1.47.36-1.12-.21-.46-.59-.26,0-.44.18-.51.15-1C73.37,123,73.35,123.55,73.8,123.37Zm5.06-3.89c.37.48.84,0,1.34-.15.23,0,.32.21.57.17s.24-.29.5-.31a15.33,15.33,0,0,0,3.71-.71c.3,1.32-.78.64-1.08.74s-.48.77-.89.42c-.16.09,0,.5.1.48,0,.62-.64-.09-.68-.63-1.1.5-2,.22-2.77.89C79.36,120.14,79,120.11,78.86,119.48Zm34.05-13.8c-.74-.13-.09-1.21.4-1.2C113.81,105,112.42,105.18,112.91,105.68Zm5.91,2.49c-.26.2-.91.09-1,.44-.81-.55.92-.67.83-.59a12,12,0,0,1,.63-1.17c.29-.39.78-.53.8-1a.49.49,0,0,0,.79-.23c.27.83-.9.81-1.4,1.42C119.15,107.38,119.18,107.9,118.82,108.17Zm-4.5-1.87c.65.4-.12.58.73,1-.17.2-.4.18-.68,0C114.39,107,113.75,106.55,114.32,106.3Zm.05,1c-.33.3,1.33.92.6,1.15-.58-.25-.45-1-.91-.81C113.66,107.27,113.91,107,114.37,107.34Zm3.38,2.08c.28-.42,1,0,.84-.59C119.13,108.58,118.61,110.63,117.75,109.42Zm-26.08,4.89c.47-.27.6.1.84-.35.59,1.25-.83.05-.1,1.37C92.09,115.73,91.91,114.71,91.67,114.31Zm12-7.81c0-1,1.3-1,1.77-1.56s0-1.27.6-1.24c.52.45-.09.61-.22.89s0,.62-.14.79-.3,0-.36,0,0,.77-.65.26C104.42,106.39,104.44,106.37,103.65,106.5Zm14.54.13c.2.33,0,.62-.13.93C117.34,107.11,117.74,106.57,118.19,106.63Zm-1.75-3.3a2.92,2.92,0,0,0,1.14-.3c1.22,1.46-.42,2.06-1,2.91-.08.16.27.38.47.57-1-.23-.52.68-.73,1.25s-.78-.12-1.08.11c-.14-.79,1-.63.94-1.45-.12-.46-.75-1-.46-1.36.34.21.24.37.48.57C116.43,104.7,118,104.53,116.44,103.33Zm-5.88-1.28c-.73-.76-.38-1.13.21-1.39-.29-.42-.06-1.46.86-.7C111.19,100.6,111.05,101.82,110.56,102.05Zm-18-76c-.78.13-1.66-.58-2.47-.57A2.62,2.62,0,0,1,92.52,26.05Zm-32,111.58c.26-.76.76-.2,1.15,0C61.43,138.38,60.92,137.82,60.53,137.63Zm1.5-.95-1.62-.32C60.48,135.73,62.27,135.84,62,136.68Zm-.61,2.38c-.26.73-.56.21-1,.05C60.57,138.5,61.24,138.68,61.42,139.06Zm-10.27-5.65c-.27.48-.88-.23-1.28-.24C50.35,132.37,50.61,133.28,51.15,133.41Zm10.27,7.88c1.43-.11,2,.48,3.11.5-.4.88.88.16.47,1-.61-.38-1.25-.23-1.74-.49,0,0,.1-.43.07-.48-.14-.23-.8,0-1-.16-.33.16,0,.37-.35.93-.35-.87-1-.18-1.69-.8-.23,0-.15.22,0,.24-.33.7-.47-.38-.74-.4,0-.54,1.29-.36.77-.84.47-.51.91.57.4,1.07C60.93,141.68,61.44,142,61.42,141.29Zm4.49-4.5c-.23.87-1.37.16-2.06.2C64.37,136,65.11,137.29,65.91,136.79Zm-18.79-1.31a1,1,0,0,0-.14-1.13,1.71,1.71,0,0,0-.64.52c-.38-.25-.5-.65-1.12-.77.66-.37.39-.67,1-.88.52.64-.15.25-.4.89.65.16,1-.76,1.84,0-.57,1.23.08.77.78,1.12-.4,1-1.11.87-1.88.54C46.67,135.37,46.9,135.41,47.12,135.48Zm17.79,4.88c.27-.46,1,.43,1.73.21C66.51,141.34,65.36,140.57,64.91,140.36Zm-2.43,3.1c0,.53-.73,0-1,.07C61.68,142.6,62.23,143,62.48,143.46ZM43.59,134.4c-.43.13-.81.52-1.36.14C42.55,133.87,43.11,134.3,43.59,134.4ZM39,131.62a.8.8,0,0,0,.38.5c-.44.1-.85.46-1.37,0C38.27,131.76,38.66,132,39,131.62Zm27.67,5.26c2.48.36,3.16.31,5.65.64.58.37-.66.21-1.11.2-1.35,0-3.48-.26-5-.4C66.2,136.9,66.41,136.88,66.63,136.88ZM32,127.81c-.71-.43-.22-.93.28-1.32C32.79,126.77,32.12,127.36,32,127.81Zm-8.61-3.57c-.42-.32-.55-.67-.05-1.08C23.75,123.47,23.89,123.82,23.39,124.24Zm6.05,5a5.69,5.69,0,0,1-2.92-2.76c-.4-.5-.84.27-1.22-.43.15-.12.31-.05.47-.23-.62-.92-1.3-.78-1.94-1.15,1-.69.44-1.19.3-1.75,1.14-.49,1.29,1.24,1.24,1.86.71-.58,2-.68,2.14,0-.39.56-.7-.31-1.07,0-.36.69.56.36.74.34,0,.31.9.37.89.77l-.32.37c.18.19.6,0,.91.14s.07.36.15.44.74-.12.76.63c0,.13.15.3.15.43C29.72,128.3,28.61,128.62,29.44,129.23Zm-.17-1.07c-.83-.41-.39-2-1.54-.64C28.24,127.85,28.76,128.72,29.27,128.16Zm16.57,3.25c.44-.71.94,0,1.26.32C46.81,132.2,46.24,131.45,45.84,131.41Zm-.85,1c.57-.34,1.43.58,2.12.72C46.54,133.44,45.67,132.52,45,132.36Zm-19.2-15.83c-.82.3-.6-.44-1.14-.92C24.65,115,25.48,116.29,25.79,116.53Zm4.37,4.35c-.77-.11-1.32-.89-2-1.57s-2.55-2.76-1.36-1.72C27.68,118.38,29.11,120.07,30.16,120.88ZM17.54,68.45c1.13-.34-.1,1.18.36,1.71-.54-.34-.92-.94-.16-1.24C17.78,68.71,17.82,68.49,17.54,68.45Zm1-2.22A3.73,3.73,0,0,0,18.07,68C17.52,67.58,17.47,66.18,18.52,66.23Zm2.09-.8c.09-.35.82.07,1,.13,0,.36-.45.39-.59.65C20.36,66,21.63,65.61,20.61,65.43Zm53.15,72.36a3.51,3.51,0,0,1,2.77,0C75.67,138.41,74.33,137.79,73.76,137.79ZM24.51,122.25c-1.55,1.47-2.73.26-2.92-1.27-.25-.14-.33.28-.22.48-.95.1-.63-1.2-.84-1.65-.17-.18-.29.13-.19.16a2.09,2.09,0,0,1-1.23-1.82c-.47,0-.77-.83-1.38-.15.05-1.06-.79-1.52-1.53-2.36,0-.57.71-1.1.28-1.69-.68-.09.24,1.19-1,1.19-.3-.28-.33-.54,0-.77-.9-1-1.54-2.76-2.52-3.34q-.41-.51.3-.9c-.9.23-1.51-.73-1.63-1.79-.66.14-.94-.71-1.42-1,.41-.34.54,0,.72.29.38-.8-.9-.94-.64-1.7-.14-.18-.27,0-.21.12-.92.25,0-.37-.06-.65,0,0-.41-.77-.44-.89a7.36,7.36,0,0,1-.44-.89,1.69,1.69,0,0,1,.19-.75c-.1-.2-.77-.18-1-.41s.1-.43,0-.64-.32-.07-.38-.27c-.22-.75,0-1.41-.47-1.74-.06,0-.15.38-.06.57-.66-.69-.51-1.79-.73-2.61-.08-.3-.46-.5-.56-.85,0-.1.14-.52,0-.83s-.36.09-.53,0c-.37-.26-.12-1-.43-1.33.42-.09.63.15.7.6.12-.86.94,0,1.34-.65-.1-.13-.29-.11-.35-.29-.33-.51-.44.34-.93.3s0-.44-.24-.75c0-.07-.62-.39-.64-.43s.48-1.08-.45-.69c-.25-.39.37-.4.3-.71s-.28-.31-.57-.25a1.87,1.87,0,0,0-.59-2.32,4,4,0,0,0,.38-1.71c-.42,0-.42.25-.4.49-.44-.25-.06-.72-.52-1.31-.1-.35-.83.05-1-.2.23-.69-.75-.74-.94-1.06s0-.68-.16-1C.42,83.37.43,80.5.38,78.27c0-.43-.72-1.09.16-1.43.12-.45-.48-.26-.51-.58.07-2.34-.3-4,.48-5.65.65.74-.37,1.59.2,2.41.87.27.51-.71.5-1.2a1.19,1.19,0,0,1,.26-.59c-.06-.47-.57-.7-.45-1,.59-1,.81-2.33-.05-3C1.45,65.48.89,64,2,62.9c-.74-1.26.33-3.36.85-4.7-.91-.65.21-2,.56-3.35.27-1,.09-2.14.37-3,.39-1.21.83-2.42,1.17-3.42s1.37-1.84.87-2.89c.93-.18.4-.87.64-1.47.13-.31.36-.22.48-.45.5-1,.67-2.43,1.23-3.64.3-.65.9-1.07,1.17-1.65.18-.38,0-.89.17-1.29s.72-.66.93-1.09c.3-.6.15-1.5.86-1.83.1-.17-.17-.29-.3-.43a3.35,3.35,0,0,0,1.1-1.21c.81-.22,1.72,0,2.27-1.11.83.11.48,1.33,1.66,1.89.66.2.58-.8.78-1.08,0-.36-.32-.17-.67-.73.29-.69,1,.22,1.37-.18.64-.41-.15-.8.32-1.21.33.29.56.14.89.46.57-.39.18-.8.66-1.19.34.21.21.41.44.61.32-.63.5-1.27,1.29-1.12.14-.18-.16-.26-.19-.16a2.27,2.27,0,0,1,1.7-1.51c.11-.38-.45-.59.21-.58a1.88,1.88,0,0,0,.08-1.49c.35,0,.76.4,1.1.28a.75.75,0,0,1,.23-.57c-.41-.41-.75-.28-1.18-.9.35-.35.3,0,.49.21.56-.19.07-.63.51-.84s2.09.79,1.32-.56c-.25-.2-.64.15-.42.39-.4,0-.87-.61-1.29-.8a2.73,2.73,0,0,1,1-1.23c.31.45-.81.69-.21,1.19A2,2,0,0,0,25.77,20c.65-.22,1.29-1.36,2-.38.73-.25,0-.81.6-1.11.39-.07.07.28-.15.44.55.54,1.58,0,1.68,1.16a1,1,0,0,0,1-.8c-.35-.19-.7.08-1,.18,0-.47-1.11-.91-.45-1.5s.05.41.6.77c.49-.42.16-1.15.91-.68.37-.47-.46-.31-.58-.78.55.12,1.13-.61,1.7-.93.52.09.33,1,1,.78a.54.54,0,0,0,.19-.72c-.24-.27-.52.25-.75-.08-.64-.56.27-.65.51-.94-.67-.67-.74.29-1.25.56-.47-1.22.91-1,1.66-1.7.12.31-.08.51.08.82.8-1.06,1.42-.07,2.11.1.11-.12,0-.31.19-.4-.65-.51-1.35-.61-2-1.35a1.19,1.19,0,0,1,1.32.62c.58-.22.51-.67.44-1.13.31,0,.58.26.84.64.46-.43-.09-.6.87-.79.31-.06.74-.26.92.05.53-.5-.44-.6-.27-1.25l-.51.28c-.06-.51,1.17-.83,1.38.08.67-.57,1.17-.25,1.82-.66-.64-.24-2.07.48-2.06-.59.47-.29.75.43,1.21.2.12-.11.06-.31.23-.4-.18-.4-.45-.35-.62-.78-.42.1-.39.39-.59.58-.61-.39.86-1,1.4-.71.22.38,0,.56.27,1,.47-.72,1.69-1.24,2.3-.56.15-.56-.5-.68-.87-.94.7-1.09,2.4.41,3.24-.87.48-.39.54.69,1.08.09.66,0,.14-.73.46-1,1.05.14,1.45-.48,2.26,0,.13-.21,0-.59.38-.64.18-.31,0-.86.25-1.11-.3-.22-.32-.43,0-.53.27.68-.06,1.58.71,1.57.46-.21-.38-.32-.3-.93.77-.09,1-.83,1.55-1,.71-.19,1.43.47,2.28.15.47,0-.39-1.06.38-.86.58-.24.17.27.32.43s.63-.06.74.57c.69-.46,0-.86.23-1.55a2.6,2.6,0,0,0,2.13-.45c.52.42.13.78.05,1.24.42.45,1.16-.25,1.86-.59,0,.87.31,1-.31,1.54.12.32.51.12.8.11s-.1-1-.06-1.47c.58-.08.32-.94,1-.9.23-.07.1-.46.09-.75,1.32.15,2.45-.32,3.56-.17.19,0,.12-.31.15-.5.83,0,1.42-.27,2-.14l0,.48c.18.19.77-.19,1-.05.21-.07.11-.49.37-.51.21-.8-.65-.15-.44-.95.87-.72.55,1.4,1.61.43.07.4-.17.43-.17.74.61.31,1.07-.74,1.37,0,.23,0,.16-.45.19-.74a4.52,4.52,0,0,0,3-.19c-.05.35-.59.06-.61.47.23.8,2.21-.9.82-.71.1-.54,1-.05,1.41-.17-.11.5.1.65.14,1,.23,0,.13-.24,0-.25C76,0,77.32,1.77,77.67.52c.64-.06.39.79,1.15.6.14-.5-.24-.49-.55-.55.25-.51,1.14.16,1.36.4.35,0-.16-.88.68-.65.44-.06.34.4.31.78.63.27,1.31-.41,2.08-.43.12,0,.2.26.36.31s.37-.19.43-.18a15.11,15.11,0,0,0,2.18.42,8.18,8.18,0,0,1,1.37.3c.5.13,1.11-.41,1.37.33.06.15.39.52.72.43l.31-.42c.08,0,1.07,1.46,1.63.19.77.17,1.24.19,2.39.48a3.24,3.24,0,0,0,.85,0c.24.12.14.56.41.66.6.22.79-.59,1,.33.28-.15.55-.31.82-.48,2.88.93,5.64,1.91,8.26,2.59a1.68,1.68,0,0,1,0,.84c2.29-.19,4,1,5.89,1.7.42.35.64-.72,1.09-.17a1.08,1.08,0,0,0-.14,1.36c.55-.55-.21-.7.32-1.25.46.25.87.52.6,1,.33,0,.62-.21.89-.58a17.32,17.32,0,0,1,2.92,2.08,4.87,4.87,0,0,0-2.09,1.8c.28.35.52-.05.76-.35.38.45-.1,1.1-.23,1.66,1.08.22,1.19,1.5,2.2,1.12.43.18-.07.54.16.76s.41-.29.62-.12c.66.31.36.78.91,1.11-.24.46-.37.9.27,1.21.88-.3-1-1.3.18-.81.33.13.54.5.6.54.46.23.76.06.92.18s.15.48.43.73c1.16,1.05,2.85,2.13,3.29,3,.19.14.44-.18.67-.36a4.13,4.13,0,0,0,3,2.29c.35.25.24.67.46.94s.68.08.77.18-.17.5-.13.62a6.32,6.32,0,0,0,.83.66c.27.27.65.3.93.84.23-.25-.14-.54-.29-.81,0-.68.95,1,1.3,1.36-.78,0-.27.94-1.11.55-.43.54.75-.07.79.69.62-.09.44-1,.8-.57.51.65-.34.17-.36.77.13.37.63-.14.84-.08s.36,1.08.87.41a10.17,10.17,0,0,1,1.37,2.59c-.71.32-.57.88-1.25.78a6.54,6.54,0,0,0,1.85,3.17c.15.11.29,0,.52-.06,1.12,1.35,1.08,3.48,2.26,3.93.2.89.32,2.3,1.37,1.87,0,.62.62.9.86,1.44.17.36.07,1,.23,1.24s.58.3.68.41a10.5,10.5,0,0,1,1.13,2.48,23.58,23.58,0,0,0,1.16,2.92c.38.64,1,1,1.2,1.63a6.74,6.74,0,0,0,.79,2.21c-.76,0-.82.41-1.38.53,0-.8-1-.23-1.19-.78-.6.34.48.54.28,1.2-.86-.33-2.26-.15-2.58.79,0,.12.54.33.6.48.17.39.14,1.38.41,2.14s.93.93.53,1.73c.92.3,1,2.39,1.43,3.65.16.39.62.53.82.93.56,1.13,0,2.38,0,3.46-.95-.07-1,.55-1.69.66-.34,1.11-1.93,1.23-2.43,2.18-.89-.37-1,0-1.22.57-1.19-.69-1.71.48-2.7.53.08-.29-.23-.31-.23-.54-.34.05-.21.44-.26.71-.61-.43-.77-.09-1.21-.54-.42-.07-.47.13-.5.34-.15-.23-.66-.13-1-.35-.07,0,.08-.3,0-.34-.39-.17-1.12.09-1.23-.16s.35-.2.25-.34c-.22-.33-.48-.46-1.22-.65.19-.58-.37-.62-.27-1.14,0-.19-.45-.12-.73-.13.91-.84.62-2.38,1.79-3.1L132.06,64c-1.47.11-1.95.75-3.1,1-.29-1-1.48.27-2.22-.07l-.06-.61c-.57.07-.69.35-1.44.33a16.27,16.27,0,0,0,.05-1.66,1.22,1.22,0,0,0,.88-.75c-.15-.52-.65.12-.76-.18l-.1-.6,1-.17c-.37-.54.54-1.19-.45-1.16-.37.09.62.81-.58.89-.27-1.53-.6-3.06-1-4.56-.13-.17-.47-.11-.58-.3-.55.16-.63.45-1.37.55-.43-.6-1-.35-.86-1.25-.74.09-.32.44-.31.7-.07.49-.37-.15-.35-.34,0-1-1.43-2.29-.25-3.1-.49-.11-1.09-.06-1.08-.8.34-.1.23.37.6.22.18-.1.18-.23.4-.32a1,1,0,0,0-1.16-.3c-.57-.82-.1-1.9-1-2.36,1,.36.27-.8-.3-.64a12.73,12.73,0,0,0-1.23-2.42,21.08,21.08,0,0,1-1.66-2.93A4,4,0,0,0,113,41.07c0-.32.34-.28.58-.44-.12-.11-.1-.24,0-.38-.26-.32-.57,0-.81-.29s0-.8-.14-1-.69.07-.83-.26-.13-.49.29-.81c-.41-.06-1,.4-1.2-.31.23-.15.31.12.56-.1.21-.41-.41-.45-.48-.93,0-.07.19-.53.17-.56-.54-1-1.83-1.38-2.17-2a2.09,2.09,0,0,0-.72.31c.22-1-1-1.28-1.67-1.61l.49-.55c-.36-.08-.68-.44-1.13,0-.18-.48.55-.39.75-.65-.36-.36-.83-.09-1.25-.12a1.8,1.8,0,0,0-1.87-.92c-.09-.24-.06-.52-.16-.75a12,12,0,0,1-6.16-3,6.25,6.25,0,0,0-1.22.14c-.42-.42-.65-1-1.28-1.25l.43-.87c-.66.12-1.88.69-1.91-.41.43-.52.69.34.92.45.41,0,.76-.83,1.21-.48a.66.66,0,0,0-.32-.71c.61-.14.86-1.26,1.27-1.55,1-.69,1.38.3,2.36.17.22.24.55.41.19.95.26,0,.52-.12.78-.11a.47.47,0,0,0-.3-.74c.58-.3,1.38.59,1.62,1-.55.57-.39.52-.5,1.13.35.15.92-.5.91.3.13-.26.26-.35.39-.33.37-.67-1.28-.37-.54-1.22.59.36,1.24.7,1.45,1.24.6.18.48-.71.94-.84-.39-.31-1.06,0-1.07-.71.26-.38.53-.64.8-.65a1.17,1.17,0,0,0,0-.89c-.74.05-.12.73-.52,1.12-.23-.29-.44.13-.66.45-.5-.11-.36-.53-.69-.73.22-.26.45,0,.68.14.36-1.07-.81-.35-1.21-.18-.52-.3-.37-.92-.48-1.43-.37,0-.65,1.05-1,.53a2.75,2.75,0,0,1,.16-1.31c-.31.11-.58.63-.89.63-1.4-.58-3.1-1.73-4.94-2.4-.31-.22-.43.58-.71.49a.68.68,0,0,0,.4.7c-.7.56-.42,1.49-.56,2.16l-.28-.12-.28-.13c.48-.6.65-1.25.12-1.53-.39.65.38.48-.17,1.25-.3-.87-.84-.68-1.5-.35.07.57.55.17.85.34.51.31.56,1,.88,1.44-.32.21-1,1-.57,1.35a4.93,4.93,0,0,0-1.64.63c-.42,0-.09-.56-.36-.67-.28-.36-.74-.08-1.14-.18-.23-.06-.15-.33-.33-.38-.47-.13-.92,0-1.29-.19a14.19,14.19,0,0,0-3.43-1c-.25-.07-.55-.82-.88,0-.42.08-.18-.54-.46-.61s-.3.13-.38.42c-.49.11,0-.83-.42-.84-.49-.29-.89.43-1.14-.23-.17,0-.19.42-.26.7a2,2,0,0,0-1.77-.79,1.88,1.88,0,0,0-.37.69,30.85,30.85,0,0,0-3.64-.42A21.86,21.86,0,0,0,70,21c-.4.07-.69.42-1.11.53-.9.22-1.83-.15-2.51.4.74.14.56.63-.2.76a6.18,6.18,0,0,0-1.4.09,17.43,17.43,0,0,0-2.58.46c-.22.06-.29-.21-.46-.17s-.55.4-.91.43-.59-.14-.73-.09c-.32.1-.37.81-1.1.76a1.33,1.33,0,0,1-.53-.37c-.21.08-.27.73-.47.88s-.32-.18-.47-.12c-.34.13-.55.65-.91.78a9,9,0,0,0-2.22.74c-.12.1.11.64-.21.59-.18-.35,0-.43-.14-.73-.24.06-.16.39-.42.43.08.27.19.39.31.4.2.65-.4.16-.44-.36a.71.71,0,0,1-.67.53c-.11,0-.5.73-.69.81s-.59,0-.85.11a19.81,19.81,0,0,1-2.23,1.33c-.33.12-.44.75-.72.93s-.3-.05-.48,0c-.43.07-.53.63-.82.74s-.65-.11-.84-.07a2.68,2.68,0,0,0-.83.22c-.1.08,0,.59-.08.63s-.32-.06-.48,0-.1.37-.32.5-.62.08-.82.26-.56,1.65-1.63,1.47c.2.44-.44,1.22-1,1.74-.15.13-.54.1-.68.25-1,1-1.62,2.55-2.75,3.17-.24.13-.89-.15-.74.41.22.18.32,0,.46-.12.1.5-.66,1.46-1.39.74.41.48,0,.43-.18.92-.07.24.27.95-.42,1.22-.44-.28-.23-.44-.11-.61-.23-.09-.9-.34-.48-.57-.62-.4,0,.37-.35.41a2.15,2.15,0,0,0-.67-.72c-.41.17,0,.49-.26.68-.67-.73-1.22-.41-1,.09.77.37,1.22,0,2.06.57.16.39,0,.71.35,1.12-.36,0-.87-.41-1.23-.43-.21.34.73,1,.86.49.39.89-.95.36-1.56,0,.27.51-.07.94,1,1.54-.13.13-.26.28,0,.46-.55-.06-.79.51-1.55.06.15-.33.32-.59.92,0l.39-.54c-.7-.63-.62.36-1.32-.27,0-.5.12-.35.61-.4-.7-.45-.94.07-1.61-.3-.29.33.34,1-.36.94-1-.63-.92-1.85-1.53-2.07-.19-.55.63-.52.58-1.2.25.48.26.17.79.57.49-.48-1.16-1.2-.55-1.68.23-.3.26,0,.48.18.31-.17-.24-.44-.11-.64.2-.71.89,0,1.13-.6,0-.6-.66-.14-1-.66.39.2.44-.55.86-.25.18-.32-.61-.3-.76-.25-.07-.54.88-.65.63-1.44-.82-.34,0,.67-.42.83-.48-.32-.94.09-1.13-.55-.7.34.12.88-.42,1.24s-.56-.28-.68.45c-.06.34.05.63-.09.89a2.62,2.62,0,0,0-1.24.42c-.1.58.32-.3.69.31.29.92-1.48,1.3-.85,2-.41,0-.83.07-1,.61-1-.93.92-.41.49-1.14a22.74,22.74,0,0,0-3.1.23c.37.9,1.32.33,1.67.12.7.53-.61,1,.73,1.56-.13.22-.37.24-.67.13.4.56-.11,1.11-.46,1.68-.42-.28.3-.61-.31-.89a7.33,7.33,0,0,0-1.2.57c-.18.36.56.67,1.13,1-.31.25-.27,1.11-.81.95-1-.49.6-.44,0-1-1.19-.15-.19.9-.88,1.1.38.22.54.07.94.31-.22.4-.43.81-.63,1.22-.71.19.62-.91-.24-1.14-.69.07-.21,1.14-.55,1.62,1.09-.4,0,.92-.14,1.45-.56.24.14-.79.23-1.07-1.05-.23-.73,1-.64,1.39-.77.11-1.6,1-1,1.75.61,0,.5-1,.83-1.33.5.18-.12.54-.08.8-.2.51-.58,1.07-.05,1.44-1,.57-.79,1.31-1.35,2.28,0,.18.43.25.37.44-.05.4-.48.37-1.08.15.45,1.2-1,1.49-.74,2.52-.56.18-.45-.18-.9-.39,0,.26-.3.21-.37.4s.66.37.72.18c.83.63.14,1.16.31,1.82.33.08.67.17.75,0,.38.44-.39.76-.06,1.38a1.13,1.13,0,0,0-1.5,0c-.7-.23.3-.29.13-.61-.52-.13-.8,0-.82.32.07.72,1.27.15,1.62.62-.59.58-.57.65-.78,1.58l-.72-.1c-.13.77.71,1.1.45,1.94-.61-.29-.6.19-.77.23s-1-.21-1,.21c.52.58.79-.5,1.74-.13.08.62-1,.34-.85,1,.06.23.42,0,.5-.11.61.38-.3.64-.35,1.06s.37.89.39,1.28-.42.75-.06,1.08c-.4,0-.41-.16-.73-.18-.09.48.76.63.21,1-.56,0-.25-.46-.72-.49-.28.59.59.47.46,1,.66-.09.63-.65,1.49-.6-.13.11.14.53,0,.61s-.35-.24-.49-.16a2.35,2.35,0,0,0-1.24,1.57c.22.43.54-.49,1,0-.13.44-.35.82-.48,1.27l-.73,0c-.31.35.1.35,0,.63-.15.57-.84.65.28.94.22-.35.8-1.08,1-.22.55-.3,0-1.19.19-1.72.83-.09.47.67.52,1.06s0,1,.06,1.38l-1.21.09c0,.66.53.81,1.25.52l.08.92c-.33,0-.41-.23-.76-.23.2.69-.34,1-.07,1.74-.2,0-.26-.13-.5-.1-.14,1.26.27,1.87.17,3,.87,0,1.26.38,1.21,1.21.93-.24-.43-.81.26-1.32.59.15.3,1.14.55,1.62-.4.15-.48,0-.54-.2-.14.59-.89.17-1.13.57-.06.77.57-.35.78.15.42.62-1,.59-.48,1.24.09.3.83-.45,1.22-.13-.51.51.77,1.17-.26,1a2.63,2.63,0,0,1,.81,2c1.18-.13.4-.8.41-1.26.95-.14.31.61.53,1s.74.32.73.74c-.73.4-.83,0-.88-.37-.5.18-.39.54-.24.89-.62.13-.88.07-1.11.54.17.17.94-.51,1.25-.09.64,0,.61-.9,1.11-.54.13.37-.11.24-.41.3a3.72,3.72,0,0,1,.59,1.76c-1.14.45.08-.87-.94-.48-.54.55,0,.49-.15,1.06.12.32.76-.28.69-.27.84-.17,0,.59,1.07.09.06.59.92.66.5,1.28.86,0,.95,1.47,1.59,2.45.36.55.61.48.31,1.21.12.12.48-.13.57,0,.69,1.85,2,2.4,2.27,4.1.14.11.46-.17.57,0,.28.25-.2.52.2.77-.67.64-.83.17-1.26.28.22-.48.5-1.37-.31-1.44-.57.46.21.53.06,1,0,.13-.52.44-.54.53,0,.35.25.57.3.93.77-.28-.12-.53.65-.81.41,0,1.32.52,1.26-.29.32-.12,1.24.79.47,1.15,1.13.12,1.28,1.42,2.07,2.43a18.94,18.94,0,0,0,3.07,2.93c.41.18-.15.56.05.78.41.08.48.54.52.56.25.1.76-.43.87.2-.37.78-.51.15-.83.19-.15,0-.61.32-.73.29s-.09-1.11-.71-.39c-.27.33.28,0,.32.34,0,.08-.8.93-.09,1,.45-.37-.59-.43.2-.86.71.32.75,1.6,1.3,2,.59-.64-.6-.86-.38-1.41.55-.86.78-.31,1.24-.83A7.17,7.17,0,0,1,38,113.82a2.75,2.75,0,0,1,2.52,1.45c.64-.66.59-1,.28-1.34.38-.42.64.21,1-.13.54-.74-.32-.26-.46-.36-.41-.27-.6-.85-1.08-1.21-.16,0-.39.32-.54.19-.49-.23-.35-.68-.45-1-.33-.12-.11.4-.58.45-.43-1-1.82-1.15-2.07-2.29.87-.33-.13-1,.43-1.67-.2-.33-.88,1.07-1,.38-.19.22,0,.33.13.48.17.49-.41,0-.48-.14,0-.42.2-.9-.16-1.25-.63.39-.1.54,0,.76-.61.56-.44-.18-.67-.37a5.42,5.42,0,0,1-1.7-1.6c.35-.4.48-.15.64,0,.71-1-.56-.58-1-.47-.69-1,.11-1.74-.65-2.45-.81.48.16.75.22,1.11-1.62-.14-1.47-2.1-2.22-2.68-.08-.07-.55,0-.56,0-.14-.17.42-.26.41-.28-.16-.23-.74-.24-.88-.46-.31-.47.31-1,0-1.38-.12-.13-.44.13-.69.26-.45-1.31-1.88-1.91-1.48-3.18-.08-.16-.29.08-.22.11a1.71,1.71,0,0,1-.72-2.07,3.21,3.21,0,0,0-1-.49A11,11,0,0,1,24.74,90c1-.58,1.19-1.08,2.12-1.37A7.83,7.83,0,0,1,26,85.85a2.1,2.1,0,0,0-.78-.06.62.62,0,0,1,.07-.73c-.15-.3-.6.32-.64.46-.13.7,1.17.46.56,1.14a1.29,1.29,0,0,1-1-1c-.2.11-.39.23-.4.4-.45,0-.13-.19-.07-.27s.17-.44.87-.53c0-.19-.13-.36-.13-.54s.38-.53.38-.53c-.06-.24-.81-.07-.62-.56.88-.25.42-.89,1.27-1.13-.37-.34-.87.4-1.22.12s.18-.71.64-.55c-.8-.18.44-1.11-.88-.81-.83.27.83.5.11.68s-.48-.52-.61-.73-.52-.27-.55-.33c-.33-.69-.5-1.85.2-2.3-.4-.32.07-1-.13-1.52a2.36,2.36,0,0,0-.79-.78c-.65.68.4,1.08.12,1.69-.87-.16-.78-.77-.82-1.2s.43-1.07.16-1.74c.78-.16.52.34,1,.37-.25-.41-.78-.65-1-1.08.72-.33.18-.62.48-1.29-.65,0,.23.79-.73.58-.08-.43.28-1.11-.48-1.14.37-.36.52-.86,1.25-1-.21-.21-.18-.55-1-.44-.27-.39.78-.6-.22-.59,0-.53.89-.51,1.28-.8-.19-.4-.49.36-1.23.08.87-.95,0-1.83.5-2.7-.14-.16-.54-.21-.43-.48,1,.49.47-.28,1.27-.29-.43-.21-.58-1.24-1.08-1-.78-.25.32-.25.31-.39-.17-.43-.68.12-1-.29a22.63,22.63,0,0,0,.54-3.77c0-.24.32-.19.34-.38.05-.37-.4-.8-.17-1.24a.63.63,0,0,1,.63-.44c0-.54.2-1.18.28-1.75.22-1.61.83-2.76,2.86-2.81.9.39,1.67.63,2,.32.39.19.43.42.25.68.57-.09,1.63.94,2,.33,0,.48,1,.83,1.37,1.2.15.16-.35.4.32.51-1.05,1-1.29,2.39-2,3.53-.11.19-.55.27-.65.49s.15.7,0,1-.31.21-.36.44c-.08.44.63.83-.22,1,0,.14.46.17.43.34s0,.69-.2,1c-.08.14-.55.3-.55.3s.36.29.42.45-.4.57-.38.84.34.33.41.55a1.28,1.28,0,0,1-.4,1.23c-.11.21.17.25.46.29-.49.72-.24,1.77-.2,2.88-.38.24-1-.24-1.24.24.29.39.94-.18,1.22.14a6.14,6.14,0,0,0,0,2.26c-.31,0-.51-.14-.5-.36-.92.48.66.62.75.6.22.58-.64-.14-.73.29s.36.22.74.21l0,.88c-.47.25-.31,0-1,.08l0,.38c.18.25,1-.55,1,.16.11.51-.34,0-1,.22.05.35-.39.3,0,.51.06.28,1-.06,1.47,0l.08.86a2.43,2.43,0,0,0-1,0c.35.12.08.66,1,.37.29.65-.09,1.06-.81,1.39,0,.25,1.29.36.1.63.27.29.92-.47.78.23.2-.09.41-.19.44-.33.06,0,.94.94-.34.94.06.38.92.11.85.58l-.71.16c.42,0,.46.28.81.32.06.35-.45.58-.82.84,1.08-.25.79.74,1,.9,0,0,.33-.36.14-.42.89.44.15,1.53.61,2.25A5.31,5.31,0,0,0,29,87.39c-.05.44.7,0,.66.45.73-.66,1.14,0,1.34-.62.53,0,.18.87,1.34.16,1.06,1.07,1.08,3.1,1.95,4.13-.84.34-.69-.47-.94-.89s-.3-.87-.69-1c-.24.36-.13.73-.61,1.08,0,.54,1-.15,1.18.27l-.44.21c.33.49.12,1-.13,1.46.11.09.46-.15.54,0l.39.78c-.15.43-.4.3-.53.57.19.47.31-.21.76-.13.16.29.17.8.92.19-.08.91.9,1.62,1,2.25-.69,0-.77-1.12-1.21-1.58a2.7,2.7,0,0,0-1.23.29c.1.33.34.44.87.07-.18.68.58.62.76,1.31-.34,0-.35.16-.61.39.8.79,1.46,1.6,2.37,2.69-.08.45-.73.26-.71.7.33.44.9-.92,1.16-.08a1.24,1.24,0,0,1-1.47.48c-.66.63.22.93,1,.07.07.27.41.27.34,0,.83,1,1.75,2.2,2.76,3.35A13.15,13.15,0,0,0,43,106.84c.14.06.22-.14.16-.19.33.07.66.5,1.21.74-.43.66-.56,0-.71.67s.32.48.35.61c.09.44-.38-.27-.81,0a12.94,12.94,0,0,0,.52,1.71,4,4,0,0,1,2.15-1.12.86.86,0,0,1,0,1.19c1-.32,1.1.8,2.28,1.3a2.42,2.42,0,0,1-.4.91c.18.25.39-.16.61-.48.38.53,1.09.71,1.79,1.1,1,.58,1.76,1.66,2.6,2.23.4.29,1.06,0,1,.75.2,0,.37-.31.57-.28s.25.6.33,1c1.29-.46,2.27,1,4,1.28.15.66-.33.37-.49,1.12.65.17.94-1.28,1.65-.74a2.43,2.43,0,0,0-.66,1.32c.43.32.78-.82,1,0-.22.45-.67,0-.87.51.17.63.92-.61,1.47-.08-.11.63-.38.72-.72.55,0,.88.58-.27.87,0-.08.51.59.23.58.66.47-.32,1.2-1.33,1.49-.9-.2.28-.31.85-.52,1.14-.26,0-.23-.37-.5-.38-.33,1.12.65.85,1,.74-.11.71-.47.67-.58,1.37.28-.21.49-.6.77-.83.51,0,.38.71.53,1.11-.7,0-2.52.48-2.82-.9-.35.06.08.42-.31.68-.59-.26-1.54-.18-1.8-.76-.14,0-.19.25-.27.42-.87-.18-1.17-1.16-2.07-.41-.16-.82-1.74-.88-2.46-.67,0-.67-.59-.84-1-1.2-.38.86.26,1,.37,1.48-.54.84-.27-.18-.7-.29s-.39.78-.6,1.07c.8.57,1.39-.07,2-.49,1.71.9,2.86.91,4.09,1.69-.44.17-.65,1.18-1.15,1.18-.1.54.79.25.76.75.19-.46.18-.75-.09-.8.24-.72.85-.17,1.32-.12-.09.38-.31.88-.1,1,.49.38.37-1.13.94-.51-.46.72-.42.51-.14,1.23.3-.09.23-.52,0-.51.12-.33.47,0,.57-.36.27.49.58.82.13,1.54.62.26.8-.63,1.5-.15.63.07.28,1.13.92,1.19.51-.24,1-.43.88-1.32.87.19,1.35-.19,1.43-1,.46-.13.35.41.73.36,0,.53-.28.43-.53.41a1.57,1.57,0,0,0,.46,1.31c.68-.31.54-.34,1.11.16.11.81-.54.11-.43.93-.06.57.45,0,.38-.45.53.06.84-.31,1.47-.08a2.26,2.26,0,0,0-.06-1.23c-.23.31-.7.17-1.12.12.23-1.19-.74-.92-.55-2a17.49,17.49,0,0,0,3.26.35,12,12,0,0,1,3.15.41c0,1.12-.36.25-.62.23a40.21,40.21,0,0,1-4.62-.34c.37.51,1.18.48,1.29,1.36.53.23.27-1,.83-.67.36-.11.2.48.44.52.35.43.45-.44.5-.45s.19.23.3.26.27-.23.32-.23c.69.06,1.24.59,2,.06.26-.08.29.2.31.5.47-.16-.15-.53,0-1,.38,0,.38.55.63.73s.05-.87.13-1.22c1.21-.17,2.31-.55,3.34-.61.16,0,.27.45.35.47s.64-.26.89-.32.8.14.88-.33c.15.2.44.1.52.44.65-.81,2.53-.2,3.56-1,.29.75-.29.57-.26,1a1.83,1.83,0,0,0-1.54.25c-.28.14,0,1-.51.81.62.75.85-.62,1.32-.69.26.54,1-.18,1.11.81.2-.42-.36-1,0-1.5.39-.27.46.26.81.09,0-.74-.43-.35-.71-.35.1-.63.88-.85,1.35-1a3.58,3.58,0,0,1,1.18-.27c.2,0,.57.36.57.36.18,0,.09-.48.17-.55.29-.23.74.39.82-.46.22-.16.33.1.43.38.45-.06.29-.65.74-.72.09.43-.09.61-.44.64.24.44.61.41.88.76.32-.18.65-.36.29-1.11.16.15,1.08.33.65-.46-.33-.53-.45.5-1,.32,0-.38.36-.48.58-.69-.33-.67-.93-.21-1.24-.9-.53.53-.74.29-1.28-.14-.1-.54.88.72.63-.43-.12-.28-.35-.16-.28.08-.61-.42.17-1.71-.83-1.29-.27-1.1,1.25.21,1-1-.57-.07-1-.55-1.68-.28-.34.3.34.54.34,1.17-.4-.1-.63-.88-.94-1.27-.29.15-.43.6-.8.19.16-1.32,1.31-.57,2-1.28.06.38-.35.31,0,1,.57,0-.11-1.08.57-.93-.07-.28-.17-.41-.29-.43a2.48,2.48,0,0,0,.39-2.16c.32-.33.5.23.78.26.61,0,.62-.56,1.13-.66.22.48.19.76-.1.81.81,1,1.27-.59,1.93.85.4-.5-.58-1.28-.91-1.49-.23-.48.39-.27.51-.46-.06.84.61.9.93,1.47.45-.65.22-1.77,1.09-2.08.25-.3.46.35.69.5.08-.09,0-.28.13-.34.11-.37-.63-.4-.32-.93.19-.22.38.21.57.54.21-.46.27-1,.82-1.23.35-.08.71.52,1,0-.16-.24-.31-.06-.47,0,0-.81,1.67-.8,2-1.71.35.05.77,1,1.11.75.11-.2-.21-.24-.4-.62a4.13,4.13,0,0,0,1.62-1.35c.42.56.81.85,1.12.41-.22-.15-.4,0-.66-.44,0-.38.44.25.51.24.33,0,.07-.9.76-.54.16.94-.6.68-1,1.32-.21.24.29.83-.13,1-.19-1-.95.37-1.43.06l0,.82c-.4,0-.84-.66-1.25-1,0,.8-.7-.25-1,.33.59,1.34,1.23.44,1.49,1.67a2.56,2.56,0,0,1-1.6-1.33c-.6.1-.19.86.27,1,.14.4-.19.28-.36-.08-.34.36-.71.06-1.06,0s.37,1.06.48.57c.21.75-.75-.12-.6.59.15.37.31.31.47.58,0-.38.81-.32.37-1,.35-.46.72.44,1.08,0,.34.43-.06.43.13.77S98,114,98,114s.47.35.61.22,0-.64.35-.77c.12-.16-.23-.58-.4-.9.42-.36.89.24,1.34.33.44-.14,0-.72-.07-1.11a8.79,8.79,0,0,1,1.4.84c-.33-1,.36-1.41.77-2,.42.79.65,0,1-.09.26-.36-.58-1.19.16-1.34a1,1,0,0,1,0,.63c.38.43.57-.26.55-.41-.23-.11-.46-.31-.68-.41-.75-.35-.66.18-.93-.52l-1,.7c-.33-.81.61-.55,1-1.06a5.62,5.62,0,0,1,1.64-1.3c.42.62.69.58,1.07,1,.76-.22.7-.76,1.4-.89.33.44.41.79.25,1.08.82.3-.13-1,0-1.36s.85.4,1.12,0c.17-.2-.76-.72-.82-.24-.65-1.06.61-.07,1-.22.18-.59-.48-.71-.76-1.32.46-.29.64.86,1.17.57-.37-.46.33-.65-.5-1.23.6,0,.59-1,.92-.24.14-.37,1-.58.64-1,.3-.06.35.27.56.48.46-.19-.48-.67-.47-.94.84.42-.08-.55.7-.81a7.34,7.34,0,0,1,.68,1.08,8.36,8.36,0,0,0-1.84,2.48,9.28,9.28,0,0,1-1.61,2.45c-.08.2.29.32.44.26-.24.46-.38,1.09-.72,1.3-.11.06-.51-.19-.65-.09s-.12.38-.06.37c-.25,0-.31-.64-.75,0-.81-1.3.5-.89.58-1.45a3.7,3.7,0,0,0-2.85.45,1.79,1.79,0,0,0-.36-.65c-.27.51.51,1.11,1.13,1.6.64-.18-.17-.92.28-1.16.67.89,1,2.1,1.81,1.67-.83.78-1.47,2.62-3.14,2.7.07.83-1,1.18-1.62,1.67-.18.23.42.85-.09.92A4.46,4.46,0,0,1,99.93,114c-.46.54-.42.34-1.09.93.21.47.41.5.62.76-.06-.55.47-.77.36-1.34,1.58.86.63,2.11-.23,2.12l-.13-.49c-.06,0-.73.43-.38.77a18.76,18.76,0,0,0-3.31,2.21c-.72.59-1.78.6-2.43,1-.32.21-.55.9-1,1.15s-1.08.4-1.15,1.19c.36.76,1,.23,1.37,1.08a1.29,1.29,0,0,1,2.16,0,1.71,1.71,0,0,1,.57-1.82c-.16-.68-.45-.49-.63-1,.72-.63,1,1,1.07,1.66.2.09.71-.33,1.24-.28.27-.14-.6-.72-.38-1.16-.25-.39-.31,1-1,.43,0-.36.18-.6,0-1.07,1.14-.16,2.1-1.12,3.63-1.78.67.2-.86.37-.31,1,.31.54.69.18,1,0s-.37-.88.17-.93c0,.81.64.71.77.41s-.57-.95.14-.36,1.11.47,1.18-.13c-.39-.33-.79,0-1.16-.73.34-.34.68.36,1,.24.09-.11,0-.29.13-.37-.26-.61-.52-.23-.78-.38-.4-.39.25-.43.26-.45.19-.32.06-.54.24-.72.47-.47,1.37-.75,2-1.31.09.76-.35.5-.84.87.36.51.69.12,1-.1a1.61,1.61,0,0,0,1.21.65c.15-.63-.7-.3-1-1.11.6-.65,1.36.83,2,1a2.81,2.81,0,0,1,1.43-.46c.21-.2-.44-.7-.36-1,.5-.64,1.2.45,1.68-.4.65.91,1.13.4,1.8,1.37-.86-.15-.71.92-.67,1.49.25.22.45-.11.67-.23a1.81,1.81,0,0,0,.49.85c-.25.27-.54.18-.85-.25-.27,0,.28,1-.24.5-.46-.19-.47-.34-.05-.58-.51-.15-.94-.9-.8-1.24-.62-.41-.16.68-.61.79a6,6,0,0,1-1.18-1.25c-.39.28.63,1.06.24,1.35.35.53.61-.23,1,.48-.27,0-.51.73-.8.29,0,.42.19.93-.36,1.16-.25-.81-.73-1.33-1.25-.61-.68-.22,0-.78-.71-1,0,.34.17.74-.37.85-.19-.38-.37-.31-.54-.23-.23-.51-.59-1.38-1.11-1.61-.1.33.4.93-.23,1-.7-.7.14-.69-.56-1.38-.67.06,0,.76,0,1.14-.3.07-.62-.93-.91-.3.07.27.46.8.26,1.27.43.42,0-.76.66-.69.15.68.54.2.79.36s.28.48.41.61.46,0,.67.44a.75.75,0,0,1-.53.63c-.13-.29,0-.47-.14-.78a.69.69,0,0,0-.4.84c.7.95,1.22.35,1.62-.17.55.52-.06.55-.27.76.6.36,1,.69.94,1.42.18.2.37,0,.55.23.32-.29,0-1.07.71-.76.52,1-.93,1.35-1.73,2-.45.36-.64.91-1.19,1-.1-.15.24-.6.46-.56-.73-.16-.39.48-.75.73s-.68-.18-.69-.17c-.23.19-.15.8-.38,1s-.47,0-.73.11c-.49.27-.86,1.15-1.51.78-.45-1.17-.09-1.88.93-1.85-.44-.7-1-.26-1.53,0-.33.4,0,.41.3.94-.34.08-.45.28-.23.66-.25.18-.87.15-.4.73.23.42.41-.61.88-.15-.44.93-1.6.75-2.38,1.37-.17.14-.21.58-.44.72-.65.4-1.6.85-2.32,1.19a10.53,10.53,0,0,1-3.44,1.17l-.15-.46c-.24-.18-.31.57-.59.43-.13-1.64-.21.53-1.16.33-.18.09,0,.47,0,.75-.7.13-1.57.65-2,0-.56,0-.21.82-.9.71-.33-.79-.18-1.16.44-1.11-.17-.73-.67-.59-1.17-.49,0,.76.37.83.5,1.4A38.48,38.48,0,0,1,75,134a63.57,63.57,0,0,1-12.17-1.16,24.89,24.89,0,0,1-3.72-.8c-.27-.09-.35.18-.56.11-.56-.21-1.61-.67-2.6-1-.55-.17-1.17,0-1.72-.29a23.06,23.06,0,0,0-4.37-1.67c-.79-.16-2,.11-2.68-1.21-.93-.1-1.63-.21-2-1,0,.28.24.41,0,.81-1-.92-2.07-.94-3.35-1.87.21-.25.46-.18.66-.46-.46-.59-.8.5-1.23.4-.32-.27.46-1,.62-1-.47-.15-.92.12-1.4,0-.26-.62-.74-.5-1.31-.85-.26-.18-.33-.57-.57-.7s-1.37,0-2-.82c-.15-.21-.08-.65-.12-.7-.21-.23-.87.39-.68-.53a18.34,18.34,0,0,1-2.76-1c-.28-.18-.31-.59-.37-.64-.23-.22-.45,0-.68-.28s0-.57-.07-.72-.4,0-.54-.17c-.52-.55-1.1-1.63-1.71-2-.26-.16-.65,0-.95-.27a1.26,1.26,0,0,0,0-.72c-.58.07-.91-.59-1.23-1s-.88-.31-1.17-.59,0-.46-.27-.69c-.84-.82-2-1.87-2.88-2.84-.18-.21,0-.4-.11-.57-.78-.89-1.78-1.48-2.1-2.16-.16-.34.13-.4.12-.71a12.53,12.53,0,0,1-1.88-2.12c.16-.23,0-.48.45-.68-.13-.16-.45.1-.71.22-.46-1-1.94-1.17-1.35-2.46-.45-.47-.31-.55-.84-1.15a1.2,1.2,0,0,1,.94-.86c-.35-.69-.6,0-1.11,0-.54-.63.2-1-.2-1.63-.17-.28-.8.24-1,.08,0-1-1-1.86-1.25-3.11-.08-.37.15-.92,0-1.32-.3-1-1.83-2.59-.87-3.57a2,2,0,0,0-.8-.13c.29-1.29-1.09-1.63-.77-3.07-1.09,0-.61-.56-1-1.22-.27,0-.65.44-.65.51s.51.21.59.41-.23.4-.13.58.56.36.64.58-.06.69,0,1.1a4.73,4.73,0,0,1,.47,1.73c0,.23-.32.61-.32.66s.51.66.6,1.12.25.64.44,1.37a13.21,13.21,0,0,0,.86,2.36c-.35.2-.45,0-.75.11.21.51.57,1.05-.28,1.29.12.18.47,0,.75-.11.5-.18-.14-.64-.11-.94,1,.17,1.24,1.41,1.26,2.42-.11.54,1.11.11.51.55-.3.56-.46.13-.81,0s-.46.27-.59-.13c-.05-.15.17-.28.08-.44.27-.09.31.22.44.4.36-.8-.64-1-.49-1.77-1.34.27.51,1.33-.92,1.6.74.79,1.91.58,1.95,1.93,1-.24-.1-.91.79-1.18a2.37,2.37,0,0,1,.42,2c-.45-.12-.92-1-1.42-.11.25.28.91-.29,1,.33-1.32.5-.24,1.51.45,1.42.3-.36.21-.76-.07-1.21.93-.28.6.72.89,1.18-1,.08-.7.76-.94,1.35.92-.29.45-1,1.19-.88.11.51-.67.9-.31,1.44s.17-.44.24-.56c1.32,1.28,2.59,3.53,4,5.42.12.17.06,1.19.93.89a9.05,9.05,0,0,0,2.15,3.15c-.81.32-1.13-.67-1.63-1.26a10.56,10.56,0,0,0-1.94-2.2c-.67.56-.19.77-1.08,1,.57.43.24,1.07.77,1.06-.05-.26,0-.46-.16-1,1.25-.4.53,1,1.11,1.49.5-.3-.62-.59.24-.89a61.3,61.3,0,0,0,4.62,5.62,52.15,52.15,0,0,0,5.49,5.1c.24.19.31.6.56.79s.75.23,1,.5c.44.45.39,1.78,1.32,1.33-.28.5.41.71.32,1.15.22.09.43-.28.28-.39a13.64,13.64,0,0,1,4.4,2.41,9.14,9.14,0,0,0,4,2c.19.22-.12.18-.23.43a4.8,4.8,0,0,1,2.21.58c-.29.56-.8,0-1.09.54.52.3,1.66-.19,1.79.61-.45,1-.6-.59-1.16.26-.59-.16-.41-.7-1.08-.82-.15,0-.27.14-.44,0-.3.47-.38.84-.1,1.05-.68,0-1.27.88-1.47,1.17-.14,1,1.05.5,1.2,1.15-.24.74-.67-.09-.82-.13s-.31.36-.4.34c-.6-.12-1.22-.55-2.06-.82-.09-.55.6-1.74,1.1-1.63.38-.4-.15-1.22-.45-.8-.33-.65.72-.48.92-.89-.34-.24-.62-.12-.85.36-.59-.19,0-.87-.76-1,.77-.69.93.88,1.68.12.56.31.77,1.64,1.73,1.21.69-.81-1.33-.72-.22-1.22-1,.17-1.16-.59-2-.27-.27-.27-.67-.48-.29-1-1,.22-2.18-1-3.18-2a2,2,0,0,1-2.13-.87,3.09,3.09,0,0,1-1.8-.41c.24-.36.49-.27.73-.67-.35-.32-.69.17-1,.13-.55-.34-1.09-1.09-1.64-1a.8.8,0,0,0,.29.85c-.55.12-1.09-.58-1.65-.39-.65-.59-.31-1.38-.83-2-.28-.11-.15.28-.48.55-.65-.49-.35-1.16-1.1-1.65-.25,0-.52.28-.75,0-.33.26-.2.44-.05.62-.78-.08-.9-.66-.95-1.24-.41-.21-.1.44-.65.39-.33-.57.93-1.34-.1-1.83-.09.27.13.5-.25.8-.14-.79-.91-.1-1-.66,0,.07.61-.31.52-.51s-.75,0-.48.2c-.43.53-.59-.9-1-.37s1.47,1.09.38,1.81c.24.14.55-.31.83-.54Zm15.77,13.48c.33-.71.55-1.36,0-1.68l-.69,1.29Zm1.31-2.91-.51-.28c-.18.74-.63,1.6.34,1.85C42.24,133.53,40.76,133.68,41.59,132.82Zm-11.66-8.56c.36.44-.78,1.2.26,1.49.65-.45.14-.65.32-1C30.86,124.53,30.08,123.88,29.93,124.26Zm77.41-6.71c.09-.49.7-.78,0-1.54-.53.13.12.7-.06,1-.35-.5-.69-1-1-.79Zm-6.64,3.57-.42.22c.46.6.28.86.55,1.36C101.41,122.49,100.84,121.69,100.7,121.12Zm1.36,1.76c0,.81.41,1.1.09,1.89C102.66,124.45,103,123,102.06,122.88Zm1.92-2.52c.4.62.15,1.56.93,1.16-.64-.68-.13-.85-.24-1.29C104.44,120.44,104.21,120.18,104,120.36Zm-.91-1.15c-.16-.32,0-.49-.13-.79-.22,0-.44-.14-.66.12C102.53,119,102.8,119.3,103.07,119.21Zm.71,2.7c.13.31,0,.51.37.91a.76.76,0,0,1,.7-.13C104.51,122.08,104.17,121.55,103.78,121.91Zm-4.25-1.28c.74.33.75-.69,1.52-.82.2.28.43.23.64.48s-.13.33,0,.58c.45,0,.86.76,1.33.36.25-.22.12-.63.18-1-.69-1-1.38-1.56-2.09-1.33.16.48.35.18.52.27s1,.66.77,1c-.45,0-.89-.15-1.3-1A3.4,3.4,0,0,0,99.53,120.63Zm-2.46-4a.67.67,0,0,0,.53-.82c-.24.62-.4.15-.87.17Zm-3.94-1.38c.19.14,1.25.17.75-.61C93.58,114.3,92.83,114.76,93.13,115.29Zm-.19,3c.6-.41,1.56.44,1.81-.5-.43-1.25-1-.69-1-.11C93.29,118,92.88,117.48,92.94,118.28Zm-1.86.7c.74.58.73-1.1,1.47-.55C91.81,117.32,91.37,118.48,91.08,119Zm-1.46-2.33c.57-.2,1.66.61,1.64-.6C90.74,116.63,89.78,115.88,89.62,116.65Zm9.5,7.73c0,.13.1.27-.05.28.24.61.56.63.93.38C99.75,124.44,99.47,124.13,99.12,124.38ZM97,120.49c.34.91.89-.1,1.33-.1.14.84.46.83,1,.59A1.41,1.41,0,0,0,97,120.49Zm.75,1.54c.37-.41.62.12.9.38a.64.64,0,0,0,.35-.71c-.6.19-.81-.08-.73-.73C97.93,121.11,97.54,122,97.78,122Zm1.46,3.37c-.56-.06-.92-1.24-1.58-.63.07.56.49.33.72.75.05.1-.25.42,0,.8.12.2.31.53.82.17C98.46,125.33,99.23,125.94,99.24,125.4Zm-4.09.15c-.73-1.31,1.4-.14.28-1.43.59,0,.52-.5.69-.81a4.68,4.68,0,0,0,2.12.39l-.42-.88c-.61.39-1.06.38-1.14-.56-.72.42-1.06,1.09-1.74,1.53C95.54,124.73,93.85,125.11,95.15,125.55Zm-.5,3.84a4.65,4.65,0,0,0,1.26-1.51,3.91,3.91,0,0,0,2.4-.46,2.25,2.25,0,0,0-.65-1c-.16.39-.89.42-.9.91.57.22.44-.49.88-.1-.19.74-1,.4-1.44.06.67-.69-.14-1,.2-1.66.26-.17.45.11.71,0-.26-.65-.69-.33-1-.93,0-.14.58-.64.11-.58-.4.43.07,1.44-.73,1.62.83.84.22,1.16,0,1.31.31-.09.26.92,0,1-.39-1.17-1.32-.12-1.79-.91l.43,1.15c.42-.15.88-.47,1.13.11C95,128.58,94.05,128.45,94.65,129.39Zm-2.28-3.87c-.37.34-.51-.19-.84,0C91.61,126.67,92.63,126.11,92.37,125.52Zm-.14,2.62c.72-.11,0-.69.24-.85.41-.14,1-.18.77-.78-.66,0-.86.71-1.24.42C92.35,127.54,92,127.6,92.23,128.14Zm-.59,1.46c.27-.15,1,.4,1-.3-.15,0-.26-.14-.32-.41C91.89,129,91.5,129.08,91.64,129.6Zm-1.28-.13c-.45.43-.35-.73-.79-.3-.22.17.07.78-.52.64,0,.82.58.05.59.86-.48.19-1.07-.73-1,.26.47-.19.65.41,1.13.21.51-.54.69-1.36,1.47-1.67-.06-.29-.23-.66,0-.75.68-.55-.51-.11-.42.37-.2.1-.77-.81-.71-.05C90.25,129.05,90.56,129.32,90.36,129.47ZM88,128.32c.26.23.63.13,1,0,0-.82-.57,0-.58-.86.43-.3.64.09,1,0,.13-.54-.1-.29-.27-.94-.39.37-1.24.33-1.21,1.07C88.68,127.42,87.94,128,88,128.32Zm-.29,1.58c-.28-.48-.86-2.13-1.15-1.25.29,0,.46.33.55.88-.28.12-.88-.06-.55.62a2.4,2.4,0,0,1,1.37-.05c.23,0,1.2-.26.6-.4Zm-.3-3.2c-.25-.13-1.64-.29-1.14,0C86.37,127.16,87.35,127.31,87.38,126.7ZM85.92,126c.56.19-.07-.79.49-.6.25,0,.27.57.58.36l-.25-1c-.51.32-.78-.12-1.25,0C85.59,125.64,86.16,125.39,85.92,126Zm-.73,2.65c0,.82,1.59.59,1.07.28C85.69,129.4,85.76,128.24,85.19,128.68Zm-1.06-2c.47.12.79.65,1.39.48C85.4,126.25,84.34,126,84.13,126.64Zm-1.59,1c.41.09,1.43.75,1.42-.23C83.54,127.33,82.46,126.87,82.54,127.64Zm-.25,2.51c.39-.16.94,1,1.06.33C83.07,130.12,82.32,129.13,82.29,130.15Zm.33,2.17c.48.41,1.39,0,2.08-.08,0-1-1,.07-1-.82.23-.06.07-.64-.25-.45,0,.36.41,1.21,0,1.23C83.2,131.67,82.75,131.72,82.62,132.32Zm-6.34.31c-.4,0-.51-.41-1-.22C75,133.2,76.3,133,76.28,132.63Zm5.09-5.32c-.11.07-.3,0-.28.29.66.15.39-.77.45-1.29l-.62.08C80.91,127.06,81.3,126.83,81.37,127.31Zm.16,4.66a1,1,0,0,0,.65.91c0-.34.17-.5,0-1Zm-2.82-4.38c.86.23,1-.48,1.51-.63.08.64-.36.66-.51,1,.56.58.79-.58,1-1.09-.85-.23-1.31.34-1.93-.54C79,127,78.59,127,78.71,127.59Zm.86,3.61c-1.67.39.75.63.63-.31C79.89,130.92,79.85,131.13,79.57,131.2Zm-2.19-.09.08,1.22c0,.34-1.22.2-.65.52a3.24,3.24,0,0,1,1.73.14c.17-1.21-.91-.3-.79-1.41.32,0,.35-.3.65-.29,0,1.29,1.82,2,1.92.57a6.15,6.15,0,0,1-1.54-.11c-.43-1.17.49-.69.35-1.5C78.38,130.32,78.31,131.25,77.38,131.11Zm-2.59-3.34c.42-.18.33.48.65.48.33-.36-.22-.59.12-.74.09.42.21-.06.47,0,.14.77-.26.76.06,1.22.24-.05.6.06.63-.27-.09,0-.19-.19,0-.24.79-.4.73.71,1.19.91-.13-1,.17-1.37,0-2.45-.62.33-.77,0-1.4-.17,0,.3,0,.58-.29.51-.48,0-.47-.76-1.1-.46C75,127,74.64,127,74.79,127.77Zm.2,1.46c.64.59.33.88.82.23-.14.92.43.68.39,1.45.36.21.58-.82.29-.74,0,.25-.27.32-.32,0l0-.49c.33-.15,1.09.26,1.12-.29-.34-.46-.77-.08-1.13,0-.47-.9-1-.44-1.63-.7C74.4,129.4,74.78,129,75,129.23Zm-1.77,2c.3.14.69.13.84.49H72.88a2.29,2.29,0,0,0-.18,1.22c1,.34,1.06-.75,1.87-.72.1-.5-.31-.46-.35-.73a1.14,1.14,0,0,0,.33-.49c0,.11-.33-.21-.34-.24-.08-.24.33-.56-.17-.49C74.39,131.45,73.29,130.57,73.22,131.19Zm-1.45-2c.3.45,1.06.22,1.61.29C73.26,128,72.25,128.66,71.77,129.19Zm-.56,1.1a2.65,2.65,0,0,1-.28-.16c-.18-.12-.1-.49-.46-.52-.12,0-.61-.15-.68.45.28.16,1-.24,1,.3-.77-.25-.48.57-.69.7-.19-.3-.57-.32-1-.33,0,1.08,1.28.62,1.78,1.11,0,.24-.15.28-.19.48.51.2.32.19.84,0,.28-.92-.75-.08-.47-1l.83,0c.2-1-.74-.12-.8-.76,0-.27.06-.33.13-.34S71.31,130.29,71.21,130.29Zm-2.5-1.06c.84.32.41-.38.67-.43.67-.13,1.37.67,1.91.37-.23-.06-.12-.6-.12-1-.76.66-1.3.09-2.39.07Zm-4.24-1a1.6,1.6,0,0,0,0,.75c.39.11.55-.29.74-.62A.46.46,0,0,0,64.47,128.18ZM62.35,130c.31-.08.9.48,1-.05C63.21,129.6,62.47,129.37,62.35,130Zm-4,.83c.23.48.21,0,.65.17C59.39,130.14,58.49,129.91,58.39,130.85Zm.44-2.41c.3.28.92,1.25,1.52.64C60,128.85,59.19,128.07,58.83,128.44Zm-2-3.92c.2.17-.1.78.45.66l.21-.71C57.23,124.44,56.94,124.22,56.8,124.52Zm-1.48.53c.37.57,1.06.6,1.33-.58-.06-.1-.37-.77-.58-.2.09,0,.16.1.07.29C55.74,124.19,55.57,124.75,55.32,125.05Zm-1.7-1.69c-.47,1.06.56.27.86.33s.78,1,1.23.2C55,123.75,54.22,123.07,53.62,123.36Zm-2.15,2c.06.39.74.77,1,.14C52.14,125.55,51.69,124.89,51.47,125.38Zm9.7-2.64c.46.13.39.81,1,.75C62.47,122.3,61.69,122.43,61.17,122.74Zm-1.49-.66c.55-.16.51,1.14.93.51-.51-.41-.2-.63.23-1C60.4,121.62,60,121.55,59.68,122.08Zm-1-2.61c0,.59-.41,1.5.12,1.58A1.76,1.76,0,0,0,58.66,119.47Zm-.76,1c.64.55-.95,1.24,0,1.54C58.31,121.36,58.36,120.16,57.9,120.5ZM54,120.06c-.15-.11,0-.42.13-.74a.56.56,0,0,0-.61,0C53.14,119.84,53.64,120.53,54,120.06Zm.17-3.39c-.12.35-.4.81-.25,1,.15-.48.34.2.28.39-.15.35-.39,0-.53.57.55.32,1.53.13,2,.58.28.25.16,1,.46,1.23-.44-.12-1.44.26-1.36.78.56-.64,1.46-.25,1.85-.87,0,.07-.38-.3-.11-.56.19.23.78-.48.66.24-.16,0-.36-.17-.47.09.1.35.45.48.44.94-.26.28-.33.51-.09.74.13-.75.57-.12.65-1.07-.35-.08-.57.3-.47-.42l1.07-2-.51-.17c-.37.52.27.91-.18,1-.13,0-.58-.18-.44-.41,0,0,.41,0,.33-.14-.27-.42-.74-.3-1.15-.43s-.5-.9-.86-.08c.62.22.5,1.06,1,1.42-.64.59-.59-.78-.79-1.09-.29,0-1.18.17-1.16-.48.24-.65.73.63.91-.41C54.66,117.64,54.69,117,54.12,116.67Zm-4.79,3.93c-.25.67-.38,2.08.43,1.58-.13-.12-.1-.35-.06-.58.32-.21.7.08,1.06.25-.47.62,0,.64-.12,1,.42.41.69-.08,1.09.23A2.42,2.42,0,0,1,52.2,122C51.23,121.54,50.28,121.08,49.33,120.6Zm-4.18-1.23a2.12,2.12,0,0,0,1.31.49c-.24.52-.52,0-.76.41.07.11.26.16.14.37l.27.16c.2-.31.39-.82.61-.78-.33,1,.68.41,1.07.6l-.34.65c.9-.39,1.07,1.52,1.62.57-.67-.11-.75-1-.14-1.45a1.39,1.39,0,0,0-1.54,0C46.57,120.18,46.23,118.07,45.15,119.37Zm1.26-7.66c.52-.07.26.52.82,0-.09-.45-.23-.12-.41-.59Zm-3.3,3.35c0,.33.26.53.57.71C44.28,115.24,43.32,114.75,43.11,115.06Zm-1.39,1.71c.88.52-.59.6-.45,1.18a3.58,3.58,0,0,0,1.54.78c.49-.06.18-.77.66-.74a2.84,2.84,0,0,0,.39,1.72,2.44,2.44,0,0,0,1.15-1c-.45-.3-1-.72-.77.09-.38-.4-.34-1-.75-1.37C42.58,118.15,42.49,116.46,41.72,116.77Zm-.83.91c-.12-.16.08-.28.28-.4-.33-.25.18-.83-.19-1.06C40.54,116.32,40.19,118.05,40.89,117.68ZM29.11,59.17c0-.16.14-.33-.12-.44-.3.4-1.07-.69-1,0C28.14,58.89,28.4,58.86,29.11,59.17Zm-7.59,5.22c.17-.62.55-.91,0-1.47A1.51,1.51,0,0,0,21.52,64.39Zm5.62,6.89c-.15-.39.28-.45.29-.75C26.72,70.48,26.38,71.25,27.14,71.28Zm.2,1.92c-.58-.34.44-.73-.23-1C26.89,72.3,26.42,73.3,27.34,73.2Zm1.58,12.08c-.34,0-.9.13-1.24.09l.14.51C28.41,85.72,29,85.55,28.92,85.28Zm-2.78,7.64c-.32-.45.92-.72.29-1.21-.73.24-.41.71-1.07.61C25.47,92.72,25.69,93,26.14,92.92Zm6.39-.64c-.41-.24.22-.45.23-.67-.65.28-.66.58-.94.88s-.42-.18-1,.2C31.07,93.45,31.52,92.68,32.53,92.28Zm3,6.67a.61.61,0,0,0-.83-.37C35.08,98.89,34.55,99.61,35.5,99Zm-1.76,5.83-.44-.56C32.45,104.72,33.08,105.52,33.74,104.78Zm3.49-1.53c-.23-.27-.39-.69-.88-.3C36.64,103.07,36.64,103.93,37.23,103.25Zm.87,2.11c-.19-.45-1.16-.47-1.26.06C37.09,105.26,37.2,106.54,38.1,105.36Zm-.32,4.92c.41-.6.37-1.07-.05-1.42C36.64,109.63,37.42,109.9,37.78,110.28Zm5.16-1.91c.13-.79-.68-.54-.5-1.42-.49.43,0,.36,0,.63C42.41,108,42.2,109,42.94,108.37Zm-2.65,7a2.25,2.25,0,0,0-2,.28c.38.21.42,1.25,1.09.88C39.19,116.25,40.09,115.44,40.29,115.38Zm-3.54-1.72c-.71.66.44.79.61,1.2.21.07.44-.08.62.21-.47.43-.5.72-.1.87.56-.51,0-.64.53-1.15.33.55.77.11,1.17,0C38.7,114.44,37.13,114.5,36.75,113.66Zm-5.44-6.06c0,.12,0,.27-.27.43.43.26.31.12.49.6C32.17,108.24,31.36,107.43,31.31,107.6Zm-2.17-2c.16.32.39.43.75.19-.06-.21.1-.44-.17-.64Zm-.43-1c-.45.55-1.11,1.13-.63,1.63.8-.4.27-.44.59-.84,0,0,.42,0,.39-.29ZM22.3,96.33c.13.44.39.7.83.64-.25-.39.29-.67.05-1.06Zm7.76-53.79c.44.24.36.64.39,1.14.16-.23.65.23.73-.18C31,43.26,30.35,42,30.06,42.54Zm1.58-2.8c-.11,0-.26,0-.47-.19-.45.27.08.68.11,1C31.33,40.28,32.05,40.09,31.64,39.74ZM97.91,23.06c-.41,0,0-1.26-.7-.66C97.28,22.64,97.39,23.58,97.91,23.06ZM99,25.7c-.24-.11-.18-.39.12-.79-.35-.35-.68.11-1-.33-.24.36.1,1.31.28,1.31s.29-.53.38-.34C98.59,25.87,98.71,26.45,99,25.7Zm2.92.15c.41-.48-.13-1.27-.49-.92A2.82,2.82,0,0,0,102,25.85Zm25.19,36.26c-.11.62,1.24.41,1-.16Zm-1.24-4c-.74.17-.61.62-.52,1.07C126.25,59.06,126,58.56,125.9,58.1Zm17.47-6.73c-.33.37-1.52.34-1.26,1a1.78,1.78,0,0,0,1.23-.11C143.19,51.87,143.49,51.72,143.37,51.37Zm-1.11-5.3c-.47.1-.36.42-.56.63-.6.07-1.31,0-1,.78a1.27,1.27,0,0,0,.63-.42c.1.43.39.55.89.34C141.79,46.79,142.18,46.49,142.26,46.07ZM120.71,53.3c.35.3,0,1.45.88,1.07.64-.36-.6,0-.41-.47.27-.12.53-.24.36-.44C120.8,54,121.24,53,120.71,53.3ZM139.8,45c.24.44.93,1,1.5.53-.35-.71-1.84-.56-1.41-1.66C139.17,44,139.63,44.68,139.8,45Zm-2-1.79c.61.07.91.71,1.74.37C139.42,42.6,137.82,42.24,137.78,43.21Zm-21.93-.08c-.12-.33.57-.7.22-1C115.49,42.4,115.36,43.3,115.85,43.13Zm-2-13.28.7-.69-.35-.36C113.69,29.22,113.48,29.58,113.83,29.85ZM96.53,18.76c.41.26,1.5.5,1.38.14C97.55,18.93,96.39,18.31,96.53,18.76Zm-1.25-2.47c.32.3,0,1,.62,1.09C96.12,16.85,95.76,15.84,95.28,16.29Zm-2.65,2.59c.42-.92-.8-.5-1-.41C91.9,18.71,92.18,19.22,92.63,18.88Zm-4.88-4.3c.48,0,.17.58.28.85.6.26,1.14.37,1.55,0-.07.34.26.38.31.62,1.1-.5,2.2.3,3,.85,0-.48.93.21.48-.33-.27-.17-.43.12-.7,0a1.29,1.29,0,0,0-.59-1.28c-.25-.2-.48.09-.86-.05s-.75-.78-1.12-.91c-.2-.07-.31.23-.55.08S88,13.58,87.75,14.58ZM67.91,13.23c.4.08.81.64,1.19.69s.48-.44.79-.51c.16,0,.14.23.17.24s.15-.24.16-.25c.83-.09,1.29-.24,1.47-1-.62-.25-1.57.39-2.47.51C68.75,13,68,12.18,67.91,13.23ZM50.21,27.8c.33-.07.73.19.76-.35C50.7,26.59,49.88,27.33,50.21,27.8Zm1.59-2.57c-.7-.25-.06,1.23.23,1.23C51.63,25.81,52.36,26,51.8,25.23Zm-1.16-.84c.35-.06.6.67,1,.39C52.07,23.9,50.4,23.18,50.64,24.39Zm17-10.16c0-.72-.43-.73-.44-1.45.12-.06.32,0,.31-.26C66.64,12.66,66.66,14.25,67.66,14.23ZM55.9,4.3c.48.35,1.19-.18,1.48-.56C56.64,4,56.08,3.42,55.9,4.3ZM51,6.1c.54-.71.77.09,1.44.09-.15-.59.14-.83-.35-1.18C51.86,5.49,50.64,5.27,51,6.1ZM41,10.8c.37.19,1-.06.76-.63C41.4,10,40.74,10.24,41,10.8ZM47.54,22c.7.19.58-.4,1-.74.27.94.63,0,.67,0,.33-.08.65.48,1,.37-.53-.95.6-.74.39-1.47.28-.05.64-.51.76.23-.4.28-.81-.31-.63.5.33.13.6.16.82,0s.59-2.07,1.13-.93a.12.12,0,0,0,.08.23c0-.73,1.22.71,1-.58-.2-.29-.58.15-.75-.26.68-.33,1.44.18,1.56-.77.12,0,.46.59.52.61s.92-.38,1-.3l.14.47c.31,0,.47-.63.83-.48.1.27.16.67.34.67.19-.58-.22-.76-.47-1.14.56-.4-.1-1,.59-1.41.31-.07.37.6.74.32,0-.42.32-.51.5-.61a5.24,5.24,0,0,1,3.12-.59c.08-.38.11-.8.51-.82a24.16,24.16,0,0,1,4.27-1c0-1.75-1.26-.39-1.83-.33-1,.09-2-.18-2.84-.13.08.42,0,.64-.2.78-1.47-.21-2.08.56-3.25,1.11-.23-.5.27-.86-.33-.68-.08.48-.48.65-.56,1.13-1.2.09-2.12,1-2.87.51a1.37,1.37,0,0,1-1.71.53c.58,1.07-.59.78-.74,1.28-.13-.49.25-.59.13-1.08-.38.6-.75.22-1.38.49.1,1,.68-.16.87.47.21.85-.75.19-1.27.72.1.29.17.55-.11.57,0-.84-.12-.14-.53-.05-.67.15-1.17.29-1.13,1a1.91,1.91,0,0,1-.25-1c-.66,0-.26.67-.43,1-1,.25-1.84.71-2.35.29-.11-.27,0-.62-.33-.66-.08.37.2.94.13,1.3-.39.2-1.15-.56-.85.44.76,0,1-.75,1.5-.21a4.4,4.4,0,0,1-.76.92c-.45.56-.26,0-.81.15.05.89.82.8,1.53.44S47.71,22.32,47.54,22ZM41.79,26.6c-.37-.76-.94-.44-.92,0C41.26,27.37,41.82,27,41.79,26.6Zm-.56,6.65c.33-.22.64-.65,1-.47-.33-.28-1.35-.89-1.16-.36.07,0,.15-.07.26.11A.58.58,0,0,0,41.23,33.25ZM38.9,32c.45.18.72-.29.53-.73C39,31.06,38.7,31.53,38.9,32Zm-1.13-.66c.62.77.71.26.89-.09C38.26,30.49,38.06,31.22,37.77,31.31ZM28.39,21c.83.15.41-.92.56-1.4A1.11,1.11,0,0,0,28.39,21Zm-1.24-.87c-.42-.64-.83-.32-1.22.07C26.37,20.82,26.76,20.5,27.15,20.11Zm-1,2.85c.37-.29.71-.58.37-1C26,21.87,25.44,22.43,26.12,23ZM33,32.89c.67-.15-.25-.68.23-.88s1.91-.23,1.27-1.16c-.56.23-.62,1.08-1.21.77.11.05.23-.48-.06-.28C33.45,31.92,32.06,32.14,33,32.89Zm-8.69-8.25c.24-.51.59-.1.85-.48a1.62,1.62,0,0,0-.82-.57C24,23.89,24.2,24.27,24.33,24.64Zm5.92,12.21c.07-1,1.3-.5.85-1.3-.49.19-1.22-.43-1.65,0a1,1,0,0,0,.74.64C30,36.38,30.07,36.61,30.25,36.85Zm-2.33.1c.32-.27.07-.61-.45-1A.62.62,0,0,0,27.92,37Zm-5.24,7c.11-.08.27-.06.5.1.45-.25.23-1.13.58-.94s-.32.62.3.91c.7-.24.22-.54.38-1.06-.77-.19-.79-.54-1.34-.63A4.68,4.68,0,0,1,22.68,44Zm-2.37,9.3c.06-.29.39-.22.46-.49-.69-.12-.51-.42-1.08-.58C19.53,52.64,20,53,20.31,53.27Zm-.74,2c.3-.27,1-.3.77-.72a1.73,1.73,0,0,0-.74-.09c-.54-.75.84-.71.43-1.17-.74-.09-.72.81-1.18,1.09.34.14.87.23.87.46-.43-.13-.31.45-.66.43C19.4,56.47,19.14,55.72,19.57,55.31ZM1.26,76.4c-.08-.82.38-1.1-.3-1.58,0,.24-.27.13-.48,0C.89,75.5-.28,76.21,1.26,76.4Zm.5.38c.25,0,.29-.36,0-.4-.2.42-.94.46-.92,1.05C1.61,77.56,1.3,76.88,1.76,76.78Zm-.3,2.82a.72.72,0,0,0-.58-1.16C1.33,79,.57,79.41,1.46,79.6Zm8.89,2.51c-.25-.42-.37-1-.88-1.13C9.25,81.78,9.57,81.89,10.35,82.11ZM2.28,84.33c0-.76.17-.94-.66-1.11C1.16,83.72,1.69,84.32,2.28,84.33Zm10,10.73c-.12-.42-.25-.83-.59-.94-.42.18-.73.39-.8.68C11.81,94.22,11.8,95,12.29,95.06Zm-.08,1.2c.09-.16.74-.87,0-.77-.87.83-.3-.38-.71-.51C10.14,95.54,11.64,96.29,12.21,96.26Zm-.32,8.84c.17-.39-.2-1.41-.83-1.1C11.78,104.21,11.18,105.06,11.89,105.1Zm3.95,6.21a.54.54,0,0,1-.72-.22,1.08,1.08,0,0,0-.7,1.17c.35-.26.59-.15.74.22A1.08,1.08,0,0,0,15.84,111.31Zm0,2.15a5.55,5.55,0,0,0,.86-1.33C16.18,112.55,15.05,112.94,15.83,113.46Zm4-2.85c-.72-.35-1.08-1.7-2-1.28-.12.47.24.1.51.33C18.71,110,19,111.28,19.81,110.61Zm2.34,6.21c.43.1.82.44,1.34.07-.5-.26-.06-.59-.42-.87Zm-1.73.23a1,1,0,0,0-.8-.59c-.53.23-1.13,1.2-.51.92C19,116.86,20.09,117.06,20.42,117.05Zm1.48,2.83c-.48-.23-.76-1.57-1.4-.84C21,119.27,21.28,120.62,21.9,119.88Zm.18-.17c.72-.76-.91-1.36-1.17-2.07-.36.29-.54-.38-.93,0C20.9,118.63,21.49,118.44,22.08,119.71Zm34-101.1c-.1-.66.14-1,.63-1.18,0,.31-.06.53-.32.59,0,.21.12.2.22.2C56.63,18.54,56.27,18.51,56.06,18.61Zm44.28,98.79c.34.74-.32.59-.66.65C99.47,117.39,100.05,117.49,100.34,117.4ZM19.72,58.09a1.71,1.71,0,0,1-.32,2.12c-1-.2.07-.23.12-.44C19.06,59.23,19.56,58.51,19.72,58.09ZM17.91,79.55c.33.43.29,1.06.5,2A2.18,2.18,0,0,1,17.91,79.55Zm74.23,56c.11,1.35-1.46,1-2.23,1.09-.52,0-1.25.77-1.57-.14A7,7,0,0,0,92.14,135.56Zm15.41-16.06c-.27.14-.12.44-.41.57a8.18,8.18,0,0,1-1.39-1.42A2,2,0,0,1,107.55,119.5ZM96,135.14c-.24.68-1.58.62-2.27,1C94,135.36,95.3,135.41,96,135.14Zm-16.48,2.44c1-.09,2.29-.21,3.13-.32-1.59,1.33-3.3.22-5.71.72C76.51,137.6,78.71,137.66,79.48,137.58Zm29.6-17.68c-.45.34-.91.66-1.38,1C107.88,120.56,108.38,119.1,109.08,119.9Zm3.26-3.46c.22.61-.16.7-.61.82C111.52,116.65,111.89,116.57,112.34,116.44Zm-1.78,2.06c-.2.8-.79.69-1.49.82a1.33,1.33,0,0,1,.77-1.19C110.09,118.46,110.33,118.55,110.56,118.5Zm-15.9,3c-.69,0-.35.7-.81.85-.89-1.24-.87.49-1.38.26a1.64,1.64,0,0,0-.11-.74c.34,0,.81-.62,1.08-.14C93.67,121.43,94.17,120.34,94.66,121.53ZM81.49,23.32a6.85,6.85,0,0,1-2.85-.53,4.92,4.92,0,0,1,2.67,0C81.56,22.74,81.53,23,81.49,23.32ZM12,31.68l.82-1.16C13.12,30.79,12.76,32.3,12,31.68ZM119,15.27c.28-.29,1.12,0,1.4.26s.73.91.28,1.23C120.27,15.91,119.81,16.05,119,15.27ZM18,23.77c.61,0,1.1-.9,1.71-1.46s1.08-1.64,1.78-1.07C20.3,21.9,19.39,24.52,18,23.77ZM62,1.26C61.18.5,63.42.81,63.67.33c.06.28.39.16.63.18C64.12,1.56,62.2.8,62,1.26Zm-33.16,16c.41-.28.83-.57,1.22,0C29.61,17.58,29.2,17.88,28.8,17.22ZM18.73,26.27c-.57-.39.87-.68.3-1.06.56.28.85-1.33,1.48-.52C19.93,25.29,19.27,25.42,18.73,26.27Zm-4,4.91c.42-.81,1.13-.53,1.65-1C16.41,30.25,15.52,32,14.77,31.18Zm5.09-4.7c.43-.48.86-1.09,1.46-.51C20.8,25.93,20.48,27.11,19.86,26.48Zm2.25-1.34c-.5-.69-.76.35-1.29-.43.46-.47,1,.07,1.48-.47C22.58,24.58,22.47,24.87,22.11,25.14Zm66.08-.64c-.5.71-1.13.08-1.59,0-1.24-.34-2.22-.65-3.31-1-.56-.16-1.47.59-1.44-.59,1,.76,2.28.29,3.43.63A25.39,25.39,0,0,0,88.19,24.5Zm-11.88-2c-.27,0-1,.21-1.39-.12C75.31,21.67,75.89,22.11,76.31,22.48ZM68.23,22c-.18.37-.58.42-.93.55C67.1,21.66,67.93,22.22,68.23,22Zm6.43.06c0,.95-1.52.36-1.82.14C73.18,21.68,74.1,22.2,74.66,22.09ZM97.9,28.45c-.69.31-.82-.16-1.32-.52C97,27.54,97.46,28.35,97.9,28.45Zm9.59,6.1c-.66.47-.5-.22-.78-.43-1-.72-2.44-1.66-3.39-2.37,1-.94,1,.23,1.28.45A20.17,20.17,0,0,1,107.49,34.55Zm-17.61-9.4c-.45.7-1.76,0-1.43-.56C88.73,25,89.29,24.73,89.88,25.15Zm6.58,2.42c-.33.59-.85.18-.85-.2C95.88,26.9,96.18,27.57,96.46,27.57ZM4.15,48.36c-.39-.59.51-1.61.65-2.36C5.16,46.58,4.26,47.59,4.15,48.36Zm43,88.18c-.4.27-1,0-1.37.21,0,.23,0,.47.17.6-.64.7,0-.64-.63-.54C45.81,136.5,46.85,136.05,47.11,136.54Zm4.22,2.12c-.55,1.13-1,.08-1.57-.29C50.08,137.9,50.83,138.65,51.33,138.66Zm-7.21.31c-.56-.26-1.15-.5-.81-1.18C43.21,138.36,44.67,138.17,44.12,139Zm4.6,1.09c-.53.53-1.15-.41-1.24-.73-.47-.16-.75.19-.93-.38C47.42,138.55,48.24,139.67,48.72,140.06Zm-3.63-2.8c-.38.43-.62-.21-1-.19-.14,0-.34.36-.38.36-.34,0-.2-.42-.45-.48s-.93.68-1.4.13c.14-.75.59-.19.94-.08.24-.74.85-.7.34-1.19.59-.67.28.39.44.48s.22-.35.38-.36c.34,0,.49.86,1.15.8C45,137,45,137.14,45.09,137.26Zm-9.89-5.1c-.78-.61-1.45,0-2.25-.94.37-.37,0-.54-.21-.74a1.37,1.37,0,0,1,2.1,1.14c.31-.52.11-.83.66-1-.81-.3-2.65-1.61-2-2.88.62.5.53,1.21,1.14,1.71.15.2.94-.21.57-.5,1.43,0,2.64,2.09,3.82,2.17-.74.62-1.52-.07-2-.07-.41.38.08,1.24.4.83.3.91-.9,0-1.25-.21-.07-.56.45-.56.81-.93-.74-.28-.8-.8-1.31-1.16-.66.71.21.81.24,1.05,0,.09-.46.16-.43.3s.65.35.1.94C35.47,131.75,35.34,132,35.2,132.16Zm8.42,8.46c-.83-.22-1.8.18-2.62.13-.6,0-.08-.5-.76-.37-1.34.24-3.12-.48-5.28-1.48,0-.39-.46-.64-.37-1.07.51-1,1.38.06,1.42-1.15.82,0,.74.59,1.56.63.5-.92-.76-1.18-1.42-1.68.2-.39.48-.32.67-.74.43,1.33,2,1.33,3.26,2.11-.16.51-.48.28-.77.14-.5-.06-.89.36-1.31.68.32,1,.67.15,1.15.07,1.41.82,2.41,2.14,3.91,1.94A.86.86,0,0,0,43.62,140.62Zm-3.81-1.28c.1-.33-.28-.46-.34-.73-.57.8.4,1,1,1.33C41.77,140.51,40.41,139.48,39.81,139.34Zm-3.35-5.81c.18-.2.42.07.59-.21.26-.48-.66-.53-.88-.84-.13.21.1.29.2.42-.31.71-1,.64-.16,1-.72.32-.72,0-1.16-.44-.11-.11.54,0,.47,0,.18-.15-1-.54-1.19-.76.21-.49.5-.24.77-.09a3,3,0,0,1,3.13.21,1.36,1.36,0,0,0-.54.53c.5-.06.9-.83,1.5-.24-.36.53-.45,1,0,1.14-.87,1.16-1.51.16-2.33.06.32-.58.53-.26.49-.85C37.07,133.46,36.85,134.1,36.46,133.53Zm15.95,3.69c-.15.33-.57-.1-.7.28-.47-.18-1.06-.34-1.45-.52-.62-.27-1.41-.5-1.18-1.23.46.08.23.57.8.57l.25-.68c-.22-1-1-.48-1.85-1,.16-.94.69-.13,1.06-.1s.75-.17,1-.12c.94.16,1.82.72,2.53.65.26.69-.4.34-.56,1.1.15-1-1.22-1.31-2-1.22a1.41,1.41,0,0,0,.65,1.54c.32-.56.22-.85-.29-.89C51.64,135.22,51.74,136.87,52.41,137.22Zm-19.95-6.34c-1.27.41-.55-1-1.63-1.5.51.78-.18.93-.9.54.79-.86-.41-.76-.2-1.71.22-.06,1.12-.09.45-.58.73-.63.9.45,1.39.77-.45.38-.93-.48-1.37.49.16.12.31-.14.46-.26l1.1.83c.28.16.43-1.12,1.05-.44C32.69,129.86,31.12,130,32.46,130.88Zm25,10.07c.67.24.33.77,1.11.51C58.48,142.41,57.2,141.51,57.45,141ZM130,78.07c-.5-.44.1-1.44,0-2.1C130.53,76.39,129.94,77.42,130,78.07ZM57.76,140.52c-.46.24-1,.26-1.25.95-.67-.21-1.52-.31-1.36-1.11.27.57,1.23.52,1.72.45.05-.23-.19-.24-.32-.33A.71.71,0,0,1,57.76,140.52Zm84.72-64.07c.42.08.52.38.41.83.66.07.52-.29,1,.09a6.39,6.39,0,0,1,.2,2.44,22.4,22.4,0,0,1,.08,4.11c0,.31-.35.5-.36.55-.4,2-.11,4.15-.5,6.17-.07.36-.52.73-.58,1.11,0,.22.28.69.22.93s-.47.59-.55.9a19.22,19.22,0,0,1-1.42,4.5c-.58-.41-.7,0-1.21-.27,0,.87.48.15,1.13.46-.36,1.49-.91,2-.48,2.94.32.66-.46.43-.58.65-.2.39.34,1.11-.63,1.3,1.53.47.13.73.41,1.36.4-.27,1-.16,1.47-.2-.19-.49-.86-.32-1.12-1,.18-.65.72-.48.85-1.22l.89.41c.38-.6-1.12-.65-.9-1.56.41.16.37.45.81.59.51-.67-.38-1.35.46-1.63a2.67,2.67,0,0,1,0-2.5,2,2,0,0,1,.22,1.44,3.94,3.94,0,0,0,1-.51c.15-.44-.56,0-.54,0-.31-.24.1-.36,0-.67s-1.05-.75-.08-1.15c.69,0,.1.53.23.76s.87.27.76.74c1.2-.41.74-1.08,1.21-1.82-1.08-.39-.46.74-1.06.75-1.06-.12-.37-.89-.85-1.21.45-.59.46,0,1.22.21.55-.22,1.26-.17,1.41-1.09.83.27,1.24,1.26.35,1.26,0,.63.62-.4,1.22.19.42.63-.35,1-.52,1.45-.07.2.08.54-.09.91-.42.93-1.26,1.85-1.7,2.87-.18.41,0,.64-.13.9-.7,1.42-1.84,3-2.44,4.42a6.68,6.68,0,0,1-1,1.41c-2.15,3-4.34,6.16-7,8.52-.27.24-.64.21-.91.38-.66.42-.91,1.14-1.47,1.81-.43.52-.94.46-1.1,1.29-.34.58-.86,0-1.24.31-.34,1.09-1.72,1.42-2.12,2.61-.21.32-.69-.65-.23-.8-1.15,0-1.07,1.56-.66,1.7-.72.37-1.42,1-2.2.42.06,1.5-2.49,1.2-2.29,2.71-.15.42-.68,0-.79,0s-.07.45-.32.58a24.36,24.36,0,0,0-3.37,1.71c-.24.18-.77.67-.54,1-.22.11-.4-.26-.6-.47a4.94,4.94,0,0,1-2.35,1.62c-.16.11,0,.34.1.52-.88.05-.87.8-1.64.47-.45.13,0,.55-.26.74a5.59,5.59,0,0,0-2.18.72,12.53,12.53,0,0,0-1.49,1.11c-.33.27-.53.77-.85,1a17.67,17.67,0,0,1-3.89,1.87c-1.12.43-1.93,1.8-3,1.27-.3.19-.26.59-.59.75s-.44-.13-.67,0c-.41.23-.9.83-1.39,1-1.1.42-2.29.33-3.42.83-.29.12-.29.31-.53.4s-.73-.06-1.06,0-.45.58-.68.68S92,143,91.72,143s-.37.35-.75.44a39.76,39.76,0,0,0-4.67.93c-.32.12-.4-.22-.65-.14-.72.21-1.55,1.24-2.83.63-.71.83-2,.26-3.48.57,0-.46.67-.21.56-.77-.51,0-.61.42-.76.79-.42-.41-1.37-.1-2.08-.14-.47-.05-.2.72-.59.76-2.1.28-4-.26-5.8,0-.48,0-.82.4-1.27.42a24.91,24.91,0,0,1-3.92-.59c-.39,0-.89.17-1.27.08s-.56-.48-1-.62-.66.15-1.06.08A29,29,0,0,1,57.39,144c0-.75.8.08,1.46.07.4,0,1.51-.86,1.41.29.7.26.65-.76,1.34-.5a.67.67,0,0,0,.29.79c0-.55.85-.95,1.25,0,.35-.87-.7-.5-.42-1.3,1.37.05,1.92.19,3,.17.28-.93-.82-.51-.42-1.53,1.32.7,2.36-.67,3.31.58.42-.1.45-.35.25-.72.46-.3.7.68.78.06.46.09-.26.63-.25,1a5.52,5.52,0,0,1,3.77-.34c0-.24-.24-.19-.39-.25.71,0,2.5-.56,3.54,0,.7.11.44-.88,1.14-.78a1.42,1.42,0,0,0,1.2.43c.34.07.36-.22.36-.52.44.08,1.11.48,1.14-.33-.19-.54-1.09,0-1.57-.13,0-.64-.14-1-.64-.94-.15.05-.18.25-.37.26.14.25.46.23.43.71-2.41-.14-4.12-.09-5.8-.07a22.87,22.87,0,0,1-5.56-.47c-.2-.34,0-.39.07-.73a10.84,10.84,0,0,1-3.2-.42c-.22,0-.2.46-.46.42-.5-.22-1-.43-.74-1.36-.54.19-.61.1-.54.89-.16-.19-.09-.59-.47-.58.23-.85.94-.77,1.36-1.24.6.55.61.42,1.61.5.17.91-.65,0-.66.64a.59.59,0,1,0,1-.59c.7.35,1.13-.38,1.48.2,0,.53-.32.43-.61.42.19.67,1.18.27,1.16-.36a6,6,0,0,0,3.16.28c.52.16.76.64,1.27.8.21-.05.15-.48.4-.47,1.74.23,4-.26,5.43.24.24.81-.56.4-.92.52.71.83,1.38-.38,1.66-.8a14.63,14.63,0,0,0,6.4-.4c.21.44.59.09.3.7.64.18.4-.45.68-.6a11.2,11.2,0,0,0,4.53-.65c.67-.26,1.5-.6,2.15-.79s1,0,1.54-.18c.28-.1.55-.43.84-.51s.57.31.88.24a8.49,8.49,0,0,0,2-1.2c.16-.16,0-.48.19-.59.56.17.71.07,1.33-.24s1,.21,1-.65c.53-.27.84.36,1.42-.07-.15-.24-.4,0-.63,0-.19-1,.56-.5,1-.67,2.17-1,3.91-2.2,6.6-3.35a21.54,21.54,0,0,0,3.23-2c.28-.2.49,0,.77-.22.6-.48,1-1.56,1.87-1-.2-.56,1-1.8,1.55-1.76.11,0-.13.55-.31.54.22.38,1.12-.31.45-.66a1.44,1.44,0,0,0,1.51-.56c-.15-.18-.3,0-.45.05.24-.92,1.76-1.56,2.46-2.4a3.18,3.18,0,0,0,2.79-1.25c-.44-.27-.76.63-1.24-.17,1-.59.45-1.34,1.42-2.08a10.85,10.85,0,0,0,1.94-1.31c.19.21-.09.39-.21.58.77.14.87-.94,0-1,.25-.36.52-.49.88-.24.21-1.3,1.85-2.34,2.45-3.66.18,1,1.29-.05,1.09-.62-.79-.43-.07,1.17-.86.31a53.08,53.08,0,0,0,3.11-4.32c.3.25.45.07.72.23-.09-.29-.2-.58-.31-.87a15.05,15.05,0,0,0,1.31-2.11c.55-1.27,1.63-2.39,2.33-3.74.17-.32.15-.81.3-1.14a38.33,38.33,0,0,0,2.57-6c.16-.61,0-1.21.12-1.78.24-1.22.83-2.27,1.09-3.46.34-1.48.36-3,.6-4.35.06-.33.34-.34.39-.69s-.14-.56-.09-.8c.12-.48.77-.93,0-1.53.47-2.26.32-2.58.66-4.87.44,0,.49.28,1,.28-.06.51-.11,1-.18,1.52s.85.19,1.19.34c.18-.42-.41-.33-.41-.64,0-.49.41-.13.53-.34s-.19-.54-.18-.6C142,76.9,142.91,76.89,142.48,76.45ZM75.66,139.73c-.38.07-.79-1.08-1.14-.23C74.89,139.45,75.31,140.59,75.66,139.73Zm-8.27,3.37a6.59,6.59,0,0,0-1.34-.63c-.22.87.91,1.56,1.07,1.34C66.56,143.62,67.47,143.46,67.39,143.1Zm1.83,2.84c0-.66-1.31-1.05-1.61-.61A2,2,0,0,0,69.22,145.94Zm7-.6c-.48-.15-1.73-.6-1.85.27C75.09,145.2,75.65,146,76.24,145.34Zm4.58-5.67c-.31-.49-1.68.4-1.29.6C79.64,139.74,80.76,140.26,80.82,139.67Zm14,1.48a1.08,1.08,0,0,0-1.31.62C94,141.78,95,142,94.83,141.15Zm5.62-2.45c-.28-.52-.42.45-.4.68l1.72-.68C101.6,137.81,100.89,138.69,100.45,138.7ZM120,124.36c-.55.32-.42.76-.28,1.2C120.09,125.22,120.46,124.86,120,124.36Zm-.73-2.28c-.36.68-2.37.72-1.74,1.81.76-.25.3-.11.29-.56C117.76,122.37,120.28,123.33,119.26,122.08Zm2.73-3.24c-.57,0-.88.77-.3,1.32C122.37,119.79,122,119.29,122,118.84Zm.62.07c.35-.45.81,0,1.16-.5C123.33,117.68,122.36,118.42,122.61,118.91Zm9.92-2.83-.52.66C132.7,117.71,133.35,116.4,132.53,116.08Zm1.66-2.65c-.38,1.08-1.35-.17-1.77.77.65.45,1.06-.11,1.6-.12.8.25-.24.65.55.91C135,114.41,134.45,113.93,134.19,113.43Zm5.72-4.39.43-.75C139.61,107.68,139,108.71,139.91,109Zm-1.5-2.31c-.33.5-.46,1-.19,1.33.16-.18.4-.15.63-.12A.85.85,0,0,0,138.41,106.73Zm6.43-9.17c.61-.23,1.38-.16,1.83-.72-.69-.62-.92.33-1.22.49-.08,0-.36-.19-.46-.17a3.79,3.79,0,0,1-.38.32c-.27.19-.29.5-.53.71C144.68,98.66,144.66,97.9,144.84,97.56Zm.13,1.68-.41,1C145.13,100.84,145.8,99.2,145,99.24Zm-2.32,1.13c1.21.31.58-1,1.48-1-.55-.15,0-.67-.44-.86C143.08,99.12,143.35,99.63,142.65,100.37Zm1.31,2.46c.51-.37-.09-.73,0-1.19,0-.23,1.24-.75.21-1.09C143.67,100.79,143.07,102.47,144,102.83Zm-2,2.91c.12-.53.31-1.09-.39-1.4C141.5,104.87,141.3,105.42,142,105.74Zm-.26-22.26c-.47,0-1-.12-1.07.39a1.3,1.3,0,0,0,1.4.47C142.35,83.85,141.67,83.86,141.74,83.48Zm-1-2.92c-.09.21-.32.25-.55.31,0-.2,0-.5-.21-.23.48.49-.3.62-.22,1.32,1,.24.78-.59.67-1.06C140.84,81,141.15,80.74,140.76,80.56ZM55.41,137.89c-.9-.21-1.18.24-2.11.39a6.23,6.23,0,0,1-.84-1.81c.64-.72,1.55-.66,2.4-.78a1.53,1.53,0,0,1-1.54.55c-.24.59,0,.84.51.93.5-1.12,3-1.92,2.75,0-.45-.15-.44-.6-.91-.25.48,1.31,2.3.11,2.63,1.19l.22-.95c-.65-.35-.94.08-1.52-.13,0-1.45,2-.78,1.94,0a1.48,1.48,0,0,1,1.46.32c-.25.39-.76.26-.94.8-.34-.1,0-.81-.39-.84s-.23.7-.53.63c0,.34.42.31.69.41a1.54,1.54,0,0,1-1.95.8C56.64,139,56.1,138.05,55.41,137.89ZM54.76,141l-.57-.17c.62-.42-.17-.52.14-1.23C54.93,139.75,54.81,140.4,54.76,141Zm3.62-.59c.71.32.68.15,1.11.49C59.41,141.28,57.94,141.12,58.38,140.42Z"/><path class="cls-2" d="M134.21,47.94a64.08,64.08,0,0,1,2.84,8.49,63.78,63.78,0,0,0-7.23-17.71A64.95,64.95,0,0,0,101.21,13.1,65.34,65.34,0,0,0,82.46,7.75,66,66,0,0,0,44.81,14,67.74,67.74,0,0,0,17.36,38.91c-.86,1.28-2.08,3.23-3.17,5.27s-2.08,4.15-2.69,5.58A64.28,64.28,0,0,0,7.36,68.81,65.7,65.7,0,0,0,30.43,123a45.26,45.26,0,0,0,13.21,7.82,37.8,37.8,0,0,0,5.87,1.73,16.33,16.33,0,0,0,3.73.71c.78,0,.85-.23-.47-.88s-3.24-1.31-5.22-2.27a60.07,60.07,0,0,1-5.92-3.31c-3.71-2.36-6.43-4.82-6.22-5.07s2.35,1.68,4.79,3.25c.18-.28,2.25.51,4.62,1.33s5.06,1.71,6.35,2.23c.68.2,2.19.68,4.13,1.17A61.58,61.58,0,0,0,62,131.08a58.26,58.26,0,0,0,6.79.55c2,0,3.51,0,4.19-.1,2.08-.08,2.09-.33.76-.68s-3.9-.78-7-1.57A67.26,67.26,0,0,1,57,125.94a71.24,71.24,0,0,1-8.42-4.32c-2.18-1.37-2-1.59-1.38-1.46s1.89.5,2,.28a31.43,31.43,0,0,1-5.29-3.31c-1.5-1.14-2.94-2.32-4.88-3.9.07-.07-2.76-2.53-5.7-6.15a56.82,56.82,0,0,1-7.4-11.77s-.31-.54-1-2a45,45,0,0,1-2.55-7.31c-.59-2.41-.71-2.39-.89-2.36l.33-.06a22.86,22.86,0,0,1-.93-4.9c-.2-1.86-.25-3.73-.36-5h.34a35.58,35.58,0,0,1,.2-7.44c.31-2.47.81-4.9,1.35-7.32l.33.09a19.15,19.15,0,0,1,1.61-4.66l.32.12c.49-1.13,1.13-2.84,1.77-4.23a7,7,0,0,1,1.35-2.4l-.29-.15a49.27,49.27,0,0,1,7.63-10.71,51.15,51.15,0,0,1,8.57-7.35A56.83,56.83,0,0,1,57.47,23a54.67,54.67,0,0,1,32.87-.47,53.21,53.21,0,0,1,15,7.3c2,1.42,4.05,2.77,2.35.95a54.06,54.06,0,0,1,5.47,5,23.14,23.14,0,0,0,2.66,2.61,12.74,12.74,0,0,1,2.47,2.8A52.42,52.42,0,0,1,128.65,68.9a54.33,54.33,0,0,1-1,15A53.14,53.14,0,0,1,122.49,98,54.88,54.88,0,0,1,88,125.2,56.27,56.27,0,0,1,73.12,127a55.12,55.12,0,0,0,13.81-1.11,47.44,47.44,0,0,0,13-4.81c.08.14.25.47,2.47-.8a53.08,53.08,0,0,0,9.49-7,55.75,55.75,0,0,0,7.64-8.63,61.89,61.89,0,0,0,5.19-8.67c1.33-2.69,2.28-5.08,3-6.87.45-1.21,1-2.4,1.54-4.27a36.94,36.94,0,0,0,1.49-8.32,55.87,55.87,0,0,1-1.08,7.74l.49.11a57.75,57.75,0,0,0,1.25-17,57.09,57.09,0,0,0-3.85-16.71l.47-.19q-1-2.48-2.27-4.85c-.39-1.31.22-.7,1.36,1.25a46.78,46.78,0,0,1,3.93,9.33,56.61,56.61,0,0,1,2.35,13.52,61.43,61.43,0,0,1-.62,12.46l.66.11q.45-2.73.64-5.49l.33,0a59.48,59.48,0,0,1-6.18,22.63A60.26,60.26,0,0,1,113.86,118c1-.9,2.58-2.32,4-3.83s2.79-3.1,3.65-4.19c.12.1.29.24,1.95-2a60.56,60.56,0,0,1-12.69,12.88A66.56,66.56,0,0,1,95,129.65c-1.29.55-1.24.7.15.39a37.9,37.9,0,0,0,7.92-3,61.93,61.93,0,0,0,17.73-14l.25.22a62.44,62.44,0,0,1-7.19,6.92,79.71,79.71,0,0,1-8.13,5.77c-1.2.79.1.2,1.39-.45s2.56-1.36,1.4-.49c-2.43,1.58-4.95,3-7.5,4.36a62,62,0,0,0,12.25-7.64,70,70,0,0,0,10.26-10.15c1.94-2.15,3.67-4.5,4-4.32a73.81,73.81,0,0,0,8.27-17.86,83.83,83.83,0,0,0,3.18-15.18A46.57,46.57,0,0,0,138.42,63a61.26,61.26,0,0,0-1.72-7.94A65.38,65.38,0,0,0,134.21,47.94Z"/></g></g></svg>