<svg xmlns="http://www.w3.org/2000/svg" viewBox="0 0 133.71 145.78"><title>Asset 125mdpi</title><g id="Layer_2" data-name="Layer 2"><g id="Layer_1-2" data-name="Layer 1"><path d="M75.24,75.6s0,0,0,.06A.06.06,0,0,0,75.24,75.6Z"/><path d="M73,70.08Z"/><path d="M73,70.08h0Z"/><path d="M73,70.08Z"/><path d="M91.8,73.93l0,0h0Z"/><path d="M86.05,109.12l-.31,0Z"/><path d="M49.84,90.71s0,0,0,0S49.85,90.68,49.84,90.71Z"/><polygon points="72.94 69.49 72.94 69.53 72.94 69.51 72.94 69.49"/><path d="M80.38,64.41h0Z"/><path d="M44.64,80s0,0,0,.06,0,0,0-.07Z"/><path d="M17.55,63a25.59,25.59,0,0,0,1.06-4.38c-.45,1.65-.9,2.8-1.23,4.1C17.49,62.7,17.49,62.92,17.55,63Z"/><path d="M91.83,73.8a.21.21,0,0,1,0,.11S91.88,73.82,91.83,73.8Z"/><path d="M17.34,62.73c0,.05,0,.11,0,.17s0-.12.05-.18Z"/><path d="M133.25,61.23c.18,1.43.32.84.46,2.1-.12-1.15-.18-2.24-.23-3.29s-.08-2.1-.14-3a16.59,16.59,0,0,0-1.09-5.54c.11-.11.21.33.31.26-.18-1-.36-.88-.58-2.26.14,0,.06-.4.18-.4a13.47,13.47,0,0,0-.68-2.23c.41,1.42.4,2.08.24,2.37-.4-2.2-1-3.14-1.25-5.19.33,1.29.48.89.78,2.19.05-.36.37-.25,0-1.42-.11,0-.19.2-.34-.23.16,0,0-1-.41-2.24s-.91-2.74-1.27-3.62c-.36-.22.15.86-.1.81a11.6,11.6,0,0,0-.72-1.89c.42.57.31.38.48.13-.39-1-.37-.33-.72-1.14.24-.09-.64-1.67-.59-2-.85-1.21-.91-1.67-.67-1.57a19.94,19.94,0,0,0-1.59-2.17c-.18-.56.08,0,.21-.16a11.7,11.7,0,0,1-1.18-2.05c-.34-.39-.6-.58-.95-1-.23-.58-.74-1.16,0-.41a15.82,15.82,0,0,0-2.6-3.15A12.86,12.86,0,0,1,119,22.27c-.48.17-1.34-1.12-2.09-2.15-.41-.23.42.81-.18.19a11.48,11.48,0,0,0-2.05-2.18c-.07-.36.51.21.69.21-.6-.44-1.29-1.27-1.49-1.34a2.78,2.78,0,0,1,.6.85c-.56-.55-.77-.6-1.5-1.32l.12-.15c-1.16-.81-2.45-1.88-3.62-2.8a15.52,15.52,0,0,0-2.81-1.89c-.91-.55-.48-.54-1-.92-.06.08,0,.21.18.36a21,21,0,0,1-2-1.37c-.67-.49-1-.75-.24-.06A14.64,14.64,0,0,0,101,8.08c.67.39.6.54-.08.18.45.14.31-.07-.51-.49a11.37,11.37,0,0,1-1.55-.59c.87.24-1.33-.79-1.78-.92.23.12.6.28.58.34A21.55,21.55,0,0,1,95,5.4c.22,0,1.18.49,1.27.4a11.77,11.77,0,0,0-2.5-.9c-.36-.58-3.18-.86-3.39-1.42,2.46,1.07,4.32.93,5.63,2.06.17-.33,1.13.32,2.52.87-.27-.36.53.08.69,0-1.37-.73-.88-.36-1.25-.47s-1.12-.53-.85-.6a4,4,0,0,0,.94.36A6,6,0,0,1,95.93,4.6c-1.68-.53-2.76-1.22-6.36-2.25-.63-.07.39.33-.7.07C84.71.89,80.66.79,77.32.32c-.68.14.61.43-1,.31C75.5.47,75.73.36,76,.21c-3.06.05-5.06-.38-8.36-.13a5.8,5.8,0,0,1-1.48.34c-.61.09-1.33.15-2.07.23a16,16,0,0,0-3.94.73A13.48,13.48,0,0,1,64.21,1a20.86,20.86,0,0,1-2.75.54c-1,.14-1.81.19-1.63-.06-1.64.51-3.21.34-3.67.84a5.23,5.23,0,0,0-2.39.23,27.6,27.6,0,0,0-3.48,1.06c.28-.11-.47.07-1.23.32-2,.68-4.17,1.49-6.27,2.42A41.55,41.55,0,0,0,37,9.36c-.09-.07-.09-.21-.67.14.07.16.14.31-.64.74-.25,0,.66-.62-.38,0a3.3,3.3,0,0,1-1.32.86c-.54.43.43-.08-.15.32a4.69,4.69,0,0,1-1.14.56c0-.1.64-.47.41-.49-.89.73-1.16.83-2.25,1.7.09.21.88-.6,1.21-.49-2.57,2.17-5.41,4.5-8.14,7a71.53,71.53,0,0,0-7.53,7.93c-.36.15,1.15-1.53.44-.83a36.81,36.81,0,0,1-3.58,4.66,6.06,6.06,0,0,0-.79,1.69c-.78.81-2.09,3.74-3.07,4.64.13.25-.77,1.31-.87,2-.24-.07-.44.42-.49.79-.42,0-.86,1.47-1.28,1.81a6.18,6.18,0,0,1-1,2.27c-.18.66.31-.3.06.35-.76,1.34-1.25,3.54-2,4.23A14.3,14.3,0,0,1,3.15,52a19.78,19.78,0,0,1-1.07,2.78,4.34,4.34,0,0,1-.23,1.94,5.86,5.86,0,0,1-.53,1.7l-.23,3.69C1,62,1,61.67.93,61.51a55,55,0,0,0-.84,8.06C0,72.29,0,75.17.06,78.7c.11,0,.18.21.23.58a14.94,14.94,0,0,0,.33,4.11c.24,1.41.45,2.58.07,2.69.24,1.48.24.08.51,1.09.5,3.35,1.29,5.66,1.49,7.54.65,1.73.82,2.58,1.66,4.72-.11.14-.32-.79-.45-.77.9,2.69,1.57,4,2.07,6.17.23-.23.79,1.35,1.09,1.43A13.18,13.18,0,0,1,5.8,102c.55,1.14.42,1.8.77,2.22C5.94,101.37,4.93,100,4,96.74c.08,0,.18.08.27.21a26.64,26.64,0,0,0-1-3.34c-.48-2.76-1.16-5.74-1.65-8.73a39.19,39.19,0,0,1-.66-8.74,36.66,36.66,0,0,1-.16-7.89,7.32,7.32,0,0,1,.07,2,5.39,5.39,0,0,0,.13,2c0-.74,0-2.63.18-4.22a11,11,0,0,1,.38-2.42c-.12,0-.22-.08-.16-.63.06-.83.21-.6.29-1.2A9.92,9.92,0,0,1,2,60.52c.3-1.52.73-3.16,1-4-.07.23-.14.33-.2.28.25-.53.41-2.57,1-3.54-.22.66-.31,1.1-.22,1.2.58-1.15,0-1.06.51-2.39.18,0-.19.86-.08.92a46.22,46.22,0,0,1,1.56-4.57c.63-1.64,1.32-3.22,1.74-4.28-.05-.42-.46.88-.5.47.21-.4.59-1.47.7-1.37s-.11.49-.08.62A67.85,67.85,0,0,1,15,31.07,12.07,12.07,0,0,0,16.71,29a32.74,32.74,0,0,1,2.12-2.63C20.33,24.77,22.72,22.1,25,20A98,98,0,0,1,36.34,11.7c.08.07.09.21.64-.14,0-.11-.22-.15.13-.37A10.17,10.17,0,0,1,40,10.09,6.8,6.8,0,0,1,41,9.26c-.5.22-1.28.84-1.65.82a6.17,6.17,0,0,1,1.31-.8c1.34-.18.56-.12,2.36-.81a1.71,1.71,0,0,0-.78.5c1.18-.78,3.32-1.29,4.5-2-1.54.48-2,.73-3.22,1.1,1.45-.67,1.81-.77,3.08-1.4.32,0-.77.53.11.24,1.24-.77,3.77-.88,5.58-1.72-.58.22-1.66.39-.93.14a12.08,12.08,0,0,1,1.52-.31c1-.75,3.29-.9,4.69-1.41a1.82,1.82,0,0,1,1,.08,16.33,16.33,0,0,1,3.87-.9c.19.17-1.38.24-1.47.41,3-.5,4-.79,5.4-1,.71-.08.37.16,1,.13-.57-.26,1.87-.48,3.51-.53-.1.23,0,.34-.3.4a6.4,6.4,0,0,0-1.92.12c.93.08-.92.28-.91.44-.67,0-.69-.06-.35-.17-1.17.15-2.39.26-3.66.4A32.79,32.79,0,0,0,60,3.58c0-.08.5-.23,0-.19.52.14-1,.22-.86.35.89,0-.62.4-1.11.55.31-.16.28-.22-.35-.13-.57.52-2.26.45-2.92.87-.71.08.52-.35-.65,0l.09.25c-.53.15-1.56.45-2.55.76s-2,.64-2.38.78c-.74.22.92,0-.47.44,0-.17-.74.13-1.58.46s-1.73.68-2,.53c-2.5,1.28-3.68,1.51-5.69,2.85a5.29,5.29,0,0,0-1.9.95c.4-.28,1.22-.52.59-.18a46.11,46.11,0,0,0-6.46,3.77c-2.19,1.5-4.28,3.16-6.12,4.66a1.31,1.31,0,0,1,.55-.3l-.91.79c-.08-.06,0-.2.09-.34-.68.8-2.13,1.59-2.56,2.17.68-.55-.3.39-.44.42,0,.27.07.14-.45.82.33-.32.78-.81.92-.81-1.67,2-4.44,4.54-6.16,6.67-.49.81.82-.66.27.19-.78.6-1.16,2-1.65,2.15,0-.3,1.8-2.53.77-1.66A16.09,16.09,0,0,1,13.87,34c.35.06-.12.88-.7,1.86a17.73,17.73,0,0,0-1.46,2.76,12.5,12.5,0,0,0-2,3.35A13.41,13.41,0,0,1,12.58,38c-.17.3-.44.72-.4.79,1-1.38.28-1,1.22-2.37-.2-.15-1,1.43-1.23,1.37a35.93,35.93,0,0,1,3.53-5.19c-.62.75-.06.45-.53,1.07a5.8,5.8,0,0,0-1.07,1.44c.05.52-1.54,3.44-2.71,4.94A8.76,8.76,0,0,1,10,42.69c.42-.7.11.31,0,.63-.28-.15-1.49,2.65-.57,1.36-.51,1.1-.76,1.27-.86,1.25A18,18,0,0,0,8,48.53c-.14-.08,0-.58-.36.2-.17.7.06.21,0,.61-.09.22-.17.31-.23.24C7.4,50.71,5.94,52.89,6,53.5c.11-.34.23-.67.3-.54A15.92,15.92,0,0,1,5.14,56c.17.49-.37,1-.57,2a8.59,8.59,0,0,1-.23,2.81c-.22,1.23-.46,2.36-.6,2.15a8,8,0,0,1-.27,2.93c.29.39.32-2,.57-2.31,0,.84-.44,3.18-.36,4.09-.24.72-.41,1.25-.61,1.16a6.52,6.52,0,0,0,.24,1.47,2.61,2.61,0,0,1,.11-.88c.16,1.06,0,3.32-.39,3.24.08-.72-.27-1-.25-.58.26.41.2,2.35.46,2.92.07-1.32-.21-.89-.14-2,.21-.38.26.28.4-.61a23.38,23.38,0,0,0,.09,3.8c-.13,0-.1-.79-.28-.56,0,1.09.24.55.31,1.14a5.35,5.35,0,0,1-.18,1.49,31.82,31.82,0,0,1,.5,3.32c.13,1.12.24,2.37.51,4,.34.33-.25-1.67,0-1.72a94.71,94.71,0,0,0,2.39,9.23c-.1,0-.22-.41-.32-.48.69,1.56.72,2.84,1.13,3.17a53.3,53.3,0,0,0,2.64,8.17c1.21,3,2.6,5.87,3.32,7.6,1,1.9,2.79,4.07,3.22,5.62.8.78,2.13,3.2,2.86,3.82-.24-.36.06-.11.27.14a28.76,28.76,0,0,0,3.5,4.39c1.2,1.27,2.48,2.57,4.2,4.47.1-.34-2.53-2.52-1.84-2.52-1.81-2.09-2.17-2.86-3.75-4.85.21.25.47.63.56.61-.13-.18-.34-.43-.3-.48a6.07,6.07,0,0,0,1.72,1.8,28.65,28.65,0,0,1-3.78-5.11,8.83,8.83,0,0,1,1.43,1.77A11.35,11.35,0,0,0,23,122.84c-1-1.42-1.77-2.74-2.87-4.4.67.6-.45-.69-.11-.62.82.9,1.1,1.54,1.64,2.19-.21-.25-.41-.88,0-.35a9.76,9.76,0,0,0,1.14,1.53c0,.1-.82-.75-.36,0a11.48,11.48,0,0,1,2.49,2.9c.13,0-.09-.34,0-.39A8,8,0,0,0,26,124.85l-.14.14a14.52,14.52,0,0,0,2.51,2.09c.56.72,2.79,3.1,3.3,3.2-1-1-2.57-2.19-2.93-3.2a100.07,100.07,0,0,1-6.58-7.87c-.93-1.15-2-3-2.68-4.06s-1.91-2.68-2-3.54c.29.79,1,1.52,1.32,2.36.39.45-.05-.38.3.12a63.09,63.09,0,0,0,13.27,15.78A96.86,96.86,0,0,0,50.2,142c.07-.3,1,.08,2,.59s2.25,1.17,2.83,1.5c.75-.07,2.19.95,2.54.77-.56-.37-2.33-.95-2.36-1.26.18-.05-.16-.49.38-.26,3,1.13,4.55,2.24,6.1,2.45-1.58-.52-2.67-1.42-5-2.36.34.14.51-.36.1-.31.11.54-1.14-.39-1.79-.41-.82-.38-1-.65-1-.9.8.07,2.75,1,3.72,1.11,0-.27-.72-.7-1.58-.94-1.71-1-4.1-2.13-6.5-3.37a48,48,0,0,1-6.51-3.93c-.42-.29-.18-.33-.77-.7-1-.63-2.21-1.44-3.4-2.35a15.19,15.19,0,0,1-3-2.83,30.23,30.23,0,0,1-3.35-3.19c-.18.07-.6-.26-1.21-1,.38.21,0-.08.18-.19a9.8,9.8,0,0,0,1.34,1.19c-.17-.3-.94-1-.54-.92a37.13,37.13,0,0,0,3,2.42c-.34-.35-.22-.45-.84-1-1-.46-2.89-2.42-3.61-2.47-.36-.47-.4-.94,0-.7-1.08-1.68-3.21-3.74-4.21-5.48.18-.16.75.6,1.07.75-1.09-1.47.3.1.4,0a35.75,35.75,0,0,1-3.47-4.33,98,98,0,0,1-8.46-18,64.82,64.82,0,0,1-3.58-19.09,54.53,54.53,0,0,1,.05-9.9,15.09,15.09,0,0,1,.1-3,13.66,13.66,0,0,1,.59-2.84,17.63,17.63,0,0,1,.5-2.75c.22-.88.48-1.79.67-2.44,0-.09.08-.27.17-.56-.05.15-.1.34-.17.56-.1.4.31-.65.44-.76-.65,2-1.11,3.5-.88,4a4,4,0,0,1-.32.73c0-.2.12-.49.06-.51-.48,1.62.5-.27.22,1.07-.39.13-.32,1.75-.72,1.44.13-.8.37-1,.21-1.26a34.74,34.74,0,0,0-.85,5.56c.34-.85.3-2.65.61-3.79.14-.25.29-.21.42-.46.43-1.28.51-2.53,1-3.16A17.15,17.15,0,0,1,14,61.66a9.25,9.25,0,0,0-.56,2c0-.13.1-.28.07,0A30.18,30.18,0,0,0,13,67.48c-.17.56-.72,2.29-.2,2.27a5.22,5.22,0,0,1,.42-2.51c.37-2.14.08-3.43.59-4.76a5.34,5.34,0,0,0-.06,2.28c.21-1.07-.14-.84.15-2,.08.07,0,.42.1.52.07-1.18.45-3.33.86-3.69A50.28,50.28,0,0,0,14.08,65c-.09,0-.26,0-.17.23H14c.62-2.18.29-3.23,1.07-4.64-.29,1.09-.27,2.11-.6,2.94.27.46,0,2.88-.25,4.21a31.33,31.33,0,0,0,.68-4.67,28.66,28.66,0,0,1,.59-4.43c.28-.16-.21,1.74.26.81a22.5,22.5,0,0,1,1.64-5.44c.77-1.83,1.67-3.56,2.32-5-1,2.75-1.84,5.17-2.69,7.41-.25.73.37-.55.11.29a20.64,20.64,0,0,0-1.16,4,46.61,46.61,0,0,0-.7,4.88c-.08-.1-.07-.29-.2,0,.25,1.51-.38,4.26-.26,5.86,0-.19,0-.48.08-.49a40.3,40.3,0,0,0-.06,6,35,35,0,0,0,.89,5.84l-.26,0c.39,1.84.94,4.11,1.56,6.43l1.86,6.76c.12-.09.25.11.42.61a61.09,61.09,0,0,0,7.49,14.67,87.53,87.53,0,0,0,9.84,11.77c-.1-.12-.14-.21-.05-.22a47.09,47.09,0,0,0,9.56,8.11c.38.37.47.66.81,1,.14-.25-.22-.33-.17-.66a22.72,22.72,0,0,0,5.51,3.48l-.08.18a22.49,22.49,0,0,1,4.26,2c-.1-.09-.07-.15,0-.21,1.16.47,2.14.84,2.17,1.09a4.51,4.51,0,0,1,1.72.91c.89.28.08-.31.58-.2a61,61,0,0,0,15,4.06,66.58,66.58,0,0,0,16.22.27,78.09,78.09,0,0,1-24.81-2.18c.08-.16-1.53-.35-1.11-.51a42.64,42.64,0,0,1-7.2-2.58c-2.43-1.08-4.76-2.28-6.77-3.2,0-.09.12-.15-.12-.29.06.32-.56,0-1-.18-.31-.5-1.95-1.13-2.74-2-.43.08-2.72-1.8-3.14-2.2-.25-.07-.32.07-.73-.2,0-.29-1-.68-1.24-1.18a11.23,11.23,0,0,1-2.55-1.79c.08-.44-1.14-1.22-2-2-.45-.29.12.33-.3,0A67.29,67.29,0,0,1,26.62,110c.11.15.26.4.31.36-.36-.65-.39-.28-.74-.94.15-.08-.1-.41.21-.15A19.94,19.94,0,0,1,24.54,106c-.3-.14,0,.41,0,.55-.25-.52-.36-.39-.63-1,.11-.06.38.53.45.29-.44-1-.56-.6-1-1.64.33,0-.48-1.11-.61-1.85-.41-.31-.46-.4-.55-.25a2.94,2.94,0,0,0-.65-1.29l.18-.08c-.25-.4-1.2-2.07-1-2.44a28.77,28.77,0,0,1,1.3,3.1c.21-.17-.29-1.23-.79-2.4a7.73,7.73,0,0,1-.9-2.88c.93,2.48,1.83,4.63,2.82,6.76a65.13,65.13,0,0,0,3.52,6.58c.14,0-.05-.39.16-.11s.81,1.14.71,1.25c-.28-.14-.4-.93-.62-.73a34.25,34.25,0,0,0,2.31,3.33c-.27-.39-.73-1.37-.15-.79a38.58,38.58,0,0,0,4,5.41c1.48,1.73,3,3.31,4.37,4.63A72.52,72.52,0,0,0,50.65,132.9l-.06.11c2.06.86,3.6,2.17,5.35,2.62.57.34,1.14.67,1.18.91.39.14,1.25.64,1.33.52-1-.39-1.45-.73-1.41-1l2.86,1.24L63,138.6c2.16.52,5.41,1.66,7.36,1.85-1.29-.47-4.44-.9-4.48-1.6,1.39.58,2.59.45,4.1,1,0-.23.5-.1,1.4.19a9.17,9.17,0,0,1,3,.33,16.14,16.14,0,0,0,3.56.42,12.24,12.24,0,0,0,2.08.53c.15-.19-.84-.16-.22-.28-.41-.07-1.38-.05-1.4-.2a64.73,64.73,0,0,0,6.78.21c2.08,0,4.08-.16,6.26-.36-.11-.6,2.51-.34,3.23-.58-1.09-.17,1.92-.29,2.78-.44a39.83,39.83,0,0,0,5.44-1.34c-1.11-.08-2.27.6-3.68.65,0-.16.17-.31.62-.44.2.08,1.53-.28,1.31-.45a12.14,12.14,0,0,1-3,.4,14.06,14.06,0,0,1,4.49-1.05,44.68,44.68,0,0,1,4.4-1.35c-.49-.23,1.61-.7,3-1.17,1-.62-.1-.42,1.55-1.06-.6.07-1,.4-1.32.37a3.46,3.46,0,0,1,2.14-1.35c0,.11-.31.23-.35.33a10,10,0,0,0,2.41-1.24c1-.22.75-.33,1.43-.64,1.09-.51,2.87-1.05,3.21-1.62-.81.22-1.73.89-2.16.68.7-.5,1.43-.44,1.4-.69-.66.11-2.56,1.21-2.78.92l1.24-.52c-.07-.19-1.15.28-.58-.18-.29.16-1.09.37-1,.48.44-.19.67-.22.7-.07-.53.23-1.66.63-2.51.93a23,23,0,0,1,3.06-1.6l3.32-1.51a1.21,1.21,0,0,1,.44-.57c-.93.44-1.85.87-.73.5a2.33,2.33,0,0,1-1.32.33c1.29-.95,1.15-.45,2.38-1.14-.73.31-1.06.34-.56-.09-1.79.76-4.2,1.69-5.45,2.29a8,8,0,0,0-2.47.73c-1,.38-2,.67-2.27.39-.84.26-.18.46-1.12.71-.7.12-1.25.13-2,.26a3.26,3.26,0,0,1-2.14.45c.28-.07.16-.16.38-.23a12.12,12.12,0,0,0,3.75-1.1c-1.5.48-3.48.87-4.8,1.36.25-.05.59-.16.65-.09-.62.14-.6.31-1.23.44-.17-.11.54-.34-.26-.14a2.91,2.91,0,0,1-.79.38,33.42,33.42,0,0,0-5,.83,23.06,23.06,0,0,0-3.86.29c-1.33.15-2.48.2-2.71-.22a14.31,14.31,0,0,1-5,.06c-.39,0-.13.22-.61.19-1.67-.41-4.23,0-6.24-.39.15-.24,2.07.27,1.46-.11-3,0-5.29-1-7.53-1.44.1-.13.9.12.85-.09-.63-.11-2-.54-2.8-.65,0-.11-.26-.2-.14-.31a17.94,17.94,0,0,1-4.24-1.56c-.31,0,.43.4-.07.25l-1.16-.42c.28,0,.33-.14-.11-.32-1.68-.5-3.59-1.51-5.15-2,.65,0-.45-.28-.52-.33l0-.12c-1.33-.82-3.42-1.87-5.27-3a18,18,0,0,1-3.92-2.76c.2.34-1-.2-1.41-.84,0-.23.4.15.47,0a57.06,57.06,0,0,1-11.26-11.5c.09.13.24.32.2.37-1.55-2.23-2-3.29-3.33-5.16-.49-.89-1.2-2.17-1.82-3.36s-1.15-2.3-1.36-2.8c0,.18.37,1.12.08.65-.54-2.18-1.28-3.9-2.26-6.79.2-.33-.42-2.41-.71-2.33A2.25,2.25,0,0,0,29.31,90c0,.28.32,1,0,.87-.34-1-1.24-4.11-.57-2.6a16.78,16.78,0,0,1-.82-3.5c-.13-1-.23-1.92-.53-3.29.27-.3.15-1.37,0-2.35s-.23-1.85,0-1.75a4.56,4.56,0,0,1,0-2.51c.11.82.16,1.51.21,2.13a12.12,12.12,0,0,0,.25,1.74,2.91,2.91,0,0,1,0-1.42,4.64,4.64,0,0,1-.13-2.47c-.29.05-.06-.77,0-.95-.21-.22,0,.62-.26.39a12.52,12.52,0,0,1,.33-4,1.69,1.69,0,0,0,.07.76c0-1.06.45-2.21.09-2.45-.09.38-.05,1.24-.2,1.31a9.42,9.42,0,0,1,.52-3.18c0,.24-.21,1.35,0,.75a9.16,9.16,0,0,0,.15-1.69c.82-1.8,1-3.15,1.7-5-.16-.31.25-1.37.53-2.19.09,0,.17,0,.25-.12s-.2.7.06.61a12.68,12.68,0,0,1,1.51-3.21c0-.48.93-2.57,1.44-2.61a26.87,26.87,0,0,1-1.39,2.83,9.85,9.85,0,0,1-.69,1.82c-.34.82-.6,1.61-.37,1.52a1.07,1.07,0,0,0-.43.64c0,.28-.07.85,0,1.33-.43-.2-.09,1.11-.54,1.19-.21.56.07.4,0,.75a11.27,11.27,0,0,0-.55,1.2c-.2,2.09-.54,4.27-.75,6.48a30.51,30.51,0,0,0,0,6.55A8.46,8.46,0,0,1,29.22,75c0,.32-.15.94,0,1.11A5.07,5.07,0,0,1,29.35,75c.14,1-.16,1.67,0,2,0-1.06.25,0,.26,0,.08-.36-.13-.9.11-1.47-.12,0-.13.21-.25.2,0-.37.16-.37.17-.74a12.71,12.71,0,0,1-.21-4.56c.16-1.67.47-3.38.59-4.87.36-.1.32-.75.15-.71a2.7,2.7,0,0,1,.67-1.17c-.27-.83.82-2.84.89-3.89a8.75,8.75,0,0,0,1-2.21,17.25,17.25,0,0,1,.91-2.33c-.08.12-.14.17-.2.11A3.19,3.19,0,0,1,34.1,54c-.05.45-.24.26-.47.79,1-1,1.69-3,2.88-4.47a5.73,5.73,0,0,1,.45-1,9.05,9.05,0,0,0,1.41-1.7c-.06-.22,0-.55.6-1.16a7.8,7.8,0,0,0-2.55,3c.16-.67-.47.15-.18-.55a6.08,6.08,0,0,0,1.38-1.55c.46-.61.94-1.23,1.25-1.57-.2.21-.4.4-.48.29.36-.44.91-1.34,1.35-1.56-.66.67-.3.69-.87,1a4.05,4.05,0,0,0,1.34-.82c-.06-.24-.48.42-.5.06.13-.14.11-.2.21-.32.3-.07,1.46-1.43,1.27-.86.85-1.05,2.4-2.36,3.07-2.42a21.76,21.76,0,0,1,4.93-3.85c.08.06.08.23.3.11,0-.2.46-.47.65-.69.17.16.42-.26.55-.17-.22.14-.11.23-.22.35a3.14,3.14,0,0,1,.83-.4c0-.24-.59.24-.49-.1a6.47,6.47,0,0,0,.74-.55c.74-.13,1.54-1,2.85-1.34,0,.1-.19.22-.06.31.61-.3.47-.53,1-.81,0,.1-.23.22-.25.32.64-.81,2.91-1.09,3.46-1.24-.19.05-.46,0-.22-.06a54.17,54.17,0,0,1,8.1-1.87c0,.07-.25.14,0,.13l1.69-.32.58-.1.57-.09c.38,0,.77-.1,1.15-.13,1.49-.13,2.7,0,2.14.33.14,0,.34,0,.34.08-.2,0-.48,0-.51.05a19.68,19.68,0,0,0,2.2,0,2.67,2.67,0,0,0,.48.32c1.3-.3,2,.56,3.29.65,0,.18-.64-.09-.53.15a8,8,0,0,1,3.19.6c1.17.41,2.38,1,3.51,1.4,0,.18-.83-.45-.68-.1A17.34,17.34,0,0,1,87,35.61c1.13.68,2.25,1.45,3.18,2-.52-.15.44.45.38.62-1.41-.54-2.47-1.78-4.34-2.43,0,.13-.32.21,0,.37.76-.29,2.33,1.11,3.53,1.77,0,.12.39.36.12.41a11.75,11.75,0,0,1,4.26,3.87c.54.16,1,1.24,1.68,1.82-.3-.23-.45,0-.81-.4,0-.26.53.21.1-.3-.48.13-1.64-1.67-2.1-1.85.29.31-.23-.08-.18.19.62.37.9,1,1.46,1.29.1.41.78,1.59.62.75C94.94,44.45,96,45.3,96,46a16.88,16.88,0,0,0-2.45-2.74,8.08,8.08,0,0,0,1.12,1.55c-.07.07-.16,0-.25,0A13.16,13.16,0,0,1,97,49.61c.08,0,.15-.12.24,0,.23,1,1,2.66,1.39,3.63-.06-.18-.1-.35,0-.34.23.64.53,1.4.29,1.55.13.33.32,0,.42.52s-.2.78-.2,1.34c.07-.27.29.22.39.71s.11,1-.18.67c.13,1,.38,1.45.11,2.17l.22.39a2.32,2.32,0,0,1,.18.46c.62-.15.71.14,1.18,0a6.3,6.3,0,0,1-.2-1,.91.91,0,0,1,.23-.72,3.41,3.41,0,0,1-.27-1.76c-.6-1-.39-2.6-1-4.24.33,0-.1-.54,0-.89l.65,1.51c-.27-.16-.23.1-.28.43a1.63,1.63,0,0,1,.34,1.25c.32.12,0-.69,0-.86.27.58.49,1.32.73,1.85-.29.4,0,1.57.2,2.32-.1.35-.13.35-.32,0a7,7,0,0,1,.28,1.16c0,.19.06.41.08.59a4.84,4.84,0,0,1,0,.53,5.74,5.74,0,0,1-.21,1.79c.48.4-.24,1.52-.15,2a.72.72,0,0,1,.24-.41c-.09.43.07.42,0,.85-.24-.06-.31.5-.46.8.1.16.29-.38.26,0a12.8,12.8,0,0,0-.55,2.51c-.25.06-.38-.1-.65.69a.26.26,0,0,1,.2.22.05.05,0,0,1,0,0,2.63,2.63,0,0,0-.45,1.26h0a.75.75,0,0,0,0,.15c-.14.17-.28.49-.42.29.14-.24.28,0,.42-.44h0c-.34,0,0-.62.08-1-.36.86-1.24,1-1,1.57a16.32,16.32,0,0,1-2.49,2.86c-.05-.08,0-.24,0-.33-.52.5-.42,1.11-.79.93a4,4,0,0,0,.93-1.48.79.79,0,0,1-.41.37c.46-.4-.13-.23.55-1.06-.27,0,0-.42-.13-.53-.25.21-.53.68-.78.73A3.72,3.72,0,0,1,97,70.89c-.06.18-.39.54-.25.59.31-.64,0,.5.3-.14A4.24,4.24,0,0,1,97.3,70c.14.34.08-.59.49-.62,0-.22-.11-.31-.06-.56a4.89,4.89,0,0,0,.94-1.75,19.93,19.93,0,0,0,.52-1.93c-.1.18-.15.56-.34.47,0-.13,0-.16,0-.26.36-.34.14-1.22.51-1.35,0-.66,0-.64.14-1-.14-.12-.3.06-.24-.65.13,0,.12.35.25.39a14.6,14.6,0,0,0-.09-1.9c0-.32-.06-.74-.07-1.06A3.08,3.08,0,0,1,99.4,59a8.12,8.12,0,0,1-.93-3.36,5.36,5.36,0,0,0-1-3c.08,0,0-.27,0-.33.11.38.22.5.35.34a13.69,13.69,0,0,1-.58-1.73c-.23.36.27,1.41.16,1.91a10.77,10.77,0,0,1-.69-1.49,7.26,7.26,0,0,0,.55,1.87.3.3,0,0,1,.28.2c.06.2,0,.43,0,.64.26.94.93,2.27.65,2.89-.07-.52-.23-.73-.39-.81a16.13,16.13,0,0,1,.64,3.21c0,.25,0,.52.06.79l.05.79c0,.48,0,1,0,1.59-.06,0-.07-.1-.13-.12.14.81-.17,1.66,0,2.58-.09,0-.08-.22-.16-.27,0,.51,0,.93,0,1.36-.1-.28-.3.36-.49.4.14,0,.18.14.09.4s-.11-.19-.22.06c-.08.62-.28,1.3-.31,1.82-.12,0,0-.66-.23-.34A3.32,3.32,0,0,1,96.49,70c-.38.59-.84,1.12-1,1.41.25-.27,0,.42-.2.44.05.22.43-.3.28,0-.3,0-.6.77-.78.8s.21-.36.05-.4a15.09,15.09,0,0,0-1.29,1.13,18.88,18.88,0,0,1,1.3-1.84,5.31,5.31,0,0,0,1-2.33c-.18,0-.16.48-.24.65-.42-.12-.22.34-.5.52-.32-.49.61-1.07.64-1.59-.06.13-.12.24-.21.16s0-.14,0-.23c.33-.62,1-1.74.63-1.91.18-.51.72-.83.67-1.34-.23.55-.52,1-.89,1.16-.08,0,.16-.76,0-.45a4.56,4.56,0,0,1-.39,1.82c.13,0,.18-.51.34-.35-.13.31-.24.84-.44.79,0-.34-.39,0-.27.13.17-.26.18.17.15.3-.1,0-.17.22-.25.38a.26.26,0,0,0-.28,0,3.2,3.2,0,0,0-.24.75,11.18,11.18,0,0,0-1.31,2,6,6,0,0,1-1.46,1.85c-.08.33-.6.59-.46.7-.13,0-.67.36-.64.47s.41-.35.52-.27,0,.16-.09.25c-.34.06-.32.16-.53.43l-.39.06a9.51,9.51,0,0,1-1.33,1.06.24.24,0,0,1,0-.22,1,1,0,0,1-.71.34,2.09,2.09,0,0,0,.5-.67c-.35.34-1.07.65-1.09,1,.2-.06.32-.38.49-.26a5.2,5.2,0,0,0-.67.64c0-.11-.18-.09-.37,0,.16-.25-.27-.27-.49-.28,0,.25.32.14.39.33-.5.16-.06.14-.26.26-.52.24-.68,0-1.14.15,0-.23.46-.4.58-.63-.59.18-.54.47-1.05.65,0-.16.13-.26-.18-.22-.54.6-2,.79-2.87.93.17.15.32-.15.46,0,0,.1-.23.11-.32.18-.09-.16-.46-.09-.39-.35l-.24.09-.21,0a1.5,1.5,0,0,1-.37,0,5.47,5.47,0,0,0-.8,0c-.07-.1-.16-.5-.37-.29.09,0,.17,0,.14.14a3.28,3.28,0,0,1-1.08-.07c0-.46-.57-.55-.78-.87-.18,0,0,.18-.13.17-.61-.54-1-.68-1.79-1.32.46.15-.33-.31,0-.3a1.62,1.62,0,0,1-.89-.46c0,.08-.15.22-.2.14s.14-.2-.14-.29c.19-.15.23-.29.11-.44s-.18.18-.28.1c-.08-.23-.15-.24-.2-.4a.34.34,0,0,0,.28,0c-.19-.14,0-.18.1-.19a.94.94,0,0,1-.16-.56c-.25.2-.26.45-.55.46.12.19-.1.35-.16.52a4.19,4.19,0,0,1-.91-1.52A3.23,3.23,0,0,1,73,71.84a.43.43,0,0,0,.53-.25c-.64,0-.73-.42-.69-.91,0-.25.08-.52.1-.77v-.08h0a2.4,2.4,0,0,0,0,.25h0l0-.33v-.11c0,.12,0,0,0,0l-.08-.06a5.28,5.28,0,0,0-.79,0c.06-.23-.27-.3-.5-.45s0-.3,0-.54c.08,0,.15,0,.15,0s-.14,0-.33-.07c0-.25-.51-.56-.26-.77a1,1,0,0,1-.62-.36c.08,0,.13-.09.07-.14s-.08,0,0-.12c0,.14.55,0,.33-.17-.21.08-.47.33-.7,0-.07.2-.18.24-.33.22a1.2,1.2,0,0,1-.13-.33,1.77,1.77,0,0,0-.4.08c-.08-.34.18-1.14.76-1.13.09-.25-.12-.87.38-.73a.61.61,0,0,0,0,.51c.16-.18.12-.72.5-.6A4.3,4.3,0,0,1,70,66.94c.5-.19.7-1,1-1.59a1.73,1.73,0,0,0,.85-.81c.14,0,.25.1.39.08s.44-.41.72-.58.54-.18.61.2c.22.05,0-.23.13-.23a.27.27,0,0,1,.24.28,4.76,4.76,0,0,0-1,1.91c.18.09.35.09.5.39.34-.15.45-.6.73-1a2.27,2.27,0,0,1,.22-.32,1.85,1.85,0,0,1,.14-.14l0,0h0c.21,0-.29,0-.23,0h0l.19,0c.1,0,.34-.06.19-.06s-.14,0-.17,0v-.12l0,0a6.51,6.51,0,0,1,.12-.73,2.45,2.45,0,0,0,.11-.7s.07,0,.1,0a2.4,2.4,0,0,1,.32-1.2c0-.11-.1-.06-.09-.15s.16-.24.25-.35-.17,0-.16-.16A5,5,0,0,0,75,59.52a6,6,0,0,0-.38-.88c-.07-.16-.18-.32-.25-.49l0-.26-.07-.07-.1-.06L74,57.63h0l-.09,0-.18,0-.34-.11-.62-.25a3.9,3.9,0,0,0-1.4-.32c.26-.35-.83-.34-.54-.73-.31.12-.53.16-.61.07.33-.1.53-.19.53-.31-.68.27-.38-.2-.4-.22-.58-.36-2-.23-2.55-.57a5.9,5.9,0,0,1,2.51-.82,10.43,10.43,0,0,0,2.36-.43c.32,0,.71,0,1,.1h.06l.17,0c.1,0,.24,0,.25.06a.4.4,0,0,1,.14.22l-.28,0-.25,0h0l-.07,0c-.17,0-.27.13-.26.23l.21,0h.14l.32,0h.1l.06,0a1.44,1.44,0,0,0,.33.08l.38.08c.52.1,1.07.23,1.69.38,0,.31.46.5,1,.72a6.54,6.54,0,0,1,1.44.78c-.06.11-.33-.07-.33.13A5.84,5.84,0,0,1,80.46,58a6.72,6.72,0,0,1,1.26,1.68c-.16.42.13,1.1.28,1.77s.17,1.29-.19,1.43c.06.46.1,1-.14,1.21-.34-.09-.57-.36-1-.19a1.06,1.06,0,0,0-.25.61v0h0c0-.08,0,.15,0-.16h0v.36c0-.05,0-.12-.06-.07a.28.28,0,0,1-.14.12c.24,0,.43.26.22.35s-.13-.12-.24-.17a4.06,4.06,0,0,1-1.1-.09s.07.13-.21,0c0,0,.19,0,0,0l-.25-.06c.4.18,0,0,0,0s.28.16.44.29c0,.1-.32,0-.5-.17s-.25-.28-.1,0c0,.07.06,0,.07,0a1.56,1.56,0,0,0,1.28.55c.07,0,.08.1.21.16,0-.12-.08-.23-.06-.34s.27,0,.24-.13c.26.22.3,0,.54,0,.06.14.09.14.36.17,0,.09.16.11.07.22a9.64,9.64,0,0,1-1.08,1c.45.19.85-.16,1.25-.38.48.34.74.24,1.28,0,.16-.2-.18-.12,0-.31a2.59,2.59,0,0,0,1-.35,1.25,1.25,0,0,1,1.06-.16,3.34,3.34,0,0,0,.06,1.35,1.84,1.84,0,0,1-.27,1.42c.25.16.06.58.19.81.13,0,.28-.12.43-.19.11.17,0,.46-.09.73.22.43.57.25.92,0s.67-.69,1-.56a7.53,7.53,0,0,1-1.16,2c-.49.64-1,1.2-1.34,1.63.53-.33,1-.22.69.29.86-.47,1.34-.2,2.2-.93a3.3,3.3,0,0,0,.43-1.86,7.49,7.49,0,0,1,.17-2c.68-.32,1.37-1.83,1.45-3.53a6.39,6.39,0,0,0,0-.65c0-.17,0-.43,0-.65a12.28,12.28,0,0,0-.15-1.27c-.13-.79-.3-1.46-.4-1.9,0,.24,0,.41-.06.44-.34-.86-.41-1.3-.59-1.85-.16.24-.51-.81-.75-.9.09.28.2.58,0,.64a9.94,9.94,0,0,0-2.25-2.94,19.75,19.75,0,0,0-3-2.15c-.07.05-.08.17-.26.07a11.08,11.08,0,0,0-4.64-1.72,13.3,13.3,0,0,0-2.28-.1l-.58,0-.26,0-.32,0c-.42,0-.87.11-1.32.19,0,.08.07.18-.15.22a9.89,9.89,0,0,0-2.2.34c.14,0,.22,0,.21.08a17.09,17.09,0,0,0-4.12,1.66c-1.22.63-2.16,1.2-2.71,1,.26-.11.41-.24.41-.4-.51.24-1.41.75-1.15.16-.72.71-1.48.93-1.27.43-.11,0-.3.12-.34,0-.51.43-.34.27-.53.63-.06-.06-.18,0-.29,0,.22-.25.51-.52.33-.54-.93,1.07-.42,0-.93.32-.51.64,0,.63-.82,1.5.18-.47-.25-.09-.38-.26.09-.1.65-.55.54-.67-.36.42-.41.12-.67.31a3,3,0,0,0-.47.74c.26-.78-.65.93-.66.37,1-1.13,1.66-2.14,2.62-3.3a6.51,6.51,0,0,0,1.64-1,4.06,4.06,0,0,1,1.7-.85,2.63,2.63,0,0,0-.44.48c.41-.24.58-.13.89-.23A4.21,4.21,0,0,1,66,52.08a9.8,9.8,0,0,0,2.54-.46c-.1-.35.88-.7,1.84-.82-.1-.31.58-.39,1.35-.47-.29-.26.12-.51.51-.71s.75-.39.32-.59c.29,0,.84,0,.84-.15s-1.05.11-.88-.11c0-.1.54-.12.84-.15,0-.34-.78-.45-1.58-.47a16.37,16.37,0,0,1-2.19,0A9.78,9.78,0,0,1,74,47.6c1.24.13,2.37.38,3.8.55l0,.26a7.41,7.41,0,0,0,2.59.36,3.74,3.74,0,0,1,2.29.55,9.66,9.66,0,0,1,4.5,2.11c0-.11.26.11.61.37a3.58,3.58,0,0,0,.86.55,5.83,5.83,0,0,0,1.27,1.22c.22.09.29-.09.3-.38,0-.58-.28-1.55.11-1.41a16.34,16.34,0,0,1-1.17-2.35c.75.7.67.47.33,0,.27.26.54.52.79.79.23-.35,1,.39.25-.69a62.27,62.27,0,0,1-5-4.59c.41.22.28,0,.83.32.37-.15-1.24-.88-1.15-1.08a6.56,6.56,0,0,1,1.74,1.38,15.06,15.06,0,0,0,1.46,1.48c-.09-.3.43.11.43-.09-.44-.36-.57-.34-1-.66.55.23-.39-.52-.3-.68-1.11-.69-.89-.7-2-1.41a7.27,7.27,0,0,1-2-.85c1.75.79-.4-.38.93.12-1.19-.6-2-.94-2.66-1.21a11,11,0,0,0-2-.62c1,.13,1.8.23,1.94,0-.84-.2-.57-.3-.89-.45a50.09,50.09,0,0,0-5-1.23l-1.22-.17L74,39.73l-.76,0H71.88c-.51,0-1,.07-1.64.15a9.12,9.12,0,0,1,2.85-.54l.51,0,.58,0h1.13c.78,0,1.59.06,2.42.13.56-.13,1.5-.1,1.4-.45a32.51,32.51,0,0,0-6.13-.5,18.21,18.21,0,0,0-5.86,1A14.48,14.48,0,0,0,62.44,41a49.73,49.73,0,0,0-5.27,3.11,17.49,17.49,0,0,0-2.48,2A6.55,6.55,0,0,0,53,48.17a27.87,27.87,0,0,0-4.25,5.6,32.63,32.63,0,0,0-3.07,7.3c-.27.32,0-1-.35.25-.06.83-.34,2.14-.53,3.47a17.89,17.89,0,0,0-.24,3.47A29.41,29.41,0,0,1,46,60.66a32.24,32.24,0,0,1,3.29-7c.11,0,.37-.38.5-.43a16.1,16.1,0,0,0-2.13,4.6c-.42,1.38-.58,2.31-.72,1.93A26.36,26.36,0,0,0,46,62.41a4.12,4.12,0,0,1-.21,2.14,14.69,14.69,0,0,0-.53,3.08c.17-.1,0,1.2.22.92.19-.1.24-1.19.46-1.23a18.38,18.38,0,0,1,.17,3l0,.88v.54l0,.28c0,.58.09,1.2.19,1.87-.07.13-.06.37-.19,0,.12.68.65,2.68.33,2.61-.41-1.39-.09-.5-.22-1.45-.32-.53-.36.13-.28,1-.29-.85-.62-.71-.86-1.93a4.21,4.21,0,0,1,.06,1.22c-.18-.19-.32-1.11-.51-1.13.24,1.1.44,2.5.64,3.92.31-.12.7,1.76.86,2.27a4.33,4.33,0,0,1-.73-2c-.14.65-.38-1.15-.53-.79a14.59,14.59,0,0,0,1,2.75,10.18,10.18,0,0,1,1,3,24.77,24.77,0,0,0-1.11-2.64A16.38,16.38,0,0,1,45,78.86c-.48-.3-.51.24-.34,1.12l.17-.06a10.77,10.77,0,0,1,.32,1.22c-.11-.16-.23-.32-.12,0-.17,0-.1-.52-.36-1.14a2,2,0,0,1,.05.24c.24,1,.72,2.41,1,3.37.56,1.24,1.23,2.81,2,4.25A17.88,17.88,0,0,0,50,91.43c-.53-.84-1.8-2.6-1.65-3.1.59.38.86,1.67,1.28,1.78-.7-1.2-1.11-1.62-1.17-2.24.21.36.24.18.43.46a9.18,9.18,0,0,1,1,2.35c.13.06.38.86.56.75-.24-.41-.11-.5-.12-.72a5.19,5.19,0,0,1-1.27-2.53c1.44,1.72,2.25,3.43,3.7,4.48a6.94,6.94,0,0,0,1.75,2.13c-.39-.38-.44-.57-.29-.59a28.26,28.26,0,0,0,4,4,36.75,36.75,0,0,0,4.41,3A16.79,16.79,0,0,1,60,99.76a11.38,11.38,0,0,1,1.41,1.29c-1-.42-1.73-.81-1.8-.61a18.51,18.51,0,0,1-3.82-2.77,7.52,7.52,0,0,0,2.43,2c0,.06.16.22.19.3-1.42-.61-1,0-.89.81a29,29,0,0,1-6.89-6.51,64,64,0,0,1-5.14-8,57.18,57.18,0,0,1-2.57-8.12c.18.08,0-.62.24-.41a19.18,19.18,0,0,1-.71-4c0-.31,0-.62-.06-.92v-1l.07-1.56c-.22-.13-.2-.86-.12-1.69a15.88,15.88,0,0,0,.21-2.37c.11-.13.16-.4.2,0a9,9,0,0,1,.57-3.47c.37-1.11.81-2.24,1.21-3.75-.49,1.37,0-1.28-.73,1.22,0,.47.49-.78.26,0-.18-.08-.46.55-.73,1.34a23.4,23.4,0,0,1-.78,2.21c0,1.92-.52,3.81-.48,6.51a4.32,4.32,0,0,0-.25.77,2.13,2.13,0,0,0-.07.42,1.34,1.34,0,0,0,0,.2l0,.11,0,0h0v.12h0v0l0-.22v-.19a.25.25,0,0,1,0-.12s0,0,.09.11l.07.15,0,0v0h0v.12h0l0,.1a.8.8,0,0,0,.12.25c.16,1.84.23,3.56.53,5.18-.42-.49-.32-.47-.51-1.89-.23.09-.12.41-.38.1a6.17,6.17,0,0,0,.64,2.2c-.25-.17-.09.78.21,1.89s.75,2.41.85,3c.11-.12.28.17.53.84-.13-.08-.24-.32-.17.09a37.56,37.56,0,0,0,4.44,8A47.8,47.8,0,0,0,54,98.38c.77.56,2.26,1.7,3.56,2.64s2.38,1.74,2.1,2a33.4,33.4,0,0,0,9.57,4.51,44.1,44.1,0,0,0,10.94,1.72c1.24-.15,2.69-.27,4-.39l3.69-.37c-.33,0,.62-.26,1.22-.29,1.13-.06.77.13-.11.39a23.85,23.85,0,0,1-2.91.56c1.08-.1-.24.48-.52.66a36.45,36.45,0,0,1-5.15.45c-1.66,0-3.27,0-4.94-.15-.89-.15-1-.33-2-.51-1.46,0-3-.73-4.66-1.18a27.16,27.16,0,0,1-2.68-.57,31,31,0,0,1-2.78-1.45c-.52-.23-1.45-.58-1.89-.79.05,0,.26,0,.36,0-.91-.48-1.42-.56-2.19-1-.13-.07-.14-.29-.21-.35-1-.73-2.43-1.28-3.54-2.08-.69-.76,1.09.45-.09-.48-.2.14-1.32-.8-1.79-1a9.84,9.84,0,0,0-1.58-1.63c-.58-.54-1-1-.74-1a32.5,32.5,0,0,1-3-3.11A29.89,29.89,0,0,1,46,91.62c.21.34.13.38,0,.41-1.42-2.19-1.79-3-2.56-4.13.06,0,.2.21.27.24a35.67,35.67,0,0,1-3.4-9.1,6.15,6.15,0,0,1-.49-.94,3.13,3.13,0,0,0-.4-1.69c0-.72.3-.49,0-1.44,0,1.22-.41-1.31-.5-2,.07,0,.07-.25.08-.46V72.3h0v-.16h0l0,0s0-.06.09,0h.05l0,0h0v.16h0v0c0,.09,0,.21.06.34s.07.55.14.56l-.08-.74,0-.16v0l0-.19v0l0-.18c0-.23-.09-.35-.14-.57s-.23-.4-.39-.47l0,.43v1.17c0,.57,0,1.15.06,1.62a8.49,8.49,0,0,1,.56,2.48c.18,1.12.35,2.27.38,2.7-.11-.45-.19-.27-.29-.65.06-.07.19,0,.11-.4a11.49,11.49,0,0,1-.8-3.13c-.08-.57-.12-1.17-.17-1.8l-.06-1.12,0-.82a1.9,1.9,0,0,1-.07.27l-.06,0s-.07-.13-.1-.3c-.07-.34-.13-.82-.26-.83l0,.67,0,.56,0,.36.06.64c.05.69.13,1.38.23,2.06.18,1.37.42,2.69.7,3.93-.13-1.13.41,1,.59,1.3a13.68,13.68,0,0,0,.75,3.13c-.13-.4,0-.4.07-.41a22.6,22.6,0,0,0,1.94,5.37c-.93-2-.63-1-1.35-2.51a9.86,9.86,0,0,0,1.57,3.22l-.17.11c.87,1.43,1.91,3.32,3.19,5.2a29.62,29.62,0,0,0,4.38,5.19c0,.1-.16.1.12.4,1.41,1.24,3.12,2.8,4.78,4.07a20.18,20.18,0,0,0,4.08,2.63c0,.3-1.58-.52-2.24-1.15,0,.55,1.92,1.34,2.75,1.74,0,0,0,.15,0,.12,1.29.63,2,.65,3.37,1.26.89.38,1.45.68,2.08,1a12.65,12.65,0,0,0,2.57,1c-.32-.27.31-.06,1.15.19a12.15,12.15,0,0,0,2.37.56c-1.88-.48-.82-.27.71,0s3.55.62,3.54.83c-1.19-.17-1.36,0-2.17-.12,2,.29,1,.22,1.42.55,1.61.14,1.8.33,2.91.43a19.78,19.78,0,0,0-2.17-.53,7.42,7.42,0,0,0,1.07,0c.84.16,1.41.53,2.18.28,0,.11.09.21.38.28a39.43,39.43,0,0,1-6.89-.64,32.44,32.44,0,0,1-6.36-1.93c-3.18-.94-6.16-2.88-9.2-4.47,0-.12-1-.71-.81-.78a29.28,29.28,0,0,1-5.25-4.43c-1.57-1.61-2.95-3.25-4.28-4.55.63.82,1.64,1.89,1.55,2.06-.37-.43-1.43-1.6-2.2-2.63s-1.27-1.91-.76-1.58a19.73,19.73,0,0,1-1.64-2.41c-.52-.32,1,1.62.82,1.67a33.3,33.3,0,0,1-1.83-2.94,11.49,11.49,0,0,1-1.2-2.94A36,36,0,0,1,37.3,71.82c-.08,0-.12-.07-.12-.13a.49.49,0,0,1,0-.16,1.92,1.92,0,0,1,0-.22,4.62,4.62,0,0,0,.15-1.14c-.09-1-.31.4-.33-.36,0-.39,0-.47-.06-.79a9.79,9.79,0,0,1,.3-2.37,15.19,15.19,0,0,1,.38-3.93c.27-.12.46-.89.66-1.82s.44-2,.69-2.75a36.54,36.54,0,0,1,4.7-9.39A41.06,41.06,0,0,1,50,41.68a28.19,28.19,0,0,0-3.31,3.16c-.83.93-1.59,1.8-2.68,3.08a59.3,59.3,0,0,0-3.71,6.74,33.09,33.09,0,0,0-2.49,7.68c-.15-.08-.32.59-.47.75,0-.47.18-1.49.2-2a20.22,20.22,0,0,0-.63,3.77c-.16,1.57-.25,3.28-.45,4.59a1.79,1.79,0,0,1,.13.94v1.5a30.65,30.65,0,0,1,.8,4c.3,1.75.7,3.61.93,4.64a7.64,7.64,0,0,1-.44-1.5c-.15-.66-.26-1.18-.2-.6.23,1.07.53,2.17.34,2.21a17.94,17.94,0,0,0-.59-2.14c.14,1.19.91,3.48.35,3,.41,1.52.09-.58.57,1a1.58,1.58,0,0,0,.17.73c-.13.58-.51-.52-.77-.89C38.1,84,38.4,84,38.52,84c.23,1.17-.55-.83-.36.16a27.82,27.82,0,0,0,1.45,3.91,2,2,0,0,1-.19-.75c.23.64.82,1.33.8,1.71a5.37,5.37,0,0,0-.55-1,25.5,25.5,0,0,0,1.61,3.38c.61,1.13,1.21,2.14,1.44,2.76.58.72-.22-.69.42.15A10.46,10.46,0,0,1,44.21,96,5.91,5.91,0,0,0,45,97.28c.19.1,0-.57.47.07.8,1.08,2.45,2.67,2.09,2.71-.32-.24-2-2.12-1.36-1.31a18,18,0,0,0,3.3,3.09c1.06,1.1-.42.09.59,1.08.41.32.19-.16.72.3a17,17,0,0,0,1.57,1.58c.63.56,1.06.88.4.21a31.09,31.09,0,0,0,3.37,2.47c.1-.06,0-.29.44,0a36.82,36.82,0,0,0,8,4.08,57.44,57.44,0,0,0,8.12,2.29c.16-.08-.53-.27,0-.19a16,16,0,0,0,5.24.55c0,.09-.17.13-.37.17,1.54,0,3.53.15,4.92.19-1,.32-3,.08-3.38.48a16.55,16.55,0,0,0,3.24-.3c.49-.08,1-.17,1.56-.24s1.12-.13,1.83-.18c.45-.2-.94-.15,0-.26a6.1,6.1,0,0,0,2.06-.33c0,.23,1.08.09,1.81,0,2.68-.74,5.44-1,7.75-2.25a43.67,43.67,0,0,0,8.73-3.85,41.48,41.48,0,0,0,7-5.09c.36-.07,1.54-1.21,1.57-.9,1.33-1.48,2.42-2,3.2-3.22-.3.3-.59.58-.59.41.54-.63.62-.68,1.63-1.81.1,0,.15.17.62-.41.42-1.08,2.51-3,3.52-4.35,0-.15-.39.32-.58.47.79-1.11,2.11-3.25,2.56-3.37-.41.8-.9.9-1,1.45.29-.41.35-.27.56-.5.86-1.7,1.92-3.71,2.82-5.61s1.65-3.69,2.1-4.84a10.71,10.71,0,0,0,.38-1.71,19.12,19.12,0,0,0,1.24-3.67,9.35,9.35,0,0,0,.32-1.37l.38-2.22a20.12,20.12,0,0,1,.55-2.62c.21-.14-.28,2.73,0,1.75.16-1.26.14-1.68.35-2.8-.36.27-.11-1.83,0-2.45a25.89,25.89,0,0,0,.08,3.16c.07-1.09.09-2.66.12-3.92s.1-2.21.39-2.1A1.25,1.25,0,0,1,133.25,61.23Zm-127.34,42c-.29-.12-.43-.93-.51-1.38C5.56,101.87,5.88,103.05,5.91,103.24ZM2.2,56.41c-.09.32-.18.17-.27.57.07-.41.3-1.71.5-2.73,0,.17,0,.34.11.34A5.89,5.89,0,0,0,2.2,56.41ZM15,30.72c.59-.55,1-1.41,1.37-1.65C16.66,29.06,14.89,31.23,15,30.72Zm-1,4c-.06-.14.35-.74.29-.88.29-.37.31-.1.8-.91C15.2,33.06,14.44,34,14,34.71Zm4.78,84.79c-.17.1-1.16-1.42-1.31-1.83C17.87,117.89,18.53,119.14,18.76,119.5Zm4.4-15.78c-.21.22-.51-.91-.68-1.26C22.64,102.38,23.1,103.4,23.16,103.72Zm93.61,25.53c0-.08-.09-.08-.25,0a4,4,0,0,1,1.41-.63c0,.12-.52.32-.29.41-.62.32-.76.22-1.44.57C116.2,129.5,116.54,129.37,116.77,129.25ZM109.61,134c0,.09.09.1.26.06a4,4,0,0,1-1.47.59C108.44,134.48,109.16,134.27,109.61,134Zm-10.77,4.77c-.21.19-2.14.67-2.06.32A17.8,17.8,0,0,0,98.84,138.81Zm-26.53-6.9a7.29,7.29,0,0,0,1.41.31C74.49,132.49,72,132.14,72.31,131.91ZM66.39,130a10.22,10.22,0,0,0,2.2.57c.14.19-1-.18-.45.07C68,130.71,66.17,130.2,66.39,130ZM31.76,58.8c0-.44.48-1.21.68-1.7A6.71,6.71,0,0,1,31.76,58.8Zm14-50.17c-.34-.17-1.32.61-2,.7,0-.23,1.55-.78,2.45-1.16.66,0-.27.45.25.53-3.43,1.34-5.62,2.6-8.74,4A73.35,73.35,0,0,1,45.78,8.63ZM40.46,25.29c0,.15-.94.63-.46.62a35.05,35.05,0,0,0-3.51,2.71A26,26,0,0,1,40.46,25.29ZM32.76,16a8.21,8.21,0,0,1-1,.63c.37-.33.71-.79-.37,0a40.77,40.77,0,0,1,3.72-2.55C34.75,14.71,32.5,15.72,32.76,16Zm-1.35.71a3.17,3.17,0,0,1-1.09,1C30.31,17.57,31,16.93,31.41,16.74Zm.53-.78a21.3,21.3,0,0,0-3.16,2.33C29.19,17.83,31.1,16.06,31.94,16Zm-3.09,2.85a16.08,16.08,0,0,0-1.53,1,9.75,9.75,0,0,1,2.11-1.68C29.63,18.16,28.33,18.93,28.85,18.81Zm-.4-.44c-.36.62-1.32,1.1-2.24,2C26.2,20,28.09,18.83,28.45,18.37Zm-5.7,25.32c.11.31-.47.87-.82,1.52C21.8,45,22.44,44.13,22.75,43.69ZM17.38,29.78a5.53,5.53,0,0,1-1,1.49A3.14,3.14,0,0,1,17.38,29.78Zm-1.56,2.56a25.73,25.73,0,0,1,2.34-3.1C18.07,29.75,16.43,31.52,15.82,32.34Zm3.64-4.73A6.61,6.61,0,0,1,21,25.75c.14.06-.71.8-1,1.14.08.13.74-.76,1.07-1.06A8.62,8.62,0,0,1,19.46,27.61Zm-1,27.76.19.05-.3.91C18.16,56.36,18.24,56,18.46,55.37ZM17.6,87.91a20.14,20.14,0,0,1,1.06,3.3c.36,1.31.73,2.68,1,3.57C18.72,93.43,18.23,90.2,17.6,87.91Zm3-33.9c-.38.82-.31.08-.52.08C20.29,53.45,20.59,53.69,20.56,54Zm-.2-.56c-.06-.06.1-.42.2-.68.1.24.29-.26.4-.11C20.72,53.24,20.56,53.16,20.36,53.45Zm7,26.83a8.54,8.54,0,0,1-.48-2.61A8.1,8.1,0,0,1,27.36,80.28ZM31.19,57c-.09-.19.29-1.24.5-1A8.12,8.12,0,0,1,31.19,57Zm3.22-4.91A3.78,3.78,0,0,0,35.08,51C35.37,50.65,34.69,52.42,34.41,52.12Zm1.93-1.87c-.22.39-.69,1-1,1.51-.25-.11.75-1.23.71-1.5C36.38,49.73,36.08,50.69,36.34,50.25Zm3.7-6a13.5,13.5,0,0,1,2.1-2.13A15.08,15.08,0,0,1,40,44.26Zm9.1-22.14c-1.42.66-2.33.92-3.76,1.7a22.59,22.59,0,0,0,2.92-1.24l-4,2.43c-1.27.76-2.58,1.55-4.21,2.59.2.22,1.33-.65,1.67-.57-2.21,1.28-3.33,2.64-4.74,3.61l-.09-.1c-.18,0,.18-.3.47-.54-.46.12-1,.83-.57.79-.6.5-.83.84-1.58,1.44-.08-.13.35-.5.81-.87-.74.25-1.76,1.62-2.51,2.53-.53.66-.27,0-.66.37s-1.31,1.47-2.33,2.61-2,2.33-2.46,2.69c-.31.54-.35.67,0,.57-.48.7-.82,1-1,1A11.63,11.63,0,0,1,25,44.08c-.44.72.45-.32,0,.3s-.2.22-.24.14c-.47.76-.13.74-.8,1.72-.05-.25-.16-.43-.41-.47-.25.46.2.21.23.38-.45.91-.61.72-1,1.37.19-.08.22.21.13.59a2,2,0,0,1-.76,1.21A4.08,4.08,0,0,1,23,48.11c-.16,0-.39.31-.3-.14a7.93,7.93,0,0,1-1.12,2.11c.1.15,0,.74.55.23-.42.63-.84,1.45-1.21,2.06-.15-.08.18-.78.44-1.35.16-.38-.37.23-.5.32-.18.5.21-.23.09.29a10.45,10.45,0,0,0-.7,1.51c-.27.33-.07,0-.25-.08-.37,1.47.31.95-.28,2.41a1.25,1.25,0,0,0,.37-.63,28.09,28.09,0,0,1-1.22,4.28,13.92,13.92,0,0,0-.88,3.94c-.28.7-.26.27-.28,1.15-.39.38-.36-.48-.33-1.31-.06.25-.12.5-.17.76-.16-.28-.15-.13-.37.2-.08.81.49-.59.41.29-.25.33-.2,2-.58,3,0,.33.12,0,.16-.23.12.4-.29.84-.3,1.65a4.55,4.55,0,0,0,.2-.71c.18.17-.12.5-.09,1,.06,0,.07-.29.11-.47.16.1-.06,1.21.07,1.42a2.36,2.36,0,0,0-.15,1.66,38.1,38.1,0,0,0,.11,9.77l-.2,0c.53,2.25.74,4.34,1.26,6.59-.84-1.54-1-4.51-1.38-7.06a23,23,0,0,1-.54-4c.23-.25.12,1.26.29,1.41.07-.17-.09-.63,0-1.2a14.53,14.53,0,0,1-.43-4.85c.08-1.9.34-3.92.55-5.67a42.59,42.59,0,0,1,1.19-7.35c.11-.14.22-.52.32-.43a15.4,15.4,0,0,1,.85-2.76c.32-.25.07.31.44-.87,0,.46.15.07.32.09-.18.62-.28.4-.43.62a2.92,2.92,0,0,0,0,1c-.19.44-.36.47-.54.85s0,.49-.08,1c.33-.41.67-2.14,1.17-2.64-.33,1.11-.62,1.32-.91,2.45.26-.52.53-1.34.82-2,.44-2-.25-1.94.54-4.08-.2.07-.48.79-.72,1.28.34-1.79,1.43-3.28,1.68-4.54.21-.26.46-.78.61-.79.27-.62.74-2.06,1.09-2.16.22-.41-.11-.25.18-.72a15.22,15.22,0,0,0,1.81-2.72A13.39,13.39,0,0,1,26.53,40a16.18,16.18,0,0,1,3.13-4,9.91,9.91,0,0,1,2.26-2.81A19.78,19.78,0,0,1,35,30.66c1.42-1.23,1.16-1.23,2.53-2.3-.43.3-1.36.75-1.43,1-.14-.2.79-.92,2.2-1.94a2.23,2.23,0,0,1-.35.34c1-.69,2.47-1.89,4.07-2.95a14.19,14.19,0,0,1,4.82-2.24,11.13,11.13,0,0,0-2.1,1.24,14.85,14.85,0,0,1,1.7-.88c.73-.35,1.42-.7,1.48-.94a2,2,0,0,1,1.2-.33c0,.17,0,.33-.77.63C48.38,22.43,49.38,21.76,49.14,22.12ZM53.73,5.77c-.21.11-.27.22-.21.32l-1.16.33C52.4,6.23,53.05,6,53.73,5.77ZM52,6.2c-.36.3-.75.3-2,.75C49.66,6.8,51.31,6.43,52,6.2ZM49.34,22c-.11-.3,1.24-.82,2.36-1.25C51.67,21.08,50.19,21.6,49.34,22Zm2,13.81c-.28-.1.45-.36.75-.55C52.3,35.37,51.61,35.73,51.32,35.78ZM53,19.91a4.39,4.39,0,0,1-.89.39C51.94,20,55.7,19,53,19.91ZM61,3.82c-.91.19-.91,0-1.82.24.07-.08,1.07-.41,1.19-.28.29,0,.21-.11.27-.17C61.56,3.52,61,3.65,61,3.82Zm1.2-.18c.17-.08.34-.17,0-.13-.08-.14,1.06-.18,1.5-.26A3.12,3.12,0,0,1,62.23,3.64Zm14.4-1.28c-.81.06-1.24-.11-2.58-.11C74.06,2,76.16,2.22,76.63,2.36Zm-1-1.59C74.47.64,74.06.83,73.34.66,72.93.34,76,.5,75.65.77ZM70.31.17c1.3,0,2.59.16,2.36.53C72,.49,70.55.45,70.31.17Zm-.76,2.25c.26-.24,1.29,0,2.24-.16C72.06,2.5,70.28,2.33,69.55,2.42Zm1.58-.36c.47-.11,2.17-.19.31-.26.43-.29,2.06,0,3.24,0C73.6,2,73,1.94,71.13,2.06Zm2,28.84c.3-.12-.12-.13.18-.25,1.09.21,1.36.25,2.37.37A13.59,13.59,0,0,1,73.13,30.9Zm2.88.23c-.13-.26.9,0,1,.11A1.57,1.57,0,0,1,76,31.13ZM79.24,2.05c-.06-.2,1.17-.07,1.63.11A6.25,6.25,0,0,1,79.24,2.05ZM94,4c.38.24,1.34.6,2.16,1-.05.1.18.26.55.45-.09.12-.82-.21-1.58-.54.58.1-.19-.21.39-.11C95,4.44,93.63,4,94,4ZM92.4,3.5a8.42,8.42,0,0,1-2.23-.76A6.56,6.56,0,0,1,92.4,3.5Zm-7-.45c1-.16-1.43-.3-1.56-.68,1.31.33,1.11.24,2.57.59C86.91,3.21,86.58,3.39,85.38,3.05ZM89,3.6a18.62,18.62,0,0,1-3.19-.86,46.51,46.51,0,0,1,5.42,1.44c.18.27-.58,0-.41.27C90.33,4.17,88.62,3.78,89,3.6Zm1.69,34.84c0-.12.19,0,.25,0,.43.33.48.54,1,.91C91.69,39.41,90.85,38.74,90.64,38.44Zm2.18,1.82c.36.5.58.56.9,1C93.53,41.36,92.59,40.37,92.82,40.26Zm2.43,5.08a2.21,2.21,0,0,1,.69.87C95.65,46.23,95.63,45.76,95.25,45.34ZM96,46.59a1.69,1.69,0,0,1,.61.73C96.4,47.33,96,47,96,46.59ZM97,46.44c.11-.06.28.55.37.73C97.09,47.16,97,46.64,97,46.44Zm1.09,5.05a1.36,1.36,0,0,1-.32-.71C98,50.64,98.42,51.44,98.12,51.49Zm-.19-4.07c.15-.07.38.41.59.8C98.36,48.36,98,47.71,97.93,47.42ZM98.54,49c-.08-.17,0-.11,0,0s-.24-.59,0-.57c.16.37.28.26.44.71a.52.52,0,0,0,0,.36C98.9,49.49,98.69,48.9,98.54,49ZM99.49,51a2.42,2.42,0,0,1-.38-.72c.15-.16.33.33.49.31A.35.35,0,0,1,99.49,51Zm.46,3.29c.23.31,0,.33.26.93-.12,0-.09.15,0,.34-.23-.26,0-.63-.29-1.07C100,54.53,100,54.45,100,54.33Zm-2,13a1.1,1.1,0,0,1-.2.84C97.58,68.08,97.87,67.6,97.9,67.34ZM73.08,61.13c.11.17-.09.2,0,.34-.14-.09-.34-.09-.36-.32C72.86,61.1,72.91,61.18,73.08,61.13ZM71.45,61c.33-.17.47,0,.69-.05A1.32,1.32,0,0,1,72.32,62c-.19.12-.63.2-.45.45-.12,0-.3.06-.42.05-.2-.25.17-.39.29-.56C71.59,61.4,71.19,61.41,71.45,61Zm-1.36,4.12c-.06.2-.29.77-.59.61C69.78,65.5,69.8,64.93,70.09,65.08Zm10.1-23.92.63.16c-.1.2.66.49-.68.17C80.36,41.32,79.59,41.15,80.19,41.16ZM68.13,40.1c.56-.11,1.09-.13.88,0a7.67,7.67,0,0,1-1.86.37C67,40.4,67.57,40.21,68.13,40.1Zm-.25,9.82a2.34,2.34,0,0,1-.77.44c0-.13-.21,0-.46,0C66.67,50.23,67.71,49.92,67.88,49.92Zm-20.12,8.8c-.24.07,0-.68.43-1.47.09.07.28-.3.37-.19A15.68,15.68,0,0,1,47.76,58.72ZM39.9,79.57c.21-.43.54,1.64.66,1.63C40.75,82.23,40.1,80.53,39.9,79.57Zm4.41,12c.38-.09.61,1,1.43,2A11.65,11.65,0,0,1,44.31,91.59Zm1.95.73c.14-.1,1.05,1.24,1.25,1.65C47.38,94,46.62,92.8,46.26,92.32Zm19.06,16.83a12.86,12.86,0,0,1,1.36.42c-.06.09-.11.16.29.31C66.66,110,64.86,109.19,65.32,109.15ZM121.9,25.92c-.54-.5-.05.15.48.89-.43-.16-1.16-1.69-1.74-2.46C120.78,24.28,121.53,25.46,121.9,25.92Zm-3.08-2.59A10.49,10.49,0,0,1,122,27.11c-.62-.59-1.85-2.61-2.53-2.62-1.63-2.23-3.23-3.78-4-4.79A11.88,11.88,0,0,1,118.82,23.33Zm2.08,3,.15-.13c.33.44.65.89,1,1.34C121.93,27.77,121.29,26.75,120.9,26.33Zm.44,62.29a13.67,13.67,0,0,1-1.43,2.2C120,90.17,120.58,89.75,121.34,88.62Zm-2.41-63.16c-.6-.86-1.28-1.74-1.71-2.4.31,0,.84,1,1.7,2C118.81,25.07,119.07,25.43,118.93,25.46Zm-2-3c-.26,0-.77-.49-1.49-1.26.08,0,.16-.1-.09-.38C115.48,20.66,116.71,22,116.93,22.44Zm-1.44,72.82a6.33,6.33,0,0,1,1.25-1.48C117,93.93,116.08,94.5,115.49,95.26Zm-2.8-78.42a25.69,25.69,0,0,0,2.63,2.52l-.22.25c-1.21-1.36-3-2.84-4.56-4.28C111.28,15.64,112.1,16.7,112.69,16.84Zm-6.33,83.38a40.25,40.25,0,0,0,6.42-5.17c.06.08.11.15.37-.1a28.57,28.57,0,0,1-4.58,4.24,46.74,46.74,0,0,1-5.25,3.4c-.65.45.38.12,1-.26-.17.32-1.16.66-1.64.94-.09-.08.26-.3.13-.37a18.13,18.13,0,0,0-2,1C102.55,102.64,104.36,101.55,106.36,100.22Zm-.82,3.33c-1.77,1.08-2.79,1.62-3.73,2.14s-1.83,1-3.46,1.71c-.76-.07.66-.74,2.4-1.62a50.44,50.44,0,0,0,4.56-2.55c1.25-.58,1.64-.5,0,.6C105.37,103.75,105.58,103.61,105.54,103.55Zm-5,3.77c-.2.31-1,.43-1.25.47s.85-.44.82-.57C101.18,106.76,99.47,107.78,100.54,107.32Zm3.64-1.68c-.11.23-.88.67-1,.9-.49.06-2.59,1.27-2.85,1.09C101.76,107.2,102.61,106.33,104.18,105.64ZM99,108a28.52,28.52,0,0,1-4.48,1.65c-1.49.4-2.54.54-1.92.22C94.31,109.69,96.39,108.76,99,108Zm10.46-5.81c0,.18-.26.5,0,.55a33.93,33.93,0,0,1-4.12,2.31C106.18,104.23,107.9,103.46,109.47,102.17Zm-1.64-.43c.1.15-.42.67-1,.88C106.69,102.54,107.34,102.12,107.83,101.74Zm-7.36-33a2.27,2.27,0,0,1-.17.54C100.39,69.05,100.28,68.81,100.47,68.77Zm-2.09,4.37c0,.29-.73,1.4-.86,1A3.35,3.35,0,0,0,98.38,73.14ZM96,73.61a.26.26,0,0,0,.14.26c-.21.36-.3.1-.52.45C95.53,74.21,95.82,73.89,96,73.61Zm.24.66.16.12c-.29.62-.67.78-1.24,1.29C95.44,75.16,96,74.88,96.27,74.27Zm-1.5-3.62a.7.7,0,0,1-.25.65C94.48,71.15,94.59,70.92,94.77,70.65Zm-.57.06c.26.05-.07.58-.24.37Zm-.16,1c.13,0,.26.06.42-.28-.1.71-1,1.36-1.34,1.89a.48.48,0,0,0-.08-.51C93.41,72.33,93.87,72.13,94,71.67Zm.21,4.62c.18-.15.3-.14.38,0,.24-.33,0-.18-.1-.28.3-.26.44,0,.71-.28-.63,1-1.56,1.36-2.49,2.35,0-.21,0-.14-.15-.39C93.23,77.46,94.29,76.66,94.25,76.29ZM92.33,78c.15.21-.32.55-.72.85-.08-.09.06-.21,0-.29C91.9,78.49,92,78.21,92.33,78Zm-4,27.47c.51-.09.69,0,.64.14-.48.1-1,.19-1.46.27.17-.09.33-.17,0-.13C87.55,105.63,88.37,105.56,88.35,105.45ZM75.84,76.22c.17.09-.09.25.14.32-.3.13-.29-.25-.51-.43C75.55,76,75.76,76.4,75.84,76.22ZM72.61,74c.06-.12.3.08.22-.14a3.91,3.91,0,0,1,.76.76.21.21,0,0,1-.25.2,3.24,3.24,0,0,1,.26.71c-.39-.28-.46-.78-.95-1C72.47,74.34,72.81,74.27,72.61,74Zm-5-4.75c-.09-.25,0-.6-.29-.49,0-.62.83-.63,1-.18C68.1,68.86,68,69.28,67.6,69.28Zm20.6,36.8-3,.37-1.8.2c-.66.06-1.33.11-2,.14a30.2,30.2,0,0,1-8-.61c0-.12.39-.06.34-.2-1-.16-1.12,0-2.19-.2l.05-.26c-.55-.14-.66-.09-1.23-.25s.35.21-.34.1c-.51-.14-1-.3-1.51-.47.07-.06,0-.14-.26-.23a6.89,6.89,0,0,1,2.17.34c-.23-.12-.29-.24-.25-.35.67.34,1.7.34,2.39.68.41,0,.58,0,.64-.13a28,28,0,0,0,3.25.59A26.3,26.3,0,0,0,80,106c-.7-.12-2.62,0-3.06-.37a9.42,9.42,0,0,1-2.14-.15c-.16-.17-.84-.36-.27-.38s.32.25.89.34.71-.08,0-.2c1.55.16,2.69.21,3.79.25s2.14.07,3.49.06a5.93,5.93,0,0,1-2.11.19c0,.41,1.44.16,2.14,0,.09.08,1.18.19.64.22.07.21-1.52.12-2.44.24a9,9,0,0,0,2.14,0c.84-.07,1.56-.18,1.8-.16-.22-.13-.65-.26.53-.38-.1.46,1.41.38,3.05.12C88.22,105.86,88.15,106,88.2,106.08Zm3.69-1.19c.46-.1-.21.18.33,0-.47.45-2.45.66-3.48.83C89,105.39,91.38,105.27,91.89,104.89ZM89.34,108c.62-.27,1,0,2.19-.36,0-.06-.39,0-.63.08,0-.1.9-.24.87-.35-.37,0-1.92.45-2.77.56.61-.27,1.7-.56,2.75-.87a17.34,17.34,0,0,0,2.56-.9c.5,0,.34.27.15.37.35.11.67-.21,1.24-.29.79-.37-1,.21-.73-.09a14.68,14.68,0,0,0,3.73-1.58,5.17,5.17,0,0,0,1.72-.73c.38.33-1.76,1-2.44,1.38a8.44,8.44,0,0,0,2.24-.95c.78-.42,1.44-.79,1.55-.6a63.3,63.3,0,0,1-5.85,2.69A24.9,24.9,0,0,1,89.34,108Zm1,2.52c-.27.26.76,0,1.34-.17a30,30,0,0,1-4.75,1c-1,.13-2,.24-3,.33s-2.2.15-3.23.19C83.2,111.34,87,111.37,90.39,110.51ZM79.65,112c1,.06,1.64.06,2.28,0s1.32,0,2.33-.12c-1-.08.07-.2,1.41-.34s3-.32,3.22-.27a26.59,26.59,0,0,1-5.15.76c-1.86.13-3.61.12-4.79.24C78.63,112.11,79.5,112.15,79.65,112Zm-3.22.08c-.26-.21.71-.07.72-.2-2.84-.4-5.74-.82-6.65-1.54a18.68,18.68,0,0,0,5.25.74,6.81,6.81,0,0,0,1.4.34,4.59,4.59,0,0,1-1.77-.12,5.58,5.58,0,0,0,2.84.65C78.48,112.22,77.66,112.24,76.43,112.1Zm2.17.48c.28-.22,1.26,0,1.81,0A5.3,5.3,0,0,1,78.6,112.58Zm22.67-3.94-.1-.18a44.23,44.23,0,0,1-7.24,2.78,41.54,41.54,0,0,1-10.23,1.6c-.39,0-.23.14-.7.17a19,19,0,0,1-2.2-.06c.06-.2,1.8-.13,2.89-.24,0-.1,0-.19-.39-.17l1.38-.15,1.54-.18c1.08-.14,2.27-.32,3.5-.57a35.31,35.31,0,0,0,7.36-2.29,22.17,22.17,0,0,1,2.66-.68c.88-.44-.28-.11-.15-.29.77-.38,1.54-.4,1.88-.77.91-.37.39-.08.43.08,1.5-.83,2.55-1.5,3.53-2,.17-.35-1,.44-1.55.72a25.69,25.69,0,0,1,3.76-2.24c.37.06-1.06,1.21.57.17a15.6,15.6,0,0,1-2.84,1.77,14.72,14.72,0,0,0-2.41,1.37,35.09,35.09,0,0,0,4.15-2.26,29.16,29.16,0,0,1,3.3-1.95C107.64,105.64,104.76,106.92,101.27,108.64Zm12.94-9.25c-.06-.12-.41.18-.45,0,.94-1,.9-.55,1.81-1.52A16.28,16.28,0,0,1,114.21,99.39Zm8.87-11.54c-1,1.72-2.28,3.38-2.81,4.37a56.28,56.28,0,0,1-8.21,8.35c.12.05.89-.71,1.11-.78.11.18-1.48,1.42-1.59,1.25-.64.69-.67.76-.21.75-1.25.69-1.55.66-1.13.21s1.51-1.36,3-2.62a13.67,13.67,0,0,0-1.35,1c-.27,0,1.12-1,1.11-1.21.35-.29.33-.08.44,0,1.18-1.1,1.76-1.74,2.38-2.4s1.25-1.35,2.37-2.7c.49-.19,1.07-1.3,1.67-1.67.5-.76-.74.73-.22-.14l1.42-1.76a13.93,13.93,0,0,0,1.34-2c-.13-.13-1.12,1.86-1.08,1.3a16,16,0,0,0,2-3.42c.19,0,.21.16.14.43.45-.75.45-1,.25-1a8.3,8.3,0,0,1,1.44-2.27A15.86,15.86,0,0,1,123.08,87.85Zm4-53.69a3.61,3.61,0,0,0,.4.94c0,.35-.64-.79-.23.14a5.05,5.05,0,0,1-.48-1.67,8.21,8.21,0,0,1,1,1.77A6.41,6.41,0,0,1,127.05,34.16Zm2.27,6.74c-.07-.29-.14-.59-.24-.62-.12-.34,0-.27-.13-.68.11.14.23.28.3.23.12.36.21.84,0,.37C129.28,40.43,129.47,40.94,129.32,40.9ZM131,51.14a11,11,0,0,1,.28,1.94c-.17,0-.3-1-.47-1.89Zm-1-9.46c-.16.3-.15.37-.53-.13C129.44,41,129.54,40.38,130,41.68Zm.81,12.25a56.4,56.4,0,0,0-1.25-6.09,29,29,0,0,1,1.32,5.22c.36,2,.57,4.08.71,5.23A33.49,33.49,0,0,1,130.83,53.93Zm.74.75-.19-1.29.19,0C131.64,54,131.75,54.74,131.57,54.68Zm.18,6.69c.24.05.13,1.89.17,2.75C131.63,63.67,131.9,62.46,131.75,61.37Zm.95-4.92a6.25,6.25,0,0,1-.22-1.3c.1,0,.2,0,.16-.37.08,0,.08.33,0,.33C133.11,56.19,132.54,55.4,132.7,56.45Z"/><path d="M101.14,108.41l0,0c.52-.26,1-.52,1.51-.78Z"/><path d="M38.87,45.76l.16-.17A1.36,1.36,0,0,0,38.87,45.76Z"/><path d="M56.51,137l.12.07Z"/><path d="M1.51,65.55h.16C1.62,65.42,1.57,65.44,1.51,65.55Z"/><path d="M37.05,123.56c-.12-.12-.25-.26-.38-.38C36.77,123.29,36.92,123.43,37.05,123.56Z"/></g></g></svg>