<svg xmlns="http://www.w3.org/2000/svg" viewBox="0 0 150.71 150.71"><defs><style>.cls-1{fill:#010101;fill-rule:evenodd;}</style></defs><title>Asset 113mdpi</title><g id="Layer_2" data-name="Layer 2"><g id="Layer_1-2" data-name="Layer 1"><path class="cls-1" d="M70,.05a2.4,2.4,0,0,1,2.87,1.84A2.43,2.43,0,0,1,70,4.76C67.45,4.34,67.53.49,70,.05Z"/><path class="cls-1" d="M79.68.05a2.4,2.4,0,0,1,2.87,1.84,2.43,2.43,0,0,1-2.87,2.87C77.14,4.34,77.22.49,79.68.05Z"/><path class="cls-1" d="M60.36.32a2.09,2.09,0,0,1,2.49,1.73c.38,3-3.9,3.15-4.23.65A2,2,0,0,1,60.36.32Z"/><path class="cls-1" d="M89.54.32A2.09,2.09,0,0,1,92,2.05c.38,3-3.9,3.15-4.22.65A2,2,0,0,1,89.54.32Z"/><path class="cls-1" d="M49.42,1.89c.75-.27,1.7-.59,2.38-.82.42-.14.81.9.81,1.3A1.62,1.62,0,1,1,49.42,1.89Z"/><path class="cls-1" d="M101.24,1.89a1.63,1.63,0,1,1-3.2.48,1.52,1.52,0,0,1,.7-1.3C99.62,1.3,100.42,1.6,101.24,1.89Z"/><path class="cls-1" d="M80.12,8.11A4.06,4.06,0,0,1,83.8,14c-1.69,3.43-7.14,2.54-7.63-1.24a4.3,4.3,0,0,1,.37-2.44A4,4,0,0,1,80.12,8.11Z"/><path class="cls-1" d="M69.83,8.17a4.14,4.14,0,0,1,3.47,1,5.27,5.27,0,0,1,1.19,2.27A4.08,4.08,0,0,1,67.61,15,4,4,0,0,1,69.83,8.17Z"/><path class="cls-1" d="M60.41,8.27a3.88,3.88,0,1,1-3.57,3.9A3.86,3.86,0,0,1,60.41,8.27Z"/><path class="cls-1" d="M89.59,8.27A3.88,3.88,0,1,1,86,12.17,3.87,3.87,0,0,1,89.59,8.27Z"/><path class="cls-1" d="M50.72,8.71a3.39,3.39,0,0,1,3.73,3.36c.07,4.44-6.93,4.67-6.93,0A3.28,3.28,0,0,1,50.72,8.71Z"/><path class="cls-1" d="M99.39,8.71a3.4,3.4,0,0,1,3.74,3.36c.06,4.44-6.93,4.67-6.93,0A3.27,3.27,0,0,1,99.39,8.71Z"/><path class="cls-1" d="M41.24,9.47a2.68,2.68,0,0,1,2.55,3.73,2.71,2.71,0,1,1-5-2.16A2.71,2.71,0,0,1,41.24,9.47Z"/><path class="cls-1" d="M109.3,9.47a2.68,2.68,0,0,1,2.55,3.73,2.71,2.71,0,1,1-5-2.16A2.71,2.71,0,0,1,109.3,9.47Z"/><path class="cls-1" d="M32,10.66a1.56,1.56,0,0,1-.71,3c-.68-.09-1.54-.81-1.35-1.57C30.1,11.65,31.76,10.91,32,10.66Z"/><path class="cls-1" d="M120.73,12.12a1.62,1.62,0,1,1-2.17-1.52A14,14,0,0,1,120.73,12.12Z"/><path class="cls-1" d="M50.45,17.7a4.22,4.22,0,1,1-3.69,3.73,4.14,4.14,0,0,1,3.69-3.73Z"/><path class="cls-1" d="M99.12,17.7a4.22,4.22,0,1,1-3.68,3.73,4.11,4.11,0,0,1,3.68-3.73Z"/><path class="cls-1" d="M60.19,17.8a4.12,4.12,0,1,1,1,8.18,4.14,4.14,0,0,1-4.6-4.55A4,4,0,0,1,60.19,17.8Z"/><path class="cls-1" d="M89.38,17.8a4.12,4.12,0,1,1,1,8.18,4.14,4.14,0,0,1-4.61-4.55A4,4,0,0,1,89.38,17.8Z"/><path class="cls-1" d="M40.65,17.91a4.18,4.18,0,0,1,3.46,1,5.21,5.21,0,0,1,1.19,2.28,4,4,0,1,1-4.65-3.31Z"/><path class="cls-1" d="M70.21,17.91a3.93,3.93,0,0,1,3.14,1.14,4.31,4.31,0,0,1,1.14,2.82,4,4,0,0,1-4,4,4,4,0,0,1-3.63-5.74A4.1,4.1,0,0,1,70.21,17.91Z"/><path class="cls-1" d="M79.9,17.91A3.91,3.91,0,0,1,83,19.05a4.31,4.31,0,0,1,1.14,2.82,4,4,0,0,1-4,4,4,4,0,0,1-3.63-5.74A4.1,4.1,0,0,1,79.9,17.91Z"/><path class="cls-1" d="M108.71,17.91a4.18,4.18,0,0,1,3.46,1,5.21,5.21,0,0,1,1.19,2.28,4,4,0,1,1-4.65-3.31Z"/><path class="cls-1" d="M31.06,18.73a3.14,3.14,0,0,1,3.69,3.51c-.4,3.93-6.84,3.7-6.39-.76A3,3,0,0,1,31.06,18.73Z"/><path class="cls-1" d="M118.62,18.73a3.12,3.12,0,0,1,3.68,2.7c.53,4.73-6.87,4.83-6.39.05A3.15,3.15,0,0,1,118.62,18.73Z"/><path class="cls-1" d="M128.58,20c2.53-.29,2.77,3.68.27,3.74A1.88,1.88,0,0,1,128.58,20Z"/><path class="cls-1" d="M21.48,20.08a1.85,1.85,0,0,1,1.73,3.08,1.88,1.88,0,0,1-2.76-2.54A1.65,1.65,0,0,1,21.48,20.08Z"/><path class="cls-1" d="M31.33,27.44a4.15,4.15,0,1,1-3.95,4.17A4,4,0,0,1,31.33,27.44Z"/><path class="cls-1" d="M118.89,27.44a4.08,4.08,0,0,1,4.38,4.06,4.17,4.17,0,1,1-8.34.11A4,4,0,0,1,118.89,27.44Z"/><path class="cls-1" d="M40.81,27.5a4,4,0,0,1,4.6,4.38,4.13,4.13,0,1,1-8.23-.65A4,4,0,0,1,40.81,27.5Z"/><path class="cls-1" d="M108.87,27.5a4,4,0,0,1,4.6,4.38,4.13,4.13,0,1,1-8.23-.65A4,4,0,0,1,108.87,27.5Z"/><path class="cls-1" d="M50.61,28a3.44,3.44,0,0,1,4,3.46c.08,4.72-7.07,4.75-7.15.11A3.44,3.44,0,0,1,50.61,28Z"/><path class="cls-1" d="M99.45,28a3.52,3.52,0,0,1,3.79,3.46,3.58,3.58,0,0,1-7.15.11A3.45,3.45,0,0,1,99.45,28Z"/><path class="cls-1" d="M21.37,28.42a3.13,3.13,0,0,1,3.68,3.52c-.39,3.93-6.83,3.69-6.39-.76A3.06,3.06,0,0,1,21.37,28.42Z"/><path class="cls-1" d="M128.2,28.42A3.21,3.21,0,1,1,125.6,31,3.08,3.08,0,0,1,128.2,28.42Z"/><path class="cls-1" d="M60.52,28.58a3,3,0,0,1,3.08,4c-1,2.77-5.9,2.61-5.9-1A2.9,2.9,0,0,1,60.52,28.58Z"/><path class="cls-1" d="M89.7,28.58A3,3,0,0,1,93,31.5a3.08,3.08,0,0,1-4.71,2.6,2.93,2.93,0,0,1-1.35-2.49A2.89,2.89,0,0,1,89.7,28.58Z"/><path class="cls-1" d="M70.37,28.9a2.63,2.63,0,0,1,2.82,2.6c.06,3.49-5.36,3.62-5.42.11A2.67,2.67,0,0,1,70.37,28.9Z"/><path class="cls-1" d="M80.06,28.9a2.63,2.63,0,0,1,2.82,2.6c.06,3.49-5.36,3.62-5.41.11A2.66,2.66,0,0,1,80.06,28.9Z"/><path class="cls-1" d="M140.06,32a1.55,1.55,0,0,1-1.47,1.14,1.63,1.63,0,0,1-.16-3.25c.29,0,.67.75.87,1C139.6,31.4,139.84,31.67,140.06,32Z"/><path class="cls-1" d="M12.06,30a1.58,1.58,0,1,1-.16,3.14c-.5-.06-1.2-.43-1.25-1S11.77,30.49,12.06,30Z"/><path class="cls-1" d="M31.06,37.24a4.05,4.05,0,0,1,4.61,4.39A4.13,4.13,0,1,1,27.44,41,4,4,0,0,1,31.06,37.24Z"/><path class="cls-1" d="M118.62,37.24a4,4,0,0,1,4.6,4.39A4.13,4.13,0,1,1,115,41,4,4,0,0,1,118.62,37.24Z"/><path class="cls-1" d="M21.21,37.35a4.15,4.15,0,0,1,3.46,1,5.12,5.12,0,0,1,1.19,2.27A4.08,4.08,0,0,1,19,44.17,4,4,0,0,1,21.21,37.35Z"/><path class="cls-1" d="M128.14,37.35a4.16,4.16,0,0,1,3.47,1,5.33,5.33,0,0,1,1.19,2.27,4.08,4.08,0,0,1-6.88,3.52A4,4,0,0,1,128.14,37.35Z"/><path class="cls-1" d="M40.81,38.05a3.25,3.25,0,0,1,3.79,2.82c.48,4.33-6.13,5.16-6.61.87A3.27,3.27,0,0,1,40.81,38.05Z"/><path class="cls-1" d="M109,38.05a3.23,3.23,0,0,1,3.63,3.2c.07,4.35-6.54,4.4-6.61.11A3.2,3.2,0,0,1,109,38.05Z"/><path class="cls-1" d="M12.06,38.65a2.68,2.68,0,0,1,2.54,3.74A2.76,2.76,0,0,1,11,43.79a2.79,2.79,0,0,1-1.41-3.57A2.74,2.74,0,0,1,12.06,38.65Z"/><path class="cls-1" d="M138.43,38.65a2.62,2.62,0,0,1,2.82,2.6c.06,3.48-5.36,3.62-5.42.11A2.67,2.67,0,0,1,138.43,38.65Z"/><path class="cls-1" d="M50.61,39a2.28,2.28,0,0,1,2.71,2.54c-.28,2.86-5,2.72-4.66-.54A2.27,2.27,0,0,1,50.61,39Z"/><path class="cls-1" d="M99.34,39a2.33,2.33,0,0,1,2.33,3.52,2.37,2.37,0,0,1-4.33-1.08A2.17,2.17,0,0,1,99.34,39Z"/><path class="cls-1" d="M60.52,39.63a1.72,1.72,0,0,1,.86,3.3C59.1,43.81,58,40,60.52,39.63Z"/><path class="cls-1" d="M89.7,39.63a1.72,1.72,0,0,1,.87,3.3C88.28,43.81,87.15,40,89.7,39.63Z"/><path class="cls-1" d="M70.16,39.68a1.68,1.68,0,0,1,2,2.16,1.75,1.75,0,0,1-3.25,0A1.67,1.67,0,0,1,70.16,39.68Z"/><path class="cls-1" d="M79.85,39.68a1.68,1.68,0,0,1,2,2.16,1.75,1.75,0,0,1-3.25,0A1.67,1.67,0,0,1,79.85,39.68Z"/><path class="cls-1" d="M21.32,46.83a4.22,4.22,0,1,1-3.68,3.73,4,4,0,0,1,.81-2.11A4.05,4.05,0,0,1,21.32,46.83Z"/><path class="cls-1" d="M128.25,46.83a4.22,4.22,0,1,1-3.68,3.73,4.11,4.11,0,0,1,3.68-3.73Z"/><path class="cls-1" d="M31.17,47.48a3.44,3.44,0,0,1,3.95,3.46c.08,4.72-7.07,4.75-7.14.11A3.42,3.42,0,0,1,31.17,47.48Z"/><path class="cls-1" d="M118.89,47.48a3.52,3.52,0,0,1,3.79,3.46,3.57,3.57,0,0,1-3.58,3.63,3.53,3.53,0,0,1-3.57-3.52A3.45,3.45,0,0,1,118.89,47.48Z"/><path class="cls-1" d="M11.84,47.58a3.41,3.41,0,0,1,3.74,3.36c.06,4.45-6.93,4.68-6.93.05A3.28,3.28,0,0,1,11.84,47.58Z"/><path class="cls-1" d="M138.27,47.58A3.41,3.41,0,0,1,142,50.94c.06,4.45-6.93,4.68-6.94.05A3.29,3.29,0,0,1,138.27,47.58Z"/><path class="cls-1" d="M70.32,48.18a2.8,2.8,0,0,1,3,2.76c.05,3.77-5.74,3.85-5.74.05A2.72,2.72,0,0,1,70.32,48.18Z"/><path class="cls-1" d="M80,48.18a2.8,2.8,0,0,1,3,2.76c0,3.77-5.74,3.85-5.74.05A2.72,2.72,0,0,1,80,48.18Z"/><path class="cls-1" d="M60.46,48.67a2.32,2.32,0,0,1,2.66,2.27c.06,3.27-4.71,3-4.77.11A2.27,2.27,0,0,1,60.46,48.67Z"/><path class="cls-1" d="M89.65,48.67A2.31,2.31,0,0,1,92.3,51c0,3.15-4.76,3.08-4.76,0A2.23,2.23,0,0,1,89.65,48.67Z"/><path class="cls-1" d="M40.92,48.72a2.27,2.27,0,0,1,2.7,2.55c-.28,2.85-5,2.71-4.65-.55A2.26,2.26,0,0,1,40.92,48.72Z"/><path class="cls-1" d="M109,48.72a2.33,2.33,0,0,1,2.33,3.52A2.37,2.37,0,0,1,107,51.16,2.18,2.18,0,0,1,109,48.72Z"/><path class="cls-1" d="M1.07,51.91a15.51,15.51,0,0,1,.86-2.49,1.62,1.62,0,1,1,.44,3.2A1.51,1.51,0,0,1,1.07,51.91Z"/><path class="cls-1" d="M50.61,49.42c2.8-.56,2.44,4-.22,3.15a1.65,1.65,0,0,1-1-2.17A1.48,1.48,0,0,1,50.61,49.42Z"/><path class="cls-1" d="M99.28,49.42c2.8-.56,2.44,4-.21,3.15a1.66,1.66,0,0,1-1-2.17A1.48,1.48,0,0,1,99.28,49.42Z"/><path class="cls-1" d="M148.77,49.42c.12.4.29.76.44,1.2a4.83,4.83,0,0,1,.38,1.24c-.07.5-.78.76-1.3.76A1.63,1.63,0,1,1,148.77,49.42Z"/><path class="cls-1" d="M21.32,56.68a4.12,4.12,0,1,1,1,8.18,4.14,4.14,0,0,1-4.61-4.55A4,4,0,0,1,21.32,56.68Z"/><path class="cls-1" d="M128.31,56.68a4,4,0,0,1,4.6,4.39,4.13,4.13,0,1,1-8.23-.65A4,4,0,0,1,128.31,56.68Z"/><path class="cls-1" d="M11.79,56.9a3.88,3.88,0,1,1-3.58,3.9A3.85,3.85,0,0,1,11.79,56.9Z"/><path class="cls-1" d="M138.22,56.9a3.88,3.88,0,1,1-3.58,3.9A3.85,3.85,0,0,1,138.22,56.9Z"/><path class="cls-1" d="M70,57a3.73,3.73,0,0,1,4.34,3.41,3.9,3.9,0,0,1-5.58,3.85A3.85,3.85,0,0,1,70,57Z"/><path class="cls-1" d="M79.68,57A3.73,3.73,0,0,1,84,60.36a3.9,3.9,0,0,1-5.58,3.85A3.85,3.85,0,0,1,79.68,57Z"/><path class="cls-1" d="M60.52,57.44a3.27,3.27,0,0,1,3.57,3.25c.06,4.5-6.71,4.37-6.71.05A3.24,3.24,0,0,1,60.52,57.44Z"/><path class="cls-1" d="M89.7,57.44a3.26,3.26,0,0,1,3.57,3.25c.07,4.5-6.71,4.37-6.71.05A3.24,3.24,0,0,1,89.7,57.44Z"/><path class="cls-1" d="M31.33,57.76a3,3,0,0,1,3.09,4c-1,2.77-5.9,2.62-5.9-1A2.9,2.9,0,0,1,31.33,57.76Z"/><path class="cls-1" d="M118.89,57.76a3,3,0,0,1,3.24,2.93,3.09,3.09,0,0,1-4.71,2.6,3,3,0,0,1-1.35-2.49A2.91,2.91,0,0,1,118.89,57.76Z"/><path class="cls-1" d="M50.72,58.41a2.33,2.33,0,0,1,2.65,2.28c.06,3.27-4.71,3-4.76.11A2.26,2.26,0,0,1,50.72,58.41Z"/><path class="cls-1" d="M99.39,58.41a2.33,2.33,0,0,1,2.66,2.33c0,3.15-4.77,3.08-4.77,0A2.25,2.25,0,0,1,99.39,58.41Z"/><path class="cls-1" d="M148.18,58.63a2.11,2.11,0,0,1,2.27,2.06c.07,3.25-5.27,2.59-4.22-.65A2.06,2.06,0,0,1,148.18,58.63Z"/><path class="cls-1" d="M2,58.68a2.09,2.09,0,0,1,2.49,1.74c.38,3-3.9,3.15-4.22.65A2,2,0,0,1,2,58.68Z"/><path class="cls-1" d="M41.08,59.06A1.73,1.73,0,0,1,42,62.37C39.66,63.25,38.53,59.39,41.08,59.06Z"/><path class="cls-1" d="M109.14,59.06a1.73,1.73,0,0,1,.87,3.31C107.72,63.25,106.59,59.39,109.14,59.06Z"/><path class="cls-1" d="M70.16,66A4.53,4.53,0,1,1,70.53,75,4.53,4.53,0,0,1,70.16,66Z"/><path class="cls-1" d="M79.85,66A4.53,4.53,0,1,1,80.23,75,4.53,4.53,0,0,1,79.85,66Z"/><path class="cls-1" d="M138.49,66.48a4.06,4.06,0,0,1,3.68,5.85c-1.69,3.43-7.14,2.54-7.64-1.25a4.37,4.37,0,0,1,.38-2.43A4,4,0,0,1,138.49,66.48Z"/><path class="cls-1" d="M11.46,66.53a4.2,4.2,0,0,1,3.47,1,5.32,5.32,0,0,1,1.19,2.28,4,4,0,1,1-4.66-3.31Z"/><path class="cls-1" d="M21.59,66.53a3.93,3.93,0,0,1,3.14,1.14,4.31,4.31,0,0,1,1.13,2.82,4,4,0,0,1-4,4,4,4,0,0,1-3.63-5.74A4.1,4.1,0,0,1,21.59,66.53Z"/><path class="cls-1" d="M128.14,66.59a4.07,4.07,0,0,1,4.06,1.79,4.11,4.11,0,0,1-1.29,5.52,4.2,4.2,0,0,1-5.53-1.3,4.13,4.13,0,0,1,1.3-5.52A3.61,3.61,0,0,1,128.14,66.59Z"/><path class="cls-1" d="M60.25,66.7a3.72,3.72,0,0,1,4.33,3.41A3.89,3.89,0,0,1,59,74a3.84,3.84,0,0,1,1.25-7.25Z"/><path class="cls-1" d="M89.38,66.7a3.73,3.73,0,0,1,4.22,2.6,3.87,3.87,0,0,1-3.19,5A3.94,3.94,0,0,1,86.07,71a3.84,3.84,0,0,1,1.63-3.68A3.39,3.39,0,0,1,89.38,66.7Z"/><path class="cls-1" d="M50.83,67.67a2.81,2.81,0,0,1,3,2.76c0,3.77-5.74,3.85-5.74.06A2.72,2.72,0,0,1,50.83,67.67Z"/><path class="cls-1" d="M99.34,67.67a2.88,2.88,0,1,1-2.55,2.87A2.71,2.71,0,0,1,99.34,67.67Z"/><path class="cls-1" d="M31.44,67.83a2.63,2.63,0,0,1,2.82,2.6c.06,3.49-5.36,3.62-5.42.11A2.67,2.67,0,0,1,31.44,67.83Z"/><path class="cls-1" d="M119.05,67.83a2.68,2.68,0,0,1,2.54,3.74A2.77,2.77,0,0,1,118,73a2.8,2.8,0,0,1-1.41-3.58A2.74,2.74,0,0,1,119.05,67.83Z"/><path class="cls-1" d="M1.88,68.16A2.4,2.4,0,0,1,4.75,70a2.43,2.43,0,0,1-2.87,2.87C-.67,72.45-.58,68.61,1.88,68.16Z"/><path class="cls-1" d="M147.8,68.16A2.4,2.4,0,0,1,150.67,70a2.43,2.43,0,0,1-2.87,2.87C145.25,72.45,145.33,68.61,147.8,68.16Z"/><path class="cls-1" d="M41,68.86a1.68,1.68,0,0,1,2,2.17,1.75,1.75,0,0,1-3.25,0A1.69,1.69,0,0,1,41,68.86Z"/><path class="cls-1" d="M109,68.86A1.68,1.68,0,0,1,111,71a1.75,1.75,0,0,1-3.25,0A1.69,1.69,0,0,1,109,68.86Z"/><path class="cls-1" d="M70.16,75.68a4.53,4.53,0,1,1-4.23,4.55A4.46,4.46,0,0,1,70.16,75.68Z"/><path class="cls-1" d="M79.85,75.68a4.53,4.53,0,1,1-4.23,4.55A4.46,4.46,0,0,1,79.85,75.68Z"/><path class="cls-1" d="M12.06,76.17A4.06,4.06,0,0,1,15.74,82c-1.69,3.43-7.14,2.54-7.63-1.25a4.2,4.2,0,0,1,.38-2.43A4,4,0,0,1,12.06,76.17Z"/><path class="cls-1" d="M138.49,76.17A4.06,4.06,0,0,1,142.17,82c-1.69,3.43-7.14,2.54-7.64-1.25a4.37,4.37,0,0,1,.38-2.43A4,4,0,0,1,138.49,76.17Z"/><path class="cls-1" d="M21.59,76.23a3.92,3.92,0,0,1,3.14,1.13,4.31,4.31,0,0,1,1.13,2.82,4,4,0,0,1-4,4,4,4,0,0,1-.27-8Z"/><path class="cls-1" d="M128.14,76.28a4.07,4.07,0,0,1,4.06,1.79,4.11,4.11,0,0,1-1.29,5.52,4.2,4.2,0,0,1-5.53-1.3,4.13,4.13,0,0,1,1.3-5.52A3.61,3.61,0,0,1,128.14,76.28Z"/><path class="cls-1" d="M60.25,76.39a3.72,3.72,0,0,1,4.33,3.41A3.89,3.89,0,0,1,59,83.64a3.75,3.75,0,0,1-2.11-3.79A3.79,3.79,0,0,1,60.25,76.39Z"/><path class="cls-1" d="M89.38,76.39A3.74,3.74,0,0,1,93.6,79a3.87,3.87,0,0,1-3.19,5,3.94,3.94,0,0,1-4.34-3.35A3.84,3.84,0,0,1,87.7,77,3.49,3.49,0,0,1,89.38,76.39Z"/><path class="cls-1" d="M50.83,77.36a2.81,2.81,0,0,1,3,2.76c0,3.77-5.74,3.85-5.74.06A2.72,2.72,0,0,1,50.83,77.36Z"/><path class="cls-1" d="M99.34,77.36a2.88,2.88,0,1,1-2.55,2.87A2.71,2.71,0,0,1,99.34,77.36Z"/><path class="cls-1" d="M31.44,77.53a2.62,2.62,0,0,1,2.82,2.59c.06,3.49-5.36,3.62-5.42.11A2.67,2.67,0,0,1,31.44,77.53Z"/><path class="cls-1" d="M119.05,77.53a2.67,2.67,0,0,1,2.54,3.73A2.76,2.76,0,0,1,118,82.67a2.79,2.79,0,0,1-1.41-3.57A2.72,2.72,0,0,1,119.05,77.53Z"/><path class="cls-1" d="M1.88,77.85a2.4,2.4,0,0,1,2.87,1.84,2.43,2.43,0,0,1-2.87,2.87C-.67,82.14-.58,78.3,1.88,77.85Z"/><path class="cls-1" d="M147.8,77.85a2.4,2.4,0,0,1,2.87,1.84,2.43,2.43,0,0,1-2.87,2.87C145.25,82.14,145.33,78.3,147.8,77.85Z"/><path class="cls-1" d="M41,78.55a1.68,1.68,0,0,1,2,2.17,1.75,1.75,0,0,1-3.25,0A1.69,1.69,0,0,1,41,78.55Z"/><path class="cls-1" d="M109,78.55a1.68,1.68,0,0,1,2,2.17,1.75,1.75,0,0,1-3.25,0A1.69,1.69,0,0,1,109,78.55Z"/><path class="cls-1" d="M21.32,85.86a4.12,4.12,0,1,1,1,8.18,4.14,4.14,0,0,1-4.61-4.55A4,4,0,0,1,21.32,85.86Z"/><path class="cls-1" d="M128.31,85.86a4.11,4.11,0,1,1-3.63,3.74A4,4,0,0,1,128.31,85.86Z"/><path class="cls-1" d="M11.79,86.08A3.88,3.88,0,1,1,8.21,90,3.86,3.86,0,0,1,11.79,86.08Z"/><path class="cls-1" d="M138.22,86.08a3.88,3.88,0,1,1-3.58,3.9A3.86,3.86,0,0,1,138.22,86.08Z"/><path class="cls-1" d="M69.94,86.14a3.73,3.73,0,0,1,4.22,2.59,3.88,3.88,0,0,1-3.19,5,3.93,3.93,0,0,1-4.33-3.36,3.79,3.79,0,0,1,1.62-3.68A3.34,3.34,0,0,1,69.94,86.14Z"/><path class="cls-1" d="M79.63,86.14a3.73,3.73,0,0,1,4.22,2.59,3.88,3.88,0,0,1-3.19,5,3.94,3.94,0,0,1-4.33-3.36A3.83,3.83,0,0,1,78,86.73,3.34,3.34,0,0,1,79.63,86.14Z"/><path class="cls-1" d="M60.52,86.62a3.27,3.27,0,0,1,3.57,3.25c.06,4.51-6.71,4.37-6.71,0A3.24,3.24,0,0,1,60.52,86.62Z"/><path class="cls-1" d="M89.7,86.62A3.35,3.35,0,1,1,86.56,90,3.21,3.21,0,0,1,89.7,86.62Z"/><path class="cls-1" d="M31.33,87a3,3,0,0,1,3.25,2.92,3.09,3.09,0,0,1-4.71,2.6A2.93,2.93,0,0,1,28.52,90,2.88,2.88,0,0,1,31.33,87Z"/><path class="cls-1" d="M118.89,87a3,3,0,0,1,3.24,2.92,3.09,3.09,0,0,1-4.71,2.6A3,3,0,0,1,116.07,90,2.89,2.89,0,0,1,118.89,87Z"/><path class="cls-1" d="M50.72,87.6a2.31,2.31,0,0,1,2.65,2.32c0,3.15-4.76,3.08-4.76,0A2.24,2.24,0,0,1,50.72,87.6Z"/><path class="cls-1" d="M99.39,87.6a2.32,2.32,0,0,1,2.66,2.32c0,3.15-4.77,3.08-4.77,0A2.24,2.24,0,0,1,99.39,87.6Z"/><path class="cls-1" d="M148.18,87.81a2.11,2.11,0,0,1,2.27,2.06c.07,3.25-5.27,2.59-4.22-.65A2.07,2.07,0,0,1,148.18,87.81Z"/><path class="cls-1" d="M2,87.87A2.09,2.09,0,0,1,4.48,89.6c.38,3-3.9,3.15-4.22.65A2,2,0,0,1,2,87.87Z"/><path class="cls-1" d="M41.08,88.25a1.72,1.72,0,0,1,.87,3.3C39.66,92.43,38.53,88.57,41.08,88.25Z"/><path class="cls-1" d="M109.14,88.25a1.72,1.72,0,0,1,.87,3.3C107.72,92.43,106.59,88.57,109.14,88.25Z"/><path class="cls-1" d="M21.32,95.5a4.22,4.22,0,1,1-3.68,3.74,3.94,3.94,0,0,1,.81-2.11A4.06,4.06,0,0,1,21.32,95.5Z"/><path class="cls-1" d="M128.25,95.5a4.22,4.22,0,1,1-3.68,3.74,4,4,0,0,1,.81-2.11A4.08,4.08,0,0,1,128.25,95.5Z"/><path class="cls-1" d="M31.33,96.15a3.51,3.51,0,0,1,3.79,3.47,3.57,3.57,0,0,1-7.14.11A3.44,3.44,0,0,1,31.33,96.15Z"/><path class="cls-1" d="M118.89,96.15a3.52,3.52,0,0,1,3.79,3.47,3.58,3.58,0,0,1-7.15.11A3.45,3.45,0,0,1,118.89,96.15Z"/><path class="cls-1" d="M11.84,96.26a3.4,3.4,0,0,1,3.74,3.36c.06,4.45-6.93,4.67-6.93,0A3.27,3.27,0,0,1,11.84,96.26Z"/><path class="cls-1" d="M138.11,96.26a3.39,3.39,0,0,1,3.9,3.68c-.3,4.36-6.61,4-6.94.06A3.36,3.36,0,0,1,138.11,96.26Z"/><path class="cls-1" d="M70.16,96.86a2.88,2.88,0,0,1,2.76,4.38,2.91,2.91,0,0,1-5.31-1.51A2.7,2.7,0,0,1,70.16,96.86Z"/><path class="cls-1" d="M79.85,96.86a2.87,2.87,0,0,1,2.76,4.38,2.91,2.91,0,0,1-5.31-1.51A2.7,2.7,0,0,1,79.85,96.86Z"/><path class="cls-1" d="M60.46,97.34a2.33,2.33,0,0,1,2.66,2.33c0,3.15-4.77,3.08-4.77,0A2.25,2.25,0,0,1,60.46,97.34Z"/><path class="cls-1" d="M89.65,97.34a2.32,2.32,0,0,1,2.65,2.33c0,3.15-4.76,3.08-4.76,0A2.25,2.25,0,0,1,89.65,97.34Z"/><path class="cls-1" d="M41,97.4a2.33,2.33,0,0,1,2.33,3.52A2.37,2.37,0,0,1,39,99.83,2.17,2.17,0,0,1,41,97.4Z"/><path class="cls-1" d="M109,97.4a2.33,2.33,0,0,1,2.33,3.52A2.37,2.37,0,0,1,107,99.83,2.17,2.17,0,0,1,109,97.4Z"/><path class="cls-1" d="M1.88,101.24c-.12-.39-.29-.75-.43-1.19a4.21,4.21,0,0,1-.38-1.25c.06-.43.71-.73,1.19-.75A1.62,1.62,0,1,1,1.88,101.24Z"/><path class="cls-1" d="M50.61,98.1c2.8-.56,2.44,4-.22,3.14a1.65,1.65,0,0,1-1-2.17A1.49,1.49,0,0,1,50.61,98.1Z"/><path class="cls-1" d="M99.28,98.1c2.8-.56,2.44,4-.21,3.14a1.65,1.65,0,0,1-1-2.17A1.49,1.49,0,0,1,99.28,98.1Z"/><path class="cls-1" d="M149.59,98.75c-.24.87-.54,1.67-.82,2.49a1.65,1.65,0,0,1-2.11-1.51A1.62,1.62,0,0,1,149.59,98.75Z"/><path class="cls-1" d="M31.06,105.3a4.05,4.05,0,0,1,4.61,4.39,4.13,4.13,0,1,1-8.23-.65A4,4,0,0,1,31.06,105.3Z"/><path class="cls-1" d="M118.62,105.3a4,4,0,0,1,4.6,4.39A4.13,4.13,0,1,1,115,109,4,4,0,0,1,118.62,105.3Z"/><path class="cls-1" d="M128.74,105.36a4.05,4.05,0,0,1,3.68,5.84c-1.68,3.43-7.14,2.54-7.63-1.24a4.33,4.33,0,0,1,.38-2.44A4,4,0,0,1,128.74,105.36Z"/><path class="cls-1" d="M21.21,105.41a4.15,4.15,0,0,1,3.46,1,5.12,5.12,0,0,1,1.19,2.27A4.08,4.08,0,0,1,19,112.23,4,4,0,0,1,21.21,105.41Z"/><path class="cls-1" d="M41,106.11a3.22,3.22,0,0,1,3.63,3.2c.07,4.34-6.54,4.4-6.61.11A3.19,3.19,0,0,1,41,106.11Z"/><path class="cls-1" d="M109,106.11a3.22,3.22,0,0,1,3.63,3.2c.07,4.34-6.54,4.4-6.61.11A3.19,3.19,0,0,1,109,106.11Z"/><path class="cls-1" d="M12.06,106.71a2.68,2.68,0,0,1,2.54,3.74,2.76,2.76,0,0,1-3.57,1.4,2.79,2.79,0,0,1-1.41-3.57A2.74,2.74,0,0,1,12.06,106.71Z"/><path class="cls-1" d="M138.22,106.71c3.22-.4,4,4,1.46,5.14a2.76,2.76,0,0,1-3.63-3.62A2.64,2.64,0,0,1,138.22,106.71Z"/><path class="cls-1" d="M50.66,107.09A2.33,2.33,0,0,1,53,110.61a2.37,2.37,0,0,1-4.33-1.09A2.17,2.17,0,0,1,50.66,107.09Z"/><path class="cls-1" d="M99.34,107.09a2.33,2.33,0,0,1,2.33,3.52,2.37,2.37,0,0,1-4.33-1.09A2.17,2.17,0,0,1,99.34,107.09Z"/><path class="cls-1" d="M60.52,107.68a1.73,1.73,0,0,1,.86,3.31C59.1,111.87,58,108,60.52,107.68Z"/><path class="cls-1" d="M89.7,107.68a1.73,1.73,0,0,1,.87,3.31C88.28,111.87,87.15,108,89.7,107.68Z"/><path class="cls-1" d="M70.16,107.74a1.68,1.68,0,0,1,2,2.16,1.75,1.75,0,0,1-3.25,0A1.67,1.67,0,0,1,70.16,107.74Z"/><path class="cls-1" d="M79.85,107.74a1.68,1.68,0,0,1,2,2.16,1.75,1.75,0,0,1-3.25,0A1.67,1.67,0,0,1,79.85,107.74Z"/><path class="cls-1" d="M31.33,115a4.15,4.15,0,1,1-3.95,4.17A4,4,0,0,1,31.33,115Z"/><path class="cls-1" d="M118.83,115a4.19,4.19,0,0,1,3.41,1.36,4.35,4.35,0,0,1-.32,5.85,4.2,4.2,0,0,1-7-3.09A4,4,0,0,1,118.83,115Z"/><path class="cls-1" d="M40.81,115.05a4.11,4.11,0,1,1,.87,8.17,4.09,4.09,0,0,1-4.5-4.44A4,4,0,0,1,40.81,115.05Z"/><path class="cls-1" d="M108.87,115.05a4.11,4.11,0,1,1,.87,8.17,4.09,4.09,0,0,1-4.5-4.44A4,4,0,0,1,108.87,115.05Z"/><path class="cls-1" d="M50.77,115.59a3.55,3.55,0,1,1-3.36,3.57A3.45,3.45,0,0,1,50.77,115.59Z"/><path class="cls-1" d="M99.45,115.59a3.55,3.55,0,1,1-3.36,3.57A3.45,3.45,0,0,1,99.45,115.59Z"/><path class="cls-1" d="M21.37,116a3.11,3.11,0,0,1,3.68,2.7c.53,4.74-6.87,4.83-6.39.06A3.18,3.18,0,0,1,21.37,116Z"/><path class="cls-1" d="M128.2,116a3.21,3.21,0,1,1-2.6,2.54A3.08,3.08,0,0,1,128.2,116Z"/><path class="cls-1" d="M60.52,116.13a3,3,0,0,1,3.25,2.93,3.08,3.08,0,0,1-4.71,2.59,3,3,0,0,1-1.36-2.49A2.9,2.9,0,0,1,60.52,116.13Z"/><path class="cls-1" d="M89.7,116.13A3,3,0,0,1,93,119.06a3.08,3.08,0,0,1-4.71,2.59,2.93,2.93,0,0,1-1.35-2.49A2.89,2.89,0,0,1,89.7,116.13Z"/><path class="cls-1" d="M70.43,116.46A2.67,2.67,0,0,1,73,120.19,2.71,2.71,0,1,1,68,118,2.7,2.7,0,0,1,70.43,116.46Z"/><path class="cls-1" d="M80.12,116.46a2.67,2.67,0,0,1,2.54,3.73,2.76,2.76,0,0,1-3.57,1.41A2.79,2.79,0,0,1,77.68,118,2.71,2.71,0,0,1,80.12,116.46Z"/><path class="cls-1" d="M10.6,118.62c.63-2.52,4.52-.28,2.7,1.63a1.53,1.53,0,0,1-1.13.48c-.33-.07-.61-.73-.82-1S10.81,119,10.6,118.62Z"/><path class="cls-1" d="M140.06,118.51a11.31,11.31,0,0,1-1.52,2.22,1.61,1.61,0,0,1-1.62-1.57A1.64,1.64,0,0,1,140.06,118.51Z"/><path class="cls-1" d="M50.45,124.63a4.22,4.22,0,1,1-3.69,3.74,4,4,0,0,1,.82-2.11A4.06,4.06,0,0,1,50.45,124.63Z"/><path class="cls-1" d="M99.12,124.63a4.22,4.22,0,1,1-3.68,3.74,4,4,0,0,1,.81-2.11A4.11,4.11,0,0,1,99.12,124.63Z"/><path class="cls-1" d="M60.25,124.74a4.11,4.11,0,1,1-3.63,3.74A4,4,0,0,1,60.25,124.74Z"/><path class="cls-1" d="M89.43,124.74a4.11,4.11,0,1,1-3.63,3.74A4,4,0,0,1,89.43,124.74Z"/><path class="cls-1" d="M109.3,124.79a4.06,4.06,0,0,1,3.68,5.85c-1.68,3.43-7.13,2.54-7.63-1.24a4.41,4.41,0,0,1,.38-2.44A4,4,0,0,1,109.3,124.79Z"/><path class="cls-1" d="M40.65,124.85a4.11,4.11,0,0,1,3.46,1,5.23,5.23,0,0,1,1.19,2.27,4.08,4.08,0,0,1-6.87,3.52A4,4,0,0,1,40.65,124.85Z"/><path class="cls-1" d="M69.83,124.9a4,4,0,0,1,2.76,7.31,4.19,4.19,0,0,1-5.52-1.3,4.12,4.12,0,0,1,1.3-5.52A3.71,3.71,0,0,1,69.83,124.9Z"/><path class="cls-1" d="M79.52,124.9a4,4,0,0,1,2.76,7.31,4.19,4.19,0,0,1-5.52-1.3,4.13,4.13,0,0,1,1.3-5.52A3.76,3.76,0,0,1,79.52,124.9Z"/><path class="cls-1" d="M31,125.66a3.21,3.21,0,1,1-2.6,2.55A3.08,3.08,0,0,1,31,125.66Z"/><path class="cls-1" d="M118.51,125.66a3.21,3.21,0,1,1-2.6,2.55A3.09,3.09,0,0,1,118.51,125.66Z"/><path class="cls-1" d="M21.64,127c2.53-.29,2.78,3.68.27,3.74A1.88,1.88,0,0,1,21.64,127Z"/><path class="cls-1" d="M128.58,127c2.53-.29,2.77,3.68.27,3.74A1.88,1.88,0,0,1,128.58,127Z"/><path class="cls-1" d="M70.43,134.54a4.06,4.06,0,0,1,3.68,5.85c-1.69,3.43-7.14,2.53-7.64-1.25a4.37,4.37,0,0,1,.38-2.43A4,4,0,0,1,70.43,134.54Z"/><path class="cls-1" d="M80.12,134.54a4.06,4.06,0,0,1,3.68,5.85c-1.69,3.43-7.14,2.53-7.63-1.25a4.28,4.28,0,0,1,.37-2.43A4,4,0,0,1,80.12,134.54Z"/><path class="cls-1" d="M60.41,134.7a3.88,3.88,0,1,1-3.57,3.9A3.86,3.86,0,0,1,60.41,134.7Z"/><path class="cls-1" d="M89.59,134.7A3.88,3.88,0,1,1,86,138.6,3.87,3.87,0,0,1,89.59,134.7Z"/><path class="cls-1" d="M50.72,135.14a3.38,3.38,0,0,1,3.73,3.35c.07,4.45-6.93,4.68-6.93.06A3.28,3.28,0,0,1,50.72,135.14Z"/><path class="cls-1" d="M99.23,135.14a3.38,3.38,0,0,1,3.9,3.68c-.29,4.36-6.6,4-6.93.05A3.34,3.34,0,0,1,99.23,135.14Z"/><path class="cls-1" d="M41.19,135.89a2.62,2.62,0,0,1,2.81,2.6c.06,3.49-5.35,3.62-5.41.11A2.66,2.66,0,0,1,41.19,135.89Z"/><path class="cls-1" d="M109,135.89c3.23-.39,4,4.05,1.46,5.15a2.76,2.76,0,0,1-3.62-3.63A2.64,2.64,0,0,1,109,135.89Z"/><path class="cls-1" d="M32.09,140.06a13.24,13.24,0,0,1-2.16-1.51c.06-2.21,3.19-1.94,3.25-.06A1.62,1.62,0,0,1,32.09,140.06Z"/><path class="cls-1" d="M118.51,140.06c-1.57-.5-1.17-3.05.48-3.14.7,0,1.93.68,1.74,1.57-.07.29-.74.67-1,.87A6.47,6.47,0,0,1,118.51,140.06Z"/><path class="cls-1" d="M70,146a2.41,2.41,0,1,1,0,4.71C67.45,150.26,67.53,146.42,70,146Z"/><path class="cls-1" d="M79.68,146a2.41,2.41,0,1,1,0,4.71C77.14,150.26,77.22,146.42,79.68,146Z"/><path class="cls-1" d="M60.63,146.18a2.11,2.11,0,0,1,2.27,2.06c.07,3.25-5.27,2.59-4.22-.65A2,2,0,0,1,60.63,146.18Z"/><path class="cls-1" d="M89.81,146.18a2.11,2.11,0,0,1,2.27,2.06c.08,3.25-5.27,2.59-4.22-.65A2.06,2.06,0,0,1,89.81,146.18Z"/><path class="cls-1" d="M51.91,149.59c-.87-.23-1.67-.53-2.49-.81a1.63,1.63,0,1,1,3.19-.54A1.5,1.5,0,0,1,51.91,149.59Z"/><path class="cls-1" d="M101.24,148.78c-.4.12-.76.29-1.2.43a4.24,4.24,0,0,1-1.24.38c-.5-.07-.76-.77-.76-1.3A1.63,1.63,0,1,1,101.24,148.78Z"/></g></g></svg>