<svg xmlns="http://www.w3.org/2000/svg" viewBox="0 0 154.73 154.19"><defs><style>.cls-1{fill:#010101;fill-rule:evenodd;}</style></defs><title>Asset 114mdpi</title><g id="Layer_2" data-name="Layer 2"><g id="Layer_1-2" data-name="Layer 1"><path class="cls-1" d="M71.34,0a.76.76,0,0,1,1,.72.85.85,0,1,1-1.7.06A.76.76,0,0,1,71.34,0Z"/><path class="cls-1" d="M83.12,0a.76.76,0,0,1,1,.72A.85.85,0,1,1,82.4.8.76.76,0,0,1,83.12,0Z"/><path class="cls-1" d="M60,.22c1.21.82-1.11,2-1,.39C59.19.31,59.64.3,60,.22Z"/><path class="cls-1" d="M95.62.48a.67.67,0,1,1-1.24.46C94.27.18,95,.12,95.62.48Z"/><path class="cls-1" d="M77,5.32A1.33,1.33,0,0,1,78.8,6.44c.29,2.08-3.13,2.42-2.88.06A1.3,1.3,0,0,1,77,5.32Z"/><path class="cls-1" d="M65.45,5.39c1.71-.19,2,2.61.19,2.68C64.1,8.13,63.6,5.59,65.45,5.39Z"/><path class="cls-1" d="M89,5.39c1.71-.19,2.06,2.61.2,2.68C87.66,8.13,87.17,5.59,89,5.39Z"/><path class="cls-1" d="M53.47,5.71a1.19,1.19,0,0,1,.65-.06c.71.17,1.17,1.86-.06,2.09S52.08,6.11,53.47,5.71Z"/><path class="cls-1" d="M100.6,5.71a1.19,1.19,0,0,1,.65-.06c.71.17,1.17,1.86-.06,2.09S99.21,6.11,100.6,5.71Z"/><path class="cls-1" d="M42.47,6.44c.53.59-.65,1.2-1,.58C41.72,6.73,42.2,6.69,42.47,6.44Z"/><path class="cls-1" d="M112.12,6.5c.46.06.68.36,1.11.46A.6.6,0,0,1,112.12,6.5Z"/><path class="cls-1" d="M71,10.82a1.84,1.84,0,0,1,2.29,1.31c.55,2.83-4.27,3.16-3.66,0A1.78,1.78,0,0,1,71,10.82Z"/><path class="cls-1" d="M82.79,10.82a1.84,1.84,0,0,1,2.29,1.31c.55,2.83-4.27,3.16-3.66,0A1.78,1.78,0,0,1,82.79,10.82Z"/><path class="cls-1" d="M59.29,11a2.11,2.11,0,0,1,1.64.4c1.56,1.56-.88,4.09-2.49,2.48A1.73,1.73,0,0,1,59.29,11Z"/><path class="cls-1" d="M94.64,11a2.11,2.11,0,0,1,1.64.4c1.56,1.56-.88,4.09-2.49,2.48A1.73,1.73,0,0,1,94.64,11Z"/><path class="cls-1" d="M47.51,11.28c2.48-.6,2.12,3.47-.2,2.62C46.42,13.57,46,11.63,47.51,11.28Z"/><path class="cls-1" d="M106.42,11.28c2.49-.6,2.12,3.47-.19,2.62C105.33,13.57,105,11.63,106.42,11.28Z"/><path class="cls-1" d="M36,11.8a.76.76,0,0,1,1,.72.85.85,0,1,1-1.7.07A.76.76,0,0,1,36,11.8Z"/><path class="cls-1" d="M118.47,11.8a.76.76,0,0,1,1,.72.85.85,0,1,1-1.7.07A.76.76,0,0,1,118.47,11.8Z"/><path class="cls-1" d="M76.9,16.32A2.24,2.24,0,0,1,79,20.05c-2,2-5.22-.9-3.34-3.08A2.08,2.08,0,0,1,76.9,16.32Z"/><path class="cls-1" d="M65.12,16.38a2.15,2.15,0,0,1,2.55,2.82C67.13,21,64,21,63.48,19.2A2.17,2.17,0,0,1,65.12,16.38Z"/><path class="cls-1" d="M88.68,16.38a2.15,2.15,0,0,1,2.56,2.82c-.55,1.83-3.64,1.84-4.19,0A2.17,2.17,0,0,1,88.68,16.38Z"/><path class="cls-1" d="M53.4,16.58c2.51-.48,3.14,3.16,1.05,3.8a2,2,0,0,1-2.55-2.56A1.89,1.89,0,0,1,53.4,16.58Z"/><path class="cls-1" d="M100.53,16.58c2.52-.48,3.14,3.16,1,3.8A2,2,0,0,1,99,17.82,1.89,1.89,0,0,1,100.53,16.58Z"/><path class="cls-1" d="M41.55,17a1.55,1.55,0,0,1,2,2c-.5,1.73-3.71,1.38-3-1A1.39,1.39,0,0,1,41.55,17Z"/><path class="cls-1" d="M112.25,17a1.55,1.55,0,0,1,2,2c-.49,1.73-3.7,1.38-3-1A1.41,1.41,0,0,1,112.25,17Z"/><path class="cls-1" d="M30,17.56a.88.88,0,0,1,1.18.85,1,1,0,1,1-2,.07A.86.86,0,0,1,30,17.56Z"/><path class="cls-1" d="M124.29,17.56a.88.88,0,0,1,1.18.85,1,1,0,1,1-2,.07A.86.86,0,0,1,124.29,17.56Z"/><path class="cls-1" d="M71.27,21.88A2.52,2.52,0,0,1,74,24.3c.08,3.54-5.1,3.19-5.1.07A2.35,2.35,0,0,1,71.27,21.88Z"/><path class="cls-1" d="M83.05,21.88A2.52,2.52,0,0,1,85.8,24.3c.09,3.54-5.1,3.19-5.1.07A2.36,2.36,0,0,1,83.05,21.88Z"/><path class="cls-1" d="M59.49,22a2.28,2.28,0,0,1,2.62,2.29c.07,3.24-4.78,3.08-4.85.14A2.2,2.2,0,0,1,59.49,22Z"/><path class="cls-1" d="M94.84,22a2.29,2.29,0,0,1,2.62,2.29c.07,3.24-4.78,3.08-4.85.14A2.2,2.2,0,0,1,94.84,22Z"/><path class="cls-1" d="M47.71,22.28a2.1,2.1,0,0,1,2.35,2.09c0,2.94-4.26,2.63-4.32.07A2,2,0,0,1,47.71,22.28Z"/><path class="cls-1" d="M106.62,22.28A2.11,2.11,0,0,1,109,24.37c0,2.94-4.27,2.63-4.32.07A2,2,0,0,1,106.62,22.28Z"/><path class="cls-1" d="M35.79,22.73A1.71,1.71,0,0,1,37,25.88C34.78,27.06,33.17,23.22,35.79,22.73Z"/><path class="cls-1" d="M118.21,22.73c2.75-.59,2.74,3.86,0,3.34C116.84,25.82,116.25,23.16,118.21,22.73Z"/><path class="cls-1" d="M130.25,23.39a1.08,1.08,0,0,1,.92.26c1.31,1.45-1.83,2.61-1.83.72C129.34,23.85,129.54,23.49,130.25,23.39Z"/><path class="cls-1" d="M24,23.45c.81-.23,1.2.16,1.31.59.38,1.56-2.22,2-2,.13A.84.84,0,0,1,24,23.45Z"/><path class="cls-1" d="M77,27.51a2.82,2.82,0,0,1,2.81,4.26,2.86,2.86,0,0,1-5.23-1.31A2.63,2.63,0,0,1,77,27.51Z"/><path class="cls-1" d="M65.12,27.58a3,3,0,0,1,2.29.59A2.79,2.79,0,0,1,65.25,33C62.06,32.66,62.11,28.08,65.12,27.58Z"/><path class="cls-1" d="M88.68,27.58a3,3,0,0,1,2.3.59A2.8,2.8,0,0,1,88.82,33C85.62,32.66,85.67,28.08,88.68,27.58Z"/><path class="cls-1" d="M53.4,27.78a2.53,2.53,0,0,1,2.23,4.32c-2.39,2.38-6-1.37-3.67-3.67A2.16,2.16,0,0,1,53.4,27.78Z"/><path class="cls-1" d="M100.53,27.78a2.53,2.53,0,0,1,2.23,4.32c-2.39,2.38-6-1.37-3.67-3.67A2.16,2.16,0,0,1,100.53,27.78Z"/><path class="cls-1" d="M41.68,28.1c2.63-.38,3.38,3.21,1.31,4.19-1.54.73-4.08-.75-3-3A2,2,0,0,1,41.68,28.1Z"/><path class="cls-1" d="M112.38,28.1c2.62-.38,3.38,3.21,1.31,4.19-1.54.73-4.08-.75-3-3A2,2,0,0,1,112.38,28.1Z"/><path class="cls-1" d="M29.77,28.62c3-.69,2.63,4.21-.2,3.28C28.4,31.51,27.87,29.07,29.77,28.62Z"/><path class="cls-1" d="M124,28.62c3-.69,2.64,4.21-.19,3.28C122.66,31.51,122.14,29.07,124,28.62Z"/><path class="cls-1" d="M18.18,29.41c2-.52,1,2.83-.39,1.57A.92.92,0,0,1,18.18,29.41Z"/><path class="cls-1" d="M136,29.41c2-.52,1,2.83-.39,1.57A.91.91,0,0,1,136,29.41Z"/><path class="cls-1" d="M70.88,33.21a3,3,0,0,1,3.4,4.19A3.2,3.2,0,0,1,70.22,39a3.07,3.07,0,0,1-1.57-4.06A3,3,0,0,1,70.88,33.21Z"/><path class="cls-1" d="M82.66,33.21a3,3,0,0,1,3.41,4.19A3.21,3.21,0,0,1,82,39a3.06,3.06,0,0,1-1.57-4.06A2.93,2.93,0,0,1,82.66,33.21Z"/><path class="cls-1" d="M59.1,33.34a2.91,2.91,0,0,1,3.47,2.22A3,3,0,0,1,59.1,39C56,38.53,56.12,33.88,59.1,33.34Z"/><path class="cls-1" d="M94.45,33.34a2.89,2.89,0,0,1,3.46,2.22A2.94,2.94,0,0,1,94.45,39C91.37,38.53,91.47,33.88,94.45,33.34Z"/><path class="cls-1" d="M47.38,33.6a2.62,2.62,0,0,1,3.14,2c.62,3.78-4.74,4.09-5.24,1A2.58,2.58,0,0,1,47.38,33.6Z"/><path class="cls-1" d="M106.29,33.6a2.61,2.61,0,0,1,3.14,2c.63,3.78-4.73,4.09-5.23,1A2.58,2.58,0,0,1,106.29,33.6Z"/><path class="cls-1" d="M35.6,34a3.21,3.21,0,0,1,1.44.07c1.2.48,2.25,3.3,0,4.19a2.29,2.29,0,0,1-3-3A2.17,2.17,0,0,1,35.6,34Z"/><path class="cls-1" d="M118.08,34a3.21,3.21,0,0,1,1.44.07c1.2.48,2.25,3.3,0,4.19a2.29,2.29,0,0,1-3-3A2.17,2.17,0,0,1,118.08,34Z"/><path class="cls-1" d="M24.07,34.52c2.51-.38,2.4,3.28.33,3.34A1.68,1.68,0,0,1,24.07,34.52Z"/><path class="cls-1" d="M130.12,34.52c2.51-.38,2.4,3.28.33,3.34A1.68,1.68,0,0,1,130.12,34.52Z"/><path class="cls-1" d="M12.36,35.43c.68-.17,1,.2,1,.72a.79.79,0,1,1-1.57,0A.65.65,0,0,1,12.36,35.43Z"/><path class="cls-1" d="M142,35.43c.68-.17,1,.2,1,.72a.79.79,0,1,1-1.57,0A.65.65,0,0,1,142,35.43Z"/><path class="cls-1" d="M76.84,38.84a3.68,3.68,0,0,1,2.16.32,3.45,3.45,0,0,1,.13,5.7,3.37,3.37,0,0,1-5-2.36,4.93,4.93,0,0,1,.46-2.22A3.26,3.26,0,0,1,76.84,38.84Z"/><path class="cls-1" d="M65.05,38.9a3.16,3.16,0,0,1,3.73,3.54c-.46,4.31-6.84,3.22-6.41-.79A3.09,3.09,0,0,1,65.05,38.9Z"/><path class="cls-1" d="M88.62,38.9a3.16,3.16,0,0,1,3.73,3.54c-.46,4.31-6.84,3.22-6.42-.79A3.11,3.11,0,0,1,88.62,38.9Z"/><path class="cls-1" d="M53.4,39.1a2.94,2.94,0,0,1,3.14,1.64,3,3,0,0,1-4,4C49.72,43.54,50.58,39.47,53.4,39.1Z"/><path class="cls-1" d="M100.53,39.1a3,3,0,0,1,3.15,1.64,3,3,0,0,1-4.06,4C96.85,43.54,97.71,39.47,100.53,39.1Z"/><path class="cls-1" d="M41.68,39.43a2.64,2.64,0,0,1,3,2.61c0,3.43-5.28,3.57-5.37.07A2.49,2.49,0,0,1,41.68,39.43Z"/><path class="cls-1" d="M112.38,39.43a2.63,2.63,0,0,1,3,2.61c0,3.43-5.28,3.57-5.37.07A2.5,2.5,0,0,1,112.38,39.43Z"/><path class="cls-1" d="M29.9,39.89c2.62-.39,3.38,3.21,1.31,4.18-1.55.73-4.08-.74-3-3A2,2,0,0,1,29.9,39.89Z"/><path class="cls-1" d="M124.16,39.89c2.63-.39,3.38,3.21,1.31,4.18-1.54.73-4.08-.74-3-3A2,2,0,0,1,124.16,39.89Z"/><path class="cls-1" d="M18.18,40.54c2.26-.37,2.38,3,.33,3.08C16.7,43.68,16.28,40.85,18.18,40.54Z"/><path class="cls-1" d="M136,40.54c2.83-.55,2.08,4.1-.4,3A1.6,1.6,0,0,1,136,40.54Z"/><path class="cls-1" d="M70.88,44.53a3.55,3.55,0,0,1,3.08.92,4,4,0,0,1,1,2.94c-.47,4.18-7.48,4-6.94-.91a3.31,3.31,0,0,1,2.88-2.95Z"/><path class="cls-1" d="M82.66,44.53a3.55,3.55,0,0,1,3.08.92,4,4,0,0,1,1,2.94c-.46,4.18-7.48,4-6.94-.91a3.31,3.31,0,0,1,2.88-2.95Z"/><path class="cls-1" d="M59.36,44.66A3.28,3.28,0,0,1,63,47.87c.07,4.47-6.67,4.38-6.67.07A3.14,3.14,0,0,1,59.36,44.66Z"/><path class="cls-1" d="M94.71,44.66a3.28,3.28,0,0,1,3.66,3.21c.06,4.47-6.67,4.38-6.67.07A3.14,3.14,0,0,1,94.71,44.66Z"/><path class="cls-1" d="M47.31,45a3,3,0,0,1,3.41,4.19,3.2,3.2,0,0,1-4.06,1.57,3.06,3.06,0,0,1-1.57-4.06A2.93,2.93,0,0,1,47.31,45Z"/><path class="cls-1" d="M106.23,45a3,3,0,0,1,3.4,4.19,3.19,3.19,0,0,1-4.06,1.57A3.06,3.06,0,0,1,104,46.69,3,3,0,0,1,106.23,45Z"/><path class="cls-1" d="M35.66,45.38a2.61,2.61,0,0,1,2.82,3.8,2.72,2.72,0,0,1-4.72,0,3.3,3.3,0,0,1,0-2.49A2.54,2.54,0,0,1,35.66,45.38Z"/><path class="cls-1" d="M118.14,45.38a2.61,2.61,0,0,1,2.82,3.8,2.72,2.72,0,0,1-4.72,0,3.3,3.3,0,0,1,0-2.49A2.54,2.54,0,0,1,118.14,45.38Z"/><path class="cls-1" d="M23.94,45.91c2.88-.49,3.28,3.81.72,4.12a2.15,2.15,0,0,1-2.42-2.35c.08-.85.15-.72.39-1A2,2,0,0,1,23.94,45.91Z"/><path class="cls-1" d="M130,45.91c2.88-.49,3.28,3.81.72,4.12a2.15,2.15,0,0,1-2.42-2.35c.08-.85.14-.72.39-1A2,2,0,0,1,130,45.91Z"/><path class="cls-1" d="M12.42,46.63c1.71-.19,2.06,2.61.2,2.68C11.07,49.37,10.58,46.83,12.42,46.63Z"/><path class="cls-1" d="M142,46.63c1.72-.19,2.06,2.61.2,2.68C140.69,49.37,140.19,46.83,142,46.63Z"/><path class="cls-1" d="M77.23,50.16a4.17,4.17,0,0,1,2.16.53A3.74,3.74,0,1,1,75.33,57a3.83,3.83,0,0,1-1.11-5.17A3.6,3.6,0,0,1,77.23,50.16Z"/><path class="cls-1" d="M65.05,50.29a3.57,3.57,0,0,1,3.67,5.37,3.74,3.74,0,0,1-6.29,0,4.22,4.22,0,0,1,0-3.67A3.65,3.65,0,0,1,65.05,50.29Z"/><path class="cls-1" d="M88.62,50.29a3.56,3.56,0,0,1,3.66,5.37,3.73,3.73,0,0,1-6.28,0A4.18,4.18,0,0,1,86,52,3.63,3.63,0,0,1,88.62,50.29Z"/><path class="cls-1" d="M53.27,50.55a3.29,3.29,0,0,1,3.86,3.67c-.35,3.65-6.2,4.07-6.67.07A3.19,3.19,0,0,1,53.27,50.55Z"/><path class="cls-1" d="M100.4,50.55a3.28,3.28,0,0,1,3.86,3.67c-.35,3.65-6.2,4.07-6.67.07A3.19,3.19,0,0,1,100.4,50.55Z"/><path class="cls-1" d="M41.75,50.88a3,3,0,0,1,3.08,4.06c-1.19,3.21-7.14,1.86-5.63-2.23A2.71,2.71,0,0,1,41.75,50.88Z"/><path class="cls-1" d="M112.45,50.88a3,3,0,0,1,3.07,4.06c-1.18,3.21-7.13,1.86-5.63-2.23A2.73,2.73,0,0,1,112.45,50.88Z"/><path class="cls-1" d="M30,51.34a2.5,2.5,0,0,1,2.75,2.42c.08,3.54-5.1,3.19-5.1.07A2.35,2.35,0,0,1,30,51.34Z"/><path class="cls-1" d="M124.29,51.34A2.5,2.5,0,0,1,127,53.76c.09,3.54-5.1,3.19-5.1.07A2.35,2.35,0,0,1,124.29,51.34Z"/><path class="cls-1" d="M18,52a1.91,1.91,0,0,1,2.22,2.69,2,2,0,0,1-2.62.92A1.94,1.94,0,0,1,16.68,53,1.82,1.82,0,0,1,18,52Z"/><path class="cls-1" d="M135.82,52A1.92,1.92,0,0,1,138,54.68a2,2,0,0,1-2.62.92,1.93,1.93,0,0,1-.91-2.62A1.82,1.82,0,0,1,135.82,52Z"/><path class="cls-1" d="M6.53,52.85a1,1,0,0,1,.92.26c1.31,1.44-1.83,2.61-1.83.72C5.62,53.3,5.82,53,6.53,52.85Z"/><path class="cls-1" d="M147.93,52.85a1,1,0,0,1,.91.26c1.31,1.44-1.83,2.61-1.83.72C147,53.3,147.21,53,147.93,52.85Z"/><path class="cls-1" d="M71,55.92a3.78,3.78,0,0,1,3.21,1,4.28,4.28,0,0,1,.85,4.25A4,4,0,0,1,70,63.32,3.85,3.85,0,0,1,71,55.92Z"/><path class="cls-1" d="M82.79,55.92A3.76,3.76,0,0,1,86,57a4.28,4.28,0,0,1,.85,4.25,3.9,3.9,0,1,1-4.06-5.3Z"/><path class="cls-1" d="M59.43,56.12a3.59,3.59,0,0,1,3.92,3.53,3.73,3.73,0,0,1-5.69,3.15,3.58,3.58,0,0,1-1.64-3A3.5,3.5,0,0,1,59.43,56.12Z"/><path class="cls-1" d="M94.77,56.12a3.59,3.59,0,0,1,3.93,3.53A3.73,3.73,0,0,1,93,62.8a3.58,3.58,0,0,1-1.64-3A3.5,3.5,0,0,1,94.77,56.12Z"/><path class="cls-1" d="M47.77,56.45a3.22,3.22,0,0,1,3.47,3.2c.08,4.37-6.68,4.53-6.68.07A3.22,3.22,0,0,1,47.77,56.45Z"/><path class="cls-1" d="M106.69,56.45a3.23,3.23,0,0,1,3.47,3.2c.07,4.37-6.68,4.53-6.68.07A3.21,3.21,0,0,1,106.69,56.45Z"/><path class="cls-1" d="M35.66,56.9A2.84,2.84,0,0,1,39,60.05c-.37,3.8-6.12,3-5.76-.66a2.26,2.26,0,0,1,.85-1.77A2.84,2.84,0,0,1,35.66,56.9Z"/><path class="cls-1" d="M118.14,56.9a2.84,2.84,0,0,1,3.34,3.15c-.37,3.8-6.12,3-5.76-.66a2.26,2.26,0,0,1,.85-1.77A2.84,2.84,0,0,1,118.14,56.9Z"/><path class="cls-1" d="M23.94,57.43c3.39-.53,3.69,4.87.2,4.65C21.26,61.89,21.41,57.82,23.94,57.43Z"/><path class="cls-1" d="M129.92,57.43c4.09-.73,3.31,6-.45,4.52a2.91,2.91,0,0,1-1.31-1.31A2.41,2.41,0,0,1,129.92,57.43Z"/><path class="cls-1" d="M12.1,58.15a1.66,1.66,0,0,1,2,2.22c-.61,1.73-4,1.13-3.15-1.31A1.73,1.73,0,0,1,12.1,58.15Z"/><path class="cls-1" d="M141.71,58.15a1.66,1.66,0,0,1,2,2.22c-.61,1.73-4,1.13-3.15-1.31A1.73,1.73,0,0,1,141.71,58.15Z"/><path class="cls-1" d="M1.16,59.33c.36.17.2.91-.19.91A4.88,4.88,0,0,1,1.16,59.33Z"/><path class="cls-1" d="M153.49,59.33a2.22,2.22,0,0,1,.2.91A.6.6,0,0,1,153.49,59.33Z"/><path class="cls-1" d="M76.77,61.62A4,4,0,0,1,81,67.57c-1.6,3-7.19,2.73-7.66-1.44a4.76,4.76,0,0,1,.46-2.48A4.32,4.32,0,0,1,76.77,61.62Z"/><path class="cls-1" d="M65.18,61.75a3.86,3.86,0,0,1,4.32,3.86c0,5-7.77,5.22-7.85.07A3.75,3.75,0,0,1,65.18,61.75Z"/><path class="cls-1" d="M88.75,61.75a3.85,3.85,0,0,1,4.32,3.86c0,5.14-7.86,5.17-7.86,0A3.77,3.77,0,0,1,88.75,61.75Z"/><path class="cls-1" d="M53.4,62.08a3.61,3.61,0,0,1,3.41,5.56c-1.75,2.68-6.56,1.7-6.62-2A3.42,3.42,0,0,1,53.4,62.08Z"/><path class="cls-1" d="M100.47,62.08a3.5,3.5,0,0,1,3.66,1.83,3.66,3.66,0,0,1-4.91,4.91,3.94,3.94,0,0,1-1.89-3A3.43,3.43,0,0,1,100.47,62.08Z"/><path class="cls-1" d="M41.75,62.47c3.42-.32,4.73,4.53,1.7,6a3.24,3.24,0,0,1-4.65-2.81A3,3,0,0,1,41.75,62.47Z"/><path class="cls-1" d="M112.45,62.47c3.42-.32,4.72,4.53,1.7,6a3.24,3.24,0,0,1-4.65-2.81A3,3,0,0,1,112.45,62.47Z"/><path class="cls-1" d="M29.64,63a2.68,2.68,0,0,1,3.27,3.21c-.53,3-4.94,2.42-5.36,0A2.62,2.62,0,0,1,29.64,63Z"/><path class="cls-1" d="M123.9,63a2.69,2.69,0,0,1,3.28,3.21c-.54,3-5,2.42-5.37,0A2.62,2.62,0,0,1,123.9,63Z"/><path class="cls-1" d="M18,63.58a2.09,2.09,0,0,1,2.48,2.75c-.63,2.14-4.61,1.72-4.12-1.18A2,2,0,0,1,18,63.58Z"/><path class="cls-1" d="M135.82,63.58a2.09,2.09,0,0,1,2.48,2.75c-.64,2.14-4.62,1.72-4.12-1.18A2,2,0,0,1,135.82,63.58Z"/><path class="cls-1" d="M6.53,64.37a1.28,1.28,0,1,1,.13,2.55A1.28,1.28,0,0,1,6.53,64.37Z"/><path class="cls-1" d="M147.93,64.37c1.73-.2,1.83,2.55.13,2.55A1.28,1.28,0,0,1,147.93,64.37Z"/><path class="cls-1" d="M79.91,80.86c-1.14,1-3.92,1.11-5,0a4.23,4.23,0,0,1-3.07,6.55A4.13,4.13,0,1,1,73.89,80a4.42,4.42,0,0,1-.06-5,4.21,4.21,0,0,1-6.49-4.06,4.1,4.1,0,0,1,3.47-3.53,4.18,4.18,0,0,1,4.13,6.41c1-.78,3.75-1,4.84.07a4.21,4.21,0,0,1,4.06-6.48,4.1,4.1,0,0,1,3.54,3.47A4.18,4.18,0,0,1,81,75c.79,1,1,3.75-.07,4.85,0,.05-.06.06-.06.13a4.12,4.12,0,1,1-.92.91Z"/><path class="cls-1" d="M59.43,67.71a3.79,3.79,0,0,1,4.12,3.79c0,5-7.73,5.07-7.73,0A3.7,3.7,0,0,1,59.43,67.71Z"/><path class="cls-1" d="M94.77,67.71A3.79,3.79,0,0,1,98.9,71.5c0,5-7.73,5.07-7.73,0A3.7,3.7,0,0,1,94.77,67.71Z"/><path class="cls-1" d="M47.57,68.1a3.42,3.42,0,0,1,3.8,3.34c.06,4.42-6.87,4.72-6.94.13A3.32,3.32,0,0,1,47.57,68.1Z"/><path class="cls-1" d="M106.49,68.1a3.42,3.42,0,0,1,3.8,3.34c.06,4.42-6.88,4.72-6.94.13A3.31,3.31,0,0,1,106.49,68.1Z"/><path class="cls-1" d="M35.73,68.56a2.94,2.94,0,0,1,3.14,1.63,3,3,0,0,1-4.06,4.06C32,73,32.9,68.93,35.73,68.56Z"/><path class="cls-1" d="M118.21,68.56a2.94,2.94,0,0,1,3.14,1.63,3,3,0,0,1-4.06,4.06C114.52,73,115.38,68.93,118.21,68.56Z"/><path class="cls-1" d="M24,69.08a2.46,2.46,0,0,1,2.82,2.36c.08,3.49-4.91,3.08-5,.13A2.27,2.27,0,0,1,24,69.08Z"/><path class="cls-1" d="M130.06,69.08a2.45,2.45,0,0,1,2.81,2.36c.09,3.49-4.9,3.08-5,.13A2.26,2.26,0,0,1,130.06,69.08Z"/><path class="cls-1" d="M12.42,69.73a1.83,1.83,0,0,1,1,3.41C10.91,74.41,9.53,70,12.42,69.73Z"/><path class="cls-1" d="M142,69.73a1.83,1.83,0,0,1,1,3.41C140.52,74.41,139.14,70,142,69.73Z"/><path class="cls-1" d="M.64,70.78c1-.18,1.27,1.44.2,1.51C0,72.34-.43,71,.64,70.78Z"/><path class="cls-1" d="M153.75,70.78c.68-.17,1,.19,1,.72a.79.79,0,1,1-1.57,0A.65.65,0,0,1,153.75,70.78Z"/><path class="cls-1" d="M65.32,73.4a4.06,4.06,0,0,1,3.14,6.87,4.2,4.2,0,0,1-5.76,0,4.39,4.39,0,0,1,.06-5.82A3.65,3.65,0,0,1,65.32,73.4Z"/><path class="cls-1" d="M88.88,73.4A4.06,4.06,0,0,1,92,80.27a4.2,4.2,0,0,1-5.76,0,4.39,4.39,0,0,1,.07-5.82A3.65,3.65,0,0,1,88.88,73.4Z"/><path class="cls-1" d="M53.34,73.79a3.59,3.59,0,0,1,4.12,3.8,3.69,3.69,0,1,1-7.27-1A3.56,3.56,0,0,1,53.34,73.79Z"/><path class="cls-1" d="M100.47,73.79a3.59,3.59,0,0,1,4.12,3.8,3.68,3.68,0,1,1-7.26-1A3.53,3.53,0,0,1,100.47,73.79Z"/><path class="cls-1" d="M41.88,74.19a3.15,3.15,0,0,1,3.4,3.14c.08,4.21-6.47,4.38-6.54.13A3.22,3.22,0,0,1,41.88,74.19Z"/><path class="cls-1" d="M112.58,74.19a3.16,3.16,0,0,1,3.4,3.14c.07,4.21-6.47,4.38-6.55.13A3.22,3.22,0,0,1,112.58,74.19Z"/><path class="cls-1" d="M29.7,74.71c3.42-.63,4.62,4.5,1.31,5.37a2.9,2.9,0,0,1-3.53-2.16A2.66,2.66,0,0,1,29.7,74.71Z"/><path class="cls-1" d="M124,74.71c3.41-.63,4.61,4.5,1.31,5.37a2.9,2.9,0,0,1-3.54-2.16A2.66,2.66,0,0,1,124,74.71Z"/><path class="cls-1" d="M18,75.3A2.19,2.19,0,0,1,20,79a2.34,2.34,0,0,1-3.14,0A2.19,2.19,0,0,1,18,75.3Z"/><path class="cls-1" d="M135.82,75.3a2.19,2.19,0,0,1,2,3.66,2.36,2.36,0,0,1-3.15,0A2.19,2.19,0,0,1,135.82,75.3Z"/><path class="cls-1" d="M6.53,76.08c1.71-.18,2.06,2.62.2,2.69C5.18,78.83,4.69,76.29,6.53,76.08Z"/><path class="cls-1" d="M147.93,76.08c1.71-.18,2,2.62.19,2.69C146.58,78.83,146.08,76.29,147.93,76.08Z"/><path class="cls-1" d="M59,79.55a3.78,3.78,0,0,1,4.45,4.39,3.85,3.85,0,0,1-7.59-1.31A3.72,3.72,0,0,1,59,79.55Z"/><path class="cls-1" d="M94.38,79.55a3.78,3.78,0,0,1,4.45,4.39,3.85,3.85,0,0,1-7.59-1.31A3.72,3.72,0,0,1,94.38,79.55Z"/><path class="cls-1" d="M47.25,80a3.45,3.45,0,0,1,3.14,5.76,3.5,3.5,0,0,1-5.89-3.08A3.25,3.25,0,0,1,47.25,80Z"/><path class="cls-1" d="M106.16,80a3.45,3.45,0,0,1,3.14,5.76,3.5,3.5,0,0,1-5.89-3.08A3.27,3.27,0,0,1,106.16,80Z"/><path class="cls-1" d="M35.79,80.34a3,3,0,0,1,3.34,2.88c.08,3.77-5.24,4-6,.72A2.87,2.87,0,0,1,35.79,80.34Z"/><path class="cls-1" d="M118.27,80.34a3,3,0,0,1,3.34,2.88c.08,3.77-5.24,4-6,.72A2.87,2.87,0,0,1,118.27,80.34Z"/><path class="cls-1" d="M24.07,80.86a2.43,2.43,0,0,1,2.76,2.43c0,3.41-4.91,3-5,.06A2.29,2.29,0,0,1,24.07,80.86Z"/><path class="cls-1" d="M130.12,80.86a2.43,2.43,0,0,1,2.75,2.43c0,3.41-4.9,3-5,.06A2.28,2.28,0,0,1,130.12,80.86Z"/><path class="cls-1" d="M12.16,81.58c3-.6,2.61,4.35-.26,3.41C10.6,84.56,10.21,82,12.16,81.58Z"/><path class="cls-1" d="M141.77,81.58c3-.6,2.61,4.35-.26,3.41C140.21,84.56,139.82,82,141.77,81.58Z"/><path class="cls-1" d="M.58,82.63c.62-.17.86.15.91.52a.73.73,0,1,1-1.44.2C0,82.88.17,82.74.58,82.63Z"/><path class="cls-1" d="M153.75,82.63c.63-.17.87.15.92.52a.73.73,0,1,1-1.44.2C153.2,82.88,153.34,82.74,153.75,82.63Z"/><path class="cls-1" d="M76.77,85.25a3.92,3.92,0,0,1,4.58,3.4c.59,5.23-7.4,6.24-8,1A3.93,3.93,0,0,1,76.77,85.25Z"/><path class="cls-1" d="M65.05,85.38a3.79,3.79,0,0,1,4.39,4.19c-.44,4.76-8.14,4.59-7.73-.72A3.72,3.72,0,0,1,65.05,85.38Z"/><path class="cls-1" d="M88.62,85.38A3.8,3.8,0,0,1,93,89.57c-.45,4.76-8.15,4.59-7.73-.72A3.72,3.72,0,0,1,88.62,85.38Z"/><path class="cls-1" d="M53.2,85.71a3.72,3.72,0,0,1,3.61,1.5c2,3.14-1.74,7.09-5,5a3.65,3.65,0,0,1-1.57-3.6A3.34,3.34,0,0,1,53.2,85.71Z"/><path class="cls-1" d="M100.34,85.71a3.71,3.71,0,0,1,3.6,1.5,3.62,3.62,0,0,1-5,5,3.65,3.65,0,0,1-1.57-3.6A3.34,3.34,0,0,1,100.34,85.71Z"/><path class="cls-1" d="M41.42,86.1a4.07,4.07,0,0,1,1.84.13,3.33,3.33,0,0,1,1.89,3.54,3.15,3.15,0,0,1-2.55,2.55,3.23,3.23,0,0,1-3.73-3.73A3,3,0,0,1,41.42,86.1Z"/><path class="cls-1" d="M112.12,86.1a4,4,0,0,1,1.83.13,3.34,3.34,0,0,1,1.9,3.54,3.16,3.16,0,0,1-2.55,2.55,3.23,3.23,0,0,1-3.73-3.73A3,3,0,0,1,112.12,86.1Z"/><path class="cls-1" d="M29.77,86.56a2.61,2.61,0,0,1,3.14,2.22,2.71,2.71,0,1,1-5.36.07A2.5,2.5,0,0,1,29.77,86.56Z"/><path class="cls-1" d="M124,86.56a2.65,2.65,0,0,1,3.15,2.94c-.33,3.14-5,2.91-5.37.07A2.62,2.62,0,0,1,124,86.56Z"/><path class="cls-1" d="M18.05,87.15A2.1,2.1,0,0,1,20,90.68a2.2,2.2,0,0,1-3,0A2.1,2.1,0,0,1,18.05,87.15Z"/><path class="cls-1" d="M135.88,87.15a2.1,2.1,0,0,1,1.9,3.53,2.2,2.2,0,0,1-3,0A2.1,2.1,0,0,1,135.88,87.15Z"/><path class="cls-1" d="M6.34,88a1.2,1.2,0,0,1,1.5,1.57A1.26,1.26,0,1,1,6.34,88Z"/><path class="cls-1" d="M147.73,88a1.2,1.2,0,0,1,1.5,1.57,1.26,1.26,0,1,1-1.5-1.57Z"/><path class="cls-1" d="M71,91.34a3.79,3.79,0,0,1,3.67,5.82c-2,3-7.18,1.68-7-2.29A3.59,3.59,0,0,1,71,91.34Z"/><path class="cls-1" d="M82.79,91.34a3.79,3.79,0,0,1,3.67,5.82,3.85,3.85,0,0,1-7-2.29A3.59,3.59,0,0,1,82.79,91.34Z"/><path class="cls-1" d="M59.23,91.53a3.5,3.5,0,0,1,3.66,1.84A3.66,3.66,0,0,1,58,98.28a4,4,0,0,1-1.89-3A3.45,3.45,0,0,1,59.23,91.53Z"/><path class="cls-1" d="M94.58,91.53a3.5,3.5,0,0,1,3.66,1.84,3.66,3.66,0,0,1-4.91,4.91,4,4,0,0,1-1.9-3A3.45,3.45,0,0,1,94.58,91.53Z"/><path class="cls-1" d="M47.44,91.86a3.27,3.27,0,0,1,3.41,4.71,3.41,3.41,0,0,1-5.89,0,3.09,3.09,0,0,1,0-3A3.36,3.36,0,0,1,47.44,91.86Z"/><path class="cls-1" d="M106.36,91.86a3.26,3.26,0,0,1,3.4,4.71,3.41,3.41,0,0,1-5.89,0,3.12,3.12,0,0,1,0-3A3.38,3.38,0,0,1,106.36,91.86Z"/><path class="cls-1" d="M35.53,92.32a2.8,2.8,0,0,1,3.41,2.16c.72,4.44-6.38,4.56-5.63,0A2.63,2.63,0,0,1,35.53,92.32Z"/><path class="cls-1" d="M118,92.32a2.78,2.78,0,0,1,3.4,2.16c.73,4.44-6.37,4.56-5.62,0A2.63,2.63,0,0,1,118,92.32Z"/><path class="cls-1" d="M24.21,92.78A2.33,2.33,0,0,1,26,96.7c-2.22,2.33-5.58-1.37-3.27-3.4A2,2,0,0,1,24.21,92.78Z"/><path class="cls-1" d="M130.25,92.78a2.33,2.33,0,0,1,1.83,3.92c-2.22,2.33-5.58-1.37-3.27-3.4A2,2,0,0,1,130.25,92.78Z"/><path class="cls-1" d="M12.29,93.5c2.35-.38,2.44,3.13.33,3.2A1.61,1.61,0,0,1,12.29,93.5Z"/><path class="cls-1" d="M141.9,93.5c2.35-.38,2.44,3.13.33,3.2A1.61,1.61,0,0,1,141.9,93.5Z"/><path class="cls-1" d="M76.71,97.42a3.46,3.46,0,0,1,4.05,2.16A3.69,3.69,0,0,1,76,104.36a3.73,3.73,0,0,1-2.23-2.75A3.57,3.57,0,0,1,76.71,97.42Z"/><path class="cls-1" d="M65.05,97.49a3.31,3.31,0,0,1,3,1,2.08,2.08,0,0,1,.86,1.18,3.64,3.64,0,1,1-3.87-2.16Z"/><path class="cls-1" d="M88.62,97.49a3.32,3.32,0,0,1,3,1,2.08,2.08,0,0,1,.85,1.18,3.58,3.58,0,1,1-6.68,0A3.65,3.65,0,0,1,88.62,97.49Z"/><path class="cls-1" d="M53.2,97.75a3.26,3.26,0,0,1,3.87,3.8c-.57,3.93-7.23,3.52-6.55-1.18A3.16,3.16,0,0,1,53.2,97.75Z"/><path class="cls-1" d="M100.34,97.75a3.25,3.25,0,0,1,3.86,3.8c-.57,3.93-7.23,3.52-6.55-1.18A3.16,3.16,0,0,1,100.34,97.75Z"/><path class="cls-1" d="M41.62,98.08A2.89,2.89,0,0,1,45,101c0,3.62-5.89,4-5.89,0A2.72,2.72,0,0,1,41.62,98.08Z"/><path class="cls-1" d="M112.32,98.08a2.89,2.89,0,0,1,3.33,2.88c0,3.62-5.89,4-5.89,0A2.72,2.72,0,0,1,112.32,98.08Z"/><path class="cls-1" d="M29.9,98.54a2.45,2.45,0,0,1,2.82,2.35c.08,3.5-4.9,3.09-5,.14A2.28,2.28,0,0,1,29.9,98.54Z"/><path class="cls-1" d="M124.1,98.54A2.41,2.41,0,0,1,127,100.7a2.48,2.48,0,0,1-2.69,2.75c-2.55-.17-2.91-3.59-1.11-4.65A2.45,2.45,0,0,1,124.1,98.54Z"/><path class="cls-1" d="M18.25,99.12c2.46-.27,2.79,3.67.26,3.74A1.88,1.88,0,0,1,18.25,99.12Z"/><path class="cls-1" d="M136.08,99.12c2.46-.27,2.79,3.67.26,3.74A1.88,1.88,0,0,1,136.08,99.12Z"/><path class="cls-1" d="M6.4,100.11c2-.52,1,2.82-.39,1.57A.91.91,0,0,1,6.4,100.11Z"/><path class="cls-1" d="M147.79,100.11c2-.52,1,2.82-.39,1.57A.92.92,0,0,1,147.79,100.11Z"/><path class="cls-1" d="M70.94,103.51a3.38,3.38,0,0,1,3.93,2.88c.55,4.64-6.3,5.19-6.81.92A3.32,3.32,0,0,1,70.94,103.51Z"/><path class="cls-1" d="M82.73,103.51a3.37,3.37,0,0,1,3.92,2.88c.55,4.64-6.3,5.19-6.8.92A3.31,3.31,0,0,1,82.73,103.51Z"/><path class="cls-1" d="M59.36,103.64a3.2,3.2,0,0,1,3.6,3.15c.06,4.49-6.55,4.17-6.55.06A3.06,3.06,0,0,1,59.36,103.64Z"/><path class="cls-1" d="M94.71,103.64a3.2,3.2,0,0,1,3.6,3.15c.06,4.49-6.55,4.17-6.55.06A3.06,3.06,0,0,1,94.71,103.64Z"/><path class="cls-1" d="M47.31,104c4.64-.85,4.66,6.71-.06,5.76C44.4,109.16,44.07,104.56,47.31,104Z"/><path class="cls-1" d="M106.23,104c4.64-.85,4.66,6.71-.07,5.76C103.31,109.16,103,104.56,106.23,104Z"/><path class="cls-1" d="M35.6,104.36a2.56,2.56,0,0,1,2.94,3.47c-.65,1.77-4,2.29-4.84,0a2.73,2.73,0,0,1,0-2A2.55,2.55,0,0,1,35.6,104.36Z"/><path class="cls-1" d="M118.08,104.36a2.56,2.56,0,0,1,2.94,3.47c-.65,1.77-4,2.29-4.84,0a2.73,2.73,0,0,1,0-2A2.55,2.55,0,0,1,118.08,104.36Z"/><path class="cls-1" d="M23.88,104.89c3.45-.7,3.14,5-.26,3.92C22,108.32,21.74,105.32,23.88,104.89Z"/><path class="cls-1" d="M129.92,104.89c3.46-.7,3.15,5-.26,3.92C128.05,108.32,127.78,105.32,129.92,104.89Z"/><path class="cls-1" d="M12.16,105.67a1.27,1.27,0,0,1,.79,2.42c-.77.18-2-.2-1.64-1.63A1.23,1.23,0,0,1,12.16,105.67Z"/><path class="cls-1" d="M141.77,105.67a1.27,1.27,0,0,1,.79,2.42c-.77.18-2-.2-1.64-1.63A1.25,1.25,0,0,1,141.77,105.67Z"/><path class="cls-1" d="M76.9,109.6a3.19,3.19,0,0,1,3.34,4.65c-1.37,2.68-5.82,2-6.09-1.18a3.88,3.88,0,0,1,.33-1.83A3.15,3.15,0,0,1,76.9,109.6Z"/><path class="cls-1" d="M65.18,109.67a3.05,3.05,0,0,1,3.54,3,3.14,3.14,0,1,1-3.54-3Z"/><path class="cls-1" d="M88.75,109.67a3,3,0,0,1,3.53,3,3.14,3.14,0,1,1-3.53-3Z"/><path class="cls-1" d="M53.47,109.86c4.13-.47,4.18,5.75.39,5.83a2.91,2.91,0,0,1-3-2.88A2.76,2.76,0,0,1,53.47,109.86Z"/><path class="cls-1" d="M100.6,109.86c4.13-.47,4.18,5.75.39,5.83a2.91,2.91,0,0,1-3-2.88A2.76,2.76,0,0,1,100.6,109.86Z"/><path class="cls-1" d="M41.82,110.19a3,3,0,0,1,1.5.26,2.44,2.44,0,0,1,1.31,2.23c.08,3.3-5.16,3.57-5.24.13A2.46,2.46,0,0,1,41.82,110.19Z"/><path class="cls-1" d="M112.38,110.19a2.55,2.55,0,0,1,3,2.55c0,3.64-5.24,3.15-5.24,0A2.38,2.38,0,0,1,112.38,110.19Z"/><path class="cls-1" d="M30,110.65a2.11,2.11,0,0,1,2.36,2.09c0,3-4.26,2.63-4.32.07A2,2,0,0,1,30,110.65Z"/><path class="cls-1" d="M124.29,110.65a2.11,2.11,0,0,1,2.36,2.09c0,3-4.26,2.63-4.32.07A2,2,0,0,1,124.29,110.65Z"/><path class="cls-1" d="M18,111.37c2.2-.67,2.45,2.44.91,2.81C17,114.64,16.28,111.88,18,111.37Z"/><path class="cls-1" d="M135.82,111.37c2.2-.67,2.45,2.44.91,2.81C134.83,114.64,134.11,111.88,135.82,111.37Z"/><path class="cls-1" d="M70.94,115.75c4.86-.81,4.33,7.13-.39,5.7a2.94,2.94,0,0,1,.39-5.7Z"/><path class="cls-1" d="M82.73,115.75c4.86-.81,4.32,7.13-.4,5.7a2.94,2.94,0,0,1,.4-5.7Z"/><path class="cls-1" d="M59.16,115.88a2.8,2.8,0,0,1,3.34,2.23,2.88,2.88,0,0,1-2.29,3.34,2.91,2.91,0,0,1-3.34-3.21A2.67,2.67,0,0,1,59.16,115.88Z"/><path class="cls-1" d="M94.51,115.88a2.8,2.8,0,0,1,3.34,2.23,2.85,2.85,0,1,1-5.63.13A2.67,2.67,0,0,1,94.51,115.88Z"/><path class="cls-1" d="M47.44,116.14a2.58,2.58,0,0,1,2.17,4.46c-2.51,2.09-5.61-1.36-3.67-3.67A2.36,2.36,0,0,1,47.44,116.14Z"/><path class="cls-1" d="M106.36,116.14a2.58,2.58,0,0,1,2.16,4.46c-2.5,2.09-5.6-1.36-3.67-3.67A2.42,2.42,0,0,1,106.36,116.14Z"/><path class="cls-1" d="M35.66,116.54a2.15,2.15,0,0,1,2.56,2.81c-.55,1.83-3.65,1.85-4.19,0A2.15,2.15,0,0,1,35.66,116.54Z"/><path class="cls-1" d="M118.14,116.54a2.14,2.14,0,0,1,2.55,2.81c-.54,1.83-3.64,1.85-4.18,0A2.15,2.15,0,0,1,118.14,116.54Z"/><path class="cls-1" d="M23.88,117.13a1.55,1.55,0,0,1,2,2,1.59,1.59,0,1,1-3-1A1.4,1.4,0,0,1,23.88,117.13Z"/><path class="cls-1" d="M129.92,117.13a1.55,1.55,0,0,1,2,2c-.5,1.73-3.71,1.37-3-1A1.38,1.38,0,0,1,129.92,117.13Z"/><path class="cls-1" d="M12.36,118c.59-.18.8.13.85.46C13.47,120.27,10.74,118.55,12.36,118Z"/><path class="cls-1" d="M142,118c.59-.18.8.13.85.46C143.08,120.27,140.35,118.55,142,118Z"/><path class="cls-1" d="M77.23,121.84A2.74,2.74,0,0,1,78.67,127a2.78,2.78,0,0,1-3.73-3.73A2.73,2.73,0,0,1,77.23,121.84Z"/><path class="cls-1" d="M65.45,121.91a2.64,2.64,0,0,1,2.81,2.55c.08,3.57-5.29,3.52-5.37.13A2.56,2.56,0,0,1,65.45,121.91Z"/><path class="cls-1" d="M89,121.91a2.65,2.65,0,0,1,2.82,2.55c.08,3.57-5.3,3.52-5.37.13A2.55,2.55,0,0,1,89,121.91Z"/><path class="cls-1" d="M53.66,122.1a2.43,2.43,0,0,1,2.62,2.42c0,3.31-4.91,3.11-5,.07A2.34,2.34,0,0,1,53.66,122.1Z"/><path class="cls-1" d="M100.79,122.1a2.43,2.43,0,0,1,2.62,2.42c0,3.31-4.91,3.11-5,.07A2.34,2.34,0,0,1,100.79,122.1Z"/><path class="cls-1" d="M41.82,122.43a2.1,2.1,0,0,1,2.35,2.09c0,3-4.26,2.63-4.32.07A2,2,0,0,1,41.82,122.43Z"/><path class="cls-1" d="M112.51,122.43a2.11,2.11,0,0,1,2.36,2.09c0,3-4.26,2.63-4.32.07A2,2,0,0,1,112.51,122.43Z"/><path class="cls-1" d="M29.9,123c2.45-.45,2.63,3.45.2,3.21C28.44,126,28,123.32,29.9,123Z"/><path class="cls-1" d="M124.16,123c2.45-.45,2.63,3.45.2,3.21C122.7,126,122.21,123.32,124.16,123Z"/><path class="cls-1" d="M136.14,123.74a.76.76,0,0,1,1,.72.85.85,0,1,1-1.7.06A.76.76,0,0,1,136.14,123.74Z"/><path class="cls-1" d="M18.12,123.8a.81.81,0,0,1,1.11.4c.4,1.32-2.05,1.63-1.57,0A.75.75,0,0,1,18.12,123.8Z"/><path class="cls-1" d="M71.08,128.06a2.39,2.39,0,0,1,2.81,2.09c.29,3.23-4.58,3.52-4.84.53A2.28,2.28,0,0,1,71.08,128.06Z"/><path class="cls-1" d="M82.86,128.06a2.39,2.39,0,0,1,2.81,2.09c.29,3.23-4.57,3.52-4.84.53A2.28,2.28,0,0,1,82.86,128.06Z"/><path class="cls-1" d="M59.29,128.19c3.41-.57,3.49,4.84.14,4.52C57,132.48,56.64,128.64,59.29,128.19Z"/><path class="cls-1" d="M94.64,128.19c3.41-.57,3.49,4.84.13,4.52C92.37,132.48,92,128.64,94.64,128.19Z"/><path class="cls-1" d="M47.64,128.45a1.9,1.9,0,0,1,2.29,2c0,2.65-4,2.62-4.06.06A1.85,1.85,0,0,1,47.64,128.45Z"/><path class="cls-1" d="M106.55,128.45a1.9,1.9,0,0,1,2.3,2c0,2.65-4,2.62-4.06.06A1.84,1.84,0,0,1,106.55,128.45Z"/><path class="cls-1" d="M35.79,128.91c2.7-.53,2.36,3.88-.26,3C34.44,131.56,34,129.26,35.79,128.91Z"/><path class="cls-1" d="M118.21,128.91c2.59-.58,2.54,3.57,0,3.08A1.6,1.6,0,0,1,118.21,128.91Z"/><path class="cls-1" d="M24.21,129.63a.76.76,0,0,1,1,.72.85.85,0,1,1-1.7.07A.76.76,0,0,1,24.21,129.63Z"/><path class="cls-1" d="M130.25,129.63a.76.76,0,0,1,1,.72.85.85,0,1,1-1.7.07A.76.76,0,0,1,130.25,129.63Z"/><path class="cls-1" d="M76.9,134.28A2.1,2.1,0,0,1,79.39,137c-.64,2.14-4.62,1.71-4.12-1.18A2,2,0,0,1,76.9,134.28Z"/><path class="cls-1" d="M65.12,134.34c3.45-.69,3.14,5-.26,3.93C63.24,137.78,63,134.78,65.12,134.34Z"/><path class="cls-1" d="M88.68,134.34c3.46-.69,3.15,5-.26,3.93C86.81,137.78,86.54,134.78,88.68,134.34Z"/><path class="cls-1" d="M53.4,134.54a1.84,1.84,0,0,1,2.1,2.55c-.78,1.81-4.52,1-3.41-1.57A1.85,1.85,0,0,1,53.4,134.54Z"/><path class="cls-1" d="M100.53,134.54a1.84,1.84,0,0,1,2.1,2.55c-.77,1.81-4.51,1-3.41-1.57A1.87,1.87,0,0,1,100.53,134.54Z"/><path class="cls-1" d="M41.68,134.93A1.33,1.33,0,0,1,43.45,136c.29,2.09-3.13,2.43-2.88.07A1.31,1.31,0,0,1,41.68,134.93Z"/><path class="cls-1" d="M112.38,134.93a1.33,1.33,0,0,1,1.77,1.11c.29,2.09-3.13,2.43-2.88.07A1.29,1.29,0,0,1,112.38,134.93Z"/><path class="cls-1" d="M30,135.59c.69-.18,1,.19,1,.72a.79.79,0,1,1-1.57,0A.65.65,0,0,1,30,135.59Z"/><path class="cls-1" d="M124.29,135.59c.69-.18,1,.19,1,.72a.79.79,0,1,1-1.58,0A.66.66,0,0,1,124.29,135.59Z"/><path class="cls-1" d="M71.08,140.56a2.09,2.09,0,0,1,1.63.4c1.57,1.56-.87,4.09-2.49,2.48A1.73,1.73,0,0,1,71.08,140.56Z"/><path class="cls-1" d="M82.86,140.56a2.08,2.08,0,0,1,1.63.4c1.57,1.56-.87,4.09-2.48,2.48A1.73,1.73,0,0,1,82.86,140.56Z"/><path class="cls-1" d="M59.36,140.69c2.84-.55,2.08,4.11-.39,2.95A1.6,1.6,0,0,1,59.36,140.69Z"/><path class="cls-1" d="M94.71,140.69c2.83-.55,2.08,4.11-.4,2.95A1.6,1.6,0,0,1,94.71,140.69Z"/><path class="cls-1" d="M47.84,141a1.24,1.24,0,0,1,.91,2.1C47.19,144.53,45.53,141.19,47.84,141Z"/><path class="cls-1" d="M106.75,141a1.24,1.24,0,0,1,.92,2.1C106.1,144.53,104.45,141.19,106.75,141Z"/><path class="cls-1" d="M36.45,142.79a3,3,0,0,1-1-.66C35.67,140.82,37.55,142.09,36.45,142.79Z"/><path class="cls-1" d="M119.25,142.07a1.74,1.74,0,0,1-1,.65C117.18,142.09,119,140.86,119.25,142.07Z"/><path class="cls-1" d="M77,146.91a1.21,1.21,0,0,1,1.51,1.57A1.26,1.26,0,1,1,77,146.91Z"/><path class="cls-1" d="M65.38,147a1.15,1.15,0,1,1,.26,2.29C64.36,149.32,63.88,147.22,65.38,147Z"/><path class="cls-1" d="M89,147a1.15,1.15,0,1,1,.26,2.29C87.92,149.32,87.44,147.22,89,147Z"/><path class="cls-1" d="M53.47,147.3c.72-.24,1.07.08,1.18.46.42,1.54-2.15,1.61-1.71,0A.8.8,0,0,1,53.47,147.3Z"/><path class="cls-1" d="M100.6,147.3c.72-.24,1.07.08,1.18.46.42,1.54-2.15,1.61-1.71,0A.8.8,0,0,1,100.6,147.3Z"/><path class="cls-1" d="M72.12,154.18c-.51,0-.81-.1-1.31-.07A.67.67,0,1,1,72.12,154.18Z"/><path class="cls-1" d="M83.91,154.11c-.51,0-.81.11-1.31.07A.67.67,0,1,1,83.91,154.11Z"/><path class="cls-1" d="M7.19,42c.19.16-.07.41-.13.52C6.93,42.41,7.19,42.16,7.19,42Z"/></g></g></svg>