<svg xmlns="http://www.w3.org/2000/svg" viewBox="0 0 129.92 142.66"><defs><style>.cls-1{fill:#010101;}</style></defs><title>Asset 197mdpi</title><g id="Layer_2" data-name="Layer 2"><g id="Layer_1-2" data-name="Layer 1"><path class="cls-1" d="M121.49,109.23a1.88,1.88,0,0,1-1.67-1,10,10,0,0,0-6-4.88,1.89,1.89,0,0,1,1-3.63,13.66,13.66,0,0,1,8.33,6.75,1.89,1.89,0,0,1-.79,2.55A2,2,0,0,1,121.49,109.23Z"/><path class="cls-1" d="M18.91,58.29a1.94,1.94,0,0,1-1-.28,1.89,1.89,0,0,1-.59-2.6A123.74,123.74,0,0,1,30.44,38.05a1.88,1.88,0,1,1,2.79,2.53A120.45,120.45,0,0,0,20.51,57.41,1.88,1.88,0,0,1,18.91,58.29Z"/><path class="cls-1" d="M50.23,25.8a1.89,1.89,0,0,1-1.73-1.14,18.54,18.54,0,0,0-8-8.89,1.88,1.88,0,1,1,1.82-3.3A22.26,22.26,0,0,1,52,23.18a1.88,1.88,0,0,1-1,2.47A1.92,1.92,0,0,1,50.23,25.8Z"/><path class="cls-1" d="M44.64,45a1.89,1.89,0,0,1-1.85-1.56,56,56,0,0,0-4.52-14.17,1.88,1.88,0,1,1,3.4-1.61A59.54,59.54,0,0,1,46.5,42.79,1.89,1.89,0,0,1,45,45,1.84,1.84,0,0,1,44.64,45Z"/><path class="cls-1" d="M55.45,35a1.9,1.9,0,0,1-1.64-1,1.88,1.88,0,0,1,.72-2.56,98,98,0,0,1,23-9.4,1.88,1.88,0,1,1,1,3.64,94.4,94.4,0,0,0-22.17,9A1.83,1.83,0,0,1,55.45,35Z"/><path class="cls-1" d="M65.44,5H65.3L49.5,3.76A1.88,1.88,0,0,1,49.79,0L65.58,1.19A1.88,1.88,0,0,1,65.44,5Z"/><path class="cls-1" d="M10.06,51.46a1.89,1.89,0,0,1-1.8-1.32L5,39.89a1.88,1.88,0,0,1,3.59-1.13L11.85,49a1.89,1.89,0,0,1-1.79,2.45Z"/><path class="cls-1" d="M118.65,52.94a1.87,1.87,0,0,1-1.83-1.45l-2.34-10a1.88,1.88,0,1,1,3.66-.86l2.34,10a1.88,1.88,0,0,1-1.4,2.26A2.1,2.1,0,0,1,118.65,52.94Z"/><path class="cls-1" d="M59.57,20.37a1.88,1.88,0,0,1-.93-3.52l6.75-3.8a1.88,1.88,0,0,1,1.85,3.28l-6.75,3.8A1.89,1.89,0,0,1,59.57,20.37Z"/><path class="cls-1" d="M124.52,85.71a1.88,1.88,0,0,1-1.54-.8,34.91,34.91,0,0,0-12.93-11.13,1.89,1.89,0,1,1,1.69-3.37,38.85,38.85,0,0,1,14.32,12.34,1.88,1.88,0,0,1-1.54,3Z"/><path class="cls-1" d="M36,58.84a1.84,1.84,0,0,1-1.24-.48,1.87,1.87,0,0,1-.17-2.65,17.88,17.88,0,0,1,11.59-5.9,1.88,1.88,0,0,1,.36,3.75,14.08,14.08,0,0,0-9.13,4.64A1.88,1.88,0,0,1,36,58.84Z"/><path class="cls-1" d="M94.66,42.67a1.89,1.89,0,0,1-1.88-1.78A68.83,68.83,0,0,0,90.5,26.63a1.88,1.88,0,0,1,3.64-1,73,73,0,0,1,2.4,15,1.88,1.88,0,0,1-1.77,2Z"/><path class="cls-1" d="M104.55,46.08a1.89,1.89,0,0,1-1.8-2.45L106,33.38a1.88,1.88,0,0,1,3.59,1.13l-3.22,10.25A1.88,1.88,0,0,1,104.55,46.08Z"/><path class="cls-1" d="M32.54,70.68a1.83,1.83,0,0,1-.81-.18l-7.8-3.72a1.88,1.88,0,0,1,1.62-3.4l7.81,3.72a1.88,1.88,0,0,1,.88,2.51A1.86,1.86,0,0,1,32.54,70.68Z"/><path class="cls-1" d="M15.38,88.32a1.93,1.93,0,0,1-1-.29,25,25,0,0,1-8.73-9.39A1.88,1.88,0,0,1,9,76.87a21.18,21.18,0,0,0,7.41,8,1.89,1.89,0,0,1-1,3.48Z"/><path class="cls-1" d="M28.83,13.08a1.88,1.88,0,0,1-1.54-3A24.73,24.73,0,0,1,39.66.91a1.89,1.89,0,0,1,1.19,3.58,20.91,20.91,0,0,0-10.48,7.79A1.88,1.88,0,0,1,28.83,13.08Z"/><path class="cls-1" d="M10.54,31.24a1.89,1.89,0,0,1-.77-3.61,61.4,61.4,0,0,1,21.9-5.25,1.88,1.88,0,0,1,.2,3.76,57.69,57.69,0,0,0-20.56,4.93A1.91,1.91,0,0,1,10.54,31.24Z"/><path class="cls-1" d="M1.88,73.42a1.77,1.77,0,0,1-.5-.07A1.89,1.89,0,0,1,.07,71,50.43,50.43,0,0,1,5.24,58.86a1.88,1.88,0,0,1,3.24,1.92A46.42,46.42,0,0,0,3.7,72,1.89,1.89,0,0,1,1.88,73.42Z"/><path class="cls-1" d="M82.9,47.43A1.91,1.91,0,0,1,81.69,47L71.13,38.23a1.88,1.88,0,1,1,2.41-2.89L84.1,44.1a1.88,1.88,0,0,1,.24,2.65A1.85,1.85,0,0,1,82.9,47.43Z"/><path class="cls-1" d="M119.59,97.51a1.87,1.87,0,0,1-1.47-3.05,37.23,37.23,0,0,1,8.9-8.08,1.88,1.88,0,0,1,2,3.16,33.58,33.58,0,0,0-8,7.26A1.86,1.86,0,0,1,119.59,97.51Z"/><path class="cls-1" d="M119.86,72a1.87,1.87,0,0,1-1.6-.89A47.54,47.54,0,0,0,99.21,53.81a1.89,1.89,0,0,1,1.67-3.38,50.69,50.69,0,0,1,20.58,18.69,1.88,1.88,0,0,1-1.6,2.87Z"/><path class="cls-1" d="M106,139a1.88,1.88,0,0,1-1.88-1.86,53,53,0,0,0-2.81-16.41,1.88,1.88,0,0,1,3.57-1.21,56.81,56.81,0,0,1,3,17.57,1.88,1.88,0,0,1-1.86,1.91Z"/><path class="cls-1" d="M57.65,59.37a1.84,1.84,0,0,1-1.38-.61,1.87,1.87,0,0,1,.11-2.66A61.18,61.18,0,0,1,72.75,45.31a1.88,1.88,0,1,1,1.54,3.43A57.2,57.2,0,0,0,58.93,58.87,1.85,1.85,0,0,1,57.65,59.37Z"/><path class="cls-1" d="M79.25,16.48A1.88,1.88,0,0,1,79,12.73a76.48,76.48,0,0,1,15.86-.57,1.88,1.88,0,0,1-.26,3.76,71.66,71.66,0,0,0-15.07.54Z"/><path class="cls-1" d="M106.45,84a1.89,1.89,0,0,1-1.53-.78,84.27,84.27,0,0,1-9-15.88,1.88,1.88,0,0,1,3.46-1.49A80.16,80.16,0,0,0,108,81a1.88,1.88,0,0,1-1.53,3Z"/><path class="cls-1" d="M42.87,71.18a1.88,1.88,0,0,1-.17-3.75l14.95-1.38A1.88,1.88,0,0,1,58,69.8L43.05,71.18Z"/><path class="cls-1" d="M92.09,77a1.7,1.7,0,0,1-.59-.1,29.62,29.62,0,0,1-9.67-5.36,1.89,1.89,0,0,1,2.41-2.9,26.13,26.13,0,0,0,8.44,4.69A1.88,1.88,0,0,1,92.09,77Z"/><path class="cls-1" d="M105,104a1.89,1.89,0,0,1-1.37-3.18,36.13,36.13,0,0,0,8.76-15.91,1.88,1.88,0,1,1,3.65.93,39.92,39.92,0,0,1-9.68,17.57A1.88,1.88,0,0,1,105,104Z"/><path class="cls-1" d="M41.19,91.45a1.82,1.82,0,0,1-.79-.18L26,84.57a1.88,1.88,0,1,1,1.59-3.41L42,87.86a1.88,1.88,0,0,1-.8,3.59Z"/><path class="cls-1" d="M67.84,86h0A1.89,1.89,0,0,1,66,84.1a74.35,74.35,0,0,1,2.74-19,1.88,1.88,0,1,1,3.62,1,71,71,0,0,0-2.59,18A1.88,1.88,0,0,1,67.84,86Z"/><path class="cls-1" d="M70.44,97.75a1.88,1.88,0,0,1-1-3.49L88.25,82.9a1.88,1.88,0,0,1,2,3.22L71.41,97.48A1.9,1.9,0,0,1,70.44,97.75Z"/><path class="cls-1" d="M118.58,129.17a1.7,1.7,0,0,1-.44,0,1.89,1.89,0,0,1-1.39-2.27L120.1,113a1.88,1.88,0,1,1,3.66.89l-3.35,13.8A1.88,1.88,0,0,1,118.58,129.17Z"/><path class="cls-1" d="M49.25,103.53a1.92,1.92,0,0,1-1.13-.38,1.89,1.89,0,0,1-.37-2.64,18.74,18.74,0,0,0,3.17-15.39,1.88,1.88,0,1,1,3.66-.9,22.33,22.33,0,0,1-3.82,18.56A1.89,1.89,0,0,1,49.25,103.53Z"/><path class="cls-1" d="M69.72,113.4a11,11,0,0,1-10-6.31,1.88,1.88,0,1,1,3.44-1.53,7.33,7.33,0,0,0,9.08,3.57,1.88,1.88,0,1,1,1.49,3.46A10,10,0,0,1,69.72,113.4Z"/><path class="cls-1" d="M89.8,109.45a2.28,2.28,0,0,1-.36,0,1.88,1.88,0,0,1-1.49-2.2,35.94,35.94,0,0,1,4.74-12.16,1.88,1.88,0,1,1,3.2,2,32.2,32.2,0,0,0-4.24,10.9A1.87,1.87,0,0,1,89.8,109.45Z"/><path class="cls-1" d="M25.09,117.05a1.93,1.93,0,0,1-1.32-.53A20,20,0,0,1,17.83,103,1.88,1.88,0,0,1,19.65,101a1.9,1.9,0,0,1,1.94,1.82,16.22,16.22,0,0,0,4.82,11,1.89,1.89,0,0,1,0,2.66A1.91,1.91,0,0,1,25.09,117.05Z"/><path class="cls-1" d="M18.29,97h-.1A35.59,35.59,0,0,1,4.05,93.23a1.89,1.89,0,0,1,1.71-3.36,31.7,31.7,0,0,0,12.63,3.41,1.88,1.88,0,0,1-.1,3.76Z"/><path class="cls-1" d="M39.08,117.94a1.89,1.89,0,0,1-1.86-1.6,60.43,60.43,0,0,1-.6-12.39,1.88,1.88,0,0,1,3.76.2,57.15,57.15,0,0,0,.56,11.62,1.89,1.89,0,0,1-1.57,2.15Z"/><path class="cls-1" d="M111.43,114.4h-.1l-15.82-.88a1.88,1.88,0,0,1,.21-3.76l15.82.88a1.88,1.88,0,0,1-.11,3.76Z"/><path class="cls-1" d="M73.35,122.33a1.9,1.9,0,0,1-1.47-.7,1.88,1.88,0,0,1,.3-2.65,54.55,54.55,0,0,1,10-6.37A1.88,1.88,0,1,1,83.85,116a50.71,50.71,0,0,0-9.32,5.93A1.86,1.86,0,0,1,73.35,122.33Z"/><path class="cls-1" d="M61.27,129.81a51.83,51.83,0,0,1-19.65-3.88,1.88,1.88,0,1,1,1.43-3.48A48.11,48.11,0,0,0,62.74,126a1.88,1.88,0,0,1,.12,3.76Q62.07,129.81,61.27,129.81Z"/><path class="cls-1" d="M91.14,142.66a1.84,1.84,0,0,1-.33,0,1.89,1.89,0,0,1-1.53-2.18l1.82-10.24a1.88,1.88,0,0,1,3.71.65L93,141.1A1.87,1.87,0,0,1,91.14,142.66Z"/><path class="cls-1" d="M82.71,128.16a1.88,1.88,0,0,1-.75-3.61l11.42-5A1.88,1.88,0,0,1,94.89,123l-11.43,5A1.81,1.81,0,0,1,82.71,128.16Z"/><path class="cls-1" d="M76,63.17a1.89,1.89,0,0,1-1.13-3.39,63,63,0,0,1,13-7.55,1.88,1.88,0,0,1,1.49,3.46,59.13,59.13,0,0,0-12.21,7.1A1.9,1.9,0,0,1,76,63.17Z"/><path class="cls-1" d="M26,104.76a1.88,1.88,0,0,1-1.4-3.14l5.29-5.88a1.88,1.88,0,1,1,2.8,2.52l-5.3,5.88A1.87,1.87,0,0,1,26,104.76Z"/><path class="cls-1" d="M71.71,140.67c-.42,0-.85,0-1.27,0a1.88,1.88,0,0,1,.18-3.76,23.16,23.16,0,0,0,10.57-2,1.88,1.88,0,1,1,1.55,3.43A26.9,26.9,0,0,1,71.71,140.67Z"/><path class="cls-1" d="M99.13,139.41a1.89,1.89,0,0,1-1.85-1.55l-.68-3.74a1.88,1.88,0,1,1,3.7-.67l.69,3.74a1.9,1.9,0,0,1-1.52,2.19A2,2,0,0,1,99.13,139.41Z"/><path class="cls-1" d="M18.21,40a1.92,1.92,0,0,1-1.46-.69A1.88,1.88,0,0,1,17,36.61l2.57-2.1A1.88,1.88,0,1,1,22,37.42l-2.57,2.1A1.85,1.85,0,0,1,18.21,40Z"/><path class="cls-1" d="M18.88,78.77A1.88,1.88,0,0,1,17,77.08a7.54,7.54,0,0,0-2-4.34,1.89,1.89,0,0,1,2.75-2.58,11.32,11.32,0,0,1,3,6.53,1.88,1.88,0,0,1-1.67,2.07Z"/><path class="cls-1" d="M59.42,46.22A1.91,1.91,0,0,1,58,45.59l-2.87-3.22A1.88,1.88,0,0,1,58,39.87l2.87,3.21a1.89,1.89,0,0,1-1.4,3.14Z"/><path class="cls-1" d="M98.2,25.46A1.89,1.89,0,0,1,96.41,23l1.18-3.74a1.88,1.88,0,1,1,3.59,1.13L100,24.14A1.88,1.88,0,0,1,98.2,25.46Z"/><path class="cls-1" d="M55.62,120.39a1.33,1.33,0,0,1-.28,0,1.88,1.88,0,0,1-1.58-2.14l.47-3a1.88,1.88,0,1,1,3.72.57l-.47,3A1.88,1.88,0,0,1,55.62,120.39Z"/><path class="cls-1" d="M114.45,128a1.87,1.87,0,0,1-1.72-1.12l-.22-.5a1.88,1.88,0,1,1,3.44-1.51l.22.49a1.88,1.88,0,0,1-1.72,2.64Z"/><path class="cls-1" d="M17,19.54a1.81,1.81,0,0,1-.81-.19,1.88,1.88,0,0,1-.89-2.51,8.67,8.67,0,0,1,3.41-3.71,1.88,1.88,0,0,1,1.91,3.24,4.9,4.9,0,0,0-1.92,2.09A1.89,1.89,0,0,1,17,19.54Z"/><path class="cls-1" d="M12.83,105A1.88,1.88,0,0,1,11,103.11v-1a1.89,1.89,0,1,1,3.77,0v1A1.89,1.89,0,0,1,12.83,105Z"/><path class="cls-1" d="M72.14,131.13a1.87,1.87,0,0,1-1.68-1l-.73-1.45A1.89,1.89,0,1,1,73.1,127l.73,1.46a1.88,1.88,0,0,1-.85,2.52A1.79,1.79,0,0,1,72.14,131.13Z"/></g></g></svg>