<svg xmlns="http://www.w3.org/2000/svg" viewBox="0 0 166.19 98.1"><defs><style>.cls-1{fill:none;stroke:#010101;stroke-miterlimit:10;}</style></defs><title>Asset 19mdpi</title><g id="Layer_2" data-name="Layer 2"><g id="Layer_1-2" data-name="Layer 1"><path class="cls-1" d="M28.06,91,17.47,97.34A1.8,1.8,0,0,1,15,96.72l-3.26-5.45a1.81,1.81,0,0,1,1.43-2.74L27,87.64A1.81,1.81,0,0,1,28.06,91Z"/><path class="cls-1" d="M163.05,46.56l-11-5.59a1.82,1.82,0,0,1-.8-2.44l2.88-5.66a1.82,1.82,0,0,1,3.09-.24l8.12,11.25A1.81,1.81,0,0,1,163.05,46.56Z"/><path class="cls-1" d="M131.66,10.79l7.73-9.61A1.81,1.81,0,0,1,141.94.9l4.95,4a1.81,1.81,0,0,1-.4,3.07l-12.68,5.63A1.81,1.81,0,0,1,131.66,10.79Z"/><path class="cls-1" d="M16.22,42,8.87,32.13a1.81,1.81,0,0,0-2.54-.38l-5.1,3.78a1.81,1.81,0,0,0,.28,3.08L14,44.74A1.81,1.81,0,0,0,16.22,42Z"/></g></g></svg>