<?xml version="1.0" encoding="utf-8"?>
<!-- Generator: Adobe Illustrator 24.0.0, SVG Export Plug-In . SVG Version: 6.00 Build 0)  -->
<svg version="1.1" id="Layer_1" xmlns="http://www.w3.org/2000/svg" xmlns:xlink="http://www.w3.org/1999/xlink" x="0px" y="0px"
	 viewBox="0 0 1047.5 1036.9" style="enable-background:new 0 0 1047.5 1036.9;" xml:space="preserve">
<style type="text/css">
	.st0{fill:#231F20;}
</style>
<title>a3f55948-f7ff-422c-8f92-c13e556e4f78 (2)</title>
<g id="Layer_2_1_">
	<g id="Layer_1-2">
		<g id="a3f55948-f7ff-422c-8f92-c13e556e4f78">
			<g id="a3f55948-f7ff-422c-8f92-c13e556e4f78-child-0">
				<path class="st0" d="M539.9,368.5c1.6-9.1,3.3-18.6,5-27.9c4.2-22.6,7.9-45.2,12.9-67.6c7.4-33,12.3-66.4,19.9-99.3
					c6.7-29,11.7-58.4,17.8-87.5c3.2-15.4,7.4-30.7,11.2-46c0.5-2.1,1-4.7,4.1-3.9s2.2,3.5,1.8,5.4c-2.1,9.5-4.7,19-6.6,28.5
					c-5.6,26.7-10.9,53.4-16.4,80.1c-4.3,20.9-9.2,41.7-13.2,62.7c-3.4,17.7-6.1,35.6-8.7,53.4c-4.8,33.5-12.1,66.2-19.4,99.2
					c-0.3,2-0.8,4-1.5,6c-0.6,1.3-2,2.3-3.1,3.4c-1.1-1.1-2.2-2.2-3.1-3.5C540.1,370.6,539.9,369.5,539.9,368.5z M414.3,4
					c0,0.9,0.2,1.8,0.4,2.7c8.9,39.7,16.9,79.7,24,120c8.7,50,18.8,99.8,27.9,149.7c4.8,26.7,11.2,53.1,13.6,80.3c0,1.2,2,2.3,3,3.4
					c1-1.1,2.7-2.2,2.9-3.5c0.4-2.9,0.4-5.9,0-8.9c-5.9-34.3-11.6-68.5-17.9-102.7c-8.6-46.9-17.3-93.8-26.5-140.6
					c-6.8-33.8-14.3-67.3-21.4-101.1c-0.4-2-1.1-3.7-3.4-3.2c-1.3,0.4-2.1,2.1-3.1,3.2L414.3,4z M921.6,232.2
					c-1.2,0.1-2.4,0.5-3.4,1.3c-33.9,22.3-67.8,44.6-101.6,66.9C757.9,339,701.3,380.2,643.4,420c-2.6,1.8-5.1,3.8-7.4,5.9
					c-0.9,0.5-1.5,1.4-1.6,2.3c-0.2,1,0.1,2,0.8,2.8c1.5,1.7,3.3,1,4.9,0c14.9-10.2,29.8-20,44.3-30.7c57-42,116.2-80.7,174.8-120
					c20.9-13.9,41.7-27.9,62.6-42c1.3-1.1,2.6-2.4,3.7-3.7c-1.6-1.3-2.6-2.4-3.8-2.5L921.6,232.2z M601.2,385.2
					c1.2,0.3,2.4,0,3.3-0.7c1.3-1.4,2.3-3.1,3.2-4.8c6.5-11.8,12.4-24.1,19.7-35.5c20.2-31.3,40.6-62.3,61.4-93
					c32.8-48.8,65.9-97.4,98.9-146.1c0.8-0.8,1.3-1.8,1.6-2.9c0.2-1.2-0.1-2.4-0.8-3.3c-1.1-0.5-2.3-0.5-3.4,0
					c-0.9,0.3-1.5,1.3-2,2.2c-14.9,22.1-29.8,44.3-44.9,66.5c-31.2,46-62.5,92-93.7,138c-15.9,22.9-30.2,46.8-43,71.6
					c-0.9,1.7-1.6,3.5-2.5,5.5C599.8,383.7,600.3,385,601.2,385.2L601.2,385.2z M352.8,610.5c-3.1,1.9-6.3,3.7-9.3,5.8
					c-22.3,15.6-44.6,31.2-67,47c-49.3,35.1-100.7,67.1-151.4,100.1c-2.7,1.8-6,2.6-8.7,4.4c-9.8,6.6-19.5,13.4-29.2,20.2
					c-0.9,0.7-2.1,1.3-2.6,2.2c-0.5,1.1-0.5,2.3,0,3.4c0.9,0.7,2,1.1,3.2,1c0.8,0,1.6-0.8,2.4-1.2c23.3-14.9,46.6-29.8,69.9-44.6
					c40.4-25.6,80.3-51.8,119.4-79.3c25.2-17.7,50.7-35.2,75.9-52.7c1.1-0.7,2-1.5,2.7-2.5c1.4-2.2,0-4.5-3-4.5
					C354.3,609.8,353.5,610.1,352.8,610.5z M588.4,693.4c3.5,7.7,7.4,15.2,10.6,23c10.1,23.7,20.1,47.5,30.1,71.3
					c15.5,36.7,31.3,73.2,46.3,110c11.2,26.8,21,54,31.4,81c0.8,2,1.7,4.1,4.3,3.1s2.1-3.2,1.3-5.2c-8.2-21.9-15.8-44.1-24.7-65.7
					c-16.9-41.4-34.3-82.5-51.7-123.6c-14.2-33.5-28.7-66.9-43.3-100.2c-0.8-1.4-2.2-2.3-3.7-2.5c-1,0-2,1.9-2.9,2.9
					C587.1,689.8,587.7,691.7,588.4,693.4z M512.1,858.2v5.8c0.4,31,0.7,62.1,1.1,93.2v75.5c0,2.2,0.5,4.4,3.2,4.2s2.8-2.3,2.8-4.3
					c0-12.2,0.3-50,0.2-62.2c-0.2-55-0.7-109.9-0.6-164.9c0-29.8,0.9-59.8,1.3-89.7c0.1-2.6-0.2-5.2-0.8-7.8
					c-0.3-1.3-2.2-2.1-3.3-3.1c-0.9,1.3-2.4,2.5-2.6,3.7c-0.2,3.2-0.2,6.3,0,9.5l-1.7,140L512.1,858.2z M677.9,577.2
					c0.6,1.5,1.8,2.7,3.3,3.3c15.4,6.3,30.7,12.5,46.2,18.6c66.3,25.4,132.4,50.9,196.7,81c9.5,4.4,19.2,8.3,28.8,12.3
					c1.9,0.8,4,1.4,5-0.9s-0.7-3.7-2.7-4.7s-4.7-1.9-6.9-2.9c-30.6-13.7-61-27.9-91.8-40.9c-23.6-10-47.7-19-71.5-28.5l-98.4-39
					c-1.5-0.5-2.9-1-4.5-1.4C679.3,574.2,677.4,575,677.9,577.2L677.9,577.2z M181.2,504.6H97.6c-21.5,0-71.5-0.8-93-1.2
					c-2.1,0-4.4,0-4.6,2.9s2.2,3.2,4.3,3.3c11.6,0.5,51.7,1.2,63.2,1.4c18.3,0.2,36.7,0,55,0h188.8c4.7,0,9.4-0.3,14-0.9
					c2-0.2,3.7-1.3,3.5-3.7s-2.2-2.6-4.1-2.5c-13.3,0.3-26.6,0.9-39.9,1H181.2V504.6z M664.7,484.1c14.2-4.8,28.8-8.4,43.6-10.8
					c35.8-7,71.6-13.7,107.4-21c33-6.7,65.8-13.9,98.7-20.9c3.1-0.7,6.3-1,9.3-2c1.3-0.6,2.1-1.8,2.2-3.1c0-0.9-1.9-2-3-2.3
					c-1.2-0.2-2.5-0.1-3.7,0.3c-19.9,3.7-39.7,7.7-59.6,11.7c-48.2,9.7-96.4,19.6-144.7,29.4c-8,1.6-16.1,2.9-24.1,4.6
					c-9.5,2-19,4.1-28.5,6.4c-1.5,0.3-2.6,1.9-3.3,2.5c-0.3,5.1,1.8,6.7,5.4,5.3H664.7z M346.6,473.8c-0.3-1.5-1.2-2.9-2.5-3.7
					c-1.5-0.8-3.2-1.2-4.9-1.4c-42.1-8.5-84.3-16.9-126.4-25.3c-42.7-8.4-85.6-16.5-128.1-24.9c-2.1-0.4-4-0.7-4.6,1.9
					s1.1,3.5,3.2,3.9c8,1.8,15.9,3.7,23.9,5.4l61,11.2c26.3,5.2,52.5,10.8,78.8,16.1c24.4,4.9,48.8,9.5,73.2,14.3
					c7.4,1.5,15.1,3.2,23.6,5c0.4-0.4,2.4-1.3,2.5-2.4L346.6,473.8z M88.2,594.5c26.4-5.5,52.8-11.4,79.4-16.5
					c36.2-7.1,72.6-13.6,108.9-20.3c12.9-2.4,26-4.8,38.8-7.4c9.7-1.9,19.3-4,29-6.2c2-0.5,4.1-1.5,3.4-4.1s-2.8-2.4-4.7-2
					c-4.2,0.9-8.4,2.1-12.6,2.9c-10.5,1.9-21.1,3.3-31.5,5.3c-33.8,6.6-67.5,13.8-101.3,19.9c-29.8,5.5-59.5,10-89,17.2
					c-8,1.9-15.9,3.7-23.7,6.2c-1.3,0.7-2.2,1.9-2.4,3.3c0,0.8,1.7,1.8,2.4,2.5L88.2,594.5z M618.3,666.7
					c6.3,10,12.4,20.2,19.2,29.8c18.2,26,35.1,52.6,52.9,78.7c21.5,31.7,43.5,63.2,65.3,94.6c0.4,0.6,0.9,1.5,1.6,1.7
					c1,0.4,2.1,0.4,3.1,0c0.8-0.7,1.3-1.8,1.3-2.9c-0.1-1-0.6-2-1.2-2.8c-7.4-11.2-14.4-22.3-21.9-33.5
					c-24.7-36.1-49.6-71.9-74.1-108.1c-9.1-13.4-17.2-27.5-25.8-41.2c-3.3-5.1-6.8-10.1-10.4-15.1c-1.7-2.5-3.6-4.9-5.7-7.1
					c-1.1-0.8-2.4-1.2-3.7-1c-0.9,0.2-1.5,1.8-2.1,2.6C617.1,663.9,617.7,665.3,618.3,666.7z M455.1,352.9
					c-20.5-48.7-41.2-97.3-61.5-146.1c-11.6-27.7-22.5-55.8-33.8-83.4c-0.3-1.1-0.8-2.2-1.6-3c-0.9-0.8-2-1.1-3.2-0.9
					c-1,0.7-1.6,1.7-1.8,2.9c0,1,0.3,2,0.9,2.9c19.4,47.7,38.7,95.4,58.3,143c11.6,28.4,23.7,56.6,35.6,84.9c0.8,2,1.9,3.9,3.2,5.6
					c0.9,0.8,2.1,1.2,3.3,0.9c0.9-0.3,1.5-1.6,2.2-2.5C456.1,355.4,455.7,354.1,455.1,352.9z M381.7,634.9
					c-8.1,8.4-17.7,15.3-24.7,24.9c-4,4.8-8.4,9.3-13.2,13.4c-12.6,12.5-25.3,24.8-37.8,37.5c-25.7,26.4-51.4,52.8-77,79.4
					c-4.2,4.3-8.4,8.7-12.3,13.2c-0.8,1.4-0.9,3-0.2,4.4c1.2,1.7,3,0.9,4.4-0.4s3.7-3.3,5.5-5.1c15.9-16,32-31.8,47.5-48.1
					c27.1-28.6,53.9-57.3,82.7-84.3c10.7-10,20.8-20.5,31.2-30.8c0.9-0.7,1.6-1.6,2.2-2.6c1.2-2.3-0.3-4.7-4-4.7
					C384.6,632.6,383.1,633.7,381.7,634.9L381.7,634.9z M297.5,181.5c2.5,3.9,5,7.7,7.4,11.5c29.3,45.1,58.7,90.1,88.1,135.1
					c12.5,19,25.7,37.5,38.6,56.2c0.8,1,2.1,1.5,3.4,1.3c1.1-0.7,1.7-1.9,1.8-3.1c-0.1-1.3-0.6-2.6-1.5-3.7
					c-4.6-7.1-9.3-14.3-14.1-21.3c-7.4-10.6-14.9-21-21.9-31.7c-31.8-48.2-63.6-96.5-95.3-144.8c-0.9-1.6-1.9-3.1-3-4.5
					c-0.9-0.8-2.1-1.1-3.3-0.9c-0.8,0-1.4,1.5-2.1,2.4C296.3,179.1,296.9,180.3,297.5,181.5z M810.2,508.2l115.3-1.3
					c1.7,0,3.4,0,5.1-0.2c1.9-0.3,3.7-1.3,3.2-3.5c-0.8-1.4-2.2-2.3-3.7-2.4c-9.3-0.2-18.6-0.2-28,0c-44.3,0.6-88.5,1.5-132.8,1.9
					c-24.4,0.2-48.7-0.3-73-0.5c-1.7,0-3.4,0.1-5.1,0.3c-2,0.3-3.7,1.2-3.5,3.7s2.1,2.7,4.1,2.7h118.4V508.2z M548.1,692
					c3.4,15.5,7,31,10.2,46.6c8,38.5,15.7,77,23.7,115.5c3.9,19,8.1,38,12.2,57c0.4,2.1,1,4.7,4,4s2.3-3.2,1.8-5.3
					c-1-4.8-2.1-9.6-3-14.3c-7.6-37.9-15.2-75.7-22.8-113.6c-4.6-22.8-9.1-45.7-13.6-68.5c-1.7-8.6-3.5-17.2-5.3-25.7
					c-0.5-2.2-1.8-3.7-4.3-3.5s-3.3,2.4-3.3,5.4C547.7,690.4,547.9,691.2,548.1,692L548.1,692z M359.3,888c1.3,0,2.5-0.6,3.2-1.7
					c1.3-2.6,2.1-5.5,3.2-8.3c11.9-28.4,23.9-56.8,35.7-85.2c11.6-27.9,23-55.9,34.5-83.9c3.6-8.7,7.1-17.5,10.5-26.3
					c0.3-1.4,0.2-2.8-0.4-4.1c-0.7-0.6-1.7-0.9-2.6-0.7c-3.4,4.3-6.7,8.8-10,13.3c1.4,3.1-0.4,5.7-1.5,8.4
					c-2.8,6.9-5.7,13.8-8.5,20.8c-13.9,34.3-27.7,68.7-41.6,103c-7.4,18.6-15.1,36.8-22.7,55.2c-0.9,2.1-1.4,4.3-2.3,7
					C357.5,886.4,358.3,887.8,359.3,888L359.3,888z M513,231.9v33.8c0,25.1-0.1,50.3-0.3,75.4c0,1.5,0.2,2.9,0.6,4.4
					c0.5,1.9,1.6,3.4,3.7,3s2.6-2.2,2.4-4.2c0-2.6-0.6-5.2-0.6-7.8c0-22.3,0.6-44.6,0.6-67c0-49.4-0.4-98.7-0.6-148.1
					c0-0.8,0.2-1.8-0.2-2.3s-1.8-2.2-2.8-2.3s-2.2,1.2-2.5,2.1c-0.4,1.5-0.5,3.1-0.4,4.7v108.2H513z M673,540.4
					c-0.8,2.2,0.9,3.7,3,4.1c3.7,0.9,7.4,2,11.2,2.7c18.6,3.5,37.2,6.7,55.8,10.3c40.9,7.8,81.9,15.7,122.7,23.7
					c6.4,1.2,12.8,2.4,19.1,3.5c2,0.4,4.1,0.6,4.7-2s-1.4-3.4-3.3-3.9c-1.3-0.4-2.7-0.7-4-0.9c-28.1-5.3-56.2-10.6-84.3-16.1
					c-33.4-6.5-66.8-13.1-100.2-19.8l-21.7-4.3c-0.8,0.7-2.7,1.7-3.2,2.8L673,540.4z M401.5,671.5c-2.2-0.9-3.3,0.8-4.3,2.4
					c-12.4,19.5-24.6,39-37.2,58.3c-25.1,38-50.2,76.1-73.5,115.3c-1.5,2.2-2.8,4.5-3.7,7c0,1.5,0.6,2.9,1.8,3.7
					c0.7,0.4,3-0.5,3.7-1.5c4.8-7.4,9.2-15.4,14.1-22.9c25.3-39,50.7-78,76.1-116.9c7.4-11.7,14.9-23.7,22.3-35.6
					c1.2-2.3,2.3-4.7,3.3-7.1c-1.5-1.1-2-2.3-3-2.7L401.5,671.5z M436.5,913.3c2.3,0.7,3-1.3,3.4-3.3c2.2-10.6,4.4-21.1,6.4-31.7
					c5-25.5,9.9-50.9,14.9-76.4c2-10.3,4.2-20.5,6.2-30.7c4.2-21.4,8.4-42.8,12.5-64.2c0.2-1,0.7-2.3,0.3-3c-0.6-1.3-1.7-2.4-3-3
					c-0.8-0.2-2.7,1.3-3,2.3c-2,7.4-4.1,14.9-5.5,22.3c-1.7,8.7-4.1,17.3-4.9,26.2c-1.3,10.3-3.1,20.4-5.4,30.5
					c-6.7,34.5-13.4,69.1-20.2,103.6c-1.5,7.7-3,15.4-4.6,24c0.5,0.9,1.4,2.8,2.7,3.2L436.5,913.3z M664.4,606.8
					c-0.1,1.3,0.3,2.6,1.3,3.4c2,1.5,4.1,2.8,6.3,4.1c37.9,25.3,75.9,50.5,113.7,76c18.2,12.2,36.1,24.9,54.2,37.5
					c1.8,1.2,3.7,2.4,5.4,0.2s0-3.7-1.8-5.1c-3-2.3-6.1-4.8-9.3-6.9l-125.1-84.8c-11.9-8-23.8-16-35.7-23.9c-2-1.2-4.1-2.2-6.2-3.1
					c-1.4,0.8-2.9,1.5-3.1,2.5L664.4,606.8z M668.1,448.9c22.3-9.1,44.9-18,67.2-27.4c39.7-16.7,79.2-33.9,118.8-50.8
					c1.8-0.8,3.3-1.9,2.6-4.1s-2.8-2-4.6-1.6c-0.6,0.1-1.1,0.3-1.6,0.6c-9.8,4-19.6,7.8-29.4,11.9c-32.7,13.9-65.4,28-98.2,41.8
					c-20.1,8.5-40.3,16.6-60.5,24.9c-1.6,0.6-3.1,1.5-4.3,2.7c-0.8,1.1-1.1,2.4-0.7,3.7c0.3,0.9,1.7,1.5,2.6,2.2
					c2.5-1.5,5.1-2.8,7.8-4L668.1,448.9z M225.9,314.7c2.6,2,5.3,3.7,8,5.8l99.2,70.7c17.8,12.7,37.8,22,54.8,35.9
					c0.3,0.2,0.6,0.6,0.9,0.6c1.3,0,2.7-0.3,4-0.4c0-1.5,0.2-3.7-0.5-4.2c-6.1-5.1-12.2-10.1-18.6-14.6c-4.8-3.4-10.1-5.8-15.2-8.9
					s-11.1-6.8-16.3-10.5c-33-23.1-65.9-46.2-98.7-69.2c-4.6-3.3-9.3-6.6-14.1-9.7c-1.1-0.6-2.5-0.8-3.7-0.5c-0.7,0-1.2,1.5-1.8,2.4
					C224.4,313,225.1,313.9,225.9,314.7z M700.4,732.3c20.7,31.1,44.6,59.5,67.8,89c14.9,19.1,30.3,38.1,45.6,57c1,1,2.4,1.3,3.7,1
					c1.1-0.9,1.6-2.3,1.4-3.7c-0.5-1.6-1.4-3.1-2.6-4.3c-14.7-18.6-29.5-37.2-44-55.8c-19.5-25-38.9-50.1-58.2-75.3
					c-4.6-6-8.4-12.7-12.7-19c-0.9-1.1-2.3-1.9-3.7-2c-0.8,0-1.7,1.6-2.9,2.9C696.5,725.6,698.4,729,700.4,732.3z M615.7,411.4
					c1.3,0.2,2.7-0.1,3.7-1c2.8-2.6,5.3-5.6,8-8.4c27.4-27.5,54.9-54.8,82.2-82.4c14.5-14.9,28.7-29.8,43-44.9
					c1.5-1.6,2.8-3.5,0.8-5.4s-3.7-0.3-5.2,1.2c-0.2,0.3-0.5,0.5-0.7,0.7c-33.3,33.8-66.6,67.7-99.9,101.5
					c-10.1,10.2-20.4,20.1-30.6,30.3c-1.4,1.7-2.6,3.6-3.7,5.5C614.3,409.7,614.8,411.1,615.7,411.4L615.7,411.4z M642.4,199.8
					c-1.2-0.2-2.4,0.1-3.3,0.9c-0.8,0.9-1.4,2-1.8,3.2c-8.1,19.1-16.2,38.3-24,57.6c-14.9,37.5-29.7,75-44.4,112.6
					c-0.7,1.8-1.1,3.7,1,4.7s3.7-0.4,4.5-2.3c0.2-0.5,0.5-1,0.7-1.6c7.7-20.8,19.8-39.8,25-61.7l42.7-106.7l1.6-4.3
					C643.8,201.5,643.5,200,642.4,199.8z M365.6,445.7c0.2-1.3-0.1-2.6-1-3.5c-1.6-1.2-3.4-2.2-5.4-2.9c-13.9-6-27.7-12-41.6-17.9
					c-32.9-13.8-65.9-27.5-98.8-41.3c-5.9-2.5-11.8-5.4-17.8-7.8c-1.1-0.5-2.8,0.6-4.1,0.9c0.3,1.4,0.7,2.8,1.3,4.1
					c0.3,0.6,1.3,0.9,2,1.2c7.7,3.7,15.2,7.2,22.9,10.5c45.4,19.3,90.8,38.5,136.2,57.8c1,0.5,2.1,0.7,3.7,1.2
					C364,447.1,365.5,446.6,365.6,445.7z M392.6,382.4c0.5-1.1,0.5-2.3,0-3.4c-0.4-1-1.5-1.6-2.4-2.4c-15.7-14.5-32-28.5-47.2-43.5
					c-25.7-25.4-50.8-51.5-76.2-77.4c-1.3-1.3-3-2.4-4.4-0.8c-0.7,1.4-0.7,3,0,4.4c1.3,2,2.9,3.8,4.7,5.4
					c18.6,19,37.5,37.8,55.8,57.1c19.3,20.5,40.2,39.3,61.1,58.1c1.8,1.4,3.7,2.8,5.6,4c1.1-0.8,2.5-1,2.9-1.8V382.4z M645.6,193.7
					c1.6-0.4,3-1.5,3.7-3c8.8-21,17.2-42.1,26-63c11.2-26,22.7-52.1,33.9-78.1c1.8-4.2,3-8.6,4.5-12.8c0.7-2.1,1-4.3-1.6-5.1
					s-3.3,1.2-4,3.1c-4.2,10.5-8.3,20.9-12.7,31.2c-16.9,39.7-33.9,79.3-50.9,118.8c-0.7,1.7-1.2,3.4-2,5.9c1,1,2.1,3.1,3,2.9
					L645.6,193.7z M811.9,143.5c-0.9,0.6-1.7,1.4-2.4,2.4L703.8,275.2c-1.3,1.5-2.2,3.5-0.4,4.7c1.5,0.7,3.3,0.5,4.8-0.4
					c2.6-2.2,5-4.7,7.1-7.4c19.8-24.1,39.5-48.4,59.1-72.5c13.2-16.4,26-33,39.2-49.5c1.1-1.4,1.9-3,2.6-3.7c-0.1-2.8-2.3-4.1-4.2-3
					L811.9,143.5z M84.9,640.7c42.9-12.8,85.8-25.5,128.6-38.3c7.2-2.2,14.1-5,21.1-7.4c1.9-0.7,3.4-2.2,2.3-4.5s-2.9-1.7-4.8-1.1
					c-3.7,1.2-7,2.6-10.6,3.7L93.5,631.7c-5.9,1.8-11.8,3.7-17.5,5.7c-1.2,0.8-2,2.1-2.2,3.5c0,0.8,1.6,1.7,2.4,2.5L84.9,640.7z
					 M647.5,642c1.1,1.2,2.3,2.1,3.5,3.2c21,20.9,42.2,41.8,63,62.9c14.5,14.9,28.8,29.8,43.1,44.6c1.4,1.7,3.1,3.4,4.8,4.8
					c0.9,0.7,2.6,0.4,3.9,0.5c0.2-1.4,0.3-2.9,0.3-4.3c0-0.5-0.8-1-1.3-1.5c-17.4-18.4-34.7-37-52.4-55.1
					c-18.8-19.2-38-37.9-57-56.8c-1.5-1.6-3.2-2.9-5.1-3.9c-2.3-1.2-4.6,0.3-4.5,3.3C646.3,640.5,646.8,641.3,647.5,642z
					 M268.1,432.6c0-2.6-2-3-3.7-3.5c-5-1.3-10.1-2.5-15.1-4c-43-13.5-86-27.2-129-40.9c-0.9-0.3-1.8-1-2.7-1.3
					c-1.6-0.7-3.3-1-5-1.1c-1.3,0.2-2.3,1.1-2.8,2.3c0,1.3,0.5,2.5,1.4,3.4c0.8,0.6,1.8,1,2.8,1.2c45,14.6,90.1,29,135.2,43.4
					c4.6,1.5,9.4,2.5,14.1,3.7C266.4,435.5,268.1,434.6,268.1,432.6L268.1,432.6z M217.3,308.1c0.3-1.1,0.3-2.4-0.3-3.4
					c-0.4-0.9-1.4-1.4-2.3-2c-19.4-13.8-38.8-27.5-58.2-41.2c-21.6-15-43.2-29.9-64.9-44.6c-1-0.7-3,0-4.6,0.2
					c0.1,1.5,0.3,2.9,0.6,4.3c0.2,0.8,1.2,1.3,2,1.8c6.7,4.8,13.4,9.8,20.2,14.5c18.6,12.8,37.2,25.4,55.8,38.3
					c14.7,10.2,29.1,20.6,43.7,31c1.5,1.1,3.3,1.9,5.2,2.9C215.7,309.2,216.9,308.9,217.3,308.1z M308.7,122.2L377,250
					c1.1,2,1.9,4.7,4.9,3.4s1.6-3.7,0.9-5.9c-0.1-0.4-0.3-0.9-0.5-1.3c-2.7-5.4-5.2-10.9-8.1-16.2c-19.9-37.2-38.4-74.9-60.3-110.8
					c-0.5-0.8-0.8-2-1.6-2.6c-0.9-0.8-2.1-1.1-3.3-1c-0.9,0.3-1.5,1.6-2.3,2.5C307.2,119.6,307.9,121,308.7,122.2z M243.7,535.5
					c1.7,0,3.4,0.3,5.1,0.3s3.7,0,4.2-2.5s-1.3-3.4-3.3-3.5c-5.7-0.4-11.3-0.6-17-0.3c-20.8,1.8-41.6,3.7-62.4,5.8
					c-22.8,2.2-45.6,4.6-68.5,6.9c-2,0.2-3.9,1.1-3.3,3.3c0.7,1.4,2.1,2.4,3.7,2.5c5.2,0,10.4-0.7,15.6-1.2l48.2-4.5
					c13.4-1.3,26.7-2.6,40.1-3.7c12.5-1.1,25.1-2.2,37.7-3.2L243.7,535.5z M389.6,96.7c9.3,31,18.5,62,27.8,93
					c3.7,13.2,7.1,26.5,10.8,39.7c0.5,1.3,1.6,2.2,2.9,2.5c1.4-0.3,2.4-1.3,2.8-2.7c0.2-3-0.1-6.1-0.9-9.1
					c-10.8-36.5-21.6-73-32.6-109.4c-2.2-7.2-4.4-14.3-6.4-21.5c-0.5-1.9-0.9-3.7-2.9-3.2s-2.6,2.2-3.7,3.1
					C388.5,92.1,388.9,94.3,389.6,96.7z M215.7,634l76.5-32.4l50.9-21.4c1.4-0.3,2.6-1,3.7-1.9c1.5-0.7,2.1-2.5,1.4-4
					c-0.7-1.5-2.5-2.1-4-1.4c-1.3,0.2-2.6,0.7-3.7,1.4L234,619.6c-7.4,3.3-15.3,6.4-22.8,9.8c-1.3,0.8-2.1,2.2-2.2,3.7
					c0,0.8,1.6,1.7,2.4,2.5C213.3,634.9,214.6,634.5,215.7,634z M285.7,384.5c0.3-1.3-0.1-2.7-1-3.7c-3.5-3-7.2-5.7-11.2-8
					c-37-19.4-74.1-38.6-111.3-57.8c-1-0.5-2.8,0.3-4.2,0.5c0.4,1.5,0.3,3.5,1.2,4.4c1.9,1.5,3.9,2.7,6.1,3.7
					c24.9,13,49.8,25.8,74.4,39c13.8,7.4,27.4,15.3,40.9,22.9c0.7,0.4,1.4,0.6,2.5,1.1c1.1-0.6,2.5-1.2,2.6-2L285.7,384.5z
					 M539,244.3c0.9,1.1,1.9,2.2,3,3.2c1.1-0.9,2.1-1.9,2.9-3.1c0.4-1.2,0.6-2.5,0.6-3.7c1.1-10.1,2.1-20.3,3.2-30.5
					c1.5-14.5,3-28.9,4.4-43.4c1.3-13.6,2.6-27.3,3.7-40.9c0.6-6.5,1-12.9,1.3-19.4c-0.2-1.4-0.9-2.8-1.9-3.7
					c-0.4-0.4-2.2,0-2.6,0.6c-0.7,1.1-1.2,2.4-1.3,3.7c-0.7,6.6-1.2,13.1-1.8,19.7l-4.3,43c-1.5,14.5-3,28.9-4.5,43.4
					c-1,9.5-2,19-2.9,28.4c0.3,1,0.1,2.1,0.6,2.8L539,244.3z M592.7,257.9c1.3,0.3,2.6-0.1,3.5-1c1.4-2.3,2.5-4.8,3.2-7.4
					c4.3-16.3,8.3-32.8,12.8-49.1c6.8-24.5,14-48.9,20.9-73.3c0.6-1.9,0.5-3.7-1.5-4.1c-1.6,0.1-3,0.8-3.9,2.1
					c-0.9,1.3-1.4,2.8-1.7,4.4c-9.5,33.2-19,66.3-28.4,99.6c-2.4,8.5-4.2,17.2-6.6,26.8c0.4,0.3,0.8,1.9,1.8,2.2L592.7,257.9z
					 M342.7,291.8c-2-2.9-4.2-5.7-6.4-8.4c-25.7-31.1-51.4-62.3-77.2-93.4c-1.2-1.5-2.9-2.5-4.3-1.1c-0.9,1.2-1.2,2.7-0.7,4.1
					c1.1,2.3,2.5,4.4,4.1,6.3c23.7,28.7,47.4,57.4,71,86.1c3.1,3.7,6,7.7,9.2,11.4c1,0.9,2.3,1.4,3.7,1.3c0.8,0,1.5-1.6,2.2-2.5
					C344,294.3,343.4,293,342.7,291.8z M229.9,861.7c0.6,0.2,2.2-1.6,2.9-2.8s1.1-3,2-4.2c2.7-3.7,5.4-7.4,8.3-10.8
					c20.6-24.8,41.3-49.4,61.8-74.4c3.2-4,6.2-8.1,9-12.4c1.7-2.6,0.7-5.3-1.8-5.1c-1.5,0.3-2.8,1.2-3.7,2.4
					c-19.1,23.2-38.2,46.4-57.2,69.6c-7.4,9.1-14.6,18.3-21.7,27.6c-1.3,2.1-2.4,4.4-3.3,6.7C227.4,859.6,228.4,861.2,229.9,861.7z
					 M486.8,233.1v2.7c0,2,0.2,3.7,2.6,4s3.2-1.5,3.5-3.4c0.4-2,0.5-4.1,0.3-6.1c-0.7-7-1.5-14-2.2-21c-1.5-14.1-2.8-28.3-4.4-42.4
					c-1.9-16.5-3.9-32.9-6-49.3c-0.5-4.4-1.4-8.7-2.6-13c-0.3-1.1-2.4-1.8-3.7-2.6c-0.6,1.3-1.9,2.6-1.8,3.7
					c0.8,7.2,2.1,14.4,3,21.6c1.6,13.3,3,26.6,4.5,40c1.3,12.3,2.5,24.6,3.7,36.9c1,9.6,2.1,19.2,3.2,28.8L486.8,233.1z
					 M839.5,412.2c3.7-0.9,7.4-1.7,11.2-2.8c22.5-6.8,45-13.7,67.5-20.6l41.7-12.7c1.9-0.6,3.7-1.5,3.2-4s-3-2.3-5.1-1.7
					s-3.7,1.2-5.5,1.8c-38.6,11.2-77.2,22.3-115.7,33.5c-1.3,0.5-2.2,1.7-2.5,3c0,1,1.7,2.1,2.8,2.8c0.6,0.4,1.6,0,2.3,0
					L839.5,412.2z M937.3,551.2c1,0.2,2,0.2,3,0c1.2-0.7,2.3-1.6,3.4-2.5c-1-1.1-1.7-2.5-3-3.1c-1.5-0.4-3.1-0.6-4.7-0.5
					c-6.8-0.6-13.6-1-20.4-1.8c-12.2-1.3-24.3-2.9-36.5-4.3c-16-1.8-32.1-3.5-48.1-5.2l-18-1.9c-1.8,0-3.7,0-4,2.1s1,3.3,2.9,3.9
					c1.5,0.5,3.1,0.8,4.7,1c9,1,18.1,1.8,27.1,2.8c17.4,1.9,34.8,4,52.1,5.8c13.8,1.5,27.6,2.7,41.4,4L937.3,551.2z M186,368.1
					c-0.5-1.6-1.6-2.9-3.1-3.7c-20.3-8.8-40.5-17.5-60.7-26c-17.6-7.4-35.2-14.9-52.8-22.4c-2-0.9-3.7-1.7-5,0.5s0.3,4,2.5,5.1
					l1.6,0.7l54.4,23.5c17.3,7.4,34.6,14.9,52.1,22.3c2.5,1,5.1,1.7,8.4,2.8C184.1,370.2,186,368.9,186,368.1z M938.2,728
					c0.8-1.9-0.6-3.1-2.2-3.9c-12.6-6.1-25.3-12-37.6-18.6c-24.2-12.8-48.3-26-72.4-38.8c-1.4-0.8-3.1-0.8-4.5,0
					c-1.6,1.5-0.7,3.5,0.9,4.6c3.7,2.8,7.6,5.4,11.6,7.8c13.3,7.2,26.6,14.3,40.1,21.2c18.6,9.4,37.2,18.6,55.8,27.7
					c1.6,0.8,3.4,1.3,5.7,2.2C936.3,729.7,937.7,729,938.2,728L938.2,728z M880.9,474.5c15.2-1.3,30.4-2.5,45.5-3.7
					c12.2-1.1,24.4-2.2,36.6-3.5c1.1-0.2,2.1-1.1,2.4-2.2c-0.2-1.3-0.8-2.4-1.8-3.2c-0.9-0.5-1.9-0.6-2.9-0.5l-49,3.7l-57.7,4.6
					c-5.6,0.5-11.2,0.7-16.7,1.4c-1.3,0.2-2.3,1.9-3.5,2.8c1,1,1.9,2.5,3.2,2.9c1.7,0.4,3.4,0.5,5.1,0.5L880.9,474.5z M272.9,635.2
					c-4.3,1.3-8.5,3-12.5,5.1c-31.5,17-63,34.2-94.4,51.5c-2.1,1.2-5.3,2.2-3.5,5.4s4.2,1,6.3,0c35.5-18.8,70.9-37.6,106.2-56.5
					c0.9-0.6,1.6-1.4,2.2-2.3C276.7,635.1,274.8,634.5,272.9,635.2z M822.3,344.4c6.7-3.5,13.1-7.4,19.7-10.9l73.6-40.2
					c2-1,4-2.3,5.8-3.7c0.9-0.8,0.9-2.5,1.3-3.7c-1.4-0.5-2.8-0.9-4.2-1.2c-0.5,0-1.2,0.6-1.8,0.9c-12.3,6.7-24.5,13.5-36.9,20
					c-22.8,12.2-45.8,24.3-68.6,36.6c-1.1,0.8-1.8,2-1.9,3.4c0,1,1.9,1.8,3.1,2.9C816.1,347,819.4,345.8,822.3,344.4z M472.3,913.7
					c1,1.1,1.8,2.9,3,3.3c2.2,0.7,3.1-1.3,3.7-3.1v-1c1.9-17.7,3.7-35.5,5.6-53.2c1.5-13.3,2.9-26.7,4.5-40
					c0.9-6.9,2.4-13.7,3.3-20.5c0-1.3-1-2.7-1.6-4c-1.5,0.4-2.9,1.2-4,2.1c-1,1.4-1.6,3.1-1.7,4.8c-1.7,11.7-3.4,23.4-4.7,35.1
					c-1.7,14.9-3.1,29.8-4.6,44.6c-1,10.5-1.9,21-2.8,31.6L472.3,913.7z M337.9,849.6c1.2-2,1.9-4.3,3.1-6.4
					c16.8-30.8,33.7-61.6,50.5-92.5c1.1-1.9,2.7-4,0.3-5.7s-4.2,0.3-5.5,2.3c-2.3,3.5-4.8,7-6.8,10.7c-14.2,26.3-28.3,52.6-42.4,79
					c-1.8,3.4-3.4,6.9-4.8,10.5c-1,2.4,0.3,4.5,3.3,4.5C336.6,851.3,337.3,850.5,337.9,849.6z M1012.5,604.8
					c0.7-2.3-1.2-3.2-3.1-3.7c-3.9-0.7-7.9-1-11.8-1.8c-32.2-6.2-64.5-12.4-96.7-18.6c-1.1-0.2-3.4,0.7-3.5,1.5
					c-0.1,1.4,0.4,2.8,1.4,3.7c1.6,1.1,3.4,1.9,5.3,2.3c3.4,0.9,6.8,1.6,10.3,2.3l65.8,11.5l29.4,5.3
					C1010.4,606.8,1012.2,606.2,1012.5,604.8z M731.2,332.9c3.1-1.9,6.1-4,8.9-6.2c24.8-19.7,49.5-39.4,74-59.2
					c0.8-0.7,0.8-2.5,1.2-3.7c-1.4-0.4-3-1.5-4.1-1.1c-2.1,1-4,2.3-5.8,3.7c-28.3,19.4-52.3,44.6-81.3,63.2c-1,0.9-1.4,2.2-1.2,3.4
					c0.2,1,1.7,1.6,2.6,2.4C727.6,334.8,729.4,333.9,731.2,332.9z M985.2,650.8c0.1-1.4-0.4-2.7-1.4-3.7c-1.6-1-3.4-1.8-5.3-2.2
					c-19.7-6.2-39.5-12.3-59.2-18.6c-12.3-3.7-24.6-8-36.9-12c-2-0.6-4.3-1.2-5.2,1.5s1,3.5,2.8,4.3c3,1.3,6.1,2.6,9.2,3.7
					l87.3,26.8c2,0.6,3.7,1.3,6.4,2.2C983.7,652.1,985.2,651.5,985.2,650.8L985.2,650.8z M302.6,679.6c-1.3-0.3-2.6-0.2-3.7,0.5
					c-3.3,2.4-6.3,5.1-9.5,7.7c-24.2,19.5-48.3,39-72.5,58.4c-1.7,1.4-3.2,3-1.5,5.2s3.7,1,5.4-0.4c20.1-16,40.2-32,60.3-47.9
					c6.6-5.2,13.1-10.6,19.6-16c1.5-1.4,2.8-3,4-4.7C303.8,681.1,303.4,679.8,302.6,679.6L302.6,679.6z M705.8,854.8l-46.4-86.5
					c-0.5-1.3-1.2-2.4-2.1-3.5c-1.2-0.8-2.6-1.3-4-1.6c-1.9,2.8-1.6,6.6,0.7,9.1c12.3,23,24.6,45.9,36.9,68.8
					c3.4,6.4,7.1,12.7,11.1,18.9c1,1.1,2.3,1.8,3.7,1.9c0.7,0,1.5-1.5,2.4-2.4C707.2,857.7,706.7,856.2,705.8,854.8z M221.5,476.3
					c0.7-2.1-1.1-3.4-3.1-3.7c-6.5-0.8-13.1-1.6-19.6-2c-26.7-1.8-53.6-1.9-80.2-6.1c-1,0-3,0.8-3.2,1.5c-0.2,1.4,0.3,2.7,1.3,3.7
					c1.3,0.9,2.8,1.4,4.4,1.5c9.8,1,19.6,2.1,29.5,2.9c22.3,1.6,44.6,3,68.3,4.5C219.4,478.3,221.2,477.5,221.5,476.3z M229,81.8
					c17.2,25.4,34.4,50.9,51.7,76.2c0.9,1.5,2.1,2.8,3.5,3.7c1.3,0.6,2.9,0.5,4.2-0.2c0.7-0.5,0.7-2.8,0-3.7c-1-1.9-2.1-3.7-3.4-5.4
					c-17.3-25.1-34.6-50.3-51.8-75.4c-0.4-0.7-0.9-1.5-1.5-1.8c-1-0.5-2.1-0.6-3.1-0.4c-0.7,0.3-1.2,1.4-1.9,2.4
					C227.4,78.9,228.1,80.4,229,81.8z M236.7,280.2c0.3-1.3,0.2-2.6-0.5-3.7c-2.4-3.2-5.1-6.1-8-8.8c-21.3-18.5-42.7-36.9-64.1-55.2
					c-1.8-1.6-4.1-4-6.3-1.2s0.9,4.4,2.7,6c23.5,20.9,47.1,41.7,70.7,62.6c1,0.8,2,1.6,3.1,2.3C235.3,281.4,236.6,280.9,236.7,280.2
					L236.7,280.2z M253.3,243.2c0.1-1.5-0.4-3-1.4-4.1c-6.6-6.6-13.7-12.7-20.1-19.4c-15.5-16.2-30.8-32.6-46.1-48.9
					c-1.4-1.6-3.1-3.2-5.2-1.4s-0.7,3.9,0.8,5.6c2.9,3.2,5.8,6.4,8.6,9.7c17.6,20.2,36.2,39.4,55.8,57.7c1.6,1.3,3.3,2.4,5,3.5
					C251.7,244.8,253.3,244,253.3,243.2L253.3,243.2z M432.3,778.5c-1.3-0.1-2.5,0.4-3.4,1.4c-1.2,2.2-2.1,4.5-2.8,6.9
					c-6.8,23.5-13.5,47-20.2,70.4c-1.5,5.3-3,10.5-4.4,15.8c-0.5,2-1.1,4.4,1.6,5.1s3.7-1.6,4.3-3.7c0.5-1.5,0.8-3.1,1.3-4.6
					c8.2-27.9,16.3-55.8,24.5-83.7c0.4-1.5,0.8-3,1.4-5.2C434,780.2,433.3,778.7,432.3,778.5L432.3,778.5z M873.7,798.3
					c0.3-1.3,0-2.6-0.8-3.7c-2.6-2.4-5.5-4.4-8.2-6.7l-64-53.1c-1.6-1.3-3.4-2.3-5.1-0.5s-0.7,3.4,0.6,4.8c2.1,2.4,4.4,4.6,6.8,6.7
					c21.7,17.6,43.5,35.1,65.4,52.6c1,0.7,2,1.3,3.1,1.8C872.4,799.6,873.7,799,873.7,798.3L873.7,798.3z M548.1,872.7
					c0.1,2.2,0.2,4.3,0.6,6.4c1.7,14.2,3.4,28.4,5.1,42.6c1.3,10.9,2.8,21.8,4.2,32.7c0.3,2.1,1,4.3,3.7,3.7s2.5-2.6,2.2-4.6
					c-0.5-4.3-1-8.6-1.5-12.8c-2-16.9-4-33.8-5.9-50.7c-0.8-7.4-1.3-14.9-2.2-22.3c0-1.3-1.9-2.4-2.9-3.7c-1,1.2-2.6,2.1-3,3.4
					c-0.3,1.7-0.3,3.4,0,5.1L548.1,872.7z M131,668.6l63-25.3c1.7-0.5,3.3-1.3,4.7-2.5c0.9-1,0.8-3,1.1-4.5
					c-1.4-0.5-2.8-0.8-4.3-0.8c-1.5,0.4-3,1-4.4,1.8l-68.7,28.3c-1.1,0.3-2.1,0.9-2.9,1.6c-0.7,0.9-1.1,2.1-0.9,3.3
					c0.3,0.9,1.7,1.5,2.6,2.2C124.8,671.3,127.8,669.9,131,668.6z M599.3,789c7.4,24.1,14.9,48.2,22.3,72.3c0.3,0.7,0.4,1.7,0.9,2.2
					c0.9,0.8,2.1,1.3,3.4,1.4c0.8,0,1.6-1.7,1.9-2.8c0-1-0.2-2.1-0.6-3c-7.1-24.1-14.3-48.1-21.5-72.1c-0.3-1.6-0.8-3.1-1.6-4.5
					c-0.8-1.1-2.1-1.7-3.5-1.8c-1,0.2-1.8,1.8-2.5,2.6C598.4,785.3,598.8,787.1,599.3,789z M729.8,106.1c-1.1-0.3-2.2-0.1-3.1,0.4
					c-0.8,0.6-1.4,1.5-1.8,2.4c-12.6,22.5-25.1,45.1-37.5,67.7c-0.6,1.1,0.2,3,0.4,4.5c1.5-0.3,3.7,0,4.4-1.1c2-2.3,3.7-4.8,5.2-7.4
					c11.1-20.3,22.1-40.7,33.1-61.1c0.5-1,0.9-2,1.3-3.1C731.1,107.4,730.6,106.3,729.8,106.1z M236.4,931.1
					c3.4-4.9,6.6-9.8,9.9-14.9c9.1-14,18.1-28,27.2-42.1c1.1-1.7,1.9-3.6,2.6-5.5c0.7-1.9,0.8-4-1.6-4.9s-3.4,0.6-4.3,2.3
					c-1.4,2.6-2.7,5.3-4.3,7.8c-11.3,17.7-22.6,35.5-34,53.2c-0.6,0.9-1,1.8-1.4,2.8c-0.7,2,0.6,3.7,3.4,3.7
					C234.9,932.8,235.7,932,236.4,931.1z M323.6,973.4c2.2,0.7,3.2-1,4-2.8c7.1-15.8,14.3-31.7,21.3-47.5c2.7-6.1,5.1-12.3,7.4-18.6
					c0.7-2,1.3-4.5-1.5-5.5s-3.7,1.4-4.5,3.5c-1.1,2.7-2.1,5.5-3.3,8.2l-23.8,54.6c-0.7,1.7-1.3,3.4-2.1,5.7
					C321.9,971.7,322.6,973.1,323.6,973.4L323.6,973.4z M323.3,49.4c7.7,19.8,15.3,39.8,23,59.8c0.6,1.8,1.4,3.6,2.5,5.2
					c0.9,1.1,2.3,1.6,3.7,1.3c1.1-0.8,1.7-2.1,1.7-3.5c-0.2-1.7-0.7-3.4-1.5-4.9c-7.6-19.3-15.2-38.7-22.8-58
					c-0.5-1.3-1.2-2.6-2-3.7c-0.9-0.8-2-1.2-3.2-1.1c-0.9,0.2-1.5,1.6-2.1,2.2C322.8,47.7,323,48.6,323.3,49.4L323.3,49.4z
					 M597.8,934.6c2.9,15.7,5.9,31.5,8.8,47.2c0.9,4.5,1.6,9,2.5,13.4c0.4,1.9,1.4,3.7,3.3,2.9c1.2-0.4,1.9-2.3,2.5-3.7
					c0.3-0.7-0.2-1.8-0.3-2.7c-2.8-15.9-5.7-31.7-8.5-47.6c-1-5.5-1.7-11.2-2.8-16.5c-0.4-2-1.5-3.9-3.9-3.2
					c-1.3,0.4-2.1,2.2-2.6,2.8c0.4,3.2,0.6,5.4,1,7.5L597.8,934.6z M1006.1,406.5c-16.5,3-33.1,5.8-49.6,8.9
					c-5.4,1.2-10.8,2.7-16,4.5c-1.7,0.3-2.8,1.9-2.5,3.6c0,0.2,0.1,0.4,0.2,0.6c0.8,2.1,2.6,2,4.6,1.6c14.4-3.1,28.9-6.2,43.3-9.1
					c7.2-1.5,14.5-2.7,21.7-4.4c1.4-0.6,2.5-1.9,2.8-3.4c0-0.8-1.8-2-2.4-2.6L1006.1,406.5z M764.7,262.6
					c15.1-15.5,30.2-31,45.3-46.5c0.6-0.6,1.4-1.1,1.5-1.8c0.3-1.3,0.1-2.6-0.5-3.7c-0.5-0.6-2.2-0.5-3.3-0.3s-1.3,0.9-1.9,1.4
					c-14.2,14.2-28.3,28.4-42.4,42.6c-1.6,1.6-3,3.4-4.3,5.3c-1.1,1.2-1,3.1,0.2,4.2c0.7,0.7,1.7,0.9,2.7,0.7
					C763,264,763.9,263.4,764.7,262.6L764.7,262.6z M880,867.4c-0.8-1.5-1.8-2.9-3-4.1c-14.2-14.4-28.4-28.9-42.7-43.1
					c-0.9-0.9-2.9-0.6-4.5-0.9c0,1.6-0.8,3.3-0.2,4.6c0.9,1.8,2.2,3.5,3.7,4.8c2.8,2.9,5.8,5.7,8.7,8.6c11.2,11.2,22,22,33,33
					c0.6,0.5,1.3,1,2,1.3c2.5-0.1,3.8-2.1,2.8-4.2L880,867.4z M194.7,767.2c-1,0.3-1.9,0.8-2.7,1.5l-45.3,36.1c-1.5,1-2.8,2.4-3.7,4
					c-0.7,1.4-0.7,3.1,0,4.5c1.3,1.8,3.2,1,4.7-0.4c1.8-1.9,3.8-3.6,5.8-5.3c14-11.4,28.1-22.7,42.1-34.2c1-0.9,1.9-1.8,2.7-2.8
					C198.2,768,196.6,766.7,194.7,767.2z M950.3,502c-1.1,0.6-1.9,1.7-2,2.9c0,0.9,1.6,1.9,2.6,2.5s1.5,0,2.3,0l41.2,1.8
					c7,0.3,42.6,0.5,49.6,0.7c1.9,0,3.7-0.6,3.5-2.7c0-1.2-1.6-2.4-2.9-3.1c-1.2-0.4-2.5-0.6-3.7-0.5c-2.5,0-5,0-7.4-0.2
					c-15.3-0.9-59.1-1.7-75.7-2.6C955.3,501.2,952.8,501.5,950.3,502z M829.8,198.4c12.9-13,25.6-26,38.4-39.3
					c1.5-1.5,3-3.3,0.9-5.3s-3.7-0.4-5.2,1l-1,1l-42.1,41.8c-0.5,0.5-1.2,0.9-1.3,1.5c-0.3,1-0.3,2.1,0,3.1c0.3,0.7,1.6,1.1,2.9,1.9
					C824.9,202.5,827.4,200.5,829.8,198.4z M766.5,888c2.7,4.3,5.4,8.7,8.4,12.8c7.7,10.9,15.6,21.8,23.4,32.7
					c1.3,1.8,3.1,3.2,5.2,1.6s0.8-3.5-0.4-5.3c-9.7-13.8-19.3-27.8-28.9-41.8c-1.3-2-2.2-4.2-3.7-6.1c-0.9-0.9-2.2-1.4-3.5-1.2
					c-0.9,0-1.6,1.6-2.3,2.5c0.5,1.7,1.2,3.3,2,4.8H766.5z M780,774.2c10.7,10.4,21.5,20.7,32.3,30.9c1.4,1.5,3,2.8,4.7,4
					c1,0.6,2.3,0.6,3.3,0c0.7-1.1,1-2.4,0.9-3.7c0-0.7-1-1.5-1.6-2.1l-31.8-30.9c-2.2-2.2-4.2-4.5-6.5-6.5c-1.1-0.8-2.4-1.1-3.7-0.9
					c-0.8,0-1.3,1.5-2.4,2.8c1.5,2.3,3.2,4.5,5,6.5L780,774.2z M929.5,338.4l9.1-3.7l36.7-15.6c1.9-0.8,4.1-1.9,2.9-4.5
					s-3.5-1.8-5.6-0.9c-3.7,1.5-7.1,3.2-10.6,4.6c-10,4-20.1,8-30.1,12c-2.5,1-4.9,2.2-7.1,3.7c-0.8,0.9-1.2,2.1-1,3.2
					c0.2,0.9,1.6,1.6,2.4,2.3C927.3,339.3,928.4,338.9,929.5,338.4z M896.4,759.5c0.2,1.7,0.9,3.3,2.2,4.4c13,9,26,17.8,39.2,26.6
					c1.3,1,2.9,1.8,4.5,2.2c1.2,0.2,2.5-0.9,3.7-1.4c-0.5-1.3-0.7-3.1-1.7-3.7c-4.1-3-8.5-5.7-12.7-8.6c-8.7-6-17.3-12.1-26-18
					c-1.9-1.3-4.1-2.3-6.5-3.7C897.8,758.1,896.1,759,896.4,759.5L896.4,759.5z M69.5,415.4c-0.7-1.1-1.8-1.9-3.1-2.2
					c-14.7-2.8-29.4-5.5-44.1-8.3c-2.6-0.6-5.3-1-8-1.2c-1.3,0.3-2.4,1.4-2.8,2.7c0,1,1.2,2.5,2.3,3.2c1.2,0.5,2.4,0.8,3.7,0.8
					c9.9,1.8,19.9,3.5,29.7,5.4c6.1,1.1,12.2,2.5,17.2,3.7C68.7,419.4,70.7,417.6,69.5,415.4z M202.8,817.6
					c-7.7,7.9-15.4,15.8-22.9,23.8c-3.4,3.5-6.7,7.1-9.9,10.8c-1.3,1.5-1.9,3.3,0,4.8s3.3,0.5,4.7-1l34.5-35.4
					c0.6-0.5,1.1-1.1,1.5-1.8c1.1-2.1-0.2-4.2-3.7-4.3C205.5,815.4,204.1,816.5,202.8,817.6z M26,607.6c14.9-3.1,30-6.1,45-9.4
					c1.1-0.2,2.6-1.8,2.6-2.8c-0.2-1.4-1.1-2.5-2.4-3c-2.1-0.4-4.3-0.4-6.4,0c-6.7,1.3-13.3,2.9-19.9,4.4
					c-7.7,1.8-15.2,3.4-22.9,5.5c-1.4,0.6-2.5,1.9-2.8,3.4c0,0.9,1.7,2.1,2.3,2.8L26,607.6z M913,339.5l-19.2,8.8
					c-7.7,3.5-15.5,7-23.3,10.5c-2,0.9-3.5,2.6-2.2,4.9s3.3,1.6,5.1,0.8c13.1-6,26.2-12,39.3-18.1c1.7-0.7,3.3-1.6,4.6-2.8
					c0.8-0.9,1.1-2.1,0.8-3.3c-0.2-0.8-1.5-1.3-2.3-1.9C914.6,338.9,913.8,339.1,913,339.5z M634.9,909.5c1.4,4.7,2.9,9.3,4.3,14
					c2.5,8.5,5,17,7.4,25.5c0.6,1.9,1.5,3.7,3.7,2.9s2.5-2.4,2.1-4.4c-0.1-0.8-0.2-1.6-0.5-2.3c-3.7-13.7-7.7-27.5-11.6-41.2
					c-0.4-1-1.3-1.7-2.3-2c-1.1,0-2.1,0.5-2.8,1.4c-0.5,1-0.9,2.1-1,3.3C634.3,907.6,634.6,908.6,634.9,909.5L634.9,909.5z
					 M63.5,697.8c9.9-4.1,19.7-8.1,29.5-12.3c2-0.9,3.8-1.9,5.6-3.1c1.7-1.1,2.7-3,1.3-4.6c-1.3-0.9-3-1.1-4.5-0.5
					c-11.7,4.9-23.3,10.1-34.9,15.2c-0.6,0.3-1.5,0.4-1.8,0.9s-1.5,2.3-1.2,3.2s1.7,1.8,2.4,2.5C61.6,698.4,62.6,698.2,63.5,697.8z
					 M511.9,106.5c0.8,1,1.5,2.5,2.4,2.7c1.3,0.1,2.5-0.4,3.3-1.4c0.9-1.3,1.4-2.9,1.4-4.5V69.9c0-2-0.4-3.7-2.8-3.7
					s-2.8,1.8-2.8,3.7l-0.6,36.1L511.9,106.5z M432.8,921c-2.4-0.9-3.3,1.3-3.7,3.3c-2.1,11.2-4.2,22.5-6.1,33.8
					c0.1,1.5,0.9,2.9,2.2,3.7c2.1,0.8,3.2-0.9,3.7-2.9c0.6-3.1,1.2-6.3,1.8-9.4c1.6-8,3.1-16,4.8-25c-0.9-1.1-1.5-3.2-2.8-3.8V921z
					 M514,26v16.7c0,1.9,0,3.7,2.6,4s3-1.7,3.3-3.5c0.2-1.2,0.3-2.5,0.3-3.7c-0.2-10.4-0.4-20.7-0.6-31V7.2
					c-0.9-0.9-1.8-2.2-2.8-2.4s-2.2,1-2.7,2c-0.5,1.2-0.7,2.5-0.6,3.7V26L514,26z M415.1,1011.6c1.4-0.2,2.7-1.1,3.4-2.3
					c0.6-1.5,0.9-3,1-4.6c1.9-8.6,3.7-17.3,5.6-26c0.4-1.9,0.2-4.1-2.1-4.2c-1.6,0.1-3,1.1-3.7,2.5c-2.5,10.3-4.8,20.8-7.2,31.8
					C413.1,1009.7,414.1,1011.6,415.1,1011.6L415.1,1011.6z M856.4,735.3c0,1.4,0.6,2.8,1.6,3.7c6.7,4.5,13.5,8.8,20.2,13.1
					c1.7,1.1,3.5,1.8,4.8,0s0.3-3.7-1.4-4.9c-6-4-12-8.1-18.1-12c-1.5-0.8-3.1-1.4-4.7-2C858,733.8,856.5,734.6,856.4,735.3
					L856.4,735.3z"/>
			</g>
		</g>
	</g>
</g>
</svg>
