<?xml version="1.0" encoding="utf-8"?>
<!-- Generator: Adobe Illustrator 24.0.0, SVG Export Plug-In . SVG Version: 6.00 Build 0)  -->
<svg version="1.1" id="Layer_1" xmlns="http://www.w3.org/2000/svg" xmlns:xlink="http://www.w3.org/1999/xlink" x="0px" y="0px"
	 viewBox="0 0 225.8 71.3" style="enable-background:new 0 0 225.8 71.3;" xml:space="preserve">
<style type="text/css">
	.st0{fill:#231F20;}
</style>
<title>Asset 74</title>
<g id="Layer_2_1_">
	<g id="Layer_1-2">
		<g id="e9fd9a2b-8ea5-433e-9a50-8c5c9b912850">
			<g id="e9fd9a2b-8ea5-433e-9a50-8c5c9b912850-child-0">
				<path class="st0" d="M225.4,30.5c0,0,0-0.1-0.1-0.1H225l0.2-0.7c-0.1-0.1-0.3-0.1-0.4-0.2l1-0.8c-0.6-0.4-1.2-0.8-1.9-1.3v1.9
					c0.2,0,0.3-0.1,0.5-0.1c-0.4,1.1-0.7,2.2-1.1,3.4c-0.3-0.3-0.5-0.7-0.6-1.1c-0.1-0.6-0.7-0.3-1-0.7c0.8-0.5,1.6-1.1,0.4-2.3
					c1,0.1,0.7-0.4,0.6-0.8c-0.1-0.2-0.1-0.4-0.1-0.7v-5.1c0-0.3,0.2-0.5,0.4-0.9l-0.6-0.1c0.4-0.9,0.3-2-0.1-2.9
					c0.1-0.3,0.3-0.6,0.3-0.9c0-0.9,0-1.9,0-2.8V8.4c-0.4,0-0.6,0.1-0.9,0.1l-2.8,0.1c-0.2,0-0.4,0-0.5-0.1
					c-0.9-0.3-1.9-0.2-2.8,0.1c-0.5,0.2-0.4,0.4-0.3,0.5c-0.3,0.4-0.6,0.8-0.8,1.1c0.1,0.3,0.3,0.5,0.2,0.6s-0.4,0.2-0.6,0.2
					c0-0.4,0-0.7-0.1-1c-0.2,0.1-0.4,0.2-0.6,0.4c0-0.3,0.1-0.6,0.1-0.8c0.4-0.9,0.3-1.1-0.5-1.4c-0.6,0.3-0.3,1.2-0.9,1.5L212,8.8
					c-0.2,0.1-0.3,0.2-0.3,0.4c-0.1,0.8-0.5,1.2-1.2,0.9c-0.6-0.3-1.2-0.3-1.8-0.1c-0.3,0.1-0.8-0.1-1.2-0.2
					c0.1-0.3,0.1-0.6,0.2-0.9c0.2-0.6-0.1-0.6-0.5-0.5C207.1,8.7,207,8.9,207,9c-0.1,0-0.1,0-0.2,0c0-0.2,0-0.4,0.1-0.6
					c-0.2,0.1-0.4,0.2-0.7,0.3c-0.2,0.1-0.5,0.1-0.8,0.1c-0.8-0.1-1.6-0.2-2.5-0.3c-0.3,0.1-0.6,0.1-0.9,0.3c-0.2,0-0.4,0-0.6,0
					c-0.3-0.1-0.6-0.2-0.9-0.3c-1.8,0-3.6,0-5.5,0c-0.8,0-1,0.2-1.2,1c0,0.2,0,0.4,0,0.6c-0.8,0.1-1.1-0.3-1.1-1.6
					c-0.2,0.1-0.6,0.2-0.6,0.3c-0.1,0.4-0.2,1,0,1.1c0.4,0.4,0.5,0.9,0.5,1.4c0,0.2,0.2,0.3,0.3,0.5c0.1-0.1,0.3-0.2,0.4-0.3
					l0.4-0.2c0.1,0.1,0.2,0.3,0.3,0.4c0.2,0.4,0.3,0.7,0.4,1.1c0.1,0.3,0.2,0.7,0.1,0.8c-0.3,0.3-0.7,0.3-1,0
					c-0.1-0.1-0.4-0.1-0.6-0.1c0,0.3,0,0.7,0.1,0.8c0.6,0.5,0.3,1.3,0.6,1.9c0,0.1,0,0.1-0.1,0.2c-0.9,0.3-0.6,1.2-0.9,1.8
					c-0.2,0-0.5,0-0.7,0.1c-0.2,0-0.3,0.1-0.5,0.1c-0.4,0-0.7,0.3-0.4,0.6c0.4,0.4,0.7,0.8,1.1,1.1c-0.3,0.4-0.7,0.8-1,1.1h-0.1
					c-0.2,0.2-0.7,0.4-0.7,0.6c0,0.9-0.6,1.2-1.3,1.5c-0.4,0.1-0.3,0.3-0.1,0.6s0.5,0.9,0.8,1.3l-1.1-0.5c-0.2,0.9,0.4,1.8,1.4,2
					c0.1,0,0.2,0,0.3,0c0.2,0.3,0.4,0.6,0.6,0.9c0,0.2,0,0.4-0.1,0.5c-1.1,0.9-1.2,1-1,1.9l1.1-0.4c0,0.1,0.1,0.1,0.1,0.2l-0.4,0.3
					c0.1,0.2,0.2,0.5,0.4,0.6c0.3,0.4,0,0.6-0.3,0.8c-0.4,0.1-0.7,0.2-1.1,0.2v-1.2c-0.3,0-0.9,0.1-0.6-0.7c0,0-0.4-0.4-0.5-0.3
					c-0.6,0.2-1.2,0.3-1.8,0.5c-0.6,0.2-0.9,0.8-0.8,1.4c0.1,0.5,0.3,0.6,0.8,0.3s1.1-0.6,1.6-0.9c0.1,0.5,0.2,1,0.3,1.5l0,0
					c0.1,0.5,0.2,1.1,0.3,1.8c0.7-0.6,0.7-1.1,0.3-1.6c0.4-0.2,0.7-0.2,0.7,0.3c0,0.3,0,0.7,0,1s0.1,0.6,0.6,0.6
					c0.3-0.5,0.9-0.7,1.4-0.6c0.1,0,0.1,0.2,0.2,0.3v0.2c-1-0.5-1.6,0.2-2.3,0.8c-0.2-0.1-0.4-0.2-0.7-0.3c-0.2,0-0.5,0.2-0.5,0.3
					c-0.1,0.5-0.4,0.5-0.8,0.5c-2.5,0-4.9,0-7.4,0c-0.2,0-0.4,0-0.6,0c-0.1-0.9,0.5-1.5,1.3-1.3c0.5,0.1,0.9-0.1,1.1-0.6
					c0,0,0-0.1,0-0.1c0-0.1,0.1-0.1,0.1-0.1c0.4,0.3,0.8,0.5,1.2,0.7c0.1,0.1,0.1,0.2,0.2,0.3c0.2,0.2,0.4,0.4,0.6,0.6
					c0.3,0.2,0.8,0.2,0.9-0.2c0.1-0.7,0-1.4-0.2-2c-0.1-0.2-0.6-0.3-1-0.5c0-0.2,0-0.6,0.1-0.9h0.3c0.3,0,0.5,0,0.8,0
					c0-0.3-0.1-0.5-0.1-0.8c-0.1-0.4-0.1-0.7-0.2-1c-0.1-0.2-0.2-0.4-0.3-0.5c-0.1,0.1-0.3,0.3-0.3,0.5c-0.2,0.9-0.5,1-1.3,0.4
					c0.7-0.8,1.2-1.9,1.3-3c0.2,0.2,0.2,0.5,0.3,0.7c0.1,0.2,0.3,0.4,0.5,0.5c0.1-0.1,0.3-0.2,0.4-0.4c0.1-0.4,0.2-0.7,0.2-1.1
					c0-0.1,0-0.2-0.1-0.3c-0.3-0.2-0.6-0.6-0.9-0.6c-0.8-0.1-0.7-0.5-0.4-1c0.1-0.2,0-0.5,0-0.7c-0.2,0-0.4,0.1-0.7,0.1
					s-0.5,0.1-0.7,0.2c-0.2,0-0.4,0.1-0.6,0.1c-0.4,0.3-0.6,0.2-0.7-0.3c-0.2-0.6-0.6-1-1.2-1.2c-0.4-0.1-0.4-0.3-0.3-0.6
					s0.2-0.6-0.3-0.6c-0.1,0-0.3-0.3-0.3-0.4c0-1.2,0.4-2.3,1.2-3.2c0.1-0.1,0.2-0.3,0.2-0.4c0-0.6,0.5-1.1,1.1-1.1
					c0.2,0,0.3,0,0.4,0.1c0.1-0.2,0.3-0.3,0.4-0.5c0.5,0.5,0.9,0.9,1.4,0c0-0.1,0.2-0.1,0.3-0.1c0.6-0.2,0.6-0.5,0.3-1
					c-0.1-0.3-0.2-0.6-0.3-0.9c0.3,0.1,0.5,0.2,0.7,0.4c0.2,0.1,0.4,0.3,0.5,0.4c0.2,0.3,0.5,0.3,0.7,0.2c0,0,0,0,0,0
					c0.5-0.2,1.2,0,1.4,0.6c0,0.1,0,0.1,0.1,0.2c-0.2,0-0.5,0.1-0.7,0.2c-0.2,0.1-0.3,0.3-0.3,0.5c0,0.1,0.1,0.4,0.2,0.4
					s0.3-0.1,0.5-0.2c0.5-0.2,1.1-0.7,1.4-0.5c0.4,0.2,0.9,0.2,1.3,0.1c0.4,0,0.6-0.2,0.5-0.6c0-0.2,0-0.4,0.1-0.6h0.2
					c0.4,0.7,0.8,1.4,1.2,2.2c0.4,0,0.7-0.4,0.7-0.8c0-0.1-0.1-0.3-0.2-0.4c-0.5-0.6-1.1-1.1-1.8-1.7c0.2-0.2,0.4-0.4,0.6-0.6
					c0.1-0.2,0.2-0.4,0.1-0.5c-0.1-0.1-0.3-0.1-0.5-0.1s-0.4,0.1-0.6,0c-0.3-0.3-0.7-0.3-1,0c-0.3,0.2-0.7,0.3-0.8-0.3
					c0-0.2-0.2-0.3-0.3-0.4c-0.2-0.2-0.4-0.5-0.6-0.7c-0.2-0.4-0.4-0.6-0.7-0.4s-1,0-0.7,0.8c0,0.1,0,0.4-0.1,0.4s-0.4,0-0.4-0.1
					c-0.2-0.3-0.3-0.7-0.3-1c0-0.5-0.1-0.8-0.6-0.9c-0.2,0-0.4-0.1-0.5-0.1l0.7-0.9c-0.4-0.2-0.9-0.5-1.2-0.9
					c-0.4-0.7-1-0.5-1.6-0.5s-1,0-1.4,0H177v0.5l0,0c-0.1-0.2-0.1-0.4-0.1-0.5h-4.6v0.2l0.8-0.1c0.1,1-0.4,2-1.3,2.4
					c-0.1,0.1-0.1,0.3-0.3,0.4c-0.4,0.4,0.1,0.7,0.2,1l-1.4-0.3c1.1-0.3,0.6-0.9,0.7-1.4h-0.8c-0.1-0.1-0.1-0.2-0.2-0.3l1-0.5
					c-0.4-0.5-0.7-0.8-1.1-1.1c-0.1-0.1-0.3-0.3-0.5-0.4c-0.1,0-0.3,0.2-0.3,0.2c0.1,0.2,0.2,0.3,0.3,0.5c0.1,0.2,0.2,0.4,0.2,0.6
					c-0.2,0.6-0.5,1.3-0.7,2c-0.3-0.2-0.5-0.4-0.7-0.6c-0.2-0.6-0.9-0.8-1.5-0.6c0,0,0,0-0.1,0c-0.3,0.1-0.6,0.3-0.9,0.5
					c0.3-0.5,0.5-1,0.7-1.4c0.1,0.1,0.2,0.3,0.3,0.5c0.1,0,0.1,0,0.2,0c0-0.2,0.1-0.4,0-0.5c-0.4-0.6-0.1-0.6,0.4-0.6l0.9-0.1
					c-0.5-0.2-1-0.3-1.5-0.3c-0.8,0.1-1.8-0.5-2.5,0.5h-0.1c-0.1-0.1-0.2-0.2-0.5-0.4v0.9c0.6-0.3,1.4-0.1,1.7,0.5c0,0,0,0.1,0,0.1
					c-0.3,0.2-0.6,0.4-0.3,0.9c0,0.1,0,0.3-0.1,0.3s-0.3,0-0.3,0c-0.7-0.8-1.4-0.3-2.1-0.1c0,0.3,0.1,0.5,0.2,0.8l-0.8-0.1
					c0.1-0.2,0.1-0.5,0.2-0.7c0.2-0.4,0.5-0.8,0.8-1.3c-0.1,0-0.1-0.1-0.2-0.1l-0.3,0.2l-0.2-0.1c0.1-0.4,0.2-0.8,0.3-1.2l-3.2-0.2
					c0.2,0.3,0.3,0.4,0.4,0.6c-0.2,0.2-0.4,0.3-0.7,0.4c-0.6,0.2-0.7,0.3-0.3,0.9c0.1,0.1,0.2,0.3,0.3,0.4c-0.2,0.2-0.4,0.3-0.6,0.5
					l0.5,0.4c0,0.1-0.1,0.1-0.1,0.2c-0.2-0.1-0.4-0.2-0.6-0.2c-0.3,0-0.8,0-0.8,0.1c-0.2,0.6-0.4,1.2,0.2,1.7
					c0.1,0.1,0.2,0.2,0.2,0.3c0,0.2,0,0.4-0.1,0.6c-0.2-0.1-0.4-0.1-0.6-0.2s-0.1-0.3-0.3-0.5c-0.4-0.6-0.4-1.5-1.4-1.3
					c-0.4,0.1-0.7,0.4-1,0.5c-0.4,0.1-0.7,0.4-0.7,0.8c-0.1,0.3-0.2,0.7-0.3,1l-0.3-0.1c0-0.2,0.1-0.4,0.1-0.5
					c0.1-0.2,0.1-0.4,0.2-0.6l-0.7-0.1c-0.1,0.4-0.1,0.7-0.1,1c-1.8-0.8-1.4-2.3-1.4-3.5c-0.2,0-0.5,0-0.7,0c-0.1,0-0.3-0.4-0.2-0.4
					s0.4-0.2,0.6-0.4c0.3-0.2,0.5-0.4,0.7-0.7c0.1-0.1-0.1-0.3-0.3-0.7l-0.4,0.9c-0.1-0.1-0.1-0.1-0.2-0.2l-0.3-0.7
					c-0.2,0.1-0.4,0.3-0.6,0.4C149.6,9,149.3,9,149,9c-0.4,0.1-1,0.4-1.2-0.3c0-0.1-0.2-0.3-0.3-0.2c-0.6,0.3-1.3,0.3-1.9,0.1h-0.1
					c-0.2,0-0.5,0.1-0.7,0c-0.6-0.4-0.8-0.1-0.9,0.5c-0.5-0.4-0.9-0.9-1.6-0.7c0.4,0.6,0.7,1.2,1,1.8c-0.2,0.1-0.5,0.3-0.7,0.5
					l-0.4-0.6c-0.1,0-0.1,0-0.2,0c0,0.3,0,0.5,0,0.9c-0.2,0.1-0.4,0.2-0.5,0.3c-0.2-0.2-0.3-0.4-0.4-0.5c-0.6-0.1-0.7-0.5-0.8-1
					s-0.5-0.6-0.9-0.3c-0.2,0.3-0.5,0.6-0.7,0.9c-0.5-0.2-1.1-0.3-1.7-0.5c-0.4-0.2-0.9-0.3-1.3-0.4c-0.5,0.1-0.9-0.1-1.2-0.5
					c-0.2-0.4-0.6-0.3-0.8,0.1c-0.1,0.2-0.1,0.3-0.2,0.5c-0.5-0.1-1.1-0.3-1.6-0.4c-0.3,0-0.6,0.2-0.8,0.4c-0.4,0.4-0.8,0.8-1.2,1.2
					c-0.1,0.1-0.3,0.1-0.4,0.1c0,0,0-0.1,0-0.1l0.6-0.4l-0.6-0.1c-0.3-1.7-1.3-2.4-2.2-1.8c-0.4-0.1-0.8-0.2-1.2-0.2
					c-1.3,0-2.6,0.1-4,0.1c-0.4,0-0.9,0.1-1.3,0.2c-0.7-0.7-1.7,0.2-2.6,0c0.3,0.5,0.7,0.9,1,1.4c-0.6-0.4-1-0.9-1.5-1.3
					c-0.2-0.1-0.5-0.1-0.7,0c-0.3,0.4-0.5,0.8-0.7,1.2c-0.1,0.2-0.3,0.4-0.4,0.6c-0.3-1.3-0.3-1.3-0.9-1c-0.5-0.9-1.5-1.3-2.5-1
					c-0.1,0-0.3,0.2-0.3,0.3c0.3,0.7-0.6,0.8-0.7,1.3h-0.3c0-0.4-0.1-0.9-0.1-1.5H108c-0.3,0-0.8,0.1-0.8,0.2c0,0.4,0,0.8,0.2,1.1
					c0,0.1,0.1,0.1,0.2,0.2l-0.2,0.2c-0.3-0.3-0.6-0.6-0.9-0.9c-0.3-0.4-0.5-0.9-1-0.9c-0.7-0.1-1.3-0.1-2,0c-0.2,0-0.4,0.5-0.6,0.5
					s-0.5-0.3-0.8-0.4c-0.4,0-0.9,0-1.3,0c-0.3,0.6,0.1,1.3,0,1.9c-0.1,1-0.3,1.4-1.2,1.4v-1.7c0.9,0.2,0.3,0.9,0.8,1.3V9.2
					l-0.9-0.4c-0.1-0.1-0.2-0.3-0.3-0.3c-0.3,0.1-0.7,0.2-1,0.3c-0.3-0.1-0.7-0.3-1-0.3c-2.5,0-5,0-7.4,0h-2.1v0.3h1.6
					c0.1,0.2,0.1,0.4,0.2,0.6c0.6-0.9,1.4-0.3,2.1-0.4c-0.2,0.1-0.3,0.3-0.5,0.4c0.5,0.5,1,1,1.4,1.5s0.4,0.5-0.3,0.8h-0.1
					c-0.1-0.1-0.3-0.3-0.4-0.4l-0.2,0.1c0.2,0.5,0.4,1.1,0.6,1.6c-0.7,0.2-1.3,0.4-2,0.6c-0.1-0.5-0.4-0.9-0.7-1.4
					c-0.4-0.3-0.9-0.5-1.4-0.6l-0.1,0.1l0.4,0.5c-0.1,0.1-0.1,0.1-0.2,0.2c-0.2-0.2-0.6-0.3-0.7-0.5c0-0.4,0-0.8,0.1-1.1
					c0.1,0.1,0.2,0.1,0.2,0.2c0.2,0,0.4,0.1,0.5,0c0.1-0.2,0.2-0.3,0.1-0.5c-0.2-0.3-0.4-0.7-0.7-1c-0.1,0.1-0.2,0.3-0.2,0.4
					c-0.4-0.3-0.7-0.5-1-0.7C86.5,9.1,86.3,9,86,9c-0.6-0.2-1.3-0.2-1.9-0.3c-0.7,0-1.3-0.1-2-0.1s-1.4,0-2.1,0s-1.2,0.2-1.9,0.3
					c0.1,0.4,0.1,0.9,0.2,1.3s0,0.7-0.4,0.7c0.1-0.1,0.1-0.3,0.3-0.4c-0.2,0-0.3,0-0.6,0c1.1-1-0.4-1.1-0.3-1.7
					c-0.1,0.1-0.3,0.4-0.4,1l-0.7,0.2c0.5,0.6,0.9,1.1,1.3,1.7c-0.4-0.6-0.6,0.2-1.1,0.2c0-0.2,0-0.4,0-0.7s0.2-0.7-0.3-1
					s-0.4-0.8-0.7-1.2c0-0.1,0.1-0.2,0.1-0.2h-1.4c-3.1,0-6.1,0-9.2,0c-0.2,0-0.3,0-0.5,0.1c0.2,0.4-0.3,0.3-0.4,0.6
					s-0.4,0.4-0.7,0.6c-0.4-0.8,0.4-0.8,0.7-1.2H62v0.5c-0.3-0.6-0.8-0.5-1.3-0.5s-1-0.3-1.4-0.2c-1.3,0-2.7,0.1-4,0.2
					c-0.5,0-1.1-0.1-1.4,0.4c-0.6-0.7-1.5-0.2-2.3-0.5l1.2-1.4c0,0,0-0.1-0.1-0.1l-1.5,0.4c0-0.1,0-0.1-0.1-0.2
					C51.7,7,52,6.6,51.7,6c-0.5,0.2-1,0.3-1.3,0.4c-0.2,0.3-0.3,0.4-0.3,0.6c0,0.3,0,0.6,0.1,0.9h0.2l0.2-0.3
					C50.8,7.7,51,7.9,51.2,8c0.1,0.1,0.1,0.3,0.1,0.4c-0.1,0.1-0.3,0.2-0.5,0.2c-0.3,0-0.7-0.1-1-0.2c0.1,0.3,0.1,0.5,0.1,0.7
					c-0.2-0.2-0.3-0.4-0.5-0.6c-0.1,0.3-0.1,0.5-0.2,0.7c-0.1,0-0.1,0.1-0.2,0.1c0-1.2-0.9-0.7-1.4-0.8c0.1-0.3,0.1-0.6,0.2-1.1
					c0,0.1,0.1,0.2,0.2,0.3c0.2-0.3,0.4-0.6,0.6-0.8c0.3,0.2,0.5,0.4,0.7,0.6V5.9c0.1,0,0.1,0,0.2,0c0.1,0.2,0.3,0.3,0.3,0.4
					l1.1-1.7c-0.6,0.3-1.1,0.4-1.6,0.7l-0.1-0.2c0.3-0.2,0.7-0.3,0.8-0.6s-0.1-0.7-0.1-1c-0.1,0-0.1,0-0.2,0
					c-0.1,0.5-0.6,0.7-1.1,0.6c-0.1,0-0.3-0.1-0.4-0.2c-0.1-0.1-0.3-0.1-0.4-0.2c-0.2,0-0.4,0-0.6,0C47,3.8,46.8,4,46.4,4.4
					c0.2,0.1,0.5,0.3,0.8,0.3c0,0,0.1-0.3,0.3-0.5L48,4.4c-0.2,0.3-0.3,0.5-0.5,0.7l0.2,0.1L48,4.8v1.7h-0.1
					c-0.1-0.3-0.2-0.6-0.3-0.9l-0.8-0.1c-0.1,0.2-0.2,0.4-0.3,0.6c0-0.1-0.1-0.1-0.1-0.2c-0.2,0.1-0.6,0.2-0.6,0.3
					c-0.1,0.5-0.1,1.1-0.7,1.3c-0.1,0,0,0.2-0.1,0.4c0,0.2-0.1,0.4-0.1,0.5c-0.4,0.7-0.8,0.1-1.2,0h-1.1c-1.6,0-3.3,0.1-4.9,0
					c-0.6,0-1.2,0.2-1.6,0.6c-0.2,0.1-0.4,0.2-0.6,0.2c-0.2-0.1-0.4-0.3-0.4-0.5c-0.1-0.8-0.3-1-0.8-1.2c0,0.3-0.1,0.6-0.1,1.1
					C33.7,8,33.6,8,33.2,8.5c-0.6,0-1.2,0.1-1.7,0.1H20.5c-0.3,0-0.6-0.2-0.8-0.4c-0.3-0.4-0.9-0.5-1.4-0.3c0.2,0.3,0.4,0.5,0.5,0.7
					c-0.8,0-1.6,0.2-2-0.4c-1.1,0.8-2.4,0.1-3.5,0.5v8.9c0,0.9,0.2,1.8-0.5,2.4c0.2,0.1,0.3,0.3,0.5,0.4c-0.2,0.3-0.3,0.5-0.6,0.8
					c0.1,0.2,0.2,0.5,0.4,0.8c-0.3,0-0.6,0.4-0.7,1.1l-0.9,0.3l0.6-1.5C12,22,12,22,11.9,21.9c-0.4,0.4-1,0.7-1.1,1.1
					s-0.3,0.8-0.3,1.1c0,0.6-0.3,1.1-0.7,1.5c-0.4,0.2-0.4,0.7-0.2,1.1c0,0,0,0,0,0.1c0.3,0.3,0.3,0.7,0,1c0,0,0,0,0,0
					c-0.1,0.2-0.2,0.4-0.3,0.7c-0.1,0.3,0.1,0.6,0.4,0.7c0.1,0,0.1,0,0.2,0c0.4,0,1,0,1.2,0.2s0.7,0.2,1.1,0.3s0.4-0.1,0.4-0.3
					c-0.4-0.3-0.6-0.5-0.8-0.7l0.6-0.3c0.3-0.1,0.5-0.3,0.8-0.4c-0.1-0.2-0.1-0.4-0.2-0.5l0.2-0.1c0,0.1,0,0.1,0.1,0.2
					c0.2,0.7-0.4,1.4,0,2.1c0,0.1-0.1,0.2-0.1,0.2c-0.6,0.3-0.4,0.5,0,0.7c0,0.3,0,0.5,0.1,0.8c0.2,1,0.1,2.1-0.2,3.1
					c-0.4,0.9-0.9,0.1-1.3,0.2c-0.1-0.3-0.1-0.5-0.2-0.8c-0.2,0-0.4,0-0.7,0.1c-0.2,0.3-0.4,0.7-0.7,1.2l0.9-0.1
					c0.2,0.1,0.4,0.2,0.6,0.2c0.6,0,1.4,0.7,1.1,1.2c-0.3,0.5-0.5,0.9-0.8,1.3c-0.1-0.3-0.2-0.5-0.3-0.8c-0.3,0.4-0.5,0.9-0.5,1.4
					c-0.8-0.3-0.9-1.5-2-1.4c-0.1,0.7,0.4,1.2,0.8,1.5c0.3,0.3,0.8,0.2,1.1-0.1c0,0,0,0,0,0c0.1,0.5,0.5,0.9,1.1,1
					c0.1-0.5,0.3-1,0.4-1.5c0.3-0.1,0.7-0.2,0.9-0.2c-0.2,0.3-0.3,0.5-0.5,0.8c0.4,0.1,0.6,0.1,0.8,0.2c-0.1,0.3-0.3,0.5-0.4,0.6
					c0.2,0.2,0.4,0.3,0.5,0.4c-0.5,0.7-1-0.1-1.5,0.2c0.9,0.6,0.6,1.5,0.7,2.4c0,0.3,0.1,0.7,0.2,1c-0.1,0-0.3,0.1-0.5,0.2
					c0.5,0.3,0.3,0.9,0.4,1.3s-0.1,0.6-0.6,0.6s-0.9-0.2-1.3,0.2c-0.3,0.2-0.7,0.4-1.1,0.6c0,0-0.1,0.1-0.1,0.1s0.2,0.2,0.3,0.3
					c-0.1,0-0.1,0-0.2,0c-0.2,0.6-0.4,1.2-0.6,1.8l0.2,0.2c0.4-1,0.6,0.3,0.9,0l0.2-0.9c0.1,0,0.1,0,0.2,0c0.3,0.5,0.5,1.1,0.8,1.7
					c-0.2,0-0.2,0.1-0.3,0c-0.5-0.2-0.6,0.1-0.8,0.4c0,0.1,0.2,0.3,0.3,0.3c0.3-0.1,0.8-0.1,0.9-0.3c0.2-0.5,0.3-1,0.4-1.5l0.8,0.4
					c0.1,0,0.1,0,0.2,0v6.7c-0.3-0.4-0.6-0.5-1.1-0.1v-0.9c-0.5,0.4-1.1,0.7-0.9,1.2c0.4,0.8,0.8-0.1,1.3-0.1c0.3,0.1,0.5,0.9,0.7,0
					c0.1,0.2,0.2,0.5,0.3,0.8l-0.5-0.2v1.6L14,57c0.1,0.1,0.1,0.2,0.2,0.2l-0.4,0.2c-0.4,0.2-0.6,0.6-0.6,1.1c0,1.6,0,3.1,0,4.7
					c0,0.3,0.2,0.6,0.1,0.8c-0.3,0.5-0.1,0.8,0.4,1c-0.2,0.2-0.5,0.4-0.5,0.6c0,1.2,0,2.4,0,3.6c0.1,0,0.2,0.1,0.3,0.1H21
					c0.2,0,0.4-0.1,0.6-0.2c0.7,0.2,1.5,0.3,2.2,0.2c0.8,0.1,1.6-0.3,2-1V69h5.5c-0.1-0.3-0.2-0.5-0.4-0.8l0.7-0.6
					c-0.1,0.3-0.1,0.5-0.1,0.6c0,0.4,0,0.7,0.5,0.8h4.6c0.1,0,0.3-0.2,0.3-0.2c-0.3-0.3-0.5-0.4-0.7-0.6l0.1-0.3
					c0.4,0.1,0.7,0.1,1.1,0.2c-0.2,0.6,0,0.9,0.6,0.9h11.6c-0.3-0.6-0.5-1.2-0.8-1.8c0.2-0.2,0.4-0.3,0.7-0.4
					c0.2-0.1,0.5-0.2,0.6-0.1c0.3,0.3,0.6,0.6,0.7,1c0.1,0.4,0.1,0.9,0,1.3h10.5c-0.1,0.1-0.1,0.3-0.2,0.4c0.5,0.5,0.9-1.2,1.4-0.2
					c0.7-0.1,1.3-0.2,2-0.2c0.8,0.1,1.7-0.3,2.5,0.3c0.1,0.1,0.3,0,0.5,0c0.5-0.1,1-0.3,1.6-0.3c0.4,0.1,0.9-0.1,1.2-0.5
					c0-0.2,0-0.4,0.1-0.8c0.3,0.1,0.6,0.3,0.9,0.4c0,0.1,0,0.1-0.1,0.2c-0.2-0.1-0.4-0.1-0.5-0.2l-0.1,0.5c0.2,0.3,0.6,0.5,0.9,0.5
					c2.5,0,4.9,0,7.4,0c0.4,0.1,0.8,0.2,1.2,0.3c0.3-0.1,1-0.1,1.3-0.5c0.4-0.6,1.2-1.2,0.8-2.2l0.2-0.1c0.3-0.1,0.6,0,0.9,0.1
					c0.3,0.3,0.2,0.4-0.1,0.6c-0.3,0.4-0.5,0.8-0.7,1.3c0,0.1,0.1,0.3,0.3,0.3c0.6,0,1.3,0,2,0c-0.2-0.3-0.3-0.4-0.4-0.6
					c0.6-0.2,1.3,0,1.6,0.6h2.1c-0.3-0.4-0.6-0.7-0.9-0.9s-0.6,0.1-1,0.3c-0.1,0-0.3-0.2-0.6-0.4c0.9,0.1,0.4-0.5,0.4-0.7l1.1-0.8
					c-0.1-0.1-0.1-0.2-0.2-0.2c-0.5,0.2-0.8,0.1-0.7-0.6c0-0.1-0.2-0.3-0.2-0.4l-0.4-0.6c-0.1-0.1-0.1-0.3-0.2-0.4
					c0.2-0.2,0.4-0.5,0.4-0.6c-0.3-0.3-0.6-0.6-0.9-0.9l0.2-0.3l-0.6-0.1c0.8-0.6,1-0.5,1.6,0.2c-0.2,0.1-0.3,0.1-0.5,0.2
					c0.4,0.3,0.3,1,0.8,0.8c0.4,0.5,0.8,1,1.3,1.4c-0.2,0.1-0.3,0.3-0.5,0.3c0.6,0,1.1,0.2,1.7,0.4c0.5,0.4,0.6,1.1,0.3,1.6
					c0,0,0,0,0,0.1c0.6-0.1,1-0.3,1.5-0.4c-0.4,0.3-0.4,0.3-0.2,0.7c0.1,0.3,0.3,0.5,0.4,0.8l0,0c0.4,0.6,0.7,0.6,1.3,0.1
					c0.6,0.7,1,0,1.6,0c0.2,0.2,0.5,0.3,0.8,0.3c1.8,0,3.7,0,5.5,0c0.2-0.1,0.5-0.2,0.7-0.3c0.1,0,0.3,0.3,0.4,0.3
					c1.9,0,3.8,0,5.7,0l0.2-0.7l0.6,0.7h2c0.5,0,0.9,0,1.2-0.5h0.1V69h2.2c0.4-0.6,0.8-1.1,1.3-1.5c0.2,0.3,0.4,0.4,0.5,0.6
					c-0.4,0.3-0.9,0.5-1.3,0.8c0,0.1,0.1,0.2,0.1,0.2c0.6,0,1.2,0,1.8,0c0.9-0.1,2,0.3,2.8-0.5c0-0.6,0.1-1.2,0.1-1.8
					c0.1,0,0.1,0,0.2,0c0.1,0.2,0.2,0.4,0.3,0.6c0.1,0.3,0,0.7,0.6,0.7c0.1,0,0.2,0.3,0.3,0.5c0,0-0.1,0.1-0.1,0.1l-0.4-0.3
					c0.2,0.8-0.5,0.6-0.9,0.8h4.1c0.5-1,0.7-1.1,1.6-0.4c0.1-0.2,0.2-0.3,0.3-0.6c0,0.3,0.1,0.4,0.1,0.6c0.2,0.2,0.4,0.3,0.7,0.4
					c0.6,0.1,1.3,0.1,1.9,0.1c0.2,0,0.4-0.5,0.7-0.9c0.2,0.3,0.4,0.6,0.6,0.9h1.4c0.1-0.3,0.2-0.5,0.4-0.8c0.1,0.3,0.2,0.5,0.4,0.7
					c0.5-0.2,1.2,0.2,1.5-0.6c0.5,0.7,0.6,0.8,1.4,0.5l-0.6-0.4c0.5-0.2,0.8-0.4,1.1-0.5c0,0.2,0,0.4,0,0.7c0.5-0.4,0.8-0.7,0.4-1.1
					c0.2,0.1,0.3,0.3,0.4,0.6c0,0.2-0.2,0.4-0.3,0.7c0.3,0.3,0.9,0.3,1.2,0c0,0,0,0,0,0c0.4,0.1,0.7,0.2,1.1,0.3
					c1.3,0,2.6-0.1,3.9,0c1,0,1.9-0.2,2.7-0.7c-0.1-0.1-0.1-0.3-0.2-0.4l0.2-0.1c0.1,0.2,0.3,0.5,0.5,0.7c0.3,0.2,0.6,0.6,0.9,0.6
					c0.7,0.1,0.7,0,1-0.3c-0.6-0.2-1-0.4-1.1-0.6c0.2,0,0.4,0,0.6,0c-0.4-0.3-0.6-0.5-0.8-0.7c-0.1,0.2-0.3,0.4-0.5,0.6l-0.3-0.6
					c0.5-0.2,1-0.4,1.4,0.1c0,0,0.3,0,0.3-0.1c0-0.1,0-0.3,0-0.4c0-0.1-0.2-0.2-0.3-0.3c0,0,0.1-0.1,0.1-0.1
					c0.3,0.3,0.8,0.5,0.9,0.8c0.2,0.5,0.5,0.9,1.1,0.9c0.3,0,0.6,0.2,0.8,0.4c0.3,0.3,0.7,0.4,1.1,0.3c-0.2-0.4-0.4-0.7-0.7-1
					c-0.1-0.1-0.3-0.3-0.4-0.2c-0.7,0.1-1-0.3-1.2-0.9c0.2-0.1,0.3-0.2,0.5-0.3c-0.6-0.3-1.3-0.4-1-1.3c0.2,0.1,0.6,0.2,0.6,0.3
					c0.1,0.8,0.8,1.2,1.3,1.7s1,0.8,1.4,1.3s0.4,0.8,1.1,0.5c-0.6-0.7-0.7-1.8-1.8-2.2c-0.4-0.1-0.4-1,0-1.2
					c0.1,0.5,0.6,0.8,1.1,0.7c0,0,0.1,0,0.1,0c0.7-0.1,1.4-0.1,2.1-0.2c0.1,0,0.3-0.3,0.3-0.3c-0.2-0.3-0.5-0.6-0.7-0.9
					c-0.1-0.1-0.4-0.1-0.7-0.2c0.1,0.4,0.1,0.6,0.1,0.9l-0.2,0.1c-0.3-1.1-1-1.5-2.1-1.1c-0.2-0.4-0.3-0.7-0.5-1
					c0.6,0.2,1,0,1.3-0.8c0.2,0.3,0.3,0.6,0.4,0.7l1.1-0.3c0,0.1,0.1,0.2,0.1,0.3c-0.3,0.1-0.6,0.2-0.9,0.4c0.2,0.1,0.4,0.3,0.7,0.5
					c0.2-0.4,0.6-0.9,0.5-1.2c-0.3-0.7-0.1-1,0.5-1.2c0.2-0.1,0.3-0.5,0.4-0.9c-0.3-0.1-0.6-0.1-0.9-0.2s-0.4,0-0.6,0
					c-0.3-0.1-0.7-0.3-1.1-0.3c-0.2,0-0.4,0-0.6,0.1c-0.1,0,0,0.3,0.1,0.5s0.2,0.3,0.4,0.5c0.3-0.2,0.5-0.3,0.7-0.5
					c0,0,0.1,0.1,0.1,0.1c-0.3,0.4-0.6,0.8-1,1.3c-0.3-0.4-0.4-0.8-0.6-1.1c-0.4,0.2-0.8,0.4-1.1,0.5s-0.9,0.2-1.1,0.5
					c-0.5,0.7-0.9,0.2-1.4,0c0.1-0.2,0.1-0.4,0.2-0.6c-1.1-0.9-0.8-3.5,0.4-4c-0.1,0.5-0.3,0.9-0.5,1.6l0.7-0.5
					c0.7,0.6,1.2,0.3,1.7-0.3c0.4-0.5,0.7-1.1,1.5-1.3c0.1,0,0.4-0.3,0.4-0.4c0-0.2-0.2-0.4-0.4-0.6c-0.7-0.1-1.4,0.1-1.9,0.7
					c-0.2-0.9-0.5-1.7-1-2.5c-0.2,0.4-0.3,0.5-0.3,0.7c-0.1-0.7,0.1-0.9,0.7-0.7c0.2-0.9,0-1.1-0.9-1.1c-0.1,0-0.2,0-0.3,0
					c-0.4-0.1-0.5,0.1-0.5,0.5c0,0.2-0.1,0.5-0.2,0.7c-0.3-0.4-0.4-0.7-0.7-0.8c-0.8-0.4-0.9-0.6-0.5-1.5l-0.2,0.6
					c0,0,0.1,0.1,0.1,0.1c0.4-0.3,0.8-0.5,1-0.7c0.4,0.3,0.9,0.6,1.2,0.9c0-0.1,0-0.1,0-0.2c0.4-0.1,0.8-0.3,1.2-0.2
					c0.6,0.2,0.8-0.3,0.8-0.6c0-0.5,0.3-0.4,0.7-0.3c-0.3,0.3-0.5,0.6-0.7,0.8c-0.1,0.1-0.1,0.3,0,0.4c0.1,0.1,0.2,0.2,0.4,0.2
					c0.2-0.1,0.4-0.3,0.6-0.5c-0.1,0.3,0.1,0.5,0.6,0.6c0.4,0.1,0.9,0.2,1.4,0.1c0.4,0,0.9,0,1.4,0v-0.2c-0.3-0.1-0.6-0.2-0.6-0.2
					c-0.2-0.4-0.4-0.7-0.6-1.1c0.3-0.2,0.5-0.5,0.8-0.8l0.1,0.1c0-0.2,0-0.3,0.1-0.5l0.6,0.1c-0.2-0.6-0.2-1.4-1-1.5
					c-0.3,0-0.6,0.3-0.9,0.6c-1.1-0.4-1.2-0.3-1.3,0.6c-0.4-0.1-0.7-0.6-0.6-1c0,0,0,0,0-0.1c0.3-0.9-0.3-1.4-0.7-2
					c0.7-0.3,0.7-0.2,0.8,0.7l2.4,0.9c-0.1-0.1-0.1-0.3-0.2-0.5c0.5,0.5,1.2,0.7,1.9,0.4c0.4-0.1,0.8-0.1,1.3-0.1v0.1l1.3-0.6
					c-1-0.6-1.6-1.6-1.6-2.8l1.3,0.6c0.1-0.3,0.2-0.5,0.3-0.9c0.4,0.6,0.2,1-0.3,1.4c0.4,0.2,0.7,0.3,1,0.5
					c-0.1,0.3-0.3,0.7-0.4,1.2h1c0.1-0.5,0.6-0.9,1.1-0.9c0,0,0.1,0,0.1,0c-0.4,0.9-0.8,1.7-1.2,2.6c-0.3,0.6-0.2,1,0.4,1.2
					s1.3,0.4,1.9,0.6l0.9-0.6c-0.4-0.3-0.7-0.6-1-1s-0.5-0.4-0.2-0.9c0.5-0.7,1.3-1,2.1-0.7c-0.8,0.8-0.8,1-0.1,1.7
					c-0.1,0.4-0.3,0.8-0.4,1.3c-0.3,0.5-0.1,1.2,0.4,1.6c0.1,0.1,0.2,0.1,0.3,0.1c-0.6,0.7,0,1,0.4,1.3c0.2-0.2,0.4-0.5,0.5-0.8
					c0.1-0.2,0-0.5-0.1-0.6c-0.3-0.4-0.7-0.7-1.1-1.1c0.3-0.3,0.6-0.6,0.9-0.9c0.1,0.2,0.2,0.4,0.3,0.6l0.5-0.9
					c-0.3-0.5,0.3-1.3,1.1-1.3c0.1,0,0.2-0.1,0.3-0.2c-0.1-0.1-0.2-0.2-0.2-0.2c-0.2-0.1-0.4-0.1-0.6-0.2c0.4-0.2,0.6-0.3,0.7-0.4
					s0.5-0.3,0-0.6c-0.1-0.1-0.1-0.3-0.2-0.7l0.9,0.4c0.1,0,0.1,0,0.2,0c-0.9-1.3,0.1-1.6,0.9-2.1c0.2,0.1,0.4,0.3,0.6,0.4l0.1-0.1
					l-0.6-0.8c0.3,0,0.6-0.2,0.7-0.1c0.6,0.5,0.9-0.1,1-0.3c0.2-0.3,0.1-0.7-0.3-0.9c-0.1,0-0.2-0.1-0.3-0.1c-0.2,0-0.3-0.2-0.6-0.4
					c1,0.1,1.8,0,2.3-1.1c0.1,0.5,0.2,0.8,0.3,1.1c-0.1-0.1-0.2-0.2-0.3-0.3c-0.1,0.2-0.3,0.5-0.4,0.7l-0.4-0.4l-0.2,0.1
					c0,0.2,0,0.4,0.1,0.5c0.6,0.3,0.3,0.8,0.4,1.2s0.1,1.2,0.2,1.8l-2.1,0.6c0.3,0.6,0.5,1.1,0.8,1.6c-0.3-0.2-0.4-0.5-0.6-0.6
					s-0.5,0.2-0.8,0.3l-0.3-0.2c0,0.5,0.1,0.9,0.3,1.4c0.1,0,0.3,0,0.4,0c-0.1,0.2-0.1,0.5-0.3,0.5c-0.2,0-0.4,0-0.5-0.2
					c-0.3-0.5-0.7-0.3-0.9-0.2c0,0.3-0.1,0.6-0.2,0.9c-0.7-0.1-0.7,0.6-1.2,0.8l0.5,0.5c-0.2,0.4-0.4,0.7-0.6,1.2
					c0.3-0.1,0.5-0.1,0.8-0.2c-0.1,0.7-0.1,1.3-0.2,1.7c0.3,0.3,0.5,0.6,0.7,0.8c0.2,0.1,0.4,0.3,0.6,0.4c0.1-0.2,0.2-0.5,0.2-0.6
					c-0.1-0.4,0-0.6,0.3-0.7c0,1.2,1.1,1.5,1.7,2.1s0.8-0.4,1.4-0.2l0.4,0.7c-0.8-0.5-0.9,0.2-1.1,0.5c-0.2,0.3-0.5,0.4-0.8,0.2
					c-0.1-0.1-0.2-0.1-0.2-0.2c-0.2-0.2-0.5-0.4-0.8-0.5c0.1,0.5,0.1,0.8,0.2,1.2l-0.7,0.1c-0.9,0.1-1.7,0.1-2.6,0.2
					c-0.1,0-0.3,0.3-0.3,0.4c0,0.2,0,0.4,0.1,0.6c-0.1,0-0.2,0-0.2,0c-0.1-0.3-0.1-0.5-0.2-0.8l-1.1,0.2c-0.3-0.3-0.4-0.3-0.8,0
					c0.1,0.1,0.3,0.2,0.4,0.2c0.5,0.2,0.5,0.5,0.3,0.9c-0.1,0.2-0.2,0.3-0.3,0.4c-0.1,0.1-0.1,0.2-0.1,0.4c0.1,0,0.3-0.1,0.4-0.1
					c0.1-0.1,0.2-0.2,0.2-0.3c0.5,0.1,0.9,0.3,1.4,0.5c0.3,0.2,0.9,0.2,0.8,0.9c0,0.3,0.4,0.8,0.7,1c0.5,0.4,1.1,0.7,1.7,0.9
					c-0.6,0.3-1,0.5-1.4,0.7c0.5,0.8,0.5,0.8,1.9,0.3c0.1-0.1,0.2-0.3,0.3-0.5c0.2,0,0.3,0.1,0.5,0.2c0.2,0.1,0.3,0.2,0.6,0.4
					l-0.9,0.1c0.1,0.4,0.1,0.7,0.3,1.1c0.2,0.3,0.3,0.5,0.6,0.8l-1-0.1c-0.1-0.7-0.4-1-1-1s-0.8,0.8-0.8,1.6c-0.5-0.5-1-0.4-1.6-0.3
					c-1,0.2-0.6,0.7-0.6,1.3h0.9c0.4,0,0.9,0,1.3-0.1c0.6-0.3,1.1-0.8,1.7,0c0.1,0.1,0.3,0.1,0.4,0.1c0.6,0.1,0.9-0.3,1.4-0.6
					s0.6-0.5,0.4-0.9c0.4-0.1,0.7-0.2,1.1-0.3c-0.1,0.6-0.2,1.1-0.4,1.7h9.2c0.7,0,1.4-0.1,2-0.1c0.1-0.1,0,0-0.1,0.1h1.3
					c-0.2-0.2-0.5-0.4-0.7-0.6c-0.2-0.2-0.3-0.4-0.5-0.7c0.4-0.1,0.7-0.2,1-0.2c-0.3,0.7-0.1,1,0.6,1c0.1,0,0.3,0.1,0.4,0.2
					s0.3,0.3,0.4,0.3c1.3,0,2.6,0,3.8,0c0-0.3,0.1-0.4,0.2-0.8c0.1,0.4,0.2,0.6,0.3,0.8c0.6,0,1.3,0,2,0c0.4,0.1,0.8-0.2,0.8-0.5
					c0,0,0,0,0-0.1c0.3,0.1,0.6,0.2,0.8,0.3s0.5,0.3,0.8,0.3c0.8,0,1.5,0,2.3,0c0.4,0,0.8-0.2,1.2-0.1c0.8,0,1.6,0.2,2.5,0.3
					c-0.1-0.3-0.2-0.5-0.3-0.7l0.1-0.2c0.4,0.2,0.8,0.4,1.1,0.6c0.7,0.4,1.1-0.1,1.3-0.7c-0.2-0.2-0.3-0.4-0.5-0.6
					c-0.2-0.2-0.4-0.3-0.6-0.4c-0.3-0.1-0.5-0.1-0.8-0.1c0,0.2,0,0.3-0.1,0.5l-0.7,0.1c0.1,0.1,0.1,0.2,0.3,0.5l-1.4-0.9
					c0.4-0.2,0.6-0.4,0.8,0.1c0,0.1,0.2,0.1,0.3,0.2c0.5-0.7-0.4-0.5-0.6-0.8c0.1-0.1,0.3-0.2,0.4-0.3c-0.3-0.1-0.6-0.2-0.9-0.3
					c0,0,0-0.1,0-0.2l1.1,0.1c0,0.1,0.1,0.1,0.1,0.1c0.7-0.7,2.1-1.1,2.1-0.6l-0.6,0.1c0.2,0.4,0.6,0.4,1.1,0
					c-0.1-0.3-0.2-0.6-0.4-1.1c0.3,0.1,0.6,0.1,0.7,0.2c0.3,0.4,0.6,0.2,0.6-0.1c0.2-0.7,0.5-0.3,0.8-0.1c0-0.2,0.1-0.3,0.1-0.5
					l-0.6-0.3c0-0.1,0.1-0.2,0.1-0.2c0.2,0.2,0.4,0.3,0.6,0.5s0.4,0.5,0.6,0.7c0.4-0.7-0.3-1.5,0.2-2c0.3,0.3,0.7,0.5,1.1,0.8
					c0.1,0.1,0.4-0.1,0.6-0.1c0-0.3-0.1-0.5-0.2-0.8c0-0.1-0.3-0.1-0.6-0.2c0.4-0.2,0.6-0.3,0.9-0.5c0.2,0.7,0.4,1.3,0.6,2
					c-0.4,0-0.9,0.1-1.1-0.1c-0.7-0.6-0.8-0.1-1,0.4c0.6,0.5,1.5,0.5,2.2,0c0.4,0.7-0.4,0.4-0.3,0.7c-0.2,0.3-0.3,0.6-0.5,1
					c0.3,0.1,0.6,0.1,0.9,0.2c0.4,0,0.6,0.2,0.6,0.6c0.1,0.9-0.6,0.8-1.1,1c-0.5-0.6-0.9-0.8-1.1-0.6c0.3,0.6,0.6,1.1,1,1.8h5.3
					c0.4,0,1,0.2,1-0.4c0.3,0.2,0.7,0.3,1.1,0.4c0.8,0.1,1.6,0.1,2.4,0c0.3,0,0.6-0.2,0.8-0.2c1.4,0,2.8,0.1,4.2,0.1
					c0.5,0,1-0.2,1.5-0.2c0.7,0.1,1.4,0.1,2.1,0.3v-6.2c0-7.4,0-14.8,0-22.2c0-1.9,0.3-3.8-0.2-5.7c0-0.2,0-0.4,0-0.6
					c0.2,0,0.4-0.1,0.6-0.2c-0.2-0.5-1-0.7-0.5-1.3c0.4,0.1,0.6,0.1,0.9,0.2c-0.3,0.4-0.3,1.1,0.2,1.4c0.1,0.1,0.3,0.2,0.4,0.2
					c-0.1-0.6-0.2-1.2-0.2-1.8c0.4,0.2,0.7,0.3,1,0.3s0.3-0.4,0.5-0.8c-0.2,0-0.3,0.1-0.5,0.1c0.1-0.5,0.1-1.1,0.2-1.6
					c0.1-0.1,0.3-0.2,0.5-0.3L225.4,30.5z M13.3,26.9c-0.5-0.5-1.6-0.5-1.4-1.7c0.2,0.1,0.4,0.3,0.6,0.4
					C13.5,25.9,13.5,25.9,13.3,26.9L13.3,26.9z M16.5,63.4c0,0.2,0,0.5,0,0.7c0,0.2,0,0.3,0,0.5h-0.2c-0.1-0.5-0.2-1.1-0.3-1.7
					C16.4,63,16.6,62.9,16.5,63.4z M16.8,66.4c-0.1-0.4-0.1-0.8-0.2-1.3c0.1,0,0.2,0,0.3,0C17.4,65.5,17.4,66,16.8,66.4L16.8,66.4z
					 M18.6,62.6c-0.2-0.1-0.3-0.1-0.5-0.2c-0.2-0.1-0.3-0.2-0.5-0.3l0.4-0.6l0.7,1C18.7,62.6,18.7,62.6,18.6,62.6L18.6,62.6z
					 M24.1,57.2c0.8-0.5,0.9,0.6,1.5,0.7l-1,0.7c-0.1-0.3-0.3-0.5-0.5-0.9l0.8,0.4c0-0.1,0.1-0.1,0.1-0.2L24.1,57.2z M21.8,56.6
					c0.1,0.1,0.3,0.3,0.4,0.5l-0.7,0.1L21.8,56.6L21.8,56.6z M19.5,55.5c0.1-0.2,0.3-0.4,0.5-0.7c0.1,0.4,0.1,0.6,0.2,1L19.5,55.5z
					 M22.2,59.6c0,0.1-0.1,0.3-0.2,0.4c-0.1,0.1-0.3,0-0.5,0c0-0.2,0-0.3,0-0.5c0.1-0.2,0.1-0.4,0.2-0.5c0.1-0.3,0.1-0.5,0.2-0.7
					c-0.1,0-0.1,0-0.2,0c-0.4,0.3-0.9,0.5-1.3,0.8c0,0-0.1-0.1-0.1-0.1l1.9-1.9c0.1,0.2,0.2,0.5,0.2,0.8
					C22.5,58.5,22.4,59.1,22.2,59.6L22.2,59.6z M23.4,65.9c-0.2-0.2-0.4-0.3-0.5-0.5c0.1-0.1,0.2-0.1,0.2-0.2
					c0.2,0.2,0.4,0.4,0.6,0.6C23.6,65.8,23.5,65.9,23.4,65.9L23.4,65.9z M24.7,60.2c-0.2-0.1-0.3-0.3-0.5-0.4l-0.1,0.1
					c-0.1-0.2-0.1-0.4-0.2-0.7l0.8,0.4c0.1-0.2,0.3-0.4,0.4-0.7l0.3,0.2c-0.1,0.3-0.3,0.7-0.4,1l0.9,0.7C25.1,61,25,60.5,24.7,60.2
					L24.7,60.2z M27.7,59.1l0.4,0.1c0-0.1-0.1-0.3-0.1-0.4c0.6,0.2,0.6,0.6,0.3,1.1L28,59.5l-0.6,0.4c0,0,0-0.1-0.1-0.1
					C27.5,59.5,27.6,59.3,27.7,59.1L27.7,59.1z M29,66.1c-0.4-0.5-0.7-0.9-1.1-1.3c0.3-0.5,1-1,0.7-2.1c-0.3,0.3-0.5,0.6-0.7,0.7
					c-0.3-0.5-0.5-0.9-0.8-1.4c0.8-0.5,0.6,0.9,1.3,0.5c0-0.2,0.1-0.4,0.1-0.8c0.5,0.5,1,0.9,1.4,1.2c-0.2,0.4-0.4,0.6-0.5,0.8
					L29,63.4c0,0.5,0.4,1.1-0.6,0.9C28.6,64.9,28.7,65.4,29,66.1L29,66.1z M30.6,65.2c-0.2,0.5-0.7,0.9-1.2,1c0,0-0.1,0-0.1-0.1
					c0-0.1-0.1-0.3-0.1-0.6c0.8,0.5,0.8-0.3,1.1-0.6c0-0.1,0-0.4,0.1-0.4c0.6-0.1,1.2-0.7,1.9,0C31.6,64.7,31.1,64.9,30.6,65.2
					L30.6,65.2z M89.9,13.2l0.1,0.3c-0.3,0.1-0.5,0.7-1.1,0L89.9,13.2L89.9,13.2z M84.1,50.7c0,0,0,0,0.2,0.1l-0.7,0.5l0.3,0.5
					c-0.3-0.1-0.6-0.1-0.8-0.2s-0.4-0.2-0.5-0.1c-0.6,0.4-0.8-0.1-1-0.4l0.1-0.1C82.6,51.7,83.3,50.9,84.1,50.7L84.1,50.7z
					 M82.6,17.9c0.5,0.2,0.8,0.4,1,0.5c0.1,0.4,0.2,0.5,0.3,0.7s0.1,0.2,0.1,0.3c-0.1,0-0.3,0.1-0.4,0c-0.2-0.1-0.3-0.1-0.4-0.3
					C83,18.8,82.8,18.4,82.6,17.9L82.6,17.9z M81.4,61l1.3,0.8c0-0.3-0.1-0.6-0.1-0.9c0.2,0,0.4,0,0.5,0c0,0.2,0,0.5-0.1,0.7
					c-0.1,0.2-0.4,0.4-0.5,0.3c-0.9-0.2-0.9-0.2-1,0.7c0,0.1,0,0.2,0,0.3c-0.3-0.4-0.8-0.7-0.1-1.1C81.5,61.8,81.4,61.3,81.4,61
					L81.4,61z M82.1,53.1c0,0-0.1-0.1-0.1-0.2c0-0.1,0.1-0.1,0.1-0.2c0.3,0,0.7,0,1,0.1c0,0.1,0,0.2,0,0.3L82.1,53.1L82.1,53.1z
					 M82.5,53.8l-0.9,0.6c-0.1-0.2-0.1-0.4-0.2-0.7L81,54c-0.2-0.7-0.3-1.3-0.6-2.1c0.4,0.2,0.6,0.3,0.8,0.3c0,0.4,0,0.9,0.1,1.5
					l0.3-0.3L82.5,53.8L82.5,53.8z M80.5,50.7c0,0.2-0.1,0.5-0.1,0.7c-0.1,0-0.2-0.1-0.5-0.3c0.1,0.3,0.2,0.5,0.3,0.7L79.7,52
					c-0.2-0.3-0.3-0.7-0.4-1c0-0.1,0.3-0.3,0.4-0.4C80,50.6,80.2,50.6,80.5,50.7L80.5,50.7z M79.1,15.8l0.4,0.4
					c-0.2,0.2-0.3,0.4-0.4,0.5c-0.2-0.1-0.3-0.2-0.6-0.3l0.8-0.4C79.2,15.9,79.2,15.9,79.1,15.8L79.1,15.8z M78.1,52.6
					c0.5,0.4,0.7,0.9,0.1,1.4l0.6,0.4l-0.5,1H78c0-0.2-0.2-0.3-0.1-0.5c0.3-0.7,0.3-0.8-0.5-0.9c-0.1,0-0.1,0-0.4-0.1
					c0.3-0.3,0.5-0.5,0.7-0.8l-0.9-0.7l-0.2,0.1c0.1-0.4,0.2-0.9,0.3-1.5c0.3,0.1,0.5,0.2,0.8,0.3c0.1,0.1,0,0.4,0,0.5
					c0,0.2,0.1,0.5,0.3,0.7L78.1,52.6z M76.7,50.6l-1.4-0.7c0.1-0.3,0.3-0.6,0.4-0.9c0.1,0,0.2,0,0.3,0
					C75.1,49.9,76.4,49.8,76.7,50.6L76.7,50.6z M76.9,21.1c-0.2-0.1-0.5-0.3-0.7-0.4c0.4-0.3,0.9-0.2,1.2,0.2
					c0.1,0.1,0.1,0.2,0.1,0.2C77.3,21.2,77.1,21.1,76.9,21.1L76.9,21.1z M77.7,49.4c-0.2,0.4-0.4,0.7-0.7,1.1v-1.8
					C77.2,48.9,77.4,49.1,77.7,49.4L77.7,49.4z M76.4,52.8c0,0.2,0,0.5-0.1,0.5c-0.3,0.1-0.5,0.1-0.8,0.2c0,0,0-0.1,0-0.1
					C75.8,53.2,76.1,53,76.4,52.8L76.4,52.8z M76.8,54.5l0.6,0.5c-0.2,0.1-0.3,0.2-0.5,0.3c0.3,0.4,0.5,0.7,0.7,1.1l-0.1,0.1
					l-1.3-0.8L76.8,54.5z M78,19.2l-0.3-0.5L77,19.1c-0.2-0.5-0.1-0.8,0.3-0.8C77.9,18.2,78,18.7,78,19.2L78,19.2z M76.9,14
					c0.2,0.1,0.4,0.2,0.7,0.3c0,0,0,0.1,0,0.1c-0.2,0-0.5,0-0.7-0.1c-0.1-0.1-0.2-0.2-0.3-0.3C76.7,14,76.9,13.9,76.9,14L76.9,14z
					 M76.5,18.1c-0.4-0.3-0.6-0.6-1-1l0.8,0.2v-0.2c-0.2-0.2-0.4-0.5-0.6-0.8c-0.1,0.2-0.3,0.3-0.5,0.6c0-0.2,0-0.5,0-0.7
					c0.1-0.1,0.3-0.2,0.4-0.4C76,16.4,76.8,16.9,76.5,18.1L76.5,18.1z M74.7,14.8c0-0.1,0.1-0.1,0.1-0.2c0.4,0,1-0.1,1.1,0.7
					L74.7,14.8z M73.9,17.6c-0.3-1,0.1-1.7,1.2-1.6l-0.6,0.4c0,0.2,0.1,0.4,0.1,0.6c0.2,0.2,0.4,0.4,0.6,0.7L75,17.8
					C74.7,16.9,74.2,17.6,73.9,17.6L73.9,17.6z M74,22l-0.2,0.1c-0.3-0.3-0.7-0.5-0.2-1C73.8,21.3,73.9,21.7,74,22L74,22z
					 M73.7,12.9c-0.2,0-0.5-0.1-0.7-0.3c-0.1-0.1,0.1-0.4,0.2-0.7c0.7,0.8,1.3,1,2,0.4l0.3,0.5l-0.7,0.6c-0.2,0.2-0.4,0.4-0.5,0.7
					c-0.2-0.2-0.3-0.4-0.3-0.5c0.2-0.2,0.3-0.3,0.5-0.5L73.7,12.9L73.7,12.9z M75.5,9.9l-0.3,0.4c0.1,0.3,1,0.2,0.4,0.7
					c-0.2,0.2-0.7,0.1-1.2,0.2l-0.3,0.4c-0.3-0.1-0.5-0.2-0.7-0.3c-0.1-0.2-0.1-0.4,0-0.6c0.7-0.1,0.5-0.6,0.5-1.1
					C74.6,9.6,75,9.4,75.5,9.9L75.5,9.9z M74,9.6l-2.9-0.9C72.1,8.8,73.3,8.6,74,9.6z M71.7,14.1C71.7,14.1,71.7,14.1,71.7,14.1
					c0,0.2-0.1,0.4-0.3,0.6c0.2,0.1,0.3,0.3,0.5,0.3s0.5-0.1,0.5-0.2c0-0.5,0-1,0-1.5c0.5,0.3,0.5,1.4,1.4,0.8
					c0.1,0.3,0.1,0.6,0.2,0.9l-1.7,0.4c0.1,0.3,0.1,0.7,0.3,1.2c-0.6-0.7-1.1-1.4-1.6-2L71.7,14.1L71.7,14.1z M73.2,51.8
					c-0.1,0.7-0.1,1.3-0.2,2h-0.2c0-0.5,0-1-0.6-1.2c0-0.4,0-0.8,0.1-1.1L73.2,51.8L73.2,51.8z M71.7,49.8c0,0,0.1,0.1,0.2,0.1
					c-0.2,0.3-0.4,0.6-0.7,1c-0.1-0.3-0.2-0.5-0.3-0.6L71.7,49.8L71.7,49.8z M71.3,56.5c-0.4,0.2-0.8,0.4-1.3,0.5
					c-0.3,0.1-0.6,0-0.3-0.5c0-0.1,0-0.2,0-0.3c-0.4-0.7-0.4-0.7-0.1-1.4c0.1,0.2,0.1,0.4,0.2,0.7c0.2-0.2,0.3-0.4,0.6-0.8
					c0,0.3,0.1,0.6,0,0.7c-0.8,0.5-0.2,0.9,0.1,1.4c0.1-0.5,0.1-0.9,0.2-1.5l1,0.4c0,0,0,0.1-0.1,0.1L71,56L71.3,56.5L71.3,56.5z
					 M70.5,54c0-0.1,0-0.2,0-0.3c0.3-0.2,0.7-0.4,0.9,0.4L70.5,54z M70.7,11.3l-0.5,0.4c-0.5-0.1-1-0.1-1.4-0.2
					C69,11.1,69.3,11,70.7,11.3L70.7,11.3z M68.8,19.4c0.2,0.3,0.3,0.6,0.5,0.8l-0.2,0.1c-0.1-0.2-0.3-0.4-0.5-0.7
					c-0.1,0.5-0.3,0.9-0.4,1.3c-0.3-0.3-0.6-0.6-1-0.9C67.8,19.8,68.3,19.6,68.8,19.4L68.8,19.4z M68.4,24.9c-0.7,0.2-1-0.1-1.2-0.7
					C67.7,24.1,68.2,24.4,68.4,24.9L68.4,24.9z M68.5,55.7v0.7l-1.2-0.5C67.8,55.8,68.1,55.8,68.5,55.7L68.5,55.7z M66,12.9h0.2
					c0,0.2,0.1,0.6-0.1,0.6c-0.5,0.3-0.7,1-0.4,1.5c0,0,0,0.1-0.1,0.3L65.2,15C65.5,14.3,65.7,13.6,66,12.9L66,12.9z M64.8,20
					l-0.9,0.6l-0.2-0.1c0.1-0.2,0.2-0.3,0.3-0.5c-0.1-0.2-0.3-0.4-0.5-0.6l0.6-0.7C64.2,19.2,63.7,19.8,64.8,20L64.8,20z M64.7,54.9
					c-0.2,0.3,0,0.9-0.6,0.8c0.1-0.3,0.1-0.6,0.2-0.8c0-0.1,0-0.3,0.1-0.4c0,0,0.2,0,0.3,0C64.7,54.6,64.7,54.7,64.7,54.9L64.7,54.9
					z M63.2,17.2v-1c0.2,0.3,0.4,0.4,0.6,0.7C63.6,17,63.4,17.1,63.2,17.2L63.2,17.2z M62.3,10.3c0,0.1,0,0.3,0,0.4
					c0.3,0,0.6-0.1,1-0.1c0,0.1,0,0.4-0.1,0.4c-0.3,0.1-0.7,0.1-1,0c-0.3-0.2-0.5-0.6-0.9-0.9L62.3,10.3L62.3,10.3z M61.4,11.2
					l0.6,1c-0.3-0.1-0.7-0.1-1.1-0.2C61.1,11.7,61.2,11.5,61.4,11.2L61.4,11.2z M61,12.7c0.2,0.4,0.3,0.7,0.5,1.1l0.6-0.7
					c0.3,0.1,0.5,0.1,0.8,0.1c0.1,0,0.2-0.2,0.3-0.3L63,12.6c-0.3-0.2-0.6-0.3-0.9-0.4l1.4,0.1c0-0.2,0-0.4,0.1-0.6
					c0.1,0,0.1,0,0.2,0c0,0.2,0.1,0.5,0.2,0.7c0.1,0.2,0.3,0.3,0.4,0.4c-0.1,0.2-0.2,0.4-0.3,0.7c-0.4-0.2-0.8-0.1-1.2,0.6
					c0-0.1,0-0.2,0-0.4c0-0.1,0.1-0.2,0.1-0.3l-1.1,0.6c0,0.1-0.1,0.3-0.2,0.5h1c-0.1,0.3-0.1,0.7-0.2,1.1l-1.3-0.4
					c0.2-0.3,0.3-0.5,0.4-0.7c-0.2-0.4-0.4-0.8-0.5-1.2c-0.1-0.2-0.1-0.4-0.2-0.7C61,12.8,61.1,12.7,61,12.7L61,12.7z M62.7,19.5
					c-1.6-0.5-1.7-0.6-0.8-1.3C62.2,18.6,62.4,19.1,62.7,19.5z M60.9,18.2v0.8l-0.6-0.2L60.9,18.2z M56.9,58.2l0.3-0.1
					c0.5,0.5,0.9,1,1.3,1.5l-0.1,0.2c-0.5-0.2-1-0.4-1.5-0.7c0.1-0.1,0.2-0.2,0.3-0.3C57.1,58.6,57,58.4,56.9,58.2L56.9,58.2z
					 M56.8,56.8c0.2,0,0.4-0.1,0.7-0.2c-0.1,0.4-0.2,0.7-0.2,0.9c-0.2-0.1-0.3-0.3-0.5-0.3c-0.4,0-0.8,0.1-1.2,0.2
					c0.6-0.4,0.4-0.9,0-1.3c0.5-0.1,0.8,0,0.7,0.5S56.5,56.9,56.8,56.8z M55.6,54.2c0-0.5,0.1-0.8,0.1-1.1c0.3,0,0.5,0.1,0.6,0.1
					C56.1,53.5,55.9,53.8,55.6,54.2z M54.3,15.3c0.6,0.6,1.1,1.1,1.6,1.6l-0.5,0.5c0,0-0.1,0-0.1,0s0.1-0.3,0.1-0.5
					C54.9,16.7,54.2,16.4,54.3,15.3L54.3,15.3z M55.1,19.8l-0.5-0.4c0-0.1,0.1-0.1,0.1-0.2c0.3,0,0.5,0,0.8,0
					C55.3,19.4,55.2,19.6,55.1,19.8z M55.1,23c-0.5-0.1-0.6-0.3-0.3-0.9C54.8,22.4,55,22.7,55.1,23L55.1,23z M54.4,55
					c0,0,0,0.2,0,0.4l0.5-0.1c0,0.4,0.1,0.7,0.1,1.1c-0.5-0.4-0.9-0.8-1.4-1.3C53.9,55.1,54.1,55,54.4,55L54.4,55z M53.3,53.6
					c0.1,0.2,0.3,0.4,0.3,0.7c0,0.3,0,0.5,0,0.8c-0.2-0.2-0.4-0.5-0.6-0.7c-0.1-0.2-0.1-0.4-0.1-0.7C52.9,53.7,53.3,53.5,53.3,53.6
					L53.3,53.6z M51.5,13.9c-0.1,0.1,0.1,0.4,0.2,0.6s0.3-0.1,0.5-0.1c0,0.2,0,0.4-0.1,0.6c-0.4-0.1-0.7-0.2-1-0.4
					c0.1-0.3,0.2-0.6,0.3-1l-0.7,0.3l-0.1-0.1c0.3-0.3,0.5-0.8,0.8-1s0.7,0.2,1.1,0.3c0.2,0.4,0.5,0.9,0.7,1.4L53,14.5
					c-0.2-0.2-0.3-0.5-0.5-0.8c-0.1,0.2-0.2,0.4-0.3,0.5l0.1-1.1C52.1,13.4,51.8,13.6,51.5,13.9L51.5,13.9z M50.2,59.7
					c-0.5-0.5-1.2-0.7-1.9-0.5c-0.1-0.2-0.2-0.5-0.3-0.7c0,0,0.1-0.1,0.1-0.1c0.3,0.1,0.6,0.3,1.1,0.4c-0.2-0.5-0.3-0.8-0.5-1.2
					c0-0.1-0.1-0.2-0.1-0.4c0.1,0.1,0.3,0.1,0.5,0.1s0.4-0.2,0.5-0.2c0.3,0.2,0.7,0.3,1.1,0.5c-0.2,0.5-0.5,0.9-0.8,1.5
					C50,59.2,50.1,59.4,50.2,59.7L50.2,59.7z M51.7,52.4c-0.1,0.3-0.3,0.6-0.4,0.8L50.2,53C50.6,52.5,51.1,52,51.7,52.4z M51.2,11
					c0.5-0.3,1-0.6,1.6-0.9c0.1,0,0.3,0,0.4,0c-0.2,0.5-0.3,0.8-0.4,1.3l-1-0.5c0,0.1-0.1,0.1-0.1,0.1c0.5,0.5,0.9,1,0,1.5
					c-0.2-0.2-0.3-0.5-0.5-0.8L51,11.7v0.8l-0.8-0.2C50.5,11.9,50.8,11.5,51.2,11L51.2,11z M49.4,14.9c0.1,0,0.1,0.1,0.2,0.3
					c0-0.4,0.1-0.6,0.1-0.9h0.1v0.9c-0.7,0.2-0.8,0.3-0.3,0.9c0,0.1-0.1,0.1-0.1,0.1c-0.3-0.3-0.5-0.6-0.7-0.9c-0.1-0.2,0-0.4,0-0.6
					L49.4,14.9z M49.2,11.4c-0.6,0.5-1.1,0.9-1.5,1.3C47.8,11.8,48.5,11.7,49.2,11.4L49.2,11.4z M45.8,55c0.2-0.2,0.3-0.3,0.6-0.6
					c0.1,0.4,0.2,0.7,0.3,1l-1.4,0.2C45.5,55.4,45.7,55.2,45.8,55L45.8,55z M45.5,13.3l-1.2,0.4c-0.1-0.2-0.2-0.5-0.3-0.8L45.5,13.3
					L45.5,13.3z M43.7,56.2l-0.6,0.2V56c0,0-0.1,0-0.1,0c-0.1,0.2-0.1,0.3-0.3,0.7c-0.1-0.3-0.2-0.5-0.3-0.8l1.9-0.6
					c0,0.1,0.1,0.2,0.1,0.3l-0.7,0.3C43.7,56,43.7,56.1,43.7,56.2z M41.5,20.9c-0.1-0.9,0.7-0.4,0.9-0.7c0,0.1,0.1,0.1,0.1,0.2
					C42.2,20.5,41.9,20.7,41.5,20.9z M43.7,24.4c-0.1,0.2-0.3,0.2-0.5,0.4c-0.1-0.1-0.1-0.1-0.1-0.2c0.2-0.4,0.3-0.7,0.5-1.1
					C44.2,23.7,43.8,24.1,43.7,24.4z M42.1,12.8c0.2-0.1,0.5-0.3,0.7-0.4c0.2-0.1,0.3-0.1,0.5,0c0.1,0,0.1,0.3,0.1,0.3
					C43.3,12.9,43.1,13,43,13c-0.3,0-0.6,0-0.9,0L42.1,12.8z M43.3,18.4l-1.4,0.9l-0.1-0.2C42.1,18.5,42.7,18.4,43.3,18.4z
					 M41.8,11.9v0.3L40.7,12C41,11.5,41.4,11.8,41.8,11.9z M40.6,19.7c0,0.1,0.1,0.1,0.1,0.2L40,20.3v0.5h-0.2
					c0-0.3-0.1-0.5-0.1-0.8L40.6,19.7L40.6,19.7z M38,16.4c0,0.1,0.1,0.1,0.2,0.3c0.1-0.2,0.1-0.4,0.2-0.6c0.1,0,0.2,0.1,0.3,0.1
					l-0.5,0.7l-0.3-0.4L38,16.4L38,16.4z M36.6,25.4h0.2c0.1,0.5,0.1,0.9,0.2,1.4C36.7,26.6,36.5,26.1,36.6,25.4L36.6,25.4z
					 M34.9,21.3c-0.1,0.2-0.1,0.4-0.2,0.7l-0.9-0.4l-0.8,1c-0.1-0.2-0.2-0.4-0.4-0.6C33.4,21.7,33.9,20.8,34.9,21.3z M33,64.6
					l-0.5-0.7l0.8-0.3C33.2,63.8,33.1,64.2,33,64.6z M33.7,23.7c-0.2,0-0.2-0.4-0.3-0.6h1c0,0.1,0,0.3,0.1,0.4
					C34.1,23.5,33.8,23.7,33.7,23.7L33.7,23.7z M36.4,65.2c0,0.2,0.1,0.4,0.1,0.5c-0.3,0-0.5,0-0.9,0.1c0.3,0.4,0.5,0.6,0.7,0.9
					c-0.3,0.3-0.6,0.2-0.9-0.3c-0.2-0.3-0.5-0.5-0.6-0.8c-0.1-0.4-0.1-0.8-0.1-1.3c0.2,0,0.4,0,0.6,0c0.2,0,0.4,0.1,0.6,0.2v0.8
					c0.3-0.3,0.5-0.4,0.7-0.6c0.1,0.2,0.2,0.3,0.4,0.5c0.2-0.1,0.4-0.2,0.6-0.4l0.1,0.1c-0.1,0.2-0.2,0.4-0.3,0.6L36.4,65.2
					L36.4,65.2z M37,65.9c0.3,0,0.5,0.1,1,0.2l-0.8,0.2l1,0.5C37.3,67.1,37.2,66.5,37,65.9L37,65.9z M36.8,24c1-0.2,1.6,0.2,1.7,1.2
					L36.8,24z M44.2,64.6c-0.4,0.2-0.8,0.3-1.2,0.5c-0.6-1.2-1.8-1.5-2.4-0.6c-0.3-0.3-0.5-0.6-0.7-1c-0.1-0.3-0.1-0.6,0-0.9
					c0.2-0.3,0.3-0.9,1-0.8c0.1,0,0.2-0.1,0.3-0.2c0-0.1,0-0.3-0.1-0.3c-0.1-0.1-0.2,0-0.3,0c-0.3,0-0.5-0.1-0.8-0.1l-0.4,1
					c-0.5-0.1-0.8-0.7-0.6-1.2c0,0,0,0,0-0.1c0-0.2,0.1-0.4,0-0.4c-0.5-0.6-0.1-1.4-0.5-2c0-0.1,0-0.2,0-0.3c0-0.1,0.1-0.1,0.1-0.2
					c0.2-0.4,0.3-0.8,0.4-1.2s0.2-0.8,0.3-1.3c0.1,0.2,0.1,0.3,0.2,0.5c0.2,0,0.4,0,0.5,0c0,0.2,0.1,0.4,0.1,0.7
					c-0.5-0.2-0.9-0.2-0.9,0.6c-0.1,0.5-0.2,1-0.5,1.4l1.5-0.6l-0.8-1l1-0.1c0,0.3,0.1,0.6,0.1,0.9c0.3-0.2,0.5-0.3,0.8-0.6
					c-0.1,0.3-0.1,0.6-0.1,0.8l-1,0.2c0.3,0.2,0.5,0.4,0.8,0.6c0.2,0.1,0.4,0.1,0.5,0c0.6-0.4,0.7,0.1,0.8,0.5
					c0.1,0.3,0.2,0.5,0.3,0.8c0.2,0.3,0.2,0.6-0.1,0.9c-0.1,0.1-0.2,0.1-0.3,0.1c-0.2,0.1-0.4,0.2-0.7,0.3l0.8,0.5
					c-0.7,0.9,0,1.6,0.3,2.4c0.1,0.1,0.3,0.2,0.5,0.3c0-0.4,0.1-0.8,0.2-1.2c0.2-0.6-0.1-0.6-0.6-0.6c0.3-0.3,0.5-0.5,0.8-0.7
					c0.3,0.7,0.5,1.4,0.7,2.1c0,0.1-0.2,0.4-0.3,0.4L44.2,64.6z M44.5,19.4c-0.1,0-0.2,0-0.2,0c0.3-0.6,0.1-0.9-0.6-0.8
					c0.1-0.4,0.1-0.8,0.3-0.9c0.4-0.4,1.1-0.4,1.5,0c-0.8-0.2-1.4-0.3-1.6,0.6c0.3,0.1,0.6,0.2,1,0.3C44.8,18.9,44.6,19.1,44.5,19.4
					L44.5,19.4z M50.3,63.5c-0.5,0.3-0.5,0.6,0,1c-0.5,0-0.6,0.4-0.3,1.2l-0.2,0.1c-0.2-0.3-0.4-0.7-0.6-1.1c-0.4-1-1.4-1.5-2.4-1.4
					c-0.4,0.2-0.7,0.2-0.8-0.4c-0.1-0.6-0.3-1.2-0.5-1.8l0.5-0.2c0-0.1,0.1-0.1,0.1-0.2c-0.4-0.2-0.7-0.5-1.1-0.7c0.5,0,0.9,0,1-0.3
					c-0.6-0.4-0.8-1-0.6-1.3c0.4,0.4,0.9,0.8,1.3,1.1c0.1,0.1,0.3,0,0.5,0c0-0.1-0.1-0.2-0.2-0.3c-0.3-0.3-0.6-0.7-0.9-1.1l0.7,0.1
					c-0.2-0.3-0.4-0.6-0.5-0.9c-0.2-0.4-0.6-0.8,0.1-1.2c0.5-0.3,0.9-0.7,1.3-1.1c0.1,0.3,0.1,0.5,0.2,0.8h0.2V55
					c0.3-0.1,0.7-0.1,0.9-0.2c0.2,0.3,0.4,0.5,0.7,0.8c0.1-0.4,0.2-0.6,0.2-0.8c0,0,0.1,0,0.1,0c0,0.3,0.1,0.5,0.1,0.8
					c-0.5,0.1-1.1,0.2-1.7,0.3c0,0.2-0.1,0.5-0.1,0.8c0,0.1,0,0.2,0,0.3c-0.1-0.2-0.1-0.3-0.2-0.5s-0.3-0.3-0.6-0.4
					c-0.1,0.2-0.2,0.3-0.2,0.4c-0.2,0-0.4,0-0.4,0C47.1,56.8,47,57,47,57.3l0.2,0.1c0.2-0.2,0.4-0.3,0.7-0.6c0,0.3,0.1,0.5,0.1,0.7
					c-0.4,0.2-1,0.3-0.8,0.9c0.2,0.4,0.5,0.8,0.8,1.1c-0.2,0.1-0.4,0.2-0.5,0.3c0.2,0.4,0.4,0.6,0.5,0.8s0.1,0.5,0,0.6
					c-0.2,0.1-0.4,0.2-0.7,0.2c-0.6-0.1-0.6-0.1-0.9,0.4c0.2,0.1,0.4,0.3,0.6,0.4s0.3,0.3,0.6,0.5c0.1-0.2,0.1-0.4,0.2-0.6
					c0.6,0.3,1.2,0.7,1.7,1c0,0,0.1,0,0.1-0.1c-0.3-0.5-0.5-1-0.8-1.6l0.7-0.5c0.3,0.2,0.8,0.3,1,0.7s0,0.7,0.2,1.2
					C50.5,63.1,50.4,63.4,50.3,63.5L50.3,63.5z M52.9,64.9c-0.3-0.3-0.7-0.6-1-0.8l-0.1,0.1c0.1,0.2,0.2,0.4,0.3,0.6l-0.2,0.1
					c-0.3-0.3-0.4-0.7-0.6-1.1c0-0.6-0.2-1.3,0.5-1.7l1,1c0.1,0.1,0.2,0.2,0.3,0.3c-0.1,0.1-0.2,0.1-0.3,0.2
					c-0.1,0.1-0.2,0.2-0.3,0.4c0.2,0.1,0.3,0.2,0.5,0.2c0.3,0,0.5-0.1,0.7-0.2c0,0.1,0.1,0.1,0.1,0.2L52.9,64.9L52.9,64.9z
					 M54.8,60.4c0.3,0.6,0.5,1.3,0.3,1.9c-0.2,0.6-0.5,0.4-0.8,0.2c-0.3-0.2-0.6-0.4-0.9-0.5c-0.3-0.1-0.7,0-0.8-0.5
					c0-0.1-0.1-0.1-0.2-0.1c-0.5-0.1-1-0.3-1.5-0.4c0.5-0.7,0.9-1.5,1.3-2.3c0.1-0.4-0.2-0.9-0.3-1.5c-0.3,0.3-0.4,0.5-0.5,0.8
					c-0.1-0.2-0.2-0.3-0.3-0.5l0,0c0.3-0.3,0.6-0.6,0.9-1c0.1-0.2,0.3-0.4,0.4-0.7c0.1-0.2,0.1-0.5,0.2-0.5c0.3-0.1,0.7-0.2,1-0.3
					c-0.1,0.1-0.2,0.2-0.3,0.3c-0.1,0.2-0.4,0.4-0.3,0.6c0.1,0.2,0.3,0.4,0.5,0.3c0.1,0,0.1-0.1,0.2-0.1c0.2-0.1,0.4-0.1,0.5-0.1
					c-1,0.8-0.1,1.1,0.3,1.6c-0.6,0.2-0.7,0.5-0.3,1c0.2,0.1,0.3,0.2,0.5,0.3c0-0.1,0.1-0.1,0.1-0.2s-0.2-0.4-0.3-0.6l0.1-0.1
					c0.3,0.2,0.5,0.4,0.9,0.7c0.1-0.6,0.2-1.1,0.4-1.6c0.2,0.5,0.1,1.2,0.9,1.2c-0.1,0.7-0.3,1.4-0.4,2L56,60.4l-0.5,0.7
					c0.1-0.6,0.2-1.4,0.3-2.2C54.8,59,54.5,59.7,54.8,60.4L54.8,60.4z M57.6,63.4c-0.5,0.3-0.8,0.1-1-0.6c-0.3,0.1-0.5,0.2-1,0.4
					c0.1-0.5,0.1-0.9,0.7-0.7c0.1,0,0.4-0.2,0.6-0.4c0.3-0.4,0.9-0.4,1.3-0.1c0,0,0.1,0.1,0.1,0.1c0,0.1,0.1,0.2,0.1,0.4l-0.5,0.1
					C57.8,62.9,57.9,63.3,57.6,63.4L57.6,63.4z M58.1,68c-0.1,0-0.1-0.1-0.2-0.1l0.6-1.3c0.1,0,0.1,0.1,0.2,0.1
					C58.5,67.2,58.3,67.6,58.1,68z M58.6,17.5c0.3-1.3,1.5-1,2.2-1.5v0.7h-0.2c-0.1,0-0.1,0-0.2-0.1c-0.2,0.4-0.3,0.9-0.6,1
					S59.1,17.7,58.6,17.5L58.6,17.5z M61,57.5c-0.1,0.3-0.1,0.6-0.2,1l0.5,0.2c-0.4,0.3-0.7,0.6-1,0.9c0-0.1-0.1-0.2-0.1-0.3
					c-0.4-0.5-0.3-1.2,0.2-1.5c0,0,0,0,0,0c0.5-0.4-0.2-0.9,0-1.5L60,56.3c0,0,0-0.1,0-0.1l0.9-0.3c0.2,0.2,0.3,0.5,0.6,0.9
					c0.2-0.3,0.3-0.6,0.5-0.9l0.6,0.7c0,0.1-0.1,0.3-0.1,0.5c0.1,0,0.1,0,0.2,0.1l0.4-0.5c0.2,0.1,0.5,0.2,0.7,0.2l-1.4,1.3l0.2,0.2
					l1.1-0.7c-0.4,0.9,0.8,0.7,0.9,1.3l-0.4,0.3c-0.8-0.7-1.4-0.7-1.7,0.1C61.3,59.2,61.4,58.3,61,57.5L61,57.5z M62.2,61.3
					c0.1-0.3,0.2-0.5,0.3-0.9c0.2,0.5,0.3,0.8,0.4,1.3C62.6,61.5,62.4,61.3,62.2,61.3L62.2,61.3z M63.6,60c-0.2,0.1-0.5,0.2-0.7,0.2
					L62.7,60c0.2-0.2,0.5-0.4,0.8-0.7C63.6,59.7,63.7,60,63.6,60L63.6,60z M64.8,64.2c-0.2,0.2-0.4,0.4-0.6,0.7
					c-0.1-0.2-0.2-0.3-0.2-0.4c0.1-0.2,0.2-0.4,0.4-0.6c0.1-0.1,0.2-0.2,0.4-0.3c0.1,0,0.3,0.2,0.3,0.3S64.9,64.1,64.8,64.2
					L64.8,64.2z M65.2,58.3c0-0.2,0-0.4,0.1-0.7c-0.3-0.2-0.9-0.1-0.8-0.7l1.3-0.2c-0.2,0.5-0.3,1-0.5,1.6
					C65.3,58.3,65.2,58.3,65.2,58.3L65.2,58.3z M68.2,64.9c-0.2-0.8-0.3-1.5-0.5-2.3c0.8,0.3,0.5,0.7,0.5,1s0.1,0.6,0.5,0.5
					c0-0.3-0.1-0.7-0.1-1c0.4,0.6,0.7,0.4,0.9,0c0.2,0.6,0.5,1.2,0.8,2l-1.6-0.8C68.5,64.4,68.4,64.5,68.2,64.9L68.2,64.9z
					 M70.1,67.3c-0.2-0.3-0.3-0.6-0.5-1L69,66.5c0,0,0-0.1,0-0.1c0.2-0.1,0.3-0.2,0.6-0.4l0.7,1.2L70.1,67.3L70.1,67.3z M67.8,58.5
					l0.7,0.6c0.1,0,0.4,0.1,0.7,0.1c0,0.1,0,0.1,0,0.2c-0.8,0-1.1,0.4-1.2,1.3c0.6,0,1-0.1,1.6-0.1c0.1,0.1,0.1,0.2,0.1,0.3
					c-0.4,0.5-0.9,0.8-0.6,1.7c-0.4-0.1-0.8-0.2-1.3-0.3l1.3-1.1c-1-0.5-1.8-0.1-1.8,0.9l0,0c0,0.2,0.1,0.4,0.1,0.5
					c0.2,0.4,0.2,0.7-0.4,0.8c-0.1,0-0.3,0.2-0.4,0.3c-1-0.4-0.5-1.4-0.7-2.2c0-0.4,0.2-0.7,0.5-0.9c0.8-0.3,0.2-0.9,0.3-1.3
					s0.1-0.8,0.7-0.9c-0.1-0.1-0.1-0.3-0.2-0.4c0.6,0.1,1.1,0.2,1.7,0.3c0,0.1,0,0.2,0.1,0.3l2.2,0.8v-0.7h0.1
					c0,0.3,0.1,0.5,0.1,0.8l-0.7,0.4C69.9,58.8,68.8,58.9,67.8,58.5L67.8,58.5z M72.7,67.1c-0.2,0.1-0.5,0-0.7-0.1
					c-0.4-0.3-0.8-0.6-1.1-1h0.8c0.3,0.8,0.4,0.9,1.2,0.5C72.9,66.7,72.9,67,72.7,67.1L72.7,67.1z M73.6,55L73,54.4l1.1-0.1
					C73.9,54.6,73.8,54.8,73.6,55z M74.2,66.1c0.2-0.2,0.4-0.3,0.5-0.4c0.1-0.2,0.3-0.4,0.4-0.6c0.1,0.4-0.2,0.9-0.6,1
					C74.4,66.1,74.3,66.1,74.2,66.1L74.2,66.1z M75.3,20.1c-0.1-0.4-0.2-0.8-0.3-1.3c0.1,0,0.2-0.1,0.4-0.1s0.4,0.2,0.3,0.3
					c-0.1,0.4-0.2,0.7-0.3,1.1c-0.1,0.4-0.1,0.8-0.2,1.2C74.4,20.9,74.4,20.7,75.3,20.1L75.3,20.1z M77,64.9
					c-0.1,0.1-0.2,0.3-0.3,0.4c-0.2-0.2-0.3-0.4-0.4-0.6c-0.2,0-0.6-0.1-1-0.1c0.7-0.7,1.4-0.1,2.2,0C77.3,64.7,77.1,64.8,77,64.9
					L77,64.9z M84.6,66l0.4-0.5c0.1,0.3,0.2,0.5,0.1,0.6c-0.1,0.1-0.3,0.2-0.5,0.2c-0.3-0.1-0.7-0.3-1-0.5l0,0
					c-0.8-0.3-1.7-0.3-2.5,0c-0.1-0.5-0.4-0.7-1.2-0.4l0.8,0.8c-0.8,0.8-0.2,1.5,0.1,2.2c-0.7-0.2-1.1-0.9-0.9-1.6
					c0-0.1,0.1-0.2,0.1-0.3c-0.4-0.3-0.6-1-1.3-0.5c-0.1,0-0.6-0.4-0.6-0.5c0.3-0.6-0.2-1-0.5-1.3c0,0,0-0.1-0.1-0.2l0.2-0.2
					c0.1,0.3,0.2,0.5,0.3,0.8c0.1,0,0.2,0,0.3-0.1c0.1-0.3,0.2-0.6,0.3-0.9c0-0.4,0-0.9-0.7-0.8c-0.3,0.1-0.6-0.1-0.7-0.4
					c0-0.1,0-0.2,0-0.2c0-0.1-0.1-0.3-0.3-0.6l1.7,0.5v-0.1l1.6,0.9L80,63.2L79.1,63c0.3,0.6-0.4,1.5,0.5,1.7c0.7,0.1,1.3,0.1,2,0
					c0.3,0.5,0.4,0.5,1.2-0.2c-0.3-0.2-0.6-0.4-0.8-0.6c0.6,0,1.1,0.4,1.2,0.9c0.1,0.3,0.4,0.4,0.6,0.6l0.2-0.1l-0.1-0.8
					c0.2,0,0.4,0,0.6,0C84.5,65.1,84.5,65.4,84.6,66L84.6,66z M83.6,12.4c-0.3-0.2-0.5-0.4-0.7-0.7c-0.1-0.2-0.2-0.4-0.3-0.6
					L82,11.6c-0.2-0.3-0.3-0.5-0.5-0.8l1.4-0.4c-0.1-0.5-0.4-0.6-0.7-0.3s-0.6,0.3-0.7-0.2c-0.1-0.3-0.3-0.5-0.6-0.7
					C81.4,9.1,81.6,9,82,9c0,0.2,0.1,0.3,0.1,0.5c0.1,0.1,0.2,0.2,0.3,0.2c0.1,0,0.2-0.2,0.2-0.3c0.1-0.1,0.2-0.3,0.3-0.5
					c0.7,0.9,1.3,1.6,1.8,2.4l0.4-0.2c0.2,0.3,0.3,0.7,0.5,1c0.1,0,0.1,0,0.1-0.1c-0.2-0.4-0.3-0.9-0.5-1.3c0,0,0.1-0.1,0.1-0.1
					c0.4,0.4,0.9,0.8,1.3,1.2c-0.2,0.3-0.4,0.7-0.6,0.9c-0.1,0.2-0.4,0.4-0.6,0.3C84.8,12.9,84.2,12.7,83.6,12.4L83.6,12.4z
					 M85.6,53.9c-0.2,0-0.4-0.1-0.5-0.1c-0.2-0.1-0.3-0.2-0.4-0.4c0.2-0.1,0.5-0.2,0.7-0.2c0.1,0,0.3,0.3,0.3,0.4
					S85.6,53.9,85.6,53.9L85.6,53.9z M85.2,17.5v-0.3h1.9v0.3H85.2z M87.7,63.1c-0.3-0.2-0.4-0.5,0.1-0.9c0.1,0.3,0.2,0.6,0.3,0.9
					C87.9,63.1,87.8,63.1,87.7,63.1L87.7,63.1z M87.9,61.6c-0.5-0.4,0-0.6,0.1-0.9c0.4,0.2,0.8,0.5,1.2,0.7l-0.1,0.2
					C88.7,61.6,88.3,60.9,87.9,61.6L87.9,61.6z M88.3,64.3c0.1-0.2,0.2-0.5,0.2-0.5c0.4,0.1,0.8,0.2,1.1,0.3
					C89.2,64.4,88.8,63.6,88.3,64.3L88.3,64.3z M90.2,62.5c0.5-0.5-0.1-0.5-0.3-0.7c0.1-0.2,0.1-0.4,0.2-0.5l0.8,0.5
					C90.7,62,91,62.8,90.2,62.5L90.2,62.5z M92.7,65.6c-0.1-0.4,0-0.8,0.4-1c0.2-0.1,0.5,0,0.9,0C93.4,65,93.1,65.3,92.7,65.6
					L92.7,65.6z M94.4,12l-0.7-1.7l0.2-0.1c0.2,0.6,0.4,1.1,0.7,1.7C94.5,11.9,94.5,12,94.4,12L94.4,12z M94.7,22.6
					c0,0-0.1-0.1-0.1-0.1c0.2-0.3,0.3-0.6,0.6-0.9l0.6,0.6l-0.1,0.2C95,21.6,95,22.4,94.7,22.6L94.7,22.6z M96.2,62.9
					c-0.2-0.2-0.4-0.3-0.6-0.4c0.2-0.3,0.3-0.6,0.5-0.9l0.2,0.1c-0.1,0.4-0.7,0.8,0.2,1.1L96.2,62.9z M97.5,16.1c-0.3,0-0.6,0-0.9,0
					l0.4-0.8l0.8,0.6L97.5,16.1z M97.8,10c-0.1-0.2-0.2-0.4-0.2-0.6h1.3c0-0.1,0-0.2,0-0.4l1.1,0.2c-0.3,0.2-0.5,0.4-0.8,0.5v0.8
					c-0.1,0-0.1,0-0.2,0c-0.1-0.1-0.2-0.3-0.5-0.6c0.1,0.3,0.1,0.4,0.2,0.8c-0.2-0.1-0.3-0.2-0.4-0.3C98.1,10.3,97.9,10.2,97.8,10
					L97.8,10z M99.8,61.2c-0.4-0.4-0.7-0.9-1.1-1.3c0,0,0-0.1,0-0.1c0.4,0.2,0.8,0.4,1.2,0.6L99.8,61.2L99.8,61.2L99.8,61.2z
					 M100.2,14.4v2.1H100c-0.1-0.3-0.1-0.5-0.1-0.6c-0.3,0.1-0.7,0.2-1,0.3c-0.2,0-0.3-0.2-0.4-0.3c0.5-0.2,0.9-0.3,1.4-0.6
					c-0.1-0.2-0.2-0.3-0.3-0.4c0.1-0.3,0.2-0.5,0.3-0.9c0.2-0.1,0.6-0.2,1-0.3c0,0,0.1,0.1,0.1,0.1l-0.6,0.6L100.2,14.4L100.2,14.4z
					 M100.7,15.5c0.1,0.1,0.2,0.3,0.3,0.4c-0.1,0.1-0.3,0.1-0.4,0.2v-0.5c-0.1-0.7,0.5-0.5,0.8-0.7l0.1,0.2
					C101.3,15.2,101,15.4,100.7,15.5L100.7,15.5z M102,11.2h0.2c0.1,0.2,0.2,0.4,0.3,0.6l0.6-0.2c-0.3,0.5-0.6,0.9-0.9,1.4
					c-0.1-0.1-0.3-0.4-0.4-0.6h-0.3C101.7,12,101.8,11.6,102,11.2z M103.6,15.2c-0.5-0.3-1-0.5-1.6-0.8c-0.1,0.2-0.1,0.4-0.2,0.7
					c-0.2-0.7-0.3-1.2,0.1-1.6s1.3,0,1.8,0.7c-0.2,0.1-0.3,0.2-0.5,0.3c0.2,0.2,0.3,0.4,0.5,0.6L103.6,15.2z M113.7,15.1
					c0,0.4-0.1,0.7-0.1,1.1h-0.2c-0.1-0.2-0.3-0.5-0.4-0.7C113.2,15.4,113.4,15.3,113.7,15.1L113.7,15.1z M104.2,14.4
					c0.5-0.8,0.9-1,1.3-0.6c-0.4,0.5-0.4,1.1-0.2,1.6c0.1,0.3,0.2,0.5,0.3,0.8l-0.3,0.1c0-0.1,0-0.3,0-0.4
					C104.3,16,104.8,14.9,104.2,14.4L104.2,14.4z M106,18.1c-0.2,0.3-0.5,0.5-0.7,0.7c0,0.1,0,0.2,0,0.3l-1-0.5l0.1-0.2l0.7,0.1
					c0.1-0.3-0.1-0.7-0.5-1.2l1.8,0.4C106.2,17.9,106.1,18,106,18.1L106,18.1z M105.9,14.4c0-0.1,0-0.1,0.1-0.2h0.6
					c-0.2-0.4-0.2-0.8-0.8-0.9c-0.6-0.1-1.1-0.6-1.3-1.3c-0.1-0.3,0.2-0.6,0.4-0.9c0.2,0.7,0.3,1.4,1.4,1.5
					c-0.2,0.1-0.4,0.2-0.6,0.4V13c0.3,0,0.9,0.1,1,0c0.3-0.4,0.3-0.9,0-1.3c0,0,0,0,0,0c-0.1-0.2-0.2-0.4-0.1-0.6
					c0.2,0.2,0.4,0.4,0.7,0.8c0-0.3-0.1-0.4-0.1-0.6c0.4,0.3,1,0.1,0.9,0.8c0.5,0,0.9,0.4,0.9,0.9c0,0.1,0,0.1,0,0.2
					c-0.1,0.3-0.1,0.5-0.1,0.8h-1.6l1.2,1c0,0,0,0.1-0.1,0.1L105.9,14.4L105.9,14.4z M110.7,20.5c-0.4-0.1-0.8-0.3-1.1,0.3
					c-0.2,0.3-0.5,0.1-0.7-0.3c-0.1-0.1-0.3-0.2-0.3-0.3c-0.2-0.2-0.3-0.4-0.4-0.6l2.6,0.6C110.7,20.4,110.7,20.5,110.7,20.5
					L110.7,20.5z M110.2,15.1c-0.3-0.5-0.6-0.9-0.9-1.4l1-0.2c0.2,0.3,0.3,0.7,0.5,1.1L110.2,15.1z M112.2,10.9
					c0,0.6-0.1,0.9-0.1,1.3s0.2,0.5,0.3,0.7l-0.2,0.1l-0.4-0.5c-0.2,0.5-0.5,0.9-0.2,1.4s0.6,1.3,0.9,2l-0.2,0.2
					c-0.4-0.3-0.7-0.7-1-1.1C110.9,14.1,111.2,12.8,112.2,10.9L112.2,10.9z M113.2,18.2c0,0-0.1,0.1-0.1,0.1
					c-0.1-0.1-0.3-0.2-0.3-0.4c-0.2-0.5-0.3-1.1-0.4-1.7c0.3,0,0.9-0.2,0.8,0.5c0,0.1,0.3,0.1,0.6,0.3l-0.7,0.3
					C113,17.7,113.1,17.9,113.2,18.2L113.2,18.2z M115.5,13.5c-0.1,0.2-0.3,0.2-0.6,0.2c-0.2-0.1-0.3-0.5-0.6-0.1
					c0-0.1-0.1-0.3-0.1-0.4c0.1-0.2,0.2-0.3,0.4-0.5c0.1,0.2,0.1,0.4,0.2,0.6l0.8-0.4C115.6,13,115.5,13.2,115.5,13.5L115.5,13.5z
					 M132.8,12.2c0.6,0.6-0.5,0.9-0.1,1.5C131.7,13.3,131.8,12.9,132.8,12.2L132.8,12.2z M122.7,10.2c0.3,0.3,0.5,0.6,0.8,0.7
					c1.1,0.4,1.8-0.2,1.9-1.5c0.5,0.9,1-0.1,1.5,0.1c-0.1,0.5-0.2,0.9-0.3,1.4l-1.2-0.2c0.2,0.6,0.6,0.7,1.4,0.5
					c-0.2,0.4-0.4,0.7-0.6,1c-0.3-0.3-0.5-0.6-0.9-1c-0.3,0.9-1,0.6-1.5,0.6s-0.9-0.4-1.3-0.5C122.6,10.8,122.6,10.5,122.7,10.2
					L122.7,10.2z M119.8,10.6l1,2.3l-0.2,0.1l-0.9-0.4l0.4-0.2c-0.3-0.6-0.5-1.1-0.8-1.7L119.8,10.6z M117.4,9l1.4,0.9l-1.4,0.3V9z
					 M117.5,13.4c0.4-0.1,0.8-0.1,1.2-0.2c-1.1-0.3-1.4-0.6-1.1-1.1c0.2,0.2,0.5,0.4,0.7,0.6c0-0.1,0-0.3,0-0.5
					c0.6,0.3,0.7,0,0.6-0.5h0.2l0.7,1.4l-0.3,0.2c-0.2,0.9-0.4,1.6-0.7,2.5c-0.2-0.4-0.5-0.7-0.7-1c0.2,0,0.5,0,0.7,0
					c-0.1-0.3-0.1-0.6-0.2-0.8c-0.2-0.1-0.4-0.2-0.6-0.1c-0.2,0.1-0.5,0.3-0.7,0.4c-0.2-0.3-0.1-0.6,0.2-0.8
					C117.3,13.5,117.4,13.4,117.5,13.4L117.5,13.4z M120.7,19.8c-0.1,0.9-0.8,0.6-1.3,0.7C119.8,20.3,120.3,20,120.7,19.8
					L120.7,19.8z M119.3,19.3c-0.1,0-0.2,0.1-0.2,0.1c-0.2-0.1-0.4-0.2-0.6-0.4c-0.1-0.2-0.2-0.5-0.3-0.8c0.3,0.2,0.6,0.4,0.8,0.6
					C119.1,18.9,119.2,19.1,119.3,19.3L119.3,19.3z M116.9,65.8c0.2,0.7-0.3,0.9-0.7,1.2C116,66.5,116,66.5,116.9,65.8L116.9,65.8z
					 M116.8,68.7c-0.2-0.1-0.4-0.3-0.5-0.4c-0.2-0.4-0.3-0.7-0.5-1.1l0.3-0.1c0.3,0.5,0.5,1,0.8,1.5L116.8,68.7z M118.1,21.8v-1
					c-0.3,0.2-0.6,0.3-0.9,0.5c-0.1,0-0.3-0.1-0.7-0.2c0.5-0.3,1-0.5,1.5-0.7c0.6-0.2,0.8,0.1,0.8,0.6c0,0.1,0,0.3,0.1,0.4
					L118.1,21.8L118.1,21.8z M120.3,23.9l1.2-0.1c0,0.1,0,0.2,0,0.3C121.2,24.4,120.8,24.2,120.3,23.9L120.3,23.9z M121,22.1
					c0,0,0.1,0.1,0.1,0.1l-0.5-0.1c-0.4,0.5-0.8,0.9-1.2,1.4c0,0-0.2,0-0.5-0.1c0.9-1,1.7-1.9,2.7-2.9l-0.9,0.4
					c0.3-0.8,1.5-0.3,1.5-1.2c-0.3-0.3-0.7-0.7-1-1.1l-0.6,0.4c0.1,0,0.1,0.1,0.2,0.1c0,0.3-0.1,0.5-0.1,0.7c-0.2-0.3-0.3-0.7-0.3-1
					c0-0.5,0-1,0.1-1.4c0.1,0,0.1,0,0.2,0c0.3,0.5,0.7,1,1,1.5s0.8,0.8,1.3,0.4c0.2,0.1,0.4,0.2,0.5,0.3L121,22.1L121,22.1z
					 M123.7,21.5c-0.4-0.2-0.7-0.4-0.9-0.6c0-0.1,0.1-0.1,0.1-0.2c0.3,0.1,0.6,0.2,0.9,0.3l0.6,1.3
					C123.7,22.2,123.8,21.7,123.7,21.5L123.7,21.5z M125.6,25.5c-0.3,0-0.5,0-0.8,0c0.1-0.2,0.1-0.4,0.2-0.6c-0.2,0-0.3,0-0.5,0
					c-0.1-0.3,0.1-0.3,1,0l-0.4,0.1C125.3,25.1,125.4,25.3,125.6,25.5L125.6,25.5z M124.9,20.5c-0.3,0.1-0.4-0.1-0.5-1
					c0.7-0.1,0.9,1.3,1.8,0.4C126,20.7,125.4,20.4,124.9,20.5L124.9,20.5z M125.9,16.8c-0.2-0.1-0.3-0.2-0.4-0.4
					c-0.1,0.4,0,0.9-0.6,1c0,0,0,0.2-0.1,0.3c0.1,0,0.2,0.1,0.3,0.1c0.1,0,0.2-0.2,0.4-0.2c-0.1,0.2-0.2,0.4-0.4,0.7
					c-0.9-0.8-1.2,0.8-2,0.4c2.3-2.3,4.3-4.9,6-7.7c0.1,0,0.1,0,0.2,0.1c0,0.2-0.1,0.5-0.2,0.7c-0.4,0.7-1,1.5-1.4,2.2
					c-0.1,0.1-0.1,0.3-0.1,0.4c-0.3,0.2-0.6,0.4-0.9,0.6c-0.1,0.1,0.1,0.3,0.1,0.6C126.3,15.7,125.9,16.3,125.9,16.8L125.9,16.8z
					 M128.4,17.2c-0.1,0.3-0.1,0.5-0.3,0.8l-0.8-0.6c0-0.4,0-0.7,0-1c0-0.2,0.1-0.4,0.2-0.6c0.1-0.1,0.4-0.1,0.6-0.1
					c0,0.2-0.1,0.3-0.2,0.5c0,0.1-0.2,0.1-0.3,0.3C127.9,16.8,128.1,17,128.4,17.2L128.4,17.2z M127.5,21.2c0-0.1-0.1-0.1-0.1-0.2
					c-0.1-0.2-0.2-0.4-0.3-0.5c-0.4-0.2-0.7-0.7-0.7-1.1c0-0.1,0.2-0.2,0.1-0.2c0.2,0.3,0.3,0.5,0.5,0.5c0.7,0,0.9,0.3,0.7,0.9
					c0,0.1,0.2,0.3,0.3,0.5C127.9,21.2,127.8,21.2,127.5,21.2L127.5,21.2z M129.2,67.3c-0.2,0.2-0.5,0.5-0.8,0.5
					c-0.4,0-0.2-0.4-0.1-0.6c0.3-0.5,0.1-1-0.4-1.3l1,0.1l-0.2,0.7c0.2,0,0.3,0,0.5,0C129.2,66.9,129.4,67.1,129.2,67.3L129.2,67.3z
					 M129.2,20.8c0,0,0-0.1-0.1-0.1l0.6-0.5l0.4,0.6C130.2,20.8,129.2,20.8,129.2,20.8z M130.2,18.7c-0.4-0.2-0.8-0.3-0.7-0.9
					c0.1-0.1,0.1-0.1,0.2-0.2l0.7,0.9C130.4,18.5,130.3,18.6,130.2,18.7L130.2,18.7z M132,19.9c-0.2-0.1-0.3-0.2-0.4-0.4
					c-0.1-0.2-0.2-0.4-0.2-0.7h0.4c0,0.5,0.4,0.7,0.8,0.8c0.1,0,0.1,0.3,0.2,0.4C132.5,20,132.2,19.9,132,19.9z M132.8,20.5
					l-0.1-0.5h0.3c0.1,0.3,0.3,0.5,0.4,0.8C133,21,132.9,21,132.8,20.5L132.8,20.5z M133.7,17.9c-0.1,0.2-0.4,0.3-0.6,0.5l0.5,0.8
					c-1,0.2-1.3-0.9-2.1-0.9c-0.9-0.1-1.2-0.9-1.9-1.3c-0.1,0.1-0.2,0.1-0.3,0.2c-0.1,0-0.4,0-0.4,0c-0.1-0.4-0.1-0.8,0-1.2
					c0-0.1,0.4-0.3,0.6-0.3c1-0.1,1,0,1.5,0.5c0.3-0.3,0.5-0.6,0.7-0.9c0.2,0.6,0.3,1.2,1,1.4c0-0.2,0-0.4-0.1-0.5s-0.1-0.3-0.1-0.4
					s0.1,0,0.2,0c0.2,0.5,0.4,1,0.7,1.6l-0.7-0.6c0,0.4,0.3,0.8,0.7,0.9c0,0,0,0,0,0c0.1,0,0.3,0.1,0.3,0.1c0,0.2-0.1,0.3-0.2,0.5
					L133.7,17.9z M136,62.9l-0.7-1.5C136.2,61.7,136.3,61.8,136,62.9L136,62.9z M141.6,12.4l1.4-0.3c0,0.1,0,0.5-0.1,0.5
					c-0.4,0-0.9,0-1.4,0V12.4z M139.7,61.6c0.2,0,0.4,0,0.6,0c0-0.4,0-0.7,0.1-1l1.1,0.5c0.3,0.2,0.7,0.2,0.4,0.7
					c-0.1,0.2-0.2,0.5-0.3,0.8l1.1,0.2c0,0,0,0.1,0,0.1h-1.7c0.1-0.3,0.2-0.7,0.3-1.2C140.6,62.1,140.1,62.3,139.7,61.6L139.7,61.6z
					 M142.1,58.9l-1,0.1c0.1-0.3,0.2-0.6,0.3-0.9C142.2,57.8,141.9,58.6,142.1,58.9z M140.7,51.5c-0.4,0.2-0.6,0.3-0.9,0.5l-0.1-0.1
					c0.1-0.2,0.1-0.4,0.2-0.6L140.7,51.5z M138.8,13.3c0.1-0.4,0.2-0.8,0.3-1.4l0.5-0.3c0.1,0,0.1,0,0.2,0.1
					c-0.3,0.7-0.6,1.3-0.9,2.1c-0.2-0.2-0.4-0.3-0.6-0.4C138.6,13.4,138.7,13.4,138.8,13.3L138.8,13.3z M138.9,15.9
					c0.3,0.5,0.5,1.2,1.4,0.7c-0.1,0.1-0.3,0.4-0.4,0.4c-0.5-0.1-1.1,0.5-1.4-0.3h-0.2c-0.1-0.1-0.1-0.2-0.2-0.3
					C138.4,16.4,138.6,16.2,138.9,15.9L138.9,15.9z M139.1,52.8h-0.9c0.1-0.3,0.2-0.6,0.3-0.9C138.7,52.3,138.9,52.5,139.1,52.8
					L139.1,52.8z M137.5,16.8l0.5,0.3c0.1-0.1,0.2-0.2,0.4-0.4c0,0.1,0.1,0.2,0.1,0.3c-0.1,0.4-0.3,0.8-0.4,1.1l-0.7-1.3
					C137.4,16.8,137.4,16.8,137.5,16.8L137.5,16.8z M137.8,64.4c0.1-0.3,0.2-0.6,0.3-1c0.3,0.6,0.6,1.2,0.9,1.8
					C138.6,64.9,138.2,64.7,137.8,64.4L137.8,64.4z M138.7,54c0.2-0.4-0.1-1.1,0.8-1c0.6,0.1,0.9,0.4,0.9,1.2l1.1,0.5
					c-0.4,0.4-1.3,0.4-1.4,0C139.7,54.2,139.2,54,138.7,54L138.7,54z M139.9,63.4c-0.2-0.2-0.3-0.3-0.5-0.5c0.1-0.1,0.1-0.3,0.3-0.5
					l1.3,0.5c-0.1,0.2-0.2,0.4-0.3,0.5C140.4,63.2,140.1,63,139.9,63.4L139.9,63.4z M142.6,67.3l-0.6-0.2c-0.1,0.2-0.2,0.4-0.3,0.7
					c-0.1,0-0.1,0-0.2,0c-0.1-0.4-0.2-0.7-0.3-1.1c-0.3,0.2-0.4,0.3-0.6,0.5c-0.1-0.2-0.1-0.5-0.1-1c0.8,0.5,1.6,0.4,2.2,0.9
					L142.6,67.3z M144.8,62.9l-0.2,0.2c0.2-0.1,0.4-0.3,0.6-0.5l-0.3,0.2l1.1,0.7c0,0,0,0-0.1,0.1c-0.2-0.3-0.6-0.4-0.9-0.3
					c-0.3,0-0.6,0.1-0.7,0c-0.3-0.4-0.9-0.6-0.9-1.2c0.1-0.1,0.2-0.2,0.2-0.2L144.8,62.9L144.8,62.9z M144.3,57.5v1.1h-2.1
					c0.3-0.3,0.6-0.6,0.9-1c0.1,0.1,0.3,0.2,0.4,0.3C143.8,57.5,143.9,57,144.3,57.5L144.3,57.5z M149.6,50.5c-0.1,0.7,0,1.1,0.7,1
					c0,0.1,0,0.1,0,0.2c-0.2,0.1-0.4,0.1-0.7,0.2c-0.2,0-0.5-0.1-0.9-0.1L149.6,50.5z M146.1,47.3l-0.6-0.3c0.1-0.2,0.1-0.4,0.2-0.6
					c0.2,0.4,1-0.9,1.1,0.3C146.5,46.9,146.3,47.1,146.1,47.3L146.1,47.3z M146.9,13.3c-0.3-0.7-0.6-1.4-0.9-2c-0.1,0-0.1,0-0.2,0
					c0.1,0.8,0.3,1.7,0.4,2.5c0,0-0.1,0-0.1,0c-0.2-0.4-0.5-0.9-0.8-1.4c0.5-0.9-0.4-1.9-0.3-3c0.9,0.6,1.4,1.7,2.3,2
					c0.4,0.4,0.7,0.6,1,0.9L146.9,13.3L146.9,13.3z M148.6,10.6c-0.1,0.2-0.2,0.3-0.3,0.4c-0.1,0-0.2,0-0.2-0.1
					c0-0.2,0.1-0.3,0.1-0.5c0-0.2,0.1-0.3,0.1-0.5h0.2C148.6,10.2,148.6,10.4,148.6,10.6L148.6,10.6z M148.9,12.5
					c0.1-0.4,0.2-0.7,0.4-1.1c0.2,0.4,0.3,0.6,0.5,0.9L148.9,12.5L148.9,12.5z M152.4,47.2c-0.2-0.1-0.4-0.2-0.6-0.3
					c0.1-0.2,0.9,0,0.4-0.6C153,46.4,152.2,46.9,152.4,47.2L152.4,47.2z M155.7,14.9c-0.1-0.4-0.2-0.9-0.3-1.3
					c0.3-0.3,0.6-0.7,0.9-1.1c0.4,0.6,0.3,1.4-0.3,1.9c0,0,0,0,0,0c0.2,0,0.5,0,0.7,0C156.6,14.8,156.5,14.9,155.7,14.9L155.7,14.9z
					 M156.1,15.9c0,0,0.1-0.3,0.1-0.3c0.2,0,0.4,0,0.5,0.1c0.1,0.1,0.2,0.2,0.3,0.3c0,0.1-0.1,0.2-0.1,0.3
					C156.6,16.2,156.4,16.1,156.1,15.9L156.1,15.9z M157.6,43.8c0.1-0.7,0.3-1.4,0.4-2.2C158.5,42.4,158.3,43.3,157.6,43.8
					L157.6,43.8z M157,16.1c0.7-0.1,1.2-0.5,1.4-1.1c0.2,0.4,0.3,0.7,0.5,1.1C158.3,16.1,157.7,16.9,157,16.1z M162,11.9l0.7,1
					c-0.4,0.1-0.7,0.1-1,0.2c0-0.3,0.7-0.7-0.1-1.1C161.8,11.9,161.9,11.9,162,11.9L162,11.9z M161.3,47.8c-0.4-0.1-0.7-0.2-1.2-0.4
					c-0.1-0.1-0.1-0.2-0.1-0.3c0-0.1,0.1-0.2,0.2-0.3c0.1,0.1,0.1,0.2,0.2,0.2c0.1,0,0.2,0.1,0.4,0.1
					C161.4,47,161.5,47.1,161.3,47.8L161.3,47.8z M162.7,47.4c-0.3,0.1-0.7,0-1,0c0-0.1,0-0.2,0-0.3c0.4-0.3,0.9-0.5,1.3-0.8
					c0-0.3,0-0.5,0.1-0.8C163.5,46.1,163.3,46.9,162.7,47.4C162.7,47.3,162.7,47.3,162.7,47.4L162.7,47.4z M162.2,44
					c0,0.1-0.5,0-0.8,0c0-0.7,0.2-0.8,0.8-0.6c0.4-0.2,0.2-1,0.9-0.8c0.3,0.1,0.4,0.5,0.6,0.8C163,43.5,162.5,43.4,162.2,44z
					 M165.1,40.6c0.1-0.4,0.5-0.4,0.8-0.2c-0.1,0.3-0.3,0.5-0.5,0.9C165.2,41,165,40.7,165.1,40.6L165.1,40.6z M165.7,41.6
					c0.1,0.2,0.1,0.3,0.1,0.4c-0.3,0.1-0.6,0.3-0.9,0.4l-0.1-0.2C165.1,42,165.4,41.8,165.7,41.6L165.7,41.6z M164.5,44.2l-0.3-0.6
					c0.3-0.1,0.6-0.2,0.8-0.3l0.2-0.6l0.3,0.6h-0.3c0,0.2,0.1,0.4,0.1,0.6L164.5,44.2L164.5,44.2z M168.8,15.8
					c-0.7,0.8-0.9,0.8-1.6,0.4c0.1-0.1,0.2-0.2,0.3-0.4c0.2-0.4,0.4-0.7,0.7-1.1l0.4-0.6c0.1,0.1,0.2,0.1,0.3,0.2
					C168.6,14.8,167.9,15.4,168.8,15.8L168.8,15.8z M166.8,64.3c-0.1,0-0.1,0-0.2-0.1c0-0.3,0.1-0.5,0.3-0.7
					c0.3-0.1,0.5-0.2,0.8-0.2L166.8,64.3z M179.8,12c0.3,0.4,0.9,0.5,1.3,0.2c0.3,0,0.5,0,0.7,0.2c0.6,0.4,1.1,0.9,1.6,1.4
					c0.1,0.1,0.1,0.2,0.1,0.4c-0.2,0.7-0.4,1.4-0.7,2.3c-0.3-0.2-0.6-0.5-0.9-0.8c-0.5-0.8-0.6-0.8-1.2-0.1
					c-0.1,0.1-0.2,0.2-0.3,0.3c-0.4-0.7-0.6-1.4-0.6-2.2c0.1-0.4,0-0.8-0.5-1c-0.1,0-0.1-0.4-0.2-0.5
					C179.4,12.1,179.7,11.9,179.8,12L179.8,12z M172.4,12.2c0.1,0.6,0.1,1,0.2,1.6C171.8,13.1,171.8,12.6,172.4,12.2L172.4,12.2z
					 M169.7,17.8c0.5-0.4,0.9-0.9,1.4-1.3c0.3-0.2,0.7-0.2,1-0.2c0.2,0,0.3,0.3,0.5,0.5s0.2,0.3,0.4,0.5c0.1-0.2,0.2-0.4,0.2-0.6
					s0-0.4,0.1-0.4c0.2-0.2,0.4-0.3,0.6-0.5c0.1,0.2,0.2,0.5,0.3,0.7c0.1,0.4,0.1,0.8,0.1,1.4c-0.3,0-0.8,0.1-1.2,0.1
					c-0.2,0-0.3,0.1-0.5,0.2c-0.3,0.4-0.8,0.6-1.3,0.4c-0.2-0.1-0.5,0.4-0.8,0.7l-0.8-0.3C169.3,18.8,169.3,18.1,169.7,17.8
					L169.7,17.8z M174.1,20.1c-0.2,0-0.3,0-0.5,0c-0.3,0-0.5-0.1-0.8-0.1c-0.1,0-0.4-0.1-0.4-0.1c0-0.2,0-0.3,0.1-0.5
					c0.1-0.1,0.3-0.1,0.4,0c0.5,0.4,0.7,0.3,0.9-0.3c0.1-0.1,0.3-0.2,0.4-0.3c0.4-0.4,0.8-0.7,1.3-1c0.1-0.1,0.4-0.2,0.5-0.2
					c0.3,0.4,0.5,0.8,0.7,1.2c-0.2,0.2-0.4,0.4-0.7,0.5c-0.1,0-0.3-0.3-0.4-0.4l-0.3-0.3c-0.1,0.1-0.4,0.3-0.3,0.4
					C175.1,19.7,174.6,19.8,174.1,20.1L174.1,20.1z M170.6,39.5l-0.3,0.2c0-0.3-0.1-0.5-0.1-0.7l-0.6,0.1c0.3-0.4,0.4-0.7,0.6-1
					C170.3,38.5,170.4,38.9,170.6,39.5L170.6,39.5z M168.6,56.7c0.1-0.2,0.1-0.3,0.2-0.5c-0.3,0-0.5,0-0.8,0
					c-0.2-0.1-0.2-0.3-0.4-0.6l0.8-0.1c-0.2-0.3-0.4-0.5-0.7-0.9c-0.4,0.4-0.6,0.8-0.7,1.3c-0.1,0.2-0.2,0.3-0.3,0.5l-0.3-0.1
					c0-0.4,0.1-0.9,0.1-1.4c-0.1-0.1-0.3-0.2-0.4-0.2l0.1-0.1l-0.7-0.9l1-0.4c-0.4-0.9-1-1.2-1.6-0.9c0.1,0.5,0.1,0.9,0.1,1.4
					c0,0.1-0.4,0.2-0.8,0.3c0.1-1.9,0.8-3.2,1.7-3.3c0,1.1,1,0.9,1.6,1.3c0.2,0.1,0.4,0.2,0.6,0.2c-0.3,0.4-0.5,0.8-0.7,1.1l0.1,0.2
					l1.7-0.5c0.4,0.8-0.6,0.9-0.6,1.5c0.3,0.6,1.6,0.3,1.2,1.3L168.6,56.7L168.6,56.7z M169.5,62.4l0.7-0.5c0,0.3,0,0.6,0.1,0.9
					L169.5,62.4z M172.4,41.8c-0.2,0-0.5-0.1-0.7-0.1l-0.5-0.1c0,0.2-0.1,0.3-0.1,0.5c0,0.3,0.1,0.5,0.1,0.7c0,0.2-0.1,0.3-0.1,0.5
					l-0.8-1c0.2-0.1,0.4-0.3,0.6-0.4c-0.1-0.2-0.1-0.5-0.2-0.8c0.2,0.1,0.5,0.1,0.7,0.1c0.1,0,0.3-0.1,0.4-0.1
					c-0.1-0.1-0.2-0.3-0.3-0.3c-0.3-0.1-0.7-0.2-1.1-0.2l0.6-1c0.4,0.4,1,0.5,1.5,0.2c0.1,0.3,0.3,0.5,0.4,0.8
					c-0.2,0.3-0.6,0.8,0.1,1.1C172.9,41.8,172.6,41.8,172.4,41.8L172.4,41.8z M177,23.9c-0.3-0.1-0.7-0.1-0.8-0.3
					c-0.6-0.8-0.8-0.9-1.9-0.7l0.1,0.5c-1,0.1-1.5,0.9-1.5,2.3c-0.6-0.3-0.8-0.6-0.5-1.4c0.1-0.3,0.3-0.7,0.4-1
					c0-0.1,0.1-0.3,0.2-0.3c0.7,0,0.8-0.6,0.8-1.1c0.2,0.1,0.4,0.1,0.7,0.2c0.1-0.3,0.1-0.6,0.2-0.9h0.2c0,0.2,0,0.4,0,0.6
					c0,0.2,0.1,0.5,0.2,0.5s0.4-0.1,0.6-0.2c0.5-0.5,0.5-0.5,1-0.2c-0.2,0.2-0.4,0.3-0.6,0.5c0.3,0.2,0.5,0.4,0.7,0.6
					c0.2,0.1,0.3,0.3,0.5,0.5C177.2,23.6,177,23.9,177,23.9L177,23.9z M177,18c-0.1-0.3-0.2-0.5-0.3-0.8l0.8-0.4l-0.6-0.3
					c0.1-0.5,0.2-1.1,0.2-1.6c-0.1-0.8-0.6-1.4-1.4-1.6c-0.2-0.1-0.4-0.2-0.5-0.4c-0.2-0.1-0.3-0.4-0.4-0.4c-0.5-0.2-0.4-0.6-0.4-1
					s0.3-0.4,0.6-0.3c0.3,0.1,0.5,0.2,0.7,0.4c0.4,0.3,0.7,0.6,1.1,0.1c0.2-0.2,0.7,0,0.7,0.5s-0.2,1.1-0.2,1.7
					c0,0.2,0.1,0.5,0.3,0.6c0.8,0.5,0.7,0.4,0.3,1.1c-0.1,0.2-0.1,0.5,0,0.7c0.5,0.8-0.1,1.3-0.4,2C177.4,18.2,177.1,18.2,177,18
					L177,18z M178.3,19.1c-0.1,0.1-0.4,0.1-0.5,0.2c-0.1-0.1-0.1-0.1-0.2-0.2c0.1-0.2,0.2-0.5,0.4-0.6c0.4-0.2,0.6-0.7,0.5-1.1
					c-0.1-0.5-0.2-1,0.3-1.4c0.1-0.1,0-0.3,0.1-0.4c0.1-0.2,0.3-0.4,0.6-0.4c-0.4,0.6-0.4,1.4-0.1,2.1c0,0.1,0,0.1,0,0.2
					C179.1,18,178.7,18.6,178.3,19.1L178.3,19.1z M185.9,54.5c-0.1,0.2-0.3,0.5-0.5,0.7c-0.1-0.1-0.1-0.2-0.2-0.4
					c-0.1-0.2-0.1-0.3-0.2-0.5c0.2-0.1,0.4-0.2,0.7-0.2C185.7,54.1,186,54.4,185.9,54.5L185.9,54.5z M191.4,32.3l-0.6-0.7
					C191.4,31.5,191.8,31.6,191.4,32.3L191.4,32.3z M192.9,35.6c-0.2-0.1-0.3-0.1-0.4-0.2c0.1-0.2,0.2-0.5,0.1-0.6
					c-0.3-0.1-0.5-0.2-0.7-0.2c0.2-0.1,0.5-0.3,0.8-0.5c0.1,0.5,0.3,1,0.4,1.4C193,35.5,192.9,35.5,192.9,35.6L192.9,35.6z
					 M193,32.7c0-0.4-0.1-0.8-0.1-1.2c0,0,0-0.1,0.1-0.1c0.2,0.4,0.4,0.7,0.7,1.1L193,32.7z M193.8,31.2c-0.2-0.1-0.4-0.2-0.6-0.2
					c0.6-0.3,0.9,0.1,1.2,0.7C194.1,31.5,193.9,31.3,193.8,31.2L193.8,31.2z M194.3,29.5l-0.2,0.1c-0.2-0.2-0.4-0.4-0.7-0.7l1.1-0.9
					l0.2,0.1C194,28.4,194,28.9,194.3,29.5L194.3,29.5z M194.8,17c0-0.1-0.1-0.2-0.1-0.3l1-0.3l0.1,0.2L194.8,17z M194.5,15v-0.2
					l1.5-0.1c0,0.1,0,0.2,0,0.3C195.6,15.2,195,15.2,194.5,15z M197.7,33.5c0.4-0.1,0.7-0.6,1.1,0l-0.4,0.5
					C198.2,33.8,198,33.7,197.7,33.5L197.7,33.5z M198.8,35.5c-0.3-0.9-0.2-1,0.7-1.5c0.9,0.6,1.3,0.9,1.2,1l-1.6-0.2
					c0,0.1,0,0.1,0,0.2c0.3,0.2,0.7,0.3,1.1,0.6L198.8,35.5z M200.3,62.9c-0.1-0.1-0.2-0.2-0.3-0.3c0.1-0.2,0.2-0.4,0.3-0.5
					c0.1-0.1,0.3-0.2,0.5-0.2c0,0.1,0.1,0.1,0.1,0.2C200.7,62.3,200.5,62.6,200.3,62.9L200.3,62.9z M211.9,10.2
					c0.1,0.4,0.2,0.7,0.3,1.1l-1-0.4L211.9,10.2z M207.3,25.4c0.1,0,0.2,0,0.3,0v1.3c-0.2-0.2-0.5-0.3-0.5-0.5
					C207.1,25.9,207.2,25.7,207.3,25.4L207.3,25.4z M206.7,31.7c0.1,0,0.3,0.2,0.3,0.4s-0.4,0.7,0.3,0.6c0,0,0,0.2,0.1,0.5l-0.9-0.4
					c0.4-0.3,0.2-0.6-0.4-0.7C206.3,31.8,206.5,31.7,206.7,31.7L206.7,31.7z M206.1,59.1c0,0,0.4,0.3,0.7,0.4l-1.1,0.3
					c-0.1-0.2-0.2-0.6-0.3-1C205.6,58.9,205.5,59.7,206.1,59.1L206.1,59.1z M203.9,26.6c0-0.2,0.2-0.3,0.4-0.6
					c0.2,0.5,0.3,0.7,0.5,1.1c-0.2-0.1-0.4-0.1-0.5-0.1s-0.1,0.1-0.1,0.1c0.5,0.5,0.9,1,1.4,1.6l-0.1,0.2c-0.2-0.1-0.3-0.3-0.5-0.4
					C204.5,28,204.1,27.3,203.9,26.6L203.9,26.6z M205.4,63.1c0-0.2-0.1-0.5-0.2-0.9l1.1-0.2c0,0.1,0,0.1,0,0.2
					c-0.1,0-0.3,0.1-0.5,0.1c0.1,0.2,0.1,0.3,0.1,0.5C205.8,62.9,205.6,63,205.4,63.1L205.4,63.1z M206,64.8c0.6-0.2,1-0.3,1.7-0.5
					C207.3,65.2,206.6,65.4,206,64.8L206,64.8z M209.1,63.4c-0.3,0.3-0.4,0.6-0.6,0.9l-0.9-0.7c-0.2,0.2-0.4,0.4-0.6,0.6
					c-0.3,0.1-0.7,0.1-1,0.1c0.3-0.4,1.1-0.5,0.3-1.2c0,0,0.1-0.1,0.1-0.1c0.3,0.1,0.6,0.1,0.8,0.2c0.2,0,0.6,0,0.6-0.1
					c0.1-0.5,0.6-0.9,1.2-0.8c0,0,0.1,0,0.1,0c0,0.2,0,0.4,0.1,0.6C209.7,63.3,209.5,63.4,209.1,63.4L209.1,63.4z M209.9,28.4
					l-1.1,0.1c0.1-0.2,0-0.6,0.2-0.7c0.5-0.5,0.7,0.1,0.9,0.4L209.9,28.4L209.9,28.4z M211.4,33.1v-1.4l-0.1,0.1
					c-0.1-0.2-0.3-0.5-0.4-0.7L211,31c0.8,0.5,0.5,1.4,0.6,2.1L211.4,33.1L211.4,33.1z M211.2,24.7c-0.1-0.1-0.4-0.1-0.6-0.1
					c-0.2,0.1-0.4,0.2-0.6,0.4c0.7-0.5-0.1-1.4,0.9-1.6l-0.6-0.5c0.3-0.1,0.5-0.2,0.8-0.4c-0.1,0.7-0.1,1.3-0.2,1.9
					c0.6,0.1,1.2-0.2,1.5,0.6c-0.4,0.2-0.8,0.4-1.1-0.2L211.2,24.7z M221,18.5c-0.2,0.5-0.5,0.9-0.7,1.4c-0.4-0.2-0.6-0.4-0.9-0.6
					c0-0.1,0-0.3,0-0.4l0.7,0.1c0.2-0.3,0.4-0.6,0.6-0.9c0.1,0,0.1,0.1,0.2,0.1C221,18.2,221,18.4,221,18.5L221,18.5z M217.9,12
					c0.1-0.1,0.3-0.1,0.4-0.2c0.2-0.8,0.7-0.7,1.4-0.6c0.9,0.1,1.2,0.2,1.4,1.2l-0.5,0.2c-0.4,0.1-0.7,0.3-0.3,0.8
					c0.1,0.1,0,0.5-0.2,0.7s-0.4,0.2-0.6,0.3c-0.2,0.1-0.4,0.2-0.6,0.3c-0.1-0.6-0.4-1-1.1-0.9c-0.1,0-0.2,0-0.4-0.1
					C217.4,13.1,217.5,12.5,217.9,12L217.9,12z M215.5,12.5c0.3,0.4,1.2-0.4,1.1,0.6l-1.3,0.3C215.3,13.1,215.4,12.8,215.5,12.5
					L215.5,12.5z M215.2,14c0.3,0,0.6,0,0.9,0.1v0.2c-0.3,0.1-0.6,0.3-1,0.5C215.1,14.4,215.2,14,215.2,14L215.2,14z M214.7,21.2
					l1.3-0.3c-0.3,0.4-0.4,0.7-0.7,1c-0.2-0.1-0.4-0.3-0.7-0.5C214.6,21.3,214.7,21.2,214.7,21.2L214.7,21.2z M214.5,33.1
					c0,0.5-0.1,1.1-0.1,1.6l-1.2-0.5l0.3,0.1c0.2-0.4,0.5-0.9,0.7-1.3L214.5,33.1z M212.6,10.8l1.6,0.3c-0.5,0.4-1.2,0.3-1.5-0.2
					C212.6,10.9,212.6,10.9,212.6,10.8L212.6,10.8z M213.7,35.3c-0.1-0.1-0.4,0.1-0.9,0.2l0.8-0.7c0.2,0.2,0.4,0.3,0.7,0.5
					c0.3-0.3,0.6-0.5,0.9-0.9c0.1,0.2,0.2,0.4,0.2,0.6C214.9,35.6,214.2,35.7,213.7,35.3L213.7,35.3z M216.4,63.6
					c-0.3-0.2-0.5-0.5-0.7-0.8c-0.5-0.9-0.5-0.9-1.4-1.2c0.2-0.2,0.4-0.3,0.6-0.4c0.2-0.1,0.3-0.1,0.5-0.1c0.2,0.7,0.8,0.6,1.3,0.7
					c-0.1,0.2-0.3,0.4-0.4,0.6l-0.3-0.5c-0.1,0-0.1,0.1-0.2,0.1c0.2,0.2,0.3,0.5,0.5,0.7s0.3,0.4,0.4,0.5L216.4,63.6L216.4,63.6z
					 M217,19c0.3,0.2,0.6,0.3,0.9,0.5C217.2,19.5,216.9,19.3,217,19z M218.5,35.4c-0.5,0.4-0.4-0.5-0.9-0.4c0-0.1,0-0.1,0.1-0.2h0.4
					l0.1-0.1c-0.1-0.1-0.3-0.2-0.4-0.3c0.2,0,0.5,0,0.7,0c0.3,0.2,0.3,0.6,0.1,0.9C218.6,35.4,218.5,35.4,218.5,35.4L218.5,35.4z
					 M220.8,32c-0.2,0.2-0.3,0.4-0.4,0.7c-0.1,0.7-0.8,1.1-1.4,1c-0.1,0-0.2-0.1-0.3-0.1c1.3-0.1,1.3-0.9,1.3-1.9
					c0-0.8,0.4-1.5,1.1-1.8C221.5,30.6,221.4,31.4,220.8,32L220.8,32z M222.5,63.2c0.3,0.7-0.4,0.7-0.6,0.9
					c-0.1-0.3-0.1-0.5-0.2-0.8L222.5,63.2z M156.7,63.2c0.1-0.6,0.1-1,0.2-1.4l-0.8-0.8c0.4-0.2,0.7-0.3,0.9-0.5
					c0.3,0.1,0.6,0.3,0.8,0.5c0,0.1,0,0.3,0,0.4c0.3,0.5,0.6,1.1,0.8,1.6c0.1-0.1,0.2-0.2,0.3-0.4c0.1-0.4,0.2-0.8,0.3-1.3
					c0-0.2-0.3-0.4-0.4-0.4c-0.3-0.1-0.6-0.1-0.9-0.1c0,0,0-0.1,0-0.1c0.6-0.7,1.2-1.5,1.8-2.2c0.1-0.1,0.3-0.1,0.4-0.1
					c0.7,0.2,1.2,0,1.2-0.5c-0.3-0.1-0.7-0.1-1-0.2c0.4-1.2,1.2-1.2,2.1-1.2c-0.1,0.4-0.1,0.6,0.4,0.5c0.6-0.2,0.8,0.2,1,0.6
					c0.1,0.2,0.2,0.4,0.2,0.6c0.1-0.4,0.3-0.7,0.2-0.8c-0.3-0.5-0.6-1-0.9-1.5c-0.1-0.1-0.4-0.1-0.6-0.1c-0.6,0.1-1.2,0.2-2,0.3
					c0.9-0.9,0.8-0.9-0.6-1.7c0,0.3-0.1,0.6-0.2,0.8c-0.1,0.3-0.3,0.6-0.5,0.9c-0.2-0.1-0.4-0.2-0.5-0.3c-0.2,0.1-0.5,0.1-0.8,0.1
					c-0.4-0.1-0.7,0.2-0.8,0.5c0,0.1,0,0.1,0,0.2c0.1,0.5-0.2,0.5-0.5,0.6c-0.3-0.4-0.2-0.9,0.2-1.1c0,0,0.1,0,0.1-0.1
					c-0.3-0.2-0.6-0.4-0.7-0.6c0-0.3,0.1-0.7,0.2-1c-0.7-0.2-1.3-0.4-2-0.6c-0.2,0.2-0.4,0.4-0.7,0.7c0-0.3,0.1-0.5,0.1-0.5
					c-0.3-0.1-0.6-0.2-0.9-0.4l0.6-0.4c0-0.1,0-0.1,0-0.2c-0.2,0-0.5-0.1-0.7,0c-0.5,0.3-0.9,0.6-1.3,1c-0.1,0.1-0.1,0.2-0.2,0.3
					c0.1,0,0.3,0.1,0.4,0.1c0.4-0.1,0.9-0.2,1.3-0.4l0.1,0.2l-2.1,1.1c0.6,0.2,1.4,0,1.5,0.8c-0.2,0.1-0.4,0.2-0.5,0.4
					c0.3,0.4,0.6,0.8,0.6,1.1s-0.4,0.8-0.6,1.2c0.1,0.1,0.3,0.2,0.3,0.3c-0.4,0.8,0.4,0.7,0.7,0.9s0.5,0.3,0.8,0.4
					c0.2,0.2,0.4,0.4,0.7,0.5c0.7,0.3,1,0.9,0.7,1.5c0,0.1,0.1,0.1,0.1,0.2l0.4-0.3c0.2,0.3,0.4,0.6,0.7,1L156.7,63.2z M158.4,58
					c-0.6,0.4-0.9,0.3-1-0.1L158.4,58z M155,58.9c-0.1-0.4-0.3-0.8-0.8-0.9c-0.1,0-0.2-0.5-0.2-0.9s-1-0.4-0.6-1.1
					c0.3,0.1,0.6,0.3,0.9,0.4c0.1,0.1,0.2,0.3,0.4,0.6c0.1-0.1,0.3-0.5,0.4-1.3c0.2,0,0.4,0,0.6,0c-0.2,0.5,0.7,1.1-0.1,1.3
					c0,0.3,0.1,0.5,0.2,0.8c0.2,0.3,0.4,0.6,0.7,0.8c0.5,0.2,0.6,0.5,0.3,0.9c-0.1,0.2-0.2,0.5-0.3,0.7c-0.2-0.3-0.4-0.5-0.6-0.7
					C155.4,59.8,155.1,59.4,155,58.9L155,58.9z M4.8,15.3c0.1-0.5-0.2-1.1-0.8-1.2c0,0,0,0-0.1,0c-0.4-0.1-0.7-0.3-0.9-0.6
					c-0.3-0.5-0.8-0.9-1.2-1.2c0-0.2,0.1-0.4,0.1-0.6c0.1-0.2,0.3-0.4,0.4-0.4c0.4,0.1,0.8,0.2,1.3,0.3c0.1,0,0.3,0,0.4,0
					c0.4-0.1,0.7-0.1,1.1-0.1c-0.4,0.3-0.4,0.6-0.2,1s0.5,0.3,0.8,0.2c0.2,0,0.4-0.1,0.7-0.1c0.1,0.4,0.2,0.7,0.2,0.9
					C6.2,13.8,5.6,14,6,14.8c0.1,0.1,0,0.4-0.1,0.7L4.8,15.3L4.8,15.3z M54.8,7.7l0.4-0.4c-0.5-0.9-0.3-1.2,0.5-1.2V5.4L55,5.5
					c-0.2-0.8,0.2-1.5,1-1.4c0.6,0.1,0.7-0.4,1.1-0.8c0.2,0.3,0.3,0.5,0.4,0.8c0.5-0.6,1.2-0.1,2,0.1c-0.5,0.5-1,1-1.5,1.5
					c-0.2,0.2-0.3,0.3-0.5,0.5l-1.4,0.3C56,7,56.6,7,57.2,7C56.7,7.8,55.7,8,54.8,7.7L54.8,7.7z M37.4,1.2c0-0.1,0-0.3,0.1-0.4
					c0.4-0.9,0.5-0.9,1.2-0.3C39,0.8,39.1,0.6,39.3,0c0.4,0.4,0.7,0.9,1.1,1.3c0.2,0.1,0.3,0.1,0.5,0.1c0.3,0,0.6-0.2,0.9-0.2
					c0.2,0,0.3,0.1,0.4,0.3c0.2,0.5,0.3,1,0.5,1.6c0,0-0.2,0.1-0.3,0c-0.5-0.3-1-0.7-1.6-0.9c-0.2-0.1-0.4-0.1-0.6,0
					c-0.1,0.1-0.1,0.4-0.1,0.6c0,0.1,0,0.3,0,0.5v0.6c-0.4,0-0.8-0.1-1.1-0.2c-0.1,0-0.3-0.2-0.3-0.3c0-0.6-0.2-0.8-0.8-0.5
					c-0.1,0-0.2-0.1-0.3-0.1c0-0.9,0.7-1.2,1.4-1.6l-0.1-0.2l-0.9,0.4C37.7,1.2,37.5,1.2,37.4,1.2L37.4,1.2z M152.6,11.3
					c-0.1-0.4-0.1-0.9-0.1-1.3c0-0.2,0.1-0.4,0.3-0.5c0.4-0.2,0.8-0.4,1.2-0.5c-0.1-0.2-0.2-0.3-0.3-0.4h1c0.6,0,0.9,0.2,0.8,0.8
					c0.1,0.6,0.5,1.2,1,1.6c0.1,0.1,0.3,0.2,0.4,0.3c0,0-0.1,0.2-0.1,0.1c-0.2,0-0.3-0.1-0.5-0.2c-0.1-0.1-0.2-0.1-0.4-0.1
					c-0.3-0.1-0.7-0.1-1.1-0.2c-0.3,0.7-1.1,1-1.8,0.8C152.9,11.6,152.7,11.4,152.6,11.3L152.6,11.3z M42.8,3.2
					c0.1,0.1,0.3,0.2,0.4,0.4c0.1,0.1,0.3,0.2,0.3,0.2c0,0.4-0.1,0.8-0.1,1.2c-0.5,0.4-0.9,0.8-1.3,1.3c-0.1,0.1-0.3,0.2-0.5,0.2
					c-0.2-0.1-0.6-0.4-0.6-0.6c0.1-0.6-0.1-0.7-0.5-0.8c-0.1,0-0.3-0.1-0.4-0.2c0-0.1,0.1-0.1,0.1-0.2c0.2,0,0.4,0.1,0.7,0.1
					c0-0.2-0.1-0.3-0.1-0.6c0.3,0,0.5-0.1,0.8-0.1C42.5,4.2,42.6,4.2,42.8,3.2L42.8,3.2z M189.5,20.2l-1.7,0.5
					c-0.2,0.2-0.5,0.5-0.8,0.8l-0.2,0.2c-0.6-0.2-0.6-0.3-0.2-0.8c-0.2-0.3-0.5-0.5-0.6-0.7s0-0.6,0.4-0.4s1,0.3,1.7,0.5l-1.5-1
					c1.2-0.2,1.9,0,2.1,0.5c0.1-0.1,0.3-0.3,0.4-0.5C189.4,19.5,189.5,19.8,189.5,20.2L189.5,20.2z M187.9,22.8
					c0.2,0.5-1,0.6-0.3,1.4l-0.1,0.2l-0.8-0.1c0-0.1,0-0.1-0.1-0.2c0.4-0.2,0.8-0.3,0.2-0.7c-0.2-0.2-0.1-0.8-0.1-1.3
					c0-0.2,0.1-0.3,0.1-0.5c0.1-0.1,0.1-0.1,0.2-0.2c0.5-0.1,1,0.2,1.1,0.7c0.1,0.1,0.3,0.2,0.5,0.4c0-0.4,0.1-0.7,0.1-1l0.2-0.1
					c0.1,0.2,0.1,0.4,0.1,0.7C189,22.9,188.6,23.1,187.9,22.8L187.9,22.8z M60.7,4.1c0-0.3,0.3-0.6,0.6-0.6c0,0,0.1,0,0.1,0
					c0.2,0,0.5-0.1,0.7-0.1c0.5-0.1,0.8,0,0.7,0.7c0,0.3,0.2,0.6,0.3,1C62.8,5,62.5,5,62.1,5c-0.5,0.2-0.6-0.2-0.8-0.6L61,5.3
					l0.6,0.3c-0.5,0.2-0.9-0.1-1-0.5C60.6,4.8,60.6,4.4,60.7,4.1z M9.6,20.3c0.9-0.7,1.1-0.7,1.7-0.2c0.1-0.2,0.1-0.4,0.2-0.5
					l0.2,0.1c-0.1,0.3-0.2,0.6-0.4,1c-0.4-0.3-0.9-0.3-1.2,0.1c-0.1,0.1-0.1,0.2-0.2,0.2c-0.1,0.2-0.4,0.2-0.6,0.4
					c0,0.1,0.1,0.2,0.2,0.3c0.6,0.3,0.4,0.5-0.1,0.8c-0.2,0.1-0.3,0.2-0.4,0.4c-0.6-0.6,0-1-0.1-1.4c-0.1-0.2-0.2-0.5-0.2-0.8
					C8.9,20.3,9,20,9.1,19.8C9.3,19.9,9.4,20.1,9.6,20.3L9.6,20.3z M154,53.1c0.4-0.5,0.7-1.6,1.8-0.7c0.1-0.1,0.1-0.3,0.2-0.4
					c0.1-0.1,0.3-0.2,0.4-0.3c0.1,0.2,0.2,0.4,0.2,0.6c0,0.3-0.1,0.5-0.1,0.7c-0.2,0.1-0.5,0.3-0.7,0.5
					C155.2,53.7,154.5,53.5,154,53.1L154,53.1z M6.7,8.1C6.4,8.2,6.1,8.3,5.8,8.5c0-0.9,0.6-1,1.1-1.1c0.5,0,1,0,1.5,0l0.4,0.8
					C7.1,9.6,7.3,9,6.7,8.1z M188.4,26.3c0.1,0,0,0.2,0,0.3l-0.4-0.1c0.1,0.8-0.7,0.5-1,0.8c0.5,0.4,0.7,1.1,0.3,1.6
					c0,0,0,0.1-0.1,0.1c0.3,0,0.6,0,0.8,0c0,0.3-0.3,0.4-0.9,0.3c0-0.4-0.1-0.8-0.2-1.2c-0.2-0.3-0.4-0.6-0.6-0.9
					c-0.1-0.2-0.2-0.4-0.2-0.6c0.1-0.3,0.3-0.6,0.5-0.9c0.3,0.3,0.4,0.6,0.7,0.9c0.2-0.2,0.4-0.3,0.7-0.4
					C188,26.2,188.2,26.2,188.4,26.3L188.4,26.3z M36.3,4.6c-0.1-0.2-0.1-0.3-0.1-0.5c1-0.1,1.2,0.8,1.8,1.2c0.9-0.3,1.8,0,2.3,0.8
					C40.1,6.1,39.8,6,39.6,6C38.3,6.1,37.1,5.6,36.3,4.6L36.3,4.6z M5.9,20.6c-0.2,0-0.5-0.1-0.7-0.2l0.6-1.4l0.3,0.7
					c0-0.1,0-0.1,0-0.2c0.4,0.1,0.7,0.1,1.1,0.1c0.3,0,0.5-0.1,0.8-0.2c0.2-0.1,0.3-0.4,0.5-0.6c0.5,0.6-1,0.8-0.2,1.4
					c-0.4,0.3-0.7,0.5-1.1,0.8l-0.1-0.1c0.1-0.3,0.3-0.5,0.4-0.9l-0.6,0.2c0-0.2-0.1-0.3-0.2-0.6C6.5,20.1,6.2,20.3,5.9,20.6
					L5.9,20.6z M155.3,50.1c0.6,0.7,0.7,1.3,0.3,1.6c-0.3-0.3-0.6-0.6-0.9-1c-0.3-0.4,0.4-1.9,0.9-2c0.1,0,0.4,0.1,0.4,0.2
					c0,0.3,0,0.6-0.1,0.8C155.7,49.8,155.5,49.9,155.3,50.1L155.3,50.1z M158.6,65.2c0,0-0.1,0.2-0.2,0.2c-0.7,0.1-1.3,0.2-2,0.3
					v-2.1c0.7,0.5,1.3,1,2,1.4C158.5,65,158.5,65,158.6,65.2L158.6,65.2z M149.7,58.6c0.1-0.6,0.5-1.2,1-1.6c0.1,0,0.3,0.1,0.4,0.2
					c0,0.4,0.1,0.8,0.2,1.2c0.1,0.4,0,0.5-0.3,0.6C150.3,59.2,149.7,59,149.7,58.6L149.7,58.6z M65.1,5.6h-0.4
					c0.1,0.3-0.5,1.2-0.8,1.1c-0.6-0.1-1.1-0.3-1.6-0.5l2.1-0.8C64,5.2,63.9,5.1,63.6,5C63.8,4.9,64,4.8,64,4.8
					c0.4,0.2,0.7,0.4,1.1,0.6C65.1,5.5,65.1,5.5,65.1,5.6L65.1,5.6z M33.6,3.6l0.3-1c0.2,0.4,0.3,0.7,0.5,1c0.2,0,0.6-0.1,0.7,0.1
					c0.2,0.3,0.4,0.6,0.5,1c0,0.1-0.3,0.3-0.3,0.3c-0.4-0.2-0.8-0.5-1.2-0.8C33.9,3.9,33.7,3.7,33.6,3.6L33.6,3.6z M11.1,19
					c0.1-0.2,0.1-0.4,0.2-0.6s0.1-0.4,0.1-0.7l0.8,0.2c-0.2-0.4-0.3-0.6-0.5-0.9l0.9-0.2c0,0.3-0.1,0.5-0.1,0.8l0.7,0.1
					c-0.4,0.8-0.4,0.8-0.9,0.6c-0.2,0.3-0.4,0.5-0.6,0.7C11.5,19.1,11.3,19,11.1,19z M153,50.5l1.4,0.4l0.1,0.2l-0.8,0.4
					c0.2,0.8,0.1,1-0.9,1.2C152.8,52,152.9,51.3,153,50.5z M160,64.9c-0.2-0.4-0.7-0.5-1.1-0.3c-0.1,0-0.1,0.1-0.2,0.2
					c-0.1-0.3-0.2-0.4-0.4-0.8c0.7-0.1,1.3-0.2,1.9-0.2c0.2,0.3,0.5,0.6,0.8,0.9C160.7,65.2,160.3,65.3,160,64.9L160,64.9z
					 M156.6,8.6c0.2,0.3,0.3,0.4,0.4,0.6c0.2,0.2,0.4,0.5,0.6,0.8c0.2,0.2,0.3,0.4,0.3,0.6c0,0.1-0.3,0.4-0.4,0.3s-0.3-0.3-0.5-0.4
					s-0.2-0.4-0.3-0.4C156,9.8,156.4,9.3,156.6,8.6L156.6,8.6z M130,8.6c0.4-0.1,0.8-0.1,1.1-0.1c0,0.3-0.1,0.7-0.2,1
					c-0.1,0.2-0.3,0.3-0.5,0.4c-0.2-0.2-0.3-0.4-0.4-0.5C129.5,9.1,129.7,8.8,130,8.6L130,8.6z M13.2,42.7c0,0.1-0.1,0.3-0.2,0.5
					c-0.2-0.2-0.5-0.3-0.6-0.5c-0.3-0.6-0.6-0.9-1.4-0.6c-0.1,0-0.3,0-0.4,0c0.4-0.9,1.2-0.7,1.9-0.9c0,0,0.2,0.3,0.2,0.4
					s-0.3,0.2-0.4,0.3L13.2,42.7L13.2,42.7z M90.3,11.6c-0.2-0.2-0.7-0.3-0.4-0.9l0.9,0.6l0.5-0.2c0.2,0.5,0.3,0.8,0.5,1.3l-0.6,0.2
					C91,12.2,91,12,90.9,11.8c0,0-0.1,0-0.1,0c-0.1,0.2-0.1,0.4-0.2,0.6c-0.1,0-0.2,0-0.3,0C90.3,12.1,90.3,11.8,90.3,11.6
					L90.3,11.6z M43.8,8.3l-0.7-0.5l-0.6,0.4c-0.2-0.3-0.3-0.5-0.4-0.8c0-0.1-0.1-0.3,0-0.3S42.4,7,42.4,7c0.8,0.7,1-0.2,1.5-0.5
					l0.3,0.3c0,0.1,0,0.1-0.1,0.1c-0.3,0.3-0.6,0.5-0.3,1C43.9,8,43.9,8.2,43.8,8.3L43.8,8.3z M9.2,13.6c-0.4,0.2-0.9,0.3-1.4,0.3
					c0.1-0.2,0.1-0.4,0.2-0.6c0.1-0.2,0.3-0.4,0.5-0.6c0.2-0.2,0.4-0.4,0.6-0.4s0.5,0.3,0.5,0.5C9.6,13.2,9.4,13.4,9.2,13.6
					L9.2,13.6z M32.7,6.6C32.8,6.8,33,7,33.1,7.2l-0.2,0.2c-0.5-0.3-1.2,0.2-1.6-0.6c-0.1-0.1-0.1-0.3-0.1-0.5
					c0.2,0,0.3-0.1,0.5-0.1C32,6.4,32.5,6,32.7,6.6L32.7,6.6z M59.4,69.9c-0.1,0.3-0.2,0.6-0.3,0.8c-0.1,0.2-0.3,0.4-0.5,0.6
					c-0.1,0.1-0.5-0.1-0.5-0.1c0-0.4,0-0.9,0.2-1.2c0.2-0.3,0.6-0.4,0.9-0.3C59.3,69.8,59.4,69.8,59.4,69.9L59.4,69.9z M9.2,47.9
					c-0.4,0.4-0.7,0.8-1.1,1.3c-0.2-0.6-0.4-1.2-0.6-1.9L9.2,47.9z M203,65l0.2,0.1c-0.2,0.3-0.3,0.8-0.5,0.8c-0.4,0-0.9,0-1.3-0.1
					c-0.1,0-0.2-0.2-0.3-0.3c-0.1-0.1-0.1-0.2-0.1-0.3c0.1,0,0.3,0,0.4,0c0.4,0.1,0.8,0.3,1.2,0.1C202.7,65.2,202.9,65.1,203,65
					L203,65z M51.1,3.7c0.3-0.8,0.5-1.4,0.8-2.1l0.9,0.2c-0.4,0.4-0.8,0.8-0.6,1.5C51.8,3.4,51.4,3.5,51.1,3.7z M201.9,66.7
					c0.4,0.2,0.9,0.4,1.3,0.6c-0.7,0.8-1,0.9-1.5,0.5S201.7,67,201.9,66.7L201.9,66.7z M1.6,11.3c-0.4,0.2-0.7,0.2-1.1,0.2
					c-0.1,0-0.2-0.4-0.4-0.7l2.1-0.3C1.9,10.8,1.8,11.2,1.6,11.3L1.6,11.3z M49.6,1.3c0.2-0.2,0.8,0,1.3,0l-0.8,1.4
					C49.8,2.2,48.8,2,49.6,1.3L49.6,1.3z M53.1,4c-0.1,0-0.1,0-0.2,0V2.8l0.8-1.1L54,3L53.1,4z M8.8,43.5c0.7-0.2,1.2-0.3,1.7-0.4
					c0.1,0,0.3,0.1,0.4,0.3s0,0.2,0,0.3l-0.4-0.1l0.1,0.2c-0.4,0.2-0.8,0.3-1.2,0.4C9.1,44,8.9,43.6,8.8,43.5L8.8,43.5z M152,11.5
					c0.1,0.1,0.1,0.2,0.2,0.2s0.2,0,0.3,0c0,0.6-0.1,1.1-0.1,1.6c-0.6-0.3-0.8-1-0.6-1.6C151.8,11.6,151.9,11.5,152,11.5L152,11.5z
					 M162.6,55.5c-0.4-0.2-0.8-0.5-1.1-0.8l1.4-0.4c0.1,0.3,0.3,0.5,0.2,0.7C163,55.2,162.8,55.3,162.6,55.5L162.6,55.5z M2.8,14.3
					l-1.7-0.4v-0.3c0.4-0.2,0.8-0.6,1.1-0.5S2.5,13.8,2.8,14.3z M30.7,4.7c0.4-0.6,0.8-0.3,1.5-0.3c-0.8,0.4,0.4,1.4-0.8,1.6
					C31.5,5,31.4,4.9,30.7,4.7L30.7,4.7z M184.8,25c-0.5,0.1-0.9,0.1-1-0.5c0-0.2-0.2-0.4-0.4-0.6C184,23.5,184.6,23.9,184.8,25
					L184.8,25z M6.5,22.3l-0.8-0.4l0.3-0.5C6,21.2,6,21.1,6.1,20.9l1.3,1.2C7.1,22.4,6.6,21.5,6.5,22.3L6.5,22.3z M157.5,68.3
					c-0.3,0-0.6,0-0.9,0c-0.2-0.1-0.4-0.2-0.6-0.4c0.1-0.1,0.2-0.3,0.3-0.4c0.2-0.1,0.5-0.1,0.8,0C157.3,67.7,157.3,68,157.5,68.3
					L157.5,68.3z M162.1,65.7c-0.2,0.1-0.4,0.2-0.6,0.2c-0.3-0.1-0.6-0.3-0.9-0.5c0.3-0.2,0.6-0.3,0.9-0.3c0.2,0,0.4,0.1,0.6,0.3
					C162.2,65.3,162.2,65.7,162.1,65.7L162.1,65.7z M35.7,6.8c0.3-0.2,0.6-0.4,0.9-0.6c0.3,0.1,0.7,0.3,1,0.6
					C37.1,7.2,36.3,7.2,35.7,6.8z M11.6,32.6c0-0.3,0-0.7,0-1c0.6,0.5,1-0.8,1.6,0L11.6,32.6L11.6,32.6z M187.1,35.5l-0.9-0.7
					c0.2-0.2,0.4-0.5,0.7-0.8C187.2,34.4,187.3,35,187.1,35.5z M155.3,67.6l-0.6,0.7l0.4,0.4l-0.1,0.1l-1-0.2
					c0.2-0.3,0.4-0.6,0.6-0.9c0.2-0.1,0.3-0.2,0.5-0.3C155.2,67.5,155.3,67.6,155.3,67.6L155.3,67.6z M8.9,25c0.1-0.3,0.3-0.7,0.5-1
					c0.1-0.1,0.5,0.1,0.9,0.3C9.8,24.7,9.7,25.3,8.9,25L8.9,25z M4.7,15.6c-0.4-0.1-0.7-0.2-1-0.4c-0.1-0.1,0.1-0.5,0.2-0.8h0.3
					C4.4,14.8,4.5,15.2,4.7,15.6L4.7,15.6z M63.3,4.1c0-0.2,0.1-0.5,0.2-0.8c0.3,0,0.5,0,0.8,0.1c0.2,0.1,0.3,0.3,0.3,0.5
					c-0.2,0.1-0.3,0.2-0.5,0.3C63.8,4.2,63.5,4.2,63.3,4.1L63.3,4.1z M59.4,2.8l0.3-0.2l1.2,0.9c-0.4,0.1-0.8,0.2-1.2,0.2
					C59.5,3.7,59.5,3.1,59.4,2.8z M9,7.7l0.2-0.1C9.6,7.8,10,8,10.4,8.2v0.3c-0.3,0.1-0.7,0.2-0.8,0.1S9.2,8,9,7.7z M186.3,24.5
					l-0.7-0.2c0.1-0.4,0.2-0.7,0.3-1l0.7,0.1C186.4,23.7,186.3,24.1,186.3,24.5L186.3,24.5z M43.1,0.8c0.3-0.3-0.1-1.1,0.7-0.7
					c0.2,0.1,0.4,0.9,0.2,1.1C43.3,1.8,43.7,0.3,43.1,0.8L43.1,0.8z M3.9,16.8l0.9,0.6c0,0.1,0,0.2-0.1,0.3l-1.3,0.2
					C3.6,17.4,3.8,17.1,3.9,16.8L3.9,16.8z M9.6,48.6c0.1,0.4,0.3,0.8,0.4,1.2l-0.2,0.1l-1.2-0.5C8.9,49.1,9.2,48.9,9.6,48.6
					L9.6,48.6z M8.9,27.8c-0.4-0.4-0.5-0.8,0-1.1c0.1-0.1,0.3-0.1,0.4,0C9.6,27.1,9.4,27.6,8.9,27.8C9,27.8,8.9,27.8,8.9,27.8z
					 M149.7,54.7c-0.2,0.2-0.5,0.4-0.7,0.6c0,0.2,0,0.3,0.1,0.5c-0.3-0.1-0.4-0.2-0.7-0.3l1.2-1.3C149.6,54.4,149.7,54.6,149.7,54.7
					L149.7,54.7z M6.8,23.7c0-0.2-0.1-0.5,0-0.6c0.3-0.2,0.6-0.5,0.9-0.7l0.1,0.1c-0.1,0.3-0.3,0.7-0.5,1
					C7.2,23.7,6.9,23.7,6.8,23.7z M6.6,24.1c0.9,0.4,1.2,0.8,0.7,1.3C7,25,6.8,24.6,6.6,24.1z M9.8,39.3c0.3-0.5,0.8-0.5,1.4,0.1
					C10.6,40.2,10.2,39.4,9.8,39.3z M6.8,45.2c-0.3,0-0.5,0-0.8,0v-0.9C6.5,44.3,7,44.4,6.8,45.2L6.8,45.2z M7.8,41
					c-0.3,0.3-0.5,0.5-0.7,0.8l-0.3-0.2c0.2-0.3,0.4-0.6,0.6-0.9C7.5,40.8,7.7,40.9,7.8,41L7.8,41z M57,2.5h-1.8c0-0.1,0-0.2,0-0.2
					c0.6-0.4,1.2,0,1.8,0L57,2.5z M43.4,4.9c0.3-0.2,0.6-0.4,1.1-0.7c-0.1,0.3-0.1,0.7-0.2,0.8c-0.2,0.2-0.4,0.2-0.7,0.3
					C43.6,5.3,43.5,5.1,43.4,4.9z M171.4,9.6c-0.1,0-0.2-0.1-0.3-0.2c0.2-0.1,0.4-0.3,0.6-0.4c0.1,0,0.2,0.1,0.5,0.3
					C171.9,9.5,171.7,9.6,171.4,9.6L171.4,9.6z M58.9,7.8c0.3-0.3,0.7-0.6,1.1-0.9c0.1,0.3,0.2,0.5,0.2,0.7
					c-0.5,0.1-0.9,0.3-1.3,0.4L58.9,7.8L58.9,7.8z M5.7,10.5c-0.1,0.1-0.4,0.1-0.8,0.1c0.2-0.3,0.5-0.6,0.7-0.9c0,0,0.3,0.1,0.4,0.1
					C6,10,5.9,10.2,5.7,10.5L5.7,10.5z M61.7,70.5c0.3-0.2,0.7-0.4,1.1-0.6v0.9c-0.4,0-0.7,0-1.1-0.1C61.7,70.6,61.7,70.5,61.7,70.5
					L61.7,70.5z M188.1,27.3c0.1-0.1,0.2-0.1,0.3-0.2l0.8,0.6c-0.1,0.1-0.1,0.2-0.2,0.3l-0.8,0.2C188.2,27.9,188.1,27.6,188.1,27.3
					L188.1,27.3z M135.3,9.2c-0.2-0.2-0.3-0.4-0.4-0.5c0.2-0.1,0.3-0.2,0.5-0.2s0.3,0.2,0.4,0.3L135.3,9.2L135.3,9.2z M88.5,65.9
					c-0.1,0.4-0.1,0.8-0.2,1.2c-0.1,0-0.2,0-0.2,0.1c-0.1-0.3-0.1-0.7-0.1-1C87.9,66.1,88.2,65.9,88.5,65.9L88.5,65.9z M223.6,24.6
					h0.5l0.4,1.1C224,25.6,223.6,25.2,223.6,24.6C223.6,24.6,223.6,24.6,223.6,24.6z M185.5,34c0.1-0.4,0.1-0.8,0.2-1.2
					c0.2,0.3,0.3,0.6,0.4,0.9c0,0.2,0,0.3-0.2,0.5C185.8,34.2,185.5,34.1,185.5,34z M187.1,18.6c-0.2-0.3-0.4-0.4-0.4-0.5
					s0.2-0.2,0.3-0.4c0.1,0.1,0.3,0.2,0.4,0.4S187.3,18.4,187.1,18.6L187.1,18.6z M189.9,10.3c0.1-0.2,0.3-0.4,0.5-0.5
					c0.2,0.2,0.3,0.3,0.3,0.4c-0.2,0.1-0.3,0.3-0.5,0.3C190.1,10.5,189.9,10.3,189.9,10.3L189.9,10.3z M48.9,2.3
					c-0.3-0.2-0.5-0.4-0.8-0.6c0.1-0.1,0.2-0.2,0.3-0.3L49.1,2C49,2.1,48.9,2.2,48.9,2.3L48.9,2.3z M157.4,9.2l0.1-0.2
					c0.2,0,0.5-0.1,0.7-0.1l0.1,0.1c-0.1,0.2-0.3,0.4-0.4,0.5S157.6,9.3,157.4,9.2z M197,66.5c0.3-0.2,0.5-0.4,0.8-0.6
					c0.1,0.1,0.2,0.3,0.2,0.3c-0.2,0.2-0.5,0.4-0.7,0.7C197.2,66.7,197.1,66.6,197,66.5L197,66.5z M14.4,7.4
					c0.1-0.1,0.2-0.3,0.4-0.4c0.2-0.1,0.3-0.2,0.5-0.3c0,0.1,0.1,0.2,0.1,0.3c-0.3,0.3-0.5,0.5-0.7,0.7c-0.1,0.1-0.2,0-0.3,0
					C14.3,7.6,14.4,7.5,14.4,7.4L14.4,7.4z M191.2,19.9c-0.1,0.5-0.3,0.9-0.4,1.3h-0.1C190.4,20.9,190.5,20.5,191.2,19.9z M12.9,5
					c0.5,0.1,0.9,0.2,1.6,0.4C13.7,6,13.3,5.5,12.9,5z M157.6,55.3l-0.3-0.3c0.2-0.2,0.3-0.4,0.5-0.6c0.1,0.2,0.2,0.3,0.4,0.4
					C158,55,157.8,55.1,157.6,55.3z M165.5,57.8l-1.1-0.6c0.2-0.2,0.4-0.3,0.7-0.5C165.3,57,165.4,57.3,165.5,57.8z M90.6,68.4
					c-0.1,0.9-0.6,0.3-1.1,0.4C89.9,68.3,90.2,68.1,90.6,68.4z M154.1,49.3c0.1,0.3,0.2,0.6,0.4,0.9
					C153.6,50.3,153.6,50.3,154.1,49.3z M52.6,5.8c0.2-0.2,0.5-0.4,0.7-0.6c0.1,0.1,0.3,0.2,0.2,0.3C53.4,5.8,53.2,6.1,52.6,5.8
					L52.6,5.8z M6,22.7c0.1-0.1,0.3-0.3,0.5-0.4c0.4,0.4,0.1,0.6-0.2,0.8c-0.1,0.1-0.3,0-0.4,0C5.9,23,5.9,22.8,6,22.7L6,22.7z
					 M151.3,60.5c-0.5-0.2-0.8-0.4-1.1-0.6C150.6,59.5,150.9,59.6,151.3,60.5z M42.2,60.9c-0.5-0.2-0.9-0.4-1.3-0.7
					c-0.2-0.1,0-0.6,0-1l1.6,0.9l-0.5,0.2c0.1,0.2,0.2,0.3,0.3,0.5L42.2,60.9L42.2,60.9z M53.9,61c0.1,0.1,0.1,0.4,0.2,0.7
					c-0.2,0-0.5,0.1-0.6,0c-0.3-0.2-0.7,0-1-0.5s-0.6-0.7-0.4-1.3c0-0.3,0-0.5,0-0.8c0.4,0,0.9-0.2,0.7,0.5c0,0.1,0.1,0.2,0.2,0.3
					C53.2,60.3,53.6,60.6,53.9,61L53.9,61z M66.3,61.9c0.3,0,0.5,0.1,0.8,0.2c-0.2,0.1-0.3,0.3-0.5,0.5c-0.1,0.1-0.3,0.1-0.4,0
					c-0.1-0.1-0.2-0.2-0.2-0.3C66,62.1,66.2,61.9,66.3,61.9L66.3,61.9z M131.7,16.9l0.7,0.2c-0.1,0.9,0,0.7-1.1,0.6
					c-0.5,0-0.6,0-0.5-0.5c0-0.2,0.3-0.4,0.5-0.5S131.6,16.9,131.7,16.9L131.7,16.9z M83.5,10.6c0.2,0.5,0.3,0.9,0.5,1.4
					C82.7,11.4,82.6,11.3,83.5,10.6z M107.8,12.2h0.3c-0.3,0.5-0.3,0.8,0.6,0.9l-0.2,0.2c-0.3,0-0.7,0-0.9-0.2s-0.2-0.6-0.4-0.8
					L107.8,12.2z"/>
			</g>
		</g>
	</g>
</g>
</svg>
