<svg xmlns="http://www.w3.org/2000/svg" viewBox="0 0 477.87 351.37"><defs><style>.cls-1{fill:#2d2d2d;}</style></defs><title>Asset 6</title><g id="Layer_2" data-name="Layer 2"><g id="Layer_1-2" data-name="Layer 1"><g id="_6acf47af-d8c4-4059-9b3b-e5b8e6666b03" data-name="6acf47af-d8c4-4059-9b3b-e5b8e6666b03"><g id="_6acf47af-d8c4-4059-9b3b-e5b8e6666b03-child-1" data-name="6acf47af-d8c4-4059-9b3b-e5b8e6666b03-child-1"><path class="cls-1" d="M1.47,42.54c-14.52,63.32,80,174.24,211.16,247.77s249.23,81.82,263.77,18.5-80-174.23-211.15-247.75S16-20.75,1.47,42.54ZM264.05,66.23C368.31,124.69,441.57,221.07,427.7,281.51s-109.64,62.05-213.88,3.61S36.31,130.3,50.18,69.86,159.81,7.8,264.06,66.24Z"/></g><g id="_6acf47af-d8c4-4059-9b3b-e5b8e6666b03-child-2" data-name="6acf47af-d8c4-4059-9b3b-e5b8e6666b03-child-2"><path class="cls-1" d="M75.8,84.22c-11.47,49.94,52.28,131.38,142.38,181.9s172.45,51,183.9,1S349.8,135.77,259.7,85.25,87.26,34.28,75.8,84.22Zm182.79,5.86c71,39.81,119.78,110.41,108.92,157.69S290.3,301.1,219.29,261.29,99.51,150.88,110.36,103.6,187.58,50.26,258.59,90.08Z"/></g><g id="_6acf47af-d8c4-4059-9b3b-e5b8e6666b03-child-3" data-name="6acf47af-d8c4-4059-9b3b-e5b8e6666b03-child-3"><path class="cls-1" d="M223.54,242.76C280,274.39,332.58,270,341.08,233s-30.33-92.72-86.74-124.34-109-27.24-117.54,9.81S167.13,211.13,223.54,242.76Zm29.84-130c44,24.69,73.28,72.87,65.3,107.6s-50.14,42.88-94.18,18.19S151.22,165.71,159.2,131,209.34,88.1,253.38,112.79Z"/></g></g></g></g></svg>