<svg xmlns="http://www.w3.org/2000/svg" viewBox="0 0 136.26 135.94"><defs><style>.cls-1{fill:#010101;}</style></defs><title>Asset 209mdpi</title><g id="Layer_2" data-name="Layer 2"><g id="Layer_1-2" data-name="Layer 1"><path class="cls-1" d="M34.08.15l0,.21,0,.22L32.72,8,21.57,6l0,.26L32.68,8.24,30,23.47,18.88,21.53l0,.26L30,23.73,27.34,39,16.19,37l-.05.26L27.3,39.22,24.65,54.46,13.5,52.52l-.05.26L24.6,54.72l-1.28,7.4,0,.21,0,.22L22,70,10.81,68l-.05.26,11.15,1.94L19.27,85.44,8.12,83.51l0,.25L19.22,85.7l-2.64,15.24L5.43,99l0,.26,11.15,1.93-2.64,15.24L2.74,114.49l-.05.26,11.15,1.94-1.28,7.4,0,.21,0,.22-1.28,7.4L0,130l0,.26,11.15,1.94-.65,3.76.28-.1.63-3.62,6.26,1.09.49-.18L11.45,132l1.29-7.41,0-.21,0-.22,1.29-7.4,15.23,2.65-1.28,7.4,0,.21,0,.22-.43,2.48.29-.11.4-2.33,0-.21,0-.22,1.28-7.4,7.4,1.29.22,0,.21,0,7.41,1.29-.24,1.36.28-.1.21-1.22,2.11.37.49-.18-2.55-.45,2.65-15.23L63,109.27l-1.37,7.91.28-.11,1.35-7.76,13.45,2.34.49-.18-13.9-2.42L66,93.82l15.23,2.64-2.51,14.46.29-.1,2.48-14.31,15.24,2.64-1,5.52.28-.1.93-5.37,7.41,1.28.21,0,.22,0,1.46.25.49-.18-1.91-.33-.21,0-.22,0L97,98.94l2.65-15.23L107,85l.21,0,.22,0,7.4,1.28-2.1,12.07.29-.11,2.07-11.91L130.36,89l-.54,3.12.28-.1.52-3,5.15.89.49-.18-5.59-1,1.24-7.19-.23-.19-1.27,7.33-15.24-2.64,1.29-7.4,0-.22,0-.21,1.29-7.41,1.55.27-.4-.33-1.11-.19L118,70l-.23-.2-.13.79-7.41-1.28-.21,0-.22,0L102.37,68,104,58.37l-.24-.19-1.69,9.73L86.88,65.26,89.52,50l5.71,1-.4-.33-5.26-.92.53-3-.24-.2-.55,3.19L74.08,47.08l2.08-12-.24-.19L73.82,47,58.58,44.39l2.65-15.23,9.86,1.71-.41-.34L61.27,28.9l.95-5.44L62,23.27l-1,5.58-7.41-1.28-.21,0-.22,0-7.4-1.28,2.5-14.38-.23-.19L45.52,26.16,30.29,23.52,32.94,8.28l14,2.43-.4-.33L33,8,34.27.62l0-.21,0-.22h0L34.11,0ZM27.6,39l2.64-15.24,15.24,2.65L42.83,41.66ZM24.91,54.5l2.64-15.23,15.24,2.64L40.14,57.15ZM22.22,70l1.28-7.4,0-.21,0-.22,1.28-7.4L40.1,57.41l-1.29,7.4,0,.21,0,.22-1.29,7.4Zm15.49,2.7L39,65.28l0-.21,0-.22,1.29-7.4,7.4,1.29.21,0,.22,0,7.4,1.29L54.3,67.5l0,.21,0,.22-1.29,7.4-7.4-1.28-.21,0-.22,0Zm46.48,8.07,1.28-7.4,0-.22,0-.21,1.28-7.41,15.24,2.65-1.29,7.4,0,.22,0,.21-1.29,7.4Zm1.1-7.88,0,.22,0,.21-1.28,7.4L68.69,78.07,70,70.66l0-.21,0-.22,1.29-7.4,15.23,2.65ZM69.8,70.19l0,.21,0,.22L68.44,78,53.2,75.38,54.49,68l0-.21,0-.22,1.29-7.4,15.23,2.65ZM19.53,85.49l2.64-15.24L37.41,72.9,34.76,88.13ZM35,88.18l2.64-15.24,7.41,1.29.21,0,.22,0,7.4,1.29L50.25,90.82l-7.4-1.28-.21,0-.22,0Zm31,5.38,2.65-15.24L83.88,81,81.24,96.21Zm-.25,0L50.51,90.87l2.65-15.24,15.23,2.65ZM16.84,101l2.64-15.23,15.24,2.64-2.65,15.24Zm15.49,2.69L35,88.44l7.41,1.28.21,0,.22,0,7.4,1.28-2.65,15.24L40.16,105,40,105l-.22,0Zm-18.19,12.8,2.65-15.23L32,103.88l-2.65,15.24Zm26-11.18,7.4,1.28-2.65,15.24-7.4-1.29-.22,0-.21,0-7.4-1.29,2.64-15.23,7.41,1.28.21,0ZM63.06,109l-15.24-2.65,2.65-15.23L65.7,93.77ZM96.73,98.9,81.5,96.25,84.14,81l15.24,2.64Zm13.21-29.36.22,0,7.4,1.29-1.28,7.4,0,.22,0,.21-1.28,7.4-7.41-1.28-.21,0-.22,0-7.4-1.28,1.29-7.4,0-.22,0-.21,1.29-7.41,7.4,1.29ZM89.27,50,86.62,65.22,71.39,62.57,74,47.34Zm-15.5-2.7L71.13,62.53,55.89,59.88l2.65-15.23Zm-22.89-4,7.4,1.28L55.63,59.84l-7.4-1.29-.21,0-.22,0-7.4-1.29L43.05,42l7.4,1.28.21,0Zm2.47-15.53.22,0L61,29.11,58.33,44.35l-7.41-1.29-.21,0-.22,0-7.4-1.29,2.65-15.23,7.4,1.28Z"/></g></g></svg>