<svg xmlns="http://www.w3.org/2000/svg" viewBox="0 0 623.5 405.63"><defs><style>.cls-1{fill:#241c17;}</style></defs><title>Asset 61</title><g id="Layer_2" data-name="Layer 2"><g id="Layer_1-2" data-name="Layer 1"><g id="f2d8421f-a7f5-4578-a565-70f7c7c5a83e"><g id="f2d8421f-a7f5-4578-a565-70f7c7c5a83e-child-0"><path class="cls-1" d="M75.52,291.12c1.09,2.28,21.32-5.16,45.18-16.6S163,252,161.93,249.69s-21.31,5.16-45.17,16.6S74.43,288.85,75.52,291.12Z"/></g></g><g id="_2f1a03ce-ba06-4676-8c82-ccd13d9ca135" data-name="2f1a03ce-ba06-4676-8c82-ccd13d9ca135"><g id="_2f1a03ce-ba06-4676-8c82-ccd13d9ca135-child-0" data-name="2f1a03ce-ba06-4676-8c82-ccd13d9ca135-child-0"><path class="cls-1" d="M74.42,80.58c-.77,2.4,19.06,10.86,44.27,18.89s46.28,12.59,47,10.19-19-10.86-44.27-18.89S75.18,78.18,74.42,80.58Z"/></g></g><g id="c0ac965b-367e-45c6-a0a0-1a416c3f09f6"><g id="c0ac965b-367e-45c6-a0a0-1a416c3f09f6-child-0"><path class="cls-1" d="M87.06,114c-.31,2.5,15.27,6.5,34.8,8.93s35.62,2.38,35.93-.12-15.27-6.5-34.8-8.93S87.38,111.53,87.06,114Z"/></g></g><g id="e75fc3d6-b365-4806-a148-84f9966c6558"><g id="e75fc3d6-b365-4806-a148-84f9966c6558-child-0"><path class="cls-1" d="M0,101.35c-.36,2.49,17.4,7.11,39.68,10.31s40.62,3.76,41,1.27S63.26,105.82,41,102.62.36,98.85,0,101.35Z"/></g></g><g id="_66f4b7ad-e0bb-4f91-9d38-529357ffe1a3" data-name="66f4b7ad-e0bb-4f91-9d38-529357ffe1a3"><g id="_66f4b7ad-e0bb-4f91-9d38-529357ffe1a3-child-0" data-name="66f4b7ad-e0bb-4f91-9d38-529357ffe1a3-child-0"><path class="cls-1" d="M26.44,261c.87,2.37,28.83-5.83,62.44-18.29S149,218.17,148.16,215.8s-28.84,5.83-62.45,18.3S25.56,258.59,26.44,261Z"/></g></g><g id="_5223ab91-f7d6-4b24-aac7-1c62ebbdbc69" data-name="5223ab91-f7d6-4b24-aac7-1c62ebbdbc69"><g id="_5223ab91-f7d6-4b24-aac7-1c62ebbdbc69-child-0" data-name="5223ab91-f7d6-4b24-aac7-1c62ebbdbc69-child-0"><path class="cls-1" d="M35.81,307.18c.69,1.68,9.73-.45,20.18-4.76s18.37-9.17,17.67-10.84-9.72.45-20.18,4.76S35.12,305.5,35.81,307.18Z"/></g></g><g id="_87d2eee6-688b-4a24-9a0a-74bafea0eaba" data-name="87d2eee6-688b-4a24-9a0a-74bafea0eaba"><g id="_87d2eee6-688b-4a24-9a0a-74bafea0eaba-child-0" data-name="87d2eee6-688b-4a24-9a0a-74bafea0eaba-child-0"><path class="cls-1" d="M120.3,68.5c-1.28,2.79,9.93,10.66,25,17.59s28.4,10.28,29.67,7.49S165.08,82.92,150,76,121.57,65.72,120.3,68.5Z"/></g></g><g id="_44dfe780-dcf3-4e9c-afa5-b8cda8158a69" data-name="44dfe780-dcf3-4e9c-afa5-b8cda8158a69"><g id="_44dfe780-dcf3-4e9c-afa5-b8cda8158a69-child-0" data-name="44dfe780-dcf3-4e9c-afa5-b8cda8158a69-child-0"><path class="cls-1" d="M133.8,46.28c-1.17,2.14,6.88,8.79,18,14.86s21,9.24,22.21,7.11-6.88-8.79-18-14.86S135,44.14,133.8,46.28Z"/></g></g><g id="d63435f9-610d-4d28-8bbc-e9387559a143"><g id="d63435f9-610d-4d28-8bbc-e9387559a143-child-0"><path class="cls-1" d="M154.43,32.85c-1,1.64,6.81,8.11,17.41,14.45s20,10.16,21,8.52S186,47.71,175.39,41.36,155.41,31.21,154.43,32.85Z"/></g></g><g id="ff156f23-d66d-4255-88d1-031f789bd70e"><g id="ff156f23-d66d-4255-88d1-031f789bd70e-child-0"><path class="cls-1" d="M191.17,13.58c-.95,1.12,1.21,4.52,4.83,7.6s7.32,4.68,8.27,3.57-1.21-4.52-4.83-7.61S192.12,12.46,191.17,13.58Z"/></g></g><g id="_7518696a-0b88-4fd8-b6bc-b87056287a9d" data-name="7518696a-0b88-4fd8-b6bc-b87056287a9d"><g id="_7518696a-0b88-4fd8-b6bc-b87056287a9d-child-0" data-name="7518696a-0b88-4fd8-b6bc-b87056287a9d-child-0"><path class="cls-1" d="M516.55,71.16c1.05,2.29-8.16,8.75-20.56,14.43S472.68,94,471.63,91.74s8.16-8.75,20.56-14.43S515.5,68.87,516.55,71.16Z"/></g></g><g id="b02eee8e-2ffc-4530-90ab-56171ee81d57"><g id="b02eee8e-2ffc-4530-90ab-56171ee81d57-child-0"><path class="cls-1" d="M498.31,54c1,1.85-6,7.61-15.57,12.86s-18.23,8-19.24,6.16,6-7.61,15.57-12.86S497.3,52.1,498.31,54Z"/></g></g><g id="f485c054-6ad7-4f62-8bc9-42ce0018bc0e"><g id="f485c054-6ad7-4f62-8bc9-42ce0018bc0e-child-0"><path class="cls-1" d="M479.61,42.13c.71,1.19-5,5.92-12.72,10.56s-14.6,7.42-15.32,6.22,5-5.93,12.72-10.56S478.89,40.93,479.61,42.13Z"/></g></g><g id="_2769ef3a-a330-4829-a8b2-74eb048188ed" data-name="2769ef3a-a330-4829-a8b2-74eb048188ed"><g id="_2769ef3a-a330-4829-a8b2-74eb048188ed-child-0" data-name="2769ef3a-a330-4829-a8b2-74eb048188ed-child-0"><path class="cls-1" d="M434.12,14.39c.85,1-1.09,4.07-4.35,6.84s-6.6,4.22-7.45,3.21,1.09-4.07,4.35-6.84S433.26,13.38,434.12,14.39Z"/></g></g><g id="_62283ac3-5362-483d-b00a-e51108dbe74b" data-name="62283ac3-5362-483d-b00a-e51108dbe74b"><g id="_62283ac3-5362-483d-b00a-e51108dbe74b-child-0" data-name="62283ac3-5362-483d-b00a-e51108dbe74b-child-0"><path class="cls-1" d="M465.15,30.32c.93,1.25-2.2,5.15-7,8.71s-9.42,5.44-10.35,4.19,2.19-5.15,7-8.71S464.22,29.07,465.15,30.32Z"/></g></g><g id="_0ebdddc7-85fb-4af4-a320-a6b6609f5ddb" data-name="0ebdddc7-85fb-4af4-a320-a6b6609f5ddb"><g id="_0ebdddc7-85fb-4af4-a320-a6b6609f5ddb-child-0" data-name="0ebdddc7-85fb-4af4-a320-a6b6609f5ddb-child-0"><path class="cls-1" d="M419.12,5.43c.91.88-.93,4.26-4.12,7.54s-6.51,5.22-7.42,4.34.94-4.26,4.12-7.54S418.21,4.55,419.12,5.43Z"/></g></g><g id="ffa3a983-cf30-47f1-81c3-c6857711c50d"><g id="ffa3a983-cf30-47f1-81c3-c6857711c50d-child-0"><path class="cls-1" d="M404.27.49c.92.7-.19,3.69-2.49,6.68S396.89,12,396,11.29s.19-3.7,2.48-6.68S403.35-.22,404.27.49Z"/></g></g><g id="_2df7b83a-e17e-4229-8ea3-96fb05c43852" data-name="2df7b83a-e17e-4229-8ea3-96fb05c43852"><g id="_2df7b83a-e17e-4229-8ea3-96fb05c43852-child-0" data-name="2df7b83a-e17e-4229-8ea3-96fb05c43852-child-0"><path class="cls-1" d="M175.18,22.08c-1.1,1.47,2.59,6.07,8.23,10.27s11.1,6.41,12.2,4.94S193,31.22,187.38,27,176.28,20.61,175.18,22.08Z"/></g></g><g id="_47a99ca2-5dfd-475a-abf4-f3b4927eb70f" data-name="47a99ca2-5dfd-475a-abf4-f3b4927eb70f"><g id="_47a99ca2-5dfd-475a-abf4-f3b4927eb70f-child-0" data-name="47a99ca2-5dfd-475a-abf4-f3b4927eb70f-child-0"><path class="cls-1" d="M208,6.29c-.91.89.93,4.26,4.12,7.54s6.5,5.23,7.41,4.34-.93-4.26-4.12-7.54S208.89,5.41,208,6.29Z"/></g></g><g id="_209f04d9-c2ec-4508-aaed-bf60e523a10c" data-name="209f04d9-c2ec-4508-aaed-bf60e523a10c"><g id="_209f04d9-c2ec-4508-aaed-bf60e523a10c-child-0" data-name="209f04d9-c2ec-4508-aaed-bf60e523a10c-child-0"><path class="cls-1" d="M225.37.15c-.92.71.19,3.7,2.49,6.68s4.89,4.83,5.81,4.12-.19-3.7-2.48-6.68S226.29-.56,225.37.15Z"/></g></g><g id="f773b741-5140-4d52-943a-1b7ca19683a1"><g id="f773b741-5140-4d52-943a-1b7ca19683a1-child-0"><path class="cls-1" d="M446.8,21.59c.93,1-1.44,4.69-5.28,8.25s-7.71,5.61-8.64,4.61,1.44-4.69,5.28-8.25S445.87,20.59,446.8,21.59Z"/></g></g><g id="b8e84922-2a15-40e4-ab03-763618606c25"><g id="b8e84922-2a15-40e4-ab03-763618606c25-child-0"><path class="cls-1" d="M545.4,92c-.88-2.75-20.89,1.23-44.7,8.89S458.32,117,459.2,119.71s20.9-1.24,44.7-8.9S546.28,94.73,545.4,92Z"/></g></g><g id="cc826344-c9fe-4f68-8774-0e37392e6c32"><g id="cc826344-c9fe-4f68-8774-0e37392e6c32-child-0"><path class="cls-1" d="M563.33,85.38c.39,1.2-2.81,3.33-7.16,4.74s-8.19,1.59-8.59.38,2.82-3.33,7.17-4.75S562.94,84.17,563.33,85.38Z"/></g></g><g id="_5bdada18-5d0f-4c01-aba4-a760ddc8d62f" data-name="5bdada18-5d0f-4c01-aba4-a760ddc8d62f"><g id="_5bdada18-5d0f-4c01-aba4-a760ddc8d62f-child-0" data-name="5bdada18-5d0f-4c01-aba4-a760ddc8d62f-child-0"><path class="cls-1" d="M623.47,87.27c-.88-2.74-20.89,1.24-44.69,8.89S536.4,112.25,537.28,115s20.89-1.24,44.69-8.89S624.36,90,623.47,87.27Z"/></g></g><g id="aa7a34dd-b88e-410d-bc3c-d18d48d1602c"><g id="aa7a34dd-b88e-410d-bc3c-d18d48d1602c-child-0"><path class="cls-1" d="M534,115.42c.39,1.51-4,4-9.76,5.44s-10.77,1.48-11.16,0,4-3.94,9.75-5.44S533.62,113.92,534,115.42Z"/></g></g><g id="_02c761ac-a825-4470-bfa2-7ebabb02aaaf" data-name="02c761ac-a825-4470-bfa2-7ebabb02aaaf"><g id="_02c761ac-a825-4470-bfa2-7ebabb02aaaf-child-0" data-name="02c761ac-a825-4470-bfa2-7ebabb02aaaf-child-0"><path class="cls-1" d="M452.84,269.81c.88-2.37,28.84,5.82,62.45,18.29s60.15,24.49,59.27,26.86-28.83-5.83-62.44-18.3S452,272.17,452.84,269.81Z"/></g></g><g id="d61815c4-1da4-4756-a53c-9abad70c4b47"><g id="d61815c4-1da4-4756-a53c-9abad70c4b47-child-0"><path class="cls-1" d="M596.2,264c-.59,2.82-20.91,1-45.38-4.17S507,248.22,507.58,245.4s20.91-1,45.38,4.17S596.79,261.14,596.2,264Z"/></g></g><g id="_9b67ece0-910a-477d-835d-6ffcd5bd3a2e" data-name="9b67ece0-910a-477d-835d-6ffcd5bd3a2e"><g id="_9b67ece0-910a-477d-835d-6ffcd5bd3a2e-child-0" data-name="9b67ece0-910a-477d-835d-6ffcd5bd3a2e-child-0"><path class="cls-1" d="M504.91,244.22c.59-2.45-9.67-7.05-22.93-10.27s-24.48-3.86-25.08-1.41,9.67,7,22.93,10.27S504.31,246.66,504.91,244.22Z"/></g></g><g id="c8e0a675-2336-49a1-b5f0-4f21cfbd7ea5"><g id="c8e0a675-2336-49a1-b5f0-4f21cfbd7ea5-child-0"><path class="cls-1" d="M439.9,299.3c1.22-2.78,16.8,1.41,34.8,9.35s31.59,16.62,30.36,19.4-16.8-1.41-34.8-9.35S438.67,302.08,439.9,299.3Z"/></g></g><g id="ac69e072-82ca-4045-b60b-3780e9222800"><g id="ac69e072-82ca-4045-b60b-3780e9222800-child-0"><path class="cls-1" d="M98,327.76c-1.56-2.64,8.78-11.63,23.09-20.08s27.18-13.16,28.74-10.52-8.78,11.63-23.09,20.08S99.56,330.4,98,327.76Z"/></g></g><g id="c6be80b4-0842-4f51-99cf-aba767eccb14"><g id="c6be80b4-0842-4f51-99cf-aba767eccb14-child-0"><path class="cls-1" d="M143.81,388.35C142.15,386.8,154,371.42,170.19,354s30.73-30.29,32.39-28.74-10.15,16.92-26.38,34.34S145.47,389.89,143.81,388.35Z"/></g></g><g id="faa500da-3f98-4258-a40a-9811e3018ed6"><g id="faa500da-3f98-4258-a40a-9811e3018ed6-child-0"><path class="cls-1" d="M132.75,353.12c-1.61-1.84,5.17-10.39,15.15-19.09s19.35-14.26,21-12.42-5.18,10.38-15.15,19.08S134.35,355,132.75,353.12Z"/></g></g><g id="_252d21a9-9415-46b2-a0d8-2b2f39431b1f" data-name="252d21a9-9415-46b2-a0d8-2b2f39431b1f"><g id="_252d21a9-9415-46b2-a0d8-2b2f39431b1f-child-0" data-name="252d21a9-9415-46b2-a0d8-2b2f39431b1f-child-0"><path class="cls-1" d="M191.24,387.67c-1.16-.9.29-4.66,3.22-8.4s6.25-6,7.4-5.13-.29,4.66-3.22,8.4S192.39,388.58,191.24,387.67Z"/></g></g><g id="_0a1c7750-9bd5-47a4-8c4f-2be8bd9ca425" data-name="0a1c7750-9bd5-47a4-8c4f-2be8bd9ca425"><g id="_0a1c7750-9bd5-47a4-8c4f-2be8bd9ca425-child-0" data-name="0a1c7750-9bd5-47a4-8c4f-2be8bd9ca425-child-0"><path class="cls-1" d="M160.83,398.15c-1.37-1.23,1.33-6.46,6-11.7s9.61-8.48,11-7.26-1.34,6.47-6,11.7S162.19,399.37,160.83,398.15Z"/></g></g><g id="_46035961-6011-4301-96db-d62468563d76" data-name="46035961-6011-4301-96db-d62468563d76"><g id="_46035961-6011-4301-96db-d62468563d76-child-0" data-name="46035961-6011-4301-96db-d62468563d76-child-0"><path class="cls-1" d="M177.91,405.46c-1-.8.54-4.32,3.42-7.88s6-5.79,7-5-.54,4.33-3.42,7.88S178.89,406.26,177.91,405.46Z"/></g></g><g id="_79fcf14e-8d4c-4a16-ab48-d5ebf19c1a15" data-name="79fcf14e-8d4c-4a16-ab48-d5ebf19c1a15"><g id="_79fcf14e-8d4c-4a16-ab48-d5ebf19c1a15-child-0" data-name="79fcf14e-8d4c-4a16-ab48-d5ebf19c1a15-child-0"><path class="cls-1" d="M478,351.39c-1,1.76,4.93,7.19,13.32,12.14s16,7.55,17.06,5.79-4.93-7.19-13.32-12.14S479,349.64,478,351.39Z"/></g></g><g id="a7d52047-a157-4a5a-95ed-4a5e3bdc0d39"><g id="a7d52047-a157-4a5a-95ed-4a5e3bdc0d39-child-0"><path class="cls-1" d="M439.8,353.61c-.79,1,1.51,4.09,5.11,6.9s7.16,4.28,7.94,3.28-1.51-4.09-5.11-6.9S440.58,352.61,439.8,353.61Z"/></g></g><g id="bb87d663-4f82-4685-98e3-d16fb0c5f22e"><g id="bb87d663-4f82-4685-98e3-d16fb0c5f22e-child-0"><path class="cls-1" d="M453.35,385.3c-1.05,1.5,2.76,6,8.52,10s11.28,6.09,12.33,4.58-2.76-6-8.52-10S454.4,383.8,453.35,385.3Z"/></g></g><g id="_6c935349-fc3e-4e6c-b011-4f5b7ea12578" data-name="6c935349-fc3e-4e6c-b011-4f5b7ea12578"><g id="_6c935349-fc3e-4e6c-b011-4f5b7ea12578-child-0" data-name="6c935349-fc3e-4e6c-b011-4f5b7ea12578-child-0"><path class="cls-1" d="M460.2,367c-1.43,1.79,3.23,7.91,10.41,13.69s14.17,9,15.61,7.22S483,380,475.81,374.23,461.64,365.22,460.2,367Z"/></g></g><g id="_917b71c4-3b25-460d-98d3-f49b8b0b1bf9" data-name="917b71c4-3b25-460d-98d3-f49b8b0b1bf9"><g id="_917b71c4-3b25-460d-98d3-f49b8b0b1bf9-child-0" data-name="917b71c4-3b25-460d-98d3-f49b8b0b1bf9-child-0"><path class="cls-1" d="M432.55,322.56c-1.22,1.91,6.91,9.27,18.16,16.45s21.35,11.46,22.57,9.55-6.92-9.27-18.16-16.45S433.76,320.66,432.55,322.56Z"/></g></g></g></g></svg>