<svg xmlns="http://www.w3.org/2000/svg" viewBox="0 0 98.39 80.8"><defs><style>.cls-1{fill:#010101;}</style></defs><title>Asset 217mdpi</title><g id="Layer_2" data-name="Layer 2"><g id="Layer_1-2" data-name="Layer 1"><path class="cls-1" d="M3.45,72.79c-.35-.31-.7-.6-1-.92s0-.31.15-.42c1.18-1.34,2.37-2.66,3.55-4S8.69,64.6,10,63.15c.24-.28.38-.28.65,0,.9.83.91.81.11,1.71Q7.3,68.67,3.87,72.52C3.76,72.64,3.69,72.88,3.45,72.79Z"/><path class="cls-1" d="M33.25,45.17c1.71.69,3.4,1.47,5.12,2.14.3.12.38.26.22.55a3.24,3.24,0,0,0-.27.6c-.12.45-.32.52-.76.32q-5-2.13-9.92-4.23c-.35-.14-.44-.27-.28-.64.48-1.09.46-1.09,1.57-.64Z"/><path class="cls-1" d="M83.64,29.58l.21-.16c.23-.16.48-.3.7-.48s.44-.19.65.12q3,4.56,6.13,9.09c.18.27.2.42-.11.58s-.67.66-1,.59-.49-.59-.72-.93Q86.66,34.22,83.85,30C83.76,29.91,83.6,29.8,83.64,29.58Z"/><path class="cls-1" d="M1.15,56.16,1,56.09c-1.26-.58-1.26-.58-.56-1.75Q3.07,50,5.65,45.65c.21-.36.38-.38.72-.17,1,.62,1,.6.4,1.58Q4.19,51.38,1.6,55.7C1.48,55.88,1.45,56.24,1.15,56.16Z"/><path class="cls-1" d="M38.05,74.85l-.26.17L28.42,80.7c-.28.18-.4.12-.57-.15-.64-1-.65-1,.38-1.67,2.88-1.75,5.77-3.49,8.65-5.25.33-.2.5-.18.66.18a7.23,7.23,0,0,0,.45.76C38,74.65,38.11,74.72,38.05,74.85Z"/><path class="cls-1" d="M49.9,23.77c0-.09.07-.13.13-.13a1.21,1.21,0,0,1,.19,0c1.33,0,1.33,0,1.26,1.35-.17,3.29-.35,6.58-.51,9.87,0,.42-.13.55-.56.51-1.12-.09-1.12-.07-1.06-1.19q.26-5,.53-10.06C49.88,24,49.89,23.87,49.9,23.77Z"/><path class="cls-1" d="M74.14,20.86c-.08,0-.17.1-.27.14L63.81,25.26c-.24.11-.34.07-.45-.17-.54-1.2-.54-1.19.66-1.69q4.58-1.93,9.14-3.89c.34-.15.5-.11.6.24s.23.55.34.83C74.14,20.66,74.2,20.74,74.14,20.86Z"/><path class="cls-1" d="M50.14,54.18c.61.2.6.2.41.82-1,3.2-2,6.39-3,9.59-.1.31-.21.38-.53.28-1.1-.37-1.1-.36-.75-1.48.94-3,1.86-5.91,2.79-8.86.2-.63.19-.64.8-.44Z"/><path class="cls-1" d="M63.31,51.74c.3-.3.59-.62.9-.9s.28.09.37.18q2.16,2.11,4.31,4.24c1,1,2,1.94,3,2.89.25.25.31.39,0,.67-.79.77-.78.78-1.56,0l-6.78-6.68C63.42,52,63.22,52,63.31,51.74Z"/><path class="cls-1" d="M63.73,67.26l-.25.17q-4.42,2.63-8.86,5.27c-.25.14-.34.08-.47-.14-.62-1-.63-1,.4-1.62l7.78-4.63c.65-.38.65-.38,1,.24l.29.49C63.67,67.1,63.69,67.18,63.73,67.26Z"/><path class="cls-1" d="M88.18,9.93a.18.18,0,0,1,.23-.17l.09,0c1.23.16,1.22.16,1,1.36-.61,3-1.22,5.94-1.81,8.91-.08.39-.16.52-.59.42-1-.24-1-.21-.8-1.22.62-3,1.23-6,1.84-9Z"/><path class="cls-1" d="M34.93,65.49c-.07-.14-.11-.21-.15-.3-1.36-3.06-2.71-6.12-4.08-9.17-.11-.25-.06-.34.18-.46,1.05-.48,1-.49,1.51.56q1.84,4.16,3.71,8.31c.16.36.1.51-.26.63S35.25,65.34,34.93,65.49Z"/><path class="cls-1" d="M48.11,44.8c-.24-.11-.13-.35-.09-.51.08-.32-.15-.74.25-.95.1-.06.27,0,.41,0,3.17.25,6.33.52,9.49.75.41,0,.49.16.45.54-.1,1-.08,1-1.07.92l-9-.73Z"/><path class="cls-1" d="M70.78,32.43c.07-.22.26-.15.39-.12.36.07.77-.14,1.08.19,0,0,0,.18,0,.28-.15,3.24-.31,6.48-.45,9.73,0,.33-.12.41-.44.39-1.07,0-1.07,0-1-1.11.14-3,.27-6,.41-9Z"/><path class="cls-1" d="M22.74,60.33c-.21.29-.42.6-.66.89s-.31,0-.43-.11l-5.45-4c-.81-.59-1.61-1.19-2.42-1.77-.28-.19-.28-.33-.08-.58.63-.85.62-.86,1.49-.22l7.3,5.34C22.62,60,22.87,60,22.74,60.33Z"/><path class="cls-1" d="M87.18,47.23c.69.35.69.35.33,1.06l-3.87,7.8c-.28.56-.28.56-.8.28-.73-.38-.74-.39-.36-1.15,1.27-2.57,2.55-5.15,3.83-7.72C86.59,46.94,86.59,46.94,87.18,47.23Z"/><path class="cls-1" d="M89.48.8s0,0,0,0c.56-1,.56-1,1.5-.36C93.35,2,95.73,3.6,98.11,5.17c.31.21.36.34.14.65-.54.77-.53.79-1.35.25L89.65,1.24C89.5,1.15,89.26,1.09,89.48.8Z"/></g></g></svg>