<svg xmlns="http://www.w3.org/2000/svg" viewBox="0 0 291.29 291.29"><defs><style>.cls-1{fill:#1a1a1a;}</style></defs><title>Asset 152mdpi</title><g id="Layer_2" data-name="Layer 2"><g id="Layer_1-2" data-name="Layer 1"><path class="cls-1" d="M137.55,0a0,0,0,0,0,0,0l0,0s0,0,0,0S137.53,0,137.55,0Z"/><path class="cls-1" d="M145.64,0a0,0,0,0,0,0,0,0,0,0,0,0,0,0s0,0,0,0S145.62,0,145.64,0Z"/><path class="cls-1" d="M153.73,0a0,0,0,0,0,0,0,0,0,0,0,0,0,0s0,0,0,0S153.71,0,153.73,0Z"/><path class="cls-1" d="M161.81,0s0,0,0,0,0,0,0,0l0,0Z"/><path class="cls-1" d="M97.1,8.13l0,0,0,0,0,0Z"/><path class="cls-1" d="M105.19,8.18a.07.07,0,0,0,0-.14.07.07,0,1,0,0,.14Z"/><path class="cls-1" d="M113.28,8.25a.13.13,0,0,0,.13-.14.13.13,0,0,0-.13-.13.13.13,0,0,0-.14.13A.14.14,0,0,0,113.28,8.25Z"/><path class="cls-1" d="M121.37,8.31a.2.2,0,0,0,0-.4.2.2,0,1,0,0,.4Z"/><path class="cls-1" d="M129.46,8.38a.27.27,0,0,0,0-.54.27.27,0,0,0,0,.54Z"/><path class="cls-1" d="M137.55,8.4a.29.29,0,1,0-.3-.29A.29.29,0,0,0,137.55,8.4Z"/><path class="cls-1" d="M145.64,8.4a.29.29,0,1,0-.3-.29A.29.29,0,0,0,145.64,8.4Z"/><path class="cls-1" d="M153.73,8.4a.29.29,0,1,0-.3-.29A.29.29,0,0,0,153.73,8.4Z"/><path class="cls-1" d="M161.81,8.38a.27.27,0,1,0-.26-.27A.27.27,0,0,0,161.81,8.38Z"/><path class="cls-1" d="M169.9,8.31a.2.2,0,1,0,0-.4.2.2,0,1,0,0,.4Z"/><path class="cls-1" d="M178,8.27a.16.16,0,0,0,.16-.16A.16.16,0,0,0,178,8a.15.15,0,0,0-.15.15A.16.16,0,0,0,178,8.27Z"/><path class="cls-1" d="M186.08,8.18a.07.07,0,1,0,0-.14.07.07,0,0,0,0,.14Z"/><path class="cls-1" d="M194.17,8.13s0,0,0,0,0,0,0,0l0,0Z"/><path class="cls-1" d="M80.92,16.25a0,0,0,0,0,0-.05,0,0,0,0,0,0,0,0,0,0,0,0,0,0A0,0,0,0,0,80.92,16.25Z"/><path class="cls-1" d="M89,16.34a.13.13,0,0,0,.13-.14.13.13,0,0,0-.13-.13.13.13,0,0,0-.14.13A.14.14,0,0,0,89,16.34Z"/><path class="cls-1" d="M97.1,16.47a.27.27,0,1,0-.27-.27A.27.27,0,0,0,97.1,16.47Z"/><path class="cls-1" d="M105.19,16.58a.38.38,0,1,0-.38-.38A.38.38,0,0,0,105.19,16.58Z"/><path class="cls-1" d="M113.28,16.67a.47.47,0,1,0-.47-.47A.47.47,0,0,0,113.28,16.67Z"/><path class="cls-1" d="M121.37,16.76a.56.56,0,1,0-.56-.56A.56.56,0,0,0,121.37,16.76Z"/><path class="cls-1" d="M129.46,16.81a.61.61,0,1,0-.61-.61A.6.6,0,0,0,129.46,16.81Z"/><circle class="cls-1" cx="137.55" cy="16.2" r="0.65"/><circle class="cls-1" cx="145.64" cy="16.2" r="0.65"/><circle class="cls-1" cx="153.73" cy="16.2" r="0.65"/><path class="cls-1" d="M161.81,16.81a.61.61,0,1,0-.6-.61A.61.61,0,0,0,161.81,16.81Z"/><path class="cls-1" d="M169.9,16.76a.56.56,0,1,0-.56-.56A.56.56,0,0,0,169.9,16.76Z"/><path class="cls-1" d="M178,16.7a.5.5,0,0,0,.5-.5.5.5,0,0,0-1,0A.5.5,0,0,0,178,16.7Z"/><path class="cls-1" d="M186.08,16.61a.41.41,0,0,0,.41-.41.41.41,0,0,0-.81,0A.41.41,0,0,0,186.08,16.61Z"/><path class="cls-1" d="M194.17,16.47a.27.27,0,1,0-.27-.27A.27.27,0,0,0,194.17,16.47Z"/><path class="cls-1" d="M202.26,16.36a.16.16,0,1,0,0-.32.16.16,0,0,0,0,.32Z"/><path class="cls-1" d="M210.35,16.25a0,0,0,0,0,.05-.05,0,0,0,0,0-.05,0,0,0,0,0,0,0,0A0,0,0,0,0,210.35,16.25Z"/><path class="cls-1" d="M64.74,24.31a0,0,0,0,0,0,0,0,0,0,0,0,0,0l0,0A0,0,0,0,0,64.74,24.31Z"/><path class="cls-1" d="M72.83,24.43a.13.13,0,0,0,.13-.14.13.13,0,0,0-.13-.13.13.13,0,0,0-.14.13A.14.14,0,0,0,72.83,24.43Z"/><path class="cls-1" d="M80.92,24.58a.29.29,0,1,0-.29-.29A.29.29,0,0,0,80.92,24.58Z"/><path class="cls-1" d="M89,24.74a.45.45,0,1,0-.45-.45A.45.45,0,0,0,89,24.74Z"/><path class="cls-1" d="M97.1,24.9a.61.61,0,1,0-.61-.61A.6.6,0,0,0,97.1,24.9Z"/><path class="cls-1" d="M105.19,25a.72.72,0,1,0-.72-.72A.72.72,0,0,0,105.19,25Z"/><path class="cls-1" d="M113.28,25.12a.83.83,0,1,0-.83-.83A.83.83,0,0,0,113.28,25.12Z"/><path class="cls-1" d="M121.37,25.19a.9.9,0,1,0-.9-.9A.89.89,0,0,0,121.37,25.19Z"/><path class="cls-1" d="M129.46,25.26a1,1,0,1,0-1-1A1,1,0,0,0,129.46,25.26Z"/><path class="cls-1" d="M137.55,25.28a1,1,0,1,0-1-1A1,1,0,0,0,137.55,25.28Z"/><path class="cls-1" d="M145.64,25.3a1,1,0,1,0-1-1A1,1,0,0,0,145.64,25.3Z"/><path class="cls-1" d="M153.73,25.28a1,1,0,1,0-1-1A1,1,0,0,0,153.73,25.28Z"/><path class="cls-1" d="M161.81,25.26a1,1,0,1,0,0-1.93,1,1,0,0,0,0,1.93Z"/><path class="cls-1" d="M169.9,25.19a.9.9,0,1,0-.89-.9A.9.9,0,0,0,169.9,25.19Z"/><path class="cls-1" d="M178,25.12a.83.83,0,1,0-.83-.83A.83.83,0,0,0,178,25.12Z"/><path class="cls-1" d="M186.08,25a.72.72,0,1,0-.71-.72A.72.72,0,0,0,186.08,25Z"/><path class="cls-1" d="M194.17,24.9a.61.61,0,1,0-.6-.61A.61.61,0,0,0,194.17,24.9Z"/><path class="cls-1" d="M202.26,24.76a.47.47,0,1,0-.47-.47A.47.47,0,0,0,202.26,24.76Z"/><path class="cls-1" d="M210.35,24.61a.32.32,0,0,0,.32-.32.32.32,0,0,0-.63,0A.32.32,0,0,0,210.35,24.61Z"/><path class="cls-1" d="M218.44,24.43a.14.14,0,0,0,.14-.14.13.13,0,0,0-.14-.13.13.13,0,0,0-.13.13A.13.13,0,0,0,218.44,24.43Z"/><path class="cls-1" d="M226.53,24.31a0,0,0,0,0,0,0l0,0,0,0A0,0,0,0,0,226.53,24.31Z"/><path class="cls-1" d="M56.65,32.43a0,0,0,0,0,0,0,0,0,0,0,0,0,0,0,0,0,0,0,0,0A0,0,0,0,0,56.65,32.43Z"/><path class="cls-1" d="M64.74,32.61a.23.23,0,0,0,.22-.23.22.22,0,0,0-.22-.22.23.23,0,0,0-.23.22A.24.24,0,0,0,64.74,32.61Z"/><path class="cls-1" d="M72.83,32.81a.43.43,0,0,0,.43-.43.44.44,0,0,0-.43-.43.43.43,0,0,0-.43.43A.43.43,0,0,0,72.83,32.81Z"/><path class="cls-1" d="M80.92,33a.61.61,0,1,0-.61-.61A.6.6,0,0,0,80.92,33Z"/><path class="cls-1" d="M89,33.14a.76.76,0,1,0-.76-.76A.76.76,0,0,0,89,33.14Z"/><path class="cls-1" d="M97.1,33.3a.92.92,0,1,0-.92-.92A.92.92,0,0,0,97.1,33.3Z"/><path class="cls-1" d="M105.19,33.44a1.06,1.06,0,1,0-1.06-1.06A1.06,1.06,0,0,0,105.19,33.44Z"/><circle class="cls-1" cx="113.28" cy="32.38" r="1.17"/><path class="cls-1" d="M121.37,33.64a1.26,1.26,0,1,0-1.26-1.26A1.26,1.26,0,0,0,121.37,33.64Z"/><path class="cls-1" d="M129.46,33.7a1.32,1.32,0,1,0-1.33-1.32A1.32,1.32,0,0,0,129.46,33.7Z"/><path class="cls-1" d="M137.55,33.73a1.35,1.35,0,1,0-1.35-1.35A1.35,1.35,0,0,0,137.55,33.73Z"/><path class="cls-1" d="M145.64,33.73a1.35,1.35,0,1,0-1.35-1.35A1.35,1.35,0,0,0,145.64,33.73Z"/><path class="cls-1" d="M153.73,33.73a1.35,1.35,0,1,0-1.35-1.35A1.35,1.35,0,0,0,153.73,33.73Z"/><path class="cls-1" d="M161.81,33.7a1.32,1.32,0,1,0-1.32-1.32A1.32,1.32,0,0,0,161.81,33.7Z"/><path class="cls-1" d="M169.9,33.64a1.26,1.26,0,1,0-1.25-1.26A1.26,1.26,0,0,0,169.9,33.64Z"/><circle class="cls-1" cx="177.99" cy="32.38" r="1.17"/><path class="cls-1" d="M186.08,33.44a1.06,1.06,0,1,0,0-2.11,1.06,1.06,0,0,0,0,2.11Z"/><path class="cls-1" d="M194.17,33.32a.94.94,0,1,0-.94-.94A.95.95,0,0,0,194.17,33.32Z"/><path class="cls-1" d="M202.26,33.17a.79.79,0,0,0,.79-.79.79.79,0,1,0-.79.79Z"/><path class="cls-1" d="M210.35,33a.63.63,0,0,0,0-1.26.63.63,0,1,0,0,1.26Z"/><path class="cls-1" d="M218.44,32.83a.45.45,0,1,0-.45-.45A.45.45,0,0,0,218.44,32.83Z"/><path class="cls-1" d="M226.53,32.63a.25.25,0,1,0,0-.5.25.25,0,0,0,0,.5Z"/><path class="cls-1" d="M234.62,32.45a.07.07,0,1,0-.07-.07A.07.07,0,0,0,234.62,32.45Z"/><path class="cls-1" d="M48.56,40.54a.07.07,0,1,0-.07-.07A.07.07,0,0,0,48.56,40.54Z"/><path class="cls-1" d="M56.65,40.76a.29.29,0,1,0-.29-.29A.29.29,0,0,0,56.65,40.76Z"/><path class="cls-1" d="M64.74,41a.52.52,0,0,0,.52-.52.53.53,0,0,0-.52-.52.52.52,0,0,0-.52.52A.52.52,0,0,0,64.74,41Z"/><path class="cls-1" d="M72.83,41.19a.72.72,0,1,0-.72-.72A.72.72,0,0,0,72.83,41.19Z"/><path class="cls-1" d="M80.92,41.39a.92.92,0,1,0-.92-.92A.92.92,0,0,0,80.92,41.39Z"/><path class="cls-1" d="M89,41.57a1.1,1.1,0,1,0-1.1-1.1A1.1,1.1,0,0,0,89,41.57Z"/><path class="cls-1" d="M97.1,41.73a1.26,1.26,0,1,0-1.26-1.26A1.26,1.26,0,0,0,97.1,41.73Z"/><path class="cls-1" d="M105.19,41.86a1.39,1.39,0,1,0-1.39-1.39A1.39,1.39,0,0,0,105.19,41.86Z"/><path class="cls-1" d="M113.28,42a1.5,1.5,0,1,0-1.51-1.5A1.5,1.5,0,0,0,113.28,42Z"/><path class="cls-1" d="M121.37,42.06a1.59,1.59,0,1,0-1.6-1.59A1.59,1.59,0,0,0,121.37,42.06Z"/><path class="cls-1" d="M129.46,42.13a1.66,1.66,0,1,0-1.66-1.66A1.66,1.66,0,0,0,129.46,42.13Z"/><path class="cls-1" d="M137.55,42.18a1.71,1.71,0,1,0-1.71-1.71A1.71,1.71,0,0,0,137.55,42.18Z"/><path class="cls-1" d="M145.64,42.18a1.71,1.71,0,1,0-1.71-1.71A1.71,1.71,0,0,0,145.64,42.18Z"/><path class="cls-1" d="M153.73,42.18A1.71,1.71,0,1,0,152,40.47,1.71,1.71,0,0,0,153.73,42.18Z"/><path class="cls-1" d="M161.81,42.13a1.66,1.66,0,1,0-1.66-1.66A1.66,1.66,0,0,0,161.81,42.13Z"/><path class="cls-1" d="M169.9,42.06a1.59,1.59,0,1,0-1.59-1.59A1.6,1.6,0,0,0,169.9,42.06Z"/><path class="cls-1" d="M178,42a1.5,1.5,0,1,0-1.5-1.5A1.51,1.51,0,0,0,178,42Z"/><path class="cls-1" d="M186.08,41.86a1.39,1.39,0,1,0-1.39-1.39A1.39,1.39,0,0,0,186.08,41.86Z"/><path class="cls-1" d="M194.17,41.73a1.26,1.26,0,1,0-1.25-1.26A1.26,1.26,0,0,0,194.17,41.73Z"/><path class="cls-1" d="M202.26,41.57a1.1,1.1,0,1,0-1.1-1.1A1.1,1.1,0,0,0,202.26,41.57Z"/><path class="cls-1" d="M210.35,41.39a.92.92,0,1,0-.92-.92A.92.92,0,0,0,210.35,41.39Z"/><path class="cls-1" d="M218.44,41.21a.74.74,0,1,0-.74-.74A.74.74,0,0,0,218.44,41.21Z"/><path class="cls-1" d="M226.53,41a.54.54,0,1,0-.54-.54A.54.54,0,0,0,226.53,41Z"/><path class="cls-1" d="M234.62,40.78a.31.31,0,1,0,0-.62.31.31,0,0,0,0,.62Z"/><path class="cls-1" d="M242.71,40.56a.09.09,0,1,0-.09-.09A.09.09,0,0,0,242.71,40.56Z"/><path class="cls-1" d="M40.47,48.63a.07.07,0,1,0-.07-.07A.07.07,0,0,0,40.47,48.63Z"/><path class="cls-1" d="M48.56,48.87a.31.31,0,1,0-.31-.31A.31.31,0,0,0,48.56,48.87Z"/><path class="cls-1" d="M56.65,49.12a.56.56,0,1,0-.56-.56A.56.56,0,0,0,56.65,49.12Z"/><path class="cls-1" d="M64.74,49.35a.79.79,0,0,0,0-1.58.79.79,0,0,0,0,1.58Z"/><path class="cls-1" d="M72.83,49.57a1,1,0,1,0-1-1A1,1,0,0,0,72.83,49.57Z"/><path class="cls-1" d="M80.92,49.77a1.21,1.21,0,1,0-1.21-1.21A1.21,1.21,0,0,0,80.92,49.77Z"/><path class="cls-1" d="M89,50a1.39,1.39,0,1,0-1.39-1.39A1.39,1.39,0,0,0,89,50Z"/><path class="cls-1" d="M97.1,50.13a1.57,1.57,0,1,0-1.57-1.57A1.57,1.57,0,0,0,97.1,50.13Z"/><path class="cls-1" d="M105.19,50.27a1.71,1.71,0,1,0-1.71-1.71A1.71,1.71,0,0,0,105.19,50.27Z"/><path class="cls-1" d="M113.28,50.4a1.84,1.84,0,1,0-1.84-1.84A1.84,1.84,0,0,0,113.28,50.4Z"/><path class="cls-1" d="M121.37,50.49a1.93,1.93,0,1,0-1.93-1.93A1.93,1.93,0,0,0,121.37,50.49Z"/><path class="cls-1" d="M129.46,50.58a2,2,0,1,0-2-2A2,2,0,0,0,129.46,50.58Z"/><path class="cls-1" d="M137.55,50.62a2.06,2.06,0,1,0-2.07-2.06A2.06,2.06,0,0,0,137.55,50.62Z"/><path class="cls-1" d="M145.64,50.62a2.06,2.06,0,1,0-2.07-2.06A2.06,2.06,0,0,0,145.64,50.62Z"/><path class="cls-1" d="M153.73,50.62a2.06,2.06,0,1,0-2.07-2.06A2.06,2.06,0,0,0,153.73,50.62Z"/><path class="cls-1" d="M161.81,50.58a2,2,0,1,0-2-2A2,2,0,0,0,161.81,50.58Z"/><path class="cls-1" d="M169.9,50.51a1.95,1.95,0,1,0-2-1.95A2,2,0,0,0,169.9,50.51Z"/><path class="cls-1" d="M178,50.4a1.84,1.84,0,1,0-1.84-1.84A1.84,1.84,0,0,0,178,50.4Z"/><path class="cls-1" d="M186.08,50.29a1.73,1.73,0,1,0-1.72-1.73A1.73,1.73,0,0,0,186.08,50.29Z"/><path class="cls-1" d="M194.17,50.13a1.57,1.57,0,1,0-1.57-1.57A1.57,1.57,0,0,0,194.17,50.13Z"/><path class="cls-1" d="M202.26,50a1.41,1.41,0,1,0-1.41-1.41A1.42,1.42,0,0,0,202.26,50Z"/><path class="cls-1" d="M210.35,49.79a1.23,1.23,0,1,0-1.23-1.23A1.24,1.24,0,0,0,210.35,49.79Z"/><path class="cls-1" d="M218.44,49.59a1,1,0,1,0-1-1A1,1,0,0,0,218.44,49.59Z"/><path class="cls-1" d="M226.53,49.37a.81.81,0,1,0-.81-.81A.81.81,0,0,0,226.53,49.37Z"/><path class="cls-1" d="M234.62,49.14a.58.58,0,1,0-.58-.58A.58.58,0,0,0,234.62,49.14Z"/><path class="cls-1" d="M242.71,48.9a.34.34,0,1,0-.34-.34A.34.34,0,0,0,242.71,48.9Z"/><path class="cls-1" d="M250.8,48.65a.09.09,0,1,0-.09-.09A.09.09,0,0,0,250.8,48.65Z"/><path class="cls-1" d="M32.38,56.69a0,0,0,0,0,0,0,.05.05,0,0,0,0,0s0,0,0,0A0,0,0,0,0,32.38,56.69Z"/><path class="cls-1" d="M40.47,56.94a.29.29,0,1,0-.29-.29A.29.29,0,0,0,40.47,56.94Z"/><path class="cls-1" d="M48.56,57.21a.56.56,0,1,0-.56-.56A.56.56,0,0,0,48.56,57.21Z"/><path class="cls-1" d="M56.65,57.46a.81.81,0,1,0-.81-.81A.81.81,0,0,0,56.65,57.46Z"/><path class="cls-1" d="M64.74,57.7a1,1,0,1,0-1-1.05A1,1,0,0,0,64.74,57.7Z"/><path class="cls-1" d="M72.83,57.93a1.28,1.28,0,1,0-1.28-1.28A1.28,1.28,0,0,0,72.83,57.93Z"/><path class="cls-1" d="M80.92,58.15a1.5,1.5,0,1,0-1.5-1.5A1.5,1.5,0,0,0,80.92,58.15Z"/><path class="cls-1" d="M89,58.35a1.71,1.71,0,0,0,0-3.41,1.71,1.71,0,1,0,0,3.41Z"/><path class="cls-1" d="M97.1,58.53a1.88,1.88,0,1,0-1.89-1.88A1.88,1.88,0,0,0,97.1,58.53Z"/><path class="cls-1" d="M105.19,58.69a2,2,0,1,0-2-2A2,2,0,0,0,105.19,58.69Z"/><path class="cls-1" d="M113.28,58.83a2.18,2.18,0,1,0-2.18-2.18A2.18,2.18,0,0,0,113.28,58.83Z"/><path class="cls-1" d="M121.37,58.94a2.29,2.29,0,1,0-2.29-2.29A2.29,2.29,0,0,0,121.37,58.94Z"/><path class="cls-1" d="M129.46,59a2.36,2.36,0,1,0-2.36-2.36A2.36,2.36,0,0,0,129.46,59Z"/><path class="cls-1" d="M137.55,59.05a2.4,2.4,0,1,0-2.4-2.4A2.4,2.4,0,0,0,137.55,59.05Z"/><path class="cls-1" d="M145.64,59.07a2.42,2.42,0,1,0-2.43-2.42A2.42,2.42,0,0,0,145.64,59.07Z"/><path class="cls-1" d="M153.73,59.05a2.4,2.4,0,1,0-2.41-2.4A2.4,2.4,0,0,0,153.73,59.05Z"/><path class="cls-1" d="M161.81,59a2.36,2.36,0,1,0-2.35-2.36A2.36,2.36,0,0,0,161.81,59Z"/><path class="cls-1" d="M169.9,58.94a2.29,2.29,0,1,0-2.28-2.29A2.29,2.29,0,0,0,169.9,58.94Z"/><path class="cls-1" d="M178,58.83a2.18,2.18,0,1,0-2.17-2.18A2.18,2.18,0,0,0,178,58.83Z"/><path class="cls-1" d="M186.08,58.69a2,2,0,1,0-2-2A2,2,0,0,0,186.08,58.69Z"/><path class="cls-1" d="M194.17,58.53a1.88,1.88,0,1,0-1.88-1.88A1.89,1.89,0,0,0,194.17,58.53Z"/><path class="cls-1" d="M202.26,58.35a1.71,1.71,0,1,0-1.7-1.7A1.71,1.71,0,0,0,202.26,58.35Z"/><path class="cls-1" d="M210.35,58.18a1.53,1.53,0,1,0-1.52-1.53A1.54,1.54,0,0,0,210.35,58.18Z"/><path class="cls-1" d="M218.44,58a1.3,1.3,0,1,0-1.3-1.3A1.3,1.3,0,0,0,218.44,58Z"/><path class="cls-1" d="M226.53,57.73a1.08,1.08,0,1,0-1.08-1.08A1.08,1.08,0,0,0,226.53,57.73Z"/><path class="cls-1" d="M234.62,57.48a.83.83,0,1,0-.83-.83A.83.83,0,0,0,234.62,57.48Z"/><path class="cls-1" d="M242.71,57.23a.58.58,0,1,0-.58-.58A.58.58,0,0,0,242.71,57.23Z"/><path class="cls-1" d="M250.8,57a.31.31,0,1,0-.31-.31A.31.31,0,0,0,250.8,57Z"/><path class="cls-1" d="M258.89,56.72a.07.07,0,1,0-.07-.07A.07.07,0,0,0,258.89,56.72Z"/><path class="cls-1" d="M24.29,64.76a0,0,0,0,0,0,0,0,0,0,0,0,0,0l0,0A0,0,0,0,0,24.29,64.76Z"/><path class="cls-1" d="M32.38,65a.22.22,0,1,0,0-.44.22.22,0,1,0,0,.44Z"/><path class="cls-1" d="M40.47,65.26a.52.52,0,0,0,.52-.52.52.52,0,0,0-.52-.52.52.52,0,0,0-.52.52A.53.53,0,0,0,40.47,65.26Z"/><path class="cls-1" d="M48.56,65.52a.79.79,0,0,0,.79-.78.8.8,0,0,0-.79-.79.79.79,0,0,0-.78.79A.78.78,0,0,0,48.56,65.52Z"/><path class="cls-1" d="M56.65,65.79a1,1,0,1,0-1-1.05A1,1,0,0,0,56.65,65.79Z"/><path class="cls-1" d="M64.74,66a1.3,1.3,0,1,0-1.3-1.3A1.3,1.3,0,0,0,64.74,66Z"/><path class="cls-1" d="M72.83,66.29a1.55,1.55,0,1,0-1.55-1.55A1.56,1.56,0,0,0,72.83,66.29Z"/><path class="cls-1" d="M80.92,66.51a1.77,1.77,0,1,0-1.77-1.77A1.77,1.77,0,0,0,80.92,66.51Z"/><path class="cls-1" d="M89,66.74a2,2,0,1,0-2-2A2,2,0,0,0,89,66.74Z"/><path class="cls-1" d="M97.1,66.92a2.18,2.18,0,1,0-2.18-2.18A2.18,2.18,0,0,0,97.1,66.92Z"/><path class="cls-1" d="M105.19,67.09a2.36,2.36,0,1,0-2.36-2.35A2.35,2.35,0,0,0,105.19,67.09Z"/><path class="cls-1" d="M113.28,67.23a2.49,2.49,0,1,0-2.49-2.49A2.5,2.5,0,0,0,113.28,67.23Z"/><path class="cls-1" d="M121.37,67.36a2.63,2.63,0,1,0-2.63-2.62A2.62,2.62,0,0,0,121.37,67.36Z"/><path class="cls-1" d="M129.46,67.45a2.71,2.71,0,1,0-2.72-2.71A2.71,2.71,0,0,0,129.46,67.45Z"/><path class="cls-1" d="M137.55,67.5a2.76,2.76,0,1,0-2.76-2.76A2.76,2.76,0,0,0,137.55,67.5Z"/><path class="cls-1" d="M145.64,67.52a2.78,2.78,0,1,0-2.79-2.78A2.78,2.78,0,0,0,145.64,67.52Z"/><path class="cls-1" d="M153.73,67.5A2.76,2.76,0,1,0,151,64.74,2.76,2.76,0,0,0,153.73,67.5Z"/><path class="cls-1" d="M161.81,67.45a2.71,2.71,0,1,0-2.71-2.71A2.71,2.71,0,0,0,161.81,67.45Z"/><path class="cls-1" d="M169.9,67.36a2.63,2.63,0,1,0-2.62-2.62A2.62,2.62,0,0,0,169.9,67.36Z"/><path class="cls-1" d="M178,67.25a2.51,2.51,0,1,0-2.51-2.51A2.51,2.51,0,0,0,178,67.25Z"/><path class="cls-1" d="M186.08,67.12a2.38,2.38,0,1,0-2.37-2.38A2.38,2.38,0,0,0,186.08,67.12Z"/><path class="cls-1" d="M194.17,66.94a2.2,2.2,0,1,0-2.2-2.2A2.2,2.2,0,0,0,194.17,66.94Z"/><path class="cls-1" d="M202.26,66.76a2,2,0,1,0-2-2A2,2,0,0,0,202.26,66.76Z"/><path class="cls-1" d="M210.35,66.53a1.8,1.8,0,1,0-1.79-1.79A1.8,1.8,0,0,0,210.35,66.53Z"/><path class="cls-1" d="M218.44,66.31a1.57,1.57,0,1,0-1.57-1.57A1.57,1.57,0,0,0,218.44,66.31Z"/><path class="cls-1" d="M226.53,66.06a1.32,1.32,0,1,0-1.32-1.32A1.32,1.32,0,0,0,226.53,66.06Z"/><path class="cls-1" d="M234.62,65.82a1.08,1.08,0,1,0-1.08-1.08A1.08,1.08,0,0,0,234.62,65.82Z"/><path class="cls-1" d="M242.71,65.55a.81.81,0,1,0-.81-.81A.81.81,0,0,0,242.71,65.55Z"/><path class="cls-1" d="M250.8,65.28a.54.54,0,1,0-.54-.54A.54.54,0,0,0,250.8,65.28Z"/><path class="cls-1" d="M258.89,65a.25.25,0,1,0-.25-.25A.25.25,0,0,0,258.89,65Z"/><path class="cls-1" d="M267,64.76a0,0,0,0,0,0,0l0,0,0,0A0,0,0,0,0,267,64.76Z"/><path class="cls-1" d="M24.29,73a.13.13,0,0,0,.14-.13.14.14,0,0,0-.14-.14.13.13,0,0,0-.13.14A.13.13,0,0,0,24.29,73Z"/><path class="cls-1" d="M32.38,73.26a.43.43,0,0,0,.43-.43.43.43,0,0,0-.43-.43.43.43,0,0,0-.43.43A.44.44,0,0,0,32.38,73.26Z"/><path class="cls-1" d="M40.47,73.55a.72.72,0,1,0-.72-.72A.72.72,0,0,0,40.47,73.55Z"/><path class="cls-1" d="M48.56,73.84a1,1,0,1,0-1-1A1,1,0,0,0,48.56,73.84Z"/><path class="cls-1" d="M56.65,74.11a1.28,1.28,0,1,0-1.28-1.28A1.28,1.28,0,0,0,56.65,74.11Z"/><path class="cls-1" d="M64.74,74.38a1.55,1.55,0,1,0-1.55-1.55A1.56,1.56,0,0,0,64.74,74.38Z"/><path class="cls-1" d="M72.83,74.65A1.82,1.82,0,1,0,71,72.83,1.83,1.83,0,0,0,72.83,74.65Z"/><path class="cls-1" d="M80.92,74.87a2,2,0,1,0-2-2A2,2,0,0,0,80.92,74.87Z"/><path class="cls-1" d="M89,75.09a2.27,2.27,0,1,0-2.27-2.26A2.26,2.26,0,0,0,89,75.09Z"/><path class="cls-1" d="M97.1,75.32a2.49,2.49,0,1,0-2.49-2.49A2.5,2.5,0,0,0,97.1,75.32Z"/><path class="cls-1" d="M105.19,75.5a2.67,2.67,0,1,0-2.67-2.67A2.68,2.68,0,0,0,105.19,75.5Z"/><path class="cls-1" d="M113.28,75.66a2.83,2.83,0,1,0-2.83-2.83A2.83,2.83,0,0,0,113.28,75.66Z"/><path class="cls-1" d="M121.37,75.79a3,3,0,1,0-3-3A3,3,0,0,0,121.37,75.79Z"/><path class="cls-1" d="M129.46,75.88a3,3,0,1,0-3.05-3A3.06,3.06,0,0,0,129.46,75.88Z"/><path class="cls-1" d="M137.55,76a3.12,3.12,0,1,0-3.12-3.12A3.12,3.12,0,0,0,137.55,76Z"/><path class="cls-1" d="M145.64,76a3.12,3.12,0,1,0-3.12-3.12A3.12,3.12,0,0,0,145.64,76Z"/><path class="cls-1" d="M153.73,76a3.12,3.12,0,1,0-3.12-3.12A3.12,3.12,0,0,0,153.73,76Z"/><path class="cls-1" d="M161.81,75.88a3,3,0,1,0-3.05-3A3.06,3.06,0,0,0,161.81,75.88Z"/><path class="cls-1" d="M169.9,75.79a3,3,0,1,0-3-3A3,3,0,0,0,169.9,75.79Z"/><circle class="cls-1" cx="177.99" cy="72.83" r="2.85"/><path class="cls-1" d="M186.08,75.52a2.69,2.69,0,1,0-2.69-2.69A2.69,2.69,0,0,0,186.08,75.52Z"/><path class="cls-1" d="M194.17,75.32a2.49,2.49,0,1,0-2.49-2.49A2.49,2.49,0,0,0,194.17,75.32Z"/><path class="cls-1" d="M202.26,75.12A2.29,2.29,0,1,0,200,72.83,2.29,2.29,0,0,0,202.26,75.12Z"/><path class="cls-1" d="M210.35,74.89a2.06,2.06,0,1,0-2.06-2.06A2.07,2.07,0,0,0,210.35,74.89Z"/><path class="cls-1" d="M218.44,74.67a1.84,1.84,0,1,0-1.84-1.84A1.84,1.84,0,0,0,218.44,74.67Z"/><path class="cls-1" d="M226.53,74.4A1.57,1.57,0,1,0,225,72.83,1.57,1.57,0,0,0,226.53,74.4Z"/><path class="cls-1" d="M234.62,74.13a1.3,1.3,0,1,0-1.3-1.3A1.3,1.3,0,0,0,234.62,74.13Z"/><path class="cls-1" d="M242.71,73.86a1,1,0,1,0-1-1A1,1,0,0,0,242.71,73.86Z"/><path class="cls-1" d="M250.8,73.57a.74.74,0,1,0-.74-.74A.74.74,0,0,0,250.8,73.57Z"/><path class="cls-1" d="M258.89,73.28a.45.45,0,1,0-.45-.45A.45.45,0,0,0,258.89,73.28Z"/><path class="cls-1" d="M267,73a.16.16,0,1,0-.16-.16A.16.16,0,0,0,267,73Z"/><path class="cls-1" d="M16.2,81a0,0,0,0,0,.05,0,0,0,0,0,0-.05,0,0,0,0,0,0,0,0A0,0,0,0,0,16.2,81Z"/><path class="cls-1" d="M24.29,81.21a.29.29,0,1,0-.29-.29A.29.29,0,0,0,24.29,81.21Z"/><path class="cls-1" d="M32.38,81.52a.61.61,0,1,0-.6-.6A.6.6,0,0,0,32.38,81.52Z"/><path class="cls-1" d="M40.47,81.84a.92.92,0,1,0-.92-.92A.92.92,0,0,0,40.47,81.84Z"/><path class="cls-1" d="M48.56,82.13a1.21,1.21,0,1,0-1.21-1.21A1.21,1.21,0,0,0,48.56,82.13Z"/><path class="cls-1" d="M56.65,82.42a1.5,1.5,0,1,0-1.5-1.5A1.5,1.5,0,0,0,56.65,82.42Z"/><path class="cls-1" d="M64.74,82.69A1.77,1.77,0,1,0,63,80.92,1.77,1.77,0,0,0,64.74,82.69Z"/><path class="cls-1" d="M72.83,83a2,2,0,1,0-2-2A2,2,0,0,0,72.83,83Z"/><path class="cls-1" d="M80.92,83.23a2.31,2.31,0,1,0-2.31-2.31A2.32,2.32,0,0,0,80.92,83.23Z"/><path class="cls-1" d="M89,83.48a2.56,2.56,0,1,0-2.56-2.56A2.56,2.56,0,0,0,89,83.48Z"/><path class="cls-1" d="M97.1,83.7a2.78,2.78,0,1,0-2.78-2.78A2.79,2.79,0,0,0,97.1,83.7Z"/><path class="cls-1" d="M105.19,83.88a3,3,0,1,0-3-3A3,3,0,0,0,105.19,83.88Z"/><path class="cls-1" d="M113.28,84.06a3.14,3.14,0,1,0-3.14-3.14A3.15,3.15,0,0,0,113.28,84.06Z"/><path class="cls-1" d="M121.37,84.22a3.3,3.3,0,1,0-3.3-3.3A3.29,3.29,0,0,0,121.37,84.22Z"/><path class="cls-1" d="M129.46,84.31a3.39,3.39,0,1,0-3.39-3.39A3.38,3.38,0,0,0,129.46,84.31Z"/><path class="cls-1" d="M137.55,84.37a3.46,3.46,0,1,0-3.46-3.45A3.45,3.45,0,0,0,137.55,84.37Z"/><path class="cls-1" d="M145.64,84.4a3.48,3.48,0,1,0-3.48-3.48A3.47,3.47,0,0,0,145.64,84.4Z"/><path class="cls-1" d="M153.73,84.37a3.46,3.46,0,1,0-3.46-3.45A3.45,3.45,0,0,0,153.73,84.37Z"/><path class="cls-1" d="M161.81,84.33a3.41,3.41,0,1,0-3.41-3.41A3.41,3.41,0,0,0,161.81,84.33Z"/><path class="cls-1" d="M169.9,84.22a3.3,3.3,0,1,0-3.29-3.3A3.3,3.3,0,0,0,169.9,84.22Z"/><path class="cls-1" d="M178,84.08a3.16,3.16,0,1,0-3.16-3.16A3.16,3.16,0,0,0,178,84.08Z"/><path class="cls-1" d="M186.08,83.9a3,3,0,1,0-3-3A3,3,0,0,0,186.08,83.9Z"/><path class="cls-1" d="M194.17,83.7a2.78,2.78,0,1,0-2.78-2.78A2.78,2.78,0,0,0,194.17,83.7Z"/><path class="cls-1" d="M202.26,83.5a2.58,2.58,0,1,0-2.58-2.58A2.58,2.58,0,0,0,202.26,83.5Z"/><circle class="cls-1" cx="210.35" cy="80.92" r="2.33"/><path class="cls-1" d="M218.44,83a2.09,2.09,0,1,0-2.08-2.08A2.09,2.09,0,0,0,218.44,83Z"/><path class="cls-1" d="M226.53,82.71a1.8,1.8,0,1,0-1.79-1.79A1.8,1.8,0,0,0,226.53,82.71Z"/><path class="cls-1" d="M234.62,82.44a1.53,1.53,0,1,0-1.52-1.52A1.53,1.53,0,0,0,234.62,82.44Z"/><path class="cls-1" d="M242.71,82.15a1.24,1.24,0,1,0-1.23-1.23A1.23,1.23,0,0,0,242.71,82.15Z"/><path class="cls-1" d="M250.8,81.86a.94.94,0,1,0-.94-.94A.94.94,0,0,0,250.8,81.86Z"/><path class="cls-1" d="M258.89,81.55a.63.63,0,1,0-.63-.63A.63.63,0,0,0,258.89,81.55Z"/><path class="cls-1" d="M267,81.25a.34.34,0,1,0-.34-.33A.34.34,0,0,0,267,81.25Z"/><path class="cls-1" d="M275.07,81a0,0,0,0,0,0,0,0,0,0,0,0,0,0,0,0,0,0,0-.05,0A0,0,0,0,0,275.07,81Z"/><path class="cls-1" d="M16.2,89.14a.13.13,0,0,0,.14-.13.14.14,0,0,0-.14-.14.13.13,0,0,0-.13.14A.13.13,0,0,0,16.2,89.14Z"/><path class="cls-1" d="M24.29,89.46a.45.45,0,1,0-.45-.45A.45.45,0,0,0,24.29,89.46Z"/><path class="cls-1" d="M32.38,89.77a.76.76,0,1,0-.76-.76A.76.76,0,0,0,32.38,89.77Z"/><path class="cls-1" d="M40.47,90.11a1.1,1.1,0,1,0-1.1-1.1A1.1,1.1,0,0,0,40.47,90.11Z"/><path class="cls-1" d="M48.56,90.4A1.39,1.39,0,1,0,47.17,89,1.39,1.39,0,0,0,48.56,90.4Z"/><path class="cls-1" d="M56.65,90.71a1.71,1.71,0,0,0,0-3.41,1.71,1.71,0,1,0,0,3.41Z"/><path class="cls-1" d="M64.74,91a2,2,0,1,0-2-2A2,2,0,0,0,64.74,91Z"/><path class="cls-1" d="M72.83,91.27A2.27,2.27,0,1,0,70.56,89,2.26,2.26,0,0,0,72.83,91.27Z"/><path class="cls-1" d="M80.92,91.57A2.56,2.56,0,1,0,78.36,89,2.56,2.56,0,0,0,80.92,91.57Z"/><path class="cls-1" d="M89,91.81A2.81,2.81,0,1,0,86.2,89,2.8,2.8,0,0,0,89,91.81Z"/><path class="cls-1" d="M97.1,92.06a3.05,3.05,0,1,0-3-3A3.06,3.06,0,0,0,97.1,92.06Z"/><path class="cls-1" d="M105.19,92.28A3.28,3.28,0,1,0,101.91,89,3.26,3.26,0,0,0,105.19,92.28Z"/><path class="cls-1" d="M113.28,92.46A3.46,3.46,0,1,0,109.82,89,3.45,3.45,0,0,0,113.28,92.46Z"/><path class="cls-1" d="M121.37,92.62A3.61,3.61,0,1,0,117.75,89,3.61,3.61,0,0,0,121.37,92.62Z"/><path class="cls-1" d="M129.46,92.73A3.73,3.73,0,1,0,125.73,89,3.73,3.73,0,0,0,129.46,92.73Z"/><path class="cls-1" d="M137.55,92.82A3.82,3.82,0,1,0,133.73,89,3.82,3.82,0,0,0,137.55,92.82Z"/><path class="cls-1" d="M145.64,92.84A3.84,3.84,0,1,0,141.8,89,3.83,3.83,0,0,0,145.64,92.84Z"/><path class="cls-1" d="M153.73,92.82A3.82,3.82,0,1,0,149.91,89,3.82,3.82,0,0,0,153.73,92.82Z"/><path class="cls-1" d="M161.81,92.75A3.75,3.75,0,1,0,158.07,89,3.74,3.74,0,0,0,161.81,92.75Z"/><path class="cls-1" d="M169.9,92.64A3.64,3.64,0,1,0,166.27,89,3.63,3.63,0,0,0,169.9,92.64Z"/><path class="cls-1" d="M178,92.49A3.48,3.48,0,1,0,174.52,89,3.48,3.48,0,0,0,178,92.49Z"/><path class="cls-1" d="M186.08,92.28A3.28,3.28,0,1,0,182.81,89,3.27,3.27,0,0,0,186.08,92.28Z"/><path class="cls-1" d="M194.17,92.08A3.07,3.07,0,1,0,191.1,89,3.07,3.07,0,0,0,194.17,92.08Z"/><path class="cls-1" d="M202.26,91.83A2.83,2.83,0,1,0,199.44,89,2.83,2.83,0,0,0,202.26,91.83Z"/><path class="cls-1" d="M210.35,91.59A2.58,2.58,0,1,0,207.77,89,2.58,2.58,0,0,0,210.35,91.59Z"/><path class="cls-1" d="M218.44,91.32A2.31,2.31,0,1,0,216.13,89,2.31,2.31,0,0,0,218.44,91.32Z"/><path class="cls-1" d="M226.53,91a2,2,0,1,0-2-2A2,2,0,0,0,226.53,91Z"/><path class="cls-1" d="M234.62,90.74A1.73,1.73,0,1,0,232.89,89,1.73,1.73,0,0,0,234.62,90.74Z"/><path class="cls-1" d="M242.71,90.44A1.44,1.44,0,1,0,241.28,89,1.44,1.44,0,0,0,242.71,90.44Z"/><path class="cls-1" d="M250.8,90.13A1.12,1.12,0,1,0,249.68,89,1.12,1.12,0,0,0,250.8,90.13Z"/><path class="cls-1" d="M258.89,89.82a.81.81,0,1,0-.81-.81A.81.81,0,0,0,258.89,89.82Z"/><path class="cls-1" d="M267,89.5a.49.49,0,0,0,.49-.49.49.49,0,1,0-1,0A.49.49,0,0,0,267,89.5Z"/><path class="cls-1" d="M275.07,89.17a.16.16,0,0,0,.16-.16.16.16,0,1,0-.32,0A.16.16,0,0,0,275.07,89.17Z"/><path class="cls-1" d="M8.11,97.12a0,0,0,0,0,0,0l0,0a0,0,0,0,0,0,0A0,0,0,0,0,8.11,97.08Z"/><path class="cls-1" d="M16.2,97.37a.27.27,0,1,0-.27-.27A.27.27,0,0,0,16.2,97.37Z"/><path class="cls-1" d="M24.29,97.7a.61.61,0,1,0-.6-.6A.6.6,0,0,0,24.29,97.7Z"/><path class="cls-1" d="M32.38,98a.92.92,0,1,0-.92-.92A.92.92,0,0,0,32.38,98Z"/><path class="cls-1" d="M40.47,98.35a1.26,1.26,0,1,0-1.26-1.25A1.26,1.26,0,0,0,40.47,98.35Z"/><path class="cls-1" d="M48.56,98.67A1.57,1.57,0,1,0,47,97.1,1.57,1.57,0,0,0,48.56,98.67Z"/><path class="cls-1" d="M56.65,99a1.89,1.89,0,1,0-1.88-1.88A1.88,1.88,0,0,0,56.65,99Z"/><path class="cls-1" d="M64.74,99.27a2.18,2.18,0,1,0-2.18-2.17A2.18,2.18,0,0,0,64.74,99.27Z"/><path class="cls-1" d="M72.83,99.59a2.49,2.49,0,1,0-2.49-2.49A2.5,2.5,0,0,0,72.83,99.59Z"/><path class="cls-1" d="M80.92,99.88a2.78,2.78,0,1,0-2.78-2.78A2.79,2.79,0,0,0,80.92,99.88Z"/><path class="cls-1" d="M89,100.15A3.05,3.05,0,1,0,86,97.1,3.06,3.06,0,0,0,89,100.15Z"/><path class="cls-1" d="M97.1,100.4a3.3,3.3,0,1,0-3.3-3.3A3.3,3.3,0,0,0,97.1,100.4Z"/><path class="cls-1" d="M105.19,100.64a3.55,3.55,0,1,0-3.55-3.54A3.54,3.54,0,0,0,105.19,100.64Z"/><path class="cls-1" d="M113.28,100.84a3.75,3.75,0,1,0-3.75-3.74A3.73,3.73,0,0,0,113.28,100.84Z"/><path class="cls-1" d="M121.37,101a3.93,3.93,0,1,0-3.93-3.92A3.92,3.92,0,0,0,121.37,101Z"/><path class="cls-1" d="M129.46,101.18a4.08,4.08,0,1,0-4.09-4.08A4.08,4.08,0,0,0,129.46,101.18Z"/><path class="cls-1" d="M137.55,101.25a4.15,4.15,0,1,0-4.15-4.15A4.15,4.15,0,0,0,137.55,101.25Z"/><path class="cls-1" d="M145.64,101.29a4.2,4.2,0,1,0-4.2-4.19A4.2,4.2,0,0,0,145.64,101.29Z"/><path class="cls-1" d="M153.73,101.27a4.17,4.17,0,1,0-4.18-4.17A4.17,4.17,0,0,0,153.73,101.27Z"/><path class="cls-1" d="M161.81,101.18a4.08,4.08,0,1,0-4.08-4.08A4.09,4.09,0,0,0,161.81,101.18Z"/><path class="cls-1" d="M169.9,101.05a4,4,0,1,0-3.94-4A4,4,0,0,0,169.9,101.05Z"/><path class="cls-1" d="M178,100.87a3.77,3.77,0,1,0-3.76-3.77A3.77,3.77,0,0,0,178,100.87Z"/><path class="cls-1" d="M186.08,100.66a3.57,3.57,0,1,0-3.56-3.56A3.56,3.56,0,0,0,186.08,100.66Z"/><path class="cls-1" d="M194.17,100.42a3.32,3.32,0,1,0-3.32-3.32A3.32,3.32,0,0,0,194.17,100.42Z"/><path class="cls-1" d="M202.26,100.17a3.08,3.08,0,1,0-3.07-3.07A3.07,3.07,0,0,0,202.26,100.17Z"/><path class="cls-1" d="M210.35,99.9a2.81,2.81,0,1,0-2.8-2.8A2.8,2.8,0,0,0,210.35,99.9Z"/><path class="cls-1" d="M218.44,99.61a2.51,2.51,0,1,0-2.51-2.51A2.51,2.51,0,0,0,218.44,99.61Z"/><path class="cls-1" d="M226.53,99.32a2.22,2.22,0,1,0-2.22-2.22A2.22,2.22,0,0,0,226.53,99.32Z"/><path class="cls-1" d="M234.62,99a1.91,1.91,0,1,0-1.91-1.9A1.91,1.91,0,0,0,234.62,99Z"/><path class="cls-1" d="M242.71,98.69a1.59,1.59,0,1,0-1.59-1.59A1.59,1.59,0,0,0,242.71,98.69Z"/><path class="cls-1" d="M250.8,98.38a1.28,1.28,0,1,0-1.28-1.28A1.28,1.28,0,0,0,250.8,98.38Z"/><path class="cls-1" d="M258.89,98a.94.94,0,1,0-.94-.94A.94.94,0,0,0,258.89,98Z"/><path class="cls-1" d="M267,97.73a.63.63,0,0,0,.63-.63.63.63,0,0,0-1.26,0A.63.63,0,0,0,267,97.73Z"/><path class="cls-1" d="M275.07,97.39a.29.29,0,1,0-.29-.29A.29.29,0,0,0,275.07,97.39Z"/><path class="cls-1" d="M283.16,97.12a0,0,0,0,0,0,0,0,0,0,0,0,0,0,0,0,0,0,0,0,0A0,0,0,0,0,283.16,97.08Z"/><path class="cls-1" d="M8.11,105.25a.07.07,0,0,0,.07-.06.07.07,0,0,0-.14,0A.07.07,0,0,0,8.11,105.25Z"/><path class="cls-1" d="M16.2,105.57a.38.38,0,1,0-.38-.38A.38.38,0,0,0,16.2,105.57Z"/><path class="cls-1" d="M24.29,105.91a.72.72,0,1,0-.72-.72A.72.72,0,0,0,24.29,105.91Z"/><path class="cls-1" d="M32.38,106.24a1.06,1.06,0,1,0-1.05-1A1.06,1.06,0,0,0,32.38,106.24Z"/><path class="cls-1" d="M40.47,106.58a1.39,1.39,0,1,0-1.39-1.39A1.39,1.39,0,0,0,40.47,106.58Z"/><path class="cls-1" d="M48.56,106.89a1.71,1.71,0,1,0-1.7-1.7A1.7,1.7,0,0,0,48.56,106.89Z"/><path class="cls-1" d="M56.65,107.23a2,2,0,1,0-2-2A2,2,0,0,0,56.65,107.23Z"/><path class="cls-1" d="M64.74,107.54a2.36,2.36,0,1,0-2.36-2.35A2.35,2.35,0,0,0,64.74,107.54Z"/><path class="cls-1" d="M72.83,107.86a2.67,2.67,0,1,0-2.67-2.67A2.68,2.68,0,0,0,72.83,107.86Z"/><path class="cls-1" d="M80.92,108.15a3,3,0,1,0-3-3A3,3,0,0,0,80.92,108.15Z"/><path class="cls-1" d="M89,108.46a3.28,3.28,0,1,0-3.28-3.27A3.26,3.26,0,0,0,89,108.46Z"/><path class="cls-1" d="M97.1,108.73a3.55,3.55,0,1,0-3.55-3.54A3.54,3.54,0,0,0,97.1,108.73Z"/><path class="cls-1" d="M105.19,109a3.82,3.82,0,1,0-3.82-3.81A3.82,3.82,0,0,0,105.19,109Z"/><path class="cls-1" d="M113.28,109.23a4,4,0,1,0-4-4A4,4,0,0,0,113.28,109.23Z"/><path class="cls-1" d="M121.37,109.43a4.24,4.24,0,1,0-4.24-4.24A4.24,4.24,0,0,0,121.37,109.43Z"/><path class="cls-1" d="M129.46,109.58a4.4,4.4,0,1,0-4.4-4.39A4.39,4.39,0,0,0,129.46,109.58Z"/><path class="cls-1" d="M137.55,109.7a4.51,4.51,0,1,0-4.51-4.51A4.5,4.5,0,0,0,137.55,109.7Z"/><circle class="cls-1" cx="145.64" cy="105.19" r="4.53"/><path class="cls-1" d="M153.73,109.7a4.51,4.51,0,1,0-4.51-4.51A4.5,4.5,0,0,0,153.73,109.7Z"/><path class="cls-1" d="M161.81,109.61a4.42,4.42,0,1,0-4.41-4.42A4.42,4.42,0,0,0,161.81,109.61Z"/><path class="cls-1" d="M169.9,109.45a4.26,4.26,0,1,0-4.26-4.26A4.27,4.27,0,0,0,169.9,109.45Z"/><path class="cls-1" d="M178,109.25a4.06,4.06,0,1,0-4.06-4.06A4.06,4.06,0,0,0,178,109.25Z"/><path class="cls-1" d="M186.08,109a3.84,3.84,0,1,0-3.83-3.83A3.83,3.83,0,0,0,186.08,109Z"/><path class="cls-1" d="M194.17,108.75a3.57,3.57,0,1,0-3.56-3.56A3.56,3.56,0,0,0,194.17,108.75Z"/><path class="cls-1" d="M202.26,108.48a3.3,3.3,0,1,0-3.29-3.29A3.29,3.29,0,0,0,202.26,108.48Z"/><path class="cls-1" d="M210.35,108.19a3,3,0,1,0-3-3A3,3,0,0,0,210.35,108.19Z"/><path class="cls-1" d="M218.44,107.88a2.69,2.69,0,1,0-2.69-2.69A2.69,2.69,0,0,0,218.44,107.88Z"/><path class="cls-1" d="M226.53,107.57a2.38,2.38,0,1,0-2.38-2.38A2.39,2.39,0,0,0,226.53,107.57Z"/><path class="cls-1" d="M234.62,107.25a2.07,2.07,0,1,0-2.06-2.06A2.06,2.06,0,0,0,234.62,107.25Z"/><path class="cls-1" d="M242.71,106.94a1.75,1.75,0,1,0-1.75-1.75A1.75,1.75,0,0,0,242.71,106.94Z"/><path class="cls-1" d="M250.8,106.6a1.42,1.42,0,1,0-1.41-1.41A1.41,1.41,0,0,0,250.8,106.6Z"/><path class="cls-1" d="M258.89,106.26a1.08,1.08,0,1,0-1.08-1.07A1.08,1.08,0,0,0,258.89,106.26Z"/><path class="cls-1" d="M267,105.93a.74.74,0,1,0-.74-.74A.74.74,0,0,0,267,105.93Z"/><path class="cls-1" d="M275.07,105.59a.41.41,0,1,0-.4-.4A.4.4,0,0,0,275.07,105.59Z"/><path class="cls-1" d="M283.16,105.28a.09.09,0,1,0-.09-.09A.09.09,0,0,0,283.16,105.28Z"/><path class="cls-1" d="M8.11,113.41a.13.13,0,0,0,.14-.13.14.14,0,0,0-.14-.14.13.13,0,0,0-.13.14A.13.13,0,0,0,8.11,113.41Z"/><path class="cls-1" d="M16.2,113.75a.47.47,0,1,0-.47-.47A.47.47,0,0,0,16.2,113.75Z"/><path class="cls-1" d="M24.29,114.11a.83.83,0,1,0-.83-.83A.83.83,0,0,0,24.29,114.11Z"/><circle class="cls-1" cx="32.38" cy="113.28" r="1.17"/><path class="cls-1" d="M40.47,114.78a1.51,1.51,0,1,0-1.5-1.5A1.5,1.5,0,0,0,40.47,114.78Z"/><path class="cls-1" d="M48.56,115.12a1.84,1.84,0,1,0-1.84-1.84A1.84,1.84,0,0,0,48.56,115.12Z"/><path class="cls-1" d="M56.65,115.45a2.18,2.18,0,1,0-2.18-2.17A2.18,2.18,0,0,0,56.65,115.45Z"/><path class="cls-1" d="M64.74,115.77a2.49,2.49,0,1,0-2.49-2.49A2.5,2.5,0,0,0,64.74,115.77Z"/><path class="cls-1" d="M72.83,116.1A2.83,2.83,0,1,0,70,113.28,2.83,2.83,0,0,0,72.83,116.1Z"/><path class="cls-1" d="M80.92,116.42a3.14,3.14,0,1,0-3.14-3.14A3.15,3.15,0,0,0,80.92,116.42Z"/><path class="cls-1" d="M89,116.73a3.46,3.46,0,1,0-3.46-3.45A3.45,3.45,0,0,0,89,116.73Z"/><path class="cls-1" d="M97.1,117a3.75,3.75,0,1,0-3.75-3.74A3.73,3.73,0,0,0,97.1,117Z"/><path class="cls-1" d="M105.19,117.31a4,4,0,1,0-4-4A4,4,0,0,0,105.19,117.31Z"/><path class="cls-1" d="M113.28,117.58a4.31,4.31,0,1,0-4.31-4.3A4.29,4.29,0,0,0,113.28,117.58Z"/><circle class="cls-1" cx="121.37" cy="113.28" r="4.53"/><path class="cls-1" d="M129.46,118a4.74,4.74,0,1,0-4.74-4.73A4.73,4.73,0,0,0,129.46,118Z"/><path class="cls-1" d="M137.55,118.12a4.85,4.85,0,1,0-4.85-4.84A4.84,4.84,0,0,0,137.55,118.12Z"/><path class="cls-1" d="M145.64,118.17a4.89,4.89,0,1,0-4.89-4.89A4.89,4.89,0,0,0,145.64,118.17Z"/><path class="cls-1" d="M153.73,118.12a4.85,4.85,0,1,0-4.85-4.84A4.84,4.84,0,0,0,153.73,118.12Z"/><path class="cls-1" d="M161.81,118a4.74,4.74,0,1,0-4.73-4.73A4.74,4.74,0,0,0,161.81,118Z"/><path class="cls-1" d="M169.9,117.83a4.56,4.56,0,1,0-4.55-4.55A4.56,4.56,0,0,0,169.9,117.83Z"/><path class="cls-1" d="M178,117.61a4.33,4.33,0,1,0-4.33-4.33A4.33,4.33,0,0,0,178,117.61Z"/><path class="cls-1" d="M186.08,117.34a4.06,4.06,0,1,0-4.06-4.06A4.06,4.06,0,0,0,186.08,117.34Z"/><path class="cls-1" d="M194.17,117.07a3.79,3.79,0,1,0-3.79-3.79A3.79,3.79,0,0,0,194.17,117.07Z"/><path class="cls-1" d="M202.26,116.75a3.48,3.48,0,1,0-3.47-3.47A3.47,3.47,0,0,0,202.26,116.75Z"/><path class="cls-1" d="M210.35,116.44a3.17,3.17,0,1,0-3.16-3.16A3.17,3.17,0,0,0,210.35,116.44Z"/><circle class="cls-1" cx="218.44" cy="113.28" r="2.85"/><path class="cls-1" d="M226.53,115.81a2.54,2.54,0,1,0-2.53-2.53A2.54,2.54,0,0,0,226.53,115.81Z"/><path class="cls-1" d="M234.62,115.48a2.2,2.2,0,1,0-2.2-2.2A2.2,2.2,0,0,0,234.62,115.48Z"/><path class="cls-1" d="M242.71,115.14a1.86,1.86,0,1,0-1.86-1.86A1.86,1.86,0,0,0,242.71,115.14Z"/><path class="cls-1" d="M250.8,114.8a1.53,1.53,0,1,0-1.53-1.52A1.53,1.53,0,0,0,250.8,114.8Z"/><path class="cls-1" d="M258.89,114.47a1.19,1.19,0,1,0-1.19-1.19A1.19,1.19,0,0,0,258.89,114.47Z"/><path class="cls-1" d="M267,114.13a.85.85,0,0,0,.85-.85.85.85,0,1,0-1.7,0A.85.85,0,0,0,267,114.13Z"/><path class="cls-1" d="M275.07,113.79a.52.52,0,1,0-.52-.51A.51.51,0,0,0,275.07,113.79Z"/><path class="cls-1" d="M283.16,113.46a.18.18,0,1,0-.18-.18A.18.18,0,0,0,283.16,113.46Z"/><path class="cls-1" d="M8.11,121.57a.2.2,0,0,0,.2-.2.2.2,0,1,0-.4,0A.2.2,0,0,0,8.11,121.57Z"/><path class="cls-1" d="M16.2,121.93a.56.56,0,1,0-.56-.56A.56.56,0,0,0,16.2,121.93Z"/><path class="cls-1" d="M24.29,122.26a.9.9,0,1,0-.9-.89A.89.89,0,0,0,24.29,122.26Z"/><path class="cls-1" d="M32.38,122.62a1.26,1.26,0,1,0-1.26-1.25A1.26,1.26,0,0,0,32.38,122.62Z"/><path class="cls-1" d="M40.47,123a1.6,1.6,0,1,0-1.59-1.59A1.59,1.59,0,0,0,40.47,123Z"/><path class="cls-1" d="M48.56,123.3a1.93,1.93,0,1,0-1.93-1.93A1.93,1.93,0,0,0,48.56,123.3Z"/><path class="cls-1" d="M56.65,123.65a2.29,2.29,0,1,0-2.29-2.28A2.29,2.29,0,0,0,56.65,123.65Z"/><path class="cls-1" d="M64.74,124a2.63,2.63,0,1,0-2.63-2.62A2.62,2.62,0,0,0,64.74,124Z"/><path class="cls-1" d="M72.83,124.33a3,3,0,1,0-3-3A3,3,0,0,0,72.83,124.33Z"/><path class="cls-1" d="M80.92,124.66a3.3,3.3,0,1,0-3.3-3.29A3.29,3.29,0,0,0,80.92,124.66Z"/><path class="cls-1" d="M89,125a3.61,3.61,0,1,0-3.61-3.61A3.61,3.61,0,0,0,89,125Z"/><path class="cls-1" d="M97.1,125.29a3.93,3.93,0,1,0-3.93-3.92A3.92,3.92,0,0,0,97.1,125.29Z"/><path class="cls-1" d="M105.19,125.61a4.24,4.24,0,1,0-4.24-4.24A4.24,4.24,0,0,0,105.19,125.61Z"/><circle class="cls-1" cx="113.28" cy="121.37" r="4.53"/><path class="cls-1" d="M121.37,126.17a4.8,4.8,0,1,0-4.8-4.8A4.8,4.8,0,0,0,121.37,126.17Z"/><path class="cls-1" d="M129.46,126.39a5,5,0,1,0-5-5A5,5,0,0,0,129.46,126.39Z"/><circle class="cls-1" cx="137.55" cy="121.37" r="5.18"/><path class="cls-1" d="M145.64,126.62a5.25,5.25,0,1,0-5.25-5.25A5.25,5.25,0,0,0,145.64,126.62Z"/><path class="cls-1" d="M153.73,126.57a5.21,5.21,0,1,0-5.21-5.2A5.2,5.2,0,0,0,153.73,126.57Z"/><path class="cls-1" d="M161.81,126.41a5,5,0,1,0-5-5A5,5,0,0,0,161.81,126.41Z"/><path class="cls-1" d="M169.9,126.19a4.83,4.83,0,1,0-4.82-4.82A4.82,4.82,0,0,0,169.9,126.19Z"/><path class="cls-1" d="M178,125.92a4.56,4.56,0,1,0-4.55-4.55A4.56,4.56,0,0,0,178,125.92Z"/><path class="cls-1" d="M186.08,125.63a4.27,4.27,0,1,0-4.26-4.26A4.27,4.27,0,0,0,186.08,125.63Z"/><path class="cls-1" d="M194.17,125.34a4,4,0,1,0-4-4A4,4,0,0,0,194.17,125.34Z"/><path class="cls-1" d="M202.26,125a3.66,3.66,0,1,0-3.65-3.65A3.65,3.65,0,0,0,202.26,125Z"/><path class="cls-1" d="M210.35,124.69a3.32,3.32,0,1,0-3.32-3.32A3.32,3.32,0,0,0,210.35,124.69Z"/><path class="cls-1" d="M218.44,124.35a3,3,0,1,0-3-3A3,3,0,0,0,218.44,124.35Z"/><path class="cls-1" d="M226.53,124a2.65,2.65,0,1,0-2.65-2.64A2.65,2.65,0,0,0,226.53,124Z"/><path class="cls-1" d="M234.62,123.68a2.31,2.31,0,1,0-2.31-2.31A2.31,2.31,0,0,0,234.62,123.68Z"/><path class="cls-1" d="M242.71,123.34a2,2,0,1,0-2-2A2,2,0,0,0,242.71,123.34Z"/><path class="cls-1" d="M250.8,123a1.62,1.62,0,1,0-1.61-1.61A1.62,1.62,0,0,0,250.8,123Z"/><path class="cls-1" d="M258.89,122.65a1.28,1.28,0,1,0-1.28-1.28A1.28,1.28,0,0,0,258.89,122.65Z"/><path class="cls-1" d="M267,122.31a.95.95,0,1,0-.94-.94A.94.94,0,0,0,267,122.31Z"/><path class="cls-1" d="M275.07,122a.59.59,0,1,0-.58-.58A.58.58,0,0,0,275.07,122Z"/><path class="cls-1" d="M283.16,121.61a.25.25,0,1,0-.25-.24A.25.25,0,0,0,283.16,121.61Z"/><path class="cls-1" d="M8.11,129.73a.28.28,0,0,0,.27-.27.27.27,0,1,0-.54,0A.28.28,0,0,0,8.11,129.73Z"/><path class="cls-1" d="M16.2,130.06a.61.61,0,1,0-.6-.6A.6.6,0,0,0,16.2,130.06Z"/><path class="cls-1" d="M24.29,130.42a1,1,0,1,0-1-1A1,1,0,0,0,24.29,130.42Z"/><path class="cls-1" d="M32.38,130.78a1.33,1.33,0,1,0-1.32-1.32A1.32,1.32,0,0,0,32.38,130.78Z"/><path class="cls-1" d="M40.47,131.12a1.66,1.66,0,1,0-1.66-1.66A1.66,1.66,0,0,0,40.47,131.12Z"/><path class="cls-1" d="M48.56,131.48a2,2,0,1,0-2-2A2,2,0,0,0,48.56,131.48Z"/><path class="cls-1" d="M56.65,131.81a2.36,2.36,0,1,0-2.36-2.35A2.35,2.35,0,0,0,56.65,131.81Z"/><path class="cls-1" d="M64.74,132.17A2.72,2.72,0,1,0,62,129.46,2.71,2.71,0,0,0,64.74,132.17Z"/><path class="cls-1" d="M72.83,132.51a3.05,3.05,0,1,0-3-3A3.06,3.06,0,0,0,72.83,132.51Z"/><path class="cls-1" d="M80.92,132.84a3.39,3.39,0,1,0-3.39-3.38A3.38,3.38,0,0,0,80.92,132.84Z"/><path class="cls-1" d="M89,133.18a3.73,3.73,0,1,0-3.73-3.72A3.73,3.73,0,0,0,89,133.18Z"/><path class="cls-1" d="M97.1,133.54A4.09,4.09,0,1,0,93,129.46,4.08,4.08,0,0,0,97.1,133.54Z"/><path class="cls-1" d="M105.19,133.85a4.4,4.4,0,1,0-4.4-4.39A4.39,4.39,0,0,0,105.19,133.85Z"/><path class="cls-1" d="M113.28,134.19a4.74,4.74,0,1,0-4.74-4.73A4.73,4.73,0,0,0,113.28,134.19Z"/><path class="cls-1" d="M121.37,134.48a5,5,0,1,0-5-5A5,5,0,0,0,121.37,134.48Z"/><path class="cls-1" d="M129.46,134.75a5.3,5.3,0,1,0-5.3-5.29A5.29,5.29,0,0,0,129.46,134.75Z"/><path class="cls-1" d="M137.55,135a5.52,5.52,0,1,0-5.52-5.51A5.51,5.51,0,0,0,137.55,135Z"/><path class="cls-1" d="M145.64,135a5.59,5.59,0,1,0-5.59-5.58A5.58,5.58,0,0,0,145.64,135Z"/><path class="cls-1" d="M153.73,135a5.52,5.52,0,1,0-5.52-5.51A5.51,5.51,0,0,0,153.73,135Z"/><path class="cls-1" d="M161.81,134.77a5.32,5.32,0,1,0-5.31-5.31A5.32,5.32,0,0,0,161.81,134.77Z"/><path class="cls-1" d="M169.9,134.5a5,5,0,1,0-5-5A5,5,0,0,0,169.9,134.5Z"/><path class="cls-1" d="M178,134.21a4.76,4.76,0,1,0-4.75-4.75A4.76,4.76,0,0,0,178,134.21Z"/><path class="cls-1" d="M186.08,133.9a4.45,4.45,0,1,0-4.44-4.44A4.44,4.44,0,0,0,186.08,133.9Z"/><path class="cls-1" d="M194.17,133.56a4.11,4.11,0,1,0-4.1-4.1A4.11,4.11,0,0,0,194.17,133.56Z"/><path class="cls-1" d="M202.26,133.22a3.77,3.77,0,1,0-3.77-3.76A3.76,3.76,0,0,0,202.26,133.22Z"/><path class="cls-1" d="M210.35,132.89a3.44,3.44,0,1,0-3.43-3.43A3.43,3.43,0,0,0,210.35,132.89Z"/><path class="cls-1" d="M218.44,132.53a3.08,3.08,0,1,0-3.07-3.07A3.08,3.08,0,0,0,218.44,132.53Z"/><path class="cls-1" d="M226.53,132.19a2.74,2.74,0,1,0-2.74-2.73A2.74,2.74,0,0,0,226.53,132.19Z"/><path class="cls-1" d="M234.62,131.86a2.4,2.4,0,1,0-2.4-2.4A2.4,2.4,0,0,0,234.62,131.86Z"/><path class="cls-1" d="M242.71,131.5a2,2,0,1,0-2-2A2,2,0,0,0,242.71,131.5Z"/><circle class="cls-1" cx="250.8" cy="129.46" r="1.68"/><path class="cls-1" d="M258.89,130.8a1.35,1.35,0,1,0-1.35-1.34A1.35,1.35,0,0,0,258.89,130.8Z"/><path class="cls-1" d="M267,130.44a1,1,0,1,0-1-1A1,1,0,0,0,267,130.44Z"/><circle class="cls-1" cx="275.07" cy="129.46" r="0.65"/><path class="cls-1" d="M283.16,129.75a.29.29,0,0,0,.29-.29.29.29,0,1,0-.58,0A.29.29,0,0,0,283.16,129.75Z"/><path class="cls-1" d="M291.25,129.48l0,0s0,0,0,0,0,0,0,0Z"/><path class="cls-1" d="M0,137.57l0,0s0,0,0,0,0,0,0,0Z"/><path class="cls-1" d="M8.11,137.84a.3.3,0,1,0-.29-.29A.29.29,0,0,0,8.11,137.84Z"/><circle class="cls-1" cx="16.2" cy="137.55" r="0.65"/><path class="cls-1" d="M24.29,138.53a1,1,0,1,0-1-1A1,1,0,0,0,24.29,138.53Z"/><path class="cls-1" d="M32.38,138.89A1.35,1.35,0,1,0,31,137.55,1.35,1.35,0,0,0,32.38,138.89Z"/><path class="cls-1" d="M40.47,139.25a1.71,1.71,0,1,0-1.7-1.7A1.71,1.71,0,0,0,40.47,139.25Z"/><path class="cls-1" d="M48.56,139.61a2.07,2.07,0,1,0-2.06-2.06A2.06,2.06,0,0,0,48.56,139.61Z"/><path class="cls-1" d="M56.65,140a2.4,2.4,0,1,0-2.4-2.4A2.4,2.4,0,0,0,56.65,140Z"/><path class="cls-1" d="M64.74,140.31A2.76,2.76,0,1,0,62,137.55,2.77,2.77,0,0,0,64.74,140.31Z"/><path class="cls-1" d="M72.83,140.66a3.12,3.12,0,1,0-3.12-3.11A3.12,3.12,0,0,0,72.83,140.66Z"/><path class="cls-1" d="M80.92,141a3.46,3.46,0,1,0-3.46-3.45A3.45,3.45,0,0,0,80.92,141Z"/><path class="cls-1" d="M89,141.36a3.82,3.82,0,1,0-3.82-3.81A3.82,3.82,0,0,0,89,141.36Z"/><path class="cls-1" d="M97.1,141.7A4.15,4.15,0,1,0,93,137.55,4.15,4.15,0,0,0,97.1,141.7Z"/><path class="cls-1" d="M105.19,142.05a4.51,4.51,0,1,0-4.51-4.5A4.5,4.5,0,0,0,105.19,142.05Z"/><path class="cls-1" d="M113.28,142.39a4.85,4.85,0,1,0-4.85-4.84A4.84,4.84,0,0,0,113.28,142.39Z"/><circle class="cls-1" cx="121.37" cy="137.55" r="5.18"/><path class="cls-1" d="M129.46,143.06a5.52,5.52,0,1,0-5.52-5.51A5.51,5.51,0,0,0,129.46,143.06Z"/><circle class="cls-1" cx="137.55" cy="137.55" r="5.7" transform="translate(-20.36 23.96) rotate(-9.27)"/><path class="cls-1" d="M145.64,143.27a5.72,5.72,0,1,0-5.72-5.72A5.73,5.73,0,0,0,145.64,143.27Z"/><path class="cls-1" d="M153.73,143.27a5.72,5.72,0,1,0-5.73-5.72A5.73,5.73,0,0,0,153.73,143.27Z"/><path class="cls-1" d="M161.81,143.09a5.54,5.54,0,1,0-5.54-5.54A5.55,5.55,0,0,0,161.81,143.09Z"/><path class="cls-1" d="M169.9,142.77a5.23,5.23,0,1,0-5.22-5.22A5.23,5.23,0,0,0,169.9,142.77Z"/><path class="cls-1" d="M178,142.44a4.89,4.89,0,1,0-4.89-4.89A4.89,4.89,0,0,0,178,142.44Z"/><circle class="cls-1" cx="186.08" cy="137.55" r="4.53"/><path class="cls-1" d="M194.17,141.74a4.2,4.2,0,1,0-4.19-4.19A4.2,4.2,0,0,0,194.17,141.74Z"/><path class="cls-1" d="M202.26,141.38a3.84,3.84,0,1,0-3.83-3.83A3.84,3.84,0,0,0,202.26,141.38Z"/><circle class="cls-1" cx="210.35" cy="137.55" r="3.5"/><path class="cls-1" d="M218.44,140.69a3.14,3.14,0,1,0-3.14-3.14A3.14,3.14,0,0,0,218.44,140.69Z"/><path class="cls-1" d="M226.53,140.33a2.79,2.79,0,1,0-2.78-2.78A2.78,2.78,0,0,0,226.53,140.33Z"/><path class="cls-1" d="M234.62,140a2.45,2.45,0,1,0-2.44-2.44A2.45,2.45,0,0,0,234.62,140Z"/><path class="cls-1" d="M242.71,139.63a2.09,2.09,0,1,0-2.09-2.08A2.09,2.09,0,0,0,242.71,139.63Z"/><path class="cls-1" d="M250.8,139.27a1.73,1.73,0,1,0-1.73-1.72A1.73,1.73,0,0,0,250.8,139.27Z"/><path class="cls-1" d="M258.89,138.94a1.39,1.39,0,1,0-1.39-1.39A1.39,1.39,0,0,0,258.89,138.94Z"/><path class="cls-1" d="M267,138.58a1,1,0,1,0-1-1A1,1,0,0,0,267,138.58Z"/><path class="cls-1" d="M275.07,138.22a.68.68,0,1,0-.67-.67A.67.67,0,0,0,275.07,138.22Z"/><path class="cls-1" d="M283.16,137.86a.32.32,0,0,0,0-.63.32.32,0,1,0,0,.63Z"/><path class="cls-1" d="M291.25,137.57l0,0s0,0,0,0,0,0,0,0Z"/><path class="cls-1" d="M0,145.66a0,0,0,0,0,0,0s0,0,0,0,0,0,0,0A0,0,0,0,0,0,145.66Z"/><path class="cls-1" d="M8.11,145.93a.3.3,0,1,0-.29-.29A.29.29,0,0,0,8.11,145.93Z"/><circle class="cls-1" cx="16.2" cy="145.64" r="0.65"/><path class="cls-1" d="M24.29,146.64a1,1,0,1,0-1-1A1,1,0,0,0,24.29,146.64Z"/><path class="cls-1" d="M32.38,147A1.35,1.35,0,1,0,31,145.64,1.35,1.35,0,0,0,32.38,147Z"/><path class="cls-1" d="M40.47,147.34a1.71,1.71,0,1,0-1.7-1.7A1.71,1.71,0,0,0,40.47,147.34Z"/><path class="cls-1" d="M48.56,147.7a2.07,2.07,0,1,0-2.06-2.06A2.06,2.06,0,0,0,48.56,147.7Z"/><path class="cls-1" d="M56.65,148.06a2.43,2.43,0,1,0-2.42-2.42A2.42,2.42,0,0,0,56.65,148.06Z"/><path class="cls-1" d="M64.74,148.42A2.79,2.79,0,1,0,62,145.64,2.78,2.78,0,0,0,64.74,148.42Z"/><path class="cls-1" d="M72.83,148.75a3.12,3.12,0,1,0-3.12-3.11A3.12,3.12,0,0,0,72.83,148.75Z"/><path class="cls-1" d="M80.92,149.11a3.48,3.48,0,1,0-3.48-3.47A3.47,3.47,0,0,0,80.92,149.11Z"/><path class="cls-1" d="M89,149.47a3.84,3.84,0,1,0-3.84-3.83A3.83,3.83,0,0,0,89,149.47Z"/><path class="cls-1" d="M97.1,149.83a4.2,4.2,0,1,0-4.2-4.19A4.2,4.2,0,0,0,97.1,149.83Z"/><circle class="cls-1" cx="105.19" cy="145.64" r="4.53"/><path class="cls-1" d="M113.28,150.53a4.89,4.89,0,1,0-4.89-4.89A4.89,4.89,0,0,0,113.28,150.53Z"/><path class="cls-1" d="M121.37,150.88a5.25,5.25,0,1,0-5.25-5.24A5.25,5.25,0,0,0,121.37,150.88Z"/><path class="cls-1" d="M129.46,151.22a5.59,5.59,0,1,0-5.59-5.58A5.58,5.58,0,0,0,129.46,151.22Z"/><path class="cls-1" d="M137.55,151.36a5.72,5.72,0,1,0-5.72-5.72A5.73,5.73,0,0,0,137.55,151.36Z"/><path class="cls-1" d="M145.64,151.36a5.72,5.72,0,1,0-5.72-5.72A5.73,5.73,0,0,0,145.64,151.36Z"/><path class="cls-1" d="M153.73,151.36a5.72,5.72,0,1,0-5.73-5.72A5.73,5.73,0,0,0,153.73,151.36Z"/><path class="cls-1" d="M161.81,151.27a5.64,5.64,0,1,0-5.63-5.63A5.64,5.64,0,0,0,161.81,151.27Z"/><path class="cls-1" d="M169.9,150.91a5.28,5.28,0,1,0-5.27-5.27A5.27,5.27,0,0,0,169.9,150.91Z"/><path class="cls-1" d="M178,150.57a4.94,4.94,0,1,0-4.93-4.93A4.94,4.94,0,0,0,178,150.57Z"/><path class="cls-1" d="M186.08,150.21a4.58,4.58,0,1,0-4.57-4.57A4.58,4.58,0,0,0,186.08,150.21Z"/><path class="cls-1" d="M194.17,149.85a4.22,4.22,0,1,0-4.21-4.21A4.22,4.22,0,0,0,194.17,149.85Z"/><path class="cls-1" d="M202.26,149.52a3.89,3.89,0,1,0-3.88-3.88A3.88,3.88,0,0,0,202.26,149.52Z"/><path class="cls-1" d="M210.35,149.16a3.53,3.53,0,1,0-3.52-3.52A3.52,3.52,0,0,0,210.35,149.16Z"/><path class="cls-1" d="M218.44,148.8a3.17,3.17,0,1,0-3.16-3.16A3.16,3.16,0,0,0,218.44,148.8Z"/><path class="cls-1" d="M226.53,148.46a2.83,2.83,0,1,0-2.83-2.82A2.83,2.83,0,0,0,226.53,148.46Z"/><path class="cls-1" d="M234.62,148.1a2.47,2.47,0,1,0-2.47-2.46A2.47,2.47,0,0,0,234.62,148.1Z"/><path class="cls-1" d="M242.71,147.74a2.11,2.11,0,1,0-2.11-2.1A2.1,2.1,0,0,0,242.71,147.74Z"/><path class="cls-1" d="M250.8,147.39a1.75,1.75,0,1,0-1.75-1.75A1.75,1.75,0,0,0,250.8,147.39Z"/><path class="cls-1" d="M258.89,147.05a1.42,1.42,0,1,0-1.41-1.41A1.41,1.41,0,0,0,258.89,147.05Z"/><path class="cls-1" d="M267,146.69a1.06,1.06,0,1,0-1.05-1.05A1,1,0,0,0,267,146.69Z"/><path class="cls-1" d="M275.07,146.33a.7.7,0,1,0-.7-.69A.69.69,0,0,0,275.07,146.33Z"/><path class="cls-1" d="M283.16,146a.34.34,0,1,0,0-.67.34.34,0,1,0,0,.67Z"/><path class="cls-1" d="M291.25,145.68a0,0,0,0,0,0,0,0,0,0,0,0,0,0,0,0,0,0,0-.05,0A0,0,0,0,0,291.25,145.68Z"/><path class="cls-1" d="M0,153.75a0,0,0,0,0,0,0s0,0,0,0,0,0,0,0A0,0,0,0,0,0,153.75Z"/><path class="cls-1" d="M8.11,154a.3.3,0,1,0-.29-.29A.29.29,0,0,0,8.11,154Z"/><circle class="cls-1" cx="16.2" cy="153.73" r="0.65"/><path class="cls-1" d="M24.29,154.71a1,1,0,1,0-1-1A1,1,0,0,0,24.29,154.71Z"/><path class="cls-1" d="M32.38,155.07A1.35,1.35,0,1,0,31,153.73,1.35,1.35,0,0,0,32.38,155.07Z"/><path class="cls-1" d="M40.47,155.43a1.71,1.71,0,1,0-1.7-1.7A1.71,1.71,0,0,0,40.47,155.43Z"/><path class="cls-1" d="M48.56,155.79a2.07,2.07,0,1,0-2.06-2.06A2.06,2.06,0,0,0,48.56,155.79Z"/><path class="cls-1" d="M56.65,156.13a2.41,2.41,0,1,0-2.4-2.4A2.4,2.4,0,0,0,56.65,156.13Z"/><path class="cls-1" d="M64.74,156.48A2.76,2.76,0,1,0,62,153.73,2.76,2.76,0,0,0,64.74,156.48Z"/><path class="cls-1" d="M72.83,156.84a3.12,3.12,0,1,0-3.12-3.11A3.12,3.12,0,0,0,72.83,156.84Z"/><path class="cls-1" d="M80.92,157.18a3.46,3.46,0,1,0-3.46-3.45A3.45,3.45,0,0,0,80.92,157.18Z"/><path class="cls-1" d="M89,157.54a3.82,3.82,0,1,0-3.82-3.81A3.82,3.82,0,0,0,89,157.54Z"/><path class="cls-1" d="M97.1,157.9a4.18,4.18,0,1,0-4.17-4.17A4.17,4.17,0,0,0,97.1,157.9Z"/><path class="cls-1" d="M105.19,158.23a4.51,4.51,0,1,0-4.51-4.5A4.5,4.5,0,0,0,105.19,158.23Z"/><path class="cls-1" d="M113.28,158.57a4.85,4.85,0,1,0-4.85-4.84A4.84,4.84,0,0,0,113.28,158.57Z"/><path class="cls-1" d="M121.37,158.93a5.21,5.21,0,1,0-5.21-5.2A5.2,5.2,0,0,0,121.37,158.93Z"/><path class="cls-1" d="M129.46,159.24a5.52,5.52,0,1,0-5.52-5.51A5.51,5.51,0,0,0,129.46,159.24Z"/><path class="cls-1" d="M137.55,159.45a5.73,5.73,0,1,0-5.72-5.72A5.73,5.73,0,0,0,137.55,159.45Z"/><path class="cls-1" d="M145.64,159.45a5.73,5.73,0,1,0-5.72-5.72A5.73,5.73,0,0,0,145.64,159.45Z"/><path class="cls-1" d="M153.73,159.45a5.73,5.73,0,1,0-5.73-5.72A5.73,5.73,0,0,0,153.73,159.45Z"/><path class="cls-1" d="M161.81,159.27a5.55,5.55,0,1,0-5.54-5.54A5.55,5.55,0,0,0,161.81,159.27Z"/><path class="cls-1" d="M169.9,159a5.23,5.23,0,1,0-5.22-5.22A5.23,5.23,0,0,0,169.9,159Z"/><path class="cls-1" d="M178,158.62a4.9,4.9,0,1,0-4.89-4.89A4.89,4.89,0,0,0,178,158.62Z"/><circle class="cls-1" cx="186.08" cy="153.73" r="4.53"/><path class="cls-1" d="M194.17,157.92a4.2,4.2,0,1,0-4.19-4.19A4.2,4.2,0,0,0,194.17,157.92Z"/><path class="cls-1" d="M202.26,157.58a3.86,3.86,0,1,0-3.86-3.85A3.85,3.85,0,0,0,202.26,157.58Z"/><circle class="cls-1" cx="210.35" cy="153.73" r="3.5"/><path class="cls-1" d="M218.44,156.87a3.15,3.15,0,1,0-3.14-3.14A3.14,3.14,0,0,0,218.44,156.87Z"/><path class="cls-1" d="M226.53,156.53a2.81,2.81,0,1,0-2.8-2.8A2.81,2.81,0,0,0,226.53,156.53Z"/><path class="cls-1" d="M234.62,156.17a2.45,2.45,0,1,0-2.44-2.44A2.45,2.45,0,0,0,234.62,156.17Z"/><path class="cls-1" d="M242.71,155.81a2.09,2.09,0,1,0-2.09-2.08A2.09,2.09,0,0,0,242.71,155.81Z"/><path class="cls-1" d="M250.8,155.45a1.73,1.73,0,1,0-1.73-1.72A1.73,1.73,0,0,0,250.8,155.45Z"/><path class="cls-1" d="M258.89,155.12a1.4,1.4,0,1,0-1.39-1.39A1.39,1.39,0,0,0,258.89,155.12Z"/><path class="cls-1" d="M267,154.76a1,1,0,1,0-1-1A1,1,0,0,0,267,154.76Z"/><path class="cls-1" d="M275.07,154.4a.68.68,0,1,0-.67-.67A.67.67,0,0,0,275.07,154.4Z"/><path class="cls-1" d="M283.16,154.06a.34.34,0,1,0,0-.67.34.34,0,1,0,0,.67Z"/><path class="cls-1" d="M291.25,153.75a0,0,0,0,0,0,0s0,0,0,0,0,0,0,0A0,0,0,0,0,291.25,153.75Z"/><path class="cls-1" d="M0,161.84s0,0,0,0l0,0a0,0,0,0,0,0,0S0,161.84,0,161.84Z"/><path class="cls-1" d="M8.11,162.08a.27.27,0,1,0-.27-.27A.27.27,0,0,0,8.11,162.08Z"/><path class="cls-1" d="M16.2,162.42a.61.61,0,1,0-.6-.61A.61.61,0,0,0,16.2,162.42Z"/><path class="cls-1" d="M24.29,162.78a1,1,0,1,0,0-1.93,1,1,0,0,0,0,1.93Z"/><path class="cls-1" d="M32.38,163.14a1.33,1.33,0,1,0-1.32-1.33A1.32,1.32,0,0,0,32.38,163.14Z"/><path class="cls-1" d="M40.47,163.47a1.66,1.66,0,1,0-1.66-1.66A1.66,1.66,0,0,0,40.47,163.47Z"/><path class="cls-1" d="M48.56,163.83a2,2,0,1,0-2-2A2,2,0,0,0,48.56,163.83Z"/><path class="cls-1" d="M56.65,164.17a2.36,2.36,0,1,0-2.36-2.36A2.35,2.35,0,0,0,56.65,164.17Z"/><path class="cls-1" d="M64.74,164.53A2.72,2.72,0,1,0,62,161.81,2.71,2.71,0,0,0,64.74,164.53Z"/><path class="cls-1" d="M72.83,164.87a3.06,3.06,0,1,0-3-3.06A3.06,3.06,0,0,0,72.83,164.87Z"/><path class="cls-1" d="M80.92,165.22a3.41,3.41,0,1,0-3.41-3.41A3.41,3.41,0,0,0,80.92,165.22Z"/><path class="cls-1" d="M89,165.56a3.75,3.75,0,1,0-3.75-3.75A3.74,3.74,0,0,0,89,165.56Z"/><path class="cls-1" d="M97.1,165.9A4.09,4.09,0,1,0,93,161.81,4.09,4.09,0,0,0,97.1,165.9Z"/><path class="cls-1" d="M105.19,166.23a4.42,4.42,0,1,0-4.42-4.42A4.42,4.42,0,0,0,105.19,166.23Z"/><path class="cls-1" d="M113.28,166.55a4.74,4.74,0,1,0-4.74-4.74A4.74,4.74,0,0,0,113.28,166.55Z"/><path class="cls-1" d="M121.37,166.86a5,5,0,1,0-5.05-5.05A5,5,0,0,0,121.37,166.86Z"/><path class="cls-1" d="M129.46,167.13a5.32,5.32,0,1,0-5.32-5.32A5.32,5.32,0,0,0,129.46,167.13Z"/><path class="cls-1" d="M137.55,167.36a5.55,5.55,0,1,0-5.55-5.55A5.55,5.55,0,0,0,137.55,167.36Z"/><path class="cls-1" d="M145.64,167.45a5.64,5.64,0,1,0-5.64-5.64A5.64,5.64,0,0,0,145.64,167.45Z"/><path class="cls-1" d="M153.73,167.36a5.55,5.55,0,1,0-5.55-5.55A5.55,5.55,0,0,0,153.73,167.36Z"/><path class="cls-1" d="M161.81,167.15a5.34,5.34,0,1,0-5.33-5.34A5.34,5.34,0,0,0,161.81,167.15Z"/><path class="cls-1" d="M169.9,166.88a5.07,5.07,0,1,0-5.07-5.07A5.07,5.07,0,0,0,169.9,166.88Z"/><path class="cls-1" d="M178,166.59a4.78,4.78,0,1,0-4.77-4.78A4.78,4.78,0,0,0,178,166.59Z"/><path class="cls-1" d="M186.08,166.26a4.45,4.45,0,1,0-4.44-4.45A4.44,4.44,0,0,0,186.08,166.26Z"/><path class="cls-1" d="M194.17,165.92a4.11,4.11,0,1,0-4.1-4.11A4.11,4.11,0,0,0,194.17,165.92Z"/><path class="cls-1" d="M202.26,165.58a3.77,3.77,0,1,0-3.77-3.77A3.77,3.77,0,0,0,202.26,165.58Z"/><path class="cls-1" d="M210.35,165.25a3.44,3.44,0,1,0-3.43-3.44A3.43,3.43,0,0,0,210.35,165.25Z"/><path class="cls-1" d="M218.44,164.91a3.1,3.1,0,1,0-3.09-3.1A3.1,3.1,0,0,0,218.44,164.91Z"/><path class="cls-1" d="M226.53,164.55a2.74,2.74,0,1,0-2.74-2.74A2.74,2.74,0,0,0,226.53,164.55Z"/><path class="cls-1" d="M234.62,164.21a2.4,2.4,0,1,0-2.4-2.4A2.39,2.39,0,0,0,234.62,164.21Z"/><path class="cls-1" d="M242.71,163.86a2,2,0,1,0-2-2.05A2,2,0,0,0,242.71,163.86Z"/><path class="cls-1" d="M250.8,163.52a1.71,1.71,0,1,0-1.7-1.71A1.71,1.71,0,0,0,250.8,163.52Z"/><path class="cls-1" d="M258.89,163.16a1.35,1.35,0,1,0-1.35-1.35A1.35,1.35,0,0,0,258.89,163.16Z"/><path class="cls-1" d="M267,162.8a1,1,0,1,0-1-1A1,1,0,0,0,267,162.8Z"/><circle class="cls-1" cx="275.07" cy="161.81" r="0.65"/><path class="cls-1" d="M283.16,162.11a.3.3,0,1,0-.29-.3A.29.29,0,0,0,283.16,162.11Z"/><path class="cls-1" d="M291.25,161.84s0,0,0,0a0,0,0,0,0,0,0,0,0,0,0,0,0,0S291.24,161.84,291.25,161.84Z"/><path class="cls-1" d="M8.11,170.11a.2.2,0,0,0,.2-.21.2.2,0,0,0-.4,0A.2.2,0,0,0,8.11,170.11Z"/><path class="cls-1" d="M16.2,170.47a.57.57,0,0,0,.56-.57.56.56,0,0,0-1.12,0A.57.57,0,0,0,16.2,170.47Z"/><path class="cls-1" d="M24.29,170.8a.9.9,0,1,0-.9-.9A.9.9,0,0,0,24.29,170.8Z"/><path class="cls-1" d="M32.38,171.16a1.26,1.26,0,1,0-1.26-1.26A1.26,1.26,0,0,0,32.38,171.16Z"/><path class="cls-1" d="M40.47,171.5a1.6,1.6,0,1,0-1.59-1.6A1.6,1.6,0,0,0,40.47,171.5Z"/><path class="cls-1" d="M48.56,171.86a2,2,0,1,0-2-2A2,2,0,0,0,48.56,171.86Z"/><path class="cls-1" d="M56.65,172.19a2.29,2.29,0,1,0-2.29-2.29A2.29,2.29,0,0,0,56.65,172.19Z"/><path class="cls-1" d="M64.74,172.53a2.63,2.63,0,1,0-2.63-2.63A2.62,2.62,0,0,0,64.74,172.53Z"/><path class="cls-1" d="M72.83,172.87a3,3,0,1,0-3-3A3,3,0,0,0,72.83,172.87Z"/><path class="cls-1" d="M80.92,173.2a3.3,3.3,0,1,0-3.3-3.3A3.3,3.3,0,0,0,80.92,173.2Z"/><path class="cls-1" d="M89,173.54a3.64,3.64,0,1,0-3.64-3.64A3.63,3.63,0,0,0,89,173.54Z"/><path class="cls-1" d="M97.1,173.85a3.95,3.95,0,1,0-3.95-3.95A4,4,0,0,0,97.1,173.85Z"/><path class="cls-1" d="M105.19,174.17a4.27,4.27,0,1,0-4.26-4.27A4.27,4.27,0,0,0,105.19,174.17Z"/><path class="cls-1" d="M113.28,174.46a4.56,4.56,0,1,0-4.56-4.56A4.56,4.56,0,0,0,113.28,174.46Z"/><path class="cls-1" d="M121.37,174.73a4.83,4.83,0,1,0-4.83-4.83A4.82,4.82,0,0,0,121.37,174.73Z"/><path class="cls-1" d="M129.46,175a5,5,0,1,0-5.05-5A5,5,0,0,0,129.46,175Z"/><path class="cls-1" d="M137.55,175.13a5.23,5.23,0,1,0-5.23-5.23A5.23,5.23,0,0,0,137.55,175.13Z"/><path class="cls-1" d="M145.64,175.18a5.28,5.28,0,1,0-5.28-5.28A5.27,5.27,0,0,0,145.64,175.18Z"/><path class="cls-1" d="M153.73,175.13a5.23,5.23,0,1,0-5.23-5.23A5.23,5.23,0,0,0,153.73,175.13Z"/><path class="cls-1" d="M161.81,175a5.07,5.07,0,1,0-5.07-5.07A5.07,5.07,0,0,0,161.81,175Z"/><path class="cls-1" d="M169.9,174.75a4.85,4.85,0,1,0-4.84-4.85A4.85,4.85,0,0,0,169.9,174.75Z"/><path class="cls-1" d="M178,174.48a4.58,4.58,0,1,0-4.57-4.58A4.58,4.58,0,0,0,178,174.48Z"/><path class="cls-1" d="M186.08,174.19a4.29,4.29,0,1,0-4.28-4.29A4.29,4.29,0,0,0,186.08,174.19Z"/><path class="cls-1" d="M194.17,173.87a4,4,0,1,0-4-4A4,4,0,0,0,194.17,173.87Z"/><path class="cls-1" d="M202.26,173.56a3.66,3.66,0,1,0-3.65-3.66A3.66,3.66,0,0,0,202.26,173.56Z"/><path class="cls-1" d="M210.35,173.22A3.32,3.32,0,1,0,207,169.9,3.31,3.31,0,0,0,210.35,173.22Z"/><path class="cls-1" d="M218.44,172.91a3,3,0,1,0-3-3A3,3,0,0,0,218.44,172.91Z"/><path class="cls-1" d="M226.53,172.55a2.65,2.65,0,1,0-2.65-2.65A2.65,2.65,0,0,0,226.53,172.55Z"/><path class="cls-1" d="M234.62,172.21a2.31,2.31,0,1,0-2.31-2.31A2.3,2.3,0,0,0,234.62,172.21Z"/><path class="cls-1" d="M242.71,171.88a2,2,0,1,0-2-2A2,2,0,0,0,242.71,171.88Z"/><path class="cls-1" d="M250.8,171.54a1.64,1.64,0,1,0-1.64-1.64A1.64,1.64,0,0,0,250.8,171.54Z"/><path class="cls-1" d="M258.89,171.18a1.28,1.28,0,1,0-1.28-1.28A1.28,1.28,0,0,0,258.89,171.18Z"/><path class="cls-1" d="M267,170.85a.95.95,0,1,0-.94-.95A.95.95,0,0,0,267,170.85Z"/><path class="cls-1" d="M275.07,170.49a.59.59,0,1,0-.58-.59A.58.58,0,0,0,275.07,170.49Z"/><path class="cls-1" d="M283.16,170.15a.25.25,0,1,0-.25-.25A.25.25,0,0,0,283.16,170.15Z"/><path class="cls-1" d="M8.11,178.15a.16.16,0,0,0,.16-.16.16.16,0,0,0-.16-.15A.15.15,0,0,0,8,178,.16.16,0,0,0,8.11,178.15Z"/><path class="cls-1" d="M16.2,178.49a.5.5,0,1,0,0-1,.5.5,0,0,0,0,1Z"/><path class="cls-1" d="M24.29,178.82a.83.83,0,1,0-.83-.83A.83.83,0,0,0,24.29,178.82Z"/><circle class="cls-1" cx="32.38" cy="177.99" r="1.17"/><path class="cls-1" d="M40.47,179.5A1.51,1.51,0,1,0,39,178,1.51,1.51,0,0,0,40.47,179.5Z"/><path class="cls-1" d="M48.56,179.83A1.84,1.84,0,1,0,46.72,178,1.84,1.84,0,0,0,48.56,179.83Z"/><path class="cls-1" d="M56.65,180.17A2.18,2.18,0,1,0,54.47,178,2.18,2.18,0,0,0,56.65,180.17Z"/><path class="cls-1" d="M64.74,180.51A2.52,2.52,0,1,0,62.23,178,2.51,2.51,0,0,0,64.74,180.51Z"/><circle class="cls-1" cx="72.83" cy="177.99" r="2.85"/><path class="cls-1" d="M80.92,181.16A3.17,3.17,0,1,0,77.76,178,3.16,3.16,0,0,0,80.92,181.16Z"/><path class="cls-1" d="M89,181.47A3.48,3.48,0,1,0,85.53,178,3.48,3.48,0,0,0,89,181.47Z"/><path class="cls-1" d="M97.1,181.76A3.77,3.77,0,1,0,93.33,178,3.77,3.77,0,0,0,97.1,181.76Z"/><path class="cls-1" d="M105.19,182.05a4.06,4.06,0,1,0-4.06-4.06A4.06,4.06,0,0,0,105.19,182.05Z"/><path class="cls-1" d="M113.28,182.32A4.33,4.33,0,1,0,109,178,4.33,4.33,0,0,0,113.28,182.32Z"/><path class="cls-1" d="M121.37,182.55a4.56,4.56,0,1,0-4.56-4.56A4.56,4.56,0,0,0,121.37,182.55Z"/><path class="cls-1" d="M129.46,182.75A4.76,4.76,0,1,0,124.7,178,4.76,4.76,0,0,0,129.46,182.75Z"/><path class="cls-1" d="M137.55,182.88a4.89,4.89,0,1,0-4.89-4.89A4.89,4.89,0,0,0,137.55,182.88Z"/><path class="cls-1" d="M145.64,182.93A4.94,4.94,0,1,0,140.7,178,4.94,4.94,0,0,0,145.64,182.93Z"/><path class="cls-1" d="M153.73,182.88a4.89,4.89,0,1,0-4.9-4.89A4.89,4.89,0,0,0,153.73,182.88Z"/><path class="cls-1" d="M161.81,182.77A4.78,4.78,0,1,0,157,178,4.78,4.78,0,0,0,161.81,182.77Z"/><path class="cls-1" d="M169.9,182.57a4.58,4.58,0,1,0-4.57-4.58A4.58,4.58,0,0,0,169.9,182.57Z"/><path class="cls-1" d="M178,182.35a4.36,4.36,0,1,0-4.35-4.36A4.36,4.36,0,0,0,178,182.35Z"/><path class="cls-1" d="M186.08,182.08A4.09,4.09,0,1,0,182,178,4.09,4.09,0,0,0,186.08,182.08Z"/><path class="cls-1" d="M194.17,181.79a3.8,3.8,0,1,0-3.79-3.8A3.79,3.79,0,0,0,194.17,181.79Z"/><circle class="cls-1" cx="202.26" cy="177.99" r="3.5"/><path class="cls-1" d="M210.35,181.18a3.19,3.19,0,1,0-3.18-3.19A3.19,3.19,0,0,0,210.35,181.18Z"/><path class="cls-1" d="M218.44,180.87a2.88,2.88,0,1,0-2.87-2.88A2.87,2.87,0,0,0,218.44,180.87Z"/><path class="cls-1" d="M226.53,180.53A2.54,2.54,0,1,0,224,178,2.54,2.54,0,0,0,226.53,180.53Z"/><path class="cls-1" d="M234.62,180.21A2.22,2.22,0,1,0,232.4,178,2.21,2.21,0,0,0,234.62,180.21Z"/><path class="cls-1" d="M242.71,179.88a1.89,1.89,0,1,0-1.88-1.89A1.89,1.89,0,0,0,242.71,179.88Z"/><path class="cls-1" d="M250.8,179.54a1.55,1.55,0,1,0-1.55-1.55A1.54,1.54,0,0,0,250.8,179.54Z"/><path class="cls-1" d="M258.89,179.21a1.22,1.22,0,1,0-1.21-1.22A1.22,1.22,0,0,0,258.89,179.21Z"/><path class="cls-1" d="M267,178.85a.86.86,0,0,0,.85-.86.85.85,0,1,0-1.7,0A.86.86,0,0,0,267,178.85Z"/><path class="cls-1" d="M275.07,178.51a.52.52,0,1,0,0-1,.52.52,0,1,0,0,1Z"/><path class="cls-1" d="M283.16,178.17A.18.18,0,1,0,283,178,.18.18,0,0,0,283.16,178.17Z"/><path class="cls-1" d="M8.11,186.15a.07.07,0,0,0,.07-.07.07.07,0,0,0-.14,0A.07.07,0,0,0,8.11,186.15Z"/><path class="cls-1" d="M16.2,186.49a.41.41,0,1,0,0-.81.41.41,0,0,0,0,.81Z"/><path class="cls-1" d="M24.29,186.8a.72.72,0,1,0-.72-.72A.72.72,0,0,0,24.29,186.8Z"/><path class="cls-1" d="M32.38,187.14a1.06,1.06,0,1,0,0-2.11,1.06,1.06,0,0,0,0,2.11Z"/><path class="cls-1" d="M40.47,187.47a1.39,1.39,0,1,0-1.39-1.39A1.39,1.39,0,0,0,40.47,187.47Z"/><path class="cls-1" d="M48.56,187.81a1.73,1.73,0,1,0-1.73-1.73A1.73,1.73,0,0,0,48.56,187.81Z"/><path class="cls-1" d="M56.65,188.12a2,2,0,1,0-2-2A2,2,0,0,0,56.65,188.12Z"/><path class="cls-1" d="M64.74,188.46a2.38,2.38,0,1,0-2.38-2.38A2.38,2.38,0,0,0,64.74,188.46Z"/><path class="cls-1" d="M72.83,188.78a2.7,2.7,0,1,0-2.69-2.7A2.69,2.69,0,0,0,72.83,188.78Z"/><path class="cls-1" d="M80.92,189.07a3,3,0,1,0-3-3A3,3,0,0,0,80.92,189.07Z"/><path class="cls-1" d="M89,189.36a3.28,3.28,0,1,0-3.28-3.28A3.27,3.27,0,0,0,89,189.36Z"/><path class="cls-1" d="M97.1,189.65a3.57,3.57,0,1,0-3.57-3.57A3.56,3.56,0,0,0,97.1,189.65Z"/><path class="cls-1" d="M105.19,189.92a3.84,3.84,0,1,0-3.84-3.84A3.83,3.83,0,0,0,105.19,189.92Z"/><path class="cls-1" d="M113.28,190.14a4.06,4.06,0,1,0-4.06-4.06A4.06,4.06,0,0,0,113.28,190.14Z"/><path class="cls-1" d="M121.37,190.35a4.27,4.27,0,1,0-4.27-4.27A4.27,4.27,0,0,0,121.37,190.35Z"/><path class="cls-1" d="M129.46,190.53a4.45,4.45,0,1,0-4.45-4.45A4.44,4.44,0,0,0,129.46,190.53Z"/><circle class="cls-1" cx="137.55" cy="186.08" r="4.53"/><path class="cls-1" d="M145.64,190.66a4.58,4.58,0,1,0-4.58-4.58A4.58,4.58,0,0,0,145.64,190.66Z"/><circle class="cls-1" cx="153.73" cy="186.08" r="4.53"/><path class="cls-1" d="M161.81,190.53a4.45,4.45,0,1,0-4.44-4.45A4.45,4.45,0,0,0,161.81,190.53Z"/><path class="cls-1" d="M169.9,190.37a4.29,4.29,0,1,0-4.28-4.29A4.29,4.29,0,0,0,169.9,190.37Z"/><path class="cls-1" d="M178,190.17a4.09,4.09,0,1,0-4.08-4.09A4.09,4.09,0,0,0,178,190.17Z"/><path class="cls-1" d="M186.08,189.94a3.86,3.86,0,1,0-3.86-3.86A3.86,3.86,0,0,0,186.08,189.94Z"/><path class="cls-1" d="M194.17,189.67a3.59,3.59,0,1,0-3.59-3.59A3.58,3.58,0,0,0,194.17,189.67Z"/><path class="cls-1" d="M202.26,189.4a3.32,3.32,0,1,0-3.32-3.32A3.31,3.31,0,0,0,202.26,189.4Z"/><path class="cls-1" d="M210.35,189.09a3,3,0,1,0-3-3A3,3,0,0,0,210.35,189.09Z"/><path class="cls-1" d="M218.44,188.8a2.72,2.72,0,1,0-2.71-2.72A2.72,2.72,0,0,0,218.44,188.8Z"/><path class="cls-1" d="M226.53,188.48a2.4,2.4,0,1,0-2.4-2.4A2.39,2.39,0,0,0,226.53,188.48Z"/><path class="cls-1" d="M234.62,188.17a2.09,2.09,0,1,0-2.09-2.09A2.09,2.09,0,0,0,234.62,188.17Z"/><path class="cls-1" d="M242.71,187.83a1.75,1.75,0,1,0-1.75-1.75A1.75,1.75,0,0,0,242.71,187.83Z"/><path class="cls-1" d="M250.8,187.52a1.44,1.44,0,1,0-1.44-1.44A1.44,1.44,0,0,0,250.8,187.52Z"/><path class="cls-1" d="M258.89,187.18a1.1,1.1,0,1,0-1.1-1.1A1.1,1.1,0,0,0,258.89,187.18Z"/><path class="cls-1" d="M267,186.85a.77.77,0,0,0,.76-.77.76.76,0,0,0-1.52,0A.77.77,0,0,0,267,186.85Z"/><path class="cls-1" d="M275.07,186.51a.43.43,0,1,0,0-.85.43.43,0,1,0,0,.85Z"/><path class="cls-1" d="M283.16,186.17a.09.09,0,1,0-.09-.09A.09.09,0,0,0,283.16,186.17Z"/><path class="cls-1" d="M8.11,194.2s0,0,0,0l0,0,0,0S8.1,194.2,8.11,194.2Z"/><path class="cls-1" d="M16.2,194.44a.27.27,0,1,0-.27-.27A.27.27,0,0,0,16.2,194.44Z"/><path class="cls-1" d="M24.29,194.78a.61.61,0,1,0-.6-.61A.61.61,0,0,0,24.29,194.78Z"/><path class="cls-1" d="M32.38,195.12a.95.95,0,1,0-.94-1A.95.95,0,0,0,32.38,195.12Z"/><path class="cls-1" d="M40.47,195.43a1.26,1.26,0,1,0-1.26-1.26A1.26,1.26,0,0,0,40.47,195.43Z"/><path class="cls-1" d="M48.56,195.74A1.57,1.57,0,1,0,47,194.17,1.57,1.57,0,0,0,48.56,195.74Z"/><path class="cls-1" d="M56.65,196.06a1.89,1.89,0,1,0-1.88-1.89A1.89,1.89,0,0,0,56.65,196.06Z"/><path class="cls-1" d="M64.74,196.37a2.2,2.2,0,1,0-2.2-2.2A2.2,2.2,0,0,0,64.74,196.37Z"/><path class="cls-1" d="M72.83,196.66a2.49,2.49,0,1,0-2.49-2.49A2.49,2.49,0,0,0,72.83,196.66Z"/><path class="cls-1" d="M80.92,197a2.78,2.78,0,1,0-2.78-2.78A2.78,2.78,0,0,0,80.92,197Z"/><path class="cls-1" d="M89,197.25a3.08,3.08,0,1,0-3.08-3.08A3.07,3.07,0,0,0,89,197.25Z"/><path class="cls-1" d="M97.1,197.49a3.32,3.32,0,1,0-3.32-3.32A3.32,3.32,0,0,0,97.1,197.49Z"/><path class="cls-1" d="M105.19,197.74a3.57,3.57,0,1,0-3.57-3.57A3.56,3.56,0,0,0,105.19,197.74Z"/><path class="cls-1" d="M113.28,198a3.79,3.79,0,1,0-3.79-3.79A3.79,3.79,0,0,0,113.28,198Z"/><path class="cls-1" d="M121.37,198.14a4,4,0,1,0-4-4A4,4,0,0,0,121.37,198.14Z"/><path class="cls-1" d="M129.46,198.28a4.11,4.11,0,1,0-4.11-4.11A4.11,4.11,0,0,0,129.46,198.28Z"/><path class="cls-1" d="M137.55,198.37a4.2,4.2,0,1,0-4.2-4.2A4.2,4.2,0,0,0,137.55,198.37Z"/><path class="cls-1" d="M145.64,198.39a4.22,4.22,0,1,0-4.22-4.22A4.22,4.22,0,0,0,145.64,198.39Z"/><path class="cls-1" d="M153.73,198.37a4.2,4.2,0,1,0-4.2-4.2A4.2,4.2,0,0,0,153.73,198.37Z"/><path class="cls-1" d="M161.81,198.28a4.11,4.11,0,1,0-4.1-4.11A4.11,4.11,0,0,0,161.81,198.28Z"/><path class="cls-1" d="M169.9,198.14a4,4,0,1,0-4-4A4,4,0,0,0,169.9,198.14Z"/><path class="cls-1" d="M178,198a3.79,3.79,0,1,0-3.79-3.79A3.78,3.78,0,0,0,178,198Z"/><path class="cls-1" d="M186.08,197.76a3.59,3.59,0,1,0-3.59-3.59A3.58,3.58,0,0,0,186.08,197.76Z"/><circle class="cls-1" cx="194.17" cy="194.17" r="3.36" transform="translate(-59.25 299.93) rotate(-67.65)"/><path class="cls-1" d="M202.26,197.27a3.1,3.1,0,1,0-3.09-3.1A3.1,3.1,0,0,0,202.26,197.27Z"/><path class="cls-1" d="M210.35,197a2.81,2.81,0,1,0-2.8-2.81A2.81,2.81,0,0,0,210.35,197Z"/><path class="cls-1" d="M218.44,196.71a2.54,2.54,0,1,0-2.53-2.54A2.54,2.54,0,0,0,218.44,196.71Z"/><path class="cls-1" d="M226.53,196.39a2.22,2.22,0,1,0-2.22-2.22A2.21,2.21,0,0,0,226.53,196.39Z"/><path class="cls-1" d="M234.62,196.1a1.93,1.93,0,1,0-1.93-1.93A1.92,1.92,0,0,0,234.62,196.1Z"/><path class="cls-1" d="M242.71,195.79a1.62,1.62,0,1,0-1.61-1.62A1.62,1.62,0,0,0,242.71,195.79Z"/><path class="cls-1" d="M250.8,195.45a1.28,1.28,0,1,0-1.28-1.28A1.28,1.28,0,0,0,250.8,195.45Z"/><path class="cls-1" d="M258.89,195.14a1,1,0,1,0-1-1A1,1,0,0,0,258.89,195.14Z"/><path class="cls-1" d="M267,194.8a.63.63,0,1,0-.63-.63A.63.63,0,0,0,267,194.8Z"/><path class="cls-1" d="M275.07,194.49a.32.32,0,1,0-.31-.32A.31.31,0,0,0,275.07,194.49Z"/><path class="cls-1" d="M283.16,194.22a0,0,0,0,0,0-.05,0,0,0,0,0,0,0,0,0,0,0,0-.05,0A0,0,0,0,0,283.16,194.22Z"/><path class="cls-1" d="M16.2,202.42a.16.16,0,0,0,.16-.16.16.16,0,0,0-.32,0A.16.16,0,0,0,16.2,202.42Z"/><path class="cls-1" d="M24.29,202.73a.47.47,0,1,0-.47-.47A.47.47,0,0,0,24.29,202.73Z"/><path class="cls-1" d="M32.38,203.05a.79.79,0,1,0,0-1.57.79.79,0,0,0,0,1.57Z"/><path class="cls-1" d="M40.47,203.36a1.1,1.1,0,1,0-1.1-1.1A1.1,1.1,0,0,0,40.47,203.36Z"/><path class="cls-1" d="M48.56,203.68a1.42,1.42,0,1,0-1.41-1.42A1.42,1.42,0,0,0,48.56,203.68Z"/><path class="cls-1" d="M56.65,204a1.71,1.71,0,1,0-1.71-1.71A1.71,1.71,0,0,0,56.65,204Z"/><path class="cls-1" d="M64.74,204.28a2,2,0,1,0-2-2A2,2,0,0,0,64.74,204.28Z"/><path class="cls-1" d="M72.83,204.55a2.29,2.29,0,1,0-2.29-2.29A2.29,2.29,0,0,0,72.83,204.55Z"/><path class="cls-1" d="M80.92,204.84a2.58,2.58,0,1,0-2.58-2.58A2.58,2.58,0,0,0,80.92,204.84Z"/><path class="cls-1" d="M89,205.09a2.83,2.83,0,1,0-2.83-2.83A2.83,2.83,0,0,0,89,205.09Z"/><path class="cls-1" d="M97.1,205.34A3.08,3.08,0,1,0,94,202.26,3.07,3.07,0,0,0,97.1,205.34Z"/><path class="cls-1" d="M105.19,205.56a3.3,3.3,0,1,0-3.3-3.3A3.29,3.29,0,0,0,105.19,205.56Z"/><path class="cls-1" d="M113.28,205.74a3.48,3.48,0,1,0-3.48-3.48A3.47,3.47,0,0,0,113.28,205.74Z"/><path class="cls-1" d="M121.37,205.92a3.66,3.66,0,1,0-3.66-3.66A3.65,3.65,0,0,0,121.37,205.92Z"/><path class="cls-1" d="M129.46,206a3.77,3.77,0,1,0-3.77-3.77A3.76,3.76,0,0,0,129.46,206Z"/><path class="cls-1" d="M137.55,206.1a3.84,3.84,0,1,0-3.84-3.84A3.84,3.84,0,0,0,137.55,206.1Z"/><path class="cls-1" d="M145.64,206.14a3.88,3.88,0,1,0-3.89-3.88A3.88,3.88,0,0,0,145.64,206.14Z"/><path class="cls-1" d="M153.73,206.12a3.86,3.86,0,1,0-3.86-3.86A3.85,3.85,0,0,0,153.73,206.12Z"/><path class="cls-1" d="M161.81,206a3.77,3.77,0,1,0-3.76-3.77A3.77,3.77,0,0,0,161.81,206Z"/><path class="cls-1" d="M169.9,205.92a3.66,3.66,0,1,0-3.65-3.66A3.66,3.66,0,0,0,169.9,205.92Z"/><circle class="cls-1" cx="177.99" cy="202.26" r="3.5"/><path class="cls-1" d="M186.08,205.58a3.32,3.32,0,1,0-3.32-3.32A3.31,3.31,0,0,0,186.08,205.58Z"/><path class="cls-1" d="M194.17,205.36a3.1,3.1,0,1,0-3.09-3.1A3.1,3.1,0,0,0,194.17,205.36Z"/><circle class="cls-1" cx="202.26" cy="202.26" r="2.85"/><path class="cls-1" d="M210.35,204.86a2.6,2.6,0,1,0-2.6-2.6A2.59,2.59,0,0,0,210.35,204.86Z"/><path class="cls-1" d="M218.44,204.57a2.31,2.31,0,1,0-2.31-2.31A2.3,2.3,0,0,0,218.44,204.57Z"/><path class="cls-1" d="M226.53,204.3a2,2,0,1,0-2-2A2,2,0,0,0,226.53,204.3Z"/><path class="cls-1" d="M234.62,204a1.75,1.75,0,1,0-1.75-1.75A1.75,1.75,0,0,0,234.62,204Z"/><path class="cls-1" d="M242.71,203.7a1.44,1.44,0,1,0-1.43-1.44A1.44,1.44,0,0,0,242.71,203.7Z"/><path class="cls-1" d="M250.8,203.38a1.12,1.12,0,1,0-1.12-1.12A1.12,1.12,0,0,0,250.8,203.38Z"/><path class="cls-1" d="M258.89,203.07a.81.81,0,1,0-.81-.81A.81.81,0,0,0,258.89,203.07Z"/><path class="cls-1" d="M267,202.76a.5.5,0,1,0-.49-.5A.49.49,0,0,0,267,202.76Z"/><path class="cls-1" d="M275.07,202.44a.18.18,0,1,0-.18-.18A.18.18,0,0,0,275.07,202.44Z"/><path class="cls-1" d="M16.2,210.4a0,0,0,0,0,.05-.05,0,0,0,0,0-.05,0,0,0,0,0,0,0,0A0,0,0,0,0,16.2,210.4Z"/><path class="cls-1" d="M24.29,210.67a.32.32,0,1,0,0-.63.32.32,0,0,0,0,.63Z"/><path class="cls-1" d="M32.38,211a.63.63,0,0,0,.63-.63.63.63,0,1,0-1.26,0A.63.63,0,0,0,32.38,211Z"/><path class="cls-1" d="M40.47,211.27a.92.92,0,1,0-.92-.92A.92.92,0,0,0,40.47,211.27Z"/><path class="cls-1" d="M48.56,211.59a1.24,1.24,0,1,0-1.23-1.24A1.24,1.24,0,0,0,48.56,211.59Z"/><path class="cls-1" d="M56.65,211.88a1.53,1.53,0,1,0-1.53-1.53A1.54,1.54,0,0,0,56.65,211.88Z"/><path class="cls-1" d="M64.74,212.15a1.8,1.8,0,1,0-1.8-1.8A1.8,1.8,0,0,0,64.74,212.15Z"/><path class="cls-1" d="M72.83,212.42a2.07,2.07,0,1,0-2.07-2.07A2.07,2.07,0,0,0,72.83,212.42Z"/><circle class="cls-1" cx="80.92" cy="210.35" r="2.33"/><path class="cls-1" d="M89,212.93a2.58,2.58,0,1,0-2.58-2.58A2.58,2.58,0,0,0,89,212.93Z"/><path class="cls-1" d="M97.1,213.16a2.81,2.81,0,1,0-2.81-2.81A2.8,2.8,0,0,0,97.1,213.16Z"/><path class="cls-1" d="M105.19,213.36a3,3,0,1,0-3-3A3,3,0,0,0,105.19,213.36Z"/><path class="cls-1" d="M113.28,213.52a3.17,3.17,0,1,0-3.17-3.17A3.17,3.17,0,0,0,113.28,213.52Z"/><path class="cls-1" d="M121.37,213.67a3.32,3.32,0,1,0-3.32-3.32A3.32,3.32,0,0,0,121.37,213.67Z"/><path class="cls-1" d="M129.46,213.78a3.43,3.43,0,1,0-3.44-3.43A3.43,3.43,0,0,0,129.46,213.78Z"/><circle class="cls-1" cx="137.55" cy="210.35" r="3.5"/><path class="cls-1" d="M145.64,213.87a3.52,3.52,0,1,0-3.53-3.52A3.52,3.52,0,0,0,145.64,213.87Z"/><circle class="cls-1" cx="153.73" cy="210.35" r="3.5"/><path class="cls-1" d="M161.81,213.78a3.43,3.43,0,1,0-3.43-3.43A3.43,3.43,0,0,0,161.81,213.78Z"/><path class="cls-1" d="M169.9,213.67a3.32,3.32,0,1,0-3.32-3.32A3.31,3.31,0,0,0,169.9,213.67Z"/><path class="cls-1" d="M178,213.54a3.19,3.19,0,1,0-3.18-3.19A3.19,3.19,0,0,0,178,213.54Z"/><path class="cls-1" d="M186.08,213.36a3,3,0,1,0-3-3A3,3,0,0,0,186.08,213.36Z"/><path class="cls-1" d="M194.17,213.16a2.81,2.81,0,1,0-2.8-2.81A2.81,2.81,0,0,0,194.17,213.16Z"/><path class="cls-1" d="M202.26,213a2.6,2.6,0,1,0-2.6-2.6A2.59,2.59,0,0,0,202.26,213Z"/><path class="cls-1" d="M210.35,212.71a2.36,2.36,0,1,0-2.35-2.36A2.36,2.36,0,0,0,210.35,212.71Z"/><path class="cls-1" d="M218.44,212.44a2.09,2.09,0,1,0-2.08-2.09A2.1,2.1,0,0,0,218.44,212.44Z"/><path class="cls-1" d="M226.53,212.17a1.82,1.82,0,1,0-1.82-1.82A1.82,1.82,0,0,0,226.53,212.17Z"/><path class="cls-1" d="M234.62,211.9a1.55,1.55,0,1,0-1.55-1.55A1.54,1.54,0,0,0,234.62,211.9Z"/><path class="cls-1" d="M242.71,211.61a1.26,1.26,0,1,0-1.26-1.26A1.26,1.26,0,0,0,242.71,211.61Z"/><path class="cls-1" d="M250.8,211.32a1,1,0,1,0-1-1A1,1,0,0,0,250.8,211.32Z"/><circle class="cls-1" cx="258.89" cy="210.35" r="0.65"/><path class="cls-1" d="M267,210.69a.34.34,0,1,0-.34-.34A.34.34,0,0,0,267,210.69Z"/><path class="cls-1" d="M275.07,210.42a.07.07,0,0,0,.07-.07.07.07,0,0,0-.14,0A.07.07,0,0,0,275.07,210.42Z"/><path class="cls-1" d="M24.29,218.58a.14.14,0,0,0,.14-.14.13.13,0,0,0-.14-.13.13.13,0,0,0-.13.13A.13.13,0,0,0,24.29,218.58Z"/><path class="cls-1" d="M32.38,218.89a.45.45,0,1,0-.45-.45A.45.45,0,0,0,32.38,218.89Z"/><path class="cls-1" d="M40.47,219.18a.74.74,0,1,0-.74-.74A.74.74,0,0,0,40.47,219.18Z"/><path class="cls-1" d="M48.56,219.47a1,1,0,1,0-1-1A1,1,0,0,0,48.56,219.47Z"/><path class="cls-1" d="M56.65,219.74a1.3,1.3,0,1,0-1.3-1.3A1.3,1.3,0,0,0,56.65,219.74Z"/><path class="cls-1" d="M64.74,220a1.57,1.57,0,1,0-1.57-1.57A1.57,1.57,0,0,0,64.74,220Z"/><path class="cls-1" d="M72.83,220.28A1.84,1.84,0,1,0,71,218.44,1.84,1.84,0,0,0,72.83,220.28Z"/><path class="cls-1" d="M80.92,220.53a2.09,2.09,0,1,0-2.09-2.09A2.09,2.09,0,0,0,80.92,220.53Z"/><path class="cls-1" d="M89,220.75a2.31,2.31,0,1,0-2.31-2.31A2.31,2.31,0,0,0,89,220.75Z"/><path class="cls-1" d="M97.1,221a2.51,2.51,0,1,0-2.51-2.51A2.51,2.51,0,0,0,97.1,221Z"/><path class="cls-1" d="M105.19,221.13a2.69,2.69,0,1,0-2.69-2.69A2.69,2.69,0,0,0,105.19,221.13Z"/><circle class="cls-1" cx="113.28" cy="218.44" r="2.85"/><path class="cls-1" d="M121.37,221.43a3,3,0,1,0-3-3A3,3,0,0,0,121.37,221.43Z"/><path class="cls-1" d="M129.46,221.52a3.08,3.08,0,1,0-3.08-3.08A3.08,3.08,0,0,0,129.46,221.52Z"/><path class="cls-1" d="M137.55,221.58a3.14,3.14,0,1,0-3.14-3.14A3.14,3.14,0,0,0,137.55,221.58Z"/><path class="cls-1" d="M145.64,221.6a3.16,3.16,0,1,0-3.17-3.16A3.16,3.16,0,0,0,145.64,221.6Z"/><path class="cls-1" d="M153.73,221.58a3.14,3.14,0,1,0-3.15-3.14A3.14,3.14,0,0,0,153.73,221.58Z"/><path class="cls-1" d="M161.81,221.54a3.1,3.1,0,1,0-3.09-3.1A3.1,3.1,0,0,0,161.81,221.54Z"/><path class="cls-1" d="M169.9,221.45a3,3,0,1,0-3-3A3,3,0,0,0,169.9,221.45Z"/><path class="cls-1" d="M178,221.31a2.87,2.87,0,1,0-2.87-2.87A2.87,2.87,0,0,0,178,221.31Z"/><path class="cls-1" d="M186.08,221.16a2.72,2.72,0,1,0-2.71-2.72A2.72,2.72,0,0,0,186.08,221.16Z"/><path class="cls-1" d="M194.17,221a2.54,2.54,0,1,0-2.53-2.54A2.54,2.54,0,0,0,194.17,221Z"/><path class="cls-1" d="M202.26,220.75a2.31,2.31,0,1,0-2.31-2.31A2.3,2.3,0,0,0,202.26,220.75Z"/><path class="cls-1" d="M210.35,220.53a2.09,2.09,0,1,0-2.08-2.09A2.1,2.1,0,0,0,210.35,220.53Z"/><path class="cls-1" d="M218.44,220.3a1.86,1.86,0,1,0-1.86-1.86A1.86,1.86,0,0,0,218.44,220.3Z"/><path class="cls-1" d="M226.53,220a1.59,1.59,0,1,0-1.59-1.59A1.59,1.59,0,0,0,226.53,220Z"/><path class="cls-1" d="M234.62,219.77a1.33,1.33,0,1,0-1.32-1.33A1.33,1.33,0,0,0,234.62,219.77Z"/><path class="cls-1" d="M242.71,219.5a1.06,1.06,0,1,0-1.05-1.06A1.06,1.06,0,0,0,242.71,219.5Z"/><path class="cls-1" d="M250.8,219.2a.76.76,0,1,0-.76-.76A.76.76,0,0,0,250.8,219.2Z"/><path class="cls-1" d="M258.89,218.91a.47.47,0,1,0-.47-.47A.47.47,0,0,0,258.89,218.91Z"/><path class="cls-1" d="M267,218.62a.18.18,0,1,0-.18-.18A.18.18,0,0,0,267,218.62Z"/><path class="cls-1" d="M24.29,226.55a0,0,0,0,0,0,0,0,0,0,0,0,0,0l0,0Z"/><path class="cls-1" d="M32.38,226.78a.25.25,0,0,0,.25-.25.25.25,0,0,0-.5,0A.25.25,0,0,0,32.38,226.78Z"/><path class="cls-1" d="M40.47,227.07a.54.54,0,1,0-.54-.54A.54.54,0,0,0,40.47,227.07Z"/><path class="cls-1" d="M48.56,227.34a.81.81,0,1,0-.81-.81A.81.81,0,0,0,48.56,227.34Z"/><path class="cls-1" d="M56.65,227.61a1.08,1.08,0,1,0-1.08-1.08A1.08,1.08,0,0,0,56.65,227.61Z"/><path class="cls-1" d="M64.74,227.86a1.33,1.33,0,1,0-1.32-1.33A1.33,1.33,0,0,0,64.74,227.86Z"/><path class="cls-1" d="M72.83,228.1a1.57,1.57,0,1,0-1.57-1.57A1.57,1.57,0,0,0,72.83,228.1Z"/><path class="cls-1" d="M80.92,228.33a1.8,1.8,0,1,0-1.8-1.8A1.8,1.8,0,0,0,80.92,228.33Z"/><path class="cls-1" d="M89,228.55a2,2,0,1,0-2-2A2,2,0,0,0,89,228.55Z"/><path class="cls-1" d="M97.1,228.75a2.22,2.22,0,1,0-2.22-2.22A2.22,2.22,0,0,0,97.1,228.75Z"/><path class="cls-1" d="M105.19,228.91a2.38,2.38,0,1,0-2.38-2.38A2.39,2.39,0,0,0,105.19,228.91Z"/><path class="cls-1" d="M113.28,229.07a2.54,2.54,0,1,0-2.54-2.54A2.54,2.54,0,0,0,113.28,229.07Z"/><path class="cls-1" d="M121.37,229.18a2.65,2.65,0,1,0-2.65-2.65A2.65,2.65,0,0,0,121.37,229.18Z"/><path class="cls-1" d="M129.46,229.27a2.74,2.74,0,1,0-2.74-2.74A2.74,2.74,0,0,0,129.46,229.27Z"/><path class="cls-1" d="M137.55,229.31a2.78,2.78,0,1,0-2.79-2.78A2.78,2.78,0,0,0,137.55,229.31Z"/><path class="cls-1" d="M145.64,229.36a2.83,2.83,0,1,0-2.83-2.83A2.83,2.83,0,0,0,145.64,229.36Z"/><path class="cls-1" d="M153.73,229.34a2.81,2.81,0,1,0-2.81-2.81A2.81,2.81,0,0,0,153.73,229.34Z"/><path class="cls-1" d="M161.81,229.27a2.74,2.74,0,1,0-2.73-2.74A2.74,2.74,0,0,0,161.81,229.27Z"/><path class="cls-1" d="M169.9,229.18a2.65,2.65,0,1,0-2.64-2.65A2.65,2.65,0,0,0,169.9,229.18Z"/><path class="cls-1" d="M178,229.07a2.54,2.54,0,1,0-2.53-2.54A2.54,2.54,0,0,0,178,229.07Z"/><path class="cls-1" d="M186.08,228.93a2.4,2.4,0,1,0-2.4-2.4A2.39,2.39,0,0,0,186.08,228.93Z"/><path class="cls-1" d="M194.17,228.75a2.22,2.22,0,1,0-2.22-2.22A2.21,2.21,0,0,0,194.17,228.75Z"/><path class="cls-1" d="M202.26,228.57a2,2,0,1,0-2-2A2,2,0,0,0,202.26,228.57Z"/><path class="cls-1" d="M210.35,228.35a1.82,1.82,0,1,0-1.81-1.82A1.81,1.81,0,0,0,210.35,228.35Z"/><path class="cls-1" d="M218.44,228.12a1.59,1.59,0,1,0-1.59-1.59A1.59,1.59,0,0,0,218.44,228.12Z"/><path class="cls-1" d="M226.53,227.88a1.35,1.35,0,1,0,0-2.69,1.35,1.35,0,0,0,0,2.69Z"/><path class="cls-1" d="M234.62,227.63a1.1,1.1,0,1,0-1.1-1.1A1.1,1.1,0,0,0,234.62,227.63Z"/><path class="cls-1" d="M242.71,227.36a.83.83,0,1,0-.83-.83A.83.83,0,0,0,242.71,227.36Z"/><path class="cls-1" d="M250.8,227.09a.56.56,0,1,0-.56-.56A.56.56,0,0,0,250.8,227.09Z"/><path class="cls-1" d="M258.89,226.8a.27.27,0,1,0-.27-.27A.27.27,0,0,0,258.89,226.8Z"/><path class="cls-1" d="M267,226.58a0,0,0,0,0,0-.05,0,0,0,0,0,0,0,0,0,0,0,0-.05,0A0,0,0,0,0,267,226.58Z"/><path class="cls-1" d="M32.38,234.69a.07.07,0,1,0-.07-.07A.07.07,0,0,0,32.38,234.69Z"/><path class="cls-1" d="M40.47,234.94a.32.32,0,0,0,.31-.32.31.31,0,0,0-.62,0A.32.32,0,0,0,40.47,234.94Z"/><path class="cls-1" d="M48.56,235.2a.58.58,0,1,0-.58-.58A.58.58,0,0,0,48.56,235.2Z"/><path class="cls-1" d="M56.65,235.45a.83.83,0,1,0-.83-.83A.83.83,0,0,0,56.65,235.45Z"/><path class="cls-1" d="M64.74,235.7a1.08,1.08,0,1,0-1.08-1.08A1.08,1.08,0,0,0,64.74,235.7Z"/><path class="cls-1" d="M72.83,235.92a1.3,1.3,0,1,0-1.3-1.3A1.3,1.3,0,0,0,72.83,235.92Z"/><path class="cls-1" d="M80.92,236.15a1.53,1.53,0,1,0-1.53-1.53A1.53,1.53,0,0,0,80.92,236.15Z"/><path class="cls-1" d="M89,236.35a1.73,1.73,0,1,0-1.73-1.73A1.73,1.73,0,0,0,89,236.35Z"/><path class="cls-1" d="M97.1,236.53a1.91,1.91,0,1,0-1.91-1.91A1.91,1.91,0,0,0,97.1,236.53Z"/><path class="cls-1" d="M105.19,236.68a2.06,2.06,0,1,0-2.07-2.06A2.06,2.06,0,0,0,105.19,236.68Z"/><path class="cls-1" d="M113.28,236.82a2.2,2.2,0,1,0-2.2-2.2A2.2,2.2,0,0,0,113.28,236.82Z"/><path class="cls-1" d="M121.37,236.93a2.31,2.31,0,1,0-2.31-2.31A2.31,2.31,0,0,0,121.37,236.93Z"/><path class="cls-1" d="M129.46,237a2.4,2.4,0,1,0-2.4-2.4A2.4,2.4,0,0,0,129.46,237Z"/><path class="cls-1" d="M137.55,237.07a2.45,2.45,0,1,0-2.45-2.45A2.45,2.45,0,0,0,137.55,237.07Z"/><path class="cls-1" d="M145.64,237.09a2.47,2.47,0,1,0-2.47-2.47A2.47,2.47,0,0,0,145.64,237.09Z"/><path class="cls-1" d="M153.73,237.07a2.45,2.45,0,1,0-2.45-2.45A2.45,2.45,0,0,0,153.73,237.07Z"/><path class="cls-1" d="M161.81,237a2.4,2.4,0,1,0-2.4-2.4A2.39,2.39,0,0,0,161.81,237Z"/><path class="cls-1" d="M169.9,236.93a2.31,2.31,0,1,0-2.31-2.31A2.3,2.3,0,0,0,169.9,236.93Z"/><path class="cls-1" d="M178,236.84a2.22,2.22,0,1,0-2.22-2.22A2.21,2.21,0,0,0,178,236.84Z"/><path class="cls-1" d="M186.08,236.71a2.09,2.09,0,1,0-2.08-2.09A2.09,2.09,0,0,0,186.08,236.71Z"/><path class="cls-1" d="M194.17,236.55a1.93,1.93,0,1,0-1.93-1.93A1.92,1.92,0,0,0,194.17,236.55Z"/><path class="cls-1" d="M202.26,236.37a1.75,1.75,0,1,0-1.75-1.75A1.75,1.75,0,0,0,202.26,236.37Z"/><path class="cls-1" d="M210.35,236.17a1.55,1.55,0,1,0-1.55-1.55A1.54,1.54,0,0,0,210.35,236.17Z"/><path class="cls-1" d="M218.44,235.94a1.32,1.32,0,1,0-1.32-1.32A1.33,1.33,0,0,0,218.44,235.94Z"/><path class="cls-1" d="M226.53,235.72a1.1,1.1,0,1,0-1.1-1.1A1.1,1.1,0,0,0,226.53,235.72Z"/><path class="cls-1" d="M234.62,235.47a.85.85,0,1,0-.85-.85A.85.85,0,0,0,234.62,235.47Z"/><path class="cls-1" d="M242.71,235.23a.61.61,0,1,0-.61-.61A.61.61,0,0,0,242.71,235.23Z"/><path class="cls-1" d="M250.8,235a.34.34,0,0,0,.34-.34.34.34,0,1,0-.68,0A.34.34,0,0,0,250.8,235Z"/><path class="cls-1" d="M258.89,234.71a.09.09,0,1,0-.09-.09A.09.09,0,0,0,258.89,234.71Z"/><path class="cls-1" d="M40.47,242.8a.09.09,0,1,0-.09-.09A.09.09,0,0,0,40.47,242.8Z"/><path class="cls-1" d="M48.56,243.05a.34.34,0,1,0-.34-.34A.34.34,0,0,0,48.56,243.05Z"/><path class="cls-1" d="M56.65,243.29a.58.58,0,1,0-.58-.58A.58.58,0,0,0,56.65,243.29Z"/><path class="cls-1" d="M64.74,243.52a.81.81,0,1,0-.81-.81A.81.81,0,0,0,64.74,243.52Z"/><path class="cls-1" d="M72.83,243.74a1,1,0,1,0-1-1A1,1,0,0,0,72.83,243.74Z"/><path class="cls-1" d="M80.92,243.94a1.23,1.23,0,1,0-1.24-1.23A1.23,1.23,0,0,0,80.92,243.94Z"/><path class="cls-1" d="M89,244.15a1.44,1.44,0,1,0-1.44-1.44A1.44,1.44,0,0,0,89,244.15Z"/><path class="cls-1" d="M97.1,244.3a1.59,1.59,0,1,0-1.59-1.59A1.59,1.59,0,0,0,97.1,244.3Z"/><path class="cls-1" d="M105.19,244.46a1.75,1.75,0,1,0-1.75-1.75A1.75,1.75,0,0,0,105.19,244.46Z"/><path class="cls-1" d="M113.28,244.57a1.86,1.86,0,1,0-1.86-1.86A1.86,1.86,0,0,0,113.28,244.57Z"/><path class="cls-1" d="M121.37,244.68a2,2,0,1,0-2-2A2,2,0,0,0,121.37,244.68Z"/><path class="cls-1" d="M129.46,244.75a2,2,0,1,0-2.05-2A2,2,0,0,0,129.46,244.75Z"/><path class="cls-1" d="M137.55,244.8a2.09,2.09,0,1,0-2.09-2.09A2.09,2.09,0,0,0,137.55,244.8Z"/><path class="cls-1" d="M145.64,244.82a2.11,2.11,0,1,0-2.11-2.11A2.1,2.1,0,0,0,145.64,244.82Z"/><path class="cls-1" d="M153.73,244.8a2.09,2.09,0,1,0-2.09-2.09A2.09,2.09,0,0,0,153.73,244.8Z"/><path class="cls-1" d="M161.81,244.75a2,2,0,1,0-2-2A2,2,0,0,0,161.81,244.75Z"/><path class="cls-1" d="M169.9,244.68a2,2,0,1,0-2-2A2,2,0,0,0,169.9,244.68Z"/><path class="cls-1" d="M178,244.6a1.89,1.89,0,1,0-1.88-1.89A1.89,1.89,0,0,0,178,244.6Z"/><path class="cls-1" d="M186.08,244.46a1.75,1.75,0,1,0-1.75-1.75A1.75,1.75,0,0,0,186.08,244.46Z"/><path class="cls-1" d="M194.17,244.33a1.62,1.62,0,1,0-1.61-1.62A1.62,1.62,0,0,0,194.17,244.33Z"/><path class="cls-1" d="M202.26,244.15a1.44,1.44,0,1,0-1.43-1.44A1.44,1.44,0,0,0,202.26,244.15Z"/><path class="cls-1" d="M210.35,244a1.26,1.26,0,1,0-1.25-1.26A1.26,1.26,0,0,0,210.35,244Z"/><path class="cls-1" d="M218.44,243.77a1.06,1.06,0,1,0,0-2.11,1.06,1.06,0,0,0,0,2.11Z"/><path class="cls-1" d="M226.53,243.54a.83.83,0,1,0-.83-.83A.83.83,0,0,0,226.53,243.54Z"/><path class="cls-1" d="M234.62,243.32a.61.61,0,1,0-.6-.61A.61.61,0,0,0,234.62,243.32Z"/><path class="cls-1" d="M242.71,243.07a.36.36,0,1,0-.36-.36A.36.36,0,0,0,242.71,243.07Z"/><path class="cls-1" d="M250.8,242.82a.11.11,0,1,0-.11-.11A.11.11,0,0,0,250.8,242.82Z"/><path class="cls-1" d="M48.56,250.89a.09.09,0,1,0-.09-.09A.09.09,0,0,0,48.56,250.89Z"/><path class="cls-1" d="M56.65,251.11a.31.31,0,1,0-.31-.31A.31.31,0,0,0,56.65,251.11Z"/><path class="cls-1" d="M64.74,251.34a.54.54,0,1,0-.54-.54A.54.54,0,0,0,64.74,251.34Z"/><path class="cls-1" d="M72.83,251.54a.74.74,0,1,0-.74-.74A.74.74,0,0,0,72.83,251.54Z"/><path class="cls-1" d="M80.92,251.74a.94.94,0,1,0-.94-.94A.94.94,0,0,0,80.92,251.74Z"/><path class="cls-1" d="M89,251.92a1.12,1.12,0,1,0-1.12-1.12A1.12,1.12,0,0,0,89,251.92Z"/><path class="cls-1" d="M97.1,252.08a1.28,1.28,0,1,0-1.28-1.28A1.28,1.28,0,0,0,97.1,252.08Z"/><path class="cls-1" d="M105.19,252.21a1.41,1.41,0,1,0-1.42-1.41A1.41,1.41,0,0,0,105.19,252.21Z"/><path class="cls-1" d="M113.28,252.33a1.53,1.53,0,1,0-1.53-1.53A1.53,1.53,0,0,0,113.28,252.33Z"/><path class="cls-1" d="M121.37,252.42a1.62,1.62,0,1,0-1.62-1.62A1.62,1.62,0,0,0,121.37,252.42Z"/><circle class="cls-1" cx="129.46" cy="250.8" r="1.68"/><path class="cls-1" d="M137.55,252.53a1.73,1.73,0,1,0-1.73-1.73A1.73,1.73,0,0,0,137.55,252.53Z"/><path class="cls-1" d="M145.64,252.55a1.75,1.75,0,1,0-1.75-1.75A1.75,1.75,0,0,0,145.64,252.55Z"/><path class="cls-1" d="M153.73,252.53A1.73,1.73,0,1,0,152,250.8,1.73,1.73,0,0,0,153.73,252.53Z"/><path class="cls-1" d="M161.81,252.51a1.71,1.71,0,1,0-1.7-1.71A1.71,1.71,0,0,0,161.81,252.51Z"/><path class="cls-1" d="M169.9,252.44a1.64,1.64,0,1,0-1.63-1.64A1.64,1.64,0,0,0,169.9,252.44Z"/><path class="cls-1" d="M178,252.35a1.55,1.55,0,1,0-1.54-1.55A1.54,1.54,0,0,0,178,252.35Z"/><path class="cls-1" d="M186.08,252.24a1.44,1.44,0,1,0-1.43-1.44A1.44,1.44,0,0,0,186.08,252.24Z"/><path class="cls-1" d="M194.17,252.08a1.28,1.28,0,1,0-1.28-1.28A1.28,1.28,0,0,0,194.17,252.08Z"/><path class="cls-1" d="M202.26,251.92a1.12,1.12,0,1,0-1.12-1.12A1.12,1.12,0,0,0,202.26,251.92Z"/><path class="cls-1" d="M210.35,251.76a1,1,0,1,0-1-1A1,1,0,0,0,210.35,251.76Z"/><path class="cls-1" d="M218.44,251.56a.76.76,0,1,0-.76-.76A.76.76,0,0,0,218.44,251.56Z"/><path class="cls-1" d="M226.53,251.36a.56.56,0,1,0-.56-.56A.56.56,0,0,0,226.53,251.36Z"/><path class="cls-1" d="M234.62,251.14a.34.34,0,0,0,0-.68.34.34,0,0,0,0,.68Z"/><path class="cls-1" d="M242.71,250.91a.11.11,0,1,0-.11-.11A.11.11,0,0,0,242.71,250.91Z"/><path class="cls-1" d="M56.65,259a.07.07,0,1,0-.07-.07A.07.07,0,0,0,56.65,259Z"/><path class="cls-1" d="M64.74,259.14a.25.25,0,1,0-.25-.25A.25.25,0,0,0,64.74,259.14Z"/><path class="cls-1" d="M72.83,259.34a.45.45,0,1,0-.45-.45A.45.45,0,0,0,72.83,259.34Z"/><path class="cls-1" d="M80.92,259.52a.63.63,0,1,0-.63-.63A.63.63,0,0,0,80.92,259.52Z"/><path class="cls-1" d="M89,259.7a.81.81,0,1,0-.81-.81A.81.81,0,0,0,89,259.7Z"/><path class="cls-1" d="M97.1,259.83a.94.94,0,1,0-.94-.94A.94.94,0,0,0,97.1,259.83Z"/><path class="cls-1" d="M105.19,260a1.08,1.08,0,1,0-1.08-1.08A1.08,1.08,0,0,0,105.19,260Z"/><path class="cls-1" d="M113.28,260.08a1.19,1.19,0,1,0-1.19-1.19A1.19,1.19,0,0,0,113.28,260.08Z"/><path class="cls-1" d="M121.37,260.17a1.28,1.28,0,1,0-1.28-1.28A1.28,1.28,0,0,0,121.37,260.17Z"/><path class="cls-1" d="M129.46,260.24a1.35,1.35,0,1,0-1.35-1.35A1.35,1.35,0,0,0,129.46,260.24Z"/><path class="cls-1" d="M137.55,260.28a1.39,1.39,0,1,0-1.4-1.39A1.39,1.39,0,0,0,137.55,260.28Z"/><path class="cls-1" d="M145.64,260.3a1.41,1.41,0,1,0-1.42-1.41A1.41,1.41,0,0,0,145.64,260.3Z"/><path class="cls-1" d="M153.73,260.28a1.39,1.39,0,1,0-1.4-1.39A1.39,1.39,0,0,0,153.73,260.28Z"/><path class="cls-1" d="M161.81,260.24a1.35,1.35,0,1,0-1.34-1.35A1.35,1.35,0,0,0,161.81,260.24Z"/><path class="cls-1" d="M169.9,260.17a1.28,1.28,0,1,0-1.27-1.28A1.28,1.28,0,0,0,169.9,260.17Z"/><path class="cls-1" d="M178,260.1a1.21,1.21,0,1,0-1.21-1.21A1.22,1.22,0,0,0,178,260.1Z"/><path class="cls-1" d="M186.08,260a1.1,1.1,0,1,0-1.1-1.1A1.1,1.1,0,0,0,186.08,260Z"/><path class="cls-1" d="M194.17,259.85a1,1,0,1,0-1-1A1,1,0,0,0,194.17,259.85Z"/><path class="cls-1" d="M202.26,259.7a.81.81,0,1,0-.8-.81A.81.81,0,0,0,202.26,259.7Z"/><circle class="cls-1" cx="210.35" cy="258.89" r="0.65"/><path class="cls-1" d="M218.44,259.36a.47.47,0,1,0-.47-.47A.47.47,0,0,0,218.44,259.36Z"/><path class="cls-1" d="M226.53,259.16a.27.27,0,1,0-.27-.27A.27.27,0,0,0,226.53,259.16Z"/><path class="cls-1" d="M234.62,259a.09.09,0,1,0-.09-.09A.09.09,0,0,0,234.62,259Z"/><path class="cls-1" d="M64.74,267l0,0a0,0,0,0,0,0,0l0,0Z"/><path class="cls-1" d="M72.83,267.14a.16.16,0,1,0-.16-.16A.16.16,0,0,0,72.83,267.14Z"/><path class="cls-1" d="M80.92,267.32a.34.34,0,1,0-.34-.34A.34.34,0,0,0,80.92,267.32Z"/><path class="cls-1" d="M89,267.47a.49.49,0,1,0,0-1,.49.49,0,1,0,0,1Z"/><path class="cls-1" d="M97.1,267.61a.63.63,0,1,0,0-1.26.63.63,0,0,0,0,1.26Z"/><path class="cls-1" d="M105.19,267.72a.74.74,0,1,0-.74-.74A.74.74,0,0,0,105.19,267.72Z"/><path class="cls-1" d="M113.28,267.83a.85.85,0,1,0,0-1.7.85.85,0,1,0,0,1.7Z"/><path class="cls-1" d="M121.37,267.92a.94.94,0,1,0-1-.94A.94.94,0,0,0,121.37,267.92Z"/><path class="cls-1" d="M129.46,268a1,1,0,1,0-1-1A1,1,0,0,0,129.46,268Z"/><path class="cls-1" d="M137.55,268a1,1,0,1,0-1-1A1,1,0,0,0,137.55,268Z"/><path class="cls-1" d="M145.64,268a1.05,1.05,0,1,0-1.06-1A1,1,0,0,0,145.64,268Z"/><path class="cls-1" d="M153.73,268a1,1,0,1,0-1-1A1,1,0,0,0,153.73,268Z"/><path class="cls-1" d="M161.81,268a1,1,0,1,0-1-1A1,1,0,0,0,161.81,268Z"/><path class="cls-1" d="M169.9,267.92A.94.94,0,1,0,169,267,.95.95,0,0,0,169.9,267.92Z"/><path class="cls-1" d="M178,267.83a.85.85,0,1,0,0-1.7.85.85,0,0,0,0,1.7Z"/><path class="cls-1" d="M186.08,267.74a.76.76,0,1,0,0-1.52.76.76,0,1,0,0,1.52Z"/><path class="cls-1" d="M194.17,267.61a.63.63,0,0,0,0-1.26.63.63,0,1,0,0,1.26Z"/><path class="cls-1" d="M202.26,267.47a.49.49,0,1,0-.49-.49A.49.49,0,0,0,202.26,267.47Z"/><path class="cls-1" d="M210.35,267.32A.34.34,0,1,0,210,267,.34.34,0,0,0,210.35,267.32Z"/><path class="cls-1" d="M218.44,267.16a.18.18,0,1,0-.18-.18A.18.18,0,0,0,218.44,267.16Z"/><path class="cls-1" d="M226.53,267a0,0,0,0,0,.05,0,0,0,0,0,0-.05-.05,0,0,0,0,0,0,.05A0,0,0,0,0,226.53,267Z"/><path class="cls-1" d="M80.92,275.11a0,0,0,0,0,0,0,0,0,0,0,0,0-.05,0,0,0,0,0,0,.05A0,0,0,0,0,80.92,275.11Z"/><path class="cls-1" d="M89,275.23a.16.16,0,1,0,0-.32.16.16,0,0,0,0,.32Z"/><path class="cls-1" d="M97.1,275.36a.29.29,0,1,0-.29-.29A.29.29,0,0,0,97.1,275.36Z"/><path class="cls-1" d="M105.19,275.47a.4.4,0,1,0-.41-.4A.4.4,0,0,0,105.19,275.47Z"/><path class="cls-1" d="M113.28,275.59a.52.52,0,0,0,.51-.52.52.52,0,1,0-1,0A.52.52,0,0,0,113.28,275.59Z"/><path class="cls-1" d="M121.37,275.65a.58.58,0,1,0-.59-.58A.58.58,0,0,0,121.37,275.65Z"/><circle class="cls-1" cx="129.46" cy="275.07" r="0.65"/><path class="cls-1" d="M137.55,275.74a.67.67,0,1,0-.68-.67A.67.67,0,0,0,137.55,275.74Z"/><path class="cls-1" d="M145.64,275.76a.69.69,0,0,0,.69-.69.7.7,0,1,0-.69.69Z"/><path class="cls-1" d="M153.73,275.74a.67.67,0,1,0-.68-.67A.67.67,0,0,0,153.73,275.74Z"/><circle class="cls-1" cx="161.81" cy="275.07" r="0.65"/><path class="cls-1" d="M169.9,275.65a.58.58,0,1,0-.58-.58A.58.58,0,0,0,169.9,275.65Z"/><path class="cls-1" d="M178,275.59a.52.52,0,0,0,.52-.52.52.52,0,1,0-.52.52Z"/><path class="cls-1" d="M186.08,275.5a.43.43,0,0,0,.43-.43.43.43,0,1,0-.85,0A.43.43,0,0,0,186.08,275.5Z"/><path class="cls-1" d="M194.17,275.38a.31.31,0,1,0-.31-.31A.31.31,0,0,0,194.17,275.38Z"/><path class="cls-1" d="M202.26,275.25a.18.18,0,1,0-.18-.18A.18.18,0,0,0,202.26,275.25Z"/><path class="cls-1" d="M210.35,275.14a.07.07,0,0,0,0-.14.07.07,0,0,0,0,.14Z"/><path class="cls-1" d="M97.1,283.18l0,0a0,0,0,0,0,0,0,0,0,0,0,0,0,0Z"/><path class="cls-1" d="M105.19,283.25a.09.09,0,1,0-.09-.09A.09.09,0,0,0,105.19,283.25Z"/><path class="cls-1" d="M113.28,283.34a.18.18,0,1,0-.18-.18A.18.18,0,0,0,113.28,283.34Z"/><path class="cls-1" d="M121.37,283.41a.25.25,0,1,0-.25-.25A.25.25,0,0,0,121.37,283.41Z"/><path class="cls-1" d="M129.46,283.45a.29.29,0,1,0,0-.58.29.29,0,1,0,0,.58Z"/><path class="cls-1" d="M137.55,283.47a.31.31,0,0,0,.31-.31.32.32,0,1,0-.63,0A.31.31,0,0,0,137.55,283.47Z"/><path class="cls-1" d="M145.64,283.5a.34.34,0,0,0,.33-.34.34.34,0,1,0-.67,0A.34.34,0,0,0,145.64,283.5Z"/><path class="cls-1" d="M153.73,283.5a.34.34,0,0,0,.33-.34.34.34,0,1,0-.67,0A.34.34,0,0,0,153.73,283.5Z"/><path class="cls-1" d="M161.81,283.45a.29.29,0,1,0-.29-.29A.29.29,0,0,0,161.81,283.45Z"/><path class="cls-1" d="M169.9,283.41a.25.25,0,1,0-.24-.25A.25.25,0,0,0,169.9,283.41Z"/><path class="cls-1" d="M178,283.34a.18.18,0,1,0-.18-.18A.18.18,0,0,0,178,283.34Z"/><path class="cls-1" d="M186.08,283.25a.09.09,0,1,0-.09-.09A.09.09,0,0,0,186.08,283.25Z"/><path class="cls-1" d="M194.17,283.2a0,0,0,0,0,.05,0,0,0,0,0,0-.05-.05,0,0,0,0,0,0,.05A0,0,0,0,0,194.17,283.2Z"/><path class="cls-1" d="M129.46,291.27l0,0,0,0s0,0,0,0S129.44,291.27,129.46,291.27Z"/><path class="cls-1" d="M137.55,291.27l0,0,0,0s0,0,0,0S137.53,291.27,137.55,291.27Z"/><path class="cls-1" d="M145.64,291.29a0,0,0,0,0,0,0,0,0,0,0,0,0-.05,0,0,0,0,0,0,.05A0,0,0,0,0,145.64,291.29Z"/><path class="cls-1" d="M153.73,291.27l0,0,0,0s0,0,0,0S153.71,291.27,153.73,291.27Z"/><path class="cls-1" d="M161.81,291.27s0,0,0,0,0,0,0,0l0,0Z"/></g></g></svg>