<svg xmlns="http://www.w3.org/2000/svg" viewBox="0 0 112.44 97.61"><defs><style>.cls-1{fill:#010101;}</style></defs><title>Asset 159mdpi</title><g id="Layer_2" data-name="Layer 2"><g id="Layer_1-2" data-name="Layer 1"><path class="cls-1" d="M5.91,40.08a1.45,1.45,0,0,1,1.51.09,7.81,7.81,0,0,0,5.9,1.22,1.46,1.46,0,1,1,.59,2.86,10.6,10.6,0,0,1-8.16-1.68,1.46,1.46,0,0,1-.36-2A1.42,1.42,0,0,1,5.91,40.08Z"/><path class="cls-1" d="M94.86,38.52A1.46,1.46,0,0,1,97,39.94,95.93,95.93,0,0,1,94.14,56.6a1.46,1.46,0,0,1-1.78,1,1.48,1.48,0,0,1-1-1.79A93.17,93.17,0,0,0,94.07,39.7,1.45,1.45,0,0,1,94.86,38.52Z"/><path class="cls-1" d="M84.88,72.12a1.47,1.47,0,0,1,1.6.17,14.41,14.41,0,0,0,8.72,3.26,1.46,1.46,0,1,1-.07,2.92,17.35,17.35,0,0,1-10.51-3.92,1.47,1.47,0,0,1-.2-2.06A1.63,1.63,0,0,1,84.88,72.12Z"/><path class="cls-1" d="M81.87,56.88a1.46,1.46,0,0,1,1.83.41,43.59,43.59,0,0,0,8.18,8.16,1.46,1.46,0,0,1-1.77,2.33,46.46,46.46,0,0,1-8.73-8.71,1.46,1.46,0,0,1,.27-2A1.64,1.64,0,0,1,81.87,56.88Z"/><path class="cls-1" d="M78,67.66a1.46,1.46,0,0,1,1.9,2.09A75.71,75.71,0,0,1,67.35,84.47a1.46,1.46,0,1,1-2-2.16,73.4,73.4,0,0,0,12-14.15A1.53,1.53,0,0,1,78,67.66Z"/><path class="cls-1" d="M81.85,91.94l.1,0,11.31-4.83a1.46,1.46,0,0,1,1.15,2.69L83.09,94.58a1.46,1.46,0,0,1-1.91-.77A1.44,1.44,0,0,1,81.85,91.94Z"/><path class="cls-1" d="M103.41,40.07a1.43,1.43,0,0,1,1.7.27L111,46.25a1.46,1.46,0,0,1-2.07,2.07L103,42.4a1.46,1.46,0,0,1,0-2.07A1.27,1.27,0,0,1,103.41,40.07Z"/><path class="cls-1" d="M28,77.88a1.46,1.46,0,0,1,1.78.34l5.18,6a1.46,1.46,0,0,1-2.22,1.91l-5.18-6a1.48,1.48,0,0,1,.16-2.07A1.67,1.67,0,0,1,28,77.88Z"/><path class="cls-1" d="M80.38,79.21a1.44,1.44,0,0,1,1.47.07,1.46,1.46,0,0,1,.43,2l-3.29,5a1.46,1.46,0,0,1-2.45-1.6l3.29-5A1.44,1.44,0,0,1,80.38,79.21Z"/><path class="cls-1" d="M12.24,57.38a1.44,1.44,0,0,1,1.34,0,27.18,27.18,0,0,0,12.9,3,1.47,1.47,0,0,1,0,2.93A30.06,30.06,0,0,1,12.24,60a1.45,1.45,0,0,1,0-2.59Z"/><path class="cls-1" d="M82.85,44.27a1.46,1.46,0,0,1,2.09,1.66,13.91,13.91,0,0,1-5.88,8.21,1.46,1.46,0,0,1-1.59-2.46,10.86,10.86,0,0,0,4.63-6.46A1.48,1.48,0,0,1,82.85,44.27Z"/><path class="cls-1" d="M48.21,76.38a1.45,1.45,0,0,1,1.93.56,54.41,54.41,0,0,0,6.67,9,1.46,1.46,0,1,1-2.15,2,56.93,56.93,0,0,1-7-9.51,1.46,1.46,0,0,1,.52-2Z"/><path class="cls-1" d="M40.18,77.56a1.88,1.88,0,0,1,.42-.14,1.46,1.46,0,0,1,1.69,1.19l1.45,8.22a1.46,1.46,0,0,1-2.88.51l-1.45-8.22A1.48,1.48,0,0,1,40.18,77.56Z"/><path class="cls-1" d="M81,34.85a1.39,1.39,0,0,1,.62-.16l6.71-.22a1.46,1.46,0,1,1,.1,2.92l-6.71.22A1.46,1.46,0,0,1,81,34.85Z"/><path class="cls-1" d="M86.56,16.56a1.48,1.48,0,0,1,.79-.16,19.37,19.37,0,0,1,9.37,3.35,1.46,1.46,0,0,1-1.65,2.41,16.44,16.44,0,0,0-8-2.85,1.46,1.46,0,0,1-.55-2.75Z"/><path class="cls-1" d="M104.18,73.24a1.51,1.51,0,0,1,.87-.15,1.48,1.48,0,0,1,1.26,1.65,19.2,19.2,0,0,1-5.24,10.77A1.47,1.47,0,0,1,99,83.46a16.19,16.19,0,0,0,4.44-9.11A1.46,1.46,0,0,1,104.18,73.24Z"/><path class="cls-1" d="M110.3,54.18a1.49,1.49,0,0,1,1.59.16,1.46,1.46,0,0,1,.23,2A47.55,47.55,0,0,1,98.9,67.84a1.46,1.46,0,0,1-1.48-2.52,44.7,44.7,0,0,0,12.41-10.75A1.72,1.72,0,0,1,110.3,54.18Z"/><path class="cls-1" d="M101.19,22a2,2,0,0,1,.37-.13A1.46,1.46,0,0,1,103.29,23a39.15,39.15,0,0,1,.79,10.24,1.46,1.46,0,0,1-2.92-.16,36.4,36.4,0,0,0-.73-9.48A1.47,1.47,0,0,1,101.19,22Z"/><path class="cls-1" d="M54.62,68.89a1.45,1.45,0,0,1,1-.13L66,71a1.46,1.46,0,1,1-.62,2.85L55,71.61a1.45,1.45,0,0,1-1.11-1.74A1.43,1.43,0,0,1,54.62,68.89Z"/><path class="cls-1" d="M11.42,47.48a1.45,1.45,0,0,1,2.1,1.58,28.88,28.88,0,0,1-3.25,8.75,1.46,1.46,0,1,1-2.54-1.45,26,26,0,0,0,2.92-7.87A1.48,1.48,0,0,1,11.42,47.48Z"/><path class="cls-1" d="M20.35,65.17a1.49,1.49,0,0,1,1.42,0,37,37,0,0,0,19.32,5.12,1.46,1.46,0,0,1,.06,2.92,39.36,39.36,0,0,1-20.87-5.52,1.47,1.47,0,0,1,.07-2.56Z"/><path class="cls-1" d="M5.91,14a1.45,1.45,0,0,1,2,.61,41.34,41.34,0,0,0,7.8,10.31,1.46,1.46,0,1,1-2,2.11A44.12,44.12,0,0,1,5.29,16a1.46,1.46,0,0,1,.6-2Z"/><path class="cls-1" d="M67.76,51.63a1.44,1.44,0,0,1,1.17-.07,1.46,1.46,0,0,1,.88,1.87,47.52,47.52,0,0,1-7.43,13.3,1.47,1.47,0,0,1-2.3-1.82,44.28,44.28,0,0,0,7-12.48A1.42,1.42,0,0,1,67.76,51.63Z"/><path class="cls-1" d="M68.2,88.93a1.46,1.46,0,0,1,1.52,2.49A59,59,0,0,1,59,97.48a1.45,1.45,0,0,1-1.92-.75,1.47,1.47,0,0,1,.76-1.93A56.62,56.62,0,0,0,68,89Z"/><path class="cls-1" d="M25.32,52.13a1.45,1.45,0,0,1,1.33,0,64.91,64.91,0,0,1,11.88,7.73,1.47,1.47,0,0,1-1.86,2.27,61.52,61.52,0,0,0-11.34-7.39,1.46,1.46,0,0,1-.64-2A1.37,1.37,0,0,1,25.32,52.13Z"/><path class="cls-1" d="M73.73,38.2a1.46,1.46,0,0,1,1.46,2.53L65.37,47a1.46,1.46,0,1,1-1.57-2.46l9.81-6.29Z"/><path class="cls-1" d="M37.72,51.82a1.7,1.7,0,0,1,.45-.15,22.93,22.93,0,0,1,8.58.25,1.46,1.46,0,1,1-.62,2.85,20.56,20.56,0,0,0-7.5-.21,1.46,1.46,0,0,1-.91-2.74Z"/><path class="cls-1" d="M19.17,37.83a1.43,1.43,0,0,1,1.08-.11,1.47,1.47,0,0,1,1,1.81,28,28,0,0,0-.35,14.1,1.46,1.46,0,0,1-2.85.67,30.93,30.93,0,0,1,.39-15.58A1.39,1.39,0,0,1,19.17,37.83Z"/><path class="cls-1" d="M67.64,23.63a1.39,1.39,0,0,1,.61-.17L80.55,23a1.46,1.46,0,1,1,.12,2.92l-12.3.51a1.46,1.46,0,0,1-.73-2.75Z"/><path class="cls-1" d="M51.21,36.9h0a1.46,1.46,0,0,1,2,.66A57.89,57.89,0,0,1,58.1,51.62a1.46,1.46,0,0,1-2.86.6,54.89,54.89,0,0,0-4.66-13.36A1.47,1.47,0,0,1,51.21,36.9Z"/><path class="cls-1" d="M45.22,29.74a1.46,1.46,0,0,1,1.92,2.06L38.25,46.35a1.47,1.47,0,0,1-2.5-1.53l8.9-14.54A1.41,1.41,0,0,1,45.22,29.74Z"/><path class="cls-1" d="M.79,25.29a1.75,1.75,0,0,1,.32-.12,1.46,1.46,0,0,1,1.77,1.07L5.51,37a1.46,1.46,0,1,1-2.84.69L0,26.94A1.47,1.47,0,0,1,.79,25.29Z"/><path class="cls-1" d="M57.76,18.18a1.43,1.43,0,0,1,.92-.14,1.47,1.47,0,0,1,1.2,1.69,14.55,14.55,0,0,0,3.31,11.74A1.46,1.46,0,1,1,61,33.4a17.35,17.35,0,0,1-4-14.16A1.49,1.49,0,0,1,57.76,18.18Z"/><path class="cls-1" d="M40.12,18.7a8.59,8.59,0,0,1,9.17.76,1.46,1.46,0,0,1-1.83,2.28,5.7,5.7,0,0,0-7.54.79,1.46,1.46,0,1,1-2.26-1.85A7.58,7.58,0,0,1,40.12,18.7Z"/><path class="cls-1" d="M27.68,28.6a1.19,1.19,0,0,1,.26-.11,1.46,1.46,0,0,1,1.82,1,27.85,27.85,0,0,1,1.08,10.07,1.46,1.46,0,1,1-2.91-.21,25.25,25.25,0,0,0-1-9A1.44,1.44,0,0,1,27.68,28.6Z"/><path class="cls-1" d="M69.58.22a1.44,1.44,0,0,1,1.1-.1,15.52,15.52,0,0,1,8.95,7.22,1.46,1.46,0,0,1-.56,2,1.48,1.48,0,0,1-2-.57,12.62,12.62,0,0,0-7.25-5.85A1.46,1.46,0,0,1,69.58.22Z"/><path class="cls-1" d="M81.43,11.58l.07,0A27.47,27.47,0,0,1,92.61,9.12a1.46,1.46,0,0,1,0,2.92,24.65,24.65,0,0,0-9.93,2.17,1.46,1.46,0,0,1-1.27-2.63Z"/><path class="cls-1" d="M59.62,4.61a1.45,1.45,0,0,1,1.85.44,46.19,46.19,0,0,1,4.85,8.33,1.46,1.46,0,0,1-2.66,1.2,43.5,43.5,0,0,0-4.55-7.81,1.48,1.48,0,0,1,.32-2Z"/><path class="cls-1" d="M11,32.92l.07,0,11.22-5.05a1.46,1.46,0,1,1,1.2,2.67l-11.22,5A1.46,1.46,0,0,1,11,32.92Z"/><path class="cls-1" d="M34.42,13.83a1.5,1.5,0,0,1,1.26,0,1.47,1.47,0,0,1,.75,1.93,42.83,42.83,0,0,1-4.62,8A1.47,1.47,0,1,1,29.45,22a39.22,39.22,0,0,0,4.31-7.42A1.43,1.43,0,0,1,34.42,13.83Z"/><path class="cls-1" d="M40.08,4.36A40.16,40.16,0,0,1,55,0a1.46,1.46,0,1,1,.25,2.91A37.24,37.24,0,0,0,40.42,7.5,1.46,1.46,0,1,1,39,5C39.35,4.74,39.71,4.55,40.08,4.36Z"/><path class="cls-1" d="M14.89,6.18a1.33,1.33,0,0,1,.24-.1A1.46,1.46,0,0,1,17,7l2.41,7.71a1.46,1.46,0,0,1-2.79.87L14.17,7.91A1.45,1.45,0,0,1,14.89,6.18Z"/><path class="cls-1" d="M25.88,13.16a1.49,1.49,0,0,1,1.6.16,1.47,1.47,0,0,1,.21,2.06l-6.1,7.52a1.46,1.46,0,0,1-2.27-1.84l6.1-7.52A1.51,1.51,0,0,1,25.88,13.16Z"/><path class="cls-1" d="M53.76,55.57a1.46,1.46,0,0,1,2,1.93,48.69,48.69,0,0,1-6.25,9.85,1.46,1.46,0,0,1-2.27-1.85,45.92,45.92,0,0,0,5.88-9.26A1.46,1.46,0,0,1,53.76,55.57Z"/><path class="cls-1" d="M73.34,9a1.46,1.46,0,0,1,2.09,1.67l-1.55,6a1.46,1.46,0,0,1-2.83-.74l1.55-6A1.48,1.48,0,0,1,73.34,9Z"/><path class="cls-1" d="M29,.6c.3-.15.59-.3.89-.43A1.46,1.46,0,1,1,31.1,2.82,17.92,17.92,0,0,0,24.53,8a1.46,1.46,0,0,1-2.29-1.82A20.89,20.89,0,0,1,29,.6Z"/><path class="cls-1" d="M10.54,11.28a1.46,1.46,0,0,1,1.83.4L14.18,14a1.47,1.47,0,0,1-2.32,1.79l-1.81-2.34a1.46,1.46,0,0,1,.27-2.05A1,1,0,0,1,10.54,11.28Z"/><path class="cls-1" d="M101.9,50.92a1.44,1.44,0,0,1,1.25-.05,1.47,1.47,0,0,1,.76,1.93l-1,2.37A1.46,1.46,0,1,1,100.21,54l1-2.37A1.47,1.47,0,0,1,101.9,50.92Z"/><path class="cls-1" d="M87.56,24.39a1.47,1.47,0,0,1,1.89.5,5.84,5.84,0,0,0,2.92,2.28,1.46,1.46,0,0,1-1,2.76A8.77,8.77,0,0,1,87,26.5a1.46,1.46,0,0,1,.41-2Z"/><path class="cls-1" d="M71.25,61.33a1.48,1.48,0,0,1,1.19-.07l3.13,1.19a1.47,1.47,0,1,1-1,2.74L71.4,64a1.46,1.46,0,0,1-.15-2.67Z"/><path class="cls-1" d="M51.92,89.51a1.81,1.81,0,0,1,.43-.14A1.46,1.46,0,0,1,54,90.56l.52,3a1.46,1.46,0,1,1-2.88.5l-.52-3A1.46,1.46,0,0,1,51.92,89.51Z"/><path class="cls-1" d="M47.34,8.84a.67.67,0,0,1,.21-.09,1.46,1.46,0,0,1,1.85.92l.76,2.26a1.46,1.46,0,1,1-2.77.93l-.76-2.26A1.45,1.45,0,0,1,47.34,8.84Z"/><path class="cls-1" d="M4,24.59a1.45,1.45,0,0,1,1.59.16L6,25a1.46,1.46,0,0,1-1.83,2.28L3.8,27A1.46,1.46,0,0,1,3.58,25,1.51,1.51,0,0,1,4,24.59Z"/><path class="cls-1" d="M110.07,64.54a1.46,1.46,0,0,1,2.13,1.25,6.73,6.73,0,0,1-1,3.78A1.46,1.46,0,0,1,108.7,68a3.82,3.82,0,0,0,.58-2.13A1.46,1.46,0,0,1,110.07,64.54Z"/><path class="cls-1" d="M82.35,4.15a1.46,1.46,0,0,1,2,.63l.35.66a1.46,1.46,0,1,1-2.6,1.35l-.35-.67A1.46,1.46,0,0,1,82.35,4.15Z"/><path class="cls-1" d="M32.11,7.33a1.46,1.46,0,0,1,1.53.12l1,.74a1.46,1.46,0,0,1-1.72,2.37l-1-.75a1.46,1.46,0,0,1-.32-2A1.43,1.43,0,0,1,32.11,7.33Z"/></g></g></svg>