<svg xmlns="http://www.w3.org/2000/svg" viewBox="0 0 53.43 53.43"><defs><style>.cls-1{fill:#010101;}</style></defs><title>Asset 170mdpi</title><g id="Layer_2" data-name="Layer 2"><g id="Layer_1-2" data-name="Layer 1"><path class="cls-1" d="M18.57,1.24a1.4,1.4,0,0,1,1.75.9h0a1.4,1.4,0,0,1-.91,1.75h0A1.39,1.39,0,0,1,17.66,3h0a1.41,1.41,0,0,1,.82-1.72h0ZM13.91,4.77a1.38,1.38,0,0,1-.41,1.92h0a1.39,1.39,0,0,1-1.92-.4h0A1.4,1.4,0,0,1,12,4.36h0l.26-.13h0A1.4,1.4,0,0,1,13.91,4.77ZM25.75,0a1.39,1.39,0,0,1,1.44,1.34h0a1.39,1.39,0,0,1-1.34,1.44h0a1.4,1.4,0,0,1-1.44-1.35h0A1.4,1.4,0,0,1,25.29.09h0A1.79,1.79,0,0,1,25.75,0ZM8.45,9a1.4,1.4,0,0,1,.13,2h0a1.38,1.38,0,0,1-2,.13h0a1.39,1.39,0,0,1-.14-2h0A1.52,1.52,0,0,1,7,8.77H7A1.42,1.42,0,0,1,8.45,9ZM33,.75a1.4,1.4,0,0,1,1,1.68h0a1.39,1.39,0,0,1-1.68,1h0a1.39,1.39,0,0,1-1-1.68h0a1.39,1.39,0,0,1,.85-1h0A1.41,1.41,0,0,1,33,.75ZM4.34,14.59A1.39,1.39,0,0,1,5,16.44H5a1.4,1.4,0,0,1-1.86.66h0a1.39,1.39,0,0,1-.65-1.85h0a1.3,1.3,0,0,1,.74-.7h0A1.39,1.39,0,0,1,4.34,14.59ZM39.79,3.43a1.39,1.39,0,0,1,.53,1.89h0a1.39,1.39,0,0,1-1.9.53h0A1.39,1.39,0,0,1,37.89,4h0a1.47,1.47,0,0,1,.71-.62h0A1.39,1.39,0,0,1,39.79,3.43ZM1.88,21.06A1.39,1.39,0,0,1,3,22.67H3A1.39,1.39,0,0,1,1.4,23.8h0A1.39,1.39,0,0,1,.27,22.19h0a1.42,1.42,0,0,1,.86-1.06h0A1.36,1.36,0,0,1,1.88,21.06ZM45.6,7.83h0a1.39,1.39,0,0,1,0,2h0a1.39,1.39,0,0,1-2,0h0a1.4,1.4,0,0,1,0-2h0a1.24,1.24,0,0,1,.48-.31h0A1.37,1.37,0,0,1,45.6,7.83ZM1.25,28A1.39,1.39,0,0,1,2.77,29.2h0a1.38,1.38,0,0,1-1.24,1.52h0A1.39,1.39,0,0,1,0,29.48H0A1.39,1.39,0,0,1,.88,28h0A1.54,1.54,0,0,1,1.25,28ZM50,13.64h0a1.38,1.38,0,0,1-.53,1.89h0A1.38,1.38,0,0,1,47.58,15h0a1.38,1.38,0,0,1,.53-1.89h0l.17-.09h0A1.39,1.39,0,0,1,50,13.64ZM4.32,35.54l0,.05h0v0h0a1.39,1.39,0,0,1-.78,1.8h0a1.39,1.39,0,0,1-1.8-.78h0l0,0h0l0,0h0a1.39,1.39,0,0,1,.79-1.8h0A1.38,1.38,0,0,1,4.32,35.54ZM51,19.4a1.38,1.38,0,0,1,1.68,1h0a1.4,1.4,0,0,1-1,1.68h0a1.38,1.38,0,0,1-1.68-1h0a1.39,1.39,0,0,1,.84-1.63h0ZM7.56,41.32a1.39,1.39,0,0,1-.26,1.94h0A1.39,1.39,0,0,1,5.35,43h0a1.39,1.39,0,0,1,.26-2h0a1.57,1.57,0,0,1,.33-.19h0A1.4,1.4,0,0,1,7.56,41.32ZM52.09,26.23a1.39,1.39,0,0,1,1.34,1.44h0A1.38,1.38,0,0,1,52,29h0a1.39,1.39,0,0,1-1.34-1.43h0a1.39,1.39,0,0,1,.88-1.25h0A1.5,1.5,0,0,1,52.09,26.23ZM12.19,45.92a1.4,1.4,0,0,1,.27,1.95h0a1.39,1.39,0,0,1-2,.27h0a1.39,1.39,0,0,1-.27-1.94h0a1.33,1.33,0,0,1,.6-.46h0A1.4,1.4,0,0,1,12.19,45.92Zm39.1-12.81a1.39,1.39,0,0,1,.9,1.75h0a1.38,1.38,0,0,1-1.75.9h0a1.39,1.39,0,0,1-.9-1.75h0a1.39,1.39,0,0,1,.82-.87h0A1.41,1.41,0,0,1,51.29,33.11Zm-33.4,16a1.39,1.39,0,0,1,.79,1.8h0a1.39,1.39,0,0,1-1.8.79h0a1.39,1.39,0,0,1-.78-1.8h0a1.38,1.38,0,0,1,.78-.79h0A1.43,1.43,0,0,1,17.89,49.11Zm30.77-9.59a1.39,1.39,0,0,1,.41,1.92h0a1.39,1.39,0,0,1-1.93.4h0a1.39,1.39,0,0,1-.4-1.92h0a1.34,1.34,0,0,1,.65-.53h0A1.37,1.37,0,0,1,48.66,39.52ZM24.24,50.65a1.39,1.39,0,0,1,1.24,1.53h0A1.38,1.38,0,0,1,24,53.42h0a1.38,1.38,0,0,1-1.24-1.52h0a1.39,1.39,0,0,1,.87-1.16h0A1.56,1.56,0,0,1,24.24,50.65ZM44.42,45a1.4,1.4,0,0,1-.13,2h0a1.39,1.39,0,0,1-2-.13h0a1.38,1.38,0,0,1,.13-2h0a1.61,1.61,0,0,1,.41-.25h0A1.42,1.42,0,0,1,44.42,45Zm-5.57,4.11a1.39,1.39,0,0,1-.66,1.85h0a1.38,1.38,0,0,1-1.85-.65h0A1.39,1.39,0,0,1,37,48.43h0l.09,0h0A1.4,1.4,0,0,1,38.85,49.09Z"/></g></g></svg>