<?xml version="1.0" encoding="utf-8"?>
<!-- Generator: Adobe Illustrator 24.0.0, SVG Export Plug-In . SVG Version: 6.00 Build 0)  -->
<svg version="1.1" id="Layer_1" xmlns="http://www.w3.org/2000/svg" xmlns:xlink="http://www.w3.org/1999/xlink" x="0px" y="0px"
	 viewBox="0 0 398.3 164.3" style="enable-background:new 0 0 398.3 164.3;" xml:space="preserve">
<style type="text/css">
	.st0{fill:none;stroke:#000000;stroke-width:1.25;stroke-linecap:round;stroke-miterlimit:10;}
	.st1{fill:#FFFFFF;}
</style>
<title>Asset 28</title>
<g id="Layer_2_1_">
	<g id="Layer_1-2">
		<g id="a55d5dc1-40dd-44d0-a3c3-0e6ac9461fed">
			<g id="a55d5dc1-40dd-44d0-a3c3-0e6ac9461fed-child-0">
				<path d="M397.2,0.6h-3.7v57h3.7V0.6z M391.2,57.6h-2.1v-57h2.1V57.6z M387.7,57.6h-2.1v-57h2.1V57.6z M382.8,57.6h-4.6v-57h4.6
					V57.6z M374.6,57.6h-2.3v-57h2.3V57.6z M368.7,57.6h-9.5v-57h9.5V57.6z M344,57.6h-3.1v-57h3.1L344,57.6z M338.1,0.6v57h-4.2
					v-57H338.1z M355.4,57.6h-2.1v-57h2.1V57.6z M350.4,57.6h-2v-57h2V57.6z"/>
			</g>
		</g>
		<g id="d73a3407-7b93-4f17-a7e1-5bc3f4ba6f09">
			<g id="d73a3407-7b93-4f17-a7e1-5bc3f4ba6f09-child-0">
				<path d="M267.5,0.6h3.7v57h-3.7V0.6z M273.5,57.6h2.1v-57h-2.1V57.6z M277.1,57.6h2.1v-57h-2.1V57.6z M281.9,57.6h4.6v-57H282
					L281.9,57.6z M290.2,57.6h2.3v-57h-2.3L290.2,57.6z M296,57.6h9.5v-57H296V57.6z M320.8,57.6h3.1v-57h-3.1V57.6z M326.6,0.6v57
					h4.2v-57L326.6,0.6z M309.3,57.6h2.1v-57h-2.1V57.6z M314.3,57.6h2v-57h-2V57.6z"/>
			</g>
		</g>
		<g id="_84a63764-d9ff-4159-add9-f77a0a764df8">
			<g id="_84a63764-d9ff-4159-add9-f77a0a764df8-child-0">
				<path class="st0" d="M120.5,139V73.2h132V139H120.5z"/>
			</g>
		</g>
		<g id="_0adf871f-54e8-4f8c-a139-16137a592b80">
			<g id="cdddb781-da99-4c3d-bf48-f4182c5232f6">
				<path d="M0,40.7h3.7v0.9H0V40.7z M5.7,36.8h1.2l1.4,5.4l1.4-5.4h1.1l1.4,5.3l1.4-5.3h1.1l-1.9,6.8h-1.2l-1.4-5.2l-1.4,5.2H7.5
					L5.7,36.8z M14.6,41.2c0-1.4,1.2-2.6,2.6-2.6s2.6,1.2,2.6,2.6c0,1.4-1.2,2.6-2.6,2.6c-1.4,0-2.6-1.1-2.6-2.5
					C14.6,41.3,14.6,41.2,14.6,41.2L14.6,41.2z M18.7,41.2c-0.1-0.8-0.8-1.5-1.6-1.4c-0.8,0.1-1.5,0.8-1.4,1.6
					c0.1,0.8,0.7,1.4,1.5,1.4C18.1,42.8,18.7,42.1,18.7,41.2C18.7,41.2,18.7,41.2,18.7,41.2L18.7,41.2z M20.6,38.7h1v0.6
					c0.3-0.5,0.8-0.8,1.3-0.7h0.3v0.9h-0.4c-0.6,0-1.1,0.4-1.1,1c0,0.1,0,0.1,0,0.2v2.8h-1L20.6,38.7z M23.7,36.7h1v6.9h-1V36.7z
					 M25.5,41.2c0-1.4,1-2.5,2.4-2.6c0,0,0.1,0,0.1,0c0.6,0,1.2,0.2,1.6,0.7v-2.5h1v6.9h-1V43c-0.4,0.5-1,0.8-1.6,0.8
					c-1.4,0-2.5-1.1-2.5-2.5C25.4,41.2,25.4,41.2,25.5,41.2L25.5,41.2z M29.6,41.2c-0.1-0.8-0.8-1.4-1.6-1.4
					c-0.8,0.1-1.4,0.8-1.4,1.6c0.1,0.8,0.7,1.3,1.4,1.4c0.8,0,1.5-0.7,1.5-1.5C29.5,41.3,29.5,41.2,29.6,41.2L29.6,41.2z M33,36.8
					h4.5v1h-3.4v2h3.2v1h-3.2v2h3.4v1H33V36.8z M39.4,41.2l-1.7-2.5h1.2l1.1,1.6l1.1-1.6h1.2l-1.7,2.5l1.7,2.5h-1.2L40,42l-1.1,1.7
					h-1.2L39.4,41.2z M42.8,38.7h1v0.6c0.4-0.5,1-0.8,1.7-0.7c1.4,0,2.6,1.2,2.6,2.6c0,1.4-1.2,2.6-2.6,2.6c-0.6,0-1.2-0.2-1.6-0.7
					v2.4h-1L42.8,38.7z M46.8,41.2c-0.1-0.8-0.8-1.5-1.6-1.4c-0.8,0.1-1.5,0.8-1.4,1.6c0.1,0.8,0.7,1.4,1.5,1.4
					c0.8,0,1.5-0.6,1.6-1.5C46.9,41.3,46.9,41.2,46.8,41.2L46.8,41.2z M48.7,36.7h1v6.9h-1V36.7z M50.5,41.2c0-1.4,1.2-2.6,2.6-2.6
					s2.6,1.2,2.6,2.6c0,1.4-1.2,2.6-2.6,2.6C51.7,43.8,50.5,42.6,50.5,41.2C50.5,41.2,50.5,41.2,50.5,41.2L50.5,41.2z M54.6,41.2
					c-0.1-0.8-0.8-1.5-1.6-1.4c-0.8,0.1-1.5,0.8-1.4,1.6c0.1,0.8,0.7,1.4,1.5,1.4c0.8,0,1.5-0.6,1.6-1.5
					C54.6,41.3,54.6,41.2,54.6,41.2L54.6,41.2z M56.4,38.7h1v0.6c0.3-0.5,0.8-0.8,1.3-0.7H59v0.9h-0.4c-0.6,0-1.1,0.4-1.1,1
					c0,0.1,0,0.1,0,0.2v2.8h-1L56.4,38.7z M59.3,41.2c-0.1-1.3,1-2.5,2.3-2.6c0,0,0.1,0,0.1,0c1.3-0.1,2.3,0.9,2.4,2.2
					c0,0.1,0,0.2,0,0.2c0,0.2,0,0.3,0,0.5h-3.7c0.1,0.8,0.7,1.4,1.5,1.4c0.5,0,0.9-0.3,1.2-0.7l0.8,0.4c-0.4,0.8-1.2,1.3-2.1,1.2
					c-1.4,0-2.5-1.1-2.5-2.4C59.3,41.3,59.3,41.2,59.3,41.2L59.3,41.2z M60.4,40.7H63c0-0.7-0.6-1.2-1.3-1.2c0,0,0,0,0,0
					C61.1,39.5,60.5,40,60.4,40.7L60.4,40.7z M64.9,38.7h1v0.6c0.3-0.5,0.8-0.8,1.3-0.7h0.3v0.9h-0.4c-0.6,0-1.1,0.5-1.1,1.1
					c0,0,0,0.1,0,0.1v2.8h-1L64.9,38.7z M0,52.6h3.7v0.9H0V52.6z M6.3,48.7h2.5c1.1-0.1,2.2,0.7,2.3,1.8c0,0.1,0,0.2,0,0.3
					c0,0.9-0.5,1.6-1.3,1.9l1.6,2.7h-1.2L8.7,53H7.3v2.6H6.3V48.7z M8.8,52c0.6,0.1,1.2-0.4,1.3-1.1c0.1-0.6-0.4-1.2-1.1-1.3
					c-0.1,0-0.1,0-0.2,0H7.3V52H8.8z M11.8,53.6v-3h1v3c0,0.6,0.4,1.1,1,1.1c0,0,0.1,0,0.1,0c0.6,0,1.1-0.5,1.1-1.1
					c0-0.1,0-0.1,0-0.2v-2.9h1v5h-1v-0.6c-0.3,0.5-0.8,0.8-1.4,0.7c-1,0-1.9-0.8-1.9-1.8C11.7,53.8,11.7,53.7,11.8,53.6L11.8,53.6z
					 M17,48.6h1v6.9h-1L17,48.6z M18.8,53.1c-0.1-1.3,1-2.5,2.3-2.6c0,0,0.1,0,0.1,0c1.3,0,2.3,1,2.4,2.2c0,0.1,0,0.1,0,0.2
					c0,0.2,0,0.3,0,0.5h-3.7c0,0.8,0.7,1.4,1.5,1.4c0.5,0,1-0.3,1.3-0.7l0.8,0.4c-0.4,0.8-1.2,1.3-2.1,1.2c-1.4,0-2.5-1.1-2.5-2.5
					C18.8,53.1,18.8,53.1,18.8,53.1L18.8,53.1z M19.9,52.6h2.6c0-0.7-0.6-1.2-1.3-1.2C20.6,51.4,20,51.9,19.9,52.6z M24.1,54.3
					l0.8-0.4c0.2,0.5,0.7,0.9,1.3,0.9c0.5,0,0.8-0.2,0.8-0.6s-0.4-0.5-0.7-0.6l-0.8-0.2c-0.9-0.3-1.3-0.8-1.3-1.4
					c0-0.9,0.8-1.5,1.7-1.5c0,0,0.1,0,0.1,0c0.9,0,1.6,0.5,2,1.3l-0.8,0.4c-0.2-0.5-0.7-0.8-1.2-0.8c-0.5,0-0.7,0.2-0.7,0.6
					s0.3,0.5,0.6,0.6l0.8,0.2c0.7,0.1,1.2,0.7,1.3,1.4c0,0.9-0.7,1.5-1.8,1.5C25.3,55.7,24.4,55.1,24.1,54.3L24.1,54.3z M34.1,55
					c-0.4,0.5-1,0.7-1.6,0.7c-1.4-0.1-2.5-1.3-2.4-2.7c0.1-1.3,1.1-2.3,2.4-2.4c0.6,0,1.3,0.2,1.7,0.7v-0.6h1v6.8h-1L34.1,55z
					 M34.1,53.1c-0.1-0.8-0.8-1.5-1.6-1.4c-0.8,0.1-1.5,0.8-1.4,1.6c0.1,0.8,0.7,1.4,1.5,1.4C33.4,54.7,34.1,54,34.1,53.1
					C34.1,53.1,34.1,53.1,34.1,53.1L34.1,53.1z M36,53.7v-3.1h1v3c0,0.6,0.4,1.1,1,1.1c0,0,0.1,0,0.1,0c0.6,0,1.1-0.5,1.1-1.1
					c0,0,0-0.1,0-0.1v-3h1v5h-1v-0.6c-0.3,0.5-0.8,0.8-1.4,0.7c-1,0-1.9-0.8-1.9-1.8C35.9,53.8,35.9,53.7,36,53.7L36,53.7z M41,53.1
					c-0.1-1.3,1-2.5,2.3-2.6c0,0,0.1,0,0.1,0c1.3,0,2.3,1,2.4,2.2c0,0.1,0,0.1,0,0.2c0,0.2,0,0.3,0,0.5h-3.7c0,0.8,0.7,1.4,1.5,1.4
					c0.5,0,1-0.3,1.3-0.7l0.8,0.4c-0.4,0.8-1.2,1.3-2.1,1.2c-1.4,0-2.5-1.1-2.5-2.5C41,53.1,41,53.1,41,53.1L41,53.1z M42.1,52.6
					h2.6c0-0.7-0.6-1.2-1.3-1.2C42.8,51.4,42.2,51.9,42.1,52.6z M46.3,54.3l0.8-0.4c0.2,0.5,0.7,0.9,1.3,0.9c0.5,0,0.8-0.2,0.8-0.6
					s-0.3-0.5-0.7-0.6l-0.8-0.2c-0.8-0.3-1.3-0.8-1.3-1.4c0-0.9,0.8-1.5,1.7-1.5c0,0,0.1,0,0.1,0c0.9-0.1,1.7,0.5,2,1.3l-0.8,0.4
					c-0.2-0.5-0.7-0.8-1.2-0.8c-0.5,0-0.7,0.2-0.7,0.6s0.3,0.5,0.6,0.6l0.8,0.2c0.7,0.1,1.2,0.7,1.3,1.4c0,0.9-0.7,1.5-1.8,1.5
					C47.5,55.7,46.7,55.2,46.3,54.3L46.3,54.3z M51.5,53.9v-2.4h-0.8v-0.9h0.1c0.4,0,0.7-0.3,0.7-0.6c0,0,0-0.1,0-0.1v-0.4h1v1.1
					h1.1v0.9h-1.1v2.3c0,0.5,0.2,0.8,0.8,0.8h0.3v0.9c-0.2,0-0.4,0-0.5,0c-0.8,0.1-1.6-0.5-1.6-1.3C51.6,54.2,51.6,54,51.5,53.9
					L51.5,53.9z M54.5,48.7h1v1.2h-1V48.7z M54.5,50.6h1v5h-1V50.6z M56.3,53.1c0-1.4,1.2-2.6,2.6-2.6s2.6,1.2,2.6,2.6
					c0,1.4-1.2,2.6-2.6,2.6c-1.4,0-2.5-1.1-2.6-2.5C56.3,53.1,56.3,53.1,56.3,53.1L56.3,53.1z M60.4,53.1c-0.1-0.8-0.8-1.5-1.6-1.4
					c-0.8,0.1-1.5,0.8-1.4,1.6c0.1,0.8,0.7,1.4,1.5,1.4C59.8,54.7,60.4,54,60.4,53.1C60.4,53.1,60.4,53.1,60.4,53.1L60.4,53.1z
					 M62.3,50.6h1v0.6c0.3-0.5,0.8-0.7,1.4-0.7c1,0,1.8,0.7,1.9,1.7c0,0,0,0.1,0,0.1v3.2h-1v-2.9c0.1-0.6-0.4-1.1-1-1.2
					c-0.6-0.1-1.1,0.4-1.2,1c0,0.1,0,0.1,0,0.2v2.9h-1L62.3,50.6z M67.2,53.1c-0.1-1.3,1-2.5,2.3-2.6c0,0,0.1,0,0.1,0
					c1.3,0,2.3,1,2.4,2.2c0,0.1,0,0.1,0,0.2c0,0.2,0,0.3-0.1,0.5h-3.7c0,0.8,0.7,1.4,1.4,1.4c0.5,0,1-0.3,1.3-0.7l0.8,0.4
					c-0.4,0.8-1.2,1.3-2.1,1.2c-1.4,0-2.5-1.1-2.5-2.5C67.2,53.1,67.2,53.1,67.2,53.1L67.2,53.1z M68.3,52.6h2.6
					c0-0.7-0.6-1.2-1.2-1.2c0,0,0,0,0,0C69,51.4,68.4,51.9,68.3,52.6L68.3,52.6z M72.8,50.6h1v0.6c0.3-0.5,0.8-0.7,1.3-0.7h0.3v0.9
					H75c-0.6,0-1.1,0.4-1.1,1c0,0.1,0,0.1,0,0.2v2.8h-1L72.8,50.6z M0,64.5h3.7v0.9H0V64.5z M6.1,64c0-1.9,1.5-3.5,3.3-3.5
					c0.1,0,0.1,0,0.2,0c1.9-0.1,3.6,1.3,3.8,3.2c0.1,1.9-1.3,3.6-3.2,3.8c-0.2,0-0.4,0-0.5,0c-1.9,0-3.5-1.5-3.5-3.4
					C6.1,64.1,6.1,64,6.1,64z M12,64c0-1.3-1.2-2.4-2.5-2.3s-2.4,1.2-2.3,2.5c0,1.3,1.1,2.3,2.4,2.3c1.3,0,2.4-1.1,2.4-2.4
					C12,64.1,12,64,12,64z M14,62.5h1v0.6c0.4-0.5,1-0.8,1.6-0.7c1.4,0,2.6,1.2,2.6,2.6s-1.2,2.6-2.6,2.6l0,0
					c-0.6,0-1.2-0.2-1.6-0.7v2.4h-1V62.5z M18,64.9c-0.1-0.8-0.8-1.5-1.6-1.4c-0.8,0.1-1.5,0.8-1.4,1.6c0.1,0.8,0.7,1.4,1.5,1.4
					C17.3,66.6,18,65.9,18,64.9C18,65,18,65,18,64.9z M19.8,62.5h1v0.6c0.4-0.5,1-0.8,1.6-0.7c1.4,0,2.6,1.2,2.6,2.6
					s-1.2,2.6-2.6,2.6l0,0c-0.6,0-1.2-0.2-1.6-0.7v2.4h-1L19.8,62.5z M23.9,64.9c-0.1-0.8-0.8-1.5-1.6-1.4c-0.8,0.1-1.5,0.8-1.4,1.6
					c0.1,0.8,0.7,1.4,1.5,1.4C23.2,66.6,23.9,65.9,23.9,64.9C23.9,65,23.9,65,23.9,64.9z M25.5,64.9c0-1.4,1.1-2.6,2.6-2.6
					c1.4,0,2.6,1.1,2.6,2.6s-1.1,2.6-2.6,2.6c0,0,0,0,0,0c-1.4,0-2.6-1.1-2.6-2.5C25.5,65,25.5,65,25.5,64.9z M29.6,64.9
					c-0.1-0.8-0.8-1.5-1.6-1.4c-0.8,0.1-1.5,0.8-1.4,1.6c0.1,0.8,0.7,1.4,1.5,1.4C29,66.6,29.6,65.9,29.6,64.9
					C29.6,65,29.6,65,29.6,64.9z M31.5,62.5h1v0.6c0.3-0.5,0.8-0.7,1.3-0.7h0.3v0.9h-0.4c-0.6,0-1.1,0.4-1.2,1c0,0.1,0,0.1,0,0.2
					v2.8h-1L31.5,62.5z M35.1,65.8v-2.4h-0.9v-0.9h0.1c0.4,0,0.7-0.2,0.7-0.6c0,0,0-0.1,0-0.1v-0.4h1v1.1h1.2v0.9h-1.1v2.3
					c-0.1,0.4,0.2,0.7,0.6,0.8c0.1,0,0.1,0,0.2,0c0.1,0,0.2,0,0.3,0v0.9c-0.2,0-0.4,0.1-0.6,0.1c-0.8,0.1-1.6-0.5-1.6-1.4
					C35.1,66,35.1,65.9,35.1,65.8L35.1,65.8z M38,65.5v-3h1v3c-0.1,0.5,0.3,1.1,0.9,1.1c0.1,0,0.1,0,0.2,0c0.6,0,1.1-0.4,1.1-1
					c0,0,0-0.1,0-0.1v-3h1v4.9h-1v-0.6c-0.3,0.5-0.8,0.8-1.4,0.7c-1,0-1.9-0.8-1.9-1.8C37.9,65.7,37.9,65.6,38,65.5L38,65.5z
					 M43.2,62.5h1v0.6c0.3-0.5,0.8-0.7,1.4-0.7c1,0,1.8,0.7,1.9,1.7c0,0,0,0.1,0,0.1v3.2h-1v-3c0.1-0.6-0.4-1.1-1-1.2
					c0,0-0.1,0-0.1,0c-0.6,0-1.1,0.5-1.1,1.1c0,0,0,0.1,0,0.1v2.9h-1L43.2,62.5z M48.3,60.7h1v1.2h-1V60.7z M48.3,62.5h1v4.9h-1
					V62.5z M50.9,65.8v-2.4H50v-0.9h0.1c0.4,0,0.7-0.2,0.7-0.6c0,0,0-0.1,0-0.1v-0.4h1v1.1H53v0.9h-1.1v2.3
					c-0.1,0.4,0.2,0.7,0.6,0.8c0.1,0,0.1,0,0.2,0c0.1,0,0.2,0,0.3,0v0.9c-0.2,0-0.4,0.1-0.6,0.1c-0.8,0.1-1.6-0.5-1.6-1.4
					C50.9,66,50.9,65.9,50.9,65.8L50.9,65.8z M53.6,69.3v-0.9c0.2,0,0.4,0.1,0.6,0.1c0.6,0,0.8-0.3,1-0.8l0.1-0.3l-2-4.9h1.1
					l1.4,3.6l1.4-3.6h1.1L56.2,68c-0.2,0.9-1,1.5-1.9,1.5C54,69.5,53.8,69.4,53.6,69.3L53.6,69.3z M60.2,60.5h1V63
					c0.3-0.4,0.8-0.7,1.3-0.6c1,0,1.8,0.7,1.9,1.7c0,0,0,0.1,0,0.1v3.2h-1v-2.9c0.1-0.6-0.4-1.1-1-1.2s-1.1,0.4-1.2,1
					c0,0.1,0,0.1,0,0.2v2.9h-1L60.2,60.5z M65.2,65.6v-3h1v3c0,0.6,0.4,1.1,1,1.1c0,0,0.1,0,0.1,0c0.6,0,1.1-0.4,1.1-1
					c0,0,0-0.1,0-0.1v-3h1v4.9h-1v-0.6c-0.3,0.5-0.8,0.8-1.4,0.7c-1,0-1.8-0.8-1.9-1.8C65.1,65.7,65.1,65.6,65.2,65.6L65.2,65.6z
					 M70.4,62.6h1v0.6c0.3-0.5,0.8-0.7,1.4-0.7c1,0,1.8,0.7,1.9,1.7c0,0,0,0.1,0,0.1v3.2h-1v-3c0.1-0.6-0.4-1.1-1-1.2
					c-0.6-0.1-1.1,0.4-1.2,1c0,0.1,0,0.1,0,0.2v2.9h-1L70.4,62.6z M76,65.9v-2.5h-0.8v-0.9h0.1c0.4,0,0.7-0.2,0.7-0.6
					c0,0,0-0.1,0-0.1v-0.4h1v1.1h1.1v0.9h-1.1v2.3c-0.1,0.4,0.2,0.7,0.6,0.8c0.1,0,0.1,0,0.2,0c0.1,0,0.2,0,0.3,0v0.9
					c-0.2,0-0.4,0.1-0.6,0.1c-0.8,0.1-1.6-0.5-1.6-1.4C76,66,76,65.9,76,65.9L76,65.9z M78.7,65c-0.1-1.3,1-2.5,2.3-2.6
					c0,0,0.1,0,0.1,0c1.3,0,2.3,1,2.4,2.2c0,0.1,0,0.1,0,0.2c0,0.2,0,0.3-0.1,0.5h-3.6c0,0.8,0.7,1.4,1.4,1.4c0.5,0,1-0.3,1.3-0.7
					l0.8,0.4c-0.4,0.8-1.2,1.3-2.1,1.2c-1.4,0-2.5-1.1-2.5-2.4C78.7,65.1,78.7,65.1,78.7,65L78.7,65z M79.8,64.5h2.6
					c0-0.7-0.6-1.2-1.2-1.2c0,0,0,0,0,0C80.5,63.3,80,63.8,79.8,64.5L79.8,64.5z M84.3,62.5h1v0.6c0.3-0.5,0.8-0.7,1.3-0.7h0.3v0.9
					h-0.4c-0.6,0-1.1,0.4-1.1,1c0,0.1,0,0.1,0,0.2v2.8h-1L84.3,62.5z M0,76.4h3.7v0.9H0V76.4z M6.3,72.5h0.9l3.4,4.7v-4.7h1.1v6.8
					h-0.9l-3.4-4.8v4.8H6.3V72.5z M12.5,76.8c0-1.4,1.2-2.6,2.6-2.6s2.6,1.2,2.6,2.6c0,1.4-1.2,2.6-2.6,2.6c-1.4,0-2.5-1.1-2.6-2.5
					C12.5,76.9,12.5,76.9,12.5,76.8z M16.6,76.8c-0.1-0.8-0.8-1.5-1.6-1.4s-1.5,0.8-1.4,1.6c0.1,0.8,0.7,1.4,1.5,1.4
					c0.8,0,1.5-0.7,1.5-1.5C16.6,76.9,16.6,76.8,16.6,76.8z M18.4,74.4h1V75c0.3-0.5,0.8-0.7,1.4-0.7c1,0,1.8,0.7,1.9,1.7
					c0,0,0,0.1,0,0.1v3.2h-1v-3c0.1-0.6-0.4-1.1-1-1.2c-0.6-0.1-1.1,0.4-1.2,1c0,0.1,0,0.1,0,0.2v2.9h-1L18.4,74.4z M23.7,76.4h3.6
					v0.9h-3.6V76.4z M28.5,74.4h1V75c0.3-0.5,0.8-0.8,1.4-0.7c0.6,0,1.2,0.3,1.5,0.8c0.3-0.5,0.9-0.9,1.5-0.8c1,0,1.8,0.8,1.8,1.7
					c0,0,0,0.1,0,0.1v3.2h-1v-2.9c0.1-0.5-0.3-1.1-0.8-1.2c-0.1,0-0.1,0-0.2,0c-0.6,0-1.1,0.5-1.1,1.1c0,0,0,0.1,0,0.1v2.9h-1v-2.9
					c0.1-0.6-0.3-1.1-0.9-1.2s-1.1,0.3-1.2,0.9c0,0.1,0,0.2,0,0.3v2.9h-1L28.5,74.4z M36.5,78c0-0.8,0.5-1.4,1.7-1.6l1.6-0.3V76
					c0-0.5-0.4-0.9-0.9-0.8c0,0-0.1,0-0.1,0c-0.5,0-1,0.3-1.2,0.8l-0.9-0.4c0.4-0.8,1.1-1.2,2-1.2c1-0.1,1.9,0.6,2,1.6
					c0,0.1,0,0.1,0,0.2v3.3h-1v-0.6c-0.4,0.5-1,0.7-1.6,0.7C37.1,79.4,36.4,78.9,36.5,78L36.5,78z M38.3,78.6c0.7,0,1.4-0.5,1.4-1.3
					c0,0,0-0.1,0-0.1V77l-1.4,0.2c-0.5,0.1-0.8,0.3-0.8,0.7C37.6,78.4,37.9,78.6,38.3,78.6C38.3,78.6,38.3,78.6,38.3,78.6L38.3,78.6
					z M42.2,77.7v-2.4h-0.9v-0.9h0.1c0.4,0,0.7-0.3,0.7-0.6c0,0,0-0.1,0-0.1v-0.4h1v1.1h1.1v0.9h-1.1v2.3c-0.1,0.4,0.2,0.7,0.6,0.8
					c0.1,0,0.1,0,0.2,0h0.3v0.9c-0.2,0-0.4,0.1-0.6,0.1c-0.8,0.1-1.6-0.5-1.6-1.4C42.1,77.9,42.1,77.8,42.2,77.7L42.2,77.7z
					 M44.8,76.8c-0.1-1.3,1-2.5,2.3-2.6c0,0,0.1,0,0.1,0c1.3,0,2.3,1,2.4,2.2c0,0.1,0,0.1,0,0.2c0,0.2,0,0.3,0,0.5h-3.7
					c0,0.8,0.7,1.4,1.5,1.4c0.5,0,1-0.3,1.3-0.7l0.8,0.4c-0.4,0.8-1.2,1.3-2.1,1.2c-1.4,0-2.5-1.1-2.5-2.4
					C44.8,76.9,44.8,76.9,44.8,76.8L44.8,76.8z M45.9,76.3h2.6c0-0.7-0.6-1.2-1.2-1.2c0,0,0,0,0,0C46.6,75.1,46,75.6,45.9,76.3
					L45.9,76.3z M50.4,74.4h1V75c0.3-0.5,0.8-0.8,1.3-0.7H53v0.9h-0.4c-0.6,0-1.1,0.4-1.1,1c0,0.1,0,0.1,0,0.2v2.8h-1L50.4,74.4z
					 M53.5,72.5h1v1.2h-1V72.5z M53.5,74.4h1v4.9h-1V74.4z M55.3,78c0-0.8,0.5-1.4,1.7-1.6l1.6-0.3V76c0-0.5-0.4-0.9-0.9-0.8
					c0,0-0.1,0-0.1,0c-0.5,0-1,0.3-1.2,0.8l-0.9-0.4c0.4-0.8,1.2-1.3,2.1-1.2c1-0.1,1.9,0.6,2,1.5c0,0.1,0,0.1,0,0.2v3.3h-1v-0.6
					c-0.4,0.5-1,0.7-1.6,0.7C55.9,79.4,55.2,78.9,55.3,78L55.3,78z M57.1,78.6c0.7,0,1.4-0.5,1.4-1.3c0,0,0-0.1,0-0.1V77l-1.4,0.2
					c-0.5,0.1-0.8,0.3-0.8,0.7C56.4,78.4,56.7,78.6,57.1,78.6C57.1,78.6,57.1,78.6,57.1,78.6L57.1,78.6z M60.5,72.4h1v6.9h-1V72.4z
					 M62.5,72.5h1v1.2h-1V72.5z M62.5,74.4h1v4.9h-1V74.4z M64.2,78l0.8-0.4c0.2,0.5,0.7,0.9,1.3,0.9c0.5,0,0.8-0.2,0.8-0.6
					s-0.3-0.5-0.7-0.6l-0.8-0.2c-0.9-0.2-1.3-0.7-1.3-1.4c0-0.9,0.8-1.5,1.6-1.5c0,0,0.1,0,0.1,0c0.9-0.1,1.7,0.4,2,1.3l-0.8,0.4
					c-0.2-0.5-0.7-0.8-1.2-0.8c-0.4,0-0.7,0.2-0.7,0.6s0.3,0.5,0.6,0.6l0.8,0.2c0.7,0.1,1.2,0.7,1.3,1.4c0,0.9-0.7,1.5-1.8,1.5
					C65.4,79.4,64.6,78.9,64.2,78z M69.5,77.7v-2.4h-0.9v-0.9h0.1c0.4,0,0.7-0.3,0.7-0.6c0,0,0-0.1,0-0.1v-0.4h1v1.1h1.1v0.9h-1.1
					v2.3c-0.1,0.4,0.2,0.7,0.6,0.8c0.1,0,0.1,0,0.2,0h0.3v0.9c-0.2,0-0.4,0.1-0.6,0.1c-0.8,0.1-1.6-0.5-1.6-1.4
					C69.5,77.9,69.5,77.8,69.5,77.7L69.5,77.7z M72.5,72.5h1v1.2h-1V72.5z M72.5,74.3h1v4.9h-1V74.3z M74.3,76.8
					c-0.1-1.4,1-2.5,2.4-2.6c0.1,0,0.1,0,0.2,0c0.9,0,1.8,0.5,2.2,1.4L78.1,76c-0.2-0.5-0.7-0.9-1.3-0.8c-0.9,0.1-1.5,0.9-1.4,1.8
					c0.1,0.8,0.7,1.4,1.4,1.4c0.6,0,1.1-0.3,1.3-0.9L79,78c-0.4,0.9-1.2,1.4-2.2,1.4c-1.4,0-2.5-1.1-2.5-2.4
					C74.3,76.9,74.3,76.9,74.3,76.8L74.3,76.8z M0,88.2h3.7v0.9H0V88.2z M6.3,84.4h4.5v1H7.3v2h3.2v1H7.3v2h3.4v1H6.3V84.4z
					 M11.4,86.2h1v0.6c0.3-0.5,0.8-0.8,1.4-0.7c0.6,0,1.2,0.3,1.6,0.8c0.3-0.5,0.9-0.9,1.5-0.8c1,0,1.8,0.8,1.8,1.8c0,0,0,0.1,0,0.1
					v3.2h-1v-2.9c0.1-0.6-0.3-1.1-0.9-1.2s-1.1,0.3-1.2,0.9c0,0.1,0,0.2,0,0.3v2.9h-1v-2.9c0.1-0.6-0.3-1.1-0.9-1.2
					c-0.6-0.1-1.1,0.3-1.2,0.9c0,0.1,0,0.2,0,0.3v2.9h-1L11.4,86.2z M19.4,88.7c0-1.4,1.2-2.6,2.6-2.6c1.4,0,2.6,1.2,2.6,2.6
					c0,1.4-1.2,2.6-2.6,2.6c0,0,0,0,0,0c-1.4,0.1-2.6-1-2.6-2.4C19.4,88.8,19.4,88.7,19.4,88.7L19.4,88.7z M23.5,88.7
					c-0.1-0.8-0.8-1.5-1.6-1.4c-0.8,0.1-1.5,0.8-1.4,1.6c0.1,0.8,0.7,1.4,1.5,1.4C22.8,90.3,23.5,89.6,23.5,88.7
					C23.5,88.7,23.5,88.7,23.5,88.7L23.5,88.7z M25.8,89.6v-2.4h-0.9v-0.9H25c0.4,0,0.7-0.3,0.7-0.6c0,0,0-0.1,0-0.1v-0.4h1v1.1h1.1
					v0.9h-1.1v2.3c-0.1,0.4,0.2,0.8,0.6,0.8c0.1,0,0.2,0,0.2,0h0.3v0.9c-0.2,0-0.4,0-0.6,0c-0.8,0.1-1.6-0.5-1.6-1.4
					C25.7,89.7,25.7,89.6,25.8,89.6L25.8,89.6z M28.8,84.4h1v1.2h-1V84.4z M28.8,86.2h1v5h-1V86.2z M30.6,88.7
					c0-1.4,1.2-2.6,2.6-2.6c1.4,0,2.6,1.2,2.6,2.6c0,1.4-1.2,2.6-2.6,2.6c-1.4,0.1-2.6-1-2.7-2.4C30.5,88.8,30.5,88.8,30.6,88.7
					L30.6,88.7z M34.7,88.7c-0.1-0.8-0.8-1.5-1.6-1.4c-0.8,0.1-1.5,0.8-1.4,1.6c0.1,0.8,0.7,1.4,1.5,1.4
					C34,90.3,34.7,89.5,34.7,88.7C34.6,88.7,34.6,88.7,34.7,88.7L34.7,88.7z M36.5,86.2h1v0.6c0.3-0.5,0.8-0.8,1.4-0.7
					c1,0,1.8,0.8,1.8,1.8c0,0,0,0,0,0.1v3.2h-1v-2.9c0-0.6-0.5-1.1-1.1-1.1c-0.6,0-1.1,0.5-1.1,1.1v2.9h-1L36.5,86.2z M41.5,89.9
					c0-0.8,0.5-1.4,1.7-1.6l1.5-0.3v-0.2c0-0.5-0.4-0.9-0.9-0.8c0,0-0.1,0-0.1,0c-0.5,0-1,0.3-1.2,0.8l-0.9-0.4
					c0.4-0.8,1.2-1.3,2.1-1.2c1-0.1,1.9,0.6,2,1.6c0,0.1,0,0.1,0,0.2v3.3h-1v-0.6c-0.4,0.5-1,0.7-1.6,0.7
					C42.1,91.3,41.4,90.7,41.5,89.9L41.5,89.9z M43.3,90.5c0.7,0,1.4-0.5,1.4-1.3c0,0,0-0.1,0-0.1v-0.3l-1.4,0.2
					c-0.5,0.1-0.8,0.4-0.8,0.7C42.5,90.2,42.9,90.5,43.3,90.5L43.3,90.5z M46.7,84.3h1v6.9h-1V84.3z M50.2,84.4h2.2
					c1.9-0.1,3.5,1.3,3.6,3.2c0.1,1.9-1.3,3.5-3.2,3.6c-0.1,0-0.2,0-0.4,0h-2.3L50.2,84.4z M52.4,90.2c1.4-0.1,2.4-1.3,2.3-2.6
					c-0.1-1.2-1.1-2.2-2.3-2.3h-1.2v4.9H52.4z M56.4,88.7c-0.1-1.3,1-2.5,2.3-2.6c0,0,0.1,0,0.1,0c1.3,0,2.3,1,2.4,2.2
					c0,0.1,0,0.1,0,0.2c0,0.2,0,0.3,0,0.5h-3.8c0.1,0.8,0.8,1.4,1.6,1.4c0.5,0,0.9-0.3,1.2-0.7l0.8,0.4c-0.4,0.8-1.2,1.3-2.1,1.2
					c-1.4,0-2.5-1.1-2.5-2.5C56.3,88.8,56.3,88.7,56.4,88.7L56.4,88.7z M57.5,88.2h2.6c0-0.7-0.6-1.2-1.3-1.2c0,0,0,0-0.1,0
					C58.1,87,57.5,87.5,57.5,88.2L57.5,88.2z M62,86.2h1v0.6c0.4-0.5,1-0.8,1.7-0.7c1.4,0.1,2.5,1.3,2.4,2.7
					c-0.1,1.3-1.1,2.3-2.4,2.4C64,91.3,63.4,91,63,90.6V93h-1V86.2z M66,88.6c-0.1-0.8-0.8-1.5-1.6-1.4c-0.8,0.1-1.5,0.8-1.4,1.6
					c0.1,0.8,0.7,1.4,1.5,1.4c0.8,0,1.5-0.7,1.5-1.5C66,88.7,66,88.7,66,88.6L66,88.6z M68.3,89.5v-2.3h-0.9v-0.9h0.1
					c0.4,0,0.7-0.2,0.7-0.6c0,0,0-0.1,0-0.1v-0.4h1v1.1h1.1v0.9h-1.1v2.3c-0.1,0.4,0.2,0.8,0.6,0.8c0.1,0,0.2,0,0.2,0h0.3v0.9
					c-0.2,0-0.4,0-0.6,0c-0.8,0.1-1.6-0.5-1.6-1.4C68.2,89.7,68.2,89.6,68.3,89.5L68.3,89.5z M71.3,84.2h1v2.5
					c0.3-0.4,0.8-0.7,1.3-0.6c1,0,1.8,0.8,1.8,1.7c0,0.1,0,0.1,0,0.2v3.2h-1v-2.9c0.1-0.6-0.4-1.1-1-1.2c-0.6-0.1-1.1,0.4-1.2,1
					c0,0.1,0,0.1,0,0.2v2.9h-1L71.3,84.2z M0,100.1h3.7v0.9H0V100.1z M6.3,96.2h2.5c1.2-0.1,2.2,0.8,2.3,2c0.1,1.2-0.8,2.2-2,2.3
					c-0.1,0-0.2,0-0.3,0H7.3v2.5H6.3V96.2z M8.8,99.5c0.6,0.1,1.2-0.4,1.2-1c0-0.1,0-0.1,0-0.2c0-0.6-0.4-1.1-1.1-1.2
					c-0.1,0-0.1,0-0.2,0H7.3v2.3H8.8z M11.8,96.1h1v2.5c0.3-0.4,0.8-0.7,1.4-0.6c1,0,1.8,0.7,1.9,1.7c0,0,0,0.1,0,0.1v3.1h-1v-2.9
					c0-0.6-0.5-1.1-1-1.1c0,0,0,0,0,0c-0.6,0-1.1,0.5-1.1,1.1c0,0,0,0.1,0,0.1v2.8h-1L11.8,96.1z M17,96.2h1v1.2h-1L17,96.2z
					 M17,98.1h1v4.9h-1L17,98.1z M19,96.1h1v6.9h-1L19,96.1z M20.8,100.5c0-1.4,1.1-2.6,2.6-2.6c1.4,0,2.6,1.1,2.6,2.6
					s-1.1,2.6-2.6,2.6c0,0,0,0,0,0c-1.4,0-2.6-1.1-2.6-2.5C20.8,100.6,20.8,100.6,20.8,100.5L20.8,100.5z M24.9,100.5
					c-0.1-0.8-0.8-1.5-1.6-1.4c-0.8,0.1-1.5,0.8-1.4,1.6c0.1,0.8,0.7,1.4,1.5,1.4C24.2,102.2,24.9,101.5,24.9,100.5
					C24.9,100.6,24.9,100.6,24.9,100.5L24.9,100.5z M26.4,101.7l0.8-0.4c0.2,0.5,0.7,0.9,1.3,0.9c0.5,0,0.8-0.2,0.8-0.6
					s-0.4-0.5-0.7-0.6l-0.8-0.2c-0.9-0.3-1.3-0.8-1.3-1.4c0.1-0.9,0.8-1.5,1.7-1.4c0,0,0,0,0.1,0c0.9-0.1,1.7,0.4,2,1.3l-0.8,0.4
					c-0.2-0.5-0.7-0.8-1.2-0.8c-0.5,0-0.7,0.2-0.7,0.6s0.3,0.5,0.6,0.6l0.8,0.2c0.7,0.1,1.2,0.7,1.3,1.4c0,0.9-0.7,1.5-1.8,1.5
					C27.6,103.2,26.7,102.7,26.4,101.7L26.4,101.7z M31,100.5c0-1.4,1.2-2.6,2.6-2.6c1.4,0,2.6,1.2,2.6,2.6c0,1.4-1.1,2.6-2.6,2.6
					C32.1,103.1,31,102,31,100.5C31,100.6,31,100.6,31,100.5L31,100.5z M35,100.5c-0.1-0.8-0.8-1.5-1.6-1.4s-1.5,0.8-1.4,1.6
					c0.1,0.8,0.7,1.4,1.5,1.4C34.4,102.1,35.1,101.5,35,100.5C35.1,100.6,35.1,100.6,35,100.5L35,100.5z M36.9,98.1h1v0.6
					c0.4-0.5,1-0.7,1.6-0.7c1.4,0,2.6,1.2,2.6,2.6s-1.2,2.6-2.6,2.6l0,0c-0.6,0-1.2-0.2-1.6-0.7v2.4h-1L36.9,98.1z M41,100.6
					c-0.1-0.8-0.8-1.5-1.6-1.4c-0.8,0.1-1.5,0.8-1.4,1.6c0.1,0.8,0.7,1.4,1.5,1.4C40.3,102.2,41,101.5,41,100.6
					C41,100.6,41,100.6,41,100.6z M42.8,96.1h1v2.5c0.3-0.4,0.8-0.7,1.3-0.6c1,0,1.8,0.8,1.8,1.8c0,0,0,0,0,0.1v3.2h-1v-2.9
					c0-0.6-0.5-1.1-1.1-1.1c-0.6,0-1.1,0.5-1.1,1.1v2.9h-1L42.8,96.1z M48,96.2h1v1.2h-1V96.2z M48,98.1h1v4.9h-1V98.1z M49.8,100.6
					c0-1.4,1-2.5,2.4-2.6c0,0,0.1,0,0.1,0c0.9,0,1.8,0.5,2.2,1.4l-0.9,0.4c-0.2-0.5-0.7-0.8-1.3-0.8c-0.9,0.1-1.5,0.9-1.4,1.8
					c0.1,0.8,0.7,1.4,1.4,1.4c0.6,0,1.1-0.3,1.3-0.8l0.9,0.4c-0.4,0.9-1.2,1.4-2.2,1.4c-1.4,0-2.5-1.1-2.5-2.4
					C49.7,100.7,49.7,100.7,49.8,100.6L49.8,100.6z M55,101.7c0-0.8,0.5-1.4,1.7-1.6l1.6-0.3v-0.2c0-0.5-0.4-0.8-1-0.8
					c-0.5,0-1,0.3-1.2,0.8l-0.8-0.4c0.4-0.8,1.2-1.3,2-1.2c1-0.1,1.9,0.6,2,1.6c0,0.1,0,0.1,0,0.2v3.3h-1v-0.6
					c-0.4,0.5-1,0.7-1.6,0.7C55.7,103.2,55,102.6,55,101.7z M56.8,102.3c0.7,0,1.4-0.5,1.4-1.3c0,0,0-0.1,0-0.1v-0.3l-1.4,0.2
					c-0.5,0.1-0.8,0.4-0.8,0.7C56.1,102.1,56.4,102.4,56.8,102.3C56.8,102.3,56.8,102.3,56.8,102.3L56.8,102.3z M60.3,96.1h1v6.9h-1
					V96.1z M0,112h3.7v0.9H0V112z M6.3,108.1h4.5v1H7.3v2h3.2v1H7.3v2h3.4v1H6.3V108.1z M11.3,112.5c-0.1-1.4,1-2.5,2.4-2.6
					c0.1,0,0.1,0,0.2,0c0.9,0,1.8,0.5,2.2,1.4l-0.9,0.4c-0.2-0.5-0.7-0.9-1.3-0.8c-0.9,0.1-1.5,0.9-1.4,1.8c0.1,0.8,0.7,1.4,1.4,1.4
					c0.6,0,1.1-0.3,1.3-0.9l0.9,0.4c-0.4,0.9-1.3,1.4-2.2,1.4c-1.4,0-2.5-1.1-2.6-2.4C11.2,112.5,11.2,112.5,11.3,112.5L11.3,112.5z
					 M16.7,108h1v6.9h-1V108z M18.5,112.4c-0.1-1.3,1-2.5,2.3-2.6c0.1,0,0.1,0,0.2,0c1.3,0,2.3,1,2.4,2.2c0,0.1,0,0.1,0,0.2
					c0,0.2,0,0.3,0,0.5h-3.8c0,0.8,0.7,1.4,1.5,1.4c0.5,0,1-0.3,1.3-0.7l0.8,0.4c-0.4,0.8-1.2,1.2-2.1,1.2c-1.4,0-2.5-1.1-2.5-2.4
					C18.5,112.5,18.5,112.5,18.5,112.4z M19.6,111.9h2.6c0-0.7-0.6-1.2-1.2-1.2C20.3,110.7,19.7,111.2,19.6,111.9z M23.9,112.4
					c-0.1-1.4,1-2.5,2.4-2.6c0.1,0,0.1,0,0.2,0c0.9,0,1.8,0.5,2.2,1.4l-0.9,0.4c-0.2-0.5-0.7-0.9-1.3-0.8c-0.9,0.1-1.5,0.9-1.4,1.8
					c0.1,0.8,0.7,1.4,1.4,1.4c0.6,0,1.1-0.3,1.3-0.9l0.9,0.4c-0.4,0.9-1.2,1.4-2.2,1.4c-1.4,0-2.5-1.1-2.6-2.4
					C23.9,112.5,23.9,112.5,23.9,112.4L23.9,112.4z M29.9,113.3v-2.4H29V110h0.1c0.4,0,0.7-0.3,0.7-0.6c0,0,0-0.1,0-0.1v-0.4h1v1.1
					H32v0.9h-1v2.3c-0.1,0.4,0.2,0.7,0.6,0.8c0.1,0,0.1,0,0.2,0h0.3v0.9c-0.2,0-0.4,0.1-0.6,0.1c-0.8,0.1-1.6-0.5-1.6-1.4
					C30,113.6,30,113.5,29.9,113.3L29.9,113.3z M32.9,108.1h1v1.2h-1V108.1z M32.9,110h1v4.9h-1V110z M34.7,112.4
					c-0.1-1.4,1-2.5,2.4-2.6c0.1,0,0.1,0,0.2,0c0.9,0,1.8,0.5,2.2,1.4l-0.9,0.4c-0.2-0.5-0.7-0.9-1.3-0.8c-0.9,0.1-1.5,0.9-1.4,1.8
					c0.1,0.8,0.7,1.4,1.4,1.4c0.6,0,1.1-0.3,1.3-0.9l0.9,0.4c-0.4,0.9-1.3,1.4-2.2,1.4c-1.4,0-2.5-1.1-2.6-2.4
					C34.7,112.5,34.7,112.5,34.7,112.4L34.7,112.4z M41.7,108.1h1.1v6.8h-1.1L41.7,108.1z M43.8,110h1v0.6c0.3-0.5,0.8-0.7,1.4-0.7
					c1,0,1.8,0.7,1.9,1.7c0,0,0,0.1,0,0.1v3.2h-1V112c0.1-0.6-0.4-1.1-1-1.2s-1.1,0.4-1.2,1c0,0.1,0,0.1,0,0.2v2.9h-1L43.8,110z
					 M49.5,113.3v-2.4h-0.9V110h0.1c0.4,0,0.7-0.2,0.7-0.6c0,0,0-0.1,0-0.1v-0.4h1v1.1h1.1v0.9h-1.1v2.3c0,0.5,0.2,0.8,0.8,0.8h0.3
					v0.9c-0.2,0-0.4,0.1-0.5,0.1c-0.8,0.1-1.6-0.5-1.7-1.4C49.4,113.5,49.4,113.4,49.5,113.3L49.5,113.3z M52.1,112.5
					c-0.1-1.3,1-2.5,2.3-2.6c0,0,0.1,0,0.1,0c1.3,0,2.3,0.9,2.4,2.2c0,0.1,0,0.1,0,0.2c0,0.2,0,0.3,0,0.5h-3.7
					c0,0.8,0.7,1.4,1.5,1.4c0.5,0,0.9-0.3,1.2-0.7l0.8,0.4c-0.4,0.8-1.2,1.2-2.1,1.2c-1.4,0-2.5-1.1-2.5-2.4
					C52.1,112.5,52.1,112.5,52.1,112.5L52.1,112.5z M53.2,111.9h2.6c0-0.7-0.6-1.2-1.3-1.2c0,0,0,0,0,0
					C53.9,110.7,53.3,111.3,53.2,111.9z M57.7,110h1v0.6c0.3-0.5,0.8-0.8,1.3-0.7h0.3v1h-0.4c-0.6,0-1.1,0.4-1.1,1
					c0,0.1,0,0.1,0,0.2v2.8h-1L57.7,110z M60.6,112.5c-0.1-1.3,0.9-2.5,2.3-2.6c0,0,0.1,0,0.1,0c1.3,0,2.3,0.9,2.4,2.2
					c0,0.1,0,0.1,0,0.2c0,0.2,0,0.3,0,0.5h-3.7c0,0.8,0.7,1.4,1.5,1.4c0.5,0,0.9-0.3,1.2-0.7l0.8,0.4c-0.4,0.8-1.2,1.2-2.1,1.2
					c-1.4,0-2.5-1.1-2.5-2.4C60.6,112.5,60.6,112.5,60.6,112.5L60.6,112.5z M61.7,111.9h2.6c0-0.7-0.6-1.2-1.2-1.2c0,0,0,0-0.1,0
					C62.3,110.7,61.7,111.2,61.7,111.9L61.7,111.9z M65.9,113.7l0.8-0.4c0.2,0.5,0.8,0.9,1.3,0.9c0.5,0,0.8-0.2,0.8-0.6
					s-0.3-0.5-0.7-0.6l-0.8-0.2c-0.9-0.2-1.3-0.7-1.3-1.4c0-0.9,0.8-1.5,1.6-1.5c0,0,0.1,0,0.1,0c0.9,0,1.6,0.5,1.9,1.3l-0.8,0.4
					c-0.2-0.5-0.7-0.8-1.2-0.8c-0.5,0-0.7,0.2-0.7,0.6s0.3,0.5,0.6,0.6l0.8,0.2c0.7,0.1,1.2,0.7,1.3,1.4c0,0.9-0.7,1.5-1.8,1.5
					C67.1,115.1,66.2,114.5,65.9,113.7z M71.1,113.3v-2.4h-0.9V110h0.1c0.4,0,0.7-0.2,0.7-0.6c0,0,0-0.1,0-0.1v-0.4h1v1.1h1.1v0.9
					h-1.1v2.3c0,0.5,0.2,0.8,0.8,0.8h0.3v0.9c-0.2,0-0.4,0.1-0.6,0.1c-0.8,0.1-1.6-0.5-1.6-1.4C71.1,113.5,71.1,113.4,71.1,113.3
					L71.1,113.3z M73.8,113.7l0.8-0.4c0.2,0.5,0.7,0.9,1.3,0.9c0.5,0,0.8-0.2,0.8-0.6s-0.3-0.5-0.7-0.6l-0.8-0.2
					c-0.9-0.2-1.3-0.7-1.3-1.4c0-0.9,0.8-1.5,1.6-1.5c0,0,0.1,0,0.1,0c0.9-0.1,1.7,0.4,2,1.3l-0.8,0.4c-0.2-0.5-0.7-0.8-1.2-0.8
					c-0.5,0-0.7,0.2-0.7,0.6s0.3,0.5,0.6,0.6l0.8,0.2c0.7,0.1,1.2,0.7,1.3,1.4c0,0.9-0.7,1.5-1.8,1.5
					C75,115.1,74.2,114.5,73.8,113.7L73.8,113.7z M0,123.9h3.7v0.9H0V123.9z M6.3,120h4.5v1H7.3v2h3.2v1H7.3v2h3.4v1H6.3V120z
					 M11.4,121.9h1v0.6c0.3-0.5,0.8-0.8,1.4-0.7c0.6,0,1.2,0.3,1.6,0.8c0.3-0.5,0.9-0.9,1.5-0.8c1,0,1.8,0.8,1.8,1.7
					c0,0,0,0.1,0,0.1v3.2h-1v-2.9c0.1-0.6-0.3-1.1-0.9-1.2s-1.1,0.3-1.2,0.9c0,0.1,0,0.2,0,0.3v2.9h-1v-2.9c0.1-0.6-0.3-1.1-0.9-1.2
					c-0.6-0.1-1.1,0.3-1.2,0.9c0,0.1,0,0.2,0,0.3v2.9h-1L11.4,121.9z M19.6,121.9h1v0.6c0.4-0.5,1-0.8,1.7-0.7
					c1.4,0,2.6,1.2,2.6,2.6s-1.2,2.6-2.6,2.6c-0.6,0-1.2-0.2-1.6-0.7v2.4h-1L19.6,121.9z M23.6,124.3c-0.1-0.8-0.8-1.5-1.6-1.4
					s-1.5,0.8-1.4,1.6c0.1,0.8,0.7,1.4,1.5,1.4c0.8,0,1.5-0.7,1.5-1.5C23.6,124.4,23.6,124.4,23.6,124.3L23.6,124.3z M25.2,125.5
					c0-0.8,0.5-1.4,1.7-1.6l1.6-0.3v-0.2c0-0.5-0.4-0.9-0.9-0.8c0,0-0.1,0-0.1,0c-0.5,0-1,0.3-1.2,0.8l-0.9-0.4
					c0.4-0.8,1.1-1.2,2-1.2c1-0.1,1.9,0.6,2,1.5c0,0.1,0,0.1,0,0.2v3.3h-1v-0.6c-0.4,0.5-1,0.7-1.6,0.7
					C25.8,126.9,25.2,126.4,25.2,125.5L25.2,125.5z M27.1,126.1c0.7,0,1.4-0.5,1.4-1.3c0,0,0-0.1,0-0.1v-0.3l-1.4,0.2
					c-0.5,0.1-0.8,0.4-0.8,0.7C26.3,125.8,26.7,126.1,27.1,126.1C27.1,126.1,27.1,126.1,27.1,126.1L27.1,126.1z M30.9,125.2v-2.4H30
					v-0.9h0.1c0.4,0,0.7-0.3,0.7-0.6c0,0,0-0.1,0-0.1v-0.4h1v1.1h1.2v0.9H32v2.3c0,0.5,0.2,0.8,0.8,0.8c0.1,0,0.2,0,0.3,0v0.9
					c-0.2,0-0.4,0-0.5,0c-0.8,0.1-1.6-0.5-1.6-1.4C31,125.4,31,125.3,30.9,125.2L30.9,125.2z M33.9,119.9h1v2.5
					c0.3-0.4,0.8-0.7,1.4-0.6c1,0,1.8,0.7,1.9,1.7c0,0,0,0.1,0,0.1v3.2h-1v-2.9c0-0.6-0.5-1.1-1.1-1.1c-0.6,0-1.1,0.5-1.1,1.1v2.9
					h-1L33.9,119.9z M38.8,124.3c-0.1-1.3,1-2.5,2.3-2.6c0,0,0.1,0,0.1,0c1.3,0,2.3,1,2.4,2.2c0,0.1,0,0.1,0,0.2c0,0.2,0,0.3,0,0.5
					h-3.7c0,0.8,0.7,1.4,1.5,1.4c0.5,0,1-0.3,1.3-0.7l0.8,0.4c-0.4,0.8-1.2,1.3-2.1,1.2c-1.4,0-2.5-1.1-2.5-2.5
					C38.8,124.4,38.8,124.4,38.8,124.3L38.8,124.3z M39.9,123.8h2.6c0-0.7-0.6-1.2-1.3-1.2c0,0,0,0,0,0
					C40.6,122.6,40,123.1,39.9,123.8L39.9,123.8z M44.9,125.2v-2.4H44v-0.9h0.1c0.4,0,0.7-0.3,0.7-0.6c0,0,0-0.1,0-0.1v-0.4h1v1.1
					H47v0.9h-1.1v2.3c0,0.5,0.2,0.8,0.8,0.8h0.3v0.9c-0.2,0-0.4,0-0.5,0c-0.8,0.1-1.6-0.5-1.6-1.3C44.9,125.4,44.9,125.3,44.9,125.2
					L44.9,125.2z M47.9,120h1v1.2h-1V120z M47.9,121.9h1v5h-1V121.9z M49.7,124.3c0-1.4,1-2.5,2.4-2.6c0.1,0,0.1,0,0.2,0
					c0.9,0,1.8,0.5,2.2,1.4l-0.9,0.4c-0.2-0.5-0.7-0.9-1.3-0.8c-0.9,0.1-1.6,0.9-1.5,1.8c0.1,0.8,0.7,1.4,1.5,1.5
					c0.6,0,1.1-0.3,1.3-0.9l0.9,0.4c-0.4,0.9-1.2,1.4-2.2,1.4c-1.4,0-2.5-1.1-2.6-2.5C49.7,124.4,49.7,124.4,49.7,124.3z M0,135.7
					h3.7v0.9H0V135.7z M8.1,131.9h1.3l2.4,6.8h-1.2l-0.5-1.5H7.3l-0.5,1.5H5.7L8.1,131.9z M9.8,136.2l-1.1-3.1l-1.1,3.1H9.8z
					 M12.1,136.8v-3.1h1v3c0,0.6,0.4,1.1,1,1.1c0,0,0.1,0,0.1,0c0.6,0,1.1-0.4,1.1-1c0,0,0-0.1,0-0.1v-2.9h1v4.9h-1v-0.6
					c-0.3,0.5-0.8,0.8-1.4,0.7c-1,0-1.8-0.9-1.8-1.9C12,136.9,12.1,136.8,12.1,136.8L12.1,136.8z M17.8,137.1v-2.4h-0.9v-0.9h0.1
					c0.4,0,0.7-0.2,0.7-0.6c0,0,0-0.1,0-0.1v-0.4h1v1.1h1.1v0.9h-1.1v2.3c-0.1,0.4,0.2,0.8,0.6,0.8c0.1,0,0.1,0,0.2,0H20v0.9
					c-0.2,0-0.4,0.1-0.6,0.1c-0.8,0.1-1.6-0.5-1.6-1.4C17.8,137.3,17.8,137.2,17.8,137.1L17.8,137.1z M20.8,131.8h1v2.5
					c0.3-0.4,0.8-0.7,1.4-0.6c1,0,1.8,0.7,1.9,1.7c0,0,0,0.1,0,0.1v3.2h-1v-2.9c0.1-0.6-0.4-1.1-1-1.2c-0.6-0.1-1.1,0.4-1.2,1
					c0,0.1,0,0.1,0,0.2v2.9h-1L20.8,131.8z M25.7,136.2c-0.1-1.3,1-2.5,2.3-2.6c0,0,0.1,0,0.1,0c1.3,0,2.3,1,2.4,2.2
					c0,0.1,0,0.1,0,0.2c0,0.2,0,0.3,0,0.5h-3.7c0.1,0.8,0.8,1.4,1.6,1.4c0.5,0,0.9-0.3,1.2-0.7l0.8,0.4c-0.4,0.8-1.2,1.3-2.1,1.2
					c-1.4,0-2.5-1.1-2.5-2.4C25.7,136.3,25.7,136.2,25.7,136.2L25.7,136.2z M26.8,135.7h2.6c0-0.7-0.6-1.2-1.2-1.2c0,0,0,0,0,0
					C27.5,134.5,26.9,135,26.8,135.7L26.8,135.7z M31.3,133.7h1v0.6c0.3-0.5,0.8-0.7,1.4-0.7c1,0,1.8,0.7,1.9,1.7c0,0,0,0.1,0,0.1
					v3.2h-1v-2.9c0-0.6-0.5-1.1-1.1-1.1c-0.6,0-1.1,0.5-1.1,1.1v2.9h-1L31.3,133.7z M36.9,137v-2.4H36v-0.9h0.1
					c0.4,0,0.7-0.2,0.7-0.6c0,0,0-0.1,0-0.1v-0.4h1v1.1H39v0.9h-1.1v2.4c-0.1,0.4,0.2,0.8,0.6,0.8c0.1,0,0.1,0,0.2,0h0.3v0.9
					c-0.2,0-0.4,0.1-0.5,0.1c-0.8,0.1-1.6-0.5-1.6-1.3C36.9,137.3,36.9,137.2,36.9,137L36.9,137z M39.9,131.8h1v1.2h-1V131.8z
					 M39.9,133.7h1v4.9h-1V133.7z M41.7,136.1c0-1.4,1-2.5,2.4-2.6c0,0,0.1,0,0.1,0c0.9,0,1.8,0.6,2.1,1.4l-0.9,0.4
					c-0.2-0.5-0.7-0.9-1.3-0.9c-0.9,0.1-1.5,0.9-1.4,1.8c0.1,0.8,0.7,1.4,1.4,1.4c0.6,0,1.1-0.3,1.3-0.9l0.9,0.4
					c-0.4,0.9-1.2,1.4-2.2,1.4c-1.4,0-2.5-1.1-2.6-2.4C41.7,136.3,41.7,136.2,41.7,136.1L41.7,136.1z"/>
			</g>
		</g>
		<g id="_8848d4ff-8994-45f9-9b3c-9a6b0aae1c5b">
			<g id="ed4cb7b0-615e-4db0-a534-ce37849e8bf2">
				<path d="M0,6.3c-0.1-3,2.1-5.5,5.1-5.6c0.1,0,0.2,0,0.3,0c2-0.1,3.8,1,4.6,2.9L8.3,4.3C7.9,3.2,6.7,2.4,5.5,2.4
					C3.4,2.5,2,4,2,6.3s1.4,3.8,3.5,3.8c1.3,0,2.4-0.7,2.8-1.9l1.8,0.8c-0.8,1.9-2.6,3-4.6,2.9C2.5,12,0,9.6,0,6.6
					C0,6.5,0,6.4,0,6.3z M10.6,6.3c-0.1-3.1,2.4-5.6,5.5-5.7c0.1,0,0.2,0,0.3,0C19.5,0.5,22,3,22.1,6c0,0.1,0,0.2,0,0.3
					c0.1,3.1-2.4,5.6-5.5,5.7c-0.1,0-0.2,0-0.3,0c-3.1,0.1-5.7-2.4-5.7-5.4C10.6,6.5,10.6,6.4,10.6,6.3z M20.1,6.3
					c0-2.1-1.7-3.7-3.7-3.7s-3.7,1.7-3.7,3.7s1.7,3.7,3.7,3.7S20.1,8.3,20.1,6.3z M23.2,0.8h1.6l5.2,7v-7h2v11h-1.6l-5.2-7.2v7.2h-2
					V0.8z M35.3,2.6h-2.8V0.8h7.7v1.8h-2.8v9.2h-2L35.3,2.6z M40.6,0.8h7.3v1.8h-5.3v2.8h5v1.8h-5V10h5.3v1.8h-7.3V0.8z M48.6,0.8
					h1.6l5.2,7v-7h2v11h-1.6l-5.2-7.2v7.2h-2L48.6,0.8z M60.7,2.6h-2.8V0.8h7.6v1.8h-2.8v9.2h-2L60.7,2.6z M0.3,15.6h3.6
					c3.5,0,5.7,2.3,5.7,5.5s-2.3,5.4-5.7,5.4H0.3L0.3,15.6z M3.9,24.8c1.9,0.1,3.5-1.3,3.7-3.2c0-0.2,0-0.4,0-0.6
					c0.1-1.9-1.3-3.6-3.2-3.7c-0.2,0-0.3,0-0.5,0H2.3v7.4L3.9,24.8z M10.5,15.6h7.3v1.8h-5.3v2.8h5v1.8h-5v2.9h5.3v1.8h-7.3V15.6z
					 M18,23.6l1.7-0.7c0.4,1.2,1.6,2,2.8,2c1,0,1.7-0.5,1.7-1.3c0-0.6-0.4-1-1.1-1.3L21,21.6c-1.5-0.3-2.5-1.6-2.6-3.1
					c0-1.9,1.5-3.2,3.7-3.2c1.8-0.1,3.5,1,4.1,2.7l-1.6,0.7c-0.4-1-1.4-1.7-2.5-1.7c-1,0-1.7,0.5-1.7,1.4c0,0.6,0.4,1.1,1.2,1.3
					l2,0.6c1.8,0.6,2.6,1.6,2.6,3c0,1.9-1.6,3.2-3.8,3.2C20.4,26.7,18.6,25.5,18,23.6z M27,21c-0.1-3,2.2-5.5,5.1-5.6
					c0.1,0,0.2,0,0.3,0c2-0.1,3.8,1,4.6,2.9l-1.8,0.8c-0.5-1.2-1.6-1.9-2.8-1.9c-2.1,0-3.5,1.5-3.5,3.8s1.4,3.8,3.5,3.8
					c1.3,0,2.4-0.7,2.8-1.9l1.8,0.8c-0.8,1.8-2.6,3-4.6,2.9c-3,0-5.5-2.4-5.5-5.4C27,21.2,27,21.1,27,21z M38,15.5h4
					c2.2,0,3.8,1.2,3.8,3.5c0.1,1.4-0.7,2.6-2,3.1l2.5,4.4h-2.2l-2.3-4H40v4h-2V15.5z M42.1,20.7c0.9,0.1,1.8-0.6,1.8-1.6
					c0.1-0.9-0.6-1.8-1.6-1.8c-0.1,0-0.2,0-0.3,0H40v3.4H42.1z M47,15.5h2v11h-2V15.5z M50.4,15.5h4c2.2,0,3.8,1.2,3.8,3.5
					s-1.6,3.5-3.8,3.5h-2.1v4h-2L50.4,15.5z M54.5,20.7c0.9,0.1,1.8-0.6,1.8-1.6c0.1-0.9-0.6-1.8-1.6-1.8c-0.1,0-0.2,0-0.3,0h-2.2
					v3.4H54.5z M61.1,17.3h-2.9v-1.8h7.7v1.8h-2.8v9.2h-2L61.1,17.3z M66.4,15.5h2v11h-2V15.5z M69.4,21c0-3.2,2.5-5.8,5.7-5.8
					c3.2,0,5.8,2.5,5.8,5.7s-2.5,5.8-5.7,5.8c0,0,0,0-0.1,0c-3.1,0.1-5.6-2.3-5.7-5.4C69.4,21.2,69.4,21.1,69.4,21z M78.9,21
					c0.1-2.1-1.5-3.8-3.5-3.9c-2.1-0.1-3.8,1.5-3.9,3.5c0,0.1,0,0.3,0,0.4c-0.1,2.1,1.5,3.8,3.5,3.9c2.1,0.1,3.8-1.5,3.9-3.5
					C78.9,21.3,78.9,21.1,78.9,21z M81.9,15.5h1.6l5.2,7v-7h2v11h-1.6l-5.2-7.2v7.2h-2L81.9,15.5z"/>
			</g>
		</g>
		<g id="_1a3561c3-2eb1-4351-b1d8-03a547b3df26">
			<g id="_786de8b3-1a3b-4b0d-9851-426e8b1e0203">
				<path d="M122.8,14.5V6.9h2.2v7.5c-0.1,1.4,1,2.6,2.4,2.7s2.6-1,2.7-2.4c0-0.1,0-0.2,0-0.3V6.9h2.1v7.6c-0.2,2.6-2.4,4.5-5,4.4
					C124.8,18.8,122.9,16.9,122.8,14.5z M133.9,6.9h1.7l5.6,7.6V6.9h2.2v11.8h-1.7L136,11v7.7h-2.1L133.9,6.9z M145.2,6.9h4.4
					c2.4,0,4.1,1.3,4.1,3.7c0.1,1.5-0.8,2.8-2.1,3.3l2.7,4.8h-2.4l-2.4-4.4h-2v4.4h-2.2L145.2,6.9z M149.7,12.5
					c1,0.1,1.8-0.6,1.9-1.6c0-0.1,0-0.2,0-0.2c0-1-0.7-1.8-1.7-1.8c-0.1,0-0.2,0-0.2,0h-2.3v3.6H149.7z M155.3,6.9h7.9v1.9h-5.7v3
					h5.4v1.9h-5.4v3.1h5.7v1.9h-7.9V6.9z M163.9,15.7l1.8-0.8c0.5,1.3,1.7,2.2,3.1,2.2c1.1,0,1.9-0.6,1.9-1.4c0-0.7-0.4-1.1-1.2-1.4
					l-2.3-0.7c-1.8-0.6-2.8-1.8-2.8-3.3c0-2,1.6-3.4,3.9-3.4c2-0.1,3.8,1.1,4.5,3l-1.8,0.8c-0.4-1.1-1.5-1.9-2.7-1.9
					c-1.1,0-1.8,0.6-1.8,1.5c0,0.7,0.6,1.3,1.3,1.4l2.2,0.7c1.9,0.6,2.8,1.7,2.8,3.3c0,2-1.7,3.5-4.1,3.5
					C166.5,19,164.5,17.7,163.9,15.7L163.9,15.7z M176.4,8.8h-3.1V6.9h8.3v1.9h-3v9.9h-2.2L176.4,8.8z M182.5,6.9h4.4
					c2.4,0,4.1,1.3,4.1,3.7c0.1,1.5-0.8,2.8-2.1,3.3l2.7,4.8h-2.4l-2.4-4.4h-2v4.4h-2.2L182.5,6.9z M186.9,12.5
					c1,0.1,1.8-0.6,1.9-1.6c0-0.1,0-0.2,0-0.2c0-1-0.7-1.8-1.7-1.8c-0.1,0-0.2,0-0.2,0h-2.3v3.6H186.9z M192.6,6.9h2.2v11.8h-2.2
					V6.9z M196.2,12.8c-0.1-3.2,2.3-5.9,5.5-6.1c0.1,0,0.2,0,0.4,0c2.2-0.1,4.2,1.1,5,3.1l-1.9,0.9c-0.5-1.2-1.7-2-3.1-2
					c-2.2,0-3.8,1.7-3.8,4.1s1.5,4.1,3.7,4.1c1.4,0,2.6-0.8,3.1-2.1l1.9,0.9c-0.9,2-2.8,3.2-5,3.1c-3.2,0-5.9-2.5-5.9-5.8
					C196.2,13.1,196.2,13,196.2,12.8L196.2,12.8z M210.6,8.8h-3.1V6.9h8.3v1.9h-3v9.9h-2.2L210.6,8.8z M216.7,6.9h7.9v1.9h-5.7v3
					h5.4v1.9h-5.4v3.1h5.7v1.9h-7.9V6.9z M225.7,6.9h3.9c3.8,0,6.2,2.4,6.2,5.9s-2.4,5.9-6.2,5.9h-3.9V6.9z M229.6,16.9
					c2.1,0.2,3.8-1.4,4-3.4c0-0.2,0-0.4,0-0.6c0.2-2-1.4-3.8-3.4-4c-0.2,0-0.4,0-0.6,0h-1.8v8H229.6z"/>
			</g>
		</g>
		<g id="_9f7210d3-cad2-4e22-8abd-327cbfbf0a09">
			<g id="_830204bf-68bc-4f55-a88b-461a9bf84017">
				<path d="M172.3,32.8h3.4v0.7H173v1.8h2.4v0.7H173v2.3h-0.7L172.3,32.8z M176.1,35.5c0-1.5,1.3-2.7,2.8-2.7
					c1.5,0,2.7,1.3,2.7,2.8c0,1.5-1.3,2.7-2.7,2.7c-1.5,0-2.7-1.2-2.7-2.7C176.1,35.6,176.1,35.5,176.1,35.5z M180.8,35.5
					c-0.1-1.1-1-1.9-2.1-1.9s-1.9,1-1.9,2.1c0.1,1.1,0.9,1.9,2,1.9c1.1,0,2-0.9,2-2C180.8,35.6,180.8,35.5,180.8,35.5z M182.4,32.8
					h1.9c0.9-0.1,1.7,0.6,1.8,1.5c0,0.1,0,0.1,0,0.2c0,0.7-0.4,1.3-1.1,1.5l1.3,2.2h-0.8l-1.2-2.1h-1.2v2.1h-0.7L182.4,32.8z
					 M184.3,35.5c0.6,0,1-0.4,1-1s-0.4-1-1-1h-1.2v2H184.3z M189.4,32.8h0.8l1.9,5.4h-0.8l-0.4-1.3h-2.3l-0.4,1.3h-0.8L189.4,32.8z
					 M190.7,36.3l-0.9-2.7l-0.9,2.7H190.7z M192.7,32.8h0.7v4.7h2.4v0.7h-3.1L192.7,32.8z M196.4,32.8h0.7v4.7h2.4v0.7h-3.1
					L196.4,32.8z M201.1,32.8h0.7v2.4h2.7v-2.4h0.7v5.4h-0.7v-2.3h-2.7v2.3h-0.7V32.8z M206.2,36.4v-3.6h0.7v3.6
					c0.1,0.7,0.7,1.2,1.4,1.2c0.6-0.1,1.1-0.5,1.2-1.2v-3.6h0.7v3.6c0,1.1-0.9,2-2,2S206.2,37.5,206.2,36.4L206.2,36.4z M211.2,32.8
					h0.6l1.9,2.6l1.8-2.6h0.6v5.4h-0.7v-4.1l-1.8,2.5h-0.1l-1.8-2.5v4.1h-0.7L211.2,32.8z M218.6,32.8h0.8l1.9,5.4h-0.8l-0.4-1.3
					h-2.3l-0.4,1.3h-0.8L218.6,32.8z M220,36.3l-1-2.7l-0.9,2.7H220z M221.9,32.8h0.6l2.8,4v-4h0.7v5.4h-0.6l-2.8-4v4h-0.7
					L221.9,32.8z M226.8,36.8l0.6-0.3c0.2,0.7,0.8,1.1,1.5,1.1c0.6,0,1.1-0.3,1.1-0.8s-0.3-0.7-0.8-0.8l-1-0.3
					c-0.8-0.1-1.4-0.9-1.3-1.7c0.1-0.8,0.9-1.4,1.7-1.3c0.9-0.1,1.7,0.5,2,1.3l-0.6,0.3c-0.2-0.6-0.7-1-1.3-0.9c-0.6,0-1,0.3-1,0.8
					c0,0.4,0.3,0.8,0.8,0.9l0.9,0.3c0.9,0.3,1.3,0.7,1.3,1.5c0,0.9-0.8,1.6-1.7,1.5c0,0-0.1,0-0.1,0C228,38.3,227.1,37.7,226.8,36.8
					L226.8,36.8z M171.6,41.5h0.8l1.2,4.4l1.2-4.4h0.8l1.2,4.4l1.2-4.4h0.8l-1.5,5.4h-0.8l-1.2-4.4l-1.2,4.4h-0.8L171.6,41.5z
					 M179.1,41.5h0.7v5.4h-0.7V41.5z M181.8,42.1h-1.5v-0.7h3.6v0.7h-1.4v4.7h-0.7L181.8,42.1z M184.5,41.5h0.7v2.4h2.7v-2.4h0.7
					v5.4h-0.7v-2.3h-2.7v2.3h-0.7V41.5z M189.5,44.1c0.1-1.5,1.3-2.7,2.9-2.6c1.5,0.1,2.7,1.3,2.6,2.9c-0.1,1.5-1.3,2.6-2.8,2.6
					c-1.5,0-2.7-1.2-2.7-2.7C189.4,44.3,189.4,44.2,189.5,44.1L189.5,44.1z M194.2,44.1c-0.1-1.1-1-1.9-2.1-1.9s-1.9,1-1.9,2.1
					c0.1,1.1,0.9,1.9,2,1.9C193.3,46.2,194.2,45.3,194.2,44.1C194.2,44.2,194.2,44.2,194.2,44.1L194.2,44.1z M195.7,45v-3.5h0.7V45
					c0,0.7,0.6,1.3,1.3,1.3c0.7,0,1.3-0.6,1.3-1.3v-3.5h0.7V45c0,1.1-0.9,2-2,2S195.7,46.1,195.7,45L195.7,45z M201.6,42.1h-1.5
					v-0.7h3.6v0.7h-1.4v4.7h-0.7L201.6,42.1z M205.1,45.5l0.6-0.3c0.2,0.7,0.8,1.1,1.5,1.1c0.6,0,1.1-0.3,1.1-0.8s-0.3-0.7-0.8-0.8
					l-1-0.3c-0.8-0.1-1.4-0.9-1.3-1.7s0.9-1.4,1.7-1.3c0.9,0,1.7,0.5,1.9,1.3l-0.6,0.3c-0.2-0.6-0.8-0.9-1.4-0.9
					c-0.5-0.1-0.9,0.2-1,0.7c0,0,0,0.1,0,0.1c0,0.4,0.3,0.8,0.8,0.9l0.9,0.3c0.9,0.3,1.3,0.7,1.3,1.5c0,0.9-0.7,1.6-1.6,1.6
					c-0.1,0-0.1,0-0.2,0C206.2,47,205.4,46.4,205.1,45.5L205.1,45.5z M209.7,44.1c0.1-1.5,1.3-2.7,2.9-2.6c1.5,0.1,2.7,1.3,2.6,2.9
					c-0.1,1.5-1.3,2.6-2.8,2.6c-1.5,0-2.7-1.2-2.7-2.7C209.6,44.3,209.6,44.2,209.7,44.1L209.7,44.1z M214.5,44.1
					c-0.1-1.1-1-1.9-2.1-1.9s-1.9,1-1.9,2.1c0.1,1.1,0.9,1.9,2,1.9C213.6,46.2,214.4,45.3,214.5,44.1
					C214.4,44.2,214.4,44.2,214.5,44.1L214.5,44.1z M215.9,44.1c-0.1-1.5,1-2.7,2.5-2.8c0.1,0,0.1,0,0.2,0c0.9,0,1.8,0.5,2.2,1.4
					l-0.6,0.3c-0.3-0.6-0.9-1-1.5-1c-1.2,0.1-2.1,1.1-2,2.3c0.1,1.1,0.9,1.9,2,2c0.7,0,1.3-0.4,1.5-1l0.6,0.3
					c-0.4,0.9-1.3,1.5-2.2,1.4c-1.5,0-2.6-1.2-2.6-2.6C215.8,44.3,215.8,44.3,215.9,44.1L215.9,44.1z M221.5,41.4h0.7v5.4h-0.7V41.4
					z M224.6,41.4h0.8l1.9,5.4h-0.8l-0.4-1.3h-2.3l-0.4,1.3h-0.8L224.6,41.4z M226,44.9l-1-2.6l-0.9,2.7L226,44.9z M227.9,41.4h0.7
					v4.7h2.4v0.7h-3.1V41.4z M180.8,50.1h0.7v4.7h2.4v0.7h-3.1V50.1z M184.5,50.1h0.7v5.4h-0.7V50.1z M186.3,50.1h0.6l1.9,2.6
					l1.8-2.6h0.6v5.4h-0.7v-4l-1.8,2.5h-0.1l-1.8-2.5v4.1h-0.7L186.3,50.1z M192.3,50.1h0.7v5.4h-0.7V50.1z M194.9,50.8h-1.5v-0.7
					h3.5v0.7h-1.4v4.7h-0.7L194.9,50.8z M198.6,50.1h0.8l1.9,5.4h-0.8l-0.4-1.3h-2.3l-0.4,1.3h-0.8L198.6,50.1z M200,53.6l-1-2.6
					l-0.9,2.7L200,53.6z M202.5,50.8H201v-0.7h3.6v0.7h-1.4v4.7h-0.7L202.5,50.8z M205.1,50.1h0.7v5.4h-0.7V50.1z M206.7,52.8
					c0-1.5,1.3-2.7,2.8-2.7c1.5,0,2.7,1.3,2.7,2.8c0,1.5-1.3,2.7-2.7,2.7c-1.5,0.1-2.7-1.1-2.8-2.6
					C206.7,52.9,206.7,52.9,206.7,52.8L206.7,52.8z M211.5,52.8c-0.1-1.1-1-1.9-2.1-1.9s-1.9,1-1.9,2.1c0.1,1.1,0.9,1.9,2,1.9
					C210.6,54.9,211.4,54,211.5,52.8C211.4,52.9,211.4,52.9,211.5,52.8L211.5,52.8z M213,50.2h0.6l2.8,4v-4h0.7v5.4h-0.6l-2.8-4v4
					H213V50.2z M217.9,54.2l0.6-0.3c0.2,0.7,0.8,1.1,1.5,1.1c0.6,0,1.1-0.3,1.1-0.8s-0.3-0.7-0.8-0.8l-1-0.3
					c-0.8-0.1-1.4-0.9-1.3-1.7c0.1-0.8,0.9-1.4,1.7-1.3c0.9-0.1,1.7,0.5,2,1.3l-0.6,0.3c-0.2-0.6-0.7-0.9-1.3-0.9
					c-0.6,0-1,0.3-1,0.8c0,0.4,0.3,0.8,0.8,0.9l0.9,0.3c0.9,0.3,1.3,0.7,1.3,1.5c0,0.9-0.8,1.6-1.6,1.5c0,0-0.1,0-0.1,0
					C219.1,55.7,218.2,55.1,217.9,54.2L217.9,54.2z"/>
			</g>
		</g>
		<g id="c0b74a7a-c7df-4c11-9474-e084fa27f694">
			<g id="c0b74a7a-c7df-4c11-9474-e084fa27f694-child-0">
				<path class="st0" d="M159,62.6V25.3h86.5v37.3H159z"/>
			</g>
		</g>
		<g id="e4d8b318-f039-41b0-9983-205e1d3579a3">
			<g id="e4d8b318-f039-41b0-9983-205e1d3579a3-child-0">
				<path class="st0" d="M113.4,62.6V25.3H159v37.3H113.4z"/>
			</g>
		</g>
		<g id="f1a1c114-36ea-42de-bbd6-71f775833cde">
			<g id="f1a1c114-36ea-42de-bbd6-71f775833cde-child-0">
				<path class="st0" d="M113.4,25.1V0.6h132v24.5H113.4z"/>
			</g>
		</g>
		<g id="afe26bc5-58cd-438c-9c69-4a4f9676d1e7">
			<g id="afe26bc5-58cd-438c-9c69-4a4f9676d1e7-child-0">
				<path d="M135.9,58.3c-2.2,0-4.4-0.3-6.5-1.1c-1.9-0.7-3.8-1.7-5.3-3c-1.5-1.2-2.7-2.7-3.6-4.5c-1.7-3.4-1.7-7.5,0-10.9
					c0.9-1.7,2.1-3.2,3.6-4.5c1.6-1.3,3.4-2.3,5.3-3c4.2-1.4,8.8-1.4,13.1,0c1.9,0.7,3.7,1.7,5.3,3c1.5,1.2,2.7,2.7,3.6,4.5
					c1.7,3.4,1.7,7.5,0,10.9c-0.9,1.7-2.1,3.2-3.6,4.5c-1.6,1.3-3.4,2.3-5.3,3C140.3,58,138.1,58.3,135.9,58.3z M120.4,43.8h4.1
					c0-1,0.1-2,0.4-3c0.2-0.9,0.6-1.8,1-2.7h-3.6c-0.5,0.8-1,1.7-1.3,2.7C120.7,41.8,120.5,42.8,120.4,43.8z M122.3,50.5h3.6
					c-0.4-0.9-0.8-1.8-1-2.7c-0.2-1-0.4-2-0.4-3h-4.1c0,1,0.2,2,0.6,3C121.3,48.8,121.7,49.7,122.3,50.5z M123,37.1h3.4
					c1.5-2.3,3.6-4.2,6.1-5.4c-1.9,0.3-3.8,1-5.4,1.9C125.5,34.5,124.1,35.7,123,37.1z M132.7,57c-2.5-1.2-4.7-3.1-6.2-5.4H123
					c1.2,1.4,2.6,2.6,4.2,3.4C128.9,56,130.7,56.7,132.7,57z M125.8,43.8h9.4v-5.7h-7.9c-0.5,0.8-0.8,1.7-1.1,2.7
					C125.9,41.8,125.8,42.8,125.8,43.8L125.8,43.8z M127.3,50.6h7.9v-5.7h-9.4c0,1,0.1,2,0.4,3C126.4,48.8,126.8,49.7,127.3,50.6
					L127.3,50.6z M127.9,37.1h7.3v-5.4c-1.5,0.6-2.9,1.4-4.3,2.3C129.8,34.9,128.8,35.9,127.9,37.1L127.9,37.1z M135.2,56.9v-5.3
					h-7.3c0.8,1.2,1.8,2.2,3,3C132.3,55.6,133.7,56.3,135.2,56.9L135.2,56.9z M136.5,37.1h7.2c-0.8-1.1-1.9-2.2-3-3
					c-1.3-0.9-2.7-1.7-4.2-2.3L136.5,37.1z M136.5,43.8h9.4c0-1-0.1-2-0.4-3c-0.3-0.9-0.6-1.8-1.1-2.7h-7.9V43.8z M136.5,50.6h7.9
					c0.5-0.8,0.8-1.7,1.1-2.7c0.3-1,0.4-2,0.4-3h-9.4V50.6z M136.5,57c1.5-0.6,2.9-1.4,4.3-2.3c1.2-0.8,2.2-1.8,3-3h-7.3L136.5,57z
					 M145.2,37.1h3.5c-1.2-1.4-2.6-2.6-4.2-3.5c-1.7-1-3.6-1.6-5.5-1.9C141.5,32.9,143.6,34.8,145.2,37.1L145.2,37.1z M139.1,57
					c1.9-0.3,3.7-1,5.4-1.9c1.6-0.9,3-2,4.1-3.4h-3.4C143.7,53.9,141.6,55.8,139.1,57L139.1,57z M147.2,43.8h4.1c0-1-0.2-2-0.6-3
					c-0.3-0.9-0.8-1.8-1.3-2.7h-3.6c0.4,0.9,0.8,1.7,1,2.7C147,41.8,147.2,42.8,147.2,43.8L147.2,43.8z M145.8,50.6h3.6
					c0.5-0.8,1-1.7,1.3-2.7c0.3-1,0.5-2,0.6-3h-4.1c0,1-0.1,2-0.4,3C146.6,48.8,146.2,49.7,145.8,50.6L145.8,50.6z"/>
			</g>
		</g>
		<g id="c3dfe1ae-dbbd-49d3-9e63-3118eac5ac32">
			<g id="_1dbde547-cfe7-4df4-a5d3-b9441bef8d76">
				<path d="M139.8,81.3h3l4.3,12.5h-2.5l-0.9-2.7h-4.8l-0.9,2.7h-2.5L139.8,81.3z M143,89.1l-1.8-5.3l-1.8,5.3H143z M148.4,81.3
					h2.3v10.5h5.4v2h-7.7L148.4,81.3z M157.6,81.3h2.3v10.5h5.4v2h-7.6V81.3z M169.3,87.5c-0.2-3.4,2.4-6.3,5.9-6.5
					c0.1,0,0.3,0,0.4,0c2.3-0.1,4.4,1.2,5.3,3.3l-2,1c-0.5-1.4-1.8-2.2-3.3-2.2c-2.4,0-4,1.8-4,4.4s1.7,4.4,4,4.4
					c1.8,0.2,3.4-1.2,3.5-3c0,0,0-0.1,0-0.1l0,0h-3.6v-2h5.9v1.3c0.2,3.1-2.2,5.8-5.4,5.9c-0.1,0-0.3,0-0.4,0
					c-3.4,0-6.3-2.7-6.3-6.1C169.3,87.7,169.3,87.6,169.3,87.5L169.3,87.5z M182.9,87.5c0-3.6,2.9-6.6,6.5-6.6
					c3.6,0,6.6,2.9,6.6,6.5c0,3.6-2.9,6.6-6.5,6.6c0,0,0,0-0.1,0c-3.5,0.1-6.4-2.7-6.5-6.2C182.9,87.7,182.9,87.6,182.9,87.5
					L182.9,87.5z M193.7,87.5c-0.1-2.4-2-4.2-4.4-4.1c-2.4,0.1-4.2,2-4.1,4.4c0.1,2.3,2,4.1,4.3,4.1c2.3,0,4.2-1.8,4.3-4.1
					C193.7,87.7,193.7,87.6,193.7,87.5L193.7,87.5z M197.7,87.5c0-3.6,2.9-6.6,6.5-6.6c3.6,0,6.6,2.9,6.6,6.5c0,3.6-2.9,6.6-6.5,6.6
					c0,0-0.1,0-0.1,0c-3.5,0.1-6.4-2.6-6.5-6.2C197.7,87.7,197.7,87.6,197.7,87.5L197.7,87.5z M208.5,87.5c-0.1-2.4-2-4.2-4.4-4.1
					c-2.4,0.1-4.2,2-4.1,4.4c0.1,2.3,2,4.1,4.3,4.1c2.3,0,4.2-1.8,4.2-4.2C208.5,87.7,208.5,87.6,208.5,87.5L208.5,87.5z
					 M212.9,81.3h4.1c4,0,6.5,2.6,6.5,6.3s-2.6,6.3-6.5,6.3h-4.1V81.3z M217,91.8c2.3,0,4.3-1.9,4.3-4.3s-1.9-4.3-4.3-4.3h-1.9v8.5
					H217z M133.5,100.1h-3.3v-2h8.7v2h-3.2v10.5h-2.3L133.5,100.1z M140.4,98.1h2.3v5.5h5.3v-5.5h2.3v12.5H148v-5h-5.3v5h-2.3
					L140.4,98.1z M152.7,98.1h2.3v12.5h-2.3L152.7,98.1z M157.4,98.1h1.8l6,8v-8h2.3v12.5h-1.8l-6-8.2v8.2h-2.3L157.4,98.1z
					 M169.5,104.4c-0.2-3.4,2.5-6.3,5.9-6.5c0.1,0,0.3,0,0.4,0c2.3-0.1,4.4,1.2,5.3,3.3l-2,1c-0.5-1.4-1.8-2.2-3.3-2.2
					c-2.4,0-4,1.8-4,4.4s1.7,4.4,4,4.4c1.9,0,3.6-1.2,3.6-3.1l0,0h-3.6v-1.9h5.9v1.3c0.1,3.1-2.3,5.8-5.4,5.9c-0.1,0-0.3,0-0.4,0
					c-3.5,0-6.3-2.7-6.3-6.2C169.5,104.6,169.5,104.5,169.5,104.4L169.5,104.4z M182.9,107.4l1.9-0.8c0.5,1.4,1.8,2.3,3.2,2.3
					c1.2,0,2-0.6,2-1.5c0-0.7-0.4-1.2-1.3-1.5l-2.4-0.8c-1.9-0.6-2.9-1.8-2.9-3.5c0-2.2,1.7-3.7,4.2-3.7c2.1-0.1,4,1.2,4.7,3.1
					l-1.9,0.8c-0.4-1.2-1.6-2-2.8-2c-1.2,0-1.9,0.6-1.9,1.6c0,0.7,0.4,1.2,1.4,1.5l2.3,0.7c2,0.6,3,1.8,3,3.5c0,2.2-1.8,3.7-4.4,3.7
					C185.7,110.9,183.7,109.5,182.9,107.4L182.9,107.4z M200.7,98.1h3l4.3,12.5h-2.5l-0.9-2.7h-4.8l-0.9,2.7h-2.5L200.7,98.1z
					 M203.9,105.9l-1.8-5.3l-1.8,5.3H203.9z M209.4,98.1h4.6c2.6,0,4.4,1.4,4.4,4c0.1,1.5-0.8,3-2.3,3.6l2.9,5h-2.6l-2.6-4.7h-2.1
					v4.6h-2.3L209.4,98.1z M214,104c1.1,0.1,2-0.7,2.1-1.8c0.1-1.1-0.7-2-1.8-2.1c-0.1,0-0.2,0-0.3,0h-2.4v3.9H214z M220.4,98.1h8.3
					v2h-6v3.2h5.7v2h-5.7v3.3h6v2h-8.3V98.1z"/>
			</g>
		</g>
		<g id="_2f70371b-0f30-480c-b9de-d4d80302cd07">
			<g id="e9ca0999-03cf-4523-9d2b-eabfcba7d5ad">
				<path d="M127.9,118h2.4l2.3,9.4l2.4-9.4h2.4l2.4,9.4l2.3-9.4h2.5l-3.4,12.5h-2.6l-2.4-9l-2.4,9h-2.6L127.9,118z M146.1,118h2.3
					v12.5h-2.3V118z M150.7,118h2.3v10.5h5.4v2h-7.7L150.7,118z M159.9,118h4.1c4,0,6.5,2.6,6.5,6.3s-2.6,6.3-6.5,6.3h-4.1
					L159.9,118z M164,128.5c2.3,0,4.3-1.9,4.3-4.3s-1.9-4.3-4.3-4.3h-1.9v8.5H164z M175.4,127.4c0.1-1.5,0.9-2.8,2.3-3.5
					c-0.7-0.8-1.1-1.8-1.2-2.8c0-1.8,1.4-3.2,3.2-3.2c0.1,0,0.1,0,0.2,0c1.7-0.1,3.2,1.2,3.3,3c0,0.1,0,0.1,0,0.2
					c0,1.7-1.4,2.7-2.4,3.3l1.7,1.9l1.2-1.8h2.3l-2.1,3.3l2.5,2.8h-2.6l-1.1-1.2c-0.9,0.9-2.1,1.4-3.4,1.4
					C177,130.8,175.4,129.4,175.4,127.4L175.4,127.4z M179.5,122.8c0.9-0.5,1.6-1.1,1.6-1.9c0-0.7-0.5-1.3-1.2-1.3c0,0,0,0-0.1,0
					c-0.7,0-1.3,0.6-1.3,1.3c0,0,0,0,0,0.1C178.6,121.7,179,122.4,179.5,122.8L179.5,122.8z M179.4,128.8c0.8,0,1.5-0.4,1.9-1
					l-2.3-2.5c-0.8,0.4-1.2,1.2-1.3,2c0,0.8,0.6,1.5,1.4,1.6C179.2,128.9,179.3,128.9,179.4,128.8L179.4,128.8z M191.7,118h8.3v2h-6
					v3.5h5.3v2H194v5h-2.3L191.7,118z M201.5,118h4.7c2.6,0,4.4,1.4,4.4,4c0.1,1.5-0.8,3-2.3,3.6l2.9,5h-2.6l-2.6-4.6h-2.1v4.6h-2.3
					L201.5,118z M206.2,123.9c1.1,0.1,2-0.7,2.1-1.8c0.1-1.1-0.7-2-1.8-2.1c-0.1,0-0.2,0-0.3,0h-2.4v3.9H206.2z M212.6,118h8.4v2h-6
					v3.2h5.7v2H215v3.3h6v2h-8.3L212.6,118z M222.6,118h8.4v2h-6v3.2h5.7v2H225v3.3h6v2h-8.3L222.6,118z"/>
			</g>
		</g>
		<g id="_5849cb6e-1291-4689-98f6-300c9b4ed9a9">
			<g id="_5849cb6e-1291-4689-98f6-300c9b4ed9a9-child-0">
				<path class="st1" d="M276.3,59.8V47.9h111.6v11.9H276.3z"/>
			</g>
		</g>
		<g id="c3dd1e1e-b138-4011-83bd-eda5f544f59a">
			<g id="_7e5a10d0-b4bf-41f0-97f4-7a016c68c653">
				<path d="M270.2,129.3h6.2v1.5h-4.5v2.6h4v1.5h-4v3.8h-1.7V129.3z M277.5,129.3h1.7v7.8h4v1.5h-5.7V129.3z M285.6,134.5l-3.1-5.2
					h1.9l2.1,3.5l2-3.5h2l-3.1,5.2v4.1h-1.7V134.5z M291.5,129.3h1.7v9.3h-1.7V129.3z M295,129.3h1.3l4.5,6v-6h1.7v9.3h-1.3
					l-4.4-6.1v6.1H295L295,129.3z M304,133.9c-0.1-2.5,1.8-4.7,4.4-4.8c0.1,0,0.2,0,0.3,0c1.7-0.1,3.3,0.9,3.9,2.5l-1.5,0.7
					c-0.4-1-1.3-1.7-2.4-1.6c-1.7,0-3,1.4-3,3c0,0.1,0,0.1,0,0.2c-0.1,1.7,1.1,3.1,2.7,3.3c0.1,0,0.2,0,0.3,0
					c1.3,0.1,2.5-0.9,2.6-2.2c0,0,0-0.1,0-0.1l0,0h-2.7v-1.4h4.4v0.9c0.1,2.3-1.7,4.3-4,4.4c-0.1,0-0.2,0-0.3,0
					c-2.6,0-4.6-2.1-4.7-4.6C304,134.1,304,134.1,304,133.9L304,133.9z M316.2,136.2l1.4-0.6c0.4,1,1.3,1.7,2.4,1.7
					c0.9,0,1.5-0.4,1.5-1.1s-0.3-0.9-1-1.1l-1.8-0.6c-1.3-0.2-2.2-1.3-2.2-2.6c0-1.6,1.3-2.7,3.1-2.7c1.6-0.1,3,0.9,3.5,2.3
					l-1.4,0.6c-0.3-0.9-1.2-1.5-2.1-1.5c-0.9,0-1.4,0.5-1.4,1.1c0,0.6,0.4,1,1,1.1l1.7,0.5c1.5,0.5,2.2,1.3,2.2,2.6
					c0,1.6-1.3,2.7-3.2,2.7C318.2,138.8,316.7,137.8,316.2,136.2L316.2,136.2z M324.4,133.9c0-2.7,2.1-4.9,4.8-4.9
					c2.7,0,4.9,2.1,4.9,4.8c0,2.7-2.1,4.9-4.8,4.9c0,0,0,0-0.1,0c-2.6,0.1-4.8-2-4.9-4.6C324.4,134.1,324.4,134.1,324.4,133.9
					L324.4,133.9z M332.5,133.9c-0.1-1.7-1.5-3.1-3.3-3.1c-1.7,0.1-3.1,1.5-3.1,3.3c0.1,1.7,1.5,3.1,3.2,3.1c1.7,0,3.2-1.3,3.2-3.1
					C332.5,134.1,332.5,134,332.5,133.9L332.5,133.9z M335.7,129.3h1.6l3.1,4.2l3-4.2h1.6v9.3h-1.7v-6.3l-2.9,3.8h-0.2l-2.9-4v6.5
					h-1.7L335.7,129.3z M346.9,129.3h6.2v1.5h-4.5v2.4h4.3v1.5h-4.3v2.4h4.5v1.5h-6.2V129.3z M353.6,129.3h1.8l1.7,7l1.8-7h1.8
					l1.8,7l1.7-7h1.8l-2.5,9.3h-2l-1.8-6.7l-1.8,6.7h-2L353.6,129.3z M367.1,129.3h1.7v4.1h4v-4.1h1.7v9.3h-1.7v-3.8h-4v3.8h-1.7
					V129.3z M376.3,129.3h6.2v1.5H378v2.4h4.2v1.5H378v2.4h4.5v1.5h-6.2L376.3,129.3z M383.8,129.3h3.5c1.9,0,3.2,1.1,3.2,2.9
					c0.1,1.2-0.6,2.2-1.7,2.6l2.1,3.8H389l-1.9-3.4h-1.6v3.4h-1.7L383.8,129.3z M387.3,133.7c0.8,0,1.4-0.6,1.4-1.4
					s-0.6-1.4-1.4-1.4h-1.8v2.9H387.3z M392.1,129.3h6.2v1.5h-4.5v2.4h4.2v1.5h-4.3v2.4h4.5v1.5H392L392.1,129.3z"/>
			</g>
		</g>
		<g id="_577e2988-82b0-4da2-b8a6-266926613671">
			<g id="_577e2988-82b0-4da2-b8a6-266926613671-child-0">
				<path d="M313.1,89.7c0-0.3,0.2-0.7,0.5-0.8c0.3-0.2,0.8-0.2,1.1,0c0.5,0.1,0.8,0.6,0.7,1.1c-0.1,0.4-0.1,0.9,0,1.3
					c0.1,0.7,1,1.1,0.5,1.4s-1.3,0.1-1.3,0.7s0.6,0.8,0,1s-0.8,0.3-0.8,0.7s-1,0.8-1.5,0s-2.8-4-2-4.3c0.7-0.3,1.5-0.1,2,0.5
					c0.3,0.6,0.7,0.4,0.8,0.1s0.2-0.7,0.5-0.7S313.1,90.1,313.1,89.7z M324,115.9c-1.7-1.8-3.5-3.6-5.4-5.3c-1.1-0.9-1.5-2.5-2.5-4
					s-3.1-2.3-4.1-3.5c-1.3-1.6-2.6-3.1-4.1-4.5c-0.9-0.7-1-1.2-1.5-0.9s-0.6,0.6-0.1,1.7s-2.3,0.6-0.5,1.6s4.1,2.6,4.8,4
					s0.1,1.6,0.6,2.2s0.6,0.7-0.2,0.8s-1,1-0.9,1.7s-1.1-1.3-1.6,0s1.8,3.3,1.8,4.1s-0.9,0.1-2,0.1s-2-0.2-1.9,1.2s-0.1,2.6-1.1,2.4
					s-2.6-0.4-2.8-1.3c-0.2-0.7,0.1-1.4,0.6-1.8c0.4-0.3-0.3-1.2-0.9-1.1s-0.6,0.7-1.1,0.6s0.5-1.2,0-1.4s-0.9,0.1-1.6,0.4
					s0.8-0.8,0.8-1.2s-1.8-0.6-1-1.1s1.3-0.8,1.1-1.5s-0.1-1,0.5-1.6s-0.8-0.7-0.4-1.2s1.6-0.9,1.4-1.4s-1.1-0.7-1.7,0
					c-0.7,0.6-1.2,1.4-1.6,2.2c-0.2,0.7-2.6,1.2-3.6,1.8s-3.1,1.2-3.2,1.8s1.9,0.2,0.9,0.8s-2.1,0.5-1.8,1.3s0.6,0.6,1.2,0.8
					s-1.1,0.3-0.1,1s2.1-0.3,1.3,0.6s-1.3,1.2-0.6,1.4s1.4,0.5,0.1,0.5s-1.3,0.3-1.9,0s-1.4-0.7-1.7,0c-0.3,0.6-0.6,1.2-0.9,1.7
					h40.1C326.8,118.1,325.3,117.1,324,115.9z M386.5,118.4l-5.4,0.4c-0.3-0.3-0.6-0.7-0.9-1.2c-0.6-0.9-0.1-0.7-1.5-1.4
					s-1-0.2-2.3-1.1s-0.6-0.9-2.2-1.6c-1-0.3-2-0.7-3-1.2c-0.9-0.6-1.1-0.2-1.7-1.1l-0.3-0.4c-3.6-0.9-6.5-2.5-5.3-3.3
					c0.6-0.3,2.3,0.2,3.7,1.1c2.1,1.4,2.6,1.4,2.2,0.3c-0.3-0.8-1.8-1.9-3.5-2.5s-5.7-3-8.9-5.5c-6-4.5-12.5-8.3-13.1-7.6
					c-0.2,0.2,1.3,1.3,3.3,2.5c4.4,2.6,3.9,3.7-0.8,1.8c-4.4-1.8-7.1-5.7-5.2-7.4c1.1-1,2-0.8,4.6,0.8c1.3,0.9,2.8,1.6,4.3,2
					c0.5,0-0.8-1.1-3-2.5s-4-3.3-4-4.2c-0.2-1.5-0.6-2.9-1.4-4.1l-1.3-2.4l-1.9,3.1c-2.8,4.4-6.4,6.5-8.8,5.2c-1.3-0.7-2-0.7-2,0
					s2.4,2.2,5.2,3.7c2.9,1.4,5.6,3.1,8.2,4.9c5.4,4.1,10.5,6.5,12.8,6c1.5-0.3,3.3,0.5,5.7,2.6c1.9,1.7,2.7,2.8,1.8,2.5
					s-1.8-0.2-1.8,0.4c0,0.1,0,0.3,0.1,0.4c0.2,0,0.4-0.1,0.6-0.1c0.6-0.2,0.7,0,1.4,0.7c0.7,0.5,1.5,1,2.4,1.3
					c1.1,0.7,2.1,1.5,3,2.4l0.3,0.3l0,0c0.4,0.5,0.9,0.9,1.4,1.3c0.9,0.6,0.7,0.5,0.9,0.9c1.4,1.1,2.9,2.1,4.5,2.9
					c1.9,1,2.5,0.8,1.9,0.8h-4c-0.8,0-1.1-0.3-2.1-1.1s-0.8-0.9-2-1.2c-0.9-0.3-1.8-0.8-2.6-1.4c-0.9-0.6-0.9-0.8-0.9-0.4
					s-0.3,0.2-0.8,0.4c-0.3,0.1-0.5,0.2-0.6,0.4c0.1,0.2,0.1,0.4-0.2,0.4c0,0.2,0.1,0.5,0.2,0.6c0.6,0.6,0,0.8-0.5,0.9
					s-2.2-1.4-4.4-2.8s-1.7-1.8-2.3-2.5s-0.4-0.2,0.2-0.6s2.6,0.8,2.7,0.3s0.7,0.2,1.5,0.3s1.1-0.4,0.1-1.2l0,0
					c-2.1-1.2-4.8-2.9-8.1-5s-6.6-3.9-7.2-3.9s-2.4-1.3-4-3c-2.7-2.8-11-6.8-12-5.8c-0.3,0.3,1.2,1.3,3.3,2.4
					c2.7,1.5,5.3,3.2,7.7,5.2c2.8,2.2,5.9,4.1,9.2,5.7c5.1,2.4,7.5,4.5,5.3,4.5c-0.6,0-3.6-1.3-6.6-3c-2-1.2-4-2.2-6.1-3
					c-0.9,0,4.1,3.9,5,4c0.4,0,2.8,1.6,5.3,3.5c5.3,4.1,4.7,4.5-1.3,1.1c-4.4-2.5-5.9-1.8-2,0.9c1.8,1.3,1.9,1.6,0.5,1.6
					c-1,0-1.7,0.5-1.7,1.1s-0.8,0.9-1.9,0.6c-1.2-0.2-2.5-0.1-3.6,0.5c-1.4,0.8-1.6,0.7-1-0.3s0.3-1.1-1-0.6c-2.1,0.8-4.6-0.9-4-2.7
					c0.3-0.7-0.8-1.3-2.7-1.4l-3.2-0.2l3.4,2.9c4.3,3.7,3.5,3.8-1.9,0.3l0,0c-0.8-0.5-1.5-1-2.2-1.6l0,0c-0.8-0.6-1.5-1.3-2-2.1
					c-0.4-0.8,0-0.7-0.8-1.1s-3.8-3.1-5-4.1s-3.7-3.8-5.2-5s-1.9-1.7-1.7-2.4s0.9,0,1.8,0.5s0.4-0.4,0.4-0.8s0.4-0.7,1.1-0.4
					s2,1.9,2.6,1.6s0.6-0.3,1.8,0.2s2.6,1.5,2.8,1.2s-0.5-1-0.4-1.7s0.9-0.3,2.1,1s2.5,2.3,3,2c0.9-0.7,1.5-1.7,1.7-2.9
					c0.3-1.4,0-0.6,0.5-1.1s2.3,1.1,2.3,1.1l0,0c0.6,0.3,1.2,0.6,1.8,1l2.7,1.7l-2.3-2.6c-1.4-1.5-3.1-2.6-5-3.2
					c-1.5-0.4-2.8-1-4.1-1.9c-0.2,0.1-0.6,0.2-1.3-0.2c-3.7-2.5-7.3-5.3-10.6-8.3c-1.8-1.8-1.7-2.6-1.5-2.8s0.8,0.3,1.1,0.6
					s0.5,0.2,0.5-0.4s0.4-0.9,0.6-1.2s-0.3-0.7-0.4-1.1s1-0.4,0.5-0.8s-0.1-0.8,0.3-1.2s0.1-0.4-0.5-1.3s0.4-1.8,0.9-1.5
					s1.6,1.6,1.8,1.3c0.3-1-0.2-2-1.2-2.3c0,0-0.1,0-0.1,0c-3.8-0.6-5.8,0.1-6.7,2.4c-0.8,1.5-1.8,2.9-3,4.1c-2.2,2.7-4,5.7-5.6,8.8
					c-2.5,4.8-4.2,6.9-6.9,8.3c-2.6,1.6-4.9,3.7-6.8,6.1c-3.4,4.6-8.9,7.8-13,7.7l-1.1-0.1l-0.3-0.4l0.3-0.1l0.4-0.1l0.8-0.2
					c1.2-0.4,2.4-0.9,3.5-1.5c2.8-1.7,5.3-3.9,7.3-6.6c0.4-0.5,0.7-1,1.1-1.5l0.4-0.6l0.1-0.1l-13.5,3.4V106l13.8-3.7
					c0.9-1.2,1.9-2.3,3.1-3.1c0.2-0.1,0.4-0.3,0.6-0.4c0.4-0.2,0.7-0.3,1.1-0.4c0.1,0,0.2-0.1,0.4-0.1c0.4-0.1,0.7-0.2,1.1-0.4
					c0.7-0.4,1.4-0.9,1.9-1.4c1-1,1.9-2.1,2.6-3.2c1.3-1.9,2.3-4,3-6.2c0-0.1,0.1-0.2,0.1-0.4c0.3-0.7,0.7-1.4,1.1-2
					c0.1-0.1,0.1-0.2,0.2-0.3l0.2-0.3l0.2-0.3c0.7-1,1.4-1.9,2.2-2.8c1.3-1.4,2.4-2.9,3.5-4.4c0.3-0.4,0.6-0.9,0.8-1.3
					c0.2-0.5,0.6-1,1.1-1.4l0,0c0.4-0.2,0.9-0.4,1.3-0.4c1.5,0,2.9,0.1,4.4,0.3c3.1,0.4,6.2,1,6.9,1.6c0.2,0.1,0.3,0.3,0.5,0.5
					c0.9,1.2,1.7,2.6,2.4,3.9c0.3,0.6,0.7,1.3,1,1.9l0.3,0.7c1.3,2.6,2.6,4.6,3.1,4.8h0.1c0.5-0.2,0.9-0.4,1.3-0.8
					c0.6-0.6,1.1-1.2,1.6-1.9l0.1-0.1l0.6-0.7c0.3-0.4,0.7-0.8,1-1.2c0.7-0.8,1.4-1.5,2.1-2.2c0.4-0.3,0.8-0.6,1.2-0.8
					c0.4-0.2,0.9-0.3,1.4-0.3c0.5,0,1,0,1.5,0.1c0.5,0.1,1,0.2,1.5,0.3c0.5,0.1,1,0.3,1.4,0.5c0.5,0.2,0.9,0.4,1.3,0.6
					c0.1,0.1,0.2,0.1,0.3,0.2l0.2,0.1l0.1,0.2l0.1,0.2c0.1,0.1,0.2,0.2,0.3,0.3c0.4,0.4,0.8,0.7,1.3,1c0.9,0.6,1.9,1,3,1.3
					c0.5,0.2,1,0.3,1.6,0.4c0.3,0.1,0.5,0.1,0.8,0.1h0.4h0.4c0.9,0.1,1.8,0.4,2.5,1c0.8,0.6,1.4,1.3,1.8,2.2
					c0.2,0.4,0.5,0.9,0.6,1.3c0.1,0.2,0.2,0.5,0.2,0.7s0.1,0.2,0.1,0.4l0.1,0.4c0.3,1.1,0.7,2.1,1.3,3c0.3,0.5,0.6,0.9,1,1.3
					c0.2,0.2,0.5,0.3,0.7,0.4c0.2,0.1,0.5,0.3,0.7,0.4c0.9,0.5,1.9,0.9,2.9,1.2c0.5,0.2,1,0.3,1.5,0.5s0.9,0.2,1.3,0.3l0.4,0.1
					c0.9,0.2,1.9,0.4,2.8,0.4c0.6,0.1,1.1,0.4,1.5,0.8c0.7,0.6,1.3,1.2,1.8,1.9l0.1,0.2l0.4,0.4c1,1.1,2.2,2,3.5,2.8
					c0.5,0.3,1,0.6,1.5,0.9l0.3,0.1c1.7,0.8,2.5,1.3,2.3,1.4l0,0c-0.3,0-0.6,0-0.8-0.1h-0.2l-2.5-0.4l2.7,2.4l0.1,0.1l0.4,0.4
					l0.2,0.2c0.4,0.4,0.8,0.8,1.1,1.2c1.1,1.4-1.4,0.3-6-2.8c-2.8-2-5.6-3.4-6.2-3.2s0.8,1.6,3.1,3.2c0.5,0.3,0.9,0.7,1.3,1l0,0
					c0.4,0.3,0.7,0.5,1.1,0.8c0.2,0.2,0.5,0.4,0.6,0.6l0,0c0.8,0.7,1.5,1.1,2,1.7c0.8,0.7,1.8,1.3,2.8,1.7c1.3,0.5,1.8,0.8,1.8,0.8
					s0,2.3-0.3,1.9c-0.9-0.9-2-1.6-3.1-2c-1.7-0.7-2.4-1.7-3.7-2.8c-0.5-0.5-1.1-0.9-1.7-1.2c-0.4-0.2-0.9-0.5-1.4-0.8l0,0
					c-1.1-0.7-2.2-1.5-3.1-2.4c-1.2-1.1-2.6-1.7-3-1.3c-0.7,0.7,0,1.4,5.2,5.1l0.5,0.4l0,0c0.2,0.1,0.4,0.3,0.5,0.5
					c0.5,0.4,0.9,0.8,1.4,1.2s0.5,0.6,1.4,1s1.3,0.4,1.3,0.7s-0.5,0.4,0,0.7s1,0.5,1.7,1s0.1,0.5,1.4,1.1s1.4,0.1,1.8,0.8
					C385.8,118.3,386.1,118.5,386.5,118.4L386.5,118.4z M372,100.5c0.5,0.7,1.3,1.3,2.2,1.5c0.5,0,0.5-0.7-0.2-1.5
					c-0.6-0.7-1.3-1.3-2.2-1.5C371.2,99,371.3,99.6,372,100.5z M357,106c1.9,1.2,2.3,1.2,1.5,0l0,0c-0.4-0.6-1.1-1-1.8-1
					C356,105,356.1,105.4,357,106L357,106z M325.5,90.8l0.6-0.2c-0.1-0.2-0.3-0.3-0.5-0.6c-1.1-1.5-1.8-3.3-2-5.1
					c-0.6-5.3-1.3-7.2-3.5-8c0.4,0.5,0.7,1.1,0.8,1.7c0.2,0.8,0.2,1.7-0.4,1.8s-0.1,0.4-0.1,1.3s-0.2,0.8,0,1.4
					c0.2,0.5,0.3,1,0.3,1.6c0.1,1.2,2.4,4.7,2.4,4.7c0.6,1,1.8,2.1,2.1,2S325.5,90.8,325.5,90.8z M352.6,87c0.3,0.6,0.8,1,1,1
					s0.5-0.4,0.5-1c0-0.6-0.4-1-1-1c0,0,0,0-0.1,0C352.4,86,352.2,86.5,352.6,87z M354.2,92c2.8,2.3,2.9,2.3,2.9,1l0,0
					c0-1.1-8.7-7-10.3-7c-0.5,0-0.1,0.9,0.9,2c0.8,1,1.8,1.7,3,2C351.9,90.4,353.2,91,354.2,92z M366,100c-7.8-6-7.4-5.8-8.7-4.4
					c-1.6,1.7-0.7,4.1,1.9,4.7c1.6,0.4,1.8,0.3,0.8-0.9c-2.2-2.6-0.2-2.6,2.4,0c1.4,1.4,3.4,2.5,4.4,2.5
					C368.2,101.9,368.1,101.6,366,100z M386.5,118.4c0.1,0,0.2,0,0.3,0H386.5z M287.9,87.3c0-0.3-0.3-1.1-0.5-0.7
					c-0.3,0.6-0.7,1.2-1.1,1.8c-0.4,0.5-0.8,1.2-1,1.8c-0.1,0.5-0.3,1.5-0.8,1.5s-0.4-0.3-0.7-0.2c-0.2,0-0.5,0-0.7,0
					c-0.2,0-0.4,0-0.4,0.2s0.2,0.3,0.6,0.7s1,1.1,1.5,1.3s0.5,0.4,1,0.4s0.6-0.3,1,0s0.4,0.6,0.7,0.7s0.6-0.2,0.8-0.4s0-0.3-0.3-0.4
					c-0.3-0.1-0.5-0.2-0.7-0.5c-0.2-0.2-0.5-0.3-0.6-0.6s0.3-0.8,0.4-1.2s0.3-0.6,0.5-1s0.4-0.8,0.3-1.2s0.1-0.9,0.1-1.1
					S288,87.6,287.9,87.3z M290.5,79.8c0.4-0.3,0.8-0.5,1.2-0.7c0.2-0.1,0.5-0.2,0.6-0.4c0.2-0.1,0.3-0.2,0.5-0.2
					c0.2,0,0.4-0.5,0.5-0.5s0.4,0.2,0.5,0.6c0,0.4,0,0.9,0,1.3c0.1,0.4,0.3,0.4,0.5,0.3s0.8-1.1,1.1-1.2s-0.2-0.5,0-0.8
					s0-0.9,0.1-1.2s0.1-0.8-0.1-0.8c-0.3,0-0.5,0-0.8,0.1c-0.3,0-0.2-0.4-0.1-0.6s0.6-0.2,0.6-0.5s-0.2-0.5-0.1-0.8s0.4-0.5,0.4-1.2
					s0.1-2.3,0-2.8s0-0.8-0.1-1s-0.2,1-0.3,1.3s-1,1.2-1.1,1.5c-0.1,0.4-0.1,0.7-0.2,1.1c-0.2,0.5-0.4,0.9-0.8,1.3
					c-0.2,0.1-1-0.1-1.1,0.2s0.1,0.8,0.2,0.8s0.3,0.5,0.2,0.8c-0.2,0.6-0.6,1-1.1,1.3c-0.5,0.5-0.9,1.2-1,1.9c0,0.1,0.1,0.2,0.2,0.2
					C290.3,79.8,290.4,79.8,290.5,79.8z M334.7,84.3c0.3-0.3,0.6-0.6,0.8-0.9l-6-0.2l0.5,0.9L334.7,84.3z M304.9,83.2l0.4-0.5
					l-30.1-0.7V82L304.9,83.2z M339.8,78.7c0.3-0.2,0.7-0.3,1-0.4l-36.9-11.8h-1.5l37.1,12.4C339.5,78.8,339.6,78.8,339.8,78.7z
					 M327.9,115.8c-2-1.1-2.1-1-0.9,0.5c0.6,0.8,1.3,1.4,2.3,1.7C330.8,117.9,330.2,117.1,327.9,115.8z M326.9,98
					c1.5,0,1.5-0.2,0.2-1c-2-1.3-3.3-1.3-2.5,0C325.2,97.7,326.1,98,326.9,98z M348.3,80.2L348.3,80.2l0.2,0.2l0.1,0.1
					c0.1,0.1,0.1,0.2,0.2,0.2c0.1,0.1,0.2,0.2,0.3,0.3c0.3,0.2,0.6,0.4,0.9,0.6c0.9,0.5,1.8,0.9,2.7,1.2c0.5,0.1,0.9,0.3,1.4,0.3
					c0.2,0,0.5,0.1,0.7,0.1h0.4h0.4c1.2,0.1,2.3,0.5,3.2,1.2c0.9,0.7,1.6,1.6,2.1,2.6c0.3,0.5,0.5,1,0.7,1.5l0.2,0.8
					c0,0.1,0.1,0.3,0.1,0.4L362,90c0,0.2,0.1,0.3,0.1,0.4c0.1,0.3,0.2,0.6,0.4,1c0.2,0.5,0.4,0.9,0.6,1.3c0.2,0.4,0.5,0.8,0.8,1.2
					l0,0c0.2-0.1,0.4-0.3,0.6-0.4l1.5,1.8c0.6,0.3,1.2,0.6,1.8,0.8l0.4,0.1l-2.8-3.4c0.5-0.5,1-1,1.4-1.5l19.8,13.4v-1l-19.2-13.4
					c0.3-0.6,0.6-1.2,0.9-1.8l18.3,5.9v-0.9l-18-6c0.2-0.7,0.3-1.3,0.3-2l17.7,0.4V85l-17.7-0.7c0-0.7-0.1-1.3-0.3-2l18-4.8v-0.9
					l-18.3,4.7c-0.2-0.6-0.5-1.2-0.8-1.8l19.2-11.7v-0.9l-19.8,11.7c-0.4-0.5-0.8-1-1.3-1.5l9.6-10.6H374l-9.2,9.8
					c-0.5-0.4-1-0.8-1.6-1.1l4.3-8.8h-1.1l-4.2,8.3c-0.6-0.2-1.2-0.4-1.8-0.6l1.3-7.8h-1l-1.4,7.6c-0.4,0-0.8-0.1-1.2-0.1
					c-0.2,0-0.5,0-0.7,0l-0.9-7.5h-1l0.8,7.7c-0.6,0.1-1.2,0.3-1.8,0.5l-3.5-8.1h-1.1l3.5,8.6c-0.6,0.3-1.1,0.6-1.6,1l-7.8-9.6h-1.2
					l8.2,10.2c-0.5,0.4-0.9,0.9-1.3,1.4l-17.1-11.6h-1.5L349,79C348.7,79.4,348.5,79.8,348.3,80.2z"/>
			</g>
		</g>
		<g id="_3447993f-d9f8-410a-a129-f0266516fef7">
			<g id="b5d9670a-28cc-450e-a1f2-4808b97ed2c9">
				<path d="M365.6,143.1c2-0.1,4.1,0.5,5.8,1.5c1.6,0.9,2.8,2.3,3.6,3.9c1.6,3.3,1.6,7.1,0,10.4c-0.8,1.6-2.1,3-3.6,3.9
					c-3.6,2-8,2-11.6,0c-1.6-0.9-2.8-2.3-3.6-3.9c-1.6-3.3-1.6-7.1,0-10.4c0.8-1.6,2.1-3,3.6-3.9C361.6,143.5,363.6,143,365.6,143.1
					z M365.6,162.3c1.6,0,3.3-0.4,4.7-1.3c1.3-0.8,2.3-1.9,2.9-3.2c1.3-2.6,1.3-5.7,0-8.4c-0.7-1.3-1.7-2.4-2.9-3.2
					c-2.9-1.6-6.5-1.6-9.4,0c-1.3,0.8-2.3,1.9-2.9,3.2c-1.3,2.6-1.3,5.7,0,8.4c0.7,1.3,1.7,2.4,2.9,3.2
					C362.3,161.9,364,162.3,365.6,162.3L365.6,162.3z M370.2,151.5c0,0.8-0.2,1.5-0.6,2.1c-0.4,0.6-1.1,1.1-1.8,1.3l2.7,4.5h-2.3
					l-2.6-4.2h-2v4.2h-2v-11.5h4.4c1.1-0.1,2.2,0.3,3,1C369.8,149.6,370.2,150.6,370.2,151.5L370.2,151.5z M363.7,149.7v3.8h2.3
					c0.6,0,1.1-0.2,1.5-0.5c0.4-0.3,0.6-0.8,0.6-1.3c0-0.5-0.2-1-0.6-1.4c-0.4-0.4-1-0.6-1.5-0.5L363.7,149.7z"/>
			</g>
		</g>
		<g id="_4bacef1d-13ae-4aa4-ac45-117865d6560d">
			<g id="a8839fbb-580f-46c8-885e-3f0329469975">
				<path d="M279.3,50.6h0.8l1.2,4.6l1.3-4.6h0.8l1.3,4.6l1.2-4.6h0.8l-1.6,5.6h-0.8l-1.3-4.6l-1.3,4.6h-0.8L279.3,50.6z M287,50.5
					h0.7v2.1c0.3-0.4,0.7-0.6,1.1-0.6c0.8,0,1.5,0.6,1.5,1.4c0,0,0,0.1,0,0.1v2.6h-0.7v-2.4c0-0.6-0.4-1-0.9-1.1c0,0,0,0-0.1,0
					c-0.6,0-1,0.4-1,1c0,0,0,0,0,0.1v2.4H287L287,50.5z M291,54.1c-0.1-1.1,0.8-2,1.9-2.1c0,0,0.1,0,0.1,0c1,0,1.9,0.8,1.9,1.9
					c0,0,0,0.1,0,0.1c0,0.1,0,0.3,0,0.4h-3.1c0,0.7,0.6,1.3,1.3,1.3c0.5,0,0.9-0.3,1.1-0.7l0.6,0.3c-0.3,0.6-1,1-1.7,1
					c-1.1,0.1-2-0.8-2.1-1.9C291,54.3,291,54.2,291,54.1L291,54.1z M291.8,53.7h2.4c0-0.6-0.5-1.1-1.1-1.1c0,0,0,0,0,0
					C292.4,52.6,291.9,53.1,291.8,53.7z M295.6,52.1h0.7v0.5c0.2-0.4,0.6-0.6,1.1-0.5h0.3v0.7h-0.4c-0.5,0-1,0.3-1,0.8
					c0,0.1,0,0.1,0,0.2v2.4h-0.7L295.6,52.1z M297.9,54.1c-0.1-1.1,0.8-2,1.9-2.1c0,0,0.1,0,0.1,0c1,0,1.9,0.8,1.9,1.9
					c0,0,0,0.1,0,0.1c0,0.1,0,0.3,0,0.4h-3.1c0,0.7,0.6,1.3,1.3,1.3c0,0,0,0,0,0c0.5,0,0.9-0.2,1.1-0.7l0.6,0.3c-0.3,0.6-1,1-1.7,1
					c-1.1,0-2-0.9-2-2C298,54.2,298,54.1,297.9,54.1L297.9,54.1z M298.7,53.7h2.3c0-0.6-0.5-1.1-1.1-1.1c0,0,0,0,0,0
					C299.2,52.6,298.7,53.1,298.7,53.7L298.7,53.7z M303.5,55.1c0-0.6,0.4-1.1,1.3-1.3l1.4-0.2v-0.2c0-0.4-0.4-0.8-0.8-0.8
					c0,0,0,0-0.1,0c-0.4,0-0.8,0.3-1,0.7l-0.6-0.3c0.3-0.6,0.9-1,1.6-1c0.8-0.1,1.5,0.5,1.6,1.3c0,0,0,0.1,0,0.1v2.8h-0.7v-0.5
					c-0.3,0.4-0.8,0.6-1.4,0.6C304.2,56.3,303.6,55.8,303.5,55.1C303.5,55.1,303.5,55.1,303.5,55.1L303.5,55.1z M304.9,55.7
					c0.7,0,1.2-0.5,1.3-1.1c0,0,0,0,0-0.1v-0.3l-1.2,0.2c-0.5,0.1-0.8,0.3-0.8,0.7C304.2,55.4,304.5,55.7,304.9,55.7
					C304.9,55.7,304.9,55.7,304.9,55.7z M307.8,52.1h0.7v0.5c0.2-0.4,0.6-0.6,1.1-0.5h0.3v0.7h-0.4c-0.5,0-1,0.3-1,0.8
					c0,0.1,0,0.1,0,0.2v2.4h-0.7L307.8,52.1z M310,54.1c-0.1-1.1,0.8-2,1.9-2.1c0,0,0.1,0,0.1,0c1,0,1.9,0.8,1.9,1.9
					c0,0,0,0.1,0,0.1c0,0.1,0,0.3,0,0.4h-3.1c0,0.7,0.6,1.3,1.3,1.3c0.5,0,0.9-0.3,1.1-0.7l0.6,0.3c-0.3,0.6-1,1-1.7,1
					c-1.1,0-2-0.9-2-2C310.1,54.2,310.1,54.1,310,54.1L310,54.1z M310.8,53.7h2.4c0-0.6-0.5-1.1-1.1-1.1c0,0,0,0,0,0
					C311.4,52.6,310.8,53.1,310.8,53.7L310.8,53.7z M316.2,54.9v-2.1h-0.7v-0.7h0.1c0.3,0,0.6-0.2,0.6-0.5c0,0,0,0,0-0.1v-0.3h0.7
					v0.9h0.9v0.7h-0.9v2.1c0,0.3,0.2,0.6,0.5,0.7c0.1,0,0.1,0,0.2,0c0.1,0,0.2,0,0.3,0v0.6c-0.1,0-0.3,0-0.4,0
					c-0.6,0-1.2-0.4-1.2-1.1C316.1,55.1,316.1,55,316.2,54.9L316.2,54.9z M318.5,50.5h0.7v2.1c0.3-0.4,0.7-0.6,1.1-0.6
					c0.8,0,1.5,0.6,1.5,1.4c0,0,0,0.1,0,0.1v2.6h-0.7v-2.4c0-0.6-0.4-1-0.9-1.1c0,0,0,0-0.1,0c-0.6,0-1,0.4-1,1c0,0,0,0,0,0.1v2.4
					h-0.7L318.5,50.5z M322.5,54.1c-0.1-1.1,0.8-2,1.9-2.1c0,0,0.1,0,0.1,0c1,0,1.9,0.8,1.9,1.9c0,0,0,0.1,0,0.1c0,0.1,0,0.3,0,0.4
					h-3.1c0,0.7,0.6,1.3,1.3,1.3c0,0,0,0,0,0c0.5,0,0.9-0.3,1.1-0.7l0.6,0.3c-0.3,0.6-1,1-1.7,1c-1.1,0.1-2-0.8-2.1-1.9
					C322.5,54.2,322.5,54.2,322.5,54.1L322.5,54.1z M323.3,53.7h2.4c0-0.6-0.5-1.1-1.1-1.1c0,0,0,0,0,0
					C323.9,52.6,323.3,53.1,323.3,53.7L323.3,53.7z M326.9,55.1l0.6-0.3c0.2,0.5,0.6,0.8,1.1,0.8c0.4,0,0.8-0.2,0.8-0.6
					s-0.4-0.5-0.6-0.6l-0.6-0.2c-0.7-0.2-1-0.6-1-1.1c0-0.7,0.6-1.2,1.3-1.2c0,0,0.1,0,0.1,0c0.7,0,1.3,0.4,1.6,1l-0.6,0.3
					c-0.2-0.4-0.6-0.7-1-0.7c-0.4,0-0.7,0.2-0.7,0.5s0.3,0.5,0.6,0.5l0.7,0.2c0.6,0.1,1,0.6,1,1.2c0,0.7-0.6,1.2-1.5,1.2
					C327.9,56.2,327.2,55.8,326.9,55.1L326.9,55.1z M330.6,54.1c-0.1-1.1,0.8-2,1.9-2.1c0,0,0.1,0,0.1,0c1,0,1.9,0.8,1.9,1.8
					c0,0,0,0.1,0,0.1c0,0.1,0,0.3,0,0.4h-3.1c0,0.7,0.6,1.3,1.3,1.3c0,0,0,0,0,0c0.5,0,0.9-0.3,1.1-0.7l0.6,0.3c-0.3,0.6-1,1-1.7,1
					c-1.1,0.1-2-0.8-2.1-1.9C330.6,54.3,330.6,54.2,330.6,54.1L330.6,54.1z M331.4,53.7h2.4c0-0.6-0.5-1.1-1.1-1.1c0,0,0,0,0,0
					C332,52.6,331.4,53.1,331.4,53.7L331.4,53.7z M336.4,52.1h0.6v0.6c0.3-0.4,0.9-0.7,1.4-0.7c1.2,0.1,2,1.1,2,2.3
					c-0.1,1.1-0.9,1.9-2,2c-0.6,0-1.1-0.2-1.4-0.7v2.1h-0.7L336.4,52.1z M339.7,54.1c0.1-0.7-0.5-1.4-1.2-1.4c0,0,0,0-0.1,0
					c-0.8,0-1.4,0.6-1.4,1.3c0,0,0,0.1,0,0.1c0,0.8,0.5,1.4,1.3,1.4c0,0,0,0,0.1,0c0.7,0,1.3-0.6,1.4-1.3
					C339.7,54.2,339.7,54.2,339.7,54.1L339.7,54.1z M341,54.1c-0.1-1.1,0.8-2,1.9-2.1c0,0,0.1,0,0.1,0c1,0,1.9,0.8,1.9,1.8
					c0,0,0,0.1,0,0.1c0,0.1,0,0.3,0,0.4h-3.1c0,0.7,0.6,1.3,1.3,1.3c0.5,0,0.9-0.3,1.1-0.7l0.6,0.3c-0.3,0.6-1,1-1.7,1
					c-1.1,0.1-2.1-0.8-2.1-1.9C341,54.3,341,54.2,341,54.1L341,54.1z M341.8,53.7h2.4c0-0.6-0.5-1.1-1.1-1.1c0,0,0,0,0,0
					C342.4,52.6,341.8,53.1,341.8,53.7L341.8,53.7z M345.5,54.1c0-1.2,1-2.1,2.1-2.1c1.2,0,2.1,1,2.1,2.1c0,1.1-0.9,2.1-2.1,2.1
					c-1.1,0-2.1-0.8-2.1-2C345.4,54.2,345.4,54.2,345.5,54.1L345.5,54.1z M348.9,54.1c0-0.7-0.7-1.3-1.4-1.3c-0.7,0-1.3,0.7-1.3,1.4
					c0,0.7,0.6,1.3,1.4,1.3C348.3,55.5,348.9,54.9,348.9,54.1C348.9,54.1,348.9,54.1,348.9,54.1L348.9,54.1z M350.4,52.1h0.6v0.6
					c0.3-0.4,0.9-0.7,1.4-0.7c1.2,0.1,2,1.1,2,2.3c-0.1,1.1-0.9,1.9-2,2c-0.5,0-1.1-0.2-1.4-0.7v2.1h-0.7L350.4,52.1z M353.7,54.1
					c0.1-0.7-0.5-1.4-1.2-1.4c0,0,0,0-0.1,0c-0.8,0-1.4,0.6-1.4,1.4c0,0,0,0.1,0,0.1c0,0.8,0.5,1.4,1.3,1.4c0,0,0,0,0.1,0
					c0.7,0,1.3-0.6,1.3-1.3C353.7,54.2,353.7,54.2,353.7,54.1L353.7,54.1z M355.2,50.4h0.7v5.7h-0.7V50.4z M356.6,54.1
					c-0.1-1.1,0.8-2,1.9-2.1c0,0,0.1,0,0.1,0c1,0,1.9,0.8,1.9,1.9c0,0,0,0.1,0,0.1c0,0.1,0,0.3,0,0.4h-3.1c0,0.7,0.6,1.3,1.3,1.3
					c0.5,0,0.9-0.3,1.1-0.7l0.6,0.3c-0.3,0.6-1,1-1.7,1c-1.1,0-2-0.9-2-2C356.7,54.2,356.7,54.1,356.6,54.1L356.6,54.1z M357.4,53.7
					h2.4c0-0.6-0.5-1.1-1.1-1.1c0,0,0,0,0,0C358,52.6,357.4,53.1,357.4,53.7L357.4,53.7z M362.8,52.7H362V52h0.8v-0.3
					c0-0.7,0.5-1.3,1.3-1.4c0,0,0.1,0,0.1,0c0.1,0,0.2,0,0.4,0V51h-0.3c-0.5,0-0.8,0.2-0.8,0.7V52h1v0.7h-1v3.4h-0.7L362.8,52.7z
					 M364.8,54.1c0-1.2,1-2.1,2.1-2.1c1.2,0,2.1,1,2.1,2.1c0,1.1-0.9,2.1-2.1,2.1c-1.1,0-2.1-0.9-2.1-2
					C364.8,54.2,364.7,54.2,364.8,54.1L364.8,54.1z M368.2,54.1c0-0.7-0.7-1.3-1.4-1.3c-0.7,0-1.3,0.7-1.3,1.4
					c0,0.7,0.6,1.3,1.4,1.3C367.6,55.5,368.2,54.9,368.2,54.1L368.2,54.1z M369.6,54.6v-2.5h0.7v2.5c0,0.5,0.3,1,0.9,1
					c0,0,0.1,0,0.1,0c0.6,0,1-0.4,1-1c0,0,0,0,0-0.1v-2.4h0.7v4h-0.7v-0.5c-0.3,0.4-0.7,0.6-1.1,0.6c-0.8,0-1.5-0.6-1.5-1.5
					C369.6,54.7,369.6,54.6,369.6,54.6L369.6,54.6z M373.8,52h0.7v0.5c0.3-0.4,0.7-0.6,1.1-0.6c0.8,0,1.5,0.6,1.5,1.4
					c0,0,0,0.1,0,0.1v2.6h-0.7v-2.4c0-0.6-0.4-1-0.9-1.1c0,0,0,0-0.1,0c-0.6,0-1,0.4-1,1c0,0,0,0,0,0.1v2.4h-0.7L373.8,52z
					 M377.8,54c-0.1-1.1,0.8-2.1,1.9-2.1c0,0,0.1,0,0.1,0c0.5,0,1.1,0.2,1.4,0.6v-2.1h0.7v5.7h-0.7v-0.6c-0.3,0.4-0.9,0.7-1.4,0.7
					c-1.1,0-2-0.9-2-2C377.8,54.2,377.8,54.2,377.8,54L377.8,54z M381.2,54c0.1-0.7-0.5-1.4-1.2-1.5c-0.7-0.1-1.4,0.5-1.5,1.2
					c0,0.1,0,0.2,0,0.2c0,0.7,0.5,1.4,1.2,1.4c0,0,0.1,0,0.1,0C380.6,55.5,381.2,54.9,381.2,54L381.2,54z M383.6,54.3
					c0-0.6,0.3-1.1,0.8-1.5c0.4-0.3,0.7-0.6,0.7-1.1c0-0.4-0.4-0.8-0.8-0.8c0,0,0,0-0.1,0c-0.5,0-0.9,0.4-1,0.9l-0.7-0.2
					c0.1-0.8,0.9-1.4,1.7-1.4c0.8-0.1,1.5,0.5,1.6,1.3c0,0,0,0,0,0.1c-0.1,0.6-0.4,1.1-0.9,1.5c-0.3,0.3-0.6,0.7-0.6,1.1v0.1h-0.7
					L383.6,54.3z M383.6,55.2h0.7v0.9h-0.7V55.2z"/>
			</g>
		</g>
	</g>
</g>
</svg>
