<svg xmlns="http://www.w3.org/2000/svg" viewBox="0 0 1057.39 1049.86"><defs><style>.cls-1{fill:none;}</style></defs><title>Asset 35</title><g id="Layer_2" data-name="Layer 2"><g id="Layer_1-2" data-name="Layer 1"><g id="_6b9559b8-b488-4279-ad89-65ad0e1d40b7" data-name="6b9559b8-b488-4279-ad89-65ad0e1d40b7"><g id="_6b9559b8-b488-4279-ad89-65ad0e1d40b7-child-0" data-name="6b9559b8-b488-4279-ad89-65ad0e1d40b7-child-0"><path class="cls-1" d="M932.26,538c0,222.77-180.69,403.37-403.57,403.37S125.13,760.81,125.13,538,305.82,134.68,528.69,134.68,932.26,315.28,932.26,538Z"/></g><g id="_6b9559b8-b488-4279-ad89-65ad0e1d40b7-child-1" data-name="6b9559b8-b488-4279-ad89-65ad0e1d40b7-child-1"><path d="M528.69,126.08c-227.28,0-412.17,184.81-412.17,412S301.41,950,528.69,950,940.87,765.2,940.87,538,756,126.08,528.69,126.08Zm0,801c-214.6,0-389.19-174.51-389.19-389S314.09,149,528.69,149s389.2,174.51,389.2,389S743.3,927.05,528.69,927.05Zm0-750.1c-199.2,0-361.26,162-361.26,361.09S329.49,899.13,528.69,899.13,890,737.15,890,538,727.9,177,528.69,177ZM691.37,538c0,19.18-.68,37.63-1.92,55.29-48-8.7-103.23-13.52-162-13.52-57.76,0-112.1,4.65-159.58,13.08C366.7,575.37,366,557.11,366,538a751.09,751.09,0,0,1,5.62-93.61,1043,1043,0,0,1,314.21,0A749.08,749.08,0,0,1,691.37,538Zm-4,79.36c-5.77,55.38-17.51,102.23-33.13,140.25-36.51-7.55-79.51-11.81-125.56-11.81s-89.05,4.26-125.55,11.81c-15.65-38.06-27.43-85-33.19-140.61,44.81-8.19,97.91-13.18,157.53-13.18C588.14,603.75,642.09,609,687.38,617.4ZM528.69,408.58a1050.39,1050.39,0,0,0-153.34,10.79c8.83-52.61,23.39-96.16,41.47-130.12a903.91,903.91,0,0,1,223.75,0c18.07,34,32.64,77.51,41.47,130.12A1050.53,1050.53,0,0,0,528.69,408.58ZM255.4,340.77c23.44-18.55,69.38-36.09,132.16-47.11-16.52,35.4-29.46,78.77-37.26,129.8-66.22,12-119.93,30.65-153.4,53.94A335.26,335.26,0,0,1,255.4,340.77Zm414.38-47.11c62.83,11,108.78,28.56,132.22,47.12a335.53,335.53,0,0,1,58.46,136.65c-33.45-23.33-87.2-41.95-153.41-53.94C699.24,372.43,686.3,329.06,669.78,293.66Zm94.84,3.73C735.47,286,699.14,277,658,270.86,644,246,628,226.09,610.85,211.05A337.33,337.33,0,0,1,764.62,297.39ZM627.41,266.93a944.32,944.32,0,0,0-197.31,0c28.85-43.53,64.19-66,98.59-66S598.44,223.4,627.41,266.93Zm-228,3.93C358.32,277,322,286,292.84,297.38A337.24,337.24,0,0,1,446.6,211.07c-17.17,15-33.16,35-47.23,59.79Zm-207,242.32C215.17,485.93,272.3,463.1,347,448.75A787.9,787.9,0,0,0,342.07,538c0,20.71.77,40.5,2.13,59.49-60.26,13-107.15,32.36-132.37,56.16A335.22,335.22,0,0,1,191.44,538C191.38,529.67,191.79,521.4,192.39,513.18Zm29.32,164.29.36.29c16.39-20.81,60.06-41.76,124.23-56,5.84,55.29,17.48,102.46,33.08,141.44-29.89,8.07-53.9,18.64-69.56,31.07A339,339,0,0,1,221.71,677.47ZM329.24,809.68c13.05-9,33.33-17.48,59.78-24.34,16.36,34.21,36.05,60.81,57.57,79.66a336,336,0,0,1-117.35-55.28Zm84-29.76c32.3-6.28,71.21-10.24,115.42-10.24s83.13,4,115.43,10.24c-31.28,62.66-74,95.33-115.43,95.33S444.55,842.58,413.27,780Zm255.1,5.43c26.46,6.86,46.77,15.38,59.79,24.35A336.06,336.06,0,0,1,610.84,865C632.32,846.18,652,819.59,668.37,785.35Zm79.15,8.93c-15.59-12.43-39.57-23-69.56-31.07,15.59-38.88,27.15-85.88,33-141,62.88,14.26,105.67,35,121.86,55.51l4.17-3.28a338.94,338.94,0,0,1-89.47,119.82Zm97.35-138.85c-24.37-24.23-71.14-44.09-131.72-57.37,1.39-19.18,2.16-39.12,2.16-60a790.21,790.21,0,0,0-4.89-89.29c74.67,14.38,131.82,37.16,154.58,64.44.6,8.22,1,16.48,1,24.85a335.21,335.21,0,0,1-21.14,117.41Z"/></g></g><g id="c436d460-a144-45f4-8846-2404200cef7f"><g id="_53ba68c4-2b15-4660-b9df-98c89ca13944" data-name="53ba68c4-2b15-4660-b9df-98c89ca13944"><path d="M493.22,1006.84l29.49,1.24-.51,12.21-29.5-1.24Zm-74.69-18.17a8.08,8.08,0,0,0,1.68,7.35q2.6,3,10.07,7.23A81,81,0,0,1,441.9,1011q11.3,9.53,8.87,21.18a18.46,18.46,0,0,1-5.66,10.1,22.73,22.73,0,0,1-11.35,5.38,37.86,37.86,0,0,1-14.91-.32,34.38,34.38,0,0,1-13.67-5.87,23.2,23.2,0,0,1-8-10.21,21.91,21.91,0,0,1-1-12.74l15.4,3.2a10.27,10.27,0,0,0,1.57,8.66q2.64,3.52,8.49,4.74,5.64,1.19,9.28-.56a7.68,7.68,0,0,0,4.44-5.63q.75-3.66-2.4-6.87a42,42,0,0,0-9.85-6.87q-12.31-6.69-17.11-13.8a20,20,0,0,1-3-15.83q2-9.69,10.51-13.69t20.92-1.41a39,39,0,0,1,15,6.43,25.42,25.42,0,0,1,9,10.89,22.74,22.74,0,0,1,1.07,13.51l-15.45-3.21q2.56-12.37-12.21-15.45c-3.67-.76-6.68-.62-9,.45a7.38,7.38,0,0,0-4.38,5.59ZM301.15,993.3l21.58,9,24.51-58.69,14.53,6.06-24.52,58.7,21.29,8.89L353.63,1029l-57.38-24ZM262,928.58l10.4,7L288,912.39,301,921.17l-42.61,63.34-23.54-15.83q-11.22-7.56-13.95-16.66t3.42-18.24a23.48,23.48,0,0,1,10.08-8.92,23,23,0,0,1,13.14-1.17l3.73-35.12.39-.6,14,9.43Zm3.29,17.57-10.52-7.09q-4.92-3.3-9.31-2.62a10.79,10.79,0,0,0-7.33,5.08q-3,4.49-2.21,8.76t6.09,7.83l10.49,7Zm-91.34-85.07,21.55,21.17,14.33-14.59-25.29-24.84,8.86-9,36.51,35.87-53.5,54.46L140,888.34l8.93-9.09L174.1,904l12.76-13-21.55-21.17Zm-52.87-67.46,17.51,24.6,16.66-11.85-20.55-28.89,10.3-7.33,29.68,41.71-62.21,44.27L82.85,814.51l10.38-7.39,20.48,28.8,14.83-10.56L111,800.76ZM48,719.4l9.91,21.18,57.61-27,6.67,14.25-57.61,27,9.77,20.89-11.54,5.4L36.42,724.8ZM61.27,612.7,6,614.32,2.64,599l78.21.16,3.4,15.46L37,637.72l52.55,1.18L93,654.37,22.05,687.3,18.68,672l50.74-21.73-55.65-.66-2.86-13Zm-18-103.18,0,30.2,20.45,0,0-35.45,12.64,0,.06,51.18-76.35.1L0,504.44l12.74,0,0,35.34,18.2,0,0-30.2Zm27.63-79.1-5,27.14,14.52,8L77.4,482,7.46,440.23l2.64-14.34,80.26-14.27-3,16.45ZM54.14,451.07l3.46-18.78-29.85,4.27ZM83,350.08,78.27,361.7l25.9,10.52-5.92,14.57L27.51,358.06l10.68-26.29q5.09-12.52,13.44-17.06t18.55-.4q7.25,2.94,10.8,8A23,23,0,0,1,84.82,335L120,331.42l.68.27-6.36,15.65ZM66.47,356.9l4.78-11.76q2.23-5.49.65-9.63a10.74,10.74,0,0,0-6.47-6.14q-5-2-9-.37T50,336.57l-4.75,11.71ZM127,268.15,111.6,293.38,101.16,287l15.35-25.22Zm52-56.56a8.08,8.08,0,0,0-7.24-2.08q-3.86.84-11.2,5.31a78.83,78.83,0,0,1-12.4,6.42q-13.8,5.3-22.83-2.46a18.4,18.4,0,0,1-6.1-9.84A22.72,22.72,0,0,1,120,196.4a37.63,37.63,0,0,1,7.48-12.89,34.38,34.38,0,0,1,11.75-9.13A23.13,23.13,0,0,1,152,172.29a21.91,21.91,0,0,1,11.63,5.32l-10.25,11.93q-4-3.42-8.35-2.81t-8.26,5.14q-3.75,4.38-4,8.4a7.66,7.66,0,0,0,2.79,6.61q2.82,2.43,7.17,1.22a42.16,42.16,0,0,0,10.78-5.3q11.8-7.55,20.34-8.31a20,20,0,0,1,15.29,5q7.51,6.45,6.91,15.82t-8.87,19a38.94,38.94,0,0,1-12.91,10.07A25.58,25.58,0,0,1,160.42,247a22.66,22.66,0,0,1-12.35-5.59l10.29-12q9.58,8.24,19.43-3.22,3.65-4.26,4-8.13a7.41,7.41,0,0,0-2.79-6.53Zm52.51-105.08L213.2,121.09l39.66,49.74-12.3,9.8L200.9,130.9l-18,14.39-8-10,48.64-38.78ZM307,103.28,295.89,109l12.84,24.83-14,7.22-35-67.82,25.19-13q12-6.21,21.31-4.22t14.34,11.76q3.58,6.95,3,13.13A22.92,22.92,0,0,1,318.24,93l29,20.14.33.65-15,7.75Zm-17-5.57,11.28-5.82q5.26-2.73,6.77-6.9a10.8,10.8,0,0,0-.93-8.88q-2.49-4.78-6.63-6.14t-9.78,1.58l-11.23,5.8Zm118.55-39.1-28.94,8.67,5.87,19.59,34-10.17,3.62,12.11-49,14.68L352.18,30.34,401.11,15.7l3.66,12.2L370.9,38l5.22,17.43,28.94-8.66ZM493.22,45l-30,3.41,2.32,20.32,35.22-4,1.43,12.55-50.86,5.79L442.69,7.19l50.75-5.78,1.44,12.66-35.12,4,2.05,18.08,30-3.41ZM593.48,16.76l-23.34-1.52L566,78.71l-15.7-1,4.14-63.48-23-1.5L532.24,0l62.07,4.05Zm87.11,63,25.16-49.22,15,4.41-37.75,68.49L667.85,99l2.45-52.51L644,92,628.8,87.51l5.25-78,15,4.41-5.35,54.93,27.33-48.48,12.79,3.75Zm99.06,34L753.19,99.14l-9.85,17.92,31,17.08-6.08,11.08-44.85-24.66,36.79-66.91L805,78.27l-6.14,11.16-31-17-8.77,15.94,26.47,14.56Zm55.85,62.46-21.32-17.49-14,8.83-12.93-10.61,70.4-41,11.28,9.25-26.33,77.15-12.93-10.61Zm-10-24.66,14.76,12.11L851,135.43Zm74.53,74-7.91-9.73-21.68,17.64-9.93-12.21,59.24-48.17,17.9,22q8.53,10.5,8.49,20t-8.59,16.45c-4,3.27-8.12,5.14-12.25,5.58a22.93,22.93,0,0,1-12.91-2.7l-13.79,32.5-.57.46-10.65-13.1Zm2-17.76,8,9.84q3.75,4.6,8.14,5.22a10.8,10.8,0,0,0,8.5-2.72q4.18-3.4,4.65-7.75t-3.54-9.25l-8-9.8Zm48.72,95.68L936,277.86l10.59-6.1,14.74,25.58Zm24.57,72.83a8.08,8.08,0,0,0,5.31-5.35q1.13-3.78.73-12.36a81.25,81.25,0,0,1,.34-14q2-14.64,13.17-18.82a18.43,18.43,0,0,1,11.56-.61,22.73,22.73,0,0,1,10.61,6.72,37.73,37.73,0,0,1,7.69,12.77,34.3,34.3,0,0,1,2.35,14.69,23.23,23.23,0,0,1-4.35,12.24,22,22,0,0,1-10.25,7.62L1007,364.47a10.34,10.34,0,0,0,6.48-6q1.56-4.12-.53-9.71-2-5.42-5.43-7.55a7.72,7.72,0,0,0-7.14-.74q-3.5,1.31-4.53,5.7a42.61,42.61,0,0,0-.54,12q.93,14-2.52,21.83A20,20,0,0,1,981,391q-9.29,3.48-17.19-1.55t-12.37-16.93a39,39,0,0,1-2.61-16.16,25.3,25.3,0,0,1,4.4-13.44,22.64,22.64,0,0,1,10.85-8.12l5.53,14.77q-11.83,4.44-6.53,18.59,2,5.25,5.21,7.39a7.41,7.41,0,0,0,7.07.71ZM1042,473,1038,450l-62.71,10.65-2.63-15.52,62.71-10.64-3.86-22.75,12.56-2.13,10.41,61.32Zm-33.7,67.69.33-12.54-27.94-.74.42-15.72,76.32,2-.75,28.36q-.36,13.53-6.58,20.71t-17.23,6.89q-7.8-.2-12.93-3.73a23,23,0,0,1-8-10.46l-31.63,15.69-.73,0,.44-16.89Zm13.07-12.2L1021,541.2q-.15,5.92,2.78,9.25a10.79,10.79,0,0,0,8.22,3.47c3.6.09,6.46-.85,8.58-2.84s3.22-5.1,3.34-9.33l.33-12.64ZM998.52,651.22l6.32-29.53-20-4.28-7.42,34.67-12.36-2.65,10.72-50.06,74.66,16-10.7,49.95-12.46-2.67,7.4-34.56-17.79-3.81-6.33,29.53ZM969.75,732,981.21,704l-18.93-7.75-13.44,32.79-11.7-4.79,19.41-47.35,70.65,29-19.37,47.25L996,748.3l13.41-32.7-16.84-6.91-11.46,27.95ZM946,833.41l12.62-19.69-53.55-34.34,8.49-13.24,53.55,34.34,12.46-19.43,10.72,6.88-33.57,52.35Zm-97.23,45.82,31,45.78-11.13,11L826.84,870l11.24-11.16,44.81,27.49-27.17-45L867,830.12l65.82,42.24-11.13,11-45.53-31.2,29.27,47.35-9.46,9.38Zm-77.44,70.53,25.49-16.22-11-17.25-29.9,19-6.78-10.66,43.17-27.48,41,64.42L790.23,989l-6.84-10.75,29.82-19-9.77-15.35L778,960.16Zm-81.61,18.93,25.61-10.28-1-16.55,15.52-6.23,2.06,81.45-13.53,5.43-55-60.22L679,956.06Zm26.41,3.14-17.71,7.11L718,1001.89Zm-100.78,29.56,12.33-2.21-4.94-27.51,15.49-2.79L651.74,1044l-27.92,5q-13.32,2.39-21.62-2.24T592,1031.34q-1.38-7.69,1-13.43a23.06,23.06,0,0,1,8.62-10l-21.78-27.79-.13-.72,16.61-3Zm14.59,10.33L617.45,1014c-3.88.7-6.72,2.23-8.49,4.6a10.77,10.77,0,0,0-1.73,8.75q1,5.31,4.52,7.83t9.81,1.37l12.44-2.24Zm-107.33-3.65,29.52-.54.22,12.22-29.51.54Z"/></g></g></g></g></svg>