<svg xmlns="http://www.w3.org/2000/svg" viewBox="0 0 2377.96 318.4"><defs><style>.cls-1{fill:none;}</style></defs><title>Asset 15</title><g id="Layer_2" data-name="Layer 2"><g id="Layer_1-2" data-name="Layer 1"><g id="a39abaa4-0e33-4059-a962-14686f56ad43"><g id="_860834a3-9f25-4c3f-ac09-fb62e132fe41" data-name="860834a3-9f25-4c3f-ac09-fb62e132fe41"><path d="M64,170.68H19v33.67H71.55v15.18H0V110.1H71v15.33H19v30.22H64Zm80.26,20.67q0-7.22-5.07-11.13t-18.3-7.89q-13.23-4-21-8.87-15-9.39-15-24.5,0-13.22,10.78-21.79t28-8.57A47.28,47.28,0,0,1,144,112.81a33.45,33.45,0,0,1,14.05,12A30.69,30.69,0,0,1,163.16,142H144.22q0-8.56-5.37-13.41t-15.37-4.85q-9.32,0-14.47,4t-5.15,11.13q0,6,5.56,10t18.34,7.82q12.78,3.8,20.52,8.64a32.7,32.7,0,0,1,11.35,11.12,29,29,0,0,1,3.61,14.7q0,13.67-10.49,21.75T124.31,221a53.5,53.5,0,0,1-21.84-4.39A36.65,36.65,0,0,1,87,204.5a30.26,30.26,0,0,1-5.52-18h19q0,9.31,6.16,14.43T124.31,206q9.91,0,14.91-4a13,13,0,0,0,5-10.63ZM259,125.43H224.86v94.1H206v-94.1H172.18V110.1H259Zm14.35,94.1V110.1h32.32a50.68,50.68,0,0,1,25.74,6.47,44.11,44.11,0,0,1,17.4,18.33Q355,146.78,355,162.11v5.49q0,15.56-6.2,27.35a43.51,43.51,0,0,1-17.66,18.19,53,53,0,0,1-26.27,6.39Zm19-94.1v78.92h12.41q15,0,23-9.36t8.15-26.87V162q0-17.82-7.74-27.21t-22.47-9.4Zm166.4,94.1H440.55V131.67l-26.83,9.17V125.43l42.69-15.7h2.33Zm89.81-45.77q-9.16,9.7-21.42,9.7-14.43,0-23-10.11t-8.56-26.57a43.56,43.56,0,0,1,4.36-19.62,32.44,32.44,0,0,1,12.4-13.68A35.22,35.22,0,0,1,531,108.6q16.54,0,26.23,12.33t9.7,33V159q0,29.61-13.38,45.17T513.6,220h-2.18V204.87h2.63q16.16-.23,24.81-7.77t9.69-23.34ZM531,169.18a18.4,18.4,0,0,0,10.3-3.16,20.78,20.78,0,0,0,7.44-8.72v-7.14q0-12.1-5-19.46t-12.85-7.37a14.77,14.77,0,0,0-12.59,6.5q-4.69,6.49-4.7,16.42,0,10.31,4.74,16.61A15,15,0,0,0,531,169.18ZM636,173.76q-9.16,9.7-21.42,9.7-14.43,0-23-10.11t-8.57-26.57a43.56,43.56,0,0,1,4.36-19.62,32.57,32.57,0,0,1,12.4-13.68,35.23,35.23,0,0,1,18.64-4.88q16.53,0,26.23,12.33t9.69,33V159q0,29.61-13.38,45.17T601.08,220h-2.17V204.87h2.63q16.15-.23,24.8-7.77T636,173.76Zm-17.58-4.58A18.4,18.4,0,0,0,628.74,166a20.78,20.78,0,0,0,7.44-8.72v-7.14q0-12.1-5-19.46t-12.85-7.37a14.77,14.77,0,0,0-12.59,6.5q-4.69,6.49-4.7,16.42,0,10.31,4.74,16.61a15,15,0,0,0,12.63,6.32Zm126.86,50.35H671.73V207l36.45-39.76q7.89-8.79,11.24-14.69a23.79,23.79,0,0,0,3.34-11.84q0-7.81-4.39-12.62t-11.84-4.81q-8.87,0-13.75,5.41t-4.89,14.8H669.63a35.82,35.82,0,0,1,4.54-18,31.37,31.37,0,0,1,13-12.44,41.41,41.41,0,0,1,19.5-4.43q15.93,0,25.14,8T741,138.74a37.47,37.47,0,0,1-4.63,17.17q-4.62,9-15.14,20.41L694.5,205h50.81Z"/></g></g><g id="_99cb5c8b-a44f-46f0-96c6-972ea056f903" data-name="99cb5c8b-a44f-46f0-96c6-972ea056f903"><g id="_6e98dcc9-6e7f-429c-9898-87f92d5e2a6e" data-name="6e98dcc9-6e7f-429c-9898-87f92d5e2a6e"><path d="M1713.89,219.53h-19l-48.78-77.64v77.64h-19V110.1h19L1695,188V110.1h18.86Zm86.43-48.85h-44.94v33.67h52.53v15.18h-71.55V110.1h71v15.33h-52v30.22h44.94Zm108.9,21.79,16.84-82.37h18.86l-25.25,109.43h-18.19l-20.82-79.89-21.27,79.89h-18.26L1815.88,110.1h18.86l17,82.22,20.89-82.22h15.93ZM2032.85,162,2058,110.1h21l-36.67,69.15v40.28h-19.09V179.25l-36.75-69.15h21.12Zm143.24,5.71q0,16.1-5.56,28.22a42.06,42.06,0,0,1-15.9,18.64,46.6,46.6,0,0,1-47.48,0A42.75,42.75,0,0,1,2091.06,196q-5.67-12-5.75-27.74v-6.16q0-16,5.68-28.26a42.57,42.57,0,0,1,16-18.75,46.71,46.71,0,0,1,47.42-.07,42.08,42.08,0,0,1,16,18.48q5.64,12.08,5.71,28.07Zm-19-5.71q0-18.19-6.88-27.88t-19.49-9.7q-12.33,0-19.28,9.66t-7.1,27.32v6.31q0,18,7,27.89t19.5,9.84q12.62,0,19.42-9.62t6.81-28.11Zm78.16,15.41H2214v42.16h-19V110.1h38.48q18.94,0,29.24,8.5T2273,143.17q0,11-5.3,18.38A33.68,33.68,0,0,1,2253,172.93l24.57,45.62v1h-20.37ZM2214,162.11h19.55q9.61,0,15-4.85T2254,144q0-8.79-5-13.6t-14.92-5H2214Zm108.45,10.15-12.4,13.15v34.12h-19V110.1h19v51.33l10.53-13,32-38.33h23L2335,158.58l43,60.95h-22.55Z"/></g></g><g id="cefe083d-ff05-4cf1-9930-71a6ff5c9322"><g id="cefe083d-ff05-4cf1-9930-71a6ff5c9322-child-0"><path class="cls-1" d="M1378.21,43.57C1323.06,15.48,1250.09,0,1172.74,0S1022.46,15.48,967.31,43.57c-58.7,29.91-91,71-91,115.63s32.35,85.71,91,115.63c55.15,28.09,128.12,43.57,205.43,43.57S1323,303,1378.19,274.83c58.72-29.92,91-71,91-115.63S1436.93,73.48,1378.21,43.57Z"/></g><g id="cefe083d-ff05-4cf1-9930-71a6ff5c9322-child-1"><path d="M1172.74,13.84c-155.86,0-282.66,65.19-282.66,145.35s126.8,145.34,282.66,145.34,282.65-65.18,282.65-145.34S1328.62,13.84,1172.74,13.84ZM1448,143.08c-19.31-20.4-74.77-35.49-143-44a146,146,0,0,0-86.43-77.81C1339.36,31.5,1433.88,81.2,1448,143.08ZM1170,91.32a1102.33,1102.33,0,0,0-123.09,7A140,140,0,0,1,1170,19.45Zm0,5.54V220.31c-46.92-.12-89.42-2.74-126.18-7.14a139.67,139.67,0,0,1,.49-109.06A1081.34,1081.34,0,0,1,1170,96.86Zm0,129V299a140,140,0,0,1-123.62-80.07A1123.7,1123.7,0,0,0,1170,225.84Zm5.54,0a1124.49,1124.49,0,0,0,123.64-7A140,140,0,0,1,1175.53,299Zm0-5.54V96.86a1084.57,1084.57,0,0,1,125.72,7.24,139.66,139.66,0,0,1,.48,109A1101.78,1101.78,0,0,1,1175.53,220.3Zm0-129V19.45a140,140,0,0,1,123.09,78.9A1102.46,1102.46,0,0,0,1175.53,91.32Zm-48.66-70a146.08,146.08,0,0,0-86.44,77.81c-68.16,8.47-123.61,23.56-142.93,44C911.64,81.2,1006.15,31.5,1126.87,21.31ZM975.48,115.85c18.79-4.38,39.84-8,62.49-10.95a144.74,144.74,0,0,0-.43,107.5c-88.25-11.23-141.9-32.72-141.9-53.2C895.64,143.45,924.74,127.65,975.48,115.85Zm-78.07,59.09c19.2,20,74.45,34.84,142.54,43.17a146.07,146.07,0,0,0,86.92,79C1005.9,286.88,911.24,237,897.41,174.94ZM1218.64,297.1a146.05,146.05,0,0,0,86.95-79c68.05-8.33,123.32-23.17,142.52-43.17-13.84,62.05-108.5,111.94-229.47,122.15Zm151.41-95.41c-18.67,4.26-39.59,7.83-62,10.68a144.84,144.84,0,0,0-.45-107.46,634.4,634.4,0,0,1,62.49,11c50.74,11.81,79.84,27.61,79.84,43.35,0,15.4-29.1,30.88-79.83,42.46Z"/></g></g></g></g></svg>