<svg xmlns="http://www.w3.org/2000/svg" viewBox="0 0 3091.96 194.14"><defs><style>.cls-1{fill:none;}</style></defs><title>Asset 16</title><g id="Layer_2" data-name="Layer 2"><g id="Layer_1-2" data-name="Layer 1"><g id="_3bf383de-e141-4c19-b258-7e05e6e4e90c" data-name="3bf383de-e141-4c19-b258-7e05e6e4e90c"><g id="_3bf383de-e141-4c19-b258-7e05e6e4e90c-child-0" data-name="3bf383de-e141-4c19-b258-7e05e6e4e90c-child-0"><path class="cls-1" d="M3028.79,21.17C3002,7.52,2966.53,0,2928.94,0s-73,7.52-99.84,21.17c-28.52,14.54-44.24,34.5-44.24,56.2s15.72,41.65,44.24,56.19c26.81,13.65,62.27,21.17,99.84,21.17s73-7.51,99.84-21.17C3057.31,119,3073,99.06,3073,77.37S3057.32,35.71,3028.79,21.17Z"/></g><g id="_3bf383de-e141-4c19-b258-7e05e6e4e90c-child-1" data-name="3bf383de-e141-4c19-b258-7e05e6e4e90c-child-1"><path d="M2928.94,6.73c-75.75,0-137.36,31.68-137.36,70.63S2853.19,148,2928.94,148s137.36-31.68,137.36-70.63S3004.69,6.73,2928.94,6.73Zm133.77,62.8c-9.38-9.91-36.33-17.24-69.47-21.35a71,71,0,0,0-42-37.82C3009.91,15.31,3055.84,39.46,3062.71,69.53ZM2927.6,44.38a536.61,536.61,0,0,0-59.82,3.41A68,68,0,0,1,2927.6,9.45Zm0,2.69v60a532.52,532.52,0,0,1-61.32-3.46,67.85,67.85,0,0,1,.24-53A524.59,524.59,0,0,1,2927.6,47.07Zm0,62.68v35.53a68,68,0,0,1-60.07-38.91A545.65,545.65,0,0,0,2927.6,109.75Zm2.69,0a546.16,546.16,0,0,0,60.09-3.38,68,68,0,0,1-60.09,38.91Zm0-2.69v-60a527.51,527.51,0,0,1,61.1,3.52,67.89,67.89,0,0,1,.23,53A533.47,533.47,0,0,1,2930.29,107.06Zm0-62.68V9.45a68,68,0,0,1,59.82,38.34A536.61,536.61,0,0,0,2930.29,44.38Zm-23.65-34a70.93,70.93,0,0,0-42,37.81c-33.13,4.12-60.07,11.45-69.46,21.36C2802.05,39.46,2848,15.31,2906.64,10.36ZM2833.07,56.3A307.27,307.27,0,0,1,2863.44,51a70.4,70.4,0,0,0-.21,52.24c-42.88-5.46-69-15.9-69-25.85C2794.27,69.71,2808.42,62,2833.07,56.3ZM2795.13,85c9.34,9.73,36.19,16.93,69.28,21a70.91,70.91,0,0,0,42.23,38.37C2847.86,139.41,2801.86,115.17,2795.13,85Zm156.11,59.37A71,71,0,0,0,2993.5,106c33.07-4.06,59.92-11.27,69.26-21-6.73,30.16-52.73,54.4-111.52,59.36ZM3024.82,98c-9.07,2.07-19.24,3.81-30.15,5.19a70.44,70.44,0,0,0-.22-52.22c11,1.41,21.23,3.2,30.37,5.32,24.65,5.74,38.8,13.42,38.8,21.07,0,7.49-14.14,15-38.8,20.64Z"/></g></g><g id="f397e85d-f7db-4110-a179-d3f07567a05e"><g id="f397e85d-f7db-4110-a179-d3f07567a05e-child-0"><path d="M3088.74,194.14V0H3092V194.14Z"/></g></g><g id="b2bae83f-9dc9-4c14-9f34-3d24e46c4c96"><g id="b2bae83f-9dc9-4c14-9f34-3d24e46c4c96-child-0"><path d="M2765.92,194.14V0h3.23V194.14Z"/></g></g><g id="_8fe77ce1-5627-4fe1-af59-cb685f479f31" data-name="8fe77ce1-5627-4fe1-af59-cb685f479f31"><g id="fcd716a9-ab43-448f-b513-159843d66af4"><path d="M2578.44,92l15.69-65h8.64L2587,92Zm35.43,0V35.79h-7.57V27.26H2631v8.53h-7.28V92Zm22.6,0V27.26h16.28q5.09,0,7.57,2a9.57,9.57,0,0,1,3.29,5.81,46.71,46.71,0,0,1,.79,9.33,27.68,27.68,0,0,1-1.15,9,6.84,6.84,0,0,1-4.73,4.36,5.28,5.28,0,0,1,2.83,1.37,7.77,7.77,0,0,1,1.84,3.16,24.32,24.32,0,0,1,1,5.33c.21,2.17.31,4.83.31,8v2.06c0,1.13,0,2.46,0,4s0,3.05.06,4.57.06,2.82.11,3.9a10.47,10.47,0,0,0,.18,1.91H2655a8,8,0,0,1-.16-1.89c0-1.14-.08-2.59-.11-4.36s-.07-3.66-.08-5.69,0-4,0-6V68.76a17.2,17.2,0,0,0-.42-4.39,3.17,3.17,0,0,0-1.54-2.08,8,8,0,0,0-3.22-.7l-3.16-.18V92Zm9.89-38.19h3.93A4.09,4.09,0,0,0,2653,53a4.79,4.79,0,0,0,1.29-3,42.8,42.8,0,0,0,.34-6.25v-.41a31.75,31.75,0,0,0-.33-5.25,3.69,3.69,0,0,0-1.37-2.54,6,6,0,0,0-3.26-.7h-3.34ZM2672.89,92V27.26h14.52a14.11,14.11,0,0,1,7.9,2,11,11,0,0,1,4.32,5.68,26.57,26.57,0,0,1,1.34,9l0,29.18a34.44,34.44,0,0,1-1.38,10.57,11.61,11.61,0,0,1-4.43,6.26,14.3,14.3,0,0,1-8.12,2.06Zm9.85-7.64H2686a5.44,5.44,0,0,0,2.88-.7,4.27,4.27,0,0,0,1.73-2.48,17.45,17.45,0,0,0,.57-5.06l0-31.94c0-3.31-.4-5.68-1.21-7.13a4.46,4.46,0,0,0-4.26-2.17h-2.91Zm-115.18,82.9V102.54h12.24l9.19,47.25,8.63-47.25h12.32v64.67h-8.79V143.1l.37-22.12-8.71,45.94H2585L2575.9,121l.37,22.12v24.11Zm52.11,0V102.54H2636q5.07,0,7.57,2a9.52,9.52,0,0,1,3.29,5.8,46.78,46.78,0,0,1,.79,9.33,27.64,27.64,0,0,1-1.16,8.95,6.84,6.84,0,0,1-4.72,4.36,5.22,5.22,0,0,1,2.83,1.38,7.52,7.52,0,0,1,1.83,3.16,24.14,24.14,0,0,1,1,5.33q.32,3.25.31,7.95v2.06c0,1.13,0,2.46,0,4s0,3.06.05,4.57.06,2.82.11,3.9a10,10,0,0,0,.19,1.91h-9.85a8.34,8.34,0,0,1-.17-1.89c0-1.14-.07-2.59-.11-4.36s-.06-3.66-.07-5.69,0-4,0-6V144a17.31,17.31,0,0,0-.42-4.39,3.24,3.24,0,0,0-1.55-2.08,8.14,8.14,0,0,0-3.21-.7l-3.17-.18v30.54Zm9.89-38.19h3.93a4.11,4.11,0,0,0,2.74-.8,4.85,4.85,0,0,0,1.29-3,42.52,42.52,0,0,0,.35-6.25v-.4a31.75,31.75,0,0,0-.33-5.25,3.65,3.65,0,0,0-1.38-2.54,6,6,0,0,0-3.25-.69h-3.35Zm26.54,38.19V102.54H2666V132.3l9.85-29.76H2686l-10.73,31.89,11.57,32.78h-10.4L2666,137v30.21Zm34.36,0,15.7-65h8.63l-15.73,65Z"/></g></g><g id="_4c387d7f-eb6b-4323-9811-b2f1c6af7e5e" data-name="4c387d7f-eb6b-4323-9811-b2f1c6af7e5e"><g id="_4c387d7f-eb6b-4323-9811-b2f1c6af7e5e-child-0" data-name="4c387d7f-eb6b-4323-9811-b2f1c6af7e5e-child-0"><path d="M2513.2,194.14V0h3.23V194.14Z"/></g></g><g id="_428697ba-b15b-4d5d-be69-ac8793db9531" data-name="428697ba-b15b-4d5d-be69-ac8793db9531"><g id="_5fbd38e3-5b7c-4515-aff4-463006136c1e" data-name="5fbd38e3-5b7c-4515-aff4-463006136c1e"><path d="M2155.64,79.37a10.34,10.34,0,0,1-4.54-3.93,11.27,11.27,0,0,1-1.56-6.21h7.73a4.49,4.49,0,0,0,1.53,3.71,6,6,0,0,0,3.94,1.26,5.87,5.87,0,0,0,3.84-1.21,3.91,3.91,0,0,0,1.48-3.21V68.63a3.64,3.64,0,0,0-1.38-3.1,6.05,6.05,0,0,0-3.79-1.06h-4.11V58.7h3.41a6,6,0,0,0,3.79-1.08,3.44,3.44,0,0,0,1.38-2.83V53.62a3.48,3.48,0,0,0-1.33-2.93,5.36,5.36,0,0,0-3.39-1,5.49,5.49,0,0,0-3.69,1.22,5,5,0,0,0-1.53,3.75h-7.63q0-5.52,3.69-8.51t9.71-3a15.66,15.66,0,0,1,6.32,1.18,9.68,9.68,0,0,1,4.22,3.33,8.92,8.92,0,0,1,1.5,5.22,8.06,8.06,0,0,1-1.6,5,7.9,7.9,0,0,1-4.12,2.86v.35a7.67,7.67,0,0,1,4.82,2.86,8.81,8.81,0,0,1,1.81,5.62,10.4,10.4,0,0,1-1.63,5.82,10.86,10.86,0,0,1-4.69,3.92,17.62,17.62,0,0,1-7.33,1.39,16.23,16.23,0,0,1-6.85-1.35Zm41.22-6.93H2180.5V67l11.44-23.32h8.28l-10.88,22v.45h7.52l1.46-7.37h6.42v7.37h5.12v6.37h-5.12v7.78h-7.88Zm17.11.81h7.33v7H2214Zm18.35,5.56a11.86,11.86,0,0,1-4.75-5.81,27.73,27.73,0,0,1-1.7-10.63v-.61q0-8.88,3.28-13.75t10.27-4.86q7,0,10.28,4.86T2253,61.76v.61A27.74,27.74,0,0,1,2251.28,73a11.66,11.66,0,0,1-4.71,5.81,14.93,14.93,0,0,1-14.25,0ZM2243.56,72a8.34,8.34,0,0,0,1.48-5.35V57.1a9.19,9.19,0,0,0-1.33-5.21,4.82,4.82,0,0,0-4.29-2,4.76,4.76,0,0,0-4.24,2,9.15,9.15,0,0,0-1.33,5.21v9.57a8.36,8.36,0,0,0,1.48,5.35,5,5,0,0,0,4.09,1.83,5,5,0,0,0,4.14-1.83Zm19.54,7.32a10,10,0,0,1-4.29-3.86,10.71,10.71,0,0,1-1.43-5.75H2265a4.2,4.2,0,0,0,1.5,3.17,6.14,6.14,0,0,0,7.41-.17,4.77,4.77,0,0,0,1.38-3.59V67.23a4.48,4.48,0,0,0-1.43-3.56,6.12,6.12,0,0,0-6.85-.38,3.84,3.84,0,0,0-1.66,2.34h-7.73l1-22h23.28v6.52h-16.16L2265,58.7l.35.1a6.53,6.53,0,0,1,2.83-2A10.28,10.28,0,0,1,2272,56a11.17,11.17,0,0,1,8.21,3.11q3.14,3.12,3.13,9a11.87,11.87,0,0,1-3.66,9.18q-3.66,3.36-9.93,3.35a14.86,14.86,0,0,1-6.63-1.37Zm40.85-6.9h-16.36V67L2299,43.65h8.28l-10.89,22v.45H2304l1.45-7.37h6.43v7.37H2317v6.37h-5.12v7.78H2304ZM2324,78a9.69,9.69,0,0,1-3.54-7.27H2328a3.5,3.5,0,0,0,1.6,2.68,6.39,6.39,0,0,0,3.36.83c4.12,0,6.18-3.12,6.18-9.39V63.61c0-.43,0-.87-.05-1.29h-.36a7.31,7.31,0,0,1-3.06,3.93,9.35,9.35,0,0,1-5.27,1.48,10.32,10.32,0,0,1-7.8-3.06q-2.93-3.06-2.93-8.68a14,14,0,0,1,1.7-7.22,10.5,10.5,0,0,1,4.74-4.25,17.2,17.2,0,0,1,7.1-1.37,14.18,14.18,0,0,1,7.38,1.83,11.78,11.78,0,0,1,4.79,5.74A26.44,26.44,0,0,1,2347.05,61v1.5A25.58,25.58,0,0,1,2345.22,73a12.21,12.21,0,0,1-5.12,5.85,15.55,15.55,0,0,1-7.7,1.83A12.81,12.81,0,0,1,2324,78Zm12.14-17.35a5.59,5.59,0,0,0,1.73-3.06V55a4.63,4.63,0,0,0-5-5.22,4.86,4.86,0,0,0-3.79,1.41,4.94,4.94,0,0,0-1.27,3.46V57a5,5,0,0,0,1.25,3.51,4.73,4.73,0,0,0,3.66,1.35,4.88,4.88,0,0,0,3.39-1.2Zm19.42-1.56a8,8,0,0,1-3.26-3,9,9,0,0,1,0-8.91,8,8,0,0,1,3.26-3,11.07,11.07,0,0,1,9.41,0,8.06,8.06,0,0,1,3.24,3,9,9,0,0,1,0,8.91,8,8,0,0,1-3.24,3,11,11,0,0,1-9.41,0Zm7.28-4.86a3.61,3.61,0,0,0,0-5.15,3.83,3.83,0,0,0-2.59-.93,3.75,3.75,0,0,0-2.56.93,3.68,3.68,0,0,0,0,5.15,3.72,3.72,0,0,0,2.56.95A3.8,3.8,0,0,0,2362.79,54.24Zm24-10.59h10.49l12.24,22.88.7,1.56h.25V43.65h7.83V80.22h-9.78l-13-23.22-.65-1.21h-.25V80.22h-7.83Zm37.18,41.24h1a2.66,2.66,0,0,0,3.06-3V80.22h-3.31v-7H2432v9q0,3.62-1.65,5a7,7,0,0,1-4.47,1.45l-2,.05Zm-271.65,41.45h-8.84v-6h9l1.1-6.42h6.63v36.58h-7.88Zm24.23,0h-8.83v-6h9l1.11-6.42h6.62v36.58h-7.88Zm21.26,23.31a10.51,10.51,0,0,1-4.65-3.72,10.19,10.19,0,0,1,.23-11.31,7.86,7.86,0,0,1,5.09-3.06v-.36a8,8,0,0,1-4.49-2.91,8.12,8.12,0,0,1-1.58-5,8.54,8.54,0,0,1,3.49-7.33c2.33-1.71,5.41-2.56,9.26-2.56s6.92.86,9.23,2.58a8.64,8.64,0,0,1,3.46,7.36,8.17,8.17,0,0,1-1.53,4.89,8.06,8.06,0,0,1-4.49,3v.36a7.71,7.71,0,0,1,5,2.86,9.39,9.39,0,0,1,1.89,6.07,9.51,9.51,0,0,1-1.61,5.44,10.54,10.54,0,0,1-4.64,3.72,20.84,20.84,0,0,1-14.65,0Zm10.78-21.31a3.58,3.58,0,0,0,1.44-3.16V124a4,4,0,0,0-1.31-3.19,5.26,5.26,0,0,0-3.56-1.13,5.37,5.37,0,0,0-3.62,1.13,4,4,0,0,0-1.3,3.19v1.15a3.56,3.56,0,0,0,1.45,3.16,6,6,0,0,0,3.47,1,5.82,5.82,0,0,0,3.43-1Zm.56,15.11a4.15,4.15,0,0,0,1.48-3.41v-1.16a4.18,4.18,0,0,0-1.41-3.39,6.18,6.18,0,0,0-4.06-1.17,6.31,6.31,0,0,0-4.09,1.17,4.16,4.16,0,0,0-1.43,3.39V140a4.1,4.1,0,0,0,1.53,3.41,6.28,6.28,0,0,0,4,1.2A6.16,6.16,0,0,0,2209.11,143.45Zm14.47.05h7.33v7h-7.33Zm12.55.9L2248,132.56q1.76-1.81,3.26-3.69a5.63,5.63,0,0,0,1.51-3.39v-1.35a3.81,3.81,0,0,0-1.2-3,4.58,4.58,0,0,0-3.22-1.11,4.52,4.52,0,0,0-3.71,1.51,6.12,6.12,0,0,0-1.15,4.26h-7.63a12.39,12.39,0,0,1,1.43-6.72,10.53,10.53,0,0,1,4.54-4.24,15.38,15.38,0,0,1,7-1.48,14.59,14.59,0,0,1,6.24,1.28,10,10,0,0,1,4.29,3.66,10.28,10.28,0,0,1,1.56,5.75,12.13,12.13,0,0,1-1.58,6.12,25.31,25.31,0,0,1-4.89,5.82l-8.13,8h14.95v6.47h-25.14Zm45.11-1.7h-16.36v-5.47l11.44-23.34h8.28l-10.88,22v.45h7.52l1.46-7.37h6.42v7.37h5.12v6.38h-5.12v7.77h-7.88Zm17,1.7,11.9-11.84c1.17-1.21,2.25-2.44,3.26-3.69a5.67,5.67,0,0,0,1.5-3.39v-1.35a3.81,3.81,0,0,0-1.2-3,5.27,5.27,0,0,0-6.93.4,6.12,6.12,0,0,0-1.15,4.26H2298a12.39,12.39,0,0,1,1.43-6.72,10.53,10.53,0,0,1,4.54-4.24,15.44,15.44,0,0,1,7-1.48,14.66,14.66,0,0,1,6.25,1.28,10.11,10.11,0,0,1,4.29,3.66,10.36,10.36,0,0,1,1.55,5.75,12.13,12.13,0,0,1-1.58,6.12,25.31,25.31,0,0,1-4.89,5.82l-8.13,8h14.95v6.47h-25.14Zm36.13,4.74a11.77,11.77,0,0,1-4.79-5.77,26.48,26.48,0,0,1-1.68-10.26v-1.5a25.63,25.63,0,0,1,1.83-10.57,12.17,12.17,0,0,1,5.15-5.82,15.59,15.59,0,0,1,7.67-1.83,12.9,12.9,0,0,1,8.48,2.68,9.69,9.69,0,0,1,3.52,7.31H2347a3.54,3.54,0,0,0-1.58-2.66,6.18,6.18,0,0,0-3.39-.86q-6.16,0-6.17,9.39v1.23c0,.41,0,.86,0,1.33h.35a7.15,7.15,0,0,1,3.09-4,9.53,9.53,0,0,1,5.24-1.45,10.3,10.3,0,0,1,7.83,3.06q2.91,3.06,2.91,8.68a14.12,14.12,0,0,1-1.68,7.23,10.23,10.23,0,0,1-4.74,4.24,17.21,17.21,0,0,1-7.13,1.38,14.23,14.23,0,0,1-7.38-1.84Zm11.52-6.24a5,5,0,0,0,1.28-3.47v-2.3a5,5,0,0,0-1.25-3.54,4.8,4.8,0,0,0-3.67-1.33,4.94,4.94,0,0,0-3.36,1.18,5.49,5.49,0,0,0-1.76,3.08v2.56a5.15,5.15,0,0,0,1.38,3.92,5,5,0,0,0,3.59,1.3A4.89,4.89,0,0,0,2345.9,142.9Zm17.61-13.55a8,8,0,0,1-3.26-3,9,9,0,0,1,0-8.91,8.05,8.05,0,0,1,3.26-3,10.31,10.31,0,0,1,4.7-1,10.21,10.21,0,0,1,4.71,1,8.13,8.13,0,0,1,3.24,3,9,9,0,0,1,0,8.91,8.06,8.06,0,0,1-3.24,3,10.21,10.21,0,0,1-4.71,1.05A10.31,10.31,0,0,1,2363.51,129.35Zm7.28-4.87a3.24,3.24,0,0,0,1.08-2.56,3.2,3.2,0,0,0-1.08-2.58,3.82,3.82,0,0,0-2.58-.93,3.72,3.72,0,0,0-2.56.93,3.21,3.21,0,0,0-1.06,2.58,3.26,3.26,0,0,0,1.06,2.56,3.69,3.69,0,0,0,2.56,1A3.79,3.79,0,0,0,2370.79,124.48Zm21.05-10.59h8.53l4.22,24.94.6,4h.35l6.17-29h9l6.12,29h.4l.55-3.47,4.12-25.49h8.48l-7.23,36.58H2422l-5-22.68-.6-3h-.3l-.6,3-5,22.68h-11.19Z"/></g></g><g id="_89efd669-32b6-4b65-b617-f98034243111" data-name="89efd669-32b6-4b65-b617-f98034243111"><g id="_89efd669-32b6-4b65-b617-f98034243111-child-0" data-name="89efd669-32b6-4b65-b617-f98034243111-child-0"><path d="M2064,194.14V0h3.23V194.14Z"/></g></g><g id="a3fdabfe-c3bd-4406-8fd7-b4f6fb653820"><g id="_3647a9c9-061a-4185-951c-6eba41f06f1e" data-name="3647a9c9-061a-4185-951c-6eba41f06f1e"><path d="M1544.4,47.62a12.32,12.32,0,0,1-5.14-5.52,19.54,19.54,0,0,1-1.72-8.54v-.13a18.68,18.68,0,0,1,1.89-8.82,12.69,12.69,0,0,1,5.33-5.4,18.93,18.93,0,0,1,16.2,0,12.7,12.7,0,0,1,5.31,5.4,18.68,18.68,0,0,1,1.89,8.82v.13a19.54,19.54,0,0,1-1.72,8.54,12.34,12.34,0,0,1-5.12,5.52,19.42,19.42,0,0,1-16.92,0Zm14.26-6.12a7.25,7.25,0,0,0,2.1-5.57V31a7.67,7.67,0,0,0-2-5.42c-1.31-1.41-3.29-2.11-6-2.11s-4.65.7-6,2.11a7.67,7.67,0,0,0-2,5.42v4.91a7.25,7.25,0,0,0,2.1,5.57,9.63,9.63,0,0,0,11.62,0Zm14.79-23.73h14.89q5.63,0,8.4,2.71a9.78,9.78,0,0,1,2.78,7.32,9.31,9.31,0,0,1-1.89,5.93,9,9,0,0,1-5.29,3.18l7.57,12.22h-8.22L1585.07,38h-4.56V49.13h-7.06Zm7.06,6v8.9h6.58a6,6,0,0,0,3.72-1,3.32,3.32,0,0,0,1.31-2.78V27.58a3.26,3.26,0,0,0-1.35-2.82,6.27,6.27,0,0,0-3.68-1Zm24.73-6h7V49.13h-7Zm15.91,27.81q-3.62-4-3.61-11.76v-.17a18.92,18.92,0,0,1,2-9.06,12.74,12.74,0,0,1,5.46-5.44,17.51,17.51,0,0,1,8.15-1.81,18.25,18.25,0,0,1,7.16,1.32,12.18,12.18,0,0,1,5,3.72,10.54,10.54,0,0,1,2.2,5.76h-7.23a5.41,5.41,0,0,0-2.49-3.51,8.9,8.9,0,0,0-4.73-1.18q-4,0-6.07,2.13a7.69,7.69,0,0,0-2,5.53V36a7.33,7.33,0,0,0,2.13,5.72,8.08,8.08,0,0,0,5.65,1.94,8.39,8.39,0,0,0,5.53-1.66,6.45,6.45,0,0,0,2.22-4.75h-7.83v-5h15V49.13h-5.2l-.52-5.29h-.26A7.74,7.74,0,0,1,1638,48a13.07,13.07,0,0,1-6.47,1.55q-6.75,0-10.37-4Zm32.95-27.81h7.06V49.13h-7.06Zm14.2,0h9l10.5,19.62.6,1.33h.22V17.77h6.71V49.13h-8.39l-11.14-19.91-.56-1H1675v21h-6.71Zm41.2,0h9.76l10.59,31.36h-7l-2.11-6.28h-12.9l-2.11,6.28H1699Zm9.64,19.7L1716,28.1l-1.59-4.86h-.26l-1.59,4.86-3.1,9.37Zm14.32-19.7h7V42.94h14.7v6.19h-21.75Zm36.76,0h14.59q5.76,0,8.62,2.89a10.54,10.54,0,0,1,2.86,7.78,10.59,10.59,0,0,1-2.9,7.76q-2.91,3-8.93,2.95h-7.18v10h-7.06Zm7.06,6v9.76h6.58a5.53,5.53,0,0,0,3.72-1.12,3.88,3.88,0,0,0,1.31-3.1V28a3.79,3.79,0,0,0-1.35-3.14,5.82,5.82,0,0,0-3.68-1.07Zm24.26-6h14.88c3.75,0,6.56.9,8.41,2.71a9.77,9.77,0,0,1,2.77,7.32,9.31,9.31,0,0,1-1.89,5.93,8.94,8.94,0,0,1-5.29,3.18L1828,49.13h-8.22L1813.15,38h-4.56V49.13h-7Zm7,6v8.9h6.58a6,6,0,0,0,3.72-1,3.3,3.3,0,0,0,1.32-2.78V27.58a3.25,3.25,0,0,0-1.36-2.82,6.25,6.25,0,0,0-3.68-1Zm29.7,23.82a12.32,12.32,0,0,1-5.14-5.52,19.54,19.54,0,0,1-1.72-8.54v-.13a18.68,18.68,0,0,1,1.89-8.82,12.76,12.76,0,0,1,5.34-5.4,18.91,18.91,0,0,1,16.19,0,12.7,12.7,0,0,1,5.31,5.4,18.56,18.56,0,0,1,1.9,8.82v.13a19.54,19.54,0,0,1-1.72,8.54,12.34,12.34,0,0,1-5.12,5.52,19.44,19.44,0,0,1-16.93,0Zm14.26-6.12a7.22,7.22,0,0,0,2.11-5.57V31a7.63,7.63,0,0,0-2-5.42c-1.31-1.41-3.29-2.11-6-2.11s-4.65.7-6,2.11a7.63,7.63,0,0,0-2,5.42v4.91a7.22,7.22,0,0,0,2.11,5.57,9.62,9.62,0,0,0,11.61,0Zm14.8-23.77h12.86q7.57,0,11.4,4.13t3.82,11.44v.3a17.86,17.86,0,0,1-1.91,8.73,12,12,0,0,1-5.33,5.12,17.89,17.89,0,0,1-8,1.68h-12.86Zm12.86,25.42a7.87,7.87,0,0,0,5.8-2,7.16,7.16,0,0,0,2-5.35V31a7.37,7.37,0,0,0-1.91-5.31q-1.92-2-5.87-2h-5.81V43.15ZM1906.38,48a10.21,10.21,0,0,1-4.45-4.39,13.94,13.94,0,0,1-1.46-6.51V17.77h7V36.66a6.86,6.86,0,0,0,1.7,4.92,6.37,6.37,0,0,0,4.84,1.79,6.46,6.46,0,0,0,4.73-1.72,6.65,6.65,0,0,0,1.77-5V17.77h7V37.09a12.9,12.9,0,0,1-1.67,6.71,11,11,0,0,1-4.71,4.28,18.4,18.4,0,0,1-14.67-.09Zm32.95-.37a12.32,12.32,0,0,1-5.14-5.52,19.54,19.54,0,0,1-1.72-8.54v-.13a18.68,18.68,0,0,1,1.89-8.82,12.69,12.69,0,0,1,5.33-5.4,17.09,17.09,0,0,1,8.09-1.82,16.84,16.84,0,0,1,7,1.39,12.5,12.5,0,0,1,5,3.9,11.46,11.46,0,0,1,2.21,5.85h-7.22a5.82,5.82,0,0,0-2.5-3.77,7.93,7.93,0,0,0-4.47-1.27c-2.67,0-4.65.7-6,2.11a7.67,7.67,0,0,0-2,5.42v4.91a7.25,7.25,0,0,0,2.1,5.57,8.23,8.23,0,0,0,5.81,2,7.81,7.81,0,0,0,4.54-1.35,5.8,5.8,0,0,0,2.43-3.77H1962a11.6,11.6,0,0,1-2.25,5.9,12.68,12.68,0,0,1-5,3.93,16.65,16.65,0,0,1-6.92,1.4,17,17,0,0,1-8.45-1.94Zm40.8-23.82V49.13h-7V23.8h-9.37v-6h25.76v6ZM1539.43,78h9l10.49,19.61.61,1.34h.21V78h6.71v31.36h-8.39l-11.14-19.92-.55-1h-.22v20.95h-6.71Zm42.8,19.18L1571,78h8l5.63,10.5,1,1.89h.3l1-1.89,5.59-10.5h7.92l-11.14,19.18v12.18h-7Zm20.43,16.18h.86a2.75,2.75,0,0,0,2-.71,2.7,2.7,0,0,0,.58-1.83v-1.46h-2.84v-6h6.28v7.7c0,2.06-.47,3.49-1.42,4.3a5.91,5.91,0,0,1-3.82,1.25l-1.68,0Zm28.32-5.14a10.21,10.21,0,0,1-4.45-4.39,14,14,0,0,1-1.46-6.52V78h7V96.87a6.88,6.88,0,0,0,1.69,4.93,6.36,6.36,0,0,0,4.84,1.78,6.46,6.46,0,0,0,4.73-1.72,6.65,6.65,0,0,0,1.77-5V78h7V97.3a12.78,12.78,0,0,1-1.68,6.71,11,11,0,0,1-4.71,4.28,18.35,18.35,0,0,1-14.67-.08Zm29.36-1.25a9.22,9.22,0,0,1-3.31-7.38h7.14a4.3,4.3,0,0,0,1.67,3.6,7.41,7.41,0,0,0,4.35,1.13q5.41,0,5.42-3.74a2.76,2.76,0,0,0-1-2.32,7,7,0,0,0-2.71-1.18q-1.73-.41-4-.84a18.32,18.32,0,0,1-7.5-3,7.17,7.17,0,0,1-2.74-6.11,8.72,8.72,0,0,1,1.53-5.25,9.21,9.21,0,0,1,4.3-3.18A17.68,17.68,0,0,1,1670,77.6q6,0,9.19,2.46A8.32,8.32,0,0,1,1682.4,87h-7.09a3.69,3.69,0,0,0-1.42-3,6.37,6.37,0,0,0-3.92-1,6,6,0,0,0-3.5.88,2.8,2.8,0,0,0-1.27,2.43,2.65,2.65,0,0,0,.84,2.11,5.49,5.49,0,0,0,2.43,1.09c1.06.25,2.34.5,3.83.76a25.6,25.6,0,0,1,5.5,1.52,8.88,8.88,0,0,1,3.87,3,8.76,8.76,0,0,1,1.42,5.29,9,9,0,0,1-1.63,5.51,9.54,9.54,0,0,1-4.58,3.24,20.18,20.18,0,0,1-6.86,1.06Q1663.65,109.78,1660.34,107Zm34.45-29h9.76l10.59,31.36h-7l-2.11-6.28h-12.9l-2.11,6.28h-6.8Zm9.64,19.7-3.1-9.38-1.59-4.86h-.26l-1.59,4.86-3.1,9.38Zm-165,40.52h14.88q5.64,0,8.41,2.71a9.75,9.75,0,0,1,2.78,7.31,9.29,9.29,0,0,1-1.9,5.94,9,9,0,0,1-5.29,3.18l7.57,12.21h-8.21L1551,158.42h-4.56v11.14h-7Zm7,6v8.9h6.58a6,6,0,0,0,3.73-1,3.32,3.32,0,0,0,1.31-2.77V148a3.25,3.25,0,0,0-1.36-2.82,6.18,6.18,0,0,0-3.68-1Zm31.83-6h9.77l10.58,31.35h-7l-2.11-6.28h-12.9l-2.11,6.28h-6.79Zm9.64,19.7-3.1-9.38-1.59-4.86H1583l-1.59,4.86-3.1,9.38Zm14.32-19.74h12.86q7.57,0,11.4,4.12t3.83,11.45v.3a17.74,17.74,0,0,1-1.92,8.73,12.09,12.09,0,0,1-5.33,5.12,18,18,0,0,1-8,1.67h-12.86Zm12.86,25.42a7.92,7.92,0,0,0,5.81-2,7.2,7.2,0,0,0,2-5.36v-4.81a7.36,7.36,0,0,0-1.92-5.32q-1.9-2-5.87-2h-5.8v19.45Zm31.57,3.59a9.22,9.22,0,0,1-3.31-7.38h7.14a4.33,4.33,0,0,0,1.68,3.59,7.33,7.33,0,0,0,4.34,1.14q5.42,0,5.42-3.74a2.76,2.76,0,0,0-1-2.32,6.88,6.88,0,0,0-2.71-1.19c-1.15-.27-2.46-.54-4-.83a18.31,18.31,0,0,1-7.51-3,7.19,7.19,0,0,1-2.73-6.11,8.72,8.72,0,0,1,1.53-5.25,9.16,9.16,0,0,1,4.3-3.18,17.65,17.65,0,0,1,6.43-1.08q6,0,9.18,2.45a8.31,8.31,0,0,1,3.25,6.93h-7.1a3.65,3.65,0,0,0-1.42-3,6.32,6.32,0,0,0-3.91-1.05,6.08,6.08,0,0,0-3.51.88,2.8,2.8,0,0,0-1.27,2.43,2.64,2.64,0,0,0,.84,2.1,5.49,5.49,0,0,0,2.43,1.1c1.06.25,2.34.5,3.83.75a26.45,26.45,0,0,1,5.51,1.53,8.88,8.88,0,0,1,3.87,3,8.74,8.74,0,0,1,1.42,5.29,8.93,8.93,0,0,1-1.64,5.5,9.45,9.45,0,0,1-4.58,3.25,20.44,20.44,0,0,1-6.86,1.05q-6.37,0-9.68-2.81Zm39.94,8.64a3.24,3.24,0,0,1-1-2.56l0-4.38a13.76,13.76,0,0,1-9.27-4.52q-3.29-3.83-3.29-10.54v-.13a18.3,18.3,0,0,1,1.89-8.73,12.57,12.57,0,0,1,5.33-5.33,19,19,0,0,1,16.2,0,12.58,12.58,0,0,1,5.31,5.33,18.3,18.3,0,0,1,1.89,8.73v.13q0,6.63-3.23,10.43a13.66,13.66,0,0,1-9,4.58v2.8H1700v5.16h-10.41a4.14,4.14,0,0,1-3-1Zm7.68-14.49a7.29,7.29,0,0,0,2.11-5.62v-4.25a7.62,7.62,0,0,0-2-5.42c-1.31-1.41-3.29-2.11-6-2.11s-4.65.7-6,2.11a7.65,7.65,0,0,0-2,5.42v4.25a7.32,7.32,0,0,0,2.1,5.62,9.63,9.63,0,0,0,11.62,0Zm20.45,7.09a10.24,10.24,0,0,1-4.45-4.38,14,14,0,0,1-1.46-6.52V138.21h7v18.88a6.88,6.88,0,0,0,1.7,4.93,6.36,6.36,0,0,0,4.84,1.78,6.46,6.46,0,0,0,4.73-1.72,6.65,6.65,0,0,0,1.77-5V138.21h7v19.31a12.87,12.87,0,0,1-1.67,6.71,10.9,10.9,0,0,1-4.71,4.27,15.92,15.92,0,0,1-7.12,1.48,16.23,16.23,0,0,1-7.55-1.56Zm33.73-30.21h9.77l10.58,31.35h-7l-2.11-6.28h-12.9l-2.11,6.28H1738Zm9.64,19.7-3.1-9.38-1.59-4.86h-.26l-1.59,4.86-3.1,9.38Zm14.32-19.74h12.86q7.58,0,11.4,4.12t3.83,11.45v.3a17.74,17.74,0,0,1-1.92,8.73,12.09,12.09,0,0,1-5.33,5.12,18,18,0,0,1-8,1.67h-12.86Zm12.86,25.42a7.92,7.92,0,0,0,5.81-2,7.2,7.2,0,0,0,2-5.36v-4.81a7.36,7.36,0,0,0-1.92-5.32q-1.9-2-5.87-2h-5.8v19.45Z"/></g></g><g id="b1b8fa05-4ee2-4a80-b053-2bffbdbfd455"><g id="b1b8fa05-4ee2-4a80-b053-2bffbdbfd455-child-0"><path d="M1476.92,194.14V0h3.23V194.14Z"/></g></g><g id="_17bc840c-cdc9-4f8b-9cd9-6cbf835f328a" data-name="17bc840c-cdc9-4f8b-9cd9-6cbf835f328a"><g id="_17bc840c-cdc9-4f8b-9cd9-6cbf835f328a-child-0" data-name="17bc840c-cdc9-4f8b-9cd9-6cbf835f328a-child-0"><path d="M52.71,187.13H0V7H52.71ZM475.82,7H396.35V187.13h79.47ZM322.67,7H257.88V187.13h64.79ZM639,7H574.16V187.13H639ZM735.8,7H671V187.13h64.8ZM107.12,7h-32V187.13h32ZM365.5,7H333.45V187.13H365.5ZM557.69,7H525.64V187.13h32.05Zm-390,0H127.29V187.13h40.44ZM247,7H195V187.13h52Zm907.21,180.12h45.63V7h-45.63Zm-249.89,0h56.11V7H904.32Zm202.87,0h27.75V7h-27.75Zm-52.42,0h35V7h-35Zm-68.58,0h45V7h-45Zm-128.69,0h21.36V7H857.5Zm-52.32,0H832V7H805.18Zm-56,0h34.55V7H749.17Z"/></g></g><g id="f78c6fc9-9aa1-4d01-896e-b7b6021f72a8"><g id="fbb6c47a-cb7b-461c-a306-e984a83049eb"><path d="M1257.34,141.54V8.52h29.85q10.13,0,16.25,4a22.81,22.81,0,0,1,8.88,11.68,54.43,54.43,0,0,1,2.76,18.44l.07,60q0,13.08-2.83,21.73t-9.11,12.89q-6.27,4.23-16.7,4.23Zm20.25-15.72h6.65a11.28,11.28,0,0,0,5.93-1.44,8.69,8.69,0,0,0,3.56-5.1,35.76,35.76,0,0,0,1.17-10.39l-.08-65.68q0-10.2-2.49-14.66t-8.77-4.46h-6Zm43.55,15.72V8.52h44.59V26h-24.34v38.7h23.13V81.76h-23.13v42.32h25.25v17.46Zm75.36,1.51q-9.68,0-16.1-4.46a26.69,26.69,0,0,1-9.63-13q-3.23-8.56-3.22-20.74v-58a81.75,81.75,0,0,1,1.52-16.48A36,36,0,0,1,1374,17.82a22.56,22.56,0,0,1,9.07-8A31.49,31.49,0,0,1,1397,7a30.75,30.75,0,0,1,12.89,2.45,22,22,0,0,1,8.69,7.07,30.66,30.66,0,0,1,4.91,11.15,64.08,64.08,0,0,1,1.55,14.7V60.67H1405.5v-17q0-9.82-1.67-14.47a6.47,6.47,0,0,0-6.65-4.65q-5.52,0-7.37,5t-1.85,14v62.13a66.46,66.46,0,0,0,.79,11.37,13,13,0,0,0,2.69,6.5,7.54,7.54,0,0,0,12.24-2.76q1.82-4.85,1.82-15.34v-19h19.87v18.82q0,12.61-2.94,21t-9.34,12.58q-6.39,4.16-16.59,4.16Z"/></g></g><g id="_6d90b724-9adc-4fca-80cd-41623643de27" data-name="6d90b724-9adc-4fca-80cd-41623643de27"><g id="_0214d990-84ad-424c-b81a-6efaca439a1c" data-name="0214d990-84ad-424c-b81a-6efaca439a1c"><path d="M1258.35,159.35h9.26l5.79,19.54h.23l5.72-19.54h9.52v27.77h-6v-21h-.27l-.49,2-5.64,19h-5.71l-5.68-19-.46-2h-.3v21h-6Zm36.08,0h9.26l5.79,19.54h.23l5.71-19.54H1325v27.77h-6v-21h-.27l-.49,2-5.64,19h-5.72l-5.67-19-.46-2h-.3v21h-6Zm43.32,13.29-9.07-13.29h7.58l5.76,9.22h.26l5.76-9.22h7.35l-8.88,13.22,9.53,14.55h-7.59l-6.36-10h-.26l-6.48,10H1328Zm28.61,0-9.07-13.29h7.58l5.76,9.22h.26l5.76-9.22H1384l-8.88,13.22,9.53,14.55h-7.58l-6.37-10h-.26l-6.48,10h-7.31Zm21.37-13.29H1394v27.77h-6.25Zm9.15,0h6.93l6.13,20.15.54,1.79h.26l.5-1.79,6.21-20.15h6.9l-9.53,27.77h-8.38Z"/></g></g></g></g></svg>