<svg xmlns="http://www.w3.org/2000/svg" viewBox="0 0 978.13 284.35"><title>Asset 17</title><g id="Layer_2" data-name="Layer 2"><g id="Layer_1-2" data-name="Layer 1"><g id="_0257e972-38db-47b1-a715-d53e9799c631" data-name="0257e972-38db-47b1-a715-d53e9799c631"><g id="_0257e972-38db-47b1-a715-d53e9799c631-child-0" data-name="0257e972-38db-47b1-a715-d53e9799c631-child-0"><path d="M0,284.35V0H192V281.36H196V142.65h-1.73v-3.94H196v3.94H851.52V281h3.93V142.65H975.31v-3.94H855.45V1.27h-3.93V138.71H196V0H978.13V284.35Zm855.45-141.7h-3.93v-3.94h3.93Zm-579.51-103H240.13v62.63H257V80.23h12.52c8.76,0,9.64.73,9.64,7.63v14.45h17.66V86.9c0-8-4.25-11.73-12.6-12.61,8.75-1.2,12.6-6.1,12.6-16.46,0-14.53-4.17-18.15-20.87-18.15ZM257,67.38v-14H271.6c7.55,0,8.36.72,8.36,6.9,0,6.43-.81,7.14-8.36,7.14Zm47.06-27.7v62.63h51.54V87.86H320.9V77.43h31.32V63.77H320.9V54.14h34.53V39.68Zm86.06,49.95c-10.75,0-12.05-.8-12.05-8.35H360.4c0,17.58,6.19,22,30.19,22C414,103.28,420,99.75,420,85.45c0-12.61-6.25-16.94-29.7-21.52-8.51-1.76-10.84-3-10.84-6.26,0-4.74,1.21-5.3,11.16-5.3,10.12,0,11.32.89,11.32,9.23h17.67c0-18.3-5.94-22.87-29-22.87-22.88,0-28.82,3.77-28.82,18.79,0,11.63,5.14,15.49,25.61,19.58,11.8,2.33,14.93,3.86,14.93,7.47C402.31,89.14,401,89.63,390.11,89.63ZM442,102.31h16.85V54.14h19.36V39.68h-55.4V54.14H442Zm76.43-62.63H482.6v62.63h16.86V80.23H512c8.76,0,9.64.73,9.64,7.63v14.45h17.66V86.9c0-8-4.25-11.73-12.6-12.61,8.76-1.2,12.6-6.1,12.6-16.46,0-14.53-4.17-18.15-20.87-18.15Zm-18.95,27.7v-14h14.61c7.55,0,8.36.72,8.36,6.9,0,6.43-.81,7.14-8.36,7.14Zm47.05,34.93h16.86V39.68H546.51Zm87.11-26.57H616c.17,12.52-1.28,13.89-14.13,13.89S587.46,87.78,587.46,71s1.44-18.63,14.37-18.63S616.13,53.74,616,66.1h17.66c.16-21.92-6.18-27.37-31.79-27.37s-32,6.41-32,32.27,6.42,32.28,32,32.28,31.95-5.54,31.79-27.54Zm22,26.57h16.86V54.14h19.36V39.68h-55.4V54.14h19.18Zm40.63-62.63v62.63h51.54V87.86H713.11V77.43h31.31V63.77H713.11V54.14h34.52V39.68Zm75.63,14.46h13.73c11.4,0,12.68,1.69,12.68,16.86S797,87.86,785.61,87.86H771.88L771.8,71ZM755,102.31h32.36C810.26,102.31,816,96.05,816,71s-5.7-31.32-28.58-31.32H755ZM952.73,67.18H929l20.57-11.87L946,49.17,925.44,61l11.87-20.56-6.14-3.55L919.3,57.5V33.75h-7.09V57.5L900.33,36.93l-6.14,3.55L906.07,61,885.5,49.17,882,55.31l20.57,11.87H878.77v7.1h23.75L882,86.15l3.55,6.14,20.57-11.87L894.19,101l6.14,3.55L912.21,84v23.75h7.09V84l11.87,20.57,6.14-3.55L925.44,80.42,946,92.29l3.55-6.14L929,74.28h23.75ZM117.24,71H35.85V213.35H74.17V163.16h28.47c19.89,0,21.89,1.64,21.89,17.34v32.85h40.15v-35c0-18.25-9.67-26.64-28.65-28.65,19.89-2.74,28.65-13.87,28.65-37.41C164.68,79.22,155.2,71,117.24,71ZM74.17,134V102h33.21c17.15,0,19,1.65,19,15.69,0,14.6-1.83,16.25-19,16.25Zm189.44,55.29V177.19H258.1v12.07c0,3.83-.37,4.25-3.57,4.25s-3.57-.42-3.57-4.25V177.19h-5.5v12.07c0,7,1.81,8.7,9.07,8.7S263.61,196.23,263.61,189.26Zm2.36,8.39h5.5V186.5h.16l9.07,11.15h5.2V177.19h-5.51v11.18h-.16l-9.05-11.18H266ZM294,181.92h4.49c3.72,0,4.14.55,4.14,5.51s-.42,5.5-4.14,5.5H294l0-5.5Zm-5.5,15.73H299.1c7.47,0,9.34-2.05,9.34-10.22s-1.87-10.24-9.34-10.24H288.53Zm22-20.46v20.46h16.84v-4.72H316v-3.41h10.23v-4.46H316v-3.14h11.28v-4.73Zm30.9,0h-11.7v20.46h5.51v-7.21h4.09c2.86,0,3.15.24,3.15,2.49v4.72h5.77v-5c0-2.63-1.39-3.83-4.12-4.12,2.86-.4,4.12-2,4.12-5.38,0-4.75-1.37-5.93-6.82-5.93Zm-6.19,9.06v-4.59H340c2.46,0,2.72.23,2.72,2.25s-.26,2.34-2.72,2.34Zm27.7,11.4h5V177.19H363.2c0,2.68-.58,3.17-2.86,3.17H358V184h5Zm6.43-20.46v7.87h4.45v-3.44l6.32,0-7.39,16h6.06l7.79-16.78v-3.68Zm38.24,0h-11.7v20.46h5.51v-7.21h4.09c2.86,0,3.15.24,3.15,2.49v4.72h5.77v-5c0-2.63-1.39-3.83-4.12-4.12,2.86-.4,4.12-2,4.12-5.38C414.43,178.37,413.06,177.19,407.61,177.19Zm-6.19,9.06v-4.59h4.77c2.47,0,2.73.23,2.73,2.25s-.26,2.34-2.73,2.34Zm15.37-9.06v20.46h16.84v-4.72H422.3v-3.41h10.23v-4.46H422.3v-3.14h11.28v-4.73Zm30.11,16h-1c-4.19,0-4.66-.58-4.66-5.77,0-5.49.49-6.09,4.88-6.09s4.88.6,4.88,6.09C451,192.62,450.57,193.2,446.9,193.2Zm-11.43-5.77c0,8.17,2.12,10.22,10.65,10.22h11.43V193.2h-4.83c2.81-.53,4-2.34,4-5.77,0-8.45-2.13-10.55-10.65-10.55S435.47,179,435.47,187.43Zm42.07,1.83V177.19H472v12.07c0,3.83-.37,4.25-3.57,4.25s-3.56-.42-3.56-4.25V177.19h-5.51v12.07c0,7,1.81,8.7,9.07,8.7S477.54,196.23,477.54,189.26Zm2.36,8.39h5.51V177.19H479.9Zm19.83-20.46H488v20.46h5.51v-7.21h4.1c2.85,0,3.14.24,3.14,2.49v4.72h5.77v-5c0-2.63-1.39-3.83-4.12-4.12,2.86-.4,4.12-2,4.12-5.38C506.55,178.37,505.18,177.19,499.73,177.19Zm-6.19,9.06v-4.59h4.77c2.47,0,2.73.23,2.73,2.25s-.26,2.34-2.73,2.34Zm15.37-9.06v20.46h16.84v-4.72H514.42v-3.41h10.23v-4.46H514.42v-3.14H525.7v-4.73ZM537,193.51c-3.52,0-3.93-.26-3.93-2.73h-5.77c0,5.74,2,7.18,9.86,7.18,7.63,0,9.6-1.14,9.6-5.81,0-4.13-2-5.54-9.7-7-2.78-.58-3.54-1-3.54-2.05,0-1.55.39-1.73,3.64-1.73s3.7.28,3.7,3h5.77c0-6-1.94-7.48-9.47-7.48s-9.41,1.23-9.41,6.14c0,3.8,1.67,5.06,8.36,6.4,3.85.76,4.88,1.26,4.88,2.44,0,1.49-.42,1.65-4,1.65Zm34.42-16.32h-9.13l-6.74,20.46h5.93l1.22-4h7.88l1.1,4H578Zm-7.3,12,2.5-7.54h.15l2.44,7.54Zm35.63-.23H594c0,4.09-.43,4.54-4.62,4.54s-4.69-.61-4.69-6.08.47-6.09,4.69-6.09,4.67.44,4.62,4.48h5.77c0-7.15-2-8.94-10.39-8.94s-10.47,2.1-10.47,10.55S581,198,589.39,198,599.82,196.15,599.78,189Zm22.42,0h-5.77c.05,4.09-.42,4.54-4.62,4.54s-4.69-.61-4.69-6.08.47-6.09,4.69-6.09,4.67.44,4.62,4.48h5.77c0-7.15-2-8.94-10.39-8.94s-10.46,2.1-10.46,10.55S603.45,198,611.81,198,622.25,196.15,622.2,189Zm12.2-7.63c4.38,0,4.85.6,4.85,6.09s-.47,6.08-4.85,6.08-4.85-.61-4.85-6.08S630,181.34,634.4,181.34Zm-10.62,6.09c0,8.44,2.12,10.53,10.62,10.53S645,195.87,645,187.43s-2.12-10.55-10.62-10.55S623.78,179,623.78,187.43Zm28.85,10.22V182.44h.15l3.07,15.21h8.53l3.09-15.21h.16v15.21h5.51V177.19h-9.68l-3.1,15.22h-.21l-3.07-15.22h-10v20.46Zm23.13-20.46v20.46h5.51V191h6.66c5.09-.27,6.35-1.65,6.35-7s-1.36-6.82-6.82-6.82Zm5.51,9.06v-4.59H686c2.47,0,2.73.23,2.73,2.38,0,2-.26,2.21-2.73,2.21Zm28.23-9.06h-9.13l-6.74,20.46h5.93l1.22-4h7.88l1.1,4h6.29Zm-7.3,12,2.5-7.54h.16l2.43,7.54Zm15,8.45h5.5V186.5h.16L732,197.65h5.2V177.19h-5.51v11.18h-.16l-9-11.18h-5.23Zm41.13-20.46h-5.86l-3.73,8.43h-.15l-3.83-8.43h-6.19l6.35,12.6h1v7.86h5.51v-7.86h.79Zm1.44,20.46h5.51V177.19h-5.51Zm8.13,0h5.51V186.5h.16l9.07,11.15h5.19V177.19h-5.5v11.18h-.16l-9.05-11.18h-5.22Zm32.84-11v4.2H805c-.1,1.83-1.52,2.62-4.67,2.62-4.11,0-4.56-.61-4.56-6.08s.45-6.09,4.56-6.09,4.57.32,4.51,3.15h5.77c.06-6.09-2-7.61-10.28-7.61S790,179,790,187.43,792.05,198,800.3,198c3,0,4.65-1.1,5.3-3.58v3.27h5v-11ZM303.89,213.91v20.47h5.51v-6.69h6.67c5.09-.26,6.35-1.65,6.35-6.95,0-5.46-1.37-6.83-6.82-6.83ZM309.4,223v-4.59h4.77c2.47,0,2.74.23,2.74,2.38,0,2-.27,2.21-2.74,2.21Zm28.22-9.06H328.5l-6.75,20.47h5.94l1.23-4h7.87l1.1,4h6.29Zm-7.29,12,2.5-7.55H333l2.43,7.55Zm27-12h-11.7v20.47h5.51v-7.22h4.09c2.86,0,3.14.24,3.14,2.5v4.72h5.77v-5c0-2.62-1.38-3.83-4.12-4.11,2.86-.4,4.12-2,4.12-5.39,0-4.75-1.36-5.93-6.81-5.93ZM351.14,223v-4.59h4.77c2.46,0,2.73.23,2.73,2.25s-.26,2.34-2.73,2.34Zm15.36-9.06v20.47h16.85v-4.72H372v-3.41h10.24v-4.47H372v-3.14h11.28v-4.73Zm19.21,20.47h5.5V223.22h.16l9.08,11.16h5.19V213.91h-5.51v11.18H400l-9.05-11.18h-5.22Zm27.65,0h5.51V218.64h6.32v-4.73H407.08v4.73h6.28Zm31.24-16.32c4.37,0,4.85.6,4.85,6.09s-.48,6.08-4.85,6.08-4.86-.6-4.86-6.08S440.21,218.06,444.6,218.06ZM434,224.15c0,8.44,2.13,10.54,10.62,10.54s10.63-2.1,10.63-10.54-2.13-10.55-10.63-10.55S434,215.7,434,224.15Zm35-10.24h-11.7v20.47h5.51v-7.22h4.08c2.86,0,3.15.24,3.15,2.5v4.72h5.77v-5c0-2.62-1.38-3.83-4.12-4.11,2.86-.4,4.12-2,4.12-5.39,0-4.75-1.36-5.93-6.81-5.93ZM462.83,223v-4.59h4.77c2.46,0,2.73.23,2.73,2.25s-.27,2.34-2.73,2.34Zm37.92-9.06h-9.12l-6.75,20.47h5.93l1.24-4h7.87l1.1,4h6.29Zm-7.29,12,2.49-7.55h.16l2.44,7.55Zm20.8-7.29h4.49c3.72,0,4.14.55,4.14,5.51s-.42,5.51-4.14,5.51h-4.49l0-5.51Zm-5.51,15.74h10.58c7.47,0,9.34-2,9.34-10.23s-1.87-10.24-9.34-10.24H508.75Zm39.9-8.4V213.91h-5.51V226c0,3.83-.37,4.25-3.56,4.25S536,229.81,536,226V213.91H530.5V226c0,7,1.81,8.71,9.08,8.71S548.65,233,548.65,226ZM551,213.91v20.47h15.48v-4.72h-10V213.91Zm22,20.47h5.51V218.64h6.32v-4.73h-18.1v4.73H573Zm31.43-11v4.19h4.19c-.1,1.83-1.52,2.62-4.67,2.62-4.11,0-4.56-.6-4.56-6.08s.45-6.09,4.56-6.09,4.57.32,4.51,3.15h5.77c.06-6.08-2-7.61-10.28-7.61s-10.33,2.1-10.33,10.55,2.07,10.54,10.33,10.54c3,0,4.65-1.1,5.3-3.59v3.28h5v-11ZM634.51,226V213.91H629V226c0,3.83-.37,4.25-3.57,4.25s-3.56-.42-3.56-4.25V213.91h-5.51V226c0,7,1.81,8.71,9.07,8.71S634.51,233,634.51,226ZM651,213.91H641.9l-6.74,20.47h5.93l1.23-4h7.87l1.1,4h6.3Zm-7.29,12,2.49-7.55h.15l2.44,7.55Zm27-12H659v20.47h5.51v-7.22h4.09c2.86,0,3.14.24,3.14,2.5v4.72h5.77v-5c0-2.62-1.39-3.83-4.12-4.11,2.86-.4,4.12-2,4.12-5.39,0-4.75-1.36-5.93-6.82-5.93ZM664.54,223v-4.59h4.77c2.47,0,2.73.23,2.73,2.25s-.26,2.34-2.73,2.34Zm20.88-4.33h4.48c3.73,0,4.15.55,4.15,5.51s-.43,5.51-4.15,5.51h-4.48l0-5.51Zm-5.51,15.74h10.57c7.47,0,9.34-2,9.34-10.23s-1.87-10.24-9.34-10.24H679.91Zm22,0h5.51V213.91h-5.51Zm22.55-20.47h-9.12l-6.75,20.47h5.93l1.23-4h7.88l1.09,4H731Zm-7.29,12,2.49-7.55h.16l2.44,7.55Zm15,8.45h5.51V223.22h.16L747,234.38h5.2V213.91h-5.51v11.18h-.16l-9.05-11.18h-5.22ZM888.54,227h7.07V198h-6.69c0,3.79-.82,4.5-4,4.5h-3.38v5.2h7.06Zm23.19-18.07c-3.74,0-4.23-.25-4.23-2.71s.49-2.71,4.23-2.71,4.24.26,4.24,2.71S915.49,208.91,911.73,208.91Zm-13.15,10.45c0,6.46,2.79,8.06,13.15,8.06s13.12-1.6,13.12-8.06c0-4.68-1.82-7-5.9-7.47,2.82-.56,4.08-2.53,4.08-6.28,0-6.47-2.41-8.06-11.3-8.06s-11.29,1.59-11.29,8.06c0,3.75,1.26,5.72,4.12,6.28-4.16.48-6,2.79-6,7.47Zm8.18-1.19c0-3,.56-3.31,5-3.31s5,.34,5,3.31-.55,3.31-5,3.31S906.76,221.14,906.76,218.17Zm21.44-6v6.31H936v7.74h6.32V218.5H950v-6.31h-7.73v-7.77H936v7.77Z"/></g></g></g></g></svg>