<svg xmlns="http://www.w3.org/2000/svg" viewBox="0 0 3393.81 885.67"><defs><style>.cls-1,.cls-2,.cls-3{fill:none;}.cls-1,.cls-2{stroke:#000;stroke-linecap:round;stroke-miterlimit:10;}.cls-1{stroke-width:8.82px;}.cls-2{stroke-width:7.97px;}</style></defs><title>Asset 11</title><g id="Layer_2" data-name="Layer 2"><g id="Layer_1-2" data-name="Layer 1"><g id="_3f2c33c6-8096-4fcd-b1ee-6ca6db3f46bf" data-name="3f2c33c6-8096-4fcd-b1ee-6ca6db3f46bf"><g id="_3f2c33c6-8096-4fcd-b1ee-6ca6db3f46bf-child-0" data-name="3f2c33c6-8096-4fcd-b1ee-6ca6db3f46bf-child-0"><path class="cls-1" d="M1499.54,362.76V124.61h838.54V362.76Z"/></g></g><g id="f4c2558b-7fcf-402a-8c08-8728113f63fc"><g id="_7a891af5-2959-4e9f-b71b-a308185a4fe0" data-name="7a891af5-2959-4e9f-b71b-a308185a4fe0"><path d="M2232.44,252.93H2217v-2.64l7.68-8.37a18.66,18.66,0,0,0,2.36-3.1,5,5,0,0,0,.71-2.49,3.8,3.8,0,0,0-.93-2.66,3.23,3.23,0,0,0-2.49-1,3.71,3.71,0,0,0-2.9,1.14,4.47,4.47,0,0,0-1,3.12h-3.84a7.49,7.49,0,0,1,1-3.79,6.46,6.46,0,0,1,2.73-2.62,8.77,8.77,0,0,1,4.11-.93,7.81,7.81,0,0,1,5.29,1.68,5.87,5.87,0,0,1,1.94,4.66,7.9,7.9,0,0,1-1,3.62,20.78,20.78,0,0,1-3.19,4.29l-5.63,6h10.69Zm17.94-9.7q0,5-1.85,7.49a6.56,6.56,0,0,1-5.66,2.53,6.67,6.67,0,0,1-5.63-2.46q-1.89-2.46-1.93-7.29v-4c0-3.31.62-5.8,1.86-7.45a7.75,7.75,0,0,1,11.31-.06c1.24,1.61,1.87,4,1.9,7.24Zm-3.84-4.3a9.76,9.76,0,0,0-.89-4.76,3.38,3.38,0,0,0-5.58-.08,9,9,0,0,0-.93,4.47v5.22a10,10,0,0,0,.9,4.81,3,3,0,0,0,2.83,1.59,3,3,0,0,0,2.74-1.47,9.38,9.38,0,0,0,.93-4.58Zm22.74,14h-15.49v-2.64l7.67-8.37a18.82,18.82,0,0,0,2.37-3.1,5,5,0,0,0,.7-2.49,3.8,3.8,0,0,0-.93-2.66,3.2,3.2,0,0,0-2.49-1,3.67,3.67,0,0,0-2.89,1.14,4.47,4.47,0,0,0-1,3.12h-3.85a7.49,7.49,0,0,1,1-3.79,6.54,6.54,0,0,1,2.74-2.62,8.73,8.73,0,0,1,4.1-.93,7.82,7.82,0,0,1,5.3,1.68,5.86,5.86,0,0,1,1.93,4.66,7.9,7.9,0,0,1-1,3.62,20.42,20.42,0,0,1-3.19,4.29l-5.63,6h10.7Zm3.22-9.37a24.23,24.23,0,0,1,1-6.93,19.24,19.24,0,0,1,2.88-5.87,11.52,11.52,0,0,1,4-3.64l.76,2.25a11.69,11.69,0,0,0-3.61,5.17,22.82,22.82,0,0,0-1.51,8l0,1.36a25.23,25.23,0,0,0,1.35,8.55,12.69,12.69,0,0,0,3.79,5.72l-.76,2.14a11.56,11.56,0,0,1-4-3.65,19,19,0,0,1-2.88-5.87,25,25,0,0,1-1-7.18Zm24,1.16h2.86v3.08h-2.86v5.13h-3.85V247.8h-9.95l-.11-2.34,9.93-15.57h4Zm-9.88,0h6V235.1l-.28.5Zm22.95-.9a23.6,23.6,0,0,1-1,6.78,19.44,19.44,0,0,1-2.93,6,11.52,11.52,0,0,1-4.09,3.71l-.76-2.14a12.21,12.21,0,0,0,3.75-5.61,24.69,24.69,0,0,0,1.39-8.61v-.37a25.32,25.32,0,0,0-1.2-8,14.28,14.28,0,0,0-3.45-5.8l-.49-.44.76-2.16a11.5,11.5,0,0,1,3.92,3.48,18.65,18.65,0,0,1,2.91,5.6,23.69,23.69,0,0,1,1.14,6.38Z"/></g></g><g id="f47697ef-6891-4e49-abca-00cce6777d72"><g id="c39a8587-ec40-483e-879d-976d9ce5002b"><path d="M1711.7,179.65l-2.43,2.58v6.69h-3.73V167.45h3.73v10.07l2.07-2.55,6.28-7.52h4.51l-8,9.51,8.43,12h-4.42Zm16.34,9.27h-3.58V173H1728Zm-3.8-20.09a1.93,1.93,0,0,1,.52-1.38,2.35,2.35,0,0,1,3,0,1.93,1.93,0,0,1,.53,1.38,1.82,1.82,0,0,1-.53,1.34,2.35,2.35,0,0,1-3,0A1.82,1.82,0,0,1,1724.24,168.83Zm12.19.26V173h2.81v2.65h-2.81v8.91a2,2,0,0,0,.36,1.32,1.67,1.67,0,0,0,1.29.4,5.4,5.4,0,0,0,1.25-.15v2.78a9,9,0,0,1-2.36.33q-4.12,0-4.12-4.55v-9h-2.63V173h2.63v-3.88Zm10,0V173h2.81v2.65h-2.81v8.91a2,2,0,0,0,.36,1.32,1.67,1.67,0,0,0,1.29.4,5.4,5.4,0,0,0,1.25-.15v2.78a9,9,0,0,1-2.36.33q-4.12,0-4.13-4.55v-9h-2.62V173h2.62v-3.88Zm9.36,19.83h-3.58V166.28h3.58Zm25.18-9c0,3.09-.58,5.41-1.73,7a7.11,7.11,0,0,1-10.51.06q-1.77-2.29-1.81-6.79v-3.71c0-3.09.58-5.4,1.73-6.95a7.22,7.22,0,0,1,10.54-.05c1.15,1.5,1.75,3.75,1.78,6.75Zm-3.58-4a9.1,9.1,0,0,0-.83-4.43,3.15,3.15,0,0,0-5.2-.07,8.38,8.38,0,0,0-.87,4.16v4.87a9.29,9.29,0,0,0,.84,4.48,2.82,2.82,0,0,0,2.64,1.47,2.77,2.77,0,0,0,2.55-1.36,8.78,8.78,0,0,0,.87-4.27Zm21.18,13h-14.43v-2.46l7.15-7.8a17.5,17.5,0,0,0,2.2-2.88,4.66,4.66,0,0,0,.66-2.32,3.55,3.55,0,0,0-.86-2.48A3,3,0,0,0,1791,170a3.42,3.42,0,0,0-2.69,1.07,4.16,4.16,0,0,0-1,2.9h-3.58a7.07,7.07,0,0,1,.89-3.53,6.07,6.07,0,0,1,2.55-2.44,8.12,8.12,0,0,1,3.82-.87,7.27,7.27,0,0,1,4.94,1.57,5.46,5.46,0,0,1,1.8,4.34,7.3,7.3,0,0,1-.91,3.37,18.86,18.86,0,0,1-3,4l-5.24,5.62h10Zm10.53-8.73a22.42,22.42,0,0,1,.91-6.46,18,18,0,0,1,2.68-5.47,10.65,10.65,0,0,1,3.75-3.39l.71,2.1a10.93,10.93,0,0,0-3.37,4.81,21.62,21.62,0,0,0-1.41,7.41v1.27a23.51,23.51,0,0,0,1.26,8,11.8,11.8,0,0,0,3.53,5.33l-.71,2a10.69,10.69,0,0,1-3.75-3.4,17.79,17.79,0,0,1-2.69-5.47,23.53,23.53,0,0,1-.9-6.69Zm27.27,5.94a7.09,7.09,0,0,1-3.23,2.3,13.18,13.18,0,0,1-4.69.78,9.3,9.3,0,0,1-4.77-1.22,8.08,8.08,0,0,1-3.21-3.5,12.28,12.28,0,0,1-1.17-5.31v-1.69q0-4.86,2.33-7.6a8.08,8.08,0,0,1,6.5-2.73,8.57,8.57,0,0,1,5.69,1.77,7.63,7.63,0,0,1,2.54,5.1h-3.66a4.11,4.11,0,0,0-4.5-3.88,4.39,4.39,0,0,0-3.81,1.81,9.2,9.2,0,0,0-1.35,5.3v1.65a8.71,8.71,0,0,0,1.47,5.4,4.83,4.83,0,0,0,4.08,1.93c1.91,0,3.26-.43,4.07-1.3v-4.2h-4.43v-2.83h8.14Zm12.1-9.89a8.6,8.6,0,0,0-1.45-.12,3.28,3.28,0,0,0-3.32,1.89v10.91h-3.58V173h3.42l.08,1.78a4,4,0,0,1,3.6-2.08,3.3,3.3,0,0,1,1.27.21Zm11.36,12.68a5.5,5.5,0,0,1-.42-1.49,5.56,5.56,0,0,1-4.18,1.78,5.62,5.62,0,0,1-3.92-1.37,4.38,4.38,0,0,1-1.52-3.39,4.53,4.53,0,0,1,1.89-3.91,9.19,9.19,0,0,1,5.42-1.36h2.2v-1.05a2.52,2.52,0,0,0-2.81-2.73,3.14,3.14,0,0,0-2,.61,1.9,1.9,0,0,0-.78,1.56h-3.58a4,4,0,0,1,.87-2.46,5.82,5.82,0,0,1,2.36-1.79,8.36,8.36,0,0,1,3.34-.65,6.69,6.69,0,0,1,4.47,1.41,5,5,0,0,1,1.71,4v7.19a8.2,8.2,0,0,0,.6,3.44v.25Zm-3.94-2.58a4,4,0,0,0,2-.52,3.47,3.47,0,0,0,1.41-1.38v-3h-1.94a5.29,5.29,0,0,0-3,.69,2.25,2.25,0,0,0-1,2,2.13,2.13,0,0,0,.68,1.65A2.65,2.65,0,0,0,1855.93,186.34Zm24.71-5.23A9.48,9.48,0,0,1,1879,187a5.84,5.84,0,0,1-8.71.48v7.56h-3.59V173H1870l.14,1.62a5.25,5.25,0,0,1,4.29-1.92,5.45,5.45,0,0,1,4.58,2.18,9.72,9.72,0,0,1,1.66,6Zm-3.57-.31a6.69,6.69,0,0,0-1-3.79,3.09,3.09,0,0,0-2.72-1.4,3.27,3.27,0,0,0-3.15,1.81v7.08a3.33,3.33,0,0,0,3.18,1.85,3.12,3.12,0,0,0,2.68-1.37A7.36,7.36,0,0,0,1877.07,180.8Zm10.12-6.09a5.6,5.6,0,0,1,4.44-2q5.1,0,5.17,5.83v10.42h-3.58V178.63a3.15,3.15,0,0,0-.72-2.34,2.93,2.93,0,0,0-2.1-.68,3.46,3.46,0,0,0-3.21,1.91v11.4h-3.58V166.28h3.58Zm20.14,5.72a22.2,22.2,0,0,1-.9,6.32,17.91,17.91,0,0,1-2.73,5.54,10.65,10.65,0,0,1-3.82,3.46l-.71-2a11.28,11.28,0,0,0,3.51-5.23,23.24,23.24,0,0,0,1.29-8v-.34a23.41,23.41,0,0,0-1.12-7.46,13.19,13.19,0,0,0-3.22-5.41l-.46-.41.71-2a10.63,10.63,0,0,1,3.66,3.25,17.58,17.58,0,0,1,2.71,5.21,21.68,21.68,0,0,1,1.06,5.95Z"/></g></g><g id="d22cc1a2-ca59-457b-bb43-85a8bdbe650a"><g id="_9fd00e5b-52aa-4a60-85a1-d93c0a61b8ad" data-name="9fd00e5b-52aa-4a60-85a1-d93c0a61b8ad"><path d="M1717.38,306.76V310h-.48a7.59,7.59,0,0,0-5.16,1.77,7.34,7.34,0,0,0-2.29,4.89,6.26,6.26,0,0,1,4.73-1.94,5.93,5.93,0,0,1,4.82,2.15,8.46,8.46,0,0,1,1.76,5.54,7.94,7.94,0,0,1-2.06,5.69,7.15,7.15,0,0,1-5.42,2.18,7,7,0,0,1-5.59-2.55,10,10,0,0,1-2.15-6.68v-1.31q0-6.06,3-9.49t8.49-3.44Zm-4.13,11a4.07,4.07,0,0,0-2.32.71,4.17,4.17,0,0,0-1.54,1.9v1.17a6.94,6.94,0,0,0,1.07,4.07,3.3,3.3,0,0,0,2.79,1.52,3.22,3.22,0,0,0,2.7-1.29,5.3,5.3,0,0,0,1-3.37,5.45,5.45,0,0,0-1-3.4,3.26,3.26,0,0,0-2.69-1.31Zm25.91-8.75-9.21,20.9h-4l9.19-20H1723.2v-3.09h16Zm17.6,3.94a5.34,5.34,0,0,1-.87,3,6,6,0,0,1-2.38,2.08,6.57,6.57,0,0,1,2.78,2.3,5.76,5.76,0,0,1,1,3.29,6,6,0,0,1-2,4.82,9.34,9.34,0,0,1-11,0,6.06,6.06,0,0,1-2.06-4.81,5.88,5.88,0,0,1,1-3.32,6.25,6.25,0,0,1,2.75-2.27,6.08,6.08,0,0,1-2.35-2.08,5.41,5.41,0,0,1-.86-3,6,6,0,0,1,1.9-4.67,8.53,8.53,0,0,1,10.27,0,6,6,0,0,1,1.9,4.67Zm-3.34,10.49a3.79,3.79,0,0,0-1-2.76,4,4,0,0,0-5.38,0,3.82,3.82,0,0,0-1,2.77,3.68,3.68,0,0,0,1,2.7,3.59,3.59,0,0,0,2.73,1,3.39,3.39,0,0,0,3.69-3.72Zm-.49-10.35a3.59,3.59,0,0,0-.87-2.48,3.34,3.34,0,0,0-4.67,0,3.56,3.56,0,0,0-.85,2.52,3.62,3.62,0,0,0,.86,2.52,3,3,0,0,0,2.33.93,3.05,3.05,0,0,0,2.34-.93A3.62,3.62,0,0,0,1752.93,313.09Zm10.38,12.77a2.19,2.19,0,0,1,1.66.61,2.13,2.13,0,0,1,.58,1.53,2,2,0,0,1-.58,1.49,2.26,2.26,0,0,1-1.66.59,2.23,2.23,0,0,1-1.63-.58,2,2,0,0,1-.6-1.5,2.13,2.13,0,0,1,.58-1.53A2.17,2.17,0,0,1,1763.31,325.86Zm21.9,4.05h-15.49v-2.64l7.67-8.37a18.82,18.82,0,0,0,2.37-3.1,5,5,0,0,0,.7-2.49,3.8,3.8,0,0,0-.93-2.66,3.2,3.2,0,0,0-2.49-1,3.67,3.67,0,0,0-2.89,1.14,4.47,4.47,0,0,0-1,3.12h-3.85a7.49,7.49,0,0,1,1-3.79,6.54,6.54,0,0,1,2.74-2.62,8.73,8.73,0,0,1,4.1-.93,7.82,7.82,0,0,1,5.3,1.68,5.86,5.86,0,0,1,1.93,4.66,7.9,7.9,0,0,1-1,3.62,20.42,20.42,0,0,1-3.19,4.29l-5.63,6h10.7Zm7.37-13.27h2.34a4.2,4.2,0,0,0,2.81-.92,3.27,3.27,0,0,0,1-2.61,3.56,3.56,0,0,0-.87-2.56,3.48,3.48,0,0,0-2.63-.91,3.68,3.68,0,0,0-2.55.9,3,3,0,0,0-1,2.33h-3.84a5.81,5.81,0,0,1,.94-3.23,6.36,6.36,0,0,1,2.63-2.27,8.58,8.58,0,0,1,3.77-.81,7.94,7.94,0,0,1,5.42,1.73,6.08,6.08,0,0,1,2,4.82,4.9,4.9,0,0,1-1,2.92,6.27,6.27,0,0,1-2.55,2.06,5.63,5.63,0,0,1,2.88,2,5.57,5.57,0,0,1,1,3.32,6.18,6.18,0,0,1-2.13,4.94,9.31,9.31,0,0,1-11,.06,5.84,5.84,0,0,1-2.12-4.71h3.84a3.22,3.22,0,0,0,1,2.47,3.89,3.89,0,0,0,2.75,1,4,4,0,0,0,2.81-1,3.55,3.55,0,0,0,1-2.76,3.63,3.63,0,0,0-1.07-2.8,4.64,4.64,0,0,0-3.2-1h-2.26Zm40.23,5.77a8.26,8.26,0,0,1-2.72,5.75,9.24,9.24,0,0,1-6.31,2.07,9,9,0,0,1-4.85-1.31,8.44,8.44,0,0,1-3.23-3.71,13.32,13.32,0,0,1-1.19-5.58v-2.16a13.46,13.46,0,0,1,1.15-5.74,8.77,8.77,0,0,1,3.32-3.83,9.29,9.29,0,0,1,5-1.34,8.9,8.9,0,0,1,6.14,2.07,8.63,8.63,0,0,1,2.7,5.85h-4a5.72,5.72,0,0,0-1.45-3.58,4.79,4.79,0,0,0-3.41-1.1,4.68,4.68,0,0,0-4,1.91,9.52,9.52,0,0,0-1.43,5.59v2a10.13,10.13,0,0,0,1.33,5.7,4.44,4.44,0,0,0,3.92,2,5.15,5.15,0,0,0,3.54-1.06,5.53,5.53,0,0,0,1.51-3.53Zm13.58,5.82a6,6,0,0,1-4.81,2,5.33,5.33,0,0,1-4.22-1.63,7,7,0,0,1-1.43-4.72V312.79h3.85v11c0,2.17.9,3.26,2.7,3.26s3.13-.67,3.78-2V312.79h3.85v17.12h-3.63Zm17.23-3a1.74,1.74,0,0,0-.85-1.57,8.73,8.73,0,0,0-2.8-.95,14.26,14.26,0,0,1-3.28-1c-1.92-.93-2.88-2.27-2.88-4a4.55,4.55,0,0,1,1.87-3.7,7.36,7.36,0,0,1,4.74-1.49,7.69,7.69,0,0,1,5,1.52,4.8,4.8,0,0,1,1.9,3.94h-3.85a2.37,2.37,0,0,0-.82-1.84,3.17,3.17,0,0,0-2.19-.74,3.4,3.4,0,0,0-2.06.59,1.85,1.85,0,0,0-.8,1.57,1.56,1.56,0,0,0,.74,1.37,10.12,10.12,0,0,0,3,1,14,14,0,0,1,3.55,1.19,5.11,5.11,0,0,1,1.92,1.65,4.39,4.39,0,0,1,.62,2.34,4.46,4.46,0,0,1-1.91,3.74,8.15,8.15,0,0,1-5,1.44,8.82,8.82,0,0,1-3.75-.76,6.2,6.2,0,0,1-2.56-2.09,5,5,0,0,1-.92-2.87H1857a2.7,2.7,0,0,0,1,2.1,4,4,0,0,0,2.52.74,3.86,3.86,0,0,0,2.31-.58A1.79,1.79,0,0,0,1863.62,325.26Zm12-16.63v4.16h3v2.85h-3v9.55a2.15,2.15,0,0,0,.38,1.42,1.8,1.8,0,0,0,1.38.44,5.64,5.64,0,0,0,1.34-.16v3a9.1,9.1,0,0,1-2.52.37q-4.43,0-4.43-4.89v-9.7h-2.82v-2.85h2.82v-4.16Zm4.76,12.56a10,10,0,0,1,1-4.53,7.1,7.1,0,0,1,2.8-3.1,7.79,7.79,0,0,1,4.13-1.09,7.48,7.48,0,0,1,5.63,2.23,8.77,8.77,0,0,1,2.33,5.92l0,.9a10.19,10.19,0,0,1-1,4.53,7.17,7.17,0,0,1-2.78,3.08,7.94,7.94,0,0,1-4.19,1.1,7.45,7.45,0,0,1-5.8-2.42,9.28,9.28,0,0,1-2.16-6.43Zm3.84.33a6.86,6.86,0,0,0,1.1,4.14,3.8,3.8,0,0,0,6.06,0,7.57,7.57,0,0,0,1.09-4.45,6.75,6.75,0,0,0-1.12-4.11,3.76,3.76,0,0,0-6,0,7.48,7.48,0,0,0-1.11,4.47Zm18.93-8.73.11,1.79a6.16,6.16,0,0,1,4.94-2.11c2.29,0,3.85.88,4.7,2.63a6.09,6.09,0,0,1,5.25-2.63,5.33,5.33,0,0,1,4.22,1.57,6.93,6.93,0,0,1,1.41,4.62v11.25h-3.84V318.77a3.43,3.43,0,0,0-.71-2.39,3.1,3.1,0,0,0-2.36-.76,3.19,3.19,0,0,0-2.14.71,3.8,3.8,0,0,0-1.17,1.84l0,11.74h-3.85V318.64a2.74,2.74,0,0,0-3.08-3,3.4,3.4,0,0,0-3.28,1.89v12.4h-3.84V312.79Zm28.67,17.12h-3.84V312.79h3.84Zm-4.08-21.57a2.07,2.07,0,0,1,.56-1.47,2.12,2.12,0,0,1,1.61-.58,2.15,2.15,0,0,1,1.61.58,2.17,2.17,0,0,1,0,2.93,2.15,2.15,0,0,1-1.61.58,2.12,2.12,0,0,1-1.61-.58A2,2,0,0,1,1927.69,308.34Zm12.37,18.5h9.12v3.07h-13.9v-2.52l8.69-11.5h-8.53v-3.1h13.4v2.44Zm19.48,3.39a8,8,0,0,1-5.93-2.31,8.36,8.36,0,0,1-2.27-6.13v-.47a10.27,10.27,0,0,1,1-4.58,7.53,7.53,0,0,1,2.78-3.14,7.33,7.33,0,0,1,4-1.13,6.7,6.7,0,0,1,5.4,2.23,9.47,9.47,0,0,1,1.91,6.32v1.55h-11.19a5.09,5.09,0,0,0,1.42,3.35,4.23,4.23,0,0,0,3.12,1.24,5.21,5.21,0,0,0,4.31-2.14l2.07,2a7,7,0,0,1-2.75,2.38,8.48,8.48,0,0,1-3.85.85Zm-.46-14.67a3.23,3.23,0,0,0-2.55,1.11,5.69,5.69,0,0,0-1.25,3.08h7.33v-.28a4.71,4.71,0,0,0-1-2.92A3.2,3.2,0,0,0,1959.08,315.56Z"/></g></g><g id="b64946dc-77d6-4bdd-b322-dd578bd01e1e"><g id="b64946dc-77d6-4bdd-b322-dd578bd01e1e-child-0"><path d="M1705.54,266.67v-38.6h65.92v38.6Z"/></g></g><g id="_6ef03190-e6ab-4b70-8251-efcc4ab1383a" data-name="6ef03190-e6ab-4b70-8251-efcc4ab1383a"><g id="_6ef03190-e6ab-4b70-8251-efcc4ab1383a-child-0" data-name="6ef03190-e6ab-4b70-8251-efcc4ab1383a-child-0"><path d="M1733.1,260.84a14,14,0,1,1,3.88-27.42l-1.35,4.7a9.36,9.36,0,0,0-2.53-.35,9.09,9.09,0,0,0,0,18.17,9.36,9.36,0,0,0,2.53-.35l1.35,4.7A14,14,0,0,1,1733.1,260.84Z"/></g><g id="_6ef03190-e6ab-4b70-8251-efcc4ab1383a-child-1" data-name="6ef03190-e6ab-4b70-8251-efcc4ab1383a-child-1"><path d="M1754,255.94a9.1,9.1,0,0,1-8.75-6.64h6.65v-4.89h-6.65a9.1,9.1,0,0,1,8.75-6.64,9.36,9.36,0,0,1,2.53.35l1.35-4.7a14,14,0,1,0,0,26.87l-1.35-4.7A9.36,9.36,0,0,1,1754,255.94Z"/></g></g><g id="_109e1008-8181-4c90-bcd6-b00e11cc2891" data-name="109e1008-8181-4c90-bcd6-b00e11cc2891"><g id="_109e1008-8181-4c90-bcd6-b00e11cc2891-child-0" data-name="109e1008-8181-4c90-bcd6-b00e11cc2891-child-0"><path d="M2058.18,330.14a82.65,82.65,0,1,1,22.94-162.06l-8,27.8a53.72,53.72,0,1,0,0,103.23l8,27.8A82.87,82.87,0,0,1,2058.18,330.14Z"/></g><g id="_109e1008-8181-4c90-bcd6-b00e11cc2891-child-1" data-name="109e1008-8181-4c90-bcd6-b00e11cc2891-child-1"><path d="M2181.7,301.21A53.83,53.83,0,0,1,2130,262h39.32V233H2130a53.78,53.78,0,0,1,66.66-37.15l8-27.8a82.65,82.65,0,1,0,0,158.83l-8-27.8A54,54,0,0,1,2181.7,301.21Z"/></g></g><g id="a5804991-cc4e-4254-8c81-798b38673a1f"><g id="a5804991-cc4e-4254-8c81-798b38673a1f-child-0"><path d="M1595.2,166.72a90.41,90.41,0,0,1,14.89.68c.8.14,1.88.42,2,1.34a1.62,1.62,0,0,1-1.47,2,82.94,82.94,0,0,0-17.68-.7c-2.64.08-5.24.54-7.87.81a1.61,1.61,0,0,1-1.43-2.45c.49-.82,1.51-.86,2.34-1,3-.43,6.1-.57,9.16-.76Zm-23.12,7.52a1.81,1.81,0,0,0-.83,3,1.71,1.71,0,0,0,1.72.21,66.33,66.33,0,0,1,7.62-1.66c.52-.12,1.16-.16,1.48-.65A1.86,1.86,0,0,0,1582,173a2.07,2.07,0,0,0-2.12-.51A77.44,77.44,0,0,0,1572.08,174.24Zm11.64.76c-.47.92-.14,2.33,1,2.44,1.75.06,3.47-.48,5.24-.58a66.51,66.51,0,0,1,8.81-.46,121.32,121.32,0,0,1,16.92,1.21,68.66,68.66,0,0,1,14.32,3.76,7.13,7.13,0,0,0,2.63.82,1.74,1.74,0,0,0,1.37-2,2.2,2.2,0,0,0-1.48-1.35,86.64,86.64,0,0,0-13.88-4c-.81-.21-18.52-3.86-33.45-.66A2.58,2.58,0,0,0,1583.72,175Zm26,6.28c-.08-1.13-.89-1.4-2.54-1.66-6-1-17.34-.51-25.73,1a99.07,99.07,0,0,0-17.16,4c-.89.32-2.09.47-2.52,1.45a1.85,1.85,0,0,0,.59,2.2,2.07,2.07,0,0,0,1.75-.08c2.22-.73,4.42-1.49,6.66-2.13,3.73-1,17.69-3.33,18.28-3a98.72,98.72,0,0,1,18.83,0,1.6,1.6,0,0,0,1.84-1.74Zm6,2.13c6,1.39,12,3,17.46,6a82.87,82.87,0,0,1,7.44,3.68c1.11.47,2,1.49,3.23,1.61a2.06,2.06,0,0,0,1.39-.74,1.84,1.84,0,0,0-.26-2c-.63-.76-1.67-.92-2.42-1.51-4.11-2-8.17-4.14-12.36-6a90.18,90.18,0,0,0-12.39-3.84c-.72-.09-1.47-.46-2.19-.17a1.59,1.59,0,0,0,.08,3Zm.24,4.62c-.77-.48-8.86-1.37-10.63-1.45a97.34,97.34,0,0,0-12.5.08,128.64,128.64,0,0,0-19.58,3.36c-.77.21-1.79.34-2.06,1.21a1.5,1.5,0,0,0,.7,1.92,2.26,2.26,0,0,0,1.82.12s11.61-3.2,20.23-3.41q6.16-.13,12.33,0c2.73.21,5.42.64,8.13,1a2.48,2.48,0,0,0,2-.38,1.62,1.62,0,0,0-.46-2.45Zm7.18,4.19a25,25,0,0,0,4,1.6c2.2.78,4.33,1.72,6.5,2.54a69.5,69.5,0,0,1,12.28,7,26.08,26.08,0,0,1,3.09,2.27,7.13,7.13,0,0,0,2.3,1.42,1.65,1.65,0,0,0,1.54-1.81c-.14-1.34-1.56-1.84-2.42-2.66a77.82,77.82,0,0,0-13.91-8.37,120.41,120.41,0,0,0-11.45-4.59c-.48-.12-1-.38-1.5-.12a1.59,1.59,0,0,0-.4,2.74Zm-59.47.53c-2.32.87-4.59,1.86-6.83,2.93a1.86,1.86,0,0,0-1.07,2c.09.76.86,1.21,1.53,1.46a7.66,7.66,0,0,0,1.75-.74c1.29-.67,2.66-1.2,4-1.84,1.7-.82,3.58-1.24,5.19-2.23,1.07-.92.22-3.23-1.32-2.75a17.24,17.24,0,0,0-3.2,1.24Zm71.87,8.92c-.39-1.26-1.87-1.45-2.85-2.06a69.42,69.42,0,0,0-9.93-3.55A78,78,0,0,0,1599,192.8a82,82,0,0,0-22.08,3.5,79.34,79.34,0,0,0-11.21,3.86,77.1,77.1,0,0,0-11.6,5.81,35.46,35.46,0,0,0-3.81,2.71,2,2,0,0,0-.76,2.32,1.34,1.34,0,0,0,1.58.87,27.83,27.83,0,0,0,2.72-1.74,87.47,87.47,0,0,1,12.35-6.68c16.88-8.09,36.73-8.55,49.3-5.92a75.56,75.56,0,0,1,17.42,5.8,2.54,2.54,0,0,0,1.57.44,1.61,1.61,0,0,0,1-2.08Zm-50.15-.43a1.73,1.73,0,0,0-.66,2.93c.75.51,1.68.19,2.49.08a77.34,77.34,0,0,1,8.58-1.21,80.59,80.59,0,0,1,8.37-.21c.78-.05,1.74.21,2.31-.48a1.65,1.65,0,0,0-.65-2.56,6.45,6.45,0,0,0-2.36-.21,67.64,67.64,0,0,0-7,.16C1593,199.92,1587,200.62,1585.37,201.24Zm30.39,1.35a1.8,1.8,0,0,0,1.23,1.6c1.42.63,3,.87,4.43,1.37a20.6,20.6,0,0,0,3.17.94,1.64,1.64,0,0,0,1.54-1.76,2.38,2.38,0,0,0-1.7-1.78,47.77,47.77,0,0,0-6.87-2,1.43,1.43,0,0,0-1.81,1.6Zm-48.27,3.51a60.59,60.59,0,0,0-6.24,3.26c-4.16,2.63-8.42,5.25-11.89,8.77a71.72,71.72,0,0,0-12.44,16.13,1.59,1.59,0,0,0-.11,1.3,1.62,1.62,0,0,0,2.2,1c.57-.15.79-.78,1.11-1.21a56.4,56.4,0,0,1,5.29-8c.69-.7,1.13-1.64,2-2.17,1.34-1.67,2.8-3.23,4.25-4.81a12.35,12.35,0,0,0,1.48-1.32,48.15,48.15,0,0,1,5.56-4.19,65.61,65.61,0,0,1,10.68-6,29.83,29.83,0,0,0,3.6-1.74,1.82,1.82,0,0,0,.35-1.73,1.66,1.66,0,0,0-2-1.07,29.86,29.86,0,0,0-3.82,1.74Zm61.81,2a103.81,103.81,0,0,1,9.59,5c1.61.82,3,2,4.51,2.94a9.69,9.69,0,0,0,1.44,1.11c.73.4,1.21,1.13,1.92,1.56a21.25,21.25,0,0,1,2.39,2,56.54,56.54,0,0,1,7,8.09,63.41,63.41,0,0,1,4,6.92,1.66,1.66,0,0,0,2.44.44,1.94,1.94,0,0,0,.44-1.92,16,16,0,0,0-1.21-2.28c-1-1.74-2-3.52-3.2-5.15a50.52,50.52,0,0,0-6.94-8.15c-.91-1-2.08-1.79-3-2.79a49.19,49.19,0,0,0-4.08-2.87c-3.81-3-8.2-5.07-12.47-7.28-.82-.35-1.63-1-2.57-.77a1.74,1.74,0,0,0-.24,3.13Zm-50.12,1.32a68.6,68.6,0,0,0-13.46,5.82,55.7,55.7,0,0,0-5.89,3.62c-4.4,3.26-8.81,6.64-12.3,10.91A49,49,0,0,0,1536.66,253a4.84,4.84,0,0,0,0,2.21c.18.47.72.56,1.15.67a1.71,1.71,0,0,0,1.89-1.37c.39-1.49.45-3.06.78-4.58.9-4.13,2.9-7.87,4.93-11.52a38.09,38.09,0,0,1,3.12-4.78c.54-.77,1.26-1.37,1.82-2.12a59.9,59.9,0,0,1,7.4-7c2.54-2,5.28-3.73,8-5.5,2-1.14,4-2.16,6-3.22A93,93,0,0,1,1582,212a74.08,74.08,0,0,1,15-3.14,2.09,2.09,0,0,0,2-1c.12-.62.24-1.4-.29-1.86a2.68,2.68,0,0,0-2.31-.48,90.54,90.54,0,0,0-17.19,3.93Zm22.31-1.37c.84.83,2.09.51,3.15.59a67,67,0,0,1,27.55,7.27c1.65,1,3.41,1.78,5,2.91,2.28,1.37,4.29,3.14,6.41,4.72.89,1,2,1.7,2.85,2.74.73.65,1.29,1.48,2,2.15,1,1,1.64,2.42,2.93,3.14a1.46,1.46,0,0,0,2-1.34c.11-.83-.54-1.45-1-2.07a50.55,50.55,0,0,0-6.28-6.47,43.32,43.32,0,0,0-7.41-5.58,38,38,0,0,0-4.81-2.85c-7.79-4.36-16.65-6.42-25.44-7.55a37.15,37.15,0,0,0-6.58-.24,1.59,1.59,0,0,0-.43,2.62Zm42.31-.12c0,.9.93,1.3,1.55,1.78a72.51,72.51,0,0,1,10.4,9.32,12.65,12.65,0,0,0,2.13,2.31,1.58,1.58,0,0,0,2-2c-.53-1.38-1.83-2.21-2.69-3.36s-2-1.91-2.89-3c-1.5-1.29-2.88-2.69-4.49-3.85a21.93,21.93,0,0,0-3-2.36c-.57-.38-1.22-.91-2-.67a1.57,1.57,0,0,0-1.08,1.8ZM1582.9,215a51.14,51.14,0,0,0-13.23,6.74,32.7,32.7,0,0,0-3.63,3.11c-1.16,1.23-2.53,2.25-3.6,3.58a49.89,49.89,0,0,0-7.82,11,49.17,49.17,0,0,0-5.16,12.95c-.66,2.87-.9,5.9-2.36,8.51a21.38,21.38,0,0,1-5.13,5.35c-.78.61-2,.93-2.12,2.08a1.61,1.61,0,0,0,2,1.78,15,15,0,0,0,2.81-1.86,17.13,17.13,0,0,0,6.43-8.45c.75-2.2,1.05-4.49,1.6-6.74,1.4-6.8,4.94-12.9,8.84-18.56a37.15,37.15,0,0,1,3.26-3.95c1.71-1.45,3.19-3.14,4.85-4.65a39.43,39.43,0,0,1,4.63-3.27,55.56,55.56,0,0,1,5.09-2.78,60.05,60.05,0,0,1,16-4.61,58.59,58.59,0,0,1,9.91-.33,57.73,57.73,0,0,1,9.8,1.15,1.55,1.55,0,0,0,1.84-1.39,1.51,1.51,0,0,0-1.26-1.79,61,61,0,0,0-16.07-1.29,59.07,59.07,0,0,0-16.74,3.4Zm41,3.48a8.9,8.9,0,0,0,2.35,1.11,38.65,38.65,0,0,1,7.08,3.6c.84.4,1.51,1.2,2.47,1.29a1.43,1.43,0,0,0,1.62-1.43c.06-1.36-1.32-2-2.34-2.57a59.06,59.06,0,0,0-9.08-4.6,2.37,2.37,0,0,0-1.5-.21,1.66,1.66,0,0,0-.6,2.79Zm-28-.31a63.27,63.27,0,0,0-15,4.78,54.57,54.57,0,0,0-8.46,5A47,47,0,0,0,1559,243.78a20,20,0,0,0-1.72,4.11c-.25,1,.74,1.76,1.64,1.76a1.92,1.92,0,0,0,1.41-1.06,44.17,44.17,0,0,1,2.56-5.1,43.25,43.25,0,0,1,10.56-12.17c1.79-1.15,3.48-2.47,5.34-3.51a54.22,54.22,0,0,1,22-7c2.21-.18,4.44,0,6.67-.11a1.56,1.56,0,0,0,1.18-2.3c-.4-.89-1.5-.89-2.33-.91a45.37,45.37,0,0,0-5.94.15,37.79,37.79,0,0,0-4.51.56Zm20.6,3.3c.23.75,1,1.05,1.7,1.32a44.32,44.32,0,0,1,9.72,4,48,48,0,0,1,4.87,3.25,47.26,47.26,0,0,1,10.63,11,33.42,33.42,0,0,1,4.68,8.78,38.19,38.19,0,0,1,2.38,10.18,62.58,62.58,0,0,1,.17,9.78,95.34,95.34,0,0,1-1.89,11.76,84.53,84.53,0,0,1-4.23,13.17,85.94,85.94,0,0,1-9.51,17.21,53.77,53.77,0,0,1-4.41,5.78,46.7,46.7,0,0,1-4.68,5.07,2.52,2.52,0,0,0-1.09,2.25,1.51,1.51,0,0,0,1.69,1.43,2.6,2.6,0,0,0,1.68-1.18,37.68,37.68,0,0,1,2.82-3,87.58,87.58,0,0,0,7.74-9.91c1.61-2.31,2.91-4.79,4.41-7.18,1.72-3.25,3.23-6.6,4.65-10a82.47,82.47,0,0,0,6-25,50.57,50.57,0,0,0,.11-9.29c-.15-1.41-.35-2.82-.59-4.22a42.78,42.78,0,0,0-6.52-16.52,46.23,46.23,0,0,0-8.22-9.43,47,47,0,0,0-16.06-10c-1.24-.46-2.45-1-3.72-1.32a2.72,2.72,0,0,0-1.47-.05,1.49,1.49,0,0,0-.83,2.09Zm-31.74,6.22a47.56,47.56,0,0,0-11.77,7.71,53.52,53.52,0,0,0-5.28,5.87,38.39,38.39,0,0,0-5.25,9.12,49.28,49.28,0,0,0-3,12.57c-.35,2.29-.64,4.68-1.85,6.72a30.16,30.16,0,0,1-4.75,6.15c-1.11.89-2,2-3.19,2.85-1.48,1.48-3.23,2.66-4.84,4-1,.6-1.82,1.46-2.87,2-.67.47-1.65,1-1.57,1.91a1.6,1.6,0,0,0,1.21,1.61c1.37.23,2.34-1,3.42-1.64s2.23-1.65,3.4-2.39c.86-.94,2-1.56,2.85-2.5a41.18,41.18,0,0,0,8.25-8.68,18.41,18.41,0,0,0,2.66-6.88c.48-2.2.56-4.46,1-6.66a53.85,53.85,0,0,1,1.66-6.47,38.94,38.94,0,0,1,11-15.66,44.28,44.28,0,0,1,11.54-7.28,57.36,57.36,0,0,1,13.6-3.3,45.43,45.43,0,0,1,12.37.8,39.29,39.29,0,0,1,8.36,2.58c1.12.49,2.28,1.3,3.54,1a1.59,1.59,0,0,0,.14-2.58,14.27,14.27,0,0,0-3.25-1.61,49.6,49.6,0,0,0-14.19-3.39c-2.07,0-4.15-.11-6.22,0a52.72,52.72,0,0,0-17,4.12Zm58.15,3.56a45.7,45.7,0,0,1,10,14.58c.81,1.59,1.16,3.38,2,5a1.7,1.7,0,0,0,2,.54,1.47,1.47,0,0,0,.84-1.77,48.07,48.07,0,0,0-3.64-8.67,55.36,55.36,0,0,0-4.27-6.66c-1.34-1.67-2.71-3.31-4.13-4.92a2.41,2.41,0,0,0-2.42-1c-1.28.35-1.28,2.08-.4,2.85Zm-38.75-.7a1.7,1.7,0,0,0-1.78-1.19,42.1,42.1,0,0,0-10.58,2.12,2.8,2.8,0,0,0-2,1.46c-.65,1.12.58,2.82,1.84,2.31,0,0,2.12-1.22,7.72-2.26,1.29-.24,2.6-.32,3.87-.56.87-.14,1.06-1.14,1-1.88Zm37.43,35.64a61.69,61.69,0,0,0-.75-8.46,30.88,30.88,0,0,0-7.47-15.55,45.62,45.62,0,0,0-5.88-5.49,52.75,52.75,0,0,0-6.42-4,40.7,40.7,0,0,0-12.83-3.32,1.72,1.72,0,0,0-1.72,1.07,1.56,1.56,0,0,0,.42,1.77,38,38,0,0,1,13,3.47,34.24,34.24,0,0,1,4.56,2.87c5.51,4,10.34,9.41,12.28,16.06,1.69,5.56,1.74,11.44,1.44,17.19a107.24,107.24,0,0,1-1.21,10.69,1.48,1.48,0,0,0,.81,1.72,1.78,1.78,0,0,0,2.42-1.26c.3-1.4.43-2.85.64-4.27a99.78,99.78,0,0,0,.71-12.46Zm-9.86-29.33a29.77,29.77,0,0,1,2.43,2.2,25.56,25.56,0,0,1,2.39,2.49,32.84,32.84,0,0,1,2.12,2.74,32.15,32.15,0,0,1,5.21,12.17,1.51,1.51,0,0,0,.89,1.24,1.61,1.61,0,0,0,2.3-1.31,19.86,19.86,0,0,0-1.39-5.41,33.59,33.59,0,0,0-3.12-6.61,41,41,0,0,0-4.57-6.14,13.59,13.59,0,0,1-1.93-2c-1.18-.76-1.91-2.13-3.3-2.56a1.51,1.51,0,0,0-1.26.11A1.92,1.92,0,0,0,1631.65,236.86Zm-79.74-2.74c-1.32,1-2,2.5-3,3.79-4.76,6.57-6.51,18.1-6.51,18.1-.66,2.95-3.11,5-5.66,6.41a2.13,2.13,0,0,0-1.24,1.32,1.75,1.75,0,0,0,2.23,2,23.49,23.49,0,0,0,2.36-1.62,13.27,13.27,0,0,0,4.95-5.72c1-2.28.94-4.83,1.63-7.2a46.13,46.13,0,0,1,5.87-13.15c.51-.86,1.39-1.57,1.55-2.61a1.48,1.48,0,0,0-2.23-1.35Zm46.33,2a26.66,26.66,0,0,0-7.28,3.38,27.69,27.69,0,0,0-10.55,14.3,15.71,15.71,0,0,0-.65,4.73c0,.7-.23,1.5.22,2.11a1.73,1.73,0,0,0,2.79-.32c.27-1.85.09-3.78.68-5.58a25.63,25.63,0,0,1,3.29-6.47,23.91,23.91,0,0,1,9.32-7.85,21.56,21.56,0,0,1,7.64-2,24.63,24.63,0,0,1,9.47,1c.87.3,2,.7,2.8.09a1.49,1.49,0,0,0,.3-2,2.27,2.27,0,0,0-1.26-.83,25.87,25.87,0,0,0-4.79-1.21,39.88,39.88,0,0,0-7.08-.08,29.12,29.12,0,0,0-4.89.86Zm-13.58-.11a34.88,34.88,0,0,0-3.79,2.94,3.91,3.91,0,0,0-1.56,1.71,1.55,1.55,0,0,0,1.77,2.25,24.45,24.45,0,0,0,3.25-2.59c1.07-.87,2.49-1.37,3.3-2.53a1.79,1.79,0,0,0-2-2.12,3.22,3.22,0,0,0-1,.35ZM1661,244a42.64,42.64,0,0,1,2,6.68,63.45,63.45,0,0,1,1.33,13.95c-.16,3.49-.52,7-.86,10.44a1.44,1.44,0,0,0,1,1.46,1.65,1.65,0,0,0,2.2-1.46c.1-1.09.18-2.17.31-3.25a4.4,4.4,0,0,1-.32-1.61c.11.27,0,.89.44.91a125.27,125.27,0,0,0,.21-13c0-.55-.22-1.07-.22-1.61a49.1,49.1,0,0,0-1.2-7.41,65,65,0,0,0-2.48-7.73c-.29-.6-.45-1.37-1.1-1.7a1.61,1.61,0,0,0-2.42,1.06c-.19,1.22.73,2.19,1.13,3.25Zm-42-2.1a7.15,7.15,0,0,0,1.71,1.58c.89.55,1.52,1.41,2.42,2a27.19,27.19,0,0,1,5.33,6,29.1,29.1,0,0,1,3.8,12c.09,1.71,0,3.41,0,5.12a1.44,1.44,0,0,0,1.38,1.5,1.72,1.72,0,0,0,1.82-1.53,34.87,34.87,0,0,0-1-10.57,26.57,26.57,0,0,0-4.81-10.27c-2.18-3-5.11-5.27-8-7.58a2.28,2.28,0,0,0-2.13-.28,1.51,1.51,0,0,0-.61,2Zm-22.8,2a19.29,19.29,0,0,0-7.1,7.08,18,18,0,0,0-3,9.51c0,4.47-.23,9.25-2.6,13.19a1.6,1.6,0,0,0,1.21,2.37c.88.11,1.53-.65,1.91-1.34a21.89,21.89,0,0,0,2.31-7.5,32.25,32.25,0,0,0,.19-5.56,16.46,16.46,0,0,1,3.91-10.69,14.48,14.48,0,0,1,6.11-4.83,18.05,18.05,0,0,1,17.35,1.84,19.54,19.54,0,0,1,8.19,9.65,24.92,24.92,0,0,1,1.53,7.49,71.83,71.83,0,0,1-.65,14.21,1.69,1.69,0,0,0,1.61,2,2,2,0,0,0,1.85-2,80.39,80.39,0,0,0,.58-8.35,40,40,0,0,0-.57-9.08,24.75,24.75,0,0,0-2.64-8,21.94,21.94,0,0,0-7-7.82,21.66,21.66,0,0,0-14.87-4.49,19.36,19.36,0,0,0-8.3,2.39Zm-22-.39c-.83-.07-1.34.7-1.78,1.27a49.07,49.07,0,0,0-4.08,7.28,41.71,41.71,0,0,0-2.95,11.9c-.37,4.88-1.29,9.83-3.76,14.13a47.54,47.54,0,0,1-5.74,7.51,78.1,78.1,0,0,1-10.51,9,1.9,1.9,0,0,0-.49,2.43,1.65,1.65,0,0,0,2.23.49c1.35-1.15,2.86-2.07,4.23-3.19,1.66-1.53,3.46-2.86,5.09-4.41.36-.64,1.1-.91,1.49-1.53a58.47,58.47,0,0,0,5.37-6.69,27.52,27.52,0,0,0,2.76-5.16c3.22-9.16,2.42-20.47,7.31-27.26a26.4,26.4,0,0,0,2.17-3.46,1.58,1.58,0,0,0-1.34-2.26Zm3.07,4.06a40.29,40.29,0,0,0-2.93,5.41,41.56,41.56,0,0,0-3.17,13.77c0,1.64-.2,3.26-.25,4.91a25.67,25.67,0,0,1-3,10.65,38.83,38.83,0,0,1-3.52,5.1,46.51,46.51,0,0,1-4,5.23,60.54,60.54,0,0,1-10.37,9.35c-.61.54-1.66.92-1.59,1.91a1.66,1.66,0,0,0,1.8,1.77c.63-.11,1.06-.64,1.61-.94a66.37,66.37,0,0,0,7.09-5.66,48.66,48.66,0,0,0,5.59-6.24c1.75-2,3.14-4.3,4.73-6.44a30.36,30.36,0,0,0,2.63-4.55,28.32,28.32,0,0,0,2.07-8.15,70.28,70.28,0,0,0,.56-7.67c.55-5.13,1.54-10.39,4.33-14.84a12,12,0,0,0,1.58-2.82A3.31,3.31,0,0,0,1580,247a1.77,1.77,0,0,0-1.93-.24,3.56,3.56,0,0,0-.73.72Zm42.46,7.07a16.44,16.44,0,0,0-9.41-6.39,19.71,19.71,0,0,0-9.31.5c-.84.24-1.75.79-1.83,1.75a1.71,1.71,0,0,0,2.37,1.83,14.56,14.56,0,0,1,5.6-1.23,12.16,12.16,0,0,1,11.1,7.35,16.1,16.1,0,0,1,1.45,7.77c.37.29.67.74,1.18.78a1.7,1.7,0,0,0,2-1.62,18.22,18.22,0,0,0-3.17-10.74Zm-25.49.11a14.8,14.8,0,0,0-1.58,5.56c-.2,2.55.08,5.12-.31,7.65a29.41,29.41,0,0,1-5.77,15.12c-.86,1.1.3,3,1.69,2.44a9.46,9.46,0,0,0,3-3.51,36,36,0,0,0,3.31-8.75,29.36,29.36,0,0,0,1.15-7.9,44.24,44.24,0,0,1,.3-6.91,8.89,8.89,0,0,1,1.53-2.88,1.71,1.71,0,0,0-1.73-2.44,3.16,3.16,0,0,0-1.64,1.62Zm62,1.32c.26,1.93.43,3.86.61,5.79.05,3,.05,6.05,0,9.08a1.6,1.6,0,0,0,1.43,1.34,1.88,1.88,0,0,0,1.83-1.8c.05-5.24.27-10.55-.71-15.73a1.69,1.69,0,0,0-1.95-.91,1.83,1.83,0,0,0-1.19,2.23Zm-43.9-.27a9,9,0,0,0-6.58-1.19,9.7,9.7,0,0,0-3.86,1.77,9.39,9.39,0,0,0-3.2,6.88,51.71,51.71,0,0,1-.48,8.05,68.81,68.81,0,0,1-1.78,7.71,40,40,0,0,1-2.18,5.92,37,37,0,0,1-3.24,5.59c-1.51,2-3.26,3.84-4.81,5.85a143.87,143.87,0,0,1-12.62,13.16,55.89,55.89,0,0,1-6,4.92c-.78.86-2.1,1.28-2.42,2.49a2,2,0,0,0,.36,1.62c.42.59,1.25.48,1.87.39,1.18-.93,2.28-1.93,3.49-2.82,3-2.25,5.72-4.8,8.47-7.32,3-3,5.85-6.23,8.7-9.41,1.42-1.82,2.76-3.71,4.3-5.43a21,21,0,0,0,3.94-5.6,37.24,37.24,0,0,0,2.53-6.29,44.88,44.88,0,0,0,2.9-13c.11-2,0-4,.08-6.05a5.78,5.78,0,0,1,5.34-5.4,5.45,5.45,0,0,1,5.25,2.95c1,1.81.82,4,.83,6a64.6,64.6,0,0,1-.41,8,1.42,1.42,0,0,0,1,1.61,1.68,1.68,0,0,0,2.18-.81c.9-2.82.42-11.82.42-11.82C1616.19,260.47,1615,257.3,1612.34,255.72Zm-57.77.82a24.75,24.75,0,0,1-1.86,6.94,21,21,0,0,1-3.68,4.91,41.21,41.21,0,0,1-7.09,6.15c-1,.88-2.3,1.37-3.35,2.21a1.7,1.7,0,0,0,2.3,2.5c1.84-1.09,3.48-2.54,5.27-3.76,1.18-1,2.42-1.89,3.52-3a30.49,30.49,0,0,0,5.73-7,25.69,25.69,0,0,0,2.24-9.05,1.56,1.56,0,0,0-3.08.1Zm51,6.21a51.85,51.85,0,0,1-.25,6.71,49.14,49.14,0,0,1-1,6,58,58,0,0,1-5.1,14.4,2,2,0,0,0-.29,1.53,1.56,1.56,0,0,0,2.44,1,7.73,7.73,0,0,0,1.64-2.78,71.62,71.62,0,0,0,5.73-20.41c.08-2.09.07-4.19,0-6.28a1.62,1.62,0,0,0-2-1.54,1.76,1.76,0,0,0-1.26,1.33Zm38.75,2.77c-.15,2.09-.11,4.18-.23,6.26a69,69,0,0,1-1.75,11,1.6,1.6,0,0,0,2.5,1.39c.88-.74,1-2,1.21-3a72.93,72.93,0,0,0,1.5-15.59,1.74,1.74,0,0,0-2.21-1.12c-.48.18-1,.54-1,1.12Zm-65.23,1.75a1.6,1.6,0,0,0-2.07,1.26c-.12,4.45.34,9-.84,13.32a31.12,31.12,0,0,1-5.53,9.58,76.34,76.34,0,0,1-5.24,6.11c-1.34,1.13-2.49,2.47-3.84,3.6a2.7,2.7,0,0,0-1.07,2,1.38,1.38,0,0,0,2,1.29,11.45,11.45,0,0,0,2-1.51,51.42,51.42,0,0,0,5.85-5.77s6-7.45,8.28-12.12a18.5,18.5,0,0,0,1.55-7.41c.14-2.79,0-5.59.1-8.39a1.82,1.82,0,0,0-1.17-1.93Zm40.65,4.27a40.54,40.54,0,0,1-1.42,10.2,71.47,71.47,0,0,1-10.95,23,65.32,65.32,0,0,1-5.33,6.27,30.43,30.43,0,0,1-4.16,4.18c-3.17,3-6.58,5.69-10,8.36-.79.59-1.75,1.16-2.07,2.15s.51,2.36,1.63,2.09,1.61-1.21,2.47-1.74c5.64-4.25,11.21-8.71,15.83-14.1a61.17,61.17,0,0,0,8.43-11.77c.75-1.54,1.7-3,2.42-4.54a73.94,73.94,0,0,0,3.73-9,53.69,53.69,0,0,0,2.66-15,1.6,1.6,0,0,0-1.8-1.58,1.77,1.77,0,0,0-1.45,1.6Zm12.53,3.52a68.16,68.16,0,0,1-9.76,31.55,81.31,81.31,0,0,1-7.17,9.76c-1.42,1.6-3,3.06-4.43,4.62-2,1.82-4,3.62-6.05,5.31a2.16,2.16,0,0,0-1.25,2.66,1.62,1.62,0,0,0,2.55.48,34.54,34.54,0,0,0,2.79-2.31,26.91,26.91,0,0,0,2.79-2.33,53,53,0,0,0,4.81-4.9,64.36,64.36,0,0,0,5.21-6.19,70.37,70.37,0,0,0,6.5-10.67,67.59,67.59,0,0,0,5.42-15,72.05,72.05,0,0,0,1.83-13,1.57,1.57,0,0,0-2.23-1.37,1.85,1.85,0,0,0-1,1.4Zm22.88,4.61a36.44,36.44,0,0,1-.89,4.59,86.85,86.85,0,0,1-9.21,22.62,43.1,43.1,0,0,1-5.29,7.49c-.46.7-1.11,1.64-.56,2.47a1.64,1.64,0,0,0,2.74.19,71.27,71.27,0,0,0,7.09-10.55,75.07,75.07,0,0,0,4.32-9.11,82.57,82.57,0,0,0,5.21-18.23,1.72,1.72,0,0,0-2.31-1.89c-.91.44-1,1.56-1.12,2.45Zm-44.69.73a21.71,21.71,0,0,1-1,4.3,53.71,53.71,0,0,1-5.65,12.7c-.5.81-1.2,1.64-1,2.66a1.61,1.61,0,0,0,2.48.92,7.43,7.43,0,0,0,1.77-2.66,62.83,62.83,0,0,0,3.57-7.1,62.08,62.08,0,0,0,2.12-6.25,31.12,31.12,0,0,0,1-3.92,1.73,1.73,0,0,0-2.22-1.72,1.21,1.21,0,0,0-1,1.09Zm50.92,1a59.63,59.63,0,0,1-4.64,13.94,12.4,12.4,0,0,0-1.3,2.91,1.45,1.45,0,0,0,.87,1.69,1.77,1.77,0,0,0,2.27-.92,86,86,0,0,0,3.74-8.78c1-2.87,1.72-5.8,2.41-8.75.31-1.14-.75-2.53-2-2.16-.94.21-1.25,1.23-1.39,2.05Zm-38.11,7.38a57.63,57.63,0,0,1-2.47,8,1.51,1.51,0,0,0,1.87,2c1-.22,1.33-1.27,1.67-2.1a70.91,70.91,0,0,0,2.29-7.7,1.64,1.64,0,0,0-2.23-1.78,1.83,1.83,0,0,0-1.16,1.63Zm-40.08.09c-2,2.07-3.7,4.35-5.51,6.56-1.21,1.57-2.63,2.95-3.89,4.48a75.3,75.3,0,0,1-13.32,10.6c-.86.79-2.4,1-2.64,2.35a1.66,1.66,0,0,0,2.37,1.8c2.37-1.65,4.94-3,7.19-4.87a81.28,81.28,0,0,0,11.13-10c1.16-1.46,2.36-2.9,3.52-4.38.59-.94,1.47-1.64,2.07-2.56a14.26,14.26,0,0,1,1.74-2,2.34,2.34,0,0,0,.56-2.75,1.68,1.68,0,0,0-1.91-.47,4,4,0,0,0-1.34,1.23Zm53.62,3.27a52.22,52.22,0,0,1-3.2,8.17,92.75,92.75,0,0,1-7.15,12.11c-1,1.69-2.39,3.17-3.6,4.75a67.86,67.86,0,0,1-8.43,8.52,2.07,2.07,0,0,0-.49,2.23,1.68,1.68,0,0,0,1.56.95c1.21-.47,2-1.57,3-2.35.94-1,2-1.84,2.9-2.89a62,62,0,0,0,6.25-7.2A63.14,63.14,0,0,0,1632,310a72.65,72.65,0,0,0,5.24-9.86,50.37,50.37,0,0,0,3.52-9.91c.34-1.26-1.27-2.28-2.37-1.72-1.31.7-1.2,2.34-1.56,3.59Zm-43.2,6.69c-1.88,2.15-3.73,4.3-5.66,6.42-2.26,2.31-4.59,4.55-7.07,6.63-1.88,1.78-4,3.26-6,4.92-1.13.8-2.18,1.72-3.38,2.44a2.17,2.17,0,0,0-1,2,1.52,1.52,0,0,0,2,1.4,84.08,84.08,0,0,0,8.84-6.77,104.45,104.45,0,0,0,9.73-9.08c1.1-1.29,2.2-2.58,3.35-3.84a28.26,28.26,0,0,1,3.27-3.48c.33-.6,1-1.32.6-2.05a1.69,1.69,0,0,0-1.72-.89,5.57,5.57,0,0,0-3,2.32Zm2.82,7.23c-2.2,2.15-4.1,4.59-6.44,6.58-.92.69-1.62,1.63-2.56,2.31a102.94,102.94,0,0,1-9.45,7.5,1.91,1.91,0,0,0-.21,3.11c1.18.51,2.25-.46,3.11-1.13a86.87,86.87,0,0,0,9.75-7.89c3.06-2.74,5.81-5.78,8.67-8.73.55-.62,1.51-1.14,1.38-2.12a1.7,1.7,0,0,0-2.28-1.37,9.21,9.21,0,0,0-2,1.76Zm17.68,1.42a72.06,72.06,0,0,1-10.34,11.25,67.94,67.94,0,0,1-6.74,5.8,2,2,0,0,0-.35,3,1.76,1.76,0,0,0,2.19-.24c2.43-2,4.81-4,7.15-6.09,2-1.73,3.76-3.68,5.62-5.53,1.18-1.38,2.42-2.69,3.49-4.17a10.23,10.23,0,0,0,1.15-1.39c.36-.76,1.15-1.22,1.53-2a1.68,1.68,0,0,0-.11-2.12,1.58,1.58,0,0,0-1.37-.49c-1.07.12-1.66,1.13-2.22,1.92Z"/></g></g><g id="aa765c65-dadc-4802-a82e-428decd2fcd8"><g id="ae7a2d40-d59c-416b-bf2c-073705d9537c"><path d="M137.64,350.7q0,6.21-2.12,9.22t-6.63,3q-4.45,0-6.58-2.95c-1.43-2-2.16-4.9-2.21-8.81v-4.72c0-4.09.71-7.12,2.12-9.11s3.63-3,6.63-3,5.2,1,6.61,2.87,2.14,4.88,2.18,8.88Zm-3.54-4.83q0-4.49-1.26-6.54a4.34,4.34,0,0,0-4-2.06,4.27,4.27,0,0,0-3.95,2.05c-.82,1.36-1.24,3.45-1.28,6.28v5.65q0,4.51,1.32,6.66a4.72,4.72,0,0,0,7.84.12c.85-1.35,1.29-3.47,1.32-6.38Zm64-3.86a6.44,6.44,0,0,1-1.09,3.7,7.37,7.37,0,0,1-3,2.54,8,8,0,0,1,3.44,2.74,6.82,6.82,0,0,1,1.27,4.06,7.28,7.28,0,0,1-2.43,5.75,10.68,10.68,0,0,1-12.84,0,7.3,7.3,0,0,1-2.41-5.74,7.07,7.07,0,0,1,1.23-4.06,7.64,7.64,0,0,1,3.41-2.75,7.3,7.3,0,0,1-2.92-2.54,6.62,6.62,0,0,1-1.07-3.69,7.21,7.21,0,0,1,2.25-5.58,9.58,9.58,0,0,1,11.87,0,7.18,7.18,0,0,1,2.26,5.58Zm-2.88,13a5.12,5.12,0,0,0-1.48-3.8,5.26,5.26,0,0,0-3.87-1.47,5,5,0,0,0-5.27,5.27,4.94,4.94,0,0,0,1.4,3.72,6.27,6.27,0,0,0,7.81,0,4.91,4.91,0,0,0,1.41-3.71ZM190,337.27a4.55,4.55,0,0,0-3.37,1.29,5.34,5.34,0,0,0,0,6.94,5.07,5.07,0,0,0,6.78,0,5.23,5.23,0,0,0-.05-6.89,4.5,4.5,0,0,0-3.34-1.34Zm57.55,9.67h2.65a5.85,5.85,0,0,0,3.93-1.32,4.4,4.4,0,0,0,1.44-3.46q0-4.89-4.87-4.89a5.08,5.08,0,0,0-3.66,1.31,4.59,4.59,0,0,0-1.37,3.47h-3.53a7.08,7.08,0,0,1,2.42-5.49,9.94,9.94,0,0,1,12.31-.11,7.53,7.53,0,0,1,2.23,5.79,6.1,6.1,0,0,1-1.17,3.51,7.15,7.15,0,0,1-3.2,2.54,6.85,6.85,0,0,1,3.54,2.41,6.71,6.71,0,0,1,1.25,4.11,7.6,7.6,0,0,1-2.44,5.94,9.17,9.17,0,0,1-6.36,2.19,9.4,9.4,0,0,1-6.37-2.12,7,7,0,0,1-2.46-5.59h3.55a4.53,4.53,0,0,0,1.44,3.51,5.43,5.43,0,0,0,3.84,1.32,5.33,5.33,0,0,0,3.91-1.34,5.13,5.13,0,0,0,1.36-3.84,4.69,4.69,0,0,0-1.49-3.72,6.5,6.5,0,0,0-4.3-1.34H247.5ZM320.3,342a6.45,6.45,0,0,1-1.1,3.7,7.37,7.37,0,0,1-3,2.54,8,8,0,0,1,3.45,2.74,6.82,6.82,0,0,1,1.27,4.06,7.25,7.25,0,0,1-2.44,5.75,10.67,10.67,0,0,1-12.83,0,7.31,7.31,0,0,1-2.42-5.74A7,7,0,0,1,304.5,351a7.64,7.64,0,0,1,3.41-2.75A7.27,7.27,0,0,1,305,345.7a6.62,6.62,0,0,1-1.07-3.69,7.18,7.18,0,0,1,2.26-5.58,9.58,9.58,0,0,1,11.87,0A7.18,7.18,0,0,1,320.3,342Zm-2.88,13a5.12,5.12,0,0,0-1.48-3.8,5.26,5.26,0,0,0-3.87-1.47A5,5,0,0,0,306.8,355a4.94,4.94,0,0,0,1.4,3.72,6.25,6.25,0,0,0,7.8,0,4.88,4.88,0,0,0,1.42-3.71Zm-5.31-17.71a4.55,4.55,0,0,0-3.37,1.29,5.34,5.34,0,0,0,0,6.94,5.07,5.07,0,0,0,6.78,0,5.23,5.23,0,0,0-.05-6.89,4.5,4.5,0,0,0-3.34-1.34Zm54,11.35,1.41-13.87H381.8V338H370.55l-.84,7.58a9,9,0,0,1,4.64-1.2,7.7,7.7,0,0,1,6,2.51,9.84,9.84,0,0,1,2.23,6.79,9.48,9.48,0,0,1-2.32,6.77,8.46,8.46,0,0,1-6.48,2.47,8.8,8.8,0,0,1-6-2,8.21,8.21,0,0,1-2.66-5.65h3.35a5.57,5.57,0,0,0,1.7,3.6,5.26,5.26,0,0,0,3.63,1.21,4.75,4.75,0,0,0,3.86-1.68,7,7,0,0,0,1.41-4.64,6.47,6.47,0,0,0-1.52-4.48,5.15,5.15,0,0,0-4-1.69,5.86,5.86,0,0,0-3.63,1l-.94.76ZM443,350.7q0,6.21-2.12,9.22t-6.63,3c-3,0-5.16-1-6.59-2.95s-2.16-4.9-2.21-8.81v-4.72c0-4.09.71-7.12,2.12-9.11s3.63-3,6.64-3,5.2,1,6.61,2.87,2.14,4.88,2.18,8.88Zm-3.53-4.83q0-4.49-1.26-6.54a4.34,4.34,0,0,0-4-2.06,4.27,4.27,0,0,0-3.95,2.05c-.83,1.36-1.25,3.45-1.28,6.28v5.65q0,4.51,1.31,6.66a4.33,4.33,0,0,0,4,2.15,4.28,4.28,0,0,0,3.89-2c.85-1.35,1.29-3.47,1.33-6.38Zm48.79,2.75,1.42-13.87H504V338H492.71l-.84,7.58a9,9,0,0,1,4.64-1.2,7.68,7.68,0,0,1,6,2.51,9.84,9.84,0,0,1,2.24,6.79,9.48,9.48,0,0,1-2.32,6.77,8.46,8.46,0,0,1-6.49,2.47,8.79,8.79,0,0,1-6-2,8.21,8.21,0,0,1-2.66-5.65h3.34a5.67,5.67,0,0,0,1.7,3.6,5.29,5.29,0,0,0,3.63,1.21,4.76,4.76,0,0,0,3.87-1.68,7.06,7.06,0,0,0,1.4-4.64,6.46,6.46,0,0,0-1.51-4.48,5.15,5.15,0,0,0-4-1.69,5.86,5.86,0,0,0-3.63,1l-.94.76Zm71.07,13.94h-3.55V339l-7.12,2.62v-3.21l10.12-3.8h.55Zm67.42-25.82-11.52,25.82h-3.7L623,337.65H608v-2.9h18.79Zm57-2v3h-.65a9.3,9.3,0,0,0-6.57,2.45,10.1,10.1,0,0,0-2.82,6.66,7.53,7.53,0,0,1,6-2.52,7.21,7.21,0,0,1,5.8,2.56,11.2,11.2,0,0,1-.17,13.48,8.06,8.06,0,0,1-6.28,2.58,7.93,7.93,0,0,1-6.47-3.06,12.2,12.2,0,0,1-2.48-7.9v-1.36q0-7.67,3.27-11.73t9.75-4.16Zm-4.64,12.53a5.61,5.61,0,0,0-3.34,1.09,5.68,5.68,0,0,0-2.12,2.73v1.3a9.14,9.14,0,0,0,1.55,5.54,4.62,4.62,0,0,0,3.85,2.1,4.51,4.51,0,0,0,3.76-1.76,8.46,8.46,0,0,0,0-9.23A4.45,4.45,0,0,0,679.12,347.26Z"/></g></g><g id="a85c55e0-1e0c-4c78-9d69-a8f31fd5311b"><g id="a85c55e0-1e0c-4c78-9d69-a8f31fd5311b-child-0"><path d="M0,125.34H17.55V314.81H0ZM28.28,314.81H38V125.34H28.28Zm16.77,0H55V125.34h-10Zm22.82,0H89.52V125.34H67.87Zm38.81,0H117.4V125.34H106.68Zm27.5,0h44.66V125.34H134.18Zm116.23,0H265V125.34H250.41Zm27.5-189.47V314.81H297.8V125.34ZM196.58,314.81h9.75V125.34h-9.75Zm23.4,0h9.56V125.34H220Z"/></g></g><g id="f81af4de-61d9-453e-b2d6-97af94e71357"><g id="f81af4de-61d9-453e-b2d6-97af94e71357-child-0"><path d="M251.35,124.7H268.9V314.17H251.35Zm28.28,189.47h9.75V124.7h-9.75Zm16.77,0h10V124.7h-10Zm22.82,0h21.65V124.7H319.22Zm38.81,0h10.72V124.7H358Zm27.5,0h44.66V124.7H385.53Zm116.23,0h14.63V124.7H501.76Zm27.5-189.47V314.17h19.89V124.7ZM447.93,314.17h9.75V124.7h-9.75Zm23.41,0h9.55V124.7h-9.55Z"/></g></g><g id="_60d1303f-5390-46e3-a070-ef8bc630bb20" data-name="60d1303f-5390-46e3-a070-ef8bc630bb20"><g id="_60d1303f-5390-46e3-a070-ef8bc630bb20-child-0" data-name="60d1303f-5390-46e3-a070-ef8bc630bb20-child-0"><path d="M834.24,124.7H816.69V314.17h17.55ZM806,314.17h-9.75V124.7H806Zm-16.78,0h-9.94V124.7h9.94Zm-22.81,0H744.73V124.7h21.65Zm-38.81,0H716.84V124.7h10.73Zm-27.5,0H655.41V124.7h44.66Zm-116.23,0H569.21V124.7h14.63ZM556.34,124.7V314.17H536.45V124.7Zm81.32,189.47h-9.75V124.7h9.75Zm-23.4,0H604.7V124.7h9.56Z"/></g></g><g id="b56a85ab-6700-41a4-abb6-5b9279c3db06"><g id="b56a85ab-6700-41a4-abb6-5b9279c3db06-child-0"><path class="cls-2" d="M1004.49,396.9V67.82h329.09V396.9Z"/></g></g><g id="_0c6a23bf-a20b-4db9-8581-84a83b768b16" data-name="0c6a23bf-a20b-4db9-8581-84a83b768b16"><g id="clippath"><rect class="cls-3" x="1004.49" y="67.82" width="329.09" height="329.09"/></g></g><g id="_9b3a472f-7d03-4821-9c63-5fe6854c6273" data-name="9b3a472f-7d03-4821-9c63-5fe6854c6273"><g id="_9b3a472f-7d03-4821-9c63-5fe6854c6273-child-0" data-name="9b3a472f-7d03-4821-9c63-5fe6854c6273-child-0"><path class="cls-3" d="M3388.4,442.84c0,241.63-195.85,437.41-437.41,437.41S2513.58,684.4,2513.58,442.84,2709.5,5.44,2951,5.44,3388.4,201.35,3388.4,442.84Z"/></g><g id="_9b3a472f-7d03-4821-9c63-5fe6854c6273-child-1" data-name="9b3a472f-7d03-4821-9c63-5fe6854c6273-child-1"><path d="M2951,0c-224.1,0-409.75,167.37-438.77,383.67l-.13.33h0a442,442,0,0,0-3.94,58.84c0,244.18,198.65,442.83,442.84,442.83S3393.81,687,3393.81,442.84,3195.17,0,2951,0ZM2564.24,635c-.18-.43-.38-.83-.54-1.23a239.45,239.45,0,0,0,27.23,33c1.45,6.56,3.11,13.09,4.85,19.6-3.42-4.11-6.71-8.32-9.69-12.62A435.69,435.69,0,0,1,2564.24,635Zm818.84-192.12c0,3.43-.18,6.83-.27,10.25-.56-3.33-1.14-6.71-1.82-10,.72-3.28,1.28-6.6,1.84-9.91,0,3.2.09,6.4.09,9.62Zm-5,65.51A263.85,263.85,0,0,1,3344,574a165,165,0,0,0-2.23-16.38c-1.34-7-2.82-13.8-4.48-20.6a259.94,259.94,0,0,0,41-83.54c1.32,7.47,2.44,15,3.25,22.66-.92,10.85-2,21.64-3.6,32.24ZM3339,614.08a348.85,348.85,0,0,1-54.21,60.41q-1.85-14-4.19-27.61a376.58,376.58,0,0,0,59.81-62.13,186.81,186.81,0,0,1-1.53,29.33Zm-6,30.25-.45.87a321.13,321.13,0,0,1-46.13,55.06,139.68,139.68,0,0,0-1.12-21.43,357.15,357.15,0,0,0,52.64-57.25C3336.67,629.1,3335,636.68,3332.94,644.33ZM3343.27,614c4.23-6.22,8.24-12.46,11.88-18.79-4.27,11.19-9,22.37-14.07,33.09q1.35-7.23,2.19-14.32Zm5.06-333.73a197.88,197.88,0,0,1-1,70.29,344,344,0,0,0-20.29-33,179.17,179.17,0,0,0,2.23-69.36,173.48,173.48,0,0,0-5.86-24,427.7,427.7,0,0,1,22.49,43.68c.87,4.13,1.79,8.27,2.48,12.46ZM3281.7,704.87a438.67,438.67,0,0,1-87.25,62.38,262.65,262.65,0,0,0,.34-26.47A475.82,475.82,0,0,0,3276,686.84c1.82-1.48,3.5-3,5.24-4.47a125.09,125.09,0,0,1,.51,22.48Zm-59.08,73.54c-9.24,7.5-18.79,14.66-28.64,21.39-2.24,1.39-4.32,2.82-6.51,4.18a69.9,69.9,0,0,0,2.24-7.16,444.24,444.24,0,0,0,39.89-24.61c-2.26,2-4.59,4.12-7,6.18Zm-41.41,29.24a438.4,438.4,0,0,1-83,37.88c-.38-3.18-.74-6.35-1.12-9.53a506,506,0,0,0,87-36.18A81,81,0,0,1,3181.21,807.65Zm-84.48,25.15c-.83-6.6-1.66-13.2-2.53-19.76a547.56,547.56,0,0,0,95.26-39.39,137,137,0,0,1-4,21.88,503.81,503.81,0,0,1-88.77,37.29ZM2763.2,830c4.47,1.82,9.24,3.54,14,5.22l-.56,1.07C2772.15,834.37,2767.67,832.26,2763.2,830ZM2585,583.93a323.87,323.87,0,0,0,61.91,46.35c0,13.43.63,26.85,1.7,40.68a302,302,0,0,1-60-44.24A387.12,387.12,0,0,1,2585,583.93Zm-53.13-231.72q7.65-14.76,16.6-28.72c.38,5.16.89,10.31,1.74,15.41a164.69,164.69,0,0,0,8.77,32.06,334.1,334.1,0,0,0-17.71,37.74,170,170,0,0,1-7.19-27.83A175.22,175.22,0,0,1,2531.82,352.21Zm.8-17.18a426.28,426.28,0,0,1,18.53-55.37A170.86,170.86,0,0,0,2548,316c-5.64,8.61-10.94,17.49-15.95,26.55C2532.24,340.06,2532.38,337.54,2532.62,335Zm54.46-117.81a235.47,235.47,0,0,1,24-21.66,141.23,141.23,0,0,0-6.71,52.08,409.18,409.18,0,0,0-28,30.34A161.46,161.46,0,0,1,2587.08,217.22ZM2707.26,86.38a222.57,222.57,0,0,0-36.53,39.2q-12,4.63-23.33,10.31h0A435.21,435.21,0,0,1,2707.26,86.38Zm477.26,595.74c1.14,7.54,2.12,14.74,2.93,21.72a594.54,594.54,0,0,1-103.3,40.9q-3.2-19.66-6.71-39a603.92,603.92,0,0,0,103.92-41.1C3182.55,670.53,3183.65,676.44,3184.52,682.12ZM2650.75,169.81a336.17,336.17,0,0,1,36.58-17,104.1,104.1,0,0,0-2.44,32.68,458.41,458.41,0,0,0-40.27,27.3A119.4,119.4,0,0,1,2650.75,169.81ZM3118.12,62.87a297,297,0,0,0-32.27-.74,153.61,153.61,0,0,0-29.28-22.73,173.71,173.71,0,0,1,21.59-1.95A198,198,0,0,1,3118.12,62.87ZM2976.21,788.81c1.16,4.75,2.23,9.38,3.46,13.92a604.19,604.19,0,0,1-111.7,2.55c-1.41-4.72-2.73-9.49-3.81-14.41q-1.9-8.72-3.69-17.43,20,1.35,40.5,1.37a649.3,649.3,0,0,0,71.08-4.1C2973.5,777.09,2974.84,783.15,2976.21,788.81Zm-116.34-18.88q-3.9-19.27-7-38.59c13,.85,26.18,1.32,39.56,1.32a646.74,646.74,0,0,0,71.21-4.12q3.88,20.94,7.67,38.84a626.93,626.93,0,0,1-111.46,2.55Zm-113.7-201.84A511.73,511.73,0,0,0,2833,581.51q1.14,26.26,3.4,52.91a513.67,513.67,0,0,1-89.69-14.7q-1.27-25.77-.61-51.63Zm-55.8-416.49a417.07,417.07,0,0,1,43.85-14.16,81.19,81.19,0,0,0-2.57,23.33,484.44,484.44,0,0,0-44.1,23.16A103.49,103.49,0,0,1,2690.37,151.6ZM2946.47,11a69.14,69.14,0,0,0-6.89,7.43c-2.23,2.78-4.47,6-6.84,9.53a241.93,241.93,0,0,0-35.91,1,53.53,53.53,0,0,1,3-15A428.83,428.83,0,0,1,2946.47,11ZM2922,30.38c3,0,6,.14,8.95.25-3.58,5.73-7.27,12.35-11,19.78a162,162,0,0,0-24.23.49c.14-7.32.43-13.72.85-19.13A245.8,245.8,0,0,1,2922,30.38ZM3163.85,182q-22.89-11.43-47.43-21.1a105.23,105.23,0,0,0,2-31.86q23.7,5.28,46.54,12.33A115.11,115.11,0,0,1,3163.85,182Zm-327,289.59c10.23.65,20.59,1,31.1,1a512.44,512.44,0,0,0,56.74-3.29c2.24,17.9,4.47,35.79,6.85,53.38a545.73,545.73,0,0,1-95.56,2.24C2835.91,506.94,2836.2,489.11,2836.82,471.57Zm-99.55-334.94q23.08-6,48-9.78a52.52,52.52,0,0,0-1.1,13.11,524.68,524.68,0,0,0-49.87,19.6A79.33,79.33,0,0,1,2737.27,136.63ZM2813,87.41c1.21.31,2.35.58,3.56.94,10.51,3,21.2,6.71,32,10.76a44.25,44.25,0,0,0-7.07,8.55q-22.36-2.58-43.94-2.91A92.17,92.17,0,0,1,2813,87.37Zm241.62,2.24a508.5,508.5,0,0,0-52,2.84,59.52,59.52,0,0,0-8.27-11.95,434.44,434.44,0,0,1,45.35-9.73,89.26,89.26,0,0,1,14.85,18.88ZM3114,159.87q-23.28-8.94-47.78-16.28a78.93,78.93,0,0,0,1.18-23.85c16.33,2.24,32.51,5.12,48.42,8.59a102.22,102.22,0,0,1-1.93,31.59ZM2952.87,462.69c-8.19,1.36-16.33,2.46-24.43,3.44q-3.24-26.83-6.29-53.8,10.74-1.27,21.59-3.07A467.43,467.43,0,0,0,2999,396.55q7.78,25.31,15.39,52a525.06,525.06,0,0,1-61.64,14.2Zm62.29-11.57q7.2,25.44,14.14,52.09a568.88,568.88,0,0,1-66,15.07c-9.33,1.57-18.57,2.8-27.79,3.87-2.24-17.62-4.47-35.43-6.71-53.31,8.16-1,16.33-2.1,24.61-3.47a524.46,524.46,0,0,0,61.66-14.2ZM2943.3,406.6c-7.19,1.19-14.32,2.24-21.46,3-2-17.9-3.91-35.8-5.73-53.34,5.93-.73,11.91-1.56,17.9-2.57a406.1,406.1,0,0,0,47.79-11q8.25,24.83,16.42,51.21a469.76,469.76,0,0,1-55,12.69Zm62.64-296.73c-19-.8-38-.78-57.05,0V109a24.27,24.27,0,0,0-.87-3.58c18.28-3.49,36.46-6,54.5-7.58a48.7,48.7,0,0,1,3.44,11.32h0a.82.82,0,0,0-.2.76Zm-.76,18.75c-18.68-3.67-37.7-6.51-56.92-8.61a27.39,27.39,0,0,0,.81-5.71c19.1-.85,38.23-.87,57.27,0a51.45,51.45,0,0,1-1.34,14.37Zm-54.52,115.6q-9.45-24.76-18.59-47.21a153.13,153.13,0,0,0,23.06-9.39q15.52,19.8,31.19,42.19a229.13,229.13,0,0,1-35.84,14.45Zm37.22-12.17q13.23,19,26.45,39.87a290.33,290.33,0,0,1-46.74,18.92q-8.12-22.77-16.15-44a232.93,232.93,0,0,0,36.27-14.77Zm-93.65-75.75c1,14.31,1.9,29.39,3.2,45a157.52,157.52,0,0,1-24.38.47q5.72-23.68,11.92-45A81.7,81.7,0,0,0,2894.23,156.3Zm4.86-.65a85.83,85.83,0,0,0,9.77-2.24q8.82,19.77,18.17,42.24a166.89,166.89,0,0,1-18.41,4.2c-2.24.36-4.34.59-6.51.88C2900.94,185,2899.94,170,2899.09,155.65Zm10,47a162.62,162.62,0,0,0,19-4.48q9.24,22.38,18.79,47.17a251.55,251.55,0,0,1-29.08,6.71c-3.87.65-7.7,1.07-11.55,1.54-1.45-17.27-2.79-34-4-50.16,2.33-.31,4.57-.51,6.83-.89Zm21.79-8q-9.22-22.37-18-42.51a74.23,74.23,0,0,0,9.19-3.89q15.43,17.32,31.32,37.23A148.46,148.46,0,0,1,2930.86,194.64Zm-5-48.39a64.73,64.73,0,0,0,7.1-4.77q21.9,13.43,43.64,29.25a126.2,126.2,0,0,1-19.35,12.73q-15.77-20-31.39-37.32Zm10.61-7.76a45.54,45.54,0,0,0,4.2-4.48q19.47,6.24,39.11,14.07,6.72,2.65,13.42,5.55a93.2,93.2,0,0,1-10.71,11.93c-.78.71-1.66,1.38-2.49,2.1q-21.6-15.81-43.53-29.29Zm-55.93,18.25q-6.12,21.28-11.82,44.88a135.75,135.75,0,0,1-22.84-3.78c7.92-14.74,16.11-28.93,24.61-42.39a73.57,73.57,0,0,0,10,1.16ZM2868,204.35c-3.82,16-7.45,32.8-10.85,50.23a204.27,204.27,0,0,1-36.15-6.36q11.19-24.83,23.49-47.94a139.55,139.55,0,0,0,23.49,4Zm4.28.31c3,.18,6.08.3,9.19.3,5.28,0,10.65-.34,16-.88,1.23,16.16,2.62,32.94,4.14,50.19a237.52,237.52,0,0,1-40.27.6q5.1-26.31,10.88-50.32Zm4.7,53.59q12.48,0,24.9-1.32c1.36,15.17,2.79,30.71,4.34,46.51a305.45,305.45,0,0,1-53.5,1.07q3.77-24.15,8.17-47c5.19.36,10.63.61,16.06.61Zm29.55-1.81c3.92-.47,7.83-1,11.75-1.66a247.24,247.24,0,0,0,29.53-6.71q8.07,21.09,16.26,43.94a325.27,325.27,0,0,1-38.48,8.95c-5,.82-9.93,1.5-14.88,2.08-1.5-16-2.9-31.57-4.2-46.72Zm19.51,47a323.47,323.47,0,0,0,38.95-8.95q7.92,22.14,15.84,45.84a412.14,412.14,0,0,1-47.36,10.87c-5.95,1-11.86,1.79-17.74,2.51-1.66-16.24-3.25-32.31-4.75-48.1,5-.67,10-1.32,15-2.22Zm42.51-10a294.05,294.05,0,0,0,47.11-19.08c2.11,3.29,4.19,6.58,6.27,9.93,6.71,10.68,13.06,21.55,19.42,32.49a365.56,365.56,0,0,1-57,22.55q-7.93-23.68-15.86-45.93Zm57-11.49-6.08-9.71A241.78,241.78,0,0,0,3062,243.68c12.08,12,23.87,24.39,35.23,37.25a300.7,300.7,0,0,1-52.15,33.74C3038.76,303.62,3032.27,292.66,3025.58,281.9Zm-7.54-12q-13.22-20.76-26.44-39.84a191.14,191.14,0,0,0,32.24-21.66q18.45,16,36.2,33.4A241.18,241.18,0,0,1,3018,269.88Zm-28-42.06q-15.66-22.37-31.12-42.17a125,125,0,0,0,19.91-13.43c14.52,10.7,28.86,22.24,43,34.37A190.39,190.39,0,0,1,2990,227.82Zm-7.81-58.48c.68-.61,1.41-1.16,2.09-1.79a94.43,94.43,0,0,0,11.43-12.87c16.89,7.32,34,15.67,51.19,25.11a140.51,140.51,0,0,1-21.77,23.94C3011.06,191.6,2996.74,180.05,2982.22,169.34Zm16-18.35a67.7,67.7,0,0,0,8.33-17.51q28.48,5.67,55.93,13.62a97.34,97.34,0,0,1-13,29.08C3032.27,166.74,3015.13,158.35,2998.24,151Zm-2.5-1.12c-4.81-2.05-9.62-4.07-14.39-6q-19-7.6-38-13.69a37.52,37.52,0,0,0,3.33-5.93c19.31,2.08,38.44,5,57.23,8.59a65.62,65.62,0,0,1-8.14,17Zm-158.31-20.33a26.38,26.38,0,0,0,1.81,5.19q-24.61,10.25-48.35,22.37a49.65,49.65,0,0,1-3.49-11.45c-.13-.7,0-1.41-.2-2.11q19-6.3,38.86-11.36C2829.82,131.28,2833.63,130.41,2837.43,129.54Zm3.22,7.67a32.2,32.2,0,0,0,3.4,4.48c-14.81,9.08-29.58,19-44.14,29.8a57.19,57.19,0,0,1-8-11.91Q2816.09,147.18,2840.65,137.21Zm6.71,7.68a43.29,43.29,0,0,0,7.56,5c-12.1,11.79-23.87,24.32-35.32,37.38a77.5,77.5,0,0,1-16.51-12.53c14.54-10.83,29.46-20.78,44.25-29.86Zm11.77,7a59.37,59.37,0,0,0,6.71,2.37c-8.39,13.42-16.51,27.52-24.36,42.17a113.2,113.2,0,0,1-13.87-5c-1.46-.65-2.75-1.41-4.14-2.11,11.59-13.08,23.44-25.61,35.64-37.4Zm-32.57,42a113.56,113.56,0,0,0,13.62,5.06q-12.1,23.06-23.29,47.9a174.76,174.76,0,0,1-20.74-7.56c-3.2-1.44-6.24-3-9.22-4.48q16.79-22.55,34.86-43.31C2823.31,192.25,2824.86,193.1,2826.56,193.88ZM2795,241.76a168.6,168.6,0,0,0,20.67,7.67c-6.53,14.66-12.78,29.74-18.62,45.17a221.87,221.87,0,0,1-29.35-10.8c-3.71-1.7-7.25-3.52-10.74-5.35q13.43-21.34,28.3-41.52C2788.37,238.63,2791.59,240.24,2795,241.76Zm24.92,9a207.08,207.08,0,0,0,36.73,6.58q-4.35,22.68-8.14,46.82a262,262,0,0,1-47.25-8.3q8.79-23.18,18.66-45.24Zm28.19,56.06q-3.64,23.85-6.71,48.91a332.76,332.76,0,0,1-57.68-9.13q7.65-24.6,16.51-48.17a265.13,265.13,0,0,0,47.88,8.33Zm4.25.32c6.87.47,13.8.8,20.83.8a319.84,319.84,0,0,0,33.33-1.85q2.24,23.76,4.9,48.12a386.71,386.71,0,0,1-65.71,1.79q3-25.12,6.65-48.93Zm15.79,52.26a398.34,398.34,0,0,0,43.56-2.51c1.88,17.66,3.87,35.49,5.91,53.36a449.61,449.61,0,0,1-77.39,2q2.13-27.35,5.17-53.58c7.5.38,15.08.62,22.75.62Zm117-17.47a366,366,0,0,0,57.54-22.76q13.56,23.38,26.22,47.34a429.52,429.52,0,0,1-67.36,26.65q-8.12-26.39-16.4-51.3Zm61.44-24.79A303.07,303.07,0,0,0,3099,283c11.19,12.7,22.8,26.84,34.52,42.17a352.24,352.24,0,0,1-60.76,39.26q-12.64-24-26.24-47.45Zm55.93-36.83c2.82-2.37,5.57-4.76,8.25-7.22a220.73,220.73,0,0,0,28.55-31.55q20.94,16.75,40.85,35.8A258.1,258.1,0,0,1,3137,322.55c-11.79-15.55-23.4-29.63-34.59-42.36Zm6.42-9.22c-2.66,2.44-5.42,4.84-8.21,7.19q-17.08-19.34-35.31-37.32c2-1.79,4-3.6,6-5.44a182.4,182.4,0,0,0,23.31-26.64q21.55,14.35,42.51,31A217.77,217.77,0,0,1,3108.85,271Zm-39.38-37.56c-2,1.88-4,3.71-6.08,5.53q-17.73-17.46-36.2-33.56a143.2,143.2,0,0,0,22.1-24.43q21.61,12,43.11,26.17a180.8,180.8,0,0,1-23,26.22Zm-17.69-55.93A99.75,99.75,0,0,0,3065.07,148q24.61,7.24,47.83,16.31a128,128,0,0,1-18.05,39.26c-14.28-9.42-28.68-18.17-43-26.15Zm11.65-34.61c-18.19-5.3-36.82-9.82-55.77-13.6a53.47,53.47,0,0,0,1.23-14.81q28,1.32,55.57,5a76.5,76.5,0,0,1-1.07,23.34Zm-55-32.91v-1.21a52.7,52.7,0,0,0-3.31-11.19q26.59-2.23,52.6-1.94a73.87,73.87,0,0,1,6.15,19.17Q3036.35,111.31,3008.49,110Zm-8.77-17.21q-27,3-53.69,8.64a28.45,28.45,0,0,0-2.67-4.12q24.29-9.34,47.95-15.86A57.59,57.59,0,0,1,2999.72,92.82ZM2940.32,94a33.63,33.63,0,0,0-4.74-4,407.36,407.36,0,0,1,37.85-22.37,80.94,80.94,0,0,1,14.39,10.33Q2964.38,84.57,2940.32,94Zm-9-6.56a51.46,51.46,0,0,0-8-3.56,352.07,352.07,0,0,1,25.67-26,113.49,113.49,0,0,1,16.28,5.82c1.12.49,2.24,1.1,3.22,1.63a411.22,411.22,0,0,0-37.09,22Zm-12.77-5a71.89,71.89,0,0,0-7.79-1.52c4.18-10.12,8.35-19.31,12.44-27.48a137.11,137.11,0,0,1,20.54,3.11,355.31,355.31,0,0,0-25.1,25.8Zm-12.22-2.08a75.71,75.71,0,0,0-10.65,0c-.2-9.76-.24-18.62-.13-26.51a159.64,159.64,0,0,1,16-.88c2.35,0,4.7,0,7,.16C2914.66,61.17,2910.56,70.29,2906.38,80.32Zm-15.39.27c-1.48.18-3,.35-4.48.6-2.23.38-4.47.9-6.71,1.45q-6.71-13.08-12.86-23.55a167.25,167.25,0,0,1,17.54-4c2.24-.38,4.47-.56,6.71-.82-.25,7.92-.25,16.71-.11,26.26Zm-15.66,3.24a75.79,75.79,0,0,0-10.7,4.23,299.76,299.76,0,0,0-25.77-18.12,150.08,150.08,0,0,1,23.72-9.53c4,6.71,8.27,14.65,12.86,23.42Zm-14.88,6.4a62.75,62.75,0,0,0-8.23,5.55c-11.68-4.48-23.23-8.48-34.59-11.7l-.67-.18a121.17,121.17,0,0,1,17.43-11.66,289.55,289.55,0,0,1,26.17,18Zm-21.19,21.63a31,31,0,0,0-1.81,5.22c-16.51,1-32.62,2.61-48.23,4.87a62.47,62.47,0,0,1,5.54-12.79A434.87,434.87,0,0,1,2839.26,111.86Zm-2.5,9.62a26.49,26.49,0,0,0,0,3.78c-3.94.9-7.88,1.79-11.77,2.8q-19.56,4.94-38.19,11.19a50.58,50.58,0,0,1,1.3-12.69q23.63-3.51,48.7-5.14Zm-52.24,23a6.37,6.37,0,0,0,.15,1.68,52.7,52.7,0,0,0,3.76,12.26q-25,13-48.59,28a74,74,0,0,1-4.48-16.11c-.33-2-.55-4-.73-6a511.07,511.07,0,0,1,49.93-19.87Zm5,16.46a57.28,57.28,0,0,0,8.19,12.26c-14.91,11.19-29.58,23.07-43.86,35.8a84.14,84.14,0,0,1-12.73-19.76q23.92-15.54,48.44-28.36Zm11.18,15.42a78.41,78.41,0,0,0,16.89,13q-18,20.68-34.72,43.24a113.91,113.91,0,0,1-26.13-20.31q21.61-19.34,44.07-36Zm-19.33,58.5c-9.84,13.43-19.28,27.32-28.28,41.55a152.56,152.56,0,0,1-34.76-26.33c11.74-12.62,24-24.61,36.53-35.8A117.34,117.34,0,0,0,2781.36,234.91Zm-29.73,43.85q-14,22.26-26.38,45.6A183.54,183.54,0,0,1,2682.1,293q16.3-21.42,34.36-41a154.81,154.81,0,0,0,35.17,26.58Zm3.85,2.08c3.58,1.93,7.25,3.78,11.18,5.53a222.57,222.57,0,0,0,29.49,10.85q-8.94,23.61-16.49,48.24a262.23,262.23,0,0,1-50.4-19.09c8.1-15.64,16.93-30.81,26.22-45.64ZM2778.77,348q-7.87,25.64-14.34,52.17a301.85,301.85,0,0,1-59.85-22.73c5.15-12,10.4-23.26,15.66-33.78,2.51-5,5.1-10,7.72-15a263.83,263.83,0,0,0,50.9,19.29Zm4.2,1.1a333.87,333.87,0,0,0,58.17,9.26c-2,17.5-3.78,35.37-5.19,53.69a386,386,0,0,1-67.32-10.67c4.25-17.81,9.09-35.21,14.34-52.33Zm52.76,65.57q-2,26.52-3.09,54a430.32,430.32,0,0,1-75.42-12.22q4.62-26.62,10.76-52.66a389.89,389.89,0,0,0,67.75,10.85Zm4.25.32c8.95.53,17.9.85,27.07.85a464.77,464.77,0,0,0,50.85-2.94c2.08,17.9,4.23,35.94,6.45,53.7a500.5,500.5,0,0,1-87.41,2.24q1-27.39,3-53.9Zm30.63,114.1a555.59,555.59,0,0,0,61.3-3.54q3.36,25.68,6.93,50.5a591.63,591.63,0,0,1-101.7,2.59q-1.08-25.59-1.17-50.74,17.09,1.21,34.62,1.23Zm65.19-3.94c9.26-1.08,18.55-2.24,27.9-3.89A575.7,575.7,0,0,0,3030,506.07q6.3,24.3,12.3,49.53a616.2,616.2,0,0,1-69.35,15.66c-10.11,1.7-20.14,3-30.16,4.21q-3.59-24.71-7-50.32Zm97.64-20a523.42,523.42,0,0,0,85.64-33.73c6.71,15.86,13.24,31.61,19.17,47.16a560.62,560.62,0,0,1-92.4,36.09q-6-25.08-12.41-49.47Zm-.77-2.86q-7-26.55-14.22-52.08a479.19,479.19,0,0,0,77.16-30.65q11.71,24.6,22.37,49.1a520.82,520.82,0,0,1-85.31,33.68Zm-15-54.68q-7.59-26.58-15.42-52a426.59,426.59,0,0,0,67.84-26.85q12.66,24.06,24.32,48.33a477,477,0,0,1-76.74,30.54ZM3074,366.91a355.46,355.46,0,0,0,61.12-39.53c10.3,13.58,20.68,28.17,30.9,43.76a393.4,393.4,0,0,1-67.72,44.05Q3086.73,390.85,3074,366.91Zm64.55-42.28a265.72,265.72,0,0,0,43.47-45.51q18.61,17.89,36,37.9a289.5,289.5,0,0,1-48.57,51.46c-10.29-15.8-20.6-30.38-30.89-44Zm46-49.22A178.29,178.29,0,0,0,3213,215c6.4,4.18,12.71,8.44,18.8,12.84,7.09,5.17,13.87,10.52,20.51,15.95a195.26,195.26,0,0,1-31.61,69.36q-17.34-19.8-36.06-37.77Zm-2-1.86q-19.89-19-40.9-35.8a151.92,151.92,0,0,0,23.56-50.24,508.64,508.64,0,0,1,45.35,26,175.14,175.14,0,0,1-28,60Zm-43-37.41c-13.94-11-28.17-21.39-42.51-31a130.33,130.33,0,0,0,18.34-39.94q24.51,9.6,47.37,21.14a148.36,148.36,0,0,1-23.2,49.76Zm-21.75-111.7a17.7,17.7,0,0,0-.36-2.89A101.5,101.5,0,0,0,3111,99.18q21.75,2.55,42.51,6.82a114.13,114.13,0,0,1,10.65,30.47q-22.69-6.89-46.29-12.06Zm-3-2.44a15.9,15.9,0,0,0,.22,1.79q-23.85-5.15-48.39-8.46a.71.71,0,0,0,0-.29,77.24,77.24,0,0,0-5.91-19.24q24,.45,47.23,3a98.7,98.7,0,0,1,6.85,23.2Zm-57.21-32.33A90.22,90.22,0,0,0,3043,70.36a360.79,360.79,0,0,1,43.29-3.94,114.69,114.69,0,0,1,18.48,25.69Q3081.28,89.74,3057.62,89.67Zm-18.5-23.07a126.38,126.38,0,0,0-23.87-17A236.94,236.94,0,0,1,3052.36,40a154,154,0,0,1,29.76,22.37A368.7,368.7,0,0,0,3039.12,66.6Zm-3.42.52a443.72,443.72,0,0,0-44.88,10,79.94,79.94,0,0,0-14.59-11,314.29,314.29,0,0,1,35.48-15.34A124.31,124.31,0,0,1,3035.7,67.12Zm-64.1-3.49c-1.68-.87-3.29-1.77-5.08-2.58a116.3,116.3,0,0,0-15-5.41,228.76,228.76,0,0,1,24-18.7,172.76,172.76,0,0,1,30.87,11.18,330.14,330.14,0,0,0-34.81,15.53Zm-25.35-9.44a139.55,139.55,0,0,0-21.59-3.49,215.72,215.72,0,0,1,11.41-19.92,213.66,213.66,0,0,1,33.38,4.75,236.35,236.35,0,0,0-23.2,18.68Zm-55.06-2.73c-2.39.29-4.77.53-7.18.94a171.36,171.36,0,0,0-18.46,4.25q-5.7-9.67-10.63-16.87a261.17,261.17,0,0,1,26.4-6q5.44-.89,10.81-1.54C2891.73,37.81,2891.37,44.23,2891.19,51.46Zm-30,6.46a150.26,150.26,0,0,0-24.9,10.38A209.22,209.22,0,0,0,2813,56a226.49,226.49,0,0,1,37.67-15.1C2853.81,45.6,2857.32,51.3,2861.19,57.92Zm-29.31,12.71A126.84,126.84,0,0,0,2814,83.07a288.37,288.37,0,0,0-32.89-7,186.94,186.94,0,0,1,26.85-17.52A198.71,198.71,0,0,1,2831.88,70.63Zm-22,15.91a92.37,92.37,0,0,0-15.37,18.16,390.5,390.5,0,0,0-42.71,2,135.52,135.52,0,0,1,18.61-21.34c2-1.86,4.19-3.6,6.29-5.39A273.47,273.47,0,0,1,2809.89,86.54ZM2791.83,109a66.93,66.93,0,0,0-5.55,13.25q-24.6,3.69-47.49,9.44a98.07,98.07,0,0,1,9.82-20.31A376,376,0,0,1,2791.83,109Zm-56.15,23.52a425.65,425.65,0,0,0-43.85,13.85,125,125,0,0,1,11.61-26.72,327.94,327.94,0,0,1,41.86-7.83A100.39,100.39,0,0,0,2735.68,132.56Zm-3.81,33c.16,1.76.39,3.51.68,5.26a76.6,76.6,0,0,0,5,17.11q-21.63,13.84-41.73,29.2a100.55,100.55,0,0,1-7.27-24c-.24-1.46-.38-2.91-.56-4.48A476.66,476.66,0,0,1,2731.87,165.56Zm6.92,25.26a85.77,85.77,0,0,0,13,20.13Q2733,228,2715.27,246.88a112.26,112.26,0,0,1-17.89-26.2q20.41-16.08,41.48-29.93Zm-25.33,58c-12,13-23.56,26.85-34.45,41a130.38,130.38,0,0,1-23.2-33.33q19.36-18.21,39.51-34.19A115.58,115.58,0,0,0,2713.46,248.78Zm-33,46.32a187.72,187.72,0,0,0,43.6,31.54c-2.62,5-5.23,10-7.74,15.06q-7.82,15.76-15.66,33.71a213.16,213.16,0,0,1-50-36.2A530.29,530.29,0,0,1,2680.42,295.1Zm19.17,82.77c-6.53,15.33-12.91,31.77-18.86,49.22a239.66,239.66,0,0,1-55.35-40.38,485.06,485.06,0,0,1,23.83-45.17,218.27,218.27,0,0,0,50.4,36.33Zm3.92,2a305.94,305.94,0,0,0,60.27,22.82q-6.22,26-10.76,52.6a338,338,0,0,1-68.33-26.16c5.93-17.49,12.31-33.94,18.84-49.26Zm49,78.1q-4.49,26-7.12,52.31a370.55,370.55,0,0,1-76.06-29.2c4.34-17.23,9.21-33.65,14.45-49.31a341.07,341.07,0,0,0,68.75,26.2Zm4.23,1.1a434.43,434.43,0,0,0,75.77,12.17q-.93,26.36-.89,53.4a471.53,471.53,0,0,1-81.89-13.18q2.59-26.37,7-52.39Zm74.85,68.5q0,25.15,1.15,50.79A508.23,508.23,0,0,1,2746.13,565q.75-25.31,3.22-50.49a473.44,473.44,0,0,0,82.31,13.13Zm5.62,54.23c11.72.74,23.63,1.14,35.66,1.14a603.17,603.17,0,0,0,66.36-3.8c2.59,18.21,5.23,36,7.9,53.11a595.52,595.52,0,0,1-106.47,2.49q-2.25-26.65-3.43-52.94ZM2880,639.48a612,612,0,0,0,67.68-3.9c2.62,16.78,5.23,32.94,7.85,48.35a586.55,586.55,0,0,1-109.42,1.84q-3-23.89-5.1-47.61c12.88.87,25.88,1.34,39,1.32Zm10.58,51.63a598.33,598.33,0,0,0,65.56-3.73c2.23,13.22,4.47,25.86,6.71,37.83a629.11,629.11,0,0,1-110.72,2.66q-3.17-19.33-5.62-38.59c14.59,1.12,29.26,1.83,44.1,1.83Zm77.1,37c10.6-1.26,21.25-2.69,32-4.48a659.62,659.62,0,0,0,73.83-16.78q3.42,19.33,6.56,39.09a656.78,656.78,0,0,1-72.65,16.49c-10.63,1.76-21.23,3.22-31.77,4.47-2.62-12.12-5.28-25.12-7.92-38.79Zm31.32-7.86c-10.76,1.79-21.43,3.2-32.06,4.48q-3.49-18.12-6.89-37.77c10-1.16,20.14-2.5,30.2-4.18a606.12,606.12,0,0,0,75.51-17.67q3.68,19,7.09,38.37a659.26,659.26,0,0,1-73.74,16.77Zm-9.33-41c-10.09,1.68-20.13,3-30.25,4.18-2.66-15.5-5.32-31.66-7.94-48.3,10.14-1.19,20.29-2.55,30.45-4.25A625.46,625.46,0,0,0,3055.36,614q5,23.48,9.71,47.56a607.1,607.1,0,0,1-75.31,17.68Zm-8.3-51.71c-10.16,1.71-20.29,3.07-30.4,4.26-2.69-17.23-5.33-35-7.92-53.07,10-1.19,20.13-2.53,30.25-4.23a623.53,623.53,0,0,0,69.62-15.8q6.09,25.56,11.74,52a623.45,623.45,0,0,1-73.18,16.84Zm65.13-69.86a563.62,563.62,0,0,0,92.78-36.16c6.22,16.44,12,32.64,17.16,48.48a566.67,566.67,0,0,1-97.9,39.62q-5.78-26.35-11.93-51.94Zm96.69-38.2A466.32,466.32,0,0,0,3220.83,470q10,21.74,18.88,45.09a469.45,469.45,0,0,1-79.38,52.84c-5.08-15.82-10.83-32-17-48.42Zm-1.12-3c-6-15.66-12.39-31.32-19.19-47.19a429.85,429.85,0,0,0,73.6-47.58c7.95,14.45,15.67,29.51,23,45.28a462.48,462.48,0,0,1-77.29,49.49Zm-20.35-49.94c-7-16.29-14.5-32.69-22.38-49.06a395.72,395.72,0,0,0,68-44.25c9.39,14.43,18.65,29.71,27.6,45.84a426.6,426.6,0,0,1-73.13,47.47Zm49.22-96.2a293.66,293.66,0,0,0,48.92-51.46c11.32,13.16,22.15,27,32.36,41.39A308.25,308.25,0,0,1,3213,403.62c-4.65,4.32-9.53,8.51-14.47,12.6-9-16-18.21-31.3-27.63-45.73Zm51.45-55.19a199.18,199.18,0,0,0,32.11-69.52,391.56,391.56,0,0,1,36.08,34,214.1,214.1,0,0,1-35.64,77.09q-15.4-21.72-32.48-41.45Zm33.14-74.37a152.49,152.49,0,0,0,1.14-55.13c-.43-2.59-1.05-5.1-1.61-7.65q17.36,9.06,33.56,19.29a159.93,159.93,0,0,1,3.08,77.07,401.05,401.05,0,0,0-36.11-33.47Zm-1.59-54.75a150.5,150.5,0,0,1-.76,52.87c-6.13-5-12.37-9.84-18.89-14.56s-13.42-9.33-20.26-13.81a136,136,0,0,0,1.25-50.74v-.34c12.55,5.24,24.81,10.86,36.67,16.94.73,3.22,1.5,6.47,2.05,9.76Zm-41.3-25.79a132.71,132.71,0,0,1-1,48.7q-21.6-13.77-45.22-25.77a118.22,118.22,0,0,0,1.52-41q22.65,7.13,44.35,16C3212.35,158.85,3212.51,159.58,3212.62,160.28Zm-45.49-22.84A117.65,117.65,0,0,0,3157,106.7q20.79,4.47,40.43,10.71a134,134,0,0,1,13.74,35.66C3196.87,147.3,3182.15,142.11,3167.13,137.44Zm-13.82-37.66a139.3,139.3,0,0,0-25.08-31.59,227.63,227.63,0,0,1,34.39,6.71,166.69,166.69,0,0,1,30.62,35.4Q3173.44,104.06,3153.31,99.78Zm-3.58-.78c-13.85-2.8-27.77-5-41.75-6.53a115.64,115.64,0,0,0-18.14-26.14,294.66,294.66,0,0,1,33.87,1.37A137.94,137.94,0,0,1,3149.73,99Zm-99.22-63.2a209,209,0,0,0-38.84-16.54,76.75,76.75,0,0,1,8.39-1.94,278.16,278.16,0,0,1,49.22,15.9l.42.34A187,187,0,0,0,3050.51,35.8Zm-4,.8a244.63,244.63,0,0,0-36.58,10.11,170.76,170.76,0,0,0-31.32-11.83,132.3,132.3,0,0,1,28.48-14.16,211.86,211.86,0,0,1,39.42,16Zm-73.94-3a213.61,213.61,0,0,0-34.84-5.33c1.75-2.57,3.49-4.94,5.19-7.07A53.54,53.54,0,0,1,2953.36,11a267.84,267.84,0,0,1,46.38,7.74A147.92,147.92,0,0,0,2972.54,33.56Zm-77.35-19a82.66,82.66,0,0,0-2.66,14.9c-3.8.47-7.65,1-11.5,1.61a252.15,252.15,0,0,0-27.56,6.31A87.25,87.25,0,0,0,2843,24.61,431.32,431.32,0,0,1,2895.19,14.59Zm-56.91,11.3c2.46,1.63,6.15,5.92,10.85,12.68a230.68,230.68,0,0,0-39.26,16.06,140,140,0,0,0-26.54-8.32c4.48-2.41,9-4.74,13.65-6.93a429.63,429.63,0,0,1,41.23-13.49Zm-33.56,31.32a188.08,188.08,0,0,0-27.21,18.41,194,194,0,0,0-35-1.61,236.35,236.35,0,0,1,34.75-24.34,129.59,129.59,0,0,1,27.41,7.58Zm-31.66,22.24c-1.47,1.29-3.06,2.52-4.47,3.87A136.71,136.71,0,0,0,2748.27,107a335.19,335.19,0,0,0-41.59,7.34A173.28,173.28,0,0,1,2734,81.66c1-1,2.12-2,3.19-2.91a178.45,178.45,0,0,1,35.87.74Zm-40.94.17a175.31,175.31,0,0,0-29.33,35.71q-14.19,3.67-27.63,8.59a229.24,229.24,0,0,1,41.3-41.57,115.35,115.35,0,0,1,16.09-3.08Zm-32.39,41.06a124.82,124.82,0,0,0-11.19,27,356.59,356.59,0,0,0-35.8,16.11,158.16,158.16,0,0,1,17.9-33.56A274.59,274.59,0,0,1,2699.73,120.68ZM2685.5,190.3c.13,1.08.24,2.24.42,3.25a102.75,102.75,0,0,0,7.72,25.25q-20.89,16.11-39.82,33.56A113,113,0,0,1,2646,226c-.45-2.66-.78-5.32-1-8A446,446,0,0,1,2685.5,190.3Zm-42.18,36.2a115,115,0,0,0,8.39,27.83Q2641.32,264,2631.58,274c-5.13,5.32-10,10.67-14.81,16a130.21,130.21,0,0,1-8.37-28.93q-.83-5.06-1.28-10.13A417.91,417.91,0,0,1,2642.5,220C2642.72,222.18,2643,224.35,2643.32,226.5Zm-8.59,50.59q9.33-9.63,18.91-18.73a132.54,132.54,0,0,0,23.69,33.56,521.5,521.5,0,0,0-29.84,44,151.33,151.33,0,0,1-28.73-41.57C2623.88,288.61,2629.18,282.81,2634.73,277.09Zm11.19,61.3A486.81,486.81,0,0,0,2622,383.33a169.26,169.26,0,0,1-34-50.49q13.43-18.79,28.71-36.2A154.4,154.4,0,0,0,2646,338.39Zm-25,47.63a459.46,459.46,0,0,0-18.32,46.29,185.67,185.67,0,0,1-39.64-59.45,391.69,391.69,0,0,1,23.33-37.43A172.66,172.66,0,0,0,2620.88,386Zm3.34,3.26a242.23,242.23,0,0,0,55.68,40.27c-5.25,15.67-10.18,32.13-14.49,49.22A263.51,263.51,0,0,1,2606,435.6,447,447,0,0,1,2624.22,389.28ZM2664.76,482c-3.85,15.66-7.21,31.75-10,48.44a283.4,283.4,0,0,1-61.88-43.87A431,431,0,0,1,2605,439,269.07,269.07,0,0,0,2664.76,482Zm4,2.1a373.62,373.62,0,0,0,76.43,29.22q-2.49,25.15-3.29,50.48a397.34,397.34,0,0,1-83-31.33q4-24.94,9.79-48.37ZM2741.83,567q-.72,25.81.52,51.59a431.11,431.11,0,0,1-67-23.9c-7.81-3.57-15.26-7.38-22.53-11.32,1.23-16.26,3.11-32.12,5.52-47.56A402.44,402.44,0,0,0,2741.76,567Zm-67.92,30.76a435.6,435.6,0,0,0,68.55,24.39q1.2,23.14,4.05,46.15a442.48,442.48,0,0,1-57-20.13,396,396,0,0,1-38.39-19.47q0-21.21,1.39-41.68C2659.43,590.75,2666.52,594.35,2673.91,597.73Zm73,25.55a516.54,516.54,0,0,0,89.76,14.56q2.07,23.65,5,47.55a518.26,518.26,0,0,1-90.61-15.87Q2748.1,646.51,2746.86,623.28Zm95.24,65.8q2.49,19.26,5.58,38.61a548.55,548.55,0,0,1-89.36-14q-4.09-20.15-6.85-40.41A521.49,521.49,0,0,0,2842.1,689.08Zm6.16,42.06q3.15,19.26,7,38.57a546.42,546.42,0,0,1-86.52-13.43c-3.66-12.84-6.93-25.77-9.68-38.81A556.92,556.92,0,0,0,2848.21,731Zm7.69,42.1c1.26,6.25,2.55,12.46,3.94,18.68,1,4.48,2.24,8.84,3.4,13.14a526.93,526.93,0,0,1-83-13.25q-5.73-15.66-10.45-31.72a549.33,549.33,0,0,0,86.13,13Zm8.46,35.46a271.31,271.31,0,0,0,9.42,25.53,498.74,498.74,0,0,1-81.08-13.56,97.47,97.47,0,0,1-6.44-12.84c-1.59-3.91-3-7.9-4.48-11.83a533.25,533.25,0,0,0,82.58,12.59Zm4.68.32c13,.87,26.28,1.38,39.73,1.38a620.66,620.66,0,0,0,71.59-4.27q3.54,13.67,7.14,26.15a569.26,569.26,0,0,1-108.89,2.24,267.94,267.94,0,0,1-9.57-25.61Zm115.84-3.34c9.2-1.14,18.44-2.44,27.72-4a626.63,626.63,0,0,0,73.27-16.76q1.88,13.05,3.63,26.27a586.08,586.08,0,0,1-72.92,17c-8.18,1.37-16.4,2.53-24.61,3.56q-3.57-12.6-7.09-26.2Zm27.16-7.31c-9.35,1.54-18.68,2.82-28,4-1.21-4.72-2.39-9.51-3.58-14.43-1.37-5.6-2.71-11.48-4.07-17.54,10.49-1.23,21-2.64,31.59-4.48a653.15,653.15,0,0,0,72.62-16.4q2.48,15.88,4.81,32a618.85,618.85,0,0,1-73.34,16.76Zm72.62-50.09a596.86,596.86,0,0,0,103.16-40.75q1.9,17,2.46,31.64a573.16,573.16,0,0,1-100.67,41.05q-2.4-16.15-4.95-32.06Zm-7.8-45.87q-3.45-19.33-7.21-38.37a559.94,559.94,0,0,0,101.91-42.51c3.58,13.67,6.71,27,9.22,39.74a602,602,0,0,1-103.92,41ZM3069,660.57q-4.74-24-9.82-47.52a566.55,566.55,0,0,0,98.44-39.64c4.9,15.21,9.33,30.09,13.18,44.5A556.78,556.78,0,0,1,3069,660.46Zm92.4-89.37a475.15,475.15,0,0,0,79.62-52.78q7.53,20,14,41.14a473.51,473.51,0,0,1-80.43,55.93C3170.85,601.2,3166.37,586.34,3161.43,571.2Zm83.23-55.73c6.17-5.22,12.23-10.52,18-16a358.05,358.05,0,0,0,41.72-47q7.83,17.89,14.36,36.67a370.51,370.51,0,0,1-60,67.38Q3252.22,535.38,3244.66,515.47ZM3260.32,497c-5.44,5.17-11.19,10.18-16.94,15.1q-9-23.28-19-44.94c6.27-5.08,12.37-10.23,18.21-15.67a334.6,334.6,0,0,0,39.85-43.26q10.94,19.59,20.33,40.47a349.55,349.55,0,0,1-42.48,48.3Zm-19.83-47.77c-5.59,5.13-11.45,10.07-17.42,14.95Q3212,440.59,3200,419c5.15-4.27,10.2-8.59,15.06-13.07a312.3,312.3,0,0,0,38.93-43q14.29,20.4,26.84,42.5a330.4,330.4,0,0,1-40.33,43.85Zm16.25-90a218.73,218.73,0,0,0,36.22-77,361.86,361.86,0,0,1,30.09,37.5c-6.71,27.85-19.91,55.46-39.35,81.9q-12.64-22-26.94-42.41Zm37.47-82.2a170.43,170.43,0,0,0,1.46-62.51c-.83-5-2-9.91-3.27-14.79q13,8.43,25.26,17.65a172.66,172.66,0,0,1,8.41,31.32,175.55,175.55,0,0,1-1.57,65.38A362.83,362.83,0,0,0,3294.23,277Zm-3.62-83.54a173.13,173.13,0,0,0-16.07-36.4,434,434,0,0,1,39.67,52.42q-11.43-8.35-23.58-16Zm-36.76-21A156.57,156.57,0,0,0,3236.69,132q13.42,5.83,26.2,12.55A173.52,173.52,0,0,1,3286.72,191C3276.09,184.51,3265.15,178.29,3253.83,172.49Zm-3.36-1.65q-17.66-9-36.31-16.51a135.69,135.69,0,0,0-13-35.8q16.1,5.23,31.32,11.59A153.35,153.35,0,0,1,3250.47,170.84Zm-53.24-59.2a163.69,163.69,0,0,0-28.82-35,174.26,174.26,0,0,1,26.22,10.45,191.44,191.44,0,0,1,32.91,35.79Q3212.56,116.65,3197.23,111.64ZM3161,70a215.57,215.57,0,0,0-21.12-15.66q19.15,9.36,37.23,20.54Q3169.26,72.17,3161,70Zm-6-1.47a242.28,242.28,0,0,0-32-5.2,194.61,194.61,0,0,0-38.62-25.77,149.24,149.24,0,0,1,20.14,1.59c3.78,1.45,7.54,2.91,11.18,4.47A231.13,231.13,0,0,1,3154.92,68.51Zm-79.38-35.26c-1.74-.83-3.47-1.66-5.26-2.44a267.36,267.36,0,0,0-26-9.69A428.91,428.91,0,0,1,3088,33.25C3083.86,33.09,3079.75,33.09,3075.54,33.25ZM3010,15.17c-2,.58-4,1.16-6.06,1.88-6.71-1.88-13.72-3.51-20.88-4.88,7.81.58,15.67,1.37,23.25,2.24C3007.55,14.74,3008.8,14.92,3010,15.17ZM2770.33,50.61a231.51,231.51,0,0,0-32.24,23.62A125.69,125.69,0,0,0,2724.83,76c3.11-2.28,6.31-4.52,9.57-6.71Q2751.86,59.17,2770.33,50.61Zm-104.16,81.52a158.64,158.64,0,0,0-16.92,33.56,294.68,294.68,0,0,0-31.48,19.53,191.32,191.32,0,0,1,23.18-41A263.9,263.9,0,0,1,2666.17,132.13Zm-18.84,39.49a121.53,121.53,0,0,0-5.28,43.16,429.5,429.5,0,0,0-35.22,30.4,140.48,140.48,0,0,1,8.08-52.55A281.48,281.48,0,0,1,2647.33,171.62Zm-42.64,81.82c.29,2.7.58,5.41,1,8.12a133.4,133.4,0,0,0,9.08,30.69,452.31,452.31,0,0,0-28.66,35.8,147.33,147.33,0,0,1-8-29.08,139.11,139.11,0,0,1-1.61-14.37A403.84,403.84,0,0,1,2604.69,253.44Zm-29.27,46a149.09,149.09,0,0,0,8.95,31.21A395.4,395.4,0,0,0,2561,367.47a161.88,161.88,0,0,1-7.78-29.08,158.6,158.6,0,0,1-2-19.18q10.65-16.35,22.82-31.57A108.14,108.14,0,0,0,2575.42,299.41Zm-14.32,76.76a189.5,189.5,0,0,0,40.28,59.29,436.1,436.1,0,0,0-12.4,47.36A196.7,196.7,0,0,1,2543.45,415,333.46,333.46,0,0,1,2561.1,376.17Zm93.1,157.53q-3.66,23-5.64,47.36a302.32,302.32,0,0,1-62.51-45.64,420.75,420.75,0,0,1,6.09-45.24A289.11,289.11,0,0,0,2654.2,533.7Zm-5.91,51c-1,13.56-1.52,27.39-1.52,41.46a317.33,317.33,0,0,1-61.93-47.41c-.29-13.2,0-26.24.85-39A309.41,309.41,0,0,0,2648.29,584.75Zm2.89,48.08a403,403,0,0,0,36.93,18.53A448,448,0,0,0,2746.93,672c1.77,13.61,4.05,27.12,6.71,40.57a425.72,425.72,0,0,1-100.54-38.91Q2651.33,652.94,2651.18,632.83Zm103.2,83.39q4,19.57,9.51,38.81a419,419,0,0,1-106.11-41.88c-1.86-12-3.27-23.8-4.32-35.51A432.88,432.88,0,0,0,2754.38,716.22Zm10.56,42.5c3.09,10.63,6.44,21.17,10.18,31.62a442.18,442.18,0,0,1-54-17.48,372.65,372.65,0,0,1-51.26-25.05,156.48,156.48,0,0,1-11.18-30.25,425.22,425.22,0,0,0,106.31,41.25Zm11.75,35.8c1.81,4.92,3.6,9.84,5.55,14.72a95.83,95.83,0,0,0,4.63,9.71,383.28,383.28,0,0,1-101-42.51,231.12,231.12,0,0,1-13.07-22.37,413.64,413.64,0,0,0,103.81,40.56Zm12.37,28.3a131.63,131.63,0,0,0,11.7,16.67A361.86,361.86,0,0,1,2697.2,792c-2.37-2.84-4.68-5.88-6.92-9a393.64,393.64,0,0,0,98.78,39.89Zm15.44,21c1.34,1.5,2.7,2.93,4.11,4.34-7.6-3-15-6.29-22.37-9.8,6,2.06,12.1,3.87,18.26,5.57Zm15.43,8.63c-2.48-2-4.87-4.16-7.22-6.46a472.93,472.93,0,0,0,72.44,12.57c1.41,2.91,2.84,5.79,4.25,8.66a409.72,409.72,0,0,1-69.47-14.66Zm-11.34-10.74a131.31,131.31,0,0,1-13.42-17.36,504.92,504.92,0,0,0,80.11,13q4,9.12,8.28,17.9a466.52,466.52,0,0,1-75-13.4Zm71.59-3.93c13.43,1,26.85,1.47,40.52,1.47a584.07,584.07,0,0,0,67.79-4c2,6.71,3.91,13,5.88,19.13a525.14,525.14,0,0,1-105.77,1.41c-2.82-5.77-5.64-11.77-8.35-17.85Zm112.74-3q12.07-1.5,24.18-3.53A584.65,584.65,0,0,0,3090,814.36c.87,6.58,1.7,13.16,2.51,19.78a552.22,552.22,0,0,1-69.76,16.36c-7.94,1.32-15.86,2.41-23.78,3.37-2.06-6.08-4-12.41-6-19Zm100.68-25q-1.77-13.2-3.67-26.27a581.48,581.48,0,0,0,100.58-40.29,245.07,245.07,0,0,1-.65,26.69,543,543,0,0,1-96.09,40.07Zm100.9-73.09c-.45-9.74-1.3-20.14-2.62-31.46a497.39,497.39,0,0,0,84.5-55.17c1.52,9.15,2.93,18.41,4.14,27.81a471.63,471.63,0,0,1-85.84,58.93Zm-3.07-35.08c-.8-6.49-1.7-13.18-2.77-20.14-.94-6.17-2.08-12.55-3.34-19a499.79,499.79,0,0,0,82.78-53.82c2.82,12.28,5.39,24.81,7.61,37.63a494.09,494.09,0,0,1-84.1,55.46Zm-6.71-42.71c-2.53-12.78-5.66-26.11-9.26-39.83a476.21,476.21,0,0,0,80.67-55.93q6.15,20.34,11.19,41.75a494,494,0,0,1-82.49,54.12Zm75.15-98.73a377.85,377.85,0,0,0,60.25-67c4.85,14.39,9.17,29.09,12.75,44.32a370.89,370.89,0,0,1-61.66,64.41Q3266.1,580.46,3259.87,560.08Zm63.34-71.6a276.36,276.36,0,0,0,40.4-90.74,332.18,332.18,0,0,1,13.22,47.48c-7,30.09-20.94,59.51-40.65,87.25-3.69-14.9-8-29.58-13-43.87Zm-1.44-4.2q-6.55-18.46-14.36-36a255.82,255.82,0,0,0,40.76-86.52c4.88,9.76,9.31,19.69,13.2,29.85a269.15,269.15,0,0,1-39.6,92.82Zm-15.95-39.69c-6.24-13.8-13.11-27.14-20.4-40.09,19.53-26.27,33-53.7,40.09-81.48a342.17,342.17,0,0,1,20.29,33.89,248.76,248.76,0,0,1-40,87.79Zm-73.47-319.75a186,186,0,0,0-23.54-28.39,438.1,438.1,0,0,1,44.19,38Q3242.73,129.29,3232.35,124.84Zm-599.14,25.77a185.82,185.82,0,0,0-19.53,37.59,241.2,241.2,0,0,0-22.37,18.59q2.24-4.95,4.72-9.84A431.5,431.5,0,0,1,2633.21,150.61Zm-51,71.93a160.58,160.58,0,0,0-8.56,58.62q-12,14.65-22.65,30.4a174,174,0,0,1,6.72-47.12q7.44-16.33,16.13-31.92C2576.52,229.14,2579.29,225.81,2582.22,222.54Zm-55.59,139.9c.67-1.35,1.36-2.67,2-4a173.74,173.74,0,0,0,2.24,23,176.56,176.56,0,0,0,8.57,31.88A293.09,293.09,0,0,0,2529,447.45a195.32,195.32,0,0,1-7.3-29.19c-.49-2.93-.89-5.87-1.25-8.8A432.72,432.72,0,0,1,2526.63,362.44Zm15.28,56.94a201.42,201.42,0,0,0,46.47,67.11,435.82,435.82,0,0,0-6.4,45.06A217.61,217.61,0,0,1,2531.71,455a277.61,277.61,0,0,1,10.2-35.71Zm39.69,116.44c-1,12.67-1.32,25.53-1.17,38.58a240.22,240.22,0,0,1-53.69-84.15,241.48,241.48,0,0,1,3.67-29.08A223.08,223.08,0,0,0,2581.6,535.82Zm-1.14,43.63c.31,13.87,1.36,28,3,42.26-28.82-29.24-48.5-63.58-56.67-101.86q-.69-10.47-.4-21.1A246.3,246.3,0,0,0,2580.46,579.45Zm-22.55,38.77h0l.38-.24c-3-4.93-5.78-9.94-8.37-15a433.56,433.56,0,0,1-14.32-42c-.36-1.65-.65-3.33-1-5a221.46,221.46,0,0,0,49.46,71.14q1.55,11.91,3.74,24c.58,3.09,1.23,6.18,1.88,9.26A229.9,229.9,0,0,1,2557.91,618.22Zm34.23,32.17c-1.12-6.1-2-12.17-2.87-18.21a312.52,312.52,0,0,0,59.54,42.87q1.5,17.49,4.16,35.35a295.87,295.87,0,0,1-57.57-44.23Q2593.59,658.3,2592.14,650.39Zm61.43,64.3a132.6,132.6,0,0,0,9.73,29.4,280.26,280.26,0,0,1-60.9-50.2q-3.08-10.64-5.61-21.44A303.13,303.13,0,0,0,2653.57,714.69Zm12.46,35.4c3.29,6.91,7.09,14,11.19,21a285.59,285.59,0,0,1-29.09-21.88c-4.29-3.67-8.36-7.47-12.3-11.34q-14.57-15.51-27.56-32.44a290.92,290.92,0,0,0,57.81,44.7Zm15.22,27.29c1.16,1.79,2.23,3.58,3.53,5.3-6.26-4.92-12.39-10-18.37-15.23,4.86,3.42,9.8,6.76,14.88,9.93ZM2894,866.76c-1.23-2.51-2.48-5-3.71-7.56,14.39,1.23,29.09,1.86,43.81,1.86a546,546,0,0,0,61.3-3.61c1.14,3.49,2.23,6.92,3.44,10.23a464.4,464.4,0,0,1-104.28.2ZM2999.81,857c7.76-1,15.55-2.05,23.33-3.35a559.8,559.8,0,0,0,69.67-16.29c.41,3.2.76,6.44,1.14,9.69a482.11,482.11,0,0,1-70.38,17.25c-6.71,1.14-13.54,2.1-20.29,2.93-1.12-3.31-2.26-6.74-3.43-10.23Zm24.27,10.34a482.78,482.78,0,0,0,70.23-17.16h0a429.28,429.28,0,0,1-89.49,21.1l-.4-1.14q9.84-1.14,19.71-2.8Zm74.48-18.64,3.22-1.09c-1.07.4-2.12.83-3.2,1.21ZM3258,746.28a420.8,420.8,0,0,1-67.23,46.32,145.38,145.38,0,0,0,3.36-21.53,442.77,442.77,0,0,0,87.05-61.48,80.94,80.94,0,0,1-3.15,14.93c-6.4,7.47-13.05,14.76-20,21.76Zm28-41.21a342.93,342.93,0,0,0,31.21-33.69,437.55,437.55,0,0,1-32.77,45.69,98.82,98.82,0,0,0,1.61-12Zm-6.28-62c-2.24-12.78-4.88-25.26-7.74-37.52a378,378,0,0,0,61.77-63.88c1.25,5.55,2.48,11.19,3.56,16.76a163.91,163.91,0,0,1,2.59,21.19,370.65,370.65,0,0,1-60.14,63.45Zm99.2-208.4a339,339,0,0,0-13.63-44.75,222.82,222.82,0,0,0,4.16-54.48,430.73,430.73,0,0,1,12.38,77.37,198.38,198.38,0,0,1-2.87,21.86Zm-16.09-51q-5.92-14.61-13.2-28.64a201.45,201.45,0,0,0,2.24-72.28c4.47,11.18,8.57,22.55,12.13,34.18a219,219,0,0,1-1.12,66.74ZM2519,442.84c0-6.24.2-12.41.47-18.57a198.48,198.48,0,0,0,8.08,29.09,258.32,258.32,0,0,0-4.25,26.24c-.23-.74-.52-1.47-.74-2.24-1.08-3.64-2-7.33-2.91-11.05Q2519,454.7,2519,442.84Zm3.51,45.64c-.13,1.91-.26,3.81-.35,5.71-.41-3.42-.83-6.71-1.17-10.27C2521.57,485.49,2522,487,2522.53,488.48Zm380.16,383.43q21.07,2,42.69,2a484.78,484.78,0,0,0,54.54-3.22c.14.4.29.8.45,1.23a433.44,433.44,0,0,1-49.38,2.9c-13.6,0-27-.71-40.27-1.94C2908,872.53,2905.35,872.22,2902.69,871.91Zm441.39-265.43a189.42,189.42,0,0,0,.27-27.16,281.74,281.74,0,0,0,30.47-53.21,431.28,431.28,0,0,1-11.48,45.56A270.19,270.19,0,0,1,3344.08,606.48Z"/></g></g></g></g></svg>