<svg xmlns="http://www.w3.org/2000/svg" viewBox="0 0 1227.12 356.73"><title>0257e972-38db-47b1-a715-d53e9799c631 (2)</title><g id="Layer_2" data-name="Layer 2"><g id="Layer_1-2" data-name="Layer 1"><g id="_0257e972-38db-47b1-a715-d53e9799c631" data-name="0257e972-38db-47b1-a715-d53e9799c631"><g id="_0257e972-38db-47b1-a715-d53e9799c631-child-0" data-name="0257e972-38db-47b1-a715-d53e9799c631-child-0"><path d="M0,356.73V0H240.89V353h4.94V179h-2.18V174h2.18V179h822.44V352.52h4.94V179h150.36V174H1073.21V1.59h-4.94V174H245.83V0h981.29V356.73ZM1073.21,179h-4.94V174h4.94Zm-727-129.17H301.26v78.57h21.15v-27.7h15.71c11,0,12.09.91,12.09,9.57v18.12h22.16V109c0-10.07-5.34-14.71-15.81-15.81,11-1.51,15.81-7.67,15.81-20.65,0-18.23-5.24-22.77-26.19-22.77ZM322.41,84.54V66.92h18.33c9.47,0,10.48.9,10.48,8.66,0,8.06-1,9-10.48,9Zm59-34.75v78.57H446.1V110.23H402.59V97.14h39.28V80H402.59V67.92H445.9V49.79Zm108,62.66c-13.49,0-15.11-1-15.11-10.48H452.14c0,22.06,7.76,27.6,37.88,27.6,29.31,0,36.86-4.43,36.86-22.36,0-15.82-7.85-21.26-37.27-27C478.94,78,476,76.49,476,72.36c0-6,1.51-6.65,14-6.65,12.69,0,14.2,1.11,14.2,11.58h22.16c0-23-7.45-28.7-36.36-28.7-28.71,0-36.16,4.73-36.16,23.57,0,14.6,6.44,19.44,32.13,24.57,14.8,2.92,18.73,4.84,18.73,9.37C504.72,111.84,503.11,112.45,489.41,112.45Zm65.07,15.91h21.15V67.92h24.28V49.79h-69.5V67.92h24.07Zm95.89-78.57H605.45v78.57H626.6v-27.7h15.71c11,0,12.09.91,12.09,9.57v18.12h22.16V109c0-10.07-5.34-14.71-15.81-15.81,11-1.51,15.81-7.67,15.81-20.65,0-18.23-5.24-22.77-26.19-22.77ZM626.6,84.54V66.92h18.33c9.47,0,10.48.9,10.48,8.66,0,8.06-1,9-10.48,9Zm59,43.82h21.15V49.79H685.63ZM794.91,95H772.75c.21,15.71-1.61,17.43-17.72,17.43s-18-2.32-18-23.37,1.81-23.37,18-23.37S773,67.42,772.75,82.93h22.16c.2-27.5-7.75-34.34-39.88-34.34s-40.19,8-40.19,40.49,8,40.49,40.19,40.49,40.08-6.95,39.88-34.55Zm27.6,33.34h21.15V67.92h24.28V49.79h-69.5V67.92h24.07Zm51-78.57v78.57h64.66V110.23H894.63V97.14h39.28V80H894.63V67.92h43.31V49.79Zm94.88,18.13h17.23c14.3,0,15.91,2.12,15.91,21.16s-1.61,21.15-15.91,21.15H968.36l-.1-21.15Zm-21.15,60.44H987.8c28.71,0,35.86-7.86,35.86-39.28s-7.15-39.29-35.86-39.29H947.21Zm248-44.07h-29.8l25.81-14.9-4.46-7.7L1161,76.58l14.89-25.8-7.7-4.45-14.9,25.81V42.34h-8.89v29.8l-14.9-25.81-7.7,4.45,14.89,25.8-25.79-14.89-4.46,7.7,25.81,14.9h-29.8v8.89h29.8l-25.81,14.9,4.46,7.7,25.79-14.89-14.89,25.8,7.7,4.45,14.9-25.81v29.8h8.89v-29.8l14.9,25.81,7.7-4.45L1161,100.89l25.79,14.89,4.46-7.7-25.81-14.9h29.8ZM147.08,89.08H45V267.66H93.05v-63h35.71c25,0,27.47,2.06,27.47,21.75v41.21H206.6v-44c0-22.89-12.13-33.42-35.94-35.94,25-3.44,35.94-17.4,35.94-46.93C206.6,99.39,194.7,89.08,147.08,89.08Zm-54,79V128h41.66c21.52,0,23.81,2.07,23.81,19.69,0,18.32-2.29,20.38-23.81,20.38Zm237.66,69.37V222.3H323.8v15.14c0,4.8-.46,5.33-4.48,5.33s-4.47-.53-4.47-5.33V222.3h-6.91v15.14c0,8.75,2.27,10.92,11.38,10.92S330.71,246.19,330.71,237.44Zm3,10.53h6.91V234h.2l11.38,14h6.52V222.3h-6.91v14h-.2l-11.36-14h-6.55Zm35.21-19.74h5.63c4.67,0,5.2.69,5.2,6.91s-.53,6.91-5.2,6.91h-5.63l0-6.91ZM362,248h13.26c9.38,0,11.72-2.57,11.72-12.83s-2.34-12.84-11.72-12.84H362Zm27.61-25.67V248h21.13v-5.92H396.49v-4.28h12.83v-5.6H396.49v-3.94h14.15V222.3Zm38.76,0H413.67V248h6.91v-9.05h5.13c3.59,0,4,.3,4,3.13V248h7.23v-6.32c0-3.29-1.73-4.8-5.17-5.16,3.59-.5,5.17-2.51,5.17-6.75,0-6-1.71-7.44-8.55-7.44Zm-7.76,11.36V227.9h6c3.09,0,3.42.29,3.42,2.83s-.33,2.93-3.42,2.93ZM455.33,248h6.25V222.3h-5.92c0,3.36-.73,4-3.59,4h-3v4.61h6.25Zm8.06-25.67v9.87H469v-4.31l7.93,0L467.64,248h7.6L485,226.91V222.3Zm48,0H496.69V248h6.91v-9.05h5.14c3.58,0,4,.3,4,3.13V248h7.23v-6.32c0-3.29-1.74-4.8-5.16-5.16,3.59-.5,5.16-2.51,5.16-6.75C519.92,223.78,518.21,222.3,511.37,222.3Zm-7.77,11.36V227.9h6c3.1,0,3.42.29,3.42,2.83s-.32,2.93-3.42,2.93Zm19.29-11.36V248H544v-5.92H529.8v-4.28h12.83v-5.6H529.8v-3.94H544V222.3Zm37.77,20.08h-1.25c-5.27,0-5.86-.73-5.86-7.24,0-6.88.63-7.64,6.13-7.64s6.12.76,6.12,7.64C565.8,241.65,565.27,242.38,560.66,242.38Zm-14.34-7.24c0,10.26,2.66,12.83,13.36,12.83H574v-5.59H568c3.52-.66,5.08-2.93,5.08-7.24,0-10.6-2.68-13.23-13.36-13.23S546.32,224.54,546.32,235.14Zm52.78,2.3V222.3h-6.91v15.14c0,4.8-.46,5.33-4.48,5.33s-4.47-.53-4.47-5.33V222.3h-6.91v15.14c0,8.75,2.27,10.92,11.38,10.92S599.1,246.19,599.1,237.44Zm3,10.53H609V222.3h-6.91Zm24.88-25.67H612.26V248h6.91v-9.05h5.14c3.58,0,4,.3,4,3.13V248h7.24v-6.32c0-3.29-1.75-4.8-5.18-5.16,3.59-.5,5.18-2.51,5.18-6.75C635.5,223.78,633.78,222.3,626.94,222.3Zm-7.77,11.36V227.9h6c3.1,0,3.42.29,3.42,2.83s-.32,2.93-3.42,2.93Zm19.29-11.36V248h21.12v-5.92H645.37v-4.28H658.2v-5.6H645.37v-3.94h14.15V222.3Zm35.27,20.47c-4.41,0-4.93-.33-4.93-3.42h-7.24c0,7.2,2.53,9,12.37,9,9.58,0,12.05-1.44,12.05-7.3,0-5.17-2.57-6.94-12.18-8.82-3.49-.72-4.44-1.22-4.44-2.57,0-1.94.49-2.17,4.57-2.17s4.64.36,4.64,3.79h7.24c0-7.51-2.43-9.38-11.88-9.38s-11.81,1.54-11.81,7.7c0,4.77,2.1,6.35,10.49,8,4.84,1,6.13,1.58,6.13,3.06,0,1.87-.53,2.07-5,2.07Zm43.18-20.47H705.46L697,248h7.44l1.54-5h9.88l1.37,5h7.9Zm-9.15,15.07,3.13-9.47h.19l3.06,9.47Zm44.69-.29h-7.24c.06,5.13-.53,5.69-5.79,5.69s-5.89-.76-5.89-7.63.59-7.64,5.89-7.64,5.85.56,5.79,5.63h7.24c.06-9-2.54-11.22-13-11.22s-13.13,2.63-13.13,13.23,2.63,13.22,13.13,13.22S752.51,246.09,752.45,237.08Zm28.13,0h-7.24c.07,5.13-.52,5.69-5.79,5.69s-5.89-.76-5.89-7.63.59-7.64,5.89-7.64,5.86.56,5.79,5.63h7.24c.07-9-2.53-11.22-13-11.22s-13.13,2.63-13.13,13.23,2.64,13.22,13.13,13.22S780.65,246.09,780.58,237.08Zm15.31-9.58c5.49,0,6.07.76,6.07,7.64s-.58,7.63-6.07,7.63-6.09-.76-6.09-7.63S790.39,227.5,795.89,227.5Zm-13.33,7.64c0,10.59,2.66,13.22,13.33,13.22s13.32-2.63,13.32-13.22-2.66-13.23-13.32-13.23S782.56,224.54,782.56,235.14ZM818.76,248V228.88H819L822.8,248h10.7l3.88-19.09h.2V248h6.91V222.3H832.35l-3.89,19.09h-.26l-3.86-19.09h-12.5V248Zm29-25.67V248h6.91v-8.39h8.36c6.38-.33,8-2.07,8-8.72,0-6.85-1.71-8.56-8.55-8.56Zm6.91,11.36V227.9h6c3.09,0,3.42.29,3.42,3,0,2.5-.33,2.77-3.42,2.77ZM890.1,222.3H878.65L870.19,248h7.44l1.54-5h9.88l1.38,5h7.89ZM881,237.37l3.13-9.47h.2l3.06,9.47ZM899.81,248h6.91V234h.2l11.38,14h6.52V222.3h-6.91v14h-.2l-11.35-14H899.8Zm51.6-25.67h-7.34l-4.68,10.57h-.19l-4.81-10.57h-7.76l8,15.8h1.21V248h6.91V238.1h1ZM953.22,248h6.91V222.3h-6.91Zm10.2,0h6.91V234h.2l11.38,14h6.52V222.3h-6.91v14h-.2L970,222.3h-6.55Zm41.2-13.76v5.27h5.26c-.13,2.3-1.91,3.29-5.86,3.29-5.16,0-5.72-.76-5.72-7.63s.56-7.64,5.72-7.64,5.73.4,5.66,3.95h7.24c.07-7.63-2.5-9.54-12.9-9.54s-13,2.63-13,13.23,2.6,13.22,13,13.22c3.72,0,5.83-1.38,6.65-4.5V248h6.25V234.21ZM381.25,268.37V294h6.91v-8.39h8.36c6.39-.33,8-2.07,8-8.72,0-6.85-1.72-8.56-8.56-8.56Zm6.91,11.36V274h6c3.11,0,3.43.29,3.43,3,0,2.5-.32,2.77-3.43,2.77Zm35.41-11.36H412.12L403.66,294h7.44l1.55-5h9.87l1.38,5h7.9Zm-9.15,15.07,3.13-9.47h.2l3.05,9.47Zm33.87-15.07H433.61V294h6.91V285h5.13c3.59,0,4,.3,4,3.13V294h7.24v-6.32c0-3.29-1.74-4.8-5.18-5.16,3.59-.5,5.18-2.51,5.18-6.75,0-6-1.71-7.44-8.55-7.44Zm-7.77,11.36V274h6c3.09,0,3.42.29,3.42,2.83s-.33,2.93-3.42,2.93Zm19.28-11.36V294h21.13v-5.92H466.71v-4.28h12.84v-5.6H466.71V274.3h14.15v-5.93ZM483.89,294h6.91v-14h.2l11.39,14h6.51V268.37H502v14h-.2l-11.35-14h-6.55Zm34.69,0h6.91V274.3h7.93v-5.93H510.71v5.93h7.87Zm39.19-20.47c5.49,0,6.09.76,6.09,7.64s-.6,7.63-6.09,7.63-6.09-.76-6.09-7.63S552.27,273.57,557.77,273.57Zm-13.33,7.64c0,10.59,2.67,13.23,13.33,13.23s13.32-2.64,13.32-13.23S568.42,268,557.77,268,544.44,270.61,544.44,281.21Zm44-12.84H573.73V294h6.91V285h5.13c3.59,0,3.94.3,3.94,3.13V294H597v-6.32c0-3.29-1.74-4.8-5.17-5.16,3.59-.5,5.17-2.51,5.17-6.75,0-6-1.71-7.44-8.55-7.44Zm-7.77,11.36V274h6c3.08,0,3.42.29,3.42,2.83s-.33,2.93-3.42,2.93Zm47.58-11.36H616.77L608.31,294h7.44l1.55-5h9.87l1.38,5h7.9Zm-9.15,15.07L622.2,274h.19l3.06,9.47Zm26.1-9.14h5.63c4.67,0,5.2.69,5.2,6.91s-.54,6.91-5.2,6.91h-5.63l0-6.91ZM638.26,294h13.26c9.38,0,11.72-2.57,11.72-12.83s-2.34-12.84-11.72-12.84H638.26Zm50-10.53V268.37H681.4v15.14c0,4.8-.46,5.33-4.47,5.33s-4.48-.53-4.48-5.33V268.37h-6.91v15.14c0,8.75,2.27,10.93,11.39,10.93S688.31,292.26,688.31,283.51Zm3-15.14V294h19.42v-5.92H698.18V268.37ZM718.88,294h6.91V274.3h7.93v-5.93H711v5.93h7.86Zm39.43-13.75v5.26h5.26c-.13,2.3-1.91,3.29-5.86,3.29-5.16,0-5.72-.76-5.72-7.63s.56-7.64,5.72-7.64,5.73.4,5.66,3.95h7.24c.07-7.63-2.5-9.54-12.9-9.54s-13,2.63-13,13.23,2.6,13.23,13,13.23c3.72,0,5.83-1.39,6.65-4.51V294h6.25V280.29ZM796,283.51V268.37h-6.91v15.14c0,4.8-.46,5.33-4.48,5.33s-4.47-.53-4.47-5.33V268.37h-6.91v15.14c0,8.75,2.27,10.93,11.38,10.93S796,292.26,796,283.51Zm20.73-15.14H805.3L796.84,294h7.44l1.54-5h9.88l1.38,5H825Zm-9.15,15.07,3.13-9.47h.19l3.06,9.47Zm33.86-15.07H826.79V294h6.91V285h5.12c3.59,0,3.95.3,3.95,3.13V294H850v-6.32c0-3.29-1.75-4.8-5.17-5.16,3.59-.5,5.17-2.51,5.17-6.75,0-6-1.71-7.44-8.56-7.44Zm-7.76,11.36V274h6c3.09,0,3.42.29,3.42,2.83s-.33,2.93-3.42,2.93Zm26.19-5.43h5.63c4.67,0,5.19.69,5.19,6.91s-.53,6.91-5.19,6.91h-5.63l0-6.91ZM853,294h13.26c9.38,0,11.72-2.57,11.72-12.83s-2.34-12.84-11.72-12.84H853Zm27.61,0h6.91V268.37h-6.91Zm28.3-25.67H897.44L889,294h7.44l1.54-5h9.88l1.37,5h7.9Zm-9.15,15.07,3.13-9.47h.2l3.06,9.47ZM918.6,294h6.91v-14h.2l11.38,14h6.52V268.37H936.7v14h-.2l-11.36-14h-6.55Zm196.12-9.29h8.86V248.39h-8.39c0,4.75-1,5.64-5.08,5.64h-4.23v6.52h8.85Zm29.09-22.66c-4.7,0-5.31-.32-5.31-3.4s.61-3.4,5.31-3.4,5.32.32,5.32,3.4S1148.52,262.09,1143.81,262.09Zm-16.5,13.1c0,8.11,3.5,10.12,16.5,10.12s16.46-2,16.46-10.12c0-5.87-2.28-8.76-7.41-9.37,3.54-.7,5.13-3.17,5.13-7.88,0-8.11-3-10.11-14.18-10.11s-14.17,2-14.17,10.11c0,4.71,1.59,7.18,5.18,7.88-5.23.61-7.51,3.5-7.51,9.37Zm10.26-1.49c0-3.73.7-4.15,6.24-4.15s6.25.42,6.25,4.15-.7,4.15-6.25,4.15S1137.57,277.43,1137.57,273.7Zm26.9-7.5v7.92h9.74v9.7h7.92v-9.7h9.7V266.2h-9.7v-9.75h-7.92v9.75Z"/></g></g></g></g></svg>