<svg xmlns="http://www.w3.org/2000/svg" viewBox="0 0 2106.3 274.82"><title>91f35286-4a1f-4cca-9317-5b323003ddce</title><g id="Layer_2" data-name="Layer 2"><g id="Layer_1-2" data-name="Layer 1"><g id="_91f35286-4a1f-4cca-9317-5b323003ddce" data-name="91f35286-4a1f-4cca-9317-5b323003ddce"><g id="d6a412be-e506-4d71-8255-2b281fd6a02f"><path d="M1.52,60.39V.91h29l8.92,44.23H40L49,.91H77.17V60.39h-16V16.16H60.7l-9,44.23H26.92L18,16.16h-.45V60.39ZM109.67,30.65c0,15.94,1.37,17.69,14.11,17.69s14.1-1.75,14.1-17.69S136.51,13,123.78,13,109.67,14.71,109.67,30.65ZM123.78,0c24.7,0,30.88,6.1,30.88,30.65s-6.18,30.66-30.88,30.66S92.89,55.2,92.89,30.65,99.07,0,123.78,0Zm46.6.91h15.18L211.87,33.4h.45V.91h16V60.39h-15.1L186.85,28h-.45V60.39h-16Zm124,0V14.64H261.6v9.15h29.74v13H261.6v9.91h32.94V60.39h-49V.91Zm52.78,36.6h-2.28V60.39h-16V37.51h-2.82L307.6.91h18l11.14,24.48h.46L348,.91h17Zm93.07,23.8c-24.33,0-30.43-6.11-30.43-30.66S415.91,0,440.24,0s30.35,5.18,30.19,26H453.66c.15-11.74-1.22-13-13.42-13s-13.65,1.75-13.65,17.69S428,48.34,440.24,48.34s13.57-1.29,13.42-13.19h16.77C470.59,56,464.56,61.31,440.24,61.31Zm107.69-.92H529.62l-3.2-11.59H503.54L500,60.39H482.73L502.32.91h26.54ZM522.46,35.84l-7.1-22h-.45l-7.25,22ZM561,.91h15.18l26.3,32.49h.46V.91h16V60.39H603.84L577.45,28H577V60.39H561Zm75.2,0h15.18L677.67,33.4h.45V.91h16V60.39H679L652.66,28h-.46V60.39h-16Zm90.46,29.74c0,15.94,1.37,17.69,14.11,17.69s14.1-1.75,14.1-17.69S753.48,13,740.75,13,726.64,14.71,726.64,30.65ZM740.75,0c24.7,0,30.88,6.1,30.88,30.65s-6.18,30.66-30.88,30.66-30.89-6.11-30.89-30.66S716,0,740.75,0Zm61.4,14.64H783.92V.91h52.62V14.64H818.16V60.39h-16ZM918.77.91c12.89,0,16.78,3.13,16.78,15.48,0,8.54-3.66,12.89-11,14,8.84.91,13.11,5.41,13.11,14.41,0,12.5-4.34,15.63-18.91,15.63H882.86V.91Zm-4.88,47.28c6.41,0,7.09-.61,7.09-5.87,0-4.2-2.13-6-7.09-6h-15v11.9Zm-1.52-24.1c4.57,0,6.48-1.6,6.48-5.41,0-5-.61-5.57-6.48-5.57h-13.5v11Zm67.42,37.22c-21.12,0-26.38-5-26.38-25.32V.91h16V36c0,11.13,1.07,12.35,10.37,12.35S990.16,47.12,990.16,36V.91h16V36c0,20.28-5.27,25.32-26.39,25.32Zm79-23.8h-2.29V60.39h-16V37.51h-2.82L1019.23.91h18l11.13,24.48h.46L1059.65.91h17ZM1157,.91c15.86,0,19.83,4,19.83,19.83,0,15.4-3.66,19.44-18.46,20.2H1139V60.39h-16V.91Zm-4.12,26.31c7.17,0,7.93-.61,7.93-6.41,0-6.25-.76-6.94-7.93-6.94H1139V27.22ZM1241.33.91V14.64h-32.79v9.15h29.74v13h-29.74v9.91h33V60.39h-49V.91Zm78.41,59.48h-18.3l-3.2-11.59h-22.88l-3.58,11.59h-17.24L1274.14.91h26.54Zm-25.47-24.55-7.09-22h-.46l-7.24,22Zm68.19,25.47c-24.33,0-30.43-6.11-30.43-30.66S1338.13,0,1362.46,0s30.35,5.18,30.2,26h-16.78c.15-11.74-1.22-13-13.42-13s-13.65,1.75-13.65,17.69,1.37,17.69,13.65,17.69,13.57-1.29,13.42-13.19h16.78C1392.81,56,1386.78,61.31,1362.46,61.31ZM1457.18.91V14.64h-32.79v9.15h29.74v13h-29.74v9.91h32.95V60.39h-49V.91Zm64.39,29.74c0,15.94,1.38,17.69,14.11,17.69s14.11-1.75,14.11-17.69S1548.42,13,1535.68,13,1521.57,14.71,1521.57,30.65ZM1535.68,0c24.71,0,30.88,6.1,30.88,30.65s-6.17,30.66-30.88,30.66-30.88-6.11-30.88-30.66S1511,0,1535.68,0Zm95.41.91V14.64H1598.3V25.31H1628V39H1598.3V60.39h-16V.91Zm49,59.48V.91h29L1718,45.14h.61l9-44.23h28.13V60.39h-16V16.16h-.46l-9,44.23h-24.79l-8.92-44.23h-.46V60.39ZM1773,.91h16V60.39h-16Zm33.27,0h15.17l26.31,32.49h.46V.91h16V60.39h-15.1L1822.71,28h-.46V60.39h-16Zm91.14,29.74.07,16h13c10.83,0,12-1.6,12-16s-1.22-16-12-16h-13ZM1881.44.91h30.73c21.73,0,27.15,6,27.15,29.74s-5.42,29.74-27.15,29.74h-30.73Zm91.9,45V60.39H1955.8V45.9Zm50.51-45h16V60.39h-16Zm48.06,13.73h-18.22V.91h52.61V14.64h-18.38V60.39h-16ZM30.42,168.06C6.1,168.06,0,162,0,137.41s6.1-30.66,30.42-30.66,30.35,5.19,30.2,26H43.84c.16-11.75-1.22-13-13.42-13s-13.65,1.75-13.65,17.69,1.38,17.69,13.65,17.69S44,153.8,43.84,141.91H60.62C60.77,162.8,54.75,168.06,30.42,168.06Zm100.12-.91h-18.3L109,155.56H86.16l-3.58,11.59H65.35l19.59-59.48h26.54Zm-25.46-24.56-7.1-22h-.45l-7.25,22Zm31-34.92h15.18l26.31,32.48H178V107.67h16v59.48h-15.1L152.5,134.74h-.45v32.41H136Zm67.64,0h15.17l26.31,32.48h.46V107.67h16v59.48h-15.1l-26.38-32.41h-.46v32.41h-16Zm82.89,29.74c0,15.94,1.37,17.69,14.1,17.69s14.11-1.75,14.11-17.69-1.37-17.69-14.11-17.69S286.56,121.47,286.56,137.41Zm14.1-30.66c24.71,0,30.89,6.1,30.89,30.66s-6.18,30.65-30.89,30.65-30.88-6.1-30.88-30.65S276,106.75,300.66,106.75Zm53.84,14.64H336.27V107.67h52.62v13.72H370.51v45.76h-16Zm65.57-13.72h16v22.27H459V107.67h16v59.48H459V143.66H436.08v23.49h-16Zm113.39,0v13.72H500.67v9.16h29.74v13H500.67v9.91h32.94v13.73H484.66V107.67Zm70.84,59.48H586l-3.21-11.59H559.92l-3.59,11.59H539.1l19.6-59.48h26.53Zm-25.47-24.56-7.09-22h-.46l-7.24,22Zm47.73-34.92v45.75h29v13.73h-45V107.67Zm114,17.23c0,9.84-3.66,14.49-12,15.63,7.93.84,12,4.35,12,12v14.64H723.78V153.42c0-6.56-.84-7.24-9.15-7.24H702.74v21h-16V107.67h34c15.86,0,19.83,3.43,19.83,17.23ZM716.61,134c7.17,0,7.93-.69,7.93-6.79,0-5.87-.76-6.56-7.93-6.56H702.74V134Zm58.49,34.08c-21.12,0-26.39-5-26.39-25.31V107.67h16v35.08c0,11.13,1.07,12.35,10.37,12.35s10.37-1.22,10.37-12.35V107.67h16v35.08c0,20.28-5.26,25.31-26.38,25.31Zm69.31-60.39c15.86,0,19.83,4,19.83,19.83,0,15.4-3.66,19.44-18.45,20.2H826.42v19.45h-16V107.67ZM840.3,134c7.16,0,7.93-.61,7.93-6.41,0-6.25-.77-6.94-7.93-6.94H826.42V134Zm46.89-12.59H869V107.67h52.62v13.72H903.2v45.76h-16Zm66.26,46.67c-21.12,0-26.38-5-26.38-25.31V107.67h16v35.08c0,11.13,1.07,12.35,10.37,12.35s10.37-1.22,10.37-12.35V107.67h16v35.08c0,20.28-5.26,25.31-26.39,25.31Zm89.14-43.16c0,9.84-3.66,14.49-12,15.63,7.93.84,12,4.35,12,12v14.64h-16.77V153.42c0-6.56-.84-7.24-9.15-7.24h-11.9v21h-16V107.67h34c15.86,0,19.82,3.43,19.82,17.23ZM1018.65,134c7.17,0,7.93-.69,7.93-6.79,0-5.87-.76-6.56-7.93-6.56h-13.88V134Zm81.67-26.31v13.72h-32.79v9.16h29.74v13h-29.74v9.91h32.94v13.73h-49V107.67Zm25,29.74.08,16h13c10.83,0,12-1.6,12-16s-1.22-16-12-16h-13Zm-15.93-29.74h30.73c21.73,0,27.15,6,27.15,29.74s-5.42,29.74-27.15,29.74h-30.73Zm144.8,17.23c0,9.84-3.66,14.49-12,15.63,7.93.84,12,4.35,12,12v14.64h-16.78V153.42c0-6.56-.83-7.24-9.15-7.24h-11.89v21h-16V107.67h34c15.87,0,19.83,3.43,19.83,17.23ZM1230.25,134c7.16,0,7.93-.69,7.93-6.79,0-5.87-.77-6.56-7.93-6.56h-13.88V134Zm81.66-26.31v13.72h-32.79v9.16h29.74v13h-29.74v9.91h33v13.73h-49V107.67Zm25.09,0v45.75h29v13.73h-45V107.67Zm97,59.48h-18.3l-3.2-11.59h-22.88L1386,167.15h-17.24l19.6-59.48h26.54Zm-25.47-24.56-7.09-22H1401l-7.24,22Zm38.89-21.2h-18.22V107.67h52.61v13.72h-18.37v45.76h-16Zm40.64-13.72h16v59.48h-16Zm41,29.74c0,15.94,1.37,17.69,14.11,17.69s14.1-1.75,14.1-17.69-1.37-17.69-14.1-17.69S1529,121.47,1529,137.41Zm14.11-30.66c24.7,0,30.88,6.1,30.88,30.66s-6.18,30.65-30.88,30.65-30.89-6.1-30.89-30.65S1518.4,106.75,1543.11,106.75Zm39,.92h15.17l26.31,32.48h.46V107.67h16v59.48H1625l-26.38-32.41h-.46v32.41h-16Zm105.91,42.63c0-3.44-3-4.88-14.18-7.1-19.45-3.89-24.33-7.55-24.33-18.6,0-14.26,5.65-17.85,27.38-17.85s27.53,4.35,27.53,21.74h-16.78c0-7.93-1.14-8.77-10.75-8.77s-10.6.53-10.6,5c0,3.13,2.21,4.27,10.29,5.95,22.27,4.34,28.22,8.46,28.22,20.43,0,13.58-5.72,16.93-27.91,16.93-22.8,0-28.67-4.19-28.67-20.89H1665c0,7.17,1.22,7.93,11.44,7.93s11.59-.46,11.59-4.8ZM1713,107.67h16v22.27h22.88V107.67h16v59.48h-16V143.66H1729v23.49h-16Zm64.58,0h16v59.48h-16Zm59.71,0c15.86,0,19.82,4,19.82,19.83,0,15.4-3.66,19.44-18.45,20.2h-19.37v19.45h-16V107.67ZM1833.17,134c7.17,0,7.93-.61,7.93-6.41,0-6.25-.76-6.94-7.93-6.94h-13.88V134Zm69.62,16.32c0-3.44-3-4.88-14.19-7.1-19.44-3.89-24.32-7.55-24.32-18.6,0-14.26,5.64-17.85,27.37-17.85,21.89,0,27.53,4.35,27.53,21.74h-16.77c0-7.93-1.15-8.77-10.76-8.77-9.45,0-10.6.53-10.6,5,0,3.13,2.22,4.27,10.3,5.95,22.27,4.34,28.21,8.46,28.21,20.43,0,13.58-5.72,16.93-27.91,16.93-22.8,0-28.67-4.19-28.67-20.89h16.78c0,7.17,1.22,7.93,11.44,7.93s11.59-.46,11.59-4.8Zm43.23,2.36V162c0,9.84-2.67,12.51-12.28,12.51h-5.18V170.2c7.85,0,10-.54,10.37-3h-10.45V152.66Zm50.63-15.25c0,15.94,1.37,17.69,14.11,17.69s14.1-1.75,14.1-17.69-1.37-17.69-14.1-17.69S1996.65,121.47,1996.65,137.41Zm14.11-30.66c24.7,0,30.88,6.1,30.88,30.66s-6.18,30.65-30.88,30.65-30.89-6.1-30.89-30.65S1986.05,106.75,2010.76,106.75Zm92.87,18.15c0,9.84-3.66,14.49-12,15.63,7.93.84,12,4.35,12,12v14.64h-16.77V153.42c0-6.56-.84-7.24-9.15-7.24h-11.9v21h-16V107.67h34c15.86,0,19.82,3.43,19.82,17.23ZM2079.69,134c7.17,0,7.93-.69,7.93-6.79,0-5.87-.76-6.56-7.93-6.56h-13.88V134ZM37.44,214.43c12.89,0,16.78,3.12,16.78,15.48,0,8.54-3.66,12.88-11,14,8.85.92,13.12,5.42,13.12,14.41,0,12.51-4.35,15.64-18.91,15.64H1.52V214.43Zm-4.88,47.28c6.4,0,7.09-.61,7.09-5.88,0-4.19-2.13-6-7.09-6h-15v11.9ZM31,237.61c4.58,0,6.49-1.6,6.49-5.42,0-5-.61-5.56-6.49-5.56H17.54v11Zm60.68,37.21c-21.12,0-26.38-5-26.38-25.32V214.43h16V249.5c0,11.14,1.07,12.36,10.37,12.36s10.37-1.22,10.37-12.36V214.43h16V249.5C118.1,269.79,112.83,274.82,91.71,274.82Zm36.12-60.39h16v59.48h-16Zm42.53,0v45.75h29v13.73h-45V214.43Zm52,29.74.07,16h13c10.83,0,12-1.6,12-16s-1.22-16-12-16h-13Zm-15.94-29.74h30.73c21.73,0,27.15,5.94,27.15,29.74s-5.42,29.74-27.15,29.74H206.41ZM299,273.91V214.43h29l8.92,44.22h.61l9-44.22h28.14v59.48h-16V229.68h-.46l-9,44.23H324.41l-8.92-44.23H315v44.23Zm135-59.48v13.72H401.18v9.15h29.74v13H401.18v9.91h32.94v13.73h-49V214.43Zm71.65,59.48h-18.3l-3.2-11.59H461.24l-3.58,11.59H440.42L460,214.43h26.54Zm-25.47-24.56-7.09-22h-.46l-7.24,22Zm31.78-34.92h15.18l26.3,32.48h.46V214.43h16v59.48H554.79L528.4,241.5h-.46v32.41h-16Zm68.46,0h16v59.48h-16Zm26.51,0h15.18l26.3,32.48h.46V214.43h16v59.48H649.76L623.37,241.5h-.46v32.41h-16ZM733.77,242v31.88H719.28v-9.54c-1.91,7.25-6.79,10.45-15.4,10.45-24,0-30-6.1-30-30.65s6-30.66,30-30.66,30,4.42,29.89,22.12H717c.15-8.24-1.14-9.15-13.11-9.15s-13.27,1.75-13.27,17.69,1.29,17.69,13.27,17.69c9.15,0,13.26-2.29,13.57-7.63h-12.2V242Zm35.49-27.6h16v59.48h-16Zm26.51,0H811l26.31,32.48h.45V214.43h16v59.48h-15.1L812.24,241.5h-.45v32.41h-16ZM879,228.15H860.8V214.43h52.61v13.72H895v45.76H879Zm56.71,16c0,15.93,1.38,17.69,14.11,17.69S964,260.1,964,244.17s-1.37-17.69-14.11-17.69S935.73,228.23,935.73,244.17Zm14.11-30.66c24.71,0,30.88,6.1,30.88,30.66s-6.17,30.65-30.88,30.65S919,268.72,919,244.17,925.13,213.51,949.84,213.51Zm127.38,60.4h-18.3l-3.2-11.59h-22.88l-3.58,11.59H1012l19.6-59.48h26.54Zm-25.47-24.56-7.09-22h-.46l-7.24,22Zm74.31-34.92v45.75h29v13.73h-45V214.43Zm36,0h16v59.48h-16Zm75.32,0v13.72h-32.79v10.68h29.74v13.72h-29.74v21.36h-16V214.43Zm58.54,0v13.72h-32.79v9.15h29.74v13h-29.74v9.91h32.94v13.73h-48.95V214.43Zm50.44,13.72h-18.23V214.43h52.62v13.72h-18.38v45.76h-16Zm41.46-13.72h16v22.26h22.88V214.43h16v59.48h-16V250.42h-22.88v23.49h-16Zm126.41,59.48H1496l-3.2-11.59h-22.88l-3.59,11.59h-17.23l19.6-59.48h26.54Zm-25.47-24.56-7.09-22h-.46l-7.24,22Zm39.71-21.2h-18.23V214.43h52.62v13.72h-18.38v45.76h-16Zm67.21-13.72h16v22.26h22.88V214.43h16v59.48h-16V250.42h-22.88v23.49h-16Zm126.41,59.48h-18.3l-3.2-11.59h-22.88l-3.59,11.59h-17.23l19.6-59.48h26.54Zm-25.47-24.56-7.09-22h-.46l-7.24,22Zm70.82,7.7c0-3.43-3-4.88-14.18-7.09-19.45-3.89-24.33-7.55-24.33-18.6,0-14.26,5.64-17.85,27.38-17.85s27.52,4.35,27.52,21.73H1767.1c0-7.93-1.15-8.76-10.75-8.76s-10.6.53-10.6,5c0,3.12,2.21,4.27,10.29,6,22.27,4.34,28.22,8.46,28.22,20.43,0,13.58-5.72,16.93-27.91,16.93-22.8,0-28.68-4.19-28.68-20.89h16.78c0,7.17,1.22,7.93,11.44,7.93s11.59-.46,11.59-4.81Zm51.5-42.62h15.18l26.31,32.48h.45V214.43h16v59.48h-15.1l-26.38-32.41H1835v32.41h-16Zm83.71,29.74c0,15.93,1.37,17.69,14.11,17.69s14.1-1.76,14.1-17.69-1.37-17.69-14.1-17.69S1902.69,228.23,1902.69,244.17Zm14.11-30.66c24.7,0,30.88,6.1,30.88,30.66s-6.18,30.65-30.88,30.65-30.89-6.1-30.89-30.65S1892.09,213.51,1916.8,213.51Zm39.86.92h15.17l26.31,32.48h.46V214.43h16v59.48h-15.1l-26.38-32.41h-.46v32.41h-16Zm117.26,0v13.72h-32.79v9.15h29.74v13h-29.74v9.91h32.94v13.73h-49V214.43Zm28.19,45v14.49h-17.54V259.42Z"/></g></g></g></g></svg>