<svg xmlns="http://www.w3.org/2000/svg" viewBox="0 0 179.63 21.07"><defs><style>.cls-1{fill:#1d1d1b;}</style></defs><title>3dc4b9b4-f6ad-4459-9415-27bf6b88392b</title><g id="Layer_2" data-name="Layer 2"><g id="Layer_1-2" data-name="Layer 1"><g id="_3dc4b9b4-f6ad-4459-9415-27bf6b88392b" data-name="3dc4b9b4-f6ad-4459-9415-27bf6b88392b"><g id="_977bef60-1c8a-4ad6-80fe-2822f8f15699" data-name="977bef60-1c8a-4ad6-80fe-2822f8f15699"><path class="cls-1" d="M6.86,16.12H6.17l-1.74,0H2.36A8,8,0,0,1,.47,16,.71.71,0,0,1,0,15.22,2.81,2.81,0,0,1,.78,13.7l1.94-2A22.3,22.3,0,0,0,5.2,8.91a4.78,4.78,0,0,0,1-2.61,2.66,2.66,0,0,0-.61-1.86,1.92,1.92,0,0,0-1.48-.67A2.48,2.48,0,0,0,1.77,5.3c-.37.71-.7,1.07-1,1.07C.27,6.37,0,6.1,0,5.55A2.3,2.3,0,0,1,.37,4.22a3.53,3.53,0,0,1,1-.9A5.78,5.78,0,0,1,4.61,2.4a4.13,4.13,0,0,1,3,1A3.57,3.57,0,0,1,8.64,6.13a4.13,4.13,0,0,1-.91,2.52,21.75,21.75,0,0,1-3,3.07C3.31,13,2.61,13.72,2.61,14s.59.32,1.77.32a9.32,9.32,0,0,0,2.43-.21A4,4,0,0,0,8,13.47a1.54,1.54,0,0,1,.84-.42c.21,0,.31.25.31.75a2.69,2.69,0,0,1-.55,2,3,3,0,0,1-1.75.33Zm6.88-7.35v.84a9.39,9.39,0,0,0,.8,4,3.19,3.19,0,0,0,.84,1.1,1.71,1.71,0,0,0,1.09.44h.27a1.68,1.68,0,0,0,1.06-.39,2.61,2.61,0,0,0,.78-1,8,8,0,0,0,.76-3.5l0-.32V9a9.43,9.43,0,0,0-.85-4.17,2.52,2.52,0,0,0-.8-1,1.91,1.91,0,0,0-1.16-.39,2.31,2.31,0,0,0-2,1.49A8.41,8.41,0,0,0,13.74,8.77Zm3,7.56h-.42a4.09,4.09,0,0,1-1.88-.47,5.36,5.36,0,0,1-2.65-3.4,9.9,9.9,0,0,1-.45-3V9.23A8.11,8.11,0,0,1,13,4a4.49,4.49,0,0,1,3.67-1.76A4.7,4.7,0,0,1,20.38,4a6.53,6.53,0,0,1,1.19,2.29A9.15,9.15,0,0,1,22,8.94v.65a8.87,8.87,0,0,1-.41,2.61,5.76,5.76,0,0,1-2.76,3.6A4.43,4.43,0,0,1,16.75,16.33Zm14.67-.21h-.69l-1.73,0H26.93A7.93,7.93,0,0,1,25.05,16a.7.7,0,0,1-.48-.73,2.77,2.77,0,0,1,.79-1.52l1.93-2a22,22,0,0,0,2.47-2.81,4.78,4.78,0,0,0,1-2.61,2.7,2.7,0,0,0-.6-1.86,1.92,1.92,0,0,0-1.47-.67,2.46,2.46,0,0,0-2.3,1.53c-.37.71-.71,1.07-1,1.07-.49,0-.74-.27-.74-.82A2.3,2.3,0,0,1,25,4.22a3.48,3.48,0,0,1,1-.9,5.78,5.78,0,0,1,3.27-.92,4.15,4.15,0,0,1,3,1A3.56,3.56,0,0,1,33.2,6.13a4.18,4.18,0,0,1-.9,2.52,23,23,0,0,1-3,3.07c-1.4,1.24-2.1,2-2.1,2.27s.59.32,1.76.32a9.42,9.42,0,0,0,2.43-.21,4.11,4.11,0,0,0,1.19-.63,1.59,1.59,0,0,1,.85-.42q.3,0,.3.75a2.69,2.69,0,0,1-.55,2A2.93,2.93,0,0,1,31.42,16.12Zm9.7-6.35a22.54,22.54,0,0,0,.18,4,2.11,2.11,0,0,0,.88,1.05c.47.33.71.6.71.82s-.37.47-1.1.47H38.43c-1.11,0-1.66-.18-1.66-.54,0-.19.24-.42.73-.71a2,2,0,0,0,1-1,21,21,0,0,0,.23-4.3,18.74,18.74,0,0,0-.24-4.23,1.14,1.14,0,0,0-1.1-.61q-.87,0-.87-.48c0-.19.17-.37.52-.55a12.2,12.2,0,0,1,1.17-.46c.61-.21,1.12-.4,1.51-.55a2.76,2.76,0,0,1,1-.24.56.56,0,0,1,.52.27,2.15,2.15,0,0,1,.15,1l-.15,2.56,0,.45v.43l0,.9ZM52,18.26V.77c0-.35.05-.57.16-.65A1,1,0,0,1,52.77,0H53a.63.63,0,0,1,.5.15,1.29,1.29,0,0,1,.13.74V4.25l0,.22v9.44c0,3.12,0,4.81,0,5.06a.62.62,0,0,1-.71.6h-.21a.61.61,0,0,1-.51-.17A2.87,2.87,0,0,1,52,18.26ZM67.88,5.36s-.35.48-1,1.45-1.13,1.63-1.4,2L65,9.34l-.47.66-.07.07-.21.31c-.14.19-.3.39-.47.6a1.22,1.22,0,0,0-.26.39v.05s0,0,.11,0H64l1.58,0a7,7,0,0,0,2.12-.13,17.2,17.2,0,0,0,.15-3.38l.06-.82V6.65l0-.83V5.41l0,0Zm-1.1,10.52a4.5,4.5,0,0,1,.34-.7,2.37,2.37,0,0,0,.34-1.06,1,1,0,0,0-.61-1,5.78,5.78,0,0,0-2-.25c-1.8,0-2.7-.25-2.7-.76v-.18q0-1.24,5.67-8.32a2.23,2.23,0,0,1,1.63-1,.63.63,0,0,1,.65.53,25.78,25.78,0,0,1,.1,3.34,18.88,18.88,0,0,0,.24,3.86,1.49,1.49,0,0,0,.85.85c.47.25.7.54.7.89,0,.13-.12.27-.37.42a1.81,1.81,0,0,0-.65.73,2.61,2.61,0,0,0-.27,1.24,1.77,1.77,0,0,0,.21.58,1.66,1.66,0,0,1,.22.79c0,.28-.27.52-.8.72a5.09,5.09,0,0,1-1.81.3h-.44a1.42,1.42,0,0,1-1-.27.85.85,0,0,1-.29-.63Zm9.3.5a1.49,1.49,0,0,1-1-.4,1.27,1.27,0,0,1-.46-1v-.1a1.28,1.28,0,0,1,.48-1,1.45,1.45,0,0,1,1-.4h.19l.24,0a1.12,1.12,0,0,1,.77.4,1.31,1.31,0,0,1,.41.94V15a1.42,1.42,0,0,1-.39.94,1.16,1.16,0,0,1-.89.45l-.24,0Zm9.19-11s-.35.48-1,1.45-1.13,1.63-1.4,2-.41.52-.44.57l-.48.66-.07.07-.21.31c-.14.19-.3.39-.47.6a1.1,1.1,0,0,0-.25.39v.05s0,0,.1,0h.34l1.58,0a7,7,0,0,0,2.12-.13,15.87,15.87,0,0,0,.16-3.38l0-.82V6.65l0-.83V5.41l0,0Zm-1.1,10.52a4.5,4.5,0,0,1,.34-.7,2.37,2.37,0,0,0,.34-1.06,1,1,0,0,0-.61-1,5.78,5.78,0,0,0-2-.25c-1.8,0-2.7-.25-2.7-.76v-.18q0-1.24,5.67-8.32a2.23,2.23,0,0,1,1.63-1,.62.62,0,0,1,.64.53,25.78,25.78,0,0,1,.1,3.34,18.88,18.88,0,0,0,.24,3.86,1.49,1.49,0,0,0,.85.85c.47.25.71.54.71.89,0,.13-.13.27-.38.42a1.81,1.81,0,0,0-.65.73,2.61,2.61,0,0,0-.27,1.24,1.77,1.77,0,0,0,.21.58,1.66,1.66,0,0,1,.22.79c0,.28-.27.52-.8.72a5,5,0,0,1-1.79.3h-.45a1.42,1.42,0,0,1-1-.27A.85.85,0,0,1,84.17,15.88ZM101.84,4.56a2.44,2.44,0,0,0-.43-1.45,1.15,1.15,0,0,0-.9-.6h-.19a1.09,1.09,0,0,0-1,.78A3.9,3.9,0,0,0,99,4.92v.67l0,.32c0,.1,0,.18,0,.23a2.38,2.38,0,0,0,.41,1.26,1.11,1.11,0,0,0,.89.64h.24a1.1,1.1,0,0,0,.86-.58A2.47,2.47,0,0,0,101.84,6V5a3.76,3.76,0,0,1,0-.4Zm8.51,8V12a3.76,3.76,0,0,1,0-.4,2.77,2.77,0,0,0-.54-1.6,1,1,0,0,0-.84-.5h-.19a1.2,1.2,0,0,0-.93.62,2.52,2.52,0,0,0-.43,1.49,1.31,1.31,0,0,0,0,.23l0,.42v.5l0,.3a2.91,2.91,0,0,0,.5,1.53,1,1,0,0,0,.94.52h.07a1.21,1.21,0,0,0,1-.76,3.61,3.61,0,0,0,.41-1.74ZM104,5.12v.24a3.82,3.82,0,0,1-1,2.71,3.26,3.26,0,0,1-2.49,1.08h-.12a2.71,2.71,0,0,1-2.15-1,3.5,3.5,0,0,1-.83-2.36V5.34a3.75,3.75,0,0,1,1-2.56,3.1,3.1,0,0,1,2.42-1.1h.35a2.61,2.61,0,0,1,2,1A3.64,3.64,0,0,1,104,5.12Zm5.09-3.51h.17c.34,0,.51.09.51.28a3,3,0,0,1-.45.9q-4.86,8-7.77,12.3c-.49.72-.93,1.08-1.33,1.08s-.6-.09-.6-.27q0-.64,8.22-13.2c.48-.73.9-1.09,1.25-1.09Zm3.17,10.5v.59a3.51,3.51,0,0,1-.9,2.37,2.84,2.84,0,0,1-2.23,1h-.35a2.68,2.68,0,0,1-2-1,3.33,3.33,0,0,1-.88-2.35v-.6a3.54,3.54,0,0,1,.88-2.38,2.93,2.93,0,0,1,2.32-1h.11a2.86,2.86,0,0,1,2.17,1A3.33,3.33,0,0,1,112.28,12.11Zm8.87,6.15V.77c0-.35,0-.57.16-.65a1,1,0,0,1,.56-.12h.22a.63.63,0,0,1,.5.15,1.41,1.41,0,0,1,.12.74v13c0,3.12,0,4.81,0,5.06a.62.62,0,0,1-.71.6h-.22a.6.6,0,0,1-.5-.17,2.87,2.87,0,0,1-.12-1.14Zm15.52-8.49a22.54,22.54,0,0,0,.18,4,2.16,2.16,0,0,0,.88,1.05c.47.33.71.6.71.82s-.36.47-1.09.47H134c-1.11,0-1.66-.18-1.66-.54,0-.19.24-.42.73-.71a2,2,0,0,0,1-1,21,21,0,0,0,.23-4.3A18.74,18.74,0,0,0,134,5.29a1.15,1.15,0,0,0-1.11-.61q-.87,0-.87-.48c0-.19.18-.37.53-.55a10.63,10.63,0,0,1,1.16-.46c.61-.21,1.12-.4,1.52-.55a2.67,2.67,0,0,1,1-.24.54.54,0,0,1,.52.27,2,2,0,0,1,.16,1l-.15,2.56,0,.45v.43l0,.9Zm11.41,6.35h-.69l-1.73,0h-2.07a7.93,7.93,0,0,1-1.88-.12.7.7,0,0,1-.48-.73A2.77,2.77,0,0,1,142,13.7l1.93-2a22.83,22.83,0,0,0,2.47-2.81,4.78,4.78,0,0,0,1-2.61,2.7,2.7,0,0,0-.6-1.86,1.92,1.92,0,0,0-1.48-.67A2.45,2.45,0,0,0,143,5.3c-.37.71-.71,1.07-1,1.07-.49,0-.74-.27-.74-.82a2.3,2.3,0,0,1,.35-1.33,3.48,3.48,0,0,1,1-.9,5.78,5.78,0,0,1,3.27-.92,4.15,4.15,0,0,1,3,1,3.56,3.56,0,0,1,1.06,2.72,4.18,4.18,0,0,1-.9,2.52,23,23,0,0,1-3,3.07c-1.41,1.24-2.1,2-2.1,2.27s.59.32,1.76.32A9.42,9.42,0,0,0,148,14.1a4.11,4.11,0,0,0,1.19-.63,1.59,1.59,0,0,1,.85-.42q.3,0,.3.75a2.69,2.69,0,0,1-.55,2,2.93,2.93,0,0,1-1.75.33Zm8.53-11.74h0c-1.07,0-1.61.68-1.61,2,0,.61.11,1,.33,1.16a3.09,3.09,0,0,0,1.19.12,5.58,5.58,0,0,1,3.64,1.09,4.29,4.29,0,0,1,1.2,1.5,3.84,3.84,0,0,1,.4,1.65v.35a4.27,4.27,0,0,1-1.49,3.3,5.44,5.44,0,0,1-3.77,1.34h-.34a5.29,5.29,0,0,1-2.27-.49c-.71-.33-1.06-.73-1.06-1.21v-.28c0-.51.29-.76.87-.76a2.67,2.67,0,0,1,1.24.66,3.08,3.08,0,0,0,1.83.65,2.37,2.37,0,0,0,2-1.09,3.82,3.82,0,0,0,.54-2.21A2.92,2.92,0,0,0,159,11a2.77,2.77,0,0,0-.79-1,4.24,4.24,0,0,0-2.7-.73l-.32,0h-.7a.78.78,0,0,1-.73-.37,3.43,3.43,0,0,1-.23-1.54,12.86,12.86,0,0,1,.29-2.55,5.06,5.06,0,0,1,.53-1.69c.27-.33,1.3-.5,3.07-.5a14.19,14.19,0,0,0,2.34-.13l.31-.06a2.9,2.9,0,0,1,.56-.09c.51,0,.76.26.76.79,0,.93-.56,1.39-1.67,1.39q-.61,0-1.08,0l-.68,0-1.35,0ZM174,6.4h-.27a1.47,1.47,0,0,0-1.1.65,2.34,2.34,0,0,0-.53,1.51l0,.17v.63a3,3,0,0,0,.48,1.79,1.62,1.62,0,0,0,1.42.68h.08a1.63,1.63,0,0,0,1.25-.57,2.2,2.2,0,0,0,.52-1.53V9.32a3.73,3.73,0,0,1,0-.42,2.84,2.84,0,0,0-.56-1.75A1.57,1.57,0,0,0,174,6.4Zm-.94,9.46a1.73,1.73,0,0,0-1.27.53,1.76,1.76,0,0,0-.52,1.31v.08a1.7,1.7,0,0,0,.71,1.43,3.2,3.2,0,0,0,2,.52h.28a3.89,3.89,0,0,0,2.39-.68,2,2,0,0,0,.9-1.6v-.08a1.17,1.17,0,0,0-.5-1,1.91,1.91,0,0,0-1.18-.37c-.28,0-.49,0-.62,0l-.36,0h-.18l-.64,0-.43,0Zm6.54-9.57c0,.4-.26.66-.77.77s-.76.32-.76.63l0,.22,0,.26.06.28a8,8,0,0,1,.05,1,2.86,2.86,0,0,1-.36,1.32c-.67,1.25-2,1.94-3.9,2.06a5,5,0,0,0-1.18.16.73.73,0,0,0-.55.71c0,.33.27.57.82.71.07,0,.78.09,2.11.2a8.38,8.38,0,0,1,2.68.5,2.2,2.2,0,0,1,1.41,2A3.32,3.32,0,0,1,177.75,20a7,7,0,0,1-4.08,1.1,5.89,5.89,0,0,1-3-.68,2.74,2.74,0,0,1-.88-.81,1.82,1.82,0,0,1-.33-1,2.31,2.31,0,0,1,.56-1.58,9.68,9.68,0,0,0,.91-1.06,2.24,2.24,0,0,0-.4-.57,1.66,1.66,0,0,1-.39-1,1.93,1.93,0,0,1,.52-1.18,3.59,3.59,0,0,0,.51-.7,7.51,7.51,0,0,0-.64-1.09,3.72,3.72,0,0,1-.63-1.94,3.29,3.29,0,0,1,.39-1.62c.75-1.36,2.13-2,4.16-2h.31l1.48.1.54,0h.57l1.12-.07C179.26,5.8,179.63,6,179.63,6.29Z"/></g></g></g></g></svg>