<svg xmlns="http://www.w3.org/2000/svg" viewBox="0 0 284.58 1303.66"><defs><style>.cls-1{fill:none;stroke-width:5.71px;}.cls-1,.cls-2{stroke:#3b3b3b;stroke-linecap:round;stroke-miterlimit:10;}.cls-2{fill:#3b3b3b;stroke-width:1.65px;}.cls-3{fill:#f9f9f9;}</style></defs><title>Asset 60</title><g id="Layer_2" data-name="Layer 2"><g id="Layer_1-2" data-name="Layer 1"><g id="_97724727-2b2b-4b9f-9560-c983c9e893ff" data-name="97724727-2b2b-4b9f-9560-c983c9e893ff"><g id="_9061f550-fc10-48c7-a5b0-b90217b4884c" data-name="9061f550-fc10-48c7-a5b0-b90217b4884c"><path d="M189,336.66h-8.64v-4H203.6v8.9a9,9,0,0,1-2,6.18,6.8,6.8,0,0,1-5.36,2.29,6.62,6.62,0,0,1-5.33-2.24,9.47,9.47,0,0,1-1.89-6.28Zm3.24,0v4.86a4.72,4.72,0,0,0,1,3.28,3.73,3.73,0,0,0,2.94,1.14,4,4,0,0,0,3-1.15,4.48,4.48,0,0,0,1.16-3.16v-5Zm-2.92,25.74v-4.51h-9v-4H203.6V362a9.49,9.49,0,0,1-1.81,6.22,6.37,6.37,0,0,1-5.22,2.19,6.54,6.54,0,0,1-3.9-1.13,7.08,7.08,0,0,1-2.42-3.14l-9.7,5.22h-.2v-4.33Zm3.24-4.51V362a4.63,4.63,0,0,0,1,3.2,3.61,3.61,0,0,0,2.82,1.15,3.84,3.84,0,0,0,2.89-1.06,4.63,4.63,0,0,0,1.05-3.18v-4.26Zm-12.2,21v-4H203.6v4Zm11,23.85a14.21,14.21,0,0,1-6-1.18,9.05,9.05,0,0,1-4-3.38,10,10,0,0,1,0-10.09,9.23,9.23,0,0,1,3.94-3.42,13.91,13.91,0,0,1,5.9-1.22h1.31a14,14,0,0,1,6,1.21,8.9,8.9,0,0,1,4,3.4,9.88,9.88,0,0,1,0,10.07,8.9,8.9,0,0,1-3.92,3.4,14.1,14.1,0,0,1-6,1.21Zm1.21-4a10.15,10.15,0,0,0,5.93-1.46,5.17,5.17,0,0,0,0-8.24,10,10,0,0,0-5.81-1.51h-1.34a10,10,0,0,0-5.93,1.5,5.17,5.17,0,0,0-.05,8.27,10.35,10.35,0,0,0,6,1.44Zm-3.27,16.94v-4.51h-9v-4H203.6v8.18a9.46,9.46,0,0,1-1.81,6.21,6.37,6.37,0,0,1-5.22,2.19,6.54,6.54,0,0,1-3.9-1.12,7.16,7.16,0,0,1-2.42-3.15l-9.7,5.23h-.2v-4.33Zm3.24-4.51v4.16a4.6,4.6,0,0,0,1,3.19,3.61,3.61,0,0,0,2.82,1.15,3.81,3.81,0,0,0,2.89-1.06,4.6,4.6,0,0,0,1.05-3.17v-4.27Zm-12.2,21v-4H203.6v4Zm20,21.63v-7.25h-20v-4h20v-7.19h3.26v18.45Zm-20,7.64v-4H203.6v4Zm3.22,9.09v12.43h-3.22V465.54H183l17.38,12V465.62h3.26v16.85h-2.55Zm7.15,29.81v-9.55h-7.15v11.16h-3.22v-15.2H203.6v15.09h-3.26V490.68h-6.42v9.55Zm-5.31,21.89L203.6,528v4.45l-23.25-8.38v-3.91l23.25-8.33v4.42Zm.35,25.12v-9l-5.41-1.89v-4.2l23.25,8.79v3.63l-23.25,8.79v-4.22Zm3.26-7.88v6.74l9.65-3.37Zm-5.45,21v10.56h-3.22v-14.6H203.6v4Zm20,30.61H188.06a7.55,7.55,0,0,1-5.87-2.37,10.4,10.4,0,0,1,0-12.65,7.57,7.57,0,0,1,5.91-2.35H203.6v4H188a4.94,4.94,0,0,0-3.56,1.18,4.6,4.6,0,0,0-1.23,3.48q0,4.66,4.92,4.66H203.6Zm-12.88,18.23v-9.55h-7.15V610.8h-3.22V595.6H203.6v15.09h-3.26V599.64h-6.42v9.55Zm-4.38,17.38a2.77,2.77,0,0,0,2.36-1.08,12.85,12.85,0,0,0,1.67-3.88,19,19,0,0,1,1.89-4.47,6,6,0,0,1,5.21-3.18,5.69,5.69,0,0,1,4.63,2.28,9.31,9.31,0,0,1,1.82,6,10.19,10.19,0,0,1-.89,4.33,7.1,7.1,0,0,1-2.56,3,6.43,6.43,0,0,1-3.66,1.09v-4a3.63,3.63,0,0,0,2.85-1.14,4.69,4.69,0,0,0,1-3.26,4.89,4.89,0,0,0-.86-3.08,2.8,2.8,0,0,0-2.36-1.09,2.54,2.54,0,0,0-2.13,1.18,13.77,13.77,0,0,0-1.66,3.89,17.77,17.77,0,0,1-1.84,4.36,7,7,0,0,1-2.36,2.42,6.17,6.17,0,0,1-3.12.77,5.51,5.51,0,0,1-4.62-2.23,9.64,9.64,0,0,1-1.72-6,11.41,11.41,0,0,1,.93-4.64,7.89,7.89,0,0,1,2.58-3.29,6.46,6.46,0,0,1,3.83-1.17v4a3.78,3.78,0,0,0-3.06,1.3,5.79,5.79,0,0,0-1.09,3.76,5,5,0,0,0,.86,3.17,2.73,2.73,0,0,0,2.26,1.06Zm-.58,29.4v-9l-5.41-1.87v-4.21l23.25,8.78v3.63l-23.25,8.8v-4.22ZM189,648.1v6.74l9.65-3.37Zm-8.67,35.4v-4l16.49-10.36H180.35v-4.05H203.6v4.05L187,679.49H203.6v4Zm0,5.1H203.6v6.87a10.74,10.74,0,0,1-1.38,5.47,9.3,9.3,0,0,1-3.89,3.69,12.28,12.28,0,0,1-5.78,1.31h-1.17a12.29,12.29,0,0,1-5.81-1.32,9.13,9.13,0,0,1-3.86-3.75,11.2,11.2,0,0,1-1.36-5.58Zm20,4H183.57v2.64a6.06,6.06,0,0,0,2,4.88,8.68,8.68,0,0,0,5.71,1.72h1.29a8.94,8.94,0,0,0,5.79-1.64,5.82,5.82,0,0,0,2-4.77Zm-9.62,39.72v-9.55h-7.15V734h-3.22V718.76H203.6v15.1h-3.26V722.81h-6.42v9.55Zm9.62,22.34v-7.25h-20v-4h20v-7.19h3.26V754.7Zm-20,21.84v-4h10.33v-10.4H180.35v-4H203.6v4h-9.68v10.4h9.68v4Zm0,9.37v-4H203.6v4Zm7.56,23a8.4,8.4,0,0,1-5.8-2.75,9.36,9.36,0,0,1-2.08-6.37,9.13,9.13,0,0,1,1.31-4.9,8.61,8.61,0,0,1,3.75-3.26,13.37,13.37,0,0,1,5.63-1.2h2.18a13.59,13.59,0,0,1,5.8,1.17,8.66,8.66,0,0,1,3.86,3.34,9.33,9.33,0,0,1,1.36,5,9,9,0,0,1-2.09,6.2,8.76,8.76,0,0,1-5.91,2.73v-4a5.73,5.73,0,0,0,3.61-1.46,4.83,4.83,0,0,0,1.12-3.44,4.73,4.73,0,0,0-1.93-4,9.63,9.63,0,0,0-5.65-1.44H191a10.22,10.22,0,0,0-5.75,1.35,4.47,4.47,0,0,0-2,4,5.23,5.23,0,0,0,1.08,3.58,5.57,5.57,0,0,0,3.55,1.51ZM186.34,825A2.8,2.8,0,0,0,188.7,824a13.05,13.05,0,0,0,1.67-3.89,19,19,0,0,1,1.89-4.47,6,6,0,0,1,5.21-3.18,5.67,5.67,0,0,1,4.63,2.29,9.3,9.3,0,0,1,1.82,5.95A10.12,10.12,0,0,1,203,825a7.13,7.13,0,0,1-2.56,3,6.49,6.49,0,0,1-3.66,1.08v-4a3.6,3.6,0,0,0,2.85-1.15,4.66,4.66,0,0,0,1-3.26,4.86,4.86,0,0,0-.86-3.07,2.81,2.81,0,0,0-2.36-1.1,2.55,2.55,0,0,0-2.13,1.19,13.51,13.51,0,0,0-1.66,3.89,18.11,18.11,0,0,1-1.84,4.36,7,7,0,0,1-2.36,2.41,6.16,6.16,0,0,1-3.12.76,5.53,5.53,0,0,1-4.62-2.22A9.64,9.64,0,0,1,180,820.8a11.45,11.45,0,0,1,.93-4.64,7.92,7.92,0,0,1,2.58-3.28,6.4,6.4,0,0,1,3.83-1.18v4a3.75,3.75,0,0,0-3.06,1.31,5.74,5.74,0,0,0-1.09,3.75,5,5,0,0,0,.86,3.17,2.74,2.74,0,0,0,2.26,1.07Zm5,34.94a14.21,14.21,0,0,1-6-1.18,9.05,9.05,0,0,1-4-3.38,10,10,0,0,1,0-10.1,9.14,9.14,0,0,1,3.94-3.41,13.91,13.91,0,0,1,5.9-1.23h1.31a14.19,14.19,0,0,1,6,1.21,9,9,0,0,1,4,3.4,9.89,9.89,0,0,1,0,10.08,9,9,0,0,1-3.92,3.4,14.26,14.26,0,0,1-6,1.21Zm1.21-4a10.15,10.15,0,0,0,5.93-1.46,5.17,5.17,0,0,0,0-8.24,10,10,0,0,0-5.81-1.51h-1.34a10.13,10.13,0,0,0-5.93,1.49,4.82,4.82,0,0,0-2.09,4.14,4.75,4.75,0,0,0,2,4.13,10.27,10.27,0,0,0,6,1.45Zm-7.17,16.23,18.19,5.91v4.44l-23.25-8.37v-3.91l23.25-8.34v4.43Zm5.31,26.89v-9.55h-7.15v11.16h-3.22v-15.2H203.6v15.09h-3.26v-11h-6.42v9.55Zm-1.41,13.77v-4.51h-9v-4H203.6v8.17a9.51,9.51,0,0,1-1.81,6.22,6.4,6.4,0,0,1-5.22,2.19,6.54,6.54,0,0,1-3.9-1.13,7.13,7.13,0,0,1-2.42-3.14l-9.7,5.22h-.2v-4.33Zm3.24-4.51v4.16a4.65,4.65,0,0,0,1,3.2,3.6,3.6,0,0,0,2.82,1.14,3.81,3.81,0,0,0,2.89-1.06,4.58,4.58,0,0,0,1.05-3.17v-4.27ZM190.2,946.9v-9.36h-9.85v-4H203.6v14.77h-3.26V937.54h-6.92v9.36Zm-9.85,9.15v-4H203.6v4Zm0,23.74v-4l16.49-10.37H180.35v-4H203.6v4L187,975.79H203.6v4Zm5.41,18.41v-9l-5.41-1.89v-4.19l23.25,8.78v3.62l-23.25,8.81v-4.22Zm3.26-7.87v6.74l9.65-3.38Zm-8.67,35.39v-4l16.49-10.37H180.35v-4H203.6v4L187,1021.71H203.6v4Zm7.56,22.84a8.39,8.39,0,0,1-5.8-2.74,9.39,9.39,0,0,1-2.08-6.38,9.12,9.12,0,0,1,1.31-4.89,8.61,8.61,0,0,1,3.75-3.26,13.37,13.37,0,0,1,5.63-1.2h2.18a13.59,13.59,0,0,1,5.8,1.17,8.66,8.66,0,0,1,3.86,3.34,9.28,9.28,0,0,1,1.36,5,9,9,0,0,1-2.09,6.19,8.72,8.72,0,0,1-5.91,2.73v-4a5.73,5.73,0,0,0,3.61-1.46,4.84,4.84,0,0,0,1.12-3.44,4.73,4.73,0,0,0-1.93-4.05,9.7,9.7,0,0,0-5.65-1.45H191a10.22,10.22,0,0,0-5.75,1.36,4.46,4.46,0,0,0-2,3.94,5.24,5.24,0,0,0,1.08,3.59,5.62,5.62,0,0,0,3.55,1.51Zm-7.56,8.2v-4H203.6v4Zm5.41,18.6v-9l-5.41-1.88v-4.2l23.25,8.79v3.62l-23.25,8.8v-4.22Zm3.26-7.87v6.74l9.65-3.37Zm-5.45,21V1099h-3.22v-14.6H203.6v4Zm-.21,40.28a7.82,7.82,0,0,1-2.49-3.5,14.35,14.35,0,0,1-.84-5.08,10,10,0,0,1,1.32-5.17,8.79,8.79,0,0,1,3.8-3.48,13.27,13.27,0,0,1,5.75-1.26h1.82q5.26,0,8.24,2.52a8.76,8.76,0,0,1,3,7A9.25,9.25,0,0,1,202,1126a8.28,8.28,0,0,1-5.52,2.75v-4c2.8-.44,4.2-2.07,4.2-4.87a4.77,4.77,0,0,0-2-4.13,9.89,9.89,0,0,0-5.74-1.46h-1.79a9.46,9.46,0,0,0-5.85,1.59,5.21,5.21,0,0,0-2.09,4.41q0,3.11,1.41,4.41h4.55v-4.79h3.07v8.82Zm2.4,17.78v-9l-5.41-1.89v-4.19l23.25,8.78v3.63l-23.25,8.8v-4.22Zm3.26-7.87v6.73l9.65-3.37Zm-8.67,21.22v-4H203.6v4Zm0,23.73v-4l16.49-10.37H180.35v-4H203.6v4L187,1179.61H203.6v4Zm20,29.42v-7.25h-20v-4h20v-7.19h3.26V1213Zm-9,21.49a14.21,14.21,0,0,1-6-1.19,9,9,0,0,1-4-3.37,10,10,0,0,1,0-10.09,9.18,9.18,0,0,1,3.94-3.43,13.76,13.76,0,0,1,5.9-1.21h1.31a14,14,0,0,1,6,1.2,9,9,0,0,1,4,3.4,9.17,9.17,0,0,1,1.39,5,9.29,9.29,0,0,1-1.37,5,8.94,8.94,0,0,1-3.92,3.39,14.1,14.1,0,0,1-6,1.22Zm1.21-4a10.15,10.15,0,0,0,5.93-1.46,5.17,5.17,0,0,0,0-8.24,10,10,0,0,0-5.81-1.51h-1.34a10,10,0,0,0-5.93,1.5,4.81,4.81,0,0,0-2.09,4.14,4.76,4.76,0,0,0,2,4.13,10.35,10.35,0,0,0,6,1.44ZM144.41,412v-9.36h-9.86v-4h23.26v14.77h-3.26V402.68h-6.91V412Zm1.17,23.46a14.24,14.24,0,0,1-6-1.19,9,9,0,0,1-4-3.37,9.93,9.93,0,0,1,0-10.1,9.14,9.14,0,0,1,3.93-3.42,13.94,13.94,0,0,1,5.9-1.22h1.3a14.05,14.05,0,0,1,6,1.21,9,9,0,0,1,4,3.4,9.3,9.3,0,0,1,1.38,5,9.46,9.46,0,0,1-1.36,5,9,9,0,0,1-3.94,3.39,14.05,14.05,0,0,1-6,1.22Zm1.21-4.05a10.25,10.25,0,0,0,5.93-1.45,5.16,5.16,0,0,0,0-8.25,10,10,0,0,0-5.8-1.5h-1.34a10,10,0,0,0-5.92,1.49,5.17,5.17,0,0,0-.06,8.27,10.35,10.35,0,0,0,6,1.44ZM140.55,452a2.8,2.8,0,0,0,2.36-1.08,13.28,13.28,0,0,0,1.68-3.89,18.8,18.8,0,0,1,1.88-4.47,6,6,0,0,1,5.21-3.17,5.67,5.67,0,0,1,4.63,2.29,9.25,9.25,0,0,1,1.82,5.94,10.12,10.12,0,0,1-.89,4.33,7.11,7.11,0,0,1-2.55,3A6.58,6.58,0,0,1,151,456v-4a3.61,3.61,0,0,0,2.85-1.15,4.66,4.66,0,0,0,1-3.26,4.86,4.86,0,0,0-.84-3.07,2.81,2.81,0,0,0-2.36-1.1,2.57,2.57,0,0,0-2.14,1.19,13.36,13.36,0,0,0-1.66,3.89,17.39,17.39,0,0,1-1.84,4.36,6.82,6.82,0,0,1-2.36,2.41,6,6,0,0,1-3.12.77,5.54,5.54,0,0,1-4.62-2.22,9.66,9.66,0,0,1-1.72-6.05,11.25,11.25,0,0,1,.94-4.64,7.79,7.79,0,0,1,2.57-3.29,6.38,6.38,0,0,1,3.83-1.18v4a3.72,3.72,0,0,0-3.06,1.31,5.68,5.68,0,0,0-1.08,3.75,4.93,4.93,0,0,0,.85,3.16,2.74,2.74,0,0,0,2.26,1.07Zm14,24.71v-7.25h-20v-4h20v-7.19h3.26v18.45Zm-9.61,17v-9.55h-7.15v11.16h-3.24v-15.2h23.26v15.09h-3.26V484.13h-6.42v9.55Zm-1.42,13.77V503h-9v-4h23.26v8.18A9.54,9.54,0,0,1,156,513.3a6.38,6.38,0,0,1-5.22,2.18,6.51,6.51,0,0,1-3.9-1.12,7.23,7.23,0,0,1-2.42-3.13l-9.7,5.22h-.21v-4.33Zm3.23-4.5v4.15a4.63,4.63,0,0,0,1,3.2,3.56,3.56,0,0,0,2.82,1.15,3.81,3.81,0,0,0,2.89-1.07,4.5,4.5,0,0,0,1.05-3.16V503Zm-9.17,43a7.59,7.59,0,0,1-2.49-3.49,14.19,14.19,0,0,1-.85-5.09,9.93,9.93,0,0,1,1.33-5.17,8.72,8.72,0,0,1,3.78-3.47,13.2,13.2,0,0,1,5.76-1.27h1.83q5.26,0,8.23,2.52a8.76,8.76,0,0,1,3,7,9.28,9.28,0,0,1-1.92,6.17,8.23,8.23,0,0,1-5.52,2.74v-4c2.8-.44,4.2-2.07,4.2-4.87a4.74,4.74,0,0,0-2-4.12,9.94,9.94,0,0,0-5.74-1.47H145.4a9.52,9.52,0,0,0-5.86,1.6,5.24,5.24,0,0,0-2.07,4.41c0,2.06.47,3.54,1.4,4.4h4.55v-4.79h3.06v8.82Zm7.36,18.36v-9.55h-7.15v11.16h-3.24v-15.2h23.26V565.8h-3.26v-11h-6.42v9.55ZM134.55,588v-4.05l16.5-10.36h-16.5v-4h23.26v4L141.25,584h16.56v4Zm23.26,22.1H142.27a7.52,7.52,0,0,1-5.87-2.37,10.4,10.4,0,0,1,0-12.65,7.58,7.58,0,0,1,5.92-2.35h15.52v4H142.26a5,5,0,0,0-3.57,1.19,4.57,4.57,0,0,0-1.22,3.47c0,3.12,1.64,4.67,4.92,4.67h15.42ZM134.55,619v-4h23.26v4Zm0,23.74v-4l16.5-10.37h-16.5v-4h23.26v4l-16.56,10.4h16.56v4Zm10.39,18.69v-9.55h-7.15V663h-3.24v-15.2h23.26v15.09h-3.26v-11h-6.42v9.55Zm-2.81,31.44a8.38,8.38,0,0,1-5.81-2.75,9.33,9.33,0,0,1-2.08-6.36,9,9,0,0,1,1.32-4.9,8.61,8.61,0,0,1,3.74-3.27,13.57,13.57,0,0,1,5.64-1.19h2.17a13.77,13.77,0,0,1,5.8,1.16,8.74,8.74,0,0,1,3.86,3.35,9.41,9.41,0,0,1,1.36,5,9,9,0,0,1-2.1,6.19,8.69,8.69,0,0,1-5.9,2.73v-4a5.73,5.73,0,0,0,3.61-1.46,4.83,4.83,0,0,0,1.12-3.44,4.73,4.73,0,0,0-1.93-4.05,9.54,9.54,0,0,0-5.64-1.45h-2.06a10.22,10.22,0,0,0-5.76,1.35,4.5,4.5,0,0,0-2,4,5.23,5.23,0,0,0,1.07,3.57,5.55,5.55,0,0,0,3.56,1.52Zm3.45,22.5a14.24,14.24,0,0,1-6-1.19,9,9,0,0,1-4-3.37,9.91,9.91,0,0,1,0-10.09,9.1,9.1,0,0,1,3.93-3.43,13.79,13.79,0,0,1,5.9-1.21h1.3a14.05,14.05,0,0,1,6,1.2,9,9,0,0,1,4,3.4,9.3,9.3,0,0,1,1.38,5,9.41,9.41,0,0,1-1.36,5,9,9,0,0,1-3.94,3.39,14.05,14.05,0,0,1-6,1.22Zm1.21-4.05a10.25,10.25,0,0,0,5.93-1.45,5.16,5.16,0,0,0,0-8.25,10.06,10.06,0,0,0-5.8-1.51h-1.34a10,10,0,0,0-5.92,1.5,5.17,5.17,0,0,0-.06,8.27,10.27,10.27,0,0,0,6,1.44Zm-12.24,26.84v-4l16.5-10.37h-16.5v-4h23.26v4l-16.56,10.4h16.56v4Zm0,23.55v-4l16.5-10.37h-16.5v-4h23.26v4L141.25,757.7h16.56v4Zm10.39,18.69v-9.55h-7.15V782h-3.24V766.8h23.26v15.1h-3.26V770.84h-6.42v9.55Zm-2.81,23a8.39,8.39,0,0,1-5.81-2.76,9.32,9.32,0,0,1-2.08-6.36,9,9,0,0,1,1.32-4.9,8.74,8.74,0,0,1,3.74-3.27,13.57,13.57,0,0,1,5.64-1.19h2.17a13.77,13.77,0,0,1,5.8,1.16,8.8,8.8,0,0,1,3.86,3.35,9.41,9.41,0,0,1,1.36,5,9,9,0,0,1-2.1,6.2,8.74,8.74,0,0,1-5.9,2.73v-4a5.73,5.73,0,0,0,3.61-1.46,4.83,4.83,0,0,0,1.12-3.44,4.74,4.74,0,0,0-1.93-4.05,9.62,9.62,0,0,0-5.64-1.44h-2.06a10.22,10.22,0,0,0-5.76,1.34,4.5,4.5,0,0,0-2,4,5.22,5.22,0,0,0,1.07,3.57,5.55,5.55,0,0,0,3.56,1.52Zm12.42,20.27v-7.25h-20v-4h20v-7.19h3.26v18.45Zm-20,7.64v-4h23.26v4Zm11,23.85a14.25,14.25,0,0,1-6-1.18,9,9,0,0,1-4-3.38,9.91,9.91,0,0,1,0-10.09,9.14,9.14,0,0,1,3.93-3.42,13.94,13.94,0,0,1,5.9-1.22h1.3a14.05,14.05,0,0,1,6,1.21,9,9,0,0,1,4,3.4,9.24,9.24,0,0,1,1.38,5,9.41,9.41,0,0,1-1.36,5,9,9,0,0,1-3.94,3.4,14.06,14.06,0,0,1-6,1.21Zm1.21-4a10.17,10.17,0,0,0,5.93-1.46,5.15,5.15,0,0,0,0-8.24,10.06,10.06,0,0,0-5.8-1.51h-1.34a10.09,10.09,0,0,0-5.92,1.49,5.18,5.18,0,0,0-.06,8.28,10.35,10.35,0,0,0,6,1.44Zm-12.24,26.84v-4l16.5-10.36h-16.5v-4h23.26v4l-16.56,10.39h16.56v4Zm6,17.25a2.79,2.79,0,0,0,2.36-1.07,13.28,13.28,0,0,0,1.68-3.89,18.62,18.62,0,0,1,1.88-4.47,6,6,0,0,1,5.21-3.18,5.67,5.67,0,0,1,4.63,2.29,9.3,9.3,0,0,1,1.82,5.95,10.19,10.19,0,0,1-.89,4.33,7.08,7.08,0,0,1-2.55,3,6.58,6.58,0,0,1-3.67,1.09v-4a3.67,3.67,0,0,0,2.85-1.13,4.74,4.74,0,0,0,1-3.28,4.87,4.87,0,0,0-.84-3.07,2.81,2.81,0,0,0-2.36-1.1,2.57,2.57,0,0,0-2.14,1.19,13.45,13.45,0,0,0-1.66,3.9,17.3,17.3,0,0,1-1.84,4.35,6.82,6.82,0,0,1-2.36,2.41,6,6,0,0,1-3.12.78A5.52,5.52,0,0,1,136,897a9.64,9.64,0,0,1-1.72-6,11.25,11.25,0,0,1,.94-4.64,7.79,7.79,0,0,1,2.57-3.29,6.44,6.44,0,0,1,3.83-1.17v4a3.75,3.75,0,0,0-3.06,1.31,5.68,5.68,0,0,0-1.08,3.75,5,5,0,0,0,.85,3.17,2.73,2.73,0,0,0,2.26,1.06Zm-.58,29.4v-9l-5.42-1.88v-4.2l23.26,8.79v3.62l-23.26,8.8v-4.22Zm3.26-7.87v6.74l9.64-3.37Zm-8.68,35.4v-4l16.5-10.37h-16.5v-4h23.26v4l-16.56,10.4h16.56v4Zm0,5.1h23.26v6.87a10.86,10.86,0,0,1-1.37,5.47,9.47,9.47,0,0,1-3.9,3.7,12.53,12.53,0,0,1-5.79,1.3h-1.16a12.41,12.41,0,0,1-5.81-1.31,9.21,9.21,0,0,1-3.86-3.76,11.2,11.2,0,0,1-1.37-5.58Zm20,4H137.79v2.64a6.1,6.1,0,0,0,2,4.88,8.68,8.68,0,0,0,5.71,1.72h1.3a8.93,8.93,0,0,0,5.78-1.64,5.85,5.85,0,0,0,2-4.77Zm-16.76,30.17V1002h-3.24V987.37h23.26v4Zm7.79,31.51a14.25,14.25,0,0,1-6-1.18,8.84,8.84,0,0,1-4-3.38,9.91,9.91,0,0,1,0-10.09,9.06,9.06,0,0,1,3.93-3.41,13.79,13.79,0,0,1,5.9-1.23h1.3a14.2,14.2,0,0,1,6,1.21,9,9,0,0,1,4,3.4,9.25,9.25,0,0,1,1.38,5,9.4,9.4,0,0,1-1.36,5,9,9,0,0,1-3.94,3.4,14.06,14.06,0,0,1-6,1.21Zm1.21-4a10.16,10.16,0,0,0,5.93-1.47,5.15,5.15,0,0,0,0-8.24,10.06,10.06,0,0,0-5.8-1.51h-1.34a10,10,0,0,0-5.92,1.5,5.17,5.17,0,0,0-.06,8.27,10.35,10.35,0,0,0,6,1.45Zm-12.24,26.83v-4l16.5-10.36h-16.5v-4h23.26v4l-16.56,10.39h16.56v4Zm3,22.92a7.59,7.59,0,0,1-2.49-3.49,14.17,14.17,0,0,1-.85-5.08,9.93,9.93,0,0,1,1.33-5.17,8.8,8.8,0,0,1,3.78-3.48,13.49,13.49,0,0,1,5.76-1.27h1.83c3.51,0,6.25.85,8.23,2.53a8.75,8.75,0,0,1,3,7,9.25,9.25,0,0,1-1.92,6.16,8.24,8.24,0,0,1-5.52,2.75v-4q4.2-.67,4.2-4.87a4.77,4.77,0,0,0-2-4.13,9.94,9.94,0,0,0-5.74-1.47H145.4a9.52,9.52,0,0,0-5.86,1.6,5.24,5.24,0,0,0-2.07,4.41c0,2.06.47,3.54,1.4,4.41h4.55v-4.79h3.06v8.81Zm5.3,11.92v-8.38H146v8.38Zm11.67,20.71V1094h-20v-4h20v-7.19h3.26v18.45Zm-9.61,17v-9.55h-7.15v11.16h-3.24v-15.21h23.26v15.1h-3.26v-11h-6.42v9.55ZM143.52,1132v-4.5h-9v-4h23.26v8.18a9.49,9.49,0,0,1-1.81,6.2,6.35,6.35,0,0,1-5.22,2.19,6.51,6.51,0,0,1-3.9-1.12,7.21,7.21,0,0,1-2.42-3.14l-9.7,5.23h-.21v-4.33Zm3.23-4.5v4.15a4.59,4.59,0,0,0,1,3.19,3.54,3.54,0,0,0,2.82,1.16,3.81,3.81,0,0,0,2.89-1.07,4.51,4.51,0,0,0,1.05-3.17v-4.26Zm11.06,21.93L140,1156.16l17.82,6.69v5.22H134.55v-4h7.68l10.25.4-17.93-6.86v-2.9l17.91-6.85-10.23.4h-7.68v-4h23.26ZM98.62,690.35V681H88.77v-4H112v14.77h-3.26V681h-6.91v9.36Zm13.4,21.9H96.48a7.5,7.5,0,0,1-5.86-2.37,10.38,10.38,0,0,1,0-12.65,7.57,7.57,0,0,1,5.92-2.35H112v4H96.47a5,5,0,0,0-3.57,1.19,4.57,4.57,0,0,0-1.23,3.47c0,3.12,1.64,4.67,4.92,4.67H112Zm-20,8.69v10.55H88.77v-14.6H112v4.05Zm6.63,27.37V739H88.77v-4H112v14.77h-3.26V739h-6.91v9.36Zm-9.85,9.16v-4H112v4ZM92,766.81v10.55H88.77V762.77H112v4Zm0,18v10.56H88.77v-14.6H112v4Zm20,19.22-17.82,6.7,17.82,6.7v5.22H88.77v-4h7.66l10.25.4-17.91-6.87v-2.89l17.9-6.85-10.24.4H88.77v-4H112ZM99.15,841.36v-9.55H92V843H88.77V827.77H112v15.1h-3.26V831.81h-6.42v9.55ZM88.77,865v-4l16.5-10.36H88.77v-4H112v4L95.46,861H112v4Zm20,21.44v-7.25h-20v-4h20V868H112v18.45Zm-15.91,1.29a2.21,2.21,0,0,1-.61,1.68,2.14,2.14,0,0,1-1.54.59,2.07,2.07,0,0,1-1.51-.59,2.63,2.63,0,0,1,0-3.31,2,2,0,0,1,1.52-.62,2.11,2.11,0,0,1,1.54.6A2.18,2.18,0,0,1,92.85,887.77Z"/></g></g><g id="_92556c23-7e21-4d53-814f-76ac204d0bf5" data-name="92556c23-7e21-4d53-814f-76ac204d0bf5"><g id="_92556c23-7e21-4d53-814f-76ac204d0bf5-child-0" data-name="92556c23-7e21-4d53-814f-76ac204d0bf5-child-0"><path d="M3.3,2.84H281.78V285.16H3.3Z"/></g></g><g id="f9dd36e2-5408-457d-a2dc-5d098b0b8d04"><g id="f9dd36e2-5408-457d-a2dc-5d098b0b8d04-child-0"><path class="cls-1" d="M2.85,2.85H281.73v1298H2.85Z"/></g></g><g id="_1b3c5704-94ef-468b-b507-88db07393cd5" data-name="1b3c5704-94ef-468b-b507-88db07393cd5"><g id="_1b3c5704-94ef-468b-b507-88db07393cd5-child-0" data-name="1b3c5704-94ef-468b-b507-88db07393cd5-child-0"><path class="cls-2" d="M3.68,287.49V282.9h277.4v4.59Z"/></g></g><g id="_3c2fcb75-0c7b-4d96-b17a-f869eb192e17" data-name="3c2fcb75-0c7b-4d96-b17a-f869eb192e17"><g id="a521bcd7-a9e9-45ff-a94d-dbb293f964d6"><path class="cls-3" d="M212.43,199.85l18.91,5.5v19.39H161.92l-5.74-41.89q-1.2-9.81-4.55-13.16t-11.73-3.35H126.26v33.75l18.67,5.26v19.39H53.73V207.27q3.59-1.92,8.14-4t10.53-4.19l3.11-105.8L53.73,85.91V66.76H153.78q28.49,0,45,10.77t16.52,29.68a40,40,0,0,1-9.81,26.33,55.44,55.44,0,0,1-25.61,17q13.4,3.83,20.7,12.44t9.69,23.22ZM142.06,97.16h-15.8v39h26.09q8.63-8.62,8.62-19.87Q161,97.16,142.06,97.16Z"/></g></g></g></g></svg>