<svg xmlns="http://www.w3.org/2000/svg" viewBox="0 0 1061.44 106.21"><title>2ea33f45-afa0-480e-aa68-5088482bfc58 (2)</title><g id="Layer_2" data-name="Layer 2"><g id="Layer_1-2" data-name="Layer 1"><g id="_2ea33f45-afa0-480e-aa68-5088482bfc58" data-name="2ea33f45-afa0-480e-aa68-5088482bfc58"><g id="f779a0f0-5da9-4ab2-b774-6087cff7046f"><path d="M32.61.59V29.75q0,7-4.45,11T16.3,44.83q-7.48,0-11.9-4T0,29.72V.59H7.55V29.78q0,4.38,2.22,6.69t6.53,2.31q8.74,0,8.75-9.24V.59Zm42.7,43.64H67.73l-19.45-31v31H40.7V.59h7.58L67.79,31.67V.59h7.52Zm9,0V.59H97.16a20.2,20.2,0,0,1,10.26,2.58,17.55,17.55,0,0,1,6.94,7.31,23.22,23.22,0,0,1,2.46,10.85v2.19a23.13,23.13,0,0,1-2.47,10.91,17.28,17.28,0,0,1-7,7.25,21.18,21.18,0,0,1-10.48,2.55ZM91.86,6.71V38.18H96.8q6,0,9.16-3.74t3.25-10.71V21.3q0-7.1-3.09-10.85t-9-3.74Zm58,18H132V38.18h21v6H124.37V.59h28.32V6.71H132V18.76h17.93Zm25.23,2.67h-8.45V44.23h-7.58V.59h15.34Q182,.59,186.08,4t4.11,9.8a12.27,12.27,0,0,1-2.12,7.33,13.43,13.43,0,0,1-5.89,4.54L192,43.84v.39h-8.12Zm-8.45-6.09h7.79a8.67,8.67,0,0,0,6-1.93,6.76,6.76,0,0,0,2.15-5.29,7.14,7.14,0,0,0-2-5.42q-2-1.92-6-2h-8Zm64.55,22.9H224V9.2l-10.7,3.65V6.71l17-6.27h.93Zm44.2-39.59L258,44.23h-7.64L267.74,6.44H245.18V.59h30.23Zm38.33,22.78h-8.45V44.23h-7.58V.59h15.34q7.54,0,11.66,3.39t4.1,9.8a12.26,12.26,0,0,1-2.11,7.33,13.43,13.43,0,0,1-5.89,4.54l9.8,18.19v.39h-8.12Zm-8.45-6.09h7.79a8.63,8.63,0,0,0,6-1.93,6.74,6.74,0,0,0,2.16-5.29,7.14,7.14,0,0,0-2-5.42q-2-1.92-5.95-2h-8Zm56.22,3.42H343.59V38.18h21v6H336V.59h28.32V6.71H343.59V18.76h17.92Zm43.88-1.2a27,27,0,0,1-2,10.75,17.39,17.39,0,0,1-5.5,7.2l7.5,5.85-4.92,4.43-9.29-7.34a18.84,18.84,0,0,1-3.93.39,17.41,17.41,0,0,1-9.42-2.59,17.07,17.07,0,0,1-6.41-7.39,26,26,0,0,1-2.3-11.06V21.33a26.55,26.55,0,0,1,2.27-11.27,17,17,0,0,1,6.38-7.47A17.32,17.32,0,0,1,387.23,0a17.63,17.63,0,0,1,9.51,2.56,16.77,16.77,0,0,1,6.37,7.37,26.47,26.47,0,0,1,2.28,11.19Zm-7.62-2.28q0-7.36-2.75-11.18a9.08,9.08,0,0,0-7.79-3.8,8.91,8.91,0,0,0-7.66,3.85Q376.8,14,376.74,21v2.55q0,7.07,2.77,11.06a9.68,9.68,0,0,0,15.55.15q2.71-3.84,2.71-11.21ZM445,.59V29.75q0,7-4.45,11T428.7,44.83q-7.49,0-11.9-4t-4.4-11.11V.59H420V29.78q0,4.38,2.22,6.69t6.53,2.31q8.74,0,8.75-9.24V.59ZM461.1,44.23h-7.55V.59h7.55Zm25.35-16.81H478V44.23h-7.58V.59h15.34q7.56,0,11.66,3.39t4.11,9.8a12.26,12.26,0,0,1-2.11,7.33,13.49,13.49,0,0,1-5.89,4.54l9.8,18.19v.39h-8.12ZM478,21.33h7.79a8.67,8.67,0,0,0,6-1.93A6.74,6.74,0,0,0,494,14.11a7.15,7.15,0,0,0-2-5.42q-2-1.92-5.95-2h-8Zm56.23,3.42H516.3V38.18h21v6H508.72V.59H537V6.71H516.3V18.76h17.93Zm32,8.24a5.24,5.24,0,0,0-2-4.43q-2-1.56-7.3-3.15a35.36,35.36,0,0,1-8.39-3.54q-6-3.74-6-9.77a10.63,10.63,0,0,1,4.3-8.69Q551.17,0,558,0a18.94,18.94,0,0,1,8.12,1.67,13.33,13.33,0,0,1,5.61,4.78,12.28,12.28,0,0,1,2,6.88h-7.56A6.83,6.83,0,0,0,564.09,8,8.84,8.84,0,0,0,558,6.05a9.23,9.23,0,0,0-5.77,1.59,5.28,5.28,0,0,0-2.05,4.43,4.78,4.78,0,0,0,2.22,4,25.36,25.36,0,0,0,7.31,3.12,33.75,33.75,0,0,1,8.18,3.45,13,13,0,0,1,4.53,4.43,11.54,11.54,0,0,1,1.44,5.86,10.39,10.39,0,0,1-4.19,8.68q-4.18,3.22-11.34,3.22a21.35,21.35,0,0,1-8.71-1.75,14.68,14.68,0,0,1-6.17-4.84,12.07,12.07,0,0,1-2.2-7.2h7.58a7.06,7.06,0,0,0,2.46,5.76q2.46,2,7,2,4,0,6-1.61a5.16,5.16,0,0,0,2-4.24Zm53.95,1.08h-16.9l-3.54,10.16h-7.88L608.34.59h6.8l16.52,43.64h-7.92ZM605.4,28h12.65l-6.32-18.1ZM669.27,30q-.66,7-5.16,10.9t-12,3.91A17,17,0,0,1,643,42.36a16.28,16.28,0,0,1-6.13-7,25.37,25.37,0,0,1-2.25-10.58V20.67A25.48,25.48,0,0,1,636.78,9.8a16.49,16.49,0,0,1,6.28-7.26A17.59,17.59,0,0,1,652.51,0q7.23,0,11.63,3.92T669.27,15h-7.55q-.54-4.71-2.75-6.79t-6.46-2.08a8.85,8.85,0,0,0-7.59,3.61q-2.65,3.62-2.71,10.59v3.87q0,7.07,2.53,10.79a8.41,8.41,0,0,0,7.42,3.72q4.46,0,6.71-2T661.72,30Zm40.07,0q-.66,7-5.16,10.9t-12,3.91A17,17,0,0,1,683,42.36a16.28,16.28,0,0,1-6.13-7,25.37,25.37,0,0,1-2.25-10.58V20.67A25.48,25.48,0,0,1,676.85,9.8a16.49,16.49,0,0,1,6.28-7.26A17.59,17.59,0,0,1,692.58,0q7.23,0,11.63,3.92T709.34,15h-7.56c-.35-3.14-1.27-5.4-2.74-6.79s-3.62-2.08-6.46-2.08A8.85,8.85,0,0,0,685,9.75q-2.65,3.62-2.72,10.59v3.87q0,7.07,2.54,10.79a8.4,8.4,0,0,0,7.41,3.72q4.47,0,6.72-2T701.78,30Zm41.59-6.47a26.92,26.92,0,0,1-2.21,11.25,16.78,16.78,0,0,1-6.34,7.44,18.61,18.61,0,0,1-18.94,0A17.09,17.09,0,0,1,717,34.85a26,26,0,0,1-2.29-11.06V21.33A26.55,26.55,0,0,1,717,10.06a17,17,0,0,1,6.39-7.47,18.65,18.65,0,0,1,18.91,0,16.77,16.77,0,0,1,6.37,7.37,26.63,26.63,0,0,1,2.27,11.19Zm-7.58-2.28q0-7.24-2.74-11.12a9.68,9.68,0,0,0-15.46,0Q722.38,14,722.31,21v2.52q0,7.18,2.81,11.12a9,9,0,0,0,7.77,3.93,8.92,8.92,0,0,0,7.75-3.84q2.72-3.84,2.71-11.21Zm25-20.68L780.89,34,793.45.59h9.8V44.23H795.7V29.84l.75-19.24L783.56,44.23h-5.42l-12.86-33.6L766,29.84V44.23h-7.54V.59ZM819.79,28V44.23h-7.58V.59h16.7q7.3,0,11.61,3.81a12.79,12.79,0,0,1,4.3,10.07q0,6.4-4.21,10T828.82,28Zm0-6.09h9.12q4,0,6.17-1.9a7,7,0,0,0,2.13-5.5,7.54,7.54,0,0,0-2.16-5.65,8.31,8.31,0,0,0-5.93-2.17h-9.33Zm50.74,12.14h-16.9l-3.54,10.16h-7.88L858.69.59h6.81L882,44.23H874.1ZM855.76,28h12.65l-6.33-18.1Zm65.81,16.27H914l-19.45-31v31H887V.59h7.58l19.51,31.08V.59h7.52Zm22.36-23L954,.59h8.39L947.73,28.17V44.23h-7.61V28.17L925.47.59h8.42Zm31.17,23h-7.56V.59h7.56Zm43.93,0h-7.58L992,13.27v31h-7.58V.59H992l19.51,31.08V.59H1019Zm42.41-5.66a14.59,14.59,0,0,1-6.56,4.67,26.8,26.8,0,0,1-9.54,1.59,18.79,18.79,0,0,1-9.71-2.49,16.6,16.6,0,0,1-6.51-7.12,24.89,24.89,0,0,1-2.39-10.8V21q0-9.88,4.74-15.45T1044.69,0q7.27,0,11.56,3.59T1061.41,14H1054q-1.26-7.87-9.14-7.88a9,9,0,0,0-7.75,3.67q-2.65,3.67-2.74,10.77v3.36q0,7.07,3,11a9.83,9.83,0,0,0,8.28,3.92q5.82,0,8.28-2.64V27.6h-9V21.84h16.54ZM123.53,89.39v16.22H116V62h16.69q7.32,0,11.62,3.81a12.77,12.77,0,0,1,4.3,10.07q0,6.41-4.21,10t-11.8,3.56Zm0-6.08h9.11q4.05,0,6.18-1.9a7,7,0,0,0,2.13-5.5,7.54,7.54,0,0,0-2.16-5.65,8.32,8.32,0,0,0-5.94-2.17h-9.32Zm50.74,12.14h-16.9l-3.54,10.16H146L162.43,62h6.81l16.51,43.64h-7.91ZM159.5,89.33h12.64l-6.32-18.1Zm47.23-.54h-8.45v16.82H190.7V62H206q7.54,0,11.66,3.39t4.1,9.8a12.28,12.28,0,0,1-2.11,7.33A13.43,13.43,0,0,1,213.8,87l9.8,18.19v.39h-8.12Zm-8.45-6.08h7.79a8.63,8.63,0,0,0,6-1.93,6.75,6.75,0,0,0,2.16-5.29,7.18,7.18,0,0,0-2-5.43q-2-1.91-5.95-2h-8Zm56.21,3.42H236.58V99.55h20.94v6.06H229V62h28.31v6.12H236.58v12h17.91Zm43.82,19.48h-7.59l-19.45-31v31h-7.58V62h7.58l19.51,31.08V62h7.53Zm39.62-37.52H324.32v37.52H316.8V68.09H303.31V62h34.62Zm54,16.84a26.76,26.76,0,0,1-2.22,11.25,16.75,16.75,0,0,1-6.34,7.43,18.55,18.55,0,0,1-18.94,0,17,17,0,0,1-6.41-7.38,26,26,0,0,1-2.29-11.06V82.71A26.55,26.55,0,0,1,358,71.44,17,17,0,0,1,364.4,64a18.65,18.65,0,0,1,18.91,0,16.8,16.8,0,0,1,6.37,7.38A26.47,26.47,0,0,1,392,82.5Zm-7.58-2.28q0-7.25-2.74-11.12a9.69,9.69,0,0,0-15.47,0q-2.78,3.86-2.83,10.89v2.52q0,7.18,2.8,11.12a9,9,0,0,0,7.78,3.92,9,9,0,0,0,7.75-3.83q2.71-3.84,2.71-11.21Zm31.17,6.14h-8.46v16.82h-7.58V62h15.35q7.54,0,11.66,3.39t4.1,9.8a12.28,12.28,0,0,1-2.11,7.33A13.43,13.43,0,0,1,422.62,87l9.8,18.19v.39H424.3Zm-8.46-6.08h7.8a8.66,8.66,0,0,0,6-1.93A6.75,6.75,0,0,0,423,75.49a7.18,7.18,0,0,0-2-5.43c-1.33-1.27-3.32-1.93-5.95-2h-8Zm70.43,12.74h-16.9l-3.54,10.16H449.2L465.69,62h6.8L489,105.61h-7.91Zm-14.77-6.12H475.4l-6.33-18.1ZM494,105.61V62h12.88a20.21,20.21,0,0,1,10.27,2.58A17.61,17.61,0,0,1,524,71.86a23.34,23.34,0,0,1,2.45,10.85V84.9A23.13,23.13,0,0,1,524,95.81a17.39,17.39,0,0,1-7,7.25,21.15,21.15,0,0,1-10.48,2.55Zm7.58-37.52V99.55h4.94q6,0,9.16-3.73t3.25-10.71V82.68q0-7.09-3.09-10.85t-9-3.74ZM566,62V91.13q0,7-4.45,11t-11.85,4.06q-7.49,0-11.9-4t-4.4-11.11V62h7.55V91.16q0,4.38,2.22,6.69t6.53,2.3q8.75,0,8.75-9.23V62Zm15.68,37.58h19.81v6.06h-27.4V62h7.59Zm51-31.46H619v37.52h-7.52V68.09H598V62h34.62ZM685.3,99.94a14.54,14.54,0,0,1-6.56,4.68,26.79,26.79,0,0,1-9.53,1.59,18.74,18.74,0,0,1-9.71-2.49A16.56,16.56,0,0,1,653,96.6a24.89,24.89,0,0,1-2.38-10.8V82.38q0-9.88,4.73-15.45t13.22-5.56q7.28,0,11.57,3.6t5.15,10.37h-7.43q-1.26-7.87-9.14-7.88A9,9,0,0,0,661,71.13q-2.66,3.68-2.74,10.77v3.36q0,7.06,3,11a9.83,9.83,0,0,0,8.29,3.91q5.81,0,8.27-2.63V89h-9V83.22H685.3Zm40.25-38V91.13q0,7-4.45,11t-11.85,4.06q-7.5,0-11.9-4T692.94,91.1V62h7.56V91.16q0,4.38,2.21,6.69t6.54,2.3q8.75,0,8.75-9.23V62Zm31.86,33.48h-16.9L737,105.61h-7.88L745.57,62h6.8l16.52,43.64H761Zm-14.78-6.12h12.64L749,71.23Zm47.23-.54H781.4v16.82h-7.58V62h15.35q7.55,0,11.65,3.39t4.11,9.8a12.28,12.28,0,0,1-2.11,7.33A13.49,13.49,0,0,1,796.93,87l9.8,18.19v.39h-8.12Zm-8.46-6.08h7.8a8.66,8.66,0,0,0,6-1.93,6.75,6.75,0,0,0,2.16-5.29,7.19,7.19,0,0,0-2-5.43q-2-1.91-5.94-2h-8Zm30.72,22.9V62H825a20.2,20.2,0,0,1,10.26,2.58,17.61,17.61,0,0,1,6.94,7.31,23.22,23.22,0,0,1,2.46,10.85V84.9a23.13,23.13,0,0,1-2.47,10.91,17.41,17.41,0,0,1-7.05,7.25,21.14,21.14,0,0,1-10.47,2.55Zm7.58-37.52V99.55h4.95q6,0,9.16-3.73t3.25-10.71V82.68q0-7.09-3.09-10.85t-9-3.74Zm40.52,37.52h-7.55V62h7.55Zm34.29-10.16h-16.9l-3.54,10.16h-7.88L882.67,62h6.8L906,105.61h-7.92Zm-14.78-6.12h12.65l-6.32-18.1Zm65.82,16.28H938l-19.45-31v31h-7.58V62h7.58L938,93.05V62h7.53Z"/></g></g></g></g></svg>