<svg xmlns="http://www.w3.org/2000/svg" viewBox="0 0 1310.61 379.02"><defs><style>.cls-1{fill:none;stroke:#000;stroke-linecap:round;stroke-miterlimit:10;stroke-width:8.23px;}</style></defs><title>Asset 45</title><g id="Layer_2" data-name="Layer 2"><g id="Layer_1-2" data-name="Layer 1"><g id="_86ae44c1-1273-4b18-aa9e-3a70dc1c565e" data-name="86ae44c1-1273-4b18-aa9e-3a70dc1c565e"><g id="_86ae44c1-1273-4b18-aa9e-3a70dc1c565e-child-0" data-name="86ae44c1-1273-4b18-aa9e-3a70dc1c565e-child-0"><path d="M454.73,373.65V12.86h17.6V373.65Z"/></g><g id="_86ae44c1-1273-4b18-aa9e-3a70dc1c565e-child-1" data-name="86ae44c1-1273-4b18-aa9e-3a70dc1c565e-child-1"><path d="M437.79,373.65V12.86h5.83V373.65Z"/></g><g id="_86ae44c1-1273-4b18-aa9e-3a70dc1c565e-child-2" data-name="86ae44c1-1273-4b18-aa9e-3a70dc1c565e-child-2"><path d="M410.05,373.65V12.86h15.63V373.65Z"/></g><g id="_86ae44c1-1273-4b18-aa9e-3a70dc1c565e-child-3" data-name="86ae44c1-1273-4b18-aa9e-3a70dc1c565e-child-3"><path d="M387.22,319V12.86h15.63V319Z"/></g><g id="_86ae44c1-1273-4b18-aa9e-3a70dc1c565e-child-4" data-name="86ae44c1-1273-4b18-aa9e-3a70dc1c565e-child-4"><path d="M369.28,319V12.86h5.83V319Z"/></g><g id="_86ae44c1-1273-4b18-aa9e-3a70dc1c565e-child-5" data-name="86ae44c1-1273-4b18-aa9e-3a70dc1c565e-child-5"><path d="M343.49,319V12.86h11.72V319Z"/></g><g id="_86ae44c1-1273-4b18-aa9e-3a70dc1c565e-child-6" data-name="86ae44c1-1273-4b18-aa9e-3a70dc1c565e-child-6"><path d="M315.78,319V12.86H337.3V319Z"/></g><g id="_86ae44c1-1273-4b18-aa9e-3a70dc1c565e-child-7" data-name="86ae44c1-1273-4b18-aa9e-3a70dc1c565e-child-7"><path d="M299.79,319V12.86h7.82V319Z"/></g><g id="_86ae44c1-1273-4b18-aa9e-3a70dc1c565e-child-8" data-name="86ae44c1-1273-4b18-aa9e-3a70dc1c565e-child-8"><path d="M274,319V12.86h13.7V319Z"/></g><g id="_86ae44c1-1273-4b18-aa9e-3a70dc1c565e-child-9" data-name="86ae44c1-1273-4b18-aa9e-3a70dc1c565e-child-9"><path d="M245.32,319.33V12.87h25.42V319.33Z"/></g><g id="_86ae44c1-1273-4b18-aa9e-3a70dc1c565e-child-10" data-name="86ae44c1-1273-4b18-aa9e-3a70dc1c565e-child-10"><path d="M231.28,319.33V12.87h7.82V319.33Z"/></g><g id="_86ae44c1-1273-4b18-aa9e-3a70dc1c565e-child-11" data-name="86ae44c1-1273-4b18-aa9e-3a70dc1c565e-child-11"><path d="M204.55,319V12.86h15.63V319Z"/></g><g id="_86ae44c1-1273-4b18-aa9e-3a70dc1c565e-child-12" data-name="86ae44c1-1273-4b18-aa9e-3a70dc1c565e-child-12"><path d="M186.61,319V12.86h5.83V319Z"/></g><g id="_86ae44c1-1273-4b18-aa9e-3a70dc1c565e-child-13" data-name="86ae44c1-1273-4b18-aa9e-3a70dc1c565e-child-13"><path d="M160.82,319V12.86h11.72V319Z"/></g><g id="_86ae44c1-1273-4b18-aa9e-3a70dc1c565e-child-14" data-name="86ae44c1-1273-4b18-aa9e-3a70dc1c565e-child-14"><path d="M133.11,319V12.86h21.52V319Z"/></g><g id="_86ae44c1-1273-4b18-aa9e-3a70dc1c565e-child-15" data-name="86ae44c1-1273-4b18-aa9e-3a70dc1c565e-child-15"><path d="M117.12,319V12.86h7.81V319Z"/></g><g id="_86ae44c1-1273-4b18-aa9e-3a70dc1c565e-child-16" data-name="86ae44c1-1273-4b18-aa9e-3a70dc1c565e-child-16"><path d="M91.34,319V12.86H105V319Z"/></g><g id="_86ae44c1-1273-4b18-aa9e-3a70dc1c565e-child-17" data-name="86ae44c1-1273-4b18-aa9e-3a70dc1c565e-child-17"><path d="M69.49,319V12.86H81.21V319Z"/></g><g id="_86ae44c1-1273-4b18-aa9e-3a70dc1c565e-child-18" data-name="86ae44c1-1273-4b18-aa9e-3a70dc1c565e-child-18"><path d="M41.78,319V12.86H63.29V319Z"/></g><g id="_86ae44c1-1273-4b18-aa9e-3a70dc1c565e-child-19" data-name="86ae44c1-1273-4b18-aa9e-3a70dc1c565e-child-19"><path d="M25.79,373.84v-361H33.6v361Z"/></g><g id="_86ae44c1-1273-4b18-aa9e-3a70dc1c565e-child-20" data-name="86ae44c1-1273-4b18-aa9e-3a70dc1c565e-child-20"><path d="M0,373.84v-361H13.7v361Z"/></g><g id="_86ae44c1-1273-4b18-aa9e-3a70dc1c565e-child-21" data-name="86ae44c1-1273-4b18-aa9e-3a70dc1c565e-child-21"><path d="M90,356.86c0,11.37-4.2,17.49-11.66,17.49-6.53,0-11-6.12-11.05-17.17s4.81-17.49,11.66-17.49S90,346.34,90,356.86Zm-18.13.53c0,8.74,2.68,13.61,6.79,13.61,4.61,0,6.82-5.39,6.82-13.93s-2.1-13.62-6.79-13.62c-3.94.12-6.82,5-6.82,14.05Z"/></g><g id="_86ae44c1-1273-4b18-aa9e-3a70dc1c565e-child-22" data-name="86ae44c1-1273-4b18-aa9e-3a70dc1c565e-child-22"><path d="M113.19,343.83a16.66,16.66,0,0,0-3.39.2A13.63,13.63,0,0,0,98.14,355.9h0a10.21,10.21,0,0,1,18.49,6.94,11.17,11.17,0,0,1-11.11,11.66c-7.14,0-11.66-5.54-11.66-14.23a21.06,21.06,0,0,1,5.27-15.07,18.26,18.26,0,0,1,10.7-4.93,21.29,21.29,0,0,1,3.3-.26ZM111.9,363.1a6.67,6.67,0,0,0-1.69-5.42,6.82,6.82,0,0,0-5.25-2.25,7.48,7.48,0,0,0-6.47,4.11,4.11,4.11,0,0,0-.52,2c0,5.51,2.62,9.56,7.34,9.56C109.28,371.12,111.9,367.88,111.9,363.1Z"/></g><g id="_86ae44c1-1273-4b18-aa9e-3a70dc1c565e-child-23" data-name="86ae44c1-1273-4b18-aa9e-3a70dc1c565e-child-23"><path d="M139.54,343.83a16.56,16.56,0,0,0-3.38.2A13.6,13.6,0,0,0,124.5,355.9h.14a10.17,10.17,0,0,1,18.22,6.94,11.16,11.16,0,0,1-11.1,11.66c-7.15,0-11.66-5.54-11.66-14.23a21,21,0,0,1,5.48-15.07,18.2,18.2,0,0,1,10.67-4.93,21.06,21.06,0,0,1,3.29-.26Zm-1.28,19.27a6.77,6.77,0,0,0-1.69-5.42,6.85,6.85,0,0,0-5.19-2.25,7.56,7.56,0,0,0-6.47,4.11,4.12,4.12,0,0,0-.53,2c0,5.51,2.62,9.56,7.35,9.56C135.63,371.12,138.26,367.88,138.26,363.1Z"/></g><g id="_86ae44c1-1273-4b18-aa9e-3a70dc1c565e-child-24" data-name="86ae44c1-1273-4b18-aa9e-3a70dc1c565e-child-24"><path d="M168.55,340.65v2.92L154,374h-4.66l14.57-29.56H147.56v-3.73Z"/></g><g id="_86ae44c1-1273-4b18-aa9e-3a70dc1c565e-child-25" data-name="86ae44c1-1273-4b18-aa9e-3a70dc1c565e-child-25"><path d="M172.8,365.61a9.54,9.54,0,0,1,6.62-8.95h0a8.3,8.3,0,0,1-5.28-7.52c0-5.28,4.46-8.89,10.32-8.89,6.48,0,9.71,4.08,9.71,8.22a8.42,8.42,0,0,1-5.48,7.81v.17a9.24,9.24,0,0,1,6.74,8.75c0,5.83-5,9.71-11.37,9.71C177,374.62,172.8,370.45,172.8,365.61Zm18-.21c0-4.08-2.91-6-7.35-7.31a7.28,7.28,0,0,0-6,6.88,6.2,6.2,0,0,0,6.7,6.38,6.09,6.09,0,0,0,4.67-1.51,6,6,0,0,0,2-4.47Zm-12.45-16.7c0,3.32,2.54,5.13,6.39,6.15a6.53,6.53,0,0,0,5.07-6.06,5.22,5.22,0,0,0-1.57-4,5.13,5.13,0,0,0-4.09-1.42,5.39,5.39,0,0,0-4.08,1.39,5.3,5.3,0,0,0-1.72,3.94Z"/></g><g id="_86ae44c1-1273-4b18-aa9e-3a70dc1c565e-child-26" data-name="86ae44c1-1273-4b18-aa9e-3a70dc1c565e-child-26"><path d="M221.26,340.65v2.92L206.68,374H202l14.58-29.56H200.18v-3.73Z"/></g><g id="_86ae44c1-1273-4b18-aa9e-3a70dc1c565e-child-27" data-name="86ae44c1-1273-4b18-aa9e-3a70dc1c565e-child-27"><path d="M247.64,340.65v2.92l-14.4,30.49H228.4L243,344.5H226.65v-3.73Z"/></g><g id="_86ae44c1-1273-4b18-aa9e-3a70dc1c565e-child-28" data-name="86ae44c1-1273-4b18-aa9e-3a70dc1c565e-child-28"><path d="M253.38,368.84a14.68,14.68,0,0,0,7.41,2.13c5.83,0,7.61-3.7,7.55-6.47,0-4.69-4.26-6.7-8.75-6.7h-2.54v-3.39h2.54c3.3,0,7.44-1.69,7.44-5.65,0-2.66-1.7-5.05-5.84-5.05a12.42,12.42,0,0,0-6.67,2.22l-1.17-3.29a15.76,15.76,0,0,1,8.75-2.57c6.59,0,9.56,3.91,9.56,8a8.22,8.22,0,0,1-6.15,7.84h0a8.73,8.73,0,0,1,7.43,8.57c0,5.34-4.14,10-12.15,10a16.8,16.8,0,0,1-8.75-2.27Z"/></g><g id="_86ae44c1-1273-4b18-aa9e-3a70dc1c565e-child-29" data-name="86ae44c1-1273-4b18-aa9e-3a70dc1c565e-child-29"><path d="M278.66,374.06v-2.91l3.55-3.44c8.55-8.11,12.39-12.42,12.45-17.49a6,6,0,0,0-6.64-6.53,11.36,11.36,0,0,0-7.09,2.91l-1.46-3.18A14.82,14.82,0,0,1,289,340a9.38,9.38,0,0,1,10.23,9.71c0,6.18-4.49,11.17-11.66,18l-2.68,2.45h15v3.76Z"/></g><g id="_86ae44c1-1273-4b18-aa9e-3a70dc1c565e-child-30" data-name="86ae44c1-1273-4b18-aa9e-3a70dc1c565e-child-30"><path d="M307.66,370.86a20.23,20.23,0,0,0,3.65,0,12.59,12.59,0,0,0,7-3.24,14.54,14.54,0,0,0,4.43-8.75h0a9.85,9.85,0,0,1-7.87,3.59A9.67,9.67,0,0,1,305,352.23a11.46,11.46,0,0,1,11.4-11.87c6.82,0,11.05,5.57,11.05,14.08a21.18,21.18,0,0,1-5.83,15.69,16.59,16.59,0,0,1-9.65,4.22,19.75,19.75,0,0,1-4.14.27Zm1.64-19.22a6.41,6.41,0,0,0,6.41,7.09,7.55,7.55,0,0,0,6.59-3.5,2.92,2.92,0,0,0,.41-1.63c0-5.83-2.1-10.09-6.82-10.09C312,343.51,309.3,346.92,309.3,351.64Z"/></g><g id="_86ae44c1-1273-4b18-aa9e-3a70dc1c565e-child-31" data-name="86ae44c1-1273-4b18-aa9e-3a70dc1c565e-child-31"><path d="M331,365.61a9.55,9.55,0,0,1,6.61-8.95h0a8.31,8.31,0,0,1-5.27-7.52c0-5.28,4.46-8.89,10.32-8.89,6.47,0,9.71,4.08,9.71,8.22a8.44,8.44,0,0,1-5.48,7.81v.17a9.24,9.24,0,0,1,6.73,8.75c0,5.83-5,9.71-11.37,9.71C335.27,374.62,331,370.45,331,365.61Zm18-.21c0-4.08-2.91-6-7.34-7.31a7.28,7.28,0,0,0-6,6.88A7,7,0,0,0,347,369.84a5.93,5.93,0,0,0,2-4.47Zm-12.44-16.7c0,3.32,2.53,5.13,6.38,6.15a6.51,6.51,0,0,0,5.07-6.06,5.18,5.18,0,0,0-1.57-4,5.12,5.12,0,0,0-4.08-1.42,5.37,5.37,0,0,0-4.08,1.39,5.3,5.3,0,0,0-1.72,3.94Z"/></g><g id="_86ae44c1-1273-4b18-aa9e-3a70dc1c565e-child-32" data-name="86ae44c1-1273-4b18-aa9e-3a70dc1c565e-child-32"><path d="M358.83,368.84a15,15,0,0,0,7.4,2.13c5.83,0,7.61-3.7,7.55-6.47,0-4.69-4.25-6.7-8.74-6.7h-2.51v-3.39H365c3.29,0,7.46-1.69,7.46-5.65,0-2.66-1.69-5.05-5.83-5.05a12.24,12.24,0,0,0-6.68,2.22l-1.19-3.29a15.7,15.7,0,0,1,8.74-2.57c6.56,0,9.57,3.91,9.57,8a8.29,8.29,0,0,1-6.18,7.84h0a8.74,8.74,0,0,1,7.46,8.57c0,5.34-4.17,10-12.19,10a16.77,16.77,0,0,1-8.74-2.27Z"/></g></g><g id="_8d573c80-8d10-47bc-b417-595b133b3196" data-name="8d573c80-8d10-47bc-b417-595b133b3196"><g id="_8d573c80-8d10-47bc-b417-595b133b3196-child-0" data-name="8d573c80-8d10-47bc-b417-595b133b3196-child-0"><path d="M1248,230.52c0-.08.06-.14.08-.22-3.94-2.09-33.7-16.42-17.77-19,15.35-.52,30.17,5.22,44.58,9.7-11.56-6.19-24.55-9.95-36.92-14.43-4.67-2-10-2.86-14.11-5.95,1.55-.47,3,0,4.35-.22-18.81-8,.33-5.28,7.7-3.51,7.93,1.55,15.63,4.35,23.43,6.28a.49.49,0,0,1,.05-.16,193.75,193.75,0,0,0-41.32-10.85c15.74-1.41,31.37-8.78,44.5-16.53-4.78,0-9.48.93-14.27.74-25.85-.57-10.63-9.9,3.18-14.82a.51.51,0,0,0,0-.21c-4.45.16-37.4,2.61-24.9-7.59,13-8.13,28.74-10.57,43.47-13.89-13.1.41-26.23,3.64-39.17,5.95-5,.63-10.11,2.53-15.17,1.91,1.12-1.17,2.56-1.53,3.67-2.37-20.28,2.48-2.34-4.73,4.92-6.88,7.67-2.61,15.71-4.05,23.43-6.28a.47.47,0,0,0,0-.16,193.37,193.37,0,0,0-41.21,11.28c12.91-9.1,22.78-23.27,30.28-36.56-4.16,2.34-7.75,5.55-12,7.78-22.67,12.42-14.16-3.27-4.64-14.41a.94.94,0,0,1-.14-.16c-3.78,2.36-31.07,21-25.36,5.89,7.23-13.56,19.6-23.51,30.69-33.76-11.15,6.91-20.91,16.26-30.94,24.77-4,3-7.5,7.25-12.2,9.24.38-1.58,1.44-2.58,2-3.89-16.34,12.29-4.4-2.91.82-8.43,5.32-6.08,11.58-11.36,17.15-17.15a.63.63,0,0,1-.11-.13,190.87,190.87,0,0,0-30,30.36c6.64-14.35,8.1-31.56,7.94-46.81-2.45,4.1-3.94,8.67-6.52,12.72-13.43,22.1-13.89,4.27-11.23-10.16-.08,0-.14-.06-.22-.09-2.09,3.95-16.42,33.71-19,17.78-.52-15.36,5.22-30.17,9.71-44.58-6.2,11.55-9.95,24.55-14.44,36.92-2,4.67-2.85,10-6,14.1-.46-1.55,0-3-.22-4.35-8,18.82-5.27-.32-3.51-7.69,1.55-7.94,4.35-15.63,6.28-23.43a.49.49,0,0,1-.16-.05,193.66,193.66,0,0,0-10.85,41.31c-1.41-15.74-8.78-31.37-16.52-44.5-.06,4.79.92,9.49.73,14.28-.57,25.85-9.89,10.62-14.81-3.18h-.22c.16,4.48,2.61,37.43-7.59,24.95-8.12-13-10.57-28.73-13.89-43.47.41,13.11,3.65,26.24,6,39.18.62,5,2.52,10.11,1.9,15.16-1.17-1.11-1.52-2.55-2.37-3.67,2.48,20.28-4.73,2.34-6.87-4.92-2.61-7.66-4-15.71-6.28-23.43-.11,0-.06,0-.17,0a193,193,0,0,0,11.29,41.21c-9.11-12.91-23.27-22.78-36.57-30.28,2.34,4.16,5.55,7.74,7.78,12,12.42,22.67-3.26,14.16-14.41,4.65a1,1,0,0,1-.16.14c2.36,3.77,21,31.07,5.9,25.36-13.57-7.23-23.52-19.6-33.77-30.69,6.91,11.14,16.26,20.9,24.77,30.93,3,4,7.26,7.51,9.24,12.21-1.58-.38-2.58-1.44-3.89-2,12.29,16.34-2.9,4.41-8.42-.81-6.09-5.33-11.37-11.58-17.16-17.15a.38.38,0,0,1-.13.1,191.29,191.29,0,0,0,30.36,30c-14.35-6.63-31.56-8.1-46.81-7.94,4.11,2.45,8.67,3.95,12.72,6.53,22.1,13.43,4.27,13.89-10.16,11.22,0,.09-.06.14-.08.22,3.94,2.1,33.7,16.42,17.77,19-15.35.52-30.17-5.22-44.58-9.7,11.56,6.2,24.55,9.95,36.92,14.43,4.67,2,10,2.86,14.11,6-1.55.46-3,0-4.35.21,18.81,8-.33,5.28-7.7,3.51-7.93-1.55-15.63-4.35-23.43-6.28a.3.3,0,0,1,0,.16,193.75,193.75,0,0,0,41.32,10.85c-15.74,1.41-31.37,8.78-44.5,16.53,4.78.05,9.48-.93,14.27-.74,25.85.58,10.63,9.9-3.18,14.82a.56.56,0,0,0,0,.22c4.45-.17,37.4-2.61,24.9,7.58-13,8.13-28.74,10.58-43.47,13.89,13.1-.41,26.23-3.64,39.17-5.95,5-.63,10.11-2.53,15.17-1.9-1.12,1.16-2.56,1.52-3.67,2.36,20.28-2.47,2.34,4.73-4.92,6.88-7.67,2.61-15.71,4-23.43,6.28a.44.44,0,0,0,0,.16,193.37,193.37,0,0,0,41.21-11.28c-12.91,9.11-22.78,23.27-30.28,36.56,4.16-2.34,7.75-5.54,12-7.77,22.67-12.43,14.16,3.26,4.65,14.4a1,1,0,0,1,.13.17c3.78-2.37,31.07-21,25.36-5.9-7.23,13.56-19.6,23.51-30.69,33.76,11.15-6.9,20.91-16.26,30.94-24.76,4.05-3.05,7.5-7.26,12.2-9.25-.38,1.58-1.44,2.59-2,3.89,16.34-12.29,4.4,2.91-.82,8.43-5.32,6.09-11.58,11.36-17.15,17.15a.49.49,0,0,1,.11.14,191.36,191.36,0,0,0,30-30.37c-6.64,14.36-8.1,31.56-7.94,46.81,2.45-4.1,3.94-8.67,6.52-12.72,13.43-22.1,13.89-4.27,11.23,10.17a.65.65,0,0,1,.22.08c2.09-3.94,16.42-33.71,19-17.78.52,15.36-5.22,30.17-9.71,44.58,6.2-11.55,10-24.55,14.44-36.91,2-4.68,2.85-10,6-14.11.46,1.55,0,3,.22,4.35,8-18.81,5.27.32,3.51,7.69-1.55,7.94-4.35,15.63-6.28,23.43a.35.35,0,0,1,.16.06,193.9,193.9,0,0,0,10.85-41.32c1.41,15.74,8.78,31.37,16.52,44.5.06-4.79-.92-9.49-.73-14.27.57-25.86,9.89-10.63,14.81,3.18a.53.53,0,0,0,.22,0c-.16-4.46-2.61-37.4,7.59-24.9,8.12,13,10.57,28.73,13.89,43.47-.41-13.11-3.65-26.24-6-39.18-.62-5-2.52-10.11-1.9-15.16,1.17,1.11,1.52,2.55,2.37,3.67-2.48-20.28,4.73-2.34,6.87,4.92,2.61,7.66,4.05,15.71,6.28,23.43.11,0,.06,0,.17,0a193,193,0,0,0-11.29-41.21c9.11,12.91,23.27,22.78,36.57,30.28-2.34-4.16-5.55-7.74-7.78-12-12.42-22.67,3.26-14.16,14.41-4.65a2,2,0,0,0,.16-.14c-2.36-3.77-21-31.07-5.9-25.36,13.57,7.23,23.52,19.6,33.77,30.69-6.91-11.14-16.26-20.9-24.77-30.93-3-4.05-7.23-7.51-9.24-12.21,1.58.38,2.58,1.44,3.89,2-12.29-16.34,2.9-4.41,8.42.81,6.09,5.33,11.37,11.58,17.16,17.15a.38.38,0,0,1,.13-.1,191.29,191.29,0,0,0-30.36-30c14.35,6.63,31.56,8.1,46.81,7.94-4.11-2.45-8.67-4-12.72-6.53-22.1-13.43-4.27-13.89,10.16-11.23Zm-30.63-64.07c1.71,0,8.75.43,6.82,3.29-3.67,2.63-8.43,3.07-12.61,4.62,3.88,0,8-.74,12-.28,6.64.47,18.54,3.48,7.53,9.71-10.33,5.25-22.34,5.41-33.49,6.41l1,.3h0c2.88,2.31,6.11,4.79,6.93,8.65,1.52,9.89-14,9.54-20.6,9.27a32.91,32.91,0,0,1-9.25-2c-2.14-.63-18.75-9.74.79-9.82,19.36,1.47,13.81-13.94,28.57-19,0-.06,0-.11-.08-.16-2.8.89-5.63,2.36-8.67,1.93a1.44,1.44,0,0,1-.84-2.64c1.06-1.2,2.66-1.58,3.94-2.48-.06-.08,0-.08-.08-.16-5.06,1.61-10.44.14-2.8-3.31a57.59,57.59,0,0,1,20.93-4.33Zm-52.09,55.48c-13.67-10.09-28.57-12.56-44.41-26.89a1.7,1.7,0,0,1-.28-.21c16.8,6.63,34.74,9.78,51.68,16.09,15.41,6.44,4.76,19.43-7,11h0ZM1115.15,244c1.9-16.88-3.4-31.05,1.06-51.9a2.3,2.3,0,0,1,0-.35c2.67,17.86,8.89,35,11.91,52.79,2.12,16.56-14.46,13.84-13-.54Zm-26.43-10.25c10.09-13.67,12.56-28.57,26.89-44.42a1.74,1.74,0,0,1,.22-.27c-6.64,16.8-9.79,34.74-16.1,51.68-6.44,15.41-19.43,4.75-11-7h0ZM1071,211.68c15.58-6.8,25.18-18.46,45.48-25l.33-.13c-14.14,11.25-25.85,25.2-39.77,36.7-13.27,10.11-19.22-5.6-6-11.53Zm-4.32-28c16.88,1.91,31-3.39,51.89,1.06a1.59,1.59,0,0,1,.36,0c-17.86,2.66-35,8.89-52.79,11.91-16.56,2.12-13.84-14.46.54-13Zm10.25-26.42c13.67,10.09,28.57,12.56,44.42,26.89a1.65,1.65,0,0,1,.27.21c-16.8-6.63-34.74-9.78-51.68-16.09-15.41-6.44-4.75-19.44,7-11h0Zm50.13-22.1c-1.91,16.88,3.39,31-1.06,51.89a1.59,1.59,0,0,1,0,.36c-2.67-17.86-8.89-35-11.91-52.79-2.12-16.56,14.46-13.84,13,.54Zm26.42,10.25c-10.09,13.67-12.56,28.57-26.89,44.42a1.65,1.65,0,0,1-.21.27c6.63-16.8,9.78-34.74,16.09-51.68,6.44-15.41,19.44-4.75,11,7h0Zm17.75,22.1c-15.58,6.79-25.17,18.46-45.48,25a2.37,2.37,0,0,1-.32.14c14.13-11.25,25.85-25.2,39.76-36.7,13.27-10.11,19.22,5.6,6,11.53Zm4.32,28c-16.88-1.91-31,3.39-51.89-1.07a2.36,2.36,0,0,1-.36,0c17.86-2.67,35-8.89,52.8-11.91,16.55-2.12,13.83,14.46-.55,13Zm-54.47-1.5a4.43,4.43,0,1,1,4.43-4.43A4.43,4.43,0,0,1,1121.05,194Zm3-9.08c0,.11.08.19.13.33-11.25-14.14-25.19-25.85-36.69-39.77-10.12-13.27,5.6-19.22,11.52-6h0C1105.77,155,1117.43,164.62,1124,184.93Zm-5.87,9.27c-.06-.11-.08-.19-.14-.33,11.26,14.14,25.2,25.86,36.7,39.77,10.11,13.27-5.6,19.22-11.53,6h0C1136.38,224.1,1124.72,214.51,1118.14,194.2Zm58.79-58.58a58,58,0,0,1,16-14.22c1.47-.87,7.8-4,7.56-.57-1.88,4.11-5.76,6.85-8.59,10.3,3.34-1.93,6.55-4.64,10.25-6.22,6-2.91,17.8-6.25,11.36,4.65-6.31,9.7-16.66,15.85-25.8,22.29.33-.08.65-.16,1-.22h0c3.67.54,7.67,1.09,10.33,4,6.26,7.83-7.39,15.28-13.21,18.33a32.36,32.36,0,0,1-9,2.85c-2.17.52-21.12.95-4.21-8.92,17.51-8.4,5-19,15.25-30.71a.5.5,0,0,1-.13-.11c-2,2.17-3.7,4.86-6.56,6a1.45,1.45,0,0,1-2.06-1.85c.32-1.58,1.52-2.69,2.17-4.11a1.42,1.42,0,0,0-.16-.11c-3.59,3.92-9,5.33-4.11-1.46Zm-34.46-20.71a57.49,57.49,0,0,1,6.71-20.28c.82-1.5,4.76-7.37,6.25-4.27.44,4.48-1.57,8.83-2.28,13.24,1.93-3.37,3.34-7.29,5.76-10.52,3.73-5.52,12.29-14.33,12.18-1.66-.6,11.58-6.5,22-11.2,32.21.25-.22.49-.46.73-.68v0c3.46-1.36,7.18-2.91,11-1.66,9.32,3.64,1.25,16.94-2.28,22.48a33.27,33.27,0,0,1-6.36,7c-1.64,1.55-17.81,11.39-8.11-5.6,11-16-5.16-19-2.14-34.23h-.19c-.63,2.89-.76,6.07-2.67,8.46a1.43,1.43,0,0,1-2.69-.57c-.49-1.52,0-3.1-.19-4.65h-.19c-1.14,5.19-5.11,9.11-4.29.76Zm-41.24-28.46c2.64,3.66,3.07,8.42,4.62,12.61,0-3.89-.73-8-.27-12,.46-6.63,3.48-18.54,9.7-7.53,5.25,10.33,5.41,22.35,6.42,33.49.11-.33.19-.62.3-1v0c2.31-2.89,4.78-6.12,8.64-6.94,9.9-1.52,9.54,14,9.27,20.61a32.58,32.58,0,0,1-2,9.24c-.63,2.15-9.73,18.76-9.81-.79,1.46-19.35-13.95-13.81-19-28.57l-.16.09c.9,2.8,2.36,5.62,1.93,8.67a1.44,1.44,0,0,1-2.64.84c-1.19-1.06-1.57-2.66-2.47-3.94-.08.05-.08,0-.16.08,1.6,5.06.13,10.44-3.32,2.8A57.41,57.41,0,0,1,1098,93.27c0-1.71.43-8.75,3.29-6.82Zm-48.9,23.73c4.1,1.87,6.85,5.76,10.3,8.59-1.93-3.35-4.65-6.55-6.23-10.25-2.91-6-6.25-17.81,4.65-11.36,9.71,6.3,15.85,16.66,22.29,25.79-.08-.32-.16-.65-.22-1v0c.55-3.67,1.09-7.66,4-10.33,7.83-6.25,15.28,7.4,18.32,13.21a32.57,32.57,0,0,1,2.85,9c.52,2.17,1,21.12-8.91,4.21-8.4-17.5-19-5-30.72-15.25a.57.57,0,0,1-.11.14c2.18,2,4.87,3.7,6,6.55a1.45,1.45,0,0,1-1.85,2.07c-1.58-.33-2.69-1.53-4.1-2.18a.56.56,0,0,0-.11.17c3.91,3.58,5.33,9-1.47,4.1a57.85,57.85,0,0,1-14.22-16c-.87-1.46-4-7.8-.57-7.55Zm-30.48,45c4.49-.43,8.84,1.58,13.24,2.29-3.37-1.93-7.28-3.35-10.52-5.76-5.52-3.73-14.32-12.29-1.66-12.18,11.58.6,22.05,6.49,32.22,11.2-.22-.25-.47-.49-.68-.74h0c-1.36-3.45-2.91-7.17-1.65-10.95,3.64-9.33,16.93-1.25,22.48,2.25a33,33,0,0,1,7,6.37c1.55,1.63,11.39,17.8-5.6,8.1-16-11-18.94,5.16-34.22,2.14v.19c2.88.63,6.06.76,8.45,2.67a1.43,1.43,0,0,1-.57,2.69c-1.52.49-3.1,0-4.65.19v.19c5.2,1.14,9.11,5.11.76,4.29a57.51,57.51,0,0,1-20.27-6.71c-1.5-.82-7.37-4.76-4.27-6.25Zm2.91,57.5c-1.71,0-8.75-.44-6.82-3.29,3.67-2.64,8.43-3.07,12.61-4.62-3.89,0-8,.73-12,.27-6.63-.46-18.53-3.48-7.53-9.71,10.33-5.24,22.35-5.4,33.49-6.41l-1-.3h0c-2.88-2.31-6.12-4.78-6.93-8.64-1.52-9.9,14-9.55,20.6-9.27a32.64,32.64,0,0,1,9.25,2c2.14.62,18.75,9.73-.79,9.81-19.36-1.47-13.81,14-28.57,19l.08.16c2.8-.9,5.63-2.37,8.67-1.93a1.44,1.44,0,0,1,.84,2.64c-1.06,1.19-2.66,1.57-3.94,2.47.06.08,0,.08.08.16,5.06-1.6,10.44-.13,2.8,3.32a57.79,57.79,0,0,1-20.93,4.32Zm40.42,30.82a57.79,57.79,0,0,1-16,14.22c-1.47.87-7.8,4-7.56.57,1.88-4.1,5.76-6.85,8.59-10.3-3.34,1.93-6.55,4.65-10.25,6.22-6,2.91-17.8,6.26-11.36-4.64,6.31-9.71,16.66-15.85,25.8-22.29-.33.08-.66.16-1,.21h0c-3.66-.54-7.66-1.08-10.32-4-6.26-7.83,7.39-15.28,13.21-18.32a32.42,32.42,0,0,1,9-2.86c2.18-.51,21.13-1,4.22,8.92-17.51,8.4-5,19-15.25,30.72a.36.36,0,0,1,.13.11c2-2.18,3.7-4.87,6.55-6a1.45,1.45,0,0,1,2.07,1.85c-.33,1.57-1.52,2.69-2.17,4.1.08.06,0,.06.16.11,3.59-3.91,9-5.33,4.1,1.47Zm34.47,20.72a57.62,57.62,0,0,1-6.71,20.28c-.82,1.49-4.76,7.36-6.25,4.26-.44-4.48,1.57-8.83,2.28-13.23-1.93,3.37-3.34,7.28-5.76,10.52-3.73,5.51-12.29,14.32-12.18,1.65.6-11.58,6.5-22,11.2-32.21l-.74.68v0c-3.45,1.36-7.17,2.91-11,1.66-9.33-3.64-1.25-16.93,2.28-22.48a33.22,33.22,0,0,1,6.36-7c1.63-1.55,17.81-11.39,8.1,5.6-11,16,5.17,18.94,2.15,34.22h.19c.63-2.88.76-6.06,2.67-8.45a1.43,1.43,0,0,1,2.69.57c.49,1.52,0,3.1.19,4.64h.19c1.14-5.19,5.11-9.1,4.29-.76Zm41.24,28.46c-2.64-3.67-3.07-8.43-4.62-12.61,0,3.88.73,8,.27,12-.46,6.64-3.48,18.54-9.7,7.53-5.25-10.33-5.41-22.34-6.42-33.49-.11.33-.19.63-.3.95v0c-2.31,2.88-4.78,6.11-8.64,6.93-9.9,1.52-9.54-14-9.27-20.61a32.58,32.58,0,0,1,2-9.24c.62-2.15,9.73-18.75,9.81.79-1.47,19.35,14,13.81,19,28.57,0,0,.11-.05.16-.08-.9-2.8-2.37-5.63-1.93-8.67a1.44,1.44,0,0,1,2.64-.85c1.19,1.06,1.57,2.67,2.47,4,.08-.06.08,0,.16-.09-1.6-5.05-.13-10.43,3.32-2.8a57.47,57.47,0,0,1,4.32,20.94c0,1.71-.43,8.75-3.29,6.82Zm48.9-23.73c-4.1-1.88-6.85-5.77-10.3-8.59,1.93,3.34,4.65,6.55,6.23,10.25,2.9,6,6.25,17.8-4.65,11.36-9.71-6.31-15.85-16.66-22.29-25.8.08.33.16.65.21,1v0c-.54,3.67-1.08,7.67-4,10.33-7.83,6.25-15.28-7.39-18.32-13.21a32.38,32.38,0,0,1-2.86-9c-.51-2.17-1-21.12,8.92-4.21,8.4,17.51,19,5,30.72,15.25a.85.85,0,0,1,.11-.14c-2.18-2-4.87-3.69-6-6.55a1.45,1.45,0,0,1,1.85-2.06c1.57.32,2.69,1.52,4.1,2.17.06-.08.06-.05.11-.16-3.91-3.59-5.33-9,1.47-4.11a57.85,57.85,0,0,1,14.22,16c.87,1.47,4,7.8.57,7.56Zm29.44-29.36c-11.58-.6-22-6.5-32.21-11.2l.68.73h0c1.36,3.46,2.91,7.18,1.66,11-3.64,9.32-16.93,1.25-22.48-2.26a33,33,0,0,1-7-6.36c-1.55-1.63-11.39-17.8,5.6-8.1,16,11,19-5.16,34.23-2.15V221c-2.86-.62-6-.76-8.46-2.66a1.43,1.43,0,0,1,.57-2.69c1.53-.49,3.1,0,4.65-.19v-.19c-5.19-1.14-9.1-5.11-.76-4.3a57.51,57.51,0,0,1,20.28,6.72c1.5.81,7.37,4.75,4.27,6.25-4.49.43-8.84-1.58-13.24-2.28,3.37,1.93,7.29,3.34,10.52,5.76,5.52,3.72,14.33,12.29,1.66,12.18Z"/></g></g><g id="dbccbe0a-91c8-406f-afdd-3ff2d180c38b"><g id="dbccbe0a-91c8-406f-afdd-3ff2d180c38b-child-0"><path class="cls-1" d="M935.7,374.91V4.11h370.8v370.8Z"/></g></g><g id="f7114dc4-152f-47cf-952a-f53a239f8c44"><g id="f7114dc4-152f-47cf-952a-f53a239f8c44-child-0"><path class="cls-1" d="M548.4,374.91V4.11H919.2v370.8Z"/></g></g><g id="df2dcb5f-5380-4bfa-b77e-c4c9c9ca6982"><g id="df2dcb5f-5380-4bfa-b77e-c4c9c9ca6982-child-0"><path d="M870.2,119c-7.38,3.37-14.73,6.82-22.15,10.08a136.17,136.17,0,0,1-17.42,6.43A40.65,40.65,0,0,1,819,137.33a19.11,19.11,0,0,1-4.36-.53c-1.55-.38-2.12-1.52-1.89-3.11a6,6,0,0,1,.3-1.06,18.71,18.71,0,0,1,3.71-5.72,57.77,57.77,0,0,1,8.41-7.61c2.23-1.7,4.54-3.29,6.82-5a2.28,2.28,0,0,0,1.1-1.25,20,20,0,0,0-2.2,1.06,117,117,0,0,1-21.62,9c-4.66,1.52-9.32,3-14,4.47a16.81,16.81,0,0,0-2.61,1,23.32,23.32,0,0,1-7,2.23,7.37,7.37,0,0,1-1.33,0,2.82,2.82,0,0,1,1-1.82c1.75-1.66,3.41-3.37,5.27-4.92a145.59,145.59,0,0,1,24.88-16.62c.34-.19.76-.27,1-1a9.55,9.55,0,0,0-1.4.49c-2.92,1.29-5.87,2.46-8.71,3.9a338.53,338.53,0,0,0-44.65,27.46c-7.91,5.71-15.64,11.66-23.32,17.68-.19-6.47-.23-13-.08-19.43.34-13.78,1.21-27.53,2.08-41.27.8-11.93,1.59-23.82,2.31-35.75a137.88,137.88,0,0,0-.11-19.81c-.19-2-.61-4-.91-6a3.08,3.08,0,0,0-.3-.68,13,13,0,0,0-.49,3c-.76,8.06-1.48,16.17-2.35,24.23a130.22,130.22,0,0,1-3.15,18.29,41.9,41.9,0,0,1-4.2,11,18.16,18.16,0,0,1-2.65,3.49,2.41,2.41,0,0,1-3.6.07,5.14,5.14,0,0,1-.75-.79A19.15,19.15,0,0,1,721,86.36a56.34,56.34,0,0,1-2.39-11.1c-.34-2.8-.6-5.6-.9-8.4a2.22,2.22,0,0,0-.53-1.56c-.08,1-.19,1.71-.19,2.43A117.32,117.32,0,0,1,714,91c-1,4.77-2.08,9.54-3.1,14.35a17.86,17.86,0,0,0-.46,2.76,22.4,22.4,0,0,1-1.59,7.24,6.64,6.64,0,0,1-.68,1.13,2.7,2.7,0,0,1-1.06-1.74c-.57-2.35-1.21-4.66-1.63-7a146.38,146.38,0,0,1-1.93-29.85,1.67,1.67,0,0,0-.3-1.36c-.11.65-.27,1-.3,1.44-.34,3.14-.8,6.32-1,9.47a341.16,341.16,0,0,0,1.44,52.41c1,9.69,2.27,19.39,3.64,29-5.68-3.06-11.33-6.28-16.86-9.65-11.77-7.16-23.25-14.81-34.68-22.46-9.92-6.63-19.85-13.29-29.81-19.88a140.92,140.92,0,0,0-17.19-9.81c-1.85-.87-3.78-1.51-5.68-2.23a4.41,4.41,0,0,0-.72-.08,15,15,0,0,0,2.31,1.89c6.59,4.7,13.26,9.36,19.81,14.13a130.55,130.55,0,0,1,14.27,11.85A42.11,42.11,0,0,1,646,141.8a19.91,19.91,0,0,1,1.71,4A2.42,2.42,0,0,1,646,149a10.3,10.3,0,0,1-1.06.27,18.63,18.63,0,0,1-6.78-.34,56,56,0,0,1-10.79-3.49c-2.58-1.1-5.15-2.27-7.73-3.41a2,2,0,0,0-1.59-.3c.83.57,1.4,1,2,1.36a117.3,117.3,0,0,1,18.63,14.21c3.63,3.29,7.23,6.58,10.87,9.84a14,14,0,0,0,2.15,1.78,22.79,22.79,0,0,1,5.46,5,6.71,6.71,0,0,1,.64,1.14,2.58,2.58,0,0,1-2,0c-2.31-.68-4.66-1.28-6.9-2.12A144.67,144.67,0,0,1,622,159.71a1.59,1.59,0,0,0-1.32-.42c.49.42.76.72,1.1,1,2.57,1.89,5.07,3.86,7.72,5.6a338.79,338.79,0,0,0,46.09,25c8.9,4,17.91,7.72,27,11.36-5.53,3.37-11.1,6.66-16.78,9.77-12.08,6.62-24.42,12.72-36.8,18.82-10.72,5.26-21.44,10.53-32.12,15.9a136.37,136.37,0,0,0-17.08,10c-1.66,1.17-3.18,2.54-4.77,3.82a1.73,1.73,0,0,0-.41.61,15.88,15.88,0,0,0,2.8-1.06c7.38-3.37,14.73-6.82,22.15-10.07A134.73,134.73,0,0,1,637,243.55a41.06,41.06,0,0,1,11.67-1.86,19.1,19.1,0,0,1,4.35.53c1.55.38,2.12,1.52,1.89,3.11a5.27,5.27,0,0,1-.3,1.06,18.3,18.3,0,0,1-3.71,5.72,57.21,57.21,0,0,1-8.41,7.61c-2.23,1.7-4.54,3.29-6.81,5a2.28,2.28,0,0,0-1.1,1.25,19.77,19.77,0,0,0,2.19-1.06,117.76,117.76,0,0,1,21.63-9.05c4.66-1.52,9.31-2.95,14-4.47a17.87,17.87,0,0,0,2.61-1,23.21,23.21,0,0,1,7-2.24,8.29,8.29,0,0,1,1.32,0,2.76,2.76,0,0,1-1,1.82c-1.74,1.67-3.41,3.37-5.27,4.92a145.84,145.84,0,0,1-24.88,16.63c-.34.19-.75.26-1,.94a9.55,9.55,0,0,0,1.4-.49c2.92-1.29,5.87-2.46,8.71-3.9a338.87,338.87,0,0,0,44.65-27.45c7.91-5.72,15.64-11.67,23.33-17.69q.29,9.72.07,19.43c-.34,13.78-1.21,27.53-2.08,41.27-.79,11.93-1.59,23.82-2.31,35.75a139.34,139.34,0,0,0,.11,19.81c.19,2,.61,4,.91,6a2.57,2.57,0,0,0,.31.68,14.2,14.2,0,0,0,.49-2.95c.76-8.07,1.47-16.17,2.35-24.24a128.76,128.76,0,0,1,3.14-18.29,41.85,41.85,0,0,1,4.2-11,18.09,18.09,0,0,1,2.65-3.48,2.4,2.4,0,0,1,3.6-.08,4.84,4.84,0,0,1,.76.8,19.12,19.12,0,0,1,3.1,6.06A55.38,55.38,0,0,1,749,303.76c.34,2.8.6,5.61.91,8.41a2.21,2.21,0,0,0,.53,1.55c.07-1,.19-1.7.19-2.42a116.38,116.38,0,0,1,3-23.25c1-4.78,2.08-9.55,3.1-14.36a17.67,17.67,0,0,0,.46-2.76,22.55,22.55,0,0,1,1.59-7.23,7.93,7.93,0,0,1,.68-1.14,2.72,2.72,0,0,1,1.06,1.74c.57,2.35,1.21,4.66,1.63,7A145.53,145.53,0,0,1,764,301.15a1.66,1.66,0,0,0,.3,1.36c.12-.64.27-1,.31-1.44.34-3.14.79-6.32,1-9.47a341.16,341.16,0,0,0-1.44-52.41c-1-9.69-2.27-19.38-3.63-29,5.68,3.07,11.32,6.29,16.85,9.66,11.78,7.15,23.25,14.8,34.69,22.45,9.92,6.63,19.84,13.29,29.8,19.88A142.43,142.43,0,0,0,859.07,272c1.86.87,3.79,1.52,5.68,2.24a5.85,5.85,0,0,0,.72.07,15.05,15.05,0,0,0-2.31-1.89c-6.59-4.7-13.25-9.36-19.8-14.13a128.42,128.42,0,0,1-14.28-11.85,42.34,42.34,0,0,1-7.46-9.16,20,20,0,0,1-1.71-4,2.42,2.42,0,0,1,1.75-3.18,10.23,10.23,0,0,1,1.06-.26,18.44,18.44,0,0,1,6.78.34,55.68,55.68,0,0,1,10.79,3.48c2.57,1.1,5.15,2.27,7.72,3.41a2,2,0,0,0,1.59.3c-.83-.57-1.4-1-2-1.36A117.38,117.38,0,0,1,829,221.74c-3.64-3.3-7.24-6.59-10.87-9.85a14.1,14.1,0,0,0-2.16-1.78,22.72,22.72,0,0,1-5.45-5,6.33,6.33,0,0,1-.65-1.13,2.57,2.57,0,0,1,2,0c2.31.68,4.65,1.29,6.89,2.12a144.36,144.36,0,0,1,26.81,13.25,1.6,1.6,0,0,0,1.32.42c-.49-.42-.75-.72-1.09-1-2.58-1.9-5.08-3.87-7.73-5.61A337.52,337.52,0,0,0,792,188.19c-8.9-4-17.92-7.73-27-11.36,5.53-3.37,11.1-6.67,16.78-9.77,12.08-6.63,24.42-12.73,36.81-18.83,10.71-5.26,21.43-10.52,32.11-15.9a134.45,134.45,0,0,0,17.08-10c1.66-1.17,3.18-2.53,4.77-3.82a1.79,1.79,0,0,0,.42-.61A17.37,17.37,0,0,0,870.2,119ZM717.44,174.25c2-1.29,4-2.57,6-3.79.08,2.35.23,4.7.42,7C721.72,176.41,719.56,175.35,717.44,174.25Zm10.91,29.92c.15,2.38.3,4.81.42,7.19-2.13-1.06-4.21-2.19-6.29-3.33C724.49,206.78,726.46,205.49,728.35,204.17Zm-9.92-12.08-6,4c-.12-2.38-.23-4.73-.27-7.12C714.22,190,716.31,191.1,718.43,192.09Zm-16.89,3.52C692,189.7,682.64,183.68,673.7,177a149.26,149.26,0,0,1-17.64-15.07,61.22,61.22,0,0,1-4.7-5.61,10.15,10.15,0,0,1-1.32-2.73,1.37,1.37,0,0,1,1.13-1.93,4.43,4.43,0,0,1,1.21-.19,20.34,20.34,0,0,1,3.75.31c3.18.68,6.37,1.36,9.51,2.31a152.45,152.45,0,0,1,28,11.77A127.18,127.18,0,0,1,706,173.23a21.89,21.89,0,0,1,2,1.51c.15,1.14.34,2.27.5,3.41h-.19a37.91,37.91,0,0,1-5-1.21c-4.28-1.52-8.52-3.07-12.69-4.77-3.52-1.44-6.93-3.15-10.37-4.7-4.13-2.5-8.22-5-12.27-7.65-.27-.15-.53-.26-.8-.41,0,.07-.07.11-.11.19.3.26.57.53.87.75,2.88,2.16,5.68,4.36,8.63,6.44,4,2.88,8.26,5.53,12.54,8,6.74,4.66,13.63,9.05,20.79,13,.22,1.59.45,3.18.72,4.77.19,1.4.49,2.8.75,4.16-1.32.87-2.65,1.71-4,2.54l-5.91-3.64ZM723,220.53c-9.84,5.26-19.77,10.37-30.07,14.76A148.39,148.39,0,0,1,671,243a64.18,64.18,0,0,1-7.2,1.29,9.16,9.16,0,0,1-3-.23,1.39,1.39,0,0,1-1.1-1.93,4.33,4.33,0,0,1,.46-1.14,21.73,21.73,0,0,1,2.12-3.1c2.19-2.43,4.39-4.85,6.74-7.08a152.32,152.32,0,0,1,24.2-18.41,118.11,118.11,0,0,1,12.61-7c.75-.34,1.51-.65,2.27-.95,1.06.42,2.12.83,3.18,1.29,0,0-.08.07-.11.15a36.52,36.52,0,0,1-3.53,3.71c-3.44,2.92-6.93,5.83-10.49,8.6-3,2.31-6.17,4.43-9.27,6.62-4.21,2.31-8.49,4.58-12.76,6.82-.27.15-.5.34-.76.49,0,.08.07.11.07.19a8.88,8.88,0,0,0,1.1-.38c3.3-1.4,6.63-2.72,9.89-4.24,4.5-2.08,8.86-4.35,13.14-6.82,7.42-3.52,14.69-7.3,21.73-11.51,1.52.61,3,1.18,4.51,1.78,1.32.53,2.65,1,4,1.44.08,1.59.15,3.14.23,4.73l-6.1,3.3Zm8-58.81a37.94,37.94,0,0,1-1.44-4.93c-.83-4.43-1.59-8.9-2.2-13.4-.49-3.75-.75-7.58-1.09-11.36.07-4.81.26-9.62.49-14.47a6.12,6.12,0,0,0,0-.87h-.19c-.07.38-.19.76-.23,1.14-.41,3.56-.94,7.12-1.25,10.68-.45,5-.64,9.92-.68,14.88-.64,8.14-1,16.32-.87,24.5l-3.79,3c-1.09.87-2.15,1.82-3.21,2.76l-4.21-2.15c0-2.31.12-4.62.19-6.93.34-11.18.91-22.31,2.24-33.4a149.35,149.35,0,0,1,4.24-22.8,63.76,63.76,0,0,1,2.5-6.89,9.23,9.23,0,0,1,1.7-2.5,1.38,1.38,0,0,1,2.23,0,3.42,3.42,0,0,1,.76.94,25.86,25.86,0,0,1,1.63,3.41c1,3.11,2,6.21,2.76,9.39a152.68,152.68,0,0,1,3.83,30.15,121.92,121.92,0,0,1-.23,14.43c-.07.83-.19,1.62-.3,2.46-.91.72-1.82,1.4-2.69,2.12a.3.3,0,0,0-.07-.15Zm1.25,28.09c-.08-.15-.11-.34-.19-.49a6.6,6.6,0,0,1,.72-1c.11-.15.23-.27.34-.42a4.42,4.42,0,0,1,1.25.12c.19,0,.34.07.53.07a7.27,7.27,0,0,1,.53,1.14c.08.15.11.34.19.49a7.36,7.36,0,0,1-.72,1c-.11.15-.23.27-.34.42a4.81,4.81,0,0,1-1.25-.11c-.19,0-.34-.08-.53-.08A7.27,7.27,0,0,1,732.25,189.81Zm23,24.66c-.34,11.17-.91,22.3-2.23,33.4a150.68,150.68,0,0,1-4.24,22.79,67,67,0,0,1-2.5,6.9,9.19,9.19,0,0,1-1.71,2.5,1.39,1.39,0,0,1-2.23,0,3.83,3.83,0,0,1-.76-.95A25.86,25.86,0,0,1,740,275.7c-1-3.11-2-6.21-2.76-9.39a152.56,152.56,0,0,1-3.82-30.14,121.92,121.92,0,0,1,.22-14.43c.08-.84.19-1.63.31-2.46.9-.72,1.81-1.41,2.68-2.12a.32.32,0,0,0,.08.15,37.81,37.81,0,0,1,1.44,4.92c.83,4.43,1.59,8.9,2.19,13.41.5,3.74.76,7.57,1.1,11.36-.07,4.81-.26,9.61-.49,14.46a6.05,6.05,0,0,0,0,.87h.19c.07-.38.19-.75.23-1.13.41-3.56.94-7.12,1.24-10.68.46-5,.65-9.92.69-14.88.64-8.15,1-16.33.87-24.51l3.78-3c1.1-.87,2.16-1.82,3.22-2.76l4.21,2.16c0,2.31-.12,4.62-.19,6.93Zm-15.94-39.58c-.15-2.38-.3-4.81-.42-7.19,2.12,1.06,4.21,2.2,6.29,3.33C743.19,172.28,741.22,173.57,739.33,174.89Zm10.91,29.92c-2,1.29-4,2.58-6,3.79-.08-2.35-.23-4.7-.42-7C746,202.65,748.12,203.71,750.24,204.81Zm-1-17.87,6-4c.12,2.39.23,4.73.27,7.12C753.46,189,751.37,187.92,749.25,186.94Zm16.89-3.53c9.51,5.91,18.9,11.93,27.83,18.64a146.72,146.72,0,0,1,17.65,15.07,59.78,59.78,0,0,1,4.7,5.6,10.29,10.29,0,0,1,1.32,2.73,1.37,1.37,0,0,1-1.13,1.93,4.45,4.45,0,0,1-1.22.19,21.21,21.21,0,0,1-3.74-.3c-3.19-.69-6.37-1.37-9.51-2.31a153.18,153.18,0,0,1-28-11.78,126.53,126.53,0,0,1-12.39-7.39,23.26,23.26,0,0,1-2-1.51c-.16-1.14-.35-2.27-.5-3.41h.19a39.56,39.56,0,0,1,5,1.21c4.28,1.52,8.52,3.07,12.69,4.78,3.52,1.43,6.93,3.14,10.37,4.69q6.2,3.75,12.27,7.65l.8.42c0-.08.07-.12.11-.19-.3-.27-.57-.53-.87-.76-2.88-2.16-5.68-4.35-8.63-6.44-4.06-2.88-8.26-5.53-12.54-8-6.74-4.65-13.63-9-20.79-13-.22-1.59-.45-3.18-.72-4.77-.19-1.41-.49-2.81-.75-4.17,1.32-.87,2.65-1.7,4-2.54l5.91,3.64ZM808,136.87a4.33,4.33,0,0,1-.46,1.14,22.69,22.69,0,0,1-2.12,3.11c-2.2,2.42-4.39,4.84-6.74,7.08a152.26,152.26,0,0,1-24.2,18.4,121,121,0,0,1-12.61,7c-.76.34-1.51.64-2.27.94-1.06-.41-2.12-.83-3.18-1.28,0,0,.07-.08.11-.16A38.71,38.71,0,0,1,760,169.4c3.45-2.91,6.93-5.83,10.49-8.59,3-2.31,6.18-4.43,9.28-6.63,4.21-2.31,8.48-4.58,12.76-6.82.27-.15.5-.34.76-.49,0-.07-.07-.11-.07-.19a10.9,10.9,0,0,0-1.1.38c-3.3,1.4-6.63,2.73-9.89,4.24-4.5,2.08-8.86,4.36-13.14,6.82-7.42,3.52-14.69,7.31-21.73,11.51-1.52-.61-3-1.17-4.51-1.78-1.33-.53-2.65-1-4-1.44-.08-1.59-.16-3.14-.23-4.73l6.1-3.3c9.84-5.26,19.76-10.37,30.06-14.77a149.63,149.63,0,0,1,21.89-7.72,63.78,63.78,0,0,1,7.2-1.29,9.16,9.16,0,0,1,3,.23,1.42,1.42,0,0,1,1.13,1.93Z"/></g></g></g></g></svg>