<svg xmlns="http://www.w3.org/2000/svg" xmlns:xlink="http://www.w3.org/1999/xlink" width="377px" height="281px" viewBox="0 0 376.86370457442536 280.6604642303964">
    <g id="4d63f383-34f9-42eb-9b76-69417225f533">
<g style="">
		<g id="4d63f383-34f9-42eb-9b76-69417225f533-child-0">
<path style="stroke: rgb(193,193,193); stroke-width: 0; stroke-dasharray: none; stroke-linecap: butt; stroke-dashoffset: 0; stroke-linejoin: miter; stroke-miterlimit: 4; fill: rgb(252,248,227); fill-rule: evenodd; opacity: 1;" transform="matrix(0.072288 -0.604085 0.604085 0.072288 188.431852 140.330232) matrix(1 0 0 1 -10.684815 -27.258527)  translate(-187.078385, -261)" d="M 46.49 522.00 C 32.36 514.63 21.45 502.30 15.87 487.37 C 6.70 462.37 4.56 441.27 8.07 433.95 C 11.58 426.63 25.72 412.10 28.50 392.80 C 31.28 373.50 37.50 370.03 38.37 361.85 C 39.24 353.67 46.14 332.23 41.89 312.71 C 37.64 293.19 42.15 271.81 52.56 259.32 C 62.97 246.83 66.12 246.58 66.12 246.58 C 66.12 246.58 71.72 231.99 79.57 227.91 C 87.42 223.83 100.14 223.14 113.88 221.91 C 127.62 220.68 132.99 214.46 133.88 207.43 C 134.77 200.40 126.35 192.95 120.67 185.60 C 114.99 178.25 112.31 174.38 118.06 167.75 C 121.60 163.74 126.20 160.81 131.33 159.31 C 131.33 159.31 141.47 147.94 155.10 141.15 C 168.73 134.36 181.67 134.06 202.27 137.22 C 222.87 140.38 263.27 136.99 291.82 120.28 C 320.37 103.57 344.51 75.63 345.68 45.42 C 346.85 15.21 330.00 0.00 330.00 0.00 C 330.00 0.00 354.70 13.51 365.08 45.33 C 375.46 77.15 352.67 134.00 334.18 158.47 C 315.69 182.94 288.88 189.15 281.18 205.47 C 273.48 221.79 277.32 237.56 264.86 257.14 C 252.40 276.72 233.42 293.14 231.40 311.14 C 229.38 329.14 202.53 366.00 202.53 366.00 C 202.53 366.00 213.53 404.38 206.53 425.27 C 199.53 446.16 150.19 482.55 114.71 501.00 C 79.23 519.45 46.49 521.92 46.49 521.92 Z" stroke-linecap="round"/>
</g>
		<g id="4d63f383-34f9-42eb-9b76-69417225f533-child-1">
<path style="stroke: rgb(193,193,193); stroke-width: 0; stroke-dasharray: none; stroke-linecap: butt; stroke-dashoffset: 0; stroke-linejoin: miter; stroke-miterlimit: 4; fill: rgb(209,65,25); fill-rule: evenodd; opacity: 1;" transform="matrix(0.072288 -0.604085 0.604085 0.072288 188.431852 140.330232) matrix(1 0 0 1 -22.376321 -9.628526)  translate(-175.386879, -278.63)" d="M 22.00 499.63 C 19.51 495.76 17.45 491.64 15.85 487.33 C 6.68 462.33 4.54 441.23 8.05 433.91 C 11.56 426.59 25.72 412.10 28.50 392.80 C 31.28 373.50 37.50 370.03 38.37 361.85 C 39.24 353.67 46.14 332.23 41.89 312.71 C 37.64 293.19 42.15 271.81 52.56 259.32 C 62.97 246.83 66.12 246.58 66.12 246.58 C 66.12 246.58 71.72 231.99 79.57 227.91 C 87.42 223.83 100.14 223.14 113.88 221.91 C 127.62 220.68 132.99 214.46 133.88 207.43 C 134.77 200.40 126.35 192.95 120.67 185.60 C 114.99 178.25 112.31 174.38 118.06 167.75 C 121.60 163.74 126.20 160.81 131.33 159.31 C 131.33 159.31 141.47 147.94 155.10 141.15 C 168.73 134.36 181.67 134.06 202.27 137.22 C 222.87 140.38 263.27 136.99 291.82 120.28 C 317.00 105.60 338.66 82.19 344.32 56.17 C 343.05 73.68 336.59 90.42 325.77 104.25 C 303.35 132.30 250.77 150.06 216.97 148.03 C 183.17 146.00 159.78 150.73 144.97 157.82 C 130.16 164.91 117.40 186.00 129.42 194.45 C 141.44 202.90 139.12 217.19 130.42 224.45 C 121.72 231.71 100.61 236.11 86.10 234.85 C 71.59 233.59 69.17 251.17 69.17 251.17 C 69.17 251.17 66.24 251.90 61.87 258.76 C 57.50 265.62 49.75 286.13 55.75 305.18 C 61.75 324.23 55.37 342.92 55.37 342.92 C 55.37 342.92 60.29 336.82 69.67 319.47 C 79.05 302.12 85.58 275.61 85.58 275.61 C 85.58 275.61 90.94 284.23 88.36 301.40 C 85.78 318.57 68.47 343.40 52.56 362.52 C 36.65 381.64 35.76 399.47 34.27 412.95 C 32.78 426.43 24.27 435.54 18.13 448.49 C 11.99 461.44 26.83 501.09 26.83 501.09 C 26.83 501.09 25.10 500.65 22.05 499.65 Z" stroke-linecap="round"/>
</g>
		<g id="4d63f383-34f9-42eb-9b76-69417225f533-child-2">
<path style="stroke: rgb(193,193,193); stroke-width: 0; stroke-dasharray: none; stroke-linecap: butt; stroke-dashoffset: 0; stroke-linejoin: miter; stroke-miterlimit: 4; fill: rgb(209,65,25); fill-rule: evenodd; opacity: 1;" transform="matrix(0.072288 -0.604085 0.604085 0.072288 188.431852 140.330232) matrix(1 0 0 1 -56.755398 25.878189)  translate(-141.007801, -314.136715)" d="M 48.86 467.84 C 48.86 467.84 31.66 418.76 63.46 379.84 C 95.26 340.92 124.46 313.84 122.97 283.78 C 121.48 253.72 124.35 241.47 136.97 225.35 C 149.59 209.23 159.51 206.00 159.51 206.00 C 159.51 206.00 149.19 228.82 152.92 241.13 C 155.02 248.30 158.75 254.89 163.82 260.38 C 163.82 260.38 156.49 226.89 167.51 207.81 C 178.53 188.73 188.51 184.31 188.51 184.31 C 188.51 184.31 170.57 185.49 159.88 192.46 C 149.19 199.43 145.06 206.73 145.06 206.73 C 145.06 206.73 141.51 169.34 183.61 164.59 C 225.71 159.84 237.80 160.46 237.80 160.46 C 237.80 160.46 194.80 180.30 186.19 214.20 C 177.58 248.10 183.97 264.92 193.90 286.20 C 203.83 307.48 183.00 334.52 153.77 349.00 C 124.54 363.48 80.45 375.10 72.45 420.84 C 64.45 466.58 48.84 467.84 48.84 467.84 Z" stroke-linecap="round"/>
</g>
		<g id="4d63f383-34f9-42eb-9b76-69417225f533-child-3">
<path style="stroke: rgb(193,193,193); stroke-width: 0; stroke-dasharray: none; stroke-linecap: butt; stroke-dashoffset: 0; stroke-linejoin: miter; stroke-miterlimit: 4; fill: rgb(54,54,54); fill-rule: nonzero; opacity: 1;" transform="matrix(0.072288 -0.604085 0.604085 0.072288 188.431852 140.330232) matrix(1 0 0 1 0 14.754329)  translate(-197.7632, -303.012856)" d="M 104.54 575.55 C 102.54 574.64 100.44 573.97 98.29 573.55 C 87.22 570.97 82.29 568.55 71.04 560.13 C 63.37 554.33 56.08 548.05 49.21 541.32 C 46.40 538.60 43.39 536.09 40.21 533.82 C 33.38 529.30 23.68 517.97 18.44 508.33 C 15.66 503.23 10.68 491.92 9.68 488.40 C 7.89 482.22 6.41 475.96 5.25 469.64 C 4.80 467.13 4.08 464.67 3.08 462.32 C -0.02 455.32 -0.28 453.70 0.08 445.59 C 0.43 438.30 0.46 438.09 2.34 434.84 C 4.03 432.14 5.88 429.54 7.88 427.07 C 14.79 418.54 17.93 411.40 21.59 395.72 C 24.59 382.65 26.16 378.28 30.21 370.96 C 35.16 362.05 35.77 359.53 36.45 345.23 C 37.01 334.49 36.55 323.73 35.07 313.08 C 34.19 305.61 34.99 289.61 36.62 282.66 C 39.49 270.33 45.91 259.55 54.06 253.22 C 56.66 251.22 61.18 248.74 62.15 248.80 C 62.32 248.80 61.44 250.17 60.15 251.87 C 55.43 258.14 49.81 269.48 48.52 275.31 C 47.16 282.97 46.19 290.70 45.62 298.46 C 45.60 301.62 45.83 304.78 46.30 307.90 C 48.30 321.58 48.17 340.90 46.09 347.90 C 45.77 348.73 45.63 349.62 45.68 350.51 C 46.12 351.29 53.94 342.65 61.35 333.19 C 62.15 332.19 62.21 332.19 62.53 333.13 C 63.09 334.77 60.71 338.84 53.45 348.86 C 48.10 355.91 43.32 363.36 39.14 371.16 C 34.99 378.81 33.34 383.96 32.14 393.16 C 29.65 412.41 26.01 421.90 16.67 433.63 C 11.84 439.72 11.25 441.01 10.40 447.25 C 9.90 451.17 9.99 451.88 11.87 458.67 C 13.68 465.19 15.00 468.82 21.71 485.28 C 25.23 493.95 32.50 502.37 40.11 506.65 C 52.27 513.41 60.83 514.32 66.42 509.43 C 67.77 508.31 69.26 507.37 70.85 506.62 C 72.17 506.03 73.28 505.33 73.28 505.06 C 73.28 504.79 76.28 501.87 79.81 498.59 C 83.34 495.31 87.70 491.17 89.37 489.45 C 92.03 486.86 94.83 484.41 97.75 482.12 C 100.68 479.84 104.75 476.55 106.59 474.80 C 108.43 473.05 111.66 470.34 113.59 468.73 C 121.95 461.58 128.45 453.73 132.70 445.67 C 136.95 437.61 137.18 436.67 137.86 427.09 C 138.44 419.29 138.23 408.63 137.50 407.31 C 137.15 406.67 134.83 407.78 128.10 411.74 C 121.37 415.70 119.40 416.48 117.17 415.74 C 114.77 414.95 113.91 412.87 114.94 410.29 C 120.18 397.04 134.51 382.29 156.87 367.07 C 160.31 364.86 163.38 362.14 166.00 359.00 C 168.28 356.25 169.49 354.40 169.07 354.28 C 168.65 354.16 163.42 356.13 157.35 358.62 C 151.28 361.11 142.43 364.68 137.63 366.56 C 111.75 376.67 110.46 377.41 99.07 388.10 C 89.84 396.75 89.63 397.27 88.43 415.03 C 87.50 429.09 87.43 440.73 88.34 440.76 C 88.64 440.76 90.34 439.20 92.12 437.27 C 96.61 432.43 98.63 427.60 99.42 419.98 C 99.95 414.73 100.33 413.38 101.24 413.41 C 102.35 413.47 103.47 416.84 104.24 422.71 C 105.01 428.58 103.24 441.60 101.02 446.50 C 100.23 448.20 99.32 450.19 98.68 451.66 C 94.34 461.33 85.61 472.40 79.60 475.83 C 73.16 479.52 60.03 484.50 57.19 484.35 C 53.50 484.18 51.97 483.35 49.01 480.02 C 45.81 476.36 43.12 470.79 41.51 464.46 C 40.98 462.32 39.93 458.34 39.19 455.55 C 35.56 441.84 35.70 430.61 39.84 411.31 C 41.25 404.65 43.18 397.04 44.09 394.31 C 47.14 385.49 51.91 378.40 60.17 370.49 C 67.44 363.54 69.35 361.35 76.02 352.17 C 79.25 347.78 83.85 341.89 86.25 339.11 C 88.65 336.33 91.91 332.51 93.46 330.70 C 95.01 328.89 97.62 325.83 99.23 323.92 C 102.67 319.96 105.55 315.53 107.76 310.77 C 108.11 310.01 108.61 308.98 108.90 308.48 C 109.23 307.84 109.43 307.14 109.49 306.43 C 109.49 305.81 109.78 305.32 110.10 305.35 C 110.42 305.38 110.66 304.91 110.69 304.35 C 110.75 303.29 111.80 302.06 112.62 302.12 C 113.44 302.18 112.27 307.78 110.37 313.61 C 107.76 321.61 103.78 328.79 95.25 340.86 C 92.47 344.79 91.25 346.96 91.59 347.42 C 91.99 348.04 91.12 350.12 90.12 350.85 C 89.92 350.97 86.55 355.43 82.59 360.73 C 78.63 366.03 74.18 371.89 72.71 373.80 C 65.45 383.09 62.08 393.40 61.32 408.58 C 61.08 413.32 61.05 417.81 61.32 418.58 C 61.69 419.73 61.84 419.52 62.61 416.97 C 65.61 406.80 70.28 397.69 80.95 380.97 C 84.61 375.25 87.61 370.48 87.61 370.36 C 87.61 369.92 95.61 358.91 101.55 351.16 C 106.73 344.21 111.34 336.85 115.35 329.16 C 115.94 327.99 118.35 323.57 120.60 319.34 C 122.19 316.60 123.59 313.77 124.81 310.85 C 124.83 310.40 125.06 309.98 125.43 309.73 C 125.88 309.09 126.11 308.32 126.07 307.54 C 126.03 306.76 126.27 305.99 126.75 305.37 C 127.04 305.20 127.36 303.64 127.48 301.91 C 127.62 298.78 128.56 296.91 129.91 296.91 C 130.50 296.91 130.47 298.64 129.91 305.26 C 129.69 308.64 129.24 311.99 128.57 315.31 C 127.98 316.89 127.25 319.21 125.87 323.84 C 125.55 324.90 124.87 327.09 124.47 328.76 C 122.09 337.70 115.47 350.88 108.58 360.64 C 106.58 363.42 105.18 365.80 105.45 365.89 C 105.72 365.98 109.45 363.89 113.86 361.32 C 118.27 358.75 124.02 355.37 126.75 353.91 C 133.40 350.30 135.66 347.96 138.29 341.91 C 138.67 341.03 145.21 323.63 147.20 318.26 C 147.67 316.97 148.11 315.42 149.78 309.41 C 150.24 307.60 150.52 305.75 150.63 303.88 C 150.91 300.97 151.34 298.07 151.92 295.20 C 153.47 287.43 153.36 281.14 151.51 272.20 C 151.32 271.11 151.01 270.03 150.60 269.00 C 150.35 268.33 150.21 267.63 150.19 266.92 C 150.26 266.40 150.09 265.87 149.72 265.49 C 149.36 265.09 149.18 264.56 149.22 264.02 C 149.24 263.32 149.11 262.62 148.85 261.97 C 148.61 261.42 148.17 260.30 147.85 259.42 C 145.39 252.42 144.85 249.37 146.09 248.70 C 146.52 248.15 146.75 247.46 146.73 246.76 C 146.85 244.22 148.17 244.86 149.60 248.17 C 150.31 249.81 152.77 254.61 155.06 258.81 C 161.21 270.20 162.96 274.04 165.31 281.63 C 168.06 290.16 169.86 298.97 170.67 307.89 C 170.97 311.61 171.29 314.78 171.40 314.89 C 171.79 315.30 175.40 312.89 177.76 310.73 C 181.60 306.67 184.88 302.11 187.52 297.19 C 188.93 294.56 189.28 293.09 189.52 289.26 C 189.95 286.15 189.52 282.97 188.29 280.08 C 187.41 277.59 185.71 273.43 184.48 270.82 C 182.08 265.72 181.94 265.08 183.05 265.14 C 185.34 265.25 193.92 279.73 196.76 288.37 C 198.22 292.80 198.84 294.47 201.01 299.77 C 203.53 305.98 204.52 309.47 206.61 319.70 C 208.10 327.03 208.27 328.81 207.98 333.88 C 207.73 337.49 207.16 341.07 206.26 344.57 C 205.73 346.25 205.34 347.98 205.11 349.73 C 205.23 349.88 205.84 349.56 206.43 349.06 C 208.31 347.53 211.76 341.14 214.08 334.90 C 219.14 321.31 219.50 318.64 217.39 309.15 C 216.63 305.78 215.60 301.03 215.08 298.66 C 213.76 292.77 211.82 287.29 208.08 278.66 C 204.01 269.34 200.17 257.95 199.35 252.56 C 198.40 244.84 197.92 237.07 197.92 229.29 C 198.50 217.29 210.77 200.69 225.37 192.16 C 233.83 187.56 242.65 183.66 251.74 180.50 C 260.33 177.72 266.05 175.34 271.08 172.44 C 273.52 171.07 282.31 166.82 290.66 163.01 C 305.66 156.18 316.04 150.58 323.12 145.48 C 330.90 140.00 341.07 127.14 349.00 112.90 C 355.36 101.50 355.59 100.62 351.00 105.25 C 344.20 112.14 335.76 119.82 332.31 122.31 C 324.98 127.52 313.05 134.44 297.31 142.50 C 282.57 150.06 272.26 154.57 253.77 161.50 C 249.90 162.97 244.82 165.02 242.48 166.07 C 230.82 171.26 219.60 176.77 215.03 179.47 C 206.41 184.56 198.62 192.00 198.47 195.20 C 198.38 196.72 197.39 197.04 196.33 195.87 C 195.27 194.70 195.63 193.44 197.33 190.48 C 198.47 188.48 198.65 187.82 198.06 187.79 C 196.33 187.70 196.60 185.79 198.53 184.27 C 199.58 183.45 203.19 180.46 206.53 177.65 C 209.87 174.84 214.35 171.29 216.46 169.85 C 217.84 169.00 219.13 168.01 220.30 166.90 C 220.30 166.48 205.94 166.45 200.67 166.90 C 198.53 167.04 193.67 167.45 189.82 167.74 C 175.09 168.91 160.64 173.14 156.54 177.50 C 154.34 179.81 153.25 180.11 153.35 178.41 C 153.45 176.71 154.96 174.92 159.20 171.79 C 164.39 168.05 170.10 165.09 176.15 163.00 C 181.51 161.15 199.80 157.46 202.82 157.61 C 204.58 157.63 206.34 157.53 208.09 157.32 C 209.76 157.08 214.09 156.81 217.76 156.70 C 222.28 156.61 226.78 155.97 231.15 154.80 C 245.25 151.25 254.56 149.11 256.79 148.85 C 262.48 148.23 270.45 145.04 288.24 136.28 C 290.87 134.95 295.33 132.82 298.14 131.50 C 300.95 130.18 305.93 127.50 309.21 125.44 C 312.49 123.38 317.12 120.72 319.47 119.44 C 321.62 118.26 323.65 116.88 325.53 115.30 C 331.13 109.86 350.53 82.07 354.75 73.52 C 357.89 67.46 359.65 60.79 359.91 53.97 C 360.23 47.21 359.21 38.97 357.35 33.82 C 356.48 31.41 356.57 29.45 357.54 29.51 C 358.27 29.51 360.54 32.67 363.30 37.24 C 364.56 39.42 365.94 41.53 367.44 43.55 C 369.08 45.48 372.06 51.98 372.95 55.41 C 374.74 62.67 375.44 70.77 375.85 87.94 C 376.26 106.72 374.15 115.66 365.56 131.42 C 362.34 137.42 362.16 138.51 364.92 136.11 C 370.31 131.36 380.18 115.54 382.67 107.66 C 384.54 102.27 385.53 96.62 385.60 90.92 C 385.99 82.92 385.60 74.52 384.73 72.67 C 384.11 71.32 384.99 70.45 386.45 70.97 C 387.68 71.44 391.76 76.97 393.29 80.29 C 395.39 84.86 395.86 88.70 395.42 97.75 C 394.95 106.95 394.66 108.30 390.74 118.30 C 389.56 121.30 388.22 124.83 387.74 126.14 C 385.63 132.41 380.74 140.45 374.80 147.45 C 370.57 152.45 369.02 153.72 362.46 157.85 C 352.76 163.85 351.73 164.74 349.24 168.85 C 341.12 181.98 327.35 193.64 311.18 201.11 C 307.25 202.90 305.55 204.19 300.25 209.26 C 291.81 217.32 290.81 219.13 286.86 233.40 C 285.65 238.73 284.84 244.13 284.43 249.58 C 284.07 256.64 281.61 265.40 278.57 270.32 C 273.26 278.91 262.80 289.32 252.22 296.40 C 248.58 298.84 245.28 301.48 244.89 302.26 C 244.33 303.89 244.02 305.60 243.99 307.33 C 243.90 309.38 243.43 313.64 242.99 316.82 C 239.99 337.31 239.22 339.82 234.32 346.39 C 222.74 361.92 206.86 373.39 191.48 377.22 C 186.38 378.51 182.72 379.92 182.07 380.86 C 181.87 381.18 182.36 382.58 183.22 383.99 C 184.94 386.86 187.22 394.99 188.49 402.56 C 189.63 409.34 189.72 417.56 188.69 422.70 C 188.26 424.96 187.43 429.14 186.85 432.01 C 184.91 441.86 184.68 443.68 185.50 443.44 C 186.88 443.09 197.04 431.22 198.84 427.91 C 202.56 421.00 205.34 408.19 205.14 398.91 C 205.05 395.46 208.65 397.21 210.47 401.52 C 213.25 408.20 212.81 422.24 209.47 430.82 C 208.24 434.05 207.15 435.87 203.23 441.14 C 201.39 443.63 198.30 448.38 196.43 451.66 C 188.55 465.40 181.31 473.05 168.09 481.52 C 163.90 484.18 156.96 488.76 152.68 491.59 C 144.80 496.90 136.98 501.44 124.14 508.15 C 109.28 515.95 104.14 519.84 101.29 525.33 C 99.91 527.96 99.70 529.05 99.44 534.64 C 99.26 538.06 99.32 541.49 99.61 544.90 C 99.88 547.04 100.29 550.29 100.52 552.14 C 101.03 555.17 101.69 558.18 102.52 561.14 C 103.37 564.25 104.30 567.85 104.52 569.14 C 104.89 570.59 105.51 571.97 106.36 573.21 C 108.36 575.85 107.07 577.64 104.52 575.70 Z M 125.87 478.55 C 129.30 477.11 132.37 474.55 141.05 465.65 C 148.37 458.15 149.49 456.75 151.25 452.32 C 152.48 449.25 152.68 447.72 153.12 438.78 C 153.65 428.35 153.33 425.92 151.39 425.83 C 149.90 425.77 149.14 427.62 148.25 433.48 C 146.12 447.48 144.89 450.80 138.73 458.97 C 136.38 462.06 134.19 465.27 132.17 468.58 C 130.17 472.18 125.17 477.44 123.32 477.90 C 122.78 478.02 122.36 478.45 122.24 478.99 C 122.18 480.04 122.32 479.99 125.87 478.55 Z M 153.33 412.44 C 154.00 410.24 153.12 405.99 151.68 404.38 C 150.05 402.62 148.25 402.86 148.68 404.82 C 148.85 405.50 149.14 407.46 149.38 409.13 C 150.00 413.79 150.52 414.87 151.81 414.26 C 152.50 413.85 153.02 413.20 153.28 412.44 Z M 235.33 283.34 C 238.39 278.89 241.83 274.71 245.62 270.85 C 250.48 266.05 255.17 259.28 255.29 256.93 C 255.34 256.46 255.55 256.02 255.87 255.67 C 256.64 254.97 257.69 246.67 257.34 244.22 C 256.93 241.28 255.34 241.46 249.95 245.04 C 247.49 246.68 244.36 248.64 242.95 249.46 C 237.23 252.79 233.05 258.25 231.32 264.64 C 230.32 268.12 228.94 290.64 229.74 290.64 C 230.00 290.64 232.49 287.36 235.30 283.31 Z M 213.15 241.16 C 212.77 240.50 215.82 232.46 218.01 228.31 C 221.65 221.47 230.85 212.45 241.16 205.59 C 244.80 203.19 256.16 197.92 263.52 195.20 C 271.11 192.41 273.95 191.06 284.80 185.11 C 301.71 175.82 307.54 171.96 307.66 170.02 C 307.71 168.82 306.13 169.44 289.57 177.23 C 270.21 186.30 268.00 187.30 262.86 189.00 C 255.56 191.43 240.77 198.14 236.70 200.89 C 227.58 207.05 217.64 217.83 215.07 224.34 C 213.28 228.88 211.14 239.75 211.75 241.10 C 212.08 241.72 212.55 242.10 212.84 241.92 C 212.99 241.85 213.10 241.73 213.16 241.58 C 213.21 241.43 213.20 241.26 213.13 241.12 Z M 18.15 352.87 C 17.60 351.92 17.26 350.86 17.15 349.76 C 17.16 348.99 17.03 348.22 16.77 347.50 C 16.34 346.37 16.01 345.21 15.77 344.02 C 15.45 342.64 14.48 338.89 13.60 335.67 C 10.60 324.74 10.32 319.58 12.17 310.09 C 13.22 304.63 13.66 302.94 14.60 300.94 C 14.92 300.27 15.42 299.16 15.74 298.48 C 16.06 297.80 16.68 296.48 17.12 295.48 C 17.56 294.48 18.29 293.77 18.76 293.89 C 19.76 294.16 19.93 300.34 19.38 314.89 C 19.17 320.25 19.15 326.73 19.32 329.28 C 20.52 346.51 20.67 353.87 19.81 354.33 C 19.44 354.54 18.73 353.90 18.15 352.81 Z M 68.92 317.12 C 69.09 316.13 69.39 315.16 69.83 314.25 C 70.69 313.16 74.32 303.99 76.07 298.42 C 77.07 295.20 77.51 283.95 76.87 276.95 C 76.41 271.14 75.57 265.36 74.35 259.66 C 73.35 254.53 73.15 244.25 73.99 243.75 C 75.22 242.99 75.90 243.45 77.92 246.42 C 84.00 255.22 87.30 266.30 88.10 280.00 C 88.58 286.06 87.67 292.14 85.43 297.79 C 83.61 302.42 82.32 304.55 77.08 311.50 C 71.08 319.41 71.08 319.50 69.64 319.44 C 68.55 319.38 68.50 319.18 68.93 317.04 Z M 115.57 289.60 C 115.22 288.00 115.00 286.38 114.93 284.74 C 114.79 282.37 114.44 279.05 114.19 277.36 C 113.94 275.67 113.67 273.36 113.55 272.20 C 113.55 271.35 113.31 270.53 112.88 269.80 C 112.54 269.38 112.38 268.84 112.44 268.30 C 112.53 266.72 111.27 262.03 110.07 259.30 C 109.36 257.72 109.66 255.52 110.53 255.58 C 111.40 255.64 113.32 258.16 114.81 261.30 C 115.67 263.02 116.22 264.99 118.33 273.43 C 118.97 276.01 118.24 288.78 117.39 289.55 C 116.54 290.32 115.99 290.34 115.57 289.55 Z M 19.90 282.22 C 19.35 281.84 19.15 280.84 19.26 279.11 C 19.44 276.86 19.76 276.30 22.07 274.16 C 26.23 270.41 27.40 271.76 25.30 277.88 C 23.83 282.13 21.96 283.68 19.90 282.22 Z M 29.90 259.22 C 28.90 257.90 29.90 256.22 32.52 254.88 C 37.14 252.48 38.23 254.09 34.59 257.88 C 32.42 260.16 30.96 260.57 29.90 259.17 Z M 172.11 245.13 C 171.47 244.24 171.02 243.21 170.82 242.13 C 170.52 240.90 169.82 238.13 169.29 236.07 C 168.14 231.78 168.52 227.22 170.35 223.18 C 171.64 220.01 175.86 214.44 176.92 214.50 C 177.98 214.56 177.62 217.50 175.92 223.96 C 174.85 228.03 174.27 232.21 174.19 236.42 C 174.02 239.03 174.02 241.64 174.19 244.25 C 174.51 245.48 173.14 246.03 172.08 245.07 Z M 73.54 233.42 C 73.07 232.57 76.65 228.12 79.72 225.66 C 84.93 221.49 87.28 220.82 98.83 220.15 C 113.59 219.27 117.63 218.48 123.83 215.28 C 128.49 212.88 129.83 210.68 129.83 205.61 C 129.84 203.75 129.54 201.90 128.92 200.14 C 128.45 199.14 127.74 197.59 127.34 196.71 C 125.61 194.14 123.68 191.71 121.56 189.44 C 112.56 179.22 110.43 174.17 113.09 169.22 C 115.41 164.97 120.21 162.01 128.95 159.52 C 130.12 159.20 131.23 159.11 131.44 159.34 C 131.65 159.57 129.19 162.07 125.96 164.85 C 119.75 170.24 119.10 171.27 119.40 175.31 C 119.78 180.31 120.10 180.97 122.88 183.37 C 128.36 188.03 134.49 195.45 136.30 199.54 C 137.60 202.02 138.13 204.83 137.83 207.61 C 137.68 211.18 137.44 212.12 136.04 214.25 C 133.52 217.53 130.32 220.23 126.66 222.17 C 118.23 226.04 112.01 227.17 96.77 227.79 C 90.50 228.00 85.99 229.08 78.69 232.10 C 73.86 234.10 73.94 234.10 73.60 233.42 Z M 181.34 207.00 C 180.16 206.18 181.07 204.00 183.10 202.78 C 185.13 201.56 187.10 201.29 187.10 202.25 C 187.02 204.16 182.59 207.82 181.39 207.00 Z M 147.29 144.35 C 148.21 143.31 149.27 142.42 150.45 141.69 C 152.65 140.28 159.33 137.26 160.15 137.29 C 160.79 137.17 161.42 136.95 162.00 136.65 C 169.12 133.36 180.93 131.90 191.77 132.98 C 205.57 134.36 226.00 135.77 230.10 135.59 C 232.41 135.50 237.28 135.09 240.94 134.68 C 244.60 134.27 249.76 133.68 252.37 133.42 C 258.26 132.84 270.59 129.47 277.37 126.63 C 281.27 124.86 285.05 122.86 288.71 120.63 C 306.76 109.56 310.34 107.50 310.83 108.05 C 311.83 109.17 300.99 119.49 292.32 125.61 C 284.20 131.35 279.52 133.40 265.77 137.18 C 258.77 139.12 249.24 140.55 233.45 142.05 C 229.17 142.43 208.30 140.99 203.38 139.97 C 201.72 139.61 196.38 138.86 191.49 138.30 C 180.85 137.04 173.35 137.30 166.96 139.06 C 164.62 139.73 161.42 140.61 159.87 141.06 C 158.32 141.51 155.30 142.53 153.10 143.40 C 151.37 144.16 149.60 144.83 147.80 145.40 C 146.45 145.72 146.42 145.72 147.33 144.46 Z M 321.93 96.11 C 321.03 94.58 321.52 92.57 323.40 89.96 C 324.69 88.20 331.10 84.13 331.99 84.51 C 332.88 84.89 332.86 87.32 331.72 90.08 C 329.11 96.46 323.98 99.63 321.93 96.08 Z M 338.55 68.00 C 338.76 65.73 339.16 63.49 339.75 61.29 C 340.33 59.03 341.01 55.78 341.27 54.05 C 341.80 50.27 343.12 49.48 345.20 51.65 C 347.66 54.17 346.25 61.43 342.12 67.53 C 339.46 71.53 338.37 71.64 338.55 68.03 Z" stroke-linecap="round"/>
</g>
</g>
</g>

  </svg>